<?xml version="1.0" encoding="UTF-8" standalone="no"?>
<svg
   xmlns:dc="http://purl.org/dc/elements/1.1/"
   xmlns:cc="http://creativecommons.org/ns#"
   xmlns:rdf="http://www.w3.org/1999/02/22-rdf-syntax-ns#"
   xmlns:svg="http://www.w3.org/2000/svg"
   xmlns="http://www.w3.org/2000/svg"
   id="svgAY1"
   version="1.1"
   viewBox="0 0 100 100"
   height="100"
   width="100">
  <defs
     id="defs6029" />
  <metadata
     id="metadata6032">
    <rdf:RDF>
      <cc:Work
         rdf:about="">
        <dc:format>image/svg+xml</dc:format>
        <dc:type
           rdf:resource="http://purl.org/dc/dcmitype/StillImage" />
        <dc:title></dc:title>
      </cc:Work>
    </rdf:RDF>
  </metadata>
  <path
     d="m 72.517578,4.4101562 c -0.118414,0.00169 -0.216551,0.056371 -0.285156,0.171875 C 72.084103,4.8317369 71.783,6.1500278 71.5625,7.5117188 c -0.220484,1.3616908 -0.714905,3.0950672 -1.097656,3.8515622 -0.382754,0.756495 -1.028337,2.117597 -1.435547,3.025391 -0.859033,1.915116 -10.29129,11.279297 -11.361328,11.279297 -0.396784,0 -0.862938,0.370335 -1.03711,0.824219 -0.174184,0.453895 -0.599475,0.825043 -0.945312,0.824218 -0.345869,-8.41e-4 -1.619691,0.47247 -2.830078,1.052735 -3.322495,1.592815 -5.38203,2.411561 -6.601563,2.621093 -0.605195,0.10398 -1.734007,0.443337 -2.507812,0.75586 -0.773818,0.312502 -3.001605,0.652646 -4.951172,0.755859 -1.949575,0.103224 -3.981557,0.368904 -4.515625,0.589844 -0.534072,0.220952 -1.486427,0.267986 -2.115235,0.103515 -0.62962,-0.164647 -1.993652,0.178694 -3.035156,0.763672 -2.533707,1.423096 -3.062565,1.340962 -2.919922,-0.451172 0.06623,-0.832143 -0.07806,-1.979772 -0.320312,-2.548828 -0.288522,-0.677717 -0.08036,-1.702778 0.603516,-2.972656 0.739911,-1.373928 1.011707,-2.869243 0.929687,-5.132812 -0.06364,-1.7567 0.122575,-3.342081 0.416016,-3.523438 0.817643,-0.505331 0.634613,-1.365234 -0.291016,-1.365234 -0.4539,0 -0.824219,0.372275 -0.824219,0.826172 0,0.453895 -0.238063,0.824218 -0.527344,0.824218 -0.289281,0 -1.711452,0.693208 -3.162109,1.539063 -1.450657,0.845856 -3.796549,1.971809 -5.210937,2.503906 -5.559749,2.091596 -8.97666,5.980946 -8.759766,9.96875 0.062724,1.153201 -0.7033541,2.767795 -2.609375,5.501953 -2.6973014,3.869245 -5.4374454,9.431693 -4.9082031,9.960938 0.3147206,0.314714 4.1298025,-1.804772 5.3066406,-2.947266 1.2553675,-1.218726 1.810371,0.02899 1.875,4.222656 0.033137,2.151305 0.1949131,3.910303 0.3613281,3.908204 0.3624774,-0.0045 2.7792974,-3.486155 2.7792974,-4.003907 0,-0.977611 3.63089,-5.345703 4.443359,-5.345703 1.198271,0 1.560931,1.314393 2.130859,7.703125 0.656194,7.355762 3.14112,12.402423 9.023438,18.328125 3.630997,3.657772 6.790795,5.020198 11.498047,4.955078 2.721436,-0.03765 3.714843,0.139694 3.714843,0.667969 0,1.3873 2.80508,4.107422 4.236328,4.107422 1.307294,0 1.363449,0.118976 0.990235,2.0625 -0.217897,1.13474 -0.454311,2.43225 -0.525391,2.882812 -0.08931,0.566135 -0.962668,0.87559 -2.828125,1.001953 -1.861194,0.126106 -3.075791,0.554392 -3.910156,1.38086 -1.41619,1.402756 -2.037627,4.118588 -1.179687,5.152344 0.848965,1.022949 1.721245,0.899847 2.83789,-0.404297 0.801865,-0.936508 1.529431,-1.108836 4.275391,-1.009766 4.380403,0.158075 4.954081,-0.453886 5.296875,-5.646484 0.153327,-2.322542 0.592811,-4.412176 1.033203,-4.908203 0.672664,-0.75765 0.468692,-1.088019 -1.658203,-2.681641 -2.174914,-1.629591 -3.038347,-2.969106 -3.060547,-4.751953 -0.0079,-0.626185 4.118683,-3.479616 6.792969,-4.697266 1.46304,-0.666145 1.647948,-0.611457 2.658203,0.775391 0.59741,0.820113 1.438527,1.490234 1.867187,1.490234 1.074226,0 0.974617,0.874578 -0.298828,2.636719 -0.900708,1.246372 -1.08988,2.481014 -1.15039,7.541016 -0.03987,3.328576 -0.0482,6.315381 -0.02148,6.636718 0.02712,0.321349 0.790499,1.132327 1.697266,1.802735 1.550657,1.146444 1.746617,1.168924 3.300781,0.365234 0.908822,-0.469968 1.652344,-0.951511 1.652344,-1.070312 0,-0.118784 0.150275,-0.607292 0.333984,-1.085938 0.216024,-0.562941 0.03416,-0.871094 -0.517578,-0.871094 -2.367255,0 -3.795863,-7.484557 -1.541016,-8.074218 0.806855,-0.210992 1.103241,-0.985795 1.378907,-3.623047 0.192912,-1.845664 0.721014,-3.922201 1.173828,-4.613282 1.085206,-1.656228 1.118601,-1.579541 -1.150391,-2.65625 -1.289765,-0.612035 -2.253303,-1.60321 -2.777344,-2.857421 -0.783017,-1.874012 -0.758517,-1.968637 1.011719,-4.011719 2.508758,-2.895443 7.159485,-9.322454 8.072266,-11.15625 0.41604,-0.835836 1.034548,-1.517472 1.375,-1.513672 0.971815,0.01077 5.294922,4.254164 5.294922,5.197266 0,0.466034 0.221989,0.847656 0.492187,0.847656 0.576416,0 1.31124,1.682899 0.910156,2.083984 -0.151107,0.151127 -0.590975,0.01852 -0.976562,-0.294922 -1.356141,-1.102573 -4.959757,-2.93868 -5.232422,-2.666015 -0.151724,0.151719 -0.637808,-0.08703 -1.080078,-0.529297 -0.442266,-0.442258 -1.032373,-0.664099 -1.310547,-0.492188 -0.817642,0.505312 -0.5792,1.34961 0.380859,1.34961 1.38434,0 7.507447,3.395255 8.857422,4.912109 1.891634,2.125457 2.216021,0.826804 0.582032,-2.332031 -0.812471,-1.570696 -1.729585,-3.536996 -2.03711,-4.369141 -0.307503,-0.832145 -0.78482,-1.511719 -1.0625,-1.511719 -0.277713,0 -0.637729,-0.343993 -0.798828,-0.763671 -0.325037,-0.847022 6.324586,2.432 7.679688,3.787109 1.115608,1.115568 1.983566,1.043955 1.654296,-0.136719 -0.147687,-0.529549 -0.445308,-1.581395 -0.662109,-2.33789 C 84.334997,50.131608 81.546269,45.670462 80.425781,44.632812 80.08965,44.321527 79.211652,43.389638 78.474609,42.5625 l -1.341797,-1.503906 1.890626,0.341797 c 2.79485,0.504449 7.009303,2.797977 10.294921,5.603515 3.100429,2.647393 3.841701,2.833929 2.59375,0.652344 -0.426945,-0.746362 -0.929367,-1.727741 -1.117187,-2.181641 -2.287223,-5.528457 -4.684008,-8.646272 -8.50586,-11.066406 -1.950774,-1.235297 -2.219338,-1.569625 -1.269531,-1.578125 0.662988,-0.0058 1.357925,0.236471 1.544922,0.539063 0.187014,0.302627 0.666534,0.550781 1.064453,0.550781 0.663864,0 4.152086,1.853289 6.515625,3.460937 0.78809,0.536069 1.091238,0.504534 1.550781,-0.160156 0.455224,-0.658442 0.506224,-0.594802 0.253907,0.3125 -0.21664,0.779042 0.118235,1.544544 1.0625,2.431641 0.758123,0.712202 1.497819,1.176009 1.644531,1.029297 0.29317,-0.293165 -2.57342,-6.038592 -3.689453,-7.394532 -2.015573,-2.448853 -7.513285,-7.43876 -8.953125,-8.126953 -0.907794,-0.433894 -2.300135,-1.089066 -3.095703,-1.455078 -0.965584,-0.44423 -1.362661,-0.985072 -1.195313,-1.625 0.370168,-1.415524 2.603619,-0.807159 6.355469,1.728516 1.739939,1.17593 3.164063,1.968481 3.164063,1.761718 -10e-7,-0.206759 0.60561,0.279398 1.347656,1.080079 0.74205,0.800682 1.619085,1.455078 1.949218,1.455078 0.330117,0 2.044994,1.485195 3.810547,3.300781 1.765558,1.815585 3.364463,3.300781 3.552735,3.300781 0.766447,0 0.272706,-1.428425 -0.705078,-2.039062 -0.5767,-0.360156 -1.359149,-1.596121 -1.738282,-2.746094 C 95.079817,29.084402 94.274472,27.27589 93.669922,26.216797 93.065377,25.157704 92.27153,23.732172 91.90625,23.046875 91.540954,22.361578 90.697494,21.327827 90.03125,20.75 89.36501,20.172172 88.787917,19.494004 88.748047,19.244141 88.611978,18.390913 83.315068,13.840684 80.736328,12.361328 79.320825,11.549292 77.638265,10.869749 76.996094,10.849609 76.078774,10.820884 75.757351,10.362793 75.494141,8.7167969 75.209752,6.9382933 73.346476,4.3983597 72.517578,4.4101562 Z m 1.060547,2.5546876 c 0.461953,-0.0054 1.558594,5.0201292 1.558594,7.1425782 0,0.875041 0.225773,1.730929 0.5,1.90039 0.27423,0.169459 0.375823,0.77496 0.226562,1.345704 -0.14922,0.570743 -0.03109,1.186241 0.261719,1.367187 1.039968,0.642736 0.104427,12.394672 -1.322266,16.615235 -0.723712,2.140941 -1.316406,4.384109 -1.316406,4.984374 0,0.60026 -0.362369,1.572774 -0.80664,2.160157 -0.444244,0.58738 -0.816272,1.439156 -0.826172,1.892578 -0.0096,0.453423 -1.069425,2.902857 -2.355469,5.443359 -2.836537,5.603421 -12.057804,16.415324 -15.824219,18.554688 -1.35182,0.767849 -2.583635,1.562226 -2.738281,1.765625 -0.436922,0.574821 -2.270035,1.674736 -4.681641,2.80664 -2.70743,1.270716 -10.263835,1.869919 -12.824218,1.017579 -2.217391,-0.738158 -7.257813,-5.354213 -7.257813,-6.646485 0,-1.336672 0.829931,-1.152031 1.853516,0.410156 1.340525,2.045898 5.298612,4.49941 7.912109,4.90625 3.000331,0.467075 9.415577,-0.942163 13.064453,-2.871093 3.850672,-2.035621 8.940531,-5.436879 9.464844,-6.324219 0.242184,-0.409869 1.554322,-2.045123 2.916015,-3.634766 1.361692,-1.589651 3.130626,-3.673238 3.931641,-4.628906 2.250731,-2.685249 6.24673,-12.155169 7.570313,-17.943359 2.626865,-11.487538 1.736851,-27.9891636 -1.289063,-23.910157 -0.436894,0.588932 -0.936107,1.62192 -1.109375,2.294922 -0.618197,2.401574 -3.137134,5.340964 -6.779297,7.908203 -2.034252,1.433873 -5.18441,3.717895 -7,5.076172 -1.993963,1.491722 -4.609552,2.844019 -6.603515,3.414063 -1.815585,0.51904 -3.547019,1.092071 -3.84961,1.273437 -0.623016,0.373443 -1.191236,0.484183 -4.677734,0.917969 -1.36169,0.169428 -3.095068,0.44476 -3.851563,0.611328 -0.756495,0.166616 -2.702897,0.519314 -4.326171,0.785156 -2.671994,0.437652 -7.640113,2.390164 -8.328126,3.273438 -0.151298,0.194229 -0.706781,0.513601 -1.236328,0.708984 -0.529547,0.195376 -0.96289,0.889415 -0.96289,1.541016 0,1.127374 0.06033,1.139885 1.238281,0.287109 3.720378,-2.693343 3.699087,-2.683316 4.482422,-2.033203 1.121198,0.930511 -0.03151,4.23774 -1.955078,5.607422 -1.44227,1.026952 -1.609306,1.037092 -2.923828,0.175781 -0.766464,-0.502213 -1.408968,-1.069623 -1.429688,-1.261718 -0.02085,-0.192144 -0.135028,-1.085465 -0.251953,-1.984376 -0.217444,-1.671697 0.967087,-3.591796 2.214844,-3.591796 0.360098,0 1.076186,-0.467366 1.591797,-1.03711 1.432524,-1.582922 5.049275,-2.720742 10.511718,-3.308594 5.940556,-0.639314 7.270608,-0.905135 11.248047,-2.25 4.913524,-1.661379 9.082358,-3.74237 10.478516,-5.228515 0.713933,-0.759944 1.565178,-1.383872 1.890625,-1.388672 1.350842,-0.01971 8.083866,-7.047265 9.927734,-10.361328 1.068418,-1.920307 1.941407,-3.789794 1.941407,-4.154297 0,-0.92312 1.296407,-3.6236863 1.742187,-3.6289062 z m 3.435547,4.9023442 c 1.244764,0.0523 4.315785,2.010722 8.533203,5.546874 2.8239,2.36774 8.296875,9.87958 8.296875,11.386719 0,0.921344 0.175159,1.006684 -3.025391,-1.482422 -1.512986,-1.176672 -2.935792,-2.153112 -3.160156,-2.169921 -0.224323,-0.01686 -1.542202,-0.897939 -2.929687,-1.957032 -1.387485,-1.059093 -3.008844,-1.925781 -3.603516,-1.925781 -2.016432,0 -3.358323,-1.892166 -4.003906,-5.644531 -0.143609,-0.83474 -0.418102,-2.010681 -0.609375,-2.613282 -0.252507,-0.79558 -0.06385,-1.164397 0.501953,-1.140624 z m -5.025391,3.378906 c 0.281276,-0.08788 0.874983,1.254732 1.117188,2.855468 0.309325,2.044418 0.295776,2.064454 -1.578125,2.064454 -2.200091,0 -2.267395,-0.173867 -0.791016,-2.050782 0.605196,-0.769383 1.09961,-1.786156 1.09961,-2.259765 0,-0.39063 0.05859,-0.580083 0.152343,-0.609375 z m -46.382812,6.183594 c 0.468576,-0.06027 0.633872,0.404667 0.865234,1.550781 0.30735,1.522534 -1.36568,5.42234 -2.330078,5.43164 -1.263181,0.01217 -1.373769,1.198778 -0.226563,2.419922 2.310624,2.459547 1.14735,5.192697 -3.529296,8.296875 -3.450398,2.29024 -7.620304,6.867169 -8.914063,9.783203 -1.02557,2.311588 -1.8285271,2.698116 -1.7187499,0.826172 0.039932,-0.680845 0.0069,-1.486471 -0.072266,-1.789062 -0.3390018,-1.295861 0.06417,-2.505926 1.1835935,-3.548828 1.325269,-1.234681 1.341475,-1.190188 -0.785156,-2.103516 -1.334977,-0.573353 -1.5117188,-0.531719 -1.5117188,0.353516 0,1.023858 -0.9625123,2.010193 -3.15625,3.236328 -2.9205284,1.632357 -2.543731,0.127308 1.2050782,-4.814453 1.0329742,-1.36169 1.8937965,-2.684588 1.9140625,-2.939454 0.020092,-0.254869 0.5338793,-1.093878 1.140625,-1.865234 0.7813971,-0.993354 0.9378651,-1.601498 0.5390621,-2.082031 -0.6961412,-0.838799 0.993214,-5.026358 2.611328,-6.472656 0.603121,-0.539079 3.138844,-1.828297 5.634766,-2.865235 2.495921,-1.036936 5.151491,-2.286643 5.900391,-2.777344 0.578788,-0.379236 0.968854,-0.604463 1.25,-0.640624 z m 46.529297,0.07422 c 0.203308,-0.04058 0.387541,0.09812 0.632812,0.400391 0.329126,0.405573 0.532545,1.356787 0.453125,2.113281 -0.07942,0.756496 -0.17425,2.056527 -0.212891,2.888672 -0.07403,1.595341 -0.413542,1.801949 -1.658203,1.013672 -0.41872,-0.265195 -1.450575,-0.374948 -2.292968,-0.242188 -1.995106,0.314432 -2.331553,-1.012901 -0.962891,-3.798828 1.041299,-2.119569 1.804584,-2.584059 2.257812,-1.375 0.182172,0.485949 0.486099,0.391212 1.03711,-0.324218 0.319649,-0.415032 0.542785,-0.6352 0.746094,-0.675782 z m -2.617188,2.087891 c -0.245306,0.03995 -0.43164,0.302818 -0.43164,0.837891 -10e-7,0.579978 0.165473,1.220136 0.367187,1.421874 0.750835,0.750838 1.353778,0.32861 1.183594,-0.828124 -0.139052,-0.944967 -0.710297,-1.498227 -1.119141,-1.431641 z m 9.298828,1.541015 c 0.437909,-0.03373 1.100151,0.245442 2.083985,0.75586 2.182049,1.132066 7.26088,5.790673 8.917968,8.179687 0.790881,1.140224 1.331709,2.178057 1.203125,2.306641 -0.218744,0.218753 -3.725973,-1.765312 -4.330078,-2.449219 -0.697272,-0.789385 -5.280174,-2.44542 -6.816406,-2.46289 -1.701751,-0.01934 -1.712817,-0.03612 -1.820312,-3.181641 -0.07404,-2.166644 0.03187,-3.092222 0.761718,-3.148438 z M 64.404297,25.1875 c 0.60783,-0.03299 1.030209,0.357274 1.34375,1.167969 0.374275,0.967705 0.220665,1.440485 -0.705078,2.169922 -0.941708,0.742018 -1.045505,1.073836 -0.503907,1.617187 0.541723,0.54346 0.373885,0.885708 -0.824218,1.675781 -1.756156,1.158057 -3.154101,1.333358 -2.517578,0.314453 0.749309,-1.199458 0.701265,-2.290215 -0.142578,-3.222656 -0.734981,-0.812137 -0.644319,-1.053112 0.896484,-2.349609 1.051498,-0.884781 1.845295,-1.340058 2.453125,-1.373047 z m -5.375,3.291016 0.65625,1.228515 c 0.47261,0.883148 0.499541,1.648238 0.0918,2.720703 -0.643593,1.692787 -0.59528,1.674822 -2.447266,0.970704 -0.795062,-0.302301 -2.026893,-0.327683 -2.923828,-0.05859 -0.852579,0.255819 -1.960047,0.632497 -2.458984,0.835937 -0.498945,0.203432 -1.073163,0.09991 -1.277344,-0.230469 -0.223204,-0.361145 0.687677,-1.062242 2.283203,-1.755859 1.45962,-0.634536 3.423953,-1.728406 4.365234,-2.431641 z m 9.773437,0.490234 c 0.697531,0 0.726384,0.183172 0.169922,1.074219 -1.010773,1.618508 -0.06461,2.034561 1.431641,0.628906 1.031536,-0.969084 1.414836,-1.079648 1.771484,-0.507813 1.09947,1.762736 0.342436,4.656885 -0.894531,3.419922 -0.654556,-0.654568 -3.128699,-0.378551 -3.611328,0.402344 -0.641604,1.038134 -1.884766,0.450766 -1.884766,-0.890625 0,-0.756498 0.206894,-1.376953 0.460938,-1.376953 0.254031,0 0.743204,-0.618504 1.08789,-1.375 0.344681,-0.756495 1.005799,-1.375 1.46875,-1.375 z m -11.11914,2.158203 c -0.219382,-0.02269 -0.49808,0.25601 -0.619141,0.619141 -0.121044,0.363104 0.07635,0.562464 0.439453,0.441406 0.709263,-0.23642 0.837538,-0.992497 0.179688,-1.060547 z m -42.080078,0.464844 c -0.590824,0.04922 -1.203216,0.297272 -1.78125,0.751953 -0.778687,0.612525 -1.286052,1.324576 -1.126954,1.582031 0.159112,0.25746 0.03801,0.624413 -0.269531,0.814453 -0.642463,0.397068 -0.740948,3.559145 -0.138672,4.460938 0.222316,0.33288 0.776572,0.73561 1.230469,0.894531 2.330424,0.81592 6.029382,-4.893212 4.619141,-7.128906 -0.622461,-0.986808 -1.548498,-1.457034 -2.533203,-1.375 z m 61.785156,1.966797 c 0.197853,-0.02087 0.402334,0.03637 0.595703,0.191406 0.401311,0.321755 1.311391,0.763813 2.023437,0.982422 1.267135,0.389057 5.504272,3.039062 4.859376,3.039062 -0.179768,0 0.258745,0.584925 0.974609,1.300782 0.715865,0.71586 1.832667,2.343553 2.482422,3.617187 1.233217,2.417204 1.348925,4.162526 0.148437,2.240235 -0.379816,-0.608183 -1.060384,-1.105469 -1.511718,-1.105469 -0.45134,0 -0.820313,-0.19912 -0.820313,-0.441407 0,-0.805951 -4.843514,-2.808552 -7.714844,-3.189453 -3.043836,-0.403777 -3.89641,-1.320251 -2.824219,-3.037109 0.350362,-0.561009 0.640432,-1.332463 0.644532,-1.714844 0.01262,-1.041541 0.549018,-1.820203 1.142578,-1.882812 z m -13.169922,0.02539 c 1.087045,0.122401 1.259601,2.497484 0.07031,4.097657 -1.181573,1.58982 -3.864884,2.278972 -4.24414,1.089843 -0.127133,-0.398512 -0.327828,-1.507929 -0.445313,-2.464843 -0.194154,-1.581655 -0.0598,-1.76077 1.472657,-1.978516 0.927144,-0.13172 2.10812,-0.423538 2.625,-0.648437 0.191334,-0.08326 0.366192,-0.113189 0.521484,-0.0957 z m -48.496094,0.02734 c 0.678257,-0.153869 1.095703,0.522069 1.095703,1.978516 0,1.209962 -0.387582,1.803258 -1.580078,2.419922 -2.590014,1.339348 -3.154627,-0.502585 -0.984375,-3.214844 0.560271,-0.700198 1.061796,-1.091272 1.46875,-1.183594 z m 32.75586,0.410156 c 0.45566,-0.01892 0.834203,0.236553 1.429687,0.832032 0.949317,0.949304 1.074255,1.52778 0.75,3.447265 -0.440047,2.604584 -2.660085,4.416422 -5.414062,4.419922 -1.00956,0.0013 -1.472183,0.244067 -1.314453,0.689453 0.32201,0.909542 2.631754,0.710506 5.046874,-0.435547 4.35338,-2.065814 6.24077,0.710767 2.996094,4.40625 -0.939143,1.069618 -2.115084,1.925364 -2.613281,1.902344 -1.154451,-0.05333 -4.309983,-2.413654 -6.285156,-4.701172 L 41.546875,42.8125 42.970703,41.275391 c 1.128616,-1.217835 1.390447,-1.995681 1.263672,-3.751953 -0.133619,-1.850601 0.02019,-2.245659 0.929687,-2.388672 0.599046,-0.09421 1.654368,-0.453094 2.345704,-0.796875 0.393844,-0.19583 0.695353,-0.305053 0.96875,-0.316407 z m 6.99414,0.730469 c 0.855554,-0.03014 1.714726,0.08468 2.136719,0.310547 1.06076,0.567704 1.451069,3.259766 0.472656,3.259766 -0.302629,0 -0.550781,0.475563 -0.550781,1.058593 0,0.639561 -0.687567,1.403566 -1.734375,1.925782 -0.954283,0.476061 -1.760292,0.835828 -1.789063,0.798828 -0.02916,-0.03716 -0.61187,-0.344581 -1.296874,-0.683594 -0.820862,-0.406239 -1.12,-0.898843 -0.875,-1.445313 0.204464,-0.456 0.478613,-1.730311 0.609374,-2.830078 0.214346,-1.802565 0.430452,-2.030957 2.189454,-2.316406 0.268297,-0.04353 0.552706,-0.06808 0.83789,-0.07813 z m 13.785156,0.339844 c 0.165027,0.0017 0.343087,0.01425 0.539063,0.0332 1.396245,0.135021 1.778225,0.431977 1.828125,1.421875 0.03469,0.688306 -0.152415,1.383206 -0.414062,1.544922 -0.261625,0.161705 -0.47461,0.87791 -0.47461,1.591797 0,0.713884 -0.146862,1.681169 -0.326172,2.148437 -0.292911,0.763574 -0.460521,0.761374 -1.652344,-0.01953 -1.188039,-0.778418 -1.585146,-0.784109 -3.800781,-0.05469 -2.337805,0.76965 -2.474609,0.757651 -2.474609,-0.210937 0,-0.563714 0.349876,-1.025391 0.77539,-1.025391 0.425512,0 1.673368,-1.251978 2.773438,-2.783203 1.554423,-2.163629 2.071379,-2.658305 3.226562,-2.646484 z m -29.388671,0.478515 c 1.723423,10e-7 3.357421,1.214547 3.357421,2.496094 0,0.422197 -0.874177,1.643712 -1.943359,2.712891 -3.005957,3.005956 -6.373034,2.343795 -4.589844,-0.902344 0.386993,-0.70449 0.759252,-1.609854 0.826172,-2.011719 0.296031,-1.778404 0.82444,-2.294922 2.34961,-2.294922 z m 23.398437,0.0625 c -0.07522,-0.0064 -0.164421,0.0066 -0.267578,0.04102 -0.397163,0.132386 -0.830525,0.565753 -0.962891,0.962891 -0.137545,0.412679 0.06784,0.618014 0.480469,0.480469 0.397158,-0.132392 0.830526,-0.565753 0.962891,-0.962891 0.103159,-0.309506 0.01277,-0.502153 -0.212891,-0.521485 z m -8.210937,0.488282 c -0.859116,0 -1.092035,0.650149 -0.458985,1.283203 0.633053,0.633054 1.283203,0.400163 1.283203,-0.458985 0,-0.453858 -0.370323,-0.824218 -0.824218,-0.824218 z m -20.072266,0.595703 c 1.461124,0.01537 1.487432,0.701953 0.472656,2.421875 -0.635135,1.076471 -1.677565,2.324026 -2.316406,2.771484 -2.211516,1.549008 -3.117187,1.074327 -3.117187,-1.630859 0,-2.742713 0.152956,-2.913473 3.007812,-3.367188 0.82079,-0.130444 1.466084,-0.200435 1.953125,-0.195312 z m 32.535156,0.05078 c -0.700037,0.111436 -0.917231,1.086668 -0.255859,1.748047 0.576708,0.576699 1.546875,0.08545 1.546875,-0.783203 0,-0.424532 -0.433342,-0.855044 -0.962891,-0.957031 -0.118545,-0.02283 -0.228119,-0.02373 -0.328125,-0.0078 z m -27.023437,0.453125 c -0.615847,0 -1.121094,0.103899 -1.121094,0.230469 0,0.126549 -0.150275,0.620959 -0.333984,1.099609 -0.499377,1.301369 1.276819,1.097206 1.986328,-0.228515 0.499221,-0.932841 0.417976,-1.101563 -0.53125,-1.101563 z m 8.414062,0 c -0.690904,0 -2.382812,1.817568 -2.382812,2.560547 0,0.990026 0.826715,0.936965 1.886718,-0.123047 0.867568,-0.867587 1.187335,-2.4375 0.496094,-2.4375 z m -15.861328,0.550781 c -0.523774,0 -0.826172,0.527648 -0.826172,1.44336 0,1.220121 0.128283,1.337007 0.826172,0.757812 0.45388,-0.3767 0.826172,-1.026509 0.826172,-1.443359 0,-0.416828 -0.372275,-0.757813 -0.826172,-0.757813 z m 26.50586,2.269532 c 0.46023,-0.07852 0.870798,0.618003 1.273437,2.113281 0.586861,2.179464 0.09003,4.026143 -1.371094,5.099609 -0.723843,0.531971 -4.108017,0.537995 -4.185547,0.0078 -0.509369,-3.4848 -0.348823,-4.095256 1.232422,-4.646485 0.880154,-0.306821 1.851377,-1.028197 2.158203,-1.601562 0.321495,-0.600718 0.61644,-0.925544 0.892579,-0.972656 z m -39.238282,1.03125 c 0.550613,0 2.086368,8.541009 2.541016,14.134765 0.268279,3.300754 0.654317,6.671306 0.859375,7.488281 0.600596,2.392959 -0.444487,1.660461 -1.806641,-1.265624 -1.808533,-3.884956 -2.339844,-5.94141 -2.339844,-9.046876 10e-7,-1.87501 -0.389787,-4.717363 -0.865234,-6.318359 -0.8314,-2.799664 -0.821909,-2.950709 0.251953,-3.951172 0.614088,-0.572104 1.22578,-1.041015 1.359375,-1.041015 z m 6.386719,0.04102 c -0.200274,-0.01798 -0.460321,0.02438 -0.773437,0.144531 -0.504474,0.19364 -0.703004,0.67685 -0.498047,1.210938 0.308396,0.80386 0.422328,0.808139 1.195312,0.03516 0.731535,-0.731531 0.676993,-1.336682 0.07617,-1.390625 z m 48.476563,0.513672 c 0.174195,-0.0019 0.896732,0.614603 1.607421,1.371094 0.710697,0.756495 1.559278,1.385287 1.884766,1.398437 0.58941,0.02374 4.327974,5.435037 5.021484,7.267578 0.200404,0.529559 0.27604,0.93965 0.167969,0.91211 C 83.421401,52.463505 80.345326,50.677471 80.089844,50.386719 79.787067,50.042185 75.426946,47.996317 73.900391,47.482422 73.370849,47.30416 72.9375,46.676113 72.9375,46.085938 c 0,-1.108601 1.681697,-4.452785 2.242188,-4.458985 z m -9.808594,1.019531 c 0.226954,0.04172 1.006349,0.07617 1.730468,0.07617 2.102619,0 2.168075,1.526913 0.265626,6.134766 -1.583696,3.835783 -2.683594,5.040229 -2.683594,2.941406 0,-1.169513 -2.239996,-2.474609 -4.248047,-2.474609 -1.236062,0 -1.802735,0.260465 -1.802735,0.826172 0,0.591695 0.602738,0.826171 2.132813,0.826171 1.856364,10e-7 2.224429,0.216027 2.824219,1.664063 0.586709,1.416507 0.555054,1.812003 -0.208985,2.65625 -0.493777,0.545647 -0.898437,1.150833 -0.898437,1.34375 0,0.192929 -0.80185,1.225649 -1.783203,2.294922 -0.981344,1.069276 -1.951248,1.943359 -2.15625,1.943359 -0.205003,0 -0.538644,-0.751887 -0.740235,-1.669922 -0.20164,-0.918051 -0.958401,-2.055419 -1.68164,-2.529296 l -1.314453,-0.863282 1.626953,-1.626953 c 0.895014,-0.89501 1.602275,-1.798287 1.572265,-2.007812 -0.286531,-1.999866 0.183258,-3.40625 1.136719,-3.40625 1.155878,0 3.339844,-2.41851 3.339844,-3.697266 0,-0.438349 0.307708,-0.693655 0.683594,-0.568359 0.375882,0.125291 0.933347,-0.259799 1.238281,-0.855469 0.304964,-0.595671 0.739884,-1.049533 0.966797,-1.007813 z m -6.541016,0.181641 c -0.472525,0.04073 -0.986827,0.336901 -1.160156,0.857422 -0.13431,0.403383 0.243704,0.6875 0.916016,0.6875 0.675796,0 1.146484,-0.354866 1.146484,-0.865235 0,-0.505604 -0.429819,-0.720416 -0.902344,-0.679687 z m -24.554687,0.587891 c 0.691179,-0.0788 1.175092,0.09696 1.632812,0.554687 1.28152,1.281514 0.03968,4.512938 -2.154297,5.607422 -1.838714,0.917266 -3.142869,1.092356 -3.246094,0.435547 -0.03566,-0.226946 -0.125581,-1.156658 -0.201171,-2.064453 -0.07559,-0.907795 -0.311982,-2.160348 -0.523438,-2.783203 -0.314881,-0.927461 -0.153169,-1.132166 0.890625,-1.134766 0.700971,-0.0018 1.97623,-0.206399 2.833984,-0.453125 0.283258,-0.08149 0.537185,-0.135843 0.767579,-0.162109 z m 4.728515,0.507812 c 0.409454,-0.0097 0.774342,0.206984 1.003906,0.617188 0.273142,0.488053 0.862698,0.747261 1.308594,0.576172 0.603292,-0.2315 0.810547,0.112212 0.810547,1.341796 0,1.202732 -0.52978,2.116518 -1.945312,3.359375 -3.319306,2.91439 -4.654396,1.984408 -2.886719,-2.011718 0.570451,-1.289588 0.885394,-2.591344 0.699219,-2.892579 -0.186184,-0.301247 0.0793,-0.708337 0.589843,-0.904296 0.143024,-0.05488 0.283438,-0.08272 0.419922,-0.08594 z m 11.681641,0.5 c -0.808126,0.0693 -1.957031,0.752117 -1.957031,1.361328 0,0.43351 0.340971,0.789063 0.757812,0.789063 0.882559,0 2.296625,-1.529544 1.837891,-1.988281 -0.138834,-0.138835 -0.369297,-0.185209 -0.638672,-0.16211 z m -17.652344,0.744141 c -0.303978,0.04497 -0.322472,0.450486 -0.03516,1.199219 0.282319,0.735722 0.507346,0.795386 1.027344,0.27539 0.520013,-0.519997 0.488553,-0.773233 -0.140625,-1.162109 -0.384184,-0.237437 -0.669176,-0.33948 -0.851563,-0.3125 z m -4.832031,0.574219 c 0.439381,0.06683 0.720703,0.745839 0.720703,1.933593 0,1.016129 -0.439667,1.89493 -1.222656,2.44336 -0.672528,0.471045 -1.909538,0.857421 -2.75,0.857421 -1.379645,0 -1.529297,-0.187264 -1.529297,-1.925781 0,-1.754611 0.141434,-1.925781 1.583984,-1.925781 0.870743,0 1.889739,-0.369748 2.263672,-0.820312 0.350571,-0.422413 0.669965,-0.602599 0.933594,-0.5625 z m 36.529297,0.01758 c -0.126187,0.0112 -0.252581,0.03896 -0.375,0.08594 -0.386405,0.148344 -0.566896,0.619971 -0.402344,1.048828 0.356639,0.929368 1.613123,1.0278 2.144531,0.167969 0.400468,-0.64797 -0.48388,-1.381144 -1.367187,-1.302734 z m -25.308594,1.339843 c -0.116772,-0.01194 -0.248997,0.04392 -0.388672,0.183594 -0.188686,0.188683 -0.151519,0.787485 0.08398,1.330078 0.409112,0.942671 0.439986,0.941596 0.667968,-0.01953 0.192863,-0.813161 -0.01297,-1.458309 -0.363281,-1.494141 z m -13.882813,0.615235 c -0.248655,0.06427 -0.405407,0.478692 -0.710937,1.472656 -0.470907,1.531974 0.528796,1.661783 1.326172,0.171875 0.398444,-0.744299 0.392789,-1.17805 -0.01758,-1.431641 -0.26577,-0.164256 -0.448463,-0.251451 -0.597657,-0.21289 z m 18.566407,0.253906 c 0.24464,0.0029 0.530951,0.119226 0.927734,0.328125 0.670519,0.353018 1.411165,0.915077 1.644531,1.248047 0.553014,0.789011 -0.04452,4.164883 -0.876953,4.955078 -0.356381,0.338297 -1.316687,0.910562 -2.132812,1.271484 -1.312308,0.580371 -1.523849,0.52955 -1.832031,-0.441406 -0.203522,-0.641242 -1.01691,-1.232267 -1.955079,-1.419922 -2.101734,-0.420356 -2.027066,-1.071203 0.275391,-2.429687 1.034287,-0.610239 2.280501,-1.720443 2.769531,-2.466797 0.482318,-0.736108 0.771954,-1.049732 1.179688,-1.044922 z m 9.609375,0.462891 c 0.367117,0.01131 0.821409,0.206544 1.566406,0.591797 0.935308,0.483665 1.701172,1.014373 1.701172,1.177734 0,0.753087 -1.343036,2.790745 -2.404297,3.65039 -1.466604,1.188058 -3.579816,1.236999 -5.175781,0.119141 -1.707054,-1.195674 -1.526285,-2.263221 0.564453,-3.322265 0.983436,-0.498156 2.19914,-1.265678 2.701172,-1.705079 0.399884,-0.349991 0.679758,-0.523026 1.046875,-0.511718 z m -8.455078,2.058593 c -0.688582,0.08423 -1.668743,0.769964 -1.908204,1.488282 -0.292257,0.876775 0.533988,0.816336 1.832032,-0.132813 0.586897,-0.429157 0.869836,-0.977779 0.628906,-1.21875 -0.126352,-0.126352 -0.323207,-0.164794 -0.552734,-0.136719 z m 8.175781,0.251954 c -0.193668,0.0084 -0.408651,0.0916 -0.623047,0.269531 -0.423583,0.351579 -0.634577,0.858646 -0.46875,1.126953 0.40134,0.649369 1.190326,0.618686 1.611328,-0.0625 0.444342,-0.718971 0.06147,-1.359296 -0.519531,-1.333984 z m -19.138672,0.121093 c 0.427909,6.1e-4 0.826895,0.224214 1.130859,0.710938 1.063428,1.70282 0.756227,2.58916 -1.40625,4.058593 -3.121694,2.121252 -3.414805,1.872685 -2.277343,-1.923828 0.528713,-1.764684 1.611335,-2.847043 2.552734,-2.845703 z m -4.740234,0.25586 c 0.386007,0.03249 0.466797,0.542364 0.466797,1.958984 -10e-7,1.742616 -0.313076,2.464146 -1.451172,3.359375 -1.888835,1.485744 -4.050782,1.524269 -4.050782,0.07227 0,-0.587342 -0.22386,-1.205556 -0.498046,-1.375 -1.053436,-0.651055 0.100991,-2.28819 2.042968,-2.896485 1.117294,-0.349976 2.464593,-0.803262 2.994141,-1.007812 0.204831,-0.07911 0.367424,-0.122159 0.496094,-0.111328 z m 31.007812,1.916015 c -0.303122,0.0227 -0.609942,0.339978 -0.734375,0.9375 -0.103792,0.498422 0.199945,0.853516 0.728516,0.853516 0.566657,0 0.834714,-0.360664 0.71875,-0.962891 -0.111664,-0.579842 -0.409769,-0.850825 -0.712891,-0.828125 z m -27.089844,0.650391 c -0.219384,-0.02269 -0.498092,0.256039 -0.61914,0.619141 -0.121042,0.363104 0.07828,0.560514 0.441406,0.439453 0.709267,-0.236421 0.835583,-0.990564 0.177734,-1.058594 z m -6.71289,0.142578 c -0.05436,0.002 -0.114182,0.01227 -0.177735,0.0332 -0.378248,0.124568 -0.766791,0.762323 -0.863281,1.417969 -0.131293,0.892091 0.04159,1.109164 0.6875,0.861328 0.957414,-0.367388 1.16884,-2.342821 0.353516,-2.3125 z m 11.769531,1.017578 c 0.723482,0.05036 1.53705,0.315308 1.904297,0.757813 0.854767,1.029937 -0.445245,4.232193 -2.224609,5.478515 -1.436314,1.006025 -2.685547,1.172335 -2.685547,0.357422 0,-0.296836 -0.596316,-0.688413 -1.324219,-0.871094 -2.253604,-0.565625 -2.194157,-2.351075 0.125,-3.720703 1.11251,-0.657031 2.208593,-1.13178 2.435547,-1.05664 0.22695,0.07514 0.414062,-0.111472 0.414062,-0.414063 0,-0.416927 0.631987,-0.581615 1.355469,-0.53125 z m 9.759766,0.308594 c 0.343698,0.02579 0.70249,0.154063 1.169922,0.371094 1.793297,0.832638 1.844302,1.8814 0.208984,4.308593 -0.743037,1.102833 -1.750803,1.895461 -2.458984,1.931641 -1.71944,0.08832 -1.950699,-0.391378 -0.632813,-1.314453 0.774924,-0.542782 0.963241,-0.980077 0.583984,-1.359375 -0.833625,-0.833629 -2.285156,-0.06008 -2.285156,1.21875 0,1.278801 -0.934984,1.41824 -2.345703,0.347656 -1.368115,-1.038249 -0.931281,-3.206872 0.695312,-3.455078 0.703628,-0.107381 2.065962,-0.681221 3.027344,-1.275391 0.932835,-0.576533 1.464279,-0.816426 2.03711,-0.773437 z m -10.519532,1.322265 c -0.675801,0 -1.146484,0.356819 -1.146484,0.867188 0,0.512313 0.375055,0.792776 0.917969,0.6875 1.380254,-0.267691 1.569322,-1.554688 0.228515,-1.554688 z m 16.38086,0.785157 c 0.335933,-0.01631 0.702261,0.0317 1.111328,0.138672 1.5404,0.402823 2.178137,3.706627 1.089844,5.646484 -0.434222,0.774002 -1.784818,1.957109 -3.001954,2.628906 l -2.21289,1.222657 -0.689453,-1.910157 c -0.3797,-1.050039 -0.968512,-1.908203 -1.308594,-1.908203 -0.340073,0 -0.0809,-0.503215 0.578125,-1.117187 0.659021,-0.61398 1.563829,-1.821248 2.009766,-2.683594 0.693542,-1.341142 1.416027,-1.968644 2.423828,-2.017578 z m -24.400391,0.521484 c 1.085949,-0.0011 1.924192,0.750654 1.912109,1.925781 -0.01144,1.106964 -4.053779,5.176692 -4.599609,4.63086 -0.376891,-0.376889 -2.542969,-5.025498 -2.542969,-5.457032 0,-0.112837 0.607354,-0.205078 1.34961,-0.205078 0.742256,0 1.972603,-0.28379 2.734375,-0.630859 0.394413,-0.179708 0.784501,-0.263309 1.146484,-0.263672 z m 25.458985,1.742188 c -0.255248,-0.0043 -0.637323,0.215447 -1.113282,0.691406 -0.605175,0.605195 -0.932469,1.373897 -0.726562,1.707031 0.599814,0.970533 1.407347,0.702762 1.912109,-0.632812 0.425536,-1.125927 0.353147,-1.758507 -0.07227,-1.765625 z m -26.828126,0.802734 c -0.332653,0.03843 -0.560546,0.431314 -0.560546,1.101563 0,0.605199 0.220014,1.099609 0.490234,1.099609 0.618435,0 1.196616,-1.43034 0.755859,-1.871094 -0.248356,-0.248357 -0.485954,-0.353137 -0.685547,-0.330078 z m 12.734376,0.541016 1.605468,1.142578 c 1.9925,1.418805 2.039694,2.917165 0.148438,4.669922 -1.385705,1.284223 -2.586876,1.5314 -4.732422,0.970703 -0.702743,-0.183631 -0.955893,-0.798978 -0.939453,-2.275391 0.01961,-1.703736 0.330013,-2.218809 1.970703,-3.265625 z M 33.625,62.060547 c 0.544889,-0.06177 1.045266,0.332726 1.597656,1.175781 0.749448,1.143801 0.70958,1.543515 -0.453125,4.404297 l -1.279297,3.146484 -2.558593,-1.953125 c -2.683539,-2.049034 -3.307786,-3.554687 -1.47461,-3.554687 0.596137,0 1.631573,-0.742592 2.302735,-1.650391 0.730845,-0.988536 1.320345,-1.506586 1.865234,-1.568359 z m 12.957031,0.595703 c 0.213516,0.02669 0.440384,0.147416 0.667969,0.375 0.467898,0.467893 0.454894,0.89849 -0.04883,1.705078 -0.370653,0.593541 -0.673828,1.454116 -0.673828,1.91211 0,1.36187 1.052096,0.945797 1.43164,-0.566407 0.436507,-1.739163 1.650212,-1.437025 1.44336,0.359375 -0.215316,1.869728 -2.03742,3.04656 -6.363282,4.109375 -6.730796,1.653697 -8.742048,1.425442 -7.523437,-0.851562 0.484619,-0.905474 0.961489,-1.131119 1.84375,-0.873047 3.840703,1.123547 4.552238,1.024119 6.332031,-0.875 1.051535,-1.122043 1.732875,-2.426607 1.734375,-3.326172 0.0022,-1.281018 0.515702,-2.04882 1.15625,-1.96875 z m -13.996093,1.625 c -0.212087,0.069 -0.363282,0.346359 -0.363282,0.724609 0,0.504367 0.266506,0.827191 0.591797,0.71875 0.325301,-0.108425 0.591797,-0.431286 0.591797,-0.71875 0,-0.287472 -0.266502,-0.612262 -0.591797,-0.720703 -0.08132,-0.02711 -0.15782,-0.0269 -0.228515,-0.0039 z m 9.144531,0.05078 c -0.214301,-0.0081 -0.551758,0.05285 -1.046875,0.171875 -2.052594,0.493424 -2.27451,0.725677 -1.291016,1.347656 0.829917,0.524859 2.183594,0.710248 2.183594,0.298829 0,-0.126553 0.156157,-0.634891 0.345703,-1.128907 0.179719,-0.468336 0.165762,-0.675935 -0.191406,-0.689453 z m 18.302734,0.441407 0.666016,1.490234 c 0.366336,0.820384 1.395881,1.977095 2.287109,2.570312 0.891229,0.593216 1.49922,1.274714 1.351563,1.513672 -0.601632,0.973451 -3.925494,0.405769 -5.34961,-0.914062 -1.775259,-1.64522 -1.795485,-1.992219 -0.205078,-3.486328 z m 2.691406,7.802734 c 0.07357,0.007 0.140595,0.02701 0.201172,0.06445 0.34219,0.211489 0.589832,1.235691 0.550781,2.275391 -0.0607,1.614764 -0.377482,2.042933 -2.18164,2.935546 l -2.113281,1.044922 v -1.572265 c 0,-1.697953 2.439483,-4.853737 3.542968,-4.748047 z m -17.121093,2.167969 c 0.549201,-0.06558 1.099495,0.421467 2.294922,1.814453 1.038733,1.21039 1.898646,2.386327 1.910156,2.613281 0.01136,0.226954 -0.808122,0.412109 -1.820313,0.412109 -2.921177,0 -5.030459,-3.283968 -2.957031,-4.603515 0.206595,-0.13148 0.389198,-0.214469 0.572266,-0.236328 z m 15.082031,5.546875 c 0.19086,0.07242 0.158111,0.6312 0.0059,1.949218 -0.214847,1.859998 0.0028,2.749542 1.044922,4.285157 0.723424,1.065997 1.172178,2.16934 0.998047,2.451171 -0.458421,0.741767 -1.488118,0.629202 -2.824219,-0.30664 -1.26452,-0.885708 -1.654983,-4.374977 -0.628906,-5.623047 0.300083,-0.364988 0.404436,-0.894236 0.230469,-1.175781 -0.174011,-0.281565 0.0799,-0.842337 0.566406,-1.246094 0.297966,-0.247294 0.492906,-0.377438 0.607422,-0.333984 z m -9.720703,0.517578 c 0.545175,0.0139 0.497456,0.674113 0.0078,2.4375 -0.322969,1.163117 -0.588144,2.781415 -0.589844,3.595703 -0.0036,1.716356 -0.956294,2.571241 -1.445312,1.296875 -0.597573,-1.557225 0.338321,-6.783444 1.279297,-7.144531 0.319256,-0.122512 0.566322,-0.190179 0.748047,-0.185547 z m -5.960938,6.748047 c 1.611253,-0.08743 2.231826,0.163546 2.888672,1.166015 0.460074,0.702167 0.835938,1.410303 0.835938,1.572266 0,0.161881 -1.188157,0.292969 -2.640625,0.292969 -1.452472,0 -2.937681,0.297054 -3.300782,0.660156 -0.363085,0.363101 -0.660156,0.457848 -0.660156,0.208984 0,-0.248873 -0.350382,-0.16294 -0.777344,0.191407 -1.05997,0.879705 -1.560203,-0.07962 -0.919921,-1.763672 0.602235,-1.584003 1.762942,-2.175576 4.574218,-2.328125 z"
     style="fill:#000000;stroke-width:0.55017811"
     id="pathAY1" />
</svg>
