<?xml version="1.0" encoding="UTF-8" standalone="no"?>
<svg
   xmlns:dc="http://purl.org/dc/elements/1.1/"
   xmlns:cc="http://creativecommons.org/ns#"
   xmlns:rdf="http://www.w3.org/1999/02/22-rdf-syntax-ns#"
   xmlns:svg="http://www.w3.org/2000/svg"
   xmlns="http://www.w3.org/2000/svg"
   id="svgAY2"
   version="1.1"
   viewBox="0 0 100 100"
   height="100"
   width="100">
  <defs
     id="defs1694" />
  <metadata
     id="metadata1697">
    <rdf:RDF>
      <cc:Work
         rdf:about="">
        <dc:format>image/svg+xml</dc:format>
        <dc:type
           rdf:resource="http://purl.org/dc/dcmitype/StillImage" />
        <dc:title></dc:title>
      </cc:Work>
    </rdf:RDF>
  </metadata>
  <path
     id="pathAY2"
     d="m 37.505151,92.224347 c -0.520722,-0.21471 -1.213047,-0.29057 -1.538499,-0.16856 -0.325459,0.12196 -0.591729,-0.004 -0.591729,-0.28075 0,-0.276393 -0.692324,-0.643914 -1.538495,-0.816668 -2.075933,-0.423832 -6.308528,-2.690151 -6.124216,-3.279185 0.16695,-0.533533 2.039143,-0.412418 2.434794,0.15753 0.637118,0.917744 2.711684,1.972726 3.879284,1.972726 0.704553,0 1.641392,0.360339 2.081861,0.800843 0.555232,0.555242 1.752709,0.840059 3.904437,0.928684 2.712242,0.11172 3.52581,-0.07646 6.45206,-1.492665 5.52491,-2.673766 9.525474,-6.864247 6.553167,-6.864247 -0.419796,0 -1.176993,-0.372775 -1.682719,-0.828426 -0.749064,-0.674853 -1.655662,-0.805394 -4.890619,-0.704201 -2.636965,0.08254 -4.51769,-0.104126 -5.598051,-0.555563 -2.602288,-1.087308 -6.891654,-4.473669 -6.891654,-5.440807 0,-0.743512 0.400435,-0.874503 2.721956,-0.890437 2.868401,-0.02003 3.353144,-0.105486 5.443919,-0.963797 0.955769,-0.392341 1.301803,-0.866104 1.301803,-1.78226 0,-1.189492 -0.08304,-1.231255 -1.775192,-0.892886 -4.118092,0.823475 -9.052319,0.96069 -13.336828,0.370809 -2.453485,-0.337738 -4.566283,-0.508675 -4.695105,-0.379861 -0.78927,0.789266 5.85159,8.013906 9.794211,10.655187 4.97037,3.329805 11.943952,4.599936 16.825507,3.064501 2.578424,-0.811021 4.081657,-0.659012 2.641376,0.267137 -2.001794,1.287166 -7.387345,1.928377 -10.87412,1.294672 -6.167802,-1.120935 -14.371467,-6.850808 -18.762816,-13.104915 -0.295638,-0.421066 -0.757309,-1.561514 -1.025928,-2.534374 -0.558791,-2.023776 -0.0143,-2.743472 1.238253,-1.636961 0.439225,0.387984 1.970217,0.846277 3.402204,1.018415 l 2.603612,0.312918 -3.313687,-1.668424 c -4.00696,-2.017422 -9.216904,-6.3593 -10.143146,-8.45308 -0.37152,-0.839783 -0.911506,-2.059451 -1.200004,-2.710349 -0.651101,-1.46899 -0.906036,-8.532921 -0.338587,-9.382448 0.320243,-0.479444 0.6884,-0.302702 1.582167,0.759468 0.640651,0.76137 1.790497,1.779766 2.55521,2.263103 l 1.390391,0.878788 -0.904417,-1.04943 c -0.497431,-0.577194 -0.746294,-1.207561 -0.553028,-1.400831 0.193262,-0.193209 0.652888,0.0743 1.021387,0.594636 1.299471,1.834837 2.568821,2.966377 3.626783,3.233053 0.922949,0.232629 0.878778,0.128541 -0.321917,-0.758592 -0.765399,-0.565538 -1.925143,-1.627005 -2.577204,-2.358842 -0.65206,-0.73181 -1.444678,-1.231153 -1.761373,-1.109618 -1.270533,0.487539 -4.932319,-6.970898 -5.973694,-12.167429 -0.697099,-3.478562 -0.382987,-7.399458 0.885417,-11.051515 0.949391,-2.733587 2.035102,-3.819656 4.212223,-4.213615 1.02984,-0.186356 2.233557,-0.402761 2.674923,-0.480901 0.441366,-0.07814 1.760122,0.589132 2.930566,1.482831 2.357744,1.800272 2.928891,1.561948 2.444511,-1.02002 -0.446175,-2.378314 -2.683657,-4.689926 -5.229453,-5.402704 -1.976682,-0.553436 -2.308318,-0.512635 -4.294934,0.52836 -3.159989,1.655859 -5.008615,3.729206 -6.7876926,7.612815 -0.87084,1.900996 -1.779496,3.842457 -2.019236,4.314356 -0.642537,1.264768 -1.303537,9.6189 -1.321751,16.70516 -0.01372,5.369318 0.175638,6.958143 1.411055,11.834603 2.033142,8.025235 2.6811756,9.793182 5.0789216,13.856119 3.830694,6.49102 7.694632,10.834057 12.423124,13.963479 2.78781,1.845042 2.437254,2.415277 -0.41119,0.668866 C 17.188184,81.409757 10.025643,70.992124 7.7127614,61.440194 7.0792304,58.823782 6.4379504,56.484166 6.2876944,56.241052 5.0589954,54.252971 4.5324544,39.120425 5.5038394,33.713425 7.3905724,23.211334 11.2792,17.387051 17.666172,15.497025 c 1.527587,-0.452043 2.168182,-0.413495 3.672074,0.220937 4.519667,1.906687 7.02427,7.992126 4.053043,9.847687 -0.50208,0.313552 -0.902588,1.092982 -0.900581,1.752615 0.0059,1.946644 2.934488,10.612764 4.000807,11.839075 0.33959,0.390542 0.764446,1.192375 0.944131,1.78186 0.720788,2.36462 7.477357,7.671587 11.856575,9.312765 1.768212,0.662668 5.674132,1.600881 7.337455,1.762471 1.529807,0.148649 1.644058,0.07022 1.490077,-1.022489 -0.09169,-0.650906 -0.356901,-1.540148 -0.589232,-1.976093 -0.74325,-1.394504 -0.973998,-6.160145 -0.41176,-8.503907 0.484418,-2.019272 0.442083,-2.415373 -0.383572,-3.587438 -0.510413,-0.724657 -1.065603,-1.761348 -1.233708,-2.303765 -0.352577,-1.137512 -0.448629,-1.167332 -4.552412,-1.413008 -3.640697,-0.217952 -6.298386,-0.650839 -6.627377,-1.07947 -0.130183,-0.169607 -0.662737,-0.537352 -1.183461,-0.817211 -0.520723,-0.279857 -1.314674,-1.230048 -1.76434,-2.11153 -0.727622,-1.426361 -0.74102,-1.719534 -0.121751,-2.664651 0.555451,-0.847725 0.586338,-1.328985 0.153098,-2.38562 -0.893293,-2.17871 -0.867651,-2.68595 0.192825,-3.814778 0.900486,-0.958522 0.950393,-1.252543 0.448306,-2.64104 -1.032747,-2.856016 -0.731134,-5.425658 0.818753,-6.975549 0.761054,-0.7610527 1.709636,-1.3837364 2.107954,-1.3837364 1.061151,0 3.135686,1.0262694 3.135686,1.5512194 0,0.24887 0.82561,-0.293404 1.834689,-1.2050477 2.160107,-1.9515327 3.706635,-1.9210327 5.412896,0.106764 0.700334,0.8322877 1.409652,1.2129167 2.0067,1.0768057 3.654855,-0.83321 4.682998,-0.680596 6.205915,0.921199 1.918565,2.01794 2.521735,4.270902 2.010018,7.507954 -0.220346,1.394041 -0.339136,2.596116 -0.264037,2.671275 0.0751,0.07516 0.962584,-0.832285 1.972045,-2.016546 2.925739,-3.432358 5.333431,-4.230464 10.17156,-3.371697 1.251457,0.222137 3.802041,1.945042 3.625269,2.448853 -0.09396,0.26784 -1.067405,0.417924 -2.163165,0.333521 -2.491544,-0.191925 -6.777832,1.12112 -8.021163,2.457183 -1.2505,1.343752 -3.016059,6.062429 -2.471936,6.60655 1.084863,1.084862 7.732733,-2.697369 9.042447,-5.144601 0.606727,-1.133666 2.179541,-1.829686 2.599404,-1.150319 0.134702,0.217923 0.0559,0.513032 -0.175105,0.655783 -0.230967,0.142752 -0.55192,0.919336 -0.7132,1.725739 -0.329498,1.647118 -5.53765,7.391134 -7.323319,8.076704 -1.669022,0.640783 -1.056925,1.3576 2.066094,2.419577 4.180039,1.421412 6.010329,3.458706 5.673317,6.314976 -0.11195,0.94874 0.632949,3.034862 2.354839,6.594923 3.206837,6.630227 3.554017,7.754453 3.554017,11.508589 0,4.748411 -2.06656,10.87674 -5.274985,15.642865 l -1.388151,2.062111 1.225424,1.606614 c 1.407554,1.845401 2.619602,2.022525 4.788741,0.699851 1.153976,-0.703664 1.610077,-1.440213 2.064289,-3.333554 0.43314,-1.805644 0.995405,-2.759369 2.187407,-3.710493 0.88242,-0.704095 1.76418,-1.223594 1.95949,-1.15444 0.19532,0.06916 0.35508,1.238406 0.35508,2.598357 0,2.695389 0.51772,3.090569 2.45789,1.876189 0.57077,-0.35724 1.49117,-0.579846 2.04535,-0.494675 0.94605,0.145436 0.90435,0.275074 -0.68271,2.123638 -0.92966,1.082837 -1.6903,2.0791 -1.6903,2.213908 0,0.357732 2.87581,1.734619 3.62311,1.734619 1.97423,0 -0.64033,2.41643 -3.03293,2.803094 -1.43416,0.231798 -1.80397,0.511952 -1.93208,1.463722 -0.26559,1.97386 -0.84544,2.046219 -2.74983,0.343219 -2.40624,-2.151769 -2.812652,-2.238902 -5.705128,-1.223148 -1.352672,0.47501 -2.788517,0.737381 -3.190767,0.583021 -0.402278,-0.154355 -1.494424,-1.53678 -2.427059,-3.072067 -0.932634,-1.535272 -1.91367,-2.791404 -2.180066,-2.791404 -0.266381,0 -1.059275,0.409333 -1.761922,0.909689 -2.233543,1.590412 -6.735378,3.350766 -8.569104,3.350766 -1.549048,0 -2.182878,0.401786 -5.040533,3.195337 -1.797779,1.75744 -4.241667,3.672546 -5.430871,4.255795 -2.326221,1.140909 -8.001155,1.798149 -9.651298,1.117779 z M 83.368052,85.28582 c 0.15541,-0.40507 -0.0374,-1.502908 -0.42898,-2.439602 -0.89244,-2.135937 -0.54428,-2.563692 0.74873,-0.919891 0.99797,1.26871 2.87134,1.654392 4.13679,0.851659 0.79925,-0.506985 -0.0568,-1.272134 -1.95683,-1.749016 -1.92063,-0.482036 -1.99729,-1.298164 -0.28297,-3.01246 2.02443,-2.024426 1.37238,-2.460734 -0.92198,-0.616931 -1.01049,0.812041 -1.96901,1.344685 -2.13005,1.183644 -0.16105,-0.161084 -0.29276,-1.548005 -0.29276,-3.082148 0,-1.752148 -0.17726,-2.679787 -0.47675,-2.494688 -0.90275,0.557921 -2.034725,3.310536 -1.978323,4.810693 0.04709,1.252348 -0.229153,1.671569 -1.655801,2.513336 -0.941763,0.555662 -2.319293,1.13168 -3.061172,1.280057 -1.298334,0.259728 -1.898707,1.649273 -0.962538,2.227865 0.410581,0.253758 3.63443,-0.732176 4.180877,-1.278623 0.601228,-0.601239 2.104987,-0.340346 1.96257,0.340572 -0.126689,0.605809 1.808277,2.95338 2.532217,3.072136 0.16735,0.02721 0.43156,-0.281461 0.58702,-0.686603 z M 72.95153,82.827018 c -0.679638,-2.834446 -2.762189,-5.425164 -3.648528,-4.538825 -0.53091,0.53091 2.712125,5.840632 3.567302,5.840632 0.216302,0 0.252926,-0.585815 0.08126,-1.301807 z m -12.084509,-0.63804 c 2.958924,-1.031485 1.384915,-1.637743 -2.1051,-0.810799 -4.203717,0.996037 -8.273038,-1.522369 -10.581925,-6.548887 -0.580663,-1.264111 -1.28009,-2.767435 -1.554302,-3.340731 -0.644953,-1.348424 -0.202016,-6.215561 0.72741,-7.993528 0.39637,-0.758206 1.910859,-2.651898 3.365533,-4.208192 2.41276,-2.581297 3.348173,-4.507825 2.188755,-4.507825 -0.36204,0 -3.33186,3.384781 -5.607137,6.390681 -0.550608,0.727411 -1.811071,3.594258 -2.41711,5.497569 -1.782582,5.598304 2.630313,13.486121 8.5852,15.34562 2.519989,0.786889 5.4467,0.856549 7.398676,0.176088 z m 6.593951,-3.643173 c 6.425853,-4.345097 10.863572,-17.224462 8.370025,-24.291908 -1.05832,-2.999622 -4.885562,-10.527546 -4.929537,-9.696066 -0.01285,0.236446 0.877231,2.366702 1.977185,4.73384 1.928426,4.149995 1.99826,4.464686 1.953144,8.80103 -0.05231,5.046316 -0.08606,5.275979 -1.349909,9.230992 -0.989948,3.098003 -7.182986,11.808358 -8.749107,12.305433 -0.478125,0.151786 -1.154829,0.620106 -1.503792,1.040801 -0.583884,0.703902 -0.521257,0.704337 0.785672,0.0053 0.781083,-0.417728 2.331927,-1.376003 3.446319,-2.129545 z m -19.968021,1.720329 c 0.133265,-0.215735 -0.301947,-1.10588 -0.967286,-1.978164 -0.665325,-0.872283 -1.209674,-1.806056 -1.209674,-2.075044 0,-0.268989 -0.304592,-0.74189 -0.676916,-1.050878 -0.527281,-0.437661 -1.468337,-0.37198 -4.257753,0.297071 -3.503081,0.840207 -4.543348,1.732605 -2.757827,2.365818 0.455633,0.161575 1.162082,0.578554 1.569893,0.926591 1.835007,1.566068 7.615764,2.621005 8.299563,1.514595 z m 13.370982,-0.187426 c 0.158324,-0.137688 -4.938294,-2.577245 -5.384221,-2.577245 -0.353272,0 -0.261127,0.783842 0.250054,2.128513 0.446365,1.173965 0.598306,1.225155 2.721966,0.916928 1.237072,-0.179566 2.322558,-0.390255 2.412182,-0.468189 z m -6.080265,-0.182362 c 0,-0.245027 -0.231571,-0.588581 -0.514601,-0.763509 -0.283048,-0.174954 -0.409258,-0.720948 -0.280516,-1.21337 0.175143,-0.66972 -0.08285,-0.970906 -1.023873,-1.195315 -0.691905,-0.164977 -1.529429,-0.514008 -1.86118,-0.775551 -0.331766,-0.261618 -0.721787,-0.356938 -0.866769,-0.211918 -0.428001,0.428005 0.629872,2.044684 2.205669,3.370635 1.521337,1.280116 2.341274,1.556464 2.34127,0.789081 z m 11.67344,-3.340043 c 0.301909,-0.591941 0.747681,-1.207244 0.990621,-1.367341 0.640731,-0.422252 3.595316,-4.75352 4.527645,-6.637268 1.24807,-2.521735 2.364559,-8.862046 2.091266,-11.875974 -0.133757,-1.474652 -0.785343,-3.836064 -1.44806,-5.24758 -0.662716,-1.411511 -1.348896,-3.154215 -1.524844,-3.872668 -0.175899,-0.718457 -0.540389,-1.442557 -0.809876,-1.609109 -0.31782,-0.196346 -0.379404,0.137877 -0.175181,0.951249 0.346204,1.379333 -0.346053,1.713216 -1.027482,0.495563 -0.364762,-0.651873 -0.570262,-0.573142 -1.461685,0.560118 -1.456553,1.851701 -1.11714,2.584596 1.602419,3.460122 3.004482,0.967271 3.675884,1.408984 3.366636,2.214891 -0.136592,0.35588 -0.04437,0.772939 0.204359,0.926815 0.248995,0.153864 0.4527,0.612838 0.4527,1.019896 0,0.589946 -0.138104,0.625504 -0.680602,0.175257 -0.555699,-0.461215 -0.825368,-0.284938 -1.469493,0.96072 -0.651197,1.259277 -0.677003,1.589978 -0.147817,1.894622 1.60844,0.925957 2.502724,1.807017 2.170931,2.138806 -0.199219,0.199218 -0.614248,0.110135 -0.922351,-0.197972 -0.875371,-0.875371 -1.402981,-0.657501 -0.860847,0.355427 0.606058,1.13245 0.629155,1.924653 0.05609,1.924653 -0.238602,0 -0.63016,-0.585811 -0.869986,-1.301799 -0.435594,-1.300375 -0.437219,-1.29923 -1.474358,1.040298 -1.226972,2.767687 -1.090154,3.378118 0.852759,3.804864 0.798673,0.17537 1.452141,0.62155 1.452141,0.991414 0,0.846723 -0.459525,0.831869 -1.628977,-0.05288 -1.439322,-1.088658 -1.692924,-0.830301 -0.944133,0.961816 0.440761,1.054827 0.508996,1.656845 0.18788,1.656845 -0.277417,0 -0.743428,-0.68578 -1.035608,-1.523942 l -0.53125,-1.523922 -0.829171,1.878982 c -1.162747,2.634898 -1.096715,3.48424 0.312567,4.02004 0.666568,0.253455 1.085792,0.664893 0.93161,0.91438 -0.154204,0.249448 -0.617634,0.324094 -1.029882,0.165996 -0.591098,-0.226847 -0.681221,-0.07234 -0.426334,0.730756 0.237014,0.746573 0.125216,1.018381 -0.418782,1.018381 -0.408064,0 -0.716756,-0.159761 -0.685927,-0.355011 0.416678,-2.638775 -1.553361,0.313738 -2.21288,3.316421 l -0.332711,1.514991 1.599823,-1.225884 c 0.879899,-0.674232 1.846833,-1.710199 2.148741,-2.302141 z m -3.54552,-0.272504 c 1.18672,-3.502048 1.132212,-3.64369 -1.845783,-4.796414 -1.482782,-0.573962 -2.765254,-0.974274 -2.849938,-0.889601 -0.08466,0.0847 0.101594,0.714957 0.414043,1.400604 0.642931,1.411058 0.282671,2.115671 -0.675177,1.320694 -0.503554,-0.417864 -0.811161,-0.168945 -1.451889,1.174615 -0.447155,0.937665 -0.685031,1.832796 -0.528634,1.989189 0.505288,0.505292 5.184991,2.355039 5.673536,2.24259 0.260333,-0.05994 0.829087,-1.158691 1.263842,-2.441677 z M 55.689476,73.56232 c 1.37327,-2.8368 1.25939,-3.397794 -0.920389,-4.53396 -2.645126,-1.378721 -2.884751,-1.293715 -2.534129,0.898974 0.369487,2.310313 -0.528758,2.619659 -1.030857,0.355049 l -0.341139,-1.5385 -0.482351,1.183459 c -0.265284,0.650906 -0.750522,1.767373 -1.078271,2.481052 -0.447106,0.973507 -0.459363,1.387323 -0.04917,1.656848 0.857324,0.563421 4.785498,1.854544 5.134579,1.687629 0.172724,-0.08262 0.758554,-1.068331 1.301807,-2.190536 z m -7.0598,-1.866781 c 0,-0.329272 0.415052,-1.373131 0.922328,-2.319618 l 0.922336,-1.720903 -1.439439,-0.596235 c -1.127605,-0.467081 -1.516594,-0.471416 -1.795587,-0.02041 -0.437479,0.707848 0.410283,5.255429 0.979702,5.255429 0.225864,0 0.410709,-0.269442 0.410709,-0.598729 z m 16.63333,-2.004875 c 0.185159,-0.781083 0.475271,-1.865394 0.644681,-2.409581 0.260825,-0.837629 -0.04173,-1.140853 -1.972,-1.976399 -2.436972,-1.054903 -3.010034,-1.029731 -2.079626,0.09135 0.31903,0.384317 0.499158,1.081801 0.400426,1.549944 -0.145474,0.689721 -0.321675,0.586741 -0.929124,-0.542989 l -0.749627,-1.394152 -1.003504,1.967022 c -0.551917,1.081862 -1.00349,2.151138 -1.00349,2.376155 0,0.523313 4.201117,1.94828 5.426385,1.840526 0.610835,-0.05367 1.044584,-0.568327 1.265879,-1.501858 z m -26.407417,-0.17484 c 0.758928,-0.298658 0.629404,-0.508939 -0.96168,-1.561895 -1.355143,-0.896828 -2.644059,-1.271099 -4.900817,-1.423127 -1.684146,-0.113453 -3.884589,-0.602777 -4.889872,-1.087395 -1.005283,-0.484621 -2.123652,-0.881123 -2.485265,-0.881123 -0.361613,0 -0.65748,-0.192718 -0.65748,-0.428266 0,-0.596408 -1.252505,-1.790673 -1.557807,-1.485375 -0.137706,0.137688 -1.122044,-0.904148 -2.187423,-2.315241 -1.30363,-1.726644 -1.903019,-2.97688 -1.832968,-3.823293 0.129264,-1.561857 0.679408,-1.595053 1.846434,-0.11142 1.012986,1.287804 4.58661,2.824755 5.928811,2.549874 0.483972,-0.0991 1.128812,0.146796 1.432977,0.54636 0.981682,1.289728 1.245783,0.111836 0.327469,-1.460544 -0.705324,-1.207716 -1.525832,-1.73067 -3.962016,-2.525243 -3.710755,-1.210271 -7.980076,-3.482504 -8.695363,-4.627862 -0.908905,-1.455373 -1.123777,-0.924532 -0.93492,2.309696 0.209888,3.594088 1.484189,6.862525 3.349682,8.591407 4.493696,4.164618 11.417464,8.154259 13.074917,7.534096 0.301209,-0.112705 0.973704,-0.03666 1.494427,0.169663 1.187021,0.46967 4.448487,0.486844 5.610894,0.02948 z m 4.617121,-1.891315 c 0.288567,-1.410846 0.176088,-1.590975 -1.539528,-2.466221 -3.184791,-1.624764 -8.857252,-9.809948 -8.904973,-12.849606 -0.02373,-1.498146 0.857586,-1.391964 2.820098,0.339817 2.034649,1.795481 6.758549,4.402146 9.312421,5.138624 l 2.44836,0.706053 2.207184,-2.396097 c 2.325982,-2.525069 2.271278,-3.243953 -0.239811,-3.15188 -2.735214,0.100233 -7.441679,-1.272648 -11.124517,-3.245173 -0.781122,-0.418359 -2.070688,-1.106618 -2.865741,-1.529479 -2.847969,-1.514734 -4.447452,-2.926147 -5.958207,-5.25764 -1.309263,-2.02054 -1.601461,-2.248627 -1.99038,-1.553671 -0.581059,1.038295 -0.649792,6.267964 -0.12596,9.58293 0.45929,2.906445 2.880341,7.762047 5.425949,10.882133 1.935528,2.372342 8.914318,7.758638 9.709219,7.493682 0.283049,-0.09437 0.654655,-0.85644 0.825871,-1.693547 z m 15.051068,-0.781616 c 0.587197,-1.175742 0.989599,-2.371821 0.894219,-2.657957 -0.167546,-0.502495 -4.662369,-2.434833 -4.963423,-2.133778 -0.0816,0.08156 0.196686,0.840051 0.618375,1.685428 0.543525,1.089527 0.619637,1.684163 0.261429,2.04239 -0.35826,0.358261 -0.671915,0.13988 -1.077402,-0.75011 -0.747922,-1.641515 -1.159704,-1.583942 -1.79957,0.251565 -0.553008,1.586356 -0.160705,2.237431 1.379511,2.289547 0.390541,0.01361 1.242635,0.328441 1.893529,0.700542 1.641307,0.938255 1.601641,0.958533 2.793347,-1.427642 z m -6.65507,-2.634131 c 0.606798,-1.322685 1.03159,-2.448072 0.944,-2.500872 -0.08757,-0.05284 -0.526121,-0.376403 -0.974494,-0.719111 -0.675461,-0.516286 -0.92161,-0.513641 -1.435727,0.0155 -0.831729,0.856168 -2.719578,3.557906 -2.719578,3.892043 0,0.2561 2.348898,1.659168 2.843074,1.698268 0.131717,0.0102 0.73593,-1.063244 1.342725,-2.385933 z m -17.913936,0.743345 c 0,-0.28233 -0.798838,-1.265565 -1.775189,-2.185036 -1.410504,-1.32834 -2.528158,-1.842442 -5.440421,-2.502543 -2.015876,-0.456918 -3.785886,-1.025985 -3.933357,-1.264598 -0.147466,-0.238567 -0.601169,-0.43384 -1.008226,-0.43384 -1.108001,0 -0.116258,1.023892 3.471632,3.584155 3.864371,2.757559 8.685561,4.312813 8.685561,2.801855 z M 46.16305,59.636413 c -0.264567,-0.322544 -0.668598,-0.470513 -0.897954,-0.328781 -0.500375,0.309279 -4.973938,-2.085813 -8.161356,-4.369513 -1.262219,-0.904357 -2.396295,-1.54293 -2.52017,-1.419052 -0.830333,0.830334 4.828629,8.691915 7.418729,10.306274 l 2.130221,1.327739 1.255747,-2.465062 c 0.885391,-1.738055 1.113882,-2.638042 0.774783,-3.051578 z m 21.304771,3.958661 c 1.287872,-2.18278 1.789078,-4.554692 0.963253,-4.558513 -0.346129,-0.0014 -1.246857,-0.324963 -2.001586,-0.718544 -1.688797,-0.880716 -2.030749,-0.607245 -1.285609,1.028159 0.357543,0.78475 0.405641,1.424755 0.127975,1.702433 -0.277682,0.277681 -0.668042,-0.231004 -1.038386,-1.353186 l -0.593438,-1.798139 -1.120069,2.537954 c -0.616043,1.39588 -0.995991,2.664726 -0.84433,2.819675 0.151596,0.154922 1.272523,0.637983 2.490834,1.073445 1.218298,0.435465 2.247307,0.808235 2.286679,0.828414 0.03942,0.02041 0.49599,-0.682593 1.014665,-1.561702 z m -6.487868,-2.06323 c 0.270689,-0.712089 0.825901,-1.997837 1.233712,-2.857225 0.407814,-0.859403 0.637371,-1.666641 0.510156,-1.793864 -0.396737,-0.396736 -5.321571,-2.037797 -5.519989,-1.839384 -0.103445,0.103484 0.09131,0.524848 0.432835,0.936407 0.770588,0.928497 1.098601,3.535083 0.444884,3.535083 -0.264718,0 -0.609044,-0.639069 -0.765267,-1.42016 -0.156245,-0.78108 -0.446146,-1.420152 -0.644302,-1.420152 -0.511211,0 -1.989318,3.247317 -1.773216,3.895618 0.150765,0.452394 4.02908,2.102326 5.222204,2.221691 0.201713,0.02041 0.588267,-0.54593 0.858994,-1.258014 z m -6.535679,-3.084102 c 1.471981,-4.023725 1.357163,-4.358867 -0.528993,-1.54406 -1.323022,1.974434 -1.730908,2.941981 -1.343983,3.188092 0.934166,0.594194 1.11093,0.439014 1.872976,-1.644032 z M 70.36117,56.31752 c 0.3185,-0.976357 0.679599,-2.011821 0.802487,-2.30103 0.291439,-0.685882 -1.52692,-1.859446 -3.579597,-2.310294 l -1.623944,-0.356711 0.761226,1.161783 c 0.478344,0.730045 0.610098,1.406327 0.354557,1.819829 -0.328365,0.531288 -0.471835,0.488224 -0.744978,-0.223559 -0.327457,-0.853242 -0.358714,-0.853714 -0.972233,-0.01512 -0.534042,0.730351 -0.899454,2.56356 -0.515602,2.586683 0.06512,0.0038 0.970438,0.314154 2.011881,0.68929 2.696863,0.97158 2.862486,0.921905 3.50621,-1.051455 z m -5.889142,-2.281717 c 0.929199,-1.958125 0.68692,-3.043857 -0.679211,-3.043857 -0.528891,0 -0.961624,-0.29469 -0.961624,-0.654867 0,-0.630847 -1.862866,-1.427144 -2.304798,-0.9852 -0.11879,0.11879 0.02646,0.749369 0.324208,1.401367 0.549213,1.2054 0.193738,1.576197 -0.676637,0.705819 -0.598434,-0.598442 -2.796593,1.591231 -2.339626,2.330604 0.287584,0.465335 4.082746,1.828631 5.297945,1.903148 0.295786,0.01814 0.898665,-0.727527 1.339731,-1.657014 z M 26.678996,52.767135 c -0.157,-0.585815 -0.288351,-1.609922 -0.291902,-2.275802 -0.0047,-0.88067 -0.55485,-1.600359 -2.018346,-2.64034 -2.575699,-1.830336 -5.536561,-6.166374 -6.34875,-9.297442 -0.787384,-3.035443 -0.822992,-7.538439 -0.06561,-8.295827 0.880881,-0.880882 2.272244,-0.691866 2.272244,0.308679 0,0.482207 1.513626,2.625473 3.363616,4.762812 3.392888,3.919883 4.653184,4.723516 2.887357,1.841144 -1.080332,-1.763434 -3.409816,-9.869016 -3.410331,-11.866455 -2.47e-4,-0.956364 -0.396191,-1.549497 -1.470476,-2.202809 -1.364473,-0.829786 -1.620269,-0.84289 -3.558945,-0.182318 -1.81291,0.617719 -2.246337,1.044721 -3.281461,3.232792 -2.06007,4.354636 -1.678875,12.668837 0.748237,16.319463 0.432779,0.650905 1.345948,2.035552 2.029337,3.076996 1.767355,2.693363 3.932577,4.960865 6.438096,6.742229 2.560535,1.820475 3.092095,1.914117 2.706933,0.476859 z m 28.650363,0.341139 c 1.435062,-0.276358 3.108442,-1.97025 4.04624,-4.095819 0.851485,-1.92993 1.560534,-2.2401 2.508828,-1.097479 0.324056,0.390538 1.291769,0.710078 2.150329,0.710078 1.301894,0 1.960192,-0.447892 3.965792,-2.698107 2.147672,-2.40963 2.404785,-2.92981 2.404785,-4.865205 0,-2.845938 -0.889544,-4.004261 -3.648505,-4.750953 -1.247839,-0.33769 -2.481816,-0.76792 -2.742175,-0.95601 -0.260349,-0.188111 -1.005935,-0.499872 -1.656837,-0.692845 l -1.183463,-0.35083 1.301796,1.383927 c 1.455135,1.546927 1.611841,2.042198 0.646177,2.042198 -0.360566,0 -1.004574,-0.532552 -1.431063,-1.18346 -1.176161,-1.795044 -1.805293,-1.4154 -0.71546,0.431733 0.524163,0.888357 0.762095,1.733179 0.528767,1.877375 -0.23331,0.144188 -0.705342,-0.26307 -1.048946,-0.905116 -0.343634,-0.642016 -0.801747,-1.167302 -1.018113,-1.167302 -0.576237,0 -0.456827,0.58642 0.331729,1.628975 0.796765,1.053401 0.891759,1.684713 0.253568,1.684713 -0.242797,0 -0.576702,-0.426073 -0.741981,-0.94677 -0.165316,-0.520723 -0.52194,-0.946773 -0.792622,-0.946773 -0.283049,0 -0.347225,0.351987 -0.151106,0.828428 0.687057,1.668898 0.806906,2.485263 0.3648,2.485263 -0.248957,0 -0.707803,-0.560087 -1.019704,-1.244634 -0.757779,-1.663133 -1.246876,-1.076975 -0.614652,0.736621 0.662059,1.89918 -0.132435,2.33155 -0.938452,0.510685 -0.952489,-2.151806 -1.473549,-1.708143 -1.108768,0.944095 0.219514,1.596119 0.156926,2.366911 -0.192302,2.366911 -0.284787,0 -0.544429,-0.42607 -0.576971,-0.946763 -0.03175,-0.520728 -0.112441,-1.159796 -0.177524,-1.420148 -0.06512,-0.260334 -0.14502,-0.934937 -0.177524,-1.499053 -0.03175,-0.56412 -0.200844,-0.883993 -0.373946,-0.71083 -0.528767,0.528759 -0.610461,2.78564 -0.133077,3.67757 0.287546,0.537278 0.283804,0.944786 -0.0098,1.12655 -0.25353,0.156624 -0.584303,-0.309731 -0.735181,-1.036386 -0.150917,-0.72664 -0.473159,-1.960238 -0.716129,-2.741318 -0.347414,-1.116811 -0.392065,-0.83874 -0.208781,1.301807 0.128126,1.497073 0.0449,2.72196 -0.185385,2.72196 -0.585365,0 -1.062934,-2.701569 -0.719482,-4.070006 0.157644,-0.628126 0.07518,-1.137224 -0.1841,-1.137224 -1.074768,0 -1.349002,3.781771 -0.545831,7.526877 0.541141,2.523225 3.008828,6.424493 3.767243,5.95576 0.250582,-0.154884 0.915759,-0.370204 1.478209,-0.478495 z m 0.202318,-2.054941 c -0.145285,-0.235124 0.05303,-0.690708 0.440658,-1.012455 0.573104,-0.475641 0.704855,-0.446618 0.704855,0.15515 0,0.883758 -0.772077,1.46159 -1.145528,0.857335 z m -4.061686,-2.888995 c 0,-0.693735 1.732397,-1.464943 2.569323,-1.143782 0.40942,0.157039 0.744373,0.0497 0.744373,-0.238337 0,-0.288226 0.212976,-0.524053 0.473366,-0.524053 0.799947,0 0.523842,1.297567 -0.35501,1.668432 -1.370897,0.578494 -3.432041,0.721292 -3.432041,0.23777 z m 5.207222,-2.142895 c 0,-0.390542 0.31952,-0.710074 0.710077,-0.710074 0.390538,0 0.710082,-0.205606 0.710082,-0.456725 0,-0.735915 1.933055,-1.58664 2.444077,-1.075618 0.282935,0.282935 -0.07332,0.665192 -0.963578,1.033968 -0.776862,0.321713 -1.5276,0.885088 -1.668319,1.251796 -0.340006,0.886185 -1.232339,0.854804 -1.232339,-0.04343 z m 8.803316,-1.582887 c -0.163805,-0.26502 -0.06716,-0.624483 0.214752,-0.79873 0.727819,-0.449789 1.19741,0.166337 0.589833,0.773903 -0.339931,0.33993 -0.604762,0.348132 -0.804589,0.02494 z m -3.832761,-1.96749 c 0.160932,-0.260334 0.612094,-0.473374 1.002636,-0.473374 0.390538,0 0.578425,0.212976 0.417512,0.473374 -0.160932,0.260333 -0.612101,0.473358 -1.002639,0.473358 -0.390538,0 -0.578426,-0.212976 -0.417509,-0.473358 z m 1.959029,-1.656856 c 0.149858,-0.390534 0.35622,-0.710074 0.45852,-0.710074 0.102349,0 0.186028,0.319483 0.186028,0.710074 0,0.390542 -0.206362,0.710078 -0.458509,0.710078 -0.25217,0 -0.335924,-0.319521 -0.186028,-0.710078 z m 1.206726,-0.739664 c 0.113952,-0.341707 0.486689,-0.714507 0.828418,-0.828415 0.355048,-0.118374 0.532561,0.05915 0.414221,0.414221 -0.113953,0.341707 -0.486697,0.714507 -0.82843,0.828426 -0.355011,0.118375 -0.532554,-0.05911 -0.414213,-0.414228 z m 1.804778,-2.061181 c 0,-0.412251 0.337247,-0.749534 0.749517,-0.749534 0.412203,0 0.665204,0.252986 0.562148,0.562149 -0.292611,0.877756 -1.311665,1.023339 -1.311665,0.187419 z m -0.710074,12.031844 c 0.160932,-0.260333 -0.158626,-0.473377 -0.710085,-0.473377 -0.551455,0 -0.870987,0.212976 -0.710074,0.473377 0.160932,0.260334 0.480453,0.473367 0.710074,0.473367 0.229644,0 0.549164,-0.212976 0.710085,-0.473367 z M 25.907244,44.897126 c 0,-1.008906 0.125922,-2.463995 0.279836,-3.23354 0.245338,-1.226693 -0.133974,-1.879613 -3.076995,-5.29646 -1.846258,-2.143503 -3.356832,-4.203287 -3.356832,-4.577296 0,-0.37401 -0.347546,-0.680015 -0.77233,-0.680015 -0.665308,0 -0.73896,0.475579 -0.53152,3.432033 0.296318,4.223103 1.718994,7.633848 4.057186,9.726743 0.959097,0.85847 1.956834,1.753162 2.217196,1.988207 0.892892,0.806066 1.183461,0.472209 1.183459,-1.359672 z m 30.690447,-7.43839 c 3.138795,-2.6867 4.295065,-5.527002 3.001391,-7.372777 -0.426508,-0.608505 -0.716919,-1.452728 -0.645399,-1.87605 0.163691,-0.968679 -2.480689,-3.237421 -3.851303,-3.304247 -2.860641,-0.13948 -3.914886,0.196701 -5.126571,1.634756 -1.28368,1.523494 -2.527895,4.752965 -2.098704,5.447394 0.130885,0.211835 0.360226,1.079029 0.50968,1.927118 0.322847,1.832506 2.603728,4.868709 3.423068,4.556617 0.317102,-0.12082 0.702469,-0.0161 0.85636,0.233125 0.545665,0.882901 1.972832,0.430632 3.931478,-1.245898 z m -5.012183,-2.404462 c -2.098436,-1.762946 -1.340695,-5.653509 1.374586,-7.057637 1.204602,-0.62292 1.474724,-0.614124 2.538149,0.08266 1.401296,0.918165 1.87216,2.420455 1.45523,4.642906 -0.351269,1.872299 -1.020422,2.536539 -2.942683,2.920988 -0.971243,0.194244 -1.705215,0.01572 -2.425282,-0.588915 z m 3.654889,-1.546417 c 0.901359,-1.684215 0.477543,-4.764963 -0.655505,-4.764963 -0.89117,0 -2.994656,2.497693 -2.99003,3.55038 0.0023,0.520723 0.214224,1.213047 0.470993,1.5385 0.711242,0.901543 2.623098,0.706466 3.174546,-0.32392 z m -9.09047,-1.303143 c -0.452594,-0.118484 -1.304691,-0.122782 -1.893536,-0.0096 -0.588846,0.11323 -0.21857,0.210171 0.8229,0.215429 1.041447,0.0053 1.523242,-0.08739 1.070636,-0.205871 z m 17.391344,-0.579499 c 2.401682,-1.524082 6.78837,-5.89564 7.129256,-7.104674 0.270312,-0.95884 -0.245291,-0.684981 -3.166468,1.681723 -1.919174,1.554893 -4.110904,3.028906 -4.870504,3.275584 -1.003993,0.32604 -1.428497,0.803967 -1.554696,1.750312 -0.208025,1.559767 0.460365,1.667536 2.462412,0.397055 z M 40.108762,31.346509 c -0.499967,-0.602421 -0.383161,-0.71512 0.770455,-0.743348 1.214739,-0.02971 1.258785,-0.08118 0.412992,-0.482434 -0.73873,-0.350464 -0.598555,-0.395728 0.637972,-0.206006 2.039113,0.312868 4.214414,-0.182151 3.312427,-0.753801 -0.891956,-0.565298 -1.462751,-0.515257 -1.085479,0.09517 0.201864,0.326709 -0.08901,0.455721 -0.800495,0.355041 -1.390925,-0.19683 -1.619968,-2.094078 -0.238753,-1.977529 0.619044,0.05222 0.730563,-0.07418 0.377197,-0.427559 -0.337474,-0.337459 -0.34851,-0.787949 -0.03326,-1.37597 0.622396,-1.162965 1.109274,-1.103264 2.521758,0.309206 0.650901,0.650903 1.459424,1.180291 1.796713,1.176417 0.337246,-0.0039 -0.222085,-0.713745 -1.243047,-1.577494 -1.343175,-1.136353 -1.768371,-1.799544 -1.538247,-2.399244 0.430544,-1.121973 1.308675,-0.7488 2.447766,1.040208 0.520727,0.817823 1.106542,1.495157 1.301811,1.505187 0.746097,0.03835 0.304894,-1.165763 -0.880557,-2.403095 -1.943449,-2.028523 -1.142066,-2.706713 0.996388,-0.843208 1.739695,1.516029 1.905975,1.193618 0.330482,-0.640881 -0.404572,-0.471081 -0.490545,-0.828422 -0.19937,-0.828422 0.281574,0 0.58651,-0.372793 0.67754,-0.828422 0.125593,-0.628798 0.476178,-0.374173 1.45487,1.056657 0.70914,1.036793 1.289354,1.556809 1.289354,1.155592 0,-0.401216 -0.312718,-1.142992 -0.695024,-1.648387 -0.821018,-1.085487 -0.90501,-1.628977 -0.251716,-1.628977 0.260333,0 0.473362,0.306958 0.473362,0.682139 0,0.375174 0.249184,0.836167 0.553833,1.024425 0.390299,0.241194 0.444301,0.07469 0.182966,-0.563793 -0.204094,-0.498342 -0.469099,-1.332122 -0.58908,-1.852845 -0.204548,-0.887891 -0.175937,-0.89525 0.460954,-0.118352 0.924785,1.128217 1.435093,1.047107 0.806127,-0.128118 -0.281536,-0.526103 -0.368881,-1.187914 -0.194154,-1.47069 0.454662,-0.735653 1.111834,0.445768 1.218499,2.190551 0.04755,0.781083 0.21702,0.14203 0.376176,-1.420153 l 0.289323,-2.840304 0.407942,2.819963 c 0.264,1.824689 0.231836,3.286606 -0.09116,4.142113 -0.295861,0.783908 -0.318311,1.322145 -0.05507,1.322145 0.872215,0 1.444522,-2.658172 1.283461,-5.961237 -0.148044,-3.036755 -0.298885,-3.476402 -1.578412,-4.600535 -2.473209,-2.172868 -5.91186,-1.379148 -5.91186,1.364595 0,0.632307 -0.188145,1.149648 -0.418171,1.149648 -0.468245,0 -0.985673,-1.617853 -0.995511,-3.112825 -0.0098,-1.538825 -2.011095,-3.1501314 -3.460266,-2.7864134 -1.917117,0.4811647 -2.889354,1.9140524 -3.138398,4.6253704 -0.0692,0.753436 -0.98195,-0.219258 -0.98195,-1.046447 0,-1.173189 -3.195762,-2.8968857 -3.73956,-2.017007 -0.214758,0.347107 -0.562741,0.597995 -0.773507,0.557527 -0.210754,-0.04047 -0.63027,0.52715 -0.932238,1.261373 -0.6508,1.582399 -0.103028,4.67083 1.055503,5.950983 0.704401,0.778359 0.693237,0.895621 -0.145739,1.530437 -0.499736,0.378118 -1.045582,0.694268 -1.212993,0.702549 -1.240511,0.06136 -0.279673,3.923029 1.089672,4.379477 0.31782,0.105937 0.434499,0.538783 0.264569,0.981556 -0.167351,0.435626 -0.60424,0.676889 -0.971036,0.536135 -1.017412,-0.390418 -1.256492,0.894822 -0.468945,2.52093 0.774468,1.599116 2.881892,2.658857 5.773469,2.903259 0.524265,0.04429 0.535906,-0.0822 0.0604,-0.655164 z m -3.076991,-2.603617 c -0.160913,-0.26036 0.05211,-0.473385 0.47338,-0.473385 0.421288,0 0.634298,0.213025 0.473385,0.473385 -0.160932,0.260356 -0.373908,0.473385 -0.473385,0.473385 -0.0994,0 -0.312453,-0.213025 -0.47338,-0.473385 z m 1.291941,-2.455679 c 0.103068,-0.30918 0.440492,-0.646514 0.749846,-0.749633 0.34594,-0.115313 0.451702,0.101106 0.274809,0.562145 -0.330217,0.860476 -1.30866,1.039513 -1.024651,0.18749 z m 1.78505,-1.804777 c 0,-0.260356 0.225599,-0.473385 0.501327,-0.473385 0.275754,0 0.369675,0.213021 0.208781,0.473385 -0.160932,0.260364 -0.386498,0.473386 -0.501328,0.473386 -0.114784,0 -0.20878,-0.213026 -0.20878,-0.473386 z m -3.870441,-0.932074 -1.10009,-0.903787 1.025693,-1.04138 c 0.615231,-0.624642 1.329922,-0.924636 1.785922,-0.74965 1.250035,0.47968 1.415143,1.710556 0.361186,2.692479 -0.95727,0.891836 -0.989948,0.891873 -2.072698,0.0023 z m 1.539027,-1.091643 c -0.05855,-0.566026 -0.707844,-0.456408 -0.911265,0.153849 -0.104119,0.312438 0.06627,0.482853 0.3787,0.378705 0.312415,-0.104152 0.552079,-0.343797 0.532558,-0.532556 z m 3.560582,0.677522 c -0.163804,-0.265061 -0.06716,-0.624483 0.214791,-0.798725 0.727811,-0.449818 1.197405,0.166325 0.589824,0.773905 -0.339968,0.339975 -0.604765,0.348147 -0.804588,0.02479 z m 2.08452,-2.232123 c 0,-0.405906 0.216491,-0.60421 0.481084,-0.440673 0.264605,0.163536 0.358601,0.495642 0.208781,0.738013 -0.405849,0.656605 -0.689857,0.534172 -0.689857,-0.297342 z m 1.692274,-1.098196 c -0.146646,-0.237324 0.05182,-0.553651 0.440651,-0.702941 0.389079,-0.149287 0.70736,-0.07766 0.70736,0.159144 0,0.641698 -0.841254,1.040173 -1.148034,0.543795 z m 2.094793,-2.187555 c 0,-0.39054 0.212976,-0.710076 0.473373,-0.710076 0.260334,0 0.473374,0.319536 0.473374,0.710076 0,0.390541 -0.212976,0.710077 -0.473374,0.710077 -0.260333,0 -0.473373,-0.319533 -0.473373,-0.710077 z M 36.494096,16.201382 c -0.16396,-0.427283 -0.07111,-1.003872 0.206319,-1.281304 0.721254,-0.721251 2.087819,-0.06204 1.899418,0.916231 -0.209828,1.089675 -1.726745,1.352661 -2.10572,0.365071 z m 12.206582,0.257193 c 0.104088,-0.312431 0.343748,-0.552083 0.532561,-0.532557 0.566021,0.05856 0.4564,0.707845 -0.153826,0.911264 -0.312378,0.104153 -0.482834,-0.06627 -0.378716,-0.378704 z m -5.746613,-0.727718 c -0.841945,-1.014494 -0.230891,-2.136256 1.163606,-2.136256 1.309876,0 1.655699,1.2468 0.630254,2.272244 -0.742589,0.742587 -1.086329,0.716527 -1.79386,-0.135998 z m 1.626854,-1.22992 c -0.152428,-0.246614 -0.478922,-0.32369 -0.725521,-0.171273 -0.246613,0.152417 -0.323678,0.478903 -0.171288,0.72552 0.152429,0.246618 0.478919,0.32369 0.725514,0.171277 0.246614,-0.152417 0.323678,-0.478904 0.17125,-0.725521 z m 5.468912,0.801155 c 0,-0.102323 0.319483,-0.308659 0.710074,-0.458528 0.390538,-0.149858 0.710071,-0.06614 0.710071,0.186047 0,0.252189 -0.319483,0.458529 -0.710071,0.458529 -0.390541,0 -0.710074,-0.08372 -0.710074,-0.186048 z m 1.893522,-1.025352 c 0,-0.405907 0.212976,-0.606358 0.473378,-0.445446 0.260333,0.160917 0.47337,0.493015 0.47337,0.738012 0,0.244992 -0.212976,0.445446 -0.47337,0.445446 -0.260334,0 -0.473378,-0.332106 -0.473378,-0.738012 z m 1.893548,-0.918831 c 0,-0.39054 0.206362,-0.710076 0.458517,-0.710076 0.25217,0 0.335924,0.319536 0.186028,0.710076 -0.149896,0.390541 -0.35622,0.710076 -0.458516,0.710076 -0.10235,0 -0.186029,-0.319536 -0.186029,-0.710076 z m -8.045779,13.730004 c -0.610517,-0.649876 -1.230283,-1.061352 -1.37725,-0.914392 -0.147024,0.146959 0.262185,0.673941 0.909187,1.171067 1.616993,1.242403 1.788182,1.148526 0.468082,-0.256675 z m 15.383231,-3.908631 c 1.135784,-2.175854 1.84669,-2.928283 3.550373,-3.75778 1.17163,-0.570444 3.07629,-1.049746 4.232597,-1.065116 1.952437,-0.02596 2.036826,-0.0775 1.183455,-0.722961 -1.402796,-1.061023 -5.206008,-0.903763 -7.355169,0.304131 -1.696639,0.953565 -3.621063,3.272274 -4.351504,5.243072 -0.168869,0.455631 -0.511105,0.828422 -0.760569,0.828422 -0.249448,0 -0.528698,-0.372793 -0.620571,-0.828422 -0.154469,-0.766288 -0.190677,-0.768425 -0.482301,-0.0285 -0.226431,0.57455 0.110929,1.063634 1.197451,1.735973 0.831979,0.514835 1.619212,0.9531 1.749382,0.973928 0.130167,0.02079 0.875768,-1.186406 1.656848,-2.682741 z m -14.351432,1.200589 c -0.339704,-0.339684 -0.560163,-0.367634 -0.560163,-0.071 0,0.631864 0.559826,1.191692 0.87576,0.87576 0.134513,-0.134517 -0.0072,-0.496658 -0.315628,-0.804755 z m 4.647055,-1.496312 c 0,-0.0983 -0.324472,-0.447968 -0.72091,-0.777035 -0.602785,-0.500262 -0.672056,-0.470975 -0.422732,0.17873 0.254664,0.66356 1.143642,1.128653 1.143642,0.598305 z m 27.811313,47.630807 c -0.715997,-0.443493 -1.301812,-0.970029 -1.301812,-1.170087 0,-0.20005 -0.319483,-0.363741 -0.710077,-0.363741 -0.390538,0 -0.710067,-0.177487 -0.710067,-0.394477 0,-0.959889 0.704666,-0.886052 2.42806,0.2544 1.018403,0.673942 1.979389,1.0976 2.135529,0.94146 0.15617,-0.15617 0.14253,-1.03769 -0.0302,-1.958998 -0.23501,-1.252526 -0.60756,-1.748721 -1.47697,-1.966928 -0.639492,-0.160592 -1.162729,-0.593736 -1.162729,-0.962735 0,-0.564857 0.224504,-0.55483 1.420156,0.06346 1.375513,0.71131 1.421233,0.700535 1.454743,-0.342916 0.0189,-0.592501 0.44193,-1.716338 0.93974,-2.497429 1.47914,-2.32074 1.81915,-3.375537 1.61304,-5.004103 -0.21237,-1.678006 0.98416,-4.684994 2.60338,-6.542516 1.12939,-1.295628 1.76375,-1.073671 1.0016,0.350438 -0.66076,1.234622 -0.66401,4.332115 -0.005,4.332115 0.27896,0 0.83898,-0.331767 1.2445,-0.737298 0.43389,-0.433882 1.05308,-0.601148 1.50468,-0.406465 0.42204,0.182022 1.34036,0.429542 2.04066,0.550147 0.70029,0.120642 1.6589,0.656484 2.13022,1.190833 0.83741,0.949374 0.83198,0.965275 -0.23784,0.697095 -1.65407,-0.414659 -4.27993,0.868765 -4.62983,2.262884 -0.23066,0.918968 0.0306,1.519715 1.16452,2.679692 1.52158,1.556313 2.67856,4.232109 2.26863,5.246771 -0.13055,0.323187 -0.25421,0.145512 -0.27477,-0.394971 -0.0553,-1.451677 -1.89708,-2.877287 -4.15828,-3.218536 -1.76049,-0.265662 -2.12998,-0.150236 -3.19535,0.998754 -0.66256,0.714549 -1.23711,1.514372 -1.27676,1.777388 -0.0394,0.26298 -0.12159,0.691245 -0.1821,0.951609 -0.0605,0.260333 -0.13455,0.970434 -0.16456,1.577946 -0.0318,0.653737 -0.29458,1.024561 -0.64264,0.90856 -0.32341,-0.10783 -0.80272,0.230362 -1.06512,0.751584 -0.64836,1.28779 -1.1961,1.373392 -2.725659,0.425941 z m 4.662603,-6.354348 c 0.42692,-1.200037 3.02074,-2.216048 4.92343,-1.928528 l 1.65684,0.250393 -0.90179,-1.011128 c -0.68505,-0.768097 -1.45042,-1.01112 -3.18443,-1.01112 -1.9069,0 -2.40913,0.19302 -3.05108,1.172774 -1.02688,1.567224 -1.64815,4.467906 -1.26967,5.927984 0.28841,1.112688 0.34374,1.070221 0.92502,-0.710074 0.34001,-1.041443 0.74579,-2.252081 0.90168,-2.690282 z m 6.03051,-6.777391 2.22323,-2.130226 h -1.57468 c -1.82583,0 -3.02646,0.784383 -3.26068,2.130226 -0.25981,1.492794 -1.09163,0.647526 -1.16466,-1.183459 -0.16562,-4.151171 -0.17817,-4.183489 -0.9444,-2.427062 -0.38312,0.878179 -0.63201,2.368388 -0.55312,3.311561 0.12356,1.476641 0.34077,1.756696 1.56362,2.016012 0.78107,0.165657 1.43529,0.326362 1.4538,0.357203 0.0185,0.03061 1.03412,-0.902591 2.25689,-2.074217 z"
     style="fill:#000000;stroke-width:0.47338393" />
</svg>
