<?xml version="1.0" encoding="UTF-8" standalone="no"?>
<svg
   xmlns:dc="http://purl.org/dc/elements/1.1/"
   xmlns:cc="http://creativecommons.org/ns#"
   xmlns:rdf="http://www.w3.org/1999/02/22-rdf-syntax-ns#"
   xmlns:svg="http://www.w3.org/2000/svg"
   xmlns="http://www.w3.org/2000/svg"
   id="svgAY3"
   version="1.1"
   viewBox="0 0 100 100"
   height="100"
   width="100">
  <defs
     id="defs6029" />
  <metadata
     id="metadata6032">
    <rdf:RDF>
      <cc:Work
         rdf:about="">
        <dc:format>image/svg+xml</dc:format>
        <dc:type
           rdf:resource="http://purl.org/dc/dcmitype/StillImage" />
        <dc:title></dc:title>
      </cc:Work>
    </rdf:RDF>
  </metadata>
  <path
     id="pathAY3"
     d="m 38.88285,89.338489 c -3.269619,-0.529797 -3.347749,-0.554561 -5.764109,-1.827244 -5.463751,-2.877717 -6.376407,-3.439876 -8.077318,-4.975291 -3.190989,-2.880512 -6.527134,-5.749322 -7.403157,-6.366106 -0.469948,-0.330882 -0.854459,-0.81496 -0.854459,-1.075729 0,-0.260769 -0.592142,-1.336707 -1.315881,-2.390973 C 14.308862,71.014719 12.174835,67.654529 10.461122,64.819539 8.4940226,61.565404 6.1722115,55.997819 5.4960109,52.913504 4.5280736,48.498545 4.7310592,38.745167 5.8529992,35.759641 6.2411826,34.726687 6.6699177,33.172848 6.8057451,32.306667 7.5290877,27.69394 9.1270471,24.822788 12.971747,21.227811 c 2.633582,-2.462532 4.296302,-3.411157 7.072201,-4.034856 2.126737,-0.477847 3.081721,-0.190856 4.911896,1.476111 1.905341,1.735425 1.044736,6.307766 -1.187238,6.307766 -1.858294,0 1.744899,8.875347 5.787315,14.25528 5.269471,7.012989 7.898569,9.081625 13.517154,10.635615 1.873466,0.518168 3.792488,1.064617 4.264484,1.214333 0.785591,0.2492 0.831441,0.07788 0.54212,-2.025763 -0.205752,-1.495949 -0.05684,-3.552673 0.426489,-5.892897 L 49.048714,39.568486 47.87139,38.339622 C 47.223864,37.663747 46.231407,36.193436 45.665928,35.072265 L 44.637799,33.033771 40.268967,32.89927 c -4.004207,-0.123275 -4.474901,-0.236129 -5.639848,-1.352226 -1.479938,-1.41786 -1.705593,-3.615468 -0.46534,-4.531777 0.645525,-0.476923 0.691289,-0.711247 0.230197,-1.178726 -0.797799,-0.808856 -0.721578,-3.388101 0.120777,-4.087197 0.484563,-0.402156 0.554744,-0.748384 0.230801,-1.138714 -0.256011,-0.308472 -0.59674,-1.518586 -0.757191,-2.689141 -0.313,-2.283608 0.175662,-3.443072 2.508028,-5.950861 1.231775,-1.324412 3.10205,-1.654701 4.657135,-0.822445 0.552439,0.295658 1.311499,0.261505 2.275565,-0.102392 1.341486,-0.506353 1.549552,-0.443108 2.86292,0.870269 1.394682,1.394676 1.444996,1.406417 3.295518,0.76886 2.615003,-0.900943 4.330983,-0.151312 5.451336,2.381432 0.778954,1.760959 0.789103,2.093087 0.141681,4.637551 -0.383567,1.507411 -0.813161,3.206898 -0.954672,3.776639 -0.350039,1.409326 1.051137,1.409326 1.496659,0 1.390791,-4.399545 8.42749,-7.635679 12.848554,-5.908968 0.779256,0.304347 0.643967,0.443562 -0.920786,0.947519 -2.914869,0.938779 -5.976101,3.530096 -7.292445,6.173001 -2.247183,4.511805 -1.970902,6.419612 0.649151,4.482528 0.725325,-0.536258 1.508196,-0.975015 1.739725,-0.975015 0.231528,0 1.698003,-1.139482 3.258827,-2.532181 1.560824,-1.392701 3.140797,-2.532181 3.51106,-2.532181 0.717347,0 0.917387,1.365932 0.306778,2.094804 -0.201522,0.240556 -0.640671,1.26609 -0.975877,2.278963 -0.771401,2.330907 -2.005895,3.68147 -4.506691,4.930433 -1.087771,0.543257 -1.977757,1.138049 -1.977757,1.321761 0,0.183712 1.087685,1.058652 2.417077,1.944314 3.235364,2.155445 4.232693,3.339823 5.123399,6.084311 0.412419,1.27078 1.463537,3.370251 2.335794,4.665491 3.262973,4.845218 5.740985,11.264476 5.76595,14.936582 0.01379,2.032017 1.485244,3.636402 2.657096,2.897211 0.412693,-0.26032 1.148688,-1.240878 1.635536,-2.179015 0.755275,-1.455351 0.802455,-1.90543 0.321536,-3.066471 -0.707415,-1.707861 -0.387722,-2.993776 1.49918,-6.030317 1.102897,-1.774857 1.527666,-2.174136 1.621195,-1.523926 0.478757,3.328035 1.786196,5.24806 2.636633,3.872013 0.333242,-0.53919 2.457609,-0.233859 4.599508,0.661083 2.057087,0.859506 2.312039,1.480051 0.737476,1.794962 -0.727562,0.145512 -1.915468,0.774893 -2.639811,1.398629 l -1.316977,1.134059 1.035889,1.104183 c 0.569746,0.607301 1.035897,1.301077 1.035897,1.541727 0,0.24065 0.393281,1.171327 0.873964,2.06818 0.883888,1.649121 0.843506,4.110683 -0.06741,4.110683 -0.25701,0 -1.396452,-0.92916 -2.532091,-2.064801 -1.90317,-1.903164 -4.275881,-3.459959 -5.273352,-3.459959 -0.226533,0 -0.663284,0.56974 -0.970552,1.266091 -0.447628,1.014466 -2.777229,4.903407 -3.330461,5.559753 -0.06958,0.08256 -1.013838,-0.812529 -2.098323,-1.989069 l -1.971809,-2.139164 -0.899835,1.758872 c -0.97923,1.914057 -3.089671,4.889517 -3.642262,5.135111 -0.59268,0.263418 -0.381187,1.758265 0.559134,3.951934 0.896199,2.090754 0.924685,2.109957 3.130695,2.109957 2.713308,0 3.331216,-0.551634 3.331216,-2.973909 0,-1.370348 0.245653,-2.022376 0.920796,-2.444007 0.506433,-0.316274 0.920798,-0.858685 0.920798,-1.205364 0,-0.346674 0.302228,-0.881148 0.671621,-1.187721 0.690099,-0.572734 0.821385,-0.315598 1.28478,2.51644 0.102786,0.628233 0.437611,0.870089 1.05381,0.761206 2.033274,-0.35929 4.364178,-0.348287 4.917788,0.0232 0.433399,0.290832 0.07166,0.851789 -1.367347,2.120066 -2.242624,1.976611 -2.487134,3.317811 -0.805692,4.419527 1.579453,1.034906 1.453766,1.40642 -0.718376,2.12329 -1.668148,0.550537 -2.022181,0.526675 -3.289051,-0.221682 l -1.419682,-0.838627 0.311207,1.239919 c 0.224804,0.895701 0.04919,1.572929 -0.632391,2.439498 -0.556438,0.707385 -0.833106,1.547701 -0.674307,2.048033 0.148101,0.466648 0.152227,0.848451 0.0095,0.848451 -0.368082,4e-6 -2.564309,-4.643045 -2.564309,-5.421188 0,-0.501662 -0.43459,-0.574257 -1.956676,-0.32685 -1.076185,0.174928 -2.129551,0.47994 -2.340818,0.67781 -0.853901,0.79974 -2.141418,-0.222363 -3.506633,-2.783775 -0.792624,-1.487112 -1.608542,-2.807304 -1.813141,-2.933757 -0.204601,-0.126452 -0.779624,0.149845 -1.277832,0.613994 -2.43933,2.272578 -8.953718,5.076545 -11.894533,5.119721 -0.778642,0.01142 -2.184587,0.611246 -3.222769,1.374933 -4.61932,3.397928 -5.549048,3.874112 -8.056944,4.126512 -1.392698,0.140163 -3.464476,0.103774 -4.603958,-0.08088 z m 7.456011,-1.676082 c 1.999399,-1.019346 5.392382,-3.754812 4.65736,-3.754812 -0.289924,0 -1.528402,0.432465 -2.75218,0.961028 -1.803474,0.778945 -2.741907,0.903731 -4.952987,0.658612 C 40.341431,85.200237 35.982238,83.354882 33.276247,81.287714 26.266183,75.932565 20.977215,70.538466 21.286674,69.059806 c 0.204213,-0.975741 1.007857,-1.016278 3.069598,-0.154832 0.856753,0.357977 3.119696,0.902834 5.028746,1.210797 2.935802,0.473597 3.811437,0.452139 5.678718,-0.139153 1.214252,-0.384501 2.977364,-0.833798 3.918062,-0.998434 3.455147,-0.604714 1.994272,-0.981157 -3.178706,-0.819112 -5.916335,0.185333 -7.932049,-0.248825 -12.980736,-2.7959 -3.197796,-1.613299 -6.183271,-4.699292 -7.782457,-8.044493 -0.714675,-1.494963 -0.896446,-2.637613 -0.769021,-4.834163 0.09177,-1.582056 0.231414,-4.0533 0.310281,-5.491653 0.07884,-1.438348 0.27833,-2.750111 0.443246,-2.915027 0.164917,-0.164915 -0.02275,-1.059866 -0.416971,-1.988782 -1.029526,-2.425713 -2.410467,-7.889041 -2.419702,-9.572894 -0.02134,-3.878704 3.494255,-8.467611 7.128256,-9.304683 1.01287,-0.233309 2.176919,-0.564801 2.586772,-0.73665 0.518232,-0.217292 0.8206,-0.02409 0.992787,0.634379 0.410712,1.570543 1.638237,1.133627 1.983338,-0.705932 0.443634,-2.364795 -0.884398,-4.060336 -3.306941,-4.222059 -0.987558,-0.06593 -2.313504,0.18415 -2.946556,0.555727 -0.633042,0.371575 -1.637142,0.894144 -2.231332,1.161263 -1.92785,0.866668 -6.124185,5.249698 -7.2866377,7.610808 -0.6233277,1.266091 -1.2421894,3.441465 -1.3752222,4.834165 -0.1330329,1.392699 -0.585192,3.257305 -1.0047978,4.143569 -0.9598082,2.027258 -1.0404681,13.105612 -0.1253094,17.210066 1.034775,4.640935 3.9360481,10.407749 8.1099311,16.120014 0.759654,1.039645 1.684821,2.478011 2.055906,3.196378 1.270032,2.458526 9.863365,9.976305 14.057971,12.298454 4.661156,2.580421 5.171599,2.779506 8.157101,3.181428 3.492544,0.470179 5.177545,0.279897 7.355863,-0.83068 z m 33.830141,-4.145751 c -0.135515,-0.671245 -0.386644,-1.58301 -0.558086,-2.026141 -0.446541,-1.154271 0.500191,-1.010774 2.278082,0.345297 1.606248,1.225142 3.228529,1.492453 3.767269,0.620753 0.18024,-0.291634 -8.5e-4,-0.770585 -0.402705,-1.064331 -0.401723,-0.293747 -0.865695,-1.073079 -1.031036,-1.731848 -0.309091,-1.231551 -0.04174,-1.608929 2.541566,-3.587948 l 1.150991,-0.881743 -1.326823,-0.01534 c -0.937148,-0.01083 -1.782656,0.467992 -2.87882,1.63026 -1.241273,1.31613 -1.607655,1.500479 -1.830101,0.920792 -0.152964,-0.398628 -0.152548,-1.052014 8.41e-4,-1.451962 0.153474,-0.39995 0.146081,-1.256956 -0.01643,-1.904461 l -0.295476,-1.177285 -0.844865,1.098768 c -0.919525,1.195857 -1.133029,2.950774 -0.413133,3.395692 0.26386,0.163068 -0.02388,1.033558 -0.690589,2.08981 -1.243624,1.970036 -1.412232,3.362032 -0.650038,5.366722 0.45081,1.185692 0.53334,1.223564 0.969212,0.444726 0.262043,-0.468238 0.36558,-1.400542 0.230065,-2.071786 z m -32.623481,-0.04513 c 0.08885,-0.266593 0.79694,-0.484733 1.573487,-0.484733 h 1.411901 l -1.949018,-1.411866 c -1.200589,-0.869695 -2.420485,-1.374712 -3.176761,-1.315119 -0.675246,0.0532 -1.538494,-0.0072 -1.918322,-0.13451 -0.379827,-0.127189 -1.51931,-0.499512 -2.53218,-0.827378 -2.079105,-0.673017 -6.215353,-3.948141 -6.215353,-4.921396 0,-0.48506 0.401062,-0.564147 1.661596,-0.327669 1.304654,0.244751 2.244974,0.03288 4.377377,-0.986311 2.303684,-1.101058 2.671624,-1.442105 2.424773,-2.247541 -0.431709,-1.408657 -0.43238,-1.408796 -3.527224,-0.734711 -8.056396,1.754751 -7.780823,1.729195 -11.361979,1.053872 -1.888081,-0.356054 -3.804478,-0.846242 -4.258668,-1.089318 -2.751783,-1.472711 2.587952,4.89258 6.103657,7.275924 0.620118,0.420388 1.896967,1.445604 2.837448,2.278259 2.193584,1.942091 5.949014,3.862916 8.879159,4.541499 2.395324,0.554727 5.379569,0.202634 5.670107,-0.668985 z m 24.743937,-2.771993 c -0.08185,-1.257984 -0.550429,-2.9213 -1.041101,-3.696266 -0.867025,-1.369363 -0.914271,-1.38456 -1.678732,-0.539848 -0.746683,0.825067 -0.713155,1.012671 0.660329,3.696271 0.795817,1.554893 1.618277,2.827084 1.827702,2.827084 0.209425,0 0.313727,-1.029258 0.231802,-2.287241 z M 59.526606,81.67609 c 3.75474,-1.426691 7.426893,-4.212795 10.798227,-8.192731 4.435473,-5.236168 6.032515,-8.211651 6.533904,-12.173374 0.203004,-1.604083 -0.519536,-5.33358 -1.20445,-6.216952 -0.213288,-0.275082 -0.697124,-1.376889 -1.075204,-2.448467 -1.120779,-3.176603 -5.31007,-9.23235 -5.31007,-7.675845 0,0.107168 0.839532,1.751282 1.865629,3.653595 3.7632,6.976735 4.466639,12.865119 2.12754,17.809549 -1.452511,3.070358 -8.599006,10.86455 -11.544371,12.590646 -2.950642,1.729194 -7.025945,2.705833 -8.820063,2.113721 -3.240454,-1.069445 -7.433258,-8.218939 -7.17923,-12.241912 0.05165,-0.816799 -0.210483,-1.681277 -0.61026,-2.013057 -0.592577,-0.4918 -0.709389,-0.413012 -0.757267,0.510774 -0.220623,4.256674 0.664135,8.144438 2.314315,10.169363 0.264989,0.325174 0.953104,1.164247 1.529129,1.864607 2.487871,3.024842 6.957531,3.91233 11.332171,2.250101 z m 16.77853,0.274792 c 1.922449,-0.896177 1.852845,-1.586186 -0.192997,-1.913331 -2.09778,-0.335449 -2.699552,-0.09958 -2.699552,1.058074 0,1.53907 0.872342,1.796998 2.892549,0.855257 z M 55.392662,77.647517 c 0.017,-1.417289 0.169477,-3.022922 0.339002,-3.568074 0.304133,-0.978025 0.295296,-0.979641 -0.665305,-0.121783 -0.813217,0.726233 -1.464841,0.829969 -3.95698,0.629922 l -2.983453,-0.239484 1.018318,1.827595 c 1.144298,2.053706 3.717021,4.048709 5.22114,4.048709 0.899372,0 0.9995,-0.25115 1.027278,-2.576885 z m 1.722852,-0.605025 c -0.02039,-1.496837 -0.19461,-2.624091 -0.387286,-2.505014 -0.480428,0.296923 -0.44556,5.226528 0.03701,5.226528 0.213012,0 0.37065,-1.224683 0.350322,-2.721514 z m -11.580721,1.265326 c -0.694441,-2.188004 -1.570578,-3.941704 -2.251575,-4.506891 -0.397908,-0.330211 -0.717197,-0.387945 -0.717197,-0.129672 0,0.256045 -0.750637,0.606352 -1.668071,0.778467 -0.917444,0.17211 -2.035353,0.542302 -2.484245,0.822646 -0.720916,0.450218 -0.73658,0.589321 -0.134223,1.19169 0.688022,0.688017 5.840973,2.771133 6.964838,2.815582 0.414678,0.0164 0.506553,-0.29098 0.290473,-0.971804 z m 15.305663,-0.02621 c 0.964048,-0.562088 2.374345,-1.597024 3.13399,-2.29985 l 1.381198,-1.277877 -2.839826,-0.0022 c -1.561901,-0.0013 -3.140306,-0.117438 -3.507568,-0.25837 -0.848094,-0.325445 -1.267898,1.165182 -0.924345,3.282223 0.302019,1.861129 0.462574,1.893514 2.756551,0.556002 z M 53.879611,73.30555 c 1.743153,-0.662745 1.002107,-1.136139 -1.798952,-1.149191 -1.308177,-0.0061 -3.000032,-0.195848 -3.759687,-0.421669 -1.288018,-0.382884 -1.335689,-0.35537 -0.706584,0.407885 1.287556,1.562107 3.926842,2.052024 6.265223,1.162975 z m 13.302367,-0.430654 c 0.655069,-0.723855 0.701068,-0.950079 0.201711,-0.99217 -0.839523,-0.07075 -0.799509,-0.08012 -2.94884,0.690209 -4.040095,1.447998 -9.898525,-1.407852 -9.898525,-4.825297 0,-0.879869 -0.235493,-1.33515 -0.690589,-1.33515 -0.871445,0 -0.867054,0.461179 0.02569,2.692394 0.687502,1.718237 1.798717,2.933497 3.693492,4.039323 0.486612,0.284 2.658595,0.55056 4.826611,0.59235 3.437378,0.06626 4.05047,-0.04401 4.79043,-0.861659 z m -2.285641,-1.398456 1.212014,-0.460806 -0.88471,-1.265682 c -0.486594,-0.696119 -1.009953,-1.783621 -1.16303,-2.416667 -0.216478,-0.89521 -0.602755,-1.173491 -1.738205,-1.252237 -0.802936,-0.05569 -1.970621,-0.435904 -2.594863,-0.844925 -1.066329,-0.698683 -1.196812,-0.685596 -2.156885,0.216349 -0.562041,0.528011 -1.371105,0.96002 -1.797914,0.96002 -0.944022,0 -0.947873,0.07869 -0.102766,2.101323 1.125679,2.694116 5.900181,4.227233 9.226356,2.962625 z M 53.254236,70.776461 c -1.00443,-3.452195 -1.482932,-4.322754 -3.465873,-6.305702 -1.241151,-1.241155 -2.302871,-2.192514 -2.35937,-2.114136 -0.05656,0.07837 -0.358801,1.328724 -0.671773,2.778553 -0.751592,3.481713 -0.115084,4.941331 2.484548,5.697398 2.140172,0.622443 4.201508,0.593617 4.012468,-0.05612 z m 15.546425,-0.105269 c -0.0038,-0.189914 -0.543441,-0.853529 -1.197936,-1.474696 -0.654494,-0.621172 -1.370906,-1.605269 -1.592039,-2.186884 -0.221132,-0.581619 -0.617143,-1.057485 -0.880027,-1.057485 -0.587844,0 0.642428,3.078635 1.695094,4.241817 0.746155,0.824497 1.989835,1.125035 1.974908,0.477248 z m 3.941136,-5.365297 c 0.368933,-0.735253 0.67079,-1.470842 0.67079,-1.634642 0,-0.163805 -1.191279,-0.318373 -2.647283,-0.343497 -2.321698,-0.04006 -2.75438,0.09732 -3.518085,1.116972 -0.846046,1.129588 -0.846868,1.203546 -0.02898,2.601112 1.513022,2.585279 2.112745,2.767706 3.566841,1.084971 0.707235,-0.818447 1.587753,-2.089662 1.956685,-2.824916 z m 7.722128,2.07325 C 80.33821,66.898421 79.638647,65.93343 78.909346,65.234718 77.736884,64.111415 77.54808,64.056265 77.278654,64.758379 c -0.207594,0.54097 0.178154,1.292231 1.210341,2.35717 1.587423,1.637802 2.3613,1.741091 1.97493,0.263596 z m -36.98417,-1.772316 c 0.0038,-0.585846 -0.242981,-0.985888 -0.568443,-0.920794 -0.316521,0.06331 -0.52791,-0.131249 -0.46974,-0.432339 0.05815,-0.30109 -0.285307,-0.671549 -0.763243,-0.823244 -1.26211,-0.400577 -5.031769,-4.670578 -6.534338,-7.401632 -0.87776,-1.59544 -1.494677,-4.623601 -1.078962,-5.29624 0.169232,-0.273826 1.01659,0.184149 2.022993,1.093373 2.559486,2.312332 7.08842,5.285384 8.604313,5.648347 0.729659,0.174711 1.580935,0.517739 1.891725,0.762283 0.532348,0.418888 2.348238,-1.242869 3.50769,-3.209949 0.525503,-0.89154 -1.371397,-2.886405 -2.744655,-2.886405 -0.573956,0 -1.175001,-0.212672 -1.33566,-0.472607 -0.16064,-0.259935 -0.535426,-0.424569 -0.832856,-0.365858 -0.297431,0.05871 -2.28988,-0.484034 -4.427664,-1.206101 -3.515272,-1.187336 -4.186506,-1.616661 -7.020695,-4.490483 -1.7236,-1.747695 -3.450059,-3.789186 -3.83658,-4.536645 -1.123688,-2.17298 -1.945374,-1.722313 -2.348833,1.288265 -0.43423,3.240208 -0.434816,2.967624 0.0135,6.330454 0.452018,3.390995 0.468087,3.422524 4.950891,9.707493 3.689517,5.172788 5.069921,6.535695 8.423637,8.316841 2.000258,1.062328 2.533795,0.830906 2.546976,-1.104759 z M 91.669399,64.888202 C 91.285624,64.080661 90.335701,62.811444 89.558457,62.06772 88.781211,61.323994 88.14528,60.555808 88.14528,60.360636 c 0,-0.195166 0.932304,-0.901217 2.071787,-1.569 2.376872,-1.392942 2.537248,-1.855102 0.902243,-2.600061 -1.766341,-0.804796 -3.600029,0.0018 -3.896572,1.713725 -0.291464,1.682625 -1.028346,1.605425 -1.174785,-0.123082 -0.0591,-0.697524 -0.217064,-1.68258 -0.351021,-2.189015 -0.133977,-0.506437 -0.259437,-1.179767 -0.278812,-1.496289 -0.07062,-1.153082 -0.873379,-0.532168 -1.573146,1.216722 -0.734266,1.835145 -0.392611,4.719875 0.634176,5.354462 0.24384,0.150707 0.44335,0.634519 0.44335,1.075142 0,0.487215 0.590962,1.014826 1.508132,1.346482 0.829476,0.299943 2.435111,1.491781 3.568078,2.648537 2.243481,2.290584 2.98412,1.913739 1.670689,-0.850057 z M 36.948542,65.383749 C 35.38092,64.021841 34.708996,63.717763 33.716624,63.921134 32.506857,64.169056 27.097575,63.1413 24.493326,62.168716 23.080084,61.640925 20.46698,58.893587 20.46698,57.935539 c 0,-1.194481 1.137462,-1.678956 2.197936,-0.936161 1.303296,0.91286 5.696422,1.702026 6.931491,1.245146 0.96181,-0.355794 0.964586,-0.387764 0.150689,-1.733342 -0.808194,-1.336153 -0.909938,-1.367258 -4.018766,-1.228461 -2.940483,0.13128 -3.363137,0.02689 -5.412303,-1.336978 -1.222503,-0.81366 -2.653901,-2.062573 -3.180898,-2.775364 -0.526975,-0.712785 -1.132382,-1.188296 -1.345328,-1.056688 -0.212956,0.131614 -0.387183,1.526657 -0.387183,3.100099 0,2.487049 0.206923,3.175015 1.583882,5.265817 2.086253,3.167806 3.476278,4.330999 7.624054,6.379897 4.216709,2.082954 5.009382,2.25772 10.204386,2.249848 l 4.112673,-0.0062 -1.979071,-1.71937 z m 45.859523,-0.352415 c 0.61078,-1.266091 0.973839,-2.301979 0.806778,-2.301969 -0.655135,2.7e-5 -2.63702,3.038641 -2.477352,3.798258 0.252988,1.203577 0.45571,1.02201 1.670574,-1.496289 z M 54.54535,65.149443 c -1.134506,-0.09978 -2.338174,-0.41 -2.674806,-0.689383 -0.740846,-0.614851 -2.39858,-3.957801 -2.39858,-4.836937 0,-0.347209 -0.207178,-0.503246 -0.460403,-0.346748 -1.118701,0.691396 -0.448959,2.895762 1.38252,4.550395 1.618853,1.462534 2.108638,1.655182 4.028471,1.584525 l 2.18555,-0.08044 z m 11.47186,-0.972592 c 0.617087,-0.447114 1.21563,-1.093915 1.330099,-1.437344 0.13327,-0.399785 -0.270361,-0.287218 -1.121958,0.312908 -0.731557,0.515524 -1.76889,1.07337 -2.305185,1.239646 -2.190629,0.679209 -5.700669,-2.008517 -5.700669,-4.36515 0,-1.588695 -0.799235,-2.203154 -1.004741,-0.772463 -0.275016,1.914476 1.35376,4.488864 3.449406,5.45205 2.107024,0.968408 3.587529,0.84958 5.353048,-0.429647 z m -9.246466,-0.475207 c 0.450413,-0.285418 0.497111,-0.634233 0.168561,-1.259042 -0.249949,-0.475334 -0.598316,-1.732823 -0.77411,-2.794423 -0.175822,-1.061603 -0.614235,-2.174657 -0.974264,-2.47346 -0.360037,-0.298797 -0.654607,-0.803304 -0.654607,-1.12112 0,-0.317816 -0.350539,-0.86219 -0.778972,-1.209719 -0.617426,-0.500829 -0.702553,-0.50489 -0.410484,-0.01957 0.237248,0.394224 0.02766,0.850992 -0.588422,1.282532 -0.526296,0.368635 -1.281542,1.354348 -1.678298,2.190484 -0.783929,1.651985 -0.424807,3.402013 1.027401,5.006685 0.774091,0.855367 3.565246,1.093373 4.663195,0.397641 z M 45.182846,61.923655 c 0.433164,-0.949567 0.858849,-1.855692 0.945939,-2.013608 0.08706,-0.157921 -0.937876,-0.852729 -2.277709,-1.544019 -1.339825,-0.691295 -3.834503,-2.268099 -5.543732,-3.504014 -2.756616,-1.993272 -3.107666,-2.13751 -3.107666,-1.276827 0,0.947901 3.874054,6.831697 4.512118,6.85286 0.177126,0.0058 1.121837,0.731001 2.099367,1.61139 0.97752,0.880389 1.958837,1.600706 2.180707,1.600706 0.221849,0 0.757794,-0.776918 1.190976,-1.726488 z m 20.057704,0.625197 c 1.022284,-0.776027 1.010605,-1.025143 -0.115102,-2.456254 -0.50644,-0.643828 -0.920796,-1.557014 -0.920796,-2.029304 0,-0.897547 -0.679079,-1.16187 -1.126226,-0.438365 -0.14289,0.231183 -1.108939,0.563796 -2.146801,0.739143 -1.823265,0.308037 -1.877573,0.367718 -1.607589,1.766546 0.153681,0.796256 0.716109,1.810302 1.249836,2.253435 1.141795,0.947984 3.524128,1.032117 4.666678,0.164799 z M 33.232777,62.356144 c 0.423297,-0.268917 0.316957,-0.708644 -0.423438,-1.750839 -0.915565,-1.288751 -1.161784,-1.378943 -3.327667,-1.218945 -1.286413,0.09502 -3.426623,-0.119464 -4.756024,-0.476653 -4.293735,-1.153672 -2.392596,1.223899 2.317769,2.898614 2.543681,0.904372 5.25091,1.14399 6.18936,0.547823 z m 39.919052,-0.500526 c 1.186332,-0.464578 0.470089,-0.797664 -1.966013,-0.914284 -1.09811,-0.05257 -2.378234,-0.333934 -2.844708,-0.625255 -0.969892,-0.605712 -1.834472,-2.286522 -1.834472,-3.566379 0,-1.330353 -0.877439,-1.58091 -1.332064,-0.38038 -0.247908,0.654635 -0.224663,1.287375 0.06023,1.640964 0.255056,0.316523 0.296033,0.575495 0.09102,0.575495 -0.59269,0 2.23456,2.817582 3.252548,3.241428 1.144601,0.476568 3.393314,0.490536 4.573406,0.02839 z m 0.260758,-2.549267 c 0,-1.161161 -0.903772,-5.876299 -1.185981,-6.187518 -0.08601,-0.09481 -0.802503,0.371338 -1.592286,1.035893 -0.789773,0.664555 -1.834414,1.208277 -2.321424,1.208277 -1.81573,0 -0.576884,3.77646 1.489636,4.540915 0.492466,0.182175 1.506185,0.377766 2.252717,0.434652 1.163955,0.08869 1.357338,-0.05838 1.357338,-1.032219 z M 62.247968,56.756593 c 1.102396,-0.500397 1.956684,-1.205973 1.956684,-1.616071 0,-0.599238 -0.369091,-0.521836 -2.088121,0.437887 -2.396467,1.337936 -3.358437,1.440043 -4.614731,0.489831 -1.030309,-0.779286 -2.044681,-0.908045 -2.044681,-0.259545 0,0.65246 2.348937,1.818101 3.683173,1.827747 0.633043,0.0047 2.0315,-0.391356 3.107676,-0.879849 z m -1.584004,-1.616812 c 1.937347,-0.80947 2.42107,-1.439034 1.738053,-2.262025 -0.275392,-0.331831 -0.534009,-1.452965 -0.574703,-2.491409 -0.04853,-1.239705 -0.322006,-1.983259 -0.796222,-2.165231 -0.397238,-0.152437 -0.790784,-0.07156 -0.87455,0.179743 -0.08375,0.251289 -0.81284,1.329953 -1.620166,2.397019 -0.807326,1.06707 -1.664597,2.205092 -1.905047,2.528939 -0.305872,0.411982 -0.09848,0.870683 0.690608,1.52738 1.3673,1.13792 1.313171,1.133298 3.342027,0.285584 z m 8.835245,-1.376154 c 2.078038,-1.279896 1.641485,-1.513322 -0.868697,-0.464502 -1.516703,0.633718 -1.779842,0.627672 -2.837295,-0.0652 -1.356565,-0.888848 -2.048967,-2.026119 -2.048967,-3.365412 0,-0.523085 -0.207168,-0.95106 -0.460394,-0.95106 -0.608626,0 -0.58961,2.121079 0.02936,3.277679 0.498226,0.930936 3.0464,2.704558 3.883996,2.703398 0.253215,-3.5e-4 1.289104,-0.51106 2.301984,-1.134901 z m -43.967868,0.149124 c 0,-0.180747 -0.673331,-0.788181 -1.496283,-1.349846 -0.822961,-0.561671 -2.998333,-2.486993 -4.834173,-4.278497 -3.218446,-3.140742 -3.337874,-3.21022 -3.337874,-1.941958 0,0.723429 0.425327,2.003516 0.945174,2.844638 0.889583,1.439388 4.43874,4.367178 5.960778,4.917201 0.939896,0.339653 2.762378,0.213285 2.762378,-0.191538 z m 1.888128,-1.367728 c -0.246568,-0.602466 -0.574392,-1.871793 -0.72847,-2.82073 -0.214259,-1.319484 -0.614602,-1.898289 -1.701911,-2.460558 -0.781956,-0.404366 -2.507585,-1.883427 -3.834719,-3.286798 -2.629524,-2.780562 -3.910161,-6.049229 -3.910161,-9.980099 0,-2.295888 1.805147,-5.038192 3.011676,-4.575204 0.36641,0.140605 0.566762,0.416555 0.44521,0.613221 -0.121552,0.196666 0.293994,1.11646 0.923439,2.043988 0.629436,0.927527 1.148887,1.832597 1.154334,2.011265 0.02227,0.727902 4.09123,5.13975 4.351697,4.718311 0.154862,-0.250569 -0.660225,-2.377494 -1.811302,-4.726501 -1.151077,-2.349009 -2.340638,-5.46134 -2.643497,-6.91629 -0.384284,-1.846183 -0.80489,-2.726064 -1.392244,-2.912481 -1.213704,-0.385214 -4.727759,1.458913 -5.339831,2.802261 -0.286733,0.629309 -0.723211,1.144198 -0.969958,1.144198 -0.570595,0 -1.406785,2.97367 -1.410136,5.014725 -0.0029,1.755321 1.569643,7.383974 2.650681,9.487767 1.336144,2.600265 4.631596,6.199714 7.987369,8.724216 1.84567,1.388469 3.425604,2.45465 3.510957,2.369294 0.08536,-0.08537 -0.04654,-0.648124 -0.293134,-1.250585 z m 30.282003,-2.747863 2.474567,-3.494066 1.669008,0.596376 c 0.917962,0.328009 2.224647,0.605472 2.903755,0.616585 1.69602,0.02775 3.222807,-2.20739 3.503526,-5.129022 0.213107,-2.217782 0.168401,-2.315441 -1.972876,-4.30949 -2.171397,-2.022097 -6.927223,-4.718581 -7.431984,-4.213821 -0.144277,0.144281 0.6096,0.845278 1.675306,1.557773 5.768527,3.85665 7.53483,6.751299 5.655558,9.268383 -1.143336,1.531368 -3.644424,2.126628 -5.065163,1.205507 -1.635197,-1.06016 -2.331395,-0.787101 -3.303242,1.29558 -1.172574,2.512848 -2.885675,4.373961 -4.368719,4.746178 -0.958949,0.240686 -1.464992,-0.02665 -2.797962,-1.47803 -1.920004,-2.090597 -2.205075,-1.218044 -0.447212,1.368879 1.092481,1.607732 1.333809,1.732232 3.107675,1.603165 1.820404,-0.132456 2.055482,-0.326707 4.397763,-3.633997 z m 11.558222,2.06288 c 1.702025,-0.681014 2.573271,-2.021794 1.313775,-2.021794 -0.29541,0 -0.407274,-0.129855 -0.248561,-0.288568 0.453813,-0.453803 -1.006346,-2.934209 -1.72729,-2.934209 -0.356261,0 -0.779105,0.413874 -0.93965,0.919724 -0.160546,0.505848 -0.796052,1.046253 -1.412214,1.2009 -1.827938,0.458785 -1.322215,3.864532 0.573834,3.864532 0.324066,0 1.422109,-0.333264 2.440106,-0.740585 z M 55.637785,48.892346 c 1.462982,-1.738654 2.013231,-3.616182 1.205999,-4.115075 -1.315021,-0.812729 -5.530239,1.169137 -5.530239,2.600151 0,0.340578 -0.207168,0.619237 -0.460393,0.619237 -0.801038,0 -0.500539,0.922505 0.687512,2.11056 1.335491,1.335486 2.155817,1.092244 4.097121,-1.214873 z M 52.52824,48.687254 c -0.395105,-1.029645 0.179674,-2.136765 1.024832,-1.974001 0.951688,0.183279 1.264707,1.742716 0.453048,2.25708 -0.882188,0.559079 -1.176324,0.50274 -1.47788,-0.283079 z M 26.201725,45.564832 c -0.115613,-0.308413 -0.0407,-1.493055 0.16637,-2.632535 0.355129,-1.953891 0.279926,-2.189677 -1.321677,-4.143569 -0.934024,-1.139481 -2.540281,-3.378052 -3.569467,-4.9746 -1.698777,-2.635265 -1.916425,-2.818402 -2.3614,-1.986954 -0.701777,1.311288 -0.605067,4.100228 0.242489,6.99309 0.577782,1.97202 1.309141,3.065131 3.459709,5.170936 2.447148,2.396211 3.955194,3.097492 3.383976,1.573632 z M 51.59618,45.456203 c 0.687985,-0.637596 2.200695,-1.444347 3.3616,-1.792779 1.579368,-0.474032 1.909911,-0.715377 1.31302,-0.958709 -1.446289,-0.589605 -4.608094,0.784818 -5.554363,2.414466 -1.043442,1.796977 -0.797317,1.891268 0.879743,0.337022 z m 13.460316,-0.869909 c 0.973063,-0.601385 0.597778,-3.343605 -0.662567,-4.84145 -2.031953,-2.414825 -3.952108,-1.508822 -4.502951,2.124657 -0.248637,1.639979 -0.144666,2.033376 0.692307,2.61962 0.971544,0.680488 3.442543,0.734167 4.473211,0.09717 z m -3.722865,-1.744317 c -0.24333,-0.72349 0.09997,-2.21447 0.507629,-2.204614 0.796478,0.01925 1.514995,0.888413 1.367507,1.65422 -0.194904,1.012114 -1.582833,1.419498 -1.875136,0.550394 z m -7.96096,-1.098632 c 0.669422,-0.168017 1.167174,-0.671453 1.252404,-1.266725 0.0778,-0.54334 0.532093,-1.062404 1.009566,-1.153473 0.715355,-0.136446 0.827304,0.04788 0.636225,1.04749 -0.163661,0.856132 0.0086,1.341948 0.586476,1.651055 0.726742,0.388939 0.815031,0.217095 0.788556,-1.534743 -0.01766,-1.170607 0.307883,-2.488127 0.800717,-3.240304 1.008924,-1.539798 0.291057,-2.805918 -0.749335,-1.321643 -0.914186,1.304225 -5.006162,3.784519 -6.243668,3.784519 -0.848842,0 -1.062109,0.25303 -1.067142,1.26609 -0.0038,0.696349 -0.131719,1.784037 -0.285014,2.417082 l -0.278716,1.150991 1.219481,-1.260753 c 0.670715,-0.693415 1.719417,-1.386229 2.33045,-1.539586 z m 5.621719,-0.738959 c -0.146959,-0.367274 -0.256057,-0.258179 -0.27815,0.278157 -0.01992,0.485333 0.08885,0.757256 0.24181,0.604269 0.152992,-0.152985 0.169344,-0.550078 0.03635,-0.882426 z m 1.970932,-3.942146 c 0.0095,-0.316523 -0.178872,-0.575496 -0.417745,-0.575496 -0.661377,0 -1.867971,1.927494 -1.865394,2.979921 0.0018,0.816944 0.143589,0.761059 1.134422,-0.447739 0.622686,-0.759655 1.139615,-1.640164 1.148717,-1.956686 z m -6.310665,0.101894 c 3.027544,-2.057271 3.996115,-5.464973 2.468383,-8.684433 -0.929105,-1.957957 -1.520312,-2.429471 -3.512911,-2.801738 -1.828515,-0.341609 -5.244961,0.893442 -6.492049,2.34688 -1.748025,2.037254 -1.185794,6.842072 1.084428,9.267593 1.366573,1.46006 4.197506,1.403765 6.452149,-0.128302 z M 50.311164,35.99777 c -0.677918,-0.506109 -1.364381,-1.520316 -1.525485,-2.253794 -0.356846,-1.624709 0.823462,-4.147699 1.9642,-4.198616 0.436629,-0.01948 1.464398,-0.07128 2.283951,-0.115098 1.093861,-0.05848 1.461121,0.103968 1.381188,0.61093 -0.06392,0.405477 0.176219,0.627236 0.5817,0.537129 0.379827,-0.08441 0.534764,0.0023 0.344299,0.192836 -0.190468,0.190466 -0.01643,0.71083 0.386795,1.156365 0.900155,0.994656 0.568443,2.213336 -1.040327,3.822105 -1.425423,1.425418 -2.702414,1.497824 -4.376321,0.248143 z m 3.853575,-1.237513 c 1.347851,-1.569475 1.316032,-1.891786 -0.309185,-3.131401 -1.54771,-1.180491 -1.669441,-1.201568 -2.771006,-0.479793 -1.339872,0.877918 -1.44271,1.703904 -0.408643,3.282095 0.871916,1.330711 2.49701,1.484005 3.488834,0.329099 z m 9.022369,-2.830136 c 2.364223,-1.208931 4.165253,-2.978018 4.954263,-4.866375 1.051722,-2.517116 0.798044,-2.718342 -1.059239,-0.840212 -2.529234,2.557629 -4.27148,3.781315 -6.215362,4.365419 -1.857396,0.558121 -2.031518,0.804632 -1.174001,1.662142 0.763111,0.76311 1.508084,0.69468 3.494339,-0.320974 z M 42.49756,31.370331 c -0.342173,-0.216835 -1.105558,-0.397418 -1.696397,-0.401296 -0.663104,-0.0045 -0.993496,-0.227309 -0.863239,-0.582546 0.116057,-0.316522 0.417424,-0.532586 0.669715,-0.480142 2.132997,0.443395 2.781505,0.594642 3.684861,0.859416 0.91566,0.268376 1.035889,0.139132 1.035889,-1.113525 0,-1.258028 -0.201871,-1.4715 -1.798008,-1.901293 -1.822764,-0.490823 -4.439447,-2.270279 -3.379784,-2.298402 0.317446,-0.0085 1.341032,0.394086 2.274622,0.894468 0.933608,0.500381 1.81337,0.782785 1.955032,0.627564 0.141653,-0.155221 0.0095,-0.371245 -0.294853,-0.480054 -0.303813,-0.108807 -1.095503,-0.625049 -1.759307,-1.147204 -0.856828,-0.673973 -1.064119,-1.09219 -0.714608,-1.441707 0.349528,-0.349517 0.960043,-0.03903 2.104624,1.070351 1.872966,1.815346 2.128088,1.664643 0.461857,-0.272819 -1.181781,-1.374153 -1.496603,-2.488692 -0.702977,-2.488692 0.24671,0 0.743454,0.57023 1.103859,1.267177 0.76448,1.47835 2.591135,3.250993 2.591135,2.514523 0,-0.27752 -0.210133,-0.634455 -0.466975,-0.793189 -0.725712,-0.448516 -2.370643,-3.909304 -1.858114,-3.909304 0.250807,0 0.92835,0.827117 1.505648,1.83804 1.604984,2.810517 1.917578,2.193679 0.353429,-0.697427 -0.756567,-1.398406 -1.37558,-2.745066 -1.37558,-2.992576 0,-0.989926 0.957788,-0.362756 1.597836,1.046269 0.604841,1.331575 0.669695,1.369586 0.589112,0.345297 -0.130607,-1.659962 0.776546,-1.878358 0.956163,-0.230198 0.0828,0.759654 0.334233,1.570488 0.558774,1.801851 0.238308,0.245544 0.294315,-0.281519 0.134535,-1.266091 -0.168581,-1.038839 -0.08923,-1.686752 0.206441,-1.686752 0.264101,0 0.620184,0.828714 0.791312,1.841587 0.171121,1.012873 0.478285,1.841586 0.682574,1.841586 0.320345,0 0.154417,-1.17821 -0.510566,-3.625624 -0.09459,-0.348174 0.08696,-0.728002 0.403489,-0.844059 0.381621,-0.13993 0.593841,0.30597 0.629965,1.32364 l 0.05448,1.534655 0.295344,-1.38119 c 0.469598,-2.196069 1.194498,-1.385983 1.20108,1.342217 0.0066,2.948582 0.244943,2.873582 1.092066,-0.344379 1.113008,-4.227987 0.473318,-7.218608 -1.663588,-7.777422 -1.38387,-0.36189 -3.985324,0.70073 -4.480905,1.830321 -0.249948,0.569741 -0.74147,1.035893 -1.092266,1.035893 -0.50457,0 -0.522216,-0.139257 -0.08441,-0.666726 0.432805,-0.521486 0.419077,-0.947724 -0.06306,-1.956684 -0.750202,-1.570061 -2.405519,-1.91084 -3.679866,-0.757573 -0.81469,0.737287 -0.987784,0.754295 -1.458326,0.143297 -0.293645,-0.381302 -1.051855,-0.921031 -1.684898,-1.199393 -1.430634,-0.629079 -3.257742,0.496687 -4.345729,2.677609 -0.985405,1.975298 -0.905878,3.075144 0.410343,5.675024 0.794173,1.568703 1.001162,2.445166 0.697954,2.955505 -0.367308,0.618239 -0.473885,0.573117 -0.720926,-0.305231 -0.159451,-0.566892 -0.473526,-0.917227 -0.697954,-0.778522 -0.660858,0.40843 -0.467578,2.670357 0.32483,3.80169 0.692299,0.988386 0.665767,1.10856 -0.479078,2.169566 -1.017053,0.94257 -1.130088,1.276248 -0.702779,2.074682 0.604945,1.130351 1.037306,1.320757 3.970963,1.74879 2.712468,0.395759 5.155426,0.141447 4.236301,-0.440998 z M 42.255005,29.7107 c -0.804106,-0.100716 -1.736401,-0.517849 -2.071787,-0.926952 -0.539297,-0.657846 -0.476736,-0.708711 0.541214,-0.440071 0.633042,0.167064 1.824321,0.30658 2.647273,0.310038 1.02031,0.0043 1.496291,0.225971 1.496291,0.696882 0,0.379827 -0.258975,0.657439 -0.575496,0.616914 -0.316521,-0.04051 -1.233398,-0.156088 -2.037495,-0.256811 z m -4.753353,-1.741291 c 0,-0.633046 0.207178,-1.150993 0.460393,-1.150993 0.253225,0 0.460403,0.517947 0.460403,1.150993 0,0.633043 -0.207178,1.15099 -0.460403,1.15099 -0.253215,0 -0.460393,-0.517947 -0.460393,-1.15099 z m 0.529458,-3.429956 c 0.101297,-0.303862 0.334366,-0.536937 0.51795,-0.517947 0.550494,0.05695 0.443889,0.688426 -0.149632,0.886264 -0.303859,0.101296 -0.469608,-0.06445 -0.368318,-0.368317 z m 0.496838,-2.871724 c 0.284561,-0.853678 1.275688,-0.995266 1.275688,-0.18224 0,0.400928 -0.328031,0.728961 -0.72896,0.728961 -0.40093,0 -0.64696,-0.246024 -0.546728,-0.546721 z m 1.381198,-1.841586 c 0.284552,-0.853679 1.275678,-0.995267 1.275678,-0.18224 0,0.400928 -0.328031,0.72896 -0.72896,0.72896 -0.40093,0 -0.646951,-0.246024 -0.546718,-0.54672 z m 1.73607,-1.728091 c 0,-0.521381 0.207189,-0.947963 0.460404,-0.947963 0.253214,0 0.460401,0.298538 0.460401,0.663422 0,0.364883 -0.207187,0.791467 -0.460401,0.947965 -0.253215,0.156496 -0.460404,-0.142043 -0.460404,-0.663424 z M 43.21605,17.08445 c -0.136847,-0.221402 0.230668,-0.583648 0.816683,-0.804993 1.102811,-0.416552 1.756058,-0.273805 1.756058,0.383734 0,0.536289 -2.271761,0.908265 -2.572741,0.421259 z m 6.984695,-0.793364 c -0.198322,-0.320897 -0.236259,-0.707785 -0.08432,-0.85975 0.412042,-0.412037 0.861294,0.193966 0.638755,0.861606 -0.155948,0.467844 -0.264395,0.46748 -0.554461,-0.0018 z m 1.343007,-0.06179 c -0.156496,-0.253217 0.142039,-0.460397 0.663415,-0.460397 0.521387,0 0.947959,0.20718 0.947959,0.460397 0,0.253218 -0.298534,0.460397 -0.663416,0.460397 -0.364881,0 -0.791474,-0.207179 -0.947958,-0.460397 z m -3.22278,-0.460397 c -0.156495,-0.253218 0.0507,-0.460395 0.460393,-0.460395 0.409719,0 0.616897,0.207177 0.460403,0.460395 -0.156505,0.253219 -0.363673,0.460397 -0.460403,0.460397 -0.09671,0 -0.303889,-0.207178 -0.460393,-0.460397 z M 37.962045,14.820938 c 0,-0.521381 0.207187,-0.819921 0.460403,-0.663423 0.253215,0.156497 0.460402,0.583081 0.460402,0.947963 0,0.364882 -0.207187,0.663423 -0.460402,0.663423 -0.253216,0 -0.460403,-0.426583 -0.460403,-0.947963 z m 6.279064,-0.663423 c 0.145761,-0.379828 0.346432,-0.690595 0.445948,-0.690595 0.09951,0 0.180939,0.310767 0.180939,0.690595 0,0.379828 -0.200672,0.690594 -0.445947,0.690594 -0.245266,0 -0.326689,-0.310766 -0.18094,-0.690594 z m 0.626887,17.725268 c 0,-0.253218 -0.207177,-0.460397 -0.460393,-0.460397 -0.253214,0 -0.460402,0.207179 -0.460402,0.460397 0,0.253218 0.207188,0.460396 0.460402,0.460396 0.253216,0 0.460393,-0.207178 0.460393,-0.460396 z M 58.656503,25.55233 c 0.748032,-2.733227 2.100999,-4.548761 4.389103,-5.889677 1.166789,-0.683784 2.048741,-1.31593 1.959905,-1.40477 -0.08885,-0.08884 -1.461094,0.282209 -3.04945,0.824555 -4.178017,1.42658 -6.512773,4.870715 -4.973107,7.33611 0.783958,1.255318 1.143929,1.069 1.673549,-0.866218 z"
     style="fill:#000000;stroke-width:0.46039656" />
</svg>
