<?xml version="1.0" encoding="UTF-8" standalone="no"?>
<svg
   xmlns:dc="http://purl.org/dc/elements/1.1/"
   xmlns:cc="http://creativecommons.org/ns#"
   xmlns:rdf="http://www.w3.org/1999/02/22-rdf-syntax-ns#"
   xmlns:svg="http://www.w3.org/2000/svg"
   xmlns="http://www.w3.org/2000/svg"
   id="svgAY4"
   version="1.1"
   viewBox="0 0 100 100"
   height="100"
   width="100">
  <defs
     id="defs6029" />
  <metadata
     id="metadata6032">
    <rdf:RDF>
      <cc:Work
         rdf:about="">
        <dc:format>image/svg+xml</dc:format>
        <dc:type
           rdf:resource="http://purl.org/dc/dcmitype/StillImage" />
        <dc:title></dc:title>
      </cc:Work>
    </rdf:RDF>
  </metadata>
  <path
     id="pathAY4"
     d="m 59.053753,94.390404 c -0.845704,-0.642204 -1.200301,-1.962807 -1.00124,-3.728866 0.151409,-1.343287 0.350333,-1.708218 1.220336,-2.238733 0.571694,-0.348611 1.436487,-0.634399 1.921765,-0.635084 0.750027,-0.001 0.916616,-0.184058 1.111046,-1.220455 0.125799,-0.670561 0.46894,-1.585819 0.762538,-2.033907 0.435031,-0.663941 0.446002,-0.795478 0.05927,-0.710806 -0.909038,0.199027 -3.658565,-1.455614 -4.991423,-3.003791 -1.79135,-2.080744 -2.513637,-4.735464 -1.288406,-4.735464 0.198607,0 0.256465,0.38586 0.138435,0.923236 -0.159891,0.727984 0.06433,1.286486 1.060155,2.640811 2.03163,2.762989 4.944106,4.219482 6.928682,3.464945 l 0.933476,-0.354903 -1.509954,-1.329116 C 63.394076,80.544199 62.69131,79.550847 62.299639,78.461637 61.720197,76.850274 61.683667,76.82052 60.012434,76.598823 58.05681,76.3394 56.490397,75.667327 55.394509,74.617486 c -0.421638,-0.403924 -1.199334,-1.007573 -1.728211,-1.341448 -0.789392,-0.498332 -1.01303,-0.525874 -1.248792,-0.153804 -0.157957,0.249285 -0.2895,0.641328 -0.292315,0.871212 -0.0027,0.229883 -0.230823,0.41797 -0.506683,0.41797 -0.275861,0 -0.483746,0.112852 -0.461969,0.250782 0.109161,0.691343 -0.08938,1.086723 -0.545698,1.086723 -0.278355,0 -0.785745,0.174642 -1.127534,0.388091 -0.502454,0.313789 -0.845066,0.249872 -1.789522,-0.333831 -0.840078,-0.519197 -1.673688,-0.71463 -2.968578,-0.695961 -2.535151,0.03655 -6.492859,-0.598926 -7.75533,-1.245245 -2.269667,-1.161947 -6.0532,-5.559629 -5.85597,-6.806518 0.106417,-0.672762 0.120958,-0.673415 1.277959,-0.05731 1.419653,0.755968 3.952293,1.131122 5.723782,0.847852 1.027321,-0.164277 1.35171,-0.38639 1.515106,-1.037401 0.285019,-1.135608 -0.287979,-1.4141 -2.922101,-1.420222 -1.886067,-0.0043 -6.364025,-0.876032 -7.994927,-1.556241 -0.27586,-0.115052 -0.824528,-0.252597 -1.219261,-0.305656 -1.163176,-0.156348 -2.679046,-1.068158 -3.947992,-2.374748 -1.299951,-1.338519 -1.555483,-0.95752 -0.617033,0.919983 0.312877,0.625952 0.58866,1.401197 0.61284,1.722764 0.0532,0.70708 2.121992,3.747258 3.406971,5.006619 0.510696,0.500512 1.813305,1.804884 2.894694,2.898609 1.291129,1.30586 2.142258,1.921015 2.47908,1.791761 0.332437,-0.127567 0.429168,-0.06131 0.2749,0.188305 -0.250537,0.405374 3.064111,2.737905 3.890707,2.737905 0.247915,0 0.597572,0.146817 0.777017,0.326263 0.179447,0.179447 1.518467,0.57282 2.975602,0.87416 2.86684,0.592876 5.646343,0.45948 7.266456,-0.348741 0.598059,-0.298348 1.002231,-0.343415 1.136174,-0.126682 0.506508,0.81954 -0.690041,1.115834 -4.745649,1.175129 -3.379201,0.04942 -4.536952,-0.06299 -6.065434,-0.588866 -3.10522,-1.068353 -5.490372,-2.586208 -7.626655,-4.853417 -1.110195,-1.178239 -2.163479,-2.150753 -2.340635,-2.161145 -0.614777,-0.03607 -4.24585,-4.82676 -5.176003,-6.829 -1.344338,-2.893851 -1.495031,-3.911178 -0.720943,-4.867136 l 0.64012,-0.790509 0.586159,1.133505 c 0.672078,1.299661 1.534565,2.090304 3.1231,2.86296 1.131215,0.550221 4.813969,1.647119 6.600216,1.965857 0.538122,0.09602 1.730632,0.316119 2.650022,0.489102 0.919389,0.172982 1.746735,0.2394 1.838544,0.14759 0.276052,-0.276051 -1.021434,-1.074472 -2.870127,-1.766156 -0.95733,-0.358184 -2.736997,-1.261103 -3.954813,-2.006488 -1.217817,-0.745385 -2.335114,-1.355248 -2.482882,-1.355248 -0.606849,0 -4.81414,-4.536254 -5.855929,-6.313794 -2.453661,-4.186537 -3.516861,-9.732834 -2.795822,-14.584729 0.397597,-2.675479 1.859898,-5.182833 3.022651,-5.182833 0.344471,0 0.483178,0.503884 0.514667,1.869575 0.02369,1.028264 0.151995,2.043932 0.285086,2.257041 0.133091,0.213104 0.282986,0.650578 0.333092,0.972165 0.05008,0.321587 0.635025,1.715293 1.299821,3.097125 1.263401,2.626071 3.22436,5.062043 5.571269,6.920827 l 1.385867,1.097631 -1.37059,-2.018286 C 29.73519,46.703522 28.886747,45.603018 28.603588,45.368019 26.898805,43.95318 24.019851,35.689432 23.566374,30.909251 c -0.26028,-2.743682 0.305014,-7.240618 1.189826,-9.465125 0.5949,-1.495619 1.137557,-2.224772 2.27778,-3.060572 1.891967,-1.386835 2.98302,-1.602083 4.871224,-0.961022 0.826822,0.280714 1.637889,0.427216 1.80237,0.325561 0.164481,-0.101652 0.354943,-0.01716 0.423253,0.187765 0.06831,0.204925 0.594748,0.391822 1.169868,0.415326 1.325975,0.05418 1.103194,0.438073 -0.505636,0.871286 -0.791834,0.213219 -1.444338,0.674036 -1.788363,1.262998 -0.831237,1.423047 -1.654735,4.108225 -1.390863,4.535178 0.129783,0.209994 0.263338,1.031309 0.296788,1.825147 0.03345,0.793837 0.305763,1.714 0.605138,2.044805 0.299375,0.330807 0.45766,0.688124 0.351746,0.79404 -0.562269,0.562267 3.427439,6.273495 4.382491,6.273495 0.213466,0 0.400186,0.424344 0.414932,0.942989 0.03833,1.348282 1.253048,4.634807 2.294972,6.209258 0.85162,1.286884 0.910025,1.316517 1.361334,0.690708 0.259348,-0.359626 1.136658,-1.556679 1.949577,-2.660121 3.207763,-4.354156 3.549155,-4.90929 3.739167,-6.080193 0.121987,-0.751711 0.07264,-1.136126 -0.129771,-1.011027 -0.179628,0.111015 -0.811555,-0.09308 -1.404281,-0.453534 -0.862688,-0.524632 -1.217083,-0.580778 -1.776412,-0.281437 -1.285478,0.687968 -5.335981,-0.484628 -4.78023,-1.383849 0.108665,-0.175827 0.708259,-0.319687 1.332426,-0.319687 1.121538,0 2.842999,-0.591348 2.833081,-0.973207 -0.02468,-0.950546 -1.309251,-1.412235 -2.790966,-1.003113 -1.235695,0.341191 -2.276116,1.664166 -2.690505,3.421173 -0.380379,1.612812 -1.010108,0.856337 -0.906838,-1.089359 0.122201,-2.302386 0.220036,-2.764718 0.837876,-3.959488 0.726332,-1.404568 2.719165,-2.144512 5.040783,-1.87165 1.489191,0.175025 1.94813,0.09876 2.629108,-0.436897 0.657885,-0.517493 0.75583,-0.772508 0.483558,-1.259033 -0.440477,-0.78709 -0.133845,-3.744684 0.541342,-5.221417 0.614617,-1.344259 0.95965,-1.904459 2.56135,-4.158638 1.954731,-2.751024 2.994374,-5.9006495 2.813091,-8.5223401 -0.06374,-0.9218764 0.0078,-1.6761386 0.159009,-1.6761386 0.576776,0 2.881887,3.2231535 3.457711,4.8347904 1.13092,3.1652653 0.776859,5.4768143 -1.15811,7.5609173 -2.583118,2.782206 -3.418387,4.077501 -3.402925,5.277091 0.0087,0.670706 0.134429,1.595639 0.279521,2.055406 0.237873,0.753781 0.211881,0.786645 -0.264457,0.334376 -0.305476,-0.290037 -0.561536,-1.165572 -0.607161,-2.076026 -0.06598,-1.316567 0.109224,-1.850476 1.069593,-3.259524 0.63167,-0.926784 1.269801,-1.685351 1.418073,-1.685707 0.148273,-3.68e-4 0.566347,-0.671526 0.929055,-1.491489 0.362711,-0.819966 0.792566,-1.5731 0.955233,-1.673635 0.638725,-0.394754 0.746917,-2.83971 0.198696,-4.490246 C 53.983354,8.2706242 52.624264,6.6113062 52.317234,7.4114174 52.208798,7.6940058 52.120072,8.3680756 52.120072,8.90935 c 0,1.709141 -1.170204,4.405525 -3.255583,7.501506 -2.407887,3.574786 -2.85346,4.797734 -2.492474,6.840975 0.256393,1.451238 0.304992,1.501522 1.36794,1.415369 1.565751,-0.126904 4.601651,1.660598 5.174047,3.046417 0.362862,0.878524 0.356749,1.290291 -0.03649,2.456689 -0.440849,1.30764 -0.42503,1.465358 0.236749,2.360464 0.561875,0.759975 0.709498,1.44122 0.710769,3.280004 0.0016,2.315506 -0.06479,2.96358 -0.746285,7.284281 -0.875437,5.550397 1.254327,6.972299 4.806364,3.208891 0.879617,-0.931961 1.881013,-2.249183 2.225325,-2.927162 0.853685,-1.680989 1.479562,-4.902312 1.220634,-6.28251 -0.117226,-0.624876 -0.152476,-1.136141 -0.07833,-1.136141 0.07415,0 0.692061,0.902816 1.373147,2.006259 1.308715,2.120287 1.713434,2.492023 1.365172,1.25391 -0.138984,-0.494098 -0.108317,-0.604134 0.08933,-0.320559 0.22513,0.322998 0.651887,0.05108 1.693784,-1.079253 0.766056,-0.83107 1.392829,-1.724005 1.392829,-1.9843 0,-0.260291 0.218906,-0.557263 0.486456,-0.659932 0.707972,-0.271675 1.739991,-2.470596 2.556719,-5.447593 1.090578,-3.975193 0.820062,-6.504401 -1.143038,-10.686862 -1.503771,-3.203843 -1.529201,-3.310203 -0.85137,-3.56095 0.963225,-0.356319 5.162761,-0.245472 4.584483,0.12101 -0.346192,0.219395 -0.311929,0.286634 0.148063,0.290568 1.054874,0.009 3.106994,1.263333 4.015403,2.454315 0.971309,1.273452 2.399734,4.806834 2.750549,6.803813 0.226613,1.289974 0.22443,4.748851 -0.0034,5.117212 -0.0675,0.109217 -0.295144,1.765468 -0.505874,3.680556 -0.367149,3.336571 -1.399082,7.361152 -2.132055,8.315095 -0.190888,0.248438 -0.37322,0.629888 -0.405183,0.847668 -0.0769,0.52393 -3.811841,5.887367 -6.287382,9.028776 -1.063445,1.349487 -0.953846,2.020807 0.16501,1.010736 2.193863,-1.98056 7.850247,-10.710441 9.050425,-13.968134 0.34804,-0.944703 0.762621,-2.01858 0.92129,-2.386394 0.158669,-0.367814 0.592784,-1.416917 0.964703,-2.331342 0.371917,-0.914425 0.830401,-1.713985 1.018851,-1.776803 0.61113,-0.203709 1.652896,2.586433 1.866803,4.999817 0.01087,0.122601 0.132611,0.335767 0.270541,0.473697 0.362551,0.362554 0.309292,5.489346 -0.05702,5.489346 -0.169294,0 -0.397541,0.413792 -0.507206,0.919535 -0.427941,1.973484 -0.523476,2.317148 -1.149222,4.13411 -0.827865,2.403844 -1.6822,4.070025 -2.260771,4.409103 -0.250946,0.147069 -0.456263,0.424009 -0.456263,0.615424 0,0.357487 -2.578474,3.55545 -3.925974,4.869205 -0.415412,0.405009 -0.755297,0.894034 -0.755297,1.086723 0,0.192688 -0.150468,0.350342 -0.334375,0.350342 -0.183907,0 -0.316557,0.112852 -0.29478,0.250783 0.09505,0.602021 -0.06377,0.89868 -0.295497,0.551918 -0.158174,-0.236692 -0.662457,0.05098 -1.415981,0.807743 -0.778451,0.781801 -0.952672,1.096009 -0.520313,0.938383 0.633927,-0.231111 0.634713,-0.220073 0.03177,0.446172 -0.756208,0.835597 -0.881773,0.854689 -0.644467,0.09798 0.113769,-0.362769 -0.117382,-0.235689 -0.608214,0.334377 -0.435448,0.505743 -0.901913,0.919534 -1.03659,0.919534 -0.134677,0 -0.840762,0.376174 -1.56908,0.83594 -0.728319,0.459767 -1.590529,0.838244 -1.916021,0.84106 -0.325491,0.0027 -0.817507,0.159494 -1.093367,0.348172 -0.639986,0.437726 2.20009,0.101751 4.346893,-0.514231 2.159448,-0.619605 5.224594,-2.031956 5.949933,-2.741596 1.141725,-1.117011 2.322515,-2.935958 2.728401,-4.202961 0.220928,-0.689651 0.522941,-1.253911 0.671136,-1.253911 0.548438,0 0.614685,1.416512 0.121456,2.596977 -0.2798,0.669649 -0.564189,1.655815 -0.631981,2.191479 -0.237321,1.875211 -2.596189,6.56481 -4.070527,8.092512 -1.427624,1.479292 -4.156442,3.270422 -6.623031,4.347194 -1.094895,0.477968 -2.251994,1.010304 -2.571336,1.182974 -0.319343,0.172665 -1.07169,0.316243 -1.671883,0.319058 -1.793845,0.0085 -1.967664,0.315628 -1.144704,2.023168 0.860792,1.786038 2.622825,3.487532 4.149554,4.006982 1.126086,0.383139 1.474714,0.986634 0.569962,0.986634 -1.034543,0 -3.179538,2.794565 -3.13498,4.084347 0.01451,0.420262 0.102293,0.576023 0.195053,0.34614 0.244579,-0.606128 1.769255,-0.51319 2.013279,0.12272 0.290607,0.757309 -0.266725,2.139691 -1.078892,2.676037 -0.589863,0.389539 -0.852445,0.360508 -1.921453,-0.212446 -1.555819,-0.833871 -2.074458,-0.832961 -2.912526,0.0051 -0.870826,0.870826 -0.845765,1.229662 0.08359,1.196866 0.614182,-0.02166 0.771887,0.177033 0.858755,1.082016 0.05852,0.609712 -0.07275,1.324441 -0.291723,1.588288 -0.490483,0.590993 -1.673865,0.621307 -2.410729,0.06176 z m 2.177844,-1.094705 c 0.181535,-0.949642 -0.239602,-1.440105 -0.547529,-0.637656 -0.318681,0.830463 -0.873341,0.206206 -0.873341,-0.982929 0,-1.154665 1.013823,-2.551138 1.852097,-2.551138 0.268695,0 0.488538,-0.150469 0.488538,-0.334377 0,-0.520246 -1.773309,-0.393317 -2.600609,0.186148 -0.611129,0.428052 -0.743155,0.839639 -0.743155,2.316754 0,1.907035 0.547051,2.84712 1.656785,2.84712 0.38228,0 0.665429,-0.311458 0.767214,-0.843922 z m 4.406832,-3.359667 c 0.73335,-0.733351 0.69345,-1.898739 -0.0597,-1.743986 -0.336734,0.06919 -0.543445,0.36351 -0.486905,0.693269 0.133302,0.777471 -0.823034,0.736778 -1.245713,-0.05301 -0.561175,-1.048561 0.555482,-3.879221 1.958275,-4.964128 0.728777,-0.563629 0.325352,-0.527121 -0.89334,0.08084 -1.375584,0.686233 -2.090922,1.870495 -2.090922,3.461581 0,1.062986 0.200028,1.48786 1.028786,2.185213 1.213756,1.02131 1.12526,1.004484 1.789529,0.340214 z M 65.488662,75.334083 c 1.015043,-0.412064 1.935831,-0.873477 2.046196,-1.025357 0.110364,-0.151881 0.411303,-0.317848 0.668753,-0.368815 1.274823,-0.252377 2.307159,-0.628536 2.307159,-0.840679 0,-0.130106 0.639496,-0.59536 1.4211,-1.033898 0.781606,-0.438541 1.899433,-1.30354 2.484062,-1.92222 1.191055,-1.26043 2.776766,-4.101697 2.792999,-5.004486 0.0059,-0.325224 0.231556,-0.883395 0.501564,-1.240382 0.270013,-0.356986 0.490932,-0.926483 0.490932,-1.265547 0,-0.480616 -0.223584,-0.361828 -1.014545,0.539024 -1.108036,1.261985 -4.367346,2.776089 -8.013616,3.722704 -2.338653,0.607142 -5.361872,0.510265 -6.216739,-0.19921 -0.385209,-0.319694 -0.771273,-0.274901 -1.859283,0.215723 l -1.373131,0.619194 0.962845,0.282268 c 1.466215,0.429834 7.8706,0.349991 9.527033,-0.118771 0.806905,-0.228353 1.75689,-0.423631 2.111083,-0.433957 1.57433,-0.0459 0.594254,1.550904 -1.824167,2.972038 -0.62593,0.367814 -1.556884,0.929018 -2.068787,1.247116 -0.511907,0.318103 -0.930737,0.477429 -0.930737,0.354061 0,-0.123365 -0.236862,0.06778 -0.526361,0.424766 -0.289496,0.356986 -0.431088,0.46098 -0.314643,0.231096 0.116449,-0.229883 0.117712,-0.41797 0.0027,-0.41797 -0.383707,0 -1.66661,0.764201 -1.908366,1.136779 -0.15161,0.233649 -1.798969,0.377345 -4.514082,0.393755 -2.35144,0.01421 -4.257189,0.161892 -4.234993,0.328177 0.0587,0.439705 2.00699,1.463713 3.421252,1.798183 2.158219,0.510413 4.154054,0.380821 6.061654,-0.393592 z m 0.0064,-1.88633 c 0,-0.183906 0.150469,-0.42737 0.334375,-0.541031 0.183909,-0.113661 0.334378,-0.05618 0.334378,0.127722 0,0.183906 -0.150469,0.427371 -0.334378,0.541031 -0.183906,0.113661 -0.334375,0.05618 -0.334375,-0.127722 z m -14.933423,1.09333 c 0.480406,-0.480405 1.058589,-1.385417 1.284855,-2.011143 0.226266,-0.625725 0.493222,-1.09304 0.593234,-1.038473 0.100014,0.05456 0.595634,0.30662 1.101379,0.560121 0.505744,0.253505 0.919534,0.587232 0.919534,0.74162 0,0.740761 1.388733,0.137866 2.489836,-1.080925 1.000225,-1.10713 1.154837,-1.452378 0.827202,-1.847152 -0.221621,-0.267035 -0.298091,-0.590381 -0.169931,-0.718541 0.12816,-0.12816 0.358754,-0.02959 0.512422,0.21907 0.190014,0.307445 0.353309,0.01464 0.510392,-0.915117 0.244974,-1.449984 0.0036,-2.732913 -0.514314,-2.732913 -0.171512,0 -0.311843,-0.150469 -0.311843,-0.334375 0,-0.183909 -0.263321,-0.610901 -0.585159,-0.948876 -0.321837,-0.337974 -0.755596,-0.902235 -0.963913,-1.253911 -0.208313,-0.351678 -0.469936,-0.553336 -0.581379,-0.448139 -0.181847,0.171663 0.804502,1.825007 2.334902,3.913819 0.306788,0.418728 0.44508,0.870136 0.307309,1.003128 -0.137766,0.132991 -0.497358,-0.126204 -0.799093,-0.57599 -1.245732,-1.856966 -1.770673,-2.180008 -0.911931,-0.561194 1.015114,1.913595 1.00873,1.88055 0.363324,1.88055 -0.275861,0 -0.501564,-0.196944 -0.501564,-0.437656 0,-0.240711 -0.23799,-0.729736 -0.528864,-1.086723 -0.488153,-0.599109 -0.513779,-0.601636 -0.332948,-0.03283 0.107753,0.338922 0.295461,1.016034 0.417137,1.504693 0.193822,0.778407 0.156252,0.834963 -0.303286,0.456544 -0.428647,-0.352985 -0.553476,-0.352985 -0.68299,0 -0.08716,0.237561 -0.265619,-0.01949 -0.396568,-0.571203 -0.130951,-0.55172 -0.475272,-1.755475 -0.765163,-2.675011 -0.598487,-1.898404 -0.981281,-1.55195 -0.439792,0.398039 0.476661,1.716528 0.4723,2.69275 -0.0099,2.210579 -0.202034,-0.202034 -0.430069,-1.011883 -0.506742,-1.799664 -0.205554,-2.111887 -0.463439,-2.034843 -0.463439,0.138435 0,2.086322 -0.635004,2.647682 -0.724961,0.64089 l -0.05621,-1.253912 -0.131162,1.253912 c -0.160979,1.538936 -0.744723,1.661067 -0.799106,0.167187 l -0.03956,-1.086723 -0.221938,1.003129 c -0.209648,0.947573 -0.243932,0.966094 -0.619025,0.334377 -0.347772,-0.585704 -0.398346,-0.596086 -0.40725,-0.08359 -0.0055,0.321838 -0.160638,0.585158 -0.344544,0.585158 -0.415216,0 -0.411441,-0.465712 0.01762,-2.173446 0.184823,-0.735628 0.397687,-1.597662 0.473036,-1.91563 0.07534,-0.317973 0.01318,-0.654659 -0.138177,-0.748194 -0.308596,-0.190723 -1.021234,2.341051 -1.021234,3.628098 0,0.45943 -0.173624,0.942635 -0.385833,1.073787 -0.2842,0.175644 -0.33374,-0.369643 -0.188073,-2.070121 l 0.197757,-2.308572 -0.457069,1.631554 c -0.506045,1.806374 -1.418846,3.078025 -1.049023,1.461425 0.518468,-2.266348 0.506494,-2.643424 -0.03791,-1.193965 -0.323218,0.860555 -0.718097,1.688136 -0.87751,1.83907 -0.374345,0.354436 0.05805,-1.723726 0.666705,-3.204266 0.257323,-0.625937 0.406091,-1.199833 0.330596,-1.275326 -0.164421,-0.164419 -1.877775,3.508476 -1.877775,4.025363 0,0.256987 -0.104432,0.256415 -0.362832,-0.002 -0.260857,-0.260856 -0.20932,-0.679051 0.183375,-1.487975 0.518417,-1.067896 0.115333,-0.722034 -0.700862,0.60137 -0.208313,0.337767 -0.49579,0.502193 -0.638837,0.365389 -0.143046,-0.136783 0.01395,-0.551496 0.348839,-0.921564 0.334907,-0.370066 0.525947,-0.755827 0.424531,-0.857243 -0.101414,-0.101414 -0.513249,0.277451 -0.915189,0.841921 -0.401936,0.564475 -0.882836,0.932349 -1.068667,0.817501 -0.19285,-0.119192 0.105148,-0.665891 0.694323,-1.273763 0.567705,-0.58572 1.032189,-1.178291 1.032189,-1.316827 0,-0.29704 -2.324781,1.395841 -2.915159,2.122786 -0.643912,0.792868 -0.517652,1.671883 0.240148,1.671883 0.369176,0 0.668754,0.222919 0.668754,0.497623 0,0.316734 -0.27348,0.468668 -0.752347,0.41797 -0.586399,-0.06208 -0.727252,0.06786 -0.638575,0.589101 0.137027,0.805439 0.901652,1.716152 1.475903,1.757886 0.229122,0.01666 0.924059,0.108338 1.544311,0.20376 0.72112,0.110932 1.418111,-0.01679 1.933099,-0.354219 0.980878,-0.642695 1.16112,-0.495582 1.163503,0.949649 0.0034,2.067486 0.316699,2.935414 1.234501,3.420068 1.327181,0.70083 1.879931,0.636706 2.846905,-0.330267 z m -1.785375,-1.598586 c 0,-0.566949 0.904293,-0.967773 1.179342,-0.522737 0.108699,0.175874 0.104637,0.470243 -0.009,0.65415 -0.308981,0.49994 -1.170318,0.403222 -1.170318,-0.131413 z m 5.850125,-1.208453 c -0.253882,-0.410795 0.666355,-0.811572 1.161218,-0.505727 0.195714,0.120957 0.269277,0.359992 0.163466,0.531194 -0.255208,0.412937 -1.063336,0.397399 -1.324684,-0.02548 z M 41.980364,69.930027 c -0.209025,-0.544716 0.07182,-0.930696 0.48939,-0.672622 0.379827,0.23475 0.371198,1.141494 -0.01086,1.141494 -0.164232,0 -0.379568,-0.210995 -0.478526,-0.468872 z m 11.477171,-0.260352 c 0,-0.150647 0.601878,-0.273905 1.337505,-0.273905 0.735628,0 1.337506,0.119741 1.337506,0.266095 0,0.146349 -0.601878,0.269606 -1.337506,0.273903 -0.735627,0.0043 -1.337505,-0.115446 -1.337505,-0.266093 z m 3.009388,0.06047 c 0,-0.183906 0.15935,-0.334377 0.354111,-0.334377 0.19476,0 0.261114,0.150471 0.147453,0.334377 -0.113661,0.183907 -0.273012,0.334377 -0.354111,0.334377 -0.08111,0 -0.147453,-0.15047 -0.147453,-0.334377 z m -7.35628,-0.521299 c 0,-0.286715 0.150469,-0.428303 0.334375,-0.314642 0.183909,0.113661 0.334378,0.348246 0.334378,0.5213 0,0.173053 -0.150469,0.314641 -0.334378,0.314641 -0.183906,0 -0.334375,-0.234585 -0.334375,-0.521299 z m 1.003129,0.186922 c 0,-0.183906 0.225704,-0.334375 0.501564,-0.334375 0.27586,0 0.501565,0.150469 0.501565,0.334375 0,0.183908 -0.225705,0.334377 -0.501565,0.334377 -0.27586,0 -0.501564,-0.150469 -0.501564,-0.334377 z m 2.006258,0 c 0,-0.183906 0.150469,-0.334375 0.334376,-0.334375 0.183907,0 0.334376,0.150469 0.334376,0.334375 0,0.183908 -0.150469,0.334377 -0.334376,0.334377 -0.183907,0 -0.334376,-0.150469 -0.334376,-0.334377 z M 47.438761,68.86634 c 0,-0.590484 0.719831,-0.487651 0.9265,0.132356 0.07279,0.218389 -0.105886,0.397072 -0.397072,0.397072 -0.291184,0 -0.529428,-0.238242 -0.529428,-0.529428 z m -3.176576,-0.139328 c -0.113661,-0.183907 0.02793,-0.334376 0.314643,-0.334376 0.286713,0 0.521297,0.150469 0.521297,0.334376 0,0.183907 -0.141588,0.334377 -0.314644,0.334377 -0.173054,0 -0.407635,-0.15047 -0.521296,-0.334377 z m 1.170318,0 c 0,-0.183907 0.225703,-0.334376 0.501565,-0.334376 0.27586,0 0.501564,0.150469 0.501564,0.334376 0,0.183907 -0.225704,0.334377 -0.501564,0.334377 -0.275862,0 -0.501565,-0.15047 -0.501565,-0.334377 z m -2.675011,-0.521299 c 0,-0.286714 0.150469,-0.428303 0.334376,-0.314641 0.183907,0.113661 0.334376,0.348246 0.334376,0.521299 0,0.173054 -0.150469,0.314641 -0.334376,0.314641 -0.183907,0 -0.334376,-0.234585 -0.334376,-0.521299 z m 2.963039,4.518475 c 0.0572,-1.616078 0.03019,-1.671418 -0.640752,-1.312344 -1.611895,0.862658 -5.052274,-0.522955 -5.474394,-2.204815 -0.212355,-0.846095 -0.262235,-0.860092 -2.294219,-0.643808 -1.492184,0.158829 -2.497214,0.07594 -3.56878,-0.294315 -0.820402,-0.283474 -1.533196,-0.473847 -1.58399,-0.423056 -0.05079,0.05079 0.345791,0.688137 0.881299,1.416311 1.347676,1.832558 4.10154,4.088049 5.25032,4.300164 0.526089,0.09714 1.407932,0.31499 1.959653,0.484111 0.551722,0.16912 1.994934,0.320426 3.207138,0.336235 l 2.204009,0.02872 z M 35.568399,71.067652 c -0.113661,-0.183907 -0.0473,-0.334376 0.147455,-0.334376 0.194761,0 0.354109,0.150469 0.354109,0.334376 0,0.183907 -0.06636,0.334375 -0.147453,0.334375 -0.0811,0 -0.24045,-0.150468 -0.354111,-0.334375 z m 26.51057,1.721754 c 0.05744,-0.172292 0.390256,-0.238508 0.739616,-0.147145 0.349363,0.09136 1.777348,-0.376023 3.173302,-1.038628 1.395958,-0.662603 2.602372,-1.204734 2.68092,-1.204734 0.07855,0 0.821242,-0.430242 1.650425,-0.956096 1.649049,-1.045798 1.712723,-1.531754 0.128323,-0.979428 -1.247101,0.434739 -7.273278,0.529943 -9.303363,0.146975 l -1.504695,-0.283856 -0.995986,1.955738 c -0.547792,1.075656 -1.048842,2.067051 -1.113446,2.203103 -0.0646,0.136047 0.33781,0.194352 0.894255,0.129563 0.621854,-0.0724 1.07704,0.05241 1.181221,0.323914 0.191144,0.498107 2.29604,0.370757 2.469428,-0.149406 z m -6.908724,-5.625598 c -0.291426,-0.501154 -0.356677,-0.515598 -0.365026,-0.0808 -0.01075,0.563116 0.340794,1.070138 0.577776,0.833155 0.07816,-0.07816 -0.01758,-0.416718 -0.21275,-0.752347 z m 6.010177,-0.997465 c 1.859648,-0.905915 2.999948,-1.813214 2.762246,-2.197828 -0.122531,-0.198258 -0.0729,-0.267842 0.110275,-0.154628 0.814841,0.503597 4.654405,-5.581889 4.811522,-7.625981 0.162567,-2.115021 -0.04123,-3.176713 -0.610766,-3.181695 -0.492878,-0.0043 -0.507196,-0.05442 -0.09079,-0.317732 0.4225,-0.26717 0.309596,-0.869381 -0.7767,-4.142632 -0.699088,-2.106511 -1.63628,-4.325041 -2.082653,-4.930066 -0.446373,-0.605022 -0.81532,-1.258896 -0.819877,-1.453051 -0.0046,-0.194155 -0.565755,-1.105355 -1.247097,-2.02489 l -1.238808,-1.671882 -0.23396,2.059056 c -0.148178,1.304099 -0.543308,2.549091 -1.077671,3.395579 -0.668846,1.059518 -0.80143,1.597075 -0.639713,2.593643 0.203957,1.256821 0.20414,1.256946 0.790082,0.533341 0.869282,-1.073519 1.371732,-0.87845 0.714111,0.277242 -0.313285,0.550556 -0.682459,1.001965 -0.82039,1.003129 -0.386204,0.0034 -0.296943,1.940375 0.100742,2.186155 0.483546,0.298846 1.979141,-1.38536 2.4577,-2.767646 0.216512,-0.62538 0.538208,-1.088462 0.714884,-1.029073 0.176673,0.05939 0.260161,0.258453 0.185528,0.442359 -0.07464,0.183908 -0.299541,0.823402 -0.499789,1.4211 -0.200251,0.597698 -0.561859,1.086723 -0.803573,1.086723 -0.241715,0 -0.345826,0.151534 -0.231362,0.336738 0.11446,0.185207 -0.05325,0.437033 -0.372696,0.559615 -0.922611,0.354041 -1.802212,1.385341 -1.802212,2.113034 0,0.932058 0.992805,0.844344 1.95776,-0.172965 0.733104,-0.772875 1.386004,-1.076301 1.386004,-0.644126 0,0.422273 -2.196555,2.153122 -2.556942,2.014828 -0.589937,-0.22638 -1.503132,1.853013 -1.052327,2.396201 0.198442,0.239106 0.301745,0.468722 0.22956,0.510255 -0.07218,0.04154 -0.432181,0.242379 -0.799995,0.446331 -0.367815,0.203951 -0.668753,0.529968 -0.668753,0.724482 0,0.194516 -0.112852,0.466514 -0.250782,0.604445 -0.370978,0.370976 -0.304487,0.880737 0.08359,0.640888 0.183908,-0.113661 0.334377,-0.0082 0.334377,0.234211 0,0.242473 -0.300939,0.628805 -0.668753,0.858509 -0.367815,0.229703 -0.668753,0.273081 -0.668753,0.0964 0,-0.176685 -0.390223,0.04041 -0.867169,0.482421 l -0.867164,0.803664 1.452323,1.381562 c 0.798782,0.759861 1.523292,1.370305 1.610025,1.356538 0.08673,-0.01377 0.17385,0.23707 0.193588,0.557413 0.125415,2.035401 0.129996,2.03836 1.854381,1.198337 z m -0.03224,-1.117465 c 0,-0.183906 -0.338556,-0.355728 -0.752346,-0.381827 -0.413791,-0.02608 -0.150469,-0.143828 0.585159,-0.26163 1.598254,-0.255934 1.575113,-0.263504 1.309601,0.428411 -0.227503,0.59286 -1.142414,0.765081 -1.142414,0.215046 z m -2.776056,-2.553152 c -0.467748,-0.467751 -0.208821,-0.658766 0.937,-0.691245 0.643675,-0.01826 1.170318,0.102402 1.170318,0.268107 0,0.165704 -0.2134,0.30128 -0.474217,0.30128 -0.26082,0 -0.682468,0.07991 -0.937003,0.177588 -0.25453,0.09767 -0.567774,0.0726 -0.696098,-0.05573 z m -1.738011,-0.79061 c -0.113661,-0.183908 0.112042,-0.334377 0.501565,-0.334377 0.389521,0 0.615226,0.150469 0.501564,0.334377 -0.113661,0.183907 -0.339366,0.334376 -0.501564,0.334376 -0.1622,0 -0.387903,-0.150469 -0.501565,-0.334376 z m 4.51408,0 c 0,-0.183908 0.15047,-0.334377 0.334377,-0.334377 0.183907,0 0.334377,0.150469 0.334377,0.334377 0,0.183907 -0.15047,0.334376 -0.334377,0.334376 -0.183907,0 -0.334377,-0.150469 -0.334377,-0.334376 z m 1.671883,-0.691294 c 0.949321,-0.768166 2.357219,-1.409841 2.587678,-1.179378 0.296753,0.296752 -0.291834,0.867542 -0.894586,0.867542 -0.334444,0 -0.795396,0.225704 -1.02434,0.501564 -0.228943,0.275861 -0.661159,0.498218 -0.960475,0.494129 -0.409454,-0.0055 -0.337216,-0.174936 0.291723,-0.683857 z m -3.343764,-1.820589 c 0,-0.347864 0.360395,-0.497505 1.198181,-0.497505 1.510783,0 1.392347,0.784932 -0.137151,0.908969 -0.754928,0.06122 -1.06103,-0.05748 -1.06103,-0.411464 z m 2.67501,-0.497505 c 0,-0.183907 0.150471,-0.334376 0.334377,-0.334376 0.183907,0 0.334377,0.150469 0.334377,0.334376 0,0.183907 -0.15047,0.334376 -0.334377,0.334376 -0.183906,0 -0.334377,-0.150469 -0.334377,-0.334376 z m 1.00313,-0.654658 c 0,-0.176154 0.687074,-0.722932 1.526826,-1.215061 1.111283,-0.651254 1.627022,-0.794582 1.894984,-0.526619 0.26796,0.26796 0.193681,0.431453 -0.272915,0.600717 -0.352589,0.127909 -1.040474,0.509015 -1.528631,0.846905 -0.973731,0.673986 -1.620264,0.791326 -1.620264,0.294058 z m -2.170872,-1.347434 c -0.191861,-0.310438 0.832109,-1.007294 1.480137,-1.007294 0.647481,0 0.370449,0.554986 -0.467641,0.936847 -0.481058,0.219185 -0.902448,0.248506 -1.012496,0.07045 z m 2.192142,-1.174483 c 0,-0.524477 0.845159,-1.504694 1.29737,-1.504694 0.224935,0 0.355054,0.161755 0.289152,0.359455 -0.0659,0.1977 -0.222431,0.310551 -0.347845,0.250781 -0.125418,-0.05977 -0.455428,0.192267 -0.733354,0.560082 -0.277927,0.367813 -0.505323,0.518282 -0.505323,0.334376 z m 1.867184,-2.093541 c -0.0865,-0.139957 0.04065,-0.525135 0.282541,-0.85595 0.491387,-0.672009 0.954781,-0.250715 0.636516,0.578682 -0.21688,0.565173 -0.658734,0.698476 -0.919057,0.277268 z m -1.219702,-2.587728 c 0,-0.275861 0.150469,-0.501564 0.334376,-0.501564 0.183907,0 0.334376,-0.234586 0.334376,-0.5213 0,-0.286714 0.144796,-0.431811 0.321767,-0.322437 0.201776,0.124707 0.181764,0.50614 -0.05367,1.022865 -0.417743,0.916839 -0.93685,1.0955 -0.936849,0.322436 z m 1.170317,-1.839071 c -0.272687,-0.441216 0.127132,-1.067352 0.52467,-0.82166 0.406137,0.251007 0.403498,1.156037 -0.0034,1.156037 -0.173052,0 -0.407637,-0.15047 -0.521298,-0.334377 z m -3.291927,-3.259898 c -0.313628,-0.507464 0.379714,-1.290763 0.784356,-0.886121 0.260379,0.260378 0.225594,0.476072 -0.123495,0.765789 -0.267283,0.221826 -0.564668,0.275974 -0.660861,0.120332 z m 2.121615,-0.231319 c 0,-0.539706 0.473577,-0.939394 0.766263,-0.646707 0.260941,0.260941 -0.09859,1.128538 -0.467661,1.128538 -0.16423,0 -0.298602,-0.216824 -0.298602,-0.481831 z m -1.337506,-1.663752 c 0,-0.291186 0.238243,-0.529428 0.529428,-0.529428 0.590485,0 0.487652,0.719832 -0.132356,0.9265 -0.218391,0.07279 -0.397072,-0.105886 -0.397072,-0.397072 z m 0.07664,-1.595253 c 0.206668,-0.620007 0.9265,-0.722842 0.9265,-0.132356 0,0.291184 -0.238242,0.529428 -0.529428,0.529428 -0.291188,0 -0.469868,-0.178682 -0.397072,-0.397072 z m -7.89492,22.913442 c -0.282899,-0.522003 -0.520376,-0.751118 -0.527738,-0.509143 -0.01758,0.5774 0.662142,1.838174 0.875812,1.624503 0.09144,-0.09144 -0.0652,-0.593358 -0.348079,-1.11536 z m 9.657356,0.889973 C 64.21112,65.868099 63.892423,65.71763 63.616563,65.71763 c -0.275861,0 -0.408572,0.150469 -0.294911,0.334376 0.113661,0.183908 0.43236,0.334377 0.70822,0.334377 0.275861,0 0.40857,-0.150469 0.294909,-0.334377 z M 50.968301,64.19436 c -0.12589,-0.671041 -0.312486,-1.136482 -0.414654,-1.03431 -0.102174,0.102163 -0.08277,0.734799 0.04312,1.405842 0.125889,0.671038 0.312485,1.13648 0.414655,1.034309 0.102173,-0.102174 0.08277,-0.734798 -0.04312,-1.405841 z m 18.144692,-0.06502 c 1.897114,-1.257192 5.920625,-5.146423 8.561549,-8.275815 3.012259,-3.569408 5.028767,-7.697368 5.717,-11.703172 0.251906,-1.466198 0.241366,-5.915677 -0.01709,-7.209323 -0.08963,-0.448642 -0.230335,-1.172727 -0.312679,-1.609082 -0.157039,-0.832199 -0.423457,-1.253215 -0.644086,-1.017834 -0.07183,0.07663 -0.921013,2.095426 -1.887079,4.486216 -0.96607,2.390792 -1.960589,4.467222 -2.210044,4.61429 -0.249455,0.147069 -0.453555,0.400393 -0.453555,0.56294 0,0.295573 -2.002456,3.702546 -2.361656,4.01812 -0.10467,0.09195 -0.69986,0.919536 -1.322653,1.83907 -0.622793,0.919535 -1.831764,2.424228 -2.686604,3.343764 -1.338598,1.439905 -2.297821,3.176576 -1.754527,3.176576 0.895836,0 8.125447,-7.240823 8.125447,-8.138042 0,-0.116227 0.470862,-0.97657 1.04636,-1.911871 1.323007,-2.150164 1.896697,-1.815764 1.276282,0.74393 -0.237625,0.980383 -0.45383,2.008219 -0.480452,2.284079 -0.08957,0.928158 -2.059739,4.433429 -3.866388,6.878998 -2.586361,3.501027 -5.373575,5.819686 -8.007093,6.661031 -2.113282,0.67514 -3.59888,1.807171 -2.929372,2.23219 0.908615,0.576805 2.377731,0.235924 4.206636,-0.976065 z M 42.57956,63.40985 c 1.176145,-0.901465 2.048426,-1.729047 1.938406,-1.83907 -0.435758,-0.435759 -1.415074,-0.161628 -1.901003,0.532133 -0.693253,0.989754 -1.092096,0.503842 -0.423725,-0.516223 0.697981,-1.065257 0.424825,-1.265074 -0.855946,-0.62614 -0.575114,0.286908 -1.448065,0.521647 -1.939884,0.521647 -1.045405,0 -3.352887,-1.496207 -2.662429,-1.726362 0.245847,-0.08195 0.610587,0.073 0.81053,0.344331 0.199945,0.27133 0.551622,0.429965 0.781506,0.352523 0.229883,-0.07745 0.41797,0.01123 0.41797,0.197085 0,0.433141 1.931114,0.196459 2.543447,-0.31173 0.63338,-0.525656 0.588747,-1.30794 -0.07463,-1.30794 -0.384573,0 -0.487557,-0.202691 -0.35688,-0.702407 0.250104,-0.956401 -0.433408,-2.381084 -1.03213,-2.151331 -0.281497,0.108024 -0.539776,-0.07406 -0.638033,-0.4498 -0.111916,-0.427965 -0.371185,-0.57739 -0.804998,-0.463944 -0.351951,0.09204 -0.639913,-6.67e-4 -0.639913,-0.206035 0,-0.205358 0.451409,-0.373375 1.003129,-0.373375 1.064035,0 1.252347,-0.285785 0.610947,-0.927182 -0.29999,-0.299992 -0.29999,-0.594518 0,-1.252929 0.215699,-0.47341 0.392183,-0.936062 0.392183,-1.02812 0,-0.09206 -0.755098,-0.922477 -1.677997,-1.845373 -0.922898,-0.922899 -1.596845,-1.809303 -1.49766,-1.969784 0.09919,-0.160484 -0.05798,-0.42516 -0.349256,-0.588165 -0.291275,-0.163005 -0.561992,-0.510806 -0.601594,-0.772898 -0.0396,-0.262087 -0.189505,-0.664609 -0.333117,-0.894493 -0.143612,-0.229884 -0.168119,-0.56844 -0.05445,-0.752347 0.29573,-0.478503 0.883462,-0.413653 0.768986,0.08484 -0.05294,0.230571 0.268298,1.020537 0.713879,1.755474 0.445581,0.73494 0.844725,1.521333 0.886985,1.747542 0.114711,0.614026 1.024074,1.427783 1.595526,1.427783 0.970782,0 0.760841,-1.455783 -0.378845,-2.627017 -1.387528,-1.425935 -1.85994,-2.279644 -1.413989,-2.555257 0.462772,-0.286008 1.004035,0.101012 1.004035,0.717923 0,0.581474 1.369765,1.808872 1.753803,1.571522 0.49453,-0.305637 0.24048,-1.574181 -0.519263,-2.592818 -0.974567,-1.306672 -1.805957,-3.093359 -2.452514,-5.270561 l -0.505365,-1.701745 -0.511437,0.962549 c -2.211407,4.161977 -2.981824,8.96576 -2.389363,14.898426 0.257377,2.57728 0.511102,3.481354 1.464593,5.218679 1.166415,2.125287 1.543788,3.458693 0.641088,2.265217 -0.908567,-1.201232 -0.500805,-0.161802 0.590434,1.505088 0.594751,0.90849 1.20292,1.651802 1.351488,1.651802 0.148566,0 0.59314,0.300939 0.987942,0.668753 0.394801,0.367815 0.920607,0.668752 1.168462,0.668752 0.24785,0 1.412936,-0.737563 2.589082,-1.639029 z m -2.582794,0.888765 c -0.07857,-0.23103 0.02144,-0.687965 0.222224,-1.015414 0.280718,-0.457804 0.24918,-0.669076 -0.1365,-0.914416 -0.27586,-0.17548 -0.351095,-0.31657 -0.167187,-0.313537 0.631898,0.01042 1.702417,1.052667 1.25391,1.220798 -0.229883,0.08618 -0.41797,0.360966 -0.41797,0.610648 0,0.617998 -0.577229,0.933147 -0.754477,0.411921 z m -0.583027,-4.285116 c 0,-0.194761 0.150469,-0.261115 0.334375,-0.147453 0.183907,0.113661 0.334376,0.273011 0.334376,0.354111 0,0.0811 -0.150469,0.147453 -0.334376,0.147453 -0.183906,0 -0.334375,-0.159351 -0.334375,-0.354111 z m 0,-1.258603 c 0,-0.182014 -0.30094,-0.25224 -0.668754,-0.156053 -0.373896,0.09778 -0.668752,0.01031 -0.668752,-0.198492 0,-0.205451 0.538877,-0.373376 1.198181,-0.373376 0.776301,0 1.151578,0.13981 1.065825,0.397072 -0.1675,0.502504 -0.9265,0.77354 -0.9265,0.330849 z M 36.905914,57.6926 c -0.272686,-0.441217 0.127133,-1.067353 0.52467,-0.821661 0.406138,0.251007 0.4035,1.156036 -0.0034,1.156036 -0.173052,0 -0.407636,-0.150469 -0.521298,-0.334375 z m -1.305219,-1.619643 c -0.115711,-0.187224 -0.04745,-0.441106 0.151694,-0.564183 0.514099,-0.317729 0.845795,0.117483 0.416627,0.546652 -0.240142,0.240142 -0.427174,0.245909 -0.568321,0.01753 z m 0.796949,-1.565015 c -0.232633,-0.280305 -0.329928,-0.602684 -0.216213,-0.716401 0.242855,-0.242854 1.226048,0.505027 1.226048,0.932613 0,0.460586 -0.544983,0.343902 -1.009835,-0.216212 z m -1.330799,-2.017911 c 0,-0.286714 0.152923,-0.426785 0.339831,-0.311271 0.186906,0.115514 0.25326,0.350099 0.147453,0.521299 -0.28664,0.463794 -0.487284,0.377314 -0.487284,-0.210028 z m 3.086017,0.124227 c 0.07279,-0.218391 0.31114,-0.456667 0.529655,-0.529504 0.244346,-0.08144 0.319075,0.07143 0.194108,0.397072 -0.233233,0.607799 -0.924377,0.734263 -0.723763,0.132432 z M 36.477927,51.20106 c -0.592188,-0.627832 -1.081491,-1.342561 -1.08734,-1.588288 -0.0059,-0.245722 -0.226733,-0.732257 -0.490853,-1.081189 -0.264121,-0.348932 -0.400925,-0.762722 -0.30401,-0.919535 0.343867,-0.556389 0.755209,-0.272148 0.960805,0.663921 0.114644,0.521972 0.728476,1.50037 1.364073,2.174223 1.109293,1.176057 1.448016,1.892386 0.894831,1.892386 -0.143439,0 -0.745316,-0.513683 -1.337506,-1.141518 z m 0.460274,-7.165651 c -0.115711,-0.187224 -0.04745,-0.441107 0.151694,-0.564184 0.514098,-0.317728 0.845792,0.117484 0.416627,0.546652 -0.240143,0.240142 -0.427174,0.24591 -0.568321,0.01753 z m -0.674333,-2.238326 c -0.245896,-0.97973 0.235077,-2.150546 0.62456,-1.520345 0.133236,0.215578 0.07499,0.593504 -0.129449,0.839829 -0.281316,0.338967 -0.24251,0.497442 0.159595,0.651743 0.292211,0.112133 0.43764,0.355408 0.323176,0.540616 -0.357893,0.579083 -0.756433,0.370483 -0.977882,-0.511843 z m 18.237623,21.019834 c -0.394175,-0.677851 -0.489363,-0.460887 -0.166696,0.379966 0.11467,0.298832 0.278933,0.472895 0.365025,0.386802 0.08609,-0.08609 -0.003,-0.431138 -0.198329,-0.766768 z M 35.186518,61.342379 c -0.379935,-0.838231 -0.92609,-1.329062 -1.950177,-1.752631 -0.838614,-0.346852 -2.511222,-1.669815 -4.075112,-3.223241 -2.037295,-2.023659 -2.97453,-3.280833 -4.040144,-5.419274 -1.58988,-3.190522 -1.971421,-4.451703 -1.445149,-4.776954 0.201545,-0.124566 0.702759,0.18626 1.11381,0.690721 1.615797,1.982975 5.070191,5.121743 5.986791,5.439778 0.198762,0.06897 0.643515,0.407522 0.98834,0.752347 0.890648,0.890648 1.300047,0.777445 1.208057,-0.334038 -0.05836,-0.7051 -0.524733,-1.314009 -1.751417,-2.286693 -2.965326,-2.351315 -5.078867,-4.649252 -6.280202,-6.828126 -1.274154,-2.310945 -2.915147,-6.810939 -2.915147,-7.994026 0,-1.390039 -0.874813,-0.09387 -1.503041,2.226993 -0.471462,1.74172 -0.556884,2.910837 -0.400376,5.479711 0.420347,6.899707 3.670053,12.615206 9.04845,15.914163 2.505292,1.536677 6.292459,3.526153 6.437082,3.381528 0.05828,-0.05828 -0.131514,-0.629894 -0.421765,-1.270258 z m 18.735372,0.418197 c 1.483779,-0.62759 0.782047,-0.849276 -1.190464,-0.376076 -1.439746,0.345392 -4.009539,0.53537 -4.373121,0.323295 -0.04597,-0.02682 -0.48867,-0.102434 -0.983768,-0.168034 -1.504048,-0.199289 -3.247032,-1.193673 -4.3289,-2.469667 -0.564398,-0.66567 -0.866631,-0.893814 -0.671629,-0.506988 1.17196,2.324838 4.393997,3.794292 8.07415,3.68232 1.379303,-0.04197 2.942482,-0.260148 3.473732,-0.48485 z m 14.642037,0.19532 c 1.036015,-0.538155 3.672643,-2.595634 4.169533,-3.253666 0.211005,-0.279438 0.71842,-0.884242 1.127586,-1.344009 2.505521,-2.815362 4.330729,-6.010375 5.157509,-9.028162 0.1839,-0.671253 0.08098,-0.605378 -0.522427,0.334377 -1.474017,2.29566 -3.743466,4.7288 -6.40857,6.870805 -1.92565,1.547691 -2.822976,2.516229 -3.113106,3.360164 -0.224194,0.652135 -0.632163,1.363017 -0.9066,1.579735 -0.603615,0.476667 -1.073401,1.898726 -0.627252,1.898726 0.175276,0 0.680773,-0.188087 1.123327,-0.41797 z M 50.903454,60.534797 c 0.218272,-0.568808 -0.06177,-1.504695 -0.450234,-1.504695 -0.141772,0 -0.800099,0.2266 -1.462947,0.503558 -0.662847,0.276954 -1.377146,0.465041 -1.587324,0.41797 -0.645417,-0.144547 -0.709955,0.683821 -0.06627,0.850674 1.433515,0.371596 3.377481,0.225798 3.566782,-0.267507 z m 1.290767,-0.369065 c -0.23836,-1.624996 -0.458513,-2.138759 -0.916492,-2.138759 -0.608559,0 -0.613841,0.317076 -0.01835,1.102265 0.250559,0.330385 0.373425,0.914787 0.273035,1.298679 -0.131019,0.501019 -0.05027,0.651966 0.286153,0.534927 0.25777,-0.08968 0.426821,-0.448377 0.375669,-0.797112 z m 5.193434,-1.190998 c 0.08823,-0.337362 0.266652,-0.613384 0.396513,-0.613384 0.129859,0 0.595538,-0.714729 1.034845,-1.588287 0.633609,-1.259927 0.826661,-2.260773 0.933806,-4.841095 0.140485,-3.383261 -0.09718,-5.608167 -0.599075,-5.608167 -0.160748,0 -0.141195,0.547157 0.04346,1.215903 0.748749,2.711745 -0.66578,9.395471 -2.413362,11.403243 -1.78775,2.053924 -1.900739,2.290004 -0.689093,1.439822 0.62288,-0.43706 1.204688,-1.070676 1.292909,-1.408035 z m -2.078327,0.375698 c 1.429479,-1.579556 0.420526,-4.006254 -1.659286,-3.990855 l -1.028438,0.0076 1.101015,0.542636 c 1.336067,0.658484 1.827644,1.489052 1.545838,2.61185 -0.288997,1.151468 -0.807782,1.064087 -0.807782,-0.136058 0,-1.006361 -1.44673,-2.543524 -2.045561,-2.173426 -0.411775,0.254491 -0.368553,1.273175 0.07274,1.714468 0.202297,0.202298 0.367813,0.89643 0.367813,1.542519 0,1.141665 0.02635,1.165516 0.937227,0.847985 0.515479,-0.179697 1.19787,-0.614724 1.516434,-0.966732 z m -8.73462,0.133941 c 0.176106,-0.458925 0.127178,-0.479609 -0.298601,-0.126247 -0.580223,0.481545 -0.640611,0.675105 -0.210617,0.675105 0.164233,0 0.393381,-0.246986 0.509218,-0.548858 z m -0.655106,-0.646296 c 0.936638,-1.429489 0.898105,-2.069114 -0.170489,-2.830017 -0.950678,-0.676945 -1.008947,-0.679969 -1.985517,-0.103096 -0.553352,0.326873 -1.006095,0.79287 -1.006095,1.03555 0,0.70603 1.061959,2.130767 1.815554,2.435769 0.380747,0.154099 0.71258,0.28972 0.737407,0.301376 0.02484,0.01168 0.298939,-0.366155 0.60914,-0.839582 z m 3.191051,-0.01415 c 0,-0.0705 -0.30094,-0.128189 -0.668753,-0.128189 -0.367815,0 -0.668753,0.136381 -0.668753,0.303072 0,0.166689 0.300938,0.224376 0.668753,0.128189 0.367813,-0.09618 0.668753,-0.232569 0.668753,-0.303072 z M 34.049549,58.612145 c -0.0078,-0.04597 -0.206429,-0.907504 -0.441412,-1.914508 -0.405515,-1.737798 -0.527902,-1.889728 -2.406463,-2.987419 -1.088571,-0.636078 -2.953193,-2.106825 -4.143609,-3.268325 -1.190407,-1.161503 -2.209377,-2.111821 -2.26437,-2.111821 -0.171749,0 2.541585,5.155856 2.991492,5.684399 0.631298,0.74164 4.334745,3.847274 5.108212,4.283641 0.624551,0.352356 1.18861,0.505565 1.15615,0.314033 z m 16.182926,-1.652748 c 1.088348,-1.313728 1.089926,-1.609574 0.01281,-2.394383 -0.836615,-0.609564 -0.863874,-0.60733 -1.654691,0.135601 -0.77466,0.727756 -0.823522,1.203958 -0.298428,2.908401 0.223214,0.72455 1.024022,0.456441 1.94033,-0.649619 z m -2.732403,-0.342365 c -0.239935,-0.239936 -0.395678,-0.259677 -0.395678,-0.05015 0,0.446319 0.395437,0.841756 0.618596,0.618597 0.09502,-0.09501 -0.0053,-0.350814 -0.222918,-0.56844 z m 10.089647,-0.34552 c 0.108708,-0.413792 0.05102,-0.802504 -0.128191,-0.863805 -0.179212,-0.0613 -0.325843,-0.500863 -0.325843,-0.976801 0,-0.995716 -0.859742,-2.089297 -1.640112,-2.086204 -0.431851,0.0016 -1.958811,1.999289 -1.630496,2.133027 1.180331,0.480813 2.169731,1.214398 2.430364,1.801988 0.424441,0.956895 1.041756,0.952979 1.294278,-0.0081 z M 43.091878,55.519164 c 0.347136,-0.418275 0.301685,-0.501565 -0.2737,-0.501565 -0.732325,0 -1.18836,0.43274 -0.831798,0.789303 0.336917,0.336917 0.656009,0.253861 1.105498,-0.287738 z m 4.263298,-0.832276 c 0.597698,-0.364423 1.086724,-0.748565 1.086724,-0.853653 0,-0.105082 -0.324201,0.03602 -0.720451,0.313561 -0.506383,0.354683 -0.897763,0.409725 -1.317212,0.185245 -0.647313,-0.346431 -1.168084,0.09732 -0.804536,0.685558 0.288824,0.467328 0.51714,0.424318 1.755475,-0.330711 z m 4.737,-0.125562 c -0.07664,-0.06704 -0.515498,-0.301046 -0.975265,-0.520008 -0.788216,-0.375387 -0.798886,-0.368426 -0.186872,0.121893 0.53266,0.426752 1.621008,0.799588 1.162137,0.398115 z m -8.192857,-0.594711 c 0.941344,-0.428905 2.663957,-2.818874 2.372113,-3.291086 -0.104051,-0.168373 -0.726692,0.05862 -1.383631,0.504434 -0.65694,0.44581 -1.705942,0.906524 -2.33112,1.02381 -1.120544,0.210215 -1.332473,0.577036 -0.933721,1.616161 0.239198,0.623347 1.107404,0.679292 2.276359,0.146681 z m -3.066237,-0.788086 c -0.08789,-0.459766 -0.217495,-0.83594 -0.288009,-0.83594 -0.07051,0 -0.128205,0.376174 -0.128205,0.83594 0,0.459769 0.129603,0.835942 0.288007,0.835942 0.158404,0 0.216098,-0.376173 0.128207,-0.835942 z m 7.109109,-0.169238 c 0.333889,-0.36894 0.545294,-0.707496 0.469795,-0.752346 -1.554987,-0.923705 -1.736754,-0.978045 -1.537863,-0.459738 0.110585,0.288179 0.05718,0.6129 -0.118707,0.721595 -0.480944,0.297241 -0.384241,1.161292 0.129965,1.161292 0.247359,0 0.722922,-0.301862 1.05681,-0.670803 z m 5.147018,-0.357909 c 0.731887,-0.989928 0.737411,-1.046253 0.146477,-1.494057 -0.868429,-0.65809 -1.15959,-0.593719 -2.223993,0.491694 l -0.94116,0.959734 0.764779,0.535671 c 1.069978,0.749441 1.386479,0.680205 2.253897,-0.493042 z m 3.7121,-0.810357 c -0.431932,-0.459769 -0.917957,-0.835942 -1.080063,-0.835942 -0.278368,0 1.421832,1.638849 1.723507,1.661316 0.07804,0.0059 -0.211514,-0.365608 -0.643444,-0.825374 z m 1.972927,-2.257041 c 0.04019,-1.511783 -0.217598,-1.559431 -1.454125,-0.268771 l -0.943824,0.985139 0.964856,1.024141 c 0.958477,1.017363 0.966298,1.019142 1.182311,0.268772 0.1196,-0.415452 0.232452,-1.31963 0.250782,-2.009281 z m 13.49449,-1.179455 c 4.216591,-5.878253 5.542761,-8.9106 6.028254,-13.783887 0.08244,-0.827583 0.344589,-2.734175 0.582535,-4.236875 0.490367,-3.09683 0.203829,-5.684674 -0.975591,-8.810951 -1.075775,-2.851555 -2.164836,-3.923725 -4.888338,-4.812536 -4.06755,-1.327436 -4.924993,-0.919198 -3.473024,1.653545 3.045096,5.395617 2.566965,11.709438 -1.326744,17.519892 -0.668816,0.998054 -1.84986,2.403835 -2.624541,3.123962 -1.360821,1.264996 -1.390714,1.336476 -0.882957,2.111413 0.289051,0.441146 0.682807,0.704895 0.875013,0.586108 0.195526,-0.120843 0.250658,-0.0561 0.12516,0.146951 -0.123368,0.199616 -0.0627,0.462817 0.134824,0.584892 0.465639,0.28778 3.08174,-1.437641 2.820546,-1.860263 -0.109369,-0.176955 -0.002,-0.322175 0.238854,-0.322707 0.446659,-0.001 1.307592,-1.380222 3.424265,-5.485748 1.256613,-2.437341 1.97824,-4.544575 1.556299,-4.544575 -0.138433,0 -0.251696,-0.219087 -0.251696,-0.486857 0,-0.267771 0.108892,-0.419557 0.241984,-0.337302 0.133088,0.08226 0.340532,-0.375773 0.460985,-1.017838 0.227539,-1.212879 0.652578,-1.514837 0.969558,-0.688798 0.101012,0.263227 0.351644,2.005254 0.556967,3.871174 0.311275,2.82882 0.284003,3.93004 -0.164115,6.626902 -0.541439,3.258495 -1.099342,5.433429 -1.472945,5.742148 -0.11128,0.09195 -0.615032,0.99477 -1.119445,2.006258 -0.504417,1.01149 -1.59532,2.665585 -2.424229,3.67577 -1.528055,1.862222 -2.021538,2.912204 -0.885525,1.884124 0.341873,-0.309388 1.455132,-1.724553 2.473906,-3.144802 z M 65.04926,41.085233 c -0.122605,-0.122602 -0.222918,-0.3784 -0.222918,-0.568439 0,-0.209521 0.155742,-0.189779 0.395677,0.05015 0.217625,0.217626 0.317939,0.473424 0.222919,0.568441 -0.09502,0.09502 -0.273076,0.07245 -0.395678,-0.05016 z m -23.477922,4.959143 c -0.311287,-0.359579 -0.867904,1.604692 -1.00354,3.54144 l -0.157939,2.255191 0.62932,-2.842198 c 0.346125,-1.56321 0.585595,-2.892704 0.532159,-2.954433 z m 2.060557,5.087219 c 1.228363,-0.582895 2.057394,-1.445777 0.935933,-0.974149 -0.352004,0.148038 -1.154293,0.36224 -1.782864,0.476004 -0.628571,0.113766 -1.20537,0.394388 -1.281778,0.623605 -0.192471,0.577415 0.766637,0.520886 2.128709,-0.12546 z m 7.269002,-0.27775 c 1.111745,-1.03033 1.119074,-1.258813 0.02706,-0.843631 -2.106842,0.801018 -4.004047,-0.01826 -4.35329,-1.879874 -0.293525,-1.564621 -0.89143,-1.453776 -0.626371,0.116121 0.252716,1.496769 2.097938,3.427358 3.275809,3.427358 0.435616,0 1.19017,-0.368987 1.676794,-0.819974 z m 5.725506,-1.711121 c 1.087756,-1.173708 1.092986,-1.497849 0.0077,-0.478293 -0.459768,0.431932 -0.835942,0.665441 -0.835942,0.51891 0,-0.14653 -0.188086,-0.110334 -0.41797,0.08044 -0.291923,0.242251 -0.733581,0.21414 -1.464551,-0.09322 -1.236303,-0.519855 -1.465932,-0.835553 -1.651859,-2.270984 -0.245175,-1.892868 -0.201971,-2.694629 0.2833,-5.257039 0.686154,-3.623152 0.585392,-8.162669 -0.198278,-8.932944 -0.584855,-0.574854 -0.597756,-0.559921 -0.351072,0.406347 0.331092,1.296927 0.289095,2.447788 -0.274557,7.523467 -0.471274,4.243832 -0.329201,7.169966 0.415707,8.561835 0.871114,1.627694 2.949904,1.60059 4.487505,-0.05851 z m 15.102573,-2.229059 c 1.324612,-2.180546 2.619131,-5.215303 2.961645,-6.943019 0.396458,-1.999813 0.515909,-8.310966 0.161447,-8.530035 -0.180847,-0.111769 -0.328374,-0.0063 -0.327839,0.234487 6.69e-4,0.240737 -0.858879,2.147748 -1.909803,4.237805 -1.792235,3.564348 -3.96019,6.388715 -5.614585,7.31456 -0.538119,0.301145 -0.502357,0.543622 0.486538,3.298974 0.587038,1.635665 1.135426,3.184563 1.218638,3.441996 0.2212,0.684331 1.596597,-0.705076 3.023959,-3.054768 z m -27.657067,2.598652 c 1.10744,-0.57268 1.654794,-2.519767 0.708339,-2.519767 -0.29504,0 -0.859538,-0.226306 -1.254437,-0.502902 -0.674226,-0.472249 -0.748437,-0.441882 -1.217411,0.498197 -0.274676,0.550609 -0.598891,1.454026 -0.720476,2.007597 -0.202048,0.919913 -0.145441,1.006496 0.658048,1.006496 0.483516,0 1.305185,-0.220328 1.825937,-0.489621 z m 6.719045,-0.356465 c 0.167298,-0.201582 0.216907,-0.904325 0.110237,-1.561641 -0.172434,-1.062592 -0.327124,-1.216742 -1.394871,-1.390013 -0.853422,-0.138492 -1.374694,-0.03764 -1.80143,0.348557 -0.776221,0.702474 -0.757037,1.153725 0.0951,2.237038 0.51211,0.651041 0.958208,0.86429 1.691187,0.808439 0.54758,-0.04172 1.13248,-0.240795 1.299782,-0.44238 z M 31.721587,44.9344 c -0.574699,-0.715134 -1.416432,-2.162151 -1.870521,-3.215594 -0.454087,-1.053439 -0.95735,-2.216287 -1.118361,-2.5841 -0.887892,-2.028304 -1.71743,-6.381881 -1.877245,-9.852226 -0.140398,-3.048701 0.131277,-4.73052 0.80019,-4.953488 0.225604,-0.0752 0.369879,-0.0098 0.32061,0.1454 -0.15882,0.500208 3.800299,8.255562 5.047193,9.886739 0.664097,0.868766 1.457752,1.922053 1.763676,2.340636 0.413516,0.565791 0.655403,0.665014 0.942776,0.386723 0.29019,-0.281024 -0.105669,-1.114553 -1.588019,-3.343765 -2.519989,-3.789651 -3.23393,-5.687173 -3.217046,-8.550312 0.01074,-1.816397 0.209779,-2.633751 1.058512,-4.34613 0.574928,-1.159955 0.928128,-2.226203 0.784892,-2.369441 -0.143238,-0.143237 -1.013436,-0.349613 -1.933773,-0.458613 -1.41505,-0.167593 -1.877867,-0.06907 -2.998365,0.638267 -1.079071,0.681188 -1.504851,1.283143 -2.293789,3.242911 -0.619107,1.537886 -0.940221,2.890192 -0.88969,3.746681 0.05737,0.972912 -0.03107,1.272117 -0.322989,1.091728 -0.953934,-0.589564 0.584702,9.127709 1.924162,12.15206 0.303503,0.685277 0.592391,1.439061 0.641967,1.675078 0.14947,0.711555 1.504288,3.174488 2.270177,4.126976 0.394937,0.491158 1.319944,1.773536 2.055573,2.849729 l 1.337504,1.956715 0.103737,-1.632864 c 0.08965,-1.411176 -0.03813,-1.809391 -0.941171,-2.93311 z m 13.498389,0.704354 c -0.760569,-0.325903 -1.485694,-0.758954 -1.611393,-0.962338 -0.250223,-0.40487 -0.851082,-0.172846 -0.851082,0.328651 0,0.419976 1.96485,1.218288 3.009388,1.222704 0.682993,0.003 0.582928,-0.104887 -0.546913,-0.589017 z m -1.697669,-3.28882 c 0.321146,-0.397088 0.317561,-0.448545 -0.01726,-0.247341 -0.498803,0.29977 -1.753928,2.667214 -1.743352,3.288348 0.0041,0.23721 0.310585,-0.23716 0.681212,-1.054154 0.370628,-0.816996 0.856351,-1.711078 1.07938,-1.986853 z m 6.791418,2.867475 c -0.349801,-0.219066 -0.941195,-0.736861 -1.314212,-1.150652 -0.777977,-0.863019 -1.226366,-0.963582 -1.226366,-0.275051 0,0.662791 1.613483,1.867469 2.469322,1.843675 0.68084,-0.01893 0.683503,-0.03454 0.07126,-0.417972 z M 47.438771,44.82094 c 0,-0.04804 -0.219739,-0.613263 -0.48831,-1.256041 -0.601256,-1.439009 -1.7451,-1.843585 -2.651133,-0.9377 -0.816822,0.816695 -0.512589,1.56184 0.869522,2.129692 0.90624,0.372334 2.269921,0.410813 2.269921,0.06405 z M 33.3705,43.147223 c 0.01241,-0.367815 0.418837,-1.602403 0.903199,-2.743532 l 0.880659,-2.074778 -1.324068,-1.603362 c -0.728236,-0.881848 -1.899784,-2.581413 -2.603437,-3.776808 -0.703653,-1.195395 -1.533211,-2.549619 -1.843465,-3.009387 -0.310252,-0.459768 -0.749302,-1.398105 -0.975666,-2.085195 -0.226364,-0.68709 -0.546681,-1.332757 -0.711816,-1.434817 -0.36793,-0.227393 -0.06904,5.151644 0.390691,7.030963 0.17995,0.735628 0.37546,1.638445 0.434465,2.006259 0.059,0.367814 0.145295,0.706369 0.191754,0.752346 0.04646,0.04597 0.114018,0.196447 0.15013,0.334377 0.03612,0.13793 0.221203,0.626956 0.411313,1.086723 0.19011,0.459767 0.612323,1.663522 0.938252,2.675012 0.325929,1.011487 1.050898,2.505923 1.611041,3.320965 0.894668,1.301794 1.049189,1.403391 1.271425,0.83594 0.139141,-0.355274 0.263127,-0.946893 0.275523,-1.314706 z m 17.356749,-0.106049 c -0.09989,-0.611253 -0.180032,-0.634458 -0.746676,-0.216205 -0.533003,0.393421 -0.564761,0.552905 -0.198082,0.994731 0.537734,0.647927 1.1019,0.183027 0.944758,-0.778526 z m -0.556203,-1.28328 c 0.661676,-0.598804 0.832818,-1.787244 0.257376,-1.787244 -0.194759,0 -0.27165,0.133419 -0.170869,0.296488 0.100785,0.163069 -0.0034,0.442276 -0.231048,0.620459 -0.823552,0.644009 -1.88324,0.669073 -2.871748,0.06792 -0.866946,-0.527224 -1.059153,-0.545013 -1.40365,-0.129915 -0.327296,0.394361 -0.19625,0.569045 0.727846,0.970227 1.504402,0.653114 2.944842,0.638311 3.692093,-0.03794 z m -3.828194,-2.956772 c 0.455227,-0.900523 0.384258,-0.866169 -0.689069,0.333587 -0.658109,0.735628 -1.202825,1.473677 -1.210479,1.640112 -0.02407,0.523427 1.368839,-0.923868 1.899548,-1.973699 z m 2.907356,1.635429 c 0.449813,-0.172609 0.404037,-0.350919 -0.307032,-1.195975 -0.459606,-0.546213 -0.839,-1.169659 -0.843089,-1.385435 -0.0099,-0.523814 -1.313116,1.15938 -1.322633,1.708313 -0.0041,0.235811 0.33112,0.564827 0.744911,0.731153 0.945202,0.379922 1.079025,0.390917 1.727843,0.141944 z m 1.365139,-1.534217 c -0.774735,-0.439324 -1.185473,-0.977282 -0.988953,-1.29526 0.07549,-0.122131 -0.154996,-0.486532 -0.512177,-0.809773 -0.633928,-0.573696 -0.642049,-0.562027 -0.340539,0.489284 0.410387,1.430935 0.936628,2.017468 1.799015,2.005143 0.700819,-0.01 0.701451,-0.01581 0.04265,-0.389394 z m 1.019924,-3.3766 c 0.07403,-0.773668 -0.0085,-1.632374 -0.183482,-1.908235 -0.282272,-0.445086 -0.422315,-0.443792 -1.243653,0.01149 -1.249191,0.69245 -1.30175,1.350095 -0.242072,3.028736 0.767133,1.21522 0.940621,1.336064 1.214772,0.84618 0.175905,-0.314324 0.380404,-1.204504 0.454435,-1.978175 z m -4.171556,1.38892 c 0.582979,-1.089305 0.985421,-2.672342 0.622318,-2.447932 -0.172087,0.106352 -0.312886,0.41767 -0.312886,0.691809 0,0.27414 -0.229569,0.942372 -0.510151,1.48496 -0.280582,0.542589 -0.436348,0.986524 -0.34614,0.986524 0.0902,0 0.336293,-0.32191 0.546859,-0.715361 z m 3.542153,-4.881593 c 1.960823,-2.394462 1.728307,-4.332424 -0.704455,-5.871506 -1.637039,-1.035667 -2.422309,-0.999325 -4.636342,0.21457 -1.022446,0.560578 -1.236059,0.841231 -1.088314,1.429883 0.151639,0.60418 0.06702,0.701861 -0.483342,0.557938 -0.541101,-0.1415 -0.667161,-0.0091 -0.667161,0.700473 0,0.481216 0.159351,0.87494 0.354108,0.87494 0.194761,0 0.264883,0.144375 0.155826,0.320835 -0.375227,0.607131 2.132315,2.976076 3.272996,3.092091 1.625263,0.1653 2.961114,-0.298865 3.796684,-1.319224 z M 46.447406,30.96447 c -0.90155,-1.684562 -0.144083,-3.365745 1.516459,-3.365745 0.643675,0 1.551473,0.249743 2.017333,0.554987 0.675413,0.442548 0.803241,0.730459 0.630937,1.4211 -0.349603,1.401313 -1.143229,2.036429 -2.54467,2.036429 -0.917265,0 -1.370827,-0.181073 -1.620059,-0.646771 z m 3.329993,-1.02136 c 0.284828,-0.532209 0.199582,-0.746722 -0.471481,-1.186419 -1.056241,-0.692075 -2.201524,-0.166323 -2.201524,1.010629 0,1.588032 1.85201,1.709829 2.673005,0.17579 z m -6.217671,2.570074 c 0.485461,-0.354978 0.512748,-0.497616 0.147503,-0.770956 -0.312408,-0.233793 -0.785224,-0.161438 -1.560849,0.238858 -0.902522,0.465786 -0.997257,0.604077 -0.501565,0.732166 1.056366,0.272972 1.303265,0.247176 1.914911,-0.200068 z m -3.310049,-3.7526 c 0.551721,-0.143983 1.341685,-0.227832 1.755476,-0.18633 0.41379,0.04149 0.752346,-0.07348 0.752346,-0.255503 0,-0.182027 0.08427,-0.55053 0.187239,-0.818895 0.134568,-0.350681 -0.14499,-0.550265 -0.993814,-0.709505 -1.972825,-0.370105 -3.728467,0.891783 -4.381153,3.149005 l -0.241716,0.83594 0.959247,-0.876462 c 0.527585,-0.482054 1.410654,-0.994268 1.962375,-1.13825 z m 2.754061,65.147664 c -1.152075,-0.300458 -1.864028,-2.535141 -1.381145,-4.335133 0.306186,-1.141333 2.674044,-2.852207 3.999468,-2.889777 1.026801,-0.02912 1.147955,-0.131417 1.147955,-0.969401 0,-0.515271 0.002,-1.010997 0.0043,-1.10161 0.0024,-0.0906 0.3107,-0.710192 0.685137,-1.376848 0.374439,-0.666657 0.635807,-1.251133 0.580816,-1.298841 -0.05499,-0.04771 -0.72953,-0.404165 -1.498983,-0.792122 -1.303453,-0.6572 -2.61688,-1.992743 -2.285569,-2.324053 0.07997,-0.07996 0.624207,0.257537 1.209445,0.749983 0.585239,0.492447 1.281922,0.811759 1.548186,0.709584 0.266262,-0.102174 0.734221,0.107882 1.039905,0.466785 0.305682,0.358908 1.13288,0.754581 1.83821,0.879277 l 1.28242,0.22672 -0.649579,-1.29647 c -0.769012,-1.534845 -1.164051,-3.712464 -0.722929,-3.98509 0.1718,-0.106179 0.312362,0.06169 0.312362,0.373046 0,1.318316 0.886565,3.34703 1.90987,4.370336 1.243837,1.24384 1.325418,1.456185 0.559452,1.456185 -0.863774,0 -2.803703,2.345166 -2.803703,3.389373 0,1.004617 0.60134,1.607632 0.984662,0.9874 0.173404,-0.280576 0.491647,-0.294933 1.132933,-0.05111 1.305062,0.496185 1.229503,2.018259 -0.158155,3.185895 -0.577472,0.485912 -1.266889,0.800226 -1.532043,0.698479 -0.265151,-0.101751 -0.599564,-0.184997 -0.743141,-0.184997 -0.143578,0 -0.829073,-0.451409 -1.523326,-1.003129 -1.469262,-1.167627 -2.572624,-1.272707 -3.510951,-0.334377 -0.735074,0.735069 -0.822292,1.245625 -0.342458,2.004629 0.271018,0.428701 0.386488,0.404877 0.810384,-0.167187 0.456721,-0.616373 0.53633,-0.625772 1.046415,-0.123536 0.503299,0.495556 0.506288,0.632149 0.03382,1.545788 -0.431941,0.835284 -1.53109,1.518604 -2.216919,1.37822 -0.09195,-0.01883 -0.432555,-0.103433 -0.756891,-0.188014 z m 1.782002,-0.783524 c 0.355723,-0.190377 0.637231,-0.679403 0.625575,-1.086724 l -0.02121,-0.740584 -0.30782,0.766984 c -0.258771,0.644767 -0.415232,0.709493 -0.981932,0.406204 -0.370764,-0.198426 -0.691444,-0.6188 -0.71262,-0.934168 -0.135483,-2.017544 0.589612,-3.001035 2.429471,-3.29524 1.382746,-0.221109 1.43683,-0.789108 0.07514,-0.789108 -2.803696,0 -4.90269,3.582191 -3.134859,5.350022 0.75854,0.758543 1.109418,0.814351 2.02824,0.322614 z m 6.082673,-3.021419 c 0.911049,-0.415101 1.698626,-1.529715 1.410407,-1.996065 -0.347969,-0.563024 -1.077673,-0.344646 -1.266952,0.379162 -0.172231,0.658611 -0.240992,0.635074 -1.164617,-0.398643 -0.883593,-0.988908 -0.949241,-1.21571 -0.657611,-2.271897 0.178183,-0.645327 0.702568,-1.669692 1.165305,-2.276369 0.806415,-1.057263 0.813066,-1.103049 0.160247,-1.103049 -0.374602,0 -0.901211,-0.08447 -1.170244,-0.187706 -0.334481,-0.12835 -0.713189,0.275087 -1.197666,1.275889 -1.164246,2.405005 -0.821523,4.753154 0.900893,6.172478 1.075723,0.886425 0.867994,0.840071 1.820238,0.4062 z M 47.892114,23.418754 c -0.02652,-0.459623 0.08633,-0.835678 0.250783,-0.835678 0.164449,0 0.299003,0.225703 0.299003,0.501564 0,0.275861 0.01127,0.610654 0.02507,0.743988 0.01377,0.133333 -0.09906,0.283683 -0.250781,0.334114 -0.151724,0.05042 -0.297561,-0.284364 -0.324081,-0.743988 z m 0.09623,-1.426751 c -0.243064,-0.393285 1.080975,-3.099813 1.856538,-3.79504 0.331801,-0.297433 0.603276,-0.711223 0.603276,-0.919536 0,-0.208312 0.159349,-0.37875 0.354111,-0.37875 0.194761,0 0.269346,-0.137148 0.16575,-0.304773 -0.285901,-0.462598 0.914947,-2.367196 1.486397,-2.357489 0.445834,0.0076 0.445834,0.05392 0,0.417067 -0.27586,0.224699 -0.549551,0.633704 -0.608204,0.9089 -0.147253,0.690918 -1.619592,3.181947 -2.258117,3.820471 -0.288865,0.288867 -0.43576,0.525211 -0.326432,0.525211 0.109332,0 -0.02303,0.338558 -0.294174,0.752347 -0.271125,0.413792 -0.487762,0.877739 -0.481409,1.030994 0.01832,0.442293 -0.293699,0.630737 -0.497736,0.300598 z m 4.331171,-8.384849 c -0.115711,-0.187223 -0.04745,-0.441105 0.151693,-0.564183 0.514097,-0.317729 0.845796,0.117484 0.416627,0.546651 -0.240143,0.240142 -0.427174,0.245912 -0.56832,0.01753 z m 0.134901,-1.389745 c 0,-0.183906 0.225704,-0.334377 0.501564,-0.334377 0.275861,0 0.501565,0.150471 0.501565,0.334377 0,0.183906 -0.225704,0.334376 -0.501565,0.334376 -0.27586,0 -0.501564,-0.15047 -0.501564,-0.334376 z m 0.548203,-1.235138 c -0.376567,-0.376569 -0.229346,-0.77112 0.287738,-0.77112 0.27586,0 0.501565,0.141589 0.501565,0.314642 0,0.421641 -0.522159,0.723622 -0.789303,0.456478 z m -0.04664,-1.4398729 c -0.113661,-0.1839073 0.02793,-0.3343764 0.314642,-0.3343764 0.286715,0 0.5213,0.1504691 0.5213,0.3343764 0,0.1839072 -0.141589,0.3343763 -0.314643,0.3343763 -0.173053,0 -0.407637,-0.1504691 -0.521299,-0.3343763 z"
     style="fill:#000000;stroke-width:0.33437636" />
</svg>
