<?xml version="1.0" encoding="UTF-8" standalone="no"?>
<svg
   xmlns:dc="http://purl.org/dc/elements/1.1/"
   xmlns:cc="http://creativecommons.org/ns#"
   xmlns:rdf="http://www.w3.org/1999/02/22-rdf-syntax-ns#"
   xmlns:svg="http://www.w3.org/2000/svg"
   xmlns="http://www.w3.org/2000/svg"
   id="svgAY5"
   version="1.1"
   viewBox="0 0 100 100"
   height="100"
   width="100">
  <defs
     id="defs6029" />
  <metadata
     id="metadata6032">
    <rdf:RDF>
      <cc:Work
         rdf:about="">
        <dc:format>image/svg+xml</dc:format>
        <dc:type
           rdf:resource="http://purl.org/dc/dcmitype/StillImage" />
        <dc:title></dc:title>
      </cc:Work>
    </rdf:RDF>
  </metadata>
  <path
     id="pathAY5"
     d="m 62.936483,19.224393 c -0.638107,0.03252 -1.335044,0.337842 -1.960516,0.925446 l -0.822856,0.772964 -0.869935,-0.817232 c -0.680829,-0.639605 -1.108872,-0.765111 -1.96895,-0.576209 -3.206438,0.704255 -4.21851,5.936428 -2.183973,11.290892 1.322365,3.480179 0.703062,9.374206 -1.299985,12.37445 l -1.020313,1.527657 -0.264214,-1.512197 c -0.145519,-0.831777 -0.441243,-1.841929 -0.657017,-2.245109 -0.298989,-0.558663 -0.261498,-0.986769 0.158104,-1.798195 0.933333,-1.80487 0.584024,-4.663109 -0.672477,-5.502097 -0.672326,-0.448923 -2.534881,-0.302743 -3.341312,0.262103 -0.698696,0.489387 -0.906358,0.457578 -2.328729,-0.355563 -1.986379,-1.135588 -3.262762,-1.132209 -5.217506,0.01335 -1.799048,1.054313 -1.978122,1.409882 -0.57129,1.134151 1.05202,-0.206193 4.147237,0.325166 5.246316,0.900852 0.616888,0.323118 0.621008,0.388235 0.06043,1.007664 -0.745308,0.82356 -3.821619,1.592372 -5.237884,1.309121 -1.647009,-0.329401 -1.246858,0.320043 0.71745,1.165067 2.106869,0.90635 2.855527,0.942997 4.575947,0.224159 1.590685,-0.66463 1.923275,-0.674025 1.923275,-0.05551 0,0.266148 0.325974,0.779128 0.724477,1.13977 0.545751,0.493884 0.678926,0.951356 0.53967,1.85441 -0.10169,0.659421 -0.269456,1.743966 -0.37243,2.410242 l -0.186915,1.211446 -2.47981,0.177781 c -1.942175,0.138962 -2.973557,0.448556 -4.759348,1.428578 -1.254021,0.688193 -2.482619,1.183105 -2.729967,1.099716 -0.247349,-0.08339 -0.449726,0.04687 -0.449726,0.28951 0,0.674428 -5.181118,0.20729 -8.442872,-0.761017 -3.370274,-1.000525 -5.65694,-2.923408 -6.287709,-5.287074 -0.224428,-0.840985 -0.534869,-1.529063 -0.690046,-1.529063 -0.351166,0 -1.683706,2.710494 -1.997057,4.062276 -0.154446,0.666304 -0.380342,0.913854 -0.671772,0.735018 C 13.729014,42.623209 8.9009659,36.677681 8.5388099,32.730176 8.3797119,30.995981 8.3951179,31.035178 8.0096815,31.428784 c -0.1840809,0.187985 -0.5821558,2.01851 -0.8853958,4.067903 -0.483029,3.264446 -0.4884685,4.057352 -0.040752,6.397327 0.2810659,1.469016 1.0412631,3.677636 1.6892762,4.90832 2.2204391,4.216994 6.8961091,8.02475 10.9781941,8.940381 1.564058,0.350828 1.931633,0.588541 2.230352,1.445442 0.351382,1.007966 0.334117,1.026122 -0.973232,1.019609 -2.527511,-0.01259 -7.44303,-1.089564 -9.22427,-2.020947 -2.8398401,-1.484913 -4.4131341,-2.558341 -5.0186428,-3.422825 -0.8859643,-1.26489 -1.020857,-0.592641 -0.4096703,2.042732 0.7226925,3.116198 2.426871,6.307236 4.2470851,7.95169 1.997654,1.804762 5.595078,3.395736 8.685302,3.840926 2.357329,0.339611 2.867781,0.294895 5.190101,-0.451832 1.416491,-0.455458 2.575375,-0.969515 2.575375,-1.142582 0,-0.430821 -0.07974,-0.417186 -2.619644,0.444104 C 19.37858,67.163266 12.549566,64.820579 9.4473949,60.308121 8.2125283,58.511869 6.694906,54.707686 7.0652626,54.337326 c 0.1078266,-0.107825 0.48027,0.04805 0.8277732,0.346429 2.3794952,2.043139 6.7894002,3.504506 12.3245562,4.084762 2.536215,0.265878 3.238016,0.618124 3.238016,1.623225 0,1.698713 -7.215611,1.636885 -10.002856,-0.08573 -0.653579,-0.403932 -1.271446,-0.651823 -1.373062,-0.55021 -0.358351,0.358351 1.507207,1.798655 3.648387,2.8164 3.063422,1.45611 5.721467,1.927784 8.319902,1.477063 2.026542,-0.351519 2.17653,-0.322545 3.984279,0.767343 1.03325,0.622944 1.883229,1.261151 1.88884,1.418037 0.0057,0.156884 -0.710723,1.056687 -1.592304,1.999165 -1.169442,1.250227 -2.604434,2.194569 -5.306748,3.492391 -3.37534,1.621055 -3.932094,1.778519 -6.277872,1.778519 -1.415753,0 -2.508678,0.106449 -2.428511,0.236105 0.303678,0.491178 3.275155,2.027615 5.002481,2.586619 0.989394,0.320189 3.094103,0.809135 4.677135,1.087067 1.583028,0.277934 3.202036,0.452166 3.597793,0.387184 0.395758,-0.06498 1.367163,-0.218718 2.158678,-0.341508 3.070869,-0.476395 6.242061,-1.662476 8.206767,-3.069369 1.767542,-1.265708 2.206893,-1.428125 3.301962,-1.222688 0.74698,0.140134 1.263444,0.447438 1.263444,0.752586 0,0.28379 0.397584,0.91336 0.883286,1.399065 0.994054,0.994055 2.560977,1.158146 3.625904,0.379454 0.610343,-0.446295 0.806143,-0.405205 1.715276,0.35978 1.328422,1.117931 2.907059,1.118673 4.023629,0.0022 0.842487,-0.842487 0.875918,-0.846478 1.479171,-0.179889 0.925483,1.022646 2.536107,0.864938 3.770658,-0.369618 0.578417,-0.578413 1.051933,-1.296921 1.051933,-1.59652 0,-0.421035 0.284291,-0.498578 1.252201,-0.341509 0.859755,0.139518 1.549914,0.0081 2.201543,-0.418806 0.842678,-0.552143 0.929288,-0.797064 0.772963,-2.183975 -0.226561,-2.010038 0.257666,-2.204957 2.706779,-1.089878 3.125766,1.42316 4.865131,1.748818 8.05358,1.507981 6.529473,-0.493228 9.814227,-2.418989 13.761563,-8.068368 0.457312,-0.654496 0.75586,-1.265787 0.663344,-1.358307 -0.09251,-0.09252 -0.960263,0.181714 -1.928192,0.609937 -1.432622,0.633787 -2.500538,0.786093 -5.742423,0.818618 -3.469093,0.0348 -4.211126,-0.06724 -5.756474,-0.79545 -3.228582,-1.521381 -3.970069,-3.82528 -0.862208,-2.678671 0.913013,0.336848 2.6948,0.596559 4.12552,0.600803 2.214336,0.0065 2.866025,-0.164344 5.396693,-1.412415 1.609725,-0.793881 3.465763,-2.106577 4.809242,-3.295638 0.01209,0.0074 0.0203,0.01354 0.03303,0.02108 0.02245,-0.02325 0.04615,-0.04533 0.06816,-0.06886 0.03519,-0.03711 0.07261,-0.07174 0.109621,-0.106809 -0.0037,-0.01051 -0.0011,-0.02165 -0.0037,-0.03232 0.278437,-0.254058 0.530445,-0.500208 0.749072,-0.732911 0.02001,-0.01345 0.03987,-0.02705 0.05973,-0.04076 0.0017,-0.0015 0.0032,-0.0032 0.0049,-0.0049 0.06075,-0.06017 0.120066,-0.121598 0.180592,-0.181999 0.015,-0.01547 0.03051,-0.0304 0.04566,-0.04567 0.04306,-0.06992 0.08559,-0.140155 0.128593,-0.210106 0.232417,-0.293972 0.391687,-0.553045 0.446209,-0.754693 0.04737,-0.08207 0.09592,-0.163444 0.142646,-0.245943 0.151341,-0.26669 0.301538,-0.534101 0.45113,-0.801774 0.16025,-0.28936 0.32066,-0.578503 0.47713,-0.869936 0.168724,-0.316606 0.33086,-0.636832 0.47502,-0.965503 0.147298,-0.335742 0.285395,-0.67558 0.410376,-1.020312 0.127235,-0.352036 0.250182,-0.705673 0.359077,-1.06388 0.109254,-0.362849 0.21309,-0.727624 0.301455,-1.096201 0.08947,-0.372624 0.172259,-0.746978 0.231889,-1.125718 0.06118,-0.379541 0.11899,-0.759829 0.162321,-1.141879 0.04175,-0.383113 0.07908,-0.766843 0.100488,-1.151715 0.02178,-0.381541 0.0407,-0.763332 0.0506,-1.145392 0.0097,-0.397445 0.01982,-0.794995 0.0281,-1.192473 0.0073,-0.393168 0.0095,-0.78592 0.01475,-1.179121 0.0046,-0.358681 0.0095,-0.717825 0.01194,-1.076528 7.2e-5,-0.297586 -0.0011,-0.595793 -0.03654,-0.891718 -0.03004,-0.211045 -0.061,-0.424645 -0.137728,-0.624695 -0.08473,-0.165054 -0.204283,-0.254987 -0.326752,-0.264214 -0.122472,-0.0093 -0.248234,0.06249 -0.345726,0.219944 -0.107563,0.211486 -0.163563,0.441726 -0.228377,0.668965 -0.07447,0.258062 -0.15154,0.514775 -0.23259,0.770855 -0.08305,0.259599 -0.168446,0.518829 -0.261402,0.775072 -0.09309,0.252199 -0.189269,0.503308 -0.295134,0.750478 -0.104315,0.244275 -0.212241,0.487151 -0.330264,0.72518 -0.11088,0.226995 -0.228258,0.450326 -0.348536,0.67248 -0.113906,0.210304 -0.231198,0.419081 -0.35697,0.622587 -0.12243,0.202679 -0.246769,0.404145 -0.380862,0.599398 -0.122238,0.184022 -0.245481,0.367272 -0.372426,0.548103 -0.10252,0.147152 -0.207212,0.292566 -0.319024,0.432858 -0.100253,0.123859 -0.202167,0.246661 -0.308483,0.365401 -0.02971,0.03303 -0.06311,0.06244 -0.09345,0.09487 -0.400003,0.308968 -0.691787,0.527645 -1.032963,0.788423 -0.04443,0.02329 -0.08826,0.04778 -0.132807,0.07098 -0.0089,0.01712 -0.01789,0.03416 -0.02671,0.0513 -2.675519,2.040446 -3.763293,2.753226 -5.541446,3.65682 -2.893797,1.47052 -6.115549,1.900516 -6.115549,0.815828 0,-0.495312 0.624871,-0.956979 2.265488,-1.67171 3.171088,-1.381475 4.600622,-2.68865 5.939171,-5.433935 2.35603,-4.832083 2.410213,-8.604795 0.190431,-13.16709 -1.163829,-2.392008 -2.66552,-4.266477 -3.448123,-4.304003 -0.148409,-0.0071 -0.269835,0.766719 -0.269835,1.720197 0,2.044392 -0.675536,4.477229 -2.12565,7.655857 -0.996271,2.183804 -3.352939,5.361558 -3.975843,5.361558 -0.15866,0 -0.906904,-0.971404 -1.663279,-2.158677 -0.756379,-1.187272 -1.504695,-2.158678 -1.662573,-2.158678 -0.157879,0 -0.286701,0.634495 -0.286701,1.409606 0,2.286275 -1.140614,4.376049 -3.604822,6.60603 -2.185887,1.978115 -4.69614,3.13753 -6.792244,3.13753 -0.697764,0 -0.667806,-0.110264 0.415293,-1.538199 1.355246,-1.786735 2.385426,-4.069758 3.479742,-7.714178 0.607545,-2.023323 1.286066,-3.234456 3.072179,-5.483126 2.407323,-3.03075 2.869782,-4.040662 3.256988,-7.108456 0.54109,-4.286984 -2.210333,-6.94477 -4.954697,-4.786049 l -0.906476,0.713936 -0.444805,-1.073716 c -0.347744,-0.83971 -1.070462,-1.248373 -1.890888,-1.206552 z m 0.09697,0.49329 c 0.575313,0 1.377958,1.070462 1.616198,2.155165 0.224235,1.020939 0.900151,1.53958 0.900151,0.690747 0,-0.67282 1.573781,-1.742105 2.582401,-1.754625 0.630892,-0.0078 1.23234,0.329449 1.744087,0.977445 0.697059,0.88265 0.756313,1.261108 0.544587,3.50785 -0.271421,2.880169 -1.062205,4.636287 -3.238717,7.19559 -1.872727,2.202096 -2.831199,4.061495 -3.431959,6.655923 -0.586746,2.53391 -2.230584,5.820901 -3.499418,6.997431 -1.698645,1.575074 -2.064889,1.138465 -0.626803,-0.746963 1.2588,-1.650373 2.954162,-5.53953 3.650497,-8.374713 0.72783,-2.963415 1.361207,-4.271221 2.655483,-5.481017 0.628675,-0.58764 1.244863,-1.752676 1.617601,-3.058126 0.331174,-1.159864 0.935712,-2.473064 1.343552,-2.918291 0.642691,-0.701613 0.661235,-0.809504 0.139134,-0.809504 -0.331311,0 -0.60221,0.134907 -0.60221,0.299348 0,0.164441 -0.42792,0.527592 -0.950746,0.807396 -1.919613,1.027347 -3.212146,3.853731 -4.625134,10.11318 -1.109665,4.91575 -3.793901,10.366851 -5.105074,10.366851 -0.660131,0 -0.588505,-0.623815 0.20097,-1.743385 1.875674,-2.659931 3.620381,-7.466809 4.197195,-11.565645 0.125123,-0.889122 0.415867,-1.733139 0.646478,-1.875494 0.394631,-0.243603 0.453785,-1.790914 0.248753,-6.492196 -0.04099,-0.939923 -0.125362,-1.708953 -0.187619,-1.708953 -0.06225,0 -0.566364,0.76903 -1.120095,1.708953 -0.776613,1.318261 -1.001345,2.145884 -0.983069,3.620282 0.01304,1.05125 0.207792,2.095935 0.432859,2.321 1.098605,1.098607 -0.411213,7.652646 -2.68078,11.635215 -1.891553,3.319249 -2.175102,3.656557 -2.661806,3.169855 -0.233614,-0.233616 -0.06001,-0.789315 0.506644,-1.623224 1.682078,-2.475399 3.09996,-6.771429 3.331474,-10.093501 0.196538,-2.820199 0.140768,-3.236989 -0.59729,-4.431195 -0.618594,-1.000885 -0.769515,-1.658993 -0.625399,-2.733478 0.104398,-0.778333 0.06929,-1.415229 -0.078,-1.415229 -0.45134,0 -1.144265,1.856433 -1.336525,3.580932 -0.155028,1.390582 -0.01596,1.894093 0.925449,3.357474 0.609085,0.946798 1.107447,2.125578 1.107447,2.619645 0,1.285759 -1.279222,4.946878 -2.788291,7.981203 -1.079141,2.169862 -1.444576,2.608401 -2.174138,2.608401 -0.874716,0 -0.874922,-0.0026 -0.225563,-0.989393 1.177788,-1.789848 1.612101,-2.88864 2.135487,-5.398801 0.575935,-2.762205 0.266902,-7.003284 -0.701289,-9.621996 -0.690097,-1.866536 -0.719411,-6.031488 -0.0513,-7.323481 0.748293,-1.447042 2.215296,-2.032348 3.304068,-1.318956 0.467249,0.306151 0.950184,0.959571 1.073718,1.451764 0.264516,1.053928 0.866421,1.197905 0.866421,0.207298 0,-0.654712 1.873574,-2.550782 2.520565,-2.550782 z m -0.983772,5.833769 c 0.07959,0.0093 0.156291,0.169867 0.276159,0.462371 0.162178,0.395758 0.303941,1.448113 0.314808,2.338568 0.02724,2.230416 -0.47204,2.938495 -1.001342,1.420146 -0.510411,-1.464158 -0.512075,-2.186051 -0.0077,-3.464987 0.208752,-0.529349 0.31577,-0.76802 0.418104,-0.756098 z m 5.006696,1.587387 c 0.13711,0.0073 0.08393,0.362288 -0.122971,1.283119 -0.190172,0.846384 -0.604496,1.824924 -0.920529,2.174136 -0.641883,0.709277 -1.182635,0.828413 -1.182635,0.2607 0,-0.592168 1.332673,-3.047659 1.917653,-3.533147 0.144459,-0.119892 0.24616,-0.188131 0.308482,-0.184808 z m 15.015176,0.205186 c 0.03075,-0.0032 0.06362,0.0011 0.09838,0.01267 0.81758,0.272522 3.113627,5.295847 3.374338,7.382507 0.657894,5.265589 -2.127606,11.097923 -6.216032,13.013898 -0.553362,0.259324 -1.287353,0.614336 -1.630957,0.789127 -1.331462,0.677318 -1.71387,0.392578 -1.71387,-1.276797 0,-1.2474 0.14805,-1.642166 0.679505,-1.810844 0.878445,-0.278806 2.55851,-1.835518 2.55851,-2.37089 0,-0.227826 -0.572412,0.08786 -1.271874,0.701992 -1.310519,1.150651 -1.78868,1.335615 -2.109492,0.816531 -0.250202,-0.404835 4.149301,-3.491779 4.779026,-3.353257 0.314785,0.06925 0.422534,-0.0896 0.291617,-0.430753 -0.114047,-0.297193 0.02555,-0.733845 0.310594,-0.970421 0.752601,-0.624604 0.674173,0.53952 -0.160217,2.376513 -0.676307,1.488965 -3.384717,4.117087 -4.242868,4.117087 -0.261202,0 -0.475022,0.1619 -0.475022,0.359778 0,1.049382 2.367471,-0.348636 4.122005,-2.434132 1.507926,-1.792366 3.068562,-6.560356 2.147434,-6.560356 -0.113514,0 -1.008753,0.87778 -1.989326,1.95068 -1.547307,1.693001 -4.862539,4.102153 -5.157075,3.747469 -0.05556,-0.06691 -0.204193,-0.549476 -0.329562,-1.073014 -0.15641,-0.653171 -0.06792,-1.013307 0.28178,-1.1475 1.949868,-0.748233 6.321437,-9.557388 6.321437,-12.738444 0,-0.697058 0.116291,-1.079227 0.331674,-1.101825 z m -24.236633,0.828476 0.569182,1.079339 c 0.312857,0.593636 0.675513,1.524565 0.805991,2.068732 0.130481,0.544165 0.09741,0.989393 -0.07308,0.989393 -0.549765,0 -1.579067,-2.320588 -1.438416,-3.242934 z m -14.998309,5.036914 c 0.43825,-0.0067 0.989968,0.199142 2.03922,0.679505 1.080736,0.494775 1.965435,1.070783 1.965435,1.279611 0,0.496074 -0.471387,0.484274 -0.980258,-0.02459 -0.222383,-0.222387 -1.347312,-0.596101 -2.500187,-0.830588 -1.95864,-0.39838 -2.042595,-0.455681 -1.273282,-0.874853 0.26378,-0.143726 0.486123,-0.225011 0.749072,-0.22908 z m 7.132348,0.697074 c 0.85434,0.02326 1.81068,0.944183 2.105975,2.12073 0.320682,1.277712 -0.716259,3.532874 -1.488306,3.236612 -0.354214,-0.135924 -0.778731,-0.01521 -1.00907,0.286701 -0.678684,0.889575 -1.616918,0.36228 -2.020247,-1.135555 -0.613991,-2.280194 0.119461,-3.872449 2.053977,-4.461408 0.115645,-0.0352 0.235622,-0.0504 0.357671,-0.04707 z m -41.8932341,0.558643 1.587387,2.7904 c 1.8524401,3.25548 4.7770091,6.355582 7.9460691,8.423196 2.040282,1.331158 2.248622,1.581971 2.248622,2.708185 0,1.121622 -0.078,1.216667 -0.809504,0.990096 -2.967314,-0.919069 -7.145444,-4.034202 -7.922176,-5.906849 -0.293262,-0.707044 -0.408023,-0.77363 -0.520698,-0.303564 -0.337002,1.405881 3.226291,6.431898 5.781768,8.155471 0.8205,0.553394 2.058474,1.22212 2.75105,1.486198 1.342964,0.512073 2.158678,1.289254 2.158678,2.056787 0,0.599809 -0.47451,0.565958 -2.698348,-0.193943 C 14.886761,53.402753 11.305753,50.200401 9.2836589,46.34137 7.362584,42.675136 6.9620133,39.731073 7.8276778,35.636525 Z m 41.8531801,0.74064 c -0.353025,0.0279 -0.731687,0.196234 -1.083554,0.548101 -0.57352,0.573522 -0.763505,1.994574 -0.325347,2.432728 0.548429,0.548431 1.932705,0.193309 2.475592,-0.635236 0.820446,-1.252159 -0.0076,-2.429322 -1.066691,-2.345593 z m -3.3385,1.464412 c 0.202124,-0.0076 0.250861,0.196787 0.250861,0.609942 0,0.393161 -0.506273,0.894139 -1.271876,1.259227 -1.372463,0.654482 -2.937857,0.777682 -3.704606,0.291619 -0.32297,-0.204742 0.01613,-0.382748 1.041393,-0.546696 0.836222,-0.133718 1.967461,-0.561204 2.513539,-0.950044 0.612958,-0.436464 0.968565,-0.656358 1.170689,-0.664048 z m 25.673641,1.533984 c 0.02227,-0.0078 0.04284,-0.0064 0.06114,0.0049 0.503638,0.311266 1.887522,3.41246 2.454514,5.500691 0.335771,1.236637 0.579209,3.636481 0.595183,5.869607 0.02468,3.447261 -0.0617,3.956101 -0.984477,5.814795 -1.379393,2.778394 -4.123467,6.084833 -6.180197,7.447156 -2.483729,1.645171 -5.727464,1.41184 -7.372668,-0.530515 -1.081354,-1.276666 -1.065334,-1.856793 0.0801,-2.820615 1.272354,-1.070615 1.664367,-1.118403 2.773534,-0.341511 1.018922,0.713681 0.911062,1.987223 -0.210105,2.479108 -0.445227,0.19533 -0.809504,0.473627 -0.809504,0.61837 0,0.144746 -0.283327,0.163309 -0.629614,0.04146 -0.480194,-0.168975 -0.534558,-0.117825 -0.227673,0.215727 0.314813,0.342161 0.684098,0.31963 1.696304,-0.103296 1.434485,-0.599341 2.071161,-2.036567 1.387123,-3.131886 -0.345731,-0.553601 -0.191541,-0.706917 1.181931,-1.174905 1.568484,-0.534438 5.683324,-3.120479 6.139441,-3.858494 0.476031,-0.770233 -0.217191,-0.800784 -1.021717,-0.04497 -1.06544,1.000928 -4.349773,2.124558 -7.129537,2.439052 -1.991078,0.225264 -2.177109,0.188735 -2.062408,-0.405455 0.08748,-0.453182 0.677008,-0.779915 1.925382,-1.067393 2.495641,-0.574707 5.128837,-1.995254 7.221591,-3.895737 1.834053,-1.665552 2.045685,-2.733777 0.262809,-1.326687 -2.720612,2.14717 -9.463186,4.156298 -9.463186,2.819913 0,-0.319225 0.763514,-0.764887 1.952787,-1.139771 2.838242,-0.894677 6.144675,-3.238077 7.584179,-5.375613 0.67309,-0.999481 1.148377,-1.939183 1.05615,-2.088408 -0.09223,-0.149223 -1.053754,0.614574 -2.136191,1.697008 -2.228548,2.228552 -5.223139,3.769805 -7.806231,4.018007 -1.483874,0.142581 -1.819629,0.04757 -2.433431,-0.689345 -0.391617,-0.470166 -0.716449,-0.936129 -0.721667,-1.035068 -0.0052,-0.09894 0.737435,-0.213931 1.649927,-0.25578 2.368986,-0.108651 4.003134,-0.734206 6.150683,-2.35473 2.104572,-1.58809 3.88076,-4.030741 4.438922,-6.103603 0.179001,-0.664758 0.421119,-1.167378 0.576912,-1.221985 z m 20.964884,0.0043 c -0.0046,0.02654 -0.01674,0.04475 -0.03163,0.05902 0.0068,-0.01619 0.01194,-0.03332 0.01968,-0.04919 0.0041,-0.0033 0.01266,-0.01496 0.01194,-0.0099 z m -0.235403,0.732909 c 0.01008,0.210224 0.01047,0.420677 0.0077,0.63102 -0.0061,0.357317 -0.01287,0.714994 -0.01897,1.072312 -0.0073,0.392524 -0.01151,0.784492 -0.01897,1.177013 -0.0088,0.39676 -0.01792,0.793602 -0.0267,1.190364 -0.0077,0.376753 -0.02594,0.753031 -0.04707,1.129229 -0.02148,0.376536 -0.05975,0.752269 -0.100488,1.127123 -0.04238,0.373709 -0.09771,0.745409 -0.158108,1.116581 -0.05784,0.3668 -0.138839,0.729712 -0.225565,1.090582 -0.08703,0.359511 -0.188362,0.715424 -0.29513,1.0695 -0.107214,0.349595 -0.226927,0.694794 -0.35135,1.038584 -0.120933,0.334889 -0.255221,0.664892 -0.398426,0.990798 -0.140016,0.317269 -0.297363,0.625763 -0.460263,0.931773 -0.154366,0.289867 -0.31291,0.57777 -0.470808,0.865718 -0.147941,0.266693 -0.296321,0.532967 -0.445507,0.798965 -0.132906,0.236171 -0.269746,0.470328 -0.406861,0.704099 -0.39621,0.306417 -0.904694,0.752557 -1.468631,1.302796 -2.435421,2.37622 -5.960009,4.325915 -8.375423,4.632824 -1.85328,0.235479 -5.032179,-0.143612 -5.777556,-0.68864 -0.44173,-0.323005 -0.500788,-0.594474 -0.23259,-1.073718 0.299016,-0.534315 0.893419,-0.648775 3.558441,-0.687235 2.522639,-0.03641 3.541761,-0.21614 4.818377,-0.849557 1.769514,-0.877974 4.822308,-3.42873 4.495137,-3.755902 -0.11244,-0.112439 -0.886527,0.03166 -1.720196,0.320429 -1.821288,0.630856 -6.161592,1.008164 -7.88353,0.685128 -1.11464,-0.209111 -1.226226,-0.335911 -1.093391,-1.240959 0.128541,-0.875809 0.280395,-0.98862 1.16085,-0.859396 1.26389,0.185499 4.799189,-0.817361 6.50625,-1.845977 2.754208,-1.659594 6.797907,-4.756297 6.803483,-5.209777 7.36e-4,-0.05474 -0.01121,-0.09266 -0.02882,-0.123675 0.01594,-0.02235 0.03335,-0.04363 0.04919,-0.06606 0.132038,-0.181864 0.257292,-0.367684 0.382266,-0.554426 0.139108,-0.200659 0.266931,-0.408856 0.392103,-0.61837 0.128883,-0.209658 0.248938,-0.424489 0.366103,-0.640858 0.124128,-0.227481 0.244527,-0.457248 0.358376,-0.690046 0.122247,-0.244978 0.233026,-0.495069 0.340103,-0.746963 0.108161,-0.25462 0.20745,-0.513348 0.302863,-0.772964 0.09555,-0.262625 0.182308,-0.527766 0.267022,-0.794045 0.06862,-0.217735 0.132482,-0.437063 0.196051,-0.656316 z m -42.75122,1.028042 c 0.207147,0.06333 0.700445,0.753944 1.096204,1.534684 0.592369,1.168613 0.719559,2.13271 0.719559,5.453612 0,3.149729 -0.121733,4.155322 -0.553724,4.587891 -0.497995,0.498665 -0.650714,0.365024 -1.533279,-1.335821 -1.338376,-2.579263 -1.646685,-6.068982 -0.755397,-8.547575 0.357603,-0.994464 0.819491,-1.756127 1.026637,-1.692791 z M 72.385611,40.2252 c -0.197879,0 -0.359779,0.1619 -0.359779,0.35978 0,0.197878 0.1619,0.359778 0.359779,0.359778 0.19788,0 0.35978,-0.1619 0.35978,-0.359778 0,-0.19788 -0.1619,-0.35978 -0.35978,-0.35978 z m 0.71956,1.079337 c -0.197879,0 -0.35978,0.161901 -0.35978,0.35978 0,0.197879 0.161901,0.35978 0.35978,0.35978 0.197878,0 0.359779,-0.161901 0.359779,-0.35978 0,-0.197879 -0.161901,-0.35978 -0.359779,-0.35978 z m 0.719558,1.079339 c -0.197879,0 -0.359779,0.161901 -0.359779,0.35978 0,0.197878 0.1619,0.35978 0.359779,0.35978 0.197879,0 0.35978,-0.161902 0.35978,-0.35978 0,-0.197879 -0.161901,-0.35978 -0.35978,-0.35978 z m -51.919275,0.527746 c 0.08095,0.02308 0.156922,0.152367 0.249456,0.393508 0.287371,0.748871 0.163817,0.927373 -0.399832,0.579021 -0.243197,-0.150305 -0.297511,-0.457925 -0.129296,-0.730101 0.112828,-0.182561 0.198727,-0.265518 0.279672,-0.242428 z m 52.139219,1.394848 c -0.129013,-0.02169 -0.219944,0.05786 -0.219944,0.215024 0,0.209556 0.161901,0.38086 0.35978,0.38086 0.197879,0 0.359779,-0.07154 0.359779,-0.158808 0,-0.08725 -0.1619,-0.258565 -0.359779,-0.380861 -0.04947,-0.03057 -0.09683,-0.04899 -0.139836,-0.05622 z m -52.635319,0.11241 c 0.119233,-0.01184 0.265618,0.005 0.449022,0.04005 0.465167,0.08892 1.075992,0.513223 1.357606,0.943016 1.403079,2.141367 5.96152,3.984512 10.916357,4.414327 l 2.581698,0.224159 -0.744152,1.006259 c -0.409184,0.55345 -1.16614,1.167635 -1.682249,1.364632 -1.793517,0.684575 -2.497786,0.793183 -2.727862,0.420914 -0.127271,-0.205927 -0.828911,-0.373037 -1.559278,-0.371022 -2.132553,0.0058 -5.746346,-1.446009 -7.120401,-2.86067 -0.672828,-0.692709 -1.223392,-1.061622 -1.223392,-0.820043 0,0.241578 -0.242851,0.439183 -0.53967,0.439183 -0.584851,0 -0.700698,-1.319305 -0.318321,-3.630822 0.13905,-0.840554 0.252947,-1.134462 0.610642,-1.169987 z m 0.107512,0.966907 c -0.129013,-0.02169 -0.219942,0.05787 -0.219942,0.215024 0,0.209557 0.1619,0.380861 0.359779,0.380861 0.197878,0 0.35978,-0.07154 0.35978,-0.158809 0,-0.08726 -0.161902,-0.258564 -0.35978,-0.380861 -0.04948,-0.03057 -0.09683,-0.04898 -0.139837,-0.05622 z m 53.027425,0.236106 c -0.197879,0 -0.359779,0.1619 -0.359779,0.359779 0,0.197879 0.1619,0.359779 0.359779,0.359779 0.19788,0 0.35978,-0.1619 0.35978,-0.359779 0,-0.197879 -0.1619,-0.359779 -0.35978,-0.359779 z m -20.149759,0.162313 c 2.084858,0.04299 2.882304,2.998536 0.737126,4.1466 -0.702971,0.37622 -1.354692,0.429235 -1.994248,0.160917 -0.19918,-0.08357 -0.306061,-1.019745 -0.238916,-2.09684 0.09689,-1.554237 0.259711,-1.981876 0.809504,-2.12565 0.241409,-0.06314 0.470858,-0.08948 0.686534,-0.08503 z m 32.915607,0.394914 c -0.0052,0.0011 0.0011,6.73e-4 -0.0013,0.0013 3.59e-4,-5.03e-4 0.0011,-9.57e-4 0.0013,-0.0013 z m -74.529167,0.311293 c 0.139997,-0.01122 0.464238,0.221132 0.778585,0.568481 0.359253,0.396971 0.486099,0.721668 0.281779,0.721668 -0.452694,0 -1.349897,-1.028022 -1.108151,-1.26977 0.01192,-0.01192 0.02779,-0.01878 0.04779,-0.02038 z m 32.690746,0.01616 c 0.398257,0.03564 0.296354,0.31123 -0.221348,0.883286 -0.344834,0.381038 -0.578205,1.070011 -0.51859,1.531172 0.05961,0.461159 -0.01747,1.040688 -0.171456,1.288038 -0.356564,0.572766 -2.117717,0.584849 -2.684294,0.01827 -1.200943,-1.200945 -0.0134,-3.011735 2.320297,-3.538067 0.617529,-0.139275 1.036436,-0.204084 1.275391,-0.182699 z m -24.174794,0.194646 c -0.197879,0 -0.35978,0.1619 -0.35978,0.35978 0,0.197879 0.161901,0.359779 0.35978,0.359779 0.197879,0 0.359779,-0.1619 0.359779,-0.359779 0,-0.19788 -0.1619,-0.35978 -0.359779,-0.35978 z m 26.373525,0.122971 c 0.08198,-0.0038 0.140745,0.0079 0.170051,0.03725 0.389707,0.389706 1.12317,2.845537 0.938801,3.143853 -0.252094,0.407898 -1.987127,0.348033 -2.747536,-0.09486 -1.042338,-0.607106 -0.786817,-2.029881 0.482752,-2.686402 0.459017,-0.237367 0.909977,-0.388597 1.155932,-0.399833 z m 9.722479,0.09627 1.359011,1.578252 c 0.747438,0.86784 1.278126,1.708976 1.179122,1.869167 -0.305665,0.494575 -1.45887,0.322234 -2.2683,-0.338698 -0.631207,-0.515408 -0.725813,-0.854478 -0.520696,-1.869167 z M 74.544291,47.061 c -0.197879,0 -0.359779,0.1619 -0.359779,0.359779 0,0.197878 0.1619,0.35978 0.359779,0.35978 0.19788,0 0.35978,-0.161902 0.35978,-0.35978 0,-0.197879 -0.1619,-0.359779 -0.35978,-0.359779 z m -59.723399,1.079307 c 0.19788,0 0.35978,0.161901 0.35978,0.359779 0,0.19788 -0.1619,0.359779 -0.35978,0.359779 -0.197878,0 -0.359777,-0.161899 -0.359777,-0.359779 0,-0.197878 0.161899,-0.359779 0.359777,-0.359779 z m 28.422582,0 c -0.197879,0 -0.348405,0.445227 -0.334482,0.989394 0.02241,0.876726 0.06049,0.907454 0.334482,0.269835 0.422276,-0.982695 0.422276,-1.259229 0,-1.259229 z m -2.765102,0.160918 c 0.203093,-0.02597 0.246645,0.122819 0.246645,0.483453 0,0.368228 -0.414695,1.05882 -0.921233,1.534685 -0.705203,0.662505 -0.899035,1.163853 -0.828476,2.141109 0.05069,0.701946 -0.03043,1.474146 -0.179889,1.71598 -0.417068,0.67483 -1.80346,0.522969 -2.680076,-0.293726 -0.433071,-0.403466 -0.787019,-0.85388 -0.787019,-1.001339 0,-0.405016 3.662111,-3.879767 4.58719,-4.35249 0.261627,-0.133693 0.441002,-0.21209 0.562858,-0.227672 z m 6.722677,0.198861 c -0.197879,0 -0.35978,0.161901 -0.35978,0.359779 0,0.19788 0.161901,0.359781 0.35978,0.359781 0.197879,0 0.359779,-0.161901 0.359779,-0.359781 0,-0.197878 -0.1619,-0.359779 -0.359779,-0.359779 z m -31.544655,0.312699 c 0.307109,0.01089 0.993752,0.237356 1.772901,0.600101 1.03886,0.483661 2.091217,0.880642 2.338565,0.882584 0.247348,0.0019 0.449724,0.183314 0.449724,0.402644 0,0.245715 -0.345243,0.31196 -0.899448,0.172864 -1.279965,-0.321251 -1.113459,0.270736 0.269835,0.959177 0.886072,0.440985 0.994998,0.585309 0.449724,0.596588 -0.882111,0.01824 -4.69115,-2.302319 -4.641295,-2.827642 0.01978,-0.208517 0.06026,-0.533594 0.08995,-0.722369 0.0074,-0.04719 0.06769,-0.06758 0.170048,-0.06395 z m 42.198204,0.170756 c -0.129014,-0.02169 -0.219943,0.05786 -0.219943,0.215024 0,0.209557 0.161901,0.38086 0.359778,0.38086 0.19788,0 0.359781,-0.07154 0.359781,-0.158809 0,-0.08726 -0.161901,-0.258564 -0.359781,-0.38086 -0.04947,-0.03057 -0.09683,-0.04899 -0.139835,-0.05622 z m 16.689693,0.236105 c -0.197879,0 -0.359779,0.161901 -0.359779,0.359779 0,0.197878 0.1619,0.35978 0.359779,0.35978 0.19788,0 0.35978,-0.161902 0.35978,-0.35978 0,-0.197878 -0.1619,-0.359779 -0.35978,-0.359779 z m -58.528117,0.07378 c -0.07416,-0.0094 -0.115942,0.04117 -0.115942,0.15389 0,0.204476 0.1077,0.480129 0.239616,0.612047 0.13192,0.131919 0.323597,0.156346 0.425834,0.05411 0.102237,-0.102238 -0.0055,-0.37789 -0.239619,-0.612047 -0.129082,-0.129083 -0.235725,-0.198596 -0.309889,-0.207998 z m 5.157076,0.59448 c 0.426582,0.0036 1.162917,0.433877 2.004084,1.250796 1.538161,1.493825 5.348342,3.477167 6.681218,3.477634 0.744265,2.56e-4 2.551906,1.575338 2.580293,2.248622 0.01924,0.456967 -4.40515,0.266964 -5.859065,-0.251565 -0.755144,-0.26932 -1.686969,-0.773401 -2.070841,-1.120797 -0.38387,-0.347399 -0.794995,-0.535203 -0.913502,-0.416697 -0.249875,0.249874 2.031327,2.346643 3.414391,3.138232 0.648175,0.37098 2.067607,0.553014 4.540812,0.581833 5.392576,0.0628 6.198607,0.663105 2.867696,2.13619 -2.298204,1.016374 -3.627179,1.098026 -5.452909,0.335184 -0.716601,-0.299415 -1.375339,-0.472044 -1.463712,-0.383671 -0.401928,0.401929 0.471101,0.966232 2.332243,1.50728 2.70634,0.786755 5.516504,0.511602 8.03531,-0.78772 1.614957,-0.833078 3.044001,-1.129682 3.47904,-0.721666 0.04603,0.04317 -0.106165,0.581087 -0.337996,1.195282 -0.33311,0.882502 -0.322275,1.235785 0.05059,1.685061 0.878103,1.05805 2.531849,0.56542 1.771493,-0.527723 -0.27765,-0.399161 -0.406719,-0.416258 -0.546698,-0.07098 -0.228316,0.563181 -0.841125,0.224864 -0.841125,-0.46448 0,-0.764094 1.742324,-1.806283 2.220515,-1.328092 0.21183,0.211844 0.648947,0.301709 0.971124,0.199564 0.410515,-0.13015 0.453879,-0.09025 0.144051,0.134215 -0.334778,0.242541 -0.275705,0.462933 0.243133,0.907178 0.859254,0.735717 0.613635,1.84221 -0.582533,2.625969 -0.694454,0.455028 -0.997026,0.4879 -1.401174,0.152484 -0.410774,-0.340912 -0.515777,-0.312319 -0.515777,0.142648 0,0.314087 -0.313622,0.738877 -0.696371,0.943718 -0.973919,0.521223 -3.522281,0.468586 -3.742548,-0.0773 -0.111919,-0.277354 -0.192587,-0.217102 -0.210107,0.157404 -0.01664,0.355688 -0.288937,0.579255 -0.657722,0.539668 -0.346287,-0.03717 -1.25004,-0.118209 -2.008301,-0.180592 -1.022833,-0.08415 -1.327482,-0.246645 -1.180527,-0.629613 0.108945,-0.283906 0.04129,-0.516481 -0.150376,-0.516481 -0.191668,0 -0.348537,0.175628 -0.348537,0.389996 0,0.214357 -0.202374,0.315558 -0.449723,0.224862 -0.247348,-0.09069 -0.40925,-0.347271 -0.35978,-0.569885 0.112262,-0.505189 -0.524749,-0.53946 -0.692154,-0.03725 -0.208089,0.624267 -3.977933,-1.531123 -5.755769,-3.290718 -1.525721,-1.510071 -3.408635,-4.622745 -4.053142,-6.700893 -0.189359,-0.610575 -0.10687,-0.809504 0.334484,-0.809504 0.32183,0 0.483366,-0.164295 0.359077,-0.365402 -0.124294,-0.201106 -0.380129,-0.270297 -0.568481,-0.153889 -0.188352,0.116407 -0.598949,-0.401551 -0.912097,-1.151014 -0.389699,-0.932686 -0.443894,-1.404755 -0.172161,-1.495334 0.218355,-0.07278 0.397024,-0.290386 0.397024,-0.483452 0,-0.193069 -0.143644,-0.262283 -0.319025,-0.15389 -0.175382,0.108392 -0.400833,-0.116502 -0.501021,-0.499616 -0.139409,-0.533112 0.0048,-0.788345 0.336592,-0.785613 z m -3.833901,0.0513 c -0.197878,0 -0.359779,0.161901 -0.359779,0.359781 0,0.197878 0.161901,0.359778 0.359779,0.359778 0.19788,0 0.35978,-0.1619 0.35978,-0.359778 0,-0.19788 -0.1619,-0.359781 -0.35978,-0.359781 z m 38.866026,0.217836 c 0.260751,-0.02876 0.509738,0.145423 0.957069,0.565669 1.022576,0.960658 1.067272,2.219231 0.112432,3.17407 -1.143639,1.143638 -2.080615,0.734306 -1.622521,-0.709018 0.122673,-0.386513 0.03152,-1.060406 -0.202378,-1.497442 -0.355098,-0.663508 -0.317468,-0.87326 0.227674,-1.271877 0.210656,-0.154036 0.371272,-0.244149 0.527724,-0.261402 z m -15.545004,0.270536 c 0.204965,-0.0041 0.482709,0.144942 1.002744,0.443402 1.04128,0.597612 1.073231,0.685713 0.720964,2.005489 -0.205233,0.768899 -0.591799,1.380092 -0.872747,1.380092 -0.358314,0 -0.439352,-0.260432 -0.278969,-0.899449 0.130179,-0.518675 0.07089,-0.899448 -0.140539,-0.899448 -0.20165,0 -0.366807,0.337526 -0.366807,0.749775 0,1.142317 -0.883332,0.617656 -1.005556,-0.597291 -0.05818,-0.578398 0.110459,-1.347373 0.374537,-1.70825 0.229279,-0.31332 0.361407,-0.470254 0.566373,-0.47432 z m 12.170665,0.27616 c 0.115116,-0.01694 0.449541,0.102587 0.806693,0.293726 1.078281,0.57708 1.581198,1.675001 1.142581,2.494566 -0.731341,1.366525 -2.902127,1.100058 -2.902127,-0.356267 0,-0.599174 0.502898,-1.924357 0.917016,-2.415863 0.0068,-0.0083 0.01939,-0.01374 0.03583,-0.01615 z m -3.699685,0.0302 c 0.374038,0.01825 0.729369,0.401234 1.245173,1.158744 0.896032,1.315908 0.707868,2.399095 -0.496803,2.861371 -0.945804,0.362938 -1.900168,0.05713 -2.577484,-0.825666 -0.608391,-0.792965 -0.582813,-0.91157 0.470103,-2.162893 0.591901,-0.703434 0.984971,-1.049816 1.359011,-1.031556 z m -3.227476,0.0759 c 0.122126,0.0055 0.239315,0.02107 0.348537,0.04849 0.829874,0.208284 0.843278,0.260401 0.33378,1.281715 -0.292095,0.58552 -0.445518,1.287807 -0.340807,1.560684 0.104713,0.272875 -0.05506,0.590893 -0.355564,0.706207 -1.808187,0.693867 -3.393085,-0.993899 -2.370891,-2.52478 0.425679,-0.637511 1.530066,-1.110852 2.384945,-1.072312 z m 28.619338,0.208668 c -0.209558,0 -0.281107,0.1619 -0.158812,0.359779 0.122298,0.197879 0.293602,0.35978 0.380863,0.35978 0.08726,0 0.158807,-0.161901 0.158807,-0.35978 0,-0.197879 -0.171302,-0.359779 -0.380858,-0.359779 z m -14.12205,0.140538 c 0.423253,-0.0039 0.555102,0.282872 0.811612,1.206528 0.52861,1.903455 0.470371,2.858226 -0.189728,3.111529 -0.718495,0.275714 -0.867459,0.257964 -1.872681,-0.226266 -0.739123,-0.356046 -0.797956,-0.562904 -0.583237,-2.044139 0.131411,-0.906511 0.25838,-1.666238 0.282484,-1.687872 0.02412,-0.02163 0.481604,-0.143824 1.016096,-0.271942 0.22137,-0.05306 0.394369,-0.08654 0.535454,-0.08784 z m -22.554382,0.9388 c -0.197878,0 -0.359779,0.161901 -0.359779,0.35978 0,0.197878 0.161901,0.35978 0.359779,0.35978 0.197879,0 0.359781,-0.161902 0.359781,-0.35978 0,-0.197879 -0.161902,-0.35978 -0.359781,-0.35978 z m 19.068315,0 c -0.197879,0 -0.35978,0.161901 -0.35978,0.35978 0,0.197878 0.161901,0.35978 0.35978,0.35978 0.197878,0 0.35978,-0.161902 0.35978,-0.35978 0,-0.197879 -0.161902,-0.35978 -0.35978,-0.35978 z m -12.571202,0.35978 c -0.209557,0 -0.380861,0.161901 -0.380861,0.35978 0,0.197878 0.07155,0.359778 0.158809,0.359778 0.08726,0 0.258564,-0.1619 0.38086,-0.359778 0.122297,-0.197879 0.05075,-0.35978 -0.158808,-0.35978 z m 29.700782,0.123675 c -0.129013,-0.02169 -0.219944,0.05786 -0.219944,0.215023 0,0.209557 0.161901,0.38086 0.35978,0.38086 0.197879,0 0.359779,-0.07154 0.359779,-0.158808 0,-0.08726 -0.1619,-0.258563 -0.359779,-0.380861 -0.04947,-0.03057 -0.09683,-0.04897 -0.139836,-0.05622 z m -21.210127,0.02038 c -0.154527,-0.01852 -0.319967,0.05928 -0.413184,0.210105 -0.124288,0.201106 0.0267,0.365402 0.335185,0.365402 0.631964,0 0.724595,-0.215793 0.225566,-0.524212 -0.04605,-0.02846 -0.09606,-0.04512 -0.147567,-0.0513 z M 22.016483,52.8174 c -0.197878,0 -0.35978,0.1619 -0.35978,0.35978 0,0.197878 0.161902,0.359777 0.35978,0.359777 0.197878,0 0.359779,-0.161899 0.359779,-0.359777 0,-0.19788 -0.161901,-0.35978 -0.359779,-0.35978 z m 11.581808,0.548101 c 0.767144,-0.03277 1.095639,0.170991 1.785547,0.822153 1.230183,1.161093 1.242182,1.276186 0.236105,2.213487 -1.193932,1.112316 -1.932146,0.898328 -3.363799,-0.97534 l -1.305605,-1.708952 1.704736,-0.248052 c 0.382878,-0.05569 0.687302,-0.09237 0.943016,-0.103296 z m 26.164826,0.215727 c -0.124988,-0.0051 -0.267166,0.0176 -0.397023,0.06956 -0.287007,0.114851 -0.201993,0.200573 0.217132,0.217836 0.379266,0.01562 0.591762,-0.06948 0.47221,-0.189024 -0.05977,-0.05977 -0.167334,-0.09323 -0.292319,-0.09838 z m 13.837455,0.455346 c -0.0437,-0.0014 -0.09167,0.01249 -0.141944,0.04357 -0.201105,0.124291 -0.271954,0.377246 -0.158105,0.561451 0.308414,0.49903 0.524209,0.405696 0.524209,-0.226266 0,-0.231374 -0.09304,-0.374339 -0.22416,-0.378752 z m 2.278839,0.02741 c 0.0486,-0.0031 0.09641,0.0078 0.140538,0.03513 0.668744,0.413308 4.883661,0.563621 6.349548,0.226267 1.188987,-0.27363 1.529062,-0.248948 1.529062,0.111025 0,0.254614 -0.242851,0.555766 -0.539669,0.669669 -0.296819,0.1139 -0.53967,0.02367 -0.53967,-0.20097 0,-0.22465 -0.121425,-0.28684 -0.269834,-0.138431 -0.14841,0.148408 -0.269835,0.457941 -0.269835,0.687936 0,0.229997 -0.566653,0.598618 -1.259227,0.819343 -1.808358,0.576327 -3.96915,0.799963 -5.216804,0.53967 -1.716516,-0.358111 -1.054941,-0.950355 0.910692,-0.815127 1.098191,0.07555 1.787654,-0.02401 1.787654,-0.258591 0,-0.210029 -0.541529,-0.361452 -1.203012,-0.33659 -1.462356,0.05497 -2.070816,-0.274764 -1.801709,-0.976043 0.08327,-0.217009 0.236445,-0.354264 0.382266,-0.363294 z m -24.441115,0.444807 c 0.137406,0.01271 0.32805,0.129548 0.622586,0.322536 0.512022,0.33548 1.172814,0.449067 1.758143,0.302159 1.08291,-0.271794 1.128412,-0.131511 0.411779,1.254309 -0.582569,1.126564 -1.36099,1.446541 -2.712401,1.115176 -0.965148,-0.236652 -0.984637,-0.308281 -0.55794,-2.058192 0.167928,-0.688685 0.248822,-0.957187 0.477833,-0.935988 z m -11.654889,0.193941 c 0.5,-0.02367 0.94161,0.325662 0.94161,0.901557 0,0.357935 0.23719,0.989485 0.527023,1.40328 0.289851,0.413791 0.42428,0.854622 0.299346,0.979555 -0.427191,0.427191 -1.854085,0.227999 -2.420079,-0.337995 -0.713918,-0.713907 -0.729437,-2.088531 -0.03021,-2.668834 0.215536,-0.178878 0.455043,-0.266807 0.682316,-0.277563 z m 3.083423,0.125781 c 0.376191,-0.0076 0.830933,0.01675 1.366038,0.07026 1.621829,0.162217 1.782911,0.441115 1.177717,2.032895 -0.490445,1.289954 -2.196478,1.276471 -3.220449,-0.0253 C 41.0762,55.490228 41.236665,54.861369 42.86683,54.8285 Z m 14.304047,0.183404 c 0.401964,0.02947 0.463778,0.262303 0.463778,0.961989 0,0.577125 -0.296555,1.31752 -0.658424,1.645006 -0.676192,0.611946 -2.060345,0.805226 -2.32873,0.325348 -0.08301,-0.14841 0.109972,-0.836488 0.428644,-1.529062 0.425507,-0.924764 0.842517,-1.289506 1.569117,-1.374471 0.219906,-0.02572 0.391627,-0.03864 0.525615,-0.02881 z m -10.045016,0.169349 c 0.197818,-0.0022 0.466154,0.06068 0.857287,0.172862 0.648955,0.186118 1.491923,0.239602 1.87268,0.118755 0.543372,-0.172459 0.641367,-0.08856 0.457455,0.390698 -0.128875,0.335837 -0.233999,0.674208 -0.233999,0.751884 0,0.07767 -0.47796,0.388148 -1.06177,0.690045 -1.309655,0.67725 -1.224455,0.680408 -2.108786,-0.08081 -0.559043,-0.481215 -0.65727,-0.815789 -0.418103,-1.419441 0.172885,-0.436356 0.305539,-0.620318 0.635236,-0.623994 z m -9.346537,0.154593 c 0.166393,0 0.234696,0.462416 0.151781,1.027339 -0.116429,0.793271 0.07283,1.20285 0.830585,1.798897 1.021939,0.803856 2.837301,1.034864 3.223258,0.410374 0.265195,-0.429091 2.044452,-0.05688 2.422188,0.506643 0.14538,0.216881 0.266957,0.604375 0.269835,0.861502 0.0058,0.487081 -2.076837,0.51813 -4.685567,0.06956 -1.392084,-0.23936 -4.669412,-1.717541 -4.65254,-2.098246 0.01656,-0.37339 2.10331,-2.576078 2.44046,-2.576078 z m 41.801882,0 c -0.19788,0 -0.359781,0.1619 -0.359781,0.359779 0,0.19788 0.161901,0.359779 0.359781,0.359779 0.197877,0 0.359778,-0.161899 0.359778,-0.359779 0,-0.197879 -0.161901,-0.359779 -0.359778,-0.359779 z m 1.439118,0 c -0.197879,0 -0.359782,0.1619 -0.359782,0.359779 0,0.19788 0.161903,0.359779 0.359782,0.359779 0.197877,0 0.359778,-0.161899 0.359778,-0.359779 0,-0.197879 -0.161901,-0.359779 -0.359778,-0.359779 z m -37.57588,0.359774 c -0.08725,0 -0.258564,0.161901 -0.38086,0.359779 -0.122296,0.197878 -0.05075,0.359781 0.15881,0.359781 0.209557,0 0.38086,-0.161903 0.38086,-0.359781 0,-0.197878 -0.07155,-0.359779 -0.15881,-0.359779 z m 4.497245,0 c -0.209558,0 -0.380861,0.161901 -0.380861,0.359779 0,0.197878 0.07155,0.359781 0.158809,0.359781 0.08726,0 0.258564,-0.161903 0.380861,-0.359781 0.122296,-0.197878 0.05075,-0.359779 -0.158809,-0.359779 z m 4.814861,0 c -0.308503,0 -0.460995,0.161901 -0.338698,0.359779 0.122296,0.197878 0.374549,0.359781 0.560749,0.359781 0.186202,0 0.3387,-0.161903 0.3387,-0.359781 0,-0.197878 -0.252254,-0.359779 -0.560751,-0.359779 z m 19.988844,0 c -0.197878,0 -0.35978,0.161901 -0.35978,0.359779 0,0.197878 0.161902,0.359781 0.35978,0.359781 0.197878,0 0.35978,-0.161903 0.35978,-0.359781 0,-0.197878 -0.161902,-0.359779 -0.35978,-0.359779 z m -49.469683,0.359779 c -0.320175,0 -0.482075,0.161902 -0.359779,0.359781 0.122295,0.197878 0.284197,0.359779 0.359779,0.359779 0.07558,0 0.237484,-0.161901 0.35978,-0.359779 0.122296,-0.197879 -0.03961,-0.359781 -0.35978,-0.359781 z m 16.729747,0 c -0.197879,0 -0.359779,0.161902 -0.359779,0.359781 0,0.197878 0.1619,0.359779 0.359779,0.359779 0.19788,0 0.35978,-0.161901 0.35978,-0.359779 0,-0.197879 -0.1619,-0.359781 -0.35978,-0.359781 z m 19.433013,0.05692 c 0.119476,8.5e-5 0.251484,0.0051 0.399833,0.01265 1.382594,0.07017 1.419509,0.259559 0.493292,2.538836 -0.182052,0.447998 -0.659644,0.629614 -1.656251,0.629614 -0.770342,0 -1.400469,-0.108675 -1.400469,-0.241728 0,-0.133049 0.283325,-0.861021 0.629614,-1.617603 0.501146,-1.09492 0.697652,-1.322371 1.533981,-1.321766 z m -3.221852,0.302861 c -0.209558,0 -0.380862,0.1619 -0.380862,0.35978 0,0.197877 0.07155,0.35978 0.158809,0.35978 0.08726,0 0.258564,-0.161903 0.380861,-0.35978 0.122296,-0.19788 0.05075,-0.35978 -0.158808,-0.35978 z m 15.225276,0.859395 c -0.0437,-0.0014 -0.09167,0.01249 -0.141945,0.04357 -0.201104,0.12429 -0.271953,0.377245 -0.158105,0.561453 0.308415,0.499029 0.524211,0.405696 0.524211,-0.226268 0,-0.231383 -0.09304,-0.374341 -0.224161,-0.378751 z m -12.368122,0.219944 c -0.197879,0 -0.359779,0.161902 -0.359779,0.35978 0,0.197879 0.1619,0.35978 0.359779,0.35978 0.197878,0 0.35978,-0.161901 0.35978,-0.35978 0,-0.197878 -0.161902,-0.35978 -0.35978,-0.35978 z m -34.898614,0.35978 c -0.197878,0 -0.359778,0.161901 -0.359778,0.35978 0,0.197878 0.1619,0.359779 0.359778,0.359779 0.197879,0 0.35978,-0.161901 0.35978,-0.359779 0,-0.197879 -0.161901,-0.35978 -0.35978,-0.35978 z m 25.226729,0.106105 c 0.348358,-0.01408 0.334542,0.424199 -0.03725,1.32177 -0.248521,0.599977 -0.63465,1.078088 -0.857991,1.062473 -1.078294,-0.07542 -3.464281,-1.165436 -3.464281,-1.582468 0,-0.712402 0.975461,-0.939921 2.009704,-0.468697 0.715311,0.325925 1.085081,0.318318 1.649926,-0.03443 0.308495,-0.192657 0.54154,-0.292246 0.699884,-0.298645 z m 1.334416,0.102594 c 0.122819,0.01066 0.282777,0.07615 0.498913,0.191836 0.394143,0.21095 1.023538,0.303389 1.399065,0.205187 1.091225,-0.285363 0.872047,1.139171 -0.240321,1.56209 -0.507578,0.192981 -1.333858,0.350644 -1.836843,0.350644 -0.72986,0 -0.862477,-0.127131 -0.655614,-0.629614 0.142562,-0.346286 0.339446,-0.909236 0.437778,-1.250797 0.08987,-0.312166 0.192325,-0.447137 0.397022,-0.429346 z m -4.498649,0.224863 c -0.07417,-0.0094 -0.115945,0.04117 -0.115945,0.15389 0,0.204477 0.107698,0.48013 0.23962,0.612047 0.131916,0.131919 0.323593,0.156346 0.425832,0.05411 0.102238,-0.102234 -0.0055,-0.377888 -0.239619,-0.612045 -0.129082,-0.129083 -0.235724,-0.198598 -0.309888,-0.207998 z m 5.280748,0.645773 c -0.197879,0 -0.359779,0.161902 -0.359779,0.35978 0,0.197879 0.1619,0.35978 0.359779,0.35978 0.197878,0 0.35978,-0.161901 0.35978,-0.35978 0,-0.197878 -0.161902,-0.35978 -0.35978,-0.35978 z m 3.681416,0 c 0.576011,0 1.27521,0.228196 1.55436,0.507347 0.279149,0.27915 0.681792,0.565728 0.89453,0.636641 0.638248,0.212747 -0.03067,1.36449 -1.119392,1.92749 -0.559832,0.289496 -1.147372,0.513824 -1.305607,0.498211 -2.258285,-0.222952 -2.280663,-3.569689 -0.02389,-3.569689 z m 6.371329,0.35978 c -0.209557,0 -0.281104,0.161902 -0.158809,0.35978 0.122297,0.197879 0.2936,0.359779 0.38086,0.359779 0.08726,0 0.15881,-0.1619 0.15881,-0.359779 0,-0.197878 -0.171303,-0.35978 -0.380861,-0.35978 z m 8.296009,0 c -0.197879,0 -0.359779,0.161902 -0.359779,0.35978 0,0.197879 0.1619,0.359779 0.359779,0.359779 0.197879,0 0.359781,-0.1619 0.359781,-0.359779 0,-0.197878 -0.161902,-0.35978 -0.359781,-0.35978 z m -44.993519,0.35978 c -0.209558,0 -0.281106,0.1619 -0.158809,0.359779 0.122297,0.197879 0.293599,0.35978 0.38086,0.35978 0.08726,0 0.158809,-0.161901 0.158809,-0.35978 0,-0.197879 -0.171303,-0.359779 -0.38086,-0.359779 z m 38.535056,0.208701 c -0.144854,-0.01914 -0.36484,0.128655 -0.560047,0.395616 -0.260282,0.355948 -0.382135,0.794773 -0.270537,0.975339 0.111596,0.180571 0.41642,0.03693 0.676695,-0.319022 0.260285,-0.355949 0.381432,-0.794773 0.269834,-0.97534 -0.0279,-0.04514 -0.06767,-0.07021 -0.115945,-0.0766 z m -7.731746,0.151078 c -0.08725,0 -0.258564,0.161902 -0.38086,0.35978 -0.122297,0.197878 -0.05075,0.35978 0.158809,0.35978 0.209557,0 0.38086,-0.161902 0.38086,-0.35978 0,-0.197878 -0.07155,-0.35978 -0.158809,-0.35978 z m 5.396693,0 c -0.08726,0 -0.258564,0.161902 -0.38086,0.35978 -0.122297,0.197878 -0.05075,0.35978 0.158809,0.35978 0.209557,0 0.380861,-0.161902 0.380861,-0.35978 0,-0.197878 -0.07155,-0.35978 -0.15881,-0.35978 z m 10.36966,0.716748 0.921234,0.842531 c 1.69668,1.552639 5.172913,2.756875 7.936228,2.749643 0.890455,-0.0023 2.740667,-0.241396 4.112169,-0.531939 1.371501,-0.29054 2.547415,-0.474878 2.612618,-0.409671 0.0652,0.06519 -0.856559,1.182686 -2.048354,2.483322 -2.258783,2.465062 -4.09673,3.582608 -7.286942,4.431892 -3.661278,0.97469 -9.720717,0.303197 -12.061747,-1.336524 -0.703295,-0.492607 -0.705127,-0.527832 -0.06395,-1.319659 l 0.659128,-0.813721 2.271108,0.773667 c 2.004872,0.68262 2.751835,0.746966 6.360085,0.547398 2.248511,-0.124364 4.265881,-0.3358 4.483191,-0.470102 0.21731,-0.134306 -0.768748,-0.440566 -2.191,-0.680208 -2.773374,-0.467299 -7.014095,-2.532464 -7.430994,-3.618876 -0.149388,-0.389295 0.116349,-0.965644 0.74837,-1.625332 z m -45.469244,0.0028 c -0.197877,0 -0.35978,0.1619 -0.35978,0.359778 0,0.19788 0.161903,0.35978 0.35978,0.35978 0.197879,0 0.35978,-0.1619 0.35978,-0.35978 0,-0.197878 -0.161901,-0.359778 -0.35978,-0.359778 z m 19.409824,0 h 1.10815 1.108148 l -0.221349,4.946967 c -0.149268,3.341961 -0.104526,4.76628 0.137728,4.389733 0.197228,-0.306565 0.390058,-2.122552 0.428645,-4.035573 0.08376,-4.152641 0.270028,-5.303402 0.822152,-5.092427 0.29069,0.111071 0.379854,1.655509 0.302861,5.224533 -0.07804,3.617489 0.0042,4.997203 0.286699,4.822591 0.253174,-0.156468 0.371802,-1.562218 0.329563,-3.901359 -0.08589,-4.756088 -0.03899,-5.362107 0.392806,-5.095237 0.210979,0.130391 0.359781,2.222222 0.359781,5.057994 0,3.415005 0.12201,4.835943 0.415292,4.835943 0.303891,0 0.353703,-1.206467 0.186916,-4.497244 -0.144433,-2.849831 -0.09887,-4.497244 0.124377,-4.497244 0.212483,0 0.352753,1.927612 0.352753,4.857024 0,2.998161 0.137695,4.857022 0.35978,4.857022 0.220793,0 0.359778,-1.74846 0.359778,-4.526756 0,-3.311357 0.113383,-4.489433 0.423023,-4.386219 0.299732,0.09992 0.396937,1.380149 0.332375,4.385516 -0.06359,2.960506 0.02562,4.171658 0.295835,4.004656 0.238498,-0.147398 0.387886,-1.752116 0.387886,-4.17541 0,-2.384374 0.14185,-3.936494 0.359779,-3.936494 0.329696,0 0.582059,4.475534 0.390698,6.925754 -0.0425,0.544168 0.09513,0.989395 0.305672,0.989395 0.248349,0 0.38297,-1.453168 0.38297,-4.137464 0,-2.518457 0.140781,-4.137465 0.359779,-4.137465 0.218375,0 0.359779,1.579501 0.359779,4.018007 0,2.209642 0.120523,3.896662 0.267727,3.749577 0.147085,-0.147082 0.221844,-1.833317 0.166538,-3.74747 -0.126199,-4.368101 0.444371,-5.570435 0.76664,-1.615495 0.12606,1.546877 0.136213,3.158036 0.02249,3.580932 -0.113727,0.422894 -0.03101,0.878228 0.184105,1.011176 0.272905,0.168661 0.391402,-0.997242 0.391402,-3.857089 0,-2.254303 0.121425,-4.221578 0.269834,-4.371463 0.148411,-0.149882 0.455743,1.482848 0.683019,3.628012 l 0.413184,3.899955 -0.0028,-4.137466 c -0.0033,-4.985449 -0.0022,-4.994907 0.43567,-4.317354 0.19182,0.296819 0.351279,1.9469 0.354158,3.66666 0.0032,1.850058 0.164403,3.224849 0.394914,3.36731 0.270195,0.167072 0.35293,-0.597617 0.269834,-2.498077 -0.07509,-1.717364 0.01473,-2.694357 0.240323,-2.619645 0.197878,0.06553 0.408886,0.95618 0.468696,1.97949 0.134159,2.295351 0.790531,2.478615 0.790531,0.220646 0,-1.001878 0.140024,-1.553854 0.359779,-1.418037 0.197879,0.122297 0.35978,0.698352 0.35978,1.28031 0,0.581957 0.180292,1.058257 0.401238,1.058257 0.236696,0 0.32972,-0.377252 0.22627,-0.918421 -0.1474,-0.771077 -0.05429,-0.900939 0.580424,-0.809505 0.951192,0.137025 1.630963,1.856553 1.081446,2.736293 -0.20978,0.335847 -1.215907,0.91415 -2.235269,1.285228 -1.904562,0.693308 -2.481221,1.362251 -1.043503,1.210039 0.653785,-0.06921 0.832797,0.118659 0.930368,0.976042 0.213617,1.877127 -2.102748,2.712816 -3.538768,1.276796 -1.016454,-1.016454 -1.194136,-0.903531 -0.915612,0.581128 0.198706,1.05918 0.09457,1.459619 -0.562155,2.158678 -1.003433,1.068106 -2.228462,1.098269 -3.178989,0.078 -0.580329,-0.622911 -0.639765,-0.886133 -0.295132,-1.301389 0.354786,-0.427491 0.305658,-0.496099 -0.27616,-0.385077 -0.403359,0.07697 -0.757601,0.480873 -0.822854,0.938096 -0.063,0.441465 -0.463362,1.047104 -0.889611,1.345659 -0.426253,0.29856 -1.022317,0.537949 -1.324578,0.53194 -1.415119,-0.02815 -3.042624,-1.96763 -2.126354,-2.533915 0.262039,-0.161955 0.36441,-0.407149 0.22697,-0.544588 -0.137436,-0.137436 -0.780937,0.320344 -1.42928,1.016799 -0.648348,0.696457 -1.451887,1.357593 -1.785545,1.469333 -0.95517,0.319884 -2.451,-1.079192 -2.451,-2.292189 0,-0.954773 -0.08739,-1.026867 -1.01961,-0.840422 -0.834479,0.166894 -1.193707,-0.003 -1.978786,-0.935989 -0.927483,-1.102249 -1.228968,-2.632409 -0.683721,-3.469202 0.14538,-0.223118 0.952497,-0.520586 1.793978,-0.661236 1.287802,-0.215252 1.496472,-0.168874 1.318958,0.293727 -0.115998,0.302275 -0.04048,0.842601 0.167943,1.200905 0.316207,0.543605 0.380857,0.435532 0.389995,-0.653505 0.0064,-0.769091 0.256862,-1.50792 0.609939,-1.798899 0.54883,-0.4523 0.579775,-0.350446 0.366808,1.214959 -0.140845,1.035247 -0.09291,1.708952 0.120863,1.708952 0.194093,0 0.352752,-0.634276 0.352752,-1.409605 0,-1.621479 0.285182,-2.547969 0.784207,-2.547969 0.191054,0 0.308121,0.849979 0.259997,1.888841 -0.04812,1.038865 0.06094,1.969793 0.243131,2.068733 0.187701,0.101933 0.376411,-1.258409 0.434969,-3.139637 0.07683,-2.468694 -0.04074,-3.598731 -0.45886,-4.4073 z m 6.559652,0.210106 c 0.348466,-0.0029 0.558597,0.07872 0.616966,0.243834 0.0787,0.222635 0.516762,0.778164 0.973231,1.234633 1.225647,1.225649 -0.04589,1.025711 -2.363161,-0.371723 l -1.247985,-0.752585 1.247985,-0.257187 c 0.305289,-0.06305 0.563884,-0.09525 0.772964,-0.09697 z m 9.149082,0.273347 c -0.129015,-0.0217 -0.219945,0.05787 -0.219945,0.215024 0,0.209558 0.161901,0.38086 0.359781,0.38086 0.197878,0 0.359779,-0.07154 0.359779,-0.158809 0,-0.08725 -0.161901,-0.258563 -0.359779,-0.38086 -0.04948,-0.03057 -0.09683,-0.04899 -0.139836,-0.05622 z m -36.887942,0.31265 c 0.212352,0.0041 0.330266,0.08905 0.330266,0.250159 0,0.225906 -0.485702,0.508077 -1.079338,0.626804 -1.198566,0.239713 -1.416926,0.704314 -0.449724,0.957069 0.799224,0.208864 -2.690983,0.203688 -3.777685,-0.0057 -0.445228,-0.08576 -0.809504,-0.365218 -0.809504,-0.621182 0,-0.308727 0.756939,-0.535924 2.248621,-0.674586 1.236742,-0.114965 2.6129,-0.318045 3.058126,-0.451131 0.190527,-0.05695 0.351827,-0.08392 0.479238,-0.08152 z m 2.848722,0.283185 c -0.197879,0 -0.359778,0.161902 -0.359778,0.359781 0,0.197878 0.161899,0.359779 0.359778,0.359779 0.19788,0 0.35978,-0.161901 0.35978,-0.359779 0,-0.197879 -0.1619,-0.359781 -0.35978,-0.359781 z m 15.8303,0 c -0.197879,0 -0.359779,0.161902 -0.359779,0.359781 0,0.197878 0.1619,0.359779 0.359779,0.359779 0.197879,0 0.359779,-0.161901 0.359779,-0.359779 0,-0.197879 -0.1619,-0.359781 -0.359779,-0.359781 z m -26.979247,0.06465 c 0.275637,0 0.819825,0.09815 1.434901,0.295131 0.72306,0.231565 0.758337,0.290155 0.179891,0.298645 -0.395758,0.0058 -1.043361,-0.128596 -1.439119,-0.29866 -0.458402,-0.196966 -0.451314,-0.295116 -0.175673,-0.295116 z m 50.005135,0.295131 c -0.197878,0 -0.359778,0.161901 -0.359778,0.35978 0,0.197878 0.1619,0.35978 0.359778,0.35978 0.197879,0 0.35978,-0.161902 0.35978,-0.35978 0,-0.197879 -0.161901,-0.35978 -0.35978,-0.35978 z M 20.217584,62.5314 c -0.197879,0 -0.359778,0.161902 -0.359778,0.35978 0,0.197879 0.161899,0.359779 0.359778,0.359779 0.197879,0 0.359781,-0.1619 0.359781,-0.359779 0,-0.197878 -0.161902,-0.35978 -0.359781,-0.35978 z m 1.4602,0 c -0.209553,0 -0.38086,0.161902 -0.38086,0.35978 0,0.197879 0.07155,0.359779 0.158809,0.359779 0.08726,0 0.258563,-0.1619 0.38086,-0.359779 0.122295,-0.197878 0.05075,-0.35978 -0.158809,-0.35978 z m 3.247151,0.182701 c 0.221786,-0.02026 0.431576,0.05132 0.519291,0.193241 0.116952,0.189237 -0.120991,0.343617 -0.528426,0.343617 -0.868709,0 -0.95662,-0.200184 -0.212916,-0.485561 0.07262,-0.02787 0.148121,-0.04454 0.222051,-0.0513 z m 3.2078,0.177079 c -0.197879,0 -0.35978,0.1619 -0.35978,0.359779 0,0.197879 0.161901,0.359781 0.35978,0.359781 0.197878,0 0.359779,-0.161902 0.359779,-0.359781 0,-0.197879 -0.161901,-0.359779 -0.359779,-0.359779 z m 36.69751,0 c -0.197878,0 -0.35978,0.1619 -0.35978,0.359779 0,0.197879 0.161902,0.359781 0.35978,0.359781 0.197879,0 0.35978,-0.161902 0.35978,-0.359781 0,-0.197879 -0.161901,-0.359779 -0.35978,-0.359779 z m -20.147653,0.359781 c -0.197878,0 -0.359779,0.242851 -0.359779,0.539669 0,0.296819 0.161901,0.53967 0.359779,0.53967 0.197878,0 0.359781,-0.242851 0.359781,-0.53967 0,-0.296818 -0.161903,-0.539669 -0.359781,-0.539669 z m -15.3349,0.139836 c -0.0437,-0.0014 -0.09167,0.0125 -0.141943,0.04357 -0.201109,0.12429 -0.271952,0.377248 -0.158106,0.561455 0.308417,0.499027 0.524209,0.405694 0.524209,-0.226268 0,-0.231384 -0.09304,-0.374343 -0.22416,-0.378753 z m 38.746568,0.361185 c 0.357898,-0.0041 0.733026,0.0882 0.98869,0.304267 1.135287,0.959423 3.481234,2.160564 5.251237,2.688509 1.292293,0.38545 1.631529,0.613902 1.259228,0.849557 -0.689596,0.436499 -3.318916,0.355064 -5.726258,-0.177782 -2.198367,-0.48659 -3.244529,-0.967606 -3.948437,-1.815762 -0.819708,-0.987689 -0.122435,-1.007412 1.52344,-0.04287 1.807127,1.059047 2.065218,1.117285 2.065218,0.465886 0,-0.255901 -0.515992,-0.620177 -1.146093,-0.809504 -0.630104,-0.189331 -1.205542,-0.532568 -1.278905,-0.763126 -0.132983,-0.417914 0.415383,-0.692571 1.01188,-0.699181 z M 43.582173,64.69013 c -0.209557,0 -0.281105,0.161903 -0.158809,0.359781 0.122296,0.197878 0.2936,0.359779 0.38086,0.359779 0.08726,0 0.158809,-0.161901 0.158809,-0.359779 0,-0.197878 -0.171304,-0.359781 -0.38086,-0.359781 z M 30.980755,64.7344 c -0.124985,-0.0051 -0.267165,0.0176 -0.397023,0.06956 -0.28701,0.11485 -0.201988,0.200567 0.217134,0.217837 0.379268,0.01561 0.591764,-0.06948 0.47221,-0.189026 -0.05977,-0.05976 -0.167337,-0.09324 -0.292321,-0.09838 z m 10.243879,0.813019 c -0.04301,-0.0019 -0.09036,0.01158 -0.139837,0.04216 -0.197879,0.122297 -0.35978,0.374551 -0.35978,0.560752 0,0.1862 0.161901,0.338697 0.35978,0.338697 0.197879,0 0.359779,-0.252252 0.359779,-0.56075 0,-0.231377 -0.09092,-0.375146 -0.219942,-0.38086 z m -5.778257,0.0064 c -0.05144,0.0078 -0.102113,0.02584 -0.14897,0.05481 -0.187434,0.115837 -0.245837,0.36418 -0.129999,0.551614 0.115841,0.187435 0.36418,0.245841 0.551615,0.129998 0.187434,-0.115838 0.24584,-0.364181 0.129999,-0.551615 -0.08687,-0.140576 -0.248354,-0.208419 -0.402645,-0.18481 z m 4.040493,0.215727 c -0.08726,0 -0.258565,0.161901 -0.38086,0.359779 -0.122297,0.197879 -0.05075,0.35978 0.158809,0.35978 0.209557,0 0.38086,-0.161901 0.38086,-0.35978 0,-0.197878 -0.07154,-0.359779 -0.158809,-0.359779 z m 25.184567,0.359779 c -0.08725,0 -0.258565,0.161902 -0.38086,0.35978 -0.122298,0.197879 -0.05075,0.359779 0.158808,0.359779 0.209558,0 0.38086,-0.1619 0.38086,-0.359779 0,-0.197878 -0.07155,-0.35978 -0.158808,-0.35978 z m 5.555501,0 c -0.197879,0 -0.359781,0.161902 -0.359781,0.35978 0,0.197879 0.161902,0.359779 0.359781,0.359779 0.197878,0 0.359779,-0.1619 0.359779,-0.359779 0,-0.197878 -0.161901,-0.35978 -0.359779,-0.35978 z m 1.640091,0.35978 c -0.08726,0 -0.258568,0.161901 -0.380864,0.359779 -0.122296,0.197879 -0.05075,0.359781 0.158811,0.359781 0.209558,0 0.380859,-0.161902 0.380859,-0.359781 0,-0.197878 -0.07155,-0.359779 -0.158806,-0.359779 z m -41.042975,0.151049 c 0.302714,-0.0042 0.780936,0.0819 1.540306,0.257186 1.036407,0.239231 1.884627,0.53123 1.884627,0.648587 0,0.117353 -0.339827,0.858529 -0.755397,1.647114 -1.525414,2.894646 -4.053947,4.866326 -6.933486,5.406533 -0.773913,0.145183 -1.224351,0.389733 -1.045608,0.568478 0.833166,0.833164 7.987047,-1.909196 10.983113,-4.210544 1.625472,-1.248565 2.068732,-1.452231 2.068732,-0.950043 0,0.351518 0.24354,0.986218 0.541074,1.41101 0.508721,0.726302 0.460464,0.839381 -0.809504,1.888843 -1.722674,1.423557 -3.673942,2.361458 -6.354466,3.055314 -1.1692,0.302648 -2.869158,0.627355 -3.777684,0.721669 -1.821265,0.189063 -7.33348,-0.823898 -9.572806,-1.759549 L 17.167187,74.728858 19.502242,73.9053 c 3.704402,-1.306687 7.412551,-3.336298 9.11746,-4.990535 0.865139,-0.83943 1.637592,-1.73461 1.716681,-1.989327 0.05795,-0.186622 0.184956,-0.281095 0.487671,-0.285294 z m 4.901293,0.928259 c 0.465739,0 0.664189,0.167528 0.532643,0.449723 -0.115303,0.24735 -0.310013,0.733052 -0.432157,1.07934 -0.122146,0.346287 -0.364872,0.629614 -0.539671,0.629614 -0.174801,0 -0.31099,0.202376 -0.302861,0.449724 0.0081,0.247349 0.636845,-0.238354 1.39766,-1.079338 0.760816,-0.840984 1.644629,-1.529063 1.964031,-1.529063 0.854152,0 0.736814,0.221407 -0.910691,1.710358 -2.402339,2.171136 -3.579015,2.930933 -4.179628,2.700455 -0.345718,-0.132661 -0.471544,-0.06747 -0.32605,0.167943 0.130262,0.21077 -0.01841,0.481127 -0.330266,0.600804 -1.207453,0.463339 -1.259708,0.169104 -0.187619,-1.051934 0.612917,-0.69808 1.442173,-1.912336 1.843167,-2.698346 0.493945,-0.968209 0.968592,-1.42928 1.471442,-1.42928 z m 27.66578,0 c -0.197879,0 -0.35978,0.1619 -0.35978,0.35978 0,0.197878 0.161901,0.359779 0.35978,0.359779 0.197879,0 0.359781,-0.161901 0.359781,-0.359779 0,-0.19788 -0.161902,-0.35978 -0.359781,-0.35978 z m -22.845999,0.71951 c -0.320175,0 -0.482076,0.1619 -0.359779,0.359777 0.122296,0.19788 0.284197,0.35978 0.359779,0.35978 0.07558,0 0.237484,-0.1619 0.359779,-0.35978 0.122296,-0.197877 -0.0396,-0.359777 -0.359779,-0.359777 z m 1.058257,1.439117 c -0.308503,0 -0.460994,0.161901 -0.338698,0.35978 0.122296,0.197878 0.374549,0.359779 0.560751,0.359779 0.186199,0 0.338698,-0.161901 0.338698,-0.359779 0,-0.197879 -0.252255,-0.35978 -0.560751,-0.35978 z m 1.66117,1.079339 c -0.209558,0 -0.38086,0.1619 -0.38086,0.359779 0,0.197879 0.07154,0.35978 0.158809,0.35978 0.08725,0 0.258564,-0.161901 0.38086,-0.35978 0.122296,-0.197879 0.05075,-0.359779 -0.158809,-0.359779 z m 1.396956,0.719559 c -0.209557,0 -0.281105,0.1619 -0.158809,0.35978 0.122297,0.197877 0.2936,0.35978 0.380862,0.35978 0.08725,0 0.158809,-0.161903 0.158809,-0.35978 0,-0.19788 -0.171304,-0.35978 -0.380862,-0.35978 z m 12.094776,0.71956 c -0.08726,0 -0.258564,0.161899 -0.38086,0.359777 -0.122297,0.19788 -0.05075,0.35978 0.158809,0.35978 0.209556,0 0.38086,-0.1619 0.38086,-0.35978 0,-0.197878 -0.07155,-0.359777 -0.158809,-0.359777 z"
     style="fill:#000000;stroke-width:0.35977954" />
</svg>
