<?xml version="1.0" encoding="UTF-8" standalone="no"?>
<svg
   xmlns:dc="http://purl.org/dc/elements/1.1/"
   xmlns:cc="http://creativecommons.org/ns#"
   xmlns:rdf="http://www.w3.org/1999/02/22-rdf-syntax-ns#"
   xmlns:svg="http://www.w3.org/2000/svg"
   xmlns="http://www.w3.org/2000/svg"
   id="svgBG1"
   version="1.1"
   viewBox="0 0 100 100"
   height="100"
   width="100">
  <defs
     id="defs6029" />
  <metadata
     id="metadata6032">
    <rdf:RDF>
      <cc:Work
         rdf:about="">
        <dc:format>image/svg+xml</dc:format>
        <dc:type
           rdf:resource="http://purl.org/dc/dcmitype/StillImage" />
        <dc:title></dc:title>
      </cc:Work>
    </rdf:RDF>
  </metadata>
  <path
     id="pathBG1"
     d="m 52.563876,90.538421 c -2.204608,-1.52836 -3.629544,-4.406617 -3.643097,-7.358766 -0.0033,-0.739797 -0.175701,-2.112467 -0.382903,-3.050376 C 48.330679,79.19137 47.949739,76.776786 47.691353,74.763538 46.683529,66.911095 43.954435,60.41231 40.069614,56.613922 38.027444,54.617186 28.650822,47.854463 28.403083,48.199644 c -0.05026,0.07002 -0.58035,0.785162 -1.177993,1.589204 -1.744694,2.347244 -1.33921,5.19795 0.667709,4.694244 0.895273,-0.224699 1.062844,-0.100362 1.29612,0.961743 0.184241,0.838841 0.51187,1.219808 1.049033,1.219808 0.429614,0 0.781117,-0.183022 0.781117,-0.406717 0,-0.755114 1.123476,-0.413606 1.337997,0.406717 0.21634,0.827287 1.915737,1.188076 1.915737,0.406717 0,-0.223694 0.251656,-0.406717 0.559236,-0.406717 0.30758,0 0.669049,-0.549067 0.803265,-1.22015 0.134217,-0.671083 0.45121,-1.22015 0.704429,-1.22015 0.291121,0 0.340922,0.261693 0.135449,0.711754 -0.178722,0.391465 -0.39752,2.679246 -0.486216,5.083959 -0.182925,4.959435 -0.90273,5.99156 -0.90273,1.294421 0,-2.805223 -0.06638,-3.056716 -0.749526,-2.839891 -0.443871,0.140878 -1.188633,-0.107512 -1.826299,-0.609099 -0.592224,-0.465842 -1.271963,-0.726352 -1.51053,-0.578909 -0.809232,0.500131 -2.421113,-0.18986 -2.421113,-1.0364 0,-1.608641 -0.685216,-0.744267 -1.58449,1.998773 -1.29636,3.954263 -2.846722,5.427977 -4.109543,3.906369 -0.278475,-0.335542 -0.941464,-0.610076 -1.47331,-0.610076 -0.536902,0 -0.966991,-0.242305 -0.966991,-0.544789 0,-0.299636 -0.431521,-0.741408 -0.958936,-0.981712 -0.588833,-0.268291 -1.055828,-0.921381 -1.209983,-1.692154 -0.196378,-0.981895 -0.462495,-1.255229 -1.222082,-1.255229 -0.534065,0 -1.661947,-0.549068 -2.506388,-1.22015 -0.84445,-0.671083 -1.672447,-1.220151 -1.839989,-1.220151 -0.16755,0 -0.401853,-0.503312 -0.52068,-1.118471 -0.118819,-0.615159 -0.40602,-1.85056 -0.638225,-2.745337 -0.264798,-1.020392 -0.277282,-1.677406 -0.03344,-1.762439 0.81975,-0.285909 0.340975,-0.759295 -0.588281,-0.581657 -1.2186919,0.232967 -2.6834594,-1.127834 -2.6834594,-2.492991 0,-0.535305 -0.274535,-1.078625 -0.6100779,-1.207387 -0.3355429,-0.128759 -0.6100779,-0.676488 -0.6100779,-1.217174 0,-0.540684 -0.27217,-1.507297 -0.604828,-2.148027 C 6.0853279,40.716848 5.906437,39.898165 6.0204562,39.538283 6.1344668,39.178399 5.9383272,38.643723 5.584513,38.350114 5.0905855,37.940186 5.0083697,37.431247 5.2303005,36.15743 c 0.1589564,-0.912367 0.3428374,-2.390939 0.4086361,-3.285716 0.2905104,-3.950929 0.5294128,-5.177926 1.1394215,-5.85198 0.3581457,-0.395747 0.6511772,-1.043512 0.6511772,-1.43948 0,-0.395968 0.2549384,-1.29667 0.5665269,-2.001558 0.3115972,-0.70489 0.6785623,-1.619283 0.8154876,-2.031985 0.1369253,-0.412703 0.6140804,-0.84585 1.0603331,-0.962549 0.5155511,-0.134818 0.8113811,-0.555024 0.8113811,-1.152485 0,-0.88753 0.641388,-1.80701 1.754082,-2.514621 0.271573,-0.172707 0.676925,-0.86308 0.900771,-1.534162 0.223854,-0.671083 0.823865,-1.403174 1.333352,-1.626867 0.509487,-0.223694 1.030054,-0.818518 1.156817,-1.32183 0.126764,-0.503312 0.440016,-0.915113 0.696107,-0.915113 0.25609,0 1.001396,-0.56765 1.656228,-1.261446 1.023033,-1.083906 1.392937,-1.228612 2.628218,-1.028153 1.126345,0.182781 1.642542,0.04078 2.384072,-0.655857 0.79715,-0.7488839 1.072061,-0.8107079 1.742666,-0.391908 0.624976,0.390303 0.966254,0.391046 1.586892,0.0035 0.645242,-0.4029599 0.926482,-0.3708909 1.528958,0.174343 0.547633,0.4956 1.187836,0.607832 2.479208,0.434623 1.452973,-0.194885 1.90733,-0.07718 2.746953,0.711601 0.776225,0.729226 1.116276,0.834857 1.488696,0.462436 0.761581,-0.761581 2.507834,-0.573601 3.072617,0.33076 0.279399,0.447389 0.756298,0.813434 1.059777,0.813434 0.303478,0 1.067488,0.405657 1.697799,0.90146 0.630312,0.495802 1.707373,1.182136 2.393472,1.525187 0.822024,0.411014 1.288642,0.977218 1.368236,1.660244 0.08365,0.717845 0.489752,1.175785 1.320902,1.489509 0.660065,0.249146 1.327662,0.785368 1.483548,1.191601 0.155887,0.406236 0.79688,1.170651 1.424436,1.698701 0.627552,0.528046 1.141003,1.309862 1.141003,1.737366 0,0.427504 0.174437,0.777279 0.387633,0.777279 0.213202,0 0.687681,0.632301 1.054406,1.405113 0.860515,1.813402 0.325512,3.598792 -1.65306,5.516496 -1.587713,1.538873 -1.809182,2.873007 -0.615058,3.705097 0.454934,0.317008 1.002655,1.436289 1.268192,2.591588 0.257078,1.118471 0.628813,2.351389 0.826082,2.739819 1.100357,2.166633 0.05756,4.385682 -2.590025,5.511536 -0.615159,0.261589 -1.11847,0.618092 -1.11847,0.792232 0,0.64493 1.944435,7.2736 2.536953,8.648591 l 0.613426,1.423509 0.286678,-1.22015 c 0.157672,-0.671083 0.436102,-1.586196 0.61873,-2.033584 0.182628,-0.447389 0.650572,-1.728546 1.039865,-2.847017 0.975266,-2.801995 4.427494,-9.074121 6.525335,-11.855458 0.858245,-1.13787 0.896163,-1.338826 0.339755,-1.800604 -1.029262,-0.854211 -1.731658,-2.555954 -2.017372,-4.887636 -0.179488,-1.464778 -0.797999,-3.105185 -1.852672,-4.91363 -1.846324,-3.165891 -1.971202,-4.458498 -0.566439,-5.863261 0.559236,-0.559235 1.016792,-1.197935 1.016792,-1.419331 0,-1.052369 1.371892,-2.407504 2.437279,-2.407504 0.617966,0 1.351414,-0.274534 1.629888,-0.610075 0.583834,-0.703476 2.265466,-0.815287 2.660034,-0.176864 0.175722,0.284327 0.528215,0.197485 1.025646,-0.252685 0.421282,-0.381253 1.051472,-0.573247 1.418852,-0.432268 0.413562,0.158697 0.934586,-0.0843 1.39204,-0.649237 0.634092,-0.783067 0.820519,-0.828651 1.405028,-0.343553 0.510458,0.423643 0.788132,0.445107 1.144749,0.08849 0.836258,-0.836258 2.323759,-0.548518 2.82244,0.545969 0.53983,1.184795 0.847186,1.257005 1.581961,0.371657 0.357052,-0.430221 0.91035,-0.57015 1.660897,-0.420039 0.619018,0.123803 1.234894,0.04807 1.368613,-0.168299 0.469669,-0.759937 1.83956,-0.393126 2.29918,0.615647 0.36246,0.7955 0.66548,0.957408 1.431864,0.765058 0.811294,-0.203621 1.050483,-0.03634 1.445872,1.011178 0.382724,1.013937 0.647366,1.211593 1.377016,1.028461 0.711042,-0.178459 1.041551,0.04075 1.553186,1.030157 0.401818,0.777018 0.964438,1.256856 1.473691,1.256856 0.553861,0 1.014807,0.457276 1.406905,1.395697 0.320737,0.767633 0.748675,1.497994 0.950983,1.623024 0.2023,0.12503 0.48147,0.680162 0.620388,1.233625 0.138909,0.553465 0.708252,1.461988 1.265205,2.01894 0.556954,0.556953 1.012641,1.377911 1.012641,1.824351 0,0.446442 0.286656,0.972135 0.637022,1.168207 0.866532,0.484936 2.205727,6.0521 2.36989,9.851843 0.04349,1.006624 0.23153,2.346937 0.417871,2.978474 0.219072,0.74246 0.176847,1.310206 -0.119486,1.606532 -0.252053,0.252055 -0.458277,1.140696 -0.458277,1.974753 0,0.850449 -0.287005,1.803476 -0.653477,2.169948 -0.551175,0.551178 -0.575285,0.842237 -0.154018,1.859278 0.369348,0.891693 0.384959,1.49716 0.05995,2.324272 -0.241744,0.615159 -0.55763,1.798285 -0.701971,2.629167 -0.144332,0.830886 -0.517812,1.722653 -0.829955,1.981707 -0.312135,0.259054 -0.573345,1.043419 -0.580458,1.743034 -0.01351,1.326555 -0.785867,2.695539 -1.520811,2.695539 -0.235004,0 -0.825971,0.823601 -1.313271,1.830225 -0.4873,1.006625 -1.144203,1.830226 -1.459794,1.830226 -0.315583,0 -0.573796,0.32532 -0.573796,0.722935 0,1.061705 -1.155951,2.530799 -1.991356,2.530799 -0.398803,0 -0.942675,0.477546 -1.208607,1.061213 -0.38813,0.851844 -0.661799,1.003257 -1.387118,0.767446 -0.496977,-0.161576 -1.330614,-0.291493 -1.852525,-0.288704 -0.797649,0.0042 -0.910126,-0.149549 -0.705514,-0.964772 0.29518,-1.176123 -0.813677,-6.28329 -1.593558,-7.33957 -0.449622,-0.608956 -0.66341,-0.658902 -1.076483,-0.251477 -0.283494,0.279618 -0.81064,0.508396 -1.171438,0.508396 -0.909756,0 -2.638306,1.95933 -3.193146,3.619462 -0.571025,1.708576 -0.616167,7.36189 -0.05878,7.36189 0.221798,0 0.631867,-0.366045 0.911265,-0.813433 0.279398,-0.447389 0.738508,-0.813434 1.020241,-0.813434 0.281732,0 0.512239,0.366045 0.512239,0.813434 0,1.262005 0.804795,0.95831 1.0778,-0.406717 0.247393,-1.23696 0.701118,-1.554529 1.160065,-0.811941 0.138756,0.224516 0.72249,0.290197 1.297178,0.145958 0.786041,-0.197282 0.998797,-0.122084 0.858822,0.303545 -0.102341,0.311187 -0.666529,0.622867 -1.253744,0.692614 -0.61384,0.07291 -1.171225,0.453058 -1.311271,0.894309 -0.309189,0.974168 -1.814509,1.490386 -2.257216,0.774068 -0.263581,-0.426483 -0.541153,-0.431137 -1.434604,-0.02404 -0.692996,0.315751 -1.251235,0.361299 -1.49089,0.121645 -0.50447,-0.504471 -0.434771,-6.013433 0.106654,-8.429375 0.346014,-1.543986 0.310065,-2.081434 -0.190302,-2.84509 -0.339296,-0.517827 -0.736484,-1.95895 -0.882637,-3.202495 -0.146154,-1.243561 -0.34595,-2.261004 -0.443988,-2.261004 -0.09804,0 -1.21673,0.783882 -2.485983,1.741964 -1.269249,0.958078 -3.405863,2.468014 -4.748028,3.355413 -7.347716,4.858082 -11.941529,12.994332 -10.805736,19.138398 0.782438,4.2326 2.533053,6.267981 5.391039,6.267981 1.521304,0 2.333806,-0.948626 2.351388,-2.745338 0.01517,-1.551274 0.256151,-1.63481 1.287055,-0.446164 1.552894,1.790502 0.701896,6.318458 -1.435816,7.639637 -1.737229,1.073667 -5.311553,1.148727 -6.76367,0.142038 z m 5.866596,-0.682613 c 1.358011,-0.567414 2.278919,-2.198368 2.278919,-4.036037 0,-1.093914 -0.513166,-0.540462 -0.644951,0.695579 -0.143904,1.349727 -1.385855,2.686632 -2.495813,2.686632 -0.509522,0 -0.926403,-0.183022 -0.926403,-0.406716 0,-0.223695 0.254259,-0.406717 0.565019,-0.406717 0.756765,0 2.556548,-1.485362 2.215154,-1.828168 -0.148614,-0.149228 -0.668495,-0.05816 -1.155299,0.202366 -0.679791,0.363813 -1.287515,0.354869 -2.619987,-0.03855 -2.058113,-0.607687 -3.724635,-2.894159 -4.53076,-6.21621 l -0.5057,-2.083983 -0.03457,1.704541 c -0.01903,0.937498 -0.232073,1.826594 -0.473443,1.975769 -0.701346,0.433454 0.0144,4.267748 1.092978,5.854989 0.526731,0.775161 1.372881,1.639926 1.880333,1.921699 1.231294,0.683716 3.685545,0.672173 5.35454,-0.02518 z m -3.415115,-0.857184 c 0,-0.335541 0.183022,-0.610075 0.406717,-0.610075 0.223694,0 0.406716,0.274534 0.406716,0.610075 0,0.335541 -0.183022,0.610076 -0.406716,0.610076 -0.223695,0 -0.406717,-0.274535 -0.406717,-0.610076 z m -1.888589,-0.924158 c -0.941419,-0.758828 -1.66514,-2.532934 -1.033272,-2.532934 0.21268,0 0.485966,0.379629 0.607301,0.843616 0.121336,0.46399 0.600236,0.942891 1.064227,1.064227 0.463987,0.121336 0.843616,0.473801 0.843616,0.783251 0,0.74249 -0.420138,0.697649 -1.481872,-0.15816 z m -2.585295,-3.956443 c 0,-0.559236 0.183022,-1.016791 0.406716,-1.016791 0.223695,0 0.406717,0.457555 0.406717,1.016791 0,0.559236 -0.183022,1.016792 -0.406717,1.016792 -0.223694,0 -0.406716,-0.457556 -0.406716,-1.016792 z m -0.336188,-5.897392 c 0.232768,0 0.308967,-0.297734 0.169328,-0.661627 -0.139641,-0.363893 -0.08816,-0.867205 0.114414,-1.118471 0.202569,-0.251265 0.737479,-1.772414 1.188695,-3.380333 1.48842,-5.304045 5.337856,-9.97343 11.647797,-14.128856 4.249947,-2.798804 9.101297,-7.336608 11.19411,-10.470625 1.491931,-2.23418 1.644999,-2.70432 1.644999,-5.052487 0,-1.426588 -0.300189,-3.36889 -0.668578,-4.325857 -0.879471,-2.284631 -4.001072,-5.503429 -5.830008,-6.01154 -2.923223,-0.812123 -4.174439,-0.52942 -7.265998,1.641697 -1.600943,1.124297 -2.910803,2.115952 -2.910803,2.203678 0,0.08773 -0.122544,0.494759 -0.272325,0.90452 -0.256773,0.702477 -0.221795,0.700648 0.612573,-0.03203 0.486689,-0.427376 1.007713,-0.654222 1.157837,-0.504101 0.378327,0.37833 -1.382606,1.9534 -2.020212,1.80698 -0.615801,-0.141413 -0.766469,0.246061 -0.433291,1.114306 0.315218,0.821454 -0.208592,1.345722 -0.642722,0.643283 -0.23363,-0.378022 -0.417226,-0.404993 -0.611967,-0.0899 -0.153011,0.247577 -0.08437,0.45014 0.152519,0.45014 0.236896,0 0.430721,0.191045 0.430721,0.424545 0,0.2335 -0.301304,0.370767 -0.669561,0.305038 -0.368258,-0.06573 -0.749555,0.10927 -0.847325,0.388887 -0.09777,0.279618 0.0205,0.508397 0.262844,0.508397 0.242334,0 0.440609,0.195354 0.440609,0.434124 0,0.238768 -0.337449,0.327021 -0.749888,0.196119 -0.610803,-0.193861 -0.987977,0.278532 -2.033584,2.547011 -1.357893,2.945988 -1.470147,3.330213 -0.972923,3.330213 0.170922,0 0.627937,-0.73209 1.015584,-1.626867 0.387645,-0.894777 0.888374,-1.626867 1.112736,-1.626867 0.527223,0 0.528044,0.691191 0.0012,1.016791 -0.223695,0.138252 -0.406717,0.60661 -0.406717,1.040797 0,0.434186 -0.166936,0.789429 -0.370966,0.789429 -0.204034,0 -0.497215,0.747252 -0.651516,1.660555 -0.248992,1.473771 -0.384668,1.634429 -1.206183,1.428239 -0.847239,-0.212643 -0.971394,-0.02603 -1.465966,2.203254 -0.29718,1.339562 -0.639843,2.433471 -0.761471,2.430905 -0.511951,-0.0108 -2.544689,-5.537993 -3.887333,-10.56997 C 45.828532,42.929152 42.33442,35.23217 40.282925,32.016049 37.833461,28.176034 34.055339,26.160888 29.305306,26.160888 c -2.784798,0 -4.526749,0.668644 -6.217226,2.386471 -1.840644,1.870422 -2.085799,2.221756 -2.661792,3.814636 -0.615538,1.702239 -0.0506,5.076461 1.29369,7.726976 0.941299,1.855933 4.103969,5.155635 6.059201,6.321733 0.790551,0.471482 1.980197,1.324075 2.643659,1.894646 0.663461,0.570565 1.342899,1.037623 1.50986,1.037895 0.502114,8.14e-4 6.089934,4.055621 7.773018,5.640491 1.793828,1.689147 4.290663,4.927638 5.290381,6.861824 1.153107,2.230955 3.406077,10.718214 3.699032,13.93477 0.152803,1.677707 0.397793,3.416421 0.544423,3.863809 0.230482,0.70323 0.285291,0.661903 0.404553,-0.305038 0.07587,-0.615159 0.328399,-1.11847 0.561167,-1.11847 z m -0.574362,-3.174465 c -0.338164,-1.293136 0.149538,-3.333003 0.796869,-3.333003 0.386795,0 0.517758,0.233675 0.360554,0.64334 -0.135782,0.353836 -0.246873,1.268948 -0.246873,2.033584 0,1.471217 -0.586815,1.894035 -0.91055,0.656079 z m 0.503833,-5.163229 c 0,-0.335541 0.183023,-0.610075 0.406717,-0.610075 0.223694,0 0.406716,0.274534 0.406716,0.610075 0,0.335542 -0.183022,0.610076 -0.406716,0.610076 -0.223694,0 -0.406717,-0.274534 -0.406717,-0.610076 z m 0,-1.830225 c 0,-0.223694 0.183023,-0.406717 0.406717,-0.406717 0.223694,0 0.406716,0.183023 0.406716,0.406717 0,0.223694 -0.183022,0.406717 -0.406716,0.406717 -0.223694,0 -0.406717,-0.183023 -0.406717,-0.406717 z m 1.22015,0 c 0,-0.223694 0.183023,-0.406717 0.406717,-0.406717 0.223694,0 0.406717,0.183023 0.406717,0.406717 0,0.223694 -0.183023,0.406717 -0.406717,0.406717 -0.223694,0 -0.406717,-0.183023 -0.406717,-0.406717 z m -1.126942,-1.296409 c 0.251379,-0.754143 1.126942,-0.879225 1.126942,-0.160992 0,0.354182 -0.289785,0.643968 -0.643966,0.643968 -0.354186,0 -0.571522,-0.217342 -0.482976,-0.482976 z m 0.313509,-2.770758 c 0,-0.223695 0.17222,-0.406717 0.382713,-0.406717 0.210491,0 0.495828,0.183022 0.634079,0.406717 0.138251,0.223694 -0.03396,0.406716 -0.382712,0.406716 -0.348744,0 -0.63408,-0.183022 -0.63408,-0.406716 z m 4.880601,-1.186885 c 0,-0.841107 0.529399,-1.660133 1.073069,-1.660133 0.31863,0 0.696441,-0.320289 0.839577,-0.711754 0.333805,-0.912917 3.418902,-3.74885 4.086426,-3.756387 0.843299,-0.0095 0.573259,0.635524 -0.508396,1.214407 -0.559236,0.299295 -1.016792,0.707069 -1.016792,0.906165 0,0.199096 -0.173839,0.254552 -0.386312,0.12324 -0.212468,-0.131317 -0.582789,0.128372 -0.82293,0.577086 -0.240146,0.44871 -0.889909,1.269119 -1.443918,1.823128 -0.554009,0.554009 -1.007291,1.198635 -1.007291,1.432497 0,0.233862 -0.183022,0.425202 -0.406717,0.425202 -0.223694,0 -0.406716,-0.168055 -0.406716,-0.373451 z m -4.473885,-0.846699 c 0,-0.223694 0.274534,-0.406717 0.610076,-0.406717 0.335541,0 0.610075,0.183023 0.610075,0.406717 0,0.223694 -0.274534,0.406717 -0.610075,0.406717 -0.335542,0 -0.610076,-0.183023 -0.610076,-0.406717 z m 2.960561,-3.965489 c 0.548994,-9.390723 4.589046,-17.850004 9.906392,-20.742554 3.732292,-2.030305 8.10242,-0.420972 9.047369,3.331761 0.635303,2.523021 0.577619,3.268976 -0.404098,5.225495 -1.224047,2.439475 -4.680105,5.519707 -10.325513,9.202678 -1.789554,1.167472 -4.302624,3.208401 -5.584595,4.535396 -1.281975,1.32699 -2.452482,2.412713 -2.601124,2.412713 -0.148643,0 -0.165937,-1.78447 -0.03843,-3.965489 z m 1.581112,1.220151 c 0.2161,-0.486235 4.13107,-3.974513 5.017302,-4.470476 0.443041,-0.247939 0.687607,-0.568716 0.543483,-0.712841 -0.424918,-0.424917 -2.046582,0.680238 -3.869161,2.636814 -1.782123,1.913143 -2.494317,2.085766 -1.620014,0.39267 0.948821,-1.837401 1.541025,-4.652763 1.409042,-6.698641 L 56.83973,48.32695 56.313312,49.953817 c -0.472788,1.461126 -0.82511,3.26051 -1.57281,8.032655 -0.147984,0.944495 -0.07663,1.525188 0.187411,1.525188 0.234504,0 0.487381,-0.137267 0.561949,-0.305037 z m 4.403525,-6.30411 c 0.0012,-0.167771 -0.354852,-0.305037 -0.791702,-0.305037 -0.711726,0 -0.774051,-0.221909 -0.599736,-2.135263 0.131605,-1.444561 0.07742,-1.872138 -0.167519,-1.321829 -0.199128,0.447388 -0.445338,1.838375 -0.54714,3.091083 l -0.185084,2.277654 1.144306,-0.650787 c 0.629365,-0.357931 1.145461,-0.78805 1.146875,-0.955821 z m 3.052947,0.508396 c 0.13825,-0.223694 -0.03396,-0.406717 -0.382713,-0.406717 -0.348743,0 -0.634079,0.183023 -0.634079,0.406717 0,0.223694 0.17222,0.406717 0.382712,0.406717 0.210492,0 0.495829,-0.183023 0.63408,-0.406717 z m -1.253416,-1.060306 c 0.933854,-0.358354 0.790397,-0.935579 -0.170093,-0.684407 -0.447389,0.116996 -0.813434,0.374395 -0.813434,0.571998 0,0.42521 0.129743,0.44004 0.983527,0.112409 z m 3.06278,-0.338067 c 0.267001,-0.321717 1.541827,-1.358337 2.832945,-2.303599 3.200576,-2.343222 4.217319,-3.931442 4.433932,-6.926092 0.173075,-2.392699 0.157367,-2.434357 -1.519107,-4.029151 -2.009299,-1.911397 -3.45034,-2.078281 -6.012888,-0.696342 -3.213156,1.732803 -4.99218,3.832686 -6.917556,8.165189 -0.506546,1.13984 -0.500746,1.147124 0.702729,0.882794 1.119708,-0.245929 1.213488,-0.179163 1.213488,0.863924 0,2.122813 0.784732,0.408474 1.284497,-2.806126 0.512821,-3.298596 1.021612,-3.846696 2.1179,-2.281526 0.585725,0.836242 0.612939,0.817569 1.037584,-0.711755 0.239845,-0.863786 0.437107,-1.799298 0.438351,-2.078916 0.0012,-0.279618 0.07881,-0.508396 0.172362,-0.508396 0.09355,0 0.459598,-0.111093 0.813433,-0.246873 0.524743,-0.201362 0.646155,0.0798 0.658613,1.525188 l 0.01526,1.772061 1.358925,-1.587625 c 0.923557,-1.078984 1.570179,-1.506559 2.018316,-1.334594 0.679611,0.260791 0.908793,1.326033 0.337026,1.566496 -0.1773,0.07457 -0.741294,0.821907 -1.253322,1.66076 -0.926631,1.518091 -0.927021,1.525188 -0.08436,1.525188 0.963293,0 1.013758,0.147862 0.425581,1.246888 -0.249456,0.466113 -0.87098,0.798344 -1.525188,0.815284 -0.607289,0.01574 -1.470208,0.178585 -1.917596,0.361921 -0.759182,0.311106 -0.738837,0.362779 0.305038,0.774783 0.615159,0.242793 1.11847,0.592391 1.11847,0.776882 0,0.667592 -0.998835,1.31156 -2.034319,1.31156 -0.930544,0 -1.063068,0.171728 -1.09855,1.423508 -0.0431,1.520226 0.294702,1.782896 1.078426,0.838569 z m -3.645817,-2.59112 c -0.0054,-0.592695 -0.06072,-0.603433 -0.40049,-0.07768 -0.51474,0.796502 -0.51474,1.334918 0,1.016792 0.223695,-0.138251 0.403915,-0.560854 0.40049,-0.939117 z m 3.963244,-0.730117 c -0.135152,-0.135148 -0.485946,-0.149595 -0.779542,-0.03209 -0.324451,0.129832 -0.228079,0.226208 0.245725,0.245722 0.428745,0.01765 0.668964,-0.07847 0.533817,-0.213616 z m -1.347299,-2.04943 c 0.387492,-1.009779 -0.03962,-1.14766 -0.557491,-0.17998 -0.249846,0.466846 -0.284229,0.848269 -0.07646,0.848269 0.207629,0 0.492913,-0.30073 0.633958,-0.668289 z m 2.270883,-0.958578 c 0,-0.223694 -0.183022,-0.406717 -0.406717,-0.406717 -0.223694,0 -0.406716,0.183023 -0.406716,0.406717 0,0.223694 0.183022,0.406717 0.406716,0.406717 0.223695,0 0.406717,-0.183023 0.406717,-0.406717 z M 51.354906,60.4025 c 0,-0.218403 0.289826,-0.50831 0.644061,-0.644243 0.396105,-0.152003 0.582044,-0.0611 0.482976,0.236103 -0.202659,0.607976 -1.127037,0.942724 -1.127037,0.40814 z m 0.406717,-2.517707 c 0,-0.447388 0.183022,-0.813433 0.406717,-0.813433 0.223694,0 0.406716,0.366045 0.406716,0.813433 0,0.447389 -0.183022,0.813434 -0.406716,0.813434 -0.223695,0 -0.406717,-0.366045 -0.406717,-0.813434 z m 11.388069,-1.9343 c 0,-0.45828 2.442395,-1.452909 2.768057,-1.127252 0.154573,0.154573 -0.07394,0.540613 -0.50781,0.857863 -0.838915,0.613427 -2.260247,0.782833 -2.260247,0.269389 z m -10.981352,-0.506 c 0,-0.223694 0.183022,-0.406717 0.406716,-0.406717 0.223695,0 0.406717,0.183023 0.406717,0.406717 0,0.223694 -0.183022,0.406717 -0.406717,0.406717 -0.223694,0 -0.406716,-0.183023 -0.406716,-0.406717 z m -9.761202,-2.76048 c -1.454012,-1.438537 -2.922396,-2.732836 -3.263076,-2.876215 -1.77157,-0.74561 -9.198709,-6.536036 -11.395063,-8.883943 -2.80518,-2.998746 -3.644114,-4.608207 -3.644114,-6.99108 0,-1.823163 1.461752,-3.914161 3.197645,-4.574146 1.780921,-0.677104 4.692934,0.303435 6.665613,2.24446 3.26081,3.208487 9.840712,15.190482 11.017546,20.062949 0.312835,1.295222 0.70382,2.675236 0.868857,3.066701 0.589068,1.397239 -0.796852,0.573616 -3.447408,-2.048726 z M 34.881932,33.960026 c -1.135101,-1.715254 -2.738793,-3.042761 -4.258477,-3.525089 -0.91553,-0.290578 -0.940056,-0.264301 -0.326222,0.349534 0.365054,0.365054 0.843517,0.663734 1.063253,0.663734 0.219735,0 1.182103,0.915112 2.138596,2.033584 2.059452,2.408213 2.838295,2.677564 1.38285,0.478237 z m 31.521494,20.484895 c 0,-0.102378 1.006624,-1.168944 2.236942,-2.370149 1.230318,-1.201206 2.236942,-1.922742 2.236942,-1.603416 0,0.516562 -1.587635,2.226713 -3.389724,3.651308 -0.66215,0.523444 -1.08416,0.648884 -1.08416,0.322257 z m -13.82837,-1.034012 c 0,-0.223694 0.183023,-0.406717 0.406717,-0.406717 0.223694,0 0.406717,0.183023 0.406717,0.406717 0,0.223694 -0.183023,0.406717 -0.406717,0.406717 -0.223694,0 -0.406717,-0.183023 -0.406717,-0.406717 z m 19.115688,-4.081471 c 0,-0.235351 0.439579,-0.90198 0.976839,-1.481393 0.537261,-0.579413 1.081753,-1.578049 1.209983,-2.219189 0.12823,-0.641144 0.42074,-1.165715 0.650026,-1.165715 0.622522,0 0.508462,0.774567 -0.385351,2.616929 -0.780831,1.609468 -2.451497,3.142388 -2.451497,2.249368 z m -16.26867,-4.416065 c 0,-0.199764 0.24403,-0.456845 0.542287,-0.571299 0.298262,-0.114454 0.542292,0.04899 0.542292,0.363202 0,0.314213 -0.24403,0.571298 -0.542292,0.571298 -0.298257,0 -0.542287,-0.163443 -0.542287,-0.363201 z m 18.677852,-1.97542 c -0.01712,-0.615159 -0.098,-1.484516 -0.179748,-1.931904 -0.08175,-0.447389 -0.259058,-1.408257 -0.394027,-2.135264 -0.276414,-1.488876 0.388182,-1.833919 0.750652,-0.389723 0.582984,2.32278 0.76789,5.575362 0.316955,5.575362 -0.254491,0 -0.476717,-0.503312 -0.493832,-1.118471 z M 61.522825,36.556168 c 0,-0.348744 0.183022,-0.634078 0.406717,-0.634078 0.223694,0 0.406716,0.17222 0.406716,0.382713 0,0.210492 -0.183022,0.495827 -0.406716,0.634078 -0.223695,0.138251 -0.406717,-0.03397 -0.406717,-0.382713 z m 9.01327,-0.699558 c -1.415033,-1.001794 -2.039627,-1.20475 -3.152054,-1.024229 -1.790433,0.290548 -1.941569,-0.757513 -0.16549,-1.147605 1.380417,-0.303191 4.444263,0.884057 4.461699,1.728917 0.0058,0.279618 0.285027,0.508397 0.620568,0.508397 0.335541,0 0.610076,0.274533 0.610076,0.610075 0,0.853644 -0.35909,0.751493 -2.374799,-0.675555 z m -7.386403,-0.341238 c 0,-0.223693 0.183022,-0.406716 0.406717,-0.406716 0.223694,0 0.406716,0.183023 0.406716,0.406716 0,0.223695 -0.183022,0.406718 -0.406716,0.406718 -0.223695,0 -0.406717,-0.183023 -0.406717,-0.406718 z m 1.22015,-0.610074 c 0,-0.335542 0.183023,-0.610075 0.406717,-0.610075 0.223694,0 0.406717,0.274533 0.406717,0.610075 0,0.335541 -0.183023,0.610074 -0.406717,0.610074 -0.223694,0 -0.406717,-0.274533 -0.406717,-0.610074 z m 18.226116,31.430667 c 0.112495,-0.972436 0.260743,-1.073013 1.280887,-0.868983 0.907753,0.18155 1.207706,0.06046 1.407181,-0.568057 0.139447,-0.439332 0.143874,-1.084539 0.0099,-1.433795 -0.169318,-0.441235 0.03257,-0.675914 0.66172,-0.769053 0.497973,-0.07372 1.273358,-0.628739 1.723085,-1.233364 l 0.817671,-1.099323 -3.368771,-3.301547 c -3.238663,-3.174018 -3.412763,-3.283323 -4.507542,-2.829854 -0.988392,0.409405 -1.111118,0.642063 -0.929385,1.761933 0.157353,0.969626 -0.0017,1.481601 -0.641535,2.060309 -0.99145,0.89725 -1.09529,1.683344 -0.264477,2.002157 0.322548,0.123773 0.577529,0.555152 0.566622,0.958627 -0.03344,1.238913 1.006698,5.577877 1.464837,6.110387 0.70042,0.814124 1.642688,0.396186 1.779847,-0.789437 z m -57.397953,-6.11255 c 1.090055,-2.037159 1.754233,-4.119167 1.390563,-4.359019 -0.55787,-0.367937 -1.263533,-1.950382 -1.263533,-2.833466 0,-0.879943 -0.586361,-1.129908 -1.016792,-0.433454 -0.459093,0.742827 -1.727441,0.420805 -2.4029,-0.610076 -0.366425,-0.559234 -0.931842,-1.016791 -1.256482,-1.016791 -0.32464,0 -0.862719,-0.526889 -1.195732,-1.170865 -0.333013,-0.643974 -0.869522,-1.272185 -1.192243,-1.396026 -0.322721,-0.123841 -0.709813,-0.785395 -0.860205,-1.470123 -0.243533,-1.108803 -0.365355,-1.195772 -1.113831,-0.7952 -1.411583,0.755456 -4.383465,3.6789 -4.383465,4.312015 0,0.327992 0.357635,0.689877 0.794756,0.804185 0.634163,0.165838 0.74716,0.445781 0.559233,1.385431 -0.229304,1.146511 0.342343,1.645601 0.882949,0.770883 0.485602,-0.785715 1.016791,-0.394869 1.016791,0.748147 0,0.834941 0.279655,1.282285 1.009479,1.614816 0.923856,0.420936 1.184634,0.284792 3.074585,-1.60516 1.135809,-1.135809 2.155097,-1.975118 2.265081,-1.865134 0.109986,0.109985 -0.358464,1.080541 -1.041,2.156791 -0.741994,1.170002 -1.240975,2.500287 -1.240975,3.308441 0,1.25392 0.07676,1.332368 1.061777,1.085141 0.944916,-0.237157 1.031427,-0.170866 0.786026,0.602326 -0.201549,0.635024 -0.10421,0.868817 0.361731,0.868817 0.350616,0 0.637483,-0.183023 0.637483,-0.406717 0,-0.223694 0.183023,-0.406717 0.406717,-0.406717 0.223694,0 0.406717,0.335542 0.406717,0.745647 0,1.747149 1.371007,1.727061 2.31327,-0.03388 z M 73.84642,59.495421 c 0.172024,-0.657824 0.430911,-0.775976 1.249885,-0.570425 0.870776,0.218549 1.074423,0.0939 1.297288,-0.794074 0.217545,-0.866754 0.436122,-1.010211 1.234059,-0.809944 2.230874,0.559915 1.24126,-2.345592 -1.928679,-5.662632 l -1.225624,-1.282499 -1.798021,1.98627 c -1.654431,1.827647 -1.798018,2.159955 -1.798018,4.161188 0,1.196207 0.183023,2.174922 0.406717,2.174922 0.223694,0 0.406717,0.366045 0.406717,0.813433 0,1.14374 1.85599,1.129758 2.155676,-0.01623 z m 16.209833,-1.102232 c 0.03474,-0.391465 0.02452,-1.144883 -0.02278,-1.674265 -0.05207,-0.582048 0.244473,-1.194048 0.750174,-1.548253 0.628107,-0.439938 0.836263,-1.030539 0.836263,-2.372688 0,-1.221566 0.207679,-1.903178 0.656392,-2.154293 0.431058,-0.241232 0.5669,-0.649315 0.395693,-1.188739 -0.222987,-0.702575 -0.715104,-0.853638 -3.401734,-1.044226 -1.727564,-0.122547 -3.552834,-0.350146 -4.056143,-0.505768 -0.769693,-0.23799 -0.916547,-0.129995 -0.924153,0.679596 -0.0052,0.529402 -0.366948,1.420104 -0.80439,1.979339 -1.334946,1.706632 -1.023159,2.506189 2.193595,5.625299 3.004915,2.913711 4.257983,3.544659 4.377123,2.203998 z m -8.941367,-5.655392 c 0.409078,-0.370209 0.743772,-1.172467 0.743772,-1.78279 0,-0.791272 0.249342,-1.174883 0.868984,-1.336922 0.73555,-0.192349 0.829003,-0.42715 0.608605,-1.52917 -0.150501,-0.752463 -0.06896,-1.532598 0.19322,-1.848491 0.24949,-0.300612 0.338177,-1.006502 0.197093,-1.568641 -0.245391,-0.977678 -0.388693,-1.022076 -3.299151,-1.022076 -2.537403,0 -3.042627,0.109741 -3.042627,0.660894 0,0.363496 -0.478392,1.726896 -1.063093,3.029776 l -1.063088,2.368877 1.571485,1.837489 c 1.707771,1.996849 2.998083,2.355521 4.2848,1.191054 z M 25.897783,49.968988 c 1.027154,-0.998278 1.867552,-1.976258 1.867552,-2.173287 0,-0.19703 -0.882701,-0.960588 -1.961558,-1.696794 C 24.724919,45.362701 23.4225,44.14781 22.909511,43.399153 l -0.932706,-1.361198 -1.969011,1.51763 c -1.918858,1.478977 -2.389014,2.517548 -1.659878,3.666669 0.18265,0.287858 0.636121,0.405213 1.010564,0.261524 0.547717,-0.21018 0.679237,-0.0075 0.679237,1.047108 0,1.173854 0.099,1.282907 0.966907,1.065077 0.825539,-0.207197 1.002446,-0.06498 1.209982,0.9727 0.348625,1.743127 1.45855,1.562414 3.683177,-0.599675 z M 12.624416,47.162964 c 1.257044,-0.146362 2.951739,-1.535487 2.921564,-2.394786 -0.0098,-0.279617 -0.300456,-1.240485 -0.645866,-2.135262 -0.345411,-0.894777 -0.752279,-2.267447 -0.904158,-3.050376 -0.151878,-0.78293 -0.50182,-1.405207 -0.777646,-1.382837 -0.275817,0.02237 -1.684697,0.06812 -3.130847,0.101679 -2.1421164,0.0497 -2.7070926,0.206281 -3.0489165,0.844978 -0.5497112,1.027149 -0.1273349,2.063047 0.8411833,2.063047 0.8218379,0 1.0364221,0.60072 0.3632052,1.016791 -0.2236981,0.138251 -0.4067215,0.626451 -0.4067215,1.084889 0,0.685997 0.1799652,0.788351 1.0167907,0.578323 0.9963019,-0.250057 1.4130728,0.280814 0.610078,0.777089 -0.7036949,0.434911 -0.4428047,1.758822 0.4729967,2.400275 0.4838431,0.338898 1.0185061,0.530404 1.1881361,0.425565 0.16963,-0.104835 0.844718,-0.253055 1.500201,-0.329375 z m 79.989183,-0.756738 c 0.814353,-1.162657 0.827686,-2.756519 0.02305,-2.756519 -0.972071,0 -0.706433,-0.796933 0.406721,-1.22015 1.244937,-0.473324 1.299057,-1.332209 0.151333,-2.401479 -0.79953,-0.744871 -0.81502,-0.856744 -0.203365,-1.468404 0.825367,-0.825365 0.842841,-1.574554 0.05207,-2.230868 -0.412058,-0.341975 -0.77509,-0.375427 -1.118473,-0.103063 -0.279621,0.22179 -1.515016,0.628064 -2.745334,0.902832 -4.509682,1.007146 -4.344722,0.797626 -4.30519,5.468299 l 0.03465,4.095246 1.220147,0.2609 c 0.671086,0.143494 2.262149,0.28255 3.535715,0.309019 1.962576,0.04078 2.412069,-0.08968 2.948698,-0.855813 z M 18.703517,43.206968 c 2.651651,-1.464958 2.72927,-1.631311 1.808734,-3.876432 -0.447623,-1.091716 -0.92402,-2.48825 -1.058661,-3.103409 -0.214049,-0.977956 -0.435441,-1.117774 -1.762243,-1.112918 -2.636115,0.0097 -3.347667,0.364342 -3.347667,1.66875 0,0.644993 0.191323,1.172714 0.425148,1.172714 0.265361,0 0.325078,0.533399 0.158905,1.419213 -0.205756,1.096739 -0.117528,1.476284 0.388286,1.670382 0.380098,0.145856 0.65453,0.716091 0.65453,1.360017 0,1.897935 0.489041,2.041388 2.732968,0.801683 z m 29.276841,-0.449021 c 2.171248,-0.925759 3.446904,-3.674462 1.968565,-4.241753 -0.414131,-0.158916 -0.521284,-0.583697 -0.355877,-1.410743 0.182445,-0.912217 0.08757,-1.183361 -0.414074,-1.183361 -0.506134,0 -0.59652,-0.271146 -0.406717,-1.220151 0.229681,-1.148413 0.16897,-1.22015 -1.032662,-1.22015 -1.373531,0 -4.09901,1.527794 -4.107269,2.302368 -0.0029,0.25968 0.635543,1.840016 1.418473,3.511858 0.782929,1.671844 1.423508,3.243849 1.423508,3.493346 0,0.567551 0.106458,0.56533 1.506053,-0.03141 z m 36.318603,-0.70043 c 0,-0.319386 -0.299798,-0.911969 -0.666208,-1.316852 -0.531042,-0.586796 -0.565964,-0.856931 -0.172134,-1.331467 0.773566,-0.932097 0.372519,-2.44983 -0.687121,-2.60032 -0.824411,-0.117082 -0.889985,-0.288882 -0.659772,-1.728546 0.209516,-1.310253 0.136215,-1.598543 -0.406444,-1.598543 -0.364132,0 -0.66205,0.142233 -0.66205,0.316075 0,0.380435 -1.850229,2.374247 -3.409584,3.67417 -1.014932,0.846082 -1.099407,1.10989 -0.846527,2.64366 0.1545,0.937083 0.429107,1.886811 0.610233,2.110504 0.181126,0.223695 1.807631,0.407911 3.614465,0.409369 2.576362,0.0021 3.285142,-0.122638 3.285142,-0.57805 z M 11.163815,37.262809 c 1.688111,-0.167783 1.95335,-0.330579 2.338448,-1.435268 0.310375,-0.890336 0.307975,-1.398315 -0.0087,-1.779538 -0.610814,-0.735982 -0.04938,-6.496168 0.69323,-7.112485 0.309829,-0.257133 0.563321,-0.908833 0.563321,-1.448223 0,-0.689686 0.42242,-1.229943 1.423513,-1.820598 0.78293,-0.46194 1.423505,-0.992502 1.423505,-1.179026 0,-0.186524 0.356683,-0.452342 0.792629,-0.590706 0.435946,-0.138364 0.901618,-0.594964 1.034826,-1.014666 0.27873,-0.878201 2.743696,-2.449029 3.843051,-2.449029 0.408875,0 1.043211,-0.457557 1.409636,-1.016793 0.495551,-0.756305 1.022358,-1.016792 2.056357,-1.016792 0.764571,0 1.503244,-0.183022 1.641495,-0.406716 0.326935,-0.528993 1.830225,-0.528993 1.830225,0 0,0.223694 0.358991,0.406716 0.797757,0.406716 0.783495,0 0.953065,-0.377021 1.857951,-4.130964 0.575348,-2.386842 -1.880382,-3.8243 -3.233366,-1.892646 -0.34308,0.489816 -0.673747,0.810106 -0.734816,0.711755 -0.06107,-0.09835 -0.313674,-0.544865 -0.561344,-0.992254 -0.683028,-1.233813 -1.713207,-1.247597 -2.019551,-0.02702 -0.310153,1.235747 -0.987231,1.393752 -0.987231,0.230383 0,-0.979148 -1.663811,-1.138972 -2.416431,-0.232121 -0.461943,0.556607 -0.21006,2.912536 0.622724,5.824476 0.153613,0.537135 0.08404,0.915113 -0.168438,0.915113 -0.659418,0 -0.89438,-0.589879 -1.335313,-3.352341 -0.502485,-3.148093 -1.030415,-3.796244 -2.534072,-3.111133 -0.857788,0.390834 -1.082655,0.775395 -1.082655,1.851515 0,0.747024 -0.183023,1.358225 -0.406717,1.358225 -0.223694,0 -0.406717,-0.183023 -0.406717,-0.406717 0,-0.223694 -0.274533,-0.406717 -0.610071,-0.406717 -0.407579,0 -0.610078,0.407578 -0.610078,1.227899 0,1.106667 -0.100392,1.202703 -1.016791,0.972701 -1.215218,-0.305001 -1.400632,0.469776 -0.203356,0.849775 0.447387,0.141996 0.813426,0.428864 0.813426,0.637483 0,0.208621 -0.366039,0.37931 -0.813426,0.37931 -1.070634,0 -1.051575,0.07626 0.610069,2.440301 1.575769,2.24186 1.65164,2.443578 0.915117,2.432993 -0.27962,-0.004 -1.104629,-0.919133 -1.833353,-2.033585 -0.728723,-1.114451 -1.506568,-2.026275 -1.728551,-2.026275 -0.512615,0 -2.030454,1.502229 -2.030454,2.00958 0,0.210493 0.183023,0.495828 0.406721,0.634078 0.741147,0.458058 0.422645,0.911927 -0.813434,1.159143 -1.1174945,0.223498 -1.7622521,1.0778 -0.8134345,1.0778 0.2236895,0 0.4067125,0.274533 0.4067125,0.610074 0,0.336975 -0.3606665,0.610075 -0.8056803,0.610075 -0.5241282,0 -0.8965339,0.361949 -1.0656351,1.035733 -0.1429811,0.569654 -0.192224,1.078393 -0.1094363,1.130533 0.8981712,0.56566 3.4013537,1.494185 4.0281347,1.494185 0.439798,0 0.799633,0.274534 0.799633,0.610075 0,0.820777 -0.759539,0.768083 -2.960177,-0.205364 C 9.1492152,27.337261 8.0278136,27.082309 7.6710974,27.219192 6.906724,27.512508 6.8118162,29.041226 7.5143675,29.74377 c 0.3846298,0.384629 0.295977,0.629009 -0.4067215,1.121197 -1.0185235,0.7134 -1.1269809,1.445842 -0.3901484,2.634755 0.368793,0.595078 0.38385,0.900675 0.054839,1.112953 -0.5961645,0.384617 -1.0906378,2.005225 -0.7700826,2.523897 0.2593481,0.41963 1.824334,0.457907 5.161327,0.126241 z M 77.7912,36.023769 c 2.022536,-1.735448 3.410268,-4.100605 2.821927,-4.809513 -0.264512,-0.318717 -0.752635,-0.579485 -1.084721,-0.579485 -0.415151,0 -0.512545,-0.222368 -0.311736,-0.711754 0.738427,-1.799589 0.272733,-2.265278 -1.526858,-1.526855 -0.571811,0.234631 -0.711751,0.08107 -0.711751,-0.781017 0,-1.23831 -0.952291,-1.776162 -1.840141,-1.039313 -0.335297,0.278273 -0.980533,1.344441 -1.433863,2.369264 -0.453327,1.024823 -1.111232,2.180446 -1.462009,2.568051 -0.588189,0.649943 -0.469269,0.896171 1.529519,3.166915 1.192014,1.354197 2.290787,2.462177 2.441716,2.462177 0.150929,0 0.860991,-0.503311 1.577917,-1.11847 z m 9.653977,0.667657 c 1.065756,-0.247947 2.723553,-0.842769 3.68398,-1.321829 1.540529,-0.768409 1.732181,-1.014751 1.626869,-2.091166 -0.08906,-0.910364 -0.351709,-1.253148 -1.034482,-1.350118 -1.041958,-0.147982 -1.21475,-0.797375 -0.305039,-1.146462 0.711483,-0.273023 0.81586,-1.598757 0.157891,-2.005408 -0.248709,-0.153708 -0.594293,-0.04955 -0.767969,0.231461 -0.173675,0.281012 -0.5352,0.375313 -0.803393,0.209561 -0.351146,-0.217017 -0.363873,-0.425131 -0.04548,-0.743526 0.707602,-0.707601 0.511202,-2.24748 -0.345107,-2.705759 -0.667075,-0.357012 -1.303455,0.02205 -4.168846,2.483226 -3.529962,3.031996 -4.105274,3.890065 -3.016655,4.499286 0.358527,0.20064 0.651862,0.824589 0.651862,1.386554 0,1.157561 1.168557,2.972947 1.926069,2.992212 0.276406,0.007 1.374538,-0.190084 2.440294,-0.438032 z M 18.64425,33.983957 c 0.367867,-0.251677 0.990817,-1.767823 2.044546,-4.976053 0.119736,-0.364552 -0.596529,-1.393615 -1.779773,-2.557014 -2.19945,-2.162561 -3.345187,-2.261888 -3.345187,-0.290002 0,0.632026 -0.269797,1.23665 -0.610078,1.367229 -0.741286,0.284458 -0.798074,1.533971 -0.101683,2.237208 0.407207,0.411199 0.366723,0.593327 -0.203356,0.914986 -1.056062,0.595869 -0.927116,2.573309 0.203356,3.118516 1.065913,0.514066 3.161824,0.616387 3.792175,0.18513 z m 26.83748,-1.198371 c 1.980425,-1.655429 2.21482,-2.150815 1.017686,-2.150815 -0.607411,0 -0.770753,-0.256683 -0.711754,-1.11847 0.06346,-0.926971 -0.10514,-1.139561 -0.98471,-1.241647 -0.939963,-0.109096 -1.056191,-0.295059 -1.016792,-1.626867 0.03909,-1.320398 -0.07945,-1.515674 -0.972305,-1.601997 -0.793013,-0.07667 -1.317897,0.313512 -2.384932,1.772881 l -1.368141,1.871187 0.864664,1.074136 c 0.475566,0.590775 1.264966,1.851981 1.754223,2.802682 0.489257,0.950701 1.138521,1.728547 1.442807,1.728547 0.304285,0 1.365949,-0.679336 2.359254,-1.509637 z m 15.265421,-1.992952 c 0.299242,-0.360564 0.916475,-0.80652 1.371628,-0.991012 0.690344,-0.279824 0.608391,-0.339715 -0.494275,-0.361221 -0.727006,-0.01418 -1.321829,0.14491 -1.321829,0.353529 0,0.208621 -0.366045,0.495488 -0.813434,0.637483 -0.447388,0.141995 -0.813433,0.428863 -0.813433,0.637483 0,0.626105 1.487045,0.427772 2.071343,-0.276262 z M 72.09489,29.923017 c -0.0049,-0.577431 -2.563097,-1.76129 -4.329069,-2.003344 -1.353911,-0.185574 -1.76853,-0.110191 -1.766631,0.321195 0.0016,0.390468 0.575805,0.579822 1.868241,0.616217 1.117788,0.03147 2.130029,0.316812 2.524971,0.711754 0.67966,0.679659 1.707031,0.893389 1.702488,0.354178 z m 11.419113,-1.214925 c 3.344851,-2.82172 4.932916,-4.597047 4.68652,-5.239141 -0.151004,-0.39352 -0.519918,-0.528123 -1.015959,-0.370686 -0.704995,0.223757 -0.757157,0.08543 -0.550041,-1.458712 l 0.22881,-1.70591 -1.282186,0.256437 c -1.077236,0.215447 -1.282186,0.133356 -1.282186,-0.513564 0,-1.352665 -0.469479,-2.056918 -1.365346,-2.048119 -0.672117,0.0066 -1.36027,0.874273 -3.006856,3.791257 -2.379633,4.215599 -2.66887,5.554667 -1.199814,5.554667 1.250096,0 1.911566,0.731838 1.911566,2.114927 0,1.53981 0.709941,1.445705 2.875492,-0.381156 z m -24.428306,0.808209 c 0.0036,-0.365258 1.973325,-1.32183 2.721569,-1.32183 0.941013,0 0.560257,-0.712629 -0.487799,-0.912978 -0.681824,-0.130339 -1.016792,-0.01197 -1.016792,0.359303 0,0.304521 -0.274534,0.553675 -0.610075,0.553675 -0.335542,0 -0.610076,0.183022 -0.610076,0.406717 0,0.223694 -0.285336,0.406716 -0.634079,0.406716 -0.348743,0 -0.520963,0.183023 -0.382712,0.406718 0.293401,0.474736 1.015336,0.546705 1.019964,0.101679 z m -9.922579,-1.488622 c 1.110564,-1.01741 1.513926,-1.716001 1.513926,-2.621986 0,-1.661104 -0.839326,-2.614251 -2.037297,-2.313578 -1.02768,0.257932 -1.30282,-0.47818 -0.48457,-1.29643 0.79888,-0.798881 0.07246,-1.855471 -1.077276,-1.566906 -0.941186,0.236222 -1.008039,0.157339 -0.911321,-1.075331 0.0957,-1.219714 0.0067,-1.330254 -1.070942,-1.330254 -0.860032,0 -1.494969,0.394952 -2.366966,1.472334 -1.012854,1.251414 -1.1501,1.693856 -0.914691,2.948696 0.21032,1.121098 0.475495,1.476363 1.10198,1.476363 0.91249,0 1.898493,1.065769 1.918544,2.073755 0.0098,0.492189 2.271505,3.466827 2.735638,3.597949 0.04347,0.01228 0.760312,-0.601793 1.592975,-1.364612 z m 15.853689,0.271466 c -0.282059,-0.282057 -1.053682,0.291023 -1.053682,0.782563 0,0.269691 0.233367,0.238837 0.619906,-0.08196 0.340946,-0.282961 0.536146,-0.598231 0.433776,-0.700602 z m 7.959076,-0.828659 c -0.694485,-0.231495 -0.57478,-1.716315 0.138369,-1.716315 0.335541,0 0.610075,-0.183023 0.610075,-0.406717 0,-0.223694 -0.137266,-0.400895 -0.305037,-0.393782 -0.551297,0.02337 -1.728546,1.083855 -1.728546,1.55709 0,0.254958 -0.183023,0.463559 -0.406717,0.463559 -0.223694,0 -0.406717,-0.183022 -0.406717,-0.406717 0,-0.223694 -0.527723,-0.406716 -1.172715,-0.406716 -0.855394,0 -1.254546,-0.247616 -1.475142,-0.915113 l -0.302426,-0.915113 -0.182331,0.932806 c -0.137958,0.705785 -0.372853,0.872338 -0.965159,0.684347 -0.438872,-0.139292 -0.782828,-0.05772 -0.782828,0.185665 0,0.238768 0.228778,0.461222 0.508396,0.494342 0.279618,0.03312 0.782929,0.09753 1.118471,0.14314 0.335542,0.0456 1.162991,0.11002 1.838779,0.14314 0.675788,0.03312 1.682412,0.491752 2.236941,1.019181 0.874609,0.831862 1.057281,0.875163 1.378266,0.326701 0.242509,-0.414373 0.207467,-0.686448 -0.101679,-0.789498 z M 39.865158,26.00683 c 1.608596,-2.13668 1.705566,-3.38063 0.305038,-3.91311 -0.559235,-0.212621 -1.016792,-0.688525 -1.016792,-1.057564 0,-0.52862 -0.258879,-0.619206 -1.22015,-0.426952 -0.862738,0.172548 -1.220151,0.08677 -1.220151,-0.292841 0,-0.295279 -0.382574,-0.883097 -0.850167,-1.306262 -0.794334,-0.718863 -0.883294,-0.724088 -1.354587,-0.07956 -0.27743,0.379408 -0.753522,1.749648 -1.057983,3.044976 -0.304461,1.295328 -0.710048,2.462725 -0.901306,2.594215 -0.321965,0.221352 4.675319,3.032773 5.587552,3.143499 0.223694,0.02715 1.00154,-0.74073 1.728546,-1.706405 z m -15.864227,0.478276 c 0.639827,-0.53101 0.645969,-1.857145 0.02258,-4.875299 -0.501819,-2.429572 -1.409002,-3.176254 -1.842937,-1.516882 -0.154548,0.590991 -0.454839,0.785148 -0.995615,0.643733 -0.599044,-0.156654 -0.828039,0.06608 -1.011621,0.984003 -0.160923,0.804609 -0.482747,1.186493 -0.999893,1.186493 -1.24014,0 -0.904289,1.458057 0.706997,3.069343 1.201796,1.201796 1.664592,1.420649 2.539705,1.20101 0.588561,-0.14772 1.299914,-0.4593 1.580784,-0.692401 z m 39.962194,0.09526 c 0,-0.544609 -0.195106,-0.725799 -0.610075,-0.566561 -0.335541,0.128759 -0.610075,0.48906 -0.610075,0.800669 0,0.311608 0.274534,0.56656 0.610075,0.56656 0.335688,0 0.610075,-0.360108 0.610075,-0.800668 z m -4.274007,-0.657517 c 0.620483,-0.669512 1.24134,-0.971003 1.709126,-0.82996 0.40406,0.121831 1.088682,-0.04468 1.52138,-0.370017 0.773161,-0.581327 0.773925,-0.659933 0.04441,-4.559037 -0.918261,-4.907918 -0.947247,-4.984303 -1.89144,-4.984303 -0.498773,0 -0.769919,0.286469 -0.769919,0.813434 0,0.8578 -0.591724,1.09449 -1.016792,0.406716 -0.436492,-0.706262 -1.783262,-0.440991 -2.257217,0.444599 -0.250586,0.468224 -0.345047,1.291825 -0.209919,1.830226 0.211432,0.84241 0.101049,0.97891 -0.791613,0.97891 -0.599081,0 -1.148845,0.29066 -1.301322,0.688011 -0.331617,0.864187 2.654456,6.63289 3.433409,6.63289 0.305485,0 0.993938,-0.473161 1.529897,-1.051469 z M 29.804594,24.940738 h 1.937579 l 0.707161,-2.612464 c 0.866574,-3.201382 0.601571,-4.708438 -0.827938,-4.708438 -0.554974,0 -1.009043,0.183023 -1.009043,0.406717 0,0.745757 -0.886459,0.418681 -1.102305,-0.406717 -0.116994,-0.447388 -0.391529,-0.813433 -0.610075,-0.813433 -0.218547,0 -0.493081,0.366045 -0.610075,0.813433 -0.214519,0.820323 -1.337997,1.161831 -1.337997,0.406717 0,-0.223694 -0.362558,-0.406717 -0.805684,-0.406717 -1.203866,0 -1.613354,2.152501 -1.07188,5.634405 0.334897,2.15353 0.351999,2.174632 1.565636,1.931905 0.674873,-0.134975 2.098953,-0.245408 3.164621,-0.245408 z m 46.550304,0 c 0.896259,0 4.690334,-6.924459 4.690334,-8.56019 0,-0.827052 -0.985992,-1.095506 -1.423512,-0.387579 -0.494967,0.800872 -1.371835,0.386323 -1.498174,-0.708277 -0.157146,-1.361491 -1.368268,-1.732128 -1.748219,-0.535003 -0.307197,0.96789 -1.024133,1.126442 -1.024133,0.226487 0,-0.862508 -1.319649,-0.757747 -2.11201,0.167664 -0.676057,0.789578 -2.117084,8.392423 -1.714227,9.044257 0.118335,0.191468 0.556833,0.165262 0.974441,-0.05823 0.936319,-0.501104 2.038363,-0.125597 2.038363,0.694545 0,0.389213 0.232906,0.520701 0.64334,0.363203 0.353836,-0.13578 0.882047,-0.246872 1.173797,-0.246872 z M 66.42922,23.892863 c 0.365834,-0.4408 0.921551,-0.569996 1.778349,-0.413439 0.685427,0.125245 1.489424,0.07377 1.786657,-0.114396 0.780685,-0.494208 1.860387,-8.514771 1.245904,-9.255178 -0.797209,-0.960576 -1.989687,-0.685119 -1.989687,0.45961 0,1.212454 -0.799832,1.360011 -1.102304,0.203358 -0.116996,-0.447388 -0.545082,-0.813433 -0.951306,-0.813433 -0.406225,0 -0.854769,0.366045 -0.996765,0.813433 -0.264936,0.834734 -1.016792,1.135477 -1.016792,0.406717 0,-0.223694 -0.346206,-0.406717 -0.769342,-0.406717 -0.985894,0 -1.317148,1.346649 -0.850387,3.457093 0.197896,0.894777 0.548539,2.508454 0.779204,3.585948 0.620674,2.899308 1.049629,3.32632 2.086469,2.077004 z M 41.692629,19.068515 c 2.473567,-3.100094 2.520136,-4.907241 0.11923,-4.626949 -1.247611,0.145652 -1.413625,0.05096 -1.521063,-0.867619 -0.150428,-1.286133 -1.374394,-1.603446 -1.740126,-0.451125 -0.418715,1.319255 -0.963262,0.978746 -1.101261,-0.688625 -0.106737,-1.28965 -0.283256,-1.540484 -1.143022,-1.624237 -0.559236,-0.05448 -1.353254,0.160547 -1.764485,0.477833 -1.19209,0.919757 -1.914017,5.031004 -1.107302,6.30589 0.309968,0.489858 0.475131,0.496249 1.025269,0.03968 0.562415,-0.466763 0.81609,-0.390659 1.781799,0.534549 0.625592,0.599355 1.593864,1.078796 2.178722,1.078796 0.578987,0 1.158051,0.274533 1.28681,0.610074 0.350671,0.913832 0.755603,0.753065 1.985429,-0.788263 z"
     style="fill:#000000;stroke-width:0.40671673" />
</svg>
