<?xml version="1.0" encoding="UTF-8" standalone="no"?>
<svg
   xmlns:dc="http://purl.org/dc/elements/1.1/"
   xmlns:cc="http://creativecommons.org/ns#"
   xmlns:rdf="http://www.w3.org/1999/02/22-rdf-syntax-ns#"
   xmlns:svg="http://www.w3.org/2000/svg"
   xmlns="http://www.w3.org/2000/svg"
   id="svgBG10"
   version="1.1"
   viewBox="0 0 100 100"
   height="100"
   width="100">
  <defs
     id="defs2" />
  <metadata
     id="metadata5">
    <rdf:RDF>
      <cc:Work
         rdf:about="">
        <dc:format>image/svg+xml</dc:format>
        <dc:type
           rdf:resource="http://purl.org/dc/dcmitype/StillImage" />
        <dc:title></dc:title>
      </cc:Work>
    </rdf:RDF>
  </metadata>
  <path
     id="pathBG10"
     d="m 34.887509,93.753704 c -3.420083,-1.66718 -0.496009,-5.79698 2.220335,-4.20404 4.709,-3.52613 1.377815,-9.5832 2.503268,-14.26108 0.541804,-5.72482 0.08391,-11.48283 -2.652839,-16.67953 -1.388202,-5.85719 -7.341891,-9.17854 -8.950975,-14.85299 -1.4448,-5.94331 -3.623247,-11.73641 -4.284907,-17.83118 C 23.007806,18.6971 18.299338,11.330537 10.750415,9.0261514 7.2958531,11.128041 1.5368786,5.2971854 7.7646948,5.0000004 c 5.4022472,0.242422 11.9252742,-0.904158 16.1346362,3.008238 6.107796,4.7110516 7.18691,12.3478606 9.085031,19.0935256 0.894565,3.22302 4.172011,8.88166 8.228455,5.66235 5.447351,-5.83583 -7.477502,-6.19803 -4.697913,-12.190322 2.304446,-4.945356 9.449753,-3.650638 13.619064,-6.743408 6.324015,-1.484882 12.390051,1.586084 18.350906,3.037281 4.695179,1.752283 9.104753,-2.054584 11.092635,-5.704011 4.357402,-3.4871026 2.859519,3.339711 0.38353,4.594251 -3.06493,4.401391 -8.915414,5.769004 -14.056276,4.254852 -5.476746,0.322146 1.541934,5.246827 3.214679,6.573417 4.537784,3.88377 6.155417,9.62391 9.336514,14.40149 5.36612,8.01792 5.842701,17.85364 10.60512,26.11276 2.088811,4.58983 3.126322,9.5988 5.876422,13.91006 0.903676,6.33635 -8.23099,2.64225 -11.941961,2.55098 -5.770925,-0.12437 -11.069943,-2.42888 -16.724755,-3.23408 -5.931354,-1.0373 -10.635045,-4.83785 -16.200509,-6.89117 -2.205701,-2.60908 -8.102369,-4.9293 -6.723517,0.70404 -0.373399,5.23246 -1.363062,10.45375 -1.85843,15.72573 -0.902879,1.96105 -4.18885,7.62207 -6.600817,3.88772 z m 53.659923,-13.43304 c 3.485343,-3.80235 -2.930153,-6.63887 -5.177638,-7.60291 0.842072,-4.19969 2.765664,-8.47423 -1.021704,-11.98146 -2.349154,-5.63606 -3.34273,-11.72305 -5.876612,-17.26994 -3.512676,-4.53093 -5.67541,-9.83605 -9.454625,-14.18779 -3.586335,-3.65747 -8.902483,-5.01928 -13.176202,-7.772922 -3.052828,2.509492 2.754033,8.617082 0.154793,12.534962 -1.780642,4.79154 -4.09258,9.55562 -8.217576,12.95608 -2.454081,2.23998 -11.020892,1.51297 -7.220448,6.58429 2.828776,4.72113 4.310886,10.48968 9.329592,13.71681 5.227881,2.43304 9.031956,7.45348 15.228094,7.74051 5.967221,0.83279 11.548924,3.08228 17.587689,3.68435 2.748345,-0.003 5.192295,2.29571 7.844637,1.59802 z M 78.074329,69.472504 c -1.270732,-3.05063 -9.653988,-8.49362 -3.239962,-10.22307 2.045596,2.81682 3.511587,6.01006 6.46734,7.98311 0.601175,1.73841 -1.736834,4.23575 -3.227378,2.23996 z m -22.189425,-4.31415 c -5.141928,-1.36229 -3.226184,-12.11737 1.231227,-5.78233 1.018774,1.68914 2.541093,6.31304 -1.231227,5.78233 z m 10.657249,-7.42779 c -5.005536,-4.14017 6.01104,-5.78006 1.780474,0.0268 -0.362308,0.71187 -1.509377,0.89501 -1.780474,-0.0268 z m -5.530736,-5.49413 c -3.953612,-3.41576 4.616581,-6.64335 3.781245,-1.10611 0.309755,2.05768 -2.845149,3.17118 -3.781245,1.10611 z m -6.236785,-4.35365 c -3.880339,-5.13364 6.313298,-5.43822 2.073585,0.16215 -0.491565,0.77425 -1.746308,0.77212 -2.073585,-0.16215 z m 13.65033,-2.35773 c -5.130775,-0.39859 -2.167493,-10.69383 1.275585,-5.03537 0.742782,1.56105 1.461974,4.87933 -1.275585,5.03537 z M 36.29771,44.432874 c 6.823389,1.03038 11.735763,-5.274 13.347457,-10.82213 1.443645,-3.77945 0.468663,-11.125266 -4.796904,-11.12208 -1.953029,3.24814 4.619549,6.76035 1.254422,10.74051 -1.540512,4.74649 -8.616638,8.69142 -12.191121,3.39693 -3.077805,-2.73422 -5.812463,-9.43046 -6.348923,-11.1787 0.355975,6.60481 1.558454,13.96351 6.71845,18.80373 0.602934,0.32004 1.360869,0.43783 2.016619,0.18174 z M 26.677911,19.504529 c 1.355587,-2.194441 -3.6636,-8.474638 -3.85554,-5.22869 1.946253,1.434422 1.964861,7.536211 3.892011,6.779276 0.0111,-0.517144 -0.01265,-1.034103 -0.03647,-1.550586 z"
     style="fill:#000000;stroke-width:0.45774683" />
</svg>
