<?xml version="1.0" encoding="UTF-8" standalone="no"?>
<svg
   xmlns:dc="http://purl.org/dc/elements/1.1/"
   xmlns:cc="http://creativecommons.org/ns#"
   xmlns:rdf="http://www.w3.org/1999/02/22-rdf-syntax-ns#"
   xmlns:svg="http://www.w3.org/2000/svg"
   xmlns="http://www.w3.org/2000/svg"
   id="svgBG11"
   version="1.1"
   viewBox="0 0 100 100"
   height="100"
   width="100">
  <defs
     id="defs2" />
  <metadata
     id="metadata5">
    <rdf:RDF>
      <cc:Work
         rdf:about="">
        <dc:format>image/svg+xml</dc:format>
        <dc:type
           rdf:resource="http://purl.org/dc/dcmitype/StillImage" />
        <dc:title></dc:title>
      </cc:Work>
    </rdf:RDF>
  </metadata>
  <path
     id="pathBG11"
     d="m 43.13363,93.798952 c -6.02952,0.21085 -9.50977,-6.43647 -10.73928,-11.45589 -0.48203,-5.17714 0.78839,-10.3392 2.15511,-15.19409 -0.654,-6.33433 -6.00038,0.11858 -5.73808,3.45218 -1.61173,4.92065 -1.36051,9.94338 -0.51334,14.95074 -0.96658,5.8731 -5.27887,-1.08583 -3.91243,-4.09078 0.15213,-3.63377 2.60473,-12.57007 -3.9752,-9.22769 -0.87127,1.76371 -6.70095,3.64515 -2.96013,0.61517 1.84937,-1.93279 7.21213,-5.71613 1.20064,-5.8672 -2.56169,-0.73093 -9.7066504,-1.16166 -8.7394904,-4.15588 4.5709004,0.29741 9.1513404,1.61299 13.8726004,1.28242 4.16882,-1.02736 8.84812,-1.09637 12.51267,-2.38338 1.03193,-2.83677 4.86613,-4.78944 4.83703,-7.48484 -4.69585,-1.56327 -8.95018,2.22432 -13.59832,2.32367 -4.13388,1.44639 -8.4314,3.31073 -12.90696,2.09245 -5.0182604,-0.66318 -9.3846804,-3.88213 -9.5282504,-9.21441 -0.57452,-4.08523 1.37619,-8.64647 4.45088,-11.26012 3.5137504,-3.9801 8.6858604,-5.64441 13.4240404,-7.61252 4.5613,-1.62734 8.54444,1.86613 12.6223,3.29709 2.15812,2.01576 4.91655,1.06486 2.96129,-1.99368 -0.70764,-3.96867 -4.43512,-3.4666 -7.02012,-2.33442 -0.86429,-0.47278 -3.08275,-1.84792 -2.06477,0.41176 -1.55844,-5.19099 -7.91597,-3.97403 -12.06703,-4.03407 -3.5617,-0.69043 -11.7213904,2.27195 -10.7339804,-3.75667 3.9421704,-0.37857 6.7902304,2.23053 11.2712804,1.08483 2.9576,0.68279 10.73468,0.50889 6.66769,-3.95904 -1.87731,-2.79877 -5.07385,-3.23442 -7.94033,-5.96077 -1.48645,-4.3410296 4.88318,-0.44318 6.13196,1.26079 3.16254,3.45893 6.58731,0.25373 5.85134,-3.82026 -2.17449,-2.0535696 0.92779,-6.5573796 1.91736,-2.2406796 0.37409,3.9799896 -0.73512,8.2012696 1.45477,11.9462296 0.5501,1.78994 3.81334,5.98857 2.6982,1.70416 -2.62194,-5.08652 2.07266,-9.75847 4.60207,-13.7843796 3.27346,-1.52346 7.40499,-4.03909 10.95928,-2.34372 3.03038,-1.70044 7.0079,3.81233 10.32507,5.2327296 2.39708,3.09102 5.58675,6.18164 4.53881,11.04513 -1.3837,2.43176 -1.66136,8.95315 2.37517,5.29123 3.49703,-2.85271 3.22705,-7.51047 3.20105,-11.55023 0.26029,-2.53791 1.42825,-10.0614296 4.39455,-7.4294696 0.30172,4.0870096 -4.23111,8.3303496 -0.6783,11.9974196 0.47074,3.27395 0.26206,7.55978 5.00156,6.03056 3.42505,0.75347 9.17172,1.68462 10.03176,4.77125 -3.39926,3.31203 -6.86674,-2.58693 -10.58245,-1.95914 -4.03225,0.0486 -7.74339,1.73919 -11.69098,2.12826 -4.91088,-2.59352 -3.68831,5.19773 -6.98325,6.7976 -0.902,3.34876 5.09309,0.33252 6.43423,-1.34941 3.76453,-2.01983 8.05265,-1.92642 12.00879,-2.97535 4.15174,-0.67792 7.75059,1.82419 11.12103,3.77642 3.78873,2.82888 4.08391,7.75615 5.01168,11.98256 1.36766,3.1755 -4.49756,5.12181 -6.20856,8.00439 -2.57604,2.76416 5.23324,5.54462 -0.25912,7.43696 -3.94088,2.39877 -9.09679,1.42175 -12.95578,3.85098 -2.07419,4.79341 4.53479,6.89479 7.41317,9.32147 2.66667,3.3406 -2.58648,2.96927 -3.61183,0.38905 -2.39597,-2.73414 -9.57022,-7.561 -8.91732,-0.7804 -1.58523,4.31037 0.48071,8.15816 -3.60364,10.92023 -2.54992,3.8495 -5.12385,-0.1128 -3.06967,-2.98315 2.46949,-2.8238 0.70218,-9.29547 -3.00502,-4.89754 -2.80985,3.48976 -4.42463,8.28082 -8.8787,10.15217 -2.84689,0.84936 -5.4044,3.494 -8.56505,2.54928 z m 1.89579,-2.27592 c -1.64385,-2.73818 -2.98767,2.06754 0,0 z m 2.82754,-1.89722 c 3.18718,-1.24067 6.44428,-2.46253 8.23887,-5.69923 2.93333,-3.02241 3.91069,-7.35757 4.75527,-11.22232 -1.06493,-4.95467 -5.12771,-8.55668 -7.22953,-13.0783 -0.73373,-1.83716 -5.82597,-7.16658 -5.43108,-2.8254 3.26189,2.41079 5.48465,6.32652 6.99854,10.20086 1.00716,4.65657 1.40744,11.32863 -3.62559,13.85581 -3.74443,2.99691 -8.87872,2.24476 -11.50783,-1.65365 -1.56237,-1.75937 -1.54587,-8.76413 -3.01923,-7.60518 -0.37114,5.35728 -2.04012,11.83123 1.58714,16.36361 1.80954,3.25088 6.27792,2.93905 9.23344,1.6638 z m 1.28118,-11.6981 c 4.83106,-2.71679 3.06403,-9.34209 0.60407,-13.14177 -1.14109,-4.44882 -6.45282,-4.18621 -6.55577,0.67375 -1.66952,4.45959 -2.62588,13.02106 4.11862,13.23261 0.66961,-0.0844 1.29408,-0.37074 1.83308,-0.76459 z m 16.48959,-10.59706 c 1.36219,-2.30441 -0.59419,-0.79856 0.64986,-3.16451 -2.26359,-3.50641 -6.32328,-6.13071 -9.91105,-8.36463 -2.80274,-0.0818 2.01457,4.5372 2.40549,6.49596 1.25188,1.90982 4.18388,8.9658 6.8557,5.03318 z m 19.40348,-4.95591 c -2.24006,-3.02398 -0.8135,3.13887 0,0 z m -0.76417,-4.24007 c 3.66936,-2.71689 7.52343,-5.6584 6.47836,-11.01542 -0.0108,-4.42379 -3.02095,-8.79393 -7.72569,-8.93248 -3.07624,-0.9748 -11.24773,-1.07878 -9.67249,2.5259 4.09805,0.85532 6.53469,5.65574 8.20648,9.09884 1.3085,3.33571 -1.42991,7.02546 -1.33859,9.65206 1.41501,0.35382 3.12787,-0.19223 4.05193,-1.3289 z m -8.00687,-1.70246 c 4.27618,-4.59946 -0.93863,-13.7124 -7.20848,-11.78708 -3.51764,0.45716 -9.08684,2.48271 -7.45346,7.0586 4.48695,0.19089 7.58159,4.61016 11.9017,5.57925 0.99157,0.12138 1.97076,-0.27846 2.76024,-0.85077 z m -55.88301,-0.72765 c 4.24238,1.00326 3.95916,-5.18167 -0.18607,-4.56994 -4.75373,-0.53011 -6.29333,-4.76283 -7.1872,-8.77468 -3.0727404,-3.74547 -4.5377504,4.65309 -3.9987504,7.16256 -0.27818,5.3325 6.4101804,6.359 10.5159604,6.34984 l 0.72637,-0.0158 z m 4.86407,-1.87526 c -0.15765,-2.36208 -1.22257,1.29696 0,0 z m 21.1836,-2.38529 c 2.22169,-1.54997 4.86431,-3.95237 7.0751,-3.83561 2.06454,-2.75953 -1.15963,-2.87359 -2.22817,-3.48327 0.50148,-6.46769 -7.30014,-1.45776 -7.42691,2.2597 1.4577,1.80875 -1.57209,6.05923 2.57998,5.05918 z m -21.19695,-2.56401 c 2.74347,0.35138 9.84287,1.51844 6.06198,-3.16184 -2.65209,-3.47388 -6.72188,-5.68033 -10.26687,-7.46928 -5.01667,0.55334 -4.39607,7.8914 -0.35055,9.52912 1.34402,0.72784 2.99058,1.656 4.55544,1.102 z m 13.95922,-1.45668 c 1.13738,-5.12634 -2.68813,-9.98007 -7.40806,-11.55885 -1.83462,-1.36638 -10.44157,-4.3166 -8.09823,-0.23772 4.57637,1.45873 8.72616,4.20974 11.1892,8.45015 1.32502,1.31404 1.64056,6.19934 4.31709,3.34642 z m 12.81937,-10.60367 c 3.63455,-2.91308 4.16508,-9.01211 2.23015,-12.99615 -2.6218,-5.5833 -11.35876,-4.19221 -9.87417,2.57999 -0.12031,4.36827 0.33766,12.09405 6.74235,10.62883 z m 6.21194,0.42665 c 1.64735,-3.55623 -4.50397,0.39059 0,0 z m 2.72531,-13.54252 c 1.22135,-4.35895 -0.50773,-9.20299 -4.25032,-11.75468 -2.99244,-3.0494196 -7.2713,-3.7681896 -11.33596,-3.0887996 -4.78986,0.27048 -7.95442,5.4453796 -7.65699,9.9244996 -0.7402,3.1759 2.96679,7.59821 4.0457,2.46968 -0.1922,-4.08159 3.4138,-7.2362 7.45613,-5.74308 4.07748,1.76632 8.01524,4.68303 9.49045,9.06181 1.44272,1.35519 1.7009,1.04783 2.25099,-0.86943 z M 17.8189,11.934832 c -0.22799,-1.88808 -1.37652,1.82713 0,0 z m -7.48392,68.61779 c -0.13582,-3.14751 6.44747,-5.88242 3.2489,-1.41521 -0.56644,1.16777 -2.56579,4.24474 -3.2489,1.41521 z m 66.78891,-60.71046 c 1.19191,-1.97395 1.14817,1.90144 0,0 z m 1.86767,-1.5117 c 0.9715,-2.0909 0.66695,3.10299 0,0 z m 3.10779,-2.37115 c -0.62307,-2.87846 6.19958,-5.15401 3.49989,-1.02898 -0.97017,0.28568 -2.52288,2.17138 -3.49989,1.02898 z"
     style="fill:#000000;stroke-width:0.46513712" />
</svg>
