<?xml version="1.0" encoding="UTF-8" standalone="no"?>
<svg
   xmlns:dc="http://purl.org/dc/elements/1.1/"
   xmlns:cc="http://creativecommons.org/ns#"
   xmlns:rdf="http://www.w3.org/1999/02/22-rdf-syntax-ns#"
   xmlns:svg="http://www.w3.org/2000/svg"
   xmlns="http://www.w3.org/2000/svg"
   id="svgBG12"
   version="1.1"
   viewBox="0 0 100 100"
   height="100"
   width="100">
  <defs
     id="defs2" />
  <metadata
     id="metadata5">
    <rdf:RDF>
      <cc:Work
         rdf:about="">
        <dc:format>image/svg+xml</dc:format>
        <dc:type
           rdf:resource="http://purl.org/dc/dcmitype/StillImage" />
        <dc:title></dc:title>
      </cc:Work>
    </rdf:RDF>
  </metadata>
  <path
     id="pathBG12"
     d="m 90.764109,95 c -1.70695,-0.93096 -3.34729,-2.47978 -4.66891,-1.21782 -4.18094,-2.20359 -8.832,-2.07227 -12.6343,-5.20249 -2.67441,-2.84458 2.54371,-0.4615 4.04956,-0.18713 2.476,1.60032 8.27021,4.81388 8.75972,1.2364 1.77176,-0.28848 9.25266,4.80417 4.49393,5.37104 z m -5.72514,-7.02729 c 0.003,-3.38522 0.97848,1.54241 0,0 z m -0.62175,-1.67949 c -0.15346,-1.49053 0.66981,1.25924 0,0 z m -16.11556,-0.26968 c -3.71427,-2.12664 -5.56051,-7.25245 -10.29568,-7.85037 -1.94762,-0.91398 -7.08158,-0.49424 -10.16622,-0.65806 -0.41964,-1.97788 -5.61907,-1.56986 -6.68428,-4.77936 -0.46148,-2.0546 -2.74289,2.83182 -4.88263,2.9434 -2.58374,1.35867 -6.98103,2.80192 -10.07201,1.17805 -2.74676,-2.56893 1.42287,-3.91086 2.84537,-1.73144 4.62988,0.92925 6.47651,-5.9521 1.29797,-4.32158 -1.78031,0.81322 -2.1783,-1.14344 -3.46598,-1.98448 -0.50854,-4.78716 6.06165,1.7558 7.00841,-2.26567 -1.79167,-0.57657 -4.81507,0.69195 -5.6062,-2.57923 -0.79456,-4.13305 5.25291,2.14803 4.11825,-1.89926 -2.06137,-0.50953 -3.90461,-4.50649 -0.8816,-4.36065 0.77632,0.91109 -3.16295,-5.96035 0.64084,-6.78366 -1.76263,-2.02668 2.88981,-3.27097 1.33742,-6.92032 1.3658,0.64855 5.82017,6.46084 4.78053,2.48369 -3.31106,-2.09045 -2.37793,-8.30189 0.68852,-8.99058 1.65706,1.70478 3.68928,7.45189 5.28126,6.92181 0.38891,-4.04578 -3.94191,-7.06023 -4.06551,-11.06762 1.83817,-2.71826 3.36777,7.20158 4.3457,2.04579 -0.19594,-2.71694 -5.00438,-7.15397 -1.93098,-8.69341 0.84654,2.30626 2.76621,2.54345 1.42596,-0.27636 -0.73638,-3.36429 2.67156,-4.07924 2.56362,-0.33832 1.20353,3.88179 1.85806,8.00702 3.23373,11.63129 1.54256,4.97696 1.21383,-3.03325 0.43832,-4.8445 -0.12788,-4.51645 -3.28195,-8.25114 -4.42917,-12.58174 -2.31772,-3.84675 -2.70904,-8.99128 -6.43029,-11.88384 -4.68253,-2.19372 -9.55927,2.45066 -9.45272,7.1725 0.59282,2.68759 -1.52592,8.38896 -3.87139,3.66204 -3.62853,-1.44792 -7.93735,-5.21038 -11.93976,-2.16629 -2.28744,3.29193 -3.84637,7.5155 -4.2678503,11.56117 -0.30649,5.23491 0.7541603,10.96972 4.7800703,14.66989 2.28182,1.34859 1.97784,6.47814 -0.63464,2.6368 -2.38514,-2.90859 -4.5641103,-5.88725 -5.3112803,-9.71454 -1.46422,-4.80501 -0.36528,-10.00957 0.88388,-14.77348 0.8904903,-3.69248 3.9223103,-10.25946 8.6197603,-7.32928 3.55328,-1.63718 8.43877,5.62312 10.48394,-0.0878 1.61706,-3.17027 1.55288,-7.81178 5.70372,-8.96414 3.6787,-0.47067 5.28032,1.08062 7.74912,3.56221 2.24305,2.73522 2.68873,6.31104 4.07085,9.51451 2.0416,3.43045 3.39634,7.22049 4.66878,11.05581 0.45947,4.22944 1.16264,8.44721 2.73611,12.43774 0.48652,2.12389 0.31927,6.66186 -2.12109,5.69904 1.1421,3.36915 5.73238,5.05097 6.95267,8.84557 1.54246,3.37169 2.07333,5.05397 4.59683,7.84844 0.9225,4.57191 5.11979,6.34277 7.23339,10.06778 -1.283,0.85011 -3.21757,-3.38198 -4.79723,-3.45006 -2.13457,-1.30415 -1.26693,4.92247 -3.39247,5.8816 0.27373,5.18987 6.06077,5.77681 8.69115,9.31883 -0.72395,0.35703 -1.93666,1.30354 -2.47719,0.15809 z M 50.464219,74.92269 c 3.50321,0.83002 8.39507,1.03383 10.22807,-2.7516 1.18195,-4.51542 -0.69314,-9.08591 -1.87193,-13.4089 -1.74545,-3.89173 -5.31608,-5.6021 -8.5497,-7.06338 -4.02634,-3.97078 -9.25372,-1.12409 -9.75994,4.15695 -1.49083,3.51901 -1.54525,8.03813 0.85115,11.18604 0.70795,3.30711 3.42284,6.7197 6.8459,7.17625 0.56007,-0.25303 2.35032,1.66256 2.25645,0.70464 z m -0.63515,-3.80428 c -1.99188,-2.28025 -2.03378,-7.81689 0.4603,-9.03286 -0.0441,2.61853 -0.0366,5.12407 1.05729,7.41435 -0.0376,0.73862 -0.48872,2.15708 -1.51759,1.61851 z m 4.82335,-1.57063 c -5.97975,-1.37403 4.15309,-8.18132 2.06087,-2.11409 -0.45289,0.82383 -1.00166,2.03685 -2.06087,2.11409 z m -10.70206,-2.83966 c -2.58538,-4.35211 4.95984,-3.42288 1.65107,-0.50526 -1.30703,-0.64703 -0.7641,1.99936 -1.65107,0.50526 z m 10.36733,-3.99818 c -3.71127,-2.15616 2.17603,-5.61042 1.81367,-0.9174 -0.3092,1.30139 -0.26734,2.66797 -1.81367,0.9174 z m -11.97605,-3.26396 c -2.7577,-2.74114 3.50061,-5.5881 2.25224,-1.72223 -0.65955,0.47476 -1.26507,3.61697 -2.25224,1.72223 z m 6.48933,-1.48435 c -3.42298,-2.02695 2.82531,-5.79051 1.3481,-1.01565 -0.12287,0.24501 -0.93426,1.92581 -1.3481,1.01565 z m -9.79954,11.78908 c 2.15872,0.4465 -1.9992,-2.43537 -0.74793,0.45698 0.27009,-0.019 0.68728,-1.29566 0.74793,-0.45698 z m -2.44988,-6.481 c -1.04631,-1.73279 -1.00792,1.66915 0,0 z m 0.9238,-5.32459 c 0.373,-2.82513 -2.98529,-8.02297 -5.47864,-5.04421 1.76997,1.03528 1.41451,3.59965 3.69252,2.77082 0.88407,0.80653 0.46743,5.26037 1.78612,2.27339 z m -0.37938,-6.87038 c -1.255,-3.24663 -2.87586,1.804 0,0 z m -1.36105,-1.97598 c -1.71427,-1.8391 -0.64687,2.01426 0,0 z m 11.40059,-5.22396 c 2.19861,-2.54707 -3.70261,-6.19349 -2.27082,-1.4039 0.1477,0.89212 1.33556,2.15934 2.27082,1.4039 z m -1.87326,-2.08736 c -0.9989,-1.8953 0.77265,-0.83303 0.37534,0.21771 z m -17.69361,43.12291 c -3.91501,-0.95322 -8.07832,-2.40546 -9.93096,-6.32784 -1.28494,-3.94616 -4.13028,-7.45861 -4.03254,-11.83107 -1.16871,-4.30023 1.24557,-8.13118 2.80596,-11.8863 0.37974,-2.50389 2.33485,-5.09793 1.7943,-1.06158 -0.68671,4.06667 -4.23865,7.32259 -3.30253,11.72599 0.71267,5.54103 3.07323,10.9892 6.80957,15.16545 3.50746,1.84736 8.02045,1.97813 10.92844,-0.26848 4.14511,0.8247 7.0185,-1.58402 9.67739,-4.53125 0.6845,5.24055 -5.24437,5.64956 -8.79162,7.24102 -2.095,0.1219 -3.77863,2.53614 -5.95801,1.77406 z m 51.36869,-2.72209 c 1.23083,-2.32309 0.0547,1.92203 0,0 z m -38.08147,-1.00258 c 1.74469,-0.52189 -0.3529,0.63339 0,0 z m 35.705,-0.77336 c -0.95241,-1.92934 1.43878,1.55778 0,0 z m -3.51413,-1.66368 c -2.31443,-0.87271 -1.63146,-4.99471 0.42895,-2.09623 -0.0236,1.13438 1.11297,2.21256 -0.42895,2.09623 z m -32.19087,-2.73493 c 1.74469,-0.5219 -0.3529,0.63338 0,0 z M 20.589249,66.9073 c -1.61296,-2.54271 1.37129,-1.48171 0,0 z m 1.02906,-5.36158 c 0.36177,-3.56636 0.5599,2.94272 0,0 z m 0.70959,-4.77505 c -1.61176,-2.13302 2.5619,-3.30476 1.06994,-0.51918 0.39723,1.68427 0.2327,2.12597 -1.06994,0.51918 z m 1.5978,-6.06781 c -1.27723,-3.65464 3.87293,-2.8177 2.15245,0.31826 -0.716,0.36329 -1.42806,-0.28971 -2.15245,-0.31826 z m 2.48674,-8.77242 c -2.11289,-2.98047 3.72359,-4.20426 1.52893,-0.71136 0.15837,0.79344 -1.10011,1.53658 -1.52893,0.71136 z m -8.59184,-0.47377 c -3.07428,-3.22775 -5.32895,-7.40794 -5.50926,-11.90124 0.35799,-4.11454 3.71178,-11.03201 7.79922,-8.41418 4.11453,-0.34625 6.30745,3.61534 4.8147,7.22942 0.0413,3.6409 -2.74028,3.18533 -4.47586,0.87021 -3.28698,1.79618 4.00336,7.6869 0.5045,8.06633 -2.76106,-2.76462 -7.1947,-9.51314 -1.33125,-11.2715 1.11491,-1.27487 3.2802,1.39195 2.3156,-1.28865 -2.96497,-3.81012 -7.89372,-0.0312 -6.98505,4.09837 -0.51067,3.85087 0.62756,7.68526 3.89039,9.99182 1.21065,0.62332 -0.2356,2.38078 -1.02299,2.61942 z m 11.75581,-8.44959 c 0.31744,-3.66337 2.29554,1.59048 0.0395,0.0691 z m 2.61174,-7.2342 c -1.95609,-3.98596 4.92936,-3.25746 2.27269,-0.19683 -0.48334,0.71906 -1.67372,0.74053 -2.27269,0.19683 z m 3.44393,-8.61891 c 0.0937,-4.78138 3.2147,0.88373 0.28518,1.07656 l -0.23111,-0.63129 z"
     style="fill:#000000;stroke-width:0.27220932" />
</svg>
