<?xml version="1.0" encoding="UTF-8" standalone="no"?>
<svg
   xmlns:dc="http://purl.org/dc/elements/1.1/"
   xmlns:cc="http://creativecommons.org/ns#"
   xmlns:rdf="http://www.w3.org/1999/02/22-rdf-syntax-ns#"
   xmlns:svg="http://www.w3.org/2000/svg"
   xmlns="http://www.w3.org/2000/svg"
   id="svgBG13"
   version="1.1"
   viewBox="0 0 100 100"
   height="100"
   width="100">
  <defs
     id="defs2" />
  <metadata
     id="metadata5">
    <rdf:RDF>
      <cc:Work
         rdf:about="">
        <dc:format>image/svg+xml</dc:format>
        <dc:type
           rdf:resource="http://purl.org/dc/dcmitype/StillImage" />
        <dc:title></dc:title>
      </cc:Work>
    </rdf:RDF>
  </metadata>
  <path
     id="pathBG13"
     d="M 34.579804,94.671363 C 31.459018,93.881411 27.809378,91.23146 27.958815,87.532299 27.398625,82.419794 22.374223,86.072823 19.102393,84.89676 12.827491,84.113708 8.8927257,77.363361 10.063357,71.627788 9.458229,67.942074 14.803995,62.88233 9.9076493,60.739201 6.2659954,57.835012 7.3989725,53.014861 9.1133811,49.351456 c 1.6596549,-3.350827 5.3127569,-5.682933 9.1413639,-4.977219 5.200121,1.530363 10.31898,3.615465 15.856094,3.533821 3.232743,0.59845 10.134436,3.668249 11.421982,-0.244745 -1.634498,-3.767281 -6.668871,-4.606726 -8.93461,-8.20468 -2.940913,-2.423518 -6.019226,-4.962725 -8.159939,-8.290168 -1.990463,-3.908798 -3.640821,-9.114564 -1.42159,-13.202943 1.341215,-3.552327 5.278296,-4.421737 8.306163,-3.257521 5.314598,1.540682 5.283325,-4.9993236 8.724264,-7.3770076 2.9963,-3.056764 8.054527,-2.466575 11.945729,-1.778846 4.252815,0.87157 7.052437,3.67509 8.18327,7.7097676 0.945783,5.048167 5.814243,0.71008 8.299766,-0.569889 3.797578,-2.585866 7.407811,3.40669 8.970602,6.250223 1.94199,4.527171 1.186165,9.708246 -0.456075,14.197394 -2.67316,2.721604 -5.544526,5.301051 -9.060383,6.717036 -0.645834,1.768106 -5.994904,4.33792 -1.445555,4.879257 5.127404,0.447171 10.341573,-0.03568 15.421441,0.798683 4.041718,1.195358 7.77677,4.445865 6.381193,8.967728 -0.355945,3.416032 -4.683478,5.624233 -3.756943,9.096013 2.02803,3.637437 1.788781,8.510691 -1.509984,11.378491 -1.79812,2.569926 -4.598512,4.543071 -7.541414,4.882354 -1.295516,1.924502 -5.288686,0.549369 -5.817805,3.93295 -2.498683,2.948164 -7.159046,5.643525 -10.983474,3.12275 -4.340417,-2.210952 -4.274117,-7.787355 -6.540778,-11.556846 -1.256974,-2.637037 -2.285681,-8.543178 -4.653218,-9.021115 -0.721333,4.600631 -1.780693,9.161951 -2.254069,13.826065 -1.028954,4.152698 -3.656141,8.225965 -6.924254,11.049439 -2.338956,1.730451 -4.258493,4.796665 -7.725354,3.458915 z m 3.527006,-2.802286 c 3.142611,-1.310147 5.433141,-4.860767 6.732057,-8.189714 1.611741,-3.774771 2.07694,-7.441117 2.962972,-11.455292 1.003537,-3.918596 -0.655428,-7.275532 -0.129296,-10.778227 -1.350829,-4.545394 -4.713894,2.598345 -3.955615,4.800237 -2.270035,3.394948 -0.498183,6.340076 -2.127263,9.498304 -4.917367,0.342595 -2.32254,-6.157025 -1.64536,-8.945979 0.0296,-5.172788 -5.14403,0.988999 -6.573565,2.802238 -2.952701,3.249264 -5.783697,-1.941788 -1.807156,-3.418488 3.228865,-0.6416 7.023637,-5.843413 1.334475,-5.451725 -2.38829,-1.44894 -10.636342,-3.017868 -5.126388,-6.219978 3.764643,1.945029 7.878835,3.787809 12.308058,3.142835 1.745763,-0.550969 8.273059,-2.162217 6.106516,-4.13449 -4.308864,-0.61683 -8.264469,-2.507984 -12.576552,-3.133483 -3.625472,-1.297562 -7.577894,-0.589531 -10.887758,-2.059794 -3.239752,-1.268592 -8.275907,-2.37889 -10.316166,1.276309 -1.822838,3.333296 -2.6127821,9.38646 2.561721,10.221081 5.523775,1.073078 -0.693917,5.731739 -1.306137,8.586585 -1.109365,4.233869 -1.647076,9.491055 2.447607,12.502572 3.216467,2.557666 7.85853,2.122779 11.108824,-0.18722 5.060717,-2.392376 0.838334,6.383783 4.558323,8.172986 1.282601,1.815173 4.214319,4.318647 6.330703,2.971243 z m 31.373615,-8.556423 c 3.383541,-0.756091 1.023535,-10.493283 5.507918,-7.393625 2.15061,4.703872 7.49114,0.232604 9.840754,-2.101271 2.657306,-3.096469 2.273109,-8.185205 -1.500134,-10.180443 -0.02422,-3.996411 6.817319,-4.231153 6.373792,-9.09806 2.034064,-4.844567 -3.81499,-6.012072 -6.743111,-7.33316 -2.935498,1.450195 -4.983201,-0.04409 -8.818955,-0.03592 -3.942134,0.368458 -7.769136,1.428519 -11.806855,2.18421 -3.272005,2.232781 -7.738407,5.850709 -7.69001,10.031629 1.383146,3.577675 0.393968,7.451289 3.102971,10.292864 0.453246,4.034996 1.967695,7.969496 3.291815,11.65835 2.077881,1.853998 5.758969,3.131774 8.441815,1.975426 z M 64.897307,71.858051 C 63.740913,68.38872 63.95393,63.789079 60.123198,61.638798 c -2.970575,-3.695514 1.550375,-6.897924 5.181931,-5.331776 3.575445,-1.302326 7.398603,-0.621914 10.427854,-3.176602 1.62898,-2.254077 7.814642,-1.851035 4.223129,1.291854 -3.373991,2.186914 -6.535964,4.223929 -10.839686,3.717976 -4.578087,1.020319 2.261416,4.736307 4.172724,5.011703 5.383866,0.6742 1.129175,5.305478 -1.72008,2.25074 -1.336636,-0.440839 -5.326176,-2.2136 -3.870571,0.653842 1.479544,1.80302 0.127817,7.762021 -2.801192,5.801516 z M 55.374939,52.067665 c 3.827137,-1.447197 4.199819,-9.848148 -0.656986,-6.962492 1.280484,4.970171 -9.018009,1.314928 -5.062621,6.314297 1.155653,2.151052 3.984542,1.915659 5.719607,0.648195 z m 7.516738,-8.33086 c 3.668208,-1.376747 6.435791,-4.614031 10.079722,-6.3251 3.778045,-2.10323 5.332768,-6.105582 6.502888,-9.896225 -0.04943,-3.666495 -0.0068,-8.203476 -2.910854,-10.960871 -3.569442,-2.959475 -7.784673,0.73177 -11.03948,2.480728 -5.686935,0.389271 -3.503698,-7.434455 -7.148935,-9.7631806 -3.323001,-2.772279 -7.697689,-2.395793 -11.607279,-0.62725 -3.234891,2.2477836 -4.59105,6.4212106 -5.795138,10.0684876 -0.926452,3.652049 -4.561068,2.444293 -4.982906,-0.717327 -4.691946,-3.460184 -9.230018,2.199584 -7.560212,6.657718 1.021897,5.289721 5.346044,9.439785 9.73,12.435569 2.459301,1.353751 4.84383,6.412628 7.601734,4.972873 -1.098044,-3.558916 -3.660267,-5.916627 -6.195819,-8.479398 -2.896256,-1.09512 -7.645106,-9.467081 -1.410596,-7.612426 5.667321,-0.651387 5.453427,5.697829 9.203662,8.158239 4.10189,5.108735 3.904143,-3.896061 3.820455,-6.529374 -1.085306,-2.637747 2.190955,-8.805425 4.284575,-4.508469 0.288542,4.781062 -0.961214,9.460929 -1.96305,14.049901 0.559206,2.093144 3.068928,3.140227 4.139019,0.879384 2.358651,-2.160028 4.378847,-4.922625 7.440978,-6.11724 2.280275,-1.872588 5.127762,-4.807321 7.572586,-3.08585 3.568077,2.788265 -0.679656,4.170604 -3.220615,4.638564 -2.232284,3.672925 -8.272122,3.608871 -9.113478,8.257322 -0.332954,1.651751 0.674315,3.885833 2.572743,2.023925 z"
     style="fill:#000000;stroke-width:0.46485636" />
</svg>
