<?xml version="1.0" encoding="UTF-8" standalone="no"?>
<svg
   xmlns:dc="http://purl.org/dc/elements/1.1/"
   xmlns:cc="http://creativecommons.org/ns#"
   xmlns:rdf="http://www.w3.org/1999/02/22-rdf-syntax-ns#"
   xmlns:svg="http://www.w3.org/2000/svg"
   xmlns="http://www.w3.org/2000/svg"
   id="svgBG14"
   version="1.1"
   viewBox="0 0 100 100"
   height="100"
   width="100">
  <defs
     id="defs2" />
  <metadata
     id="metadata5">
    <rdf:RDF>
      <cc:Work
         rdf:about="">
        <dc:format>image/svg+xml</dc:format>
        <dc:type
           rdf:resource="http://purl.org/dc/dcmitype/StillImage" />
        <dc:title></dc:title>
      </cc:Work>
    </rdf:RDF>
  </metadata>
  <path
     id="pathBG14"
     d="m 44.316567,94.261762 c 0.84701,-1.679944 3.66374,-4.740596 3.22046,-1.020181 -0.20717,0.958642 -2.77266,2.782927 -3.22046,1.020181 z m 7.38118,-0.459629 c -0.73085,-1.149043 -0.67651,-5.335211 -3.14781,-3.219807 -0.62142,-2.206632 2.30131,-6.359118 -2.45153,-4.483482 -5.40312,0.428937 -10.42198,-5.51969 -6.18741,-9.213107 1.40689,-2.491887 7.38777,-1.615451 6.4308,0.769462 -5.43312,-3.131788 -7.60241,5.318197 -1.84907,5.713457 4.71268,-0.06786 7.31973,-4.601443 7.27272,-8.310471 0.55552,-4.250004 0.33944,-11.131273 -6.67822,-9.888938 -5.05487,-1.775414 -5.53297,-6.861291 -6.69617,-10.471656 -3.96584,2.215102 -7.75171,-1.887941 -12.45646,-0.728829 -4.72057,-1.320765 -8.64684,2.030461 -8.81741,5.953966 -1.86138,5.147372 4.90793,4.043599 7.69549,5.763257 -2.66994,4.658993 -8.73729,0.126434 -10.00322,-3.259791 -2.68165,-2.699211 4.03629,-7.720025 0.62705,-8.791047 -1.07863,1.439988 -7.4142303,8.017197 -5.22621,2.830426 2.58237,-2.823222 -1.0206903,-5.481484 -4.3104803,-4.81255 -1.74833,-3.163325 2.68898,-2.218414 4.6046603,-1.97788 3.04838,-2.417544 -6.9899303,-3.640694 -1.4441403,-5.073364 2.5575103,2.138218 7.2693503,4.166642 7.8025803,-0.72307 -0.0753,-3.786577 5.3779,-8.239841 8.8878,-4.056311 2.46306,1.818793 1.75271,7.873564 -1.02944,7.264162 0.9428,-2.935703 -2.47082,-9.331224 -5.13281,-3.990365 -1.94109,4.809965 2.58342,8.051736 7.42393,8.844686 4.17772,-0.229462 11.51194,3.670063 12.339,-1.970984 -0.003,-4.51378 4.28357,-7.200172 6.00605,-11.179909 4.78045,-1.773711 4.2653,-7.066318 3.48602,-10.95951 -2.26791,-6.262421 -6.6774,4.343043 -11.08384,0.531512 -6.46151,-2.247985 -4.33782,-10.078245 1.56468,-11.646583 4.27266,-1.308543 9.81352,7.895492 10.1794,0.874862 -0.68532,-4.274246 -5.30678,-6.8399 -7.19608,-10.641197 1.75331,-3.4163971 5.56265,0.8032496 5.73615,2.6800315 1.65426,-1.1568014 2.67243,-7.4753796 3.91662,-3.1116659 -1.17622,2.7055094 0.41376,9.3021014 3.5117,4.2357384 1.01505,-1.9498275 4.08098,-2.7453076 1.7185,-0.0067 -2.06948,1.871084 -5.9637,6.681779 -4.21156,7.995199 3.62237,-2.953764 9.87878,-2.331039 10.71935,2.36764 1.96607,2.678039 -4.61993,9.083422 -5.03494,4.619565 4.09116,-1.584877 5.12711,-6.715116 -0.6463,-6.826808 -6.6487,1.58494 -4.58816,8.762432 -6.33702,13.120727 -1.57609,5.955765 7.23129,5.85176 10.01739,9.816504 3.53838,2.396455 2.31835,9.622947 8.44211,8.602954 4.2768,1.412162 8.37975,-0.811579 11.34736,-3.875553 3.84232,-3.584588 -4.37003,-9.271715 -6.0915,-4.026888 -0.0131,5.616084 -4.00099,-3.147822 0.0385,-3.719786 3.11906,-3.080461 8.06105,1.046941 9.1226,3.789687 -1.38073,3.45497 0.94913,8.617002 5.49564,4.747958 0.79602,-1.47171 6.32527,-5.944846 4.78948,-2.185308 -4.12178,0.562625 -9.45259,6.187957 -2.92957,7.216104 4.16511,-1.181297 2.10986,2.118391 -0.66143,2.450728 -2.42414,0.879459 2.08452,5.524571 -1.71451,3.168687 -1.0147,-2.636734 -7.32069,-7.718143 -7.27039,-2.145233 1.03347,3.791303 -1.16073,12.342699 -7.46048,9.211771 -5.20285,-3.170141 3.52415,-9.906765 -2.85043,-11.558387 -4.41034,-0.844096 -8.17887,0.828296 -8.85312,4.779798 -1.83541,2.934342 -5.40734,4.454447 -7.99995,6.832563 -1.67007,4.433059 -1.63582,9.464966 -0.21612,13.956746 1.80908,4.634138 8.17297,3.009469 9.64926,-0.696213 -0.50815,-2.235514 -6.73047,0.190907 -4.34253,-3.247178 5.09307,-3.980179 8.95436,4.978375 3.70631,7.21947 -1.8408,2.705311 -5.68018,2.789637 -7.51771,0.74833 -1.07214,2.747011 0.82478,5.934962 2.68141,7.52509 -2.5991,0.252319 -4.90708,-3.316895 -4.97101,0.736553 -0.24501,0.948913 -0.58851,3.696545 -2.39371,2.430941 z m -2.04027,-31.318421 c 5.42441,-0.308944 11.85341,-2.795023 12.39732,-7.980992 0.45663,-4.402 0.98972,-9.786109 -3.9272,-12.636262 -3.29909,-2.188513 -9.93843,-3.004013 -12.17251,0.685964 -2.71344,3.498981 -6.47861,7.723511 -4.27535,12.209372 0.50485,3.495474 1.96607,10.573883 7.97774,7.721918 z m -0.0468,-3.471312 c -5.64746,-1.338433 -5.89176,-7.473371 -3.77374,-11.255392 1.66871,-5.475246 10.3288,-6.244388 12.13067,-0.387773 2.83919,3.904701 0.88043,9.066609 -3.76231,11.178957 -1.38511,0.665783 -3.06313,0.798862 -4.59462,0.464208 z m 4.39131,-3.291926 c 3.67547,-2.542339 2.13203,-11.610737 -3.722,-8.871999 -1.94176,2.185066 0.56358,3.165851 2.40571,2.081823 4.79661,3.001947 -8.82099,5.515582 -1.93548,7.453432 1.12667,0.08241 2.30983,-0.104378 3.25177,-0.663256 z m 24.8127,6.767206 c 1.66823,-2.848375 0.19739,-8.790936 -2.49384,-3.580538 -0.73786,1.489168 -0.19934,5.384988 2.49384,3.580538 z M 43.372597,25.775177 c 6.44239,-2.856831 -5.43387,-10.368366 -6.32,-3.112781 -0.86978,3.078527 3.59655,4.686994 6.32,3.112781 z m -18.12482,36.488015 c -2.96301,-2.218647 1.74232,-5.36405 2.02963,-1.357357 0.59583,1.668746 -0.57368,4.200818 -2.02963,1.357357 z"
     style="fill:#000000;stroke-width:0.47494027" />
</svg>
