<?xml version="1.0" encoding="UTF-8" standalone="no"?>
<svg
   xmlns:dc="http://purl.org/dc/elements/1.1/"
   xmlns:cc="http://creativecommons.org/ns#"
   xmlns:rdf="http://www.w3.org/1999/02/22-rdf-syntax-ns#"
   xmlns:svg="http://www.w3.org/2000/svg"
   xmlns="http://www.w3.org/2000/svg"
   id="svgBG15"
   version="1.1"
   viewBox="0 0 100 100"
   height="100"
   width="100">
  <defs
     id="defs2" />
  <metadata
     id="metadata5">
    <rdf:RDF>
      <cc:Work
         rdf:about="">
        <dc:format>image/svg+xml</dc:format>
        <dc:type
           rdf:resource="http://purl.org/dc/dcmitype/StillImage" />
        <dc:title></dc:title>
      </cc:Work>
    </rdf:RDF>
  </metadata>
  <path
     id="pathBG15"
     d="m 87.228042,86.616479 c 0.18883,-2.614522 -1.131024,-9.355794 0.81883,-9.326164 0.97946,2.776096 2.02476,10.078473 -0.58288,10.209685 z m -27.36974,-8.118475 c -5.048406,-1.919548 -1.2275,-12.246336 -7.241813,-11.266024 -5.22514,1.124619 -11.258833,2.128256 -15.823941,-1.426865 -2.733381,-2.079611 -5.747983,-3.969993 -8.32807,-6.119506 -2.563904,-3.773546 -6.30884,-7.942085 -7.04771,-12.197466 3.679303,2.214235 6.221689,6.840562 9.765442,9.897597 3.259775,3.812529 7.695353,6.657545 12.824751,7.360127 6.271104,0.954929 13.723257,-2.442075 15.116392,-9.077731 1.234919,-4.613274 2.503519,-12.082942 -2.743441,-14.54148 -4.941221,-1.251641 -7.380422,3.855661 -4.913429,7.573522 0.820783,4.47141 -4.424696,3.276642 -3.870743,-0.571538 -0.91281,-5.187635 2.912608,-12.074951 8.795885,-11.285517 4.877549,0.881843 7.001111,6.405016 6.465541,10.793081 -1.629844,3.540737 -0.06397,7.247628 3.76319,4.447369 3.228793,0.654046 8.200366,0.892568 5.095902,-3.703498 -2.825126,-3.4331 -1.64238,-7.98622 -2.981481,-11.987302 -1.765753,-4.267819 -0.501082,-9.147733 -2.781576,-13.217686 -3.619489,-3.820094 -8.358867,-7.728654 -13.988359,-7.352046 -4.721945,-0.116274 -9.80998,1.465995 -12.507418,5.59131 -3.531502,3.181458 -5.628381,-3.617952 -9.913073,-1.62414 -4.598227,0.539377 -9.633597,0.498679 -13.199228,3.957392 -2.840339,2.235345 -9.0781158,5.401842 -5.370449,9.629079 4.419653,2.472558 7.646892,6.65861 10.322785,10.879853 0.07165,3.963594 -4.567074,1.314927 -4.32163,-1.455918 C 14.682455,38.219946 9.4331062,36.722333 5.7397472,33.8841 2.5882052,28.549015 10.368577,26.707639 12.924957,23.396313 c 3.201745,-3.851754 7.54089,-6.309794 12.607762,-6.581672 4.670583,-1.58949 9.221609,0.320643 13.851939,0.152096 4.452618,-2.723716 9.763218,-5.955557 15.134821,-3.777211 4.161432,-0.637569 7.48362,1.300385 10.373648,3.939829 2.146332,2.281118 4.087611,11.211645 7.853635,5.964814 0.713198,-5.616101 9.44589,-1.177139 5.201335,2.149465 -2.573707,1.053385 -4.514395,1.021291 -4.480602,4.563782 -1.012521,6.785165 1.416754,13.892335 5.618078,19.196404 3.316653,3.042692 5.026917,7.203632 7.857639,10.644183 1.13374,3.254821 6.65529,6.990054 4.1471,10.204098 -1.67523,-0.449901 -2.74717,-6.250803 -4.49381,-2.562931 -0.0489,1.925233 2.55756,9.323709 -1.311495,5.416631 -2.079657,-3.925834 -1.933718,-9.019063 -5.895333,-11.869481 -3.358258,-4.001763 -9.11298,-2.142202 -12.903626,0.115136 -3.162834,2.529389 -6.157447,6.946684 -3.82802,11.026736 0.269224,2.986948 5.25059,1.397025 3.674422,5.337565 -0.780571,3.347537 -4.458383,3.601315 -6.474148,1.182247 z m -0.471914,-9.778035 c 1.02253,-4.480215 3.884314,-8.516122 7.59472,-11.116654 -3.951005,-2.074218 -6.798199,3.291078 -8.446273,6.212158 -1.176689,0.7659 -0.695217,8.034613 0.851553,4.904496 z M 77.951989,51.071555 c -0.05907,-1.739844 -1.079211,1.731414 0,0 z M 92.985222,86.7301 c -1.08665,-1.713063 1.76328,-9.505306 1.6683,-4.208547 0.65766,0.965243 0.52151,6.826219 -1.6683,4.208547 z m 0.27907,-9.609739 c -1.37139,-1.458917 -1.37553,-8.518419 0.53233,-3.731062 0.42169,0.951274 2.31095,6.185098 -0.53233,3.731062 z M 40.856593,55.44531 c -2.702147,-5.294874 7.13004,-1.206069 0.982166,0.391987 -0.376704,0.04207 -0.655503,-0.261795 -0.982166,-0.391987 z m -6.40815,-5.010369 c -1.882854,-4.260577 5.91411,-3.422389 2.351934,0.20739 -0.5618,0.686866 -2.159037,0.927535 -2.351934,-0.20739 z m -4.982699,-5.362987 c -3.2352,-4.021814 5.363834,-4.700332 2.45459,0.29554 -0.530194,1.397086 -2.475707,1.528736 -2.45459,-0.29554 z m -5.990343,-8.203349 c -1.913155,-3.277073 3.577988,-9.336159 4.982923,-4.015801 -0.33161,1.732693 -4.002296,9.399961 -4.982923,4.015801 z m 15.671833,4.578037 c -2.734275,-3.84295 6.5913,-4.115976 2.267278,-0.108638 -0.506431,0.653514 -1.840124,1.118981 -2.267278,0.108638 z M 34.720583,30.792809 c 1.929183,-5.83038 5.367205,4.581178 -0.181102,2.074955 -0.363582,-0.641112 -0.299543,-1.508562 0.181102,-2.074955 z m 7.356065,-0.07378 c -0.929309,-4.420235 4.957149,-3.91913 7.395406,-5.352672 5.325467,0.770411 1.157076,4.474448 -2.175976,3.613015 -1.773573,-0.284147 -4.321918,4.077774 -5.21943,1.739657 z m 11.949237,-3.733652 c -1.238705,-5.078381 5.206098,1.356151 0.311878,0.754631 z m 4.816441,0.808889 c -1.528466,-3.485962 4.631341,-4.920856 2.519751,-0.769649 -0.435398,0.833334 -1.871975,2.328146 -2.519751,0.769649 z"
     style="fill:#000000;stroke-width:0.46405295" />
</svg>
