<?xml version="1.0" encoding="UTF-8" standalone="no"?>
<svg
   xmlns:dc="http://purl.org/dc/elements/1.1/"
   xmlns:cc="http://creativecommons.org/ns#"
   xmlns:rdf="http://www.w3.org/1999/02/22-rdf-syntax-ns#"
   xmlns:svg="http://www.w3.org/2000/svg"
   xmlns="http://www.w3.org/2000/svg"
   id="svgBG16"
   version="1.1"
   viewBox="0 0 100 100"
   height="100"
   width="100">
  <defs
     id="defs2" />
  <metadata
     id="metadata5">
    <rdf:RDF>
      <cc:Work
         rdf:about="">
        <dc:format>image/svg+xml</dc:format>
        <dc:type
           rdf:resource="http://purl.org/dc/dcmitype/StillImage" />
        <dc:title></dc:title>
      </cc:Work>
    </rdf:RDF>
  </metadata>
  <path
     id="pathBG16"
     d="m 58.28444,94.034735 c -4.35351,-2.59201 -8.09433,-6.02538 -11.04213,-10.13365 -3.33392,-4.68131 -6.47473,-9.47328 -9.02092,-14.62591 -2.7544,-4.02825 -5.16153,-8.22863 -6.59589,-12.93158 -1.9705,-6.88741 -4.85013,-13.52337 -6.09361,-20.60502 -1.01761,-5.21329 -6.30967,-6.65904 -9.68369,-9.58643 -2.90493,-1.31586 -9.7731004,-1.63081 -8.0848104,-6.31417 0.8007,-2.98419 5.6664704,0.19567 3.3575304,-3.44349 -2.2215404,-5.08194 4.51823,-2.68873 5.63012,0.10959 2.73557,-0.20672 0.15049,-6.6866703 1.43739,-9.2663903 1.13952,-5.26352 3.9871,0.0435 2.9635,2.8304903 -0.45258,6.44833 -0.25911,13.57444 3.96253,18.85813 0.70166,4.00927 4.387,7.21657 5.72213,1.67145 2.1012,-4.5917 2.64229,-10.68523 7.60555,-13.25575 3.56087,-2.39484 8.48777,-4.14069 12.19971,-0.98 3.93207,1.80765 5.17189,6.78777 9.30404,8.20169 5.55853,1.50375 7.09368,6.46103 10.36287,10.41387 4.86517,1.97494 7.69263,6.84161 8.96947,11.81695 -0.2736,5.46633 4.99527,3.00257 7.8757,4.20737 2.71754,4.84122 4.41387,10.34184 5.14016,15.84234 0.18874,4.77011 -3.92249,9.59409 -8.6999,9.76661 -4.69655,-0.56792 -8.95917,-4.14441 -9.39793,-9.02971 -1.09783,-4.65412 -7.40533,-5.23803 -8.05314,-10.50551 -1.26187,-4.72345 -5.17951,-7.42798 -9.4874,-9.15812 -2.98339,-2.84094 -6.42813,-6.95188 -5.1531,-11.39832 1.60664,-4.2574 2.98752,-11.85176 -3.56964,-12.28258 -5.53408,-0.4567 -9.80538,4.96301 -10.77397,9.9509 -0.86506,8.48135 0.19129,17.13062 2.29791,25.37714 0.0509,4.73917 4.7677,7.42134 5.85309,11.74446 2.25885,4.25494 5.12583,8.36739 9.28021,10.93418 1.46564,2.6395 8.18585,2.29894 7.11784,5.4892 -2.88741,1.14338 -2.97392,1.95211 -1.58112,4.48971 0.75496,1.81463 0.0892,4.11144 -1.8425,1.81255 z m 28.11126,-23.076 c 4.45922,-3.42657 1.63783,-9.57513 0.71171,-14.01071 -2.09456,-5.09421 -7.51827,-3.15845 -8.23126,1.57249 -1.78218,3.28082 -4.69182,5.7989 -1.44041,9.2303 1.53558,3.18079 5.76582,4.77582 8.95996,3.20792 z M 35.65351,57.259755 c -0.01,-5.41535 -1.51644,-10.74316 -0.9481,-16.18218 -0.2286,-5.22291 -0.57201,-11.00074 2.91444,-15.33075 1.18749,-1.50786 2.30351,-4.64914 -0.41579,-2.10964 -2.69787,3.684 -3.47038,8.45577 -5.33043,12.59441 -1.18717,5.3067 0.40473,10.66739 1.57591,15.82556 1.2661,0.40894 0.78233,7.70026 2.20397,5.2026 z m 39.77493,-1.60854 c -0.50314,-4.99659 0.29651,-11.06008 -3.54608,-14.92761 -4.68323,-2.36224 -6.03542,6.72209 -3.74992,9.69056 1.41017,1.25793 5.47048,8.80387 7.296,5.23705 z M 61.93593,44.472995 c 2.51022,-2.87781 4.75205,-6.92948 3.82941,-10.82029 -0.48097,-3.30967 -7.15182,-8.06509 -4.57823,-1.95258 0.24214,2.8783 5.4417,9.79388 -0.39089,8.86137 -1.78593,-1.42712 -2.01412,-8.31786 -5.39103,-4.68239 -1.61994,4.06679 2.05879,8.95505 6.06289,9.06695 0.15595,-0.15769 0.3119,-0.31537 0.46785,-0.47306 z M 40.46152,21.651705 c -1.82662,0.13995 1.05367,1.93797 0,0 z"
     style="fill:#000000;stroke-width:0.45958221" />
</svg>
