<?xml version="1.0" encoding="UTF-8" standalone="no"?>
<svg
   xmlns:dc="http://purl.org/dc/elements/1.1/"
   xmlns:cc="http://creativecommons.org/ns#"
   xmlns:rdf="http://www.w3.org/1999/02/22-rdf-syntax-ns#"
   xmlns:svg="http://www.w3.org/2000/svg"
   xmlns="http://www.w3.org/2000/svg"
   id="svgBG17"
   version="1.1"
   viewBox="0 0 100 100"
   height="100"
   width="100">
  <defs
     id="defs2" />
  <metadata
     id="metadata5">
    <rdf:RDF>
      <cc:Work
         rdf:about="">
        <dc:format>image/svg+xml</dc:format>
        <dc:type
           rdf:resource="http://purl.org/dc/dcmitype/StillImage" />
        <dc:title></dc:title>
      </cc:Work>
    </rdf:RDF>
  </metadata>
  <path
     id="pathBG17"
     d="m 90.781586,79.410487 c -7.16202,-1.0626 -13.71178,3.21486 -20.84677,2.61087 -4.98663,-0.66719 -9.45202,2.9677 -14.56905,1.36578 -2.73439,0.11829 -2.28793,7.36694 -6.92191,7.28866 -3.71036,0.29901 -9.00367,-0.0807 -7.8356,-5.44698 1.93438,-3.20846 3.70262,-7.42768 -0.5923,-9.97013 -4.35224,-3.29332 -10.53748,-3.92378 -15.11814,-0.64835 -4.66325,2.55544 -9.93217,5.54252 -11.31173,11.13163 -2.81467,3.73061 -2.72709,-2.19897 -3.49882,-2.8683 -1.6307199,1.53715 -2.2551199,9.40949 -5.0677399,4.68358 -0.32765,-5.11606 3.53153,-9.69687 6.8137099,-13.17051 3.57463,-4.15157 0.86952,-10.21277 5.19628,-14.04809 3.00969,-4.18112 7.56762,-9.84399 4.0252,-15.0322 -3.34652,-2.57817 -8.29687,-4.83348 -6.34565,-10.21107 0.68674,-7.49874 9.61397,-6.76462 14.19826,-3.30597 5.62191,2.269 7.35375,8.89383 7.07575,14.4211 -0.16215,6.15542 -3.64782,11.55491 -6.97934,16.46576 -2.18521,5.68051 6.27467,0.87534 8.70624,3.83759 4.56,2.55027 9.91861,4.32607 12.58275,9.20949 2.05098,4.66419 7.60963,5.01167 12.02126,4.45593 4.57776,-1.366 9.3642,-1.49832 14.10479,-1.74815 3.21841,-1.35854 8.45174,-1.54951 10.4281,-3.07217 -0.86889,-5.70225 -8.41091,-7.89042 -8.59522,-13.96871 2.30617,-4.61486 6.06334,-8.43449 7.10507,-13.7885 0.1625,-3.37992 7.91328,-7.42906 3.90619,-9.84056 -6.21515,-0.53105 -12.42157,-0.0391 -18.67113,-0.33768 -3.62858,0.267 -8.72449,2.24317 -11.33159,-0.94828 -0.48695,-5.66634 0.71433,-11.51227 -2.15016,-16.92294 -0.65717,-4.41628 -6.69488,-8.5888 -8.91687,-2.92235 -3.69546,4.18285 -8.33755,7.58642 -10.80825,12.72145 -0.88965,2.8568 -6.33985,5.0572 -4.73436,0.24247 2.03276,-4.27758 6.06814,-7.22748 8.87621,-11.00729 4.07732,-2.61339 5.13356,-9.2283202 10.57312,-9.2382702 4.93587,2.0886002 7.01555,8.3150902 8.93299,13.0298702 1.33224,3.86026 0.18398,11.85865 5.79237,11.88609 4.70534,-0.17929 9.40025,0.93747 14.10417,0.10653 4.47739,0.95656 10.9224,-1.30207 14.07059,2.35636 -1.06838,4.55363 -4.86197,8.03018 -6.73864,12.32936 -2.35162,4.32484 -2.97196,9.13333 -5.58328,13.35795 0.18824,5.84081 6.33816,9.22236 9.80281,13.34477 2.52255,1.78245 0.54461,3.652 -1.69931,3.65126 z m -41.10217,6.27506 c 2.8052,-3.09232 -1.42717,-10.59393 -4.13719,-9.15495 0.20306,3.69356 0.17935,8.89631 0.17996,11.58271 1.51136,-0.0198 3.78283,-0.62201 3.95723,-2.42776 z m -38.07559,-4.88848 c -2.0240699,-1.42107 -0.18918,2.44908 0,0 z m 12.17711,-17.99164 c 3.33249,-4.5008 6.15968,-9.47115 8.22947,-14.66986 1.89552,-5.07207 0.31273,-11.51745 -4.83265,-13.95434 -3.78968,-0.53615 1.41746,4.97711 0.0847,7.35865 1.02822,5.22075 0.66373,10.88957 -2.29853,15.49851 -1.10107,1.81775 -6.03688,5.86178 -3.44015,7.27212 0.84462,-0.34538 1.55546,-0.93707 2.25721,-1.50508 z m 54.65717,11.66328 c -5.67376,-3.0544 5.74397,-5.81881 3.24995,-0.47061 -0.87642,0.77489 -2.18658,0.67803 -3.24995,0.47061 z m -4.91895,-3.2937 c -3.64172,-2.87873 -10.97175,0.75116 -12.63566,-4.14181 1.67506,-4.17874 6.49117,1.07977 9.95303,-0.20168 1.92287,-0.17724 4.37718,3.00989 2.68263,4.34349 z m -16.45592,-3.70305 c -5.609,2.92685 -5.51811,-9.03387 -0.65406,-3.25494 0.61755,0.94182 1.01362,2.13983 0.65406,3.25494 z m -4.50965,-9.58606 c -4.0439,-4.26674 6.49694,-1.23119 0.19706,0.0407 z m 3.34179,-2.22133 c -3.17928,-5.34551 6.94797,-0.75972 0.80901,0.47631 z m 7.00025,-3.22456 c -4.99663,-4.95173 7.34197,-3.16758 0.50838,0.19 z m 6.32272,-3.43703 c -5.44416,-2.78041 5.72668,-10.75675 4.07745,-2.72673 -0.25579,1.8743 -2.13288,3.74758 -4.07745,2.72673 z m -26.99999,5.09661 c -0.98221,-3.22293 5.21716,-4.97712 1.77732,-8.2667 0.0571,-4.65486 4.8542,-8.5609 2.74801,-13.04459 2.32615,-3.6045 5.34545,0.68985 3.31108,3.4621 -1.2057,4.8073 -1.7761,9.74055 -3.49133,14.30661 0.13642,2.27966 -2.11362,7.07011 -4.34508,3.54258 z m 6.83085,-23.91047 c -4.17766,-2.84898 3.08948,-10.1087 3.52157,-3.30395 0.22423,1.95085 -1.61461,3.58744 -3.52157,3.30395 z"
     style="fill:#000000;stroke-width:0.48534954" />
</svg>
