<?xml version="1.0" encoding="UTF-8" standalone="no"?>
<svg
   xmlns:dc="http://purl.org/dc/elements/1.1/"
   xmlns:cc="http://creativecommons.org/ns#"
   xmlns:rdf="http://www.w3.org/1999/02/22-rdf-syntax-ns#"
   xmlns:svg="http://www.w3.org/2000/svg"
   xmlns="http://www.w3.org/2000/svg"
   id="svgBG18"
   version="1.1"
   viewBox="0 0 100 100"
   height="100"
   width="100">
  <defs
     id="defs2" />
  <metadata
     id="metadata5">
    <rdf:RDF>
      <cc:Work
         rdf:about="">
        <dc:format>image/svg+xml</dc:format>
        <dc:type
           rdf:resource="http://purl.org/dc/dcmitype/StillImage" />
        <dc:title></dc:title>
      </cc:Work>
    </rdf:RDF>
  </metadata>
  <path
     id="pathBG18"
     d="M 28.125487,94.219132 C 27.180861,85.736929 26.974633,77.221159 27.228835,68.703279 28.253134,65.256364 25.624046,62.703813 22.495658,61.086631 18.875676,58.427313 14.707083,56.351447 11.272166,53.489203 7.2921006,52.325619 2.6083225,46.439775 9.5713081,45.534127 13.981025,44.177724 17.82206,41.757925 22.036376,40.040594 c 3.473579,-1.125892 7.899737,-6.574362 11.117534,-4.677902 -0.664228,4.055594 -2.254124,8.252221 -7.487894,9.217315 -3.115301,0.778429 -6.016132,2.959836 -2.879869,5.759979 2.21563,1.814905 7.716076,6.689813 2.159125,7.841769 -2.699271,-1.224368 -4.552779,-8.281315 -8.609487,-5.313243 -0.375241,4.494104 8.434892,4.171658 9.995361,8.563726 5.400656,0.850212 5.324536,5.881158 3.508341,9.277046 -0.426823,6.215493 0.697888,12.427101 0.521378,18.63213 3.163642,1.413479 2.676058,3.847158 -0.110048,5.49342 -0.75485,0.382717 -1.739829,0.06861 -2.12533,-0.615702 z M 13.867915,51.024342 c 0.09501,-4.266372 6.19457,-4.951063 7.795113,-7.904361 -4.10311,-0.507168 -5.653609,3.524198 -9.701407,3.354687 -4.0768347,1.227843 -1.015333,5.96774 1.906294,4.549674 z m 20.991863,36.976534 c 0.04332,-3.701716 4.913619,-1.523923 1.113507,0.499571 -0.464304,0.150212 -0.962402,-0.110162 -1.113507,-0.499571 z m 43.13183,-0.158115 C 75.005613,85.970059 70.896677,86.98852 68.449558,83.894194 64.146336,81.715083 61.56247,77.83069 57.908181,75.086628 c -3.336865,-1.706272 -7.153217,-3.892246 -9.19159,0.438977 -2.311431,3.180472 -7.180106,8.80128 -10.167293,8.543827 2.637407,-2.846585 5.974752,-4.6141 6.971161,-8.437245 2.13472,-2.916351 5.198193,-6.617049 9.333817,-6.742077 3.942339,2.756376 7.089395,6.684777 10.844642,9.850418 2.168591,1.73196 9.382358,6.997986 9.532849,1.747436 -2.610329,-3.653298 -0.269683,-8.189204 -1.31911,-12.21622 1.053081,-5.272554 -2.380512,-10.580936 -0.105815,-15.608459 2.349056,-4.634418 5.758111,-8.672446 8.681954,-13.002153 1.001487,-2.594217 6.458927,-7.01079 2.59341,-9.047703 -2.895127,3.724188 -5.033512,8.599162 -8.53467,12.312332 -3.585564,2.914685 -2.931651,-4.956071 0.610039,-4.85689 4.15134,-2.375833 -1.093178,-6.160476 -3.819804,-2.963635 -2.316343,1.202106 -6.804954,-1.036331 -2.337663,-2.10135 2.090724,-1.002525 11.148019,-0.931759 6.039355,-3.569369 -4.319829,-0.314214 -9.020727,-0.454557 -13.123091,0.673282 -2.979813,0.798902 -2.573339,7.323291 -5.519281,3.224567 -1.373844,-4.074029 -1.503874,-8.467661 -3.582691,-12.381256 -0.606943,-1.900638 -3.173309,-8.034587 -5.017116,-3.926028 -1.167573,2.852108 4.85356,7.947081 -0.292763,8.626761 -1.323053,-1.356119 -2.980191,-5.082577 -4.042216,-1.292521 0.931684,2.808838 -2.95503,5.378349 -3.466461,1.659352 1.167126,-3.199278 4.483208,-7.770625 2.6439,-10.643978 -2.144254,4.156709 -4.996655,8.056144 -7.202784,12.123756 -0.428505,1.85941 -1.708731,9.06244 -4.14744,5.238925 1.393726,-4.374533 4.822016,-7.947467 5.644198,-12.542896 2.908371,-3.594478 4.346306,-7.791096 6.594871,-11.6843341 1.039593,-1.8526465 3.816754,-5.9236422 4.175823,-1.5685286 2.461799,4.3506087 3.84715,9.0692807 6.870135,13.0815607 1.335384,3.951788 2.377114,9.453809 8.623232,7.601831 4.549348,-0.873868 9.100534,0.101185 13.696229,-0.0452 4.236237,0.01513 8.690819,0.288488 12.689229,-0.947179 4.451877,3.187279 -2.822005,6.941832 -3.674816,10.314689 -2.336314,4.495836 -5.623358,8.372802 -9.074549,12.179862 -3.084169,4.284039 -2.06134,9.641706 -2.55769,14.475064 0.153588,6.176234 -0.600483,12.560668 1.447469,18.54372 0.06126,1.6632 5.264434,7.199603 0.26798,5.696796 z M 47.17439,13.848526 c 4.34752,-0.353669 1.888884,-7.0002137 -0.503534,-2.99425 -0.722392,0.780873 -2.254458,4.70176 0.503534,2.99425 z M 32.479791,83.312608 c -0.09535,-4.421595 -1.787904,-10.387769 1.363118,-13.853597 2.953505,0.952302 0.04733,9.697686 4.506978,5.020117 0.549369,-2.561089 6.317459,-5.894851 4.657301,-1.237311 -3.083344,2.822758 -5.838652,5.787025 -7.23387,9.608363 -0.609405,1.221687 -2.292619,1.296797 -3.293527,0.462428 z m 36.658143,-4.793652 c -3.227308,-2.193994 -8.148168,-4.567074 -8.521716,-8.34475 2.809685,-2.252652 7.109589,6.909994 8.565679,2.256841 0.684756,-2.612459 -3.628793,-8.676101 1.069912,-8.684472 0.857512,3.988014 1.52008,8.193003 2.113701,12.291029 2.047205,1.585877 -1.810281,4.201411 -3.227576,2.481352 z M 45.16716,62.614862 c -1.19974,-6.249922 6.599817,1.396201 0,0 z m -6.105139,-3.587388 c -0.690436,-1.977083 -4.775369,-6.899327 -0.68851,-6.625031 1.867365,1.683811 6.264329,7.681822 1.012326,7.004428 L 39.223694,59.216909 Z M 51.79117,58.055408 c -0.03765,-3.78723 -4.490928,-2.015384 -5.802653,-1.038828 -5.32877,-1.649727 -4.311087,-9.764496 0.735937,-11.02488 5.310067,-0.665927 6.844895,4.218138 5.901784,7.744319 1.708565,1.408002 3.064867,5.969239 -0.835068,4.319389 z m -4.329677,-4.977151 c 5.068599,-0.83903 -1.438903,-5.949471 -1.546567,-1.479799 -0.477404,0.778595 0.993167,2.95247 1.546567,1.479799 z m 9.829888,-2.034944 c -2.208567,-3.325644 4.89817,-2.726836 1.447236,0.160654 -0.369639,0.594077 -1.38818,0.627319 -1.447236,-0.160654 z M 36.067394,49.240341 c 0.474128,-2.121201 1.943017,-3.845131 1.121972,-6.004239 3.03898,-3.103054 6.251886,2.576529 1.778781,3.301724 0.596517,1.718175 -0.2399,5.510657 -2.900753,2.702515 z m 20.092504,-3.559256 c -4.521547,-1.890869 3.281497,-4.363498 1.305476,-0.594818 0.09824,0.943379 -0.847343,1.02358 -1.305476,0.594818 z M 44.305514,42.812988 c -2.541683,-5.073198 4.204415,0.319259 0,0 z m 5.138649,-0.178252 c -2.665755,-3.700066 6.464184,-2.375591 1.744931,0.515434 -0.597497,0.447872 -1.599932,0.177774 -1.744931,-0.515434 z"
     style="fill:#000000;stroke-width:0.44301441" />
</svg>
