<?xml version="1.0" encoding="UTF-8" standalone="no"?>
<svg
   xmlns:dc="http://purl.org/dc/elements/1.1/"
   xmlns:cc="http://creativecommons.org/ns#"
   xmlns:rdf="http://www.w3.org/1999/02/22-rdf-syntax-ns#"
   xmlns:svg="http://www.w3.org/2000/svg"
   xmlns="http://www.w3.org/2000/svg"
   id="svgBG2"
   version="1.1"
   viewBox="0 0 100 100"
   height="100"
   width="100">
  <defs
     id="defs6029" />
  <metadata
     id="metadata6032">
    <rdf:RDF>
      <cc:Work
         rdf:about="">
        <dc:format>image/svg+xml</dc:format>
        <dc:type
           rdf:resource="http://purl.org/dc/dcmitype/StillImage" />
        <dc:title></dc:title>
      </cc:Work>
    </rdf:RDF>
  </metadata>
  <path
     id="pathBG2"
     d="m 12.090952,92.1697 c -0.42551,-0.321846 -1.087523,-0.590875 -1.471151,-0.597847 -0.383619,-0.0072 -0.6974974,-0.171114 -0.6974974,-0.364756 0,-0.319834 -1.3707925,-0.864196 -1.7855126,-0.709048 C 8.0416087,90.533672 7.6927462,90.204059 7.3614741,89.76563 7.0301913,89.327212 6.7534303,89.13428 6.7464583,89.336905 6.7392919,89.539521 6.2995895,89.297479 5.7688941,88.798838 4.9766552,88.05455 4.8456166,87.636001 5.0365273,86.459517 c 0.1278865,-0.788071 0.6349246,-2.025812 1.1267356,-2.750561 0.4918219,-0.724736 0.8164,-1.631361 0.721299,-2.014732 -0.1005243,-0.405108 0.332473,-1.230479 1.0338317,-1.970748 0.6637364,-0.700551 1.2067835,-1.462803 1.2067835,-1.693908 0,-0.231095 0.2690289,-0.420182 0.5978579,-0.420182 0.328808,0 0.597837,-0.226033 0.597837,-0.502303 0,-0.276272 0.737028,-1.261648 1.63782,-2.189726 1.072542,-1.105025 1.553437,-1.907318 1.39333,-2.324536 -0.163537,-0.426168 0.01993,-0.706278 0.554291,-0.845997 0.439332,-0.114889 0.79879,-0.399418 0.79879,-0.632281 0,-0.676244 9.645195,-9.846339 10.356482,-9.846339 0.354149,0 0.859143,-0.215227 1.122196,-0.47827 0.263054,-0.26306 0.48102,-0.307896 0.484377,-0.09964 0.003,0.208243 0.164995,0.127689 0.359191,-0.179018 0.194197,-0.306708 0.774342,-0.583654 1.289236,-0.615434 0.514872,-0.03174 1.69419,-0.396397 2.620691,-0.810255 1.663521,-0.743091 1.682866,-0.775207 1.550081,-2.573092 -0.07394,-1.001332 -0.293929,-2.179323 -0.488845,-2.617739 -0.194914,-0.438422 -0.354384,-2.800434 -0.354384,-5.248921 0,-4.068116 0.07732,-4.534043 0.896765,-5.406317 0.493228,-0.524993 0.896776,-1.225576 0.896776,-1.556865 0,-0.705531 1.626104,-2.335533 2.329946,-2.335533 0.266771,0 0.571131,-0.224193 0.676367,-0.498206 0.282952,-0.736733 4.14889,-0.801602 5.238149,-0.08791 0.491965,0.322353 1.16984,0.586104 1.50637,0.586104 0.336529,0 0.611873,0.298922 0.611873,0.664278 0,0.365351 0.11996,0.544312 0.266575,0.397691 0.354499,-0.354493 1.726246,0.909365 1.726246,1.590478 0,0.468226 0.761611,0.730474 1.693903,0.583275 0.164409,-0.02596 0.298928,0.144628 0.298928,0.379082 0,0.234462 0.403548,0.368974 0.896766,0.298928 0.855706,-0.121524 0.908914,-0.346417 1.161667,-4.910143 0.398898,-7.20216 2.140771,-11.359114 4.759799,-11.359114 0.758715,0 1.17982,-0.253507 1.359016,-0.818122 0.20738,-0.653393 0.373288,-0.723814 0.823998,-0.349762 0.404791,0.335948 0.564322,0.341886 0.564322,0.02097 0,-0.246057 0.358709,-0.447374 0.797137,-0.447374 0.438418,0 0.797126,0.215226 0.797126,0.478277 0,0.371996 0.10628,0.371996 0.478278,0 0.832685,-0.832689 2.296966,-0.568875 2.69806,0.486113 0.238287,0.62673 0.618589,0.916492 1.0862,0.827621 0.395744,-0.07522 1.050188,-0.150477 1.454331,-0.167255 0.404144,-0.0168 0.828607,-0.389198 0.943258,-0.827621 0.114651,-0.438423 0.445986,-0.797135 0.73629,-0.797135 0.766456,0 1.110163,-0.750016 0.616381,-1.34499 -0.310911,-0.374621 -0.23956,-0.719192 0.264613,-1.277871 0.379665,-0.420721 0.728578,-1.35603 0.775338,-2.078469 0.04682,-0.722447 0.450309,-1.777926 0.896766,-2.345507 0.446468,-0.567583 0.811748,-1.431041 0.811748,-1.918808 0,-0.48776 0.448388,-1.223562 0.996416,-1.635105 0.548027,-0.411553 0.996415,-0.980373 0.996415,-1.264035 0,-0.283672 0.313869,-0.629855 0.697487,-0.769309 0.865398,-0.314591 3.01887,-2.459174 3.645971,-3.6309239 0.299504,-0.559626 0.844737,-0.8732923 1.518024,-0.8732923 0.577855,0 1.398177,-0.3138757 1.822939,-0.6974889 2.064737,-1.8647621 11.65465,0.6045842 12.482933,3.2142751 0.150937,0.475564 0.250453,3.15832 0.221153,5.961703 -0.04568,4.370999 -0.15882,5.210343 -0.794228,5.892373 -0.407511,0.437418 -0.967912,1.552911 -1.245319,2.478868 -0.277407,0.925957 -0.684447,2.070009 -0.904518,2.542331 -0.220082,0.472324 -0.278732,1.055221 -0.13033,1.295341 0.148392,0.240112 0.09929,0.436558 -0.109065,0.436558 -0.208387,0 -0.492561,0.452958 -0.631517,1.00656 -0.138944,0.553599 -0.60677,1.360698 -1.039622,1.793545 -0.432842,0.432845 -0.786992,1.056024 -0.786992,1.384837 0,0.32882 -0.165098,0.597851 -0.366891,0.597851 -0.201796,0 -0.485487,0.539909 -0.630418,1.199791 -0.144932,0.659893 -0.551827,1.488107 -0.90421,1.840489 -1.132702,1.132705 -0.378937,7.793557 0.799529,7.065228 0.259336,-0.160279 0.311671,-0.07624 0.132805,0.213137 -0.162366,0.262724 0.02843,0.963009 0.423991,1.556208 0.964051,1.445681 1.213447,5.982118 0.347157,6.314547 -0.329496,0.126443 -0.59909,0.480383 -0.59909,0.786536 0,0.306169 -0.358709,1.225931 -0.797126,2.043935 -0.438428,0.817993 -0.797137,1.714123 -0.797137,1.991381 0,0.277258 -0.271359,0.504111 -0.603022,0.504111 -0.331673,0 -1.00425,0.851936 -1.494624,1.893183 -1.063136,2.257432 -1.725722,2.859992 -3.163534,2.876923 -0.593935,0.0072 -1.258319,0.325252 -1.482507,0.710161 -0.22344,0.383621 -0.41281,0.51814 -0.420819,0.298928 -0.0082,-0.219212 -0.258103,0.06813 -0.55574,0.63851 -0.592763,1.135975 -0.352125,3.892296 0.472611,5.413411 0.747852,1.379284 0.436868,4.287569 -0.836708,7.824704 -0.448614,1.245979 -3.391687,4.247078 -4.171543,4.253804 -0.27401,0.0024 -0.498208,0.183655 -0.498208,0.402865 0,0.219204 -0.702466,0.398561 -1.561046,0.398561 -0.85857,0 -1.626669,0.196873 -1.706881,0.437506 -0.195892,0.587668 -5.500514,1.014082 -5.500514,0.442161 0,-0.233846 -0.822304,-0.835851 -1.827345,-1.337802 -1.762984,-0.880476 -1.869391,-0.888479 -3.021539,-0.227245 -0.656806,0.376968 -1.433745,0.68538 -1.726524,0.68538 -0.292788,0 -0.622797,0.224192 -0.733373,0.498212 -0.148422,0.36784 -0.209259,0.372697 -0.232495,0.01856 -0.02208,-0.336929 -0.416948,-0.27762 -1.326796,0.199272 -0.712436,0.373422 -1.355123,0.813473 -1.4282,0.977881 -0.07311,0.16441 -0.466028,0.29892 -0.873252,0.29892 -0.407215,0 -0.851238,0.179359 -0.986723,0.398568 -0.737541,1.193384 -4.5835,-0.182788 -4.5835,-1.640098 0,-0.562883 -0.289154,-0.751287 -1.153052,-0.751287 -0.701913,0 -1.251377,-0.256236 -1.404359,-0.654892 -0.138216,-0.360192 -0.367046,-0.539163 -0.508505,-0.397701 -0.141461,0.141455 -0.568451,-0.02443 -0.948856,-0.368747 -0.495939,-0.448813 -0.899826,-0.518881 -1.427317,-0.247633 -0.404617,0.208066 -1.542771,0.749325 -2.529217,1.202806 -0.986455,0.453472 -2.057333,1.192256 -2.379744,1.641753 -0.322402,0.449476 -0.905299,0.817241 -1.295324,0.817241 -0.390037,0 -0.709152,0.187953 -0.709152,0.417688 0,0.928184 -2.203929,2.347175 -3.664976,2.359671 -1.203221,0.01028 -1.56808,0.210974 -1.992832,1.096106 -0.428108,0.892105 -0.830373,1.109475 -2.277118,1.230483 -0.966432,0.0808 -2.026642,0.416464 -2.356025,0.745838 -0.363257,0.363257 -1.058516,0.531404 -1.767205,0.427391 -0.740344,-0.108665 -1.24344,0.02424 -1.373339,0.362763 -0.112752,0.293836 -0.432894,0.534229 -0.711411,0.534229 -0.278526,0 -0.729686,0.269037 -1.002576,0.597856 -0.672771,0.81063 -5.134187,0.819747 -6.201235,0.01274 z m 4.180393,-3.818974 c 0.02125,0.439907 0.138914,0.467015 0.492428,0.113513 0.353501,-0.353513 0.57808,-0.308941 0.940414,0.186578 0.434372,0.594027 0.582209,0.57537 1.68959,-0.213152 0.667463,-0.47528 1.679105,-0.864135 2.2481,-0.864135 0.65387,0 1.034521,-0.219979 1.034521,-0.597847 0,-0.419824 0.423878,-0.597858 1.423457,-0.597858 1.421618,0 2.562205,-0.717705 2.562205,-1.612262 0,-0.293118 0.38873,-0.399185 1.020431,-0.278413 0.758263,0.144941 1.17558,-0.04179 1.624338,-0.726617 0.345658,-0.527554 0.8467,-0.828527 1.171689,-0.703818 0.312267,0.119842 0.567762,0.01937 0.567762,-0.223333 0,-0.242668 0.358708,-0.441211 0.797127,-0.441211 0.442854,0 0.797135,-0.265704 0.797135,-0.597852 0,-0.328812 0.338081,-0.597843 0.751292,-0.597843 0.413209,0 1.050331,-0.456388 1.415827,-1.0142 0.365486,-0.557811 1.10353,-1.181118 1.640089,-1.385112 0.536569,-0.204007 0.975573,-0.554708 0.975573,-0.779343 0,-0.224635 0.258452,-0.408435 0.574323,-0.408435 0.839265,0 1.024406,-0.48563 1.247321,-3.271761 0.374798,-4.684449 0.609152,-5.837828 1.387088,-6.82683 1.23459,-1.569513 1.016345,-2.849626 -0.618054,-3.625202 -0.767237,-0.364073 -1.394985,-0.832901 -1.394985,-1.041818 0,-0.208934 -0.269028,-0.37987 -0.597847,-0.37987 -0.328809,0 -0.597846,-0.269038 -0.597846,-0.59785 0,-0.667751 -0.622328,-0.80456 -0.985657,-0.216688 -0.12956,0.20964 -0.480711,0.287084 -0.780327,0.172107 -0.299638,-0.114969 -0.675021,0.0017 -0.834194,0.259243 -0.214957,0.34781 -0.37758,0.329167 -0.63206,-0.07248 -0.252127,-0.397901 -0.344261,-0.409134 -0.348748,-0.04259 -0.0042,0.314517 -0.593915,0.498213 -1.600362,0.498213 -0.876847,0 -1.594264,0.175933 -1.594264,0.390975 0,0.215032 -0.448387,0.503499 -0.996404,0.641048 -0.548038,0.137548 -0.996428,0.409994 -0.996428,0.605445 0,0.195442 -0.518865,0.355361 -1.153051,0.355361 -0.657267,0 -1.251696,0.257058 -1.382467,0.597843 -0.126183,0.328813 -0.557279,0.597843 -0.957983,0.597843 -0.71486,0 -1.840496,0.707453 -3.329431,2.092466 -0.412388,0.383631 -0.929161,0.697498 -1.148371,0.697498 -0.219208,0 -0.398568,0.358711 -0.398568,0.797126 0,0.438423 -0.18054,0.797136 -0.401197,0.797136 -0.456962,0 -2.189471,1.887091 -2.189471,2.384822 0,0.180473 -0.683429,1.066792 -1.518723,1.969584 -1.183425,1.279052 -1.456704,1.836823 -1.237844,2.526404 0.238276,0.75074 0.191024,0.810403 -0.311496,0.393337 -0.665565,-0.55237 -1.11688,-0.282007 -1.11688,0.669076 0,0.349906 -0.403537,0.813238 -0.896764,1.029628 -0.583216,0.25587 -0.943753,0.811503 -1.031142,1.589128 -0.07394,0.657633 -0.477437,1.51656 -0.896767,1.908715 -1.0721511,1.002682 -1.0024321,3.247847 0.139069,4.478915 0.683645,0.737285 1.357824,0.989474 2.789958,1.043638 1.415786,0.0535 1.895492,0.229835 1.916489,0.704304 0.02064,0.467712 0.117413,0.424844 0.370558,-0.164267 0.213048,-0.495794 0.353123,-0.578656 0.370547,-0.219217 z m 0.149891,-4.538105 C 16.159445,83.514483 15.7832,83.207433 15.585122,83.13029 c -0.198088,-0.07715 -0.479244,-0.902522 -0.624801,-1.834176 -0.229178,-1.466917 -0.16789,-1.693899 0.457475,-1.693899 0.397182,0 0.917537,-0.195403 1.156359,-0.434229 0.50444,-0.504432 2.515158,1.019697 2.515158,1.90649 0,0.810265 -1.59152,3.351281 -2.063997,3.295363 -0.07044,-0.0082 -0.34229,-0.25908 -0.60408,-0.557218 z m 5.986974,-2.51199 c -1.051799,-0.184041 -1.893191,-2.232996 -1.3408,-3.265141 0.676068,-1.263247 1.391278,-1.575144 3.089565,-1.347359 1.98246,0.265903 2.27146,0.797512 1.37991,2.538321 -0.785268,1.533298 -1.920104,2.285643 -3.128675,2.074179 z m 4.941602,-3.947619 c -0.256019,-0.418262 -0.392181,-1.90105 -0.333305,-3.629638 0.02947,-0.866094 0.242229,-1.295339 0.641968,-1.295339 0.328808,0 0.597838,-0.201309 0.597838,-0.447359 0,-0.30747 0.188508,-0.290934 0.602775,0.05287 0.499922,0.414895 0.771949,0.317709 1.594262,-0.569574 0.545318,-0.588418 0.991488,-1.329635 0.991488,-1.647158 0,-0.317517 0.136829,-0.577305 0.304052,-0.577305 0.167233,0 0.481102,-0.388885 0.697498,-0.864173 0.658613,-1.446645 1.619922,-1.803252 2.562217,-0.950489 1.195293,1.081729 1.067807,2.969296 -0.298272,4.416149 -1.587538,1.681416 -2.652574,2.236221 -3.21434,1.674449 -0.333912,-0.333899 -0.449713,-0.275233 -0.449713,0.227858 0,0.372654 -0.183794,0.677552 -0.408436,0.677552 -0.22463,0 -0.580659,0.452992 -0.79115,1.006632 -0.210492,0.553641 -0.699274,1.123465 -1.086188,1.26626 -0.386905,0.142804 -0.815567,0.426387 -0.952572,0.630193 -0.137004,0.203801 -0.343163,0.216883 -0.458122,0.02909 z m 23.023381,4.008397 c 0.530675,-0.347711 1.152108,-0.516486 1.380958,-0.375048 0.228852,0.141437 0.416096,0.06726 0.416096,-0.164924 0,-0.232149 0.176362,-0.422087 0.391905,-0.422087 0.215544,0 1.291669,-0.838959 2.391389,-1.864353 1.904897,-1.776165 1.999496,-1.962391 1.999496,-3.936859 0,-1.355991 -0.206693,-2.244036 -0.597858,-2.568663 -0.328819,-0.272895 -0.597848,-0.731157 -0.597848,-1.018362 0,-0.2872 -0.358709,-0.636037 -0.797125,-0.775184 -0.526641,-0.16715 -0.797138,-0.603041 -0.797138,-1.284581 0,-0.567365 -0.448377,-1.619435 -0.996405,-2.337936 -0.548028,-0.718501 -0.996416,-1.519647 -0.996416,-1.780327 0,-0.356367 -0.14833,-0.350853 -0.597848,0.02218 -0.49948,0.414533 -0.597847,0.356993 -0.597847,-0.349768 0,-0.641813 -0.264469,-0.861161 -1.096055,-0.909076 -1.765685,-0.101728 -2.680563,0.05818 -2.830249,0.494686 -0.077,0.224426 -0.546517,0.802045 -1.043442,1.283593 -0.964975,0.935108 -1.805874,3.018085 -1.805874,4.473312 0,0.488475 -0.269029,1.111412 -0.597848,1.384307 -0.697753,0.57908 -0.79613,2.221804 -0.156728,2.616972 0.30934,0.191184 0.284308,0.369543 -0.0838,0.59704 -0.416855,0.257636 -0.371882,0.493512 0.2185,1.145875 0.408878,0.451809 0.850141,0.820067 0.980573,0.818356 0.395468,-0.0048 1.233552,-2.087991 1.233552,-3.065591 0,-0.651246 0.230997,-0.916957 0.797137,-0.916957 0.442854,0 0.797127,-0.265703 0.797127,-0.597852 0,-0.364562 0.371501,-0.597843 0.952068,-0.597843 1.44774,0 1.758745,2.277031 0.629596,4.609551 -0.470608,0.97212 -1.005081,1.767496 -1.187737,1.767496 -0.33809,0 -1.38559,2.744274 -1.131131,2.963356 0.17858,0.153749 2.493791,1.383761 2.64442,1.404902 0.06253,0.0088 0.547855,-0.268532 1.078529,-0.616243 z m 16.769555,-2.200307 c 0.191588,-0.310004 0.368144,-0.286564 0.593986,0.07883 0.227075,0.367422 0.400335,0.20531 0.590547,-0.552541 0.167593,-0.667766 0.44115,-0.964968 0.724872,-0.787548 0.701676,0.438783 1.452104,0.476421 1.452104,0.07281 0,-0.199814 0.269028,-0.363301 0.597848,-0.363301 0.337186,0 0.597846,-0.356582 0.597846,-0.817856 0,-0.533344 0.381308,-0.951558 1.096056,-1.202171 1.06408,-0.373096 1.098581,-0.479283 1.182809,-3.639818 0.09672,-3.628297 -0.592715,-5.36553 -2.468359,-6.220134 -0.553407,-0.252147 -1.0062,-0.64992 -1.0062,-0.883932 0,-0.253312 -0.737512,-0.387301 -1.822703,-0.331126 -1.23576,0.06395 -1.939695,-0.09056 -2.186002,-0.479837 -0.251377,-0.397291 -0.365187,-0.420705 -0.369417,-0.07601 -0.003,0.27402 -0.439455,0.498212 -0.969103,0.498212 -0.686686,0 -1.114876,0.343093 -1.492273,1.195695 -0.291104,0.657633 -0.754514,1.195694 -1.029827,1.195694 -0.275302,0 -0.500548,0.24715 -0.500548,0.549238 0,0.302071 -0.403549,0.817624 -0.896777,1.145666 -0.829274,0.551544 -0.890307,0.86026 -0.810905,4.101872 0.04724,1.927992 0.228295,3.609533 0.402377,3.736756 0.174082,0.127232 0.669456,0.9039 1.10083,1.725936 0.753395,1.43571 0.866219,1.494624 2.862264,1.494624 1.142866,0 2.200633,-0.198496 2.350575,-0.441115 z M 64.938357,73.64994 c -0.22692,-0.424017 -0.412584,-1.023956 -0.412584,-1.333203 0,-0.650217 1.27564,-1.904151 2.05751,-2.022511 0.293239,-0.04435 0.744441,-0.212783 1.002678,-0.374214 0.566592,-0.354187 1.119455,1.073817 0.971022,2.508023 -0.194976,1.88383 -2.794577,2.761639 -3.618626,1.221905 z m -5.295012,-8.728194 c 0.493227,-0.271183 0.896776,-0.745614 0.896776,-1.054288 0,-0.308677 0.396268,-0.838775 0.880594,-1.178018 0.644782,-0.451615 0.901498,-1.071395 0.958639,-2.314353 0.08522,-1.853922 0.292491,-2.601078 1.288168,-4.643645 0.504122,-1.034161 0.541897,-1.393195 0.160764,-1.527834 -0.274019,-0.09681 -0.498208,-0.52539 -0.498208,-0.952408 0,-0.639506 -0.245978,-0.759837 -1.394983,-0.682455 -1.041462,0.07016 -1.394974,0.275314 -1.394974,0.809614 0,0.393615 -0.170909,0.715671 -0.379789,0.715671 -0.219835,0 -0.283558,0.812555 -0.151287,1.929342 0.292019,2.46558 -0.300562,3.65057 -1.825536,3.65057 -1.581285,0 -2.351817,-0.983578 -1.650408,-2.106729 0.379306,-0.607357 0.400662,-0.888932 0.07567,-0.997263 -0.249078,-0.08302 -0.45265,-0.270532 -0.452383,-0.416662 7.81e-4,-0.484418 1.8778,-2.457825 2.337638,-2.457825 0.609449,0 0.568471,-0.611181 -0.131779,-1.965292 -1.358111,-2.6263 -4.910613,-1.261374 -5.206781,2.000527 -0.08779,0.967074 -0.252066,2.628872 -0.365012,3.692892 -0.231191,2.177801 0.255588,3.446054 1.322667,3.446054 0.676418,0 1.644216,1.468453 1.644216,2.494819 0,0.567566 2.007401,2.21932 2.577855,2.121144 0.226262,-0.03897 0.814941,-0.292686 1.308159,-0.563861 z M 45.089948,60.360109 c 1.222226,-0.634098 2.297511,-1.688066 2.297511,-2.25196 0,-0.234862 0.179349,-0.427028 0.398567,-0.427028 0.219209,0 0.398569,-0.269039 0.398569,-0.597851 0,-0.32882 -0.189946,-0.597852 -0.422092,-0.597852 -0.232148,0 -0.298826,-0.199444 -0.148176,-0.443211 0.150672,-0.243766 0.349756,-1.454407 0.442412,-2.690317 0.09262,-1.235904 0.338697,-2.417488 0.546735,-2.625738 0.795986,-0.796806 0.311752,-2.03679 -1.442545,-3.693944 -1.001437,-0.945997 -1.960859,-1.633418 -2.132034,-1.527617 -0.171197,0.105791 -0.546354,-0.246933 -0.833711,-0.783852 -0.287336,-0.536911 -0.852428,-1.080933 -1.255751,-1.208953 -0.403332,-0.128003 -0.733322,-0.400006 -0.733322,-0.604448 0,-0.204434 -0.95519,-0.371704 -2.122637,-0.371704 -2.622058,0 -3.80728,1.042339 -4.147536,3.647555 -0.124499,0.953189 -0.36795,1.826619 -0.541006,1.940936 -0.528847,0.349368 -0.558336,5.306944 -0.03265,5.482187 0.256707,0.08557 0.466747,0.395031 0.466747,0.687694 0,0.292661 0.717417,1.278795 1.594262,2.191412 0.876837,0.912619 1.594265,1.824032 1.594265,2.025349 0,0.201325 0.224188,0.370042 0.498197,0.374912 0.274018,0.0048 0.943434,0.350949 1.4876,0.769067 0.774434,0.595038 1.111745,0.658653 1.552565,0.292815 0.442423,-0.36719 0.657124,-0.318439 1.001396,0.227343 0.521608,0.82693 0.338358,0.804784 1.532594,0.185205 z m -5.574154,-8.554052 c -0.27401,-0.09341 -0.498209,-0.423935 -0.498209,-0.734483 0,-0.310549 -0.269029,-0.564634 -0.597847,-0.564634 -0.328809,0 -0.58375,-0.13451 -0.566521,-0.298922 0.08338,-0.795648 2.289522,-3.899889 2.848023,-4.007448 0.982226,-0.18916 2.301997,1.499998 2.301997,2.946306 0,1.075188 -0.238738,1.403326 -1.494612,2.054307 -0.822048,0.426089 -1.718823,0.698284 -1.992831,0.604874 z m 39.858155,6.625553 c 0.61553,-0.673904 1.741321,-2.507827 2.50176,-4.075387 1.188774,-2.45048 1.382642,-3.255449 1.382642,-5.741083 0,-1.661613 -0.169491,-2.890984 -0.398569,-2.890984 -0.219209,0 -0.398568,-0.269031 -0.398568,-0.597852 0,-0.328812 -0.240237,-0.597843 -0.533868,-0.597843 -0.29363,0 -0.727952,-0.425966 -0.96517,-0.94659 -0.485917,-1.066464 -1.831288,-1.475622 -5.412714,-1.646114 -1.280538,-0.06099 -2.527049,-0.309634 -2.770028,-0.552613 -0.242979,-0.242971 -0.658243,-0.441774 -0.922795,-0.441774 -0.562146,0 -3.743782,3.688241 -3.743782,4.339896 0,0.243591 -0.179349,0.44289 -0.398559,0.44289 -0.632634,0 -0.51058,6.983615 0.131358,7.516372 0.300552,0.249433 0.458379,0.92734 0.364632,1.566098 -0.103912,0.708007 0.0693,1.321021 0.466482,1.650629 0.347485,0.288387 0.631793,0.969949 0.631793,1.514592 0,0.708577 0.167058,0.926142 0.587301,0.764881 0.323018,-0.123953 0.726566,0.02065 0.896776,0.32134 0.378321,0.66836 1.941687,0.891404 5.081524,0.725001 2.06869,-0.109641 2.527325,-0.286755 3.499785,-1.351459 z m -5.557017,-4.615649 c -0.911151,-0.177075 -1.232444,-1.124148 -0.991559,-2.922716 0.102071,-0.761875 0.489686,-1.119663 1.584313,-1.462273 0.947675,-0.296615 1.695094,-0.322007 2.159695,-0.07337 0.988674,0.529117 0.929777,2.756457 -0.102165,3.864133 -0.810947,0.870448 -1.004979,0.913951 -2.650274,0.59421 z m -10.98463,-7.5936 c 0.492981,-0.493224 0.896345,-1.064454 0.896345,-1.269394 0,-0.204941 0.201342,-0.87752 0.447433,-1.494616 1.040177,-2.608349 1.353738,-7.400591 0.585064,-8.941442 -0.348667,-0.698912 -0.639905,-1.467384 -0.647195,-1.707728 -0.01993,-0.656653 -1.253184,-1.967245 -2.378134,-2.527242 -1.01882,-0.507173 -2.545223,-0.702913 -4.470573,-0.573294 -1.520755,0.102383 -3.728536,2.425473 -4.078629,4.29165 -0.156883,0.836251 -0.407295,1.303207 -0.563398,1.050624 -0.312647,-0.505872 -0.594552,2.043114 -0.629402,5.691169 -0.02002,2.096588 0.120392,2.551081 1.139089,3.686727 0.971896,1.083482 1.444496,1.295341 2.889598,1.295341 1.232658,0 1.727662,0.16335 1.727662,0.570129 0,1.196289 3.869267,1.141536 5.08214,-0.07191 z m -5.381068,-7.072872 c -0.274009,-0.311231 -0.498197,-0.827524 -0.498197,-1.147321 0,-0.319807 -0.172635,-0.64125 -0.383619,-0.714314 -0.210994,-0.07304 0.147713,-0.740061 0.797126,-1.482202 0.649413,-0.742142 1.180745,-1.20757 1.180745,-1.034281 0,0.173281 0.361563,-0.01213 0.803471,-0.412067 0.763325,-0.690803 0.828948,-0.69229 1.313406,-0.02973 0.89497,1.223937 0.283045,4.0375 -0.964215,4.43336 -0.414751,0.131635 -0.754094,0.406611 -0.754094,0.611046 0,0.558212 -0.928257,0.418799 -1.494623,-0.224475 z m 20.361075,-1.264805 c 0.146696,-0.146701 0.938853,-0.330252 1.760335,-0.407873 2.125913,-0.200907 2.490012,-0.391833 2.490012,-1.305714 0,-0.4453 0.15064,-0.809646 0.334764,-0.809646 0.184124,0 0.56537,-0.698717 0.847212,-1.552694 0.281844,-0.853984 0.953979,-2.02889 1.49365,-2.610905 0.539678,-0.582006 0.889382,-1.297534 0.777123,-1.590059 -0.286227,-0.745902 0.839554,-2.227902 1.499912,-1.974499 0.300643,0.115371 0.653407,0.03696 0.783932,-0.174215 0.130516,-0.211183 -0.0092,-0.478542 -0.310388,-0.59414 -0.418046,-0.160416 -0.473175,-0.6176 -0.232917,-1.931502 0.173128,-0.946729 0.226223,-1.864594 0.117999,-2.039699 -0.108212,-0.175105 0.266657,-0.682905 0.833065,-1.12843 1.067449,-0.839666 1.241427,-1.396168 0.702024,-2.245614 -0.252055,-0.396935 -0.531024,-0.396935 -1.385762,0 -0.588598,0.273346 -1.071578,0.714855 -1.073292,0.981136 -0.0021,0.266283 -0.404965,0.894018 -0.89613,1.394979 l -0.893018,0.910834 -1.133554,-1.088205 -1.133542,-1.088198 1.258688,-2.199964 c 0.692282,-1.209974 1.424884,-2.199964 1.628003,-2.199964 0.20313,0 0.369315,-0.210074 0.369315,-0.466819 0,-0.256752 0.244941,-0.749983 0.54432,-1.096056 0.720519,-0.832924 1.184945,-2.821342 0.658974,-2.821342 -0.223389,0 -0.406167,-0.177307 -0.406167,-0.394011 0,-0.494357 -1.266328,-1.9973848 -1.682834,-1.9973848 -0.170489,0 -0.309987,0.2690305 -0.309987,0.5978498 0,0.463791 -0.526681,0.597852 -2.348747,0.597852 -1.720106,0 -2.41016,0.160008 -2.578172,0.597843 -0.126173,0.328821 -0.679293,0.597851 -1.229149,0.597851 -0.654084,0 -1.243368,0.378954 -1.704406,1.096049 -0.387561,0.602832 -1.109106,1.422949 -1.603442,1.82248 -0.494337,0.399532 -0.898789,0.989966 -0.898789,1.312093 0,0.769036 -2.460698,4.103699 -3.042958,4.123707 -0.24875,0.0085 -0.575545,1.002099 -0.726196,2.207893 -0.150651,1.205795 -0.532431,2.450865 -0.848394,2.76683 -0.823042,0.82304 -1.098858,2.654802 -0.781827,5.192248 0.242557,1.941379 0.382714,2.204101 1.175774,2.204101 0.552495,0 1.106427,-0.384996 1.433643,-0.99641 0.293302,-0.548032 0.695125,-0.996419 0.892957,-0.996419 0.19782,0 0.607099,-0.247415 0.909497,-0.549824 0.735715,-0.735705 3.373893,-1.208871 3.885829,-0.696935 0.550523,0.550524 -0.550594,2.798016 -2.124928,4.337219 -0.921481,0.900928 -1.200429,1.494159 -1.103038,2.345869 0.114529,1.001552 0.311878,1.155027 1.624985,1.263705 0.822036,0.06806 1.494614,0.292228 1.494614,0.498205 0,0.433866 0.542154,0.496631 0.93101,0.107778 z m -0.93101,-10.194782 c 0,-0.489077 0.313879,-1.652703 0.697498,-2.585827 0.680266,-1.654728 0.743485,-1.696632 2.561445,-1.698086 1.45542,-8.04e-4 1.895492,0.151377 2.007832,0.695994 0.183344,0.88889 -1.192172,3.288162 -1.885121,3.288162 -0.288897,0 -0.593473,0.204635 -0.676848,0.454734 -0.08338,0.250106 -0.726053,0.517625 -1.428191,0.594492 -1.096733,0.120072 -1.276615,0.01446 -1.276615,-0.749469 z"
     style="fill:#000000;stroke-width:0.39856544" />
</svg>
