<?xml version="1.0" encoding="UTF-8" standalone="no"?>
<svg
   xmlns:dc="http://purl.org/dc/elements/1.1/"
   xmlns:cc="http://creativecommons.org/ns#"
   xmlns:rdf="http://www.w3.org/1999/02/22-rdf-syntax-ns#"
   xmlns:svg="http://www.w3.org/2000/svg"
   xmlns="http://www.w3.org/2000/svg"
   id="svgBG20"
   version="1.1"
   viewBox="0 0 100 100"
   height="100"
   width="100">
  <defs
     id="defs2" />
  <metadata
     id="metadata5">
    <rdf:RDF>
      <cc:Work
         rdf:about="">
        <dc:format>image/svg+xml</dc:format>
        <dc:type
           rdf:resource="http://purl.org/dc/dcmitype/StillImage" />
        <dc:title></dc:title>
      </cc:Work>
    </rdf:RDF>
  </metadata>
  <path
     d="m 47.671118,5.1272611 c -0.14137,0.002 -0.28779,0.0106 -0.43974,0.0259 -5.08501,0.86446 -4.09406,7.8403699 -8.61573,9.9678299 -3.11751,3.04484 -8.55477,4.71193 -9.4169,9.44079 l 0.52504,0.3591 0.49484,0.19382 c 2.71977,-1.02695 5.7986,-3.02341 6.74622,-5.65996 2.05362,-1.12359 6.04351,-7.15627 7.39771,-3.3225 -1.49533,2.99129 2.01317,7.86634 4.37059,3.96437 -0.90262,-2.93947 0.4994,-6.03793 3.67695,-3.3318 3.88094,1.32219 7.30034,7.11698 11.6787,4.70513 0.9537,-4.33273 -7.49405,-4.04608 -9.17064,-8.19589 -3.42207,-2.04068 -2.86458,-8.2086699 -7.24704,-8.1467699 z m -3.24152,27.2683099 c -1.61391,0.0126 -3.139,0.9711 -1.66108,3.10246 0.33575,0.0461 1.79793,-0.29846 3.24783,0.17025 2.18542,-2.08615 0.24236,-3.287 -1.58675,-3.27271 z m 10.81878,2.19907 c -1.62223,0.0646 -3.08125,1.9254 -1.29368,4.02178 1.44288,1.70903 5.55694,0.82633 3.72407,-1.86088 -0.425,-1.59175 -1.45705,-2.19964 -2.43039,-2.1609 z m 28.39872,1.03448 c -2.13917,-0.0895 -1.83663,6.12972 0.83966,7.29018 4.26705,2.64658 -0.27633,4.85752 -3.36796,3.93682 -3.88344,-0.24727 -2.35392,2.86296 0.75238,2.51237 3.85144,-0.63956 6.35612,3.79957 2.06366,5.27829 0.58933,2.94145 -8.12165,5.56153 -3.6212,8.21913 0.0827,0.3413 0.0629,0.87968 0.76334,0.0345 3.79568,-2.64558 5.457,-7.60085 10.18621,-9.06078 3.54666,0.19295 5.09277,-3.76053 2.29365,-6.46943 -3.33521,-3.14564 -5.68782,-7.03457 -8.2616,-10.76833 -0.65493,-0.66371 -1.20417,-0.95417 -1.64814,-0.97276 z m -71.354555,0.34549 c -1.82222,0.0602 -2.11645,2.85741 -1.62524,4.81366 -0.47761,4.40838 -8.6996305,6.4964 -4.4538905,11.05442 4.1673605,2.20931 4.3406905,7.86175 8.3761105,9.98641 4.70745,1.70867 0.85452,-2.82395 0.15897,-4.37059 -3.45027,-2.74518 -1.3401,-7.76025 3.21298,-7.14448 2.86878,-2.89294 -4.10888,-3.52548 -5.97028,-3.32449 -3.0167905,-3.53083 4.39728,-7.01874 2.2077,-10.34319 -0.76612,-0.49086 -1.39613,-0.68858 -1.90635,-0.67174 z m 23.308925,0.47725 c -2.03052,-0.041 -4.25703,1.16465 -2.68495,3.6514 1.22045,0.77579 2.91631,0.88199 4.19303,0.17723 2.35688,-2.49975 0.52244,-3.78759 -1.50808,-3.82863 z m 27.6606,2.75896 c -2.51934,-0.01 -5.5819,2.49684 -3.10943,5.63773 1.49003,1.78472 4.76524,-0.5413 5.68353,-2.02217 0.43274,-2.56948 -0.95914,-3.6094 -2.5741,-3.61556 z m -15.05296,4.90526 c -2.90562,0.0647 -6.29476,3.76742 -1.87581,5.73132 2.16206,1.41867 5.92787,0.66687 4.82095,-2.59667 -0.22259,-2.33014 -1.52612,-3.16624 -2.94514,-3.13465 z m -14.31154,1.75003 c -2.43821,-0.0112 -6.89424,2.61607 -2.79911,4.16117 0.6086,1.36671 2.42542,-2.70553 3.69653,-1.82338 1.00293,-1.69733 0.29334,-2.33231 -0.89742,-2.33779 z m 31.8991,3.3142 c -2.102,-0.0607 -4.38668,1.00463 -1.91597,3.22061 0.79224,0.52926 1.84177,0.60174 2.7354,0.31396 3.20181,-2.28735 1.28258,-3.4739 -0.81943,-3.53457 z m -30.58915,6.87532 c -1.93638,0.0409 -4.36293,1.5354 -2.72245,3.77718 1.29176,0.0175 2.71535,0.24941 3.89301,-0.42747 1.65539,-2.31136 0.54075,-3.30599 -0.9847,-3.34904 -0.0613,-0.002 -0.12339,-0.002 -0.18586,-8e-4 z m 25.6215,2.9103 c -2.23661,0.0157 -4.9696,2.69226 -1.94185,4.9557 1.57371,1.3878 4.12616,0.11049 4.13296,-1.92758 0.16211,-2.2085 -0.93642,-3.03695 -2.19111,-3.02812 z m 22.77194,3.27305 c -0.007,0.01 -0.0123,0.0204 -0.0152,0.0315 0.002,0.002 0.004,0.003 0.005,0.004 0.003,-0.007 0.006,-0.0204 0.01,-0.0358 z m -42.57185,1.18383 c -0.94656,0.007 -1.52471,0.57391 -0.45269,2.17219 0.0781,0.43777 0.58683,0.65686 0.98869,0.6246 4.42173,-0.78326 1.27109,-2.8101 -0.536,-2.79679 z m 11.57581,2.28801 c -1.61697,0.015 -3.03409,1.11868 -1.57778,3.9408 0.79166,0.25066 1.61128,0.71591 2.46823,0.51111 3.91623,-2.44838 1.3254,-4.47247 -0.89045,-4.45191 z m 11.30864,13.504061 c -2.82677,-0.0653 -4.29102,4.85382 -6.76945,6.0559 -4.32295,3.04365 -3.61095,-2.36608 -5.00748,-4.41772 -3.86143,-0.87509 -2.59247,2.86227 -2.3212,4.77085 -3.12941,3.83302 -7.02949,-1.51498 -8.54769,-4.28829 -1.29074,-1.06044 -2.35112,-1.04959 -3.02779,-0.51907 -0.0478,0.1237 -0.11833,0.2411 -0.22435,0.30468 -0.0401,0.024 -0.0828,0.0427 -0.12611,0.0604 -0.84312,1.15625 -0.59398,3.40314 1.42378,4.42104 3.0471,3.78936 7.65649,5.39255 10.75738,9.09065 3.14956,1.27475 4.79155,-3.68723 7.15212,-5.59159 2.01293,-4.0341 9.16008,-4.15257 8.41659,-9.28249 -0.63201,-0.40921 -1.20232,-0.59228 -1.7258,-0.60436 z"
     style="fill:#000000;stroke-width:0.43155548"
     id="pathBG20" />
</svg>
