<?xml version="1.0" encoding="UTF-8" standalone="no"?>
<svg
   xmlns:dc="http://purl.org/dc/elements/1.1/"
   xmlns:cc="http://creativecommons.org/ns#"
   xmlns:rdf="http://www.w3.org/1999/02/22-rdf-syntax-ns#"
   xmlns:svg="http://www.w3.org/2000/svg"
   xmlns="http://www.w3.org/2000/svg"
   id="svgBG21"
   version="1.1"
   viewBox="0 0 100 100"
   height="100"
   width="100">
  <defs
     id="defs2" />
  <metadata
     id="metadata5">
    <rdf:RDF>
      <cc:Work
         rdf:about="">
        <dc:format>image/svg+xml</dc:format>
        <dc:type
           rdf:resource="http://purl.org/dc/dcmitype/StillImage" />
        <dc:title></dc:title>
      </cc:Work>
    </rdf:RDF>
  </metadata>
  <path
     id="pathBG21"
     d="m 54.877653,86.907731 c -2.209393,-2.312197 -7.838566,0.637065 -10.215265,-2.997184 -4.339092,-3.028138 -6.165689,-7.893655 -9.272665,-11.766994 -2.03658,-1.645732 -4.849561,0.706148 -6.824517,-0.503031 -1.962129,-1.586598 -7.005585,-3.656122 -9.4787,-6.439309 -5.831021,-5.77297 -5.759618,-14.269634 -3.043532,-20.982101 1.189224,-4.458157 3.494732,-9.05751 2.331158,-13.754848 -2.145565,-3.517735 -3.44186,-8.234807 -7.706608,-9.991351 -2.2180053,0.04618 -8.9174431,-2.317813 -3.7630706,-3.108598 4.1789966,0.32377 7.9122276,-0.588907 12.1861166,-0.277252 4.843369,0.446617 9.463943,-0.886084 13.656381,-2.450522 3.054331,-2.150444 5.660107,-5.146159 9.835248,-5.1942698 3.152316,-0.5980164 6.430543,-1.6055415 8.067624,-0.409757 4.948168,0.8139251 7.009391,4.9935578 8.957849,8.5021138 0.45566,2.971713 -1.277244,7.57275 3.542377,6.10726 4.364572,1.156801 6.051377,4.817297 7.699236,8.205929 2.030289,3.086407 2.02849,7.562265 3.794177,10.023199 4.60108,0.197829 6.658357,4.860846 8.843087,7.824289 1.46011,3.79064 1.069089,8.321326 0.720552,12.308483 -3.196708,4.636232 3.907164,5.890503 4.985044,9.882147 2.27242,4.976142 3.03968,10.325232 3.680937,15.550952 3.323895,2.143438 2.65692,4.139342 -1.336999,2.960863 -3.690016,0.578888 -5.666057,1.35421 -9.333143,1.022693 -5.158898,-0.07631 -8.931597,-4.258477 -14.088892,-4.101118 -3.625686,1.544895 -8.682956,2.548598 -12.507861,0.437336 l -0.343496,-0.374677 z m 7.162058,-0.345045 c 3.664371,0.304785 7.231541,-4.452083 10.261731,-0.987444 2.214373,0.244758 5.344452,2.717632 8.555696,3.529087 3.330795,0.361326 9.41857,0.660583 9.541473,-3.255077 -1.315013,-5.147611 -0.403549,-11.531938 -5.566159,-15.318728 -3.39278,-1.711195 -4.164766,-5.653877 -3.218387,-8.78355 0.773257,-3.894265 1.587601,-8.205494 -0.294424,-12.014348 -1.972712,-2.732087 -5.134619,-6.419747 -8.614137,-5.220243 -2.193827,1.152703 -3.368982,-1.844543 -1.209105,-3.466918 0.193294,-4.35786 -2.371164,-8.652731 -4.74174,-12.471549 -2.26055,-3.584355 -6.996437,-2.307002 -10.060821,-1.621498 -0.07403,-3.757916 3.04317,-8.579133 -1.177231,-11.973206 -2.605457,-3.26952 -5.934576,-4.433518 -9.767967,-3.972665 -3.503557,0.659246 -7.880767,1.132231 -10.126032,4.165408 -2.796956,2.570453 -7.449978,4.007553 -11.511937,4.45126 -3.076021,0.100043 -9.389601,-1.28374 -10.450801,0.432386 4.056921,3.327161 4.638411,8.157508 6.873841,12.246614 0.228686,4.57919 -1.864268,8.74992 -3.197668,13.014009 -0.408841,4.361343 -2.209312,8.928011 -0.468666,13.261318 1.4324,3.885846 5.163325,6.581133 8.834653,8.700116 3.298638,3.022811 7.900675,2.673659 11.381346,0.814356 0.925744,4.868401 3.813815,9.230202 7.52854,13.00837 2.363722,3.194932 7.641956,3.672219 9.986876,0.66327 0.50916,3.496805 3.24935,5.801106 7.44092,4.799022 z m 2.608897,-5.475642 c -2.414299,-3.583165 6.148689,-0.694781 1.333427,0.732396 -0.579741,0.09587 -1.002368,-0.410485 -1.333427,-0.732396 z m 6.68199,0.909945 c 0.711722,-2.621182 6.434587,-1.774419 8.855728,-0.883979 1.947546,2.76449 -1.991903,2.821879 -3.428123,1.911616 -2.022238,1.344392 -2.476541,-3.272097 -3.643543,-0.193197 -0.720119,0.392186 -1.689172,-0.140115 -1.784062,-0.83444 z M 61.239503,80.839768 C 58.5335,77.2663 66.343284,79.251306 62.053469,81.066642 Z m 7.131641,0.832829 c -1.651094,-3.273711 3.346604,-2.402955 1.316412,0.240616 -0.327336,0.482514 -1.035227,-0.01413 -1.316412,-0.240616 z M 56.005522,78.964946 c -0.317846,-4.622192 6.612942,2.360166 0.559389,0.880634 l -0.310438,-0.361989 z m 26.213068,3.601491 c -2.10829,-2.000521 1.500124,-5.500205 1.964783,-1.605535 0.958788,1.599185 -0.07293,3.97155 -1.964783,1.605535 z M 53.636753,78.599274 c -3.355006,-1.868422 -6.257478,-2.966096 -8.879546,-5.67312 -4.723426,-0.912187 0.06535,-5.324531 1.549875,-1.419995 2.430265,2.491754 5.543326,3.984423 8.726363,5.368507 0.421199,0.795241 -0.0444,2.529747 -1.396692,1.724608 z M 68.45546,76.236646 c -1.945573,-1.83076 -4.976782,-1.837184 -4.417682,-5.124049 -1.76726,-4.534069 1.100757,4.484243 -2.202421,2.29324 -0.1499,-1.650767 -0.578331,-4.486573 -1.351878,-1.281867 -2.896479,2.627783 -1.050156,-6.155369 -2.722131,-1.583907 -0.832744,2.478698 -4.069564,-0.86917 -4.386,-1.923317 0.638685,-1.547361 -1.125807,-5.669324 -0.888234,-2.571782 -4.151201,2.888783 -1.670439,-5.670445 -3.596122,-7.573918 -2.339788,0.671492 2.401247,8.881061 -1.706392,7.688735 -1.335789,-2.970899 0.503489,-9.26491 -1.893066,-10.398235 -0.621931,2.23136 1.966893,7.441528 -1.409098,7.552782 -0.702048,-4.004655 -0.425421,-8.285205 -1.492587,-12.29143 -2.373688,-4.433166 -0.747383,3.533422 -1.117206,4.974076 1.10057,2.478739 -2.932438,5.850963 -2.063906,1.354345 -0.196587,-4.395038 0.760656,-9.205053 -1.465779,-13.314386 -0.738517,-2.387247 -2.113881,-2.568723 -0.939803,0.178878 0.775272,4.321635 2.416504,9.23671 1.135367,13.301447 -2.58889,-2.756913 -0.733388,-8.540089 -2.894116,-12.299066 -1.32578,2.202609 0.932622,8.577498 0.0928,12.094615 -3.104087,0.618925 -1.153785,-5.511343 -2.070126,-7.553681 -0.446186,-4.340196 0.02168,-8.873137 -1.794239,-13.040112 -2.167659,0.07153 1.231733,5.716307 0.521553,7.861628 -0.184352,3.797112 0.653532,7.888747 -0.608513,11.489885 -1.960071,-2.970098 -0.672488,-7.204132 -1.184602,-10.669134 -0.0059,-4.394216 -1.243643,-8.768293 -2.883478,-12.884161 -0.197912,4.221749 1.461825,8.418948 1.601959,12.667731 0.750204,1.55134 0.368721,8.565468 -1.475976,4.373066 -0.807027,-4.876971 -0.317845,-9.97784 -2.12769,-14.713002 -0.619521,4.451719 1.351384,9.24956 0.193799,13.714469 -3.238998,-0.174804 -1.062408,-6.415235 -2.002955,-8.999017 -0.567831,-3.958471 -1.049758,-7.920331 -2.357134,-11.805759 0.07806,-2.002748 -5.559805,-6.960974 -0.333689,-5.14144 3.375192,3.28465 8.554768,3.863681 13.318672,3.537276 3.538312,0.611905 7.73908,-2.916509 10.406169,-0.991177 -2.334575,3.637243 -8.758693,3.081816 -13.161549,3.73959 -3.469668,-1.247783 -5.068908,1.63015 -0.860753,1.695325 4.260709,0.75138 8.452797,-0.119819 11.983465,-1.792404 2.219355,-1.302365 6.774388,-0.841717 3.197674,1.768986 -1.980686,0.479577 -8.590872,2.977449 -3.15818,1.781932 2.270661,0.04505 9.118169,-2.450962 5.987867,1.57658 -3.907771,0.140439 -7.478705,1.564123 -11.646279,1.051886 -1.531344,-0.01028 -4.600338,-0.267686 -2.250024,1.539753 4.44166,0.444294 9.15701,0.356022 13.417921,-1.138415 1.761854,-1.430595 6.571966,-2.439599 3.996728,0.83316 -1.836133,1.605978 -8.316378,1.061712 -7.196285,3.761137 3.083608,0.237007 7.535349,-3.824059 9.672761,-1.54006 0.341337,2.98981 -9.424513,1.847629 -6.760798,4.373476 2.467044,-0.503732 11.322533,-3.18125 8.894683,1.164476 -4.14303,-0.436213 -7.902728,1.556099 -12.142434,0.67636 -0.73122,1.664638 2.045644,3.35111 3.171509,1.14211 3.057645,0.953468 6.6734,-0.293901 10.154993,-1.067463 3.851167,-3.095486 4.46783,2.426269 0.08914,2.113377 -1.287136,0.847774 -7.84445,1.083757 -3.872261,2.572661 2.296717,0.277757 8.595652,-3.24112 8.615319,0.07051 -1.273925,1.887418 -9.184095,1.038205 -7.097628,2.772778 2.919281,1.462146 9.249377,-2.871514 9.314452,1.250523 -2.210433,1.910066 -8.633685,0.215892 -9.348857,1.828874 3.543519,2.945644 8.14804,0.345813 11.822534,0.717961 2.044758,2.048308 -5.041939,2.218732 0.297867,2.805151 4.694606,0.146218 3.799964,5.779202 6.896177,7.890067 1.421856,2.138173 -0.784063,3.205348 -2.324712,3.001897 0.987236,1.354905 2.816599,4.76357 -0.547654,2.779023 -1.045818,-1.553049 -3.399815,-3.360665 -2.093741,-0.204229 0.820422,1.290071 2.739552,7.641033 -0.937436,3.912268 z m -1.218181,-7.08479 c 0.313996,-2.485221 -3.943799,-3.608385 -1.641151,-0.169563 0.267963,0.534889 1.29873,0.893555 1.641151,0.169563 z M 58.367041,67.49743 c -1.348848,-6.03791 -1.83578,2.108944 0,0 z m 4.686799,-1.118255 c -0.699762,-3.861064 -5.835384,-6.146892 -8.594673,-9.029581 -2.852153,-4.502161 -2.946652,3.747906 -0.699948,2.07318 2.06117,-2.158035 1.684076,1.262421 2.7745,2.449861 2.430117,1.046704 2.905939,4.02797 4.928509,4.029059 -0.01577,0.770186 1.213863,1.445829 1.591612,0.477481 z m -9.027571,-4.738128 c -1.783313,-0.749713 0.978919,1.927737 0,0 z m 9.69322,-2.763842 c -1.49693,-1.844405 -1.981632,1.349515 0,0 z M 51.413183,55.545713 c -0.675852,-1.935931 -3.439938,-3.211464 -4.658951,-4.682766 -0.75152,0.93221 3.57044,6.266015 4.658951,4.682766 z m 1.394153,-3.38627 c -1.408087,-2.760886 -1.788986,1.293088 0,0 z m -8.423605,-3.691682 c -2.219684,-1.012506 1.210771,3.417172 0,0 z m 6.11881,1.079785 c 1.91937,-2.947524 -5.804313,-1.195731 -0.981134,0.495505 l 0.552608,-0.08482 0.42855,-0.410708 z m -8.927505,-3.333647 c -3.079979,-3.666824 -0.312707,4.126744 0,0 z m 1.025542,-3.499343 c -2.444452,-2.901337 -3.11629,2.166461 0,0 z M 24.266627,29.042331 c -1.642166,-0.04552 1.070725,3.217337 -1e-6,10e-6 z m 56.801717,47.540052 c -0.798993,-2.162101 -4.576226,-7.361217 -1.177992,-7.928267 1.820924,2.288261 -0.405632,4.514616 2.982725,6.099898 0.79785,0.719455 -0.963673,3.523756 -1.804733,1.828369 z M 40.345679,68.962025 c -2.886372,-3.29413 4.212653,-1.686686 1.234697,0.748692 L 41.031948,69.541729 Z M 34.755522,65.15982 c -1.649175,-2.878282 4.231027,-2.177633 1.733566,0.497372 -0.60112,0.260131 -1.360744,-0.02913 -1.733566,-0.497372 z m -3.541491,-1.748724 c -2.060595,-3.590319 4.261345,-1.876656 0.760201,0.20384 z m -3.756545,-2.360947 c -0.53554,-2.290472 -5.962739,-2.389145 -2.858801,-5.276384 1.151903,1.525531 6.538942,4.051974 4.136886,6.160625 -0.5049,-0.189433 -0.90559,-0.5404 -1.278085,-0.884241 z m 49.34282,4.78247 c -0.260535,-4.709891 4.650009,0.371635 0.983158,0.991246 -0.556981,-0.08885 -0.918316,-0.538008 -0.983158,-0.991246 z M 21.419211,55.955107 c -2.860043,-1.59102 -0.516671,-6.313087 1.339194,-2.458482 1.08676,0.966839 0.07544,2.650191 -1.339194,2.458482 z m 53.122365,5.216334 c 0.298696,-2.055459 -4.210984,-5.507441 -0.386881,-6.081969 1.293316,2.041156 1.097939,4.012337 3.236407,5.637214 0.606015,2.099778 -2.286613,2.326433 -2.849526,0.444755 z M 69.347539,50.337395 c 0.0069,-6.754117 3.604194,2.707413 0,0 z m -2.865926,-3.86969 c 1.97824,-5.810089 3.632591,4.109835 0,0 z m -1.80686,-2.466773 c -1.53139,-3.450121 4.23217,-0.979723 1.33262,0.526474 l -0.756152,-0.119639 z m -2.279058,-3.374471 c -1.416011,-5.94726 4.896842,2.348954 0.542695,0.614942 z m -3.419573,-4.005827 c -2.184037,-0.947489 -3.226866,-5.597375 0.02006,-3.230908 -0.0018,1.851043 4.981322,2.945224 1.540764,4.508478 -0.690624,-0.243406 -1.124089,-0.786795 -1.560823,-1.27757 z m -5.20367,-5.774737 c -1.090285,-5.549234 5.757381,1.225874 0,0 z m -1.95785,-3.129981 c -2.15526,-4.72713 4.848777,-0.20086 0.717893,0.549991 l -0.337443,-0.171382 z m -2.248799,-3.513967 c -0.669802,-2.854835 2.670037,-2.585156 1.464952,0.079 -0.243762,0.645502 -1.234668,0.524341 -1.464952,-0.079 z m -3.714746,-3.709106 c -2.022716,-3.739724 4.32404,-1.887017 1.631525,0.862206 -0.665913,0.306067 -1.287539,-0.478428 -1.631525,-0.862206 z m -3.246358,-4.099865 c -1.173714,-4.38946 4.630337,0.807833 0.918939,1.214383 -0.434166,-0.317579 -0.71388,-0.76454 -0.918939,-1.214383 z"
     style="fill:#000000;stroke-width:0.43607408" />
</svg>
