<?xml version="1.0" encoding="UTF-8" standalone="no"?>
<svg
   xmlns:dc="http://purl.org/dc/elements/1.1/"
   xmlns:cc="http://creativecommons.org/ns#"
   xmlns:rdf="http://www.w3.org/1999/02/22-rdf-syntax-ns#"
   xmlns:svg="http://www.w3.org/2000/svg"
   xmlns="http://www.w3.org/2000/svg"
   id="svgBG22"
   version="1.1"
   viewBox="0 0 100 100"
   height="100"
   width="100">
  <defs
     id="defs2" />
  <metadata
     id="metadata5">
    <rdf:RDF>
      <cc:Work
         rdf:about="">
        <dc:format>image/svg+xml</dc:format>
        <dc:type
           rdf:resource="http://purl.org/dc/dcmitype/StillImage" />
        <dc:title></dc:title>
      </cc:Work>
    </rdf:RDF>
  </metadata>
  <path
     id="path22"
     d="m 13.235717,94 c 1.4178,-7.36857 5.4058,-13.941834 9.08765,-20.372431 2.19067,-2.839913 5.01749,-5.685625 8.45033,-6.30764 -2.0814,-1.831488 -7.55631,2.93042 -9.21235,5.648365 -4.46173,6.070772 -7.46103,13.216036 -9.14031,20.522826 -0.63423,-2.87533 1.71641,-7.72897 2.68361,-11.12543 0.98767,-6.305784 0.48763,-13.0348 -1.90967,-18.978623 -0.55421,-2.828022 -6.23052,-6.097851 -5.9561,-1.535166 5.48356,0.590688 -2.87028,7.088535 -2.20031,1.135271 1.39665,-4.918843 0.6602,-9.819918 0.12021,-14.873637 -0.17623,-5.506059 1.21432,-11.043607 3.30744,-16.104626 1.54116,-0.474075 1.70479,-6.25249 3.39944,-3.816281 4.46385,4.872944 8.73023,10.299039 10.58614,16.739329 -0.67555,4.005742 2.36511,6.333315 2.85541,9.874542 -0.20277,3.150523 -3.97691,2.19076 -3.81726,-0.460726 -3.77503,1.933239 -2.79789,6.891816 -4.56794,10.041027 1.19506,3.897231 -0.13872,9.431338 1.33709,12.481221 2.27001,-3.924515 4.83674,-8.121858 9.05305,-10.192389 1.81231,-2.143661 8.49915,-4.485168 3.97844,-6.718323 -1.0107,-3.880342 3.36253,-6.943763 6.25113,-4.430538 1.48387,-0.314213 -1.06908,3.012753 2.12451,1.470708 3.81615,-0.665465 7.57875,-0.169461 11.02018,1.53249 3.47861,0.914381 -1.93062,-3.131374 -3.524,-2.551766 -1.8341,-0.262727 -10.50125,-0.565588 -4.32934,-1.398034 2.70871,-3.80412 0.74169,-9.599604 -0.44973,-13.85427 -0.74495,-1.792001 -4.41384,-6.733828 -1.03508,-2.913678 1.17112,1.114547 3.42153,8.309306 2.62439,3.38552 -0.90712,-3.808915 -3.64568,-7.231142 -6.75126,-8.995634 2.34904,0.802806 4.0764,0.356237 1.27428,-1.736039 -2.02889,-4.222976 -4.29161,0.965456 -4.92646,0.859031 -1.78565,-4.641788 4.71328,-3.840397 6.57874,-1.370255 -0.72153,-2.536928 -5.70571,-6.051373 -7.39294,-2.812703 -2.93799,-4.159974 3.81211,-1.866113 4.88932,-2.090119 -1.52984,-2.832314 -4.79621,-4.300588 -7.17939,-2.785317 -2.65549,-3.407104 8.00297,-0.226224 3.03407,-3.720485 -1.78064,-1.862779 -2.82795,-3.146906 -3.74772,-0.05523 -2.46614,-1.842229 -0.0193,-3.238555 1.76041,-3.316404 0.36082,-3.383782 -4.75092,-0.516102 -2.35532,-3.875219 1.75167,1.024602 3.08947,1.249438 1.73678,-1.187574 -1.78548,-3.806287 2.34192,-2.010701 1.2263,0.716533 -0.0755,2.555464 2.35943,6.131937 1.44475,1.293855 -0.38762,-1.609049 0.9583,-4.801945 0.74619,-1.109641 -0.50263,1.938368 0.95191,6.223576 1.58059,1.959313 2.10264,-2.448217 -0.0456,3.8605 0.57751,5.393759 -0.515,2.330179 2.07092,6.849182 1.1017,1.946393 -0.79562,-1.960059 0.87539,-8.412205 1.62334,-3.454543 -1.93777,1.785813 -0.28969,7.75568 0.60328,8.057681 -0.63588,-1.706641 2.31734,-8.794456 1.4368,-3.65104 -1.07893,2.79909 -1.32613,8.304819 0.7033,9.670626 0.29822,-3.057913 0.94087,4.161614 1.38399,-0.14126 0.34626,-2.922765 3.90294,-7.765937 3.27018,-8.563817 1.70698,2.386714 6.20565,8.394592 1.5855,9.626355 -1.97575,-0.343372 1.76809,-4.06758 -0.69002,-3.945706 -2.74026,3.058107 -1.09539,7.770234 -2.80021,11.347002 -0.362,6.127754 4.76718,-3.138533 7.36789,-2.452627 -1.76694,0.809253 -5.98872,5.663335 -1.96499,2.873829 1.25096,-1.141246 4.75421,-1.932755 1.55703,-0.142976 -1.84546,0.697366 -4.85636,4.99726 -4.89535,1.808999 -1.13478,4.056282 0.087,8.705971 -0.9282,12.868697 3.75837,1.45361 7.50662,3.485407 10.50895,6.533495 2.35435,2.529473 4.59182,4.016742 1.17287,6.938443 -0.85422,1.325864 -2.47224,3.470155 -2.65789,0.833297 -1.19715,2.562523 -7.46857,3.371695 -3.88629,5.361636 -2.34836,1.456467 -2.92366,0.659702 -3.5089,-1.142667 0.82281,3.33282 -8.2506,3.636554 -2.69089,1.960134 3.02506,-2.087328 -2.28401,-0.119797 -3.54579,-0.645835 -0.13855,3.484922 -4.43555,-1.929039 -5.74008,1.253937 -2.92773,2.850223 -4.78085,-6.304832 -1.03219,-3.761016 -0.50865,-5.65647 -7.94832,-2.106545 -10.10667,0.699613 -3.75707,4.180589 -5.62457,9.714648 -8.13769,14.678798 -1.09429,2.1615 -2.06975,5.41658 -2.96245,7.07694 z m 3.60772,-23.497657 c -0.10802,-4.916845 -1.41866,-11.024367 -6.38145,-13.194381 -3.80251,-0.820622 -6.23144,5.089694 -3.59415,7.517749 2.93811,-1.40827 -2.64339,-2.035085 -0.0597,-4.812899 4.16321,-4.409244 7.61112,3.089235 8.27356,6.712893 0.98675,2.683088 0.66144,6.762571 1.61244,8.735669 0.28383,-1.634313 0.17768,-3.309376 0.14927,-4.959031 z m 19.04924,3.177936 c 3.05252,-1.935265 -2.91634,-9.133467 -0.52892,-3.136027 0.002,1.958047 -4.5604,5.383276 0.52892,3.136027 z m 3.93497,0.315376 c -1.49997,-1.873557 -0.26909,1.717427 0,0 z m 3.49331,-1.772427 c -0.83912,-2.265986 -0.93288,2.79872 0,0 z m -1.59411,-0.615239 c -0.73636,-3.580991 -2.41582,2.499401 0,0 z m 6.83408,-0.476422 c -1.19313,-1.648218 -0.28304,2.014205 0,0 z m -8.73328,-1.091659 c -0.83912,-2.265989 -0.93288,2.79872 0,0 z m 5.75372,-1.284221 c 0.73969,-0.96439 3.21537,-6.852594 0.66243,-3.313189 -1.09898,0.853624 -3.20348,7.682093 -0.66243,3.313189 z m -7.50037,0.244103 c -0.84503,-2.850014 -1.08995,2.114475 0,0 z m 12.00826,-0.607988 c -1.02737,-1.898768 -1.44389,2.406557 0,0 z m -7.20496,-0.07278 c -1.17573,-1.759747 -1.02907,1.700101 0,0 z m 5.67663,-0.748568 c -0.91518,-3.091987 -1.36436,3.726546 0,0 z m -6.98662,-0.124761 c -1.11785,-2.969824 -0.85376,2.877366 0,0 z m -4.90941,-1.561654 c -2.22906,-0.05582 -0.62541,3.05511 0,-2e-6 z m 14.87553,0.542973 c -1.22839,-2.591283 -1.46295,2.901506 0,0 z m 3.73246,-0.376735 c 0.23935,-2.55086 -2.09458,2.74776 -0.40356,0.406933 z m -20.24854,0.05965 c -0.85237,-2.291146 -0.34386,2.635568 0,0 z m 4.8033,0.02577 c -1.59426,-3.120858 -1.32508,3.00155 0,0 z m 4.80331,-0.436665 c -1.17573,-1.759749 -1.02907,1.700108 0,0 z m 4.8033,0 c -1.17573,-1.759751 -1.02906,1.700109 0,0 z m -14.64138,-2.418637 c 1.79101,-1.667148 1.42331,-8.431643 -1.06291,-6.98962 3.6317,2.90873 -1.16035,6.780744 -1.88431,9.11103 1.39872,0.233662 2.323,-1.095508 2.94722,-2.12141 z m 2.85145,1.54531 c -1.17572,-1.759748 -1.02907,1.700101 0,0 z m 5.23997,0 c -1.17573,-1.759748 -1.02907,1.700101 0,0 z m 14.68933,-1.217722 c -2.34274,-1.99855 0.7387,3.005099 0.44308,0.634905 z m -12.06935,0.344393 c -1.11785,-2.969825 -0.85376,2.877365 0,0 z m 6.98663,0 c -1.11785,-2.969825 -0.85376,2.877365 0,0 z m -11.35327,-0.218332 c -1.91821,-2.321861 -1.15451,1.789721 0,0 z m 2.04495,-0.73687 c -0.85706,-0.399809 0.34381,1.933625 0,0 z m 7.56166,0.300206 c -1.1049,-2.273825 -0.88984,2.191998 0,0 z m -12.11112,-0.04271 c 0.1964,-3.831825 -2.3127,0.916657 0,0 z M 16.948267,61.8873 c -1.57992,-0.180262 0.69427,2.238859 0,0 z m 31.87648,0 c -1.57993,-0.180263 0.69426,2.238859 0,0 z m -6.97169,0.100083 c 2.09649,-0.609728 -0.78323,-4.140167 -0.45471,-0.891739 -1.51716,0.832393 0.13926,2.537599 0.45471,0.891739 z m 14.56114,0.327497 c -1.24915,-4.152702 -1.62324,1.496391 0,0 z m -16.87067,-1.214812 c -2.41886,-2.525133 0.16741,2.830802 0,0 z m 14.25737,0.450651 c -1.1049,-2.273826 -0.88984,2.191997 0,0 z m -6.51794,-1.091661 c 1.31049,-5.001302 -2.29086,2.176212 0,0 z m 2.1513,0.436666 c -1.5,-1.873589 -0.26908,1.717447 0,0 z m 2.44025,-1.198618 c -1.93883,-0.152507 1.05704,3.225331 0,0 z m -33.74656,-4.49205 c 2.58245,-3.085385 5.12114,-6.492777 3.34889,-10.713209 -1.7194,-5.013944 -4.80309,-9.627894 -8.49006,-13.408491 -0.12768,1.288816 -1.28843,6.997749 -0.37419,10.162484 1.35121,5.001061 0.25795,-4.054931 1.49325,-5.188661 3.71739,-0.274512 -1.03685,5.500122 0.0344,7.886631 -0.68544,1.965305 0.43569,8.060236 0.90196,2.755021 0.24603,-2.434225 -0.26809,-6.761773 3.11289,-5.955978 -1.17404,1.656816 -2.38726,4.91798 0.32369,1.864008 -1.35577,3.034564 -3.9127,7.100072 -3.01257,11.160337 2.20155,0.188982 1.7338,-8.751821 4.15565,-6.956155 0.18209,2.206925 2.34632,3.384425 -1.09554,4.252801 -2.28293,2.593847 -2.85464,6.255566 -2.65673,9.613548 0.55228,-1.902493 1.23666,-3.765027 2.25839,-5.472336 z m 16.2414,4.453454 c -1.02736,-1.89877 -1.44389,2.406557 0,0 z m 6.43654,-0.717513 c 0.72214,-3.588934 -2.87698,2.411551 -0.32348,0.763738 l 0.32346,-0.763738 z M 37.908147,58.394 c -1.57993,-0.180264 0.69426,2.238862 0,0 z m 8.0328,0.29263 c -1.19576,-1.520602 -0.90572,2.165451 0,0 z m -12.87115,-0.443799 c 0.64714,-3.320959 -2.12605,1.250085 -0.3314,0.640031 z m -18.13363,-0.757026 c -0.45961,-4.547008 -4.53132,-4.206113 -7.26987,-5.366113 -0.42298,-2.499867 0.95939,-7.229172 2.45399,-2.41682 0.97984,2.021132 5.62079,4.960299 3.26573,0.466246 -0.23058,-4.125893 -4.87629,-2.709754 -5.32204,-6.248846 -1.02091,-2.283521 3.74329,-0.900557 3.55335,1.217792 2.42564,-1.235617 -1.78619,-5.024206 -3.48668,-6.128898 0.18548,-3.179057 2.56582,-2.617377 2.81434,0.408141 2.44821,0.270326 -2.73207,-6.747939 0.6928,-7.76994 1.33414,-4.737953 -2.84894,-0.338367 -2.99687,1.970762 -3.3551,6.868028 -3.15024,14.75793 -2.20196,22.146792 1.69074,1.298538 4.49143,-1.093004 6.29727,1.397549 0.56494,0.50456 2.2411,2.236926 2.19994,0.323335 z m 29.17499,0.462436 c -1.53099,-2.167514 -0.83642,2.527896 0,0 z m -19.64956,-3.929976 c 0.56081,-2.584995 -4.45593,-2.14824 -1.41959,0.0082 -0.0895,1.998557 1.92423,2.258048 1.41959,-0.0082 z m 20.9923,-4.69414 c 0.6202,-1.147657 -1.60364,-7.554959 -0.93889,-4.366639 0.58215,1.868492 -0.14725,8.12383 0.73766,7.666785 0.14941,-1.093269 0.19237,-2.19788 0.20123,-3.300146 z m -0.46471,-16.090408 c -0.1963,-2.756427 1.91514,-9.334796 4.51697,-4.248031 0.88196,-2.943594 -3.51276,-5.046709 -4.41072,-1.167124 -1.10002,3.078287 -2.3352,7.328442 -1.12642,10.253592 0.85634,-1.430599 0.73733,-3.239144 1.02017,-4.838437 z m -1.66823,0.344731 c -1.08994,-2.114475 -0.84502,2.850014 0,0 z m -7.42328,-15.886697 c -1.52617,-4.208255 -1.50627,3.331454 0,0 z m 35.53988,56.990647 c -2.05425,-3.324354 4.92991,-2.003447 1.40082,-4.342694 -2.77887,-1.148888 -7.04473,2.560196 -8.27904,0.727556 2.10278,-1.472667 6.74594,-0.668136 7.39891,-3.079198 -3.85744,-0.473197 -7.89028,1.404623 -10.91601,3.387594 -1.54597,1.724127 -3.58223,-0.636676 -0.28363,-0.801004 3.50865,-2.008792 6.8822,-5.077026 8.41226,-8.882481 1.92921,-2.58518 -3.35888,-7.281329 -2.36536,-2.441524 0.87884,4.925777 -4.50741,0.389608 -1.93473,-2.409277 2.47087,-2.722798 6.19037,-4.070608 9.5353,-5.579828 4.00684,-0.699072 8.28297,-0.641311 12.30168,0.01 2.50426,1.40517 7.04155,1.942567 8.29224,4.293034 -0.99383,3.578481 -1.19537,-2.011666 -3.83862,-1.450993 -3.42615,-1.446839 -7.06877,-3.104206 -10.99262,-2.798885 -3.05738,1.238226 -9.38202,0.503469 -9.88042,4.019156 0.72037,2.276458 0.62684,4.830724 3.60059,3.405769 3.48065,-1.634643 7.78384,-0.463728 10.85817,0.677014 -1.86519,3.848858 -5.66715,6.798776 -9.12835,9.139251 -1.18403,3.776242 3.08927,4.56911 5.58098,2.383146 4.34911,-1.341162 7.1808,-5.422557 9.8392,-8.894835 0.95466,-1.568062 3.92882,-6.291257 1.91537,-1.969912 -2.09057,3.250236 -4.13048,6.992362 -7.4919,9.340196 -3.03708,1.833306 -6.52862,4.339694 -10.11403,3.547217 -0.61175,1.13314 -2.75383,3.530258 -3.91081,1.720743 z m 3.75988,-3.33251 c -0.83912,-2.265986 -0.93288,2.798723 0,0 z m -3.05665,-4.995864 c -1.1049,-2.273829 -0.88984,2.191999 0,0 z m 2.61999,-0.654997 c -1.17573,-1.759746 -1.02907,1.700106 0,0 z m 0.41753,-3.723465 c 1.64345,-0.154356 6.01822,-4.363471 1.4363,-2.134854 -1.859,-0.108281 -5.48789,3.511888 -1.4363,2.134854 z m -3.47418,-0.668946 c -1.19576,-1.520603 -0.90572,2.165447 0,0 z m -6.1133,-2.838317 c -0.98622,-4.407425 -0.74716,4.803255 0,0 z m 4.8033,0.109231 c 0.47402,-2.102529 -2.90233,-4.327242 -0.87352,-0.929121 0.3637,1.306368 0.82413,3.532463 0.87352,0.929121 z m -17.14252,14.944539 c -4.07217,0.436569 2.31487,-5.101638 2.04989,-1.844329 2.8722,0.07314 3.81774,2.318102 7.13351,0.366847 3.4139,-0.204101 -3.47716,2.176442 -4.77263,1.803156 -1.46289,0.08979 -3.02247,0.267337 -4.41077,-0.325674 z m 23.98359,-3.310848 c -0.21062,-3.330494 3.40496,0.0901 0,0 z m 3.01052,-1.849098 c 0.85828,-2.814074 2.85333,0.362755 0,0 z m 1.93834,-1.614574 c 0.82252,-1.826174 4.97213,-4.162445 1.89707,-0.734927 -0.3353,0.09198 -1.55548,1.585237 -1.89707,0.734927 z m 3.49332,-3.668506 c 1.17572,-1.759749 1.02906,1.700103 0,0 z m 1.30999,-1.71823 c 1.20952,-5.981406 2.31805,0.557738 0,0 z m 0.43666,-4.395066 c 1.60788,-1.757292 1.67523,1.708198 0,0 z m -1.4921,-0.37806 c -0.50793,-2.315783 1.5136,0.778767 0,0 z m -14.1623,-0.473436 c 1.22952,-1.651252 0.67037,1.333116 0,0 z m 10.25701,-0.324812 c -1.10936,-2.351042 2.91215,0.0091 0,0 z m 1.90408,-0.133684 c 0.85831,-1.558783 1.80934,1.665408 0,0 z m -9.76452,-0.654997 c 1.22623,-2.148042 0.0854,2.190733 0,0 z m 2.77789,-0.02577 c 1.19314,-1.648216 0.28304,2.014205 0,0 z m 2.18333,-0.01061 c 1.22693,-1.827486 1.37662,2.278173 0,0 z M 62.750907,47.07576 c -2.25156,-2.436128 2.93249,-6.172597 1.93078,-1.528214 4.85722,-0.169335 0.041,-7.649131 -3.57333,-7.372141 -2.32786,-0.641144 -8.68734,0.669754 -6.33952,-1.645355 -5.45069,0.316843 2.52847,-1.976695 4.18622,-1.658207 1.92791,-0.585589 6.46566,-8.125484 3.85334,-2.81378 -2.50031,1.531198 -1.19332,3.872729 0.35599,0.868259 1.79331,-2.891217 3.64572,-8.700379 0.18734,-10.818707 -3.33484,-2.700416 -5.26262,5.229745 -2.39224,4.8443 -2.483,-3.133073 3.07706,-6.047594 3.1742,-1.579115 0.17999,1.695055 0.12516,5.661566 -0.28673,1.865396 0.64608,-1.87511 -2.60335,-5.657173 -2.42763,-2.066873 3.20249,4.346742 -5.14738,3.200642 -2.41382,-1.043757 0.71994,-2.777337 3.08489,-3.833271 5.08601,-2.748778 2.39504,-2.95064 6.75368,-2.466109 10.27989,-2.380025 4.06674,0.217336 7.9626,1.572666 11.56593,3.148003 1.86823,1.769825 4.77854,2.101927 3.02089,4.807403 1.67771,2.579322 4.65951,0.168458 1.64848,-1.549174 5.42496,1.161509 -1.43156,6.485246 -3.04431,8.891592 -2.14499,3.502748 -5.477,5.725189 -8.9401,7.746165 -3.5265,2.796845 -9.48044,0.727958 -11.36366,5.411226 -0.99276,1.481258 -4.0963,1.834756 -4.50773,-0.378218 z m 1.03675,-1.293547 c -2.19416,-2.834807 1.15712,4.080048 0,0 z m 3.9798,-0.278893 c -1.44626,-0.974216 -0.62396,2.961224 0,0 z m -0.21905,-5.145123 c -2.23035,-3.852008 0.86393,5.054086 0.45277,4.34691 0.17082,-1.462751 0.24144,-2.989676 -0.45277,-4.34691 z m 9.04387,1.62471 c 3.44755,-0.232853 5.53488,-3.854037 1.988,-5.708138 -2.3529,4.673251 -4.18687,-4.789761 -7.71808,-2.761048 -1.44019,2.246688 5.24459,4.669493 3.67952,8.116514 -1.30802,-0.735799 -1.38226,-4.668088 -3.75834,-2.590997 -1.61493,-2.203151 -6.0847,-7.392025 -8.14135,-3.261724 3.95443,1.056468 5.85871,4.96982 7.81428,7.591748 2.12161,0.119472 4.21279,-0.553849 6.13597,-1.386355 z m -0.95818,-2.920387 c 1.49997,-1.873552 0.2691,1.717422 0,0 z m 8.85295,-2.292488 c 1.36953,-2.20964 7.48282,-6.138613 4.81287,-8.017999 -0.98465,1.965254 -8.58397,-0.595157 -4.27754,2.715668 3.12553,2.117495 -3.68143,3.267154 -4.09897,0.81067 -1.9482,-1.728249 -7.54986,-0.133172 -3.13322,1.880607 3.41738,1.288858 3.31258,7.762409 6.69686,2.611054 z m -2.30299,-0.982493 c 1.1049,-2.273825 0.88984,2.191998 0,0 z m -15.80692,-4.378323 c 0.70353,-3.344236 5.69019,-6.914299 5.74332,-8.800914 0.73116,4.203242 -3.80799,7.709857 -3.90965,10.777584 3.62368,-0.855224 4.3582,-5.267455 7.097,-7.174875 2.12988,-0.142336 3.81503,-6.543342 3.16619,-2.064749 -0.34157,3.087465 -4.2036,5.08279 -4.721,7.406267 4.09451,-0.205031 5.81278,-6.922446 7.24395,-8.261773 -0.89419,5.733076 4.74424,-3.025446 -0.15828,-2.301774 -4.00469,-1.486805 -8.54782,-0.974862 -12.77251,-0.938422 -5.28866,0.676788 -0.31375,7.811218 -3.02276,11.176753 -1.77423,2.468332 0.82959,2.718493 1.33374,0.181903 z m 0.96035,-8.757986 c 1.25553,-1.903282 1.51678,2.302219 0,0 z m 7.72146,0.08698 c 0.10494,-2.921197 1.53085,1.1948 0,0 z m 6.61224,6.727991 c 2.70748,-1.095146 9.83423,-4.264234 3.85527,-6.317231 -2.45993,-2.692694 -1.88254,-0.844889 -2.49185,1.68109 -0.70596,2.102819 -7.93056,6.573104 -1.98251,5.055885 l 0.4143,-0.199349 z m 2.07742,-3.008336 c -0.50794,-2.315785 1.5136,0.778757 0,0 z m -51.27782,15.399029 c -3.49649,-3.662583 3.03417,-7.697852 -1.37642,-11.008977 -1.99572,-4.926559 -4.18577,-9.90005 -4.19576,-15.334668 -0.15357,-2.746938 1.25982,-9.765337 2.24846,-9.817998 -2.16569,6.840964 -2.20362,14.571732 1.27471,20.999824 1.20856,2.930737 2.35607,8.223578 6.08812,5.836369 -2.55823,1.187749 -6.35161,7.084513 -2.54267,8.52574 -0.25827,-1.776159 -2.31591,-3.897797 0.8052,-5.378815 1.76985,-1.768143 6.56462,0.953293 2.01394,0.764162 -6.62447,-1.026832 1.7428,7.222361 -4.31558,5.414363 z m 9.1734,-15.731666 c -1.07632,-3.31216 2.6839,-5.250849 1.4469,-0.913235 -1.22597,1.037873 -1.38228,4.958828 -1.4469,0.913235 z m 2.675,-7.543151 c -1.42822,-2.159721 -0.99244,-3.582267 0.493,-0.624739 1.63244,2.48028 1.0779,3.906742 -0.493,0.624739 z m -2.52655,-3.536085 c 0.0191,-1.757074 1.5748,1.636258 0,0 z m -1.37764,-1.547156 c -0.45857,-2.543322 1.98363,2.347333 0,0 z m -1.69602,-1.964947 c -1.49174,-2.61029 2.66387,2.554422 0,0 z m -4.5592,-3.682298 c -0.86937,-2.059 2.13007,1.58865 0,0 z m -2.56363,-1.829977 c -1.47967,-2.78071 2.21927,1.835592 0,0 z"
     style="fill:#000000;stroke-width:0.43666404" />
</svg>
