<?xml version="1.0" encoding="UTF-8" standalone="no"?>
<svg
   xmlns:dc="http://purl.org/dc/elements/1.1/"
   xmlns:cc="http://creativecommons.org/ns#"
   xmlns:rdf="http://www.w3.org/1999/02/22-rdf-syntax-ns#"
   xmlns:svg="http://www.w3.org/2000/svg"
   xmlns="http://www.w3.org/2000/svg"
   id="svgBG23"
   version="1.1"
   viewBox="0 0 100 100"
   height="100"
   width="100">
  <defs
     id="defs2" />
  <metadata
     id="metadata5">
    <rdf:RDF>
      <cc:Work
         rdf:about="">
        <dc:format>image/svg+xml</dc:format>
        <dc:type
           rdf:resource="http://purl.org/dc/dcmitype/StillImage" />
        <dc:title></dc:title>
      </cc:Work>
    </rdf:RDF>
  </metadata>
  <path
     id="pathBG23"
     d="m 40.063204,87.010687 c -3.88024,-1.3915 -7.70897,1.04951 -11.19843,-1.44259 -4.16614,-0.63912 -6.12816,-3.79441 -9.49238,-5.833 -1.99528,-0.67542 -3.61757,-4.24718 -0.55828,-1.70648 3.79808,2.93257 7.58533,6.35975 12.59374,6.8635 4.29358,0.37717 8.56536,0.21564 12.84516,0.96036 2.21593,-0.14053 5.52135,0.0309 1.87026,1.44447 -2.00332,0.47956 -4.06587,-0.004 -6.06007,-0.28626 z m 9.05976,-1.58563 c 2.10189,-0.35253 6.6583,-3.98768 7.16052,-1.8527 -2.27973,0.46185 -4.91968,2.91584 -7.16052,1.8527 z m -17.06787,-3.2178 c 1.81145,-2.43401 1.80499,2.0808 0,0 z m 4.32553,0.24254 c 0.21895,-3.02366 7.32898,-1.40138 3.29911,0.0171 -1.09308,0.12049 -2.21438,0.23178 -3.29911,-0.0171 z m 21.31324,-0.091 c 2.9581,-2.58464 6.66232,-3.68629 9.10314,-6.5343 3.82345,-2.06849 6.13255,-5.87022 8.82339,-9.13642 4.95352,-7.68404 4.67365,-17.24385 7.247,-25.75792 1.15093,-1.33497 2.48427,-9.64671 -0.27261,-5.04409 -2.6984,4.89622 -2.52303,10.66256 -4.0399,15.92476 -2.2684,0.66825 -6.24988,8.32091 -5.16235,1.89448 0.60782,-5.13931 2.01713,-10.13468 2.90977,-15.22405 3.37821,-3.48088 7.21379,-6.61519 11.45535,-8.95873 2.26319,-0.37944 3.99773,-0.0356 1.13952,1.63741 -3.19225,2.08616 -3.59889,6.75763 -4.59995,10.00919 -1.02942,4.61958 -2.34153,9.16991 -3.06612,13.86091 -1.13639,6.23207 -3.72587,12.33402 -8.52767,16.62661 -3.32543,3.75238 -7.39175,6.75205 -11.44785,9.65122 -1.0791,0.61312 -2.29273,1.13723 -3.56172,1.05093 z m 20.65955,-35.85871 c 0.92338,-2.19003 -0.0722,-6.89946 -0.68757,-1.96762 -0.0221,0.3417 -0.16505,3.53476 0.68757,1.96762 z m -33.53073,33.49277 c 1.34062,-1.69456 1.12554,2.16318 0,0 z m 2.69111,-1.01584 c 0.2746,-3.52216 4.32891,1.84696 0,0 z m -31.75508,-1.57916 c -1.61899,0.13716 -2.62985,-3.50214 -0.87554,-1.23564 0.46295,-0.13742 2.23412,1.50226 0.87554,1.23564 z m 17.63175,-1.211 c 0.36884,-4.16805 -4.50447,4.069 -5.36644,0.0111 1.13278,-3.96877 -1.66197,-0.86278 -2.65899,0.57391 -3.27471,2.28463 -3.65427,-5.03087 -5.13343,-1.74691 -3.45594,1.48278 -4.67568,-3.88813 -0.85579,-4.08014 1.16696,-2.97712 -3.24071,-2.66689 -2.92994,0.0741 -2.31904,1.17982 -3.46276,6.74825 -5.2182,2.61206 -2.1489495,-1.73919 -2.8431895,-4.82325 -1.3193195,-6.57896 -1.26371,-2.99268 -1.31509,4.40345 -2.93215,0.43443 -1.72074,-1.53688 -3.51158,-5.17558 0.21429,-3.25042 3.7944195,2.02781 7.9886895,2.39895 12.1528195,3.03138 4.47106,0.76714 9.01663,0.8073 13.47653,-0.0423 1.92512,-0.15487 3.09145,0.11067 2.07917,1.8986 1.92539,1.01244 1.67773,-3.94283 4.19786,-4.26196 -0.85355,-2.98979 -5.05991,-5.02583 -6.30175,-8.35476 -2.51377,-5.5172 -4.36354,-11.4185 -4.70983,-17.48692 -0.54954,-4.22892 0.63377,-8.46844 0.88617,-12.68739 0.25455,-2.10747 2.51849,-7.72849 3.26695,-6.8763 -0.83098,4.58115 -3.03021,8.91439 -2.51643,13.69353 -0.53737,8.18771 0.35711,16.76337 4.80795,23.85897 1.78843,2.85746 4.75964,8.97138 8.83836,6.38595 2.87427,-1.56058 8.67304,-3.43474 8.75109,-6.40612 -3.39297,-1.48398 -2.43185,-4.92368 -4.87205,-7.59694 1.57053,-4.01157 -4.50675,-4.22124 -5.1526,-7.67192 -1.34682,-1.66014 -3.25639,-5.57443 -2.1228,-7.31794 2.19075,2.19022 2.11943,1.89318 2.3378,2.2764 1.40185,1.88898 6.14361,4.15574 7.22458,3.61802 -2.36556,-3.90706 -7.95965,-5.41573 -9.65073,-10.08638 -0.29076,-1.69026 -1.63085,-5.51229 1.51431,-2.97831 2.87907,3.371 -1.4167,-4.89192 -1.08869,-6.91695 1.12744,-3.37426 -1.00777,-7.26499 -4.22384,-6.60465 2.55035,-3.7771995 6.38456,-1.40315 5.43361,2.67892 0.30991,4.19174 1.06071,8.39545 2.82562,12.21461 1.1608,3.80102 4.85076,6.23364 5.73801,10.16425 3.27197,2.693 5.09465,7.51702 9.87591,7.83622 3.52088,1.04422 7.13602,2.01229 9.28949,-2.00119 1.67923,-0.75095 5.14455,-6.11756 5.53926,-3.76818 -2.3382,4.54361 -2.78037,9.6536 -3.14912,14.65061 0.30435,1.85778 -2.13988,4.78688 -1.85304,1.15619 -0.005,-3.47865 1.38421,-6.88891 0.83611,-10.37309 -3.11006,4.70446 -0.52237,11.73798 -4.93826,15.52078 -1.87262,1.56546 -5.17103,4.0073 -4.20444,-0.32466 -1.25896,-2.60725 -0.48781,5.26432 -3.47332,5.18827 -1.86372,0.89502 -2.97156,-2.10429 -2.62679,0.96723 -1.77383,4.44194 -2.43119,-0.73112 -1.13844,-2.56697 1.15946,-1.6949 1.07133,-7.6916 -0.8415,-3.08823 -2.03151,3.27676 -1.07638,11.2309 -6.55904,9.98723 -0.58882,-3.28615 -1.49289,4.1223 -3.01244,1.21822 0.0178,-2.02936 3.08657,-5.56226 1.68039,-6.58012 -3.06707,2.47575 -3.0126,6.05557 -5.14992,8.95617 -1.62991,-0.73706 -4.18406,0.766 -2.62421,-2.18127 1.49189,-3.405 -0.32767,-3.0182 -1.37812,-0.1792 -0.61013,0.72901 -4.25072,7.71178 -2.96466,3.00103 z m -4.05764,-3.3137 c -0.66346,-0.29133 0.31641,2.19106 0.0222,0.1999 z m 10.92266,0.5111 c -1.09903,-2.1636 -0.72934,2.01398 0,0 z m -13.53484,-0.69046 c 1.39289,-3.33438 -2.21081,0.0424 -0.93769,0.72704 l 0.38302,-0.24715 z m -13.46784,-1.07052 c 5.39554,-1.49886 -1.777,-6.66546 -2.27859,-1.50289 -0.42405,1.76274 0.95131,4.1183 2.27859,1.50289 z m 10.29955,-1.27516 c -1.32633,-1.7926 -1.15783,2.07801 0,0 z m 19.19433,-4.05191 c -0.6936,-3.53735 -1.45409,4.25623 -0.0107,0.19978 z m 4.19509,-1.96172 c -1.99378,-0.79242 0.66063,1.88343 0,0 z m 12.30595,-3.65378 c 0.32347,-6.54631 -3.23719,6.13659 -0.36216,2.36706 0.2008,-0.77466 0.28662,-1.57241 0.36216,-2.36706 z m 2.98869,-2.55503 c 0.64268,-1.76345 0.934,-6.59703 -0.24071,-2.19518 -0.23383,0.72937 -1.42523,5.40325 0.24071,2.19518 z m -7.86414,-1.71673 c -0.75203,-2.79363 -3.46501,-2.19226 -1.28146,0.26333 0.3532,0.58696 1.44365,0.64027 1.28146,-0.26333 z m 2.00107,-1.42979 c -1.20061,-2.8298 -1.45545,3.34628 0,0 z m 8.90168,-0.98762 c -0.78764,-3.58453 -0.56304,4.06393 0.22349,0.9496 l -0.0952,-0.49159 z m -5.92036,-1.13515 c -2.02271,-2.48686 -3.63929,2.02581 0,0 z m 3.52379,-2.85892 c -0.95241,-3.31583 -9.44351,-0.60912 -3.366,0.67609 1.14897,0.0667 2.34978,-0.11328 3.366,-0.67609 z m -10.16698,26.75843 c 2.82832,-3.20301 2.55951,3.16135 0,0 z m 3.60162,-1.67183 c 1.11688,-5.22565 4.5532,2.47159 0,0 z m 5.53912,-3.22793 c 1.08507,-4.54919 3.77143,1.81391 0,0 z m 4.56084,-2.34707 c 1.18976,-3.82065 1.69355,2.50493 0,0 z m 2.66439,-2.61608 c 1.66531,-3.86733 3.85985,1.09865 0,0 z m 4.68337,-3.84434 c -0.6348,-1.93997 0.98972,-0.4245 0.36024,0.31033 z m -29.29293,-4.03483 c -2.89189,-2.39135 3.66234,-2.76037 1.09256,0.0762 -0.34787,0.22385 -0.72861,-0.0456 -1.09256,-0.0762 z m -3.60418,-3.29914 c -0.90092,-5.84581 3.73039,1.95612 0,0 z m -4.11961,-6.46311 c -1.34531,-1.82458 -0.48615,-6.02023 0.31149,-1.75313 2.84552,1.01041 0.88419,5.56185 -0.31149,1.75313 z m -2.71024,-7.31868 c 3.39081,-2.14267 0.91911,3.06186 0,0 z m -0.006,-4.08279 c 1.30279,-3.6583 2.11867,4.64913 0,0 z m -0.55361,-3.1486 c -0.4128,-3.31489 2.78073,0.32925 0,0 z m -0.27679,-4.23932 c 0.25497,-2.10181 3.35065,-4.15372 1.67296,-0.89847 -0.004,0.78728 -1.47329,2.8234 -1.67296,0.89847 z m 60.53345,-0.24932 c -2.8977,-0.76604 -1.69938,-2.55496 0.49249,-0.87641 1.58998,0.58829 0.38767,2.21535 -0.49249,0.87641 z m -58.61096,-4.88795 c -0.82817,-6.23317 3.80902,3.11765 0,0 z m -1.5073,-9.25122 c 0.36481,-2.03802 3.04288,-2.84568 1.27728,-0.24119 -0.17593,0.28438 -1.47909,1.44288 -1.27728,0.24119 z"
     style="fill:#000000;stroke-width:0.41519958" />
</svg>
