<?xml version="1.0" encoding="UTF-8" standalone="no"?>
<svg
   xmlns:dc="http://purl.org/dc/elements/1.1/"
   xmlns:cc="http://creativecommons.org/ns#"
   xmlns:rdf="http://www.w3.org/1999/02/22-rdf-syntax-ns#"
   xmlns:svg="http://www.w3.org/2000/svg"
   xmlns="http://www.w3.org/2000/svg"
   id="svgBG24"
   version="1.1"
   viewBox="0 0 100 100"
   height="100"
   width="100">
  <defs
     id="defs2" />
  <metadata
     id="metadata5">
    <rdf:RDF>
      <cc:Work
         rdf:about="">
        <dc:format>image/svg+xml</dc:format>
        <dc:type
           rdf:resource="http://purl.org/dc/dcmitype/StillImage" />
        <dc:title></dc:title>
      </cc:Work>
    </rdf:RDF>
  </metadata>
  <path
     id="pathBG24"
     d="m 23.456947,93.385598 c -1.63833,-0.9099 -4.19458,-1.9788 -4.73224,-1.9788 -0.26237,0 -0.47703,-0.15333 -0.47703,-0.34075 0,-0.18741 -1.12325,-0.58696 -2.49611,-0.88787 -4.22802,-0.92676 -5.7518993,-1.07337 -5.7518993,-0.5534 0,0.26384 -0.34475,0.4797 -0.76611,0.4797 -0.42136,0 -1.48694,0.38634 -2.36795,0.85853 -0.8810003,0.47219 -1.7007703,0.69844 -1.8217103,0.50276 -0.12093,-0.19567 0.0167,-1.30948 0.30595,-2.47512 0.67422,-2.71752 1.6334503,-3.21251 6.2415396,-3.22082 2.44067,-0.004 3.60433,-0.17547 3.735,-0.54903 0.13913,-0.39774 0.41873,-0.33978 1.0471,0.21705 0.47151,0.41782 1.08609,0.75968 1.36574,0.75968 0.27965,0 0.50845,0.17702 0.50845,0.39337 0,0.21636 0.97356,0.52727 2.16347,0.69092 1.79667,0.24711 2.42228,0.13761 3.6899,-0.64582 1.76318,-1.0897 2.03024,-0.68197 0.44534,0.6799 l -1.08109,0.92895 0.86403,0.99624 c 0.47522,0.54793 0.86404,1.43844 0.86404,1.97891 0,0.54046 0.23049,1.05949 0.51221,1.1534 0.65993,0.21998 0.12922,1.64177 -0.60711,1.62648 -0.30594,-0.006 -1.04463,-0.28278 -1.64152,-0.61428 z m -0.33333,-2.72815 c -0.30272,-0.10801 -0.81632,-0.46232 -1.14136,-0.78735 -0.32503,-0.32503 -1.15177,-0.72521 -1.83719,-0.88931 -0.68543,-0.16409 -1.44158,-0.43156 -1.68034,-0.59439 -2.26839,-1.54701 -9.9332093,-2.08505 -11.2299593,-0.7883 -0.38937,0.38937 -0.70794,0.91725 -0.70794,1.17306 0,0.61954 1.4329,0.59499 2.06324,-0.0353 0.55175,-0.55174 6.7877093,-0.59144 7.6315493,-0.0486 0.27868,0.17928 0.89738,0.34748 1.3749,0.37377 0.98651,0.0543 2.49801,0.6196 2.82169,1.05527 0.32109,0.43219 2.78662,1.20675 3.03874,0.95463 0.11938,-0.11938 -0.0306,-0.30542 -0.33333,-0.41343 z m -3.75344,-4.39966 c -0.39749,-0.64316 0.17311,-1.73604 1.05205,-2.01501 0.43561,-0.13826 2.55888,-2.0015 4.71838,-4.14053 2.15949,-2.13903 4.12921,-3.88915 4.37714,-3.88915 0.24793,0 0.45078,-0.39059 0.45078,-0.86798 0,-0.47739 0.53313,-1.82287 1.18474,-2.98994 0.98904,-1.77148 1.10527,-2.29136 0.70367,-3.1475 -0.57798,-1.23215 -1.56646,-6.66694 -1.48929,-8.18827 0.0303,-0.5969 0.0631,-1.73966 0.0729,-2.53946 0.0146,-1.19151 0.16135,-1.41666 0.81246,-1.24639 0.55008,0.14385 0.95461,-0.14324 1.31434,-0.93277 l 0.51968,-1.14057 0.68614,1.3017 c 1.40892,2.67291 0.92395,12.25269 -0.78161,15.43957 -0.82822,1.54752 -0.3776,1.32508 2.07775,-1.02566 1.37286,-1.31437 3.43328,-3.26377 4.57872,-4.332 2.01494,-1.87913 2.09366,-2.04574 2.423,-5.12807 0.38776,-3.629 -0.16067,-6.9945 -1.59442,-9.7844 -0.50628,-0.98516 -0.79865,-1.91306 -0.64971,-2.062 0.59106,-0.59106 1.43269,-0.21182 2.04833,0.92298 0.61047,1.12527 0.64864,1.13773 0.66502,0.21706 0.01,-0.53721 -0.36888,-1.363 -0.84098,-1.83511 -1.17536,-1.17536 -0.61845,-2.47544 0.95738,-2.23495 0.17384,0.0265 0.63,-0.55882 1.01368,-1.30078 0.44736,-0.86511 0.84762,-1.19902 1.11579,-0.93085 0.23,0.23 0.53595,3.17184 0.67989,6.53743 0.21599,5.05013 0.14695,6.2944 -0.39516,7.12176 -0.36128,0.55139 -0.73846,1.70138 -0.83818,2.55556 l -0.18131,1.55303 3.55702,-3.45908 c 4.01718,-3.90659 4.12749,-4.18467 4.12749,-10.40552 0,-3.34763 -0.15946,-4.2129 -1.11627,-6.05712 -0.61395,-1.18335 -1.11627,-2.32888 -1.11627,-2.5456 0,-0.62989 0.7424,-0.45728 1.5726,0.36564 0.73044,0.72404 0.74964,0.71895 0.40928,-0.10853 -0.19641,-0.47751 -0.45243,-1.30774 -0.56894,-1.84495 -0.3386,-1.56121 1.02537,-1.19734 1.62726,0.43411 0.29623,0.80292 0.61386,1.16752 0.73716,0.84615 0.11915,-0.31058 -0.0205,-1.1373 -0.31043,-1.83715 -0.55229,-1.33336 -0.29488,-2.82751 0.41187,-2.39071 0.38539,0.23818 0.71187,1.87521 1.08035,5.41711 0.15276,1.46832 -0.39111,8.1115 -0.8729,10.66219 -0.21997,1.16459 -0.13152,1.30232 0.83644,1.30232 0.59534,0 1.06717,-0.0977 1.04851,-0.21706 -0.10291,-0.65843 1.05026,-2.61464 1.76764,-2.99856 0.93865,-0.50235 2.67969,-3.90993 2.67969,-5.24471 0,-0.48012 0.17257,-0.87294 0.38348,-0.87294 0.5771,0 0.95163,-1.87728 0.47052,-2.35839 -0.23094,-0.23094 -0.41989,-1.06244 -0.41989,-1.84778 0,-0.78534 -0.38643,-2.4449 -0.85874,-3.6879 -0.77076,-2.02848 -0.79114,-2.33469 -0.19894,-2.98906 0.36289,-0.40098 0.62851,-0.90002 0.59027,-1.10897 -0.18046,-0.98622 0.0895,-1.5365 0.64853,-1.32198 0.78635,0.30175 1.09259,-0.50421 0.80714,-2.12419 -0.21741,-1.23382 -0.19853,-1.2499 0.58734,-0.50011 0.62742,0.59861 0.83087,1.48663 0.89512,3.90695 0.0457,1.72274 0.1937,3.72774 0.32882,4.45555 0.13513,0.72781 0.0467,2.29059 -0.1964,3.47284 -1.10576,5.37656 -1.09992,5.26646 -0.2334,4.39994 0.42952,-0.42952 1.03883,-0.68198 1.35402,-0.56103 0.36442,0.13984 0.48519,-0.009 0.33169,-0.40914 -0.13277,-0.34598 -0.0251,-0.62905 0.23916,-0.62905 0.2643,0 0.48055,-0.28541 0.48055,-0.63425 0,-0.34884 0.40488,-1.01145 0.89974,-1.47248 0.49486,-0.46103 0.95372,-1.10352 1.0197,-1.42776 0.066,-0.32423 0.29597,-0.98021 0.5111,-1.45773 0.21513,-0.47751 0.39085,-2.93361 0.39048,-5.458 -5.2e-4,-3.96304 -0.11555,-4.70401 -0.84193,-5.42632 -0.83185,-0.82717 -0.82798,-0.83809 0.34575,-0.97577 0.9611,-0.11274 1.13516,-0.3026 0.91459,-0.99757 -0.32518,-1.02456 0.47147,-2.11898 1.54244,-2.11898 1.58985,0 1.71926,3.04987 0.37026,8.72596 -0.91584,3.85347 -0.82501,5.22271 0.24901,3.75389 0.30525,-0.41745 0.72881,-0.76659 0.94125,-0.77586 0.53775,-0.0235 2.36779,-3.8945 2.79423,-5.91052 0.62262,-2.94355 3.61457,-10.58685 4.08405,-10.43319 0.59058,0.19328 0.86047,2.9033 0.28914,2.9033 -0.24011,0 -0.86492,1.41627 -1.38844,3.14726 -0.81073,2.68057 -1.82378,5.91047 -2.86419,9.13184 -0.22754,0.70453 -0.13641,0.72435 0.99811,0.21706 0.68668,-0.30704 1.6392,-0.97172 2.11672,-1.47706 0.7966,-0.84302 4.50874,-2.80656 5.72188,-3.02659 0.70129,-0.1272 1.15564,1.19751 0.54101,1.57737 -0.35921,0.222 -0.36325,0.38754 -0.0147,0.60296 0.87841,0.54289 0.51793,1.54801 -0.55519,1.54801 -0.5696,0 -1.59518,0.29182 -2.27905,0.64848 -0.68388,0.35667 -1.78062,0.64969 -2.43721,0.65116 -0.65658,0.002 -1.19379,0.16043 -1.19379,0.35324 1e-5,0.36619 -3.0088,1.81996 -3.7667,1.81996 -0.87195,0 -4.48892,3.81606 -4.23764,4.47089 0.21859,0.56964 0.44968,0.56671 1.95559,-0.0248 0.93924,-0.36894 1.70771,-0.83652 1.70771,-1.03906 0,-0.20254 0.24418,-0.37439 0.54263,-0.38188 0.29845,-0.007 1.70974,-0.59354 3.13621,-1.30232 3.17392,-1.57705 4.24981,-1.6645 4.05673,-0.32975 -0.0763,0.52742 -0.52942,1.06462 -1.00693,1.19379 -0.57407,0.15528 -0.86822,0.60254 -0.86822,1.32011 0,0.87525 -0.18841,1.05909 -0.97363,0.94998 -1.1544,-0.16041 -6.18911,1.26389 -6.18911,1.75087 0,0.18584 -0.46445,0.33789 -1.03211,0.33789 -0.56766,0 -1.27529,0.29303 -1.57252,0.65116 -0.29723,0.35814 -1.0537,0.65131 -1.68105,0.6515 -1.02942,3.4e-4 -2.05823,0.71656 -5.48169,3.8163 -1.17939,1.06787 -3.23794,3.72572 -3.0394,3.92425 0.0884,0.0884 0.8084,-0.33219 1.60004,-0.93461 0.79164,-0.60242 1.97841,-1.22983 2.63725,-1.39425 0.65884,-0.16442 1.30524,-0.47265 1.43646,-0.68496 0.13121,-0.21231 0.63705,-0.38601 1.12408,-0.38601 0.82071,0 2.96503,-0.79492 4.8483,-1.7973 0.43605,-0.2321 1.75465,-0.5359 2.93021,-0.67513 1.17556,-0.13923 2.13738,-0.42128 2.13738,-0.62678 0,-0.2055 0.60694,-0.37364 1.34876,-0.37364 1.05155,0 1.2907,0.15132 1.08527,0.68667 -0.14493,0.37766 -0.2635,0.76835 -0.2635,0.86821 0,0.0998 -0.30697,0.18154 -0.68217,0.18154 -0.37519,0 -0.96688,0.28473 -1.31488,0.63272 -0.34799,0.34799 -0.91072,0.52603 -1.25052,0.39564 -0.87696,-0.33653 -1.79369,0.27531 -1.07658,0.71852 0.29904,0.18482 0.43488,0.61965 0.30186,0.96629 -0.17833,0.46473 -1.41802,0.71127 -4.71994,0.93869 -3.45112,0.23769 -4.96142,0.55119 -6.5857,1.36702 -1.1592,0.58223 -2.30383,1.0586 -2.54363,1.0586 -0.4514,0 -3.78992,2.24357 -5.33867,3.58772 -3.02422,2.62471 -7.24937,6.90331 -7.03187,7.12082 0.14177,0.14177 0.92915,-0.0608 1.74974,-0.45023 0.82058,-0.38939 1.8043,-0.70798 2.18605,-0.70798 0.38174,0 0.69408,-0.19535 0.69408,-0.43411 0,-0.23876 0.39069,-0.4341 0.86821,-0.4341 0.47752,0 0.86821,-0.1865 0.86821,-0.41444 0,-0.22794 0.72765,-0.55094 1.617,-0.71779 0.88936,-0.16684 1.88005,-0.56639 2.20154,-0.88788 0.3215,-0.32149 0.91243,-0.59074 1.31321,-0.59833 0.40077,-0.008 1.10787,-0.30062 1.57133,-0.65116 0.46627,-0.35268 1.76364,-0.63736 2.90459,-0.63736 1.13407,0 2.18267,-0.19534 2.33024,-0.4341 0.14756,-0.23876 0.8428,-0.43411 1.54499,-0.43411 0.70218,0 1.27669,0.19535 1.27669,0.43411 0,0.23876 -0.26166,0.4341 -0.58147,0.4341 -0.31982,0 -0.804,0.48837 -1.07596,1.08527 -0.28632,0.6284 -0.85815,1.08526 -1.35838,1.08526 -0.57853,0 -0.78365,0.20909 -0.62099,0.63299 0.27263,0.71045 0.0341,0.778 -5.38542,1.52518 -1.97775,0.27266 -3.96934,0.37723 -4.42577,0.23236 -0.45643,-0.14486 -1.70894,0.13707 -2.78334,0.62652 -1.07441,0.48945 -2.15954,0.8899 -2.41139,0.8899 -0.25186,0 -0.45793,0.17257 -0.45793,0.38348 0,0.21091 -0.34185,0.47287 -0.75968,0.58214 -0.41783,0.10926 -0.95503,0.25617 -1.19379,0.32646 -0.23876,0.0703 -0.8248,0.55488 -1.30232,1.07686 -0.47751,0.52198 -1.42943,0.98369 -2.11537,1.02603 -0.90479,0.0559 -2.01433,0.85174 -4.04166,2.89912 -1.53698,1.55217 -2.89969,2.82213 -3.02826,2.82213 -0.12856,0 -0.77601,0.53721 -1.43878,1.19379 -0.66277,0.65659 -1.96206,1.88513 -2.88733,2.7301 -0.92526,0.84497 -1.93764,1.85518 -2.24974,2.24491 -0.49855,0.62255 -0.44584,0.67772 0.43411,0.45433 0.55085,-0.13983 1.44108,-0.53762 1.97828,-0.88398 0.96452,-0.62185 1.2646,-0.33862 0.64451,0.60834 -0.17541,0.26787 -1.22377,0.89713 -2.32969,1.39835 -1.10592,0.50121 -2.12721,1.21473 -2.26952,1.58561 -0.18228,0.47501 -0.58039,0.59358 -1.34697,0.40118 -0.88253,-0.22149 -1.46372,0.0842 -3.07499,1.61724 -1.09272,1.03969 -2.34302,1.89666 -2.77844,1.90437 -0.43542,0.008 -1.08973,0.26139 -1.45401,0.56371 -0.39888,0.33104 -0.76461,0.38422 -0.91945,0.13369 z m 47.71438,-45.20724 c 0.43215,-0.47752 0.68767,-0.86821 0.56781,-0.86821 -0.11985,0 -0.66838,0.39069 -1.21896,0.86821 -0.55058,0.47751 -0.8061,0.86821 -0.56781,0.86821 0.23828,0 0.78682,-0.3907 1.21896,-0.86821 z m -5.17089,-6.83497 c -0.46688,-0.46687 -0.71473,0.18699 -0.38699,1.02093 0.30743,0.78229 0.33065,0.78365 0.48269,0.0282 0.0879,-0.43651 0.0448,-0.9086 -0.0957,-1.04909 z m 19.27933,-3.14946 c 0,-0.23876 -0.0861,-0.43411 -0.19144,-0.43411 -0.10528,0 -0.31216,0.19535 -0.45972,0.43411 -0.14756,0.23876 -0.0614,0.4341 0.19143,0.4341 0.25285,0 0.45973,-0.19534 0.45973,-0.4341 z m -55.13142,55.29086 c 0,-0.3101 1.72993,-1.87801 2.12843,-1.92908 0.14253,-0.0183 0.60101,-0.0987 1.01884,-0.17865 0.42377,-0.0811 0.75968,0.11682 0.75968,0.44765 0,0.33411 -0.66344,0.71754 -1.51937,0.87812 -0.83565,0.15676 -1.51937,0.45864 -1.51937,0.67082 0,0.21219 -0.19534,0.3858 -0.4341,0.3858 -0.23876,0 -0.43411,-0.1236 -0.43411,-0.27466 z m -9.55032,-1.26627 c 0,-0.60435 1.37039,-2.80013 1.74757,-2.80013 0.23262,0 0.42295,-0.2093 0.42295,-0.46511 0,-0.25581 0.24419,-0.72238 0.54264,-1.03682 1.91819,-2.02098 4.4169,-5.5938 5.41439,-7.74187 1.05182,-2.26505 1.91039,-7.78065 1.638,-10.52282 -0.43636,-4.3929 -0.31432,-11.38395 0.22948,-13.146 l 0.57838,-1.87407 2.43502,0.17577 c 1.33925,0.0967 2.96287,0.52163 3.60803,0.94436 1.36977,0.8975 1.41684,0.82268 1.79414,-2.85213 0.13787,-1.34277 0.54367,-3.00323 0.90179,-3.6899 0.35811,-0.68667 0.65232,-1.54501 0.65379,-1.90741 0.005,-1.15986 2.15655,-3.89919 3.06296,-3.89919 1.00426,0 2.65063,0.85156 3.14729,1.62789 0.19094,0.29845 0.63047,0.54263 0.97674,0.54263 0.47256,0 0.62959,-0.5865 0.62959,-2.35159 0,-2.6514 1.07316,-5.52132 2.72271,-7.28123 0.60199,-0.64226 1.17578,-1.4115 1.27509,-1.70941 0.24618,-0.73857 2.77391,1.71191 3.36234,3.25958 0.36667,0.9644 0.68417,1.16813 1.64776,1.05725 0.68303,-0.0786 1.14592,-0.37317 1.08215,-0.68868 -0.1667,-0.82484 2.16577,-5.19288 2.40251,-4.4992 0.11128,0.32607 -0.0317,0.73744 -0.31761,0.91418 -0.28596,0.17673 -0.62839,1.12998 -0.76096,2.11832 -0.26964,2.01036 -1.80367,3.97152 -3.10653,3.97152 -0.57863,0 -1.15342,-0.62635 -1.79944,-1.96084 -0.52207,-1.07846 -1.30049,-2.14882 -1.72982,-2.37859 -0.66605,-0.35646 -0.97837,-0.0314 -2.12824,2.21532 -1.17344,2.29271 -1.34764,3.07893 -1.34764,6.08212 0,2.81301 -0.13288,3.50002 -0.72058,3.72554 -0.47177,0.18104 -1.03385,-0.10555 -1.62789,-0.83002 -1.28604,-1.56838 -3.35126,-2.54134 -4.28506,-2.01876 -0.41045,0.2297 -0.74627,0.62259 -0.74627,0.87309 0,0.2505 -0.26557,1.07102 -0.59015,1.82338 -1.41462,3.27897 -1.58038,3.91862 -1.58038,6.09873 0,2.73432 -0.71393,5.03657 -1.56184,5.03657 -0.33478,0 -0.60869,-0.18529 -0.60869,-0.41174 0,-0.22646 -0.46193,-0.91017 -1.02651,-1.51937 -0.7719,-0.83289 -1.45862,-1.10763 -2.76854,-1.10763 -2.59439,0 -2.92992,0.66708 -2.81092,5.58854 0.32267,13.34515 0.27905,15.01851 -0.43145,16.55085 -0.38746,0.83565 -0.95527,2.25192 -1.26179,3.14726 -0.30652,0.89534 -0.69305,1.6279 -0.85896,1.6279 -0.1659,0 -0.95689,1.02258 -1.75774,2.27241 -0.80085,1.24983 -2.04214,2.90096 -2.75842,3.66919 -0.71627,0.76822 -1.65329,1.89446 -2.08226,2.50275 -0.70162,0.99488 -1.60763,1.48371 -1.60763,0.86736 z m 14.32548,-1.06371 c 0,-0.23875 0.29302,-0.4341 0.65116,-0.4341 0.35814,0 0.65116,0.19535 0.65116,0.4341 0,0.23876 -0.29302,0.43411 -0.65116,0.43411 -0.35814,0 -0.65116,-0.19535 -0.65116,-0.43411 z m 2.88224,0.13291 c -0.51882,-0.51883 -0.28031,-1.43522 0.37356,-1.43522 0.35813,0 0.65115,0.28149 0.65115,0.62553 0,0.72524 -0.61958,1.21481 -1.02471,0.80969 z m 1.89293,-1.18634 c 0,-0.40269 0.37115,-0.68299 0.90438,-0.68299 1.05794,0 0.9084,1.01441 -0.18067,1.22562 -0.42836,0.0831 -0.72371,-0.13837 -0.72371,-0.54263 z m 2.17052,-0.46594 c 0,-0.35813 0.19535,-0.65115 0.43411,-0.65115 0.23876,0 0.43411,0.29302 0.43411,0.65115 0,0.35814 -0.19535,0.65116 -0.43411,0.65116 -0.23876,0 -0.43411,-0.29302 -0.43411,-0.65116 z m 2.60464,-0.55674 c 0,-0.231 0.61046,-0.54209 1.35658,-0.69131 2.05129,-0.41026 4.28679,-0.32537 4.28679,0.16279 0,0.23876 -0.14651,0.44448 -0.32558,0.45716 -0.17907,0.0127 -1.44883,0.12841 -2.82169,0.2572 -1.48009,0.13884 -2.4961,0.0632 -2.4961,-0.18584 z m 6.29453,-0.52852 c -0.14756,-0.23876 -0.0614,-0.43411 0.19143,-0.43411 0.25285,0 0.45973,0.19535 0.45973,0.43411 0,0.23876 -0.0861,0.43411 -0.19143,0.43411 -0.10529,0 -0.31217,-0.19535 -0.45973,-0.43411 z m 2.62129,-0.33018 c -0.36299,-0.94593 -0.32832,-0.97214 1.28566,-0.97214 1.00587,0 1.51937,0.20343 1.51937,0.60189 0,0.8337 -2.50054,1.16375 -2.80503,0.37025 z m 3.67324,-0.48377 c 0,-0.49417 2.40311,-0.97256 3.25104,-0.64717 1.2921,0.49582 0.62097,1.02701 -1.29756,1.02701 -1.07442,0 -1.95348,-0.17092 -1.95348,-0.37984 z m 5.85853,-0.49143 c -0.1486,-0.24045 0.0367,-0.55493 0.41176,-0.69886 0.95487,-0.36642 3.79289,0.22331 3.48353,0.72386 -0.34003,0.55018 -3.55255,0.52956 -3.89529,-0.025 z m 4.8195,-0.31625 c -0.65744,-0.65744 -0.10488,-0.983 1.66836,-0.983 1.06032,0 2.05437,-0.2047 2.20899,-0.45488 0.15462,-0.25018 0.60568,-0.41366 1.00235,-0.36329 0.39668,0.0504 1.47518,-0.0637 2.39667,-0.25351 1.2288,-0.2531 1.77084,-0.19072 2.03335,0.23404 0.57386,0.9285 0.10585,1.20366 -2.08591,1.22637 -2.15072,0.0223 -5.60682,0.38676 -6.46412,0.68169 -0.27511,0.0946 -0.61697,0.0553 -0.75969,-0.0874 z m 12.34714,-1.78595 c -0.52242,-1.94014 -4.03115,-5.70864 -5.31513,-5.70864 -0.1902,0 -0.34581,-0.39069 -0.34581,-0.86821 0,-0.63669 0.2894,-0.86821 1.08526,-0.86821 0.5969,0 1.08527,-0.23442 1.08527,-0.52093 0,-0.39546 0.12981,-0.3911 0.539,0.0181 0.42927,0.42927 0.42445,0.6098 -0.0236,0.88673 -0.42477,0.26252 -0.28564,0.60379 0.56784,1.39277 1.22214,1.12978 3.69195,5.59587 3.69195,6.67603 0,1.29734 -0.84188,0.63706 -1.28474,-1.00762 z m -41.5211,-0.31782 c 0.14492,-0.37767 0.26349,-0.76836 0.26349,-0.86821 0,-0.0999 0.29373,-0.18155 0.65274,-0.18155 0.359,0 1.38168,-0.3907 2.27262,-0.86821 0.89094,-0.47752 1.86697,-0.86821 2.16896,-0.86821 0.81952,0 0.66281,0.85706 -0.21063,1.15189 -2.04957,0.69185 -4.01547,1.65651 -4.01547,1.97039 0,0.19281 -0.31393,0.35056 -0.69761,0.35056 -0.45777,0 -0.60701,-0.23607 -0.4341,-0.68666 z m 6.34097,-2.54351 c 0,-0.34405 0.19535,-0.74627 0.43411,-0.89383 0.23876,-0.14756 0.4341,0.13393 0.4341,0.62554 0,0.4916 -0.19534,0.89383 -0.4341,0.89383 -0.23876,0 -0.43411,-0.28149 -0.43411,-0.62554 z m 2.25275,-0.70639 c 0.23985,-0.71955 1.20155,-1.25338 4.25884,-2.36407 0.11938,-0.0434 1.04728,-0.23122 2.062,-0.41744 1.01472,-0.18622 1.84495,-0.4692 1.84495,-0.62885 0,-0.25874 2.41903,-0.7791 8.15494,-1.75419 1.02323,-0.17395 1.95987,-0.15534 2.08143,0.0414 0.37618,0.60867 -0.69615,3.88162 -1.35453,4.13426 -0.34263,0.13148 -1.21146,0.0339 -1.93072,-0.21682 -0.97991,-0.3416 -1.30941,-0.32552 -1.31439,0.0642 -0.004,0.31671 -0.17119,0.26544 -0.42746,-0.13111 -0.28054,-0.4341 -0.42303,-0.47028 -0.42746,-0.10853 -0.005,0.38736 -0.9797,0.54264 -3.40714,0.54264 -1.87028,0 -3.53638,0.13588 -3.70247,0.30196 -0.16608,0.16609 -0.54049,0.33668 -0.83203,0.37911 -4.6643,0.67875 -5.18516,0.69514 -5.00596,0.15753 z m 13.69159,-2.8373 c -0.14425,-0.14425 -0.51867,-0.15967 -0.83204,-0.0342 -0.34629,0.13858 -0.24343,0.24144 0.26228,0.26227 0.45762,0.0188 0.71401,-0.0838 0.56976,-0.228 z m 17.04769,-1.82429 c 0,-0.5819 1.22708,-1.82038 1.80361,-1.82038 0.68903,0 0.19909,0.94668 -0.85066,1.64369 -0.55374,0.36767 -0.95295,0.44168 -0.95295,0.17669 z m 2.60464,-2.26811 c 0,-0.55954 1.23679,-1.06481 1.63404,-0.66756 0.16186,0.16186 0.007,0.47602 -0.3443,0.69814 -0.84032,0.53143 -1.28974,0.52078 -1.28974,-0.0306 z m 5.20926,-3.45318 c 0,-0.25707 0.27792,-0.57405 0.6176,-0.70439 0.94069,-0.36098 1.18493,-1.41087 0.33445,-1.43764 -1.76768,-0.0556 -2.26855,-0.20899 -2.12138,-0.64953 0.22254,-0.66618 2.88033,-0.30753 4.05897,0.54774 1.09188,0.79232 1.15051,0.93203 0.68509,1.63253 -0.44802,0.6743 -3.57473,1.20898 -3.57473,0.61129 z m -9.55032,-1.7622 c 0,-0.60557 2.00308,-2.5849 2.61591,-2.5849 0.26666,0 0.73998,-0.24418 1.0518,-0.54263 0.31183,-0.29845 1.01243,-0.83566 1.55689,-1.19379 1.46108,-0.96109 4.05725,-3.17378 4.45582,-3.79767 0.19093,-0.29886 0.56009,-0.54339 0.82035,-0.54339 0.54224,0 1.61981,-1.29678 1.64038,-1.97406 0.008,-0.25447 -0.84626,-0.44563 -1.93929,-0.43411 -1.07421,0.0113 -1.95327,0.17889 -1.95348,0.37237 -1.7e-4,0.19349 -0.73293,0.29116 -1.62827,0.21706 -2.33562,-0.19331 -2.4145,-1.49325 -0.19204,-3.16499 0.92841,-0.69835 2.0192,-1.84677 2.42396,-2.55204 0.4861,-0.84697 0.88198,-1.13629 1.16608,-0.8522 0.2841,0.2841 -0.27042,1.13068 -1.63334,2.4936 -1.76434,1.76434 -1.95959,2.1216 -1.34689,2.46449 0.4741,0.26532 1.40133,0.16854 2.74019,-0.28602 1.11299,-0.37786 2.34729,-0.54442 2.74288,-0.37012 0.3956,0.1743 0.86578,0.28589 1.04485,0.24799 0.17907,-0.0379 0.32558,0.41722 0.32558,1.01138 0,1.06317 -1.15493,2.82665 -1.85122,2.82665 -0.46,0 -1.17535,0.59852 -3.92675,3.28546 -1.23914,1.21011 -2.59484,2.32722 -3.01267,2.48248 -0.43033,0.15991 -0.75968,0.72821 -0.75968,1.31084 0,0.88792 -0.22217,1.0369 -1.62481,1.08963 -0.89365,0.0336 -1.69132,0.2606 -1.77261,0.50445 -0.19394,0.58185 -0.94364,0.57352 -0.94364,-0.0105 z m 4.77531,-1.30394 c -1.1e-4,-0.51299 0.36026,-0.63044 1.51922,-0.49514 2.06083,0.24059 2.06096,1.36379 1.5e-4,1.25089 -1.04656,-0.0573 -1.51926,-0.29247 -1.51937,-0.75575 z m 5.64322,-16.01493 c 0,-0.22467 0.19535,-0.52922 0.43411,-0.67678 0.23876,-0.14756 0.43411,0.0362 0.43411,0.40848 0,0.37223 -0.19535,0.67678 -0.43411,0.67678 -0.23876,0 -0.43411,-0.18381 -0.43411,-0.40848 z m 2.17718,-2.08763 c -0.004,-0.5372 0.1887,-0.97673 0.42746,-0.97673 0.5439,0 0.5439,0.46069 0,1.30232 -0.34028,0.52655 -0.42208,0.46424 -0.42746,-0.32559 z m 1.30232,-1.05425 c 0.0112,-0.97193 0.71256,-1.81708 1.05203,-1.26782 0.16444,0.26608 -0.006,0.78926 -0.37984,1.16262 -0.50833,0.50832 -0.67717,0.53475 -0.67219,0.1052 z m 1.29567,-1.59162 c 0,-0.52586 1.36953,-1.65489 2.38758,-1.9683 0.47751,-0.147 1.20098,-0.85382 1.6077,-1.57071 l 0.7395,-1.30344 h -1.143 c -0.62865,0 -2.38719,0.42027 -3.90787,0.93393 -3.67791,1.24233 -4.28478,0.67729 -1.89314,-1.76266 0.97148,-0.9911 2.06458,-2.37876 2.42911,-3.0837 0.75276,-1.45566 3.25296,-4.15185 3.25296,-3.50795 0,0.2329 -0.18492,0.53774 -0.41093,0.67742 -0.22601,0.13969 -1.05249,1.42097 -1.83663,2.84731 -0.78412,1.42633 -1.57595,2.59334 -1.75959,2.59334 -0.18365,0 -0.33391,0.19765 -0.33391,0.43923 0,0.40215 0.64302,0.36921 4.6934,-0.24041 2.68052,-0.40344 2.90335,0.87554 0.54862,3.14872 -2.90858,2.80784 -4.3738,3.7449 -4.3738,2.79722 z m -3.03874,-12.82279 c 0,-0.77947 2.05794,-1.18719 2.33592,-0.4628 0.2842,0.74063 -0.11732,1.06335 -1.32301,1.06335 -0.57303,0 -1.01291,-0.26081 -1.01291,-0.60055 z m 6.94569,-0.68486 c 0,-0.22946 0.3642,-0.76666 0.80934,-1.19379 0.77506,-0.7437 1.79529,-2.40228 1.79529,-2.91858 0,-0.13508 -0.39069,-0.24559 -0.86821,-0.24559 -1.03746,0 -1.08947,-0.27487 -0.21705,-1.14728 0.35813,-0.35814 0.65116,-0.44186 0.65116,-0.18605 0,0.25581 0.39069,0.46511 0.86821,0.46511 1.16784,0 1.12194,0.18785 -0.75969,3.10875 -1.5331,2.37988 -2.27905,3.07293 -2.27905,2.11743 z m -8.5306,-1.55053 c -0.15982,-0.41647 0.33101,-1.23488 1.31194,-2.18754 1.73992,-1.68979 1.89037,-2.11932 2.26981,-6.48032 0.45482,-5.22737 0.3572,-7.1086504 -0.41303,-7.9597404 -1.42976,-1.57987 -0.36711,-2.67585 2.59445,-2.67585 0.91904,0 0.7067,0.92078 -0.27131,1.17654 -1.00255,0.26217 -1.10923,1.3511 -0.34059,3.4767304 0.4141,1.14517 0.4141,1.64091 0,2.30399 -0.29019,0.46467 -0.52762,2.10455 -0.52762,3.64418 0,2.43594 -0.16852,3.38243 -0.92473,5.19385 -0.0883,0.21149 0.66985,0.40684 1.68478,0.4341 1.01492,0.0273 1.90551,-0.13152 1.97909,-0.35287 0.19268,-0.57961 1.16781,0.12308 1.16781,0.84154 0,0.41877 -0.39903,0.55442 -1.29668,0.44081 -0.71317,-0.0903 -1.40841,0.0167 -1.54499,0.23768 -0.13657,0.22098 -0.82283,0.40178 -1.52501,0.40178 -0.70218,0 -1.2767,0.19535 -1.2767,0.43411 0,0.23875 -0.29915,0.4341 -0.66478,0.4341 -0.36563,0 -0.77722,0.29302 -0.91465,0.65116 -0.32288,0.84141 -0.9822,0.83422 -1.30779,-0.0143 z m -24.88234,-0.11583 c -0.007,-0.31031 0.31883,-1.18937 0.72465,-1.95348 0.60775,-1.14432 0.76837,-1.24537 0.91093,-0.57309 0.0952,0.44891 -0.009,0.93727 -0.23232,1.08526 -0.22297,0.14799 -0.62694,0.65977 -0.89772,1.13729 -0.27078,0.47751 -0.49828,0.61432 -0.50554,0.30402 z m 4.57083,-2.92774 c -0.53532,-0.71452 -1.12859,-1.04937 -1.62789,-0.9188 -0.92402,0.24164 -0.97555,-0.0779 -0.18131,-1.12412 0.65242,-0.85946 1.13212,-0.98428 1.13212,-0.29457 0,0.7759 1.18347,1.70541 2.17136,1.70541 0.65069,0 0.88728,0.22725 0.7857,0.7547 -0.22646,1.17595 -1.35244,1.11539 -2.27998,-0.12262 z m 4.18194,-2.58555 c 0.10162,-0.47752 0.41734,-0.81938 0.70161,-0.75969 0.28427,0.0597 0.51685,-0.0868 0.51685,-0.32558 0,-0.23875 0.28198,-0.4341 0.62662,-0.4341 0.34464,0 0.9728,-0.58604 1.39591,-1.30232 0.80385,-1.3608 1.45032,-1.69414 1.45032,-0.74782 0,0.52413 -2.41253,2.91835 -2.94067,2.91835 -0.13572,0 -0.6267,0.34186 -1.09108,0.75968 -0.8091,0.728 -0.83661,0.72347 -0.65956,-0.10852 z m 8.16415,-7.13712 c 0,-0.22467 0.19535,-0.52922 0.43411,-0.67678 0.23876,-0.14756 0.4341,0.0362 0.4341,0.40848 0,0.37223 -0.19534,0.67678 -0.4341,0.67678 -0.23876,0 -0.43411,-0.18382 -0.43411,-0.40848 z m 1.30232,-0.87196 c 0,-0.80245 0.53935,-1.7444904 0.8787,-1.53476 0.19449,0.1202 0.61443,-0.0423 0.93319,-0.3610204 0.58988,-0.58988 3.39738,-1.33851 3.39738,-0.90592 0,0.56894 -1.24307,1.3955104 -2.5207,1.6761204 -0.76244,0.16746 -1.38625,0.4634 -1.38625,0.65765 0,0.19424 -0.29302,0.46561 -0.65116,0.60304 -0.35814,0.13743 -0.65116,0.0766 -0.65116,-0.13511 z m 5.64337,-2.8142604 c 0,-0.75108 0.50926,-1.10697 1.96064,-1.37016 1.21762,-0.22079 1.48875,0.58986 0.31842,0.95206 -0.41783,0.12932 -1.10154,0.41786 -1.51937,0.64122 -0.56088,0.29982 -0.75969,0.24143 -0.75969,-0.22312 z"
     style="fill:#000000;stroke-width:0.43410563" />
</svg>
