<?xml version="1.0" encoding="UTF-8" standalone="no"?>
<svg
   xmlns:dc="http://purl.org/dc/elements/1.1/"
   xmlns:cc="http://creativecommons.org/ns#"
   xmlns:rdf="http://www.w3.org/1999/02/22-rdf-syntax-ns#"
   xmlns:svg="http://www.w3.org/2000/svg"
   xmlns="http://www.w3.org/2000/svg"
   id="svgBG25"
   version="1.1"
   viewBox="0 0 100 100"
   height="100"
   width="100">
  <defs
     id="defs2" />
  <metadata
     id="metadata5">
    <rdf:RDF>
      <cc:Work
         rdf:about="">
        <dc:format>image/svg+xml</dc:format>
        <dc:type
           rdf:resource="http://purl.org/dc/dcmitype/StillImage" />
        <dc:title></dc:title>
      </cc:Work>
    </rdf:RDF>
  </metadata>
  <path
     id="pathBG25"
     d="M 53.103616,89.16247 C 49.606354,87.45302 44.812649,87.92202 41.14316,86.50523 35.932053,86.90205 30.520953,89.00917 25.224462,90.25472 20.727818,90.68554 16.432253,94.96336 12.287173,95 c -0.701063,-2.98506 5.817189,-4.45524 8.551405,-5.54376 5.315476,-1.80979 10.609417,-3.88826 15.937247,-5.20075 4.035156,-1.26691 7.994305,-0.29597 11.801154,-2.84068 4.305164,0.19939 8.195272,-2.92582 11.885781,-5.71948 2.814499,-2.54169 8.961583,-5.5764 7.24028,-9.15488 -2.066971,-0.69737 -8.394421,1.74377 -4.871545,-2.9529 3.217061,-3.62489 8.673985,-4.78935 10.862452,-9.36417 2.31485,-2.02616 3.879631,-7.461838 -0.798446,-4.718935 -3.088277,0.844885 -4.26061,2.573755 -6.266115,4.600785 -2.147352,0.87365 -3.49288,-0.71911 -2.428772,1.64209 -0.745938,4.68641 -5.144771,0.33516 -8.296444,2.88889 -4.102791,0.78416 -7.96756,3.43171 -10.333692,6.98076 -1.45923,1.2717 -7.03988,5.38024 -4.087648,5.53367 5.844376,-2.97184 11.875251,-2.91027 17.394461,-2.71555 4.790557,0.48063 -0.985951,5.15392 -3.329811,3.0472 -2.472403,-2.04663 -2.934785,1.49101 -4.578301,2.79025 -1.007245,-0.60862 -1.714557,3.40489 -3.620269,1.83278 -2.346375,-1.98568 -4.853262,-0.0904 -5.267376,2.85014 -3.831797,0.93005 -6.734001,-1.53674 -10.888918,0.0706 -4.159977,-0.19013 -7.148683,3.79145 -10.755443,5.86211 -1.887386,1.44632 -4.611587,2.90711 -2.103464,-0.15291 3.764836,-3.24042 6.931662,-7.22493 7.409545,-11.50671 -0.207287,-2.55155 0.935575,-7.18727 3.285906,-5.21715 -0.164672,-2.12103 -1.430736,-4.97544 2.460039,-5.20159 3.052237,-2.7082 0.28222,-6.87043 3.464245,-9.95659 2.655701,-2.02796 1.166317,4.06324 1.102583,5.71229 -0.731904,5.19715 -4.001747,10.55581 -4.057385,15.69907 4.257109,-2.74769 7.440672,-7.22977 10.580967,-10.85633 1.48576,-4.11458 0.515888,-7.87695 0.02613,-11.52913 -0.573436,-3.665487 4.342227,-0.71552 3.609106,-3.445881 0.0898,-2.063895 2.842682,-8.791813 4.184131,-4.515661 3.369459,0.977515 1.150214,-6.105627 1.92604,-8.205413 -0.747928,-2.366425 2.612171,-6.648535 3.814135,-3.239598 0.06098,4.297189 0.02684,8.817557 -2.000018,13.384427 -0.402108,2.030893 -3.238178,6.816566 -1.153485,7.211506 2.662369,-3.305597 4.828128,-6.864627 7.044111,-10.388247 -0.80121,-4.269077 3.427308,-8.887842 3.945426,-13.325482 1.326679,-2.949435 5.223719,-4.029173 7.282381,-5.613709 1.280977,2.41796 -2.144019,5.63993 0.299479,7.126797 -1.48247,4.368689 -7.924971,6.072093 -8.776219,10.911495 -0.51098,3.689956 -7.066728,7.445328 -5.285453,10.421186 3.990158,-1.98504 8.141636,-5.872728 12.44538,-5.456983 4.871623,0.229983 7.465316,-5.735113 10.227058,-9.026813 1.525622,-2.429268 5.90898,-6.776581 4.609987,-8.32847 -3.148216,0.518136 -7.197653,2.671974 -8.149164,5.945874 -2.687573,-5.091063 1.576103,-12.084272 1.085528,-17.872695 -0.29541,-2.149634 0.739307,-6.458879 -1.22783,-7.044857 -2.766674,3.24735 -4.900979,6.881548 -8.241783,9.847658 -3.209237,2.561945 -7.326658,8.75127 -11.007185,6.287812 -3.184895,-1.649582 -2.065319,-7.680499 -6.614755,-7.601868 -3.494497,3.521293 -3.547193,8.267471 -5.507627,12.287262 -2.62592,3.53979 0.372155,8.437229 -1.836488,10.82551 -3.341319,-0.600957 -1.883645,-6.948959 -5.170152,-6.110316 -1.950054,3.86875 -2.880128,7.961883 -5.014653,11.898232 -1.080606,3.982004 -2.011948,7.984664 -4.675952,11.798674 -2.449605,3.61955 -3.837253,7.48004 -6.634093,11.02581 -1.272339,3.33252 -5.922775,5.24581 -6.372777,8.75093 C 13.67604,80.92118 11.139494,85.93863 10,85.04119 c 0.64211,-4.27394 5.361462,-7.72148 7.461557,-11.75204 2.886757,-3.95997 4.246488,-8.23828 7.007182,-12.24417 2.52173,-4.24169 5.109405,-8.4539 6.266897,-12.940552 1.799585,-5.055906 3.917864,-10.128509 6.018735,-15.151416 2.115667,-3.609992 3.690899,-0.29875 5.185075,-0.291677 2.828267,-3.253177 1.715151,-7.483121 4.612786,-11.019841 0.87353,-3.37382 5.45097,-7.599372 7.305018,-3.820983 3.012927,1.080763 3.747301,8.697352 8.432336,4.316734 2.55864,-4.073478 6.695294,-6.824278 10.163601,-10.298175 3.114565,-1.48566 2.478233,-7.575459 5.464967,-6.765153 0.762708,4.248285 2.521348,8.168351 2.204002,12.810445 0.900646,3.066739 -4.284039,11.176797 1.26419,10.473817 2.580947,-0.548329 8.484834,-5.373223 8.603094,-1.737883 -2.413984,4.501456 -6.411118,8.419233 -8.997906,12.819428 -2.920689,4.811297 6.445931,3.432965 2.435501,7.812885 -3.928405,3.404961 -6.316366,7.712501 -9.933736,11.397961 -2.292045,2.33284 -7.28224,6.52015 -2.605604,7.4372 4.895266,2.3797 -2.934822,5.81382 -5.876957,7.85001 -3.372346,2.79103 -6.687863,6.72529 -11.031104,7.32591 -3.110097,2.87118 1.928066,5.66546 0.871281,8.26878 -0.672631,0.0949 -1.199584,-0.20804 -1.747325,-0.37 z M 79.774122,46.739876 c 1.700451,-4.222495 -6.814185,0.76238 -1.775543,0.07171 0.71666,-0.0195 1.017776,1.274942 1.775543,-0.07171 z M 35.703576,45.860825 c -0.03421,-3.550052 3.11429,-1.349826 0.852714,0.76742 -0.664055,0.396799 -1.074694,-0.223194 -0.852714,-0.76742 z M 48.856897,28.562526 c -2.224399,-3.174851 5.870549,-2.16305 1.414178,0.394996 -0.593307,0.211799 -1.159669,0.004 -1.414178,-0.394996 z m 24.741747,-9.076484 c 0.01778,-3.964981 4.479925,-1.759784 0.853,0.517692 -0.487617,0.156172 -0.823173,-0.140481 -0.853,-0.517692 z"
     style="fill:#000000;stroke-width:0.41393578" />
</svg>
