<?xml version="1.0" encoding="UTF-8" standalone="no"?>
<svg
   xmlns:dc="http://purl.org/dc/elements/1.1/"
   xmlns:cc="http://creativecommons.org/ns#"
   xmlns:rdf="http://www.w3.org/1999/02/22-rdf-syntax-ns#"
   xmlns:svg="http://www.w3.org/2000/svg"
   xmlns="http://www.w3.org/2000/svg"
   id="svgBG26"
   version="1.1"
   viewBox="0 0 100 100"
   height="100"
   width="100">
  <defs
     id="defs6029" />
  <metadata
     id="metadata6032">
    <rdf:RDF>
      <cc:Work
         rdf:about="">
        <dc:format>image/svg+xml</dc:format>
        <dc:type
           rdf:resource="http://purl.org/dc/dcmitype/StillImage" />
        <dc:title></dc:title>
      </cc:Work>
    </rdf:RDF>
  </metadata>
  <path
     id="pathBG26"
     d="m 88.031829,94.178897 c 0,-0.199599 -0.773065,-0.468868 -1.717931,-0.598377 -1.666801,-0.228459 -4.268312,-1.344323 -4.535456,-1.945386 -0.07243,-0.162917 -0.294566,-0.296213 -0.493683,-0.296213 -0.474844,0 -1.941839,-1.474251 -1.941839,-1.951442 0,-0.204403 -0.161681,-0.471571 -0.359297,-0.593701 -0.483867,-0.299045 -4.380109,0.619997 -4.380109,1.033174 0,0.488408 -1.361255,0.394866 -2.42403,-0.166571 -1.977098,-1.044462 -2.713507,-1.793221 -2.955976,-3.005544 -0.266387,-1.33197 -0.985493,-2.08866 -1.245009,-1.310097 -0.08524,0.255683 -0.643709,0.464877 -1.241074,0.464877 -1.289851,0 -3.774047,-2.298114 -4.58952,-4.245717 -0.573937,-1.370747 -1.132782,-1.621557 -1.644235,-0.737941 -0.173709,0.30011 -1.141385,1.099885 -2.1504,1.777276 -1.402777,0.941759 -2.269242,1.231628 -3.681497,1.231628 -1.015814,0 -2.094671,-0.222159 -2.397446,-0.493686 -1.253777,-1.124357 -1.745819,-1.481029 -2.042318,-1.480418 -0.17209,3.61e-4 -0.9682,0.666839 -1.769142,1.481065 -2.830543,2.877529 -3.906687,3.299127 -5.892484,2.308485 -0.695234,-0.346826 -1.49217,-0.630594 -1.770993,-0.630594 -0.278823,0 -1.35556,-0.779269 -2.392764,-1.731711 l -1.88583,-1.731712 -1.002377,0.926617 c -1.813915,1.676841 -2.896089,2.536806 -3.19231,2.536806 -0.160493,0 -1.003773,-0.577615 -1.873941,-1.283588 -2.027132,-1.644614 -4.032596,-4.894992 -4.032596,-6.535876 0,-1.181723 -0.09035,-1.264394 -1.382319,-1.264394 -0.760279,0 -1.38233,-0.157 -1.38233,-0.348886 0,-0.191889 -0.339094,-0.437563 -0.753537,-0.545942 -1.382401,-0.361505 -2.936508,-3.28956 -3.124366,-5.886528 -0.124453,-1.720767 -0.345905,-2.426754 -0.812515,-2.590314 -1.281596,-0.449252 -2.406843,-1.84242 -3.048538,-3.774374 -0.55591,-1.673682 -0.583868,-2.294745 -0.183782,-4.0825 0.28333,-1.266072 0.816289,-2.387771 1.333913,-2.807438 0.474122,-0.3844 1.661818,-1.755517 2.639322,-3.046922 0.977505,-1.291408 2.177159,-2.783615 2.665916,-3.316016 0.488747,-0.532396 0.888635,-1.112851 0.888635,-1.289891 0,-0.17704 0.3647,-0.661656 0.810432,-1.076928 0.678269,-0.631896 0.844084,-1.393036 1.016747,-4.667001 0.23816,-4.516001 0.119632,-4.725887 -3.209509,-5.682823 -2.478489,-0.71243 -10.242981,-0.760653 -10.935713,-0.06792 -0.263091,0.263092 -0.798251,0.478348 -1.1892554,0.478348 -0.3910041,0 -0.7109081,0.177729 -0.7109081,0.394953 0,0.217221 -0.2448331,0.39495 -0.5440684,0.39495 -0.2992353,0 -0.7653218,0.26659 -1.0357375,0.592424 -0.8291443,0.99906 -1.2344476,0.666026 -0.9613187,-0.7899 0.1699835,-0.906111 0.108059,-1.382327 -0.1795785,-1.382327 -0.8617483,0 -0.4195559,-0.816313 0.6472137,-1.194796 0.5973644,-0.211941 1.406888,-0.570595 1.7989517,-0.79701 0.3920637,-0.226416 1.9027492,-0.519972 3.3570762,-0.652348 1.454338,-0.132377 2.763985,-0.424374 2.910354,-0.648884 0.176411,-0.270603 0.475949,-0.234047 0.888635,0.108456 0.342389,0.284158 0.622527,0.343765 0.622527,0.132459 0,-0.211306 1.066363,-0.41619 2.369697,-0.455298 1.409055,-0.04227 2.369699,0.09386 2.369699,0.335832 0,0.223817 0.550763,0.406939 1.223909,0.406939 0.673145,0 1.834734,0.289858 2.581297,0.644128 0.746575,0.354271 1.456167,0.545367 1.576872,0.424659 0.441132,-0.441126 0.581901,-3.762274 0.170251,-4.016685 -0.229882,-0.142076 -0.417972,-0.612115 -0.417972,-1.044527 0,-0.432414 -0.256955,-1.283091 -0.570991,-1.890395 -1.991734,-3.851589 -2.879275,-11.989727 -1.552546,-14.235709 0.392727,-0.664835 0.810839,-1.208789 0.929134,-1.208789 0.118306,0 0.741521,-0.488752 1.384927,-1.086114 0.956533,-0.888086 1.639891,-1.122118 3.747999,-1.2835885 2.288874,-0.1753178 2.592115,-0.2956325 2.702549,-1.0722739 0.163917,-1.1526951 2.548147,-3.5088143 3.891992,-3.8460974 1.151598,-0.2890348 4.400266,1.1043333 4.759912,2.0415483 0.275737,0.7185595 1.406679,0.6283219 2.306585,-0.1840417 1.362314,-1.2298003 2.729716,-1.0832334 4.375359,0.4689755 1.387546,1.3087859 2.50937,1.8044735 2.513958,1.1108257 8.27e-4,-0.1629177 0.400971,-0.7941414 0.888647,-1.4027216 1.988137,-2.4810426 6.718041,-2.0368428 8.043035,0.7553403 0.707508,1.4909611 1.006859,1.610335 1.871077,0.7461192 0.658916,-0.6589162 2.059038,-0.7914412 2.407343,-0.2278615 0.123918,0.2005102 0.744502,0.4785948 1.379046,0.6179666 1.733954,0.3808398 4.464845,3.011892 5.877859,5.662967 1.085435,2.036487 1.361032,2.973929 1.604119,5.456409 0.02422,0.24798 0.532889,0.571348 1.130254,0.718598 2.710794,0.66821 5.85698,6.000148 5.3573,9.079233 -0.1827,1.125843 -0.0024,1.736924 0.906579,3.081851 1.402952,2.074615 2.523017,4.878532 2.523448,6.317088 1.98e-4,0.685542 -0.508588,1.648272 -1.382015,2.615045 -0.760269,0.841538 -1.38232,1.72382 -1.38232,1.960629 0,0.236804 0.701034,1.124616 1.557845,1.972915 2.909527,2.880585 3.86301,7.875309 2.322643,12.166888 -0.429197,1.195768 -0.430758,1.4894 -0.0082,1.631226 1.898709,0.638019 4.02568,5.511691 3.198096,7.328025 -0.405128,0.889188 -0.307362,1.13376 0.959922,2.401041 1.617242,1.61723 2.194799,3.69555 1.469406,5.28759 -0.381688,0.837718 -0.368554,1.119725 0.06754,1.450843 0.830996,0.630969 1.607555,2.854702 1.391529,3.984762 -0.106434,0.557016 0.02224,1.228559 0.285938,1.492306 1.429851,1.429844 1.751827,3.302311 0.81396,4.733663 -0.502766,0.767316 -0.506819,1.129481 -0.03039,2.712554 0.454757,1.511021 0.462535,2.123917 0.04495,3.543742 -0.493404,1.677742 -0.546548,1.719477 -2.339306,1.83712 -1.008955,0.06621 -1.834454,-0.04293 -1.834454,-0.242527 z m 3.169091,-2.276279 c 0.50648,-1.534675 0.0012,-3.456803 -1.064686,-4.053541 -0.705226,-0.394663 -0.295137,-1.538762 0.660243,-1.841986 1.128322,-0.358114 1.213814,-1.222166 0.261276,-2.64042 -0.575625,-0.857072 -1.257935,-1.353018 -1.976039,-1.436321 -1.34182,-0.155653 -1.31045,-1.386066 0.04029,-1.57877 1.675313,-0.239021 0.697588,-2.467722 -1.583846,-3.610305 -1.387314,-0.694797 -1.468905,-1.990269 -0.125351,-1.990269 1.287791,0 1.589669,-1.12006 0.813763,-3.019317 -0.681553,-1.668281 -2.484697,-3.278028 -2.906815,-2.595036 -0.380757,0.616082 -1.779761,-0.540967 -1.508577,-1.247669 0.122579,-0.319422 0.633625,-0.638985 1.135657,-0.71014 0.785955,-0.111389 0.908803,-0.348879 0.884047,-1.709172 -0.03563,-1.95737 -1.857337,-5.052804 -2.85537,-4.851762 -1.339013,0.269735 -1.643081,-0.584574 -0.733137,-2.059869 1.199201,-1.944272 1.246197,-8.234345 0.07593,-10.16997 -0.426811,-0.705973 -0.89228,-1.283589 -1.034375,-1.283589 -0.545501,0 -3.52083,-2.8876 -3.52083,-3.417026 0,-0.306499 0.292842,-0.669643 0.650765,-0.806992 0.869492,-0.333653 2.823581,-2.405163 3.104884,-3.291438 0.288685,-0.909579 -1.085948,-4.841723 -2.03844,-5.830927 -0.401403,-0.416891 -1.218589,-1.070631 -1.815953,-1.452756 -1.166457,-0.746166 -1.458601,-1.788775 -0.501205,-1.788775 0.849195,0 1.170194,-1.807004 0.63706,-3.586418 -0.489411,-1.633516 -3.651724,-5.10249 -4.651411,-5.10249 -0.842559,0 -1.737971,-1.034091 -1.479234,-1.708333 0.235476,-0.613653 -0.625563,-3.910161 -1.428356,-5.46848 C 69.628753,13.462001 68.196503,12.176793 65.637341,10.519631 62.935583,8.7701414 63.049488,8.7578485 60.581687,11.065264 58.960405,12.581176 57.8157,12.105754 58.901321,10.367377 59.48639,9.4305446 59.001694,8.4105281 57.687053,7.8120074 57.216065,7.5975798 56.83072,7.286557 56.83072,7.1208434 c 0,-0.4898421 -1.774475,-0.344669 -3.232284,0.2644375 -1.247967,0.5214354 -2.242169,1.8731737 -2.851876,3.8774581 -0.327333,1.076048 -0.922043,0.817335 -1.391588,-0.605372 -0.538631,-1.6320779 -1.585663,-2.53887 -3.303641,-2.8611657 -1.398807,-0.2624171 -2.648927,0.4815806 -2.648927,1.5764781 0,1.2703716 -1.198408,0.9033116 -2.268905,-0.6949378 C 40.20744,7.2951377 39.776531,6.9965766 38.560353,6.8949311 37.301546,6.7897251 36.873559,6.9965746 35.465192,8.3909412 34.072895,9.769395 33.865498,10.18231 34.064814,11.178947 c 0.263824,1.319106 -0.44607,1.598529 -1.467125,0.577479 -0.659719,-0.659727 -3.808444,-0.822994 -3.808444,-0.197475 0,0.217222 -0.260459,0.39495 -0.578815,0.39495 -1.032476,0 -2.913451,2.22845 -3.208505,3.801226 -0.424936,2.265096 0.416271,7.455288 1.782894,11.000404 0.667987,1.732826 1.214524,3.376807 1.214524,3.65329 0,0.959842 0.782265,0.495606 1.315853,-0.780891 0.649123,-1.552907 1.659069,-2.494366 2.03072,-1.893013 0.141513,0.228969 -0.393543,1.210568 -1.189012,2.181329 -0.795469,0.970761 -1.585849,2.34717 -1.756415,3.058686 -0.170555,0.711515 -0.435614,1.597245 -0.589015,1.96829 -0.214768,0.519488 -0.02096,0.732575 0.843129,0.926619 0.617101,0.138599 2.191307,0.768087 3.498217,1.398865 1.306921,0.630777 2.639867,1.152521 2.962135,1.159429 0.322257,0.0069 0.930916,0.2735 1.352568,0.592426 0.421652,0.318925 1.088137,0.579865 1.481062,0.579865 0.392925,0 0.714413,0.14974 0.714413,0.332757 0,0.183016 0.62205,0.667751 1.38233,1.077189 0.76028,0.409437 1.38233,0.881744 1.38233,1.049567 0,0.167826 0.327915,0.30514 0.728689,0.30514 0.400774,0 1.050363,0.355455 1.443533,0.7899 0.393169,0.434445 0.953902,0.789901 1.246068,0.789901 0.292167,0 0.531213,0.139409 0.531213,0.309794 0,0.17039 0.577605,0.650251 1.283587,1.066362 0.705971,0.416109 1.461325,0.904252 1.678538,1.084759 2.105511,1.749635 3.065759,2.701464 2.8963,2.870915 -0.111321,0.111365 -0.61362,-0.154099 -1.11613,-0.589923 -0.502511,-0.435824 -1.076889,-0.792404 -1.27639,-0.792404 -0.199491,0 -0.59485,-0.222159 -0.87854,-0.493688 -0.283713,-0.271529 -0.914846,-0.760278 -1.402522,-1.086113 -0.487663,-0.325834 -1.131488,-0.827279 -1.430712,-1.114325 -0.451892,-0.433506 -0.544033,-0.424975 -0.544033,0.05038 0,0.314751 0.276866,0.802049 0.61525,1.082883 1.073115,0.890616 3.06287,6.251053 3.543362,9.545882 0.149442,1.024811 0.518986,2.068506 0.821202,2.319323 0.302216,0.250821 0.555142,0.834161 0.562047,1.296313 0.007,0.462156 0.257211,1.162987 0.556214,1.557409 0.464771,0.613073 0.662095,0.643157 1.359973,0.207324 0.703875,-0.439576 0.89887,-0.402352 1.415703,0.270253 0.985969,1.28313 1.138941,2.483934 0.450332,3.534881 -0.353044,0.538818 -0.877143,0.87955 -1.176308,0.764755 -0.643487,-0.246932 -3.013418,-3.808978 -3.013418,-4.529224 0,-0.27739 -0.133106,-0.371246 -0.295776,-0.208574 -0.162671,0.162672 -0.236321,1.327637 -0.163673,2.588809 0.0786,1.364537 -0.04145,2.400335 -0.296662,2.558018 -0.235809,0.145737 -0.428743,0.90835 -0.428743,1.694692 0,1.581347 -0.770947,4.052974 -1.264187,4.052974 -0.173594,0 -0.315619,0.299569 -0.315619,0.665708 0,1.018952 -1.599008,2.493895 -2.703656,2.493895 -1.863485,0 -2.926085,-1.804035 -2.190957,-3.719727 0.304416,-0.79332 1.971671,-0.817018 2.272782,-0.0323 0.203403,0.530043 -0.187718,0.77242 -1.031452,0.639195 -0.467822,-0.07386 -0.344952,0.931368 0.177726,1.454042 1.242575,1.242573 2.230396,0.218376 3.638426,-3.77242 0.550927,-1.561499 1.260414,-6.323794 1.044296,-7.009725 -0.06835,-0.217222 -0.168005,-1.639043 -0.221266,-3.159601 -0.121508,-3.468684 -0.698495,-6.345482 -1.749031,-8.720402 -0.449168,-1.015403 -0.816663,-2.056676 -0.816663,-2.313939 0,-0.257259 -0.325237,-0.816844 -0.72275,-1.24352 -0.397501,-0.426678 -1.058268,-1.304395 -1.468358,-1.950488 -1.076189,-1.695516 -2.27553,-2.9373 -2.844505,-2.945163 -0.271534,-0.004 -0.493695,-0.181168 -0.493695,-0.394252 0,-0.213083 -0.444312,-0.498941 -0.987367,-0.63524 -0.543068,-0.136299 -0.987379,-0.406276 -0.987379,-0.599951 0,-0.193673 -0.266596,-0.352134 -0.592428,-0.352134 -0.325843,0 -0.592427,-0.177727 -0.592427,-0.39495 0,-0.217223 -0.177727,-0.39495 -0.394951,-0.39495 -0.744863,0 -0.393659,0.789427 1.009921,2.270048 0.77267,0.81509 2.166354,2.998941 3.097059,4.853008 2.695622,5.369969 2.674266,9.859808 -0.04693,9.859808 -0.443101,0 -1.672495,0.954456 -2.82662,2.194489 -1.945705,2.090549 -2.244067,2.939866 -1.032768,2.939866 0.769782,0 2.563971,2.462535 2.563971,3.519058 0,1.203339 -0.697681,2.405197 -1.396223,2.405197 -0.670153,0 -0.738749,0.54246 -0.196683,1.555318 0.489783,0.915172 -0.109224,3.081888 -1.058153,3.827515 -1.727805,1.357638 -2.010307,1.381007 -3.05642,0.252816 -1.223211,-1.319174 -1.268321,-2.076471 -0.17923,-3.00898 0.99135,-0.848824 1.503665,-0.523344 0.842547,0.535283 -0.510055,0.816725 -0.267097,1.972402 0.414642,1.972402 0.775697,0 1.864859,-1.298426 1.864859,-2.223148 0,-0.503727 -0.727163,-2.357991 -1.615927,-4.120588 -1.610162,-3.193292 -1.613202,-3.207759 -0.84951,-4.058532 0.421513,-0.469597 1.160565,-1.689816 1.642324,-2.711596 0.48176,-1.02178 1.219509,-1.966825 1.639425,-2.100104 0.849767,-0.269704 1.042538,-0.978996 0.266072,-0.978996 -0.273571,0 -0.742103,-0.391815 -1.041175,-0.8707 -0.499983,-0.800596 -0.43729,-0.959591 0.778713,-1.974751 1.512222,-1.262466 1.785292,-1.319924 2.56538,-0.539838 0.927387,0.927387 0.647155,1.410537 -0.818117,1.410537 -0.965429,0 -1.382319,0.178668 -1.382319,0.592426 0,0.958343 3.020462,0.800472 3.548113,-0.18545 0.526043,-0.982932 -0.434519,-5.460074 -1.761725,-8.211218 -0.829564,-1.719614 -4.518525,-6.579918 -5.531137,-7.287432 -0.221231,-0.15457 -0.735036,-0.510025 -1.141783,-0.789901 -0.406759,-0.279875 -0.948242,-0.707575 -1.203287,-0.950445 -0.847577,-0.807129 -2.204139,-1.054266 -2.204139,-0.401549 0,0.325834 0.346931,0.70254 0.770958,0.837122 0.424039,0.134581 1.2669,1.257356 1.873056,2.495053 1.426264,2.912304 1.530865,7.086344 0.255942,10.212546 -0.457109,1.120861 -0.840882,2.745221 -0.852806,3.609693 -0.0163,1.179996 -0.488455,2.296323 -1.894376,4.478749 -1.508357,2.341437 -1.898022,3.307384 -2.002925,4.965074 -0.108409,1.712813 -0.0012,2.126927 0.636512,2.468439 0.99822,0.534226 1.213639,0.517489 1.213639,-0.09429 0,-0.27756 -0.372362,-0.823468 -0.827456,-1.213134 -0.933686,-0.799455 -0.780936,-1.234525 0.311696,-0.887734 0.92061,0.292188 2.273725,2.756394 1.961028,3.571275 -0.575788,1.500479 -3.625873,-0.182025 -4.601981,-2.538571 -0.598097,-1.44392 0.161216,-3.751515 2.347411,-7.13398 0.879552,-1.360853 1.599205,-2.713316 1.599205,-3.005473 0,-0.691716 -0.698787,-0.678735 -1.403604,0.02606 -0.549437,0.549435 -1.91239,0.433636 -2.736284,-0.23248 C 25.61307,54.75454 25.018663,54.293542 24.5133,53.908885 23.790097,53.358422 23.651297,52.983043 23.861406,52.1459 c 0.146811,-0.584984 0.595839,-1.167997 0.997836,-1.295586 0.803445,-0.254992 3.140083,0.785805 3.140083,1.398674 0,0.581931 -1.052306,0.46093 -1.709849,-0.196608 -0.925466,-0.92547 -1.617452,0.166236 -0.823683,1.299494 1.307563,1.86682 3.798185,0.653437 5.527376,-2.692831 0.732241,-1.416996 1.006487,-5.530959 0.500252,-7.504056 -0.727036,-2.833677 -3.029057,-5.69751 -5.436365,-6.763084 -0.669536,-0.296366 -1.217342,-0.662298 -1.217342,-0.813184 0,-0.150887 -0.801954,-0.3946 -1.782126,-0.541586 -0.980171,-0.146987 -1.879309,-0.424468 -1.998058,-0.616625 -0.304195,-0.492197 -8.068326,-0.448344 -8.068326,0.04558 0,0.217223 -0.671364,0.39495 -1.491915,0.39495 -1.471327,0 -3.2474793,0.876293 -3.2474793,1.602197 0,0.47716 1.0762829,0.489022 1.250668,0.01378 0.072427,-0.197324 0.4871162,-0.419484 0.9215533,-0.493687 0.434449,-0.07421 0.902736,-0.290018 1.04064,-0.479587 0.266456,-0.366296 7.694113,-0.568292 9.524284,-0.259014 0.597364,0.100942 1.08611,0.322506 1.08611,0.492352 0,0.169843 0.429919,0.308807 0.955369,0.308807 0.525449,0 1.496479,0.310554 2.157841,0.690119 1.163871,0.66797 1.206082,0.791562 1.315596,3.850766 0.172941,4.831827 -0.773158,7.493986 -3.729717,10.494732 -0.948207,0.962376 -2.064896,2.327387 -2.481552,3.033361 -0.416645,0.705975 -0.882464,1.28359 -1.035121,1.28359 -0.15268,0 -0.647551,0.598593 -1.099711,1.330204 -1.371978,2.219925 -1.067538,6.661904 0.568766,8.298198 0.685325,0.685322 2.103147,0.540983 2.621529,-0.266881 0.164534,-0.256423 0.497677,-0.168464 0.905123,0.238986 0.596375,0.59637 0.569418,0.710252 -0.35911,1.5176 -1.099024,0.955594 -1.276356,2.329232 -0.604165,4.679905 0.738133,2.581293 5.109835,4.69352 5.722034,2.764653 0.13788,-0.434445 0.594185,-0.789901 1.013986,-0.789901 0.883721,0 0.942269,0.323859 0.228392,1.263225 -0.797356,1.049209 -0.18695,5.063071 0.978377,6.433587 1.718536,2.021151 2.855778,2.928122 3.322562,2.649821 1.078786,-0.643182 2.948117,-2.429422 2.948117,-2.817077 0,-0.231248 0.165756,-0.42045 0.368332,-0.42045 0.202588,0 0.481154,-0.355456 0.619047,-0.7899 0.413862,-1.303956 1.381409,-0.960098 1.389153,0.493687 0.01164,2.103849 3.510816,4.640667 6.401969,4.640667 1.35712,0 3.938814,-2.294042 4.444735,-3.949503 0.612525,-2.004306 1.784874,-2.671365 1.784874,-1.015587 0,1.765061 2.94205,3.636754 4.780569,3.04133 2.906091,-0.94117 3.499648,-1.353 4.283403,-2.972044 0.445383,-0.920036 0.809792,-1.883269 0.809792,-2.14052 0,-0.257255 0.177726,-0.467732 0.394951,-0.467732 0.217213,0 0.394952,-0.239047 0.394952,-0.531213 0,-0.292168 0.359646,-0.856698 0.799229,-1.254507 1.110635,-1.005118 1.715731,-0.328662 1.152146,1.288035 -0.335658,0.962877 -0.283783,1.746122 0.239034,3.609444 0.738727,2.632825 1.382738,3.39609 3.130583,3.71034 0.966664,0.173798 1.397968,-0.02639 2.441915,-1.133282 0.697343,-0.73941 1.393567,-1.344371 1.547155,-1.344371 0.153589,0 0.182502,0.93743 0.06416,2.08318 -0.303077,2.93655 0.40811,4.487786 2.150773,4.691233 1.964663,0.229359 4.401896,-0.557631 4.860275,-1.569391 0.448573,-0.990164 0.992455,-1.137109 0.992455,-0.268143 0,0.325833 0.236554,0.592425 0.525682,0.592425 0.289129,0 0.763482,0.444318 1.054124,0.987377 0.290619,0.543056 0.809418,0.990095 1.152844,0.993422 0.538305,0.0053 0.544302,0.05671 0.04343,0.373477 -0.319555,0.202084 -0.497281,0.438798 -0.394963,0.526025 0.593965,0.506355 4.729462,2.28076 5.814083,2.494634 0.705983,0.139207 1.283598,0.396814 1.283598,0.572456 0,0.32038 1.938218,0.701057 2.439622,0.479153 0.147067,-0.06508 0.475331,-0.748363 0.729456,-1.518393 z m -6.460341,-3.196701 c -0.479444,-0.479438 -0.272944,-1.71145 0.286868,-1.71145 0.517485,0 1.029624,0.801868 1.029624,1.612104 0,0.41884 -0.927049,0.488798 -1.316492,0.09934 z M 72.247708,85.440629 c -0.601452,-1.123832 -0.501602,-1.605766 0.332701,-1.605766 1.129486,0 1.848382,1.036051 1.233213,1.777277 -0.657379,0.792089 -1.074664,0.746386 -1.565914,-0.171511 z m 14.8708,-0.675984 c -0.559066,-0.559061 -0.242714,-1.324732 0.547328,-1.324732 0.552127,0 0.77727,0.214479 0.69116,0.658435 -0.140978,0.726897 -0.815171,1.089611 -1.238488,0.666297 z M 65.914604,81.572237 c -0.887168,-0.337717 -1.191829,-1.005094 -0.718943,-1.574893 0.605924,-0.730097 1.244963,-0.625222 1.822182,0.299033 0.756205,1.210878 0.25345,1.792301 -1.103239,1.27586 z m -24.421109,-0.73311 c -0.413454,-0.467914 -0.424283,-0.719304 -0.05042,-1.169828 0.610802,-0.735986 1.959318,-0.745426 1.959318,-0.01371 0,1.691284 -0.943456,2.276222 -1.908955,1.183544 z M 53.49607,79.79748 c -0.760896,-1.086338 -0.797971,-2.281821 -0.0708,-2.281821 0.629014,0 1.088533,0.54759 1.739962,2.073488 0.413664,0.968936 0.381794,1.086113 -0.295346,1.086113 -0.417483,0 -1.035715,-0.395001 -1.373865,-0.87778 z M 32.442576,79.689526 c -0.271533,-0.308404 -0.493695,-0.669793 -0.493695,-0.803087 0,-0.382301 1.088393,-1.370787 1.509335,-1.370787 0.546571,0 0.918339,1.169888 0.645234,2.030393 -0.27512,0.866809 -0.971101,0.926937 -1.660874,0.143481 z m 46.702867,-1.773308 c -2.163161,-1.412086 -2.670224,-1.779411 -3.006349,-2.177835 -0.183246,-0.217224 -1.089464,-1.254644 -2.013823,-2.305382 -0.924349,-1.050733 -2.356121,-2.82801 -3.181714,-3.949503 -1.473772,-2.001963 -3.140364,-4.057115 -4.959286,-6.11551 -1.340375,-1.516839 -0.237787,-1.644 1.172314,-0.135204 0.653036,0.69875 1.381853,1.127206 1.705914,1.002851 0.506074,-0.194196 2.867806,0.845794 3.371318,1.484562 0.10864,0.137788 0.538198,0.315514 0.954646,0.394951 1.170904,0.223341 1.250005,1.131802 0.09851,1.131802 -0.543056,0 -1.046626,-0.133296 -1.11903,-0.296212 -0.205161,-0.461616 -2.699511,-1.762542 -2.693246,-1.404658 0.0035,0.175201 0.714471,1.207182 1.580889,2.293295 0.866417,1.086114 2.063569,2.587688 2.660328,3.336828 0.59677,0.749143 1.848556,2.151264 2.781754,3.11582 l 1.696714,1.753746 0.787109,-0.844855 c 0.923731,-0.991512 0.905286,-0.988344 2.045286,-0.35117 1.076866,0.601888 1.463597,1.097606 1.463597,1.876013 0,1.659831 -1.699429,2.26465 -3.344978,1.190461 z m 2.172234,-1.005379 c 0,-0.332655 -0.278543,-0.711708 -0.618976,-0.842346 -0.74279,-0.285035 -1.552815,0.413888 -1.179569,1.017804 0.402335,0.650995 1.798545,0.51479 1.798545,-0.175458 z m 2.900945,1.18021 c -0.128646,-0.335201 -0.13073,-0.712611 -0.0046,-0.838691 0.398515,-0.398521 1.448156,0.212727 1.448156,0.843332 0,0.788337 -1.140629,0.784676 -1.443521,-0.0045 z M 67.446261,74.356056 c -0.931801,-0.868891 -1.816046,-1.579801 -1.964989,-1.579801 -0.363511,0 -1.541414,-2.987235 -1.541414,-3.909136 0,-0.403454 -0.246125,-0.937815 -0.546944,-1.187474 -0.435998,-0.361841 -0.596888,-0.254943 -0.79314,0.52697 -0.380815,1.517309 -1.837145,3.779738 -2.433007,3.779738 -0.594652,0 -2.546109,-1.810302 -2.546109,-2.36194 0,-0.193211 0.178017,-0.819503 0.39558,-1.391762 0.287754,-0.756844 0.629224,-1.006093 1.252648,-0.914349 1.130766,0.1664 1.436476,1.113499 0.359424,1.113499 -1.003354,0 -1.06706,0.882618 -0.131638,1.824015 0.659242,0.663457 0.696876,0.637399 0.814926,-0.564218 0.06812,-0.69289 0.272826,-1.259797 0.455048,-1.259797 0.510242,0 1.087508,-2.034271 0.952632,-3.357079 -0.300039,-2.942818 -1.992457,-6.958626 -3.709259,-8.801391 -1.389736,-1.491705 -0.897391,-2.213761 0.65788,-0.964846 0.845912,0.679283 3.297202,5.181327 3.297202,6.055652 0,0.2524 0.62205,1.679506 1.38233,3.17134 0.76028,1.491835 1.38233,3.057177 1.38233,3.478541 0,0.421365 0.177727,0.875957 0.394951,1.010208 0.217213,0.134251 0.401333,0.633492 0.409159,1.109424 0.0082,0.47593 0.419159,1.360079 0.914089,1.96477 l 0.899907,1.09944 0.726906,-0.803227 c 1.745109,-1.928329 4.134159,0.298173 3.129419,2.916496 -0.418648,1.090951 -1.992807,0.690878 -3.757931,-0.955073 z m 3.13821,-0.532196 c 0.154356,-0.790406 -0.999349,-1.321544 -1.58925,-0.731646 -0.604049,0.604053 -0.09862,1.614905 0.745725,1.491381 0.393577,-0.05758 0.773158,-0.399461 0.843525,-0.759735 z m 13.498181,-0.849534 c -0.290468,-0.54273 -0.400844,-1.11406 -0.245275,-1.269619 0.452544,-0.452555 1.615612,0.481425 1.75348,1.408095 0.175992,1.182916 -0.851513,1.088575 -1.508205,-0.138476 z m -6.54212,-2.760596 c -0.668569,-1.241459 -0.689808,-1.467639 -0.171485,-1.826943 0.445022,-0.308494 0.469254,-0.459693 0.09781,-0.610391 -0.271521,-0.110178 -0.493684,-0.443414 -0.493684,-0.740524 0,-0.433563 0.292366,-0.407577 1.481062,0.131649 0.814589,0.36952 1.924676,0.985796 2.466846,1.369506 0.936878,0.663038 0.955859,0.751219 0.382633,1.777277 -0.414561,0.742043 -0.977912,1.116627 -1.801677,1.197959 -1.022789,0.100995 -1.310403,-0.08942 -1.961553,-1.298533 z m 2.59229,-0.573769 c 0,-0.995748 -0.677174,-1.398436 -1.376147,-0.818337 -0.719128,0.596814 -0.327286,1.584928 0.628502,1.584928 0.476765,0 0.747645,-0.27774 0.747645,-0.766591 z m -56.770591,0.510743 c -0.376495,-0.155598 -0.360134,-0.332593 0.07056,-0.763265 0.796901,-0.796899 1.890022,-0.717214 1.727642,0.125942 -0.136378,0.708208 -0.938647,0.992557 -1.798171,0.637323 z m 58.003572,-4.840769 c -0.715438,-0.452664 -0.215397,-1.222587 0.794037,-1.222587 0.530363,0 0.752979,0.219476 0.667858,0.658432 -0.155672,0.802673 -0.732857,1.025414 -1.461895,0.564155 z m -5.680208,-2.225947 c -0.59514,-0.551849 -1.082081,-1.185578 -1.082081,-1.408291 0,-0.77607 0.821657,-1.932804 1.372909,-1.932804 0.910433,0 1.127774,0.804526 0.36753,1.360426 -0.653328,0.477728 -0.658602,0.567734 -0.06777,1.158571 1.14608,1.146087 2.974503,0.430614 2.277358,-0.891142 -0.185796,-0.352264 -0.423561,-0.924092 -0.52836,-1.27073 C 77.920374,59.75338 76.98831,58.909172 75.953889,58.224005 74.422569,57.209701 73.66378,56.97501 71.869882,56.960862 65.8833,56.913642 63.390523,56.712577 63.24129,56.264881 c -0.0864,-0.25932 -0.573983,-0.471491 -1.083421,-0.471491 -0.509438,0 -1.177437,-0.251185 -1.484439,-0.558188 -0.92783,-0.927825 -3.494374,-2.163774 -4.050285,-1.950457 -0.286671,0.110014 -0.855833,-0.12475 -1.264793,-0.521683 -0.408947,-0.396937 -1.345592,-1.210452 -2.081419,-1.807815 -0.735826,-0.597362 -1.138568,-1.086113 -0.894993,-1.086113 0.243588,0 0.709464,0.266592 1.035308,0.592427 0.32583,0.325833 0.788423,0.592425 1.027981,0.592425 0.239547,0 0.537851,0.266591 0.662888,0.592425 0.270089,0.703837 1.589761,0.793542 1.813192,0.123252 0.110854,-0.332741 0.433156,-0.275316 1.108165,0.197475 0.52347,0.366657 1.267681,0.666649 1.653806,0.666649 0.386102,0 0.702023,0.176449 0.702023,0.392106 0,0.215659 0.710897,0.364251 1.579795,0.330206 0.868886,-0.03405 1.579794,-0.210496 1.579794,-0.392106 0,-0.181613 0.368495,-0.330206 0.818863,-0.330206 0.567274,0 0.777966,0.212352 0.685755,0.691163 -0.137216,0.712498 -0.228635,0.745161 -2.393254,0.855084 l -1.283586,0.06519 1.184855,0.650116 c 0.842325,0.462174 2.526394,0.700026 5.825517,0.822765 2.944087,0.109527 4.640662,0.32812 4.640662,0.597911 0,0.292947 0.137962,0.287303 0.443392,-0.01813 0.493404,-0.493392 2.321268,0.118197 2.321268,0.776678 0,0.200456 0.198932,0.298156 0.442065,0.217111 0.718919,-0.239643 2.626675,1.813222 3.338643,3.592592 0.624158,1.559923 0.621852,1.694348 -0.04145,2.427238 -0.964637,1.065909 -2.548345,0.972131 -3.842096,-0.227502 z M 19.763373,58.997172 c -0.422897,-0.267982 -0.437755,-0.519364 -0.07114,-1.204302 0.353696,-0.660888 0.587234,-0.762748 0.987379,-0.430659 0.288266,0.239234 0.432865,0.783894 0.321347,1.210354 -0.223488,0.85464 -0.441085,0.929298 -1.237532,0.424607 z m 45.35348,-6.76937 c -0.771843,-1.083945 -0.817803,-1.356401 -0.369998,-2.19314 0.728351,-1.360923 2.804578,-1.337452 3.54179,0.04004 0.471093,0.88024 0.439677,1.120252 -0.271336,2.073489 -1.118517,1.499567 -1.874581,1.520321 -2.900456,0.07962 z m 2.377556,-1.413547 c 0,-0.323548 -0.406711,-0.55017 -0.987367,-0.55017 -1.063602,0 -1.250387,0.368915 -0.544312,1.074999 0.550962,0.550948 1.531679,0.2149 1.531679,-0.524829 z m 5.969639,0.828455 c -1.032023,-0.566729 -1.609766,-1.305279 -1.61914,-2.069788 -0.0093,-0.780564 1.10006,-0.574095 1.362744,0.25357 0.260809,0.821731 1.445921,1.289798 2.155431,0.851296 0.493067,-0.304737 0.163754,-1.598554 -0.406875,-1.598554 -0.193971,0 -0.352694,-0.253732 -0.352694,-0.563851 0,-0.310119 -0.710909,-0.877504 -1.579795,-1.26086 -0.868898,-0.383353 -1.579806,-0.840528 -1.579806,-1.01595 0,-0.175416 -0.255022,-0.318941 -0.566717,-0.318941 -1.302613,0 -2.577117,-0.766378 -2.332913,-1.402798 0.134701,-0.351004 0.353463,-0.481289 0.48615,-0.28953 0.132687,0.191765 1.055289,0.695417 2.050213,1.119229 1.886412,0.803559 4.303001,2.51852 4.309196,3.058051 0.0012,0.172 0.359028,0.694263 0.793478,1.160585 0.973207,1.04462 1.007173,1.729168 0.09874,1.990372 -0.380128,0.109293 -0.957744,0.290017 -1.283586,0.401593 -0.325832,0.111576 -1.016315,-0.02991 -1.534417,-0.314424 z m 4.161104,0.01635 c -0.12237,-0.318878 -0.06859,-0.674909 0.119575,-0.791183 0.53735,-0.332106 1.598193,0.212712 1.598193,0.82079 0,0.732691 -1.43473,0.707964 -1.717768,-0.02962 z M 52.258154,45.867985 c -1.548332,-0.180954 -3.055419,-0.676186 -4.245724,-1.395157 -1.937891,-1.170527 -2.309915,-1.660984 -1.154171,-1.521594 1.050176,0.126661 3.258332,1.126386 3.258332,1.475182 0,0.1696 0.408785,0.308362 0.908384,0.308362 0.499622,0 1.103321,0.194932 1.341575,0.433177 0.238242,0.238247 1.384589,0.40185 2.547425,0.363557 3.17639,-0.1046 3.496574,-0.149134 3.496574,-0.486417 0,-0.170674 0.233212,-0.310317 0.518241,-0.310317 0.606878,0 3.358101,-1.342168 4.235674,-2.066337 0.333795,-0.275461 0.998057,-1.058329 1.476101,-1.739703 0.742768,-1.058666 0.806846,-1.417709 0.440551,-2.468439 -0.464305,-1.331916 -0.954553,-1.496093 -2.029893,-0.679789 -0.828352,0.628806 -0.907137,1.424964 -0.141001,1.424964 0.302601,0 0.652465,0.26659 0.777503,0.592424 0.298373,0.777546 -0.199689,0.748414 -1.688111,-0.09874 -1.739996,-0.990331 -1.659266,-2.298004 0.162974,-2.639857 0.760269,-0.142628 1.382319,-0.429001 1.382319,-0.636379 0,-0.20738 0.317144,-0.377055 0.704748,-0.377055 0.849253,0 2.059901,1.918423 2.059901,3.264164 0,0.999378 -1.612457,3.690419 -2.678237,4.469742 -0.331129,0.24212 -0.48105,0.635993 -0.333167,0.875269 0.147882,0.239277 -0.05438,0.608057 -0.449493,0.819511 -0.942781,0.504565 -7.541922,0.749714 -10.590505,0.39343 z m 12.075794,-0.738786 c -0.342028,-0.211386 -0.353801,-0.372703 -0.04134,-0.565838 0.240432,-0.148583 0.60257,-0.1679 0.804784,-0.04292 0.202216,0.124978 0.479293,0.0466 0.61574,-0.174165 0.353382,-0.571783 1.780064,-0.498115 1.787295,0.0923 0.0046,0.335704 0.142434,0.304104 0.432214,-0.09873 0.354429,-0.492706 0.386637,-0.470651 0.191433,0.13104 -0.129113,0.397904 -0.237463,0.842224 -0.240793,0.987376 -0.0035,0.145149 -0.173046,-2.33e-4 -0.377171,-0.323074 -0.300295,-0.474935 -0.592823,-0.503308 -1.532449,-0.148636 -0.638724,0.241091 -1.376612,0.305289 -1.639738,0.142665 z m 5.135219,-1.522557 c 0,-0.233126 0.399877,-0.634834 0.888635,-0.892683 0.488747,-0.257847 1.411022,-0.974902 2.049479,-1.593455 L 73.568126,39.99586 72.7035,39.190332 c -1.506702,-1.4037 -0.778165,-4.334217 1.074781,-4.32326 1.334916,0.0079 1.763926,0.321031 2.554947,1.864926 0.642498,1.254028 0.63409,1.302715 -0.438583,2.538448 -1.366482,1.574193 -2.06146,2.267867 -3.387711,3.381329 -1.211183,1.016855 -3.037767,1.591006 -3.037767,0.954867 z m 5.924249,-5.695612 c 0,-0.2775 -0.293471,-0.923549 -0.652174,-1.435662 l -0.652186,-0.931118 -0.550193,1.050078 c -0.3026,0.577543 -0.442949,1.223593 -0.31188,1.435665 0.35154,0.568798 2.166433,0.469139 2.166433,-0.118963 z m -30.71263,3.745761 c -1.466518,-0.111087 -1.610302,-0.201023 -1.114325,-0.697002 0.663492,-0.663491 1.684652,-0.750225 1.881463,-0.159805 0.09315,0.279608 0.82458,0.265775 2.303872,-0.04357 3.116307,-0.651675 3.989478,-1.124063 3.560246,-1.926089 -0.192737,-0.360132 -0.229533,-0.827041 -0.08174,-1.037575 0.529956,-0.755105 2.500626,-1.793192 3.155466,-1.662199 0.501614,0.100341 0.314839,0.376647 -0.750672,1.110563 -0.780122,0.537344 -1.342927,1.199148 -1.250668,1.470677 0.429406,1.26389 2.866559,-0.237828 2.866559,-1.766313 0,-0.494781 0.165757,-0.899603 0.368333,-0.899603 0.512955,0 0.917233,1.437845 0.638538,2.270966 -0.229451,0.685889 -2.753098,2.073488 -3.771078,2.073488 -0.291875,0 -0.811258,0.245875 -1.154194,0.546387 -0.664517,0.582303 -3.878031,0.930177 -6.651774,0.720076 z m -7.19554,-3.515719 c -0.321965,-0.136067 -0.802443,-0.464458 -1.067747,-0.729759 -0.379849,-0.379853 0.26209,-0.474308 3.020637,-0.444455 1.926643,0.02084 3.917808,-0.158594 4.424812,-0.398765 0.506993,-0.240175 1.511477,-0.697784 2.232154,-1.016914 1.114081,-0.493329 1.22908,-0.662409 0.767803,-1.128882 -1.181606,-1.194917 -1.113335,-2.65856 0.133629,-2.864865 0.30408,-0.05031 0.939894,-0.304449 1.412921,-0.564752 0.814448,-0.448198 2.095066,-0.291894 2.108131,0.257309 0.0035,0.139676 0.17173,0.515932 0.374213,0.836122 0.301587,0.476901 0.639703,0.31235 1.86997,-0.910046 1.98752,-1.974815 5.023225,-4.576297 5.169489,-4.430037 0.276797,0.276791 -1.622738,2.980641 -2.093984,2.980641 -0.286275,0 -0.579734,0.133296 -0.652151,0.296213 -0.07243,0.162918 -1.241783,1.184851 -2.598612,2.270965 -1.356829,1.086113 -2.467626,2.108047 -2.468441,2.270964 -7.92e-4,0.162916 -0.233538,0.296212 -0.51717,0.296212 -0.283632,0 -1.11507,0.442207 -1.847648,0.982682 -0.732567,0.540474 -1.966759,1.087503 -2.742641,1.215622 -0.775883,0.128119 -1.677281,0.339823 -2.003123,0.470454 -0.325831,0.130632 -0.859024,0.276612 -1.184843,0.324401 -3.078848,0.451562 -3.830184,0.501257 -4.337399,0.28689 z m 11.91408,-5.058993 c 0.549447,-1.205929 0.269436,-1.552144 -0.998057,-1.234024 -1.119798,0.281053 -1.701559,1.421215 -0.963962,1.889233 0.889624,0.564478 1.499006,0.360974 1.962019,-0.655209 z m -18.050883,1.765992 c -0.362418,-0.586422 0.03703,-0.91165 2.098233,-1.708425 2.817805,-1.089239 5.736776,-4.615142 5.536378,-6.687534 -0.106778,-1.104476 -0.284157,-1.283027 -1.379898,-1.389177 -1.570606,-0.152149 -2.472924,1.074514 -1.503477,2.043948 0.741905,0.741907 0.283609,1.055869 -0.892466,0.611388 -1.051143,-0.397271 -1.0757,-0.607023 -0.290898,-2.485297 0.501847,-1.201109 0.791079,-1.430559 1.803238,-1.430559 1.601475,0 2.690276,0.625106 3.137464,1.801289 0.41789,1.099144 0.874906,1.207752 1.682765,0.399904 0.309901,-0.309903 1.09411,-0.887518 1.742675,-1.283589 1.75596,-1.072324 3.757406,-2.921432 4.844414,-4.475699 0.530363,-0.758332 1.061716,-1.467649 1.180791,-1.576259 0.618964,-0.564561 1.232281,-2.111037 0.921658,-2.323896 -0.195275,-0.133805 -0.588679,-0.820897 -0.87422,-1.526871 -0.285553,-0.705973 -0.752245,-1.28359 -1.037076,-1.28359 -0.670782,0 -1.227904,1.690004 -0.623541,1.891459 0.246043,0.08201 0.447362,0.395322 0.447362,0.696237 0,0.757398 -0.84406,0.339291 -1.713121,-0.848604 -0.71715,-0.980243 -0.713401,-1.00343 0.316561,-1.957966 0.573273,-0.531286 1.234937,-0.965976 1.470361,-0.965976 0.764193,0 2.254373,1.944154 2.502024,3.264279 0.287219,1.530987 -0.803794,4.341655 -2.258971,5.819579 -0.534696,0.543057 -1.075736,1.272334 -1.202321,1.620617 -0.126574,0.348281 -0.967316,1.017479 -1.868317,1.487104 -0.90099,0.469626 -2.116236,1.297428 -2.700536,1.839558 -0.584299,0.542131 -1.373375,1.084572 -1.753527,1.205424 -0.380139,0.120854 -0.69116,0.374375 -0.69116,0.56338 0,0.604947 -5.51126,5.922328 -6.13827,5.922328 -0.332015,0 -1.025293,0.276249 -1.540588,0.613887 -0.676115,0.443013 -1.014464,0.488401 -1.215537,0.163061 z m 26.44101,-3.043757 c -0.486254,-0.344771 -0.513233,-2.037979 -0.04413,-2.768808 0.430315,-0.670395 2.039814,-0.624412 2.620154,0.07485 0.259517,0.312699 0.414573,1.068041 0.344566,1.67854 -0.104685,0.913237 -0.3373,1.128236 -1.312126,1.212889 -0.651662,0.0566 -1.375471,-0.03228 -1.608475,-0.197474 z m 1.730764,-1.583959 c -0.160319,-0.832493 -0.86126,-0.780001 -1.039884,0.07788 -0.07452,0.357817 0.143202,0.613286 0.522643,0.613286 0.406794,0 0.600497,-0.258849 0.517241,-0.691164 z m 13.352115,-2.309787 c -0.806636,-0.709228 -1.261626,-0.878367 -1.560046,-0.579945 -0.231721,0.23171 -0.913367,0.421292 -1.514772,0.421292 -0.809699,0 -1.034469,-0.153736 -0.866127,-0.592425 0.125037,-0.325834 0.563771,-0.592426 0.974978,-0.592426 1.057593,0 0.92699,-0.808122 -0.301157,-1.86344 -0.831555,-0.714532 -0.907068,-0.901211 -0.364572,-0.901211 0.376332,0 1.203754,0.519511 1.838706,1.154469 0.634963,0.634959 1.154475,1.088523 1.154475,1.00792 0,-0.0806 0.518927,0.03435 1.153181,0.255454 1.243251,0.433398 1.7214,1.180559 1.359345,2.124084 -0.304836,0.794378 -0.538747,0.740233 -1.874011,-0.433772 z M 47.029908,27.106325 c -0.223641,-0.399617 -0.203624,-1.159355 0.05263,-1.99402 0.343541,-1.119383 0.580899,-1.328385 1.397327,-1.230424 0.684918,0.08219 1.099653,0.4688 1.366203,1.27357 0.326134,0.984675 0.251156,1.262109 -0.506982,1.876015 -1.10155,0.891977 -1.838448,0.915867 -2.309111,0.07486 z m 1.901841,-1.329161 c 0.335402,-0.626719 0.300352,-0.789901 -0.169681,-0.789901 -0.325844,0 -0.782672,0.355455 -1.015174,0.789901 -0.335414,0.626719 -0.300354,0.7899 0.169681,0.7899 0.325842,0 0.782671,-0.355455 1.015174,-0.7899 z M 31.687757,22.845857 c 0.165024,-1.848228 0.631867,-3.537877 1.441169,-5.215891 1.074327,-2.227553 1.345033,-2.509819 2.64016,-2.752786 3.615894,-0.678344 4.418663,2.931965 0.961819,4.325648 -1.220509,0.492075 -1.513899,0.49538 -2.044961,0.02303 -1.232433,-1.096159 -2.16662,0.507533 -2.501743,4.294656 -0.07277,0.822462 -0.269158,1.622235 -0.436417,1.777276 -0.167259,0.155041 -0.194273,-0.948334 -0.06008,-2.45194 z m 5.980491,-5.471929 c 1.306666,-1.865523 -0.884128,-2.721436 -2.680972,-1.047421 -0.60257,0.561388 -0.645385,0.809795 -0.248932,1.444608 0.59599,0.954341 2.128811,0.74655 2.929904,-0.397187 z M 58.8055,24.615621 c 0,-0.204403 0.177728,-0.481484 0.394951,-0.615734 0.217225,-0.134251 0.394953,0.03299 0.394953,0.371642 0,0.338653 -0.177728,0.615734 -0.394953,0.615734 -0.217223,0 -0.394951,-0.167238 -0.394951,-0.371642 z m 2.443756,-0.837894 c 0.09502,-0.285104 0.406059,-0.596128 0.691159,-0.691163 0.296219,-0.09873 0.444323,0.04938 0.345591,0.345581 -0.09502,0.285105 -0.40606,0.59613 -0.691159,0.691164 -0.296219,0.09873 -0.444323,-0.04938 -0.345591,-0.345582 z m -5.164983,-2.490174 c -0.386195,-0.46533 -0.237322,-0.846243 0.786433,-2.012236 1.573391,-1.791991 3.098654,-1.826312 3.562028,-0.08015 0.329732,1.242535 0.06311,2.352519 -0.483763,2.014494 -0.19446,-0.120183 -0.353567,-0.641858 -0.353567,-1.159274 0,-0.517417 -0.193214,-1.06017 -0.429361,-1.206119 -0.635593,-0.392819 -1.308692,0.465704 -1.329582,1.695861 -0.02084,1.226451 -1.005892,1.646651 -1.752188,0.747428 z M 27.898142,16.912311 c -0.908663,-0.664422 -0.877596,-1.403856 0.05892,-1.403856 0.818153,0 1.306538,0.812231 0.89185,1.483213 -0.181908,0.294325 -0.473028,0.270029 -0.950839,-0.07936 z m 36.316067,-0.495463 c -0.392157,-0.101661 -0.648168,-0.379366 -0.568917,-0.617132 0.23794,-0.7138 1.327847,-1.223839 2.035191,-0.952402 0.530772,0.203674 0.578129,0.41332 0.237265,1.050231 -0.43757,0.817602 -0.490516,0.833742 -1.703539,0.519303 z m -8.756585,-4.039024 c -0.193308,-0.609038 -0.110971,-1.031657 0.244751,-1.257083 1.274854,-0.807783 1.788763,0.02289 0.782765,1.265251 l -0.736316,0.909322 z M 38.02836,11.329175 c 0.131849,-0.343601 0.239722,-0.720818 0.239722,-0.838261 0,-0.117443 0.266596,0.0077 0.592438,0.278137 0.835095,0.693075 0.735595,1.18485 -0.239732,1.18485 -0.596562,0 -0.764287,-0.176873 -0.592428,-0.624726 z m 6.558922,-0.141866 c 0,-0.985735 0.775802,-1.4710621 1.222966,-0.765071 0.575916,0.909242 0.399924,1.531663 -0.433051,1.531663 -0.518591,0 -0.789915,-0.263299 -0.789915,-0.766592 z m -6.714141,54.326117 c 0,-1.328385 -1.280302,-2.810373 -2.142167,-2.479641 -0.543056,0.208389 -0.62821,0.529648 -0.410019,1.546922 0.375272,1.749737 0.482435,1.876342 1.588108,1.876342 0.753119,0 0.964078,-0.206476 0.964078,-0.943623 z m 15.292523,-2.606653 c -0.726244,-1.036875 -1.117492,-0.561916 -0.620956,0.753839 0.259307,0.687098 0.481049,0.835157 0.789239,0.52697 0.30819,-0.308193 0.260903,-0.66806 -0.168283,-1.280809 z"
     style="fill:#000000;stroke-width:0.39495033" />
</svg>
