<?xml version="1.0" encoding="UTF-8" standalone="no"?>
<svg
   xmlns:dc="http://purl.org/dc/elements/1.1/"
   xmlns:cc="http://creativecommons.org/ns#"
   xmlns:rdf="http://www.w3.org/1999/02/22-rdf-syntax-ns#"
   xmlns:svg="http://www.w3.org/2000/svg"
   xmlns="http://www.w3.org/2000/svg"
   id="svgBG27"
   version="1.1"
   viewBox="0 0 100 100"
   height="100"
   width="100">
  <defs
     id="defs6029" />
  <metadata
     id="metadata6032">
    <rdf:RDF>
      <cc:Work
         rdf:about="">
        <dc:format>image/svg+xml</dc:format>
        <dc:type
           rdf:resource="http://purl.org/dc/dcmitype/StillImage" />
        <dc:title></dc:title>
      </cc:Work>
    </rdf:RDF>
  </metadata>
  <path
     id="pathBG27"
     d="m 53.288088,94.392761 c -0.506919,-0.09227 -0.921667,-0.339305 -0.921667,-0.548938 0,-0.209623 -0.256781,-0.381142 -0.570616,-0.381142 -0.313841,0 -0.681204,-0.288171 -0.816366,-0.640397 -0.13516,-0.352225 -0.411217,-0.538137 -0.613458,-0.413144 -0.202246,0.124994 -0.69425,-0.278077 -1.093347,-0.895708 -0.672243,-1.040322 -1.990907,-2.371749 -4.357827,-4.399977 -1.095114,-0.93841 -3.608346,-5.847443 -3.608346,-7.048082 0,-0.441721 -0.126328,-0.929457 -0.28073,-1.083855 -0.542513,-0.542511 -1.345737,-3.360818 -1.590665,-5.581219 -0.136119,-1.233962 -0.391434,-2.524291 -0.56737,-2.867395 -0.175937,-0.34311 -0.331218,-1.194632 -0.345076,-1.892278 -0.03577,-1.800823 -1.205157,-6.069098 -1.708763,-6.236969 -0.232611,-0.07754 -0.42293,-0.344952 -0.42293,-0.594251 0,-0.567167 -3.237811,-5.959913 -3.779243,-6.294542 -0.255286,-0.157774 -0.297396,1.106495 -0.116993,3.512639 0.276579,3.689101 0.256528,3.810205 -1.076674,6.501091 -0.747178,1.508079 -2.045553,3.439527 -2.885281,4.292097 -1.008874,1.024304 -1.439872,1.776594 -1.270585,2.217742 0.171945,0.448089 0.09757,0.569586 -0.226195,0.369488 -0.265312,-0.163969 -0.778863,-0.0017 -1.14123,0.360721 -1.226377,1.226376 -1.583428,0.493558 -1.70691,-3.50334 -0.0655,-2.119991 -0.295911,-4.031356 -0.512036,-4.247481 -0.216117,-0.216123 -0.392949,-0.631436 -0.392949,-0.92292 0,-0.291484 -0.802525,-2.236193 -1.783385,-4.321578 -0.980861,-2.085383 -1.914948,-4.206356 -2.075744,-4.71327 -0.160801,-0.506915 -0.46427,-0.921663 -0.674381,-0.921663 -0.210114,0 -0.382024,-0.371168 -0.382024,-0.824815 0,-0.453646 -0.16902,-1.144895 -0.375597,-1.536107 -0.68145,-1.290506 -1.650459,-5.1572 -2.282687,-9.108663 -0.342447,-2.14031 -0.804093,-4.880039 -1.025891,-6.088294 -0.221792,-1.208253 -0.321927,-2.328433 -0.22251,-2.489286 0.257132,-0.416058 -0.932337,-8.237764 -1.420923,-9.343652 -1.041601,-2.357604 -1.411386,-3.013828 -2.137522,-3.793239 -0.830067,-0.890974 -0.9079155,-1.461577 -0.488436,-3.580068 0.2643,-1.334776 0.721424,-1.687431 1.194692,-0.921661 0.329626,0.533347 4.176282,0.533347 4.505908,0 0.363428,-0.588031 1.842148,-0.506157 1.849601,0.1024 0.004,0.341357 0.138635,0.307219 0.403358,-0.1024 0.264717,-0.409631 0.399172,-0.443761 0.403351,-0.102399 0.0035,0.281613 0.282774,0.512028 0.620714,0.512028 0.337946,0 0.617269,-0.230415 0.62072,-0.512028 0.004,-0.342401 0.1399,-0.308476 0.409624,0.102399 0.330426,0.503344 0.467189,0.515531 0.756377,0.06742 0.194156,-0.300861 0.470657,-0.531277 0.614441,-0.512035 1.031695,0.138076 1.920576,-0.03993 2.382712,-0.47705 0.871242,-0.824143 3.257816,-1.645201 5.354425,-1.842083 1.070151,-0.100498 1.945733,-0.303178 1.945733,-0.450406 0,-0.147223 0.414747,-0.2851 0.921661,-0.306388 0.506919,-0.02127 1.843326,-0.08619 2.969807,-0.144234 2.265744,-0.116741 8.199102,0.284158 9.314738,0.629371 0.391904,0.12127 1.124166,-0.06782 1.627252,-0.420193 0.503084,-0.352375 1.282271,-0.640679 1.731522,-0.640679 1.116122,0 4.326054,-1.257075 4.326054,-1.694165 0,-0.194688 0.276499,-0.353977 0.614441,-0.353977 0.337946,0 0.614446,-0.215058 0.614446,-0.4778989 0,-0.2628466 0.110494,-0.3674083 0.245538,-0.2323592 0.253553,0.2535505 1.597435,-1.0081161 3.520795,-3.3054119 l 1.103756,-1.3183461 1.292524,1.8786149 c 0.710886,1.0332412 1.936658,3.2727692 2.723939,4.9767432 1.356959,2.936954 1.424086,3.290515 1.290378,6.796391 -0.0949,2.488317 -0.308565,3.754072 -0.653082,3.868823 -0.281615,0.0938 -0.51203,0.414405 -0.51203,0.712437 0,0.470154 -0.779114,1.403278 -4.791847,5.739085 -1.210528,1.30799 -4.298898,3.686653 -4.786614,3.686653 -1.400139,0 -0.30629,-1.708746 3.57625,-5.586581 3.152457,-3.148647 4.388947,-4.680226 4.706254,-5.829427 0.593169,-2.14826 0.164794,-7.137281 -0.743203,-8.655771 -0.404155,-0.675889 -0.870563,-1.675557 -1.036463,-2.22149 -0.617337,-2.0314612 -1.065074,-2.0246755 -3.148414,0.04773 -1.088638,1.082912 -2.259184,1.968942 -2.601233,1.968942 -0.34204,0 -0.727994,0.276494 -0.857674,0.61444 -0.129682,0.337941 -0.47149,0.614441 -0.759577,0.614441 -0.288087,0 -1.051777,0.275365 -1.697094,0.611919 -0.645315,0.336556 -1.485004,0.613056 -1.865974,0.614441 -0.38097,0.0017 -0.802736,0.180606 -0.937257,0.398264 -0.142866,0.231163 -3.261828,0.391126 -7.499886,0.384642 -9.793562,-0.015 -11.04595,0.113796 -12.990101,1.335693 -3.00082,1.886019 -5.884203,2.52176 -10.441911,2.302294 -3.785494,-0.18229 -4.099889,-0.139383 -4.099889,0.559498 0,0.41631 0.151661,0.756925 0.337024,0.756925 1.296122,0 3.205259,7.622478 3.385666,13.517728 0.04482,1.464423 0.22619,3.215582 0.403056,3.891468 0.176872,0.67589 0.533506,2.703547 0.792527,4.505911 0.525568,3.657088 2.037148,9.347745 2.538838,9.557985 0.179204,0.0751 0.325823,0.335745 0.325823,0.579207 0,0.738589 1.363568,3.585348 1.717345,3.585348 0.181936,0 0.330796,0.279003 0.330796,0.620001 0,0.340998 0.172584,0.940081 0.383512,1.331292 0.210935,0.391211 0.87025,1.817285 1.465153,3.169058 0.594897,1.351773 1.362787,3.037885 1.706432,3.74691 0.403437,0.832412 0.525887,1.739457 0.345628,2.560176 -0.585401,2.665305 1.40744,1.018495 3.309106,-2.734533 0.98304,-1.940067 1.179701,-2.816137 1.141977,-5.087239 -0.02743,-1.651865 -0.324283,-3.330911 -0.745998,-4.219615 -1.02576,-2.16162 -1.296692,-4.304791 -0.599973,-4.745939 0.883396,-0.559347 1.0863,-0.466501 1.866327,0.85398 0.399256,0.675886 0.903502,1.228884 1.120549,1.228884 0.475192,0 3.115385,2.820818 3.115385,3.328512 0,0.196976 0.184336,0.358143 0.40963,0.358143 0.225295,0 0.409631,0.263332 0.409631,0.58518 0,0.321853 0.230415,0.828769 0.512029,1.126478 0.28162,0.297713 0.7667,1.094293 1.077952,1.770179 0.311251,0.675887 0.885875,1.874049 1.276937,2.662583 0.391063,0.788535 0.92876,3.184858 1.194893,5.325165 0.55492,4.46285 1.085284,7.010594 2.150624,10.331061 0.821237,2.559648 2.367403,5.769378 2.883428,5.985791 0.17907,0.0751 0.325581,0.279689 0.325581,0.454644 0,0.174955 1.557201,1.910756 3.460444,3.857332 4.016825,4.108278 4.869834,4.378123 6.613466,2.092108 0.62654,-0.821451 1.158399,-2.105498 1.230106,-2.969817 0.06948,-0.837465 0.376611,-2.897441 0.682514,-4.577719 0.35262,-1.936891 0.439137,-3.735999 0.236385,-4.91554 -0.175889,-1.023266 -0.442244,-3.058646 -0.591901,-4.523063 -0.281382,-2.75338 -1.176536,-4.877543 -2.093076,-4.966743 -0.289363,-0.02814 -0.710451,-0.09729 -0.935745,-0.15361 -0.225301,-0.05632 -0.67371,-0.125445 -0.996465,-0.153612 -0.322766,-0.02814 -0.714845,-0.454511 -0.871299,-0.947441 -0.208462,-0.656819 -0.03958,-1.094523 0.632222,-1.638512 1.519312,-1.230262 3.072458,-0.946348 4.986967,0.911618 0.93732,0.909642 2.273949,1.949657 2.97027,2.311146 0.696327,0.361489 1.54255,0.81265 1.880492,1.002583 1.604067,0.901504 3.312312,1.520105 4.957256,1.79515 0.990887,0.165681 1.925806,0.497226 2.077609,0.736764 0.192862,0.304329 0.439649,0.306144 0.819255,0.0061 0.298792,-0.236231 1.917167,-0.468377 3.596396,-0.515881 1.679224,-0.0475 3.360067,-0.250631 3.735195,-0.451397 0.375141,-0.200767 0.798469,-0.24863 0.940742,-0.106362 0.142268,0.142274 0.258672,0.03273 0.258672,-0.243399 0,-0.276143 0.192408,-0.383164 0.427566,-0.237822 0.649023,0.401114 1.620572,-0.604919 1.620572,-1.678084 0,-0.918123 -1.745245,-4.624328 -2.390344,-5.076123 -0.173204,-0.12131 -0.645058,-0.929737 -1.048554,-1.796514 -0.666756,-1.432286 -1.316903,-2.384863 -2.520184,-3.692515 -0.236009,-0.25648 -1.057119,-1.383825 -1.824689,-2.505215 -1.642549,-2.399692 -2.168082,-3.048056 -4.135109,-5.101587 -1.912012,-1.996101 -3.064696,-2.310839 -3.883958,-1.060496 -0.6684,1.020107 -2.220794,0.992592 -2.220794,-0.03937 0,-0.311666 -0.2212,-0.566669 -0.491558,-0.566669 -0.382319,0 -0.382319,-0.10924 0,-0.491552 0.270358,-0.270356 0.494376,-0.77727 0.497825,-1.126478 0.01471,-1.489033 0.671093,-1.766565 4.445785,-1.879772 2.746774,-0.08238 3.892883,-0.282703 4.374854,-0.764679 0.359183,-0.359179 0.916385,-0.653054 1.238239,-0.653054 0.321847,0 0.585186,-0.184337 0.585186,-0.409631 0,-0.225294 0.304624,-0.40963 0.676942,-0.40963 0.717997,0 5.467478,-4.623865 5.467478,-5.322879 0,-0.226549 0.18433,-0.411912 0.409631,-0.411912 0.225294,0 0.409625,-0.276498 0.409625,-0.61444 0,-0.337947 0.17191,-0.614446 0.382024,-0.614446 0.210112,0 0.494612,-0.354724 0.632215,-0.788285 0.137608,-0.433558 0.68905,-1.434978 1.225436,-2.225384 l 0.975238,-1.437094 -0.903646,-1.051645 c -0.729492,-0.848961 -1.270995,-1.051638 -2.809679,-1.051638 -1.048314,0 -2.424941,-0.200481 -3.059166,-0.445506 -1.496575,-0.578181 -7.679785,-0.621426 -8.849739,-0.06189 -1.45552,0.696103 -2.473935,1.030617 -3.568179,1.172012 -0.56324,0.07278 -1.669238,0.214493 -2.457767,0.31492 -0.788534,0.100431 -2.235787,0.316555 -3.216116,0.480281 -1.608841,0.268705 -1.767994,0.22209 -1.634326,-0.478656 0.08231,-0.431506 0.555622,-0.834494 1.065564,-0.90725 0.504616,-0.07199 0.91748,-0.280936 0.91748,-0.464314 0,-0.183379 1.232525,-0.411901 2.738943,-0.507822 1.61343,-0.102742 2.805763,-0.374839 2.901535,-0.662161 0.08943,-0.26827 0.469807,-0.488893 0.845295,-0.490285 0.375493,-0.0011 1.210706,-0.277886 1.856021,-0.61444 0.645315,-0.336556 1.707725,-0.61192 2.360918,-0.61192 0.653189,0 1.549182,-0.225796 1.99109,-0.501777 0.655211,-0.409186 1.164394,-0.362052 2.759427,0.255428 1.075779,0.416462 2.969792,0.943102 4.208919,1.170313 1.239124,0.22721 2.34512,0.527016 2.457768,0.666239 0.395853,0.489225 2.795525,1.686825 3.379959,1.686825 0.75093,0 2.354837,1.37445 2.354837,2.017952 0,0.268493 -0.173622,0.380859 -0.385827,0.249713 -0.2122,-0.131148 -0.949537,0.312592 -1.638513,0.986091 -1.139356,1.113759 -1.439238,1.709151 -1.301196,2.583445 0.02669,0.168967 -0.123397,0.307219 -0.333511,0.307219 -0.210118,0 -0.503139,0.381586 -0.65116,0.847964 -0.232622,0.732928 -1.749995,2.584637 -4.394392,5.362644 -0.394267,0.414187 -0.716851,0.853609 -0.716851,0.976497 0,0.291629 -2.17878,2.470412 -2.336742,2.336749 -0.315945,-0.26734 -0.941894,-0.04231 -1.536688,0.552515 -0.360211,0.360214 -1.376235,0.751681 -2.257833,0.869926 -2.724402,0.365418 -2.567421,1.41693 0.750822,5.029201 2.544248,2.769701 2.922674,3.24262 2.922674,3.652519 0,0.206519 0.153532,0.436934 0.34118,0.512034 0.608978,0.243723 3.494156,4.951978 5.606038,9.148361 1.578081,3.135707 2.275176,4.126974 2.972678,4.227177 1.738869,0.249801 0.555041,2.122059 -1.341779,2.122059 -0.595422,0 -1.360779,0.278194 -1.700791,0.618206 -0.340017,0.340017 -0.795789,0.50846 -1.012832,0.374324 -0.217035,-0.13414 -0.801251,0.02145 -1.298266,0.34575 -0.922589,0.602002 -4.020659,1.257925 -6.228809,1.318762 -0.675889,0.01864 -1.586498,0.198899 -2.023576,0.400619 -0.534465,0.246662 -0.84745,0.208494 -0.955798,-0.116569 -0.08861,-0.265823 -0.657735,-0.483322 -1.264716,-0.483322 -0.606981,0 -1.4672,-0.25034 -1.911595,-0.556323 -0.444395,-0.305978 -1.466949,-0.676938 -2.272335,-0.824355 -0.805381,-0.147417 -1.861781,-0.638306 -2.347544,-1.090867 -0.485768,-0.452562 -1.461703,-0.938536 -2.168749,-1.079943 l -1.28554,-0.257107 0.287347,1.801888 c 0.683096,4.283536 0.697085,10.436819 0.03251,14.295548 -0.673333,3.90954 -1.991588,7.347055 -2.839267,7.403753 -0.250312,0.01672 -0.823778,0.07943 -1.274371,0.139308 -0.450589,0.05982 -1.234002,0.03335 -1.740917,-0.05893 z m -0.432977,-7.509744 c -0.673818,-1.078954 -0.254649,-2.432144 0.753388,-2.432144 0.864837,0 1.62532,1.137379 1.62532,2.430838 0,1.139279 -1.667459,1.140197 -2.378708,0.0011 z m -2.434424,-6.133746 c -1.078908,-1.332968 -1.183854,-2.367925 -0.275459,-2.716508 1.29678,-0.497618 2.838887,2.546737 1.735492,3.426134 -0.40153,0.320012 -0.772632,0.139644 -1.460033,-0.709626 z M 48.09076,74.805937 c -0.751423,-1.146818 -0.521359,-2.643909 0.406301,-2.643909 0.515488,0 1.821219,2.385339 1.821219,3.327045 0,0.784202 -1.584479,0.298273 -2.22752,-0.683136 z m -0.905582,-3.808286 c -0.633781,-0.430795 -1.782435,-2.246946 -1.782435,-2.818238 0,-0.287888 0.470085,-0.523296 1.044973,-0.523296 0.805222,0 1.181146,0.325916 1.638513,1.420542 0.326444,0.781299 0.593539,1.498908 0.593539,1.594685 0,0.347063 -1.108126,0.588994 -1.49459,0.326307 z m 27.308476,-4.459059 c -1.714411,-0.68625 -2.092088,-2.276133 -0.742575,-3.125956 0.551252,-0.347136 0.921722,-0.230063 1.75796,0.555538 1.659076,1.558622 0.948812,3.356647 -1.015385,2.570418 z M 44.777722,65.505844 c -1.697502,-0.928421 -1.629856,-2.355636 0.111657,-2.355636 0.927966,0 2.104285,0.94954 2.138854,1.726509 0.02892,0.650313 -1.453874,1.064833 -2.250507,0.629127 z m 24.813639,-0.897166 c -0.269165,-0.324321 -0.429984,-1.107733 -0.357381,-1.740921 0.153941,-1.342525 1.128482,-1.383656 2.410411,-0.101724 0.672614,0.672616 0.71786,0.92654 0.287779,1.615203 -0.598775,0.958789 -1.649147,1.06085 -2.340809,0.227447 z M 25.950168,63.04248 c -0.184639,-0.694136 -0.115975,-1.354803 0.177562,-1.708501 0.686797,-0.827539 0.734609,-5.723099 0.06379,-6.531384 -0.735112,-0.885757 -0.250232,-2.712345 0.72001,-2.712345 0.931019,0 1.676379,1.558898 1.410458,2.94995 -0.110429,0.577664 0.0011,1.174951 0.247425,1.327305 0.569207,0.351787 0.5709,2.073984 0.0046,4.714401 -0.337023,1.571476 -0.62401,2.068302 -1.19475,2.068302 -0.413144,0 -0.835975,0.230417 -0.939619,0.512036 -0.10364,0.281619 -0.323923,0.0029 -0.489507,-0.619764 z m 40.011852,0.09236 c -0.493421,-0.459693 -0.897127,-1.10512 -0.897127,-1.434288 0,-0.365299 -0.399006,-0.598484 -1.02407,-0.598484 -0.563242,0 -1.024072,-0.166125 -1.024072,-0.369165 0,-0.297648 -2.104235,-1.814512 -3.34679,-2.412581 -0.675141,-0.324958 -3.015362,-2.789056 -2.999109,-3.157861 0.0099,-0.225295 0.206274,-0.734659 0.436318,-1.131919 0.393772,-0.679998 0.471239,-0.672927 1.323195,0.120782 0.497709,0.463691 1.204552,1.300348 1.57075,1.859237 0.414741,0.632973 0.918445,0.935984 1.335745,0.803539 0.699103,-0.221889 2.119187,0.901603 3.518035,2.783279 0.464251,0.624482 1.212359,1.095055 1.740921,1.095055 0.739536,0 0.925578,0.227651 0.920572,1.126478 -0.0103,1.850113 -0.518857,2.280649 -1.554368,1.315922 z M 42.130131,59.264064 c -0.712084,-0.858009 -0.183738,-2.667902 0.778822,-2.667902 0.842884,0 1.264906,0.76285 1.264906,2.286457 0,1.145923 -1.220252,1.373671 -2.043728,0.381445 z M 40.70082,53.883858 c -0.881639,-0.881634 -0.630158,-1.966978 0.492943,-2.12742 0.675586,-0.09651 0.967938,0.129736 1.160852,0.898384 0.446028,1.777111 -0.444167,2.438667 -1.653795,1.229036 z m 11.051515,-1.962082 c -0.90099,-0.500594 -1.692227,-1.190929 -1.758312,-1.534076 -0.06609,-0.343151 -0.825704,-1.020447 -1.688037,-1.505106 -2.20339,-1.238376 -2.656511,-1.866995 -2.098001,-2.910582 0.461864,-0.862996 1.652526,-1.177002 1.652526,-0.435813 0,0.225301 0.276499,0.409631 0.614442,0.409631 0.337945,0 0.614443,0.201959 0.614443,0.448804 0,0.896947 1.655467,2.743662 2.692955,3.004053 1.207475,0.30306 3.137513,2.199426 2.915926,2.865054 -0.243418,0.731212 -1.218027,0.618076 -2.945942,-0.341965 z M 25.786744,50.594259 c -0.592724,-1.300897 -0.582208,-2.88343 0.02167,-3.256634 0.804358,-0.497123 2.339839,1.807759 2.014564,3.024015 -0.365811,1.367813 -1.461925,1.493036 -2.036213,0.232619 z m 13.524942,-1.354816 c -0.285053,-0.951439 -0.750115,-1.655102 -1.093879,-1.655102 -0.766254,0 -0.792498,-1.786403 -0.03547,-2.414679 0.859938,-0.713685 1.814338,-0.118999 2.122329,1.322424 0.15243,0.713385 0.454341,1.517338 0.670921,1.786558 0.574104,0.713658 0.232257,2.349319 -0.520972,2.492722 -0.445199,0.08476 -0.801731,-0.393124 -1.142923,-1.531923 z M 23.767885,44.484964 c -0.783345,-0.887177 -0.445581,-2.406961 0.567119,-2.551766 1.178713,-0.168535 2.08732,1.750907 1.233159,2.605064 -0.733658,0.733656 -1.115391,0.722353 -1.800278,-0.05332 z m 18.19098,-1.918569 c -1.065575,-0.92583 -1.450987,-1.539968 -1.265464,-2.01647 0.391576,-1.005702 1.451666,-1.267614 2.24066,-0.553579 0.379426,0.343375 1.090098,0.624318 1.579273,0.624318 0.715147,0 0.889409,0.240776 0.889409,1.228886 0,0.819255 -0.204814,1.22888 -0.614443,1.22888 -0.337942,0 -0.614441,0.184336 -0.614441,0.40963 0,0.714154 -0.637639,0.448832 -2.214994,-0.921665 z m 5.570642,0.401954 c -0.556942,-0.671069 -0.175984,-2.347685 0.533439,-2.347685 0.905269,0 1.641272,1.221637 1.178246,1.955687 -0.570216,0.903977 -1.172339,1.04187 -1.711685,0.391998 z m 3.057076,-0.639019 c -0.372865,-0.412009 -0.677932,-0.943508 -0.677932,-1.181108 0,-0.65861 1.666958,-0.95079 2.593976,-0.454665 0.652928,0.349436 0.931457,0.292146 1.347788,-0.277225 0.703712,-0.962384 1.793029,-0.487456 1.793029,0.781743 0,1.280212 -0.562911,1.637764 -1.579203,1.003073 -0.648543,-0.405017 -0.918501,-0.370178 -1.479618,0.190941 -0.87069,0.870684 -1.161555,0.861548 -1.99804,-0.06275 z M 35.224075,40.590541 c -1.048736,-0.977046 -1.043142,-0.926469 -0.268349,-2.424742 0.337558,-0.652764 0.446852,-1.287944 0.243269,-1.413765 -0.203322,-0.125655 -0.273312,-0.59695 -0.155538,-1.047315 0.304757,-1.165381 1.754797,-1.02953 2.870535,0.268936 1.15873,1.348502 1.191083,2.19889 0.09455,2.485643 -0.516501,0.135064 -0.931378,0.675871 -1.076983,1.403871 -0.313597,1.568024 -0.650918,1.711718 -1.707488,0.727372 z m 21.388277,0.238894 c -0.374421,-0.975728 0.950842,-2.163211 2.754227,-2.467888 0.881119,-0.148865 1.602031,-0.47981 1.602031,-0.735432 0,-0.255621 0.282253,-0.06179 0.62723,0.43072 0.516034,0.736753 0.535748,1.041961 0.111221,1.721749 -0.610352,0.977332 -1.232263,1.262123 -3.304105,1.513057 -1.149498,0.139221 -1.604923,0.02167 -1.7906,-0.462206 z M 23.10727,39.157707 c -0.754832,-0.754839 -0.795761,-1.174174 -0.219659,-2.250626 0.580816,-1.085268 0.915534,-0.999355 1.774978,0.45556 0.584997,0.990323 0.635147,1.370789 0.242978,1.843328 -0.630751,0.760003 -0.999942,0.750091 -1.798297,-0.04824 z m 40.80394,-0.888905 c 0.136164,-1.179705 1.309243,-1.752703 2.05714,-1.004812 0.721197,0.721196 -0.04767,2.127787 -1.163081,2.127787 -0.874397,0 -1.004773,-0.163756 -0.894059,-1.122975 z m 4.025148,-1.327191 c -0.657063,-1.227735 0.376731,-1.989353 2.991318,-2.203766 1.867906,-0.153181 2.431832,-0.06266 2.617098,0.420125 0.381948,0.995346 -1.157591,2.07604 -3.268931,2.294644 -1.576596,0.163237 -2.031866,0.0638 -2.339485,-0.511003 z M 21.402503,32.207784 c -0.68256,-1.267432 -0.703494,-1.498571 -0.166909,-1.842813 1.412493,-0.906189 2.761435,0.384208 2.304562,2.204541 -0.376799,1.501285 -1.210312,1.360239 -2.137653,-0.361728 z m 9.560848,1.006764 c -0.774124,-0.450891 -0.977633,-2.21544 -0.303552,-2.632039 1.101156,-0.680553 3.019998,1.238125 2.562658,2.562442 -0.211791,0.613278 -1.269707,0.645868 -2.259106,0.0696 z M 25.60405,29.287619 c -0.677474,-0.677473 -0.193611,-2.022149 0.964859,-2.681379 1.210455,-0.688816 2.377717,-0.591116 2.935739,0.245716 0.180625,0.270876 0.560858,0.171043 1.056321,-0.277344 0.425764,-0.385308 1.187512,-0.700563 1.69278,-0.700563 0.505271,0 1.195171,-0.276499 1.533112,-0.61444 0.33794,-0.337942 1.246439,-0.61444 2.018881,-0.61444 1.285406,0 1.404441,0.103494 1.404441,1.221078 0,1.289234 -0.673104,1.66844 -3.168933,1.785273 -0.622692,0.02915 -1.425683,0.373167 -1.784429,0.764486 -0.617856,0.673961 -0.699149,0.667813 -1.541067,-0.116556 -0.840179,-0.782747 -0.903697,-0.787707 -1.161184,-0.09062 -0.149806,0.405583 -0.470159,0.872851 -0.711889,1.038374 -0.55127,0.37748 -2.872598,0.406443 -3.238631,0.04043 z m -7.380111,-3.149048 c -2.294337,-2.644047 -0.527461,-5.848742 1.91103,-3.466155 0.861662,0.841913 0.930204,1.140397 0.608989,2.652187 -0.466727,2.196677 -1.133354,2.411997 -2.520019,0.813968 z m 4.321556,0.472814 c -0.65525,-0.655256 -0.622858,-1.756936 0.06853,-2.330738 0.850569,-0.705919 1.701242,0.573067 1.536579,2.310252 -0.06164,0.65038 -0.963713,0.661894 -1.60512,0.02047 z m 17.479448,-0.769864 c -0.895233,-0.553284 0.245232,-2.42524 1.477552,-2.42524 0.568071,0 1.032851,-0.184331 1.032851,-0.409625 0,-0.225298 0.473075,-0.40963 1.051279,-0.40963 0.905185,0 1.033266,0.156541 0.921663,1.126476 -0.0928,0.806561 -0.391365,1.163652 -1.051278,1.257377 -0.506916,0.07199 -0.921664,0.280919 -0.921664,0.464282 0,0.475998 -1.896938,0.775503 -2.510403,0.39636 z m 5.37385,-2.634811 c -0.793838,-0.956515 0.731261,-2.683666 2.256904,-2.555911 1.584589,0.132686 1.924798,1.569912 0.530182,2.239784 -1.717107,0.824769 -2.309213,0.891925 -2.787086,0.316127 z m 4.698305,-1.480523 c -0.206769,-0.651462 0.01384,-1.120214 0.875703,-1.860798 1.399335,-1.202414 2.775182,-1.117648 2.959638,0.18234 0.103165,0.727048 -0.145061,1.029244 -1.126474,1.371364 -0.692342,0.241354 -1.2588,0.605122 -1.2588,0.808375 0,0.749693 -1.182802,0.340804 -1.450067,-0.501281 z"
     style="fill:#000000;stroke-width:0.40962812" />
</svg>
