<?xml version="1.0" encoding="UTF-8" standalone="no"?>
<svg
   xmlns:dc="http://purl.org/dc/elements/1.1/"
   xmlns:cc="http://creativecommons.org/ns#"
   xmlns:rdf="http://www.w3.org/1999/02/22-rdf-syntax-ns#"
   xmlns:svg="http://www.w3.org/2000/svg"
   xmlns="http://www.w3.org/2000/svg"
   id="svgBG28"
   version="1.1"
   viewBox="0 0 100 100"
   height="100"
   width="100">
  <defs
     id="defs6029" />
  <metadata
     id="metadata6032">
    <rdf:RDF>
      <cc:Work
         rdf:about="">
        <dc:format>image/svg+xml</dc:format>
        <dc:type
           rdf:resource="http://purl.org/dc/dcmitype/StillImage" />
        <dc:title></dc:title>
      </cc:Work>
    </rdf:RDF>
  </metadata>
  <path
     id="pathBG28"
     d="m 90.151259,93.873574 c -0.169465,-0.206502 -1.977893,-0.560116 -4.018722,-0.785799 -2.215438,-0.245013 -3.829367,-0.652881 -4.005355,-1.012234 -0.16211,-0.331034 -1.478827,-0.82813 -2.926018,-1.10465 -1.447201,-0.276523 -2.761336,-0.768357 -2.92031,-1.092977 -0.315788,-0.644818 -2.809718,-1.612658 -6.239804,-2.421533 -1.206427,-0.284503 -2.24839,-0.719598 -2.315475,-0.966899 -0.06708,-0.247292 -0.521282,-0.488945 -1.009323,-0.537013 -1.672122,-0.164687 -6.117477,-4.946566 -7.230959,-7.778353 -1.067375,-2.71453 -2.158302,-3.536198 -3.374798,-2.541815 -2.234308,1.826336 -3.649617,2.111746 -7.929266,1.599075 -5.750024,-0.68882 -6.003463,-0.76201 -7.666221,-2.213804 -0.796796,-0.695708 -1.569976,-1.276859 -1.718181,-1.291456 -0.481799,-0.04745 -4.230154,-3.29707 -4.995909,-4.331186 -0.972427,-1.313207 -2.72373,-6.649377 -2.598752,-7.918322 0.117076,-1.188715 -1.136478,-1.929719 -2.288128,-1.352559 C 27.783057,60.69085 24.964049,59.480458 23.765045,57.913244 23.251111,57.241466 22.596769,56.668809 22.310954,56.640659 22.025146,56.61251 21.73362,56.415464 21.663125,56.202777 21.430655,55.501396 18.597749,53.282342 17.83947,53.207659 17.4305,53.16738 16.883206,52.60848 16.623262,51.96565 16.130409,50.746862 14.170826,48.019386 12.340609,46.004775 9.5880758,42.974927 9.0312652,35.716525 11.108096,29.938063 11.904402,27.722471 12.251723,25.900805 12.173168,24.351907 12.109048,23.08777 12.057125,21.0967 12.057771,19.927304 12.059404,16.942941 10.302842,12.624959 8.7787631,11.86702 7.5196808,11.240859 5.4593171,8.8754813 5.5318151,8.1393912 5.5539165,7.9149711 5.9072152,7.5046926 6.3169164,7.2276623 6.8897521,6.8403319 7.2147929,6.9103581 7.7239898,7.5308085 8.0881677,7.9745612 8.5382594,8.2127898 8.7241925,8.0602057 8.9101123,7.9076194 9.5170852,8.2830282 10.073003,8.8944479 c 0.751219,0.8262186 1.788253,1.2148961 4.038496,1.5136241 1.725845,0.229112 3.190063,0.189169 3.40526,-0.09288 0.207645,-0.272155 0.90426,-0.4429466 1.548038,-0.3795409 0.64377,0.063401 1.4924,-0.1417083 1.885828,-0.4558018 2.166029,-1.7292532 4.686926,-2.8045971 6.793379,-2.8978649 1.30231,-0.057673 2.478187,-0.2494729 2.61305,-0.42623 0.134868,-0.1767638 1.550841,-0.2576822 3.146625,-0.1798271 1.595779,0.077872 3.588674,2.925e-4 4.428638,-0.172372 0.839974,-0.1726613 1.853774,-0.2112287 2.252896,-0.085712 2.056057,0.6466367 3.67208,1.3623276 4.181807,1.8519973 0.313259,0.3009348 0.583754,0.4030905 0.601097,0.2270052 0.06413,-0.6510547 6.17088,3.8926792 6.526658,4.8561552 0.15302,0.414402 0.647632,1.74706 1.099141,2.961457 0.451503,1.214404 0.888723,3.053023 0.971603,4.085828 0.213528,2.660994 0.70647,3.177378 3.293498,3.450138 1.25641,0.132362 2.683705,0.609714 3.171795,1.060544 0.488088,0.450829 1.430759,0.873199 2.094809,0.938602 0.664058,0.06541 1.667664,0.725362 2.230249,1.466572 0.562585,0.741216 1.343135,1.379207 1.734566,1.417758 0.39144,0.03855 0.806812,0.416129 0.923065,0.839062 0.116242,0.422934 0.551759,0.802493 0.967825,0.843471 0.416052,0.04098 0.736039,0.281816 0.711085,0.535188 -0.02496,0.253382 0.385307,0.645578 0.911699,0.871553 0.526386,0.225981 0.935724,0.627561 0.90964,0.892407 -0.05048,0.512566 0.157177,0.875171 1.903001,3.322884 0.609446,0.85447 1.071873,1.921239 1.027615,2.370597 -0.04426,0.449365 0.153046,1.101567 0.438461,1.449341 0.285412,0.347783 0.395451,1.525735 0.244542,2.617675 -0.150913,1.091945 -0.05371,2.007087 0.216031,2.033653 0.269731,0.02657 0.435685,0.604025 0.368789,1.283237 -0.09635,0.978269 0.127706,1.2595 1.078021,1.353096 0.659812,0.06499 1.500251,0.484425 1.867643,0.932091 0.367385,0.447668 1.239582,0.870237 1.938202,0.939043 0.799773,0.07877 1.243188,0.399534 1.197239,0.866068 -0.04014,0.407531 0.344922,0.782121 0.855677,0.832425 0.99571,0.09807 7.329329,7.217203 7.238783,8.136552 -0.02986,0.303228 0.14603,0.571045 0.390877,0.59516 0.843395,0.08306 2.250586,3.934999 2.262055,6.191943 0.0063,1.243895 0.220322,3.516648 0.475532,5.050552 0.446721,2.684806 0.389376,5.411443 -0.379378,18.036645 -0.327289,5.375105 -0.692685,6.813177 -1.485581,5.847031 z m -1.633323,-3.884501 c 0.661215,-0.542638 1.709743,-15.349706 1.360471,-19.212197 -0.212742,-2.352687 -0.386739,-4.884444 -0.38664,-5.626114 2.24e-4,-1.841234 -1.920963,-5.34113 -4.65689,-8.483627 -3.537708,-4.063429 -3.674939,-4.205773 -4.094324,-4.247078 -0.217021,-0.02138 -0.762538,-0.558327 -1.212244,-1.193242 -0.449705,-0.634913 -0.844456,-0.882199 -0.877219,-0.549536 -0.03984,0.404421 -0.291453,0.322293 -0.759365,-0.247856 -1.139557,-1.388549 -2.467055,-1.215819 -2.988855,0.388896 -0.484577,1.490283 0.113127,3.750814 0.891022,3.369852 0.249146,-0.12201 0.538702,0.06856 0.643449,0.423481 0.147912,0.501177 0.312149,0.50333 0.735271,0.0097 0.432685,-0.504854 0.595971,-0.394726 0.793324,0.535035 0.136676,0.643903 0.850667,1.840263 1.586654,2.658578 1.148591,1.277082 1.244355,1.628047 0.67607,2.477592 -0.364154,0.544365 -0.876551,0.968629 -1.138675,0.942813 -0.262131,-0.02582 -0.519094,0.384514 -0.571031,0.911852 -0.148856,1.511375 -1.093318,1.600786 -1.589053,0.150441 -0.55235,-1.615994 -1.036992,-1.709584 -1.931128,-0.372914 l -0.685529,1.02481 -0.769469,-1.168109 c -0.946817,-1.437349 -1.656788,-1.553336 -2.171353,-0.354721 -0.663014,1.544427 -1.799892,1.443255 -2.577947,-0.229407 -0.395404,-0.850034 -1.123388,-1.585354 -1.617747,-1.634043 -0.494355,-0.04869 -1.397924,-0.490665 -2.00794,-0.982157 -0.610017,-0.491491 -1.706763,-0.880067 -2.437222,-0.863494 l -1.328099,0.03012 1.038916,1.473932 c 0.571404,0.810664 1.253743,1.499058 1.516303,1.529766 0.262555,0.03083 1.811038,1.698217 3.441053,3.705581 1.630013,2.007362 3.887565,4.722885 5.016788,6.034478 1.129217,1.311611 2.033985,2.579051 2.010594,2.81655 -0.02339,0.237509 0.402053,0.475608 0.945425,0.529125 0.543372,0.05351 1.009841,-0.124982 1.0366,-0.396669 0.02675,-0.271687 0.500196,-0.449502 1.052077,-0.395147 0.837677,0.0825 0.95654,0.379644 0.719603,1.798925 -0.325295,1.948504 0.06754,2.716995 0.998367,1.953082 1.215747,-0.997739 2.431784,-0.461046 2.279065,1.00587 -0.07731,0.746774 -0.370724,1.651674 -0.651057,2.011003 -0.538276,0.689949 -0.03478,2.352949 1.026648,3.390924 0.792171,0.774662 0.01011,2.242252 -1.134802,2.129492 -0.498905,-0.04914 -1.166737,-0.550454 -1.48409,-1.114038 -0.317347,-0.563572 -1.016658,-0.998717 -1.554035,-0.966973 -0.537378,0.03175 -1.544452,-0.303673 -2.237958,-0.745333 -0.693511,-0.441674 -1.598243,-0.710323 -2.010509,-0.597004 -0.412277,0.113318 -0.878649,-0.05756 -1.036407,-0.379632 -0.296016,-0.604442 -2.878166,1.311475 -2.965728,2.200528 -0.04387,0.445464 1.601953,1.760665 2.54306,2.032196 0.266742,0.077 1.357972,0.391704 2.42495,0.69943 1.066974,0.307745 2.327017,0.617588 2.800094,0.688563 0.473066,0.07098 0.842925,0.303702 0.821899,0.517174 -0.02102,0.213464 0.628644,0.453795 1.443704,0.53407 0.815059,0.08028 1.457683,0.392027 1.428063,0.692783 -0.02962,0.300756 0.234265,0.470027 0.586409,0.376162 0.352154,-0.09386 1.005758,0.0027 1.452465,0.214406 0.870408,0.412639 5.239281,0.803946 5.60697,0.502158 z M 65.782155,78.287193 c -0.268337,-0.214075 -0.671135,-0.299482 -0.895109,-0.189787 -0.223973,0.109694 -0.850752,-0.0973 -1.392848,-0.459884 -1.294111,-0.865679 -1.636511,-0.515474 -0.973002,0.995175 0.833037,1.896606 1.361494,2.106721 2.602152,1.034624 0.729659,-0.630525 0.969256,-1.132465 0.658806,-1.380122 z m 7.266787,1.003502 c 1.464921,-0.402648 1.202148,-2.762887 -0.544567,-4.89125 -2.280869,-2.779235 -3.647672,-1.716485 -1.84222,1.432402 0.504127,0.879246 0.67872,1.856734 0.444745,2.489942 -0.40101,1.08524 0.280937,1.425471 1.942042,0.968906 z M 53.393466,74.175709 c 0.02625,-0.266513 0.673752,-0.573961 1.438902,-0.683228 0.765143,-0.109264 1.515869,-0.325348 1.668284,-0.480172 0.705129,-0.716326 3.225477,-1.713757 4.110184,-1.626623 0.732862,0.07218 1.022272,0.546231 1.137503,1.863218 0.194445,2.222374 0.457713,2.413069 1.962704,1.421704 2.122681,-1.398271 2.601451,-3.190782 1.728872,-6.472869 -0.423504,-1.592931 -0.945103,-2.913493 -1.159104,-2.934571 -0.21401,-0.02108 -1.064696,-0.905254 -1.890415,-1.964826 C 57.065959,56.465884 52.302744,51.115515 51.471649,51.03366 c -1.006293,-0.09912 0.551116,5.434739 1.66397,5.912484 0.870135,0.373546 1.540928,2.116606 1.226673,3.187526 -0.09188,0.313067 0.269348,0.756549 0.802685,0.985511 1.025507,0.440251 1.175431,2.547441 0.214722,3.017934 -0.77794,0.380983 -0.71966,1.176036 0.09206,1.255983 0.793366,0.07814 1.331261,1.84529 0.781148,2.566305 -0.196411,0.257435 -1.01086,0.403669 -1.809888,0.324974 -1.140154,-0.112294 -1.474453,0.07711 -1.553546,0.880154 -0.05543,0.562776 -0.467055,1.323828 -0.914722,1.691217 -0.723499,0.593762 -0.888161,0.577544 -1.481922,-0.145955 -0.367394,-0.447664 -0.654587,-0.949967 -0.638214,-1.116211 0.01638,-0.166257 -0.387699,-1.00114 -0.897931,-1.855323 -0.630224,-1.055033 -0.857049,-2.270416 -0.707364,-3.790218 0.121187,-1.230444 0.08857,-2.250152 -0.07248,-2.266015 -0.161049,-0.01587 -0.526681,-0.500769 -0.812504,-1.077563 -0.415528,-0.838528 -0.376524,-1.234542 0.194606,-1.975897 0.392856,-0.509949 0.994247,-0.899608 1.336429,-0.865905 0.82844,0.08159 0.934752,-1.411423 0.232648,-3.267131 -0.313036,-0.827362 -0.915589,-2.604531 -1.338991,-3.949263 -0.423415,-1.344727 -1.003626,-2.467982 -1.289366,-2.496124 -0.28574,-0.02814 -0.822829,-0.92271 -1.193539,-1.987927 -0.370709,-1.065221 -1.081489,-2.30593 -1.579503,-2.757145 -0.498016,-0.451199 -1.542509,-1.620183 -2.321093,-2.597745 -0.778581,-0.977547 -1.641451,-1.799608 -1.917474,-1.826792 -0.276029,-0.02718 -0.599187,-0.507903 -0.718136,-1.068263 -0.118942,-0.560356 -0.40539,-1.037464 -0.636545,-1.06023 -0.231155,-0.02276 -0.75861,-0.210944 -1.172118,-0.418185 -0.438885,-0.219953 -0.777188,-0.119337 -0.812748,0.241723 -0.09387,0.953089 2.160665,5.179547 2.796902,5.243218 0.678023,0.06811 1.052218,1.252657 0.896124,2.837531 -0.170778,1.733955 0.980053,2.85662 2.747884,2.680634 1.389433,-0.138315 1.481565,-0.04635 1.344793,1.342334 -0.08563,0.869487 -0.467311,1.57891 -0.915796,1.702177 -0.422931,0.116242 -0.812117,0.649494 -0.864858,1.184994 -0.07565,0.76807 0.291144,1.044437 1.737299,1.308979 2.386521,0.436572 2.604963,1.782779 0.40691,2.507645 -1.63678,0.539777 -2.244292,1.70571 -0.954932,1.8327 0.407532,0.04014 0.719069,0.295263 0.692312,0.566952 -0.02676,0.271688 0.284778,0.526813 0.692309,0.566951 1.073098,0.10569 0.7483,1.725929 -0.490245,2.445546 -0.726149,0.421915 -1.113891,1.181445 -1.235989,2.421137 -0.222086,2.25491 -1.246721,3.086116 -2.463358,1.998326 -0.474028,-0.423833 -0.831871,-1.321393 -0.795193,-1.994568 0.03672,-0.673174 -0.153281,-1.949064 -0.422123,-2.835308 -0.268836,-0.886238 -0.328196,-2.045976 -0.131912,-2.577187 0.296852,-0.803348 0.115336,-0.989636 -1.078786,-1.107246 -1.215895,-0.119754 -1.41636,-0.337536 -1.309493,-1.422586 0.08528,-0.865747 0.454787,-1.333401 1.139575,-1.442229 0.56088,-0.08914 1.054317,-0.576489 1.10503,-1.091393 0.0898,-0.911752 -0.122534,-1.047064 -2.111894,-1.345901 -1.043201,-0.15672 -1.06356,-1.195662 -0.07771,-3.966519 0.410407,-1.153516 0.339739,-1.365142 -0.453737,-1.35886 -2.026445,0.01606 -2.655781,-0.294803 -2.56027,-1.26455 0.05352,-0.543372 0.304616,-0.967533 0.557991,-0.942578 1.235605,0.121694 1.215236,-2.032641 -0.04604,-4.870872 -0.732181,-1.647611 -1.491019,-3.081775 -1.686308,-3.187029 -0.195287,-0.105262 -0.615166,-1.340958 -0.933066,-2.745996 -0.317893,-1.405038 -0.9137,-2.722861 -1.324011,-2.928493 -0.410309,-0.205637 -1.109068,-0.816255 -1.552794,-1.356939 -0.657334,-0.80096 -1.03666,-0.904481 -2.04782,-0.558868 -0.682574,0.233309 -1.535394,0.931564 -1.895162,1.551684 -0.689001,1.187616 -0.494923,1.367325 1.463462,1.355088 1.063106,-0.0066 2.172545,1.602262 1.723168,2.498929 -0.169254,0.337722 -0.684077,0.576976 -1.144044,0.531674 -1.168415,-0.115076 -2.118364,0.780857 -2.250507,2.122554 -0.0859,0.872122 0.165514,1.163463 1.081878,1.253716 0.656571,0.06467 1.325295,-0.150027 1.486049,-0.4771 0.202498,-0.411984 0.502603,-0.267516 0.97692,0.470294 0.906678,1.410362 0.796176,2.319169 -0.271582,2.233562 -0.92592,-0.07423 -2.701479,0.842278 -2.758775,1.424029 -0.0505,0.512808 1.159544,1.893968 1.706529,1.94784 0.817209,0.08049 1.476062,1.483953 1.073615,2.286976 -0.457888,0.913631 -2.059105,0.874963 -2.52775,-0.06105 -0.607877,-1.214107 -1.20404,2.184245 -0.690026,3.933449 0.429145,1.460391 0.389019,1.709758 -0.305833,1.900739 -1.093612,0.300597 -2.442384,-1.308166 -2.969442,-3.541826 -0.240498,-1.019222 -0.409256,-1.962594 -0.375022,-2.096381 0.03421,-0.133787 0.265919,-0.839208 0.514853,-1.567606 0.338451,-0.990347 0.222431,-1.564342 -0.460047,-2.275917 -1.165548,-1.21525 -1.077288,-1.929778 0.446683,-3.616306 1.15843,-1.281984 1.186422,-1.416781 0.474373,-2.284407 -0.474926,-0.578699 -0.778692,-0.698683 -0.815771,-0.322215 -0.08976,0.911358 -1.932188,0.532918 -2.378636,-0.488586 -0.255948,-0.585614 -0.183143,-1.212009 0.208996,-1.798237 0.462975,-0.692114 0.428054,-1.020578 -0.151406,-1.424183 -1.019915,-0.710382 -0.855962,-1.583643 0.577894,-3.078157 1.19612,-1.246709 1.198681,-1.264874 0.443404,-3.140883 -0.76615,-1.903007 -4.386207,-6.483613 -5.186276,-6.562412 -0.237442,-0.02339 -0.33752,0.401282 -0.22238,0.943718 0.293618,1.383251 -0.643746,10.780203 -1.140244,11.430972 -1.066177,1.397413 -1.473545,3.995137 -1.092553,6.967055 0.398846,3.111206 1.318201,5.003023 4.178956,8.599286 0.784219,0.985841 1.620377,2.261378 1.858135,2.834529 0.237763,0.573157 0.757907,1.074169 1.155872,1.113363 0.397972,0.0392 1.10002,0.501122 1.560106,1.026492 3.928726,4.486248 4.124252,4.62078 7.148619,4.918649 1.598717,0.157458 3.266749,0.04287 3.706743,-0.254638 1.111018,-0.751238 1.318932,-0.304139 1.144032,2.460148 -0.08342,1.31839 -0.03615,2.520671 0.105009,2.671732 0.141175,0.151063 0.55072,1.313624 0.910096,2.583473 0.364682,1.288554 1.482606,3.210724 2.529846,4.349825 1.713405,1.863712 2.062922,2.124604 2.880987,2.150476 0.146505,0.0046 0.57412,0.383408 0.950256,0.841733 0.593813,0.72356 1.966345,1.21251 3.200928,1.140288 0.206929,-0.01206 0.354353,0.200283 0.327595,0.471961 -0.02902,0.294654 1.844916,0.680479 4.64411,0.956172 2.738427,0.269707 4.712637,0.260392 4.740486,-0.02238 z M 72.683205,55.491928 c 0.109891,-1.155041 -0.04234,-3.101878 -0.338021,-4.326269 -0.578352,-2.394923 -0.676321,-3.475414 -0.805077,-8.878938 -0.107077,-4.49387 -0.318682,-5.134683 -2.510519,-7.602592 -2.197583,-2.474393 -8.131067,-7.161578 -9.198927,-7.266752 -0.422464,-0.04161 -0.895928,-0.336647 -1.052153,-0.655644 -0.198005,-0.404313 -0.432666,-0.389656 -0.774718,0.0484 -0.411559,0.527071 -0.48112,0.518962 -0.431449,-0.05045 0.0462,-0.527499 -0.108429,-0.565344 -0.693408,-0.1698 -0.785201,0.530925 -2.618323,0.285016 -3.613968,-0.4848 -0.350718,-0.271175 -0.619858,-0.194279 -0.682026,0.19484 -0.07899,0.494348 -0.14618,0.494525 -0.291022,8.05e-4 -0.103591,-0.353106 -0.503254,-0.673025 -0.888134,-0.710933 -0.521653,-0.05138 -0.630692,-0.792194 -0.428332,-2.910094 0.407332,-4.262664 -1.186095,-8.057382 -4.242303,-10.103222 -1.282296,-0.858372 -2.700145,-1.615239 -3.150785,-1.681929 -0.45063,-0.06671 -0.880257,-0.38917 -0.954712,-0.71663 -0.181497,-0.7982153 -8.347979,-1.5796 -8.682328,-0.8307638 -0.131183,0.2937966 -1.109129,0.4484259 -2.173236,0.3436225 -1.0641,-0.1048001 -1.95564,0.021673 -1.981185,0.2810437 -0.02555,0.2593676 -0.89507,0.5422446 -1.93228,0.6285996 -1.037211,0.08636 -2.35404,0.415728 -2.926285,0.731928 -0.572245,0.3162 -1.435564,0.535992 -1.918482,0.488429 -0.482918,-0.04757 -0.898189,0.118152 -0.922821,0.368247 -0.02463,0.250101 -0.723472,0.535206 -1.552982,0.633571 -0.829504,0.09836 -1.655212,0.371542 -1.834909,0.607062 -0.179691,0.235518 -0.980459,0.363829 -1.779486,0.285133 -0.812097,-0.07999 -1.496787,0.127525 -1.552579,0.470542 -0.07985,0.490902 -0.137485,0.485226 -0.288159,-0.02838 -0.10359,-0.353057 -0.503252,-0.67297 -0.88814,-0.710879 -1.030471,-0.101488 -1.066328,2.030309 -0.05194,3.087956 0.776454,0.80956 0.908982,0.827767 1.238545,0.170223 0.289116,-0.576893 0.908455,-0.630428 2.859476,-0.247181 1.369738,0.269068 2.611624,0.724921 2.759752,1.013018 0.416728,0.810504 3.155177,2.443519 4.284046,2.554702 0.556859,0.05485 0.988518,0.377913 0.959226,0.717932 -0.0373,0.42923 0.105263,0.414961 0.465364,-0.04678 0.362053,-0.464249 0.701769,-0.497156 1.125326,-0.109 0.333689,0.305799 1.719447,0.652296 3.079466,0.769989 2.313013,0.200198 2.484085,0.131312 2.648134,-1.065994 0.09646,-0.704001 0.35839,-1.519873 0.582078,-1.813047 0.706041,-0.925391 2.148381,-0.410515 2.606764,0.930542 0.612331,1.791497 1.252299,1.680569 1.834849,-0.318051 0.557413,-1.912384 0.781192,-2.001632 1.907512,-0.760799 0.862132,0.949789 1.866644,0.75577 1.978719,-0.382177 0.127713,-1.296702 1.854734,-0.562771 3.148183,1.337877 1.302231,1.913557 1.844051,4.006331 1.7224,6.65276 -0.101723,2.212765 -1.871037,2.124749 -2.651987,-0.131932 -0.645525,-1.865341 -1.982072,-2.376452 -2.211987,-0.845887 -0.08126,0.54064 -0.205743,1.235378 -0.276742,1.543861 -0.18252,0.793036 -3.558367,0.401188 -5.304444,-0.615711 -1.789714,-1.042305 -7.108015,-1.464528 -7.494542,-0.594982 -0.146031,0.328517 -0.01533,0.621945 0.290475,0.652063 0.522481,0.05146 1.030831,0.476364 2.536596,2.120204 0.345248,0.376909 0.863956,0.708552 1.152684,0.736989 0.288729,0.02844 1.096573,0.781334 1.795215,1.673108 0.698636,0.891776 1.622073,1.656056 2.052076,1.698407 0.430001,0.04235 0.881184,0.27989 1.002621,0.527857 0.121436,0.247973 1.215241,0.688305 2.43067,0.978519 1.215428,0.290222 2.677205,0.89286 3.248394,1.339199 1.784198,1.394222 5.023725,2.003123 6.513097,1.2242 1.179647,-0.616937 1.410254,-0.599607 2.311364,0.173617 0.917518,0.787337 1.101616,0.781487 2.208088,-0.07021 l 1.207118,-0.929171 0.57042,1.859789 c 0.313739,1.022875 0.667593,1.869351 0.786338,1.881048 0.118746,0.0117 0.651893,-0.704026 1.184761,-1.590499 1.177382,-1.95866 3.817907,-2.578812 4.689875,-1.101459 0.288683,0.489117 1.140662,1.120727 1.893288,1.403576 0.752619,0.282849 1.403595,0.895052 1.446616,1.360452 0.07617,0.824109 -2.753098,3.556912 -3.596473,3.473848 -0.232198,-0.02287 -0.884922,0.402234 -1.450483,0.944667 L 60.647411,44.63584 59.881332,43.472868 C 58.916942,42.008842 57.283,41.801145 56.80956,43.082403 c -0.239111,0.647082 -0.607486,0.838649 -1.119386,0.582104 -0.419653,-0.210315 -1.121035,-0.140265 -1.55862,0.155587 -0.658723,0.445405 -1.043754,0.207068 -2.237593,-1.385085 -1.264672,-1.686607 -1.816231,-2.000641 -4.485885,-2.554108 -1.785202,-0.370108 -3.062651,-0.440911 -3.089211,-0.171238 -0.04215,0.42795 1.979006,2.834149 2.416835,2.87727 0.108287,0.01067 1.240584,1.244412 2.516187,2.741656 1.275613,1.497248 2.574493,2.765855 2.886418,2.819133 1.87271,0.319873 3.500528,0.927459 3.604074,1.345238 0.06586,0.265659 0.306884,0.391358 0.535656,0.279327 0.22876,-0.112032 1.311459,0.664357 2.405994,1.725317 1.09454,1.060954 2.267718,1.958534 2.607068,1.994617 0.339356,0.03597 0.597583,0.262662 0.573863,0.503503 -0.02372,0.240833 0.937294,0.685122 2.135588,0.987295 1.198289,0.302178 2.287529,0.771614 2.420531,1.043185 0.459205,0.937666 1.647939,0.6284 2.065695,-0.537427 0.671993,-1.875352 1.759199,-1.774958 2.47909,0.228919 0.86209,2.399674 1.475505,2.319028 1.717346,-0.225777 z M 24.950569,26.974632 c 1.346778,0.132645 0.70551,-1.980664 -0.85646,-2.822491 l -1.478486,-0.79684 0.205836,1.656129 c 0.264761,2.130263 0.785208,3.256578 1.138826,2.464566 0.140868,-0.315521 0.586501,-0.541131 0.990284,-0.501364 z"
     style="fill:#000000;stroke-width:0.49636507" />
</svg>
