<?xml version="1.0" encoding="UTF-8" standalone="no"?>
<svg
   xmlns:dc="http://purl.org/dc/elements/1.1/"
   xmlns:cc="http://creativecommons.org/ns#"
   xmlns:rdf="http://www.w3.org/1999/02/22-rdf-syntax-ns#"
   xmlns:svg="http://www.w3.org/2000/svg"
   xmlns="http://www.w3.org/2000/svg"
   id="svgBG29"
   version="1.1"
   viewBox="0 0 100 100"
   height="100"
   width="100">
  <defs
     id="defs6029" />
  <metadata
     id="metadata6032">
    <rdf:RDF>
      <cc:Work
         rdf:about="">
        <dc:format>image/svg+xml</dc:format>
        <dc:type
           rdf:resource="http://purl.org/dc/dcmitype/StillImage" />
        <dc:title></dc:title>
      </cc:Work>
    </rdf:RDF>
  </metadata>
  <path
     id="pathBG29"
     d="m 47.918327,93.026875 c -0.41769,-0.169767 -0.926835,-0.559305 -1.131413,-0.865628 -0.241945,-0.362272 -0.380063,-0.291495 -0.395118,0.202487 -0.01826,0.598792 -0.132317,0.572013 -0.539204,-0.126575 -0.283833,-0.487309 -0.90662,-0.886013 -1.383976,-0.886013 -0.477359,0 -1.431152,-0.911334 -2.119553,-2.025191 -0.688396,-1.113849 -1.596555,-2.025352 -2.01813,-2.025543 -0.456635,-1.99e-4 -0.795435,-0.502533 -0.83807,-1.242537 -0.03938,-0.683197 -0.551993,-1.852925 -1.139163,-2.599396 -0.587177,-0.74648 -1.0676,-1.668257 -1.0676,-2.0484 0,-0.380145 -0.20248,-0.691168 -0.449954,-0.691168 -0.247476,0 -0.609441,-0.850184 -0.804383,-1.889288 -0.194933,-1.039119 -0.604542,-2.349157 -0.910219,-2.911211 -0.305677,-0.562055 -0.57576,-2.958494 -0.600164,-5.325435 -0.02442,-2.366938 -0.219522,-4.582377 -0.433595,-4.923194 -0.280532,-0.446639 -2.640057,-0.618974 -8.44991,-0.617139 -4.433379,0.0016 -8.467651,-0.207369 -8.96504,-0.46393 C 16.175447,64.332158 14.800774,63.698538 13.618028,63.180667 12.435262,62.662796 11.348207,61.873512 11.202362,61.426698 11.056506,60.979887 10.264839,59.954636 9.4430957,59.148364 8.621352,58.342094 7.9426869,57.410542 7.9349477,57.078248 7.9276953,56.74596 7.4627157,56.153164 6.9027095,55.760925 6.226645,55.28739 5.8814535,54.469661 5.875403,53.327306 5.8702227,52.381058 5.8065056,50.581604 5.7333811,49.328514 5.6602359,48.075432 5.8377943,45.869627 6.1278265,44.42672 c 0.5760442,-2.865881 3.3377412,-7.249324 4.5672645,-7.249324 0.423423,0 0.769879,-0.227831 0.769879,-0.506295 0,-0.278465 0.515994,-0.506302 1.146659,-0.506302 0.630665,0 2.00911,-0.462234 3.063198,-1.027192 2.319035,-1.242929 7.683144,-1.315648 9.050848,-0.122705 0.471045,0.410856 2.179801,0.918914 3.797232,1.129019 1.617423,0.210103 3.339488,0.552966 3.826798,0.761914 0.539029,0.231117 0.886019,0.160403 0.886019,-0.180566 0,-0.308254 0.371755,-0.56047 0.82611,-0.56047 0.686943,0 0.769638,-0.362471 0.490887,-2.151754 -1.067388,-6.851412 -0.475393,-16.429006 1.151505,-18.629495 0.591562,-0.800143 1.07558,-1.80577 1.07558,-2.234745 0,-0.428971 0.203733,-0.779944 0.452748,-0.779944 0.249014,0 1.184445,-0.683503 2.078736,-1.518893 0.894285,-0.835386 1.888826,-1.5188883 2.210086,-1.5188883 0.321261,0 0.874207,-0.4645083 1.228751,-1.0322402 0.35456,-0.5677321 0.865034,-0.8960369 1.134391,-0.7295642 0.269356,0.1664715 0.489736,0.039836 0.489736,-0.2813613 0,-0.4122479 1.079707,-0.5048179 3.670648,-0.314715 5.601405,0.4109837 8.986763,1.1291575 8.986763,1.9064723 0,0.2482698 0.442224,0.4514084 0.982721,0.4514084 0.540487,0 1.125817,0.2315469 1.300724,0.5145525 0.174908,0.2830118 0.530105,0.3834828 0.789327,0.2232688 0.259214,-0.1602044 0.471308,0.142514 0.471308,0.672719 0,0.530202 0.4503,1.371516 1.000658,1.869582 0.550357,0.498072 0.904411,1.061311 0.786775,1.251644 -0.117637,0.190344 0.127426,1.336745 0.544587,2.547568 0.417169,1.210822 0.839888,3.359937 0.939382,4.775805 0.0995,1.415874 0.23094,2.574312 0.292075,2.574312 0.210949,0 0.423864,3.05185 0.529819,7.594452 0.132441,5.677938 0.90059,7.359078 3.202743,7.009416 0.86028,-0.13066 2.703319,-0.30005 4.095641,-0.376413 1.392314,-0.07637 3.035498,-0.302616 3.651523,-0.50277 0.616026,-0.200154 1.533242,-0.142777 2.03826,0.1275 0.602459,0.322424 1.239141,0.311818 1.851456,-0.03085 0.532334,-0.297906 1.070461,-0.329143 1.252664,-0.07271 0.175692,0.247255 1.115743,0.524622 2.089004,0.61637 0.973262,0.09175 2.36834,0.476451 3.100163,0.854893 0.731829,0.378441 1.468774,0.549896 1.63766,0.381011 0.576948,-0.576941 4.797245,4.367369 5.151891,6.035727 0.193258,0.909163 0.714624,2.064479 1.158583,2.567368 0.689754,0.781313 0.708173,1.072904 0.126597,2.004155 -0.794377,1.271995 -2.087214,6.499172 -1.744569,7.053589 0.128844,0.208463 -0.348163,1.652318 -1.060008,3.208564 -1.327819,2.90292 -3.428064,5.29918 -4.644551,5.29918 -0.377035,0 -0.685516,0.212482 -0.685516,0.472181 0,0.259699 -0.39871,0.600075 -0.886021,0.756394 -0.487308,0.156318 -1.547994,0.85517 -2.357083,1.553003 -1.283654,1.107154 -3.120789,1.571929 -5.199188,1.315355 -0.327082,-0.04033 -0.739235,0.16046 -0.915896,0.446309 -0.376822,0.609712 -3.805524,0.71079 -3.805524,0.112196 0,-0.224142 -1.708757,-0.462092 -3.797232,-0.528764 -2.804941,-0.08955 -3.814742,0.05001 -3.86427,0.534109 -0.03688,0.36044 -0.143082,2.022331 -0.23602,3.69311 -0.241859,4.347706 -0.418811,5.167847 -1.334216,6.183529 -0.448422,0.497546 -0.9731,1.588129 -1.165942,2.423522 -1.105433,4.788458 -4.238225,8.777499 -7.143908,9.096457 -0.718592,0.07889 -1.4515,0.377401 -1.628687,0.663382 -0.390593,0.630428 -4.578411,1.206862 -5.638268,0.776083 z m 7.7722,-6.584654 c 0.844832,-1.198577 1.724384,-2.179237 1.954545,-2.179237 0.230169,0 0.275524,-0.569578 0.100798,-1.265738 -0.201189,-0.801595 -0.103755,-1.265739 0.265698,-1.265739 0.320857,0 0.525586,-0.284792 0.454955,-0.632869 -0.07061,-0.348084 0.136585,-1.110653 0.460477,-1.694597 0.937491,-1.690233 1.196391,-8.508738 0.367993,-9.691444 -0.981855,-1.401795 -0.777887,-5.239203 0.336681,-6.334347 0.961713,-0.944958 5.500739,-1.286444 5.500739,-0.413842 0,0.2597 0.39871,0.600078 0.886019,0.756398 0.487317,0.156318 1.52813,0.838092 2.312925,1.515059 1.237272,1.067278 1.910113,1.22584 5.06297,1.193164 1.999834,-0.02067 4.205644,-0.324999 4.901805,-0.676163 1.895822,-0.956313 4.921715,-2.248043 5.266058,-2.248043 0.677132,0 2.464392,-2.228388 3.182627,-3.968175 0.421023,-1.019829 1.055695,-2.195986 1.410387,-2.61368 0.640688,-0.754483 1.032364,-2.395989 1.52378,-6.386066 0.22178,-1.800749 0.02077,-2.391257 -1.485525,-4.363988 -3.095829,-4.05448 -4.399362,-4.512797 -13.063251,-4.592933 -5.09448,-0.04714 -7.635103,0.114206 -7.873609,0.499985 -0.288012,0.465825 -6.365822,0.947464 -9.074098,0.719077 -1.020069,-0.08601 -2.357165,-2.495013 -1.786832,-3.219273 0.761146,-0.966573 1.229771,-3.367646 1.802876,-9.237379 0.05441,-0.556927 0.326693,-1.200813 0.605159,-1.43086 0.329662,-0.272346 0.294618,-0.504818 -0.100464,-0.666354 -0.454311,-0.185764 -0.467408,-0.553929 -0.05213,-1.465356 0.408979,-0.897606 0.399826,-1.403778 -0.03484,-1.927529 -0.324208,-0.390648 -0.445328,-1.085902 -0.269151,-1.545017 0.176182,-0.459111 0.162023,-2.524112 -0.03146,-4.588881 -0.446611,-4.765988 -1.578104,-6.308836 -4.716998,-6.431825 -1.17492,-0.04601 -2.136235,-0.244153 -2.136235,-0.440253 0,-0.196102 -1.778362,-0.394515 -3.9519,-0.440909 l -3.9519,-0.08437 -1.669619,2.324913 c -0.918301,1.278697 -2.079639,2.710579 -2.580756,3.181961 -2.165098,2.036613 -2.478915,9.721437 -0.570773,13.977497 0.613554,1.36851 1.056308,2.849432 0.983894,3.290927 -0.07237,0.441496 0.02721,1.055499 0.221354,1.364452 0.352344,0.56069 -2.225566,3.235491 -3.118296,3.235491 -0.258746,0 -0.620572,0.683503 -0.804051,1.518894 -0.183487,0.835385 -0.657259,1.518888 -1.052832,1.518888 -0.395565,0 -0.719209,0.227833 -0.719209,0.506297 0,0.278463 -0.569586,0.506296 -1.265747,0.506296 -0.696153,0 -1.265731,-0.227833 -1.265731,-0.506296 0,-0.278464 -0.306322,-0.506297 -0.680702,-0.506297 -0.37438,0 -1.342678,-0.569307 -2.151759,-1.265126 -1.233438,-1.060755 -2.00268,-1.26907 -4.761994,-1.28955 -1.81001,-0.01343 -4.54402,-0.08633 -6.075559,-0.161988 -2.410992,-0.119099 -3.03802,0.05856 -4.673012,1.32398 -2.119418,1.640374 -2.911043,3.830971 -2.698819,7.468244 0.34025,5.831535 1.95851,10.125934 3.815755,10.125934 0.311654,0 1.076685,0.55035 1.700076,1.223001 1.089517,1.175605 1.431345,1.228518 8.820754,1.365394 4.228018,0.07831 7.82346,0.0062 7.989867,-0.160164 0.443187,-0.443193 3.826454,0.585317 4.656801,1.415665 0.392024,0.392025 1.048235,0.712773 1.458246,0.712773 0.410012,0 0.698376,0.284793 0.640803,0.63287 -0.05757,0.348079 0.0649,1.234874 0.272159,1.97066 0.246316,0.874478 0.105654,1.862164 -0.406176,2.851924 -0.86804,1.678618 -0.88789,1.493187 0.876801,8.191518 0.693602,2.632732 1.621193,5.050101 2.061329,5.371933 0.440136,0.321831 0.800246,0.830758 0.800246,1.130957 0,0.300192 0.68467,1.295422 1.521485,2.211627 0.836824,0.916187 1.645274,2.055813 1.796555,2.532474 0.277357,0.873877 1.547364,1.152971 5.495868,1.207786 1.769341,0.02457 2.141559,-0.203293 3.514969,-2.151758 z m -6.32898,-3.600487 c -1.539209,-1.564406 -2.233712,-3.406308 -1.463811,-3.882133 0.772233,-0.477262 0.64249,-2.407007 -0.247226,-3.677262 -0.9957,-1.421559 -0.522119,-3.353862 1.024908,-4.181805 1.022612,-0.547287 1.401304,-0.481663 2.746035,0.475875 1.777988,1.266041 1.841748,1.488099 0.816495,2.843595 -1.023308,1.35295 -0.964615,1.828621 0.490198,3.972402 1.571314,2.315455 1.591935,3.362449 0.09395,4.769737 -1.47627,1.386873 -1.811279,1.355855 -3.460549,-0.320409 z M 48.619474,68.458671 c -1.854492,-1.424227 -2.202702,-1.927243 -2.212285,-3.195864 -0.0084,-1.122095 1.615347,-2.770577 2.729131,-2.770577 0.385058,0 1.400946,0.654682 2.257531,1.454855 l 1.557432,1.454851 -1.009405,2.089224 c -0.555169,1.149071 -1.201194,2.089223 -1.435602,2.089223 -0.234415,0 -1.083469,-0.504769 -1.886802,-1.121712 z M 47.868308,57.882016 c -2.454502,-2.627565 -1.789705,-4.775442 1.650305,-5.3319 1.457183,-0.235713 1.850262,-0.05725 2.846512,1.292324 1.279517,1.733318 0.997372,2.931868 -1.103628,4.688185 -1.447179,1.209757 -1.702868,1.160884 -3.393189,-0.648609 z M 31.813271,54.357755 c -1.475302,-2.362342 -1.602383,-3.390238 -0.579859,-4.690169 1.42384,-1.810123 4.406247,-1.782993 4.864855,0.04424 l 0.32494,1.294647 0.979972,-1.345278 c 0.576785,-0.791797 1.465988,-1.345284 2.161285,-1.345284 0.649735,0 1.282978,-0.284791 1.407221,-0.632872 0.270274,-0.757236 2.896275,1.465011 2.896275,2.450973 0,0.345947 0.284792,0.73192 0.632869,0.857711 0.42071,0.152038 0.142877,0.751345 -0.828764,1.787714 -1.20519,1.28547 -1.738161,1.510088 -3.037779,1.280255 -0.866882,-0.153313 -2.113481,-0.866315 -2.770234,-1.584452 -0.970636,-1.061363 -1.270894,-1.168457 -1.604525,-0.572279 -0.630757,1.127089 -2.925452,3.501106 -3.384132,3.501106 -0.22478,0 -0.702732,-0.470847 -1.062124,-1.046324 z m 32.793739,0.130056 c -0.407181,-0.125651 -1.133224,-0.570528 -1.613435,-0.988615 -0.624678,-0.543876 -1.448968,-0.668069 -2.897095,-0.4365 -1.824207,0.291703 -2.111691,0.185845 -2.912428,-1.072395 -0.488636,-0.767821 -1.121535,-1.563428 -1.406431,-1.768013 -0.335478,-0.240904 -0.306842,-0.3747 0.08126,-0.37972 0.329575,-0.0043 0.67133,-0.62061 0.759437,-1.369656 0.13027,-1.107437 0.456862,-1.395253 1.747972,-1.540422 0.998532,-0.112272 1.897891,0.131607 2.423457,0.657169 0.459633,0.459632 1.453889,0.865196 2.209461,0.901261 0.755574,0.03607 1.52164,0.272475 1.702392,0.525357 0.180743,0.252888 0.750322,0.278448 1.265739,0.05681 2.019684,-0.868519 2.572278,-0.715229 3.476873,0.964487 0.90351,1.677717 0.90068,1.704965 -0.307634,2.962446 -1.227329,1.277281 -3.157404,1.911235 -4.529567,1.487794 z m 15.731181,-1.207448 c -1.01316,-1.087499 -0.980162,-2.966062 0.0591,-3.364184 0.246631,-0.09448 0.729137,-0.441651 1.072249,-0.771499 0.791703,-0.761108 1.35551,-0.72106 2.775586,0.197144 1.41749,0.916523 1.44355,1.994658 0.08982,3.715641 -1.278476,1.625313 -2.620486,1.700157 -3.996755,0.222898 z M 20.084105,52.149791 c -0.838305,-2.540093 0.100443,-3.833867 2.781805,-3.833867 2.29619,0 3.787962,1.258431 3.787962,3.195458 0,1.741803 -0.960069,2.373806 -3.606075,2.373806 -2.273985,0 -2.418981,-0.08491 -2.963692,-1.735397 z M 71.91011,51.052449 c -0.251684,-1.002777 -0.02955,-1.614077 0.938282,-2.581892 1.236503,-1.2365 1.294844,-1.245095 2.345301,-0.345667 0.692097,0.592595 1.07725,1.515701 1.07725,2.581887 0,1.597251 -0.07562,1.659521 -2.015541,1.659521 -1.747344,0 -2.059422,-0.174826 -2.345292,-1.313849 z M 12.480051,48.321938 c -0.563653,-1.360765 -0.506194,-1.639852 0.571454,-2.77588 1.275856,-1.344983 3.170377,-1.679023 3.794567,-0.669055 1.318862,2.133962 -0.04496,4.957813 -2.394416,4.957813 -1.015859,0 -1.498286,-0.370179 -1.971605,-1.512878 z m 34.968734,0.178856 c -1.159263,-1.473756 -1.341796,-3.249063 -0.496475,-4.828564 0.401316,-0.749852 0.396057,-1.655801 -0.01914,-3.304775 -0.723514,-2.873305 -0.373596,-3.955794 1.596414,-4.938564 1.49835,-0.747475 1.648757,-0.724054 3.26437,0.508226 1.894714,1.445171 2.065603,2.227118 0.881634,4.034086 -0.678069,1.034864 -0.720396,1.637424 -0.256596,3.652841 0.612593,2.661953 0.560272,3.387159 -0.365868,5.071605 -0.896081,1.629779 -3.247342,1.530274 -4.604325,-0.194855 z m 0.882823,-16.745765 c -0.987677,-0.150958 -1.437625,-0.579634 -1.64751,-1.569606 -0.377886,-1.782451 -0.03124,-4.261672 0.776795,-5.555533 0.753292,-1.206226 3.187659,-1.82903 4.468906,-1.143324 0.777037,0.415856 0.836824,0.871353 0.468214,3.566698 -0.470237,3.438451 -1.167432,5.099413 -2.092588,4.985308 -0.338279,-0.04172 -1.226501,-0.169321 -1.973817,-0.283543 z m 0.979965,-11.918297 c -0.191877,-0.487304 -0.754723,-0.887457 -1.25078,-0.889215 -0.49605,-0.0016 -1.297447,-0.698194 -1.780877,-1.547632 -0.834417,-1.466164 -0.834417,-1.592209 0,-2.487206 1.497229,-1.605917 3.28197,-1.747872 4.759493,-0.378554 1.606482,1.488838 1.634275,3.458864 0.05852,4.15035 -0.618145,0.271267 -1.194461,0.840847 -1.280705,1.265743 -0.128835,0.634775 -0.219017,0.614536 -0.50568,-0.113486 z"
     style="fill:#000000;stroke-width:0.50629669" />
</svg>
