<?xml version="1.0" encoding="UTF-8" standalone="no"?>
<svg
   xmlns:dc="http://purl.org/dc/elements/1.1/"
   xmlns:cc="http://creativecommons.org/ns#"
   xmlns:rdf="http://www.w3.org/1999/02/22-rdf-syntax-ns#"
   xmlns:svg="http://www.w3.org/2000/svg"
   xmlns="http://www.w3.org/2000/svg"
   id="svgBG3"
   version="1.1"
   viewBox="0 0 100 100"
   height="100"
   width="100">
  <defs
     id="defs6029" />
  <metadata
     id="metadata6032">
    <rdf:RDF>
      <cc:Work
         rdf:about="">
        <dc:format>image/svg+xml</dc:format>
        <dc:type
           rdf:resource="http://purl.org/dc/dcmitype/StillImage" />
        <dc:title></dc:title>
      </cc:Work>
    </rdf:RDF>
  </metadata>
  <path
     id="pathBG3"
     d="m 28.514331,92.244239 c -0.798124,-0.881922 -0.574227,-1.627558 0.992235,-3.304465 1.03948,-1.112767 1.154345,-1.507654 1.154345,-3.968457 0,-1.503 -0.179909,-2.84392 -0.399801,-2.97982 -0.219891,-0.1359 -0.399801,-0.740224 -0.399801,-1.342939 0,-0.602716 -0.148625,-1.266762 -0.330282,-1.475657 -0.39814,-0.457837 -1.15007,-3.042386 -1.454652,-4.999942 -0.121669,-0.781952 -0.579429,-2.124339 -1.017247,-2.983092 -0.437818,-0.858752 -0.796029,-1.793191 -0.796029,-2.076533 0,-0.283343 -0.156731,-0.515168 -0.348293,-0.515168 -0.191562,0 -0.472131,-0.94453 -0.623482,-2.098954 -0.151357,-1.154426 -0.59447,-2.643372 -0.984701,-3.308769 -0.390219,-0.665396 -0.82932,-2.356135 -0.975758,-3.757194 -0.146438,-1.401057 -0.456016,-2.776029 -0.687947,-3.055489 -0.693604,-0.835736 -0.526221,-7.678365 0.205726,-8.410313 0.338718,-0.338715 0.615852,-0.961288 0.615852,-1.383499 0,-0.422213 0.359817,-0.992369 0.799598,-1.267016 0.439782,-0.274647 0.798716,-0.770928 0.797625,-1.102843 -0.004,-1.299057 1.393265,-4.408607 2.079204,-4.626314 0.39676,-0.125928 0.721381,-0.48037 0.721381,-0.787652 0,-0.307281 0.357699,-0.750126 0.79488,-0.9841 0.437187,-0.233974 0.906802,-0.87132 1.043585,-1.416323 0.354894,-1.414004 -2.387648,-4.130179 -4.510983,-4.467618 -0.838966,-0.133328 -1.904841,-0.487829 -2.368616,-0.787778 -0.463765,-0.29995 -1.120237,-0.439063 -1.458809,-0.309137 -0.338572,0.129923 -0.73436,0.04405 -0.879529,-0.190832 -0.153839,-0.248911 -1.68763,-0.427056 -3.676885,-0.427056 -2.809553,0 -3.618227,0.146178 -4.574113,0.826826 -0.638637,0.454755 -1.161167,0.731013 -1.161167,0.613909 0,-0.117104 -0.774351,0.119005 -1.7207626,0.524686 C 7.6638043,32.905444 7.607432,32.904487 6.5512981,32.135144 5.958484,31.703307 5.4734542,31.170383 5.4734542,30.950866 c 0,-0.43033 2.7987322,-4.043629 3.3054913,-4.267545 0.4189893,-0.185136 1.1452019,-0.971983 2.0478745,-2.218858 0.415608,-0.574092 1.024193,-1.043803 1.3524,-1.043803 0.328226,0 0.947943,-0.404798 1.377172,-0.899552 0.714597,-0.823699 1.124286,-0.899188 4.858522,-0.895231 3.553688,0.0038 4.191133,0.109607 4.95691,0.823039 0.483334,0.450293 2.276128,1.224081 3.983985,1.719526 3.467443,1.005896 5.566889,2.595498 6.96133,5.270791 0.452274,0.867704 1.074015,1.577644 1.381651,1.577644 0.307629,0 0.55933,0.17358 0.55933,0.385734 0,0.693428 1.620217,1.272388 2.822056,1.008419 1.437988,-0.315835 1.481765,-0.819149 0.176456,-2.028868 -0.562214,-0.521041 -0.999506,-1.371952 -0.999506,-1.9449 0,-1.519699 2.759593,-4.094993 4.989819,-4.65657 1.676467,-0.42214 1.8068,-0.54826 1.8068,-1.748417 0,-0.827038 0.342901,-1.638893 0.95092,-2.251393 2.437921,-2.455893 3.837701,-3.490859 5.088586,-3.762381 0.746242,-0.161982 1.469154,-0.470871 1.606469,-0.686419 0.651726,-1.023066 10.881309,-0.955519 12.129143,0.08009 0.232508,0.192966 1.530038,0.476122 2.883404,0.629238 1.933753,0.218779 2.502762,0.439383 2.657269,1.030216 0.108134,0.413502 0.488109,0.751822 0.844392,0.751822 1.041269,0 3.39077,2.405818 4.252928,4.354873 1.309887,2.961224 2.640727,4.440747 3.994471,4.440747 2.092445,0 4.877043,1.688549 8.225424,4.987808 l 3.255874,3.208111 0.203562,4.048659 c 0.111963,2.226764 0.378159,4.385689 0.591554,4.797612 0.457369,0.882836 0.322093,11.277968 -0.191825,14.741982 -0.451749,3.044944 -1.632525,5.717221 -2.671985,6.047134 -0.443427,0.140737 -0.868411,0.06931 -0.944425,-0.158718 -0.07601,-0.228034 -0.579804,-0.92657 -1.119547,-1.552307 -0.539737,-0.625736 -1.082331,-1.452544 -1.205775,-1.837353 -0.123436,-0.384808 -0.392221,-0.699652 -0.597294,-0.699652 -0.205067,0 -0.372858,-0.344827 -0.372858,-0.766286 0,-0.421454 -0.151969,-0.826252 -0.337712,-0.899551 -0.18575,-0.0733 -0.592184,-0.671359 -0.903196,-1.329027 -0.311012,-0.657668 -1.058594,-1.432107 -1.661287,-1.720971 -0.602701,-0.288864 -1.09581,-0.754856 -1.09581,-1.035536 0,-0.63843 -1.354164,-1.314542 -3.258186,-1.626754 -0.802492,-0.131587 -1.663592,-0.485675 -1.91356,-0.786861 -0.332844,-0.401055 -1.684879,-0.557786 -5.051954,-0.585632 -3.69572,-0.03055 -4.943254,-0.195538 -6.360376,-0.841113 -1.128979,-0.514308 -2.611092,-0.803093 -4.121676,-0.803093 -1.810075,0 -2.518774,-0.176795 -3.046575,-0.760008 -0.378292,-0.418008 -1.28765,-0.872546 -2.020795,-1.010081 -0.733152,-0.13754 -1.560406,-0.524084 -1.838347,-0.858985 -0.681551,-0.821215 -3.901485,-2.259807 -4.386745,-1.9599 -0.556624,0.344017 -0.09074,1.984177 1.460694,5.142443 1.1342,2.308887 1.352049,3.190847 1.352049,5.473667 0,1.496711 -0.17991,2.832485 -0.399802,2.968385 -0.21989,0.135901 -0.403801,0.641273 -0.408687,1.123049 -0.0046,0.481776 -0.360713,1.325732 -0.790716,1.875459 -1.005207,1.285088 -1.005207,2.610995 0,3.888915 0.439782,0.559089 0.799602,1.247139 0.799602,1.528998 0,0.281856 0.219623,0.585673 0.488046,0.675148 0.351859,0.117286 0.461437,1.358412 0.392707,4.447901 -0.0866,3.892722 -0.256568,4.732803 -1.345592,6.650476 -0.187312,0.329836 -0.564145,1.046051 -0.837415,1.591588 -0.745967,1.489214 -3.666704,4.405426 -4.412257,4.405426 -0.359793,0 -0.842591,0.352081 -1.072892,0.782401 -0.245743,0.459164 -1.036118,0.892501 -1.91312,1.048898 -0.82192,0.146573 -1.854222,0.559111 -2.293997,0.916758 -1.506166,1.224844 -2.589206,1.649762 -4.205034,1.649762 -1.068677,0 -1.695233,0.203401 -1.847306,0.599692 -0.12657,0.329844 -0.435763,0.607007 -0.687102,0.615948 -0.25134,0.0087 -1.079869,0.548678 -1.841178,1.199404 -1.630555,1.393738 -1.690299,1.404026 -2.561482,0.441378 z m 7.743789,-6.25473 c 0.273744,-0.329835 0.740075,-0.599704 1.036295,-0.599704 0.296227,0 1.179219,-0.359822 1.962217,-0.799602 0.782991,-0.439781 1.777972,-0.799603 2.211067,-0.799603 0.433089,0 0.787438,-0.179909 0.787438,-0.399801 0,-0.21989 0.35982,-0.3998 0.799603,-0.3998 0.439781,0 0.799602,-0.16523 0.799602,-0.367178 0,-0.201947 0.71964,-1.116179 1.599204,-2.031627 0.879557,-0.915448 1.599204,-1.838374 1.599204,-2.050943 0,-0.212566 0.35982,-1.131233 0.799596,-2.041475 0.531907,-1.100912 0.799602,-2.473181 0.799602,-4.098887 0,-2.314364 -0.643574,-4.592386 -1.299352,-4.599206 -0.164915,-0.0015 -0.299846,-0.430866 -0.299846,-0.953669 0,-0.522799 -0.269868,-1.174515 -0.599705,-1.448255 -0.880497,-0.730749 -0.733263,-2.203123 0.399801,-3.998009 0.549728,-0.870823 0.9995,-1.846136 0.9995,-2.167365 0,-0.321228 0.187076,-0.699671 0.415729,-0.840981 0.452137,-0.279441 0.335163,-5.16965 -0.134905,-5.63972 -0.154452,-0.154451 -0.280824,-0.706943 -0.280824,-1.227756 0,-0.996624 -0.856752,-2.519977 -2.19778,-3.907762 -0.440399,-0.455753 -1.491426,-1.607152 -2.33562,-2.558658 -0.844201,-0.951506 -1.743751,-1.761778 -1.999006,-1.800599 -0.25526,-0.03882 -0.645387,-0.184124 -0.866952,-0.322899 -0.221566,-0.138771 -1.085426,-0.380363 -1.919695,-0.536873 -1.110187,-0.208272 -2.073364,-0.861108 -3.592685,-2.435102 -2.181274,-2.259764 -3.879896,-2.865913 -3.879896,-1.384532 0,0.856825 2.760034,3.232002 3.755691,3.232002 0.353165,0 0.642115,0.179911 0.642115,0.399801 0,0.219891 0.340576,0.399801 0.75683,0.399801 0.789349,0 1.242175,0.735518 1.242175,2.017635 0,0.841121 -1.554842,1.876798 -1.949895,1.298825 -0.595599,-0.87137 -2.325918,-1.717256 -3.512777,-1.717256 -1.586015,0 -1.852107,0.381102 -1.222878,1.751444 0.35525,0.773666 1.026844,1.225542 2.46026,1.655359 1.084387,0.325162 2.217458,0.591206 2.517928,0.591206 0.300476,0 0.966152,0.488084 1.479281,1.084636 2.007971,2.334406 -1.097176,4.18851 -3.20524,1.91387 -0.509471,-0.549725 -1.204762,-0.999502 -1.545095,-0.999502 -0.949529,0 -0.735201,1.350464 0.380708,2.398805 0.549726,0.516443 0.999506,1.162409 0.999506,1.435486 0,0.273072 0.528984,0.730652 1.175527,1.016842 1.942106,0.859655 2.022152,3.144885 0.110162,3.144885 -0.659765,0 -1.397421,-0.443035 -2.060904,-1.237779 -0.808896,-0.968922 -1.443268,-1.283985 -2.920573,-1.450498 -1.520222,-0.171351 -1.936916,-0.08325 -2.142718,0.453067 -0.312135,0.813406 0.882999,2.23521 1.878859,2.23521 0.392727,0 0.825239,0.179912 0.961135,0.399802 0.135903,0.219889 0.568768,0.399801 0.961922,0.399801 0.393161,0 1.14716,0.380565 1.67556,0.845703 0.528401,0.465136 1.365528,1.115516 1.860279,1.445283 1.113747,0.74235 1.155659,1.754542 0.09995,2.413842 -0.831445,0.519246 -1.053261,1.655165 -0.451414,2.311677 0.191496,0.208896 0.45973,0.854387 0.59606,1.434422 0.216889,0.922761 0.110884,1.073094 -0.847932,1.202454 -1.878971,0.253509 -2.71971,-0.05341 -3.427226,-1.25113 -0.635896,-1.076491 -2.077988,-1.927212 -2.519123,-1.486083 -0.105906,0.10591 -0.04735,0.73369 0.130084,1.395064 0.211194,0.787145 1.078455,1.768968 2.510788,2.842449 1.203475,0.901971 2.327916,1.662436 2.498756,1.689923 0.170832,0.02746 0.484688,0.07246 0.697446,0.09995 0.855682,0.110544 2.011964,1.499206 2.011964,2.416309 0,0.972436 -0.920523,2.231377 -1.631559,2.231377 -0.206275,0 -0.868089,-0.712814 -1.470698,-1.584032 -1.353158,-1.956317 -2.494952,-2.141701 -2.494952,-0.405078 0,0.892643 0.239845,1.300488 0.915979,1.557557 0.503795,0.19154 1.155507,0.636862 1.448259,0.989603 0.292753,0.352744 0.677684,0.641353 0.8554,0.641353 0.177717,0 0.957673,0.404798 1.733229,0.899551 2.503964,1.597364 1.531749,4.258599 -1.063828,2.911998 -1.518758,-0.787939 -2.289834,0.04137 -2.289834,2.462758 0,1.093535 0.119936,2.108187 0.266532,2.25478 0.500866,0.50086 2.833045,0.26764 3.331671,-0.333166 z m 4.597716,-4.73323 c -1.607579,-2.030182 -1.764533,-3.426046 -0.573347,-5.098914 0.808634,-1.135614 0.846113,-1.145296 1.786537,-0.461517 0.802775,0.583694 0.962645,1.047949 0.973148,2.825948 0.01583,2.676775 -1.113557,4.089284 -2.186338,2.734483 z m -1.299359,-7.745743 c -0.787155,-0.149086 -0.89955,-0.414901 -0.89955,-2.127505 0,-1.57248 0.163293,-2.044521 0.830841,-2.401784 1.523446,-0.815321 2.019754,-0.216168 1.887911,2.279154 -0.123641,2.340199 -0.285647,2.540578 -1.819202,2.250135 z m 0.360117,-7.551896 c -1.342196,-1.518023 0.751279,-5.085607 2.754561,-4.694162 0.85356,0.166789 1.024623,0.432936 1.071493,1.667126 0.06003,1.580301 -0.391288,2.379032 -1.789919,3.167807 -1.117655,0.630314 -1.369776,0.612883 -2.036135,-0.140771 z m 0.4915,-7.312841 c -0.451099,-0.365275 -0.935985,-1.125568 -1.077537,-1.689547 -0.206065,-0.82104 -0.06339,-1.129214 0.715778,-1.546223 0.8274,-0.442807 1.125558,-0.420946 1.990776,0.145968 1.263154,0.827648 1.304423,2.22121 0.09183,3.100692 -0.83429,0.605095 -0.961134,0.60429 -1.720848,-0.01088 z m -0.451815,-7.503792 c -1.410158,-1.584299 -1.579677,-2.203331 -0.784161,-2.863551 0.620185,-0.514702 3.528351,-0.736077 4.201824,-0.319852 0.955433,0.590494 0.318276,2.940839 -1.118805,4.127077 -0.836857,0.690776 -0.8482,0.686118 -2.298858,-0.943674 z m -8.495766,11.691745 c 0,-0.916631 -0.662884,-1.432002 -1.84188,-1.432002 -1.566764,0 -1.747107,0.416553 -0.456978,1.05551 0.915492,0.453411 2.298858,0.67997 2.298858,0.376492 z m 57.86336,-10.627423 c 0.0507,-3.408303 -0.08058,-6.646691 -0.291688,-7.196416 -0.211109,-0.549727 -0.464958,-2.744685 -0.564105,-4.877685 -0.173079,-3.723396 -0.233237,-3.93624 -1.507407,-5.332864 -0.729926,-0.800076 -1.471012,-1.708574 -1.646857,-2.018883 -0.175844,-0.310308 -0.559953,-0.564197 -0.853567,-0.564197 -0.293625,0 -0.812147,-0.424725 -1.152282,-0.943832 -0.526713,-0.803871 -1.036597,-0.973753 -3.438445,-1.145604 -3.07645,-0.220119 -3.807046,-0.613124 -4.603726,-2.476448 -0.289533,-0.677176 -0.99856,-1.770961 -1.575617,-2.430632 -0.577057,-0.659672 -1.049418,-1.451927 -1.049686,-1.760568 -7.88e-4,-0.720129 -3.01906,-3.513893 -4.61439,-4.270925 -3.144087,-1.491968 -11.476832,-2.066929 -14.976342,-1.033371 -3.691828,1.090359 -3.763178,1.168786 -4.122256,4.531463 l -0.324156,3.03555 1.421693,1.548029 c 1.023945,1.114932 1.422229,1.915065 1.423602,2.859931 0.0019,1.4947 0.885016,2.076479 2.048452,1.349902 1.041706,-0.650553 2.333137,-0.575542 2.61222,0.151727 0.17486,0.455685 0.714406,0.58492 2.086406,0.499751 1.742057,-0.108139 1.857795,-0.05226 1.974017,0.953021 0.09371,0.810574 -0.291638,1.493595 -1.599203,2.834563 -0.947469,0.971668 -2.03751,1.879774 -2.422315,2.018015 -0.384814,0.13824 -0.699654,0.526858 -0.699654,0.863595 0,0.336736 -0.224889,0.618806 -0.49975,0.626819 -0.562601,0.0164 -2.701976,2.676713 -2.692538,3.348167 0.01826,1.298302 2.615789,2.360541 3.043944,1.244792 0.128639,-0.335237 0.47818,-0.60952 0.776752,-0.60952 0.298573,0 0.753439,-0.393469 1.010812,-0.874369 0.257371,-0.480904 0.626315,-1.065614 0.819875,-1.299354 0.193559,-0.23374 0.753933,-0.905986 1.245272,-1.493879 0.491339,-0.587893 1.343119,-1.712906 1.892845,-2.500029 0.738264,-1.057081 1.250201,-1.404676 1.958681,-1.329909 1.266532,0.133659 2.077542,1.374805 1.239727,1.897249 -0.529141,0.329961 -0.524347,0.449336 0.04072,1.014561 0.587428,0.587592 0.762116,0.572246 2.111117,-0.185442 2.050139,-1.151493 3.045579,-1.089629 3.045579,0.189277 0,0.99127 0.05918,1.012575 2.498755,0.899551 2.281706,-0.105709 2.509222,-0.04243 2.619267,0.728478 0.08933,0.625799 -0.234224,1.012573 -1.250465,1.494808 -0.754031,0.357814 -1.67235,1.110535 -2.040706,1.67272 -0.368357,0.562184 -1.090162,1.213707 -1.604011,1.447835 -1.225305,0.558286 -2.076165,2.3287 -1.34275,2.793905 0.905748,0.574509 1.397748,0.377687 2.426111,-0.970569 0.550718,-0.722029 1.739426,-1.666558 2.641573,-2.098955 0.902146,-0.432397 1.642332,-0.921109 1.644854,-1.086027 0.0075,-0.482956 1.799319,-0.344201 2.32343,0.17991 0.64184,0.64184 0.609669,1.519244 -0.0557,1.519244 -0.294507,0 -1.081774,0.600352 -1.749486,1.334119 -1.129202,1.24091 -1.163738,1.365524 -0.494331,1.783576 0.946297,0.590969 3.179079,-0.464093 3.179079,-1.50222 0,-0.433596 0.555343,-0.988291 1.382322,-1.38072 0.760278,-0.360773 1.490532,-0.831051 1.622797,-1.045056 0.132264,-0.214006 0.769592,-0.389102 1.416286,-0.389102 0.969785,0 1.175811,0.165685 1.175811,0.945585 0,1.098029 -1.407742,3.052424 -2.198641,3.052424 -0.297777,0 -0.806919,0.532247 -1.131449,1.182767 -0.520859,1.044092 -0.520367,1.240594 0.0046,1.675969 0.753329,0.625205 1.634357,0.121048 2.726153,-1.560023 0.522522,-0.804527 1.32179,-1.367347 2.306504,-1.624167 1.318085,-0.343765 1.559513,-0.294697 1.926801,0.391581 0.447499,0.836168 -0.102812,1.923035 -0.9839,1.943192 -0.247937,0.0056 -0.783307,0.73128 -1.189709,1.612461 -0.707548,1.534152 -0.70923,1.665223 -0.0396,3.088146 1.094719,2.326138 2.290254,3.670545 3.177298,3.572962 0.756961,-0.08328 0.804516,-0.418448 0.891735,-6.284879 z m -8.388,-12.084263 c -1.215331,-1.416371 -1.332928,-1.915171 -0.619692,-2.62841 0.715089,-0.715087 2.103927,-0.580306 2.882228,0.279708 0.515165,0.569252 0.619679,1.119992 0.417272,2.198905 -0.341652,1.821168 -1.204296,1.869389 -2.679808,0.149797 z m -5.88269,-3.044626 c -1.851241,-0.992828 -2.284134,-1.749999 -1.714857,-2.999421 0.396451,-0.870119 0.669143,-0.981778 2.114198,-0.865703 2.018579,0.162142 3.584299,1.483562 3.584299,3.025038 0,0.785234 -0.247379,1.149377 -0.899558,1.324154 -1.337132,0.358339 -1.586226,0.319242 -3.084082,-0.484068 z M 67.85646,32.642368 c -1.04552,-1.953577 -0.340651,-3.624492 1.528987,-3.624492 0.761936,0 2.055155,1.336235 2.055155,2.123515 0,0.283344 0.209209,0.724378 0.464905,0.980075 0.35334,0.353338 0.203178,0.564412 -0.625728,0.879562 -1.671231,0.635402 -2.963789,0.49998 -3.423319,-0.35866 z m -3.212472,-2.82489 c 0,-0.21989 -0.229883,-0.399801 -0.51085,-0.399801 -0.711714,0 -1.887956,-1.458755 -1.887956,-2.341411 0,-0.980484 1.327959,-2.13539 2.110209,-1.835214 0.91899,0.352652 1.999224,2.878648 1.715118,4.01061 -0.23176,0.923406 -1.426521,1.397298 -1.426521,0.565816 z m -10.2657,-4.49776 c -0.243497,-0.548943 -0.264055,-1.405988 -0.05274,-2.198905 0.393731,-1.477422 0.346618,-1.453798 1.683999,-0.844445 1.18148,0.538316 1.919336,2.297437 1.373075,3.273549 -0.56705,1.013257 -2.519111,0.863686 -3.004339,-0.230199 z M 27.270869,51.125379 c 0.751135,-1.79772 0.634608,-2.659396 -0.386232,-2.855993 -1.051947,-0.202584 -1.820941,0.985765 -1.820941,2.813954 0,1.252829 0.140803,1.522789 0.794236,1.522789 0.538121,0 0.993746,-0.477493 1.412937,-1.48075 z m 35.941116,-3.159735 c 0.347822,-0.133469 0.632401,-0.470102 0.632401,-0.748067 0,-0.277965 0.621765,-0.931432 1.381703,-1.452149 1.253001,-0.858568 3.005488,-3.698006 2.558359,-4.145135 -0.100683,-0.100683 -0.809542,0.100899 -1.575244,0.44796 -0.894898,0.405623 -1.879428,1.400719 -2.756256,2.785841 -0.750234,1.185154 -1.598763,2.154823 -1.885617,2.154823 -0.286853,0 -0.521552,0.269866 -0.521552,0.599701 0,0.615627 1.043932,0.787684 2.166206,0.357026 z M 47.852346,43.434305 c 0,-0.47171 -0.779747,-0.976313 -1.066134,-0.689933 -0.286382,0.286386 0.218222,1.066138 0.689932,1.066138 0.206912,0 0.376202,-0.169292 0.376202,-0.376205 z m -1.793349,-4.426181 c 0.316569,-0.26273 1.044972,-1.437084 1.618667,-2.609676 0.995605,-2.034945 1.019894,-2.237788 0.533648,-4.456429 -0.280187,-1.278443 -0.614168,-2.414397 -0.742183,-2.524342 -0.128015,-0.109945 -0.451335,-0.697304 -0.718484,-1.305241 -0.527284,-1.199909 -2.103283,-2.129607 -3.016207,-1.779285 -0.441122,0.169272 -0.566626,1.086335 -0.552788,4.039023 0.02306,4.916747 -0.356339,5.442318 -3.928604,5.442318 -2.089457,0 -2.647598,-0.156843 -3.556843,-0.999502 -0.593163,-0.549727 -1.249118,-0.999503 -1.457686,-0.999503 -0.208561,0 -0.379196,-0.27032 -0.379196,-0.600711 0,-0.641424 -4.922023,-5.796104 -5.534496,-5.796104 -0.200542,0 -0.588585,-0.269865 -0.862323,-0.599701 -0.273737,-0.329835 -0.925456,-0.599701 -1.448253,-0.599701 -0.522804,0 -0.950553,-0.158084 -0.950553,-0.351297 0,-0.788324 -2.719747,-1.408413 -6.205167,-1.414748 -3.286726,-0.006 -3.778924,0.09245 -4.899113,0.979652 -0.684914,0.542461 -1.25566,1.076248 -1.268322,1.186194 -0.01269,0.109945 1.709632,0.142035 3.827305,0.07131 2.377447,-0.0794 4.014218,0.0353 4.278767,0.299851 0.235642,0.235641 0.819572,0.428439 1.297627,0.428439 0.893537,0 4.663104,1.906139 4.901274,2.478405 0.07331,0.176111 0.386619,0.320202 0.696264,0.320202 0.309646,0 0.787708,0.359821 1.062357,0.799601 0.274651,0.439781 0.759347,0.799603 1.07711,0.799603 0.317764,0 1.431202,0.719641 2.474315,1.599204 1.043106,0.879561 2.179126,1.599203 2.524483,1.599203 0.345358,0 0.631764,0.314843 0.636461,0.699651 0.0083,0.683275 2.353676,2.607491 4.376321,3.590523 1.211607,0.588853 5.388753,0.389298 6.215619,-0.296939 z m 5.675589,-0.270186 c 0.142405,-0.371119 0.856403,-1.199353 1.586652,-1.84052 1.181781,-1.037618 1.766214,-2.282329 1.071632,-2.282329 -0.373311,0 -4.141718,4.055587 -4.141718,4.457349 0,0.624979 1.220889,0.349681 1.483434,-0.3345 z"
     style="fill:#000000;stroke-width:0.39980093" />
</svg>
