<?xml version="1.0" encoding="UTF-8" standalone="no"?>
<svg
   xmlns:dc="http://purl.org/dc/elements/1.1/"
   xmlns:cc="http://creativecommons.org/ns#"
   xmlns:rdf="http://www.w3.org/1999/02/22-rdf-syntax-ns#"
   xmlns:svg="http://www.w3.org/2000/svg"
   xmlns="http://www.w3.org/2000/svg"
   id="svgBG30"
   version="1.1"
   viewBox="0 0 100 100"
   height="100"
   width="100">
  <defs
     id="defs6029" />
  <metadata
     id="metadata6032">
    <rdf:RDF>
      <cc:Work
         rdf:about="">
        <dc:format>image/svg+xml</dc:format>
        <dc:type
           rdf:resource="http://purl.org/dc/dcmitype/StillImage" />
        <dc:title></dc:title>
      </cc:Work>
    </rdf:RDF>
  </metadata>
  <path
     id="pathBG30"
     d="m 53.695566,92.411727 c -0.183413,-0.296767 -0.925469,-0.539571 -1.64902,-0.539571 -1.85328,0 -5.344546,-3.341544 -6.956403,-6.658078 -1.460892,-3.005929 -1.71053,-5.703902 -1.192348,-12.886569 0.165328,-2.291708 0.09049,-4.296621 -0.166404,-4.455364 -0.798438,-0.493457 -3.072783,0.653937 -4.993693,2.519294 -1.011673,0.982412 -2.405981,2.150412 -3.098473,2.595566 -0.692492,0.445149 -1.87013,1.477083 -2.61697,2.293191 -0.74684,0.816108 -1.908408,1.483839 -2.58128,1.483839 -0.760846,0 -1.356583,0.419687 -1.575707,1.110056 -0.193767,0.610539 -0.938562,1.332952 -1.655088,1.605376 -0.716526,0.272413 -1.302766,0.744134 -1.302766,1.048239 0,0.30411 -0.485613,0.552935 -1.079142,0.552935 -0.593539,0 -1.079161,0.26459 -1.079161,0.587982 0,0.846103 -2.260967,2.610387 -3.372345,2.631521 -0.519343,0.0099 -0.944261,-0.346262 -0.944261,-0.791416 0,-0.449642 0.479628,-0.809357 1.079151,-0.809357 0.599533,0 1.079152,-0.35972 1.079152,-0.809368 0,-0.445148 0.201779,-0.809362 0.4484,-0.809362 0.246622,0 0.776774,-0.613571 1.178124,-1.363501 0.401341,-0.749923 1.292206,-1.504676 1.979693,-1.677219 0.687477,-0.172553 1.249969,-0.530208 1.249969,-0.79481 0,-0.264591 0.39019,-0.481076 0.867087,-0.481076 0.549067,0 0.753177,-0.296853 0.556517,-0.809362 -0.193006,-0.502956 0.0029,-0.809369 0.518201,-0.809369 0.545013,0 0.725774,-0.324578 0.527915,-0.947977 -0.225518,-0.710547 0.306013,-1.269936 2.122166,-2.233406 2.338446,-1.240541 8.357932,-7.833385 8.357932,-9.154025 0,-0.337923 -0.728429,-0.614407 -1.618732,-0.614407 -0.890303,0 -1.618722,0.207173 -1.618722,0.460393 0,0.384616 -8.092538,2.247342 -10.801002,2.486158 -0.45037,0.03972 -1.084222,0.236212 -1.40858,0.436672 -0.324347,0.200455 -0.765203,0.188963 -0.979684,-0.02549 -0.214481,-0.214501 -1.406573,-0.396558 -2.649102,-0.404562 -1.242519,-0.008 -3.225475,-0.45084 -4.406577,-0.98407 -3.564133,-1.609134 -5.909182,-2.763132 -6.1942625,-3.048218 -0.1483918,-0.148383 -0.7470303,-0.533774 -1.330331,-0.856425 -1.517167,-0.83923 -3.3785913,-4.637948 -3.2588674,-6.65053 0.1372691,-2.307413 2.856242,-6.073247 4.7500925,-6.578983 0.8304074,-0.221753 2.0013764,-1.028077 2.6021464,-1.791833 0.60077,-0.763757 1.438894,-1.38865 1.862509,-1.38865 0.423605,0 0.770199,-0.196083 0.770199,-0.435733 0,-0.605348 3.887073,-2.262148 5.30728,-2.262148 0.642197,0 1.167629,-0.190869 1.167629,-0.424152 0,-0.233289 0.849827,-0.395961 1.888512,-0.3615 1.038686,0.03444 1.888523,-0.13888 1.888523,-0.385205 0,-0.246331 1.442519,-0.447867 3.205608,-0.447867 1.76309,0 3.334591,-0.208707 3.49224,-0.463788 0.334291,-0.540882 -0.849456,-3.302828 -1.418218,-3.309035 -0.212245,-0.0022 -1.215536,-0.732635 -2.22953,-1.622938 -1.013995,-0.890298 -2.081072,-1.618725 -2.371281,-1.618725 -0.290219,0 -0.983519,-0.607024 -1.540673,-1.348938 -0.557155,-0.74192 -1.299789,-1.348942 -1.650302,-1.348942 -0.853129,0 -3.049843,-3.611102 -2.619901,-4.306762 0.738039,-1.194177 2.944505,-0.493749 5.06826,1.608887 1.19898,1.187062 2.3211,2.1583 2.493593,2.1583 0.382473,0 1.653242,1.021046 2.854058,2.293196 0.490218,0.519343 1.306602,0.944259 1.814184,0.944259 0.507582,0 1.082577,0.503175 1.277772,1.118175 0.213367,0.672269 0.65821,1.001781 1.115507,0.826299 0.441655,-0.169483 0.760617,0.04043 0.760617,0.500549 0,0.446297 0.496926,0.792432 1.137648,0.792432 0.971121,0 1.083443,-0.217193 0.767325,-1.483833 -0.203682,-0.816109 -0.720322,-1.872369 -1.148114,-2.347247 -1.793993,-1.991487 -0.760208,-16.243062 1.405117,-19.370675 0.513643,-0.741918 1.104641,-1.898785 1.313328,-2.5708223 0.208677,-0.6720332 0.592568,-1.0901486 0.853081,-0.9291441 0.260514,0.1610055 0.731598,-0.1892338 1.046859,-0.778308 0.929199,-1.7362313 6.408289,-2.4832464 9.193301,-1.25341 1.038684,0.4586738 2.240886,0.9053915 2.671563,0.9927073 0.430681,0.087317 1.159108,0.6234861 1.618728,1.1914872 0.459622,0.5680029 1.246447,1.1762879 1.748495,1.3517469 0.502057,0.175458 1.335407,0.999791 1.851901,1.831849 0.516498,0.832057 1.531493,2.164047 2.25555,2.959978 0.978511,1.075646 1.383122,2.25304 1.576127,4.586393 0.142817,1.726589 0.586433,3.92838 0.985816,4.892871 0.603348,1.45707 0.604579,1.753622 0.0072,1.753622 -0.939315,0 -1.367878,1.711437 -1.376972,5.498806 -0.007,2.950534 0.598968,4.335969 1.358869,3.106421 0.198909,-0.321838 0.679347,-0.463255 1.067637,-0.314252 0.388288,0.149004 1.149787,-0.320063 1.692217,-1.042365 0.542441,-0.722308 1.246253,-1.31328 1.564036,-1.31328 0.317783,0 1.292095,-0.972902 2.165127,-2.162003 0.873039,-1.189101 2.13366,-2.308061 2.801387,-2.486586 0.667725,-0.17852 1.214046,-0.486954 1.214046,-0.685415 0,-0.198455 0.728427,-1.158354 1.618726,-2.133107 0.8903,-0.974753 1.618727,-2.026078 1.618727,-2.336282 0,-0.310202 0.369724,-0.42213 0.8216,-0.248725 0.452181,0.173515 1.301329,-0.164445 1.888516,-0.751637 0.586805,-0.586803 1.676246,-1.066911 2.420985,-1.066911 1.248609,0 1.334608,0.156947 1.104144,2.01508 -0.137469,1.108294 -0.50399,2.099763 -0.8145,2.203264 -0.310508,0.103507 -0.564564,0.493936 -0.564564,0.86762 0,0.37369 -0.849831,1.1371 -1.888516,1.696468 -1.03868,0.559368 -1.888512,1.204626 -1.888512,1.433905 0,0.229278 -0.362106,0.416874 -0.80467,0.416874 -0.802943,0 -4.051514,3.042197 -4.051514,3.794125 0,0.218139 -0.485617,0.523611 -1.07915,0.678822 -0.693981,0.181481 -1.079152,0.735993 -1.079152,1.55359 0,0.726296 -0.578343,1.705708 -1.348938,2.284401 -1.679759,1.261444 -1.727248,2.282451 -0.120445,2.589617 1.96554,0.375733 9.793013,-0.529237 10.002065,-1.156394 0.349896,-1.049689 3.857003,-0.597887 6.035863,0.777567 1.175271,0.741914 2.273333,1.348937 2.440138,1.348937 0.372675,0 1.49713,0.885584 3.596855,2.832771 0.880042,0.816109 1.819585,1.483834 2.087868,1.483834 0.97808,0 1.19968,2.715004 0.302512,3.706369 -0.480326,0.530747 -0.873314,1.228857 -0.873314,1.551348 0,0.78484 -6.558947,7.15253 -7.367355,7.15253 -0.349995,0 -0.717286,0.182102 -0.816211,0.404679 -0.09892,0.222576 -1.559093,1.103941 -3.244826,1.958603 -2.329029,1.180805 -3.430276,1.45718 -4.586393,1.151031 -0.836785,-0.221594 -3.183356,-0.516766 -5.21461,-0.655948 -3.665737,-0.251164 -3.690342,-0.243683 -3.310329,1.00728 0.52404,1.725121 4.690186,6.386291 5.708053,6.386291 0.239506,0 0.838737,0.849832 1.331623,1.888512 0.641875,1.352645 1.248957,1.888518 2.139488,1.888518 1.804504,0 2.950319,0.54631 2.950319,1.406668 0,0.413397 0.396247,0.751638 0.880545,0.751638 0.4843,0 1.68204,0.849832 2.661646,1.888512 0.979605,1.038685 2.040211,1.888518 2.356907,1.888518 0.74683,0 0.75167,3.065077 0.0055,3.526195 -1.15931,0.71649 -3.112455,-0.343976 -5.954286,-3.232907 -1.604925,-1.631525 -3.19363,-2.971974 -3.530454,-2.978786 -0.336827,-0.0069 -1.010153,-0.619405 -1.496272,-1.361321 -0.486125,-0.741918 -1.357649,-1.348942 -1.936715,-1.348942 -0.624106,0 -1.393736,-0.659189 -1.889935,-1.618725 -0.501265,-0.969337 -1.264441,-1.618731 -1.90237,-1.618731 -0.58591,0 -1.065291,-0.242809 -1.065291,-0.539574 0,-0.296766 -0.334482,-0.539575 -0.743298,-0.539575 -0.408809,0 -1.045562,-0.364215 -1.415003,-0.809362 -0.369443,-0.445149 -1.037229,-0.809364 -1.48397,-0.809364 -1.034529,0 -0.599992,3.244312 0.799209,5.967034 1.804612,3.51161 1.556444,10.657344 -0.474027,13.64904 -2.035373,2.998925 -5.378087,5.743984 -6.994565,5.743984 -0.822427,0 -1.645387,0.242809 -1.8288,0.539575 -0.183413,0.296765 -0.790434,0.539574 -1.34894,0.539574 -0.558503,0 -1.165525,-0.242809 -1.348938,-0.539574 z m 5.227118,-5.374183 c 1.761364,-1.640963 2.49108,-4.403792 2.327638,-8.812873 -0.126924,-3.424057 -0.405469,-4.576362 -1.499965,-6.205124 -0.739252,-1.100118 -1.50961,-2.713827 -1.711908,-3.586029 -0.202298,-0.872196 -0.837293,-2.245129 -1.411093,-3.050959 -0.573803,-0.805831 -1.043275,-1.701439 -1.043275,-1.990251 0,-0.6582 -1.494632,-1.924686 -2.434124,-2.062577 -0.388585,-0.05704 -1.32005,0.53935 -2.06991,1.325289 -1.197432,1.255054 -1.403372,2.052914 -1.691941,6.554955 -0.18071,2.819285 -0.34481,5.368777 -0.364673,5.665542 -0.285733,4.269434 1.240334,10.521729 2.568149,10.521729 0.394392,0 1.004776,0.546321 1.356412,1.214046 0.351636,0.66772 0.895064,1.380228 1.20762,1.583342 0.835117,0.542696 3.685082,-0.149064 4.76707,-1.15709 z M 25.533085,60.921866 c 0.184662,0.184656 1.254965,-0.106759 2.378445,-0.647592 1.123491,-0.540838 2.406914,-1.009971 2.85207,-1.042525 2.033708,-0.148707 5.447461,-0.99999 5.709344,-1.423736 0.159324,-0.257789 0.914594,-0.46871 1.678371,-0.46871 0.763785,0 1.842099,-0.522765 2.396247,-1.16171 1.017296,-1.172956 1.376525,-3.15489 0.571816,-3.15489 -0.239657,0 -0.867915,-0.979554 -1.396134,-2.176785 -0.52822,-1.197231 -1.606887,-2.587781 -2.397038,-3.0901 -0.790151,-0.502319 -1.558047,-1.053116 -1.706429,-1.223978 -0.148382,-0.170867 -1.593251,-0.871905 -3.210813,-1.557863 -2.395087,-1.015685 -3.490242,-1.182646 -5.899791,-0.89945 -1.627324,0.19126 -3.217578,0.551518 -3.533886,0.800579 -0.316308,0.249055 -1.461254,0.612313 -2.544306,0.807247 -1.083053,0.194934 -2.266124,0.712211 -2.629045,1.149505 -0.36293,0.437298 -1.162348,0.795084 -1.776476,0.795084 -0.614138,0 -2.041263,0.991596 -3.171385,2.20355 -1.565992,1.679367 -2.054783,2.651191 -2.054783,4.085359 0,1.857052 0.977649,3.423452 2.136695,3.423452 0.327279,0 0.734823,0.36422 0.905641,0.809368 0.191627,0.499385 1.01175,0.809363 2.141367,0.809363 1.006935,0 1.830787,0.242809 1.830787,0.539575 0,0.296765 0.424919,0.543239 0.944252,0.547699 0.519342,0.0044 1.915496,0.346871 3.102564,0.760906 1.31094,0.457233 2.389635,0.561801 2.747522,0.266343 0.324081,-0.267541 0.740313,-0.335346 0.924965,-0.150691 z m 56.657868,-5.801203 c 0.428596,-0.411968 1.317278,-1.113236 1.974853,-1.558385 2.887848,-1.954944 3.253242,-2.518239 3.253242,-5.015209 0,-2.015476 -0.25715,-2.6628 -1.421706,-3.578844 -1.236164,-0.972358 -2.171653,-1.118313 -7.168081,-1.118313 -7.310139,0 -11.014526,1.166023 -13.945829,4.389707 -2.74997,3.024256 -2.978961,3.520449 -2.587558,5.606823 0.31555,1.682021 0.505685,1.825926 2.614693,1.978923 1.250914,0.09075 5.475409,0.137847 9.387759,0.104667 5.268147,-0.04466 7.315513,-0.254649 7.892627,-0.809369 z M 54.656307,53.754608 c 0.955427,-1.081286 1.918111,-2.434816 2.139299,-3.007851 0.473225,-1.226 -0.397392,-3.119815 -1.43423,-3.119815 -0.398369,0 -1.026582,-0.364213 -1.396022,-0.809362 -0.369444,-0.445149 -1.165381,-0.809362 -1.768758,-0.809362 -1.34039,0 -4.706151,2.480709 -4.706151,3.468635 0,0.393708 -0.3613,1.015684 -0.80289,1.382173 -0.702133,0.58272 -0.654612,0.878777 0.378685,2.359259 1.550956,2.222173 1.97993,2.48422 4.082824,2.494031 1.364317,0.0064 2.16834,-0.44243 3.507243,-1.957708 z m 0.851899,-14.48443 c 0.338497,-0.936101 0.61545,-2.45956 0.61545,-3.385471 0,-0.925905 0.232206,-1.826981 0.516012,-2.00238 0.283807,-0.175399 0.38651,-0.656376 0.228236,-1.068833 -0.158274,-0.412458 0.0097,-1.305677 0.373192,-1.984933 0.384178,-0.717847 0.627429,-2.999365 0.580886,-5.448339 -0.06233,-3.279583 -0.399157,-4.928478 -1.519889,-7.440357 -0.791896,-1.77487 -1.764633,-3.22704 -2.161636,-3.22704 -0.396998,0 -1.252378,-0.610199 -1.90084,-1.355991 -1.48741,-1.710677 -4.542619,-2.559197 -7.215297,-2.003897 -1.906115,0.396032 -2.151519,0.675676 -3.51715,4.007804 -1.474241,3.597138 -2.246628,9.718646 -1.397438,11.075224 0.435727,0.696061 0.991863,3.570247 0.984642,5.088723 -0.0019,0.491908 0.465603,1.319597 1.039884,1.839307 0.574271,0.519711 1.279494,1.816906 1.567153,2.882652 0.392054,1.452489 0.965735,2.117945 2.290923,2.657427 0.972344,0.395839 2.291066,0.970798 2.930496,1.277688 0.639424,0.30689 1.411778,0.403981 1.716335,0.215748 0.304558,-0.188226 0.681242,-0.135929 0.837078,0.116219 0.155833,0.252149 0.988301,0.458448 1.849924,0.458448 1.267893,0 1.683933,-0.324513 2.182039,-1.701999 z"
     style="fill:#000000;stroke-width:0.5395757" />
</svg>
