<?xml version="1.0" encoding="UTF-8" standalone="no"?>
<svg
   xmlns:dc="http://purl.org/dc/elements/1.1/"
   xmlns:cc="http://creativecommons.org/ns#"
   xmlns:rdf="http://www.w3.org/1999/02/22-rdf-syntax-ns#"
   xmlns:svg="http://www.w3.org/2000/svg"
   xmlns="http://www.w3.org/2000/svg"
   id="svgBG31"
   version="1.1"
   viewBox="0 0 100 100"
   height="100"
   width="100">
  <defs
     id="defs6029" />
  <metadata
     id="metadata6032">
    <rdf:RDF>
      <cc:Work
         rdf:about="">
        <dc:format>image/svg+xml</dc:format>
        <dc:type
           rdf:resource="http://purl.org/dc/dcmitype/StillImage" />
        <dc:title></dc:title>
      </cc:Work>
    </rdf:RDF>
  </metadata>
  <path
     id="pathBG31"
     d="m 74.824329,66.146075 c -1.351222,-0.304288 -1.90454,-1.731007 -1.903144,-4.907289 7.13e-4,-1.70684 0.09525,-3.391302 0.210023,-3.743246 0.114753,-0.351954 0.121918,-0.981544 0.01596,-1.399106 -0.472288,-1.86033 -2.180664,1.246004 -3.326315,6.048222 -0.698634,2.92847 -0.581843,4.190056 0.295251,3.189097 0.709632,-0.809846 1.02307,0.05809 0.681494,1.887145 -0.337508,1.807383 -0.523556,2.069058 -1.261216,1.773896 -1.515494,-0.606381 -2.323989,-5.732199 -1.227077,-7.779569 0.271523,-0.506802 0.419741,-1.237891 0.329376,-1.62465 -0.09039,-0.386758 -0.007,-0.816439 0.185421,-0.954848 0.192351,-0.138409 0.219997,-0.431956 0.06144,-0.65232 -0.338544,-0.470491 -1.7153,0.523653 -2.310779,1.668594 -1.230199,2.365329 -2.312816,5.442195 -2.045567,5.813602 0.09084,0.126303 -0.04805,0.779239 -0.308736,1.450983 -0.26069,0.671744 -0.409808,1.310527 -0.331382,1.419521 0.07842,0.108994 6.72e-4,0.468988 -0.172859,0.799984 -0.244139,0.46575 -0.421261,0.559467 -0.783486,0.414531 -1.028652,-0.411592 -0.933536,-2.161932 0.326932,-6.015989 0.211894,-0.647902 0.591436,-1.906711 0.843426,-2.797344 0.251989,-0.890632 0.696536,-1.880275 0.987872,-2.199207 0.291347,-0.318932 0.464748,-0.670162 0.385355,-0.780502 -0.0794,-0.110349 0.07913,-0.361444 0.352286,-0.55799 0.752396,-0.541401 0.544924,-1.288115 -0.338037,-1.216592 -1.010409,0.08181 -2.90077,1.435821 -2.865411,2.052373 0.01524,0.258676 -0.155289,0.603845 -0.378068,0.767014 -0.22274,0.163206 -0.74034,0.976375 -1.150163,1.807118 -0.409812,0.830752 -0.849223,1.58537 -0.976455,1.676916 -0.55469,0.399128 -0.474612,2.207928 0.119677,2.707079 0.547931,0.46009 0.503578,0.811671 -0.30904,2.449515 -0.892082,1.797998 -0.994078,1.909348 -1.706024,1.862573 -0.901151,-0.05921 -1.228367,-1.074997 -0.753193,-2.338184 0.18524,-0.492448 0.380454,-1.520577 0.433816,-2.284754 0.05332,-0.764157 0.691173,-2.812867 1.417358,-4.552681 0.949093,-2.273829 1.194353,-3.272755 0.872256,-3.552616 -0.655554,-0.569595 -2.160338,0.423414 -2.642706,1.743927 -0.211216,0.578204 -0.685145,1.58521 -1.053185,2.23779 -0.842347,1.493592 -1.664977,5.465027 -1.609439,7.769918 0.0233,0.967353 -0.102993,1.915308 -0.280671,2.10658 -0.40389,0.434771 -1.144803,-0.558404 -1.379789,-1.84957 -0.185295,-1.018088 0.902945,-6.781951 1.648446,-8.731035 0.23692,-0.619419 0.648544,-1.701605 0.914709,-2.404852 0.494839,-1.307419 0.182641,-1.978661 -0.728293,-1.565877 -0.280545,0.127125 -0.399793,0.384419 -0.264995,0.571758 0.134799,0.187338 0.02783,0.497018 -0.237962,0.688191 -0.265683,0.191171 -0.902786,1.295933 -1.415803,2.455034 -0.513006,1.159101 -1.219635,2.554472 -1.570278,3.100835 -0.783099,1.220182 -1.198951,4.905615 -0.641036,5.680984 0.224943,0.31261 0.418687,1.105255 0.430555,1.761434 0.01706,0.942154 -0.09706,1.176536 -0.542544,1.114538 -0.97768,-0.136054 -1.349409,-1.058684 -1.564275,-3.882447 -0.157406,-2.069062 8.4e-5,-3.222934 0.642571,-4.706933 1.108107,-2.559476 1.468822,-3.226645 1.920063,-3.551341 0.204366,-0.147059 0.296951,-0.371087 0.205729,-0.497858 -0.246623,-0.342744 0.330469,-1.520494 0.970784,-1.981231 0.972806,-0.699992 -0.903389,-2.279936 -2.404378,-2.02473 -0.326788,0.05557 -2.310918,-0.132954 -4.409169,-0.418926 -2.098261,-0.28597 -3.97682,-0.452488 -4.17457,-0.370051 -0.19775,0.08243 -1.163568,0.225436 -2.146247,0.317769 -1.718031,0.161484 -1.810589,0.20511 -2.40816,1.136239 -1.447647,2.255698 -2.253422,10.050858 -1.373423,13.286758 0.275694,1.013776 0.35823,1.946144 0.183417,2.071937 -0.763229,0.549184 -1.891907,-1.99908 -1.826808,-4.124449 0.03645,-1.19017 -0.0021,-2.258922 -0.08563,-2.374988 -0.215405,-0.299368 0.280338,-5.783817 0.592644,-6.556489 0.208402,-0.51562 0.1463,-0.611435 -0.314635,-0.485462 -0.643551,0.17588 -1.643275,1.384459 -1.411574,1.706464 0.182588,0.253749 0.05541,2.504491 -0.353457,6.257426 -0.379495,3.482988 -0.190672,8.026826 0.365517,8.800053 0.53351,0.74144 0.128664,1.372227 -0.605273,0.943117 -0.972837,-0.568764 -1.285454,-1.267613 -1.331795,-2.977197 -0.04949,-1.826239 0.235817,-6.72872 0.512908,-8.81314 0.09705,-0.730065 0.06869,-1.848349 -0.06299,-2.485066 -0.131712,-0.636718 -0.08526,-1.268668 0.103312,-1.404326 0.188532,-0.135655 0.235472,-0.395781 0.104324,-0.578051 -0.131149,-0.182263 -0.09103,-0.879835 0.08911,-1.550148 0.279349,-1.039342 0.229093,-1.19222 -0.341432,-1.038519 -0.468127,0.126112 -0.635124,0.300317 -0.556165,0.580192 0.146129,0.517971 -0.447065,0.940845 -1.006032,0.717186 -0.702357,-0.281027 -0.945547,0.463582 -0.399328,1.222683 0.289485,0.402318 0.341629,1.113992 0.122686,1.674574 -0.20942,0.536186 -0.30818,1.075749 -0.219492,1.199015 0.0887,0.123266 0.03304,0.316368 -0.123639,0.429121 -0.156702,0.112753 -0.238975,0.722923 -0.182817,1.355947 0.05618,0.633015 0.03263,1.274364 -0.05223,1.425215 -0.601333,1.068956 0.410312,10.373926 1.257416,11.565548 0.41228,0.579958 0.41506,1.048439 0.01011,1.715771 -0.495335,0.816355 -0.595928,0.89079 -0.908687,0.672348 -0.61637,-0.430455 -0.943456,0.141752 -0.625427,1.094117 0.169227,0.506766 0.161786,1.026363 -0.01651,1.154671 -0.492463,0.354365 -1.836359,-0.81308 -1.777117,-1.543805 0.02871,-0.353809 -0.259829,-1.814617 -0.641117,-3.246249 -0.994049,-3.732269 -1.541686,-6.692284 -1.51936,-8.212137 0.01072,-0.725995 -0.09588,-1.70437 -0.236859,-2.174173 -0.140942,-0.469806 -0.108907,-1.135286 0.07118,-1.478838 0.343276,-0.654883 -0.05353,-1.576583 -0.530909,-1.233097 -0.15239,0.109646 -0.589087,0.856377 -0.97045,1.659408 -0.515411,1.08528 -0.561111,1.643856 -0.178044,2.176215 0.283426,0.393909 0.576976,1.821513 0.652315,3.172467 0.07538,1.350961 0.33762,3.215879 0.582826,4.144257 0.245215,0.928387 0.768904,2.998242 1.163763,4.599697 0.394849,1.601447 1.098074,3.549584 1.562708,4.329187 0.829972,1.392582 0.715669,3.077149 -0.226242,3.334571 -0.736983,0.201427 -1.316526,-1.178791 -2.022877,-4.817567 -0.804833,-4.146099 -0.919429,-4.668547 -1.77567,-8.094464 -0.342367,-1.369851 -0.670531,-3.083783 -0.729253,-3.808737 -0.127746,-1.577309 -0.615525,-1.663729 -1.142557,-0.202443 -0.794545,2.202932 -0.780449,2.858099 0.0835,3.885549 0.469703,0.558559 0.788943,1.2338 0.709405,1.500527 -0.309681,1.038545 0.690854,8.534939 1.437078,10.767162 0.876646,2.622311 0.90074,3.058241 0.162947,2.94697 -1.214595,-0.18316 -2.54425,-5.263339 -3.098577,-11.83865 -0.208554,-2.47383 -0.562245,-2.802491 -1.11223,-1.03352 -0.24693,0.794251 -0.643297,1.935462 -0.880798,2.536025 -0.237501,0.600556 -0.244743,1.351919 -0.01606,1.669677 0.228652,0.317767 0.464303,1.185733 0.523663,1.928797 0.190011,2.379449 2.156546,9.292237 2.983666,10.488606 0.361317,0.522641 0.33337,0.570793 -0.267598,0.46117 -0.923068,-0.168376 -2.310248,-3.008405 -3.113839,-6.37514 -0.801819,-3.359284 -0.948472,-3.606801 -1.480232,-2.49823 -0.59199,1.234146 -0.80806,1.261869 -1.571018,0.20153 -0.471612,-0.655407 -0.545507,-1.076762 -0.228827,-1.304626 0.433096,-0.311636 1.232347,-2.564881 1.016295,-2.865142 -0.135602,-0.188449 1.199322,-4.712659 1.636738,-5.547149 0.200567,-0.38262 0.233886,-0.877435 0.07404,-1.099588 -0.245105,-0.340622 -0.566612,-0.205321 -2.052229,0.863656 -0.968869,0.697159 -1.9304,1.242108 -2.136721,1.210988 -0.206396,-0.03113 -0.755183,0.216852 -1.219611,0.551026 -1.30406,0.93834 -3.0077551,0.727918 -3.8282236,-0.472836 -0.6172708,-0.903365 -0.6104991,-0.987793 0.064052,-0.798404 0.4245105,0.119192 1.2320466,-0.05139 1.8470076,-0.390316 0.600981,-0.331166 1.153637,-0.5174 1.228131,-0.413871 0.07449,0.103519 0.461354,-0.04631 0.859686,-0.332899 0.398339,-0.286631 0.921079,-0.442377 1.16165,-0.346121 0.587059,0.234903 3.574917,-1.93395 4.216331,-3.060579 0.472986,-0.830809 0.465505,-0.837226 -0.707458,-0.607192 -1.175125,0.230467 -1.909889,0.688389 -2.479398,1.545218 -0.162439,0.244402 -0.597334,0.442872 -0.966408,0.44106 -0.369095,-0.0018 -0.855268,0.122298 -1.08039,0.27579 -0.468418,0.319373 -4.6767671,0.253984 -5.4554051,-0.08473 -0.6018563,-0.261832 -0.9693505,-1.480468 -0.5396706,-1.789648 0.1616058,-0.116294 0.5225706,-0.09727 0.8021082,0.04217 0.9181468,0.458136 3.9939125,0.09839 4.9323955,-0.576899 0.487045,-0.35046 1.013973,-0.576372 1.170938,-0.502013 0.156975,0.07437 0.838999,-0.202347 1.515624,-0.614875 0.676615,-0.41252 1.837685,-0.88457 2.58016,-1.048985 l 1.349958,-0.298943 -0.08596,-0.612184 c -0.09523,-0.678366 -1.118867,-0.817126 -1.897074,-0.257169 -0.27628,0.198804 -0.699159,0.282692 -0.939731,0.186436 -0.240571,-0.09627 -0.627382,-0.0383 -0.859588,0.128761 -0.232194,0.167082 -1.259641,0.355394 -2.28319,0.418474 -1.023557,0.06309 -2.384787,0.197738 -3.024971,0.29923 C 8.3847671,67.25064 6.4972835,66.787019 5.8167504,65.841239 5.0316402,64.750144 4.9844817,64.084775 5.6578658,63.60021 c 0.3954852,-0.284578 0.5804537,-0.180811 0.7499446,0.420741 0.2841707,1.008593 1.1202621,1.194244 4.1377696,0.918758 5.836768,-0.532872 7.62744,-0.935381 8.762394,-1.96965 0.224702,-0.204756 0.470066,-0.28677 0.545266,-0.182257 0.192999,0.268212 2.282895,-0.547049 2.59432,-1.012031 0.296735,-0.443061 -1.339589,-0.476878 -1.947277,-0.04024 -0.214826,0.154352 -0.973485,0.369682 -1.685929,0.478483 -0.712445,0.108801 -1.757178,0.309756 -2.321626,0.446541 -1.831998,0.443957 -2.977097,0.387104 -5.305875,-0.263451 -2.4749525,-0.691391 -4.174837,-1.730312 -3.5577035,-2.174369 0.5508777,-0.396385 2.4234415,-0.131419 3.6022335,0.509793 1.106392,0.601779 3.754106,0.727027 4.470604,0.211467 0.239186,-0.172103 0.504535,-0.216109 0.589676,-0.0978 0.08512,0.118315 0.383162,0.05084 0.662276,-0.150043 0.279107,-0.200836 1.477101,-0.553761 2.662194,-0.784284 1.356651,-0.263886 2.180852,-0.568141 2.225293,-0.821458 0.03878,-0.221286 -0.125342,-0.355123 -0.364807,-0.297431 -0.239464,0.05773 -1.271309,0.01952 -2.292973,-0.08488 -1.021673,-0.104378 -2.159989,-0.166858 -2.529609,-0.138839 -1.656317,0.125552 -6.7986911,-1.403777 -7.364581,-2.190229 -0.77996,-1.083941 0.3043844,-1.182882 3.808361,-0.347491 4.878983,1.163188 9.247901,1.328726 10.077609,0.381833 0.580411,-0.662388 0.136608,-0.895105 -3.961819,-2.077497 -1.781447,-0.513942 -3.538983,-1.122623 -3.905643,-1.352623 -0.366669,-0.230002 -0.816776,-0.310178 -1.000252,-0.178161 -0.183457,0.132016 -0.703393,-0.04484 -1.15539,-0.393018 -0.452008,-0.348179 -1.097807,-0.700213 -1.435128,-0.782289 -0.701911,-0.170791 -1.292135,-1.789057 -0.664095,-1.820806 0.22787,-0.01117 1.30231,0.368566 2.387685,0.844621 1.085385,0.476055 3.275457,1.25102 4.86682,1.722144 1.591374,0.471134 4.004392,1.229336 5.362268,1.684909 1.357877,0.455564 2.712574,0.764156 3.010452,0.685741 2.429561,-0.639571 0.179709,-1.677928 -7.384601,-3.408155 -1.56053,-0.356947 -3.729473,-2.176713 -3.321118,-2.786448 0.149032,-0.222507 0.747857,-0.09324 1.385233,0.299069 0.617508,0.380055 2.666586,1.070984 4.553496,1.53541 1.886928,0.464416 4.140382,1.18275 5.007682,1.596288 0.947495,0.451775 1.650193,0.580541 1.760519,0.32261 0.110317,-0.25794 -0.07801,-0.484445 -0.471928,-0.56747 -1.199946,-0.252947 -8.442879,-4.110587 -8.893389,-4.736674 -0.837094,-1.163361 0.405737,-0.865425 4.58314,1.098677 6.072266,2.855019 8.66309,3.748784 8.946451,3.086274 0.118136,-0.276212 -5.614212,-3.886195 -8.806941,-5.546231 -1.303909,-0.677958 -2.799782,-1.506846 -3.324161,-1.841978 -1.011999,-0.646774 -1.564805,-1.953857 -0.839269,-1.984415 0.553407,-0.02331 6.026657,3.140824 12.132691,7.014002 1.767487,1.121156 3.784083,2.197503 4.481328,2.391885 0.697236,0.194382 1.340729,0.454901 1.429976,0.578935 0.08927,0.124034 0.284247,0.141224 0.433326,0.03818 0.149081,-0.103029 1.020016,-0.142001 1.935392,-0.08696 2.872515,0.173811 2.889837,-0.47225 0.04037,-1.506049 -0.995469,-0.361174 -1.9379,-0.826449 -2.094276,-1.033956 -0.156358,-0.207518 -0.810435,-0.544972 -1.453475,-0.749923 -1.505174,-0.479745 -2.874483,-1.21025 -6.310481,-3.366539 -4.106222,-2.576913 -5.744692,-4.016876 -5.990624,-5.264857 -0.303214,-1.538681 0.458455,-1.871364 1.055358,-0.460963 0.357202,0.844015 1.454831,1.80521 4.144611,3.62946 2.012303,1.364777 4.174851,2.697748 4.805659,2.962157 0.630808,0.264418 2.561026,1.226351 4.289382,2.137645 1.728357,0.911294 3.417103,1.753126 3.752787,1.870741 0.335674,0.117616 1.34392,0.494092 2.240533,0.836607 2.753929,1.052031 3.30251,1.215228 3.531374,1.050543 0.12138,-0.0873 0.88135,0.173922 1.688832,0.580572 0.807474,0.406659 1.601041,0.643749 1.763475,0.526865 0.328002,-0.236021 -7.618368,-4.039274 -8.170319,-3.910442 -0.191186,0.0446 -1.074953,-0.497447 -1.963936,-1.204615 -0.888984,-0.707179 -2.928688,-2.273309 -4.532678,-3.480293 -2.569177,-1.933287 -2.942321,-2.344983 -3.134555,-3.458373 l -0.218192,-1.263834 1.46544,1.557573 c 1.57828,1.677502 2.546921,2.226518 2.671849,1.514392 0.04113,-0.234552 0.907611,0.513933 1.925473,1.663317 1.017862,1.149383 2.164733,2.205918 2.548588,2.347856 0.383863,0.141927 1.384042,0.645935 2.222616,1.119998 0.838573,0.474073 2.16864,1.13322 2.95571,1.464771 0.787069,0.331551 1.832606,0.828106 2.32343,1.103466 0.490805,0.275354 1.817752,0.902961 2.948775,1.394681 1.404416,0.610584 2.146695,1.163399 2.341233,1.743657 0.217077,0.647511 0.545876,0.836567 1.382114,0.794717 0.603493,-0.03041 1.175019,-0.11089 1.270049,-0.179227 0.366845,-0.263965 -1.269502,-1.421174 -5.406475,-3.823429 -6.543303,-3.799551 -13.351523,-9.703746 -13.066042,-11.331083 0.122072,-0.695854 1.048762,-0.340021 1.811943,0.695764 0.47989,0.651283 0.739808,0.78802 0.807968,0.425017 0.06333,-0.337247 0.706747,0.286612 1.739685,1.686744 2.030255,2.751981 4.468322,4.769375 8.846945,7.320499 1.861718,1.084695 4.37719,2.556745 5.589938,3.271223 2.280205,1.34336 2.700391,1.476364 2.934566,0.928864 0.07577,-0.177244 -0.819188,-0.916811 -1.988895,-1.643485 -2.728035,-1.694798 -5.590163,-3.891015 -6.858509,-5.262815 -0.548377,-0.593094 -1.709834,-1.85107 -2.581023,-2.795515 -0.871189,-0.944435 -2.067418,-2.654912 -2.658308,-3.801049 l -1.074326,-2.083882 1.827444,1.623605 c 1.005082,0.892988 2.712071,2.823954 3.793295,4.291026 1.637434,2.221771 2.697038,3.188631 6.342435,5.787276 2.407121,1.715922 4.649367,3.187697 4.982769,3.270604 0.333401,0.08291 0.937288,0.398542 1.341959,0.701403 0.404671,0.302869 1.068259,0.523735 1.474641,0.490821 1.318438,-0.106837 0.731474,-1.169921 -1.26859,-2.297711 -4.415499,-2.489797 -6.287094,-4.001036 -9.185083,-7.416593 -2.966709,-3.496549 -3.347429,-4.169086 -2.561535,-4.525003 0.27245,-0.123387 1.062477,0.720219 2.154112,2.300235 2.182366,3.158709 4.888526,5.419149 10.89378,9.099488 2.338324,1.433053 3.572191,1.578386 4.04356,0.476288 0.174518,-0.408035 -0.24221,-0.789034 -1.687394,-1.542712 -1.055528,-0.550475 -2.368785,-1.343475 -2.918357,-1.762223 -0.549561,-0.418747 -1.459845,-1.017604 -2.022869,-1.330796 -1.965825,-1.09353 -2.891475,-1.871435 -5.599651,-4.705836 -2.439986,-2.553719 -2.996897,-3.436808 -2.207687,-3.500728 0.442496,-0.03586 2.590338,1.714547 3.280062,2.67309 0.366271,0.509036 2.09362,2.054726 3.838542,3.434876 5.345716,4.22821 9.298777,6.18813 10.59701,5.253974 0.368038,-0.264814 0.5995,-0.57829 0.514365,-0.696615 -0.08512,-0.118317 0.08586,-0.388283 0.379998,-0.59993 0.67165,-0.483294 0.291111,-0.983282 -1.204251,-1.582269 -6.274935,-2.513505 -12.343301,-6.323305 -13.388663,-8.405551 -0.500476,-0.996883 0.120372,-1.477122 0.760145,-0.587998 1.544637,2.146663 10.492151,7.153724 14.046416,7.860422 0.519005,0.103199 1.098165,0.402356 1.287007,0.664805 0.284915,0.395958 0.400552,0.368057 0.679411,-0.163925 0.633851,-1.209229 -0.107723,-2.347081 -1.687836,-2.58975 -0.796081,-0.122248 -1.987813,-0.421133 -2.648304,-0.664187 -4.672846,-1.719553 -6.749963,-2.724479 -8.595092,-4.158403 -1.942901,-1.509889 -2.085302,-1.701434 -1.785693,-2.401954 0.382481,-0.894256 0.342894,-0.913406 3.112471,1.505378 1.84907,1.614858 5.77492,3.304458 10.221651,4.399163 3.769127,0.927892 3.61131,0.938555 4.038789,-0.272888 0.479958,-1.360163 0.207715,-1.662115 -1.406724,-1.560228 -0.734845,0.04639 -2.352485,-0.236889 -3.594738,-0.629489 -1.242262,-0.392601 -2.515786,-0.725111 -2.830054,-0.738922 -1.15348,-0.05067 -4.735975,-2.325709 -6.106908,-3.878136 -0.775732,-0.878439 -1.220328,-1.616632 -0.987999,-1.640421 0.59891,-0.06136 2.666375,1.215361 3.275757,2.022832 0.596377,0.790231 2.509032,1.579901 6.42593,2.653025 3.217198,0.88143 4.937496,0.83372 5.66714,-0.157146 0.263703,-0.358122 0.591975,-0.66024 0.729487,-0.67138 0.137507,-0.01126 0.335958,-0.280933 0.440986,-0.599544 0.146761,-0.445221 -0.186087,-0.604265 -1.438165,-0.6872 -0.896023,-0.05935 -2.70749,-0.3804 -4.025473,-0.713436 -1.317983,-0.333035 -2.719878,-0.553492 -3.115316,-0.48989 -1.534461,0.2468 -6.545749,-3.0377 -7.148508,-4.685259 -0.540931,-1.478585 0.04503,-1.584559 1.427468,-0.258156 1.580263,1.5162 4.298032,3.444095 4.732136,3.356824 0.383113,-0.07704 1.342949,0.05006 2.889728,0.382612 1.9388,0.416832 4.686971,0.70879 4.942302,0.525067 0.139282,-0.100225 0.654292,-0.03786 1.144481,0.138546 0.763296,0.274717 0.959493,0.218096 1.366687,-0.394429 0.637034,-0.958252 0.64686,-2.315273 0.0169,-2.334383 -0.27254,-0.0082 -1.229956,-0.169872 -2.127598,-0.35913 -1.645102,-0.34684 -2.577195,-0.407427 -4.881066,-0.317315 -0.691594,0.0275 -1.879839,-0.16416 -2.640497,-0.424923 -0.760659,-0.260764 -1.67128,-0.560553 -2.023602,-0.666195 -1.706764,-0.511766 -2.974439,-1.316712 -3.112658,-1.976458 -0.254282,-1.21373 0.355234,-1.355799 1.772169,-0.413068 1.665848,1.108325 3.983422,1.720213 6.532281,1.72467 1.066523,0.0018 2.023892,0.121175 2.127481,0.265145 0.1036,0.14397 0.608525,0.244269 1.122046,0.222883 0.513535,-0.0213 1.529785,0.01143 2.258343,0.07293 1.503393,0.126908 1.86609,-0.193627 1.537759,-1.358965 -0.151301,-0.537011 -0.01,-0.968589 0.417994,-1.276544 1.329453,-0.956609 0.544989,-1.326826 -2.448283,-1.155411 -5.652287,0.323656 -12.715986,-1.704631 -13.203569,-3.791352 -0.207159,-0.886594 0.328786,-1.208688 1.085657,-0.652456 1.141584,0.83896 4.228903,2.262784 4.493547,2.072355 0.144187,-0.103749 0.551982,-0.0098 0.906231,0.208809 0.677258,0.417926 2.814861,0.636768 4.911225,0.502797 0.684731,-0.04378 1.640034,-0.03327 2.1229,0.02336 0.482856,0.05661 1.097072,-0.0548 1.364915,-0.247493 0.267852,-0.192728 0.775864,-0.154217 1.12892,0.08558 0.353057,0.239796 0.746394,0.502218 0.874085,0.583166 0.127682,0.08096 0.267111,-0.372734 0.309824,-1.008176 l 0.07767,-1.155352 -3.310082,-0.914302 c -1.82054,-0.502858 -3.601159,-1.072171 -3.956932,-1.265121 -0.355762,-0.19295 -1.340133,-0.529811 -2.187483,-0.748593 -1.838362,-0.474643 -5.064434,-2.914888 -5.259213,-3.978156 l -0.138048,-0.753538 0.595047,0.388094 c 0.32728,0.213447 1.103972,0.760904 1.725984,1.216553 0.622003,0.45565 2.349108,1.196428 3.838001,1.64617 1.488884,0.449742 3.448622,1.092224 4.354972,1.427736 0.906351,0.335511 2.300427,0.67776 3.097955,0.760545 l 1.450051,0.15051 0.873514,-1.332685 c 0.480421,-0.732978 0.786918,-1.467337 0.681085,-1.631917 -0.105818,-0.164581 -1.242588,-0.301639 -2.526142,-0.30458 -2.898752,-0.0066 -4.011327,-0.155023 -6.951713,-0.927038 -3.206834,-0.841977 -4.222851,-1.318866 -4.943203,-2.320196 -0.85019,-1.18187 -0.676253,-1.901087 0.380638,-1.57382 0.449364,0.139161 0.950442,0.43843 1.11352,0.665063 0.355835,0.494529 3.472613,1.836536 3.974538,1.711332 0.194817,-0.04856 0.647443,0.0926 1.005843,0.313761 0.358402,0.221152 0.915489,0.291731 1.237993,0.156817 0.322487,-0.134903 0.690351,-0.100737 0.817456,0.0759 0.127104,0.176644 1.256965,0.251181 2.510786,0.165624 1.253829,-0.08558 2.437251,-0.08661 2.629826,-0.0024 0.192576,0.08425 0.412075,0.0223 0.487768,-0.13768 0.07573,-0.159982 -0.843814,-0.673758 -2.043351,-1.141736 -5.57727,-2.175861 -6.900796,-2.807329 -7.956908,-3.796272 -0.710116,-0.664968 -1.00132,-1.1569078 -0.779367,-1.3166129 0.403448,-0.2903001 1.237952,-0.00168 3.677333,1.2720189 2.467967,1.288592 5.591968,2.511742 6.941071,2.717657 0.642432,0.09805 1.592363,0.553213 2.110959,1.011467 0.98566,0.870954 1.259182,0.860102 1.655165,-0.06523 0.351003,-0.820671 0.753403,-0.726221 1.658557,0.389273 0.672347,0.828596 0.700891,1.059393 0.169086,1.367022 -0.351918,0.203559 -0.666534,0.522257 -0.699161,0.708209 -0.03263,0.185961 0.700518,2.417207 1.629198,4.958336 0.928681,2.54113 1.96949,5.685138 2.312908,6.986671 0.343415,1.301535 0.813131,2.628726 1.043814,2.949313 0.26722,0.371371 0.233965,0.666274 -0.09165,0.812672 -1.060243,0.476704 -2.426897,-2.778378 -5.22045,-12.434021 -0.380552,-1.315325 -0.745529,-1.970485 -1.082519,-1.943185 -0.695666,0.05631 -0.695735,0.05147 0.07949,5.388904 0.908015,6.251659 2.111435,10.765325 3.286781,12.327717 1.06341,1.413575 1.358821,3.108626 0.521686,2.993345 -1.532493,-0.211061 -3.490496,-5.886895 -4.766038,-13.81577 -0.552947,-3.437126 -0.957544,-4.535083 -1.521636,-4.129197 -0.508178,0.365668 -0.286486,2.500947 0.654293,6.301669 0.481352,1.944654 1.026129,4.549238 1.210625,5.787969 0.316767,2.126824 1.060164,3.863764 3.056527,7.141564 0.838773,1.377172 0.925232,2.02369 0.277659,2.076145 -0.173477,0.01364 -1.093644,-1.096754 -2.044874,-2.468447 -1.343399,-1.937225 -1.837192,-3.061592 -2.211839,-5.036486 -0.265275,-1.398382 -0.640305,-3.3104 -0.833387,-4.248929 -0.193092,-0.938538 -0.410762,-2.08945 -0.483723,-2.557587 -0.073,-0.468134 -0.290324,-1.046367 -0.483021,-1.284961 -0.492754,-0.61013 -0.479231,1.800708 0.0278,4.95145 0.224631,1.395839 0.522232,3.484481 0.661348,4.641432 0.283686,2.359221 1.34617,5.184779 3.043845,8.094706 0.627227,1.075087 1.067214,2.136713 0.977765,2.359143 -0.265201,0.659494 -1.76122,-0.725426 -2.526127,-2.33854 -0.390518,-0.823553 -1.107119,-2.313602 -1.592456,-3.311209 -0.485337,-0.997608 -0.849069,-2.139272 -0.808287,-2.537028 0.08287,-0.808181 -0.814903,-5.825691 -1.117652,-6.246438 -0.885983,-1.231289 0.038,5.329255 1.772972,12.588688 0.62878,2.630901 0.927512,3.234935 2.35212,4.756008 1.072805,1.14546 1.507036,1.832185 1.267486,2.004554 -0.571997,0.411584 -1.295604,-0.01463 -2.744568,-1.616693 -1.078532,-1.19247 -1.473255,-2.061068 -2.012706,-4.428851 -0.837403,-3.675726 -1.21696,-5.499474 -1.416048,-6.80403 -0.08541,-0.559809 -0.335276,-1.003264 -0.555194,-0.985445 -0.558918,0.04529 -1.378832,4.249339 -0.94605,4.850793 0.195116,0.271166 0.472934,2.217963 0.617375,4.326239 0.258658,3.775403 0.643572,4.849756 2.08764,5.826984 0.473795,0.320628 0.700164,0.837637 0.642496,1.467379 l -0.08905,0.972315 -1.251694,-0.799911 c -0.808318,-0.516562 -1.529506,-1.375108 -2.035958,-2.423734 -0.431341,-0.893104 -0.826633,-1.519872 -0.878422,-1.392821 -0.274816,0.674212 0.39463,5.034583 0.960643,6.256983 0.360528,0.778646 0.510354,1.552393 0.332943,1.719455 -0.60983,0.574268 -2.142422,-1.704992 -2.216096,-3.295776 -0.09992,-2.157305 -0.344317,-4.449095 -0.559549,-5.246762 -0.101486,-0.37595 -0.0827,-0.84211 0.04168,-1.035917 0.3632,-0.566009 -0.420534,-2.283034 -0.888405,-1.946365 -0.221746,0.159557 -0.338213,0.38039 -0.25882,0.49073 0.0794,0.110349 -0.127986,0.488412 -0.460857,0.840159 -0.332881,0.351731 -0.535785,1.058618 -0.450902,1.57084 0.267761,1.615888 0.557205,5.825319 0.474756,6.904354 -0.100736,1.318302 0.169362,2.400814 0.96017,3.848454 0.704234,1.289129 0.535349,2.224512 -0.37868,2.097253 -1.042307,-0.145117 -2.005511,-2.408627 -1.96247,-4.611779 0.04816,-2.46527 0.0091,-3.997994 -0.118651,-4.66267 -0.07582,-0.394379 -0.128774,-1.202742 -0.117634,-1.796375 0.02457,-1.307536 -0.504343,-1.492783 -1.214021,-0.425252 -0.27922,0.420012 -0.445781,0.84966 -0.370136,0.954788 0.07566,0.105126 0.06878,1.580708 -0.01519,3.279067 -0.284343,5.749272 -0.21619,7.047584 0.439664,8.375523 0.856285,1.733769 0.807432,2.370505 -0.165092,2.151493 z M 68.304432,54.852312 c -0.583802,-0.105948 -0.612286,-0.07512 -0.322301,0.348729 0.174967,0.255699 0.673511,0.705068 1.107911,0.998568 l 0.789824,0.533637 -0.467513,-0.882357 C 69.155209,55.365586 68.656648,54.916226 68.304432,54.852312 Z M 28.439008,73.719433 c -0.433428,-2.929844 -0.606002,-5.855761 -0.495054,-8.392927 0.04139,-0.945543 0.01752,-1.809937 -0.05303,-1.920873 -0.07047,-0.110948 -0.08186,-0.969671 -0.02525,-1.908307 0.126602,-2.098862 -0.19025,-2.638461 -1.145362,-1.95114 -0.392182,0.282194 -0.654583,0.594347 -0.583104,0.693675 0.07153,0.09932 -0.196633,0.585455 -0.59578,1.080278 -0.604323,0.749194 -0.613642,0.924935 -0.05574,1.050577 1.083856,0.244074 1.428742,1.079324 1.042111,2.523771 -0.648125,2.421349 1.109123,12.276449 2.0662,11.58778 0.126131,-0.09075 0.05639,-1.334039 -0.154997,-2.762834 z m -8.187456,-8.620754 c -0.205324,-0.07675 -0.19917,0.102506 0.01347,0.398309 0.212844,0.29579 0.380827,0.358573 0.373317,0.139505 -0.0071,-0.219074 -0.181657,-0.461073 -0.386982,-0.537806 z m 4.963922,-6.891785 c -0.03556,-0.04951 -0.272303,-0.173019 -0.525992,-0.274531 -0.651565,-0.260709 -1.157507,0.19097 -0.788439,0.703872 0.17199,0.239027 0.547272,0.259221 0.844386,0.04546 0.294128,-0.211637 0.505648,-0.425291 0.470046,-0.474775 z M 91.909406,45.075505 c -0.179362,-0.02704 -0.27849,-0.448919 -0.220282,-0.937493 0.0937,-0.786399 0.142188,-0.839553 0.422593,-0.463238 0.385651,0.51755 0.248282,1.468685 -0.202311,1.400731 z M 45.646467,71.640079 c -0.212339,-0.251263 -0.57111,-0.764476 -0.797247,-1.140502 -0.293656,-0.488267 -0.445114,-0.530628 -0.529942,-0.148228 -0.06527,0.294482 -0.344998,0.597255 -0.621515,0.672821 -0.889469,0.243103 -1.412013,-1.067577 -1.193275,-2.99301 0.684029,-6.021105 1.892331,-10.094206 3.295685,-11.109608 0.44032,-0.318693 0.731013,-0.676129 0.645878,-0.794446 -0.08512,-0.118317 0.0642,-0.372679 0.331796,-0.565248 0.306929,-0.22085 1.109867,0.04423 2.174714,0.718009 1.740623,1.101343 1.944141,1.542332 1.01903,2.208007 -0.548583,0.394729 -2.752785,5.481373 -2.51716,5.808833 0.07151,0.09939 -0.0276,0.584329 -0.220271,1.077641 -0.192672,0.493312 -0.364043,1.234913 -0.380825,1.648016 -0.01678,0.413094 -0.0597,1.616914 -0.09535,2.675146 -0.06805,2.019337 -0.463143,2.709821 -1.111514,1.942569 z m -0.279949,-3.852847 c 0.06587,-0.735684 0.265496,-1.727295 0.443607,-2.203583 0.178119,-0.476289 0.266722,-0.945366 0.196906,-1.0424 -0.06983,-0.09703 0.05106,-0.859699 0.268562,-1.694814 0.404683,-1.553585 0.505063,-1.865522 1.307748,-4.064075 0.254447,-0.696905 0.316019,-1.255222 0.136832,-1.240714 -0.179169,0.01477 -0.418224,0.377922 -0.531214,0.807571 -0.112991,0.429659 -0.448115,0.990637 -0.744708,1.246635 -1.619628,1.397922 -3.208352,9.814587 -1.890119,10.013389 0.49979,0.07537 0.678365,-0.325131 0.812386,-1.822009 z m -5.899235,3.626305 c -0.387,-0.06008 -1.127421,-0.770198 -1.544129,-1.480866 -0.148111,-0.252581 -0.03886,-1.12573 0.24188,-1.940297 0.281138,-0.814581 0.544678,-1.885778 0.585644,-2.380435 0.04096,-0.494665 0.129359,-1.085808 0.196452,-1.313661 0.06708,-0.227844 0.275702,-1.259519 0.463598,-2.292611 0.797501,-4.385008 1.117459,-5.522028 1.667521,-5.925783 0.319977,-0.234871 0.569131,-0.64764 0.553676,-0.917271 -0.05385,-0.938894 0.888092,-0.7316 1.680665,0.369875 0.728658,1.012651 0.727515,1.114732 -0.01319,1.174724 -0.740683,0.06002 -0.850769,0.154414 -1.266852,1.086481 -0.654119,1.465319 -1.339026,4.070653 -1.468485,5.585991 -0.06127,0.717527 -0.215943,1.379779 -0.343654,1.471669 -0.1277,0.09192 -0.22231,0.613269 -0.210246,1.158607 0.0121,0.545339 -0.105035,1.28844 -0.260249,1.651329 -0.155205,0.362888 -0.203497,1.367837 -0.107298,2.233219 0.0962,0.865385 0.01726,1.548946 -0.175344,1.519029 z"
     style="fill:#000000;stroke-width:0.34118602" />
</svg>
