<?xml version="1.0" encoding="UTF-8" standalone="no"?>
<svg
   xmlns:dc="http://purl.org/dc/elements/1.1/"
   xmlns:cc="http://creativecommons.org/ns#"
   xmlns:rdf="http://www.w3.org/1999/02/22-rdf-syntax-ns#"
   xmlns:svg="http://www.w3.org/2000/svg"
   xmlns="http://www.w3.org/2000/svg"
   width="100"
   height="100"
   viewBox="0 0 100 100"
   version="1.1"
   id="svgBG32">
  <defs
     id="defs6029" />
  <metadata
     id="metadata6032">
    <rdf:RDF>
      <cc:Work
         rdf:about="">
        <dc:format>image/svg+xml</dc:format>
        <dc:type
           rdf:resource="http://purl.org/dc/dcmitype/StillImage" />
        <dc:title></dc:title>
      </cc:Work>
    </rdf:RDF>
  </metadata>
  <path
     id="pathBG32"
     d="m 58.123047,6.1738281 c -4.773098,-0.545083 -9.075289,1.453189 -12.408565,4.7544689 -2.900257,1.787899 -4.041934,5.590932 -6.864183,7.027469 -4.295783,-2.454096 -8.225847,1.458361 -12.403758,2.01073 -4.139168,1.644712 -5.437192,6.37084 -7.409444,9.933836 -2.850988,3.577547 3.14251,9.559787 -2.556677,10.996067 -3.801065,1.435807 -5.950395,5.372084 -7.7288043,8.845324 -1.2978006,3.581676 -3.339323,7.444182 -1.8323939,11.343804 1.6129605,5.105137 7.0669812,5.704804 11.1198622,7.899133 3.380488,4.310925 0.775319,10.49613 3.601834,14.890236 2.696217,3.382322 6.835885,5.021796 10.944299,5.832757 4.152616,1.312086 8.382261,-4.315212 11.592187,-2.233244 1.53919,3.356503 4.770775,5.841416 8.518042,6.111046 4.1732,0.998282 9.395199,1.086589 13.093304,-1.567229 3.397854,-2.872116 4.627072,-3.630613 6.593054,-7.197051 0.0084,-3.855231 1.796174,-6.770432 5.985015,-5.541606 3.773516,-1.512635 6.852963,-4.603661 10.166386,-6.986601 0.743354,-4.705992 5.20734,-8.362954 4.26097,-13.445795 0.06086,-5.147023 -7.359504,-8.885361 -3.599028,-13.830867 2.751636,-4.713166 3.484975,-10.696367 1.588614,-15.839347 -2.445,-3.128686 -2.908316,-8.341611 -7.314352,-9.477255 C 79.733628,16.604298 73.436667,17.443 71.228362,13.205596 68.126021,9.0570576 63.479844,5.9671267 58.123047,6.1738281 Z M 70.173828,88.265625 69.859375,88.617188 Z M 57.605469,8.5410156 c 3.014664,1.2898915 9.122152,0.3145304 11.050678,5.0480644 2.08774,1.795298 -1.211452,5.518727 3.075671,5.393975 4.281887,0.316108 9.234903,0.705857 12.587185,3.768806 2.311878,3.310362 4.680728,7.353427 4.982752,11.313455 0.02027,3.305374 -0.553476,6.124072 -1.790036,8.842887 -0.482846,3.006537 -6.40076,5.984084 -1.212023,8.281336 3.782416,3.434076 5.161716,9.776898 2.781826,14.341834 -2.685012,3.14672 -3.214525,8.240035 -7.727992,9.425736 -3.203749,2.190603 -10.140381,-1.19714 -9.990181,4.457433 -0.494772,4.063075 -2.30239,8.074527 -6.252223,9.905892 -3.710981,3.467508 -8.796694,1.76768 -13.263302,1.66907 -5.207778,0.458858 -5.292779,-8.904234 -10.50194,-6.670978 -3.716251,3.059504 -8.853179,3.768006 -13.253108,1.856654 -5.277457,-1.995734 -6.347019,-8.420337 -5.679968,-13.375342 1.455665,-5.349305 -3.639832,-7.275993 -7.917365,-7.694752 -5.0787672,-0.59822 -6.709971,-7.473618 -4.7311765,-11.53802 1.9927285,-3.520171 3.3160305,-7.971187 6.7670175,-10.25265 2.092223,-0.608225 7.606471,7e-4 5.499902,-4.055486 -1.670504,-3.622644 -2.526495,-8.566248 0.800983,-11.535709 1.581849,-3.972878 4.898995,-6.319825 9.03921,-6.980587 4.089873,-2.248248 9.993197,1.329174 12.008826,-4.52025 2.371459,-4.169084 7.287145,-6.032332 11.773538,-6.9136301 0.829651,-0.3897998 2.122223,0.4519133 1.951726,-0.7677383 z m -0.0293,0.6152344 c 0.0772,0.416213 0.659442,-0.3280318 0,0 z m -3.333984,3.261719 c -4.750914,0.599298 -8.628311,4.981412 -10.142228,9.422094 -0.78542,2.114363 -0.236898,9.350377 -3.114649,4.22901 -2.606748,-2.291456 -7.054762,-1.650639 -10.061548,-0.184929 -6.785598,3.086718 -6.897353,13.622468 -1.04735,17.694769 0.335185,2.660834 -6.114621,-0.70028 -8.076981,1.263194 -4.758436,1.240623 -8.50822,6.372628 -7.757316,10.851003 0.154256,4.785559 3.823252,8.543362 8.573923,8.850635 5.247597,-0.274728 0.26065,6.389625 1.601879,9.552817 -0.145513,4.010692 2.709829,8.85085 7.135227,9.262131 5.06456,0.749747 10.91649,-2.253571 12.167706,-7.449502 0.795274,2.199024 1.503649,7.744947 5.030242,9.531914 3.000992,2.868019 7.293298,4.482493 11.017693,2.550405 5.869379,-2.730853 9.192719,-10.521606 5.989792,-16.367851 -0.104894,-2.396977 5.217145,1.323848 7.288842,1.158708 3.724333,1.103117 7.828934,-1.222868 10.405067,-3.858955 3.061561,-3.407259 2.706981,-8.078383 2.054483,-12.208202 -0.02176,-3.857991 -2.956392,-7.583538 -6.602184,-8.805617 -0.446708,-1.706471 -3.462074,-1.94755 -0.534289,-3.341603 3.673017,-2.222881 4.878286,-6.624273 5.212491,-10.690288 1.220399,-4.661806 -2.966788,-8.194243 -6.626787,-10.145691 -4.018106,-1.692164 -7.621317,3.080142 -10.220564,2.643672 -0.544192,-4.372551 -0.929153,-9.290795 -5.257481,-11.803534 -1.821317,-1.741728 -4.620169,-2.099767 -7.035968,-2.15418 z m -0.273438,2.726562 c 3.833543,-0.160997 7.905667,2.644382 9.033203,5.187505 0.306658,3.162522 2.1743,7.79557 -0.416976,11.103431 -2.920874,1.600721 0.131629,-4.980535 -1.297565,-6.696662 -0.742331,-3.809955 -5.541543,-8.772084 -9.218866,-5.137764 -4.066118,3.363635 -4.760171,9.024464 -2.894635,13.777733 1.020277,1.840106 4.213019,4.987313 -0.03772,4.130659 -2.388465,-3.394638 -3.738717,-7.820053 -3.556252,-12.141013 -0.219735,-4.349264 3.366397,-7.170791 6.314184,-9.632361 0.628231,-0.367365 1.350358,-0.557208 2.074624,-0.591528 z m 8.716797,5.539063 -0.177735,-0.429688 z m 18.263672,0.132812 c -0.342027,0.100695 0.38584,0.047 0,0 z m -26.048828,0.574219 c 3.963662,0.312555 5.486743,5.153127 4.222743,8.461914 -0.313297,2.676769 -4.130121,10.001935 -6.526832,5.852844 -1.512897,-4.016585 -3.972555,-9.692909 0.220223,-13.212656 0.510423,-0.619125 1.265455,-1.079919 2.083866,-1.102102 z m -18.142579,5.451172 c 3.746419,-0.818551 4.448875,4.074089 7.079695,5.918428 1.828683,1.068742 4.684818,7.916575 0.749688,5.317697 -2.146073,-3.162012 -3.751898,-6.858922 -7.59971,-8.34305 -2.676919,-3.11492 -6.51501,0.796108 -6.409284,3.941448 -0.567827,4.322883 2.470084,8.241454 6.857541,8.688653 3.063369,0.649799 2.381341,3.855418 -0.655583,2.461802 -5.870776,-1.135032 -10.611374,-7.758077 -7.873962,-13.556215 1.259926,-3.278619 4.549769,-4.54004 7.851615,-4.428763 z m 37.50586,0.07813 c 3.400805,-0.272795 7.728235,2.393717 6.774776,6.230134 0.130325,2.933964 -1.401874,9.391024 -4.141705,8.924267 3.133713,-4.153503 2.186081,-11.44599 -3.849868,-12.400495 -3.675536,-0.433631 -6.721983,5.160128 -8.483376,5.630205 1.150882,-3.759241 2.156615,-8.066501 7.103946,-8.056919 0.850657,-0.199409 1.72208,-0.315834 2.596227,-0.327192 z M 37.210935,31.71875 c 0.428273,2.558102 3.486092,3.79244 2.978515,4.214844 2.805102,1.137433 4.225051,8.824734 -0.115745,4.843166 -3.883982,-0.26456 -10.456064,-6.217312 -5.523436,-8.803025 0.88461,-0.07722 1.808107,0.05317 2.660666,-0.254985 z m 35.644531,0.636719 c 4.752159,0.155707 4.067231,6.931016 0.699879,8.734059 -2.874855,2.396417 -11.297742,3.098297 -8.121331,-2.838095 2.207908,-2.190673 4.068612,-5.397412 7.421452,-5.895964 z m -12.183594,1.728515 c 1.449697,0.602791 -0.963009,1.175967 0,0 z m 1.529297,3.201172 c 2.304862,1.005239 -1.539558,1.470741 0,0 z m -2.490234,0.296875 c 2.154989,1.142737 -1.58912,1.687731 0,0 z m 1.439453,0.890625 c 2.048145,1.392372 -1.280602,1.670163 0,0 z m -7.800782,1.228516 c 4.114585,-0.134892 8.990585,1.101564 10.309569,5.563991 1.677323,5.053602 -0.650404,10.326268 -1.688819,15.266514 -1.869771,3.869632 -6.565778,5.469782 -10.445416,6.328228 -5.380596,0.575967 -9.503442,-3.760407 -12.247398,-7.82312 -1.740877,-1.592609 -1.580055,-8.501742 1.017733,-5.757538 0.149889,4.507533 3.977322,8.567775 8.602548,8.397357 4.133503,0.564546 9.158724,-1.147645 10.274038,-5.595409 1.87285,-4.005794 2.543204,-8.764653 -0.856419,-12.253923 -3.686977,-4.042781 -10.917484,-3.283132 -13.728041,1.442387 0.06788,3.082363 -4.599741,2.71411 -2.470337,-0.06944 2.540758,-3.404172 7.095687,-5.219436 11.232542,-5.499046 z m 22.708985,2.392578 c 0.879518,1.261046 -0.791322,0.05581 0,0 z m -1.951172,0.941406 c 2.04753,1.397186 -1.280365,1.669952 0,0 z m -22.765625,0.462891 c 4.62601,-0.470193 8.690803,4.975244 6.118088,9.13686 -1.216692,3.456302 -4.36116,5.865914 -7.639541,6.792607 -5.599782,0.65915 -8.416614,-5.617661 -5.220733,-9.878966 1.1645,-2.851928 3.387541,-5.874276 6.742186,-6.050501 z m 20.576172,1.101562 c 3.295312,1.783599 -9.035672,2.369984 -3.098613,0.34783 1.016391,-0.222571 2.05552,-0.371174 3.098613,-0.34783 z m -46.142578,1.271485 c 3.72047,0.2949 6.911553,2.757515 10.223042,3.977736 -4.477553,0.946616 -9.361431,-2.033696 -13.551648,0.416172 -4.564126,1.966004 -4.11187,10.787976 1.727022,9.895494 3.606446,0.449782 8.194867,-3.199492 9.894552,-4.258152 0.624398,-0.256999 3.096914,1.269984 0.649328,2.550937 -4.074669,4.160848 -10.625925,5.224535 -15.827062,2.626797 -3.389061,-3.00581 -3.816011,-8.640593 -0.186641,-11.614709 1.963327,-1.734799 4.43519,-3.285697 7.071407,-3.594275 z m 8.568359,0.384765 c 2.84485,-0.538415 3.064629,2.80816 0.300566,1.239556 -0.364293,-0.23183 -1.21767,-1.087743 -0.300566,-1.239556 z m 3.509766,1.351563 c 1.731864,0.878052 -0.67132,1.916274 0,0 z m 32.90039,0.578125 c 4.610058,0.775014 10.755231,1.63559 11.666322,7.501678 1.382901,4.913231 1.25432,11.738523 -4.336726,13.871814 -5.404604,1.612228 -12.263167,0.03791 -15.114752,-5.182086 4.595931,-1.649944 6.124409,5.776667 10.930212,4.452784 5.387405,0.995822 7.846839,-4.959419 6.595271,-9.357828 -1.34101,-4.455551 -5.229185,-9.372917 -10.408205,-8.545858 -2.36955,0.586596 -2.865501,2.916682 0.102118,2.200231 4.806829,-0.212413 8.564835,4.61242 8.04428,9.094363 -0.988539,6.002122 -8.02681,3.71066 -10.999854,0.706151 -4.474244,-2.654224 0.453543,-6.694767 -1.219614,-10.637003 0.273109,-2.317816 2.410511,-4.16033 4.740948,-4.104246 z m -19.072265,0.103515 c -3.673714,1.002187 -4.809084,7.938923 -1.169601,8.921016 4.337517,0.273109 6.352426,-8.79167 1.169601,-8.921016 z m -10.863282,0.708985 c 2.481028,0.719163 -0.151715,6.709224 -0.940154,1.946524 -0.287918,-0.742147 0.05881,-1.81003 0.940154,-1.946524 z m 8.720706,1.445353 c 0.896097,0.239206 -0.40036,0.977992 0,0 z m -20.542968,1.011719 c 2.703893,-0.509213 9.097243,2.123278 3.381145,3.348701 -1.90484,0.290232 -6.265081,4.603034 -9.759865,2.507015 -3.940568,-4.227895 3.285703,-6.114361 6.37872,-5.855716 z m 2.488281,3.626953 c 0.506266,0.04456 -0.0076,-0.244762 0,0 z M 9.21875,53.787109 c 0.7094955,0.902138 -0.8115583,0.801493 0,0 z m 52.71875,7.15625 c 0.896108,0.239214 -0.400386,0.977986 0,0 z m -26.054688,0.785157 c 3.139146,-0.145118 2.921797,1.969661 0.348519,2.561493 -4.096008,2.670818 -10.35286,6.549163 -7.295719,12.286697 2.452259,4.059793 8.352113,3.307543 10.835545,-0.456292 2.77066,-1.457853 2.599378,-7.385535 4.724362,-7.534485 0.476834,3.784112 -3.499052,7.033561 -5.151404,10.477416 -3.149893,2.072026 -8.707139,3.705769 -11.239463,-0.128911 -3.091289,-4.10997 -2.663953,-10.254437 1.41868,-13.576074 1.974272,-1.341605 4.074743,-3.138972 6.35948,-3.629844 z M 31.125,78.582031 c -3.951416,2.719078 -7.902832,5.438156 -11.854248,8.157234 3.951416,-2.719078 7.902832,-5.438156 11.854248,-8.157234 z M 11.578125,63.617188 c 0.01515,0.03261 0.01089,-0.0022 0,0 z m 0.271484,0.251953 c -0.008,0.0084 0.01113,0.0076 0,0 z m 28.001953,1.388671 c 5.153884,0.970957 0.04781,6.493106 -1.667859,8.697265 -2.32871,4.580143 -10.333937,2.186756 -6.808881,-2.918144 2.182406,-2.616747 5.456358,-4.5545 8.47674,-5.779121 z m 21.511719,2.320313 c 2.824189,2.527153 2.777373,7.079172 2.951084,10.608919 -1.039932,3.603351 -3.986483,8.352775 -8.337472,7.274132 2.573803,-2.301911 7.060755,-4.976318 5.73532,-9.815907 0.434771,-2.250964 -1.914989,-6.863937 -0.348932,-8.067144 z m -4.134765,0.152344 c 3.178705,2.721165 2.723127,8.877012 0.440466,12.288679 -0.746216,2.06456 -5.135337,4.916629 -3.395673,0.884881 2.560141,-2.673693 -1.943955,-1.02473 -3.159949,-1.629567 -1.229616,-3.532444 -1.673096,-10.944937 3.947186,-10.151454 0.531168,-0.635908 1.241924,-1.455345 2.16797,-1.392539 z m -8.304688,0.896484 c 1.730521,2.289019 -3.685297,2.359185 -0.846125,0.275257 l 0.846138,-0.275257 z m 33.253906,0.4375 c 0.709502,0.902128 -0.811604,0.801494 0,0 z m -35.210937,3.710938 c 1.954933,2.011946 1.602058,6.107153 1.335934,8.322122 -2.342983,-1.748743 -2.985617,-6.066125 -1.335934,-8.322122 z M 49.8125,77 c 0.879526,1.261042 -0.791335,0.0558 0,0 z m -0.171875,5.867188 c 2.620637,1.416117 -2.002612,2.060992 0,0 z m 12.470703,0.21289 c 0.896103,0.23921 -0.400371,0.977985 0,0 z"
     style="fill:#000000;stroke-width:0.32332873" />
</svg>
