<?xml version="1.0" encoding="UTF-8" standalone="no"?>
<svg
   xmlns:dc="http://purl.org/dc/elements/1.1/"
   xmlns:cc="http://creativecommons.org/ns#"
   xmlns:rdf="http://www.w3.org/1999/02/22-rdf-syntax-ns#"
   xmlns:svg="http://www.w3.org/2000/svg"
   xmlns="http://www.w3.org/2000/svg"
   id="svgBG33"
   version="1.1"
   viewBox="0 0 100 100"
   height="100"
   width="100">
  <defs
     id="defs2" />
  <metadata
     id="metadata5">
    <rdf:RDF>
      <cc:Work
         rdf:about="">
        <dc:format>image/svg+xml</dc:format>
        <dc:type
           rdf:resource="http://purl.org/dc/dcmitype/StillImage" />
        <dc:title></dc:title>
      </cc:Work>
    </rdf:RDF>
  </metadata>
  <path
     id="pathBG33"
     d="m 48.108351,88.434249 c 0.0473,-1.09141 -2.16953,-3.47523 -3.74433,-4.02641 -0.61641,-0.216 -1.11153,-0.60407 -1.10032,-0.86301 0.0114,-0.25859 -0.2284,-0.48143 -0.53257,-0.49463 -0.30403,-0.0114 -1.13743,-0.47448 -1.85176,-1.02512 -0.71435,-0.55071 -1.85897,-1.20172 -2.54363,-1.4467 -1.55417,-0.55611 -2.749905,-2.02709 -3.441346,-4.23358 -0.573404,-1.82976 -1.40971,-2.34185 -5.729513,-3.50798 -2.260769,-0.61027 -3.138442,-1.24462 -5.988215,-4.32781 -2.732241,-2.95608 -3.463689,-4.12236 -4.024169,-6.41655 -0.505592,-2.06949 -0.533767,-3.05912 -0.107584,-3.77869 0.80807,-1.36445 0.781738,-1.41727 -0.934701,-1.87289 -2.410045,-0.63986 -3.54306,-1.46423 -6.215191,-4.52228 -2.8216756,-3.22921 -3.3174756,-4.89848 -2.2406116,-7.54382 l 0.7491486,-1.84029 0.124417,2.96368 c 0.160974,3.83428 1.233758,4.42699 1.290938,0.71317 0.04592,-2.98364 -1.8945466,-7.05679 -3.3928166,-7.1217 -0.23588,-0.0115 -1.026,-0.76227 -1.756449,-1.67121 -0.923853,-1.14966 -1.160538,-1.80633 -0.777602,-2.15741 0.302784,-0.2776 0.541732,-0.30195 0.531155,-0.0533 -0.0107,0.24719 0.287578,0.0658 0.662863,-0.40355 0.658829,-0.82361 2.699248,-0.57092 2.131838,0.26352 -0.270204,0.39771 0.602747,1.64039 3.3595346,4.78288 1.63387,1.86246 6.352562,4.75179 7.867533,4.81742 0.412573,0.0152 1.135255,0.26163 1.606017,0.54271 3.195233,1.90466 4.715656,2.3786 8.909017,2.77726 l 4.59286,0.43663 0.303,-1.28146 c 0.166642,-0.70486 0.01996,-1.89022 -0.326063,-2.63421 -0.894651,-1.92387 -0.566552,-6.17267 0.66395,-8.59799 1.24386,-2.45174 4.47296,-5.44606 7.22782,-6.70225 1.09048,-0.4974 2.15827,-1.15046 2.37285,-1.45149 0.21456,-0.30156 1.50104,-0.9693 2.85878,-1.48495 4.04615,-1.53668 8.11316,-5.03233 8.77958,-7.54621 0.0748,-0.28179 0.42414,-1.13739 0.77629,-1.90042 0.66329,-1.4373 0.7247,-4.76889 0.10819,-5.87031 -0.6633,-1.1850201 0.17207,-1.1140701 1.22872,0.10458 1.2935,1.4916 2.91358,5.20972 2.67012,6.12803 -0.1091,0.41107 0.70037,1.01534 2.07719,1.54987 1.24075,0.48162 2.72267,1.35098 3.29318,1.9319 0.5705,0.58091 1.32635,1.32524 1.67967,1.65407 0.35332,0.32894 1.00063,1.07661 1.43846,1.66155 0.70151,0.93732 1.05688,1.01684 2.99245,0.66915 1.20805,-0.21714 2.32237,-0.54711 2.47635,-0.73342 0.40694,-0.49272 2.03455,-0.28939 4.10959,0.51243 1.75174,0.67725 2.27146,1.46952 2.99574,4.56694 0.16378,0.70059 0.80648,1.22401 1.80325,1.46868 2.24702,0.55157 2.77878,0.51578 3.60567,-0.24261 0.6371,-0.58415 0.96051,-0.5613 2.30447,0.16313 0.85985,0.46346 1.55475,1.04133 1.54422,1.28425 -0.0103,0.243 0.29928,0.45546 0.68853,0.47228 1.89144,0.0821 2.14568,8.10825 0.36188,11.42425 -0.98679,1.83429 -3.82134,4.60669 -4.67239,4.56979 -0.21383,-0.0115 -1.32864,0.73445 -2.47781,1.65271 -1.14916,0.91822 -2.43503,1.65889 -2.85747,1.646 -1.45441,-0.0437 -5.21744,3.96092 -5.28978,5.6307 -0.027,0.6283 -0.2584,1.20926 -0.5137,1.29091 -0.25532,0.0814 -0.57199,0.82634 -0.70375,1.65497 -0.13173,0.82859 -0.77508,2.04991 -1.42958,2.71391 -0.65451,0.66413 -1.19749,1.38008 -1.20665,1.59113 -0.009,0.21182 -0.32209,0.37039 -0.69542,0.3548 -1.13208,-0.0491 -2.36384,1.58916 -2.39776,3.18902 -0.041,1.92709 -1.25969,5.75419 -1.82474,5.7297 -0.68317,-0.0305 -0.93871,-1.32718 -0.41083,-2.08626 0.2646,-0.38027 0.51101,-1.30189 0.54757,-2.04773 0.0613,-1.24672 -0.0929,-1.36065 -1.91198,-1.41435 -1.43417,-0.043 -2.33665,-0.42058 -3.28058,-1.37505 -1.48325,-1.49982 -0.92286,-2.20212 1.07182,-1.34318 1.68059,0.72367 1.74809,0.71998 1.78354,-0.0977 0.0163,-0.37534 -0.52708,-1.33878 -1.20752,-2.13987 -0.89901,-1.05851 -1.07897,-1.60159 -0.65846,-1.9872 0.84796,-0.77755 2.11231,0.25251 3.07781,2.50806 0.81625,1.90666 1.78227,2.53747 1.84014,1.20158 0.0171,-0.40021 -0.1931,-0.87989 -0.46768,-1.06646 -0.27453,-0.18671 -0.35059,-0.55794 -0.16889,-0.82535 0.46779,-0.68839 -1.996,-4.42127 -3.15372,-4.7782 -1.59622,-0.49215 -1.02889,-2.17878 1.63522,-4.86138 3.9703,-3.99781 4.18756,-4.3614 3.11751,-5.2173 -0.49743,-0.3977 -1.26983,-0.73926 -1.71642,-0.75858 -0.44661,-0.019 -1.04966,-0.29472 -1.34011,-0.61111 -0.29046,-0.31678 -0.95029,-0.51349 -1.46628,-0.43713 -0.73425,0.10875 -0.53866,0.39853 0.89981,1.33348 1.05203,0.68379 1.81412,1.5792 1.78219,2.09414 -0.0814,1.31299 -1.78466,2.98208 -3.18379,3.12 -1.59709,0.15554 -1.83379,-1.25587 -0.31251,-1.86486 1.62269,-0.64962 1.72316,-1.42935 0.2789,-2.16447 -0.72136,-0.36697 -1.23143,-1.05672 -1.20654,-1.63114 0.024,-0.54734 -0.33321,-1.22777 -0.79322,-1.51196 -0.71446,-0.4415 -0.74375,-0.77771 -0.20083,-2.30685 0.61926,-1.74465 0.60427,-1.78364 -0.5916,-1.53797 -1.44478,0.297 -1.63727,-0.69785 -0.30674,-1.58497 1.2365,-0.82452 0.5882,-2.21339 -1.24296,-2.66284 -1.05671,-0.25972 -1.47644,-0.62963 -1.34417,-1.18571 0.28103,-1.18122 1.93913,-0.80308 5.54496,1.26469 1.48037,0.8489 2.15007,-0.0152 0.85463,-1.10699 -0.64025,-0.53791 -1.42886,-0.99462 -1.75244,-1.01482 -0.32358,-0.019 -0.65433,-0.26391 -0.73503,-0.54117 -0.0807,-0.27722 -1.22718,-0.75478 -2.54777,-1.06072 -1.32059,-0.30575 -2.52757,-0.69432 -2.68217,-0.86286 -0.15462,-0.16846 0.0263,-1.33618 0.40163,-2.59453 1.06702,-3.57605 1.47823,-6.75884 0.8766,-6.78489 -0.29141,-0.0115 -0.55379,0.53144 -0.58315,1.20903 -0.0293,0.67758 -0.28654,1.3625 -0.57158,1.52203 -0.28494,0.15972 -0.53611,0.70306 -0.55798,1.20781 -0.0217,0.50486 -0.43168,1.21317 -0.91069,1.57409 -0.79311,0.59761 -0.83594,0.48596 -0.47924,-1.24822 0.34875,-1.69571 0.2873,-1.87631 -0.56053,-1.64708 -1.27961,0.34568 -1.73439,-0.6037 -0.66294,-1.38422 0.47203,-0.34377 1.54021,-1.24564 2.37377,-2.004 0.88774,-0.80764 1.82378,-1.24497 2.25961,-1.05569 0.88903,0.38598 0.87793,0.49717 0.35385,-3.53939 -0.22992,-1.77085 -0.5966,-3.22755 -0.81479,-3.23706 -0.21828,-0.0114 -0.58795,0.80418 -0.82168,1.80816 -0.23368,1.00387 -0.81266,2.3645 -1.28652,3.02364 -0.47386,0.65911 -1.24771,1.83349 -1.71965,2.60987 -1.01956,1.67726 -3.2901,3.19887 -7.85111,5.26164 -1.84382,0.83387 -3.76412,1.8283 -4.26733,2.20991 -0.50322,0.38139 -0.90907,0.5583 -0.90192,0.39268 0.0454,-1.04714 -5.08908,4.20601 -6.24481,6.38917 -1.337265,2.526 -1.386753,2.8358 -0.97283,6.08958 0.35554,2.79494 1.07913,5.13439 2.20818,7.13922 0.0707,0.12588 0.49984,-0.11217 0.95366,-0.52824 0.7491,-0.6869 0.72721,-0.85602 -0.23767,-1.83629 l -1.06276,-1.07977 1.7316,-0.82871 c 0.95237,-0.45592 1.89277,-0.83125 2.08974,-0.83449 0.19702,-0.004 1.34506,-0.75923 2.55133,-1.68034 1.34052,-1.02364 3.40411,-1.95309 5.30781,-2.39068 4.20926,-0.96765 5.51973,-0.91935 5.25208,0.19357 -0.14903,0.61978 -0.72502,0.86978 -1.97031,0.8551 -2.30133,-0.0266 -5.96111,0.83087 -6.41922,1.50515 -0.24703,0.36355 0.2614,0.46535 1.60804,0.3221 5.70554,-0.60621 6.68446,-0.61237 7.00232,-0.0444 0.18178,0.32438 0.0266,0.92603 -0.34483,1.33608 -0.54825,0.60534 -0.55229,0.82931 -0.0213,1.19008 0.98515,0.66942 0.1283,2.2361 -0.94369,1.72545 -0.95956,-0.45709 -1.51533,-0.52375 -4.27156,-0.51216 -2.94923,0.0114 -2.27378,1.00299 0.77398,1.13502 3.09958,0.13424 6.31972,1.44556 6.2717,2.55393 -0.0414,0.9523 -1.2651,0.90966 -2.66838,-0.0935 -1.33221,-0.95192 -9.04748,-1.2407 -9.99117,-0.37381 -0.47273,0.43435 0.31255,0.61224 3.35007,0.75975 2.26594,0.11105 4.0325,0.41991 4.11898,0.72228 0.0833,0.29167 0.55182,0.54699 1.04122,0.56822 1.03549,0.0449 3.8598,1.53054 4.25634,2.23896 0.14941,0.26697 0.0814,0.76153 -0.15136,1.09913 -0.23269,0.33768 -0.37469,1.01557 -0.31555,1.5067 0.15504,1.28801 -1.17008,1.53403 -2.90506,0.53958 -0.82511,-0.47295 -1.77392,-0.87183 -2.10847,-0.88635 -0.94991,-0.0418 2.0453,2.55548 3.19696,2.77152 1.1818,0.2217 1.33802,1.64033 0.19812,1.79907 -0.41985,0.0562 -2.4761,-1.1149 -4.56981,-2.6075 -3.99205,-2.84587 -6.26555,-4.06065 -6.29574,-3.36389 -0.0259,0.5964 1.64961,2.15995 2.34676,2.19015 0.32518,0.0114 0.5766,0.36088 0.55884,0.77102 -0.05,1.15479 2.21927,2.53543 6.36254,3.87095 3.09588,0.99804 3.8034,1.4189 3.89669,2.31789 0.0668,0.6427 0.47818,1.11425 0.99181,1.13645 0.4828,0.019 2.16344,0.89017 3.73476,1.9316 1.57132,1.04144 2.99946,1.90689 3.17365,1.92324 0.8503,0.0794 2.86379,2.61515 3.042,3.83059 0.25593,1.74538 -0.56732,2.26485 -1.09771,0.69254 -0.40853,-1.21108 -2.40849,-3.97617 -2.4349,-3.36644 -0.008,0.18521 -0.84213,-0.2639 -1.8536,-0.99824 -1.01146,-0.73416 -2.2899,-1.42513 -2.84096,-1.53537 -0.55107,-0.1099 -1.24074,-0.36469 -1.5326,-0.56503 -0.29183,-0.2004 -1.62506,-0.78972 -2.96267,-1.30942 -5.8414,-2.2697 -13.56264,-7.30198 -13.49786,-8.79725 0.0122,-0.28444 -0.16534,-0.60015 -0.39473,-0.7028 -0.58159,-0.2601 -3.88639,-5.52253 -3.85941,-6.14551 0.0301,-0.69428 -0.46525,-0.61545 -2.291231,0.36506 -1.418446,0.76159 -1.556917,1.05548 -1.59746,3.39043 -0.02441,1.40609 0.199267,2.87077 0.497079,3.25494 1.501916,1.93737 3.385802,4.79495 3.371952,5.11485 -0.0252,0.58327 2.29487,3.13757 2.87272,3.16259 0.29087,0.0115 0.51621,0.31374 0.50083,0.66858 -0.0152,0.35517 0.44541,1.00078 1.02397,1.43483 2.29068,1.71868 6.23858,6.67313 6.66505,8.36435 0.24821,0.98412 0.48191,3.61095 0.51956,5.83749 0.0376,2.22643 0.14276,4.67706 0.23395,5.44584 0.11796,0.99584 -0.0482,1.38844 -0.57872,1.36543 -0.40945,-0.0152 -0.72659,-0.44405 -0.7048,-0.94724 z m 0.1933,-4.46141 c 0.0183,-0.42598 -0.41555,-0.91302 -0.96442,-1.08221 -0.5489,-0.16922 -0.98926,-0.50832 -0.97864,-0.75348 0.0103,-0.2449 -0.29251,-0.45938 -0.67358,-0.47596 -0.38106,-0.0152 -1.67928,-0.5184 -2.88485,-1.11536 -2.55987,-1.26755 -5.17681,-4.88698 -5.49774,-7.6039 -0.11633,-0.98478 -0.41525,-1.92893 -0.66427,-2.09823 -0.24902,-0.16884 -2.366372,-0.44949 -4.705228,-0.62286 -3.652363,-0.27038 -4.085587,-0.21904 -3.069947,0.36507 2.51253,1.44488 4.771845,2.07108 5.493921,1.52278 0.549986,-0.41735 0.809403,-0.0343 1.24717,1.83703 0.692194,2.9604 2.384224,5.19213 4.977604,6.56516 3.81935,2.02229 5.52277,3.11179 6.14388,3.92985 0.70725,0.93147 1.52603,0.68851 1.57611,-0.46781 z m -1.40455,-4.70053 c 0.12169,-0.63477 -0.0609,-1.10076 -0.43825,-1.11711 -0.35587,-0.0152 -1.14004,-0.67512 -1.7426,-1.46599 l -1.0956,-1.43795 0.44576,1.40981 c 1.10575,3.49732 1.38769,4.04828 1.9852,3.87984 0.3502,-0.0988 0.73067,-0.66962 0.84549,-1.2686 z m -4.09606,-3.22299 c -0.41087,-1.17153 -0.94952,-2.13885 -1.19696,-2.14957 -0.6648,-0.0305 -0.64283,2.20144 0.0289,2.93397 0.31867,0.34757 0.39262,0.62378 0.16432,0.61392 -0.22832,-0.008 -0.13953,0.34492 0.19721,0.78841 1.09027,1.43593 1.59599,0.0662 0.8065,-2.18673 z m 3.31116,-1.54698 c -0.51884,-1.0457 -0.61914,-1.08141 -0.82037,-0.29244 -0.1261,0.4946 0.0497,1.26664 0.39072,1.71575 0.85009,1.11954 1.16828,0.0666 0.42966,-1.42362 z m -6.24165,-0.1719 c 0.1836,-0.26961 0.0933,-0.50158 -0.20071,-0.51429 -0.29399,-0.0114 -0.54432,0.20422 -0.55635,0.48151 -0.0122,0.27761 0.0783,0.50905 0.20071,0.51433 0.12249,0.008 0.37275,-0.21181 0.55635,-0.48155 z m 3.77627,-1.69065 c -0.0697,-0.46666 -0.38892,-0.9486 -0.70936,-1.0709 -0.37066,-0.14147 -0.50021,0.15972 -0.35613,0.82756 0.26916,1.2476 1.24889,1.47131 1.06549,0.24339 z m -8.561483,-4.45805 c -0.174469,-0.49422 -0.399493,-1.56516 -0.500058,-2.37987 -0.100558,-0.81472 -0.582437,-2.3112 -1.070819,-3.32559 -0.488389,-1.01441 -0.875535,-2.13163 -0.860323,-2.48271 0.01518,-0.35137 -0.199465,-0.64818 -0.477043,-0.66017 -0.710438,-0.0304 -0.68427,1.29532 0.05791,2.93506 0.851663,1.88162 1.129972,6.32531 0.378425,6.0423 -0.309785,-0.11674 -0.608837,-0.82219 -0.664523,-1.56796 -0.148329,-1.98629 -1.030688,-1.69503 -1.120134,0.36963 -0.07639,1.76317 -0.07232,1.76659 2.248618,1.86717 2.013364,0.0871 2.282596,-0.0228 2.007941,-0.79794 z m -5.265959,-1.11297 c 0.03007,-0.69394 -0.172453,-1.27161 -0.450039,-1.28364 -0.277427,-0.008 -0.519471,0.31867 -0.537498,0.73519 -0.0444,1.02486 -0.717208,0.92337 -1.694704,-0.25554 -0.643247,-0.7758 -0.690514,-1.25075 -0.230761,-2.31838 0.789186,-1.83268 0.753615,-2.30021 -0.151914,-1.99697 -0.42331,0.14185 -0.788261,0.68766 -0.811027,1.21309 -0.02273,0.52544 -0.382064,0.94067 -0.798445,0.92257 -0.416354,-0.0152 -0.747222,-0.26011 -0.735185,-0.53746 0.01202,-0.27759 -0.205248,-0.51455 -0.482833,-0.52657 -0.839683,-0.0381 -0.631702,1.46465 0.36457,2.63146 1.233355,1.44446 2.937251,2.45715 4.339747,2.5793 0.88634,0.0772 1.145354,-0.17645 1.188093,-1.16313 z m 9.062732,0.89826 c 0.0179,-0.4161 -0.19432,-0.76691 -0.4719,-0.77889 -0.27742,-0.008 -0.51946,0.31867 -0.53749,0.73512 -0.018,0.41652 0.19431,0.76691 0.4719,0.77897 0.27743,0.008 0.51947,-0.31868 0.53749,-0.7352 z m -11.160836,-2.85374 c -0.143671,-0.40941 -0.268425,-0.29471 -0.31812,0.2913 -0.04498,0.5311 0.06142,0.83429 0.236374,0.67385 0.174994,-0.16009 0.211766,-0.59495 0.08176,-0.9656 z m -6.099709,-5.27571 c 0.350364,-3.88053 -0.04984,-5.12469 -0.6815,-2.11869 -0.580218,2.76118 -0.633482,5.65105 -0.104585,5.67397 0.25489,0.0114 0.608544,-1.58884 0.786085,-3.55528 z m 14.438777,3.23337 c 0.0429,-0.99013 -0.772421,-1.90508 -1.281619,-1.43814 -0.413499,0.37877 0.225959,2.37386 0.768493,2.3974 0.25892,0.0114 0.489767,-0.4207 0.513126,-0.95926 z m -10.575548,-0.9936 c 0.01202,-0.27759 -0.205245,-0.51454 -0.482831,-0.5266 -0.277427,-0.008 -0.514535,0.20535 -0.526567,0.48284 -0.01201,0.27761 0.205253,0.51456 0.482836,0.52661 0.277425,0.008 0.514535,-0.20535 0.526562,-0.48285 z m -1.172604,-1.27883 c 0.92789,-0.85085 0.97245,-1.25809 0.141582,-1.2941 -0.349596,-0.0152 -0.938986,0.41443 -1.309758,0.95458 -0.799614,1.16495 0.01102,1.40053 1.168181,0.33959 z m 50.39023,1.00911 c 0.76257,-1.00988 1.66398,-2.84803 2.00313,-4.08481 0.79282,-2.89121 0.79437,-3.0003 0.0431,-3.02765 -0.34708,-0.0114 -1.09552,1.26322 -1.66318,2.83537 -0.56766,1.57219 -1.49539,3.40727 -2.0616,4.07797 -1.22477,1.45089 -1.32642,1.96518 -0.39632,2.00545 0.37865,0.0153 1.31234,-0.79646 2.07492,-1.80633 z m -2.609,-1.78621 c 0.0114,-0.26088 -0.32008,-0.4897 -0.73647,-0.50775 -0.7805,-0.0343 -1.02849,0.55211 -0.48473,1.14514 0.38574,0.42069 1.19364,-9.5e-4 1.2212,-0.63739 z m -45.796594,-5.01629 c 0.03062,-0.70667 -0.537437,-0.60502 -1.616067,0.28939 -0.527543,0.4373 -0.972589,1.2714 -0.989012,1.85334 -0.02776,0.98013 0.06633,0.95777 1.277283,-0.30383 0.718933,-0.7492 1.316442,-1.57658 1.327796,-1.83867 z m 45.356434,-0.40731 c 0.82784,-0.55316 1.06218,-0.49497 1.75268,0.43549 0.78994,1.06442 0.80057,1.06083 1.18874,-0.40145 0.42073,-1.58475 -0.25456,-3.58525 -1.22442,-3.62724 -0.32674,-0.0115 -1.60926,0.88777 -2.85011,2.00435 -2.40459,2.16376 -2.94858,3.92388 -1.49246,4.82887 0.722,0.44877 0.9272,0.28142 1.26581,-1.03302 0.22228,-0.86276 0.83415,-1.85593 1.35975,-2.20715 z m -16.43837,1.86588 c 0.49473,-0.45386 -1.57119,-2.26846 -2.63485,-2.3145 -0.49632,-0.0228 -1.03293,-0.27267 -1.19244,-0.5573 -0.15953,-0.28483 -1.79834,-0.58358 -3.64177,-0.66344 -3.88298,-0.16808 -3.82457,0.62301 0.10936,1.48074 1.35437,0.29509 3.35575,0.92712 4.44752,1.40399 2.35655,1.02927 2.47126,1.05487 2.91224,0.65051 z m -31.512145,-2.24966 c 1.903764,-0.88225 3.446364,-2.49764 2.802725,-2.93504 -0.847797,-0.57616 -5.403185,2.29031 -4.943882,3.11092 0.333509,0.59586 0.506525,0.58159 2.141103,-0.17645 z m -4.069862,-0.28065 c -0.160477,-0.17531 -0.594958,-0.21143 -0.965617,-0.0818 -0.409601,0.14375 -0.295196,0.26848 0.291686,0.3183 0.531087,0.0453 0.834304,-0.0619 0.673914,-0.23616 z m 12.772488,0.13006 c 0.0173,-0.40021 -0.189524,-0.87746 -0.459678,-1.06102 -0.270162,-0.18368 -0.511428,0.13386 -0.536207,0.70542 -0.02476,0.57156 0.182098,1.04899 0.459678,1.06105 0.277426,0.008 0.518897,-0.30536 0.536207,-0.70545 z m 8.405369,-1.43542 c -0.15953,-0.28482 -0.50377,-0.5274 -0.76497,-0.53869 -0.26121,-0.0115 -0.48475,0.20649 -0.49678,0.48409 -0.0122,0.27761 0.33222,0.51996 0.76498,0.53874 0.43277,0.0228 0.6563,-0.19926 0.49677,-0.48414 z m -22.742466,-1.29092 c 0.444769,-0.14908 0.691807,-0.47954 0.548994,-0.73471 -0.407292,-0.72766 -2.027679,-0.61807 -2.756382,0.18596 -0.550906,0.60814 -0.489431,0.73729 0.368827,0.7744 0.566447,0.0266 1.393947,-0.0756 1.838571,-0.22589 z m 4.386503,-1.0211 c 0.01202,-0.27761 -0.318812,-0.5195 -0.735183,-0.53749 -0.416356,-0.0152 -0.766894,0.19432 -0.778911,0.47193 -0.01202,0.27761 0.318805,0.51946 0.735184,0.53753 0.416354,0.0152 0.766892,-0.19432 0.778914,-0.47193 z m 55.194563,1.15457 c -0.22547,-1.53758 -1.38241,-2.71117 -2.06017,-2.08964 -0.55094,0.50516 1.21826,3.93385 1.84799,3.58133 0.21901,-0.12207 0.31449,-0.79388 0.21216,-1.49169 z m -43.683105,-1.07923 c 0.385923,-0.22209 -0.52115,-0.46197 -2.185487,-0.57802 -1.564864,-0.10877 -3.265954,-0.35216 -3.780171,-0.54035 -0.91057,-0.33313 -1.29884,0.21334 -0.652452,0.91834 0.454435,0.49557 5.822626,0.65788 6.618105,0.20003 z m -17.11781,-1.95956 c -0.237773,-0.83178 -2.966519,-0.95138 -3.278507,-0.14336 -0.163162,0.4225 0.352958,0.64732 1.610434,0.70181 1.253635,0.054 1.791686,-0.12587 1.668066,-0.55826 z m 9.244725,0.30918 c -0.589989,-0.77703 -4.589752,-2.51107 -5.925441,-2.56891 -2.015328,-0.0875 3.151104,3.05597 5.296399,3.22242 0.980128,0.0761 1.093493,-0.0419 0.629042,-0.65351 z m 54.26931,1.84492 c 0.47085,-0.65488 1.02549,-2.30867 1.23254,-3.67499 0.33198,-2.1908 0.24216,-2.58723 -0.75998,-3.35593 -1.54443,-1.18461 -2.92053,-1.18214 -2.97196,0.004 -0.0255,0.58689 0.42036,1.09205 1.15714,1.31129 0.97786,0.29091 1.16595,0.64491 1.02171,1.92269 -0.0972,0.86142 -0.56068,1.75964 -1.02986,1.99614 -0.70177,0.35366 -0.76189,0.65541 -0.33905,1.70118 0.63088,1.56033 0.63529,1.56059 1.68942,0.095 z m 4.83914,-1.34356 c 0.55232,-0.60974 0.48484,-0.73748 -0.41012,-0.77627 -0.6157,-0.0266 -1.08517,0.27533 -1.104,0.71063 -0.0179,0.41653 0.16652,0.76574 0.41012,0.77627 0.24379,0.0115 0.74038,-0.30917 1.10399,-0.71063 z m -70.144726,-3.23782 c 0.01072,-0.24794 -0.333747,-0.60412 -0.765531,-0.79164 -1.109285,-0.48176 -1.203193,-0.45162 -1.239988,0.3977 -0.01818,0.42078 0.41582,0.7765 0.976602,0.80084 0.555178,0.0266 1.018183,-0.15897 1.028928,-0.4069 z m 4.060715,-0.35518 c 0.01852,-0.4279 -1.673498,-1.09232 -2.953864,-1.1599 -0.545972,-0.0305 -0.511862,0.13386 0.137142,0.65283 0.995229,0.79604 2.790201,1.1192 2.816722,0.50707 z m 30.396791,0.62327 c 1.8652,-0.2487 3.58887,-0.64385 3.83039,-0.8778 0.68252,-0.66118 -6.9328,-0.11978 -8.49438,0.60385 -0.75695,0.35101 -1.49072,0.51308 -1.63059,0.3605 -0.13983,-0.15211 -0.43742,-0.008 -0.66112,0.32172 -0.30757,0.45269 0.0776,0.5311 1.57881,0.32173 1.09205,-0.1525 3.51168,-0.48083 5.37688,-0.72962 z m 24.22433,-0.59281 c 0.83324,-1.93499 0.74067,-3.84555 -0.25506,-5.2643 l -0.89831,-1.28002 -0.0346,2.64774 c -0.024,1.82447 -0.26593,2.77744 -0.77862,3.06498 -0.61665,0.34567 -0.63689,0.55836 -0.11826,1.24135 0.88618,1.16708 1.45388,1.05555 2.08485,-0.40941 z m 15.33732,-1.24683 c 0.50232,-0.36088 0.92711,-0.85787 0.94399,-1.1046 0.0167,-0.24641 0.4994,-0.99714 1.07229,-1.66764 0.57289,-0.67044 1.07533,-1.90011 1.11655,-2.73261 0.0899,-1.81398 -1.33512,-4.57102 -2.81551,-5.44783 -1.32448,-0.7844 -5.51274,-0.42957 -5.55174,0.47044 -0.0152,0.34719 -0.53964,1.58402 -1.16577,2.74849 -0.62614,1.16441 -1.06758,2.16257 -0.98098,2.21824 0.0866,0.0556 0.76501,0.44091 1.50761,0.85624 1.40978,0.78847 2.17809,3.35613 1.4831,4.95646 -0.19375,0.44615 -0.1091,1.1314 0.18821,1.52287 0.55286,0.72808 0.81031,0.61659 4.20228,-1.82006 z m -3.93802,-4.0723 c -1.00921,-1.49645 -1.02244,-1.66784 -0.21558,-2.7904 0.94754,-1.31797 1.72017,-1.44433 2.8274,-0.46249 1.63097,1.44606 1.95841,2.31032 1.38227,3.64825 -0.78664,1.82676 -2.61795,1.64557 -3.99429,-0.39522 z m 2.50886,-0.8718 c 0.0118,-0.27761 -0.0781,-0.50905 -0.20064,-0.51429 -0.12249,-0.008 -0.37279,0.21143 -0.55636,0.48151 -0.1836,0.26962 -0.0932,0.50159 0.20068,0.51437 0.29399,0.0115 0.54432,-0.20422 0.55635,-0.48159 z m -18.25207,3.60558 c -0.081,-1.10413 0.16078,-1.89188 0.70711,-2.30674 1.18108,-0.89677 1.0581,-1.50742 -0.31552,-1.56693 -1.40736,-0.0612 -2.64476,1.11961 -3.19174,3.04528 -0.51381,1.8088 -0.15938,2.37165 1.53969,2.44524 1.26788,0.0552 1.37292,-0.0783 1.26049,-1.61685 z m 7.01619,-1.02857 c 0.0354,-0.81639 -0.13462,-1.61953 -0.37774,-1.78478 -0.24315,-0.16466 -0.47648,0.49388 -0.51854,1.46466 -0.0421,0.97074 0.12774,1.77394 0.37774,1.78469 0.24999,0.0115 0.48317,-0.64823 0.51854,-1.46457 z m 6.57098,0.0559 c 0.0335,-0.77005 -1.28939,-1.53339 -1.98369,-1.1447 -0.23957,0.13422 -0.56838,0.004 -0.73044,-0.28332 -0.38016,-0.67925 -1.7426,-0.74467 -1.77124,-0.0829 -0.0118,0.2776 0.3753,0.52912 0.86067,0.559 0.48536,0.0305 1.30894,0.4069 1.83011,0.83772 1.18818,0.98238 1.75539,1.01897 1.79453,0.11599 z m -16.57089,-2.66568 c 0.0122,-0.28179 -0.32488,-0.2411 -0.7625,0.0894 -0.43137,0.32704 -0.79411,0.82254 -0.80614,1.10015 -0.0122,0.28178 0.32495,0.24185 0.76251,-0.0894 0.43137,-0.32704 0.7941,-0.82259 0.80613,-1.10019 z m 8.4843,-1.12046 c -0.14371,-0.40982 -0.26848,-0.29509 -0.3181,0.2913 -0.045,0.53106 0.0616,0.83433 0.23638,0.67393 0.17497,-0.1601 0.21174,-0.59503 0.0818,-0.96562 z m 3.89815,-0.73751 c 1.43387,-2.20358 1.9023,-5.98573 0.98621,-7.96258 -1.09413,-2.36104 -2.7273,-3.36103 -5.31583,-3.25508 l -2.18096,0.089 -0.12782,2.25233 c -0.0704,1.23866 -0.34635,3.20984 -0.61344,4.38018 l -0.48563,2.12798 1.93643,0.0966 c 1.61895,0.083 2.13089,0.39185 3.12282,1.89118 0.65254,0.98634 1.30753,1.80484 1.45553,1.81888 0.14804,0.0114 0.69823,-0.63392 1.22272,-1.43993 z m -4.94583,-3.38466 c -0.5526,-0.76588 -0.1531,-3.36596 0.65409,-4.25704 1.29712,-1.43206 2.9354,0.0928 2.82549,2.6301 -0.0904,2.08591 -2.377,3.15499 -3.47958,1.62694 z m 2.49717,-2.29362 c 0.0118,-0.27759 -0.20524,-0.51451 -0.48284,-0.52657 -0.27741,-0.008 -0.51454,0.20535 -0.52657,0.4828 -0.0118,0.27761 0.20524,0.51452 0.48284,0.52661 0.27741,0.008 0.51454,-0.20535 0.52657,-0.48284 z m -4.02578,5.3877 c 0.1836,-0.26962 -0.0335,-0.50711 -0.48283,-0.52656 -0.44916,-0.019 -0.68609,0.19773 -0.52657,0.48282 0.15953,0.28484 0.37682,0.52195 0.48284,0.52655 0.10595,0.004 0.34301,-0.21296 0.52656,-0.48281 z m -3.22617,-5.82677 c 0.56578,-3.11784 -0.15261,-4.92368 -2.67207,-6.71685 -2.9142,-2.07408 -3.65922,-1.96549 -4.15028,0.60514 -1.26844,6.63976 -1.28468,6.22409 0.25802,6.60417 0.77584,0.19128 2.18154,0.93523 3.1238,1.65338 2.12143,1.617 2.83897,1.16956 3.44056,-2.14565 z m -4.73825,-1.40244 c -0.73368,-1.81454 -0.18729,-3.2102 1.10122,-2.81292 1.26815,0.391 2.05081,1.99659 1.58889,3.25952 -0.50953,1.39317 -2.04964,1.13747 -2.69011,-0.4466 z m 17.50321,-1.73373 c -0.0443,-0.43112 -0.48211,-1.29623 -0.97288,-1.92236 -1.19959,-1.53036 -1.61336,-0.36735 -0.47779,1.34297 0.98884,1.48944 1.56799,1.72073 1.45067,0.57939 z m -12.56485,-3.93553 c -1.1795,-2.31102 -4.99139,-5.0462 -6.13812,-4.40439 -1.07476,0.60163 -0.375,1.54913 1.6034,2.17121 1.16629,0.36659 2.55478,1.14316 3.08555,1.72544 1.08408,1.18929 1.95229,1.49344 1.44917,0.50774 z m -10.64464,36.95675 c 0.2457,-1.1713 0.65692,-2.369 0.91384,-2.66158 0.25688,-0.29281 0.3294,-0.68216 0.16109,-0.86568 -0.16827,-0.18367 -0.0213,-0.64799 0.32647,-1.032 0.43112,-0.47596 0.46853,-0.80973 0.11751,-1.04828 -0.92737,-0.63023 -0.50697,-2.31255 0.56623,-2.26609 0.90414,0.0381 0.96962,0.34301 0.70731,3.28228 -0.15899,1.78145 -0.56107,3.5393 -0.8935,3.90635 -0.33244,0.36697 -0.49553,1.17209 -0.3624,1.78914 0.19523,0.90507 0.0266,1.11259 -0.8706,1.07373 -1.02801,-0.0449 -1.07868,-0.2103 -0.66593,-2.17787 z m 1.17619,-9.93563 c 0.0281,-0.64233 0.3802,-0.99476 0.96901,-0.96925 1.28204,0.0556 1.6708,0.61145 0.96923,1.38601 -0.88068,0.97222 -1.9881,0.73412 -1.93824,-0.41652 z m -0.58166,-4.74997 c -0.25038,-0.94077 -0.35621,-1.96931 -0.2354,-2.2856 0.30932,-0.80938 1.65606,-0.65887 1.61968,0.18102 -0.0167,0.38185 0.0811,1.40986 0.21702,2.28484 0.34629,2.22947 -1.00051,2.07793 -1.6013,-0.18026 z m -21.45365,-3.66292 c -1.1538,-2.63151 -0.15372,-4.95373 3.46217,-8.0394 1.77198,-1.51222 3.86088,-3.04456 4.64198,-3.4053 0.78113,-0.36051 1.57645,-0.85323 1.76742,-1.09448 0.51268,-0.64773 1.96702,0.13728 1.63651,0.88308 -0.15569,0.35138 -1.26298,1.05113 -2.46066,1.55497 -3.45834,1.4548 -9.34783,7.44185 -7.39361,7.51609 0.2082,0.008 1.34402,-0.9099 2.52396,-2.03967 1.17994,-1.12967 3.07114,-2.63508 4.20267,-3.34529 2.24951,-1.41183 5.35608,-2.14919 5.31765,-1.26215 -0.0308,0.71512 -2.11953,2.0226 -3.15894,1.9776 -0.45327,-0.0228 -2.40274,1.28977 -4.33216,2.90991 -3.67423,3.0851 -4.40146,4.55554 -1.02719,2.07698 2.25733,-1.65817 5.13623,-3.09742 6.54896,-3.27406 0.53735,-0.0666 1.29942,-0.36697 1.69365,-0.66636 0.50931,-0.38683 0.86635,-0.38097 1.23361,0.019 0.80979,0.88308 0.0598,1.49488 -2.83944,2.31602 -1.47488,0.41777 -3.5852,1.31079 -4.68961,1.98453 -3.16809,1.93266 -5.74135,3.32121 -6.13956,3.31308 -0.20106,-0.004 -0.64559,-0.64542 -0.98742,-1.42498 z m 19.90429,-0.75592 c 0.0236,-0.54138 -0.324,-1.21086 -0.77214,-1.48778 -0.47629,-0.29433 -0.67398,-0.82768 -0.47582,-1.28394 0.34533,-0.79528 -0.68048,-3.65198 -1.51506,-4.21914 -0.25304,-0.17188 -0.44522,-0.65617 -0.42702,-1.07593 0.0179,-0.41997 -0.29286,-1.11874 -0.69119,-1.55321 -0.39837,-0.43444 -0.71511,-1.00075 -0.70395,-1.25845 0.0365,-0.83556 1.55744,-0.42847 1.8537,0.49565 0.15815,0.49352 0.42373,1.01702 0.59015,1.16327 0.80572,0.7082 2.38304,3.64069 2.35137,4.37166 -0.0198,0.45395 0.35039,1.68636 0.82246,2.73864 0.47202,1.05223 0.74495,2.19269 0.60654,2.53433 -0.40142,0.99075 -1.68593,0.65755 -1.63902,-0.4251 z m -6.20133,-12.66596 c -0.31575,-0.94295 0.65838,-1.54489 1.32452,-0.81845 0.51538,0.5621 0.0813,1.62166 -0.65139,1.58992 -0.23148,-0.008 -0.5344,-0.35708 -0.67313,-0.77147 z"
     style="fill:#000000;stroke-width:0.50517362" />
</svg>
