<?xml version="1.0" encoding="UTF-8" standalone="no"?>
<svg
   xmlns:dc="http://purl.org/dc/elements/1.1/"
   xmlns:cc="http://creativecommons.org/ns#"
   xmlns:rdf="http://www.w3.org/1999/02/22-rdf-syntax-ns#"
   xmlns:svg="http://www.w3.org/2000/svg"
   xmlns="http://www.w3.org/2000/svg"
   id="svgBG34"
   version="1.1"
   viewBox="0 0 100 100"
   height="100"
   width="100">
  <defs
     id="defs2" />
  <metadata
     id="metadata5">
    <rdf:RDF>
      <cc:Work
         rdf:about="">
        <dc:format>image/svg+xml</dc:format>
        <dc:type
           rdf:resource="http://purl.org/dc/dcmitype/StillImage" />
        <dc:title></dc:title>
      </cc:Work>
    </rdf:RDF>
  </metadata>
  <path
     id="pathBG34"
     d="M 19.923368,94.446646 C 19.426736,94.340281 18.8274,94.069812 18.591497,93.8456 c -0.235892,-0.224213 -0.743816,-0.409826 -1.128696,-0.412476 -0.384881,-0.0027 -1.688818,-0.916889 -2.897637,-2.031656 -1.20881,-1.114766 -2.377018,-2.026842 -2.59601,-2.026842 -0.218983,0 -0.398159,-0.304746 -0.398159,-0.67722 0,-0.372468 -0.355544,-1.048059 -0.790091,-1.50131 C 8.5941515,84.915232 7.2717982,80.598524 6.5385159,73.347108 5.5993627,64.059866 5.5665693,61.95429 6.3437885,60.844661 6.7690122,60.237563 7.0562067,58.889337 7.0562067,57.50015 c 0,-1.518016 0.2355045,-2.522857 0.6772124,-2.889439 0.3724715,-0.309124 0.6772219,-0.805277 0.6772219,-1.102564 0,-0.297284 0.457121,-0.950567 1.0158283,-1.451736 0.5587072,-0.501164 1.4525757,-1.401262 1.9863707,-2.000203 0.533805,-0.598946 1.448047,-1.538167 2.031657,-2.087162 0.583619,-0.548994 1.424068,-1.419863 1.86767,-1.935257 0.443612,-0.515397 0.999982,-0.817537 1.236401,-0.671427 0.23641,0.146112 0.32348,-0.01153 0.19348,-0.350271 -0.136255,-0.355079 0.248349,-0.875329 0.908134,-1.228441 0.629469,-0.336879 1.14448,-0.792798 1.14448,-1.013147 0,-0.684261 2.875552,-3.076813 4.05885,-3.377101 0.618325,-0.156913 1.386072,-0.547144 1.706106,-0.86718 0.320043,-0.320036 0.880756,-0.467198 1.246047,-0.327025 0.365284,0.140173 0.664156,0.01797 0.664156,-0.271568 0,-0.289535 0.189128,-0.409541 0.420281,-0.266678 0.231153,0.142861 0.547896,0.05327 0.703862,-0.199095 0.155974,-0.252364 0.639716,-0.458845 1.074992,-0.458845 0.679117,0 2.767138,-2.200606 2.767138,-2.916335 0,-0.134211 0.406328,-0.650352 0.90296,-1.14698 1.194728,-1.194728 1.187205,-4.52182 -0.01617,-7.174184 -1.006866,-2.21914 -0.83924,-3.278409 1.187816,-7.506054 0.597183,-1.245504 1.085795,-2.51529 1.085795,-2.821746 0,-0.306457 0.203172,-0.557194 0.451484,-0.557194 0.248312,0 0.451475,-0.239531 0.451475,-0.532291 0,-0.776446 3.143656,-3.531026 4.029772,-3.531026 0.415752,0 0.972509,-0.216602 1.23725,-0.48134 0.399157,-0.3991523 1.270543,-0.628097 3.762573,-0.988563 0.633063,-0.091573 3.001543,0.795126 3.526745,1.320315 0.330586,0.330589 0.968408,0.601069 1.417388,0.601069 0.876505,0 4.080916,-3.5946693 4.092364,-4.5907771 0.0055,-0.4900215 0.079,-0.4873946 0.396829,0.014202 0.272595,0.4302616 0.44242,0.4579322 0.564409,0.091959 0.09597,-0.287911 0.971198,-0.6222928 1.944965,-0.7430703 0.973757,-0.1207765 2.052724,-0.4538433 2.397706,-0.7401485 0.447086,-0.3710495 0.714598,-0.3795911 0.931438,-0.029735 0.167302,0.2699491 1.000452,0.6003705 1.851427,0.7342709 0.850984,0.1338994 1.709894,0.5340971 1.908697,0.8893293 0.198794,0.3552312 1.78815,2.1156733 3.531902,3.9120907 1.743741,1.79642 3.170453,3.412492 3.170453,3.59127 0,0.17878 0.488538,0.784004 1.085628,1.344944 0.597091,0.560941 1.213023,1.698983 1.368738,2.528978 0.155698,0.829997 0.429041,1.574662 0.607422,1.654813 0.178373,0.08015 0.77879,1.110766 1.334273,2.290256 0.555473,1.17949 1.266551,2.145779 1.580181,2.14731 0.313612,0.0015 1.159144,0.309912 1.878954,0.685295 0.719809,0.37538 1.407954,0.583298 1.529212,0.462037 0.468755,-0.468752 2.938913,1.767678 3.539155,3.204284 0.347301,0.831209 0.851131,1.461295 1.119632,1.400192 0.268501,-0.0611 0.723229,0.28214 1.010516,0.762767 0.823466,1.377649 2.628572,2.970905 3.062269,2.702869 0.21707,-0.134159 0.394685,-0.06709 0.394685,0.149065 0,0.216147 0.43329,0.858075 0.962863,1.426508 1.865246,2.002117 3.160173,5.091831 3.416773,8.152469 0.223807,2.669593 0.107307,3.270245 -1.143324,5.895089 -0.765881,1.607448 -1.401042,2.730782 -1.411464,2.496307 -0.01044,-0.234476 -0.476059,0.189219 -1.034767,0.94155 -1.163773,1.567104 -2.596,3.051727 -2.596,2.690985 0,-0.213174 -2.560888,1.336069 -3.837576,2.3216 -1.704434,1.315713 -3.242896,2.007359 -4.880903,2.194305 -3.065761,0.3499 -3.340408,0.532288 -3.642043,2.418662 -0.291158,1.820854 -3.168097,5.803731 -4.231346,5.857957 -0.310397,0.01583 -0.564354,0.333535 -0.564354,0.706003 0,0.421378 -0.426397,0.677221 -1.128697,0.677221 -1.686055,0 -1.700839,0.0042 -3.160362,0.86286 -1.616367,0.951116 -3.821461,0.901803 -5.381453,-0.12034 -0.623277,-0.408386 -1.45227,-0.74252 -1.842224,-0.74252 -1.126322,0 -3.831597,-1.929397 -6.859732,-4.892346 -1.240642,-1.213917 -4.022038,-1.644303 -4.392227,-0.679632 -0.478817,1.247801 -5.686711,2.452014 -7.378569,1.706137 -1.033477,-0.455622 -1.304806,-0.525602 -2.29733,-0.592522 -1.399019,-0.09433 -3.218289,-2.171323 -4.631058,-5.287097 -1.329958,-2.933165 -1.387856,-3.339211 -1.723422,-12.086734 -0.02171,-0.566522 -0.259373,-0.751203 -0.73283,-0.569519 -0.38537,0.147878 -0.606544,0.116581 -0.491513,-0.06955 0.36325,-0.587754 -0.791763,-1.74719 -2.05337,-2.061253 -0.671623,-0.167187 -1.339014,-0.09976 -1.493962,0.150957 -0.154024,0.249227 -0.782348,0.453136 -1.396274,0.453136 -0.613917,0 -1.233167,0.304749 -1.376094,0.67722 -0.142936,0.372471 -0.65085,0.677219 -1.128706,0.677219 -0.477847,0 -0.985761,0.304749 -1.128688,0.677219 -0.142936,0.372471 -0.492094,0.677552 -0.775926,0.67796 -0.90185,0.0014 -3.777051,3.42384 -4.778863,5.688604 -0.531356,1.201226 -1.175526,3.104478 -1.431479,4.229452 -0.255953,1.124972 -0.779067,2.624473 -1.162479,3.332213 -1.013676,1.871129 -1.080583,10.394646 -0.09657,12.302933 0.396995,0.769887 0.634375,1.995478 0.527521,2.723536 -0.200428,1.365605 2.148333,6.583538 3.869437,8.59623 0.984568,1.151379 3.722313,2.394919 5.902459,2.681022 1.382387,0.181417 2.6961,1.187519 2.734548,2.094246 0.01322,0.311104 -1.069292,0.528401 -1.922725,0.385976 -0.876033,-0.146195 -2.126239,0.979152 -2.126239,1.913882 0,1.411189 -0.94685,2.440146 -2.031656,2.207813 z m -0.677222,-4.089225 c 0,-0.989944 -0.523382,-1.700362 -2.343466,-3.180925 -2.611608,-2.124454 -4.360422,-4.865506 -5.582732,-8.750245 -0.449247,-1.427804 -0.982868,-2.596004 -1.185838,-2.596004 -0.5323542,0 -0.4556889,4.407946 0.08242,4.740535 0.248311,0.153467 0.451475,0.856405 0.451475,1.562083 0,1.933668 4.24564,7.388801 6.888174,8.850455 1.509207,0.834794 1.689936,0.767858 1.689936,-0.625899 z M 9.7049597,68.62469 c 0.052579,-2.978299 0.3515603,-5.6969 0.7509763,-6.828955 0.364969,-1.03444 0.663583,-2.263798 0.663583,-2.731911 0,-0.468116 0.387044,-1.712358 0.860095,-2.764987 1.293727,-2.878768 1.551407,-4.397004 0.746264,-4.397004 -0.814448,0 -2.509317,1.745421 -2.509317,2.584151 0,0.334388 -0.2856789,1.057949 -0.6348473,1.607917 -1.2124774,1.909818 -1.4775136,17.478949 -0.2975428,17.478949 0.1833712,0 0.3727307,-2.226669 0.4207888,-4.94816 z M 65.861396,67.653171 c 2.099738,-0.863497 1.505439,-1.627858 -1.430795,-1.840247 -2.882372,-0.208495 -4.867421,-1.2848 -7.825839,-4.243213 -3.057613,-3.057611 -4.437763,-7.40476 -2.469984,-7.779863 0.937971,-0.178799 2.547435,1.57272 2.56914,2.795886 0.02246,1.264888 4.3282,5.248647 5.672868,5.248647 0.612892,0 1.130388,0.253957 1.149987,0.56435 0.02855,0.451479 0.08123,0.451479 0.263364,0 0.12525,-0.310393 0.515546,-0.56435 0.86732,-0.56435 0.660377,0 0.844469,-0.961501 0.669913,-3.498964 -0.09352,-1.3595 0.0018,-1.46731 1.288811,-1.46731 0.764366,0 1.38975,0.215157 1.38975,0.478128 0,0.262967 0.180137,0.366785 0.400322,0.230709 0.821295,-0.507593 1.426443,1.075205 1.477236,3.863813 0.02883,1.582222 0.143426,2.621542 0.254678,2.309599 0.111252,-0.311938 0.388088,-0.452323 0.615201,-0.311959 0.227097,0.140353 0.412917,-0.683032 0.412917,-1.829751 0,-1.258897 -0.17683,-1.975666 -0.44631,-1.809117 -0.256406,0.158466 -0.331335,-0.02379 -0.176099,-0.42832 0.148609,-0.387282 -0.05692,-1.203351 -0.45665,-1.813486 -1.90709,-2.910588 -0.197194,-3.79415 3.518845,-1.818314 2.051107,1.090585 4.300379,1.46171 4.946008,0.816075 0.171942,-0.171941 0.686019,-0.369603 1.142401,-0.439252 1.535468,-0.234327 3.210269,-1.02783 3.210269,-1.520995 0,-0.269111 0.18679,-0.373854 0.415078,-0.232765 0.228298,0.141098 0.721705,-0.05007 1.096449,-0.424833 0.374754,-0.374749 0.875406,-0.681368 1.112564,-0.681368 0.977361,0 3.696625,-3.634584 3.696625,-4.940928 0,-0.729572 0.203164,-1.452056 0.451476,-1.605523 1.041335,-0.643585 0.205954,-5.940256 -1.169447,-7.414735 -0.511785,-0.548649 -0.66545,-0.468719 -1.051634,0.547011 -0.248746,0.654252 -0.520296,1.697584 -0.603448,2.318517 -0.08316,0.620934 -0.294318,1.272094 -0.469244,1.447023 -0.174935,0.174935 -0.318065,0.792112 -0.318065,1.371514 0,0.579397 -0.203165,1.053451 -0.451475,1.053451 -0.248321,0 -0.453323,0.253957 -0.455578,0.564349 -0.0018,0.310393 -0.655674,1.072263 -1.452048,1.693047 -0.796374,0.620785 -1.819964,1.493843 -2.274655,1.940135 -0.951517,0.933957 -5.14179,0.980815 -6.060781,0.06777 -0.863753,-0.858163 0.530848,-2.459389 2.142031,-2.459389 0.73086,0 1.328839,-0.203166 1.328839,-0.451479 0,-0.248314 0.304741,-0.45148 0.677222,-0.45148 0.372462,0 0.677213,-0.2249 0.677213,-0.499783 0,-0.274878 0.276928,-0.393519 0.615387,-0.263636 0.844071,0.3239 2.544966,-2.809177 2.544966,-4.687866 0,-1.769885 -1.703769,-4.473812 -2.821738,-4.478178 -0.434556,-0.0017 -0.790091,-0.218241 -0.790091,-0.481209 0,-0.262969 -0.203163,-0.352561 -0.451484,-0.199094 -0.248312,0.153465 -0.451475,-0.02402 -0.451475,-0.394412 0,-0.37039 -0.423543,-0.807868 -0.941214,-0.972169 -0.75763,-0.240462 -0.882566,-0.532428 -0.640529,-1.496809 0.407187,-1.622333 0.653234,-1.785888 1.318333,-0.876317 0.43062,0.588908 0.69135,0.648036 1.091782,0.247603 0.400433,-0.400432 0.526063,-0.396681 0.526063,0.01572 0,0.297977 0.507913,0.541776 1.128706,0.541776 1.498268,0 1.502083,-1.356966 0.0074,-2.77436 -0.616495,-0.584767 -1.124418,-1.2301 -1.128706,-1.434074 -0.01811,-0.860545 -1.407529,-1.6608 -2.883527,-1.6608 -0.87218,0 -1.705866,-0.19429 -1.852628,-0.431759 -0.146762,-0.237469 -0.554577,-0.321349 -0.906249,-0.186398 -0.351681,0.13495 -1.087015,-0.171645 -1.634098,-0.681325 -0.547074,-0.50968 -1.167081,-0.820142 -1.377784,-0.689917 C 71.338248,25.662772 71.15252,25.503367 71.13623,25.178324 70.85599,19.585993 69.796022,16.513571 67.349934,14.203306 66.824103,13.70668 65.616328,12.337389 64.665967,11.160445 63.715606,9.9834974 62.778937,9.1188768 62.584469,9.2390636 62.390009,9.3592503 62.10324,9.1249237 61.94722,8.7183401 61.791199,8.3117555 61.534646,8.107993 61.3771,8.2655355 61.219556,8.42308 60.842723,8.3462077 60.539692,8.0947098 60.166453,7.7849522 59.573511,7.7953039 58.701617,8.1267984 57.764847,8.4829592 57.368832,8.4790875 57.246667,8.1125778 57.142151,7.7990339 56.879749,7.881219 56.551335,8.3303632 56.261221,8.7271133 55.604521,9.083314 55.091996,9.1219208 c -0.512515,0.038605 -0.952505,0.2834686 -0.97775,0.5441362 -0.02522,0.2606675 -0.380445,1.845309 -0.789324,3.521429 -0.695147,2.849592 -0.824592,3.047485 -1.993522,3.047485 -1.012021,0 -1.517338,-0.429899 -2.653372,-2.257397 -1.531578,-2.463797 -2.853654,-2.932054 -3.718073,-1.316884 -0.403223,0.753448 -0.34281,1.117905 0.303753,1.832348 0.967021,1.068551 0.503737,2.102637 -1.349482,3.012144 -2.066187,1.014027 -2.708251,2.474319 -2.375835,5.403565 0.161131,1.419854 0.341138,3.060122 0.400007,3.645039 0.06699,0.665709 -0.252663,1.306119 -0.85467,1.712184 -0.906609,0.611536 -1.02931,0.53335 -2.141651,-1.364722 -0.648975,-1.107381 -1.249947,-2.472121 -1.335511,-3.032758 -0.293588,-1.923752 0.589819,-5.114755 1.701292,-6.145376 0.598191,-0.554671 1.206796,-1.383983 1.352458,-1.842918 0.145652,-0.458935 0.974026,-1.112692 1.840809,-1.452791 0.866784,-0.340101 1.575977,-0.690523 1.575977,-0.778716 0,-0.08819 -0.378431,-0.566545 -0.840949,-1.063006 -0.725852,-0.779108 -1.003926,-0.8284 -2.031665,-0.360133 -0.654888,0.298387 -1.190707,0.689382 -1.190707,0.868878 0,0.179495 -0.406329,0.432611 -0.902951,0.562483 -0.496632,0.129869 -0.902969,0.559897 -0.902969,0.955616 0,0.395718 -0.172117,0.719486 -0.382497,0.719486 -0.210381,0 -0.997903,1.174009 -1.750062,2.608909 -1.795828,3.425952 -2.386701,8.385526 -1.277501,10.722993 0.703186,1.481858 3.299631,3.175961 4.578868,2.987583 0.270368,-0.03981 0.860576,0.33533 1.311543,0.833651 0.450985,0.498324 1.035953,0.906041 1.299964,0.906041 0.264,0 0.965117,0.558707 1.55805,1.241569 0.987332,1.137101 1.054157,1.504396 0.794231,4.365182 -0.276485,3.042977 -0.982924,4.740987 -2.884765,6.933826 -0.471,0.543058 -0.972862,0.870878 -1.115262,0.728478 -0.47574,-0.475743 -0.896473,3.877239 -0.430658,4.455613 0.248174,0.308139 0.590383,1.211328 0.760476,2.007093 0.176156,0.824147 0.668343,1.560814 1.143602,1.711658 0.458895,0.145646 1.366234,0.683187 2.0163,1.194531 0.886503,0.69732 1.105107,1.17188 0.874499,1.89845 -0.387662,1.221402 -1.481321,2.067966 -2.695545,2.086529 -1.722961,0.02629 -5.033919,-5.502069 -5.474704,-9.141289 -0.300823,-2.483573 -0.426526,-2.621424 -1.887639,-2.069889 -1.048816,0.395903 -1.071805,0.513509 -0.849994,4.348913 0.333376,5.764342 2.401808,9.180123 6.027275,9.953361 3.646683,0.777764 6.380335,-0.513761 7.614129,-3.597321 0.38222,-0.955248 0.963021,-1.736813 1.290677,-1.736813 0.829409,0 2.571921,1.700833 2.571921,2.510406 0,1.005891 2.287813,4.261783 2.994613,4.261783 0.339475,0 0.617225,0.18948 0.617225,0.421054 0,0.231584 0.428042,0.556913 0.951222,0.722963 0.523169,0.166045 1.339465,0.636863 1.813985,1.046252 1.479777,1.276663 6.062629,1.791695 8.183167,0.919645 z M 60.28895,55.237535 c -0.660442,-0.795786 -0.342229,-2.467041 0.579747,-3.044872 1.539848,-0.965064 3.491466,2.073378 2.058093,3.204187 -0.776462,0.612558 -2.061659,0.534933 -2.63784,-0.159315 z M 46.547695,48.605438 c -0.366862,-1.95557 0.06838,-3.512814 0.893359,-3.196241 0.334642,0.128416 0.741294,0.01851 0.903652,-0.244186 0.190894,-0.308859 0.586114,-0.200068 1.118349,0.307831 1.948097,1.859023 1.396635,3.935819 -1.179426,4.441702 -1.36106,0.267284 -1.45324,0.197759 -1.735934,-1.309106 z M 72.695848,42.60557 c -0.225978,-0.900373 -0.098,-1.382011 0.4794,-1.80422 1.225442,-0.896061 2.123716,-0.284461 1.965792,1.338437 -0.103037,1.058782 -0.386073,1.445069 -1.13705,1.551857 -0.766677,0.109019 -1.071768,-0.144289 -1.308142,-1.086074 z M 63.679985,27.362655 c -0.268603,-0.284863 -1.110726,-0.989097 -1.871395,-1.564967 -1.16479,-0.881813 -1.330068,-1.23803 -1.04744,-2.257398 0.259677,-0.936584 0.578408,-1.181944 1.409109,-1.084729 0.590439,0.0691 1.240854,0.424637 1.445377,0.790089 0.204513,0.365451 0.762859,0.664458 1.240771,0.664458 1.092319,0 2.549707,2.586322 1.851066,3.28496 -0.677111,0.677114 -2.454283,0.775488 -3.027488,0.167587 z M 47.629046,25.875724 c -0.623389,-0.664638 -1.005119,-1.546287 -0.916487,-2.116703 0.212348,-1.366626 0.862819,-1.949399 1.483289,-1.328929 0.278572,0.278573 0.770899,0.405032 1.094073,0.281018 0.323167,-0.12401 0.817719,0.204542 1.098991,0.730116 0.426711,0.797317 0.328986,1.1724 -0.590032,2.264591 l -1.101448,1.308998 z M 65.220942,21.539842 C 64.91329,20.981135 64.65219,20.320845 64.640704,20.072533 64.629249,19.824218 64.127006,18.964156 63.524666,18.161282 62.605407,16.93597 62.21221,16.739793 61.076573,16.939863 c -0.74412,0.131094 -1.597886,0.573331 -1.897258,0.982747 -0.502019,0.686562 -0.601193,0.687503 -1.276596,0.01209 -1.884542,-1.88454 0.190043,-4.408624 3.623519,-4.408624 1.916791,0 2.374689,0.193729 3.591398,1.519469 2.147039,2.339405 4.480942,7.817214 2.919489,6.852182 -0.23116,-0.142864 -0.547896,-0.05327 -0.703861,0.199094 -0.483298,0.781976 -1.526505,0.506898 -2.112322,-0.556984 z M 39.100619,43.562263 c 0.303282,-0.365432 0.704656,-1.343873 0.891955,-2.174316 l 0.340537,-1.509893 -1.852498,0.0635 c -3.733457,0.127972 -3.884165,0.174867 -3.884165,1.208543 0,2.237563 3.218557,3.96123 4.504171,2.412166 z M 26.726755,42.330468 c 1.867042,0 2.172522,-0.36609 1.320514,-1.582514 -0.777756,-1.110391 -2.608318,-0.908156 -3.953208,0.436731 -0.703066,0.703073 -0.765355,0.96894 -0.295094,1.259579 0.327841,0.20262 0.771629,0.259907 0.986186,0.127303 0.214556,-0.132604 1.08828,-0.241099 1.941602,-0.241099 z M 37.34298,37.003011 c 1.918751,0 2.219741,-0.122436 2.219741,-0.902958 0,-0.496628 -0.223253,-0.902959 -0.496114,-0.902959 -0.272872,0 -1.198183,-0.333154 -2.056273,-0.740339 -1.303318,-0.61847 -1.736996,-0.645693 -2.634468,-0.165384 -1.538277,0.823264 -2.275735,2.792673 -1.506925,4.024295 l 0.59881,0.959272 0.827744,-1.135963 c 0.690316,-0.947361 1.196281,-1.135964 3.047485,-1.135964 z"
     style="fill:#000000;stroke-width:0.45147946" />
</svg>
