<?xml version="1.0" encoding="UTF-8" standalone="no"?>
<svg
   xmlns:dc="http://purl.org/dc/elements/1.1/"
   xmlns:cc="http://creativecommons.org/ns#"
   xmlns:rdf="http://www.w3.org/1999/02/22-rdf-syntax-ns#"
   xmlns:svg="http://www.w3.org/2000/svg"
   xmlns="http://www.w3.org/2000/svg"
   id="svgBG35"
   version="1.1"
   viewBox="0 0 100 100"
   height="100"
   width="100">
  <defs
     id="defs2" />
  <metadata
     id="metadata5">
    <rdf:RDF>
      <cc:Work
         rdf:about="">
        <dc:format>image/svg+xml</dc:format>
        <dc:type
           rdf:resource="http://purl.org/dc/dcmitype/StillImage" />
        <dc:title></dc:title>
      </cc:Work>
    </rdf:RDF>
  </metadata>
  <path
     d="m 19.79956,11.64635 c -0.351478,-0.04176 -0.510419,0.638684 -0.41025,1.833484 0.109739,1.308945 0.10058,1.345748 -0.462085,1.871357 -0.315724,0.294927 -0.669242,0.536475 -0.785333,0.536475 -0.248091,0 -2.052808,-0.672647 -2.805452,-1.045452 -0.717892,-0.355598 -3.716952,-0.868892 -5.199307,-0.889919 -1.381052,-0.01961 -2.985021,0.350131 -3.321192,0.765493 -0.1263926,0.156163 -0.3605913,0.226602 -0.5328671,0.160491 -0.9469225,-0.36337 -0.5365761,0.769371 0.6036441,1.665778 0.393788,0.309586 1.136529,0.87999 1.650454,1.267257 2.093642,1.577652 2.80361,2.458381 4.125456,5.11816 0.694029,1.396502 1.283511,2.641915 1.309634,2.767585 0.02609,0.12567 0.146541,0.471036 0.267783,0.767295 0.121242,0.29626 0.237107,0.739528 0.257419,0.985042 0.02029,0.245514 0.123885,0.447402 0.230372,0.449017 0.106481,0.0016 0.06733,0.0848 -0.08746,0.184836 -0.154793,0.100035 -0.190237,0.183221 -0.07845,0.184837 0.111796,0.0016 0.207619,0.108137 0.212793,0.237131 0.0051,0.128993 0.06948,0.487916 0.142906,0.7975 0.07344,0.309586 0.205394,1.069606 0.293484,1.688773 0.0881,0.619169 0.325852,1.464863 0.528359,1.879468 0.202513,0.414608 0.429458,1.09028 0.504023,1.501232 0.07456,0.410951 0.238718,0.958325 0.365162,1.216312 0.126444,0.257986 0.283581,0.764516 0.348937,1.125698 0.06535,0.361181 0.192988,1.017442 0.283564,1.458402 0.09413,0.458305 0.107462,0.685476 0.0257,0.825001 0.05529,0.194039 0.105974,0.389305 0.157791,0.584263 0.283909,-0.05927 0.413001,0.225356 0.4409,0.96746 0.01431,0.380289 0.172219,0.797786 0.369671,0.976476 0.189702,0.171679 0.345329,0.491461 0.345329,0.710493 0,0.219031 0.114603,0.564646 0.254714,0.768197 0.140106,0.203552 0.362925,0.70796 0.49545,1.120739 0.405821,1.264025 1.737508,3.65643 2.524142,4.534799 0.108099,0.120707 0.365248,0.451054 0.571638,0.733935 0.798295,1.094152 2.085058,2.178234 3.238692,2.728813 1.122625,0.535779 1.293734,0.565469 2.543074,0.440001 0.736722,-0.07399 1.668675,-0.250693 2.071069,-0.392664 0.402394,-0.141974 0.910993,-0.260954 1.130205,-0.264181 0.219218,-0.0032 0.82071,-0.213685 1.336681,-0.4675 0.665257,-0.32725 1.252631,-0.461862 2.019674,-0.462992 1.023888,-0.0016 1.126604,0.04174 1.922752,0.815533 0.79869,0.776254 0.830613,0.847442 0.63475,1.409263 -0.322594,0.925413 -2.250046,1.816365 -4.204343,1.943486 -1.482495,0.09643 -1.512022,0.08956 -2.718449,-0.637009 -1.817162,-1.094383 -3.008523,-1.393119 -4.406315,-1.10496 -0.617616,0.127323 -1.487201,0.477478 -1.932666,0.778115 -0.445459,0.300638 -1.080112,0.683348 -1.410163,0.850247 -2.136238,1.080259 -5.103528,5.600661 -5.835414,8.88972 -0.488315,2.194465 -0.595354,4.640168 -0.240286,5.485128 0.230547,0.548647 0.243729,0.731184 0.06086,0.843935 -0.1284,0.07916 -0.398167,0.409043 -0.599142,0.733033 -0.200985,0.323993 -0.792281,1.210533 -1.314136,1.970086 -1.165769,1.696737 -1.686519,3.302328 -1.52197,4.691683 0.06398,0.540206 0.234587,1.100611 0.37914,1.245163 0.150802,0.150803 1.252433,0.403645 2.584549,0.59328 1.276922,0.181778 2.549307,0.423569 2.827545,0.537376 0.564762,0.23102 0.632907,0.486117 0.788483,2.944307 0.1296,2.047437 0.646946,4.977096 0.967009,5.475212 0.144648,0.225113 0.497034,0.448124 0.783078,0.49545 0.67485,0.11166 1.639492,0.02874 2.607989,-0.22451 1.065341,-0.278526 4.566603,-2.039779 4.688984,-2.358686 0.182775,-0.476305 1.491631,-1.24128 2.059346,-1.203694 0.720321,0.04768 1.764961,-0.198691 1.764961,-0.416106 0,-0.09499 0.138595,-0.172665 0.308357,-0.172665 0.622903,0 3.193001,-1.392877 4.246726,-2.301435 1.568765,-1.352642 2.916177,-3.515043 2.190084,-3.515043 -0.391657,0 -1.392505,0.624498 -1.766313,1.102257 -0.650204,0.831024 -1.045119,1.167702 -1.233446,1.051307 -0.373645,-0.230924 -0.148069,-0.79222 0.940864,-2.341107 1.33942,-1.905162 2.255902,-3.768996 2.255902,-4.588443 0,-0.327953 0.09099,-1.089164 0.202423,-1.691931 0.166369,-0.899987 0.144687,-1.341695 -0.120825,-2.46914 -0.262508,-1.114728 -0.278498,-1.426658 -0.08566,-1.659018 0.351529,-0.423561 0.666137,-0.351631 1.19152,0.272747 0.861063,1.023321 0.842476,4.236796 -0.04013,6.899798 -0.196556,0.593077 -0.415362,1.352489 -0.485981,1.687871 -0.112005,0.531904 -0.07914,0.609957 0.257413,0.609957 0.448671,0 0.780243,-0.47454 1.24607,-1.782539 0.402496,-1.130166 0.620192,-1.392658 1.248771,-1.50664 0.386229,-0.07004 0.639151,0.08633 1.299263,0.80246 0.902257,0.978834 3.221028,2.457063 4.753448,3.030414 0.719115,0.269051 1.68383,0.39833 3.59168,0.482374 5.765021,0.253964 5.710482,0.247567 6.440418,0.80246 0.369316,0.280753 1.144284,0.944049 1.722133,1.474183 0.577848,0.530134 1.464386,1.203761 1.970083,1.497171 0.505702,0.293405 0.947486,0.59997 0.981888,0.681191 0.03438,0.08122 0.170675,0.147866 0.302947,0.147866 0.132277,0 0.462237,0.174248 0.733036,0.387256 0.324639,0.255367 0.70055,0.367061 1.103609,0.328195 0.54973,-0.05303 0.6519,-0.162942 1.015248,-1.090984 0.222216,-0.567568 0.494148,-1.24279 0.604546,-1.500779 0.110404,-0.257988 0.236092,-0.68017 0.279061,-0.938158 0.04295,-0.257983 0.150758,-0.45575 0.239835,-0.439547 0.08908,0.01623 0.173702,-0.643637 0.187989,-1.466517 0.02237,-1.288639 0.08684,-1.561067 0.463894,-1.962418 0.442917,-0.471458 0.804044,-0.49084 2.324881,-0.124877 0.206391,0.04965 0.849566,0.133387 1.429551,0.186185 0.967302,0.08806 1.20154,0.02446 2.83295,-0.769095 0.97818,-0.475814 1.857138,-0.865127 1.952955,-0.865127 0.448604,0 1.279058,-1.393807 1.09865,-1.843853 -0.06916,-0.172524 -0.245533,-0.764187 -0.391765,-1.315041 -0.314438,-1.184511 -1.806515,-4.367784 -2.457423,-5.242137 -0.251693,-0.338102 -0.498335,-0.837463 -0.547741,-1.109918 -0.04943,-0.272453 -0.262846,-0.966978 -0.474715,-1.543157 -0.211869,-0.576182 -0.429588,-1.258574 -0.483733,-1.516559 -0.05416,-0.257987 -0.249078,-0.637997 -0.433234,-0.844387 -0.184157,-0.20639 -0.448001,-0.646303 -0.586066,-0.977377 -0.270314,-0.648195 -2.034722,-2.70362 -3.751726,-4.37025 -1.170464,-1.136124 -3.606718,-2.60342 -5.3323,-3.211642 -0.910441,-0.320907 -1.60261,-0.396596 -3.831972,-0.419262 -2.544077,-0.02587 -2.778625,0.002 -3.617381,0.430533 -0.493314,0.25205 -1.268034,0.824525 -1.721676,1.271763 -1.080705,1.065433 -1.722826,1.290133 -2.617013,0.916517 -0.373999,-0.156266 -0.733498,-0.435528 -0.798853,-0.620779 -0.06536,-0.185249 -0.274969,-0.691428 -0.466148,-1.124345 -0.191185,-0.432915 -0.347584,-0.946811 -0.347584,-1.142378 0,-0.64635 1.136867,-2.649547 1.748284,-3.080454 0.328325,-0.231398 0.681229,-0.489068 0.784425,-0.572541 0.381546,-0.308633 2.732967,-1.828526 2.828892,-1.828526 0.05461,0 0.410177,-0.210866 0.789841,-0.468853 0.954278,-0.648447 1.374003,-0.593463 2.220288,0.292582 0.958781,1.003829 2.858893,2.51448 3.448769,2.741888 1.750583,0.674876 2.457186,1.096721 2.373571,1.416476 -0.09897,0.378453 -0.03962,0.402391 0.406187,0.165 0.338645,-0.180324 2.590867,0.150604 3.411807,0.501312 0.257989,0.110212 1.355392,0.421178 2.438937,0.691107 1.083545,0.269931 2.22358,0.582877 2.53316,0.695165 1.267831,0.459856 1.65804,0.410267 2.110741,-0.266886 0.281288,-0.420754 0.422419,-0.912188 0.422419,-1.47328 0,-0.46315 0.07237,-0.922621 0.160936,-1.020656 0.217155,-0.240373 0.558427,-2.128531 0.68074,-3.765249 0.07509,-1.004859 0.03573,-1.389171 -0.15959,-1.551272 -0.209918,-0.174221 -0.356996,-0.0168 -0.767742,0.822746 -0.341446,0.697889 -0.703177,1.138332 -1.102707,1.342994 -0.738627,0.37836 -0.869163,0.572057 -0.872787,1.293402 -0.0017,0.314744 -0.104283,0.673667 -0.228117,0.797501 -0.283993,0.283989 -1.778527,0.292123 -2.576439,0.01398 -0.465021,-0.162109 -0.709275,-0.155972 -1.050411,0.0266 -0.359515,0.19241 -0.555479,0.191847 -1.025161,-0.0027 -0.444473,-0.184105 -0.691133,-0.190296 -1.050411,-0.0266 -0.765781,0.348912 -2.228196,0.255716 -3.21435,-0.204673 -0.492931,-0.23013 -0.913997,-0.423761 -0.935899,-0.430533 -0.02192,-0.0068 -0.08906,-0.53941 -0.149224,-1.183403 -0.108798,-1.16463 -0.106679,-1.171624 0.441806,-1.362828 0.482262,-0.168118 0.591093,-0.349476 0.866024,-1.443978 0.383575,-1.527014 0.491758,-1.66545 1.419631,-1.822214 1.047936,-0.177048 1.659607,-0.724457 1.801476,-1.611682 0.151671,-0.948481 0.360265,-1.065005 0.937257,-0.522951 0.624413,0.586607 0.810999,0.263509 0.680289,-1.177993 -0.08797,-0.97011 -0.06258,-1.090161 0.207827,-0.986394 0.206718,0.07932 0.307912,0.0194 0.307912,-0.183033 0,-0.165834 -0.131702,-0.301599 -0.292587,-0.301599 -0.568735,0 -0.05095,-0.376106 0.678485,-0.492746 0.657463,-0.105131 0.739799,-0.17657 0.739799,-0.644673 0,-0.67527 0.315442,-1.524519 0.665409,-1.791559 0.615881,-0.469941 1.200577,-0.06928 2.251845,1.543608 0.562665,0.863254 1.024,1.676059 1.025618,1.805985 0.0056,0.462819 0.659621,2.329275 0.974223,2.779757 0.271971,0.389447 0.34897,0.415938 0.513029,0.176721 0.10616,-0.154792 0.195676,-0.534802 0.198816,-0.844385 0.0034,-0.309584 0.07132,-0.665943 0.151473,-0.792091 0.08014,-0.126148 1.028374,-0.353516 2.107585,-0.50537 2.77947,-0.391093 3.783846,-0.690515 5.801604,-1.728895 1.589134,-0.817802 1.928833,-1.090742 3.234183,-2.602133 0.802139,-0.928752 1.459721,-1.753048 1.461107,-1.831682 0.0011,-0.07863 0.38787,-0.722674 0.858815,-1.430903 0.736045,-1.106917 0.848078,-1.399895 0.7975,-2.0891 -0.04102,-0.55943 -0.170167,-0.864242 -0.42647,-1.008493 -0.202034,-0.113704 -0.482313,-0.312359 -0.623038,-0.441352 -0.14072,-0.128995 -0.332125,-0.234427 -0.42557,-0.234427 -0.09345,0 -0.311727,-0.216448 -0.485085,-0.481025 -0.304108,-0.464124 -0.290401,-0.545297 0.393117,-2.298731 1.614395,-4.141456 2.004401,-4.89034 3.241843,-6.226277 0.334559,-0.361183 0.609038,-0.828109 0.609962,-1.037335 0.0028,-0.627772 -0.502906,-1.155776 -1.217665,-1.271765 -0.808372,-0.131184 -3.731025,0.351259 -4.290906,0.708238 -0.21999,0.140263 -0.779888,0.36337 -1.244261,0.495901 -0.959001,0.273684 -2.173335,1.005497 -2.325333,1.401601 -0.05608,0.146203 -0.235162,0.265984 -0.39762,0.265984 -0.162463,0 -1.80191,1.508847 -3.643075,3.3532 -1.841171,1.844354 -3.726957,3.614705 -4.190828,3.933856 -0.463866,0.31915 -0.893161,0.709902 -0.953934,0.868279 -0.06077,0.158377 -0.218502,0.288514 -0.35074,0.288975 -0.132232,4.85e-4 -0.531718,0.274604 -0.88766,0.609509 -1.076567,1.012937 -3.022872,2.203609 -3.602056,2.203609 -0.294285,0 -0.535122,-0.07072 -0.535122,-0.157336 0,-0.35893 2.862753,-2.656683 3.309919,-2.656683 0.251327,0 3.593192,-2.815428 4.925211,-4.149348 2.565764,-2.569436 3.185691,-3.696416 3.789144,-6.884024 0.180082,-0.951245 0.175906,-1.27216 -0.02164,-1.641436 -0.423253,-0.790862 -0.967054,-0.598217 -2.624221,0.930042 -0.362767,0.334548 -0.877802,0.750998 -1.144182,0.925534 -0.461674,0.302501 -0.507337,0.2989 -0.981889,-0.07438 -0.362012,-0.284759 -0.498155,-0.563229 -0.498155,-1.021109 0,-0.60068 -0.388817,-1.219469 -0.76639,-1.219469 -0.09723,0 -0.323028,0.08243 -0.502213,0.183035 -0.179197,0.100588 -0.621612,0.311667 -0.98279,0.46885 -0.361184,0.157177 -0.884994,0.433663 -1.164022,0.614466 -2.457772,1.592628 -5.358732,3.114942 -6.351149,3.332913 -0.310177,0.06813 -1.060369,0.318524 -1.667136,0.556313 -0.796391,0.312103 -1.16015,0.37534 -1.307824,0.227663 -0.147675,-0.147699 -0.204672,-0.147035 -0.204672,0.0018 0,0.24226 -1.374577,0.994509 -1.817257,0.994509 -0.167671,0 -0.577781,0.208405 -0.911562,0.462993 -0.592193,0.451689 -1.769464,0.961519 -2.712132,1.174837 -1.268947,0.287149 -3.87777,2.824134 -4.791767,4.659676 -0.47387,0.951652 -0.563843,1.373114 -0.618072,2.896067 -0.05557,1.559946 -0.0017,1.945654 0.429182,3.090823 0.648772,1.7235 1.428524,2.909339 2.608445,3.966765 1.1528,1.033126 1.275395,1.297122 0.961599,2.065658 -0.441796,1.082015 -3.488446,3.80949 -5.437795,4.867955 -1.657217,0.899843 -1.935517,1.142358 -3.465451,3.022298 -2.342398,2.87827 -2.848646,3.339108 -3.701684,3.369429 -0.754245,0.0268 -1.370046,-0.350769 -1.370046,-0.839878 0,-0.320759 0.717853,-1.155453 0.993611,-1.155452 0.276745,0 2.555794,-2.260967 3.107954,-3.083158 0.272411,-0.405637 0.734231,-1.165206 1.026069,-1.688321 0.291832,-0.523112 0.629671,-1.035577 0.750614,-1.138771 0.120943,-0.103195 0.245567,-0.356686 0.277252,-0.563075 0.03167,-0.206389 0.306261,-1.122027 0.609957,-2.035002 0.303697,-0.912976 0.552256,-1.896738 0.552256,-2.186026 0,-0.191053 0.134988,-0.771081 0.325947,-1.457051 0.02018,-0.385344 0.121078,-0.685859 0.267333,-0.902992 0.02125,-0.06781 0.03951,-0.133753 0.06131,-0.201517 0.360203,-1.119615 0.655924,-2.156903 0.656849,-2.305043 0.0011,-0.14814 -0.181812,-0.464891 -0.406187,-0.70373 -0.381355,-0.405931 -0.550993,-0.43414 -2.603035,-0.43414 -1.521097,0 -2.44756,-0.09073 -3.016437,-0.294836 -0.451551,-0.162014 -1.857171,-0.35695 -3.123734,-0.433238 -2.87191,-0.172984 -2.939013,-0.222229 -2.885251,-2.126518 0.05999,-2.125104 -0.306661,-4.845824 -0.733036,-5.440497 -0.200472,-0.279608 -0.36426,-0.637203 -0.36426,-0.794796 0,-0.251658 -1.934521,-3.235111 -2.257261,-3.481232 -0.06766,-0.0516 -0.445289,-0.558126 -0.839427,-1.125695 -1.246076,-1.794397 -1.631641,-2.251398 -1.897948,-2.251398 -0.142546,0 -0.259222,-0.0907 -0.259222,-0.201065 0,-0.11037 -0.189781,-0.173628 -0.421968,-0.140652 -0.263698,0.03748 -0.633437,0.393718 -0.985044,0.948527 -0.591894,0.933976 -1.425679,1.394404 -2.07422,1.145535 -0.19207,-0.0737 -0.939833,-0.498042 -1.661726,-0.943118 -0.721888,-0.445075 -1.443122,-0.809663 -1.602666,-0.810125 -0.810864,-0.0023 -2.459007,-1.117829 -4.699343,-3.180985 -0.631435,-0.581495 -1.177401,-0.933515 -1.407012,-0.907048 -0.206391,0.02378 -0.471469,-0.01663 -0.588771,-0.08971 -0.05786,-0.03607 -0.112083,-0.05669 -0.162295,-0.06267 z m 1.976847,2.601683 c 0.299063,0.0306 0.66444,0.277438 1.68201,1.037786 0.05163,0.03855 0.106859,1.055106 0.122622,2.259058 0.02497,1.909183 0.09298,2.344984 0.532868,3.408653 0.277399,0.670767 0.66586,1.393682 0.862867,1.606723 0.197018,0.213042 0.357954,0.443932 0.357954,0.513033 0,0.137956 2.253163,3.134724 2.92041,3.884265 0.229662,0.257988 0.65274,0.93321 0.939962,1.50078 0.287217,0.567573 0.6815,1.264095 0.876393,1.547666 0.194894,0.283574 0.327509,0.735307 0.294837,1.003976 l -0.05951,0.488689 -0.421962,-0.574344 C 29.652666,30.60844 29.46289,30.273285 29.46289,30.179563 c 0,-0.240422 -2.052487,-3.302594 -2.264474,-3.378446 -0.09613,-0.0344 -0.174914,-0.152431 -0.174914,-0.262377 0,-0.109949 -0.380013,-0.661707 -0.844386,-1.22578 -0.464379,-0.564073 -0.844387,-1.099077 -0.844387,-1.189264 0,-0.09019 -0.358472,-0.651117 -0.79705,-1.246517 -0.438578,-0.5954 -0.901542,-1.250638 -1.028324,-1.456149 -1.539199,-2.495027 -2.489875,-4.861896 -2.489875,-6.197872 0,-0.723258 0.05881,-0.844156 0.458483,-0.944471 0.106628,-0.02677 0.198749,-0.04086 0.298444,-0.03066 z M 11,15 c 0.169808,-0.0028 0.369384,0.01308 0.604102,0.04238 0.559678,0.06993 1.324208,0.234486 1.698686,0.365613 0.374485,0.131128 1.060753,0.295598 1.525127,0.365619 0.464373,0.07001 1.393091,0.432457 2.063855,0.805161 0.670763,0.372703 1.64165,0.879831 2.157627,1.127054 0.51597,0.247213 1.061767,0.516687 1.213156,0.598685 0.275815,0.1494 0.563189,0.672849 2.155372,3.928899 0.761532,1.557357 3.210755,5.286236 3.650735,5.558161 0.09275,0.05732 0.430834,0.568747 0.751517,1.136968 0.320683,0.568223 0.754379,1.230173 0.963408,1.470575 0.415029,0.477326 1.150016,1.727667 1.60492,2.729715 0.429267,0.94558 0.08488,1.944476 -0.44361,1.286641 C 28.723721,34.140177 26.918852,30.658566 26.294523,29.302723 25.659407,27.923468 24.360144,25.677962 23.777595,24.95276 23.405264,24.489251 19.639317,20.540848 19.263086,20.2196 19.070977,20.055568 18.80117,19.814344 18.663494,19.683576 18.288992,19.32788 14.479406,17.38845 14.155291,17.38845 c -0.396724,0 -1.391232,0.770301 -1.391232,1.077458 0,0.321579 1.064845,2.250522 1.500785,2.718447 0.179044,0.192186 0.4842,0.661896 0.678028,1.0441 0.193834,0.3822 0.487549,0.90603 0.652791,1.164017 0.513553,0.801786 1.15989,2.920873 1.485905,4.872012 0.312032,1.867474 0.41831,2.349134 0.559915,2.539471 0.07677,0.103194 0.200264,0.525376 0.274552,0.938156 0.07428,0.412778 0.206988,0.837616 0.294831,0.944017 0.08785,0.106399 0.198043,0.403979 0.2448,0.661804 0.04678,0.257825 0.175781,0.804323 0.287171,1.214059 0.11139,0.409733 0.366628,1.420427 0.567129,2.245984 0.200507,0.825558 0.498364,1.814985 0.661808,2.19865 0.163444,0.383666 0.297091,0.894523 0.297091,1.135616 0,0.497198 3.093385,5.162528 4.189921,6.319145 0.395309,0.416974 1.281853,1.07509 1.970083,1.46246 l 1.251475,0.704632 h 2.532709 2.533154 l 0.05636,0.578852 c 0.06474,0.663445 -0.104593,0.830534 -1.278973,1.26365 -1.372283,0.506103 -3.47944,0.579838 -4.601524,0.160942 -1.029913,-0.38449 -3.028553,-1.693667 -3.858568,-2.527748 -1.068863,-1.074101 -2.823927,-5.37196 -4.550129,-11.142018 -0.375989,-1.256791 -0.68212,-2.481167 -0.68074,-2.720699 0.0039,-0.659853 -0.913692,-5.139087 -1.357866,-6.627506 -0.215566,-0.722365 -0.50542,-1.446509 -0.644224,-1.609428 -0.138798,-0.162916 -0.252459,-0.392888 -0.252453,-0.511229 0,-0.354242 -1.670896,-3.45527 -2.263573,-4.200742 -0.302851,-0.380929 -0.550452,-0.738779 -0.550452,-0.795246 0,-0.170155 -0.596115,-0.836451 -1.748729,-1.955205 -1.090984,-1.058944 -1.091875,-1.060792 -1.017502,-2.033652 0.08675,-1.134635 0.266358,-1.496484 1.002172,-1.508443 z m 63.584565,1.882173 c 0.09778,-0.0011 0.176836,0.0208 0.24254,0.06222 0.173122,0.109197 0.368274,0.460084 0.433691,0.779916 0.177534,0.868058 -0.49873,1.386817 -2.831598,2.172503 -3.232531,1.088678 -5.263286,1.900247 -6.66087,2.661641 -0.51597,0.2811 -1.695429,0.900521 -2.621064,1.376354 -2.045905,1.051712 -3.288419,2.252083 -4.313451,4.167381 -0.706986,1.321026 -0.744849,1.477737 -0.78217,3.231929 -0.03568,1.675796 0.0023,1.904018 0.414753,2.511969 0.491376,0.72408 0.608582,1.887606 0.228563,2.267625 -0.411761,0.411764 -1.357134,0.26457 -1.867294,-0.290779 -1.292962,-1.407504 -1.847911,-3.086201 -1.847911,-5.59107 0,-1.308024 0.08591,-1.797602 0.458033,-2.61115 0.49062,-1.072602 2.59741,-3.477626 3.046188,-3.477626 0.149151,0 0.652171,-0.291215 1.118037,-0.646927 0.465862,-0.355712 1.15709,-0.745797 1.536393,-0.866927 0.379303,-0.121132 0.77025,-0.294272 0.868283,-0.385 0.09803,-0.09073 0.364238,-0.165 0.591922,-0.165 0.227695,0 1.245056,-0.299581 2.260862,-0.665861 1.015811,-0.366285 2.100506,-0.735579 2.410086,-0.820493 0.975508,-0.267562 3.394657,-1.450282 4.533446,-2.216229 1.580979,-1.063363 2.357846,-1.490302 2.781561,-1.494472 z m -47.217087,0.67082 c 0.390497,0.0028 1.127393,0.545549 2.281597,1.657215 0.724024,0.69734 1.181279,0.992706 1.535947,0.992706 0.899518,0 1.418814,-0.316688 1.645494,-1.003525 0.36164,-1.095792 1.034151,-1.074071 2.010651,0.06537 0.309536,0.361182 0.766362,1.036856 1.014803,1.501231 0.24843,0.464377 0.632247,1.097427 0.852948,1.407009 0.980789,1.375788 1.883655,4.417997 1.70545,5.746603 -0.0574,0.427942 -0.229329,0.902854 -0.381845,1.05537 -0.244654,0.244653 -0.309953,0.225226 -0.555406,-0.166353 -0.153018,-0.24411 -0.324476,-1.077107 -0.380944,-1.851067 -0.168003,-2.302703 -0.885974,-4.134744 -2.334349,-5.957136 -0.842183,-1.059661 -1.296992,-1.049377 -2.069711,0.04689 -0.327323,0.464375 -0.721747,0.844386 -0.876845,0.844386 -0.408852,0 -2.660099,-1.409092 -3.806728,-2.382584 -0.772849,-0.656159 -0.985039,-0.954219 -0.985039,-1.384467 0,-0.380661 0.109677,-0.57335 0.343977,-0.571643 z m 63.367269,0.03787 c 0.277427,0.004 0.471875,0.07516 0.607251,0.210533 0.37218,0.372185 0.258817,0.903982 -0.407088,1.912832 -0.875267,1.326027 -1.33224,2.27865 -1.689675,3.520904 -0.469795,1.632737 -1.711825,4.141789 -2.415492,4.879225 -0.419831,0.439971 -0.448727,1.758981 -0.04193,1.915084 0.157571,0.06047 0.669873,-0.02068 1.138766,-0.179877 0.933216,-0.316832 1.291328,-0.186175 1.572012,0.572541 0.172,0.464937 -0.04221,0.977407 -1.024265,2.449757 -1.158386,1.736752 -3.225662,3.452753 -4.537505,3.766601 -0.292356,0.06995 -0.615863,0.190288 -0.719058,0.267337 -0.296567,0.221431 -1.318178,0.397639 -1.463361,0.252459 -0.328715,-0.328716 -0.085,-0.83725 0.572094,-1.194223 1.053877,-0.572531 2.640294,-1.7355 3.799508,-2.785617 0.868836,-0.787067 1.00002,-0.987933 0.829959,-1.26996 -0.111086,-0.184238 -0.438696,-0.398223 -0.728071,-0.475615 -0.703441,-0.18813 -1.415579,-0.881553 -1.415579,-1.378608 0,-0.221386 0.190232,-0.58364 0.422419,-0.805164 0.983562,-0.938401 1.125882,-1.178933 1.211358,-2.046724 0.07805,-0.792415 1.173958,-3.363379 1.544058,-3.622339 0.07373,-0.0516 0.375397,-0.574936 0.670369,-1.163115 0.457068,-0.911402 0.504331,-1.139317 0.32053,-1.542707 -0.331138,-0.72678 -0.985738,-0.781366 -2.529102,-0.211434 -0.746923,0.27582 -1.555375,0.629528 -1.796517,0.78623 -0.767951,0.49903 -0.717339,0.05822 0.06312,-0.54955 0.412775,-0.321449 1.095972,-0.944399 1.517912,-1.384468 0.580661,-0.60562 1.142655,-0.93868 2.311355,-1.369592 1.03206,-0.380532 1.72455,-0.560913 2.186928,-0.55451 z m -11.407104,0.378238 c 0.27351,0.0071 0.485491,0.120143 0.684797,0.34037 0.306363,0.338526 0.306763,0.392615 0.0034,0.985043 -0.515971,1.006649 -2.925251,3.498643 -4.244471,4.390086 -3.0995,2.094438 -5.468562,4.257503 -6.99628,6.388571 -0.583964,0.814598 -1.203609,1.538384 -1.377249,1.608526 -0.435376,0.175887 -1.307751,0.184378 -1.408816,0.01353 -0.318378,-0.53821 -0.304913,-1.725681 0.02841,-2.494388 0.445639,-1.027686 0.973727,-1.520016 2.190535,-2.043116 0.515977,-0.221813 1.161953,-0.526591 1.435863,-0.677132 0.27391,-0.15054 0.638222,-0.273648 0.809675,-0.273648 0.171447,0 0.496357,-0.104634 0.721758,-0.232623 0.225407,-0.127988 0.705459,-0.321456 1.066643,-0.430083 0.531836,-0.159946 0.645058,-0.278596 0.595985,-0.623033 -0.0866,-0.607813 0.290491,-0.965656 1.017051,-0.965656 0.520976,0 0.681839,-0.104817 0.938153,-0.60996 0.170157,-0.335385 0.678993,-0.948415 1.130634,-1.362382 0.886234,-0.812311 0.975024,-1.043865 0.539637,-1.405206 -0.154793,-0.128465 -0.281316,-0.310742 -0.281316,-0.405287 0,-0.315758 1.398553,-1.591378 2.092255,-1.908325 0.445335,-0.203471 0.780063,-0.302394 1.053573,-0.295287 z m -59.304029,1.526028 c -0.03523,0.0031 -0.07191,0.01534 -0.109096,0.03832 -0.114732,0.07091 -0.208279,0.292445 -0.208279,0.492746 0,0.418276 0.237947,0.474 0.528816,0.123524 0.211463,-0.254804 0.03523,-0.676335 -0.211441,-0.65459 z m -3.458237,0.747459 c 0.06231,0.002 0.126264,0.01088 0.190694,0.02705 0.237677,0.05965 0.849195,0.491048 1.358774,0.958895 0.50958,0.467844 0.977442,0.850697 1.03959,0.850697 0.06215,0 0.392993,0.401098 0.735741,0.891271 0.342743,0.490176 0.72213,0.975618 0.843034,1.078813 0.120904,0.103194 0.454228,0.588638 0.740245,1.078812 0.383665,0.657527 0.449229,0.891271 0.250655,0.891271 -0.148035,0 -0.365286,-0.211316 -0.482831,-0.469303 -0.129628,-0.284509 -0.369491,-0.468853 -0.609506,-0.468853 -0.231843,0 -0.735634,-0.369113 -1.216312,-0.891271 -0.839478,-0.911907 -1.053719,-0.883747 -0.554961,0.07258 0.154162,0.295581 0.281074,0.756779 0.281761,1.025165 5.64e-4,0.268388 0.07845,0.732742 0.173116,1.031927 0.09467,0.299184 0.222087,1.029583 0.283113,1.622952 0.09005,0.875493 0.05892,1.078812 -0.165445,1.078812 -0.279495,0 -0.664964,-0.545448 -0.664964,-0.940861 0,-0.429302 -2.001696,-5.231069 -2.267174,-5.438693 -0.239683,-0.187456 -0.734834,-1.303775 -0.734834,-1.656313 0,-0.439462 0.363128,-0.75703 0.799304,-0.742951 z m 14.832883,0.231271 c -0.03421,0.0043 -0.06738,0.01527 -0.09738,0.03381 -0.08233,0.05088 -0.149669,0.214209 -0.149675,0.36291 0,0.318388 0.483761,0.362979 0.669924,0.06176 0.123761,-0.200249 -0.183345,-0.488869 -0.42287,-0.458485 z m -4.899967,0.113156 c 0.217302,0.0011 0.461178,0.0879 0.632501,0.259221 0.147421,0.14742 0.267789,0.556607 0.267789,0.909304 0,0.833922 0.432626,1.681031 1.138322,2.229756 1.426186,1.108959 1.91485,1.630361 1.802829,1.922297 -0.06966,0.181515 -0.334948,0.299345 -0.673526,0.299345 -0.467298,0 -0.66772,-0.164359 -1.22533,-1.004427 -0.366695,-0.552454 -0.666762,-1.064203 -0.666762,-1.136969 0,-0.07277 -0.245752,-0.44362 -0.545943,-0.824549 -0.758917,-0.96302 -1.323002,-2.088519 -1.203237,-2.400617 0.06525,-0.170061 0.256055,-0.254523 0.473357,-0.253361 z m 58.800463,2.24283 c 0.244975,0 0.827253,0.609508 0.827253,0.866025 0,0.09896 -0.295659,0.891084 -0.656843,1.760452 -0.361183,0.869367 -0.656848,1.646406 -0.656848,1.726641 0,0.251072 -1.695289,2.804427 -2.267169,3.414511 -0.681196,0.726705 -0.699096,1.391804 -0.06312,2.35283 0.59692,0.902008 0.434744,1.33159 -0.712296,1.885781 -1.997987,0.965324 -2.60844,-0.235714 -0.993605,-1.955207 0.299987,-0.319434 0.555575,-0.842455 0.609957,-1.24787 0.06513,-0.485643 0.257982,-0.81907 0.634304,-1.097296 0.475014,-0.351195 0.540533,-0.518019 0.540533,-1.373198 0,-0.777581 0.08628,-1.050196 0.428731,-1.354714 0.738618,-0.656835 1.822665,-2.094984 1.822665,-2.417748 0,-0.169962 -0.107377,-0.308812 -0.238933,-0.308812 -0.354511,0 -2.387542,1.983094 -2.387542,2.328937 0,0.272942 -0.313261,0.385188 -0.87955,0.314672 -0.122448,-0.01525 -0.558821,0.333077 -0.970165,0.774058 -1.048822,1.124393 -1.19298,0.750138 -0.164098,-0.426025 0.464874,-0.531421 0.960099,-1.186067 1.100903,-1.454797 0.140788,-0.268732 0.589251,-0.787502 0.996311,-1.153197 0.407066,-0.365693 1.208749,-1.10823 1.781644,-1.650001 0.572894,-0.541772 1.134483,-0.985042 1.247868,-0.985042 z M 34.255102,23.01739 c 0.622908,0 1.872422,3.324921 1.712669,4.55734 -0.05067,0.391027 -0.194526,0.834295 -0.319634,0.985042 -0.385295,0.464255 -0.995545,0.32026 -1.401146,-0.330451 -0.20639,-0.331112 -0.520643,-0.815854 -0.698323,-1.07746 -0.177681,-0.261607 -0.491782,-0.784753 -0.698319,-1.162214 -0.206537,-0.37746 -0.610137,-0.778271 -0.896683,-0.890821 -0.514415,-0.202057 -0.512713,-0.203598 0.135698,-0.133443 0.834795,0.09032 1.311589,-0.158685 1.319553,-0.688402 0.0061,-0.407314 0.57875,-1.259591 0.846185,-1.259591 z m 32.31208,0.786681 c 0.353101,0.06851 0.550356,0.526558 0.226759,0.526558 -0.12397,0 -0.513874,0.253493 -0.866474,0.563074 -0.352595,0.309585 -0.745503,0.562623 -0.873238,0.562623 -0.127734,0 -0.391556,0.295665 -0.586065,0.656845 -0.39318,0.730097 -0.517397,0.784916 -0.855659,0.377337 -0.343712,-0.414151 -0.564874,-0.165156 -0.564874,0.636557 0,0.459332 -0.125435,0.824445 -0.3557,1.032829 -0.402907,0.364622 -0.526956,0.981707 -0.682092,3.394225 -0.121231,1.885292 -0.395152,2.38292 -1.196474,2.173403 -1.058188,-0.276678 -1.622223,-2.175287 -1.158154,-3.898691 0.230462,-0.855867 1.294579,-2.328872 2.575982,-3.565987 0.449167,-0.433644 0.816438,-0.876912 0.816438,-0.985043 0,-0.108129 0.09292,-0.196557 0.206024,-0.196557 0.113098,0 0.838378,-0.300247 1.611678,-0.667214 0.773311,-0.366964 1.539064,-0.641542 1.701849,-0.609959 z m 10.948163,4.077667 c 0.105991,-0.0051 0.167255,0.0457 0.167255,0.15959 0,0.240453 -1.728305,1.815455 -2.530004,2.305494 -0.411321,0.251423 -0.918297,0.561059 -1.126148,0.688403 -0.207844,0.127343 -0.525394,0.285005 -0.705983,0.350287 -0.180589,0.06528 -0.328196,0.193308 -0.328196,0.284467 0,0.09116 -0.169142,0.165903 -0.375532,0.165903 -0.206391,0 -0.374214,-0.105884 -0.372828,-0.234878 0.0023,-0.243155 1.16104,-1.078812 1.495819,-1.078813 0.104638,0 0.190238,-0.06928 0.190249,-0.15418 0,-0.0849 0.371796,-0.339888 0.8259,-0.566681 0.45411,-0.226792 1.171833,-0.748391 1.595002,-1.159058 0.482667,-0.468411 0.931288,-0.749241 1.164466,-0.760534 z M 24.07153,28.947477 c 0.26961,-0.02404 0.724666,0.693202 1.750532,2.700863 0.500934,0.98035 0.976309,1.810358 1.056273,1.844756 0.07997,0.0344 0.145166,0.148315 0.145166,0.25291 0,0.104596 0.514579,1.224857 1.143281,2.489428 1.040052,2.09197 1.150383,2.42932 1.223521,3.744512 0.04841,0.87045 0.223581,1.758509 0.440454,2.23246 0.679697,1.485415 1.320449,3.197335 1.320449,3.527217 0,0.181572 -0.245324,0.504738 -0.545036,0.718156 -0.878648,0.62565 -2.020351,0.43411 -3.587177,-0.601844 -0.963076,-0.63676 -1.246054,-0.867047 -1.822668,-1.482748 -0.127729,-0.136391 -0.411784,-0.416644 -0.631599,-0.623033 -0.924897,-0.86841 -1.866032,-2.359042 -2.490783,-3.945126 -1.181927,-3.000636 -1.785109,-5.15 -1.916434,-6.828121 l -0.12623,-1.610329 0.469756,0.431885 c 0.514263,0.472994 1.115456,1.596846 1.46787,2.742789 0.124358,0.404376 0.392807,1.017249 0.596436,1.362379 0.34879,0.591157 0.352408,0.655445 0.05906,1.103156 -0.294116,0.448876 -0.289922,0.509467 0.07393,1.098198 0.211874,0.342822 0.385001,0.798819 0.385001,1.012993 0,0.237242 0.226844,0.521576 0.580655,0.728074 0.46341,0.270479 1.295656,1.432522 1.295656,1.809141 0,0.04281 -0.246254,0.127332 -0.547295,0.187541 -0.434824,0.08697 -0.527305,0.186614 -0.449016,0.485984 0.212455,0.812439 2.339028,0.826706 2.550739,0.01713 0.08235,-0.314926 0.200839,-0.356691 0.726273,-0.256968 0.345205,0.06552 0.775142,0.194881 0.955737,0.287173 0.501841,0.256463 1.140113,-0.15745 1.017051,-0.65955 -0.555098,-2.264802 -1.393398,-3.90624 -2.090003,-4.092541 -1.288707,-0.344653 -2.124538,-1.949385 -2.526391,-4.849921 -0.121529,-0.877155 -0.357593,-2.040786 -0.524306,-2.585454 -0.211508,-0.691038 -0.243741,-1.049667 -0.106391,-1.187009 0.03207,-0.03207 0.06697,-0.05066 0.105489,-0.0541 z m 54.578079,0.83537 c 0.0275,-0.0014 0.05089,0.0063 0.06853,0.02389 0.07044,0.07044 0.03579,0.2393 -0.07709,0.375082 -1.033965,1.243822 -1.516577,1.907331 -1.616193,2.221191 -0.08649,0.272496 -0.285137,0.371024 -0.747459,0.371024 -0.56205,0 -0.653759,0.07507 -0.856109,0.70328 -0.124646,0.38698 -0.310567,0.809163 -0.41295,0.938156 -0.102384,0.128994 -0.239097,0.23453 -0.303854,0.233976 -0.268331,-0.0021 -1.125894,-0.873937 -1.237048,-1.257337 -0.09813,-0.33846 0.01933,-0.501107 0.647375,-0.897583 0.422069,-0.266437 0.84872,-0.434231 0.948078,-0.372828 0.09935,0.06141 0.18078,0.03171 0.18078,-0.06582 0,-0.09753 0.295209,-0.317747 0.656392,-0.489139 0.361178,-0.171391 0.656843,-0.392138 0.656843,-0.490493 0,-0.09835 0.158789,-0.178525 0.352544,-0.178525 0.193749,0 0.457147,-0.126519 0.585614,-0.281311 0.128468,-0.154793 0.319692,-0.281763 0.424674,-0.281763 0.104982,0 0.298595,-0.147316 0.430529,-0.327746 0.09895,-0.135313 0.216873,-0.220008 0.299345,-0.224057 z m -41.902372,3.399634 c 0.59457,0.0036 1.056599,0.277601 1.377711,0.821845 0.481771,0.816533 0.857625,0.814134 1.657211,-0.01082 0.753021,-0.776925 1.67607,-0.894798 2.201351,-0.281312 0.391443,0.457171 1.039641,0.484589 1.462465,0.06176 0.349962,-0.349968 2.768283,-0.574413 3.900495,-0.362009 0.640808,0.120216 0.650248,0.13646 0.817334,1.383567 0.169023,1.261527 0.156968,1.347426 -0.516636,3.582667 -0.217257,0.720916 -0.208719,0.886892 0.07168,1.375452 0.175387,0.305593 0.318728,0.671454 0.318728,0.812829 0,0.528975 -2.01498,4.197492 -2.70627,4.927012 -0.956216,1.009094 -1.366951,1.102891 -1.765862,0.403484 -0.1716,-0.300856 -0.611958,-0.66707 -0.978282,-0.814181 -0.696683,-0.279778 -1.866842,-1.261862 -1.866842,-1.5666 0,-0.264529 0.604659,-0.749767 1.031924,-0.828156 0.255723,-0.04691 0.375082,-0.217071 0.375082,-0.533771 0,-0.509521 -0.548428,-0.85399 -2.251393,-1.415125 -1.061474,-0.34976 -1.595001,-0.855926 -1.595001,-1.512952 0,-0.546813 -0.848248,-1.4011 -1.640986,-1.652706 -0.275381,-0.0874 -0.429148,-0.342688 -0.51574,-0.855205 -0.162598,-0.962402 -0.623201,-1.461732 -1.417376,-1.537297 -0.89984,-0.08562 -0.965837,-0.674597 -0.134346,-1.19828 0.852829,-0.537125 1.58019,-0.803811 2.174755,-0.800205 z m 7.913247,0.904795 c -0.212297,0 -0.375533,0.125119 -0.375533,0.288075 0,0.2299 0.07602,0.247299 0.375533,0.08701 0.206391,-0.110456 0.375082,-0.240107 0.375082,-0.288074 0,-0.04797 -0.168691,-0.08701 -0.375082,-0.08701 z m -6.546808,0.375083 c -0.2109,0 -0.407732,0.488052 -0.257419,0.638361 0.225857,0.22586 0.424673,0.102892 0.424673,-0.262828 0,-0.206389 -0.0751,-0.375533 -0.167254,-0.375533 z m -1.320906,0.267336 c -0.09927,-0.0023 -0.200884,0.03097 -0.293934,0.108197 -0.375015,0.311231 -0.355847,0.688678 0.04689,0.922829 0.440815,0.256288 0.692057,0.157654 0.759632,-0.297542 0.05966,-0.401938 -0.214777,-0.726586 -0.512583,-0.733484 z m 5.861115,1.239755 c -0.558094,-0.01445 -1.220945,0.856868 -1.320003,1.735658 -0.102824,0.912272 -0.202311,1.033836 -0.557216,0.678935 -0.341711,-0.341715 -0.994507,-0.01322 -0.994507,0.50041 0,0.457064 0.12517,0.524645 0.865572,0.46705 0.305636,-0.02378 0.424211,0.106316 0.516191,0.56623 0.11533,0.576657 0.144535,0.592988 0.858809,0.478771 1.412271,-0.22583 1.699595,-0.417706 1.699595,-1.133813 0,-0.357646 0.08435,-0.702616 0.187543,-0.766394 0.355029,-0.219422 0.186592,-0.902973 -0.421968,-1.711313 C 43.15252,36.339498 42.777116,35.97264 42.653885,35.96945 Z m -5.102384,0.585165 c -0.08756,0.0101 -0.173189,0.04876 -0.246147,0.121721 -0.109964,0.109961 -0.149073,0.33237 -0.08701,0.494099 0.171036,0.445707 0.875041,0.375718 0.875041,-0.08701 0,-0.331902 -0.279213,-0.559134 -0.541885,-0.528812 z m 3.035824,0.299795 c -0.09117,0.02017 -0.180815,0.1835 -0.210984,0.396722 -0.043,0.303753 0.01595,0.416509 0.187538,0.359303 0.290756,-0.09692 0.339637,-0.68633 0.06267,-0.755574 -0.01291,-0.0032 -0.02621,-0.0033 -0.03923,-4.5e-4 z m 31.256704,0.486435 c -0.222391,0.005 -0.352989,0.195339 -0.352989,0.570288 0,0.2814 0.223028,0.645748 0.577499,0.944017 0.700528,0.589453 0.848507,0.600674 1.123893,0.08611 0.18556,-0.346717 0.12712,-0.486444 -0.444957,-1.058526 -0.36669,-0.366688 -0.681049,-0.546895 -0.903446,-0.541885 z m 1.617094,2.375371 c -0.476259,0 -0.723922,0.430529 -0.55451,0.964304 0.158744,0.500145 1.211353,0.490773 1.211353,-0.01082 0,-0.637606 -0.217691,-0.953485 -0.656843,-0.953485 z m -26.361702,0.938157 c -0.103195,0 -0.187544,0.08435 -0.187544,0.187541 0,0.103195 0.08435,0.187541 0.187544,0.187541 0.10319,0 0.187989,-0.08435 0.187989,-0.187541 0,-0.103195 -0.0848,-0.187541 -0.187989,-0.187541 z m 27.222766,0.811025 c -0.08559,-0.0074 -0.169407,0.01703 -0.23713,0.08475 -0.112528,0.112523 -0.154026,0.336879 -0.09197,0.498607 0.141002,0.367444 0.612916,0.384275 0.750164,0.0266 0.107304,-0.27963 -0.164279,-0.587791 -0.421066,-0.60996 z m -28.295721,0.0541 c -0.354352,-0.0203 -0.682165,0.431638 -0.492294,0.926435 0.137603,0.358592 0.61322,0.28574 0.877746,-0.134345 0.141892,-0.225323 0.130513,-0.39254 -0.04058,-0.598689 -0.105912,-0.127619 -0.226759,-0.186635 -0.344878,-0.193401 z m 23.176209,1.19873 c -0.415774,0 -0.725276,0.196053 -1.24336,0.788033 -0.81575,0.9321 -1.320032,1.438065 -1.876768,1.883527 -0.512313,0.409902 -0.511676,0.594151 0.0028,1.073402 0.530005,0.493778 1.311522,0.488361 1.76451,-0.01217 0.196454,-0.217086 0.716613,-0.604982 1.1559,-0.862419 0.493534,-0.28923 0.834411,-0.640322 0.891723,-0.918771 0.05101,-0.24784 0.138714,-0.669849 0.194753,-0.937706 0.132863,-0.635032 -0.199791,-1.013894 -0.889469,-1.013894 z m -24.757684,0.310164 c -0.04187,0.0042 -0.08251,0.01682 -0.119466,0.03967 -0.133111,0.0823 -0.186811,0.289395 -0.120374,0.462541 0.136369,0.355363 0.557384,0.41603 0.747915,0.107746 0.156326,-0.252938 -0.214794,-0.6397 -0.508075,-0.609959 z m 11.65054,0.328197 c 0.263117,0.02582 0.385452,0.284074 0.385452,0.772255 0,0.826803 -0.805599,1.498046 -2.126065,1.772174 -0.737911,0.153189 -1.170514,0.380865 -1.633321,0.858361 -0.346293,0.357284 -0.736874,0.649181 -0.867832,0.649181 -0.130958,0 -0.515328,0.242168 -0.8543,0.537828 -0.76293,0.665446 -1.460662,0.917722 -1.460662,0.528361 0,-0.882113 1.061604,-2.160875 2.051236,-2.470945 0.776,-0.243134 2.071802,-0.9913 2.752705,-1.58914 0.843372,-0.740494 1.414497,-1.091273 1.752787,-1.058075 z m 18.063009,2.088649 c -0.263557,-0.0074 -0.449669,0.302934 -0.343977,0.724017 0.134565,0.536144 0.14037,0.539714 0.569389,0.375083 0.357542,-0.137202 0.389741,-0.701215 0.05591,-0.97828 -0.09717,-0.08064 -0.193456,-0.118353 -0.28131,-0.12082 z m -4.559141,0.861067 c -0.06518,-0.0027 -0.139661,0.009 -0.207377,0.03606 -0.149676,0.05989 -0.105422,0.1046 0.113154,0.113607 0.19779,0.0081 0.308943,-0.03639 0.246598,-0.09873 -0.03117,-0.03117 -0.08719,-0.04826 -0.152375,-0.05094 z m -4.581685,1.290247 c -0.282612,0 -0.385638,0.396084 -0.161393,0.620329 0.1751,0.1751 0.443154,-0.03683 0.443154,-0.350288 0,-0.148701 -0.126968,-0.270041 -0.281761,-0.270041 z m 4.432009,0.04283 c -0.201944,-0.02582 -0.375144,0.173263 -0.275899,0.431885 0.05813,0.151487 0.176322,0.275452 0.262378,0.275452 0.272377,0 0.416214,-0.399767 0.215944,-0.600042 -0.06472,-0.06472 -0.135106,-0.09869 -0.202423,-0.107295 z m -42.872537,0.592826 c -0.06838,0.0023 -0.116761,0.0768 -0.116761,0.197459 0,0.329572 0.11281,0.37791 0.27365,0.117664 0.05938,-0.09607 0.02192,-0.227314 -0.08295,-0.292131 -0.02621,-0.0162 -0.05112,-0.02376 -0.07394,-0.02299 z m 22.242113,1.990822 c 0.127323,0 0.1494,0.250165 0.06176,0.70373 -0.07477,0.38698 -0.141137,1.168086 -0.147416,1.735657 -0.0097,0.880291 0.08965,1.189107 0.678029,2.101723 0.379365,0.588412 0.689757,1.187185 0.689757,1.33037 0,0.143185 0.211322,0.356264 0.469305,0.473812 0.545977,0.248761 0.618473,0.862882 0.176722,1.493567 -0.384471,0.548909 -0.602117,0.527623 -1.640985,-0.160492 -0.479545,-0.317637 -1.019571,-0.549151 -1.200086,-0.514386 -0.190644,0.03671 -0.458895,0.416213 -0.639715,0.905698 -0.340094,0.92067 -0.375708,0.937579 -1.199179,0.569836 -0.79009,-0.352835 -3.023047,-0.313875 -3.932953,0.06853 -1.092979,0.459335 -1.524224,0.9158 -2.735577,2.895167 -0.350435,0.572615 -0.588765,0.671275 -0.89037,0.369672 -0.262841,-0.26284 -0.308735,-1.090537 -0.06041,-1.090535 0.09201,-6e-6 0.220616,-0.210853 0.285368,-0.468852 0.127492,-0.507968 0.485531,-0.64627 0.485531,-0.187541 0,0.154792 0.126973,0.281312 0.28176,0.281312 0.363861,0 0.366262,-0.541837 0.0034,-0.681189 -0.206447,-0.07922 -0.230552,-0.195245 -0.09377,-0.45082 0.239051,-0.446674 0.237321,-1.119386 -0.0034,-1.119386 -0.10319,0 -0.187989,-0.123839 -0.187989,-0.275001 0,-0.457586 -0.741096,-0.714854 -1.764961,-0.612664 -1.834966,0.18314 -2.58075,-0.445007 -1.39033,-1.17078 0.490434,-0.299008 0.947638,-0.379488 2.154922,-0.380042 1.76881,-7.89e-4 2.126516,0.0952 2.126516,0.571189 0,0.481713 0.351986,0.647385 0.503566,0.237132 0.192278,-0.520418 0.431115,-0.604233 1.395289,-0.490042 l 0.88766,0.105041 0.208285,-0.774057 c 0.146823,-0.545268 0.150549,-0.883366 0.01172,-1.142829 -0.267997,-0.500764 -1.257195,-1.232803 -2.271682,-1.681559 -1.076072,-0.475997 -1.72295,-1.159062 -1.640986,-1.732502 0.0492,-0.344369 0.164859,-0.430091 0.53107,-0.392213 0.534445,0.05528 2.533464,1.046154 3.095329,1.534141 0.54357,0.472099 2.229373,1.13832 2.880287,1.13832 0.429914,0 0.736017,-0.201393 1.325414,-0.870984 0.421551,-0.478904 0.766396,-1.009095 0.766396,-1.177993 0,-0.384982 0.517999,-1.141025 0.781719,-1.141025 z m 10.468946,3.984347 c 0.51548,-0.0097 0.976731,0.0596 1.294748,0.224058 0.313374,0.162051 0.756183,0.294836 0.983692,0.294836 0.388851,0 0.395141,0.02052 0.10324,0.343074 -0.450046,0.497291 -0.411941,0.850047 0.06446,0.595083 0.219438,-0.117439 0.375533,-0.392718 0.375533,-0.663156 0,-0.357829 0.09759,-0.462542 0.432338,-0.462542 0.715136,0 2.693724,0.744802 3.063322,1.153198 0.335619,0.370857 0.335343,0.388933 -0.01623,0.646025 -0.456995,0.334159 -0.84792,0.32725 -1.310986,-0.023 -0.262344,-0.198432 -0.875407,-0.275451 -2.191888,-0.275451 -1.536956,0 -2.060513,0.08466 -3.294139,0.531967 -1.418312,0.514276 -2.181727,0.552979 -2.843771,0.143812 -0.331127,-0.204646 -0.260891,-1.143124 0.109998,-1.468321 0.70042,-0.614125 2.095614,-1.018165 3.229674,-1.03959 z m 3.753524,3.340577 c 0.586866,-2.77e-4 1.178438,0.07999 1.418279,0.240738 0.203555,0.136421 0.665787,0.362826 1.02697,0.503115 1.887093,0.732978 3.448775,2.226821 2.774798,2.654429 -0.32004,0.203047 -3.507129,0.180552 -4.025371,-0.0284 -0.223378,-0.09007 -0.476418,-0.274667 -0.562626,-0.410246 -0.08621,-0.135579 -0.557863,-0.568966 -1.048156,-0.962952 -1.165656,-0.936688 -1.432876,-1.418229 -0.972871,-1.754591 0.220137,-0.16095 0.802105,-0.241813 1.388977,-0.242091 z m -27.389124,1.8691 c 0.458766,0 0.926357,0.667845 0.801559,1.145083 -0.05332,0.203846 -0.335297,0.494013 -0.626639,0.644671 -0.679314,0.351285 -0.794176,0.34541 -1.306478,-0.06943 -0.773621,-0.626439 -0.05405,-1.720328 1.131558,-1.720328 z m -11.591034,0.412049 c 0.421314,0.0162 0.898035,0.331918 0.898035,0.696066 0,0.201089 0.285098,0.603579 0.633403,0.894878 0.734913,0.614629 0.999805,1.270178 0.672624,1.664428 -0.344794,0.415446 -0.696633,0.327268 -0.970166,-0.243444 -0.136019,-0.283783 -0.342275,-0.515737 -0.458483,-0.515737 -0.371329,0 -2.316766,1.945364 -2.316766,2.316765 0,0.19667 0.121834,0.458639 0.270489,0.582007 0.364622,0.30261 0.160446,0.759631 -0.339462,0.759633 -0.239389,0 -0.480701,0.172578 -0.59058,0.422417 -0.157639,0.358461 -0.305602,0.413041 -0.982334,0.362461 l -0.79705,-0.05951 v 0.662707 c 0,0.463216 -0.109254,0.721257 -0.362908,0.857009 -0.662777,0.354705 -1.13787,0.212421 -1.13787,-0.340819 0,-0.156739 -0.190232,-0.487236 -0.422419,-0.734389 -0.331307,-0.352656 -0.421968,-0.669922 -0.421968,-1.473279 0,-0.990423 0.293512,-1.515757 0.705082,-1.261394 0.346259,0.214 1.077012,-0.133093 1.077012,-0.511681 0,-0.20955 0.133021,-0.637908 0.295282,-0.951682 0.162261,-0.313774 0.247415,-0.69441 0.189347,-0.845738 -0.137033,-0.357099 0.761295,-1.191968 1.282581,-1.191968 0.21941,0 0.715993,0.261605 1.103609,0.581108 0.887818,0.731817 1.363649,0.627728 1.169426,-0.255615 -0.218468,-0.993628 -0.208126,-1.10866 0.119918,-1.321354 0.108476,-0.07033 0.242759,-0.09827 0.383198,-0.09287 z m 19.350554,0.735739 c 0.363872,-0.01244 0.737764,0.07458 1.126147,0.260123 0.668932,0.319577 1.435407,1.519513 1.435407,2.246886 0,0.627336 -0.483006,1.777583 -0.915615,2.180618 -0.186411,0.173666 -0.499722,0.518089 -0.696514,0.765041 -0.196793,0.246968 -0.566695,0.593567 -0.821849,0.770452 -0.862185,0.597717 -1.658321,0.330833 -2.616104,-0.876846 -0.4849,-0.611414 -0.578401,-0.893661 -0.578401,-1.743773 0,-0.892908 0.09178,-1.138429 0.769095,-2.055287 0.74592,-1.009712 1.497318,-1.519839 2.297834,-1.547214 z m 18.196897,0.378688 c 0.02424,9.02e-4 0.0505,0.0037 0.07844,0.009 0.464266,0.08795 0.547679,1.20445 0.124877,1.671641 -0.397389,0.439109 -1.173377,0.467652 -1.333975,0.04914 -0.07871,-0.205123 0.04926,-0.430214 0.381394,-0.672173 0.274733,-0.200127 0.499508,-0.532192 0.499508,-0.737541 0,-0.222418 0.07994,-0.325969 0.249754,-0.320082 z m -39.964295,1.310983 c -0.0328,0.0016 -0.06831,0.0052 -0.107299,0.01083 -0.475656,0.06786 -0.683433,0.686061 -0.308357,0.917869 0.320334,0.197979 0.728527,-0.145262 0.728527,-0.612663 0,-0.237234 -0.08319,-0.327058 -0.312871,-0.316027 z m 37.583065,2.236971 c 0.256202,-4.62e-4 0.492272,0.08996 0.561719,0.270943 0.05897,0.153673 0.42629,0.36515 0.816437,0.470205 0.390147,0.105056 0.813913,0.317054 0.941766,0.471106 0.347014,0.418128 0.781376,0.340275 1.22848,-0.220449 0.519657,-0.651711 0.8897,-0.494181 1.189716,0.507171 0.266916,0.890879 0.07717,1.187513 -0.643322,1.006682 -0.230546,-0.05786 -0.591938,0.06646 -0.901186,0.309714 -0.432473,0.34018 -0.791284,0.412203 -2.208565,0.442253 -1.195781,0.02536 -1.802046,-0.04118 -2.067012,-0.226762 -0.206227,-0.144445 -0.52917,-0.222418 -0.717706,-0.173115 -0.637866,0.166804 -0.808265,-0.11291 -0.581562,-0.954837 0.235416,-0.874265 0.631419,-1.348854 1.125702,-1.348854 0.186377,0 0.444072,-0.126519 0.572539,-0.281311 0.150504,-0.181372 0.426793,-0.272324 0.682994,-0.272746 z m -38.051919,0.576147 c -0.359358,0.01787 -0.374372,0.03797 -0.0825,0.112707 0.290051,0.07427 0.307749,0.124899 0.09422,0.274099 -0.221366,0.154665 -0.220402,0.171658 0.0077,0.109999 0.466024,-0.125991 0.4507,-0.520173 -0.01939,-0.496805 z m 37.624992,0.23037 c -0.02846,-0.0043 -0.04802,0.06446 -0.05365,0.201067 -0.0082,0.197787 0.03641,0.308493 0.09873,0.246146 0.06233,-0.06235 0.06862,-0.223863 0.01443,-0.359303 -0.02249,-0.05613 -0.04244,-0.08533 -0.05951,-0.08791 z m 14.631813,1.293403 c 0.389205,0.02218 1.05878,0.47828 1.192872,0.857459 0.06174,0.174579 0.236087,0.462051 0.387706,0.638812 0.568764,0.663012 -0.207884,1.178971 -1.07566,0.71455 -0.25291,-0.135356 -0.408616,-0.104922 -0.591476,0.115409 -0.210916,0.25414 -0.185487,0.349294 0.168161,0.635658 0.397615,0.321971 0.549708,0.92492 0.297091,1.177541 -0.06542,0.06542 -0.330918,-0.04757 -0.589673,-0.251106 -0.553427,-0.435329 -0.924908,-0.244238 -1.016149,0.5225 -0.03196,0.268277 -0.163591,0.522523 -0.292582,0.564878 -0.298151,0.0979 -0.303274,-0.185355 -0.009,-0.479674 0.12384,-0.123835 0.144924,-0.226498 0.04689,-0.228114 -0.54782,-0.0088 -0.654498,-0.306102 -0.3841,-1.0725 0.148875,-0.421953 0.230451,-0.807791 0.180781,-0.857461 -0.04965,-0.04967 0.157847,-0.267412 0.46164,-0.48373 0.360929,-0.257003 0.596024,-0.624995 0.678034,-1.062131 0.06902,-0.367934 0.248176,-0.716087 0.398071,-0.773607 0.04176,-0.01604 0.09182,-0.02165 0.147421,-0.01849 z m -42.889665,2.248691 c 0.05394,0.0028 0.105618,0.01309 0.153727,0.03156 0.412235,0.15819 0.316456,0.981031 -0.211435,1.817257 -0.39439,0.624781 -0.468126,0.944046 -0.421967,1.824917 l 0.05591,1.067995 1.098198,0.152826 c 1.263503,0.175618 1.65046,-0.03731 2.00164,-1.101349 0.16403,-0.497031 0.146293,-0.73631 -0.08701,-1.187462 -0.4032,-0.779705 -0.365805,-1.281803 0.114958,-1.5391 0.337534,-0.18064 0.450187,-0.159556 0.656848,0.123074 0.137164,0.187582 0.249303,0.455248 0.249303,0.59463 0,0.139383 0.160886,0.425956 0.357498,0.63701 0.288732,0.309917 0.324735,0.497676 0.187543,0.976025 -0.09342,0.32574 -0.169508,0.613683 -0.169508,0.640167 0,0.02649 -0.185256,0.04824 -0.411598,0.04824 -0.253868,0 -0.804585,0.405821 -1.437215,1.058972 -1.011218,1.044031 -1.034399,1.055771 -1.65135,0.832669 -0.823151,-0.297649 -1.00308,-0.153897 -1.00308,0.802455 0,0.437647 -0.101127,0.897275 -0.224956,1.021109 -0.366644,0.366645 -1.421953,0.278058 -1.644592,-0.137952 -0.301459,-0.563274 -0.234295,-0.942487 0.274547,-1.547214 0.38889,-0.462164 0.449099,-0.681878 0.352543,-1.285737 -0.156134,-0.976415 0.08777,-3.127651 0.388603,-3.428487 0.132863,-0.132864 0.30063,-0.427557 0.372833,-0.655042 0.133641,-0.421063 0.620953,-0.765906 0.998565,-0.746556 z m 23.665797,0.708689 c 0.350289,0 0.668317,0.504845 0.8516,1.351559 0.07852,0.362768 0.0051,0.605052 -0.257419,0.849795 -0.311778,0.290469 -0.350599,0.50383 -0.256968,1.411067 0.08937,0.86586 0.185701,1.094755 0.506722,1.204139 0.218007,0.07428 0.501706,0.114918 0.630698,0.09016 0.128997,-0.02474 0.234424,0.04328 0.234424,0.151028 0,0.107715 -0.111599,0.195654 -0.248402,0.195654 -0.136802,0 -0.453546,0.218908 -0.703728,0.486432 -0.37347,0.399379 -0.577567,0.470071 -1.141027,0.395372 -0.765454,-0.101482 -1.096395,0.118114 -1.096395,0.72762 0,0.224713 -0.105427,0.491003 -0.234424,0.591927 -0.291709,0.228236 -0.91992,0.386647 -1.182953,0.297992 -0.108747,-0.03663 -0.826143,-0.17085 -1.59455,-0.297992 -1.329044,-0.219906 -1.415292,-0.264729 -1.767666,-0.922823 -0.33173,-0.619561 -0.346181,-0.783569 -0.136144,-1.568856 0.283717,-1.060798 0.876743,-1.632453 1.538647,-1.483651 0.257988,0.058 0.809675,0.169554 1.226232,0.2475 0.416552,0.07795 0.872025,0.212331 1.012092,0.298894 0.408075,0.252206 1.327522,0.302096 1.717623,0.09332 0.486269,-0.260248 0.469446,-1.194529 -0.03021,-1.694182 -0.497028,-0.497022 -0.706259,-1.647296 -0.341722,-1.878116 0.417724,-0.264497 0.542409,-0.201624 0.494548,0.249754 -0.03229,0.304368 0.06585,0.437812 0.352989,0.479221 0.539885,0.07786 0.752091,-0.650289 0.237135,-0.81373 -0.423332,-0.134361 -0.289392,-0.46209 0.188891,-0.46209 z m -35.229785,0.953935 c 0.348981,-0.0041 0.4912,0.112252 0.77361,0.475163 0.231431,0.297405 0.646579,0.75185 0.922828,1.009837 0.27626,0.257985 0.530123,0.710928 0.563978,1.006232 0.04639,0.404846 0.245567,0.635635 0.810571,0.938153 0.902556,0.483254 1.026858,0.634304 1.030578,1.256441 0.0017,0.264058 0.126652,0.644071 0.278154,0.844381 0.441068,0.583146 0.343317,1.142942 -0.276356,1.584185 -0.942724,0.671277 -1.636331,0.789464 -2.047173,0.34848 -0.193501,-0.207698 -0.550491,-0.413564 -0.793443,-0.457581 -1.561365,-0.282917 -1.917285,-0.293591 -2.336147,-0.06943 -0.397795,0.212895 -0.504789,0.193 -0.885862,-0.165 -0.238465,-0.224025 -0.524808,-0.407539 -0.636108,-0.407539 -0.32863,0 -0.451856,-0.569801 -0.317375,-1.466523 0.110026,-0.733724 0.07188,-0.879262 -0.302051,-1.161311 -0.617187,-0.465545 -0.397501,-1.054525 0.906597,-2.433526 0.916004,-0.968613 1.221943,-1.174343 1.87767,-1.262294 0.17524,-0.02351 0.314202,-0.03831 0.430529,-0.03967 z m 51.841155,9.01e-4 c 0.229278,0.0016 0.268505,0.06137 0.179428,0.204221 -0.228563,0.36652 -0.248655,1.46951 -0.04058,2.218033 0.139288,0.501058 0.112021,0.82373 -0.114513,1.360577 -0.327418,0.775926 -0.972961,0.95789 -1.432707,0.403933 -0.209659,-0.252623 -0.198167,-0.32756 0.07123,-0.478317 0.43984,-0.246147 0.399858,-0.622232 -0.102784,-0.967911 l -0.422418,-0.290328 0.412048,-0.298894 c 0.304649,-0.221056 0.42713,-0.530213 0.469305,-1.18656 0.05506,-0.856668 0.07903,-0.889945 0.68615,-0.948075 0.120853,-0.01157 0.218406,-0.01722 0.294836,-0.01669 z m 5.504513,0.184384 0.397621,0.95619 c 0.495151,1.191425 0.496284,1.480811 0.0086,2.100823 -0.21388,0.271903 -0.539072,0.494548 -0.722665,0.494548 -0.424888,0 -1.515207,-1.031609 -1.515207,-1.433609 0,-0.500461 0.749482,-1.558475 1.309182,-1.847909 z m -57.148205,0.737113 c -0.782193,0 -1.335796,0.40767 -1.461112,1.075655 -0.06634,0.353637 -0.257566,0.693049 -0.425124,0.754673 -0.311271,0.11449 -0.57821,0.410606 -0.583361,0.646929 -0.0017,0.07257 0.380228,0.301408 0.848445,0.508526 0.468217,0.207112 1.207153,0.716691 1.641887,1.132459 0.434733,0.415769 0.847368,0.756674 0.917418,0.757829 0.07005,0.0011 0.436075,-0.288918 0.813281,-0.644674 0.759593,-0.716388 0.774495,-1.29826 0.03787,-1.485449 -0.228489,-0.05807 -0.683405,-0.35123 -1.010739,-0.651438 -0.532986,-0.488822 -0.583975,-0.626431 -0.490941,-1.320001 0.09295,-0.693071 0.0624,-0.774509 -0.287622,-0.774509 z m 18.343868,2.063856 c 0.607499,0 0.613372,0.0085 0.490039,0.703729 -0.06865,0.386985 -0.521173,1.520273 -1.005779,2.518731 -0.687058,1.415574 -0.967956,1.818537 -1.274465,1.829431 -0.782294,0.02779 -1.394489,-1.255387 -1.120291,-2.347876 0.06895,-0.274716 0.613547,-0.995527 1.21045,-1.601759 0.885643,-0.899484 1.198368,-1.102256 1.700046,-1.102256 z m 27.962564,0.794795 c 0.287065,-0.01369 0.380206,0.09022 0.527457,0.413401 0.121755,0.267226 0.433855,0.582786 0.693365,0.701024 0.432828,0.197209 0.472004,0.3145 0.472004,1.42144 0,1.308788 -0.194234,1.692668 -1.501229,2.968649 -0.737669,0.720163 -0.706592,0.709646 -1.219469,0.418811 -0.512894,-0.290846 -0.650339,-0.531143 -0.653687,-1.141026 -0.0034,-0.584071 -0.43271,-0.823832 -1.812748,-1.012994 -0.677347,-0.09284 -0.797675,-0.173093 -0.76369,-0.508069 0.05523,-0.544601 -0.504981,-0.520739 -0.582459,0.0248 -0.03297,0.232186 -0.175855,0.421968 -0.317375,0.421968 -0.502281,0 -0.495732,-0.406836 0.01803,-1.148241 0.441869,-0.637624 0.593849,-0.734135 1.003074,-0.635657 0.265225,0.06383 0.636706,0.322509 0.825906,0.574794 0.198591,0.264819 0.535596,0.458934 0.797045,0.458934 0.254037,0 0.772059,0.288034 1.179796,0.656398 0.777882,0.702765 1.150495,0.825709 1.150495,0.37959 0,-0.152414 0.231961,-0.424864 0.51574,-0.605453 0.283784,-0.180584 0.573576,-0.409856 0.643767,-0.509879 0.215893,-0.307613 -0.180431,-0.803728 -0.730776,-0.914712 -0.287448,-0.05797 -0.813592,-0.365835 -1.169421,-0.684342 -0.562417,-0.503425 -0.611738,-0.613806 -0.375533,-0.843936 0.149439,-0.145601 0.572156,-0.319511 0.939055,-0.386354 0.147911,-0.02694 0.264971,-0.04458 0.360659,-0.04915 z m -43.507743,2.261764 c -0.02452,-0.0017 -0.04937,-4.62e-4 -0.07393,0.0028 -0.163844,0.02097 -0.318733,0.143921 -0.318733,0.31197 0,0.08744 0.174045,0.113458 0.387255,0.0577 0.252882,-0.06613 0.324043,-0.165546 0.204221,-0.285368 -0.05461,-0.05461 -0.125345,-0.08168 -0.19881,-0.08656 z m 1.122991,2.947462 c 0.377895,0 0.55832,0.135219 0.728077,0.545042 0.297074,0.717199 0.190795,1.337712 -0.273651,1.593648 -0.206385,0.113729 -0.425705,0.275071 -0.487334,0.358851 -0.174536,0.237259 0.04672,2.090688 0.259222,2.171153 0.104278,0.03951 0.421455,0.293377 0.705082,0.564424 0.47343,0.452436 0.633188,0.860404 0.576597,1.474633 -0.03207,0.348299 -1.175795,0.212252 -1.682912,-0.200163 -0.406784,-0.330823 -0.868294,-1.718644 -1.072047,-3.224264 -0.04188,-0.309586 -0.127616,-0.786702 -0.190695,-1.06033 -0.09264,-0.401825 -0.03534,-0.522503 0.298444,-0.628443 0.332975,-0.105687 0.392959,-0.231567 0.30971,-0.647831 -0.125131,-0.625659 0.156286,-0.94672 0.829507,-0.94672 z m 3.617832,2.077376 c 0.117269,-0.0017 0.256022,0.05343 0.403488,0.175821 0.221314,0.183689 0.396707,0.182934 0.850242,-0.0051 0.779567,-0.322904 1.493119,-0.0068 1.493119,0.661808 0,0.263432 0.126517,0.52757 0.28131,0.586967 0.478356,0.18356 0.313199,0.769315 -0.440003,1.561191 -0.396724,0.417009 -0.797912,0.756741 -0.891267,0.755124 -0.274039,-0.0045 -0.563798,-0.254877 -0.689306,-0.595534 -0.07951,-0.215798 -0.374248,-0.335473 -0.922828,-0.375082 -0.919132,-0.06636 -1.15909,-0.496302 -0.613564,-1.099101 0.226979,-0.250813 0.288366,-0.526442 0.207377,-0.931395 -0.09,-0.44999 0.06344,-0.730686 0.321432,-0.734839 z m 39.957087,1.189716 c 0.0828,4.62e-4 0.01341,0.109316 -0.174017,0.395372 -0.167598,0.25579 -0.320379,0.465247 -0.339468,0.465247 -0.115955,0 -0.485085,-0.480583 -0.485085,-0.6316 0,-0.09976 0.05095,-0.130732 0.113159,-0.06853 0.0622,0.06221 0.316107,0.03624 0.564424,-0.05815 0.166617,-0.06335 0.271306,-0.102547 0.320987,-0.102339 z"
     style="fill:#000000;stroke-width:0.18762666"
     id="pathBG35" />
</svg>
