<?xml version="1.0" encoding="UTF-8" standalone="no"?>
<svg
   xmlns:dc="http://purl.org/dc/elements/1.1/"
   xmlns:cc="http://creativecommons.org/ns#"
   xmlns:rdf="http://www.w3.org/1999/02/22-rdf-syntax-ns#"
   xmlns:svg="http://www.w3.org/2000/svg"
   xmlns="http://www.w3.org/2000/svg"
   id="svgBG4"
   version="1.1"
   viewBox="0 0 100 100"
   height="100"
   width="100">
  <defs
     id="defs6029" />
  <metadata
     id="metadata6032">
    <rdf:RDF>
      <cc:Work
         rdf:about="">
        <dc:format>image/svg+xml</dc:format>
        <dc:type
           rdf:resource="http://purl.org/dc/dcmitype/StillImage" />
        <dc:title></dc:title>
      </cc:Work>
    </rdf:RDF>
  </metadata>
  <path
     id="pathBG4"
     d="m 85.94471,92.357672 c -0.827808,-0.921244 -1.982297,-1.794758 -2.565525,-1.94113 -0.58323,-0.146391 -1.060418,-0.423834 -1.060418,-0.616548 0,-0.192724 -0.466846,-0.350401 -1.037436,-0.350401 -0.570587,0 -1.233778,-0.266843 -1.473766,-0.592974 -0.30617,-0.416085 -1.28486,-0.620957 -3.28089,-0.686803 -1.841413,-0.06079 -2.911177,-0.267406 -3.033449,-0.586042 -0.103883,-0.270708 -0.621817,-0.492203 -1.15097,-0.492203 -0.529153,0 -1.035757,-0.221064 -1.125786,-0.491255 -0.118236,-0.354828 -1.501452,-0.500703 -4.98065,-0.525263 -3.691536,-0.02608 -4.900518,-0.163792 -5.174605,-0.589503 -0.303303,-0.471087 -0.410846,-0.472953 -0.707694,-0.01229 -0.275921,0.428168 -0.406349,0.365757 -0.615985,-0.294752 -0.146277,-0.460861 -0.563525,-0.865623 -0.927226,-0.899451 -0.3637,-0.03386 -1.165246,-0.09614 -1.781211,-0.138445 -0.615967,-0.04231 -1.276456,-0.324125 -1.467748,-0.62625 -0.291498,-0.460392 -0.349755,-0.453881 -0.359842,0.04015 -0.0072,0.35526 -0.126768,0.429736 -0.30077,0.187423 -0.158805,-0.221148 -0.81929,-0.736672 -1.467745,-1.145628 -1.63879,-1.033498 -2.932674,-2.292411 -2.940738,-2.861248 -0.0039,-0.26341 -0.27207,-0.377127 -0.596296,-0.252706 -0.369991,0.141981 -0.589508,-0.0037 -0.589508,-0.391789 0,-0.339902 -0.48634,-1.126492 -1.080759,-1.747985 -1.854271,-1.938718 -3.787714,-4.395025 -4.612113,-5.859356 -0.435425,-0.773437 -1.233817,-1.8861 -1.774199,-2.472592 -0.540381,-0.586493 -1.288024,-1.516995 -1.66143,-2.067783 -0.461138,-0.68019 -1.194807,-1.088593 -2.287137,-1.273136 -0.884517,-0.14944 -1.705266,-0.524634 -1.823892,-0.833757 -0.132378,-0.344977 -0.50203,-0.471171 -0.95708,-0.326741 -0.47366,0.150331 -0.826852,0.01266 -0.978015,-0.381291 -0.130137,-0.339133 -0.448878,-0.616606 -0.70831,-0.616606 -0.891071,0 -3.132059,-2.094227 -9.564057,-8.937719 -0.702492,-0.747432 -1.277263,-1.502961 -1.277263,-1.678939 0,-0.674561 -2.765007,-3.1266 -3.812988,-3.381407 -0.604757,-0.147033 -1.451082,-0.508109 -1.880721,-0.802382 -0.68958,-0.472315 -0.858032,-0.43315 -1.436749,0.334077 -1.184798,1.57072 -5.06584,0.821618 -5.040236,-0.972849 0.01513,-1.060065 1.674422,-3.031945 2.551324,-3.031945 0.350038,0 0.901708,-0.265277 1.225934,-0.589514 0.390094,-0.39009 1.369819,-0.589503 2.896264,-0.589503 1.268717,0 2.416056,-0.17685 2.549645,-0.392998 0.27258,-0.441049 4.237666,-0.543884 4.660673,-0.120875 0.149671,0.149665 0.665487,0.323692 1.146262,0.386723 2.864983,0.375578 3.356172,0.570873 3.569028,1.418954 0.121226,0.483011 1.368087,2.101668 2.7708,3.59703 1.402711,1.495344 2.443742,2.891362 2.313408,3.102256 -0.13034,0.210885 -0.04605,0.265436 0.187295,0.121212 0.667199,-0.412343 2.448197,0.583594 2.448197,1.369047 0,1.548413 4.004876,2.241023 5.009998,0.866441 0.677949,-0.927154 0.619341,-1.416871 -0.285863,-2.388501 -0.65224,-0.700087 -0.980643,-0.776852 -2.032682,-0.47513 -0.738817,0.211889 -1.428929,0.215303 -1.678351,0.0084 -0.232979,-0.193343 -0.600449,-0.363458 -0.816601,-0.378027 -0.216151,-0.01454 -0.448042,-0.7505 -0.515316,-1.635402 -0.187654,-2.468475 1.773684,-5.829553 3.757597,-6.439244 0.486344,-0.149468 0.88426,-0.436687 0.88426,-0.638275 0,-0.20158 0.224947,-0.366517 0.499881,-0.366517 0.305375,0 0.695465,-1.031059 1.002553,-2.649866 0.276471,-1.457426 0.889515,-3.424447 1.362324,-4.371151 0.840667,-1.683264 5.534653,-6.849786 5.89548,-6.488963 0.16903,0.169036 3.815882,-3.270393 3.815882,-3.598851 0,-0.355456 2.018642,-2.117085 3.401635,-2.968529 2.102893,-1.294653 3.67243,-2.745419 3.67243,-3.394521 0,-0.301254 0.169083,-0.443238 0.375739,-0.315518 0.206657,0.127721 0.688912,-0.259758 1.071682,-0.861064 0.38277,-0.601306 0.801549,-1.181709 0.930617,-1.289786 0.513921,-0.430322 1.900201,-7.3909026 1.93722,-9.7268424 0.0052,-0.3264641 0.66694,-0.4912539 1.972801,-0.4912539 1.258343,0 1.96502,0.1683677 1.96502,0.468172 0,0.2574968 0.941891,1.3628183 2.093092,2.4562747 3.869867,3.6757466 6.159988,8.2529136 6.159988,12.3117006 0,1.044348 0.206047,2.104864 0.457882,2.3567 1.113877,1.113874 2.430753,13.340231 1.793757,16.653841 -0.363634,1.891589 -0.320297,2.497087 0.295324,4.126542 0.396815,1.050308 0.827138,1.998082 0.956262,2.106152 0.734289,0.614578 2.391828,3.183748 2.391828,3.707313 0,0.338654 0.13264,0.617111 0.294753,0.61879 0.349621,0.0037 1.277265,1.903925 1.277265,2.616479 0,0.743587 1.307752,3.428303 1.835938,3.769049 0.253232,0.163362 0.761317,1.224477 1.129071,2.358023 0.36775,1.133546 0.823754,2.229005 1.013336,2.434346 0.18958,0.205341 0.350317,0.82432 0.357192,1.375511 0.0068,0.551191 0.272154,1.345454 0.589506,1.765029 0.317352,0.419586 0.577007,1.345511 0.577007,2.057633 0,1.45933 0.694414,4.678915 1.238757,5.743313 0.19794,0.387061 0.24386,0.891478 0.102056,1.120929 -0.241158,0.390194 -0.364687,9.891469 -0.139796,10.751454 0.05657,0.216148 5.7e-5,0.658276 -0.125499,0.982503 -0.125546,0.324236 -0.338486,1.252704 -0.473197,2.06327 -0.134711,0.810577 -0.43269,1.473768 -0.662175,1.473768 -0.229482,0 -0.32856,0.231101 -0.220167,0.513573 0.108393,0.282463 -0.02148,1.37432 -0.288595,2.426344 -0.646627,2.546657 -1.615865,2.642155 -3.665514,0.36117 z m 1.876108,-3.480658 c 0,-0.29752 0.214323,-0.612375 0.476274,-0.699693 0.643222,-0.214403 0.641688,-11.119575 -0.0024,-15.626892 -0.639856,-4.479109 -1.411279,-8.207604 -1.97863,-9.56332 -0.256346,-0.612553 -0.355569,-1.292565 -0.220489,-1.511124 0.13508,-0.218567 -0.128933,-0.903964 -0.586697,-1.523121 -0.457596,-0.619156 -0.83213,-1.459188 -0.83213,-1.866747 0,-0.407559 -0.353703,-1.061106 -0.786006,-1.452342 -0.432307,-0.391226 -0.786008,-1.054529 -0.786008,-1.474001 0,-0.419472 -0.330501,-1.232113 -0.734446,-1.805856 -0.403947,-0.573753 -0.857996,-1.441094 -1.008992,-1.927443 -0.151003,-0.48634 -0.408135,-0.884254 -0.571405,-0.884254 -0.163273,0 -0.694314,-0.79583 -1.180099,-1.76852 -0.485781,-0.97268 -1.047686,-1.768519 -1.248674,-1.768519 -0.200986,0 -0.365433,-0.270821 -0.365433,-0.60183 0,-0.331018 -0.265279,-0.703642 -0.589507,-0.828062 -0.324226,-0.124421 -0.589504,-0.463779 -0.589504,-0.754141 0,-0.290361 -0.290324,-0.690405 -0.645164,-0.888982 -0.478666,-0.267876 -0.575544,-0.653248 -0.375411,-1.49329 0.148364,-0.62274 0.430983,-1.839655 0.628046,-2.704257 0.573167,-2.514732 0.452703,-8.812661 -0.210375,-10.998691 -0.326915,-1.077786 -0.565397,-2.93473 -0.529961,-4.126541 0.04363,-1.467417 -0.197876,-2.742239 -0.748136,-3.949085 -0.446915,-0.980183 -0.933519,-2.26403 -1.08134,-2.85299 -0.147822,-0.588963 -0.426021,-1.168032 -0.618229,-1.286822 -0.192207,-0.11879 -0.349467,-0.54568 -0.349467,-0.948645 0,-0.402962 -0.442129,-1.2581 -0.98251,-1.900305 -0.540378,-0.642205 -0.982507,-1.350588 -0.982507,-1.574186 0,-0.223596 -0.63276,-1.077456 -1.406126,-1.897466 L 68.109328,8.708964 67.402326,9.64626 c -0.388853,0.515515 -0.804579,1.882676 -0.923831,3.038138 -0.165205,1.600669 -0.630279,2.731661 -1.953431,4.750437 -0.955128,1.457278 -1.842515,2.948782 -1.971961,3.314453 -0.129454,0.365672 -0.731214,0.980407 -1.337246,1.366078 -0.606037,0.385672 -1.243307,0.926531 -1.416164,1.201908 -0.172854,0.27538 -0.530415,0.500693 -0.794573,0.500693 -0.264158,0 -1.347114,0.79583 -2.406571,1.768519 -1.059454,0.97268 -2.046833,1.76851 -2.194176,1.76851 -0.147339,0 -1.086726,0.795839 -2.087522,1.768519 -1.0008,0.972689 -1.999144,1.768519 -2.218552,1.768519 -0.219405,0 -0.398924,0.284198 -0.398924,0.631549 0,0.390053 -0.217767,0.547993 -0.569488,0.413018 -0.370054,-0.142001 -0.497013,-0.02965 -0.362525,0.320821 0.113832,0.296638 -0.125112,0.717077 -0.530984,0.934294 -1.31772,0.705218 -3.028471,4.677958 -3.028471,7.032753 0,1.328334 0.193012,2.229981 0.520721,2.432517 0.683579,0.422474 2.005731,0.06397 2.005731,-0.543771 0,-0.2625 0.442129,-0.713886 0.98251,-1.003084 0.540378,-0.289207 0.982506,-0.718042 0.982506,-0.95298 0,-0.234939 0.530556,-0.66201 1.179012,-0.949041 0.648459,-0.28704 1.179011,-0.691305 1.179011,-0.898382 0,-0.207068 0.344482,-0.746251 0.765515,-1.198182 0.42104,-0.45192 1.247834,-1.774963 1.837332,-2.940077 1.30069,-2.570774 1.755472,-2.98018 3.128731,-2.816576 0.844514,0.100612 1.087307,0.358515 1.180988,1.254486 0.12927,1.236409 -0.49799,2.420819 -2.473292,4.670097 -0.712382,0.811195 -1.295242,1.663874 -1.295242,1.894844 0,0.489417 -0.338133,0.827631 -2.82685,2.82757 -1.538013,1.23595 -1.885904,1.765471 -2.100624,3.197333 -0.278598,1.857808 0.257894,3.377974 1.192127,3.377974 0.308027,0 1.458377,-0.884255 2.556336,-1.965014 1.097957,-1.080759 2.121894,-1.966552 2.275409,-1.968429 0.153508,-0.0019 0.930504,-0.620854 1.726646,-1.375511 0.796138,-0.754656 1.622136,-1.372105 1.835538,-1.372105 0.213409,0 0.512056,-0.564775 0.663666,-1.255049 0.246992,-1.124531 0.327139,-1.184625 0.770756,-0.577955 0.427187,0.584222 0.526388,0.595554 0.723205,0.08265 0.264609,-0.689562 1.385452,-0.398 2.090655,0.543845 0.559015,0.746599 -0.407293,2.654023 -1.636299,3.229942 -2.533941,1.187412 -6.215448,4.70655 -6.014625,5.749354 0.173585,0.901366 1.527052,1.111454 1.977287,0.306928 0.231831,-0.414256 0.634478,-0.560675 1.118983,-0.406901 0.441346,0.140077 0.756838,0.05572 0.756838,-0.202471 0,-0.243475 0.17685,-0.333383 0.393002,-0.199787 0.216152,0.133585 0.393003,0.03499 0.393003,-0.219141 0,-0.26567 0.327925,-0.376282 0.77156,-0.260277 0.424355,0.110979 0.977454,-0.04634 1.229101,-0.349536 0.384885,-0.46376 0.575282,-0.41557 1.198878,0.303448 0.476448,0.549343 0.651736,1.146998 0.490592,1.672645 -0.137904,0.449829 -0.272981,0.817874 -0.300171,0.817874 -0.263754,0 -3.249112,1.640872 -3.425321,1.882696 -0.127522,0.175012 -0.613863,0.346976 -1.080759,0.382145 -0.466893,0.03518 -0.848897,0.178643 -0.848897,0.318824 0,0.14018 -0.422588,0.174083 -0.939081,0.07533 -0.5165,-0.09873 -1.391432,0.116879 -1.9443,0.479126 -0.55287,0.362258 -1.102968,0.644411 -1.222439,0.627019 -0.794622,-0.115678 -1.003227,0.08208 -1.003227,0.950888 0,1.084661 0.35824,1.237759 1.149535,0.491255 0.417553,-0.393918 0.559355,-0.385109 0.715679,0.04446 0.164588,0.452297 0.247808,0.452297 0.534362,0 0.258904,-0.408646 0.340841,-0.356338 0.345432,0.220538 0.0057,0.721879 0.04673,0.718014 0.901443,-0.08489 0.492485,-0.462672 1.50938,-0.891414 2.25977,-0.952765 0.750393,-0.06135 1.629623,-0.376836 1.953852,-0.701072 0.61028,-0.610272 4.431323,-0.85417 4.617793,-0.294751 0.05403,0.162113 0.09825,0.786738 0.09825,1.388053 0,0.845257 -0.200607,1.113593 -0.884258,1.182796 -2.083946,0.210951 -2.461703,0.386264 -2.581859,1.198266 -0.0783,0.529108 0.08395,0.848682 0.430876,0.848682 0.967561,0 3.022702,1.207252 3.466372,2.036263 0.234753,0.438638 0.314196,1.397884 0.176539,2.131658 -0.165134,0.88023 -0.09852,1.334131 0.195782,1.334131 0.24534,0 0.763641,0.392182 1.151778,0.871516 0.539103,0.665761 0.832319,0.769225 1.242006,0.438262 0.345244,-0.278907 0.864235,-0.309095 1.456826,-0.08481 0.825465,0.31251 0.909563,0.561472 0.814396,2.411015 -0.06133,1.191896 0.12878,2.547022 0.450367,3.210326 0.43191,0.890831 0.44755,1.184109 0.06986,1.310002 -0.267649,0.08922 -0.489342,0.456969 -0.492651,0.817218 -0.0052,0.564044 -0.05761,0.573406 -0.377487,0.06745 -0.320198,-0.50649 -0.446697,-0.484717 -0.916501,0.15778 -0.321742,0.440016 -0.646064,0.581914 -0.791635,0.346376 -0.418688,-0.677452 -6.580886,-0.0637 -7.618901,0.758773 -0.261223,0.206992 -1.551987,0.444079 -2.868361,0.526857 -1.316373,0.08274 -2.523325,0.230811 -2.682117,0.328945 -0.158788,0.09815 -1.143912,-0.0037 -2.189165,-0.226898 -2.428656,-0.517973 -3.772018,0.0047 -3.772018,1.466432 0,1.121734 0.80602,2.141873 1.692326,2.141873 0.3132,0 0.765763,0.236543 1.0057,0.525639 0.470514,0.566941 3.197031,0.834637 3.197031,0.313898 0,-0.173549 0.221065,-0.331855 0.491255,-0.351789 0.270188,-0.01988 1.02181,-0.162752 1.670266,-0.31734 0.648456,-0.15459 1.488501,-0.294068 1.866768,-0.309959 0.378266,-0.01585 0.687756,-0.178277 0.687756,-0.360859 0,-0.182593 0.178559,-0.221637 0.396798,-0.08677 0.218238,0.134871 0.858009,-0.117554 1.421704,-0.560966 0.563703,-0.443404 1.192118,-0.702846 1.396486,-0.57654 0.204363,0.126306 0.694431,-0.06257 1.089031,-0.41964 0.500337,-0.452803 1.67244,-0.699073 3.873127,-0.813794 1.735617,-0.09053 3.302776,-0.204365 3.482565,-0.253081 1.395038,-0.378018 3.055544,1.493016 2.546431,2.869278 -0.233584,0.631436 -0.406488,0.731889 -0.631919,0.367136 -0.249018,-0.402925 -0.378302,-0.396789 -0.654224,0.03105 -0.285134,0.442118 -0.409992,0.432511 -0.730866,-0.05628 -0.212846,-0.324227 -0.389693,-0.398431 -0.393007,-0.1649 -0.0035,0.237696 -0.697783,0.410692 -1.577597,0.392999 -0.864374,-0.01736 -1.571781,-0.191289 -1.572014,-0.38648 -3.13e-4,-0.19519 -0.354138,0.05291 -0.786441,0.551389 -0.51391,0.592543 -0.790335,0.715397 -0.798505,0.354884 -0.0091,-0.404088 -0.154109,-0.364734 -0.542576,0.14731 -0.355759,0.468919 -1.140744,0.725875 -2.387002,0.781364 -1.555641,0.06923 -2.041485,0.292875 -2.994456,1.37825 -1.368724,1.558881 -1.421642,1.945782 -0.253277,1.851617 0.48634,-0.03922 0.988898,0.08808 1.116792,0.282959 0.127902,0.194815 2.937816,0.41829 6.244259,0.496593 4.46065,0.10564 6.097512,0.277726 6.344255,0.666981 0.251814,0.397249 0.334002,0.404538 0.338562,0.03002 0.0048,-0.397445 0.166501,-0.397445 0.823119,0 0.725913,0.439378 0.937459,0.352023 1.895394,-0.782678 0.593054,-0.702497 1.286465,-1.277262 1.540916,-1.277262 0.254445,0 0.46822,-0.221064 0.475051,-0.491257 0.0069,-0.270192 0.42735,-0.02017 0.934489,0.5556 0.630482,0.715791 0.861762,1.362378 0.731342,2.044593 -0.148385,0.776233 0.123721,1.285473 1.225593,2.293688 1.495372,1.368249 3.77722,1.923944 3.77722,0.919856 z m -5.207297,-9.152695 c -0.378267,-0.08659 -0.68776,-0.390841 -0.68776,-0.676099 0,-0.285249 -0.24583,-0.612975 -0.546291,-0.728277 -0.300466,-0.115292 -0.822572,-0.763427 -1.160232,-1.440286 -0.751545,-1.506508 -0.238397,-2.987301 1.125569,-3.248038 0.721246,-0.137872 1.076308,0.144449 1.799146,1.430559 0.896858,1.595749 1.159255,3.957636 0.502455,4.522673 -0.189823,0.163306 -0.654625,0.226064 -1.032887,0.139468 z M 78.75916,70.229321 c -1.043053,-0.910682 -1.277091,-1.394282 -1.233677,-2.549161 0.02947,-0.783897 0.251227,-1.794561 0.492782,-2.245919 l 0.439199,-0.820642 0.582028,0.830961 c 0.320117,0.457024 0.746779,0.72914 0.948141,0.604692 0.201363,-0.124449 0.366114,0.211551 0.366114,0.746681 0,0.535122 0.148817,1.031903 0.33071,1.10395 0.181886,0.07205 0.442047,0.70229 0.578133,1.40052 0.194326,0.997099 0.09038,1.353568 -0.484373,1.661172 -0.578096,0.309386 -1.002178,0.155584 -2.019057,-0.732254 z m -1.929026,-7.883565 c -0.424919,-0.424923 -1.210847,-1.637457 -1.746501,-2.69452 -1.036746,-2.045925 -0.989579,-3.609938 0.108651,-3.60278 0.735523,0.0047 3.196446,2.396541 3.196446,3.10659 0,0.259958 0.176851,0.363346 0.393003,0.22976 0.621687,-0.384227 0.466574,2.537097 -0.168428,3.172098 -0.72708,0.727076 -0.860771,0.71125 -1.783171,-0.211148 z M 71.216413,50.807525 c -2.082136,-2.22772 -1.932695,-4.850353 0.276371,-4.850353 0.897914,0 2.424498,1.640853 2.768015,2.9752 0.269219,1.045758 -0.405067,3.033924 -1.115354,3.288675 -0.250396,0.08978 -1.118465,-0.546275 -1.929032,-1.413522 z m -1.473764,-7.493831 c 0,-0.301102 -0.221067,-0.634025 -0.491256,-0.739834 -0.270193,-0.105808 -0.720506,-0.944002 -1.000697,-1.862657 -0.467357,-1.532277 -0.444365,-1.73091 0.278317,-2.404196 0.43327,-0.403646 0.944598,-0.733905 1.136291,-0.733905 0.566593,0 1.649359,1.382893 1.649359,2.106545 0,0.368027 0.265276,0.770942 0.589502,0.895362 0.384316,0.14747 0.589508,0.758746 0.589508,1.756184 0,1.486525 -0.03905,1.52996 -1.375512,1.52996 -0.913723,0 -1.375512,-0.183794 -1.375512,-0.547459 z m -4.421293,-11.13435 c -1.111368,-0.559606 -1.355309,-1.5983 -0.833055,-3.547085 0.184426,-0.688192 0.521638,-0.884254 1.520808,-0.884254 0.999174,0 1.336389,0.196062 1.520811,0.884254 0.426252,1.590552 0.260311,2.913266 -0.440049,3.507619 -0.592866,0.503132 -0.836875,0.508574 -1.768515,0.03949 z M 49.306452,73.082783 c 0,-0.814479 1.403372,-0.994839 7.763054,-0.997747 7.457312,-0.0037 8.049684,-0.167732 7.882608,-2.186687 -0.100559,-1.215227 -0.260205,-1.455934 -0.908022,-1.369113 -0.432304,0.05797 -2.196836,0.111156 -3.921186,0.118248 -2.311897,0.0096 -3.318104,0.178445 -3.831787,0.643313 -0.643576,0.582439 -0.697557,0.573434 -0.709104,-0.118239 -0.01218,-0.730021 -0.0269,-0.729664 -0.589504,0.01417 -0.317356,0.419575 -0.577011,0.552213 -0.577011,0.294751 0,-0.257453 -0.353701,-0.468104 -0.786005,-0.468104 -0.432304,0 -0.786009,0.176852 -0.786009,0.393 0,0.216158 -0.314351,0.393008 -0.698559,0.393008 -0.384212,0 -1.091619,0.275305 -1.572018,0.611783 -0.575724,0.403262 -0.873454,0.455908 -0.873454,0.154459 0,-0.251534 -0.252346,-0.360494 -0.560773,-0.242143 -0.308419,0.118351 -0.769122,-0.03593 -1.023774,-0.342698 -0.340957,-0.410833 -0.659318,-0.452821 -1.207746,-0.159318 -0.992324,0.531079 -0.948284,2.115683 0.08558,3.078869 0.902838,0.84114 2.313715,0.952381 2.313715,0.182443 z m 0,-7.590595 c 0,-1.048592 -0.116082,-1.155076 -1.178228,-1.08076 -1.003139,0.07017 -1.178349,0.243035 -1.179012,1.163181 -7.09e-4,0.939021 0.153849,1.08076 1.178229,1.08076 1.044448,0 1.179011,-0.132761 1.179011,-1.163181 z m 6.296786,0.377182 c 0.317274,-0.502466 0.373133,-0.487954 0.37826,0.09825 0.0032,0.378262 0.18287,0.687752 0.399022,0.687752 0.216152,0 0.393003,-0.253438 0.393003,-0.563199 0,-0.424435 0.410913,-0.525591 1.667769,-0.410542 1.674287,0.153257 3.441279,-0.576595 3.441279,-1.421412 0,-0.226608 -0.281328,-0.693333 -0.62517,-1.037184 -0.491464,-0.491463 -0.691423,-0.517974 -0.934936,-0.123961 -0.246916,0.399518 -0.346239,0.39252 -0.489529,-0.03452 -0.150883,-0.449651 -0.338721,-0.451067 -1.169108,-0.0084 -0.544138,0.289798 -1.501547,0.492118 -2.127581,0.449613 -2.026155,-0.137582 -2.412578,-0.01041 -3.084347,1.014801 -0.482751,0.736775 -0.547,1.146182 -0.238251,1.518196 0.556517,0.670554 1.920362,0.574118 2.389589,-0.168981 z M 44.526987,61.341753 c 0.912192,0.05722 1.450075,-0.138586 1.764806,-0.642544 0.248986,-0.398693 0.675443,-0.7249 0.947677,-0.7249 0.272232,0 0.494968,-0.252649 0.494968,-0.561434 0,-0.308786 0.276106,-0.837538 0.613562,-1.175001 0.685464,-0.685462 1.254984,-3.372111 0.71512,-3.373509 -0.190392,-4.6e-4 -0.365121,-0.533423 -0.388287,-1.184288 -0.02313,-0.650864 -0.332654,-1.504434 -0.687756,-1.896814 -0.3551,-0.392389 -0.645642,-1.02162 -0.645642,-1.398315 0,-0.376686 -0.265277,-0.950157 -0.589507,-1.274384 -0.324225,-0.324226 -0.595092,-0.886366 -0.601923,-1.249195 -0.0068,-0.362821 -0.465833,-1.175498 -1.020004,-1.80594 -1.194282,-1.358663 -3.099281,-1.560083 -3.935755,-0.416142 -0.617336,0.844263 -0.723323,2.315376 -0.140871,1.955408 0.216152,-0.133596 0.393003,-0.05563 0.393003,0.173304 0,0.228907 0.204371,0.416199 0.454158,0.416199 0.853726,0 3.082877,2.003655 3.082877,2.771021 0,0.421312 0.153107,0.766007 0.340233,0.766007 0.558849,0 -0.182845,3.104734 -0.942124,3.943725 -0.386816,0.427427 -0.790066,0.690386 -0.896106,0.584344 -0.106041,-0.106044 -0.394636,0.08321 -0.64132,0.420579 -0.571536,0.781626 -4.728422,0.998768 -6.125274,0.319967 -1.143595,-0.555721 -6.182509,-5.280707 -6.826826,-6.401495 -1.880061,-3.270373 -3.455091,-4.369162 -6.262843,-4.369162 -0.791975,0 -1.439959,-0.17686 -1.439959,-0.393008 0,-0.810549 -0.733878,-0.352886 -1.074965,0.670376 -0.3185,0.955504 -0.146731,1.274459 1.693207,3.14403 1.126219,1.144353 2.201131,2.080644 2.388697,2.080644 0.187562,0 0.5662,0.360569 0.841417,0.801261 0.275216,0.440693 0.666277,0.698736 0.869021,0.573434 0.202745,-0.125302 0.472736,0.186973 0.599978,0.693952 0.132653,0.528526 0.850137,1.247131 1.681789,1.684418 0.79774,0.419444 1.683603,1.075956 1.968581,1.458889 0.284982,0.382943 0.649714,0.614945 0.81052,0.515562 0.160808,-0.09939 0.795196,0.251356 1.409751,0.779431 0.614557,0.528068 1.399358,0.965748 1.744003,0.972624 0.34465,0.0066 0.969922,0.272153 1.389502,0.589504 0.41958,0.31736 1.141722,0.577017 1.604767,0.577017 0.463041,0 0.973241,0.131344 1.133778,0.291881 0.437219,0.437222 3.542913,1.13759 3.769152,0.849995 0.108078,-0.137394 0.786945,-0.212743 1.508595,-0.167441 z"
     style="fill:#000000;stroke-width:0.39300376" />
</svg>
