<?xml version="1.0" encoding="UTF-8" standalone="no"?>
<svg
   xmlns:dc="http://purl.org/dc/elements/1.1/"
   xmlns:cc="http://creativecommons.org/ns#"
   xmlns:rdf="http://www.w3.org/1999/02/22-rdf-syntax-ns#"
   xmlns:svg="http://www.w3.org/2000/svg"
   xmlns="http://www.w3.org/2000/svg"
   id="svgBG5"
   version="1.1"
   viewBox="0 0 100 100"
   height="100"
   width="100">
  <defs
     id="defs6029" />
  <metadata
     id="metadata6032">
    <rdf:RDF>
      <cc:Work
         rdf:about="">
        <dc:format>image/svg+xml</dc:format>
        <dc:type
           rdf:resource="http://purl.org/dc/dcmitype/StillImage" />
        <dc:title></dc:title>
      </cc:Work>
    </rdf:RDF>
  </metadata>
  <path
     id="pathBG5"
     d="m 63.083488,89.69227 c 0,-0.333544 -0.541144,-1.124895 -1.202542,-1.758556 -0.6614,-0.63366 -1.202544,-1.376782 -1.202544,-1.651375 0,-0.274593 -0.351561,-0.610843 -0.781241,-0.747221 -0.453336,-0.143883 -0.691804,-0.481029 -0.568154,-0.803258 0.174056,-0.453578 0.456991,-0.418305 1.544545,0.192534 0.732299,0.411307 1.438917,0.64036 1.570272,0.509013 0.470856,-0.470857 0.227023,-4.16766 -0.368976,-5.594086 -0.673457,-1.611814 -0.476263,-2.765219 0.65763,-3.846541 0.544512,-0.519266 0.890311,-0.600183 1.253018,-0.293204 1.970105,1.667403 2.513333,2.012518 3.167805,2.012518 0.407196,0 0.740361,0.166049 0.740361,0.368997 0,0.20295 0.541146,0.487853 1.202544,0.633122 0.661398,0.145267 1.202545,0.430173 1.202545,0.633121 0,0.202948 0.450956,0.368996 1.002118,0.368996 0.55117,0 1.002122,0.150318 1.002122,0.33404 0,0.183726 0.225478,0.337481 0.501061,0.341675 0.275584,0.0045 1.472964,0.144802 2.660856,0.312458 l 2.159796,0.304823 -0.20103,-2.092189 c -0.110569,-1.150705 -0.381736,-2.208252 -0.602595,-2.350104 -0.220856,-0.141851 -0.52821,-0.663767 -0.683019,-1.159814 -0.154802,-0.496052 -0.44969,-0.901908 -0.6553,-0.901908 -0.205604,0 -0.373831,-0.213853 -0.373831,-0.475228 0,-0.261372 -0.34177,-0.847612 -0.759481,-1.302754 -0.417711,-0.455144 -1.132169,-1.533195 -1.587677,-2.395672 -0.78692,-1.489971 -0.794708,-1.624849 -0.156221,-2.705723 0.661754,-1.120253 1.300834,-1.49547 1.300834,-0.763748 0,0.205609 0.405857,0.501255 0.901905,0.656982 0.496051,0.155728 1.299468,0.709371 1.785372,1.230306 0.888414,0.952468 2.260033,1.023629 4.728409,0.245303 1.26514,-0.398919 1.936621,-0.529679 2.913459,-0.567345 0.500068,-0.01929 1.012178,-0.201643 1.138016,-0.405259 0.133405,-0.215856 0.457816,-0.180141 0.778082,0.08565 0.428661,0.355758 0.838889,0.185209 1.868053,-0.77663 1.186319,-1.10871 1.265682,-1.317494 0.790222,-2.078823 -0.290699,-0.465486 -0.447327,-0.92755 -0.348068,-1.026814 0.187238,-0.187232 0.712585,0.309907 2.078387,1.966797 0.478398,0.580351 1.084198,0.896696 1.505963,0.7864 1.072958,-0.280582 3.001656,0.673973 3.245452,1.60625 0.351554,1.344351 -0.18266,3.107512 -1.095176,3.614606 -0.466925,0.25947 -0.984241,0.433452 -1.149591,0.38661 -0.165351,-0.04684 -0.300636,0.144196 -0.300636,0.424522 0,0.3899 -1.220242,0.492342 -5.192545,0.435919 -2.855897,-0.04055 -5.36878,-0.182668 -5.584176,-0.315792 -0.215389,-0.133124 -0.496714,-0.07201 -0.625153,0.135819 -0.137812,0.222985 -0.711819,0.240684 -1.40049,0.04317 -0.641828,-0.184073 -1.270736,-0.230908 -1.397565,-0.104089 -0.507134,0.507139 -0.184834,2.991206 0.5711,4.401619 0.440934,0.822683 0.802808,1.76903 0.804169,2.102995 0.0015,0.333965 0.241945,1.066087 0.534643,1.626936 0.730596,1.39993 1.076917,3.325073 0.706097,3.925071 -0.242307,0.392061 -0.555834,0.395181 -1.476896,0.01469 -0.643105,-0.265653 -1.311149,-0.498122 -1.484539,-0.516599 -0.173393,-0.01849 -0.486297,-0.304154 -0.695348,-0.634856 -0.337857,-0.534466 -0.381453,-0.534466 -0.392362,0 -0.0082,0.39927 -0.111216,0.449854 -0.306776,0.150569 C 76.644418,84.028308 75.925499,83.698274 75.2088,83.542788 74.492096,83.3873 73.061219,82.811062 72.02907,82.26226 c -1.03215,-0.548796 -2.194229,-0.914761 -2.582397,-0.813248 -0.388168,0.101509 -1.018397,-0.160899 -1.400511,-0.583126 -0.533765,-0.589811 -0.769824,-0.64939 -1.018754,-0.257152 -0.233587,0.368053 -0.325726,0.307222 -0.33015,-0.217966 -0.0047,-0.570877 -0.201278,-0.667595 -0.908046,-0.447036 -1.612912,0.503356 -2.200023,2.197412 -1.591886,4.593273 0.262353,1.033588 0.270464,2.191097 0.02308,3.296489 -0.393103,1.756746 -1.136925,2.972792 -1.136925,1.85874 z m -5.827153,-5.991508 c -0.132528,-0.21443 -0.390707,-0.297325 -0.573729,-0.184215 -0.414946,0.256451 -2.655411,-2.253657 -3.010685,-3.373026 -0.144543,-0.455422 -0.502418,-0.828038 -0.795278,-0.828038 -0.499656,0 -3.021136,-3.502851 -3.021136,-4.196974 0,-0.175306 -0.38836,-0.655563 -0.863029,-1.067241 -0.474668,-0.411679 -0.713794,-0.748502 -0.531399,-0.748502 0.182397,0 -0.02994,-0.405858 -0.471835,-0.901909 -0.441906,-0.496047 -1.034433,-1.713624 -1.316717,-2.705724 -0.282289,-0.992099 -0.648269,-1.894003 -0.813287,-2.004235 -0.674095,-0.4503 -3.68432,-6.784853 -3.551631,-7.473859 0.231214,-1.200587 1.273243,-0.853388 1.678376,0.559226 0.205496,0.716516 0.527911,1.302757 0.716487,1.302757 0.188574,0 0.342862,0.385974 0.342862,0.85772 0,0.471742 0.237919,1.057979 0.528708,1.30276 0.290789,0.244765 0.871004,1.256753 1.289369,2.248852 0.418361,0.992098 1.058049,2.254766 1.421534,2.805932 0.363482,0.551165 1.352998,2.08441 2.198932,3.407211 0.845929,1.322795 1.757397,2.628707 2.025481,2.902021 0.268082,0.273318 0.613184,1.085031 0.766889,1.803812 0.34578,1.616998 0.879069,2.309 1.779413,2.309 0.380962,0 1.125496,0.56971 1.654518,1.266025 0.529025,0.696312 1.187341,1.495149 1.462923,1.775182 0.644866,0.655295 0.630947,0.831658 -0.08737,1.107306 -0.323641,0.124193 -0.69687,0.05037 -0.829395,-0.164081 z M 55.934944,75.541 c -0.704554,-1.948419 -0.593741,-3.314277 0.287596,-3.544754 0.985048,-0.257598 2.052526,1.002428 2.044638,2.413435 -0.01279,2.285574 -1.631003,3.070542 -2.332234,1.131319 z M 70.30029,75.003631 c -0.550322,-0.825239 -1.317971,-1.73687 -1.705891,-2.025835 -0.996915,-0.742607 -1.942162,-2.714921 -1.657131,-3.457691 0.218252,-0.568756 -0.429845,-0.850826 -1.548903,-0.674136 -0.165351,0.02611 -0.300637,-0.120761 -0.300637,-0.326364 0,-0.205609 -0.360341,-0.488205 -0.800766,-0.627988 -0.44042,-0.139785 -0.906709,-0.676283 -1.036202,-1.192226 -0.244526,-0.97426 0.396088,-2.616126 1.020746,-2.616126 0.746006,0 1.554665,1.24525 1.816999,2.79799 0.184966,1.09482 0.485805,1.62616 0.938484,1.657577 0.366436,0.02542 0.846632,0.08814 1.067099,0.139369 0.220466,0.05122 0.626324,0.120601 0.90191,0.154183 0.275579,0.03358 0.501057,0.51201 0.501057,1.063176 0,0.551165 0.180383,1.002117 0.400848,1.002117 0.220469,0 0.400848,0.291858 0.400848,0.648565 0,0.356713 0.541146,1.264904 1.202543,2.018191 0.661399,0.753293 1.202546,1.724103 1.202546,2.157372 0,1.302569 -1.318771,0.908526 -2.40355,-0.718174 z m -17.475548,-7.11752 c -0.27281,-1.086965 0.379041,-2.199454 1.288748,-2.199454 0.321774,0 0.552193,0.418166 0.552193,1.002119 0,0.551164 0.202468,1.002122 0.449927,1.002122 0.310861,0 0.295689,0.185848 -0.04908,0.60127 -0.785697,0.946711 -1.955444,0.734832 -2.241788,-0.406057 z m 6.317644,-4.697507 c -1.176983,-1.176984 -0.282279,-3.283643 1.233043,-2.903317 1.068108,0.268077 1.654599,1.705627 1.077093,2.640052 -0.421433,0.681894 -1.741115,0.832286 -2.310136,0.263265 z m -7.276501,-2.184903 c -0.0031,-0.260722 -0.355757,-0.58501 -0.783068,-0.720634 -0.428275,-0.135927 -0.991766,-0.897548 -1.255661,-1.697153 -0.421768,-1.277982 -0.390899,-1.51479 0.259473,-1.990355 0.63486,-0.464219 0.843581,-0.434405 1.490938,0.212955 0.832337,0.832335 1.212228,3.219387 0.652961,4.102892 -0.225582,0.356361 -0.36078,0.390581 -0.364643,0.0923 z m 23.243044,-1.329766 c 0,-0.220465 -0.456615,-0.400848 -1.014699,-0.400848 -1.149186,0 -1.587958,-0.761651 -1.239223,-2.151117 0.292806,-1.166647 1.56345,-1.194702 2.424913,-0.05355 0.411476,0.545064 0.609287,0.621669 0.617954,0.239301 0.0082,-0.36674 0.293165,-0.239068 0.818803,0.366993 0.801642,0.924307 0.801736,0.933411 0.01676,1.664728 -0.865094,0.805959 -1.624509,0.962324 -1.624509,0.334489 z M 39.132827,58.175868 c -0.285527,-0.09809 -0.501061,-0.843161 -0.501061,-1.7321 0,-1.507041 0.03938,-1.552091 1.16079,-1.32781 4.540182,0.908042 5.646698,-11.454076 1.121326,-12.527565 -0.703998,-0.167004 -1.415282,-0.269278 -1.580632,-0.22728 -0.165349,0.04199 -0.300635,-0.104025 -0.300635,-0.324485 0,-0.22047 -0.270573,-0.400847 -0.601273,-0.400847 -0.330698,0 -0.604034,0.225472 -0.60741,0.501055 -0.0042,0.334039 -0.135661,0.300636 -0.394709,-0.100208 -0.305203,-0.472271 -0.389889,-0.483239 -0.394709,-0.05114 -0.005,0.44897 -0.119231,0.456284 -0.621075,0.0398 -0.460619,-0.38228 -0.837843,-0.400923 -1.503179,-0.07428 -0.488534,0.239831 -1.339199,0.561902 -1.890364,0.715712 -0.551166,0.153804 -1.134644,0.480805 -1.296618,0.726673 -0.21015,0.319001 -0.296256,0.309022 -0.300637,-0.03481 -0.0045,-0.348077 -0.506946,-0.296248 -1.809953,0.186681 -0.992098,0.367694 -1.803815,0.810007 -1.803815,0.982924 0,0.172908 -0.270573,0.314383 -0.601271,0.314383 -0.3307,0 -0.601274,0.202468 -0.601274,0.449928 0,0.327745 -0.150572,0.324969 -0.554458,-0.01024 -0.428811,-0.355881 -0.609845,-0.315826 -0.798865,0.176749 -0.134423,0.3503 -0.414974,0.531494 -0.623448,0.402648 -0.208473,-0.128845 -0.565025,0.08521 -0.792338,0.475653 -0.322889,0.554624 -0.417304,0.578389 -0.431623,0.108646 -0.01629,-0.534466 -0.06218,-0.534466 -0.413036,0 -0.247548,0.377097 -0.506796,0.451822 -0.695345,0.200421 -0.409055,-0.545404 -1.289557,-0.699218 -2.064047,-0.360559 -1.034194,0.452207 -2.044619,0.57961 -2.044966,0.257834 -1.58e-4,-0.163966 -0.830677,-0.351703 -1.845557,-0.417192 -2.002485,-0.129227 -4.16684,-1.412549 -4.16684,-2.470675 0,-0.34934 -0.631335,-0.975162 -1.402966,-1.390713 -0.771635,-0.415548 -1.4029712,-0.99771 -1.4029712,-1.293692 0,-0.295981 -0.1654341,-0.538155 -0.3676307,-0.538155 -0.2021966,0 -0.5640227,-0.915756 -0.8040653,-2.035018 C 7.9581343,37.278955 7.5426883,35.971188 7.2749631,35.492069 6.306838,33.759524 5.9432319,32.174651 6.0175133,30.011193 c 0.094338,-2.747451 0.5528422,-3.957952 2.0627516,-5.445907 2.4941161,-2.457837 3.3029781,-2.971905 4.6762041,-2.971905 0.756947,0 1.488635,-0.181813 1.625971,-0.404036 0.137341,-0.222221 0.67871,-0.326248 1.203048,-0.231167 0.524332,0.09508 1.039701,-0.03877 1.145267,-0.297444 0.13845,-0.339263 0.200751,-0.330696 0.223578,0.03076 0.0174,0.275581 0.274262,0.50106 0.570792,0.50106 0.840329,0 1.79271,1.281662 1.936108,2.605511 0.118448,1.093504 0.02122,1.204788 -1.072286,1.227319 -0.661398,0.01365 -1.299187,-0.114875 -1.417308,-0.285561 -0.427888,-0.618307 -1.868163,0.146197 -2.621827,1.39168 -0.607243,1.003508 -0.766936,2.004498 -0.75173,4.711922 0.01182,2.101839 0.209579,3.659527 0.508939,4.008481 0.269293,0.313913 0.936812,1.11189 1.483378,1.773293 0.622528,0.753323 0.99623,0.97793 1.000381,0.601269 0.0049,-0.449315 0.08681,-0.47502 0.323855,-0.101711 0.46964,0.739569 6.655704,0.791652 7.533169,0.06342 0.371407,-0.30824 1.377342,-0.576771 2.235412,-0.59673 1.096531,-0.02552 1.733147,-0.283312 2.142379,-0.867576 0.341263,-0.487219 1.246788,-0.943547 2.187851,-1.102543 0.883081,-0.149195 1.605601,-0.415713 1.605601,-0.592265 0,-0.306915 2.68075,-1.019089 3.306997,-0.878543 0.165349,0.03709 0.300635,-0.123559 0.300635,-0.357038 0,-0.233476 0.180383,-0.313024 0.400847,-0.176766 0.220468,0.136254 0.40085,0.06025 0.40085,-0.168939 0,-0.550311 2.418077,-0.258201 2.785632,0.336511 0.157077,0.254161 0.992526,0.573265 1.856552,0.709122 0.864027,0.135864 1.715207,0.490232 1.891512,0.787495 0.176305,0.297262 0.828229,0.540473 1.448721,0.540473 0.979748,0 1.220873,0.250488 1.832844,1.904028 0.387576,1.047218 0.908129,2.084411 1.156791,2.304874 1.127549,0.999701 2.465462,7.226458 1.877606,8.738528 -0.188556,0.485005 -0.537712,1.603347 -0.775903,2.485215 -0.377964,1.399371 -0.807994,2.078111 -2.846376,4.492619 -0.2248,0.266281 -0.408725,0.655252 -0.408725,0.864382 0,0.209135 -0.37489,0.282204 -0.833091,0.162383 -0.594558,-0.15548 -1.168415,0.14928 -2.00424,1.064388 -0.644131,0.705231 -1.17115,1.193513 -1.17115,1.085063 0,-0.108454 -0.496047,-0.05716 -1.102331,0.113984 -0.606283,0.171143 -1.327808,0.233708 -1.603391,0.139037 z m 8.718441,-11.96113 c 0,-1.145226 -0.269462,-2.598899 -0.598802,-3.230383 -0.329342,-0.631485 -0.599913,-1.5095 -0.601271,-1.951151 -0.0013,-0.441645 -0.543615,-1.313749 -1.205013,-1.938004 -0.6614,-0.624255 -1.202545,-1.300103 -1.202545,-1.501878 0,-0.201777 -0.338676,-0.366871 -0.752617,-0.366871 -0.413934,0 -0.977166,-0.270573 -1.251621,-0.601269 -0.274458,-0.330702 -0.822657,-0.601274 -1.218223,-0.601274 -0.395564,0 -0.779338,-0.168245 -0.852827,-0.373883 -0.168905,-0.472627 -3.347377,-0.847306 -4.771556,-0.562471 -0.591721,0.118343 -1.774451,0.824929 -2.628285,1.570192 -0.853834,0.745261 -1.732811,1.377809 -1.953276,1.40566 -0.220466,0.02784 -0.869224,0.07641 -1.441685,0.107903 -0.572461,0.0315 -1.343676,0.30864 -1.713814,0.615878 -0.370138,0.307241 -1.705577,0.631054 -2.967643,0.719597 -1.262065,0.08853 -2.354791,0.333209 -2.428279,0.543713 -0.177674,0.508944 -1.269352,0.493367 -1.269352,-0.01811 0,-0.220464 -0.837055,-0.400847 -1.860123,-0.400847 -2.602055,0 -4.980188,-1.273354 -5.843852,-3.129047 -1.029143,-2.211245 -1.576619,-6.112925 -1.273251,-9.073991 l 0.269285,-2.628334 h -1.168816 c -2.0182439,0 -2.4862923,1.039555 -2.7637039,6.138241 -0.2094571,3.849747 -0.1492831,4.66478 0.3837324,5.197796 0.3476784,0.347678 0.6321373,1.08533 0.6321373,1.639235 0,0.5539 0.1803849,1.118576 0.4008483,1.25483 0.2204686,0.136258 0.4008479,0.602323 0.4008479,1.0357 0,0.454557 0.39211,0.93704 0.926714,1.140294 0.509691,0.193786 1.496275,1.001036 2.192413,1.793895 0.696143,0.79286 1.526758,1.441562 1.845824,1.441562 0.31906,0 0.685335,0.225475 0.813941,0.501057 0.181075,0.388019 0.28999,0.377788 0.482775,-0.04535 0.199253,-0.437343 0.312174,-0.444117 0.565684,-0.03393 0.192944,0.31219 0.918152,0.463918 1.855504,0.388217 0.846324,-0.06835 2.167575,-0.12797 2.936115,-0.132479 0.984224,-0.0058 1.617146,-0.287639 2.140801,-0.953359 0.4089,-0.519834 0.952574,-0.919623 1.208164,-0.888429 1.139154,0.139018 1.867678,-0.07849 1.867678,-0.557629 0,-0.314051 0.588768,-0.558994 1.489441,-0.619657 0.834841,-0.05621 2.056279,-0.532655 2.779191,-1.084042 0.709361,-0.541058 1.802793,-0.983742 2.429847,-0.983742 0.627053,0 1.495899,-0.24302 1.930771,-0.540044 0.434873,-0.297026 1.656268,-0.522498 2.714213,-0.501062 1.714928,0.03476 2.160523,0.252336 4.108692,2.006209 1.201833,1.081976 2.185152,2.277465 2.185152,2.656642 0,0.37918 0.25195,0.898518 0.559893,1.154083 0.307941,0.25557 0.467281,0.818801 0.354094,1.25163 -0.113772,0.435068 -0.0058,0.786954 0.241808,0.786954 0.24618,0 0.447598,0.346012 0.447598,0.76891 0,0.422904 0.1192,1.079543 0.264892,1.459208 0.484329,1.262137 1.338499,-0.563103 1.338499,-2.86018 z m 33.671225,10.653259 c -0.273961,-0.661397 -0.656606,-1.202544 -0.850328,-1.202544 -0.193716,0 -0.352217,-0.270569 -0.352217,-0.601269 0,-0.330702 -0.341209,-0.60127 -0.758238,-0.60127 -0.474487,0 -0.85237,-0.375024 -1.009759,-1.002123 -0.138334,-0.551164 -0.51865,-1.002118 -0.845149,-1.002118 -0.326497,0 -0.593634,-0.180384 -0.593634,-0.400848 0,-0.220464 -0.333168,-0.400848 -0.740366,-0.400848 -1.264166,0 -2.46041,-1.335365 -2.181692,-2.435407 0.295748,-1.167255 0.807625,-1.558748 2.04878,-1.566937 0.511794,-0.003 1.181969,-0.231615 1.489269,-0.507199 1.420245,-1.273649 1.806708,-1.503178 2.530982,-1.503178 0.426652,0 0.879559,-0.270568 1.006464,-0.60127 0.126898,-0.330701 0.506956,-0.60127 0.844582,-0.60127 0.337614,0 0.616614,-0.225478 0.619986,-0.501061 0.0045,-0.36149 0.103951,-0.346628 0.357278,0.05337 0.258531,0.408211 0.423367,0.225583 0.625005,-0.692477 0.341226,-1.553589 -0.07826,-2.995707 -0.791741,-2.721914 -0.471638,0.180982 -0.96281,-0.116547 -2.902402,-1.758161 -0.275582,-0.233246 -0.512494,-0.281686 -0.526469,-0.107646 -0.014,0.174045 -0.180132,-0.06667 -0.369235,-0.534925 -0.222476,-0.550884 -0.850143,-0.946352 -1.778405,-1.120495 -0.789022,-0.148022 -1.43458,-0.441339 -1.43458,-0.651814 0,-0.210474 -0.360763,-0.382683 -0.801695,-0.382683 -0.440935,0 -0.801698,-0.155684 -0.801698,-0.345969 0,-0.190279 -1.174238,-0.440225 -2.609411,-0.555423 -1.435178,-0.115206 -2.878231,-0.432561 -3.206786,-0.705236 -0.41446,-0.343974 -0.597372,-0.358007 -0.597372,-0.04584 0,0.247465 -0.192023,0.44993 -0.426724,0.44993 -0.234701,0 -0.898915,0.561164 -1.476031,1.24703 -0.982984,1.168205 -1.082691,1.201367 -1.577513,0.524655 -0.780074,-1.06681 -0.648375,-2.540279 0.47391,-5.302243 0.551167,-1.356428 1.003126,-3.146242 1.004357,-3.977371 0.0013,-0.83113 0.197309,-2.213728 0.435731,-3.072432 0.374975,-1.350518 0.326296,-1.702251 -0.360604,-2.605509 -0.778406,-1.023595 -2.516311,-1.304271 -2.808987,-0.453664 -0.06935,0.201585 -0.361767,0.276087 -0.649798,0.165559 -0.288028,-0.11053 -0.796044,0.0714 -1.128923,0.404279 -0.332881,0.332878 -0.714559,0.495915 -0.848171,0.362302 -0.133614,-0.133613 -0.876614,0.428966 -1.651113,1.250175 -0.774496,0.821206 -1.414572,1.344975 -1.422384,1.163928 -0.0079,-0.181046 -0.233285,0.0316 -0.50106,0.472519 -0.267769,0.440934 -0.752097,0.801696 -1.076287,0.801696 -0.324187,0 -0.791243,0.404788 -1.037901,0.899532 -0.246655,0.494741 -0.560895,0.787103 -0.698313,0.649682 -0.137415,-0.137416 -0.465936,0.224414 -0.730044,0.804074 -0.26411,0.579655 -0.737355,1.053919 -1.051656,1.053919 -0.81379,0 -3.210155,2.360171 -3.477373,3.424854 -0.252531,1.006159 -1.373577,1.60644 -1.940788,1.039226 -0.541078,-0.541071 0.772709,-3.081162 2.014469,-3.894796 1.403436,-0.919563 2.901288,-2.574894 2.901288,-3.206314 0,-0.283654 0.405858,-0.643145 0.901908,-0.798872 0.49605,-0.155734 1.299153,-0.709036 1.784676,-1.229562 0.485523,-0.520525 1.041282,-0.94641 1.23502,-0.94641 0.193738,0 0.581286,-0.427947 0.861214,-0.951001 0.279927,-0.523047 1.238667,-1.36112 2.130534,-1.862373 0.891868,-0.501259 1.969936,-1.259735 2.395703,-1.685506 0.425773,-0.425767 1.030754,-0.675651 1.34441,-0.55529 0.31365,0.120359 0.570276,0.04411 0.570276,-0.16943 0,-0.485717 4.28217,-0.517456 4.580994,-0.03398 0.339427,0.549201 0.382335,4.722102 0.08461,8.228322 -0.148105,1.744156 -0.166699,3.494383 -0.04133,3.889396 0.238497,0.751435 2.475801,2.077 2.979823,1.765494 0.160302,-0.09907 0.671996,0.174395 1.137095,0.607708 0.465102,0.433309 1.390891,0.78783 2.057308,0.78783 0.95814,0 1.264294,0.209686 1.463188,1.002124 0.225567,0.898739 0.988715,1.251748 2.269052,1.049591 0.16535,-0.02611 0.300634,0.119928 0.300634,0.324533 0,0.204601 0.97136,0.493368 2.158569,0.641697 1.715331,0.214318 2.264246,0.467168 2.673244,1.23139 0.28308,0.528927 0.664582,0.96169 0.847794,0.96169 0.183213,0 0.333116,0.450954 0.333116,1.002119 0,0.551165 0.135283,0.967759 0.300633,0.925759 0.165352,-0.04199 0.857409,0.05605 1.53791,0.217893 1.041313,0.247647 1.226731,0.471529 1.170693,1.413514 -0.117794,1.98 -2.15073,4.016367 -3.71072,3.71699 -0.275582,-0.05289 -0.501061,0.182321 -0.501061,0.522686 0,0.340364 -0.270573,0.618844 -0.601269,0.618844 -0.330702,0 -0.601275,0.167838 -0.601275,0.372968 0,0.205135 -0.405858,0.430612 -0.90191,0.501062 -0.773008,0.109786 -0.919614,0.406283 -1.025814,2.074584 -0.08121,1.275718 0.07512,2.173592 0.453646,2.605511 0.317657,0.362459 0.69506,1.045403 0.838672,1.517648 0.143611,0.472246 0.615897,0.951411 1.049532,1.064802 0.467286,0.1222 0.788418,0.548006 0.788418,1.045403 0,0.46157 0.180384,0.839219 0.400848,0.839219 0.220464,0 0.400849,0.180385 0.400849,0.40085 0,0.945192 -1.534983,0.3312 -2.004241,-0.801697 z M 67.313249,56.242299 c -0.342174,-0.522217 -0.622129,-1.206422 -0.622129,-1.520452 0,-0.730027 1.572061,-2.646966 1.590056,-1.938882 0.0074,0.288595 0.194054,0.413029 0.414934,0.276513 0.61929,-0.382739 1.277181,1.778544 0.892593,2.93231 -0.440533,1.321594 -1.497417,1.437953 -2.275454,0.250511 z m -5.86916,-3.068859 c -0.378986,-0.914956 -0.369236,-1.360528 0.04678,-2.137859 0.639295,-1.194544 0.851943,-1.217355 1.510954,-0.162116 0.626091,1.002538 0.249334,3.455832 -0.530724,3.455832 -0.301531,0 -0.763684,-0.520136 -1.027008,-1.155857 z m -5.929615,-1.204824 c -1.762018,-1.115635 -1.726548,-3.379291 0.0633,-4.040051 1.035844,-0.382398 2.49511,1.453826 2.49511,3.139643 0,1.686526 -0.84637,1.984402 -2.558416,0.900408 z m 5.943972,-4.360576 c -0.607724,-1.135542 -0.441031,-2.022666 0.4225,-2.248486 0.440932,-0.115305 0.801694,-0.379638 0.801694,-0.587403 0,-0.207761 0.180383,-0.266271 0.400848,-0.130012 0.220468,0.136257 0.400848,-0.03135 0.400848,-0.37246 0,-0.413591 0.534122,-0.705596 1.603392,-0.876579 0.881866,-0.141016 1.603392,-0.467835 1.603392,-0.726263 0,-0.957587 0.815473,-1.349613 1.829531,-0.879523 1.841966,0.853887 0.92088,3.680989 -1.03283,3.170086 -0.800752,-0.209401 -3.872498,1.784692 -4.196885,2.724501 -0.293237,0.849575 -1.361324,0.806527 -1.83249,-0.07386 z M 72.16247,43.305363 c -0.548777,-0.606393 -0.587988,-0.958215 -0.223338,-2.004241 0.539224,-1.546804 1.681309,-1.676925 2.586952,-0.294745 0.586197,0.894646 0.583194,1.057918 -0.03688,2.004241 -0.798536,1.218724 -1.419383,1.297373 -2.326747,0.294745 z M 54.463352,41.231846 c -0.152889,-0.24738 -0.161735,-1.069411 -0.01965,-1.826739 0.212861,-1.134756 0.435432,-1.37696 1.265303,-1.37696 0.936814,0 0.998414,0.118747 0.883746,1.703606 -0.10072,1.392101 -0.281254,1.726116 -0.987345,1.826739 -0.475245,0.06773 -0.989176,-0.07927 -1.142063,-0.326646 z m 2.029087,-6.261363 c -0.33494,-1.334511 0.90786,-2.749176 1.684648,-1.917622 0.351399,0.376173 0.36342,0.829726 0.04613,1.73993 -0.526022,1.508934 -1.37478,1.596072 -1.730773,0.177692 z m 2.825882,-3.989956 c -0.488567,-1.273181 -0.238757,-2.783575 0.540916,-3.270488 1.164093,-0.72699 2.083782,0.687038 1.582859,2.433652 -0.199566,0.695844 -0.362847,1.31146 -0.362847,1.368033 0,0.438974 -1.570427,-0.03476 -1.760928,-0.531197 z"
     style="fill:#000000;stroke-width:0.40084791" />
</svg>
