<?xml version="1.0" encoding="UTF-8" standalone="no"?>
<svg
   xmlns:dc="http://purl.org/dc/elements/1.1/"
   xmlns:cc="http://creativecommons.org/ns#"
   xmlns:rdf="http://www.w3.org/1999/02/22-rdf-syntax-ns#"
   xmlns:svg="http://www.w3.org/2000/svg"
   xmlns="http://www.w3.org/2000/svg"
   id="svgBG6"
   version="1.1"
   viewBox="0 0 100 100"
   height="100"
   width="100">
  <defs
     id="defs2" />
  <metadata
     id="metadata5">
    <rdf:RDF>
      <cc:Work
         rdf:about="">
        <dc:format>image/svg+xml</dc:format>
        <dc:type
           rdf:resource="http://purl.org/dc/dcmitype/StillImage" />
        <dc:title></dc:title>
      </cc:Work>
    </rdf:RDF>
  </metadata>
  <path
     id="pathBG6"
     d="m 88.713215,12.712311 c -4.04324,-0.264269 -7.78057,2.447498 -11.4009,4.068931 0.20984,-2.435978 -0.81493,-6.215541 -1.97122,-8.5259653 -2.19884,1.6031589 -3.28231,4.0241043 -5.07912,6.3595213 -1.38437,3.250584 -3.30292,6.506139 -6.105815,8.924991 -2.09124,0.606698 -3.38291,-1.633509 -4.06646,-3.321961 -1.86881,-2.671264 -2.0623,-6.302526 -3.16613,-8.911154 -1.45207,0.266259 -3.65497,3.497835 -2.62211,4.372803 0.96266,-2.145155 2.462759,-3.56532 2.99844,0.167935 0.433889,3.977334 2.522809,7.233019 5.72603,9.485517 1.26766,0.831014 3.584155,0.525724 1.96249,-0.633306 2.062355,-0.629423 3.171275,-3.254534 3.733885,-3.272495 1.9019,-2.367338 1.95369,-7.189584 4.97297,-9.335842 1.78791,-3.3335454 3.17885,3.63446 2.23965,5.457398 -0.65249,4.048672 4.73215,-1.128778 6.82679,-1.670698 2.25843,-0.645629 4.95252,-2.579911 2.48311,0.939367 -2.42145,2.631342 -3.85565,8.092888 1.22595,7.265177 2.49942,0.430216 6.77985,0.280571 2.63138,2.186849 -1.68114,1.772464 -3.86143,3.500112 -5.71769,4.938573 -2.80693,2.390511 -4.6422,7.644041 -0.96912,10.200459 1.07424,1.440598 6.24505,3.080157 2.08075,3.58794 -2.60918,0.198454 -4.70361,0.787282 -6.91884,2.515622 -1.88067,1.868348 -1.32978,5.634014 1.08237,6.929538 1.36308,1.814416 6.47687,5.532666 1.83885,5.525295 -2.95326,-0.118141 -6.34825,0.18467 -8.68935,1.789514 0.83922,2.109133 1.97831,4.368514 0.99074,6.755545 1.36754,4.680212 -2.7542,1.546574 -5.17338,1.90883 -2.987995,-0.750519 -6.901575,-1.153626 -9.184465,1.580951 -2.6357,2.953856 -1.98224,7.094123 -1.50609,10.560275 -3.42097,0.958961 -7.2998,0.434674 -10.88668,0.995058 -1.4566,-0.532464 -4.21944,2.454543 -5.52065,3.978104 -1.92289,2.061848 -5.65636,4.898453 -4.83515,0.353187 -0.87231,-4.333028 -4.36902,-7.654945 -8.64913,-8.60734 -0.942257,-0.998981 3.91525,-3.75169 5.22176,-2.565548 4.32808,0.909397 8.64737,2.518461 13.08085,3.311219 2.66257,1.401539 5.25202,-0.01068 7.90981,0.248091 2.89735,-2.166145 -3.51905,-4.805365 -5.15067,-6.539011 -2.42234,-1.092514 -5.04766,-1.801217 -7.83928,-1.000334 -1.96051,-0.337568 -9.1862,2.831182 -4.29275,-0.379865 3.80839,-2.438056 7.02118,-5.705742 10.68103,-8.312037 1.82239,-2.224084 1.97225,-2.692523 3.82846,-1.07222 4.15657,1.194006 8.56004,0.819854 12.59823,-0.355969 3.036915,-0.945573 6.716385,-2.160176 8.432185,-5.020628 3.33101,-1.046791 -3.36409,-1.839804 -4.56582,-1.765611 -1.697285,-0.302022 -3.582385,-0.01965 -5.378625,0.266738 -3.29108,0.525813 -6.54798,0.956076 -9.27018,2.995564 -4.92565,3.886202 0.46873,-3.093866 1.41981,-5.263417 0.97845,-3.302098 3.66621,-4.877322 7.13033,-3.914554 3.84772,-0.08093 7.655615,-0.743919 11.132985,-2.560059 2.72228,-0.804132 3.65557,-2.493761 6.29944,-3.288468 -1.46717,-2.283645 -5.22961,-1.888004 -7.59504,-1.980837 -1.60364,0.104437 -4.04216,0.140995 -4.983745,0.732842 -2.05564,0.08562 -7.04316,5.098802 -7.01642,3.124084 2.34881,-3.082169 4.55548,-7.434315 9.036245,-7.502358 4.55897,-2.343524 8.96714,-5.460741 12.02185,-9.502947 2.18524,-4.510395 -5.80364,-0.346965 -7.48579,0.571556 -3.41615,2.358508 -6.01556,5.38736 -8.754445,8.451573 -2.41307,1.09651 -2.50595,3.385889 -4.68397,5.647721 -1.42533,2.679911 -3.28063,5.298028 -5.08123,7.690284 -2.28046,4.350959 -0.21625,-3.363098 0.24463,-4.955316 1.19777,-3.540645 1.77462,-6.720725 2.22592,-10.475405 0.76514,-3.699348 0.42607,-7.639983 -1.79366,-10.829504 -3.09421,2.255861 -5.75455,5.851595 -7.10971,9.606667 -0.80112,3.556354 -1.48941,7.340404 -0.57875,10.990792 0.43388,3.612203 4.06148,7.418196 4.73217,9.659271 -1.79901,3.865135 -4.55653,7.029565 -8.01892,9.515669 -1.78042,0.851666 2.03554,-4.6077 1.0369,-6.131681 -0.44915,-2.267105 -0.45902,-4.207056 -1.24912,-6.247629 -0.50358,-1.620055 -1.86265,-5.029117 -2.61927,-7.213775 -1.10998,-1.963586 -3.99641,-7.241772 -5.54824,-6.26882 -1.83429,4.678656 -0.70008,9.463666 -0.10138,14.23405 -0.13255,3.208757 1.91878,6.5217 2.75083,8.9116 0.5076,2.076661 6.63259,2.431811 2.94178,5.080329 -4.53055,3.7089 -9.08392,7.664576 -14.417904,10.197832 1.388064,-3.033344 4.199174,-6.050533 1.714064,-9.525282 -0.0742,-2.931881 -7.549571,-3.205258 -1.895766,-3.829243 3.627896,-0.674602 0.450791,-3.593653 -1.698245,-4.109798 -1.222792,-0.631044 -6.508155,-2.502486 -3.203448,-3.235558 3.306969,-0.449589 8.448539,-1.926077 6.820589,-6.384418 -1.06426,-3.268538 -7.044171,-5.278602 -7.140417,-7.439089 2.202661,-0.795803 9.109347,-0.416444 4.146853,-3.176388 -1.571914,-1.401795 -3.947313,-2.254063 -2.095113,-4.060692 1.382671,0.60853 2.978539,-0.253625 0.873128,-0.489027 2.638838,-1.425137 5.478209,1.578669 7.417129,-0.506749 -1.82512,-1.957027 -0.87678,-8.769755 2.35456,-4.151702 2.8056,1.362693 6.51312,3.666595 8.95483,2.130284 4.08203,-2.046745 4.54348,-7.275074 3.99215,-11.35054 0.27207,-2.09937 -1.62049,-6.958604 1.68485,-3.479577 2.09052,1.10122 5.02188,3.854385 5.28023,-0.336158 1.15634,-3.959307 -2.23043,3.824661 -4.20814,0.226095 -1.29778,-2.174989 -6.34528,-4.243261 -4.01424,0.212794 0.0949,3.208622 0.71843,6.580277 -0.10819,9.667674 -1.31766,4.340234 -6.23939,2.808057 -9.39112,1.725125 -2.74932,-0.180793 -7.55668,-5.493381 -6.3586,0.555004 0.97084,3.526065 -1.96327,4.332066 -4.726412,4.310514 -4.009325,-0.760904 -4.99588,2.614975 -2.189124,5.33707 3.667449,2.263152 -8.197241,3.144247 -1.775907,5.585956 2.419748,2.15126 6.993522,4.094571 6.070273,8.030221 -1.423777,2.966789 -4.561101,1.965398 -7.458551,3.162421 -4.372757,-0.539226 -0.997477,2.395976 1.266351,3.047745 2.037387,1.148181 7.439949,2.906424 2.244858,3.997047 -1.691717,-0.258753 -8.13304,1.087215 -6.572467,2.666409 3.499715,-0.962896 7.313625,0.55117 10.486245,2.115196 1.727223,1.298713 1.454493,4.227581 0.146193,6.021249 -0.849371,2.225274 -2.110897,3.465323 -3.973913,5.267708 -2.789675,1.673157 -5.63764,3.027055 -8.583469,3.938823 -2.392805,1.166466 -9.551982,0.308993 -9.233606,2.410594 2.49113,-0.101173 4.586523,0.117806 6.642955,-0.536219 1.567446,-0.807435 7.580539,-1.630987 2.901347,0.265642 C 12.136902,87.471133 5.198779,86.179563 5,88.554289 c 4.418057,-0.373824 8.870182,-1.238778 12.705823,-3.579218 3.458486,-1.597143 6.537143,-6.851619 10.866496,-4.008046 3.36506,1.070245 6.01652,4.360357 6.09714,7.954753 -1.01184,5.56899 5.2853,1.593399 6.98205,-0.846412 2.17418,-1.749426 3.98194,-4.051661 7.09831,-3.204583 3.11356,0.388335 5.77395,-0.871579 8.65795,-0.727173 1.612851,-3.28959 -1.68635,-8.574162 2.07545,-11.643666 2.00422,-2.21796 4.83889,-1.738076 7.188186,-1.179708 2.5098,-0.956771 5.9885,2.637727 7.25378,0.142703 -0.42386,-2.86018 0.82201,-6.03786 -0.79475,-8.668667 -0.45743,-1.731472 3.36335,-1.349392 4.63046,-1.781318 2.51589,-0.280262 10.04592,0.538155 5.11859,-3.245624 -1.27004,-2.074791 -2.69836,-3.114033 -4.71524,-4.877237 -2.39263,-2.893072 1.01578,-6.949124 4.12336,-6.351049 1.67578,-1.529087 6.70191,-0.473967 6.53008,-1.550676 -2.42136,-2.441782 -6.66025,-3.338167 -7.52665,-7.311746 -0.11567,-3.676643 2.97741,-6.207712 5.59435,-8.414481 2.13235,-2.422919 6.82202,-3.610612 8.11461,-5.560096 -3.24377,-0.751468 -8.7749,-0.238957 -10.36283,-3.428283 -0.48866,0.609851 1.27386,-2.173758 2.01628,-3.718229 0.81119,-1.078256 1.56042,-2.184854 2.05977,-3.843222 z m -2.54565,13.650356 c -3.23682,-1.987858 -0.57088,2.938394 0,0 z m -4.72578,-6.526517 c -4.28047,-2.721566 -2.26174,2.215537 0,0 z m -6.11062,-3.879971 c -3.25396,-3.667195 -1.60218,2.764466 0,0 z m 1.79441,7.916989 c -3.7127,-1.802625 -0.99549,1.980069 0,0 z m 3.81629,6.435168 c -2.17252,-1.404616 0.21682,2.282379 0,0 z m -7.86512,-9.547611 c -3.1753,-0.01638 -4.12306,3.706731 -3.08285,5.228745 -2.87233,-1.019078 0.96071,2.997282 2.09127,-0.212615 2.05974,-1.618637 -0.60382,-3.366309 0.98015,-4.493842 -0.1599,-0.15523 -0.10577,-0.377725 0.0114,-0.522288 z m 4.84362,8.504975 c -2.04822,3.111474 -5.72389,4.943307 -8.75957,7.083453 -2.16339,1.968614 -4.858276,-0.05348 -1.00917,-0.249716 -1.61011,-2.306187 4.33497,-0.579116 2.68895,-3.016368 -4.18107,1.976096 4.66752,-5.392919 2.4607,-1.243703 1.15493,-1.235413 2.29059,-1.713144 4.61909,-2.573666 z m -6.2142,-6.514931 c 0.62027,4.392508 -2.84635,0.445342 0,0 z m 0.99989,9.713402 c -1.63368,-2.654782 -1.34757,3.20454 0,0 z m 2.69956,4.308513 c -3.49581,0.09013 2.0858,2.96932 0,0 z M 65.406779,29.55336 c -1.28344,-2.513059 -3.26262,1.561273 0,0 z m -8.78368,-9.457242 c -1.9873,-1.082586 -0.40759,1.810377 0,0 z m 5.22331,9.952787 c -3.46364,-0.101769 -2.77764,4.953858 -2.95948,6.699642 2.81213,1.334277 5.50348,-4.414361 2.8137,-4.944492 0.7893,4.574951 -3.74061,1.361977 -0.57894,-0.800499 0.38551,-0.09865 0.80848,-0.529657 0.72471,-0.954649 z m 13.446546,26.526424 c -2.3612,-2.434947 -1.35849,1.997414 0.23382,0.437846 z m -7.03302,-9.507414 c -0.9564,1.091214 -6.021506,-1.726734 -4.465246,-1.632958 1.25476,1.000751 3.113546,0.755557 4.465246,1.632958 z M 60.306009,35.22685 c -0.12133,0.537768 -0.84508,0.256237 0,0 z m -9.27625,-13.350409 c -2.99379,-0.495066 0.52276,1.995358 0,0 z m 3.39259,5.281749 c 1.41772,2.97912 1.25355,6.495535 0.61395,9.505811 -1.04867,5.225163 -2.32721,10.449626 -3.557,15.647778 -2.0745,-0.700598 -3.04137,-5.304736 -3.91446,-7.520672 -0.5049,-3.379215 0.0696,-6.975793 1.04525,-10.268484 0.99636,-2.791569 3.00003,-6.501143 5.81226,-7.364433 z m -0.84211,2.053953 c -2.86226,-0.546394 0.4791,2.401998 0,0 z m -0.65621,1.351632 c -2.11693,-0.666848 0.63173,2.502125 0,0 z m 17.687856,26.813224 c -2.61389,0.907236 -4.71749,4.012774 -8.513596,4.373461 -3.59513,0.836633 -7.4818,1.363456 -11.14369,0.165442 0.54884,-2.723436 6.269711,-3.577674 9.01754,-4.358305 3.46415,-0.889476 7.129476,-0.717625 10.639746,-0.180598 z m -4.918786,-6.351036 c -1.92308,-0.857824 -0.69473,2.540911 0,0 z M 52.43668,32.097772 c -2.89856,0.209676 0.59987,2.713805 0,0 z m 15.815365,26.175197 c -2.09525,-1.283424 -4.816836,2.706042 -1.01501,0.756389 0.4086,0.04367 1.02517,-0.298822 1.01501,-0.756389 z M 52.07407,34.335355 c -1.929011,-1.633878 -0.64201,2.445905 0,0 z m 8.46197,13.749615 c -0.0271,0.540184 -0.77374,-0.28469 0,0 z M 51.99546,35.551192 c -0.95265,-0.04586 -2.68945,6.027287 -0.59511,3.532779 -0.187731,-1.101812 1.083669,-2.279341 0.59511,-3.532779 z m 7.04087,13.1474 c -0.9149,0.422946 -2.05709,-0.548898 0,0 z m 5.33829,10.473061 c -2.59757,-1.704679 -1.9477,2.900004 0,0 z M 50.99773,40.604725 c -1.91136,-0.485567 -0.194011,1.908704 0,0 z m -0.180891,1.340491 c -2.70112,-0.268486 0.94909,2.94146 0,0 z M 62.33545,60.001095 c -1.96248,-2.300096 -2.57715,2.629851 0,0 z M 51.170619,43.625641 c -2.467799,-0.189303 0.142081,7.376052 0.37565,2.871805 -1.17777,-1.337897 -0.002,-1.750853 -0.37565,-2.871805 z m -8.09232,-9.415991 c -2.28214,-0.572535 1.145481,2.550386 0,0 z m 16.81825,25.734403 c -3.265719,-0.800307 0.35828,2.733052 0,0 z M 41.1422,34.147811 c -3.13886,-1.26809 -2.32704,7.199314 -0.40024,3.316692 -2.57318,0.284982 0.637379,-2.33869 0.40024,-3.316692 z m 22.088189,33.278495 c -2.801709,-0.636562 0.37899,2.880346 0,0 z M 51.073919,49.312269 c -2.487939,-1.19736 0.195581,2.287627 0,0 z M 42.01931,36.564906 c -3.86186,-1.834614 1.4509,2.69502 -2.24203,2.79552 -4.487891,1.605994 4.83582,2.39776 2.24203,-2.79552 z m 15.788159,23.916039 c -1.429229,-0.863054 -7.16222,-0.08613 -5.23605,1.302037 1.40209,-0.768897 4.84026,-0.02135 5.23605,-1.302037 z M 33.16172,31.995695 c -2.47259,-1.051657 0.0827,3.527175 0,0 z m 3.03937,8.667929 c 0.42766,1.615558 -1.11137,-0.861848 0,0 z m 4.43698,7.462932 c 0.0739,1.608645 -1.13919,-0.02747 0,0 z M 37.825,44.499532 c -0.027,0.85608 -0.80019,-0.30544 0,0 z m -1.52625,-1.468954 c -0.12133,0.537768 -0.84508,0.256238 0,0 z m 16.33067,24.762678 c -2.93124,-1.935586 -5.85041,5.746758 -1.54406,3.872447 -3.51476,-3.161836 4.67436,-0.770067 -0.22486,0.840269 -3.966201,1.470713 4.289369,1.831263 2.776139,-1.620234 1.00599,-2.669964 -3.443849,-1.329773 -0.801919,-2.715006 z M 35.885389,43.763374 c 0.0666,1.185219 -0.735699,0.01507 0,0 z m 5.93391,9.264875 c 0.703591,2.887651 -3.99128,5.986938 -1.97989,7.875823 -1.059709,2.252424 -1.8297,-3.351567 -0.239069,-4.327286 0.72589,-1.124581 1.010059,-2.919697 2.218959,-3.548537 z M 38.90058,48.9231 c -0.436661,1.714367 -2.5615,5.697524 -1.26529,1.776688 0.58289,-0.233329 0.5877,-2.151073 1.26529,-1.776688 z m 0.67409,1.194356 c 0.64337,1.460261 -1.33813,0.521364 0,0 z M 36.88065,46.26016 c -0.28903,1.774982 -1.52013,1.738372 0,0 z m 1.72375,5.957309 c 0.003,1.247645 -1.13556,1.33329 -0.14287,0.03487 z m 3.65241,6.071086 c -0.2772,1.644362 -0.79765,0.02269 0,0 z m -3.07988,-4.267073 c 0.21835,0.921485 -0.71135,-0.187892 0,0 z m -1.37743,-0.08419 c -0.20602,1.181778 -0.87979,1.202594 0,0 z m -0.83643,-0.898767 c -0.42758,1.088275 -1.16359,0.838886 0,0 z m -6.82001,-9.808441 c -1.89728,-0.89366 -0.80423,2.372784 0,0 z m 22.16665,35.313731 c -0.027,0.856072 -0.80018,-0.305444 0,0 z M 40.64964,62.476565 c 0.389579,0.851121 -0.63532,-0.687457 0,0 z m 9.6716,14.834791 c -0.0271,0.540182 -0.77373,-0.284691 0,0 z M 24.045278,39.635401 c 0.118091,0.608688 -0.547847,-0.644951 0,0 z M 38.45978,61.948508 c 0.0892,0.810977 -0.70762,-0.362213 0,0 z m 0.56337,0.890257 c 0.11809,0.608688 -0.54785,-0.644953 0,0 z m -6.79101,-9.106834 c -3.10914,-0.09366 0.37079,3.287971 0,0 z M 45.7859,77.057847 c 0.0182,0.799512 -1.19217,-1.526447 0,0 z m -2.21971,-1.808134 c -0.98062,0.832504 -1.09487,-1.710907 0,0 z m -2.6596,-1.397607 c 0.92534,2.106778 -1.00525,0.208576 0,0 z M 33.82718,63.807513 c -4.15575,-1.135756 2.02385,3.123108 -2.21448,3.296873 2.104,-1.273571 -2.19976,-3.014099 0.87256,-4.304501 -0.23834,-2.946431 -3.95112,2.474794 -2.01888,4.249441 -0.78467,3.49467 5.9788,-0.369915 3.69637,-2.712325 l -0.33559,-0.529474 z m -4.07814,-5.463765 c -3.241158,0.235307 0.63558,2.234114 0,0 z m 9.22012,15.997687 c 0.3896,0.851112 -0.63532,-0.687464 0,0 z m 0.187899,1.99114 c -0.0271,0.540196 -0.77374,-0.284677 0,0 z M 38.05884,75.584801 c 0.60952,1.627467 -0.7387,0.116503 0,0 z m -2.77299,-0.154508 c 0.79816,1.620171 -1.35764,-1.393467 0,0 z m 3.66806,8.384049 c -2.96485,-1.851969 -0.61173,2.940734 0,0 z M 22.44494,64.757013 c 0.08824,1.029083 -1.198578,-0.498872 0,0 z"
     style="fill:#000000;stroke-width:0.19447096" />
</svg>
