<?xml version="1.0" encoding="UTF-8" standalone="no"?>
<svg
   xmlns:dc="http://purl.org/dc/elements/1.1/"
   xmlns:cc="http://creativecommons.org/ns#"
   xmlns:rdf="http://www.w3.org/1999/02/22-rdf-syntax-ns#"
   xmlns:svg="http://www.w3.org/2000/svg"
   xmlns="http://www.w3.org/2000/svg"
   id="svgBG7"
   version="1.1"
   viewBox="0 0 100 100"
   height="100"
   width="100">
  <defs
     id="defs2" />
  <metadata
     id="metadata5">
    <rdf:RDF>
      <cc:Work
         rdf:about="">
        <dc:format>image/svg+xml</dc:format>
        <dc:type
           rdf:resource="http://purl.org/dc/dcmitype/StillImage" />
        <dc:title></dc:title>
      </cc:Work>
    </rdf:RDF>
  </metadata>
  <path
     id="pathBG7"
     d="m 58.076261,95 c -3.48348,-0.95976 -7.88553,-2.16551 -7.96577,-6.65311 -1.29605,-4.57899 0.19149,-8.85558 0.99143,-12.7843 1.75067,-4.87419 -5.77061,-11.57538 -7.24879,-4.59121 -0.0487,5.58552 0.4733,11.39316 -2.11167,16.39159 -3.15643,7.34303 -14.42822,6.37679 -15.21963,-1.83541 -4.38168,1.76783 -9.60136,1.83043 -12.25575,-2.72792 -1.57278,-4.5493 1.23799,-9.4956 -4.6723904,-11.22804 -4.09188,-6.30611 2.4992104,-16.5402 10.0168504,-14.20665 4.017,1.76556 11.78941,1.29708 9.29193,-4.21751 -4.58725,-4.76391 -11.4255,0.60955 -16.68213,-2.44077 -6.6430304,0.62391 -10.6571104,-8.98491 -3.2140704,-10.84468 -3.96286,-4.91912 -0.0236,-11.28332 5.7365304,-11.8982 1.16806,-5.82515 10.26536,-9.44232 11.8422,-2.00818 3.19694,4.35681 4.26395,12.27629 10.8134,12.46538 6.85886,-2.54703 -0.11106,-10.98399 -2.26193,-14.9582 -3.7755,-3.79683 -6.68461,-13.07308 1.154,-13.47773 3.86568,2.22898 6.33836,1.52676 7.91655,-2.60301 3.93065,-6.1485999 10.78007,-0.5278399 13.64319,1.43296 5.55262,-5.3013399 16.66948,1.64965 13.87021,8.87669 -1.10989,4.47562 -5.07092,7.54849 -7.5983,11.28426 -4.0559,7.65385 8.18554,8.09993 10.80856,2.12159 3.04357,-4.60605 9.63375,-12.04591 14.91409,-6.08736 3.50782,4.34833 -3.48327,10.29431 4.17395,12.33367 3.88697,5.80109 -5.38165,10.82195 -0.22445,16.03796 2.11191,6.15877 -6.98732,11.71775 -10.84615,5.76864 -5.22311,-2.25725 -9.66032,-9.94816 -15.56749,-7.94367 -4.7175,5.77042 2.68982,10.61701 7.6419,12.04022 5.72149,1.72719 14.04036,6.65009 9.12554,13.60497 -3.08422,3.25576 -6.11278,4.68994 -6.55796,9.24153 -2.54771,5.66937 -9.59659,2.12207 -12.25193,3.31601 -1.81291,2.41641 -4.0918,5.21516 -7.26192,5.59048 z m 1.53386,-1.93164 c 5.13615,-0.54892 4.3104,-12.55171 8.38779,-5.37966 3.98972,2.51328 11.91981,-2.49617 8.25302,-6.79392 1.14549,-2.04291 8.19106,-1.98486 7.75692,-7.38819 0.80232,-6.90691 -7.54869,-7.60109 -11.92912,-10.41605 -4.30133,-0.91251 -8.96309,-5.10927 -7.13196,-9.8032 -0.30551,-3.064 -7.02189,-1.25573 -7.59168,-5.36962 -5.96465,2.55182 -4.31658,14.44365 2.09944,11.6196 4.10189,0.34735 9.33868,5.02293 2.32014,5.008 -4.95467,-2.30702 1.83984,3.83407 3.09356,2.74477 4.28746,-3.93575 13.79197,4.83107 4.42301,4.25444 -7.03548,-2.58147 3.4091,3.38558 1.73535,7.02251 1.51985,7.44382 -8.98309,-0.89468 -5.94242,-5.05066 -0.12002,-4.09923 -1.50925,-3.69807 -2.20673,-0.26399 -3.37,6.64696 -3.30197,-5.10686 -3.58434,-6.77667 -1.89424,-1.28526 -3.56103,-4.26108 -4.9975,-5.65882 0.98162,4.74085 -5.02598,8.22326 -4.38372,1.4453 0.31972,-3.40823 4.18911,-5.21313 1.56753,-8.79201 -5.85347,-2.03462 -5.43101,3.1914 -4.4323,7.77071 -1.53997,7.02106 -5.51611,0.42222 -5.56004,-0.44762 -1.69982,3.27922 0.62427,9.6271 -5.39127,10.92712 -2.80521,-2.32334 2.12639,-8.85832 -3.88879,-4.96882 -5.571,0.89478 -4.59904,14.11197 -10.61879,9.89152 -1.00838,-5.61237 6.44946,-7.34529 6.74626,-10.92766 -6.07249,-4.85014 5.54361,-6.67136 7.52351,-2.45342 1.17389,-1.2546 9.55752,-6.47074 5.92014,-5.97232 -2.95691,1.9047 -11.2427,-5.65485 -3.78516,-4.88841 3.54413,-1.16191 8.2402,5.0082 7.28986,-1.45476 -0.29932,-3.94573 -0.77908,-4.96597 -3.53125,-4.88033 3.36494,-2.83611 -5.46968,-1.49713 -4.56692,2.38825 -2.39444,2.31218 -12.25082,2.87777 -5.8371,-1.62668 2.3919,-1.43557 8.22391,-2.56804 2.11201,-2.11229 -5.60489,-0.41916 -9.91646,-0.12133 -15.03175,2.01729 -9.7133604,0.0449 1.60226,-5.31275 2.10212,-5.62263 -3.33259,-0.99215 -9.63824,-4.79386 -7.75876,-8.36821 5.09568,-1.64157 7.56115,7.52157 9.50045,6.8824 -1.99638,-4.35028 3.33658,-10.48644 3.46283,-2.67213 -2.21184,3.86015 3.28293,8.23909 4.33975,6.0711 -3.86594,-2.42281 -2.23552,-11.19198 1.54098,-4.48198 1.56858,5.98451 5.76481,3.75065 10.23455,4.57143 0.64864,-1.57091 0.26647,-11.25103 3.73423,-3.88044 1.43886,2.62457 1.30382,6.5644 4.53535,2.48112 0.22424,-5.2856 -6.59449,-7.78696 -8.57642,-8.96298 3.14429,6.15175 -5.30102,8.95059 -9.44067,4.89082 -4.49794,-4.12041 -4.94313,-13.84709 -11.56331,-14.47189 -2.86305,0.33009 -6.02998,5.42288 -2.21059,6.1398 -3.03471,2.26821 -9.2229504,-0.77337 -9.4267204,5.68113 1.8810304,3.55201 1.2004104,5.79903 -2.27913,7.76598 -2.13976,6.57886 8.0908604,7.80312 12.6075404,7.20839 6.20231,-3.12165 16.61327,4.06828 8.92847,9.32789 -5.67191,3.02268 -12.87681,-4.99823 -16.83658,2.83326 -4.6290204,4.8133 0.63835,11.36015 5.50186,10.87185 -4.61614,4.81947 -0.61063,14.4041 6.58952,11.99183 2.19571,-0.60979 9.18099,-4.14419 5.06266,0.52962 -0.64052,4.58143 6.1747,6.93372 8.99218,4.27501 4.98786,-3.27464 4.92594,-9.58207 4.71512,-14.92942 -1.30773,-5.25063 1.05891,-11.7558 7.52665,-8.24461 5.10412,3.06524 3.96037,4.80434 3.40018,9.9798 -2.44102,5.04265 -3.80345,12.93202 2.32412,15.72941 1.35808,0.12274 2.94094,1.41161 4.17592,0.73904 z m -2.56718,-3.31782 c -1.7429,-3.39566 3.30903,0.29208 0,0 z m -24.34932,-4.30592 c 1.68031,-2.93531 1.48903,2.67667 0,0 z m 38.98322,-0.19351 c -0.59086,-2.97927 2.96648,0.54042 0,0 z M 18.708091,82.3537 c 0.56215,-4.48007 3.29627,1.83725 0,0 z m 43.16296,-0.31475 c 0.9065,-4.48204 2.7425,2.83926 0,0 z m -5.91736,-1.24364 c -3.50069,-3.13721 4.68523,0.17196 0,0 z m -20.03009,-1.87044 c 0.4814,-3.761 3.00816,2.03016 0,0 z m 39.78981,-3.20443 c 1.77806,-2.68235 1.73051,2.68767 0,0 z m -44.83384,-0.93351 c 0.0369,-3.11135 5.16391,0.91617 0.40806,0.38607 z m 23.40687,-3.00963 c 0.56827,-5.00545 3.22863,2.10202 0,0 z m 23.36179,-0.83357 c 0.722,-3.68033 2.88824,2.16456 0,0 z m -58.14619,-1.08324 c -0.38499,-3.68574 2.98081,1.27096 0,0 z m -6.51607,-2.82697 c -1.39953,-3.59344 3.27951,-0.27889 0,0 z m 56.02976,-2.25705 c -1.14348,-4.13203 3.74703,1.30672 0,0 z m -51.29832,-0.41385 c -3.14077,-4.79239 4.74444,1.35887 0,0 z m 16.04554,-5.24416 c -0.11432,-3.21355 2.85929,0.77284 0,0 z m 14.26472,-0.006 c -0.66701,-3.15517 2.62895,0.99382 0,0 z m 10.98519,-1.36731 c -0.94562,-3.43177 3.55156,0.59755 0,0 z M 23.358421,47.67764 c 2.07573,-3.15271 3.20203,2.24196 0,0 z M 10.289131,47.0509 c 1.68601,-2.59172 1.21277,1.92114 0,0 z m 3.04074,-6.07714 c 1.49488,-3.08799 1.79379,2.3016 0,0 z m 23.72018,0.30959 c 0.42287,-3.37768 2.88025,1.75281 0,0 z M 21.155681,29.71493 c -0.39537,-3.52785 3.59352,0.97264 0,0 z m 48.56757,49.36518 c 0.53645,-3.89983 -5.2534,-7.63595 -2.65004,-1.48042 0.27499,0.62804 2.52235,3.87602 2.65004,1.48042 z m -44.35837,-4.79644 c 3.373,-10.65243 -5.51265,6.59182 0,0 z m 36.26478,-2.06401 c 1.97529,-3.95458 -1.61858,-5.04298 -0.66637,-0.30176 0.26633,1.78915 -0.27206,2.32789 0.66637,0.30176 z m 9.54618,-2.22163 c -0.39486,-3.58471 -8.24223,-2.16844 -2.07503,0.18174 0.68435,0.11614 1.44089,0.15904 2.07503,-0.18174 z m -33.12811,-1.64456 c 2.74308,-1.32296 0.92976,-7.72435 -0.84722,-2.56887 0.081,1.05388 -1.93157,4.04677 0.84722,2.56887 z m -5.58749,-3.90532 c 2.73841,-3.86828 -8.05724,-1.64111 -1.90093,0.61397 l 0.57844,-0.0599 1.32249,-0.55403 z m 20.25579,-2.19395 c 2.16918,-7.24601 -3.56589,1.24687 -0.33275,1.50719 l 0.19197,-0.61465 z m 10.20953,0.7561 c -2.36277,-3.55157 -7.21264,-1.11377 -1.09239,0.11651 z m -17.90811,-0.6704 c 1.55079,-3.00568 -0.067,-7.6853 -1.2931,-2.20593 -0.30955,0.94357 -0.32978,4.10035 1.2931,2.20593 z m 45.64703,-2.74591 c 4.60177,-3.51996 1.13714,-8.43643 -1.32741,-11.6018 2.99851,-0.9713 4.74194,-6.31999 4.36399,-8.96151 -3.11689,-3.47664 -9.28761,-4.11453 -3.981,-8.99024 0.9554,-8.16249 -9.87292,-6.21721 -12.18006,-0.46721 -2.45882,4.28687 -7.76279,6.90757 -11.40201,8.07788 -0.80449,5.94281 6.2348,0.005 9.4386,0.33947 -0.37827,-4.30415 9.02799,-10.36973 7.40293,-4.16381 -1.45261,2.64961 -6.76479,6.81963 -0.58023,4.23476 3.71117,-2.19363 10.62338,7.25934 4.96801,6.99716 -5.7384,1.68822 -7.39094,-8.00489 -13.29392,-4.27122 3.38013,2.90752 4.81301,8.22418 -1.48138,6.62014 -3.47115,-2.62023 -4.57385,-8.61976 -8.99993,-3.21157 -4.82668,2.24404 3.38913,6.78398 5.9894,4.99678 4.77108,1.07291 7.46653,5.22543 11.94665,7.25098 2.93429,1.49454 5.41108,5.5822 9.13636,3.15019 z m -5.23166,-3.87412 c 0.11982,-6.03692 3.40969,0.99467 0,0 z m -7.38434,-4.11546 c 0.12254,-3.23724 3.27129,0.82982 0,0 z m 3.39564,-3.55256 c -0.89047,-3.14801 2.46215,0.80814 0,0 z M 66.598561,46.8434 c -0.17285,-3.48721 3.06508,1.3065 0,0 z m 18.62062,-10.46794 c -0.87369,-4.14411 3.14591,1.30059 0,0 z m -2.86589,-7.98675 c 0.11298,-3.43196 2.27001,0.6666 0,0 z m -40.42451,27.30442 c 3.09609,-2.4767 -9.19233,-2.3102 -2.32788,0.33121 0.7504,0.75602 1.65057,-0.0174 2.32788,-0.33121 z m 9.65628,-5.1584 c 5.98271,-1.06347 2.52688,-9.09908 -2.03069,-6.17446 -5.00802,2.17662 -2.05107,7.87624 2.03069,6.17446 z m 13.03357,-0.56398 c -0.80481,-3.09924 -8.29466,-2.60104 -3.01468,0.14313 0.95269,0.12251 2.12169,0.41591 3.01468,-0.14313 z m -29.15436,-2.26458 c 2.57518,-4.01077 -8.80188,3.35873 -1.03598,0.54204 z m 23.94128,-2.24743 c 4.03239,-1.63577 1.54018,-8.46326 4.62661,-9.65248 -5.65468,-4.99123 1.67892,-10.52738 4.60199,-14.50652 3.8385,-3.94342 2.20527,-10.02167 -2.2804,-12.5937 -3.56372,-1.8075299 -7.27445,0.88819 -9.9687,2.49929 -0.8729,-5.9524499 -9.76976,-7.4726099 -12.32511,-1.61825 -2.5047,2.77029 2.33984,4.25863 -2.20587,4.89782 -2.37193,-2.39179 -8.57087,-5.57896 -9.5153,0.45221 1.65205,5.85375 5.93804,10.35326 8.70285,15.65732 3.58451,-2.74527 8.64061,4.72319 7.82325,-1.93906 3.96092,-4.58219 -7.89277,-6.37861 -3.36003,-11.04541 5.12851,-3.93199 6.76381,10.31513 7.83393,1.95128 -2.29336,-4.10494 2.75934,-6.96181 5.97556,-7.62431 3.83029,1.85646 -2.79469,8.56192 -5.14975,10.61211 -3.41244,3.02947 8.1748,1.65491 2.90511,5.13202 -2.82506,3.50788 -9.15721,1.81219 -7.1322,7.74013 0.32949,2.10568 9.12999,-6.47553 6.53784,0.43985 0.38295,4.3873 -7.17444,6.31789 -0.59178,8.38945 0.70329,1.63792 1.94768,3.11018 3.522,1.20825 z m -1.81806,-6.98304 c 1.16638,-3.20778 2.06136,2.79202 0,0 z m 0.8298,-5.98252 c -1.00972,-3.68322 3.07338,0.43155 0,0 z m -15.86985,-5.91229 c -1.02667,-3.13581 3.97972,0.0132 0,0 z m 17.37213,-2.90707 c -0.12006,-4.18546 2.63346,1.33995 0,0 z m 4.34142,-5.11219 c -1.20087,-3.71453 3.06151,0.49633 0,0 z m -27.19383,-0.76535 c 0.75292,-3.61594 2.62399,1.67835 0,0 z m 11.7147,-4.5849 c 0.25213,-3.45353 2.1303,0.81341 0,0 z m 26.20573,31.71322 c -1.35033,-5.20553 -7.85331,-4.25381 -2.84647,0.39898 0.58939,0.87864 3.61904,1.54231 2.84647,-0.39898 z m -55.05208,0.36214 c 8.38992,-4.1973 -10.5686704,0.7349 0,0 z m 25.34635,-2.73238 c -0.88254,-6.06567 -3.09504,0.21029 -0.0662,1.71456 l 0.13934,-0.59721 z m 42.80063,0.86677 c -0.83512,-3.03745 -5.9287,-5.49749 -3.31469,-1.75536 -6.14275,-0.65158 1.67834,3.80726 3.31469,1.75536 z m -56.25213,-1.72259 c -1.18494,-4.33373 -4.2465,-3.57348 -0.90681,0.21456 1.10721,1.07384 1.90053,2.21128 0.90681,-0.21456 z m 32.86651,-0.86611 c 2.14948,-6.86215 -4.99136,0.90266 0,0 z M 24.087011,40.1499 c 0.38898,-3.67398 -0.35559,-5.8809 -0.52867,-0.7514 -0.11051,-0.0316 0.41861,3.19601 0.52867,0.7514 z m 28.98204,-0.42762 c 3.04049,-2.4752 1.81838,-7.26497 -1.02156,-2.38883 -1.41304,1.05849 -1.31231,4.96602 1.02156,2.38883 z m -35.61127,-3.42067 c -4.42436,-5.72712 -2.6676,3.05671 0.0559,0.6042 z m 62.13688,-0.41454 c 3.28907,-2.36194 2.36568,-5.04389 -0.72737,-1.60867 -1.65116,2.00993 -2.68064,5.39789 0.72737,1.60867 z m -32.41921,-2.17513 c -5.1336,-6.74738 -4.08346,2.56086 0,0 z m 8.06637,-6.11465 c 2.18806,-5.15884 -7.4065,1.44754 -2.80817,1.56101 1.00606,-0.37577 1.94807,-0.921 2.80817,-1.56101 z m -4.81132,-4.55303 c 1.04315,-3.99459 -6.59765,-5.85577 -3.24546,-1.2347 0.45891,0.58037 3.09011,3.67503 3.24546,1.2347 z m 6.16411,-5.51333 c 1.45493,2.01031 3.32637,-7.46839 -0.86665,-2.32037 -3.05222,3.50561 -1.52508,3.38141 0.86665,2.32037 z"
     style="fill:#000000;stroke-width:0.31117341" />
</svg>
