<?xml version="1.0" encoding="UTF-8" standalone="no"?>
<svg
   xmlns:dc="http://purl.org/dc/elements/1.1/"
   xmlns:cc="http://creativecommons.org/ns#"
   xmlns:rdf="http://www.w3.org/1999/02/22-rdf-syntax-ns#"
   xmlns:svg="http://www.w3.org/2000/svg"
   xmlns="http://www.w3.org/2000/svg"
   width="100"
   height="100"
   viewBox="0 0 100 100"
   version="1.1"
   id="svgBG8">
  <defs
     id="defs2" />
  <metadata
     id="metadata5">
    <rdf:RDF>
      <cc:Work
         rdf:about="">
        <dc:format>image/svg+xml</dc:format>
        <dc:type
           rdf:resource="http://purl.org/dc/dcmitype/StillImage" />
        <dc:title></dc:title>
      </cc:Work>
    </rdf:RDF>
  </metadata>
  <path
     d="m 73.472656,5.0058594 c -0.621981,-0.055435 -1.389215,0.233875 -2.166015,1.0195312 -3.43139,1.36912 -7.07343,2.1764629 -9.97461,4.5644534 -3.20511,2.51004 -5.205723,5.615637 -8.277343,7.960937 -2.672401,3.40498 -5.887596,6.673754 -7.681641,10.589844 0.689339,5.64595 2.901014,-3.104798 5.039062,-2.673828 -0.25041,-3.50625 4.594481,-4.331071 4.712891,-8.087891 1.90862,0.36808 2.088191,-1.832932 3.931641,-2.945312 3.03591,-2.36085 6.390396,-3.504802 9.660156,-5.169922 1.73603,1.65912 -2.692813,5.731519 -3.220703,8.167969 -0.92266,6.30418 -3.877768,12.15149 -4.335938,18.55664 -1.39372,4.64374 3.465722,4.315682 5.388672,1.388672 3.58661,-3.33869 5.980519,-0.451998 10.230469,0.638672 2.65553,1.91359 5.507505,3.780977 8.265625,5.966797 -0.99582,2.95793 -6.562905,0.971604 -8.240234,4.214844 -2.839671,-0.17994 -8.322508,2.603256 -6.460938,5.722656 -0.10956,1.39347 1.100617,-0.619381 1.929688,0.136719 1.522148,-3.25739 5.880318,-3.577245 8.792968,-4.595703 3.13382,-0.448231 4.534919,0.247628 6.792969,-1.669922 2.8615,-3.41686 -1.359014,-3.838997 -2.115234,-6.904297 -1.65293,-3.60886 -5.688229,-4.107195 -8.855469,-5.958985 -1.87022,-2.71928 -5.673956,-0.46692 -8.166016,-2.4375 -2.31862,2.51321 -5.922307,1.307429 -3.841797,-2.513672 0.62189,-4.017019 1.902617,-7.828427 3.222657,-11.648437 1.46826,-3.68025 3.589831,-7.282536 5.925781,-10.6035156 1.478469,-1.8112119 0.811719,-3.5967936 -0.556641,-3.71875 z M 55.751953,25.951172 c -1.882879,-0.142532 -5.38841,5.731578 -1.914062,6.429687 3.22533,2.97907 3.493108,-2.737547 2.923828,-4.648437 -0.08415,-1.229207 -0.48256,-1.741341 -1.009766,-1.78125 z m -29.199219,2.398437 c -2.745124,1.06305 -5.444961,2.597002 -7.839843,4.357422 -2.887106,4.45186 6.122825,3.759892 6.078125,8.294922 1.754858,3.1357 3.747004,6.132193 4.701172,9.458985 0.170933,3.639169 2.271549,6.715614 2.013671,10.052734 0.653038,3.82107 0.08053,7.910989 -0.05469,11.824219 -0.653576,3.80409 -0.02969,8.273863 -2.509766,11.433593 -2.060846,3.75021 -6.574003,5.550664 -8.398437,9.308594 -2.019092,-0.877 -6.261796,-1.608432 -6.527344,-5.320312 -0.572221,-1.79455 1.537436,-10.492445 -1.46875,-6.083985 -0.162674,3.00815 -2.488196,4.012761 -0.742187,6.863281 0.190056,3.68512 3.498367,5.421702 6.486328,6.15625 1.202777,0.991102 1.837861,-0.775203 3.876953,-0.558593 2.682707,-1.09906 6.860861,-3.350786 7.591797,-4.291016 1.243429,-2.51089 4.995541,-2.500059 6.332031,-5.412109 3.190445,-2.14017 5.166495,-5.215633 8.359375,-7.595703 2.792632,-2.53188 5.21343,-5.726785 8.53125,-7.802735 2.29117,-3.18624 5.273341,-5.370023 8.613281,-7.095703 2.18064,-2.4776 7.158457,-2.990531 6.154297,-7.238281 -1.53573,0.59237 -4.299484,2.729329 -6.152344,4.068359 -2.76834,1.77975 -6.236348,2.531651 -7.142578,6.056641 -2.54143,1.95312 -5.276903,3.983907 -7.367187,6.123047 0.585423,2.44743 -2.996695,0.840446 -3.496094,3.847656 -2.266271,2.01044 -3.938122,3.385157 -6.320313,5.498047 -1.983145,0.59085 -6.89748,7.147425 -5.796875,1.759766 1.709846,-2.287211 1.113572,-8.397155 4.121094,-8.296876 2.446475,-1.09107 0.284393,1.482174 2.232422,2.626954 4.083716,-0.14917 4.84104,-6.48718 7.9375,-8.90625 2.228983,-3.32375 4.792951,-6.065582 8.269531,-7.894532 2.11021,-1.72979 8.344113,-3.641898 4.814453,-7.136718 -2.96316,1.55247 -4.785605,4.026673 -8.046875,5.408203 -3.74309,2.08207 0.535627,-2.575775 1.472657,-3.677735 2.01064,-0.88856 4.775957,-7.689418 0.898437,-6.236328 -0.98433,-0.31006 -1.211877,-5.273742 -3.820312,-2.414062 -1.462388,2.42994 -0.987152,-3.45703 -3.244141,-0.75586 -1.668173,1.88106 -1.614272,7.484122 -3.578125,7.732422 -0.07171,-2.45049 1.37553,-5.541312 -0.828125,-7.357422 -1.894486,1.88671 -1.051745,6.550465 -4.609375,7.234375 -0.548588,4.97697 -0.169698,10.105715 -1.472656,14.990235 -1.481372,5.28381 -1.199139,-1.253771 -1.574219,-3.113282 -1.076926,-3.651248 -1.327756,-7.46531 -1.775391,-11.24414 -0.996155,-3.51883 -3.228469,-6.897651 -4.154296,-10.556641 -2.682155,-0.16655 -1.349711,-6.029726 -4.048829,-5.628906 -3.762424,-2.31647 0.897368,-4.900778 3.679688,-4.304687 2.765283,-1.423551 6.222298,-0.66046 8.21875,-0.05273 3.204444,-0.77254 5.735479,3.612978 8.449219,1.861328 2.027349,-4.11012 -2.775751,-4.324992 -4.845704,-5.513672 -4.316324,-0.39722 -8.679656,-0.30649 -13.017578,-0.46875 z m 7.576172,9.580079 c -1.874938,-0.219936 -3.375258,3.749251 -1.390625,5.875 2.225755,3.583969 5.149564,-1.982087 3.275391,-4.035157 -0.593101,-1.22739 -1.259786,-1.766532 -1.884766,-1.839843 z m 33.669922,6.976562 c -1.518518,-0.08517 -3.360174,2.627494 -1.171875,4.380859 1.27954,2.13365 2.319653,-1.158364 2.632813,-2.177734 -0.147769,-1.547128 -0.770702,-2.164411 -1.460938,-2.203125 z m -20.162109,4.205078 c 0.497913,-0.0495 -0.383868,4.955994 -1.335938,6.300781 -0.3567,0.41866 -0.618647,0.909912 -0.818359,1.419922 -0.776511,1.43231 0.325714,-4.531142 1.148437,-5.664062 0.521078,-1.46253 0.839889,-2.04014 1.00586,-2.056641 z M 16.355469,79.21875 c -0.176174,3.03e-4 -0.35779,0.01474 -0.542969,0.04492 -2.59874,2.67971 2.272523,1.953689 2.716797,3.980469 0.220904,0.41741 0.340606,1.372737 0.962891,1.398437 1.081576,-2.213803 -0.494108,-5.428373 -3.136719,-5.423828 z"
     style="fill:#000000;stroke-width:0.42128161"
     id="pathBG8" />
</svg>
