<?xml version="1.0" encoding="UTF-8" standalone="no"?>
<svg
   xmlns:dc="http://purl.org/dc/elements/1.1/"
   xmlns:cc="http://creativecommons.org/ns#"
   xmlns:rdf="http://www.w3.org/1999/02/22-rdf-syntax-ns#"
   xmlns:svg="http://www.w3.org/2000/svg"
   xmlns="http://www.w3.org/2000/svg"
   id="svgBG9"
   version="1.1"
   viewBox="0 0 100 100"
   height="100"
   width="100">
  <defs
     id="defs2" />
  <metadata
     id="metadata5">
    <rdf:RDF>
      <cc:Work
         rdf:about="">
        <dc:format>image/svg+xml</dc:format>
        <dc:type
           rdf:resource="http://purl.org/dc/dcmitype/StillImage" />
        <dc:title></dc:title>
      </cc:Work>
    </rdf:RDF>
  </metadata>
  <path
     id="pathBG9"
     d="m 11.545251,94.374861 c 1.157561,-2.281483 0.13519,2.196313 0,0 z m 1.074413,-2.209925 c 1.33389,-1.925846 -0.144374,1.710621 0,0 z m 1.584558,-1.163331 c -0.09583,-1.826162 5.513436,-6.204436 5.504966,-3.998995 -0.851247,0.213082 -6.425738,7.683758 -5.504966,3.998995 z m 38.275565,-0.646559 c -4.783161,-1.708704 -10.040774,-2.735298 -14.226201,-5.367447 -3.070807,-1.784034 -4.220152,-7.753626 -8.914987,-5.942303 -3.040497,0.936764 -7.07221,5.318639 -8.463512,5.173334 0.02117,-3.942082 5.959054,-6.727653 3.954638,-10.912824 -0.8323,-3.770892 -5.745084,-3.337172 -6.378586,0.291817 -1.704466,3.349889 -3.63851,0.57086 -1.900964,-1.562599 3.064697,-3.632364 5.572216,-8.185563 1.474391,-12.007728 -2.334482,-6.19695 -1.933972,-12.787938 -2.919961,-19.176192 -1.407261,-3.806271 0.935836,-6.616015 2.866698,-9.854549 0.135649,-4.044312 1.249483,-8.006598 2.260143,-12.063006 1.691579,-3.798109 5.238943,-6.812388 8.336199,-9.8769869 3.394521,-2.3369762 8.142811,-2.4608428 11.691857,-4.0565617 4.053178,1.2895748 8.352862,3.1263392 10.972968,6.1060676 1.268504,3.508614 5.209349,3.956419 9.008808,2.881656 3.19887,-1.752291 6.248466,-4.6490758 10.514476,-4.4171274 4.460137,0.5631474 8.01931,4.9848484 11.044235,5.9689974 1.024284,3.365182 5.088339,5.367322 6.142303,9.208001 1.034521,4.390218 0.180261,8.945585 0.194829,13.407298 1.136533,4.225257 -2.763004,7.428249 -3.887267,11.249379 -1.522439,4.998682 2.94854,9.486711 2.685118,14.474484 0.39394,4.530537 1.724467,9.621397 -1.94589,13.513428 -2.283652,2.934008 -3.438224,6.252102 -7.987633,5.988934 -3.726765,2.113784 -6.664718,5.627366 -11.618581,5.772193 -4.291481,0.667487 -8.577298,0.777584 -12.903081,1.201735 z m 14.849322,-4.433544 c 3.53755,-2.999584 9.759711,-3.239163 11.714785,-7.691894 3.702421,-3.070847 7.187968,-7.484059 5.072718,-11.960226 -1.223504,-4.520566 -1.427069,-9.002592 -4.488934,-13.062872 -0.274589,-3.638717 3.145426,-6.652313 4.303399,-10.084067 2.306519,-4.284711 2.353466,-9.052856 1.282914,-13.587614 0.03739,-1.766808 -2.225066,-7.135281 -3.256222,-5.780286 0.34519,6.592653 2.394521,13.869099 -1.84003,19.91375 -3.670128,4.332096 -4.814899,-2.034611 -2.457368,-4.259132 1.837164,-4.553991 1.712876,-9.974177 -0.269434,-14.49567 -2.986037,-5.044968 -10.563153,-2.124819 -12.869057,1.770265 -1.963773,5.601509 -7.512819,-2.145429 -2.404491,-3.677041 2.631614,-2.24091 5.231406,-5.624379 8.952533,-5.949378 2.040122,0.38582 8.281509,0.286784 4.558555,-1.948879 -3.87282,-1.735038 -7.527798,-2.127402 -11.252518,-0.210852 -1.331531,0.138402 -3.732742,2.939014 -5.818747,4.033683 C 56.227206,23.374041 50.88878,16.76363 49.533582,14.36855 47.447785,10.63328 42.438226,9.2931987 37.944222,9.4301704 33.666438,10.108373 30.136909,12.02513 27.696083,15.023435 c -4.484808,3.772037 -5.879087,9.204446 -6.868766,14.251573 -2.152636,6.614667 -1.934311,13.540833 -1.636672,20.323098 -0.470301,3.26511 2.023304,2.032847 1.949387,-0.361918 -0.09135,-4.656096 0.598655,-9.275399 1.422363,-13.87475 -0.289097,-2.440593 4.82954,-7.237287 5.528706,-2.955203 -2.334737,3.885442 -4.7208,7.556515 -3.995136,12.136265 -0.874357,3.319567 -0.414207,6.833753 -0.694882,8.711855 -3.114657,0.83987 0.521736,2.398158 1.014422,-0.05688 2.433107,-4.782455 3.37884,-9.98324 4.53651,-15.055711 -0.04694,-2.14606 4.455781,-7.674191 4.578218,-2.691181 0.01367,4.305915 -2.694036,8.263234 -3.852517,12.416292 -1.485353,3.901096 -3.175868,8.998146 -3.303918,12.441267 -1.114572,4.44061 1.782,-1.928771 2.438562,-3.373965 2.700437,-4.933701 4.195035,-10.226447 6.596005,-15.265692 -0.126369,-1.883843 3.74241,-7.206767 4.363449,-3.064131 -0.0461,4.302126 -3.302563,7.86601 -4.219971,12.035575 -2.155952,3.439845 -3.019831,7.248014 -4.704575,10.90007 -0.428606,2.727487 -5.569639,7.911073 -0.501905,9.120573 2.81087,-5.567841 3.937044,-11.678093 7.756106,-16.908228 2.440318,-2.727477 0.913935,-8.423343 6.202512,-8.845559 3.919632,3.175929 -2.663667,6.697006 -3.45001,9.964061 -0.958595,3.118851 -4.139752,6.364657 -3.506516,9.476092 3.582296,-3.347425 3.993768,-8.627177 8.405241,-11.556982 5.549323,-2.259108 2.106452,5.238153 -0.591831,6.517044 -1.196111,1.323512 -4.771896,5.618719 -2.565368,6.189849 2.367563,-2.197691 6.153351,-3.034925 9.116689,-4.257369 5.10829,4.000518 -4.655003,4.873806 -7.221254,7.144687 -3.141736,1.498526 -9.973743,6.903125 -3.21414,8.187561 3.715598,-2.061739 7.73025,-4.485799 11.772695,-6.550597 2.108534,-1.163998 6.781843,-6.724062 7.710092,-2.12994 -1.525149,3.532644 -9.179207,3.565927 -9.324282,6.687919 3.653272,3.651875 9.874368,0.372392 12.439337,-2.637649 3.629266,0.242371 0.294941,5.743548 -3.033105,5.560074 -2.501771,0.530973 -3.154789,2.745935 -5.164373,1.413504 -2.239706,1.003311 -2.938678,-0.126153 -4.597092,1.848331 -1.982795,0.531504 -6.148221,1.842326 -1.955644,2.477987 4.891503,1.40535 8.368337,-1.717551 12.666436,-1.848563 2.185258,-2.312289 6.36098,-3.463102 9.738598,-4.003768 3.463695,3.192453 -4.563638,5.491286 -7.276537,7.034706 -4.021379,-2.382156 -4.935314,3.439431 0.267996,1.627407 0.937637,-0.0095 1.876159,-0.04077 2.808196,-0.129609 z m 8.566142,-11.256975 c -1.996455,-2.200842 -6.576972,-8.207352 -1.002711,-8.993376 2.128062,2.273733 4.354374,9.233847 1.873534,9.914148 L 76.22251,74.96141 Z M 67.079965,59.887013 c -3.663847,-1.797192 1.342637,-6.812342 2.771437,-3.135537 -0.05155,1.141542 -0.497962,5.434929 -2.771437,3.135537 z m -5.508499,-8.983502 c -5.727516,-4.214547 5.784516,-5.665032 2.240346,-0.410563 -0.491318,0.547849 -1.540793,1.034568 -2.240346,0.410563 z m -6.368688,-7.387912 c -3.618692,-1.651977 0.941485,-7.956315 2.326484,-2.866652 0.801397,1.509254 0.41929,5.425029 -2.326484,2.866652 z m -5.967162,-7.095978 c -3.090383,-1.718163 -0.749209,-8.038565 2.476932,-4.052492 0.854756,1.362672 0.380293,5.396543 -2.476932,4.052492 z m 18.33251,-2.605346 c -2.601729,-3.823118 5.641486,-7.578261 5.454075,-2.016657 -0.253718,1.950345 -4.037497,5.140215 -5.454075,2.016657 z M 43.031557,30.172254 c -5.29442,-1.579483 -0.03933,-9.614456 2.787312,-3.809393 0.916996,1.620197 -0.740644,3.626207 -2.787312,3.809393 z m -6.598968,-5.80733 c -4.069149,-2.19719 1.197744,-8.257114 3.510145,-3.301137 1.64917,1.776501 -1.1383,5.77493 -3.510145,3.301137 z M 50.309,75.11792 c -1.770456,-0.600435 1.624596,1.842967 0,0 z M 81.682042,21.066324 c -0.543843,-1.631726 -6.545779,-4.506607 -3.021368,-1.575108 0.554745,0.08756 3.390225,3.470643 3.021368,1.575108 z M 18.441387,85.467849 c 0.85184,-2.220418 2.179667,0.358244 0,0 z m -5.578665,-5.513787 c 0.02432,-1.82134 3.095005,-6.870096 2.427976,-2.242522 -0.501954,0.647614 -2.205549,5.298273 -2.427976,2.242522 z"
     style="fill:#000000;stroke-width:0.5071587" />
</svg>
