<?xml version="1.0" encoding="UTF-8" standalone="no"?>
<svg
   xmlns:dc="http://purl.org/dc/elements/1.1/"
   xmlns:cc="http://creativecommons.org/ns#"
   xmlns:rdf="http://www.w3.org/1999/02/22-rdf-syntax-ns#"
   xmlns:svg="http://www.w3.org/2000/svg"
   xmlns="http://www.w3.org/2000/svg"
   id="svgC1"
   version="1.1"
   viewBox="0 0 100 100"
   height="100"
   width="100">
  <defs
     id="defs2" />
  <metadata
     id="metadata5">
    <rdf:RDF>
      <cc:Work
         rdf:about="">
        <dc:format>image/svg+xml</dc:format>
        <dc:type
           rdf:resource="http://purl.org/dc/dcmitype/StillImage" />
        <dc:title></dc:title>
      </cc:Work>
    </rdf:RDF>
  </metadata>
  <path
     d="m 92.283208,5.0000008 c -0.172496,8.095e-4 -0.351945,0.016293 -0.537876,0.047137 -1.176488,0.1956406 -2.311761,1.1541383 -6.539683,5.5235492 -7.772742,8.032866 -12.253243,12.429431 -14.205753,13.939774 -0.97232,0.752138 -2.04965,1.649675 -2.39397,1.993983 -0.344319,0.344308 -2.010054,1.89397 -3.701447,3.443868 -1.691392,1.549894 -3.676206,3.479811 -4.410427,4.28831 -0.734222,0.808508 -1.676072,1.561405 -2.093187,1.673182 -0.637536,0.170842 -0.758091,-0.01168 -0.758091,-1.142446 0,-0.739811 -0.17536,-1.817833 -0.389789,-2.395768 -0.431097,-1.161906 -2.444232,-2.22939 -3.613204,-1.916142 -3.188779,2.110113 -3.17545,4.260817 -3.366136,7.162922 -0.138906,1.773298 -0.03811,2.960238 0.307685,3.622344 0.622528,1.191972 0.590727,1.228739 -1.384972,1.561529 l -1.571427,0.264184 -0.118933,-3.939999 c -0.09233,-3.069279 -0.307351,-4.327734 -0.973699,-5.694943 -1.807054,-3.707742 -4.741112,-3.881146 -5.605879,-0.331028 -0.432512,1.775594 -1.196464,1.71617 -3.422149,-0.265752 C 35.233505,30.812647 26.600279,22.124859 25.009591,20.260678 24.45514,19.610899 22.689991,17.539088 21.087164,15.657066 14.435227,7.8464635 12.22763,5.6160249 9.90247,6.6946102 9.06732,7.3469916 8.32635,7.7953194 7.55792,8.4389086 7.31018,9.181179 6.71767,9.0024565 7.03048,10.364604 c 0,0.624355 2.32002,3.166064 2.83572,3.991973 0.51571,0.825898 5.37731,6.097845 10.803558,11.715423 5.426251,5.617563 9.865917,10.364677 9.865917,10.549384 0,0.184707 0.441963,1.00375 0.982141,1.819421 1.129498,1.705564 1.168104,1.92466 0.468819,2.649736 -0.282181,0.292579 -0.630252,0.849323 -0.773436,1.236803 -0.143181,0.387469 -0.619181,0.704499 -1.058104,0.704499 -0.124702,0.439587 -0.323977,0.655445 -0.217913,1.207711 0.414988,0.333989 0.851824,0.424892 1.183941,0.944305 0.851866,1.332256 1.878023,1.713095 6.109226,2.265238 4.868962,0.635371 4.697192,0.559787 4.347511,1.899626 l -0.29541,1.130662 -4.096604,0.02982 c -5.130581,0.0372 -6.461333,0.641222 -8.123383,3.688398 -0.317193,0.530756 -0.446717,1.2653 0.01307,1.795012 0.289908,0.333989 0.03834,0.255402 0.783362,1.040137 0.633528,0.667302 2.567069,1.680899 4.703556,1.69298 0.599574,0.0031 1.079966,0.230236 1.079589,0.509504 C 35.641411,59.703393 22.746099,72.743448 19.618556,75.438681 17.347344,77.395959 8.84409,85.33871 7.41468,86.838027 6.04836,88.271168 5,90.364529 5,91.659434 c 0,1.017911 1.47647,2.348497 3.14285,2.832137 2.80943,0.815394 3.09202,0.683471 6.654006,-3.10576 4.570353,-4.861934 8.859536,-9.652813 12.203107,-13.630778 4.953583,-5.893444 12.644609,-13.233872 13.378607,-12.769026 0.204081,0.129249 0.371372,0.69708 0.371372,1.262749 0,2.851054 2.942387,5.480428 5.164681,4.614617 1.88733,-0.735302 2.21207,-1.905498 2.390902,-8.608864 0.102056,-3.825414 0.128594,-3.924884 1.032014,-3.925058 0.85477,-1.64e-4 0.906977,0.117484 0.670622,1.509636 -0.412189,2.427831 -0.297039,3.684114 0.57854,6.296447 1.090566,3.253771 1.774427,4.271027 2.871232,4.271027 1.009712,0 2.381928,-1.336202 2.79066,-2.717358 0.348872,-0.606924 0.593091,-0.950894 0.759624,-1.485258 -0.119334,-0.318679 -0.06965,-0.841023 0.110491,-1.161322 0.267064,-0.474868 0.744215,-0.303103 2.587329,0.931732 3.353793,2.246937 13.373137,11.957945 18.694449,18.11959 6.877626,7.963728 8.009038,8.931438 11.059832,9.459612 1.490533,0.258047 1.698005,0.170648 3.175849,-1.343733 1.293617,-1.325606 1.50807,-1.754043 1.178569,-2.352524 -0.22152,-0.402349 -0.662843,-1.410566 -0.981375,-2.24087 -0.371307,-0.768166 -0.677536,-1.259839 -1.241956,-2.173587 -0.824418,-0.895231 -0.737519,-0.905479 -1.43975,-1.464477 -0.702231,-0.559008 -1.900003,-1.628514 -2.661756,-2.376902 -0.761753,-0.748388 -1.772746,-1.638895 -2.246649,-1.979043 -0.473904,-0.340045 -1.759421,-1.466095 -2.856653,-2.501816 -1.097233,-1.035711 -2.119273,-1.887402 -2.271202,-1.892546 -0.600313,-0.02029 -8.790068,-8.012863 -11.166485,-10.897702 -3.948978,-4.793841 -4.257355,-5.755638 -1.975794,-6.15729 3.95574,-0.696352 4.997222,-4.338781 1.866069,-6.526037 -1.473196,-1.029091 -1.835316,-1.096652 -5.792332,-1.088198 -3.150034,0.0072 -4.337061,-0.134659 -4.678218,-0.555893 -0.719344,-0.888181 0.01984,-1.252 3.006276,-1.482112 3.857289,-0.297232 4.953524,-0.612345 6.168307,-1.771474 2.229932,-2.127761 1.663638,-4.480767 -1.08496,-4.510033 -0.660933,-0.0072 -1.544861,-0.272085 -1.964282,-0.58892 -0.726522,-0.548813 -0.652071,-0.677334 1.569124,-2.717348 1.282303,-1.177717 4.818012,-4.682463 7.857131,-7.788796 3.039119,-3.10632 6.586795,-6.547462 7.883221,-7.64647 4.169485,-3.534566 11.365808,-10.691199 12.274466,-12.20684 1.82494,-3.043989 0.792717,-6.3030574 -1.79471,-6.2909452 z m -0.392091,1.2957759 c 0.106315,0.00307 0.199335,0.034021 0.289272,0.08331 1.873674,1.027554 1.905673,3.6383913 0.06829,5.5683703 -1.915439,2.011967 -7.681725,7.507007 -10.650098,10.14917 -1.615964,1.438367 -5.236192,4.889971 -8.045117,7.670062 -2.808925,2.780078 -6.300437,6.206115 -7.758917,7.613453 -1.45848,1.407328 -2.651782,2.791138 -2.651782,3.0751 0,0.283961 -0.132589,0.599925 -0.294642,0.702142 -0.671891,0.423785 -4.02678,0.73689 -4.02678,0.375838 0,-0.210232 0.736964,-1.060365 1.638181,-1.889409 C 81.104517,20.652174 92.824092,9.2780053 92.300089,8.741049 c -0.181143,-0.1856188 -1.415742,0.7053905 -2.74309,1.98061 -1.327344,1.27522 -3.261043,3.135917 -4.297639,4.134994 -1.036591,0.999077 -4.359478,4.164445 -7.384473,7.033974 -3.024996,2.869529 -5.588386,5.324372 -5.696421,5.455137 -0.108036,0.130766 -1.787498,1.616177 -3.732138,3.300765 -1.94464,1.684585 -5.287986,4.7989 -7.429746,6.920749 -2.141755,2.121838 -3.94426,3.806753 -4.005294,3.744214 -0.349851,-0.3585 0.701273,-3.376604 1.293665,-3.714344 0.388358,-0.221412 2.12152,-1.771259 3.851833,-3.443857 1.730317,-1.672598 5.533294,-5.128616 8.450254,-7.680285 2.91696,-2.55166 8.783424,-8.215811 13.037161,-12.586614 6.074349,-6.2415126 7.502712,-7.6103207 8.246916,-7.590646 z M 12.58558,8.998747 c 1.405015,-0.0041 3.445839,3.042472 9.110051,9.476356 1.461949,1.660599 2.811963,3.079926 2.999367,3.153727 0.187401,0.07378 0.340681,0.284966 0.340681,0.469396 0,0.575517 11.181907,11.414171 13.848194,13.423207 1.261682,0.950659 1.473212,1.333701 1.473212,2.667023 0,0.856281 -0.107475,1.843451 -0.23863,2.193692 -0.361279,0.964738 -0.883556,0.767407 -1.430243,-0.540953 C 38.417502,39.193343 34.283391,34.528546 29.501353,29.475011 24.71931,24.421484 20.149513,19.471465 19.346165,18.475103 18.387622,17.160687 15.171811,13.307268 13.870812,11.918754 12.00761,9.93011 11.50711,10.060189 11.087,10.41747 c -0.36119,0.307171 1.11681,2.317612 1.36039,2.766031 0.32009,0.589279 9.570809,10.367263 21.194303,22.402398 2.24866,2.328299 3.980751,4.34414 3.848766,4.479383 -0.131984,0.135233 -1.035056,0.123377 -2.006484,-0.02593 -1.279424,-0.196604 -1.83489,-0.492781 -2.014924,-1.074046 C 32.929513,37.223349 28.924594,32.605863 19.015459,22.299544 10.37152,13.309123 8.14449,10.455702 10.01192,9.1153711 10.495,8.7686449 11.58041,8.862643 12.04875,8.8612391 Z m 41.807684,22.558309 c 0.23947,0.02357 0.483485,0.185168 0.860144,0.497709 0.772439,0.640956 0.865671,1.091016 0.855536,4.137351 -0.0062,1.879849 -0.105447,3.89403 -0.220216,4.476238 -0.334855,1.698657 0.511908,2.065652 4.604558,1.994762 2.560643,-0.04437 3.858939,0.101857 4.382036,0.493774 0.436943,0.3274 0.579762,0.661061 0.346051,0.809082 -0.218668,0.138482 -0.473447,0.174521 -0.565497,0.08024 -0.09205,-0.09438 -2.419871,-0.205826 -5.173123,-0.247676 -2.753253,-0.04181 -5.084708,-0.206298 -5.180796,-0.365612 -0.279082,-0.462715 -0.273189,-2.371154 0.01764,-5.883657 0.196232,-2.369945 0.140721,-3.351181 -0.201799,-3.568095 -0.902065,-0.571295 -1.167369,0.435795 -1.249928,4.740422 -0.05473,2.853728 -0.226144,4.279603 -0.502577,4.185308 -0.480248,-0.163803 -0.59801,-0.743849 -0.83482,-4.101967 -0.199807,-2.833428 0.746612,-6.061007 2.028734,-6.916817 0.359637,-0.240062 0.594585,-0.354596 0.834051,-0.331017 z m -11.368285,0.605429 c 0.466679,0 0.51487,0.840808 0.296945,5.132769 -0.143338,2.823027 -0.350214,5.449799 -0.460379,5.837268 -0.221237,0.778146 -1.850103,0.875802 -4.665171,0.279125 -0.864285,-0.18319 -2.49955,-0.344205 -3.633924,-0.356963 -1.48917,-0.0167 -2.062497,-0.178928 -2.062497,-0.583418 0,-0.308114 0.445793,-0.674259 0.991349,-0.814574 1.235455,-0.317747 6.027622,0.158033 6.310259,0.62666 0.114714,0.1902 0.530869,0.345958 0.924594,0.345958 0.64828,0 0.709136,-0.370561 0.647599,-3.925058 -0.07118,-4.111589 0.542604,-6.541767 1.651225,-6.541767 z m 2.116207,1.411354 c 0.894974,-0.2777 1.891966,9.080577 1.023576,10.162544 -0.437202,0.544723 -1.856506,0.693821 -1.915942,0.201276 -0.205613,-1.703975 0.437619,-9.924458 0.806429,-10.306425 0.0286,-0.02961 0.05707,-0.04847 0.08594,-0.05738 z m 21.492015,9.932944 c 0.0372,0.0051 0.07898,0.01599 0.12584,0.033 0.607961,0.220623 0.482133,1.912179 -0.191824,2.578968 -0.263214,0.260414 -1.361955,0.576613 -2.44231,0.702921 -6.229762,0.728365 -6.262291,0.726397 -6.984715,-0.526801 l -0.66678,-1.155819 5.160077,0.21386 5.15931,0.21466 -0.270855,-1.106284 c -0.174856,-0.713916 -0.149065,-0.988235 0.111257,-0.954532 z m -16.131672,0.537806 c 1.376935,-0.0072 2.7025,0.312747 3.720631,1.000143 0.922745,0.623002 1.577551,1.428191 1.718747,2.113487 0.125455,0.608892 0.383342,1.107072 0.572404,1.107072 0.548384,0 0.397288,2.753254 -0.216378,3.944713 -0.71602,1.390184 -3.971964,4.509264 -4.707372,4.509264 -0.308616,0 -0.796434,0.05533 -1.084194,0.123439 -0.287763,0.06804 -1.439226,0.05943 -2.558172,-0.01967 -1.773873,-0.125396 -2.206793,-0.339922 -3.382247,-1.673182 -2.192915,-2.487307 -2.272317,-6.083848 -0.18799,-8.535751 1.392524,-1.638085 3.829688,-2.557766 6.124571,-2.56952 z m -17.063937,0.268909 c 1.024222,-0.01506 2.85727,0.156588 5.348066,0.509504 4.925589,0.69791 4.784194,0.656644 4.298404,1.256457 -0.256284,0.316446 -0.665619,0.55285 -0.909249,0.525233 -3.958748,-0.44886 -8.449458,-1.125364 -8.987361,-1.353959 -0.378124,-0.160688 -0.687499,-0.478814 -0.687499,-0.706856 0,-0.145337 0.323104,-0.221351 0.937639,-0.230379 z m 16.34191,1.22343 c -0.03355,-0.001 -0.07108,0.0051 -0.112793,0.01967 -0.258818,0.08946 -0.498323,0.690388 -0.532501,1.335084 -0.03418,0.644686 -0.07838,1.308196 -0.09821,1.474253 -0.01984,0.166067 -0.04677,0.437793 -0.05985,0.60386 -0.01308,0.166057 -0.380329,0.69043 -0.815637,1.165247 -0.950497,1.036776 -0.445727,1.526862 1.192382,1.158176 0.970812,-0.218503 1.28791,-0.03505 2.380923,1.379116 0.69342,0.897158 1.392645,1.631517 1.554545,1.631517 0.862768,0 0.634071,-0.695389 -0.76576,-2.325 -0.875394,-1.019089 -1.558383,-2.230295 -1.558383,-2.763747 0,-0.609701 -0.229397,-0.949808 -0.640694,-0.949808 -0.51507,0 -0.596333,-0.281656 -0.413572,-1.435733 0.14104,-0.89063 0.104425,-1.285129 -0.130444,-1.29263 z m -3.587118,0.746175 c -0.178703,0.01517 -0.114337,0.343344 0.290042,0.975764 0.61649,0.964144 0.608766,1.006424 -0.187224,1.006424 -0.55093,0 -0.830982,0.254429 -0.830982,0.755602 0,0.415721 -0.263724,0.97971 -0.58545,1.253312 -0.321726,0.273622 -0.488246,0.658355 -0.369835,0.854682 0.414919,0.68795 1.370711,0.347977 1.727956,-0.614866 0.198345,-0.534589 0.72407,-1.090657 1.168595,-1.235235 1.035624,-0.336817 1.022558,-0.929016 -0.04604,-2.094621 -0.567093,-0.618566 -0.988357,-0.916269 -1.167062,-0.901062 z m -7.812626,5.665862 c 2.565601,0.0051 2.801881,0.14214 3.319331,0.951386 0.34206,0.534958 0.622278,1.160133 0.622278,1.389344 0,0.2292 -0.397767,0.377837 -0.883927,0.330228 -0.48616,-0.04765 -3.002722,-0.144077 -5.592068,-0.214649 -2.589341,-0.0706 -4.854922,-0.278572 -5.034241,-0.462326 -0.17932,-0.183754 0.281153,-0.701128 1.022808,-1.149527 1.102881,-0.66681 2.067348,-0.819955 5.29589,-0.840521 0.469185,-0.0031 0.883414,-0.0041 1.249929,-0.0041 z m 21.627061,0.139957 c 0.633886,-0.01025 1.451236,-0.002 2.520572,0.01107 3.239817,0.04068 4.689512,0.216023 5.172357,0.626661 0.368951,0.313771 0.731605,0.525541 0.806428,0.470185 0.666202,-0.492821 1.450603,0.677641 1.093403,1.631507 -0.28631,0.764568 -2.314275,1.897208 -3.797359,2.120578 -0.706435,0.106397 -2.875526,0.285673 -4.820166,0.398638 -4.339061,0.252052 -4.888872,0.737086 -4.902268,4.326054 -0.01175,3.139411 -0.714202,5.81164 -1.717212,6.531551 -1.006596,0.722472 -1.224144,0.732105 -1.754041,0.07788 -1.02312,-1.263272 -1.734454,-4.539207 -1.536132,-7.070936 0.181892,-2.322049 1.053032,-4.242395 1.648155,-3.63256 0.112066,0.114841 0.248721,2.459465 0.303851,5.209818 0.08281,4.130998 0.202997,5.000682 0.689801,5.000682 0.491593,0 0.601746,-0.917396 0.664481,-5.535343 0.04136,-3.044593 0.170264,-5.694083 0.286966,-5.887582 0.239407,-0.396948 3.937936,-0.886347 6.316399,-0.835807 3.2993,0.07009 6.87499,-0.48488 6.87499,-1.066975 0,-0.309642 -0.220982,-0.576839 -0.491071,-0.593634 -1.129541,-0.0703 -6.154718,0.08884 -8.249987,0.261049 -1.242409,0.102165 -2.258926,0.08597 -2.258926,-0.03617 0,-0.122199 0.262983,-0.633834 0.584681,-1.136943 0.416876,-0.651972 0.663417,-0.839528 2.565078,-0.869624 z m -12.106428,0.0031 c -1.533159,-0.01219 -2.928754,0.643108 -2.13232,1.470328 0.407907,0.423704 0.651278,0.424072 1.30824,0.0041 0.635544,-0.406734 0.928579,-0.412083 1.382674,-0.02593 0.317008,0.269595 0.491998,0.71491 0.389019,0.989916 -0.10298,0.274995 -0.08159,0.608308 0.04757,0.740662 0.516402,0.529168 0.928544,0.193878 0.693639,-0.564542 -0.143055,-0.461875 -0.07098,-0.805138 0.169573,-0.805138 0.475132,0 0.575566,-1.069485 0.12507,-1.332727 -0.5612,-0.327933 -1.286574,-0.470923 -1.983466,-0.476477 z m -16.110956,3.506765 c 0.685288,8e-4 1.600517,0.03566 2.773015,0.104574 7.278061,0.427987 8.942477,0.568999 9.284306,0.785483 0.179146,0.113457 0.350487,1.887647 0.380579,3.942355 0.03011,2.054719 0.101428,4.883546 0.158832,6.287021 0.0574,1.403464 -0.01846,2.629989 -0.168806,2.725206 -0.15035,0.0952 -0.727126,-0.436338 -1.281388,-1.180976 -0.910842,-1.223707 -1.007462,-1.705543 -1.007462,-5.010898 0,-4.984717 0.167939,-4.834687 -6.390825,-5.700457 -3.818393,-0.504042 -5.394872,-0.98967 -5.394872,-1.661388 0,-0.197403 0.504475,-0.292057 1.646621,-0.29092 z m 14.231074,2.38633 c 0.03292,0.0021 0.06802,0.0061 0.105121,0.01332 1.261482,0.24907 1.4402,2.661069 0.67292,9.086919 -0.112361,0.941016 -0.370338,1.710923 -0.57317,1.710923 -0.461819,0 -0.392059,0.661164 -0.587749,-5.564435 -0.142901,-4.546216 -0.110856,-5.270523 0.382878,-5.24677 z m 14.958477,0.807495 c 0.268085,-0.0031 0.562496,0.0031 0.870881,0.01967 1.854652,0.09981 2.279601,0.260445 2.455353,0.926229 0.677803,2.567666 7.328829,10.056771 13.284999,14.958793 3.824832,3.147886 11.376211,10.018856 12.85838,11.699693 0.43367,0.491797 1.135316,1.553905 1.559149,2.360384 l 0.771135,1.466393 -1.090331,0.960824 C 89.59148,93.032997 87.64288,92.238209 83.571307,87.873595 68.723147,71.956786 59.947997,63.562909 58.156096,63.562909 c -0.282276,0 -0.520496,-0.04529 -0.528667,-0.100628 -0.3859,-2.617559 -0.378938,-3.237764 0.04143,-3.756798 0.42447,-0.524106 0.569591,-0.480699 1.114888,0.333374 0.599393,0.894852 3.00087,3.309782 14.376861,14.45557 13.253519,12.985335 17.06066,16.508403 17.523552,16.21525 0.20315,-0.128654 0.144245,-0.524506 -0.135815,-0.911289 C 89.974091,89.005035 85.379142,84.573168 80.04327,79.665665 75.188667,75.200791 59.607056,59.466937 59.607056,59.030004 c 0,-0.139567 0.56767,-0.22919 1.37193,-0.237449 z m -22.619945,0.342033 c 1.105706,0 1.88949,0.920131 2.116207,2.483033 0.181382,1.250381 0.06277,1.589216 -0.776505,2.214145 -2.364659,1.760674 -4.84165,3.925386 -4.84165,4.230908 0,0.182268 -0.220982,0.332155 -0.491071,0.334174 -0.600454,0.0041 -2.814926,2.265443 -6.859644,7.00566 -4.495186,5.268156 -15.057598,16.659878 -16.088698,17.352193 -1.95258,1.311004 -4.4534,0.250085 -4.4534,-1.88941 0,-1.035065 0.68218,-1.927601 4.22321,-5.523538 2.32276,-2.358795 5.637487,-5.540476 7.366056,-7.070935 1.728569,-1.530448 6.741378,-6.462628 11.139631,-10.959811 4.398257,-4.497193 8.297836,-8.176419 8.665864,-8.176419 z m 0.582379,1.794264 c -0.493553,0.05892 -1.843189,1.265556 -4.686656,4.112972 C 32.303041,66.99632 25.717783,73.553878 19.620857,79.614608 13.523937,85.675322 8.5357,90.792997 8.5357,90.987193 c 0,0.194196 0.27934,0.353039 0.62151,0.353039 0.74028,0 30.008587,-29.356394 30.015934,-30.106278 0.0021,-0.217048 -0.06721,-0.324726 -0.231724,-0.305071 z m 9.875124,6.435615 c -0.0046,0.06415 -0.0054,0.132528 0,0.208368 z m 0.730469,3.804766 c -0.0083,0.0061 -0.01728,0.01117 -0.02608,0.0165 -0.002,0.0051 -0.0041,0.01025 -0.0061,0.01496 0.04537,-0.0072 0.0856,-0.01732 0.121998,-0.03064 -0.0299,-10e-4 -0.05989,0.002 -0.08977,-8.1e-4 z"
     style="fill:#000000;stroke-width:0.39768374"
     id="pathC1" />
</svg>
