<?xml version="1.0" encoding="UTF-8" standalone="no"?>
<svg
   xmlns:dc="http://purl.org/dc/elements/1.1/"
   xmlns:cc="http://creativecommons.org/ns#"
   xmlns:rdf="http://www.w3.org/1999/02/22-rdf-syntax-ns#"
   xmlns:svg="http://www.w3.org/2000/svg"
   xmlns="http://www.w3.org/2000/svg"
   id="svgC10"
   version="1.1"
   viewBox="0 0 100 100"
   height="100"
   width="100">
  <defs
     id="defs2" />
  <metadata
     id="metadata5">
    <rdf:RDF>
      <cc:Work
         rdf:about="">
        <dc:format>image/svg+xml</dc:format>
        <dc:type
           rdf:resource="http://purl.org/dc/dcmitype/StillImage" />
        <dc:title></dc:title>
      </cc:Work>
    </rdf:RDF>
  </metadata>
  <path
     id="pathC10"
     d="m 71.045447,93.758615 c -0.2374,-0.646536 0.02336,-1.198278 0.828138,-1.752451 0.646044,-0.444852 1.524789,-1.233455 1.952768,-1.752451 0.427982,-0.518994 1.074619,-0.943627 1.436979,-0.943627 0.992835,0 0.818933,-0.488712 -1.035556,-2.910152 -1.655439,-2.161543 -3.635086,-5.179148 -3.750722,-5.717297 -0.03187,-0.148284 -0.237406,-0.696068 -0.456766,-1.217295 -0.615069,-1.461484 0.10895,-4.365937 1.369758,-5.494882 1.607383,-1.439273 5.472996,-1.725484 7.66934,-0.567842 2.262375,1.192448 5.586954,4.483335 6.208201,6.145278 l 0.482854,1.291728 1.231806,-1.210188 c 0.6775,-0.665603 1.51065,-1.914156 1.85144,-2.774571 0.66776,-1.68589 1.88819,-2.070049 2.37362,-0.747149 0.18218,0.496484 -0.48189,1.727286 -1.69194,3.13589 -1.0955,1.275255 -2.23488,2.764385 -2.53195,3.309171 -0.49695,0.911307 -0.64126,0.851546 -1.804661,-0.747374 -5.110879,-7.024103 -10.807988,-9.477771 -13.187645,-5.679741 -0.677739,1.081693 -0.702988,1.595733 -0.162513,3.308341 0.351946,1.115211 0.943999,2.345674 1.31567,2.734357 0.371673,0.388682 1.420109,1.790604 2.329857,3.115388 0.909749,1.324782 1.846787,2.408692 2.0823,2.408692 1.177428,0 0.142428,1.965624 -2.278782,4.327749 -2.942021,2.870239 -3.701981,3.182402 -4.232196,1.738426 z M 49.679933,91.804902 c -0.323207,-0.407264 -0.442806,-1.135205 -0.265776,-1.617647 0.362812,-0.988748 0.678807,-1.063537 1.682721,-0.39827 0.544247,0.36066 0.568616,0.714731 0.110762,1.609392 -0.692571,1.353301 -0.761733,1.371705 -1.527707,0.406525 z m -23.90153,-2.777764 c -1.34705,-1.563137 -2.449181,-3.190241 -2.449181,-3.615785 0,-0.425543 0.92811,-1.553701 2.062468,-2.507018 1.134358,-0.953317 2.062469,-2.059879 2.062469,-2.459022 0,-0.399149 0.326162,-0.856615 0.724804,-1.016589 1.034599,-0.415185 1.537835,-3.410188 0.859866,-5.117485 -0.88514,-2.229009 -3.815903,-4.053435 -6.511451,-4.053435 -2.370674,0 -2.70792,0.226698 -7.148915,4.805506 -0.885565,0.913048 -1.837205,1.475698 -2.114755,1.250334 -2.519527,-2.04579 -5.8464795,-5.561929 -5.6220275,-5.941719 0.473941,-0.801954 0.958985,-0.550729 3.2498735,1.683263 1.216489,1.186274 2.325483,2.156863 2.464431,2.156863 0.138949,0 1.756891,-1.334559 3.595427,-2.965686 3.876946,-3.439581 5.62247,-3.752817 9.464327,-1.698378 5.435135,2.906448 5.854807,9.978151 0.840463,14.162222 -1.025465,0.85567 -1.864488,1.824991 -1.864497,2.154053 -8e-6,0.329056 0.809611,1.420967 1.799155,2.42647 1.749299,1.777502 2.213865,2.869376 1.423437,3.345519 -0.212692,0.128124 -1.488844,-1.045975 -2.835894,-2.609113 z M 50.177268,76.616246 c 0.05132,-3.126222 -0.05665,-5.840864 -0.239938,-6.032545 -0.18329,-0.19168 -1.350213,0.695238 -2.59316,1.970931 -2.123397,2.179331 -2.292704,2.255338 -2.802948,1.258308 -0.445656,-0.870834 -0.287665,-1.316992 0.880981,-2.487872 0.783214,-0.784709 1.643356,-1.432139 1.911429,-1.438734 0.268071,-0.0066 0.988878,-0.431227 1.601793,-0.943627 1.014767,-0.848354 1.14292,-1.60648 1.433571,-8.480654 0.175551,-4.15196 0.37016,-7.973418 0.432461,-8.49213 0.102926,-0.856909 -0.664001,-0.963524 -8.390628,-1.166421 -6.262071,-0.164438 -8.844727,-0.04101 -9.796727,0.468175 -0.711047,0.380314 -2.33694,1.244561 -3.613092,1.920549 -1.276152,0.675988 -2.673618,1.544714 -3.105479,1.930503 -0.471301,0.421022 -1.064564,0.520878 -1.484006,0.249783 -0.700606,-0.452815 -0.374993,-1.650654 0.448705,-1.650654 0.241403,0 1.39408,-0.653986 2.561504,-1.453302 1.637674,-1.121288 1.95014,-1.554228 1.367735,-1.895075 -0.850292,-0.497627 -9.913278,-0.26276 -10.422823,0.270106 -0.181052,0.189338 -0.787643,0.08767 -1.347981,-0.225947 -2.066824,-1.156754 -0.01109,-1.69011 6.321352,-1.640059 5.444076,0.04303 6.187376,-0.0542 5.644414,-0.738375 -0.343919,-0.433364 -0.908977,-0.787934 -1.255684,-0.787934 -1.119883,0 -2.591392,-2.106573 -1.944249,-2.783334 0.422507,-0.441845 1.401706,0.121675 3.697771,2.128029 l 3.123086,2.72902 9.207579,0.05739 9.207579,0.05739 0.0079,-2.577095 c 0.0044,-1.417402 0.08675,-5.124889 0.183075,-8.23886 0.158319,-5.117777 0.06095,-5.868997 -1.01342,-7.818626 -0.653714,-1.186272 -1.612799,-2.642154 -2.131303,-3.235292 -0.518504,-0.593138 -1.101654,-1.748003 -1.295887,-2.566368 -0.194234,-0.818365 -0.559475,-1.621289 -0.811647,-1.784275 -0.718134,-0.464143 -0.537138,-1.311121 0.280181,-1.311121 0.406273,0 0.885915,0.485133 1.065871,1.078072 0.269751,0.888811 3.438573,6.178051 4.172482,6.964502 0.114943,0.123173 0.166984,-2.602795 0.115644,-6.057704 -0.09332,-6.279931 0.06654,-7.252929 1.083606,-6.595579 0.350798,0.226727 0.458026,2.527407 0.304094,6.524583 -0.130784,3.395899 -0.06915,6.164089 0.136951,6.151536 0.548817,-0.03342 2.64074,-3.607405 3.008574,-5.140056 0.370642,-1.544335 1.13006,-2.170564 1.792322,-1.477989 0.281832,0.294727 -0.558413,2.364811 -2.104202,5.184074 -2.498082,4.55609 -2.581325,4.847234 -2.844866,9.950107 -0.149318,2.891176 -0.383797,6.521596 -0.521068,8.067599 l -0.249587,2.810915 9.670082,0.0085 c 7.497868,0.0066 9.959639,-0.166309 10.959124,-0.76958 4.078062,-2.461454 7.516071,-3.946115 7.992065,-3.451271 0.624313,0.649039 -1.599941,2.604667 -2.982939,2.622682 -0.506259,0.0066 -1.525045,0.426251 -2.263966,0.932571 l -1.343498,0.920582 1.31055,0.366536 c 0.720801,0.201596 3.187348,0.333289 5.481216,0.292654 3.926295,-0.06955 4.696998,0.194533 4.696998,1.609454 0,0.462608 -9.298178,0.07205 -9.578531,-0.402331 -0.433401,-0.733351 -1.765046,-0.555876 -1.765046,0.235237 0,0.389081 0.696084,1.245609 1.546852,1.903397 1.762247,1.362517 2.03476,2.78134 0.534204,2.78134 -0.584636,0 -1.543772,-0.817399 -2.26927,-1.933932 -2.197716,-3.382252 -2.426385,-3.44695 -12.529894,-3.545138 l -9.195617,-0.08936 -0.438291,8.245839 c -0.486619,9.155088 -0.492268,9.128294 2.885424,13.682287 1.064583,1.435332 1.93561,2.911435 1.93561,3.280226 0,1.631737 -0.799809,1.150013 -2.701364,-1.627012 -1.124188,-1.641761 -2.161754,-2.861854 -2.305704,-2.711316 -0.143949,0.150538 -0.234754,2.204529 -0.201787,4.564422 0.06191,4.4315 -0.217953,6.016335 -1.062394,6.016335 -0.283398,0 -0.449882,-2.390753 -0.395814,-5.684038 z M 64.854041,63.996811 c -0.497705,-0.842158 0.157147,-1.647503 1.339636,-1.647503 0.708993,0 0.983824,0.297507 0.865979,0.937437 -0.197858,1.074409 -1.703779,1.559217 -2.205615,0.710066 z M 37.895405,61.972736 c -1.064977,-0.41724 -0.772782,-2.319506 0.356282,-2.319506 0.550442,0 1.12308,0.206902 1.272527,0.459778 0.403508,0.682771 -0.883168,2.151859 -1.628809,1.859728 z m 55.415102,-10.89172 c -0.79857,-0.304264 -0.82514,-0.479086 -0.20713,-1.362944 0.74678,-1.068019 1.89662,-0.765565 1.89662,0.498886 0,0.993914 -0.57579,1.288392 -1.68949,0.864058 z M 5.1252195,49.217714 c -0.360058,-0.981239 0.05004,-1.427226 1.312381,-1.427226 0.656272,0 0.925713,0.311651 0.810473,0.937435 -0.217634,1.181803 -1.740036,1.533056 -2.122854,0.489791 z M 39.403448,39.341631 c 0.218575,-1.186914 2.230181,-1.348004 2.230181,-0.178594 0,0.444853 -0.542703,0.889191 -1.206011,0.987417 -0.935233,0.138495 -1.165183,-0.04311 -1.02417,-0.808823 z m 24.143906,-0.390509 c 0,-0.914262 1.394447,-1.56063 1.818577,-0.842964 0.167616,0.283615 0.161353,0.758312 -0.01392,1.054879 -0.476454,0.806205 -1.80466,0.650237 -1.80466,-0.211915 z M 22.284721,30.335134 c -1.283449,-0.985252 -3.245356,-3.041736 -4.359793,-4.569965 -1.114438,-1.528229 -2.35155,-2.778597 -2.749138,-2.778597 -0.397589,0 -1.960427,1.357719 -3.472972,3.017153 -2.5492855,2.796856 -3.8421095,3.335452 -3.8421095,1.600636 0,-0.885345 6.0742955,-6.774653 6.9874495,-6.774653 0.367843,0 2.131233,1.720804 3.918646,3.824009 5.01612,5.902345 7.473245,6.720177 10.543576,3.509325 1.534519,-1.604751 1.7531,-2.175557 1.7531,-4.578094 0,-2.368504 -0.318069,-3.230611 -2.320279,-6.288983 -1.276152,-1.949325 -2.320277,-4.086258 -2.320277,-4.748746 0,-1.217279 2.756423,-4.2766017 5.088059,-5.6471817 0.940175,-0.55266 1.355156,-0.57067 1.804659,-0.0784 0.43852,0.48029 0.340855,0.79311 -0.392607,1.2575 -0.536988,0.34 -1.922148,1.51271 -3.078134,2.6060227 l -2.101791,1.987846 1.221171,2.32588 c 0.671644,1.27923 1.506759,2.689848 1.855814,3.134701 3.15128,4.016151 2.32365,9.867769 -1.811284,12.806369 -2.328588,1.654873 -3.973123,1.506937 -6.72409,-0.604867 z M 73.68382,28.433203 c -0.612244,-0.43289 -1.735511,-1.496775 -2.496154,-2.364193 -1.214104,-1.384536 -1.370716,-1.974459 -1.282536,-4.830934 0.09868,-3.196394 0.148106,-3.298444 2.800935,-5.783227 1.485268,-1.391181 2.700483,-2.767557 2.700483,-3.058613 0,-0.291059 -1.064072,-1.558974 -2.364605,-2.8175987 -1.446654,-1.40003 -2.253591,-2.59091 -2.078649,-3.06768 0.327856,-0.89349 1.349553,-1.05924 1.349553,-0.21895 0,0.30818 1.160137,1.75456 2.578084,3.21417 1.417947,1.4596187 2.578086,2.9425227 2.578086,3.2953437 0,0.352822 -1.392166,2.00553 -3.093704,3.672686 -2.789631,2.733266 -3.092098,3.242021 -3.077408,5.176191 0.0461,6.067247 6.824403,7.46535 12.526986,2.583828 0.801624,-0.686209 1.650897,-1.247654 1.88726,-1.247654 0.236365,0 1.603556,0.970297 3.038196,2.156219 1.72404,1.425148 2.50773,2.430669 2.31141,2.965685 -0.44132,1.202686 -0.95582,1.007178 -2.83635,-1.077788 -0.93621,-1.03799 -1.99718,-1.887253 -2.357705,-1.887253 -0.360529,0 -1.719411,0.849263 -3.019737,1.887253 -1.300329,1.037991 -2.868523,1.929489 -3.48488,1.981106 -3.28096,0.274776 -4.672894,0.132967 -5.679265,-0.578591 z M 50.768712,6.7969173 c -0.451744,-0.75647 -0.414348,-1.03536 0.170291,-1.26998 1.111401,-0.446 2.368728,0.22227 2.192417,1.16527 -0.22084,1.18118 -1.681213,1.2459 -2.362708,0.10471 z"
     style="fill:#000000;stroke-width:0.52728438" />
</svg>
