<?xml version="1.0" encoding="UTF-8" standalone="no"?>
<svg
   xmlns:dc="http://purl.org/dc/elements/1.1/"
   xmlns:cc="http://creativecommons.org/ns#"
   xmlns:rdf="http://www.w3.org/1999/02/22-rdf-syntax-ns#"
   xmlns:svg="http://www.w3.org/2000/svg"
   xmlns="http://www.w3.org/2000/svg"
   id="svgC11"
   version="1.1"
   viewBox="0 0 100 100"
   height="100"
   width="100">
  <defs
     id="defs2" />
  <metadata
     id="metadata5">
    <rdf:RDF>
      <cc:Work
         rdf:about="">
        <dc:format>image/svg+xml</dc:format>
        <dc:type
           rdf:resource="http://purl.org/dc/dcmitype/StillImage" />
        <dc:title></dc:title>
      </cc:Work>
    </rdf:RDF>
  </metadata>
  <path
     id="pathC11"
     d="m 5.00003,94.150297 c 0,-0.24933 0.41392,-0.61217 0.91983,-0.80631 0.70799,-0.27167 0.76056,-0.45141 0.22825,-0.78039 -0.47908,-0.29609 -0.57959,-1.02446 -0.32708,-2.37045 0.45288,-2.41407 3.63944,-5.63024 7.2573,-7.32476 1.43287,-0.67112 2.60522,-1.35941 2.60522,-1.52954 0,-0.17013 -1.63313,-0.30932 -3.62918,-0.30932 -2.57472,0 -4.04918,-0.27519 -5.07468,-0.94712 -1.7436,-1.14246 -1.98947,-2.31957 -0.29508,-1.41276 1.3944,0.74626 11.52387,0.20803 12.57993,-0.66843 1.26853,-1.05278 0.72388,-1.24648 -3.00649,-1.06926 -2.83739,0.1348 -4.27153,-0.0764 -6.14423,-0.90477 -2.48889,-1.10095 -3.49146,-2.61383 -1.26357,-1.90673 0.64863,0.20587 2.33691,0.37431 3.75172,0.37431 1.41482,0 2.71761,0.23497 2.8951,0.52216 0.19855,0.32125 -0.62838,0.44651 -2.1492,0.32556 -2.73157,-0.21725 -3.33974,0.33687 -0.94662,0.86248 2.3162,0.50873 9.42609,-0.45538 9.98113,-1.35345 0.16552,-0.26783 -0.012,-0.37526 -0.39452,-0.23873 -1.42384,0.5082 -5.77013,0.66815 -5.77013,0.21234 0,-0.39906 3.69625,-0.74587 6.3818,-0.59877 0.42512,0.0233 1.06651,-0.35913 1.42531,-0.84982 0.3588,-0.49069 0.795526,-0.74898 0.970517,-0.574 0.510053,0.51006 -10.255467,10.24834 -12.749877,11.53329 -3.04605,1.56912 -5.64293,4.58943 -5.64293,6.56302 0,2.2403 0.78396,2.41783 3.54131,0.80191 2.00159,-1.17301 2.73937,-2.06995 4.09839,-4.98253 0.91156,-1.9536 2.26981,-4.02134 3.01833,-4.59497 0.74851,-0.57363 4.24549,-3.81875 7.771058,-7.21138 3.525564,-3.39263 8.770903,-8.39192 11.656315,-11.10954 2.885407,-2.71762 4.941783,-4.94113 4.569729,-4.94113 -0.372059,0 -1.35067,0.64592 -2.174685,1.43538 -0.824021,0.78946 -1.498215,1.14157 -1.498215,0.78247 0,-0.48489 -0.271821,-0.50744 -1.056259,-0.0876 -0.580944,0.31091 -2.924642,0.60929 -5.208219,0.66306 -3.450971,0.0813 -4.58694,-0.12047 -6.728344,-1.19486 -2.5178,-1.26323 -4.27355,-2.77067 -2.18529,-1.87623 1.87411,0.80272 7.907433,0.94583 11.698941,0.2775 4.592026,-0.80945 4.828537,-0.9405 3.782802,-2.09602 -0.458874,-0.50705 -0.888688,-1.57892 -0.95515,-2.38193 -0.09969,-1.20452 -0.310319,-1.39927 -1.203644,-1.11286 -3.52199,1.12917 -6.966139,0.85547 -11.766329,-0.93504 -2.64418,-0.9863 -4.77231,-2.02473 -4.72919,-2.30761 0.0431,-0.28288 2.08635,-1.29945 4.5405,-2.25904 3.964906,-1.55031 4.878738,-1.71423 8.20133,-1.47111 2.056579,0.15048 4.400278,0.42277 5.208219,0.60509 1.231565,0.27791 1.468985,0.155 1.468985,-0.76049 0,-0.76075 0.648143,-1.37795 2.136706,-2.0347 1.574741,-0.69477 2.136705,-1.25686 2.136705,-2.13719 0,-1.33412 1.291237,-2.87333 2.410422,-2.87333 1.334052,0 1.397251,-1.0276 0.221379,-3.59953 -1.742547,-3.8114 -1.602176,-8.43367 0.373063,-12.28474 0.844597,-1.64668 1.776014,-3.07092 2.069811,-3.16496 0.586504,-0.18774 4.138621,5.07235 5.041534,7.46567 0.974119,2.58206 0.69084,7.92313 -0.501036,9.44686 -1.405134,1.79636 -1.334885,2.1367 0.441059,2.1367 1.502793,0 3.368478,1.53468 3.977423,3.27175 0.428116,1.22125 3.536082,1.57181 5.416853,0.61099 0.855579,-0.43708 2.958898,-0.92194 4.674042,-1.07747 3.441062,-0.31202 4.29044,-1.21372 1.11528,-1.18397 -2.260682,0.0212 -8.159158,1.19858 -9.187026,1.83384 -0.505031,0.31213 -0.57847,0.11013 -0.290186,-0.79817 0.311489,-0.98142 0.219467,-1.15216 -0.47695,-0.88492 -1.285206,0.49318 -1.09388,0.18421 1.540885,-2.48836 1.322087,-1.34106 2.403794,-2.83331 2.403794,-3.31611 0,-0.4828 0.388383,-2.21381 0.863074,-3.84669 0.47469,-1.63288 1.032878,-4.67462 1.240421,-6.75942 0.372059,-3.7374 0.38762,-3.76808 1.109768,-2.18802 0.412539,0.90263 0.739353,3.40238 0.748295,5.72362 l 0.01586,4.12109 1.18311,-1.11148 c 2.010217,-1.88848 3.556049,-8.04652 3.231505,-12.8731 -0.153106,-2.27692 -0.0806,-4.13986 0.161113,-4.13986 0.906395,0 2.37983,5.14112 2.340103,8.16511 l -0.0406,3.09043 1.498973,-1.4361 c 0.824432,-0.78986 1.402288,-1.59255 1.284112,-1.78375 -0.11817,-0.19121 0.01709,-1.3799 0.300544,-2.64153 0.283471,-1.26164 0.540554,-4.23664 0.571291,-6.61113 0.04701,-3.6326403 0.163628,-4.1699003 0.735304,-3.3880903 1.076472,1.4721703 1.863463,6.9716303 1.285864,8.9856003 -0.276901,0.96548 -0.503456,1.83388 -0.503456,1.92977 0,0.79314 4.779452,-4.15857 4.801802,-4.97487 0.05827,-2.12844 1.998978,-5.3638103 4.060632,-6.7695103 2.044789,-1.39422 7.358951,-3.27278 7.854977,-2.77675 0.456988,0.45699 -0.732821,4.6784203 -1.809731,6.4209003 -1.196352,1.93573 -4.845412,3.92659 -7.19723,3.92668 -1.16413,4e-5 -2.66696,0.93962 -5.840833,3.65173 -5.942391,5.07785 -21.099964,19.85171 -21.099964,20.56583 0,0.32347 1.434343,-0.83124 3.187435,-2.56604 l 3.18743,-3.15417 4.691671,-0.11747 4.691665,-0.11746 -3.591882,0.43846 c -5.228592,0.63825 -6.699366,1.03522 -7.030257,1.89749 -0.360873,0.94042 -0.511863,0.94195 3.229839,-0.0326 1.691944,-0.4407 4.24184,-0.80127 5.66644,-0.80127 1.757852,0 2.472724,-0.19004 2.224668,-0.5914 -0.251597,-0.40709 0.02991,-0.46634 0.903282,-0.1901 1.685609,0.53315 3.672585,1.85622 3.672585,2.44547 0,0.67794 -0.645451,0.55661 -1.83817,-0.34551 -1.3362,-1.01065 -5.460276,-0.99084 -9.913709,0.0476 -1.90968,0.44531 -3.873035,0.87501 -4.363013,0.95488 -0.489973,0.0799 -1.69187,0.80613 -2.670882,1.6139 l -1.780014,1.46868 1.869617,-0.32532 c 6.357003,-1.10615 11.664172,-0.69097 14.119744,1.10458 1.517781,1.10983 0.814298,1.34525 -1.58746,0.53124 -2.306883,-0.78186 -6.620304,-0.43142 -10.077583,0.81875 -2.122764,0.7676 -2.221768,0.9439 -1.252804,2.23086 0.550848,0.73164 1.041708,0.79848 2.804425,0.38193 4.808591,-1.13632 11.439573,-0.0284 14.472931,2.41818 1.533038,1.23649 1.539063,1.2628 0.484006,2.11399 -3.623019,2.92297 -9.230535,4.01412 -13.800888,2.68548 -1.707687,-0.49643 -3.171565,-0.82028 -3.253059,-0.71964 -0.0815,0.10062 -0.404436,0.94323 -0.717634,1.87246 -0.528103,1.56681 -0.465978,1.73077 0.855505,2.25777 3.999709,1.59504 6.620827,1.74678 14.512283,0.84019 l 2.403793,-0.27615 -1.252462,1.07597 c -1.49338,1.28295 -4.726873,2.23997 -8.266688,2.44669 -2.749742,0.16059 -8.411193,-1.44762 -9.433799,-2.67978 -0.346232,-0.41719 0.694183,-0.18485 2.503011,0.55894 2.243017,0.92234 4.125321,1.27413 6.834764,1.27739 5.846213,0.007 5.849658,-0.84429 0.0048,-1.19299 -3.591898,-0.2143 -5.798126,-0.63258 -7.327398,-1.3892 -1.935801,-0.95776 -2.383147,-1.00109 -3.879744,-0.37577 -1.200588,0.50164 -1.839671,1.23041 -2.201565,2.51054 -0.391049,1.38326 -0.914771,1.92374 -2.246708,2.31857 -1.009545,0.29926 -1.632485,0.78665 -1.487697,1.16396 1.134938,2.9576 0.915819,4.38539 -1.351626,8.80734 -2.708012,5.28115 -2.52761,4.99838 -2.931357,4.59463 -0.176716,-0.17672 0.6946,-2.31513 1.936261,-4.75203 2.078144,-4.07858 2.220427,-4.61853 1.790287,-6.79385 -0.645734,-3.26565 -1.507681,-3.65263 -4.720084,-2.11913 -3.438727,1.64155 -4.0696,3.56524 -2.386972,7.27846 2.674717,5.90255 2.802738,6.26692 1.954477,5.56293 -0.431535,-0.35814 -1.446122,-2.12522 -2.254641,-3.92684 -1.194888,-2.66256 -1.412677,-3.75998 -1.16358,-5.86318 0.264583,-2.23399 0.157758,-2.66708 -0.781896,-3.16997 -1.251826,-0.66996 -1.13052,-0.74928 -2.264346,1.48073 -0.601718,1.1835 -0.86918,3.11489 -0.86918,6.27657 0,2.51187 -0.19976,4.56703 -0.443911,4.56703 -1.108437,0 -1.959882,-3.052 -1.959882,-7.02516 0,-2.3059 -0.02334,-4.19254 -0.05182,-4.19254 -0.02847,0 -0.56909,0.44863 -1.201325,0.99696 -1.840767,1.59649 -3.416282,7.22224 -3.124163,11.15555 0.267895,3.60713 -0.155044,4.12872 -1.581973,1.95095 -1.013151,-1.54626 -1.18577,-3.81543 -0.503974,-6.62499 0.443451,-1.82738 0.43015,-1.84853 -0.588823,-0.9358 -1.0669,0.95566 -2.306974,7.00553 -2.299549,11.21869 0.0043,2.44237 -0.752467,2.59938 -1.546745,0.32092 -0.678468,-1.94625 -0.788941,-6.3304 -0.159515,-6.3304 0.234802,0 0.337968,0.78123 0.229263,1.73607 -0.108711,0.95484 0.0445,2.33702 0.340489,3.07151 0.470812,1.16836 0.542376,1.00084 0.572001,-1.33896 0.01864,-1.47093 0.257457,-3.45406 0.530747,-4.40696 0.27329,-0.9529 0.322071,-1.73255 0.108411,-1.73255 -0.632448,0 -4.597288,4.25515 -4.622128,4.96056 -0.0125,0.35657 -0.45216,1.60981 -0.9769,2.785 -0.52475,1.17519 -1.09296,3.75927 -1.26271,5.7424 -0.16974,1.98313 -0.50568,3.60569 -0.74653,3.60569 -0.97309,0 -1.62384,-2.41095 -1.45529,-5.39167 0.0982,-1.7364 0.0432,-3.15666 -0.12216,-3.15613 -0.76491,0.003 -3.19409,3.23724 -4.56893,6.08411 -0.98003,2.02934 -2.18601,3.58543 -3.39931,4.38617 C 9.18859,93.239217 5,94.794627 5,94.150327 Z m 17.31633,-13.83813 c 1.01265,-1.95613 0.79426,-2.7521 -0.46773,-1.70474 -0.98609,0.81838 -1.88468,3.89805 -1.88869,6.47293 -0.005,3.07326 0.76932,2.98291 1.11513,-0.13015 0.17427,-1.56878 0.73285,-3.6559 1.24129,-4.63804 z m -6.14315,-0.41944 c 0.48551,-0.43331 -0.35769,-0.50951 -3.37187,-0.30472 -2.11771,0.14389 -2.90509,0.37095 -2.40379,0.69322 0.66244,0.42585 5.20562,0.12026 5.77566,-0.3885 z m 16.62743,-5.94104 c 0.01287,-1.39553 0.345137,-3.43876 0.738317,-4.5405 0.729156,-2.04318 0.403116,-2.60549 -0.723579,-1.2479 -0.883277,1.06428 -1.450048,8.32574 -0.649836,8.32574 0.37028,0 0.620905,-1.00129 0.635098,-2.53734 z m 6.82711,-4.84421 c 0.06557,-3.5507 1.096482,-7.14165 2.256008,-7.85828 0.316761,-0.19577 1.000373,0.0282 1.519138,0.49765 1.342134,1.21461 3.643938,1.0557 5.044997,-0.3483 1.080569,-1.08284 1.344244,-1.13215 2.661773,-0.49776 2.387357,1.14951 4.956724,0.0214 5.536679,-2.43084 0.353641,-1.49535 0.802231,-2.03365 1.9507,-2.3408 0.820292,-0.21938 1.836647,-0.68536 2.258556,-1.03552 0.8688,-0.72104 1.046766,-4.54336 0.234899,-5.04512 -0.334945,-0.20701 -0.229525,-0.91428 0.284406,-1.90811 0.776382,-1.50136 0.751164,-1.64463 -0.511859,-2.90765 -0.83356,-0.83357 -1.93453,-1.32848 -2.955287,-1.32848 -1.214242,0 -1.626808,-0.2454 -1.626808,-0.96763 0,-2.32107 -3.31006,-4.06795 -5.310177,-2.80243 -0.498621,0.31549 -1.303588,0.21089 -2.285735,-0.29699 -2.216634,-1.14627 -4.327501,-0.049 -4.690143,2.43806 -0.222538,1.52618 -0.554619,1.90593 -1.990832,2.27661 -2.093619,0.54035 -3.028673,2.11296 -2.648671,4.45463 0.210867,1.29942 0.01928,1.99031 -0.743258,2.68041 -1.568705,1.41965 -1.308769,3.63745 0.616157,5.25718 0.903933,0.76061 1.98564,1.38292 2.403793,1.38292 1.174691,0 0.901716,1.97512 -0.317023,2.29383 -1.770415,0.46297 -3.383093,4.82108 -3.034356,8.20005 0.260181,2.52089 0.663244,3.92888 1.124718,3.92888 0.08529,0 0.185333,-1.63904 0.222325,-3.64231 z m 4.595123,-9.94484 c -0.236758,-0.94331 0.13559,-1.9728 1.354014,-3.74373 0.924312,-1.34344 1.538471,-2.67254 1.364789,-2.95356 -0.173677,-0.28102 -1.406925,0.32195 -2.740549,1.33993 -2.72735,2.08184 -3.021296,2.16316 -3.917126,1.08375 -1.237184,-1.49071 0.676097,-3.49556 3.353949,-3.51447 0.637016,-0.004 1.518781,-0.24488 1.959476,-0.53418 0.712234,-0.46755 0.712234,-0.58444 0,-1.05199 -0.440695,-0.2893 -1.432874,-0.52968 -2.204844,-0.53418 -1.663399,-0.01 -2.754529,-1.12779 -2.287723,-2.34427 0.45498,-1.18565 2.502216,-1.09345 4.032754,0.18161 1.511083,1.25887 0.254668,1.50304 -1.378357,0.26788 -1.300174,-0.98341 -1.901064,-0.9961 -1.901064,-0.0402 0,1.51745 3.368826,1.89339 4.861528,0.54251 0.895167,-0.81012 0.890958,-0.92942 -0.08948,-2.53734 -1.970181,-3.23109 -0.759417,-6.52783 1.609927,-4.38361 1.277061,1.15573 1.814106,3.27564 1.127983,4.45262 -0.439873,0.75456 -0.536019,0.63161 -0.549417,-0.7026 -0.0089,-0.88947 -0.410963,-2.18075 -0.893393,-2.86952 -1.39427,-1.9906 -1.995496,-0.18633 -0.847915,2.54458 0.76274,1.81511 1.1799,2.19932 2.392784,2.20381 1.351654,0.005 1.468985,-0.1605 1.468985,-2.07209 0,-1.30105 0.399297,-2.54886 1.068353,-3.33861 l 1.068353,-1.26107 1.01885,1.19995 c 1.278118,1.50528 0.932389,2.95216 -1.117572,4.67708 -1.499635,1.26187 -1.62146,2.76713 -0.179152,2.21367 0.375329,-0.14403 1.61301,-0.0477 2.750394,0.21418 2.422783,0.55773 3.937595,0.2195 3.937595,-0.87917 0,-1.23429 -1.35606,-1.43757 -3.206484,-0.48068 -0.935214,0.48362 -1.82153,0.75816 -1.969599,0.61009 -0.487217,-0.48721 4.026824,-2.47796 4.878093,-2.1513 1.063999,0.40829 1.07792,2.54114 0.02233,3.41722 -0.557964,0.46307 -1.720988,0.56503 -3.739235,0.32782 -2.670913,-0.3139 -2.929396,-0.25185 -2.929396,0.70324 0,0.91189 0.432304,1.06813 3.338602,1.20657 3.023636,0.14403 3.355071,0.27519 3.51315,1.39033 0.197426,1.39266 -0.731176,2.77503 -1.864116,2.77503 -0.760042,0 -3.883696,-1.98611 -4.533094,-2.88227 -0.190696,-0.26316 -0.769001,-0.31643 -1.285116,-0.11837 -0.800314,0.3071 -0.670691,0.55755 0.880899,1.70203 2.937051,2.16641 3.609777,5.30338 1.263589,5.89224 -1.943985,0.48791 -3.357266,-0.989 -3.556263,-3.71637 -0.142337,-1.9508 -0.316996,-2.21271 -1.475609,-2.21271 -2.580611,0 -4.964218,5.58476 -2.577699,6.03952 0.974994,0.18579 1.432132,-0.9396 1.639136,-4.0353 0.173933,-2.60103 0.917287,-2.0917 0.917287,0.62851 0,2.67845 -1.001757,4.04448 -2.96595,4.04448 -0.918361,0 -1.380664,-0.37276 -1.613661,-1.3011 z m 10.039967,-1.39168 c -0.08168,-0.72245 -0.862909,-2.03006 -1.736073,-2.90581 l -1.587578,-1.59225 v 1.87403 c 0,1.03072 0.383453,2.4215 0.852124,3.09062 1.115312,1.59233 2.671079,1.29862 2.471527,-0.46659 z m -10.535031,-4.50205 c 1.179189,-0.96657 1.364767,-1.31865 0.702495,-1.33279 -1.593789,-0.034 -3.640464,0.99885 -3.640464,1.83719 0,1.18529 1.108843,0.99492 2.937969,-0.5044 z m 14.689849,0.51762 c 1.038786,-1.25166 -0.272713,-2.40379 -2.736286,-2.40379 -2.504246,0 -2.574485,0.43589 -0.314652,1.95274 2.120878,1.42357 2.230384,1.43976 3.050938,0.45105 z m -7.164811,-2.13281 c 1.827161,-2.7886 -0.569913,-5.54938 -3.277786,-3.77511 -1.658254,1.08653 -1.717398,3.15769 -0.122075,4.2751 1.646865,1.15351 2.387843,1.04454 3.399861,-0.49999 z m -3.315729,-1.04667 c -0.41061,-1.07003 0.198751,-1.8952 1.399542,-1.8952 1.335473,0 1.849741,0.92811 1.04893,1.89302 -0.827984,0.99766 -2.066049,0.99876 -2.448472,0.002 z m 2.016169,-0.95806 c -0.611734,-0.61173 -1.841172,-0.0195 -1.409499,0.67898 0.161097,0.26066 0.661935,0.33232 1.112972,0.15924 0.535597,-0.20552 0.638458,-0.49629 0.296527,-0.83822 z m 3.32826,-4.92466 c 1.086595,-1.65835 1.100996,-2.89885 0.03841,-3.30661 -1.121006,-0.43017 -1.354596,-0.0935 -1.694738,2.44243 -0.334619,2.49474 0.352914,2.85345 1.656336,0.86418 z m -16.868118,15.66231 c 3.051605,-0.74412 4.207237,-1.50388 3.217713,-2.11544 -0.371301,-0.22948 -0.923532,-0.22529 -1.227185,0.009 -1.076509,0.83167 -5.615774,1.64918 -9.201908,1.65725 -2.544901,0.006 -3.395753,0.16359 -2.83497,0.526 1.100334,0.71109 6.999697,0.66582 10.04635,-0.0771 z m -1.450817,-7.98686 c 2.262434,-0.56416 3.84952,-2.11785 3.389076,-3.31775 -0.460001,-1.19874 -3.710341,-2.15009 -7.175233,-2.10014 -2.9147,0.042 -9.676455,2.17553 -10.003385,3.15632 -0.0891,0.26722 0.86285,0.79438 2.1154,1.17148 7.694443,2.31654 7.011488,2.25276 11.674142,1.09009 z M 23.16202,50.244567 c 0,-0.19891 0.90142,-0.34857 2.003163,-0.33257 1.101738,0.016 3.63078,-0.0421 5.620095,-0.12913 1.989315,-0.087 3.772129,-0.003 3.96181,0.18664 0.390183,0.39019 0.164478,0.40856 -6.643936,0.54078 -2.717622,0.0528 -4.941132,-0.0668 -4.941132,-0.26572 z m 12.286056,-0.49589 c 0,-0.31113 0.24038,-0.41714 0.534177,-0.23556 0.293797,0.18158 0.534176,0.43614 0.534176,0.5657 0,0.12956 -0.240379,0.23556 -0.534176,0.23556 -0.293797,0 -0.534177,-0.25456 -0.534177,-0.5657 z m 41.567159,1.68541 c 1.267863,-0.64739 2.216287,-1.46465 2.107614,-1.81611 -0.108672,-0.35147 -1.146011,-1.1198 -2.3052,-1.70739 -1.717281,-0.87049 -3.166271,-1.06835 -7.823845,-1.06835 -6.468779,0 -7.147258,0.31493 -6.62908,3.07706 0.310084,1.6529 0.575756,1.8751 2.871358,2.40151 3.85351,0.88367 9.082968,0.49 11.779153,-0.88672 z m -14.057079,-1.65388 c -0.181577,-0.2938 -0.07558,-0.53418 0.235561,-0.53418 0.311137,0 0.565704,0.24038 0.565704,0.53418 0,0.29379 -0.106002,0.53417 -0.235561,0.53417 -0.129559,0 -0.384127,-0.24038 -0.565704,-0.53417 z m 2.670882,0 c -1.03002,-0.44262 -1.026356,-0.46044 0.102017,-0.49663 0.643704,-0.0207 1.318934,0.20283 1.500512,0.49663 0.390483,0.63181 -0.13222,0.63181 -1.602529,0 z m 2.403793,0 c 0,-0.2938 0.360569,-0.53418 0.801265,-0.53418 0.440695,0 0.801264,0.24038 0.801264,0.53418 0,0.29379 -0.360569,0.53417 -0.801264,0.53417 -0.440696,0 -0.801265,-0.24038 -0.801265,-0.53417 z m 2.670882,-0.11368 c 0,-0.23127 0.480758,-0.4205 1.068352,-0.4205 0.587594,0 1.068353,0.22544 1.068353,0.50098 0,0.27554 -0.480759,0.46476 -1.068353,0.4205 -0.587594,-0.0443 -1.068352,-0.2697 -1.068352,-0.50098 z m 2.937969,0.11368 c -0.390483,-0.63182 0.13222,-0.63182 1.602529,0 1.03002,0.44261 1.026356,0.46043 -0.102017,0.49663 -0.643704,0.0207 -1.318934,-0.20284 -1.500512,-0.49663 z m -22.702493,-10.652 c 0,-0.27646 -0.240379,-0.65122 -0.534176,-0.83279 -0.293797,-0.18158 -0.530496,-0.61643 -0.525998,-0.96634 0.0057,-0.4429 0.142978,-0.42364 0.451854,0.0634 0.337755,0.53257 0.637903,0.40317 1.257211,-0.54201 1.270031,-1.93831 1.560495,-4.17707 0.956085,-7.36896 -0.569582,-3.00795 -3.554254,-8.15729 -4.542945,-7.83779 -0.855826,0.27657 -2.903623,5.79118 -2.92156,7.86761 -0.02345,2.7145 2.019293,8.38568 3.35834,9.32358 1.286184,0.90088 2.501189,1.04335 2.501189,0.2933 z m -1.615498,-4.97266 c -0.0072,-0.66104 -0.156413,-2.52398 -0.33174,-4.13986 -0.34722,-3.20012 0.216133,-3.50676 0.62676,-0.34116 0.138667,1.06903 0.361311,2.78501 0.494765,3.8133 0.133458,1.02829 0.01325,1.86962 -0.267089,1.86962 -0.280351,0 -0.515565,-0.54086 -0.522696,-1.2019 z m -0.930701,-8.65389 c -0.05959,-0.71993 0.128368,-1.45526 0.417667,-1.63405 0.30143,-0.1863 0.526003,0.37255 0.526003,1.30896 0,1.93995 -0.787568,2.21126 -0.94367,0.32509 z m 15.775011,8.45517 c 1.043557,-1.04356 1.973066,-7.64911 1.186972,-8.4352 -0.346814,-0.34682 -0.5272,-0.05 -0.5272,0.86748 0,0.76708 -0.477655,2.91847 -1.061461,4.78088 -0.583802,1.86241 -1.06456,3.44629 -1.068353,3.51974 -0.02024,0.39197 0.708462,0.0287 1.470042,-0.7329 z m 7.343007,-7.15287 c 0.771671,-0.85268 0.945983,-1.81676 0.84285,-4.66155 -0.172592,-4.76075 -1.077791,-6.35974 -1.099725,-1.9426 -0.0089,1.79929 -0.366151,4.26318 -0.793812,5.4753 -0.847647,2.40249 -0.469557,2.80871 1.050687,1.12885 z m 6.337313,-7.0044 c 0.514518,-2.57258 0.39544,-6.34334 -0.200316,-6.34334 -0.293797,0 -0.534177,1.18625 -0.534177,2.63611 0,1.44986 -0.234428,3.2527 -0.520955,4.00632 -0.399788,1.05152 -0.353197,1.37021 0.200316,1.37021 0.396701,0 0.871509,-0.75118 1.055132,-1.6693 z m 12.283769,-5.76648 c 1.88389,-1.16431 4.273148,-5.2986003 3.970415,-6.8702703 -0.144955,-0.75255 -0.256565,-0.74724 -1.054005,0.0502 -0.56909,0.5691 -0.9639,0.67586 -1.090858,0.29498 -0.224583,-0.67375 -3.686078,0.92301 -5.571576,2.5701203 -1.306136,1.141 -2.94884,4.71323 -2.416026,5.2539 0.627273,0.63653 4.274297,-0.13225 6.16205,-1.29895 z m -4.471441,0.18625 c 0,-0.16789 0.331953,-0.6372 0.737671,-1.04292 0.912715,-0.91271 1.613971,-0.35573 0.794817,0.63129 -0.601066,0.72424 -1.532488,0.97442 -1.532488,0.41163 z m 2.145936,-2.20716 c 0.01,-0.45985 1.952778,-2.3738103 3.101716,-3.0556603 0.567509,-0.3368 0.583785,-0.22403 0.08242,0.57103 -0.743205,1.1785903 -3.197345,3.0935903 -3.18414,2.4846303 z m 2.251815,79.66157 c -3.493145,-0.8084 -5.062608,-1.81672 -7.008164,-4.50248 -0.836472,-1.15472 -1.685737,-1.93461 -1.88725,-1.7331 -0.201512,0.20152 -0.201694,-0.0628 -4.06e-4,-0.58734 0.256715,-0.669 -0.164852,-1.50142 -1.411993,-2.78815 -0.97789,-1.00892 -1.971207,-1.83441 -2.207372,-1.83441 -0.236164,0 -0.430284,1.38218 -0.431384,3.07152 -0.0021,3.35157 -1.210871,6.01164 -3.220229,7.08702 -1.378618,0.73781 -1.984214,0.31378 -1.090243,-0.76339 0.35605,-0.42901 0.871332,-1.45643 1.145066,-2.28316 0.466042,-1.4075 0.48141,-1.38419 0.241543,0.36648 l -0.256164,1.86962 1.321269,-1.60253 c 1.130066,-1.37062 1.321654,-2.151 1.323924,-5.39252 0.0021,-3.00022 -0.201598,-3.97483 -0.977532,-4.67704 -0.944226,-0.85452 -0.974701,-0.72526 -0.830607,3.5229 l 0.149586,4.40995 -0.508637,-3.73923 c -0.613486,-4.51003 -1.978606,-8.53524 -3.300323,-9.73138 -0.932149,-0.84359 -0.957811,-0.75766 -0.623427,2.08746 0.365622,3.11087 -0.743285,7.7819 -2.118351,8.92311 -0.537584,0.44615 -0.667506,-0.71405 -0.638447,-5.70129 0.03381,-5.80616 -0.07059,-6.47504 -1.436128,-9.1994 l -1.472607,-2.93797 0.259851,2.93939 c 0.142918,1.61667 0.06573,3.65989 -0.171524,4.5405 -0.340009,1.26199 -0.446027,0.80913 -0.500529,-2.13812 -0.07694,-4.16072 -0.661572,-6.77046 -1.585718,-7.07851 -0.443693,-0.14789 -0.472346,0.28133 -0.104421,1.56419 0.278883,0.97242 0.510742,3.81284 0.51524,6.31206 0.0056,3.1311 0.169189,4.29487 0.525998,3.74276 0.45805,-0.70879 0.51876,-0.70709 0.525998,0.0147 0.0099,0.99371 -1.46734,3.19037 -2.145594,3.19037 -0.290234,0 -0.277857,-0.55973 0.03029,-1.37022 0.808978,-2.12777 0.614479,-9.177 -0.347835,-12.60666 -1.018134,-3.62859 -1.859275,-3.64572 -1.491938,-0.0303 0.143934,1.41659 -0.09435,3.81048 -0.543524,5.46042 -0.566655,2.08147 -0.701769,2.31507 -0.463473,0.80127 0.490881,-3.11834 0.588935,-10.06239 0.150862,-10.68353 -0.207212,-0.29379 -0.369447,-0.93652 -0.360532,-1.42826 0.01373,-0.7571 0.272788,-0.69839 1.6907,0.3831 0.920968,0.70246 3.104414,1.92948 4.852105,2.72671 2.758786,1.25847 3.888483,1.4544 8.570827,1.48652 3.670475,0.0252 5.658781,-0.18342 6.224623,-0.65303 0.673132,-0.55864 0.874762,-0.55998 1.059079,-0.007 0.314962,0.94489 -3.526007,2.5901 -6.879288,2.94662 -1.829954,0.19455 -3.601699,0.002 -5.298804,-0.57645 -1.402288,-0.47781 -2.626529,-0.79182 -2.720539,-0.69781 -0.09401,0.094 0.514262,0.82738 1.351717,1.62972 2.669269,2.55732 11.336888,3.97367 15.238881,2.49013 3.884642,-1.47694 3.952728,-0.12037 0.09533,1.89924 -2.814351,1.4735 -2.999523,1.49889 -6.527042,0.89465 -1.996783,-0.34204 -3.732343,-0.52006 -3.856796,-0.3956 -0.124457,0.12446 0.0826,0.59848 0.460129,1.05337 0.377529,0.45489 0.785063,0.72844 0.905632,0.60787 0.120569,-0.12057 1.348309,0.12323 2.728306,0.54177 2.629536,0.79752 8.528867,1.0394 10.890984,0.44655 1.879013,-0.4716 2.374301,0.56036 0.772627,1.60981 -2.246056,1.47168 -4.758539,1.55127 -8.601259,0.2725 -1.957713,-0.65149 -3.670662,-1.07333 -3.806562,-0.93744 -0.135894,0.1359 0.72148,1.12212 1.905279,2.19161 1.956266,1.76737 2.456394,1.9522 5.489426,2.02868 4.28849,0.10815 4.387499,0.10321 5.990819,-0.29921 0.775693,-0.19469 1.352566,-0.11037 1.352566,0.19771 0,0.80556 -3.607853,2.15405 -5.763116,2.15405 -2.344574,0 -1.867352,0.55486 1.378303,1.60253 2.860531,0.92335 4.481825,2.94069 5.723384,7.12147 0.436978,1.47146 0.73523,2.71208 0.662774,2.75692 -0.07245,0.0448 -1.397859,-0.21148 -2.945357,-0.56962 z m 1.712735,-1.96385 c -0.860243,-2.78215 -2.485213,-5.23971 -3.973423,-6.0093 -0.875429,-0.4527 -1.654306,-0.78989 -1.730832,-0.74931 -0.285598,0.15147 -4.359979,-1.70189 -5.110203,-2.32451 -0.662828,-0.5501 -0.588956,-0.70692 0.493205,-1.04701 1.171555,-0.36818 1.156203,-0.38549 -0.192955,-0.21753 -1.182678,0.14723 -1.944915,-0.32979 -3.946816,-2.46998 -1.960929,-2.0964 -2.325552,-2.75731 -1.739299,-3.15264 0.585105,-0.39456 0.543621,-0.46728 -0.196443,-0.34437 -0.612503,0.10173 -3.325061,-2.30124 -7.813841,-6.92202 -3.78161,-3.89281 -7.19904,-7.07783 -7.594299,-7.07783 -0.65616,0 5.088259,6.28816 7.925686,8.67591 0.656995,0.55286 2.682078,2.85331 4.500185,5.1121 1.818112,2.25879 4.664705,5.42898 6.325764,7.04486 1.661058,1.61589 3.482044,3.85124 4.046636,4.96745 1.439477,2.84589 3.36655,4.53087 5.845588,5.11123 3.359232,0.78642 3.576145,0.74545 3.161047,-0.59705 z m -3.931607,-1.78058 c 0.02564,-0.62229 0.152208,-0.74887 0.322728,-0.32274 0.154307,0.38561 0.135333,0.84634 -0.04215,1.02384 -0.177507,0.1775 -0.303754,-0.138 -0.28056,-0.7011 z m -2.180855,-2.0943 c -0.688933,-0.73333 -1.00758,-1.33334 -0.708104,-1.33334 0.682314,0 2.577026,2.05035 2.222414,2.40497 -0.14394,0.14394 -0.825383,-0.3383 -1.51431,-1.07163 z m -2.092556,-1.64494 c 0.02564,-0.62229 0.152208,-0.74886 0.322728,-0.32273 0.154308,0.3856 0.135334,0.84633 -0.04215,1.02384 -0.177507,0.1775 -0.303754,-0.138 -0.28056,-0.70111 z m -13.933054,-4.75611 c 0.349816,-1.05996 0.464028,-2.93572 0.267879,-4.39951 -0.188062,-1.40346 -0.400894,-2.97987 -0.47296,-3.50313 -0.07206,-0.52326 -0.561441,-1.36459 -1.087503,-1.86962 -0.911267,-0.87482 -0.934835,-0.8551 -0.49852,0.41721 0.251875,0.73449 0.45796,3.65648 0.45796,6.4933 0,5.35691 0.298322,5.99729 1.333144,2.86175 z m 15.092778,0.44053 c -0.367246,-0.14819 -0.968195,-0.14819 -1.335441,0 -0.367246,0.14818 -0.06677,0.26943 0.66772,0.26943 0.734493,0 1.034967,-0.12125 0.667721,-0.26943 z m 2.003161,-4.87593 c 0,-0.48366 -4.701708,-0.396 -5.19455,0.0968 -0.178901,0.1789 0.91669,0.32528 2.434637,0.32528 1.517953,0 2.759913,-0.18996 2.759913,-0.42212 z m -5.039371,-4.97677 c 0.253071,-0.40948 -0.133357,-0.48174 -1.256687,-0.23502 -1.458772,0.3204 -7.003693,-0.3788 -8.961273,-1.13 -0.422378,-0.16207 -0.767958,-0.0427 -0.767958,0.2652 0,1.27974 10.241084,2.30499 10.985918,1.09982 z m -6.178332,-5.34988 c 0.734493,-0.0439 -0.41201,-0.26334 -2.547786,-0.48765 -2.135781,-0.22431 -4.844909,-0.79262 -6.020295,-1.26291 -2.482921,-0.99347 -3.080301,-1.07209 -2.312583,-0.30437 0.835319,0.83532 7.261962,2.62914 8.476871,2.36608 0.587594,-0.12723 1.669301,-0.26725 2.403793,-0.31115 z M 7.67091,91.137457 c 0,-0.48836 4.48433,-4.46895 5.05234,-4.4848 0.28152,-0.008 -0.54976,1.06743 -1.84729,2.38951 -2.16581,2.20681 -3.20505,2.88621 -3.20505,2.09529 z m 48.610042,-16.49199 c 0,-0.13256 0.360569,-1.62534 0.801265,-3.31728 0.440695,-1.69195 0.801264,-4.34785 0.801264,-5.90201 0,-1.55415 0.195621,-2.82574 0.434718,-2.82574 0.647182,0 0.138197,6.33038 -0.723536,8.99889 -0.679355,2.10373 -0.668821,2.29064 0.112182,1.99093 0.719178,-0.27597 0.750112,-0.19602 0.186786,0.48275 -0.632577,0.7622 -1.612679,1.11012 -1.612679,0.57246 z M 16.50708,72.360137 c -1.25626,-0.31911 -3.49458,-1.73431 -3.49399,-2.20912 2.3e-4,-0.18655 2.58431,-0.36011 5.74239,-0.38567 4.024,-0.0326 6.345238,-0.30575 7.758231,-0.91302 1.108939,-0.4766 2.322374,-0.74908 2.696522,-0.6055 0.374147,0.14357 1.269678,-0.37685 1.990068,-1.1565 1.177747,-1.27461 1.202089,-1.38589 0.241453,-1.10368 -5.468106,1.60634 -9.714884,1.57366 -11.985284,-0.0923 -1.81363,-1.33075 -2.09659,-2.37197 -0.48024,-1.76721 3.49754,1.30862 8.08906,1.12066 15.24432,-0.62404 0.353155,-0.0861 1.093218,-0.56482 1.64459,-1.06381 0.551377,-0.49899 1.205043,-0.90725 1.452596,-0.90725 0.481785,0 -10.75533,10.82979 -11.547241,11.12867 -0.259476,0.0979 -0.471768,-0.0656 -0.471768,-0.36334 0,-0.3566 -0.591382,-0.3718 -1.732547,-0.0445 -1.79836,0.51577 -5.24471,0.56812 -7.0591,0.10724 z m 9.325823,-1.32339 c 2.029015,-0.61088 3.205058,-1.36836 3.205058,-2.06434 0,-0.24283 -0.886113,-0.0713 -1.969134,0.38125 -1.083027,0.45251 -4.268057,0.96148 -7.077837,1.13104 -4.66603,0.28157 -4.97187,0.36457 -3.52962,0.95781 1.7175,0.70645 6.34254,0.50621 9.371533,-0.40576 z m 4.766834,-5.32299 c 1.491399,-0.34426 2.711634,-0.81907 2.711634,-1.05513 0,-0.23607 -0.578534,-0.20926 -1.285629,0.0596 -2.196607,0.83515 -7.409712,1.1737 -10.065622,0.65367 -2.29883,-0.4501 -3.51608,-0.0503 -1.86961,0.61402 1.28328,0.51782 7.820291,0.34854 10.509227,-0.27214 z m 17.721817,4.76578 c 0.02927,-0.95484 0.245706,-2.33702 0.48093,-3.07151 0.326398,-1.01918 0.44029,-0.60805 0.48093,1.73607 0.02991,1.72706 -0.180573,3.07152 -0.48093,3.07152 -0.293797,0 -0.510218,-0.78124 -0.48093,-1.73608 z m 0.326153,-5.74239 c 0.153655,-0.58759 0.371535,-1.06835 0.484166,-1.06835 0.112631,0 0.204787,0.48076 0.204787,1.06835 0,0.58759 -0.217874,1.06835 -0.484166,1.06835 -0.266293,0 -0.358449,-0.48076 -0.204787,-1.06835 z m 9.339912,-4.00632 c 0.0109,-0.88139 0.130606,-1.1773 0.266041,-0.65756 0.135435,0.51974 0.12653,1.24088 -0.01976,1.60253 -0.146327,0.36165 -0.257137,-0.0636 -0.24625,-0.94497 z M 35.841075,42.751917 c -2.936698,-1.12063 -10.833945,-1.43765 -12.576845,-0.50488 -1.74815,0.93558 -1.96527,-0.28903 -0.32137,-1.81256 1.24159,-1.15066 1.943787,-1.3378 5.019852,-1.3378 1.966981,0 4.745125,0.35176 6.173641,0.78168 1.428521,0.42992 2.727184,0.6518 2.885909,0.49307 0.15873,-0.15872 -0.55119,-0.97547 -1.577604,-1.81498 -3.189492,-2.60873 -10.928228,-4.2829 -14.879418,-3.21895 -2.3896,0.64345 -3.58208,0.34827 -2.19534,-0.54341 1.40868,-0.90579 4.76571,-1.62327 8.016783,-1.71338 3.402965,-0.0943 3.721121,-0.31307 2.250646,-1.54747 -1.653773,-1.38827 -6.591719,-2.31999 -11.751879,-2.21743 -2.71762,0.054 -4.94113,-0.11852 -4.94113,-0.38342 0,-1.0744 2.49966,-1.68276 7.25787,-1.76639 2.76224,-0.0486 5.02358,-0.22667 5.02522,-0.3958 0.002,-0.16914 -0.53789,-0.80343 -1.19893,-1.40955 -1.45375,-1.33294 -3.96864,-1.81154 -10.14938,-1.93147 -2.83356,-0.055 -4.60724,-0.30104 -4.50437,-0.62487 0.0933,-0.2938 2.10846,-1.02343 4.47805,-1.62141 4.18804,-1.05687 4.28398,-1.11673 3.43601,-2.14378 -0.47978,-0.58111 -2.19441,-1.38313 -3.8103,-1.78227 -3.67582,-0.90796 -5.04441,-2.1427 -6.40465,-5.77827 C 5.48324,9.9000667 5.00003,8.5180167 5.00003,8.4073567 c 0,-0.50739 4.77516,0.41888 6.82878,1.32462 2.41587,1.0655103 3.39938,2.6187403 4.13161,6.5249103 0.23936,1.27687 0.99632,2.54511 2.09469,3.50948 2.5641,2.25132 2.77316,2.8572 0.68478,1.98462 -1.26004,-0.52648 -2.38673,-0.61386 -3.80134,-0.29481 -3.00218,0.6771 -2.96967,1.08104 0.087,1.08104 1.49882,0 3.32572,0.22834 4.05976,0.50742 0.92776,0.35274 1.39635,0.3222 1.53714,-0.10016 0.12171,-0.36512 0.68661,-0.1235 1.41555,0.60545 0.66717,0.66716 1.33814,1.08791 1.49105,0.935 0.15291,-0.15291 -1.31586,-1.76901 -3.26393,-3.59133 -1.94807,-1.82233 -3.41281,-3.44245 -3.25498,-3.60028 0.15783,-0.15783 0.58495,0.0618 0.94916,0.488 0.36421,0.42623 1.23462,1.25001 1.93423,1.83062 l 1.27203,1.05566 -0.37984,-3.60663 c -0.28863,-2.74057 -0.16689,-4.24776 0.50697,-6.27657 0.48775,-1.4684703 1.04778,-2.6704803 1.24452,-2.6711503 0.19673,-6.4e-4 0.27604,1.72908 0.17622,3.8438603 -0.25227,5.34502 1.28268,11.74748 3.275635,13.66307 l 1.491629,1.43371 -0.364837,-4.37473 c -0.391396,-4.69316 0.327621,-8.6555 1.791045,-9.87003 0.694771,-0.57661 0.757334,-0.45083 0.45992,0.92466 -0.655183,3.03012 -0.456736,9.58085 0.36378,12.00848 0.446854,1.32209 0.964899,3.14512 1.151214,4.05119 0.195396,0.95021 1.361792,2.6457 2.756104,4.00632 2.416891,2.35849 2.417271,2.35863 2.041654,0.7564 -0.47241,-2.01509 -1.506623,-3.82706 -1.099426,-1.92621 0.150675,0.70337 0.08091,1.06393 -0.155039,0.80127 -0.709157,-0.78947 -1.647934,-6.57279 -1.647934,-10.15206 0,-2.72865 0.228788,-3.61925 1.228248,-4.78119 l 1.228247,-1.42793 -0.175471,6.60636 c -0.154126,5.80288 -0.02334,7.05706 1.075355,10.31219 0.687955,2.03821 1.570211,3.8123 1.960577,3.94242 0.507708,0.16924 0.623533,-0.12539 0.406877,-1.03495 -0.166589,-0.69935 -0.432747,-2.71382 -0.591472,-4.4766 -0.315191,-3.50051 -0.336852,-3.57177 1.295949,4.26435 0.330318,1.58527 1.127352,3.25961 1.970688,4.13987 0.778829,0.81292 1.20797,1.47804 0.953644,1.47804 -0.661802,0 -6.768911,-5.86445 -14.372762,-13.80167 -2.026574,-2.11543 -3.802815,-3.72809 -3.947205,-3.5837 -0.34677,0.34677 12.267119,13.7425 14.915704,15.84022 1.135344,0.89921 2.064266,1.90008 2.064266,2.22415 0,0.32408 -0.67771,-0.06 -1.506025,-0.85363 -0.82831,-0.79357 -1.653644,-1.29523 -1.834078,-1.11479 -0.18044,0.18043 -1.846429,-0.0396 -3.7022,-0.48894 -1.855777,-0.44935 -4.455843,-0.73806 -5.777929,-0.64158 -1.322086,0.0965 -2.824457,0.19967 -3.338598,0.22932 -0.51415,0.0297 -0.93481,0.2342 -0.93481,0.45455 0,0.22034 2.103317,0.41059 4.67404,0.42276 4.417094,0.0209 7.970263,0.68469 9.733248,1.8183 1.473093,0.94721 0.288247,0.91851 -2.262413,-0.0548 z m -4.026348,-8.03643 c -0.343289,-0.34329 -2.130108,-0.69256 -3.970714,-0.77616 l -3.346553,-0.152 3.430076,0.7875 c 1.88654,0.43313 3.549164,0.9066 3.694722,1.05215 0.145552,0.14555 0.388837,0.14045 0.540634,-0.0113 0.151792,-0.15179 -0.0048,-0.55686 -0.348165,-0.90014 z m 2.556813,-9.90802 c -0.0056,-3.9049 -0.173874,-5.486 -0.525992,-4.94113 -0.767008,1.18685 -0.465049,10.68352 0.339693,10.68352 0.106963,0 0.190802,-2.58408 0.186299,-5.74239 z m -8.004461,4.15004 c 0,-0.56585 -0.995063,-0.83755 -4.941129,-1.34918 -1.63977,-0.21261 -2.53734,-0.12845 -2.53734,0.23792 0,0.3118 0.78123,0.5838 1.73607,0.60445 0.95484,0.0207 2.21684,0.24413 2.80443,0.49663 1.475555,0.63407 2.937969,0.63914 2.937969,0.0102 z m 2.903382,-2.78 c -0.537841,-1.61632 -0.923521,-4.27987 -0.895525,-6.18454 0.02831,-1.927 -0.160424,-3.21596 -0.445167,-3.03999 -1.100104,0.67991 -0.14317,10.21947 1.185759,11.82073 1.069256,1.28837 1.126776,0.32442 0.154933,-2.5962 z m -6.395301,-6.17763 c -0.42346,-1.39554 -0.77253,-3.67914 -0.77571,-5.07468 -0.003,-1.46486 -0.25083,-2.53733 -0.58553,-2.53733 -0.6788,0 -0.12369,7.70472 0.66388,9.21454 0.98996,1.8978 1.44336,0.85591 0.69736,-1.60253 z m -7.52349,-4.27341 c -0.53888,-2.24741 -1.71447,-4.32366 -2.74516,-4.84833 -1.41088,-0.71821 -6.0954,-1.7819503 -6.4196,-1.4577403 -0.41522,0.41521 1.47366,4.3950603 2.54692,5.3663503 0.85386,0.77273 4.76429,2.23686 6.29218,2.35589 0.47356,0.0369 0.57172,-0.38998 0.32566,-1.41617 z m -2.51706,-0.48966 c -0.19586,-0.19587 -0.35612,-0.60451 -0.35612,-0.9081 0,-0.33472 0.24881,-0.30318 0.63211,0.0801 0.34766,0.34766 0.50791,0.75631 0.35612,0.9081 -0.1518,0.1518 -0.43625,0.11574 -0.63211,-0.0801 z m 28.225095,22.98286 c -0.47359,-1.13345 -0.968563,-3.14257 -1.099943,-4.46469 l -0.238868,-2.40385 0.728023,2.67088 c 0.400419,1.46898 1.008221,3.36526 1.350687,4.21395 0.34246,0.84869 0.509818,1.6559 0.371915,1.79381 -0.137909,0.1379 -0.638224,-0.67664 -1.111814,-1.8101 z m 14.687071,0.87508 c 0,-0.29487 0.480759,-1.43311 1.068353,-2.52943 1.318689,-2.46039 1.484684,-9.32676 0.294347,-12.17564 -1.07113,-2.56358 0.306313,-2.58152 1.521916,-0.0198 1.068812,2.25235 1.426993,11.7854 0.502121,13.36382 -0.487741,0.83239 -0.57025,0.29762 -0.412085,-2.67088 0.166914,-3.13274 0.123277,-3.37839 -0.27977,-1.57496 -0.794683,3.55585 -2.694882,7.50936 -2.694882,5.60692 z m 10.683526,-5.15377 c 0,-0.54297 6.296256,-6.53217 11.532076,-10.96966 1.494989,-1.26705 3.62148,-3.08495 4.725527,-4.03979 1.104051,-0.95484 2.371208,-1.73608 2.81591,-1.73608 0.444697,0 -0.683543,1.09841 -2.507199,2.44091 -1.823657,1.3425 -3.232093,2.52455 -3.129857,2.62679 0.102231,0.10223 1.379804,-0.0372 2.839046,-0.30979 1.637186,-0.30586 3.682547,-0.30441 5.341341,0.004 2.529506,0.46995 5.626052,1.44344 5.626223,1.76875 4.2e-5,0.0807 -2.033407,0.0624 -4.518785,-0.0407 -6.136809,-0.25459 -12.536519,1.18196 -15.087735,3.38676 l -1.86099,1.60827 h 4.724234 c 4.796097,0 7.589273,0.80222 8.085197,2.32213 0.191374,0.58652 0.01042,0.5995 -0.978606,0.0702 -1.350713,-0.72288 -6.417258,-0.46699 -11.09958,0.56061 -1.562712,0.34295 -2.988321,0.47652 -3.168024,0.29681 -0.179707,-0.1797 -1.004443,0.32255 -1.832759,1.11613 -0.828309,0.79357 -1.506019,1.19626 -1.506019,0.89486 z m 7.211578,-3.11475 c 2.056472,-0.4356 4.654647,-0.79617 5.773725,-0.80127 1.218456,-0.006 1.90225,-0.22356 1.704546,-0.54345 -0.427763,-0.69213 -5.848301,-0.68427 -8.355458,0.0121 -1.069939,0.29719 -2.241174,0.89679 -2.602747,1.33246 -0.797942,0.96146 -1.058529,0.96145 3.479934,1.3e-4 z m 10.336392,-7.56257 c 2.138099,-0.22487 3.108997,-0.51533 2.626032,-0.78561 -0.910381,-0.50948 -7.921632,0.51553 -8.689211,1.27032 -0.351039,0.34519 0.01522,0.4133 1.068352,0.19867 0.881391,-0.17963 3.129066,-0.48715 4.994827,-0.68338 z m -44.560395,4.68708 c 0.123288,-1.96355 0.01442,-3.20131 -0.257622,-2.92926 -0.259124,0.25912 -0.529091,1.23181 -0.599934,2.16153 -0.07084,0.92973 -0.294085,1.58826 -0.496095,1.46341 -0.537632,-0.33227 0.4696,-4.36218 1.47305,-5.89364 0.474707,-0.72449 0.947154,-1.23321 1.049881,-1.13048 0.102727,0.10273 -0.166369,2.33374 -0.598,4.9578 -0.717441,4.36165 -0.766463,4.47925 -0.57128,1.37064 z"
     style="fill:#000000;stroke-width:0.53417629" />
</svg>
