<?xml version="1.0" encoding="UTF-8" standalone="no"?>
<svg
   xmlns:dc="http://purl.org/dc/elements/1.1/"
   xmlns:cc="http://creativecommons.org/ns#"
   xmlns:rdf="http://www.w3.org/1999/02/22-rdf-syntax-ns#"
   xmlns:svg="http://www.w3.org/2000/svg"
   xmlns="http://www.w3.org/2000/svg"
   id="svgC12"
   version="1.1"
   viewBox="0 0 100 100"
   height="100"
   width="100">
  <defs
     id="defs2" />
  <metadata
     id="metadata5">
    <rdf:RDF>
      <cc:Work
         rdf:about="">
        <dc:format>image/svg+xml</dc:format>
        <dc:type
           rdf:resource="http://purl.org/dc/dcmitype/StillImage" />
        <dc:title></dc:title>
      </cc:Work>
    </rdf:RDF>
  </metadata>
  <path
     d="m 52.137368,8.454 c -0.5984,0 -0.75791,4.291954 -0.18015,4.844783 0.64724,0.619317 0.72271,0.383086 0.72271,-2.249001 0,-1.4276796 -0.24415,-2.595782 -0.54256,-2.595782 z m 17.123639,0 c -0.13159,0 -0.39098,0.2336205 -0.57541,0.5191564 -0.18443,0.2855358 -0.0765,0.5191561 0.23949,0.5191561 0.31602,0 0.57436,-0.2336203 0.57436,-0.5191561 0,-0.2855359 -0.10685,-0.5191564 -0.23844,-0.5191564 z m -3.0551,0.2768139 c -0.17785,-0.023314 -0.94695,0.6210412 -1.86083,1.5757241 -1.04444,1.091069 -1.89898,2.172373 -1.89898,2.40211 0,0.229738 0.244161,0.417759 0.54257,0.417759 0.29841,0 0.54256,-0.24448 0.54256,-0.542476 0,-0.298001 0.61039,-1.170905 1.35641,-1.940753 0.74603,-0.7698413 1.35642,-1.6066745 1.35642,-1.8596336 0,-0.031617 -0.0127,-0.049425 -0.0382,-0.052733 z M 36.945548,8.9731564 c -0.29841,0 -0.54257,0.2336205 -0.54257,0.5191561 0,0.2855359 0.24416,0.5191565 0.54257,0.5191565 0.29841,0 0.54256,-0.2336206 0.54256,-0.5191565 0,-0.2855356 -0.24415,-0.5191561 -0.54256,-0.5191561 z m 2.61215,0.00214 c -0.27915,0.021706 -0.38216,0.1878668 -0.16425,0.5252394 0.18744,0.2899808 0.52365,0.4190899 0.74709,0.2869534 0.22343,-0.1321304 0.74808,0.2148478 1.16672,0.7706258 0.41864,0.555778 0.95221,1.010932 1.18474,1.010932 0.74422,0 0.45496,-0.629746 -0.74602,-1.6264183 -0.76948,-0.6385667 -1.72302,-1.0035032 -2.18828,-0.9673323 z m 30.619949,0.327514 c -0.0911,0.00865 -0.13564,0.114427 -0.13564,0.3153456 0,0.431845 0.36623,1.076274 0.813849,1.431735 0.447616,0.355462 0.813848,0.967411 0.813848,1.360756 0,0.393338 0.236563,0.71587 0.525609,0.71587 0.671718,0 0.115946,-1.463398 -1.160368,-3.055112 C 70.611547,9.5433741 70.329577,9.2884013 70.177647,9.3028074 Z M 35.684508,9.6941989 c -0.18044,-0.029857 -0.53266,0.2720688 -1.15189,0.9450261 -0.71196,0.773741 -1.21124,1.825026 -1.10951,2.336204 0.10174,0.511177 0.23109,1.28025 0.28824,1.708554 0.0571,0.428302 0.28989,-0.146204 0.51714,-1.276594 0.22725,-1.130397 0.68735,-2.143089 1.0226,-2.250021 0.33526,-0.106929 0.60181,-0.583713 0.59236,-1.059602 -0.005,-0.2483492 -0.0507,-0.3856653 -0.15894,-0.4035671 z m 55.81743,0.8365321 c -0.207059,0 -0.743485,0.350431 -1.1911,0.778735 -0.447616,0.428305 -0.582022,0.778735 -0.298834,0.778735 0.283186,0 0.818551,-0.35043 1.19004,-0.778735 0.371487,-0.428304 0.506952,-0.778735 0.299894,-0.778735 z m -52.86087,0.598245 c -1.06532,0.04246 -1.66272,0.863943 -1.5567,2.289563 0.15498,2.084063 0.32829,2.138798 2.2296,0.707756 1.63012,-1.226927 1.83824,-2.296306 0.53939,-2.77323 -0.45054,-0.165424 -0.85719,-0.238241 -1.21229,-0.224089 z m 29.258229,0.265663 c -0.27184,0.0021 -0.5983,0.07287 -0.97704,0.211925 -0.83264,0.305688 -1.22077,0.876591 -1.22077,1.796765 0,1.165464 0.20309,1.327259 1.49206,1.185344 1.093,-0.120337 1.54131,-0.492639 1.67432,-1.392192 0.17755,-1.200778 -0.15304,-1.808145 -0.96857,-1.801842 z m -24.442969,0.693562 c -0.29842,0 -0.54257,0.23362 -0.54257,0.519157 0,0.285536 0.24415,0.519156 0.54257,0.519156 0.29841,0 0.54256,-0.23362 0.54256,-0.519156 0,-0.285537 -0.24415,-0.519157 -0.54256,-0.519157 z m -7.20912,0.148044 c -0.0858,-0.0232 -0.21512,0.01 -0.38679,0.111535 -0.29842,0.176471 -0.53843,0.715683 -0.53409,1.198519 0.007,0.75655 0.0808,0.770479 0.53409,0.09937 0.515,-0.762528 0.64428,-1.339793 0.38679,-1.409427 z m 2.62381,0.101393 c 0.38066,-0.0015 0.78735,0.217243 0.78735,0.559714 0,0.125916 -0.38041,0.229161 -0.84564,0.229161 -0.46525,0 -0.69185,-0.238091 -0.50441,-0.528283 0.11614,-0.179805 0.3343,-0.259719 0.5627,-0.260592 z m 50.161825,0.269719 c -0.298411,0 -0.542565,0.491447 -0.542565,1.093067 0,0.766276 -0.243731,0.999486 -0.813848,0.778735 -0.447615,-0.173315 -1.147532,-0.443889 -1.554575,-0.602304 -0.496762,-0.193339 -0.848848,0.233366 -1.071354,1.297888 -0.196853,0.941809 -0.670092,1.585863 -1.164607,1.585863 -0.457996,0 -1.242499,0.458322 -1.744263,1.019046 -0.68132,0.761401 -1.09206,0.876425 -1.622395,0.455275 -0.543401,-0.431528 -0.709998,-0.328226 -0.709998,0.439055 0,0.55146 -0.37866,1.456452 -0.84034,2.010715 -0.791922,0.950735 -0.819845,0.912443 -0.499117,-0.679364 0.607391,-3.01457 -0.546201,-1.780442 -1.587426,1.698411 -0.557329,1.8621 -1.26389,3.533907 -1.570472,3.715219 -0.357458,0.211384 -0.42471,-0.118561 -0.187566,-0.919682 0.894163,-3.020638 1.003547,-4.10458 0.412221,-4.10458 -0.335717,0 -0.610385,0.686278 -0.610385,1.526035 0,0.839756 -0.261283,1.6815 -0.579654,1.869777 -0.322582,0.190765 -0.502735,0.02507 -0.406924,-0.374161 0.09456,-0.394013 -0.06485,-0.82591 -0.354998,-0.960237 -0.290153,-0.134331 -0.696934,0.690115 -0.903922,1.832259 -0.503305,2.777166 -2.447088,7.008613 -3.219358,7.008613 -0.34097,0 -0.49113,-0.292026 -0.33381,-0.648947 2.440352,-5.536522 3.117058,-7.438759 2.978812,-8.366325 -0.09996,-0.670655 -0.889168,0.840354 -1.998592,3.823707 -1.63856,4.406284 -4.14521,8.728629 -4.73472,8.164544 -0.12078,-0.11557 0.8767,-2.292272 2.21688,-4.836668 2.27373,-4.31676 3.165763,-7.444642 1.91064,-6.702393 -0.29841,0.176471 -0.54257,0.633916 -0.54257,1.017017 0,0.383101 -0.9395,2.647334 -2.08654,5.031358 -1.147059,2.384023 -2.23709,4.743589 -2.42353,5.243278 -0.18643,0.499689 -0.59084,0.908523 -0.89862,0.908523 -0.74036,0 -0.87743,0.352721 1.8852,-4.861006 2.38716,-4.505148 2.9813,-6.560435 1.8958,-6.560435 -0.29841,0 -0.54257,0.498088 -0.54257,1.107262 0,1.270236 -3.486,8.1101 -4.727309,9.275867 -0.972241,0.91307 -1.025961,1.04829 1.932889,-4.867092 1.26753,-2.534081 2.21249,-4.987096 2.09926,-5.451143 -0.14494,-0.594018 -0.41031,-0.382686 -0.8965,0.71384 -2.07532,4.680435 -4.092729,8.566082 -4.44755,8.566082 -0.22205,0 0.282261,-1.460127 1.12116,-3.244728 1.97736,-4.206465 2.40636,-5.580932 1.74214,-5.580932 -0.29454,0 -0.95033,1.226507 -1.45708,2.725571 -0.50677,1.499065 -1.27118,3.076003 -1.69976,3.504305 -0.68633,0.685891 -0.73159,0.654943 -0.37301,-0.259578 0.22391,-0.57107 0.72443,-1.622363 1.11162,-2.336203 0.81623,-1.504822 0.91577,-2.595782 0.23631,-2.595782 -0.26111,0 -0.659309,0.759266 -0.884849,1.687258 -0.225531,0.927993 -0.507301,1.336828 -0.625221,0.908524 -0.36793,-1.336481 -3.716519,-3.198554 -5.14059,-2.858403 -1.15481,0.275834 -1.288669,0.130553 -1.321439,-1.434777 -0.04969,-2.373599 -1.38021,-6.763616 -1.89368,-6.24813 -0.50439,0.506375 -1.52675,6.799994 -1.16143,7.149557 0.59264,0.56707 1.19288,-0.413917 1.20064,-1.961035 0.006,-1.173455 0.14988,-1.443012 0.49276,-0.924749 0.266221,0.40241 0.36605,1.026623 0.22148,1.387126 -0.14458,0.360496 -5e-5,1.127425 0.32214,1.703481 0.387331,0.692502 0.4021,1.15615 0.0424,1.36887 -0.90925,0.537706 -0.61118,3.290034 0.60721,5.602222 0.63347,1.202154 2.335719,3.315915 3.782059,4.696745 l 2.629111,2.510608 -3.509721,3.358294 c -1.93061,1.847309 -3.522699,3.170547 -3.538328,2.940534 -0.0156,-0.230017 -0.005,-3.376136 0.0254,-6.991374 0.0338,-4.079474 -0.16101,-6.700524 -0.51395,-6.909242 -0.387461,-0.229139 -0.569051,2.310122 -0.569051,7.969862 0,5.424411 -0.20378,8.427392 -0.58919,8.655312 -0.41963,0.248157 -0.5268,-2.217489 -0.36877,-8.534648 0.12224,-4.886453 0.0394,-8.884472 -0.18439,-8.884472 -0.63775,0 -1.07248,4.976173 -0.9071,10.383131 0.083,2.712592 -0.0706,4.931986 -0.34123,4.931986 -0.27064,0 -1.96229,-1.465744 -3.7598,-3.256895 l -3.26811,-3.256896 1.94349,-1.93467 c 1.06897,-1.064209 2.95533,-3.447641 4.19216,-5.297017 1.82308,-2.725965 2.21798,-3.748023 2.0876,-5.398417 -0.0919,-1.162956 -0.53135,-2.258911 -1.02578,-2.555219 -2.32519,-1.393454 -5.82473,1.627405 -4.40516,3.802411 0.40113,0.614607 0.44031,1.091669 0.10702,1.288768 -0.29103,0.172106 -0.81385,-0.284041 -1.16142,-1.01398 -0.34758,-0.729939 -0.9674,-1.327296 -1.37761,-1.327296 -0.5706,0 -0.61312,0.236684 -0.18121,1.008908 0.31052,0.555165 0.8074,1.152788 1.10421,1.328308 0.29681,0.175522 0.52982,0.597861 0.51713,0.937929 -0.0127,0.340069 -0.98909,-0.432764 -2.1692,-1.717675 -1.18011,-1.284914 -2.14586,-2.014031 -2.14695,-1.620334 -5.4e-4,0.393696 0.8716,1.640441 1.93925,2.7712 1.06763,1.130758 1.78078,2.210007 1.58424,2.398057 -0.43683,0.417993 -4.61074,-4.038374 -4.61074,-4.922861 0,-0.676487 -2.05177,-1.507593 -2.54857,-1.032228 -0.6323,0.605014 3.73456,7.078574 4.775,7.078574 0.29841,0 -0.13047,-0.876078 -0.95267,-1.946837 l -1.49523,-1.946837 1.73896,1.52401 c 0.95622,0.838646 1.7379,1.788623 1.7379,2.110085 0,0.926679 -3.10456,3.524024 -3.75344,3.140289 -0.32267,-0.19081 -0.58708,-0.772184 -0.58708,-1.291806 0,-0.51963 -0.85454,-2.301981 -1.89897,-3.96161 -1.04444,-1.659629 -1.89898,-3.237891 -1.89898,-3.507349 0,-0.558814 1.09314,0.793303 3.80855,4.710941 1.03864,1.498508 2.0715,2.725051 2.29531,2.725571 0.68205,0.0015 0.4798,-0.418617 -1.43696,-2.983126 -1.01421,-1.356954 -2.38908,-3.473058 -3.0551,-4.702825 -0.73471,-1.356581 -1.48854,-2.133945 -1.91806,-1.976241 -0.38935,0.142964 -0.81232,-0.01905 -0.93995,-0.359962 -0.12763,-0.340879 -0.44157,-0.432172 -0.69727,-0.202793 -0.46333,0.415616 1.2242,3.981721 3.19498,6.751058 1.35467,1.903575 1.01901,2.134397 -0.85729,0.589122 -0.96983,-0.798726 -1.89178,-2.43719 -2.59202,-4.6065 -1.01343,-3.139552 -1.83896,-4.393196 -2.48605,-3.774023 -0.14941,0.142971 0.35958,1.452012 1.13069,2.908086 1.43319,2.706232 1.21668,3.44008 -0.48428,1.641629 -0.5231,-0.553078 -0.80698,-1.229518 -0.63052,-1.502714 0.3993,-0.618211 -1.13681,-4.240453 -1.7983,-4.240453 -0.58212,0 -0.11357,1.974185 0.56375,2.374736 0.26239,0.15517 0.47687,0.654593 0.47687,1.110303 0,0.724899 -0.13317,0.713041 -1.07135,-0.09937 -0.58979,-0.510716 -0.95497,-1.111992 -0.81067,-1.335406 0.36432,-0.564058 -0.77955,-3.309995 -1.20806,-2.899976 -0.19124,0.182992 -0.83673,-0.07665 -1.43377,-0.576955 -1.04362,-0.874539 -1.07011,-0.869451 -0.69516,0.128777 0.26779,0.712958 -0.12147,0.506334 -1.24303,-0.659084 -1.05134,-1.092463 -1.51135,-2.00342 -1.28965,-2.556239 0.25979,-0.647787 0.12113,-0.776715 -0.56375,-0.52524 -0.55194,0.202662 -0.90817,0.0779 -0.90817,-0.31839 0,-0.35858 -0.4883,-0.688037 -1.08513,-0.731075 -0.59682,-0.04303 -1.08513,0.140842 -1.08513,0.408633 0,0.267792 0.42727,0.491683 0.94949,0.495836 0.78018,0.0065 0.81107,0.09183 0.17061,0.479608 -0.63575,0.384928 -0.65749,0.69434 -0.11868,1.679149 0.36333,0.664063 0.53798,0.798809 0.38891,0.299122 -0.46311,-1.552381 0.5654,-1.002465 2.1088,1.128559 0.81175,1.120826 1.8334,2.16986 2.26987,2.330118 0.43647,0.160263 0.73374,0.586314 0.66125,0.947056 -0.24791,1.233474 0.69574,2.9914 1.60968,2.999343 0.65753,0.0057 0.72358,0.123714 0.23631,0.41979 -0.54035,0.328319 -0.54035,0.691526 0,1.804879 0.37209,0.766685 0.93637,1.396197 1.25362,1.398273 0.67483,0.0047 7.66464,3.932071 9.05723,5.089152 1.96999,1.636848 0.38854,1.143685 -2.66514,-0.831459 -4.37995,-2.83299 -6.56461,-3.841744 -6.96856,-3.216336 -0.18297,0.283277 0.35258,0.793708 1.19004,1.133624 4.00228,1.624509 10.76088,6.135578 9.19287,6.135578 -0.10786,0 -2.04679,-1.168103 -4.30979,-2.595782 -2.26301,-1.427681 -4.37221,-2.595782 -4.68704,-2.595782 -0.71436,0 -0.75121,0.87141 -0.054,1.283697 0.28541,0.168763 0.40678,0.591164 0.26916,0.938942 -0.14296,0.36126 1.02971,1.292513 2.73614,2.171939 1.64271,0.846587 2.98729,1.730627 2.98729,1.965088 0,0.234462 -0.91138,-0.166137 -2.02508,-0.890272 -2.24629,-1.460532 -3.96758,-1.816616 -2.91523,-0.603316 0.3401,0.392113 0.46604,1.092973 0.27976,1.557469 -0.19345,0.482374 -0.0678,0.844644 0.29353,0.844644 0.34796,0 0.45826,0.268382 0.24586,0.597231 -0.21241,0.328855 0.0612,0.910785 0.6072,1.292823 0.54603,0.382036 0.82374,0.856472 0.61675,1.054535 -0.20701,0.198069 -0.66526,0.08439 -1.01838,-0.253494 -0.35311,-0.337883 -1.08207,-0.614469 -1.61921,-0.614469 -0.68669,0 -0.97599,-0.395783 -0.97599,-1.332368 0,-0.732613 -0.22337,-1.730267 -0.49593,-2.217568 -0.27255,-0.487301 -0.6124,-1.932739 -0.75557,-3.211268 -0.36697,-3.277003 -0.97939,-5.672718 -1.53232,-5.999704 -0.25987,-0.153675 -0.47156,0.187385 -0.47156,0.758457 0,0.571072 0.19965,1.156425 0.444,1.300933 0.24437,0.144508 0.49952,1.385597 0.56695,2.757006 0.13147,2.673689 0.27737,3.60318 0.75769,4.829572 0.77483,1.978412 0.86358,3.483577 0.27975,4.746429 -0.54943,1.188454 -1.06312,1.418729 -3.83398,1.718692 -3.51573,0.380594 -6.15272,1.167989 -5.61959,1.678134 0.18802,0.179891 0.0777,0.630971 -0.24478,1.002822 -0.44779,0.516276 -0.15751,0.926437 1.22608,1.733901 1.88316,1.099035 5.16685,1.916642 5.68951,1.416527 0.16541,-0.158276 -0.76168,-0.560076 -2.06005,-0.8923 -2.47042,-0.63212 -3.71636,-1.347177 -3.71636,-2.133408 0,-0.256376 0.96625,0.0052 2.14801,0.582022 1.18174,0.576872 2.8416,1.049468 3.6888,1.049468 1.44136,0 1.52601,0.116356 1.31826,1.819075 -0.20522,1.682026 -0.0698,1.88079 1.78452,2.622145 1.30011,0.519774 2.22774,0.628779 2.63654,0.309263 0.40939,-0.319961 0.84963,-0.265278 1.25468,0.156153 0.47735,0.496657 0.38166,0.815887 -0.40692,1.359745 -0.56709,0.39109 -1.03003,1.134772 -1.03003,1.651768 0,0.517001 -0.38087,1.079583 -0.84563,1.250234 -0.46476,0.170652 -0.71921,0.622535 -0.56588,1.004852 0.15332,0.382312 0.0562,0.82757 -0.21619,0.988628 -0.27234,0.161058 -0.35778,0.635374 -0.18968,1.054535 0.19057,0.4752 -0.0233,0.76251 -0.56695,0.76251 -0.89361,0 -1.15003,0.599006 -0.51606,1.20562 0.48145,0.460674 9.95386,-4.419488 9.6104,-4.951251 -0.14942,-0.231335 -1.90309,0.439422 -3.89757,1.490547 -1.99449,1.05112 -3.4755,1.74601 -3.29036,1.544287 0.49193,-0.535991 6.50958,-3.961609 6.95903,-3.961609 0.21024,0 0.9742,0.621476 1.69764,1.381038 1.03008,1.081496 1.10423,1.307787 0.34228,1.04541 -0.59699,-0.20557 -1.80951,0.170096 -3.13776,0.972405 -1.19064,0.719191 -3.88048,1.916828 -5.97777,2.660676 -2.48181,0.880235 -3.62787,1.52958 -3.28294,1.859634 0.34495,0.330059 1.14451,0.213707 2.29108,-0.333598 0.9689,-0.462502 1.86691,-0.740464 1.99541,-0.617512 0.33357,0.319178 -2.9039,1.857606 -3.90923,1.857606 -0.46243,0 -0.84034,0.219038 -0.84034,0.487723 0,1.141076 1.11623,0.931642 4.05652,-0.762511 3.13583,-1.806831 4.09032,-2.137981 4.0703,-1.41247 -0.0137,0.496335 -7.24818,3.763883 -8.33346,3.763883 -1.15956,0 -1.70036,1.069226 -0.81279,1.607154 0.55128,0.334104 0.41728,0.455494 -0.50971,0.461361 -0.98126,0.0062 -1.18677,0.221444 -0.93465,0.98153 0.23009,0.693655 0.007,1.053125 -0.77676,1.249221 -1.05824,0.264795 -1.58166,1.411456 -0.64429,1.411456 0.25095,0 -0.55273,1.051291 -1.7856,2.336204 -1.23286,1.284911 -2.44442,2.336202 -2.69269,2.336202 -0.24826,0 -0.16505,-0.330225 0.18439,-0.733105 0.39322,-0.453364 0.43498,-0.850302 0.1102,-1.042369 -0.28861,-0.170677 -0.6833,0.381223 -0.87743,1.226913 -0.19411,0.845695 -0.84227,2.13318 -1.44012,2.860431 -0.59785,0.727249 -0.83972,1.322227 -0.53726,1.322227 0.30245,0 0.68078,-0.202157 0.84034,-0.449193 0.15955,-0.247031 0.90536,-0.385206 1.65736,-0.306221 0.752,0.07899 1.50745,-0.07274 1.67855,-0.337656 0.17112,-0.264914 0.53819,-0.346797 0.81598,-0.182515 0.27779,0.164276 0.50547,0.03736 0.50547,-0.281885 0,-0.319241 0.21092,-0.456067 0.46945,-0.303181 0.25853,0.152887 0.90638,-0.182961 1.44013,-0.747301 1.19272,-1.261082 0.0215,-1.4504 -1.39351,-0.225102 -0.50911,0.440857 -1.62774,0.9208 -2.48499,1.066703 -1.449,0.246627 -1.49567,0.205412 -0.6676,-0.596217 0.48989,-0.47425 2.29026,-1.604545 4.00035,-2.510609 1.71009,-0.906058 3.10014,-1.873426 3.08902,-2.150644 -0.0278,-0.692218 0.98695,-1.801839 1.64783,-1.801839 0.30266,0 0.24431,0.344335 -0.13246,0.778735 -0.85443,0.985105 -0.54019,0.97647 2.15859,-0.05678 2.15521,-0.825131 2.73288,-1.498356 1.59698,-1.860649 -0.33029,-0.105349 -0.12504,-0.583542 0.47156,-1.100165 1.02355,-0.886331 1.04742,-0.87045 0.81915,0.532338 -0.21379,1.31374 -0.16414,1.364521 0.53302,0.546533 0.4221,-0.495249 0.89092,-0.782065 1.04275,-0.636777 0.15183,0.145285 1.71535,-0.117726 3.47368,-0.585066 1.75833,-0.46734 3.84275,-0.963516 4.63194,-1.102194 1.00632,-0.176839 1.53016,-0.663867 1.75592,-1.629462 0.37735,-1.614078 1.80376,-3.518347 2.28788,-3.055113 0.18485,0.176866 -0.17918,1.012879 -0.80855,1.85862 -1.41325,1.89909 -1.42241,2.156731 -0.0762,2.156731 0.62532,0 0.96572,-0.269012 0.8202,-0.648946 -0.41889,-1.093666 0.61813,-2.134241 1.71989,-1.72579 0.95154,0.352768 0.95474,0.407377 0.0551,1.041355 -0.52221,0.368008 -0.94948,1.151758 -0.94948,1.742013 0,1.120995 2.33449,3.225464 3.57858,3.225464 0.51319,0 0.71037,0.798032 0.68563,2.778296 -0.0205,1.644122 0.33586,3.466225 0.87319,4.460487 0.49954,0.924338 0.78605,1.986935 0.63582,2.361554 -0.15026,0.374618 -0.12917,0.818393 0.0466,0.986599 1.01365,0.969925 3.797448,-3.69226 4.300248,-7.20228 0.29336,-2.047943 0.55001,-2.405099 2.12681,-2.950676 1.55911,-0.539454 1.75522,-0.803404 1.500531,-2.021869 -0.161121,-0.77089 -0.0243,-1.559929 0.304129,-1.754182 0.32848,-0.194247 0.59767,-0.821119 0.59767,-1.392191 0,-0.571073 0.24416,-0.893353 0.542571,-0.716882 0.298409,0.176471 0.542559,1.007711 0.542559,1.847467 0,0.839756 0.27175,1.527051 0.60403,1.527051 0.58515,0 0.49685,-1.168659 -0.31261,-4.153253 -0.26848,-0.989948 -0.0925,-0.866767 0.74073,0.519157 0.60081,0.999377 1.10232,2.272201 1.1148,2.828996 0.0165,0.73277 0.18719,0.855145 0.61674,0.444124 0.42956,-0.411023 0.27706,-1.2499 -0.54998,-3.038891 -0.62843,-1.359364 -1.03381,-2.574926 -0.9018,-2.701236 0.38195,-0.365477 2.48605,3.87566 2.48605,5.011076 0,0.5656 0.27703,1.192313 0.61674,1.393205 0.91841,0.543121 0.1019,-3.062594 -1.25998,-5.56268 -0.61523,-1.129431 -0.99435,-2.172614 -0.84246,-2.317953 0.4308,-0.412216 2.58829,4.1655 2.9396,6.236975 0.17346,1.022744 0.55413,1.859635 0.8467,1.859635 0.81771,0 -0.0425,-3.501867 -1.56835,-6.382987 -0.74166,-1.400457 -1.25098,-2.639894 -1.13176,-2.753963 0.5101,-0.48809 3.63525,4.985652 4.31721,7.561229 0.63824,2.410464 0.96988,2.868894 2.31968,3.214309 0.86607,0.221633 1.629722,0.35092 1.696571,0.286956 0.06685,-0.06397 -0.71515,-1.734065 -1.736841,-3.711158 -2.04024,-3.948113 -2.29216,-4.917213 -1.01731,-3.904827 1.21476,0.96466 3.501238,5.81488 3.501238,7.427385 0,0.757672 0.270287,1.377996 0.601908,1.377996 0.39617,0 0.48561,-0.667652 0.259626,-1.946837 -0.320482,-1.814145 -0.28764,-1.87801 0.482162,-0.938943 0.454366,0.554261 0.826563,1.518232 0.826563,2.142534 0,0.624305 0.405743,1.455582 0.902863,1.847467 0.814824,0.642331 0.868046,0.572207 0.533028,-0.714854 -0.222842,-0.856099 -0.150344,-1.427681 0.181208,-1.427681 0.304091,0 0.553162,0.217736 0.553162,0.484681 0,0.266949 0.283195,1.143027 0.629459,1.946837 0.346265,0.803815 0.579134,1.75418 0.518192,2.111101 -0.06094,0.35692 0.158358,0.648944 0.487461,0.648944 0.329104,0 0.448293,-0.23362 0.263865,-0.519156 -0.184434,-0.285536 -0.07759,-0.519156 0.238432,-0.519156 0.316022,0 0.578493,0.525645 0.582834,1.168102 0.0067,0.944574 0.109841,1.019083 0.535147,0.389367 0.443221,-0.656245 0.527088,-0.627884 0.534086,0.184544 0.0057,0.657178 0.276552,0.865932 0.850938,0.655029 0.468679,-0.172089 1.354679,0.14672 1.99541,0.717897 0.633754,0.564956 1.265257,0.918683 1.404099,0.785832 0.435946,-0.417142 -0.974231,-1.707942 -3.683509,-3.371475 -1.437069,-0.882379 -2.738595,-2.063194 -2.891912,-2.624173 -0.435041,-1.591843 0.363717,-1.211098 2.304841,1.100165 1.335122,1.589693 1.935497,1.971423 2.397035,1.525022 0.46003,-0.444949 0.381065,-0.722098 -0.311551,-1.096109 -0.509821,-0.275303 -0.801184,-0.814229 -0.647475,-1.197507 0.179622,-0.447892 -0.506617,-0.997618 -1.921231,-1.539218 -1.210549,-0.463461 -2.200991,-1.077981 -2.200991,-1.365827 0,-0.719521 0.362963,-0.65963 1.918052,0.315347 0.857551,0.537643 1.337338,0.623977 1.337338,0.24234 0,-0.327338 -0.386775,-0.737008 -0.859415,-0.910552 -0.688254,-0.252715 -0.71632,-0.3997 -0.13882,-0.741218 0.566118,-0.334782 0.488528,-0.595143 -0.361357,-1.209675 -0.596978,-0.431662 -0.777767,-0.789929 -0.403746,-0.799014 1.087523,-0.02648 0.779629,-1.054536 -0.315788,-1.054536 -1.267063,0 -6.241495,-2.004979 -8.996832,-3.625983 -3.70414,-2.179206 -1.24311,-1.682142 3.755569,0.758454 5.330518,2.602605 5.150129,2.536669 5.150129,1.869775 0,-0.26313 -1.709085,-1.232403 -3.797955,-2.153688 -4.633683,-2.043656 -5.055323,-2.974941 -0.554222,-1.224886 3.759868,1.461853 4.786364,1.609298 3.874253,0.557689 -0.33556,-0.386881 -2.380062,-1.206437 -4.542922,-1.821104 -4.155422,-1.18093 -7.458152,-2.818886 -7.458152,-3.697974 0,-0.743484 -0.0208,-0.749205 4.948788,1.550371 2.468303,1.142143 4.977384,2.076626 5.575069,2.076626 1.651958,0 0.455804,-0.737659 -3.346524,-2.063444 -1.871405,-0.652523 -3.534693,-1.390135 -3.695163,-1.638588 -0.46267,-0.716317 0.57102,-0.532176 3.299895,0.587094 2.966322,1.216659 3.526673,1.274293 3.526673,0.366046 0,-0.395878 -1.299956,-0.94755 -3.165316,-1.343521 -3.318552,-0.704459 -4.877632,-1.364953 -4.369132,-1.851522 0.1662,-0.159033 1.714546,0.175283 3.439778,0.743244 1.725231,0.567959 3.382847,0.8872 3.684566,0.708771 0.773661,-0.457517 -0.499401,-1.031396 -3.250091,-1.465197 -1.266683,-0.199766 -2.464523,-0.614003 -2.661963,-0.919678 -0.24102,-0.373165 0.0697,-0.427068 0.946314,-0.165277 0.718084,0.214441 2.016261,0.5171 2.884495,0.672267 1.290258,0.230586 1.518245,0.129384 1.245145,-0.551606 -0.183783,-0.458252 -0.09739,-0.973136 0.192865,-1.14478 0.76608,-0.453036 0.06797,-1.283085 -0.808549,-0.961249 -1.205042,0.442466 -1.520985,-0.735346 -0.357119,-1.331353 0.708325,-0.362745 1.180975,-0.371811 1.4041,-0.02636 0.373154,0.577728 2.429841,0.691922 3.748149,0.207866 0.468781,-0.172133 1.113617,-1.240835 1.43271,-2.374736 0.481001,-1.70923 0.713757,-1.955586 1.360652,-1.441876 1.552051,1.232519 8.380086,-1.232868 8.380086,-3.025709 0,-0.443032 -0.153126,-0.65858 -0.340163,-0.47961 -0.187044,0.178967 -1.036345,-0.01851 -1.886262,-0.439053 -0.849917,-0.420548 -3.077301,-0.869302 -4.949846,-0.99674 -3.33392,-0.226887 -3.346422,-0.222839 -0.637938,0.199755 3.904939,0.60927 6.914301,1.632723 6.360304,2.162812 -0.262672,0.251346 -1.63323,0.113031 -3.120808,-0.315346 -1.458599,-0.420035 -3.589571,-0.763524 -4.735787,-0.763524 -1.952567,0 -2.083365,-0.09831 -2.083365,-1.553414 0,-0.917024 -0.389764,-1.785124 -0.950549,-2.120229 -0.737514,-0.440707 -0.904357,-1.10533 -0.749205,-2.971968 0.109891,-1.322104 0.511933,-2.878614 0.893324,-3.459689 1.063156,-1.619788 1.503141,-3.39277 0.84246,-3.39277 -0.318519,0 -0.578595,0.235579 -0.578595,0.524229 0,0.288645 -0.518038,1.579383 -1.150832,2.867527 -0.765944,1.559167 -1.042739,2.858412 -0.827623,3.887588 0.282747,1.352735 0.168734,1.546316 -0.91134,1.546316 -0.678884,0 -1.505416,0.259188 -1.837514,0.576952 -0.332083,0.317767 -0.869869,0.421008 -1.194279,0.22916 -0.958279,-0.566696 -0.674044,-1.325269 0.495938,-1.325269 0.596816,0 1.085129,-0.261154 1.085129,-0.579995 0,-0.560383 -0.866302,-0.46445 -2.848465,0.316361 -0.546977,0.215466 -0.949492,0.145413 -0.949492,-0.166292 0,-0.297605 0.854543,-0.837142 1.89898,-1.198521 1.044438,-0.36138 1.898977,-0.8436 1.898977,-1.071775 0,-0.71333 -1.157007,-0.457618 -3.084778,0.682407 -1.020749,0.603644 -2.026199,0.934829 -2.233839,0.736147 -0.53513,-0.512048 1.40914,-1.759774 3.815967,-2.449768 1.876223,-0.537878 2.813844,-1.460128 1.484636,-1.460128 -0.972396,0 -4.514743,1.562458 -5.524203,2.436588 -0.53313,0.461665 -0.96856,0.5926 -0.96856,0.291011 0,-0.755332 3.325451,-2.565998 5.959735,-3.244725 2.045888,-0.527136 2.57948,-1.002653 1.878844,-1.673065 -0.355429,-0.340089 -5.298029,1.875022 -7.463449,3.345112 -0.8378,0.568787 -1.6851,0.879958 -1.88308,0.690518 -0.39929,-0.382058 -0.50711,-0.297262 3.83928,-3.01354 1.713357,-1.070761 3.705856,-1.946838 4.428477,-1.946838 0.72262,0 1.4755,-0.249101 1.672202,-0.553632 0.576693,-0.892862 -0.03438,-1.072417 -1.649949,-0.48468 -0.828806,0.301489 -1.638604,0.421519 -1.799366,0.267692 -0.160762,-0.153831 0.72763,-0.663056 1.974217,-1.131601 1.246586,-0.468547 2.266692,-1.173655 2.266692,-1.567607 0,-0.393957 0.366231,-0.850639 0.813847,-1.014992 0.447611,-0.164361 0.813848,-0.651323 0.813848,-1.081917 0,-0.682738 -0.171101,-0.675402 -1.337338,0.05578 -1.536143,0.963097 -1.918052,1.033333 -1.918052,0.35286 0,-0.267054 0.854534,-0.781371 1.898977,-1.142752 1.212139,-0.419405 1.898978,-0.994735 1.898978,-1.590928 0,-0.513711 0.244149,-0.933875 0.542565,-0.933875 0.29841,0 0.542565,-0.357694 0.542565,-0.794958 0,-0.437271 0.36623,-0.929727 0.813847,-1.094081 0.447611,-0.16436 0.813847,-0.617075 0.813847,-1.005867 0,-0.453346 -0.340567,-0.587653 -0.949489,-0.375172 -0.850698,0.296844 -0.841834,0.21299 0.0869,-0.799013 0.570121,-0.621233 1.151148,-1.018746 1.29177,-0.884191 0.140621,0.13456 1.226868,-0.922754 2.41399,-2.349385 1.586324,-1.906389 2.335551,-2.452914 2.827273,-2.062427 0.488346,0.3878 0.838888,0.175357 1.297068,-0.786848 0.766129,-1.608923 0.77536,-1.788655 0.08584,-1.788655 z M 71.689838,13.64567 c -0.268939,0 -0.644556,0.467241 -0.833982,1.038312 -0.189429,0.57107 -0.571569,1.038311 -0.849879,1.038311 -0.27829,0 -0.50653,0.233621 -0.50653,0.519156 0,0.701744 0.48245,0.653282 1.290708,-0.129788 0.921503,-0.89282 1.495387,-2.465991 0.899683,-2.465991 z m -27.95481,0.150067 c -0.54854,0.03333 -2.99153,2.176941 -2.99153,2.680957 0,0.579197 0.63088,0.247057 1.98164,-1.045415 0.76411,-0.73114 1.25637,-1.457488 1.0936,-1.613234 -0.0184,-0.01766 -0.0472,-0.0245 -0.0837,-0.02233 z m 40.624549,0.04865 c -0.06485,-0.0025 -0.136276,0.01672 -0.210878,0.06083 -0.298411,0.176474 -0.542565,0.54047 -0.542565,0.809154 0,0.268683 0.244154,0.488737 0.542565,0.488737 0.29841,0 0.542565,-0.365012 0.542565,-0.810168 0,-0.333875 -0.137125,-0.540318 -0.331687,-0.548562 z m -21.72379,0.02029 c -0.0406,0.0025 -0.0724,0.01453 -0.0954,0.03649 -0.183509,0.1756 -0.0147,0.508639 0.37514,0.73919 0.38986,0.230548 0.74885,0.626523 0.79795,0.88013 0.0491,0.253612 0.27213,0.402954 0.49594,0.331569 0.22381,-0.07139 0.40692,0.103832 0.40692,0.389368 0,0.285536 0.244161,0.519156 0.54257,0.519156 0.83388,0 0.664341,-0.35599 -0.87107,-1.825154 -0.68047,-0.651111 -1.36797,-1.089191 -1.65207,-1.070761 z m -10.496299,0.300135 c -0.22961,0 -0.54069,0.449059 -0.69093,0.998766 -0.18148,0.664069 -0.0426,0.915091 0.41435,0.747299 0.77197,-0.283453 1.902149,2.323314 1.902149,4.387481 0,1.797786 0.60163,1.082871 0.65701,-0.78076 0.0468,-1.574561 -1.564379,-5.352786 -2.282579,-5.352786 z m 30.349725,0.519156 c -0.316023,0 -0.423926,0.23362 -0.239492,0.519154 0.184429,0.285536 0.443821,0.519157 0.575416,0.519157 0.131587,0 0.238432,-0.233621 0.238432,-0.519157 0,-0.285534 -0.258334,-0.519154 -0.574356,-0.519154 z m -1.397741,0.698626 c -0.08224,-0.01195 -0.138439,0.177666 -0.154717,0.555664 -0.02355,0.547274 0.104766,0.853903 0.285059,0.681393 0.180274,-0.17251 0.199125,-0.619946 0.04239,-0.994714 -0.06495,-0.155306 -0.123389,-0.235194 -0.172732,-0.242343 z m -45.978144,0.02233 c -0.19773,0.0064 -0.33804,0.211655 -0.33804,0.54552 0,0.911914 0.32648,1.046593 0.79159,0.326502 0.17168,-0.265808 0.0638,-0.629798 -0.23949,-0.809152 -0.0758,-0.04486 -0.14814,-0.06499 -0.21406,-0.06288 z m 31.977419,0.836532 c -0.13159,0 -0.39098,0.233622 -0.57541,0.519157 -0.18443,0.285536 -0.0765,0.519157 0.23949,0.519157 0.31602,0 0.57436,-0.233621 0.57436,-0.519157 0,-0.285535 -0.10684,-0.519157 -0.23844,-0.519157 z m 1.32357,0 c -0.29841,0 -0.54257,0.233622 -0.54257,0.519157 0,0.285536 0.24416,0.519157 0.54257,0.519157 0.2984,0 0.54256,-0.233621 0.54256,-0.519157 0,-0.285535 -0.24416,-0.519157 -0.54256,-0.519157 z m 19.079846,0 c -0.451045,0 -1.108116,0.989185 -1.466621,2.206416 -0.06307,0.214151 -0.174271,0.564582 -0.246909,0.778734 -0.0727,0.214153 -0.103143,0.564588 -0.06782,0.778735 0.03533,0.214153 -0.180573,0.389367 -0.478983,0.389367 -0.298411,0 -0.542565,0.233621 -0.542565,0.519156 0,1.647351 1.80715,-0.703114 2.394916,-3.114939 0.03479,-0.142766 0.258027,-0.551602 0.494878,-0.908522 0.236851,-0.356921 0.197197,-0.648947 -0.08689,-0.648947 z m -50.434165,0.05375 c -0.21474,-3.01e-4 -0.40467,0.05057 -0.52879,0.169334 -0.2023,0.193573 -0.009,0.569879 0.43024,0.835516 1.05026,0.635576 1.61179,0.622878 1.61179,-0.03649 0,-0.501869 -0.86903,-0.967455 -1.51324,-0.968347 z m 42.661286,0.0081 c -0.08151,-0.0069 -0.293712,0.0515 -0.63476,0.155139 -0.546617,0.166073 -1.218047,0.302165 -1.492053,0.302165 -0.274001,0 -0.499117,0.233621 -0.499117,0.519156 0,0.751709 0.725749,0.638153 1.931828,-0.302165 0.602342,-0.469616 0.829958,-0.662801 0.694102,-0.674295 z m -39.857336,0.139969 c -0.0659,-0.0021 -0.13823,0.01802 -0.21406,0.06288 -0.30327,0.179353 -0.41117,0.543343 -0.23948,0.809153 0.4651,0.720091 0.79053,0.58541 0.79053,-0.326504 0,-0.33388 -0.13925,-0.539154 -0.33699,-0.545519 z m -18.07737,0.836532 c -0.31603,0 -0.57542,0.233621 -0.57542,0.519156 0,0.285538 0.1079,0.519157 0.23949,0.519157 0.1316,0 0.38993,-0.233619 0.57436,-0.519157 0.18443,-0.285535 0.0776,-0.519156 -0.23843,-0.519156 z m 54.013825,0.178461 c -0.194561,-0.03131 -0.332744,0.08247 -0.332744,0.309261 0,0.302389 0.244148,0.550591 0.542565,0.550591 0.29841,0 0.542565,-0.103239 0.542565,-0.229159 0,-0.125917 -0.244155,-0.373102 -0.542565,-0.549575 -0.0746,-0.04413 -0.144968,-0.07068 -0.209821,-0.08112 z m -52.418985,0.340695 c -0.29841,0 -0.54256,0.233622 -0.54256,0.519157 0,0.285536 0.24415,0.519157 0.54256,0.519157 0.29842,0 0.54257,-0.233621 0.54257,-0.519157 0,-0.285535 -0.24415,-0.519157 -0.54257,-0.519157 z m 51.001111,0 c -0.298417,0 -0.542565,0.363996 -0.542565,0.809154 0,0.445165 0.244148,0.665211 0.542565,0.488739 0.29841,-0.176473 0.542565,-0.541486 0.542565,-0.81017 0,-0.268684 -0.244155,-0.487723 -0.542565,-0.487723 z m -23.945981,0.0071 c -0.0603,-0.0037 -0.27322,0.244481 -0.69622,0.741219 -0.47198,0.554263 -0.83274,1.722365 -0.80219,2.595784 l 0.0551,1.587886 0.4207,-1.557469 c 0.23095,-0.856609 0.59171,-2.02471 0.8022,-2.595782 0.18863,-0.51181 0.28068,-0.76776 0.22041,-0.771638 z m -25.21655,0.191641 c -0.0649,-0.0025 -0.13628,0.01672 -0.21088,0.06083 -0.29841,0.176471 -0.54257,0.540467 -0.54257,0.809152 0,0.268684 0.24416,0.488738 0.54257,0.488738 0.29841,0 0.54256,-0.365019 0.54256,-0.81017 0,-0.333874 -0.13712,-0.540317 -0.33168,-0.54856 z m 47.20315,0.519157 c -0.06485,-0.0025 -0.136277,0.01672 -0.210879,0.06083 -0.298417,0.176473 -0.542565,0.540469 -0.542565,0.809153 0,0.268685 0.244148,0.488739 0.542565,0.488739 0.29841,0 0.542565,-0.365019 0.542565,-0.81017 0,-0.333874 -0.137125,-0.540318 -0.331686,-0.548561 z m -45.78634,0.320419 c -0.29841,0 -0.54256,0.233619 -0.54256,0.519156 0,0.285535 0.24415,0.519156 0.54256,0.519156 0.29842,0 0.54257,-0.233621 0.54257,-0.519156 0,-0.285537 -0.24415,-0.519156 -0.54257,-0.519156 z m 43.947769,0.519156 c -0.29841,0 -0.54257,0.23362 -0.54257,0.519156 0,0.28553 0.24416,0.519157 0.54257,0.519157 0.298402,0 0.542562,-0.233627 0.542562,-0.519157 0,-0.285536 -0.24416,-0.519156 -0.542562,-0.519156 z m -42.524599,0.20178 c -0.19773,0.0064 -0.33804,0.21166 -0.33804,0.545519 0,0.911915 0.32649,1.046593 0.7916,0.326502 0.17168,-0.265808 0.0638,-0.629798 -0.23949,-0.809151 -0.0758,-0.04486 -0.14815,-0.06499 -0.21407,-0.06287 z m 1.83222,0.317376 c -0.29841,0 -0.54256,0.233619 -0.54256,0.519157 0,0.285535 0.24415,0.519156 0.54256,0.519156 0.29842,0 0.54257,-0.233621 0.54257,-0.519156 0,-0.285538 -0.24415,-0.519157 -0.54257,-0.519157 z m 39.032889,0 c -0.31602,0 -0.42392,0.233619 -0.23949,0.519157 0.18443,0.285535 0.44382,0.519156 0.57541,0.519156 0.13159,0 0.23844,-0.233621 0.23844,-0.519156 0,-0.285538 -0.25834,-0.519157 -0.57436,-0.519157 z m -49.462429,0.519157 c -0.29553,0 -0.38883,0.36966 -0.2077,0.821321 0.18113,0.451655 0.32851,1.198835 0.32851,1.660895 0,0.541106 0.1876,0.661088 0.52561,0.337653 0.62748,-0.600403 0.1186,-2.819869 -0.64642,-2.819869 z m 47.866529,0 c -0.29841,0 -0.54257,0.233619 -0.54257,0.519156 0,0.285535 0.24416,0.519157 0.54257,0.519157 0.29841,0 0.54256,-0.233622 0.54256,-0.519157 0,-0.285537 -0.24415,-0.519156 -0.54256,-0.519156 z m -35.476549,0.198738 c -0.19455,0.0082 -0.33274,0.214697 -0.33274,0.548561 0,0.445156 0.24415,0.81017 0.54256,0.81017 0.29842,0 0.54257,-0.220055 0.54257,-0.488739 0,-0.268684 -0.24415,-0.63268 -0.54257,-0.809153 -0.0746,-0.04413 -0.14496,-0.06358 -0.20982,-0.06083 z m 34.110599,0.04257 c -0.18404,0.0062 -0.45533,0.09913 -0.80431,0.277831 -0.59682,0.305629 -1.08513,0.789279 -1.08513,1.074816 0,0.333911 0.38716,0.320922 1.08513,-0.03649 0.59682,-0.305627 1.08513,-0.789279 1.08513,-1.074815 0,-0.166954 -0.0968,-0.247523 -0.28082,-0.24133 z m -32.273079,0.796988 c -0.29841,0 -0.54257,0.23362 -0.54257,0.519157 0,0.285535 0.24416,0.519156 0.54257,0.519156 0.29841,0 0.54256,-0.233621 0.54256,-0.519156 0,-0.285537 -0.24415,-0.519157 -0.54256,-0.519157 z m 29.429909,0.06489 c -0.31579,-0.01828 -0.85176,0.210124 -1.73155,0.676326 -0.73099,0.387353 -1.64657,0.587617 -2.03462,0.445135 -0.72416,-0.265901 -0.975279,0.457975 -0.36241,1.044397 0.18844,0.180314 0.79883,0.09491 1.35641,-0.190628 0.55759,-0.285536 1.01307,-0.36624 1.01307,-0.178461 0,0.18778 0.3286,0.08177 0.72907,-0.236257 0.40047,-0.31802 0.88878,-0.425148 1.08513,-0.237271 0.19635,0.187883 0.35606,-0.0473 0.35606,-0.52321 0,-0.51719 -0.0954,-0.781731 -0.41116,-0.800031 z m 21.23951,0.653 c -0.06485,-0.0025 -0.136276,0.01672 -0.210878,0.06083 -0.298411,0.176472 -0.542565,0.540468 -0.542565,0.809152 0,0.268684 0.244154,0.488739 0.542565,0.488739 0.29841,0 0.542565,-0.365013 0.542565,-0.810169 0,-0.333874 -0.137125,-0.540317 -0.331687,-0.548562 z m -48.836149,0.0032 c -0.0659,-0.0021 -0.13823,0.01802 -0.21406,0.06287 -0.30327,0.179353 -0.41117,0.543343 -0.23948,0.809151 0.4651,0.720092 0.79053,0.585411 0.79053,-0.326502 0,-0.33388 -0.13925,-0.539155 -0.33699,-0.54552 z m 1.6277,0.519157 c -0.0659,-0.0021 -0.13824,0.01802 -0.21406,0.06288 -0.30328,0.179353 -0.41117,0.543343 -0.23949,0.809151 0.46511,0.720091 0.79053,0.585411 0.79053,-0.326502 0,-0.333881 -0.13924,-0.539154 -0.33698,-0.545519 z m 41.7828,0.492794 c 0.194561,-0.03598 0.331686,0.06773 0.331686,0.281885 0,0.285536 -0.244155,0.664116 -0.542565,0.840588 -0.298418,0.176471 -0.542565,0.08679 -0.542565,-0.198738 0,-0.285537 0.244147,-0.663103 0.542565,-0.839575 0.0746,-0.04413 0.146026,-0.07218 0.210879,-0.08416 z m -21.038171,0.02331 c -0.19456,0.0082 -0.33274,0.214697 -0.33274,0.548561 0,0.445156 0.24415,0.81017 0.54256,0.81017 0.29841,0 0.542571,-0.220054 0.542571,-0.48874 0,-0.268684 -0.244161,-0.632679 -0.542571,-0.809152 -0.0746,-0.04413 -0.14496,-0.06358 -0.20982,-0.06084 z m -18.574369,0.0032 c -0.0659,-0.0021 -0.13824,0.01801 -0.21406,0.06288 -0.30328,0.179353 -0.41117,0.543344 -0.23949,0.809152 0.46511,0.720091 0.79053,0.585411 0.79053,-0.326503 0,-0.33388 -0.13924,-0.539155 -0.33698,-0.54552 z m -18.23103,0.317377 c -0.29554,0 -0.38884,0.369659 -0.2077,0.821321 0.18113,0.451654 0.3285,1.049282 0.3285,1.328312 0,0.279036 0.22131,0.37588 0.4917,0.215976 0.62323,-0.36856 0.1062,-2.365609 -0.6125,-2.365609 z m 19.49631,0.05983 c -0.28364,0.0021 -0.38573,0.141988 -0.38573,0.420796 0,0.264599 0.42727,0.574011 0.94949,0.687478 1.40845,0.306032 2.12803,-0.247576 0.91345,-0.70269 -0.72842,-0.27294 -1.19358,-0.407873 -1.47721,-0.405584 z m 43.019466,0.459328 c -0.298417,0 -0.542565,0.233621 -0.542565,0.519157 0,0.285535 0.244148,0.519157 0.542565,0.519157 0.298405,0 0.542565,-0.233622 0.542565,-0.519157 0,-0.285536 -0.24416,-0.519157 -0.542565,-0.519157 z m -9.842469,0.259579 0.03073,1.038312 c 0.01641,0.571072 -0.207719,1.388742 -0.496998,1.817047 -0.467528,0.692208 -0.522469,0.692208 -0.495938,0 0.0164,-0.428305 0.239473,-1.245975 0.495938,-1.817047 z m -26.198907,0.576884 c 0.092,-0.0032 0.18751,0.0071 0.28295,0.02435 l -1.14023,1.244154 c -1.09231,1.191692 -0.97767,0.465476 0.14624,-0.926778 0.18343,-0.227229 0.43559,-0.332114 0.71104,-0.341709 z m 0.29885,0.0284 c 0.75707,0.144991 1.56093,0.89297 1.56093,1.769389 0,1.64953 -1.83175,4.639987 -4.8799,7.963776 -3.84545,4.193193 -4.15308,4.460236 -4.63724,4.042729 -0.23257,-0.200554 -0.26266,-0.09569 -0.0668,0.232202 0.43689,0.73121 -6.75941,6.702495 -9.33594,7.746788 -1.00628,0.407859 -2.2593,0.742233 -2.78488,0.742233 -1.13175,0 -1.6896,-1.576691 -0.98445,-2.782355 0.66449,-1.136158 2.16652,-1.094241 2.04415,0.05678 -0.19485,1.83296 0.0774,1.785131 2.60474,-0.456291 1.41745,-1.25709 3.18756,-2.756194 3.93359,-3.330917 2.48843,-1.91702 10.21007,-9.967868 11.00283,-11.472141 0.4302,-0.8163 0.95432,-2.171725 1.16567,-3.012525 z m 34.657396,0.692544 c -0.298418,0 -0.542565,0.233621 -0.542565,0.519156 0,0.285537 0.244147,0.519157 0.542565,0.519157 0.29841,0 0.542565,-0.23362 0.542565,-0.519157 0,-0.285535 -0.244155,-0.519156 -0.542565,-0.519156 z m -6.749212,0.519156 c 0.131588,0 0.238432,0.233621 0.238432,0.519157 0,0.285537 -0.258334,0.519157 -0.574356,0.519157 -0.316023,0 -0.423926,-0.23362 -0.239492,-0.519157 0.184429,-0.285536 0.443822,-0.519157 0.575416,-0.519157 z m -20.482884,0.07605 c 1.49299,-0.02429 2.816669,0.988452 2.816669,2.222643 0,0.969224 -0.6211,1.052397 -1.51007,0.201781 -0.35312,-0.337897 -0.79349,-0.469681 -0.97916,-0.292025 -0.524879,0.502242 4.30396,6.228032 7.77394,9.217052 4.36823,3.762763 10.992242,8.01435 10.992242,7.055256 0,-0.512953 0.545422,-0.74564 1.6775,-0.714854 1.87536,0.05102 2.586596,1.05862 1.572591,2.227708 -0.940857,1.084757 -2.548354,0.955913 -5.691634,-0.457304 C 66.853147,43.354508 57.646087,35.749774 54.471878,31.2131 c -1.79192,-2.561071 -1.56243,-4.784209 0.517129,-5.013106 0.1007,-0.01106 0.200361,-0.01661 0.299901,-0.01828 z m -33.08269,0.35084 c -0.24272,0.07616 -0.3153,0.737545 -0.0954,1.542258 0.17217,0.629985 0.54497,1.145794 0.82868,1.145794 0.45173,0 0.11371,-1.967078 -0.43872,-2.553195 -0.11412,-0.121088 -0.21368,-0.160244 -0.29459,-0.134857 z m 59.805071,0.611426 c -0.316022,0 -0.575416,0.233621 -0.575416,0.519157 0,0.285536 0.107903,0.519156 0.239492,0.519156 0.131593,0 0.389922,-0.23362 0.574356,-0.519156 0.184429,-0.285536 0.07759,-0.519157 -0.238432,-0.519157 z m -53.267801,1.038313 c 0.29841,0 0.693,0.23362 0.87743,0.519156 0.18443,0.285538 0.0918,0.519157 -0.20664,0.519157 -0.29841,0 -0.69406,-0.233619 -0.87849,-0.519157 -0.18443,-0.285536 -0.0907,-0.519156 0.2077,-0.519156 z m 52.149821,0.519156 c -0.298417,0 -0.542565,0.233621 -0.542565,0.519157 0,0.285536 0.244148,0.519156 0.542565,0.519156 0.29841,0 0.542564,-0.23362 0.542564,-0.519156 0,-0.285536 -0.244154,-0.519157 -0.542564,-0.519157 z m 10.205943,0.519157 c -0.92593,0 -1.000792,0.130714 -0.444012,0.772651 0.368765,0.425157 0.869569,0.655829 1.112681,0.512059 0.243113,-0.143771 0.597616,0.208586 0.788416,0.783807 0.35533,1.071248 1.358532,1.460792 1.358532,0.527265 0,-0.285536 -0.227178,-0.519155 -0.505476,-0.519155 -0.278303,0 -0.661511,-0.467243 -0.850937,-1.038314 -0.197218,-0.594575 -0.820713,-1.038313 -1.459204,-1.038313 z m -18.113404,0.05881 c 0.222536,0.01828 0.311551,0.200767 0.20982,0.492793 -0.130563,0.374764 -0.557833,0.783604 -0.949489,0.908523 -0.406924,0.129789 -0.610386,-0.06489 -0.474744,-0.454261 0.130552,-0.374764 0.557822,-0.7836 0.949488,-0.908524 0.101731,-0.03244 0.190746,-0.0446 0.264925,-0.03853 z m -44.49033,0.460346 c 0.56024,0 6.27977,3.107613 6.27977,3.412036 0,0.121816 -0.18312,0.216197 -0.40692,0.208876 -0.57764,-0.01885 -6.41989,-3.620912 -5.87285,-3.620912 z m 60.943189,0.08517 c -0.134153,0.0075 -0.436585,0.08544 -0.918757,0.21395 -1.804567,0.480951 -3.245237,2.25173 -3.267048,4.014335 -0.01044,0.843469 0.209683,1.323263 0.523492,1.137684 0.29841,-0.176471 0.542565,-0.881875 0.542565,-1.567608 0,-1.224846 0.26909,-1.572005 2.441542,-3.149416 0.657579,-0.477468 0.901796,-0.661591 0.678206,-0.648945 z m -75.998309,0.150072 c -0.47423,-0.0299 -0.91028,0.158255 -0.91028,0.589118 0,0.403042 0.50901,0.733107 1.1307,0.733107 0.62169,0 1.03547,-0.272356 0.91982,-0.60433 -0.15347,-0.440541 -0.666,-0.688012 -1.14024,-0.717895 z m 2.34511,0.283911 c -0.74922,0 -0.67964,0.933022 0.13565,1.819078 0.79934,0.868735 1.49205,0.988374 1.49205,0.257548 0,-0.285536 -0.24415,-0.519157 -0.54257,-0.519157 -0.29841,0 -0.54256,-0.350429 -0.54256,-0.778735 0,-0.428303 -0.24415,-0.778734 -0.54257,-0.778734 z m 64.598086,0 c -0.316022,0 -0.575415,0.23362 -0.575415,0.519157 0,0.285535 0.107903,0.519157 0.23949,0.519157 0.131595,0 0.389922,-0.233622 0.574357,-0.519157 0.184429,-0.285537 0.07759,-0.519157 -0.238432,-0.519157 z m -68.906816,0.656043 c -0.19635,1.92e-4 -0.45519,0.05072 -0.76722,0.165278 -1.4293203,0.524821 -1.9713403,3.338094 -0.9675003,5.019188 0.8668503,1.451692 1.7029303,1.879299 1.7029303,0.871007 0,-0.305927 -0.37411,-0.914646 -0.83186,-1.352643 -0.9506503,-0.909635 -0.60798,-2.672975 0.71212,-3.666542 0.76964,-0.57927 0.74059,-1.036854 0.15153,-1.036288 z m 78.981357,0.87101 c -1.397051,0.06583 -2.690482,1.334242 -1.903216,2.741793 0.663688,1.18661 1.098989,1.160991 2.866482,-0.169337 1.148583,-0.864489 1.318785,-1.242212 0.820206,-1.817048 -0.492158,-0.567428 -1.148448,-0.785338 -1.783472,-0.755408 z m -10.649956,0.03042 c -0.298417,0 -0.542565,0.233622 -0.542565,0.519157 0,0.285536 0.244148,0.519157 0.542565,0.519157 0.298409,0 0.542565,-0.233621 0.542565,-0.519157 0,-0.285535 -0.244156,-0.519157 -0.542565,-0.519157 z m -9.097502,0.532152 c 0.465301,-0.0091 0.38794,0.172283 -0.0827,0.714852 -0.84971,0.979665 -2.40166,1.114546 -2.08018,0.180491 0.12285,-0.356921 0.80275,-0.730631 1.51113,-0.829436 0.281119,-0.03919 0.49661,-0.06288 0.65171,-0.06591 z m -57.494929,0.15514 c -1.61174,0.04029 -2.40032,1.750023 -0.9177,3.168682 1.0664,1.020372 1.27124,1.016606 2.49559,-0.04362 1.3631,-1.180369 1.24345,-2.168808 -0.34758,-2.862457 -0.44176,-0.192597 -0.85837,-0.271918 -1.23031,-0.26262 z m 76.934015,0.350836 c 0.2808,0 0.509716,0.233619 0.509716,0.519155 0,0.285537 -0.380411,0.519157 -0.845639,0.519157 -0.465238,0 -0.695203,-0.23362 -0.510774,-0.519157 0.184428,-0.285536 0.565899,-0.519155 0.846697,-0.519155 z m 3.765106,0 c -0.298411,0 -0.542565,0.233619 -0.542565,0.519155 0,0.285537 0.244154,0.519157 0.542565,0.519157 0.298409,0 0.542565,-0.23362 0.542565,-0.519157 0,-0.285536 -0.244156,-0.519155 -0.542565,-0.519155 z M 17.748078,33.38282 c -0.18125,-0.001 -0.33723,0.280771 -0.34229,0.899399 -0.004,0.499688 -0.0906,1.375764 -0.19286,1.946836 -0.10229,0.571073 -0.0806,0.746288 0.0477,0.389368 0.12827,-0.35692 0.43324,-0.648946 0.6782,-0.648946 0.24497,0 0.40968,-0.584253 0.36666,-1.297892 -0.0494,-0.819607 -0.32438,-1.287575 -0.5574,-1.288765 z m -4.37126,0.510031 c 0.46525,0 0.69415,0.23362 0.50972,0.519157 -0.18443,0.285535 -0.56485,0.519155 -0.84564,0.519155 -0.2808,0 -0.51078,-0.23362 -0.51078,-0.519155 0,-0.285537 0.38147,-0.519157 0.8467,-0.519157 z m 79.963695,0.519157 c -0.316023,0 -0.423921,0.233619 -0.239492,0.519155 0.184428,0.285537 0.443822,0.519157 0.575416,0.519157 0.131593,0 0.238432,-0.23362 0.238432,-0.519157 0,-0.285536 -0.258335,-0.519155 -0.574356,-0.519155 z M 86.8043,35.45032 c -0.672135,0 -0.606095,0.437586 0.192864,1.267472 0.373014,0.387452 0.745996,0.643971 0.827625,0.570869 C 88.134017,37.011733 87.267173,35.45032 86.8043,35.45032 Z m -22.865083,0.04865 c 0.20744,-0.01849 0.4709,0.150977 0.66549,0.452232 0.39366,0.609465 0.61586,0.61602 1.34051,0.04054 0.47757,-0.379229 1.02702,-0.537245 1.22183,-0.350835 0.19481,0.186407 -0.11588,0.679833 -0.69092,1.096108 -0.57504,0.416269 -1.19881,0.763565 -1.38608,0.77265 -0.61968,0.03005 -1.72045,-1.558963 -1.33522,-1.927569 0.052,-0.04974 0.11524,-0.07699 0.18439,-0.08315 z m -34.197499,0.351848 c 0.19601,0.0285 0.81828,0.324669 1.8619,0.88115 1.38879,0.74053 2.8229,1.689853 3.1865,2.109072 1.06555,1.228505 -0.1155,0.813106 -2.45637,-0.863909 -2.06177,-1.477055 -2.91869,-2.173774 -2.59203,-2.126313 z m 63.08802,0.118637 c -0.29841,0 -0.542564,0.233622 -0.542564,0.519157 0,0.285537 0.244154,0.519157 0.542564,0.519157 0.298411,0 0.542566,-0.23362 0.542566,-0.519157 0,-0.285535 -0.244155,-0.519157 -0.542566,-0.519157 z m -1.837514,0.697618 c -0.194561,-0.0313 -0.332745,0.08247 -0.332745,0.309263 0,0.302387 0.244154,0.55059 0.542565,0.55059 0.298409,0 0.542564,-0.103244 0.542564,-0.22916 0,-0.125916 -0.244155,-0.373103 -0.542564,-0.549574 -0.0746,-0.04412 -0.144968,-0.07068 -0.20982,-0.08112 z m -78.428186,0.328528 c -0.11383,-0.0105 -0.23785,0.03391 -0.35924,0.150068 -0.17909,0.171364 -0.13412,0.607505 0.0996,0.969363 0.34183,0.529217 0.47005,0.529579 0.65383,0.002 0.1967,-0.564636 -0.0527,-1.08999 -0.3942,-1.121459 z m 1.59378,0.01217 c -0.29841,0 -0.54257,0.233621 -0.54257,0.519157 0,0.285536 0.24416,0.519155 0.54257,0.519155 0.29841,0 0.54256,-0.233619 0.54256,-0.519155 0,-0.285536 -0.24415,-0.519157 -0.54256,-0.519157 z m 1.5959,0 c -0.31602,0 -0.42392,0.233621 -0.23949,0.519157 0.18443,0.285536 0.44383,0.519155 0.57541,0.519155 0.1316,0 0.23844,-0.233619 0.23844,-0.519155 0,-0.285536 -0.25834,-0.519157 -0.57436,-0.519157 z m 73.820631,0 c -0.298412,0 -0.542566,0.233621 -0.542566,0.519157 0,0.285536 0.244154,0.519155 0.542566,0.519155 0.29841,0 0.542565,-0.233619 0.542565,-0.519155 0,-0.285536 -0.244155,-0.519157 -0.542565,-0.519157 z m -60.495991,1.934669 1.76333,0.862895 c 0.96984,0.474696 1.76334,0.973854 1.76334,1.10929 0,0.664941 -1.5779,0.118645 -2.49241,-0.862894 z m 12.09856,1.029188 c 0.41501,0.07051 2.17946,1.610261 4.09361,3.586437 2.04175,2.107921 3.3846,3.804494 2.98411,3.76997 -0.9674,-0.08333 -7.71443,-7.0268 -7.14236,-7.350323 0.0153,-0.0088 0.037,-0.01079 0.0646,-0.0061 z m 20.637599,0.02941 1.53656,1.414497 c 2.01067,1.851002 7.74233,5.456215 8.674685,5.456215 0.401346,0 0.729072,0.205481 0.729072,0.457304 0,0.251816 -4.150627,0.488822 -9.223607,0.526254 -5.07298,0.03746 -9.216849,-0.110633 -9.208769,-0.328529 0.0159,-0.428539 2.477239,-2.984524 5.562349,-5.777644 z m -21.704719,1.141739 2.62275,2.643438 c 1.44261,1.453493 2.68403,2.800101 2.7584,2.993263 0.15051,0.39094 -2.37327,0.632147 -2.7584,0.263633 -0.13422,-0.128427 -2.11735,-0.266274 -4.40727,-0.307235 -2.28993,-0.04096 -4.2846,-0.261056 -4.43166,-0.488736 -0.14706,-0.227681 -0.0347,-0.413703 0.24903,-0.413703 0.28375,0 1.74244,-1.0556 3.24161,-2.345331 z m -16.46451,6.297813 c 1.19557,0.03406 1.90639,0.191467 1.90639,0.442094 0,0.300504 0.80614,0.546536 1.79089,0.546536 0.98476,0 2.05898,0.256523 2.3875,0.570868 0.37971,0.363321 3.87736,0.59973 9.60086,0.648945 4.95188,0.04258 9.00473,0.283658 9.00636,0.53538 9.4e-4,0.251724 -1.04035,1.419826 -2.31544,2.595783 -5.31306,4.900016 -5.62114,5.108275 -6.42706,4.357061 -2.40568,-2.24242 -8.01704,-6.35813 -9.41859,-6.908229 -0.90197,-0.354018 -3.06735,-0.650702 -4.81208,-0.660099 -3.05082,-0.01641 -6.32322,-0.863239 -6.32322,-1.636559 0,-0.204039 1.46493,-0.421841 3.25539,-0.483668 0.49777,-0.01719 0.95048,-0.01948 1.349,-0.0081 z m 53.478676,0.21902 c 3.429867,0.104022 9.194995,0.91161 9.194995,1.36887 0,0.622422 -6.376919,0.54715 -6.782064,-0.08011 -0.500569,-0.774997 -3.170724,-0.627284 -4.37231,0.24234 -0.579248,0.419219 -1.541653,0.727811 -2.138469,0.685448 -7.639719,-0.542243 -9.142469,-0.747493 -6.782059,-0.925761 1.34284,-0.101395 3.39175,-0.123395 4.552456,-0.04968 1.226474,0.07789 2.283266,-0.133597 2.523139,-0.504961 0.226993,-0.351448 1.352097,-0.68259 2.500886,-0.735134 0.371042,-0.01697 0.813447,-0.01587 1.303426,-10e-4 z m -43.126496,0.100387 c 2.98647,0.0026 6.93815,0.194474 7.24409,0.467443 0.12434,0.110939 -2.27035,0.201783 -5.3218,0.201783 -3.05146,0 -5.41903,-0.20148 -5.26034,-0.447165 0.10152,-0.157182 1.54617,-0.223666 3.33805,-0.222061 z m 12.42707,0.26769 c 0.4864,0.03968 0.82974,0.19485 0.82974,0.406605 0,0.282337 -0.61038,0.514088 -1.35641,0.514088 -0.74603,0 -1.35641,-0.183348 -1.35641,-0.406606 0,-0.223259 0.61038,-0.453993 1.35641,-0.513074 0.18651,-0.01478 0.36454,-0.01424 0.52667,-10e-4 z m 31.349022,1.495615 c 0.521577,-0.01616 0.975098,0.138748 1.472979,0.440067 1.404728,0.850145 0.06026,3.368192 -1.88944,3.538782 -1.535834,0.134379 -1.564844,0.102533 -0.572237,-0.642862 1.37206,-1.030333 0.757369,-1.575901 -0.863653,-0.766567 -6.050232,3.020738 -22.256832,18.36218 -20.121532,19.047565 1.045521,0.335592 0.80302,2.108195 -0.37089,2.709348 -1.35332,0.693022 -1.8426,0.676536 -2.639709,-0.08618 -1.14733,-1.097834 -0.7094,-2.380711 1.860829,-5.456214 5.39699,-6.457946 12.91971,-13.099592 19.428488,-17.152439 1.76758,-1.100626 2.825869,-1.604555 3.695165,-1.631491 z M 56.802147,50.25945 c 5.10243,0.04313 14.874707,0.463408 14.758408,0.739189 -0.08894,0.210912 -2.136588,1.903523 -4.550338,3.760843 l -4.38821,3.376544 -2.39385,-2.13645 c -1.31639,-1.175318 -3.35637,-2.88617 -4.53339,-3.801401 -1.17702,-0.915231 -2.03156,-1.742259 -1.89898,-1.837327 0.12395,-0.08888 1.30555,-0.115774 3.00636,-0.101394 z m -4.289648,0.765554 c 0.298409,0 0.98373,0.46724 1.523838,1.038313 0.540121,0.571071 0.73819,1.038312 0.43978,1.038312 -0.29841,0 -0.984788,-0.467241 -1.524909,-1.038312 -0.540109,-0.571073 -0.73712,-1.038313 -0.438709,-1.038313 z m -25.648911,0.05374 c 1.25386,-0.05908 2.9476,0.343294 4.44543,1.315129 4.40994,2.861297 9.54504,7.372407 14.04628,12.338075 3.14968,3.474647 3.2722,3.66763 3.70047,5.845581 0.19814,1.007626 0.0704,1.836903 -0.33169,2.146591 -0.82625,0.636417 -2.83938,-0.06095 -3.26916,-1.132614 -0.55275,-1.378278 0.81122,-1.572195 1.86188,-0.264649 0.59452,0.739872 1.00379,0.952372 1.01096,0.525241 0.0217,-1.29121 -2.01702,-3.896803 -5.64607,-7.216478 -1.96109,-1.793908 -3.56588,-3.604465 -3.56588,-4.023461 0,-0.419 -0.27031,-0.761496 -0.60191,-0.761496 -0.3316,0 -1.73549,-0.894318 -3.11975,-1.987396 -2.73218,-2.157455 -7.4081,-5.280795 -7.90534,-5.280795 -0.17004,0 -0.30943,0.35043 -0.30943,0.778734 0,0.995224 -0.76115,0.997818 -1.62134,0.0061 -1.19156,-1.373794 -0.30656,-2.212579 1.30555,-2.288546 z m 23.99366,0.11255 c 0.0223,-0.002 0.045,0.0045 0.0699,0.01926 0.473,0.279716 0.95439,10.661598 0.80961,17.46576 -0.0152,0.71384 -0.26317,2.115563 -0.55104,3.114938 -0.92168,3.199754 -1.42844,0.366957 -0.70364,-3.932204 0.43542,-2.582674 0.52302,-6.061186 0.2628,-10.431798 -0.25468,-4.277664 -0.22161,-6.205989 0.11233,-6.235963 z m -1.47933,1.131599 0.0795,2.336205 c 0.0438,1.284912 0.17451,4.847623 0.29036,7.917136 0.11587,3.069512 0.0991,5.58093 -0.0371,5.58093 -0.13622,0 -0.51451,-0.477056 -0.84034,-1.059606 -0.32583,-0.582551 -2.04541,-2.675615 -3.82233,-4.651113 -3.1812,-3.536706 -3.21198,-3.60039 -2.00389,-4.187727 0.6748,-0.328066 2.37541,-1.797712 3.77994,-3.266022 z m 3.43765,1.298907 c 0.41433,0.07556 1.45997,1.029274 3.59874,3.15854 l 3.733309,3.717239 -1.8852,1.882957 c -1.03706,1.035477 -2.502,2.642221 -3.25539,3.570213 -0.75339,0.927992 -1.584148,1.687259 -1.845999,1.687259 -0.26184,0 -0.461229,-2.874682 -0.44295,-6.388057 0.0183,-3.513375 -0.012,-6.608846 -0.0668,-6.878822 -0.10626,-0.523657 -0.0843,-0.794664 0.164251,-0.749329 z m 3.402689,0.590134 c 0.0808,0.0083 0.25748,0.105182 0.53091,0.289998 0.89523,0.605091 2.32666,1.80396 3.18015,2.663719 0.853491,0.859758 1.46387,1.77622 1.35641,2.037079 -0.10746,0.260862 -1.53889,-0.938005 -3.18015,-2.663718 -1.50388,-1.581264 -2.1296,-2.352139 -1.88732,-2.327078 z m -31.218679,1.346587 c -0.29312,-0.05211 -0.44872,0.179557 -0.66973,0.746289 -0.22438,0.575353 -0.24259,1.300625 -0.0413,1.612223 0.2275,0.352238 0.52132,0.187115 0.77675,-0.437024 0.22595,-0.552123 0.42725,-0.815055 0.44826,-0.584052 0.021,0.231005 0.29729,0.267138 0.61355,0.08011 0.36264,-0.214448 0.21232,-0.594861 -0.40691,-1.029188 -0.31919,-0.223876 -0.54472,-0.357086 -0.72059,-0.388353 z m 52.56734,0.138915 c -0.449487,0 -0.121749,2.273769 0.472625,3.279204 0.448284,0.75831 0.561391,0.130845 0.287179,-1.591944 -0.147708,-0.927992 -0.489578,-1.68726 -0.759804,-1.68726 z m -45.83932,1.048453 c 0.21117,0.0013 0.33486,0.138173 0.33486,0.424857 0,0.239699 -0.66657,0.72665 -1.48145,1.081913 -1.47787,0.644311 -1.47834,0.643031 -0.4578,-0.43601 0.65963,-0.697417 1.25244,-1.073034 1.60439,-1.07076 z m 42.067858,0.05374 c 0.188485,0.0074 0.350687,0.05469 0.440835,0.140944 0.180288,0.17251 -0.140167,0.29529 -0.712117,0.272758 -0.632061,-0.02491 -0.761332,-0.147587 -0.328506,-0.313318 0.19583,-0.075 0.411304,-0.107808 0.599788,-0.100387 z m -40.394598,1.125416 c 0.0513,-0.0049 0.087,5.9e-5 0.10385,0.01622 0.14921,0.142768 -0.8068,0.865098 -2.12469,1.604111 -2.29984,1.289648 -3.11551,1.585365 -3.11551,1.132615 0,-0.374844 4.36768,-2.679463 5.13635,-2.752949 z m -9.68669,1.06569 c -0.19456,-0.0313 -0.33275,0.08247 -0.33275,0.309264 0,0.302387 0.24416,0.550589 0.54257,0.550589 0.29841,0 0.54256,-0.103242 0.54256,-0.229159 0,-0.125916 -0.24415,-0.373104 -0.54256,-0.549575 -0.0746,-0.04412 -0.14497,-0.07068 -0.20982,-0.08112 z m 44.490329,0.519157 c 0.0649,0.01044 0.13521,0.037 0.20982,0.08112 0.2984,0.176473 0.54256,0.42366 0.54256,0.549575 0,0.125917 -0.24416,0.229159 -0.54256,0.229159 -0.29841,0 -0.54257,-0.2482 -0.54257,-0.550587 0,-0.226792 0.13819,-0.340564 0.33275,-0.309264 z m -57.451489,0.204824 c -0.57057,0.03191 -1.1919403,0.176064 -1.7983103,0.438038 l -1.57894,0.682406 1.78983,-0.244368 c 0.9842003,-0.13453 2.2032203,-0.0232 2.7085803,0.247409 1.02263,0.547602 1.47486,0.378293 0.99082,-0.371114 -0.3526,-0.54589 -1.16102,-0.805553 -2.11198,-0.752371 z m 80.408767,0.167306 c -0.32813,-0.03692 -0.502296,0.125115 -0.502296,0.487722 0,0.477811 0.768646,0.730277 1.763336,0.579996 0.223808,-0.03381 0.406923,0.211379 0.406923,0.544505 0,0.333122 0.183582,0.430692 0.406924,0.216993 0.223336,-0.213707 -0.06763,-0.719544 -0.646415,-1.124503 -0.61755,-0.43208 -1.100343,-0.667798 -1.428472,-0.704713 z m -12.648547,0.147026 c -0.194561,-0.0313 -0.332744,0.08247 -0.332744,0.309263 0,0.302388 0.244147,0.55059 0.542565,0.55059 0.29841,0 0.542565,-0.103243 0.542565,-0.229159 0,-0.125915 -0.244155,-0.373103 -0.542565,-0.549575 -0.0746,-0.04412 -0.144967,-0.07068 -0.209821,-0.08112 z m -55.18903,0.340696 c -0.33036,0 -0.46,0.350432 -0.28824,0.778735 0.17177,0.428305 0.075,0.778734 -0.21406,0.778734 -0.28904,0 -0.50696,0.759266 -0.48428,1.687259 l 0.0413,1.687259 0.73119,-1.817049 c 0.91981,-2.285471 0.97742,-3.114938 0.21406,-3.114938 z m 65.707585,0 c -0.29841,0 -0.542564,0.233622 -0.542564,0.519157 0,0.285536 0.244154,0.519157 0.542564,0.519157 0.298411,0 0.542566,-0.233621 0.542566,-0.519157 0,-0.285535 -0.244155,-0.519157 -0.542566,-0.519157 z m -75.218365,0.698632 c -0.0822,-0.01192 -0.13844,0.177665 -0.15472,0.555659 -0.0235,0.547274 0.10477,0.853903 0.28506,0.681392 0.18026,-0.172515 0.19912,-0.619947 0.0424,-0.994711 -0.065,-0.155305 -0.12339,-0.235191 -0.17274,-0.24234 z m -6.8435303,0.05374 c -1.03695,-0.08468 -2.49857,3.300911 -1.77711,4.417899 0.59338,0.91869 1.24237,0.135177 0.97916,-1.182298 -0.14141,-0.707839 0.12046,-1.579448 0.61886,-2.056345 0.47569,-0.455164 0.64626,-0.956532 0.37937,-1.114361 -0.0646,-0.0382 -0.13114,-0.05925 -0.20028,-0.06489 z m 72.0996823,0.36909 c -0.03834,-0.0072 -0.07987,0.0085 -0.123985,0.05071 -0.176438,0.168841 -0.160531,0.791489 0.03603,1.384079 0.363329,1.095353 1.369128,1.505929 1.369128,0.558702 0,-0.285536 -0.244148,-0.519156 -0.542564,-0.519156 -0.298411,0 -0.542565,-0.39004 -0.542565,-0.865936 0,-0.356917 -0.081,-0.58665 -0.196044,-0.608385 z m 8.595204,0.08822 c -0.157753,0.01499 -0.498307,0.436508 -0.960086,1.322226 -0.446916,0.857258 -0.671219,1.692936 -0.499118,1.857608 0.172097,0.16467 0.63783,-0.439968 1.035325,-1.344534 0.528029,-1.201635 0.626705,-1.854585 0.423879,-1.8353 z m -77.384396,0.08417 c -1.6335803,0.06708 -2.8836203,1.891893 -1.5630503,3.155497 0.28987,0.277364 0.63801,1.083963 0.77358,1.791698 0.13558,0.70773 0.26393,1.33044 0.28612,1.38408 0.18367,0.444283 2.2105303,-0.207451 2.2105303,-0.710798 0,-0.358593 -0.34131,-0.52642 -0.75874,-0.373145 -1.3731803,0.504204 -1.4074703,-0.664957 -0.0371,-1.262401 1.67601,-0.730693 1.82437,-2.916751 0.25328,-3.721298 -0.39097,-0.200205 -0.78763,-0.279111 -1.16462,-0.263633 z m 80.745756,0.299123 c -0.204111,0.008 -0.428735,0.09682 -0.704699,0.258564 -1.59099,0.932452 -2.124081,2.117498 -1.352173,3.007458 0.541626,0.624461 0.961174,0.674407 1.973156,0.233213 1.656212,-0.722064 2.000177,-1.636079 1.068175,-2.836093 -0.362502,-0.466744 -0.644275,-0.676541 -0.984459,-0.663142 z M 66.034237,62.10569 c 0.0649,0.01044 0.13521,0.037 0.20982,0.08112 0.29841,0.17647 0.54256,0.423659 0.54256,0.549573 0,0.125917 -0.24415,0.22916 -0.54256,0.22916 -0.29841,0 -0.54257,-0.248203 -0.54257,-0.550589 0,-0.226791 0.13819,-0.340563 0.33275,-0.309264 z m -27.402709,0.09328 c 0.0426,0.01162 0.0767,0.03496 0.10067,0.072 0.18812,0.291257 -0.50268,1.313443 -1.53551,2.271308 -2.26235,2.098166 -2.48647,1.417248 -0.34228,-1.040341 0.75204,-0.861951 1.47885,-1.384273 1.77712,-1.30296 z m -3.0763,0.180487 c 0.52747,-0.05793 0.23054,0.471427 -0.95056,1.533133 -1.3958,1.254713 -1.46153,1.275221 -2.36736,0.723979 -0.41313,-0.251411 0.11506,-0.784041 1.49206,-1.505755 0.89599,-0.469611 1.50937,-0.716599 1.82586,-0.751357 z m -20.64927,0.268705 c -0.0659,-0.0021 -0.13823,0.01802 -0.21406,0.06287 -0.30327,0.179348 -0.41117,0.543347 -0.23948,0.809153 0.4651,0.720091 0.79053,0.585414 0.79053,-0.326499 0,-0.333882 -0.13925,-0.539156 -0.33699,-0.545519 z m 49.268509,0.08517 c 0.129331,-0.02918 0.45453,0.177271 0.98446,0.61143 0.59682,0.488966 1.08513,1.070741 1.08513,1.292819 0,0.784217 -1.05427,0.390852 -1.60862,-0.600274 -0.46917,-0.838828 -0.62725,-1.266461 -0.46097,-1.303975 z m -53.814609,0.232202 c 0.60285,0 1.08513,0.346106 1.08513,0.778734 0,0.790368 -1.14703,1.06425 -1.8078403,0.431954 -0.68786,-0.658182 -0.35821,-1.210688 0.7227103,-1.210688 z m 80.191531,0.275802 c 0.343978,-0.04011 0.659057,0.117643 0.680326,0.502932 0.01576,0.285534 -0.378621,0.599979 -0.876369,0.69863 -0.565739,0.112133 -0.814436,-0.08248 -0.662311,-0.519157 0.140802,-0.404189 0.514376,-0.642288 0.858354,-0.682405 z m 3.874254,0.762509 c -0.316023,0 -0.423921,0.23362 -0.239492,0.519157 0.184429,0.285537 0.443822,0.519156 0.575415,0.519156 0.131594,0 0.238433,-0.233619 0.238433,-0.519156 0,-0.285537 -0.258334,-0.519157 -0.574356,-0.519157 z m -55.702985,0.259579 -0.89651,1.557469 c -1.65464,2.876849 -4.83909,6.826051 -4.39562,5.451142 0.5715,-1.771813 2.57208,-4.712444 4.06182,-5.970298 z m 1.95726,0.0091 c 0.0469,-0.0039 0.0866,0.0038 0.11974,0.02331 0.26274,0.155374 -0.49692,1.518113 -1.68809,3.027737 -1.19117,1.509624 -2.16602,2.989931 -2.16602,3.290356 0,0.300425 -0.36623,0.681297 -0.81385,0.845657 -0.49575,0.182028 -0.81385,10e-4 -0.81385,-0.463387 0,-0.419343 0.20516,-0.762511 0.45567,-0.762511 0.25052,0 0.7449,-0.606355 1.09785,-1.347575 0.93725,-1.968296 3.10499,-4.555945 3.80855,-4.613599 z m -25.90642,0.250453 c -0.29841,0 -0.69754,0.467241 -0.88696,1.038313 -0.18943,0.571072 -0.57158,1.038313 -0.84988,1.038313 -0.27831,0 -0.50654,0.233621 -0.50654,0.519156 0,0.609044 0.56859,0.657702 1.41894,0.121678 0.83601,-0.526996 1.50059,-2.71746 0.82444,-2.71746 z m 65.367425,0.17846 c -0.194561,-0.0313 -0.332744,0.08247 -0.332744,0.309263 0,0.30239 0.244148,0.55059 0.542565,0.55059 0.29841,0 0.542565,-0.103244 0.542565,-0.229159 0,-0.125916 -0.244155,-0.373103 -0.542565,-0.549576 -0.0746,-0.04412 -0.144967,-0.07068 -0.209821,-0.08112 z m -58.895855,0.328529 c -0.11382,-0.01049 -0.23784,0.03391 -0.35923,0.150068 -0.17909,0.171364 -0.13411,0.607512 0.0996,0.969363 0.34183,0.529217 0.47005,0.529578 0.65383,0.002 0.1967,-0.56464 -0.0527,-1.089991 -0.39421,-1.12146 z m 20.60582,0.531324 c 0.24179,0 -0.33576,1.162268 -1.2833,2.583614 -0.94754,1.421347 -1.93332,2.589449 -2.19145,2.595783 -0.25813,0.0063 -0.075,-0.571883 0.40693,-1.285723 0.48193,-0.71384 1.26973,-1.881942 1.75167,-2.595782 0.48194,-0.71384 1.07435,-1.297892 1.31615,-1.297892 z m 44.988382,0.02737 c -0.308883,-0.04344 -0.520311,0.125212 -0.520311,0.522198 0,0.302388 0.244153,0.40563 0.542565,0.229159 0.29841,-0.176471 0.542565,-0.07424 0.542565,0.228145 0,0.302388 0.274378,0.550589 0.609326,0.550589 0.420763,0 0.399898,-0.240701 -0.06676,-0.778734 -0.392165,-0.452144 -0.7985,-0.707912 -1.107383,-0.751357 z M 6.9582377,66.164598 c -0.0796,8.31e-4 -0.1457,0.0218 -0.19287,0.06692 -0.17209,0.164676 0.0176,0.656837 0.4207,1.093068 0.82147,0.888941 1.5461,1.064889 1.5461,0.376186 0,-0.562609 -1.21691,-1.541932 -1.77393,-1.536176 z M 81.190024,66.34103 c -0.189717,-0.08566 -0.231052,0.357644 -0.157895,1.425652 0.07331,1.070185 0.315578,1.946317 0.539386,1.946836 0.58566,0.0015 0.486417,-2.195438 -0.14094,-3.113924 -0.09732,-0.142476 -0.177313,-0.230011 -0.240551,-0.258564 z m 11.09715,0.258564 c -0.298411,0 -0.542566,0.233621 -0.542566,0.519156 0,0.285536 0.244155,0.519157 0.542566,0.519157 0.29841,0 0.542564,-0.233621 0.542564,-0.519157 0,-0.285535 -0.244154,-0.519156 -0.542564,-0.519156 z m -71.828396,0.17846 c -0.19456,-0.0313 -0.33275,0.08247 -0.33275,0.309262 0,0.302389 0.24416,0.550591 0.54257,0.550591 0.29841,0 0.54256,-0.103254 0.54256,-0.22916 0,-0.125916 -0.24415,-0.373104 -0.54256,-0.549574 -0.0746,-0.04412 -0.14497,-0.07068 -0.20982,-0.08112 z m 12.55105,0.03143 c 0.0872,0.01353 0.13776,0.0729 0.13776,0.181501 0,0.285537 -0.36623,0.810614 -0.81384,1.166075 -0.45399,0.360518 -0.81385,0.416348 -0.81385,0.126747 0,-0.285536 0.36623,-0.809598 0.81385,-1.16506 0.28374,-0.225323 0.53076,-0.331809 0.67608,-0.309263 z m 57.107086,0.309263 c -0.596822,0 -1.085131,0.218919 -1.085131,0.486709 0,0.267791 0.488309,0.451671 1.085131,0.408633 0.596821,-0.04302 1.08513,-0.261941 1.08513,-0.486709 0,-0.224774 -0.488309,-0.408633 -1.08513,-0.408633 z M 20.126028,68.15706 c -0.29841,0 -0.54256,0.363998 -0.54256,0.809153 0,0.445166 0.24415,0.665211 0.54256,0.488738 0.29842,-0.176471 0.54257,-0.541484 0.54257,-0.810169 0,-0.268682 -0.24415,-0.487722 -0.54257,-0.487722 z m 13.19005,0.521185 c 0.22187,0.004 0.24495,0.290084 -0.10915,0.906495 -0.28704,0.499688 -0.89854,1.375765 -1.35852,1.946836 -1.12479,1.396444 -1.12037,0.06814 0.005,-1.575721 0.56292,-0.82206 1.17713,-1.282818 1.46238,-1.27761 z m -5.80078,0.509016 c 0.20546,-0.02305 0.39208,0.01113 0.51502,0.128774 0.14354,0.137354 -0.0899,0.528891 -0.5182,0.868979 -0.53474,0.424644 -0.88866,0.446322 -1.13175,0.06996 -0.26579,-0.411499 0.51857,-0.998557 1.13493,-1.067719 z m 1.50265,0.726007 c 0.19456,0.0082 0.33169,0.214696 0.33169,0.548564 0,0.445154 -0.24415,0.810166 -0.54257,0.810166 -0.29841,0 -0.54256,-0.220053 -0.54256,-0.488737 0,-0.268684 0.24415,-0.632682 0.54256,-0.809154 0.0746,-0.04412 0.14603,-0.06358 0.21088,-0.06083 z m -9.43448,0.320418 c -0.29841,0 -0.54257,0.233621 -0.54257,0.519156 0,0.285536 0.24416,0.519156 0.54257,0.519156 0.29841,0 0.54256,-0.23362 0.54256,-0.519156 0,-0.285535 -0.24415,-0.519156 -0.54256,-0.519156 z m 56.363174,0 c 0.298416,0 0.692994,0.233621 0.877429,0.519156 0.184429,0.285536 0.09177,0.519156 -0.206642,0.519156 -0.298415,0 -0.694059,-0.23362 -0.878488,-0.519156 -0.184434,-0.285535 -0.09071,-0.519156 0.207701,-0.519156 z m -7.341585,0.38531 c 0.14203,0.03887 0.38112,0.413475 0.69516,1.102194 0.43829,0.961209 0.68262,1.857443 0.54257,1.991453 -0.39077,0.373911 -1.43388,-1.733649 -1.38397,-2.79655 0.0105,-0.222891 0.061,-0.320421 0.14624,-0.297097 z m -50.106719,1.172163 c -0.29841,0 -0.54257,0.23362 -0.54257,0.519157 0,0.285535 0.24416,0.519155 0.54257,0.519155 0.29841,0 0.54256,-0.23362 0.54256,-0.519155 0,-0.285537 -0.24415,-0.519157 -0.54256,-0.519157 z m 63.812845,0.178459 c -0.194561,-0.0313 -0.332744,0.08247 -0.332744,0.309264 0,0.302388 0.244147,0.550589 0.542565,0.550589 0.29841,0 0.542565,-0.103243 0.542565,-0.229159 0,-0.125917 -0.244155,-0.373104 -0.542565,-0.549576 -0.0746,-0.04412 -0.144967,-0.07068 -0.209821,-0.08112 z m -58.352225,0.428913 c 0.28604,-0.03237 0.35651,0.204508 0.17909,0.646917 -0.18134,0.452164 -0.56806,0.822337 -0.85942,0.822337 -0.71314,0 -0.26636,-1.18015 0.54469,-1.438834 0.0495,-0.0158 0.0948,-0.0258 0.13564,-0.03042 z m 18.68352,0.04158 c -0.74603,0 -1.35641,0.204418 -1.35641,0.454261 0,0.249844 0.61038,0.454262 1.35641,0.454262 0.74603,0 1.35641,-0.204418 1.35641,-0.454262 0,-0.249843 -0.61038,-0.454261 -1.35641,-0.454261 z m 32.072795,0.04867 c 0.06485,0.01044 0.135217,0.037 0.209821,0.08112 0.29841,0.176472 0.542565,0.423659 0.542565,0.549575 0,0.125915 -0.244155,0.229159 -0.542565,0.229159 -0.298418,0 -0.542565,-0.248201 -0.542565,-0.550589 0,-0.226791 0.138183,-0.340563 0.332744,-0.309265 z m -34.514335,0.340695 c -0.29841,0 -0.54257,0.233623 -0.54257,0.519157 0,0.285537 0.24416,0.519157 0.54257,0.519157 0.29841,0 0.54256,-0.23362 0.54256,-0.519157 0,-0.285534 -0.24415,-0.519157 -0.54256,-0.519157 z m 20.11411,0.601291 c -0.693421,0.03888 -1.124341,0.211111 -1.124341,0.475554 0,0.325049 0.366231,0.457401 0.81385,0.29304 0.44762,-0.164355 0.81385,-0.123117 0.81385,0.09227 0,0.215386 0.48831,0.391395 1.08513,0.391395 1.89688,0 1.16645,-1.11755 -0.81385,-1.245165 -0.28325,-0.01826 -0.5435,-0.02007 -0.774639,-0.0071 z m -21.88593,0.110522 c -0.44663,0.0023 -1.09962,0.09868 -1.92229,0.287971 -0.0922,0.02122 -0.017,0.272151 0.16744,0.557688 0.39333,0.60898 0.45875,0.617067 1.58424,0.203808 0.47202,-0.173315 0.8573,-0.5225 0.8573,-0.775693 0,-0.184973 -0.24005,-0.27612 -0.68669,-0.273774 z m -11.58143,0.0061 c 0.19456,0.0082 0.33169,0.214695 0.33169,0.548562 0,0.445157 -0.24415,0.810168 -0.54257,0.810168 -0.29841,0 -0.54256,-0.220054 -0.54256,-0.488739 0,-0.268684 0.24415,-0.632681 0.54256,-0.809153 0.0746,-0.04412 0.14603,-0.06358 0.21088,-0.06083 z m 56.421462,0.0031 c -0.06591,-0.0021 -0.138239,0.01802 -0.214059,0.06287 -0.303273,0.179348 -0.411181,0.543346 -0.239491,0.809153 0.465097,0.720092 0.790534,0.585415 0.790534,-0.326499 0,-0.333883 -0.139249,-0.539156 -0.336984,-0.545521 z m -65.498822,0.0051 c -0.23304,-0.02672 -0.48147,0.08553 -0.62204,0.303179 -0.18744,0.290192 0.0392,0.528282 0.50441,0.528282 0.95303,0 1.09379,-0.311392 0.34122,-0.756429 -0.0694,-0.04107 -0.14592,-0.06612 -0.22359,-0.07504 z m 46.846029,0.312305 c -0.29841,0 -0.54256,0.35043 -0.54256,0.778734 0,0.428304 0.24415,0.778735 0.54256,0.778735 0.29841,0 0.54257,-0.350431 0.54257,-0.778735 0,-0.428304 -0.24416,-0.778734 -0.54257,-0.778734 z m -28.965759,0.198738 c -0.19456,0.0082 -0.33275,0.214697 -0.33275,0.548563 0,0.445156 0.24415,0.810168 0.54257,0.810168 0.29841,0 0.54256,-0.220055 0.54256,-0.488738 0,-0.268683 -0.24415,-0.632681 -0.54256,-0.809154 -0.0746,-0.04412 -0.14497,-0.06358 -0.20982,-0.06083 z m 16.618171,0.425871 c 0.102479,0.0017 0.285379,0.151945 0.56588,0.413703 0.639899,0.597146 0.73373,1.262979 0.40268,2.855361 -0.237451,1.142144 -0.46053,1.580182 -0.49488,0.973417 -0.0343,-0.606761 -0.215471,-1.891676 -0.40268,-2.85536 -0.190691,-0.981592 -0.241811,-1.389941 -0.071,-1.387121 z m -1.931831,0.03245 c 0.69829,-0.219141 1.48528,3.527781 1.17203,5.579917 -0.29164,1.910529 -1.43904,1.823259 -1.82374,-0.138914 -0.46702,-2.38199 -0.12953,-5.19583 0.65171,-5.441003 z m -33.4663,0.381256 c -0.29841,0 -0.54256,0.233621 -0.54256,0.519157 0,0.285534 0.24415,0.519157 0.54256,0.519157 0.29842,0 0.54257,-0.233623 0.54257,-0.519157 0,-0.285536 -0.24415,-0.519157 -0.54257,-0.519157 z m 17.36208,0 c -0.29841,0 -0.54256,0.363998 -0.54256,0.809154 0,0.445166 0.24415,0.665208 0.54256,0.488737 0.29842,-0.176472 0.54257,-0.541485 0.54257,-0.810168 0,-0.268684 -0.24415,-0.487723 -0.54257,-0.487723 z m 32.288979,0.165238 c -0.48488,9e-6 -0.82021,0.13945 -0.82021,0.374157 0,0.307959 0.20864,0.436414 0.46309,0.285941 0.25445,-0.150472 0.92587,0.06243 1.49205,0.472515 1.20527,0.872956 1.84282,0.973263 1.84282,0.289997 0,-0.641812 -0.79349,-1.087528 -2.45002,-1.374952 -0.18827,-0.03267 -0.36611,-0.04766 -0.52773,-0.04766 z m -33.916669,0.353877 c -0.29841,0 -0.54257,0.350432 -0.54257,0.778736 0,0.428304 0.24416,0.778734 0.54257,0.778734 0.29841,0 0.54256,-0.35043 0.54256,-0.778734 0,-0.428304 -0.24415,-0.778736 -0.54256,-0.778736 z m 51.51188,0 c -0.316023,0 -0.423921,0.233621 -0.239492,0.519158 0.184429,0.285536 0.443822,0.519156 0.575415,0.519156 0.131593,0 0.238433,-0.23362 0.238433,-0.519156 0,-0.285537 -0.258334,-0.519158 -0.574356,-0.519158 z m -53.75844,0.598247 c -0.26514,-0.0036 -0.46627,0.283236 -0.46627,0.699646 0,0.475894 0.26311,0.781685 0.5839,0.679364 0.32079,-0.102315 0.58283,-0.408105 0.58283,-0.679364 0,-0.271261 -0.26204,-0.577051 -0.58283,-0.679366 -0.0401,-0.01279 -0.0797,-0.01978 -0.11763,-0.02028 z m 40.353269,0.204823 c -0.11468,0.0039 -0.21438,0.02668 -0.2893,0.07098 -0.31948,0.188937 -0.14101,0.60442 0.4313,1.004851 0.536787,0.375563 1.221012,0.538186 1.520665,0.360976 0.31949,-0.188935 0.142077,-0.604421 -0.430236,-1.004851 -0.402586,-0.281674 -0.888374,-0.44346 -1.232429,-0.431956 z m -49.189019,0.441082 c 0.14482,-0.0212 0.23101,0.04174 0.23101,0.193669 0,0.289948 -0.36623,0.662031 -0.81385,0.826392 -0.44761,0.16438 -0.81385,0.217475 -0.81385,0.118635 0,-0.09884 0.36624,-0.469917 0.81385,-0.825378 0.23455,-0.186261 0.43801,-0.292123 0.58284,-0.313318 z m -5.01555,0.002 c -0.0776,0.01136 -0.154,0.0373 -0.22466,0.0791 -0.28266,0.167153 -0.37073,0.524494 -0.19604,0.794958 0.1747,0.270466 0.54814,0.355759 0.8308,0.1886 0.28266,-0.167153 0.37074,-0.525508 0.19604,-0.795971 -0.13102,-0.20285 -0.37347,-0.300746 -0.60614,-0.266677 z m 12.19605,0.131816 c -0.7282,-0.03612 -2.06641,0.872312 -2.06641,1.602086 0,0.359618 0.24416,0.654015 0.54257,0.654015 0.29841,0 0.54256,-0.248202 0.54256,-0.55059 0,-0.302388 0.22769,-0.414729 0.50548,-0.250452 0.63977,0.378341 1.29557,-0.588532 0.85835,-1.265444 -0.0793,-0.122701 -0.2145,-0.181282 -0.38255,-0.189615 z m 55.952016,0.179474 c -0.278298,0 -0.506535,0.233621 -0.506535,0.519157 0,0.285537 0.244154,0.519157 0.542565,0.519157 0.29841,0 0.514304,0.175216 0.478982,0.389367 -0.03532,0.214153 -0.03532,0.603179 0,0.864922 0.03534,0.261739 0.208218,0.338175 0.384671,0.169336 0.452608,-0.433092 -0.28874,-2.461939 -0.899683,-2.461939 z m -11.019792,0.201781 c -0.197734,0.0064 -0.338043,0.211655 -0.338043,0.545521 0,0.911916 0.32649,1.046592 0.791593,0.326501 0.17169,-0.265808 0.06378,-0.629807 -0.239491,-0.809154 -0.07582,-0.04484 -0.148148,-0.06499 -0.214059,-0.06287 z m 1.622396,1.014993 c -0.194561,-0.0313 -0.332744,0.08248 -0.332744,0.309263 0,0.302388 0.244148,0.55059 0.542565,0.55059 0.29841,0 0.542565,-0.103242 0.542565,-0.22916 0,-0.125916 -0.244155,-0.373104 -0.542565,-0.549575 -0.0746,-0.04412 -0.144967,-0.07068 -0.209821,-0.08112 z m -50.00923,0.340697 c -0.46524,0 -0.6952,0.233619 -0.51077,0.519156 0.18442,0.285536 0.5659,0.519156 0.84669,0.519156 0.28081,0 0.50972,-0.23362 0.50972,-0.519156 0,-0.285537 -0.38041,-0.519156 -0.84564,-0.519156 z m -1.93077,0.519156 c -0.29841,0 -0.39213,0.233619 -0.2077,0.519156 0.18443,0.285536 0.58008,0.519157 0.87849,0.519157 0.29841,0 0.39107,-0.233621 0.20664,-0.519157 -0.18443,-0.285537 -0.57902,-0.519156 -0.87743,-0.519156 z m -1.23137,0.697617 c -0.19455,-0.0313 -0.33274,0.08247 -0.33274,0.309262 0,0.302388 0.24415,0.550591 0.54256,0.550591 0.29842,0 0.54257,-0.103243 0.54257,-0.22916 0,-0.125918 -0.24415,-0.373104 -0.54257,-0.549576 -0.0746,-0.04412 -0.14496,-0.07068 -0.20982,-0.08111 z m 64.232491,0.340696 c -0.298411,0 -0.542565,0.46724 -0.542565,1.038312 0,0.571072 0.244154,1.038315 0.542565,1.038315 0.29841,0 0.542565,-0.467243 0.542565,-1.038315 0,-0.571072 -0.244155,-1.038312 -0.542565,-1.038312 z m -51.333851,0.631707 c -0.46668,-0.0025 -0.74162,0.171271 -0.60085,0.565799 0.1215,0.340557 0.73726,0.547591 1.36807,0.460347 0.68893,-0.09528 1.41641,0.254219 1.82162,0.875063 0.37102,0.568465 0.86803,0.919417 1.1042,0.779748 0.23619,-0.139668 -0.11843,-0.773501 -0.78735,-1.408415 -0.81629,-0.774795 -2.1279,-1.268332 -2.90569,-1.272542 z m -1.8905,0.16832 c -0.73965,0.04325 -2.65984,1.877204 -2.65984,2.708335 0,0.469547 0.5727,0.215297 1.5959,-0.708769 0.87762,-0.792586 1.46226,-1.647731 1.29919,-1.900196 -0.0485,-0.07505 -0.12959,-0.105548 -0.23525,-0.09937 z m 35.319709,0.238285 c -0.29841,0 -0.54257,0.363998 -0.54257,0.809155 0,0.445167 0.24416,0.665208 0.54257,0.488737 0.2984,-0.176471 0.54256,-0.541484 0.54256,-0.810169 0,-0.268684 -0.24416,-0.487723 -0.54256,-0.487723 z m 1.62769,0.519157 c -0.29841,0 -0.54256,0.233621 -0.54256,0.519158 0,0.285536 0.24415,0.519155 0.54256,0.519155 0.29841,0 0.54257,-0.233619 0.54257,-0.519155 0,-0.285537 -0.24416,-0.519158 -0.54257,-0.519158 z m -3.12399,0.20381 c -0.0869,0.0019 -0.23294,0.03874 -0.43447,0.106468 -1.57348,0.528745 -2.40975,1.772329 -2.40975,3.583395 0,1.719654 0.83318,3.075451 2.17026,3.532698 1.28581,0.43971 1.62769,0.399805 1.62769,-0.189614 0,-0.302409 -0.20377,-0.428582 -0.45355,-0.280872 -0.24978,0.14771 -0.98224,-0.08555 -1.62769,-0.518142 -1.68599,-1.12996 -1.552449,-3.556083 0.286111,-5.186494 0.838169,-0.743268 1.102239,-1.053155 0.841399,-1.047439 z m 4.513255,0.472514 c -0.225046,-0.03234 -0.27805,0.34066 0.01272,1.065689 0.188156,0.469173 0.568659,0.853769 0.845638,0.853769 0.277159,0 0.231561,-0.487018 -0.101732,-1.082927 -0.302249,-0.540402 -0.581587,-0.811379 -0.756623,-0.836531 z m 14.534808,0.501919 c -0.75227,0.04997 -0.989601,0.478746 -0.460969,0.984571 0.149205,0.142768 0.637514,0.259579 1.08513,0.259579 1.228411,0 0.976785,-1.152163 -0.271282,-1.242123 -0.127769,-0.0092 -0.245413,-0.0092 -0.352879,-0.002 z m -51.387892,0.40559 c -0.92534,-0.0073 -1.8309,0.533658 -1.9827,1.531105 -0.22221,1.460097 0.009,2.000274 0.95903,2.237848 0.52222,0.130585 1.09513,0.263975 1.27269,0.297097 0.17756,0.03312 0.74657,-0.387572 1.26422,-0.934888 0.75085,-0.793883 0.81849,-1.213839 0.33593,-2.076625 -0.39806,-0.71169 -1.12947,-1.048785 -1.84917,-1.054537 z m 33.065729,0.344753 c -1.36697,-0.06286 -1.98327,1.01753 -1.35324,2.614033 0.52314,1.325645 2.20729,1.543912 3.18757,0.413703 1.00636,-1.160263 0.45403,-2.505146 -1.20381,-2.929381 -0.22452,-0.05744 -0.43524,-0.08938 -0.63052,-0.09835 z m -28.035349,0.667196 c -0.27048,0 -0.49276,0.467242 -0.49276,1.038313 0,0.571072 0.0944,1.038313 0.20876,1.038313 0.1144,0 0.33563,-0.467241 0.4917,-1.038313 0.15607,-0.571071 0.0628,-1.038313 -0.2077,-1.038313 z m -27.65386,0.02839 c -0.42929,0.01579 -1.38558,0.775064 -2.1257603,1.687259 -1.02205,1.259588 -1.08937,1.471549 -0.2787,0.880133 2.4271803,-1.770719 3.2004203,-2.596672 2.4044603,-2.567392 z m 22.26953,0.07606 c 0.0461,9.35e-4 0.0937,0.0093 0.14413,0.02535 0.37301,0.118976 0.6782,0.527812 0.6782,0.908525 0,0.380713 -0.30519,0.789548 -0.6782,0.908523 -0.40345,0.128678 -0.67821,-0.239388 -0.67821,-0.908523 0,-0.585495 0.21122,-0.94048 0.53408,-0.933875 z m 33.647509,0.414716 c 0.59682,0 1.08513,0.233621 1.08513,0.519157 0,0.285537 -0.48831,0.519156 -1.08513,0.519156 -0.59682,0 -1.08513,-0.233619 -1.08513,-0.519156 0,-0.285536 0.48831,-0.519157 1.08513,-0.519157 z m -37.131789,0.184544 c -0.48578,0.0099 -0.3478,1.320038 0.34652,2.383861 0.35814,0.548729 0.8484,0.881693 1.08937,0.73919 0.24097,-0.142503 0.068,-0.613303 -0.38467,-1.046425 -0.45265,-0.433117 -0.69514,-0.986157 -0.53833,-1.22894 0.15682,-0.242789 0.0373,-0.588233 -0.26598,-0.767582 -0.095,-0.0562 -0.17751,-0.08151 -0.24691,-0.08011 z m 19.55671,0.853769 c -0.11727,0 -0.35384,0.350431 -0.52561,0.778736 -0.17176,0.428303 -0.075,0.778734 0.21406,0.778734 0.28905,0 0.52455,-0.350431 0.52455,-0.778734 0,-0.428305 -0.0957,-0.778736 -0.213,-0.778736 z m -11.71813,1.038314 c -0.30094,0 -0.54786,0.217371 -0.54786,0.483666 0,0.266297 -0.48831,0.632972 -1.08513,0.814225 -0.59682,0.181253 -1.08513,0.546913 -1.08513,0.81321 0,0.26629 0.24415,0.484681 0.54256,0.484681 0.29842,0 0.54257,-0.248202 0.54257,-0.550591 0,-0.302387 0.19579,-0.434188 0.43447,-0.293038 0.23869,0.141147 0.7287,-0.194701 1.08937,-0.747302 0.39601,-0.606758 0.43958,-1.004851 0.10915,-1.004851 z m -5.43095,1.557469 c -0.29841,0 -0.54256,0.23362 -0.54256,0.519156 0,0.285537 0.24415,0.519157 0.54256,0.519157 0.29842,0 0.54257,-0.23362 0.54257,-0.519157 0,-0.285537 -0.24415,-0.519156 -0.54257,-0.519156 z m 1.2833,0.179473 c -0.0822,-0.01192 -0.13844,0.177666 -0.15472,0.55566 -0.0235,0.547274 0.10477,0.853904 0.28506,0.681393 0.18032,-0.172516 0.19912,-0.619948 0.0424,-0.994712 -0.065,-0.155305 -0.12339,-0.235191 -0.17274,-0.242341 z m 15.78842,0.526255 c -0.20818,0.0019 -0.47025,0.405372 -0.58071,1.125514 -0.0644,0.420041 0.10525,0.76454 0.37725,0.76454 0.27201,0 0.49382,-0.506853 0.49382,-1.125516 0,-0.524532 -0.12843,-0.766033 -0.29036,-0.764538 z M 17.762908,90.202 c -0.009,4.56e-4 -0.0177,8.3e-4 -0.0265,0.001 0.009,0.01313 0.0194,0.02532 0.0297,0.03752 5.4e-4,-0.01374 -0.002,-0.02555 -0.003,-0.03854 z"
     style="fill:#000000;stroke-width:0.53073168"
     id="pathC12" />
</svg>
