<?xml version="1.0" encoding="UTF-8" standalone="no"?>
<svg
   xmlns:dc="http://purl.org/dc/elements/1.1/"
   xmlns:cc="http://creativecommons.org/ns#"
   xmlns:rdf="http://www.w3.org/1999/02/22-rdf-syntax-ns#"
   xmlns:svg="http://www.w3.org/2000/svg"
   xmlns="http://www.w3.org/2000/svg"
   id="svgC13"
   version="1.1"
   viewBox="0 0 100 100"
   height="100"
   width="100">
  <defs
     id="defs2" />
  <metadata
     id="metadata5">
    <rdf:RDF>
      <cc:Work
         rdf:about="">
        <dc:format>image/svg+xml</dc:format>
        <dc:type
           rdf:resource="http://purl.org/dc/dcmitype/StillImage" />
        <dc:title></dc:title>
      </cc:Work>
    </rdf:RDF>
  </metadata>
  <path
     id="pathC13"
     d="m 48.830374,91.881042 c -0.389469,-0.752929 -0.708125,-2.11013 -0.708125,-3.016004 0,-1.1547 -0.208111,-1.647036 -0.696204,-1.647036 -1.423853,0 -2.626455,-1.818315 -2.486277,-3.759205 0.119637,-1.656483 -0.02535,-1.934542 -1.47534,-2.829199 -0.884411,-0.545699 -2.088383,-1.048212 -2.675495,-1.116702 -1.519973,-0.177318 -4.009307,-1.723823 -4.177141,-2.595057 -0.198235,-1.029048 4.835995,-2.759949 8.792426,-3.023062 l 3.083672,-0.20507 0.768948,-2.012878 c 0.422923,-1.107075 1.437177,-2.612443 2.253895,-3.345259 4.022075,-3.608872 5.12062,-5.152279 5.455426,-7.664626 0.411901,-3.090857 -0.393673,-5.306777 -2.083348,-5.730734 -0.65501,-0.164349 -1.190926,-0.484978 -1.190926,-0.712514 0,-0.736215 1.127252,-0.435556 2.507951,0.668916 1.120151,0.896049 1.38303,1.504933 1.557433,3.607387 0.284655,3.431535 -0.47707,4.98143 -4.713077,9.589775 -1.941245,2.111878 -3.529534,4.088947 -3.529534,4.393478 0,0.684579 5.225763,-4.42973 6.63152,-6.490085 0.564701,-0.827655 1.197597,-1.506256 1.406436,-1.508 0.643964,-0.0054 -1.547858,2.855029 -4.797444,6.260835 -3.147495,3.298801 -4.491496,5.908554 -3.939028,7.648713 0.327906,1.032846 0.936271,1.212854 1.425345,0.421746 0.221314,-0.357995 0.438336,-0.322855 0.716492,0.115996 0.279019,0.440231 0.401148,0.245828 0.40612,-0.64646 0.0039,-0.701804 -0.201756,-1.275995 -0.457031,-1.275995 -0.255275,0 -0.464137,-0.208809 -0.464137,-0.464004 0,-0.255205 0.199588,-0.464004 0.443523,-0.464004 0.243941,0 1.236033,-0.540931 2.204649,-1.202076 1.470967,-1.004025 2.097469,-1.15683 3.802627,-0.927428 2.139051,0.287766 6.080882,3.005347 6.080882,4.192278 0,0.863207 -2.511716,1.794633 -4.179568,1.549915 -1.449686,-0.212708 -2.441308,0.467912 -2.291601,1.572888 0.245049,1.808698 -0.168259,3.114515 -1.419149,4.483662 -0.765826,0.838224 -1.392409,1.690864 -1.392409,1.894764 0,0.581499 -3.406051,5.604003 -3.800394,5.604003 -0.194148,0 -0.67165,-0.616029 -1.061117,-1.368958 z m 2.711218,-1.869091 c 0.67211,-1.015331 1.22202,-2.086227 1.22202,-2.37976 0,-0.293544 0.731015,-1.342626 1.624476,-2.331285 1.944061,-2.151218 2.20789,-4.114911 0.552847,-4.114911 -0.589396,0 -1.477058,-0.309509 -1.972577,-0.687808 -0.842614,-0.643271 -0.805556,-0.670013 0.572288,-0.413039 0.979231,0.182637 1.830943,0.02429 2.53999,-0.472191 0.586711,-0.410829 1.907935,-0.75016 2.936058,-0.754058 2.506948,-0.01 3.424397,-0.582309 2.573835,-1.606868 -0.760481,-0.916061 -1.996938,-1.603609 -3.827942,-2.128575 -1.109258,-0.318036 -1.320252,-0.264262 -1.110208,0.282937 0.313518,0.81679 0.07662,0.842482 -1.250495,0.13564 -0.948251,-0.505052 -0.968782,-0.484438 -0.31759,0.318876 0.630886,0.778262 0.619999,0.830286 -0.116035,0.554527 -0.533654,-0.199941 -0.812237,-0.07978 -0.812237,0.350487 0,0.393485 -0.351835,0.587058 -0.881655,0.485048 -1.22495,-0.235831 -1.692352,2.934328 -0.570146,3.867024 0.663986,0.551848 0.615353,0.585918 -0.401105,0.281067 -0.998557,-0.299492 -1.076783,-0.250656 -0.572159,0.357195 0.62562,0.753619 0.285252,2.380261 -0.408385,1.951697 -0.228528,-0.141199 -0.422145,0.0166 -0.430265,0.350657 -0.009,0.370561 -0.284459,0.250736 -0.706448,-0.3073 -0.380424,-0.503072 -0.589196,-1.181673 -0.463939,-1.507997 0.125256,-0.326324 -0.02678,-0.599954 -0.337863,-0.608071 -0.311081,-0.008 -0.160176,-0.321316 0.335346,-0.695996 0.75677,-0.572232 0.779587,-0.68125 0.142563,-0.68125 -1.167979,0 -3.935251,1.791474 -4.173363,2.701747 -0.341085,1.303926 0.457684,2.843834 1.724983,3.325522 0.800039,0.304081 1.1728,0.796097 1.1728,1.548016 0,1.387402 0.901756,4.024717 1.376135,4.024717 0.196382,0 0.906966,-0.830726 1.579071,-1.846048 z M 50.95369,89.422005 c -0.02564,-0.446609 -0.255484,-0.812002 -0.510759,-0.812002 -0.255276,0 -0.467329,-0.261003 -0.471234,-0.579999 -0.0037,-0.319006 -0.71709,-1.624003 -1.584862,-2.900008 -0.86777,-1.275995 -1.476878,-2.421279 -1.353569,-2.545062 0.301395,-0.302571 1.851311,1.714656 2.798914,3.642789 l 0.767521,1.561721 0.873001,-1.70115 c 0.480148,-0.935635 1.175888,-1.817346 1.546088,-1.959364 0.370205,-0.142018 0.673095,-0.641152 0.673095,-1.109184 0,-0.468043 0.194431,-0.971105 0.432064,-1.117932 0.57299,-0.354026 1.203701,0.694666 0.647169,1.076064 -1.090108,0.747061 -2.954936,3.776391 -3.342636,5.429955 -0.235492,1.004395 -0.449148,1.460771 -0.474792,1.014172 z m 2.990086,-10.059944 c -0.14687,-0.237571 -0.05476,-0.563095 0.204676,-0.723388 0.259438,-0.160293 0.471705,0.03409 0.471705,0.431943 0,0.815031 -0.278509,0.935026 -0.676381,0.291445 z m 2.068791,-1.374416 c 0,-0.514609 1.427879,-1.096858 1.793502,-0.731346 0.147526,0.147487 -0.03903,0.462405 -0.414534,0.699825 -0.86787,0.548699 -1.378968,0.560375 -1.378968,0.03149 z m 2.357326,-0.78431 c 0.02228,-0.540541 0.13225,-0.650489 0.280411,-0.280338 0.134075,0.334952 0.117589,0.735144 -0.03662,0.889339 -0.154234,0.154175 -0.263927,-0.119875 -0.243774,-0.609001 z m 1.143519,0.302721 c -0.14687,-0.23756 -0.05476,-0.563085 0.204676,-0.723377 0.259438,-0.160293 0.471705,0.03409 0.471705,0.431933 0,0.81503 -0.278508,0.935035 -0.676381,0.291444 z m -11.653175,2.599206 c 0.648195,-0.47383 0.737053,-0.823238 0.383495,-1.507997 -0.2531,-0.490196 -0.35981,-1.172545 -0.237133,-1.516324 0.178107,-0.499103 0.02519,-0.519188 -0.75892,-0.09967 -1.066507,0.570603 -1.320462,0.08867 -0.425011,-0.806473 0.401185,-0.401072 0.408845,-0.556796 0.02739,-0.556796 -0.291264,0 -0.658653,0.208798 -0.816422,0.463993 -0.157768,0.255205 -0.50896,0.464004 -0.780428,0.464004 -0.291277,0 -0.232495,-0.316807 0.143425,-0.772963 0.573926,-0.696425 0.511842,-0.741812 -0.627007,-0.458265 -1.040852,0.259144 -1.213279,0.182536 -0.976651,-0.433923 0.260718,-0.67922 0.162742,-0.684259 -1.056672,-0.05438 -0.739217,0.381838 -2.281739,0.946462 -3.427827,1.254722 l -2.083796,0.560455 1.387591,1.109874 c 0.763176,0.610431 1.909745,1.112293 2.547933,1.115232 0.638187,0.003 1.786924,0.420217 2.55275,0.927248 1.623685,1.075014 2.964802,1.175674 4.147281,0.311268 z M 45.917602,79.0227 c -0.950182,-0.383297 -0.657571,-1.01806 0.348102,-0.755148 0.510551,0.133471 0.928272,0.427125 0.928272,0.652559 0,0.44237 -0.361942,0.471461 -1.276374,0.102589 z M 43.01675,77.473995 c 0,-0.255195 0.208862,-0.463993 0.464138,-0.463993 0.255272,0 0.464134,0.208798 0.464134,0.463993 0,0.255205 -0.208862,0.464004 -0.464134,0.464004 -0.255276,0 -0.464138,-0.208799 -0.464138,-0.464004 z M 39.767795,76.98231 c 0,-0.185366 0.313293,-0.457216 0.696205,-0.604113 0.399154,-0.153125 0.696204,-0.009 0.696204,0.337031 0,0.332253 -0.313292,0.604103 -0.696204,0.604103 -0.382912,0 -0.696205,-0.151666 -0.696205,-0.337021 z M 41.856409,77.01 c -0.157769,-0.255205 -0.06566,-0.464004 0.204676,-0.464004 0.27034,0 0.491528,0.208799 0.491528,0.464004 0,0.255195 -0.0921,0.463993 -0.204676,0.463993 -0.112572,0 -0.333759,-0.208798 -0.491528,-0.463993 z m 6.729977,-1.828623 c 0,-0.240139 -0.208862,-0.565654 -0.464137,-0.723377 -0.255276,-0.157724 -0.464135,0.03869 -0.464135,0.436611 0,0.397863 0.208859,0.723388 0.464135,0.723388 0.255275,0 0.464137,-0.196483 0.464137,-0.436622 z m 15.325465,-1.639796 c -0.291253,-0.759227 -1.580375,-2.325227 -2.864718,-3.479998 -1.913964,-1.720878 -2.407341,-2.490129 -2.735324,-4.264785 -0.238918,-1.292742 -0.221707,-2.787249 0.0427,-3.708938 0.685052,-2.387929 0.522018,-4.668573 -0.437782,-6.123955 -0.975707,-1.479506 -4.534774,-3.706733 -4.922105,-3.080203 -0.136978,0.221569 -0.04935,1.291399 0.194728,2.377401 0.624022,2.776487 0.174231,4.486838 -1.393016,5.297056 -1.836041,0.949177 -2.962092,0.844466 -4.422359,-0.411233 -0.996839,-0.857195 -1.25017,-1.459351 -1.197967,-2.847527 0.03641,-0.968247 0.416512,-2.294934 0.844669,-2.948195 0.681543,-1.039857 0.466296,-0.964062 -1.728767,0.608758 -4.670622,3.346628 -4.584989,3.212857 -4.27697,6.681317 0.150081,1.689995 0.460371,3.438119 0.689534,3.884719 0.543165,1.058542 0.05281,1.037685 -2.976011,-0.126566 l -2.44169,-0.938565 -1.501538,1.750566 c -1.325037,1.54479 -1.50235,1.631066 -1.508443,0.73395 -0.0038,-0.559139 -0.215766,-1.145662 -0.471041,-1.303385 -0.255275,-0.157723 -0.464136,-0.692047 -0.464136,-1.187385 0,-1.008054 -0.485497,-1.157662 -1.256266,-0.38712 -0.593765,0.59359 -5.078949,0.125057 -5.512244,-0.575824 -0.149402,-0.241665 1.06295,-1.760523 2.694114,-3.375242 2.33928,-2.315695 3.32795,-2.978119 4.680415,-3.135968 1.960805,-0.228845 1.919619,-0.281318 1.080488,1.376582 -1.288478,2.54569 -1.414195,7.812878 -0.176633,7.400479 0.983899,-0.327867 2.667352,-4.127776 2.667352,-6.020776 0,-2.402944 -0.509232,-1.867998 -1.57452,1.654026 -0.450619,1.489825 -0.923346,2.604761 -1.050504,2.477639 -0.317421,-0.317325 1.265503,-5.847964 1.761447,-6.154385 0.868818,-0.536801 0.293341,-1.047869 -2.037275,-1.809265 -1.340193,-0.437835 -2.543146,-0.93167 -2.673227,-1.097411 -0.130083,-0.165741 -1.830928,-1.815149 -3.779658,-3.66535 -2.727844,-2.589921 -3.84823,-3.360604 -4.868986,-3.349242 -1.573956,0.01752 -2.95032,0.950337 -2.95032,1.999555 0,0.980222 2.204032,1.551144 2.934834,0.760225 0.429834,-0.465193 0.376324,-0.531465 -0.251186,-0.311093 -0.970641,0.340875 -1.374651,-0.185753 -0.824813,-1.075148 0.339082,-0.548484 0.559437,-0.515832 1.350839,0.200166 0.520114,0.470559 0.851387,1.008058 0.736161,1.194443 -0.115226,0.186385 0.189547,1.164576 0.677273,2.173756 1.093243,2.262088 0.773832,4.053527 -1.304111,7.31418 -0.804348,1.262164 -1.462452,2.671563 -1.462452,3.132 0,1.207587 -0.513245,0.989874 -2.067986,-0.877215 -1.402344,-1.684074 -1.749041,-3.804744 -0.981755,-6.005186 0.326741,-0.937033 0.230614,-0.97858 -1.748199,-0.755605 -1.911934,0.21544 -2.239261,0.09486 -3.765618,-1.387076 C 11.542648,53.091514 10.340357,52.43254 9.146645,52.241711 8.145385,52.081649 6.741022,51.441802 6.025838,50.819826 4.728319,49.691408 4.727513,49.687035 5.653776,48.799472 6.164326,48.310254 7.521925,47.5508 8.670663,47.111798 c 1.148737,-0.439002 2.510996,-1.321299 3.027242,-1.96066 0.753812,-0.93358 1.355483,-1.162473 3.055697,-1.162473 1.830232,0 2.221857,-0.177342 2.890496,-1.308925 0.425385,-0.719908 0.78007,-1.903108 0.788188,-2.629333 0.01834,-1.640567 0.713579,-2.578637 2.654023,-3.581019 l 1.508443,-0.77922 v 1.576933 c 0,0.867312 0.433708,2.557115 0.963797,3.755115 0.713493,1.612495 0.883706,2.652092 0.655407,4.002982 -0.281081,1.663219 -0.218163,1.824801 0.710563,1.824801 0.659179,0 2.189454,1.21376 4.334058,3.437619 2.708434,2.808526 3.752498,3.565635 5.705201,4.137148 2.693454,0.788317 5.009001,0.473693 8.094205,-1.099796 2.16812,-1.105768 2.307542,-1.446189 0.439319,-1.072652 -2.42582,0.485019 -4.493982,-0.174798 -5.095064,-1.625514 -1.291848,-3.117881 2.157403,-5.549732 5.745659,-4.050903 1.425686,0.595515 1.932474,0.630899 2.530438,0.176672 0.411239,-0.312389 0.829215,-0.621545 0.928833,-0.687014 0.09962,-0.06547 -0.526965,-0.924091 -1.392407,-1.908048 -0.865444,-0.983957 -1.822328,-2.190075 -2.126409,-2.680262 -0.476877,-0.768735 -0.556627,-0.784171 -0.58017,-0.112288 -0.015,0.428429 0.706435,1.556714 1.603216,2.5073 0.896782,0.950587 1.534311,1.82451 1.416733,1.942054 -0.226015,0.22595 -5.832063,-4.498366 -5.832063,-4.914783 0,-0.133813 0.555598,0.262899 1.234663,0.881585 1.095745,0.998316 1.194855,1.020468 0.880874,0.196882 -0.194584,-0.5104 -0.58834,-2.124561 -0.875014,-3.587023 -0.454656,-2.319418 -0.694563,-2.719431 -1.878407,-3.132 -2.391855,-0.83356 -6.788297,-0.310585 -6.788297,0.807497 0,1.241158 5.076516,2.728008 6.575655,1.925929 1.354899,-0.724906 1.443904,-0.336758 0.452808,1.974695 -0.979018,2.283284 -2.058987,3.137453 -5.171918,4.090569 -1.148737,0.351719 -2.331096,0.820818 -2.627462,1.042442 -1.491713,1.115504 -1.233942,-2.882686 0.362409,-5.621223 l 0.915836,-1.571113 -1.05374,-1.121326 c -0.892101,-0.949319 -0.948811,-1.187662 -0.369698,-1.553781 0.376223,-0.23785 0.967464,-0.435653 1.31387,-0.439561 0.423286,-0.0048 0.514861,-0.273387 0.279249,-0.819106 -0.691898,-1.602553 -1.289546,-5.09212 -1.000901,-5.844096 0.251312,-0.654718 0.720402,-0.492201 3.20996,1.112098 4.179318,2.693197 5.004249,3.507165 5.004249,4.93773 0,1.715315 0.661939,0.856091 1.36985,-1.778123 0.635752,-2.365704 2.999029,-4.975214 6.422127,-7.091258 2.061337,-1.274254 3.19246,-2.969301 2.750235,-4.121381 -0.322974,-0.841398 -2.446422,-1.270779 -3.092133,-0.625258 -0.848778,0.848529 -0.530061,1.341438 0.672307,1.039751 1.819232,-0.456463 1.36194,0.448249 -0.894888,1.77045 -2.894756,1.695941 -5.167112,1.59003 -9.383442,-0.437347 -1.877531,-0.902793 -3.413691,-1.853044 -3.413691,-2.111679 0,-0.649758 3.10929,-1.888947 5.09258,-2.029617 2.589702,-0.183681 3.297203,-0.642984 2.973925,-1.930651 -0.401368,-1.598712 0.659534,-3.814941 2.209869,-4.616414 0.965967,-0.499374 1.32766,-1.029975 1.329341,-1.950118 0.0013,-0.695245 0.506293,-1.890483 1.12228,-2.656084 L 49.43854,6.25 50.88606,7.629143 c 0.796139,0.758528 1.568749,1.862017 1.716919,2.452197 0.148172,0.590182 0.81979,1.357591 1.492485,1.705356 0.672701,0.347761 1.621243,1.072121 2.107872,1.609686 0.78943,0.872054 0.815928,1.114704 0.245867,2.251504 -0.351406,0.700763 -0.715237,1.430713 -0.808524,1.622115 -0.09328,0.191399 0.547648,0.348 1.424289,0.348 1.921055,0 4.450718,0.801269 5.561543,1.761618 1.103302,0.953844 1.020545,1.485477 -0.232069,1.490915 -0.574368,0.0024 -2.161567,0.524491 -3.527111,1.159997 -1.365541,0.63551 -3.19659,1.15547 -4.069001,1.15547 -1.242023,0 -2.021473,0.427888 -3.592225,1.971997 -1.103312,1.0846 -2.620965,2.494 -3.372564,3.132001 -0.7516,0.638001 -1.931673,1.8908 -2.622384,2.783999 -0.690714,0.893201 -1.258158,1.379021 -1.260989,1.0796 -0.0028,-0.299417 0.535575,-1.186818 1.196454,-1.971997 0.660879,-0.785183 0.988394,-1.427601 0.727811,-1.427601 -0.775102,0 -2.309157,2.486264 -2.297634,3.723803 0.0059,0.631508 -0.145873,2.236434 -0.337233,3.566503 -0.329258,2.288567 -0.25119,2.568398 1.45514,5.215942 0.991688,1.538698 1.959713,2.79946 2.151169,2.801692 0.191455,0.0022 0.348101,-0.920387 0.348101,-2.050264 0,-2.593887 1.687582,-4.214061 3.937834,-3.780544 2.996325,0.577249 3.903081,4.11391 1.665293,6.495224 -0.925012,0.984344 -0.925139,0.99528 -0.01839,1.561397 0.715545,0.446734 0.91316,0.447727 0.91316,0.0046 0,-0.861999 5.109231,-5.385124 7.078078,-6.266116 2.139887,-0.957526 2.18767,-1.341088 0.213206,-1.711391 C 59.924554,38.116303 58.998724,37.433801 57.966272,36.090853 57.147,35.0252 56.476691,33.943717 56.476691,33.687557 c 0,-0.256161 -0.453355,-0.948182 -1.007459,-1.537823 -0.554106,-0.589641 -0.919612,-1.145198 -0.812239,-1.23457 0.222432,-0.18514 4.921883,0.355184 7.457293,0.857411 1.513784,0.299857 1.728605,0.219459 2.035098,-0.761665 0.188463,-0.6033 0.611013,-1.484781 0.938996,-1.958841 0.553773,-0.800415 0.682228,-0.725907 1.79985,1.043999 l 1.203515,1.905932 3.359161,0.0063 c 5.687347,0.01074 5.726074,0.06618 2.449386,3.507104 -1.562111,1.640411 -3.092979,2.982563 -3.401926,2.982563 -1.072068,0 -0.553233,0.760169 1.035903,1.517755 0.878699,0.418897 2.437979,1.86697 3.465076,3.217939 1.027091,1.350968 2.286868,3.004722 2.799504,3.675009 1.08495,1.418619 2.203188,1.811271 3.642479,1.279001 1.385528,-0.51239 1.298686,-1.721406 -0.16356,-2.277188 -1.631654,-0.620172 -1.737373,-0.585735 -1.459778,0.475484 0.23961,0.915998 -0.316352,1.295969 -0.785606,0.536922 -0.132977,-0.215094 -0.270722,-1.728893 -0.306112,-3.364001 -0.04998,-2.309573 0.208123,-3.578299 1.156755,-5.686033 1.051206,-2.335637 1.320256,-2.630843 1.933798,-2.121795 0.979855,0.812968 1.95671,2.797032 2.173346,4.414232 0.164375,1.227055 0.385897,1.377134 2.462308,1.668169 1.82508,0.255809 2.569022,0.649139 3.717541,1.965511 0.78971,0.905136 2.19953,1.964696 3.13292,2.354576 C 94.42508,46.622272 95,47.165783 95,47.757883 c 0,1.137395 -1.69456,2.340084 -3.29714,2.340084 -0.86768,0 -1.60629,0.487895 -2.487887,1.643391 -1.116018,1.462746 -1.466454,1.6325 -3.18801,1.544308 -2.772633,-0.142045 -4.022776,0.659251 -4.022776,2.578452 0,1.062119 -0.479772,2.155572 -1.508443,3.437892 -1.726012,2.151605 -2.305412,2.216477 -2.510634,0.281091 -0.07962,-0.750822 -0.386035,-2.444857 -0.680934,-3.764516 -0.602645,-2.696832 -0.29735,-5.022291 0.821618,-6.258374 0.700503,-0.773819 0.674572,-0.860058 -0.37906,-1.26053 -0.622054,-0.236437 -2.477154,-1.778874 -4.122445,-3.427638 -3.680915,-3.688683 -4.36339,-4.054078 -7.572074,-4.054078 -3.251134,0 -4.223973,0.38846 -6.790707,2.71157 l -2.088613,1.890369 1.544146,0.01902 c 1.684993,0.02076 4.257559,2.12479 4.257559,3.482128 0,1.24005 -1.914234,3.435837 -3.251193,3.729395 -0.688234,0.151116 -2.16208,-0.03893 -3.275209,-0.422319 -1.113134,-0.38339 -2.136463,-0.573336 -2.274065,-0.4221 -0.137607,0.151236 0.02257,0.372086 0.355966,0.490777 1.843122,0.656184 4.459208,3.269859 4.924695,4.920154 l 0.50292,1.783008 1.029394,-1.396055 c 0.566166,-0.767828 2.393704,-2.12029 4.061193,-3.005472 3.290578,-1.746789 3.251489,-1.765385 3.076025,1.463591 -0.0465,0.855838 -0.48864,2.619233 -0.98253,3.918655 -0.794991,2.091634 -0.819293,2.449503 -0.211905,3.120466 0.926716,1.023704 0.863071,1.690295 -0.187619,1.964979 -0.755957,0.197627 -0.875853,0.699025 -0.889767,3.720932 -0.01008,2.183269 -0.277561,3.987799 -0.7136,4.813706 l -0.697519,1.321182 -0.529547,-1.380414 z m 1.35082,-3.781579 c 0.06179,-2.746271 -0.479473,-4.350004 -1.46812,-4.350004 -0.727837,0 -0.862209,0.218576 -0.641813,1.043999 0.153313,0.574201 0.415658,1.566 0.582977,2.204001 0.177623,0.677259 0.130842,0.999084 -0.112402,0.773331 -0.229151,-0.212668 -0.435515,-0.525866 -0.458587,-0.695996 -0.02307,-0.170135 -0.391388,-1.092335 -0.818467,-2.049335 -0.52046,-1.166241 -1.080556,-1.74 -1.698557,-1.74 -0.507124,0 -0.922044,-0.2088 -0.922044,-0.464 0,-0.2552 -0.245269,-0.464 -0.545042,-0.464 -0.303442,0 -0.133098,0.46278 0.384273,1.044 0.511125,0.5742 0.953718,1.532963 0.983544,2.130581 0.02984,0.597623 0.953418,2.059222 2.052437,3.248003 2.147829,2.323247 2.596806,2.208451 2.661801,-0.68058 z M 40.303625,62.370738 c -0.105334,-1.692241 -0.344276,-2.51199 -0.696205,-2.388491 -0.294706,0.103412 -0.469371,0.553909 -0.388144,1.001103 0.09196,0.506294 -0.08316,0.736234 -0.464136,0.609413 -0.901493,-0.300092 -1.052063,-1.750765 -0.181718,-1.750765 0.996016,0 0.916911,-0.741379 -0.198035,-1.855999 -1.032696,-1.032391 -2.299439,-1.32775 -1.492523,-0.348 0.712023,0.864529 0.817144,3.68441 0.180941,4.853746 -0.496252,0.912108 -0.415949,1.102816 0.724853,1.721421 2.345523,1.27187 2.692972,1.017334 2.514967,-1.842428 z m -1.464102,0.48726 c 0,-0.3828 0.208861,-0.695999 0.464136,-0.695999 0.255275,0 0.464136,0.313199 0.464136,0.695999 0,0.382801 -0.208861,0.696001 -0.464136,0.696001 -0.255275,0 -0.464136,-0.3132 -0.464136,-0.696001 z m 27.240896,1.480169 c 0.968949,-1.567336 -5.492484,-3.541929 -6.726413,-2.055571 -0.98058,1.181177 1.8185,2.609708 4.929574,2.515841 0.847572,-0.02556 1.656149,-0.232697 1.796839,-0.46027 z m -2.641672,-1.043554 c 0,-0.397861 0.21227,-0.592231 0.471707,-0.431937 0.25944,0.160293 0.351547,0.485817 0.204677,0.723384 -0.397873,0.643587 -0.676384,0.523583 -0.676384,-0.291447 z m -2.088613,-0.204615 c -0.157768,-0.2552 0.143195,-0.464 0.668811,-0.464 0.525616,0 0.955667,0.2088 0.955667,0.464 0,0.2552 -0.300966,0.464001 -0.668811,0.464001 -0.367847,0 -0.797896,-0.208801 -0.955667,-0.464001 z m -29.305468,-0.35193 c 0.21959,-0.126529 0.284937,-0.934301 0.145214,-1.795058 -0.139722,-0.860757 -0.08066,-1.565011 0.131258,-1.565011 0.211914,0 0.505519,-0.3132 0.652457,-0.696001 0.53903,-1.404277 -1.073285,-0.648513 -3.661583,1.716355 -2.276095,2.079611 -2.521326,2.458977 -1.777914,2.750407 0.829584,0.325203 3.684538,0.06526 4.510568,-0.410692 z m -3.416142,-0.576069 c 0,-0.255201 0.208861,-0.464001 0.464136,-0.464001 0.255276,0 0.464137,0.2088 0.464137,0.464001 0,0.2552 -0.208861,0.463999 -0.464137,0.463999 -0.255275,0 -0.464136,-0.208799 -0.464136,-0.463999 z m 1.392409,-0.582371 c 0,-0.382801 0.313292,-0.955933 0.696205,-1.27363 0.566223,-0.469786 0.696204,-0.447686 0.696204,0.118371 0,0.382801 -0.313292,0.955933 -0.696204,1.273629 -0.566224,0.469786 -0.696205,0.447686 -0.696205,-0.11837 z m -9.631359,-0.418185 c -0.163677,-0.625719 -0.08168,-0.889312 0.218881,-0.70361 0.264336,0.163318 0.996343,-0.48263 1.626683,-1.435444 1.144851,-1.730544 1.145179,-1.734497 0.30774,-3.704391 -0.461084,-1.0846 -1.073165,-1.971999 -1.360181,-1.971999 -0.287015,0 -0.433894,-0.261 -0.326396,-0.580001 0.176392,-0.523443 -0.871743,-1.688551 -1.552036,-1.725243 -0.150481,-0.0081 -0.5232,0.532891 -0.828264,1.202237 -0.454984,0.998291 -0.421722,1.419826 0.185089,2.345668 0.601809,0.918205 0.643809,1.419293 0.225235,2.687214 -0.406723,1.232022 -0.368831,1.907119 0.180863,3.222336 0.751883,1.798979 1.750491,2.299826 1.322386,0.663233 z m 0.247563,-1.115953 c -0.17032,-0.270878 -0.20185,-1.176449 -0.07007,-2.012381 0.135709,-0.860832 -0.07712,-2.311222 -0.490833,-3.344879 -0.401742,-1.003758 -0.730439,-1.971643 -0.730439,-2.150863 0,-0.653693 1.476013,1.802181 1.834807,3.052855 0.409785,1.42842 -0.05433,5.233197 -0.543468,4.455268 z m 46.334317,-2.16108 c 0.456694,-1.713412 0.719722,-3.225899 0.584504,-3.361076 -0.257641,-0.257566 -5.509618,2.439043 -5.509618,2.828901 0,0.123493 0.20886,0.09548 0.464135,-0.06224 0.78545,-0.485292 0.512993,0.321455 -0.348102,1.030725 -0.773562,0.637174 -0.773562,0.656876 0,0.413717 0.851922,-0.267789 1.132962,0.390632 0.368372,0.863035 -0.617739,0.381672 -0.06137,1.636523 0.725593,1.636523 0.355597,0 0.672656,-0.3132 0.704564,-0.695999 0.09207,-1.10453 0.148659,-1.305665 0.815901,-2.9 0.34711,-0.829401 0.832038,-1.508 1.077614,-1.508 0.245578,0 0.338243,0.260999 0.205917,0.579999 -0.889883,2.145295 -1.308269,4.112209 -1.028925,4.837168 0.444731,1.154153 0.870297,0.350695 1.940045,-3.662756 z m -6.647176,2.421588 c 0.133514,-0.5104 0.0778,-0.927999 -0.123804,-0.927999 -0.201602,0 -0.475787,0.417599 -0.609301,0.927999 -0.133511,0.5104 -0.0778,0.928 0.123804,0.928 0.201602,0 0.475787,-0.4176 0.609301,-0.928 z M 52.39319,58.661675 c 0.308034,-0.675857 0.332568,-1.689499 0.06797,-2.807998 -0.33006,-1.395239 -0.694494,-1.826712 -1.796317,-2.126781 -1.85764,-0.505899 -2.258286,-0.29303 -3.205904,1.703339 -0.669468,1.410379 -0.714412,1.93502 -0.259776,3.032283 0.843452,2.035673 4.296659,2.16808 5.194025,0.199157 z m -2.878532,-1.835677 c 0,-1.227034 0.160573,-1.533273 0.696204,-1.327795 0.382913,0.146897 0.696206,0.744404 0.696206,1.327795 0,0.583392 -0.313293,1.180899 -0.696206,1.327796 -0.535631,0.205479 -0.696204,-0.100761 -0.696204,-1.327796 z m -1.07487,0.812001 c -0.11076,-0.191401 -0.03334,-0.7656 0.172054,-1.276 0.326009,-0.810144 0.377579,-0.765948 0.406058,0.347999 0.03218,1.258833 -0.184959,1.607394 -0.578112,0.928001 z m 31.886553,0.596323 c 0.412274,-0.629022 0.749586,-1.986222 0.749586,-3.016 0,-1.313347 0.197954,-1.872323 0.663052,-1.872323 1.062045,0 2.12236,-1.354389 2.114661,-2.701143 -0.01064,-1.862014 -0.614513,-2.58817 -1.671204,-2.009651 -0.480941,0.263307 -1.413002,0.590745 -2.071243,0.727641 -1.315646,0.273618 -2.28422,1.9169 -2.28422,3.875398 0,1.645246 1.057469,6.139755 1.444567,6.139755 0.16787,0 0.642528,-0.514655 1.054801,-1.143677 z m -1.106958,-4.396938 c 0,-1.321314 1.62456,-3.66197 2.165969,-3.120719 0.127638,0.1276 -0.222371,0.686305 -0.777793,1.241566 -0.605504,0.605325 -0.917204,1.363784 -0.778454,1.894205 0.12727,0.48655 0.04214,1.001567 -0.189159,1.144484 -0.231312,0.142917 -0.420563,-0.378875 -0.420563,-1.159536 z M 82.0042,50.070615 c 0,-0.270261 0.208862,-0.362339 0.464137,-0.204617 0.255275,0.157723 0.464135,0.378846 0.464135,0.491385 0,0.112539 -0.20886,0.204616 -0.464135,0.204616 -0.255275,0 -0.464137,-0.221123 -0.464137,-0.491384 z m -40.379859,7.20306 c 0,-0.118622 -0.652158,-0.215677 -1.44924,-0.215677 -1.226437,0 -1.361655,0.105505 -0.879536,0.686252 0.422991,0.509523 0.796206,0.565064 1.44924,0.215671 0.483744,-0.258814 0.879536,-0.567625 0.879536,-0.686246 z m 1.584711,-1.779899 c 0.573363,-0.297378 1.734534,-1.122843 2.580384,-1.834368 1.197356,-1.007214 1.413962,-1.416328 0.97818,-1.847546 -0.434364,-0.429816 -0.664059,-0.368977 -1.025578,0.271644 -0.256217,0.454023 -1.334802,1.373885 -2.396853,2.044133 -1.543805,0.974275 -2.538127,1.227424 -4.958842,1.262493 -1.665313,0.02413 -3.549996,-0.122705 -4.188183,-0.32629 -0.947826,-0.30236 -1.011044,-0.276595 -0.345172,0.140695 1.995294,1.250414 7.193037,1.411097 9.356064,0.289239 z M 23.987161,55.201999 c 0,-0.2552 -0.0921,-0.464 -0.204676,-0.464 -0.112572,0 -0.33376,0.2088 -0.491528,0.464 -0.157769,0.2552 -0.06566,0.463999 0.204676,0.463999 0.27034,0 0.491528,-0.208799 0.491528,-0.463999 z M 17.22842,53.628616 c -0.153186,-0.610155 -0.05273,-1.248879 0.223225,-1.41938 0.91359,-0.564465 0.524397,-1.252005 -0.542562,-0.95848 -1.014912,0.279206 -1.018947,0.267026 -0.143358,-0.432732 0.821277,-0.656352 0.828606,-0.720025 0.08288,-0.720025 -0.449937,0 -1.150314,-0.332149 -1.556392,-0.738109 -0.62709,-0.626905 -0.639577,-0.800599 -0.08288,-1.152894 0.360494,-0.228133 0.894175,-0.417984 1.185957,-0.421892 0.685958,-0.0092 1.140293,-1.20251 0.797671,-2.095106 -0.442853,-1.153719 -3.604714,-1.085224 -4.925241,0.106695 -0.931602,0.840873 -1.099621,1.737406 -0.232068,1.238299 0.319093,-0.183577 0.417479,-0.155055 0.218634,0.06338 -0.198845,0.218434 -0.616568,0.448504 -0.928273,0.511264 -2.243133,0.451652 -2.80608,0.709745 -3.608297,1.654295 -0.801239,0.9434 -0.868615,0.959286 -0.585542,0.138068 0.285252,-0.827538 0.234008,-0.85815 -0.473355,-0.28278 -0.746759,0.607415 -0.7449,0.679065 0.03173,1.222877 1.043619,0.730764 4.326231,1.650957 4.814124,1.349511 0.202606,-0.12518 0.586346,0.179567 0.852758,0.677217 0.89527,1.672335 1.939231,2.369175 3.549344,2.369175 1.455611,0 1.575006,-0.10022 1.321649,-1.109383 z m -2.988121,-1.906617 c -0.893463,-0.608578 -1.885555,-1.118541 -2.204648,-1.133253 -0.319094,-0.01472 -0.580171,-0.261113 -0.580171,-0.547562 0,-0.359834 -0.21519,-0.342273 -0.696204,0.05681 -0.568087,0.471332 -0.696205,0.444848 -0.696205,-0.143918 0,-0.396851 0.416487,-0.853696 0.925525,-1.01521 0.509039,-0.161516 1.25,-0.618044 1.646579,-1.014506 0.396581,-0.396464 0.864634,-0.577304 1.040121,-0.40187 0.175486,0.175434 -0.199967,0.710805 -0.834341,1.189713 l -1.153407,0.870741 1.624478,0.713813 c 1.770132,0.777816 3.248954,1.819418 3.248954,2.288387 0,0.51712 -0.648273,0.276002 -2.320681,-0.86315 z m 0.03664,-4.678666 c 0.02227,-0.540534 0.132252,-0.650482 0.280416,-0.280334 0.134076,0.33495 0.117586,0.73515 -0.03664,0.889333 -0.154229,0.154184 -0.263927,-0.119867 -0.243774,-0.608999 z m 0.997889,-0.744019 c 0.231269,-0.693604 1.286149,-1.075503 1.286149,-0.465625 0,0.249163 -0.330744,0.579906 -0.734987,0.734982 -0.452029,0.173409 -0.664218,0.06971 -0.551162,-0.269357 z m -2.534412,-0.455476 c 0.269711,-0.269632 0.764349,-0.398945 1.099195,-0.287362 0.347614,0.115838 0.137224,0.326166 -0.490383,0.49024 -0.772019,0.201828 -0.953233,0.141441 -0.608812,-0.202878 z m 16.971553,6.018291 c -2.823814,-3.090728 -4.393913,-4.54813 -4.899822,-4.54813 -0.258088,0 0.984112,1.4616 2.760444,3.248 3.514011,3.533931 5.011998,4.444275 2.139378,1.30013 z m 23.292359,-0.106594 c 1.007991,-1.007694 1.072742,-1.288995 0.614145,-2.668 -0.708676,-2.130988 -1.400865,-2.752738 -3.118959,-2.801573 -3.242575,-0.09216 -5.069922,2.235233 -3.561713,4.536375 1.460636,2.228553 4.32937,2.669845 6.066527,0.933198 z m -3.605703,-0.06693 c -2.84171,-1.5412 -0.745905,-5.338996 2.204646,-3.99503 1.498154,0.682404 1.671866,3.490097 0.262581,4.244101 -1.083178,0.579528 -0.90655,0.59736 -2.467227,-0.249071 z m 2.366347,-0.609308 c 0.807802,-0.511775 0.531026,-1.897916 -0.509802,-2.553189 -0.578213,-0.364024 -1.038305,-0.368803 -1.596851,-0.01659 -1.117383,0.704619 -1.225529,1.36864 -0.363297,2.230621 0.834983,0.834736 1.535812,0.930968 2.46995,0.339151 z M 50.670321,50.09043 c -0.16034,-0.259362 -0.518231,-0.331501 -0.795311,-0.160307 -0.293613,0.181408 -0.370845,0.09623 -0.185131,-0.204167 0.351821,-0.569094 1.681324,-0.235648 1.681324,0.421686 0,0.552954 -0.340871,0.525129 -0.700882,-0.05721 z m 37.992635,0.935569 c 0.728499,-0.865519 1.612034,-1.392 2.336054,-1.392 0.64043,0 1.72777,-0.484432 2.41632,-1.076515 l 1.25188,-1.076515 -1.57411,-0.621985 c -0.86575,-0.342092 -2.30512,-1.404455 -3.19858,-2.360807 -0.993608,-1.063542 -2.212716,-1.841473 -3.139165,-2.003148 -1.420379,-0.247869 -1.496971,-0.193749 -1.230101,0.869224 0.223774,0.891323 -0.04497,1.434448 -1.257536,2.541649 -1.671778,1.526482 -1.52205,1.855877 0.300834,0.66183 1.021276,-0.668971 1.167786,-0.672006 1.414489,-0.0293 0.151363,0.394333 0.571217,0.603414 0.933003,0.464625 0.737675,-0.28299 0.844445,0.226047 0.245573,1.170847 -0.318746,0.502867 -0.605956,0.516644 -1.442294,0.06918 l -1.044292,-0.558725 0.866722,1.148706 c 0.814996,1.080149 2.032083,1.235815 2.032083,0.259905 0,-0.242957 0.229994,-0.299638 0.511098,-0.125956 0.301239,0.186119 -0.208039,0.721303 -1.24029,1.303384 -2.268001,1.278912 -2.568605,2.147598 -0.743157,2.147598 0.974469,0 1.739983,-0.416013 2.561469,-1.392 z m 1.024484,-2.743571 c -0.17152,-0.277436 -0.16272,-0.504429 0.0195,-0.504429 0.18227,0 -0.0466,-0.4176 -0.508676,-0.928 -0.462042,-0.5104 -0.64526,-0.928 -0.407154,-0.928 0.80718,0 2.13848,1.934786 1.66025,2.41287 -0.2934,0.293318 -0.56159,0.27491 -0.76397,-0.05244 z m -2.495393,-3.329033 c -0.335941,-0.537771 -0.521663,-1.066877 -0.412716,-1.175793 0.322004,-0.321908 1.360903,1.141699 1.184958,1.669375 -0.08879,0.2663 -0.4363,0.04419 -0.772242,-0.493582 z m -25.988402,5.763178 c 1.051602,-0.951404 1.087522,-2.622004 0.07444,-3.461759 -0.964415,-0.799414 -4.953811,-0.777061 -5.930433,0.03323 -1.574541,1.306366 -0.600427,-0.16984 1.709224,-2.590214 2.764569,-2.897104 6.095395,-4.813057 8.339025,-4.796759 3.599104,0.02614 5.150809,0.758563 7.905746,3.731588 2.914867,3.145618 3.569542,3.082224 1.142048,-0.110587 -0.839706,-1.104439 -2.562813,-2.582111 -3.829122,-3.283715 -2.009572,-1.113406 -2.627054,-1.238786 -4.855139,-0.985837 -1.404015,0.159393 -2.970475,0.502107 -3.481026,0.761587 -1.691251,0.859555 -6.014035,4.242385 -7.283811,5.700008 -1.193382,1.369932 -1.221719,1.517325 -0.625141,3.252132 0.98638,2.868343 4.580882,3.788942 6.834191,1.750328 z m -2.406259,-0.140011 c 0,-0.247192 -0.294426,-0.33649 -0.654275,-0.198444 -0.667012,0.255882 -1.542204,-1.486951 -1.012584,-2.01642 0.150947,-0.150901 0.274449,-0.03077 0.274449,0.266967 0,0.297733 0.189307,0.541334 0.420683,0.541334 0.231378,0 0.304972,-0.4698 0.163539,-1.044 -0.141431,-0.5742 -0.08102,-0.881356 0.134241,-0.68257 0.215263,0.198787 0.432692,0.642769 0.483177,0.986628 0.05048,0.34386 0.232564,1.068616 0.404625,1.61057 0.172058,0.541955 0.194328,0.985372 0.04949,0.985372 -0.144843,0 -0.263345,-0.202247 -0.263345,-0.449437 z m 0.802569,-0.758896 c -0.186137,-0.186084 -0.332084,-0.773333 -0.324319,-1.305001 0.01304,-0.892546 0.05114,-0.903065 0.496983,-0.137185 0.519187,0.891862 0.386384,2.001072 -0.172664,1.442186 z m -14.696146,1.192007 c 1.506434,-0.805983 1.141389,-2.608559 -0.705726,-3.484815 -3.195703,-1.516014 -6.836677,1.029172 -4.629203,3.235997 0.831761,0.831517 3.972079,0.97798 5.334929,0.248818 z m -2.772202,-0.421027 c -0.355299,-0.219521 -0.472289,-0.635841 -0.270433,-0.962356 0.266245,-0.430667 0.467088,-0.376588 0.798212,0.214925 0.536937,0.95917 0.317618,1.269763 -0.527779,0.747431 z m 0.724697,-1.313695 c -0.692679,-0.692295 -0.858661,-0.708355 -1.223512,-0.11839 -0.232163,0.37541 -0.562766,0.541953 -0.734674,0.370095 -0.50305,-0.502902 1.054489,-1.771655 1.816192,-1.479448 0.663808,0.254652 1.422519,1.549707 1.097976,1.874155 -0.08502,0.085 -0.515215,-0.205888 -0.955982,-0.646412 z m 42.860987,0.640691 c 0,-0.355497 -0.313293,-0.766544 -0.696206,-0.913438 -0.697852,-0.267712 -0.98306,0.654359 -0.386779,1.250462 0.520396,0.520243 1.082985,0.345166 1.082985,-0.337024 z M 20.635189,47.482144 c 0.776041,-0.207849 0.983801,-0.514759 0.780961,-1.153665 -0.347347,-1.094071 0.175321,-1.123546 1.037005,-0.05848 0.590877,0.73034 0.605106,0.705248 0.141489,-0.249527 -0.285261,-0.587469 -0.361176,-1.519935 -0.169992,-2.088002 0.585219,-1.738867 0.595864,-2.31931 0.06079,-3.314618 -0.28381,-0.52792 -0.636395,-1.538435 -0.783523,-2.245586 -0.25633,-1.232017 -0.311132,-1.255148 -1.311812,-0.553689 -0.777092,0.544728 -1.044307,1.191736 -1.044307,2.528587 0,0.988101 -0.313292,2.109746 -0.696204,2.492545 -0.806036,0.8058 -0.909558,2.744759 -0.215738,4.040791 0.526283,0.98308 0.65045,1.017015 2.201333,0.601641 z m -0.789282,-2.474559 c -0.06265,-1.188575 1.087999,-5.581586 1.461974,-5.581586 0.197229,0 0.342411,0.3654 0.322626,0.812 -0.04903,1.106741 -1.739519,5.624803 -1.7846,4.769586 z m 64.045351,0.434088 c 1.067568,-0.571177 1.18273,-2.417612 0.201555,-3.231674 -0.382913,-0.317696 -0.696204,-0.990307 -0.696204,-1.494691 0,-1.084759 -1.349211,-4.073309 -1.838941,-4.073309 -0.701514,0 -2.054138,3.87515 -2.079692,5.958164 -0.02408,1.963794 0.07977,2.176061 1.133814,2.317125 0.638188,0.08541 1.35876,0.346409 1.601272,0.580001 0.550502,0.530251 0.58533,0.529098 1.678196,-0.05561 z M 82.057111,43.79586 c -0.539652,-0.685856 -0.964219,-1.688652 -0.943486,-2.228436 0.03397,-0.884529 0.09125,-0.862115 0.580171,0.227022 0.29836,0.664645 0.833313,1.557091 1.188781,1.983213 0.355473,0.426121 0.535929,0.885116 0.401018,1.019987 -0.134914,0.134873 -0.686827,-0.315931 -1.226484,-1.001786 z m -0.907902,-4.369861 c 0,-0.638 0.105349,-0.899 0.234106,-0.58 0.128757,0.319 0.128757,0.841 0,1.16 -0.128757,0.318999 -0.234106,0.058 -0.234106,-0.58 z m -29.020335,4.756 c 2.715062,-3.155952 -0.496649,-7.029209 -3.505174,-4.227166 -0.868103,0.808522 -1.014542,1.303815 -0.788831,2.668 0.152439,0.92134 0.279463,1.936165 0.282273,2.255166 0.01011,1.147312 2.849761,0.654656 4.011732,-0.696 z m -2.748698,-1.508001 c -0.133512,-0.5104 -0.04111,-0.927999 0.205327,-0.927999 0.246444,0 0.318992,-0.2088 0.161224,-0.464001 -0.157768,-0.2552 0.143195,-0.463999 0.668811,-0.463999 0.525616,0 0.955665,0.208799 0.955665,0.463999 0,0.255201 -0.20886,0.464001 -0.464135,0.464001 -0.255275,0 -0.464137,0.231139 -0.464137,0.513642 0,0.282504 0.302654,0.397537 0.672565,0.255631 0.449527,-0.172448 0.586981,-0.03504 0.414481,0.414357 -0.381284,0.993322 -1.869385,0.816374 -2.149801,-0.255631 z m -15.578899,0.812001 c 1.007544,-0.824445 1.995469,-4.503484 1.37569,-5.12308 -0.337341,-0.337242 -0.841591,0.280728 -1.655679,2.029074 -1.21409,2.607395 -1.447573,3.674005 -0.804248,3.674005 0.206485,0 0.694392,-0.260999 1.084237,-0.579999 z m 3.269318,-0.812001 c 0.261709,0 0.355612,-0.3132 0.208675,-0.695999 -0.159608,-0.41581 -0.0038,-0.696001 0.387087,-0.696001 0.359835,0 0.781851,-0.206408 0.937812,-0.458685 0.159596,-0.258155 -0.01654,-0.343558 -0.40288,-0.195348 -0.51048,0.195833 -0.621761,0.01605 -0.434109,-0.701315 0.19367,-0.740378 0.03563,-0.964651 -0.679754,-0.964651 -0.6336,0 -1.029577,0.408622 -1.236514,1.276 -0.167434,0.7018 -0.42304,1.672985 -0.568013,2.15819 -0.205107,0.686459 -0.08882,0.815143 0.524137,0.579999 0.43325,-0.166204 1.001852,-0.30219 1.263559,-0.30219 z m 27.296427,-3.894356 c 0,-0.100297 -0.313293,-0.302544 -0.696206,-0.449437 -0.382913,-0.146895 -0.696204,-0.06483 -0.696204,0.182356 0,0.24719 0.313291,0.449438 0.696204,0.449438 0.382913,0 0.696206,-0.08207 0.696206,-0.182357 z M 66.7139,37.453999 c 1.095918,-1.313298 1.148004,-3.976956 0.119909,-6.132257 -0.430194,-0.901859 -0.900133,-1.638113 -1.044307,-1.636123 -0.585537,0.0081 -1.522463,2.697647 -1.74165,4.999581 -0.33765,3.546141 0.923986,4.856402 2.666048,2.768799 z m -1.626023,-1.16 c 0.480015,-2.880793 1.032298,-4.926377 1.082315,-4.008761 0.09387,1.72207 -0.523608,5.284761 -0.915937,5.284761 -0.208447,0 -0.283319,-0.5742 -0.166378,-1.276 z m 4.306502,0.348 c 0.541702,-0.610015 0.586507,-0.595685 0.362667,0.115999 -0.273048,0.868138 0.39466,1.126299 0.880493,0.340432 0.160343,-0.259362 0.467307,-0.362966 0.682141,-0.23023 0.365938,0.226097 3.258339,-3.293748 3.258339,-3.965167 0,-0.169479 -1.305383,-0.284944 -2.900852,-0.256588 l -2.90085,0.05156 -0.264499,1.981218 c -0.145473,1.08967 -0.510982,2.22763 -0.812236,2.5288 -0.301257,0.30117 -0.547743,0.740187 -0.547743,0.975595 0,0.453422 1.208894,-0.377622 2.24254,-1.541614 z M 70.86493,34.42074 c 0,-0.200892 0.417722,-0.396715 0.92827,-0.435163 0.51055,-0.03845 0.928275,0.125919 0.928275,0.365259 0,0.239339 -0.417725,0.435163 -0.928275,0.435163 -0.510548,0 -0.92827,-0.164367 -0.92827,-0.365259 z m -8.718096,1.715681 c -0.03481,-1.223032 0.04395,-1.330923 0.509347,-0.697973 0.463497,0.630355 0.556009,0.4912 0.585346,-0.880486 0.0317,-1.482566 -0.114464,-1.671228 -1.624476,-2.096632 -0.912627,-0.257108 -2.440903,-0.596461 -3.396166,-0.754116 l -1.736844,-0.286647 0.526193,1.566716 c 0.591145,1.760119 1.73962,3.274852 2.245852,2.962075 0.18405,-0.113716 0.818357,0.307984 1.409563,0.937112 1.264132,1.345213 1.536843,1.207115 1.481185,-0.750049 z m -1.400077,-0.05122 c -0.306329,-0.30624 -0.556964,-0.72384 -0.556964,-0.928 0,-0.683656 0.699061,-0.380677 1.284698,0.556799 0.634682,1.015992 0.159631,1.258305 -0.727734,0.371201 z m -0.556964,-2.688289 c 0,-0.253597 0.41234,-0.398179 0.916313,-0.32129 1.4536,0.22177 1.683885,0.782379 0.321387,0.782379 -0.680736,0 -1.2377,-0.207488 -1.2377,-0.461089 z M 39.034952,33.037371 c -0.06748,-0.614524 -0.19127,-1.166565 -0.275092,-1.226757 -0.08382,-0.06019 -1.248927,-0.770623 -2.589121,-1.578736 l -2.436716,-1.4693 v 1.31847 c 0,0.725159 0.211254,1.92383 0.469452,2.663711 0.428054,1.226611 0.667192,1.348092 2.711807,1.377584 2.101095,0.03031 2.234627,-0.03804 2.11967,-1.084972 z m -3.428053,-1.004868 c -0.60552,-1.131093 -0.612273,-1.558708 -0.01883,-1.192045 0.745397,0.460544 1.496481,2.089541 0.963428,2.089541 -0.255275,0 -0.680346,-0.403873 -0.944603,-0.897496 z M 43.01675,22.954 c 0,-0.901517 0.456428,-0.8786 1.869305,0.09386 1.085086,0.74684 1.112383,0.746229 0.501272,-0.01122 -0.35547,-0.440591 -0.483523,-0.952625 -0.284562,-1.137859 0.198964,-0.185231 0.454993,-0.07579 0.568955,0.243212 0.364974,1.021632 0.981054,0.619428 0.710734,-0.463997 -0.25491,-1.021672 -0.238567,-1.019191 0.764191,0.115999 1.018405,1.152911 1.022866,1.153482 0.729724,0.09373 -0.162222,-0.586446 -0.05869,-1.350857 0.230071,-1.69869 0.719034,-0.866126 -0.257202,-1.451244 -1.164863,-0.698174 -0.417092,0.346054 -0.675873,0.376152 -0.675873,0.07862 0,-0.26518 0.261078,-0.587464 0.580171,-0.716183 0.319092,-0.128719 -0.05216,-0.250519 -0.825,-0.270667 -0.772843,-0.02015 -1.871557,0.289944 -2.441586,0.689091 -0.579456,0.405746 -1.433491,0.599735 -1.937001,0.439974 -0.982679,-0.3118 -4.661853,0.522948 -4.655178,1.056188 0.0049,0.392027 4.613154,2.801219 5.449469,2.84898 0.319093,0.01823 0.580171,-0.280064 0.580171,-0.662864 z m -2.784818,-1.138602 c 0,-0.218989 0.939876,-0.718317 2.088613,-1.109617 1.148738,-0.391299 2.088615,-0.560366 2.088615,-0.375701 0,0.184663 -0.939877,0.683991 -2.088615,1.109617 -1.148737,0.425627 -2.088613,0.594694 -2.088613,0.375701 z m 4.641363,-1.877397 c 0,-0.255201 0.221189,-0.464002 0.491529,-0.464002 0.270341,0 0.362445,0.208801 0.204677,0.464002 -0.157769,0.2552 -0.378958,0.463999 -0.49153,0.463999 -0.112572,0 -0.204676,-0.208799 -0.204676,-0.463999 z m 16.476839,0.228255 c 0.880068,-0.280024 0.868019,-0.32891 -0.232069,-0.941367 -0.638185,-0.355303 -2.100215,-0.660045 -3.248954,-0.677203 -1.148736,-0.01716 -2.49404,-0.337759 -2.989562,-0.712441 -1.247579,-0.943347 -2.409595,-0.851675 -3.540946,0.279344 l -0.960868,0.960592 1.225018,1.134972 c 0.673759,0.624237 1.419445,1.01485 1.657072,0.868029 0.237633,-0.146822 0.43206,-0.02026 0.43206,0.281248 0,0.408518 0.177392,0.40102 0.696203,-0.02943 0.459251,-0.381028 0.696206,-0.405323 0.696206,-0.07138 0,0.288739 0.34898,0.375503 0.812239,0.20194 0.725004,-0.271629 0.740395,-0.216102 0.143283,0.51705 -0.539099,0.661928 -0.178716,0.594508 1.856545,-0.347314 1.389025,-0.64277 2.943225,-1.301591 3.453773,-1.464042 z m -8.252191,-0.500865 c -0.709581,-0.3847 -1.153409,-0.920633 -0.986288,-1.190961 0.210291,-0.340162 0.396089,-0.342315 0.603385,-0.007 0.409991,0.663181 2.813037,1.537907 3.336478,1.214501 0.23385,-0.144488 0.425186,-0.04158 0.425186,0.228679 0,0.707213 -1.872684,0.571297 -3.378761,-0.245226 z m 4.955427,0.195277 c -0.131472,-0.212669 0.191005,-0.386669 0.716621,-0.386669 0.525616,0 0.955667,0.174 0.955667,0.386669 0,0.212664 -0.322477,0.386664 -0.716621,0.386664 -0.394142,0 -0.824191,-0.174 -0.955667,-0.386664 z m -8.074574,-0.850666 c 0,-0.255201 -0.280924,-0.464002 -0.624269,-0.464002 -0.34335,0 -1.013844,-0.430347 -1.489988,-0.956328 -0.741098,-0.81866 -0.768157,-1.018339 -0.187971,-1.387125 0.372761,-0.23694 0.938827,-0.335145 1.25792,-0.218236 0.339669,0.124449 0.58017,-0.166088 0.58017,-0.700874 0,-0.502389 0.23322,-0.913436 0.518269,-0.913436 0.289761,0 0.411239,0.409161 0.275521,0.927999 -0.133514,0.510401 -0.05344,0.928 0.177935,0.928 0.231378,0 0.423881,-0.261001 0.427792,-0.58 0.0051,-0.41648 0.122248,-0.398235 0.415507,0.06472 0.469664,0.741433 3.290475,1.099677 3.290475,0.417887 0,-0.249417 -0.417722,-0.562695 -0.928272,-0.696168 -0.510551,-0.133472 -0.925074,-0.583724 -0.921166,-1.000558 0.0062,-0.658836 0.06591,-0.666922 0.457031,-0.06188 0.247457,0.382801 0.45312,0.507451 0.457028,0.277004 0.0037,-0.230449 0.407098,0.04207 0.89598,0.605583 0.883325,1.018177 0.890757,1.018647 1.190299,0.07515 0.391102,-1.23188 0.07966,-1.683325 -2.118188,-3.070355 -1.0238,-0.646108 -1.817529,-1.51442 -1.817529,-1.988319 0,-0.462713 -0.499628,-1.310535 -1.11029,-1.884052 L 49.614763,7.342255 48.868506,8.407372 c -0.41044,0.585814 -0.746257,1.650227 -0.746257,2.365358 0,0.945398 -0.303882,1.415745 -1.113502,1.723471 -1.515224,0.575918 -2.599587,2.244724 -2.599587,4.000701 0,1.255335 0.144179,1.431105 1.044305,1.273105 0.574368,-0.100819 1.670892,0.226071 2.436718,0.726426 1.602113,1.046746 2.088613,1.166371 2.088613,0.513572 z m -5.105501,-2.078447 c 0,-0.122344 0.931915,-1.081201 2.070923,-2.13079 1.139007,-1.049594 2.197388,-2.306694 2.351958,-2.793559 0.298207,-0.939294 1.146755,-1.226443 1.146755,-0.388064 0,0.686776 1.217054,1.843496 1.569222,1.491428 0.158028,-0.157978 0.287322,0.09716 0.287322,0.566979 0,0.777104 -0.100216,0.760094 -1.110157,-0.188421 l -1.110163,-1.042634 -2.202307,2.353752 c -1.944109,2.0778 -3.003553,2.829578 -3.003553,2.131309 z M 37.91125,36.928116 c 0,-0.09783 0.417723,-0.287088 0.928273,-0.420561 0.51055,-0.133472 0.928272,-0.05342 0.928272,0.177884 0,0.231308 -0.417722,0.42056 -0.928272,0.42056 -0.51055,0 -0.928273,-0.08005 -0.928273,-0.177883 z m -3.016886,-0.750117 c 0.157769,-0.2552 0.378956,-0.464001 0.491529,-0.464001 0.112572,0 0.204676,0.208801 0.204676,0.464001 0,0.2552 -0.221188,0.464 -0.491528,0.464 -0.270341,0 -0.362446,-0.2088 -0.204677,-0.464 z"
     style="fill:#000000;stroke-width:0.46406811" />
</svg>
