<?xml version="1.0" encoding="UTF-8" standalone="no"?>
<svg
   xmlns:dc="http://purl.org/dc/elements/1.1/"
   xmlns:cc="http://creativecommons.org/ns#"
   xmlns:rdf="http://www.w3.org/1999/02/22-rdf-syntax-ns#"
   xmlns:svg="http://www.w3.org/2000/svg"
   xmlns="http://www.w3.org/2000/svg"
   id="svgC14"
   version="1.1"
   viewBox="0 0 100 100"
   height="100"
   width="100">
  <defs
     id="defs2" />
  <metadata
     id="metadata5">
    <rdf:RDF>
      <cc:Work
         rdf:about="">
        <dc:format>image/svg+xml</dc:format>
        <dc:type
           rdf:resource="http://purl.org/dc/dcmitype/StillImage" />
        <dc:title></dc:title>
      </cc:Work>
    </rdf:RDF>
  </metadata>
  <path
     d="m 87.864283,7.0000047 c -2.02917,-0.003 -4.403291,1.4317492 -5.340024,3.6773233 -0.592639,1.4207 -0.603843,1.956865 -0.06015,2.846288 0.753095,1.231981 0.987741,1.021073 -4.622353,4.157244 -11.335871,6.337008 -16.763442,11.541101 -22.95412,22.009914 -2.419239,4.091082 -2.4536,4.121925 -4.649317,4.121925 -1.216748,0 -2.642287,0.314862 -3.168339,0.700144 -0.821502,0.601679 -1.672395,0.412544 -6.025547,-1.342118 -6.730571,-2.712947 -10.505739,-4.79675 -13.399325,-7.395157 -2.723608,-2.445769 -2.309376,-2.273365 2.988921,1.240317 3.03455,2.012429 11.323192,6.264952 12.210808,6.264952 0.109564,0 0.199123,-0.205437 0.199123,-0.456029 0,-0.250592 -1.851844,-1.323531 -4.11521,-2.385065 -7.850266,-3.68183 -12.413654,-6.74743 -14.649031,-9.840473 -1.955553,-2.705852 -5.935942,-10.623099 -5.540185,-11.0195 0.205769,-0.206105 3.087689,1.348282 9.702065,5.231354 2.282083,1.339732 10.811769,10.673172 12.683726,13.879294 1.724049,2.952801 4.037719,5.654141 4.843254,5.654141 0.628066,0 0.158569,-1.837495 -1.12629,-4.405514 -1.941356,-3.880145 -6.143198,-10.486601 -6.669586,-10.486601 -0.241075,0 -0.438693,-0.478674 -0.438693,-1.063722 0,-0.585047 -0.260445,-1.063722 -0.578702,-1.063722 -0.318256,0 -1.864182,-1.148127 -3.43591,-2.551272 -1.712508,-1.528824 -5.412559,-3.82004 -9.233296,-5.717509 -6.315586,-3.136471 -6.375767,-3.183794 -6.394755,-5.027751 -0.01054,-1.023832 -0.318633,-2.459858 -0.683449,-3.191167 -0.825862,-1.6555191 -3.786927,-3.1890111 -6.16037,-3.1901291 -2.0243799,-9.57e-4 -5.1028789,1.691699 -5.9456909,3.2690781 -0.682182,1.276745 -0.152276,4.080917 1.029839,5.447422 1.986937,2.296866 7.5627529,3.778898 8.9584649,2.38091 0.776558,-0.777827 2.266062,-0.206872 2.266062,0.86843 0,0.456912 0.955791,2.66937 2.12398,4.9166 1.168189,2.247229 2.116503,4.21409 2.107386,4.371234 -0.02922,0.503712 -2.637074,-3.876243 -4.02602,-6.761494 -1.528601,-3.175349 -2.778981,-3.835871 -1.512091,-0.79883 4.520764,10.837362 12.719922,18.406604 24.936018,23.01962 2.503091,0.945211 3.657366,1.649266 3.534435,2.15653 -0.826307,3.409641 -0.714158,4.058962 1.04747,6.06862 2.270896,2.590629 4.677753,3.648437 6.617732,2.909656 0.784587,-0.298788 1.475927,-0.476056 1.536981,-0.394741 0.06105,0.08131 1.135614,2.181877 2.387403,4.668329 4.1068,8.15739 6.820366,11.497855 13.109974,16.135543 3.351627,2.471366 5.842508,3.74471 10.547298,5.393416 2.572729,0.901558 2.665574,1.004055 2.466227,2.714361 -0.138971,1.192342 0.181298,2.40664 0.971758,3.687707 0.514587,0.833979 0.788549,1.475413 0.842126,1.871899 0.138202,0.02774 0.366498,0.171209 0.606705,0.384356 0.237174,-0.306539 0.603215,-0.190019 1.678028,0.366698 1.714169,0.887896 6.406581,0.922803 6.255784,0.04678 -0.05214,-0.302944 0.20327,-0.49073 0.568329,-0.41759 0.365059,0.07312 0.663744,-0.226049 0.663744,-0.664833 0,-0.438785 0.180634,-0.79779 0.401358,-0.79779 0.220718,0 0.471725,-1.288739 0.557958,-2.863955 0.210641,-3.847818 -1.120585,-5.43338 -5.196905,-6.189111 -2.587347,-0.479692 -3.070398,-0.420255 -4.358932,0.533939 -1.503172,1.113154 -3.563756,1.403046 -4.438783,0.624307 -0.277445,-0.246912 -1.938752,-1.00073 -3.691036,-1.675569 -1.752283,-0.674839 -4.380707,-2.002221 -5.840943,-2.949124 -3.191917,-2.069912 -8.377544,-6.9765 -10.170835,-9.623372 -2.3341,-3.4451 -6.55905,-12.363188 -6.016214,-12.699226 0.683624,-0.423194 1.686907,0.207244 1.307782,0.821683 -0.378153,0.612866 3.05729,7.97516 5.128457,10.990415 2.698835,3.929014 9.057436,8.904224 15.157208,11.858846 3.048596,1.476686 5.7499,2.556124 6.002733,2.399609 0.599924,-0.371415 -2.853535,-7.307663 -5.165794,-10.375482 -3.27891,-4.350344 -12.065352,-10.807687 -18.456221,-13.563501 -1.171816,-0.5053 -1.81483,-1.031672 -1.434309,-1.174874 0.379338,-0.142755 3.141598,0.94582 6.138592,2.419346 8.477826,4.168274 13.756356,9.528431 18.415772,18.701367 2.052433,4.040601 2.016326,3.986674 2.39363,3.608758 0.3596,-0.360187 -2.946645,-7.927406 -3.78438,-8.661444 -0.333847,-0.292523 -1.336095,-1.60888 -2.226653,-2.925237 -4.018473,-5.93981 -11.145094,-11.07522 -19.949642,-14.374797 -2.821495,-1.057379 -2.932501,-1.169382 -2.440295,-2.46609 0.335345,-0.883485 0.332399,-2.025246 -0.0093,-3.264922 -0.289042,-1.048534 -0.472674,-1.937652 -0.40758,-1.975781 0.68783,-0.402895 4.074079,-1.852165 4.327816,-1.852165 0.901652,0 10.118542,-6.008992 12.726247,-8.296828 3.617307,-3.173597 8.323367,-9.581042 10.728795,-14.608525 1.732769,-3.621577 1.81707,-3.705835 2.988917,-2.973022 2.606436,1.629935 3.91999,1.536687 5.99755,-0.425904 1.835602,-1.734016 1.936809,-2.000467 1.764103,-4.653786 -0.179513,-2.757843 -0.980477,-4.0920701 -2.478668,-4.1281571 -0.477205,-0.01149 -0.34957,0.432464 0.398246,1.3847091 1.624568,2.068672 1.484513,5.133202 -0.298685,6.538153 -0.769501,0.606279 -1.927176,1.102158 -2.573042,1.102158 -3.98313,0 -7.489194,-4.827017 -5.436474,-7.485532 1.654341,-2.1425661 3.51029,-2.7032171 5.957099,-1.7981481 0.981502,0.363056 0.997994,0.324705 0.213641,-0.513162 -0.612811,-0.654622 -1.464012,-0.953289 -2.386366,-0.9546542 z m -76.75469,1.6579112 c 2.270207,0.03743 4.703896,1.081927 5.408474,2.7766901 0.783863,1.885472 0.114239,5.096649 -1.265262,6.064465 -1.571905,1.102802 -3.456496,0.963661 -5.9270229,-0.437332 -3.553436,-2.015091 -4.242359,-4.948692 -1.716399,-7.3058201 0.835527,-0.779682 2.138087,-1.12046 3.5002099,-1.098003 z m 79.955177,1.128128 c -0.274875,-0.01891 -0.914697,0.3382371 -1.511052,0.9982791 -0.597901,0.661755 -0.717661,1.131624 -0.34743,1.360816 0.8356,0.517267 0.687049,1.248696 -0.293497,1.444959 -0.693246,0.138757 -0.575768,0.456681 0.610851,1.643369 0.808828,0.808872 1.596123,1.344171 1.749586,1.190454 0.153468,-0.153716 -0.180825,-0.620844 -0.7436,-1.038791 -0.880469,-0.653883 -0.928859,-0.916334 -0.342242,-1.878135 0.374941,-0.614763 0.533671,-1.357201 0.352612,-1.650639 -0.181058,-0.293439 -0.03972,-0.881867 0.313208,-1.307839 0.41853,-0.505121 0.425358,-0.7477631 0.211564,-0.7624731 z m -4.090317,1.1499421 c -0.220501,0.01795 -0.388912,0.219559 -0.388912,0.654439 0,0.463162 -0.238947,0.842459 -0.530995,0.842459 -0.292047,0 -0.530995,0.265175 -0.530995,0.588996 0,0.323821 0.358422,0.450928 0.796493,0.282551 0.438071,-0.168378 0.796492,-0.07454 0.796492,0.208797 0,0.283342 -0.238948,0.51524 -0.530995,0.51524 -0.292047,0 -0.530995,0.239338 -0.530995,0.531862 0,0.879029 0.987964,0.600027 1.541128,-0.435253 0.284252,-0.532001 0.451744,-1.416288 0.371282,-1.965395 -0.113022,-0.771327 -0.625002,-1.253611 -0.992503,-1.223696 z m -74.013637,0.157896 c -0.03932,-0.0079 -0.08077,-0.008 -0.123415,0.0011 -0.04549,0.0094 -0.0931,0.02889 -0.142083,0.05921 -0.270724,0.16759 -0.336266,0.798333 -0.145194,1.40133 0.303345,0.957313 0.245354,1.002319 -0.458398,0.354228 -0.443283,-0.408423 -0.76895,-0.86243 -0.723895,-1.008691 0.04505,-0.146262 -0.157017,-0.309629 -0.449064,-0.363577 -0.651386,-0.120327 -0.358455,1.623616 0.314241,1.870863 0.265295,0.09751 0.482251,0.516349 0.482251,0.930757 0,1.057577 0.691608,0.936892 1.431198,-0.24931 0.605065,-0.970443 0.40411,-2.877579 -0.185641,-2.995875 z m -3.3135329,1.339002 c -0.261153,0 -0.440364,0.598551 -0.398246,1.329654 0.04212,0.731102 0.401225,1.329446 0.7975289,1.329653 0.438953,2.28e-4 0.594591,-0.328921 0.398247,-0.841421 -0.17727,-0.46271 -0.322538,-1.061055 -0.322538,-1.329654 0,-0.268598 -0.2138389,-0.488232 -0.4749919,-0.488232 z m 74.0800139,3.415547 c 0.05493,0.0063 0.0961,0.02355 0.123413,0.0509 0.413136,0.413807 -1.491915,1.706589 -8.27813,5.618822 -7.245121,4.176819 -11.201077,7.881568 -15.572046,14.582558 -1.71728,2.632712 -3.63433,5.456401 -4.260405,6.275339 -0.62608,0.818938 -1.050973,1.568335 -0.94376,1.665183 0.107208,0.09685 2.914715,-1.168453 6.238153,-2.812009 9.538772,-4.717254 15.739933,-10.618557 20.218253,-19.240496 1.167382,-2.24752 2.474633,-4.379209 2.904914,-4.736889 0.430276,-0.357681 -0.227117,1.223423 -1.461271,3.514231 -5.96859,11.078771 -11.623595,16.510425 -22.781964,21.880063 -4.765152,2.293091 -5.306131,2.467836 -5.874131,1.898911 C 53.23849,43.741899 59.857632,33.362642 63.90625,29.074321 67.436592,25.334966 82.024449,15.654015 83.727297,15.848428 Z m -66.136869,1.270442 c 0.334683,-0.0544 3.116484,1.182993 6.470463,2.88784 5.639051,2.866362 7.070001,3.879022 10.752647,7.610187 3.726901,3.776005 8.318334,10.407913 9.463532,13.669458 0.637057,1.814352 -0.171582,0.894192 -1.470608,-1.673493 -1.431138,-2.828826 -6.563999,-9.427276 -9.404417,-12.089456 -2.60017,-2.437008 -6.574502,-5.084299 -11.498321,-7.657971 -2.39078,-1.249659 -4.347521,-2.472832 -4.347521,-2.718517 0,-0.01535 0.01191,-0.02442 0.03422,-0.02805 z m 76.742244,2.160687 c -0.01561,0.02307 -0.03297,0.04364 -0.04768,0.06752 -0.08416,0.136398 -0.100337,0.25879 -0.06845,0.353189 0.0445,-0.08748 0.08452,-0.176449 0.102673,-0.272163 0.0056,-0.02976 -0.05034,0.108694 -0.0446,0.07895 0.01471,-0.07683 0.03701,-0.152036 0.05807,-0.227494 z m -12.716914,0.06752 c 0.336396,0 -1.215378,2.856187 -3.09159,5.6905 -3.036702,4.587417 -5.692547,7.455496 -9.600431,10.367139 -3.62146,2.698238 -11.011921,6.676152 -11.011921,5.927344 0,-1.051064 7.276032,-11.051219 9.471829,-13.018135 2.588037,-2.318271 13.140637,-8.966848 14.232113,-8.966848 z m -60.699352,2.15861 c -0.04478,0.207465 4.881215,4.923734 13.779939,13.115781 3.246862,2.989018 6.013049,5.324899 6.146889,5.190842 0.272539,-0.272985 -7.382841,-7.566048 -14.262191,-13.587394 -3.821508,-3.344881 -5.63777,-4.843708 -5.664637,-4.719229 z m 57.008316,0.754162 c -0.261557,0.02959 -0.966851,0.582108 -1.698769,1.347313 -0.836482,0.874519 -1.278944,1.59039 -0.983169,1.59039 0.683284,0 3.116414,-2.566919 2.765942,-2.917966 -0.018,-0.01805 -0.04662,-0.02397 -0.084,-0.01973 z m -23.405259,0.919331 c -0.43018,-0.01161 -0.97924,0.0377 -1.652099,0.11946 -1.168189,0.141954 -3.978868,0.416188 -6.24645,0.609772 -2.267582,0.193583 -4.231473,0.527766 -4.364114,0.742736 -0.132642,0.214969 0.502826,1.562557 1.412529,2.994835 2.770172,4.361485 4.17901,6.789098 4.828735,8.321759 0.812317,1.916205 1.370201,1.846383 2.104275,-0.262815 0.330257,-0.948923 1.740559,-3.993296 3.133077,-6.765649 2.273939,-4.527172 2.648165,-5.709808 0.784047,-5.760098 z m -1.41564,1.380554 c 0.783665,-0.01724 1.293587,0.01037 1.339932,0.08829 0.09268,0.155865 -0.988536,2.676966 -2.401922,5.602203 -1.413386,2.925237 -2.582429,4.931278 -2.597934,4.457454 -0.01548,-0.473824 0.927789,-2.690266 2.095978,-4.924911 1.168189,-2.234646 2.123979,-4.192297 2.123979,-4.350458 0,-0.236274 -3.880133,0.05672 -7.433928,0.560947 -0.488962,0.06937 -0.73254,0.553091 -0.630557,1.253821 0.233197,1.602282 -0.260538,1.419822 -1.227925,-0.453951 -0.797897,-1.545482 -0.78567,-1.596331 0.384764,-1.63298 0.664608,-0.02081 3.07855,-0.208373 5.363878,-0.416556 1.142664,-0.104091 2.20007,-0.166624 2.983735,-0.183866 z m 21.219055,1.475083 c -0.173556,-0.174351 -3.39935,2.668141 -7.168432,6.316892 -3.769082,3.64875 -6.671219,6.6435 -6.448684,6.654498 0.222534,0.011 2.73148,-2.223631 5.575446,-4.965424 2.843961,-2.741792 5.887822,-5.593021 6.763963,-6.336627 0.876142,-0.743607 1.451268,-1.494988 1.277707,-1.669339 z m -22.63677,0.425905 c 0.146388,8.83e-4 0.235519,0.01002 0.254089,0.02805 0.07428,0.0722 -0.209116,0.828839 -0.630556,1.680765 -0.421435,0.851927 -1.014396,2.207017 -1.317116,3.011457 -0.913789,2.428274 -1.220247,2.085649 -3.032479,-3.383344 -0.227234,-0.685747 0.227729,-0.914481 2.280581,-1.147865 1.057997,-0.120281 2.006315,-0.191711 2.445481,-0.189059 z m -2.566821,1.927997 c -0.455318,0 -0.680378,0.239338 -0.499882,0.531861 0.180496,0.292524 0.552794,0.531861 0.827605,0.531861 0.274811,0 0.499882,-0.239337 0.499882,-0.531861 0,-0.292523 -0.372298,-0.531861 -0.827605,-0.531861 z m 2.022344,16.496009 c 2.06986,-0.0081 2.438897,0.395094 1.354451,1.481317 -0.442743,0.443482 -0.45661,0.637818 -0.0446,0.637818 0.326116,0 0.703668,-0.299172 0.839014,-0.664827 0.181435,-0.490172 0.49563,-0.427278 1.194738,0.239961 1.321795,1.261535 1.139677,5.055223 -0.306981,6.405188 -1.54339,1.44024 -4.193157,1.685297 -5.964359,0.552637 -0.80742,-0.516333 -1.34793,-1.252479 -1.200961,-1.636097 0.146963,-0.383617 0.0313,-0.551914 -0.256163,-0.373964 -0.28746,0.17795 -0.787722,-0.260772 -1.112809,-0.975425 -1.257735,-2.764936 1.542193,-5.651035 5.497665,-5.666608 z m -3.194267,1.174873 c -0.05959,-0.01006 -0.06884,0.03677 -0.01556,0.14647 0.142132,0.292524 0.442841,1.010536 0.667893,1.595583 0.288351,0.749577 0.487156,0.852252 0.674114,0.346958 0.145917,-0.394386 -0.154788,-1.112398 -0.667892,-1.595584 -0.320695,-0.301991 -0.559237,-0.476674 -0.658558,-0.493427 z m 2.519115,0.402013 c -0.01398,-2.69e-4 -0.02238,0.0077 -0.02489,0.02493 -0.02012,0.138219 -0.123218,0.909566 -0.229199,1.714006 -0.202914,1.540261 0.06058,1.744834 1.265262,0.980619 0.615465,-0.390432 0.593981,-0.666453 -0.132749,-1.705695 -0.417281,-0.596725 -0.780587,-1.011979 -0.878424,-1.01386 z m -2.359401,2.669694 c -0.156299,0 -0.284166,0.504512 -0.284166,1.120856 0,0.7776 0.243807,1.026844 0.796493,0.814413 0.438071,-0.168379 0.796492,-0.07455 0.796492,0.208797 0,0.646324 0.901175,0.675293 1.292226,0.04156 0.256811,-0.416228 -1.849045,-2.185619 -2.601045,-2.185619 z m 3.30005,0.543287 c -0.944231,-0.02803 -0.278491,1.054469 1.06199,1.726472 0.80313,0.40262 1.575778,0.638731 1.717436,0.52459 0.293365,-0.236377 -2.171787,-2.233015 -2.779426,-2.251062 z m -7.522082,3.262845 c -0.416376,-0.05711 -1.594943,0.545537 -4.876441,2.293651 -8.000995,4.262281 -14.244282,9.651748 -18.352511,15.843648 -4.583717,6.908554 -6.28586,9.636468 -6.28586,10.073159 0,0.258661 -0.896054,0.419774 -1.991231,0.358384 -1.601199,-0.08975 -3.0938649,0.337029 -4.2469219,1.09281 -0.166395,0.249216 -0.406873,0.507817 -0.738415,0.752085 -0.126704,0.09335 -0.266742,0.162515 -0.40758,0.230616 -0.697827,0.795526 -1.111771,1.764324 -1.111771,2.813042 0,1.383934 3.312871,5.281242 5.2643169,6.193278 0.75554,0.353085 1.731541,0.509981 2.169612,0.347997 0.438071,-0.161984 1.154914,-0.354437 1.592985,-0.426946 1.004959,-0.16633 1.331441,-1.662568 0.478103,-2.190818 -0.39328,-0.243457 -0.50475,-0.174815 -0.287277,0.177639 0.502541,0.814447 -1.546672,1.347004 -3.656813,0.950498 -2.9678779,-0.557688 -5.8728599,-5.235107 -3.9793499,-6.407266 0.653231,-0.404379 3.7852499,1.863736 3.4110199,2.470243 -0.151792,0.246001 -0.101632,0.730991 0.112007,1.077225 0.267024,0.432755 0.513867,0.308082 0.79027,-0.3989 0.369427,-0.944909 0.405438,-0.931237 0.43973,0.168295 0.03809,1.221429 0.835386,1.51679 2.034789,0.754158 0.438501,-0.278814 0.553163,-1.010867 0.331872,-2.119142 -0.48113,-2.409565 -1.39258,-2.122097 -0.955169,0.301261 0.203143,1.125453 0.159016,1.804459 -0.101636,1.558188 -0.254053,-0.240041 -0.488371,-0.718721 -0.520624,-1.063723 -0.03225,-0.345012 -0.09553,-1.051092 -0.140008,-1.568575 -0.0605,-0.703836 -0.38735,-0.863757 -1.298449,-0.634704 -0.830423,0.20876 -1.528996,-0.03736 -2.1945019,-0.7739 -0.955423,-1.057453 -0.945489,-1.091879 0.456324,-1.625708 0.7876729,-0.299969 1.8592869,-0.545369 2.3811799,-0.545369 1.657614,0 4.443693,2.316904 5.117049,4.254891 0.55085,1.585403 0.708037,1.71283 1.056804,0.860121 0.238895,-0.584081 0.137439,-1.43677 -0.242681,-2.046423 -0.358374,-0.574787 -0.574461,-1.083746 -0.481214,-1.131243 0.09325,-0.04748 1.841681,-0.886514 3.886011,-1.864627 10.453698,-5.001637 18.117459,-12.807726 22.905378,-23.331261 1.899066,-4.174024 2.172074,-5.461965 1.156365,-5.461965 -0.889443,0 -10.916772,5.707739 -13.309096,7.575907 -1.095177,0.855227 -1.991231,1.291158 -1.991231,0.968153 0,-0.705833 5.880585,-4.568512 10.487149,-6.888226 1.825295,-0.919159 3.318718,-1.906654 3.318718,-2.194967 0,-0.252617 -0.03164,-0.415525 -0.220902,-0.441486 z m 1.050582,1.96851 c 0.137551,0.01172 0.23231,0.166111 0.23231,0.505892 0,0.236613 -0.33521,0.889966 -0.745675,1.452229 -0.698068,0.956222 -0.7291,0.928564 -0.469805,-0.430058 0.169945,-0.890463 0.680556,-1.553847 0.98317,-1.528063 z m -2.310658,1.811653 c 0.127306,-0.0095 0.216599,0.01127 0.268609,0.06336 0.155088,0.155342 -0.224937,1.144002 -0.845236,2.197045 -0.620299,1.053042 -1.128364,2.153461 -1.128364,2.445315 0,0.932118 -4.020471,6.496951 -6.700699,9.27433 -3.731069,3.866308 -6.863884,6.047881 -13.07575,9.105011 -2.535358,1.247762 -3.056332,1.421956 -3.056332,1.023207 0,-0.119195 0.966589,-2.076222 2.147833,-4.349415 3.850916,-7.410717 5.660972,-9.338675 14.047512,-14.958603 4.707334,-3.154448 7.451288,-4.733741 8.342427,-4.800255 z m 16.046003,0.336568 c 1.034956,0.113623 5.392238,2.373734 8.877571,4.669368 5.212439,3.433195 9.944065,8.393734 12.25333,12.846735 1.087717,2.097456 1.80456,3.801632 1.592985,3.787429 C 81.183289,78.343486 78.96355,77.259688 76.46241,75.948752 70.853745,73.009034 65.218345,68.574397 62.831815,65.223229 61.039739,62.706786 58.44281,57.92653 58.44281,57.143509 c 0,-0.07751 0.08031,-0.105568 0.228163,-0.08934 z m -7.395557,1.799187 c -0.02178,0.0039 -0.04967,0.01927 -0.07674,0.03324 0.0067,0.04522 0.01798,0.08784 0.02282,0.134004 0.05187,-0.03031 0.100666,-0.04709 0.150379,-0.06648 0.0016,-0.03817 -0.0034,-0.06678 -0.01763,-0.08102 -0.01913,-0.01916 -0.04616,-0.02555 -0.07882,-0.01974 z m -7.859139,0.01143 c 0.09477,0.01841 0.15261,0.08943 0.150379,0.207759 -0.0045,0.236656 -0.239594,0.789066 -0.522698,1.227851 -0.443592,0.687532 -0.515689,0.673264 -0.522698,-0.101801 -0.0045,-0.494653 0.230651,-1.047062 0.522698,-1.227852 0.146024,-0.0904 0.277551,-0.124368 0.372319,-0.105957 z m -3.726298,0.07999 c -0.846346,0.256553 -9.920893,8.844946 -9.920893,9.423917 0,0.242762 0.114196,0.441486 0.253053,0.441486 0.481199,0 9.965963,-9.620813 9.723844,-9.863325 -0.0096,-0.0096 -0.0287,-0.0104 -0.056,-0.0021 z m 21.954357,0.09868 c -0.145742,0.14598 3.674272,4.067437 8.488659,8.713383 4.814386,4.645943 8.992068,8.45047 9.284115,8.454717 0.292047,0.005 -3.527973,-3.915918 -8.48866,-8.712337 -4.960693,-4.796401 -9.138377,-8.601741 -9.284114,-8.455761 z m -8.934611,3.816522 c 0.0011,0.0036 0.002,0.0078 0.0031,0.01143 0.0019,-0.0012 0.0033,-0.0029 0.0052,-0.0041 -0.0028,-0.0023 -0.0055,-0.0049 -0.0083,-0.0073 z m -23.289104,0.09972 c 0.301852,0 0.03581,0.478675 -0.591147,1.063723 -0.626952,0.585047 -1.306518,1.063723 -1.510017,1.063723 -0.203499,0 0.06255,-0.478676 0.591147,-1.063723 0.528598,-0.585048 1.208164,-1.063723 1.510017,-1.063723 z m 21.476254,0.7739 c -0.544713,0.09764 -1.931586,2.75895 -3.167301,6.092512 -0.007,0.174945 -0.0359,0.366348 -0.105785,0.581724 -0.03839,0.118304 -0.07673,0.236961 -0.115118,0.355266 -0.244155,0.752415 -0.709817,1.075361 -1.122141,1.069952 -0.133337,0.507807 -0.36956,1.077255 -0.683448,1.610133 -0.593286,1.007191 -0.940978,2.052633 -0.773677,2.323775 0.167301,0.271112 0.827247,0.37468 1.466459,0.229574 5.10448,-1.158767 6.185756,-1.268106 7.85188,-0.789486 2.4342,0.699259 3.133077,0.651381 3.133077,-0.216072 0,-0.479872 -1.028196,-2.447827 -2.329326,-4.589376 -0.07525,-0.09075 -0.136967,-0.198229 -0.1929,-0.311637 -0.680585,-1.106308 -1.418451,-2.239448 -2.12398,-3.227524 -0.657106,-0.920259 -1.194738,-1.921862 -1.194738,-2.225092 0,-0.303236 -0.243718,-0.702232 -0.542403,-0.887128 -0.02913,-0.01804 -0.06318,-0.02333 -0.100599,-0.01662 z m -0.105784,2.417267 c 0.286159,0 4.996745,7.233133 4.996745,7.672509 0,0.168174 -0.298685,0.304396 -0.663744,0.303334 -0.365059,-10e-4 -1.094628,-1.052564 -1.622023,-2.337287 -0.527395,-1.284705 -1.393649,-2.730423 -1.924856,-3.211938 -1.027752,-0.931619 -0.875721,-1.14498 -3.032479,4.249698 -0.140571,0.351603 0.473687,0.4784 1.651062,0.340715 1.150915,-0.134579 1.875076,0.009 1.875076,0.370855 0,0.324528 -0.816643,0.590031 -1.814924,0.590031 -0.998281,0 -2.19302,0.145507 -2.654975,0.323066 -0.461955,0.177569 -0.84005,0.158879 -0.84005,-0.04157 0,-0.557858 3.757938,-8.259425 4.030168,-8.259425 z m -21.612114,2.993797 c -0.273199,0.05481 -1.454361,1.043417 -2.858246,2.409997 -1.604442,1.561804 -2.918668,3.071723 -2.920472,3.354253 -0.0018,0.282531 1.311101,-0.786821 2.91736,-2.375709 1.60626,-1.588898 2.920472,-3.09778 2.920472,-3.353222 0,-0.03193 -0.02009,-0.04315 -0.05911,-0.03532 z m 21.894205,0.784288 c 0.187092,0.03327 0.402227,0.264768 0.742563,0.711572 0.432522,0.567826 0.786122,1.226005 0.786122,1.46262 0,0.451906 -0.212303,0.459509 -1.725734,0.0634 -1.059345,-0.277281 -1.135019,-0.629916 -0.379578,-1.76075 0.230648,-0.345266 0.389535,-0.510076 0.576627,-0.476805 z M 22.10907,70.937621 c 0.164189,0 -0.195623,0.69509 -0.799604,1.544684 -0.603981,0.849594 -1.098288,1.705698 -1.098288,1.902028 0,0.19632 -0.977418,2.03216 -2.171686,4.080366 -1.194268,2.048207 -2.069549,3.826373 -1.945599,3.950525 0.382385,0.383014 5.076539,-1.206355 7.106205,-2.405838 1.058055,-0.625289 2.03533,-1.025781 2.171687,-0.889209 0.136356,0.136583 -0.550317,0.680068 -1.526611,1.207076 -0.976293,0.527029 -2.988587,1.469053 -4.471972,2.09317 -2.245952,0.944939 -2.85302,1.020632 -3.626737,0.453949 -0.769857,-0.563848 -0.822374,-0.880574 -0.304907,-1.849052 1.233306,-2.308209 6.375238,-10.087699 6.667512,-10.087699 z m 0.563145,4.434601 c -0.03936,-0.008 -0.08307,-0.008 -0.130675,0.001 -0.06347,0.01232 -0.133371,0.03996 -0.206382,0.08514 -0.292048,0.180795 -0.530995,0.567605 -0.530995,0.860121 0,0.292527 0.238947,0.384397 0.530995,0.203602 0.292047,-0.180784 0.530994,-0.567594 0.530994,-0.860111 0,-0.164548 -0.07586,-0.265212 -0.193937,-0.289822 z m 65.064507,5.256282 c 0.979293,-0.02053 2.045616,0.20899 2.5886,0.701182 0.659029,0.597383 1.042943,0.66933 1.304671,0.24516 0.728148,-1.180083 2.389477,1.09283 2.389477,3.269075 0,1.584881 -0.364698,2.389101 -1.633431,3.603569 -2.454672,2.349638 -5.259818,1.929343 -8.057226,-1.207076 -1.396065,-1.565249 -1.119236,-5.133702 0.398246,-5.133702 0.375578,0 0.800485,-0.306449 0.943759,-0.680408 0.194476,-0.507627 1.086606,-0.777307 2.065904,-0.7978 z m 4.189879,1.478208 c -0.309283,0 -0.562106,0.23933 -0.562106,0.531856 0,0.292527 0.105594,0.531867 0.234381,0.531867 0.128788,0 0.381616,-0.23934 0.562112,-0.531867 0.180495,-0.292526 0.0749,-0.531856 -0.234387,-0.531856 z m -1.38245,0.290864 c -0.01731,0.009 -0.03414,0.03426 -0.05188,0.07793 -0.141834,0.349218 -0.601303,0.502889 -1.020508,0.341756 -0.419189,-0.161122 -0.762264,-1.2e-4 -0.762264,0.357342 0,0.452998 -0.40225,0.385969 -1.327488,-0.22126 -1.485192,-0.974728 -1.746155,-0.59579 -0.5227,0.758315 0.722524,0.799683 0.697451,1.026552 -0.247864,2.230293 -0.579002,0.737281 -0.901767,1.492211 -0.716636,1.677643 0.807405,0.808717 1.96893,-0.173022 2.430959,-2.055769 0.194694,-0.793372 0.276606,-0.682361 0.322537,0.435259 0.05119,1.245689 0.240339,1.440987 1.123181,1.16033 0.609216,-0.193675 1.06199,-0.09606 1.06199,0.229574 0,0.312239 0.287359,0.568216 0.637815,0.568216 0.495594,0 0.495594,-0.141421 0,-0.637819 -0.350456,-0.351032 -0.656256,-1.727224 -0.679301,-3.058202 -0.02018,-1.164617 -0.126706,-1.925606 -0.247864,-1.863585 z m -6.197709,0.772859 c -0.228678,0 -0.415875,0.757554 -0.415875,1.683882 0,0.926319 0.160987,1.523662 0.3578,1.326531 0.508762,-0.50959 0.55703,-3.010413 0.05807,-3.010413 z m 2.883138,3.230632 c 0.06878,0.002 0.1261,0.02244 0.166971,0.0634 0.163488,0.163757 -0.131766,0.460941 -0.655444,0.660666 -0.756774,0.288631 -0.817127,0.22715 -0.296614,-0.298125 0.270149,-0.272624 0.578726,-0.431994 0.785087,-0.425914 z m -4.723991,2.73203 c -0.03977,0.005 -0.03213,0.06901 0.01142,0.180745 0.04975,-0.02624 0.116968,-0.05549 0.17423,-0.08314 -0.07823,-0.05138 -0.155263,-0.101585 -0.185641,-0.09766 z m 0.919911,1.168634 c 0.01699,0.01382 0.03483,0.02674 0.05188,0.04057 0.0078,-0.008 0.01837,-0.01943 0.02591,-0.02704 -0.02904,-0.01573 -0.09815,-0.03005 -0.07778,-0.01352 z"
     style="fill:#000000;stroke-width:0.53142792"
     id="pathC14" />
</svg>
