<?xml version="1.0" encoding="UTF-8" standalone="no"?>
<svg
   xmlns:dc="http://purl.org/dc/elements/1.1/"
   xmlns:cc="http://creativecommons.org/ns#"
   xmlns:rdf="http://www.w3.org/1999/02/22-rdf-syntax-ns#"
   xmlns:svg="http://www.w3.org/2000/svg"
   xmlns="http://www.w3.org/2000/svg"
   id="svgC15"
   version="1.1"
   viewBox="0 0 100 100"
   height="100"
   width="100">
  <defs
     id="defs2" />
  <metadata
     id="metadata5">
    <rdf:RDF>
      <cc:Work
         rdf:about="">
        <dc:format>image/svg+xml</dc:format>
        <dc:type
           rdf:resource="http://purl.org/dc/dcmitype/StillImage" />
        <dc:title></dc:title>
      </cc:Work>
    </rdf:RDF>
  </metadata>
  <path
     d="m 46.723228,6.0012599 c -2.061581,-0.104004 -0.627699,6.2988291 -2.267798,7.8011921 -0.821879,4.236777 0.161854,8.81466 -0.835294,12.905498 -1.695615,0.912152 -0.111151,6.650338 -2.534892,7.566769 -3.80563,-1.476994 -6.473579,-5.133912 -10.223599,-6.649461 -2.988969,-3.602197 -7.339284,-5.486071 -10.159576,-9.151672 -3.567827,-1.323771 -4.716794,-6.207339 -8.275912,-7.526 -3.2263126,2.891315 4.589685,5.953795 5.017766,9.449288 2.38078,1.333919 4.288185,4.07478 6.265205,6.276422 2.109427,3.451787 5.837605,6.234485 6.62033,10.50827 0.475589,2.95017 1.482131,-1.464631 1.548545,1.977306 3.072148,2.164758 -0.627847,3.864486 -2.921028,3.407288 -3.464921,2.038361 -7.938867,0.975675 -11.294976,2.63777 -3.552767,0.321663 -5.927691,1.326888 -9.5253516,2.920095 -2.95069,-1.218514 -4.697837,1.960121 -1.189419,2.567442 4.0945166,-0.770209 8.1958816,0.341197 12.0912556,1.058981 2.641645,0.996004 6.46447,1.377774 9.581372,2.150577 3.528748,0.0054 5.469723,2.924925 2.61192,5.361153 -3.263927,3.02928 -4.724788,7.4775 -8.031827,10.50827 -2.087609,2.16793 -3.265552,4.62725 -5.066784,6.00327 -0.606604,2.63048 -4.011238,4.95967 -6.36524,7.27731 -1.9530296,4.06494 4.297782,0.49289 5.088791,-1.30462 3.595174,-3.18762 6.52505,-7.31646 10.668755,-9.76628 3.257544,-2.38107 6.739241,-4.7956 10.08555,-6.99905 4.199692,-4.091178 5.740582,2.52344 5.461922,5.97168 0.0297,4.2525 1.853412,8.02283 1.318465,12.41729 1.091753,4.2323 -1.930663,8.8921 -1.046369,12.37957 0.7671,0.36915 1.659006,0.27876 2.449862,0.058 1.684745,-3.35389 1.101935,-8.40176 1.9927,-12.3867 -0.09279,-4.17785 0.680242,-8.21183 1.736614,-12.19511 0.03519,-0.56486 0.08522,-1.25405 0.151052,-1.97526 -0.01122,-0.23773 0.0062,-0.50077 0.017,-0.76748 0.0069,-0.17147 0.02955,-0.31713 0.05902,-0.44948 -0.0015,-0.35722 0.06958,-0.64295 0.183063,-0.86125 0.519372,-3.04793 1.732978,-6.024099 4.910728,-5.241905 0.85001,4.361015 6.50554,4.195705 8.480989,7.479105 3.67917,2.19334 5.987126,5.66367 9.680407,7.36498 4.014602,0.67076 5.702794,6.09689 9.130212,8.03663 3.986305,-1.98511 -3.033956,-5.99195 -4.496584,-8.09779 -1.205519,-4.5967 -6.875503,-3.05204 -8.46698,-7.83483 -2.552486,-3.54976 -4.532125,-7.563572 -6.327224,-11.451055 -3.436663,-4.283855 1.526287,-4.735474 4.654638,-5.472251 3.216989,-1.897673 7.189956,-2.316701 10.836813,-3.031191 4.33809,0.561823 8.236693,-0.772401 12.352349,-1.850922 2.99888,0.142361 6.9419,-3.499241 1.87266,-3.89652 -5.952893,0.532406 -11.97368,0.521673 -17.964325,0.415846 -4.478494,0.202718 -8.848345,-0.748066 -13.266673,-0.678807 -0.326633,-3.585918 5.048997,-6.215997 7.044482,-9.298442 2.463131,-3.85309 5.766371,-6.73016 8.908136,-9.92221 1.944211,-2.263034 4.415926,-4.565103 7.192532,-6.818653 2.961283,-0.608175 1.744993,-5.483144 -0.645229,-3.090308 -2.415007,2.600825 -5.256916,4.586304 -8.116854,7.379231 -3.025013,1.537866 -5.213872,4.720951 -8.564018,6.503709 -4.413565,2.228663 -8.245242,5.458301 -12.587429,7.8705 -4.764306,0.376239 -6.347537,-4.114059 -5.667997,-8.350557 -1.125352,-6.927665 -0.782386,-13.969081 -1.412496,-20.9319401 -0.295353,-0.162643 -0.546,-0.243029 -0.759267,-0.253789 z M 45.850921,27.720046 c 0.68622,-0.0079 1.387436,4.614151 0.558197,5.802481 -3.437728,2.501929 -1.722715,-2.486892 -1.182417,-3.952577 0.168375,-1.330102 0.39548,-1.847291 0.62422,-1.849904 z m 19.207762,3.509212 c 2.190012,0.60839 -2.362708,4.889378 -3.373188,6.485364 -1.189298,1.653843 -3.200574,2.339256 -4.689651,0.587077 0.683279,-3.320179 5.827925,-4.254311 8.062839,-7.072441 z M 32.26614,31.460622 c 1.874609,0.387856 9.134521,4.367879 4.126452,6.775847 -3.362183,1.804206 -3.645992,-4.834423 -4.126452,-6.775847 z m 14.242013,4.66502 c 0.570356,0.0133 1.148836,0.07664 1.732609,0.195692 3.672005,0.540852 7.53829,2.00484 9.069192,5.756615 1.649287,3.435048 0.996452,7.155036 0.786279,10.486863 -1.551082,4.052732 -4.879844,7.33304 -9.06619,8.324059 -1.135596,0.544141 -2.347485,0.913742 -3.57126,1.186384 -4.794716,1.44496 -7.933813,-4.126524 -10.225599,-7.488288 -1.806674,-4.050704 -1.400318,-9.22357 1.536541,-12.713884 2.156243,-3.445982 5.745936,-5.840483 9.738428,-5.747441 z m 0.91132,1.581846 c -0.930147,0.01543 -1.88514,0.20921 -2.846001,0.615616 -5.126328,0.945286 -6.251155,6.169086 -7.226544,10.57044 -0.58371,4.228639 2.904601,8.428361 6.088143,10.534769 2.448709,-0.361381 6.189925,-1.179218 8.514998,-3.370596 3.611086,-2.441293 5.93701,-6.900054 4.553601,-11.304288 -1.494645,-3.831455 -5.05356,-7.112799 -9.084197,-7.045941 z m -0.309108,1.996673 c 2.498457,0.04462 5.216331,1.455459 5.791038,3.473538 1.903995,2.617609 3.480885,6.087531 0.583205,8.999807 -2.790553,-0.733163 1.1255,-7.193054 -2.822995,-8.650211 -4.334546,-2.964357 -9.580348,1.61965 -8.193882,6.612768 -0.04693,4.38432 5.936268,3.010767 6.267204,5.440654 -2.633038,0.870404 -6.141394,1.871326 -7.529649,-1.508462 -3.215809,-3.401909 -1.023149,-8.450657 1.584558,-11.636557 0.566575,-1.974484 2.377278,-2.766235 4.320521,-2.731537 z m 0.548192,5.189923 c 2.510493,-0.145328 4.784983,4.181011 1.665585,6.699402 l -0.726252,0.610519 c -1.037093,-0.792983 -5.538766,-1.8825 -3.686299,-4.708844 0.745452,-1.802409 1.7646,-2.54421 2.746966,-2.601077 z m 14.662159,0.141673 c 1.542779,0.03754 3.837531,1.091999 4.633634,1.620576 4.225395,0.555626 -0.159206,2.305493 -1.879661,2.759058 -3.799978,1.713616 -4.626314,0.720006 -4.232489,-3.015903 -0.101483,-1.042717 0.552853,-1.386251 1.478516,-1.363731 z m -31.175971,0.423999 c 1.836073,0.21034 -0.08065,4.360182 0.53919,5.822866 -2.732453,1.169444 -7.068819,-2.008236 -10.459682,-1.853982 -4.034123,0.775203 -1.546027,-2.817163 0.999352,-2.592921 3.19689,0.411451 5.847731,-1.241131 8.92114,-1.375963 z m 16.753896,1.769384 c -0.352504,-0.02545 -0.643012,0.508862 -0.601211,2.143443 2.807069,1.642641 1.50206,-2.078389 0.601211,-2.143443 z m 2.938036,6.193866 c 0.170525,-0.03041 0.365066,0.11504 0.530188,0.599308 -1.339853,1.163662 -1.041775,-0.508064 -0.530188,-0.599308 z m 7.742726,2.820212 c 2.317175,2.594876 4.050803,6.474457 5.848059,9.7469 -0.817112,1.36745 -3.164659,-1.679047 -4.291512,-1.977305 -3.842868,-1.382334 -4.820769,-5.627997 -1.556547,-7.769595 z m -23.487269,3.05871 c 0.69094,-0.0068 1.42916,0.496196 2.240789,1.799961 0.0589,2.360244 -5.293275,3.556609 -7.086494,5.836119 -2.301527,1.68657 -2.199483,-0.5115 -0.831293,-1.65931 1.95354,-1.346529 3.604178,-5.956257 5.676998,-5.97677 z m 11.154927,5.08087 c 1.363067,-0.0271 1.764593,5.47302 0.942332,7.51274 -1.928162,3.35832 -2.387708,-4.35427 -2.615921,-5.31019 0.658292,-1.5702 1.219233,-2.19351 1.673589,-2.20255 z"
     style="fill:#000000;stroke-width:0.5169906"
     id="pathC15" />
</svg>
