<?xml version="1.0" encoding="UTF-8" standalone="no"?>
<svg
   xmlns:dc="http://purl.org/dc/elements/1.1/"
   xmlns:cc="http://creativecommons.org/ns#"
   xmlns:rdf="http://www.w3.org/1999/02/22-rdf-syntax-ns#"
   xmlns:svg="http://www.w3.org/2000/svg"
   xmlns="http://www.w3.org/2000/svg"
   id="svgC16"
   version="1.1"
   viewBox="0 0 100 100"
   height="100"
   width="100">
  <defs
     id="defs2" />
  <metadata
     id="metadata5">
    <rdf:RDF>
      <cc:Work
         rdf:about="">
        <dc:format>image/svg+xml</dc:format>
        <dc:type
           rdf:resource="http://purl.org/dc/dcmitype/StillImage" />
        <dc:title></dc:title>
      </cc:Work>
    </rdf:RDF>
  </metadata>
  <path
     id="pathC16"
     d="M 12.458117,91.668251 C 9.1048702,86.951514 7.9205362,84.377695 7.3222782,80.506936 c -1.07362,-6.946364 0.663244,-17.024503 3.3146948,-19.233511 0.377323,-0.314358 0.68604,-1.07446 0.68604,-1.689109 0,-0.774734 0.454072,-1.306362 1.480233,-1.733053 0.814127,-0.338523 1.480232,-0.907775 1.480232,-1.265002 0,-0.357228 0.44407,-0.790992 0.986823,-0.963922 0.542751,-0.17293 0.986821,-0.518532 0.986821,-0.768007 0,-0.883641 4.970774,-2.96583 7.769366,-3.254479 2.186746,-0.225543 3.564747,-0.04609 5.998101,0.781106 3.530604,1.200201 3.613095,1.161582 4.516195,-2.114252 0.286337,-1.038629 0.637889,-2.195219 0.781229,-2.5702 0.1803,-0.471667 -0.294677,-0.786359 -1.541195,-1.021112 -2.177063,-0.409996 -5.939213,-2.938645 -9.540109,-6.412179 l -2.660703,-2.566595 -0.519052,-4.29702 c -0.370869,-3.070278 -0.365743,-4.612278 0.01795,-5.401315 0.295354,-0.607366 0.79802,-2.330209 1.117038,-3.828542 0.319018,-1.498332 0.779082,-3.058578 1.022364,-3.467215 0.243282,-0.408636 0.647516,-1.18876 0.8983,-1.733606 0.633388,-1.376094 4.417813,-5.829962 6.202723,-7.299957 C 32.445205,9.9181645 38.706402,7.128547 42.16119,6.3929311 43.789448,6.0462327 46.056291,5.5313469 47.198627,5.2487426 49.333564,4.720577 52.271188,5.0951001 51.484015,5.7950993 51.241231,6.0109996 49.377326,6.4618308 47.342006,6.7969491 42.46377,7.6001564 36.574081,9.2301109 35.138857,10.174139 c -1.624076,1.068247 -0.997447,1.376183 0.883552,0.434195 0.863829,-0.432601 3.042506,-1.1327061 4.841511,-1.5557949 1.799002,-0.4230898 4.048036,-0.9728902 4.997854,-1.2217771 2.10636,-0.5519501 6.92519,-0.9509168 7.771223,-0.6434017 1.402357,0.5097221 0.444689,0.9850573 -2.156521,1.0703879 -1.525308,0.050034 -3.207918,0.3244813 -3.73914,0.6098771 -0.531216,0.2853986 -1.235349,0.4150935 -1.564728,0.2882083 -0.329387,-0.1268852 -1.020577,0.07885 -1.535985,0.4571756 -0.515406,0.3783304 -1.505264,0.6886828 -2.19968,0.6896698 -1.687227,0.0023 -8.745766,2.677149 -10.042843,3.805614 -2.155495,1.875294 -3.356103,3.471859 -4.837381,6.432726 -1.24978,2.498139 -1.572923,3.836199 -1.764903,7.308068 -0.272443,4.926995 0.286058,7.113144 2.508201,9.817887 3.592889,4.373189 7.774337,5.585026 11.908693,3.451293 2.026522,-1.045883 4.820145,-3.666856 4.685041,-4.395491 -0.04258,-0.229779 0.0691,-1.487619 0.248247,-2.795204 0.337736,-2.465078 -0.259364,-4.765914 -1.667184,-6.424287 -0.669975,-0.78921 -0.630117,-1.085621 0.399648,-2.971896 2.737429,-5.014308 5.577247,-6.4773 12.417876,-6.397335 3.166366,0.03702 4.225187,0.274874 6.366792,1.430267 4.980352,2.686889 7.216644,6.39767 7.82587,12.985841 0.27802,3.006497 0.367773,3.189414 1.648685,3.360031 3.827795,0.509857 9.20858,4.056323 11.308157,7.453182 1.038594,1.680319 2.676107,5.657022 3.110328,7.553458 0.09357,0.408636 0.318068,1.411652 0.498898,2.228924 0.78434,3.544856 3.470205,9.496604 5.06699,11.228201 1.31861,1.429933 1.14531,2.393002 -0.430629,2.393002 -1.241229,0 -2.664182,0.747126 -4.861618,2.552609 -0.943802,0.775457 -1.998468,1.409922 -2.343696,1.409922 -0.345234,0 -2.013601,1.393079 -3.707481,3.095729 -3.336449,3.353723 -5.93785,5.324652 -7.027933,5.324652 -0.378998,0 -0.809836,0.19613 -0.957414,0.435843 -0.523606,0.850486 -5.198046,2.040776 -8.023904,2.043193 -1.577261,0.0019 -3.926816,-0.378614 -5.22122,-0.844347 l -2.353466,-0.846803 -2.333937,2.515037 c -1.28367,1.383261 -3.066653,3.012243 -3.9622,3.619954 -1.778806,1.207077 -5.707483,2.40695 -7.260374,2.217412 -0.538771,-0.06571 -2.307897,-0.26267 -3.931387,-0.437588 -3.509069,-0.378078 -7.203975,-2.618157 -8.396735,-5.090613 -0.421541,-0.873806 -0.972834,-1.716791 -1.225094,-1.873302 -0.64535,-0.400389 -0.04383,-1.738786 0.781463,-1.738786 1.000307,0 3.467316,-3.647407 4.425248,-6.542611 1.430369,-4.323062 0.206468,-9.783887 -2.830071,-12.62726 -2.940248,-2.753213 -7.617924,-3.357429 -11.61178,-1.499903 -3.474045,1.615761 -4.654114,2.708935 -6.539495,6.057938 -1.428777,2.537937 -1.691997,3.51435 -1.802616,6.686773 -0.116005,3.326901 0.117515,4.824382 1.751328,11.230566 0.220488,0.86453 0.827489,2.201882 1.348888,2.971898 0.5214,0.769996 1.197506,1.985524 1.502457,2.701159 0.304952,0.715627 1.239378,2.08425 2.076504,3.041357 1.138852,1.302099 1.349077,1.806845 0.835016,2.004872 -0.377868,0.145556 -1.231889,-0.331487 -1.897825,-1.060101 -1.399148,-1.530823 -3.647103,-4.731088 -3.456679,-4.921028 0.07117,-0.07098 -0.215274,-0.657122 -0.636533,-1.302531 -1.216042,-1.863076 -2.703172,-7.641649 -3.034909,-11.792802 -0.342932,-4.291244 0.309422,-7.45954 2.144893,-10.417125 0.630636,-1.016177 1.146613,-2.033214 1.146613,-2.260085 0,-0.936435 3.087469,-3.277969 5.767085,-4.373747 7.607534,-3.110964 14.216453,-0.211961 16.712106,7.330762 1.590738,4.807764 -0.297397,11.617881 -4.061576,14.649272 l -1.835705,1.478346 2.70703,2.717476 c 2.976308,2.987812 4.714445,3.568328 10.457439,3.492691 3.521203,-0.04633 7.271369,-2.112508 10.481008,-5.774468 2.26413,-2.583213 1.935034,-2.514181 6.39995,-1.342407 3.910848,1.026355 7.975045,0.545782 12.335272,-1.458596 2.12439,-0.976572 5.76618,-3.890335 4.903794,-3.923481 -0.288047,-0.01104 -0.954154,0.378189 -1.480232,0.865021 -0.526079,0.486836 -1.73363,1.178005 -2.683445,1.535936 -0.949817,0.357935 -2.259289,0.90691 -2.909937,1.219944 -2.197286,1.057145 -10.856149,0.559238 -12.114428,-0.696613 -0.937908,-0.936103 -2.099822,-0.416293 -4.766867,2.132576 -6.09665,5.826507 -14.011129,7.54986 -18.24571,3.972937 -2.152996,-1.818624 -2.545364,-3.103889 -1.347583,-4.414214 0.533138,-0.58323 1.707699,-2.55994 2.610134,-4.39268 1.5365,-3.120474 1.629708,-3.598484 1.466524,-7.521009 -0.154236,-3.707409 -0.376225,-4.551294 -1.931832,-7.34372 -1.733017,-3.11089 -3.882447,-5.190966 -5.364044,-5.190966 -0.417001,0 -0.876673,-0.192465 -1.021495,-0.427696 -0.144826,-0.235236 -2.184772,-0.470214 -4.533217,-0.522173 -3.782448,-0.08368 -4.575276,0.06063 -6.944864,1.264162 -7.041189,3.576274 -10.8502668,11.963442 -10.2346518,22.535576 0.235999,4.052923 0.509555,5.141706 2.1614338,8.602723 1.040181,2.179397 2.413843,4.530767 3.052584,5.225271 1.132306,1.231154 2.394871,3.173195 2.394871,3.683706 C 16.257116,94.885524 15.935283,95 15.54193,95 15.148577,95 13.760859,93.500708 12.458112,91.668251 Z m 35.328448,-9.25444 c 0.476674,-0.433051 1.050719,-0.787358 1.275659,-0.787358 0.801592,0 5.51798,-3.969619 6.170428,-5.193431 0.945719,-1.773922 2.62241,-1.610408 7.405101,0.722171 0.810051,0.395074 5.369195,0.272503 7.524186,-0.202282 1.33964,-0.29515 4.410693,-1.878746 7.771552,-4.007423 0.949817,-0.601592 3.329006,-2.677498 5.287081,-4.613135 l 3.560142,-3.519332 -0.659917,-1.877646 c -0.362956,-1.0327 -0.810956,-2.877714 -0.995545,-4.100021 -0.857918,-5.680865 -2.2117,-10.89042 -2.830037,-10.89042 -0.227941,0 -0.414437,-0.317237 -0.414437,-0.704971 0,-2.184436 -5.483067,-5.760121 -12.229624,-7.975329 -1.423233,-0.467313 -2.731567,-1.083346 -2.907404,-1.36896 -0.175842,-0.285612 -0.400132,-1.651926 -0.498422,-3.036253 -0.34263,-4.825432 -0.649364,-5.747475 -2.863587,-8.607837 -2.342378,-3.025921 -5.416397,-4.276738 -8.897851,-3.620534 -2.26416,0.426763 -2.935287,0.770871 -5.069606,2.599339 l -1.527146,1.3083 0.960962,1.892156 c 0.528532,1.040686 0.960966,2.40226 0.960966,3.025718 0,1.395751 0.556026,1.44177 1.72694,0.142928 1.053788,-1.168921 2.22035,-1.29904 2.22035,-0.247658 0,0.408636 -0.333052,0.742975 -0.740117,0.742975 -0.407064,0 -0.740117,0.222892 -0.740117,0.495317 0,0.272424 0.208931,0.495314 0.464291,0.495314 0.25536,0 0.601516,-0.22289 0.769237,-0.495314 0.167718,-0.272425 0.624895,-0.495317 1.015944,-0.495317 1.488127,0 0.602818,0.990421 -2.249472,2.516546 -1.628256,0.871203 -2.960467,1.775844 -2.960467,2.010313 0,0.858384 1.603863,0.388508 3.762177,-1.102184 1.320262,-0.911875 2.533942,-1.404868 3.008518,-1.222053 0.463576,0.178577 0.606654,0.477519 0.34292,0.71647 -0.394455,0.357386 -4.546702,2.569344 -6.590836,3.511029 -0.390914,0.180082 -0.805744,0.613507 -0.921845,0.96316 -0.290353,0.874417 1.320165,0.364796 5.43753,-1.720618 1.821336,-0.922493 3.436832,-1.473717 3.589993,-1.224944 0.298867,0.485444 -3.051403,2.982029 -4.001705,2.982029 -0.314433,0 -1.529768,0.430595 -2.70074,0.95688 -1.170973,0.526286 -2.323439,0.836276 -2.56103,0.688867 -0.457438,-0.283802 -3.312269,2.219808 -3.312269,2.904769 0,0.642778 1.950532,0.466231 3.377748,-0.305726 0.720311,-0.389605 2.974921,-1.444177 5.01024,-2.343492 2.035319,-0.899316 3.993983,-1.917902 4.352589,-2.263525 1.688059,-1.626958 2.066844,-0.245829 0.527695,1.924059 -1.165004,1.642414 -0.885166,2.423018 0.546802,1.525288 1.064592,-0.667419 1.798932,-0.0049 0.858469,0.774489 -0.55623,0.460975 -5.64948,2.254479 -8.025051,2.82589 -4.700396,1.130613 -5.661669,1.482651 -5.661669,2.073424 0,0.679048 2.115768,0.453875 3.207169,-0.341328 0.271377,-0.197726 0.826464,-0.370026 1.233529,-0.382887 1.235019,-0.03902 7.569417,-1.982058 9.137552,-2.802886 1.791194,-0.93759 2.704312,-0.985526 2.704312,-0.141969 0,0.601116 -7.671753,3.393996 -11.21944,4.084404 -0.87886,0.171034 -1.745996,0.551473 -1.926968,0.845421 -0.469509,0.762621 4.952019,0.06573 6.750059,-0.867666 0.777275,-0.403498 1.812822,-0.735006 2.301205,-0.736685 0.488383,-0.0016 1.48042,-0.313347 2.204525,-0.692598 1.883537,-0.986506 5.17183,-1.471473 5.571838,-0.821751 0.180737,0.29357 0.03701,0.607564 -0.319423,0.697765 -0.356422,0.0902 -1.758212,0.556064 -3.115091,1.035253 -1.356882,0.479189 -4.023442,1.14288 -5.925688,1.474869 -3.28693,0.573651 -6.374274,1.732466 -4.682648,1.757602 2.267531,0.0337 9.6545,-1.083227 10.206679,-1.543267 0.356598,-0.297093 0.648364,-0.39844 0.648364,-0.225216 0,0.173225 0.804238,-0.02237 1.787192,-0.434668 2.167855,-0.909284 2.160093,-0.908934 2.160093,-0.09742 0,0.854797 -6.188562,2.669777 -10.484983,3.075035 -1.83943,0.173504 -3.330522,0.551193 -3.330522,0.843612 0,0.801091 11.185784,-0.170542 11.841863,-1.028623 0.135688,-0.177466 0.690773,-0.398504 1.233526,-0.491198 0.542753,-0.09269 1.361389,-0.504589 1.819201,-0.915325 1.016704,-0.912168 2.210249,-0.406069 1.387971,0.588542 -0.380786,0.460589 -0.385503,0.75146 -0.01593,0.980761 0.973949,0.604257 5.05e-4,1.201356 -2.888935,1.772015 -3.605173,0.712013 -4.466712,1.189944 -3.640381,2.019465 0.472367,0.474191 0.788263,0.439326 1.476108,-0.162915 0.481322,-0.42142 2.049751,-0.915384 3.4854,-1.0977 1.435652,-0.182316 3.157362,-0.58171 3.826023,-0.887548 0.668659,-0.305843 1.380983,-0.390195 1.582939,-0.187458 0.694665,0.697342 -1.380228,1.648116 -4.327109,1.982807 -2.960095,0.336191 -3.627559,0.847972 -2.172217,1.665566 0.5103,0.286684 1.40554,0.140283 2.590408,-0.42361 0.995841,-0.473928 2.685332,-1.012352 3.754443,-1.196501 1.807591,-0.311346 1.894041,-0.274286 1.233526,0.528775 -0.546856,0.664869 -0.568379,0.911531 -0.09354,1.071964 0.33922,0.114617 0.616764,0.6356 0.616764,1.157743 0,0.619145 0.343242,0.949358 0.986821,0.949358 0.57853,0 0.986823,0.330212 0.986823,0.798099 0,0.652663 -0.334064,0.735188 -1.83324,0.452852 -1.008286,-0.189884 -2.423362,-0.651588 -3.144616,-1.026003 -1.216845,-0.631697 -1.929873,-0.53027 -1.929873,0.27452 0,0.183896 0.861802,0.593557 1.915111,0.910357 2.110146,0.634658 3.285747,1.718707 2.770842,2.555059 -0.238915,0.388071 -0.525481,0.380795 -1.013427,-0.02571 -0.966622,-0.805345 -6.196694,-3.939178 -6.574083,-3.939178 -0.173218,0 -0.592271,-0.445785 -0.931225,-0.990633 -0.613902,-0.986814 -2.581561,-1.397902 -2.581561,-0.539345 0,0.741989 2.987175,3.034675 5.015339,3.849322 1.040831,0.418067 1.892414,1.070255 1.892414,1.449311 0,0.898514 -0.509413,0.870489 -1.895764,-0.104303 -1.404053,-0.987236 -2.00047,-0.518171 -0.897206,0.705633 0.450631,0.499863 0.819327,1.05846 0.819327,1.241327 0,0.841804 -1.142492,0.162364 -2.772457,-1.648781 -0.98069,-1.089695 -2.045964,-1.981265 -2.367278,-1.981265 -0.625383,0 -6.027817,-4.613125 -7.100163,-6.062812 -0.629883,-0.851529 -3.055841,-1.243388 -3.055841,-0.493608 0,0.468242 5.191442,4.575154 5.783328,4.575154 0.822955,0 7.238052,6.261098 6.73493,6.573246 -0.278612,0.172856 -1.30664,-0.46583 -2.28451,-1.4193 -0.977874,-0.953474 -3.317553,-2.781781 -5.19929,-4.062912 -1.881735,-1.281127 -4.703903,-3.517267 -6.271484,-4.969193 -2.122966,-1.966333 -2.953155,-2.472551 -3.253888,-1.98408 -0.462411,0.751088 -0.171983,1.017568 7.821437,7.176661 3.052981,2.352382 5.550874,4.57922 5.550874,4.948533 0,0.961652 -0.184175,0.879494 -2.658676,-1.185961 -1.223906,-1.02159 -3.37939,-2.749007 -4.789974,-3.838703 -1.41058,-1.089696 -2.865089,-2.2758 -3.232248,-2.635792 -0.367156,-0.359985 -0.667554,-0.449638 -0.667554,-0.199226 0,0.385545 1.625586,1.986601 7.031107,6.925 0.474907,0.433867 0.863467,0.972747 0.863467,1.197506 0,0.795003 -1.315735,0.393842 -2.314896,-0.705811 -2.337899,-2.573025 -5.62164,-5.447634 -5.901754,-5.166438 -0.165885,0.166526 0.837877,1.554368 2.230584,3.084094 2.343205,2.573743 3.151449,4.18744 2.097343,4.18744 -0.239166,0 -1.063914,-0.827932 -1.83277,-1.839848 -0.768859,-1.011917 -1.786821,-2.230247 -2.262128,-2.70739 -0.475312,-0.477149 -1.436325,-1.77734 -2.135585,-2.88932 -1.146777,-1.823627 -2.455273,-2.898057 -2.931529,-2.407134 -0.365672,0.376931 3.452174,5.693514 5.334859,7.429123 1.437593,1.325284 1.857302,2.032328 1.602341,2.699306 -0.298167,0.780014 -0.611104,0.602062 -2.286614,-1.300305 -1.067643,-1.212192 -2.944435,-3.597067 -4.170654,-5.299718 -1.226215,-1.702649 -2.456493,-3.095728 -2.733947,-3.095728 -0.769216,0 1.601152,4.252049 4.326357,7.760768 1.495517,1.925483 2.086719,3.656733 1.233526,3.612194 -0.590488,-0.03081 -3.403367,-4.082388 -5.381242,-7.750935 -2.138247,-3.965999 -2.067585,-3.863112 -2.414214,-3.515147 -0.149018,0.149596 0.961158,2.673307 2.467052,5.608251 2.887221,5.627096 3.199042,6.667781 1.997881,6.667781 -0.407064,0 -0.740117,-0.250744 -0.740117,-0.557206 0,-0.594469 -2.258025,-6.125752 -3.00777,-7.367857 -0.246655,-0.408636 -0.659936,-1.18876 -0.918404,-1.733608 -0.673447,-1.419616 -2.381013,-3.495403 -2.642357,-3.212156 -0.121927,0.13214 1.103091,2.983097 2.72226,6.335464 2.791066,5.778678 3.425481,8.529948 1.620084,7.025816 -0.403855,-0.336464 -0.734279,-1.028713 -0.734279,-1.538334 0,-1.03799 -1.563324,-4.895916 -1.983941,-4.895916 -0.149,0 -0.21753,1.682585 -0.152281,3.739079 0.09356,2.948674 -0.08533,4.103618 -0.846215,5.463549 -1.128066,2.016176 -1.208619,2.684967 -0.323415,2.684967 0.352787,0 0.916401,0.27603 1.25247,0.613395 0.336072,0.33737 0.991072,0.615986 1.455561,0.619145 0.464492,0.003 0.844526,0.340089 0.844526,0.748726 0,0.766076 -1.9521,0.784908 -2.960464,0.02858 -1.351724,-1.013897 -2.138443,-0.878423 -3.189953,0.549311 l -1.096328,1.488599 1.15632,1.249859 c 0.635976,0.687424 1.600388,1.449094 2.143139,1.692599 1.58337,0.710388 8.566055,0.160136 9.572655,-0.754351 z m -4.386997,-4.001055 c -0.494822,-0.598525 -0.45356,-0.797142 0.219455,-1.056401 0.972149,-0.374488 2.008697,0.476223 1.529208,1.255043 -0.455313,0.739562 -1.026678,0.674656 -1.748663,-0.198642 z m 2.522396,-0.428374 c -0.59977,-0.72547 -0.259332,-1.311092 0.762169,-1.311092 0.735033,0 0.90066,1.276856 0.220377,1.69892 -0.240628,0.149293 -0.682772,-0.02521 -0.982546,-0.387828 z m 2.4612,-0.502399 c -0.42588,-0.515134 -0.381284,-0.82608 0.186292,-1.298943 0.63373,-0.527977 0.746199,-0.425903 0.746199,0.677261 0,1.478643 -0.144411,1.574923 -0.932491,0.621682 z m 2.234841,-0.657053 c -0.589707,-0.591982 -0.318601,-1.63759 0.424588,-1.63759 0.407067,0 0.740119,0.321183 0.740119,0.713741 0,0.827501 -0.704238,1.386098 -1.164707,0.923849 z m 1.745292,-2.463347 c 0.24007,-1.242635 1.393059,-1.413262 1.393059,-0.206151 0,0.608413 -0.318591,1.031908 -0.776294,1.031908 -0.459484,0 -0.711194,-0.336998 -0.616765,-0.825757 z m 2.133173,-1.155509 c -0.531332,-0.863034 0.256226,-1.599318 1.025318,-0.958562 0.379917,0.316518 0.569083,0.77313 0.420364,1.014687 -0.359936,0.584631 -1.068121,0.557137 -1.445682,-0.05612 z m 2.060431,-1.189864 c -0.146023,-0.382003 -0.134699,-0.825856 0.02516,-0.986338 0.422711,-0.424338 1.653806,0.721799 1.333731,1.241693 -0.402911,0.654442 -1.058185,0.531307 -1.358894,-0.255355 z m 2.111701,-0.570189 c -0.445585,-0.538973 -0.474212,-0.911981 -0.0989,-1.288744 0.632375,-0.634817 1.600995,-0.138787 1.600995,0.819873 0,1.058497 -0.806507,1.310241 -1.502096,0.468871 z m 4.743818,0.330228 c -0.148718,-0.241556 0.07714,-0.728734 0.5019,-1.082613 0.636224,-0.530058 0.846857,-0.522296 1.195534,0.04409 0.232788,0.378109 0.31378,0.865283 0.179983,1.082608 -0.32694,0.531049 -1.540889,0.502558 -1.877417,-0.04404 z m 2.844911,-0.337078 c -0.476555,-1.246691 0.635864,-1.982682 1.251462,-0.827981 0.514748,0.965526 0.304499,1.604251 -0.528063,1.604251 -0.234666,0 -0.560193,-0.349322 -0.723399,-0.77627 z m 2.94634,0.222249 c -0.36767,-0.448237 -0.424032,-0.9847 -0.150181,-1.429513 0.58525,-0.950611 1.105122,-0.355717 0.90194,1.032106 -0.137636,0.940145 -0.255466,1.002436 -0.751759,0.397407 z m -7.799447,-0.436611 c -0.402379,-0.653581 0.1876,-1.581085 0.774213,-1.217137 0.599301,0.371819 0.595408,1.712453 -0.005,1.712453 -0.25536,0 -0.601516,-0.222893 -0.769237,-0.495316 z m 9.950456,0.165103 c -0.60094,-0.603261 -0.339998,-1.651053 0.411175,-1.651053 0.411173,0 0.740116,0.440281 0.740116,0.990632 0,0.98679 -0.525748,1.288378 -1.151291,0.660421 z m 2.335477,-0.858547 c -0.180617,-0.472502 -0.08417,-1.104273 0.214352,-1.40394 0.394729,-0.396253 0.632316,-0.310553 0.871151,0.314244 0.180621,0.472502 0.08416,1.104274 -0.214352,1.40394 -0.394729,0.396253 -0.632315,0.310553 -0.871151,-0.314244 z m 2.598633,-0.627403 c -0.180919,-0.181612 -0.328942,-0.627397 -0.328942,-0.990632 0,-0.87678 1.30231,-0.849681 1.640153,0.03413 0.39866,1.042913 -0.541756,1.728931 -1.311211,0.956505 z m 1.644701,-1.898711 c 0,-0.408636 0.333053,-0.742974 0.740118,-0.742974 0.407064,0 0.740113,0.334338 0.740113,0.742974 0,0.408636 -0.333049,0.742975 -0.740113,0.742975 -0.407065,0 -0.740118,-0.334339 -0.740118,-0.742975 z m 2.556092,-1.36212 c 0.08671,-0.612955 0.379704,-1.114462 0.65108,-1.114462 0.271377,0 0.564362,0.501507 0.651081,1.114462 0.10849,0.766834 -0.09461,1.114462 -0.651081,1.114462 -0.556478,0 -0.759571,-0.347628 -0.65108,-1.114462 z m 1.560529,-1.633574 c -0.169852,-0.444338 0.09601,-1.054469 0.632247,-1.450935 1.005771,-0.743613 0.99593,-0.778365 -1.686005,-5.955017 -2.842979,-5.487501 -4.144588,-8.608486 -3.814071,-9.14534 0.507048,-0.823586 1.359471,-0.01708 1.087092,1.02852 -0.133926,0.514103 -0.08497,0.934732 0.108763,0.934732 0.193745,0 0.734887,0.870586 1.202538,1.934636 0.467654,1.064049 1.398524,2.745639 2.068599,3.736871 0.670082,0.991227 1.218327,2.079546 1.218327,2.418481 0,0.338936 0.444069,1.490625 0.98682,2.559315 1.177659,2.318834 1.246683,3.219558 0.246705,3.219558 -0.407062,0 -0.740115,0.334338 -0.740115,0.742974 0,0.9746 -0.935745,0.95761 -1.3109,-0.02378 z M 73.986204,47.231192 c 0,-0.863231 0.80903,-1.436293 1.458687,-1.033235 0.656698,0.407432 0.06524,1.746977 -0.771361,1.746977 -0.378025,0 -0.687326,-0.321184 -0.687326,-0.713742 z m -2.390823,-2.474933 c 0.09376,-0.454401 0.392509,-0.814409 0.663885,-0.80002 0.732363,0.03883 0.597816,1.146965 -0.170473,1.404052 -0.415018,0.138874 -0.599982,-0.08756 -0.493412,-0.604032 z m -1.713523,-0.601307 c -0.607157,-0.609502 -0.351777,-1.658499 0.403763,-1.658499 0.82215,0 0.924701,0.42716 0.328801,1.369564 -0.217911,0.344625 -0.547565,0.474645 -0.732564,0.288935 z m -3.786524,-2.226299 c -0.873075,-0.876447 -1.467092,-1.919958 -1.349623,-2.370893 0.1154,-0.442988 -0.09453,-1.090827 -0.466498,-1.439645 -0.371975,-0.348816 -0.541307,-0.853505 -0.376296,-1.121534 0.165011,-0.268027 0.05108,-0.788434 -0.25318,-1.15646 -0.304256,-0.368028 -0.504162,-0.859772 -0.444222,-1.092765 0.05993,-0.232994 -0.265326,-1.28669 -0.722807,-2.341551 -1.014932,-2.340241 -1.014118,-2.292263 -0.03888,-2.292263 0.484032,0 0.687661,0.275315 0.522739,0.706761 -0.14859,0.388718 0.03489,0.960906 0.407726,1.271533 0.598176,0.498357 1.0382,1.901075 2.019476,6.437728 0.319246,1.475938 1.580125,2.976257 2.501262,2.976257 0.365001,0 0.663643,0.321184 0.663643,0.713742 0,1.370813 -0.915749,1.262667 -2.463349,-0.29091 z m -5.595695,-12.64064 c -0.63389,-0.636334 -0.330694,-1.620637 0.411176,-1.334856 0.407062,0.156808 0.740114,0.595596 0.740114,0.975086 0,0.728236 -0.598072,0.915126 -1.15129,0.35977 z m -1.98706,-1.004098 c -0.55567,-0.557818 -0.338425,-1.142272 0.424589,-1.142272 0.407065,0 0.740118,0.209738 0.740118,0.466084 0,0.624583 -0.770507,1.071911 -1.164707,0.676188 z m -2.467052,-0.990632 c -0.589707,-0.591981 -0.318602,-1.637589 0.424587,-1.637589 0.407065,0 0.740118,0.321183 0.740118,0.713743 0,0.827496 -0.704237,1.386096 -1.164705,0.923846 z m -2.782582,-1.678867 c 0,-1.207107 1.152985,-1.036483 1.393056,0.206152 0.09442,0.488759 -0.157281,0.825758 -0.616763,0.825758 -0.457703,0 -0.776293,-0.423494 -0.776293,-1.03191 z m 34.012163,41.826943 c 0.691146,-0.643343 1.509255,-1.169715 1.81802,-1.169715 0.308763,0 0.841258,-0.338519 1.183313,-0.752267 0.504264,-0.609943 0.485019,-0.914498 -0.101711,-1.609779 -0.884176,-1.047763 -3.359846,-6.186855 -3.359846,-6.974507 0,-0.313376 -0.216479,-0.569776 -0.481072,-0.569776 -0.582175,0 -0.191382,2.220567 1.046017,5.943797 l 0.9054,2.72424 -1.351937,1.238292 c -0.74356,0.681059 -1.796001,1.772232 -2.338752,2.424826 l -0.986821,1.186536 1.205381,-0.635967 c 0.662958,-0.349782 1.770865,-1.162339 2.462008,-1.80568 z M 62.849905,58.898021 c 0.379259,-0.616025 -1.04025,-1.699014 -1.69473,-1.29296 -0.385077,0.238906 -0.373995,0.533962 0.03879,1.033276 0.661555,0.800203 1.264904,0.894818 1.655927,0.259684 z m -1.692386,-2.285048 c 0,-0.412763 -0.438587,-0.742975 -0.986821,-0.742975 -0.982993,0 -1.283421,0.527779 -0.657882,1.155736 0.600941,0.603261 1.644703,0.341313 1.644703,-0.412761 z M 37.56425,55.762678 c -0.354053,-0.35542 -0.583867,-0.384663 -0.583867,-0.07429 0,0.661138 0.583513,1.246905 0.912808,0.916335 0.140214,-0.140749 -0.0078,-0.519665 -0.328941,-0.842037 z m 4.007702,-0.903685 c -0.715447,-0.806068 -1.64072,-1.465578 -2.056164,-1.465578 -0.504856,0 -0.206448,0.568505 0.899864,1.714335 1.988351,2.059383 3.00989,1.839616 1.1563,-0.248757 z m -6.071804,-1.465578 c 0,-0.272424 -0.222034,-0.495316 -0.493411,-0.495316 -0.271374,0 -0.493409,0.222892 -0.493409,0.495316 0,0.272424 0.222035,0.495317 0.493409,0.495317 0.271377,0 0.493411,-0.222893 0.493411,-0.495317 z m 11.080674,-0.46109 c 0.364903,-0.592695 -0.563288,-1.179957 -1.220501,-0.772208 -0.551811,0.342353 -0.189556,1.233298 0.501459,1.233298 0.239343,0 0.562913,-0.207492 0.719042,-0.46109 z m -7.626796,-1.386576 c 0,-0.439214 -0.367465,-1.206183 -0.816592,-1.704376 -0.761223,-0.844395 -0.755855,-0.973173 0.07922,-1.899476 0.492691,-0.546518 0.754501,-1.135511 0.581807,-1.308874 -0.488487,-0.490372 -1.821747,0.837728 -2.526078,2.516294 -0.592782,1.412736 -0.546851,1.595083 0.65166,2.587173 1.384613,1.14614 2.02999,1.085499 2.02999,-0.190741 z m 11.718741,-0.0098 c 0.128935,-0.388737 -0.268987,-0.619145 -1.06929,-0.619145 -1.245295,0 -1.622463,0.476361 -0.928645,1.17286 0.507607,0.509572 1.760427,0.16236 1.997935,-0.553715 z M 40.92767,51.41212 c 0,-0.272424 -0.222035,-0.495316 -0.493412,-0.495316 -0.271376,0 -0.493411,0.222892 -0.493411,0.495316 0,0.272424 0.222035,0.495317 0.493411,0.495317 0.271377,0 0.493412,-0.222893 0.493412,-0.495317 z m 4.220561,-0.538474 c 0.50847,-0.8259 -0.635122,-1.77299 -1.315787,-1.089696 -0.569357,0.571557 -0.213015,1.62817 0.549101,1.62817 0.239343,0 0.584352,-0.242314 0.766686,-0.538474 z m -3.840225,-1.535668 c -0.304964,-0.918427 -1.367159,-1.070755 -1.367159,-0.196062 0,0.431339 0.351557,0.784251 0.781234,0.784251 0.429681,0 0.693344,-0.264685 0.585925,-0.588189 z m 2.361695,-3.086187 c 0.526353,-0.386362 0.809836,-0.850206 0.629974,-1.030764 -0.415842,-0.417449 -2.385185,0.619039 -2.385185,1.255352 0,0.67528 0.641046,0.593255 1.755211,-0.224588 z M 40.92767,45.234627 c 0.678441,-0.392922 1.697283,-0.927678 2.2641,-1.188348 2.436087,-1.120319 5.630474,-7.026436 5.630474,-10.410223 0,-1.719653 -0.900272,-4.496829 -1.796803,-5.542815 -1.008311,-1.17639 -0.82802,-1.851073 0.933335,-3.492611 3.976364,-3.705884 8.624211,-4.524311 12.952039,-2.280692 4.263261,2.210148 6.509664,6.883132 6.644902,13.822786 0.01011,0.518014 0.709402,1.044585 1.866436,1.405408 1.017661,0.31736 2.842441,1.027351 4.055069,1.577758 1.212625,0.550407 2.726532,1.199877 3.364239,1.443269 0.637709,0.243392 1.921415,1.025942 2.852685,1.739001 1.12061,0.858028 1.68806,1.067205 1.677965,0.618536 -0.03459,-1.538076 -6.858511,-5.457699 -10.366666,-5.954577 -1.091901,-0.154652 -1.244803,-0.469049 -1.528879,-3.143736 -0.367,-3.455434 -0.460781,-3.873906 -1.387552,-6.191455 -1.96065,-4.902958 -7.365944,-8.54619 -12.177262,-8.20762 -8.169871,0.574911 -12.54825,4.484363 -10.132575,9.04736 1.782175,3.366366 1.71341,5.693602 -0.289863,9.809563 -1.897619,3.898879 -9.485161,6.566793 -13.120847,4.613519 -2.086188,-1.120808 -5.840649,-5.132373 -6.917563,-7.391278 -0.938192,-1.967929 -1.103696,-3.060276 -1.01823,-6.72049 0.11733,-5.024906 1.213242,-8.355987 4.005244,-12.174144 2.313155,-3.163315 1.804698,-3.533953 -0.703554,-0.512849 -2.837296,3.417429 -4.131508,6.287739 -4.629903,10.268224 -0.363379,2.902158 -0.276675,4.044009 0.509974,6.716192 0.521284,1.770759 1.075689,3.808525 1.232009,4.528375 0.312093,1.43716 5.153296,6.154391 7.167442,6.983902 3.175271,1.307711 7.252547,1.599057 8.913784,0.636943 z M 55.018929,44.24578 c 0.826202,-0.627321 0.844701,-0.729385 0.134661,-0.742974 -1.16094,-0.02222 -2.384057,0.505123 -2.384057,1.027873 0,0.676438 1.180145,0.526967 2.249396,-0.284899 z m -4.22304,-10.665021 c 0,-0.272425 -0.09791,-0.495317 -0.217585,-0.495317 -0.119671,0 -0.354811,0.222892 -0.522531,0.495317 -0.167722,0.272424 -0.0698,0.495317 0.217582,0.495317 0.287394,0 0.522534,-0.222893 0.522534,-0.495317 z M 33.324551,11.418993 c -0.342179,-0.343501 -1.278278,0.354419 -1.278278,0.953039 0,0.328441 0.28311,0.290862 0.752041,-0.09982 0.413619,-0.344601 0.650428,-0.72855 0.526237,-0.853222 z"
     style="fill:#000000;stroke-width:0.4943628" />
</svg>
