<?xml version="1.0" encoding="UTF-8" standalone="no"?>
<svg
   xmlns:dc="http://purl.org/dc/elements/1.1/"
   xmlns:cc="http://creativecommons.org/ns#"
   xmlns:rdf="http://www.w3.org/1999/02/22-rdf-syntax-ns#"
   xmlns:svg="http://www.w3.org/2000/svg"
   xmlns="http://www.w3.org/2000/svg"
   id="svgC2"
   version="1.1"
   viewBox="0 0 100 100"
   height="100"
   width="100">
  <defs
     id="defs822" />
  <metadata
     id="metadata825">
    <rdf:RDF>
      <cc:Work
         rdf:about="">
        <dc:format>image/svg+xml</dc:format>
        <dc:type
           rdf:resource="http://purl.org/dc/dcmitype/StillImage" />
        <dc:title></dc:title>
      </cc:Work>
    </rdf:RDF>
  </metadata>
  <path
     id="pathC2"
     d="m 47.838478,94.581993 c -0.96796,-0.78579 -1.02024,-2.03719 -0.12321,-2.9481 0.72004,-0.73111 0.83116,-1.23065 0.93846,-4.21966 0.0669,-1.86466 0.0227,-3.39023 -0.0979,-3.39009 -0.12094,2e-4 -0.40535,0.45541 -0.63223,1.0116 -0.53292,1.3064 -2.96028,3.68436 -4.72075,4.62471 -1.28224,0.68492 -1.42315,0.69573 -2.01245,0.1542 -0.59452,-0.54629 -0.59735,-0.62298 -0.0461,-1.24142 0.38245,-0.42909 0.98552,-0.6319 1.72804,-0.58115 1.28855,0.0881 1.94869,-0.46643 4.45229,-3.74018 0.85727,-1.12096 1.50716,-2.30943 1.44423,-2.64102 -0.0632,-0.33146 -0.12661,-1.78941 -0.14136,-3.23962 l -0.0265,-2.63671 -1.29252,1.57209 c -2.85102,3.46779 -6.7959,7.12479 -8.65849,8.02667 -0.98506,0.47697 -1.29596,0.49927 -1.74036,0.12471 -0.77344,-0.65178 -0.64679,-1.14024 0.54346,-2.09563 0.73821,-0.59259 1.32355,-0.78357 1.99026,-0.64936 0.76834,0.15458 1.28065,-0.11906 2.74712,-1.46725 0.99148,-0.91155 2.56422,-2.54767 3.49496,-3.6358 3.32626,-3.88871 3.08681,-3.31434 3.12454,-7.49536 l 0.034,-3.79586 -1.03358,1.31169 c -0.56848,0.72147 -1.71833,2.26987 -2.55519,3.44095 -1.62494,2.27381 -5.55754,6.2518 -8.32332,8.41936 -2.87213,2.25093 -5.76677,2.21915 -4.0173,-0.0442 0.91714,-1.18651 2.61128,-1.86946 3.50219,-1.41184 0.43227,0.22223 1.25537,-0.33449 3.35773,-2.26998 1.53181,-1.41029 3.06947,-3.04324 3.41696,-3.6288 0.7428,-1.25148 2.96591,-4.09671 4.57524,-5.85544 1.07713,-1.17713 1.14235,-1.40451 1.24743,-4.34808 0.0608,-1.70827 -0.008,-3.1056 -0.15118,-3.10514 -0.14438,2.6e-4 -0.2623,0.1523 -0.2623,0.33712 0,0.1852 -0.74911,1.26301 -1.66466,2.39544 -0.91555,1.13241 -2.28779,2.90146 -3.04939,3.93124 -1.24816,1.68747 -7.9744,7.97698 -9.95256,9.30629 -0.43567,0.29292 -1.12782,0.78459 -1.53804,1.09296 -1.15643,0.86914 -1.95871,1.06697 -2.69795,0.66527 -0.53124,-0.28875 -0.60238,-0.51212 -0.32843,-1.03166 0.56983,-1.08113 2.64022,-2.20153 3.61107,-1.95412 0.71251,0.18141 1.37749,-0.2487 3.95581,-2.55969 3.75488,-3.36556 4.85464,-4.52796 7.32888,-7.74623 1.0504,-1.36625 2.53693,-3.28258 3.30338,-4.2585 1.34294,-1.70989 1.72078,-3.3083 0.73164,-3.09502 -0.2521,0.0545 -0.96511,-0.21883 -1.58426,-0.6076 l -1.12574,-0.70647 -0.63718,1.13992 c -1.28947,2.30675 -3.78449,5.93076 -4.08319,5.93076 -0.16931,0 -0.30765,0.15609 -0.30765,0.34695 0,0.31447 -1.89913,2.23582 -6.81517,6.89511 -1.70456,1.61556 -9.26014,6.95293 -9.84279,6.95309 -0.16101,7e-5 -0.30765,0.7124 -0.3258,1.58302 0.33487,0.45233 -0.84714,2.70278 -0.70734,2.96205 0.24189,0.39764 -2.05092,1.0625 -3.45302,1.00123 -0.66893,-0.0302 -1.05497,-0.23848 -1.06714,-0.57811 -0.0113,-0.29291 -0.14211,-0.9566 -0.29216,-1.47519 -0.15761,-0.54349 -0.11944,-1.23443 0.0896,-1.63128 0.46424,-1.30605 0.2468,-1.07547 1.07172,-1.49446 0.37192,-0.20221 1.21754,-0.36738 1.87945,-0.36738 1.35148,0 1.72026,-0.34166 2.29902,-2.12927 0.35225,-1.0879 4.17993,-6.80504 6.15465,-9.19268 0.38446,-0.46481 1.1599,-1.39529 1.7232,-2.06767 2.55288,-3.04713 11.56018,-9.50347 12.66033,-9.07479 0.70658,0.27514 0.25247,0.73719 -1.72611,1.7552 -2.2026,1.13334 -8.01098,5.58841 -9.71562,7.45198 -3.95063,4.31899 -8.87668,11.4682 -8.28469,12.02375 0.0551,0.0518 0.64645,-0.28838 1.3138,-0.75565 0.80474,-0.56363 1.01072,-0.84989 0.61164,-0.84989 -0.33109,0 -0.60177,-0.16631 -0.60177,-0.36965 0,-0.44054 1.49514,-2.59007 4.38996,-6.31143 3.30962,-4.25454 12.38725,-11.68547 13.81263,-11.30699 0.91305,0.24227 1.40205,-0.92342 0.9253,-2.20592 -0.22451,-0.60412 -0.5704,-1.11877 -0.76857,-1.14368 -1.87706,-0.23585 -2.34648,-0.0662 -5.60156,2.02741 -5.82251,3.74471 -8.09984,5.53599 -12.97532,10.20598 -2.26412,2.16872 -2.50185,2.52003 -2.21805,3.27802 0.26192,0.69913 0.1508,1.00634 -0.62925,1.74077 -1.13688,1.07036 -1.68211,1.12203 -2.16533,0.20523 -0.60083,-1.14002 0.0721,-2.15161 3.70715,-5.57114 5.66158,-5.32622 8.84433,-7.80397 13.67619,-10.64682 l 2.70047,-1.58883 -7.33943,0.25323 c -4.03668,0.13908 -7.69871,0.22941 -8.13789,0.20031 -0.43914,-0.0302 -0.89136,0.19314 -1.0049,0.49349 -0.11338,0.30047 -1.16973,1.20344 -2.34701,2.00655 -3.39531,2.31614 -6.64718,5.02432 -6.21053,5.17213 1.2858,0.43518 -0.43191,3.27021 -1.98137,3.27021 -0.63844,0 -0.76385,-0.20183 -0.76385,-1.22907 0,-1.10052 0.31975,-1.51472 3.0581,-3.95962 1.68196,-1.5018 4.04106,-3.36197 5.24247,-4.13371 1.20136,-0.77174 2.18434,-1.44495 2.18434,-1.49605 0,-0.21997 -7.18148,0.27401 -7.33943,0.50479 -0.096,0.1406 -0.9611,0.68826 -1.92223,1.21713 -2.99331,1.64715 -3.46821,2.12285 -2.95404,2.95891 0.83894,1.364 -0.23698,2.52205 -1.9396904,2.08804 -0.63312,-0.16138 -0.87296,-0.4608 -0.87296,-1.08994 0,-0.97886 3.5032004,-4.1853 5.4966804,-5.03104 0.62907,-0.26684 1.14376,-0.52551 1.14376,-0.57475 0,-0.14778 -5.3450804,0.39695 -6.3441304,0.64659 -0.68368,0.17084 -1.11926,0.0378 -1.66008,-0.51283 -0.87749,-0.89099 -0.90886,-1.22518 -0.18406,-1.96121 0.72563,-0.73681 1.83276,-0.70315 3.12166,0.0948 0.8595404,0.53227 1.8354504,0.65575 5.3881004,0.68172 l 4.33844,0.0302 -1.45432,-0.83875 c -1.8652,-1.07581 -4.01613,-2.81133 -5.71125,-4.60827 -1.33712,-1.41743 -1.67225,-2.41061 -0.96356,-2.85539 0.55821,-0.35036 2.13972,1.30858 1.94998,2.04532 -0.11679,0.45321 0.52676,1.13878 2.339,2.49197 3.72454,2.78101 5.42631,3.64882 7.0438,3.59187 0.7689,-0.0265 2.17648,-0.0669 3.12801,-0.0889 1.94068,-0.0442 1.86651,-0.2211 -0.68153,-1.62338 -0.96113,-0.52895 -2.37656,-1.56189 -3.14547,-2.29538 -0.76887,-0.7335 -1.94842,-1.70042 -2.62122,-2.14871 -1.82332,-1.21501 -4.89294,-4.55471 -4.89294,-5.3235 0,-0.85259 0.51125,-1.17751 1.40149,-0.89061 0.76085,0.24529 1.40338,1.25548 1.71727,2.70036 0.2313,1.06386 4.85098,5.04616 8.35419,7.20136 1.21625,0.7482 2.29667,1.5862 2.40094,1.86214 0.20297,0.53707 3.58674,0.61406 6.26638,0.14248 1.26475,-0.2226 1.29631,-0.25662 0.48001,-0.51809 -1.3361,-0.42799 -8.77228,-5.75649 -12.40713,-8.89044 -1.47694,-1.2734 -4.7178,-4.58879 -4.71803,-4.82652 -7e-5,-0.10924 0.20825,-0.48798 0.46334,-0.84197 0.32995,-0.45827 0.68923,-0.57086 1.24735,-0.39099 0.90724,0.29253 2.13041,2.15304 2.13229,3.2437 5.3e-4,0.49765 0.84892,1.4507 2.53516,2.849 3.24881,2.69413 7.94155,6.11558 10.39753,7.58084 1.0572,0.63073 2.00084,1.27238 2.09699,1.4259 0.096,0.15345 1.87245,0.35678 3.94741,0.45146 l 3.77273,0.17235 -1.50096,-0.78826 c -2.70226,-1.4191 -6.68452,-3.96823 -8.8862,-5.68819 -3.73528,-2.91799 -5.04454,-4.09633 -11.19807,-10.07811 -0.66191,-0.64346 -0.45785,-2.31236 0.30048,-2.45832 0.97726,-0.18822 2.13444,1.26845 1.91062,2.40484 -0.17046,0.86517 0.10054,1.24944 2.2873,3.24566 1.3643,1.24536 3.51877,3.10739 4.78767,4.13788 2.30809,1.87434 3.07896,2.42347 6.67587,4.75555 5.627,3.6483 5.54509,3.61954 6.42603,2.25438 0.5388,-0.83498 0.52693,-0.89666 -0.25663,-1.33078 -3.1753,-1.75941 -10.79135,-7.77362 -14.24913,-11.25219 -2.69393,-2.71011 -6.66573,-8.51762 -7.14138,-10.44203 -0.19692,-0.79616 -0.32353,-0.85891 -1.11583,-0.55296 -0.73024,0.28196 -1.04417,0.20184 -1.71489,-0.43807 -1.5476,-1.47629 -0.69494,-3.14363 1.60763,-3.14363 1.44075,0 2.25089,0.64645 1.91709,1.52976 -0.1493,0.39519 0.20674,0.77076 1.23616,1.30405 0.79526,0.41197 2.18442,1.29925 3.08709,1.97175 0.90262,0.67252 2.3489,1.74066 3.21388,2.37366 3.61648,2.64642 8.71892,8.27901 11.17765,12.33898 0.65012,1.0735 1.71353,2.6295 2.36315,3.45774 0.64963,0.82829 1.20397,1.81338 1.23182,2.18918 0.0468,0.63038 0.12549,0.64399 1.0164,0.17612 0.53113,-0.27892 1.16704,-0.46556 1.41313,-0.41476 0.53964,0.11149 0.84189,-2.21208 0.32958,-2.53357 -0.18936,-0.11906 -0.97917,-1.50777 -1.755,-3.0864 -1.95019,-3.96842 -5.09336,-8.14881 -9.05419,-12.04203 -3.09929,-3.04633 -3.43866,-3.28143 -4.48774,-3.10855 -0.90043,0.14854 -1.32084,-9.8e-4 -2.03437,-0.72628 -1.02954,-1.04537 -1.07577,-1.27476 -0.43581,-2.16336 0.42681,-0.5927 0.54455,-0.60076 1.48535,-0.10166 1.34974,0.71614 6.81097,5.86744 9.30803,8.7798 2.92384,3.41008 4.12491,5.16934 5.68815,8.33163 l 1.40342,2.83899 -0.11642,-4.36894 -0.1164,-4.36895 -2.62183,-3.97062 c -1.442,-2.18385 -3.55525,-4.9363 -4.69617,-6.11653 -1.82611,-1.88911 -2.20989,-2.12983 -3.20731,-2.01161 -2.08819,0.24756 -4.0179,-2.17569 -2.44456,-3.06974 0.7911,-0.44953 1.48282,-0.059 4.25465,2.40257 2.72871,2.42318 5.33825,5.57228 7.20038,8.68922 0.76891,1.28701 1.49103,2.3413 1.60468,2.34289 0.11376,9.8e-4 0.2347,-0.80508 0.26948,-1.79259 0.0745,-2.14016 -0.47218,-3.49928 -3.50903,-8.72225 -2.93805,-5.05312 -5.87909,-8.22417 -5.87909,-6.33887 0,0.33108 0.32995,0.53231 0.87375,0.53231 1.02943,0 1.14485,0.53745 0.22299,1.03843 -1.12679,0.61232 -2.89213,-1.9473 -1.81096,-2.6258 0.18368,-0.11527 0.24567,-0.44417 0.1372,-0.73069 -0.1081,-0.28649 -0.0227,-0.52093 0.19011,-0.52093 0.21278,0 0.38691,0.1595 0.38691,0.3549 0,0.19502 0.21089,0.35489 0.46884,0.35489 0.68346,0 4.55702,4.21206 5.39143,5.86262 0.3927,0.7768 1.35798,2.52767 2.14507,3.89087 l 1.43104,2.47846 v -3.63182 c 0,-2.59287 -0.11717,-3.60647 -0.41008,-3.54312 -0.22564,0.0488 -0.65816,-0.55007 -0.96132,-1.33081 -0.30312,-0.7807 -0.99511,-2.17209 -1.5377,-3.09192 -0.86816,-1.47178 -1.06496,-1.6227 -1.64039,-1.25783 -0.52888,0.33525 -0.78943,0.28989 -1.36346,-0.23735 -1.3301,-1.22226 -1.20636,-3.0426002 0.20674,-3.0426002 0.85915,0 2.84658,2.5415802 4.37061,5.5892802 0.80522,1.61027 1.49276,2.92774 1.52782,2.92774 0.35491,0 -0.15004,-7.49507 -0.66061,-8.6030802 -0.86045,-1.86788 -0.83974,-2.15055 0.20901,-2.84833 0.48056,-0.31974 0.87375,-0.80246 0.87375,-1.07278 0,-0.27024 0.15722,-0.49152 0.3496,-0.49152 0.19238,0 0.3496,0.21996 0.3496,0.48888 0,0.26873 0.23585,0.68764 0.52427,0.93063 0.66647,0.56167 0.66647,1.6969 0,3.31657 -0.28838,0.7007302 -0.78108,4.2119502 -0.77099,5.3405102 0.0189,2.02323 0.0265,2.03952 0.58556,1.16475 1.03419,-1.61742 5.35136,-5.67803 6.03681,-5.67803 0.37078,0 0.85785,0.34848 1.08242,0.77469 0.3481,0.66047 0.29141,0.87092 -0.38543,1.42734 -0.48072,0.39523 -1.24997,0.62143 -1.95058,0.57351 -0.88119,-0.0601 -1.32514,0.13795 -1.863,0.8324 -0.38839,0.50136 -1.26259,1.58785 -1.94272,2.41444 -0.68012,0.82658 -1.30681,1.84581 -1.3926,2.26492 -0.16706,0.81653 -0.45823,7.36422 -0.32126,7.2251 0.045,-0.0457 0.85947,-1.27915 1.80971,-2.74084 2.16216,-3.32584 6.49432,-8.08952 7.61684,-8.37559 0.52189,-0.13304 1.19162,0.0152 1.74694,0.38351 0.8623,0.57365 0.87477,0.62819 0.29291,1.28119 -0.41484,0.46544 -1.07149,0.68198 -2.06812,0.68198 -1.13828,0 -1.66212,0.21543 -2.37539,0.9759 -1.11225,1.18621 -3.19949,3.80074 -4.61862,5.78537 -0.57668,0.80644 -1.36982,1.82502 -1.76258,2.26348 -0.47755,0.53314 -0.70572,1.25703 -0.68883,2.18529 0.0152,0.76342 -0.0733,2.07243 -0.19351,2.90891 -0.22412,1.55671 0.192,2.40892 0.61123,1.25193 0.62846,-1.73499 9.43298,-11.82214 10.3189,-11.82214 0.1682,0 0.74979,-0.33335 1.29249,-0.74075 1.23787,-0.92931 2.61384,-0.79249 2.76344,0.27477 0.15383,1.09678 -1.29086,1.99235 -2.81666,1.74611 -1.09568,-0.17688 -1.35976,-0.008 -3.65801,2.36984 -2.90283,3.00045 -4.23311,4.54923 -6.64675,7.7384 -1.8677,2.46776 -2.02583,3.13398 -1.88271,7.93156 l 0.0416,1.39862 1.17763,-1.98577 c 1.7192,-2.89913 7.00301,-9.9109 8.52533,-11.31345 2.54842,-2.34796 4.60909,-3.89741 6.06146,-4.55766 1.58816,-0.722 2.22947,-0.65537 2.57839,0.26797 0.34734,0.9188 -1.05253,1.83878 -2.79769,1.83878 -1.75003,0 -3.65831,1.35352 -6.73923,4.78005 -1.94718,2.16555 -6.55703,8.57839 -6.94859,9.66622 -0.12585,0.34998 -0.59531,1.08736 -1.04315,1.6391 -0.58257,0.71769 -0.81426,1.45229 -0.81426,2.58164 0,1.37931 0.11641,1.62342 0.9222,1.93452 0.98684,0.38097 1.18051,0.31748 1.30931,-0.42981 0.045,-0.26192 0.54232,-1.3544 1.10486,-2.42793 0.56256,-1.07346 1.13776,-2.23098 1.2782,-2.5722 0.50208,-1.21965 3.0423,-4.38428 5.22396,-6.508 2.00927,-1.95595 5.53666,-4.75994 5.9879,-4.75994 0.099,0 1.17895,-0.6305 2.39967,-1.40111 1.22067,-0.77061 3.16308,-1.9081 4.31641,-2.52775 2.83922,-1.52546 2.90581,-1.59632 2.86522,-3.05041 -0.0442,-1.59025 1.05014,-2.6024 2.81427,-2.6024 1.50992,0 2.15793,0.76482 2.17308,2.56467 0.008,0.99912 -0.18709,1.45448 -0.79926,1.86176 -0.8796,0.58522 -2.20191,0.76725 -3.03409,0.41767 -0.37153,-0.15609 -0.92496,0.42426 -1.90008,1.99253 -3.44138,5.53482 -9.01958,11.77993 -13.03022,14.58808 -7.46556,5.22716 -8.28345,5.71336 -8.93311,5.31001 -0.23471,-0.14552 -0.0152,0.23584 0.49111,0.84756 1.18364,1.43475 1.62259,4.06492 0.87243,5.22746 -0.52282,0.81018 -0.48492,0.85134 2.33416,2.53516 2.77131,1.65528 8.6301,6.0627 8.63448,6.4955 0.002,0.20674 1.08435,1.4304 5.41505,6.12314 1.15332,1.24974 2.61543,3.31312 3.24915,4.58528 1.60402,3.22012 2.88978,4.68049 3.99178,4.53389 1.21595,-0.16177 2.02073,0.63636 2.02073,2.00417 0,1.38681 -0.45566,1.79006 -2.15891,1.9107 -1.01665,0.0721 -1.37046,-0.0707 -1.69338,-0.68346 -0.2245,-0.42595 -0.33789,-1.1478 -0.25209,-1.60414 0.10204,-0.541 -0.0385,-0.9055 -0.40362,-1.04768 -2.48312,-0.96711 -9.2544,-5.77694 -12.20307,-8.66813 -1.69857,-1.66544 -8.71908,-11.18442 -9.58761,-12.99972 -0.65714,-1.3734 -0.81082,-1.49964 -1.2909,-1.06058 -0.29972,0.27402 -0.97749,0.60805 -1.5061,0.742 -0.76581,0.19389 -0.9611,0.4478 -0.9611,1.24876 0,0.55286 0.14778,1.09788 0.32807,1.21111 0.18027,0.11338 0.83746,1.12075 1.4601,2.23892 2.32823,4.18133 7.55569,10.40448 11.96565,14.24474 1.3271,1.1557 1.80011,1.38954 2.17376,1.07467 0.598,-0.50397 2.31235,0.18898 2.92271,1.18141 0.46253,0.75204 -0.0265,1.67905 -0.88725,1.67905 -2.57987,0 -14.93178,-12.96393 -17.221,-18.07428 l -0.56731,-1.26644 -0.1013,3.11653 c -0.079,2.43375 0.0152,3.23622 0.43688,3.66281 0.29594,0.30048 0.53802,0.68319 0.53802,0.85047 0,0.16743 0.19729,0.51523 0.43869,0.77314 0.24113,0.25776 1.3344,1.66666 2.42914,3.13051 1.09477,1.46385 3.47959,4.25851 5.29954,6.21033 3.12594,3.35237 3.33691,3.51111 3.81272,2.86802 0.49383,-0.66746 0.52856,-0.66515 1.77596,0.11754 0.98343,0.61712 1.27229,1.0288 1.27229,1.81316 0,0.55809 -0.16289,1.11708 -0.36244,1.24214 -0.41701,0.26154 -2.87234,-0.96314 -4.17979,-2.08502 -2.27792,-1.95457 -10.61552,-12.09675 -11.02727,-13.41396 -0.18444,-0.5898 -0.29971,-0.64508 -0.54028,-0.25927 -0.34923,0.55986 -0.43706,13.68401 -0.0892,13.33081 0.12511,-0.12699 0.67314,0.68969 1.21792,1.81489 0.54478,1.12517 1.74791,2.99905 2.6736,4.16413 1.37374,1.72899 1.84838,2.09844 2.58236,2.01011 1.09818,-0.13229 2.11159,0.81279 1.96732,1.8345 -0.18481,1.31022 -1.30454,1.10688 -2.9681,-0.53907 -1.8627,-1.84301 -3.57679,-4.15166 -4.702,-6.33289 l -0.82378,-1.59697 -0.0983,4.34381 c -0.0756,3.35713 0.0227,4.58237 0.43688,5.39422 0.6963,1.36724 0.67472,1.91191 -0.10432,2.62764 -0.76267,0.70084 -1.47693,0.74706 -2.22014,0.14363 z m 1.80545,-1.24206 c -0.002,-0.34167 -0.15458,-0.86056 -0.33675,-1.15336 -0.2933,-0.4707 -0.39512,-0.46772 -0.88121,0.0265 -0.31332,0.31824 -0.45304,0.81388 -0.32465,1.15336 0.30198,0.79936 1.54976,0.77858 1.54284,-0.0265 z m -10.60925,-9.56553 c -0.288,-0.29254 -1.26826,0.17613 -1.26826,0.60627 0,0.2623 0.22337,0.25701 0.72893,-0.0189 0.40093,-0.2177 0.64361,-0.48276 0.53933,-0.58865 z m 25.99246,-2.41153 c -0.47857,-0.58552 -1.39797,-0.72167 -1.39797,-0.20712 0,0.35414 0.59539,0.66701 1.35341,0.71131 0.38694,0.0227 0.39553,-0.0748 0.0446,-0.5043 z m -42.68856,-4.47655 c -0.26079,-0.16856 -0.68368,-0.22866 -0.93971,-0.13304 -0.25587,0.0956 -0.76157,0.17386 -1.12353,0.17386 -1.02147,0 -1.52784,1.26912 -1.01148,2.53497 0.34242,0.83924 0.61243,1.02947 1.33987,0.94375 1.04637,-0.1338 2.72867,-2.72853 1.73485,-3.51935 z m -2.09065,2.70217 c -0.0227,-0.0975 -0.0634,-0.3239 -0.0873,-0.50274 -0.0227,-0.17878 -0.16176,-0.44508 -0.30576,-0.59146 -0.50113,-0.50884 -0.25587,-0.73932 0.78637,-0.73932 0.73705,0 1.04848,0.17235 1.04848,0.57963 0,0.84582 -1.27015,1.95054 -1.44167,1.25389 z m 15.07201,-0.16819 0.87375,-0.68458 -0.80047,0.0593 c -0.90901,0.0673 -2.28847,1.33143 -1.43803,1.31778 0.26985,-0.004 0.88422,-0.31597 1.36475,-0.69249 z m 43.62399,-0.27552 c 0.0903,-0.64615 -0.0559,-0.7985 -0.76573,-0.7985 -0.99564,0 -1.42579,0.49054 -1.12596,1.28394 0.31597,0.8361 1.75861,0.46586 1.89169,-0.48544 z m -1.16016,-0.0889 c 0.11867,-0.19502 0.36397,-0.35489 0.54485,-0.35489 0.18104,0 0.32882,0.15949 0.32882,0.35489 0,0.19503 -0.24529,0.3549 -0.54486,0.3549 -0.29971,0 -0.44765,-0.1595 -0.32881,-0.3549 z m -9.64029,-1.54897 c -0.0802,-0.0711 -0.53878,-0.33675 -1.01934,-0.59039 -0.79926,-0.42172 -0.83286,-0.41069 -0.3941,0.12926 0.26382,0.32465 0.72254,0.5904 1.01938,0.5904 0.29669,0 0.47415,-0.0582 0.39406,-0.12927 z m 6.79128,-1.78699 c -0.68565,-0.95562 -1.52013,-1.21875 -1.51907,-0.47902 4.9e-4,0.41163 1.77128,1.69024 2.04333,1.47542 0.0669,-0.0529 -0.16895,-0.50125 -0.52426,-0.9964 z m -42.41077,-1.10921 c 0,-0.38272 -0.67354,-0.12246 -1.44665,0.55899 l -0.82507,0.72729 1.13586,-0.55895 c 0.62472,-0.30728 1.13586,-0.63474 1.13586,-0.72733 z m 40.19207,0.37643 c 0,-0.0907 -0.35376,-0.33902 -0.78637,-0.55188 -0.75515,-0.37153 -0.75941,-0.36511 -0.10771,0.16478 0.71308,0.58009 0.89431,0.65852 0.89431,0.38695 z m -2.54722,-1.71088 c -3.68507,-2.97116 -6.76436,-5.93053 -8.81971,-8.47624 -2.82206,-3.49538 -3.83891,-4.57927 -2.43991,-2.60088 3.13069,4.42738 5.30989,6.79964 8.68611,9.45563 1.70083,1.33799 3.19491,2.42695 3.3202,2.41996 0.12548,-0.008 -0.21089,-0.36624 -0.74669,-0.79847 z m 2.51094,0.19011 c -1.5097,-1.98901 -2.206,-2.74038 -2.46648,-2.66158 -0.16139,0.0488 -0.29329,-0.0805 -0.29329,-0.28724 0,-0.20674 -0.15724,-0.27704 -0.34961,-0.15647 -0.19238,0.12056 -0.34961,-0.0389 -0.34961,-0.3549 0,-0.35527 0.15949,-0.47415 0.41824,-0.31181 0.67832,0.42564 -1.00184,-1.81055 -2.6104,-3.47437 -2.13959,-2.21306 -6.52835,-5.98039 -7.47958,-6.42047 -0.44719,-0.20675 -0.81313,-0.49316 -0.81313,-0.63614 0,-0.14286 -0.23961,-0.35339 -0.53234,-0.46737 -0.44927,-0.175 -0.4678,-0.0839 -0.11867,0.58306 0.37228,0.71147 1.23159,1.79781 5.4921,6.94394 0.7013,0.847 3.00503,2.96013 5.11949,4.6958 3.70673,3.04275 4.97424,3.85338 3.9829,2.54733 z m -7.54409,-7.38898 c -1.7664,-1.84032 -3.07733,-3.34605 -2.91318,-3.34605 0.34544,0 6.64909,6.1781 6.64909,6.5167 0,0.57623 -0.75247,-0.0624 -3.73591,-3.17065 z m -4.25039,-4.27006 c -0.63695,-0.73146 -0.22677,-1.07857 0.45548,-0.38563 0.29745,0.30198 0.54088,0.64048 0.54088,0.75201 0,0.37266 -0.51903,0.1818 -0.99636,-0.36624 z m -29.17054,7.57202 c 0.34885,-0.40378 -0.58439,0.19048 -2.07413,1.32022 -1.4897,1.12985 -2.7086,2.125 -2.7086,2.21144 0,0.27591 4.12342,-2.7688 4.78273,-3.53166 z m 40.68318,1.92857 c -0.1886,-0.35754 -0.61728,-0.87662 -0.95282,-1.15336 -0.37757,-0.31143 -0.29329,-0.0634 0.22148,0.65023 0.91793,1.27321 1.2621,1.50993 0.73145,0.50313 z m -42.4771,-2.01135 c 1.01246,-0.87829 1.96293,-1.59693 2.11211,-1.59693 0.56973,0 1.82986,-1.51796 1.65162,-1.98957 -0.1028,-0.27213 -0.0265,-0.49456 0.17084,-0.49456 0.19691,0 0.41638,0.17877 0.48808,0.39693 0.0719,0.21845 0.85278,-0.38056 1.73579,-1.33081 1.81205,-1.94997 6.23056,-7.44658 6.23056,-7.75083 0,-0.19918 -3.63705,2.60927 -5.94143,4.58797 -3.3733,2.89652 -9.37894,9.77477 -8.5347,9.77477 0.13531,0 1.07456,-0.71864 2.0871,-1.59697 z m 4.70011,-4.43595 c 0,-0.19503 0.16667,-0.3549 0.37001,-0.3549 0.20372,0 0.27289,0.15949 0.15421,0.3549 -0.11868,0.19502 -0.28536,0.35489 -0.37002,0.35489 -0.0847,0 -0.1542,-0.15987 -0.1542,-0.35489 z m 2.097,-2.30669 c 0.23923,-0.29291 0.58431,-0.53231 0.76675,-0.53231 0.18255,0 0.0956,0.23962 -0.19275,0.53231 -0.28839,0.29292 -0.63339,0.53231 -0.76676,0.53231 -0.13342,0 -0.0465,-0.23962 0.19276,-0.53231 z m -14.67886,5.12477 c 0,-0.18368 -0.15723,-0.33372 -0.34961,-0.33372 -0.19237,0 -0.34961,0.24907 -0.34961,0.55324 0,0.30425 0.15724,0.45456 0.34961,0.33374 0.19238,-0.12058 0.34961,-0.36965 0.34961,-0.55326 z m 16.77582,-4.76991 c 0.45146,-0.48794 0.74222,-0.88717 0.64611,-0.88717 -0.096,0 -0.54415,0.39923 -0.99561,0.88717 -0.45146,0.48798 -0.74219,0.8872 -0.64607,0.8872 0.096,0 0.54409,-0.39922 0.99557,-0.8872 z m 24.19733,-1.88281 c -1.71516,-1.5609 -6.02352,-4.53785 -6.02352,-4.16209 0,0.0922 1.14022,0.95698 2.53384,1.92148 1.39363,0.96445 3.08432,2.24038 3.75711,2.83539 0.67276,0.59498 1.30186,1.08133 1.39798,1.08084 0.096,-2.7e-4 -0.65333,-0.75455 -1.66541,-1.67562 z m -48.31258,-0.68819 c 0,-0.4329 -0.0979,-0.44984 -0.52426,-0.0907 -0.28837,0.24302 -0.52422,0.68133 -0.52422,0.97409 0,0.43295 0.0979,0.44984 0.52422,0.0907 0.28838,-0.24302 0.52426,-0.68133 0.52426,-0.9741 z m 26.92166,-0.82004 c 0.53106,-1.00762 0.16894,-0.84321 -0.53072,0.24075 -0.33034,0.51198 -0.42796,0.82247 -0.21695,0.69 0.21128,-0.13266 0.54751,-0.5514 0.74751,-0.93089 z m 15.45498,-0.85659 c -0.0907,-0.48197 -0.38347,-1.06046 -0.65054,-1.28553 -0.26721,-0.22488 -0.48551,-0.5907 -0.48551,-0.81264 0,-0.22186 -0.31446,-0.60298 -0.69899,-0.84676 -0.38445,-0.24378 -0.69902,-0.32353 -0.69902,-0.17726 0,0.25776 2.44672,3.99843 2.61532,3.99843 0.0461,0 0.0113,-0.39435 -0.0812,-0.87635 z m -46.92009,-1.45992 c 0,-0.30916 -0.1867104,-0.49867 -0.4150204,-0.42142 -0.64805,0.21922 -0.75553,0.98332 -0.13834,0.98332 0.30425,0 0.5533604,-0.25285 0.5533604,-0.5619 z m 42.53916,-3.83387 c 2.54169,-2.81613 0.43983,-6.48825 -3.51541,-6.14174 -3.31424,0.29027 -5.0261,3.62998 -3.1609,6.1666 0.87152,1.1853 1.89366,1.53884 3.96771,1.37228 1.26183,-0.1013 1.78062,-0.36888 2.7086,-1.39714 z m -6.54104,-0.19995 c 0,-0.18557 0.20599,-0.46491 0.4574,-0.62101 0.25172,-0.15609 0.66383,-0.80281 0.91612,-1.43713 0.25247,-0.63435 0.59203,-1.15335 0.75488,-1.15335 0.1629,0 0.19653,-0.26344 0.0748,-0.58542 -0.18444,-0.48805 -0.0608,-0.54455 0.74332,-0.33978 0.74926,0.19087 1.11364,0.0715 1.63241,-0.53608 0.36738,-0.43008 0.77073,-0.67749 0.89644,-0.54986 0.12586,0.12775 -0.11112,0.5313 -0.52646,0.897 -0.97724,0.8606 -0.95164,1.30148 0.13985,2.40979 1.05362,1.06987 0.89495,1.50728 -0.25097,0.69218 -0.97991,-0.6969 -1.38031,-0.72577 -1.13703,-0.082 0.20334,0.53858 -0.77234,1.0828 -1.0687,0.59592 -0.26532,-0.43593 -1.49949,-0.0423 -1.72316,0.54947 -0.2109,0.55839 -0.9089,0.68133 -0.9089,0.16025 z M 8.7552576,50.949983 c -0.45381,-0.17046 -1.07131,-0.20712 -1.3722,-0.0816 -0.45944,0.19162 -0.43601,0.27023 0.14626,0.4902 0.3814,0.14401 0.99886,0.18067 1.37224,0.0816 0.62373,-0.16554 0.61187,-0.20523 -0.14627,-0.4902 z m 36.6255904,-5.3413 c -0.28006,-0.43915 -0.96835,-1.01005 -1.5295,-1.26864 -0.56115,-0.25852 -1.37344,-0.97501 -1.8051,-1.59198 -0.4317,-0.61697 -0.78486,-0.9338 -0.78486,-0.70409 0,0.22979 0.15043,0.51205 0.33411,0.6274 0.18369,0.11528 0.25928,0.40793 0.16781,0.65016 -0.0938,0.24832 0.69555,1.01684 1.81145,1.76304 2.30748,1.54299 2.4895,1.59583 1.80602,0.52411 z m 11.50485,-1.60979 c 7.52882,-4.93364 13.35065,-10.634 16.8432,-16.49177 l 0.79517,-1.33372 -0.8166,0.32352 c -1.12902,0.44734 -1.99843,0.93544 -6.38714,3.58587 -5.29735,3.19914 -9.15787,7.08226 -11.84163,11.91091 -1.09173,1.96427 -1.98494,3.68508 -1.98494,3.82405 0,0.2744 1.08839,-0.30954 3.39194,-1.81893 z m -1.84385,0.2385 c -0.25852,-0.42475 2.4373,-4.65336 4.30447,-6.75195 1.95908,-2.20184 8.5284,-7.40258 9.35052,-7.40258 0.30311,0 3.13357,-1.92461 3.262,-2.21798 0.13794,-0.31559 1.10671,-0.36169 1.10671,-0.0529 0,0.53412 -6.55317,8.12051 -8.49339,9.83255 -3.17646,2.80286 -9.27095,7.01885 -9.53031,6.59279 z m 2.94047,-2.55391 c 0.20901,-0.25587 1.40792,-1.17282 2.66401,-2.03774 2.17519,-1.49774 2.73078,-2.11048 1.91372,-2.11048 -0.20372,0 -0.26268,-0.17688 -0.13115,-0.39277 0.17008,-0.2793 0.31673,-0.26532 0.50706,0.0476 0.3851,0.63269 2.73695,-1.37699 5.12837,-4.38236 1.37303,-1.72555 1.69992,-2.31197 1.11334,-1.99718 -1.36989,0.73508 -5.20592,3.51973 -6.49879,4.71753 -0.66489,0.61603 -1.41913,1.24109 -1.6761,1.38901 -0.64755,0.37305 -4.09437,5.2316 -3.71135,5.2316 0.17083,0 0.4817,-0.20939 0.69079,-0.46519 z m 2.80805,-3.11929 c 0.43343,-0.41 0.89533,-0.63647 1.02647,-0.50327 0.13115,0.13303 -0.0665,0.46858 -0.4394,0.7454 -1.0425,0.77408 -1.47341,0.59636 -0.58707,-0.24227 z m -23.97953,0.7886 c -3.75519,-3.20129 -5.91707,-5.55912 -8.66218,-9.44738 -0.55121,-0.78074 -1.38997,-1.85394 -1.86388,-2.38492 -0.70855,-0.79381 -0.76769,-1.00207 -0.33298,-1.17146 0.32391,-0.12624 1.73432,0.71058 3.6378,2.15807 5.13396,3.90399 8.61204,7.331 10.93433,10.77381 2.19915,3.2603 3.69584,4.91285 1.91093,2.10996 -4.05986,-6.37531 -10.32995,-12.39387 -16.66035,-15.99205 l -1.68522,-0.95789 1.11659,2.0225 c 2.16219,3.91647 4.17917,6.66354 6.87061,9.35759 2.55651,2.55897 7.98924,7.01023 8.5787,7.02889 0.14702,0.004 -1.58278,-1.56902 -3.84446,-3.49712 z m 3.88524,1.64251 c -0.82552,-1.42442 -3.53986,-4.66224 -5.60794,-6.68934 -2.52246,-2.47249 -7.10113,-6.14185 -6.57514,-5.26931 1.97496,3.27613 9.58621,10.88103 10.41007,10.40141 0.22866,-0.13341 0.29669,-0.10885 0.1508,0.0545 -0.14588,0.16327 0.0778,0.66788 0.4978,1.12149 0.80886,0.87425 1.55717,1.12793 1.12445,0.38121 z m -3.62864,-2.92773 c -0.2468,-0.30237 -0.3704,-0.62933 -0.2744,-0.72692 0.096,-0.0976 0.37682,0.0699 0.62386,0.37191 0.24717,0.30236 0.37038,0.62933 0.27439,0.72692 -0.096,0.0975 -0.37682,-0.0699 -0.62385,-0.37191 z m -1.57274,-1.59696 c -0.11868,-0.19503 -0.0586,-0.3549 0.13342,-0.3549 0.19238,0 0.4467,0.15949 0.56549,0.3549 0.11868,0.19502 0.0586,0.35489 -0.13342,0.35489 -0.19238,0 -0.4467,-0.15949 -0.56549,-0.35489 z m -2.42026,-2.15033 c -0.41133,-0.42108 -0.50351,-0.68867 -0.23736,-0.68867 0.44051,0 1.43419,0.84303 1.43419,1.21675 0,0.38898 -0.52914,0.15572 -1.19702,-0.52808 z m -1.24943,-1.39843 c 0,-0.19502 0.15722,-0.35489 0.3496,-0.35489 0.192,0 0.34961,0.15949 0.34961,0.35489 0,0.19503 -0.15723,0.3549 -0.34961,0.3549 -0.19238,0 -0.3496,-0.15987 -0.3496,-0.3549 z m -15.72737,6.92009 c -0.24681,-0.30236 -0.52774,-0.4696 -0.62385,-0.37191 -0.096,0.0976 0.0265,0.42468 0.27439,0.72688 0.24718,0.30237 0.52773,0.46965 0.62388,0.37192 0.096,-0.0976 -0.0265,-0.42472 -0.27439,-0.72692 z m 4.54348,-2.63622 c 0,-0.43702 -1.00699,-1.44484 -1.4436,-1.44484 -0.34016,0 -0.16931,0.46224 0.49233,1.33078 0.39625,0.52025 0.95127,0.58677 0.95127,0.11414 z m 3.59621,-3.92897 c -0.10053,-0.39039 -0.32163,-0.70975 -0.49152,-0.70975 -0.36095,0 -0.4148,0.83863 -0.0756,1.18291 0.45819,0.46526 0.74691,0.2245 0.56727,-0.47316 z m 43.2363,-8.83869 c 0,-0.17688 -0.31446,-0.23811 -0.69903,-0.13606 -0.38441,0.10204 -0.69898,0.2468 -0.69898,0.32164 0,0.0748 0.31446,0.13606 0.69898,0.13606 0.38446,0 0.69903,-0.14476 0.69903,-0.32164 z m -33.70584,-0.57683 c -0.37303,-0.28649 -0.9236,-0.51595 -1.22324,-0.50975 -0.43555,0.0113 -0.40875,0.11565 0.1338,0.53235 0.37303,0.28649 0.92356,0.51594 1.22324,0.5097 0.43555,-0.0113 0.40875,-0.11564 -0.1338,-0.5323 z m -10.68023,-1.20529 c 0,-0.85584 -0.81732,-1.16254 -1.58301,-0.59403 -0.49655,0.3685 -0.53064,0.58348 -0.19389,1.22218 0.33373,0.63284 0.53386,0.70673 1.09274,0.40301 0.37643,-0.20447 0.68432,-0.66855 0.68432,-1.03116 z m -1.39797,-0.0265 c 0,-0.19502 0.15724,-0.35489 0.34961,-0.35489 0.19238,0 0.34961,0.15987 0.34961,0.35489 0,0.19503 -0.15723,0.3549 -0.34961,0.3549 -0.19237,0 -0.34961,-0.15987 -0.34961,-0.3549 z m 57.87267,0.53314 c 0.33109,-1.34014 -0.0548,-1.95262 -1.23099,-1.95262 -1.29116,0 -1.99094,1.04841 -1.42126,2.12924 0.57423,1.08949 2.36886,0.96997 2.65225,-0.1765 z m -2.12629,-0.17537 c -0.11792,-0.19351 -0.0809,-0.59445 0.0828,-0.89068 0.26343,-0.47808 0.37379,-0.47913 0.98003,-0.0113 0.59093,0.45766 0.61239,0.57717 0.15874,0.88528 -0.66584,0.45237 -0.95313,0.45589 -1.22151,0.0151 z m -13.46744,-2.11824 c 0.85437,-0.54863 0.24908,-0.70216 -0.68939,-0.17499 -0.50627,0.2846 -0.65291,0.49372 -0.34885,0.49788 0.28839,0.004 0.75561,-0.14135 1.03836,-0.32315 z m -25.65729,-0.91234 c -0.7627,-0.58575 -1.59329,-0.6878 -1.59329,-0.19577 0,0.39568 0.63318,0.67751 1.57273,0.7 0.68957,0.0152 0.68984,0.0113 0.0189,-0.5043 z m 22.60933,-3.94994 c -0.24038,-0.0983 -0.63345,-0.0983 -0.87375,0 -0.24038,0.0986 -0.0438,0.17914 0.43687,0.17914 0.48057,0 0.67714,-0.0805 0.43688,-0.17914 z m -3.5489,-3.88698 c 0.40539,-0.49592 0.37969,-0.55575 -0.19049,-0.44357 -0.36246,0.0715 -0.72435,0.32919 -0.80436,0.57324 -0.20749,0.63307 0.44036,0.5486 0.99474,-0.12963 z m -12.45548,-0.87077 c -0.11073,-0.18179 -0.44696,-0.33033 -0.74751,-0.33033 -0.44428,0 -0.46567,0.0986 -0.11452,0.52842 0.45128,0.55207 1.2122,0.3772 0.86203,-0.19805 z m 6.21631,-3.7728002 c -0.11604,-0.19049 -0.43752,-0.34659 -0.71452,-0.34659 -0.52321,0 -0.72677,1.78436 -0.25777,2.26047 0.32693,0.33222 1.2426,-1.47013 0.97244,-1.91399 z m -0.86865,0.34242 c 0,-0.20674 0.15722,-0.27703 0.3496,-0.15647 0.19238,0.12057 0.34962,0.28989 0.34962,0.37569 0,0.0862 -0.15724,0.15647 -0.34962,0.15647 -0.19238,0 -0.3496,-0.16895 -0.3496,-0.37569 z m 9.25928,78.0027802 c -1.51102,-1.11137 -7.01393,-7.3652 -8.55179,-9.71867 -0.98192,-1.50271 -1.2615,-2.72584 -0.62306,-2.72584 0.19238,0 0.34961,0.17045 0.34961,0.37859 0,0.49659 1.39333,2.40903 3.9902,5.47688 3.80485,4.49488 4.30439,4.95636 4.85918,4.48887 0.54777,-0.4616 1.47667,-0.23584 2.42189,0.58836 0.83464,0.72786 0.76778,1.30246 -0.22866,1.96546 -0.79374,0.52808 -0.9168,0.50291 -2.21719,-0.45365 z m 1.65955,-0.69562 c 0,-0.44821 -0.9877,-0.77984 -1.21421,-0.40766 -0.10356,0.17008 0.008,0.38997 0.25096,0.48881 0.69253,0.28346 0.96329,0.26078 0.96329,-0.0812 z m 15.59789,-16.01745 c -0.94469,-1.13998 -1.18625,-2.26451 -0.56954,-2.65153 0.19237,-0.12057 0.34961,0.0919 0.34961,0.4721 0,0.87439 1.3689,2.65092 1.38636,1.79913 0.034,-1.69217 -6.41208,-8.40114 -11.25513,-11.71291 -1.72131,-1.1771 -3.38982,-2.23276 -3.70776,-2.34591 -0.31786,-0.11302 -1.06635,-0.57173 -1.66314,-1.01912 -0.59675,-0.44734 -1.73696,-1.10018 -2.53383,-1.45073 -0.79684,-0.35037 -1.4488,-0.77011 -1.4488,-0.93241 0,-0.16214 -0.27516,-0.20826 -0.61161,-0.10167 -0.33638,0.1062 -0.84753,0.034 -1.13586,-0.15988 -0.46602,-0.31407 -0.46602,-0.38853 0,-0.6706 6.20723,-3.75768 17.4748,-13.03151 17.4748,-14.38277 0,-0.42274 0.47402,-1.22978 1.05335,-1.79334 0.97637,-0.94984 1.09524,-0.98219 1.62667,-0.44255 0.52963,0.53779 0.53004,0.64914 0.008,1.46215 -0.31219,0.48401 -2.18457,2.27596 -4.1605,3.98211 -1.97598,1.70616 -3.74994,3.28226 -3.94217,3.50246 -1.13703,1.30257 -7.44688,5.96337 -9.7409,7.19516 -0.46175,0.24794 0.15458,0.30463 2.097,0.19313 1.77595,-0.10204 3.06061,-0.36963 3.62471,-0.75462 0.48054,-0.32806 1.73873,-1.0591 2.79595,-1.62455 2.24924,-1.20303 7.10513,-4.41767 8.44883,-5.59321 0.51402,-0.44974 1.41102,-1.209 1.99329,-1.6873 0.9496,-0.78002 1.0385,-1.01923 0.86275,-2.32113 -0.1784,-1.32211 -0.11112,-1.49064 0.75439,-1.89112 0.71947,-0.33298 1.06818,-0.34054 1.43546,-0.0302 1.18674,1.00006 -0.004,2.86148 -3.93841,6.15148 -2.61158,2.18441 -9.13943,6.57264 -9.82152,6.60235 -0.14249,0.008 -0.55193,0.2366 -0.90989,0.51186 -0.56961,0.43808 -0.24227,0.47437 2.62122,0.29064 2.41863,-0.15495 3.48948,-0.38112 4.10559,-0.86672 0.45841,-0.36133 0.99651,-0.65691 1.19573,-0.65691 0.19918,0 0.61051,-0.21998 0.91397,-0.48904 0.30348,-0.2691 1.61162,-1.06432 2.90706,-1.76746 4.60807,-2.50136 5.15886,-2.95461 5.15886,-4.24536 0,-1.34085 0.55,-2.20119 1.6108,-2.5197 0.96768,-0.29064 1.67342,0.56622 1.34139,1.62845 -0.33222,1.0633 -2.24844,2.92267 -4.04451,3.92478 -0.79521,0.44372 -1.86146,1.04628 -2.36943,1.33905 -0.50793,0.29291 -2.05795,1.14984 -3.44443,1.90458 -1.38655,0.75473 -2.44146,1.50289 -2.34428,1.66249 0.0971,0.15951 1.31391,0.25135 2.70394,0.20411 2.63157,-0.0899 3.6099,-0.42967 8.52185,-2.95953 2.16466,-1.11488 2.44895,-1.36974 2.12172,-1.90182 -0.44179,-0.71826 0.47815,-2.45839 1.29963,-2.45839 1.67082,0 2.04865,1.09085 0.89401,2.58126 -0.77106,0.99538 -4.09973,2.95548 -6.81491,4.01307 l -1.7475,0.68062 4.89298,0.17764 c 3.07219,0.11149 5.28309,0.034 5.94141,-0.20561 1.49148,-0.54493 3.11944,-0.15193 3.25146,0.78474 0.24037,1.70506 -1.92189,2.47295 -3.47354,1.23364 -0.65212,-0.52082 -1.56405,-0.69989 -4.06654,-0.79847 -1.77423,-0.0699 -3.2258,-0.034 -3.22572,0.0782 8e-5,0.11301 0.81244,0.59181 1.80521,1.06394 1.89094,0.8993 5.8839,4.58249 5.8839,5.42744 0,0.27024 -0.24151,0.69479 -0.53688,0.9436 -0.4492,0.37855 -0.70609,0.28799 -1.57274,-0.55526 -0.58537,-0.56942 -1.03585,-1.37846 -1.03585,-1.86031 0,-1.07709 -0.9396,-1.8965 -4.01923,-3.5051 -1.34555,-0.70284 -2.53855,-1.42413 -2.65115,-1.60286 -0.11263,-0.17877 -1.49484,-0.27818 -3.0717,-0.2211 l -2.867,0.10393 2.63702,1.35772 c 2.75146,1.41668 4.82128,2.96119 7.5987,5.67016 2.18789,2.134 2.6781,4.15072 1.0089,4.15072 -0.95572,0 -1.78087,-1.163 -1.78234,-2.5121 -7.6e-4,-1.05626 -0.27553,-1.43913 -2.11019,-2.94474 -1.1599,-0.95188 -3.79363,-2.66756 -5.85274,-3.81264 l -3.7439,-2.08199 -3.45675,-0.002 -3.45679,-0.002 2.05878,1.10335 c 6.27424,3.36258 13.9392,9.50949 14.83241,11.8949 0.83377,2.22679 -0.0381,2.98186 -1.60562,1.39034 -0.57675,-0.58594 -0.85783,-1.26955 -0.85783,-2.08649 0,-1.03408 -0.28611,-1.46339 -1.92197,-2.8823 -3.36302,-2.91738 -11.2681,-8.00062 -12.44191,-8.00062 -0.7065,0 -1.45537,-0.84439 -1.09832,-1.2384 0.14248,-0.15723 -0.13418,-0.18482 -0.61463,-0.0609 -0.48057,0.1236 -1.89604,0.22791 -3.14547,0.23131 l -2.27173,0.008 1.10948,0.68694 c 0.6102,0.37795 2.02567,1.18438 3.14544,1.7924 4.9962,2.71287 11.87358,8.70258 14.56419,12.68436 1.88212,2.7854 1.05263,5.33828 -0.9495,2.92226 z m 4.98651,-5.73604 c -0.24415,-0.46326 -0.49088,-0.63402 -0.56957,-0.39424 -0.0764,0.23244 0.0548,0.79071 0.29178,1.24018 0.24416,0.46325 0.49085,0.63401 0.56958,0.39424 0.0763,-0.23245 -0.0548,-0.79072 -0.29179,-1.24018 z m 4.09565,-3.76902 c -0.48877,-0.49629 -0.56481,-0.50113 -0.56481,-0.0378 0,0.72911 0.81781,1.55951 0.99731,1.01269 0.0725,-0.22186 -0.12171,-0.66112 -0.4325,-0.97655 z m 3.44111,-3.15338 c -0.39776,-0.61637 -0.68783,-0.81029 -0.78216,-0.52286 -0.1561,0.47573 0.95753,1.96653 1.24841,1.67112 0.0915,-0.0926 -0.11868,-0.60941 -0.46625,-1.14826 z m 3.60678,-5.72364 c 0.10733,-0.33184 -0.13456,-0.43665 -0.81983,-0.35489 -0.53473,0.0638 -1.04084,0.32805 -1.12467,0.58692 -0.10734,0.33184 0.13455,0.43664 0.81981,0.35489 0.53477,-0.0638 1.04085,-0.32806 1.12469,-0.58692 z m -4.81672,-6.65621 c 0,-0.30916 -0.18671,-0.49867 -0.41502,-0.42142 -0.64804,0.21922 -0.75553,0.98333 -0.13834,0.98333 0.30426,0 0.55336,-0.25286 0.55336,-0.56191 z m -4.04836,-3.21509 c 0.12132,-0.32051 0.14853,-0.65609 0.0604,-0.74528 -0.2778,-0.28196 -0.90523,0.28422 -0.90523,0.81702 0,0.69611 0.57279,0.64747 0.84457,-0.0718 z m -4.68903,-3.53987 c 0,-0.29291 -0.15723,-0.43358 -0.34961,-0.31294 -0.19238,0.12057 -0.34961,0.45887 -0.34961,0.75167 0,0.29291 0.15723,0.43359 0.34961,0.31295 0.19238,-0.12057 0.34961,-0.45888 0.34961,-0.75168 z m -4.54346,-2.26476 c 0,-0.19503 -0.0691,-0.3549 -0.1542,-0.3549 -0.0847,0 -0.25134,0.15949 -0.37001,0.3549 -0.11868,0.19502 -0.0495,0.35489 0.1542,0.35489 0.20372,0 0.37001,-0.15949 0.37001,-0.35489 z m -58.71164,30.70137 c -1.0131,-1.2395 0.5947,-3.46915 4.86543,-6.74725 1.0171,-0.78074 2.02832,-1.58722 2.24715,-1.79222 1.17438,-1.10011 4.83534,-3.63556 6.49451,-4.49794 1.39991,-0.72752 2.00029,-0.88283 2.27173,-0.5876 0.26041,0.28309 0.24491,0.44764 -0.0529,0.55892 -1.06788,0.39885 -6.63206,4.16175 -8.92049,6.03269 -1.39718,1.14229 -3.09077,2.4938 -3.76353,3.00341 -1.49292,1.13075 -2.75944,3.13817 -1.97995,3.13817 0.27817,0 0.75775,-0.63878 1.06542,-1.41951 0.30765,-0.7807 0.71791,-1.41948 0.91169,-1.41948 0.89768,0 -0.0808,2.93533 -1.23425,3.70277 -1.0382,0.69075 -1.35911,0.69543 -1.90462,0.0265 z"
     style="fill:#000000;stroke-width:0.35217583" />
</svg>
