<?xml version="1.0" encoding="UTF-8" standalone="no"?>
<svg
   xmlns:dc="http://purl.org/dc/elements/1.1/"
   xmlns:cc="http://creativecommons.org/ns#"
   xmlns:rdf="http://www.w3.org/1999/02/22-rdf-syntax-ns#"
   xmlns:svg="http://www.w3.org/2000/svg"
   xmlns="http://www.w3.org/2000/svg"
   width="100"
   height="100"
   viewBox="0 0 100 100"
   version="1.1"
   id="svgC3">
  <defs
     id="defs2" />
  <metadata
     id="metadata5">
    <rdf:RDF>
      <cc:Work
         rdf:about="">
        <dc:format>image/svg+xml</dc:format>
        <dc:type
           rdf:resource="http://purl.org/dc/dcmitype/StillImage" />
        <dc:title></dc:title>
      </cc:Work>
    </rdf:RDF>
  </metadata>
  <path
     style="fill:#000000;stroke-width:0.39195302"
     d="m 41.763631,93.65953 c -0.708231,-1.453696 -2.638449,-3.79687 -5.976328,-7.254914 -2.647366,-2.742674 -3.70412,-4.935748 -3.650409,-7.575674 0.02213,-1.08726 -0.124376,-1.976838 -0.325549,-1.976838 -0.201173,0 -0.365769,-0.371207 -0.365769,-0.824905 0,-0.453697 0.15632,-0.824903 0.347372,-0.824903 0.191057,0 0.453769,0.371206 0.583811,0.824903 0.256362,0.894423 1.105231,1.101652 1.51383,0.369563 0.384668,-0.689217 -1.588246,-2.72063 -2.096106,-2.158256 -0.293281,0.324758 -0.993597,0.135185 -2.519269,-0.681956 -1.162193,-0.622465 -3.329155,-1.616801 -4.815471,-2.209634 -1.48632,-0.592839 -3.104346,-1.369518 -3.595619,-1.725964 -0.884698,-0.641896 -0.895693,-0.631885 -1.152122,1.048816 -0.188661,1.23654 -0.109328,1.885723 0.292425,2.39292 0.303226,0.382813 0.67704,1.160034 0.830696,1.727156 0.153656,0.567121 0.914637,2.051948 1.691065,3.299617 1.549826,2.490465 2.696443,6.148861 2.203821,7.031497 -0.223134,0.39979 -0.384519,0.214492 -0.574823,-0.659998 -0.386388,-1.775544 -1.985161,-4.690926 -3.597548,-6.560176 -1.807398,-2.095323 -3.034,-5.607497 -2.756422,-7.892585 0.184855,-1.521783 0.07857,-1.82402 -1.07787,-3.065196 -0.70562,-0.757324 -1.333981,-1.296832 -1.396356,-1.198916 -0.06237,0.09792 -0.522322,1.175509 -1.022103,2.394648 C 13.416122,70.306736 9.6965,74.581308 9.07114,74.153331 8.916266,74.047337 8.681187,73.172776 8.548743,72.209856 8.416299,71.246937 8.047998,69.105176 7.730297,67.450389 7.395835,65.708323 7.213998,63.239517 7.298366,61.586129 7.461219,58.394726 8.118354,57.046948 10.24887,55.53468 c 1.435413,-1.018878 1.848549,-1.449981 3.142271,-3.278938 0.826491,-1.168423 0.857287,-1.345381 0.320069,-1.839086 -0.326927,-0.300447 -0.740413,-0.971503 -0.918861,-1.491233 -0.213032,-0.620452 -0.62955,-0.94497 -1.212876,-0.94497 -0.97151,0 -3.301283,-1.59567 -4.407084,-3.018423 C 5.933965,43.368636 5,41.04013 5,39.545956 c 0,-1.37914 1.464198,-6.074109 2.45044,-7.857362 0.25092,-0.453699 0.569798,-1.428117 0.708611,-2.165375 0.138817,-0.737257 0.372089,-1.340467 0.518378,-1.340467 0.294924,0 4.886088,7.259644 4.89515,7.740311 0.003,0.166378 0.154081,0.561996 0.335427,0.879146 0.258288,0.451717 0.598739,0.237356 1.571486,-0.989457 0.682974,-0.861347 1.806501,-1.827381 2.49673,-2.14673 1.236074,-0.571903 1.24457,-0.593373 0.564528,-1.426318 -0.491434,-0.601932 -0.674679,-1.413235 -0.63577,-2.814813 0.06793,-2.447058 0.976783,-4.623155 2.739214,-6.558601 2.111903,-2.319219 4.007074,-5.252985 4.279009,-6.623999 0.323031,-1.628612 0.861679,-1.96263 1.256947,-0.779432 0.377316,1.129455 -0.316788,3.209788 -1.755062,5.260215 -0.543226,0.774426 -1.636166,2.338594 -2.428762,3.475925 -1.749382,2.510275 -2.112662,4.573236 -1.129785,6.415714 0.375587,0.70406 0.786201,1.280107 0.912477,1.280107 0.636765,0 8.79105,-3.427899 10.062758,-4.230184 1.319206,-0.832251 2.180721,-2.127734 1.73972,-2.616068 -0.318739,-0.352953 -1.390973,0.338406 -1.390973,0.896877 0,0.329755 -0.230658,0.463595 -0.55871,0.3242 -0.810151,-0.344254 -0.6856,-2.368855 0.200346,-3.256685 0.555837,-0.557016 0.699269,-1.062096 0.535746,-1.886543 -0.294849,-1.486519 0.648583,-3.446679 3.651032,-7.585718 2.473898,-3.410402 3.477005,-5.771166 3.064189,-7.211438 -0.286476,-0.99949 0.596981,-1.153113 1.292742,-0.224789 0.528777,0.705527 0.688605,3.3364698 0.278699,4.587736 -0.249639,0.762041 0.01348,1.01136 2.237921,2.120576 2.878322,1.435268 6.909778,2.785731 9.51906,3.188708 l 1.783617,0.275465 -1.892665,2.666874 c -2.104205,2.964946 -4.358273,7.523196 -4.694489,9.493361 -0.192157,1.126002 -0.101243,1.318409 0.732438,1.550109 1.041701,0.28951 3.214187,2.626931 3.216939,3.461164 0.0011,0.34861 -0.646348,0.15886 -1.945495,-0.57013 -1.62955,-0.914388 -2.64737,-1.138464 -6.238922,-1.373521 -4.547618,-0.29763 -5.817561,-0.753542 -7.433229,-2.668559 l -0.906689,-1.074677 -0.955676,0.989911 c -1.340303,1.388327 -4.400533,2.890896 -9.235849,4.534787 -4.115517,1.399183 -5.700032,2.374559 -8.387986,5.163367 -1.68027,1.743315 -1.751576,2.367287 -0.310583,2.717755 2.238305,0.544383 6.14926,-0.936013 8.796294,-3.329623 2.296702,-2.076814 5.38416,-3.222037 7.530624,-2.793319 1.353168,0.270273 1.650625,0.974884 0.411557,0.974884 -1.052698,0 -6.007258,2.631497 -8.200115,4.355292 -3.850069,3.026534 -8.023688,4.488009 -9.17521,3.212885 -0.661672,-0.73269 -1.185269,-0.706252 -1.231534,0.06219 -0.167258,2.778196 0.200845,4.862691 0.986163,5.584399 0.415244,0.381613 0.823061,0.293336 1.902275,-0.411759 0.755543,-0.493626 2.224949,-1.004098 3.265347,-1.134375 1.549968,-0.194088 2.079457,-0.48426 2.931552,-1.60656 1.190066,-1.567446 3.049604,-2.143918 4.89387,-1.517143 1.062408,0.361062 1.308814,0.27688 2.254366,-0.770163 1.075545,-1.190985 1.631051,-1.371149 3.842419,-1.246168 0.917502,0.05186 1.44594,-0.209998 2.085599,-1.033468 0.773373,-0.995604 1.113828,-1.105909 3.498985,-1.133651 2.226192,-0.0259 2.763119,-0.174424 3.409888,-0.943301 0.945324,-1.1238 3.481025,-1.923628 5.148521,-1.623984 0.955908,0.171773 1.391246,0.02987 1.875822,-0.611509 1.108491,-1.467158 2.584318,-2.054634 4.926423,-1.961047 1.978287,0.07905 2.309341,-0.02941 3.147742,-1.031146 1.016223,-1.214218 3.022984,-2.284951 3.917284,-2.090118 3.012604,0.656327 3.145531,0.637289 4.19658,-0.601079 1.702919,-2.006414 3.770196,-2.44151 7.057866,-1.485467 0.744702,0.216555 1.268553,0.07017 1.986394,-0.555094 1.640951,-1.429317 4.994026,-2.596423 7.428135,-2.585518 2.946551,0.01321 3.541246,0.18239 6.085566,1.731267 1.74998,1.065324 2.4339,1.81734 3.67671,4.042806 3.77604,6.76163 2.71187,14.963042 -3.21718,24.794401 -4.420862,7.330537 -5.259385,10.366396 -3.790995,13.725254 0.887675,2.030518 1.989565,2.778656 4.092515,2.778656 2.48446,0 3.99965,-3.02214 2.34603,-4.679274 -0.86442,-0.866252 -1.50111,-0.863138 -2.37401,0.01163 -0.61886,0.620175 -0.75294,0.627567 -1.25711,0.06927 -0.50418,-0.558283 -0.4898,-0.726913 0.13479,-1.581035 0.5429,-0.742419 1.09501,-0.965308 2.47038,-0.997302 1.52184,-0.03539 1.90394,0.129613 2.71379,1.171967 0.81777,1.052548 0.91427,1.47768 0.72888,3.21108 -0.11753,1.098854 -0.55823,2.53371 -0.97933,3.188572 -0.9459,1.470961 -3.50533,2.596633 -6.07686,2.672682 -2.193646,0.06488 -5.675549,-1.448326 -9.394834,-4.082892 -1.648778,-1.167916 -2.542908,-1.528152 -3.793017,-1.528152 -1.163521,0 -1.919425,-0.270255 -2.618621,-0.93623 -0.83734,-0.797558 -1.192516,-0.884086 -2.397926,-0.584176 -1.733048,0.431182 -4.067408,-0.469574 -5.691688,-2.196243 -1.10095,-1.170339 -2.284884,-1.417579 -3.747138,-0.78251 -1.095057,0.475594 -2.76883,-0.193164 -4.124185,-1.647825 -0.748651,-0.803507 -1.285853,-1.113187 -1.442907,-0.831796 -0.38725,0.693835 -2.914462,0.529288 -3.94121,-0.256616 -1.418497,-1.085763 -1.852126,-1.64933 -1.852126,-2.407132 0,-0.53891 -0.189383,-0.626197 -0.838065,-0.386262 -0.460933,0.170488 -1.676127,0.383033 -2.700427,0.472316 -1.841171,0.160485 -2.334229,-0.02492 -4.422274,-1.662895 -0.80094,-0.628301 -1.086221,-0.675091 -1.545078,-0.253398 -0.384931,0.353755 -1.338101,0.448268 -3.016378,0.299093 -2.267641,-0.201562 -2.574529,-0.349496 -4.048792,-1.951674 -1.372495,-1.491584 -1.701672,-1.670464 -2.358122,-1.281431 -1.657616,0.98235 -4.79011,0.01638 -5.871071,-1.810439 -0.508038,-0.858585 -0.725175,-0.949176 -1.365508,-0.569694 -1.109638,0.657601 -3.727943,0.203384 -5.964502,-1.034703 l -1.951054,-1.080039 -0.694647,0.926813 c -0.567921,0.757732 -0.654647,1.351606 -0.47538,3.255221 0.280301,2.976519 0.923741,4.633248 1.569106,4.040154 0.759725,-0.698195 4.219168,-0.778577 5.863282,-0.136237 0.83254,0.325264 2.438528,1.364582 3.568864,2.309593 2.059977,1.722238 4.002497,2.700072 6.294372,3.16849 1.983083,0.405305 1.212093,1.090622 -1.040444,0.924833 -1.962832,-0.14447 -4.705905,-1.434435 -8.043288,-3.782467 -1.917081,-1.348764 -6.110683,-1.833948 -6.110683,-0.706981 0,1.625293 6.222045,5.970514 11.581234,8.087853 1.145741,0.452666 3.035166,1.393363 4.198715,2.090432 1.163546,0.697073 2.179015,1.267403 2.25659,1.267403 0.07758,0 0.49203,-0.65871 0.920999,-1.463801 1.22728,-2.303347 2.737475,-2.787009 7.647252,-2.44914 3.600923,0.247797 4.407792,0.177193 6.359062,-0.556431 1.229161,-0.462128 2.358718,-0.705541 2.510128,-0.540911 0.151408,0.16463 -0.239175,0.923052 -0.867965,1.685379 l -1.143254,1.386053 0.736499,1.691219 c 0.405075,0.930167 0.944076,2.340827 1.197782,3.134797 0.253707,0.793971 1.109028,2.871496 1.900711,4.616723 0.791689,1.745229 1.439429,3.345288 1.439429,3.555683 0,0.210396 -1.047578,0.504112 -2.327955,0.652697 -2.171748,0.252029 -9.400318,2.513793 -10.083232,3.154966 -0.168202,0.15792 0.04131,1.004326 0.46559,1.880898 C 42.972455,92.265973 43.280899,95 42.704464,95 c -0.158271,0 -0.58165,-0.603212 -0.940833,-1.34047 z m 0.48366,-1.421414 c 0,-0.773817 -2.154279,-3.545703 -4.986276,-6.415772 -2.749502,-2.786468 -3.193103,-3.431131 -3.516543,-5.110417 -0.203575,-1.056934 -0.283333,-2.172177 -0.177245,-2.47831 0.106088,-0.306135 0.02529,-0.556609 -0.179584,-0.556609 -0.954603,0 -0.869605,2.446717 0.161713,4.65513 0.319615,0.684407 2.044526,2.795234 3.833137,4.690727 1.788608,1.89549 3.475601,3.908967 3.748873,4.474384 0.463453,0.958918 1.115925,1.392097 1.115925,0.740867 z M 45.97202,86.14655 c 1.741311,-0.618956 4.045988,-1.226143 5.121503,-1.349313 2.093045,-0.239701 2.315559,-0.593091 1.342297,-2.131755 -0.337245,-0.533177 -1.407287,-3.033719 -2.377858,-5.556767 -1.188706,-3.090096 -1.930746,-4.535505 -2.273485,-4.428486 -0.279839,0.08738 -1.804006,0.158303 -3.387037,0.157607 -1.583029,-8.26e-4 -2.788329,0.159812 -2.678446,0.356689 0.109883,0.196879 -0.225085,0.357962 -0.744372,0.357962 -0.519291,0 -1.492957,0.384619 -2.163703,0.854717 l -1.219539,0.854712 1.303655,-0.283029 c 0.71701,-0.155664 1.844735,-0.529122 2.506057,-0.829904 0.661322,-0.30078 1.292302,-0.385799 1.402182,-0.188927 0.109879,0.196867 -0.137879,0.476617 -0.550575,0.62166 -0.412696,0.145043 -0.750354,0.436811 -0.750354,0.648375 0,0.48039 0.09984,0.479017 1.279407,-0.01757 1.211672,-0.51012 1.318185,0.251286 0.117366,0.838993 -0.720869,0.352808 -0.668778,0.38123 0.372473,0.203245 1.265607,-0.216331 1.518745,0.09109 0.763571,0.927323 -0.347641,0.384954 -0.302628,0.494943 0.202565,0.494943 0.411977,0 0.609502,0.263979 0.540086,0.721791 -0.07453,0.491516 0.09851,0.683128 0.54238,0.600596 0.745755,-0.138653 0.886407,0.549911 0.186235,0.911731 -0.372473,0.192475 -0.372473,0.288717 0,0.481191 0.256077,0.132332 0.465592,0.524883 0.465592,0.872341 0,0.56454 -0.0941,0.563471 -0.884539,-0.01008 -0.809844,-0.587584 -0.944438,-0.579982 -1.593918,0.09005 -0.390162,0.402508 -0.955892,0.733591 -1.257182,0.73574 -0.301289,0.0021 -0.924928,0.138398 -1.385863,0.302764 -0.494209,0.176233 -0.838064,0.127865 -0.838064,-0.117887 0,-0.531848 -4.06673,-5.413211 -4.509794,-5.413211 -0.690286,0 -0.266341,0.71395 1.893231,3.188313 1.224073,1.402498 2.094463,2.639735 1.9342,2.749415 -0.457397,0.31303 -1.42031,0.05906 -2.082135,-0.549152 -0.520579,-0.47842 -0.572137,-0.461539 -0.370197,0.12119 0.471908,1.361773 -0.566371,0.629729 -1.379737,-0.972792 -1.05688,-2.082307 -1.645455,-2.154207 -0.872845,-0.106626 0.565529,1.49879 1.900655,3.06799 4.874698,5.729336 1.298169,1.161679 1.537661,1.239935 2.374943,0.776042 0.51215,-0.283756 2.355892,-1.022333 4.097202,-1.641284 z m -6.704512,-0.542524 c 0,-0.41899 2.30757,-1.38473 2.582161,-1.080662 0.311148,0.344546 -1.128493,1.402688 -1.908406,1.402688 -0.370566,0 -0.673755,-0.144911 -0.673755,-0.322026 z m 3.151325,-0.941657 c -0.296537,-0.531305 -0.223908,-0.614888 0.852758,-0.98136 1.037158,-0.353026 1.124396,0.396523 0.115724,0.99429 -0.503893,0.298619 -0.796779,0.294709 -0.968482,-0.01294 z m 2.063295,-1.004804 c 0,-0.340272 0.301704,-0.618678 0.670451,-0.618678 0.368748,0 0.829683,-0.16143 1.0243,-0.358734 0.500259,-0.507168 3.147396,-0.900809 3.147396,-0.468035 0,0.384739 -0.860274,0.75624 -2.510996,1.084341 -0.565124,0.112324 -1.186728,0.378726 -1.381345,0.592004 -0.524129,0.574386 -0.949806,0.470906 -0.949806,-0.230898 z m 3.747063,-3.815182 c -0.274886,-0.850684 -0.665255,-1.665148 -0.867489,-1.809923 -0.20224,-0.144771 -0.24651,-0.480364 -0.09839,-0.745752 0.27369,-0.490367 1.315313,1.299146 1.847697,3.174353 0.448998,1.58149 -0.352595,1.019099 -0.881815,-0.618678 z M 46.15045,75.451454 c -0.632412,-1.676033 -0.662466,-1.898967 -0.256035,-1.898967 0.468088,0 1.518344,2.872118 1.143953,3.128342 -0.185357,0.126854 -0.58492,-0.426368 -0.887918,-1.229375 z m -2.040795,3.531654 c 0,-0.666964 -0.496137,-0.881006 -0.990029,-0.427115 -0.391465,0.359757 -0.499862,0.269542 -0.499862,-0.416032 0,-0.927423 -0.573583,-1.113201 -1.479105,-0.479064 -0.614006,0.42999 -0.575828,0.489512 0.734159,1.144502 1.122786,0.561389 2.234837,0.649819 2.234837,0.177709 z m -9.311822,-0.250627 c 0,-0.100037 -0.167613,-0.296594 -0.372473,-0.436795 -0.20486,-0.1402 -0.372473,-0.05836 -0.372473,0.181883 0,0.240237 0.167613,0.436796 0.372473,0.436796 0.20486,0 0.372473,-0.08184 0.372473,-0.181884 z m 3.16602,-1.055473 c -0.126611,-0.226849 -0.397813,-0.412452 -0.602673,-0.412452 -0.20486,0 -0.268884,0.185603 -0.142273,0.412452 0.126611,0.226849 0.397812,0.412453 0.602672,0.412453 0.20486,0 0.268885,-0.185604 0.142274,-0.412453 z m 2.642699,-0.474213 0.709557,-0.88666 -1.116655,0.301511 c -1.340504,0.361951 -1.451188,0.462717 -1.133499,1.031921 0.364275,0.652674 0.750362,0.540709 1.540597,-0.446772 z m -20.370026,-1.86976 c -0.798351,-1.728604 -1.082556,-2.926093 -1.082556,-4.561314 0,-2.500247 -0.550529,-2.671513 -0.681584,-0.212036 -0.09018,1.69241 0.663222,4.106827 1.866976,5.98308 1.117392,1.741645 1.08517,1.362561 -0.102836,-1.20973 z m 14.93378,0.876048 c 0,-0.326885 -0.167613,-0.594335 -0.372473,-0.594335 -0.20486,0 -0.372473,0.382161 -0.372473,0.849246 0,0.467086 0.167613,0.734536 0.372473,0.594335 0.20486,-0.1402 0.372473,-0.522361 0.372473,-0.849246 z m 3.724729,-0.0198 c 0,-0.08914 -0.251419,-0.162087 -0.558709,-0.162087 -0.307291,0 -0.55871,0.179781 -0.55871,0.39951 0,0.219725 0.251419,0.292672 0.55871,0.162097 0.30729,-0.130578 0.558709,-0.310353 0.558709,-0.399508 z m 51.110947,-0.348722 c 1.90819,-0.356152 3.55463,-1.98942 3.89077,-3.859648 0.35095,-1.952602 0.23453,-2.550576 -0.71787,-3.687207 -0.85568,-1.021206 -2.80711,-1.259064 -3.55303,-0.433073 -0.79501,0.880337 -0.47397,1.193474 0.49947,0.487188 1.18967,-0.863172 2.6155,-0.272595 3.15824,1.308136 0.55344,1.611913 0.4564,2.120404 -0.67139,3.518106 -0.79048,0.979657 -1.43122,1.329087 -2.70043,1.472694 -4.743232,0.536682 -6.927077,-5.655194 -4.136178,-11.727356 0.654798,-1.424643 1.730318,-3.407346 2.390048,-4.406012 4.47375,-6.772143 6.45494,-12.722792 6.11586,-18.369542 -0.17294,-2.88008 -0.81123,-5.714358 -1.19195,-5.292774 -0.0911,0.100922 0.018,0.915481 0.24257,1.810123 0.52537,2.09306 0.13839,8.469603 -0.67694,11.154339 -0.64998,2.140285 -4.38469,9.287383 -6.1209,11.713563 -2.784787,3.891457 -3.388418,9.972128 -1.340919,13.507809 l 1.015109,1.752922 h -1.134473 c -1.42348,0 -4.456854,-1.67506 -6.870012,-3.793687 -1.805374,-1.585025 -5.138394,-5.513186 -6.062388,-7.144875 -2.094941,-3.69947 -3.82117,-9.224079 -3.82117,-12.229227 0,-0.841856 -0.167614,-1.645354 -0.372473,-1.785555 -0.484415,-0.331521 -0.476874,1.464581 0.01918,4.564335 0.594919,3.717646 1.442742,6.311817 2.983929,9.130256 1.667505,3.049432 1.440005,3.533028 -1.572078,3.341774 l -1.981713,-0.125827 -0.05289,-1.548531 c -0.02909,-0.851693 -0.269682,-1.837783 -0.534646,-2.191308 -0.421563,-0.562478 -0.357293,-0.608191 0.51448,-0.365904 0.631166,0.17542 0.996212,0.109349 0.996212,-0.180291 0,-0.251443 -0.428924,-0.457166 -0.953165,-0.457166 -0.524242,0 -0.863467,-0.160712 -0.753835,-0.357137 0.109631,-0.196427 0.622361,-0.267591 1.1394,-0.158143 0.594063,0.125749 0.940072,0.01179 0.940072,-0.309645 0,-0.295646 -0.294685,-0.423308 -0.703712,-0.304864 -0.387043,0.11208 -0.931786,0.04376 -1.210538,-0.151807 -0.357089,-0.250528 -0.210703,-0.357447 0.495493,-0.361898 0.551276,-0.0033 1.105911,-0.191917 1.232522,-0.418766 0.136996,-0.245458 -0.306528,-0.412453 -1.095436,-0.412453 -0.729101,0 -1.325639,-0.185603 -1.325639,-0.412452 0,-0.226848 0.209516,-0.415293 0.465593,-0.418767 0.330025,-0.0045 0.34373,-0.09454 0.04707,-0.309338 -0.230179,-0.166664 -0.516742,-1.204332 -0.636802,-2.305927 -0.200768,-1.842183 -0.159715,-1.98594 0.511633,-1.791534 0.401455,0.116249 0.729922,0.04314 0.729922,-0.162474 0,-0.205612 -0.335227,-0.373838 -0.744947,-0.373838 -0.409721,0 -0.744945,-0.205459 -0.744945,-0.45658 0,-0.251117 0.246051,-0.352028 0.54678,-0.224237 0.30073,0.127785 0.645847,0.05485 0.766929,-0.1621 0.121081,-0.216941 -0.14451,-0.39444 -0.590204,-0.39444 -0.660879,0 -0.777912,-0.187892 -0.634497,-1.018648 0.09672,-0.560256 0.03215,-0.920297 -0.143513,-0.800083 -0.175651,0.120208 -0.486661,-0.268697 -0.691139,-0.86424 -0.494601,-1.440531 -0.496512,-1.434426 0.466289,-1.489394 0.63066,-0.03601 0.676751,-0.09452 0.186237,-0.236471 -1.081635,-0.312998 -0.733155,-0.948608 0.558707,-1.01905 l 1.210538,-0.06601 -1.217607,-0.166936 c -1.385602,-0.189967 -1.27063,-0.938408 0.144153,-0.938408 0.512148,0 0.841486,-0.160709 0.731853,-0.357136 -0.10963,-0.196428 -0.622363,-0.267593 -1.139399,-0.158144 -0.55113,0.116663 -0.940072,0.0084 -0.940072,-0.261539 0,-0.253295 0.409138,-0.460537 0.909198,-0.460537 0.50006,0 1.019397,-0.19744 1.154083,-0.438758 0.165883,-0.297209 -0.187521,-0.348933 -1.095438,-0.160323 -0.885558,0.183964 -1.340319,0.122919 -1.340319,-0.179919 0,-0.25978 0.645478,-0.458357 1.489893,-0.458357 0.825198,0 1.489893,-0.200183 1.489893,-0.448706 0,-0.294977 -0.510443,-0.353211 -1.489893,-0.16997 -1.149789,0.215105 -1.489893,0.146652 -1.489893,-0.299871 0,-0.3984 0.435018,-0.57026 1.396776,-0.551816 0.768225,0.01474 1.396772,-0.148481 1.396772,-0.362692 0,-0.21421 -0.628547,-0.339222 -1.396772,-0.277801 -0.806879,0.06451 -1.396776,-0.07477 -1.396776,-0.32979 0,-0.259816 0.506582,-0.369643 1.231154,-0.266918 0.677135,0.09599 1.473296,0.0049 1.769248,-0.202438 0.369332,-0.25875 -0.0168,-0.378964 -1.231154,-0.383297 -0.99736,-0.0035 -1.769248,-0.197573 -1.769248,-0.444696 0,-0.241106 0.293323,-0.405337 0.651828,-0.364956 1.3887,0.156423 3.557498,-0.03489 3.324196,-0.293242 -0.134938,-0.149421 -1.028163,-0.288623 -1.984949,-0.309339 -0.956787,-0.02072 -1.796532,-0.223271 -1.866099,-0.450118 -0.07807,-0.254576 0.729264,-0.35896 2.109111,-0.272705 1.440926,0.09007 2.235589,-0.0199 2.235589,-0.30934 0,-0.273915 -0.871723,-0.449086 -2.234838,-0.449086 -1.229159,0 -2.234838,-0.162007 -2.234838,-0.360014 0,-0.198005 0.946304,-0.296725 2.10289,-0.219373 1.156592,0.07735 2.371786,-0.03341 2.70043,-0.246123 0.411935,-0.266625 -0.24126,-0.39066 -2.102889,-0.399303 -1.655228,-0.0076 -2.700431,-0.182607 -2.700431,-0.451925 0,-0.28085 1.034408,-0.405938 2.866869,-0.346691 1.909739,0.06175 2.914928,-0.06696 3.010826,-0.385523 0.102751,-0.34134 -0.919424,-0.478212 -3.571393,-0.478212 h -3.715343 l 0.118034,5.568105 c 0.06492,3.062455 -0.01754,5.568101 -0.183243,5.568101 -0.452107,0 -0.574349,-1.382372 -0.574349,-6.495121 0,-2.821305 -0.14595,-4.637007 -0.372473,-4.633773 -1.02642,0.01465 -1.136031,0.742318 -0.86872,5.767017 0.150852,2.835608 0.292965,9.247049 0.315801,14.247648 0.02283,5.000598 0.156589,9.285878 0.297223,9.522848 0.140631,0.23697 1.154472,1.110466 2.252975,1.941103 1.690343,1.278156 2.305677,1.510243 4.004082,1.510243 1.407687,0 2.206832,0.215486 2.676814,0.721792 0.635148,0.684237 2.682248,1.161769 2.682248,0.625689 0,-0.138266 -0.278326,-0.591955 -0.618506,-1.008194 -0.340175,-0.416238 -0.518121,-0.867952 -0.395436,-1.003808 0.178057,-0.197166 1.933866,1.707832 2.876307,3.120703 0.420142,0.62986 3.817289,2.980631 6.384268,4.417803 2.599495,1.455383 5.046493,2.224285 6.279813,1.973258 0.30729,-0.06254 1.18232,-0.230112 1.94451,-0.372371 z M 63.549945,63.447409 c 0.02697,-0.793971 0.189466,-1.443583 0.36113,-1.443583 0.171667,0 0.312121,0.649612 0.312121,1.443583 0,0.79397 -0.16251,1.443583 -0.36113,1.443583 -0.198623,0 -0.339077,-0.649613 -0.312121,-1.443583 z m -0.11308,-2.474713 c -0.131567,-1.966807 -0.0886,-2.42667 0.237969,-2.546602 0.19917,-0.07314 0.408077,0.609116 0.464243,1.516145 0.05722,0.923994 -0.06562,1.649135 -0.279355,1.649135 -0.209809,0 -0.400095,-0.278405 -0.422857,-0.618678 z m 0.01527,-3.196504 c -0.203451,-0.802941 -0.196172,-4.846313 0.0087,-4.846313 0.153107,0 0.308549,1.113621 0.345432,2.474714 0.03688,1.361091 -0.02183,2.474711 -0.130484,2.474711 -0.108646,0 -0.209302,-0.0464 -0.223666,-0.103115 z m -0.346358,-5.671217 c 0,-0.226849 0.167614,-0.412452 0.372473,-0.412452 0.204859,0 0.372472,0.185603 0.372472,0.412452 0,0.226848 -0.167613,0.412452 -0.372472,0.412452 -0.204859,0 -0.372473,-0.185604 -0.372473,-0.412452 z m 0,-2.037918 c 0,-0.693935 0.167614,-1.261699 0.372473,-1.261699 0.204859,0 0.372472,0.453053 0.372472,1.006788 0,0.553733 -0.167613,1.121497 -0.372472,1.261698 -0.217308,0.148722 -0.372473,-0.270683 -0.372473,-1.006787 z m -0.279355,-2.695618 c 0,-0.580711 0.146661,-1.156211 0.325914,-1.278882 0.179253,-0.122675 0.325914,0.15911 0.325914,0.626197 0,0.467086 0.01254,0.98381 0.02793,1.148274 0.01537,0.164467 -0.131296,0.357804 -0.325913,0.42964 -0.194617,0.07183 -0.353849,-0.344518 -0.353849,-0.925229 z M 37.218911,75.614748 c 0.126611,-0.22685 -0.0311,-0.412452 -0.35049,-0.412452 -0.31938,0 -0.580692,0.185602 -0.580692,0.412452 0,0.226847 0.157719,0.412451 0.350489,0.412451 0.19277,0 0.454082,-0.185604 0.580693,-0.412451 z m 4.969041,-3.671687 c 4.602908,0.04808 6.400309,-0.292692 6.975014,-1.322391 0.210216,-0.376647 0.09919,-0.412085 -0.429414,-0.13707 -0.39211,0.204003 -3.059507,0.377265 -5.927548,0.385032 -5.813322,0.01576 -6.59769,0.26317 -7.918673,2.497959 l -0.841692,1.423933 1.713528,-1.448354 1.713532,-1.44836 z m -3.47915,1.589628 c 2.175741,-1.162402 2.195438,-1.187375 0.744946,-0.944416 -1.717599,0.287698 -3.538492,1.213821 -3.538492,1.799711 0,0.571851 0.286372,0.484177 2.793546,-0.855295 z m 46.372881,0.482751 c 0,-0.199071 -0.232794,-0.57589 -0.517327,-0.837372 -0.694081,-0.637867 -1.345036,-3.638538 -1.345036,-6.20013 0,-2.206466 1.516534,-6.405498 2.995332,-8.29358 0.8108,-1.035202 2.2923,-3.72139 4.53065,-8.214776 1.81978,-3.653122 2.64891,-9.318716 1.994,-13.625336 -0.6253,-4.111893 -5.24398,-7.432263 -10.264929,-7.379451 -3.241183,0.03411 -7.029604,1.977185 -9.01745,4.625083 -3.102436,4.132578 -5.643822,11.245355 -4.709023,13.17952 0.214197,0.443184 0.305441,1.387683 0.202772,2.098891 -0.405556,2.809372 2.096606,12.114152 3.89695,14.491572 0.343569,0.453698 1.19176,1.586654 1.884868,2.517683 2.115449,2.841597 5.796621,6.005344 8.51222,7.315737 1.540097,0.743166 1.836973,0.79523 1.836973,0.322159 z m -4.469675,-4.175022 c 0,-0.226848 0.167613,-0.412453 0.372475,-0.412453 0.204859,0 0.372472,0.185605 0.372472,0.412453 0,0.226849 -0.167613,0.412452 -0.372472,0.412452 -0.204862,0 -0.372475,-0.185603 -0.372475,-0.412452 z m -1.434349,-0.6615 c -0.678847,-0.850134 -0.241887,-1.253577 0.485431,-0.448195 0.317045,0.351075 0.576445,0.744382 0.576445,0.874008 0,0.433074 -0.553162,0.211257 -1.061876,-0.425813 z m 1.806824,-0.575857 c 0,-0.226848 0.167611,-0.412452 0.372472,-0.412452 0.204859,0 0.372473,0.185604 0.372473,0.412452 0,0.226849 -0.167614,0.412452 -0.372473,0.412452 -0.204861,0 -0.372472,-0.185603 -0.372472,-0.412452 z m -3.352262,-0.824905 c 0,-0.226848 0.177506,-0.412452 0.394457,-0.412452 0.21695,0 0.290864,0.185604 0.164253,0.412452 -0.126611,0.22685 -0.304117,0.412453 -0.394457,0.412453 -0.09034,0 -0.164253,-0.185603 -0.164253,-0.412453 z m -0.900284,-0.769548 c -0.160452,-0.28748 -0.191138,-0.634075 -0.0682,-0.770217 0.333351,-0.369129 0.696812,0.173766 0.516766,0.771883 -0.126164,0.419121 -0.2139,0.418795 -0.448569,-0.0017 z m 4.070059,-0.04862 c -0.128675,-0.230548 -0.05645,-0.419179 0.160499,-0.419179 0.21695,0 0.394456,-0.278405 0.394456,-0.618679 0,-0.340272 0.151921,-0.618677 0.337601,-0.618677 0.390654,0 0.09254,1.561658 -0.356825,1.869192 -0.165976,0.113589 -0.407057,0.0179 -0.535731,-0.212657 z m -5.218375,-1.244093 c -0.126611,-0.226848 -0.0527,-0.412451 0.164254,-0.412451 0.21695,0 0.394456,0.185603 0.394456,0.412451 0,0.22685 -0.07391,0.412452 -0.164253,0.412452 -0.09034,0 -0.267846,-0.185602 -0.394457,-0.412452 z m 3.106404,-1.35368 c -0.970354,-0.899652 -2.429203,-3.766005 -3.199064,-6.285538 -0.938945,-3.07289 -1.61758,-7.043154 -1.340535,-7.842618 0.115083,-0.33209 0.02368,-0.603797 -0.203083,-0.603797 -0.22678,0 -0.412324,-0.196559 -0.412324,-0.436795 0,-0.240237 0.167613,-0.322085 0.372475,-0.181883 0.204859,0.140201 0.372472,-0.01897 0.372472,-0.35374 0,-0.334758 -0.209515,-0.689801 -0.465592,-0.788988 -0.348121,-0.134839 -0.313209,-0.377649 0.138382,-0.962387 0.332184,-0.430129 0.89993,-1.788248 1.261655,-3.01805 1.140479,-3.87741 4.405543,-7.044173 7.262834,-7.044173 1.525325,0 3.829137,1.342285 4.360257,2.540443 1.01911,2.299048 0.93315,4.584815 -0.29236,7.773834 -0.642919,1.673004 -1.890509,4.259187 -2.772421,5.747063 -2.60251,4.390709 -3.440567,6.437676 -3.717525,9.08013 -0.284022,2.709811 -0.534802,3.146366 -1.365171,2.376499 z m 0.804561,-1.945937 c 0,-0.226848 -0.167613,-0.412452 -0.372472,-0.412452 -0.204862,0 -0.372473,0.185604 -0.372473,0.412452 0,0.226849 0.167611,0.412452 0.372473,0.412452 0.204859,0 0.372472,-0.185603 0.372472,-0.412452 z m 0,-1.237357 c 0,-0.226848 -0.25142,-0.412452 -0.55871,-0.412452 -0.30729,0 -0.55871,0.185604 -0.55871,0.412452 0,0.22685 0.25142,0.412453 0.55871,0.412453 0.30729,0 0.55871,-0.185603 0.55871,-0.412453 z m -1.489892,-0.181883 c 0,-0.100036 -0.167611,-0.296594 -0.372473,-0.436794 -0.204859,-0.140201 -0.372472,-0.05836 -0.372472,0.181883 0,0.240237 0.167613,0.436794 0.372472,0.436794 0.204862,0 0.372473,-0.08184 0.372473,-0.181883 z m -1.049132,-1.969743 c -0.267274,-0.295959 -0.440758,-0.32031 -0.440758,-0.06187 0,0.234413 0.111741,0.549939 0.248316,0.70117 0.13657,0.151234 0.334913,0.179074 0.440757,0.06187 0.105846,-0.117202 -0.0059,-0.432729 -0.248315,-0.70117 z m 1.421604,-0.323086 c 0,-0.226848 -0.167611,-0.412452 -0.372472,-0.412452 -0.204859,0 -0.372473,0.185604 -0.372473,0.412452 0,0.226849 0.167614,0.412452 0.372473,0.412452 0.204861,0 0.372472,-0.185603 0.372472,-0.412452 z m 0.915276,-0.383951 c 0.117864,-0.211175 0.04395,-0.500536 -0.164253,-0.643022 -0.208201,-0.142485 -0.378548,0.03027 -0.378548,0.383952 0,0.724485 0.223504,0.831157 0.542801,0.25907 z M 76.20477,56.250552 c -0.327493,-1.040282 -0.298863,-1.258411 0.165156,-1.258411 0.308724,0 0.462251,-0.177499 0.341167,-0.394441 -0.300154,-0.537785 -1.313709,-0.06103 -1.313709,0.617944 0,0.880886 0.745461,2.800575 0.98467,2.535689 0.120383,-0.133304 0.04061,-0.808657 -0.177284,-1.500781 z m 1.613689,1.2163 c 0.126611,-0.226848 0.06259,-0.412452 -0.142275,-0.412452 -0.204859,0 -0.476062,0.185604 -0.602673,0.412452 -0.126611,0.226849 -0.06258,0.412452 0.142274,0.412452 0.204862,0 0.476063,-0.185603 0.602674,-0.412452 z M 80.798241,57.0544 c 0.126611,-0.226848 0.0527,-0.412452 -0.164253,-0.412452 -0.216951,0 -0.394457,0.185604 -0.394457,0.412452 0,0.226849 0.07391,0.412452 0.164253,0.412452 0.09034,0 0.267846,-0.185603 0.394457,-0.412452 z m -2.188707,-0.634288 c -0.125077,-0.360926 0.01828,-0.735465 0.332623,-0.869034 0.303837,-0.129109 0.552429,-0.423213 0.552429,-0.653567 0,-0.241412 -0.236672,-0.201325 -0.55871,0.09463 -0.30729,0.282401 -0.55871,0.360808 -0.55871,0.174236 0,-0.186569 -0.187219,-0.131903 -0.416044,0.121483 -0.306411,0.3393 -0.281871,0.628618 0.09312,1.097931 0.654244,0.818804 0.830932,0.829722 0.555295,0.03432 z m -1.467819,-0.680403 c -0.118901,-0.329025 -0.20716,-0.231295 -0.225033,0.249192 -0.01617,0.434791 0.07186,0.678398 0.19563,0.541343 0.12377,-0.137057 0.136999,-0.492798 0.02939,-0.790535 z m 4.215236,-0.335116 c 0,-0.226849 -0.07391,-0.412452 -0.164253,-0.412452 -0.09034,0 -0.267846,0.185603 -0.394457,0.412452 -0.126611,0.226848 -0.0527,0.412452 0.164254,0.412452 0.21695,0 0.394456,-0.185604 0.394456,-0.412452 z m -3.352257,-1.2617 c 0,-0.213461 -0.167611,-0.388109 -0.372473,-0.388109 -0.204859,0 -0.372472,0.289359 -0.372472,0.643021 0,0.353661 0.167613,0.52831 0.372472,0.388109 0.204862,-0.140201 0.372473,-0.429561 0.372473,-0.643021 z m 3.352257,0.02434 c 0,-0.226848 -0.167613,-0.412452 -0.372472,-0.412452 -0.204862,0 -0.372475,0.185604 -0.372475,0.412452 0,0.226849 0.167613,0.412452 0.372475,0.412452 0.204859,0 0.372472,-0.185603 0.372472,-0.412452 z m -5.400857,-0.412452 c 0.126611,-0.226848 -0.041,-0.412452 -0.372473,-0.412452 -0.331472,0 -0.499083,0.185604 -0.372472,0.412452 0.126611,0.226849 0.294222,0.412452 0.372472,0.412452 0.07825,0 0.245862,-0.185603 0.372473,-0.412452 z m 3.16602,0 c 0,-0.226848 -0.167614,-0.412452 -0.372473,-0.412452 -0.204861,0 -0.372475,0.185604 -0.372475,0.412452 0,0.226849 0.167614,0.412452 0.372475,0.412452 0.204859,0 0.372473,-0.185603 0.372473,-0.412452 z m 3.724727,-0.45658 c 0,-0.202567 -0.251418,-0.368316 -0.558707,-0.368316 -0.30729,0 -0.55871,0.272581 -0.55871,0.605736 0,0.368975 0.218376,0.512937 0.55871,0.368324 0.307289,-0.130578 0.558707,-0.403155 0.558707,-0.605735 z m -5.21462,-0.299581 c 0,-0.537045 -0.442785,-0.894213 -0.802973,-0.64771 -0.385218,0.263643 -0.05306,0.991428 0.452485,0.991428 0.192767,0 0.350488,-0.15467 0.350488,-0.343709 z m 0.915273,-0.452695 c 0.117867,-0.211175 0.04395,-0.500535 -0.16425,-0.643021 -0.208204,-0.142485 -0.37855,0.03027 -0.37855,0.383952 0,0.724484 0.223506,0.831157 0.5428,0.259069 z m -3.004867,-1.16274 c -0.319718,-1.502093 -0.890188,-2.171289 -0.890188,-1.044242 0,1.158554 0.370752,2.178486 0.791892,2.178486 0.186846,0 0.231077,-0.51041 0.0983,-1.134244 z m 4.324432,0.284997 c 0,-0.213461 -0.167614,-0.38811 -0.372473,-0.38811 -0.204859,0 -0.372472,0.28936 -0.372472,0.643022 0,0.35366 0.167613,0.528309 0.372472,0.388108 0.204859,-0.140201 0.372473,-0.42956 0.372473,-0.64302 z m 1.862365,-0.800562 c 0,-0.226849 -0.07391,-0.412452 -0.164254,-0.412452 -0.09034,0 -0.267845,0.185603 -0.394456,0.412452 -0.126611,0.226848 -0.0527,0.412452 0.164253,0.412452 0.21695,0 0.394457,-0.185604 0.394457,-0.412452 z M 83.591789,49.893 c 0,-0.20006 -0.224938,-0.15702 -0.499864,0.09564 -0.274921,0.252656 -0.610148,0.33725 -0.744945,0.187987 -0.134795,-0.149266 -0.245084,0.03951 -0.245084,0.419525 0,0.587666 0.111321,0.613931 0.744945,0.175754 0.409721,-0.283338 0.744948,-0.678845 0.744948,-0.878902 z m -7.021116,0.355942 c 0,-0.215506 -0.180184,-0.458338 -0.400407,-0.539624 -0.220226,-0.08129 -0.40041,0.161542 -0.40041,0.539624 0,0.378083 0.180184,0.620913 0.40041,0.539623 0.220223,-0.08129 0.400407,-0.324117 0.400407,-0.539623 z m 3.668858,-0.206226 c 0,-0.226849 -0.07391,-0.412453 -0.164253,-0.412453 -0.09034,0 -0.267843,0.185604 -0.394454,0.412453 -0.126611,0.226848 -0.0527,0.412452 0.16425,0.412452 0.216953,0 0.394457,-0.185604 0.394457,-0.412452 z m -2.234837,-0.412453 c 0,-0.226849 -0.261311,-0.412451 -0.580692,-0.412451 -0.319381,0 -0.477102,0.185602 -0.350491,0.412451 0.126611,0.22685 0.387924,0.412453 0.580694,0.412453 0.19277,0 0.350489,-0.185603 0.350489,-0.412453 z m 3.352257,0 c 0,-0.226849 -0.167613,-0.412451 -0.372472,-0.412451 -0.204862,0 -0.372475,0.185602 -0.372475,0.412451 0,0.22685 0.167613,0.412453 0.372475,0.412453 0.204859,0 0.372472,-0.185603 0.372472,-0.412453 z m 3.538493,0 c 0.126611,-0.226849 0.06259,-0.412451 -0.142275,-0.412451 -0.204859,0 -0.476062,0.185602 -0.602673,0.412451 -0.126608,0.22685 -0.06258,0.412453 0.142275,0.412453 0.204861,0 0.476062,-0.185603 0.602673,-0.412453 z M 82.474369,49.44838 c 0,-0.100037 -0.167611,-0.296594 -0.372473,-0.436795 -0.204859,-0.1402 -0.372472,-0.05836 -0.372472,0.181883 0,0.240237 0.167613,0.436795 0.372472,0.436795 0.204862,0 0.372473,-0.08184 0.372473,-0.181883 z m -2.60731,-0.64302 c 0,-0.226849 -0.167614,-0.412452 -0.372473,-0.412452 -0.204859,0 -0.372472,0.185603 -0.372472,0.412452 0,0.226848 0.167613,0.412452 0.372472,0.412452 0.204859,0 0.372473,-0.185604 0.372473,-0.412452 z m 3.72473,0 c 0,-0.226849 -0.167614,-0.412452 -0.372473,-0.412452 -0.204861,0 -0.372475,0.185603 -0.372475,0.412452 0,0.226848 0.167614,0.412452 0.372475,0.412452 0.204859,0 0.372473,-0.185604 0.372473,-0.412452 z m -6.33204,-0.412452 c 0,-0.226849 -0.177507,-0.412453 -0.394457,-0.412453 -0.21695,0 -0.290864,0.185604 -0.164253,0.412453 0.126611,0.226848 0.304117,0.412452 0.394456,0.412452 0.09034,0 0.164254,-0.185604 0.164254,-0.412452 z m 3.72473,0.02434 c 0,-0.213461 -0.170347,-0.504694 -0.37855,-0.647179 -0.208201,-0.142486 -0.282117,-0.431846 -0.164254,-0.643021 0.117864,-0.211172 0.01884,-0.383952 -0.220011,-0.383952 -0.243001,0 -0.334719,0.287376 -0.208219,0.652413 0.124349,0.358825 0.226086,0.822834 0.226086,1.03113 0,0.208293 0.167614,0.378717 0.372473,0.378717 0.204861,0 0.372475,-0.174648 0.372475,-0.388108 z m 3.891301,-0.472023 c -0.119925,-0.214876 -0.376812,-0.282027 -0.57086,-0.149226 -0.194045,0.132797 -0.254688,0.417258 -0.13476,0.632133 0.119925,0.214876 0.376812,0.282027 0.57086,0.149225 0.194048,-0.132797 0.25469,-0.417256 0.13476,-0.632132 z m -9.105924,-0.607786 c 0,-0.35366 -0.167611,-0.528309 -0.372472,-0.388108 -0.204859,0.1402 -0.372473,0.42956 -0.372473,0.643021 0,0.213459 0.167614,0.388108 0.372473,0.388108 0.204861,0 0.372472,-0.289359 0.372472,-0.643021 z m 7.73071,-0.08507 c 0.205269,-0.681911 -0.672002,-0.62388 -1.537237,0.101686 -0.652164,0.546887 -0.629952,0.578987 0.343331,0.496147 0.572331,-0.04871 1.109588,-0.317736 1.193906,-0.597832 z M 76.73984,46.442354 c -0.378627,-0.419262 -0.691031,0.211955 -0.380376,0.768555 0.234667,0.420461 0.322403,0.420787 0.448567,0.0017 0.08627,-0.286568 0.05558,-0.633164 -0.06819,-0.770222 z m 1.117417,-0.412453 c -0.378624,-0.419261 -0.691028,0.211955 -0.380375,0.768556 0.234669,0.420461 0.322405,0.420788 0.448569,0.0017 0.08627,-0.286568 0.05558,-0.633165 -0.06819,-0.770223 z m 6.851949,0.7132 c 0,-0.226848 -0.167611,-0.412453 -0.372472,-0.412453 -0.204859,0 -0.372473,0.185605 -0.372473,0.412453 0,0.226849 0.167614,0.412452 0.372473,0.412452 0.204861,0 0.372472,-0.185603 0.372472,-0.412452 z M 81.20081,44.78291 c -0.405754,-0.449309 -0.55976,0.138205 -0.302313,1.153297 l 0.256942,1.013121 0.130853,-0.963431 c 0.07197,-0.52989 0.03348,-1.071233 -0.08548,-1.202987 z m 4.812051,1.547738 c 0.126611,-0.226848 -0.0311,-0.412453 -0.350488,-0.412453 -0.319381,0 -0.580694,0.185605 -0.580694,0.412453 0,0.226851 0.15772,0.412453 0.350491,0.412453 0.19277,0 0.45408,-0.185602 0.580691,-0.412453 z m -6.890747,-0.412453 c 0,-0.226847 -0.07391,-0.412452 -0.164254,-0.412452 -0.09034,0 -0.267845,0.185605 -0.394456,0.412452 -0.126611,0.226851 -0.0527,0.412453 0.164253,0.412453 0.21695,0 0.394457,-0.185602 0.394457,-0.412453 z m 3.910965,0 c 0.126611,-0.226847 0.06259,-0.412452 -0.142275,-0.412452 -0.204859,0 -0.476059,0.185605 -0.60267,0.412452 -0.126611,0.226851 -0.06259,0.412453 0.142272,0.412453 0.204861,0 0.476062,-0.185602 0.602673,-0.412453 z M 80.239531,45.50574 c 0,-0.226848 -0.167611,-0.412451 -0.372472,-0.412451 -0.204859,0 -0.372473,0.185603 -0.372473,0.412451 0,0.22685 0.167614,0.412452 0.372473,0.412452 0.204861,0 0.372472,-0.185602 0.372472,-0.412452 z m 3.888714,-0.982461 c -0.134607,-0.593889 -0.394184,-1.0798 -0.576837,-1.0798 -0.420071,0 -0.416145,0.113952 0.0508,1.473935 0.472075,1.374931 0.860962,1.083559 0.526034,-0.394135 z m -7.815588,0.186059 c 0.117866,-0.211176 0.04395,-0.500534 -0.164251,-0.643023 -0.208203,-0.142486 -0.37855,0.0303 -0.37855,0.383953 0,0.724484 0.223507,0.831156 0.542801,0.25907 z m 6.534184,-0.234729 c 0,-0.340272 -0.157718,-0.618676 -0.350488,-0.618676 -0.46968,0 -0.806069,0.644081 -0.50849,0.973601 0.419476,0.464494 0.858978,0.282898 0.858978,-0.354925 z m 2.979785,0.436796 c 0,-0.100037 -0.167613,-0.296595 -0.372472,-0.436796 -0.204862,-0.1402 -0.372475,-0.05834 -0.372475,0.181886 0,0.240234 0.167613,0.436794 0.372475,0.436794 0.204859,0 0.372472,-0.08184 0.372472,-0.181884 z m 1.117416,-0.873588 c 0,-0.326886 -0.16761,-0.594338 -0.37247,-0.594338 -0.20486,0 -0.37247,0.382163 -0.37247,0.849246 0,0.467088 0.16761,0.734537 0.37247,0.594336 0.20486,-0.140201 0.37247,-0.522358 0.37247,-0.849244 z m -9.311821,-0.157543 c 0,-0.21346 -0.167613,-0.502819 -0.372472,-0.64302 -0.204859,-0.1402 -0.372473,0.03445 -0.372473,0.388111 0,0.353659 0.167614,0.64302 0.372473,0.64302 0.204859,0 0.372472,-0.17465 0.372472,-0.388111 z m 3.23536,-0.838617 c -0.175551,-1.273782 -0.639792,-1.516778 -0.547863,-0.286763 0.04526,0.605571 0.212294,1.101039 0.371187,1.101039 0.158893,0 0.238398,-0.366424 0.176676,-0.814276 z m 4.586573,0.401822 c 0,-0.226848 -0.167614,-0.412452 -0.372475,-0.412452 -0.204859,0 -0.372473,0.185604 -0.372473,0.412452 0,0.22685 0.167614,0.412454 0.372473,0.412454 0.204861,0 0.372475,-0.185604 0.372475,-0.412454 z m -5.658488,-0.443386 c -0.07341,-0.243863 -0.2927,-0.443387 -0.487317,-0.443387 -0.194617,0 -0.413909,0.199524 -0.487318,0.443387 -0.07341,0.243862 0.145883,0.443386 0.487318,0.443386 0.341436,0 0.560728,-0.199524 0.487317,-0.443386 z m 2.678703,0.03093 c 0,-0.226847 -0.167611,-0.412452 -0.372473,-0.412452 -0.204859,0 -0.372472,0.185605 -0.372472,0.412452 0,0.226851 0.167613,0.412452 0.372472,0.412452 0.204862,0 0.372473,-0.185601 0.372473,-0.412452 z m 1.489892,-0.412446 c 0,-0.226848 -0.25142,-0.412451 -0.55871,-0.412451 -0.30729,0 -0.55871,0.185603 -0.55871,0.412451 0,0.22685 0.25142,0.412452 0.55871,0.412452 0.30729,0 0.55871,-0.185602 0.55871,-0.412452 z m -6.89075,-0.412451 c 0.126611,-0.226851 0.06259,-0.412452 -0.142272,-0.412452 -0.204861,0 -0.476062,0.185601 -0.602673,0.412452 -0.126611,0.226847 -0.06259,0.412451 0.142275,0.412451 0.204858,0 0.476059,-0.185604 0.60267,-0.412451 z m 7.910838,-0.603084 c -0.18815,-1.555762 -0.647615,-1.76191 -0.647615,-0.290562 0,0.718355 0.173344,1.306097 0.385215,1.306097 0.21187,0 0.329948,-0.45699 0.2624,-1.015535 z M 81.993097,41.09576 c -0.144436,-1.194329 -1.008618,-1.862664 -1.008618,-0.780041 0,0.359179 0.162353,0.653049 0.360783,0.653049 0.198427,0 0.264303,0.278406 0.146386,0.618679 -0.117922,0.340272 -0.02313,0.618679 0.210667,0.618679 0.246432,0 0.368633,-0.466633 0.290782,-1.110366 z m 4.392235,0.697914 c -0.12661,-0.22685 -0.38792,-0.412452 -0.58069,-0.412452 -0.19277,0 -0.350488,0.185602 -0.350488,0.412452 0,0.226847 0.26131,0.412452 0.580691,0.412452 0.319377,0 0.477097,-0.185605 0.350487,-0.412452 z M 79.494586,41.38122 c 0,-0.226851 -0.167613,-0.412454 -0.372472,-0.412454 -0.204862,0 -0.372473,0.185603 -0.372473,0.412454 0,0.226848 0.167611,0.412452 0.372473,0.412452 0.204859,0 0.372472,-0.185604 0.372472,-0.412452 z m 4.097203,-0.206228 c 0,-0.340271 -0.157721,-0.618678 -0.350491,-0.618678 -0.469681,0 -0.806069,0.644081 -0.508487,0.973604 0.419473,0.464497 0.858978,0.282895 0.858978,-0.354926 z m -3.16602,-0.206226 c 0.126611,-0.226848 0.0527,-0.412452 -0.164254,-0.412452 -0.21695,0 -0.394456,0.185604 -0.394456,0.412452 0,0.226849 0.07391,0.412454 0.164253,0.412454 0.09034,0 0.267846,-0.185605 0.394457,-0.412454 z m 5.571185,-0.383951 c 0.117868,-0.211176 0.04395,-0.500533 -0.164253,-0.64302 -0.208201,-0.142488 -0.378547,0.03029 -0.378547,0.383951 0,0.724483 0.223504,0.831158 0.5428,0.259069 z M 83.219316,39.73141 c 0,-0.22685 -0.167613,-0.412451 -0.372475,-0.412451 -0.204859,0 -0.372472,0.185601 -0.372472,0.412451 0,0.226848 0.167613,0.412453 0.372472,0.412453 0.204862,0 0.372475,-0.185605 0.372475,-0.412453 z m -3.352257,-0.824903 c 0,-0.22685 -0.177507,-0.412454 -0.394457,-0.412454 -0.21695,0 -0.290864,0.185604 -0.164253,0.412454 0.126611,0.226847 0.304117,0.412452 0.394456,0.412452 0.09034,0 0.164254,-0.185605 0.164254,-0.412452 z m 1.489892,-0.618679 c 0,-0.340273 -0.167613,-0.618679 -0.372472,-0.618679 -0.204862,0 -0.372475,0.278406 -0.372475,0.618679 0,0.340273 0.167613,0.618679 0.372475,0.618679 0.204859,0 0.372472,-0.278406 0.372472,-0.618679 z m 3.16602,0.206225 c 0.126611,-0.226848 0.0527,-0.412452 -0.164253,-0.412452 -0.21695,0 -0.394457,0.185604 -0.394457,0.412452 0,0.22685 0.07391,0.412454 0.164254,0.412454 0.09034,0 0.267845,-0.185604 0.394456,-0.412454 z m -1.823564,-1.12565 c -0.378626,-0.419264 -0.69103,0.211958 -0.380378,0.768558 0.23467,0.420458 0.322406,0.420783 0.448569,0.0018 0.08627,-0.286569 0.05558,-0.633171 -0.06819,-0.770225 z m -8.046968,26.697685 c 0,-0.226849 0.167613,-0.412452 0.372472,-0.412452 0.204859,0 0.372473,0.185603 0.372473,0.412452 0,0.226849 -0.167614,0.412451 -0.372473,0.412451 -0.204859,0 -0.372472,-0.185602 -0.372472,-0.412451 z m 6.890747,0 c 0.126611,-0.226849 0.304118,-0.412452 0.394457,-0.412452 0.09034,0 0.164253,0.185603 0.164253,0.412452 0,0.226849 -0.177506,0.412451 -0.394457,0.412451 -0.21695,0 -0.290864,-0.185602 -0.164253,-0.412451 z M 73.907494,62.82873 c 0,-0.226848 0.167611,-0.412452 0.372472,-0.412452 0.204859,0 0.372473,0.185604 0.372473,0.412452 0,0.22685 -0.167614,0.412453 -0.372473,0.412453 -0.204861,0 -0.372472,-0.185603 -0.372472,-0.412453 z m 7.82193,0.02434 c 0,-0.21346 0.167613,-0.50282 0.372472,-0.64302 0.204862,-0.140202 0.372473,0.03444 0.372473,0.388108 0,0.353662 -0.167611,0.643022 -0.372473,0.643022 -0.204859,0 -0.372472,-0.174649 -0.372472,-0.38811 z m -8.487857,-1.687313 c -0.537126,-0.952381 -0.564314,-1.224186 -0.122463,-1.224186 0.299831,0 0.88306,1.682462 0.666396,1.922377 -0.05084,0.05631 -0.295617,-0.257882 -0.543933,-0.698183 z m 9.605274,0.01317 c 0,-0.226849 0.167614,-0.412452 0.372475,-0.412452 0.204859,0 0.372473,0.185603 0.372473,0.412452 0,0.22685 -0.167614,0.412452 -0.372473,0.412452 -0.204861,0 -0.372475,-0.185602 -0.372475,-0.412452 z m 0.744948,-1.467925 c 0,-0.353661 0.170346,-0.526437 0.378547,-0.383952 0.208201,0.142486 0.282117,0.431847 0.164253,0.643022 -0.319296,0.572088 -0.5428,0.465415 -0.5428,-0.25907 z M 72.417601,59.116661 c 0,-0.226848 0.167614,-0.412452 0.372473,-0.412452 0.204859,0 0.372472,0.185604 0.372472,0.412452 0,0.226849 -0.167613,0.412452 -0.372472,0.412452 -0.204859,0 -0.372473,-0.185603 -0.372473,-0.412452 z m 11.360423,-0.824904 c 0.126611,-0.226848 0.397814,-0.412453 0.602673,-0.412453 0.204859,0 0.268885,0.185605 0.142274,0.412453 -0.126611,0.226849 -0.397814,0.412452 -0.602673,0.412452 -0.204859,0 -0.268885,-0.185603 -0.142274,-0.412452 z M 71.99857,58.154275 c -0.02559,-0.151234 -0.07008,-0.414172 -0.09882,-0.584309 -0.02876,-0.170136 -0.178144,-0.52852 -0.331989,-0.796403 -0.153849,-0.267888 -0.127261,-0.591413 0.05908,-0.718942 0.368495,-0.252186 0.956942,1.778143 0.622649,2.148324 -0.1124,0.124461 -0.225317,0.102561 -0.250923,-0.04867 z m 12.710636,-1.099873 c 0,-0.22685 0.167614,-0.412452 0.372473,-0.412452 0.204861,0 0.372475,0.185602 0.372475,0.412452 0,0.226848 -0.167614,0.41245 -0.372475,0.41245 -0.204859,0 -0.372473,-0.185602 -0.372473,-0.41245 z m 0.55871,-1.237357 c 0.126611,-0.226849 0.397812,-0.412452 0.602673,-0.412452 0.204859,0 0.268883,0.185603 0.142272,0.412452 -0.126611,0.226848 -0.397811,0.412452 -0.60267,0.412452 -0.204862,0 -0.268886,-0.185604 -0.142275,-0.412452 z M 70.983581,55.012763 c 0.160054,-0.531709 0.670938,-0.627217 0.71701,-0.134047 0.01537,0.164465 -0.173202,0.373269 -0.419031,0.464009 -0.245833,0.09074 -0.379923,-0.05775 -0.297979,-0.329962 z m 15.02928,-0.433075 c 0.126611,-0.226849 0.304121,-0.412452 0.394461,-0.412452 0.0903,0 0.16425,0.185603 0.16425,0.412452 0,0.226849 -0.17751,0.412453 -0.39446,0.412453 -0.216948,0 -0.290862,-0.185604 -0.164251,-0.412453 z m 0.754201,-0.808311 c -0.31587,-0.565966 -0.0362,-0.990855 0.51424,-0.781349 0.22544,0.08581 0.25426,0.376985 0.0698,0.705676 -0.2328,0.414918 -0.38381,0.434481 -0.58408,0.07567 z M 70.819089,53.497022 c -0.290671,-0.321869 0.109823,-1.392046 0.520944,-1.392046 0.425592,0 0.435205,1.118467 0.01209,1.408029 -0.176287,0.120642 -0.416155,0.113453 -0.533045,-0.01596 z m 16.683663,-1.392046 c 0.12661,-0.226849 0.39781,-0.412452 0.60267,-0.412452 0.20486,0 0.26889,0.185603 0.14228,0.412452 -0.12661,0.226848 -0.39782,0.412452 -0.60267,0.412452 -0.20487,0 -0.26889,-0.185604 -0.14228,-0.412452 z M 70.793425,51.406343 c -0.419471,-0.4645 -0.255474,-0.951176 0.320521,-0.951176 0.30729,0 0.55871,0.174648 0.55871,0.388109 0,0.520094 -0.581652,0.892588 -0.879231,0.563067 z m 17.454277,-0.538724 c 0.12661,-0.226849 0.39781,-0.412452 0.60267,-0.412452 0.20486,0 0.26888,0.185603 0.14227,0.412452 -0.12661,0.226848 -0.39781,0.412452 -0.60267,0.412452 -0.20486,0 -0.26888,-0.185604 -0.14227,-0.412452 z M 70.780254,47.283141 c 0.204232,-2.854762 0.358081,-3.427208 0.921088,-3.427208 0.282488,0 0.331153,0.379532 0.145436,1.134243 -0.153511,0.623832 -0.320669,1.869782 -0.371467,2.768774 -0.05079,0.898994 -0.26653,1.698824 -0.479414,1.777401 -0.25082,0.09258 -0.326721,-0.700525 -0.215643,-2.25321 z m 18.026158,1.934669 c 0,-0.226849 0.16761,-0.412452 0.37247,-0.412452 0.20486,0 0.37247,0.185603 0.37247,0.412452 0,0.226848 -0.16761,0.412452 -0.37247,0.412452 -0.20486,0 -0.37247,-0.185604 -0.37247,-0.412452 z m 0.74494,-1.41924 c 0,-0.353661 0.16761,-0.64302 0.37248,-0.64302 0.20486,0 0.37247,0.174648 0.37247,0.388108 0,0.213461 -0.16761,0.502822 -0.37247,0.643022 -0.20487,0.140201 -0.37248,-0.03444 -0.37248,-0.38811 z m 0.57838,-1.432697 c -0.11994,-0.214877 -0.0593,-0.499337 0.13476,-0.632134 0.19404,-0.132801 0.45093,-0.06564 0.57086,0.149227 0.11992,0.214874 0.0593,0.499335 -0.13477,0.632133 -0.19404,0.1328 -0.45093,0.06565 -0.57085,-0.149226 z m 0.16657,-1.685037 c 0,-0.22685 0.16761,-0.412451 0.37247,-0.412451 0.20486,0 0.37247,0.185601 0.37247,0.412451 0,0.226848 -0.16761,0.412453 -0.37247,0.412453 -0.20486,0 -0.37247,-0.185605 -0.37247,-0.412453 z M 72.045129,42.991553 c 0,-0.35924 0.622361,-1.79655 1.396772,-3.225772 0.05122,-0.09452 0.1832,-0.0721 0.293301,0.04982 0.264732,0.293143 -0.6067,2.390527 -0.993227,2.390527 -0.165547,0 -0.204515,0.278403 -0.0866,0.618679 0.117919,0.340273 0.02887,0.618676 -0.197924,0.618676 -0.226783,0 -0.412324,-0.203364 -0.412324,-0.451926 z m 18.623643,-0.166751 c 0,-0.340276 0.16761,-0.618678 0.37247,-0.618678 0.20486,0 0.37248,0.278402 0.37248,0.618678 0,0.340274 -0.16762,0.618677 -0.37248,0.618677 -0.20486,0 -0.37247,-0.278403 -0.37247,-0.618677 z m -0.37247,-1.856036 c 0,-0.226848 0.16761,-0.412452 0.37247,-0.412452 0.20486,0 0.37247,0.185604 0.37247,0.412452 0,0.226849 -0.16761,0.412454 -0.37247,0.412454 -0.20486,0 -0.37247,-0.185605 -0.37247,-0.412454 z m -0.55871,-2.474713 c -0.13499,-0.680545 -0.39972,-1.237355 -0.58831,-1.237355 -0.18858,0 -0.34287,-0.278407 -0.34287,-0.618679 0,-1.042364 0.52534,-0.672615 1.21053,0.852004 0.73003,1.624387 0.81507,2.241387 0.30896,2.241387 -0.18859,0 -0.45333,-0.55681 -0.58831,-1.237357 z m -15.818256,0.04547 c -0.01188,-0.574506 1.019686,-1.657544 1.602203,-1.68216 0.17072,-0.0072 0.250336,0.186407 0.176927,0.430267 -0.07341,0.243864 -0.247774,0.383066 -0.387477,0.309339 -0.139708,-0.07373 -0.507315,0.237161 -0.816909,0.690859 -0.377097,0.552623 -0.566806,0.635704 -0.574744,0.251695 z m 2.09681,-2.000127 c -0.13194,-0.236403 0.168958,-0.726466 0.668668,-1.089035 0.503084,-0.365013 1.003054,-0.489901 1.120294,-0.279838 0.116459,0.20865 0.04139,0.495948 -0.166812,0.638434 -0.208201,0.142486 -0.378547,0.119839 -0.378547,-0.05033 0,-0.17017 -0.225835,0.03258 -0.501857,0.450592 -0.308599,0.467337 -0.594227,0.59448 -0.741746,0.330177 z m 11.878746,-0.89728 c -0.11993,-0.214876 -0.0593,-0.499335 0.13476,-0.632132 0.19405,-0.132801 0.45093,-0.06565 0.57086,0.149224 0.11993,0.214876 0.0593,0.499336 -0.13476,0.632133 -0.19405,0.132802 -0.45094,0.06565 -0.57086,-0.149225 z m -9.517726,-1.066359 c 0,-0.340273 0.167614,-0.618676 0.372475,-0.618676 0.204859,0 0.372473,0.278403 0.372473,0.618676 0,0.340276 -0.167614,0.61868 -0.372473,0.61868 -0.204861,0 -0.372475,-0.278404 -0.372475,-0.61868 z m 8.566876,-0.206224 c 0,-0.226851 0.16761,-0.412452 0.37247,-0.412452 0.20487,0 0.37248,0.185601 0.37248,0.412452 0,0.226847 -0.16761,0.412451 -0.37248,0.412451 -0.20486,0 -0.37247,-0.185604 -0.37247,-0.412451 z m -7.449456,-0.618679 c 0,-0.340272 0.167614,-0.618679 0.372473,-0.618679 0.204861,0 0.372472,0.278407 0.372472,0.618679 0,0.340272 -0.167611,0.618679 -0.372472,0.618679 -0.204859,0 -0.372473,-0.278407 -0.372473,-0.618679 z m 6.33204,-0.436795 c 0,-0.353663 0.167611,-0.528309 0.372476,-0.388109 0.20486,0.140201 0.37247,0.429559 0.37247,0.64302 0,0.213461 -0.16761,0.388111 -0.37247,0.388111 -0.204865,0 -0.372476,-0.289361 -0.372476,-0.643022 z m -4.842147,-0.105983 c 0,-0.421383 1.53053,-0.993284 1.81506,-0.67822 0.237003,0.262441 7.94e-4,0.452303 -0.976998,0.785102 -0.462089,0.157284 -0.838062,0.109338 -0.838062,-0.10688 z m 3.724727,-0.30647 c 0,-0.353662 0.170347,-0.526436 0.378548,-0.38395 0.208203,0.142489 0.282119,0.431844 0.164253,0.64302 -0.319294,0.572089 -0.542801,0.465414 -0.542801,-0.25907 z m -1.48989,-0.15754 c 0,-0.21346 0.167611,-0.502821 0.372473,-0.643022 0.204859,-0.140201 0.372472,0.03444 0.372472,0.388111 0,0.353661 -0.167613,0.64302 -0.372472,0.64302 -0.204862,0 -0.372473,-0.174648 -0.372473,-0.388109 z m -69.722665,35.117555 1.169062,-2.428816 -1.015007,-2.230054 c -0.558255,-1.22653 -1.1725,-2.355561 -1.364987,-2.508955 -0.192486,-0.153395 -0.324171,-1.406219 -0.29263,-2.784051 0.03155,-1.377834 -0.08273,-2.505153 -0.253944,-2.505153 -0.171215,0 -1.038302,0.714408 -1.926862,1.587569 -1.568837,1.54166 -1.619661,1.669883 -1.757368,4.433861 -0.08506,1.707354 0.0951,3.970566 0.450241,5.655936 0.325624,1.545306 0.592046,3.324005 0.592046,3.952669 0,0.628661 0.107254,1.261787 0.238345,1.406945 0.496514,0.549808 3.038899,-2.248487 4.161104,-4.579951 z m -3.79002,1.770204 c -0.129732,-0.374367 0.0011,-0.616312 0.333445,-0.616312 0.602431,0 0.739478,0.644507 0.213576,1.00442 -0.183394,0.12551 -0.429554,-0.04914 -0.547021,-0.388108 z M 9.595422,67.958564 c -0.132802,-0.383231 -0.04781,-1.289787 0.18887,-2.014574 0.23668,-0.724785 0.431431,-1.675822 0.432783,-2.113413 0.003,-0.949336 1.259138,-3.179425 1.586672,-2.81674 0.126167,0.139711 0.06828,0.558816 -0.12863,0.931343 -0.782406,1.480179 -1.712448,5.389 -1.371941,5.766056 0.216787,0.240056 0.194554,0.491846 -0.05873,0.665187 -0.224158,0.153408 -0.516218,-0.03465 -0.649023,-0.417859 z m 2.10909,-3.273799 c 0,-0.340273 0.167613,-0.618678 0.372473,-0.618678 0.20486,0 0.372473,0.278405 0.372473,0.618678 0,0.340274 -0.167613,0.618679 -0.372473,0.618679 -0.20486,0 -0.372473,-0.278405 -0.372473,-0.618679 z M 8.554401,59.970067 c -0.117865,-0.211176 -0.04395,-0.500536 0.164253,-0.643022 0.208201,-0.142486 0.378548,0.0303 0.378548,0.383952 0,0.724484 -0.223502,0.831157 -0.542801,0.25907 z m 19.725156,11.932612 c -0.126611,-0.226849 -0.429826,-0.409611 -0.673811,-0.406138 -0.266545,0.0038 -0.220605,0.165901 0.115101,0.406138 0.715566,0.512071 0.844512,0.512071 0.55871,0 z m 46.540495,-1.617712 c -0.551344,-0.592644 -3.147396,-1.020844 -3.147396,-0.519137 0,0.436328 0.937308,0.741679 2.588686,0.843323 0.563809,0.03469 0.777327,-0.08919 0.55871,-0.324186 z M 22.370531,69.219198 c -1.350602,-0.779991 -1.758072,-0.772188 -0.817414,0.01568 0.39766,0.333061 0.984304,0.604421 1.303655,0.603022 0.319351,-0.0012 0.100542,-0.279802 -0.486241,-0.618678 z m 47.097752,-0.203685 c 0.392962,0 0.714481,-0.185603 0.714481,-0.412452 0,-0.226848 -0.896721,-0.412452 -1.992715,-0.412452 -1.623949,0 -2.278774,-0.229459 -3.538493,-1.239942 -1.821092,-1.460786 -2.05392,-1.247751 -0.370009,0.338552 1.328169,1.251178 3.234328,2.162558 3.976198,1.901112 0.272828,-0.09615 0.817571,-0.174818 1.210538,-0.174818 z M 18.962761,67.203264 c -2.442766,-1.840959 -3.98508,-3.705969 -5.15251,-6.230568 -1.112964,-2.406815 -1.307753,-1.924713 -0.287371,0.711249 0.385521,0.995919 1.302739,2.439316 2.038262,3.207542 1.574014,1.644006 4.278231,3.711574 4.854443,3.711574 0.222515,0 -0.431257,-0.629909 -1.452824,-1.399797 z M 61.802123,65.68318 c 0.53946,-0.280385 0.198631,-0.345242 -1.235583,-0.235118 -1.620641,0.12444 -2.220806,-0.0285 -3.302812,-0.841563 -1.629185,-1.224261 -2.179339,-0.837831 -0.74858,0.525806 0.798734,0.761259 1.457219,0.989209 2.79355,0.967051 0.961662,-0.01592 2.083705,-0.203223 2.493425,-0.416176 z m 9.721986,0.100247 c -0.278763,-0.499463 -3.576183,-0.5648 -3.576183,-0.07086 0,0.228683 0.847958,0.415784 1.884347,0.415784 1.036391,0 1.797716,-0.155214 1.691836,-0.34492 z M 60.05591,63.95824 c 0.07389,-0.42488 -0.103917,-0.717057 -0.43638,-0.717057 -0.308594,0 -1.179142,-0.835216 -1.93454,-1.856034 -1.467914,-1.983665 -2.576177,-2.369753 -2.959857,-1.031131 -0.13004,0.453697 -0.410689,0.824903 -0.62366,0.824903 -0.212974,0 -0.294899,-0.266414 -0.182062,-0.592028 0.112842,-0.325619 0.0168,-0.661553 -0.213397,-0.746526 -0.238514,-0.08804 -0.308274,-0.472745 -0.162172,-0.894346 0.141015,-0.406921 0.464492,-0.645598 0.718839,-0.530401 0.254347,0.115199 0.71387,0.319037 1.021162,0.452972 0.369305,0.160968 0.854588,-0.263016 1.431504,-1.250679 l 0.872803,-1.494199 -0.779683,-1.167762 c -0.968044,-1.449889 -0.96988,-1.851556 -0.01744,-3.81932 l 0.762233,-1.574805 -0.964171,-1.821818 c -0.530309,-1.001997 -1.111019,-1.821817 -1.290492,-1.821817 -0.179469,0 -0.570756,-0.103868 -0.869524,-0.230824 -0.361412,-0.153572 -0.623308,0.122511 -0.782505,0.824905 -0.131609,0.580649 -0.493411,1.055728 -0.804008,1.055728 -0.443404,0 -0.481671,-0.171828 -0.178133,-0.799872 0.243578,-0.503981 0.254444,-0.890307 0.02939,-1.044343 -0.457893,-0.313362 -0.07258,-1.457329 0.488167,-1.449322 0.234153,0.0033 0.844772,0.245388 1.356921,0.53787 0.883094,0.504329 1.036968,0.406216 2.979787,-1.900018 l 2.0486,-2.431808 -0.130611,-2.533656 c -0.126966,-2.462908 -0.148389,-2.50934 -0.767379,-1.66287 -0.511503,0.699478 -1.150186,0.902906 -3.246586,1.034081 -2.080101,0.130148 -2.844054,0.37071 -3.76388,1.185211 -1.398043,1.237946 -1.453613,1.869015 -1.296213,14.720849 l 0.107154,8.749512 1.208072,0.369368 c 0.664435,0.203152 1.743612,0.282331 2.398164,0.175951 0.900227,-0.146309 1.620354,0.122156 2.956515,1.102189 1.889758,1.386074 2.822861,1.49011 3.023392,0.337097 z m -8.294653,-3.16327 c -0.117864,-0.211175 -0.04395,-0.500535 0.164254,-0.64302 0.208203,-0.142486 0.37855,0.03027 0.37855,0.383951 0,0.724486 -0.223507,0.831157 -0.542804,0.259069 z m 3.029604,-4.318316 c -0.120687,-0.348255 -0.07072,-0.734965 0.11104,-0.859356 0.487027,-0.333306 0.899988,0.61598 0.473438,1.088313 -0.238422,0.264014 -0.441167,0.184597 -0.584478,-0.228957 z m -3.029604,-1.043562 c -0.117864,-0.211175 -0.04395,-0.500535 0.164254,-0.64302 0.208203,-0.142486 0.37855,0.03028 0.37855,0.383951 0,0.724485 -0.223507,0.831156 -0.542804,0.259069 z m 1.498079,-2.337527 c -0.329589,-1.454128 0.284324,-2.151574 1.099407,-1.248999 0.336976,0.37314 0.766784,0.572982 0.955128,0.444083 0.188343,-0.128896 0.342444,-0.03783 0.342444,0.202435 0,0.240237 -0.19632,0.436795 -0.436263,0.436795 -0.239943,0 -0.722659,0.287009 -1.072706,0.637796 -0.583244,0.584481 -0.657471,0.545018 -0.88801,-0.47211 z m -1.700223,-3.465303 c 0,-0.226849 0.177506,-0.412452 0.394457,-0.412452 0.21695,0 0.290864,0.185603 0.164253,0.412452 -0.126611,0.226849 -0.304117,0.412453 -0.394457,0.412453 -0.09034,0 -0.164253,-0.185604 -0.164253,-0.412453 z m 2.829512,-0.348015 c -0.128894,-0.230941 -0.05285,-0.544102 0.168976,-0.695918 0.57267,-0.391916 0.942161,0.144916 0.464095,0.674293 -0.267501,0.296215 -0.475842,0.303329 -0.633071,0.02162 z m -2.829512,-6.25122 c 0,-0.226848 0.167613,-0.412452 0.372472,-0.412452 0.204862,0 0.372476,0.185604 0.372476,0.412452 0,0.22685 -0.167614,0.412452 -0.372476,0.412452 -0.204859,0 -0.372472,-0.185602 -0.372472,-0.412452 z m 3.547753,-1.220763 c -0.315878,-0.565967 -0.03624,-0.990855 0.514231,-0.781349 0.225443,0.08581 0.254262,0.376986 0.06984,0.705677 -0.232799,0.414916 -0.383808,0.434482 -0.584071,0.07568 z m 15.44837,22.718776 c 0,-0.199071 -0.25142,-0.593004 -0.55871,-0.875405 -0.466783,-0.428979 -0.558707,-0.369425 -0.558707,0.361951 0,0.503173 0.237569,0.875406 0.558707,0.875406 0.30729,0 0.55871,-0.162877 0.55871,-0.361952 z M 61.050823,53.032992 c -0.112202,-6.29505 -0.267044,-12.187962 -0.344101,-13.095353 -0.07706,-0.907396 -0.155438,-2.438624 -0.174181,-3.402732 -0.01878,-0.965655 -0.21618,-1.752923 -0.439547,-1.752923 -0.272584,0 -0.328371,0.77728 -0.170217,2.371601 0.234154,2.360441 0.558917,15.639751 0.569918,23.303546 0.0034,2.44222 0.154281,4.021408 0.383953,4.021408 0.251735,0 0.30997,-3.82671 0.174175,-11.445547 z M 23.623645,63.204645 c -1.431506,-1.296095 -3.789409,-2.422102 -5.028384,-2.401277 -0.93018,0.01563 -0.823895,0.106271 0.634292,0.540927 0.963438,0.287182 2.388147,1.005913 3.166019,1.597176 1.681242,1.277929 2.55585,1.465355 1.228073,0.263174 z m 30.542778,0.414678 c 0.748496,-0.293022 0.626237,-0.333949 -0.623176,-0.208614 -1.188828,0.119253 -1.867675,-0.07984 -2.886665,-0.846575 -1.365393,-1.027392 -1.850572,-0.775649 -0.680479,0.353077 1.193083,1.150905 2.489179,1.368074 4.19032,0.702112 z m 14.898921,0.03432 c 0,-0.226849 -0.251418,-0.412452 -0.558708,-0.412452 -0.30729,0 -0.55871,0.185603 -0.55871,0.412452 0,0.226848 0.25142,0.412452 0.55871,0.412452 0.30729,0 0.558708,-0.185604 0.558708,-0.412452 z m -9.129991,-5.331962 -0.250259,-1.847971 -0.70245,1.012136 c -0.85489,1.231784 -0.890955,1.784248 -0.160306,2.45572 0.30729,0.282402 0.55871,0.783378 0.55871,1.113277 0,0.357965 -0.375467,0.105718 -0.931182,-0.625607 -0.512152,-0.673987 -0.931183,-1.341525 -0.931183,-1.483425 0,-0.141895 0.42662,-1.006341 0.948045,-1.920987 l 0.948044,-1.662995 -0.948044,-1.247623 c -1.15057,-1.514136 -1.152994,-1.57744 -0.133599,-3.490623 l 0.814446,-1.528548 -0.814446,-1.567021 c -1.06353,-2.04626 -1.035111,-2.349582 0.370634,-3.955605 0.65179,-0.744662 1.102275,-1.445619 1.001069,-1.557684 -0.101206,-0.112069 -0.925579,0.632946 -1.831935,1.655583 l -1.647931,1.859342 1.045051,2.058653 1.045054,2.058647 -0.770665,1.380807 c -0.9652,1.72935 -0.961792,2.096247 0.03386,3.644593 0.653809,1.016739 0.723588,1.395696 0.372472,2.022818 -0.23763,0.424424 -0.637886,1.139154 -0.889447,1.588282 -0.403426,0.720261 -0.260612,1.039247 1.210541,2.703834 l 1.667925,1.887233 0.122925,-1.352434 c 0.06761,-0.743837 0.01032,-2.184018 -0.127333,-3.200402 z m 9.502466,3.864028 c 0,-0.35366 -0.167614,-0.528309 -0.372475,-0.388108 -0.204859,0.1402 -0.372473,0.42956 -0.372473,0.64302 0,0.213461 0.167614,0.388109 0.372473,0.388109 0.204861,0 0.372475,-0.289359 0.372475,-0.643021 z M 43.420465,60.355305 c -1.096061,-0.436622 -2.227447,-1.009461 -2.514192,-1.27298 -0.318636,-0.292829 -0.521347,-0.315872 -0.521347,-0.05927 0,0.597346 2.987103,2.158011 4.097202,2.140663 0.644411,-0.01008 0.31746,-0.259036 -1.061663,-0.808413 z m 3.2965,0.424108 c 0,-0.219726 -0.251417,-0.292673 -0.55871,-0.162098 -0.307289,0.130578 -0.558707,0.310353 -0.558707,0.399509 0,0.08915 0.251418,0.162097 0.558707,0.162097 0.307293,0 0.55871,-0.179779 0.55871,-0.399508 z m 3.05798,-10.220916 C 49.715525,44.943874 49.590997,40.10632 49.49822,39.808381 c -0.09278,-0.297938 -0.353454,-0.415257 -0.579284,-0.260706 -0.288136,0.197196 -0.362672,3.259443 -0.249904,10.267474 0.149746,9.305748 0.293449,10.950975 0.956583,10.95154 0.141554,1.19e-4 0.208751,-4.593567 0.14933,-10.208192 z m -2.680533,9.383069 h 1.061461 l -0.06762,-4.433861 -0.06763,-4.433861 -1.355482,0.0904 c -0.745514,0.04973 -2.153282,0.560136 -3.128377,1.134244 -0.975093,0.574113 -2.163099,1.043838 -2.640017,1.043838 -0.941328,0 -2.070431,-1.538545 -2.221614,-3.027233 -0.04977,-0.490084 -0.107023,-0.983864 -0.127233,-1.097289 -0.111701,-0.626948 -0.759767,1.208444 -0.764579,2.165375 -0.0047,0.935507 -0.170101,1.134242 -0.943981,1.134242 -0.803424,0 -0.906156,-0.141734 -0.714764,-0.986135 0.246532,-1.087694 -0.476665,-1.928552 -0.770661,-0.89604 -0.614175,2.156971 -0.512538,2.053657 -1.271813,1.292774 -0.46038,-0.461361 -0.784398,-0.550838 -0.946021,-0.261256 -0.163937,0.293728 -0.470121,0.307512 -0.919185,0.04138 -0.370354,-0.219481 -0.775225,-0.28627 -0.899713,-0.14842 -0.302079,0.334502 -3.549376,0.322274 -3.853519,-0.01452 -0.440419,-0.487693 0.06022,-0.616378 2.98422,-0.767055 1.847317,-0.0952 3.014114,-0.344108 3.203483,-0.6834 0.228259,-0.408975 0.356516,-0.364388 0.548917,0.190821 0.229093,0.661082 0.300675,0.646061 0.817902,-0.171642 0.830358,-1.31274 1.642013,-1.144072 1.642013,0.341231 0,0.680545 0.167613,1.237355 0.372473,1.237355 0.20486,0 0.372473,-0.534084 0.372473,-1.186856 0,-1.351329 0.751841,-2.242212 1.591242,-1.885532 0.312534,0.132805 0.679279,0.04252 0.814985,-0.200625 0.288913,-0.517649 2.117963,-0.11719 2.523337,0.552467 0.386325,0.638195 0.357533,0.811298 -0.285065,1.713696 -0.550671,0.773308 -0.566554,0.765447 -0.465591,-0.230505 0.08538,-0.8422 -0.07443,-1.054114 -0.872186,-1.156559 -1.170105,-0.150256 -1.642494,0.81643 -0.976248,1.997767 0.628589,1.114569 2.352338,1.018542 4.187801,-0.233292 0.83466,-0.569258 2.063221,-1.0173 2.793548,-1.018781 l 1.303655,-0.0024 v -5.343387 -5.343392 l -0.931183,0.246788 c -1.430361,0.379085 -3.724728,1.74599 -3.724728,2.219069 0,0.258241 -0.497874,0.319332 -1.279378,0.156983 -1.614074,-0.335301 -3.572756,0.366643 -4.68664,1.679585 -0.761193,0.897217 -1.080417,0.988138 -2.755201,0.784732 -1.774975,-0.215574 -1.985157,-0.13868 -3.33773,1.221068 -1.161638,1.167804 -1.64995,1.405402 -2.501017,1.216919 -1.708716,-0.378425 -3.502356,0.202233 -4.659868,1.508547 -0.593967,0.670322 -1.4679,1.223923 -1.942073,1.230225 -1.342482,0.01786 -4.638159,1.716141 -4.222815,2.176062 0.195764,0.21678 1.50377,0.476836 2.906678,0.577902 1.533054,0.110434 2.768349,0.422792 3.096151,0.782884 0.444293,0.488059 0.450853,0.599133 0.03538,0.599133 -0.805666,0 0.707002,1.668941 2.107668,2.325412 0.659214,0.308965 1.581084,0.541876 2.048601,0.517583 0.518468,-0.02693 0.268881,-0.192397 -0.639864,-0.424175 -1.611444,-0.411003 -3.498839,-1.775313 -3.086951,-2.231407 0.139797,-0.154801 0.701731,0.108375 1.248749,0.584845 0.789706,0.687859 1.484841,0.85816 3.374701,0.826764 2.229925,-0.03704 2.473381,0.05375 3.857799,1.438741 1.725414,1.72612 3.049618,2.200073 4.334989,1.551559 1.152956,-0.581711 3.219637,-0.603081 3.72943,-0.03857 0.606665,0.671782 3.994492,2.031682 4.543566,1.823824 0.27283,-0.103448 0.973711,-0.187959 1.557517,-0.187959 z m -1.661438,-1.614581 c -0.11993,-0.214875 -0.05929,-0.499336 0.13476,-0.632134 0.194049,-0.1328 0.450935,-0.06565 0.57086,0.149226 0.119928,0.214876 0.05929,0.499336 -0.13476,0.632133 -0.194048,0.132801 -0.450935,0.06565 -0.57086,-0.149225 z m -8.772777,-2.09749 c 0,-0.226848 0.167613,-0.41245 0.372473,-0.41245 0.20486,0 0.372473,0.185602 0.372473,0.41245 0,0.226851 -0.167613,0.412453 -0.372473,0.412453 -0.20486,0 -0.372473,-0.185602 -0.372473,-0.412453 z m 4.469675,-0.824902 c 0,-0.226849 0.261312,-0.412452 0.580693,-0.412452 0.31938,0 0.4771,0.185603 0.350489,0.412452 -0.126611,0.226848 -0.387922,0.412452 -0.580692,0.412452 -0.19277,0 -0.35049,-0.185604 -0.35049,-0.412452 z m -8.164997,-1.065501 c 0.01788,-0.480486 0.106132,-0.578217 0.225033,-0.249192 0.1076,0.297737 0.09437,0.653478 -0.02939,0.790536 -0.123769,0.137054 -0.211803,-0.106559 -0.19563,-0.541344 z m 12.262198,0.05871 c 0,-0.326885 0.167613,-0.709045 0.372475,-0.849246 0.204859,-0.140201 0.372472,0.127249 0.372472,0.594335 0,0.467085 -0.167613,0.849247 -0.372472,0.849247 -0.204862,0 -0.372475,-0.267451 -0.372475,-0.594336 z m -17.61634,-0.09418 c -0.266813,-0.478049 0.35496,-1.652551 0.682713,-1.289617 0.132348,0.146552 0.08085,0.582617 -0.114438,0.969035 -0.195291,0.386418 -0.451013,0.530682 -0.568275,0.320582 z m -3.392412,-3.371566 c -0.128895,-0.230941 -0.05285,-0.544103 0.168976,-0.695918 0.572669,-0.391916 0.942159,0.144915 0.464094,0.674292 -0.267503,0.296216 -0.475846,0.30333 -0.63307,0.02162 z m 3.874999,-1.920472 c 0,-0.340274 0.167613,-0.618678 0.372473,-0.618678 0.20486,0 0.372473,0.278404 0.372473,0.618678 0,0.340273 -0.167613,0.618678 -0.372473,0.618678 -0.20486,0 -0.372473,-0.278405 -0.372473,-0.618678 z m 7.076986,-1.188675 c 0,-0.340273 0.167613,-0.733385 0.372473,-0.873586 0.20486,-0.1402 0.372473,0.02351 0.372473,0.36377 0,0.340273 -0.167613,0.733387 -0.372473,0.873587 -0.20486,0.140201 -0.372473,-0.02351 -0.372473,-0.363771 z m -2.607311,-0.230565 c 0,-0.21346 0.167613,-0.50282 0.372473,-0.643021 0.20486,-0.1402 0.372473,0.03444 0.372473,0.38811 0,0.35366 -0.167613,0.64302 -0.372473,0.64302 -0.20486,0 -0.372473,-0.174649 -0.372473,-0.388109 z m 11.54666,-1.674152 c 0,-0.769911 0.09933,-0.879897 0.446969,-0.494941 0.347639,0.384951 0.347639,0.60493 0,0.989884 -0.347641,0.384954 -0.446969,0.27497 -0.446969,-0.494943 z m -4.469674,-0.618677 c 0,-0.340275 0.167612,-0.618679 0.372473,-0.618679 0.20486,0 0.372472,0.278404 0.372472,0.618679 0,0.340273 -0.167612,0.618677 -0.372472,0.618677 -0.204861,0 -0.372473,-0.278404 -0.372473,-0.618677 z m -1.117419,13.817146 c 0.481492,-0.344562 0.471659,-0.400693 -0.07113,-0.406138 -0.346415,-0.0034 -0.733436,0.17929 -0.860047,0.406138 -0.291341,0.522001 0.201742,0.522001 0.931182,0 z M 33.090644,57.690249 C 32.288286,56.90572 31.4642,56.258872 31.25934,56.2528 c -0.20486,-0.0061 0.297979,0.62885 1.117419,1.410929 0.81944,0.78208 1.643526,1.428928 1.831304,1.437444 0.187779,0.0085 -0.31506,-0.626399 -1.117419,-1.410924 z m 34.857282,1.01396 c 0,-0.226848 -0.177506,-0.412452 -0.394457,-0.412452 -0.21695,0 -0.290864,0.185604 -0.164253,0.412452 0.126611,0.226849 0.304117,0.412452 0.394457,0.412452 0.09034,0 0.164253,-0.185603 0.164253,-0.412452 z m 0,-1.237357 c 0,-0.226848 -0.157721,-0.412452 -0.350491,-0.412452 -0.192767,0 -0.45408,0.185604 -0.580691,0.412452 -0.126612,0.226849 0.0311,0.412452 0.35049,0.412452 0.319379,0 0.580692,-0.185603 0.580692,-0.412452 z m -7.985932,-5.642716 c -0.09398,-1.259344 -0.232198,-2.35763 -0.307163,-2.44064 -0.07496,-0.08302 -0.429191,0.584181 -0.78717,1.482645 -0.622667,1.56279 -0.621609,1.676804 0.02437,2.631067 0.963589,1.423425 1.265772,0.950907 1.069959,-1.673072 z m -37.921359,2.083135 c 1.475861,-0.437966 0.901523,-0.778206 -1.371359,-0.812402 -2.083788,-0.03135 -4.122616,-0.898689 -4.122616,-1.753804 0,-0.308779 2.631033,-1.739007 4.243632,-2.306834 1.160179,-0.408521 0.404156,-0.715703 -1.028818,-0.418024 -1.399299,0.290688 -4.704705,2.396111 -4.704705,2.996729 0,0.309744 2.569061,1.745721 4.097201,2.290133 0.808114,0.287894 1.925205,0.28952 2.886665,0.0042 z m 44.976109,-2.214748 c 0.126611,-0.226849 0.0527,-0.412452 -0.164254,-0.412452 -0.21695,0 -0.394456,0.185603 -0.394456,0.412452 0,0.226849 0.07391,0.412452 0.164253,0.412452 0.09034,0 0.267845,-0.185603 0.394457,-0.412452 z M 15.056769,50.067057 c 0,-0.21346 -0.177953,-0.509898 -0.395447,-0.658744 -1.145183,-0.783729 -1.504329,-5.125007 -0.664068,-8.027093 1.143977,-3.951045 4.384312,-6.625303 10.940729,-9.029421 8.060198,-2.955529 10.772695,-4.922759 10.529809,-7.636718 -0.127572,-1.425494 -1.396851,-2.032403 -2.811678,-1.344417 -1.260944,0.613154 -1.116834,1.609417 0.155332,1.073827 0.740942,-0.311941 1.070796,-0.283143 1.297953,0.11332 1.277679,2.229973 -1.212888,4.186843 -8.809626,6.921835 -7.652623,2.755112 -9.775152,4.395241 -11.599506,8.963205 -1.11946,2.802991 -1.15613,5.816818 -0.100162,8.232287 0.712664,1.630181 1.456664,2.341111 1.456664,1.391919 z m 52.146212,-1.261699 c 0,-0.453697 -0.177506,-0.824905 -0.394457,-0.824905 -0.21695,0 -0.289988,0.187176 -0.162306,0.415942 0.12768,0.228766 -0.155749,0.58821 -0.629848,0.798759 -0.845439,0.375471 -0.842325,0.38332 0.162308,0.408962 0.783855,0.02001 1.024303,-0.167493 1.024303,-0.798758 z M 24.256622,47.041906 c 0.510195,-0.508091 1.634203,-0.920544 2.979783,-1.093427 1.985557,-0.255114 2.065042,-0.303034 0.981262,-0.591571 -1.963908,-0.522859 -3.59563,0.05564 -4.775543,1.693107 -1.078443,1.496641 -0.692631,1.492796 0.814498,-0.0081 z m 35.55407,-1.084218 c -0.141446,-2.303326 -0.368835,-2.552285 -1.117949,-1.224011 -0.422712,0.749518 -0.398013,1.077222 0.169071,2.243255 0.365252,0.751034 0.757214,1.30184 0.871022,1.224014 0.113807,-0.07782 0.148844,-1.087293 0.07786,-2.243258 z m 8.019201,1.532979 c -0.118901,-0.329026 -0.207161,-0.231296 -0.225034,0.249191 -0.01617,0.434791 0.07186,0.678397 0.195631,0.541343 0.123769,-0.137057 0.136998,-0.492798 0.02939,-0.790534 z M 11.995082,45.402628 c -0.104352,-1.142154 0.127393,-2.674726 0.665106,-4.398529 0.974658,-3.124542 0.800445,-4.08315 -1.318163,-7.253244 -0.758027,-1.134244 -1.593457,-2.50955 -1.856509,-3.056231 -0.427182,-0.88779 -0.516031,-0.919265 -0.831713,-0.29462 -0.243627,0.482064 -0.124063,1.495674 0.384843,3.262454 0.406054,1.409712 0.829202,3.58393 0.940333,4.831595 0.111132,1.247668 0.27131,2.639693 0.355954,3.093392 0.574946,3.081709 0.628902,3.918295 0.252712,3.918295 -0.223126,0 -0.371896,-0.232003 -0.330607,-0.515564 0.04129,-0.283563 -0.02138,-0.79397 -0.139241,-1.134243 C 9.999924,43.515658 9.791063,42.402038 9.653662,41.38122 8.67325,34.097305 8.414627,32.719723 8.027583,32.719723 c -0.367903,0 -1.963685,4.806055 -2.174974,6.55043 -0.245053,2.023101 1.385216,5.034189 3.629149,6.70299 2.259495,1.680372 2.709632,1.578194 2.513324,-0.570515 z M 6.728081,39.85768 c -0.419472,-0.464498 -0.255476,-0.951173 0.32052,-0.951173 0.30729,0 0.558709,0.174646 0.558709,0.388108 0,0.520094 -0.58165,0.892589 -0.879229,0.563065 z m 4.231486,-1.957963 c 0,-0.353658 0.167612,-0.643019 0.372473,-0.643019 0.20486,0 0.372472,0.174649 0.372472,0.388107 0,0.213461 -0.167612,0.502823 -0.372472,0.643023 -0.204861,0.140201 -0.372473,-0.03444 -0.372473,-0.388111 z m 20.315089,6.753678 c 0.400882,-0.718263 -0.05569,-0.870373 -0.566553,-0.188753 -0.293788,0.391991 -0.322044,0.628647 -0.07506,0.628647 0.217852,0 0.506582,-0.197954 0.641613,-0.439894 z m 2.964468,-1.209916 c 0.12661,-0.226848 -0.041,-0.412452 -0.372473,-0.412452 -0.331472,0 -0.499084,0.185604 -0.372473,0.412452 0.126611,0.22685 0.294223,0.412454 0.372473,0.412454 0.07825,0 0.245861,-0.185604 0.372473,-0.412454 z m 2.801018,-0.628644 c 0.719755,-0.960343 0.206186,-1.141318 -0.564114,-0.198788 -0.371929,0.45509 -0.503166,0.827432 -0.291639,0.827432 0.211528,0 0.596616,-0.282889 0.855753,-0.628644 z M 21.011858,41.923173 c 2.248768,-1.344885 2.227999,-1.694372 -0.03319,-0.558343 -1.82746,0.918125 -4.789375,1.105499 -5.474941,0.34635 -0.333684,-0.369498 -0.554225,-0.376176 -0.870146,-0.02634 -0.315924,0.349833 -0.103514,0.570387 0.838065,0.870196 2.152003,0.685228 3.617363,0.518101 5.540202,-0.631861 z m 51.967499,-8.263097 c 1.152546,-1.433096 2.610352,-2.639873 4.359669,-3.608955 2.306481,-1.27774 2.969638,-1.455917 5.418664,-1.455917 2.377644,0 3.128039,0.188472 5.071462,1.273776 1.2545,0.700579 2.74185,1.756121 3.30521,2.34565 1.40791,1.473306 1.29826,0.559526 -0.1265,-1.054165 -1.67227,-1.894039 -4.7536,-3.435214 -7.106058,-3.55422 -2.156182,-0.109077 -5.729783,0.787109 -6.671384,1.673043 -0.323422,0.304297 -0.750898,0.55327 -0.949947,0.55327 -0.199054,0 -1.292426,0.918374 -2.429722,2.040831 -1.192969,1.177398 -2.209332,1.888874 -2.402311,1.681662 -0.591928,-0.63559 -3.986805,-0.66345 -4.176202,-0.03427 -0.134175,0.445743 0.188106,0.509367 1.540455,0.304111 0.994743,-0.150977 1.805585,-0.08854 1.938311,0.149271 0.125497,0.224855 0.384209,0.302047 0.574916,0.171535 0.635235,-0.434739 0.357253,0.497902 -0.363768,1.220453 -0.767403,0.769028 -2.029545,3.812066 -2.409304,5.808846 -0.129431,0.680548 0.423987,-0.247471 1.229813,-2.062259 0.805831,-1.814788 2.244341,-4.268488 3.196696,-5.452657 z m -27.659164,5.817269 c 0.358505,-0.140028 0.651827,-0.423318 0.651827,-0.629533 0,-0.206219 -0.502838,-0.087 -1.11742,0.264919 -1.059736,0.606834 -1.637032,1.368094 -0.651827,0.859544 0.256077,-0.132185 0.758915,-0.354903 1.11742,-0.49493 z m -16.8544,-2.518305 c 0.921871,-0.526847 1.257096,-0.837189 0.744946,-0.689649 -1.457915,0.419982 -3.535695,1.67848 -4.122121,2.496737 -0.484162,0.675567 -0.429896,0.670716 0.583628,-0.05219 0.614581,-0.438353 1.871677,-1.228062 2.793547,-1.754901 z m 20.397234,1.664077 c -0.356116,-0.103237 -1.026567,-0.10698 -1.48989,-0.0083 -0.463325,0.09865 -0.171958,0.18312 0.647483,0.1877 0.819441,0.0045 1.198526,-0.07614 0.842407,-0.179376 z m 1.764903,-0.129064 c 0.126611,-0.226848 0.0527,-0.412452 -0.164253,-0.412452 -0.21695,0 -0.394454,0.185604 -0.394454,0.412452 0,0.22685 0.07391,0.412454 0.164251,0.412454 0.09034,0 0.267845,-0.185604 0.394456,-0.412454 z m 1.530123,-1.24066 c 0.206499,-0.228664 1.622827,-0.575789 3.147396,-0.771392 l 2.771944,-0.355641 -2.607315,-0.04434 c -2.063171,-0.0351 -2.801644,0.123987 -3.538493,0.762225 -0.512148,0.443607 -0.755187,0.810688 -0.540083,0.81573 0.215101,0.0051 0.560049,-0.177913 0.766551,-0.406582 z m 10.80565,-3.465052 c 2.101979,-0.03262 2.288323,-0.09525 1.437309,-0.483042 -1.405319,-0.640372 -4.16359,-0.07528 -5.141048,1.053267 l -0.810098,0.935317 1.049372,-0.734029 c 0.706493,-0.494184 1.838507,-0.746278 3.464465,-0.771513 z m 3.887186,-0.889589 c 0.985057,-1.314314 2.644736,-1.925678 4.712275,-1.735817 2.640211,0.242449 2.928694,-0.365266 0.343199,-0.722974 -1.510419,-0.208972 -2.335099,-0.108049 -3.312073,0.405311 -1.368359,0.719027 -3.28993,2.699355 -2.619264,2.699355 0.215487,0 0.609627,-0.290641 0.875863,-0.645875 z M 20.42385,32.470777 c 0.513413,-0.218158 0.494149,-0.378053 -0.155772,-1.292976 -1.281165,-1.803558 -0.760322,-5.071587 1.170682,-7.345434 0.587107,-0.691345 1.067467,-1.419711 1.067467,-1.61859 0,-0.656945 -1.917681,1.608019 -2.783885,3.288035 -1.214459,2.355463 -1.414984,4.066682 -0.677279,5.779702 0.340645,0.791018 0.658409,1.438209 0.706142,1.438209 0.04773,0 0.350422,-0.112025 0.672645,-0.248946 z M 72.71444,31.94052 c 0.117901,-0.392127 0.01487,-0.465248 -0.326451,-0.231659 -0.274304,0.187723 -1.217919,0.292341 -2.096926,0.232485 -0.879007,-0.05985 -1.598192,0.06333 -1.598192,0.273747 0,0.639417 3.825285,0.378247 4.021569,-0.274573 z M 49.542091,31.538944 c -0.358251,-0.641875 -3.327733,-1.320102 -6.387292,-1.45885 -3.226815,-0.14633 -4.203837,-0.538303 -5.913484,-2.372419 -1.09373,-1.173359 -1.698536,-1.472265 -1.698536,-0.839447 0,0.467837 1.866987,2.347386 2.940651,2.960437 0.490625,0.280147 2.684349,0.66889 4.87494,0.863882 2.190592,0.194991 4.387166,0.533506 4.88128,0.752258 1.154161,0.510958 1.551094,0.53965 1.302441,0.09414 z m -4.688038,-3.25308 c 2.64e-4,-0.51041 0.168161,-0.928018 0.37302,-0.928018 0.204861,0 0.375041,-0.324806 0.378177,-0.721791 0.0068,-0.860035 0.616114,-2.026752 0.89639,-1.71639 0.108706,0.120374 -0.132917,1.182218 -0.536938,2.35965 -0.721175,2.101696 -0.721556,2.140792 -0.02074,2.140792 0.504635,0 0.788696,-0.392845 0.969288,-1.34047 0.385913,-2.025044 1.877557,-5.123578 3.974023,-8.255101 1.035447,-1.546659 1.819725,-2.861221 1.742834,-2.921253 -0.07689,-0.06003 -1.166699,-0.333312 -2.421805,-0.607288 -2.728492,-0.595592 -6.381751,-1.892009 -8.631473,-3.06301 -1.371486,-0.713869 -1.688758,-0.757708 -1.966604,-0.271738 -0.532815,0.931936 -0.402066,1.198131 0.588484,1.198131 0.512151,0 0.931183,0.17711 0.931183,0.393577 0,0.216467 -0.585468,0.310573 -1.301041,0.209122 -1.125944,-0.159625 -1.475484,0.02329 -2.597231,1.359347 -1.351559,1.609739 -1.819765,2.794811 -0.635193,1.607723 0.774755,-0.776403 1.566897,-0.94471 0.88323,-0.187661 -0.844254,0.934871 -0.446889,1.298577 0.42631,0.390197 0.533255,-0.554736 1.11337,-0.80644 1.489892,-0.646445 0.84186,0.357722 0.773906,0.947918 -0.228259,1.982497 -1.201772,1.240642 -3.017123,3.951071 -2.804203,4.186845 0.216843,0.240117 3.468013,-3.612922 4.030377,-4.776496 0.349062,-0.722233 0.467282,-0.750796 0.940166,-0.227158 0.297494,0.329427 0.540898,0.826583 0.540898,1.104796 0,0.334799 0.23062,0.274723 0.682053,-0.177665 0.375129,-0.375931 0.790112,-0.56385 0.922184,-0.417605 0.132067,0.146245 0.495593,0.03114 0.807833,-0.255826 0.668758,-0.614592 0.771977,0.01298 0.120745,0.73414 -0.248316,0.27497 -0.281426,0.494941 -0.0745,0.494941 0.204862,0 0.570815,-0.219628 0.813231,-0.488065 0.242422,-0.268442 0.539721,-0.378489 0.660673,-0.244555 0.297992,0.329977 -0.87893,2.794881 -1.334479,2.794881 -0.199599,0 -0.362908,0.283001 -0.362908,0.628887 0,0.345886 -0.442277,0.815088 -0.98284,1.042671 -0.540562,0.22758 -0.890143,0.516431 -0.776844,0.641886 0.113295,0.125458 0.555573,0.02092 0.982837,-0.232276 0.516065,-0.305836 0.776847,-0.317051 0.776847,-0.03341 0,0.234831 -0.185544,0.426963 -0.412323,0.426963 -0.226776,0 -0.321858,0.261059 -0.211285,0.580131 0.204532,0.590213 -0.882508,1.24569 -2.728647,1.645348 -0.512151,0.110873 -0.132373,0.141976 0.843949,0.06911 2.152428,-0.160628 2.713927,0.447565 0.749412,0.811736 -2.051182,0.38023 -2.307757,0.536428 -0.941533,0.573176 1.208789,0.0325 1.625497,0.595185 0.744945,1.005882 -0.256075,0.119437 0.246517,0.181303 1.116871,0.137484 1.37126,-0.06904 1.58254,-0.203531 1.583011,-1.007689 z m 1.49044,-4.227635 c 0,-0.226847 0.167613,-0.412451 0.372472,-0.412451 0.204862,0 0.372473,0.185604 0.372473,0.412451 0,0.226848 -0.167611,0.412452 -0.372473,0.412452 -0.204859,0 -0.372472,-0.185604 -0.372472,-0.412452 z m 0.372472,-1.237355 c 0,-0.22685 0.177507,-0.412454 0.394457,-0.412454 0.21695,0 0.307782,-0.155293 0.201845,-0.345092 -0.105933,-0.189803 0.195975,-1.164221 0.670904,-2.165377 0.474933,-1.001152 0.789165,-2.052282 0.698297,-2.335842 -0.229413,-0.715902 0.452395,-0.646588 1.01428,0.103112 0.255029,0.340272 0.297976,0.618679 0.09544,0.618679 -0.202541,0 -0.845865,1.113619 -1.429615,2.474713 -0.969961,2.261595 -1.645609,3.108308 -1.645608,2.062261 z m 0.170921,-5.801772 c -0.405746,-0.72698 0.02199,-0.828903 0.787453,-0.187641 0.630174,0.527928 0.640903,0.602899 0.08791,0.614419 -0.346413,0.0072 -0.740328,-0.184837 -0.875363,-0.426778 z m -1.288338,-0.61558 c 0,-0.353662 0.170347,-0.526436 0.378547,-0.383953 0.208201,0.142492 0.282118,0.431847 0.164254,0.643023 -0.319297,0.572086 -0.542801,0.465414 -0.542801,-0.25907 z m -1.955484,-0.248815 c -0.563365,-0.227843 -1.0243,-0.653728 -1.0243,-0.946409 0,-0.408127 0.300999,-0.376084 1.291523,0.137485 0.71034,0.368296 1.296985,0.808833 1.303655,0.978968 0.01513,0.385486 -0.274892,0.354096 -1.570878,-0.170044 z m -2.141719,-1.37665 c 0,-0.340273 0.167613,-0.618679 0.372473,-0.618679 0.20486,0 0.372473,0.278406 0.372473,0.618679 0,0.340272 -0.167613,0.618678 -0.372473,0.618678 -0.20486,0 -0.372473,-0.278406 -0.372473,-0.618678 z m -3.352256,10.541871 c 0,-0.769585 -0.829125,-0.9328 -1.419215,-0.27937 -0.555394,0.615008 -0.523302,0.667481 0.408215,0.667481 0.55605,0 1.011,-0.17465 1.011,-0.388111 z m 2.141894,-1.571038 c 0.09093,-0.302402 -0.16581,-0.515564 -0.620964,-0.515564 -0.45752,0 -0.775984,0.266315 -0.775984,0.648918 0,0.758039 1.162279,0.647083 1.396948,-0.133354 z m -2.934971,-3.174264 c 0.833863,-1.122011 1.421264,-2.142828 1.305339,-2.268488 -0.232539,-0.252056 -3.472129,3.689839 -3.484383,4.239767 -0.01501,0.672737 0.684001,0.04038 2.179044,-1.971279 z m 5.946221,1.006889 c 0.112989,-0.375351 -0.04368,-0.454023 -0.509748,-0.255978 -0.376499,0.159986 -0.788525,0.0787 -0.935447,-0.184535 -0.144575,-0.259037 -0.262575,-0.0018 -0.262575,0.572341 0,0.881874 0.119188,0.993983 0.772323,0.726438 0.424779,-0.174003 0.845729,-0.560223 0.935447,-0.858266 z m -9.250346,-0.564257 c 0,-0.981819 2.722088,-5.797364 4.459432,-7.889011 0.90144,-1.085277 1.872607,-3.3631964 1.872607,-4.392294 0,-0.775131 -0.678742,-0.286685 -0.888672,0.639519 -0.123471,0.5447391 -0.960387,1.990791 -1.859824,3.213453 -4.014744,5.457522 -5.424297,8.468589 -4.462773,9.533316 0.410272,0.454304 0.87923,-0.135065 0.87923,-1.104983 z m 1.69489,-0.528772 1.038365,-1.507484 -1.180393,0.96637 c -0.649213,0.531502 -1.180389,1.20987 -1.180389,1.507484 0,0.816647 0.189801,0.677947 1.322417,-0.96637 z m -11.5785,-0.384337 c 0.873539,-1.476285 0.569146,-1.54977 -0.480844,-0.116088 -0.476515,0.650652 -0.705307,1.183004 -0.508429,1.183004 0.196882,0 0.642054,-0.48011 0.989273,-1.066916 z"
     id="pathC3" />
</svg>
