<?xml version="1.0" encoding="UTF-8" standalone="no"?>
<svg
   xmlns:dc="http://purl.org/dc/elements/1.1/"
   xmlns:cc="http://creativecommons.org/ns#"
   xmlns:rdf="http://www.w3.org/1999/02/22-rdf-syntax-ns#"
   xmlns:svg="http://www.w3.org/2000/svg"
   xmlns="http://www.w3.org/2000/svg"
   id="svgC4"
   version="1.1"
   viewBox="0 0 100 100"
   height="100"
   width="100">
  <defs
     id="defs2" />
  <metadata
     id="metadata5">
    <rdf:RDF>
      <cc:Work
         rdf:about="">
        <dc:format>image/svg+xml</dc:format>
        <dc:type
           rdf:resource="http://purl.org/dc/dcmitype/StillImage" />
        <dc:title></dc:title>
      </cc:Work>
    </rdf:RDF>
  </metadata>
  <path
     id="pathC4"
     d="m 44.11118,81.670357 c -1.276627,-0.422352 -3.1478,-2.210109 -3.876845,-3.704017 -1.050915,-2.153456 -1.143704,-3.624189 -0.35257,-5.588424 1.346286,-3.342572 2.57652,-4.023806 4.95196,-2.742119 1.969208,1.062498 3.459878,4.55513 2.284624,5.352854 -0.498226,0.338176 -0.884693,-0.435314 -0.712316,-1.425652 0.110181,-0.633004 -0.118273,-0.963535 -1.04466,-1.51145 -1.494759,-0.884085 -2.159386,-0.502331 -2.776923,1.595038 -0.878984,2.985315 0.150411,4.614781 3.287866,5.204486 1.879676,0.3533 2.336454,0.326128 3.299638,-0.196265 2.452132,-1.329948 4.025836,-3.89053 4.425897,-7.201387 0.194207,-1.607222 0.153469,-1.727637 -0.759973,-2.246413 -1.093584,-0.621082 -2.796098,-2.633671 -3.50936,-4.148503 -0.62217,-1.321363 -0.485743,-4.943414 0.24388,-6.474944 0.706676,-1.483352 0.696249,-2.009995 -0.04992,-2.52177 -0.619625,-0.42499 -2.281087,-3.954791 -3.007192,-6.388835 -1.223179,-4.100326 2.242811,-8.878387 6.909262,-9.524806 2.21222,-0.306448 2.530932,-0.557186 2.568828,-2.020955 0.0163,-0.629245 0.413886,-1.957522 0.883545,-2.951724 0.469656,-0.994202 0.813033,-1.833959 0.763053,-1.86613 -0.04998,-0.03217 -0.493983,-0.335283 -0.986668,-0.673584 -0.492686,-0.338302 -1.168287,-0.615095 -1.501336,-0.615095 -0.33305,0 -0.746604,-0.144968 -0.919009,-0.322148 -0.505767,-0.519776 -4.117697,-1.064604 -6.136873,-0.925695 -3.371292,0.23193 -9.146329,2.788722 -10.108402,4.475312 -0.294905,0.516993 -1.032186,1.560046 -1.638399,2.317888 -1.599005,1.998966 -1.922755,3.11869 -1.087492,3.761219 0.978828,0.752968 2.474637,3.342815 2.92835,5.070148 0.576193,2.193634 0.15805,16.193469 -0.52809,17.680995 -1.223559,2.652631 -4.017078,4.543444 -6.712558,4.543444 -1.845038,0 -4.643639,-1.210014 -5.664789,-2.44925 -0.509909,-0.618809 -0.933455,-0.676058 -3.951204,-0.534068 -2.89832,0.13637 -3.632902,0.0486 -5.153964,-0.61586 -3.226982,-1.409662 -5.592388,-4.778539 -5.910838,-8.418383 -0.10797,-1.234076 -0.3174342,-1.790783 -0.7275862,-1.933752 -0.906621,-0.316028 -3.32648,-3.133176 -3.891549,-4.530463 -0.775712,-1.918157 -0.865438,-4.477684 -0.221848,-6.328496 0.570733,-1.641296 2.727771,-4.180748 3.551171,-4.180748 0.251999,0 0.723763,-0.322302 1.0483652,-0.716231 0.324601,-0.393924 0.708564,-0.635879 0.85325,-0.53767 0.144686,0.09821 0.35633,0.01282 0.470321,-0.189739 0.11399,-0.202565 0.477278,-0.368299 0.807307,-0.368299 0.330028,0 0.764863,-0.2181 0.966298,-0.484662 0.280368,-0.371019 0.166435,-0.68967 -0.485895,-1.358957 -1.001781,-1.027819 -1.881139,-2.755713 -1.629767,-3.202408 0.09827,-0.174638 0.799056,-0.157377 1.580813,0.03893 1.422242,0.357146 2.094862,0.320963 7.995053,-0.430095 3.437276,-0.437541 5.695847,-0.261506 7.098382,0.553256 1.299334,0.754809 3.303987,3.083528 3.303987,3.838098 0,0.996083 -0.623522,0.835794 -1.002032,-0.257589 -0.179173,-0.517568 -0.610678,-1.022862 -0.958899,-1.122873 -0.348221,-0.100008 -0.710606,-0.403578 -0.8053,-0.674592 -0.274851,-0.786634 -3.672001,-1.707351 -5.426876,-1.470828 -0.847455,0.114222 -2.710758,0.314846 -4.140671,0.445835 -2.152924,0.197222 -2.627493,0.354281 -2.760687,0.913664 -0.214256,0.899827 -0.743802,0.864748 -0.743802,-0.04927 0,-0.398627 -0.148484,-0.724774 -0.329964,-0.724774 -0.18148,0 -0.329964,0.326147 -0.329964,0.724774 0,0.938687 -0.532026,0.938687 -0.755534,0 -0.206122,-0.865663 -0.894285,-0.97288 -0.894285,-0.139328 0,0.551949 2.540878,3.400818 3.033159,3.400818 0.125817,0 0.790397,0.363938 1.476844,0.80875 0.686448,0.444812 1.400233,0.818777 1.58619,0.831031 0.185956,0.01226 1.216446,0.320027 2.289978,0.683943 1.267336,0.429611 2.977523,0.661661 4.876381,0.661661 2.487721,0 2.972388,0.09826 3.245103,0.657907 0.38535,0.790787 -0.03253,2.185821 -0.994417,3.319743 -0.377553,0.445077 -0.664863,1.281831 -0.664863,1.936327 0,0.633907 -0.236948,2.600819 -0.526551,4.370919 -0.289602,1.770097 -0.549449,3.748125 -0.577436,4.395615 -0.03168,0.732799 -0.223007,1.177449 -0.506788,1.177759 -0.494773,7.27e-4 -0.448585,-0.601439 0.397117,-5.175806 0.284295,-1.537742 0.3357,-2.539045 0.137263,-2.673737 -0.460822,-0.312791 -0.892511,0.609768 -0.898336,1.919827 -0.0028,0.624983 -0.226863,1.60343 -0.497966,2.174325 -0.271102,0.570894 -0.493827,1.731058 -0.494945,2.578138 -0.0019,1.420644 -0.06931,1.540149 -0.869115,1.540149 -0.829216,0 -0.857708,-0.06438 -0.652433,-1.474244 0.118057,-0.810836 0.248397,-1.6099 0.289645,-1.7757 0.04125,-0.1658 -0.07349,-0.358532 -0.254968,-0.428291 -0.18148,-0.06976 -0.53771,0.606999 -0.791621,1.503909 -0.780212,2.755999 -0.797632,2.791302 -0.939119,1.903227 -0.10855,-0.681335 -0.23407,-0.753394 -0.766856,-0.440235 -0.469615,0.276027 -0.637061,0.256795 -0.637061,-0.07317 0,-0.348142 -0.08799,-0.350977 -0.395956,-0.01276 -0.217777,0.239177 -0.588986,0.434866 -0.82491,0.434866 -0.661982,0 -0.507264,-1.027311 0.230975,-1.53365 0.9862,-0.676415 0.79667,-1.093636 -0.369063,-0.812437 -1.67697,0.404515 -0.988656,-0.645301 0.723227,-1.103069 0.80335,-0.214819 1.386395,-0.545857 1.295655,-0.735636 -0.09074,-0.189779 -0.313466,-0.275962 -0.494946,-0.191519 -0.657365,0.305881 -2.128463,0.200162 -2.136515,-0.153536 -0.0045,-0.199313 0.412595,-0.378695 0.926961,-0.398626 1.949847,-0.07555 3.684283,-0.990512 3.684283,-1.943555 0,-0.31342 -3.441786,0.746762 -3.838404,1.182355 -0.127133,0.139625 -0.589986,0.253864 -1.028563,0.253864 -0.940931,0 -0.850062,-0.845779 0.109834,-1.022296 1.239673,-0.227966 6.247453,-1.973223 6.555437,-2.28463 0.172406,-0.174323 0.575512,-0.316952 0.895791,-0.316952 0.500584,0 1.265472,-0.97127 1.265472,-1.60692 0,-0.475395 -1.126184,-0.127495 -3.442126,1.06334 -1.356691,0.697595 -2.584939,1.269361 -2.72944,1.270589 -0.144501,0.0012 -0.698418,0.251757 -1.230926,0.556731 -0.990726,0.567402 -1.836497,0.48211 -1.836497,-0.185202 0,-0.205569 0.341513,-0.373762 0.758917,-0.373762 0.417404,0 0.899977,-0.140295 1.072383,-0.311767 0.172406,-0.171472 1.093005,-0.611372 2.045776,-0.977556 0.952771,-0.366185 1.73231,-0.882376 1.73231,-1.147091 0,-0.378277 -0.219879,-0.356423 -1.027231,0.102095 -1.092966,0.620733 -3.603261,1.38424 -5.675388,1.726168 -1.037145,0.171144 -1.240058,0.105565 -1.154874,-0.373251 0.05684,-0.319482 0.340718,-0.618998 0.630844,-0.665593 0.721518,-0.11588 4.256974,-2.723494 4.256974,-3.139778 0,-0.759559 -3.243392,1.163842 -5.173061,3.067735 -0.71366,0.704128 -0.723439,0.703947 -1.437439,-0.02661 -0.858124,-0.878024 -0.769693,-1.080759 1.069155,-2.451111 0.779238,-0.580707 1.491038,-1.145109 1.581779,-1.254225 0.09074,-0.109113 0.733195,-0.559918 1.427678,-1.001779 1.436381,-0.91389 2.214134,-0.723737 1.346493,0.329206 -0.551852,0.66971 -0.538004,0.678203 0.474057,0.290728 0.573384,-0.219524 1.129267,-0.553295 1.235297,-0.741713 0.246216,-0.437533 -0.505135,-1.453546 -0.88449,-1.196052 -0.157167,0.106674 -0.582391,0.0196 -0.944943,-0.193489 -0.526559,-0.309498 -0.793481,-0.239959 -1.326675,0.345629 -0.367119,0.403194 -0.894658,0.733081 -1.172308,0.733081 -0.27765,0 -1.267011,0.815372 -2.19858,1.811938 -1.742429,1.864002 -2.066542,2.061738 -2.402083,1.465472 -0.107234,-0.190556 0.218092,-0.633767 0.722946,-0.984912 1.355591,-0.942864 2.39058,-2.050061 2.397051,-2.564289 0.0031,-0.249141 -0.07056,-0.452985 -0.163758,-0.452985 -0.426712,0 -1.711516,1.015574 -2.706579,2.139416 -0.60066,0.678396 -1.132194,1.167619 -1.181188,1.087164 -0.04899,-0.08046 -0.290281,-0.434723 -0.536195,-0.78726 -0.3830492,-0.549132 -0.3620802,-0.744172 0.146341,-1.361175 0.835327,-1.013728 0.316427,-1.368407 -0.6074372,-0.415196 -0.923056,0.952378 -1.210434,0.988034 -1.228532,0.152424 -0.0099,-0.458053 -0.338253,-0.231607 -1.182235,0.815372 l -1.168499,1.449551 2.045696,2.08373 c 1.125132,1.146051 1.9359242,2.08373 1.8017592,2.08373 -0.1341642,0 -0.05909,0.244611 0.166833,0.543581 0.225923,0.29897 0.612612,0.543582 0.85931,0.543582 0.513733,0 2.404557,1.991311 3.017766,3.178144 0.54622,1.057183 0.52062,1.532896 -0.08249,1.532896 -0.27222,0 -0.494945,-0.247493 -0.494945,-0.549984 0,-0.657314 -2.03764,-2.900741 -3.270745,-3.601065 -0.4824272,-0.273986 -1.0691302,-0.892146 -1.3037852,-1.373685 -0.234654,-0.481541 -0.860459,-1.156971 -1.390678,-1.500956 -0.530219,-0.343985 -0.964034,-0.86082 -0.964034,-1.148522 0,-0.287701 -0.148484,-0.523093 -0.329964,-0.523093 -0.454881,0 -0.416539,3.490705 0.04902,4.463074 0.691167,1.443568 1.969132,2.901395 3.443838,3.928525 1.3476232,0.93862 1.4571402,1.130342 1.4638452,2.56265 0.0085,1.824118 0.992653,4.39189 2.239461,5.843234 1.52709,1.77761 4.057026,2.771455 7.055031,2.771455 1.44119,0 2.903394,-0.166369 3.249342,-0.369708 0.509128,-0.299253 0.803682,-0.170467 1.545636,0.675777 0.504152,0.575015 1.28785,1.169027 1.74155,1.320029 0.4537,0.151001 1.008487,0.43578 1.232859,0.632846 0.649082,0.570086 4.475866,0.429429 5.55938,-0.204343 1.302735,-0.762004 2.583616,-2.050619 3.098759,-3.117484 0.371044,-0.768429 0.344753,-0.954631 -0.204674,-1.449552 -0.346726,-0.312323 -0.972535,-1.17939 -1.390692,-1.926815 -0.745719,-1.332916 -1.529876,-1.886134 -1.15575,-0.815372 0.122223,0.349805 -0.007,0.543581 -0.362555,0.543581 -0.412611,0 -0.49632,-0.194345 -0.330641,-0.76765 0.160502,-0.555388 0.09822,-0.722003 -0.225237,-0.60256 -0.272447,0.100612 -0.403742,0.557875 -0.336129,1.170658 0.08113,0.735241 -0.0076,0.945998 -0.329964,0.783986 -0.242504,-0.121867 -0.700762,-0.322242 -1.018352,-0.445273 -0.701424,-0.271722 -0.704787,-0.431564 -0.08405,-3.99468 0.487141,-2.796245 0.424257,-4.117011 -0.196017,-4.117011 -0.448107,0 -0.560691,0.539581 -0.747031,3.58029 -0.09014,1.470873 -0.322807,2.848852 -0.517043,3.062176 -0.250897,0.275548 -0.353155,0.21071 -0.353155,-0.223931 0,-0.418431 -0.234641,-0.584502 -0.742418,-0.525462 -0.882465,0.102611 -0.898476,-0.369023 -0.117619,-3.464637 0.291541,-1.155774 0.530628,-2.623445 0.531307,-3.26149 6.88e-4,-0.638043 0.278741,-1.659872 0.617917,-2.270729 0.47173,-0.849587 0.560903,-1.445855 0.379372,-2.536714 -0.264397,-1.588823 -0.30792,-1.507391 -1.271514,2.379007 -0.916166,3.695108 -1.148284,5.047126 -1.10433,6.432383 0.03488,1.099408 -0.348323,1.560162 -0.731405,0.879417 -0.30594,-0.543666 0.713186,-6.217905 1.973353,-10.987147 0.08648,-0.327279 0.449279,-0.678929 0.806229,-0.781447 0.786278,-0.22582 0.883814,-1.763413 0.154054,-2.428573 -1.304827,-1.189322 0.0908,-4.02433 2.210292,-4.489883 1.114997,-0.244912 2.244221,-1.160969 2.244221,-1.82057 0,-0.722148 4.898452,-5.200879 6.599277,-6.033825 l 0.82491,-0.403983 -0.779718,-0.601834 C 40.832225,28.124018 40.080811,27.402214 39.59126,26.85102 38.293994,25.390397 37.176067,25.163398 29.502162,24.802409 c -5.238548,-0.246427 -7.170769,-0.466093 -7.919133,-0.900276 -0.544441,-0.315875 -1.229124,-0.575325 -1.521517,-0.57655 -0.726964,-0.003 -3.592924,-2.987954 -3.592924,-3.742036 0,-0.651402 1.140462,-0.858428 1.473055,-0.267403 0.105681,0.187801 0.893984,0.441744 1.751784,0.564326 0.857801,0.122585 2.227815,0.372736 3.044475,0.555902 0.816661,0.183163 2.301499,0.405365 3.299639,0.493786 0.998141,0.08842 2.408737,0.258814 3.134658,0.378662 0.72592,0.119845 1.988032,0.282408 2.804692,0.361255 3.225381,0.311388 10.302796,3.858326 11.425611,5.726092 0.576843,0.959556 0.75014,1.022502 2.597855,0.943592 1.088881,-0.0465 2.294347,0.104643 2.678818,0.335867 0.384469,0.231233 0.764379,0.348658 0.844243,0.260946 0.448207,-0.49225 6.315943,1.083631 8.392668,2.253996 0.944637,0.532365 1.089327,0.530732 1.805731,-0.02037 0.428345,-0.329508 1.108215,-0.599102 1.510824,-0.599102 0.402609,0 0.823785,-0.163075 0.935948,-0.362388 0.112159,-0.199314 0.804986,-0.362389 1.539613,-0.362389 1.150498,0 1.299874,-0.08793 1.077391,-0.634179 -0.142057,-0.348798 -0.320413,-2.03791 -0.396346,-3.75358 -0.135469,-3.060934 -0.119004,-3.143234 0.878316,-4.390741 1.895666,-2.371197 5.459778,-2.60772 7.277309,-0.482937 0.649973,0.759851 0.740365,1.167724 0.604062,2.725654 -0.09117,1.042102 -0.416507,2.143026 -0.754491,2.553192 -0.756621,0.918211 -2.510959,0.949774 -3.245471,0.05839 -0.642104,-0.779235 -0.72557,-1.664156 -0.133633,-1.416811 0.638384,0.266754 1.897292,-0.372364 1.897292,-0.963211 0,-0.291159 -0.224864,-0.776333 -0.499695,-1.07817 -0.781867,-0.8587 -2.426033,-0.0694 -3.00042,1.440395 -0.62326,1.638249 -0.567512,2.927468 0.207722,4.803809 0.358974,0.868848 0.652682,1.857552 0.652682,2.197124 0,0.603183 1.851599,2.845033 2.096627,2.538521 0.06805,-0.08513 0.277728,-0.480923 0.465945,-0.87955 0.321498,-0.680896 2.549985,-1.618774 5.238059,-2.204481 1.591932,-0.346868 5.05146,1.593834 6.180061,3.466848 0.999392,1.658584 2.187538,4.787222 2.187538,5.760249 0,0.439486 0.405855,0.791734 1.237366,1.073924 3.261196,1.106756 6.340552,4.711562 6.348709,7.432027 0.003,1.00158 0.04834,1.029105 1.487932,0.903358 1.158147,-0.101161 1.484839,-0.0089 1.484839,0.419105 0,0.428058 -0.326692,0.520269 -1.484839,0.419106 -1.322075,-0.115482 -1.484836,-0.04702 -1.484836,0.624635 0,0.685547 0.1354,0.733951 1.484836,0.530815 1.218166,-0.183375 1.484839,-0.120877 1.484839,0.347994 0,0.380534 -0.45607,0.670567 -1.364795,0.867934 -1.03147,0.224028 -1.495547,0.561132 -1.900179,1.38028 -0.823577,1.667285 -2.67761,4.596077 -3.614835,5.710311 -0.797587,0.948217 -0.821786,1.090939 -0.446371,2.632511 1.003342,4.120016 -0.329425,8.665467 -2.9849,10.18011 -0.817935,0.466538 -4.601712,0.750879 -5.851091,0.439693 -0.294904,-0.07345 -0.727358,0.408639 -1.089903,1.214992 -0.462883,1.029525 -1.179179,1.685254 -3.116548,2.853031 -2.317864,1.397121 -2.661111,1.501771 -4.368165,1.331767 -1.018948,-0.101468 -2.427113,-0.522653 -3.129251,-0.93596 -0.702141,-0.413303 -1.396463,-0.670117 -1.542942,-0.570692 -0.378195,0.256705 -4.774755,-4.616232 -5.062124,-5.610617 -0.181507,-0.628072 -0.409046,-0.775883 -0.949333,-0.616693 -0.390835,0.115158 -1.341665,0.211605 -2.112957,0.214326 l -1.402345,0.0049 v 2.004773 c 0,2.559512 -0.668306,4.299782 -2.407859,6.270058 -2.059064,2.332169 -4.048948,3.328346 -6.57269,3.29043 -1.140283,-0.01714 -2.477927,-0.165031 -2.972536,-0.328667 z m 6.91885,-1.798977 c 1.536192,-0.889716 3.149126,-2.902921 3.833802,-4.78521 0.643985,-1.770427 0.719698,-5.014795 0.117028,-5.014795 -0.336632,0 -0.534035,0.650954 -0.686848,2.264924 -0.25835,2.728657 -1.339382,4.60061 -3.662307,6.341786 -1.217745,0.912774 -1.915509,1.177307 -3.101301,1.175737 -2.288329,-0.0029 -3.979981,-0.649275 -5.054199,-1.930834 -0.800271,-0.954736 -0.950019,-1.421306 -0.891671,-2.778184 0.0818,-1.902303 0.388731,-2.711519 1.544908,-4.073082 1.023224,-1.204991 0.852491,-1.499728 -0.556316,-0.960357 -0.761755,0.291642 -1.231653,0.826791 -1.672,1.904169 -0.97044,2.374329 -1.008683,3.17646 -0.234822,4.925473 0.932042,2.106528 2.827985,3.546436 5.169079,3.92575 2.115418,0.342751 3.264345,0.122596 5.194647,-0.995377 z m 23.035157,-4.039521 c 2.285698,-1.575528 3.04941,-2.424386 3.297557,-3.665212 0.205571,-1.027928 0.267984,-1.061938 1.419463,-0.773517 1.775487,0.444723 4.58887,0.26886 5.434566,-0.339713 0.406574,-0.292578 1.180198,-1.23081 1.719167,-2.084969 0.845185,-1.339439 0.979641,-1.881212 0.977704,-3.939517 -0.0016,-1.74955 -0.199792,-2.815734 -0.742418,-3.99472 -0.889259,-1.932135 -0.8817,-1.834468 -0.141981,-1.834468 0.329007,0 0.977996,-0.448455 1.442199,-0.996566 1.365023,-1.611757 3.548065,-5.88941 3.327601,-6.520396 -0.161472,-0.462134 -0.252428,-0.415659 -0.474009,0.242183 -0.307578,0.913164 -2.245399,4.057746 -2.740512,4.447144 -0.784381,0.616903 -0.702156,-0.696332 0.116674,-1.863489 1.161841,-1.656072 1.842513,-4.008948 1.54278,-5.33292 -0.351864,-1.554261 -1.87547,-4.013978 -2.814471,-4.543701 -0.458412,-0.258605 -0.937001,-0.629221 -1.06353,-0.823592 -0.217178,-0.333619 0.27835,-0.898467 0.798806,-0.910563 0.466712,-0.01087 3.22221,3.2813 3.86414,4.616701 0.601985,1.252308 0.65351,1.285644 0.666966,0.43153 0.03597,-2.283273 -2.998768,-5.66994 -5.80522,-6.478424 -1.273942,-0.366997 -1.379625,-0.496163 -1.579499,-1.930453 -0.117808,-0.845423 -0.6913,-2.597122 -1.274416,-3.892658 -0.916368,-2.035924 -1.284065,-2.47844 -2.710037,-3.261488 -2.036146,-1.118115 -3.998756,-1.116145 -6.374709,0.0064 -0.940173,0.444196 -1.714127,0.909852 -1.719898,1.034791 -0.0058,0.124942 -0.21944,0.530109 -0.474818,0.900373 -0.442987,0.642277 -0.51452,0.619865 -1.556832,-0.487737 -1.214528,-1.290605 -4.170596,-2.903379 -5.321628,-2.903379 -1.631104,0 -4.329727,1.372611 -5.107501,2.597846 -1.092015,1.720266 -1.717175,3.469985 -1.717175,4.806096 0,1.513746 -0.678188,2.481813 -1.854711,2.64747 -0.522491,0.07357 -1.655908,0.223152 -2.518701,0.332409 -1.254739,0.158888 -1.89213,0.517993 -3.184541,1.794165 -2.146154,2.119187 -2.689631,4.237642 -1.823221,7.106889 1.038115,3.437892 2.43166,5.71988 3.492964,5.71988 0.81741,0 0.780778,0.185767 -0.453019,2.297412 -2.059128,3.524185 -1.209966,7.515016 2.112899,9.93008 1.266666,0.920616 1.631249,0.999661 4.610812,0.999661 3.139376,0 3.245596,0.02689 3.579368,0.905969 0.974116,2.565622 5.427453,6.215879 8.081832,6.624416 2.539458,0.390853 3.351977,0.249536 4.967349,-0.863933 z m -5.82884,-0.300249 c -2.610882,-0.900578 -5.341993,-3.673652 -6.057921,-6.150996 -0.422418,-1.461699 0.449728,-0.745602 1.371573,1.12617 1.278658,2.596254 4.006612,4.389099 6.579254,4.323963 1.134703,-0.02874 2.019252,-0.270993 2.485165,-0.680647 1.298654,-1.141836 2.157024,-2.116844 2.332778,-2.649765 0.129421,-0.392422 0.271921,-0.420568 0.570783,-0.112731 0.543497,0.559817 0.0027,1.445996 -1.768168,2.89767 -1.495226,1.225679 -3.958817,1.782585 -5.513464,1.246336 z m 0.413848,-2.252737 c -1.738331,-0.343177 -2.207128,-0.739293 -3.067828,-2.592192 -0.454416,-0.978258 -0.555818,-1.54353 -0.322799,-1.799447 0.233021,-0.255919 0.513402,0.103522 0.892542,1.144203 0.88019,2.415974 3.113916,3.242475 5.391179,1.994796 0.584103,-0.320022 1.197174,-0.97232 1.362385,-1.449552 0.349851,-1.010598 0.976641,-1.158086 0.976641,-0.229812 0,0.498399 -1.41581,2.623608 -1.747843,2.623608 -0.03922,0 -0.515787,0.133244 -1.059029,0.296096 -0.543243,0.162854 -1.634604,0.168387 -2.425248,0.01229 z m -0.491109,-2.420659 c -0.644792,-0.782498 -0.743458,-2.368176 -0.13363,-2.147609 0.226848,0.08205 0.459904,0.503328 0.517895,0.936172 0.133228,0.99441 0.956175,1.009543 1.900756,0.03497 1.048322,-1.081618 1.366592,-0.201331 0.336312,0.930188 -0.979564,1.075821 -1.868932,1.159384 -2.621333,0.246294 z M 79.244228,70.20365 c -0.589812,-0.321854 -1.072383,-0.809432 -1.072383,-1.083506 0,-0.632117 0.32574,-0.615824 1.135449,0.05678 1.300017,1.079908 3.364254,0.386024 4.929577,-1.657058 0.679585,-0.887001 0.864216,-1.514233 0.864216,-2.935942 0,-0.994377 -0.145764,-2.107086 -0.323924,-2.472684 -0.239959,-0.492427 -0.198498,-0.717585 0.159951,-0.86865 1.044742,-0.440301 1.579817,3.198252 0.801921,5.453102 -1.003954,2.9101 -4.314079,4.697954 -6.494807,3.507953 z M 55.156863,68.003688 c -0.408331,-0.08638 -0.742418,-0.288996 -0.742418,-0.450266 0,-0.16127 -0.454491,-0.499972 -1.009981,-0.752676 -1.280694,-0.582607 -2.619623,-2.490191 -2.619623,-3.732206 0,-1.10841 0.896442,-3.824068 1.500319,-4.545038 0.884976,-1.05657 1.125855,-0.194899 0.312846,1.119119 -0.458192,0.74055 -0.922305,2.061428 -1.031364,2.93529 -0.169926,1.361562 -0.08663,1.703541 0.582337,2.390733 1.656647,1.701787 3.688049,2.308899 5.647595,1.687864 0.773822,-0.245246 0.907402,-0.181323 0.907402,0.434214 0,1.014206 -1.384242,1.370488 -3.547113,0.912966 z m 24.582311,-0.135666 c -0.898721,-0.574892 -0.692193,-1.1422 0.329964,-0.90638 1.592038,0.367295 2.715429,-1.204928 2.477479,-3.467322 -0.181099,-1.721889 0.493792,-1.843194 0.998736,-0.179515 0.41158,1.356072 0.0503,2.667488 -1.075494,3.903901 -0.990539,1.087874 -1.759321,1.27068 -2.730685,0.649316 z M 68.602893,65.903917 c 0,-0.298971 0.222723,-0.543582 0.494945,-0.543582 0.27222,0 0.494946,0.244611 0.494946,0.543582 0,0.298969 -0.222726,0.54358 -0.494946,0.54358 -0.272222,0 -0.494945,-0.244611 -0.494945,-0.54358 z m 10.641335,0.303579 c -0.657474,-0.291368 -0.478459,-0.786458 0.329962,-0.912554 0.599654,-0.09353 0.723328,-0.313234 0.643141,-1.14249 -0.07955,-0.82262 0.01884,-1.001958 0.494946,-0.902268 0.803574,0.168256 0.945112,1.64628 0.239635,2.502425 -0.574479,0.697168 -0.940786,0.794745 -1.707684,0.454887 z M 54.834513,65.651937 c -1.309645,-0.378822 -1.870167,-1.444072 -1.62674,-3.091548 0.209225,-1.415979 0.742058,-2.273483 1.412698,-2.273483 0.350279,0 0.302942,0.311958 -0.205386,1.353587 -0.79634,1.631796 -0.817454,2.046219 -0.142054,2.787986 0.654973,0.719333 1.915519,0.734716 2.448144,0.02986 0.549217,-0.726791 1.081453,-0.319243 0.674285,0.516318 -0.41267,0.846851 -1.228637,1.062638 -2.560947,0.677263 z m 18.286855,0.201433 c -0.263618,-0.289522 0.03438,-0.855423 0.450455,-0.855423 0.17077,0 0.310492,0.244611 0.310492,0.543582 0,0.560399 -0.389345,0.719955 -0.760947,0.311841 z M 61.013722,63.889395 c 0,-0.410389 0.148484,-0.645376 0.329965,-0.522193 0.18148,0.123182 0.329964,0.458957 0.329964,0.746163 0,0.287207 -0.148484,0.522194 -0.329964,0.522194 -0.181481,0 -0.329965,-0.335774 -0.329965,-0.746164 z m 7.731141,-0.09499 c -0.264189,-0.756118 0.06589,-1.249835 0.509717,-0.762399 0.187426,0.205844 0.192286,0.551725 0.01225,0.871652 -0.253159,0.449871 -0.332407,0.433281 -0.521967,-0.109255 z m -1.612715,-0.583357 c -0.225393,-0.400522 0.295119,-0.833003 0.599811,-0.498374 0.313727,0.344555 0.255256,0.835721 -0.09948,0.835721 -0.17077,0 -0.395917,-0.151808 -0.500327,-0.337347 z m 3.120562,-0.24837 c 0,-0.293284 0.34244,-0.501447 0.82491,-0.501447 0.453702,0 0.936273,0 1.072383,0 0.136109,0 0.247473,0.183959 0.247473,0.408799 0,0.224841 -0.482571,0.450488 -1.072383,0.501447 -0.733848,0.0634 -1.072383,-0.06565 -1.072383,-0.408799 z m -4.500168,-0.320253 c -0.104463,-0.29897 -0.388006,-0.543581 -0.6301,-0.543581 -0.487201,0 -0.973344,-0.665166 -0.70308,-0.961991 0.213484,-0.234457 2.203746,1.350456 2.203746,1.754917 0,0.510894 -0.672208,0.318361 -0.870566,-0.249345 z m 7.68454,-0.713168 c -0.243422,-0.696687 0.438893,-1.152809 0.790315,-0.528322 0.290433,0.51611 0.121447,1.060296 -0.329255,1.060296 -0.151355,0 -0.358828,-0.239389 -0.46106,-0.531974 z M 62.696245,60.868718 c -0.489212,-0.571912 -0.618168,-0.95197 -0.378265,-1.114809 0.2002,-0.135888 0.651878,0.13229 1.003732,0.59595 1.161968,1.5312 0.622961,1.978333 -0.625467,0.518859 z m 12.670906,0.142963 c -0.269089,-0.478178 0.125457,-1.156768 0.517747,-0.890492 0.400778,0.272033 0.398174,1.25288 -0.0033,1.25288 -0.170767,0 -0.402259,-0.163075 -0.514419,-0.362388 z m 1.154874,-1.630745 c 0,-0.29897 0.148485,-0.543581 0.329965,-0.543581 0.18148,0 0.329962,0.244611 0.329962,0.543581 0,0.29897 -0.148482,0.543581 -0.329962,0.543581 -0.18148,0 -0.329965,-0.244611 -0.329965,-0.543581 z m 3.781018,0.157084 c -0.119623,-0.212573 -0.134792,-0.477333 -0.0337,-0.588351 0.271442,-0.298114 1.202143,0.167249 1.202143,0.601089 0,0.491851 -0.889948,0.48215 -1.16844,-0.01275 z M 60.408647,58.565564 c -0.510318,-1.431882 -0.597268,-2.227475 -0.23503,-2.150562 0.173125,0.03676 0.335547,0.376554 0.360942,0.7551 0.0254,0.378546 0.292076,0.885748 0.592632,1.127113 0.663491,0.53283 0.716474,1.264914 0.09154,1.264914 -0.2502,0 -0.614741,-0.448454 -0.810087,-0.996565 z m 5.719516,0.31391 c -0.362961,-0.172598 -0.759936,-0.250764 -0.882169,-0.173707 -0.364524,0.229809 -1.654016,-2.003572 -1.928481,-3.340099 -0.253849,-1.23614 0.170344,-3.737957 0.830865,-4.900297 0.181481,-0.319357 1.040533,-1.012424 1.909001,-1.540149 3.801594,-2.310035 8.32853,-0.02381 8.433779,4.259271 0.08124,3.306208 -2.158106,5.641823 -5.629564,5.871569 -1.140428,0.07547 -2.37047,-0.004 -2.733431,-0.176588 z m 1.814801,-0.728123 c 0,-0.36735 -1.005001,-0.867752 -1.235141,-0.614994 -0.08294,0.09109 -0.05292,0.339539 0.0667,0.552112 0.26325,0.467799 1.168443,0.516515 1.168443,0.06289 z m 2.309746,-0.923353 c 0,-0.287207 -0.154985,-0.627395 -0.344416,-0.755974 -0.426035,-0.289178 -1.365671,0.5155 -1.117314,0.956841 0.29551,0.525126 1.46173,0.364867 1.46173,-0.200867 z m -4.808961,-0.806762 c 0.268637,-0.768843 -0.265697,-1.371598 -0.957458,-1.080061 -0.421812,0.177773 -0.458002,0.374458 -0.175551,0.954087 0.432766,0.888086 0.850495,0.934533 1.133009,0.125974 z m 2.499215,0.0606 c 0,-0.338227 -0.311632,-0.543582 -0.82491,-0.543582 -0.801108,0 -1.053555,0.352868 -0.604933,0.845571 0.415086,0.455876 1.429843,0.241556 1.429843,-0.301989 z m 4.94946,-0.379771 c 0,-0.265885 -0.13166,-0.57279 -0.292577,-0.682014 -0.39411,-0.267512 -1.13698,0.754856 -0.880136,1.211273 0.273219,0.485523 1.172713,0.07957 1.172713,-0.529264 z M 70.869375,55.81431 c 0.462028,-0.611417 0.156458,-0.963223 -0.836642,-0.963223 -0.849622,0 -0.978773,0.350436 -0.373957,1.014686 0.508675,0.55866 0.757542,0.548082 1.210599,-0.05147 z m -2.454572,-0.559773 c 0.29994,-0.533 -0.771231,-1.306756 -1.182994,-0.854532 -0.194273,0.213363 -0.253458,0.565213 -0.131525,0.781895 0.267269,0.474941 1.063374,0.518931 1.314519,0.07264 z m -2.121659,-0.777206 c 0,-0.43384 -0.930701,-0.899204 -1.202145,-0.601089 -0.288952,0.317347 0.201163,0.974848 0.726675,0.974848 0.261509,0 0.47547,-0.168191 0.47547,-0.373759 z m 7.259206,-0.351017 c 0,-0.402652 -0.219977,-0.724775 -0.494945,-0.724775 -0.274969,0 -0.494946,0.322123 -0.494946,0.724775 0,0.402653 0.219977,0.724776 0.494946,0.724776 0.274968,0 0.494945,-0.322123 0.494945,-0.724776 z m -1.708118,-0.483015 c 0.08093,-0.458301 -0.138118,-0.604148 -0.907399,-0.604148 -1.110369,0 -1.443122,0.912558 -0.43665,1.197493 0.857612,0.242792 1.225045,0.08059 1.344049,-0.593345 z m -2.662251,-0.332357 c -0.208986,-0.696937 -1.568982,-0.797314 -1.568982,-0.115801 0,0.370005 0.297903,0.568786 0.852406,0.568786 0.534397,0 0.801735,-0.169 0.716576,-0.452985 z m -2.309746,-0.362388 c -0.208987,-0.696937 -1.568982,-0.797314 -1.568982,-0.115801 0,0.370005 0.297902,0.568786 0.852405,0.568786 0.534398,0 0.801733,-0.168999 0.716577,-0.452985 z m 5.030295,-0.776601 c 0,-0.544154 -0.80092,-1.031482 -1.119751,-0.681325 -0.232698,0.255563 0.418621,1.186135 0.830188,1.186135 0.159261,0 0.289563,-0.227166 0.289563,-0.50481 z m 1.64982,0.142423 c 0,-0.199314 -0.157247,-0.362388 -0.349438,-0.362388 -0.19219,0 -0.25767,0.163074 -0.145507,0.362388 0.112162,0.199313 0.269409,0.362387 0.349437,0.362387 0.08003,0 0.145508,-0.163074 0.145508,-0.362387 z m -3.794585,-0.543582 c 0,-0.199313 -0.334087,-0.414499 -0.742418,-0.478188 -0.510839,-0.07968 -0.742419,0.06948 -0.742419,0.478188 0,0.408709 0.23158,0.557871 0.742419,0.478189 0.408331,-0.06369 0.742418,-0.278875 0.742418,-0.478189 z M 67.18743,51.227213 c -0.09492,-0.398628 -0.03799,-0.724776 0.126497,-0.724776 0.164492,0 0.299072,-0.339738 0.299072,-0.754975 0,-1.072906 -0.739164,-0.670523 -1.040355,0.566345 -0.268618,1.103094 -0.125425,1.638181 0.438386,1.638181 0.191937,0 0.271317,-0.326149 0.1764,-0.724775 z m 5.375029,-0.73615 c 0,-0.860973 -0.87399,-1.348035 -1.394044,-0.776878 -0.25975,0.285271 -0.242346,0.550568 0.06258,0.954087 0.59767,0.790916 1.33146,0.693252 1.331459,-0.177209 z m -2.557222,-0.532208 c -0.121771,-0.53495 -1.158668,-0.440482 -1.32911,0.121092 -0.100603,0.331462 0.09825,0.445404 0.632433,0.362387 0.428543,-0.0666 0.742048,-0.284166 0.696677,-0.483479 z m 7.05298,8.227018 c -0.08948,-0.159002 -0.03019,-0.524554 0.131768,-0.812343 0.222572,-0.395517 0.387447,-0.421116 0.675399,-0.104873 0.209521,0.230108 0.281183,0.59566 0.159247,0.812342 -0.260559,0.46302 -0.735846,0.514594 -0.966414,0.104874 z m 0.951971,-1.879322 c -0.243364,-0.432462 0.06552,-1.093073 0.511095,-1.093073 0.4015,0 0.404104,0.980845 0.0033,1.252879 -0.168942,0.114674 -0.400431,0.04275 -0.514421,-0.159806 z M 59.268295,54.85109 c -0.112159,-0.471053 -0.01013,-0.724776 0.291481,-0.724776 0.25523,0 0.464055,0.32615 0.464055,0.724776 0,0.398626 -0.131167,0.724775 -0.291481,0.724775 -0.160313,0 -0.369136,-0.326149 -0.464055,-0.724775 z m -3.753146,-0.205553 c -0.318694,-0.912116 0.425228,-1.450588 0.836903,-0.605775 0.344231,0.706405 0.203632,1.173716 -0.353136,1.173716 -0.156933,0 -0.374627,-0.255574 -0.483767,-0.567941 z m 30.064313,0.176105 c -0.121275,-0.215508 0.191561,-0.8642 0.69519,-1.441532 0.704159,-0.807207 0.949425,-1.496403 1.061706,-2.983396 0.136414,-1.806636 0.071,-2.021048 -0.995537,-3.263029 -1.161655,-1.352745 -1.217019,-1.704677 -0.268179,-1.704677 0.548074,0 1.361914,0.868748 1.956078,2.088055 0.844738,1.733506 0.245592,5.323098 -1.176557,7.048973 -0.61227,0.743028 -0.959202,0.812705 -1.272701,0.255606 z m -7.453776,-0.393339 c -0.02537,-0.06643 -0.07826,-0.732324 -0.117491,-1.479749 -0.04938,-0.940776 0.06636,-1.358953 0.376124,-1.358953 0.277196,0 0.447453,0.413672 0.447453,1.087162 0,0.59794 0.01111,1.205393 0.02474,1.349895 0.02474,0.262629 -0.643601,0.629931 -0.730834,0.401645 z M 59.851553,52.404972 c 0.241649,-1.42078 0.397963,-1.77547 0.657053,-1.490919 0.274698,0.301694 -0.230193,2.849874 -0.564671,2.849874 -0.19495,0 -0.231664,-0.540038 -0.09238,-1.358955 z m 24.91957,0.313216 c 0,-0.17653 0.213984,-0.773951 0.475525,-1.327604 0.414054,-0.876516 0.414054,-1.137185 0,-2.01656 -0.59281,-1.259012 -0.602502,-1.770689 -0.03354,-1.770689 0.42291,0 1.217893,1.418946 1.407112,2.511524 0.149887,0.865471 -0.791631,2.924292 -1.33731,2.924292 -0.281482,0 -0.511783,-0.144433 -0.511783,-0.320963 z M 49.461368,51.499004 c -0.428633,-0.772093 -0.654267,-1.823367 -0.655076,-3.052125 -0.0011,-1.562363 0.179792,-2.135422 1.086286,-3.442683 1.170192,-1.687536 2.922363,-2.591722 4.652103,-2.40066 1.514369,0.167272 1.496729,1.014141 -0.02069,0.993176 -1.875375,-0.02591 -2.318042,0.140602 -3.399828,1.278862 -1.706977,1.79609 -2.041466,4.550515 -0.792114,6.52287 0.537575,0.848665 0.577225,1.278319 0.117972,1.278319 -0.184147,0 -0.629044,-0.529992 -0.988658,-1.177759 z m 31.738451,0.252649 c 0.14923,-0.787148 0.734835,-0.835312 0.868778,-0.07145 0.06956,0.396669 -0.09228,0.634178 -0.432131,0.634178 -0.317008,0 -0.498895,-0.234407 -0.436647,-0.562723 z M 51.119308,49.143484 c 0.0026,-0.747426 0.09558,-1.732338 0.206889,-2.188694 0.342736,-1.405174 4.078139,-2.640478 4.078139,-1.348647 0,0.33152 -0.286224,0.521817 -0.742418,0.493598 -1.368179,-0.08463 -2.482787,0.668821 -2.716229,1.836107 -0.121073,0.605413 -0.124819,1.430565 -0.0083,1.833671 0.151079,0.522837 0.06355,0.732918 -0.30539,0.732918 -0.378458,0 -0.515972,-0.364515 -0.512678,-1.358953 z m 9.779146,0.826976 c -0.208688,-0.597266 0.277553,-1.074162 0.760785,-0.746162 0.350192,0.237699 0.09332,1.278139 -0.315552,1.278139 -0.142648,0 -0.343001,-0.239389 -0.445233,-0.531977 z m 16.448481,0.169589 c -0.269089,-0.478176 0.125455,-1.156766 0.517745,-0.890494 0.400778,0.272036 0.398174,1.252882 -0.0033,1.252882 -0.17077,0 -0.402259,-0.163075 -0.514421,-0.362388 z M 62.544583,48.801442 c -0.394359,-0.433109 -0.213061,-1.198107 0.28394,-1.198107 0.272222,0 0.494945,0.234987 0.494945,0.522194 0,0.605421 -0.47095,1.014108 -0.778885,0.675913 z m -8.731769,-0.673667 c 0.149233,-0.787147 0.734836,-0.835311 0.868778,-0.07145 0.06956,0.39667 -0.09228,0.634179 -0.432131,0.634179 -0.317005,0 -0.498895,-0.234406 -0.436647,-0.562724 z m 22.454865,0.132387 c 0.203941,-0.671947 0.914273,-0.783394 0.914273,-0.143444 0,0.315579 -0.235098,0.573781 -0.522441,0.573781 -0.287346,0 -0.463669,-0.193652 -0.391832,-0.430337 z M 63.543446,47.361743 c -0.379669,-0.416976 -0.240292,-0.845571 0.274968,-0.845571 0.272222,0 0.494948,0.244612 0.494948,0.543581 0,0.565896 -0.39025,0.718965 -0.769916,0.30199 z m 11.213491,-0.652772 c -0.211571,-0.60552 0.280017,-1.072492 0.775198,-0.736381 0.493342,0.334864 0.397898,1.268357 -0.129681,1.268357 -0.252804,0 -0.543285,-0.23939 -0.645517,-0.531976 z M 65.303253,45.97259 c 0,-0.29897 0.222726,-0.543582 0.494945,-0.543582 0.27222,0 0.494946,0.244612 0.494946,0.543582 0,0.29897 -0.222726,0.543582 -0.494946,0.543582 -0.272219,0 -0.494945,-0.244612 -0.494945,-0.543582 z m 7.757477,0.187106 c -0.243363,-0.432465 0.06552,-1.093075 0.511093,-1.093075 0.401503,0 0.404104,0.980846 0.0033,1.252881 -0.168941,0.114671 -0.400431,0.04275 -0.514421,-0.159806 z M 67.1593,45.502303 c -0.08948,-0.159001 -0.024,-0.525919 0.145507,-0.815373 0.269444,-0.460114 0.34694,-0.460114 0.616387,0 0.327221,0.558775 0.17495,1.104466 -0.308195,1.104466 -0.160057,0 -0.364223,-0.130092 -0.453699,-0.289093 z m 2.328995,0.05354 c -0.124011,-0.136196 -0.225476,-0.581545 -0.225476,-0.989663 0,-0.6996 0.03221,-0.706655 0.563296,-0.123384 0.384264,0.422023 0.455927,0.736568 0.225477,0.989664 -0.185803,0.204058 -0.439285,0.259581 -0.563297,0.123383 z m 1.556329,-0.27179 c -0.120785,-0.345695 -0.05628,-0.807919 0.143346,-1.027164 0.263972,-0.28991 0.422857,-0.227207 0.582575,0.229911 0.120788,0.345696 0.05628,0.80792 -0.143346,1.027165 -0.263972,0.28991 -0.422857,0.227207 -0.582575,-0.229912 z m 8.624713,-0.706039 c -0.811326,-0.651552 -0.379519,-1.467494 0.502317,-0.949174 0.351946,0.206866 0.639902,0.614992 0.639902,0.906949 0,0.660966 -0.355391,0.674104 -1.142219,0.04223 z M 60.353793,43.979458 c 0,-0.398627 0.148484,-0.724776 0.329965,-0.724776 0.18148,0 0.329964,0.326149 0.329964,0.724776 0,0.398626 -0.148484,0.724775 -0.329964,0.724775 -0.181481,0 -0.329965,-0.326149 -0.329965,-0.724775 z m 6.59928,-2.929301 c 0,-0.883156 0.771049,-0.758321 0.931593,0.150826 0.06315,0.35759 -0.10518,0.604148 -0.412454,0.604148 -0.306086,0 -0.519139,-0.30984 -0.519139,-0.754974 z m 5.990328,0.233986 c 0.0627,-0.332452 0.262488,-0.595845 0.443968,-0.585317 0.489762,0.02841 0.399783,0.839153 -0.114004,1.027245 -0.27754,0.1016 -0.401232,-0.06406 -0.329964,-0.441928 z M 61.502468,38.884577 c -0.310478,-1.074347 0.461545,-2.879051 1.399067,-3.270524 1.901264,-0.793891 4.828127,0.03081 4.182308,1.178441 -0.135339,0.240509 -0.32744,0.230559 -0.56397,-0.02921 -0.197292,-0.216679 -1.066212,-0.393963 -1.930932,-0.393963 -1.659882,0 -2.255363,0.562149 -2.255363,2.129116 0,1.026752 -0.569511,1.291357 -0.83111,0.386144 z m 19.434474,0.220001 c -0.101123,-0.289426 -0.0904,-0.692325 0.02381,-0.895328 0.506899,-0.900775 -1.532909,-3.649267 -3.23355,-4.356966 -1.231815,-0.512609 -3.478427,0.115161 -4.2369,1.183911 -0.510013,0.718651 -0.575709,0.731161 -0.779333,0.148381 -0.314055,-0.898833 0.366372,-1.640871 1.95217,-2.128931 2.481525,-0.763738 4.239805,-0.185912 6.118926,2.010873 0.872887,1.020429 1.432709,4.564287 0.72103,4.564287 -0.210265,0 -0.46504,-0.236804 -0.566166,-0.526227 z M 59.15231,38.722108 c -0.262631,-0.751659 0.12216,-2.804715 0.683757,-3.648219 0.585332,-0.879151 1.022435,-0.465071 0.544462,0.51579 -0.196183,0.402594 -0.356698,1.395005 -0.356698,2.205362 0,1.454941 -0.500909,1.987771 -0.871521,0.927067 z m 18.081924,-0.221192 c -0.615519,-1.082455 0.07173,-1.844555 0.760899,-0.843767 0.571868,0.830446 0.663265,0.435417 0.145227,-0.627667 -0.303554,-0.622932 -0.567814,-0.705497 -1.64982,-0.515476 -1.139187,0.200063 -1.28837,0.141842 -1.28837,-0.502796 0,-0.588295 0.217765,-0.729057 1.127884,-0.729057 1.582865,0 2.124689,0.298423 2.678907,1.475467 0.635918,1.35058 0.630245,2.288118 -0.01222,2.017361 -0.272219,-0.114728 -0.494946,-0.05064 -0.494946,0.142421 0,0.636054 -0.822793,0.365707 -1.267576,-0.416486 z M 64.505878,38.310581 c -0.260056,-0.744298 -0.04037,-1.006587 0.612598,-0.731396 0.290002,0.122219 0.421021,0.44863 0.308893,0.769544 -0.253831,0.72648 -0.660204,0.709655 -0.921491,-0.03814 z m 3.76705,-3.028428 c 0,-0.560484 -0.219977,-0.724777 -0.970417,-0.724777 -0.533731,0 -1.074881,-0.185633 -1.202558,-0.412517 -0.160324,-0.284902 -1.103241,-0.345003 -3.047942,-0.194277 -2.533763,0.196382 -2.764975,0.162418 -2.308357,-0.33907 0.787389,-0.864761 3.525263,-1.00586 5.747927,-0.296219 1.974715,0.630474 2.828968,1.379971 2.534248,2.223468 -0.252817,0.723574 -0.752901,0.553132 -0.752901,-0.256608 z M 37.57147,53.966363 c 0.0089,-4.561953 -0.112286,-7.493689 -0.315359,-7.631528 -0.181365,-0.123104 -0.329753,-0.462053 -0.329753,-0.753221 0,-0.291168 -0.371302,-1.175372 -0.825114,-1.964897 -1.008816,-1.755103 -2.104866,-2.139423 -3.707593,-1.300034 l -1.163432,0.60932 0.16325,3.516426 c 0.09353,2.014702 0.382624,4.05809 0.676935,4.784784 0.282527,0.697596 0.831167,2.259806 1.219201,3.471573 0.669135,2.089607 3.414044,6.675284 3.995711,6.675284 0.149467,0 0.278238,-3.333468 0.286154,-7.407707 z m -1.964968,3.965023 c 0,-0.29897 0.148484,-0.543582 0.329964,-0.543582 0.18148,0 0.329964,0.244612 0.329964,0.543582 0,0.29897 -0.148484,0.543582 -0.329964,0.543582 -0.18148,0 -0.329964,-0.244612 -0.329964,-0.543582 z m -0.692924,-1.993133 c -0.104163,-2.287939 -0.06248,-2.682956 0.296968,-2.814546 0.257708,-0.09434 0.395956,0.298089 0.395956,1.123964 0,0.697904 0.09013,1.526867 0.200285,1.842137 0.131428,0.376154 0.01798,0.57322 -0.329964,0.57322 -0.299274,0 -0.544622,-0.315708 -0.563245,-0.724775 z m -0.319236,-3.684277 c -0.306378,-1.661915 -0.243882,-2.476315 0.190029,-2.476315 0.270692,0 0.51444,0.32615 0.541662,0.724776 0.02722,0.398626 0.06434,0.915029 0.08249,1.147563 0.02824,0.362083 -0.75206,0.940942 -0.814181,0.603976 z M 34.167688,49.16383 c -0.116053,-0.127457 -0.211005,-1.196597 -0.211005,-2.375868 0,-2.812849 0.721185,-2.6537 0.857741,0.189285 0.09207,1.916759 -0.149322,2.732875 -0.646736,2.186583 z M 33.78667,43.970517 c -0.134474,-0.238963 -0.03987,-0.574096 0.21023,-0.744738 0.548742,-0.374403 0.844551,0.289312 0.36411,0.816963 -0.219814,0.241415 -0.411402,0.217321 -0.57434,-0.07222 z M 29.891559,55.11036 c 0.066,-1.361516 0.0078,-1.687349 -0.208185,-1.165239 -0.3535,0.854589 -0.451489,3.679131 -0.114809,3.309365 0.127258,-0.139763 0.272605,-1.10462 0.322994,-2.144126 z m 3.075232,0.806505 c 0,-0.386864 -0.148484,-0.703387 -0.329964,-0.703387 -0.18148,0 -0.329964,0.417311 -0.329964,0.927357 0,0.525955 0.142823,0.830412 0.329964,0.703387 0.18148,-0.123182 0.329964,-0.540493 0.329964,-0.927357 z m -1.984836,-4.961443 c -0.0028,-0.348798 -0.143275,-0.87422 -0.312213,-1.167605 -0.263127,-0.456954 -0.338419,-0.443966 -0.525196,0.0906 -0.259712,0.743304 0.02431,1.711186 0.502142,1.711186 0.187176,0 0.338046,-0.28538 0.335267,-0.634178 z M 24.38773,49.182559 c 0,-0.407648 -0.14211,-0.434032 -0.66917,-0.12424 -0.368043,0.216325 -0.586013,0.541089 -0.484378,0.721698 0.266543,0.473654 1.153548,0.01425 1.153548,-0.597458 z m -2.639711,-3.747507 c 1.179621,-0.421246 2.590216,-0.999564 3.134657,-1.285151 0.54444,-0.285587 1.620947,-0.624684 2.392238,-0.75355 1.095675,-0.183063 1.402347,-0.388342 1.402347,-0.938695 0,-0.551768 -0.196613,-0.682112 -0.907401,-0.601557 -0.49907,0.05656 -1.055885,0.216539 -1.237365,0.355509 -0.18148,0.138971 -1.592076,0.70567 -3.134657,1.259333 -1.542581,0.553663 -3.361507,1.405472 -4.042057,1.892908 -2.076294,1.487121 -1.611516,1.500955 2.392238,0.0712 z m -5.034204,-1.203677 c 0.58857,-0.437524 1.071142,-0.917805 1.072382,-1.067289 0.0053,-0.639757 -0.969825,-0.179369 -2.170026,1.02453 -1.400871,1.405187 -0.768281,1.429829 1.097644,0.04276 z m 10.791154,0.07952 c -0.10624,-0.188793 -0.33381,-0.247794 -0.50571,-0.131114 -0.171901,0.11668 -0.225623,0.366612 -0.119382,0.555404 0.10624,0.188793 0.33381,0.247793 0.50571,0.131113 0.171901,-0.116679 0.225623,-0.366612 0.119382,-0.555403 z M 23.768951,41.97561 c -0.01135,-0.19342 -0.411922,-0.404911 -0.890165,-0.469981 -1.004018,-0.136608 -2.725854,1.338268 -2.076731,1.77887 0.457891,0.310801 2.996222,-0.80902 2.966896,-1.308889 z m 10.128683,-2.209856 c 1.429122,-1.616119 1.056279,-2.173303 -0.937351,-1.400789 -2.27999,0.883473 -3.138957,2.014979 -2.261342,2.978833 0.541004,0.594166 1.848017,-0.05064 3.198693,-1.578044 z m -17.125802,0.443998 c 0.306854,-0.406065 0.176367,-0.670618 -0.64923,-1.316263 l -1.033271,-0.808052 -0.694382,0.762616 c -0.810019,0.889612 -0.501007,1.501172 0.434357,0.859628 0.890285,-0.610628 1.056514,-0.552352 0.814381,0.285508 -0.248466,0.85977 0.529272,1.009068 1.128145,0.216563 z m 19.789672,-4.39462 c 0.434509,-0.700701 0.693769,-1.379706 0.576133,-1.508902 -0.331577,-0.364161 -1.861099,1.383269 -1.861099,2.12625 0,0.994391 0.406668,0.799013 1.284966,-0.617348 z m 3.334529,-3.250892 c 0,0.161438 0.259846,0.051 0.577437,-0.245415 0.881716,-0.822932 3.693787,-1.995785 5.444404,-2.270737 0.862031,-0.135391 1.567329,-0.399248 1.567329,-0.586349 0,-0.470453 -2.035254,-0.425954 -3.895944,0.08518 -1.753005,0.481553 -5.449056,3.079332 -5.146404,3.617159 0.116108,0.206329 0.459779,0.09399 0.826009,-0.270015 0.344941,-0.342843 0.627169,-0.491267 0.627169,-0.329828 z m 27.26296,-2.808503 c -0.206936,-0.647766 -0.491712,-1.37546 -0.632841,-1.617092 -0.387247,-0.66304 -0.345755,-3.411087 0.06915,-4.57997 0.795028,-2.239759 3.021087,-3.108493 4.317336,-1.684868 0.739651,0.812332 0.806164,1.342329 0.33813,2.694317 -0.39973,1.154685 0.09201,1.231183 0.798033,0.124151 0.646295,-1.013383 0.662496,-2.70677 0.0325,-3.39866 -0.264633,-0.290635 -1.092425,-0.765287 -1.839544,-1.054792 -1.168678,-0.452852 -1.512189,-0.45579 -2.459609,-0.02101 -2.107536,0.967123 -2.4789,1.695712 -2.4789,4.863438 0,3.803793 0.64362,5.828682 1.858409,5.846727 0.277561,0.0042 0.276876,-0.297141 -0.0026,-1.17221 z m -24.45343,-2.077854 c -0.621209,-0.753884 -2.479566,-1.923425 -2.479566,-1.560492 0,0.11097 0.553356,0.827951 1.22968,1.593287 0.776332,0.878504 1.345206,1.264642 1.543033,1.047376 0.19783,-0.217269 0.08975,-0.615498 -0.293147,-1.080171 z m -7.226704,-3.925782 c -0.387618,-0.688814 -6.19134,-1.735342 -10.239685,-1.846426 -0.892807,-0.02449 -2.572463,-0.286302 -3.732569,-0.581787 -2.675123,-0.681367 -2.99955,-0.679879 -2.370623,0.01087 1.199371,1.317228 3.996583,2.037687 8.881351,2.28751 2.631462,0.134583 5.42851,0.292953 6.215662,0.351935 0.799162,0.05988 1.349347,-0.03819 1.245864,-0.22208 z m -3.50196,40.134261 c 0,-0.216229 -0.278773,-0.289635 -0.632159,-0.166451 -0.347687,0.121196 -0.717381,0.06892 -0.821542,-0.116186 -0.190808,-0.339072 1.747999,-0.822642 2.181709,-0.544154 0.307615,0.19752 -0.0552,1.2136 -0.433346,1.2136 -0.162064,0 -0.294662,-0.174061 -0.294662,-0.386809 z m 1.319856,-0.709324 c 0,-0.305826 1.315427,-1.078193 1.836282,-1.078193 0.393934,0 0.07421,1.03882 -0.378432,1.229585 -0.790649,0.333215 -1.45785,0.263927 -1.45785,-0.151392 z m -5.332391,-0.604709 c -0.317497,-0.420151 -0.177007,-0.482526 0.830989,-0.368957 0.667196,0.07517 1.247657,0.286246 1.289914,0.46906 0.124432,0.538313 -1.703674,0.452031 -2.120903,-0.100107 z m -1.571839,-0.621577 c -0.255385,-0.337959 -0.975336,-0.476254 -2.198661,-0.422341 -1.706604,0.07521 -2.50044,-0.212928 -1.833608,-0.665551 0.161171,-0.109398 0.991108,-0.262771 1.844305,-0.340833 1.636938,-0.149764 3.14595,0.378318 3.15027,1.102445 0.0041,0.687384 -0.547978,0.874569 -0.962306,0.32628 z m -7.446947,-0.335089 c -0.454939,-0.166098 -0.827162,-0.451477 -0.827162,-0.634179 0,-0.182705 -0.26125,-0.33219 -0.580556,-0.33219 -0.687506,0 -1.543033,-1.309166 -1.066778,-1.632434 0.175414,-0.119062 0.645823,0.11799 1.045353,0.526782 0.39953,0.408795 0.921145,0.743264 1.159145,0.743264 0.238,0 0.432728,0.162074 0.432728,0.360167 0,0.200962 0.510499,0.288384 1.154873,0.197776 0.956664,-0.134518 1.154874,-0.04742 1.154874,0.507469 0,0.7267 -0.931553,0.825923 -2.472477,0.263345 z m -3.645423,-3.164805 c -0.30368,-0.53965 0.04841,-0.833053 0.680179,-0.5668 0.291549,0.122871 0.437674,0.387627 0.324721,0.588351 -0.267461,0.475286 -0.730905,0.465346 -1.0049,-0.02156 z m -0.819509,-1.992614 c -0.456544,-1.318799 -0.399335,-1.969542 0.173149,-1.969542 0.27222,0 0.494946,0.316525 0.494946,0.703387 0,0.386864 0.141999,0.799772 0.315553,0.917578 0.370645,0.25158 0.08229,1.278137 -0.359023,1.278137 -0.166555,0 -0.447636,-0.4183 -0.624625,-0.92956 z M 27.274914,38.656226 c -0.31759,-0.09116 -0.577437,-0.464653 -0.577437,-0.830005 0,-0.508348 0.174272,-0.615905 0.742419,-0.458199 0.814095,0.225971 1.285489,0.796925 1.031137,1.248915 -0.170926,0.30374 -0.264052,0.3068 -1.196119,0.03928 z m -5.37158,-0.854539 c -0.12837,-0.228116 -0.01341,-0.656368 0.255467,-0.951666 0.431848,-0.474284 0.511086,-0.473316 0.679357,0.0082 0.244248,0.699045 -0.595461,1.546444 -0.934824,0.943387 z m 3.144324,0.04047 c 0,-0.245168 -0.318663,-0.311652 -0.82491,-0.172109 -0.85682,0.23618 -1.019465,-0.0399 -0.526784,-0.894181 0.181682,-0.315029 0.45392,-0.38546 0.737366,-0.190773 0.24714,0.169752 0.672071,0.312952 0.944292,0.31822 0.597295,0.01156 0.664188,0.974384 0.08249,1.187338 -0.22685,0.08305 -0.412454,-0.02876 -0.412454,-0.248495 z m -4.568516,-0.544285 c 0.0627,-0.332452 0.262487,-0.595845 0.443967,-0.585317 0.489762,0.02842 0.399786,0.839153 -0.114004,1.027244 -0.277539,0.1016 -0.401231,-0.06406 -0.329963,-0.441927 z m -1.700798,-0.16345 c 0,-0.177133 -0.519693,-0.429132 -1.154874,-0.560004 -0.691299,-0.142432 -1.154874,-0.44955 -1.154874,-0.765104 0,-0.631227 0.216761,-0.648337 1.683073,-0.132857 0.616891,0.216867 1.323948,0.463409 1.571237,0.547869 0.359866,0.122911 0.368267,0.261217 0.04209,0.69286 -0.451892,0.598001 -0.986651,0.715743 -0.986652,0.217236 z"
     style="fill:#000000;stroke-width:0.34579599" />
</svg>
