<?xml version="1.0" encoding="UTF-8" standalone="no"?>
<svg
   xmlns:dc="http://purl.org/dc/elements/1.1/"
   xmlns:cc="http://creativecommons.org/ns#"
   xmlns:rdf="http://www.w3.org/1999/02/22-rdf-syntax-ns#"
   xmlns:svg="http://www.w3.org/2000/svg"
   xmlns="http://www.w3.org/2000/svg"
   id="svgC5"
   version="1.1"
   viewBox="0 0 100 100"
   height="100"
   width="100">
  <defs
     id="defs2" />
  <metadata
     id="metadata5">
    <rdf:RDF>
      <cc:Work
         rdf:about="">
        <dc:format>image/svg+xml</dc:format>
        <dc:type
           rdf:resource="http://purl.org/dc/dcmitype/StillImage" />
        <dc:title></dc:title>
      </cc:Work>
    </rdf:RDF>
  </metadata>
  <path
     id="pathC5"
     d="M 46.182712,94.040076 C 44.97307,93.64303 43.342551,92.67902 42.559337,91.897837 41.344586,90.686231 41.083843,89.964339 40.785089,86.985684 40.56192,84.76061 40.623852,82.959276 40.955807,82.020261 c 0.623027,-1.762383 -0.286721,-4.11741 -1.786952,-4.625809 -1.261558,-0.42753 -3.014153,0.617831 -2.66493,1.589529 0.15046,0.418646 0.273564,0.856361 0.273564,0.97269 0,0.116319 0.440654,0.211507 0.979231,0.211507 0.763681,0 0.913048,-0.222654 0.678565,-1.011482 -0.165365,-0.556308 -0.08752,-1.01147 0.172991,-1.01147 0.600356,0 1.168878,1.847033 0.776941,2.524155 -0.162446,0.280642 -0.887999,0.510268 -1.612341,0.510268 -1.835356,0 -2.776289,-2.119689 -1.711306,-3.855144 0.961266,-1.566445 2.63217,-1.54304 4.418524,0.06193 1.30248,1.170189 1.431732,1.597633 1.739807,5.753716 0.18304,2.469285 0.57868,5.00543 0.8792,5.635871 0.775231,1.626312 3.497335,3.02413 5.88917,3.02413 3.243487,0 5.005009,-2.663056 4.426225,-6.691535 -0.02922,-0.203402 -0.100496,-2.065629 -0.158381,-4.138252 -0.08591,-3.076299 0.05752,-3.960454 0.78094,-4.813965 1.609464,-1.898893 5.949579,-0.853222 5.949579,1.433438 0,0.960988 -1.398332,2.578385 -2.229167,2.578385 -0.866251,0 -1.680072,-1.467306 -1.328804,-2.395814 0.295651,-0.781482 0.391855,-0.739851 0.779742,0.337434 0.408973,1.135851 0.500938,1.166495 1.214425,0.40468 1.511886,-1.614278 -0.998741,-3.128757 -3.14941,-1.8998 -1.308806,0.747891 -1.522268,2.641168 -0.689235,6.11305 0.999002,4.1636 1.112589,6.660048 0.386882,8.502906 -1.08059,2.744022 -5.086367,4.024582 -8.788355,2.809442 z m 3.857145,-0.722757 c 0.526702,-0.363434 0.238912,-0.492255 -1.112557,-0.497989 -2.247304,-0.0096 -4.763426,-1.23611 -6.011799,-2.93065 -0.517584,-0.702577 -1.05341,-1.15744 -1.190724,-1.01083 -0.552509,0.589931 2.308362,3.400184 4.182948,4.108932 2.411479,0.911734 3.19859,0.974698 4.132132,0.330537 z m 3.292957,-1.395939 c 0.694773,-0.600694 1.098086,-1.628661 1.240135,-3.160852 l 0.210507,-2.270645 -0.595589,1.928918 c -0.327576,1.060917 -1.097537,2.483293 -1.71103,3.160853 -1.285209,1.419428 -0.673127,1.663778 0.855977,0.341726 z M 46.231233,74.984373 c -2.160214,-1.55534 -6.867918,-7.807174 -7.572461,-10.056228 -0.803838,-2.566031 -0.124036,-4.430052 2.056206,-5.638124 2.134172,-1.182553 5.400201,-0.672926 5.159626,0.8051 -0.07655,0.470292 0.118835,0.85507 0.434184,0.85507 0.31535,0 0.434972,-0.147763 0.265828,-0.32837 -0.488246,-0.521308 4.023379,-2.672783 5.641435,-2.69024 0.881588,-0.0096 1.994215,0.469075 2.791871,1.200907 1.17344,1.076592 1.295316,1.462245 1.058323,3.348838 -0.147307,1.172655 -0.826672,3.2822 -1.509694,4.687855 -1.250968,2.574498 -5.827707,8.953103 -6.423976,8.953103 -0.176498,0 -1.032102,-0.512061 -1.901342,-1.137911 z m 3.69021,-2.377353 c 0.846661,-1.088892 1.539383,-2.222692 1.539383,-2.519564 0,-0.296861 0.17925,-0.539748 0.398335,-0.539748 0.537031,0 3.390913,-6.309693 3.390913,-7.497019 0,-1.193124 -1.276129,-2.437199 -2.96035,-2.885998 -1.605874,-0.427925 -1.624825,-0.115357 -0.120678,1.990237 0.650026,0.909962 1.042644,1.803128 0.872474,1.984813 -0.409277,0.437011 -1.580694,-0.623447 -1.580694,-1.43095 0,-0.349115 -0.319718,-0.918066 -0.710484,-1.264341 -0.390767,-0.346265 -0.710485,-0.466149 -0.710485,-0.266388 0,0.661202 1.645491,3.540826 2.367537,4.143207 0.390354,0.325657 0.555367,0.756945 0.366686,0.958394 -0.522827,0.558241 -1.526617,-0.549176 -2.53533,-2.797067 -0.500156,-1.114603 -1.069236,-2.029156 -1.264619,-2.032337 -0.684915,-0.01121 -0.343312,1.095116 0.985121,3.190354 1.952783,3.080004 2.036564,3.278239 1.527459,3.6142 -0.25477,0.168124 -0.902011,-0.612685 -1.438318,-1.735135 -0.536306,-1.12244 -1.183914,-2.040805 -1.43913,-2.040805 -0.255217,0 -0.46403,0.103036 -0.46403,0.229071 0,0.652148 1.239719,3.193845 2.020641,4.142769 0.50559,0.61436 0.695014,1.214894 0.436929,1.385208 -0.250584,0.165359 -0.719003,-0.03823 -1.04093,-0.452387 -0.656085,-0.844072 -1.639271,-1.041068 -1.172669,-0.234954 0.419255,0.724316 -0.216178,3.52781 -0.799605,3.52781 -0.2642,0 -0.587985,-0.439413 -0.719522,-0.97647 -0.1422,-0.58061 -0.50827,-0.866217 -0.902968,-0.704499 -0.931828,0.381788 -0.82816,-0.145585 0.368269,-1.873438 0.567644,-0.819792 0.85818,-1.664003 0.645638,-1.876043 -0.212543,-0.21204 -0.471521,-0.133317 -0.575506,0.174937 -0.103985,0.308243 -0.464682,0.96291 -0.801549,1.454803 -0.512583,0.748478 -0.785461,0.795511 -1.672962,0.288361 -0.987399,-0.56422 -1.010803,-0.686934 -0.339631,-1.780652 0.674401,-1.098971 0.66122,-1.158006 -0.20458,-0.916261 -0.510106,0.142424 -0.925427,0.0053 -0.925427,-0.306321 0,-0.310603 0.190002,-0.564722 0.422227,-0.564722 0.437892,0 1.946053,-3.613763 1.946053,-4.66302 0,-1.036178 -0.800481,0.25602 -1.400482,2.260767 -0.318324,1.063597 -0.875303,1.896512 -1.268217,1.896512 -0.607356,0 -0.602467,-0.14961 0.03673,-1.123999 0.405538,-0.618205 0.728808,-1.47163 0.718378,-1.896512 -0.01043,-0.424881 -0.3653,-0.0898 -0.788601,0.744699 -0.451972,0.890988 -0.853525,1.249596 -0.972879,0.868833 -0.111782,-0.356611 0.134147,-1.198174 0.546509,-1.870139 0.981887,-1.600046 0.225013,-2.069228 -1.011054,-0.626757 -1.941905,2.266181 -1.697109,4.481207 0.835524,7.560218 0.519431,0.631487 1.930803,2.342951 3.136382,3.803274 1.20558,1.460312 2.5358,2.651012 2.956045,2.645993 0.420246,-0.0053 1.456804,-0.900032 2.303464,-1.988934 z M 45.75946,66.309552 c 0.237994,-0.668367 0.659009,-1.364548 0.935589,-1.547065 0.646985,-0.426943 0.657066,-2.295085 0.01239,-2.295085 -0.394006,0 -2.351448,4.034363 -2.351448,4.846424 0,0.746631 1.046706,-0.0021 1.403475,-1.004274 z m 0.01024,-4.251304 c -0.0063,-0.737 -0.07071,-0.750346 -0.466404,-0.09663 -0.599457,0.990415 -0.599457,1.659913 0,1.264341 0.260511,-0.171904 0.470392,-0.697398 0.466404,-1.167754 z m -15.555287,6.469213 c -0.667865,-2.045599 -0.681267,-2.217386 -0.186718,-2.393401 0.548564,-0.195245 1.575408,3.330312 1.067584,3.665419 -0.210672,0.139018 -0.607061,-0.433392 -0.880866,-1.272018 z m -1.015421,0.484664 c 0,-0.294576 0.213145,-0.394932 0.473656,-0.223017 0.260511,0.171904 0.473656,0.412923 0.473656,0.535584 0,0.12266 -0.213145,0.223016 -0.473656,0.223016 -0.260511,0 -0.473656,-0.241008 -0.473656,-0.535583 z m -1.198841,-1.007019 c -0.450076,-0.777563 0.166419,-1.279246 0.77435,-0.630142 0.34017,0.36321 0.348343,0.646083 0.02483,0.859565 -0.265209,0.175012 -0.624842,0.07175 -0.799185,-0.229423 z m 3.742065,-0.281517 c -0.176557,-0.526594 -0.407298,-1.128121 -0.51276,-1.336734 -0.105461,-0.208612 0.01961,-0.3793 0.277944,-0.3793 0.545325,0 1.223084,1.961003 0.824753,2.386311 -0.147909,0.157928 -0.413382,-0.143695 -0.589937,-0.670277 z M 63.564067,67.40942 c -0.440979,-0.672221 -0.551971,-1.214318 -0.269236,-1.314941 0.264575,-0.09417 0.48105,-0.493622 0.48105,-0.887678 0,-0.394046 0.227506,-0.716457 0.505576,-0.716457 0.293974,0 0.376717,0.433487 0.197694,1.03574 -0.169332,0.569655 -0.06678,1.345937 0.227909,1.725056 0.339758,0.437107 0.365933,0.801395 0.07154,0.995668 -0.255334,0.168488 -0.801876,-0.208335 -1.214533,-0.837388 z m 1.906465,-0.160779 c -0.467314,-1.988048 0.194066,-2.720948 1.599053,-1.771971 0.59019,0.398636 0.595675,0.650482 0.03837,1.76233 -0.820718,1.637384 -1.254203,1.639947 -1.637428,0.0096 z m 1.055808,-1.507335 c -0.145834,-0.155717 -0.410684,0.124967 -0.588556,0.623736 -0.257043,0.720781 -0.202639,0.778866 0.265153,0.283108 0.323706,-0.343061 0.469237,-0.751137 0.323403,-0.906844 z M 20.200919,62.593053 c -2.77677,-1.48235 -2.314932,-4.171544 0.716414,-4.171544 1.838986,0 2.637314,1.382976 1.369646,2.372708 -0.81389,0.635438 -1.613795,0.465658 -1.613795,-0.342528 0,-0.241349 0.373004,-0.519108 0.828898,-0.617265 0.751985,-0.1619 0.756257,-0.20905 0.04604,-0.508079 -0.430572,-0.1813 -1.17658,-0.0043 -1.657796,0.394238 -0.848965,0.702384 -0.847877,0.746204 0.03665,1.47636 1.035577,0.854824 2.956339,0.644588 3.966682,-0.434181 1.668559,-1.781582 -1.90969,-3.524287 -6.259311,-3.048475 -3.427591,0.374955 -7.398227,-0.43133 -9.3612412,-1.9009 -5.50327,-4.119919 -3.753603,-13.206489 2.9066472,-15.095131 2.254663,-0.639356 7.857605,-0.272132 8.331187,0.546037 0.316577,0.546933 2.605698,-0.618087 3.516245,-1.789536 0.816389,-1.050315 0.02105,-3.053535 -1.366115,-3.440865 -1.299801,-0.362921 -1.780229,0.533502 -0.726735,1.356006 1.112001,0.868181 0.237152,1.375353 -1.077042,0.624387 -0.923356,-0.52764 -0.974802,-0.736179 -0.455815,-1.847664 0.807628,-1.729657 1.83381,-1.795515 3.576824,-0.229519 1.906961,1.713279 1.915458,3.294725 0.02682,4.991539 -0.80152,0.72012 -1.600815,1.338346 -1.77621,1.373848 -0.733372,0.148425 -2.423337,0.334018 -5.893433,0.647204 -4.701682,0.424337 -5.8041392,0.894992 -6.7705642,2.890429 -0.985104,2.034003 -0.709091,6.093137 0.512309,7.534176 1.1140112,1.314343 4.8323742,2.489614 8.9706602,2.835377 1.843667,0.154041 4.086775,0.70641 5.091802,1.253856 1.555815,0.847478 1.796402,1.212482 1.796402,2.725347 0,1.422857 -0.259161,1.889903 -1.397446,2.5184 -1.694991,0.935887 -1.348407,0.947738 -3.337723,-0.114225 z M 11.436892,55.788531 C 9.3798098,55.021004 8.1002188,53.598628 7.4807318,51.390927 c -0.749506,-2.671053 -0.691619,-3.449738 0.442395,-5.950958 1.036111,-2.285283 1.639648,-2.625653 6.5925292,-3.718005 2.033849,-0.448553 1.999046,-0.459796 -0.760029,-0.245364 -4.0865282,0.317607 -5.1517972,0.892173 -6.6227112,3.572099 -1.667944,3.038897 -1.63414,5.762461 0.101682,8.192368 1.217237,1.703968 3.4915392,3.138046 4.9127782,3.097771 0.390766,-0.0111 0.07105,-0.258711 -0.710484,-0.550307 z m 62.577413,5.938625 c -1.311336,-2.136911 -0.372218,-4.41678 2.587369,-6.281249 1.344577,-0.847041 2.654217,-1.086981 6.695403,-1.226608 5.515582,-0.190579 7.227952,-0.883087 7.75785,-3.137362 0.774447,-3.294629 -1.546728,-5.328269 -7.148667,-6.263152 -5.408304,-0.902562 -6.090397,-1.082912 -7.578496,-2.003818 -1.079292,-0.667918 -1.453859,-1.299032 -1.55776,-2.624703 -0.190642,-2.432427 0.992536,-3.185913 3.233214,-2.05902 1.766817,0.888575 2.491676,2.875107 1.236715,3.389293 -0.810652,0.332149 -2.675341,-0.593198 -2.675341,-1.327625 0,-0.276478 0.405771,-0.22165 0.92577,0.125084 1.239515,0.826519 1.926998,0.0085 0.759166,-0.902957 -1.214719,-0.948379 -2.461656,-0.909919 -2.819939,0.08702 -0.411991,1.146346 0.03927,1.701128 2.259164,2.777474 1.471876,0.713649 3.085442,0.950439 6.533478,0.95881 5.519523,0.01335 8.387998,1.077328 9.861433,3.657689 1.407412,2.464746 1.217277,4.130554 -0.734783,6.437586 -1.333138,1.575573 -2.204982,2.103961 -4.14449,2.511791 -2.653009,0.557867 -8.104103,0.458771 -9.435313,-0.171521 -1.686874,-0.798682 -5.955116,3.118262 -5.320895,4.882962 0.359012,0.998936 1.39424,1.474929 2.353237,1.081994 1.027165,-0.420856 0.872763,-1.031074 -0.347072,-1.37168 -0.783597,-0.218788 -0.91947,-0.442723 -0.524507,-0.864444 0.728269,-0.777595 2.529375,0.264989 2.529375,1.464145 0,2.315841 -3.174642,2.930298 -4.444911,0.860323 z m 18.618157,-8.90765 c 1.713479,-1.829533 1.894473,-3.78304 0.522973,-5.644712 -1.057176,-1.435007 -4.027194,-3.103569 -4.88921,-2.746766 -0.313891,0.129922 0.107942,0.503873 0.937413,0.830993 3.095749,1.220863 4.020643,5.351246 1.742874,7.783288 -0.913071,0.974912 -1.050185,1.333306 -0.510094,1.333306 0.406254,0 1.394471,-0.700249 2.196044,-1.556109 z M 34.17238,57.99825 c -1.613712,-0.583076 -5.120159,-2.658016 -7.10484,-4.204302 -1.042043,-0.811869 -2.800491,-2.152457 -3.907662,-2.979083 -1.107171,-0.826625 -2.009905,-1.672213 -2.006077,-1.879086 0.0038,-0.206872 1.975422,-1.79386 4.381318,-3.526635 6.667056,-4.80175 11.706304,-5.653638 14.520868,-2.454753 1.307995,1.486589 1.026434,3.834387 -0.626312,5.222489 -1.048706,0.880791 -1.051685,0.916133 -0.202955,2.408413 1.227766,2.158725 1.087127,4.024656 -0.436194,5.787243 -1.381344,1.598295 -3.059263,2.188973 -4.618146,1.625714 z m 3.810778,-2.335306 c 1.158388,-1.236847 1.5148,-2.2988 0.771519,-2.2988 -0.2151,0 -0.89169,0.56895 -1.503533,1.264341 -1.248454,1.418927 -1.894624,1.608439 -1.894624,0.555689 0,-0.389753 0.772871,-1.195536 1.717492,-1.790625 0.94462,-0.595088 1.600118,-1.207303 1.456663,-1.360479 -0.424811,-0.453582 -2.136927,0.304121 -3.544258,1.568516 -1.14867,1.032003 -1.422889,1.092682 -2.199179,0.486596 -0.733075,-0.572346 -0.782489,-0.826721 -0.284941,-1.466836 0.410422,-0.528024 0.432784,-0.774413 0.07028,-0.774413 -0.292409,0 -0.531653,0.227586 -0.531653,0.50574 0,0.977421 -1.507728,0.4909 -2.819626,-0.909844 -0.735197,-0.784995 -1.826699,-1.404534 -2.450259,-1.390781 -1.399374,0.03086 -1.749242,-0.964214 -0.368017,-1.046717 0.552975,-0.03299 1.154423,-0.317479 1.33655,-0.632128 0.237546,-0.410392 0.590997,-0.362227 1.25052,0.170399 1.040189,0.840047 2.10352,1.000996 2.10352,0.318386 0,-0.250948 -0.639436,-0.694269 -1.420968,-0.985162 -0.781532,-0.290902 -1.420968,-0.768327 -1.420968,-1.060949 0,-0.733434 0.223191,-0.680186 2.00159,0.477542 0.852957,0.555262 1.923834,1.010435 2.379728,1.011471 0.455894,0.0011 0.828898,0.229466 0.828898,0.50763 0,0.278155 0.545442,0.50573 1.212094,0.50573 0.687449,0 1.085385,-0.218905 0.919358,-0.50573 -0.161005,-0.278164 -0.611568,-0.50574 -1.001252,-0.50574 -1.124283,0 -4.919448,-1.993045 -4.919448,-2.583468 0,-0.294383 0.159859,-0.449503 0.355242,-0.344727 0.195383,0.104744 1.420968,0.692668 2.723522,1.30642 1.302554,0.613742 2.738392,1.343503 3.190751,1.6217 1.050184,0.645848 1.782637,0.64588 1.782637,7.5e-5 0,-0.278154 -0.333491,-0.505741 -0.741091,-0.505741 -1.084876,0 -5.416437,-2.072004 -5.416437,-2.590952 0,-0.629533 0.210677,-0.573584 2.374151,0.630462 1.061316,0.590647 2.050071,0.945357 2.197233,0.78823 0.147162,-0.157127 -0.475459,-0.61718 -1.383602,-1.022319 -1.831564,-0.817112 -2.506816,-1.615859 -1.77454,-2.099081 0.26476,-0.174713 0.481382,-0.104638 0.481382,0.155643 0,0.548353 4.711305,2.81636 5.065279,2.438405 0.130205,-0.139018 -0.622037,-0.720557 -1.67165,-1.292294 -1.936798,-1.055002 -2.914845,-2.065458 -1.999217,-2.065458 0.276654,0 1.514818,0.673683 2.751476,1.497063 2.471798,1.645766 3.303117,1.169217 1.436724,-0.823582 -1.655721,-1.767861 -5.117536,-1.723284 -8.496642,0.10942 -1.773967,0.962142 -7.980058,5.267793 -7.980058,5.536402 0,0.09503 0.751661,0.668793 1.670359,1.275039 0.918697,0.606236 1.966881,1.418863 2.329298,1.805819 1.284112,1.371082 7.624409,4.746346 8.928999,4.75335 0.781039,0.0043 1.800904,-0.502004 2.486694,-1.234242 z M 35.09717,52.391581 c 0.148617,-0.256756 0.907205,-0.616208 1.68575,-0.798789 1.339116,-0.314041 2.011627,-1.263071 0.895049,-1.263071 -0.864049,0 -3.742417,1.600217 -3.742417,2.080567 0,0.589664 0.817089,0.576499 1.161618,-0.01868 z m -3.766726,-2.06186 c 0.161005,-0.278154 0.07959,-0.50573 -0.18092,-0.50573 -0.260511,0 -0.605387,0.227576 -0.766392,0.50573 -0.161005,0.278154 -0.07959,0.505741 0.180921,0.505741 0.26051,0 0.605386,-0.227587 0.766391,-0.505741 z m 2.131452,0 c 0,-0.278154 -0.200566,-0.50573 -0.445702,-0.50573 -0.245137,0 -0.577433,0.227576 -0.738438,0.50573 -0.161005,0.278154 0.03956,0.505741 0.445702,0.505741 0.406141,0 0.738438,-0.227587 0.738438,-0.505741 z m 24.409768,6.522183 c -1.86044,-1.744115 -2.192175,-3.690885 -0.968674,-5.684645 0.635618,-1.035783 0.615639,-1.33826 -0.20146,-3.049489 -0.698562,-1.462992 -0.803212,-2.217759 -0.455259,-3.283492 0.628025,-1.923568 2.941598,-3.290753 4.973033,-2.938765 1.814041,0.314318 6.795836,2.882239 8.950932,4.613862 0.781532,0.627963 2.11369,1.522699 2.96035,1.988304 0.84666,0.465605 1.539382,1.03795 1.539382,1.271879 0,0.772118 -8.840978,7.66255 -10.472817,8.162258 -2.884807,0.883386 -4.531055,0.602338 -6.325487,-1.079912 z m 7.568052,-1.024348 c 1.045364,-0.519632 3.258346,-2.117756 4.917737,-3.551364 l 3.01708,-2.606573 -1.365318,-0.74472 c -0.75093,-0.409592 -1.685041,-1.034651 -2.075807,-1.38902 -0.390765,-0.354369 -2.370458,-1.551667 -4.399316,-2.660654 -3.142343,-1.717634 -3.933756,-1.957382 -5.342058,-1.61824 -2.188263,0.526957 -3.047337,1.354394 -3.047337,2.935114 v 1.301626 l 1.561933,-1.616414 c 0.85906,-0.889034 1.8715,-1.608855 2.249866,-1.599598 0.459868,0.01121 0.312376,0.35076 -0.444891,1.024113 -0.623057,0.554013 -0.995218,1.154226 -0.827032,1.333808 0.168186,0.17957 0.798267,-0.167484 1.400179,-0.771253 0.601913,-0.603769 1.347083,-1.097754 1.65593,-1.097754 1.07698,0 0.540764,0.766822 -1.336728,1.911609 -1.04004,0.634157 -1.890977,1.381802 -1.890977,1.66144 0,0.563836 1.322893,-0.07709 3.461279,-1.676986 1.52279,-1.13931 2.473972,-0.698284 1.037709,0.48114 -0.90922,0.746642 -0.895176,0.76458 0.355986,0.454757 0.828647,-0.205196 1.302554,-0.115358 1.302554,0.246934 0,0.313207 0.312892,0.441271 0.695313,0.284582 0.382425,-0.15669 0.826653,-0.05798 0.987175,0.219333 0.160522,0.277321 0.69887,0.366295 1.196327,0.197711 0.684973,-0.232124 0.835425,-0.114386 0.619949,0.485166 -0.213353,0.593646 0.02435,0.791678 0.950291,0.791678 0.679151,0 1.234816,0.227576 1.234816,0.50573 0,0.278154 -0.532863,0.505741 -1.18414,0.505741 -0.651276,0 -1.184139,0.251931 -1.184139,0.559843 0,0.307911 -0.302079,0.436082 -0.671284,0.284806 -0.369206,-0.151276 -0.794918,0.06897 -0.946029,0.489415 -0.232678,0.647428 -0.46728,0.602744 -1.532476,-0.291885 -0.691755,-0.580995 -1.384719,-0.920757 -1.539922,-0.755045 -0.155203,0.165711 0.09048,0.592259 0.545965,0.947877 0.732888,0.572196 1.161025,1.799401 0.62776,1.799401 -0.110215,0 -0.839826,-0.682738 -1.621358,-1.517201 -0.800275,-0.854471 -1.902406,-1.504217 -2.523132,-1.487475 -1.031249,0.02787 -1.04553,0.06855 -0.221951,0.632171 2.151966,1.472836 3.145867,2.505021 3.145867,3.267028 0,0.587945 -0.468744,0.336014 -1.650701,-0.887177 -0.907885,-0.939559 -1.761773,-1.589689 -1.897527,-1.444734 -0.135755,0.144944 0.180771,0.676716 0.703388,1.18172 1.096893,1.059903 1.225491,1.77288 0.31977,1.77288 -0.346744,0 -0.924458,-0.586568 -1.283806,-1.303495 -0.609131,-1.215258 -2.348652,-2.663163 -2.348652,-1.954917 0,0.174532 0.42629,0.895975 0.947312,1.603207 1.034138,1.403733 1.204375,2.160945 0.485819,2.160945 -0.253822,0 -0.829248,-0.739637 -1.278729,-1.643641 -0.657193,-1.321774 -0.853485,-1.461497 -1.002341,-0.713489 -0.243762,1.224889 1.586842,3.261679 3.156098,3.511559 1.543522,0.245792 2.611246,-0.0126 5.039548,-1.219699 z m -5.453083,-6.003565 c 0,-0.278154 -0.200565,-0.505741 -0.445701,-0.505741 -0.245136,0 -0.577434,0.227587 -0.738439,0.505741 -0.161005,0.278154 0.03955,0.50573 0.445701,0.50573 0.406141,0 0.738439,-0.227576 0.738439,-0.50573 z m 2.915046,-0.629971 c -0.542422,-0.579168 -1.632574,-0.01847 -1.249808,0.642827 0.14285,0.246784 0.586945,0.314627 0.986877,0.150774 0.47492,-0.194594 0.566123,-0.469876 0.262931,-0.793601 z m 3.242483,0.12423 c 0,-0.278154 -0.307138,-0.50573 -0.682529,-0.50573 -0.375391,0 -0.814262,0.227576 -0.975267,0.50573 -0.161005,0.278155 0.146132,0.505741 0.682529,0.505741 0.536396,0 0.975267,-0.227586 0.975267,-0.505741 z m -21.711724,4.818076 c -2.300312,-2.218945 -2.895761,-4.442769 -1.797033,-6.711384 1.289957,-2.663451 5.77913,-3.991098 9.031196,-2.670925 2.506725,1.01761 3.619229,4.780577 2.408953,8.148121 -0.382563,1.064472 -3.173756,2.44747 -5.679651,2.814214 -1.842611,0.269655 -2.189189,0.131502 -3.963465,-1.580026 z m 6.268156,-0.24625 c 1.83688,-0.745681 3.128512,-2.396241 3.128512,-3.997889 0,-2.0215 -1.613495,-4.01194 -3.569832,-4.403818 -2.040361,-0.408695 -4.171173,0.105599 -3.713507,0.896231 0.226283,0.390938 0.05613,0.463053 -0.527918,0.223753 -1.146272,-0.469662 -3.082832,1.478624 -3.082832,3.101498 0,0.720824 0.66417,1.935911 1.610431,2.94626 1.713603,1.829662 3.704514,2.2288 6.155146,1.233965 z m -2.80547,-2.066089 c -0.173563,-0.29985 -0.840552,-0.758301 -1.482199,-1.018774 -0.641648,-0.260472 -1.028257,-0.712656 -0.859133,-1.00484 0.210013,-0.362814 0.523002,-0.340275 0.98726,0.07111 0.373869,0.331306 0.811557,0.461643 0.97264,0.289653 0.161083,-0.171989 0.03901,-0.639324 -0.271275,-1.038516 -0.331966,-0.427092 -0.381833,-0.846111 -0.121164,-1.018133 0.575632,-0.379856 1.28872,0.610538 1.670892,2.320667 0.310451,1.389201 -0.327109,2.383418 -0.897021,1.398822 z m 1.820215,-1.685507 c 0.13777,-0.383336 0.03543,-0.926597 -0.227422,-1.20726 -0.321447,-0.343211 -0.309038,-0.621718 0.0379,-0.85066 0.294336,-0.194231 0.718811,0.229701 0.988582,0.987319 0.61434,1.725269 0.607439,1.767583 -0.288392,1.767583 -0.452076,0 -0.659443,-0.283023 -0.51067,-0.696982 z m -6.122832,-7.890456 c -0.550168,-0.237356 -1.464339,-1.061419 -2.03149,-1.831274 -1.285043,-1.744317 -1.048596,-3.283139 1.178953,-7.672714 1.555757,-3.065761 5.869273,-9.634283 6.352575,-9.673554 0.130256,-0.01068 0.982837,1.042147 1.894625,2.339406 0.911788,1.297249 2.209804,3.007879 2.884484,3.801405 1.802858,2.120404 3.275474,5.318371 3.594912,7.806779 0.258896,2.01677 0.151859,2.31882 -1.361884,3.843153 -2.023852,2.038018 -4.114176,2.330864 -6.001715,0.840837 L 48.761434,40.643045 47.15078,41.69147 c -1.762209,1.147083 -2.075765,1.196124 -3.558273,0.556554 z m 0.547099,-2.008901 c -0.777854,-0.917735 -0.976129,-2.047072 -0.359401,-2.047072 0.204343,0 0.749257,0.682738 1.210919,1.517211 0.797146,1.440858 1.733141,2.023945 1.733141,1.079678 0,-0.500723 -1.860786,-3.179688 -2.575061,-3.707296 -0.261948,-0.193494 -0.304235,-0.534868 -0.09397,-0.758611 0.376615,-0.400751 1.242761,0.518596 2.701862,2.867836 0.458503,0.738217 0.96627,1.049642 1.325196,0.812798 0.420209,-0.2773 0.234363,-0.755045 -0.668879,-1.71946 -0.687919,-0.734513 -1.57223,-1.999228 -1.965134,-2.810489 -0.654789,-1.35198 -0.648538,-1.448022 0.07495,-1.151588 0.621777,0.254749 0.725704,0.109378 0.489605,-0.684885 -0.164845,-0.554568 -0.09216,-1.008299 0.161512,-1.008299 0.253677,0 0.349754,-0.455163 0.213504,-1.011471 -0.138504,-0.565512 -0.01453,-1.011471 0.281171,-1.011471 0.290895,0 0.528899,0.327943 0.528899,0.728757 0,0.813899 0.861062,1.55486 1.28315,1.104182 0.150046,-0.160202 0.06238,-0.581261 -0.194814,-0.935672 -0.989954,-1.364174 -1.109701,-2.461629 -0.251873,-2.308357 0.456633,0.08158 0.849653,-0.190098 0.885111,-0.611851 0.122915,-1.46201 0.176453,-1.574666 0.611811,-1.287372 0.267929,0.176805 0.269713,0.918888 0.0046,1.905961 -0.486149,1.809908 0.207028,3.200017 0.725665,1.455261 0.173677,-0.584314 0.507879,-1.06238 0.742656,-1.06238 0.234782,0 0.304187,0.341364 0.154237,0.758601 -0.149955,0.417236 -0.03671,0.758611 0.251691,0.758611 0.288386,0 0.490495,0.170676 0.449135,0.3793 -0.04135,0.208613 0.07798,0.749642 0.265205,1.202295 0.20461,0.49469 -0.04811,1.503417 -0.633515,2.528683 -1.311279,2.296525 -1.208733,3.063572 0.169086,1.2648 0.611864,-0.798801 1.344022,-1.367762 1.627022,-1.264341 0.283,0.103356 -0.465234,1.278339 -1.662741,2.61094 -1.197511,1.332612 -2.034841,2.575032 -1.860735,2.760924 0.174105,0.185902 1.138481,-0.676834 2.143058,-1.917183 1.004577,-1.24036 1.9872,-2.087689 2.183611,-1.882973 0.196406,0.204727 -0.219521,0.856522 -0.924288,1.448428 -0.704767,0.591918 -1.164904,1.200598 -1.022523,1.352621 0.142376,0.152013 0.687772,-0.138046 1.211986,-0.644588 0.524214,-0.506541 1.090924,-0.773837 1.259352,-0.593999 0.168432,0.179827 -0.259166,0.801833 -0.950216,1.382229 -0.691045,0.580396 -1.256448,1.28166 -1.256448,1.558373 0,0.745584 1.959865,-0.02018 3.242099,-1.266819 2.056951,-1.999782 0.798258,-5.937792 -3.952583,-12.366271 -1.042043,-1.410011 -2.164983,-2.576623 -2.49542,-2.592458 -0.761837,-0.03652 -5.909074,8.292201 -6.986795,11.305312 -0.803808,2.247292 -0.800612,2.285966 0.308926,3.738291 0.616625,0.807139 1.396769,1.35922 1.733655,1.226853 0.47897,-0.188198 0.453153,-0.428693 -0.118414,-1.103039 z m 4.464399,-2.679243 c -0.0082,-0.347695 -0.576135,-1.06932 -1.262107,-1.603612 -1.269095,-0.988482 -1.163988,-0.392721 0.238307,1.350742 0.844997,1.050582 1.043738,1.099665 1.0238,0.25287 z m 1.902257,-2.384186 c 0.0061,-0.617457 -0.120148,-0.604517 -0.759278,0.07794 -0.422308,0.450913 -0.608423,1.091593 -0.414449,1.426711 0.40987,0.708097 1.161493,-0.255412 1.173727,-1.504612 z m -1.887373,-0.776667 c 0,-0.786703 -0.268405,-1.264341 -0.710484,-1.264341 -0.852706,0 -0.93241,1.077959 -0.142096,1.921796 0.784002,0.8371 0.85258,0.784226 0.85258,-0.657455 z m 18.498603,-0.852549 c -0.328694,-0.875069 -0.447202,-0.947076 -0.469649,-0.285362 -0.0356,1.04945 -0.977337,1.211136 -0.977337,0.167805 0,-1.064879 0.520605,-2.317176 0.963298,-2.317176 0.622744,0 1.85245,2.992002 1.362571,3.315268 -0.241593,0.159422 -0.637091,-0.236812 -0.878883,-0.880535 z m -35.550219,0.139659 c 0,-0.285842 -0.291706,-0.400185 -0.648235,-0.254109 -0.38455,0.157564 -0.751805,-0.157277 -0.902845,-0.773976 -0.443146,-1.809364 0.586626,-1.781443 1.929322,0.05232 0.413878,0.565234 0.452611,0.947214 0.118414,1.167754 -0.273161,0.180254 -0.496656,0.09385 -0.496656,-0.191978 z m 0.640204,-1.876706 c -1.071119,-1.19748 -1.010927,-1.829319 0.129746,-1.361953 0.82129,0.336506 1.741761,2.045119 1.244369,2.309841 -0.196088,0.104317 -0.814439,-0.322188 -1.374115,-0.947888 z m 36.304965,0.819515 c 0,-0.278155 0.213145,-0.50573 0.473656,-0.50573 0.260511,0 0.473656,0.227575 0.473656,0.50573 0,0.278154 -0.213145,0.50574 -0.473656,0.50574 -0.260511,0 -0.473656,-0.227586 -0.473656,-0.50574 z M 36.002165,24.766773 c -1.094451,-1.168576 -1.143453,-1.388048 -0.530111,-2.374352 1.080986,-1.738317 2.038555,-2.176834 3.530307,-1.616681 1.880362,0.706078 1.897958,2.932743 0.02499,3.162849 -0.716405,0.08798 -1.302555,-0.08264 -1.302555,-0.3793 0,-0.296637 0.426291,-0.539332 0.947312,-0.539332 1.250158,0 1.21504,-0.852581 -0.05282,-1.282236 -1.39497,-0.472737 -2.732474,0.966541 -2.022839,2.176759 0.801178,1.366341 3.393022,1.408655 4.720519,0.07709 1.071039,-1.074328 1.111021,-1.359134 0.910316,-6.48431 -0.272338,-6.9544 0.190221,-8.773629 2.677703,-10.53125 1.632578,-1.153575 2.450547,-1.36679 5.308617,-1.38382 3.788259,-0.02253 5.859168,1.070655 7.17506,3.787663 0.821069,1.695309 1.010039,10.605703 0.224925,10.605703 -0.296565,0 -0.431595,-1.781848 -0.355242,-4.687706 0.111665,-4.249862 0.02008,-4.828529 -0.980387,-6.195276 -1.168562,-1.596351 -3.328386,-2.695899 -5.290799,-2.693497 -0.896305,0.001 -0.693864,0.186736 0.832834,0.763672 3.103219,1.17272 4.416728,3.938886 4.654655,9.802386 0.250792,6.180552 1.245621,8.019524 4.355736,8.051705 1.691407,0.01751 2.625182,-1.276748 1.475126,-2.044584 -0.444313,-0.296647 -0.711308,-0.196996 -0.814234,0.303908 -0.201829,0.982215 -0.855867,0.950567 -1.218688,-0.05894 -0.649761,-1.807943 1.363087,-2.399775 2.719387,-0.79958 2.7277,3.218222 -2.299121,5.18987 -5.484572,2.151187 -1.513056,-1.443336 -1.552777,-1.589753 -1.817877,-6.701006 -0.233906,-4.509844 -0.444749,-5.518453 -1.539671,-7.36524 -1.388916,-2.342663 -2.40694,-2.812752 -5.56897,-2.57152 -1.980554,0.151095 -2.154615,0.291416 -3.227412,2.601779 -0.766851,1.651479 -1.257358,3.870017 -1.51514,6.852869 -0.209653,2.425945 -0.591787,5.002248 -0.849188,5.725112 -1.080973,3.035747 -4.853126,3.924386 -6.986991,1.64599 z m 8.332456,-14.415511 c 0.01175,-0.431149 0.273586,-1.053197 0.581857,-1.382346 0.308271,-0.32916 0.431875,-0.735783 0.274675,-0.903641 -0.502357,-0.536374 -1.818136,2.136356 -2.045148,4.15429 l -0.21937,1.950005 0.693312,-1.517212 c 0.381321,-0.834462 0.702925,-1.869957 0.714674,-2.301096 z"
     style="fill:#000000;stroke-width:0.48943344" />
</svg>
