<?xml version="1.0" encoding="UTF-8" standalone="no"?>
<svg
   xmlns:dc="http://purl.org/dc/elements/1.1/"
   xmlns:cc="http://creativecommons.org/ns#"
   xmlns:rdf="http://www.w3.org/1999/02/22-rdf-syntax-ns#"
   xmlns:svg="http://www.w3.org/2000/svg"
   xmlns="http://www.w3.org/2000/svg"
   id="svgC6"
   version="1.1"
   viewBox="0 0 100 100"
   height="100"
   width="100">
  <defs
     id="defs2" />
  <metadata
     id="metadata5">
    <rdf:RDF>
      <cc:Work
         rdf:about="">
        <dc:format>image/svg+xml</dc:format>
        <dc:type
           rdf:resource="http://purl.org/dc/dcmitype/StillImage" />
        <dc:title></dc:title>
      </cc:Work>
    </rdf:RDF>
  </metadata>
  <path
     id="pathC6"
     d="M 45.284281,93.821019 C 44.881488,93.17258 43.465144,91.484495 42.136844,90.069717 40.808541,88.654941 39.241233,86.822163 38.653928,85.996876 38.066625,85.171589 35.654596,82.298435 33.293861,79.612087 30.93313,76.92574 28.396047,73.996787 27.655898,73.103301 26.915749,72.209814 25.099019,70.130143 23.618722,68.481817 19.427571,63.814927 15.136563,58.630281 14.691146,57.695002 14.468591,57.227684 13.482182,56.025085 12.499124,55.022557 11.516068,54.02003 9.806202,52.042236 8.699414,50.62746 7.592631,49.212683 6.509986,48.10337 6.293539,48.162318 6.077093,48.221268 5.9,47.88365 5.9,47.412059 c 0,-0.471593 0.252323,-0.862152 0.56072,-0.867914 0.308394,-0.0057 3.083954,-2.30209 6.167909,-5.102958 3.083954,-2.800868 5.708119,-4.992234 5.831477,-4.869698 0.123359,0.122538 -2.383311,2.601223 -5.57037,5.508191 -5.298854,4.833163 -5.740238,5.351602 -5.158616,6.059149 1.571637,1.911908 2.206056,1.839137 2.206056,-0.253052 0,-2.127404 1.200657,-3.277703 4.737885,-4.539177 2.303769,-0.821587 2.680676,-1.11647 2.932766,-2.294486 0.538025,-2.514203 2.853436,-4.039651 6.230562,-4.104834 1.870478,-0.0361 2.030431,-0.129615 2.245016,-1.312538 0.264609,-1.45866 2.994589,-3.208996 5.023513,-3.220841 1.332098,-0.0078 2.605042,1.330874 2.36985,2.492179 -0.07977,0.393894 -0.160483,0.856415 -0.179359,1.027826 -0.06555,0.595218 -2.240686,1.689755 -2.754669,1.386155 -0.342971,-0.202583 -0.09777,-0.624761 0.728653,-1.254559 2.514492,-1.916242 0.09282,-3.223243 -2.823449,-1.523843 -1.121407,0.653479 -1.516373,1.237183 -1.73949,2.570717 -0.283724,1.695778 -0.320753,1.725279 -2.16599,1.725279 -2.440003,0 -4.361668,1.757204 -4.553972,4.16424 -0.07135,0.892913 -0.141625,1.748973 -0.156185,1.902352 -0.01458,0.153383 -0.72654,0.216693 -1.582174,0.140689 -2.062805,-0.183231 -4.33264,1.277989 -4.894687,3.15099 -0.577963,1.926034 0.641673,3.070567 3.776798,3.544226 1.286118,0.194309 2.417236,0.428638 2.513595,0.520732 0.09636,0.09209 -0.06406,1.158102 -0.356496,2.368906 -0.467573,1.935976 -0.438111,2.30029 0.244312,3.020982 0.757517,0.799991 4.196205,1.882441 5.279129,1.661788 0.368437,-0.07507 0.507522,0.446438 0.432179,1.620468 -0.08642,1.346635 0.139333,1.989428 1.016356,2.893861 1.342455,1.384423 1.64279,1.417477 3.027039,0.33318 0.90954,-0.712452 0.981155,-0.95166 0.507459,-1.695005 -0.365889,-0.574164 -0.397019,-0.956754 -0.09249,-1.136632 0.836481,-0.494091 1.816726,0.748083 1.676227,2.124119 -0.103805,1.016698 -0.508401,1.513731 -1.748972,2.148567 l -1.613921,0.82589 -1.420731,-0.966871 c -1.539439,-1.047659 -2.953625,-3.243092 -2.520486,-3.912904 0.147999,-0.228872 0.0048,-0.429148 -0.318102,-0.445063 -2.217999,-0.109293 -3.772782,-0.525044 -4.943829,-1.321997 -1.390897,-0.946567 -2.596277,-3.099578 -2.596277,-4.637381 0,-0.592431 -0.294207,-0.871211 -0.919426,-0.871211 -0.505688,0 -1.565447,-0.319199 -2.35502,-0.70933 -1.3952,-0.689369 -1.416664,-0.686501 -0.76273,0.102027 0.370074,0.446246 1.379368,1.465199 2.242876,2.264333 0.863507,0.799138 1.515165,1.633951 1.44813,1.855141 -0.188487,0.621914 1.674384,2.915297 2.2773,2.80359 0.294818,-0.05462 0.476719,0.2383 0.404224,0.650943 -0.08088,0.460364 0.152009,0.75026 0.602715,0.75026 0.403987,0 0.840097,0.385848 0.969133,0.857441 0.129032,0.471592 0.507519,0.85744 0.841075,0.85744 0.33356,0 0.501736,0.260851 0.37373,0.579664 -0.128947,0.32115 0.283814,0.903142 0.925523,1.304994 0.637044,0.398933 1.05317,0.887846 0.924724,1.086476 -0.128444,0.19863 0.188222,0.466554 0.703702,0.595389 0.570731,0.142644 0.81053,0.430186 0.613226,0.735307 -0.192748,0.298068 0.341759,1.050948 1.319353,1.858377 0.903853,0.746526 1.903749,1.836269 2.221996,2.421656 0.318251,0.585388 0.807188,1.018426 1.086534,0.962306 0.279345,-0.05612 0.40282,0.159677 0.274389,0.479554 -0.137394,0.342195 0.146217,0.676503 0.689006,0.812163 0.507388,0.126811 0.922523,0.549401 0.922523,0.939085 0,0.389686 0.186423,0.598404 0.414272,0.463816 0.22785,-0.134588 0.847175,0.336339 1.376274,1.046497 0.529095,0.710162 1.118154,1.291202 1.309019,1.291202 0.586449,0 1.546476,-3.593057 1.006033,-3.765231 -0.260694,-0.08305 -1.139708,-0.578295 -1.953365,-1.100537 -1.152476,-0.739718 -1.509829,-1.296797 -1.617199,-2.521068 -0.299101,-3.410434 2.576064,-4.910573 4.549176,-2.373566 1.236506,1.589887 0.680632,1.940778 -0.813039,0.513225 -1.022953,-0.977679 -1.299154,-1.063307 -1.812355,-0.561885 -0.333014,0.325369 -0.73404,1.093429 -0.891171,1.706804 -0.230667,0.900415 -0.01781,1.33067 1.105123,2.233722 0.764951,0.615175 2.108222,1.247126 2.985053,1.404337 1.35881,0.243634 1.55399,0.420258 1.321723,1.196039 -0.84155,2.810789 -0.803884,3.140886 0.489852,4.292635 0.7028,0.625665 2.011165,1.250932 2.907477,1.389481 1.502786,0.232294 1.648342,0.385052 1.869674,1.962159 0.328869,2.34338 1.811917,3.769569 3.919857,3.769569 2.263147,0 3.945619,-1.336784 4.292596,-3.410619 0.254876,-1.523363 0.394163,-1.649162 2.062791,-1.863064 2.659903,-0.340978 3.944147,-1.703387 3.944147,-4.184215 v -2.020189 l 2.100692,-0.301078 c 2.283669,-0.327297 4.847568,-1.914304 5.205388,-3.222038 0.123641,-0.451875 -0.04481,-1.168176 -0.37434,-1.591778 -0.713446,-0.917122 -1.950177,-0.412617 -2.664506,1.086944 -0.669997,1.406493 -1.744747,1.211237 -1.372932,-0.24943 0.881984,-3.464857 5.628623,-3.180834 5.628623,0.336798 0,1.523136 -1.579545,3.180937 -4.022329,4.221608 -1.938921,0.82602 -1.999515,0.909569 -1.873115,2.582696 0.08262,1.093614 -0.170123,2.22147 -0.687711,3.068912 -0.809243,1.324969 -3.494661,2.973132 -4.844236,2.973132 -0.383531,0 -1.075728,0.59469 -1.538218,1.32153 -2.079958,3.268833 -6.959931,4.4909 -9.739089,2.438912 -2.066572,-1.525846 -2.415514,-1.933206 -2.415514,-2.819886 0,-0.459562 -0.252324,-1.026223 -0.560719,-1.25925 -0.718384,-0.542815 -3.027884,-0.948436 -3.027884,-0.531788 0,0.550133 1.189039,1.285821 1.54179,0.953941 0.18579,-0.174798 0.268145,0.0017 0.183014,0.391816 -0.192259,0.881418 2.353988,4.267348 3.034369,4.035016 0.496976,-0.169709 3.831452,3.312613 3.743706,3.909696 -0.101859,0.693082 1.623936,0.861021 2.375071,0.231115 0.51754,-0.434011 0.785007,-0.485012 0.785007,-0.149688 0,0.27974 -0.314388,0.623925 -0.698642,0.764849 -0.384254,0.140925 -0.598862,0.50475 -0.476903,0.808503 C 47.984221,94.437553 47.205814,95 46.331801,95 46.158453,95 45.687072,94.469458 45.284283,93.821019 Z m 1.436065,0.132484 c 0,-0.103982 -0.201859,-0.308293 -0.448576,-0.454024 -0.246716,-0.145731 -0.448575,-0.06065 -0.448575,0.189057 0,0.249713 0.201859,0.454024 0.448575,0.454024 0.246717,0 0.448576,-0.08508 0.448576,-0.189057 z m -2.59346,-7.460954 C 43.810703,86.3008 43.177629,85.201291 42.72005,84.0492 c -0.641709,-1.615692 -1.116122,-2.167348 -2.074543,-2.412322 -1.580336,-0.403941 -4.242392,-2.848067 -4.242392,-3.895086 0,-0.439254 -0.201858,-0.67941 -0.448575,-0.53368 -1.515856,0.895382 1.528004,4.930283 3.719326,4.930283 0.896302,0 1.268377,0.360775 1.879135,1.82206 0.941281,2.252084 1.480465,2.895735 2.418673,2.887297 0.547832,-0.005 0.586575,-0.0936 0.155212,-0.355203 z m 13.769178,-5.444622 c 0.812365,-0.7493 1.116979,-1.545133 1.219716,-3.186639 0.08352,-1.334438 -0.03266,-2.087755 -0.297769,-1.931148 -0.23909,0.141228 -0.434709,0.980461 -0.434709,1.864967 0,2.045703 -2.05897,4.229094 -4.173087,4.425259 -0.92336,0.08568 -1.478432,0.393166 -1.57322,0.871498 -0.133209,0.672233 0.0491,0.658385 2.014919,-0.153054 1.188756,-0.490691 2.648626,-1.341585 3.24415,-1.890883 z m -21.941524,0.08535 c 0,-0.08122 -0.527565,-0.708225 -1.172364,-1.393341 l -1.172361,-1.245663 0.820502,1.393341 c 0.678888,1.152854 1.524223,1.843702 1.524223,1.245663 z m -17.780261,-26.299395 0.287595,-1.795665 -1.97845,-0.283555 c -2.049348,-0.293716 -4.365171,-2.054744 -4.585058,-3.486626 -0.137771,-0.897128 1.412688,-3.847194 2.176136,-4.140542 0.404055,-0.155256 0.374561,-0.227221 -0.100142,-0.244375 -1.440537,-0.05205 -2.803856,1.490699 -2.940771,3.327816 -0.176119,2.363209 1.328752,4.121571 4.212055,4.921562 1.966334,0.545572 2.10162,0.678077 2.234932,2.189076 0.172683,1.957176 0.318561,1.854618 0.693708,-0.487691 z m 0.96314,-12.717028 c 0.32071,-0.891592 0.937495,-1.995337 1.370635,-2.452765 0.960714,-1.014587 0.718618,-1.395273 -0.393189,-0.618283 -0.950123,0.663994 -2.842205,5.100429 -2.070405,4.85455 0.280419,-0.08934 0.77225,-0.891914 1.092959,-1.783502 z m 30.274378,49.586283 c 0,-0.235796 0.403718,-0.777909 0.897151,-1.204695 0.493432,-0.426786 0.89715,-0.583051 0.89715,-0.347255 0,0.235796 -0.403718,0.777909 -0.89715,1.204696 -0.493433,0.426786 -0.897151,0.58305 -0.897151,0.347254 z m 2.691451,-2.653572 c 0,-0.207389 0.857901,-1.058338 1.906445,-1.890991 2.238148,-1.777328 4.610559,-3.84757 8.395077,-7.325812 1.508042,-1.386001 2.833788,-2.432168 2.946107,-2.324821 0.112319,0.107347 -2.452616,2.591815 -5.699857,5.521038 -3.247245,2.929226 -6.158561,5.567017 -6.469594,5.861762 -0.662321,0.627629 -1.078178,0.688889 -1.078178,0.158824 z M 47.168921,79.59138 c 0,-0.485508 0.201859,-0.882744 0.448575,-0.882744 0.246716,0 0.448575,0.278 0.448575,0.617778 0,0.339777 -0.201859,0.737013 -0.448575,0.882743 -0.246716,0.145731 -0.448575,-0.132268 -0.448575,-0.617777 z M 65.889517,77.1653 c -0.16364,-0.156397 0.351432,-0.861008 1.144599,-1.565802 0.79317,-0.704791 3.943945,-3.525036 7.001721,-6.267212 3.057776,-2.742176 5.984729,-5.255441 6.50434,-5.585032 0.519613,-0.329592 2.357762,-1.897988 4.084777,-3.485328 1.727013,-1.587341 4.228708,-3.863691 5.559317,-5.058552 2.362041,-2.121067 2.405871,-2.203458 1.852024,-3.481374 -0.311997,-0.719895 -0.739454,-1.308896 -0.949903,-1.308896 -0.210448,0 -0.677864,-0.545641 -1.038703,-1.212541 -0.360839,-0.666896 -1.601984,-2.162057 -2.7581,-3.322581 -1.156122,-1.160525 -2.92049,-3.171124 -3.920821,-4.468002 -1.000332,-1.296879 -2.489467,-3.027571 -3.309185,-3.845985 -0.819718,-0.818411 -1.490395,-1.612195 -1.490395,-1.763966 0,-0.151769 -0.602352,-0.929091 -1.338562,-1.72738 -0.736207,-0.79829 -1.341783,-1.588614 -1.345727,-1.756276 -0.004,-0.167662 -0.389498,-0.649971 -0.856791,-1.0718 -0.467295,-0.421833 -2.134376,-2.310358 -3.704622,-4.196727 -1.570247,-1.886368 -3.357895,-3.934905 -3.972556,-4.552304 -1.078092,-1.082899 -4.686408,-5.258623 -6.068814,-7.023141 -0.636183,-0.812035 -0.665399,-0.778496 -0.551703,0.633306 0.08433,1.047175 0.419445,1.632541 1.126256,1.967302 2.544251,1.205009 4.217365,3.822617 4.229347,6.616876 0.0051,1.180484 0.332403,1.758637 1.534764,2.710714 1.631665,1.29202 1.904641,2.461657 1.011676,4.334756 -0.284154,0.596053 -0.904197,1.201292 -1.37787,1.344975 -1.039946,0.315456 -2.591231,-0.897494 -2.591231,-2.026088 0,-1.06709 0.765444,-1.00554 1.129534,0.09083 0.398412,1.199716 1.665493,0.888037 2.190537,-0.538833 0.540901,-1.469972 -0.16543,-2.327308 -2.809978,-3.410718 l -1.969779,-0.806971 0.294337,-2.486462 c 0.32318,-2.730104 0.04549,-3.182987 -2.647541,-4.31784 -0.740149,-0.311902 -1.628566,-0.698428 -1.97426,-0.858949 -0.345699,-0.160526 -0.873834,-1.215169 -1.173639,-2.34366 -1.008487,-3.796017 -2.911477,-5.182822 -5.71435,-4.164339 -1.700553,0.617932 -2.754091,2.401661 -2.779166,4.705341 -0.02068,1.902095 -0.07005,1.974656 -1.26182,1.855111 -0.682153,-0.06843 -2.133334,0.253147 -3.224848,0.714599 -1.65059,0.697819 -2.033019,1.085867 -2.272495,2.305883 -0.15836,0.806779 -0.22112,1.819112 -0.139466,2.249629 0.115078,0.60675 -0.305435,0.900695 -1.870128,1.307253 -3.492253,0.907402 -4.807641,1.77033 -5.11937,3.358441 -0.154875,0.789022 -0.155005,1.749871 -2.82e-4,2.135218 0.43823,1.091466 1.94386,0.84636 2.438464,-0.396965 0.470317,-1.182284 1.335461,-1.053359 1.335461,0.199013 0,1.091204 -1.431815,2.184746 -2.860572,2.184746 -1.609381,0 -2.564634,-1.984154 -2.0396,-4.236439 0.395692,-1.697427 2.736739,-3.909245 4.137648,-3.909245 0.72196,0 0.802461,-0.228186 0.56717,-1.607701 -0.531911,-3.118568 2.316376,-6.112088 5.957421,-6.261188 1.336434,-0.05472 1.614807,-0.274917 2.254902,-1.7836 1.006876,-2.373168 1.240875,-2.662696 3.309502,-4.094872 1.068233,-0.739573 2.389772,-1.2605491 3.207385,-1.2644075 2.434647,-0.01149 2.637291,-0.507326 0.963773,-2.3581368 L 53.068264,5.6346077 52.042758,6.4806656 C 51.478729,6.9459942 50.506693,7.7607983 49.882675,8.2913396 49.258658,8.8218808 48.556198,9.25596 48.321656,9.25596 c -0.56633,0 4.325337,-4.2460748 4.90303,-4.2559397 0.246717,-0.00429 0.953223,0.6715817 1.570014,1.5017597 0.616791,0.8301781 2.685844,3.3200307 4.597896,5.533005 1.912052,2.212977 3.476458,4.126252 3.476458,4.251721 0,0.125474 0.555112,0.793506 1.233582,1.484521 2.300029,2.342551 7.205105,8.045994 14.466552,16.821181 5.232477,6.323252 6.994278,8.348423 10.696419,12.295397 1.38822,1.480024 2.785621,3.168109 3.105338,3.751306 0.319714,0.583192 0.859784,1.060349 1.200145,1.060349 0.340366,0 0.580596,0.241156 0.533841,0.535901 -0.08373,0.527848 -10.895359,10.341862 -13.517156,12.26989 -1.774917,1.305247 -5.830136,4.890223 -10.564677,9.339601 -2.109829,1.982749 -3.969941,3.477041 -4.133581,3.320644 z M 65.11193,24.450224 c 0,-0.622231 -0.194161,-0.982415 -0.448575,-0.832139 -0.246717,0.14573 -0.448575,0.639426 -0.448575,1.097102 0,0.457677 0.201858,0.832138 0.448575,0.832138 0.246716,0 0.448575,-0.493696 0.448575,-1.097101 z M 41.337444,22.641677 c 0,-1.964258 0.855401,-3.227022 2.673584,-3.946801 0.749977,-0.296901 1.363592,-0.709338 1.363592,-0.916527 0,-0.534793 -0.623915,-0.466361 -1.25601,0.137757 -0.29606,0.282955 -0.538291,0.368511 -0.538291,0.19012 0,-0.657532 -2.631131,1.185841 -3.101804,2.173125 -0.541726,1.136331 -0.649339,3.254841 -0.18775,3.696001 0.683575,0.653314 1.046679,0.190646 1.046679,-1.333675 z m 6.728627,-5.454395 c 0,-0.353695 -0.07933,-0.643081 -0.176294,-0.643081 -0.09696,0 -0.292489,0.289386 -0.434499,0.643081 -0.14201,0.353694 -0.06269,0.64308 0.176294,0.64308 0.238975,0 0.434499,-0.289386 0.434499,-0.64308 z M 59.239605,14.209263 C 58.448942,11.819119 57.14557,10.1134 56.109882,10.1134 c -1.201172,0 -1.085767,0.542533 0.449535,2.113332 0.723879,0.740614 1.546647,2.063255 1.828375,2.939203 0.887596,2.759719 1.033261,2.974936 1.23861,1.830009 0.103455,-0.576826 -0.07061,-1.830837 -0.386797,-2.786681 z m -8.033507,61.927049 c 0,-0.552574 0.227163,-0.856524 0.560719,-0.750261 0.308396,0.09825 0.560719,0.435867 0.560719,0.750261 0,0.314393 -0.252323,0.65201 -0.560719,0.75026 -0.333556,0.106263 -0.560719,-0.197688 -0.560719,-0.75026 z m -6.99363,-0.16116 c -0.380037,-0.946534 0.125562,-1.429757 0.810766,-0.774879 0.404574,0.386664 0.406291,0.626327 0.0072,1.007729 -0.399061,0.381398 -0.593599,0.32602 -0.817989,-0.23285 z m -3.3236,-3.482962 c 0,-0.353695 0.201858,-0.643081 0.448576,-0.643081 0.246715,0 0.448575,0.289386 0.448575,0.643081 0,0.353694 -0.20186,0.64308 -0.448575,0.64308 -0.246718,0 -0.448576,-0.289386 -0.448576,-0.64308 z m 14.537982,0.0532 c -0.380037,-0.946533 0.125561,-1.429756 0.810768,-0.774878 0.40457,0.386663 0.406293,0.626326 0.0072,1.007729 -0.399061,0.381398 -0.593599,0.32602 -0.817995,-0.232851 z m -9.534355,-1.312628 c 0.08524,-0.393308 0.356846,-0.70491 0.603564,-0.692456 0.665815,0.03361 0.543493,0.992753 -0.154989,1.215272 -0.377305,0.120204 -0.545458,-0.07578 -0.448575,-0.522816 z m -3.39757,-2.32895 c -0.161178,-0.249253 0.492674,-1.204137 1.45301,-2.121967 2.110879,-2.017446 3.93191,-5.443812 4.662492,-8.772717 0.509482,-2.321456 0.484129,-2.516403 -0.442385,-3.401908 l -0.982838,-0.939335 -2.316119,0.796001 c -3.64169,1.251567 -6.448246,1.310267 -8.396275,0.1756 -1.323525,-0.770912 -2.418188,-0.975103 -5.676885,-1.058918 -2.220447,-0.05711 -4.117117,-0.117919 -4.214827,-0.135133 -0.09771,-0.01719 0.356478,-0.504389 1.009295,-1.082621 0.65282,-0.578232 1.186944,-1.422897 1.186944,-1.877031 0,-1.169292 4.314585,-3.931163 6.141245,-3.931163 1.059195,0 1.660833,-0.318629 2.351136,-1.245162 0.510237,-0.684842 0.927698,-1.425572 0.927698,-1.646067 0,-0.623719 2.120968,-1.395973 3.833995,-1.395973 1.782701,0 1.789551,-0.01531 0.824836,-1.843351 -0.916282,-1.736265 -2.851929,-3.730013 -3.621317,-3.730013 -0.323916,0 -0.588939,-0.289386 -0.588939,-0.64308 0,-1.987555 3.40609,0.526031 4.753086,3.507623 0.932575,2.064275 1.526968,2.147124 1.526968,0.212842 0,-0.929024 0.498663,-2.955328 1.108142,-4.502892 1.215863,-3.087269 4.218765,-7.661296 4.803128,-7.316126 0.202833,0.119807 0.368783,0.877406 0.368783,1.683552 0,1.422771 2.113045,6.200641 2.742275,6.200641 0.171876,0 0.818322,-0.819929 1.436544,-1.822062 1.259487,-2.041613 3.895535,-4.623818 3.895535,-3.815968 0,0.288462 -1.009294,1.783018 -2.242876,3.321237 -1.233582,1.538219 -2.268109,3.074616 -2.298948,3.414218 -0.03082,0.339598 -0.09123,1.147998 -0.134196,1.796437 -0.04297,0.64844 -0.234721,1.617652 -0.426119,2.153805 -0.330421,0.92559 -0.261345,0.962476 1.367777,0.73035 2.119298,-0.301964 4.493392,0.963177 5.209363,2.776041 0.442775,1.121125 0.726633,1.248309 3.395817,1.521502 5.149644,0.527068 8.586439,3.75937 8.586439,8.075537 0,1.099316 -0.06301,1.998754 -0.140032,1.998754 -0.07702,0 -1.035846,-0.415396 -2.130733,-0.923099 -2.19978,-1.020051 -4.230234,-1.14792 -9.674282,-0.609247 -3.01308,0.298137 -3.901546,0.239154 -5.11539,-0.339588 -1.913326,-0.912244 -1.933687,-0.909226 -3.583533,0.530974 l -1.410608,1.231361 1.215186,2.948661 c 0.668355,1.621762 2.023482,4.450832 3.011402,6.286817 0.987915,1.835986 1.665609,3.462979 1.505984,3.615539 -0.159626,0.152564 -0.47344,0.09732 -0.697364,-0.122756 -0.65819,-0.646878 -4.423145,-8.009873 -4.755481,-9.300132 -0.459659,-1.784561 -0.968133,-1.781543 -1.315429,0.0078 -0.171221,0.882174 -0.911859,2.68435 -1.645867,4.004843 -1.49716,2.69343 -5.047947,6.295499 -5.506637,5.586172 z M 38.932348,53.628503 c -0.280306,-0.698136 0.607783,-0.88153 1.306086,-0.269712 0.23438,0.205352 1.031723,0.508801 1.771872,0.67433 l 1.345725,0.300961 -0.925411,-0.830696 c -0.508975,-0.456887 -1.359357,-1.052663 -1.889739,-1.323952 -1.216056,-0.622005 -0.856392,-1.762842 0.452617,-1.435682 0.762134,0.190481 0.885115,0.08964 0.638807,-0.523832 -0.22444,-0.558986 -0.129701,-0.695422 0.358546,-0.516354 0.364975,0.13385 0.767835,0.08215 0.895249,-0.11488 0.555829,-0.859546 2.064898,-0.755332 3.257504,0.224954 3.355199,2.75787 3.602445,-0.859477 0.291968,-4.271657 l -1.181637,-1.217934 -0.848758,1.281191 c -1.050074,1.585065 -4.654663,4.313063 -6.183596,4.679816 -0.625197,0.149966 -1.418434,0.541915 -1.762757,0.870996 -0.436333,0.41702 -0.768445,0.462229 -1.095978,0.149195 -0.258464,-0.247024 -0.382463,-0.502254 -0.275554,-0.56718 0.106914,-0.06492 1.352719,-0.677828 2.768463,-1.362009 2.825346,-1.365392 6.818585,-4.742473 6.39051,-5.404456 -0.148675,-0.229914 -1.17093,-0.418024 -2.27168,-0.418024 -1.861604,0 -2.100534,0.134473 -3.421627,1.925765 -1.303077,1.766863 -2.347744,2.494872 -3.33697,2.325468 -1.106223,-0.189438 -1.965751,0.178592 -3.666456,1.569896 -2.245586,1.837062 -2.421729,2.753275 -0.529319,2.753275 0.773864,0 1.348641,-0.227727 1.352593,-0.535899 0.0046,-0.358359 0.153206,-0.322849 0.448576,0.107179 0.392629,0.571626 0.490785,0.571626 0.88341,0 0.42075,-0.612564 0.49437,-0.561778 0.623664,0.430213 0.07068,0.542245 2.919246,2.019572 4.029096,2.089573 0.566808,0.03575 0.75049,-0.152963 0.574796,-0.590545 z m 7.244257,-4.574435 c -1.097942,-1.313711 -0.463952,-1.890725 0.815348,-0.742077 0.590765,0.530426 1.074118,1.12371 1.074118,1.3184 0,0.679398 -1.127381,0.335522 -1.889466,-0.576323 z m 5.857854,4.467255 c 0.234273,-0.427292 0.247291,-1.165506 0.03023,-1.71488 -0.487551,-1.234025 -2.041093,-1.260644 -3.380616,-0.05793 -0.839149,0.753441 -0.920569,1.043286 -0.481729,1.71488 0.694274,1.062498 3.260057,1.101284 3.832107,0.05793 z m -2.398374,-0.5359 c -0.15248,-0.235796 0.03746,-0.428721 0.4221,-0.428721 0.384635,0 0.699338,0.192925 0.699338,0.428721 0,0.235796 -0.189945,0.42872 -0.422101,0.42872 -0.23216,0 -0.546858,-0.192924 -0.699337,-0.42872 z M 71.707318,52.795528 C 71.394993,50.956074 69.795154,48.834003 68.027669,47.914737 67.28752,47.52979 65.285968,47.11451 63.579777,46.9919 c -3.062935,-0.220105 -3.108703,-0.241558 -3.619155,-1.696566 -0.622308,-1.773846 -2.960655,-3.094691 -4.84023,-2.73406 -1.929918,0.370286 -4.062234,2.490431 -3.803868,3.782157 0.117446,0.587188 -0.05479,1.405464 -0.382752,1.818382 -0.725512,0.913457 -0.797441,1.822567 -0.144208,1.822567 0.614867,0 1.503934,-0.85919 1.885425,-1.822062 0.163488,-0.412642 0.505446,-0.750259 0.759909,-0.750259 0.768853,0 0.520356,1.103354 -0.434499,1.92924 -1.05173,0.909672 -1.154776,1.500521 -0.261703,1.500521 0.349498,0 1.042461,-0.530541 1.539918,-1.17898 0.720533,-0.939219 1.018853,-1.071153 1.466917,-0.648757 0.449944,0.424167 0.350598,0.745737 -0.496676,1.6077 -1.152354,1.172332 -0.706564,1.460251 0.69369,0.44803 1.196203,-0.864716 2.160716,-0.837406 1.803982,0.05108 -0.170881,0.425596 0.05961,1.013911 0.578101,1.475579 0.740284,0.659148 1.42424,0.735168 4.834089,0.537288 2.900048,-0.168294 4.455975,-0.05936 5.766103,0.403692 2.832173,1.00101 3.067773,0.93819 2.782498,-0.741926 z M 68.46232,52.535171 c -0.42624,-0.659149 0.157607,-1.084436 0.733349,-0.534178 0.322158,0.307899 0.329896,0.547699 0.0235,0.72867 -0.251166,0.148359 -0.591756,0.06083 -0.756867,-0.194492 z M 66.906231,51.27054 c 0,-0.800279 0.119621,-0.914602 0.53829,-0.514464 0.418669,0.400137 0.418669,0.628791 0,1.028928 -0.418669,0.400138 -0.53829,0.285816 -0.53829,-0.514464 z M 65.11193,50.62746 c 0,-0.353694 0.201859,-0.64308 0.448575,-0.64308 0.246717,0 0.448575,0.289386 0.448575,0.64308 0,0.353694 -0.201858,0.64308 -0.448575,0.64308 -0.246716,0 -0.448575,-0.289386 -0.448575,-0.64308 z m -1.794301,-0.42872 c 0,-0.353694 0.201859,-0.643081 0.448575,-0.643081 0.246717,0 0.448576,0.289387 0.448576,0.643081 0,0.353694 -0.201859,0.64308 -0.448576,0.64308 -0.246716,0 -0.448575,-0.289386 -0.448575,-0.64308 z m -2.242876,-0.857441 c 0,-0.353694 0.296454,-0.64308 0.658787,-0.64308 0.40129,0 0.557861,0.251355 0.400582,0.64308 -0.142015,0.353694 -0.438465,0.643081 -0.658787,0.643081 -0.220318,0 -0.400582,-0.289387 -0.400582,-0.643081 z m -1.489786,-0.519013 c -0.134927,-0.208653 -0.08201,-0.631908 0.117585,-0.940569 0.275722,-0.426379 0.442421,-0.438237 0.693897,-0.04935 0.182041,0.281515 0.129131,0.704769 -0.117585,0.940565 -0.25096,0.239852 -0.556651,0.261597 -0.693897,0.04936 z m -1.201665,-1.410227 c 0,-0.80028 0.119621,-0.914607 0.53829,-0.514465 0.418669,0.400138 0.418669,0.628792 0,1.028929 -0.418669,0.400138 -0.53829,0.285814 -0.53829,-0.514464 z m -2.437926,-1.425778 c -1.186733,-1.48702 -1.396787,-2.003997 -0.814245,-2.003975 0.613297,2.5e-5 2.808803,2.947352 2.382917,3.198913 -0.229895,0.135796 -0.9358,-0.401926 -1.568672,-1.194938 z m 0.643625,6.369513 c 0,-0.382453 -0.263135,-0.533118 -0.670288,-0.383794 -0.368657,0.135204 -0.558602,0.418537 -0.422101,0.629622 0.391436,0.605323 1.092389,0.447579 1.092389,-0.245828 z M 44.234023,52.157605 c 0.141943,-0.219505 0.05292,-0.520277 -0.197812,-0.668384 -0.25074,-0.148105 -0.455892,0.03147 -0.455892,0.399096 0,0.75306 0.269168,0.86394 0.653704,0.269288 z m 2.934898,-0.269288 c 0,-0.36761 -0.201859,-0.549147 -0.448575,-0.403417 -0.246717,0.145731 -0.448576,0.446504 -0.448576,0.668383 0,0.221881 0.201859,0.403417 0.448576,0.403417 0.246716,0 0.448575,-0.300773 0.448575,-0.668383 z m 2.86121,-5.133512 c 0.118173,-0.93539 0.229253,-2.015825 0.246838,-2.400966 0.01758,-0.385146 0.423791,-0.798187 0.902672,-0.917873 1.031714,-0.257858 2.272051,-2.865926 2.262721,-4.757851 -0.0036,-0.73754 -0.301025,-1.823293 -0.660863,-2.412783 -0.997614,-1.634308 -2.121909,-4.00027 -2.22994,-4.692683 -0.202653,-1.298851 -1.067963,-0.839689 -2.144741,1.13807 -2.391108,4.391839 -3.344416,10.134414 -1.875767,11.299333 0.389319,0.308803 1.210328,1.509155 1.824459,2.667446 0.614131,1.158291 1.193811,2.03219 1.288178,1.942 0.09437,-0.09019 0.268266,-0.929303 0.386443,-1.864693 z m -0.674348,-5.023289 c -0.240257,-5.976429 -0.214454,-7.609787 0.12021,-7.609787 0.211409,0 0.398375,0.43408 0.415479,0.964621 0.01709,0.530541 0.125139,2.556247 0.240073,4.501565 0.134765,2.280924 0.04405,3.536941 -0.255387,3.536941 -0.255401,0 -0.489566,-0.627003 -0.520375,-1.39334 z m 0.504589,26.206619 c 0,-0.760223 0.110709,-0.822126 0.672863,-0.376227 0.370075,0.29354 0.672863,0.70301 0.672863,0.909933 0,0.206926 -0.302788,0.376227 -0.672863,0.376227 -0.386752,0 -0.672863,-0.386915 -0.672863,-0.909933 z m 9.257862,-1.448028 c -0.15728,-0.391725 -8.97e-4,-0.64308 0.400582,-0.64308 0.362332,0 0.658786,0.289386 0.658786,0.64308 0,0.353694 -0.180264,0.64308 -0.400582,0.64308 -0.220322,0 -0.516772,-0.289386 -0.658786,-0.64308 z m 8.907856,-0.370851 c -0.528391,-0.770732 -0.587328,-1.284892 -0.245729,-2.143602 0.370886,-0.932325 0.732129,-1.129668 2.067886,-1.129668 1.092493,0 1.557961,0.173575 1.432225,0.534082 -0.102455,0.293746 -0.472525,0.553743 -0.822387,0.577778 -1.652349,0.113512 -1.81279,0.222496 -1.676608,1.13892 0.101193,0.680975 0.493873,1.003386 1.335422,1.096448 1.428775,0.158005 2.891552,-1.168704 3.313644,-3.00541 0.320771,-1.39581 0.419207,-1.447776 3.487381,-1.841032 2.647948,-0.339396 4.024262,-1.667858 4.342715,-4.191738 0.211772,-1.678393 0.324409,-1.796737 2.018587,-2.120862 2.773115,-0.530542 4.083937,-2.758643 3.08567,-5.244946 -0.381132,-0.949242 -2.527192,-1.948447 -4.184831,-1.948447 -0.752399,0 -1.384326,-0.144693 -1.404273,-0.321541 -0.01996,-0.176846 -0.100467,-1.259759 -0.178919,-2.406466 -0.177977,-2.601419 -0.893714,-3.298581 -3.844079,-3.744327 -1.283791,-0.193957 -2.422872,-0.437427 -2.531287,-0.541044 -0.108417,-0.103618 -0.265189,-0.888398 -0.348391,-1.743961 -0.223969,-2.303163 -1.37335,-3.756867 -2.841815,-3.594256 -1.575777,0.174494 -1.801715,1.411198 -0.459484,2.515034 l 1.044455,0.858946 -1.117236,-0.119935 c -1.456815,-0.156388 -2.50035,-2.081974 -1.803093,-3.327147 0.73238,-1.307893 3.336727,-1.17429 4.709708,0.241608 0.590523,0.608984 1.135999,1.525373 1.212162,2.036422 0.120668,0.80963 0.452501,0.940766 2.579093,1.019227 3.17405,0.117105 4.865135,1.604489 5.850094,5.145435 0.605424,2.176501 0.830842,2.476751 2.035912,2.711792 0.745312,0.145367 1.881249,0.593782 2.524304,0.996483 1.432444,0.897029 2.775482,4.052706 2.374565,5.5794 -0.353434,1.345851 -3.334817,4.001417 -4.918992,4.381417 -0.827859,0.198583 -1.23189,0.645442 -1.427124,1.578389 -0.149779,0.715761 -1.048226,2.042938 -1.996541,2.949278 -1.727104,1.650658 -1.856393,1.689239 -6.127381,1.828402 -0.571373,0.0186 -1.264287,0.417311 -1.539811,0.885988 -1.439801,2.449129 -4.686696,3.18597 -5.945842,1.349333 z m 12.111644,-4.079132 c 0.739341,-0.407596 1.417201,-1.116485 1.506355,-1.57531 0.158797,-0.817257 0.140575,-0.816785 -0.895683,0.02319 -1.625323,1.317492 -2.954487,1.929241 -4.191721,1.929241 -0.620136,0 -1.127524,0.214395 -1.127524,0.476433 0,0.645742 2.963395,0.108535 4.708573,-0.853574 z m 5.393045,-5.930919 c 1.21742,-0.683616 2.563311,-1.815411 2.990879,-2.515096 0.678071,-1.109631 0.703183,-1.478458 0.196557,-2.886903 -0.319457,-0.888111 -1.017875,-1.907316 -1.552043,-2.264899 -1.114077,-0.745792 -1.245609,-0.341239 -0.284078,0.873754 0.830029,1.048821 0.852889,3.680249 0.04117,4.741182 -0.339575,0.443841 -1.500263,1.205981 -2.579306,1.693646 -1.447853,0.654343 -1.994738,1.166436 -2.08723,1.954458 -0.111708,0.951742 -0.06088,0.990576 0.467608,0.357296 0.326118,-0.390774 1.589011,-1.269822 2.806426,-1.953438 z M 82.398056,44.946917 c -0.317884,-2.087018 -1.198563,-3.777698 -2.449436,-4.702288 -0.853191,-0.630643 -3.622309,-0.723003 -3.622309,-0.120814 0,0.235797 0.555112,0.433008 1.233582,0.438251 2.201522,0.01702 4.149321,2.17954 4.149321,4.606753 0,1.142252 0.295857,1.81452 0.798558,1.81452 0.110251,0 0.06088,-0.91639 -0.109716,-2.036422 z M 38.645991,65.668392 c 0,-0.373343 0.31961,-0.678805 0.710243,-0.678805 0.792153,0 0.654198,0.922931 -0.17756,1.18791 -0.292977,0.09334 -0.532683,-0.135758 -0.532683,-0.509105 z m 24.671638,-1.750606 c -0.457354,-0.526688 -0.426703,-0.64308 0.169364,-0.64308 0.400282,0 0.727787,0.289386 0.727787,0.64308 0,0.353694 -0.07621,0.643081 -0.169365,0.643081 -0.09315,0 -0.420651,-0.289387 -0.727786,-0.643081 z m -6.442271,-2.143601 c -0.15728,-0.391726 -8.98e-4,-0.643081 0.400582,-0.643081 0.362332,0 0.658786,0.289387 0.658786,0.643081 0,0.353694 -0.180264,0.64308 -0.400582,0.64308 -0.220322,0 -0.516772,-0.289386 -0.658786,-0.64308 z M 37.300265,60.452299 c 0,-0.75709 0.965677,-0.625241 1.242926,0.1697 0.09766,0.280006 -0.142049,0.509105 -0.532683,0.509105 -0.390632,0 -0.710243,-0.305462 -0.710243,-0.678805 z m -8.074353,-1.225132 c 0,-0.36761 0.201859,-0.668383 0.448575,-0.668383 0.246716,0 0.448575,0.181536 0.448575,0.403417 0,0.22188 -0.201859,0.522653 -0.448575,0.668383 -0.246716,0.145731 -0.448575,-0.0358 -0.448575,-0.403417 z m 13.261513,0.233198 c -0.15288,-0.236414 0.149437,-0.648453 0.671813,-0.915644 0.809749,-0.414182 0.927335,-0.375185 0.79757,0.264504 -0.177932,0.877144 -1.068142,1.271631 -1.469383,0.65114 z m 19.105208,-0.231771 c 0.08524,-0.393307 0.356842,-0.70491 0.603558,-0.692455 0.665816,0.03361 0.543494,0.992753 -0.154983,1.215271 -0.377305,0.120205 -0.545463,-0.07578 -0.448575,-0.522816 z m 6.970568,0.342192 c -0.358381,-0.342518 0.04674,-1.012002 0.612381,-1.012002 0.232156,0 0.422101,0.289386 0.422101,0.64308 0,0.662977 -0.529301,0.851738 -1.034482,0.368922 z m 5.968809,-1.226363 c 0,-0.353694 0.201859,-0.64308 0.448576,-0.64308 0.246716,0 0.448575,0.289386 0.448575,0.64308 0,0.353695 -0.201859,0.643081 -0.448575,0.643081 -0.246717,0 -0.448576,-0.289386 -0.448576,-0.643081 z M 55.953347,58.187601 c -0.193233,-0.298818 -0.230191,-0.659084 -0.08213,-0.800596 0.401461,-0.383687 0.839181,0.18062 0.622349,0.802329 -0.151942,0.435652 -0.257604,0.435313 -0.54022,-0.0017 z m -22.81175,-0.316558 c -0.179897,-0.171934 -0.327083,-0.608422 -0.327083,-0.969979 0,-0.482563 0.132701,-0.530541 0.49904,-0.180419 0.274469,0.262326 0.421661,0.698814 0.327083,0.96998 -0.09458,0.271166 -0.319139,0.352356 -0.49904,0.180418 z m -8.850013,-3.385102 c 0,-0.392995 0.216999,-0.645403 0.482219,-0.560907 0.26522,0.08449 0.482218,0.336901 0.482218,0.560907 0,0.224007 -0.216998,0.476416 -0.482218,0.560908 -0.26522,0.08449 -0.482219,-0.167912 -0.482219,-0.560908 z M 80.556779,54.22365 c -0.386676,-0.59797 0.780938,-1.33605 1.311459,-0.829011 0.431494,0.412395 0.01579,1.305662 -0.607599,1.305662 -0.217595,0 -0.534334,-0.214492 -0.70386,-0.476651 z m -4.230468,-2.09567 c 0,-0.235796 0.201859,-0.42872 0.448575,-0.42872 0.246718,0 0.448575,0.192924 0.448575,0.42872 0,0.235797 -0.201857,0.42872 -0.448575,0.42872 -0.246716,0 -0.448575,-0.192923 -0.448575,-0.42872 z M 19.07914,48.933111 c -0.309239,-0.770192 0.192008,-1.622518 0.757689,-1.288382 0.568411,0.335748 0.531261,1.91093 -0.04507,1.91093 -0.254458,0 -0.575132,-0.280147 -0.712611,-0.622548 z m 5.025366,-0.177354 c -0.193232,-0.298817 -0.230191,-0.659084 -0.08214,-0.800596 0.401457,-0.383687 0.839182,0.18062 0.622349,0.802328 -0.151945,0.435653 -0.257603,0.435314 -0.540219,-0.0017 z M 77.07833,47.240244 c -0.145344,-0.361993 -0.08516,-0.763957 0.133729,-0.893251 0.586534,-0.346457 1.08387,0.640272 0.570171,1.131239 -0.287138,0.274428 -0.531306,0.191877 -0.7039,-0.237988 z M 30.123062,45.054098 c 0,-0.392995 0.216999,-0.645404 0.482219,-0.560913 0.26522,0.08449 0.482218,0.336906 0.482218,0.560913 0,0.224006 -0.216998,0.476415 -0.482218,0.560907 -0.26522,0.08449 -0.482219,-0.167917 -0.482219,-0.560907 z m 40.670714,-0.397377 c -0.135087,-0.336455 0.04517,-0.842388 0.400583,-1.124297 0.534612,-0.424048 0.6462,-0.318411 0.6462,0.611736 0,1.204957 -0.642472,1.519543 -1.046783,0.512561 z M 24.740159,43.767936 c 0,-0.353694 0.201859,-0.64308 0.448575,-0.64308 0.246718,0 0.448575,0.289386 0.448575,0.64308 0,0.353695 -0.201857,0.643082 -0.448575,0.643082 -0.246716,0 -0.448575,-0.289387 -0.448575,-0.643082 z m 39.438219,-2.422967 c -0.445978,-0.796438 -0.412488,-0.884287 0.245191,-0.64308 0.418956,0.153649 0.846156,0.279366 0.949337,0.279366 0.103177,0 0.187599,0.289387 0.187599,0.643081 0,0.942888 -0.786747,0.783863 -1.382127,-0.279367 z M 30.327715,40.950894 c -0.168251,-0.260191 -0.108074,-0.662154 0.133731,-0.893252 0.287137,-0.274432 0.531305,-0.191878 0.703899,0.237983 0.313814,0.781591 -0.396577,1.337319 -0.83763,0.655269 z m 6.082268,0.137542 c 0.01628,-0.76217 0.783477,-1.476628 1.084969,-1.010395 0.168758,0.260971 0.182081,0.667418 0.02961,0.903214 -0.323369,0.500064 -1.124604,0.577114 -1.114566,0.107181 z m 23.586646,-1.755083 c -0.155229,-0.240048 -0.06365,-0.565563 0.203501,-0.723366 0.689675,-0.407378 1.134657,0.15063 0.558916,0.700885 -0.322158,0.307898 -0.573064,0.315298 -0.762417,0.02246 z M 18.908681,36.072841 c 0,-0.163612 0.302788,-0.586863 0.672864,-0.940557 0.370075,-0.353694 0.672862,-0.459998 0.672862,-0.236231 0,0.223766 -0.302787,0.647017 -0.672862,0.940559 -0.370076,0.293536 -0.672864,0.399841 -0.672864,0.236229 z m 42.614647,-1.951112 c 0,-0.800277 0.119622,-0.914602 0.53829,-0.514464 0.418669,0.400139 0.418669,0.62879 0,1.028929 -0.418668,0.400138 -0.53829,0.285813 -0.53829,-0.514465 z m -40.820345,0.107177 c 0,-0.176849 0.949745,-1.093238 2.110551,-2.036421 1.160804,-0.943183 2.624281,-2.279615 3.252169,-2.96985 1.556826,-1.711409 1.896172,-2.025406 7.215298,-6.676351 2.56188,-2.240063 6.784771,-6.034618 9.384203,-8.432343 2.59943,-2.397723 4.816495,-4.2732323 4.926818,-4.1677929 C 47.814318,10.158605 43.15995,14.550713 31.687172,24.954818 20.384457,35.204697 20.702983,34.935765 20.702983,34.228906 Z M 41.655205,32.99636 c -0.35006,-0.334564 0.132258,-1.446952 0.627381,-1.446952 0.512547,0 0.524125,1.162584 0.01457,1.463564 -0.212306,0.125404 -0.501183,0.117928 -0.641956,-0.01661 z m 20.765274,-3.804912 c 0,-0.353694 0.201859,-0.643081 0.448575,-0.643081 0.246716,0 0.448575,0.289387 0.448575,0.643081 0,0.353694 -0.201859,0.64308 -0.448575,0.64308 -0.246717,0 -0.448575,-0.289386 -0.448575,-0.64308 z M 44.47747,28.798454 c 0,-0.373344 0.31961,-0.678807 0.710242,-0.678807 0.390632,0 0.630342,0.229097 0.532683,0.509105 -0.277251,0.794943 -1.242925,0.92679 -1.242925,0.169702 z m 9.057482,-0.710961 c 0.08841,-0.253481 0.352504,-0.460875 0.586885,-0.460875 0.23438,0 0.498479,0.207394 0.586884,0.460875 0.08841,0.253481 -0.175689,0.460874 -0.586884,0.460874 -0.411196,0 -0.675294,-0.207393 -0.586885,-0.460874 z m 3.794494,-2.312078 c -0.316353,-0.787921 0.524694,-1.334039 1.143571,-0.742554 0.478813,0.45762 0.13442,1.371905 -0.516773,1.371905 -0.205761,0 -0.487816,-0.283208 -0.626798,-0.629351 z M 46.27177,23.189365 c 0,-0.589491 0.201859,-1.071801 0.448576,-1.071801 0.246716,0 0.448575,0.48231 0.448575,1.071801 0,0.58949 -0.201859,1.0718 -0.448575,1.0718 -0.246717,0 -0.448576,-0.48231 -0.448576,-1.0718 z m 4.71004,0.21436 c -0.152479,-0.235797 0.138395,-0.42872 0.646388,-0.42872 0.507994,0 0.923626,0.192923 0.923626,0.42872 0,0.235796 -0.290875,0.42872 -0.646388,0.42872 -0.355514,0 -0.771146,-0.192924 -0.923626,-0.42872 z m 2.467164,-3.833179 c 0,-0.485508 0.201859,-0.882743 0.448575,-0.882743 0.246717,0 0.448576,0.277999 0.448576,0.617777 0,0.339778 -0.201859,0.737013 -0.448576,0.882744 -0.246716,0.14573 -0.448575,-0.132271 -0.448575,-0.617778 z"
     style="fill:#000000;stroke-width:0.43853536" />
</svg>
