<?xml version="1.0" encoding="UTF-8" standalone="no"?>
<svg
   xmlns:dc="http://purl.org/dc/elements/1.1/"
   xmlns:cc="http://creativecommons.org/ns#"
   xmlns:rdf="http://www.w3.org/1999/02/22-rdf-syntax-ns#"
   xmlns:svg="http://www.w3.org/2000/svg"
   xmlns="http://www.w3.org/2000/svg"
   id="svgC7"
   version="1.1"
   viewBox="0 0 100 100"
   height="100"
   width="100">
  <defs
     id="defs2" />
  <metadata
     id="metadata5">
    <rdf:RDF>
      <cc:Work
         rdf:about="">
        <dc:format>image/svg+xml</dc:format>
        <dc:type
           rdf:resource="http://purl.org/dc/dcmitype/StillImage" />
        <dc:title></dc:title>
      </cc:Work>
    </rdf:RDF>
  </metadata>
  <path
     id="pathC7"
     d="M 37.647666,94.389941 C 32.360672,93.32388 25.35478,88.492992 23.362422,84.539597 22.972279,83.765446 22.499402,82.128869 22.311582,80.902759 21.97379,78.69762 22.005515,78.639927 25.240833,75.575792 41.848897,59.846472 43.464507,57.931464 40.593117,57.378485 c -0.743531,-0.143191 -0.885458,0.04411 -0.633905,0.836715 0.258899,0.815717 -1.426363,2.723426 -8.375096,9.480583 -4.784568,4.652656 -9.266385,8.830998 -9.959594,9.285208 -4.183836,2.741354 -8.91747,-0.77057 -13.3824095,-9.928524 -1.287907,-2.641599 -2.60257,-6.065591 -2.921466,-7.60886 -0.530703,-2.56827 -0.471234,-3.032602 0.702048,-5.481654 2.465414,-5.146178 1.270951,-4.816887 16.8767105,-4.652594 11.403022,0.120048 13.704136,0.02276 13.704136,-0.579437 0,-0.603316 -2.192858,-0.688913 -13.182073,-0.514534 -9.976824,0.15831 -13.4946295,0.04798 -14.4675045,-0.453818 -0.912375,-0.470577 -1.567407,-1.570437 -2.257041,-3.789776 -1.681698,-5.411931 -0.702231,-9.420768 4.3421915,-17.772062 2.283601,-3.780618 2.883081,-4.405921 5.16514,-5.387637 1.419935,-0.610838 3.164622,-1.110615 3.877084,-1.110615 0.712462,0 1.387132,-0.275238 1.499266,-0.61164 0.118726,-0.35618 1.168901,0.243451 2.514386,1.435669 2.251806,1.9953 2.224953,1.848112 -0.305983,-1.677141 -0.721348,-1.004742 -0.714706,-1.31232 0.06765,-3.132373 1.766294,-4.109081 2.243839,-4.644383 5.783414,-6.4828886 5.667822,-2.9439451 7.985582,-3.6870037 12.458755,-3.9942061 3.56993,-0.2451656 4.555154,-0.1214676 6.656295,0.8357077 l 2.466165,1.1234739 -0.01072,5.0770561 c -0.0059,2.792384 -0.347789,9.020227 -0.759783,13.83965 -0.74714,8.739898 -0.669747,10.510672 0.443262,10.141917 0.527897,-0.174898 0.894297,-7.313407 1.298208,-25.292763 0.07244,-3.2245146 0.09136,-3.2634956 1.964116,-4.0459824 3.086135,-1.2894683 6.890283,-1.0056497 11.220827,0.8371576 2.1032,0.8949956 4.557991,2.1871017 5.455083,2.8713408 0.897091,0.684247 1.795352,1.244087 1.996125,1.244087 1.204424,0 6.062172,6.37402 6.062172,7.954387 0,1.251056 -12.199507,13.083407 -17.625389,17.094933 -1.703192,1.259226 -2.247707,2.628143 -1.038339,2.610416 0.358918,-0.0053 4.763818,-4.014515 9.788667,-8.909453 5.024851,-4.894938 9.652965,-9.109069 10.284703,-9.364738 1.982166,-0.802196 5.628312,0.834697 7.985983,3.58521 1.145654,1.336546 2.084523,2.61714 2.086375,2.845769 0.0021,0.228627 0.79021,2.108052 1.751899,4.176499 3.432326,7.382413 3.780981,12.252957 1.104794,15.433424 L 91.94764,48.820124 79.806938,48.556128 C 73.129553,48.410927 67.463526,48.105295 67.215767,47.87694 c -0.898271,-0.827907 0.267446,-1.483852 3.199525,-1.800352 1.646497,-0.177726 3.404757,-0.548552 3.90724,-0.824055 1.114108,-0.610839 1.213504,0.175324 0.135298,1.070155 -0.42807,0.355268 -1.495592,0.540668 -2.372265,0.412001 -0.876673,-0.128673 -1.71494,-0.03816 -1.862813,0.201072 -0.14787,0.239261 2.035557,0.436089 4.852062,0.437394 2.816506,0.001 7.715146,0.151879 10.885873,0.334606 l 5.764952,0.332225 0.966295,-1.474748 c 2.02723,-3.093945 1.564532,-7.259384 -1.607577,-14.472263 -2.214838,-5.036194 -4.211257,-7.674365 -6.643233,-8.77871 -3.670144,-1.666589 -4.008531,-1.506699 -10.914006,5.156897 -3.510619,3.387654 -7.315611,7.016505 -8.45554,8.064112 -2.643124,2.429061 -2.179643,2.957926 0.814343,0.92922 2.407798,-1.631517 3.085473,-1.879648 3.085473,-1.129758 0,0.247131 -1.409568,1.200618 -3.132373,2.118866 -2.994677,1.596141 -3.955694,2.652429 -2.413204,2.652429 0.395541,0 0.994823,-0.332139 1.33173,-0.738089 0.336912,-0.405953 1.716514,-1.256367 3.065786,-1.889811 1.349269,-0.633442 3.1832,-1.769602 4.075399,-2.524795 5.391854,-4.563878 12.81781,-10.077853 13.13934,-9.756321 0.410612,0.410612 -0.694225,1.494192 -3.642938,3.572862 -4.650097,3.278043 -8.514345,6.310536 -8.939187,7.01509 -0.237006,0.393041 -1.741419,1.294183 -3.343144,2.002541 -1.601716,0.708359 -2.792746,1.407396 -2.646725,1.553417 0.516671,0.516673 6.443116,-2.037273 7.986971,-3.441907 1.249529,-1.136854 5.616271,-3.623919 6.362807,-3.623919 0.08963,0 0.162972,0.231775 0.162972,0.515057 0,0.283281 -0.822155,0.858575 -1.827017,1.278429 -1.822841,0.761635 -5.59199,3.352348 -5.911398,4.063189 -0.09268,0.206258 -0.976257,0.52655 -1.963502,0.711758 -0.987243,0.185208 -1.946385,0.58171 -2.131432,0.881113 -0.340259,0.550561 1.720626,0.310272 3.610865,-0.421 0.503661,-0.194847 0.913609,-0.114715 0.913609,0.178583 0,0.292619 -0.998442,0.697426 -2.218764,0.899573 -1.220319,0.202153 -2.652054,0.595323 -3.181631,0.873713 -0.736722,0.387286 -1.25783,0.22906 -2.218765,-0.67369 -0.92774,-0.871572 -1.255898,-0.977535 -1.255898,-0.405543 0,0.425873 0.295471,1.178399 0.656609,1.672275 0.619728,0.847532 0.877554,0.84275 4.590675,-0.08514 2.163737,-0.540705 4.437029,-1.252281 5.051757,-1.581274 1.739408,-0.930902 2.10752,-0.683099 0.664268,0.447172 -0.717836,0.562168 -3.125849,1.419201 -5.351138,1.90452 -2.225292,0.485314 -4.045985,1.102449 -4.045985,1.3714 0,0.268956 0.352393,0.353786 0.783095,0.188512 0.4307,-0.16528 0.783093,-0.07295 0.783093,0.205175 0,0.278124 -0.325731,0.505675 -0.723839,0.505675 -0.802598,0 -1.455778,3.014289 -0.747975,3.451735 0.243298,0.150359 2.259746,0.229253 4.481003,0.175319 4.839198,-0.117506 19.524155,0.551752 20.126553,0.917258 0.234317,0.142174 1.115298,1.21 1.957734,2.372951 1.298332,1.792292 1.531705,2.602836 1.531705,5.319847 0,5.880447 -2.053768,11.569182 -5.589752,15.483099 -2.365169,2.61796 -3.42336,3.197387 -6.60769,3.618143 -2.530612,0.334375 -2.547548,0.326524 -4.959591,-2.2991 -1.331156,-1.449044 -2.89015,-3.133854 -3.464418,-3.74403 -0.574267,-0.610176 -2.571157,-2.850977 -4.437529,-4.979556 -5.952446,-6.788721 -6.419173,-7.264111 -7.131728,-7.264111 -0.384567,0 -0.699207,0.09233 -0.699207,0.205171 0,0.249848 3.829583,4.556382 8.15764,9.173626 1.758927,1.876449 4.488536,4.798698 6.065802,6.493876 l 2.86775,3.082152 -0.675187,2.559504 c -1.289844,4.889563 -4.41881,7.796792 -11.497567,10.682773 -4.174726,1.702017 -4.903941,1.841685 -8.433071,1.615198 -2.762994,-0.177318 -4.26202,-0.545696 -5.263637,-1.293508 -1.310053,-0.978094 -1.410563,-1.345245 -1.557219,-5.688365 -0.212979,-6.307192 -0.536202,-6.768319 -0.586608,-0.836876 l -0.04122,4.850021 -2.218763,2.067753 c -3.097581,2.886754 -6.017022,3.593507 -10.832794,2.622465 z m 7.233747,-1.413113 c 1.460298,-0.471625 2.536967,-1.048624 2.392595,-1.282221 -0.14437,-0.233597 0.347549,-0.824436 1.093158,-1.312976 l 1.355646,-0.888258 -0.164373,-12.708761 c -0.0904,-6.98982 0.01183,-12.708553 0.227177,-12.708297 0.215349,2.51e-4 0.391546,1.776286 0.391546,3.946739 0,2.320598 0.201485,3.821752 0.489098,3.643995 0.780989,-0.482678 0.598678,-9.156462 -0.192455,-9.156462 -1.686563,0 -2.255086,1.821925 -2.606506,8.352997 -0.193125,3.589179 -0.332372,7.289296 -0.309438,8.222482 0.02402,0.977661 -0.218943,1.696702 -0.573326,1.696702 -0.45343,0 -0.510106,-1.063033 -0.215707,-4.045983 0.631611,-6.399659 0.737286,-11.316029 0.22588,-10.508608 -0.250798,0.395969 -0.459592,1.440814 -0.463989,2.321888 -0.0044,0.881069 -0.381032,2.858103 -0.836969,4.39341 -0.455937,1.535307 -0.908051,5.278061 -1.004699,8.317236 -0.09665,3.039176 -0.193465,5.950764 -0.215149,6.470195 -0.02168,0.519431 -0.233638,0.824389 -0.471008,0.677684 -0.237369,-0.146699 -0.364436,-1.628866 -0.282371,-3.293696 0.365177,-7.408211 0.704205,-11.026933 1.143243,-12.202737 0.259889,-0.696014 0.641334,-2.440119 0.847659,-3.875791 0.290326,-2.020188 0.234059,-2.473045 -0.248887,-2.003132 -0.343213,0.333942 -0.745485,1.684779 -0.893938,3.001858 -0.217521,1.929846 -0.466651,2.394679 -1.283434,2.394679 -1.281578,0 -2.23602,0.94497 -2.659787,2.633398 -0.181924,0.724841 -1.019506,2.83687 -1.861292,4.693387 -0.841787,1.856521 -1.508246,3.492957 -1.481021,3.636524 0.09414,0.496408 -3.03021,5.741626 -3.420352,5.742153 -0.596177,0.001 -0.511686,-0.238306 1.161418,-3.28693 0.854131,-1.556342 1.402296,-2.980376 1.218145,-3.164528 -0.18415,-0.184153 -0.06074,-0.33482 0.274253,-0.33482 0.334991,0 0.609073,-0.278217 0.609073,-0.618268 0,-0.340045 0.441173,-1.573417 0.980385,-2.740827 0.539211,-1.167404 1.739884,-3.767055 2.668162,-5.776995 2.768543,-5.994549 3.173915,-7.047842 2.712447,-7.047842 -0.241905,0 -0.986021,1.166147 -1.653591,2.591434 -0.667569,1.425288 -1.393474,2.480365 -1.613122,2.344614 -0.219647,-0.135747 0.521316,-1.921748 1.646585,-3.968885 2.142208,-3.897201 2.381904,-4.621599 1.529238,-4.621599 -0.284189,0 -1.272151,1.585765 -2.195471,3.523921 -1.994975,4.187686 -1.90274,4.042616 -2.310842,3.634514 -0.178452,-0.178451 0.312115,-1.41069 1.09015,-2.738305 1.834986,-3.131168 1.365364,-3.58009 -0.702844,-0.671868 -2.312616,3.2519 -3.544343,4.604735 -4.192513,4.604735 -0.629581,0 -0.802298,-1.033772 -0.177349,-1.061493 0.215351,-0.0096 0.941053,-0.47527 1.612671,-1.034931 1.107552,-0.922923 1.145198,-1.093486 0.404773,-1.833911 -0.740425,-0.740425 -1.428447,-0.19935 -7.397659,5.817695 -6.398517,6.449793 -6.571886,6.684282 -6.242028,8.442573 0.526134,2.804539 2.722268,5.656185 6.166645,8.007292 3.712028,2.533809 6.03516,3.567544 9.24055,4.11181 3.44674,0.585242 3.315813,0.592347 6.189623,-0.335791 z m -5.06982,-6.211643 c 0.226101,-1.878088 0.522364,-3.594749 0.658363,-3.814798 0.245199,-0.396741 0.91876,-4.71911 1.00895,-6.474633 0.02582,-0.502485 0.374122,-0.913609 0.774015,-0.913609 0.449602,0 0.605713,0.316271 0.409063,0.828732 -0.174908,0.455803 -0.451363,1.689175 -0.614345,2.740827 -0.162981,1.051653 -0.359676,2.264487 -0.437098,2.695189 -0.487144,2.709984 -0.866953,4.932523 -1.115189,6.525779 -0.512527,3.289572 -1.105235,1.913478 -0.683759,-1.587487 z m 3.578758,2.892643 c 0,-0.287134 0.234928,-0.522063 0.522063,-0.522063 0.287134,0 0.522062,0.234929 0.522062,0.522063 0,0.287134 -0.234928,0.522062 -0.522062,0.522062 -0.287135,0 -0.522063,-0.234928 -0.522063,-0.522062 z m 3.428706,-4.75344 c -0.319403,-2.823136 -0.156856,-4.207389 0.41757,-3.556054 0.470792,0.53383 0.860838,6.743307 0.42358,6.743307 -0.264306,0 -0.642821,-1.434262 -0.84115,-3.187253 z m -16.185423,1.153705 c -0.158865,-0.257042 0.04005,-0.593564 0.442023,-0.747818 0.401977,-0.154248 0.888558,-0.998423 1.081292,-1.875931 0.328502,-1.495667 1.118773,-2.498977 1.594015,-2.023738 0.310328,0.310329 -1.97903,5.114848 -2.43723,5.114848 -0.215191,0 -0.521237,-0.210313 -0.6801,-0.467361 z M 27.20642,84.897799 c 0,-0.992806 1.94864,-2.862473 2.455311,-2.355801 0.198363,0.198363 -0.272933,0.994252 -1.047325,1.768648 -1.031353,1.03135 -1.407986,1.188413 -1.407986,0.587153 z m 2.610311,-3.307374 c 0,-0.932931 1.357059,-2.895906 2.00202,-2.895906 0.605408,0 0.523618,0.283866 -0.349605,1.213372 -0.626946,0.667352 -0.981135,1.372136 -0.787086,1.566187 0.194049,0.194045 0.07873,0.352815 -0.256256,0.352815 -0.334991,0 -0.609073,-0.106412 -0.609073,-0.236468 z m -4.38203,-1.112311 c -0.195108,-0.508442 -0.07843,-0.747113 0.303063,-0.619949 0.780398,0.260133 1.210085,1.446666 0.523891,1.446666 -0.280342,0 -0.652471,-0.372022 -0.826954,-0.826717 z m 8.854743,-0.869986 c 0.201617,-0.646052 0.528245,-1.292104 0.725839,-1.435671 0.197594,-0.143567 0.510949,-0.672155 0.696344,-1.17464 0.185395,-0.502485 0.570113,-0.91361 0.854929,-0.91361 0.284815,0 -0.0015,1.045587 -0.636194,2.323528 -1.210923,2.438057 -2.26863,3.211811 -1.640918,1.200393 z m -7.605087,0.200608 c 0,-0.24858 1.297533,-1.802384 2.883407,-3.452894 1.585873,-1.650505 3.224966,-3.488567 3.642428,-4.084579 0.417462,-0.596007 0.899269,-0.943403 1.070682,-0.771995 0.332527,0.332528 -0.772692,1.759575 -4.33071,5.591753 -1.218716,1.312626 -2.21716,2.562788 -2.218765,2.778138 -0.0016,0.215351 -0.237845,0.391547 -0.524979,0.391547 -0.287135,0 -0.522063,-0.203385 -0.522063,-0.45197 z m 5.220623,-2.09442 c 0,-0.251974 0.352392,-0.750595 0.783094,-1.108046 0.430701,-0.357451 0.783093,-0.934706 0.783093,-1.282785 0,-0.782201 3.107744,-3.614426 3.516987,-3.205181 0.163266,0.163264 -0.296537,0.763599 -1.021785,1.334083 -0.725248,0.570478 -1.711846,1.865871 -2.192442,2.878652 -0.802208,1.690526 -1.868947,2.480062 -1.868947,1.383277 z m 5.111432,-2.435384 c -0.448212,-0.448212 1.370037,-3.85813 2.066925,-3.876282 0.358918,-0.0093 0.652578,0.217925 0.652578,0.505059 0,0.287134 -0.234928,0.522062 -0.522062,0.522062 -0.287135,0 -0.529535,0.29366 -0.538666,0.652578 -0.02139,0.840693 -1.309252,2.546109 -1.658775,2.196583 z m 5.329815,-1.282974 c 0,-0.287134 0.234928,-0.522062 0.522062,-0.522062 0.287134,0 0.522062,0.234928 0.522062,0.522062 0,0.287134 -0.234928,0.522063 -0.522062,0.522063 -0.287134,0 -0.522062,-0.234929 -0.522062,-0.522063 z m -5.45936,-3.096299 c -0.165197,-0.267296 -0.0616,-0.633554 0.23022,-0.813906 0.291819,-0.180351 0.530579,0.03832 0.530579,0.485988 0,0.917018 -0.313267,1.052039 -0.760799,0.327918 z m 31.040415,18.36824 c 6.020487,-2.791138 9.397123,-6.532383 9.397123,-10.411807 0,-0.972999 -1.198964,-2.561587 -4.407059,-5.839215 -2.423883,-2.476413 -5.877977,-6.356542 -7.675773,-8.622501 -1.797788,-2.265959 -3.366225,-3.82738 -3.485412,-3.469819 -0.119187,0.35756 0.287316,1.271817 0.90334,2.031678 0.616027,0.759862 1.492372,2.203819 1.947434,3.208788 0.45506,1.004971 0.978517,1.944683 1.163228,2.08825 0.184711,0.143567 1.030946,1.192401 1.880521,2.330742 0.849572,1.138341 1.90541,2.449965 2.346309,2.914721 4.452786,4.693716 5.796583,6.413373 5.355957,6.853999 -0.315429,0.31543 -1.144625,-0.326424 -2.264934,-1.75321 -2.311298,-2.943596 -3.620875,-4.509439 -4.899704,-5.85849 -1.810949,-1.910398 -3.915466,-4.914606 -3.915466,-5.589361 0,-0.760571 -3.664554,-6.207274 -4.176263,-6.207274 -1.075643,0 -0.737111,0.960772 1.348428,3.82691 1.279533,1.758458 2.205157,3.513213 2.056942,3.899461 -0.348445,0.908023 0.224925,1.94049 2.82493,5.086861 1.167353,1.412658 2.122462,2.737663 2.122462,2.944452 0,0.206794 0.822248,1.174546 1.827218,2.150557 1.79518,1.743459 2.335274,2.974252 1.305156,2.974252 -0.287134,0 -0.522063,-0.266106 -0.522063,-0.59134 0,-0.32524 -0.423204,-0.971292 -0.940459,-1.435671 -0.517248,-0.464385 -1.631821,-1.784044 -2.476826,-2.932581 -0.844997,-1.148537 -1.666484,-2.205713 -1.82552,-2.34928 -0.159035,-0.143568 -0.847809,-1.08328 -1.530609,-2.08825 -0.6828,-1.00497 -1.301904,-1.909474 -1.375786,-2.010013 -0.07388,-0.100533 -0.376444,-0.03315 -0.672354,0.149728 -0.327594,0.202461 0.137612,1.396986 1.189432,3.054132 0.9501,1.496894 2.369743,4.013725 3.154776,5.592963 0.785024,1.579239 2.023221,3.654734 2.75155,4.612207 0.974173,1.28066 1.170301,1.894799 0.741924,2.323177 -0.428379,0.428378 -0.582314,0.407496 -0.582314,-0.07899 0,-0.363721 -0.615204,-1.467883 -1.367121,-2.453693 -0.751917,-0.985813 -1.163039,-1.795986 -0.913609,-1.800382 0.249431,-0.0042 0.20538,-0.180591 -0.09789,-0.391546 -0.485754,-0.33789 -3.157993,-4.930211 -5.324823,-9.150865 -0.605938,-1.180274 -0.890884,-1.340468 -1.494001,-0.83992 -0.64425,0.534675 -0.638316,0.781736 0.0438,1.822759 0.488546,0.745615 0.592067,1.325986 0.271812,1.523916 -0.675481,0.417472 -1.697527,-2.290966 -1.356548,-3.594879 0.145463,-0.556247 -0.0756,-1.825282 -0.491254,-2.820077 -0.415653,-0.994795 -0.759326,-2.191147 -0.76372,-2.658565 -0.0097,-1.026673 -0.873115,-2.492049 -1.247694,-2.11747 -0.147581,0.147582 0.103656,1.785276 0.558308,3.639318 0.454655,1.854041 0.799299,3.910372 0.765871,4.569627 -0.03341,0.659255 0.428985,3.008535 1.027576,5.220623 0.598591,2.212088 1.198097,4.602 1.33223,5.310919 0.134139,0.708919 0.432435,1.531167 0.66289,1.827218 0.666959,0.856835 1.133996,5.49787 0.553249,5.49787 -0.281641,0 -0.512074,-0.439305 -0.512074,-0.976236 0,-0.536925 -0.67831,-3.29733 -1.507356,-6.134232 -1.683766,-5.761673 -2.315123,-8.585075 -2.437551,-10.900682 -0.109535,-2.071705 -1.195898,-7.149262 -1.61109,-7.530086 -0.180404,-0.165468 -0.169003,1.226183 0.02532,3.092556 0.194336,1.866373 0.470754,4.920438 0.614267,6.78681 0.213003,2.770078 1.564783,13.395378 1.94672,15.301626 0.05408,0.269916 -0.200692,0.60022 -0.566156,0.734009 -0.444275,0.162633 -0.65083,-0.248277 -0.623273,-1.239898 0.02265,-0.815733 -0.188577,-3.245108 -0.469435,-5.398615 -0.517536,-3.968206 -1.708992,-15.240388 -1.891202,-17.892313 -0.08553,-1.244889 -1.437445,-2.921095 -2.398274,-2.973578 -0.327104,-0.01785 -0.07008,5.189148 0.35655,7.223359 0.47616,2.270349 0.993759,0.543827 0.814081,-2.715471 -0.09761,-1.770632 -0.02564,-3.069048 0.159951,-2.88536 0.185587,0.183682 0.444084,3.942531 0.574453,8.352997 0.130362,4.410461 0.340886,8.782539 0.467825,9.715726 0.12694,0.933186 0.04145,1.696702 -0.189984,1.696702 -0.231431,0 -0.699619,-2.750318 -1.040416,-6.111815 -0.340794,-3.361501 -0.71197,-6.204162 -0.824836,-6.317027 -0.324008,-0.324007 -1.359016,0.453458 -1.130276,0.84903 0.113056,0.195507 0.367599,3.983059 0.565653,8.416778 0.198051,4.433718 0.580369,8.472888 0.84959,8.975937 0.728583,1.361372 4.956155,2.389954 8.054389,1.95966 1.435672,-0.199391 4.607201,-1.288303 7.047842,-2.419806 z M 53.570565,88.091641 c 0.177461,-0.287134 0.55758,-0.522063 0.844717,-0.522063 0.287134,0 0.37687,0.234929 0.199411,0.522063 -0.177459,0.287134 -0.557578,0.522062 -0.844714,0.522062 -0.287137,0 -0.376873,-0.234928 -0.199414,-0.522062 z m 12.135431,-0.652578 c -0.140118,-0.646052 -0.427564,-1.585764 -0.638775,-2.088249 -0.218681,-0.520251 -0.157187,-0.913609 0.142827,-0.913609 0.479242,0 1.673109,2.663253 1.673109,3.732338 0,0.958381 -0.936983,0.376939 -1.177161,-0.73048 z M 53.831598,85.74236 c 0,-0.778243 0.224803,-1.227843 0.522065,-1.044124 0.287134,0.177459 0.52206,0.647315 0.52206,1.044124 0,0.39681 -0.234926,0.866665 -0.52206,1.044125 -0.297262,0.183719 -0.522065,-0.265881 -0.522065,-1.044125 z m 10.147881,-2.973233 c -0.200055,-0.630307 -1.038133,-2.242054 -1.8624,-3.581661 -1.476018,-2.398829 -1.950144,-3.965972 -1.02733,-3.39564 0.424191,0.262164 4.227222,7.372893 4.227222,7.903862 0,0.741569 -1.035793,0.02402 -1.337492,-0.926561 z m 8.202611,0.127994 c 0.224335,-0.673012 0.940396,-0.7939 1.00497,-0.169671 0.02156,0.208173 -0.242758,0.472467 -0.58732,0.587321 -0.344561,0.114853 -0.532503,-0.07309 -0.41765,-0.41765 z M 24.460839,73.34338 c 1.885838,-1.794589 4.774989,-4.554993 6.420337,-6.134232 1.645348,-1.579238 3.858422,-3.656498 4.917943,-4.616127 2.57253,-2.330001 1.902751,-2.777867 -1.04597,-0.699417 -2.441441,1.720884 -3.370231,2.03479 -3.370231,1.139046 0,-0.287135 0.176196,-0.471235 0.391547,-0.409109 0.549379,0.158482 4.292692,-2.367224 4.300551,-2.90169 0.0036,-0.2417 -1.498172,0.387594 -3.337169,1.398432 -1.838997,1.010843 -3.494776,1.686747 -3.679509,1.502015 -0.184732,-0.184731 1.613562,-1.330815 3.99621,-2.546855 5.22705,-2.667743 3.819053,-3.032435 -1.628446,-0.42179 -2.113555,1.01289 -3.966774,1.717674 -4.118265,1.566187 -0.151491,-0.151492 -0.177551,-0.360776 -0.05791,-0.465068 0.657793,-0.573439 8.834061,-3.98687 9.54984,-3.98687 0.466346,0 0.847902,-0.253592 0.847902,-0.563546 0,-0.826059 -2.839773,-0.111037 -6.600417,1.661918 -3.417618,1.61123 -4.362892,1.825699 -4.362892,0.989877 0,-0.287134 0.322529,-0.522062 0.71673,-0.522062 1.220359,0 5.849358,-2.244028 5.12925,-2.486536 -0.373889,-0.125911 -1.827009,0.264581 -3.229154,0.867772 -2.776629,1.194473 -3.66095,1.347312 -3.66095,0.63274 0,-0.255179 0.814006,-0.616671 1.808904,-0.803313 0.994897,-0.186643 1.96965,-0.599443 2.166116,-0.917337 0.34003,-0.550175 -0.756624,-0.422453 -3.583474,0.417368 -0.502485,0.149279 -0.913609,0.05137 -0.913609,-0.217517 0,-0.268915 0.763516,-0.635548 1.696703,-0.814746 0.933186,-0.179193 2.37767,-0.478919 3.209965,-0.666063 1.070079,-0.240603 1.405068,-0.165191 1.14383,0.257502 -0.22101,0.357602 -0.02,0.597756 0.500325,0.597756 0.558634,0 0.762266,-0.280123 0.569258,-0.783094 -0.204399,-0.532654 0.02818,-0.783093 0.727239,-0.783093 0.565256,0 1.027739,-0.234928 1.027739,-0.522062 0,-0.744769 -2.514483,-0.604794 -4.959592,0.276087 -2.494291,0.8986 -2.871342,0.9309 -2.871342,0.245975 0,-0.287134 0.514757,-0.522062 1.143906,-0.522062 1.09484,0 1.102075,-0.03059 0.168679,-0.713101 -0.866466,-0.633575 -0.513704,-0.760269 3.163108,-1.135992 2.276084,-0.232584 4.314531,-0.381544 4.529882,-0.331019 0.21535,0.05054 0.391546,-0.143066 0.391546,-0.4302 0,-0.334068 -4.682162,-0.522062 -13.00236,-0.522062 H 9.5546975 l -1.63554,2.469214 c -2.938465,4.436271 -2.814992,5.963048 1.117492,13.818321 1.7440135,3.483722 3.5319445,6.190782 5.1721095,7.830945 2.185773,2.185776 2.783016,2.506698 4.664993,2.506698 1.93373,0 2.515054,-0.339497 5.58709,-3.26289 z m -5.607417,0.339973 c 0,-0.569957 3.270044,-3.378182 3.576673,-3.071554 0.165547,0.165546 -0.441275,0.994706 -1.348494,1.842577 -1.620027,1.514049 -2.228179,1.849479 -2.228179,1.228977 z m -3.838379,-2.133606 c -0.622328,-0.62233 -0.347119,-1.208063 0.57549,-1.224827 0.502485,-0.0091 1.369635,-0.361528 1.927,-0.783093 1.127262,-0.852622 1.857952,-0.986557 1.857952,-0.340562 0,0.617172 -3.959311,2.749613 -4.360442,2.348482 z M 23.029921,70.0432 c 0,-0.57619 1.445463,-1.73663 1.765068,-1.417023 0.17775,0.177746 0.323181,-0.115355 0.323181,-0.651336 0,-0.739329 0.146164,-0.828356 0.605635,-0.368884 0.459471,0.459473 0.301979,0.858464 -0.652578,1.653231 -1.256431,1.046113 -2.041306,1.347563 -2.041306,0.784012 z m -9.919184,-1.936501 c 0,-0.367752 0.763516,-0.993683 1.696702,-1.390952 0.933187,-0.397274 2.107827,-0.911067 2.610312,-1.141761 1.979553,-0.908821 0.771131,0.581406 -1.501427,1.851562 -2.793965,1.561577 -2.805587,1.564397 -2.805587,0.681151 z m 6.78681,0.146574 c 0,-0.287134 0.234928,-0.522062 0.522062,-0.522062 0.287135,0 0.522063,0.234928 0.522063,0.522062 0,0.287134 -0.234928,0.522062 -0.522063,0.522062 -0.287134,0 -0.522062,-0.234928 -0.522062,-0.522062 z m 1.387637,-0.35257 c -0.610855,-0.610854 -0.36713,-1.085665 0.700612,-1.364885 0.574269,-0.150176 1.044125,-0.08888 1.044125,0.136217 0,0.647394 -1.36486,1.608542 -1.744737,1.228668 z m 4.877111,-0.841491 c 0,-0.369594 0.487614,-0.708726 1.083588,-0.753618 0.888054,-0.0669 0.970725,0.05437 0.458138,0.671994 -0.775675,0.934632 -1.541726,0.975191 -1.541726,0.08162 z M 23.551983,65.87318 c 0,-0.447647 0.23876,-0.666339 0.530578,-0.485987 0.291818,0.180351 0.395418,0.546609 0.230221,0.813905 -0.447533,0.724121 -0.760799,0.589101 -0.760799,-0.327918 z m 5.261838,-0.03576 c -0.0634,-0.905481 1.362637,-1.92358 1.770336,-1.263913 0.186076,0.301058 -0.0084,0.547393 -0.432079,0.547393 -0.42372,0 -0.888893,0.29366 -1.03372,0.652578 -0.165454,0.410038 -0.278639,0.433797 -0.304537,0.06392 z m -9.960399,-0.590938 c 0,-0.57585 1.920006,-1.68599 2.284882,-1.321115 0.17006,0.170061 -0.09827,0.618618 -0.596294,0.996794 -1.027588,0.780306 -1.688588,0.907261 -1.688588,0.324321 z m 6.264748,0.02616 c 0,-0.428399 2.175693,-2.239987 2.690193,-2.239987 0.995085,0 0.340659,1.018298 -1.124006,1.748966 -0.861403,0.429725 -1.566187,0.650683 -1.566187,0.491021 z M 10.500425,64.306999 c 0,-0.447648 0.23876,-0.66634 0.530578,-0.485988 0.291818,0.180352 0.395418,0.54661 0.230221,0.813905 -0.447533,0.724122 -0.760799,0.589101 -0.760799,-0.327917 z m 2.908025,-0.692928 c -0.307186,-0.49704 1.826735,-1.241297 2.274681,-0.793352 0.274658,0.274657 -0.976215,1.233622 -1.627975,1.248068 -0.198405,0.0042 -0.489422,-0.200227 -0.646706,-0.454716 z m 8.577346,0.04082 c 0,-0.279883 0.944466,-0.88678 2.098814,-1.348659 2.403546,-0.961707 2.599747,-0.9936 2.599747,-0.422594 0,0.229452 -0.88098,0.75687 -1.957733,1.172035 -1.076754,0.41517 -2.13393,0.834334 -2.349281,0.931479 -0.215351,0.09714 -0.391547,-0.05237 -0.391547,-0.332261 z m -5.742685,-1.144314 c 0,-0.287134 0.234928,-0.522062 0.522062,-0.522062 0.287134,0 0.522062,0.234928 0.522062,0.522062 0,0.287134 -0.234928,0.522063 -0.522062,0.522063 -0.287134,0 -0.522062,-0.234929 -0.522062,-0.522063 z m 1.566187,-0.522062 c 0,-0.287134 0.234928,-0.522062 0.522062,-0.522062 0.287134,0 0.522062,0.234928 0.522062,0.522062 0,0.287134 -0.234928,0.522062 -0.522062,0.522062 -0.287134,0 -0.522062,-0.234928 -0.522062,-0.522062 z m 1.86518,-0.460637 c -0.173814,-0.28124 -0.07726,-0.658905 0.214553,-0.839256 0.291818,-0.180352 0.530578,-0.167823 0.530578,0.02783 0,0.195669 0.352392,0.0633 0.783094,-0.294146 0.646455,-0.536513 0.783093,-0.486938 0.783093,0.284117 0,0.513714 -0.15458,0.779449 -0.343512,0.590515 -0.188932,-0.188929 -0.637872,-0.09921 -0.997646,0.19937 -0.421525,0.349834 -0.766514,0.361053 -0.97016,0.03153 z m 3.121969,-1.060962 c -0.168091,-0.271979 -0.06686,-0.642069 0.224958,-0.822421 0.291818,-0.180351 0.530578,-0.167822 0.530578,0.02783 0,0.195669 0.331477,0.08066 0.736616,-0.25557 0.503557,-0.417916 0.843656,-0.438141 1.074935,-0.06393 0.186076,0.301078 0.206991,0.576779 0.04648,0.612671 -0.160513,0.03587 -0.468038,0.09822 -0.683388,0.138508 -0.215351,0.0403 -0.668974,0.249687 -1.008052,0.46532 -0.339077,0.215638 -0.754033,0.169545 -0.922125,-0.102434 z M 9.6612275,58.765364 c -0.313794,-0.507732 -0.403673,-0.491282 2.9274475,-0.535699 1.435671,-0.01916 2.611256,0.170908 2.612409,0.422333 0.0027,0.583389 -5.183773,0.689519 -5.5398565,0.113366 z m 6.5818835,-0.72313 c 0,-0.447647 0.23876,-0.666339 0.530578,-0.485988 0.291818,0.180352 0.395417,0.54661 0.230221,0.813906 -0.447533,0.724121 -0.760799,0.5891 -0.760799,-0.327918 z m 1.566187,-0.230219 c 0,-0.287134 0.234928,-0.522062 0.522062,-0.522062 0.287134,0 0.522062,0.234928 0.522062,0.522062 0,0.287134 -0.234928,0.522063 -0.522062,0.522063 -0.287134,0 -0.522062,-0.234929 -0.522062,-0.522063 z m 2.088618,-0.217763 c 2.03e-4,-0.310929 0.599055,-0.599928 1.330783,-0.642215 0.739899,-0.04276 1.247877,0.170736 1.144458,0.480992 -0.246824,0.740467 -2.475714,0.885648 -2.475241,0.161223 z m 3.132005,-0.248444 c 0,-0.65263 1.473747,-1.149847 1.8075,-0.609821 0.151114,0.244508 -0.0955,0.586636 -0.548041,0.760295 -1.094378,0.419953 -1.259459,0.400229 -1.259459,-0.150474 z M 10.791686,55.318944 c -0.642648,-0.642648 -0.222638,-1.046949 1.013526,-0.97562 0.717633,0.0414 1.304953,0.224085 1.305156,0.405946 5.03e-4,0.451302 -1.956291,0.932064 -2.318682,0.569674 z m 2.841113,-0.528207 c 0,-0.226027 0.469856,-0.446353 1.044125,-0.489611 0.574268,-0.04328 1.044125,0.141672 1.044125,0.410962 0,0.269291 -0.469857,0.489617 -1.044125,0.489617 -0.574269,0 -1.044125,-0.184936 -1.044125,-0.410968 z m 2.610312,-0.111095 c 0,-0.287134 0.234928,-0.522062 0.522062,-0.522062 0.287134,0 0.522062,0.234928 0.522062,0.522062 0,0.287134 -0.234928,0.522063 -0.522062,0.522063 -0.287134,0 -0.522062,-0.234929 -0.522062,-0.522063 z m 1.566187,0.09404 c 0,-0.303167 0.411124,-0.550749 0.913609,-0.550186 0.502485,5.3e-4 2.029517,-0.08831 3.393405,-0.19749 1.363888,-0.109184 2.479796,-0.0068 2.479796,0.227561 0,0.234344 -0.176196,0.434544 -0.391547,0.444891 -0.215351,0.01034 -1.742383,0.155528 -3.393405,0.322624 -1.950852,0.197439 -3.001858,0.110824 -3.001858,-0.2474 z m -7.569904,-2.70435 c -0.177459,-0.287135 0.161069,-0.522063 0.752283,-0.522063 0.591214,0 1.074935,0.234928 1.074935,0.522063 0,0.287134 -0.338527,0.522062 -0.752283,0.522062 -0.413755,0 -0.897476,-0.234928 -1.074935,-0.522062 z m 2.349281,-0.06499 c 0,-0.195966 1.174786,-0.437707 2.610636,-0.537202 1.43585,-0.0995 2.61049,-0.0047 2.610311,0.210642 -1.78e-4,0.21535 -0.293984,0.41304 -0.652902,0.43931 -3.079328,0.225364 -4.568045,0.188621 -4.568045,-0.11275 z m 6.031274,0.109576 c -0.168091,-0.271974 -0.08309,-0.632035 0.188884,-0.800123 0.271977,-0.168094 0.632034,-0.0831 0.800125,0.188882 0.168091,0.271979 0.08309,0.632035 -0.188884,0.800128 -0.271977,0.168089 -0.632034,0.08309 -0.800125,-0.188887 z m 2.060691,-0.04458 c -0.177458,-0.287134 -0.07386,-0.522063 0.230221,-0.522063 0.30408,0 0.552873,0.234929 0.552873,0.522063 0,0.287134 -0.103599,0.522062 -0.230221,0.522062 -0.126621,0 -0.375414,-0.234928 -0.552873,-0.522062 z m 1.566187,0 c -0.364925,-0.590463 -0.40709,-0.563921 1.174641,-0.73935 0.695788,-0.07717 1.17464,0.153387 1.17464,0.565566 0,0.80763 -1.87196,0.946107 -2.349281,0.173784 z M 84.23146,75.537527 c 2.479297,-0.688554 5.82093,-4.488426 7.609317,-8.652776 0.952471,-2.217872 1.380422,-4.299684 1.543106,-7.506541 0.224679,-4.428832 0.221695,-4.441309 -1.521915,-6.364566 -1.676395,-1.849121 -1.915907,-1.938179 -5.923535,-2.202609 -12.967189,-0.855603 -17.489088,-0.95349 -17.489088,-0.378584 0,0.363272 1.010587,0.59276 2.610311,0.59276 1.435672,0 2.610311,0.220159 2.610311,0.48924 0,0.269082 -0.822246,0.355807 -1.827218,0.192725 -1.176319,-0.190892 -1.827219,-0.08841 -1.827219,0.287682 0,0.321314 0.939713,0.734469 2.088251,0.918125 1.148538,0.183662 2.088248,0.557495 2.088248,0.830748 0,0.28042 -0.682172,0.346988 -1.566185,0.152823 -2.26145,-0.496695 -1.925461,0.0868 0.783093,1.359972 1.292103,0.607362 2.34928,1.313352 2.34928,1.568865 0,0.596618 -0.896371,0.603933 -1.263256,0.01029 -0.15441,-0.249843 -1.754039,-0.99289 -3.554727,-1.651221 -1.800692,-0.658325 -3.54673,-1.405026 -3.880082,-1.659333 -0.363445,-0.277262 -0.741793,-0.242827 -0.945025,0.08601 -0.18641,0.301611 0.2038,0.760545 0.867135,1.019854 0.663326,0.259303 1.910837,0.740237 2.772238,1.06875 3.972969,1.515155 4.432629,1.827343 4.123694,2.800702 -0.228555,0.720112 -0.06448,0.923644 0.657196,0.815248 1.315133,-0.197533 4.877264,1.06235 4.877264,1.725029 0,0.295587 -0.352394,0.394831 -0.783093,0.220546 -3.380103,-1.367788 -2.901964,-0.893975 4.421664,4.381674 2.590891,1.866373 4.711545,3.685514 4.712569,4.042532 0.0016,0.551997 -2.494244,-1.064725 -5.836889,-3.780968 -0.483534,-0.392926 -1.540709,-1.125165 -2.349281,-1.627201 -0.80857,-0.502036 -2.057445,-1.430931 -2.775281,-2.064208 -0.717836,-0.633277 -1.833746,-1.311102 -2.479797,-1.506275 -0.673915,-0.203594 -1.174639,-0.771822 -1.174639,-1.332998 0,-0.537974 -0.274852,-1.147999 -0.610783,-1.355618 -0.410681,-0.253816 -0.501566,-0.09287 -0.277413,0.491255 0.360571,0.939645 -0.638048,1.205468 -1.487189,0.39587 -0.883936,-0.842776 -4.526969,-2.717992 -4.782974,-2.461988 -0.136779,0.13678 1.065503,1.121264 2.671744,2.187749 1.606233,1.066479 2.920427,2.140721 2.920427,2.387203 0,0.75048 -0.455229,0.530457 -3.393407,-1.640101 -2.92693,-2.162252 -3.393403,-2.389474 -3.393403,-1.652964 0,0.239407 1.233371,1.28562 2.740827,2.324916 2.959246,2.040214 10.832792,9.551991 10.832792,10.335053 0,0.847104 -0.433536,0.528275 -2.972335,-2.185906 -3.421835,-3.658221 -8.481278,-7.98275 -8.876709,-7.58732 -0.179184,0.179183 0.144965,0.7384 0.720326,1.242707 0.57536,0.504307 1.141614,1.208799 1.258337,1.56554 0.116726,0.356746 2.678973,3.338729 5.693882,6.626636 5.852159,6.382055 6.18139,6.56212 10.039431,5.490655 z m -3.774681,-1.63098 c 0,-0.336308 -0.390107,-1.042533 -0.866908,-1.569388 -1.224187,-1.352715 -0.59587,-1.680189 0.774383,-0.403601 1.175981,1.09559 1.530033,2.584459 0.614588,2.584459 -0.287137,0 -0.522063,-0.275163 -0.522063,-0.61147 z m 0.585893,-4.399936 c -2.118397,-2.048531 -3.760409,-3.998262 -3.648917,-4.332736 0.111491,-0.33448 1.926556,1.150709 4.033473,3.300415 2.10692,2.149706 3.748935,4.099437 3.64892,4.332731 -0.100013,0.233299 -1.915076,-1.251885 -4.033476,-3.30041 z m 8.289167,-3.372403 c 0,-0.30408 -0.234929,-0.407678 -0.522063,-0.230219 -0.287133,0.17746 -0.522062,0.07386 -0.522062,-0.230219 0,-0.766789 0.66244,-0.69062 1.857952,0.213618 0.916951,0.693544 0.926446,0.768068 0.09978,0.783093 -0.502486,0.0091 -0.913609,-0.232192 -0.913609,-0.536273 z m -3.674547,-1.457133 c -1.016032,-0.508353 -2.190674,-1.138247 -2.610313,-1.399764 -0.419638,-0.261517 -1.218576,-0.546328 -1.775408,-0.632912 -1.238985,-0.192651 -1.500246,-0.428655 -1.260724,-1.138832 0.122566,-0.363407 0.624888,-0.319669 1.490055,0.129727 0.717835,0.372873 1.475052,0.737106 1.682702,0.809406 2.511505,0.874512 4.572469,2.020861 4.57674,2.54568 0.0064,0.791608 0.147219,0.81258 -2.103052,-0.313305 z M 73.936214,63.03809 c -2.133155,-2.226539 -1.349139,-2.435301 1.082429,-0.288221 1.293247,1.141939 1.744856,1.813488 1.228794,1.827229 -0.448765,0.01196 -1.488813,-0.680602 -2.311223,-1.539008 z m 15.015935,-1.477813 c -1.709071,-0.889521 -2.402412,-2.037974 -0.876967,-1.452601 0.45738,0.175511 1.397093,0.461038 2.088251,0.634509 0.691163,0.173471 1.256654,0.642324 1.256654,1.0419 0,0.907193 -0.357132,0.87481 -2.467938,-0.223808 z m -5.058461,-1.529491 c -0.215353,-0.21535 -0.548167,-0.404812 -0.739587,-0.421022 -1.526427,-0.129263 -3.741447,-0.93361 -3.741447,-1.358641 0,-0.316652 0.667591,-0.376867 1.696701,-0.153038 2.782494,0.605175 4.128829,1.245777 3.785559,1.801209 -0.387218,0.626527 -0.492379,0.640336 -1.001226,0.131492 z M 85.6774,59.900271 c 0,-0.287135 0.234929,-0.522063 0.522066,-0.522063 0.287134,0 0.522062,0.234928 0.522062,0.522063 0,0.287134 -0.234928,0.522062 -0.522062,0.522062 -0.287137,0 -0.522066,-0.234928 -0.522066,-0.522062 z m -7.961448,-1.770862 c -1.210689,-0.919044 -1.156896,-1.32738 0.130513,-0.990718 0.574271,0.150177 1.044126,0.598038 1.044126,0.99525 0,0.870413 -0.02215,0.87033 -1.174639,-0.0047 z m 11.97812,-0.651236 c -0.183615,-0.183614 -0.228377,-0.504505 -0.09947,-0.71308 0.317733,-0.514106 2.869611,0.0068 2.869611,0.585728 0,0.527523 -2.265797,0.63169 -2.770141,0.127352 z m -2.957425,-0.689884 c -0.422387,-0.267124 -0.647055,-0.6066 -0.499264,-0.754391 0.404498,-0.404499 2.572393,0.265395 2.572393,0.794887 0,0.598805 -1.0961,0.577395 -2.073129,-0.04051 z M 83.06709,55.984803 c 0,-0.878657 0.09561,-0.913969 1.262457,-0.466207 1.166495,0.447627 1.026395,1.249301 -0.218332,1.249301 -0.58007,0 -1.044125,-0.348044 -1.044125,-0.783094 z M 78.025522,55.62966 c -2.237825,-0.409062 -2.747238,-0.711086 -3.017832,-1.789207 -0.347552,-1.384765 -0.03075,-2.29318 0.799706,-2.29318 0.320373,0 0.308408,0.375969 -0.03221,1.012441 -0.656307,1.226319 -0.535233,1.306571 3.227896,2.139573 1.641097,0.363277 2.860607,0.859863 2.710014,1.103525 -0.150588,0.243663 -0.436137,0.415113 -0.63454,0.381001 -0.198406,-0.03409 -1.572265,-0.283479 -3.053022,-0.554153 z m 10.044466,-1.924066 c -0.224888,-0.363883 -0.267901,-0.802587 -0.09558,-0.974909 0.46723,-0.467226 0.976656,0.21995 0.724302,0.977013 -0.176832,0.530504 -0.299805,0.530092 -0.628719,-0.0021 z m 1.783914,-0.361909 c 0,-0.447648 0.234929,-0.668715 0.522062,-0.491256 0.287134,0.17746 0.522063,0.543718 0.522063,0.813906 0,0.270188 -0.234929,0.49125 -0.522063,0.49125 -0.287133,0 -0.522062,-0.366258 -0.522062,-0.8139 z m -7.700421,-0.09305 c -3.894109,-0.272423 -3.414454,-1.123802 0.522062,-0.926651 4.663579,0.233561 4.568048,0.217053 4.568048,0.789473 0,0.287135 -0.52859,0.478606 -1.174642,0.425492 -0.646054,-0.05311 -2.408013,-0.182858 -3.915468,-0.288314 z m -5.111574,-0.693973 c -0.189264,-0.306236 -0.236757,-0.664157 -0.105532,-0.795382 0.364123,-0.364123 1.954216,0.356761 1.954216,0.885971 0,0.653512 -1.432179,0.583331 -1.848684,-0.09059 z M 50.522914,73.865438 c -0.144828,-0.358918 -0.263321,-0.06526 -0.263321,0.652577 0,0.717836 0.118493,1.011496 0.263321,0.652578 0.144825,-0.358917 0.144825,-0.946238 0,-1.305155 z m -6.736786,-4.116284 -0.214687,-1.234855 -0.55131,1.305156 c -0.609552,1.443032 -0.320115,2.465345 0.473345,1.671888 0.279036,-0.279037 0.410729,-1.063023 0.292652,-1.742189 z m 17.354345,-0.224466 c 0,-0.689869 -2.252266,-5.457922 -2.473596,-5.236593 -0.389191,0.389192 1.46403,5.53136 1.99349,5.53136 0.26406,0 0.480106,-0.132646 0.480106,-0.294767 z m 0.790458,-2.638602 c -1.222759,-1.86617 -1.57906,-1.183333 -0.483769,0.92712 0.512133,0.986791 1.003943,1.454356 1.131702,1.075913 0.124275,-0.368122 -0.167291,-1.269484 -0.647933,-2.003033 z m -23.343553,-0.82548 c 0.754812,-0.754814 0.814193,-1.461775 0.12278,-1.461775 -0.277031,0 -0.755153,0.469857 -1.062492,1.044125 -0.615407,1.1499 -0.04573,1.40309 0.939712,0.41765 z m 11.047423,-4.396151 c 1.461309,-1.229608 1.716534,-1.28928 2.519851,-0.589147 1.935729,1.687096 3.257257,2.078162 4.826356,1.428216 1.432967,-0.593554 2.472216,-2.822567 2.140122,-4.590197 -0.09554,-0.508525 0.344358,-0.593151 1.731023,-0.333013 1.296483,0.243224 2.237505,0.100842 3.10945,-0.470477 1.306256,-0.855895 1.428269,-2.294276 0.549339,-6.476173 -0.233691,-1.111893 -0.156237,-1.696702 0.224713,-1.696702 0.787599,0 0.726271,-3.598555 -0.08877,-5.209383 -0.39389,-0.778463 -1.576168,-1.634305 -2.967829,-2.14838 -1.813526,-0.669912 -2.436977,-1.222275 -2.886504,-2.557384 -0.596895,-1.772798 -2.490351,-3.658471 -3.673576,-3.658471 -0.376859,0 -1.419281,0.617684 -2.316486,1.372633 l -1.631283,1.372634 -1.183246,-1.111602 c -2.210615,-2.076765 -5.803281,-0.756256 -6.163542,2.265448 -0.151789,1.273135 -0.413468,1.465535 -2.13134,1.567056 -3.656181,0.216064 -5.113466,2.954391 -3.001286,5.639592 1.318061,1.675643 1.309266,1.766059 -0.208863,2.147086 -1.347763,0.338265 -2.308284,2.40772 -2.001492,4.312235 0.243867,1.513881 1.813426,2.846038 3.842064,3.260937 1.380501,0.282342 1.773782,0.689853 2.240146,2.321178 0.702704,2.458031 2.635663,4.522103 4.234851,4.522103 0.665668,0 1.942005,-0.615683 2.836305,-1.368189 z m 3.95977,-1.431688 c -0.731039,-0.731039 -1.329161,-1.927162 -1.329161,-2.658049 0,-1.037479 -0.262528,-1.328884 -1.197195,-1.328884 -0.897835,0 -1.322096,0.421425 -1.696701,1.685358 -0.293667,0.990838 -1.104181,2.012744 -1.966836,2.479796 -1.379403,0.746837 -1.525093,0.724169 -2.431418,-0.378296 -1.102852,-1.341523 -0.867979,-3.050363 0.540125,-3.929736 0.748763,-0.467611 0.824813,-0.799167 0.379956,-1.656545 -0.305895,-0.589555 -0.612728,-1.140717 -0.681853,-1.224811 -0.06912,-0.08409 -0.973247,0.251285 -2.00916,0.745281 -1.594962,0.760582 -2.077182,0.7945 -3.147998,0.221417 -1.461804,-0.782336 -2.055667,-2.893264 -1.048994,-3.728731 0.379253,-0.314752 1.631542,-0.492441 2.782865,-0.394862 1.151324,0.09758 2.100268,0.001 2.108764,-0.214134 0.08402,-2.129498 -0.06464,-2.479796 -1.052406,-2.479796 -1.383255,0 -3.630706,-2.25438 -3.630706,-3.641896 0,-0.647651 0.527823,-1.319539 1.320239,-1.680592 1.108045,-0.504854 1.548562,-0.431234 2.740828,0.458068 0.781323,0.582784 1.504676,1.488055 1.607451,2.011715 0.154535,0.787385 -0.100771,0.710072 -1.475727,-0.446875 -1.928121,-1.622408 -2.532207,-1.730372 -2.991079,-0.534571 -0.398301,1.037954 1.544795,2.790026 3.094218,2.790026 0.576336,0 1.850588,-0.704784 2.831672,-1.566187 0.981083,-0.861403 2.024724,-1.566186 2.3192,-1.566186 0.299461,0 0.464005,-0.862751 0.37338,-1.957735 -0.133295,-1.61055 -0.383477,-1.989037 -1.410751,-2.134264 -1.186926,-0.167799 -1.231834,-0.07091 -0.907441,1.957734 0.369043,2.307866 -0.468104,3.039432 -1.009534,0.882214 -0.82801,-3.299058 0.813043,-5.297065 3.112974,-3.790093 1.03151,0.675873 1.357879,1.325996 1.357879,2.704902 0,1.576173 0.1677,1.815179 1.27364,1.815179 1.093672,0 1.296536,-0.275288 1.435672,-1.948223 0.13348,-1.604941 0.423947,-2.039794 1.648474,-2.467914 1.234506,-0.43161 1.610566,-0.349943 2.218764,0.481817 1.022689,1.398611 0.913207,2.681004 -0.327578,3.836972 -0.930032,0.866461 -0.963988,1.067037 -0.27713,1.637082 0.638429,0.529846 1.039368,0.447789 2.174426,-0.445048 2.36868,-1.863203 4.858994,-1.121546 5.269659,1.569388 0.222165,1.455723 -1.763271,3.232312 -3.286806,2.941069 -0.960739,-0.183656 -1.254061,-0.01243 -1.254061,0.731999 0,0.667023 0.377973,0.97173 1.205375,0.97173 1.871086,0 3.045628,1.166236 3.143555,3.121333 0.07138,1.425105 -0.186505,1.926149 -1.326941,2.578074 -1.364983,0.780295 -1.478558,0.748105 -3.180356,-0.901341 -1.567283,-1.51907 -1.840891,-1.618873 -2.444427,-0.891656 -0.564139,0.679751 -0.523711,1.108354 0.237966,2.52271 1.107874,2.057197 0.924531,3.369875 -0.613026,4.389035 -1.054476,0.698953 -1.261703,0.651617 -2.479797,-0.566474 z m 2.757252,-1.545978 c 0.205986,-1.080309 -1.280925,-2.963017 -2.340108,-2.963017 -0.733827,0 -0.943983,1.894783 -0.3747,3.378307 0.434081,1.131194 2.479593,0.818286 2.714808,-0.41529 z m -7.99368,-0.9121 c 0.444778,-2.025064 0.06342,-2.405382 -1.547484,-1.543253 -2.281968,1.221271 -2.304959,3.146772 -0.03757,3.146772 0.951744,0 1.313173,-0.365637 1.585058,-1.603519 z m 7.075703,-4.434742 c 1.963716,-1.881356 2.93315,-4.845151 2.096283,-6.408843 -1.192308,-2.227843 -5.647556,-3.572968 -8.518893,-2.572013 -0.789065,0.27507 -2.046981,1.227823 -2.795369,2.117229 -1.138439,1.352961 -1.307817,1.94783 -1.036938,3.641813 0.377989,2.36381 1.579882,4.392246 2.819476,4.758436 0.480481,0.141939 2.000491,0.189128 3.377803,0.104862 1.915259,-0.117172 2.869545,-0.503221 4.057638,-1.641484 z M 50.699224,50.76418 c 0,-0.717836 0,-1.42262 0,-1.566187 0,-0.143567 0.15534,-0.265177 0.3452,-0.270246 0.189859,-0.0052 0.422809,0.699715 0.517667,1.566187 0.09486,0.866472 -0.06048,1.575402 -0.345201,1.575402 -0.284716,0 -0.517666,-0.58732 -0.517666,-1.305156 z m -2.484731,-0.253947 c -0.356203,-0.570374 -0.647644,-1.275158 -0.647644,-1.566187 0,-0.874011 0.898617,-0.596425 1.244602,0.384463 0.177242,0.502484 0.459148,1.207269 0.626457,1.566187 0.49503,1.061947 -0.519157,0.743234 -1.223415,-0.384463 z m 4.537009,-0.1376 c -0.320619,-1.163348 -0.314068,-3.001858 0.01069,-3.001858 0.379553,0 1.043562,1.713252 1.062273,2.740827 0.0063,0.347678 -0.982771,0.588307 -1.07297,0.261031 z m -3.618465,-2.42394 c 0,-0.52921 1.59009,-1.250094 1.954217,-0.885972 0.13122,0.131226 0.08373,0.489147 -0.105534,0.795383 -0.416505,0.67392 -1.848683,0.744101 -1.848683,0.09059 z m 13.573621,5.5335 c 0,-1.012487 -1.717559,-2.456982 -2.921445,-2.456982 -1.972048,0 -2.073934,1.097798 -0.252902,2.724894 1.348462,1.204841 1.841095,1.386138 2.432617,0.895217 0.40795,-0.338573 0.74173,-0.861977 0.74173,-1.163129 z M 42.790385,53.062397 c 2.608844,-0.909448 1.778387,-2.037181 -1.50017,-2.037181 -1.878766,0 -2.53555,0.983399 -1.273246,1.906421 1.14838,0.839711 0.788397,0.822739 2.773416,0.13076 z m 19.09589,-6.512001 c 1.004771,-1.004772 1.029433,-1.488583 0.114578,-2.247849 -0.516623,-0.42876 -1.146334,-0.432205 -2.349281,-0.01284 -1.92994,0.672782 -2.117204,1.648934 -0.468834,2.443914 1.596054,0.769745 1.761813,0.758515 2.703537,-0.183212 z m -5.993067,-4.611485 c 0.735983,-1.375199 0.39448,-2.399065 -0.800185,-2.399065 -0.836777,0 -1.970342,2.407677 -1.495383,3.176186 0.53458,0.864962 1.611942,0.50024 2.295568,-0.777121 z m 5.247265,17.700334 c 0,-0.430702 -0.234929,-0.783094 -0.522063,-0.783094 -0.287134,0 -0.522063,0.352392 -0.522063,0.783094 0,0.430701 0.234929,0.783093 0.522063,0.783093 0.287134,0 0.522063,-0.352392 0.522063,-0.783093 z m 3.654436,-0.783094 c 0,-0.287134 -0.234929,-0.522062 -0.522063,-0.522062 -0.287134,0 -0.522063,0.234928 -0.522063,0.522062 0,0.287134 0.234929,0.522062 0.522063,0.522062 0.287134,0 0.522063,-0.234928 0.522063,-0.522062 z m 6.78681,-0.960323 c 0,-0.241047 -0.64152,-0.730563 -1.425607,-1.087816 -1.42202,-0.647916 -1.423131,-0.646814 -0.441149,0.438266 1.015501,1.122116 1.866756,1.418313 1.866756,0.64955 z M 35.748208,52.330372 c -0.317725,-0.827975 -1.232916,-1.086328 -1.232916,-0.348038 0,0.552086 0.570659,1.131132 1.11475,1.131132 0.230267,0 0.283442,-0.352392 0.118166,-0.783094 z M 67.14647,51.543593 c 0.178708,-0.28916 -0.05249,-0.670578 -0.513773,-0.847589 -0.999559,-0.38357 -1.556637,0.0391 -1.076161,0.816542 0.433509,0.701432 1.166759,0.715753 1.589934,0.03106 z M 29.294669,46.906818 c 0,-0.534534 -3.125844,-1.251665 -5.61217,-1.287541 -0.933187,-0.01347 -1.696703,-0.245072 -1.696703,-0.514681 0,-0.282065 1.219166,-0.364373 2.871343,-0.193852 2.239504,0.231138 2.871343,0.137423 2.871343,-0.425867 0,-0.608819 0.338192,-0.602893 2.153886,0.03775 2.520173,0.889171 2.544675,0.892288 2.544675,0.323783 0,-0.741109 -5.907935,-2.164862 -6.59997,-1.590525 -0.401912,0.333561 -0.725762,0.333509 -0.931972,-1.46e-4 -0.633644,-1.025258 1.380898,-1.166429 5.443692,-0.38146 l 1.827218,0.353033 -2.218764,-1.163479 c -1.220321,-0.639913 -2.218765,-1.355497 -2.218765,-1.590199 0,-0.234698 1.402868,0.28144 3.117486,1.14698 1.714617,0.865531 3.390796,1.573699 3.724841,1.573699 0.999422,0 -1.807645,-1.962213 -4.144911,-2.897402 -1.196445,-0.478721 -2.175354,-1.079823 -2.175354,-1.335781 0,-0.790495 0.733327,-0.532331 3.893744,1.370772 1.677074,1.009883 3.189917,1.695456 3.361872,1.523503 0.352082,-0.352084 -0.362068,-0.905304 -3.814941,-2.955253 -1.318103,-0.78255 -2.39655,-1.674816 -2.39655,-1.982812 0,-0.307999 0.998444,0.116094 2.218764,0.942428 3.459219,2.342388 3.950084,2.453709 1.827219,0.41438 -2.784012,-2.674459 -2.437314,-3.48581 0.379882,-0.889009 1.285688,1.185106 2.626163,2.154738 2.978833,2.154738 0.352669,0 -0.687588,-1.233371 -2.311684,-2.740827 -1.624095,-1.507453 -5.329447,-4.958149 -8.234115,-7.668208 -2.904667,-2.710059 -5.653599,-5.199677 -6.108736,-5.532481 -0.466532,-0.341135 -0.608299,-0.740584 -0.324984,-0.915686 0.783594,-0.484285 18.44988,16.087918 18.44988,17.307272 0,0.644234 0.670937,0.793221 1.19811,0.266049 0.264624,-0.264623 -3.196772,-4.55399 -6.818179,-8.449099 -0.363263,-0.390716 -1.294583,-1.571038 -2.069602,-2.62294 -1.857257,-2.520776 -5.272095,-6.324781 -6.965121,-7.758891 -1.284609,-1.088155 -1.507678,-1.112301 -4.293324,-0.464757 -4.21325,0.979403 -5.169644,1.800273 -8.13513,6.982371 -3.4368065,6.005709 -4.5584885,10.209466 -3.7707745,14.131782 1.100584,5.480214 0.681511,5.296349 12.0718125,5.296349 5.448932,0 9.907149,-0.208783 9.907149,-0.463962 z M 12.327643,45.282531 c -0.177459,-0.287134 -0.07386,-0.522063 0.230221,-0.522063 0.30408,0 0.552873,0.234929 0.552873,0.522063 0,0.287134 -0.103599,0.522062 -0.230221,0.522062 -0.126621,0 -0.375414,-0.234928 -0.552873,-0.522062 z m 1.593745,0.04458 c -0.168091,-0.271974 -0.08309,-0.632035 0.188884,-0.800123 0.271978,-0.168094 0.632034,-0.0831 0.800125,0.188882 0.168091,0.271979 0.08309,0.632035 -0.188884,0.800128 -0.271977,0.168089 -0.632033,0.08309 -0.800125,-0.188887 z m 1.799661,-0.336428 c 0,-0.447647 0.234928,-0.668714 0.522062,-0.491255 0.287134,0.17746 0.522062,0.543718 0.522062,0.813906 0,0.270188 -0.234928,0.49125 -0.522062,0.49125 -0.287134,0 -0.522062,-0.366258 -0.522062,-0.813901 z m 2.34928,0.291839 c -0.177459,-0.287135 -0.07386,-0.522063 0.230221,-0.522063 0.304079,0 0.552872,0.234928 0.552872,0.522063 0,0.287134 -0.103599,0.522062 -0.23022,0.522062 -0.126622,0 -0.375414,-0.234928 -0.552873,-0.522062 z m 1.827218,0 c 0,-0.287135 0.234928,-0.522063 0.522062,-0.522063 0.287135,0 0.522063,0.234928 0.522063,0.522063 0,0.287134 -0.234928,0.522062 -0.522063,0.522062 -0.287134,0 -0.522062,-0.234928 -0.522062,-0.522062 z m -9.397122,-0.522063 c 0,-0.287134 0.234928,-0.522062 0.522063,-0.522062 0.287134,0 0.522062,0.234928 0.522062,0.522062 0,0.287135 -0.234928,0.522063 -0.522062,0.522063 -0.287135,0 -0.522063,-0.234928 -0.522063,-0.522063 z m 11.615887,-1.610213 c -0.646052,-0.244414 -1.17464,-0.69515 -1.17464,-1.001644 0,-0.389353 0.31459,-0.394422 1.044124,-0.0168 0.574269,0.297236 1.161589,0.540433 1.305156,0.540433 0.305123,0 0.427319,0.537697 0.174021,0.765745 -0.09571,0.08617 -0.702609,-0.04328 -1.348661,-0.287714 z m -6.177755,-0.434528 c -0.66084,-0.660895 0.02067,-0.991682 1.876278,-0.910706 2.596175,0.113302 2.782971,1.088276 0.212933,1.111393 -1.029436,0.0092 -1.969581,-0.08105 -2.089211,-0.200687 z M 9.8043425,42.324172 c -0.745698,-0.745699 -0.273128,-0.999739 1.4791765,-0.795169 1.00497,0.117322 1.827218,0.422543 1.827218,0.678263 0,0.537506 -2.787247,0.63605 -3.3063945,0.116906 z M 13.89383,42.150147 c -0.177459,-0.287133 0.0436,-0.522062 0.491252,-0.522062 0.447647,0 0.813904,0.234929 0.813904,0.522062 0,0.287134 -0.221063,0.522063 -0.491252,0.522063 -0.270188,0 -0.636445,-0.234929 -0.813904,-0.522063 z m 10.98384,-1.010904 c -0.166167,-0.268864 -0.708619,-0.490953 -1.205451,-0.493538 -1.687632,-0.0088 -7.95117,-1.735373 -7.95117,-2.191806 0,-0.538528 2.179494,-0.216961 6.656294,0.982078 1.818008,0.486926 3.26289,1.165776 3.26289,1.533009 0,0.778815 -0.339594,0.854639 -0.762563,0.170257 z m 1.806687,-1.507707 c 0,-0.44935 -1.117435,-0.958199 -3.122897,-1.422083 -0.42549,-0.09842 -0.856191,-0.426664 -0.957114,-0.729435 -0.100924,-0.302771 -0.516313,-0.550492 -0.923086,-0.550492 -0.406774,0 -0.739588,-0.234929 -0.739588,-0.522063 0,-0.287134 -0.352392,-0.522062 -0.783094,-0.522062 -0.430701,0 -0.783093,-0.234927 -0.783093,-0.522061 0,-0.798896 0.458234,-0.650896 3.191095,1.030651 1.387914,0.85399 3.117125,1.701707 3.842691,1.883812 1.3705,0.343974 1.696655,0.96714 0.797149,1.523066 -0.287135,0.177459 -0.522063,0.101259 -0.522063,-0.169333 z M 11.648573,38.502796 C 9.8183305,38.069339 9.1105505,37.62332 9.5521595,37.181712 c 0.402211,-0.402211 5.6468265,0.901478 5.6468265,1.403668 0,0.509339 -1.165543,0.482227 -3.550413,-0.08258 z m 13.327099,-2.428175 c -1.370479,-0.711845 -2.35243,-1.51974 -2.182114,-1.795317 0.17798,-0.287978 0.904604,-0.08214 1.708686,0.484034 0.76946,0.541795 1.927608,1.1492 2.57366,1.349788 0.646052,0.200586 1.17464,0.583801 1.17464,0.851586 0,0.694938 -0.468419,0.567623 -3.274872,-0.890091 z m -7.427405,-1.233339 c -0.177459,-0.287134 0.0436,-0.522063 0.491251,-0.522063 0.447647,0 0.813904,0.234929 0.813904,0.522063 0,0.287134 -0.221063,0.522062 -0.491251,0.522062 -0.270189,0 -0.636445,-0.234928 -0.813904,-0.522062 z m 10.164767,-0.503315 -1.289708,-1.11806 1.305156,0.353478 c 1.614028,0.437134 1.724184,0.532874 1.474605,1.28161 -0.127058,0.381175 -0.672125,0.192045 -1.490053,-0.517028 z M 14.213085,33.380533 c -0.972947,-0.488691 -1.71297,-1.123461 -1.644496,-1.410595 0.149171,-0.625522 0.264063,-0.596659 2.740558,0.688512 1.065558,0.552966 1.789919,1.152854 1.609692,1.333083 -0.454117,0.454117 -0.692268,0.400338 -2.705754,-0.611 z m 5.82182,-0.300077 c -0.929423,-0.610786 -1.685467,-1.462911 -1.680099,-1.89361 0.0079,-0.635889 0.139015,-0.612879 0.697355,0.122399 0.378177,0.498022 0.785339,0.807749 0.904806,0.688284 0.119466,-0.119467 0.774247,0.202962 1.455069,0.716505 1.802582,1.359691 0.615106,1.675649 -1.377131,0.366422 z m 3.908625,-1.244093 c -1.076754,-0.722066 -1.957734,-1.529855 -1.957734,-1.795087 0,-0.265231 -0.19085,-0.364289 -0.42411,-0.220125 -0.595816,0.368234 -3.48512,-2.208284 -3.008681,-2.682973 0.214662,-0.213874 0.810765,0.129736 1.324671,0.763577 0.513907,0.633841 1.044182,1.042633 1.17839,0.908426 0.134209,-0.134208 0.83045,0.299474 1.547204,0.963739 0.716755,0.664266 1.575824,1.116878 1.909045,1.005803 0.33322,-0.111072 0.605855,0.162645 0.605855,0.608264 0,0.505704 0.294317,0.697273 0.783094,0.509712 0.430701,-0.165277 0.783093,-0.0543 0.783093,0.246605 0,1.076172 -0.813043,0.984822 -2.740827,-0.307941 z M 10.783751,31.222919 c -0.165197,-0.267295 -0.0616,-0.63355 0.230221,-0.813903 0.291818,-0.180354 0.530578,0.03834 0.530578,0.485986 0,0.917017 -0.313266,1.052039 -0.760799,0.327917 z m 5.715128,-0.566653 c -0.180354,-0.291817 -0.508325,-0.419079 -0.728825,-0.282803 -0.482595,0.298263 -2.659317,-1.152183 -2.659317,-1.772018 0,-0.53849 4.668646,1.647201 4.686076,2.193854 0.01839,0.57662 -0.917601,0.476359 -1.297934,-0.139033 z m -0.403507,-4.164661 c -0.400954,-0.572442 -0.884131,-0.88568 -1.073728,-0.696082 -0.189596,0.189595 -0.34472,-0.0359 -0.34472,-0.501102 0,-0.770036 0.14004,-0.766136 1.562886,0.0435 0.859587,0.48913 1.564372,1.18299 1.566187,1.541905 0.005,0.98607 -0.890357,0.782873 -1.710625,-0.388226 z m 19.464044,20.380767 c 0,-0.274124 -0.88098,-0.635214 -1.957733,-0.802425 -1.076754,-0.167206 -2.72125,-0.508254 -3.654436,-0.757883 -2.84029,-0.759778 -1.890231,0.301762 1.044124,1.166642 3.253887,0.959065 4.568045,1.072316 4.568045,0.393666 z m 1.566187,-1.328815 c 0,-0.430702 -0.234928,-0.783094 -0.522062,-0.783094 -0.287134,0 -0.522062,0.352392 -0.522062,0.783094 0,0.430701 0.234928,0.783093 0.522062,0.783093 0.287134,0 0.522062,-0.352392 0.522062,-0.783093 z m 0.115512,-3.346958 c 0.170978,-1.452835 -0.978083,-2.109708 -1.273338,-0.727917 -0.28554,1.336329 0.170433,2.921817 0.690671,2.401576 0.240431,-0.24043 0.502631,-0.993579 0.582667,-1.673659 z m 3.973976,-3.101711 c -0.09571,-0.244724 -2.497604,-2.887665 -5.337539,-5.8732 -5.718207,-6.011374 -5.665951,-5.620878 0.203927,1.523894 2.153507,2.62123 4.228704,4.772264 4.61155,4.780069 0.382846,0.0078 0.617774,-0.186039 0.522062,-0.430763 z m -2.974906,-6.374075 c -1.761557,-2.333006 -3.202831,-4.435129 -3.202831,-4.671386 0,-0.23626 -1.989392,-2.504859 -4.420871,-5.041335 -2.431479,-2.536476 -4.428367,-4.906185 -4.437529,-5.266021 -0.02044,-0.802908 4.248761,3.369167 7.080077,6.918995 2.218614,2.781639 2.249958,2.825055 6.152898,8.522622 1.809242,2.641161 2.826424,3.676082 3.510467,3.571688 1.552911,-0.23699 1.687242,-0.719371 0.633691,-2.275584 -1.382893,-2.042687 -3.53203,-6.887483 -3.20177,-7.217744 0.150368,-0.150368 0.934305,1.199303 1.742082,2.999269 0.807778,1.799969 1.561104,2.995415 1.674058,2.656552 0.112955,-0.338865 -0.132994,-1.278096 -0.546553,-2.087179 -0.927121,-1.813817 -1.713246,-5.344645 -1.024937,-4.603438 0.266643,0.287136 0.926965,1.93163 1.467384,3.654438 1.750463,5.58032 2.388488,5.120361 1.009894,-0.728043 -0.880681,-3.736113 -0.639533,-5.093976 0.274102,-1.543421 0.878551,3.41421 1.025903,3.549333 0.929957,0.852776 -0.0482,-1.354548 0.04535,-2.59579 0.207875,-2.758318 0.415018,-0.415018 1.048558,3.866901 0.66416,4.488871 -0.475837,0.769921 0.304581,4.647727 0.935366,4.647727 0.364289,0 0.441616,-1.194718 0.228081,-3.523923 -0.192246,-2.097019 -0.107471,-3.841007 0.209365,-4.307012 0.42422,-0.623946 0.515943,-0.517851 0.451337,0.522063 -0.16279,2.620206 0.0449,4.698558 0.469538,4.698558 0.239278,0 0.443034,-1.115906 0.452789,-2.479794 0.0098,-1.363888 0.320853,-6.501351 0.691324,-11.416582 0.370473,-4.915229 0.535864,-9.2956871 0.367536,-9.7343452 C 50.389344,8.1615887 49.042314,7.4010174 47.564269,6.9100909 43.202142,5.4612217 37.401914,6.5287971 30.265661,10.094013 c -2.891974,1.444808 -3.649108,2.108997 -4.568046,4.007269 -1.492023,3.08211 -1.391442,4.291185 0.568194,6.83022 3.48103,4.510254 14.587984,16.62036 14.929955,16.278388 0.135988,-0.135988 -1.194023,-2.156074 -2.955579,-4.489077 z m 2.990319,0.942716 c -1.506948,-2.42518 -3.060776,-5.392016 -3.060776,-5.844163 0,-0.157827 0.234928,-0.286956 0.522062,-0.286956 0.287135,0 0.522667,0.293658 0.523405,0.652576 7.41e-4,0.358918 0.833065,2.03191 1.849615,3.717761 1.01655,1.685852 1.779462,3.270217 1.69536,3.520809 -0.0841,0.250595 -0.772451,-0.541417 -1.529666,-1.760027 z m -5.38169,-8.698099 c -0.791711,-1.555409 -2.336128,-3.787226 -3.432039,-4.959592 -2.362576,-2.527401 -4.166231,-4.785429 -4.166231,-5.215779 0,-0.978544 1.215678,0.136538 3.956853,3.629419 3.524527,4.491049 5.582807,7.910043 5.284951,8.778792 -0.112232,0.327345 -0.851823,-0.677431 -1.643534,-2.23284 z m 4.963659,1.000797 c -0.03974,-0.622443 -2.457697,-6.812183 -4.027777,-10.310729 -0.161075,-0.358918 -0.06173,-0.652579 0.220764,-0.652579 0.941696,0 4.610149,9.88109 4.119556,11.09615 -0.179139,0.443677 -0.278429,0.401476 -0.312543,-0.132842 z m -2.826598,-1.723028 c -0.421894,-1.009735 -1.648053,-3.208214 -2.724798,-4.885505 -3.771263,-5.874661 -4.906079,-8.00927 -4.25616,-8.005912 0.630301,0.0031 1.557773,1.386361 3.673632,5.478355 0.593878,1.148537 1.584796,2.793032 2.202041,3.654436 1.362367,1.901267 2.585637,4.881237 2.173085,5.293789 -0.165395,0.165396 -0.645905,-0.525428 -1.0678,-1.535163 z m 8.994953,-0.147696 c -0.222266,-5.291622 0.08529,-15.065422 0.486696,-15.4668347 0.290227,-0.2902241 0.406879,2.8544787 0.296283,7.9871077 -0.10033,4.656194 -0.303154,8.586543 -0.450718,8.734109 -0.147566,0.147566 -0.297082,-0.416907 -0.332261,-1.254382 z m -5.103522,-2.436291 c -0.359268,-1.794587 -0.742462,-4.085136 -0.851543,-5.090105 -0.109081,-1.004973 -0.414407,-2.947504 -0.678504,-4.316736 -0.29783,-1.544141 -0.29364,-2.6048053 0.01104,-2.7931067 0.761709,-0.4707652 0.83303,-0.2171171 1.191795,4.2384987 0.18496,2.297073 0.537437,4.881283 0.783283,5.742684 0.796044,2.789206 1.11566,5.481654 0.650718,5.481654 -0.249464,0 -0.747518,-1.4683 -1.106786,-3.262889 z m 2.371438,1.044125 c -0.559357,-4.078677 -0.551356,-8.411838 0.01588,-8.600917 0.353631,-0.117878 0.523438,0.99419 0.473224,3.099155 -0.04307,1.805649 0.06873,4.281443 0.248452,5.501762 0.179722,1.220322 0.155759,2.218764 -0.05325,2.218764 -0.209011,0 -0.516948,-0.998442 -0.684304,-2.218764 z M 35.301807,12.581301 c -1.165196,-2.7887066 -0.631468,-3.480145 0.650292,-0.842452 0.592687,1.219673 0.87137,2.345052 0.619295,2.500844 -0.252074,0.15579 -0.823389,-0.590486 -1.269587,-1.658392 z m 8.313743,-1.972549 c 0.01971,-1.555393 0.212028,-3.0041139 0.427379,-3.2193869 0.215351,-0.2152729 0.391547,1.0573228 0.391547,2.8279809 0,1.770664 -0.192321,3.219384 -0.427379,3.219384 -0.235059,0 -0.411255,-1.272587 -0.391547,-2.827978 z M 39.735915,7.9550761 c 0,-0.4306994 0.234928,-0.7830927 0.522062,-0.7830927 0.287135,0 0.522063,0.3523933 0.522063,0.7830927 0,0.4307021 -0.234928,0.7830954 -0.522063,0.7830954 -0.287134,0 -0.522062,-0.3523933 -0.522062,-0.7830954 z M 63.388291,33.533637 c 1.092732,-1.003599 2.226593,-1.824723 2.519696,-1.824723 0.903605,0 11.938478,-11.081633 11.938478,-11.989072 0,-1.131036 -4.677918,-6.344625 -6.578489,-7.331804 C 70.443597,11.959847 69.368034,11.275061 68.877827,10.866285 67.76772,9.9405732 63.718433,8.3613465 60.641468,7.6540914 59.004584,7.2778485 57.594979,7.2921889 55.88464,7.7024863 l -2.430608,0.5830915 -0.341244,3.4891832 c -0.187685,1.919049 -0.482772,6.543247 -0.655749,10.275994 -0.292764,6.317664 -0.255878,6.714634 0.533617,5.742685 0.794118,-0.977639 0.826689,-0.78649 0.511493,3.001859 -0.400587,4.814645 0.588711,5.747325 1.107506,1.044123 0.502772,-4.557943 0.819105,-5.8732 1.412566,-5.8732 0.321355,0 0.393467,0.477506 0.177401,1.174641 -0.78988,2.548491 -0.901325,3.52392 -0.402609,3.52392 0.498475,0 1.117306,-1.867175 2.508864,-7.569905 0.350324,-1.435672 1.02234,-3.667488 1.493359,-4.959591 0.471027,-1.292104 0.963832,-2.65783 1.095137,-3.034949 0.131297,-0.377116 0.461283,-0.548119 0.733293,-0.380005 0.490384,0.303072 -0.292198,3.393837 -0.996852,3.937016 -0.186246,0.143569 -0.741667,1.670601 -1.234266,3.393406 -0.492596,1.722806 -1.358906,4.676072 -1.925135,6.562816 -1.170186,3.899229 -1.203233,4.13946 -0.569413,4.13946 0.253043,0 0.734301,-1.089009 1.069449,-2.420025 0.335153,-1.331013 1.516132,-4.091417 2.624392,-6.13423 1.108266,-2.042814 2.659343,-5.358705 3.446849,-7.368645 0.787498,-2.009939 1.589704,-3.7719 1.782676,-3.915466 0.192974,-0.143568 0.515448,-0.705781 0.716613,-1.249365 0.201165,-0.543581 0.513377,-0.840714 0.693801,-0.660289 0.322387,0.322395 -2.940183,7.992294 -5.142712,12.089867 -2.61678,4.868236 -3.616778,7.142764 -3.398081,7.729012 0.128029,0.343191 0.479972,0.004 0.7821,-0.753689 0.302123,-0.757722 1.238224,-2.16729 2.080215,-3.132374 0.841997,-0.965083 2.06627,-2.811875 2.720613,-4.103979 0.654336,-1.292103 1.79236,-3.171529 2.528939,-4.176499 0.736571,-1.004969 1.407459,-1.925106 1.490858,-2.044745 0.0834,-0.119637 0.301855,-0.0673 0.485466,0.116308 0.183607,0.183608 -0.252929,1.103742 -0.970082,2.044743 -0.717151,0.941001 -1.995385,3.003016 -2.840525,4.582256 -0.845135,1.579237 -2.194211,3.576127 -2.997944,4.437529 -1.602354,1.717334 -3.142073,4.391885 -2.752588,4.781365 0.194562,0.194561 1.617615,-1.493967 3.332986,-3.954767 0.0834,-0.11964 0.306962,-0.0622 0.496806,0.127648 0.189844,0.189844 -0.657903,1.534758 -1.883884,2.988699 -2.889624,3.426924 -2.409233,3.907312 0.65945,0.659445 1.301949,-1.377968 2.517672,-2.354905 2.701608,-2.17097 0.183938,0.183939 -0.620699,1.218153 -1.788084,2.298256 -2.007788,1.85768 -2.609016,2.843327 -1.730965,2.837733 0.21535,-0.0013 1.2856,-0.823618 2.378335,-1.827218 z m 1.92868,-4.391817 c 0,-0.89304 7.199746,-7.99754 7.87624,-7.772044 0.272365,0.09079 -1.388369,2.037602 -3.690518,4.326248 -2.302147,2.288646 -4.185722,3.839253 -4.185722,3.445796 z m -1.044125,-2.422957 c 0,-0.577154 4.449567,-5.915803 4.959591,-5.950583 0.287134,-0.01958 1.052813,-0.85494 1.701502,-1.856356 1.076852,-1.662383 2.21473,-2.397105 2.213449,-1.429208 -2.64e-4,0.215349 -1.754349,2.270969 -3.897919,4.568045 -2.143573,2.297073 -3.905298,4.352692 -3.914953,4.568045 -0.02006,0.447228 -1.06167,0.545399 -1.06167,0.100057 z M 53.536167,25.084521 c 0.186089,-0.484936 0.440115,-2.070701 0.564504,-3.52392 0.335643,-3.921294 0.874266,-9.804901 1.006568,-10.995211 0.06383,-0.5742708 0.331515,-0.9266614 0.594847,-0.7830958 0.26334,0.1435682 0.428588,0.4116518 0.367223,0.5957468 -0.06137,0.184094 -0.257265,2.180984 -0.435335,4.437531 -0.178073,2.256547 -0.537207,5.512383 -0.798095,7.235189 -0.260879,1.722805 -0.476104,3.30857 -0.478276,3.523919 -0.0021,0.21535 -0.264002,0.391547 -0.581862,0.391547 -0.327943,0 -0.431567,-0.381371 -0.239574,-0.881706 z m 2.537836,-0.684482 c 0.609737,-2.754035 1.773221,-11.259735 1.87457,-13.704136 0.03273,-0.7896171 0.318715,-1.4356715 0.635495,-1.4356715 0.641318,0 0.43597,2.3580355 -0.909265,10.4412485 -0.453964,2.727775 -1.064876,5.19452 -1.357577,5.481654 -0.35996,0.353116 -0.438671,0.09969 -0.243223,-0.783095 z m 17.939441,-4.464117 c 0.159662,-0.416079 0.500089,-0.756505 0.756504,-0.756505 0.750528,0 0.535464,0.905839 -0.290298,1.222714 -0.505627,0.194027 -0.660236,0.03942 -0.466206,-0.466209 z m -5.172553,-4.193416 c -0.167494,-0.167495 0.165322,-0.774391 0.73959,-1.348661 1.276314,-1.276313 1.802139,-0.938027 0.867704,0.558236 -0.705895,1.130316 -1.082297,1.315422 -1.607294,0.790425 z m -6.886925,-3.349898 c 0.428321,-2.297582 1.274755,-3.299789 1.274755,-1.50935 0,0.720383 -0.363459,1.765813 -0.807694,2.323176 -0.758457,0.951614 -0.786924,0.902005 -0.467061,-0.813826 z m -4.989992,21.98247 c 0,-0.529206 -1.590093,-1.250096 -1.954216,-0.885971 -0.131225,0.131223 -0.08373,0.489146 0.105529,0.795383 0.416508,0.67392 1.848687,0.744101 1.848687,0.09059 z m 29.04555,11.165487 c -0.181838,-0.473855 0.0016,-0.780097 0.467355,-0.780097 0.844378,0 1.036465,0.815791 0.299349,1.271347 -0.257042,0.158864 -0.602062,-0.0622 -0.766704,-0.49125 z m 2.27819,0.0031 c 0,-0.334731 0.411125,-0.578314 0.913609,-0.541295 0.502486,0.03701 0.913609,0.280603 0.913609,0.541295 0,0.260692 -0.411123,0.504275 -0.913609,0.54129 -0.502484,0.03701 -0.913609,-0.206559 -0.913609,-0.54129 z M 76.28028,45.387497 c 0,-0.229478 0.822248,-0.321241 1.827218,-0.203912 1.00497,0.117323 1.827218,0.305077 1.827218,0.417226 0,0.112155 -0.822248,0.203918 -1.827218,0.203918 -1.00497,0 -1.827218,-0.187754 -1.827218,-0.417232 z m 4.176499,-0.10483 c 0,-0.287134 0.234926,-0.522063 0.522063,-0.522063 0.287133,0 0.52206,0.234929 0.52206,0.522063 0,0.287134 -0.234927,0.522062 -0.52206,0.522062 -0.287137,0 -0.522063,-0.234928 -0.522063,-0.522062 z m 2.349281,0 c -0.177462,-0.287134 -0.08772,-0.522063 0.199411,-0.522063 0.287134,0 0.667253,0.234929 0.844711,0.522063 0.177462,0.287134 0.08772,0.522062 -0.199411,0.522062 -0.287134,0 -0.667253,-0.234928 -0.844711,-0.522062 z M 68.50922,45.062785 c 0.334542,-0.349156 1.5523,-0.659955 4.638687,-1.183902 1.004969,-0.170605 1.644224,-0.113522 1.420561,0.126856 -0.42228,0.453834 -0.810062,0.55112 -4.291905,1.076727 -1.148538,0.173382 -1.943841,0.164523 -1.767343,-0.01968 z m 6.726935,-1.734804 c 0,-0.578527 2.423647,-1.177689 4.763818,-1.177689 0.825511,0 1.500929,0.234928 1.500929,0.522062 0,0.287134 -0.528588,0.524648 -1.174639,0.527807 -0.646052,0.0031 -2.05562,0.151366 -3.132374,0.329342 -1.179171,0.194902 -1.957734,0.11476 -1.957734,-0.201522 z m 6.786809,-0.840547 c 0,-0.346699 0.886934,-0.623998 2.088251,-0.652891 1.203285,-0.02892 2.086997,0.193252 2.085295,0.524309 -0.0016,0.315992 -0.941337,0.609793 -2.08825,0.652891 -1.273342,0.04787 -2.085296,-0.1563 -2.085296,-0.524309 z m 5.511883,0.30216 c -0.697182,-0.697188 -0.175302,-1.161362 1.305743,-1.161362 0.878348,0 1.469327,0.206568 1.313289,0.459044 -0.36108,0.584245 -2.234682,1.086665 -2.619032,0.702318 z m 3.36318,-0.931146 c 0,-0.447646 0.234926,-0.668708 0.52206,-0.491249 0.287137,0.177459 0.522063,0.543713 0.522063,0.813906 0,0.270187 -0.234926,0.491249 -0.522063,0.491249 -0.287134,0 -0.52206,-0.366257 -0.52206,-0.813906 z M 77.324405,40.642807 c 0,-0.534157 4.690003,-1.807465 5.110108,-1.387364 0.423386,0.423389 -0.06157,0.754991 -1.487371,1.017032 -0.7004,0.128722 -1.273458,0.268957 -1.273458,0.311631 0,0.04267 -0.528588,0.176123 -1.174639,0.296548 -0.646052,0.120428 -1.17464,0.01341 -1.17464,-0.237847 z m -3.132376,-1.07038 c 0,-0.269291 0.469858,-0.454224 1.044126,-0.410967 0.574267,0.04326 1.044125,0.263588 1.044125,0.489617 0,0.226031 -0.469858,0.410967 -1.044125,0.410967 -0.574268,0 -1.044126,-0.22033 -1.044126,-0.489617 z m 2.610314,-0.570894 c 0,-0.296146 0.411123,-0.683221 0.913609,-0.860169 0.502483,-0.176948 1.735857,-0.676926 2.740827,-1.111065 1.00497,-0.434136 1.944682,-0.829765 2.088248,-0.879176 0.143568,-0.04941 1.396418,-0.599234 2.784113,-1.22183 2.6797,-1.202267 3.481843,-1.373008 3.478679,-0.74045 -0.0016,0.32439 -4.357228,2.39681 -5.218667,2.483067 -0.143568,0.01437 -1.640258,0.665573 -3.325977,1.447105 -3.484317,1.615395 -3.460832,1.609405 -3.460832,0.882518 z m 6.264747,0.08749 c 0,-0.57168 4.082804,-1.382943 4.559718,-0.906028 0.502587,0.502586 0.01812,0.725461 -2.340954,1.076886 -1.299586,0.193601 -2.218764,0.122817 -2.218764,-0.170858 z m 5.461061,-0.626488 c -0.494175,-0.799592 0.007,-1.123098 1.411441,-0.910995 l 1.219465,0.184174 -1.142955,0.642514 c -0.796412,0.447704 -1.247564,0.473266 -1.487951,0.08431 z M 69.847684,35.543674 c -0.469821,-0.469818 1.176206,-2.26844 2.07598,-2.26844 0.386196,0 0.70218,-0.229418 0.70218,-0.509815 0,-0.882825 8.868006,-9.321077 9.211576,-8.765168 0.286194,0.463068 -2.331165,3.221958 -5.34691,5.636041 -0.548693,0.439224 -1.478434,1.378937 -2.066094,2.088251 -1.833431,2.212967 -4.204402,4.191463 -4.576732,3.819131 z m 19.484155,-1.74638 c 0,-0.287134 0.234929,-0.52206 0.522063,-0.52206 0.287134,0 0.522062,0.234926 0.522062,0.52206 0,0.287136 -0.234928,0.522063 -0.522062,0.522063 -0.287134,0 -0.522063,-0.234927 -0.522063,-0.522063 z m -7.830937,-0.741611 c 0,-0.407887 0.693753,-0.893988 1.541671,-1.08022 0.847919,-0.186235 2.140022,-0.809273 2.871344,-1.384528 1.102947,-0.867577 1.329674,-0.907431 1.329674,-0.23373 0,0.449495 -1.15792,1.398953 -2.592962,2.126139 -3.020312,1.530512 -3.149727,1.554028 -3.149727,0.572339 z"
     style="fill:#000000;stroke-width:0.5220623" />
</svg>
