<?xml version="1.0" encoding="UTF-8" standalone="no"?>
<svg
   xmlns:dc="http://purl.org/dc/elements/1.1/"
   xmlns:cc="http://creativecommons.org/ns#"
   xmlns:rdf="http://www.w3.org/1999/02/22-rdf-syntax-ns#"
   xmlns:svg="http://www.w3.org/2000/svg"
   xmlns="http://www.w3.org/2000/svg"
   id="svgGL1"
   version="1.1"
   viewBox="0 0 100 100"
   height="100"
   width="100">
  <defs
     id="defs2" />
  <metadata
     id="metadata5">
    <rdf:RDF>
      <cc:Work
         rdf:about="">
        <dc:format>image/svg+xml</dc:format>
        <dc:type
           rdf:resource="http://purl.org/dc/dcmitype/StillImage" />
        <dc:title></dc:title>
      </cc:Work>
    </rdf:RDF>
  </metadata>
  <path
     id="pathGL1"
     d="m 35.431667,84.837574 c 0,-0.488076 0.344789,-1.23432 0.766189,-1.658323 0.421401,-0.424009 0.621985,-0.916014 0.445743,-1.093339 -0.331822,-0.333877 -6.874821,0.605095 -9.044358,1.29793 -1.670555,0.533484 -1.568351,-0.770434 0.132161,-1.686141 2.187364,-1.17787 0.5733,-1.968565 -4.862957,-2.382249 l -4.9656,-0.377865 1.339944,-1.435105 c 1.057802,-1.132937 1.164976,-1.571155 0.509011,-2.081245 -1.393296,-1.08345 -6.254692,-2.802754 -8.128196,-2.874654 -1.379874,-0.05295 -1.061984,-0.284377 1.449587,-1.055303 L 16.290247,70.503806 14.368154,68.89632 C 13.311005,68.012203 11.003993,66.594735 9.241454,65.74639 6.131692,64.249594 6.126705,63.884218 9.208634,63.342263 11.239383,62.98516 10.513442,60.301868 7.569543,57.283732 6.156294,55.834845 5,54.408541 5,54.114165 5,53.81979 6.019783,53.698728 7.266189,53.845137 9.905142,54.155123 9.917983,54.105092 8.299617,49.819599 7.621596,48.024184 7.29907,46.55521 7.582885,46.55521 c 0.283814,0 0.939452,1.068165 1.456971,2.373702 l 0.940949,2.373702 0.430872,-2.167654 c 0.502599,-2.528497 -0.286005,-3.314132 -3.081311,-3.06972 -1.137901,0.09949 -1.999922,-0.190835 -2.18691,-0.736553 -0.246281,-0.7188 0.275459,-0.812653 2.582495,-0.464555 l 2.891129,0.436229 -0.476696,-3.444327 C 9.878196,39.961656 9.448639,37.572491 9.185797,36.54678 c -0.476082,-1.857883 -0.471829,-1.860935 1.12499,-0.808198 1.588774,1.047434 1.609492,1.034519 2.354677,-1.468056 0.41349,-1.388632 0.751804,-3.443563 0.751804,-4.566512 0,-1.12295 0.274168,-2.041727 0.609264,-2.041727 1.211254,0 1.292533,1.204179 0.306738,4.544223 -0.552255,1.871131 -0.848137,3.55898 -0.657518,3.750779 0.19062,0.191797 -0.226615,1.081913 -0.927177,1.978038 -0.700563,0.896125 -1.26209,2.102821 -1.247832,2.68155 0.01593,0.64656 0.409906,0.339313 1.021894,-0.796934 1.56248,-2.900973 1.794432,-1.528228 0.254844,1.50824 -1.458548,2.876648 -1.544964,6.568399 -0.164429,7.024439 0.623354,0.205915 0.661086,-0.13692 0.160813,-1.46087 -0.359526,-0.951459 -0.440956,-2.515786 -0.180958,-3.476285 0.417489,-1.542317 0.527308,-1.36577 0.939883,1.511042 1.121493,7.819838 1.651405,10.178039 2.45559,10.927778 0.697894,0.650637 0.759124,0.557104 0.330005,-0.504095 -0.289788,-0.716629 -0.483291,-2.182459 -0.430018,-3.257401 0.05329,-1.074942 -0.371506,-3.191636 -0.943953,-4.703764 -0.995895,-2.630656 -0.982442,-3.445231 0.105206,-6.371398 l 0.484303,-1.30296 -1.111186,1.30296 -1.111186,1.302961 0.460144,-1.302961 c 0.253076,-0.716629 0.509179,-1.747863 0.569118,-2.291634 0.05998,-0.543771 0.330906,-1.349978 0.602151,-1.791571 0.287343,-0.467796 0.165106,-0.802895 -0.292871,-0.802895 -0.491384,0 -0.352691,-0.481808 0.369976,-1.28528 0.813097,-0.904015 1.041441,-1.861714 0.769766,-3.228484 -0.285153,-1.43457 -0.166692,-1.85843 0.452577,-1.619329 1.152988,0.445178 3.397663,-4.589579 3.600135,-8.075048 0.07567,-1.302148 1.376871,-0.196558 2.262238,1.922113 l 0.789855,1.890118 2.221742,-3.903392 c 2.234551,-3.925887 3.840451,-5.03866 3.840451,-2.661152 0,1.271632 0.01585,1.271557 2.175049,-0.01025 1.19628,-0.71018 2.692058,-1.866044 3.323944,-2.568586 1.536051,-1.7078 2.303642,-1.088999 1.620802,1.30663 -0.657629,2.307167 -0.615532,2.313567 4.21601,0.641007 2.072814,-0.717555 3.898415,-1.174184 4.056886,-1.014728 0.158479,0.159454 -0.331161,1.165013 -1.088079,2.234574 -1.548429,2.188002 -1.590351,2.151057 3.40582,3.001659 2.169099,0.369291 2.352725,0.5291 1.407243,1.224722 -0.998348,0.734519 -0.924286,1.116271 0.904668,4.663184 1.095621,2.124743 1.992037,3.954861 1.992037,4.066926 0,0.112066 -0.571882,-0.104199 -1.270852,-0.480585 -0.69897,-0.376387 -1.116156,-1.089962 -0.927082,-1.585723 0.189074,-0.495762 -0.0056,-1.11843 -0.431851,-1.383705 -0.495295,-0.308002 -0.660362,-0.155227 -0.456719,0.422712 0.450036,1.277184 -1.111003,4.128571 -3.138955,5.733611 -2.646616,2.094686 -5.793235,1.803266 -8.171839,-0.756828 l -1.967209,-2.11731 0.290163,4.047337 c 0.350779,4.892813 1.973955,7.362293 3.766396,5.730139 1.459042,-1.328568 1.892772,-1.235535 1.488665,0.319313 -0.395226,1.520677 0.652006,3.26896 4.716004,7.87306 1.625598,1.841637 3.420604,4.329515 3.988901,5.528617 0.998628,2.107071 0.976189,2.26308 -0.669115,4.651915 -1.689616,2.453173 -1.695582,2.504473 -0.795319,6.833878 0.498895,2.399184 1.248222,5.003517 1.665178,5.787409 0.706839,1.328904 0.643953,1.396429 -0.930324,0.998876 -1.514593,-0.38249 -1.688787,-0.240669 -1.692021,1.377601 -0.0056,2.618149 -1.240743,6.690081 -2.029889,6.690081 -0.372716,0 -0.830056,-0.586331 -1.016302,-1.30296 -0.382306,-1.470943 -1.187996,-1.708467 -1.65738,-0.48861 -0.519542,1.350213 -6.300015,5.242871 -6.300015,4.24253 z m 3.884889,-2.776699 c 0.449638,-0.545119 0.519749,-0.977221 0.158567,-0.977221 -0.356116,0 -1.010201,0.43975 -1.45353,0.977221 -0.44963,0.545119 -0.519741,0.977221 -0.158559,0.977221 0.356116,0 1.010201,-0.43975 1.453522,-0.977221 z m -8.207022,-1.162 c -0.263255,-0.428588 -0.01633,-0.531223 0.65477,-0.272116 1.578443,0.609446 1.314486,-0.02463 -0.379399,-0.911388 -0.801261,-0.419456 -1.237668,-0.526853 -0.969808,-0.238664 0.26786,0.288196 0.02254,1.040433 -0.545214,1.671639 -0.957215,1.064251 -0.934323,1.121888 0.315046,0.793152 0.741011,-0.194975 1.157083,-0.664151 0.924605,-1.042623 z M 44.98565,76.982744 c -0.173558,-2.358769 -0.558222,-2.52502 -2.874728,-1.242471 -0.777843,0.430661 -1.55332,0.783021 -1.723278,0.783021 -0.433539,0 -0.163863,-1.466937 0.452083,-2.459194 0.283544,-0.456768 0.275347,-0.788509 -0.01824,-0.7372 -2.071013,0.361988 -2.285354,-0.178987 -0.733985,-1.852576 1.544582,-1.666277 3.11392,-4.178937 3.11392,-4.985696 0,-0.191467 -0.418652,-0.186478 -0.93034,0.01109 -0.511687,0.197566 -0.771884,0.774697 -0.578206,1.282514 0.19367,0.507816 0.02955,0.923302 -0.364631,0.923302 -0.394215,0 -0.716749,-0.219873 -0.716749,-0.488609 0,-0.268735 -1.289785,-0.48861 -2.866189,-0.48861 -1.893959,0 -3.486278,-0.462293 -4.694243,-1.362863 -2.359942,-1.759393 -4.740976,-5.292409 -4.744433,-7.039851 -0.0016,-0.753219 -0.729915,-2.811711 -1.618708,-4.57443 -2.237984,-4.438514 -2.069373,-9.367257 0.412137,-12.047294 0.680187,-0.734609 1.415304,-2.294035 1.633587,-3.465389 0.218283,-1.171356 1.083267,-3.059083 1.922188,-4.194951 1.07574,-1.456516 1.288695,-2.157007 0.7225,-2.376652 -0.82272,-0.319162 0.302565,-0.477806 3.729564,-0.525801 2.630414,-0.03684 4.390962,-1.704705 3.895611,-3.690528 -0.286682,-1.149293 -0.170857,-1.423846 0.448936,-1.064145 0.459419,0.266628 0.613135,0.238666 0.341604,-0.06214 -0.27154,-0.300801 -1.655054,-0.655818 -3.074476,-0.788925 -2.251549,-0.211142 -2.676773,-0.03003 -3.333255,1.419682 -0.795112,1.755874 -1.502422,2.086169 -2.163317,1.01022 -0.54703,-0.890591 -2.731996,-0.822822 -3.300278,0.102361 -0.254677,0.414611 -0.42759,1.702667 -0.384266,2.862343 0.0732,1.959103 -0.0634,2.101875 -1.927669,2.014949 -2.840174,-0.132427 -3.809306,1.583429 -2.347747,4.156704 l 1.104782,1.945123 -2.246977,0.944644 c -1.235836,0.519555 -2.429901,1.424278 -2.653474,2.010497 -0.465902,1.221619 1.368062,5.507781 2.356668,5.507781 1.22071,0 0.669522,1.147951 -0.727708,1.515592 -1.193405,0.314009 -1.332632,0.693476 -1.003399,2.734806 0.342814,2.125547 0.274399,2.280686 -0.662783,1.502954 -0.942352,-0.782022 -0.964161,-0.714547 -0.221971,0.686594 0.507896,0.958827 0.991259,1.280049 1.262265,0.838844 0.441999,-0.719579 3.306515,-0.322592 3.306515,0.458242 0,0.230333 -0.600756,0.796285 -1.33502,1.257672 -2.059887,1.29436 -1.44633,4.119797 1.159137,5.337858 1.776438,0.830486 2.092409,1.325359 2.104317,3.295752 0.02159,3.574416 1.24005,4.790253 4.376345,4.366989 2.301524,-0.310604 2.701991,-0.165479 3.32208,1.203881 0.510684,1.127751 1.229885,1.55706 2.608461,1.55706 1.046858,0 2.420049,0.199491 3.051552,0.443316 0.930595,0.359307 0.725916,0.60513 -1.080145,1.297249 l -2.228306,0.85394 2.12282,-0.375884 c 2.580695,-0.456961 2.708228,1.123562 0.143361,1.776749 -1.117343,0.284554 -0.866617,0.35419 0.809505,0.224846 1.475594,-0.113879 2.273175,0.06502 2.033051,0.455925 -0.217335,0.353825 0.505579,0.174656 1.606473,-0.398159 1.980894,-1.03068 1.996012,-1.026179 1.459201,0.434805 -0.298343,0.811953 -0.400507,1.884399 -0.227037,2.383218 0.546552,1.571592 1.468465,-0.856788 1.282864,-3.379156 z m -3.672692,0.0076 c 0.148387,-0.101396 0.852518,-0.614437 1.564751,-1.140097 1.197849,-0.884064 1.228316,-0.87024 0.406329,0.18435 -0.488747,0.62705 -1.192879,1.14009 -1.564742,1.14009 -0.371864,0 -0.554717,-0.08296 -0.406338,-0.184349 z M 34.622313,70.16646 c -0.623195,-0.139476 -1.133091,-0.525262 -1.133091,-0.857303 0,-0.763161 0.702092,-0.755015 1.923694,0.02232 1.163113,0.740115 0.747376,1.179188 -0.790603,0.834981 z m 4.046762,-0.809534 c 0,-0.358314 0.308562,-0.651481 0.685699,-0.651481 0.377129,0 0.505618,0.293167 0.285527,0.651481 -0.220091,0.358314 -0.528654,0.65148 -0.685692,0.65148 -0.157045,0 -0.285534,-0.293166 -0.285534,-0.65148 z m -6.798561,-0.651481 c 0.220092,-0.358313 0.528655,-0.651479 0.6857,-0.651479 0.157037,0 0.285527,0.293166 0.285527,0.651479 0,0.358315 -0.308563,0.651481 -0.685692,0.651481 -0.377136,0 -0.505626,-0.293166 -0.285535,-0.651481 z m -2.266181,-1.341362 c 0,-0.37946 0.291366,-0.508741 0.647482,-0.287291 0.356116,0.22145 0.647481,0.531918 0.647481,0.689928 0,0.158011 -0.291365,0.287292 -0.647481,0.287292 -0.356116,0 -0.647482,-0.310468 -0.647482,-0.689929 z M 28.30937,65.409644 c 0,-0.379461 0.291366,-0.508743 0.647482,-0.287293 0.356116,0.221451 0.647481,0.531919 0.647481,0.68993 0,0.15801 -0.291365,0.287292 -0.647481,0.287292 -0.356116,0 -0.647482,-0.310469 -0.647482,-0.689929 z m -2.589926,-4.560361 c 0,-0.379461 0.291365,-0.508742 0.647481,-0.287292 0.356109,0.221451 0.647482,0.531919 0.647482,0.689928 0,0.158012 -0.291373,0.287292 -0.647482,0.287292 -0.356116,0 -0.647481,-0.310468 -0.647481,-0.689928 z M 25.123076,58.55326 c 0.03107,-0.758935 0.184494,-0.913309 0.391188,-0.393601 0.187035,0.470287 0.164031,1.032188 -0.05114,1.24867 -0.215153,0.216481 -0.368184,-0.1683 -0.340066,-0.855069 z m -0.698603,-2.877369 c 0,-0.358315 0.308563,-0.651481 0.685699,-0.651481 0.377129,0 0.505618,0.293166 0.285527,0.651481 -0.220091,0.358314 -0.528654,0.65148 -0.685691,0.65148 -0.157046,0 -0.285535,-0.293166 -0.285535,-0.65148 z m -0.647482,-3.58314 c 0,-0.537472 0.114511,-0.977221 0.25447,-0.977221 0.13996,0 0.422181,0.439749 0.627162,0.977221 0.204981,0.53747 0.09047,0.977219 -0.25447,0.977219 -0.344932,0 -0.627162,-0.439749 -0.627162,-0.977219 z m 0.05114,-2.660211 c 0.03107,-0.758937 0.184494,-0.91331 0.391188,-0.393603 0.187035,0.470287 0.164039,1.032189 -0.05114,1.24867 -0.215153,0.216482 -0.368184,-0.1683 -0.340066,-0.855067 z m -0.698603,-2.877371 c 0,-0.358314 0.291373,-0.65148 0.647481,-0.65148 0.356116,0 0.647482,0.293166 0.647482,0.65148 0,0.358315 -0.291366,0.65148 -0.647482,0.65148 -0.356108,0 -0.647481,-0.293165 -0.647481,-0.65148 z m 2.589934,-8.46924 c 0,-0.358315 0.291365,-0.651482 0.647481,-0.651482 0.356108,0 0.647482,0.293167 0.647482,0.651482 0,0.358314 -0.291374,0.651479 -0.647482,0.651479 -0.356116,0 -0.647481,-0.293165 -0.647481,-0.651479 z m 1.294963,-1.954441 c 0,-0.358314 0.308563,-0.65148 0.685691,-0.65148 0.377129,0 0.505619,0.293166 0.285527,0.65148 -0.220091,0.358314 -0.528654,0.65148 -0.685691,0.65148 -0.157046,0 -0.285527,-0.293166 -0.285527,-0.65148 z m 1.6187,-1.954441 c 0.220091,-0.358313 0.528654,-0.651479 0.685699,-0.651479 0.157038,0 0.285527,0.293166 0.285527,0.651479 0,0.358314 -0.308563,0.651481 -0.685699,0.651481 -0.377129,0 -0.505619,-0.293167 -0.285527,-0.651481 z m 4.208634,-3.201863 c 0,-0.305277 0.509895,-0.702565 1.13309,-0.882861 0.623203,-0.180295 1.71583,-0.543725 2.428062,-0.807623 l 1.294963,-0.479813 -1.294963,0.949128 c -1.745676,1.279471 -3.561152,1.902023 -3.561152,1.221169 z m 4.724376,48.773234 c -1.496917,-0.297517 -3.317962,-0.862045 -4.046762,-1.254496 -0.7288,-0.392452 -1.325096,-0.566019 -1.325096,-0.385696 0,0.82168 3.783649,2.267294 5.827334,2.226446 2.264254,-0.04528 2.263863,-0.04573 -0.455476,-0.586254 z M 24.767884,77.574809 c -1.809893,-1.457055 -2.00569,-1.485557 -3.334768,-0.485379 -1.384972,1.042252 -1.354385,1.069959 1.599049,1.448833 1.656073,0.212442 3.156718,0.430857 3.334776,0.485373 0.178058,0.05453 -0.541518,-0.59746 -1.599057,-1.448827 z m 3.865239,0.902931 c -0.220092,-0.358313 -0.0916,-0.651479 0.285527,-0.651479 1.442848,0 0.601887,-1.157348 -1.094881,-1.506815 -0.979311,-0.201698 -2.363303,-0.848605 -3.075535,-1.437576 -1.123947,-0.929434 -1.140881,-1.0218 -0.128243,-0.699396 0.682059,0.217158 1.002395,0.10393 0.771144,-0.272556 -0.356036,-0.579629 0.499803,-0.92537 1.785152,-0.721167 0.840571,0.133541 0.545637,-0.27592 -1.61635,-2.244015 -2.021859,-1.840541 -2.042235,-1.845185 -0.534612,-0.121886 0.862037,0.985363 1.273751,1.79157 0.914911,1.79157 -0.35884,0 -0.870958,-0.219875 -1.138045,-0.48861 -0.267087,-0.268736 -0.82554,-0.48861 -1.241006,-0.48861 -0.415466,0 -1.047184,-0.908239 -1.40381,-2.018305 -0.356625,-1.110069 -1.009667,-2.456291 -1.451211,-2.991603 -0.441545,-0.535314 -0.58681,-1.23949 -0.322813,-1.564834 0.263996,-0.325347 0.215431,-0.374208 -0.107915,-0.108582 -0.660457,0.542559 -2.325763,-0.6172 -2.325763,-1.619717 0,-0.363413 0.429446,-0.29287 0.971227,0.15954 0.534166,0.44606 0.971218,0.577438 0.971218,0.291948 0,-0.28549 0.801261,0.191654 1.78058,1.06032 l 1.780573,1.579392 -1.368412,-1.6287 c -0.752625,-0.895785 -1.71348,-2.215033 -2.135231,-2.931661 -0.706712,-1.200824 -0.735698,-1.175289 -0.369753,0.325741 0.306412,1.256833 0.241821,1.405579 -0.282906,0.651479 -0.37399,-0.537471 -0.722802,-1.710135 -0.775135,-2.60592 -0.07814,-1.336873 -0.189727,-1.220141 -0.622972,0.65148 -0.481459,2.079873 -0.509513,2.009374 -0.319371,-0.802516 0.129652,-1.917225 -0.03385,-2.932014 -0.432457,-2.684141 -1.18003,0.733805 -0.140652,6.669001 1.469971,8.394018 0.825468,0.884092 1.154406,1.60744 0.730982,1.60744 -1.283755,0 -3.335764,-4.080994 -3.338337,-6.639222 -0.0016,-1.322532 -0.220943,-2.540918 -0.48803,-2.707526 -0.267087,-0.166607 -0.385094,1.20863 -0.262236,3.056083 0.150633,2.265093 0.661827,3.836375 1.569696,4.824835 0.740478,0.806206 1.021361,1.46583 0.624191,1.46583 -0.397177,0 -0.905145,-0.297948 -1.128829,-0.662106 -0.223684,-0.364159 -0.660019,-0.504577 -0.969641,-0.312038 -0.309622,0.192537 -0.863359,-0.169138 -1.230531,-0.803724 -0.36718,-0.634585 -0.675002,-0.860627 -0.684067,-0.502313 -0.0091,0.358315 0.63766,1.390559 1.437145,2.293877 0.799493,0.903319 1.235096,1.357726 0.968009,1.009794 -1.014415,-1.321473 -0.429454,-1.825776 0.809353,-0.69775 0.803587,0.731728 1.294963,0.879055 1.294963,0.388263 0,-1.474239 1.125413,-0.101156 1.512275,1.845075 0.399121,2.007937 6.124769,7.213123 7.934359,7.213123 0.502193,0 0.878573,0.219875 0.836404,0.488611 -0.130321,0.830447 0.05982,1.46583 0.43863,1.46583 0.19907,0 0.181873,-0.293167 -0.03823,-0.651481 z m -6.793924,-6.0084 c -0.714781,-0.771962 -1.321894,-1.714746 -1.349136,-2.095073 -0.02724,-0.380331 -0.147152,-1.204548 -0.26645,-1.831598 -0.119297,-0.627049 0.04867,-1.14009 0.373282,-1.14009 0.324605,0 0.590186,0.667684 0.590186,1.483742 0,1.997845 1.940103,4.786029 2.591894,3.724895 0.306069,-0.498281 0.630865,-0.547707 0.884603,-0.134615 0.828231,1.348382 -1.574875,1.342205 -2.824379,-0.0072 z m 9.707595,3.402481 c -0.534174,-0.347343 -1.699644,-0.60133 -2.589926,-0.564423 -1.493317,0.06189 -1.468234,0.105624 0.323736,0.564423 2.798715,0.71655 3.368168,0.71655 2.26619,0 z m 2.801255,-0.728395 c -0.754265,-0.758928 -1.763192,-1.248465 -2.242046,-1.087861 -0.544242,0.182532 -0.144731,0.673937 1.065648,1.310765 2.641135,1.389601 2.757159,1.367614 1.176398,-0.222904 z M 19.959195,73.568971 c -1.105236,-1.266567 -2.009522,-2.749699 -2.009522,-3.295848 0,-0.546151 -0.29612,-0.808858 -0.658043,-0.583796 -0.361923,0.225063 -0.50338,0.661007 -0.314338,0.968764 0.189035,0.307759 -0.305225,0.766793 -1.098361,1.020079 -1.296604,0.414068 -1.168864,0.567993 1.266391,1.526019 1.489653,0.586025 3.066725,1.425982 3.504606,1.866565 1.685537,1.695947 1.223968,0.692406 -0.690733,-1.501783 z m 22.626471,-0.590407 c -0.615349,-0.746023 -0.499803,-1.314612 0.562634,-2.76879 1.303502,-1.784122 3.069633,-8.7088 1.928267,-7.560386 -0.312801,0.314736 -0.827014,1.963273 -1.142681,3.663417 -0.315676,1.700144 -1.086868,3.66144 -1.713767,4.358433 -0.932084,1.036303 -0.991076,1.447587 -0.323697,2.256702 0.448873,0.544191 0.961811,0.98944 1.139869,0.98944 0.17805,0 -0.02469,-0.422467 -0.450625,-0.938816 z M 31.073507,72.83857 c -0.438367,-0.178455 -1.312471,-0.189319 -1.942445,-0.02414 -0.629981,0.165177 -0.271316,0.311186 0.797024,0.324461 1.068348,0.01328 1.583787,-0.121868 1.145421,-0.300323 z m 14.288276,-0.592572 c -0.168388,-0.441509 0.0048,-0.996282 0.385468,-1.232828 0.380395,-0.236549 0.691626,0.0097 0.691626,0.547132 0,0.537472 0.340878,1.189199 0.757515,1.448282 0.534333,0.332277 0.606994,0.103683 0.246616,-0.775902 -0.280986,-0.685829 -0.524751,-1.614638 -0.541685,-2.06402 -0.02079,-0.55088 -0.439649,-0.444762 -1.285819,0.32574 -0.690264,0.628539 -1.370124,1.069507 -1.510793,0.979928 -0.140669,-0.08958 -0.25576,-0.01629 -0.25576,0.16287 0,0.179157 0,0.570045 0,0.86864 0,0.298596 0.409269,0.5429 0.909486,0.5429 0.500226,0 0.771726,-0.361235 0.603346,-0.802742 z M 22.91086,67.23971 c -0.179619,-0.447894 -0.32658,-0.08144 -0.32658,0.814349 0,0.895786 0.146961,1.262244 0.32658,0.81435 0.179619,-0.447892 0.179619,-1.180808 0,-1.628699 z M 12.546384,65.150496 C 12.327456,64.576444 11.390425,64.14665 10.362079,64.148609 l -1.800892,0.0034 1.942445,1.210552 c 2.148939,1.339238 2.615917,1.290754 2.042752,-0.212094 z m 29.751182,-0.18615 c 1.820957,-1.735135 1.834148,-1.792758 0.456584,-1.994701 -0.780201,-0.114373 -2.162911,0.282785 -3.072684,0.882574 -2.151233,1.418244 -5.471449,0.823172 -7.494105,-1.343146 -1.679396,-1.798677 -1.420951,-2.771425 0.429477,-1.616482 0.908021,0.566744 1.664023,0.550049 3.13859,-0.06931 l 1.942444,-0.815879 -2.913671,-0.468453 c -1.602514,-0.257648 -3.569245,-0.680088 -4.370498,-0.938756 -1.729689,-0.558388 -1.870772,0.243917 -0.508868,2.893814 2.709534,5.272017 8.732051,6.958503 12.392731,3.470337 z M 24.424489,64.54062 c 0,-0.140821 -0.452179,-0.43063 -1.004848,-0.644018 -0.576208,-0.222478 -0.83611,-0.113259 -0.609272,0.256039 0.380243,0.619039 1.61412,0.915621 1.61412,0.387979 z m -9.876756,-3.187079 c 0.11964,-3.018758 -0.112184,-2.962024 -0.980721,0.240007 -0.463593,1.709111 -0.430712,2.334471 0.122738,2.334471 0.431533,0 0.79974,-1.104829 0.857983,-2.574478 z m 25.092584,0.837198 c 0,-0.537472 0.291365,-1.224751 0.647481,-1.527286 0.381574,-0.324167 0.209824,-0.410138 -0.418214,-0.209338 -0.58614,0.1874 -2.271876,0.704338 -3.746092,1.148752 -1.837549,0.553941 -2.418639,0.980518 -1.847968,1.356588 1.381244,0.910239 5.364793,0.33944 5.364793,-0.768716 z m -27.793763,-4.2743 c -0.375073,-1.503632 -3.999933,-4.018865 -4.731306,-3.282977 -0.194904,0.196108 0.706274,1.537817 2.002616,2.981575 1.296349,1.443759 2.390791,2.990628 2.4321,3.437488 0.04134,0.44686 0.212795,0.276245 0.381079,-0.379146 0.168285,-0.65539 0.130266,-1.896013 -0.08449,-2.75694 z m 35.35069,2.544628 c 2.037703,-1.855479 1.476574,-4.345525 -1.761463,-7.816632 -2.158203,-2.313538 -2.838828,-2.76574 -2.5463,-1.691728 0.251993,0.925171 0.114487,1.46583 -0.372795,1.46583 -0.512516,0 -0.641452,-0.657026 -0.383565,-1.95444 0.4492,-2.259855 -0.186732,-2.495516 -1.823498,-0.675745 -1.574723,1.750795 -0.839271,3.281665 1.576556,3.281665 1.079523,0 1.962772,0.324532 1.962772,0.721182 0,0.396649 -0.412941,0.561743 -0.917643,0.366875 -1.125142,-0.434426 -1.835303,1.217006 -1.322532,3.075473 1.182245,4.284853 3.167902,5.431633 5.588468,3.22752 z M 46.38934,60.073428 c -0.410033,-1.348035 -0.362146,-2.44305 0.106832,-2.44305 0.324605,0 0.590186,0.586332 0.590186,1.302961 0,1.047413 -0.484279,1.839525 -0.697018,1.140089 z m -2.774539,-1.46583 c -0.204981,-0.537471 -0.12164,-0.97722 0.185195,-0.97722 0.306842,0 0.725598,0.439749 0.930579,0.97722 0.20498,0.537471 0.121647,0.97722 -0.185195,0.97722 -0.306835,0 -0.725598,-0.439749 -0.930579,-0.97722 z m 1.529113,-2.28018 c 0,-0.358314 0.291365,-0.65148 0.647481,-0.65148 0.356116,0 0.647482,0.293166 0.647482,0.65148 0,0.358313 -0.291366,0.65148 -0.647482,0.65148 -0.356116,0 -0.647481,-0.293167 -0.647481,-0.65148 z m -1.942461,-0.689935 c 0,-0.379461 0.291366,-0.508743 0.647482,-0.287291 0.356116,0.22145 0.647481,0.531917 0.647481,0.689928 0,0.15801 -0.291365,0.287292 -0.647481,0.287292 -0.356116,0 -0.647482,-0.310469 -0.647482,-0.689929 z m -29.192108,1.667148 c 0.01959,-0.358314 -0.246855,-0.211731 -0.592058,0.32574 -0.345212,0.537472 -0.611638,1.416969 -0.592059,1.954441 0.0376,1.031845 1.11669,-1.046132 1.184117,-2.280181 z m 25.224626,1.180984 c -0.766142,-0.947682 -0.750697,-1.04735 0.112033,-0.723059 0.673656,0.253219 1.031644,-0.03769 1.09547,-0.890215 0.05217,-0.696495 -0.306914,-1.421463 -0.797915,-1.611039 -0.490994,-0.189575 -0.75417,-0.707951 -0.584842,-1.151946 0.169336,-0.443994 -0.450362,-1.154871 -1.377094,-1.579728 -0.959908,-0.440064 -1.51147,-0.489999 -1.281765,-0.116041 0.221756,0.361033 0.02183,0.666177 -0.444364,0.678098 -0.480121,0.01227 -0.184884,0.577152 0.681,1.30296 0.840705,0.704707 1.314924,1.281286 1.053811,1.281286 -0.261113,0 -0.112033,0.439749 0.331288,0.97722 0.443329,0.537471 0.589008,0.97722 0.323745,0.97722 -0.265271,0 -0.119584,0.439749 0.323737,0.97722 0.443329,0.537471 0.951727,0.977221 1.129785,0.977221 0.178058,0 -0.07615,-0.494639 -0.564889,-1.099197 z m -0.888633,-2.158203 c -0.220092,-0.358315 -0.108799,-0.651481 0.247317,-0.651481 0.356116,0 0.827555,0.293166 1.047646,0.651481 0.220091,0.358313 0.108799,0.651479 -0.247317,0.651479 -0.356116,0 -0.827555,-0.293166 -1.047646,-0.651479 z m -1.294963,-2.605921 c -0.220092,-0.358314 -0.108799,-0.65148 0.247317,-0.65148 0.356116,0 0.827554,0.293166 1.047646,0.65148 0.220091,0.358314 0.108799,0.651479 -0.247317,0.651479 -0.356116,0 -0.827555,-0.293165 -1.047646,-0.651479 z m -1.299328,3.901776 c -0.17637,-0.28713 -0.831235,-0.387713 -1.455267,-0.223518 -2.2389,0.589102 -8.467991,-8.075304 -6.628109,-9.219435 0.35293,-0.219473 0.641699,0.02321 0.641699,0.539304 0,0.51609 0.94694,1.653537 2.104317,2.527661 3.55764,2.686957 4.16026,2.766369 1.624156,0.214028 -1.332432,-1.340963 -2.766303,-3.592374 -3.186389,-5.003137 -0.611255,-2.052802 -0.920543,-2.396796 -1.54878,-1.722601 -1.745469,1.87316 -1.672195,5.317687 0.191862,9.018947 1.534554,3.046998 2.150747,3.648093 4.375978,4.268757 2.633155,0.734442 4.461583,0.545966 3.880533,-0.400006 z M 21.269658,57.141762 c 0.805379,-1.033285 0.782479,-1.056328 -0.244465,-0.245971 -0.623195,0.491767 -1.133091,1.004807 -1.133091,1.140091 0,0.53619 0.531705,0.191081 1.377556,-0.89412 z m -8.874687,-3.995699 c -0.442541,-3.356669 -1.56761,-4.649933 -1.56761,-1.801968 0,1.752566 1.303143,5.843726 1.72589,5.418365 0.154663,-0.155619 0.08344,-1.782998 -0.15828,-3.616397 z m 22.65858,2.313082 C 34.890563,55.040906 33.536067,54.180913 32.04357,53.548047 l -2.713636,-1.150665 2.157868,2.240105 c 1.992388,2.06832 4.254746,2.589636 3.565749,0.821658 z M 14.230074,53.23288 c -0.379495,-3.634705 -1.460269,-5.320883 -1.460269,-2.278259 0,1.693198 1.125285,5.372791 1.643098,5.372791 0.07719,0 -0.0048,-1.392539 -0.182829,-3.094532 z m 3.669195,0.280356 c -0.36452,-1.328343 -0.477222,-2.717241 -0.250448,-3.086436 0.226774,-0.369196 0.08363,-1.069759 -0.318105,-1.556808 -1.102878,-1.33709 -1.956424,-4.852537 -1.480628,-6.098122 0.348453,-0.912208 0.508796,-0.821329 0.927903,0.525939 0.40194,1.292054 0.442349,1.178212 0.19551,-0.550774 -0.258795,-1.812757 0.01505,-2.467471 1.627469,-3.891085 1.260521,-1.112916 1.938614,-2.331049 1.938614,-3.482528 0,-0.974004 0.264195,-1.935207 0.587104,-2.136005 0.3229,-0.200797 0.435347,0.294942 0.249889,1.101642 l -0.337214,1.46673 1.052147,-1.423244 c 0.578676,-0.782784 1.850221,-1.559303 2.825645,-1.725599 1.472974,-0.251117 1.389481,-0.302348 -0.492682,-0.30232 -3.682298,5.6e-5 -3.989315,-0.08308 -3.494952,-0.946328 0.256501,-0.447892 -0.325641,-0.08793 -1.293649,0.79992 -1.331389,1.221141 -1.716515,2.122227 -1.581414,3.700041 0.09949,1.161866 -0.258923,2.611142 -0.809123,3.27183 -2.009147,2.412581 -2.59316,4.73125 -1.871178,7.429029 0.375631,1.403607 0.904596,2.552013 1.175482,2.552013 0.270879,0 0.377328,0.992703 0.236548,2.206008 -0.14078,1.213305 0.08702,2.850827 0.506216,3.638938 1.088373,2.046201 1.38071,1.327083 0.606866,-1.492841 z m 1.023216,-18.060365 c 0.06444,-1.08989 0.497533,-2.335845 0.962432,-2.76879 0.678204,-0.631596 0.762438,-0.551314 0.42622,0.406199 -0.23047,0.656357 -0.419035,1.902312 -0.419035,2.768792 0,0.866478 -0.244521,1.575416 -0.54339,1.575416 -0.298861,0 -0.490667,-0.891728 -0.426227,-1.981617 z m 0.924708,13.386926 c -0.0048,-0.169221 -0.447725,-1.265519 -0.984918,-2.43622 -0.927306,-2.020898 -0.957399,-2.03518 -0.594966,-0.28239 0.276008,1.334836 0.167512,1.712941 -0.391737,1.36517 -0.492332,-0.306154 -0.603179,-0.203733 -0.304955,0.28178 0.257688,0.419522 0.770913,0.574725 1.140499,0.344896 0.440883,-0.274163 0.535735,0.338311 0.275809,1.780944 -0.323984,1.798157 -0.280947,1.930472 0.236149,0.726152 0.347777,-0.809964 0.628628,-1.611113 0.624119,-1.780332 z m 14.936992,1.979647 c 0,-0.521185 -0.684289,-1.636126 -1.520646,-2.477647 -1.117582,-1.124482 -1.641226,-2.602349 -1.975532,-5.575534 -0.250193,-2.225022 -0.244052,-4.38874 0.01362,-4.808262 0.7638,-1.243495 1.414301,1.430198 1.123063,4.61605 -0.291629,3.190141 1.293465,6.617312 2.499367,5.403957 0.457436,-0.460256 0.235194,-1.280835 -0.707755,-2.613265 -1.811964,-2.560379 -1.748759,-3.299233 0.13029,-1.523057 2.230488,2.108372 2.564166,0.981509 0.671552,-2.267926 -1.234115,-2.11886 -1.599662,-3.525217 -1.417056,-5.451806 0.135348,-1.42799 0.03967,-2.596346 -0.212548,-2.596346 -1.020986,0 -3.193216,4.002378 -3.724132,6.861795 -0.688137,3.706171 0.04604,6.72351 2.288532,9.404975 1.792544,2.14347 2.831229,2.520268 2.831229,1.027066 z m 2.913671,0.296126 c -0.220091,-0.358314 -0.747176,-0.64699 -1.171308,-0.641504 -0.463346,0.006 -0.383485,0.262042 0.200082,0.641504 1.243897,0.808829 1.468043,0.808829 0.971226,0 z m 0.971219,-3.50337 c 0,-0.135283 -0.509888,-0.648324 -1.133091,-1.14009 -1.026944,-0.810357 -1.049845,-0.787314 -0.244458,0.245969 0.845852,1.085202 1.377549,1.430311 1.377549,0.894121 z M 22.477934,39.156358 c 0.0024,-0.307072 -0.505793,-0.352038 -1.128996,-0.09992 -0.623203,0.252114 -1.488873,0.519298 -1.923702,0.593745 -0.434838,0.07445 -1.017569,0.386289 -1.294964,0.692982 -0.277983,0.30734 -0.0917,0.316571 0.415028,0.02057 0.674405,-0.393956 0.814699,-0.262558 0.526496,0.493124 -0.349616,0.916709 -0.183889,0.910541 1.50458,-0.05599 1.043607,-0.5974 1.899312,-1.337423 1.901558,-1.644494 z m -5.740647,-0.90752 c 0.80538,-1.033283 0.782479,-1.056326 -0.244465,-0.245969 -0.623203,0.491765 -1.133091,1.004806 -1.133091,1.14009 0,0.53619 0.531705,0.191082 1.377556,-0.894121 z m -5.829588,-0.988077 c -0.63946,-0.638625 -0.713833,-0.563794 -0.362456,0.364694 0.243151,0.642503 0.605201,1.004075 0.804551,0.803492 0.199349,-0.200582 4.06e-4,-0.726266 -0.442095,-1.168186 z m 9.120874,-6.581002 c 1.77933,-1.401377 1.883987,-1.612708 0.636131,-1.284529 l -1.493588,0.392804 1.23304,-2.208876 c 0.735133,-1.316926 1.057818,-2.711467 0.799119,-3.453519 -0.33261,-0.954046 -0.646064,-0.496347 -1.342564,1.960353 -0.499756,1.762748 -0.92952,3.351578 -0.955025,3.530736 -0.02549,0.179157 -0.687006,1.351821 -1.470002,2.60592 -0.782997,1.254099 -1.400951,2.719929 -1.373231,3.257401 0.02772,0.537471 0.452242,0.05468 0.943395,-1.072869 0.491153,-1.127547 1.851377,-2.804887 3.022725,-3.727421 z m 23.441983,3.731406 c 0.203077,-0.532478 0.648039,-0.794766 0.988797,-0.582862 0.340767,0.211903 0.925553,-0.189991 1.299536,-0.893098 1.087066,-2.043741 0.790006,-5.003138 -0.669188,-6.666574 -1.449332,-1.6522 -1.430215,-1.442614 0.256087,2.806949 0.491408,1.238372 0.487115,2.176166 -0.0149,3.257401 -0.637979,1.374038 -0.704012,1.263957 -0.694668,-1.158079 0.0093,-2.419877 -1.818528,-6.601032 -2.55973,-5.855256 -0.166142,0.167168 0.164692,0.974464 0.735189,1.79399 1.383928,1.988031 1.30484,4.333733 -0.231586,6.869118 -0.876295,1.446042 -0.990208,1.980132 -0.371385,1.7412 0.490945,-0.189558 1.058781,-0.780312 1.261858,-1.312789 z m -1.556969,-1.048427 c 0.705661,-1.164521 1.259071,-2.703642 1.229791,-3.42027 -0.03823,-0.93624 -0.209283,-0.779017 -0.607671,0.558612 -0.614194,2.062204 -2.410912,4.327489 -3.432368,4.327489 -0.36299,0 0.04636,-0.78019 0.90971,-1.733753 0.863335,-0.953562 1.174271,-1.503182 0.69098,-1.221375 -0.680203,0.396622 -0.774784,0.162789 -0.418644,-1.035038 0.446841,-1.502898 0.431795,-1.51005 -0.522927,-0.248582 -0.648366,0.856689 -0.751589,1.442732 -0.303234,1.721545 0.397847,0.247399 0.07017,0.750986 -0.790149,1.214242 -1.165829,0.627789 -1.284385,0.909751 -0.573085,1.36301 1.582831,1.008615 2.505158,0.639963 3.817597,-1.52588 z M 25.071962,30.940135 c 0,-0.347068 -0.437052,-0.462287 -0.971226,-0.256039 -0.534174,0.206247 -0.971226,0.490212 -0.971226,0.631033 0,0.140821 0.437052,0.25604 0.971226,0.25604 0.534174,0 0.971226,-0.283966 0.971226,-0.631034 z m 3.913342,-3.612674 c 0.730759,-0.233367 1.717693,-0.09943 2.193187,0.29763 0.641419,0.535613 0.946095,0.507472 1.180556,-0.109046 0.207864,-0.546569 -0.366989,-0.881433 -1.679571,-0.978396 -2.190885,-0.161845 -4.978639,1.918053 -4.934113,3.681252 0.01585,0.627306 0.392534,0.347177 0.968606,-0.720305 0.518474,-0.960758 1.540575,-1.937768 2.271335,-2.171135 z m 12.382767,0.835456 c -0.480472,-0.483442 -0.564738,-0.229083 -0.283098,0.854553 0.228957,0.880935 0.522449,1.176245 0.684099,0.688322 0.155707,-0.470005 -0.02477,-1.164298 -0.401001,-1.542875 z m -15.016383,-0.69967 c 1.20035,-1.368231 1.317911,-1.717484 0.467623,-1.389185 -1.070029,0.413145 -2.394838,2.229099 -2.394838,3.282676 0,0.262433 0.07288,0.354997 0.161872,0.205701 0.08903,-0.149298 0.883432,-1.093935 1.765343,-2.099192 z m 2.173233,-2.994974 c 1.454207,-0.423613 1.654759,-0.614443 0.689555,-0.65611 -1.829934,-0.07899 -5.693627,2.612397 -5.992584,4.174346 -0.176385,0.921555 0.224305,0.700027 1.506038,-0.832631 0.960497,-1.148537 2.66915,-2.35706 3.796991,-2.685605 z m -6.042893,3.194014 c 0,-0.358314 -0.291365,-0.651479 -0.647481,-0.651479 -0.356116,0 -0.647482,0.293165 -0.647482,0.651479 0,0.358314 0.291366,0.651482 0.647482,0.651482 0.356116,0 0.647481,-0.293168 0.647481,-0.651482 z m 24.236935,-2.11731 c -0.439202,-1.416053 -1.616501,-2.618518 -2.093659,-2.138412 -0.268975,0.27063 1.817078,3.604243 2.255396,3.604243 0.1611,0 0.08832,-0.659624 -0.161737,-1.465831 z M 32.356132,25.276385 c -0.445145,-0.180729 -1.173563,-0.180729 -1.618708,0 -0.445145,0.180729 -0.08094,0.328598 0.809354,0.328598 0.89029,0 1.254499,-0.147869 0.809354,-0.328598 z M 28.30937,22.915653 c 0.838969,-0.313001 0.833776,-0.369345 -0.03815,-0.413773 -0.555131,-0.02828 -1.574922,0.40449 -2.266181,0.961727 -1.236737,0.996948 -1.236131,1.003569 0.03815,0.413773 0.712232,-0.329664 1.732015,-0.76244 2.266189,-0.961727 z m 13.920857,0.186274 c -0.644558,-0.716628 -1.490975,-1.29644 -1.880928,-1.288473 -0.389945,0.0079 0.01944,0.587779 0.90971,1.288473 2.085574,1.641437 2.447585,1.641437 0.971218,0 z m -4.944929,-0.344951 c 0.167551,-0.168591 -0.30282,-0.306529 -1.045281,-0.306529 -0.742453,0 -1.883644,-0.174238 -2.535968,-0.387194 -1.00923,-0.329472 -1.041258,-0.273054 -0.214827,0.378432 0.788158,0.621318 0.635605,0.691961 -0.809354,0.374784 -0.979311,-0.214965 -1.780572,-0.112502 -1.780572,0.227696 0,0.598174 5.763683,0.338972 6.386002,-0.287189 z M 28.085933,20.79365 c 0.602342,-1.579356 -0.238133,-1.864479 -1.041847,-0.35344 -0.501142,0.942163 -0.510995,1.358757 -0.0321,1.358757 0.379821,0 0.86312,-0.452393 1.073987,-1.005317 z m 14.900742,-2.033867 c -0.122492,-0.12325 -1.202007,0.119401 -2.398925,0.539223 -1.879717,0.659321 -2.004287,0.826633 -0.914345,1.228072 1.11528,0.410771 3.966479,-1.110054 3.31327,-1.767295 z m -8.872529,1.084744 c 0.285455,0 0.66769,-0.572057 0.849404,-1.271238 0.316177,-1.21652 0.249754,-1.211248 -1.543188,0.122516 -2.078549,1.546227 -2.408555,2.146161 -0.849404,1.544163 0.563295,-0.217493 1.257733,-0.395441 1.543188,-0.395441 z m 31.284756,62.491696 c -2.820986,-2.647635 -4.067958,-3.169613 -4.067958,-1.702826 0,0.468987 -0.41087,1.418077 -0.913047,2.109082 -0.853841,1.174899 -0.943642,1.087907 -1.384669,-1.341312 -0.259385,-1.42873 -1.013977,-3.375866 -1.676879,-4.326961 -1.372315,-1.968956 -1.551432,-2.797515 -0.457738,-2.117402 0.463146,0.288007 0.57177,0.178713 0.285526,-0.28729 -0.560236,-0.912089 0.230375,-0.963205 1.556881,-0.10066 0.863303,0.561361 0.863303,0.635199 0,0.664588 -0.582189,0.0198 -0.322837,0.398132 0.647482,0.944456 1.060988,0.597382 2.622584,0.784793 4.53237,0.543948 4.564742,-0.575674 4.269681,-1.186886 -0.515144,-1.067099 -3.424196,0.08573 -3.862372,6.45e-4 -2.074782,-0.402849 l 2.26619,-0.511523 -1.942453,-0.09574 c -1.713042,-0.08443 -4.766298,-1.343229 -3.319993,-1.36877 0.31069,-0.0054 0.202169,-0.449726 -0.241151,-0.987197 -0.508287,-0.616225 -0.55169,-0.97722 -0.117498,-0.97722 0.378706,0 0.847126,0.258162 1.040939,0.573692 0.519622,0.845962 3.188509,1.228082 4.62465,0.66214 0.910267,-0.35871 0.559719,-0.50523 -1.288479,-0.538563 -1.396418,-0.02518 -3.071776,-0.530975 -3.723017,-1.123981 -0.940639,-0.856516 -1.184738,-0.890002 -1.187295,-0.16287 -0.0016,0.506601 -0.714192,0.0426 -1.595417,-1.039118 -0.875714,-1.074942 -1.602682,-1.744766 -1.61549,-1.488499 -0.01282,0.256267 0.84194,1.457463 1.89944,2.669324 l 1.922722,2.203383 -1.760858,0.913815 c -0.96847,0.502604 -2.127217,1.353566 -2.574991,1.891039 -0.660553,0.792863 -0.731022,-0.0058 -0.373568,-4.234622 0.530024,-6.270109 0.490778,-10.198677 -0.136439,-13.655999 -0.457189,-2.520115 -0.382195,-2.658069 3.187417,-5.863321 3.291325,-2.955372 3.665435,-3.558402 3.754113,-6.051274 0.06022,-1.691598 0.406091,-2.76879 0.889112,-2.76879 2.136776,0 3.608506,-4.963304 2.648639,-8.932333 -0.445002,-1.840058 -0.714638,-2.049956 -2.240581,-1.744166 -2.448302,0.490626 -5.101768,-0.699265 -6.42864,-2.882791 -0.62337,-1.025819 -1.503329,-1.739691 -1.955476,-1.586379 -0.485992,0.164786 -0.179006,-0.938179 0.750888,-2.697872 0.865135,-1.637141 1.722783,-3.349197 1.905884,-3.804569 0.21994,-0.546987 0.514427,-0.602071 0.867811,-0.162324 0.304222,0.378569 1.512235,0.485794 2.801097,0.248632 l 2.266181,-0.416997 -2.389844,-0.08577 c -1.314414,-0.04717 -2.569917,-0.378928 -2.790008,-0.737242 -0.220092,-0.358314 -0.69153,-0.65148 -1.047646,-0.65148 -0.356116,0 -0.467409,0.293166 -0.247317,0.65148 0.5603,0.91219 -0.549635,0.815076 -1.489207,-0.130296 -1.33307,-1.341304 -0.867215,-1.824144 1.75999,-1.824144 3.49163,0 4.505551,-0.491992 4.114523,-1.996515 -0.405175,-1.558947 -0.321833,-1.558213 3.151899,0.02776 4.061665,1.854409 5.337256,1.750939 4.803297,-0.389618 -0.418533,-1.677906 -0.379271,-1.666845 2.312543,0.651479 3.088248,2.659743 4.765398,3.088965 4.12393,1.055407 -0.226049,-0.716627 -0.131174,-1.302959 0.210836,-1.302959 0.838196,0 1.516496,1.902021 0.986193,2.76537 -0.241407,0.393009 -0.121265,0.503923 0.277338,0.256051 0.386767,-0.240514 1.087362,0.09858 1.556873,0.753566 1.563006,2.180421 2.433144,2.271755 3.200719,0.335965 0.708767,-1.787489 0.744189,-1.742483 1.498072,1.903661 0.937262,4.53305 1.392364,5.081234 2.681289,3.229673 1.539846,-2.212009 2.213776,-1.706424 2.223416,1.668006 0.006,1.701991 0.18292,3.747961 0.39569,4.546601 0.3562,1.337067 0.49511,1.375765 1.75393,0.48861 2.0848,-1.469267 2.39573,-1.175104 1.36965,1.295795 -0.91063,2.192927 -1.32736,8.815905 -0.55469,8.815905 0.21091,0 1.12431,-0.586332 2.02976,-1.302961 2.51258,-1.988599 2.8584,-1.589957 1.55419,1.791571 -1.18016,3.059905 -2.3105,8.632111 -1.75106,8.632111 0.15909,0 1.03663,-0.285909 1.9501,-0.635355 0.91347,-0.349445 1.66086,-0.50612 1.66086,-0.348166 0,0.157954 -1.01979,2.153914 -2.26619,4.435469 -2.85788,5.231392 -2.88167,6.17799 -0.16187,6.441847 l 2.10432,0.204147 -2.91367,1.729574 c -1.60252,0.951266 -3.5819,2.449546 -4.39863,3.329511 l -1.48496,1.599936 1.96234,0.817849 c 2.52505,1.052365 2.09266,1.655863 -1.87203,2.612849 -4.289948,1.035499 -4.997234,1.979803 -2.939641,3.924745 0.885837,0.83734 1.610615,1.700839 1.610615,1.918882 0,0.218044 -2.044641,0.334385 -4.54365,0.258539 l -4.54365,-0.137898 1.434779,2.027406 c 1.335364,1.886921 1.34736,1.989672 0.173152,1.48286 -1.72272,-0.743573 -9.278894,-1.942453 -9.682587,-1.536261 -0.179237,0.180349 4.78e-4,1.26991 0.399368,2.421244 0.398898,1.151336 0.61699,2.202284 0.484653,2.335433 -0.132329,0.13315 -1.465884,-0.907896 -2.963454,-2.313438 z m 0.9137,-1.904048 c -0.584818,-1.558933 -1.117025,-1.954441 -2.629944,-1.954441 h -1.896763 l 2.524323,1.909827 c 1.388381,1.050401 2.571853,1.929899 2.629952,1.954441 0.05807,0.02456 -0.224313,-0.834885 -0.627568,-1.909827 z m -6.276621,-1.178443 c 0,-0.289831 -0.441784,-1.096037 -0.981748,-1.79157 -0.910355,-1.172658 -0.926342,-1.134338 -0.219805,0.526963 0.762342,1.79254 1.201553,2.254799 1.201553,1.264607 z M 74.872182,78.79378 C 74.159966,78.077165 73.279625,77.9358 71.657898,78.277644 l -2.233428,0.470774 1.942445,0.439058 c 1.068348,0.241485 2.514773,0.473743 3.214292,0.516143 1.13607,0.06884 1.167135,-0.02827 0.290975,-0.909839 z m -9.831706,-1.36113 c -0.215153,-0.216481 -0.773614,-0.239621 -1.241006,-0.05141 -0.516515,0.207966 -0.363094,0.362341 0.391188,0.393599 0.682553,0.02827 1.06497,-0.125684 0.849818,-0.342171 z m 5.678958,-0.257876 c -0.220092,-0.358314 -0.0188,-0.655969 0.447399,-0.661454 0.615875,-0.0072 0.582078,-0.18261 -0.123655,-0.641505 -0.534174,-0.347344 -1.262591,-0.631526 -1.618708,-0.631526 -0.356116,0 -0.210429,0.284182 0.323737,0.631526 0.534174,0.347342 0.735507,0.63602 0.4474,0.641505 -0.552304,0.01049 0.04309,1.312934 0.600246,1.312934 0.178058,0 0.143672,-0.293166 -0.07639,-0.65148 z m 10.89152,-1.379476 c -1.288104,-1.299417 -1.59744,-1.348831 -3.561152,-0.56884 -3.478735,1.381763 -3.334498,1.665593 0.931614,1.833167 l 4.040175,0.158694 z M 70.270258,74.257616 c -0.10907,-0.09207 -1.242368,-0.356984 -2.518448,-0.588708 -1.667336,-0.302773 -2.320147,-0.187682 -2.320147,0.409049 0,0.571921 0.783817,0.75515 2.518445,0.588703 1.385142,-0.132908 2.429212,-0.316977 2.32015,-0.409044 z m 9.39462,-0.423957 c 0.777842,-0.404357 1.950418,-1.20662 2.605713,-1.782807 0.655296,-0.576186 1.529392,-1.080194 1.942445,-1.120016 0.413052,-0.03982 1.479421,-0.137662 2.369711,-0.217422 1.48742,-0.133259 1.51367,-0.187531 0.32373,-0.669189 -0.71223,-0.288293 -1.49335,-0.409489 -1.73583,-0.269324 -0.981627,0.56743 -1.237148,-1.226894 -0.32048,-2.250509 0.54131,-0.604472 1.15412,-1.978538 1.36181,-3.05348 0.37527,-1.942367 0.37133,-1.940752 -0.63894,0.261612 -0.5591,1.218828 -1.747971,3.18092 -2.641933,4.360204 -0.893962,1.179285 -1.617991,2.380807 -1.608958,2.67005 0.0091,0.289242 -0.916042,1.026648 -2.055728,1.638678 -1.139694,0.612031 -1.83449,1.12507 -1.543985,1.140088 0.290497,0.01505 1.164594,-0.303524 1.942445,-0.707885 z m 2.385486,-2.688406 c 0,-0.179156 0.411117,-0.669038 0.913581,-1.088625 0.703869,-0.587765 1.024953,-0.568691 1.398776,0.0831 0.266848,0.465291 0.246759,0.628653 -0.04469,0.363026 -0.291413,-0.265626 -0.920861,-0.156438 -1.398768,0.24264 -0.47789,0.399079 -0.868911,0.579015 -0.868911,0.399858 z m -9.813757,2.104354 c -0.109261,-0.1702 0.305934,-1.034309 0.922661,-1.920242 0.616727,-0.885934 1.109649,-1.912015 1.095391,-2.280181 -0.01426,-0.368165 -0.450132,0.116684 -0.968598,1.077441 -0.518482,0.960758 -1.565093,1.945598 -2.325818,2.188533 -1.085976,0.346801 -1.190864,0.564091 -0.48823,1.011368 0.890911,0.567122 2.143005,0.512543 1.764594,-0.07691 z m 5.778307,-2.181297 c 1.933547,-0.09784 3.840195,-1.059817 2.100573,-1.059817 -0.603951,0 -0.510915,-0.383388 0.316178,-1.302961 0.644558,-0.716628 0.970836,-1.302959 0.725048,-1.302959 -0.24578,0 -0.102857,-0.659624 0.317611,-1.465831 l 0.764469,-1.46583 -1.483392,1.302961 -1.483392,1.302959 0.812779,-1.556637 c 1.196456,-2.291457 1.995638,-5.379495 1.276484,-4.932285 -0.333224,0.207218 -0.610331,1.01908 -0.61578,1.804141 -0.0072,1.059624 -0.154695,1.197431 -0.571842,0.534869 -0.45413,-0.721319 -0.702323,-0.658839 -1.293943,0.32574 -0.635653,1.057873 -0.681327,0.991754 -0.346924,-0.502246 0.211807,-0.946273 0.103836,-1.895399 -0.239926,-2.109169 -0.364256,-0.226513 -0.605201,0.690777 -0.577521,2.198602 0.04508,2.455001 0.107453,2.532692 1.220049,1.51959 0.644892,-0.587228 1.172535,-0.746387 1.172535,-0.353685 0,0.392702 -0.299092,0.899996 -0.664655,1.127318 -0.365555,0.227324 -0.584085,0.904248 -0.485609,1.504279 0.125279,0.763391 -0.209784,1.033904 -1.115918,0.900928 -1.0021,-0.147058 -1.088596,-0.05019 -0.382457,0.428336 0.501874,0.340104 1.303135,0.467545 1.780572,0.283204 1.925478,-0.743438 0.701288,0.514843 -1.700209,1.747563 -1.412548,0.725082 -2.888947,1.976996 -3.280867,2.782031 -0.691482,1.420353 -0.676085,1.41819 0.519876,-0.073 0.761928,-0.950002 1.997501,-1.575416 3.236261,-1.638101 z m -0.803532,1.020443 c -0.199349,-0.200582 -0.721806,-4.14e-4 -1.161017,0.444819 -0.634697,0.643413 -0.560332,0.718244 0.362465,0.364697 0.63856,-0.244652 0.99791,-0.608934 0.798552,-0.809516 z m -11.08736,-0.879924 c -0.320535,-0.521844 -0.01123,-0.63517 1.004394,-0.367949 1.901506,0.500326 4.845062,-2.279772 4.365889,-4.123446 -0.271133,-1.043208 -0.07201,-1.198392 1.143645,-0.891392 2.059153,0.520007 4.475785,-2.574544 3.975615,-5.090858 -0.285941,-1.43853 -0.121265,-1.801852 0.816682,-1.801852 1.096131,0 2.677673,-2.392755 2.677673,-4.051107 0,-0.40282 -0.503826,-1.292559 -1.119621,-1.9772 -1.061164,-1.179818 -1.061164,-1.277714 0,-1.875241 1.7381,-0.978689 1.516185,-5.419358 -0.337215,-6.748052 -1.346531,-0.965325 -1.37104,-1.093887 -0.323736,-1.698013 2.466526,-1.422796 0.52268,-8.257602 -2.148605,-7.554731 -1.021344,0.268737 -1.214863,-0.15524 -1.381101,-3.025852 -0.17022,-2.93955 -0.396986,-3.410083 -1.898133,-3.938568 -1.484849,-0.52275 -2.246698,-0.451869 -4.237524,0.394248 -0.233835,0.09938 -0.475425,-0.505868 -0.536862,-1.344997 -0.180559,-2.465997 -2.713541,-3.539 -4.174136,-1.768219 -0.606213,0.734949 -1.115049,0.785248 -2.326296,0.229958 -1.166585,-0.534813 -1.795531,-0.506029 -2.540756,0.116279 -2.411294,2.013553 0.120708,6.277607 3.257306,5.485511 2.069755,-0.522683 6.26724,3.776059 7.700092,7.885841 0.624621,1.79157 1.649972,4.283482 2.27856,5.53758 1.91122,3.813095 2.105727,6.388612 0.707803,9.372223 -0.690662,1.474087 -1.442283,3.829694 -1.67026,5.234681 -0.480121,2.958895 -3.117611,5.780265 -6.432578,6.88106 -1.749404,0.580918 -2.673148,0.52253 -4.609029,-0.291326 -1.33162,-0.559822 -2.539139,-0.899114 -2.683376,-0.753982 -0.144245,0.145131 0.17699,1.321645 0.713857,2.614472 0.80608,1.941139 1.306417,2.350596 2.872314,2.350596 1.892645,0 3.719234,-1.365491 2.912461,-2.177252 -0.234326,-0.235768 -0.08611,-0.428668 0.329352,-0.428668 0.415466,0 0.755396,0.269188 0.755396,0.598197 0,0.329007 0.185243,1.083916 0.411659,1.677572 0.269333,0.706214 0.101447,1.035793 -0.485609,0.953314 -2.032844,-0.285603 -2.698407,0.218655 -0.897268,0.679797 1.06834,0.273527 2.032485,0.532007 2.142527,0.5744 0.11005,0.04239 -0.0084,-0.262266 -0.26312,-0.677024 z m -5.116823,-3.154776 c -0.220091,-0.358315 0.199764,-0.65148 0.933017,-0.65148 0.733245,0 1.333173,0.293165 1.333173,0.65148 0,0.358314 -0.419855,0.651479 -0.933009,0.651479 -0.513153,0 -1.113089,-0.293165 -1.333181,-0.651479 z m 5.179861,-0.65148 c -0.220092,-0.358314 -0.09161,-0.65148 0.285527,-0.65148 0.377128,0 0.685691,0.293166 0.685691,0.65148 0,0.358313 -0.128482,0.65148 -0.285527,0.65148 -0.157037,0 -0.4656,-0.293167 -0.685691,-0.65148 z m 1.942444,-1.30296 c 0.220092,-0.358314 0.528657,-0.651481 0.685695,-0.651481 0.157045,0 0.285527,0.293167 0.285527,0.651481 0,0.358314 -0.308563,0.65148 -0.685695,0.65148 -0.377137,0 -0.505618,-0.293166 -0.285527,-0.65148 z m 2.913674,-2.605921 c 0,-0.358314 0.291366,-0.65148 0.647482,-0.65148 0.356108,0 0.647481,0.293166 0.647481,0.65148 0,0.358315 -0.291373,0.65148 -0.647481,0.65148 -0.356116,0 -0.647482,-0.293165 -0.647482,-0.65148 z m 1.6187,-1.954441 c 0.220091,-0.358313 0.528654,-0.651479 0.6857,-0.651479 0.157037,0 0.285526,0.293166 0.285526,0.651479 0,0.358315 -0.308562,0.651482 -0.685699,0.651482 -0.377129,0 -0.505618,-0.293167 -0.285527,-0.651482 z m 1.294963,-3.90888 c 0.220092,-0.358314 0.528662,-0.65148 0.6857,-0.65148 0.157037,0 0.285527,0.293166 0.285527,0.65148 0,0.358314 -0.308563,0.65148 -0.6857,0.65148 -0.377129,0 -0.505618,-0.293166 -0.285527,-0.65148 z m 1.248716,-6.514801 c 0,-0.716628 0.228933,-1.30296 0.508741,-1.30296 0.2798,0 0.508733,0.586332 0.508733,1.30296 0,0.716629 -0.228933,1.302961 -0.508733,1.302961 -0.279808,0 -0.508741,-0.586332 -0.508741,-1.302961 z m 0.04628,-2.60592 c -0.220091,-0.358314 -0.0916,-0.65148 0.285527,-0.65148 0.377137,0 0.685699,0.293166 0.685699,0.65148 0,0.358315 -0.128489,0.651481 -0.285526,0.651481 -0.157038,0 -0.465609,-0.293166 -0.6857,-0.651481 z M 74.67363,46.176187 c -0.513193,-1.345614 -0.496171,-1.575418 0.116685,-1.575418 0.280326,0 0.553594,0.586333 0.607241,1.302961 0.117242,1.566071 -0.186908,1.680541 -0.723926,0.272457 z m -1.040493,-2.878378 c 0,-0.358313 0.291366,-0.65148 0.647482,-0.65148 0.356116,0 0.647481,0.293167 0.647481,0.65148 0,0.358314 -0.291365,0.65148 -0.647481,0.65148 -0.356116,0 -0.647482,-0.293166 -0.647482,-0.65148 z m -1.653652,-5.052713 c -0.271906,-0.624992 -0.448124,-1.356222 -0.391593,-1.624957 0.05655,-0.268737 -0.168938,-0.48861 -0.501046,-0.48861 -0.332125,0 -0.794794,-0.605317 -1.028163,-1.345147 -0.233378,-0.739831 -1.031238,-1.57105 -1.773048,-1.847154 -0.842992,-0.313769 -1.078982,-0.669745 -0.629353,-0.949345 0.395656,-0.246036 1.033599,-0.07444 1.417665,0.381323 2.611154,3.098617 3.264227,4.055535 3.264227,4.782936 0,0.452786 0.349855,0.940586 0.777461,1.084001 0.547118,0.1835 0.567222,0.391491 0.06787,0.702028 -0.390288,0.2427 -0.932077,-0.07009 -1.203991,-0.695075 z m -9.677322,-9.279848 c -1.055659,-0.456433 -1.092626,-0.568363 -0.200082,-0.605691 0.602183,-0.02519 1.274954,0.247377 1.495054,0.605691 0.460135,0.749123 0.437633,0.749123 -1.294972,0 z m 10.683461,39.507188 c 0,-0.827733 -0.299076,-0.458144 -1.242981,1.536057 -0.726896,1.535714 -0.713411,1.556501 0.236038,0.364092 0.553817,-0.695533 1.006943,-1.550601 1.006943,-1.900149 z m 12.158003,-4.978744 c 0.33259,-1.254099 0.86529,-2.231571 1.18378,-2.172161 0.31849,0.05942 0.62847,-2.139335 0.68883,-4.886101 l 0.10974,-4.99412 -0.61891,4.158338 c -0.34042,2.287087 -1.04538,4.770938 -1.56659,5.519669 -0.521217,0.748733 -0.947667,2.046317 -0.947667,2.883522 0,0.837205 -0.288028,1.343079 -0.640066,1.124165 -0.37274,-0.231792 -0.472044,0.04253 -0.237758,0.656823 0.527562,1.383313 1.279582,0.53436 2.028641,-2.290135 z m -29.027113,-0.88355 c -0.623426,-0.578156 -0.709587,-0.477706 -0.384465,0.448222 0.230471,0.656356 0.45284,1.535854 0.494148,1.954442 0.04134,0.418587 0.214317,0.216886 0.384465,-0.448224 0.170141,-0.66511 -0.05225,-1.544608 -0.494148,-1.95444 z m 12.174863,-0.112137 c 1.25169,-1.333929 2.10432,-2.921952 2.10432,-3.919295 0,-1.964588 -1.093041,-1.567559 -1.953496,0.709574 -0.884292,2.340238 -3.57228,3.767807 -7.124471,3.783751 -3.189616,0.01432 -3.591166,0.681332 -1.053628,1.750172 2.463929,1.037829 5.771018,0.0803 8.027275,-2.324202 z m 21.99059,-0.346132 c -1.46004,-0.371468 -2.99092,0.885039 -3.03115,2.487899 -0.0133,0.528736 0.7765,0.297156 2.2218,-0.651481 2.11319,-1.387016 2.15982,-1.492826 0.80935,-1.836418 z m -6.230358,-1.323264 c 0.679893,-0.684088 1.202368,-2.050004 1.161058,-3.035368 -0.0568,-1.354044 -0.15118,-1.473369 -0.38659,-0.48861 -0.171313,0.716628 -0.617446,1.596127 -0.991405,1.954441 -0.469256,0.449618 -0.540626,0.256884 -0.230334,-0.622026 0.895093,-2.535382 1.188239,-6.698405 0.501739,-7.125303 -0.444253,-0.276259 -0.712001,0.671305 -0.758089,2.682891 -0.11416,4.982238 -0.294472,6.552906 -0.812007,7.073398 -0.267087,0.268608 -0.451812,1.099142 -0.410503,1.845631 0.06548,1.182735 0.11463,1.20305 0.382537,0.157996 0.169089,-0.659589 0.86371,-1.758962 1.543594,-2.44305 z m -19.159512,0.710642 c 0.816236,-0.352916 0.935915,-0.5599 0.323736,-0.5599 -0.534174,0 -1.553957,0.251955 -2.266181,0.5599 -0.816244,0.352918 -0.935924,0.559901 -0.323745,0.559901 0.534174,0 1.553958,-0.251955 2.26619,-0.559901 z m -6.372461,-1.694453 c 0.849452,-1.30443 0.957208,-2.091695 0.468149,-3.42027 -0.449183,-1.220251 -0.398157,-2.196543 0.174179,-3.332699 0.445209,-0.883786 0.685349,-1.731769 0.533649,-1.884407 -0.48036,-0.483329 -2.25143,1.332491 -1.883645,1.931246 0.193408,0.314877 0.05337,1.087867 -0.311183,1.717753 -0.586722,1.013733 -0.665101,0.967757 -0.682529,-0.400351 -0.01681,-1.319567 -0.16603,-1.423395 -1.020373,-0.709974 -0.550383,0.459595 -0.860149,1.204145 -0.688368,1.654555 0.171782,0.45041 -0.106329,0.980573 -0.618017,1.178138 -1.207519,0.46623 -1.180134,1.70579 0.07758,3.512544 1.32876,1.90878 2.598592,1.829536 3.950539,-0.246535 z m -1.721063,-2.904355 c 0,-0.379461 0.291366,-0.508742 0.647482,-0.287292 0.356116,0.221451 0.647482,0.531918 0.647482,0.689929 0,0.158011 -0.291366,0.287291 -0.647482,0.287291 -0.356116,0 -0.647482,-0.310467 -0.647482,-0.689928 z m 5.565114,3.144205 c 0.755747,-0.891259 0.83423,-1.145755 0.202647,-0.657132 -0.566935,0.438609 -1.173953,0.653432 -1.34892,0.477383 -0.174968,-0.176048 -0.318122,0.119662 -0.318122,0.657133 0,1.248585 7.97e-4,1.248204 1.464395,-0.477384 z m 3.823373,-0.499836 c 1.248501,-0.539811 1.244056,-0.561544 -0.123655,-0.605691 -0.780248,-0.02519 -1.598699,0.247377 -1.81879,0.605691 -0.473311,0.770559 0.160263,0.770559 1.942445,0 z m 16.434183,-3.818185 c -0.07535,-1.691511 -0.08462,-1.687698 -0.570879,0.235044 -0.465656,1.841294 -0.501332,1.860152 -0.616384,0.325741 -0.112925,-1.506122 -0.163991,-1.530638 -0.678579,-0.325741 -0.787385,1.843656 -0.761577,2.428029 0.084,1.902206 0.447997,-0.278587 0.604819,-0.104126 0.404673,0.45016 -0.179739,0.49777 -0.676252,0.824479 -1.103348,0.726023 -0.451676,-0.104123 -0.577816,0.14453 -0.301505,0.594366 0.722754,1.176659 2.873923,-1.845012 2.782019,-3.907799 z m 6.120854,1.400394 c 0.21348,-1.150627 0.1356,-2.249101 -0.17308,-2.441053 -0.30868,-0.191952 -0.66436,0.955715 -0.79042,2.550371 -0.2544,3.218458 0.35899,3.148863 0.9635,-0.109318 z M 62.75509,57.326027 c 0.18357,0.184707 0.739489,-0.184294 1.235382,-0.820002 0.819852,-1.051004 0.798855,-1.074741 -0.231474,-0.261713 -1.414077,1.115846 -1.485479,0.251744 -0.10594,-1.282047 0.938186,-1.043086 0.937621,-1.128781 -0.0064,-0.98935 -1.428972,0.211025 -2.517226,1.423213 -2.769219,3.084592 -0.168921,1.113713 -0.03306,1.249615 0.665898,0.665971 0.482972,-0.403306 1.02833,-0.582158 1.2119,-0.397451 z m -1.424146,-1.244586 c 0,-0.135283 0.509888,-0.648325 1.133091,-1.14009 1.026944,-0.810357 1.049852,-0.787314 0.244465,0.24597 -0.845851,1.085202 -1.377556,1.430311 -1.377556,0.89412 z m 6.429843,1.24659 c 2.418459,-1.258354 5.224836,-4.668938 5.224836,-6.349731 0,-1.893521 -1.40248,-6.377531 -1.994729,-6.377531 -0.272122,0 -0.83482,1.036707 -1.250429,2.303793 -0.415609,1.267084 -1.605672,2.936117 -2.644588,3.708962 -1.349773,1.004096 -1.687656,1.601699 -1.18375,2.093699 0.500448,0.488631 1.253654,0.03369 2.594371,-1.567044 1.67865,-2.004195 1.889199,-2.098368 1.889199,-0.845004 0,2.313962 -1.428391,4.765239 -3.363471,5.772084 -0.999018,0.519801 -1.816393,1.230729 -1.816393,1.579842 0,0.852138 0.387317,0.803577 2.544954,-0.31907 z m 24.27195,-2.815775 c 1.06812,-2.112808 1.06495,-2.129984 -0.24139,-1.309119 -0.7424,0.466498 -1.32371,1.525891 -1.32371,2.412345 0,1.841346 0.11885,1.757569 1.5651,-1.103226 z m -23.70237,-0.834888 c 0.799735,-1.288484 0.778906,-1.29451 -0.823285,-0.238234 -0.90407,0.59603 -1.643767,1.333938 -1.643767,1.639797 0,0.917169 1.587722,0.01516 2.467052,-1.401563 z m 0.497019,-7.252676 c 1.742768,-3.329537 0.636569,-8.758964 -2.460357,-12.075843 -1.685545,-1.80526 -2.733183,-1.928684 -1.821458,-0.21459 1.099437,2.067013 0.76983,4.872203 -0.956323,8.138682 -1.539341,2.91298 -1.632329,4.282269 -0.290808,4.282269 0.737379,0 3.212356,-4.778027 3.212356,-6.201557 0,-0.572891 0.284062,-0.864981 0.631241,-0.649088 0.925297,0.5754 0.04668,6.19655 -1.325423,8.479345 -0.646088,1.074942 -1.773993,2.323381 -2.506449,2.774312 -1.475084,0.908118 -1.782277,0.254851 -0.522385,-1.11089 0.655375,-0.710437 0.634442,-0.776866 -0.110034,-0.349164 -0.698683,0.401395 -0.811696,0.245829 -0.470794,-0.648054 0.384577,-1.008364 0.303497,-1.05507 -0.56809,-0.327248 -0.727239,0.607281 -0.803954,0.981286 -0.269437,1.313673 0.55815,0.347089 0.548416,0.588329 -0.03847,0.953291 -0.600263,0.373272 -0.605289,0.600825 -0.02127,0.963984 0.562156,0.349576 0.494777,0.746716 -0.254614,1.500731 -0.560491,0.563947 -1.019066,1.210166 -1.019066,1.436042 0,0.85366 7.911578,-6.585004 8.791405,-8.265895 z m 12.316503,6.254431 c -0.230431,-0.604209 -0.56465,-0.951979 -0.742708,-0.772822 -0.178058,0.179157 -0.135204,0.820092 0.09523,1.424302 0.230438,0.604209 0.564658,0.951979 0.742716,0.772822 0.178058,-0.179156 0.135204,-0.820093 -0.09523,-1.424302 z m 1.348777,-0.382745 c -0.206686,-0.519707 -0.360115,-0.365335 -0.39118,0.393603 -0.02812,0.686768 0.124913,1.071549 0.340074,0.855068 0.215145,-0.216482 0.238149,-0.778384 0.05106,-1.248671 z m -0.632833,-5.904039 c -0.15433,-0.806205 -0.280597,-0.146582 -0.280597,1.465831 0,1.612413 0.126267,2.272036 0.280597,1.46583 0.154337,-0.806207 0.154337,-2.125454 0,-2.931661 z m 1.284345,0.977221 c -0.16286,-0.62705 -0.296113,-0.114009 -0.296113,1.14009 0,1.254099 0.133253,1.76714 0.296113,1.14009 0.162852,-0.627049 0.162852,-1.65313 0,-2.28018 z m 1.290932,0.366457 c -0.206685,-0.519707 -0.360114,-0.365334 -0.391179,0.393603 -0.02812,0.686768 0.124913,1.071548 0.340074,0.855068 0.215152,-0.216482 0.238148,-0.778383 0.05106,-1.248671 z M 66.493982,44.600769 c 0.0064,-0.537471 -0.569668,-0.01735 -1.28057,1.155837 -0.710894,1.173181 -1.286058,2.345845 -1.27814,2.605921 0.02772,0.909762 2.546841,-2.793831 2.55871,-3.761758 z m 25.668165,-2.421066 c -0.10542,-0.106063 -0.65108,0.321995 -1.2126,0.951242 -0.67358,0.754831 -0.89517,1.79777 -0.6513,3.065384 0.36364,1.890151 0.3833,1.87473 1.21259,-0.951241 0.46364,-1.579899 0.75672,-2.959323 0.65131,-3.065385 z m -4.1358,2.043585 c -0.50672,-2.667118 -1.16029,-2.293906 -0.89446,0.510769 0.13908,1.467446 0.45883,2.288384 0.72348,1.857525 0.26083,-0.424646 0.33777,-1.490378 0.17098,-2.368294 z m -4.601979,-0.713746 c -0.524632,-0.907768 -0.694143,-0.957842 -0.716741,-0.211733 -0.02286,0.755342 -0.149366,0.787312 -0.557066,0.140804 -0.304007,-0.482071 -1.008568,-0.65066 -1.663083,-0.397946 -1.44899,0.559463 -0.08211,1.553115 1.669575,1.213689 0.653551,-0.126639 1.188274,0.09494 1.188274,0.4924 0,0.397459 0.172395,0.549198 0.383095,0.337197 0.2107,-0.212002 0.07384,-0.920487 -0.304054,-1.574411 z m 1.513929,-0.293317 c -0.321241,-1.01841 -0.22071,-1.250211 0.38015,-0.876561 0.50759,0.315642 0.65491,0.244266 0.38908,-0.188512 -0.2353,-0.383073 -0.0617,-0.844975 0.38557,-1.026447 0.44737,-0.181473 0.19759,-0.353096 -0.55504,-0.381384 -1.044799,-0.03927 -1.332318,0.295238 -1.215736,1.414398 0.23356,2.241965 0.289971,2.44305 0.685346,2.44305 0.20205,0 0.17084,-0.623044 -0.0694,-1.384544 z m -3.885875,-5.331177 c -0.227411,-0.911695 -1.042851,-2.192243 -1.812091,-2.845663 -1.377381,-1.170012 -1.382168,-1.168268 -0.315947,0.114924 0.595452,0.716628 1.286018,2.122819 1.534594,3.124869 0.248567,1.002051 0.57682,1.696267 0.729437,1.542704 0.152625,-0.153563 0.09142,-1.025138 -0.135993,-1.936834 z m 5.530325,-1.497271 c 0,-1.552828 -0.58127,-2.809236 -1.997553,-4.317721 -1.098648,-1.170174 -1.809869,-1.761131 -1.58049,-1.313238 0.229379,0.447893 0.06333,0.814351 -0.368996,0.814351 -0.539814,0 -0.476839,0.357128 0.201038,1.140089 0.542904,0.62705 1.293474,2.019588 1.667942,3.094531 0.374469,1.074941 0.702059,1.514691 0.727979,0.977219 0.0259,-0.53747 -0.38813,-1.816937 -0.920104,-2.843258 -1.215771,-2.345544 -1.218758,-2.738159 -0.01314,-1.731409 1.381484,1.153609 1.901464,4.811237 0.941614,6.623379 -0.740345,1.397731 -0.716783,1.454774 0.26448,0.640308 0.6148,-0.510299 1.07723,-1.834282 1.07723,-3.084251 z m -4.997043,-1.07466 c -0.673281,-1.159945 -1.79111,-2.215313 -2.484058,-2.345264 -1.027088,-0.192611 -0.944319,0.01578 0.447901,1.127658 0.939293,0.75016 1.922165,2.174773 2.184146,3.165803 0.261981,0.991032 0.611295,1.432631 0.77625,0.981334 0.164963,-0.451299 -0.250949,-1.769587 -0.924239,-2.929531 z m 2.056644,0.617493 c -0.227411,-0.911696 -1.042851,-2.192245 -1.812083,-2.845665 -1.377389,-1.170012 -1.382176,-1.168269 -0.315955,0.114923 0.59546,0.716628 1.286018,2.12282 1.534594,3.12487 0.248567,1.00205 0.576821,1.696267 0.729437,1.542704 0.152625,-0.153563 0.09143,-1.025138 -0.135993,-1.936832 z m 5.156209,-0.7272 c 0.38789,-1.622418 0.3152,-1.788152 -0.48955,-1.116137 -0.5252,0.438571 -0.79443,1.368928 -0.60597,2.094048 0.40775,1.568876 0.50802,1.479379 1.09552,-0.977911 z m -9.903931,-5.260942 c 0.474465,1.777283 0.498107,1.732994 0.260754,-0.48861 -0.295181,-2.762926 0.06723,-3.142796 0.932363,-0.97722 0.538364,1.347649 0.589685,1.360779 0.636538,0.16287 0.0419,-1.07132 0.159204,-1.13069 0.659859,-0.333954 0.472283,0.751589 0.583074,0.623916 0.493758,-0.569026 -0.146101,-1.951468 -4.049048,-5.340743 -9.539757,-8.284216 -2.314754,-1.240895 -3.625903,-1.786177 -2.913671,-1.211736 0.712233,0.57444 1.244065,1.250683 1.181847,1.502763 -0.06221,0.25208 0.451518,1.184177 1.141614,2.071328 0.720309,0.925982 1.08666,1.135147 0.860125,0.49108 -0.369561,-1.050704 -0.205761,-1.057177 2.580416,-0.101969 1.74186,0.597177 3.512197,1.779006 4.270979,2.851189 1.53308,2.166315 1.68701,3.093415 0.324732,1.955841 -0.534174,-0.446061 -0.971226,-0.583104 -0.971226,-0.304539 0,0.278565 -0.655575,-0.05199 -1.456836,-0.73458 l -1.456835,-1.241061 1.237047,1.469824 c 1.551145,1.843052 1.012542,2.591589 -0.585965,0.81435 -0.646542,-0.718825 -1.461026,-1.306954 -1.809973,-1.306954 -0.348947,0 0.133261,0.607609 1.071574,1.350244 1.136707,0.899656 1.74061,2.041032 1.809646,3.420271 l 0.103622,2.070025 0.323808,-2.28018 0.323809,-2.28018 z m -7.527711,-9.446461 c -0.220091,-0.358314 -0.0916,-0.65148 0.285527,-0.65148 0.377137,0 0.685699,0.293166 0.685699,0.65148 0,0.358314 -0.128489,0.651481 -0.285526,0.651481 -0.157046,0 -0.465609,-0.293167 -0.6857,-0.651481 z m -13.597123,9.772201 c -0.644558,-0.716629 -1.463288,-1.30296 -1.819404,-1.30296 -0.356116,0 -0.120118,0.586331 0.524441,1.30296 0.644558,0.716628 1.463295,1.302961 1.819411,1.302961 0.356116,0 0.12011,-0.586333 -0.524448,-1.302961 z m 27.903815,-1.628862 c 0.0342,-1.612324 -0.0312,-2.931498 -0.14525,-2.931498 -0.11403,0 -0.63551,0.833127 -1.158849,1.851394 -0.852662,1.65905 -0.839965,1.963626 0.122125,2.93166 0.590494,0.594146 1.084044,1.080193 1.096764,1.080103 0.0127,-9e-5 0.0511,-1.319336 0.0852,-2.931659 z M 75.588541,28.003771 c -0.450474,-0.54613 -1.125707,-0.992963 -1.500526,-0.992963 -0.374819,0 -0.12062,0.54851 0.564889,1.218912 1.443724,1.411904 2.146581,1.242169 0.935637,-0.225949 z M 58.995472,24.617239 c 0.750338,-0.257287 1.706486,-0.402546 2.12478,-0.322796 0.418286,0.07975 0.945371,-0.155942 1.171301,-0.523759 0.658051,-1.071321 -3.294225,-0.787268 -4.192098,0.30129 -0.440071,0.533526 -0.996676,0.847828 -1.236888,0.698448 -0.24022,-0.14938 -0.48028,0.513471 -0.533473,1.473003 -0.09417,1.698809 -0.07838,1.706504 0.602708,0.293107 0.384688,-0.798323 1.31334,-1.662005 2.06367,-1.919293 z M 68.5243,24.165293 c -0.966176,-1.171356 -2.931107,-1.700662 -3.953399,-1.064951 -0.46752,0.290727 -0.04357,0.490196 1.041903,0.490196 1.0066,0 2.120032,0.462332 2.474285,1.027407 0.354252,0.565074 0.768765,0.90197 0.921135,0.748659 0.15237,-0.153311 -0.0654,-0.693903 -0.483924,-1.201311 z m 9.962068,0.886441 C 77.956432,24.18898 74.245889,22.2682 73.859735,22.656738 c -0.226662,0.228065 2.88874,2.141402 4.829567,2.96609 0.110042,0.04677 0.01872,-0.210231 -0.202934,-0.571094 z M 64.244615,21.798967 c -0.236372,-0.384812 0.476831,-0.647396 1.742354,-0.641504 1.621544,0.0075 1.906362,0.163543 1.171309,0.641504 -0.534166,0.347341 -0.679853,0.631527 -0.323737,0.631527 0.356116,0 1.03612,-0.247878 1.511128,-0.55084 1.108242,-0.706856 -0.448571,-1.383647 -3.182789,-1.383647 -1.809766,0 -2.37886,0.593409 -1.457832,1.52012 0.652827,0.656862 0.992462,0.520169 0.539567,-0.21716 z m -2.348782,-2.393156 c -0.791552,-0.971101 -0.729549,-1.048952 0.567557,-0.712642 2.191713,0.56826 2.300265,-0.443251 0.135785,-1.265296 -1.62817,-0.61836 -1.865801,-0.568529 -1.721692,0.361031 0.195487,1.26096 1.019321,2.707103 1.542177,2.707103 0.200648,0 -0.03505,-0.490588 -0.523827,-1.090196 z"
     style="fill:#000000;stroke-width:0.6494779" />
</svg>
