<?xml version="1.0" encoding="UTF-8" standalone="no"?>
<svg
   xmlns:dc="http://purl.org/dc/elements/1.1/"
   xmlns:cc="http://creativecommons.org/ns#"
   xmlns:rdf="http://www.w3.org/1999/02/22-rdf-syntax-ns#"
   xmlns:svg="http://www.w3.org/2000/svg"
   xmlns="http://www.w3.org/2000/svg"
   id="svgGL2"
   version="1.1"
   viewBox="0 0 100 100"
   height="100"
   width="100">
  <defs
     id="defs2" />
  <metadata
     id="metadata5">
    <rdf:RDF>
      <cc:Work
         rdf:about="">
        <dc:format>image/svg+xml</dc:format>
        <dc:type
           rdf:resource="http://purl.org/dc/dcmitype/StillImage" />
        <dc:title></dc:title>
      </cc:Work>
    </rdf:RDF>
  </metadata>
  <path
     id="pathGL2"
     d="m 52.008629,94.694907 c -0.584744,-0.58475 -0.312795,-2.64972 0.461656,-3.50548 1.577101,-1.74268 -0.293053,-0.7847 -2.014452,1.0319 -2.009668,2.12081 -3.562552,2.3291 -3.819603,0.51233 -0.08598,-0.60768 0.03625,-1.29743 0.271587,-1.53278 0.259143,-0.25914 0.345948,0.13056 0.220088,0.98809 -0.172021,1.17207 -0.04761,1.41601 0.722214,1.41601 0.511524,0 1.176004,-0.29636 1.476618,-0.65858 0.431654,-0.52011 0.346094,-0.799 -0.406942,-1.32645 -0.524433,-0.36733 -0.843102,-0.77829 -0.708149,-0.91324 0.819242,-0.81924 -1.749612,0.0961 -3.40104,1.21189 -1.631608,1.10238 -2.106387,1.23582 -2.68589,0.75488 -0.387165,-0.32133 -0.703937,-0.85853 -0.703937,-1.19379 0,-0.8635 2.378683,-2.62922 3.145524,-2.33495 0.351938,0.13505 0.511463,0.0377 0.354505,-0.21622 -0.156964,-0.25396 0.0299,-0.46176 0.415279,-0.46176 0.96335,0 1.255894,-0.61164 0.680918,-1.423637 -0.391623,-0.55305 -0.431779,-0.52736 -0.217395,0.139087 0.203219,0.63173 -0.0042,0.81744 -0.913354,0.81744 -1.26755,0 -3.662657,1.0725 -4.985484,2.23244 -0.656983,0.57609 -1.050372,0.61319 -1.985222,0.18724 -2.244187,-1.02252 -1.136007,-3.821007 1.513087,-3.821007 1.35134,0 1.591301,-0.12058 1.139375,-0.5725 -0.451927,-0.45193 -1.06571,-0.39733 -2.914329,0.25924 -2.819553,1.001417 -4.173791,0.70663 -4.173791,-0.90855 0,-0.86407 0.386161,-1.32246 1.518111,-1.80205 1.190613,-0.50445 1.350861,-0.70841 0.742827,-0.94547 -0.426406,-0.16624 -1.439084,0.041 -2.250395,0.46054 -1.798906,0.93026 -3.448601,0.76489 -3.664454,-0.36732 -0.292469,-1.53409 0.861369,-2.31669 3.051651,-2.06982 1.101976,0.12421 2.003594,0.0414 2.003594,-0.1839 0,-0.22535 -0.169105,-0.40973 -0.375788,-0.40973 -0.206683,0 -0.427633,-0.87867 -0.491,-1.9526 -0.06337,-1.07394 -0.31106,-2.28259 -0.55043,-2.68589 -0.407521,-0.68662 -0.315448,0.57877 0.247404,3.40014 0.137176,0.68761 -0.03548,0.80793 -0.847057,0.59027 -0.560644,-0.15036 -1.514791,-0.27626 -2.120327,-0.27976 -0.741999,-0.004 -1.020431,-0.21628 -0.853947,-0.65012 0.245462,-0.63967 -0.474884,-1.69182 -1.158287,-1.69182 -0.19649,0 -0.599303,0.45228 -0.89514,1.00505 -0.475409,0.88831 -0.436625,0.96649 0.333898,0.67299 0.683185,-0.26021 0.749751,-0.20908 0.307693,0.23636 -0.920493,0.92754 -2.134693,-0.33218 -1.486882,-1.54263 0.50745,-0.94818 2.100204,-1.01036 4.386529,-0.17126 0.868295,0.31867 0.877048,0.29572 0.124039,-0.32534 -0.445602,-0.36751 -0.721574,-0.75681 -0.613274,-0.86511 0.108301,-0.10831 -0.637383,-0.11735 -1.657076,-0.0201 -2.059171,0.19637 -4.424192,-0.59087 -4.81213,-1.60182 -0.621799,-1.62038 0.789371,-2.59885 3.440531,-2.38556 0.80113,0.0644 1.178786,-0.15959 1.237009,-0.73383 0.06176,-0.60918 0.02489,-0.63479 -0.140191,-0.0974 -0.126469,0.41172 -0.563377,0.63685 -1.003453,0.51705 -0.4287,-0.11672 -1.620254,-0.35446 -2.647898,-0.52835 -1.027644,-0.17387 -2.131194,-0.53326 -2.452333,-0.79864 -0.979969,-0.80982 -0.662327,-2.22085 0.63278,-2.810942 0.998037,-0.454737 1.459697,-0.414874 2.56911,0.221842 1.613151,0.92582 1.724582,0.73563 0.330142,-0.563487 -0.562266,-0.523832 -1.521985,-0.952421 -2.132709,-0.952421 -2.368095,0 -4.463369,-2.203428 -3.359764,-3.53319 0.900389,-1.084903 2.759708,-0.788978 4.108587,0.653914 l 1.238409,1.324721 0.09678,-1.309513 c 0.05323,-0.720234 -0.08482,-1.421751 -0.306771,-1.558923 -0.221953,-0.137176 -0.285055,0.223831 -0.140225,0.802235 0.249016,0.994498 0.214921,1.010184 -0.627451,0.288624 -0.489928,-0.419662 -1.768843,-1.204385 -2.842035,-1.743833 -2.720641,-1.367547 -3.223602,-3.758679 -0.797625,-3.791993 0.81986,-0.01126 3.017455,1.887147 2.87958,2.487539 -0.0684,0.297844 0.08442,0.573061 0.339584,0.611597 0.255167,0.03854 0.384655,-0.171663 0.28775,-0.467111 -0.0969,-0.295447 -0.184488,-0.790683 -0.19463,-1.100518 -0.01014,-0.309839 -0.183058,-0.461599 -0.384261,-0.33725 -0.479347,0.296252 -1.410069,-1.449664 -0.994388,-1.865347 0.175814,-0.175811 0.0027,-0.198041 -0.384636,-0.0494 -1.042878,0.400192 -3.352707,-2.196375 -3.159987,-3.552258 0.165007,-1.160907 1.571473,-1.745875 2.342905,-0.974441 0.292476,0.292477 0.0267,0.371438 -0.750282,0.22291 -1.032725,-0.19742 -1.203196,-0.06494 -1.203196,0.93503 0,1.498353 1.284776,2.690934 1.873224,1.738803 0.220379,-0.356579 0.297053,-0.816011 0.170387,-1.02096 -0.520937,-0.842898 0.399206,-1.35458 1.174375,-0.653064 0.715344,0.647379 0.796127,0.629119 0.858125,-0.19393 0.03764,-0.49972 -0.125975,-1.028737 -0.363595,-1.175597 -0.243235,-0.150326 -0.294092,0.100817 -0.116375,0.574691 0.280348,0.747541 0.225112,0.76801 -0.493719,0.182982 -0.44516,-0.362301 -0.703896,-0.93362 -0.574969,-1.269599 0.128926,-0.335979 9.26e-4,-0.755178 -0.284471,-0.931555 -0.314204,-0.194192 -0.387411,-0.107963 -0.185588,0.218594 0.183313,0.296607 0.221189,0.539285 0.08417,0.539285 -0.446385,0 -1.674452,-2.731021 -1.674452,-3.723706 0,-0.557205 0.457204,-1.175749 1.078214,-1.4587 0.90326,-0.411553 1.073797,-0.835985 1.050999,-2.61573 -0.02918,-2.278378 1.062404,-3.677534 2.077316,-2.662621 0.349065,0.349065 0.180427,0.483913 -0.571032,0.456612 -0.872001,-0.03168 -1.093111,0.23857 -1.212999,1.48258 -0.165107,1.713235 0.855225,2.477475 2.018603,1.511957 0.690396,-0.572978 0.687001,-2.057175 -0.01095,-4.788349 -0.438277,-1.715036 0.851105,-3.78252 2.109815,-3.383021 0.773958,0.245645 0.851743,0.08964 0.63163,-1.266749 -0.186374,-1.148494 -0.02263,-1.753596 0.635803,-2.349464 0.804518,-0.72808 0.981931,-0.735957 1.911491,-0.08487 0.567629,0.397584 1.024663,1.214461 1.024663,1.831427 0,1.293656 0.715031,1.919666 1.210391,1.059699 0.187397,-0.32533 0.160828,-0.427798 -0.05904,-0.227709 -0.396339,0.360684 -1.457224,-2.711201 -1.935817,-5.605328 -0.22174,-1.340895 -0.06776,-1.611465 1.414891,-2.486251 0.915039,-0.539888 1.792138,-1.38626 1.949109,-1.88083 0.15697,-0.494569 0.796891,-1.027593 1.422045,-1.184497 0.64373,-0.161565 1.136645,-0.62794 1.136645,-1.07544 0,-1.019503 0.900875,-1.911228 1.93084,-1.911228 0.534177,0 0.860075,-0.433498 0.957576,-1.273732 0.08791,-0.757592 0.574069,-1.485042 1.199737,-1.795205 1.049641,-0.520338 1.049895,-0.523314 0.116776,-1.367777 -1.205623,-1.091075 -1.193103,-2.399031 0.02923,-3.053205 0.767032,-0.410501 0.851926,-0.651621 0.414851,-1.178263 -0.65636,-0.790869 -0.26628,-2.0753722 0.630255,-2.0753722 0.350613,0 0.637474,-0.306054 0.637474,-0.680119 0,-0.374066 -0.169,-0.575667 -0.375563,-0.448006 -0.496522,0.306866 -1.046567,-1.942165 -0.697481,-2.851868 0.782463,-2.039064 3.374666,-0.718817 2.959578,1.507351 -0.164465,0.882041 -0.06596,0.963136 0.68304,0.562287 0.965681,-0.516818 1.800568,-0.208835 1.771144,0.653367 -0.01043,0.305978 -0.641041,1.2840812 -1.401334,2.1735652 -1.68803,1.974873 -1.777171,2.633433 -0.218172,1.611941 1.28426,-0.841478 2.572714,-0.6062 2.572714,0.469794 0,0.380643 -0.939283,1.477224 -2.087299,2.436843 -1.594688,1.332994 -1.968036,1.888471 -1.581965,2.353661 0.277937,0.334894 0.677199,0.502682 0.887251,0.372864 0.210045,-0.129818 0.516054,-0.01897 0.680016,0.246319 0.432856,0.700381 1.167778,0.0951 1.167778,-0.961789 0,-1.01305 -0.923218,-1.197932 -1.767241,-0.353909 -0.304009,0.304014 -0.679352,0.426143 -0.834094,0.271401 -0.433765,-0.433768 1.65405,-1.396221 2.404278,-1.108334 0.365289,0.140177 0.664165,0.640628 0.664165,1.112115 0,0.880118 -2.485272,3.528744 -3.736886,3.982515 -0.584967,0.212076 -0.57513,0.260111 0.05958,0.290901 0.418139,0.02029 0.999357,0.324979 1.291595,0.677105 0.774303,0.932976 -0.623038,2.315852 -3.336397,3.301864 -1.595111,0.579649 -2.218779,1.058023 -2.218779,1.701873 0,0.633209 0.32748,0.895588 1.117803,0.895588 1.153453,0 1.990978,-1.157007 1.194054,-1.649536 -0.247507,-0.152966 -0.576114,0.0505 -0.730242,0.452154 -0.154128,0.401648 -0.500523,0.730271 -0.769765,0.730271 -0.269243,0 -0.109075,-0.420399 0.355928,-0.934222 1.060732,-1.172096 1.49467,-1.177655 1.860879,-0.02384 0.15892,0.500713 0.56243,0.805441 0.896686,0.677174 0.720897,-0.276635 3.676117,2.930942 3.419355,3.711354 -0.365654,1.1114 -2.113605,0.822316 -3.442889,-0.569397 -1.459471,-1.528013 -1.748737,-1.616116 -4.83603,-1.472956 l -2.101999,0.09747 1.51811,0.438337 c 2.194517,0.633645 2.13402,2.468591 -0.116778,3.541923 -1.123155,0.535596 -1.634888,1.095406 -1.634888,1.78849 0,1.234937 -0.967917,2.096456 -3.816895,3.397328 -2.345265,1.070871 -3.018665,1.722254 -2.263168,2.189177 0.261102,0.16137 0.47473,0.811892 0.47473,1.445605 0,1.129856 0.02718,1.138149 1.401333,0.427548 0.770734,-0.398562 1.432863,-0.929459 1.4714,-1.179773 0.206224,-1.339522 0.06458,-1.608287 -1.004289,-1.905605 -1.031244,-0.286853 -1.051585,-0.330275 -0.173973,-0.371393 0.546593,-0.02561 1.244329,0.255302 1.550526,0.624246 0.865884,1.043326 -0.08832,2.309996 -2.961781,3.93168 -2.099761,1.185032 -2.495723,1.606039 -2.281381,2.425684 0.314045,1.200908 1.398777,1.698948 2.122985,0.97474 0.394107,-0.394106 0.373341,-0.529135 -0.08137,-0.529135 -0.3621,0 -0.496339,-0.297521 -0.329917,-0.731212 0.219373,-0.571676 0.05193,-0.669866 -0.767468,-0.450045 -0.798985,0.214345 -0.729498,0.100088 0.292386,-0.480769 1.156653,-0.657463 1.431209,-0.671174 2.002385,-0.1 1.047441,1.047441 0.273178,2.114293 -2.674751,3.685521 -2.892114,1.541485 -4.596887,3.443206 -3.800512,4.239579 0.299094,0.299095 0.58218,0.256752 0.816327,-0.122108 0.231062,-0.373866 0.166796,-0.461533 -0.180835,-0.246686 -1.153974,0.713195 -0.461722,-0.638279 0.924338,-1.804571 1.764833,-1.485011 2.92335,-1.380603 3.116509,0.280864 0.102228,0.879323 -0.213014,1.506074 -1.113994,2.214784 -1.087941,0.855775 -1.135282,0.988416 -0.352775,0.988416 1.071723,0 2.02486,0.849269 2.02486,1.804193 0,0.875292 -2.799242,5.259427 -3.200532,5.012629 -0.16654,-0.102423 -0.342641,0.58154 -0.391336,1.519919 -0.05769,1.111822 0.03002,1.409353 0.251794,0.854136 0.419813,-1.051005 0.522578,-1.073674 1.790597,-0.39505 0.880217,0.471077 1.062202,0.411571 1.330957,-0.435203 0.364766,-1.14927 -0.37386,-2.087472 -1.227885,-1.55966 -0.441446,0.27283 -0.362086,0.468386 0.309633,0.762979 0.794085,0.348259 0.776228,0.372026 -0.147783,0.19671 -0.57805,-0.109678 -1.051,0.02616 -1.051,0.301819 0,0.275675 -0.110048,0.391182 -0.244551,0.256677 -0.391109,-0.391107 0.255322,-1.683776 0.981334,-1.962375 2.00245,-0.768412 2.720287,1.421615 1.131661,3.452558 -0.996414,1.273844 -1.277627,2.398694 -0.373689,1.494755 0.780722,-0.78072 2.088653,-0.700026 2.414441,0.148962 0.353802,0.921993 -1.260768,5.041912 -1.787797,4.561942 -0.222386,-0.20253 -0.237811,-0.0819 -0.03444,0.26934 0.202559,0.34987 0.165994,0.77027 -0.08126,0.93423 -0.283592,0.18805 -0.289613,0.90152 -0.01631,1.93269 l 0.433238,1.63457 0.62618,-1.82144 c 0.859704,-2.50071 1.959761,-3.19672 3.024599,-1.91367 0.557406,0.67163 0.4615,2.16145 -0.270554,4.20284 -0.275257,0.76758 -0.222766,0.83007 0.294265,0.35034 0.838235,-0.77777 2.067527,-0.73929 2.752597,0.0862 0.405086,0.4881 0.44477,1.62675 0.14613,4.19292 -0.225485,1.93757 -0.317257,3.43013 -0.203937,3.31682 0.113321,-0.11333 0.630672,0.0212 1.149671,0.29897 0.824188,0.4411 0.896094,0.39467 0.568069,-0.36677 -0.206559,-0.47948 -0.471381,-1.5528 -0.58849,-2.38516 -0.23785,-1.6905 0.824875,-2.51182 2.160222,-1.6695 0.770583,0.48607 2.048392,5.6528 1.583901,6.40436 -0.144873,0.23441 -0.04454,0.29093 0.222951,0.12561 0.534892,-0.33058 1.656669,0.7576 1.288822,1.25022 -0.126222,0.16904 -0.07185,0.18474 0.120832,0.0349 0.192685,-0.14987 0.355798,-0.41262 0.362474,-0.58389 0.0067,-0.17128 0.406961,-0.90207 0.889523,-1.62399 0.798883,-1.19513 0.811485,-1.37846 0.140859,-2.04909 -1.208865,-1.20887 -2.378254,-0.41638 -2.041701,1.38364 0.227166,1.21494 0.184314,1.34416 -0.218747,0.65963 -0.699987,-1.1888 -0.130077,-3.11918 0.920871,-3.11918 1.10041,0 2.236242,1.27429 2.66434,2.98912 0.270912,1.08519 0.208542,1.27911 -0.313939,0.97611 -0.385638,-0.22364 -0.492984,-0.20439 -0.262755,0.0471 0.659204,0.72012 1.466538,0.48647 1.733798,-0.50176 0.167423,-0.61906 0.647306,-0.94146 1.401334,-0.94146 0.889198,0 1.362132,0.44853 2.105928,1.99724 1.276485,2.657847 2.829321,4.210407 3.520179,3.519557 0.381024,-0.38103 0.271386,-0.59802 -0.411691,-0.81482 -1.309732,-0.41569 -2.271995,-2.835847 -1.498234,-3.768167 0.981265,-1.18236 2.184222,-0.78873 3.899192,1.27586 1.315843,1.584097 1.532021,2.108637 1.089741,2.644147 -0.463647,0.5614 -0.402582,0.58916 0.382495,0.17393 0.513823,-0.27177 1.459721,-0.71171 2.102,-0.97766 l 1.167777,-0.48352 -1.195275,-0.0316 c -2.926592,-0.0774 -3.861505,-2.938927 -1.049422,-3.211987 0.816496,-0.0793 2.118086,0.18347 2.892421,0.58389 1.829894,0.94627 3.012277,0.92048 4.098299,-0.0894 0.483491,-0.44959 0.674935,-0.65979 0.425439,-0.46711 -0.77049,0.59503 -1.345223,0.38626 -0.787307,-0.28599 1.014412,-1.22229 -0.02117,-5.39257 -1.347933,-5.42807 -0.128455,-0.003 -0.962511,1.06326 -1.853458,2.37044 l -1.619905,2.37669 -0.831337,-1.02665 c -0.497551,-0.61446 -1.12283,-0.9148 -1.557358,-0.74806 -0.399309,0.15323 -0.606575,0.0853 -0.460583,-0.15088 0.145989,-0.23622 0.05181,-0.56152 -0.209294,-0.72289 -0.261101,-0.16135 -0.474731,-0.0584 -0.474731,0.22886 0,0.28724 -0.222779,0.38456 -0.495067,0.21628 -0.312856,-0.19336 -0.183919,-0.54186 0.350332,-0.94693 1.141627,-0.86557 1.707679,-0.83137 1.357188,0.082 -0.206669,0.53858 -0.08802,0.67562 0.417134,0.48178 0.388281,-0.149 0.705969,-0.10748 0.705969,0.0923 0,0.19975 0.332456,0.7712 0.738795,1.2699 0.729956,0.89587 0.735253,0.89571 0.442426,-0.0133 -0.163007,-0.50599 -0.149209,-0.77282 0.03064,-0.59294 0.179872,0.17987 0.879972,-0.41454 1.555781,-1.32091 0.87607,-1.17496 1.203764,-2.14436 1.141711,-3.3775 -0.04786,-0.95126 -0.106254,-1.75437 -0.129757,-1.78471 -0.02349,-0.0303 -0.748696,0.61066 -1.611544,1.42443 -1.183902,1.11656 -2.391761,1.65628 -4.922952,2.19974 -2.253913,0.48394 -3.451877,0.56202 -3.652111,0.23803 -0.163885,-0.26517 -0.03017,-0.57139 0.297106,-0.68049 0.85299,-0.28432 3.77433,-2.91323 3.77433,-3.39649 0,-0.2237 -0.64081,-0.73811 -1.424024,-1.14312 -1.360897,-0.70375 -1.462857,-0.68875 -2.300152,0.33833 -1.083955,1.32968 -0.396689,1.66732 1.227542,0.60309 0.698317,-0.45756 1.054774,-0.54136 0.842626,-0.1981 -0.261016,0.42234 -0.142184,0.50841 0.409602,0.29667 1.433731,-0.55017 0.796249,0.14807 -1.416156,1.55114 -2.505902,1.58919 -4.474692,1.76011 -6.908074,0.59971 -1.844804,-0.87972 -1.915646,-1.59092 -0.206071,-2.06867 1.042014,-0.29118 1.011052,-0.32666 -0.38496,-0.44106 -3.026618,-0.24804 -3.156298,-0.22196 -3.017627,0.60701 0.105063,0.62802 -0.07177,0.73264 -0.78957,0.46711 -1.033213,-0.38222 -1.284662,-1.24221 -0.391585,-1.33928 0.318267,-0.0346 0.736321,-0.0871 0.929004,-0.11678 0.192683,-0.0296 -0.479287,-0.88351 -1.493268,-1.89749 -1.013983,-1.01398 -2.175482,-2.48538 -2.58111,-3.26977 -0.714383,-1.38148 -0.705289,-1.42618 0.29014,-1.42618 h 1.027641 l -0.961006,-1.051001 c -1.389094,-1.519192 -2.4716,-3.84625 -2.4716,-5.313222 v -1.272401 l 1.081105,1.015649 c 1.713466,1.609716 1.962691,1.180053 0.368616,-0.6355 -0.797347,-0.908124 -1.449721,-1.866431 -1.449721,-2.129563 0,-0.263134 -0.242678,-0.328445 -0.539284,-0.145132 -0.313682,0.193865 -0.413242,0.129357 -0.237991,-0.154207 0.165712,-0.268127 0.120228,-1.456705 -0.101076,-2.641284 -0.221303,-1.18458 -0.252579,-2.153779 -0.0695,-2.153779 0.183077,0 0.590908,-0.861264 0.906291,-1.913922 0.315384,-1.052653 0.6662,-1.821145 0.779592,-1.707753 0.113392,0.113396 -0.111377,1.106184 -0.499487,2.206207 -0.867035,2.457438 -0.886339,3.681152 -0.08803,5.579781 0.656221,1.560688 3.841767,5.177907 4.559986,5.177907 0.708782,0 0.481409,-1.242837 -0.352726,-1.928028 -0.990139,-0.81333 -3.423555,-4.615109 -3.423555,-5.348688 0,-0.304846 0.81607,0.261806 1.813489,1.259228 2.546979,2.546975 3.318188,2.263083 1.100986,-0.405288 -2.053866,-2.471798 -2.930738,-3.954922 -2.881645,-4.873958 0.01806,-0.33803 0.213484,-0.194197 0.434281,0.319625 0.298721,0.695164 0.411018,0.336577 0.438842,-1.401333 0.02416,-1.50804 0.476665,-3.245821 1.27718,-4.904665 0.681881,-1.413011 1.200118,-2.742385 1.151641,-2.954165 -0.04848,-0.211779 0.127264,-0.251924 0.39054,-0.08921 0.263279,0.162714 0.478687,1.001946 0.478687,1.864961 0,0.863014 0.147971,1.954158 0.328827,2.424765 0.289049,0.752143 0.368173,0.714385 0.654105,-0.31213 0.296241,-1.063534 0.32943,-1.028787 0.37184,0.389259 0.03069,1.02607 0.245671,1.489266 0.630449,1.358301 0.390686,-0.132978 0.559395,-1.111848 0.509862,-2.95837 -0.04073,-1.517798 0.01691,-2.129033 0.128085,-1.3583 0.451591,3.1311 0.693033,3.771354 1.128656,2.992934 0.252574,-0.451321 0.152496,-1.582886 -0.26172,-2.959219 -0.476128,-1.582042 -0.532839,-2.486011 -0.195511,-3.116314 0.661056,-1.235196 0.723696,-1.134225 0.535871,0.863821 -0.175858,1.870773 0.534323,4.320777 1.252465,4.320777 0.239215,0 0.345205,-0.47295 0.235527,-1.050999 -0.132908,-0.700477 -0.07937,-0.817318 0.160507,-0.350334 0.197958,0.385367 0.882541,0.700667 1.521303,0.700667 1.367863,0 1.781814,1.230879 0.941802,2.800452 -0.740161,1.383004 0.458732,3.840456 1.978884,4.056271 0.794919,0.112854 1.056158,0.45768 1.056158,1.394102 0,0.684285 0.465532,1.740941 1.034521,2.34812 0.697785,0.744622 0.946199,1.441701 0.763179,2.141569 -0.156014,0.596599 0.05139,1.530162 0.487987,2.196491 0.832471,1.270514 3.459013,2.829549 3.946206,2.342357 0.448839,-0.448838 -1.374148,-1.652905 -1.979935,-1.307734 -0.283289,0.161415 -0.359246,0.121472 -0.168791,-0.08876 0.485698,-0.536136 -0.570777,-1.689956 -1.216651,-1.328753 -0.391731,0.219079 -0.391004,0.145136 0.0028,-0.281972 0.397992,-0.431676 0.776282,-0.449104 1.487403,-0.06852 0.524515,0.28071 1.33533,0.495572 1.801814,0.477472 0.466481,-0.01812 0.05386,-0.324488 -0.916929,-0.680862 -0.970796,-0.356368 -2.039312,-0.542712 -2.374478,-0.414093 -0.338873,0.130034 -0.609404,-0.08612 -0.609404,-0.486922 0,-0.871825 -0.160113,-0.870111 1.874246,-0.02009 2.239623,0.935773 2.650611,0.885839 2.518878,-0.306046 -0.14554,-1.31695 -2.009092,-3.1973 -3.168705,-3.1973 -0.614317,0 -0.936262,-0.343822 -0.984138,-1.051 -0.115623,-1.707987 -0.169061,-1.956411 -0.552651,-2.569111 -0.578484,-0.923992 -0.01781,-1.36018 1.838025,-1.429948 0.946367,-0.03559 1.607404,0.04858 1.468974,0.187008 -0.138432,0.138433 -0.903882,0.270237 -1.701002,0.292902 -1.427464,0.04059 -1.877319,0.513598 -1.002599,1.054208 0.245692,0.151844 0.328306,0.584651 0.183581,0.961792 -0.144722,0.377136 -0.03704,0.685705 0.239295,0.685705 0.276333,0 0.381433,0.315299 0.233555,0.700666 -0.170257,0.443681 0.0065,0.700667 0.481774,0.700667 0.824764,0 1.044829,-1.631493 0.283533,-2.102 -0.25691,-0.15878 -0.450519,-0.539037 -0.430239,-0.845013 0.02784,-0.419807 0.09177,-0.421834 0.260541,-0.0083 0.12384,0.303463 0.7495,0.452714 1.401862,0.334419 0.862271,-0.156361 1.087167,-0.05282 0.83871,0.386156 -0.258138,0.456077 -0.200768,0.471912 0.239424,0.06607 0.444667,-0.40997 0.454443,-0.789086 0.04213,-1.634889 l -0.536757,-1.101139 0.926825,1.061042 c 0.545642,0.624654 1.048106,0.864796 1.221718,0.583889 0.162195,-0.262437 0.728628,-0.477154 1.258749,-0.477154 0.790905,0 0.862557,0.122047 0.399328,0.680207 -0.310483,0.374109 -0.437894,0.885087 -0.283131,1.1355 0.154763,0.250414 0.05377,0.595969 -0.224419,0.767903 -0.800492,0.494726 -1.034095,-0.07903 -0.465064,-1.142269 0.286764,-0.535827 0.329534,-0.97423 0.09504,-0.97423 -0.653513,0 -1.523941,1.225975 -1.374574,1.936054 0.07325,0.34818 -0.09455,0.592185 -0.372871,0.542232 -0.278318,-0.04996 -0.506034,0.213666 -0.506034,0.585827 0,0.55504 0.153916,0.537365 0.856368,-0.09835 0.806733,-0.73008 0.856374,-0.713003 0.856374,0.294607 0,1.064173 0.0049,1.063374 0.964573,-0.15665 0.530523,-0.674443 0.848134,-1.414674 0.705815,-1.644955 -0.142325,-0.230281 0.08454,-0.703614 0.504134,-1.051845 0.681061,-0.565233 0.724485,-0.508278 0.404799,0.53096 -0.196958,0.640265 -0.585202,1.447208 -0.862758,1.793211 -0.377007,0.469966 -0.303469,0.741684 0.290724,1.074211 0.437459,0.244813 0.795377,0.822494 0.795377,1.283728 0,0.46124 0.415033,1.214218 0.922297,1.673286 0.507265,0.459067 1.046927,1.227343 1.199258,1.707281 0.466069,1.468462 1.145151,0.972007 1.202409,-0.879047 0.0298,-0.963416 0.156191,-1.353305 0.280863,-0.866421 0.185036,0.722621 0.310737,0.76553 0.684263,0.233556 0.323109,-0.46017 0.372477,-0.263227 0.167997,0.670136 -0.256609,1.171276 -0.18111,1.287395 0.662881,1.019521 1.149813,-0.364935 1.187299,-0.09775 0.198088,1.411974 -0.600728,0.916832 -0.624514,1.152802 -0.116779,1.158496 0.496596,0.0056 0.482648,0.1073 -0.06306,0.45996 -0.385366,0.249045 -0.470077,0.456026 -0.188251,0.459959 0.636039,0.0089 2.584134,1.659566 2.297201,1.946499 -0.115287,0.115287 -0.0061,0.829645 0.242573,1.587467 l 0.45218,1.377853 -0.232251,-1.567388 c -0.186047,-1.255562 -0.09322,-1.514038 0.466593,-1.299218 0.975957,0.374511 0.872545,0.03555 -0.352155,-1.154339 -0.578051,-0.561612 -0.755772,-0.852627 -0.394938,-0.646691 0.453736,0.258957 0.547205,0.198298 0.303085,-0.196706 -0.194138,-0.314118 -0.699566,-0.457605 -1.123174,-0.318854 -0.714777,0.234116 -0.714854,0.213563 -0.0011,-0.285657 0.608529,-0.425576 0.667356,-0.76141 0.28166,-1.607927 -0.358087,-0.785915 -0.330089,-1.259696 0.105455,-1.7845 0.829984,-1.000066 1.643151,-0.890575 2.499118,0.336502 0.403225,0.57805 0.744164,0.805912 0.757639,0.506363 0.01336,-0.299549 -0.816406,-1.210565 -1.84405,-2.024473 -1.986726,-1.573515 -2.285107,-2.502254 -1.191984,-3.710142 0.610748,-0.674868 0.501737,-0.730823 -1.122108,-0.575962 -1.495377,0.142605 -1.850728,0.0072 -2.107945,-0.80323 -0.396176,-1.248237 0.02625,-1.917332 1.210537,-1.917332 1.356838,0 2.823476,0.895471 2.451744,1.496941 -0.185962,0.30089 -0.10605,0.384353 0.191762,0.200298 0.280818,-0.173555 0.727303,0.05672 0.99219,0.511715 0.26489,0.454999 0.488011,0.592867 0.495821,0.306374 0.0078,-0.286494 -0.421452,-1.074744 -0.95392,-1.751667 -0.84777,-1.07776 -1.306129,-1.230772 -3.686912,-1.230772 -3.439026,0 -4.086858,-0.960235 -1.626996,-2.411588 1.607396,-0.948388 1.627584,-0.996742 0.8876,-2.126098 -0.859525,-1.311806 -0.569357,-3.403201 0.47218,-3.403201 1.072145,0 2.097394,1.862632 1.811647,3.291348 -0.141584,0.707928 -0.03153,1.675832 0.244609,2.150897 0.425355,0.731827 0.504203,0.604951 0.516237,-0.830717 0.01781,-2.122777 1.123751,-3.235061 2.173186,-2.185624 0.63628,0.636278 0.63297,0.950261 -0.03162,2.996096 -0.684131,2.106031 -0.725826,2.148571 -0.531408,0.542224 0.116033,-0.958709 0.0042,-1.870772 -0.248065,-2.026808 -0.284829,-0.176035 -0.228841,-0.562651 0.147532,-1.018743 0.507579,-0.615081 0.49222,-0.695554 -0.09409,-0.493084 -0.493107,0.170282 -0.66389,0.780871 -0.576519,2.061184 0.180096,2.639127 0.546825,3.994711 1.00422,3.712029 0.220168,-0.136074 0.511207,0.176662 0.646747,0.694968 0.446551,1.707604 2.174996,0.656413 2.188178,-1.330785 0.0049,-0.746939 -0.172379,-0.966411 -0.576739,-0.713802 -0.855948,0.534726 -1.751665,0.602527 -1.751665,0.132585 0,-0.776516 1.689107,-1.368927 2.263993,-0.794042 0.769207,0.769206 0.683641,1.471801 -0.619061,5.0832 -0.636756,1.765236 -1.07792,3.209515 -0.980365,3.209515 0.09756,0 0.611449,-0.735699 1.141986,-1.634888 0.599638,-1.016312 1.324038,-1.634889 1.91458,-1.634889 1.47431,0 1.172527,1.619418 -0.684911,3.675379 -1.95237,2.161038 -2.171987,3.237631 -0.427249,2.094433 1.004117,-0.657917 1.274458,-0.683174 1.60407,-0.149845 0.523028,0.846275 0.02784,1.610421 -0.6223,0.960287 -0.737946,-0.737956 -1.25518,-0.622771 -1.25518,0.279529 0,0.433035 -0.472948,1.324881 -1.050998,1.981877 l -1.051002,1.194543 1.051002,-0.886497 c 0.57805,-0.487576 1.050998,-0.734509 1.050998,-0.548739 0,0.185765 0.648113,-0.123738 1.440248,-0.687788 1.039273,-0.740026 1.371669,-1.287811 1.193914,-1.967542 -0.175943,-0.672803 -0.102595,-0.798251 0.256664,-0.438991 0.770379,0.770378 0.152236,1.787802 -2.05152,3.376671 -1.103894,0.795892 -2.480799,2.047048 -3.059786,2.780352 -0.910182,1.152765 -0.9418,1.315431 -0.233555,1.201461 0.450532,-0.0725 1.159358,0.04368 1.575177,0.2582 1.024903,0.528728 1.470718,-0.02144 0.758028,-0.935464 -0.518474,-0.664947 -0.489561,-0.672677 0.273212,-0.07301 0.741282,0.582767 0.908645,0.582767 1.277399,0 0.233397,-0.36885 0.42758,-0.828282 0.431512,-1.020965 0.01233,-0.605025 -1.604142,-0.381826 -2.808355,0.387763 l -1.154938,0.738096 1.130075,-0.993779 c 1.184468,-1.04161 2.868267,-1.118366 3.188619,-0.145351 0.302469,0.918701 -2.138652,3.062078 -3.177914,2.790312 -0.499681,-0.13067 -0.801184,-0.06392 -0.670009,0.148316 0.131172,0.21225 -0.551688,0.63843 -1.517467,0.94709 -2.505121,0.8006 -2.776245,1.24217 -0.984694,1.60372 2.821595,0.56942 3.199168,0.76561 3.199168,1.66231 0,1.09573 -1.588817,2.00511 -2.820309,1.61425 -1.36594,-0.43353 -1.107286,0.11654 0.428151,0.91055 1.798121,0.92984 2.240256,2.16941 1.091951,3.06138 -0.883128,0.68599 -0.882657,0.71558 0.03111,1.9515 0.510304,0.69023 0.799179,1.5902 0.64195,1.99994 -0.366024,0.95384 -1.637897,1.44824 -2.222295,0.86384 -0.290057,-0.29005 -0.07561,-0.43726 0.60071,-0.41235 1.254058,0.0462 1.594174,-1.03514 0.707154,-2.24821 -0.534347,-0.73077 -0.799002,-0.77945 -1.678548,-0.30873 -0.782478,0.41877 -0.918725,0.71 -0.54361,1.16198 0.567563,0.68387 -0.577283,4.00281 -1.380743,4.00281 -0.687075,0 -0.556548,1.20752 0.198236,1.83393 0.504677,0.41884 0.740452,0.41534 1.006395,-0.015 0.220189,-0.35627 0.149926,-0.43998 -0.191968,-0.22867 -0.296614,0.18333 -0.539292,0.11071 -0.539292,-0.16137 0,-0.27207 0.196236,-0.49468 0.436083,-0.49468 0.239848,0 0.523653,-0.57805 0.630682,-1.28455 0.162055,-1.06977 0.206293,-1.00124 0.264581,0.40992 0.04367,1.05723 -0.212521,1.92893 -0.681225,2.31792 -1.114547,0.924987 -2.19838,-0.6975 -1.869183,-2.79815 l 0.248923,-1.58842 -1.44989,1.48298 c -0.797438,0.81564 -1.314857,1.61801 -1.149818,1.78305 0.165037,0.16504 0.303287,0.002 0.307221,-0.36167 0.0059,-0.54487 0.08713,-0.538 0.45996,0.0389 0.249044,0.38537 0.427397,1.64657 0.396348,2.802657 -0.03106,1.15611 -0.147556,1.62905 -0.258892,1.05101 -0.111342,-0.57804 -0.380823,-1.05099 -0.59885,-1.05099 -0.957471,0 -1.874162,0.62361 -1.874162,1.27494 0,0.58126 0.127357,0.6022 0.711957,0.11702 0.391575,-0.32498 0.847007,-0.45581 1.01207,-0.29075 0.165068,0.16507 0.0024,0.30681 -0.361619,0.31498 -0.491471,0.011 -0.447876,0.17711 0.169431,0.64542 0.68195,0.51736 0.710792,0.67676 0.160668,0.88786 -0.368781,0.14152 -1.046516,-0.15818 -1.506073,-0.66598 -0.70943,-0.78391 -0.760939,-1.2029 -0.341196,-2.77546 0.413382,-1.548737 0.390032,-1.765557 -0.142545,-1.323557 -0.350305,0.29072 -0.65787,1.396197 -0.683476,2.456607 -0.07669,3.17549 -0.547021,4.26358 -1.842947,4.26358 -0.904901,0 -1.177993,-0.272 -1.295037,-1.2899 -0.08158,-0.70945 0.165063,-1.9181 0.548087,-2.68589 0.383027,-0.76779 0.509714,-1.39598 0.281533,-1.39598 -0.58342,0 -1.381963,1.61766 -1.381963,2.79952 0,0.54587 -0.188177,0.8762 -0.418166,0.73406 -0.229992,-0.14214 -0.540679,0.0608 -0.690409,0.45102 -0.190518,0.49647 -0.625898,0.6207 -1.450284,0.41379 -1.033785,-0.25947 -1.17803,-0.14648 -1.17803,0.92274 0,1.34056 0.799036,1.64711 1.247438,0.47859 0.224499,-0.58503 0.363022,-0.61181 0.662025,-0.12802 0.277653,0.44925 0.500731,0.30452 0.839607,-0.54472 0.26494,-0.66398 0.474098,-0.84307 0.491098,-0.42052 0.0163,0.40481 -0.456377,1.19258 -1.050356,1.75059 -0.934235,0.87767 -1.195593,0.93003 -1.936857,0.38801 -0.832916,-0.60905 -0.854384,-1.74338 -0.06797,-3.59179 0.448151,-1.05337 -1.320466,-1.05149 -2.274233,0.002 -0.584361,0.64571 -0.634537,0.94193 -0.204568,1.20767 0.341712,0.21119 0.449419,0.15746 0.269132,-0.13426 -0.165325,-0.2675 0.01746,-0.75032 0.406222,-1.07295 1.31895,-1.09464 1.090631,-0.21689 -0.521403,2.00445 -1.507818,2.07774 -2.425046,2.63079 -3.154065,1.90177 z m 2.055941,-1.14933 c 0.414788,-0.77503 0.392713,-1.08165 -0.100343,-1.39374 -0.961231,-0.60844 -1.477631,-0.25768 -1.663448,1.12986 -0.208393,1.5561 0.977281,1.73349 1.763791,0.26388 z m -1.433122,0.0594 c 0,-0.25691 0.222601,-0.46711 0.494675,-0.46711 0.272073,0 0.364765,0.2102 0.205991,0.46711 -0.158781,0.25692 -0.381389,0.46711 -0.49468,0.46711 -0.113295,0 -0.205986,-0.21019 -0.205986,-0.46711 z m -8.478879,-1.68453 1.071221,-0.75031 -1.010573,-0.70783 c -0.904287,-0.63339 -1.086424,-0.63198 -1.731822,0.0134 -0.697938,0.69795 -0.546443,2.19504 0.222126,2.19504 0.207806,0 0.859879,-0.33764 1.449048,-0.75031 z m 19.689544,-0.49532 c 0,-1.16595 -0.314571,-1.32009 -1.352623,-0.6628 -0.818015,0.51796 -0.390094,1.75273 0.607422,1.75273 0.469278,0 0.745201,-0.40356 0.745201,-1.08993 z m -1.401333,0.31141 c 0,-0.25691 0.222602,-0.46711 0.494681,-0.46711 0.272073,0 0.364765,0.2102 0.205986,0.46711 -0.158782,0.25691 -0.381386,0.46711 -0.494681,0.46711 -0.113292,0 -0.205986,-0.2102 -0.205986,-0.46711 z m -22.624867,-1.91702 c 0.175289,-0.28363 -0.210444,-1.04484 -0.857186,-1.69158 l -1.175894,-1.175887 -0.321619,1.013327 c -0.527331,1.66147 1.491366,3.25104 2.354699,1.85414 z m 10.479977,-0.60212 c 0,-0.10097 -0.326221,-0.30876 -0.724927,-0.46176 -0.415697,-0.15951 -0.603191,-0.0812 -0.439546,0.18358 0.274314,0.44386 1.164473,0.6565 1.164473,0.27818 z m 5.568397,-1.65215 c 0.565036,-0.35762 0.54607,-0.599667 -0.127545,-1.627737 -1.414018,-2.15805 -3.859354,-1.15386 -2.65772,1.09142 0.547245,1.022527 1.674214,1.239537 2.785265,0.536317 z M 50.258909,86.38762 c 0.424143,-0.26214 0.325921,-0.58652 -0.375436,-1.23993 -1.310123,-1.22057 -1.78391,-1.11111 -2.015317,0.46557 -0.169786,1.15684 -0.05377,1.33465 0.809064,1.23994 0.554003,-0.0608 1.265763,-0.27033 1.581689,-0.46558 z m -1.617114,-0.7546 c -0.47929,-0.7755 -0.0491,-0.88304 0.621508,-0.15537 0.331272,0.35946 0.396224,0.65356 0.144349,0.65356 -0.251881,0 -0.596516,-0.22419 -0.765857,-0.49819 z m 12.115633,0.68959 c 0.354533,-0.9239 -0.02901,-1.59274 -0.913328,-1.59274 -0.370203,0 -0.701725,0.47295 -0.736714,1.051 l -0.06361,1.051 -0.20243,-1.051 c -0.246655,-1.2806 -1.071676,-1.40046 -1.071676,-0.1557 0,1.43616 2.481963,2.015527 2.987758,0.69744 z M 36.580491,85.89765 c 0.07565,-0.25691 -0.172687,-0.87795 -0.55187,-1.38008 -0.636731,-0.84319 -0.747505,-0.85489 -1.449395,-0.153 -1.005861,1.00586 -0.478216,2.34472 0.847212,2.14973 0.559075,-0.0823 1.078399,-0.35974 1.154053,-0.61665 z M 32.54567,82.67984 c 0,-0.35103 -0.36785,-0.92673 -0.817444,-1.27933 -0.732475,-0.57444 -0.753977,-0.55993 -0.20686,0.13962 0.533804,0.68252 0.48975,0.74909 -0.350333,0.5294 -0.63154,-0.16515 -0.960918,-0.0274 -0.960918,0.40198 0,0.35964 0.524891,0.69671 1.167777,0.74992 0.723008,0.0598 1.167778,-0.14644 1.167778,-0.54159 z m 8.215921,-0.98514 c 0.390057,-1.55411 -0.0349,-2.53019 -1.067704,-2.45239 -1.444033,0.10878 -1.081413,3.61912 0.373856,3.61912 0.220559,0 0.532789,-0.52503 0.693848,-1.16673 z m 28.099298,-1.75527 c 0.06503,-0.86332 -1.610949,-1.8593 -2.37147,-1.4093 -0.2139,0.12657 -0.08575,-0.37106 0.284779,-1.10585 1.081688,-2.14504 1.302331,-3.68491 0.65487,-4.57037 -0.519861,-0.71096 -0.675849,-0.41932 -1.208174,2.25879 -0.640474,3.22221 -0.466058,4.61701 0.548216,4.38409 0.332171,-0.0763 0.597733,0.0701 0.59014,0.32524 -0.0076,0.25517 -0.297649,0.39876 -0.644567,0.3191 -0.346925,-0.0797 -0.494152,0.0762 -0.327184,0.34636 0.510101,0.82535 2.401505,0.40625 2.47339,-0.54806 z m 1.287224,-0.81489 c 0.158779,-0.25691 0.06609,-0.46711 -0.205989,-0.46711 -0.272073,0 -0.494678,0.2102 -0.494678,0.46711 0,0.25691 0.09269,0.46711 0.205986,0.46711 0.113292,0 0.335899,-0.2102 0.494681,-0.46711 z M 37.107107,76.33091 c -0.07856,-0.40792 -0.630526,-0.7097 -1.298057,-0.7097 -0.910608,0 -1.192473,0.26884 -1.305374,1.24506 -0.103111,0.89156 0.09582,1.30021 0.700667,1.4393 0.979144,0.22517 2.101999,-0.94011 1.902764,-1.97466 z m 20.600507,1.62631 c 2.374756,-0.40256 4.170308,-1.49658 4.958813,-3.02139 0.941141,-1.81996 0.893495,-2.35084 -0.210989,-2.35084 -0.635383,0 -0.834405,0.22191 -0.644014,0.71806 0.302307,0.78781 -0.745146,2.134 -2.800097,3.5987 l -1.327457,0.94617 0.609105,-0.97534 c 0.335008,-0.53643 0.70657,-0.87787 0.825688,-0.75875 0.311512,0.31151 2.387895,-1.72422 2.387895,-2.34114 0,-0.28483 -0.530577,-0.49466 -1.17906,-0.46627 -0.812053,0.0355 -1.930928,0.89519 -3.594553,2.76174 -1.567841,1.75907 -2.096629,2.61284 -1.506836,2.43291 0.499769,-0.15247 1.616442,-0.39721 2.481505,-0.54385 z m 1.463389,-3.00911 c 0,-0.24175 0.20779,-0.56797 0.461758,-0.72493 0.264787,-0.16365 0.343098,0.0239 0.183579,0.43954 -0.310531,0.80924 -0.645337,0.9573 -0.645337,0.28539 z m 6.260909,0.36658 c -0.112038,-0.18128 0.0099,-0.46163 0.271026,-0.623 0.261101,-0.16136 0.468341,-1.48964 0.460525,-2.95172 -0.01196,-2.23487 -0.09955,-2.5095 -0.549981,-1.72409 -0.294677,0.51382 -0.787807,1.14442 -1.095848,1.40133 -0.929976,0.77561 -1.240094,3.49525 -0.433842,3.80464 0.380896,0.14616 0.692543,0.57097 0.692543,0.94401 0,0.37304 -0.186467,0.56302 -0.414374,0.42216 -0.572328,-0.35372 -0.398087,1.28847 0.180819,1.70415 0.473233,0.33981 1.276614,-2.35052 0.889132,-2.97748 z m -1.05052,-2.05331 c 0.08876,-0.45789 0.444214,-0.92671 0.789887,-1.04182 0.402008,-0.13386 0.570341,0.0907 0.467108,0.62326 -0.08876,0.45789 -0.444211,0.9267 -0.789884,1.04181 -0.40201,0.13386 -0.570341,-0.0907 -0.467111,-0.62325 z m 6.992461,4.33726 c -0.461328,-0.45789 -0.51498,-0.40424 -0.261488,0.26149 0.175413,0.46068 0.436605,0.71992 0.580422,0.5761 0.143819,-0.14382 2.64e-4,-0.52073 -0.318934,-0.83759 z m 0.870148,-0.66898 c 1.9325,0.72944 2.89168,-0.16002 1.650986,-1.53097 -0.470493,-0.51989 -1.123855,-0.94526 -1.451909,-0.94526 -0.607364,0 -2.540168,2.38943 -2.514318,3.10833 0.0078,0.21725 0.218199,0.0455 0.467529,-0.38171 0.380325,-0.65164 0.677857,-0.69196 1.847712,-0.25039 z m 0.0061,-0.55781 c 0,-0.22943 0.345032,-0.54954 0.766735,-0.71136 0.641101,-0.24601 0.669996,-0.17766 0.176361,0.41714 -0.6727,0.81055 -0.943096,0.89491 -0.943096,0.29422 z m -18.389248,-0.0881 c 1.895477,-1.17147 2.079021,-1.64202 0.288695,-0.74012 -1.783278,0.89834 -3.853668,1.34807 -3.853668,0.83709 0,-0.58667 1.375119,-1.06444 1.982771,-0.68889 0.281667,0.17409 0.36132,0.0875 0.183779,-0.19976 -0.172341,-0.27885 -0.100848,-0.63834 0.158875,-0.79886 0.259717,-0.16051 0.701587,-0.72043 0.981931,-1.24425 0.460396,-0.86026 0.404141,-0.92019 -0.581379,-0.6194 -0.600098,0.18315 -1.463907,0.66052 -1.919569,1.06081 -0.61195,0.53758 -0.965348,0.59094 -1.352124,0.20416 -0.386778,-0.38677 -0.20076,-0.60467 0.711705,-0.83369 0.679439,-0.17053 1.235344,-0.60403 1.235344,-0.96334 0,-0.52472 -0.626877,-0.59503 -3.18523,-0.35726 -2.454215,0.2281 -3.499433,0.12594 -4.554331,-0.44514 l -1.369104,-0.74118 1.713462,-0.0187 c 1.982797,-0.0216 3.280757,-0.43012 2.969102,-0.93439 -0.119208,-0.19288 0.302398,-0.25145 0.936902,-0.13016 0.724715,0.13854 1.153644,0.005 1.153644,-0.35823 0,-0.45118 0.159316,-0.44653 0.722775,0.0211 0.848577,0.70426 0.110699,1.3999 -1.214236,1.14474 -0.442552,-0.0852 -1.616563,0.13449 -2.608922,0.48825 l -1.804283,0.64321 2.374481,0.0205 c 1.305961,0.0113 2.513784,-0.11881 2.684046,-0.28906 0.170259,-0.17026 0.993546,-0.36585 1.829516,-0.43464 0.835974,-0.0688 1.24843,-0.0142 0.916571,0.12143 -0.449974,0.18384 -0.470984,0.40605 -0.08263,0.87398 0.5589,0.67344 2.021098,0.3974 1.589986,-0.30015 -0.142147,-0.22999 0.06267,-0.41817 0.455131,-0.41817 0.419449,0 0.610224,0.26933 0.462838,0.65342 -0.137911,0.35938 0.01392,0.81699 0.337426,1.01692 0.334428,0.20669 0.667226,0.12632 0.771435,-0.1863 0.100798,-0.3024 0.474458,-0.54982 0.830352,-0.54982 0.383272,0 0.537466,0.28565 0.378208,0.70067 -0.183761,0.47888 0.02686,0.70067 0.665353,0.70067 0.513823,0 1.055213,-0.3153 1.203091,-0.70067 0.147879,-0.38537 0.498076,-0.70067 0.778214,-0.70067 0.280135,0 0.366937,0.23041 0.192891,0.51202 -0.196577,0.31807 0.01416,0.44835 0.556326,0.34394 0.480018,-0.0924 0.872765,-0.41044 0.872765,-0.70665 0,-0.29621 0.157649,-0.69622 0.350332,-0.8889 0.192683,-0.19268 0.350335,-0.14013 0.350335,0.11678 0,0.25691 0.315298,0.46711 0.700664,0.46711 0.385368,0 0.700666,-0.17517 0.700666,-0.38926 0,-0.21409 -0.252238,-0.38926 -0.560533,-0.38926 -0.425529,0 -0.420843,-0.13969 0.01942,-0.57998 0.461907,-0.46191 0.655738,-0.45741 0.952092,0.0221 0.303355,0.49084 0.459922,0.49012 0.847307,-0.004 0.813559,-1.03751 1.00795,-2.65111 0.38197,-3.17063 -0.453294,-0.376199 -0.838337,-0.09102 -1.584422,1.1735 -1.227113,2.07981 -3.733862,3.22815 -6.087043,2.78848 -0.921888,-0.1724 -1.886354,-0.47422 -2.143265,-0.67086 -0.256913,-0.19665 -1.198273,-0.60404 -2.091916,-0.90532 -3.148334,-1.06142 -4.71714,-2.491051 -6.130856,-5.586979 -1.523592,-3.336546 -1.856221,-5.054851 -0.421079,-2.175233 1.308705,2.625925 3.503053,4.025829 5.741183,3.662631 1.310055,-0.212592 1.627438,-0.426598 1.270515,-0.856667 -0.26168,-0.315305 -0.947401,-0.490154 -1.523814,-0.388558 -1.253703,0.220972 -3.81421,-1.273568 -4.555744,-2.659132 -0.507788,-0.948814 -0.48346,-0.962608 0.554077,-0.314123 0.596852,0.373045 1.657637,0.810971 2.357299,0.973166 1.025786,0.237796 1.218125,0.154207 0.993293,-0.431686 -0.153353,-0.399623 -0.384601,-0.620809 -0.513892,-0.491517 -0.449347,0.449346 -2.909111,-1.153083 -3.962007,-2.581078 l -1.059264,-1.436652 -0.334447,1.327586 c -0.294317,1.168315 -0.314608,1.131446 -0.169108,-0.307303 0.09094,-0.899189 0.01201,-2.633339 -0.17539,-3.853666 -0.187401,-1.220328 -0.163851,-2.218777 0.05233,-2.218777 0.216183,0 0.393059,-0.1916 0.393059,-0.425781 0,-0.608006 -1.548267,-0.301194 -1.765272,0.349814 -0.09957,0.298694 0.04671,0.543077 0.325011,0.543077 0.278323,0 0.506039,0.308705 0.506039,0.686009 0,0.417873 -0.273862,0.580914 -0.700666,0.417135 -0.440116,-0.168889 -0.700667,0.0048 -0.700667,0.467111 0,0.48957 0.255926,0.63777 0.764405,0.442653 0.525631,-0.201708 0.695853,-0.08769 0.544959,0.364991 -0.120692,0.362077 -0.517223,0.658323 -0.881181,0.658323 -0.363956,0 -0.661739,0.3153 -0.661739,0.700667 0,0.385366 0.297783,0.700666 0.661739,0.700666 0.363958,0 0.759078,0.29201 0.878043,0.648911 0.119346,0.358036 0.0033,0.517377 -0.258482,0.355476 -0.674862,-0.417093 -1.535715,0.775171 -1.085579,1.503509 0.20671,0.334466 0.557283,0.574402 0.779046,0.533189 0.221766,-0.0412 0.478581,0.15118 0.570698,0.427532 0.09211,0.276353 -0.137755,0.38533 -0.510823,0.242169 -0.807103,-0.309713 -1.437954,1.500945 -0.685064,1.966253 0.291304,0.180038 0.358111,0.084 0.16214,-0.233089 -0.210715,-0.340944 0.02045,-0.539284 0.62849,-0.539284 1.095116,0 1.292431,0.707393 0.303202,1.086995 -1.045349,0.401141 -4.157562,-0.696187 -3.440349,-1.213026 0.410565,-0.295864 0.320657,-0.339459 -0.28939,-0.140325 -0.524309,0.171145 -1.238218,-0.03078 -1.751668,-0.495446 -1.152347,-1.042858 -1.146125,-0.121706 0.01619,2.396691 1.181557,2.56009 2.738407,3.866218 5.048705,4.235648 1.822457,0.29143 1.933635,0.24692 1.691941,-0.67731 -0.174064,-0.665627 -0.630465,-0.989228 -1.395182,-0.989228 -1.37076,0 -3.480325,-1.036398 -4.393901,-2.158655 -0.595867,-0.731982 -0.575801,-0.784845 0.189002,-0.497913 0.470609,0.176559 1.061063,0.321013 1.312124,0.321013 0.251063,0 0.333084,0.199653 0.182268,0.443676 -0.309236,0.500355 1.176792,1.424768 2.290365,1.424768 1.305491,0 0.771681,-0.93319 -0.55318,-0.967055 -1.117015,-0.02854 -1.162708,-0.08104 -0.350335,-0.402467 0.513824,-0.203301 1.231455,-0.257907 1.594736,-0.121347 0.470522,0.176877 0.545502,0.05751 0.260667,-0.414972 -0.344709,-0.571809 -0.287816,-0.572337 0.412594,-0.0037 0.582567,0.472847 0.65709,0.755449 0.263382,0.998777 -0.75316,0.465476 -0.09732,1.400516 0.753356,1.07408 0.830608,-0.318738 0.930507,0.593856 0.101822,0.930111 -0.439123,0.178175 -0.410168,0.357842 0.116776,0.724622 0.44291,0.3083 0.758299,0.32031 0.85734,0.0326 0.187103,-0.543527 1.011105,-0.11905 1.011105,0.52076 0,0.49087 -6.236475,0.26347 -7.590557,-0.27678 -1.120351,-0.447 -1.024635,0.2457 0.277905,2.01119 1.719193,2.33023 3.472073,3.47102 5.723322,3.72477 2.597953,0.29282 3.027191,0.88576 1.02209,1.41187 l -1.53476,0.4027 1.401333,0.76405 c 1.928224,1.05132 4.261711,0.98632 6.134084,-0.17087 z M 26.747091,72.65864 c -0.676576,-0.67658 -0.806698,-0.67528 -1.496925,0.0149 -0.865927,0.86593 -0.529534,1.67773 0.920513,2.22143 0.799143,0.29965 1.035157,0.18582 1.160301,-0.55961 0.0864,-0.51468 -0.176346,-1.26923 -0.583889,-1.67677 z m -1.173586,1.13568 c -0.373926,-0.45056 -0.392022,-0.75486 -0.0572,-0.96179 0.269387,-0.16649 0.505876,-0.23776 0.525533,-0.15837 0.209678,0.84686 0.321653,1.77924 0.21368,1.77924 -0.07427,0 -0.381174,-0.29659 -0.682018,-0.65908 z m 44.808151,1.41694 c 0,-0.097 -0.296587,-0.4225 -0.659079,-0.72335 -0.504677,-0.41884 -0.740452,-0.41533 -1.006398,0.015 -0.212296,0.3435 -0.150217,0.44015 0.159692,0.24862 0.278857,-0.17234 0.639042,-0.0997 0.800409,0.16138 0.288769,0.46724 0.705376,0.64346 0.705376,0.29837 z M 34.336872,72.64309 c 0.205922,-1.44913 -0.590668,-2.262 -1.487384,-1.51779 -0.741568,0.61545 -1.401071,2.54976 -0.727379,2.1334 0.232952,-0.14397 0.423549,-0.0237 0.423549,0.26716 0,1.01484 1.636144,0.20849 1.791214,-0.88277 z m 40.200072,-0.0181 c 0.358573,-0.22704 0.522819,-0.74933 0.364992,-1.16062 -0.370472,-0.96543 -1.999945,-0.96887 -2.369824,-0.005 -0.535313,1.39501 0.600056,2.05512 2.004832,1.16561 z m -13.747085,-2.1052 c 2.837208,-1.18547 4.238887,-5.83864 1.650909,-5.480558 -2.274881,0.314763 -3.984237,0.279244 -5.079939,-0.105567 -0.841587,-0.295564 -1.021548,-0.247349 -0.745276,0.199671 0.238512,0.385923 0.175461,0.472666 -0.182678,0.251325 -0.300797,-0.185901 -0.433951,-0.520763 -0.2959,-0.744131 0.138049,-0.223368 -0.02122,-0.576696 -0.35393,-0.785167 -0.332711,-0.208472 -1.004197,-1.005349 -1.492194,-1.770832 -0.512013,-0.80317 -0.968639,-1.147655 -1.079679,-0.814534 -0.331258,0.993769 -1.063455,0.100835 -0.799743,-0.975305 0.137798,-0.562303 0.06992,-2.32397 -0.150833,-3.914815 -0.220758,-1.59084 -0.280178,-2.879698 -0.132048,-2.864124 0.938272,0.09864 1.43711,-0.173144 1.43711,-0.782986 0,-1.8403 -2.537689,-0.169977 -3.008814,1.980416 -0.356238,1.626022 0.461333,6.03457 1.378791,7.434791 0.98802,1.507909 0.9317,1.541466 -1.406202,0.837862 -1.156099,-0.347933 -2.102,-0.542961 -2.102,-0.433391 0,0.502813 3.00484,1.680633 3.774277,1.47942 0.474366,-0.12405 1.132964,0.101368 1.46355,0.500925 0.880266,1.063935 4.115706,2.424779 5.793071,2.436606 0.800314,0.0057 2.008964,-0.425398 2.685887,-0.957867 0.676923,-0.53247 1.230772,-0.773756 1.230772,-0.536188 0,0.726886 -2.071956,3.539829 -2.569111,3.487909 -0.25691,-0.0268 -0.635206,0.25158 -0.840655,0.61869 -0.205448,0.36712 -0.709093,0.66749 -1.11921,0.66749 -0.532895,0 -0.361495,-0.35604 0.600693,-1.24776 0.917514,-0.85032 1.150466,-1.31307 0.731348,-1.45277 -0.338259,-0.112758 -1.187677,0.34364 -1.8876,1.0142 -0.69992,0.67057 -1.776073,1.21922 -2.391446,1.21922 -2.066932,0 0.12256,1.19438 2.469538,1.34715 0.457848,0.0298 1.547436,-0.24456 2.421312,-0.60968 z M 51.734098,59.233397 c 0.02241,-0.544161 0.133098,-0.654843 0.282215,-0.282214 0.134935,0.337193 0.118337,0.740077 -0.0369,0.895298 -0.155217,0.155216 -0.265617,-0.120674 -0.245337,-0.613084 z M 68.055445,70.25442 c 0.60426,0.32339 0.969755,0.30032 1.202269,-0.0759 0.195439,-0.31623 0.130473,-0.41471 -0.156552,-0.23732 -0.269845,0.16677 -0.985474,-0.10906 -1.590285,-0.61295 -0.923525,-0.76944 -0.968726,-0.91867 -0.28221,-0.93172 0.449596,-0.009 0.817446,0.19466 0.817446,0.45157 0,0.25691 0.499761,0.46711 1.110583,0.46711 1.24298,0 2.48682,-1.14371 1.743473,-1.60313 -0.253597,-0.15673 -0.677809,0.0873 -0.942699,0.54231 -0.26489,0.45499 -0.488011,0.60655 -0.495821,0.3368 -0.0078,-0.26976 0.211762,-0.71644 0.487942,-0.99261 0.358118,-0.358124 0.157149,-0.502149 -0.700667,-0.502149 -0.661548,0 -1.202811,0.183925 -1.202811,0.408719 0,0.2248 -0.327708,0.40873 -0.728236,0.40873 -0.431512,0 -0.592431,-0.21973 -0.394938,-0.539289 0.206502,-0.334124 0.128137,-0.412487 -0.205986,-0.205986 -0.296606,0.183313 -0.539284,0.07566 -0.539284,-0.239236 0,-0.314893 -0.135057,-0.437477 -0.30012,-0.27241 -0.165068,0.165063 -0.03424,0.620496 0.290748,1.012071 0.480494,0.57896 0.471114,0.71461 -0.05021,0.72616 -0.444402,0.01 -0.396251,0.15694 0.156961,0.47947 0.438922,0.25589 0.736126,0.72245 0.660445,1.03679 -0.07568,0.31434 -0.04999,0.41557 0.05709,0.22494 0.107072,-0.19064 0.585364,-0.13752 1.062868,0.11803 z M 25.1849,69.07475 c -0.123505,-0.64608 -0.390687,-1.27736 -0.593739,-1.40285 -0.665792,-0.41148 -1.854823,0.32464 -1.854823,1.14832 0,1.07143 0.412548,1.42921 1.647966,1.42921 0.843222,0 0.9853,-0.20846 0.800596,-1.17468 z m -1.628207,0.39724 c 0.322739,-0.13011 0.447912,-0.4613 0.278161,-0.73596 -0.183959,-0.29765 -0.08771,-0.36284 0.238264,-0.16138 0.643079,0.39744 0.25694,1.22408 -0.546903,1.17079 -0.398184,-0.0264 -0.389521,-0.10412 0.03048,-0.27345 z M 57.995512,68.3175 c 0.909444,-0.86503 0.889997,-0.86692 -1.055451,-0.10273 -1.735126,0.68158 -2.228645,0.69982 -3.962732,0.14651 -1.696954,-0.54147 -1.813448,-0.65427 -0.812992,-0.78727 2.379095,-0.316252 3.269777,-0.625546 3.269777,-1.13543 0,-0.355761 -0.773803,-0.431634 -2.417169,-0.236998 -1.978492,0.234322 -2.709049,0.105885 -4.025472,-0.707706 -1.497033,-0.925221 -1.575146,-0.932447 -1.129053,-0.104437 1.994941,3.702921 7.612019,5.326031 10.133092,2.928061 z M 29.07617,66.045431 c 0.132371,0 0.206557,0.26275 0.164855,0.583889 -0.157715,1.21454 0.06265,1.64997 0.95284,1.88276 0.999679,0.26142 1.746146,-1.090012 1.142006,-2.06753 -0.209023,-0.338207 -0.1322,-0.417583 0.203404,-0.210168 0.296606,0.183313 0.539284,0.104091 0.539284,-0.176044 0,-0.805725 -1.344445,-1.10873 -2.107948,-0.47508 -0.382095,0.317112 -0.701404,0.393176 -0.709574,0.169033 -0.0082,-0.224138 -0.323471,4.76e-4 -0.700666,0.499197 -0.377197,0.498697 -0.666854,1.339492 -0.643684,1.868442 0.02815,0.64272 0.187527,0.45816 0.480467,-0.55639 0.241086,-0.834959 0.546643,-1.518109 0.679016,-1.518109 z m 32.941589,1.318949 c 0.369874,-0.691114 0.371298,-0.875006 0.0051,-0.648635 -0.281165,0.173765 -0.743506,0.749995 -1.02743,1.280515 -0.369871,0.69111 -0.371297,0.87501 -0.0051,0.64864 0.281159,-0.17377 0.743505,-0.75 1.02743,-1.28052 z m -4.505,0.04603 c 0.696933,-0.676526 -1.193217,-0.478294 -2.779312,0.29149 l -1.401333,0.68011 1.868444,-0.27042 c 1.027644,-0.14872 2.068136,-0.46425 2.312201,-0.70118 z m 13.839154,-1.956499 c -0.505462,-1.531559 -1.904467,-2.240821 -1.904467,-0.965519 0,0.697327 -0.7441,0.84123 -1.129064,0.218347 -0.137485,-0.222457 -0.780491,-0.303053 -1.428897,-0.1791 -0.674695,0.128974 -1.178927,0.0085 -1.178927,-0.281542 0,-0.27965 -0.346374,-0.373988 -0.772602,-0.210429 -0.675367,0.259163 -0.63946,0.40429 0.285303,1.15312 0.581847,0.471151 1.349922,0.856639 1.706823,0.856639 0.356905,0 0.64892,0.167992 0.64892,0.373316 0,0.205323 0.710871,0.290323 1.579718,0.18889 0.889785,-0.103876 1.726246,0.05267 1.915214,0.358428 0.63019,1.019669 0.803111,0.07901 0.277979,-1.51215 z M 23.203449,63.910944 c 0,-1.445727 -0.134849,-1.647533 -1.014411,-1.518111 -1.399012,0.205856 -1.561995,1.076192 -0.416116,2.222071 1.298052,1.29805 1.430527,1.23286 1.430527,-0.70396 z m 40.171553,-0.162765 c 1.90215,-0.703768 2.11547,-0.937174 2.243692,-2.45499 0.105259,-1.245944 -0.154945,-2.021769 -1.011816,-3.016851 l -1.153514,-1.339571 -1.206963,1.132422 c -0.729482,0.684439 -1.206954,1.639466 -1.206954,2.414132 0,2.430509 -0.294005,2.654774 -3.162529,2.412362 -2.398074,-0.202651 -2.58465,-0.153109 -2.013785,0.53474 0.394853,0.475771 0.823515,0.602652 1.151064,0.34071 0.592653,-0.47394 3.885042,-0.35897 4.392105,0.153372 0.183594,0.185508 -0.506989,0.297839 -1.534633,0.249628 -2.567317,-0.120454 -3.066601,0.04648 -1.401333,0.468559 0.770734,0.195341 1.716634,0.248975 2.102,0.119184 0.385365,-0.129792 1.646567,-0.585954 2.802666,-1.013697 z m -2.121208,-0.536491 c -0.479288,-0.775502 -0.0491,-0.88304 0.621511,-0.155365 0.331271,0.359456 0.396221,0.653553 0.144346,0.653553 -0.251881,0 -0.596513,-0.224185 -0.765857,-0.498188 z m 0.880025,-1.905962 c -0.383405,-0.841487 -0.35695,-1.247261 0.109746,-1.683221 0.437002,-0.408222 0.706562,-0.426192 0.931579,-0.06211 0.218469,0.353491 0.441134,0.315847 0.718206,-0.12143 0.220863,-0.348567 0.431614,-0.423557 0.468336,-0.166646 0.265184,1.855253 0.231799,2.51124 -0.116824,2.295776 -0.221514,-0.136901 -0.405966,0.02625 -0.4099,0.362543 -0.0057,0.484927 -0.09063,0.479695 -0.410567,-0.02527 -0.303477,-0.479004 -0.450731,-0.494807 -0.5944,-0.0638 -0.108452,0.325356 -0.409291,0.0938 -0.696176,-0.535833 z m 6.721945,2.455472 c -0.04391,-0.583062 -0.311668,-0.795612 -0.788413,-0.625868 -0.452088,0.160966 -0.307004,-0.198504 0.388189,-0.961777 1.375721,-1.510446 1.087527,-3.027024 -0.398828,-2.098781 -1.21491,0.758723 -1.221091,1.480756 -0.0099,1.164036 0.514178,-0.134458 0.81707,-0.05388 0.673097,0.179076 -0.143976,0.232953 -0.669766,0.423548 -1.168426,0.423548 -0.679844,0 -0.906653,-0.324558 -0.906653,-1.297396 0,-1.410479 -1.144827,-3.373714 -1.967327,-3.373714 -0.282164,0 -0.161573,0.388342 0.267968,0.862983 0.824118,0.910642 2.301924,5.81542 1.626387,5.397916 -0.216778,-0.133976 -0.394139,0.0037 -0.394139,0.305566 0,0.319097 0.391187,0.446861 0.933754,0.304976 0.513569,-0.134299 1.051472,-0.05372 1.195347,0.179077 0.414126,0.670075 0.621049,0.496833 0.548995,-0.459642 z m 5.105773,-2.610796 c -0.05718,-0.893887 -0.342235,-1.863511 -0.633441,-2.154717 -0.612407,-0.612406 -1.545094,-0.184827 -1.545094,0.708322 0,0.566087 1.720629,3.071647 2.109379,3.071647 0.09522,0 0.126343,-0.73136 0.06916,-1.625252 z M 56.92852,61.847766 c -0.847997,-0.200834 -1.688798,-0.52073 -1.868445,-0.710882 -0.179646,-0.190151 0.198872,-0.188404 0.84115,0.0039 0.642278,0.192286 1.010025,0.183262 0.817216,-0.02004 -0.302988,-0.319495 -0.803201,-0.432914 -2.830009,-0.641689 -0.207846,-0.02139 -0.256966,-0.234602 -0.109159,-0.473758 0.147809,-0.239161 0.07901,-0.552097 -0.152879,-0.695412 -0.231894,-0.143319 -0.536379,0.178245 -0.67664,0.714591 -0.140258,0.536347 -0.136009,0.856168 0.0094,0.710715 0.145455,-0.145454 0.790157,0.149055 1.432678,0.654459 0.645025,0.507376 1.819907,0.897512 2.623338,0.871111 l 1.455131,-0.04782 z m -6.165519,-1.063345 c 0,-0.324446 -0.468932,-0.797396 -1.042069,-1.051 -0.977111,-0.432358 -3.140082,-3.633727 -3.15193,-4.665098 -0.0028,-0.256912 0.499086,0.163386 1.115637,0.933993 0.616542,0.770602 1.040857,1.53076 0.942913,1.689237 -0.09794,0.158472 0.237368,0.664105 0.74513,1.123626 0.507764,0.45952 0.923208,0.668436 0.923208,0.464257 0,-0.204179 -0.36785,-0.674317 -0.817443,-1.04475 -0.775404,-0.638882 -0.774158,-0.659823 0.02424,-0.407181 0.525494,0.166282 0.726506,0.07994 0.535062,-0.229818 -0.292516,-0.473301 -0.618395,-2.935046 -0.750316,-5.668052 -0.03373,-0.698634 -0.221416,-1.171295 -0.417097,-1.050355 -0.195683,0.12094 -0.236085,-0.237853 -0.08978,-0.797312 0.265417,-1.014962 0.266907,-1.014761 0.675942,0.09097 0.546727,1.477939 1.323069,2.371159 1.803058,2.07451 0.214899,-0.132813 -0.05436,-0.995838 -0.598347,-1.917827 -0.800253,-1.356336 -0.884947,-1.84307 -0.443648,-2.549707 0.87236,-1.39687 0.68073,-2.754478 -0.3888,-2.754478 -0.860832,0 -1.113358,0.396822 -0.817443,1.284555 0.06423,0.192683 0.282776,0.294999 0.485664,0.227369 0.202895,-0.06763 -0.09748,0.507835 -0.667483,1.278811 -0.570005,0.770977 -1.137602,1.30055 -1.261326,1.176826 -0.123719,-0.123719 0.121229,-0.607464 0.544335,-1.074987 0.593404,-0.655708 0.642585,-0.97673 0.215119,-1.404197 -0.794324,-0.794325 -1.451059,-0.683346 -1.116438,0.188664 0.386001,1.005909 -0.18429,1.882727 -0.691142,1.062622 -0.325942,-0.527383 -0.487431,-0.525997 -0.992613,0.0085 -0.478059,0.505819 -0.482099,0.682828 -0.01942,0.852464 0.321138,0.117754 0.58389,0.429266 0.58389,0.692254 0,0.262988 -0.301723,0.36238 -0.670493,0.220873 -0.368766,-0.141511 -0.773398,-0.05365 -0.899189,0.195258 -0.125783,0.2489 -0.176689,0.191422 -0.113123,-0.127732 0.06356,-0.319149 -0.372602,-1.299638 -0.969255,-2.178859 -0.596656,-0.879222 -1.094121,-2.252403 -1.105474,-3.051513 l -0.02064,-1.452928 -0.989282,1.868445 c -1.030128,1.945586 -1.83974,7.686003 -1.190924,8.444031 0.202936,0.237091 0.809755,1.020198 1.348486,1.740231 0.538734,0.720038 1.08382,1.204848 1.211307,1.077364 0.625027,-0.625027 0.507515,-4.423696 -0.162195,-5.243102 -0.477197,-0.583865 -0.649576,-0.644356 -0.511892,-0.179637 0.702315,2.370505 0.717497,2.871215 0.04249,1.401333 -1.011177,-2.201919 -1.327772,-4.835856 -0.709229,-5.900468 0.435567,-0.749684 0.509979,-0.642281 0.528097,0.762247 0.03265,2.531331 0.982033,3.996579 2.485458,3.835986 1.371224,-0.146472 1.332693,-0.244888 1.428686,3.649038 0.06869,2.785832 1.083489,4.581229 3.484452,6.164689 1.496181,0.986748 1.483836,0.984745 1.483836,0.240828 z M 47.99292,54.431529 c -0.531743,-1.042303 -0.966805,-2.231179 -0.966805,-2.641943 0,-0.413178 -0.224097,-0.608342 -0.5016,-0.436837 -0.275875,0.1705 -0.223324,-0.138686 0.116779,-0.687079 0.587743,-0.947693 0.6311,-0.90684 0.875281,0.824745 0.141296,1.002005 0.631044,2.392833 1.088324,3.090729 0.457276,0.697897 0.724185,1.376133 0.593121,1.507195 -0.131061,0.131062 -0.673354,-0.614504 -1.2051,-1.65681 z m -25.614113,3.59575 c -0.56682,-0.56682 -1.978024,-0.212703 -1.978024,0.496352 0,0.246621 0.357779,0.806183 0.795064,1.243469 0.748678,0.748676 0.82137,0.736111 1.24596,-0.215432 0.304405,-0.682197 0.283937,-1.177451 -0.063,-1.524389 z m 20.311784,1.437595 c -0.04283,-0.568726 -0.663533,-1.280281 -1.48908,-1.707071 -1.53454,-0.793323 -1.503489,-0.700102 0.621162,1.864852 0.865288,1.044605 0.957233,1.027887 0.867918,-0.157781 z m 17.414634,0.796149 c 0,-0.09849 -0.420696,-0.289086 -0.934868,-0.423548 -0.514175,-0.134458 -0.817075,-0.05388 -0.673102,0.179076 0.251423,0.406812 1.60797,0.613055 1.60797,0.244472 z M 54.349056,58.19089 c -1.378794,-1.439151 -1.811371,-3.001773 -0.538546,-1.94542 1.183086,0.981872 1.151569,0.310807 -0.05103,-1.086416 l -1.128034,-1.310606 v 1.915725 c 0,1.432718 0.301566,2.217292 1.196082,3.111814 1.612593,1.612589 2.104175,0.966827 0.521526,-0.685097 z m 0.617947,-0.553457 c 0,-0.256911 -0.222604,-0.467111 -0.494678,-0.467111 -0.272076,0 -0.36477,0.2102 -0.205989,0.467111 0.158777,0.256911 0.381384,0.467111 0.494676,0.467111 0.113294,0 0.205991,-0.2102 0.205991,-0.467111 z m 7.296271,-0.211185 c 0.442904,-1.15419 -0.306589,-1.812587 -0.993695,-0.872919 -0.337923,0.462137 -0.515538,1.000216 -0.3947,1.19573 0.358526,0.58011 1.108857,0.405653 1.388395,-0.322811 z m 11.703629,-0.56328 c -0.169042,-0.169048 -0.05436,-0.612191 0.254852,-0.984768 0.449233,-0.541298 0.392364,-0.801605 -0.283014,-1.295454 -0.961824,-0.703305 -2.155739,-0.421371 -2.155739,0.509063 0,0.343312 0.467171,0.951425 1.038158,1.351361 1.056721,0.740156 1.702839,0.976893 1.145743,0.419798 z M 29.976559,55.541833 c 0,-1.093521 -1.383281,-1.497385 -2.357994,-0.688442 -1.240425,1.029461 -0.81504,1.922204 0.839883,1.762639 1.154087,-0.111276 1.518111,-0.368855 1.518111,-1.074197 z m -1.881052,-0.219556 c 0.151845,-0.245691 0.58465,-0.3283 0.961789,-0.18358 0.965572,0.370527 0.851788,0.630292 -0.276082,0.630292 -0.528984,0 -0.837552,-0.201021 -0.685707,-0.446712 z m 36.213717,0.496688 c 0,-0.486337 -0.326217,-1.009427 -0.724929,-1.162429 -0.398705,-0.152998 -0.605477,-0.08491 -0.459491,0.151307 0.145989,0.236213 0.04838,0.56363 -0.216913,0.72759 -0.626091,0.386946 -0.139157,1.167778 0.728236,1.167778 0.370203,0 0.673097,-0.397913 0.673097,-0.884246 z M 77.589177,55.24895 c -0.140788,-0.227801 -0.03335,-0.414183 0.238699,-0.414183 0.272073,0 0.494678,-0.2102 0.494678,-0.467111 0,-0.744099 -1.010539,-0.541302 -1.648205,0.330766 -0.77879,1.065055 -0.363524,2.238097 0.529835,1.496675 0.352536,-0.29258 0.525786,-0.718347 0.384993,-0.946147 z M 61.421185,54.857328 c 0.135255,-0.40577 -7.7e-5,-0.491998 -0.392004,-0.249773 -0.36985,0.22858 -0.839226,0.04082 -1.228378,-0.491368 -0.601548,-0.822676 -0.6298,-0.817146 -0.6298,0.123266 0,1.468344 1.801774,1.963094 2.250182,0.617875 z M 50.159092,52.162224 c -0.812456,-0.812456 -1.034314,-0.356737 -0.501845,1.030849 0.21069,0.549056 0.439705,0.626143 0.797424,0.26842 0.357722,-0.357718 0.272836,-0.730856 -0.295579,-1.299269 z m 25.212774,0.249405 c -0.149111,-0.372629 -0.259799,-0.261947 -0.282209,0.282214 -0.02027,0.49241 0.09011,0.768299 0.245334,0.613083 0.155218,-0.155221 0.17181,-0.558104 0.03686,-0.895297 z m -3.675388,-0.26275 c -0.19286,-1.016976 -2.716143,-1.443579 -2.716143,-0.459213 0,0.937016 0.46477,1.276657 1.74699,1.276657 0.818295,0 1.081997,-0.222425 0.969153,-0.817444 z m -1.781921,0.166753 c 0,-0.10097 0.326215,-0.30876 0.724926,-0.461762 0.415692,-0.159514 0.603192,-0.08121 0.439545,0.183579 -0.274318,0.443854 -1.164471,0.656501 -1.164471,0.278183 z M 29.49362,51.05227 c -0.01204,-0.853318 -0.235857,-1.084837 -0.934222,-0.966355 -1.377598,0.233729 -1.846744,0.875455 -1.205167,1.648505 0.860986,1.037426 2.157811,0.62393 2.139389,-0.68215 z M 27.87456,50.9143 c 0,-0.100971 0.326217,-0.308761 0.724927,-0.461763 0.415694,-0.159514 0.603191,-0.08121 0.439543,0.183579 -0.274314,0.443854 -1.16447,0.656501 -1.16447,0.278184 z m -3.738943,-2.615248 c 0.321302,-0.600358 0.210627,-1.027242 -0.412535,-1.591196 -1.074161,-0.972103 -2.388077,-0.508151 -2.388077,0.843244 0,2.060852 1.835605,2.551085 2.800612,0.747952 z m -2.069913,-0.801138 c -0.253494,-0.665726 -0.19984,-0.71938 0.261486,-0.261486 0.319232,0.316857 0.462754,0.693772 0.318936,0.837589 -0.143817,0.143818 -0.405008,-0.115428 -0.580422,-0.576103 z m 46.291818,1.497965 c 0,-0.385366 -0.267867,-0.700666 -0.595249,-0.700666 -0.716189,0 -1.209888,0.686125 -0.793389,1.102624 0.549518,0.549519 1.388638,0.306626 1.388638,-0.401958 z m 2.542965,0.03195 c 0.354107,0.218847 0.4373,0.147818 0.226451,-0.193341 -0.388945,-0.629328 -1.978172,-0.722598 -2.339894,-0.137326 -0.410652,0.664446 0.296037,1.028494 0.947295,0.487995 0.333523,-0.276796 0.858289,-0.347596 1.166148,-0.157328 z M 26.706532,44.773008 c 0.269166,-2.573849 0.0053,-2.350854 -0.452209,0.382186 -0.162476,0.970556 -0.492582,1.642788 -0.73357,1.49385 -0.242306,-0.149754 -0.30843,0.06727 -0.147929,0.485529 0.466179,1.214843 1.07185,0.142396 1.333708,-2.361565 z m 5.132804,0.243258 c -0.261864,-0.423705 -0.435452,-0.410786 -0.722567,0.05378 -0.492486,0.79686 -0.0086,1.579765 0.600122,0.971018 0.256911,-0.256912 0.312012,-0.718068 0.122445,-1.024793 z m 42.279221,0.682268 c 0,-0.400528 -0.21363,-0.596204 -0.474731,-0.434834 -0.261101,0.16137 -0.353798,0.489075 -0.205986,0.728234 0.40042,0.647903 0.680717,0.527093 0.680717,-0.2934 z m -3.269778,-1.262567 c 0,-0.212139 -0.346045,-0.323943 -0.768987,-0.248453 -0.422941,0.07549 -0.859345,-0.178045 -0.969782,-0.563412 -0.162272,-0.566222 -0.115551,-0.57906 0.243485,-0.06691 0.287499,0.410111 0.549995,0.462711 0.743847,0.149054 0.366784,-0.593468 -0.472114,-1.181378 -1.117007,-0.782813 -0.256913,0.15878 -0.467111,0.69433 -0.467111,1.190112 0,0.675883 0.292182,0.877241 1.167778,0.804775 0.642275,-0.05316 1.167777,-0.270217 1.167777,-0.482356 z m -43.12224,-3.235003 c -0.149114,-0.37263 -0.2598,-0.261945 -0.282213,0.282213 -0.02028,0.492413 0.09012,0.7683 0.245336,0.613083 0.155217,-0.155217 0.171811,-0.5581 0.03688,-0.895296 z m 1.082243,-1.107762 c 0,-0.400529 -0.213629,-0.596204 -0.474731,-0.434834 -0.261102,0.16137 -0.353796,0.489075 -0.205988,0.728234 0.400426,0.647903 0.680719,0.527093 0.680719,-0.2934 z m -1.00678,-0.95512 c 0.624966,-0.437742 0.95997,-1.034655 0.805944,-1.43604 -0.290988,-0.758303 0.443103,-1.66388 1.750229,-2.159086 0.596263,-0.225894 0.804685,-0.704438 0.700667,-1.608753 -0.117571,-1.022135 -0.388542,-1.28721 -1.315838,-1.28721 -1.051,0 -1.167778,0.186843 -1.167778,1.868444 0,1.665488 -0.115422,1.856135 -1.062588,1.75512 -1.190007,-0.126913 -2.297191,1.632616 -1.816144,2.886203 0.353935,0.922342 0.767249,0.918676 2.105508,-0.01868 z m -1.291898,-1.391793 c 0.02241,-0.544158 0.133099,-0.654843 0.282212,-0.282213 0.134936,0.337196 0.11834,0.740079 -0.03688,0.895296 -0.155217,0.155217 -0.265618,-0.120671 -0.245336,-0.613083 z m 3.311585,-0.30279 c -0.346629,-0.346628 -0.40742,-0.164253 -0.204239,0.612714 0.165175,0.631629 0.376913,0.843368 0.493527,0.493527 0.112331,-0.336993 -0.01785,-0.834801 -0.289288,-1.106241 z m 2.910217,0.0316 c -0.118885,-0.19236 -0.524723,-0.231336 -0.901862,-0.08661 -0.950972,0.364922 -0.856597,0.585102 0.216154,0.504294 0.496024,-0.03736 0.804592,-0.225321 0.685708,-0.41768 z m 2.99779,-2.379762 c 0.164737,-1.427258 -0.194845,-1.568945 -1.490947,-0.587481 -1.049837,0.794982 -0.672724,2.250347 0.524286,2.023336 0.494489,-0.09378 0.877406,-0.662553 0.966661,-1.435855 z M 32.855029,31.82955 c -0.129583,-0.321141 -0.235605,-0.05839 -0.235605,0.583887 0,0.642279 0.106022,0.905028 0.235605,0.583891 0.129582,-0.321141 0.129582,-0.84664 0,-1.167778 z m 5.491326,0.767468 c 1.596523,-0.612645 0.57722,-2.519136 -1.346854,-2.519136 -0.80356,0 -1.213358,1.652296 -0.569489,2.296164 0.58164,0.581641 0.888593,0.617355 1.916343,0.222972 z m -1.129574,-1.132463 c 0,-0.248849 0.315299,-0.452451 0.700666,-0.452451 0.385367,0 0.700667,0.08261 0.700667,0.183581 0,0.100968 -0.3153,0.30457 -0.700667,0.452451 -0.385367,0.147878 -0.700666,0.06527 -0.700666,-0.183581 z m 9.342223,-0.249603 c 0,-0.734999 -1.047567,-2.071292 -1.623758,-2.071292 -0.971134,0 -1.339765,0.878239 -0.694819,1.655352 0.539186,0.649678 2.318577,0.968893 2.318577,0.41594 z m -1.634889,-0.669959 c 0.158779,-0.25691 0.381381,-0.467111 0.494675,-0.467111 0.113292,0 0.205992,0.210201 0.205992,0.467111 0,0.25691 -0.222608,0.467111 -0.494681,0.467111 -0.272074,0 -0.364768,-0.210201 -0.205986,-0.467111 z M 33.400012,29.418504 c 0.594617,-1.017336 0.640769,-1.38553 0.193747,-1.545706 -0.322739,-0.115644 -0.467984,-0.40251 -0.322766,-0.637476 0.384878,-0.622747 -0.362845,-0.495371 -1.309212,0.223022 -1.223982,0.929137 -1.018495,3.854332 0.241259,3.434415 0.229034,-0.07634 0.767671,-0.739759 1.196972,-1.474255 z m 2.143676,-2.426818 c 1.125505,-0.431898 0.881652,-1.001024 -0.428907,-1.001024 -0.679435,0 -1.167778,0.268589 -1.167778,0.642278 0,0.698436 0.44873,0.799255 1.596685,0.358746 z m 0.73887,-2.335556 c 0,-0.35788 -0.184462,-0.650692 -0.409915,-0.650692 -0.582636,0 -1.50467,1.199491 -1.175253,1.528907 0.451348,0.451348 1.585168,-0.17681 1.585168,-0.878215 z m 7.473779,-0.728233 c 0,-0.244586 0.188172,-0.328406 0.418161,-0.186264 0.480853,0.297182 1.060648,-0.904346 0.639579,-1.325414 -0.557712,-0.557712 -2.495167,-0.261575 -2.757266,0.421444 -0.408591,1.064768 0.165251,2.123693 0.981175,1.810593 0.395091,-0.151611 0.718351,-0.475773 0.718351,-0.720359 z m -4.204002,-1.320861 c 0,-1.067926 -0.19318,-1.368919 -0.817444,-1.27365 -0.449594,0.06861 -0.890722,0.330044 -0.980284,0.580958 -0.08956,0.250913 -0.359709,0.824058 -0.600324,1.273651 -0.371985,0.69506 -0.225223,0.817443 0.980285,0.817443 1.26323,0 1.417767,-0.152426 1.417767,-1.398402 z m -1.630179,-0.01056 c 0.16137,-0.261102 0.489075,-0.353796 0.728234,-0.205989 0.647904,0.400428 0.527093,0.680722 -0.293399,0.680722 -0.400529,0 -0.596205,-0.213629 -0.434835,-0.474731 z m 3.756015,-1.145154 c 1.024289,-2.451464 0.897548,-3.614659 -0.374168,-3.434046 -1.065884,0.151381 -1.208307,0.894077 -0.76762,4.002932 0.199488,1.407305 0.346737,1.333939 1.141788,-0.568886 z m -0.938109,-2.084725 c -0.319071,-0.516265 0.417788,-1.073726 0.849122,-0.642392 0.444121,0.444122 0.361349,1.077227 -0.140838,1.077227 -0.241747,0 -0.560477,-0.195678 -0.708284,-0.434835 z m 5.351831,-0.238265 c 0,-0.113294 -0.210201,-0.335899 -0.467111,-0.494678 -0.256913,-0.158782 -0.467112,-0.06608 -0.467112,0.205986 0,0.272074 0.210199,0.494681 0.467112,0.494681 0.25691,0 0.467111,-0.09269 0.467111,-0.205989 z M 43.059002,14.5663 c 0.194079,0.181758 0.07789,-0.121044 -0.258183,-0.672896 -0.502679,-0.825426 -0.762071,-0.909047 -1.462653,-0.471527 -0.868524,0.542403 -1.126995,1.744468 -0.508164,2.363299 0.188894,0.188894 0.6883,-0.08243 1.109789,-0.60295 0.421492,-0.520517 0.925134,-0.797684 1.119211,-0.615926 z m -2.105334,0.09691 c 0,-0.25691 0.222607,-0.467111 0.494678,-0.467111 0.272074,0 0.36477,0.210201 0.205989,0.467111 -0.158779,0.25691 -0.381384,0.467111 -0.494678,0.467111 -0.113295,0 -0.205989,-0.210201 -0.205989,-0.467111 z m 3.970447,0.467111 c 0.158779,-0.25691 0.06608,-0.467111 -0.205991,-0.467111 -0.272074,0 -0.494676,0.210201 -0.494676,0.467111 0,0.25691 0.09269,0.467111 0.205986,0.467111 0.113292,0 0.335899,-0.210201 0.494681,-0.467111 z m 2.472078,-2.107365 c 0.121621,-0.767186 0.06282,-0.806903 -0.33782,-0.22819 -0.35556,0.513598 -0.486979,0.537416 -0.49222,0.08921 -0.0037,-0.336301 -0.21735,-0.481544 -0.47426,-0.322765 -0.256913,0.158779 -0.467111,0.606996 -0.467111,0.99604 0,1.049046 1.596751,0.567433 1.771411,-0.534295 z m -4.189496,-1.785008 c 0.101833,-0.525074 -0.164443,-0.778738 -0.817445,-0.778738 -0.532659,0 -0.968473,0.222605 -0.968473,0.494678 0,0.272074 0.207793,0.366258 0.461761,0.209296 0.272815,-0.168608 0.337923,0.03733 0.159121,0.50328 -0.210987,0.549828 -0.103272,0.722275 0.355687,0.569441 0.362077,-0.12057 0.726283,-0.569653 0.809349,-0.997957 z m 3.077079,-1.8481722 c 0.261657,-0.414811 0.341286,-0.888651 0.176961,-1.052978 -0.444976,-0.444973 -1.918,0.510159 -2.036978,1.320807 -0.134861,0.9188502 1.23599,0.7214582 1.860017,-0.267829 z m -2.73634,-1.693336 c -0.145217,-0.234968 -0.0405,-0.501729 0.232719,-0.592798 0.785137,-0.261713 -0.05626,-1.844907 -0.894678,-1.683443 -0.965564,0.185952 -1.283146,1.768131 -0.45966,2.289997 0.833943,0.528492 1.452062,0.520912 1.121619,-0.01376 z m 4.179343,84.9743172 c -0.158779,-0.25692 -0.06608,-0.46712 0.205988,-0.46712 0.272074,0 0.494678,0.2102 0.494678,0.46712 0,0.25691 -0.0927,0.46711 -0.205991,0.46711 -0.113292,0 -0.335899,-0.2102 -0.494675,-0.46711 z M 63.001313,84.63645 c -1.281094,-1.2811 -0.32394,-2.78341 1.696449,-2.66269 0.439285,0.0262 0.26978,0.18828 -0.388538,0.37139 -0.7246,0.20156 -1.167777,0.6634 -1.167777,1.21694 0,0.55355 0.443177,1.01538 1.167777,1.21694 0.978262,0.27211 1.012375,0.33238 0.210201,0.37139 -0.526669,0.0256 -1.20982,-0.20568 -1.518112,-0.51397 z m 0.627194,-0.80853 c -0.147812,-0.23916 -0.02265,-0.58694 0.278162,-0.77284 0.366606,-0.22657 0.420851,-0.13405 0.164544,0.28066 -0.277624,0.44921 -0.169449,0.53697 0.394941,0.32039 0.427511,-0.16405 0.777293,-0.0947 0.777293,0.15417 0,0.57812 -1.260038,0.59187 -1.61494,0.0176 z M 43.289226,83.31388 c 0,-0.24885 0.315299,-0.45246 0.700667,-0.45246 0.385365,0 0.700666,0.0826 0.700666,0.18358 0,0.10097 -0.315301,0.30457 -0.700666,0.45246 -0.385368,0.14787 -0.700667,0.0653 -0.700667,-0.18358 z M 55.02119,82.52186 c 0.03293,-0.78679 0.137919,-0.97508 0.267472,-0.4796 0.169545,0.64842 0.397941,0.7169 1.113591,0.3339 1.294235,-0.69265 1.109768,-0.22654 -0.267472,0.67586 -1.150728,0.75399 -1.166987,0.74625 -1.113591,-0.53016 z m -5.192411,-0.0776 c 0,-0.83683 -0.279784,-0.9842 -1.868445,-0.9842 -1.668644,0 -1.868441,-0.12171 -1.868441,-1.13818 0,-0.94267 -0.260776,-1.16333 -1.518113,-1.28456 -1.109434,-0.10697 -1.483806,-0.35493 -1.390662,-0.92111 0.08845,-0.53769 -0.514514,-1.0199 -1.970672,-1.57601 -1.83115,-0.69932 -2.037782,-0.91401 -1.623956,-1.68725 0.619175,-1.15693 0.263057,-1.66094 -1.437488,-2.03444 -1.716279,-0.37696 -2.135174,-0.98423 -1.339918,-1.94245 0.513696,-0.61896 0.445939,-0.86574 -0.433147,-1.57758 -0.573155,-0.46411 -1.302037,-0.93134 -1.619739,-1.03828 -0.456812,-0.15377 -0.455005,-0.34307 0.0086,-0.905033 0.481403,-0.583478 0.406206,-0.939524 -0.420365,-1.990337 -0.74216,-0.943503 -0.8573,-1.372041 -0.438231,-1.631039 0.425404,-0.262914 0.319742,-0.794033 -0.419971,-2.111034 -0.543611,-0.967849 -0.897071,-1.851044 -0.785467,-1.962646 0.111604,-0.111607 0.72997,0.740086 1.374148,1.892645 1.029274,1.841571 1.079811,2.130643 0.416953,2.385003 -0.483253,0.185443 -0.574307,0.406298 -0.253408,0.614648 0.275478,0.178866 0.77268,0.84066 1.104892,1.470657 0.460406,0.873101 0.471405,1.189657 0.04626,1.331369 -0.314183,0.104737 0.21754,0.862257 1.217572,1.734627 1.516602,1.323 1.656203,1.59576 0.95789,1.87161 -1.011793,0.39967 -1.073052,1.15717 -0.09358,1.15717 0.398125,0 1.347555,0.32252 2.109843,0.71672 1.156708,0.59815 1.307415,0.86352 0.911027,1.60418 -0.618903,1.15643 -0.598988,1.41562 0.108934,1.41773 0.321138,9.3e-4 1.302297,0.43971 2.180351,0.97501 1.248152,0.76091 1.451982,1.06471 0.934222,1.39243 -0.459991,0.29116 -0.127289,0.42136 1.089424,0.42633 1.578321,0.006 1.751668,0.12873 1.751668,1.23568 0,1.17923 0.08411,1.21905 2.096337,0.99224 2.041223,-0.23008 2.088681,-0.20579 1.805183,0.92376 -0.265094,1.05622 -0.204624,1.11375 0.675621,0.64265 0.531728,-0.28457 1.558641,-0.49323 2.282038,-0.46368 1.213392,0.0495 1.188635,0.0808 -0.319624,0.40405 -0.899189,0.19268 -2.002742,0.50629 -2.452335,0.69692 -0.629539,0.26692 -0.817445,0.12036 -0.817445,-0.6376 z m 3.392115,-1.77384 c 0.4343,-0.4343 0.920792,-0.65849 1.081092,-0.49819 0.459727,0.45973 -0.246022,1.28783 -1.097539,1.28783 -0.71303,0 -0.711752,-0.0614 0.01643,-0.78964 z m 19.704731,0.28183 c -0.172616,-0.2793 -0.06747,-0.75225 0.233662,-1.051 0.417687,-0.41439 0.466746,-0.3312 0.206898,0.35088 -0.256061,0.67214 -0.187041,0.79916 0.278051,0.51172 0.411638,-0.25441 0.507129,-0.20189 0.285369,0.15693 -0.4143,0.67035 -0.605427,0.67634 -1.00398,0.0315 z M 48.139187,79.52216 c 0.05984,-0.30796 0.693039,-0.63816 1.407125,-0.73379 0.880104,-0.11786 1.192966,-0.003 0.971237,0.35538 -0.179903,0.29109 -0.713694,0.42815 -1.186205,0.30459 -0.472506,-0.12356 -0.958522,-0.0315 -1.080026,0.20454 -0.121505,0.23606 -0.171964,0.17724 -0.112131,-0.13072 z M 61.16175,78.73872 c 0.04181,-0.55522 0.313606,-0.81896 0.693642,-0.67312 0.707663,0.27156 0.562518,1.14438 -0.234481,1.41005 -0.290362,0.0968 -0.496983,-0.23483 -0.459161,-0.73693 z M 44.911502,77.74358 c 0.151847,-0.2457 0.619133,-0.31507 1.038421,-0.15418 0.568591,0.21819 0.660714,0.12397 0.362481,-0.37073 -0.341302,-0.56616 -0.284133,-0.56941 0.390488,-0.0222 1.082698,0.87824 1.00844,0.99381 -0.638569,0.99381 -0.790151,0 -1.305488,-0.19969 -1.152821,-0.44671 z m -5.592722,-5.84242 -1.401333,-0.64166 1.22736,-0.0379 c 0.675048,-0.0209 1.489036,0.27735 1.808861,0.66272 0.711351,0.85712 0.211423,0.86228 -1.634888,0.0169 z M 37.423571,68.6527 c -0.498293,-0.36436 -0.769137,-0.79932 -0.601876,-0.96659 0.346008,-0.346007 2.26353,0.73352 2.26353,1.27432 0,0.54571 -0.662223,0.42307 -1.661654,-0.30773 z m -1.141013,-3.074414 c -0.274989,-0.513822 -0.314963,-0.934222 -0.08883,-0.934222 0.226132,0 0.791606,0.4204 1.256608,0.934222 0.746224,0.824568 0.756651,0.934222 0.08883,0.934222 -0.416145,0 -0.981619,-0.420399 -1.256608,-0.934222 z m -0.622814,-3.114075 c -0.171274,-0.17127 -0.311408,-0.617408 -0.311408,-0.991415 0,-0.55149 0.132423,-0.570109 0.700667,-0.09851 0.385367,0.319827 0.700667,0.765964 0.700667,0.991415 0,0.483703 -0.646317,0.54212 -1.089926,0.09851 z m -1.99777,-3.342193 c 0.130469,-0.211106 -0.07911,-0.993554 -0.46574,-1.738779 -0.584912,-1.127414 -0.597653,-1.435558 -0.07587,-1.834952 0.344898,-0.263997 0.548002,-0.900398 0.451341,-1.414221 l -0.175748,-0.934222 0.727778,0.934222 c 0.916982,1.177097 0.940404,1.634889 0.08364,1.634889 -0.663493,0 -0.667626,0.783668 -0.01497,2.839984 0.165711,0.522108 0.0648,0.896904 -0.24149,0.896904 -0.289386,0 -0.419408,-0.172723 -0.288938,-0.383825 z m 1.797301,-0.159191 c -0.317927,-0.317926 -0.578049,-0.896354 -0.578049,-1.285392 0,-0.612098 0.101642,-0.605693 0.754884,0.04755 0.415187,0.415187 0.675309,0.993611 0.57805,1.285392 -0.127708,0.383124 -0.337422,0.369914 -0.754885,-0.04755 z m -0.578049,-5.089885 c 0,-0.528985 0.2102,-0.831878 0.46711,-0.673098 0.256911,0.158781 0.467111,0.591587 0.467111,0.961791 0,0.370204 -0.2102,0.673098 -0.467111,0.673098 -0.25691,0 -0.46711,-0.432807 -0.46711,-0.961791 z m -1.81426,-1.724097 c -0.03433,-0.665947 0.214051,-1.051 0.677959,-1.051 0.509081,0 0.651396,-0.28463 0.467111,-0.934222 -0.145769,-0.513822 -0.384298,-1.354622 -0.530066,-1.868444 -0.17837,-0.62874 -0.04197,-0.934222 0.417135,-0.934222 0.742557,0 1.249231,-0.962772 1.249231,-2.373759 0,-0.49281 0.262751,-0.843469 0.583889,-0.779241 0.330811,0.06616 0.649107,-0.451951 0.734355,-1.195365 0.08276,-0.721679 0.437762,-1.422389 0.788901,-1.557133 0.351139,-0.134745 0.772551,-0.85562 0.936471,-1.601945 0.163921,-0.746324 0.450443,-1.451146 0.636718,-1.566269 0.186274,-0.115125 0.127623,0.700367 -0.130335,1.812203 -0.279891,1.20637 -0.687767,1.937577 -1.011507,1.813346 -0.331803,-0.127325 -0.661475,0.535917 -0.84886,1.707756 -0.168503,1.053761 -0.495399,1.799103 -0.726435,1.656314 -0.231036,-0.142788 -0.558972,0.372819 -0.728746,1.145795 -0.169773,0.772974 -0.592605,1.405408 -0.939625,1.405408 -0.489475,0 -0.533521,0.339699 -0.196441,1.515029 0.575444,2.006451 0.55296,2.22186 -0.231912,2.22186 -0.366529,0 -0.762545,0.36785 -0.880036,0.817444 -0.160754,0.615143 -0.227031,0.557343 -0.267807,-0.233555 z m 3.098815,-0.386283 c -0.192684,-0.194318 -0.343942,-0.896325 -0.336129,-1.560015 0.01246,-1.058679 0.07362,-1.104629 0.498535,-0.374581 0.531944,0.913921 0.398751,2.50053 -0.162406,1.934596 z M 36.56609,48.02342 c -0.376279,-0.980567 -0.359249,-1.129574 0.1291,-1.129574 0.226947,0 0.522568,0.4204 0.656936,0.934221 0.28847,1.103116 -0.374471,1.267875 -0.786036,0.195353 z m 25.923717,-1.505077 c -0.569123,-1.06341 -0.13844,-1.747411 1.352306,-2.147715 1.113732,-0.299066 1.107683,-0.279336 -0.130638,0.426333 -1.396099,0.795578 -1.303403,1.455007 0.295214,2.10001 l 1.003202,0.404769 -1.034568,0.02961 c -0.56901,0.01628 -1.237493,-0.349568 -1.485516,-0.813005 z m 3.649563,-0.02005 c 0.317646,-0.593526 0.293627,-1.030719 -0.07699,-1.401333 -0.956936,-0.956938 0.376849,-0.601251 1.726557,0.460427 1.389527,1.093003 0.988718,1.782796 -1.043818,1.796416 -0.893857,0.006 -0.992356,-0.133128 -0.605753,-0.85551 z m 1.653235,-0.03928 c 0.147815,-0.239159 0.02265,-0.586936 -0.278159,-0.772839 -0.325969,-0.201461 -0.422222,-0.136268 -0.238262,0.161383 0.169751,0.274663 0.04456,0.605846 -0.278162,0.735961 -0.419997,0.169328 -0.428662,0.247057 -0.0305,0.273452 0.305975,0.02028 0.677254,-0.158798 0.825063,-0.397957 z m -14.946811,-0.06335 c -0.502737,-0.813447 0.06984,-0.985717 0.710504,-0.213766 0.368435,0.443935 0.403871,0.711954 0.09413,0.711954 -0.273209,0 -0.635296,-0.224184 -0.804638,-0.498188 z M 38.151002,45.286559 c 0,-1.431247 0.266227,-1.546867 0.602335,-0.261588 0.134301,0.513566 0.05372,1.051472 -0.179076,1.195345 -0.232792,0.143874 -0.423259,-0.276317 -0.423259,-0.933757 z m 16.970785,0.293033 c 0.591404,-0.653499 0.639992,-0.973867 0.212524,-1.401334 -0.863944,-0.863946 -1.491612,-0.650666 -0.774838,0.26329 0.56547,0.721029 0.554376,0.749887 -0.09405,0.244669 -0.580498,-0.452292 -0.85653,-0.452292 -1.312229,0 -0.456819,0.453399 -0.512575,0.403296 -0.267528,-0.240401 0.316328,-0.830929 3.726138,-2.135285 4.239633,-1.621789 0.385567,0.385565 -1.640415,3.602742 -2.268787,3.602742 -0.275778,0 -0.156403,-0.381229 0.265279,-0.847177 z m 2.975434,0.551918 c -0.180155,-0.180155 -0.327552,-1.032729 -0.327552,-1.894606 0,-1.224645 -0.259143,-1.685125 -1.185994,-2.107425 -1.605284,-0.731416 -1.283313,-1.80799 0.879893,-2.942133 2.12664,-1.114969 2.949875,-2.336357 2.191034,-3.250705 -0.543258,-0.654586 -1.598458,-0.695606 -2.208219,-0.08584 -0.19268,0.192679 -0.04111,0.545878 0.336815,0.784886 1.062896,0.672197 1.518445,0.529486 1.176548,-0.368579 -0.235881,-0.61959 -0.179729,-0.687016 0.231987,-0.278573 0.367141,0.364222 0.39706,0.79999 0.09231,1.34454 -0.304916,0.544856 -0.556328,0.635037 -0.776636,0.278573 -0.392761,-0.635499 -1.204849,-0.699015 -1.204849,-0.09424 0,0.238074 0.36785,0.52899 0.817446,0.646481 0.615143,0.160754 0.557342,0.22703 -0.233556,0.267806 -1.229594,0.06339 -1.382714,-1.064149 -0.482562,-3.55347 0.407064,-1.12572 0.427661,-1.795152 0.07257,-2.358095 -0.607483,-0.963054 -2.543701,-1.512657 -3.295644,-0.935482 -0.64409,0.494387 -2.483587,-1.120158 -2.483587,-2.179867 0,-1.01262 0.753642,-1.275095 1.405596,-0.489534 0.400717,0.48283 0.416904,0.695523 0.05293,0.695523 -0.288367,0 -0.524303,0.222607 -0.524303,0.494678 0,0.272074 0.242678,0.344696 0.539278,0.161385 0.321874,-0.198929 0.412959,-0.128897 0.225939,0.17371 -0.172342,0.278854 -0.114242,0.63006 0.129108,0.780459 0.243345,0.150397 0.565502,0.07435 0.715904,-0.169002 0.150397,-0.243351 0.069,-0.568809 -0.180879,-0.723246 -0.249881,-0.154435 -0.321654,-0.626541 -0.159491,-1.049123 0.260471,-0.67878 0.340592,-0.663424 0.687445,0.131736 0.317172,0.72713 0.350636,0.675695 0.174162,-0.267708 -0.215786,-1.153564 -0.176072,-1.169058 3.262597,-1.273119 1.946345,-0.0589 3.481047,0.08909 3.481047,0.335674 0,0.242557 -0.351795,0.30602 -0.781761,0.141023 -0.592257,-0.227266 -0.709044,-0.110479 -0.481775,0.481772 0.164997,0.429969 0.09639,0.781761 -0.15246,0.781761 -0.248849,0 -0.452448,-0.315299 -0.452448,-0.700667 0,-0.385365 -0.210201,-0.700666 -0.467111,-0.700666 -0.256911,0 -0.467111,0.420401 -0.467111,0.934222 0,0.676507 0.311403,0.934222 1.128849,0.934222 0.620868,0 1.234873,-0.26275 1.364453,-0.583887 0.169884,-0.421011 0.245893,-0.428702 0.272486,-0.02757 0.05973,0.901168 -0.843419,1.192654 -2.647001,0.854299 -1.229278,-0.230613 -1.508717,-0.428312 -1.026586,-0.726288 0.485936,-0.300323 0.372073,-0.387549 -0.427294,-0.327332 -1.074369,0.08093 -1.069871,0.09986 0.318585,1.340439 0.774586,0.692094 1.306192,1.360503 1.181345,1.485349 -0.124848,0.124846 0.02966,0.385622 0.343366,0.579498 0.364471,0.225256 0.450048,0.157829 0.237067,-0.186782 -0.421979,-0.682773 0.542313,-0.693174 2.4548,-0.02647 1.567677,0.546494 2.042106,2.100039 0.788259,2.581186 -0.564681,0.216689 -0.51159,0.493548 0.306962,1.600698 0.824129,1.114689 0.888925,1.460165 0.387249,2.064648 -0.42926,0.517225 -0.770453,0.586567 -1.186634,0.241165 -0.41765,-0.346617 -0.658775,-0.290292 -0.846005,0.197616 -0.144029,0.375326 -0.03769,0.757137 0.236312,0.84847 0.274003,0.09133 0.560044,0.945714 0.635654,1.898623 0.114569,1.443956 -0.01167,1.732563 -0.757976,1.732563 -0.492498,0 -0.895447,-0.203603 -0.895447,-0.452451 0,-0.248848 0.36785,-0.334119 0.817445,-0.189491 0.701755,0.225743 0.71828,0.185581 0.116777,-0.283778 -0.529331,-0.41304 -0.55789,-0.604671 -0.116777,-0.783656 0.703866,-0.285604 0.779018,-1.09329 0.101722,-1.09329 -0.265189,0 -0.690083,0.47295 -0.94421,1.051 -0.432731,0.984326 -0.450702,0.96951 -0.283279,-0.233556 0.09832,-0.706505 -0.02617,-1.284555 -0.276603,-1.284555 -0.274994,0 -0.330515,0.832635 -0.140158,2.102 0.200139,1.334638 0.139592,2.101999 -0.165861,2.101999 -0.264592,0 -0.359162,-0.317683 -0.210167,-0.705964 0.193847,-0.505155 0.05681,-0.623807 -0.481769,-0.417135 -0.413972,0.158855 -0.752676,0.699145 -0.752676,1.200643 0,0.570281 0.201994,0.786973 0.539279,0.578517 0.334126,-0.2065 0.412493,-0.128136 0.205991,0.205989 -0.183311,0.296606 -0.128206,0.539283 0.12246,0.539283 0.250661,0 0.562602,-0.215455 0.693198,-0.478788 0.130598,-0.263334 0.183247,-0.210784 0.116996,0.116777 -0.137047,0.677608 -1.32484,1.026507 -1.817483,0.533863 z m -0.561107,-4.375851 c -0.158779,-0.256911 0.04643,-0.467111 0.455975,-0.467111 0.625294,0 0.655393,-0.166813 0.187769,-1.040581 -0.540946,-1.010764 -0.567245,-1.014111 -0.917826,-0.116778 -0.219355,0.561452 -0.3738,0.658136 -0.393755,0.246492 -0.02649,-0.546192 -0.145865,-0.562711 -0.616717,-0.08533 -0.46799,0.474473 -0.403908,0.724818 0.322834,1.2612 1.065508,0.786416 1.361248,0.848568 0.96172,0.202108 z m 3.66421,-3.885942 c -0.176805,-0.303387 0.114194,-0.17007 0.646673,0.296261 0.659693,0.577739 1.070144,0.682837 1.288288,0.329871 0.335811,-0.54335 -0.651354,-2.07727 -1.068422,-1.660197 -0.13244,0.132436 -0.563234,-0.02014 -0.957325,-0.339045 -0.583226,-0.471959 -0.645269,-0.461489 -0.33347,0.05628 0.23069,0.383083 0.14965,0.780372 -0.203732,0.998776 -0.322741,0.199464 -0.440248,0.599791 -0.261125,0.889616 0.431998,0.698987 1.303183,0.13895 0.889113,-0.571559 z m -0.800012,-3.564438 c 1.740629,0.661785 2.596143,0.546196 2.42505,-0.327655 -0.164049,-0.837871 -2.253026,-1.400264 -2.253026,-0.606557 0,0.266563 -0.346046,0.422892 -0.768987,0.347403 -0.422939,-0.07549 -0.827574,0.130749 -0.899189,0.458311 -0.07161,0.327562 -0.02686,0.390642 0.09944,0.140174 0.147177,-0.291849 0.648772,-0.296042 1.396709,-0.01167 z m 3.675357,11.654379 c -0.158782,-0.256911 -0.06609,-0.467111 0.205986,-0.467111 0.272073,0 0.49468,0.2102 0.49468,0.467111 0,0.256911 -0.09269,0.467111 -0.205986,0.467111 -0.113294,0 -0.335901,-0.2102 -0.49468,-0.467111 z M 39.352413,42.842644 c -0.163798,-0.426851 -0.04979,-1.003694 0.253357,-1.281872 0.410276,-0.376487 0.480602,-0.30453 0.275111,0.281485 -0.151834,0.432996 -0.03548,0.867462 0.258577,0.965479 0.38209,0.127364 0.38857,0.268491 0.0227,0.494607 -0.281565,0.174016 -0.645954,-0.03285 -0.809751,-0.459699 z m 4.446049,-0.467258 c -0.04747,-1.144012 1.880051,-3.651092 3.394811,-4.415542 0.550336,-0.277737 0.214966,0.160561 -0.745275,0.973997 -0.960236,0.813436 -1.939729,2.148965 -2.17665,2.96784 -0.320394,1.107415 -0.441549,1.228779 -0.472886,0.473705 z m 3.737092,0.08094 c -0.04171,-1.049446 0.872413,-4.613335 1.119483,-4.364579 0.08772,0.08832 -0.119925,1.316679 -0.461436,2.72969 -0.34151,1.413011 -0.637629,2.148711 -0.658047,1.634889 z m -23.864994,0.04998 c 0,-0.100968 0.326218,-0.308761 0.724928,-0.46176 0.415693,-0.159517 0.603191,-0.08121 0.439543,0.18358 -0.274314,0.44385 -1.164471,0.6565 -1.164471,0.27818 z m 8.249832,-1.890399 c -0.172286,-0.448968 -0.582791,-0.603923 -1.108707,-0.418508 -0.684653,0.241379 -0.729319,0.180445 -0.2479,-0.338189 0.491801,-0.529819 0.714998,-0.504845 1.373528,0.153685 0.432467,0.432467 0.667134,0.905474 0.521481,1.051127 -0.145653,0.145652 -0.387934,-0.056 -0.538402,-0.448115 z m 9.04043,-0.378354 c 0.0039,-0.321139 0.210916,-0.899188 0.459957,-1.284555 0.352848,-0.545994 0.454385,-0.417101 0.45996,0.583889 0.0039,0.706505 -0.203049,1.284555 -0.45996,1.284555 -0.25691,0 -0.463891,-0.26275 -0.459957,-0.583889 z m -0.924824,-1.074355 c 0.0091,-0.244065 0.333174,-0.969255 0.720153,-1.611533 l 0.703599,-1.167778 -0.305541,1.167778 c -0.318786,1.218395 -1.148127,2.413621 -1.118211,1.611533 z m 3.720339,-0.872663 c 0,-1.115546 0.541639,-2.149277 0.983165,-1.876397 0.229992,0.142142 0.418168,0.46864 0.418168,0.725551 0,0.256911 -0.232719,0.323282 -0.517159,0.147492 -0.348006,-0.215083 -0.414102,0.0051 -0.202076,0.673099 0.186934,0.588977 0.112297,0.992718 -0.183515,0.992718 -0.274222,0 -0.498583,-0.298108 -0.498583,-0.662463 z m 7.782276,-0.945557 c -0.181311,-0.472491 -0.109852,-0.659903 0.182682,-0.479108 0.660288,0.408082 -0.0091,-2.243978 -0.679887,-2.693613 -0.281577,-0.188748 -0.879813,-0.3464 -1.329406,-0.350335 -0.449596,-0.0039 -0.817446,-0.337753 -0.817446,-0.741825 0,-0.544822 -0.443351,-0.369226 -1.715647,0.679505 -1.549397,1.277144 -1.770157,1.339621 -2.278263,0.644753 -0.49595,-0.678257 -0.666268,-0.570352 -1.437351,0.910647 -0.78932,1.516019 -0.941664,1.607342 -1.560104,0.935228 -0.604295,-0.656741 -0.60012,-0.712135 0.03529,-0.468305 0.493414,0.189339 0.997103,-0.236795 1.597355,-1.351393 0.784026,-1.455853 0.937519,-1.544758 1.45207,-0.841065 0.528481,0.722741 0.708017,0.685694 2.202999,-0.454585 1.273966,-0.971701 1.71201,-1.106696 2.015973,-0.621279 0.21359,0.341096 0.938607,0.86133 1.611153,1.156078 1.282874,0.562229 2.031047,2.640931 1.373584,3.816329 -0.284625,0.508841 -0.414374,0.480817 -0.653002,-0.141038 z m -2.527278,-0.436709 c 0.449593,-0.453571 0.817444,-0.937248 0.817444,-1.074839 0,-0.137592 -0.367851,-0.110124 -0.817444,0.06104 -0.619595,0.235881 -0.687016,0.179732 -0.278577,-0.231984 0.390613,-0.39374 0.776163,-0.405262 1.401334,-0.04188 0.652666,0.379366 0.692025,0.506506 0.161798,0.522668 -0.622816,0.01898 -0.622816,0.07167 0,0.474163 0.401991,0.259788 0.468055,0.455854 0.154979,0.459958 -0.300124,0.0039 -0.930724,0.153041 -1.401333,0.331349 -0.815104,0.308836 -0.816917,0.285124 -0.03821,-0.500476 z m -2.495181,-0.677883 c 0.610201,-1.140168 1.44418,-1.741812 1.44418,-1.04185 0,0.272073 -0.210198,0.494679 -0.467111,0.494679 -0.25691,0 -0.414559,0.236475 -0.350332,0.5255 0.06423,0.289025 -0.166386,0.628645 -0.512471,0.754712 -0.49839,0.181545 -0.522152,0.0291 -0.114266,-0.733041 z m 8.426219,-2.713954 c -0.257744,-0.677907 -0.367869,-1.333312 -0.244729,-1.456451 0.12314,-0.12314 0.362005,0.326411 0.53082,0.999005 0.329105,1.311251 1.606983,1.704609 1.606983,0.494662 0,-0.431517 -0.219733,-0.592433 -0.539284,-0.394938 -0.347633,0.214847 -0.411898,0.127177 -0.180837,-0.246689 0.499207,-0.807731 1.395488,0.1534 1.030358,1.104907 -0.438795,1.143483 -1.685985,0.860175 -2.203311,-0.500496 z M 47.373169,29.260439 C 46.465754,28.553933 45.406,27.765684 45.018161,27.508771 c -0.622027,-0.412043 -0.602559,-0.701148 0.165129,-2.452332 0.621178,-1.416967 1.147384,-1.98522 1.838329,-1.98522 1.211945,0 1.681085,1.134649 1.024628,2.478123 -0.435176,0.890598 -0.466037,0.825878 -0.235042,-0.492903 0.206623,-1.179654 0.102825,-1.518112 -0.465582,-1.518112 -0.40232,0 -0.859912,0.207793 -1.01687,0.461761 -0.156962,0.253968 -0.01172,0.39352 0.322765,0.310113 0.334481,-0.0834 0.449188,-0.06305 0.254902,0.04525 -0.194281,0.108292 -0.206481,0.44169 -0.02709,0.740886 0.179374,0.299196 -0.02952,0.255506 -0.464198,-0.09709 -0.678402,-0.550275 -0.790349,-0.538192 -0.790349,0.0853 0,0.399513 0.423449,0.860785 0.941003,1.025049 0.537186,0.170497 0.811582,0.534796 0.639418,0.84892 -0.165875,0.302644 0.690824,-0.460327 1.903782,-1.695486 2.642107,-2.690483 4.223986,-2.875064 4.221745,-0.492609 l -0.0013,1.465643 1.735904,-0.998532 c 1.660281,-0.955032 1.771922,-0.96254 2.562571,-0.172323 0.897434,0.896934 0.468458,2.226661 -0.825759,2.559655 -0.386892,0.09954 -0.3238,-0.04574 0.150154,-0.345742 1.795342,-1.136432 0.405084,-2.901607 -1.487553,-1.888703 -0.836745,0.447817 -0.897938,0.670446 -0.427136,1.554082 0.514837,0.966274 0.494803,0.987152 -0.31728,0.330719 -0.47675,-0.385366 -0.735229,-0.480431 -0.574407,-0.211252 0.160816,0.269177 0.108902,0.786318 -0.115377,1.149204 -0.339736,0.549743 -0.574085,0.509257 -1.405043,-0.242749 -0.548515,-0.496398 -0.956852,-0.698241 -0.907422,-0.448538 0.205491,1.038077 -0.07305,1.102376 -0.954982,0.220446 -0.513823,-0.513821 -1.134871,-0.934222 -1.380103,-0.934222 -0.245234,0 0.08847,0.534344 0.741553,1.18743 0.960855,0.960858 1.079587,1.317376 0.622239,1.868445 -0.80985,0.975809 -1.504714,0.851495 -3.373523,-0.603541 z m 3.097888,0.444807 c 0.398116,-0.644163 -0.500406,-1.638625 -1.129339,-1.249923 -0.364048,0.224994 -0.474972,0.177014 -0.288465,-0.124767 0.166675,-0.269684 -0.02196,-0.615055 -0.419195,-0.767487 -0.397234,-0.152434 -0.602802,-0.08388 -0.456811,0.152334 0.145992,0.236214 0.04838,0.563631 -0.216913,0.72759 -0.265295,0.16396 -0.359296,0.497213 -0.208899,0.740563 0.1504,0.243351 0.469127,0.321519 0.708284,0.173713 0.239162,-0.14781 0.434837,-0.04614 0.434837,0.225935 0,0.575445 1.237094,0.671213 1.576501,0.122042 z m 2.497083,-5.206403 c 0.05209,-0.691496 -0.173577,-0.908261 -0.839734,-0.806597 -1.508794,0.230259 -1.989774,1.008287 -1.303083,2.107852 0.529005,0.847069 0.699384,0.886198 1.338863,0.307475 0.403,-0.36471 0.764777,-1.088636 0.803954,-1.60873 z m -1.582324,0.207262 c 0,-0.299728 0.245232,-0.544962 0.544965,-0.544962 0.299725,0 0.544959,0.245234 0.544959,0.544962 0,0.29973 -0.245234,0.544964 -0.544959,0.544964 -0.299733,0 -0.544965,-0.245234 -0.544965,-0.544964 z m 4.797076,1.712742 c -0.132312,-0.214093 0.05623,-0.38926 0.419,-0.38926 0.362764,0 0.551312,0.175167 0.418994,0.38926 -0.132313,0.214093 -0.320863,0.389258 -0.418994,0.389258 -0.09813,0 -0.286679,-0.175165 -0.419,-0.389258 z"
     style="fill:#000000;stroke-width:0.46711102" />
</svg>
