<?xml version="1.0" encoding="UTF-8" standalone="no"?>
<svg
   xmlns:dc="http://purl.org/dc/elements/1.1/"
   xmlns:cc="http://creativecommons.org/ns#"
   xmlns:rdf="http://www.w3.org/1999/02/22-rdf-syntax-ns#"
   xmlns:svg="http://www.w3.org/2000/svg"
   xmlns="http://www.w3.org/2000/svg"
   id="svgGL3"
   version="1.1"
   viewBox="0 0 100 100"
   height="100"
   width="100">
  <defs
     id="defs2" />
  <metadata
     id="metadata5">
    <rdf:RDF>
      <cc:Work
         rdf:about="">
        <dc:format>image/svg+xml</dc:format>
        <dc:type
           rdf:resource="http://purl.org/dc/dcmitype/StillImage" />
        <dc:title></dc:title>
      </cc:Work>
    </rdf:RDF>
  </metadata>
  <path
     id="pathGL3"
     d="m 63.652254,85.744344 c -3.93824,-1.849669 -8.214908,-6.764367 -8.910608,-10.23996 -0.274753,-1.372659 -1.046176,-3.70151 -1.714259,-5.175224 -1.317661,-2.906593 -0.930589,-6.621175 1.009326,-9.686118 0.626626,-0.990031 1.139323,-3.153935 1.139323,-4.808675 0,-1.654741 0.256743,-2.751874 0.570547,-2.438075 0.313797,0.313799 0.484739,1.84458 0.379872,3.401732 -0.129598,1.924399 0.208279,2.984279 1.054919,3.309168 0.68508,0.262888 1.2456,1.013569 1.2456,1.668179 0,1.005285 -0.19959,0.990615 -1.28463,-0.09442 -1.29451,-1.294517 -2.779042,-1.053217 -2.779042,0.451715 0,0.447004 0.361545,0.589289 0.803428,0.31619 0.460064,-0.284335 0.597335,0.04051 0.321201,0.760102 -0.26522,0.691153 -0.809621,1.054295 -1.209787,0.806979 -0.400166,-0.247314 -0.727576,0.120517 -0.727576,0.817403 0,0.696886 0.457163,1.272666 1.015917,1.279511 0.747391,0.0092 0.724406,0.197158 -0.08697,0.711268 -1.40486,0.890156 -0.529041,3.874561 1.447471,4.932357 1.087408,0.581964 1.911848,0.351005 3.272688,-0.91681 1.57449,-1.466853 1.74373,-2.197437 1.25853,-5.432949 -0.30832,-2.056009 -1.23742,-5.064912 -2.06467,-6.686452 -1.15512,-2.264234 -1.28173,-3.17061 -0.54568,-3.906652 0.52712,-0.527119 0.9584,-3.096364 0.9584,-5.709433 0,-3.347094 0.28665,-4.641037 0.97004,-4.378793 1.3427,0.515243 2.31635,-6.402583 1.19582,-8.496325 -0.47437,-0.886357 -0.63377,-1.84027 -0.35424,-2.119804 0.27953,-0.279535 -0.15817,-1.244626 -0.97268,-2.144647 -1.45846,-1.61158 -1.4429,-1.628799 1.02549,-1.135121 2.44981,0.489963 2.51885,0.418328 3.05728,-3.172134 0.49463,-3.298466 0.0564,-6.599246 -1.69399,-12.759189 -0.51901,-1.826498 -0.23247,-1.703294 2.8354,1.2191 6.0468,5.760065 8.96924,12.585352 8.9899,20.995627 0.007,2.705294 0.3153,3.826332 0.99144,3.60095 1.66347,-0.554488 4.04803,-8.808967 3.75688,-13.004948 -0.3003,-4.327979 -0.0312,-4.623807 1.83401,-2.016464 4.72805,6.6091 5.3342,18.820733 1.31842,26.560991 -1.88421,3.631713 -1.95196,4.017567 -0.5762,3.281282 2.72113,-1.456307 5.57949,-6.002597 6.85653,-10.905485 0.68001,-2.610714 1.0396,-5.065131 0.79911,-5.45426 -0.2405,-0.38913 -0.1055,-0.707509 0.3,-0.707509 1.55782,0 3.82821,6.901246 3.74446,11.381939 -0.13033,6.972515 -2.55927,11.559025 -7.94655,15.005223 -2.46868,1.579193 -5.31068,2.871261 -6.31556,2.871261 -1.40974,0 -1.60675,0.220308 -0.86251,0.964542 1.74659,1.746594 9.59024,-1.39865 13.67527,-5.483685 3.24533,-3.245323 3.56543,-3.396247 3.56543,-1.681077 0,3.595952 -5.06674,12.143915 -8.67974,14.643376 -4.27194,2.955307 -10.20972,3.715774 -13.94223,1.785618 -3.60514,-1.864294 -3.20218,-2.251394 0.85394,-0.820314 7.42263,2.618856 15.27482,-1.76978 18.96392,-10.599059 l 1.21603,-2.910353 -3.23073,2.340327 c -3.72209,2.696265 -9.64788,4.574751 -12.63188,4.004322 -1.43661,-0.274623 -2.05493,-0.03696 -2.05493,0.78984 0,0.958051 0.81036,1.073229 4.26685,0.606457 2.34677,-0.316914 4.90689,-0.912696 5.68914,-1.323962 1.65312,-0.869112 1.80833,-0.0468 0.35238,1.866778 -2.32705,3.058441 -10.2502,4.902774 -13.5274,3.148873 -2.11274,-1.130707 -3.94699,1.04795 -2.42563,2.88108 2.97523,3.584932 11.11628,4.731829 15.19428,2.140549 2.04276,-1.29803 2.51869,-0.121276 0.59624,1.47421 -3.66732,3.043616 -14.19661,0.806777 -17.10636,-3.634057 -0.96431,-1.471708 -1.67187,-1.886186 -2.24373,-1.314326 -1.08383,1.083824 1.16469,3.627121 4.38659,4.961679 3.5332,1.463499 2.95937,2.705673 -1.00431,2.174031 -4.245,-0.569377 -7.11428,-2.65625 -9.26377,-6.737698 -1.02406,-1.944475 -2.35799,-3.281428 -3.43047,-3.438257 -1.643642,-0.240348 -1.697836,-0.08583 -0.855185,2.438202 1.081845,3.240514 4.266115,6.849386 7.560865,8.569066 3.13894,1.638358 11.16695,1.524584 14.82246,-0.210075 1.54506,-0.733176 3.01851,-1.123727 3.27434,-0.867894 0.85511,0.85511 -5.42852,2.945624 -10.15173,3.377405 -3.56712,0.326093 -5.44865,0.06022 -7.97669,-1.127124 z m 3.59739,-5.217914 c -1.58028,-1.452762 -3.03715,-3.140294 -3.23749,-3.75007 -0.20034,-0.609778 -1.05894,-0.974902 -1.908,-0.811388 -1.38083,0.265925 -1.26623,0.613368 1.08589,3.292292 1.4463,1.647249 3.43497,3.151189 4.41924,3.342092 0.98428,0.190903 1.9525,0.396907 2.1516,0.457781 0.19911,0.06087 -0.93095,-1.077945 -2.51124,-2.530707 z m 4.05666,-7.835566 c 4.1854,-2.980267 8.96722,-15.561368 6.32887,-16.651443 -0.65912,-0.272328 -0.6304,-0.586914 0.10084,-1.104288 1.31496,-0.930382 -0.32657,-6.722919 -3.38331,-11.938862 -2.04385,-3.487577 -7.0552,-8.172252 -10.84615,-10.139119 -1.59088,-0.825408 -1.82865,-0.74586 -1.82865,0.611824 0,0.858325 0.91433,2.159679 2.03184,2.8919 1.17889,0.77244 2.03183,0.962132 2.03183,0.451874 0,-0.48369 0.40478,-0.629269 0.8995,-0.323511 0.64755,0.400205 0.6316,0.721502 -0.057,1.147047 -0.67776,0.418882 -0.32425,1.514151 1.21324,3.758895 1.96937,2.875282 2.13453,3.693064 1.78871,8.856909 -0.35091,5.239888 -0.10808,5.375828 1.45179,0.812734 1.03799,-3.036435 2.20108,1.964792 1.77106,7.615485 -0.54224,7.125586 -3.25956,10.512459 -9.50554,11.847754 -1.11751,0.238906 -2.58044,0.810288 -3.25094,1.269737 -1.05454,0.722601 -0.99969,1.006448 0.40637,2.102809 2.16771,1.690255 7.63037,1.081043 10.84749,-1.209745 z m -8.20611,0.185885 c 0.55875,-0.225462 1.47308,-0.225462 2.03183,0 0.55876,0.225463 0.10159,0.409932 -1.01591,0.409932 -1.11751,0 -1.57468,-0.184469 -1.01592,-0.409932 z m 7.54483,-3.322228 c -0.0149,-0.558754 0.2828,-1.015917 0.6615,-1.015917 0.37869,0 1.0854,-0.822893 1.57046,-1.828652 0.48506,-1.005758 0.90668,-1.412005 0.93693,-0.902772 0.0302,0.509234 -0.66429,1.78929 -1.54343,2.844569 -0.87913,1.055279 -1.61059,1.461527 -1.62546,0.902772 z m 3.22389,-5.892321 c 0,-0.447004 0.36573,-0.812734 0.81274,-0.812734 0.447,0 0.81273,0.36573 0.81273,0.812734 0,0.447004 -0.36573,0.812734 -0.81273,0.812734 -0.44701,0 -0.81274,-0.36573 -0.81274,-0.812734 z m 1.68964,-5.350498 c 0.039,-0.946789 0.23158,-1.139372 0.49102,-0.491027 0.23477,0.586692 0.2059,1.287675 -0.0641,1.55774 -0.27007,0.270064 -0.46215,-0.209957 -0.42686,-1.066713 z m -2.23962,-9.346418 c -0.62466,-2.340272 -0.62866,-3.061504 -0.0136,-2.446429 0.47971,0.479717 0.95029,1.333077 1.04573,1.896356 0.0954,0.56328 0.43085,1.664173 0.74537,2.446429 0.31451,0.782257 0.24254,1.422285 -0.15994,1.422285 -0.40248,0 -1.13039,-1.493389 -1.61758,-3.318641 z m -3.70914,-7.336673 c -1.22502,-1.73864 -1.89487,-3.161164 -1.48857,-3.161164 0.79433,0 4.50395,5.592952 4.01175,6.048482 -0.16274,0.150615 -1.29817,-1.148678 -2.52318,-2.887318 z m 9.60218,32.499168 c 5.32907,-1.341876 5.01492,-2.077288 -0.71753,-1.679656 -5.56624,0.386104 -5.83628,0.478095 -5.06531,1.725546 0.67244,1.088044 1.29934,1.083069 5.78284,-0.04589 z m -14.65435,-9.758637 c 1.78261,-5.366946 1.12043,-10.543156 -1.84634,-14.432799 l -2.21321,-2.901666 -0.60122,3.521814 c -0.33067,1.936998 -0.83585,4.26107 -1.12263,5.164604 -0.31165,0.981956 -0.20166,1.445185 0.27344,1.151557 0.43715,-0.270178 1.04229,-1.687466 1.34474,-3.149531 0.53209,-2.572117 0.58988,-2.605601 1.78264,-1.032829 1.23543,1.629046 1.20474,4.354971 -0.14984,13.313959 -0.71785,4.747692 0.72094,3.818704 2.53242,-1.635109 z m 2.71653,3.655407 c 2.54023,-1.779242 4.93727,-7.272976 4.91761,-11.270588 l -0.016,-3.250936 -2.85621,3.235776 c -1.57093,1.779676 -2.47329,3.363419 -2.00526,3.519429 0.51211,0.170703 0.3684,0.766202 -0.36089,1.495497 -0.66652,0.666514 -1.21185,1.812687 -1.21185,2.547049 0,2.269506 2.60075,-0.895787 2.88829,-3.515254 0.13307,-1.212269 0.68459,-2.615297 1.2256,-3.117842 0.75793,-0.704043 0.86758,-0.447463 0.47781,1.118116 -0.2782,1.117509 -0.51082,2.459284 -0.51693,2.981723 -0.006,0.522439 -1.29116,2.15727 -2.85567,3.632958 -3.95097,3.726661 -3.74325,5.465515 0.31348,2.624072 z m 18.78577,-5.078605 c 3.3917,-2.4797 4.96622,-6.101931 5.41908,-12.466793 0.30626,-4.304539 0.11644,-6.317543 -0.69681,-7.389483 -1.05393,-1.389172 -1.12579,-1.366417 -1.25875,0.398586 -0.31327,4.158789 -2.88175,8.86663 -6.54642,11.999091 -2.07227,1.771317 -3.49737,3.490967 -3.16689,3.821444 0.33048,0.330477 2.64992,-1.38922 5.15431,-3.821549 l 4.55344,-4.422416 -0.50324,2.709783 c -0.70771,3.810807 -3.27637,7.093083 -7.47787,9.555318 -1.9823,1.161709 -3.60419,2.448084 -3.60419,2.858611 0,0.91899 5.36041,-1.219672 8.12734,-3.242592 z m -0.32339,-4.425688 c 3.0466,-3.59143 2.28506,-4.447163 -1.09889,-1.234786 -1.67627,1.591276 -3.68778,3.116943 -4.47004,3.390371 -0.78226,0.273428 -1.42228,1.077893 -1.42228,1.787699 0,1.140736 0.29268,1.12011 2.52117,-0.177676 1.38664,-0.807528 3.39816,-2.502052 4.47004,-3.765608 z m -23.24589,0.217575 c 0,-3.355952 -1.16457,-4.310028 -2.0099,-1.646619 -0.62728,1.976371 0.32176,5.892915 1.28387,5.298305 0.39932,-0.246793 0.72603,-1.890052 0.72603,-3.651686 z m 6.21572,-10.781697 c -0.44755,-3.778919 -3.77067,-10.301421 -5.24841,-10.301421 -0.34929,0 -0.72479,1.332049 -0.83444,2.96011 -0.10964,1.62806 -0.55111,3.617381 -0.98104,4.420713 -0.51945,0.970597 -0.49016,1.640783 0.0873,1.997678 1.32073,0.816252 1.74029,-0.02381 1.81991,-3.643816 0.04,-1.81644 0.32242,-3.02694 0.62771,-2.69 1.19724,1.321347 2.46564,6.773667 1.95216,8.391489 -0.2983,0.939888 -0.29116,3.047989 0.0159,4.68467 l 0.55826,2.975785 1.24153,-2.36953 c 0.87234,-1.664921 1.09867,-3.575675 0.76113,-6.425678 z m 13.7372,-1.138756 c 1.27403,-6.139611 0.9187,-12.835496 -0.89594,-16.883637 l -1.45729,-3.250936 -0.53239,4.876404 c -0.5199,4.762023 -1.86404,8.407401 -3.49092,9.467598 -1.11216,0.724768 0.006,3.370437 1.13062,2.675335 0.4961,-0.306609 1.78725,-2.432739 2.86922,-4.724734 l 1.96723,-4.167264 -0.51013,5.644044 c -0.28058,3.104225 -1.05088,6.469323 -1.71179,7.477996 -0.71882,1.097053 -0.97885,2.53594 -0.64715,3.581025 0.8384,2.641557 2.14401,0.771536 3.27854,-4.695831 z m -16.75911,-0.425775 c 0.0315,-0.335252 -0.26595,-0.60955 -0.66082,-0.60955 -0.88164,0 -1.73288,2.9674 -1.04777,3.652508 0.44929,0.449292 1.56804,-1.543174 1.70859,-3.042958 z m 14.65753,-3.404185 c 0.0271,-1.484381 -0.0681,-1.471555 -1.64556,0.221683 -1.15375,1.238405 -1.50191,2.340577 -1.11973,3.544726 0.55239,1.740404 0.55908,1.739504 1.64557,-0.221684 0.60001,-1.083055 1.10389,-2.678182 1.11972,-3.544725 z m -7.79755,-8.380457 c -0.8914,-7.159483 -4.33605,-15.0243 -7.86208,-17.950643 -1.14905,-0.953624 -1.19214,-0.74411 -0.42041,2.043766 0.47294,1.708474 0.64852,5.379766 0.39018,8.158424 -0.25835,2.77866 -0.14418,5.253304 0.25371,5.499212 1.19574,0.73901 1.83603,-1.124175 1.83603,-5.342673 0,-5.062427 1.01408,-5.122813 2.1673,-0.129059 0.97836,4.236617 0.93048,7.634977 -0.0986,6.99896 -0.36151,-0.223422 -0.44686,-0.74668 -0.18969,-1.162797 0.25718,-0.416116 0.20005,-1.189463 -0.12694,-1.718547 -0.41085,-0.66477 -0.7564,-0.500526 -1.11846,0.531622 -0.37402,1.066257 0.30556,2.26533 2.37523,4.190916 1.59452,1.483528 2.98357,2.70722 3.08677,2.719314 0.1032,0.01209 -0.0287,-1.715228 -0.29302,-3.838495 z m -49.47139,51.26469 c -2.976216,-0.656494 -6.969625,-3.086999 -8.230581,-5.009367 -1.614334,-2.461108 -1.001695,-2.973406 2.21487,-1.852107 4.071188,1.41922 8.90385,1.054652 13.330316,-1.005631 3.692462,-1.718642 3.893069,-1.946544 2.196016,-2.494892 -1.127986,-0.364473 -2.336009,-0.214771 -3.050256,0.378001 -0.656868,0.545151 -3.534279,0.981472 -6.472548,0.981472 -7.556256,0 -10.988147,-2.399284 -14.6108709,-10.214651 -2.888794,-6.232049 -4.286446,-11.93235 -2.925683,-11.93235 0.446286,0 1.404107,1.248974 2.128489,2.775497 1.201045,2.531016 6.3616289,6.977311 8.0981969,6.977311 0.394859,0 -0.278085,-1.039609 -1.49543,-2.310241 -2.593206,-2.706728 -5.4053619,-9.614138 -5.4053619,-13.277033 0,-4.298764 1.7446849,-12.880665 2.5210679,-12.400834 0.401424,0.248096 0.729866,1.358395 0.729866,2.467331 0,2.522773 2.516103,7.538844 4.832264,9.633567 l 1.754303,1.58657 -0.864196,-2.272999 c -2.359399,-6.205701 -0.618995,-18.495179 3.493301,-24.667056 2.173169,-3.261578 4.12252,-3.632418 2.955223,-0.562195 -1.192566,3.13669 -0.952972,9.876894 0.447353,12.584828 1.288614,2.491901 2.306246,3.300278 1.495763,1.188186 -0.804712,-2.097039 1.46332,-9.61516 4.048342,-13.419556 3.0577,-4.500032 3.613049,-5.072297 7.447764,-7.674604 4.615679,-3.132285 5.593658,-2.741937 3.447227,1.375916 -1.189436,2.281875 -1.90808,5.358292 -2.117562,9.064928 -0.294917,5.218388 -0.210717,5.568448 1.203952,5.005125 1.785796,-0.711102 5.178359,-1.187086 5.178359,-0.726534 0,0.175689 -1.216753,1.387759 -2.703893,2.693489 -2.401751,2.108762 -2.724739,2.889086 -2.890367,6.983009 l -0.186465,4.608955 2.180427,-0.547252 c 1.874384,-0.470441 2.097853,-0.34183 1.592146,0.916317 -1.147117,2.8539 -1.288362,5.70779 -0.397939,8.040482 0.868414,2.275028 0.945258,2.304324 2.060443,0.785538 1.215631,-1.655591 1.442326,-1.295434 1.178245,1.871908 -0.08804,1.055865 0.312285,4.29615 0.889603,7.200634 0.935977,4.70887 0.89955,5.542448 -0.336261,7.695733 -0.762264,1.32817 -1.385939,3.064084 -1.385939,3.857586 0,0.793502 -1.253797,3.084775 -2.786207,5.091715 -4.302256,5.634498 -12.069936,8.256232 -19.563977,6.603204 z m 13.075548,-2.747464 c 4.416982,-2.126437 10.528424,-10.521914 7.659367,-10.521914 -0.441395,0 -1.713291,1.442719 -2.826428,3.206043 -2.384683,3.777585 -7.584815,7.054325 -12.422533,7.827756 -4.672367,0.746992 -4.453449,-0.663013 0.402563,-2.592857 5.586035,-2.219973 5.68952,-2.229691 3.457923,-0.324736 l -2.031835,1.734447 2.844569,-1.366035 c 3.62711,-1.741819 5.776174,-3.622609 5.201611,-4.552273 -0.247063,-0.399751 0.393542,-1.409235 1.423569,-2.243297 l 1.872775,-1.516478 -3.233064,-3.667033 c -1.778181,-2.016868 -3.864648,-3.701482 -4.636607,-3.743587 -1.613618,-0.08801 -3.520861,-2.724038 -4.318649,-5.968876 -0.662443,-2.69431 0.106152,-2.831457 2.622067,-0.46788 1.252708,1.176856 1.881032,1.399743 1.881032,0.667259 0,-0.604934 -1.280056,-2.272366 -2.844569,-3.705404 l -2.844569,-2.605524 v 3.372586 c 0,5.397018 3.423382,10.826075 8.036875,12.745476 1.067753,0.444229 1.719509,1.02955 1.44834,1.300713 -0.27116,0.271163 -1.651028,0.01336 -3.066372,-0.572892 -2.707899,-1.121652 -7.231576,-7.300485 -7.231576,-9.877535 0,-0.806492 -0.548596,-1.46635 -1.219101,-1.46635 -0.670506,0 -1.219101,-0.387315 -1.219101,-0.860699 0,-0.473384 0.417257,-0.602821 0.92724,-0.287637 0.675707,0.417615 0.820536,-1.089403 0.533909,-5.555685 -0.255548,-3.982053 -0.03414,-6.941543 0.632226,-8.449253 0.909417,-2.057743 1.033017,-2.118869 1.09155,-0.53982 0.03633,0.979378 -0.29972,2.00672 -0.746723,2.282984 -1.132903,0.700175 -1.021298,2.889298 0.13467,2.641385 0.521068,-0.111751 1.194166,0.925933 1.495771,2.305962 1.272506,5.822508 3.092323,5.913728 2.638119,0.13224 -0.427946,-5.447266 1.18065,-9.306608 6.047837,-14.510029 2.047383,-2.188817 3.265102,-3.979668 2.706039,-3.979668 -2.564664,0 -13.298636,7.022922 -12.560186,8.217762 0.245527,0.397271 -0.0954,0.722311 -0.757622,0.722311 -1.120834,0 -2.410732,2.778577 -3.434712,7.398733 -1.292816,5.833101 -1.214184,8.046464 0.489047,13.765584 1.433313,4.812794 2.528756,6.782964 5.327642,9.581849 2.601878,2.601884 3.940906,3.390802 5.120004,3.01657 0.878167,-0.278719 1.853586,-0.09106 2.167602,0.417022 0.634835,1.027181 -1.54096,3.576223 -3.095517,3.626544 -0.547758,0.01773 -3.089364,0.725618 -5.648013,1.57308 -3.912704,1.295945 -5.268824,1.399707 -8.532512,0.652878 -2.134231,-0.488388 -3.967889,-0.800495 -4.074804,-0.693588 -0.106907,0.106916 0.979141,1.062016 2.413454,2.122447 4.774446,3.529899 11.801271,3.822841 18.168692,0.757419 z M 32.419484,71.78954 c -1.050613,-0.678958 -1.029157,-0.789564 0.155224,-0.800289 0.755875,-0.0068 1.600347,0.353285 1.876611,0.800289 0.635704,1.028593 -0.440201,1.028593 -2.031835,0 z m -2.79231,-2.199967 c -0.441062,-1.158307 -0.347712,-1.251661 0.454961,-0.454965 0.555438,0.551305 0.805151,1.207106 0.554918,1.457336 -0.250224,0.250231 -0.704673,-0.200836 -1.009879,-1.002371 z m -2.42211,-3.197761 c -0.428042,-1.115454 -0.309115,-1.165736 0.72578,-0.306851 1.410289,1.170439 1.557068,1.640909 0.511925,1.640909 -0.399183,0 -0.956149,-0.600326 -1.237705,-1.334058 z M 24.292145,53.096658 c 0,-0.447003 0.36573,-0.812733 0.812734,-0.812733 0.447003,0 0.812734,0.36573 0.812734,0.812733 0,0.447004 -0.365731,0.812734 -0.812734,0.812734 -0.447004,0 -0.812734,-0.36573 -0.812734,-0.812734 z M 29.168548,41.10115 c 0,-0.339478 0.822894,-1.122747 1.828652,-1.740595 1.822158,-1.119372 1.823157,-1.11718 0.280401,0.617233 -1.656417,1.862208 -2.109053,2.103297 -2.109053,1.123362 z m 4.470037,-4.259171 c 0.276265,-0.447003 0.663581,-0.812734 0.860702,-0.812734 0.19712,0 0.358399,0.365731 0.358399,0.812734 0,0.447004 -0.387316,0.812734 -0.860693,0.812734 -0.473385,0 -0.634672,-0.36573 -0.358408,-0.812734 z m 2.031835,-0.812734 c 0,-0.447003 0.387317,-0.812734 0.860702,-0.812734 0.473385,0 0.634664,0.365731 0.358399,0.812734 -0.276264,0.447004 -0.663573,0.812734 -0.860701,0.812734 -0.197121,0 -0.3584,-0.36573 -0.3584,-0.812734 z m -6.860393,38.66586 c 1.433411,-1.052242 1.160763,-1.158373 -2.982758,-1.161048 -2.508219,-0.0016 -5.799791,-0.53262 -7.314606,-1.180001 -3.126091,-1.33598 -8.8089899,-6.932511 -6.005161,-5.913892 0.894008,0.324789 4.18558,0.73644 7.314606,0.914779 l 5.689138,0.324253 -5.402308,-1.047483 C 14.264341,65.498471 11.138905,63.901401 8.1736441,60.532884 l -1.895659,-2.153455 0.579365,2.031835 c 1.226886,4.3027 5.2935819,11.303046 7.4641009,12.848593 3.682474,2.622153 11.779124,3.424213 14.488576,1.435248 z m -1.292791,-2.702382 c -0.08699,-2.051578 -2.343381,-3.0537 -7.063065,-3.136904 -5.393286,-0.09508 -5.869548,0.696175 -1.550412,2.5758 2.722618,1.18484 8.656316,1.571377 8.613477,0.561104 z m 18.374045,-2.709549 c 1.259877,-1.392146 1.317475,-2.073342 0.481496,-5.694971 -0.522246,-2.262524 -0.949549,-5.000104 -0.949549,-6.083511 0,-2.97968 -1.318596,-2.376546 -3.704312,1.694375 -2.215439,3.780349 -2.815156,8.578862 -1.300325,10.404127 1.309785,1.578193 3.891451,1.427228 5.47269,-0.32002 z m -4.93809,-1.557304 c 0.276264,-0.447004 0.663581,-0.812734 0.860701,-0.812734 0.197121,0 0.3584,0.36573 0.3584,0.812734 0,0.447003 -0.387317,0.812734 -0.860702,0.812734 -0.473377,0 -0.634664,-0.365731 -0.358399,-0.812734 z m 0.406367,-4.876404 c 0,-0.447004 0.387316,-0.812734 0.860701,-0.812734 0.473385,0 0.634664,0.36573 0.3584,0.812734 -0.276265,0.447004 -0.663573,0.812734 -0.860702,0.812734 -0.19712,0 -0.358399,-0.36573 -0.358399,-0.812734 z m 0.812734,-2.342272 c 0,-0.447003 0.36573,-1.038767 0.812734,-1.315031 0.447003,-0.276264 0.812734,-0.136567 0.812734,0.310437 0,0.447004 -0.365731,1.038767 -0.812734,1.315031 -0.447004,0.276264 -0.812734,0.136567 -0.812734,-0.310437 z m -4.113239,0.180059 c -1.024028,-2.693403 -0.961602,-5.453112 0.180029,-7.95872 1.114722,-2.446548 2.307742,-2.710759 2.307742,-0.51108 0,2.301581 0.879094,4.18506 1.712829,3.669783 0.416087,-0.257157 0.346476,-1.167206 -0.161946,-2.117201 -0.490436,-0.916399 -0.756062,-3.088585 -0.590264,-4.82708 0.333099,-3.492893 -0.08633,-3.863247 -1.969003,-1.738618 -3.206788,3.618929 -4.796698,13.217436 -2.952922,17.827238 l 0.915098,2.287928 0.660801,-2.312488 c 0.368884,-1.290901 0.323655,-3.19924 -0.102364,-4.319762 z m -14.579642,3.396798 c 0,-0.661989 -0.92125,-1.434836 -2.047228,-1.717438 -3.685895,-0.9251 -10.129751,-10.367629 -8.314171,-12.183206 0.197348,-0.19735 1.72111,0.925993 3.386142,2.496317 1.665032,1.570325 3.641308,2.851236 4.391738,2.846469 0.901956,-0.0057 0.0521,-1.21902 -2.507382,-3.57957 -2.129493,-1.963996 -4.677812,-5.343101 -5.662935,-7.509121 l -1.791127,-3.93822 -0.54311,4.06367 c -0.5616649,4.202499 0.350277,9.812418 2.19335,13.492648 2.495247,4.982495 10.894723,9.630233 10.894723,6.028451 z m 11.378275,-0.734745 c 0,-0.619097 -0.914326,-1.724718 -2.031835,-2.456938 -2.319185,-1.519588 -2.607405,-0.851793 -0.766644,1.77626 1.426625,2.036799 2.798479,2.370476 2.798479,0.680678 z m -12.753933,-3.69603 c -0.458699,-1.754056 -6.751682,-6.28519 -6.751682,-4.861407 0,1.128385 5.231496,6.432129 6.34451,6.432129 0.449857,0 0.633079,-0.706825 0.407172,-1.570722 z m 18.209182,-3.900814 c -0.926939,-2.034423 -2.23618,-1.063993 -1.772231,1.313605 0.14096,0.722349 0.28427,1.840427 0.31847,2.484618 0.04584,0.863172 0.358407,0.766141 1.188363,-0.368886 0.848714,-1.160691 0.914106,-2.005588 0.265398,-3.429337 z m -5.252626,-2.268834 c 0.215667,-1.128178 0.07542,-2.246953 -0.311619,-2.486167 -0.967502,-0.59795 -0.882068,-3.648564 0.188165,-6.718633 1.071248,-3.07298 2.359033,-2.615536 2.359033,0.837971 0,2.11278 0.183231,2.337686 1.210153,1.485415 0.665588,-0.552386 1.013203,-1.32301 0.772487,-1.712499 -0.240715,-0.389489 -0.693855,-2.169836 -1.006969,-3.956329 l -0.569304,-3.248168 -1.983786,2.902834 c -2.006388,2.9359 -3.343953,9.46876 -2.665418,13.018287 0.482707,2.5251 1.51314,2.462106 2.007258,-0.122711 z M 21.853943,50.629862 c 0,-0.909734 -0.600391,-2.57038 -1.334209,-3.690323 -1.058838,-1.615993 -1.234161,-3.229602 -0.849469,-7.818186 0.266601,-3.180058 0.869129,-6.166321 1.338947,-6.636139 0.597131,-0.59713 0.803379,-0.240003 0.685313,1.186626 -0.181175,2.189002 1.604694,7.233809 2.56077,7.233809 1.407103,0 1.421805,-1.131899 0.04576,-3.522072 -0.814863,-1.415388 -1.737828,-4.527649 -2.051031,-6.916135 -0.687143,-5.240083 -1.516196,-4.669366 -3.293215,2.26703 -1.412287,5.512702 -1.219889,12.039844 0.498393,16.908067 1.043819,2.957351 2.398752,3.515039 2.398752,0.987323 z M 36.483154,48.17229 c 0,-0.920388 -0.34976,-1.457271 -0.777234,-1.193074 -0.427481,0.264198 -0.571222,1.017244 -0.31942,1.673434 0.644685,1.680012 1.096654,1.482039 1.096654,-0.48036 z M 22.724893,41.592205 c -0.522637,-1.744421 -1.298139,-2.956669 -1.723337,-2.693884 -1.031059,0.637229 -0.975696,2.809011 0.154232,6.050321 0.803501,2.304923 1.033586,2.470168 1.723337,1.23766 0.533048,-0.952511 0.482098,-2.470221 -0.154232,-4.594097 z m 6.431212,-8.284701 c 0.01561,-2.9025 1.982283,-7.120451 4.362724,-9.356761 l 1.8205,-1.710269 -0.332181,5.21672 c -0.31717,4.981073 -0.254621,5.19644 1.384655,4.767761 1.535506,-0.401546 1.716819,-1.034181 1.716819,-5.990399 0,-3.047791 0.375963,-6.530295 0.835474,-7.738899 0.459512,-1.208603 0.664142,-2.368788 0.454741,-2.578189 -0.808475,-0.808481 -8.340755,7.707544 -10.053056,11.36603 -1.78495,3.813714 -2.645205,12.119783 -0.989967,9.558481 0.433318,-0.670505 0.793448,-2.261019 0.800291,-3.534475 z m 4.192887,-3.553072 c -0.255735,-3.172975 -0.410081,-3.419977 -1.320408,-2.113183 -0.566955,0.813867 -1.299676,3.081469 -1.62828,5.039116 l -0.597457,3.559359 1.917873,-1.446176 c 1.609311,-1.213506 1.871271,-2.024231 1.628272,-5.039116 z m 22.301762,39.075582 c -0.428043,-1.115454 -0.309115,-1.165736 0.72578,-0.306851 1.41029,1.170439 1.55707,1.640909 0.51192,1.640909 -0.39918,0 -0.956145,-0.600326 -1.2377,-1.334058 z m 2.96837,-2.548934 c -0.2375,-3.228439 0.47931,-3.178821 1.06916,0.07401 0.2074,1.143774 0.0999,2.250197 -0.23893,2.458718 -0.33881,0.208522 -0.71241,-0.931204 -0.83023,-2.532723 z"
     style="fill:#000000;stroke-width:0.81273395" />
</svg>
