<?xml version="1.0" encoding="UTF-8" standalone="no"?>
<svg
   xmlns:dc="http://purl.org/dc/elements/1.1/"
   xmlns:cc="http://creativecommons.org/ns#"
   xmlns:rdf="http://www.w3.org/1999/02/22-rdf-syntax-ns#"
   xmlns:svg="http://www.w3.org/2000/svg"
   xmlns="http://www.w3.org/2000/svg"
   id="svgGL4"
   version="1.1"
   viewBox="0 0 100 100"
   height="100"
   width="100">
  <defs
     id="defs2" />
  <metadata
     id="metadata5">
    <rdf:RDF>
      <cc:Work
         rdf:about="">
        <dc:format>image/svg+xml</dc:format>
        <dc:type
           rdf:resource="http://purl.org/dc/dcmitype/StillImage" />
        <dc:title></dc:title>
      </cc:Work>
    </rdf:RDF>
  </metadata>
  <path
     d="m 56.556373,5.0072554 c -0.06712,0.04056 -0.0892,0.250975 -0.09211,0.648408 -0.01138,1.557902 -1.406003,2.485177 -3.371183,2.241433 -0.991489,-0.122975 -1.721259,-0.01502 -1.721259,0.253764 0,0.256726 -0.208069,0.46689 -0.462375,0.46689 -0.254306,0 -0.462374,-0.283858 -0.462374,-0.630347 0,-0.397539 -0.42661,-0.583072 -1.155937,-0.503012 -0.635663,0.06978 -1.321841,-0.169074 -1.524394,-0.531009 -0.437882,-0.782458 -3.330542,-1.719063 -3.330542,-1.078272 0,0.236554 0.193597,0.430767 0.430767,0.430767 0.624335,0 1.067632,1.695237 0.72517,2.774248 -0.162414,0.511708 -0.69981,0.9247486 -1.202897,0.9247486 -0.500049,0 -1.519139,0.624206 -2.264913,1.387124 -0.800537,0.818935 -1.788713,1.361084 -2.412114,1.323909 l -1.055696,-0.06322 1.040343,-0.200483 c 0.572189,-0.110208 1.040343,-0.378478 1.040343,-0.596932 0,-0.218455 0.326447,-0.724706 0.726073,-1.124329 0.399621,-0.399624 0.497191,-0.726073 0.216738,-0.726073 -0.280453,0 -0.624946,0.300283 -0.765808,0.667373 -0.362419,0.944442 -3.769869,2.652179 -4.129764,2.069849 -0.307813,-0.498051 -4.138795,3.575399 -4.138795,4.400687 0,0.270209 -0.571559,1.115479 -1.269724,1.878397 -0.698165,0.762918 -1.270374,1.564733 -1.27153,1.78267 -0.0012,0.217938 -0.354899,0.261032 -0.785676,0.09573 -0.673271,-0.258358 -0.660228,-0.16405 0.09302,0.668275 0.862455,0.953003 0.859363,1.000072 -0.236606,3.006339 -1.23541,2.261525 -1.877292,2.520555 -0.72517,0.292596 0.945954,-1.82927 0.939108,-3.302547 -0.01535,-3.302547 -0.429229,0 -0.643287,-0.260665 -0.506626,-0.616801 0.130116,-0.339075 -0.05549,-0.6168 -0.412706,-0.6168 -0.788703,0 -0.796747,0.08581 -0.104756,1.193866 0.437428,0.700434 0.388155,1.113729 -0.250152,2.08791 -0.437623,0.667895 -0.651129,1.448393 -0.474115,1.734808 0.203692,0.32958 0.112885,0.39157 -0.247442,0.168876 -0.419722,-0.259402 -0.509151,0.02569 -0.342266,1.084593 0.124506,0.790001 0.02407,1.436793 -0.22306,1.436793 -0.247129,0 -0.329634,0.19313 -0.183324,0.429864 0.14631,0.236734 0.02231,0.580887 -0.275438,0.764905 -0.338101,0.208958 -0.417366,0.134714 -0.21132,-0.198677 0.181455,-0.293598 0.132986,-0.533717 -0.107465,-0.533717 -0.594029,0 -1.008659,2.895684 -0.49308,3.44433 0.22703,0.24159 0.406891,0.761762 0.39916,1.155936 -0.01039,0.529716 -0.149247,0.475798 -0.531009,-0.207707 -0.284078,-0.508612 -0.559938,-0.981617 -0.613188,-1.05118 -0.06059,-0.07915 -0.156398,-0.105549 -0.269117,-0.09573 -0.06192,0.254183 -0.199089,0.463234 -0.498497,0.505722 -0.01904,0.0027 -0.03216,0.0013 -0.05057,0.0036 -0.009,0.271418 -0.173069,0.504081 -0.447023,0.608673 0.169118,0.309134 0.248483,1.002299 0.173391,1.583092 -0.08886,0.687288 0.0431,0.978035 0.355811,0.784772 0.30632,-0.189315 0.391252,-0.03246 0.222157,0.40819 -0.150888,0.393206 -0.460484,0.599464 -0.688143,0.458763 -0.373444,-0.230801 -0.632388,0.806688 -0.452441,1.811569 0.03884,0.216915 0.09666,1.101206 0.129139,1.965092 0.03421,0.909912 0.299974,1.571352 0.632153,1.571352 0.315377,0 0.801798,0.65489 1.080982,1.455757 0.705604,2.024099 0.602069,2.716008 -0.188743,1.260694 -0.695788,-1.280444 -2.347169,-2.015539 -2.817596,-1.254372 -0.153129,0.24777 -0.569013,0.338797 -0.924749,0.202289 -0.355736,-0.136509 -0.646602,-0.06043 -0.646602,0.169778 0,0.230213 0.676223,0.483833 1.502718,0.563519 1.372524,0.132335 1.487834,0.265571 1.339261,1.532519 -0.08947,0.762918 -0.349552,1.737259 -0.577969,2.165575 -0.542124,1.016567 -0.535207,3.947267 0.0099,4.28419 0.242083,0.149615 0.139136,0.835305 -0.239315,1.593928 -0.488087,0.978394 -0.542344,1.65216 -0.204998,2.539449 0.252496,0.664112 0.308157,1.222028 0.123721,1.239922 -0.184435,0.01787 0.0811,0.211304 0.589709,0.429864 0.873623,0.375407 0.865016,0.399162 -0.143589,0.429864 -0.587197,0.01788 -0.947338,0.225643 -0.801028,0.462374 0.14631,0.236736 0.06545,0.55469 -0.179712,0.706206 -0.251949,0.155704 -0.362946,-0.157504 -0.254667,-0.719752 0.185103,-0.961166 0.160629,-0.96668 -0.717946,-0.171584 -0.953682,0.86307 -1.281291,2.351553 -0.397353,1.805248 0.344482,-0.212901 0.410359,0.0043 0.200483,0.665566 -0.185039,0.583005 -0.111294,0.98345 0.181518,0.98345 0.271443,0 0.510029,-0.36412 0.530106,-0.809156 0.02545,-0.564152 0.112417,-0.618254 0.287177,-0.178809 0.203514,0.511743 0.320445,0.51718 0.62222,0.0289 0.204421,-0.33076 1.011489,-0.64574 1.793508,-0.699884 1.597427,-0.110591 1.594201,-0.122918 1.435889,4.7276 -0.05095,1.560995 0.08107,2.946579 0.2935,3.078589 0.212426,0.13201 0.366132,-0.937299 0.341362,-2.375996 -0.03629,-2.10779 -0.0088,-2.21349 0.144492,-0.546361 0.238841,2.597987 0.83493,3.323097 2.586409,3.151737 0.864564,-0.0846 1.466441,0.10622 1.604765,0.50753 0.14571,0.4227 0.02338,0.5196 -0.358521,0.28357 -0.435658,-0.26925 -0.532845,0.0525 -0.388323,1.29049 0.10588,0.90694 0.02867,1.54667 -0.172487,1.42234 -0.201159,-0.12432 -0.379428,-0.68184 -0.395547,-1.23902 -0.02886,-0.99745 -0.03599,-0.99594 -0.463278,0.0704 -0.511882,1.27751 0.710428,3.76177 1.863948,3.78841 0.437604,0.0101 0.268713,0.26025 -0.440701,0.65292 -0.632574,0.35014 -1.293692,0.54743 -1.469304,0.43889 -0.397812,-0.24585 -1.030612,1.63798 -0.670985,1.99761 0.144227,0.14423 0.584605,-0.005 0.978031,-0.33143 0.602529,-0.50006 0.669764,-0.47403 0.424445,0.16526 -0.160182,0.41743 -0.470832,0.75949 -0.689949,0.75949 -0.219117,0 -0.279132,0.3121 -0.132752,0.69356 0.320878,0.8362 1.179194,0.93324 1.022281,0.11559 -0.181525,-0.94589 0.564369,-2.69395 1.0277,-2.4076 0.235997,0.14586 0.429864,0.0333 0.429864,-0.25105 0,-0.28432 0.211145,-0.3864 0.469599,-0.22667 0.258456,0.15973 0.354606,0.47604 0.214029,0.70349 -0.140577,0.22746 0.15081,0.81999 0.647505,1.31669 0.496696,0.4967 0.783455,1.02359 0.636668,1.17038 -0.398131,0.39812 1.32381,2.14234 1.815182,1.83866 0.242065,-0.14961 0.192713,-0.53809 -0.114691,-0.90849 -0.295469,-0.35601 -0.753885,-0.51404 -1.018669,-0.35039 -0.288756,0.17846 -0.341799,0.0718 -0.132752,-0.26641 0.477589,-0.77276 2.13754,0.72684 1.794411,1.62102 -0.137211,0.35756 -0.03354,0.65022 0.230284,0.65022 0.263827,0 0.551174,0.46814 0.638475,1.04034 0.05694,0.3732 0.216343,0.67659 0.406384,0.82722 l -0.01806,-1.25167 c -0.01116,-0.8053 0.240218,-1.56861 0.558101,-1.69688 0.357337,-0.14419 0.28065,-0.24745 -0.200483,-0.27002 -0.428011,-0.0201 -1.563761,-1.02444 -2.523193,-2.2324 -2.589417,-3.26015 -2.80959,-3.58997 -2.131258,-3.18244 0.851935,0.51183 0.684946,-0.23791 -0.346781,-1.5569 -0.497303,-0.63576 -0.909161,-1.53304 -0.914816,-1.99309 -0.006,-0.48901 -0.221987,-0.7057 -0.519268,-0.52197 -0.350629,0.2167 -0.342099,0.005 0.02619,-0.68363 0.293765,-0.54891 0.409865,-1.38905 0.258279,-1.86666 -0.151586,-0.4776 -0.05919,-1.001697 0.204998,-1.164971 0.591916,-0.365826 2.758696,2.017271 2.778763,3.056011 0.008,0.41597 0.316087,1.3371 0.684532,2.04727 0.368443,0.71018 0.544462,1.49468 0.391031,1.74294 -0.154654,0.25024 -0.04127,0.30391 0.254668,0.12101 0.306305,-0.1893 0.53462,-0.0541 0.53462,0.31698 0,0.66943 1.848799,1.72036 3.027109,1.72036 0.392931,0 0.695886,0.47984 0.729685,1.15594 0.05476,1.09526 0.143178,1.63318 0.400966,2.42746 0.06191,0.19073 0.07935,0.52763 0.03883,0.74956 -0.04051,0.22193 0.234146,0.28585 0.609576,0.14178 0.375425,-0.14407 0.783182,-0.0137 0.906687,0.28989 0.123505,0.30359 0.240919,0.18856 0.260989,-0.25648 0.05081,-1.12643 0.653792,-1.01011 1.198381,0.23119 0.275802,0.62865 0.941924,1.09632 1.683333,1.18213 0.815786,0.0944 1.648976,0.7502 2.485264,1.95696 0.691782,0.99824 1.462796,1.68779 1.714037,1.53252 0.251245,-0.15528 0.63865,0.005 0.860631,0.35491 0.292263,0.46143 0.405767,0.47813 0.410899,0.0596 0.0098,-0.80376 2.797311,-0.71111 3.909415,0.13005 0.49364,0.37337 1.117846,0.67391 1.387123,0.66827 1.264706,-0.0265 -2.009013,-1.81971 -3.338668,-1.82873 -0.912043,-0.006 -1.6233,-0.28545 -1.782672,-0.70079 -0.145819,-0.37999 -0.463193,-0.56868 -0.705301,-0.41902 -0.870055,0.53771 -2.687162,-0.29701 -2.953059,-1.35642 -0.219713,-0.87543 -0.509608,-1.02882 -1.630954,-0.86424 -1.185848,0.17404 -1.429095,0.0127 -1.865754,-1.23993 -0.365355,-1.04806 -0.791053,-1.4404 -1.563224,-1.4404 -1.086072,0 -1.621923,-0.77701 -1.621923,-2.34981 0,-0.62563 -0.324498,-0.88681 -1.099946,-0.88681 -1.403529,0 -2.299088,-1.07286 -1.912714,-2.2902 0.229648,-0.72357 0.09624,-0.94643 -0.563519,-0.94643 -1.282871,0 -1.972317,-0.92253 -1.972317,-2.63607 0,-1.03177 -0.219325,-1.5253 -0.677306,-1.5253 -0.765012,0 -1.786305,-1.628183 -1.52078,-2.424762 0.09596,-0.287888 -0.216065,-0.914141 -0.693562,-1.39164 -0.621965,-0.621963 -0.787455,-1.235552 -0.583386,-2.164671 0.234967,-1.069801 0.108244,-1.343241 -0.726073,-1.561418 -0.849899,-0.222254 -0.966397,-0.490741 -0.728782,-1.678817 0.155529,-0.77764 0.103598,-1.413313 -0.114691,-1.413313 -0.601905,0 -0.998248,-2.003572 -0.495788,-2.506034 0.27964,-0.27964 0.185021,-0.723798 -0.259183,-1.214637 -0.533579,-0.589602 -0.59173,-1.061218 -0.242927,-1.978638 0.292034,-0.768111 0.297191,-1.303929 0.01355,-1.479238 -0.666823,-0.412119 -0.535948,-1.664599 0.266407,-2.551188 0.594081,-0.656457 0.615858,-0.993468 0.133655,-2.051788 -0.489612,-1.074583 -0.463586,-1.349102 0.168875,-1.811569 0.511973,-0.374365 0.665371,-0.960437 0.491273,-1.871173 -0.179822,-0.940677 -0.0184,-1.49742 0.554489,-1.916326 0.444171,-0.324785 0.662968,-0.82511 0.485854,-1.111685 -0.374294,-0.605622 0.609567,-3.239332 1.210121,-3.239332 0.223454,0 0.406384,-0.609249 0.406384,-1.35371 0,-0.906169 0.396313,-1.665807 1.199285,-2.297424 0.659679,-0.518904 1.103764,-1.210083 0.987061,-1.536132 -0.330875,-0.924405 0.529032,-2.211621 1.799829,-2.694777 0.635607,-0.241657 1.020495,-0.656978 0.856116,-0.922943 -0.459771,-0.743926 1.075478,-2.75438 2.103263,-2.75438 0.571984,0 0.914815,-0.311846 0.914815,-0.832636 0,-1.065251 0.876361,-1.941612 1.941612,-1.941612 0.493197,0 0.832636,-0.339436 0.832636,-0.832636 0,-1.023703 0.865461,-1.941612 1.830534,-1.941612 0.396579,0 0.993361,-0.437182 1.326618,-0.970806 0.379753,-0.608081 0.92413,-0.886573 1.458468,-0.746843 0.564217,0.147546 0.929341,-0.07196 1.080075,-0.648409 0.125294,-0.479068 0.598729,-0.870564 1.051181,-0.870564 0.452456,0 1.304271,-0.453085 1.892846,-1.006027 l 1.070147,-1.005123 v 0.999705 c 0,0.664872 -0.625602,1.394203 -1.867563,2.178218 -1.02692,0.648265 -2.097803,1.684361 -2.379602,2.302843 -0.281799,0.618481 -0.677702,1.022434 -0.879596,0.897657 -0.630508,-0.389675 -3.671884,2.623278 -5.005747,4.958787 -0.701007,1.227415 -1.398772,2.107873 -1.550581,1.956061 -0.969512,-0.969508 -4.962399,4.474589 -4.962399,6.765842 0,0.534143 -0.700592,1.633402 -1.556903,2.442819 -1.643609,1.553611 -2.814759,5.192224 -2.301939,7.153262 0.147261,0.563124 -0.1864,1.908126 -0.775742,3.125544 -0.910785,1.88143 -0.996097,2.560751 -0.713429,5.681248 0.308508,3.405764 1.299496,6.408293 2.925061,8.86188 0.421211,0.635765 0.712635,1.580149 0.648409,2.09965 -0.06423,0.519501 0.106035,1.45581 0.377485,2.080686 0.479869,1.104654 0.486092,1.10038 0.231187,-0.180615 l -0.261891,-1.317587 1.291398,0.888626 c 2.502594,1.721449 6.020605,2.903357 8.543996,2.869974 1.799604,-0.0238 2.210649,-0.13885 1.533423,-0.429864 -0.711493,-0.305736 -0.751482,-0.40485 -0.172488,-0.429864 0.4139,-0.01788 1.011841,0.279592 1.328424,0.661051 0.316584,0.381459 0.877279,0.69357 1.246245,0.69357 0.390619,0 0.604592,0.33801 0.512945,0.80915 -0.180659,0.92875 -3.112269,1.13081 -7.03586,0.48495 -1.249114,-0.20562 -2.3617,-0.28431 -2.471717,-0.17429 -0.402511,0.40251 3.894828,2.76713 6.592451,3.62765 2.623275,0.83681 5.088522,0.88744 10.634618,0.21855 0.549288,-0.0662 0.92475,0.15972 0.92475,0.55629 0,2.05756 -9.344055,3.92153 -13.06931,2.60718 -1.839031,-0.64885 -1.942782,-0.64217 -1.542454,0.0957 1.397287,2.57553 6.191834,5.27034 10.961529,6.16168 3.832026,0.71611 8.698362,0.1914 11.059062,-1.19206 5.64964,-3.31091 7.963294,-8.33625 6.000037,-13.03499 -1.026532,-2.45684 -0.907683,-3.39647 0.430767,-3.39647 1.121883,0 1.823407,1.077372 1.549676,2.379603 -0.07236,0.34422 0.204638,0.601193 0.614996,0.571647 0.635325,-0.04573 0.683916,0.22309 0.327814,1.80796 -0.2749,1.22351 -0.253136,2.02532 0.06322,2.34168 0.724323,0.72432 0.582925,1.58174 -0.427156,2.59182 -0.797471,0.79748 -0.825667,0.99132 -0.231187,1.5858 0.372378,0.37238 0.677309,0.9341 0.677309,1.24896 0,0.71861 0.498408,0.25604 0.624927,-0.57978 0.05164,-0.34118 0.278618,-0.91494 0.503915,-1.27604 0.31428,-0.50373 0.218925,-0.58395 -0.410899,-0.34227 -0.656461,0.25191 -0.749828,0.15187 -0.463276,-0.4994 0.197083,-0.44792 0.331583,-1.33384 0.298014,-1.96961 -0.140358,-2.66009 -0.03005,-4.33738 0.332332,-5.036453 0.211957,-0.408883 0.238248,-1.150778 0.0578,-1.648113 -0.325618,-0.897405 -0.331967,-0.897405 -0.852503,0 -0.478618,0.825135 -0.526331,0.832042 -0.539138,0.07405 -0.0077,-0.456863 -0.636644,-1.185103 -1.397962,-1.618311 -0.983846,-0.559839 -1.38527,-1.13853 -1.387124,-2.001215 -0.0014,-0.667554 -0.132748,-1.863948 -0.291689,-2.658654 -0.377164,-1.885823 0.621473,-1.954046 1.272432,-0.0867 0.311668,0.894048 0.701043,1.272088 1.137876,1.104462 0.903961,-0.346883 2.040048,0.676375 2.040048,1.837758 0,1.532522 1.058394,4.022317 1.710421,4.022298 0.330371,0 1.017589,0.416138 1.526201,0.92475 0.738089,0.738088 0.924749,1.541168 0.924749,3.978948 0,2.58332 -0.178245,3.26586 -1.155936,4.42778 -0.884967,1.05173 -1.155937,1.89879 -1.155937,3.61411 0,2.13957 -0.07133,2.26446 -1.577673,2.7616 -0.867586,0.28633 -1.691033,0.81559 -1.829635,1.17671 -0.344728,0.89838 -3.458391,2.1417 -4.64361,1.85402 -0.531231,-0.12893 -0.724994,-0.122 -0.430767,0.0163 0.359289,0.16865 0.137358,0.85854 -0.676407,2.10146 -1.001361,1.52948 -1.402503,1.8032 -2.308258,1.57587 -0.779688,-0.19569 -0.99693,-0.11571 -0.754068,0.27724 0.217288,0.35158 0.144094,0.43061 -0.200486,0.21764 -0.297769,-0.18401 -0.421746,-0.52817 -0.275436,-0.7649 0.42175,-0.6824 -1.35541,-0.50079 -2.967507,0.30343 -1.169077,0.58321 -1.768079,0.63073 -2.914223,0.23119 -0.793485,-0.27661 -1.879691,-0.49949 -2.413919,-0.49579 -1.507286,0.0106 -3.297549,1.11621 -3.155346,1.94884 0.07032,0.41175 -0.08323,0.8799 -0.341362,1.03944 -0.27583,0.17046 -0.355982,-0.006 -0.194165,-0.42806 0.178463,-0.46506 0.01378,-0.71704 -0.467794,-0.71704 -0.408665,0 -0.742324,-0.22106 -0.742324,-0.49037 0,-0.26932 -0.206468,-0.36218 -0.457862,-0.20681 -0.259373,0.16031 -0.340784,-0.0192 -0.188741,-0.41541 0.183988,-0.47946 -0.111802,-0.79429 -0.944617,-1.00332 -0.09062,-0.0228 -0.199372,-0.0622 -0.318785,-0.11198 -0.09633,-0.0346 -0.194927,-0.0763 -0.298014,-0.13637 -0.182189,-0.0294 -0.384899,-0.0992 -0.605965,-0.23299 -0.45518,-0.27545 -0.918295,-0.49919 -1.08911,-0.81006 -0.369847,-0.26019 -0.738846,-0.53426 -1.082788,-0.81909 -1.199806,-0.99357 -2.972473,-2.0204 -3.939215,-2.28207 -0.966742,-0.26167 -1.872254,-0.77572 -2.012955,-1.14239 -0.140705,-0.36667 -0.42279,-0.56402 -0.626734,-0.43799 -0.203944,0.12606 -0.260814,-0.1943 -0.125528,-0.71162 0.265723,-1.01614 -0.996863,-2.7589 -1.998506,-2.7589 -0.684388,0 -2.956669,-2.80905 -2.956669,-3.65474 0,-0.30887 -0.204427,-0.43526 -0.454247,-0.28086 -0.718939,0.44433 1.751949,3.78608 3.261909,4.41152 0.744488,0.30838 1.350185,0.58768 1.346486,0.62042 -0.0038,0.0327 -0.307226,0.89187 -0.673695,1.9091 l -0.60506,1.68062 c 0.08299,0.0488 0.170384,0.0708 0.256473,0.0533 0.311844,-0.0636 0.567132,0.086 0.567132,0.33234 0,0.24632 0.300636,0.33164 0.668275,0.19054 0.56363,-0.21628 0.583437,-0.031 0.125528,1.18213 -0.68818,1.82319 -0.04352,2.98337 1.735711,3.12012 1.15989,0.0892 1.203756,0.0413 0.456956,-0.50481 -1.020752,-0.7464 -0.596665,-2.12404 0.653826,-2.12404 0.572231,0 1.335671,0.75086 2.115003,2.08069 0.670652,1.14438 1.450904,2.08068 1.733905,2.08068 0.283001,0 0.152054,-0.4011 -0.29079,-0.89043 -0.767056,-0.84759 -0.765558,-0.88362 0.04335,-0.7649 0.553929,0.0813 0.849794,0.51096 0.849794,1.23631 0,0.86922 0.277485,1.1445 1.27153,1.25888 1.824481,0.20993 1.679356,-1.28742 -0.2348,-2.42656 -0.824885,-0.49089 -1.620776,-0.86616 -1.769125,-0.83444 -0.148343,0.0317 -0.270019,-0.24313 -0.270019,-0.61048 0,-0.85442 -0.04458,-0.86925 1.420537,0.48856 0.686002,0.63577 1.646441,1.15594 2.133969,1.15594 0.576313,0 0.79798,0.23 0.633958,0.65744 -0.138754,0.36158 -0.0037,1.1208 0.299822,1.68785 0.491037,0.9175 0.456401,0.99792 -0.311562,0.72878 -0.826324,-0.2896 -0.825464,-0.27355 0.01443,0.37748 0.482497,0.37394 1.037226,0.58138 1.2327,0.46057 0.195478,-0.12081 0.980923,0.40566 1.745645,1.17039 1.746768,1.74676 1.999673,1.74575 1.388927,-0.006 -0.351239,-1.00762 -0.340784,-1.57279 0.03791,-2.02921 0.639062,-0.77002 2.809472,-1.24733 2.809472,-0.6177 0,0.2487 0.513421,0.35396 1.141487,0.23389 0.628072,-0.12006 1.032118,-0.0397 0.897655,0.17791 -0.134468,0.21757 0.463664,0.39555 1.329327,0.39555 1.860341,0 3.287178,-1.29778 2.805855,-2.5521 -0.231164,-0.6024 -0.158594,-0.73648 0.260086,-0.47772 0.3197,0.19757 0.47767,0.75488 0.351299,1.23812 -0.317527,1.21423 1.11263,1.9295 2.672197,1.33655 0.80578,-0.30636 1.288416,-0.91707 1.479238,-1.87117 0.275954,-1.37978 0.296747,-1.39002 0.799224,-0.39104 0.283704,0.56404 0.7962,1.11781 1.138778,1.23089 0.488434,0.16123 0.515695,0.006 0.125525,-0.72336 -0.733012,-1.36964 0.375818,-2.15714 3.413629,-2.42475 0.787077,-0.0693 0.752658,-0.13646 -0.231188,-0.45154 -1.038932,-0.33273 -1.056646,-0.37489 -0.172488,-0.41632 0.541047,-0.0253 1.240837,-0.35645 1.555095,-0.73511 0.314262,-0.37865 0.756154,-0.57464 0.981644,-0.43528 0.225491,0.13937 0.409997,0.0336 0.409997,-0.2357 0,-0.26931 0.400888,-0.48946 0.891334,-0.48946 1.101025,0 2.347217,-1.18862 2.338062,-2.2297 -0.0047,-0.53054 -0.191118,-0.40998 -0.588807,0.3802 -0.462508,0.91895 -0.958373,1.16924 -2.420239,1.22276 l -1.838661,0.0677 1.849499,-0.29892 c 1.203071,-0.19418 1.849498,-0.54042 1.849498,-0.99157 0,-0.38147 0.251352,-0.85534 0.559002,-1.05299 0.307655,-0.19764 0.69758,-1.09417 0.866051,-1.99219 0.170056,-0.90647 1.000483,-2.36963 1.867563,-3.289 1.77767,-1.88489 1.83803,-2.10931 0.83534,-3.11199 -0.39961,-0.39963 -0.58193,-0.72608 -0.40548,-0.72608 0.17646,0 0.0546,-0.32119 -0.27092,-0.71343 -0.44831,-0.54017 -0.46232,-0.84353 -0.0569,-1.24895 0.70407,-0.70406 0.69964,-1.89334 -0.005,-1.45756 -0.35874,0.22171 -0.44637,0.0869 -0.25918,-0.40097 0.15525,-0.40458 0.0178,-0.95469 -0.30524,-1.222765 -0.33705,-0.279721 -0.49958,-1.0827 -0.382,-1.883815 0.12327,-0.839867 2e-5,-1.395252 -0.30975,-1.395252 -0.28317,0 -0.514755,0.08691 -0.514755,0.193258 0,0.106356 -0.139388,0.556631 -0.309759,1.000608 -0.227826,0.593708 -0.147877,0.706421 0.302532,0.428058 0.407462,-0.251828 0.501272,-0.199849 0.281762,0.155329 -0.466906,0.755474 -1.684496,0.668536 -1.389834,-0.09934 0.133784,-0.34864 -0.08075,-0.758313 -0.476824,-0.910301 -0.527324,-0.202353 -0.719751,-0.936645 -0.719751,-2.741737 0,-2.576717 -0.542744,-3.574372 -1.942519,-3.574372 -0.457751,0 -0.835256,-0.260086 -0.838955,-0.577969 -0.0048,-0.391141 -0.164462,-0.353776 -0.493081,0.115594 -0.388682,0.555159 -0.432256,0.500888 -0.21764,-0.27002 0.202349,-0.726848 -0.02469,-1.096325 -0.926557,-1.507232 -1.585737,-0.722512 -2.704679,-0.05887 -2.729092,1.618311 -0.01637,1.125115 -0.205068,1.314878 -1.305848,1.314878 -0.707475,0 -1.459333,0.277571 -1.670689,0.617703 -0.493761,0.794614 -2.449698,0.519539 -2.746251,-0.386516 -0.193994,-0.592713 -0.115515,-0.602253 0.536424,-0.06412 0.894644,0.738467 2.251348,0.374216 1.910911,-0.512947 -0.1291,-0.336438 0.194992,-1.07221 0.719751,-1.63547 1.163473,-1.248842 1.166719,-1.249409 1.254371,-0.08579 0.04705,0.624626 -0.174754,0.895334 -0.66286,0.809155 -0.403422,-0.07123 -0.810057,0.08783 -0.903975,0.354006 -0.09392,0.26618 0.387096,0.474257 1.069241,0.462375 1.619953,-0.02819 1.844371,-0.853243 0.716136,-2.635174 -0.863323,-1.363516 -0.93187,-1.390005 -1.224567,-0.467794 -0.4883,1.538496 -2.501979,2.851646 -4.362759,2.843785 -0.995456,-0.0042 -1.439271,-0.154853 -1.097238,-0.372067 0.327384,-0.207912 -0.269052,-0.344516 -1.387124,-0.317883 -1.797685,0.04285 -1.974382,0.156272 -2.114097,1.360032 -0.128716,1.108982 -0.02076,1.26361 0.693561,0.991577 0.662907,-0.252461 0.724703,-0.200656 0.287177,0.240218 -0.833828,0.840213 -2.098742,-0.343045 -1.702297,-1.592122 0.28203,-0.8886 0.249691,-0.900808 -0.465986,-0.185131 -0.364286,0.364284 -0.756015,0.532782 -1.101751,0.532815 l 0.81728,-0.999705 c 0.538356,-0.658828 0.920181,-0.838211 1.037633,-0.485854 0.122395,0.367185 0.288083,0.393844 0.484051,0.07676 0.163727,-0.264913 -0.352811,-0.962814 -1.147808,-1.55058 -1.149686,-0.849988 -1.383795,-0.907583 -1.143296,-0.280857 0.187544,0.48854 0.119839,0.674941 -0.178809,0.49037 -0.264788,-0.163667 -0.397092,-0.538056 -0.293497,-0.832635 0.10359,-0.294579 -0.334657,-1.547017 -0.974422,-2.782376 -1.365665,-2.637066 -1.793103,-5.777745 -0.989769,-7.278788 0.454043,-0.848412 0.451861,-1.104617 -0.01082,-1.258887 -0.453423,-0.151147 -0.457409,-0.269775 -0.01715,-0.541846 0.893141,-0.551994 -0.114179,-0.861194 -1.321199,-0.405481 -0.837656,0.316252 -1.031678,0.654827 -0.831733,1.448533 0.245327,0.973864 0.222259,0.984593 -0.378389,0.181518 -0.85254,-1.139863 -0.398687,-2.151125 0.965387,-2.151125 0.774168,0 1.107175,-0.261349 1.107175,-0.868759 0,-0.477474 0.303036,-1.119234 0.673694,-1.426859 0.441868,-0.366712 0.591705,-1.063184 0.436185,-2.021986 l -0.236606,-1.462079 0.782967,1.36545 c 0.540862,0.942998 0.619286,1.420612 0.25376,1.542453 -0.291166,0.09706 -0.391987,0.398204 -0.22396,0.670082 0.173326,0.280441 0.0898,0.360626 -0.194161,0.185131 -0.724439,-0.447729 -1.236593,1.538091 -0.561715,2.178217 0.433522,0.4112 0.489751,0.296554 0.246542,-0.508431 -0.188954,-0.625413 -0.117882,-1.040343 0.17881,-1.040343 0.271442,0 0.493982,0.387491 0.493982,0.861534 0,0.695803 0.33033,0.851731 1.717648,0.809156 1.291912,-0.03965 1.759831,0.148473 1.883816,0.756777 0.114373,0.561146 -0.125534,0.809156 -0.782966,0.809156 -2.076608,0 -3.254521,4.392347 -1.871175,6.97716 0.418995,0.782898 0.401642,1.082772 -0.07766,1.378997 -0.336771,0.208138 -0.434013,0.545896 -0.215832,0.750455 0.218181,0.204555 0.489123,0.114687 0.601448,-0.199579 0.134717,-0.376924 0.922174,-0.02284 2.314582,1.040343 1.160958,0.886455 2.32058,1.61199 2.576472,1.61199 0.255892,0 -0.34655,-0.593706 -1.338357,-1.319394 -3.009735,-2.202184 -3.892598,-3.605255 -4.01417,-6.374809 -0.05675,-1.292874 1.210348,-3.35953 2.141192,-3.492194 1.010732,-0.144051 1.765735,-2.222468 0.807352,-2.222468 -0.295152,0 -0.369474,-0.56657 -0.191455,-1.456661 0.332253,-1.661271 -0.915895,-3.086656 -1.950643,-2.227887 -0.407685,0.338348 -0.84905,-0.216173 -1.65624,-2.080686 -0.605248,-1.398046 -1.285698,-2.545939 -1.511748,-2.550285 -0.22605,-0.0043 -0.295453,1.265055 -0.154424,2.820305 0.283755,3.129309 -0.486631,3.230362 -0.902176,0.118302 -0.330385,-2.474291 0.378898,-4.93325 1.57858,-5.471734 1.325766,-0.595076 1.166918,-3.281807 -0.262796,-4.439519 -0.798715,-0.646761 -1.021025,-1.362725 -1.089109,-3.51206 l -0.08579,-2.700196 -0.17339,2.528612 c -0.09534,1.390974 -0.420706,2.834518 -0.723362,3.207724 -0.452975,0.558564 -0.405586,0.624099 0.269115,0.371163 0.518808,-0.194493 1.155207,0.02817 1.733905,0.606867 1.147554,1.147552 1.155794,1.939197 0.03163,2.956669 -0.485373,0.439258 -1.137206,1.415399 -1.449438,2.169188 -0.312228,0.753789 -1.267744,2.070579 -2.123128,2.925964 -0.855383,0.855385 -1.555095,1.910517 -1.555095,2.344384 0,0.433866 -0.512468,1.191581 -1.13878,1.684236 -1.330123,1.046273 -1.97282,3.703023 -1.248954,5.162882 0.440232,0.887838 0.483019,0.807214 0.357619,-0.668276 -0.07846,-0.923228 0.08627,-2.190861 0.365745,-2.816692 0.495878,-1.110432 0.536907,-1.078383 1.699589,1.322102 0.655273,1.352897 0.902454,2.21954 0.54907,1.92626 -0.531874,-0.441414 -0.59282,-0.300322 -0.351298,0.81909 0.277878,1.287916 0.257075,1.309965 -0.433477,0.45515 -0.802866,-0.993842 -0.98852,-2.325664 -0.261889,-1.876591 0.700928,0.433198 0.553102,-0.403223 -0.250154,-1.415119 -0.66514,-0.837903 -0.70354,-0.754227 -0.577968,1.24805 0.125549,2.001962 0.06529,2.132212 -0.905784,1.956061 -0.951591,-0.172613 -1.040343,-0.01351 -1.040343,1.872979 0,1.134338 0.215786,2.196171 0.480436,2.359736 0.264654,0.163565 0.362993,0.672687 0.217641,1.130651 -0.480944,1.515322 0.580014,4.815868 1.939804,6.03435 0.715497,0.641138 1.235858,1.505856 1.155937,1.920842 -0.23546,1.222662 2.547901,4.014389 4.337472,4.350114 0.873453,0.163861 1.704289,0.485222 1.845887,0.714333 0.141598,0.229111 1.067364,0.829767 2.057206,1.334746 3.06056,1.561378 7.416513,1.028011 9.205047,-1.127039 0.328175,-0.395427 0.802965,-0.591482 1.055699,-0.435282 0.268528,0.16596 0.359898,-0.0758 0.219443,-0.582484 -0.132175,-0.476884 -0.373118,-1.65444 -0.535523,-2.61621 -0.291582,-1.726732 -0.279302,-1.744589 0.999705,-1.438599 0.712385,0.170431 1.451968,0.397817 1.642697,0.504819 0.525549,0.294838 0.415106,3.3766 -0.121013,3.3766 -0.286852,0 -0.353823,0.715488 -0.172488,1.849498 0.198173,1.239298 0.123652,1.849499 -0.225769,1.849499 -0.286811,0 -0.521073,-0.208069 -0.521073,-0.462375 0,-0.254306 -0.36412,-0.456548 -0.809155,-0.448829 -0.738145,0.01283 -0.733669,0.05831 0.05509,0.51656 0.475571,0.276282 0.67976,0.633689 0.453344,0.794706 -0.22642,0.16102 -0.66987,0.88036 -0.985255,1.59754 -0.458523,1.04269 -0.825464,1.27432 -1.831438,1.15594 -0.959691,-0.11293 -1.296966,0.0712 -1.421442,0.77665 -0.216886,1.22909 -1.310652,2.03625 -2.380508,1.75648 -0.476061,-0.12449 -1.241286,-0.0168 -1.700489,0.24022 -1.001494,0.56046 -2.477135,-0.0875 -2.477135,-1.08821 0,-0.76165 -0.726455,-0.91072 -1.144197,-0.2348 -0.150438,0.24342 -0.838752,0.44956 -1.529813,0.45876 -0.691065,0.009 -2.340901,0.14167 -3.666483,0.29441 -2.489809,0.28686 -7.273332,-0.92348 -9.190601,-2.32542 -0.755067,-0.55212 -0.230338,-0.61687 3.96721,-0.49218 3.98345,0.11833 4.695734,0.0408 4.038556,-0.4398 -0.438932,-0.32095 -0.797416,-0.87958 -0.797416,-1.24082 0,-0.36125 -0.624205,-0.892356 -1.387124,-1.180327 -1.003255,-0.37868 -1.387125,-0.826546 -1.387125,-1.618311 0,-0.791766 -0.383887,-1.239631 -1.387124,-1.618312 -1.119386,-0.422522 -1.387124,-0.792378 -1.387124,-1.919035 0,-0.989504 -0.269193,-1.481877 -0.923847,-1.689654 -0.991816,-0.314789 -1.659269,-2.094915 -1.217345,-3.246557 0.150974,-0.39343 -0.152327,-1.127648 -0.686338,-1.661658 -0.660909,-0.660896 -0.862523,-1.266234 -0.650214,-1.955159 0.169081,-0.548676 0.275328,-1.257081 0.235703,-1.574963 -0.06882,-0.552256 -0.08592,-2.980921 -0.04786,-6.689983 0.01218,-1.18686 0.294908,-1.891887 0.913912,-2.27846 0.493049,-0.307915 0.790257,-0.83549 0.661051,-1.172192 -0.415471,-1.082706 0.301438,-2.851521 1.281465,-3.16257 0.752741,-0.23891 0.89463,-0.561209 0.679112,-1.542453 -0.16805,-0.765126 -0.007,-1.590815 0.41993,-2.155641 0.599488,-0.793114 0.693443,-0.811718 0.706205,-0.134558 0.0081,0.430027 0.244944,0.924132 0.526493,1.098139 0.344483,0.212902 0.410359,-0.0043 0.200483,-0.665566 -0.185038,-0.583005 -0.111295,-0.982546 0.181518,-0.982546 0.271442,0 0.493983,-0.452056 0.493983,-1.00422 0,-1.26515 1.264305,-2.694777 2.383214,-2.694777 0.4692,0 0.85341,-0.193723 0.85341,-0.429864 0,-0.236142 0.274674,-0.70454 0.611379,-1.041246 0.473768,-0.47377 0.527255,-1.490749 0.236607,-4.497316 -0.206561,-2.136759 -0.469042,-3.979297 -0.584289,-4.094544 -0.604532,-0.60453 -1.830042,3.672258 -1.854918,6.474148 -0.01812,2.044121 -0.225888,3.192195 -0.605059,3.337767 -0.644679,0.247498 -0.683628,0.0119 -0.757682,-4.672513 -0.02874,-1.817886 0.06678,-3.234096 0.21132,-3.146315 0.144538,0.08778 0.516562,-0.543368 0.827218,-1.402476 0.609081,-1.684377 3.370004,-4.398881 4.473835,-4.398881 0.411528,0 0.678211,-0.446646 0.678211,-1.137875 0,-1.33915 1.360713,-2.739429 3.930185,-4.043068 3.592993,-1.8229336 4.421032,-3.5229436 2.54306,-5.2224856 -0.508612,-0.460288 -0.928277,-0.649171 -0.931976,-0.419027 -0.0037,0.230144 -0.208633,0.106924 -0.455148,-0.274535 -0.183895,-0.284556 -0.296821,-0.414434 -0.363939,-0.373873 z M 35.752222,83.584757 c -0.02156,-0.0127 -0.04232,-0.0277 -0.06322,-0.0443 l 0.0027,0.21312 z M 47.14452,7.1872794 c 0.08562,-0.03103 0.201521,0.07582 0.363033,0.294402 0.290986,0.393793 0.422643,1.125685 0.291694,1.626439 -0.43656,1.6693996 -0.959733,1.3795366 -0.889526,-0.493079 0.03528,-0.940855 0.0921,-1.376046 0.234799,-1.427762 z m 11.478991,0.202289 c 0.104867,-0.03714 0.1463,0.08495 0.1463,0.359423 0,0.39863 -0.389116,1.077247 -0.864247,1.507234 -1.290705,1.1680886 -6.093811,3.9852716 -6.794739,3.9852716 -0.33623,0 -0.883233,0.36412 -1.215537,0.809155 -0.85611,1.146545 -2.305155,1.336778 -1.897363,0.249249 0.260973,-0.695985 0.197189,-0.736369 -0.397351,-0.253764 -0.388894,0.315676 -0.8743,0.41971 -1.079178,0.231187 -0.204883,-0.188523 -0.249812,0.155181 -0.09934,0.764002 0.205355,0.830885 0.142389,0.975025 -0.254668,0.577968 -0.29094,-0.290938 -0.737271,-0.528299 -0.991577,-0.528299 -0.286127,0 -0.273026,0.189342 0.03522,0.497595 0.35589,0.355888 0.188645,0.807446 -0.586096,1.582188 -1.342574,1.342577 -2.962969,1.928844 -2.963894,1.071951 -3.09e-4,-0.33502 -0.493056,-0.03649 -1.094527,0.662857 -0.601466,0.699342 -1.317029,1.27153 -1.590316,1.27153 -0.273282,0 -0.630331,0.215937 -0.793803,0.480436 -0.194054,0.313989 0.15776,0.377144 1.01325,0.181518 l 1.310363,-0.29982 -1.040343,0.76942 c -0.572188,0.423324 -1.040343,1.174691 -1.040343,1.668883 0,0.494192 -0.312103,0.89856 -0.693562,0.89856 -0.381459,0 -1.070688,0.377125 -1.531616,0.838055 -0.460932,0.460929 -1.10347,0.749882 -1.426859,0.642086 -0.389172,-0.129724 -0.535738,0.168785 -0.433476,0.884111 0.09362,0.654879 -0.266374,1.534067 -0.913913,2.230596 -0.623044,0.670184 -0.975635,1.505438 -0.845278,2.003925 0.137053,0.524093 -0.07507,0.96945 -0.54907,1.149615 -0.425296,0.161654 -1.144956,0.763318 -1.599347,1.337455 -0.503556,0.636257 -1.135491,0.948588 -1.618311,0.799221 -0.722156,-0.223408 -0.725287,-0.202238 -0.03161,0.247443 0.626828,0.406343 0.688247,0.840555 0.34949,2.462687 -0.922936,4.419459 -1.426272,5.430754 -2.920546,5.864572 -1.187863,0.344861 -1.247512,0.420426 -0.358521,0.45515 0.587197,0.02293 0.939233,0.250513 0.782063,0.504819 -0.15717,0.254306 -0.118138,0.463025 0.0876,0.464181 0.679334,0.0037 0.562047,3.334258 -0.156233,4.430488 -0.387604,0.591558 -0.556599,1.314741 -0.375679,1.607475 0.229759,0.371758 -0.0023,0.44088 -0.76942,0.229381 -0.938827,-0.258847 -0.979967,-0.228009 -0.279954,0.210417 0.450385,0.28208 0.67633,0.743098 0.50211,1.02499 -0.207305,0.335425 -0.04019,0.40672 0.483146,0.205901 0.643374,-0.246885 0.74137,-0.12287 0.500304,0.636668 -0.164793,0.519215 -0.07867,1.210657 0.191452,1.536132 0.332296,0.400393 0.346712,1.095629 0.04425,2.150222 -0.32843,1.145168 -0.295674,1.655701 0.124624,1.922648 0.364195,0.231317 0.143759,0.365638 -0.606867,0.370261 -0.64848,0.0039 -1.378207,0.206014 -1.621923,0.449732 -0.282578,0.282589 -0.69354,0.267044 -1.13336,-0.04335 -0.575021,-0.405808 -0.553857,-0.442805 0.125528,-0.223963 0.671228,0.216216 0.764427,0.06306 0.531008,-0.866952 -0.155853,-0.620969 -0.01424,-2.17792 0.31427,-3.459682 0.489813,-1.911152 0.488913,-2.433621 -0.0054,-2.904291 -0.48972,-0.466282 -0.544248,-0.378919 -0.288984,0.465987 0.252564,0.835973 0.08176,1.128217 -0.872371,1.490978 -0.93573,0.355765 -1.190007,0.772338 -1.20109,1.965995 -0.0119,1.281374 -0.08879,1.385812 -0.499401,0.680016 -0.36414,-0.625922 -0.292419,-1.128806 0.288081,-2.014762 0.559583,-0.854029 0.633858,-1.320396 0.268213,-1.686042 -0.27798,-0.277984 -0.481686,-1.243823 -0.45244,-2.14661 l 0.05328,-1.640888 0.33775,1.73842 c 0.588984,3.037103 1.372121,2.990137 1.669787,-0.100241 0.100785,-1.046354 0.401777,-2.310725 0.669179,-2.810371 0.345586,-0.645734 0.339759,-0.908494 -0.01987,-0.908494 -0.291189,0 -0.350984,-0.245317 -0.14088,-0.577968 0.200777,-0.317883 0.381338,-2.450586 0.400965,-4.73934 0.01963,-2.288756 0.196918,-4.577509 0.393741,-5.086121 0.352676,-0.911354 0.346842,-0.912524 -0.373873,-0.028 -0.402219,0.493641 -0.730588,0.675448 -0.730588,0.403675 0,-0.271773 0.306189,-0.74831 0.680919,-1.059308 0.374729,-0.310997 0.810604,-1.25623 0.969,-2.100553 0.158402,-0.844353 0.892523,-2.073858 1.630954,-2.731803 0.907754,-0.808812 1.342874,-1.637597 1.342874,-2.559316 0,-0.749766 0.607955,-2.394539 1.351,-3.654747 0.743047,-1.260209 1.216993,-2.424204 1.05389,-2.587311 -0.163106,-0.163108 0.09535,-0.145878 0.574355,0.03793 0.53499,0.205295 0.761487,0.156798 0.586999,-0.125528 -0.156226,-0.252779 0.149956,-0.444181 0.680016,-0.425348 0.677918,0.02409 1.016504,-0.302055 1.143294,-1.09814 0.09914,-0.622454 0.488305,-1.471117 0.864243,-1.886525 0.375962,-0.415407 0.527229,-0.912273 0.335944,-1.103558 -0.191285,-0.191306 -0.03558,-0.278027 0.345878,-0.193258 0.381459,0.08477 0.641545,-0.10566 0.577968,-0.423542 -0.06358,-0.317883 0.04046,-0.541616 0.231188,-0.496692 0.931444,0.219395 4.642951,-1.214607 5.680344,-2.194473 0.644967,-0.6092 1.826661,-1.238064 2.626144,-1.397961 0.799482,-0.159896 1.89391,-0.759286 2.431984,-1.332037 0.881388,-0.9381916 1.295546,-1.0192366 4.181236,-0.8127666 3.536185,0.2530116 5.613477,-0.33736 6.714368,-1.909102 0.255675,-0.365031 0.424335,-0.561597 0.529202,-0.598739 z M 51.202939,17.674694 c -0.05065,-0.0084 -0.139563,0.219335 -0.282663,0.652924 -0.209821,0.635765 -0.401818,1.53214 -0.427151,1.992184 -0.02534,0.460044 0.118557,0.734782 0.319686,0.610479 0.201128,-0.124303 0.393124,-1.020678 0.427155,-1.992184 0.02987,-0.851866 0.02811,-1.252632 -0.03704,-1.263403 z m -6.820025,3.888643 c 0.156134,-2.34e-4 0.245603,1.703176 0.198677,3.785692 -0.04693,2.082517 0.100038,4.131981 0.32601,4.55421 0.225971,0.42223 0.24174,1.371694 0.03522,2.109584 -0.375046,1.340038 -0.376565,1.339515 -0.960872,-0.738715 -0.321753,-1.144378 -0.732328,-3.121029 -0.91301,-4.392559 l -0.32872,-2.311874 -0.593321,1.387124 c -0.708446,1.657187 -0.867437,6.456921 -0.32601,9.825461 0.264474,1.645425 0.232457,2.427467 -0.09934,2.427467 -0.591664,0 -1.446727,-1.50163 -1.446727,-2.540351 0,-0.413186 -0.156052,-0.655218 -0.346781,-0.53733 -0.190716,0.117888 -0.272378,-0.728574 -0.180615,-1.881106 0.133187,-1.672789 0.03991,-2.018312 -0.462375,-1.715844 -0.495633,0.298464 -0.516641,0.237099 -0.09934,-0.288081 0.291374,-0.366698 0.47414,-1.498744 0.406383,-2.515968 -0.06775,-1.017225 -0.02795,-1.470371 0.0885,-1.006929 0.165706,0.659474 0.413126,0.458476 1.137875,-0.92475 1.205818,-2.301357 3.203162,-5.235474 3.564439,-5.236031 z m 4.185757,0.636668 c 0.01258,0.0068 0.02187,0.02601 0.02617,0.0578 0.03435,0.254306 0.162428,1.54809 0.285368,2.875393 0.145006,1.565566 -0.0028,2.845262 -0.42083,3.643006 -0.640074,1.221629 -0.645442,1.213738 -0.923847,-1.136972 -0.18071,-1.525802 -0.05415,-2.983963 0.357619,-4.105381 0.307317,-0.836948 0.587303,-1.381162 0.675501,-1.333843 z m -6.193294,4.681544 0.691756,3.236622 c 0.637434,2.979451 0.631187,3.297194 -0.0867,4.006946 -0.730044,0.721776 -0.796869,0.633193 -1.036731,-1.387124 -0.140922,-1.186976 -0.101393,-2.989722 0.0876,-4.006946 z m -4.181239,1.30675 c 0.280259,-0.0915 0.470963,1.260723 0.484048,3.43259 0.01408,2.334318 0.318529,4.35208 0.87508,5.789616 0.469861,1.213624 0.72319,2.338236 0.562616,2.49881 -0.389125,0.389126 -2.464605,-4.354648 -2.884423,-6.592451 -0.320537,-1.708613 -0.350114,-1.732473 -0.788385,-0.637571 -1.067013,2.66562 -0.169973,7.867145 1.751064,10.154181 0.332401,0.395733 0.443043,1.074368 0.257376,1.581285 -0.313421,0.855701 -0.351439,0.852225 -1.026797,-0.111982 -0.385648,-0.55059 -0.817516,-0.884783 -0.959969,-0.742328 -0.142458,0.142455 -0.415857,0.0053 -0.60777,-0.305239 -0.238946,-0.386627 -0.156574,-0.446121 0.262796,-0.186937 0.465398,0.287633 0.522938,0.166856 0.238411,-0.505722 -1.747183,-4.130076 -1.818375,-4.599992 -1.215539,-7.973253 0.547845,-3.065556 1.969291,-6.047663 3.051492,-6.400999 z m -11.045516,0.0072 c 0.05527,0.0093 0.116135,0.03386 0.179712,0.07315 0.254306,0.15717 0.462374,0.377321 0.462374,0.489466 0,0.112145 -0.208068,0.204096 -0.462374,0.204096 -0.254306,0 -0.462375,-0.221056 -0.462375,-0.49037 0,-0.201986 0.116858,-0.304217 0.282663,-0.276342 z m 23.255098,1.229086 c -0.230498,0 -0.419027,0.416137 -0.419027,0.92475 0,0.508612 0.07951,0.924749 0.177002,0.924749 0.0975,0 0.286025,-0.416137 0.419027,-0.924749 0.133006,-0.508613 0.0535,-0.92475 -0.177002,-0.92475 z m -3.393761,1.917229 c -0.019,0.0046 -0.03741,0.01481 -0.05328,0.03071 -0.127153,0.127154 -0.09593,0.581716 0.06864,1.010541 0.164554,0.428825 0.40295,0.676223 0.530103,0.54907 0.127153,-0.127153 0.09682,-0.582619 -0.06773,-1.011444 -0.143993,-0.375222 -0.344613,-0.610948 -0.477731,-0.578872 z m 6.172522,0.857019 c -0.275497,0 -0.431549,0.171043 -0.346781,0.380195 0.08477,0.209151 0.6746,1.557809 1.310365,2.997307 0.635765,1.439498 1.314928,2.620894 1.50994,2.625241 0.195015,0.0043 -0.169105,-1.025317 -0.809156,-2.288394 -0.640047,-1.263076 -1.163159,-2.615522 -1.163159,-3.005435 0,-0.389913 -0.225708,-0.708914 -0.501209,-0.708914 z m -31.784644,0.407289 c -0.01209,0.0048 -0.02012,0.0081 -0.03161,0.01264 0.0015,0.0015 0.004,0.0022 0.0054,0.0036 0.0093,-0.0045 0.01742,-0.01079 0.02619,-0.01626 z m -0.03161,0.01264 -9.25e-4,-9.02e-4 c -0.0038,0.0024 -0.007,0.0039 -0.01084,0.0063 0.0045,-0.0018 0.0074,-0.0037 0.01174,-0.0054 z m -0.01174,0.0054 c -0.02152,0.0085 -0.04171,0.01702 -0.05689,0.02348 0.0066,-0.0012 0.01433,-1.73e-4 0.02077,-0.0018 0.01185,-0.0071 0.02329,-0.0136 0.03612,-0.02167 z m 27.963733,0.4994 c -0.112145,0 -0.3323,0.208069 -0.489466,0.462375 -0.15717,0.254306 -0.06612,0.462375 0.203191,0.462375 0.269315,0 0.490371,-0.208069 0.490371,-0.462375 0,-0.254306 -0.09195,-0.462375 -0.204096,-0.462375 z m -12.425416,1.474723 c 0.08727,0.01526 0.145395,0.131297 0.145395,0.326913 0,0.845568 2.183028,5.462083 2.748059,5.81129 0.268686,0.166055 0.488564,0.579185 0.488564,0.918429 0,0.84837 -1.221841,1.246163 -1.758289,0.572549 -1.544016,-1.938806 -2.678107,-6.672336 -1.807053,-7.543389 0.06764,-0.06764 0.130961,-0.09495 0.183324,-0.08579 z m 10.346538,0.915718 c -0.03482,0.0041 -0.07336,0.01301 -0.115594,0.02709 -0.302162,0.100721 -0.631733,0.430406 -0.732397,0.732395 -0.277399,0.83221 0.678091,0.65714 1.000607,-0.183325 0.151201,-0.394024 0.09115,-0.604995 -0.152616,-0.576162 z m 2.91332,0.543652 c 0.04203,0.0064 0.09185,0.07752 0.147202,0.215835 0.133589,0.333776 0.117434,0.732273 -0.03611,0.885917 -0.153643,0.153643 -0.262994,-0.119448 -0.242927,-0.606867 0.01387,-0.33665 0.06176,-0.505497 0.13185,-0.494885 z m -0.873273,0.158941 c 0.187826,-0.0155 0.288971,0.437854 0.477726,1.555096 0.241507,1.429462 0.445831,1.776648 0.770321,1.307653 0.317979,-0.459589 0.363389,-0.358654 0.16165,0.362133 -0.154155,0.550787 -0.06326,1.135963 0.201388,1.299526 0.264649,0.163563 0.481341,0.50518 0.481341,0.759486 0,0.814268 -0.905635,-0.06327 -1.876594,-1.818794 l -0.941908,-1.7032 0.219448,2.658654 c 0.239394,2.895851 -0.410515,3.649362 -0.899462,1.043052 -0.338694,-1.805387 0.0082,-3.647092 0.936489,-4.972333 0.213016,-0.304122 0.356888,-0.481975 0.469601,-0.491273 z m -4.353729,0.143589 c -0.269315,0 -0.489467,0.208068 -0.489467,0.462374 0,0.254307 0.09105,0.462375 0.203192,0.462375 0.112145,0 0.3332,-0.208068 0.49037,-0.462375 0.157166,-0.254306 0.06522,-0.462374 -0.204095,-0.462374 z m -11.892601,0.231187 0.64299,2.869974 c 0.510153,2.277378 1.079725,3.356152 2.755283,5.219776 2.124584,2.363051 2.556696,3.356107 0.838055,1.92626 -0.508613,-0.423147 -1.496937,-1.461353 -2.19628,-2.307358 -0.699342,-0.846006 -1.27153,-1.301388 -1.27153,-1.012347 0,0.28904 1.05744,1.644319 2.350705,3.011756 1.368467,1.446951 2.286549,2.816916 2.19628,3.277261 -0.132961,0.678049 -0.371918,0.608078 -1.674302,-0.488564 -1.900494,-1.60026 -2.854405,-3.413003 -3.057814,-5.812193 -0.08692,-1.025197 -0.288729,-1.995542 -0.448828,-2.155641 -1.343708,-1.34371 -0.007,4.600821 1.51536,6.738748 0.541258,0.760126 1.709015,1.829615 2.594536,2.376895 1.66993,1.032076 1.79928,1.275929 1.329327,2.500616 -0.396796,1.034036 -0.858053,0.920979 -2.642399,-0.645699 -0.862323,-0.757129 -1.672319,-1.27171 -1.799829,-1.144196 -0.127511,0.127509 -0.520959,-0.137625 -0.87508,-0.588806 -0.585462,-0.74593 -0.570506,-0.763058 0.165263,-0.186033 1.08504,0.850949 1.030256,0.612063 -0.497595,-2.181831 -0.718611,-1.314082 -1.480133,-2.231797 -1.692363,-2.039144 -0.212223,0.192653 -0.214045,0.05347 -0.0036,-0.308852 0.210396,-0.362321 0.334157,-1.854325 0.274535,-3.31519 -0.07347,-1.800258 0.150241,-3.151871 0.694465,-4.195688 z m 0.983449,0.444313 c 0.02788,0.01038 0.05914,0.05419 0.09121,0.133655 0.128268,0.317883 0.128268,0.838054 0,1.155937 -0.128269,0.317882 -0.233896,0.0578 -0.233896,-0.577968 0,-0.476824 0.05906,-0.74278 0.142685,-0.711624 z m -10.642744,0.02077 c 0.295074,-0.03334 0.62526,0.575475 0.897657,1.731195 0.164831,0.699342 0.195787,1.271531 0.06863,1.271531 -0.127153,0 -0.361046,-0.51922 -0.520172,-1.153228 -0.159126,-0.634007 -0.472908,-1.03897 -0.697174,-0.900366 -0.224266,0.138603 -0.27902,-0.08493 -0.121012,-0.496691 0.110883,-0.288955 0.237943,-0.437286 0.372067,-0.452441 z m 21.320709,2.077976 c -0.112145,0 -0.332296,0.208069 -0.489467,0.462375 -0.15717,0.254306 -0.06612,0.462375 0.203192,0.462375 0.269315,0 0.49037,-0.208069 0.49037,-0.462375 0,-0.254306 -0.09195,-0.462375 -0.204095,-0.462375 z m -2.080686,0.462375 c -0.549038,0 -0.651522,0.608265 -0.181518,1.078272 0.169539,0.169537 0.533659,0.291902 0.809155,0.271826 0.277,-0.02019 0.240834,-0.141425 -0.08037,-0.270923 -0.319464,-0.128796 -0.462529,-0.42395 -0.318786,-0.656536 0.143748,-0.232586 0.04084,-0.422639 -0.228478,-0.422639 z m 13.887497,0 c 0.230493,0 0.419027,0.416137 0.419027,0.924749 0,0.508612 -0.08042,0.92475 -0.177908,0.92475 -0.0975,0 -0.286025,-0.416138 -0.419027,-0.92475 -0.133007,-0.508612 -0.05259,-0.924749 0.177908,-0.924749 z M 54.776409,40.6814 c 0.04203,0.0064 0.09185,0.07752 0.147201,0.215835 0.13359,0.333777 0.117434,0.732273 -0.03611,0.885917 -0.153642,0.153643 -0.262994,-0.119447 -0.242927,-0.606867 0.01387,-0.33665 0.06176,-0.505497 0.131851,-0.494885 z m -33.320777,0.319688 c -0.175289,-0.0225 -0.574958,0.238349 -0.959066,0.639378 -0.762589,0.796181 -0.752651,0.806119 0.221253,0.221253 0.560624,-0.336675 0.919961,-0.711896 0.798319,-0.833538 -0.01521,-0.0152 -0.03546,-0.02388 -0.06051,-0.02709 z m 13.447697,0.133656 c 0.125818,-0.03336 0.31255,0.178604 0.444313,0.521977 0.312653,0.814754 0.04683,0.958051 -0.409093,0.220351 -0.167626,-0.271226 -0.206091,-0.592229 -0.08489,-0.71343 0.01515,-0.01515 0.0317,-0.02414 0.04967,-0.0289 z m 14.901646,0.469599 c 0.05527,0.0093 0.116139,0.03386 0.179716,0.07315 0.254306,0.15717 0.462375,0.377322 0.462375,0.489467 0,0.112144 -0.208069,0.204095 -0.462375,0.204095 -0.254306,0 -0.462375,-0.221056 -0.462375,-0.49037 0,-0.201986 0.116856,-0.304217 0.282659,-0.276342 z m 5.117729,2.162866 c -0.06833,0.0023 -0.172817,0.02804 -0.314267,0.07225 -0.615836,0.192447 -2.232169,2.827115 -2.290201,3.733314 -0.05971,0.932392 0.842201,0.187618 1.119816,-0.924749 0.174532,-0.699342 0.664788,-1.666228 1.090011,-2.148417 0.473041,-0.536418 0.599658,-0.739273 0.394641,-0.732394 z m -4.068356,0.453344 c 0.254325,0 0.591484,0.208068 0.748654,0.462374 0.157166,0.254306 0.0773,0.462375 -0.177006,0.462375 -0.254306,0 -0.590577,-0.208069 -0.747743,-0.462375 -0.15717,-0.254306 -0.0782,-0.462374 0.176095,-0.462374 z M 23.13174,44.924048 c 0.02952,-0.003 0.05847,0.0042 0.08669,0.02167 0.225824,0.139566 0.4109,0.409852 0.4109,0.600545 0,0.190692 -0.280849,0.730868 -0.624026,1.200187 -0.563731,0.77095 -0.603674,0.712913 -0.410899,-0.600545 0.102685,-0.699636 0.330698,-1.201067 0.53733,-1.221861 z m 27.944765,0.756778 c 0.03269,-0.0065 0.06807,0.0085 0.105662,0.04606 0.150369,0.150373 0.13678,0.70492 -0.0307,1.232698 -0.305274,0.961836 -1.629145,1.366276 -1.629145,0.497595 0,-0.254306 0.312103,-0.462375 0.693562,-0.462375 0.381459,0 0.693562,-0.347382 0.693562,-0.771227 0,-0.31788 0.06903,-0.523389 0.167065,-0.542748 z m -1.807954,0.12643 c 0.16197,0.01778 0.217589,0.137412 0.147202,0.348587 -0.230392,0.691176 -1.280561,1.071922 -1.280561,0.464181 0,-0.24829 0.328781,-0.57786 0.731491,-0.732394 0.168864,-0.0648 0.304686,-0.09104 0.401868,-0.08037 z M 30.97766,46.793415 c 0.710606,0.08454 2.176803,2.389146 1.724873,2.841075 -0.133103,0.133104 -0.547621,-0.458801 -0.921136,-1.314878 -0.373515,-0.856068 -0.696295,-1.240313 -0.717042,-0.854309 -0.07344,1.366566 2.35263,4.189261 4.775463,5.556623 2.851524,1.609304 4.116875,2.861936 3.89677,3.857035 -0.13075,0.591128 -0.53104,0.518709 -2.467201,-0.446119 -1.271531,-0.633624 -2.770552,-1.664472 -3.330543,-2.290199 -1.615583,-1.805245 -2.016351,-1.330599 -0.98074,1.161355 1.248282,3.003701 3.496669,5.267483 6.251991,6.294436 1.220965,0.455073 2.80856,1.308304 3.527414,1.896458 0.718852,0.588155 1.499107,1.070145 1.733904,1.070145 0.234794,0 0.427155,0.312103 0.427155,0.693562 0,0.513938 -0.508931,0.683279 -1.965092,0.653826 -2.998828,-0.06065 -6.410387,-1.358525 -7.719489,-2.935898 -0.3305,-0.398229 -0.835779,-0.715613 -1.122523,-0.705302 -0.286744,0.01033 0.19871,0.63454 1.079175,1.387124 0.880467,0.752584 1.387739,1.369062 1.127038,1.369062 -0.697455,0 -3.024482,-2.554718 -2.659557,-2.919643 0.171539,-0.171541 -0.0251,-0.684445 -0.437088,-1.139681 -1.1836,-1.307863 -2.933472,-5.670471 -3.2592,-8.126776 -0.37104,-2.798005 0.06605,-5.711556 0.904882,-6.033447 0.03987,-0.0153 0.08357,-0.02009 0.130946,-0.01445 z m 13.333909,0.0036 1.664368,1.76461 c 0.915477,0.970686 1.619845,1.991127 1.56503,2.267622 -0.05482,0.276495 0.316801,0.587489 0.825413,0.690853 0.74814,0.152047 0.814371,0.07339 0.346781,-0.411802 -0.992266,-1.029621 -0.662278,-1.801636 0.77032,-1.801636 0.741728,0 1.453017,-0.260086 1.581285,-0.577968 0.139323,-0.345274 0.248198,-0.252198 0.270022,0.231187 0.02525,0.559603 -0.311257,0.809156 -1.091819,0.809156 -1.445184,0 -1.903874,0.728916 -0.846183,1.344679 0.450386,0.262204 0.559007,0.482648 0.241124,0.49037 -0.317883,0.0077 -0.577968,0.333861 -0.577968,0.724267 0,0.566552 -0.186666,0.609943 -0.92475,0.214932 -0.508612,-0.2722 -0.924749,-0.313646 -0.924749,-0.09121 0,0.222434 0.546911,0.654417 1.215537,0.959066 0.668631,0.304645 1.080875,0.688249 0.916621,0.852503 -0.164259,0.164254 -0.544349,0.05168 -0.845277,-0.249249 -0.796593,-0.796597 -1.503027,-0.670364 -0.824506,0.147202 0.877837,1.057733 0.230489,0.828085 -1.303138,-0.462375 -0.755544,-0.635733 -1.387987,-1.624058 -1.405187,-2.196279 -0.0172,-0.572217 -0.171248,-1.865605 -0.342266,-2.873587 z m -1.290495,0.197774 c -0.269315,0 -0.360362,0.208069 -0.203192,0.462375 0.157166,0.254306 0.377322,0.462374 0.489467,0.462374 0.112144,0 0.204095,-0.208068 0.204095,-0.462374 0,-0.254306 -0.221055,-0.462375 -0.49037,-0.462375 z m 3.421753,0.167069 c 0.07753,-0.02974 0.350476,0.144049 0.885915,0.494885 0.611102,0.400421 1.284291,0.570914 1.495495,0.379292 0.211199,-0.191622 0.233508,-0.0876 0.05058,0.230284 -0.506176,0.879585 -1.571866,0.690364 -2.144808,-0.380195 -0.246969,-0.461466 -0.364712,-0.694533 -0.287177,-0.724266 z m -0.44341,2.654138 c -0.275377,0.0529 -0.173227,0.480998 0.302529,1.369966 0.632991,1.182759 0.938306,1.133544 0.746846,-0.121012 -0.08527,-0.558761 -0.395362,-1.096574 -0.68995,-1.194769 -0.08277,-0.02759 -0.155947,-0.0456 -0.218546,-0.05418 -0.05477,-0.0075 -0.101539,-0.0076 -0.140879,0 z m 3.841684,0.421737 c 0.302873,-0.0039 0.679982,0.201747 0.837152,0.456053 0.35478,0.574052 0.194715,0.574052 -0.693562,0 -0.416738,-0.269315 -0.474475,-0.451892 -0.14359,-0.456053 z m 1.951544,0.738716 c 0.110175,0.0081 0.202123,0.06499 0.269116,0.17339 0.157707,0.255175 -0.245743,0.707111 -0.895851,1.003317 -1.511697,0.688776 -1.496392,1.21765 0.05148,1.806151 0.919775,0.349694 1.329101,0.317119 1.611089,-0.127334 0.20793,-0.327736 0.381913,-0.404058 0.385612,-0.169778 0.0037,0.23428 -0.326021,0.793596 -0.732393,1.242632 -0.833116,0.920578 -0.444485,1.997464 0.57887,1.604765 0.374588,-0.143748 0.546069,-0.05567 0.388321,0.199579 -0.658366,1.065261 -2.382658,-0.392762 -1.912714,-1.617408 0.181583,-0.473203 -0.01577,-0.69898 -0.610478,-0.69898 -0.990795,0 -1.856139,-1.930671 -0.994286,-2.217953 0.292591,-0.09753 0.826837,-0.471928 1.187544,-0.832636 0.255384,-0.255381 0.490071,-0.379217 0.673694,-0.365745 z m -9.20595,0.179712 c -0.02387,0.02387 0.115204,0.211291 0.402771,0.577968 0.604033,0.770201 0.984353,1.014511 0.984353,0.633959 0,-0.09601 -0.36412,-0.460132 -0.809156,-0.809156 -0.366677,-0.287567 -0.554102,-0.426638 -0.577968,-0.402771 z m 11.096993,0 c -0.254306,0 -0.462375,0.208068 -0.462375,0.462374 0,0.254306 0.208069,0.462375 0.462375,0.462375 0.254306,0 0.462375,-0.208069 0.462375,-0.462375 0,-0.254306 -0.208069,-0.462374 -0.462375,-0.462374 z m -8.140324,0.688143 c -0.250493,-0.01597 -0.232563,0.312852 0.270019,0.918428 0.321684,0.387608 0.800338,0.705302 1.06292,0.705302 0.262583,0 0.09957,-0.418192 -0.362131,-0.928362 -0.418361,-0.462269 -0.775981,-0.682943 -0.970808,-0.695368 z m 6.388354,0.732394 c 0.0599,0.0018 0.109805,0.0195 0.145399,0.05509 0.142355,0.14236 -0.113842,0.401625 -0.569845,0.575259 -0.658972,0.250921 -0.712431,0.197468 -0.259179,-0.259183 0.235233,-0.236997 0.503933,-0.376454 0.683625,-0.371164 z m 13.14607,0.567132 c -0.07222,-0.0073 -0.225302,0.04053 -0.463277,0.131849 -0.417427,0.16018 -0.758581,0.476395 -0.758581,0.703495 0,0.594596 0.266994,0.511541 0.932873,-0.29079 0.305394,-0.367978 0.40935,-0.532438 0.288985,-0.544554 z m -41.639003,0.512044 c 0.343223,0.02425 0.652924,0.362134 0.652924,0.81367 0,0.21192 -0.195985,0.385614 -0.435282,0.385614 -0.62756,0 -1.03991,-0.816141 -0.561713,-1.111686 0.111781,-0.06909 0.229664,-0.09568 0.344071,-0.0876 z m 22.071165,0.386516 1.890136,0.857921 c 1.039636,0.472164 2.255163,0.863164 2.700199,0.868759 0.445035,0.0056 0.809155,0.237188 0.809155,0.51385 0,0.329539 -0.677707,0.401658 -1.965092,0.209513 l -1.965092,-0.293499 1.138778,0.985255 c 0.868515,0.750781 1.610395,0.94736 3.121029,0.827218 1.366737,-0.1087 1.98225,0.02263 1.98225,0.423542 0,0.319718 -0.156051,0.597335 -0.346781,0.616801 -0.190729,0.01946 -0.658883,0.09069 -1.040342,0.158941 -2.233145,0.399509 -5.701633,-1.914425 -6.11563,-4.080095 z m 10.023237,0.350393 c -0.254306,0 -0.462375,0.208069 -0.462375,0.462375 0,0.254306 0.208069,0.462374 0.462375,0.462374 0.254306,0 0.462374,-0.208068 0.462374,-0.462374 0,-0.254306 -0.208068,-0.462375 -0.462374,-0.462375 z m 9.736958,0 c -0.269315,0 -0.489466,0.208069 -0.489466,0.462375 0,0.254306 0.09105,0.462374 0.203191,0.462374 0.112144,0 0.333201,-0.208068 0.490371,-0.462374 0.157171,-0.254306 0.06522,-0.462375 -0.204096,-0.462375 z m -22.914637,0.231188 0.880498,1.040342 c 0.484453,0.572189 0.952607,1.040343 1.040343,1.040343 0.370021,0 0.09717,-0.372433 -0.880498,-1.200187 z m -8.773379,0.245636 c 0.252437,-0.01822 0.782672,0.260379 1.587607,0.843472 1.006868,0.729368 2.463347,1.587898 3.236622,1.908199 0.773276,0.3203 1.406089,0.854494 1.406089,1.186641 0,0.332147 0.520172,1.012556 1.155937,1.512651 0.635765,0.500095 1.155936,0.991283 1.155936,1.090915 0,0.09964 -0.426595,0.180616 -0.947326,0.180616 -1.661193,0 -5.217199,-2.282315 -6.533751,-4.193883 -1.131865,-1.643415 -1.481842,-2.49825 -1.061114,-2.528611 z m 30.366817,0.02348 c -0.06518,0.01655 -0.08367,0.194287 -0.0867,0.54004 -0.0037,0.445035 -0.318424,0.809155 -0.699883,0.809155 -0.385315,0 -0.693562,0.411 -0.693562,0.92475 0,1.111123 0.597231,1.185438 1.584896,0.197773 0.841794,-0.841795 0.875756,-1.101582 0.264603,-2.047272 -0.191518,-0.296309 -0.304166,-0.440946 -0.369352,-0.424396 z m -7.695107,0.893142 c -0.239339,-0.0039 -0.03176,0.288645 0.461473,0.649311 0.493243,0.360666 0.995114,0.557274 1.115299,0.437089 0.254472,-0.254473 -0.937655,-1.075996 -1.576772,-1.0864 z m -32.8286,0.456053 c 0.112145,0 0.204096,0.208069 0.204096,0.462375 0,0.254306 -0.221056,0.462375 -0.49037,0.462375 -0.269315,0 -0.360362,-0.208069 -0.203192,-0.462375 0.15717,-0.254306 0.377321,-0.462375 0.489466,-0.462375 z m 38.079983,0.05689 c -0.160624,-0.0066 -0.34335,0.02262 -0.510235,0.0894 -0.368855,0.1476 -0.259591,0.256856 0.279048,0.279051 0.487421,0.02008 0.760509,-0.08928 0.606867,-0.242928 -0.07682,-0.07681 -0.215051,-0.118914 -0.37568,-0.125527 z m 1.915424,0.405481 c 0.269315,0 0.361267,0.208069 0.204097,0.462375 -0.157171,0.254306 -0.378227,0.462374 -0.490372,0.462374 -0.112144,0 -0.20319,-0.208068 -0.20319,-0.462374 0,-0.254306 0.22015,-0.462375 0.489465,-0.462375 z m -8.322743,0.462375 c 0.269314,0 0.361262,0.208068 0.204096,0.462374 -0.15717,0.254306 -0.378227,0.462375 -0.490371,0.462375 -0.112144,0 -0.203191,-0.208069 -0.203191,-0.462375 0,-0.254306 0.220151,-0.462374 0.489466,-0.462374 z m -4.244456,0.0587 c 0.251416,0.0031 0.485562,0.03692 0.642085,0.100242 0.313042,0.126658 -0.05436,0.222558 -0.817279,0.213125 -0.762918,-0.0094 -1.019721,-0.113053 -0.569844,-0.230284 0.224936,-0.05863 0.493621,-0.08619 0.745038,-0.08308 z m 2.955767,0.04064 c 0.06673,0.02223 0.18408,0.29214 0.399158,0.825411 l 0.447024,1.108073 c -0.547807,-0.02884 -0.966058,-0.487648 -0.942809,-1.273336 0.0135,-0.457122 0.02992,-0.682377 0.09663,-0.660148 z m 10.046716,1.287785 c 0.254306,0 0.462375,0.208069 0.462375,0.462375 0,0.254306 -0.208069,0.462375 -0.462375,0.462375 -0.254306,0 -0.462374,-0.208069 -0.462374,-0.462375 0,-0.254306 0.208068,-0.462375 0.462374,-0.462375 z m -38.001417,0.04516 c 0.215862,0.0038 0.51999,0.214517 0.771226,0.558101 0.454804,0.621986 0.669544,0.680174 0.849794,0.230284 0.132812,-0.33149 0.258062,-0.160163 0.278147,0.381098 0.02008,0.541047 0.32622,1.223545 0.680016,1.517167 0.769109,0.638303 1.241874,3.279067 0.586999,3.279067 -0.252646,0 -0.32266,0.136104 -0.155329,0.303433 0.167331,0.167333 0.08602,0.56735 -0.180615,0.888626 -0.373051,0.449498 -0.251276,0.523554 0.528299,0.319689 0.717625,-0.187664 0.952649,-0.0846 0.806446,0.354005 -0.65976,1.979284 -2.914354,-0.135675 -2.579183,-2.419339 0.218165,-1.486456 -0.160935,-2.573927 -1.458467,-4.189367 -0.358708,-0.446594 -0.497622,-0.966264 -0.308852,-1.155034 0.04719,-0.04719 0.109564,-0.069 0.181519,-0.06773 z m 35.81236,0.507528 c 0.07272,0.01932 0.176886,0.129718 0.303433,0.329623 0.226883,0.358396 0.305121,0.930584 0.174292,1.27153 -0.130833,0.340941 -0.445576,0.620413 -0.699882,0.620413 -0.254306,0 -0.335883,-0.32923 -0.181519,-0.731491 0.154359,-0.402257 0.283482,-0.974446 0.287181,-1.271531 0.0023,-0.165703 0.04379,-0.237864 0.116495,-0.218544 z m -13.130719,0.0072 c 0.05254,5.09e-4 0.114984,0.01354 0.188746,0.04064 0.311271,0.114355 0.514212,0.442688 0.450635,0.728782 -0.144908,0.652059 1.730142,0.674517 3.397367,0.04064 0.783878,-0.298028 1.425062,-0.316066 1.694169,-0.04696 0.269106,0.269106 -0.197513,0.660923 -1.231794,1.034924 -0.915335,0.330986 -1.663462,0.788199 -1.663462,1.01596 0,0.425209 3.310154,0.207845 5.779683,-0.379292 l 1.387124,-0.329622 -1.030411,1.071047 c -1.366844,1.422066 -4.943853,1.645841 -6.937428,0.433477 -1.307531,-0.795156 -2.822672,-3.617269 -2.034629,-3.609593 z m 12.261959,0.07947 c 0.165807,0.0073 0.283569,0.191213 0.283569,0.488564 0,0.396468 -0.208068,0.721557 -0.462374,0.721557 -0.254306,0 -0.462375,-0.195985 -0.462375,-0.435283 0,-0.239297 0.208069,-0.563483 0.462375,-0.720653 0.06358,-0.03929 0.123537,-0.05663 0.178805,-0.05419 z m -1.276043,0.02529 c 0.06999,0.02264 0.122917,0.223661 0.135461,0.568034 0.02007,0.550994 0.297113,1.106237 0.614996,1.234505 0.452688,0.182665 0.449469,0.241445 -0.01443,0.270019 -0.701843,0.04324 -1.212578,-1.073454 -0.875081,-1.913617 0.04915,-0.122351 0.09708,-0.172524 0.139073,-0.158941 z m -3.745055,1.425956 c 0.40591,0.02672 0.411699,0.278554 -0.257376,0.70169 -0.374098,0.236583 -1.200186,0.425084 -1.835951,0.419027 -1.050594,-0.01002 -1.01304,-0.0732 0.416318,-0.693562 0.603889,-0.262095 1.126377,-0.397958 1.479238,-0.424446 0.07349,-0.0055 0.139785,-0.0064 0.197771,-0.0027 z m 7.600283,0.221254 c 0.86386,0 0.501991,0.971834 -0.873273,2.347093 -0.743355,0.74336 -1.788677,1.351904 -2.322711,1.351904 -0.92203,0 -0.934029,-0.05717 -0.234798,-1.124329 0.778282,-1.187813 2.62693,-2.574668 3.430782,-2.574668 z m -37.39184,0.009 c 0.03462,-0.0027 0.163512,0.193242 0.415415,0.586096 0.291505,0.454616 0.427605,1.078822 0.30253,1.387124 -0.164132,0.404568 -0.237351,0.409721 -0.263697,0.01987 -0.02008,-0.297085 -0.156176,-0.921291 -0.302531,-1.387124 -0.126471,-0.402546 -0.186337,-0.603286 -0.151717,-0.605964 z m 39.116715,0.02529 c 0.34249,-0.01163 0.603256,0.410133 0.603256,1.27153 0,1.32401 -1.170127,2.733047 -3.091229,3.722478 -1.354147,0.697427 -4.207614,0.627444 -5.985583,-0.146299 -1.650368,-0.718215 -2.484829,-1.68045 -1.155937,-1.332939 0.54409,0.142287 1.494871,-0.3261 2.559313,-1.260693 2.173499,-1.908359 2.61736,-1.495041 0.717948,0.668276 l -1.463887,1.667077 1.551484,-0.0018 c 2.05335,-0.0023 4.528409,-1.563028 5.168299,-3.258296 0.329363,-0.872582 0.753846,-1.317695 1.096336,-1.329328 z m 9.587047,1.187545 c 0.101958,0.01991 0.148108,0.290066 0.148108,0.824508 0,0.671344 0.370034,1.630167 0.822698,2.130355 0.452661,0.500183 0.608462,0.909397 0.34588,0.909397 -1.099448,0 -2.215773,-2.59414 -1.563224,-3.633073 0.103512,-0.164804 0.185366,-0.243133 0.246538,-0.231187 z m -7.569577,0.165263 c -0.269315,0 -0.489465,0.208068 -0.489465,0.462374 0,0.254306 0.09105,0.462375 0.203191,0.462375 0.112144,0 0.333201,-0.208069 0.490371,-0.462375 0.15717,-0.254306 0.06522,-0.462374 -0.204097,-0.462374 z m -41.072776,1.155936 0.320592,1.633664 c 0.176099,0.898708 0.476249,1.887034 0.667373,2.196279 0.444103,0.718559 0.175715,0.722059 -0.539136,0.0072 -0.305167,-0.305167 -0.531355,-1.293493 -0.50211,-2.196279 z m 39.269335,2.080686 c -0.21389,0 -0.953745,1.038218 -1.6445,2.307356 -0.918535,1.68765 -1.063055,2.2331 -0.536429,2.03102 0.396033,-0.15197 0.720657,-0.67204 0.720657,-1.15594 0,-0.48389 0.416137,-1.236103 0.924749,-1.671591 0.962119,-0.823789 1.205499,-1.510845 0.535523,-1.510845 z m -27.034468,0.0063 c 0.302874,-0.0039 0.679981,0.201747 0.837151,0.456053 0.35478,0.574052 0.194715,0.574052 -0.693562,0 -0.416738,-0.269315 -0.474473,-0.451893 -0.143589,-0.456053 z m 1.799829,0.665566 c 0.03572,-0.0072 0.08091,-0.0073 0.135462,9.25e-4 0.07273,0.01084 0.161731,0.03548 0.264601,0.07496 0.394664,0.151451 0.717945,0.357009 0.717945,0.456956 0,0.374482 -0.881698,0.163915 -1.153228,-0.275438 -0.09112,-0.147432 -0.07194,-0.235889 0.03522,-0.257376 z m 13.920909,0.259183 c -0.330884,0.0043 -0.273148,0.186738 0.143591,0.456053 0.888277,0.574052 1.048342,0.574052 0.693562,0 -0.157171,-0.254306 -0.534279,-0.459752 -0.837153,-0.456053 z M 33.82596,66.67906 c -0.01611,0.005 -0.02438,0.02251 -0.02438,0.05328 0,0.889947 2.92238,4.833827 4.439518,5.991007 0.853923,0.65132 2.752772,1.67778 4.220072,2.28117 1.467295,0.60338 3.084725,1.09503 3.593338,1.09272 0.508613,-0.002 -0.289227,-0.42166 -1.772738,-0.93198 -4.477923,-1.54037 -6.702168,-3.23835 -9.276391,-7.08191 -0.579663,-0.865499 -1.066613,-1.439349 -1.179417,-1.404289 z m 28.389983,0.876887 c -0.05145,-0.0047 -0.109407,-0.0024 -0.171583,0.0063 -0.0829,0.01158 -0.173751,0.03475 -0.269116,0.07134 -0.381459,0.14639 -0.693562,0.44555 -0.693562,0.66467 0,0.21912 0.312103,0.27913 0.693562,0.13275 0.381459,-0.14638 0.693562,-0.44555 0.693562,-0.66466 0,-0.12326 -0.09851,-0.196422 -0.252863,-0.21042 z m 6.50937,0.03883 c 0.286978,-0.0043 0.450445,0.29348 0.72517,1.00693 0.728517,1.89203 0.09413,5.62549 -1.300429,7.65176 -1.62268,2.35771 -5.068976,4.81153 -7.565064,5.38684 -2.341261,0.53964 -5.250402,0.54768 -8.360672,0.0226 -2.610997,-0.44081 -7.745112,-2.82676 -8.951286,-4.15956 -0.874378,-0.96618 -0.872893,-0.96885 0.485855,-0.72246 6.021846,1.09197 8.451879,0.78216 12.005487,-1.53252 1.921749,-1.25175 2.593885,-1.49899 4.156854,-1.5271 1.793801,-0.0323 3.472328,-0.92382 3.472328,-1.84408 0,-0.62339 0.266633,-0.85362 0.874174,-0.75317 0.930455,0.15384 2.824823,-1.27281 2.824823,-2.12764 0,-0.28088 0.418934,-0.77233 0.931971,-1.09273 0.31184,-0.19475 0.528601,-0.306286 0.700789,-0.308849 z m -15.700874,1.31398 c -0.129067,0.0195 -0.319681,0.13253 -0.568032,0.33865 -0.420544,0.34902 -0.836681,0.58284 -0.924749,0.51927 -0.394956,-0.28513 -1.084592,-0.0738 -1.084592,0.33233 0,0.24632 0.284115,0.33855 0.632149,0.205 0.375448,-0.14407 0.733867,0.14383 0.881402,0.70801 0.136765,0.523 0.376104,0.95094 0.531911,0.95094 0.155802,0 0.153328,-0.52017 -0.0063,-1.15594 -0.178763,-0.71224 -0.09363,-1.15594 0.222157,-1.15594 0.281873,0 0.51295,-0.23382 0.51295,-0.51926 0,-0.16857 -0.0678,-0.24258 -0.196875,-0.22306 z m 6.355848,0.2935 c -0.704354,-0.0182 -2.00223,1.2797 -1.984059,1.98405 0.0077,0.29972 0.222153,0.18769 0.476824,-0.24925 0.254676,-0.43693 0.821053,-1.00331 1.257987,-1.25798 0.43693,-0.25468 0.548968,-0.4691 0.249248,-0.47682 z m 7.817021,0.99699 c -0.06706,0.0374 -0.08504,0.27898 -0.09121,0.74594 -0.03884,2.93771 -4.717068,7.47163 -7.735745,7.49733 -0.457668,0.004 -1.143832,0.20954 -1.525291,0.45606 -0.986176,0.63731 -0.03079,0.5661 2.456365,-0.18242 4.121372,-1.24035 8.456592,-6.02422 7.283302,-8.03738 -0.203856,-0.34977 -0.320365,-0.51694 -0.387419,-0.47953 z m -37.133561,3.20772 c 0.160627,0.007 0.298858,0.0487 0.375679,0.12553 0.153643,0.15364 -0.119447,0.263 -0.606866,0.24293 -0.53864,-0.0222 -0.647902,-0.13145 -0.27905,-0.27905 0.166888,-0.0668 0.34961,-0.096 0.510237,-0.0894 z m 49.416291,0.0172 c 0.0677,0.0338 0.0908,0.23598 0.0966,0.61951 0.0119,0.78037 0.09,0.81647 0.50392,0.23119 0.3249,-0.45932 0.43624,-0.48701 0.32872,-0.0813 -0.0893,0.33696 -0.3422,0.57902 -0.56172,0.53824 -0.21951,-0.0408 -0.57492,0.20404 -0.79019,0.54365 -0.31408,0.49549 -0.39193,0.4807 -0.39193,-0.0759 0,-0.38146 0.20231,-1.00567 0.44883,-1.38712 0.18589,-0.28765 0.29809,-0.42215 0.36574,-0.38833 z m -19.727683,0.8787 c -0.0098,-0.006 -0.02682,-0.006 -0.04967,0.002 -0.152463,0.0489 -0.587729,0.39969 -1.208314,0.98796 -1.896679,1.79793 -5.005326,3.36385 -5.756204,2.89978 -0.243112,-0.15025 -0.4416,-0.0702 -0.4416,0.1779 0,0.24813 0.260086,0.55828 0.577968,0.68995 0.870536,0.3606 4.045779,0.17137 4.045779,-0.24112 0,-0.19823 -0.676223,-0.25581 -1.502718,-0.12823 -1.354628,0.2091 -1.395197,0.18468 -0.407287,-0.24835 1.396538,-0.61214 3.799161,-2.62463 4.639999,-3.88684 0.100455,-0.15079 0.131573,-0.2335 0.10205,-0.25286 z m 18.171684,1.12794 -0.803736,0.97351 c -0.44965,0.54502 -0.674512,1.30817 -0.511142,1.73391 0.160491,0.41823 0.18766,0.76039 0.06051,0.76039 -0.127153,0 -0.36584,-0.35038 -0.530108,-0.77845 -0.190152,-0.49554 0.08031,-1.12549 0.74323,-1.73391 z m -27.515808,1.21283 c 0.160629,0.007 0.29886,0.0487 0.375679,0.12552 0.153643,0.15365 -0.119445,0.263 -0.606867,0.24293 -0.538638,-0.0222 -0.647902,-0.13145 -0.279047,-0.27905 0.166885,-0.0668 0.34961,-0.096 0.510235,-0.0894 z m 21.524806,0.67821 c -0.158923,0.0166 -0.39005,0.11568 -0.679113,0.29621 -0.508612,0.31763 -0.924749,0.96373 -0.924749,1.43498 0,0.47125 -0.416137,0.96514 -0.924749,1.09814 -0.517217,0.13526 -0.924749,0.63081 -0.924749,1.12433 0,0.60456 -0.424169,0.96698 -1.346486,1.15142 -0.812758,0.16256 -1.441624,0.63368 -1.586704,1.18845 -0.191853,0.73364 -0.502721,0.86399 -1.54336,0.64751 -0.925258,-0.19249 -1.638484,0.005 -2.45907,0.67911 -1.114623,0.916 -1.119562,0.93927 -0.119209,0.65924 0.8478,-0.23732 0.981353,-0.14414 0.730588,0.50934 -0.209497,0.54595 -0.134047,0.6929 0.237508,0.46328 0.3092,-0.19111 0.664202,-0.0242 0.821802,0.38651 0.405479,1.05657 0.754822,0.88506 0.409997,-0.20138 -0.174926,-0.55115 -0.08374,-0.92475 0.22667,-0.92475 0.28645,0 0.392875,-0.20807 0.235705,-0.46238 -0.157171,-0.2543 0.134634,-0.46237 0.649308,-0.46237 0.514673,0 1.147304,-0.39503 1.405184,-0.87689 0.552047,-1.0315 3.109044,-2.05708 3.510256,-1.40789 0.147784,0.23911 0.517119,0.43175 0.819993,0.42805 0.332332,-0.004 0.275876,-0.18761 -0.142684,-0.46237 -0.616498,-0.4047 -0.616498,-0.5065 0,-0.9112 0.590101,-0.38738 0.59306,-0.45637 0.02256,-0.46238 -0.521457,-0.006 -0.547142,-0.13016 -0.115594,-0.56171 0.305168,-0.30517 0.555396,-0.90692 0.555396,-1.33746 0,-0.43054 0.312102,-0.90299 0.693561,-1.04937 0.38146,-0.14638 0.693562,-0.4824 0.693562,-0.74684 0,-0.1503 -0.08672,-0.2162 -0.245636,-0.19958 z m -33.000186,6.95097 c 0.234455,0.004 0.585625,0.0371 0.997899,0.0993 l 1.500008,0.22577 -1.387124,0.37748 c -0.762626,0.20758 -1.646918,0.73345 -1.965092,1.16858 -0.318178,0.43514 -0.577968,0.55838 -0.577968,0.27363 0,-0.28475 0.301634,-0.82002 0.670985,-1.18934 0.369349,-0.36935 0.579084,-0.76379 0.465987,-0.87689 -0.05655,-0.0566 0.06085,-0.0823 0.295305,-0.0786 z m 20.677717,0.40458 c -0.461718,0.006 -1.303133,0.70177 -1.303133,1.21734 0,0.22532 0.401882,0.15746 0.894042,-0.1499 0.492166,-0.30736 0.786269,-0.73519 0.652924,-0.95094 -0.05108,-0.0827 -0.137265,-0.11791 -0.243833,-0.1165 z m -3.48677,0.504 c -0.751756,-0.0526 -1.195104,0.48345 -1.377192,1.65082 -0.07932,0.50856 0.149611,0.715 0.680019,0.61318 0.43989,-0.0844 1.072293,-0.16927 1.405184,-0.18874 0.332915,-0.0195 0.474004,-0.24727 0.314272,-0.50572 -0.159737,-0.25845 -0.515973,-0.33044 -0.791997,-0.15985 -0.309527,0.1913 -0.36811,0.094 -0.152621,-0.25466 0.192168,-0.31116 0.651532,-0.44952 1.020475,-0.30795 0.368947,0.14158 0.559034,0.0771 0.422638,-0.14359 -0.1364,-0.2207 -0.667095,-0.51172 -1.179416,-0.6457 -0.120097,-0.0314 -0.233971,-0.0503 -0.341362,-0.0578 z m -13.828795,1.62553 c 0.063,0.0223 0.177347,0.12082 0.348587,0.29079 0.315996,0.31365 0.458433,0.68667 0.316077,0.82903 -0.142361,0.14236 -0.401623,-0.11385 -0.575259,-0.56985 -0.156829,-0.41186 -0.194397,-0.58715 -0.0894,-0.54997 z m 3.951858,3.24565 c 0.160629,0.007 0.29886,0.0487 0.375679,0.12553 0.153643,0.15365 -0.119445,0.263 -0.606866,0.24293 -0.538639,-0.0222 -0.647905,-0.13145 -0.27905,-0.27905 0.166887,-0.0668 0.349611,-0.096 0.510237,-0.0894 z m 14.102427,0.615 c 0.107164,0.0215 0.126269,0.10995 0.03523,0.25737 -0.155371,0.2514 -0.478645,0.45787 -0.717942,0.45787 -0.665094,0 -0.518359,-0.332 0.282663,-0.63939 0.102864,-0.0395 0.191867,-0.0641 0.264599,-0.075 0.05455,-0.008 0.09974,-0.008 0.135461,-9.3e-4 z m 8.654173,0.0262 c -0.135272,0.0131 -0.269241,0.0324 -0.395547,0.0632 0.06003,0.003 0.120416,0.002 0.240217,0.0144 0.01678,0.002 0.0412,-0.002 0.06322,-0.005 0.02483,-0.0303 0.06068,-0.0494 0.09211,-0.0731 z"
     style="fill:#000000;stroke-width:0.46237463"
     id="pathGL4" />
</svg>
