<?xml version="1.0" encoding="UTF-8" standalone="no"?>
<svg
   xmlns:dc="http://purl.org/dc/elements/1.1/"
   xmlns:cc="http://creativecommons.org/ns#"
   xmlns:rdf="http://www.w3.org/1999/02/22-rdf-syntax-ns#"
   xmlns:svg="http://www.w3.org/2000/svg"
   xmlns="http://www.w3.org/2000/svg"
   id="svgGL5"
   version="1.1"
   viewBox="0 0 100 100"
   height="100"
   width="100">
  <defs
     id="defs2" />
  <metadata
     id="metadata5">
    <rdf:RDF>
      <cc:Work
         rdf:about="">
        <dc:format>image/svg+xml</dc:format>
        <dc:type
           rdf:resource="http://purl.org/dc/dcmitype/StillImage" />
        <dc:title></dc:title>
      </cc:Work>
    </rdf:RDF>
  </metadata>
  <path
     id="pathGL5"
     d="m 39.98028,94.217971 c -0.414278,-0.45777 -1.107454,-0.94474 -1.540393,-1.08215 -0.648973,-0.20597 -0.709133,-0.41137 -0.342688,-1.16998 0.410162,-0.84912 0.397326,-0.86172 -0.166269,-0.16318 -0.438362,0.54331 -0.920838,0.67913 -1.709399,0.48122 -0.92365,-0.23183 -1.098656,-0.13418 -1.098656,0.61302 0,0.48883 -0.189691,0.88877 -0.421536,0.88877 -0.231845,0 -0.421536,-0.33717 -0.421536,-0.74928 0,-0.4121 -0.249251,-1.12344 -0.553891,-1.58076 -0.665792,-0.99946 -0.809424,-2.61763 -0.262358,-2.95574 0.217092,-0.13417 0.379737,-0.65955 0.361434,-1.16752 -0.03208,-0.89043 -0.08133,-0.81815 -0.655099,0.96152 -0.176127,0.54629 -0.246968,0.54629 -0.592452,0 -0.480987,-0.76056 -0.522955,-1.37526 -0.07499,-1.0984 0.412172,0.25473 0.351967,-2.34221 -0.07013,-3.02518 -0.340285,-0.5506 -1.133037,-0.69009 -1.053342,-0.18535 0.124115,0.78605 -0.0809,1.4006 -0.401198,1.20264 -0.193204,-0.1194 -0.35128,0.0561 -0.35128,0.38997 0,0.41729 0.154881,0.47853 0.495449,0.19588 0.553228,-0.45914 1.050183,-0.1367 1.050183,0.68139 0,0.30562 -0.353519,0.46977 -0.818758,0.38017 -0.590621,-0.11374 -0.750459,0.0203 -0.573641,0.48108 0.16069,0.41876 0.342844,0.48064 0.528856,0.17966 0.161952,-0.26204 0.601747,0.20777 1.024626,1.09455 0.581157,1.2187 0.60586,1.4416 0.114583,1.03387 -0.514656,-0.42713 -0.675257,-0.36554 -0.900926,0.34548 -0.444696,1.40112 -1.059686,0.99211 -1.075821,-0.71549 -0.0082,-0.86942 -0.289336,-2.05499 -0.624712,-2.6346 l -0.609774,-1.05384 0.09779,1.00737 c 0.05379,0.55406 -0.129694,1.08831 -0.407732,1.18722 -0.377779,0.1344 -0.404409,-0.17272 -0.105384,-1.21536 0.220077,-0.76736 0.40014,-1.95604 0.40014,-2.64152 0,-0.96935 -0.11241,-1.1339 -0.505844,-0.74047 -0.84936,0.84936 -1.23626,0.56352 -0.599093,-0.44261 0.330354,-0.52165 0.729181,-1.56495 0.886283,-2.31845 0.266731,-1.2793 0.209899,-1.36999 -0.858541,-1.36999 H 27 l 1.005304,-0.79077 c 1.014085,-0.79768 1.946547,-0.97912 1.732547,-0.33712 -0.0637,0.19111 0.08778,0.22165 0.336622,0.0678 0.315884,-0.19522 0.319278,-0.44009 0.01125,-0.81124 -0.430016,-0.51814 0.481326,-3.06859 1.293449,-3.61981 0.179807,-0.12204 0.150149,-0.50143 -0.06591,-0.84307 -0.543763,-0.85985 -0.496504,-1.61152 0.05231,-0.83195 0.325285,0.46206 0.37288,0.0901 0.176776,-1.38139 -0.246223,-1.84758 -0.14406,-2.18302 1.238496,-4.06644 2.18717,-2.97952 3.765776,-6.70937 3.152432,-7.448404 -0.696936,-0.839754 -0.183935,-1.835245 0.811589,-1.574913 0.717179,0.18755 0.886391,-0.09008 1.240318,-2.035016 0.296911,-1.631614 0.423638,-1.892031 0.459916,-0.945101 0.02754,0.718896 -0.163181,1.918841 -0.423829,2.666536 -0.332595,0.95408 -0.341215,1.492141 -0.02891,1.804444 0.312305,0.312308 0.642404,-0.168576 1.107026,-1.612695 l 0.66203,-2.057695 -0.196722,2.529216 c -0.108197,1.391069 -0.319786,3.145708 -0.470196,3.899208 -0.35401,1.77344 0.386785,1.79542 1.116743,0.0331 0.892426,-2.1545 0.670555,-4.933191 -0.590605,-7.39666 -0.71887,-1.4042 -1.33025,-2.12138 -1.690561,-1.983112 -0.745962,0.286253 -1.703561,-0.901927 -1.388532,-1.722881 0.387423,-1.009608 1.383485,-1.185532 2.776834,-0.490436 1.479428,0.738038 1.574311,0.64288 2.381354,-2.388217 0.86651,-3.254439 0.663557,-6.359363 -0.406318,-6.216181 -0.829081,0.110965 -1.125923,-0.04525 -1.533633,-0.80706 -0.568876,-1.062958 0.126145,-2.529216 1.198874,-2.529216 0.830051,0 2.680139,1.229892 1.882142,1.251202 -0.276123,0.0074 -0.619279,-0.176285 -0.762567,-0.40813 -0.417359,-0.675305 -1.781875,-0.486264 -2.078995,0.288026 -0.167531,0.436575 0.05838,1.040229 0.587204,1.56905 0.783644,0.783646 0.859487,0.793232 0.859487,0.108633 0,-0.412971 0.189691,-0.633621 0.421536,-0.490333 0.231844,0.143288 0.421536,0.02802 0.421536,-0.256146 0,-0.515575 0.618916,-0.136277 0.647243,0.396658 0.04263,0.802118 1.142834,2.163458 1.546721,1.913844 0.266781,-0.164883 0.347147,-0.09618 0.188249,0.160921 -0.425186,0.687968 0.182508,1.865892 0.833706,1.616005 0.334096,-0.128206 0.577904,0.04991 0.577904,0.422185 0,0.363503 -0.203252,0.518338 -0.466695,0.35552 -0.697726,-0.431219 -0.01488,1.536536 0.887376,2.557126 1.294107,1.463847 2.090064,3.442891 2.575716,6.40416 0.900679,5.491952 0.91558,6.443432 0.13291,8.487112 -0.414985,1.08359 -0.715102,2.56779 -0.666925,3.29822 0.102286,1.55074 -1.187214,5.03614 -2.671189,7.22 -0.702313,1.03355 -0.886773,1.62352 -0.569011,1.81991 0.298831,0.18469 0.123645,0.47605 -0.480711,0.79949 -0.625028,0.3345 -0.852704,0.35003 -0.664375,0.0453 0.388981,-0.62938 0.320979,-0.60972 -2.047745,0.59201 -1.140555,0.57864 -2.49552,1.05208 -3.011035,1.05208 -0.515514,0 -1.0511,0.29655 -1.190189,0.65902 -0.276106,0.71952 -1.105861,0.44097 -1.095462,-0.36775 0.0039,-0.30166 0.169553,-0.24967 0.415081,0.13026 0.361256,0.559 0.409374,0.5575 0.415081,-0.013 0.0035,-0.3549 -0.515196,-0.87484 -1.152769,-1.15542 -0.637574,-0.28059 -1.805902,-0.98753 -2.596286,-1.57098 -1.771426,-1.30766 -2.072186,-1.09543 -1.01438,0.71578 1.24179,2.12624 3.262009,3.28819 5.716977,3.28819 2.696433,0 4.52493,-0.89649 7.208849,-3.5344 1.194431,-1.17394 2.361386,-2.07614 2.593231,-2.00487 0.231844,0.0713 0.26346,-0.0285 0.07026,-0.2217 -0.193203,-0.1932 -0.525162,-0.35128 -0.737688,-0.35128 -0.212526,0 -0.344593,-0.18969 -0.293482,-0.42154 0.05111,-0.23184 0.32425,-0.36841 0.606978,-0.30349 0.282729,0.0649 0.916959,-0.78868 1.409398,-1.89691 1.569222,-3.53149 2.185369,-7.14132 2.034758,-11.921054 -0.122582,-3.890259 -0.287331,-4.717945 -1.36079,-6.836458 -0.671726,-1.325685 -1.407677,-2.295159 -1.635446,-2.154391 -0.227768,0.140772 -0.326534,-0.0068 -0.219481,-0.327993 0.275693,-0.82707 -1.605272,-4.842129 -3.434793,-7.331831 -1.407868,-1.915898 -1.514495,-2.249061 -1.171828,-3.661443 0.419989,-1.731063 -0.31248,-6.244653 -1.013381,-6.244653 -0.229092,0 -0.2936,-0.198903 -0.143356,-0.442005 0.422033,-0.682865 1.455079,0.37052 1.187138,1.210512 -0.169378,0.531004 -0.126276,0.568553 0.173255,0.150924 0.298473,-0.416156 0.758761,0.0078 1.830584,1.686144 0.787522,1.233149 1.919224,2.656644 2.514901,3.163322 0.595676,0.506679 1.713898,2.2139 2.484938,3.793825 3.262655,6.685464 3.566633,7.204008 4.102532,6.998366 0.689072,-0.264421 0.379584,-1.753139 -0.941636,-4.52954 -0.572425,-1.202892 -0.844493,-2.276365 -0.641022,-2.529217 0.716742,-0.890689 1.391436,-5.240551 1.21899,-7.859053 -0.215405,-3.270862 -1.780931,-6.896047 -3.887945,-9.003062 -1.854004,-1.854002 -2.179194,-1.886777 -1.21525,-0.122481 0.603247,1.104115 0.748513,2.385773 0.748513,6.604026 0,3.583838 0.153553,5.28523 0.487026,5.396414 0.267865,0.08931 0.678534,-0.46394 0.912596,-1.229442 0.59034,-1.930692 0.892265,-5.429752 0.444648,-5.15311 -0.202893,0.125393 -0.371482,-0.210012 -0.374648,-0.745346 -0.0034,-0.535333 -0.123818,-1.447562 -0.268118,-2.027174 -0.451836,-1.814941 0.470965,-0.369017 1.294187,2.02784 0.588637,1.713846 0.724987,3.074705 0.581665,5.805345 -0.102964,1.961705 -0.401804,3.781337 -0.664096,4.043626 -0.338814,0.338814 -0.349247,0.715392 -0.03604,1.300639 0.309998,0.57923 0.305184,0.936488 -0.01623,1.203544 -0.251391,0.208886 -0.370483,0.258425 -0.264648,0.110087 0.10583,-0.148338 0.0204,-0.591123 -0.189839,-0.983966 -0.246999,-0.461528 -0.173724,-1.299563 0.207096,-2.368408 0.324149,-0.90978 0.574023,-2.981985 0.555273,-4.604898 l -0.0341,-2.950753 -0.323458,2.217634 c -0.177905,1.219699 -0.600933,2.642383 -0.940067,3.161521 -0.459681,0.703671 -0.506944,1.188764 -0.185699,1.906095 0.45587,1.017962 -0.224296,2.269275 -0.862404,1.586578 -0.177745,-0.190168 -0.08888,-0.429504 0.197481,-0.531858 0.395806,-0.141473 0.359397,-0.506698 -0.151829,-1.52305 -0.898955,-1.78718 -3.562295,-4.528483 -4.085519,-4.205114 -0.24009,0.148385 -0.285219,0.04333 -0.105974,-0.246692 0.171705,-0.277823 0.07825,-0.787005 -0.207665,-1.131517 -0.331509,-0.399442 -0.489627,-1.805459 -0.436425,-3.880743 0.0532,-2.075078 -0.155087,-3.927381 -0.574777,-5.111641 -1.010675,-2.85185 -0.506168,-2.483005 0.947449,0.692684 1.6333,3.568244 2.368497,6.479319 2.082097,8.244216 -0.152436,0.939351 0.01243,1.652933 0.529407,2.291369 l 0.750785,0.92718 0.260514,-1.302567 c 0.401015,-2.005084 0.304779,-6.290056 -0.180515,-8.037451 -0.716535,-2.58003 -4.403239,-7.692185 -6.593636,-9.143043 -2.698434,-1.787368 -3.423059,-1.678098 -1.864083,0.281094 2.011367,2.527717 3.0646,5.743383 3.141016,9.589945 0.03684,1.854759 0.242636,3.498957 0.457316,3.653774 0.508444,0.366672 0.762306,2.036963 0.309593,2.036963 -0.663662,0 -0.901501,-0.556987 -0.463298,-1.084989 0.324246,-0.390691 0.213327,-0.602221 -0.421422,-0.803683 -0.473819,-0.150385 -1.082192,-0.137028 -1.351933,0.02968 -0.322888,0.199556 -0.376137,0.118164 -0.155863,-0.238246 0.223612,-0.361815 0.140363,-0.474117 -0.25102,-0.33862 -0.322079,0.111504 -0.569862,0.61659 -0.550636,1.122413 0.02146,0.564637 -0.115847,0.768869 -0.355684,0.529032 -0.214853,-0.214855 -0.318563,-0.742754 -0.230458,-1.173109 0.119539,-0.583926 0.503925,-0.766693 1.514908,-0.720309 1.341433,0.06154 1.354719,0.04277 1.354719,-1.913732 0,-2.389262 -0.997172,-6.41616 -2.130826,-8.604965 -0.824056,-1.59104 -1.431153,-2.310341 -3.226757,-3.823134 -0.926348,-0.780446 -0.9354,-0.776483 -1.650225,0.722521 -0.395322,0.828999 -0.886411,1.403662 -1.091308,1.277028 -0.204897,-0.126633 -0.141529,-0.508595 0.140819,-0.848803 0.282348,-0.340208 0.338982,-0.585394 0.125853,-0.544857 -0.908029,0.172707 -1.086285,-0.07195 -0.544505,-0.747352 0.40981,-0.510883 0.198805,-0.455153 -0.723512,0.19109 -1.49909,1.050373 -2.554098,2.213291 -2.016473,2.222727 0.437439,0.0077 -0.753245,0.8208 -1.215637,0.830163 -0.175338,0.0035 0.252792,-0.782601 0.9514,-1.747001 1.290136,-1.780981 1.397092,-2.603644 0.210468,-1.618833 -1.019788,0.846349 -1.156915,0.244735 -0.216671,-0.950592 1.10696,-1.407272 1.074439,-1.574806 -0.310249,-1.598251 -1.037925,-0.01757 -0.93868,-0.136846 0.948456,-1.139852 1.159224,-0.616124 2.43964,-1.152654 2.845369,-1.192289 1.243701,-0.121496 1.2785,-0.158113 0.752536,-0.79186 C 36.496239,8.890737 35.837264,8.741474 34.980704,8.867992 l -1.333227,0.196923 1.264608,-0.617338 c 1.464432,-0.714885 3.791689,-0.913492 2.739985,-0.233828 -0.45946,0.296926 -0.481467,0.41039 -0.08051,0.415081 0.324111,0.0038 0.424665,0.223877 0.243693,0.533375 -0.169458,0.289806 0.06711,0.198838 0.525713,-0.202152 0.79036,-0.691072 0.875324,-0.691072 1.630133,0 0.729384,0.667793 0.750908,0.66861 0.256084,0.0097 -0.48647,-0.647767 -0.39678,-0.705452 0.901286,-0.57966 0.988898,0.09583 1.441518,-0.03646 1.441518,-0.421328 0,-0.308562 -0.158076,-0.463326 -0.351278,-0.343919 -0.193207,0.119405 -0.363306,-0.126053 -0.378,-0.545464 -0.02002,-0.571116 -0.137918,-0.497987 -0.469621,0.291274 -0.26365,0.627321 -0.523316,0.839517 -0.64159,0.524293 -0.109275,-0.29125 -0.372175,-0.422324 -0.58422,-0.291274 -0.212041,0.13105 -0.385532,0.05768 -0.385532,-0.163042 0,-0.220723 -0.311367,-0.520797 -0.691927,-0.666831 -0.546842,-0.209843 -0.591803,-0.144876 -0.214425,0.309837 0.262626,0.316446 0.355234,0.697624 0.205795,0.847062 -0.294631,0.294631 -2.250194,-2.151746 -2.250194,-2.814954 0,-0.222735 0.331959,-0.113911 0.737688,0.241831 0.405728,0.355743 1.37922,0.972034 2.163317,1.369536 l 1.425626,0.722733 -0.28245,-1.125375 -0.28245,-1.125374 1.170964,1.085779 c 0.644027,0.597178 1.309215,1.085779 1.478192,1.085779 0.168977,0 0.205406,0.265349 0.08096,0.589665 -0.124454,0.324316 -0.01096,0.722735 0.252188,0.885374 0.274441,0.169614 0.445146,0.05298 0.400328,-0.273513 -0.04297,-0.313072 -0.05056,-1.04345 -0.01686,-1.623062 0.06076,-1.04471 0.0716,-1.041399 1.252265,0.382258 l 1.190979,1.436099 0.30743,-1.224914 0.307435,-1.224913 0.582992,1.053423 c 0.320646,0.579382 0.582989,1.243114 0.582989,1.474959 0,0.231845 -0.271094,-0.05269 -0.60243,-0.632304 -0.331336,-0.579612 -0.609149,-0.852982 -0.617365,-0.607488 -0.0082,0.245493 0.263566,0.814567 0.60396,1.264608 0.340395,0.450041 0.624932,0.646588 0.632304,0.436771 0.0074,-0.209817 0.392788,-0.03815 0.856477,0.381485 0.824588,0.746239 0.843355,0.736117 0.855891,-0.461587 0.01054,-1.007679 0.08639,-1.098417 0.428235,-0.51233 0.285717,0.489857 0.231301,1.246618 -0.17428,2.423832 -0.324334,0.941383 -0.430789,1.711605 -0.236566,1.711605 0.194218,0 0.479341,-0.672764 0.633598,-1.495031 0.427269,-2.277534 0.828875,-1.288757 0.664105,1.635068 -0.08058,1.429971 -0.03579,2.492129 0.09956,2.360351 0.135338,-0.131777 0.279373,-1.120022 0.320077,-2.196098 0.04072,-1.076077 0.227014,-1.861937 0.414028,-1.746356 0.187015,0.115581 0.232283,0.74886 0.100595,1.407287 -0.131683,0.658427 -0.07805,1.296558 0.119194,1.418069 0.197241,0.121512 0.381553,-0.431684 0.409585,-1.229324 0.05099,-1.450934 0.559514,-2.423289 0.852106,-1.629342 0.398621,1.081641 2.272197,3.695376 2.039619,2.845368 -0.142736,-0.521651 -0.08076,-0.948456 0.137728,-0.948456 0.218491,0 0.508733,0.521651 0.644986,1.159224 0.136249,0.637574 0.741154,1.917989 1.344227,2.845369 0.995339,1.530586 1.073011,1.575939 0.841904,0.491599 -0.165221,-0.775214 -0.100684,-1.099425 0.18384,-0.923578 0.24114,0.149031 0.438431,0.630228 0.438431,1.069326 0,0.439097 0.21863,1.278195 0.485842,1.864661 0.449172,0.985823 0.5277,1.011182 1.040435,0.335987 0.493235,-0.649518 0.559623,-0.567089 0.600069,0.745061 0.05635,1.828047 0.863917,3.971017 1.546924,4.104919 0.281463,0.05518 0.410799,-0.162746 0.287416,-0.484281 -0.123384,-0.321535 -0.02171,-0.709837 0.225939,-0.862893 0.296938,-0.183518 0.450272,0.456407 0.450272,1.879151 0,1.314283 -0.162856,2.056786 -0.41671,1.899896 -0.247517,-0.152976 -0.304007,0.03615 -0.139128,0.465809 0.173037,0.450931 0.111686,0.620825 -0.162906,0.451118 -0.261087,-0.16136 -0.44048,0.153834 -0.44048,0.773921 0,0.575384 0.178765,1.046152 0.397251,1.046152 0.38552,0 0.230917,0.771547 -0.59128,2.950753 l -0.397606,1.05384 -1.021483,-1.182731 c -0.883105,-1.022512 -1.021482,-1.072304 -1.021482,-0.367568 0,0.44834 0.422332,1.095581 0.938516,1.438314 0.737515,0.489693 0.986542,1.155222 1.162769,3.107551 l 0.224257,2.484402 0.477702,-1.788179 c 0.262735,-0.983498 0.330252,-1.697051 0.150037,-1.585673 -0.180211,0.111378 -0.432454,-0.316934 -0.560538,-0.951805 -0.157738,-0.781872 -0.01172,-1.32401 0.452583,-1.680264 0.567286,-0.435285 0.85122,-0.370221 1.647055,0.377427 0.52888,0.496858 0.85522,1.07551 0.725198,1.285891 -0.332453,0.53792 -1.212987,0.171285 -1.212987,-0.505061 0,-0.309127 -0.196466,-0.627537 -0.436589,-0.707578 -0.240124,-0.08004 -0.436594,0.222183 -0.436594,0.671611 0,0.449428 0.135937,0.733128 0.302082,0.630446 0.607214,-0.37528 0.838207,0.726739 0.291239,1.389449 -0.442272,0.535862 -0.450066,0.72047 -0.03629,0.859735 0.289806,0.09754 0.52692,0.371523 0.52692,0.608852 0,0.23733 -0.284537,0.322321 -0.632304,0.18887 -0.347768,-0.133451 -0.632304,-0.07919 -0.632304,0.120569 0,0.199764 0.284536,0.472394 0.632304,0.605844 0.347767,0.133451 0.632304,0.476221 0.632304,0.761711 0,0.403724 -0.112411,0.406664 -0.505844,0.01323 -0.855499,-0.855498 -1.359032,-0.558955 -0.556558,0.327769 0.552284,0.610266 0.696614,1.264501 0.538702,2.441847 -0.158434,1.181189 -0.0056,1.867698 0.575532,2.585376 0.501708,0.619582 0.79124,1.645069 0.79124,2.802477 0,1.003934 0.189691,1.942568 0.421536,2.085857 0.231844,0.143288 0.408203,0.58129 0.391906,0.973335 -0.02744,0.660193 -0.05077,0.660926 -0.316152,0.0099 -0.157587,-0.386591 -0.826282,-1.125948 -1.48599,-1.643012 -0.972619,-0.762323 -1.153985,-1.167508 -0.958991,-2.142474 0.132261,-0.661287 0.08142,-1.202349 -0.112967,-1.202349 -0.194396,0 -0.320553,-0.426806 -0.280351,-0.948457 0.04021,-0.52165 -0.163387,-1.234662 -0.452409,-1.584469 -0.289027,-0.349808 -0.625606,-1.188053 -0.747957,-1.862766 -0.122347,-0.674714 -0.460819,-1.374073 -0.752159,-1.554131 -0.291341,-0.180058 -0.394099,-0.46299 -0.228351,-0.628738 0.62032,-0.620319 2.027664,1.233064 1.903539,2.506839 -0.06988,0.717091 0.102564,1.325735 0.405286,1.430465 0.994509,0.344066 0.637944,-2.713141 -0.401336,-3.441082 -0.765345,-0.536068 -0.907344,-0.990228 -0.809101,-2.587775 0.115531,-1.878723 -0.700239,-3.554431 -1.730371,-3.554431 -0.212476,0 -0.07831,0.308003 0.298139,0.684453 0.476302,0.476301 0.602312,1.05843 0.414358,1.914178 -0.166039,0.755987 -0.05765,1.507259 0.281358,1.950147 0.303295,0.396232 0.03554,0.260551 -0.595019,-0.301514 -1.174551,-1.046968 -1.512092,-1.572236 -0.679769,-1.057834 0.317927,0.19649 0.370716,-0.01397 0.165604,-0.660214 -0.218296,-0.687801 -0.16074,-0.861909 0.209335,-0.633192 0.280731,0.173502 0.184393,-0.182125 -0.214089,-0.790283 -0.398483,-0.608158 -0.597271,-1.105741 -0.441753,-1.105741 0.155513,0 -0.243311,-0.452502 -0.88628,-1.005559 -1.05525,-0.907692 -1.108823,-1.079672 -0.550425,-1.767061 0.340235,-0.418827 0.395148,-0.62749 0.122035,-0.463697 -0.455465,0.273154 -1.262351,-1.159824 -1.070885,-1.901811 0.04123,-0.159755 -0.300572,-0.409652 -0.759556,-0.555326 -0.458981,-0.145675 -0.83451,-0.631463 -0.83451,-1.079529 0,-0.448066 -0.237114,-0.817571 -0.52692,-0.821121 -0.351279,-0.0043 -0.316152,-0.142663 0.105384,-0.415081 0.545585,-0.352584 0.53503,-0.409512 -0.07698,-0.415081 -0.390106,-0.0035 -0.829692,-0.385837 -0.976863,-0.849527 -0.147167,-0.46369 -0.415462,-0.843072 -0.596212,-0.843072 -0.415563,0 -2.208546,-1.539925 -2.171459,-1.864987 0.09562,-0.838082 -0.04533,-1.085765 -0.617845,-1.085765 -0.355043,0 -0.754723,-0.284537 -0.888173,-0.632304 -0.133449,-0.347768 -0.50688,-0.632304 -0.829844,-0.632304 -0.32296,0 -0.587204,-0.26873 -0.587204,-0.597177 0,-0.328446 -0.237114,-0.681859 -0.52692,-0.785361 -0.289806,-0.103502 -0.400897,-0.32437 -0.246868,-0.490817 0.462126,-0.499392 2.050857,0.586628 2.469678,1.688217 0.506219,1.331456 1.676399,1.359169 1.676399,0.0397 0,-1.490117 -1.271914,-2.382846 -3.40548,-2.390236 -1.594338,-0.0055 -3.917782,-0.7475 -2.706793,-0.864399 0.231845,-0.02238 -0.147538,-0.301266 -0.843072,-0.619746 -1.250103,-0.572412 -1.252518,-0.579909 -0.210768,-0.653558 0.869321,-0.06146 0.795514,-0.131898 -0.421536,-0.402292 l -1.475376,-0.327787 1.472446,0.06713 c 1.157462,0.05277 1.590709,0.315107 2.025295,1.226351 0.304071,0.637573 0.732196,1.159224 0.95139,1.159224 0.748286,0 0.399912,-0.906548 -0.815406,-2.121866 -0.724899,-0.724899 -1.022082,-1.29471 -0.737688,-1.414427 0.261938,-0.110267 -0.187668,-0.09176 -0.999125,0.04113 -0.811457,0.132891 -1.854758,0.442892 -2.318448,0.688892 -1.315137,0.697719 -1.716048,0.663465 -2.250471,-0.192285 -0.603216,-0.965902 -0.189118,-1.03557 0.805442,-0.135508 0.493007,0.446167 0.820439,0.511861 1.011374,0.202919 0.162991,-0.263727 -0.309348,-0.713842 -1.117374,-1.064801 -0.769847,-0.334375 -1.150137,-0.615379 -0.845091,-0.624454 0.305049,-0.0091 0.968968,0.183656 1.475376,0.42829 0.889437,0.429666 0.892919,0.422498 0.102488,-0.210768 -0.45004,-0.360557 -1.089763,-0.655558 -1.421605,-0.655558 -0.473674,0 -0.49648,-0.128772 -0.106109,-0.59914 0.406786,-0.490149 0.3448,-0.559275 -0.340762,-0.379997 -0.460902,0.120528 -0.93631,0.475326 -1.056463,0.78844 -0.150816,0.393021 0.0033,0.486245 0.49776,0.301073 0.610619,-0.228677 0.635512,-0.168893 0.168831,0.405475 -0.367982,0.452896 -0.402522,0.763233 -0.105384,0.946874 0.243103,0.150246 0.442005,0.620251 0.442005,1.044456 0,0.550296 0.430265,0.852 1.501721,1.053005 1.023667,0.192041 2.130734,0.92937 3.477672,2.316195 1.08677,1.11896 3.444206,3.546524 5.238736,5.394589 1.794534,1.848065 3.532615,4.004215 3.8624,4.791446 0.329788,0.787231 1.067759,1.869924 1.639935,2.405985 0.572176,0.53606 1.653068,2.304018 2.401973,3.928794 1.312413,2.847313 1.354807,3.109313 1.172383,7.245297 -0.122819,2.784673 -0.458648,4.957101 -0.956592,6.18807 -0.840338,2.077414 -0.97139,4.889372 -0.260975,5.599782 0.55807,0.558076 2.070436,-2.667434 2.600033,-5.545247 0.300281,-1.63172 0.340883,-1.358666 0.247812,1.66658 -0.08445,2.744853 -0.333903,4.045089 -1.03364,5.387564 -1.064851,2.042961 -1.298984,4.688614 -0.344854,3.896755 1.008997,-0.837394 2.851307,-5.482705 3.089429,-7.789868 0.259194,-2.511364 -0.60087,-6.051352 -2.078809,-8.556269 -0.507268,-0.859755 -0.729616,-1.444102 -0.494108,-1.29855 1.113407,0.688124 2.70165,4.928458 3.118325,8.325398 0.544418,4.438378 1.041772,7.291026 1.692527,9.707742 0.467799,1.737276 0.541631,1.808636 1.092258,1.055606 0.680878,-0.93116 0.791485,-3.423293 0.169007,-3.808004 -0.231845,-0.143288 -0.421536,0.118861 -0.421536,0.58255 0,1.573759 -0.745322,1.313574 -0.778194,-0.271663 -0.01796,-0.866522 -0.118059,-2.097146 -0.222423,-2.734719 -0.104364,-0.637573 -0.02934,-1.159224 0.166751,-1.159224 0.196073,0 0.270508,-0.474228 0.165402,-1.05384 -0.108284,-0.597157 0.0083,-1.05384 0.269016,-1.05384 0.30706,0 0.379927,0.806259 0.219056,2.423832 -0.240815,2.421421 -0.240457,2.422365 0.359136,0.948456 0.410028,-1.007922 0.608306,-1.208261 0.625804,-0.632304 0.01408,0.463689 -0.151576,1.123275 -0.36814,1.465748 -0.26894,0.425296 -0.182087,0.85657 0.273994,1.360533 0.475535,0.525457 0.602278,1.225978 0.440311,2.433557 -0.27498,2.050128 0.388829,1.851788 0.779947,-0.233051 0.19456,-1.037088 0.08799,-1.692294 -0.357559,-2.198276 -0.697938,-0.792614 -0.517642,-3.639833 0.202312,-3.194877 0.229008,0.141535 0.199664,-0.147596 -0.06521,-0.642513 -0.264868,-0.494917 -0.382733,-1.608531 -0.261917,-2.474699 0.17503,-1.254867 0.144397,-1.360731 -0.150758,-0.521014 -0.427096,1.215086 -0.517836,0.968306 -0.663675,-1.804984 -0.0583,-1.108661 -0.398701,-2.341654 -0.756442,-2.739984 -0.451904,-0.503175 -0.635651,-1.520245 -0.601996,-3.332126 0.02664,-1.434341 0.182884,-2.524804 0.347203,-2.42325 0.164314,0.101553 0.199475,-0.195002 0.07814,-0.659012 -0.121344,-0.464009 -0.399385,-0.843653 -0.617871,-0.843653 -0.218486,0 -0.2781,-0.192786 -0.132476,-0.428412 0.145624,-0.235627 0.441357,-0.319278 0.657183,-0.185891 0.215822,0.133387 0.392408,-0.05321 0.392408,-0.41466 0,-0.644005 0.815006,-0.962702 0.872116,-0.341029 0.249056,2.71107 0.851157,4.019147 1.423632,3.092865 0.155775,-0.252046 0.08234,-0.458265 -0.163189,-0.458265 -0.245528,0 -0.446415,-0.212918 -0.446415,-0.473151 0,-0.326904 0.195441,-0.31095 0.632304,0.05162 0.436863,0.362564 0.632304,0.378518 0.632304,0.05161 0,-0.260234 -0.200887,-0.473151 -0.446415,-0.473151 -0.245528,0 -0.328347,-0.191031 -0.184047,-0.424514 0.144296,-0.233482 -0.03419,-0.538313 -0.396661,-0.677403 -0.362462,-0.13909 -0.659021,-0.416333 -0.659021,-0.616097 0,-0.199764 0.284537,-0.25402 0.632304,-0.120569 0.412654,0.15835 0.654608,-0.02929 0.696508,-0.54015 0.03533,-0.430533 0.08516,-1.006513 0.110763,-1.279956 0.02559,-0.273442 0.204146,-0.652825 0.396762,-0.843072 0.192613,-0.190247 0.21643,0.5528 0.05292,1.651215 -0.163505,1.098416 -0.167704,2.331408 -0.0093,2.739984 0.269543,0.695352 0.326475,0.69053 0.890158,-0.07539 0.587642,-0.798479 0.602198,-0.795932 0.602198,0.105384 0,0.802525 -0.445969,1.160329 -1.019882,0.818257 -0.409037,-0.243803 -2.282318,1.939011 -2.459502,2.865904 -0.105962,0.554285 -0.03035,0.907491 0.16799,0.784902 0.198354,-0.122589 0.360641,-0.03781 0.360641,0.188396 0,0.226208 -0.237114,0.506965 -0.52692,0.623903 -0.389098,0.157006 -0.375597,0.221319 0.05161,0.245895 0.473368,0.02723 0.480446,0.15147 0.03895,0.683449 -0.371352,0.447448 -0.403772,0.785992 -0.103984,1.08578 0.563842,0.563842 1.543757,-2.07717 1.019164,-2.746807 -0.474713,-0.605952 -0.446259,-1.939894 0.04135,-1.939894 0.208829,0 0.258979,0.380317 0.11145,0.845148 -0.177458,0.559119 -0.04702,0.930039 0.38541,1.095978 0.491191,0.188488 0.550514,0.443533 0.238691,1.02618 -0.28691,0.536097 -0.26443,0.868385 0.07285,1.076835 0.302637,0.187039 0.373636,0.116744 0.187031,-0.185185 -0.165428,-0.267667 -0.123118,-0.486668 0.09402,-0.486668 0.699749,0 1.230054,1.022217 1.164071,2.243883 -0.03537,0.654519 0.04995,1.260637 0.189569,1.346925 0.139617,0.08629 0.2997,-0.728907 0.355739,-1.811538 0.15026,-2.902777 0.474793,-2.743327 0.474793,0.233278 0,1.416024 0.146391,2.665065 0.325307,2.775646 0.441332,0.272755 0.275213,4.488845 -0.176792,4.487036 -0.442444,-0.0017 -0.527114,-2.58163 -0.103849,-3.16415 0.168939,-0.232503 0.03832,-0.79041 -0.290287,-1.239793 -0.3286,-0.449387 -0.597451,-0.579919 -0.597451,-0.29008 0,0.28984 -0.173041,0.420036 -0.384534,0.289326 -0.311313,-0.192402 -0.325527,0.963812 -0.01657,1.347124 0.34098,0.423028 0.06701,1.36901 -0.749525,2.588041 -0.526385,0.785849 -0.947284,1.734305 -0.935338,2.10768 0.01193,0.373376 0.316342,-0.0314 0.676435,-0.899503 0.360088,-0.868098 0.812885,-1.480607 1.006206,-1.361127 0.515349,0.318504 0.119851,1.867561 -0.738329,2.891843 -0.410454,0.489896 -0.576067,0.750098 -0.368022,0.578229 0.208041,-0.171873 0.669239,-0.07703 1.024881,0.210768 0.515783,0.417384 0.582567,0.416642 0.330058,-0.0038 -0.301048,-0.501097 0.230028,-0.739134 1.208569,-0.541712 0.231845,0.04678 0.280912,-0.05557 0.109043,-0.227448 -0.171873,-0.171873 -0.07703,-0.603475 0.210768,-0.959116 0.432416,-0.534361 0.413485,-0.590556 -0.109043,-0.323677 -0.347767,0.177618 -0.28135,0.03697 0.147597,-0.312573 0.428942,-0.349534 0.667148,-0.817953 0.52934,-1.040929 -0.137809,-0.222975 0.04841,-0.520133 0.413801,-0.660353 1.036599,-0.397778 1.042045,-0.345672 0.126165,1.206626 -0.475248,0.805492 -0.828137,2.08273 -0.786143,2.845368 0.112095,2.03583 0.05481,2.172488 -0.661479,1.578016 -0.520976,-0.432373 -0.542188,-0.611151 -0.105384,-0.888235 0.308231,-0.195525 0.347594,-0.349723 0.09021,-0.353361 -0.805201,-0.01138 -1.026567,0.529592 -0.488135,1.192909 0.439468,0.541404 0.40357,0.599761 -0.224181,0.364426 -0.625075,-0.234332 -0.678285,-0.150986 -0.325008,0.509115 0.307067,0.573765 0.263367,0.921334 -0.160024,1.272712 -0.335576,0.2785 -0.644495,0.31487 -0.728827,0.0858 -0.08051,-0.21869 -0.375484,-0.14834 -0.655502,0.15633 -0.400181,0.4354 -0.375567,0.66477 0.115033,1.07193 0.521053,0.43243 0.582062,0.38629 0.369329,-0.27931 -0.234479,-0.73363 -0.208116,-0.74089 0.330059,-0.091 0.543098,0.65588 0.621833,0.64718 1.102038,-0.12174 0.284432,-0.45545 0.690721,-0.72082 0.902863,-0.58971 0.212142,0.13111 0.314567,-0.13106 0.227608,-0.582597 -0.08799,-0.456869 0.120969,-0.928074 0.471134,-1.062448 0.448692,-0.172176 0.566604,-0.03056 0.41093,0.493573 -0.853273,2.872852 -0.836837,3.160112 0.162675,2.842872 0.94978,-0.30144 0.948718,-0.29251 -0.133791,1.12673 -0.600137,0.78682 -1.221519,2.24581 -1.380851,3.24222 -0.183962,1.15044 -0.411727,1.61417 -0.624063,1.2706 -0.183903,-0.29756 -0.222735,-0.72166 -0.08629,-0.94243 0.136447,-0.22078 0.02858,-0.26575 -0.239724,-0.0999 -0.341203,0.21088 -0.36078,0.53883 -0.06513,1.09126 0.565786,1.05719 0.532603,1.37976 -0.104246,1.01326 -0.289806,-0.16677 -0.392172,-0.15387 -0.227482,0.0287 0.16469,0.18254 0.03857,0.95624 -0.280279,1.71934 -0.318841,0.7631 -0.491524,1.47565 -0.383737,1.58343 0.107787,0.10779 0.89783,0.11143 1.755651,0.008 l 1.559679,-0.18788 -1.282649,0.81004 c -1.45462,0.91865 -2.74898,2.69969 -2.839986,3.90784 -0.06292,0.83533 -0.371487,1.02768 -0.861885,0.53728 -0.152549,-0.15255 -0.08011,-0.51504 0.160981,-0.80554 0.303704,-0.36594 0.302578,-0.61208 -0.0038,-0.80135 -0.242961,-0.1501 -0.441863,-0.47476 -0.441863,-0.72131 0,-0.2652 0.290456,-0.212 0.711229,0.13027 0.622827,0.50662 0.676868,0.48684 0.434768,-0.15916 -0.181548,-0.48442 -0.07247,-0.73769 0.317732,-0.73769 0.949232,0 1.11976,-0.69772 0.323158,-1.32222 -0.663358,-0.52005 -0.678045,-0.50456 -0.154514,0.163 0.627372,0.79996 0.09107,1.02791 -0.657415,0.27942 -0.329999,-0.33 -0.548806,-0.31176 -0.781742,0.0651 -0.208517,0.33738 -0.150522,0.4165 0.163189,0.22261 0.769307,-0.47545 0.565975,0.23036 -0.235108,0.81612 -0.591373,0.43242 -0.625753,0.64348 -0.190298,1.16817 0.365067,0.43988 0.390928,0.72725 0.0826,0.91781 -0.246885,0.15258 -0.319824,0.48624 -0.162089,0.74147 0.186293,0.30142 0.0333,0.36677 -0.436551,0.18646 -0.397842,-0.15266 -0.641565,-0.13748 -0.541611,0.0338 0.09996,0.17123 -0.482001,0.74449 -1.293239,1.27392 -1.143294,0.74613 -1.416222,0.80947 -1.213686,0.28168 0.143714,-0.37453 0.261293,-1.15085 0.261293,-1.72518 0,-0.71609 0.165584,-0.94895 0.52692,-0.74101 0.289806,0.16677 0.392218,0.15392 0.227579,-0.0286 -0.164635,-0.18249 -0.02238,-0.8674 0.316152,-1.52203 0.338523,-0.65462 0.615493,-1.66303 0.615493,-2.24091 0,-0.57787 0.355553,-1.67801 0.790123,-2.44476 0.627444,-1.10706 0.779323,-2.18862 0.737688,-5.25311 -0.02883,-2.12247 0.08983,-3.77107 0.263717,-3.66356 0.173884,0.1075 0.316152,0.006 0.316152,-0.22476 0,-0.23112 -0.379353,-0.39164 -0.843008,-0.35671 -0.659106,0.0496 -0.776166,0.25084 -0.536599,0.92225 0.168526,0.47232 0.263468,1.52268 0.210983,2.33414 -0.05248,0.81145 -0.09176,2.30907 -0.08727,3.32802 0.0046,1.0558 -0.303076,2.32496 -0.715439,2.95076 -0.397976,0.60395 -0.676903,1.66717 -0.619843,2.36271 0.06614,0.80624 -0.269505,1.76877 -0.926039,2.65557 -0.613643,0.82887 -0.942125,1.72617 -0.812861,2.22047 0.151062,0.57765 -0.247222,1.26726 -1.311752,2.27124 -1.013225,0.9556 -1.363838,1.54361 -1.039812,1.74386 0.303671,0.18768 0.374923,0.11778 0.18809,-0.18453 -0.17823,-0.28836 -0.03301,-0.48665 0.356404,-0.48665 0.845875,0 0.670398,0.83405 -0.359705,1.70966 -0.633649,0.53862 -0.687352,0.75861 -0.251021,1.02829 0.347608,0.21483 0.45332,0.17839 0.282817,-0.0975 -0.30292,-0.49013 1.580761,-1.90427 1.990612,-1.49442 0.380212,0.38021 0.31619,1.04669 -0.07719,0.80357 -0.184953,-0.11431 -0.611758,-0.0336 -0.948456,0.17944 -0.420095,0.26575 -0.446845,0.38929 -0.08526,0.39372 0.289806,0.003 0.592612,-0.041 0.672902,-0.0989 0.357602,-0.25816 1.502582,1.08977 1.259621,1.48289 -0.158876,0.25706 -0.06678,0.31253 0.222285,0.13387 0.271448,-0.16776 0.392387,-0.4687 0.268754,-0.66874 -0.123636,-0.20005 0.300075,-0.44306 0.941581,-0.54002 1.006131,-0.15208 0.961608,-0.18497 -0.32406,-0.23946 -1.188356,-0.0503 -1.490433,-0.23403 -1.490433,-0.90623 0,-0.99203 0.46855,-1.11322 0.814854,-0.21077 0.309568,0.80673 0.971658,0.82269 0.971658,0.0234 0,-0.33489 -0.205499,-0.572 -0.456667,-0.52692 -0.251164,0.0451 -0.406534,-0.16327 -0.345264,-0.46301 0.08562,-0.41883 -0.08513,-0.43979 -0.737688,-0.0906 -0.556857,0.29801 -0.849087,0.30717 -0.849087,0.0266 0,-0.62635 3.312569,-2.21287 3.913667,-1.87442 0.387206,0.21803 0.394731,0.16087 0.03081,-0.23387 -0.373135,-0.40472 -0.689957,-0.41095 -1.406096,-0.0277 -0.508436,0.27211 -1.020657,0.39851 -1.13827,0.28091 -0.117608,-0.11762 0.3621,-0.51167 1.066023,-0.87569 0.803258,-0.41537 1.376517,-0.50544 1.539428,-0.24184 0.142762,0.23099 0.485487,0.40501 0.76161,0.3867 0.361994,-0.024 0.355056,-0.0926 -0.02487,-0.24589 -0.862969,-0.34822 -0.597216,-0.92489 0.316152,-0.68604 0.471357,0.12326 0.843072,0.0129 0.843072,-0.25023 0,-0.25889 0.331959,-0.4686 0.737688,-0.46602 0.544599,0.003 0.386949,0.28114 -0.602287,1.0609 -0.736988,0.58092 -1.76334,1.74123 -2.280779,2.57847 -0.762454,1.23368 -0.848055,1.67077 -0.451554,2.30567 0.639896,1.02464 0.617538,1.21639 -0.141838,1.21639 -0.347097,0 -1.372598,0.66991 -2.278883,1.48869 -1.123335,1.01486 -1.716879,1.31674 -1.864846,0.94845 -0.139554,-0.34733 -0.228936,-0.3664 -0.250333,-0.0534 -0.02137,0.31284 -0.673531,0.43129 -1.824809,0.33146 -1.512412,-0.13115 -1.594502,-0.10288 -0.52692,0.18149 1.256734,0.33475 1.258049,0.33825 0.210768,0.56163 -0.68465,0.14604 -0.570583,0.17909 0.325599,0.0944 0.785212,-0.0743 1.273861,0.0404 1.134345,0.26614 -0.134824,0.21812 -0.04423,0.39657 0.2013,0.39657 0.245524,0 0.446411,-0.23711 0.446411,-0.52692 0,-0.30444 0.533947,-0.52692 1.264608,-0.52692 0.695534,0 1.255086,0.0949 1.243447,0.21077 -0.01163,0.11592 -1.130926,0.73615 -2.487299,1.37829 -1.356376,0.64213 -2.577671,1.45817 -2.713996,1.81342 -0.136321,0.35525 -0.07344,0.53811 0.139726,0.40637 0.213167,-0.13175 0.49192,-0.0707 0.619448,0.13562 0.127527,0.20635 -0.679601,0.49609 -1.793618,0.64387 -1.838738,0.24392 -4.39016,1.47827 -3.122277,1.51053 0.289806,0.007 0.52692,0.17679 0.52692,0.37649 0,0.19969 -0.471581,0.27293 -1.047955,0.16275 -0.576375,-0.11018 -1.72845,-0.0727 -2.560161,0.0834 -1.153951,0.21648 -1.407619,0.40971 -1.07074,0.81562 0.334232,0.40272 -0.189518,0.37778 -2.156199,-0.10267 -1.943129,-0.47471 -2.639313,-0.50965 -2.76297,-0.13867 -0.108137,0.3244 -0.408701,0.36706 -0.868997,0.12333 -0.387025,-0.20493 -1.414784,-0.56744 -2.283907,-0.80558 -1.541414,-0.42234 -1.57394,-0.40793 -1.324293,0.58674 0.310562,1.23737 0.109426,1.28023 -0.879565,0.1874 z m 1.040882,-1.48813 c 0.201575,0.12458 0.504866,-0.0137 0.673977,-0.30729 0.169112,-0.29358 0.158671,-0.39959 -0.02318,-0.23556 -0.181876,0.16402 -0.645991,-0.0912 -1.031377,-0.5671 -0.683128,-0.84363 -0.701752,-0.8255 -0.743024,0.72334 -0.03221,1.20893 0.05321,1.41793 0.357395,0.87438 0.219852,-0.39286 0.564656,-0.61235 0.76623,-0.48777 z m 4.552909,0.40658 c -0.06796,-0.068 -0.236675,-0.0919 -0.374926,-0.0533 -0.138252,0.0387 -0.533442,-0.16385 -0.878203,-0.44997 -0.505405,-0.41945 -0.626833,-0.40263 -0.626833,0.0868 0,0.33389 0.158076,0.50937 0.351279,0.38996 0.193202,-0.1194 0.351278,-0.0222 0.351278,0.21609 0,0.23825 0.292719,0.32085 0.650485,0.18357 0.357766,-0.13729 0.59488,-0.30522 0.52692,-0.37318 z m 2.250155,0.0836 c -0.25822,-0.31114 -0.328869,-0.70633 -0.156996,-0.8782 0.171872,-0.17188 0.122801,-0.27423 -0.109043,-0.22745 -0.231845,0.0468 -0.516382,0.0481 -0.632304,0.003 -0.115923,-0.0452 -0.559113,-0.14812 -0.984869,-0.22873 -0.734282,-0.13902 -0.736807,-0.10535 -0.04905,0.65461 0.398778,0.44065 0.876285,0.70771 1.061125,0.59348 0.184839,-0.11424 0.455221,-0.0149 0.600845,0.22071 0.145623,0.23562 0.371651,0.42841 0.502277,0.42841 0.130629,0 0.02622,-0.25457 -0.231989,-0.56571 z m 1.390589,0.19193 c 0.127051,-0.20558 -0.09887,-0.63238 -0.502045,-0.94846 -0.647547,-0.50765 -0.672017,-0.49641 -0.209782,0.0964 0.287791,0.3691 0.398444,0.7959 0.245895,0.94845 -0.15255,0.15255 -0.162102,0.27737 -0.0212,0.27737 0.140882,0 0.360097,-0.1682 0.487153,-0.37377 z m 1.785917,-0.74363 c 0,-0.415 -0.142045,-0.43747 -0.562046,-0.0889 -0.30913,0.25655 -0.562051,0.50646 -0.562051,0.55536 0,0.0489 0.252921,0.0889 0.562051,0.0889 0.309125,0 0.562046,-0.24991 0.562046,-0.55535 z m 2.455975,-0.14238 c 0.152975,-0.24752 -0.03613,-0.30401 -0.465806,-0.13913 -0.435451,0.16709 -0.619321,0.10925 -0.461974,-0.14534 0.143756,-0.2326 -0.0118,-0.42292 -0.345693,-0.42292 -0.458096,0 -0.492603,0.13793 -0.140612,0.56205 0.553569,0.66701 1.059539,0.71901 1.414085,0.14534 z m -17.49076,-1.22538 c 0,-0.65786 -0.570447,-0.86677 -1.120439,-0.41032 -0.45298,0.37594 -0.577144,0.18622 -0.623111,-0.95211 -0.0421,-1.0426 -0.10718,-1.16057 -0.244103,-0.4425 -0.102684,0.53852 -0.09893,1.20783 0.0083,1.48736 0.214011,0.55771 1.979319,0.84094 1.979319,0.31757 z m 4.98511,-0.83234 c -0.539284,-0.6654 -1.121366,-1.1293 -1.293517,-1.0309 -0.172151,0.0984 0.207231,0.63681 0.843072,1.19649 1.525669,1.34291 1.639206,1.30117 0.450445,-0.16559 z m 8.293274,0.78828 c -0.143289,-0.23184 -0.48644,-0.41863 -0.762563,-0.41508 -0.30166,0.004 -0.249668,0.16956 0.130259,0.41508 0.809825,0.52335 0.955753,0.52335 0.632304,0 z m 6.591436,-0.33206 c -0.304113,-0.10138 -0.753352,0.0161 -0.998307,0.26106 -0.312809,0.31281 -0.148224,0.36766 0.552933,0.18431 0.570006,-0.14906 0.761084,-0.34014 0.445374,-0.44537 z m -1.743772,-0.0895 c 0.520905,-0.33664 0.483772,-0.40236 -0.210768,-0.37307 -0.46369,0.0196 -1.3173,0.18745 -1.896912,0.37307 -1.032709,0.33073 -1.028481,0.33821 0.210768,0.37306 0.695534,0.0196 1.549145,-0.14832 1.896912,-0.37306 z m 3.846517,-0.46664 c 0.02896,-0.20704 0.0764,-0.61095 0.105384,-0.89758 0.02896,-0.28663 0.432074,-0.58958 0.895764,-0.67322 0.463689,-0.0836 1.032763,-0.35127 1.264608,-0.59473 0.290202,-0.30475 0.180961,-0.35767 -0.350625,-0.16986 -0.424694,0.15005 -1.242077,0.27281 -1.816408,0.27281 -0.574332,0 -0.935875,0.17534 -0.803433,0.38964 0.132443,0.21429 -0.09348,0.47683 -0.502041,0.5834 -0.551329,0.14381 -0.491903,0.20638 0.230483,0.24267 0.543314,0.0273 0.856353,0.23817 0.708559,0.47731 -0.145623,0.23563 -0.40974,0.33882 -0.586924,0.22931 -0.177185,-0.1095 -0.322151,0.059 -0.322151,0.37447 0,0.61365 1.08843,0.39702 1.176784,-0.23422 z m -19.676368,-0.41244 c -0.135724,-0.2196 -0.426449,-0.28823 -0.646056,-0.15251 -0.219607,0.13572 -0.288237,0.42645 -0.152513,0.64606 0.135724,0.2196 0.42645,0.28823 0.646056,0.15251 0.219607,-0.13572 0.288237,-0.42645 0.152513,-0.64606 z m 7.160453,0.41238 c -0.196188,-0.31743 0.03178,-0.37601 0.712809,-0.18315 0.807574,0.22869 0.87894,0.19056 0.368941,-0.19715 -0.494437,-0.37588 -0.290199,-0.42417 0.936712,-0.22149 1.044515,0.17256 1.995686,0.0386 2.845368,-0.40081 1.194439,-0.61767 1.45099,-1.03289 1.324976,-2.14442 -0.06025,-0.5315 1.548673,-2.05712 2.533583,-2.40241 0.464428,-0.16281 0.668219,-0.0132 0.632304,0.46411 -0.03237,0.43057 -0.531519,0.78628 -1.284091,0.91512 -1.725802,0.29547 -1.818709,1.11851 -0.157174,1.3924 1.133005,0.18676 1.576578,0.0217 2.412341,-0.89793 0.563238,-0.61972 1.172905,-1.08163 1.354823,-1.02645 0.181918,0.0552 0.207223,-0.22935 0.05623,-0.6323 -0.240204,-0.64105 -0.185619,-0.66032 0.436706,-0.1541 0.420773,0.34227 0.711228,0.39547 0.711228,0.13027 0,-0.8882 -0.993884,-1.03692 -1.663725,-0.24895 -0.843125,0.9918 -1.766778,1.23618 -1.438452,0.38059 0.131869,-0.34366 0.409581,-0.51988 0.617133,-0.39161 0.207552,0.12828 0.377363,-0.26574 0.377363,-0.8756 0,-0.96984 1.238138,-2.92902 1.281114,-2.02717 0.0091,0.19044 0.296519,-0.29894 0.638768,-1.08752 0.699792,-1.61238 1.277263,-1.50223 0.859099,0.16388 -0.150159,0.59829 -0.742017,1.30149 -1.315234,1.56267 -0.573212,0.26117 -1.042209,0.73562 -1.042209,1.05433 0,0.75154 1.459542,0.0234 2.07681,-1.03612 0.234724,-0.40288 0.432538,-0.53334 0.439586,-0.2899 0.007,0.24343 -0.214811,0.67024 -0.493024,0.94845 -0.393433,0.39344 -0.391114,0.50585 0.01041,0.50585 0.682711,0 1.34193,-1.79269 1.058198,-2.87767 -0.246021,-0.94078 0.532042,-3.71223 1.14928,-4.0937 0.212501,-0.13133 0.261209,0.0866 0.108381,0.48482 -0.197181,0.51384 -0.1241,0.62849 0.252319,0.39585 0.291442,-0.18012 0.436214,-0.68573 0.321717,-1.12357 -0.114498,-0.43785 -0.05989,-0.70443 0.121351,-0.59242 0.181244,0.11201 0.346124,-0.21968 0.366399,-0.73711 0.06063,-1.54723 0.275651,-2.25061 1.011282,-3.30804 1.088744,-1.56502 0.944292,0.0817 -0.173335,1.97589 l -0.916715,1.55371 0.898576,-0.4809 c 1.234831,-0.66086 1.590384,-2.88846 0.773198,-4.84426 -0.392947,-0.94045 -0.4617,-1.44186 -0.17326,-1.2636 0.312746,0.19329 0.386853,0.0575 0.214191,-0.39242 -0.145194,-0.37837 -0.07949,-0.80198 0.146012,-0.94135 0.225501,-0.13936 0.308965,-0.41687 0.18548,-0.61667 -0.123485,-0.19981 -0.04465,-0.47445 0.17519,-0.61032 0.238876,-0.14763 0.166819,-0.69593 -0.179081,-1.36265 -0.49205,-0.94843 -0.490271,-1.28679 0.01189,-2.25786 0.324873,-0.62824 0.504979,-1.26273 0.400235,-1.40998 -0.104743,-0.14725 0.03178,-0.0803 0.303371,0.14881 0.376036,0.31718 0.365283,0.65669 -0.04509,1.42348 -0.58833,1.09931 -0.492527,2.42133 0.176556,2.43639 0.231845,0.005 0.588355,-0.56379 0.792243,-1.26447 0.311654,-1.07102 0.166511,-1.58226 -0.911078,-3.20912 -0.816043,-1.232 -1.380054,-2.733523 -1.552239,-4.132373 -0.599349,-4.869222 -0.621521,-4.896651 -1.737858,-2.149969 -0.550956,1.355605 -1.361933,2.951924 -1.802164,3.547369 -0.574149,0.776575 -0.846432,1.993753 -0.963176,4.305643 -0.157992,3.12864 -0.139617,3.20211 0.627486,2.50904 0.856586,-0.77391 2.806806,-4.37957 2.806806,-5.18934 0,-0.274337 -0.570262,0.28843 -1.267251,1.2506 -0.696989,0.96216 -1.383422,1.74939 -1.525408,1.74939 -0.141986,0 0.247134,-0.66247 0.864709,-1.47215 0.617576,-0.80969 1.391432,-2.090107 1.719677,-2.845373 l 0.596811,-1.373217 0.01648,1.594772 c 0.01825,1.763068 -1.435945,4.961298 -3.040434,6.686918 -0.570498,0.61357 -1.140756,1.51131 -1.267238,1.99498 -0.191542,0.73245 -0.106927,0.81356 0.506298,0.48537 1.605049,-0.85899 3.671545,-4.203 4.253147,-6.88245 l 0.384609,-1.77191 -0.208082,1.89691 c -0.114447,1.0433 -0.283833,3.13559 -0.376415,4.64952 -0.192457,3.14718 -1.356621,6.54405 -2.965784,8.65377 -0.608483,0.79776 -0.998636,1.45047 -0.867007,1.45047 0.131624,0 -0.230454,0.92706 -0.804624,2.06012 -1.90822,3.7657 -6.892009,7.21367 -10.426825,7.21367 -0.654232,0 -1.189515,0.17302 -1.189515,0.38449 0,1.29354 -7.155078,0.70263 -9.210024,-0.76061 -0.647237,-0.46088 -1.448014,-0.89675 -1.779505,-0.96861 -0.331491,-0.0718 -0.852927,-0.51002 -1.158746,-0.97371 l -0.556036,-0.84308 0.325002,0.84308 c 0.178752,0.46369 0.334122,1.67592 0.345268,2.69386 0.01659,1.51544 0.230351,2.00775 1.179718,2.71707 0.640228,0.47835 1.867242,0.88746 2.739984,0.91356 0.869292,0.026 2.054759,0.31045 2.634371,0.63212 0.579612,0.32167 1.812605,0.71377 2.739983,0.87134 0.92738,0.15756 1.744763,0.31022 1.816408,0.33923 0.07164,0.029 4.21e-4,-0.15724 -0.158173,-0.41393 z m -3.881487,-1.20309 c -0.777274,-0.484 -2.102021,-0.85943 -3.032628,-0.85943 -1.138517,0 -1.961167,-0.29498 -2.645071,-0.94845 -0.545942,-0.52165 -0.674893,-0.70324 -0.286557,-0.40352 0.919718,0.70983 3.517079,1.12309 4.480656,0.7129 1.129447,-0.4808 3.480218,-0.57071 3.744428,-0.1432 0.127296,0.20597 0.437339,0.24724 0.688988,0.0917 0.273084,-0.16877 0.33628,-0.0866 0.156761,0.20389 -0.337128,0.54549 0.20385,0.65626 0.832816,0.17052 0.225155,-0.17388 0.05239,0.0158 -0.383931,0.42154 -0.622474,0.57883 -0.658203,0.73768 -0.165916,0.73768 0.345065,0 0.879935,-0.30429 1.1886,-0.67622 0.545405,-0.65717 2.080546,-1.43726 3.308295,-1.68112 0.332613,-0.0661 0.84483,0.2002 1.138257,0.59169 0.470198,0.62735 0.509953,0.58676 0.33505,-0.34203 -0.171789,-0.91224 -0.146632,-0.94056 0.187242,-0.21076 0.651623,1.42435 -0.819281,2.52239 -3.436421,2.56532 -1.210643,0.0198 -2.770246,0.16949 -3.465781,0.33251 -0.924069,0.21659 -1.636263,0.065 -2.644788,-0.56303 z m 1.368803,-0.41948 c 0.137029,-0.22172 0.527607,-0.29627 0.867951,-0.16567 0.943891,0.3622 0.73706,-0.18132 -0.275136,-0.72304 -0.544953,-0.29165 -0.789115,-0.30881 -0.625429,-0.044 0.147681,0.23896 0.08884,0.54552 -0.130773,0.68124 -0.219603,0.13572 -0.51843,0.054 -0.664058,-0.18164 -0.145624,-0.23563 -0.585535,-0.42238 -0.97758,-0.41501 -0.623553,0.0117 -0.610347,0.0909 0.105443,0.63231 0.954273,0.72177 1.355381,0.7727 1.699582,0.21577 z m 7.104016,-0.1238 c 0.619671,-0.45351 0.498774,-0.51877 -0.867892,-0.46845 -2.358528,0.0868 -2.48818,0.12821 -1.798618,0.57384 0.865864,0.55956 1.80887,0.52229 2.66651,-0.10539 z m -0.980366,-1.15922 c 0,-0.23184 -0.08365,-0.42154 -0.185889,-0.42154 -0.10224,0 -0.303127,0.1897 -0.446415,0.42154 -0.143289,0.23185 -0.05964,0.42154 0.185893,0.42154 0.245528,0 0.446411,-0.18969 0.446411,-0.42154 z m 5.693076,-0.84566 c 0.42092,-0.46511 0.856734,-0.75423 0.968474,-0.64249 0.283243,0.28325 -0.768131,1.48815 -1.298529,1.48815 -0.23939,0 -0.09087,-0.38055 0.330055,-0.84566 z m -18.687212,-0.5515 c -0.915907,-0.97494 -1.29788,-2.68209 -0.488139,-2.18165 0.235626,0.14563 0.301163,0.47067 0.145636,0.72232 -0.16235,0.26269 -0.08792,0.33711 0.174765,0.17476 0.251647,-0.15552 0.576687,-0.09 0.722313,0.14564 0.145625,0.23562 0.01646,0.44178 -0.287025,0.45811 -0.303488,0.0164 0.192713,0.30243 1.10267,0.63576 2.16245,0.79213 2.343311,1.02068 0.807716,1.02068 -0.773477,0 -1.615909,-0.37737 -2.177936,-0.97562 z m -4.295295,2.53151 c 0.0035,-0.18757 -0.183236,-0.2238 -0.415081,-0.0805 -0.231845,0.14329 -0.418631,0.58129 -0.415081,0.97334 0.0056,0.61429 0.06293,0.62542 0.415081,0.0805 0.224744,-0.34777 0.411531,-0.78577 0.415081,-0.97333 z m 21.305177,0.63321 c -0.129783,-0.12979 -0.469924,-2.7e-4 -0.755865,0.28781 -0.413219,0.41632 -0.364801,0.46474 0.235972,0.23598 0.415727,-0.1583 0.64968,-0.39401 0.519893,-0.52379 z m 3.396077,-0.86796 c -0.20987,-0.33957 -2.353391,-0.15433 -2.353391,0.20338 0,0.0889 0.58027,0.16163 1.289487,0.16163 0.709218,0 1.187975,-0.16425 1.063904,-0.36501 z m -10.99488,-3.00728 c 0.800051,-0.34379 0.793985,-0.36379 -0.118923,-0.39191 -1.738942,-0.0536 -3.820288,-1.20632 -4.756389,-2.63436 -1.019513,-1.55528 -2.845963,-3.09289 -3.224388,-2.71446 -0.133993,0.13399 0.269777,1.01943 0.897267,1.96763 0.627491,0.9482 1.079107,1.90935 1.003593,2.1359 -0.228516,0.68554 -3.469053,-2.37627 -4.354615,-4.11445 -0.455409,-0.89388 -1.349667,-2.28495 -1.98724,-3.09127 -0.637573,-0.80632 -1.159224,-1.69615 -1.159224,-1.97741 0,-0.8312 0.747815,-1.04931 1.655071,-0.48272 0.713152,0.44537 1.030857,0.394 2.019444,-0.32655 2.635036,-1.92058 4.017487,-7.20193 3.074365,-11.74492 -0.497084,-2.39444 -2.492162,-5.487127 -2.520199,-3.906708 -0.0073,0.413009 0.276058,0.861965 0.629742,0.997687 0.40273,0.15454 0.505957,0.425301 0.276206,0.724461 -0.657043,0.85554 -0.951589,2.0228 -0.428923,1.69977 0.754165,-0.4661 0.02524,6.03072 -0.915198,8.1571 -0.435792,0.98534 -0.909057,1.79152 -1.051699,1.79152 -0.142642,0 -0.122896,-0.23711 0.04388,-0.52692 0.176175,-0.30613 0.142442,-0.37973 -0.08051,-0.17564 -0.211055,0.19321 -0.38664,0.47775 -0.39019,0.63231 -0.01429,0.62238 -0.712388,1.33486 -1.307909,1.33486 -0.370609,0 -0.50782,-0.20142 -0.331527,-0.48667 0.192337,-0.3112 0.114957,-0.37182 -0.214628,-0.16813 -0.283472,0.1752 -0.428729,0.54441 -0.322792,0.82048 0.105937,0.27607 -0.06761,0.85782 -0.385655,1.29277 -0.318048,0.43496 -0.431356,0.99608 -0.251796,1.24695 0.569735,0.79599 1.366469,3.48625 1.211335,4.0902 -0.08212,0.3197 -0.0759,0.45746 0.01383,0.30613 0.08973,-0.15133 1.048546,0.67142 2.130707,1.82834 1.082162,1.15692 2.542611,2.40727 3.245444,2.77857 2.121814,1.12092 6.047279,1.60506 7.600917,0.93744 z m -8.186671,-24.69498 c 0.02023,-0.49107 0.120112,-0.59095 0.254678,-0.25468 0.121769,0.30429 0.106793,0.66787 -0.03328,0.80794 -0.140073,0.14008 -0.239702,-0.1089 -0.221398,-0.55326 z m 25.680417,24.24504 c 0,-0.24747 -0.33196,-0.34664 -0.737688,-0.22039 -0.405728,0.12625 -1.022225,0.0471 -1.369992,-0.17591 -0.488455,-0.31322 -0.34461,-0.41805 0.632304,-0.46081 0.695534,-0.0304 0.951436,-0.13849 0.568665,-0.24009 -0.382768,-0.10161 -1.331224,-0.002 -2.10768,0.22165 -1.019898,0.29359 -1.155393,0.41694 -0.488156,0.4444 0.507968,0.0209 1.04081,0.22771 1.184099,0.45955 0.349243,0.56509 2.318448,0.54096 2.318448,-0.0284 z m -32.687043,-0.364 c 0.133387,-0.21583 0.08135,-0.49202 -0.115634,-0.61376 -0.196986,-0.12175 -0.358157,0.0548 -0.358157,0.3924 0,0.71078 0.132926,0.77289 0.473791,0.22136 z m 21.094802,-1.06192 c 2.280312,-1.10847 4.68109,-3.06813 4.266585,-3.48263 -0.141252,-0.14125 -0.625416,0.0768 -1.075916,0.48445 -0.450504,0.4077 -1.025441,0.61374 -1.277637,0.45787 -0.25269,-0.15617 -0.406547,-0.0387 -0.342713,0.2618 0.231056,1.08757 -6.349543,2.1213 -8.026455,1.26085 -0.390486,-0.20036 -1.505613,-0.46543 -2.478063,-0.58904 -1.681756,-0.21378 -1.743502,-0.18325 -1.264608,0.62526 1.30202,2.19816 6.63923,2.71177 10.198807,0.98144 z m -20.074462,-0.47442 c 0.163916,0.10131 0.327307,-0.20449 0.363092,-0.67955 0.06281,-0.83379 0.04437,-0.83643 -0.531393,-0.0762 -0.328051,0.43317 -0.587514,0.97726 -0.576584,1.20911 0.01093,0.23184 0.115945,0.18324 0.233366,-0.10801 0.11742,-0.29125 0.347604,-0.44666 0.511519,-0.34536 z m 6.359263,-1.7463 c -1.200565,-1.89309 -2.353603,-2.94884 -2.767999,-2.53445 -0.182109,0.18211 3.529109,4.52335 3.866898,4.52335 0.08933,0 -0.405173,-0.895 -1.098899,-1.9889 z m -7.631807,0.15526 c 0.884379,-0.94138 0.893262,-1.01919 0.178863,-1.56687 -0.413451,-0.31696 -0.611107,-0.4103 -0.439235,-0.20743 0.171872,0.20286 0.101223,0.62342 -0.156999,0.93455 -0.258221,0.31114 -0.328194,0.56571 -0.155495,0.56571 0.172698,0 0.07785,0.28454 -0.210768,0.6323 -0.832946,1.00364 -0.241992,0.73346 0.783634,-0.35826 z m 21.866401,0.14082 c 0.676646,-0.43449 0.667642,-0.4539 -0.09786,-0.21095 -0.534192,0.16955 -0.688634,0.12264 -0.421536,-0.12801 0.433845,-0.40714 3.46471,-1.52632 4.21536,-1.55657 0.8273,-0.0333 1.49968,-0.70823 2.333042,-2.34176 0.465089,-0.91164 0.756421,-1.65754 0.647412,-1.65754 -0.109013,0 -1.021093,0.55536 -2.026849,1.23414 -1.005762,0.67878 -2.38587,1.37399 -3.066913,1.54493 -0.681046,0.17092 -2.060775,0.8324 -3.066067,1.46994 -1.440026,0.91324 -1.665801,1.20123 -1.064197,1.35745 0.41998,0.10906 -0.0064,0.19038 -0.947499,0.18071 -0.941109,-0.01 -2.079256,0.21383 -2.529217,0.49665 -0.673138,0.4231 -0.277885,0.4766 2.230503,0.30188 1.676736,-0.11679 3.383957,-0.42768 3.793821,-0.69087 z m -18.803904,-0.52727 c -0.416315,-0.41322 -0.464735,-0.3648 -0.235973,0.23597 0.158299,0.41573 0.394006,0.64968 0.523791,0.5199 0.129786,-0.12979 2.68e-4,-0.46993 -0.287818,-0.75587 z m 15.59897,-0.65321 c 2.451734,-1.06406 5.971336,-4.67593 7.326651,-7.51873 1.478316,-3.10079 2.463722,-9.28072 2.106437,-13.21034 -0.3654,-4.018814 -2.242539,-10.967393 -2.895161,-10.716958 -0.308429,0.118354 -0.4801,1.501448 -0.4801,3.86801 0,3.362487 -0.119489,3.901716 -1.369992,6.182471 -1.738705,3.171177 -1.782587,4.347147 -0.08825,2.364897 0.686113,-0.8027 1.247477,-1.69253 1.247477,-1.977417 0,-0.284883 0.160255,-0.617007 0.356126,-0.738063 0.195867,-0.121053 0.208568,0.713336 0.0282,1.8542 -0.319933,2.02387 -2.084976,5.60339 -3.058889,6.20345 -0.267839,0.16502 -0.15502,-0.21428 0.250709,-0.84288 1.609568,-2.49375 1.925682,-3.08006 2.207137,-4.09368 0.254996,-0.91834 0.09804,-0.84074 -1.220718,0.6035 -0.832335,0.91153 -1.519532,2.04968 -1.527098,2.52921 -0.0076,0.47954 -0.373173,1.91316 -0.812448,3.18583 -0.439278,1.27267 -0.736705,2.37593 -0.660951,2.45168 0.380503,0.38051 3.698135,-3.71686 4.667849,-5.76493 1.131289,-2.38932 1.464785,-6.031834 0.862168,-9.416857 -0.186277,-1.046362 -0.150935,-1.179862 0.143946,-0.543773 0.214958,0.46369 0.404169,1.64926 0.420466,2.6346 0.02146,1.298276 0.203717,1.791528 0.661931,1.791528 0.347767,0 0.632304,0.195642 0.632304,0.434762 0,0.23913 -0.284537,0.54396 -0.632304,0.67741 -0.347767,0.13345 -0.632306,0.70904 -0.632306,1.27909 0,0.57005 -0.181286,1.37519 -0.402858,1.7892 -0.221567,0.41401 -0.689911,2.12947 -1.040755,3.81214 -1.549836,7.43304 -6.669227,12.22314 -13.037903,12.19926 -1.589106,-0.006 -2.99261,0.0925 -3.118903,0.2188 -0.126293,0.12629 0.604809,0.62017 1.624672,1.09751 2.256482,1.05614 5.507608,0.91984 8.442544,-0.35392 z m -5.534413,-0.0774 c 0,-0.23185 0.189691,-0.42154 0.421535,-0.42154 0.231845,0 0.421536,0.18969 0.421536,0.42154 0,0.23184 -0.189691,0.42153 -0.421536,0.42153 -0.231844,0 -0.421535,-0.18969 -0.421535,-0.42153 z m 4.636896,-1.05384 c 0,-0.34777 0.189691,-0.63231 0.421536,-0.63231 0.231844,0 0.421536,0.28454 0.421536,0.63231 0,0.34776 -0.189692,0.6323 -0.421536,0.6323 -0.231845,0 -0.421536,-0.28454 -0.421536,-0.6323 z m 4.21536,-3.16152 c 0,-0.23185 0.295733,-0.42154 0.657183,-0.42154 0.36145,0 0.539946,0.18969 0.396657,0.42154 -0.143289,0.23184 -0.439017,0.42153 -0.657179,0.42153 -0.218166,0 -0.396661,-0.18969 -0.396661,-0.42153 z m 2.950752,-5.61424 c 0,-0.78697 0.687521,-1.30152 1.020071,-0.76344 0.12939,0.20936 -0.04719,0.61506 -0.392408,0.90156 -0.510341,0.42355 -0.627663,0.39773 -0.627663,-0.13812 z m 1.264608,-5.32082 c 0,-0.47737 0.189694,-0.86795 0.421538,-0.86795 0.231845,0 0.421536,0.27334 0.421536,0.60743 0,0.33408 -0.189691,0.72466 -0.421536,0.86795 -0.231844,0.14329 -0.421538,-0.13006 -0.421538,-0.60743 z m 10.116865,14.25216 c 0,-0.20542 -0.367111,-0.14423 -0.815807,0.13599 -0.448691,0.28021 -0.716341,0.67041 -0.594774,0.86711 0.248385,0.40189 1.410581,-0.42457 1.410581,-1.0031 z m -4.769448,-0.86136 c 0.536594,-0.50411 0.975624,-1.1663 0.975624,-1.47154 0,-0.30525 -0.569074,0.0405 -1.264608,0.7683 -0.695534,0.72781 -1.264608,1.39 -1.264608,1.47154 0,0.39223 0.672004,0.0599 1.553592,-0.7683 z m -15.276179,-0.33709 c 3.430139,-1.6605 7.280188,-6.71103 8.041853,-10.54937 l 0.292765,-1.47538 -1.339443,1.82769 c -0.736689,1.00522 -1.873951,2.13444 -2.527248,2.50938 -1.282987,0.73634 -2.341202,2.12286 -1.932283,2.53178 0.13912,0.13912 0.829317,-0.0875 1.533767,-0.50365 0.704455,-0.41613 1.366418,-0.67101 1.47103,-0.5664 0.394132,0.39413 -3.763292,3.79593 -5.654492,4.62677 -1.084031,0.47624 -2.423348,1.2181 -2.976268,1.64858 l -1.0053,0.7827 h 1.188365 c 0.6536,0 1.961866,-0.37445 2.907254,-0.8321 z m 10.80789,-2.19828 c 3.034181,-2.04962 4.68616,-5.19571 5.270455,-10.03724 l 0.279803,-2.31844 -1.272406,1.72524 c -0.699826,0.94888 -1.732079,2.08703 -2.293902,2.52921 -0.561819,0.44219 -1.226755,1.37305 -1.477632,2.06859 -0.250875,0.69553 -0.604316,1.6321 -0.785425,2.08126 -0.277666,0.68864 -0.09797,0.64022 1.146374,-0.30889 0.811613,-0.61905 1.731206,-1.60304 2.043543,-2.18665 0.312337,-0.5836 0.720599,-1.0611 0.907255,-1.0611 0.186652,0 -0.23238,0.99588 -0.931181,2.21307 -1.318194,2.29606 -4.323708,5.37458 -5.247121,5.37458 -0.291285,0 -0.837689,0.47019 -1.21423,1.04486 -0.684478,1.04464 -0.684372,1.04478 0.478439,0.61306 0.639685,-0.23749 2.032896,-1.01939 3.096028,-1.73755 z m -25.978522,0.53029 c 0.133387,-0.21583 0.04974,-0.51156 -0.18589,-0.65718 -0.235627,-0.14562 -0.428412,0.0309 -0.428412,0.39241 0,0.74044 0.252944,0.84946 0.614302,0.26477 z m 9.535323,-0.0887 c 2.555807,-0.76574 4.559595,-2.72949 6.131035,-6.00854 0.783117,-1.6341 1.423852,-3.4931 1.423852,-4.13111 0,-1.15751 -0.0042,-1.15595 -1.885818,0.7258 -1.037202,1.0372 -2.050056,1.88582 -2.250787,1.88582 -0.435464,0 -1.464087,2.12746 -1.17055,2.421 0.304968,0.30497 3.131586,-1.53606 3.605587,-2.34839 0.250084,-0.42859 0.416351,-0.49467 0.424141,-0.16858 0.02264,0.94673 -3.471674,4.35398 -5.540202,5.40219 -1.175954,0.5959 -2.880944,1.05357 -4.126898,1.10778 -1.167699,0.0508 -2.123089,0.15513 -2.123089,0.23182 0,0.23433 2.701803,1.32928 3.323382,1.34686 0.320869,0.009 1.306073,-0.20002 2.189347,-0.46465 z m 9.308595,-2.75229 0.912996,-0.97184 -1.649504,0.79957 c -0.907226,0.43975 -2.123732,1.32092 -2.703344,1.95813 l -1.053841,1.15858 1.790348,-0.9863 c 0.984692,-0.54246 2.201198,-1.42362 2.703345,-1.95814 z m 8.564027,-1.23674 0.685173,-1.04571 -1.464399,0.95994 c -0.805419,0.52797 -1.793442,1.51696 -2.195605,2.19777 l -0.731204,1.23783 1.510433,-1.15206 c 0.830738,-0.63364 1.818757,-1.62263 2.195602,-2.19777 z m -21.27767,1.89587 c 0,-0.20704 0.200886,-0.37644 0.446413,-0.37644 0.245528,0 0.329179,0.18969 0.185891,0.42154 -0.143289,0.23184 -0.07083,0.42153 0.161012,0.42153 0.231845,0 0.538772,-0.18969 0.68206,-0.42153 0.143288,-0.23185 0.450214,-0.42154 0.682059,-0.42154 0.231845,0 0.29632,0.2026 0.143279,0.45023 -0.527599,0.85367 3.813774,-1.63382 4.865396,-2.78774 l 1.05384,-1.15636 -1.137232,0.72717 c -0.625475,0.39994 -1.417617,0.76832 -1.760313,0.81861 -0.342692,0.0503 -1.003045,0.55662 -1.467443,1.12515 -0.717458,0.87834 -0.928058,0.94522 -1.401207,0.44495 -0.306265,-0.32382 -0.341223,-0.46818 -0.07769,-0.3208 0.263537,0.14739 0.713569,-0.0145 1.00007,-0.35969 0.672232,-0.80999 0.03958,-0.81821 -1.781078,-0.0231 -0.761361,0.33247 -1.999069,0.85225 -2.750462,1.15504 -1.093541,0.44068 -1.219721,0.60282 -0.632304,0.81253 0.850102,0.30349 1.787705,0.0363 1.787705,-0.50951 z m 28.949128,-1.07534 c -0.152549,-0.15256 -0.0419,-0.57936 0.245899,-0.94846 0.462231,-0.59282 0.437765,-0.60406 -0.209786,-0.0964 -0.659459,0.51699 -0.66853,1.32222 -0.01488,1.32222 0.140882,0 0.131334,-0.12481 -0.0212,-0.27736 z m -26.874971,-1.17328 c 0.767184,-0.56601 1.655116,-1.40065 1.973186,-1.85476 0.659455,-0.9415 1.867527,-5.29391 1.827443,-6.58387 -0.02487,-0.80064 -0.05325,-0.79383 -0.411744,0.0988 -0.482848,1.20229 -2.605152,3.88893 -3.072058,3.88895 -0.191949,0 0.299245,-0.75732 1.091543,-1.68294 2.594288,-3.03084 3.020579,-7.019511 1.02179,-9.560559 -0.498158,-0.633303 -0.719541,-1.03818 -0.491966,-0.899727 0.227579,0.138458 0.632565,0.01475 0.899971,-0.27493 0.74987,-0.812304 -1.031326,-3.640596 -2.931022,-4.654044 -1.379559,-0.735968 -1.6317,-0.762744 -1.984728,-0.210768 -0.222422,0.347767 -0.344284,0.821995 -0.270804,1.05384 0.17451,0.550614 2.381912,0.5883 2.381912,0.04068 0,-0.231027 0.235528,-0.184519 0.523394,0.103348 0.416841,0.41684 0.402171,0.59832 -0.07205,0.891405 -0.500312,0.30921 -0.468708,0.55897 0.197802,1.563208 1.014456,1.528489 1.136672,2.007321 1.165775,4.567486 0.01484,1.304691 -0.279373,2.669771 -0.772225,3.583051 -0.4379,0.81146 -0.848765,2.1393 -0.913032,2.95076 -0.06427,0.81145 -0.167154,2.13929 -0.22864,2.95075 -0.06149,0.81145 -0.35794,1.73507 -0.658786,2.05248 -0.735075,0.77554 -0.277941,1.16137 0.55599,0.46927 0.36392,-0.30203 0.566141,-0.7981 0.449379,-1.10238 -0.116763,-0.30427 0.199016,-0.84132 0.701728,-1.19344 0.502715,-0.35211 1.151969,-1.06865 1.442782,-1.59229 0.290818,-0.52365 0.535482,-0.71121 0.543698,-0.41679 0.02622,0.94041 -2.010837,3.78545 -3.552201,4.9611 -1.410765,1.07603 -1.903422,1.88047 -1.151655,1.88047 0.186802,0 0.967335,-0.4631 1.734517,-1.02911 z m 0.618015,-7.507 c 0.0486,-0.2898 0.363773,-1.00115 0.70039,-1.58076 0.336614,-0.57961 0.834713,-1.62291 1.106878,-2.31845 0.272169,-0.69553 0.507433,-0.98007 0.522806,-0.6323 0.01539,0.34777 -0.4357,1.62818 -1.002379,2.84537 -0.991735,2.13016 -1.513205,2.79242 -1.327695,1.68614 z m 2.578013,7.16977 c 0.189721,0.17187 0.21194,0.081 0.04937,-0.20204 -0.162565,-0.283 0.01248,-1.11025 0.388981,-1.83833 0.424495,-0.82089 0.499103,-1.26198 0.196381,-1.16107 -0.268497,0.0895 -0.510746,0.34767 -0.538322,0.57372 -0.02757,0.22605 -0.392737,0.77873 -0.811457,1.22817 -0.91591,0.98311 -1.080233,2.29072 -0.19561,1.55655 0.31114,-0.25822 0.720932,-0.32887 0.910657,-0.157 z m 26.064711,-3.20472 c -0.03823,-0.15214 0.151445,-0.56114 0.421536,-0.90891 0.426712,-0.54944 0.395,-0.55698 -0.241974,-0.0576 -0.403174,0.31608 -0.634244,0.73455 -0.513486,0.92993 0.120757,0.19539 -0.268417,0.67499 -0.864832,1.06578 -0.596414,0.39079 -1.290452,1.09555 -1.542307,1.56614 -0.251851,0.47059 0.277501,0.1414 1.176342,-0.73155 0.898842,-0.87294 1.602967,-1.71164 1.564721,-1.86377 z m -33.713182,1.10195 c -0.128436,-0.20781 0.117023,-0.78943 0.545463,-1.29247 0.720734,-0.84624 0.722101,-0.87049 0.01828,-0.32426 -1.130697,0.87752 -1.646621,1.99457 -0.921216,1.99457 0.325046,0 0.485909,-0.17003 0.357473,-0.37784 z m 30.607793,-2.09137 c 0.0148,-1.25304 -0.60025,-1.89633 -1.076438,-1.12584 -0.190501,0.30823 -0.122305,0.38061 0.18164,0.19276 0.285249,-0.17629 0.486667,-0.0391 0.486667,0.33153 0,0.34777 -0.219,0.76765 -0.486667,0.93308 -0.327395,0.20234 -0.374253,0.10701 -0.143183,-0.29127 0.188915,-0.32563 0.182744,-0.44592 -0.0137,-0.26732 -0.406951,0.36998 -0.613795,2.03341 -0.316574,2.54586 0.340938,0.58782 1.35421,-1.12937 1.368268,-2.3188 z m -33.165648,0.923 c 0.121341,-0.46401 0.04862,-0.73735 -0.161604,-0.60743 -0.210223,0.12993 -0.382224,0.50957 -0.382224,0.84366 0,0.87247 0.286432,0.74805 0.543828,-0.23623 z m 2.304325,-0.61008 c 1.326721,-1.11636 1.636356,-2.30499 0.559263,-2.14691 -0.367088,0.0539 -0.667432,0.30882 -0.667432,0.56654 0,0.25773 -0.379382,0.75527 -0.843072,1.10564 -0.46369,0.35037 -0.653381,0.64598 -0.421536,0.6569 0.231845,0.0109 0.136999,0.20374 -0.210768,0.42849 -0.366642,0.23694 -0.424508,0.41134 -0.137727,0.41508 0.272018,0.003 1.046591,-0.45803 1.721272,-1.02574 z m -0.405679,-0.47202 c 0.519155,-0.36363 0.816591,-0.86717 0.660967,-1.11897 -0.17434,-0.28209 -0.0856,-0.33586 0.231176,-0.14008 0.386353,0.23878 0.333921,0.51688 -0.21097,1.11897 -0.398803,0.44067 -0.927596,0.80123 -1.175094,0.80123 -0.247499,0 -0.02523,-0.29752 0.493921,-0.66115 z m 14.217792,-4.15344 c 1.058232,-2.12359 1.338798,-5.036805 0.652744,-6.777656 -0.292327,-0.741781 -0.367723,-0.683192 -0.627536,0.48762 -0.16241,0.731884 -0.951268,2.420051 -1.753017,3.751486 -1.779708,2.9555 -1.582729,3.53672 0.295531,0.87202 0.750865,-1.06526 1.430326,-1.87171 1.509921,-1.79211 0.317977,0.31797 -1.631884,4.19916 -3.028547,6.02832 -0.81665,1.06953 -1.484819,2.14552 -1.484819,2.39107 0,0.90003 3.422612,-2.92769 4.435723,-4.96075 z m -4.67771,3.63366 c -0.01716,-0.48666 0.152605,-0.77123 0.377271,-0.63238 0.241848,0.14947 0.322416,-0.1978 0.197498,-0.85127 -0.116045,-0.60705 -0.08082,-1.02328 0.07829,-0.92495 0.434945,0.26881 0.49627,-4.12134 0.06678,-4.78081 -0.737954,-1.133123 -1.059446,0.4575 -0.839801,4.15497 0.02065,0.34777 -0.156032,1.44832 -0.392648,2.44566 -0.319845,1.34817 -0.305272,1.76978 0.05681,1.64348 0.267856,-0.0934 0.472967,-0.56804 0.455793,-1.0547 z m 23.811922,-2.6129 c -0.01526,-0.41692 -0.146577,-0.34513 -0.385453,0.21077 -0.497969,1.15884 -0.497969,1.82439 0,1.05384 0.224747,-0.34777 0.3982,-0.91684 0.385453,-1.26461 z m -20.900967,-0.91605 0.772056,-1.4024 -1.298976,1.37665 c -0.714436,0.75715 -1.298976,1.58656 -1.298976,1.84314 0,0.72845 0.93874,-0.20591 1.825896,-1.81739 z m 24.100564,0.14523 c -0.112996,-0.113 -0.01505,-0.43485 0.217631,-0.71522 0.292597,-0.35256 0.226466,-0.67295 -0.214427,-1.03886 -0.438144,-0.36363 -0.637501,-0.38112 -0.637501,-0.0559 0,0.26023 0.200887,0.47315 0.446415,0.47315 0.245528,0 0.323482,0.1989 0.173238,0.44201 -0.185492,0.30013 -0.47172,0.27722 -0.891734,-0.0714 -0.340209,-0.28235 -0.585395,-0.33898 -0.544856,-0.12585 0.04055,0.21313 0.04833,0.67204 0.01732,1.01981 -0.05011,0.56205 -0.106914,0.56205 -0.511222,0 -0.393205,-0.54662 -0.425355,-0.5393 -0.237253,0.054 0.119678,0.37748 0.09015,0.85824 -0.06562,1.06835 -0.15577,0.21011 0.124084,-0.0392 0.621888,-0.55404 1.23736,-1.27968 1.655199,-0.68689 0.468748,0.66501 l -0.952309,1.08512 1.157564,-1.02038 c 0.636658,-0.56121 1.065107,-1.11282 0.95211,-1.22582 z m -34.357178,-0.22803 c 0,-1.05622 -0.691479,-1.14555 -1.139039,-0.14715 -0.586632,1.30863 -0.248922,2.17264 0.540608,1.38311 0.329137,-0.32913 0.598431,-0.88532 0.598431,-1.23596 z m -1.026739,0.45375 c 0.1583,-0.41573 0.394007,-0.64968 0.523792,-0.51989 0.129786,0.12978 2.67e-4,0.46992 -0.287818,0.75587 -0.416316,0.41321 -0.464735,0.36479 -0.235974,-0.23598 z m 32.89296,-1.62771 c 0.186353,-0.30153 0.115636,-0.37224 -0.185889,-0.18589 -0.267667,0.16543 -0.486668,0.0683 -0.486668,-0.21589 0,-0.28417 -0.11384,-0.40283 -0.25298,-0.2637 -0.241131,0.24114 0.125554,1.15215 0.463748,1.15215 0.08856,0 0.296361,-0.219 0.461789,-0.48667 z m -20.225194,-5.1486 c 0.872892,-2.617296 0.540439,-5.246104 -0.988923,-7.819755 l -1.147497,-1.931043 -0.326096,2.862006 c -0.179355,1.574108 -0.691248,3.577757 -1.137536,4.452563 -0.492422,0.965224 -0.67434,1.81239 -0.462712,2.154803 0.250392,0.405147 0.615974,0.0411 1.296472,-1.291038 0.521263,-1.020412 1.092524,-2.329522 1.269477,-2.909134 0.255526,-0.837006 0.320532,-0.66354 0.315937,0.843072 -0.0034,1.043302 -0.172476,2.37114 -0.376208,2.950752 -0.289444,0.823467 -0.324655,0.685245 -0.161057,-0.632304 l 0.20936,-1.686144 -1.027835,2.055621 c -1.101259,2.202462 -1.057276,4.167431 0.05181,2.314586 0.416376,-0.695601 0.503997,-0.74251 0.289233,-0.154847 -0.169458,0.46369 -0.380352,1.601842 -0.468656,2.529212 l -0.160546,1.68615 1.07017,-1.68615 c 0.588595,-0.92737 1.378166,-2.609632 1.754607,-3.73835 z m -8.726358,1.630674 c 0.01275,-0.231844 -0.160709,-0.136999 -0.385453,0.210768 -0.224745,0.347768 -0.398199,0.916838 -0.385454,1.264608 0.02447,0.66765 0.727013,-0.676894 0.770907,-1.475376 z m 15.100754,-4.865579 c 0.178234,-1.965568 0.01821,-3.030659 -0.770732,-5.130511 l -0.995655,-2.64999 -0.311777,2.137621 c -0.171476,1.17569 -0.513266,2.598374 -0.759528,3.161521 l -0.447751,1.023898 0.233451,-1.05384 c 0.662874,-2.992286 0.68532,-4.993579 0.07891,-7.03558 -0.735803,-2.477729 -3.700196,-7.362527 -3.975911,-6.551603 -0.09991,0.293851 -0.648166,-0.401897 -1.218352,-1.546106 -1.767303,-3.546514 -2.118282,-3.456334 -2.081769,0.534884 0.01775,1.941081 0.246047,3.773577 0.510864,4.100775 0.263317,0.325343 0.9548,1.300078 1.536625,2.166076 l 1.057862,1.574546 0.274078,-1.092014 c 0.150742,-0.600608 0.176708,-1.973072 0.0577,-3.04992 l -0.216378,-1.957907 0.444126,1.848893 c 0.246472,1.026081 0.30289,2.526848 0.126773,3.372286 -0.566815,2.720914 0.320974,4.549723 1.023177,2.107701 0.225741,-0.785056 0.427547,-1.107763 0.44846,-0.71713 0.02091,0.390638 -0.146918,1.196653 -0.372946,1.791153 -0.341242,0.897543 -0.145599,1.588917 1.153318,4.075567 l 1.564274,2.994659 0.513815,-1.202756 c 0.282597,-0.661517 0.534398,-1.676984 0.559547,-2.256596 l 0.04574,-1.05384 0.429419,1.05384 c 0.52281,1.283021 0.181627,4.208949 -0.68656,5.887834 -0.351654,0.680026 -0.623561,1.957175 -0.604238,2.838105 l 0.03511,1.601689 1.061697,-2.246365 c 0.583937,-1.235501 1.162917,-3.362602 1.286625,-4.72689 z m -4.624735,-6.809632 c 0.103344,-1.246217 -0.01678,-3.007112 -0.266929,-3.913107 -0.537433,-1.946431 -0.275954,-2.538457 0.370357,-0.838531 0.566469,1.489923 0.631487,5.368505 0.105743,6.307957 -0.272372,0.486706 -0.338064,-0.0021 -0.209171,-1.556319 z m -3.624497,-5.660458 c -0.03899,-0.724515 -0.211097,-1.957508 -0.382493,-2.739984 L 45.459553,37.089188 45.202188,38.9861 c -0.235462,1.735509 -0.262748,1.654807 -0.320671,-0.948456 -0.03482,-1.564953 0.01627,-2.845368 0.113579,-2.845368 0.48394,0 1.541637,4.374958 1.396072,5.774598 -0.148713,1.42999 -0.174254,1.460634 -0.237493,0.284982 z M 43.73217,57.310772 c -0.542643,-1.298723 -0.518316,-1.553781 0.276709,-2.901247 1.243299,-2.107233 1.588971,-7.209164 0.651757,-9.619599 -0.384786,-0.98964 -1.028396,-2.225067 -1.430246,-2.745396 -0.712977,-0.923192 -0.730635,-0.872263 -0.730635,2.107679 0,1.970614 -0.278859,3.776613 -0.786216,5.09181 -0.507297,1.315045 -0.641329,2.182962 -0.377805,2.446485 0.561452,0.561448 2.203128,-3.347261 2.270451,-5.405778 0.04591,-1.403913 0.09636,-1.313746 0.397458,0.710449 0.387244,2.603326 -0.608845,7.959734 -1.591973,8.56076 -0.455457,0.278437 -0.440547,0.507757 0.08145,1.25302 0.351413,0.501716 0.638935,1.24343 0.638935,1.648256 0,0.462042 0.22244,0.650692 0.597527,0.506758 0.51507,-0.197654 0.515429,-0.425785 0.0025,-1.653197 z m 9.287863,-3.992557 0.287576,-1.896912 -0.776886,1.475376 c -0.427286,0.811457 -0.698389,1.925846 -0.602451,2.476423 0.233514,1.340097 0.714246,0.43527 1.091761,-2.054887 z m 5.872663,0.933888 c 0.333844,-0.645583 0.740686,-1.925998 0.904086,-2.845368 l 0.297098,-1.671576 -1.247064,2.318448 c -0.685881,1.275146 -1.162402,2.555562 -1.058928,2.845368 0.270711,0.758209 0.4249,0.667932 1.104808,-0.646872 z m -15.58336,-2.198496 c 0.770668,-3.989982 0.75274,-4.076814 -0.361442,-1.750589 -1.015337,2.119854 -1.088381,3.015197 -0.245983,3.015197 0.199736,0 0.473081,-0.569074 0.607425,-1.264608 z m 25.53642,-1.851812 c 0,-0.09112 -0.294388,-0.278635 -0.654198,-0.41671 -0.375133,-0.14395 -0.544338,-0.07328 -0.396657,0.165668 0.247551,0.400548 1.050855,0.592448 1.050855,0.251042 z M 57.446438,46.633577 c 0.569042,-1.910756 0.860808,-4.090158 0.860585,-6.428426 -2.83e-4,-3.036228 -0.173032,-3.896072 -1.218866,-6.066825 -2.13517,-4.431789 -2.393268,-4.514577 -2.220595,-0.712286 0.09738,2.144411 -0.09045,4.259118 -0.531076,5.979039 -0.655295,2.557867 -0.587305,4.217807 0.172762,4.217807 0.6341,0 1.261363,-2.65061 1.344443,-5.681199 0.07637,-2.785904 0.108895,-2.874941 0.615833,-1.686144 0.747058,1.751887 0.700411,6.364513 -0.09133,9.030573 -0.573013,1.929543 -0.560797,4.238275 0.02243,4.238275 0.101687,0 0.572302,-1.300869 1.045809,-2.890814 z m 7.183958,1.040599 c 0,-0.785768 -0.331959,-1.790588 -0.737688,-2.232931 -0.405728,-0.442339 -0.573917,-0.560276 -0.373755,-0.262086 0.200162,0.298191 0.245343,1.174307 0.100397,1.946919 -0.144945,0.772617 -0.134828,1.53346 0.02247,1.690769 0.629607,0.629606 0.98857,0.214688 0.98857,-1.142671 z m 4.41057,-2.202555 c 0.120407,-1.096875 0.08965,-1.122462 -0.454568,-0.378194 -0.380765,0.520728 -0.583714,0.599273 -0.583714,0.225914 0,-0.314794 -0.110214,-0.462142 -0.24492,-0.327436 -0.134706,0.134706 -0.02449,0.656795 0.24492,1.160198 0.584089,1.091382 0.863913,0.907988 1.038282,-0.680482 z M 56.428356,41.09367 c 0.130605,-3.154896 0.106514,-3.306011 -0.201599,-1.264608 -0.192463,1.275146 -0.572347,2.880118 -0.844187,3.566604 -0.27184,0.686484 -0.368456,1.729786 -0.214701,2.318448 l 0.279554,1.070293 0.416301,-1.053841 c 0.228965,-0.579612 0.483053,-2.666215 0.564632,-4.636896 z m 9.191777,-0.103723 c -0.120584,-0.195109 0.0017,-0.621039 0.271878,-0.946512 0.345007,-0.415705 0.362707,-0.81781 0.05949,-1.351526 -0.404123,-0.711332 -0.432307,-0.706021 -0.442175,0.08331 -0.0058,0.463689 -0.124526,1.506991 -0.263839,2.318448 -0.181164,1.055252 -0.13267,1.301054 0.170296,0.863199 0.232975,-0.336698 0.324933,-0.771813 0.204348,-0.966922 z m -5.864949,-8.999623 c 0.284579,-1.13385 -0.195967,-2.029686 -1.448288,-2.699908 -0.498635,-0.266863 -0.702097,-0.205901 -0.702097,0.210363 0,0.322365 0.205498,0.549233 0.456662,0.504152 0.251164,-0.04508 0.42275,0.392262 0.381296,0.971874 -0.157152,2.197414 0.824938,2.955831 1.312427,1.013519 z m 1.807345,0.14135 c -0.378333,-0.287411 -0.752467,-0.996793 -0.831413,-1.576405 -0.07894,-0.579612 -0.372077,-1.468225 -0.651404,-1.974696 -0.367402,-0.666168 -0.386932,-1.238943 -0.07061,-2.070939 0.240495,-0.632545 0.281169,-1.306175 0.09039,-1.496954 -0.334181,-0.33418 -0.382999,-0.142242 -0.551997,2.170301 -0.17345,2.373374 1.661547,6.512617 2.510702,5.663461 0.105713,-0.105712 -0.117339,-0.427357 -0.495671,-0.714768 z m -13.923842,-1.56018 c -0.136236,-1.1503 -0.494617,-2.904944 -0.796403,-3.899208 l -0.548705,-1.807753 -0.210769,3.16152 c -0.155993,2.339905 -0.05685,3.353231 0.381486,3.899209 1.04229,1.298238 1.434884,0.845683 1.174391,-1.353768 z m 13.671729,-1.814778 c -0.416313,-0.413218 -0.464735,-0.364799 -0.235971,0.235973 0.158299,0.415728 0.394005,0.649681 0.523792,0.519895 0.129782,-0.129786 2.66e-4,-0.469926 -0.287821,-0.755868 z m -2.375798,-0.836047 c -0.14994,-0.521651 -0.356063,-1.251628 -0.458045,-1.622173 -0.101982,-0.370544 -0.664931,-0.892195 -1.250991,-1.159224 -1.26617,-0.576905 -2.378199,-0.66178 -1.516823,-0.115771 0.309609,0.196255 0.53448,0.430464 0.499712,0.520465 -0.03478,0.09 0.06208,0.543022 0.215206,1.006711 0.153128,0.46369 0.349112,1.080186 0.435514,1.369992 0.08641,0.289806 0.352746,0.52692 0.591867,0.52692 0.75214,0 0.473172,-1.19598 -0.487793,-2.091259 -0.507408,-0.472721 -0.759457,-0.859493 -0.560112,-0.859493 0.757289,0 1.904203,1.43577 1.904203,2.383781 0,0.543679 0.202476,0.988507 0.449943,0.988507 0.26636,0 0.338709,-0.386983 0.177319,-0.948456 z m 1.768378,-1.238262 c -0.134567,-0.336273 -0.234455,-0.236387 -0.25468,0.254678 -0.01829,0.444369 0.08133,0.693339 0.221399,0.553266 0.140073,-0.140073 0.15505,-0.503648 0.03326,-0.807944 z m 1.497127,0.150399 c -0.170461,-0.444215 -0.07683,-0.528982 0.316089,-0.286149 0.379517,0.234553 0.457931,0.182648 0.244874,-0.162086 -0.239997,-0.388328 -0.452767,-0.391494 -0.908203,-0.01351 -0.759115,0.630011 -0.760241,1.092951 -0.0025,1.092951 0.352679,0 0.494171,-0.255241 0.349905,-0.631199 z m -3.179111,-2.48717 c -0.106876,-0.410141 -0.201351,-0.176637 -0.209942,0.518897 -0.0086,0.695534 0.07886,1.031104 0.194324,0.745711 0.115467,-0.285394 0.122499,-0.854468 0.0156,-1.264608 z M 55.281928,22.4998 c -0.10183,-1.061075 -0.476913,-1.631733 -1.489847,-2.266666 -0.744564,-0.466713 -1.36106,-1.075105 -1.369993,-1.351983 -0.03107,-0.963058 -1.922149,-2.597173 -3.335875,-2.882575 -0.992962,-0.200458 -1.335616,-0.146269 -1.134345,0.179392 0.158607,0.256637 0.751413,0.466612 1.317342,0.466612 1.225852,0 2.715105,1.364456 2.715105,2.487579 0,0.469093 0.611813,1.162414 1.475376,1.671928 1.242225,0.732929 1.465394,1.08924 1.412217,2.254702 -0.05757,1.261588 -0.07864,1.28234 -0.237872,0.234259 -0.09609,-0.632472 -0.662326,-1.533506 -1.258298,-2.002297 -1.272575,-1.001008 -2.150074,-1.134163 -1.382967,-0.209855 0.293271,0.353369 0.426628,0.749083 0.296348,0.879362 -0.13028,0.130279 0.364342,0.776931 1.099155,1.437003 1.536305,1.38004 2.08716,1.118972 1.893654,-0.897461 z m 2.048781,1.231855 c -0.134567,-0.336273 -0.234454,-0.236387 -0.254679,0.254678 -0.0183,0.444369 0.08133,0.693339 0.221399,0.553266 0.140072,-0.140073 0.155049,-0.503648 0.03326,-0.807944 z m 3.914492,-0.553266 c 0,-0.231845 -0.183883,-0.136999 -0.408629,0.210768 -0.224742,0.347767 -0.408624,0.821995 -0.408624,1.05384 0,0.231845 0.183882,0.136999 0.408624,-0.210768 0.224746,-0.347767 0.408629,-0.821995 0.408629,-1.05384 z m -4.753403,-0.518897 c -0.106877,-0.410142 -0.201351,-0.176638 -0.209942,0.518897 -0.0086,0.695534 0.07886,1.031104 0.194324,0.745711 0.115467,-0.285394 0.122498,-0.854468 0.0156,-1.264608 z m 3.304499,-0.366384 c -0.401661,-0.293701 -0.606186,-0.734811 -0.454496,-0.980246 0.151685,-0.245434 0.09629,-0.767005 -0.12311,-1.159046 -0.300976,-0.537814 -0.369666,-0.357536 -0.279794,0.734349 0.165031,2.005089 0.134339,1.938944 0.899608,1.938944 0.614204,0 0.609668,-0.05734 -0.04221,-0.534001 z m -1.749636,-2.508901 c 0.143955,-0.375136 0.07328,-0.544339 -0.165668,-0.396658 -0.229189,0.141646 -0.416708,0.436035 -0.416708,0.654197 0,0.606351 0.302143,0.472737 0.582376,-0.257539 z m -3.510902,-1.184252 c -0.443987,-1.167781 -0.981969,-1.570444 -0.6413,-0.479998 0.108647,0.347767 0.296846,0.943991 0.418227,1.324941 0.121381,0.380951 0.31638,0.59695 0.433331,0.479998 0.116951,-0.116951 0.02234,-0.713175 -0.210258,-1.324941 z m 1.663916,-0.715644 c 0,-0.245528 -0.178031,-0.336384 -0.395628,-0.201903 -0.217593,0.134482 -0.591209,-0.09144 -0.830253,-0.502042 -0.239045,-0.410604 -0.440392,-0.547378 -0.447444,-0.303941 -0.01496,0.516572 0.84655,1.4543 1.336096,1.4543 0.185476,0 0.337229,-0.200887 0.337229,-0.446414 z m 0.700713,-0.923579 c -0.116938,-0.289806 -0.212614,-0.05269 -0.212614,0.526921 0,0.579612 0.09568,0.816726 0.212614,0.52692 0.116943,-0.289806 0.116943,-0.764034 0,-1.053841 z m -4.202417,-1.467353 c -0.106876,-0.410141 -0.201351,-0.176637 -0.209942,0.518897 -0.0086,0.695535 0.07886,1.031105 0.194324,0.745711 0.115467,-0.285394 0.122499,-0.854467 0.0156,-1.264608 z m -5.135413,-0.851095 c -0.163126,-0.405728 -0.336006,-0.969311 -0.38418,-1.252407 -0.04817,-0.283095 -0.249945,-0.662477 -0.448387,-0.843072 -0.198447,-0.180594 -0.224355,-0.09124 -0.05758,0.198567 0.166776,0.289806 0.09797,0.52692 -0.1529,0.52692 -0.264653,0 -0.166266,0.442391 0.23437,1.05384 0.798174,1.218169 1.240943,1.391269 0.808679,0.316152 z m 1.194932,0.0872 c -0.137286,-0.357766 -0.340019,-0.560078 -0.450516,-0.449581 -0.110498,0.110496 -0.07587,0.403214 0.07695,0.650484 0.415656,0.672544 0.6586,0.541889 0.373565,-0.200903 z M 37.84458,12.921987 c -0.293793,-0.340824 -1.874197,0.859525 -1.636993,1.243328 0.161642,0.261543 0.556653,0.129789 1.011264,-0.337301 0.410306,-0.42157 0.691884,-0.829281 0.625729,-0.906027 z m 16.106791,0.591782 c -0.265564,-0.562722 -0.549574,-0.9564 -0.631133,-0.874839 -0.261626,0.261626 0.394044,1.89797 0.760506,1.89797 0.194408,0 0.13619,-0.460409 -0.129373,-1.023131 z m -19.033733,0.189008 c -0.104425,-0.168963 0.278417,-0.520567 0.85076,-0.781343 0.572342,-0.260777 1.040622,-0.691124 1.040622,-0.956328 0,-0.356492 -0.155046,-0.353511 -0.594776,0.01143 -0.366034,0.303781 -0.691277,0.337477 -0.845699,0.08762 -0.138007,-0.223301 -0.01262,-0.502917 0.278624,-0.62137 0.29125,-0.118452 -0.09457,-0.158649 -0.85738,-0.08933 -0.762809,0.06932 -1.521573,0.268448 -1.686144,0.442499 -0.16457,0.174051 0.100806,0.193764 0.589724,0.0438 0.585065,-0.179448 1.08941,-0.02627 1.475377,0.448094 0.523037,0.642831 0.496683,0.687021 -0.24379,0.408774 -0.456623,-0.171584 -0.687788,-0.169536 -0.513699,0.0046 0.174088,0.174088 -0.100642,0.539785 -0.610512,0.812659 -0.913536,0.488909 -0.91077,0.496135 0.189859,0.496135 0.614293,0 1.031458,-0.138241 0.927034,-0.307203 z m 8.07391,-1.502465 c 0,-0.33779 -0.252922,-0.614164 -0.562047,-0.614164 -0.309129,0 -0.56205,-0.189691 -0.56205,-0.421536 0,-0.231845 -0.326746,-0.421536 -0.726096,-0.421536 -0.587723,0 -0.542159,0.128837 0.239082,0.676041 0.530849,0.371822 0.867256,0.931235 0.747569,1.24314 -0.130469,0.339988 -0.0013,0.484024 0.32296,0.35966 0.297322,-0.114092 0.540582,-0.483814 0.540582,-0.821605 z m 1.826654,-0.320704 c 0,-0.07044 -0.709542,-0.781785 -1.576759,-1.580761 -1.414776,-1.303448 -1.468905,-1.323144 -0.52692,-0.191728 1.216536,1.461172 2.103679,2.208649 2.103679,1.772489 z m 4.367801,-0.504228 c 0.13345,-0.347767 0.07919,-0.632304 -0.120568,-0.632304 -0.199766,0 -0.472394,0.284537 -0.605844,0.632304 -0.133454,0.347767 -0.0792,0.632304 0.120568,0.632304 0.199761,0 0.472394,-0.284537 0.605844,-0.632304 z m -11.670766,-0.0666 c -0.152552,-0.152552 -0.0419,-0.579357 0.245896,-0.948456 0.462233,-0.592818 0.437765,-0.604062 -0.209784,-0.09641 -0.65946,0.516993 -0.668529,1.322229 -0.01489,1.322229 0.14088,0 0.131331,-0.124815 -0.02122,-0.277367 z m 8.907702,-2.052235 c -0.129786,-0.129786 -0.365492,0.104166 -0.523792,0.519894 -0.228763,0.600772 -0.180341,0.649192 0.235972,0.235974 0.288086,-0.285942 0.417603,-0.626083 0.28782,-0.755868 z M 45.527698,8.556357 C 45.393131,8.220084 45.293244,8.31997 45.273019,8.811035 c -0.0183,0.444369 0.08133,0.693339 0.221399,0.553266 0.140072,-0.140073 0.155049,-0.503648 0.03326,-0.807944 z M 44.688787,7.484193 C 44.58191,7.074052 44.487436,7.307556 44.478845,8.003091 c -0.0086,0.695534 0.07886,1.031104 0.194324,0.745711 0.115467,-0.285394 0.122498,-0.854468 0.01564,-1.264609 z M 32.031611,85.495461 c -0.154563,-0.15456 -0.281024,-0.47703 -0.281024,-0.71661 0,-0.26413 0.196339,-0.23925 0.498817,0.0632 0.27435,0.27435 0.400811,0.59683 0.281024,0.71661 -0.119786,0.11979 -0.344254,0.0913 -0.498817,-0.0632 z m 30.078025,-5.84144 c 0.293271,-0.35336 0.620029,-0.55568 0.72613,-0.44958 0.292335,0.29234 -0.301626,1.09208 -0.811078,1.09208 -0.279516,0 -0.247539,-0.24187 0.08495,-0.6425 z m -20.663721,-2.30825 c 0,-0.23185 0.295732,-0.42154 0.657183,-0.42154 0.36145,0 0.539945,0.18969 0.396657,0.42154 -0.143289,0.23184 -0.439017,0.42153 -0.657179,0.42153 -0.218162,0 -0.396661,-0.18969 -0.396661,-0.42153 z m 28.147663,-6.5588 c -0.414344,-0.41435 1.614905,-4.24705 2.410208,-4.55224 0.470384,-0.1805 0.367407,0.14678 -0.348193,1.10662 -0.558864,0.74961 -1.186539,1.89643 -1.394837,2.5485 -0.208298,0.65206 -0.508528,1.05577 -0.667178,0.89712 z m -19.716943,-6.50882 c 0,-0.23184 0.189691,-0.42154 0.421536,-0.42154 0.231845,0 0.421536,0.1897 0.421536,0.42154 0,0.23185 -0.189691,0.42154 -0.421536,0.42154 -0.231845,0 -0.421536,-0.18969 -0.421536,-0.42154 z m 19.918497,-4.46034 c 0.406234,-0.482498 0.630727,-0.985154 0.498875,-1.117011 -0.131852,-0.131852 -0.06903,-0.345229 0.139591,-0.474169 0.778063,-0.480867 0.345601,1.01798 -0.498875,1.72902 -0.865637,0.72887 -0.867635,0.7269 -0.139591,-0.13784 z M 50.298171,58.798183 c 0,-0.231844 0.189691,-0.421536 0.421536,-0.421536 0.231845,0 0.421536,0.189692 0.421536,0.421536 0,0.231845 -0.189691,0.421536 -0.421536,0.421536 -0.231845,0 -0.421536,-0.189691 -0.421536,-0.421536 z M 72.06461,57.204807 c -0.142349,-0.230328 0.02365,-0.653187 0.368844,-0.939693 0.685375,-0.568812 0.828504,-0.122721 0.252365,0.786544 -0.22013,0.347409 -0.463993,0.407529 -0.621209,0.153149 z m -22.380739,-2.17132 c -0.133387,-0.215826 -0.04974,-0.511559 0.185889,-0.657183 0.235625,-0.145624 0.428411,0.03096 0.428411,0.392408 0,0.740441 -0.252943,0.849463 -0.6143,0.264775 z m 19.624037,-0.111256 c 0.370108,-0.302599 0.621457,-0.899515 0.558552,-1.326489 -0.06291,-0.426974 0.0034,-0.658596 0.147225,-0.514721 0.606135,0.606135 0.382346,1.541557 -0.466842,1.951349 -0.780668,0.376727 -0.815045,0.360881 -0.238935,-0.110139 z m 0.188156,-2.839496 c -0.133391,-0.215826 -0.08135,-0.492017 0.115632,-0.613761 0.196988,-0.121743 0.358158,0.05484 0.358158,0.392408 0,0.710782 -0.132927,0.772882 -0.47379,0.221353 z m 0.0043,-2.522341 c -0.135726,-0.219607 -0.0671,-0.510332 0.152512,-0.646054 0.219607,-0.135727 0.510332,-0.0671 0.646054,0.152511 0.135726,0.219608 0.0671,0.510333 -0.152512,0.646055 -0.219607,0.135726 -0.510332,0.0671 -0.646054,-0.152512 z m 1.453115,-1.707318 c 0,-0.223688 0.388057,-0.614384 0.862349,-0.868216 0.796433,-0.426241 0.820903,-0.395148 0.320135,0.406702 -0.569685,0.912216 -1.182484,1.151387 -1.182484,0.461514 z M 52.405851,44.280069 c 0,-0.36145 0.189691,-0.657183 0.421536,-0.657183 0.231845,0 0.421536,0.178496 0.421536,0.396657 0,0.218162 -0.189691,0.513895 -0.421536,0.657183 -0.231845,0.143289 -0.421536,-0.0352 -0.421536,-0.396657 z M 68.87762,43.450512 c -0.245346,-0.295623 -0.307042,-0.676543 -0.1371,-0.846483 0.169938,-0.169941 0.0042,-0.479575 -0.368418,-0.688075 -0.675402,-0.377975 -0.758723,-2.292933 -0.124518,-2.861803 0.17103,-0.153411 0.194177,0.04696 0.05144,0.445259 -0.142736,0.398304 -0.0488,0.854418 0.208736,1.013587 0.257542,0.159169 0.35662,0.108765 0.220173,-0.112011 -0.136447,-0.220775 -0.07381,-0.676889 0.139183,-1.013587 0.271494,-0.429171 0.389196,-0.08405 0.393723,1.154473 0.0072,1.963862 0.567864,2.650483 1.232335,1.50912 0.239045,-0.410605 0.440396,-0.50944 0.447444,-0.219634 0.007,0.289806 -0.353871,0.89361 -0.802048,1.341787 -0.64697,0.64697 -0.906779,0.704117 -1.26095,0.277367 z m -2.56108,-6.150666 c 0,-0.231845 0.200888,-0.421536 0.446415,-0.421536 0.245528,0 0.329178,0.189691 0.185889,0.421536 -0.143288,0.231844 -0.344175,0.421536 -0.446415,0.421536 -0.102239,0 -0.185889,-0.189692 -0.185889,-0.421536 z m -18.969121,-2.10768 c 0,-0.231845 0.189691,-0.421536 0.421536,-0.421536 0.231844,0 0.421536,0.189691 0.421536,0.421536 0,0.231845 -0.189692,0.421536 -0.421536,0.421536 -0.231845,0 -0.421536,-0.189691 -0.421536,-0.421536 z m 18.126049,-0.632304 c -0.3102,-0.579612 -0.721636,-1.05384 -0.914303,-1.05384 -0.192667,0 -0.350305,-0.307764 -0.350305,-0.683919 0,-0.589228 -0.09847,-0.603819 -0.711228,-0.105384 -0.626086,0.509278 -0.676549,0.486098 -0.421536,-0.19363 0.159332,-0.42469 0.289692,-0.946341 0.289692,-1.159224 0,-0.212883 0.305551,-0.38706 0.679002,-0.38706 0.522797,0 0.450066,-0.201339 -0.316152,-0.875188 -0.547331,-0.481353 -0.777915,-0.766979 -0.512402,-0.634725 0.265508,0.132255 0.595297,-0.05284 0.732857,-0.411313 0.145518,-0.379218 0.07286,-0.542231 -0.173749,-0.389818 -0.233122,0.144077 -0.08868,-0.443265 0.320983,-1.305205 l 0.744837,-1.567165 0.283538,2.825367 c 0.272093,2.711373 0.923543,4.259763 1.612936,3.833695 0.488312,-0.301793 0.823218,2.011707 0.396606,2.739713 -0.329363,0.562048 -0.377359,0.562048 -0.431973,0 -0.03381,-0.347768 -0.08698,-0.825652 -0.118203,-1.061965 -0.08284,-0.627043 -1.930137,-2.895904 -2.16589,-2.660152 -0.110227,0.110228 0.224388,0.655913 0.74359,1.212634 0.519201,0.55672 0.980063,1.443949 1.024134,1.971619 0.10205,1.221874 -0.01636,1.206177 -0.712434,-0.09444 z m 0.421536,-3.544671 c 0,-0.196181 0.284537,-0.592837 0.632304,-0.881458 0.514742,-0.427196 0.632304,-0.405991 0.632304,0.114054 0,0.35135 -0.284536,0.748006 -0.632304,0.881457 -0.347767,0.133451 -0.632304,0.08213 -0.632304,-0.114053 z M 33.793388,21.937174 c 0.715084,-1.988565 0.490946,-2.798676 -0.538048,-1.944686 -0.539292,0.447573 -0.570718,0.33395 -0.233168,-0.843018 0.214572,-0.748171 0.302411,-1.502247 0.195197,-1.675723 -0.107215,-0.173477 0.267772,-0.618589 0.833303,-0.98914 0.630706,-0.413254 1.127842,-0.512567 1.285867,-0.256877 0.141696,0.229268 0.128361,0.41685 -0.02963,0.41685 -0.157993,0 -0.05111,0.284537 0.237506,0.632305 0.288621,0.347767 0.69123,0.632304 0.894687,0.632304 0.203456,0 0.369921,-0.284537 0.369921,-0.632304 0,-0.347768 0.200886,-0.632305 0.446414,-0.632305 0.245527,0 0.352889,-0.151325 0.238582,-0.336278 -0.114308,-0.184953 -0.03356,-0.611759 0.179435,-0.948456 0.295888,-0.467729 0.389403,-0.363514 0.396319,0.441662 0.005,0.579612 0.281171,1.575491 0.613761,2.213065 0.332589,0.637573 0.449493,1.159224 0.259785,1.159224 -0.414721,0 -1.191647,-0.888224 -1.290506,-1.475376 -0.03903,-0.231845 -0.180425,-0.516382 -0.314197,-0.632305 -0.133773,-0.115922 -0.120054,0.0049 0.03048,0.26839 0.15054,0.263536 -0.03959,0.737764 -0.422504,1.05384 -0.560882,0.462975 -0.731826,0.46884 -0.879423,0.03017 -0.134578,-0.399976 -0.330208,-0.422516 -0.736993,-0.08492 -0.403333,0.334736 -0.638935,0.321821 -0.867211,-0.04754 -0.217379,-0.351727 -0.131996,-0.397791 0.278624,-0.150319 0.485192,0.292414 0.497607,0.240106 0.06879,-0.289807 -0.287794,-0.355642 -0.430063,-0.771437 -0.316152,-0.923989 0.113911,-0.152552 0.07156,-0.173432 -0.09411,-0.0464 -0.430044,0.329742 -0.482685,2.311439 -0.05437,2.046724 0.195577,-0.120872 0.355592,0.0043 0.355592,0.278262 0,0.368839 0.146745,0.376241 0.565706,0.02853 0.311138,-0.258222 0.689314,-0.345886 0.84039,-0.194809 0.151077,0.151077 -0.106664,0.541793 -0.572757,0.868257 -0.466094,0.326465 -0.74633,0.757177 -0.622747,0.957139 0.123583,0.199961 0.03191,0.482714 -0.203716,0.628339 -0.235627,0.145626 -0.428412,0.485478 -0.428412,0.755227 0,0.269749 0.330486,0.02144 0.734414,-0.551798 0.403928,-0.573237 0.694462,-1.166525 0.645632,-1.318417 -0.04883,-0.151892 0.189758,-0.383053 0.530195,-0.513691 0.340436,-0.130637 0.618976,-0.120744 0.618976,0.02198 0,0.430659 -2.981302,3.929394 -3.348271,3.929394 -0.187591,0 -0.0379,-0.843084 0.332639,-1.873519 z m 3.593825,-0.743249 c -0.451266,-0.730164 -0.576243,-2.393114 -0.197446,-2.627224 0.176997,-0.10939 0.321813,0.03327 0.321813,0.317023 0,0.283753 0.130074,1.034174 0.289055,1.667601 0.303908,1.210869 0.117173,1.50112 -0.413422,0.6426 z M 35.544411,9.408212 c 0,-0.193204 0.178497,-0.35128 0.396659,-0.35128 0.218162,0 0.494354,0.158076 0.613761,0.35128 0.119407,0.193204 -0.05909,0.35128 -0.396658,0.35128 -0.337569,0 -0.613762,-0.158076 -0.613762,-0.35128 z"
     style="fill:#000000;stroke-width:0.42153603" />
</svg>
