<?xml version="1.0" encoding="UTF-8" standalone="no"?>
<svg
   xmlns:dc="http://purl.org/dc/elements/1.1/"
   xmlns:cc="http://creativecommons.org/ns#"
   xmlns:rdf="http://www.w3.org/1999/02/22-rdf-syntax-ns#"
   xmlns:svg="http://www.w3.org/2000/svg"
   xmlns="http://www.w3.org/2000/svg"
   id="svgGL6"
   version="1.1"
   viewBox="0 0 100 100"
   height="100"
   width="100">
  <defs
     id="defs2" />
  <metadata
     id="metadata5">
    <rdf:RDF>
      <cc:Work
         rdf:about="">
        <dc:format>image/svg+xml</dc:format>
        <dc:type
           rdf:resource="http://purl.org/dc/dcmitype/StillImage" />
        <dc:title></dc:title>
      </cc:Work>
    </rdf:RDF>
  </metadata>
  <path
     id="pathGL6"
     d="m 55.568742,94.423088 c -4.012262,-0.92256 -7.281645,-2.3925 -8.924001,-4.01233 -1.190211,-1.17388 -3.15885,-2.43025 -3.808011,-2.43025 -0.160364,0 -0.291569,0.45568 -0.291569,1.01262 0,2.37221 -3.838187,2.74356 -6.295406,0.60908 -1.576624,-1.36954 -3.608067,-2.65245 -4.200052,-2.65245 -0.140646,0 -0.329835,0.52182 -0.420412,1.15959 -0.120634,0.8494 -0.50935,1.1596 -1.453125,1.1596 -1.059384,0 -1.563302,-0.54974 -2.834562,-3.09225 l -1.546124,-3.09225 -3.039688,-0.25769 c -3.562171,-0.30198 -4.938886,-1.55518 -3.159598,-2.87612 0.558779,-0.41484 1.312514,-0.64045 1.674968,-0.50136 0.814604,0.31259 0.837116,-0.306112 0.07222,-1.984873 -0.322732,-0.708316 -1.372638,-1.660759 -2.333125,-2.116541 -1.55835,-0.739486 -1.911278,-0.746413 -3.278527,-0.06434 -1.721034,0.858568 -2.139423,0.173857 -0.44717,-0.731806 1.372824,-0.734714 4.202206,-0.22507 5.224265,0.941028 1.235969,1.410148 2.524146,4.223602 2.185049,4.772272 -0.382383,0.61871 1.811118,0.649 2.775055,0.0383 0.742811,-0.47058 0.630753,-3.503539 -0.201913,-5.464896 -0.38356,-0.903483 -0.334482,-0.94695 0.397476,-0.352053 0.698345,0.567583 1.05166,0.536784 2.157995,-0.188117 0.727606,-0.476763 1.322926,-0.95016 1.322926,-1.052008 0,-0.101849 -0.693571,-0.543839 -1.54127,-0.982202 -0.847698,-0.438362 -1.925979,-1.384157 -2.396177,-2.101771 -0.834238,-1.273207 -0.813933,-1.338954 0.839932,-2.719663 l 1.69484,-1.41491 -1.877619,-0.05322 c -1.032688,-0.02927 -2.746375,-0.49259 -3.80819,-1.029595 -1.061817,-0.537006 -2.220474,-0.936802 -2.574794,-0.888434 -0.35432,0.04834 -0.96396,0.116923 -1.354756,0.152355 -1.026723,0.09309 -2.044773,2.908708 -1.6911,4.677073 0.241762,1.208811 0.09757,1.579376 -0.71491,1.837244 -0.559766,0.177665 -1.363091,0.990829 -1.785166,1.807033 -1.063858,2.057273 -0.966097,2.202403 0.497601,0.738707 0.695756,-0.695756 1.68141,-1.250315 2.190343,-1.232343 0.772714,0.02726 0.744583,0.105657 -0.170563,0.475201 -1.354423,0.546931 -3.507074,3.455135 -2.745417,3.709024 0.367294,0.122432 0.385906,0.601963 0.05672,1.461443 l -0.489946,1.279222 -0.529634,-1.348736 c -0.729736,-1.858313 0.03891,-4.893329 1.670623,-6.596468 0.951866,-0.993534 1.329735,-1.943597 1.329735,-3.343314 0,-1.496581 0.353404,-2.285496 1.506229,-3.362398 0.875696,-0.818023 1.655647,-2.2035 1.863165,-3.309665 0.250433,-1.334924 0.980919,-2.436743 2.448148,-3.69264 1.150165,-0.984495 2.165491,-1.715713 2.25628,-1.624925 0.09079,0.09079 -0.320361,1.169793 -0.913664,2.397792 -1.183864,2.450313 -1.412465,5.446007 -0.486288,6.372553 0.325845,0.325974 1.855823,0.592681 3.39995,0.592681 1.544126,0 2.808191,0.197131 2.809026,0.438068 0.001,0.240938 -0.78505,1.224644 -1.746415,2.186009 l -1.747942,1.74794 1.765872,1.550459 c 0.971234,0.852755 2.105682,1.550459 2.521007,1.550459 1.146983,0 0.906055,0.837221 -0.576539,2.003427 l -1.331662,1.047483 1.202818,0.271289 c 0.661556,0.149206 2.246457,0.349908 3.52201,0.446 l 2.319187,0.174722 -2.672167,0.09004 c -1.469695,0.04953 -3.267064,-0.136136 -3.994155,-0.412578 -1.914501,-0.72789 -1.627054,-0.09127 0.330412,0.731786 0.908822,0.38213 2.242354,0.586388 2.963405,0.453906 1.362125,-0.250271 5.176317,0.765259 5.176317,1.37819 0,0.403641 2.619145,1.67588 2.890819,1.40421 0.09941,-0.0994 -0.861309,-0.83943 -2.134935,-1.644483 -1.27363,-0.805052 -2.197594,-1.581825 -2.053253,-1.726161 0.144336,-0.144336 1.121631,0.348899 2.171764,1.096079 1.69901,1.208863 2.001906,1.274743 2.749638,0.598056 0.462162,-0.418257 0.968219,-0.63254 1.124568,-0.476191 0.15635,0.156345 0.204542,-0.8288 0.107095,-2.189219 l -0.177175,-2.47349 0.468671,2.560552 c 0.474743,2.593701 0.369127,3.108571 -0.637663,3.108571 -0.945697,0 -1.039325,1.268056 -0.119685,1.620956 1.363017,0.52304 1.838491,-0.82516 1.494298,-4.23705 -0.313451,-3.107149 -0.299283,-3.150667 1.823948,-5.603872 1.67169,-1.931485 2.105558,-2.81626 1.9831,-4.044089 -0.08622,-0.864428 -0.504634,-1.676514 -0.929818,-1.804642 -0.623882,-0.188003 -0.648749,-0.101178 -0.128844,0.449917 1.025173,1.086684 0.75958,2.122824 -1.164598,4.543406 -0.989344,1.244578 -1.798807,2.500804 -1.798807,2.791615 0,0.290805 -0.154551,0.374188 -0.343446,0.185293 -0.188895,-0.188896 0.532897,-1.61586 1.603991,-3.171035 1.909211,-2.772087 2.173902,-4.684664 0.562773,-4.066415 -0.435914,0.167275 -0.792569,0.503964 -0.792569,0.748195 0,0.244236 0.374858,0.300216 0.833016,0.124401 0.709548,-0.272272 0.745052,-0.155292 0.239557,0.78924 -0.737254,1.377571 -1.896539,1.427511 -2.600566,0.112027 -0.689979,-1.289241 -0.681759,-1.358126 0.276369,-2.316254 0.960133,-0.960133 3.365687,-1.066537 4.244478,-0.187746 0.908456,0.908456 2.041085,-0.44231 2.250245,-2.683629 0.09259,-0.992096 0.400256,-1.9742 0.683712,-2.182452 0.313312,-0.230182 0.246741,-0.381733 -0.169796,-0.386532 -0.502284,-0.0058 -0.589568,-0.454962 -0.327015,-1.682858 0.447809,-2.094288 1.130938,-2.963405 2.329257,-2.963405 0.684108,0 0.922516,-0.378275 0.893232,-1.417281 -0.04762,-1.690504 2.412274,-6.756121 3.479775,-7.165759 0.413657,-0.158736 0.752109,-0.575732 0.752109,-0.926657 0,-1.110261 1.825788,-2.343924 3.468947,-2.343924 1.313288,0 1.680653,-0.277357 2.149757,-1.623031 0.702002,-2.013758 0.734126,-8.830908 0.05317,-11.282093 -0.423246,-1.523511 -0.736934,-1.821141 -1.901135,-1.803812 -0.995375,0.01482 -1.623616,-0.384718 -2.195966,-1.396528 -0.721308,-1.275152 -0.722509,-1.559409 -0.01196,-2.834561 0.659886,-1.184259 1.186594,-1.44299 3.20355,-1.573646 1.327605,-0.086 2.867463,0.08642 3.421913,0.383146 0.86801,0.464545 1.04937,0.343048 1.305192,-0.874384 1.246238,-5.93066 0.616157,-13.6424805 -1.252824,-15.3338845 -1.207122,-1.092409 -2.57152,-0.669806 -2.57152,0.796485 0,0.868365 0.215978,1.013105 1.09529,0.734023 0.737058,-0.233933 0.979949,-0.161011 0.742645,0.222957 -0.53734,0.869438 -1.742457,0.681226 -2.299216,-0.359086 -0.528687,-0.987856 -0.318605,-1.496468 1.065115,-2.578693 0.613595,-0.479901 1.132691,-0.524164 1.803812,-0.15381 0.518261,0.285998 1.816067,0.90747 2.884012,1.38105 1.337593,0.593152 2.925004,2.164325 5.102061,5.0498715 3.672607,4.867795 4.280889,6.154293 5.080271,10.744706 0.570252,3.274607 0.151933,6.551711 -1.317659,10.322636 -0.200882,0.515457 -0.115588,0.901906 0.199059,0.901906 0.92768,0 2.136605,-5.131881 2.136605,-9.069873 0,-2.584045 -0.316523,-4.467463 -1.030858,-6.133941 -1.391956,-3.24729 -0.345203,-2.78317 2.409691,1.068441 4.288996,5.996422 5.421563,11.181405 4.04594,18.522635 -0.470764,2.512299 -1.272878,5.430797 -1.78248,6.485551 -0.509603,1.054755 -0.769238,2.17227 -0.576968,2.483367 0.526837,0.852447 3.100738,-4.977396 3.586298,-8.122922 0.233908,-1.515278 0.357,-3.776486 0.27354,-5.024904 -0.08346,-1.248419 0.01747,-2.269853 0.224317,-2.269853 0.206836,0 1.336568,1.68819 2.510525,3.751533 2.505964,4.404492 3.531209,9.171597 2.664632,12.389821 -0.29632,1.100446 -0.407558,2.132013 -0.247199,2.292371 0.160353,0.160359 0.291557,-0.09497 0.291557,-0.567397 0,-0.472427 0.23766,-0.858958 0.528131,-0.858958 1.866162,0 2.166682,10.63765 0.431533,15.275241 -1.437766,3.842784 -2.891103,6.262484 -4.812863,8.013083 -0.857028,0.780701 -1.310083,1.426249 -1.006785,1.434562 0.811035,0.02221 4.859984,-3.566229 4.859984,-4.307235 0,-0.348919 0.338591,-1.084586 0.752432,-1.63481 0.678723,-0.902416 0.701276,-0.798476 0.230239,1.06109 -1.443014,5.696716 -3.968412,10.549176 -7.281066,13.990322 -1.131305,1.17519 -1.992182,2.21883 -1.913061,2.31919 0.289919,0.36778 -2.290238,3.8249 -3.73217,5.0007 -0.816534,0.66582 -3.467529,2.01901 -5.89111,3.0071 -3.666067,1.49464 -5.200818,1.82958 -9.133658,1.9933 -2.96155,0.12329 -5.926378,-0.079 -7.937886,-0.54147 z m 12.568219,-0.78736 c 2.028598,-0.54301 4.927581,-1.56004 6.442186,-2.26004 4.06623,-1.87932 7.121768,-4.77951 3.398036,-3.22528 -0.921233,0.3845 -2.544663,0.86196 -3.607624,1.06102 -1.06296,0.19905 -1.932655,0.57758 -1.932655,0.84117 0,0.29262 0.501794,0.28849 1.288437,-0.0106 2.233031,-0.849 1.391161,0.21462 -0.903839,1.1419 -5.820581,2.35178 -11.95313,2.57128 -18.242416,0.65293 -2.339466,-0.71358 -4.418767,-1.56471 -4.62067,-1.8914 -0.256796,-0.4155 -0.0707,-0.47066 0.619357,-0.1836 5.403924,2.24809 8.852693,2.94953 13.355446,2.71634 2.551105,-0.13212 5.450089,-0.58746 6.442185,-1.01186 l 1.803812,-0.77164 -1.803812,-0.53754 -1.803812,-0.53754 1.803812,-0.0881 c 1.741338,-0.085 1.709653,-0.1158 -0.91479,-0.88913 -1.495231,-0.44059 -3.234621,-1.34556 -3.865311,-2.01102 -0.970008,-1.0235 -1.658574,-1.21132 -4.468444,-1.21885 -2.828913,-0.008 -3.517078,0.17824 -4.638384,1.25253 -1.281224,1.22748 -6.232497,2.86156 -8.670576,2.86156 -3.107514,0 2.596248,3.13225 7.353946,4.03845 6.658634,1.26827 8.454478,1.27806 12.965116,0.0707 z m -3.238682,-5.3496 c -1.453414,-0.67674 -2.803722,-1.49119 -3.000693,-1.80989 -0.283611,-0.4589 5.52587,2.15698 6.373373,2.86979 0.660087,0.55517 -1.075304,0.01 -3.37268,-1.0599 z m -23.865361,1.73775 c 1.073958,-0.57477 1.343304,-2.28381 0.447206,-2.83763 -0.826414,-0.51075 -1.224716,0.15593 -0.566789,0.94868 0.418691,0.5045 0.421608,0.84965 0.01062,1.26062 -0.669291,0.66929 -1.849175,0.32986 -3.274872,-0.94213 -1.074433,-0.95859 -3.865847,-2.19029 -4.202021,-1.85411 -0.310977,0.31097 5.112807,3.95807 5.88625,3.95807 0.386496,0 1.151312,-0.24007 1.699588,-0.5335 z m -10.08369,-2.34332 c 0,-0.60367 -0.357371,-0.98739 -0.91996,-0.98781 -0.53516,-3.9e-4 -1.400691,-0.85652 -2.06925,-2.04677 -1.169571,-2.08219 -2.20227,-2.78886 -5.640314,-3.85965 -2.204055,-0.68646 -3.3432,-0.323 -2.431326,0.77574 0.37319,0.44966 1.48122,0.66639 3.059046,0.59833 2.081469,-0.0898 2.644005,0.0977 3.546157,1.18173 0.589733,0.70865 1.345298,2.10016 1.679034,3.09226 0.886398,2.63498 2.776613,3.48333 2.776613,1.24617 z m 8.252702,-0.0866 c 0.637271,-1.53404 0.542824,-3.71207 -0.172882,-3.98666 -2.138986,-0.82065 -3.690429,2.42866 -1.895322,3.96951 1.310412,1.12481 1.607036,1.12727 2.068204,0.0172 z m 13.702667,0.30541 c 0.96353,-0.32806 3.192585,-1.99179 4.953456,-3.69716 4.244219,-4.11048 7.033196,-9.580291 8.413112,-16.500012 C 68.013787,58.963629 67.479395,53.09 64.4483,47.666787 62.641009,44.43319 61.524027,43.554235 59.471897,43.750844 c -1.45563,0.13946 -1.908726,0.525181 -2.918248,2.48428 -0.946352,1.836517 -1.137391,2.843217 -0.917908,4.837108 0.152437,1.384857 0.405842,2.646603 0.563124,2.803885 0.716876,0.716876 2.061891,-1.700041 2.318795,-4.166739 l 0.281323,-2.701192 1.660378,2.834561 c 2.688988,4.590593 2.214143,9.183846 -1.352194,13.080012 -1.201174,1.312258 -1.228824,1.417054 -0.23882,0.905164 1.646004,-0.851085 3.188356,-3.02372 3.562559,-5.018401 0.644203,-3.433901 1.76,-1.729861 1.76,2.687865 0,3.381333 -1.037748,6.061927 -3.219469,8.316135 -0.891609,0.921232 -1.330002,1.674968 -0.974213,1.674968 2.238175,0 -2.737805,2.781457 -5.83472,3.261478 l -2.040091,0.316213 1.37804,-1.277795 c 1.525036,-1.41409 1.400279,-2.815271 -0.250663,-2.815271 -0.901076,0 -0.946465,0.111156 -0.342533,0.83885 0.604102,0.727895 0.484246,1.017613 -0.906163,2.190343 -0.881291,0.74332 -2.106234,2.163209 -2.722097,3.155305 -0.645213,1.039367 -1.053488,1.389647 -0.96339,0.826527 0.086,-0.537505 -0.165816,-1.089409 -0.559594,-1.226453 -0.407764,-0.141913 -0.572767,-0.01747 -0.38332,0.289048 0.182953,0.296016 0.05821,0.629691 -0.277194,0.741496 -0.756143,0.252044 -0.0928,1.430881 0.805165,1.430881 0.360968,0 1.22269,-0.869695 1.914942,-1.932655 1.127841,-1.731809 1.455145,-1.915422 3.149507,-1.766829 1.11003,0.09735 2.86059,-0.263124 4.23914,-0.872926 1.291555,-0.571314 2.34828,-0.846565 2.34828,-0.611668 0,0.802135 -4.271774,4.575271 -6.254998,5.524864 -1.98476,0.95033 -2.765285,2.75146 -1.192346,2.75146 3.111767,0 9.397831,-7.208379 8.904417,-10.210907 -0.161565,-0.98318 0.442016,-2.158085 1.108674,-2.158085 0.243881,0 0.203944,0.869695 -0.08874,1.932655 -0.894707,3.249325 -2.828187,6.577775 -4.854455,8.356867 -2.087028,1.83243 -5.120993,3.31455 -5.855624,2.86052 -0.251395,-0.15537 -0.610178,-0.0348 -0.797295,0.268 -0.323444,0.52335 -6.286985,3.60746 -6.908739,3.57294 -0.162363,-0.009 0.154984,-0.35689 0.705208,-0.77306 0.550225,-0.41617 0.770547,-0.75667 0.489606,-0.75667 -0.280941,0 -0.785941,0.27513 -1.122218,0.61141 -0.47163,0.47163 -0.418026,0.8251 0.23449,1.54612 1.004347,1.10979 6.149154,1.30348 8.984086,0.33822 z m 4.071062,-5.79055 c 0,-0.11141 0.359922,-0.34067 0.799831,-0.50948 0.458642,-0.17599 0.665513,-0.0896 0.484957,0.20255 -0.302659,0.48971 -1.284788,0.72433 -1.284788,0.30693 z M 63.71622,70.672482 c 0.02474,-0.600386 0.146851,-0.722504 0.311369,-0.311374 0.148876,0.372033 0.13057,0.816544 -0.04066,0.987803 -0.171259,0.171254 -0.293063,-0.133142 -0.270685,-0.676429 z M 63.489156,53.708079 c -0.163157,-0.425185 -0.07201,-0.773063 0.202548,-0.773063 0.274561,0 0.499202,0.347878 0.499202,0.773063 0,0.425184 -0.09115,0.773062 -0.202547,0.773062 -0.111404,0 -0.33604,-0.347878 -0.499203,-0.773062 z m -0.467527,-2.277875 c -0.224173,-0.857246 -0.157102,-1.058465 0.225343,-0.676022 0.299484,0.299485 0.443114,0.848729 0.319176,1.220542 -0.128663,0.38599 -0.362277,0.15237 -0.544519,-0.54452 z m -1.922972,-3.648936 c -0.303401,-0.566912 -0.435682,-1.03075 -0.293954,-1.03075 0.141728,0 0.505928,0.463838 0.809329,1.03075 0.303401,0.566912 0.435683,1.03075 0.293954,1.03075 -0.141728,0 -0.505928,-0.463838 -0.809329,-1.03075 z m -3.316803,-1.18182 c 0.193539,-0.508274 0.481716,-0.794307 0.640395,-0.635629 0.158679,0.158677 3.3e-4,0.574537 -0.351888,0.924133 -0.508994,0.505205 -0.56819,0.446007 -0.288507,-0.288504 z m 19.953505,40.95984 c 1.355147,-0.51467 2.862618,-1.33718 3.349936,-1.82781 0.730688,-0.73565 0.439816,-0.6953 -1.65893,0.23011 -2.138553,0.94296 -3.175275,1.07896 -6.491893,0.85164 -2.170805,-0.14879 -4.699837,-0.65988 -5.620075,-1.13575 -1.840955,-0.95199 -2.712907,-0.67314 -1.545501,0.49427 2.219617,2.21962 8.00825,2.89082 11.966463,1.38754 z m -32.801348,-2.45793 c 0.861022,0.33041 4.297587,-1.27412 5.289988,-2.46989 0.36889,-0.44449 0.503485,-1.25494 0.309766,-1.86528 -0.259842,-0.8187 -0.674523,-1.03105 -1.717543,-0.8795 -2.053027,0.2983 -3.178812,0.90276 -3.178812,1.70677 0,0.50937 -0.299422,0.4185 -1.030749,-0.31283 -1.492387,-1.49238 -2.150515,-1.27665 -1.96531,0.64422 0.118119,1.22509 0.403745,1.65575 1.063404,1.60339 0.921815,-0.0732 1.17708,0.39768 0.55361,1.02115 -0.191564,0.19157 -0.862309,-0.13459 -1.490546,-0.72479 l -1.142251,-1.07309 -0.82864,1.18305 c -0.455752,0.65068 -0.828641,1.4632 -0.828641,1.8056 0,1.01877 2.245329,1.02577 3.260942,0.0101 0.517962,-0.51796 1.285113,-0.81 1.704782,-0.64896 z m 0.326794,-1.28281 c -0.06206,-0.82378 0.07371,-0.94166 0.590532,-0.51274 0.49761,0.41299 1.030059,0.27463 2.059541,-0.53517 0.763641,-0.60068 1.265869,-1.21471 1.116065,-1.36452 -0.149804,-0.1498 -0.631463,0.0257 -1.070346,0.38989 -0.438883,0.36424 -0.94698,0.51325 -1.129098,0.33113 -0.182124,-0.18212 -0.06784,-0.33113 0.253966,-0.33113 0.3218,0 0.466187,-0.30988 0.320852,-0.68861 -0.177928,-0.46368 0.121963,-0.66023 0.918078,-0.60171 1.975318,0.14517 1.694821,1.63191 -0.578663,3.0671 -2.505185,1.58146 -2.381238,1.56918 -2.480927,0.24576 z m -9.242531,1.08234 c 0.470847,-2.46309 -1.052426,-2.84661 -2.992359,-0.75338 -1.090064,1.1762 -1.193603,1.2044 -0.946032,0.25769 0.152901,-0.58469 0.496558,-1.06307 0.763682,-1.06307 0.267124,0 0.333958,-0.2455 0.148516,-0.54555 -0.371039,-0.60034 -3.195118,-0.16763 -4.204315,0.6442 -0.438501,0.35275 -0.466187,0.82236 -0.09633,1.6341 0.457049,1.00311 0.910595,1.13803 3.799126,1.13015 3.091054,-0.008 3.294395,-0.0836 3.527715,-1.30414 z m 44.149252,-0.0387 c 3.544222,-1.80692 7.142368,-6.39323 9.27921,-11.827559 l 1.114586,-2.834561 -1.940922,1.940721 c -2.435373,2.43512 -6.933915,4.668033 -9.671978,4.80082 -2.723962,0.132106 -3.172446,1.248547 -0.49881,1.241733 1.908597,-0.0046 5.897083,-1.637361 8.288943,-3.392686 1.081375,-0.793595 1.159593,-0.791972 1.159593,0.02407 0,1.685482 -4.423158,6.700222 -7.287477,8.262142 -2.542756,1.38659 -3.182239,1.5065 -8.044924,1.50854 -2.905425,0.001 -5.282592,0.16277 -5.282592,0.35902 0,0.19624 0.869695,0.59194 1.932656,0.87931 2.612517,0.70631 8.734562,0.1688 10.951715,-0.96155 z M 67.26137,83.869158 c 0.825203,-0.44164 1.549367,-0.443 2.875246,-0.005 2.210272,0.72946 6.923421,0.22237 9.906401,-1.06584 2.322449,-1.00295 4.656885,-3.23707 6.329782,-6.057765 1.033161,-1.742028 0.838922,-1.734313 -1.763644,0.07007 -1.662816,1.152847 -6.730089,2.487255 -7.835006,2.063256 -0.403925,-0.154999 -1.87246,0.762289 -3.356482,2.096549 -1.4511,1.30466 -3.019143,2.35848 -3.484532,2.34181 -0.707764,-0.0254 -0.683108,-0.13072 0.150747,-0.64422 4.957071,-3.05261 8.849775,-9.616823 10.144123,-17.105899 1.440102,-8.332405 0.430013,-22.053574 -1.744832,-23.701978 -0.377801,-0.286352 -1.21309,-2.201569 -1.8562,-4.256038 -1.751816,-5.596307 -5.241712,-9.587466 -11.548699,-13.207465 -3.219619,-1.847954 -5.912231,-1.729157 -7.05224,0.311143 -0.733688,1.313092 -0.71098,1.481239 0.34224,2.534457 0.841086,0.841089 1.29909,0.986423 1.800374,0.571298 0.841921,-0.697208 4.362653,0.898469 5.709163,2.587525 4.325226,5.425529 5.107189,15.03107 1.652822,20.303098 -0.432636,0.660279 -0.552641,1.200516 -0.26667,1.200516 0.958937,0 3.279041,-4.15061 3.636423,-6.50547 0.194533,-1.281848 0.185395,-3.251021 -0.02031,-4.375938 -0.547364,-2.993313 0.465486,-2.312496 2.439367,1.63969 1.356977,2.717002 1.677767,4.012089 1.778512,7.180219 0.106677,3.354575 -0.07216,4.263588 -1.353452,6.879517 -0.812009,1.657817 -2.628612,4.274936 -4.0369,5.81583 -1.408282,1.540888 -2.450978,2.911162 -2.317089,3.045046 0.133884,0.133884 1.219289,-0.463482 2.412011,-1.327487 2.251843,-1.631224 5.025693,-5.478765 5.560647,-7.713033 0.763847,-3.190258 1.48714,-2.253889 1.959795,2.537134 0.514813,5.218381 -1.913442,12.501627 -5.647694,16.939535 -1.249665,1.485146 -8.870409,5.59319 -9.397679,5.06592 -0.130916,-0.13092 1.509816,-1.07871 3.646076,-2.106199 2.136254,-1.027503 4.488502,-2.586471 5.227215,-3.464381 3.394212,-4.033792 5.785263,-11.064711 5.483675,-16.124831 l -0.183025,-3.070923 -0.960684,1.975061 c -1.531215,3.148002 -3.370732,5.26158 -6.1425,7.057625 -2.284569,1.480347 -3.382926,3.04468 -2.137754,3.04468 0.539108,0 5.307484,-4.083758 5.930737,-5.079241 0.377744,-0.603344 0.523106,-0.604498 0.941142,-0.0075 0.403276,0.575916 0.452705,0.563568 0.268191,-0.06701 -0.230074,-0.78625 1.075556,-3.882344 1.470596,-3.487304 0.271468,0.271469 -1.836904,6.579553 -2.199104,6.579553 -0.146434,0 -0.110672,-0.619856 0.07948,-1.377462 0.344544,-1.372779 0.338901,-1.371305 -1.659058,0.433729 -1.102629,0.996162 -2.712557,2.229295 -3.577619,2.740299 -1.216599,0.718659 -1.863044,1.758536 -2.854125,4.59117 -0.704708,2.014142 -1.456635,4.076744 -1.670948,4.583564 -0.357155,0.844617 -0.24403,0.835572 1.35591,-0.10842 2.544843,-1.501493 4.754601,-4.008786 6.571776,-7.456649 0.880049,-1.669773 1.597909,-2.713407 1.59525,-2.319187 -0.0083,1.235591 -2.987107,5.981173 -4.952407,7.889843 -1.034991,1.005171 -2.75861,2.237582 -3.830265,2.738691 -1.953266,0.913353 -3.884035,3.711072 -3.651993,5.291792 0.08652,0.58935 0.0075,0.61708 -0.332484,0.11667 -0.341482,-0.50262 -0.678558,-0.39454 -1.438766,0.4613 l -0.992808,1.11771 3.947132,-0.28916 c 2.170919,-0.15904 4.443484,-0.5548 5.050143,-0.87948 z m 2.083285,-3.33512 c 0,-0.14173 0.695756,-0.61748 1.546124,-1.05722 0.850368,-0.439747 1.546125,-0.683576 1.546125,-0.541848 0,0.141728 -0.695757,0.617478 -1.546125,1.057218 -0.850368,0.43975 -1.546124,0.68357 -1.546124,0.54185 z m 7.506068,-34.147829 c -0.279684,-0.734511 -0.220488,-0.793709 0.288507,-0.288504 0.352217,0.349596 0.510566,0.765456 0.351887,0.924133 -0.158678,0.158678 -0.446855,-0.127355 -0.640394,-0.635629 z m -2.867695,-6.365985 c 0,-0.300184 0.231919,-0.402457 0.515375,-0.227271 0.283456,0.175186 0.515375,0.420791 0.515375,0.545791 0,0.124999 -0.231919,0.227271 -0.515375,0.227271 -0.283456,0 -0.515375,-0.245606 -0.515375,-0.545791 z m -2.73077,-5.381014 c -0.473099,-0.992097 -0.770877,-1.803812 -0.661736,-1.803812 0.109146,0 0.677367,0.811715 1.26272,1.803812 0.585352,0.992096 0.88313,1.803812 0.661736,1.803812 -0.2214,0 -0.789622,-0.811716 -1.26272,-1.803812 z m -7.340231,-8.022598 c -0.186839,-0.302315 -0.229177,-0.660195 -0.09408,-0.79529 0.13509,-0.135094 0.382954,0.112254 0.550807,0.549664 0.348486,0.908145 0.05149,1.067886 -0.456725,0.245626 z M 42.001152,81.612838 c -0.125978,-0.11649 -0.982788,-0.37328 -1.904021,-0.57064 -1.457434,-0.31223 -1.674968,-0.22298 -1.674968,0.68725 0,1.65184 1.60296,2.27114 2.805927,1.08407 0.551168,-0.54389 0.899046,-1.08419 0.773062,-1.20068 z m -12.958811,1.11084 c 1.190346,-1.19034 0.702853,-1.99639 -1.132644,-1.87278 -1.721796,0.11596 -1.736886,0.13752 -0.901906,1.28838 0.986216,1.35934 1.198612,1.42034 2.03455,0.5844 z m 8.674665,-0.97036 c 0.06874,-1.26111 -0.707099,-2.16238 -1.460577,-1.6967 -0.503557,0.31121 -0.544993,2.4645 -0.05682,2.95267 0.655881,0.65588 1.448966,-5.2e-4 1.517397,-1.25597 z m -2.906775,0.57163 c 0.612244,-0.38707 0.638477,-0.6163 0.128843,-1.12593 -0.351949,-0.35195 -0.636359,-0.88343 -0.632019,-1.18105 0.0041,-0.29763 0.203985,-0.2318 0.443655,0.14628 0.354042,0.55852 0.491791,0.54143 0.734538,-0.0912 0.375043,-0.977357 -0.913342,-2.099642 -1.952585,-1.70085 -0.482169,0.185024 -0.779623,0.96079 -0.779623,2.03326 0,2.36806 0.544313,2.87593 2.057191,1.91945 z m -3.287984,-0.40799 c 0.315162,-0.20825 0.680852,-1.13237 0.812649,-2.05361 0.211509,-1.478458 0.09894,-1.674965 -0.959551,-1.674965 -0.778922,0 -1.217181,0.316079 -1.250552,0.901906 -0.03422,0.601269 -0.188916,0.472429 -0.464002,-0.386531 -0.226946,-0.708641 -0.43575,-0.998539 -0.464002,-0.644219 -0.02824,0.35432 -0.29698,0.644219 -0.597165,0.644219 -0.300185,0 -0.417474,-0.207619 -0.260646,-0.461374 0.316373,-0.511901 -0.989695,-1.178322 -1.43554,-0.732482 -0.475774,0.475774 1.199663,2.616736 2.265979,2.895586 0.553714,0.1448 1.006749,0.63286 1.006749,1.08458 0,0.88697 0.439078,1.02622 1.346081,0.42689 z m 14.919875,-2.86156 c -0.158772,-0.335133 -0.43526,-1.028302 -0.614425,-1.540383 -0.190823,-0.545416 -0.635354,-0.812246 -1.073232,-0.644219 -0.411114,0.157762 -0.960432,0.286837 -1.220706,0.286837 -0.844591,0 -0.499574,2.510915 0.415376,3.022945 1.079613,0.60418 2.91898,-0.226 2.492987,-1.12518 z m -2.093149,-0.867015 c -0.175186,-0.283456 -0.07292,-0.515375 0.22727,-0.515375 0.300186,0 0.545793,0.231919 0.545793,0.515375 0,0.283456 -0.102271,0.515375 -0.22727,0.515375 -0.124999,0 -0.370606,-0.231919 -0.545793,-0.515375 z m -17.078681,1.288435 c -0.163163,-0.425182 -0.387799,-0.77306 -0.499203,-0.77306 -0.111398,0 -0.202547,0.347878 -0.202547,0.77306 0,0.42519 0.224641,0.77306 0.499202,0.77306 0.274556,0 0.365705,-0.34787 0.202548,-0.77306 z m 30.054389,-3.473913 1.45479,-1.547119 -1.649375,0.835546 c -0.907158,0.459555 -2.583221,0.835552 -3.72459,0.835552 -1.63412,0 -2.251235,0.268649 -2.903369,1.263925 -0.692762,1.057292 -0.715769,1.386658 -0.140724,2.014609 0.597882,0.65289 1.001456,0.58094 3.097955,-0.552356 1.325791,-0.716675 3.065183,-1.999242 3.865313,-2.850157 z M 47.111089,74.580759 c 0,-1.174441 -0.03917,-1.197241 -0.442929,-0.257687 -0.243612,0.566912 -0.442928,1.610546 -0.442928,2.319186 0,1.174442 0.03917,1.197242 0.442928,0.257688 0.243613,-0.566913 0.442929,-1.610547 0.442929,-2.319187 z m -1.90079,1.208559 c 1.21782,-1.102113 1.196953,-1.723934 -0.05785,-1.723934 -0.550183,0 -1.15897,-0.256677 -1.352859,-0.570396 -0.473593,-0.766285 -1.236075,0.449536 -1.246542,1.987677 -0.0095,1.395078 1.288968,1.544929 2.657247,0.306653 z m 3.908355,-1.86963 c -0.873674,-1.881124 -1.419744,-1.759011 -1.419744,0.317486 0,2.06773 0.474737,2.666596 1.389069,1.752264 0.549225,-0.549224 0.555028,-0.940755 0.03066,-2.06975 z m 30.920028,1.851932 c -0.496048,-0.129627 -1.307763,-0.129627 -1.803812,0 -0.496048,0.129632 -0.09019,0.235697 0.901906,0.235697 0.992097,0 1.397954,-0.106065 0.901906,-0.235697 z m 3.809955,-0.971177 c 0.862634,-0.446083 1.455784,-0.923701 1.318112,-1.061374 -0.137667,-0.137672 -1.141442,0.227312 -2.230604,0.811066 -1.089162,0.583755 -1.682312,1.061374 -1.318112,1.061374 0.3642,0 1.36797,-0.364978 2.230604,-0.811066 z m -0.84655,-1.134418 c 4.565155,-2.334328 7.356255,-6.434624 8.505638,-12.495309 0.615538,-3.245727 0.614451,-9.120433 -0.0021,-10.554886 l -0.442929,-1.03075 -0.03664,1.03075 c -0.05426,1.526957 -2.755487,6.919046 -4.637203,9.256626 -0.903808,1.12276 -2.44146,2.609291 -3.417008,3.303403 -1.747151,1.243115 -2.360963,2.643528 -1.158681,2.643528 1.140973,0 6.164636,-5.718419 7.388285,-8.410057 l 1.214037,-2.670502 0.01134,2.0615 c 0.0116,2.112134 -0.946656,6.624066 -1.942031,9.14395 -1.240084,3.139668 -6.440788,7.605731 -8.856721,7.605731 -0.493033,0 -1.036976,0.366257 -1.20875,0.813901 -0.26061,0.679135 -0.03504,0.754194 1.362141,0.453303 0.920954,-0.198327 2.370219,-0.716361 3.220587,-1.151188 z M 52.461251,72.920417 c 0.117588,-0.352769 -0.352547,-0.935225 -1.044742,-1.294343 -2.558887,-1.327564 -3.468797,-0.452546 -1.883293,1.811073 0.632618,0.90319 1.006785,1.038476 1.758897,0.635958 0.525435,-0.28121 1.051545,-0.799914 1.169138,-1.152688 z m 5.100255,0.07826 c 1.150002,-0.586687 1.968459,-1.18916 1.818794,-1.338825 -0.14967,-0.149665 -1.273754,0.328154 -2.497976,1.061826 -2.668314,1.599116 -2.248216,1.770447 0.679182,0.276999 z M 47.364895,72.603601 c 0.806943,-0.89166 0.777886,-0.982217 -0.502325,-1.565523 -1.136556,-0.517849 -1.516181,-0.476701 -2.320919,0.251575 -0.731868,0.662334 -0.824105,1.036965 -0.385438,1.565523 0.808077,0.973677 2.198501,0.86466 3.208682,-0.251575 z m 34.468771,-0.317718 c 3.209878,-1.341176 6.572013,-6.087675 7.318425,-10.331807 0.199409,-1.133825 0.484133,-2.641296 0.632726,-3.349937 0.228223,-1.088378 0.09513,-1.008351 -0.857151,0.515375 -1.495066,2.392231 -5.655409,6.686447 -6.986869,7.211697 -0.691484,0.272777 -1.251238,1.19937 -1.606388,2.659138 -0.299798,1.232261 -0.716721,2.646331 -0.926499,3.14238 -0.465312,1.100299 0.07697,1.134535 2.425756,0.153154 z M 58.531642,70.918098 c 3.163861,-1.94674 4.525852,-4.375331 4.951351,-8.828834 l 0.308359,-3.227437 -1.534524,2.356324 c -0.875209,1.343912 -2.315321,2.726833 -3.351776,3.218666 -1.533941,0.7279 -3.0264,2.41332 -2.137022,2.41332 0.635179,0 2.62786,-1.249248 4.005302,-2.511004 l 1.478487,-1.354308 -0.388428,1.288437 c -0.480577,1.594106 -2.94463,4.490013 -5.214037,6.127859 -0.938729,0.677486 -1.583527,1.431221 -1.432888,1.674968 0.389352,0.629979 0.435633,0.613811 3.315176,-1.157991 z M 49.287187,70.45776 c 1.01434,0 0.403925,-1.599795 -0.823868,-2.159214 -1.098449,-0.500491 -1.410514,-0.439604 -2.037725,0.397576 -0.651733,0.869916 -0.637004,1.067269 0.122711,1.644169 0.47484,0.360572 1.178863,0.534511 1.564497,0.386531 0.38564,-0.147985 0.91411,-0.269062 1.174385,-0.269062 z m 2.490848,-0.284801 c 0.210906,0.130349 0.346795,-0.260821 0.301968,-0.869262 -0.04484,-0.608441 -0.353032,-1.196767 -0.684902,-1.307393 -0.794373,-0.264789 -1.328899,1.190485 -0.856765,2.332613 0.254776,0.616336 0.449361,0.69691 0.614533,0.254476 0.132936,-0.356088 0.414259,-0.540782 0.625166,-0.410434 z m 7.130279,-2.45957 c 2.685696,-2.58548 2.829748,-3.3276 0.314611,-1.620781 -1.031652,0.700095 -2.430441,1.272903 -3.108422,1.272903 -0.67798,0 -1.366188,0.347878 -1.529345,0.773063 -0.163163,0.425184 -0.530749,0.773062 -0.816859,0.773062 -0.286116,0 0.318496,-0.928345 1.343577,-2.062984 1.761321,-1.94957 2.367294,-3.749496 1.452642,-4.31478 -0.226125,-0.139754 -0.747942,-0.01984 -1.159593,0.266506 -0.56877,0.395622 -0.593791,0.583363 -0.104237,0.782004 1.069287,0.433879 0.734077,1.446425 -1.007233,3.042489 l -1.651451,1.513703 1.461453,-1.987018 c 1.194016,-1.623399 1.272847,-1.886071 0.430776,-1.435411 -0.566871,0.30338 -1.14408,0.438197 -1.282685,0.299592 -0.138605,-0.138605 -0.561001,0.120304 -0.938663,0.57536 -0.547987,0.660282 -0.55929,1.031295 -0.05598,1.837228 0.346868,0.555425 0.471022,1.268183 0.275896,1.583907 -0.215185,0.348177 -0.120665,0.429348 0.240226,0.206304 0.347085,-0.214509 0.595006,-0.05087 0.595006,0.392799 0,2.01159 2.296378,1.224912 5.540281,-1.897946 z M 43.01425,67.052055 c -0.58444,-0.704208 -0.54037,-0.936683 0.293089,-1.546124 0.878941,-0.642698 0.888635,-0.717294 0.09321,-0.717294 -0.488256,0 -1.021231,0.347878 -1.184388,0.773063 -0.382311,0.996276 0.126112,2.319186 0.891304,2.319186 0.410651,0 0.381805,-0.256471 -0.09322,-0.828831 z m 8.125869,0.0036 c 0.174135,-0.453793 -3.66e-4,-1.020983 -0.387778,-1.260416 -0.976352,-0.603422 -1.395455,-0.04417 -0.461632,0.616007 0.635411,0.449206 0.618233,0.491343 -0.10609,0.260295 -0.47532,-0.151618 -1.141493,0.05842 -1.480383,0.466759 -0.510077,0.6146 -0.380676,0.742429 0.751556,0.742429 0.778643,0 1.50408,-0.355361 1.684327,-0.825074 z m -2.687072,-0.700137 c 0.523477,-0.578436 0.993349,-2.064566 1.099898,-3.47878 l 0.186014,-2.468944 -0.519817,2.04443 c -0.285904,1.124434 -0.976831,2.530897 -1.5354,3.125465 -0.558573,0.594722 -1.015582,1.240177 -1.015582,1.434499 0,0.671327 0.874199,0.349775 1.784887,-0.65652 z m 3.884236,-2.040111 c 0,-1.536075 -0.555558,-2.619027 -1.343577,-2.619027 -0.476897,0 -0.717922,0.605581 -0.717922,1.803812 0,1.460227 0.196332,1.803812 1.03075,1.803812 0.672517,0 1.030749,-0.343585 1.030749,-0.988597 z m 1.779028,-0.994818 c 0.166301,-0.523966 -0.02762,-1.588761 -0.430988,-2.366209 -0.680686,-1.312026 -0.756925,-1.339289 -1.061517,-0.3796 -0.379218,1.194815 0.138888,3.698474 0.765368,3.698474 0.233624,0 0.560836,-0.428699 0.727137,-0.952665 z M 21.277235,61.714911 c 0.04481,-1.123641 0.35192,-2.573133 0.682472,-3.221093 0.582881,-1.142591 0.560793,-1.139267 -0.732534,0.110321 -1.773025,1.71306 -2.358875,4.445057 -1.026728,4.787941 0.526164,0.13543 0.96536,0.273143 0.975991,0.306024 0.01063,0.03288 0.05599,-0.859557 0.100799,-1.983193 z m 51.453267,-4.793244 c 1.802158,-3.42951 1.881536,-3.79004 1.658033,-7.530768 -0.158766,-2.657241 -0.599376,-4.637731 -1.361347,-6.119161 -0.619635,-1.204688 -1.179873,-2.189003 -1.244975,-2.187366 -0.06511,0.0016 -0.135023,1.335169 -0.15537,2.963405 -0.03896,3.11526 -0.987603,5.515009 -3.066491,7.756993 -0.65298,0.704212 -1.067218,1.593146 -0.920526,1.975415 0.429647,1.119641 1.192525,0.271561 2.78642,-3.0976 0.821956,-1.737453 1.494654,-2.846176 1.494876,-2.46383 5.15e-4,0.896294 -1.454167,4.059133 -2.701436,5.873546 -0.700703,1.019324 -1.009263,2.498346 -1.103515,5.289524 l -0.130833,3.874557 1.426197,-1.366383 c 0.784411,-0.751509 2.277946,-2.987262 3.318967,-4.968332 z m -2.594948,1.424785 c 0.97746,-2.03218 1.943592,-5.070536 2.212365,-6.95756 0.402755,-2.827721 0.487055,-3.016951 0.540747,-1.213881 0.08325,2.795566 -1.650086,8.279494 -3.234385,10.23294 -1.076839,1.327745 -1.008861,1.036569 0.481273,-2.061499 z m 2.094117,-11.810673 c 0.546329,-1.815619 1.175395,-2.070215 1.129532,-0.457144 -0.02644,0.929769 -0.320156,1.530842 -0.748067,1.530842 -0.473737,0 -0.598706,-0.351737 -0.381465,-1.073698 z M 83.006009,62.32346 c 2.978568,-2.547008 6.932627,-8.785883 6.930086,-10.934568 -5e-4,-0.425184 -0.533248,0.520936 -1.183873,2.102482 -1.388425,3.374983 -3.333748,6.056396 -5.938344,8.185373 -1.030312,0.842159 -1.641371,1.531267 -1.357915,1.531339 0.283456,7.2e-5 0.980975,-0.398009 1.550046,-0.884626 z M 59.195311,61.806369 c 2.363963,-2.612146 2.998734,-6.885526 1.557741,-10.486925 -0.711593,-1.778439 -0.923552,-1.981453 -1.221577,-1.170022 -0.780082,2.12391 -1.117817,4.459372 -0.598454,4.138391 0.332474,-0.20548 0.441512,0.471579 0.300861,1.868177 -0.194652,1.932738 -0.154443,2.03887 0.341734,0.902025 0.309287,-0.70864 0.436415,-1.926214 0.282513,-2.705718 -0.153906,-0.779504 -0.05371,-1.417281 0.222663,-1.417281 0.80567,0 0.579271,3.50893 -0.342482,5.308186 -0.920279,1.79637 -1.707957,2.498068 -2.355155,2.098075 -0.228125,-0.140986 -0.562892,0.129638 -0.743923,0.601396 -0.187679,0.489081 -0.02,1.053504 0.39017,1.313211 1.007383,0.63787 1.222186,0.59329 2.165909,-0.449515 z m -7.067394,-1.218913 c 0.201759,-0.326459 -0.01871,-0.875467 -0.489894,-1.220021 -0.748593,-0.547384 -0.768388,-0.796733 -0.156834,-1.975514 0.384949,-0.74198 0.888187,-1.178626 1.118312,-0.970327 0.230125,0.208304 0.264351,0.109491 0.07605,-0.219581 -0.188297,-0.329077 -0.747293,-0.52076 -1.242218,-0.425962 -0.494925,0.09479 -1.073799,0.190096 -1.286391,0.211783 -0.462806,0.04721 -0.516297,3.224582 -0.0737,4.377965 0.365169,0.951619 1.526134,1.07686 2.054681,0.221657 z m -1.336758,-0.437192 c 0,-0.283456 0.245607,-0.515375 0.545792,-0.515375 0.300185,0 0.402456,0.231919 0.22727,0.515375 -0.175186,0.283456 -0.420793,0.515375 -0.545792,0.515375 -0.124999,0 -0.22727,-0.231919 -0.22727,-0.515375 z m 3.934938,0.128844 c -0.271556,-0.820936 -0.244973,-0.825585 0.296083,-0.0518 0.523082,0.748082 0.768761,0.609447 2.047014,-1.15513 1.611526,-2.224646 1.868275,-3.948503 0.657299,-4.413196 -1.143792,-0.438919 -1.681251,0.32197 -0.639307,0.905076 1.095718,0.613193 0.496594,2.632699 -0.8392,2.828748 -1.753674,0.257383 -2.364578,0.707259 -2.364578,1.741281 0,0.575808 0.256728,1.046923 0.570514,1.046923 0.313781,0 0.43626,-0.405858 0.272175,-0.901906 z m 0.703437,-0.583389 c 0,-0.283456 0.231919,-0.658706 0.515375,-0.833892 0.283456,-0.175186 0.515375,-0.0866 0.515375,0.196858 0,0.283456 -0.231919,0.658705 -0.515375,0.833891 -0.283456,0.175187 -0.515375,0.0866 -0.515375,-0.196857 z m 29.632718,-1.478111 c 3.40655,-4.327174 4.55462,-7.639841 4.599308,-13.270902 0.03484,-4.387708 -0.06617,-4.833335 -1.868703,-8.245997 l -1.905511,-3.607624 -0.02536,2.422663 c -0.04092,3.909067 -1.055869,7.672255 -2.943239,10.912598 -1.917725,3.292457 -1.852082,4.597345 0.107894,2.144655 1.455135,-1.820942 3.304109,-6.569441 3.466736,-8.903202 l 0.116325,-1.669284 0.890697,1.153909 c 2.987437,3.870267 1.149172,13.74717 -3.484718,18.723192 -1.266121,1.359605 -2.30204,2.659071 -2.30204,2.887701 0,1.083566 1.221567,0.154164 3.348602,-2.547709 z m -26.025094,0.260321 c 0,-0.287491 -0.341827,-0.231681 -0.773062,0.12621 -0.425184,0.352872 -0.773062,0.873504 -0.773062,1.15696 0,0.287492 0.341827,0.231682 0.773062,-0.12621 0.425184,-0.352872 0.773062,-0.873504 0.773062,-1.15696 z M 53.9988,56.782099 c -0.07826,-1.123801 -0.38549,-2.524244 -0.682727,-3.112102 -0.404477,-0.799933 -0.334901,-1.513052 0.276555,-2.834561 0.799068,-1.726995 0.802356,-0.668435 0.0041,1.282216 -0.265068,0.647641 -0.216627,0.870814 0.141032,0.64977 0.304726,-0.188334 0.513633,0.03386 0.474114,0.504201 -0.03886,0.462492 0.243706,0.951315 0.627923,1.086271 0.524471,0.184226 0.621554,-0.123066 0.389525,-1.232967 -0.466631,-2.232081 -0.496223,-4.451272 -0.0747,-5.601346 0.207783,-0.566913 -0.27621,0.01288 -1.075541,1.288437 -1.44257,2.302017 -1.748244,4.445494 -1.117312,7.834944 0.142594,0.766017 0.118423,1.376329 -0.05371,1.35625 -0.820662,-0.09574 -1.116796,0.134194 -0.810705,0.629464 0.184886,0.299149 0.720391,0.464883 1.190011,0.368297 0.652666,-0.13423 0.820327,-0.657052 0.711557,-2.218874 z m 30.728103,-0.505253 c 3.182908,-4.21505 4.617083,-11.77343 2.932168,-15.453138 -0.628994,-1.373681 -0.712624,-1.417397 -0.749814,-0.391954 -0.07009,1.932694 -2.600689,7.668262 -3.937365,8.924008 -1.137927,1.069027 -1.258242,1.590797 -1.258242,5.456729 0,4.901879 0.305406,5.050297 3.013253,1.464355 z m -27.751244,0.505351 c 0,-0.617883 -0.214711,-0.676291 -0.980161,-0.26663 -0.851298,0.455597 -0.94372,0.373281 -0.702952,-0.626087 0.219793,-0.912317 0.141771,-1.02439 -0.376709,-0.541077 -0.359654,0.335267 -0.514447,0.973043 -0.343976,1.417281 0.401874,1.047257 2.403798,1.061007 2.403798,0.01649 z m 10.748044,-7.841336 c 0.969172,-2.42857 1.461474,-5.44867 1.324137,-8.1231 -0.151149,-2.943259 -1.826793,-7.782499 -3.377339,-9.753699 -1.114313,-1.416618 -4.499696,-3.48577 -3.769142,-2.303704 0.220426,0.356659 0.570061,2.692107 0.776963,5.189885 0.32934,3.975897 0.216741,5.555228 -0.614053,8.612855 -0.105905,0.389752 0.07622,0.807895 0.404724,0.929205 0.334411,0.123493 0.752931,-0.48813 0.950949,-1.389711 0.194523,-0.885652 0.474382,-1.489572 0.621908,-1.342045 0.147526,0.147528 0.01933,0.982272 -0.284915,1.854987 -0.483556,1.387129 -0.361376,1.911995 0.971162,4.171986 0.83837,1.421878 1.524309,2.806945 1.524309,3.077927 0,1.020935 0.927494,0.438084 1.471297,-0.924586 z m -1.13182,-1.778192 c 0.434064,-2.27861 0.691272,-2.475238 0.691272,-0.528462 0,0.880882 -0.228424,1.742779 -0.507613,1.915327 -0.317172,0.196023 -0.386078,-0.324291 -0.183659,-1.386865 z m 0.691272,-4.996237 c 0,-1.387423 -0.520523,-4.112468 -1.156722,-6.055655 l -1.156728,-3.533067 -0.296547,3.865312 -0.296552,3.865311 -0.09285,-3.694317 c -0.05107,-2.031873 -0.233619,-4.061162 -0.405677,-4.509529 -0.174655,-0.455142 -0.04829,-0.815214 0.286048,-0.815214 1.119874,0 3.204977,5.754597 3.500385,9.660566 0.15554,2.056549 0.133358,3.73918 -0.04927,3.73918 -0.182644,0 -0.332076,-1.135164 -0.332076,-2.522587 z m 15.742949,-4.556074 c 0.942744,-4.823757 0.03999,-10.793152 -2.175639,-14.386605 -0.8008,-1.298779 -1.711354,-2.802486 -2.02345,-3.341572 -1.0747,-1.856327 -1.257509,-1.666811 -0.490152,0.508119 1.020272,2.891758 0.658149,8.91117 -0.731059,12.152058 -1.184563,2.763478 -1.277181,3.385289 -0.504227,3.385289 0.984876,0 2.019733,-3.484675 2.363673,-7.959206 0.186432,-2.425384 0.536671,-4.40979 0.778309,-4.40979 0.241639,0 0.44749,0.637777 0.457447,1.417281 0.0099,0.779504 0.3317,2.879289 0.714979,4.666189 0.383285,1.786899 0.549076,3.104414 0.368426,2.927812 -0.180644,-0.176602 -0.580033,-1.522651 -0.887521,-2.99122 l -0.559074,-2.670125 -0.41633,3.076368 c -0.455251,3.363988 -1.55804,6.458066 -2.301772,6.458066 -0.640678,0 0.191951,2.787201 1.404932,4.702974 l 0.966333,1.526221 0.646595,-2.158145 c 0.355629,-1.18698 0.646599,-3.166603 0.646599,-4.399162 0,-1.23256 0.154613,-2.335921 0.34358,-2.451914 0.735471,-0.451443 0.479778,3.217433 -0.474614,6.810033 -1.081746,4.072015 -0.761909,6.245019 0.425849,2.893263 0.395107,-1.114965 1.046309,-3.705135 1.447116,-5.755934 z m -6.959246,-7.67719 c 0.364061,-1.103103 0.523704,-3.494312 0.38883,-5.824097 C 76.19346,19.579162 74.712984,16.128436 71.004656,11.40364 69.124914,9.0086555 65.846532,6.2699895 65.397193,6.7193295 c -0.07144,0.07144 0.229104,1.164465 0.667874,2.42895 0.60355,1.7393615 0.734584,3.6164645 0.538247,7.7104985 -0.142738,2.97629 -0.33806,5.850312 -0.434059,6.386716 -0.09599,0.536405 0.10206,1.073114 0.44012,1.192688 0.897917,0.317597 1.387801,-2.876143 1.419399,-9.253613 0.0151,-3.046735 0.117835,-5.5398615 0.228316,-5.5402795 0.9969,-0.0038 4.892871,7.7355225 5.922842,11.7656435 0.913981,3.576271 1.110896,8.616532 0.354892,9.083769 -0.284935,0.176099 -0.364638,-0.811623 -0.196749,-2.438284 0.349532,-3.386633 -1.234905,-9.540332 -3.604944,-14.001041 l -1.646164,-3.098281 -0.133034,2.822497 c -0.07317,1.552374 -0.357103,4.755817 -0.630968,7.118764 l -0.497929,4.296265 1.661713,1.372858 c 0.913945,0.755071 2.453498,2.242552 3.421228,3.305513 0.967734,1.06296 1.935402,1.932655 2.150375,1.932655 0.214974,0 0.668802,-0.842166 1.008506,-1.87148 z m -45.009994,43.295 c -0.200929,-0.200929 -0.365324,-0.818905 -0.365324,-1.373283 0,-0.784792 0.153134,-0.880868 0.691639,-0.433951 0.380398,0.315703 0.844235,0.421407 1.030749,0.234898 0.186509,-0.186514 0.339112,-0.08787 0.339112,0.219209 0,0.307076 -0.237717,0.676213 -0.528259,0.820307 -0.290543,0.144088 -0.232563,0.203511 0.128843,0.132044 0.361407,-0.07146 0.730998,-0.755132 0.821317,-1.519263 0.09032,-0.764126 -0.02567,-1.335991 -0.257687,-1.270811 -0.232048,0.06518 -1.204612,-0.629422 -2.161261,-1.543569 -1.558839,-1.489582 -1.706365,-1.868424 -1.421455,-3.650152 0.248493,-1.554005 0.0856,-2.283394 -0.746077,-3.340701 -0.585188,-0.743949 -1.459145,-1.352632 -1.942128,-1.352632 -0.679637,0 -0.8924,-0.495136 -0.941206,-2.190343 -0.07619,-2.646398 -0.330153,-4.037508 -0.907689,-4.971981 -0.300016,-0.485437 -0.21299,-0.628474 0.282085,-0.463626 0.393776,0.131111 0.767544,0.683016 0.830596,1.226453 0.63586,5.480444 0.777882,5.915668 1.822201,5.58421 0.620898,-0.197064 0.901664,-0.123417 0.710248,0.186303 -0.174104,0.281704 0.01691,0.788941 0.424473,1.127192 0.407564,0.338245 1.011949,1.435906 1.343083,2.439243 0.441351,1.337315 0.721411,1.63583 1.04922,1.118363 0.245937,-0.388232 0.450711,-1.129578 0.455056,-1.647426 0.01077,-1.287788 -2.911636,-4.13107 -3.86862,-3.763845 -0.548498,0.21048 -0.782416,-0.100034 -0.835258,-1.108746 -0.04035,-0.770609 -0.134626,-2.116191 -0.209464,-2.990179 -0.08213,-0.959123 0.106436,-1.589076 0.475671,-1.589076 0.359386,0 0.588568,0.698704 0.555553,1.693702 -0.03092,0.931535 0.151752,1.565178 0.405915,1.408097 0.254162,-0.157081 0.329772,-0.667998 0.168027,-1.135376 -0.20918,-0.604426 -0.06537,-0.553894 0.498079,0.175027 0.477402,0.617609 0.580297,1.095429 0.25895,1.202544 -0.717232,0.239078 -0.684072,2.153339 0.03731,2.153339 0.313781,0 0.441553,-0.336065 0.283936,-0.746814 -0.187205,-0.487838 -0.03891,-0.651769 0.427694,-0.472722 0.392849,0.150747 0.588146,0.602777 0.433987,1.004501 -0.593233,1.545934 0.740403,0.606627 3.353353,-2.361839 1.49705,-1.700737 2.89854,-3.092249 3.11442,-3.092249 0.503341,0 5.893837,6.709047 5.614736,6.988143 -0.115326,0.115325 -1.23791,-1.168582 -2.494631,-2.853131 -1.256721,-1.684544 -2.541205,-3.072139 -2.854408,-3.083539 -1.047886,-0.03814 -5.887709,5.525055 -5.556813,6.38735 0.170357,0.443944 0.4257,0.807175 0.567428,0.807175 0.141728,0 0.130699,-0.330923 -0.02448,-0.735384 -0.155205,-0.404456 0.05176,-1.012536 0.459921,-1.351276 0.62733,-0.520642 0.702214,-0.347121 0.484169,1.121909 l -0.257945,1.737813 0.54404,-1.546125 c 0.299216,-0.850368 0.601988,-1.829312 0.672816,-2.175428 0.363675,-1.777084 0.845787,-1.026673 0.845787,1.316469 0,1.464525 0.186159,2.662771 0.413686,2.662771 0.227533,0 0.272324,-1.284329 0.09954,-2.854068 -0.214267,-1.946638 -0.115939,-3.018561 0.309256,-3.371443 0.428601,-0.355712 0.718102,-0.309354 0.926453,0.148345 0.166677,0.366153 0.173604,0.143913 0.01541,-0.493863 -0.15821,-0.637776 -0.0538,-1.159593 0.232032,-1.159593 0.813009,0 1.303146,1.115379 1.239131,2.819811 -0.0518,1.379118 -0.01752,1.417879 0.294567,0.332876 0.329356,-1.145122 0.403199,-1.167742 1.094157,-0.33519 0.407527,0.491039 0.720994,1.623436 0.696585,2.516431 -0.02907,1.063548 0.03608,1.220985 0.188824,0.456396 0.128256,-0.641982 0.452318,-1.031812 0.720133,-0.866294 0.267814,0.165518 0.349955,0.52258 0.18253,0.793471 -0.167419,0.270897 -0.113223,0.459323 0.120438,0.418737 0.233661,-0.04061 0.540798,-0.0286 0.682526,0.02665 1.984384,0.773639 2.105013,0.542102 1.952812,-3.748187 L 43.833633,52.69599 42.029821,52.60131 C 31.295656,52.037923 26.568576,51.99896 26.568576,52.473873 c 0,0.294779 -0.611073,0.05529 -1.35794,-0.532196 -1.406935,-1.106696 -4.022378,-1.437025 -4.55496,-0.57529 -0.167534,0.271077 -0.703038,0.365159 -1.190009,0.209071 -0.751888,-0.241001 -0.768828,-0.199939 -0.112339,0.272304 0.975955,0.702052 2.227,0.741241 1.803812,0.05651 -0.189254,-0.30622 0.373578,-0.500675 1.386865,-0.479152 1.421,0.03019 1.533499,0.110085 0.674635,0.479152 -0.793045,0.340781 -0.837311,0.451282 -0.191949,0.479149 0.461341,0.01994 1.127514,0.384103 1.480386,0.809288 0.802388,0.966817 0.504544,0.973697 -1.313784,0.03036 -1.247684,-0.647305 -1.617451,-0.64662 -2.878195,0.0054 -1.686978,0.872324 -2.507894,2.199151 -2.507894,4.053403 0,1.162304 -0.213753,1.322317 -1.766406,1.322317 -1.944852,0 -3.902717,1.874037 -3.902717,3.735623 0,0.835829 -0.273937,0.979537 -1.518906,0.79681 -0.8353984,-0.122607 -1.3919218,-0.01747 -1.2367182,0.233666 0.1552031,0.251122 -0.1469432,0.383099 -0.671437,0.293274 -0.6356839,-0.108862 -0.8888128,0.09443 -0.759229,0.60975 0.1069176,0.425185 0.2035503,1.066321 0.2147396,1.424749 0.012802,0.410177 0.3944169,0.532959 1.0297374,0.331319 0.6664513,-0.211525 0.8895832,-0.126514 0.6567504,0.25022 -0.5251035,0.849631 -2.1973706,0.689576 -2.5558586,-0.244628 -0.8926905,-2.326314 0.2642445,-3.823159 2.9549784,-3.823159 1.058319,0 1.223941,-0.191693 0.978047,-1.131995 -0.282549,-1.080468 -0.313892,-1.086333 -0.68859,-0.128844 -0.383806,0.980764 -0.393332,0.980151 -0.426864,-0.02762 -0.05993,-1.80126 1.892338,-4.380253 3.569771,-4.715736 1.019397,-0.203857 1.545828,-0.620042 1.545828,-1.222083 0,-1.236987 3.332563,-4.082721 5.224224,-4.461053 1.058881,-0.211776 1.443825,-0.536598 1.246211,-1.051571 -0.157265,-0.409828 -0.285937,-0.94498 -0.285937,-1.189228 0,-0.244247 -0.675544,-0.84314 -1.501209,-1.330872 -1.271167,-0.750897 -1.431072,-1.071262 -1.043506,-2.090637 0.650605,-1.71122 -0.199935,-3.540467 -2.021001,-4.346549 -1.206941,-0.534244 -1.53465,-0.999273 -1.502444,-2.132013 0.02433,-0.855504 -0.454625,-1.976506 -1.169649,-2.737614 -1.109387,-1.180888 -1.126783,-1.275812 -0.207609,-1.132898 0.551778,0.08579 1.323218,0.355495 1.714311,0.599343 0.498182,0.310617 0.635825,0.229001 0.459727,-0.272597 -0.302896,-0.862674 -4.815859,-0.767308 -5.890386,0.124472 -0.8299859,0.688826 -0.8897014,0.234481 -0.150675,-1.146402 0.406646,-0.759824 1.015338,-0.986232 2.44803,-0.910563 1.048748,0.05539 2.310271,0.300666 2.803386,0.545057 1.193274,0.591395 2.524399,3.236624 2.136891,4.246456 -0.262609,0.684347 0.281347,0.814334 3.611271,0.862973 2.156248,0.03149 4.426474,0.08303 5.044947,0.114527 0.997101,0.05078 1.147698,-0.251092 1.329265,-2.664544 0.270829,-3.599945 -1.137381,-7.53406 -3.43377,-9.592931 -4.922364,-4.413241 -5.290863,-4.866514 -4.933542,-6.06852 0.499262,-1.679478 1.824406,-2.557831 3.500009,-2.31993 1.216826,0.172764 1.758956,-0.176131 3.349937,-2.155892 1.043989,-1.299107 3.347658,-4.043085 5.119259,-6.0977285 1.771601,-2.054644 3.221092,-3.968792 3.221092,-4.253663 0,-1.241564 1.109664,-0.280016 3.416915,2.960833 4.18925,5.8843775 7.341014,9.6259455 8.823377,10.4745285 3.04419,1.742663 1.864193,5.615609 -2.715438,8.912488 -1.522727,1.096213 -3.392074,2.892798 -4.154107,3.99241 -1.459335,2.105821 -2.386175,5.633041 -1.75046,6.661643 0.41431,0.670371 11.643606,0.480837 12.770375,-0.215546 0.77349,-0.478043 0.793821,0.691008 0.07611,4.37656 -0.297335,1.526834 -0.63204,4.502523 -0.743794,6.612642 l -0.203192,3.836583 -2.60791,-0.13842 -2.607915,-0.138414 0.07267,2.486333 c 0.03999,1.367485 0.04077,3.587947 0.0015,4.934364 l -0.07067,2.44803 h -6.184498 c -4.837014,0 -6.184498,0.151031 -6.184498,0.693184 0,0.381254 -0.460817,1.110221 -1.02404,1.619932 -1.014675,0.918264 -1.007325,0.945249 0.803125,2.949196 1.42767,1.580268 1.792416,2.381068 1.668258,3.662661 -0.115558,1.192778 -0.445867,1.681286 -1.210863,1.790793 -0.578576,0.08282 -1.216352,-0.01381 -1.417281,-0.214736 z m 0.663519,-5.091625 c -0.664684,-0.707522 -1.385219,-1.286406 -1.601187,-1.286406 -0.215968,0 0.230316,0.644976 0.991741,1.433288 0.76143,0.788307 1.48196,1.367186 1.601187,1.286401 0.119227,-0.08078 -0.327062,-0.725761 -0.991741,-1.433283 z m 6.522677,-6.374934 c 0.651532,0.540721 0.665168,0.434332 0.102601,-0.800377 -0.574968,-1.261911 -0.691407,-1.315778 -1.022999,-0.473264 -0.205794,0.522905 -0.372167,1.182652 -0.369714,1.466108 0.0026,0.283456 0.124669,0.215798 0.271582,-0.150356 0.21018,-0.523811 0.427302,-0.532789 1.01853,-0.04211 z m 4.302101,0.222884 c 0,-0.124999 -0.231918,-0.370606 -0.515374,-0.545792 -0.283457,-0.175186 -0.515375,-0.07291 -0.515375,0.22727 0,0.300185 0.231918,0.545792 0.515375,0.545792 0.283456,0 0.515374,-0.102271 0.515374,-0.22727 z M 14.3596,58.093279 c 1.05768,-0.42607 1.063798,-0.457096 0.09763,-0.495115 -0.857128,-0.03373 -0.900534,-0.124711 -0.257687,-0.540149 0.467436,-0.302082 0.529735,-0.502712 0.157583,-0.507485 -0.338514,-0.0041 -1.208053,0.513927 -1.93231,1.151703 -0.996212,0.877261 -1.235134,1.458769 -0.981291,2.388361 l 0.33554,1.228767 0.726075,-1.385766 c 0.399341,-0.762167 1.233847,-1.590313 1.854457,-1.840316 z m -2.736928,1.044366 c 0,-0.273484 0.521817,-0.771062 1.159593,-1.105742 1.153377,-0.605235 1.15433,-0.602571 0.177811,0.497244 -1.090706,1.228417 -1.337404,1.34066 -1.337404,0.608498 z m 25.253366,-0.894268 c 0,-0.957123 -0.166162,-1.22535 -0.532268,-0.859243 -0.292749,0.292748 -0.383898,0.918929 -0.202548,1.391512 0.477387,1.244058 0.734816,1.057585 0.734816,-0.532269 z M 17.230764,57.186859 c -0.187686,-1.188676 0.194234,-2.183561 1.293619,-3.369815 0.964016,-1.040191 1.073458,-1.391048 0.502274,-1.610232 -0.86609,-0.332352 -2.879755,1.823144 -3.366178,3.603269 -0.195648,0.716 -0.140323,1.129624 0.128844,0.963267 0.259447,-0.160344 0.471722,-0.04594 0.471722,0.254249 0,0.300186 0.231919,0.545793 0.515375,0.545793 0.283456,0 0.487911,-0.173939 0.454344,-0.386531 z m -0.929031,-1.2597 c -0.02238,-0.480242 0.560374,-1.523876 1.295005,-2.319187 l 1.335693,-1.446018 -1.004521,1.546125 c -0.552486,0.850368 -1.135239,1.894002 -1.295005,2.319186 -0.236333,0.628948 -0.29807,0.610287 -0.331172,-0.100106 z m 32.996452,-7.115141 c 0.17096,-1.842465 0.486333,-4.673492 0.700832,-6.291171 l 0.389995,-2.941235 -12.685292,-0.0047 c -6.976912,-0.0026 -13.823909,-0.155727 -15.215552,-0.340335 -1.839421,-0.244008 -2.826938,-0.127848 -3.616878,0.425447 -0.958093,0.671075 -0.99385,0.838089 -0.302308,1.412019 0.431372,0.358012 0.784312,0.984095 0.784312,1.3913 0,0.407205 0.231919,0.59704 0.515375,0.421854 0.301494,-0.186333 0.515375,0.34837 0.515375,1.288437 0,0.940067 -0.213881,1.474771 -0.515375,1.288437 -0.283456,-0.175185 -0.515375,-0.09773 -0.515375,0.172132 0,0.269859 0.398789,0.643681 0.886197,0.830718 0.487409,0.187036 0.738265,0.192132 0.557458,0.01133 -0.180807,-0.180807 -0.107704,-0.962804 0.162452,-1.737771 0.313586,-0.899554 0.310182,-1.862046 -0.0094,-2.661905 -0.275334,-0.68908 -0.515307,-0.949288 -0.533274,-0.578239 -0.01797,0.371049 -0.280397,0.521529 -0.583178,0.3344 -0.30278,-0.187128 -0.421396,-0.676698 -0.26359,-1.087932 0.181354,-0.472603 0.07017,-0.613744 -0.302182,-0.383615 -0.389051,0.240446 -0.446472,0.133305 -0.169092,-0.315505 0.765023,-1.237833 2.98527,1.949956 2.677791,3.844721 -0.153112,0.943526 0.03633,2.00234 0.462569,2.585247 0.397039,0.542981 0.721889,1.63867 0.721889,2.434861 0,0.796192 0.173939,1.445593 0.386531,1.443115 0.212592,-0.0025 2.00504,-1.475205 3.983219,-3.272724 3.498668,-3.17915 3.578902,-3.30725 2.944109,-4.700467 -0.358917,-0.787737 -0.527934,-1.556892 -0.375594,-1.709233 0.152339,-0.152341 0.280534,0.05157 0.284873,0.453131 0.0065,0.601166 0.09613,0.593581 0.507484,-0.04295 0.363025,-0.561741 0.501749,-0.588647 0.507485,-0.09843 0.0046,0.402661 0.263949,0.516381 0.643049,0.282085 1.083178,-0.669442 2.508252,-0.608607 1.934614,0.08259 -0.346069,0.41699 -0.185149,0.897178 0.512143,1.528217 1.134227,1.026462 0.862954,2.219262 -0.287564,1.264419 -0.396828,-0.329338 -0.628664,-0.749015 -0.515194,-0.932615 0.113475,-0.183601 -0.08467,-0.731768 -0.440326,-1.21815 -0.593619,-0.811824 -0.704121,-0.776916 -1.347777,0.425767 -0.559641,1.0457 -0.572953,1.485342 -0.06596,2.17845 0.349352,0.477595 1.034398,1.523496 1.522329,2.324223 1.861153,3.054294 2.01023,3.188256 2.809664,2.524784 0.62448,-0.518272 0.730735,-0.368577 0.653995,0.92136 -0.0504,0.847096 0.05375,1.540173 0.231429,1.540173 0.177676,0 1.473926,-1.172451 2.880549,-2.605446 l 2.557501,-2.605446 2.190343,2.444306 c 1.204689,1.344369 2.190343,2.648909 2.190343,2.898981 0,0.250065 0.521817,0.380558 1.159593,0.289981 1.028008,-0.146001 1.194866,-0.544821 1.470432,-3.514625 z m -4.275441,-0.146906 -2.933854,-3.203031 -2.131147,2.448031 c -1.172138,1.346416 -2.373631,2.44803 -2.669997,2.44803 -0.296367,0 0.648635,-1.217573 2.099997,-2.705718 1.451368,-1.488144 2.639565,-2.959672 2.640446,-3.270059 0.0026,-0.938067 -1.96799,-2.415769 -2.797264,-2.097546 -0.426663,0.163726 -0.912827,0.07589 -1.08036,-0.195183 -0.511803,-0.828109 2.204805,-0.547533 3.069346,0.317009 0.736249,0.73625 0.813576,0.724537 0.850564,-0.128844 0.02242,-0.51788 0.155231,-0.65589 0.296186,-0.307845 0.191251,0.47223 0.57386,0.422276 1.521521,-0.198655 0.696313,-0.456241 1.413395,-0.682154 1.593518,-0.50203 0.180129,0.180125 0.06421,0.327499 -0.257594,0.327499 -0.324176,0 -0.455715,0.402199 -0.294965,0.901906 0.233955,0.727277 0.188535,0.758641 -0.234583,0.161983 -0.434755,-0.613064 -0.663988,-0.624335 -1.337052,-0.06574 -1.38976,1.153396 -0.919455,2.343509 2.325562,5.884874 1.725851,1.883459 2.943424,3.416344 2.705717,3.40641 -0.237701,-0.0099 -1.752424,-1.459426 -3.366041,-3.221093 z m -9.971519,-1.338418 c 0.07044,-0.895458 0.277926,-1.777953 0.46107,-1.961099 0.504222,-0.504219 0.383181,2.053808 -0.135966,2.873595 -0.30602,0.483232 -0.411589,0.18692 -0.325104,-0.912496 z m 12.410174,0.421923 c 0.314719,-0.509221 -1.023988,-3.621348 -1.608299,-3.738863 -0.256507,-0.05159 -0.387928,-0.441675 -0.292037,-0.866859 0.256347,-1.136698 0.591722,-1.331433 0.591722,-0.343584 0,0.472427 0.231919,0.858958 0.515375,0.858958 0.283456,0 0.515375,0.419511 0.515375,0.932246 0,0.512736 0.340503,1.382431 0.756673,1.932656 0.963627,1.274029 0.971616,1.60168 0.03907,1.60168 -0.412718,0 -0.645755,-0.169305 -0.51787,-0.376234 z M 37.404828,46.137704 c 0.285343,-0.655048 0.653831,-1.580807 0.818854,-2.057241 0.183478,-0.529704 0.613502,-0.74596 1.10687,-0.556637 0.588058,0.225659 0.69353,0.111181 0.388985,-0.422193 -0.3097,-0.542407 -0.260997,-0.587858 0.188183,-0.175618 0.454932,0.41752 0.153804,1.035672 -1.207842,2.479435 -1.331652,1.411964 -1.675937,1.60663 -1.29505,0.732254 z M 25.116599,44.586189 c 0.656841,-0.93554 1.333051,-1.816941 1.502687,-1.958669 0.169635,-0.141728 0.266371,-0.779505 0.214973,-1.417281 -0.09323,-1.156753 0.56166,-1.482546 1.538095,-0.76517 1.009645,0.741772 0.734579,1.631533 -0.781175,2.526913 -0.845905,0.499689 -1.538012,1.150612 -1.538012,1.446497 0,0.295884 -0.479435,0.837384 -1.065412,1.203332 -1.001674,0.625556 -0.993967,0.563601 0.128844,-1.035622 z m 7.145984,4.519734 c -0.89131,-1.295472 -1.783356,-2.34487 -1.982332,-2.331995 -0.198976,0.01287 -1.373943,1.020582 -2.611039,2.239348 l -2.249262,2.21594 3.783064,0.110463 c 2.080687,0.06075 3.885246,0.212641 4.010132,0.337525 0.12488,0.124884 0.326722,0.127402 0.448531,0.0056 0.121808,-0.121808 -0.507784,-1.281401 -1.399094,-2.576874 z m 0.97878,-1.24258 c -1.165856,-1.745879 -2.274484,-3.163868 -2.463621,-3.151089 -0.665138,0.04494 -6.43642,5.651959 -6.131447,5.956933 0.169786,0.169785 1.449535,-0.758418 2.843886,-2.062672 1.394357,-1.304254 2.743057,-2.362572 2.997116,-2.351817 0.254065,0.01076 1.374216,1.332476 2.48923,2.937157 2.716927,3.910081 2.957422,2.703668 0.264836,-1.328512 z m 11.014724,1.758912 -1.968613,-2.282012 -1.932656,1.871231 c -1.06296,1.029177 -1.932655,2.056083 -1.932655,2.282012 0,0.225929 1.755573,0.410781 3.901269,0.410781 h 3.901269 z M 37.092609,37.572731 c -0.240597,-3.475227 2.053475,-7.101362 6.673341,-10.548243 2.827738,-2.109778 3.88572,-3.565555 3.914695,-5.386612 0.02396,-1.505257 -2.263769,-3.088504 -3.263668,-2.258662 -0.984041,0.816683 -0.772707,2.840772 0.318527,3.050733 0.969132,0.186468 1.282042,-1.173752 0.373647,-1.624257 -0.290542,-0.14409 -0.232563,-0.202177 0.128844,-0.129084 0.91142,0.184334 1.160624,1.896218 0.349053,2.397797 -0.856584,0.529398 -2.526512,-0.35477 -2.526512,-1.337697 0,-1.439078 -1.30783,-0.695996 -5.283524,3.001984 -3.955672,3.679353 -3.995892,3.742722 -4.075899,6.42174 -0.04443,1.488144 -0.289625,2.705717 -0.544854,2.705717 -0.255229,0 -0.320718,-0.231918 -0.145532,-0.515374 0.175186,-0.283457 0.07292,-0.515375 -0.22727,-0.515375 -0.300185,0 -0.545792,0.270572 -0.545792,0.601271 0,0.330698 -0.149005,0.452262 -0.331128,0.270142 -0.182124,-0.182122 -0.03778,-0.684612 0.32079,-1.116646 0.536804,-0.646806 0.509638,-0.785517 -0.15383,-0.785517 -0.44316,0 -0.949083,0.231919 -1.124269,0.515375 -0.567263,0.917847 -1.289406,0.54633 -1.252211,-0.644219 0.03458,-1.106458 0.05652,-1.112362 0.479149,-0.128843 0.243612,0.566912 0.45923,0.740851 0.479154,0.386531 0.01989,-0.35432 0.580724,-0.644219 1.246228,-0.644219 1.878835,0 1.701793,-2.500833 -0.35214,-4.974095 -2.870679,-3.456764 -3.143653,-4.148235 -0.498373,-1.262448 l 2.550616,2.782516 3.750717,-3.538237 c 4.571133,-4.312176 3.917787,-5.099459 -0.796867,-0.960224 -1.944293,1.706998 -3.524262,2.743284 -3.719965,2.43989 -2.565392,-3.97715 -6.002901,-7.02076 -5.011515,-4.437262 0.310142,0.808225 0.262068,0.807003 -0.647863,-0.01647 -0.938038,-0.848914 -1.021854,-0.829968 -1.83787,0.415427 -1.404461,2.143481 -3.923494,1.426096 -3.923494,-1.117353 0,-1.386894 1.56078,-1.636618 2.576874,-0.4123 0.607003,0.731393 0.485001,0.934729 -0.386531,0.644218 -0.212593,-0.07086 -0.328552,-0.302782 -0.257688,-0.515375 0.07086,-0.212592 -0.219034,-0.386531 -0.644218,-0.386531 -0.996814,0 -0.996814,1.234218 0,2.0615 1.034564,0.858612 2.431963,-0.252816 2.211231,-1.758714 -0.08673,-0.591717 0.191974,-1.37854 0.619348,-1.748498 0.651082,-0.56361 0.585913,-0.579867 -0.402016,-0.100292 -0.648483,0.314797 -1.625377,0.430702 -2.170876,0.257567 -2.498165,-0.792886 -4.200188,2.406797 -2.190343,4.11769 4.899158,4.170436 5.627862,4.995142 6.456595,7.307209 0.490926,1.369622 0.891449,3.939713 0.890047,5.711314 l -0.0026,3.221093 h 4.539089 4.539066 z m -3.051132,-4.737333 c -0.175186,-0.283456 -0.0866,-0.515375 0.196858,-0.515375 0.283456,0 0.658705,0.231919 0.833891,0.515375 0.175187,0.283456 0.0866,0.515375 -0.196857,0.515375 -0.283456,0 -0.658706,-0.231919 -0.833892,-0.515375 z m 1.288437,-0.89465 -1.288437,-0.728547 1.447188,0.230473 c 1.178755,0.187723 1.382998,0.07538 1.101124,-0.605682 -0.739372,-1.786446 -0.84272,-2.639967 -0.319651,-2.639967 0.299788,0 0.688402,0.231918 0.863588,0.515374 0.175186,0.283457 0.583136,0.515375 0.906554,0.515375 0.423561,0 0.415058,-0.172977 -0.03041,-0.61845 -0.340147,-0.340147 -0.618449,-0.948341 -0.618449,-1.351542 0,-0.621786 0.128663,-0.626312 0.847405,-0.02981 0.757343,0.628541 0.809277,0.566784 0.488688,-0.581113 -0.344584,-1.2338 -0.327211,-1.244987 0.441032,-0.283986 0.76393,0.955605 0.799749,0.957528 0.799749,0.04295 0,-0.526604 0.139811,-0.817649 0.310693,-0.646766 0.170883,0.170883 0.859311,-0.312281 1.529839,-1.073697 0.670528,-0.761416 1.224458,-1.152475 1.230957,-0.869019 0.0065,0.283456 -0.759884,1.329307 -1.703071,2.324113 -0.943188,0.994806 -1.988352,2.319702 -2.322578,2.944213 -0.380218,0.710443 -0.903921,1.021801 -1.399068,0.831795 -0.627479,-0.240785 -0.723941,-0.03498 -0.465754,0.993716 0.410058,1.633795 -0.170759,1.962791 -1.819392,1.030572 z m -7.651461,-4.903317 -1.678547,-3.221092 1.601462,1.677733 c 0.880802,0.922754 1.468803,1.892383 1.306661,2.154732 -0.162142,0.262348 -0.02324,0.644815 0.308612,0.849926 0.376852,0.23291 0.465342,0.14953 0.235676,-0.222076 -0.434487,-0.703011 0.170862,-0.766203 1.18548,-0.123752 0.843148,0.533878 0.397251,2.105622 -0.59735,2.105622 -0.375899,0 -1.438793,-1.449492 -2.361994,-3.221093 z M 17.031585,37.477853 c 0.173798,-0.281211 0.07858,-0.918988 -0.2116,-1.417281 -0.290178,-0.498293 -0.534649,-0.635057 -0.543268,-0.30392 -0.0086,0.331137 -0.156444,0.968913 -0.328499,1.417281 -0.339465,0.884634 0.567259,1.139 1.083367,0.30392 z m -1.737338,-2.203015 c -0.508992,-0.505204 -0.56819,-0.446006 -0.288504,0.288505 0.193539,0.508273 0.481717,0.794306 0.640394,0.635628 0.158677,-0.158677 3.27e-4,-0.574536 -0.35189,-0.924133 z m 20.88771,-12.468786 2.497893,-2.298723 -4.541555,-0.02047 -4.54155,-0.02046 1.665511,2.319186 c 0.916038,1.275553 1.835683,2.319187 2.043662,2.319187 0.207985,0 1.5022,-1.034426 2.876039,-2.298724 z m -3.163133,0.765702 c -0.41648,-0.673881 0.769691,-1.245279 1.359888,-0.655079 0.329897,0.329898 0.230662,0.610427 -0.286089,0.808722 -0.435157,0.166987 -0.918367,0.09785 -1.073799,-0.153643 z m -0.362417,-2.426662 c 0.372034,-0.148877 0.816544,-0.130567 0.987803,0.04069 0.171254,0.171255 -0.133141,0.293063 -0.676429,0.270685 -0.600386,-0.02473 -0.722504,-0.146851 -0.311374,-0.311372 z M 44.091286,18.10566 c 0,-0.188288 -0.311235,-0.08404 -0.691638,0.231666 -0.380398,0.315705 -0.856496,0.409151 -1.057987,0.207658 -0.201497,-0.201493 -0.198724,0.07048 0.0061,0.604391 0.279183,0.727544 0.201501,0.865053 -0.310081,0.54888 -0.469079,-0.289907 -0.560063,-0.223614 -0.290877,0.211938 0.289249,0.468014 0.647104,0.35967 1.368067,-0.414195 0.537021,-0.576398 0.976383,-1.20205 0.976383,-1.390338 z m -17.249075,1.35585 c -0.166394,-0.269233 0.167796,-0.741231 0.742645,-1.048882 1.147034,-0.613874 1.404824,-0.05814 0.426735,0.91995 -0.481014,0.481016 -0.477422,0.618449 0.01618,0.618449 0.349043,0 0.775577,-0.367323 0.947857,-0.816274 0.220895,-0.575643 0.422875,-0.638869 0.685165,-0.214475 0.260393,0.421327 0.46895,0.348981 0.695436,-0.241243 0.214932,-0.560094 0.123118,-0.719195 -0.273545,-0.474042 -0.40812,0.252231 -0.484061,0.07454 -0.239989,-0.561504 0.301849,-0.786597 0.235686,-0.829766 -0.427793,-0.279127 -0.634271,0.526399 -0.784859,0.523149 -0.784859,-0.01694 0,-0.402944 -0.511607,-0.187686 -1.288437,0.542107 -1.364075,1.281483 -1.645073,2.061499 -0.742645,2.061499 0.300186,0 0.409646,-0.220282 0.243252,-0.489517 z m 7.456953,0.294935 c 0,-0.107021 -0.353186,-0.487702 -0.784859,-0.845959 -0.656252,-0.54464 -0.731667,-0.512755 -0.460235,0.194582 0.277215,0.72242 1.245094,1.228769 1.245094,0.651377 z m 1.546125,-0.249922 c 0,-0.244477 0.530099,-0.386313 1.177997,-0.315192 0.869587,0.09546 1.178003,-0.134561 1.178003,-0.878561 0,-0.919004 -0.0554,-0.932104 -0.628335,-0.148574 -0.345585,0.472614 -0.849405,0.722669 -1.119605,0.555677 -0.270196,-0.166992 -0.777861,0.0417 -1.128146,0.463766 -0.442114,0.532717 -0.459972,0.767388 -0.05839,0.767388 0.318162,0 0.578478,-0.200026 0.578478,-0.444504 z m 4.638373,0.131337 c 0,-0.426538 -1.000719,-0.667746 -1.230153,-0.29651 -0.148846,0.240837 0.06705,0.437886 0.479762,0.437886 0.412712,0 0.750391,-0.06362 0.750391,-0.141376 z m -6.637136,-1.601333 c 0.573947,0.614414 0.791106,0.618907 1.381431,0.02858 0.385238,-0.385237 0.949486,-0.546506 1.253887,-0.358377 0.324474,0.200538 0.404038,0.100292 0.192301,-0.242299 -0.19863,-0.321394 -0.09536,-1.080971 0.229476,-1.687948 0.460127,-0.859746 0.450618,-1.017063 -0.04303,-0.711975 -0.40896,0.252751 -0.549683,0.139698 -0.396843,-0.31882 0.152793,-0.458379 0.982253,-0.69629 2.337853,-0.67056 1.687817,0.03204 2.041235,-0.115965 1.796963,-0.752522 -0.201872,-0.526067 -0.373327,-0.584631 -0.510123,-0.17424 -0.113321,0.339988 -0.443449,0.61816 -0.733611,0.61816 -0.290161,0 -0.386041,-0.368806 -0.213066,-0.81957 0.520725,-1.356993 -0.223425,-1.899679 -1.286138,-0.937938 -1.174318,1.062744 -1.328379,0.118428 -0.169708,-1.04024 0.445428,-0.445432 0.577019,-0.809875 0.292418,-0.809875 -0.284605,0 -0.674399,-0.4944815 -0.866221,-1.0988455 -0.267552,-0.842995 -0.449113,-0.936468 -0.779767,-0.401457 -0.237057,0.383564 -0.59263,0.53577 -0.790163,0.338238 -0.197533,-0.197534 -0.117438,-0.654655 0.17798,-1.015825 0.380661,-0.46538 0.334927,-0.842843 -0.156999,-1.29576 -0.382959,-0.352591 -0.823306,-0.430084 -0.982278,-0.172862 -0.158478,0.256423 0.0031,0.564278 0.359288,0.68412 0.508093,0.170999 0.496213,0.401088 -0.05519,1.069093 -0.386439,0.468159 -0.926016,0.713128 -1.199066,0.544375 -0.273046,-0.168753 -0.951557,0.181678 -1.507807,0.778737 -0.556244,0.5970585 -0.842029,1.0855605 -0.635086,1.0855605 0.206949,0 -0.06079,0.319588 -0.594979,0.710194 -0.925191,0.676517 -0.928458,0.752982 -0.06886,1.612576 0.511324,0.511325 0.764631,1.264437 0.584523,1.737837 -0.247416,0.650298 -0.180036,0.698685 0.30403,0.218329 0.483715,-0.480009 0.843194,-0.335782 1.617927,0.649129 0.547817,0.69644 1.193355,1.144302 1.43453,0.99525 0.24117,-0.149053 0.569144,-0.05961 0.728833,0.198773 0.555904,0.899477 -1.226144,1.043251 -2.099137,0.169356 -0.483505,-0.484004 -1.420786,-0.924315 -2.082841,-0.978468 -1.093847,-0.08947 -1.129872,-0.02459 -0.394613,0.71067 0.445021,0.445022 0.669854,1.172082 0.499625,1.61569 -0.252987,0.659264 -0.126617,0.641044 0.691979,-0.09977 0.86033,-0.778589 1.097465,-0.803581 1.682482,-0.177316 z M 31.72229,16.858778 c 0,-0.283456 0.231919,-0.515374 0.515375,-0.515374 0.283456,0 0.515375,0.231918 0.515375,0.515374 0,0.283457 -0.231919,0.515375 -0.515375,0.515375 -0.283456,0 -0.515375,-0.231918 -0.515375,-0.515375 z m 1.406623,-2.182894 c -0.785369,-0.818765 -1.271352,-1.74203 -1.079963,-2.051701 0.200636,-0.324641 0.11112,-0.416654 -0.211417,-0.217314 -0.307668,0.190149 -0.705064,0.110022 -0.88311,-0.178057 -0.345554,-0.559118 -0.03834,-0.62951 2.910012,-0.666826 1.363677,-0.01726 1.810708,-0.216045 1.617587,-0.71931 -0.186886,-0.487019 0.02061,-0.601904 0.692416,-0.383311 0.713902,0.232301 0.780422,0.184359 0.260048,-0.187421 -0.432209,-0.3087885 -0.502037,-0.6214505 -0.18285,-0.8187185 0.999549,-0.617755 1.076329,1.1848005 0.100333,2.3554635 -0.543267,0.651628 -0.995477,0.974895 -1.004909,0.71837 -0.0094,-0.256524 -0.520307,-0.0246 -1.135288,0.515375 -1.102881,0.968388 -1.113014,0.967719 -0.742526,-0.04897 0.286595,-0.786464 0.232444,-0.888714 -0.228466,-0.431437 -0.909508,0.902336 -0.08345,1.938274 0.896845,1.124704 0.973203,-0.80769 2.738413,-1.10599 2.738413,-0.462762 0,0.264948 -0.24135,0.630889 -0.53634,0.8132 -0.294985,0.182312 -0.395318,0.775796 -0.222956,1.318853 0.182185,0.574013 0.07035,0.987378 -0.26714,0.987378 -0.319285,0 -0.437187,-0.231919 -0.262001,-0.515375 0.175187,-0.283456 0.09224,-0.515375 -0.184323,-0.515375 -0.276566,0 -0.580148,0.191676 -0.674636,0.425946 -0.09448,0.234271 -0.814365,-0.243951 -1.599729,-1.062716 z m 2.505433,-0.776716 c -0.357413,-0.357411 -1.335182,0.368773 -1.335182,0.991632 0,0.341741 0.295712,0.302644 0.785519,-0.103857 0.432034,-0.358557 0.679383,-0.758055 0.549663,-0.887775 z m 1.757067,-0.521804 c 0,-0.283456 0.347878,-0.804088 0.773062,-1.156959 0.431235,-0.357893 0.773063,-0.4137 0.773063,-0.12621 0,0.283456 -0.347878,0.804088 -0.773063,1.15696 -0.431234,0.357893 -0.773062,0.413699 -0.773062,0.126209 z M 32.237665,10.67428 c 0,-0.283456 0.231919,-0.515374 0.515375,-0.515374 0.283456,0 0.515375,0.231918 0.515375,0.515374 0,0.283457 -0.231919,0.515375 -0.515375,0.515375 -0.283456,0 -0.515375,-0.231918 -0.515375,-0.515375 z m 1.554015,0.128844 c 0.01443,-0.705378 0.961849,-1.9077725 1.264657,-1.6049645 0.405987,0.405987 -0.240726,1.9914955 -0.812313,1.9914955 -0.253126,0 -0.456684,-0.173939 -0.452344,-0.386531 z M 33.010727,9.6435305 c -0.175186,-0.283456 -0.07291,-0.515375 0.22727,-0.515375 0.300185,0 0.545792,0.231919 0.545792,0.515375 0,0.283456 -0.102271,0.5153755 -0.22727,0.5153755 -0.124999,0 -0.370606,-0.2319195 -0.545792,-0.5153755 z m 9.464534,7.9451085 c 0.28273,0.174736 0.681872,0.04617 0.886981,-0.285709 0.213442,-0.345357 0.150938,-0.466215 -0.14615,-0.282603 -0.652624,0.403346 -2.606312,-0.974832 -2.099854,-1.48129 0.205295,-0.205296 0.784726,-0.05032 1.287623,0.344394 0.823497,0.646342 0.846926,0.631472 0.235769,-0.149627 -0.867474,-1.108689 -2.450468,-1.00679 -2.450468,0.157742 0,0.490356 0.166198,0.788841 0.369327,0.6633 0.20313,-0.125541 0.514999,0.0074 0.69304,0.295526 0.178042,0.28808 0.07811,0.552771 -0.222075,0.588203 -0.300185,0.03543 -0.758384,0.09341 -1.01822,0.128844 -0.259832,0.03543 -0.66569,0.275543 -0.901906,0.53358 -0.24704,0.269868 -0.17095,0.321028 0.179128,0.120437 0.334736,-0.191797 0.775995,-0.07789 0.980573,0.253135 0.263578,0.426471 0.564325,0.338791 1.032074,-0.300889 0.363056,-0.496511 0.891429,-0.759779 1.174158,-0.585043 z M 28.833542,16.203322 c 0.201496,0.201493 0.197873,-0.0727 -0.008,-0.609319 -0.304535,-0.793612 -0.199847,-0.90869 0.561032,-0.616712 0.791219,0.303619 0.83501,0.237959 0.284059,-0.425901 -0.481056,-0.579635 -0.492162,-0.784861 -0.04247,-0.784861 0.334896,0 0.466992,-0.229609 0.293548,-0.510243 -0.198518,-0.321213 -0.572396,-0.273479 -1.009182,0.128843 -0.381614,0.351498 -0.602746,0.734245 -0.49141,0.850549 0.111337,0.116303 -0.263815,0.538029 -0.833665,0.937169 -0.56985,0.399139 -0.895608,0.953019 -0.7239,1.230845 0.201351,0.325797 0.541458,0.314866 0.957947,-0.03079 0.355166,-0.29476 0.810613,-0.371071 1.012104,-0.169578 z m 10.475612,-0.09942 c 0.221261,-0.243131 0.07298,-0.250433 -0.330355,-0.01627 -0.545081,0.316458 -0.647832,0.206044 -0.402704,-0.432747 0.449716,-1.17195 0.0036,-1.084358 -0.644368,0.126541 -0.410501,0.767031 -0.360943,0.959821 0.224636,0.873876 0.413238,-0.06065 0.931994,-0.308781 1.152791,-0.5514 z M 18.869318,69.961789 c -0.984426,-0.608405 -0.430492,-2.33859 0.748722,-2.33859 0.650813,0 1.080548,0.398488 1.179784,1.093996 0.170245,1.193186 -0.897118,1.882031 -1.928506,1.244594 z m 1.514726,-1.050153 c 0,-0.283456 -0.347878,-0.515375 -0.773062,-0.515375 -0.425185,0 -0.773063,0.231919 -0.773063,0.515375 0,0.283456 0.347878,0.515375 0.773063,0.515375 0.425184,0 0.773062,-0.231919 0.773062,-0.515375 z m 10.36728,-6.055654 c -0.03288,-0.637777 -0.523621,-1.623431 -1.090533,-2.190343 -0.566913,-0.566913 -0.804176,-1.03075 -0.527254,-1.03075 0.818667,0 2.178798,2.448788 1.918142,3.453439 -0.189091,0.728817 -0.253363,0.679099 -0.300355,-0.232346 z M 42.02371,57.672445 c -2.006637,-2.955427 -2.234072,-3.362548 -1.69095,-3.026879 0.719448,0.444645 3.434293,4.454601 3.184795,4.704099 -0.116315,0.11631 -0.788544,-0.638436 -1.493845,-1.67722 z M 31.720383,55.771608 c 0.664679,-0.707522 1.301512,-1.193407 1.415178,-1.079741 0.30285,0.302855 -1.557153,2.366148 -2.133023,2.366148 -0.269871,0 0.05316,-0.578885 0.717845,-1.286407 z m 1.58168,-2.022985 c -0.498594,-0.600772 -0.418298,-0.682923 0.446475,-0.456782 0.579925,0.151654 0.92737,0.481288 0.772103,0.732518 -0.377656,0.611054 -0.506876,0.581817 -1.218578,-0.275736 z m 7.084966,-0.134915 c 0.372034,-0.148876 0.816545,-0.13057 0.987804,0.04066 0.171254,0.171259 -0.133142,0.293063 -0.67643,0.270685 -0.600386,-0.02474 -0.722504,-0.14685 -0.311374,-0.311368 z M 29.048783,53.098333 c 0.372034,-0.148876 0.816545,-0.13057 0.987804,0.04066 0.171254,0.171259 -0.133142,0.293062 -0.67643,0.270685 -0.600386,-0.02474 -0.722504,-0.146851 -0.311374,-0.311369 z"
     style="fill:#000000;stroke-width:0.51537484" />
</svg>
