<?xml version="1.0" encoding="UTF-8" standalone="no"?>
<svg
   xmlns:dc="http://purl.org/dc/elements/1.1/"
   xmlns:cc="http://creativecommons.org/ns#"
   xmlns:rdf="http://www.w3.org/1999/02/22-rdf-syntax-ns#"
   xmlns:svg="http://www.w3.org/2000/svg"
   xmlns="http://www.w3.org/2000/svg"
   id="svgGSW12"
   version="1.1"
   viewBox="0 0 100 100"
   height="100"
   width="100">
  <defs
     id="defs2" />
  <metadata
     id="metadata5">
    <rdf:RDF>
      <cc:Work
         rdf:about="">
        <dc:format>image/svg+xml</dc:format>
        <dc:type
           rdf:resource="http://purl.org/dc/dcmitype/StillImage" />
        <dc:title></dc:title>
      </cc:Work>
    </rdf:RDF>
  </metadata>
  <path
     id="pathGSW12"
     d="m 60.506649,94.793335 c -4.126275,-0.82181 -6.499738,-3.01976 -8.531733,-7.90083 -1.398393,-3.35909 -1.530029,-4.14774 -1.457951,-8.7349 0.05682,-3.6158 0.232713,-4.88896 0.621703,-4.49997 0.884914,0.88491 1.994662,0.65853 1.642559,-0.33507 -0.202305,-0.57088 0.01038,-0.46783 0.60866,0.29492 0.825783,1.05281 1.16889,1.13509 3.362071,0.8062 1.970964,-0.29556 2.883673,-0.80127 4.728271,-2.61977 1.257216,-1.23943 2.305331,-2.392 2.329155,-2.56127 0.02382,-0.16928 0.174123,-0.64625 0.334016,-1.05995 0.159887,-0.41369 0.300408,-1.09065 0.312268,-1.50435 0.01183,-0.41369 0.13508,-2.26728 0.273826,-4.11908 0.138747,-1.85181 0.05633,-3.48802 -0.183139,-3.63602 -0.239473,-0.148 -0.323475,-0.6971 -0.186675,-1.22023 0.317368,-1.21362 -0.656483,-3.05946 -1.614147,-3.05946 -0.403993,0 -0.734534,-0.23359 -0.734534,-0.51909 0,-0.34514 0.349872,-0.33185 1.043999,0.0396 1.271416,0.68044 2.038479,-0.1578 3.198453,-3.49524 0.678998,-1.95361 0.683571,-2.35377 0.03816,-3.33881 -0.642177,-0.98008 -0.642498,-1.19453 -0.0025,-1.72561 0.401897,-0.33355 1.261372,-0.50501 1.909942,-0.38103 0.893163,0.17074 1.433139,-0.14945 2.225981,-1.31997 1.879605,-2.77498 4.605868,-12.319813 4.639706,-16.243931 0.01519,-1.759685 0.05274,-1.800711 0.774965,-0.846421 0.417457,0.551595 1.229891,2.55189 1.805405,4.445099 1.423712,4.683416 1.107794,10.788973 -0.7819,15.111443 l -1.315343,3.0087 1.454039,-1.73603 c 1.93861,-2.3146 2.56807,-4.41495 2.916056,-9.730129 0.313898,-4.794504 0.487008,-4.77955 2.124698,0.18354 2.103212,6.373859 0.905258,14.110379 -2.911744,18.804369 -0.509357,0.62639 -0.281278,0.53226 0.607522,-0.25072 1.642514,-1.44697 2.542055,-2.98101 4.410638,-7.52175 1.124958,-2.7337 1.409129,-3.09766 1.761819,-2.25653 0.231289,0.5516 0.41855,3.25943 0.416143,6.0174 -0.0035,4.22683 -0.180913,5.34612 -1.128262,7.12569 -1.464891,2.75175 -1.422307,3.27346 0.114195,1.39896 0.678206,-0.82739 1.241219,-1.24681 1.251138,-0.93204 0.03355,1.06552 -5.636061,6.23455 -9.087175,8.28482 -1.887071,1.12109 -3.43104,2.25058 -3.43104,2.50998 0,0.72401 6.556106,-2.89381 8.429347,-4.65151 0.912875,-0.85657 1.740583,-1.47659 1.839344,-1.37783 0.09877,0.0988 -0.381122,1.35929 -1.066419,2.80117 -1.463201,3.0786 -3.063387,4.34633 -6.998275,5.54428 -3.769479,1.14759 -4.369704,2.4007 -0.900744,1.8805 2.84465,-0.42659 5.519875,-1.69698 7.064481,-3.35476 2.047982,-2.19802 4.244041,-7.68608 4.381027,-10.9484 0.116146,-2.76607 0.472135,-4.01033 0.994295,-3.4753 0.11215,0.11492 -0.0884,2.02728 -0.445663,4.2497 -1.399988,8.70878 -6.231929,14.15199 -12.640985,14.24015 -0.880065,0.0121 -1.761524,0.28317 -1.958794,0.60236 -0.540653,0.87479 3.577008,0.18942 6.421502,-1.06883 1.296895,-0.57368 3.025082,-1.60437 3.840419,-2.29043 1.063671,-0.89503 1.561636,-1.06825 1.762807,-0.61323 0.189734,0.42915 0.259521,0.391 0.215874,-0.11801 -0.08903,-1.03827 0.602217,-2.50725 1.179827,-2.50725 0.262564,0 0.338453,0.22481 0.168642,0.49957 -0.169811,0.27476 -0.398427,0.96523 -0.508034,1.53439 -0.35107,1.82296 -2.549105,6.18896 -3.949048,7.84406 -2.165496,2.56019 -6.157283,4.24583 -10.184893,4.30084 -1.926481,0.0263 -3.957062,-0.23863 -4.665009,-0.60867 -0.697772,-0.36471 -1.022551,-0.40808 -0.732483,-0.0978 0.286624,0.30659 1.753365,0.99468 3.259425,1.52909 1.506054,0.5344 2.442201,0.98813 2.08033,1.00828 -1.175344,0.0655 -5.557188,-1.55183 -6.154495,-2.27154 -0.654779,-0.78896 -1.962926,-0.94588 -1.962926,-0.23546 0,0.84501 2.586484,2.51866 5.578169,3.60948 1.620565,0.59089 2.946479,1.17076 2.946479,1.2886 0,0.3295 -4.499931,-0.40801 -6.963023,-1.14118 -1.209587,-0.36005 -2.789154,-1.18906 -3.510149,-1.84225 -1.846734,-1.67305 -3.901726,-2.50453 -3.901726,-1.5787 0,0.38684 0.109411,0.59393 0.243138,0.4602 0.359805,-0.3598 1.633538,2.28318 1.333947,2.76793 -0.140933,0.22804 0.008,0.5779 0.330866,0.77746 0.388589,0.24016 0.451992,0.14424 0.187518,-0.28369 -0.219776,-0.3556 0.97197,0.3207 2.648322,1.50289 2.859889,2.01686 3.238985,2.14371 6.145379,2.05651 4.005471,-0.12019 6.192159,-1.06645 9.127039,-3.94962 1.310038,-1.28695 2.381887,-2.1762 2.381887,-1.97609 0,0.2001 -1.100356,1.45839 -2.44524,2.79621 -4.908096,4.88234 -11.164792,5.40952 -15.983043,1.34673 -0.896342,-0.7558 -1.629712,-1.15936 -1.629712,-0.89679 0,0.52149 4.226074,4.51444 5.793907,5.4743 0.887286,0.54321 0.831755,0.59999 -0.613032,0.62681 -0.873787,0.0163 -1.889223,0.11574 -2.256525,0.22115 -0.367307,0.10542 -1.457609,0.0344 -2.4229,-0.15787 z m 1.016259,-3.45083 c -1.524232,-1.60358 -3.308963,-4.06726 -3.966058,-5.47485 -0.671456,-1.43834 -1.613896,-2.66886 -2.151766,-2.80952 -0.7867,-0.20573 -0.898568,-0.0569 -0.628532,0.83643 0.388177,1.28413 2.075671,4.23316 3.132537,5.47439 1.228306,1.44257 -0.118182,0.99157 -1.497124,-0.50145 -1.79153,-1.93975 -4.45805,-5.98587 -4.98727,-7.56758 -0.342942,-1.02497 -0.390464,-0.78402 -0.205579,1.04228 0.277226,2.73841 2.592611,7.6172 4.425957,9.32602 1.533644,1.42948 4.504775,2.53829 6.880735,2.56786 l 1.768433,0.022 -2.771333,-2.91559 z m 5.251865,-4.43648 c -0.827392,-0.4362 -1.955654,-1.18733 -2.507249,-1.6692 -0.551595,-0.48186 -1.662848,-1.03274 -2.469456,-1.22417 -1.314525,-0.31199 -1.396287,-0.2634 -0.788695,0.4687 0.751984,0.90609 3.080216,2.20236 5.009981,2.78937 2.056852,0.62566 2.358118,0.48021 0.755419,-0.3647 z m -11.838129,-1.52933 c -1.103711,-2.16487 -1.20041,-3.12959 -0.322031,-3.21273 0.344747,-0.0326 -0.05015,-0.21612 -0.877537,-0.40774 -0.827392,-0.19164 -1.579662,-0.29647 -1.671714,-0.23297 -0.201653,0.13909 3.327532,5.71454 3.617229,5.71454 0.111593,0 -0.224083,-0.8375 -0.745947,-1.8611 z m 23.748126,-3.43394 c 3.015007,-1.98561 6.721484,-7.58125 5.698993,-8.60374 -0.172108,-0.1721 -0.822564,0.16586 -1.445455,0.75104 -1.628413,1.52981 -5.482963,3.11852 -8.406205,3.46473 -1.38677,0.16425 -2.640951,0.49207 -2.787069,0.72849 -0.504047,0.81557 2.062489,0.4043 6.186999,-0.99142 2.275329,-0.76996 4.136962,-1.32014 4.136962,-1.22264 0,0.77918 -2.67672,3.49077 -4.513049,4.57185 -1.826291,1.07518 -2.939515,1.34073 -5.838737,1.39281 -1.970212,0.0354 -3.831845,0.21864 -4.136962,0.40721 -1.136336,0.70229 -0.47731,-0.16402 2.249284,-2.95674 1.946623,-1.99383 2.729111,-3.15854 2.559014,-3.80898 -0.134755,-0.51532 0.07017,-1.19852 0.455391,-1.51823 0.385229,-0.31971 0.700411,-1.32464 0.700411,-2.23317 0,-0.90854 0.240355,-1.73201 0.534124,-1.82993 0.293769,-0.0979 0.603415,-1.10706 0.688105,-2.24252 0.08468,-1.13547 0.27155,-2.25883 0.415255,-2.49636 0.455853,-0.7535 0.25411,-7.42635 -0.243599,-8.05703 -0.262529,-0.33266 -0.334638,-0.83571 -0.160243,-1.11789 0.174399,-0.28218 0.036,-1.02544 -0.307495,-1.65168 -0.343518,-0.62625 -0.566282,-1.62479 -0.495031,-2.219 0.07126,-0.5942 -0.109421,-1.22806 -0.401506,-1.40858 -0.292084,-0.18052 -0.53106,-0.77328 -0.53106,-1.31725 0,-0.54398 -0.318115,-1.11112 -0.706919,-1.26032 -0.388809,-0.1492 -0.835426,-0.78326 -0.99248,-1.40903 -0.243018,-0.96826 -0.627479,-1.14293 -2.580632,-1.17246 -1.879639,-0.0284 -2.265841,0.11602 -2.133619,0.79796 0.103219,0.53232 0.636516,0.82336 1.478525,0.80687 0.956636,-0.0187 1.2399,0.17533 1.035083,0.70908 -0.155093,0.40417 -0.0744,0.6071 0.179314,0.45097 0.842004,-0.51815 0.828184,5.89097 -0.01705,7.91394 -1.180563,2.82548 -0.469347,2.75728 0.797812,-0.0765 l 1.096821,-2.45286 0.484336,2.75798 c 0.800063,4.55589 -0.674455,8.64169 -3.808281,10.55251 -2.402833,1.4651 -2.863726,1.18076 -0.534335,-0.32964 2.803265,-1.81768 3.33245,-2.89399 3.54694,-7.21417 l 0.18672,-3.76088 -1.071894,1.95452 c -0.664281,1.21126 -1.207411,1.73525 -1.42826,1.37791 -0.231023,-0.3738 -0.7817,-0.003 -1.565647,1.05418 -1.354496,1.82662 -1.58771,2.6462 -1.676903,5.89312 -0.04784,1.74064 0.109973,2.23264 0.690185,2.15205 0.413696,-0.0575 1.179195,-0.17028 1.701104,-0.25072 0.521914,-0.0805 1.03604,0.0986 1.142508,0.39793 0.375992,1.05699 -2.525041,3.2365 -5.548648,4.16863 -2.410224,0.74302 -2.794906,0.98739 -1.808013,1.14852 1.826301,0.29817 5.444292,-0.85648 6.877255,-2.19482 1.318272,-1.23122 2.283879,-2.8696 2.89978,-4.92015 l 0.376533,-1.25362 -1.313934,1.21381 c -0.722659,0.66761 -1.417177,1.11057 -1.543367,0.98438 -0.12619,-0.12619 0.549875,-0.85127 1.502374,-1.61128 l 1.731807,-1.38184 v 1.29498 c 0,1.90377 -1.760706,5.02865 -3.641805,6.46343 -1.826381,1.39304 -5.522533,2.404 -7.414408,2.02795 l -1.229309,-0.24435 1.253624,0.557 c 1.61495,0.71755 5.931255,-0.17289 7.741855,-1.59711 1.543854,-1.2144 1.586949,-0.98934 0.295334,1.54243 -1.239654,2.42992 -2.903074,3.75214 -6.02489,4.78904 -3.867317,1.28451 -8.285908,-0.244 -9.553784,-3.30491 -0.946923,-2.28608 -2.261383,-1.72566 -2.144761,0.91442 0.131034,2.96628 0.895434,4.14772 2.683589,4.14772 0.869173,0 1.486709,0.26508 1.486709,0.63817 0,0.72457 4.426744,1.91296 4.810825,1.2915 0.137592,-0.22263 0.67269,-0.14091 1.189103,0.18159 0.696935,0.43524 1.114091,0.44101 1.61852,0.0224 0.684303,-0.56793 2.471822,-0.49374 6.171424,0.25611 2.814573,0.57047 7.180215,-0.20369 9.402747,-1.66739 z m -23.944794,-1.72526 c -0.170453,-0.2758 -0.07094,-0.50145 0.221129,-0.50145 0.292075,0 0.531046,0.22565 0.531046,0.50145 0,0.2758 -0.09951,0.50145 -0.22113,0.50145 -0.121621,0 -0.360592,-0.22565 -0.531045,-0.50145 z m 11.282622,-0.21544 c 0,-0.13789 0.451305,-0.49225 1.0029,-0.78746 0.551595,-0.2952 1.0029,-0.42391 1.0029,-0.28601 0,0.1379 -0.451305,0.49226 -1.0029,0.78746 -0.551595,0.29521 -1.0029,0.42391 -1.0029,0.28601 z m 3.0087,-3.29471 c 0,-0.27579 0.238971,-0.50145 0.531045,-0.50145 0.292075,0 0.391582,0.22566 0.221129,0.50145 -0.170452,0.2758 -0.409423,0.50145 -0.531045,0.50145 -0.121622,0 -0.221129,-0.22565 -0.221129,-0.50145 z m -17.009707,-0.79396 c 0.02407,-0.58416 0.142883,-0.70298 0.302956,-0.30296 0.144854,0.36198 0.127042,0.79448 -0.03956,0.96111 -0.166631,0.16663 -0.285144,-0.12954 -0.263371,-0.65815 z m 20.09758,-5.72489 c 0,-0.68949 0.113819,-0.97156 0.252926,-0.62681 0.139107,0.34475 0.139107,0.90888 0,1.25363 -0.139107,0.34474 -0.252926,0.0627 -0.252926,-0.62682 z m -5.520086,-4.6409 c 1.791676,-1.51807 3.01919,-3.57884 2.671494,-4.48492 -0.156708,-0.40837 0.06899,-1.03622 0.501551,-1.39521 0.651819,-0.54096 0.748755,-0.53325 0.566152,0.045 -0.121176,0.38375 -0.355253,1.31414 -0.520174,2.06753 -0.332988,1.52117 -3.074585,4.89973 -3.972817,4.89584 -0.31618,-0.002 0.02302,-0.50909 0.753794,-1.12826 z m 0.39942,-2.56722 c 0.950443,-0.99989 1.80184,-1.81797 1.891995,-1.81797 0.508741,0 -1.675785,2.63555 -2.56283,3.09196 -0.709692,0.36515 -0.489164,-0.0536 0.670835,-1.27399 z m 0.02512,-2.06672 c 0.64672,-0.68841 1.286414,-1.1411 1.421535,-1.00598 0.332902,0.3329 -1.44573,2.25763 -2.086242,2.25763 -0.281128,0 0.018,-0.56325 0.664722,-1.25165 z m 8.213889,20.26285 c 1.069152,-0.29686 2.874371,-1.42503 4.011599,-2.50703 l 2.067689,-1.96728 -1.755075,0.69098 c -1.517603,0.59748 -3.749075,1.15817 -8.384814,2.1068 -0.612581,0.12535 -1.353889,0.67655 -1.647353,1.22489 -0.494008,0.92306 -0.374252,0.99678 1.615241,0.99418 1.181842,-10e-4 3.023562,-0.24568 4.092713,-0.54254 z m -10.47025,-3.10925 c 1.969554,-0.9877 2.758024,-1.71743 3.804961,-3.52149 0.505311,-0.87075 0.458727,-0.87264 -1.136732,-0.0461 -1.818598,0.94212 -5.317164,1.18922 -7.681033,0.5425 -1.144299,-0.31307 -1.366732,-0.27147 -0.929368,0.17382 0.31624,0.32197 1.782981,0.75172 3.259425,0.95501 2.623686,0.36125 2.652494,0.38285 1.27281,0.95444 -2.155192,0.89287 -3.975079,0.70743 -6.563417,-0.6688 -2.884671,-1.5338 -3.523343,-1.59086 -2.806124,-0.25073 1.099705,2.05482 4.949636,3.65406 7.521748,3.1245 0.689494,-0.14196 2.155473,-0.71037 3.25773,-1.26314 z m -4.390746,-1.57518 c -1.036853,-0.36999 -2.231091,-0.95979 -2.653863,-1.31066 -0.516624,-0.42876 -0.934452,-0.47216 -1.274244,-0.13237 -0.673157,0.67315 2.300306,2.14047 4.308948,2.12633 1.487211,-0.0105 1.482873,-0.0183 -0.380841,-0.6833 z m 16.463272,-3.61331 c 2.73747,-0.90822 4.462989,-2.249 5.527557,-4.29508 1.076393,-2.06878 0.865197,-2.15029 -1.100211,-0.42464 -0.992605,0.87152 -3.023477,2.12357 -4.513049,2.78232 -1.602187,0.70856 -2.708306,1.51621 -2.708306,1.97751 0,0.94997 -0.198774,0.95282 2.794009,-0.0401 z m -11.318642,-1.6096 c 0.965291,-0.45647 1.642249,-0.98947 1.50435,-1.18444 -0.137899,-0.19498 0.20058,-0.7039 0.752175,-1.13094 0.682543,-0.52841 0.205288,-0.44516 -1.494075,0.26065 -3.688244,1.53187 -3.694738,2.00296 -0.01028,0.74559 0.673437,-0.22981 0.591074,-0.0896 -0.250725,0.42679 -0.689493,0.42298 -1.733713,0.77704 -2.320489,0.78681 -0.586772,0.01 -1.374785,0.3888 -1.751138,0.84228 -0.612201,0.73765 -0.552638,0.78546 0.565409,0.45386 0.687333,-0.20386 2.039477,-0.74413 3.004768,-1.2006 z m 13.840754,-4.51876 c 1.907175,-1.33935 3.79737,-2.86251 4.20043,-3.38479 0.607271,-0.78688 0.520641,-0.76905 -0.505611,0.10407 -2.156421,1.83467 -2.803928,1.9199 -1.138773,0.14991 3.138595,-3.33621 4.693857,-8.83619 3.907132,-13.81708 -0.329563,-2.0865 -0.434401,-2.25278 -0.741695,-1.17636 -0.811737,2.84343 -3.299585,6.8923 -5.928622,9.64857 -1.538734,1.6132 -2.869913,3.40627 -2.958173,3.9846 -0.140932,0.92349 0.09994,0.8382 1.978431,-0.70051 1.176396,-0.96362 2.815856,-2.67432 3.643249,-3.80155 1.767816,-2.40848 2.399227,-2.64467 1.956371,-0.73183 -0.863857,3.73128 -3.129899,6.83548 -6.731999,9.22201 -0.682975,0.4525 -1.107668,0.96269 -0.943759,1.13376 0.163904,0.17107 1.149383,-0.26672 2.189952,-0.97287 1.040568,-0.70615 1.990751,-1.1851 2.111515,-1.06433 0.120764,0.12076 -1.083307,1.03453 -2.675717,2.03058 -1.592404,0.99606 -2.655668,1.81101 -2.362801,1.81101 0.292861,0 2.092896,-1.09583 4.00007,-2.43519 z m -0.930811,-2.15703 c 1.774155,-1.36357 5.077045,-6.19074 4.565165,-6.67198 -0.374182,-0.35179 -6.820947,6.07286 -7.15736,7.1328 -0.484235,1.52569 0.155485,1.41196 2.592195,-0.46082 z m -9.473868,-8.89743 c 0.704377,-2.35099 0.735036,-4.57916 0.08648,-6.28497 -0.514713,-1.3538 -1.51676,-1.75956 -1.51676,-0.61419 0,0.36965 -0.701233,2.07537 -1.558296,3.79051 -0.857058,1.71513 -1.402741,3.27397 -1.212626,3.46409 0.429627,0.42963 1.700482,-1.20059 2.367962,-3.03754 0.626251,-1.7235 1.40586,-1.78999 1.40586,-0.1199 0,1.32207 -1.8054,5.57816 -2.565478,6.04792 -0.668207,0.41297 -0.54131,-0.0584 0.508189,-1.88776 0.523273,-0.91211 1.098181,-2.22251 1.277569,-2.912 0.299446,-1.15096 0.277518,-1.17149 -0.267719,-0.25073 -0.326634,0.5516 -1.041842,1.498 -1.58936,2.10312 -0.799632,0.88376 -0.924393,1.47571 -0.634149,3.0087 l 0.36134,1.90848 1.380732,-1.64741 c 0.759401,-0.90607 1.639716,-2.51181 1.956251,-3.56832 z m 9.349729,1.95441 c -0.118929,-0.19243 0.350473,-1.11692 1.043116,-2.05442 0.692648,-0.93751 1.73099,-3.25545 2.307427,-5.15098 1.157692,-3.80687 1.06878,-8.1478 -0.252926,-12.349249 l -0.709868,-2.256525 -0.02091,2.0058 c -0.02452,2.353054 -0.90434,6.445124 -1.71176,7.961374 -0.311831,0.5856 -1.432732,2.21349 -2.490882,3.61754 -2.256755,2.99445 -2.731097,5.14989 -0.716913,3.25765 0.663855,-0.62365 1.91409,-2.46054 2.778303,-4.08197 0.864214,-1.62144 1.787805,-3.08187 2.05242,-3.24541 1.650091,-1.01981 -0.885064,7.69944 -3.006002,10.33867 -1.605933,1.99836 -1.914485,2.96232 -0.948206,2.96232 0.32881,0 0.16963,0.48771 -0.36825,1.12826 -0.539405,0.64237 -0.256622,0.50134 0.656628,-0.32746 0.882221,-0.80065 1.506737,-1.61317 1.387808,-1.8056 z m -1.066087,-2.30431 c 1.296092,-1.62437 3.310186,-6.8872 3.319949,-8.67501 0.002,-0.38583 -0.560486,0.35983 -1.250205,1.65702 -0.689719,1.29718 -1.853604,3.10992 -2.586408,4.02832 -1.138953,1.42741 -1.963508,4.79461 -1.174055,4.79445 0.137899,-3e-5 0.898724,-0.81218 1.690719,-1.80478 z m -1.882152,-5.99403 c -0.130397,-0.3398 0.350077,-2.05245 1.067717,-3.8059 1.680057,-4.10498 1.854993,-10.626689 0.40834,-15.222882 l -0.946993,-3.0087 -0.657656,3.838121 c -0.761773,4.445734 -2.964868,11.347401 -3.989666,12.498481 -0.888519,0.99801 -0.885089,1.28839 0.01931,1.63544 0.90084,0.34568 2.983973,-3.23451 4.084309,-7.019533 0.428284,-1.473222 0.905177,-2.678586 1.05978,-2.678586 0.154597,0 0.174193,1.635981 0.04353,3.635512 -0.16445,2.517037 -0.647557,4.498897 -1.57029,6.441867 -1.586477,3.3406 -1.794584,4.96844 -0.498491,3.89926 0.764079,-0.63029 0.77827,-0.5827 0.168652,0.56541 -0.615554,1.15929 -0.601148,1.20041 0.191449,0.54647 0.471403,-0.38893 0.75041,-0.98517 0.620018,-1.32496 z m -0.310363,-5.60381 c 0.551786,-1.47478 0.985429,-3.2935 0.963657,-4.0416 l -0.03956,-1.360174 -0.541079,1.491264 c -0.297591,0.8202 -1.182389,2.57894 -1.96621,3.90831 -1.454546,2.46692 -1.705757,3.42948 -1.062813,4.07242 0.517827,0.51783 1.48749,-0.97375 2.64603,-4.07022 z m -43.088385,49.46293 c -1.221311,-0.23959 -2.451117,-0.66617 -2.732902,-0.94795 -0.681179,-0.68118 -0.03841,-0.64027 2.671976,0.17006 1.835608,0.5488 2.829928,0.55316 5.603918,0.0246 1.854798,-0.35341 4.032645,-0.98402 4.839664,-1.40134 3.013879,-1.55856 6.129231,-6.18489 6.129231,-9.102 v -1.30387 l -1.43559,1.02223 c -0.789573,0.56223 -1.607388,0.85966 -1.81737,0.66096 -0.209977,-0.1987 -0.237818,0.1083 -0.06186,0.68224 0.622364,2.03007 -4.033633,6.91662 -7.591711,7.96762 -1.609293,0.47536 -1.410658,-0.4984 0.370251,-1.81509 1.862555,-1.37704 4.190461,-4.67116 3.905397,-5.52635 -0.21423,-0.6427 -0.716687,-0.20591 -4.150285,3.60786 -1.736401,1.92866 -5.601451,4.50428 -6.742385,4.49304 -0.522907,-0.005 -0.589249,-0.12891 -0.201623,-0.37609 0.317759,-0.20262 -0.503075,-0.38435 -1.824074,-0.40384 -3.537243,-0.0522 -7.762525,-2.3352 -10.409779,-5.62466 -2.895788,-3.59829 -2.78916,-4.28918 0.417081,-2.70242 1.986278,0.98299 3.45681,1.29061 6.644211,1.38988 l 4.09337,0.12749 -3.603012,-0.36811 c -2.199099,-0.22468 -4.514704,-0.83702 -5.942783,-1.57151 -4.200836,-2.16056 -7.754226,-7.43214 -7.754226,-11.50366 v -2.17031 l 1.710471,2.24013 c 1.209422,1.58393 2.568161,2.617 4.638411,3.52663 3.417602,1.50163 6.688815,2.19633 6.688815,1.42047 0,-0.28829 -0.474722,-0.52417 -1.054935,-0.52417 -1.710872,0 -7.830651,-3.4811 -9.126358,-5.19133 -2.033138,-2.68358 -2.393049,-3.72211 -2.917355,-8.41825 -0.65706,-5.88515 -0.271269,-6.96158 1.288471,-3.59505 1.567607,3.38353 4.428108,6.47397 7.374001,7.96676 2.777836,1.40764 3.296722,1.50638 2.430377,0.4625 -0.343338,-0.4137 -0.916911,-0.75217 -1.274616,-0.75217 -1.21231,0 -6.130255,-5.00082 -7.240274,-7.36228 -1.43526,-3.05339 -1.898219,-8.79561 -0.971399,-12.04863 l 0.684399,-2.40217 0.365713,2.83854 c 0.604212,4.68961 3.369728,9.26302 7.057189,11.67065 2.026485,1.32315 1.703195,0.0956 -0.552878,-2.09926 -6.298,-6.12721 -7.672935,-12.57434 -4.16405,-19.525405 0.858232,-1.700151 1.734711,-3.197657 1.947732,-3.32779 0.213021,-0.130132 0.395503,1.715062 0.405517,4.100433 0.0156,3.718442 0.212164,4.709892 1.378055,6.951142 1.808373,3.47633 4.3976,6.42719 4.910839,5.59675 0.239322,-0.38723 -0.350664,-1.45898 -1.558557,-2.83122 -1.06901,-1.21446 -2.390592,-3.14736 -2.936846,-4.29532 -2.102725,-4.418934 -1.473315,-10.64481 1.471083,-14.551371 0.952444,-1.263683 1.844544,-2.302754 1.982442,-2.309047 0.137899,-0.0063 0.280396,1.284231 0.316661,2.867832 0.09211,4.022294 1.282689,7.619963 3.777367,11.414376 1.497846,2.27822 2.448901,3.24897 3.183059,3.24897 0.57584,0 1.317765,0.27078 1.648722,0.60174 0.872683,0.87269 0.737627,2.78253 -0.235276,3.32699 -0.739548,0.41387 -0.758448,0.6581 -0.162294,2.09734 0.371098,0.8959 1.224561,2.28236 1.896584,3.08102 0.958296,1.13887 1.370508,1.32873 1.91098,0.88018 0.949827,-0.78829 2.206244,-0.20317 2.206244,1.02744 0,0.55946 0.795786,1.89804 1.768414,2.97462 l 1.768408,1.95742 1.190522,-1.06042 1.190522,-1.06043 -1.545574,-2.27454 c -0.850062,-1.25099 -2.294409,-3.16135 -3.209655,-4.24524 -1.012457,-1.199 -1.664087,-2.51634 -1.664087,-3.36413 0,-0.86021 -1.312168,-3.46414 -3.428994,-6.80467 -8.957936,-14.136382 -9.761856,-16.183725 -7.626687,-19.422791 1.052624,-1.596834 4.2868,-3.783207 5.602414,-3.787355 0.495458,-0.0016 0.927913,-0.56785 1.10329,-1.444735 0.158639,-0.793191 1.059684,-2.259932 2.00233,-3.259424 1.487907,-1.577643 2.018451,-1.817258 4.023694,-1.817258 2.032546,0 2.398555,-0.171635 3.049236,-1.4299135 0.406686,-0.786451 1.548598,-2.140366 2.537572,-3.008699 1.434042,-1.259106 2.244911,-1.578787 4.004574,-1.578787 3.256506,0 4.653154,0.732345 6.173109,3.236924 1.165715,1.9208695 1.603476,2.2496285 3.013523,2.2631755 2.087772,0.02006 5.15339,1.584789 6.089607,3.10821 0.395454,0.64348 0.850053,1.956455 1.010221,2.917721 0.254607,1.528067 0.510908,1.784364 2.038971,2.038973 2.242388,0.373633 3.68178,1.298594 4.698044,3.018994 1.824069,3.0879 0.506173,6.67428 -6.251862,17.013146 -2.613998,3.999059 -5.03748,8.232149 -5.385511,9.406849 -0.401271,1.3544 -1.692223,3.28078 -3.528448,5.26523 -2.785519,3.01036 -2.860997,3.16277 -1.984272,4.00693 0.501259,0.48265 0.911385,1.44961 0.911385,2.1488 0,1.09819 0.131074,1.20113 0.962694,0.75605 0.529481,-0.28337 1.513601,-1.67434 2.186938,-3.09105 1.42153,-2.99093 2.008136,-2.62227 2.008136,1.26205 0,1.66065 -0.391642,3.33719 -1.107261,4.73993 -1.100387,2.15693 -1.100833,2.16837 -0.07164,1.84172 2.381566,-0.75588 -0.09901,4.08184 -3.118537,6.08189 -1.323377,0.87657 -2.110538,1.74436 -1.98864,2.19234 0.129239,0.47497 0.05286,0.5454 -0.212505,0.19595 -0.337245,-0.44411 -4.335681,-1.711 -5.400088,-1.711 -0.15367,0 -0.279398,0.43799 -0.279398,0.97331 0,0.53532 -0.225653,1.11277 -0.50145,1.28322 -0.275797,0.17045 -0.50145,2.2938 -0.50145,4.71854 0,5.09384 -0.567566,7.1274 -2.67176,9.57278 -2.254719,2.6203 -4.44066,3.92687 -7.95658,4.75578 -3.509919,0.82748 -3.29758,0.82034 -6.384997,0.21466 z m 0.62929,-3.64818 c 0.899761,-0.37594 2.584909,-1.76163 3.744767,-3.0793 1.159859,-1.31767 2.108833,-2.15165 2.108833,-1.8533 0,0.29835 -0.215147,0.67542 -0.478103,0.83793 -0.262955,0.16252 -0.979983,1.02203 -1.593392,1.91004 l -1.115294,1.61454 1.373962,-1.24507 c 0.75568,-0.68479 1.82959,-1.98229 2.38647,-2.88333 0.556876,-0.90105 1.313774,-1.63827 1.681994,-1.63827 0.368219,0 0.788018,-0.28206 0.932897,-0.62681 0.190009,-0.45215 0.41494,-0.38809 0.807224,0.2299 0.328901,0.51814 0.868341,0.73218 1.364987,0.54159 0.549489,-0.21086 0.701217,-0.12101 0.458596,0.27155 -0.199422,0.32267 -0.681947,0.58667 -1.072286,0.58667 -0.390333,0 -1.042449,0.64346 -1.44914,1.42992 -0.406691,0.78644 -1.548597,2.14036 -2.537572,3.00869 -1.968411,1.72829 -1.931083,1.95629 0.142096,0.86794 2.564024,-1.34601 5.330066,-4.67724 5.348615,-6.4415 0.01289,-1.22741 0.219886,-1.58965 0.849135,-1.48612 1.306212,0.21491 2.928808,-2.25977 2.928808,-4.46685 0,-1.42113 -0.208553,-1.93818 -0.78177,-1.93818 -0.491952,0 -0.642167,0.23237 -0.405191,0.62682 0.253387,0.42176 0.09757,0.40046 -0.476318,-0.0651 -0.74215,-0.60207 -1.09999,-0.52068 -2.755823,0.62681 -1.365282,0.94615 -2.532863,1.31656 -4.132498,1.31106 -3.405156,-0.0117 -4.026869,-0.79114 -0.924178,-1.15861 4.12239,-0.48824 3.9805,-1.22385 -0.184513,-0.95656 -2.789415,0.17902 -4.081647,0.0379 -5.267014,-0.57505 -2.348842,-1.21463 -2.498394,-0.99763 -0.63641,0.92346 2.191938,2.2615 4.410297,3.27878 7.149953,3.27878 1.816728,0 2.593384,-0.32316 4.311902,-1.79415 1.152834,-0.98678 2.096061,-1.55232 2.096061,-1.25677 0,0.29556 -0.936468,1.21576 -2.081037,2.04488 -2.881015,2.08699 -6.300863,2.10952 -9.52826,0.0628 -2.180921,-1.38309 -4.437099,-3.91566 -4.437099,-4.98066 0,-0.27714 0.943713,-0.0479 2.097138,0.50933 2.955426,1.42791 7.531101,1.78095 9.169433,0.70747 0.698319,-0.45756 1.269676,-0.626 1.269676,-0.37432 0,0.71751 4.766777,0.39535 5.707973,-0.38577 1.372048,-1.1387 0.643005,-1.80318 -1.988885,-1.81277 -4.194162,-0.0153 -8.238566,-3.59113 -8.213584,-7.26204 0.01013,-1.49166 0.0926,-1.61632 0.549354,-0.83056 0.608128,1.04617 3.884105,2.57724 4.375431,2.04491 0.177037,-0.19182 0.09623,-0.43159 -0.179564,-0.53282 -1.731707,-0.63565 -3.831519,-2.3723 -4.55126,-3.76413 -1.186876,-2.29516 -1.792838,-4.54529 -1.110481,-4.12358 0.356867,0.22056 0.455227,-0.11861 0.288033,-0.99322 -0.139638,-0.73048 -0.08367,-1.32815 0.12437,-1.32815 0.208046,0 0.508149,-0.33848 0.666903,-0.75218 0.581873,-1.51634 -1.077977,-0.70869 -2.367375,1.15191 -1.270453,1.83327 -2.159399,6.17618 -1.486914,7.26428 0.160023,0.25892 0.357293,1.3603 0.438377,2.4475 0.08109,1.0872 0.388774,2.26754 0.683752,2.62296 0.294978,0.35543 0.403477,0.77907 0.241113,0.94143 -0.16236,0.16236 0.178074,0.59077 0.756527,0.95202 0.578453,0.36125 1.051731,0.9147 1.051731,1.22989 0,0.31518 0.394892,0.72204 0.877537,0.90412 1.634286,0.61656 3.134062,1.52629 3.134062,1.90107 0,0.78437 -2.834165,1.032 -5.474002,0.47829 -4.756654,-0.99772 -8.566595,-4.97183 -8.566595,-8.93572 0,-2.42374 0.55494,-2.81223 1.39221,-0.97461 0.616488,1.35303 4.863603,4.47944 5.704429,4.19916 0.298729,-0.0996 -0.367768,-0.78386 -1.481102,-1.52063 -3.286954,-2.1752 -4.772835,-4.52238 -5.019223,-7.92865 -0.117018,-1.61776 -0.06911,-3.51375 0.106468,-4.21329 0.347139,-1.38311 1.303018,-1.74972 1.303018,-0.49975 0,1.2055 1.776316,4.38773 3.067845,5.49597 1.051054,0.9019 1.03227,0.81832 -0.186549,-0.8299 -0.745421,-1.00804 -1.623379,-2.83506 -1.951016,-4.06006 -0.511003,-1.91059 -0.459068,-2.64815 0.365271,-5.1875 0.60703,-1.86992 1.238014,-2.96024 1.713148,-2.96024 0.466915,0 0.752175,-0.47282 0.752175,-1.24675 0,-1.45228 -1.628639,-2.04175 -2.474104,-0.89548 -0.29403,0.39863 -1.042313,0.99524 -1.662858,1.32579 -0.651749,0.34718 -1.128262,1.07207 -1.128262,1.71636 0,0.61345 -0.473499,1.41107 -1.052218,1.77249 -0.702005,0.4384 -0.964739,0.99164 -0.789392,1.66218 0.16102,0.61573 -0.129204,1.3971 -0.749217,2.01711 -0.581912,0.58192 -0.907784,1.41075 -0.766726,1.95015 0.134925,0.51596 -0.06536,1.19594 -0.445077,1.51108 -0.672074,0.55777 -0.764586,1.10679 -0.712395,4.22767 0.01384,0.82739 0.03259,2.28627 0.04167,3.24194 0.0091,0.95567 0.245194,2.0131 0.524657,2.34983 0.343378,0.41375 0.341989,0.92266 -0.004,1.56967 -0.377391,0.70516 -0.312845,1.24233 0.244978,2.03874 0.416555,0.59472 0.612025,1.31648 0.434376,1.60393 -0.177649,0.28744 0.05296,1.09641 0.512467,1.7977 0.459508,0.70129 0.704116,1.40643 0.543581,1.56696 -0.421684,0.42169 1.24151,2.12835 2.074138,2.12835 0.38723,0 0.557472,0.23717 0.378324,0.52704 -0.360934,0.58401 2.694686,3.97222 3.589925,3.98067 0.310979,0.003 0.842586,0.33932 1.181356,0.74751 0.605706,0.72983 1.044675,0.80359 4.495082,0.75533 1.816953,-0.0254 1.767666,0.58465 -0.06989,0.86508 -0.590272,0.0901 -2.446088,0.82472 -4.12404,1.63252 -2.787018,1.34173 -3.310983,1.43331 -6.059521,1.05909 -2.128875,-0.28985 -2.49547,-0.42969 -1.253624,-0.47819 2.457069,-0.096 5.24489,-0.93526 6.496655,-1.95588 1.025986,-0.83653 1.029963,-0.88419 0.120618,-1.44584 -0.639795,-0.39516 -1.166402,-0.42011 -1.647644,-0.078 -0.53967,0.38358 -0.469612,0.4318 0.295595,0.20347 0.983363,-0.29343 0.98411,-0.28471 0.03826,0.44777 -2.078951,1.60993 -9.185013,1.64859 -12.354964,0.0672 -0.899776,-0.44886 -1.732609,-0.71947 -1.850741,-0.60134 -0.384722,0.38473 4.045096,4.85969 5.613556,5.67077 3.360747,1.73791 6.7751,2.08296 9.469877,0.95701 z m 12.873898,-10.31876 c 0,-0.25952 0.22307,-0.60973 0.495709,-0.77822 0.284251,-0.17568 0.368314,0.0256 0.197074,0.47185 -0.333359,0.86872 -0.692783,1.02767 -0.692783,0.30637 z m -1.253624,-6.30097 c 1.146199,-0.39954 4.173206,-0.50897 3.946831,-0.14268 -0.13483,0.21816 -1.190853,0.37884 -2.346715,0.35706 -1.155862,-0.0218 -1.875914,-0.11824 -1.600116,-0.21438 z m -17.069917,-1.78519 c -0.18179,-0.29414 -0.222985,-0.64235 -0.09154,-0.7738 0.13144,-0.13144 0.372607,0.10922 0.535924,0.53481 0.339071,0.88361 0.0501,1.03904 -0.444384,0.23899 z m 12.097264,-1.29203 c -0.460682,-1.20052 -0.101599,-1.29271 0.608198,-0.15615 0.336644,0.53905 0.408657,0.98009 0.160028,0.98009 -0.248624,0 -0.594329,-0.37077 -0.768226,-0.82394 z m -1.513958,-1.53632 c -0.272127,-0.71466 -0.21453,-0.77226 0.280712,-0.28071 0.342701,0.34016 0.496771,0.74478 0.34238,0.89917 -0.154392,0.15439 -0.434782,-0.12392 -0.623092,-0.61846 z m -11.776721,-8.96414 c 0.02407,-0.58417 0.142883,-0.70299 0.302956,-0.30297 0.144853,0.36199 0.127042,0.79449 -0.03957,0.96112 -0.166627,0.16663 -0.285144,-0.12955 -0.263371,-0.65815 z m 1.246273,-4.36753 c 0.18831,-0.49454 0.4687,-0.77285 0.623092,-0.61846 0.154391,0.1544 3.21e-4,0.55902 -0.34238,0.89917 -0.495242,0.49155 -0.552839,0.43395 -0.280712,-0.28071 z m 3.592829,31.43537 c -0.166632,-0.16663 -0.599132,-0.18444 -0.961114,-0.0396 -0.400022,0.16007 -0.281203,0.27889 0.302961,0.30295 0.528608,0.0218 0.82478,-0.0967 0.658153,-0.26337 z m 3.201592,-1.29373 c 2.034422,-1.1434 2.790338,-2.39173 0.820452,-1.35489 -1.478675,0.7783 -3.624379,2.45013 -3.144597,2.45013 0.206487,0 1.252356,-0.49285 2.324145,-1.09524 z m -4.173543,-2.23488 c 0.631822,-0.16925 1.054921,-0.56106 0.940219,-0.87069 -0.114702,-0.30963 -0.51882,-0.47287 -0.898042,-0.36275 -2.103617,0.61084 -3.638886,0.56748 -6.192565,-0.1749 -2.176283,-0.63266 -3.502201,-1.46523 -5.65643,-3.55176 -1.547595,-1.49896 -2.666575,-2.87262 -2.486625,-3.05257 0.179951,-0.17996 1.4059,0.13078 2.724332,0.69051 1.318432,0.55973 3.412582,1.17109 4.653671,1.35857 1.241088,0.18748 2.679673,0.46139 3.196858,0.60869 0.56191,0.16004 0.813934,0.0633 0.626251,-0.24038 -0.172745,-0.2795 -1.498503,-0.66603 -2.946134,-0.85895 -3.787781,-0.50478 -7.125387,-2.08027 -9.146706,-4.31764 -1.580931,-1.7499 -1.75877,-1.83278 -1.754368,-0.81759 0.0073,1.68833 2.188824,5.91617 4.04294,7.83537 3.138449,3.24863 8.719145,4.87312 12.896599,3.75409 z m -0.06267,-1.85116 c 0.138105,-0.1381 -0.219008,-0.7212 -0.793589,-1.29578 -0.574577,-0.57458 -1.044686,-1.24921 -1.044686,-1.49919 0,-0.24998 -0.410918,-0.34705 -0.913151,-0.21571 -1.107397,0.28959 -8.997485,-1.616 -9.944187,-2.4017 -0.499078,-0.4142 -0.67601,-0.41303 -0.67601,0.005 0,0.87665 5.228578,4.71218 7.36494,5.40271 1.778222,0.57477 5.433967,0.57795 6.006683,0.005 z m 13.776484,-4.83103 c 0.651097,-0.54242 0.915066,-0.99373 0.586596,-1.0029 -0.32847,-0.009 -0.734474,0.20539 -0.902224,0.47682 -0.167755,0.27143 -1.02727,0.70239 -1.910033,0.95768 -1.522156,0.4402 -1.536693,0.4665 -0.281589,0.50939 0.72789,0.0249 1.856152,-0.39858 2.50725,-0.94099 z M 25.09435,73.973625 c -0.153635,-0.40035 -1.030139,-0.97571 -1.947797,-1.27856 -2.424084,-0.80002 -6.124589,-4.26655 -7.543406,-7.06646 -1.47331,-2.90743 -1.617111,-3.8538 -0.243193,-1.60048 0.969122,1.58944 4.422291,3.68352 7.161862,4.34311 2.317602,0.55801 1.480406,-0.35759 -1.787894,-1.95533 -2.427123,-1.18651 -3.618994,-2.20106 -5.483129,-4.66733 l -2.381887,-3.15128 v 2.31413 c 0,5.85189 2.404523,9.6903 7.660665,12.22897 3.485097,1.68327 4.996858,1.95922 4.564779,0.83323 z m 14.736479,-0.77643 c -0.344476,-0.55159 -1.149493,-1.0029 -1.788917,-1.0029 -0.639429,0 -1.041777,-0.19549 -0.894105,-0.43443 0.354474,-0.57356 -0.989,-1.71785 -3.495262,-2.97706 -1.117782,-0.5616 -2.753762,-1.759 -3.635511,-2.66087 -1.454351,-1.48754 -1.603181,-1.54086 -1.603181,-0.57432 0,3.8565 4.010717,7.52395 8.916301,8.15315 1.577275,0.20231 2.926095,0.39742 2.997381,0.43358 0.07129,0.0362 -0.15223,-0.38555 -0.496706,-0.93715 z m -5.169597,-0.94255 c -1.953087,-0.88717 -4.743029,-3.62004 -4.743029,-4.64602 0,-0.27341 0.661111,-0.0264 1.469138,0.549 0.808026,0.57537 2.444006,1.62137 3.635511,2.32446 1.308353,0.77204 1.669859,1.1396 0.91275,0.92804 -0.689494,-0.19267 -1.874169,-0.78737 -2.632612,-1.32156 -0.758443,-0.53419 -1.378988,-0.74864 -1.378988,-0.47656 0,0.74419 3.088641,2.50342 5.309999,3.02447 1.404746,0.3295 1.605412,0.47114 0.7074,0.49934 -0.689493,0.0217 -2.165571,-0.37488 -3.280169,-0.88117 z m -10.579104,-2.08175 c -0.513425,-0.49915 -2.34316,-1.47354 -4.066082,-2.16532 -2.608236,-1.04723 -3.056602,-1.11686 -2.678655,-0.41596 0.701855,1.3016 2.602926,2.88173 4.808338,3.99659 1.755767,0.88756 2.059655,0.91911 2.437849,0.2531 0.291763,-0.51381 0.128948,-1.05552 -0.50145,-1.66841 z m 34.361066,-0.30211 c 2.256856,-1.93178 3.033892,-3.58993 1.991749,-4.25026 -0.374257,-0.23714 -0.906125,-0.43117 -1.181922,-0.43117 -0.275798,0 -0.185251,0.2002 0.201217,0.44489 0.532123,0.33691 0.205699,0.69841 -1.344964,1.4895 -1.126197,0.57454 -2.189085,1.2735 -2.361975,1.55324 -0.436667,0.70655 0.04899,0.6364 1.775549,-0.25644 0.813698,-0.42077 1.479448,-0.54692 1.479448,-0.28032 0,0.73253 -1.021093,1.21676 -2.990296,1.41809 -0.975416,0.0997 -1.999131,0.42428 -2.274928,0.72122 -0.490904,0.52854 0.683165,0.38383 3.087477,-0.38056 0.828375,-0.26336 0.820217,-0.20901 -0.07878,0.52454 -0.551595,0.45009 -1.679857,0.78413 -2.507249,0.7423 -2.396905,-0.12114 -3.138806,0.11526 -1.50435,0.47935 2.258114,0.50302 3.498947,0.11737 5.709022,-1.77438 z m -9.794023,0.83201 c 0.235817,-0.23008 0.186369,-0.83344 -0.110113,-1.3435 -0.295991,-0.50923 -0.545026,-0.7256 -0.553411,-0.48083 -0.01875,0.54753 -3.023947,-3.17929 -3.023947,-3.75009 0,-0.22505 0.66239,-0.029 1.471976,0.43562 1.59479,0.91528 2.896715,0.3612 1.34912,-0.57417 -0.516879,-0.3124 -1.701554,-1.06892 -2.632611,-1.68115 -1.345957,-0.88505 -1.692835,-0.95882 -1.692835,-0.35998 0,1.52887 1.560392,4.41627 3.245454,6.00549 l 1.734329,1.63567 -2.113806,-0.26754 c -1.162592,-0.14715 -2.727271,-0.62041 -3.477064,-1.05168 -1.398323,-0.80431 -2.246836,-2.09084 -1.378977,-2.09084 0.267142,0 0.485714,0.19437 0.485714,0.43192 0,0.23755 0.564131,0.32407 1.253625,0.19226 1.560412,-0.29829 1.652182,-1.12453 0.125362,-1.12871 -0.620544,-0.002 -1.782378,-0.34422 -2.581855,-0.76115 -1.842171,-0.9607 -2.075416,-0.71017 -1.0982,1.17955 1.768945,3.42076 7.028081,5.53039 8.997239,3.60913 z m 7.030623,-3.03803 c 0.987009,-1.17299 1.316702,-2.1202 1.316702,-3.78287 0,-1.21992 -0.225652,-2.21804 -0.50145,-2.21804 -0.275797,0 -0.501449,0.22896 -0.501449,0.50882 0,0.69157 -3.118818,2.55469 -3.829483,2.28766 -0.351451,-0.13206 -0.47194,0.16099 -0.314198,0.7642 0.252505,0.96557 0.278435,0.96508 1.977708,-0.0375 2.109394,-1.24458 2.132039,-1.2452 1.819446,-0.0498 -0.138952,0.53135 -1.369631,2.02365 -2.734843,3.31624 -2.378602,2.25206 -2.466853,2.29022 -2.114388,0.91435 0.729007,-2.84574 0.193775,-7.20246 -0.884844,-7.20246 -0.300052,0 -0.411164,0.35019 -0.246914,0.77822 0.17124,0.44625 0.08718,0.64753 -0.197075,0.47185 -0.307569,-0.19009 -0.495708,0.95317 -0.495708,3.01225 0,2.40608 0.161317,3.21891 0.586666,2.95603 0.389712,-0.24085 0.483343,-0.0933 0.278897,0.43946 -0.824359,2.14824 3.589624,0.51718 5.840933,-2.15835 z m -6.061626,-1.23714 c 0.0035,-1.37899 0.101152,-1.8836 0.21641,-1.12137 0.115264,0.76224 0.11218,1.8905 -0.0069,2.50725 -0.119025,0.61676 -0.213327,-0.007 -0.209566,-1.38588 z m -3.653569,2.50725 c -0.343337,-0.4137 -1.32999,-0.74418 -2.192564,-0.7344 l -1.56831,0.0178 1.253625,0.71663 c 0.689493,0.39415 1.676146,0.72464 2.192559,0.73441 0.778216,0.0147 0.832081,-0.11099 0.31469,-0.73441 z m 7.35974,-1.37899 c 1.848219,-2.05302 1.94041,-2.60047 0.271946,-1.61489 -0.848554,0.50126 -1.650603,1.32352 -1.782333,1.82727 -0.323782,1.23813 0.281147,1.15308 1.510387,-0.21238 z m -4.852491,0.14301 c 0,-0.4734 -1.585499,-1.52199 -2.301278,-1.52199 -0.198775,0 0.04704,0.4513 0.546204,1.00289 0.972382,1.07448 1.755074,1.30597 1.755074,0.5191 z m -15.065675,-3.19109 c -1.693326,-1.64569 -3.48282,-4.2477 -3.486095,-5.06893 -0.001,-0.25845 0.675639,0.17919 1.503713,0.97254 0.8577,0.82173 1.286961,1.57756 0.997534,1.75644 -0.294205,0.18183 0.02186,0.81184 0.750937,1.49676 0.774183,0.7273 1.25899,0.92901 1.25899,0.52382 0,-0.36242 -0.394892,-0.95871 -0.877537,-1.32509 -0.671853,-0.51001 -0.708629,-0.66989 -0.156909,-0.6821 0.48929,-0.0108 0.299521,-0.45863 -0.591144,-1.39493 -0.721476,-0.75844 -1.909346,-2.39442 -2.639708,-3.63551 l -1.327929,-2.25653 0.230386,3.36941 c 0.260152,3.80475 1.228547,5.72218 3.876724,7.67594 2.271483,1.67585 2.602109,0.64903 0.461038,-1.43182 z m 25.383759,1.28958 c -0.164045,-0.16404 0.168151,-0.79473 0.738209,-1.40152 1.295516,-1.37902 2.420368,-5.57833 1.940702,-7.24506 -0.230005,-0.79923 -0.378896,-0.93607 -0.410763,-0.37753 -0.02748,0.48184 -0.826259,1.73533 -1.775042,2.78552 -1.660802,1.83831 -2.051843,3.18421 -1.021915,3.51729 0.26975,0.0872 0.826279,-0.36407 1.236741,-1.0029 0.698509,-1.08715 0.689709,-1.1168 -0.137483,-0.46324 -1.574708,1.24418 -1.397641,0.27539 0.225954,-1.23627 1.121763,-1.04443 1.481849,-1.20285 1.248394,-0.54925 -0.180447,0.5052 -0.331689,1.18216 -0.336092,1.50435 -0.0045,0.32219 -0.698835,1.36976 -1.543177,2.32793 -0.88222,1.00116 -1.294066,1.8225 -0.968314,1.93109 0.348572,0.11619 0.218702,0.46974 -0.337261,0.91814 -0.8251,0.66547 -0.801758,0.6794 0.267098,0.15945 0.644162,-0.31336 1.036993,-0.70396 0.872949,-0.868 z m -35.22519,-1.70312 c 0.155294,-0.59385 -0.04984,-1.72211 -0.455843,-2.50725 -0.406009,-0.78513 -0.617661,-1.42751 -0.47033,-1.42751 0.147326,0 -1.16896,-1.41033 -2.925077,-3.13407 -2.525924,-2.47933 -3.443427,-3.81497 -4.391954,-6.39348 l -1.199007,-3.25943 -0.153048,2.387 c -0.202936,3.16517 1.121237,8.17253 2.806119,10.61129 1.403804,2.03193 4.801152,4.80319 5.88833,4.80319 0.340149,0 0.745511,-0.48588 0.90081,-1.07974 z m -3.881819,-3.27041 c -2.036383,-2.06557 -5.207672,-7.45235 -4.691314,-7.96871 0.104793,-0.10479 1.041942,0.94991 2.082556,2.34377 1.040619,1.39386 2.673475,2.99536 3.628572,3.55888 0.955096,0.56352 1.610657,1.15046 1.456802,1.30432 -0.15385,0.15385 -1.31595,-0.45066 -2.582437,-1.34336 l -2.302708,-1.6231 1.076413,1.51168 c 0.592026,0.83142 1.908728,2.19775 2.926005,3.03627 1.017281,0.83853 1.594841,1.5246 1.283471,1.5246 -0.311371,0 -1.606179,-1.05496 -2.87736,-2.34435 z m -2.740193,-4.80967 c -0.495242,-0.49156 -0.552838,-0.43396 -0.280711,0.28071 0.188309,0.49454 0.4687,0.77284 0.623091,0.61845 0.154392,-0.15439 3.21e-4,-0.55901 -0.34238,-0.89916 z m 25.937897,6.27648 c -0.07486,-1.3195 -0.603093,-2.44181 -1.770785,-3.76232 -0.915251,-1.03504 -1.664091,-2.10689 -1.664091,-2.38189 0,-1.08125 -0.900745,-0.42278 -1.141019,0.83412 -0.340149,1.77938 0.488542,4.12264 2.055242,5.81154 1.819662,1.96159 2.651015,1.79621 2.520653,-0.50145 z m -1.314265,0.0405 c -0.579295,-0.23308 -2.120611,-2.71546 -2.120611,-3.41537 0,-0.15985 0.674184,0.20781 1.498182,0.81702 0.824002,0.6092 1.393584,1.21225 1.265744,1.34009 -0.127844,0.12784 -0.632784,-0.075 -1.122094,-0.45066 -0.489315,-0.3757 -0.342606,-0.0694 0.326013,0.68072 1.244683,1.39636 1.255931,1.47205 0.152766,1.0282 z m 6.005359,0.93208 c -0.63297,-0.48707 -0.971449,-1.06499 -0.752175,-1.28427 0.219274,-0.21927 0.418169,-0.54911 0.441988,-0.73297 0.137352,-1.06023 0.888634,-2.03746 1.348073,-1.75351 0.338192,0.20901 0.412999,0.0144 0.203924,-0.53038 -0.196132,-0.51111 -0.128933,-0.73609 0.165509,-0.55411 0.272638,0.16849 0.504539,-0.10185 0.515335,-0.60077 0.01204,-0.55739 0.292726,-0.2788 0.72797,0.72258 0.389586,0.89634 0.839998,1.62971 1.000914,1.62971 0.160915,0 0.04433,-0.46381 -0.259039,-1.0307 -0.303388,-0.56688 -0.441968,-1.30025 -0.307956,-1.62971 0.134013,-0.32946 0.261471,-0.1908 0.283244,0.30812 0.02176,0.49892 0.26266,0.76926 0.535298,0.60077 0.294441,-0.18198 0.361641,0.043 0.165508,0.55411 -0.235972,0.61493 -0.148504,0.74819 0.306497,0.46698 0.503586,-0.31123 0.500231,-0.14496 -0.01605,0.79528 -0.924202,1.68321 -1.039611,2.63818 -0.238469,1.97328 0.820312,-0.68079 1.442566,-0.0651 0.762439,0.75443 -1.169566,1.40924 0.564277,1.15844 2.255201,-0.32622 1.866587,-1.63888 2.365038,-3.69162 1.183356,-4.8733 -1.007392,-1.00739 -1.621583,-0.67034 -0.678145,0.37215 0.484746,0.53563 0.763186,1.269 0.618759,1.62971 -0.188495,0.47076 -0.273767,0.4365 -0.302184,-0.12142 -0.02176,-0.42749 -0.307308,-1.04497 -0.634525,-1.37218 -0.327216,-0.32722 -0.670187,-1.08801 -0.762153,-1.69065 -0.205103,-1.34405 -1.057538,-2.42804 -1.909361,-2.42804 -0.350027,0 -0.777999,-0.56413 -0.95105,-1.25363 -0.497017,-1.98027 -2.802784,-1.26876 -2.802784,0.86488 0,0.51462 -0.548566,1.12359 -1.253624,1.39165 -0.795861,0.30258 -1.253625,0.86679 -1.253625,1.54513 0,0.58768 -0.564131,1.51225 -1.253624,2.05461 -1.743918,1.37176 -1.567342,2.53572 0.620855,4.09264 2.123043,1.51057 4.150435,1.896 2.239891,0.42583 z m 5.348434,-0.26773 c 0.442098,-0.5327 0.418375,-0.83006 -0.100576,-1.26076 -0.373525,-0.31 -0.827608,-0.41515 -1.009082,-0.23368 -0.18147,0.18148 -0.329949,0.20714 -0.329949,0.0571 0,-0.15009 0.394891,-0.57516 0.877537,-0.94458 0.482645,-0.36942 0.719044,-0.48302 0.525329,-0.25243 -0.193715,0.23059 -0.02447,0.74699 0.376087,1.14755 0.947505,0.94751 0.920557,1.47848 -0.0948,1.86811 -0.65713,0.25217 -0.706443,0.17529 -0.244542,-0.38126 z m -8.325702,-2.54371 c 0.06408,-0.52874 0.455,-1.05364 0.868696,-1.16643 0.483789,-0.13192 0.555346,-0.0573 0.20055,0.20917 -0.303392,0.22784 -0.694302,0.75274 -0.868691,1.16644 -0.222785,0.5285 -0.282422,0.4663 -0.200555,-0.20917 z m 1.879273,-3.17561 c 0.01489,-0.72903 0.884764,-1.74968 1.334208,-1.56547 0.250238,0.10256 0.05068,0.58137 -0.443452,1.06402 -0.494139,0.48265 -0.894978,0.7083 -0.890756,0.50145 z m 1.245948,-0.12536 c 0.170452,-0.2758 0.409423,-0.50145 0.531045,-0.50145 0.121621,0 0.221129,0.22565 0.221129,0.50145 0,0.27579 -0.238971,0.50145 -0.531045,0.50145 -0.292074,0 -0.391582,-0.22566 -0.221129,-0.50145 z m 4.108789,-0.82417 c 0.329257,-0.13394 0.456245,-0.62384 0.282201,-1.08867 -0.278981,-0.74509 -0.213477,-0.76134 0.553355,-0.13723 0.684319,0.55695 0.731074,0.79592 0.219249,1.12059 -0.357799,0.22697 -0.876198,0.39831 -1.151996,0.38076 -0.275797,-0.0175 -0.232061,-0.1415 0.09719,-0.27545 z m -1.537365,-2.43526 c 0.334357,-0.89582 0.282763,-0.9284 -0.483217,-0.30516 -0.749482,0.60982 -0.817739,0.59402 -0.541686,-0.12536 0.173717,-0.45271 0.504047,-0.8231 0.734057,-0.8231 0.771426,0 1.098156,1.08422 0.504283,1.6734 -0.448481,0.44495 -0.499057,0.34548 -0.213437,-0.41978 z m -1.727319,8.16528 c -0.456876,-0.45688 -0.737578,-0.43803 -1.220192,0.0819 -0.422688,0.45539 -0.43397,0.56703 -0.03465,0.34283 0.325691,-0.18285 0.743178,-0.0881 0.927746,0.21053 0.184574,0.29864 0.467191,0.41139 0.628036,0.25054 0.160845,-0.16084 0.02542,-0.55946 -0.30094,-0.88582 z m 0.748168,-0.72275 c -0.181469,-0.18148 -0.04984,-0.6892 0.292516,-1.12827 0.54986,-0.7052 0.520756,-0.71857 -0.249557,-0.11468 -0.784478,0.61501 -0.795264,1.5729 -0.0177,1.5729 0.16759,0 0.156232,-0.14848 -0.02522,-0.32995 z m -14.880695,-2.86808 c 0,-0.37992 -0.301958,-0.94138 -0.671015,-1.24767 -0.965883,-0.80161 -1.961101,-4.44633 -1.459064,-5.34342 0.320527,-0.57274 0.690878,-0.1959 1.554555,1.58181 0.842877,1.7349 1.279188,2.18827 1.700477,1.76698 0.421293,-0.42129 0.291482,-0.85964 -0.505923,-1.70844 -0.589936,-0.62796 -1.452079,-2.04127 -1.915865,-3.1407 -0.74038,-1.7551 -0.891934,-1.87661 -1.242312,-0.99606 -0.763703,1.91929 -0.496194,5.75441 0.543537,7.79245 1.007062,1.974 1.99561,2.61552 1.99561,1.29505 z m -10.265969,-2.34018 c 0.17802,-0.28804 -0.618664,-1.54602 -1.770404,-2.79551 -2.546277,-2.76238 -4.365783,-6.60511 -4.720353,-9.96921 l -0.264259,-2.50724 1.440249,3.00869 c 2.168716,4.53047 7.056087,10.31791 7.056087,8.35555 0,-0.23091 -0.878009,-1.34281 -1.951131,-2.4709 -2.892484,-3.04063 -4.712882,-7.12928 -5.042931,-11.326493 l -0.276961,-3.522111 -1.162521,2.491683 c -1.79301,3.843021 -1.759964,9.118931 0.0798,12.740401 1.475963,2.90534 4.617792,6.51885 5.667943,6.51885 0.341448,0 0.766462,-0.23567 0.944481,-0.52371 z m 10.767419,0.30165 c 0,-0.5081 -2.147976,-3.81452 -2.348064,-3.61443 -0.375752,0.37576 1.266918,3.83649 1.821025,3.83649 0.289873,0 0.527039,-0.0999 0.527039,-0.22206 z m 11.672966,-1.97843 c 0.186023,0.18603 0.490659,-0.089 0.676972,-0.61108 0.186314,-0.52212 0.6779,-1.3442 1.092423,-1.82684 0.414519,-0.48265 0.517191,-0.87754 0.228155,-0.87754 -0.289036,0 -0.667801,0.37078 -0.841699,0.82395 -0.173897,0.45317 -0.432139,0.70798 -0.573873,0.56624 -0.141735,-0.14173 0.01183,-0.84922 0.341231,-1.5722 0.504619,-1.10751 0.72472,-1.21642 1.397761,-0.69161 0.686164,0.53504 0.71254,0.51211 0.187026,-0.16259 -0.453361,-0.58204 -0.477586,-1.27161 -0.09354,-2.6625 0.28505,-1.03236 0.408938,-2.14564 0.275312,-2.47394 -0.133627,-0.32831 -0.264229,-0.0328 -0.29023,0.6567 -0.03856,1.02238 -0.143956,1.11488 -0.571462,0.50145 -0.390574,-0.56044 -0.451897,-0.30479 -0.240576,1.0029 0.231194,1.43061 0.19345,1.54649 -0.20414,0.62681 -0.53641,-1.2408 -1.303829,-1.58431 -0.840189,-0.37609 0.158749,0.4137 0.151488,1.10958 -0.01615,1.5464 -0.247224,0.64425 -0.392484,0.66792 -0.769289,0.12536 -0.306717,-0.44164 -0.343608,-0.24433 -0.108609,0.58084 0.303924,1.06716 0.246979,1.15928 -0.389897,0.63073 -0.616568,-0.51171 -0.844001,-0.40344 -1.312495,0.6248 -0.311686,0.68407 -0.438643,1.64133 -0.282131,2.12724 0.239673,0.74409 0.199201,0.7648 -0.256502,0.13131 -0.832065,-1.1567 -0.674961,-1.83135 0.842537,-3.61807 0.769429,-0.90593 1.668714,-2.27102 1.998413,-3.03353 0.663654,-1.53486 2.632636,-2.66938 3.833208,-2.20868 0.451084,0.1731 0.651253,0.62196 0.478328,1.0726 -0.163553,0.42621 -0.14187,1.60382 0.04819,2.6169 0.255745,1.36323 0.46356,1.65549 0.799592,1.12449 0.249722,-0.39462 0.435003,-1.28162 0.411736,-1.97111 l -0.04232,-1.25363 -0.401481,1.25363 c -0.378634,1.18229 -0.404324,1.15988 -0.451465,-0.39373 -0.04588,-1.51214 0.03465,-1.60206 0.981242,-1.09546 0.56717,0.30354 1.156429,0.87817 1.309456,1.27695 0.153028,0.39879 1.042891,1.48972 1.977473,2.42431 0.934582,0.93458 1.699243,2.06028 1.699243,2.50156 0,0.44127 0.201513,0.80232 0.4478,0.80232 0.75581,0 1.012297,-1.34361 0.390554,-2.04588 -0.483047,-0.5456 -0.439395,-0.55214 0.245264,-0.0368 1.251569,0.94214 1.682124,-0.20615 0.661403,-1.76397 -0.46677,-0.71238 -1.501657,-1.54171 -2.29975,-1.84296 -0.798087,-0.30124 -1.45107,-0.73721 -1.45107,-0.96882 0,-0.23161 -0.193054,-0.30179 -0.429011,-0.15596 -0.235957,0.14582 -0.3267,-0.27008 -0.201648,-0.92423 0.151924,-0.79477 -0.129459,-1.49681 -0.848117,-2.11599 -0.591515,-0.50964 -1.679286,-1.54716 -2.417269,-2.3056 -1.726357,-1.774223 -2.548424,-1.742012 -3.199396,0.12536 -0.288429,0.82739 -0.828024,1.50435 -1.199102,1.50435 -0.913712,0 -2.235905,1.97345 -2.235905,3.33721 0,0.68017 -0.400754,1.23545 -1.0375,1.43755 -0.57062,0.1811 -1.472387,1.04251 -2.003924,1.91422 -0.676917,1.11015 -0.966986,1.31524 -0.9683,0.68461 -0.002,-0.96893 2.122011,-3.36199 2.984028,-3.36199 0.288339,0 0.524246,-0.51392 0.524246,-1.14205 0,-0.62813 0.372357,-1.67366 0.827453,-2.3234 0.637473,-0.91012 0.666256,-1.12886 0.125362,-0.95269 -0.386151,0.12577 -1.102994,1.00206 -1.592991,1.94732 -0.63976,1.23416 -0.799732,1.36525 -0.567501,0.46502 0.37677,-1.4605 1.528731,-2.87797 2.957141,-3.63869 0.903377,-0.48111 0.936768,-0.45014 0.320296,0.29717 -0.591746,0.71733 -0.575509,0.83427 0.11581,0.83427 0.442213,0 0.947103,-0.57008 1.121983,-1.26685 0.480214,-1.91334 1.845486,-2.422376 3.341276,-1.245786 0.682037,0.536486 1.377799,0.837706 1.546141,0.669366 0.168337,-0.16834 0.463605,0.12112 0.656147,0.64324 0.192542,0.52212 0.642473,1.12602 0.999846,1.342 0.357373,0.21597 0.879177,1.24463 1.159558,2.2859 0.391727,1.45475 0.946802,2.11057 2.396745,2.83172 1.037825,0.51618 2.048076,0.90055 2.244996,0.85417 0.196924,-0.0464 0.229192,0.25144 0.07171,0.66183 -0.15748,0.41039 -0.06214,0.74616 0.211858,0.74616 0.707701,0 1.086627,-3.08136 0.51352,-4.17586 -0.279373,-0.53352 -0.794092,-0.79585 -1.231917,-0.62784 -0.594835,0.22826 -0.720669,-0.0757 -0.601921,-1.45395 0.08257,-0.95839 -0.125834,-2.0185 -0.463119,-2.35578 -0.929242,-0.92925 -0.733706,-1.63608 0.235185,-0.85016 0.702657,0.56997 0.778025,0.57129 0.438653,0.008 -0.316685,-0.525928 -0.139192,-0.605929 0.781279,-0.352144 1.0116,0.278914 1.05824,0.245144 0.30955,-0.224142 -0.484831,-0.303893 -1.105376,-0.414177 -1.378987,-0.245074 -0.644258,0.398172 -0.627459,0.07929 0.0773,-1.467486 0.316124,-0.693822 0.771109,-1.140153 1.011078,-0.991845 0.239969,0.148308 0.303026,0.485302 0.140125,0.748875 -0.162896,0.263574 -0.110163,0.446912 0.117184,0.407419 0.965487,-0.167719 1.367008,0.09353 0.747401,0.486302 -0.535308,0.339333 -0.505075,0.486835 0.151408,0.738753 0.451144,0.17312 0.697015,0.115342 0.546375,-0.128397 -0.150641,-0.243739 0.101027,-0.587031 0.559257,-0.76287 0.650155,-0.249489 0.700365,-0.45249 0.228591,-0.924262 -0.332502,-0.332505 -0.971354,-0.607173 -1.41967,-0.610373 -0.448311,-0.0032 -0.909811,-0.288039 -1.025545,-0.632974 -0.138501,-0.412767 0.10387,-0.525159 0.709005,-0.328784 0.737051,0.239182 0.77498,0.196078 0.191208,-0.217297 -0.400529,-0.283616 -0.884603,-0.419025 -1.075721,-0.300908 -0.445147,0.275118 -1.039912,-1.240629 -0.701603,-1.788026 0.140621,-0.22753 1.175203,0.46979 2.299072,1.549601 2.100915,2.018561 3.117735,2.617224 1.897592,1.117231 -0.604704,-0.743405 -0.578573,-0.804945 0.215373,-0.507194 0.542814,0.203572 0.781263,0.140953 0.597216,-0.156838 -0.168497,-0.272637 -0.02979,-0.495705 0.308257,-0.495705 0.338042,0 0.483508,-0.131109 0.323264,-0.291353 -0.160243,-0.160244 -0.748288,-0.0468 -1.306768,0.252081 -0.558475,0.298889 -1.134856,0.350168 -1.280844,0.113954 -0.145992,-0.236214 0.291619,-0.683292 0.972467,-0.993506 1.292838,-0.589056 1.585996,-1.314102 0.742191,-1.835601 -0.294978,-0.182307 -0.361249,0.04401 -0.163668,0.558912 0.256542,0.668528 0.136896,0.790392 -0.526176,0.535948 -0.533854,-0.20486 -0.966074,-0.04824 -1.143602,0.414394 -0.156969,0.409046 -0.4927,0.743721 -0.746072,0.743721 -0.253373,0 -0.156783,-0.620544 0.21464,-1.378987 0.431618,-0.88135 0.539982,-1.921865 0.300279,-2.883337 l -0.37504,-1.50435 0.08869,1.50435 c 0.112229,1.90369 -1.108109,3.025302 -1.988645,1.827758 -0.496165,-0.674791 -0.590442,-0.688014 -0.518214,-0.07268 0.04859,0.413696 -0.137357,0.752175 -0.413154,0.752175 -0.275798,0 -0.466098,-0.306135 -0.422888,-0.6803 0.05742,-0.497248 -0.07076,-0.53098 -0.476377,-0.125363 -0.405618,0.405617 -0.393027,0.716852 0.04678,1.156678 1.077185,1.077184 0.633487,1.586375 -0.526522,0.604241 -1.127124,-0.954292 -1.127375,-0.954204 -0.250725,0.08713 0.970501,1.152794 1.151033,2.217039 0.376102,2.217039 -0.275797,0 -0.50145,0.38361 -0.50145,0.852465 0,0.616495 -0.151663,0.7008 -0.547904,0.30456 -0.396241,-0.396239 -0.388584,-0.87512 0.02768,-1.730002 0.514603,-1.056894 0.500392,-1.089152 -0.134193,-0.30456 -0.812956,1.005135 -1.5909,1.190925 -1.04984,0.250725 0.198393,-0.344747 0.192902,-0.476377 -0.01219,-0.292512 -0.205098,0.183864 -0.29769,0.442239 -0.205755,0.574166 0.09193,0.131926 -0.206652,0.658449 -0.663518,1.170049 -0.692603,0.775573 -0.718573,1.032857 -0.156267,1.547898 0.544489,0.498725 0.740892,0.408222 1.019573,-0.469829 0.333494,-1.050744 0.368475,-1.055677 1.033804,-0.145785 0.500768,0.684843 0.690727,0.744616 0.696308,0.219105 0.0066,-0.617904 0.07542,-0.615543 0.474984,0.01629 0.292837,0.463066 0.284412,0.851971 -0.02257,1.0417 -0.283129,0.174981 -0.05105,0.860644 0.54989,1.624614 l 1.039761,1.32184 -1.400956,-0.73074 c -0.770558,-0.40192 -1.908709,-0.73214 -2.529253,-0.73384 -0.620544,-0.002 -1.128262,-0.29773 -1.128262,-0.65784 0,-0.360119 -0.548406,-1.39808 -1.218679,-2.306584 -0.670273,-0.908505 -1.15856,-1.911367 -1.085087,-2.228584 0.07348,-0.317216 0.03956,-0.409321 -0.0754,-0.204676 -0.114943,0.204644 -0.61369,0.155492 -1.10832,-0.109227 -0.674661,-0.361067 -1.122425,-0.234794 -1.792342,0.505456 -1.104689,1.220667 -1.734941,1.25982 -1.758244,0.109227 -0.0098,-0.482646 -0.363837,-1.441668 -0.78681,-2.131162 -0.521508,-0.850124 -0.660379,-0.930824 -0.431452,-0.250725 1.005552,2.987297 1.086286,3.76121 0.565846,5.423991 -0.349606,1.116972 -0.954736,1.894434 -1.600703,2.056554 -0.571232,0.14337 -1.418582,1.05749 -1.882995,2.03138 -0.464413,0.97388 -1.178578,1.7707 -1.587034,1.7707 -0.912347,0 -1.780829,1.52986 -1.780829,3.13699 0,0.69723 1.151645,2.64231 2.757975,4.6581 1.516886,1.90354 2.765972,3.69261 2.775741,3.97571 0.0098,0.2831 0.303567,-7e-5 0.652877,-0.62927 0.349305,-0.62919 0.787302,-0.99179 0.973325,-0.80577 z m -1.795391,0.37757 c -0.536762,-0.53677 -0.415522,-1.28545 0.151423,-0.93506 0.627369,0.38774 0.640461,-0.0569 0.035,-1.18824 -0.256552,-0.47938 -0.279343,-1.17436 -0.05064,-1.54441 0.307102,-0.49691 0.635387,-0.24822 1.25561,0.95116 0.46188,0.89318 0.710324,1.75343 0.552086,1.91167 -0.158232,0.15823 -0.295695,-0.032 -0.305468,-0.42269 -0.01003,-0.39995 -0.295309,-0.21047 -0.652873,0.4336 -0.349305,0.62919 -0.792616,0.98648 -0.985128,0.79397 z m 0.715097,-2.82385 c -0.495242,-0.49156 -0.552838,-0.43396 -0.280711,0.28071 0.188309,0.49454 0.4687,0.77284 0.623091,0.61845 0.154392,-0.15439 3.21e-4,-0.55901 -0.34238,-0.89916 z m 0.976213,-0.61846 c 0,-0.27579 0.322487,-1.06558 0.716637,-1.75507 0.39415,-0.6895 0.716637,-1.02797 0.716637,-0.75218 0,0.2758 -0.322487,1.06558 -0.716637,1.75508 -0.39415,0.68949 -0.716637,1.02797 -0.716637,0.75217 z M 41.953,50.865065 c 0,-0.70573 1.716749,-2.75737 2.918178,-3.48743 l 1.344146,-0.81677 -1.128262,0.98767 c -0.620544,0.54323 -1.128262,1.12075 -1.128262,1.28339 0,0.16264 -0.451305,0.74701 -1.0029,1.29861 -0.551595,0.55159 -1.0029,0.88213 -1.0029,0.73453 z m 15.335816,-1.67013 c -0.216009,-0.34951 -0.257324,-0.7709 -0.09181,-0.93641 0.448783,-0.44878 0.938097,0.21126 0.695707,0.93843 -0.169852,0.50956 -0.287968,0.50917 -0.603897,-0.002 z m 0.961305,-3.52931 c -0.827392,-0.48481 -1.58406,-1.31451 -1.681482,-1.84379 -0.09742,-0.52928 -0.548726,-1.41363 -1.0029,-1.96523 -0.818988,-0.99466 -0.816505,-0.99505 0.302495,-0.0476 0.620544,0.52539 1.128262,1.37717 1.128262,1.89285 0,0.52859 0.525615,1.13743 1.204914,1.3957 0.662701,0.25196 1.352977,0.69768 1.533945,0.99049 0.413892,0.66969 0.345229,0.65016 -1.485234,-0.42238 z M 40.9501,45.921855 c 0,-0.10839 0.350198,-0.33146 0.778221,-0.4957 0.44625,-0.17125 0.647532,-0.0872 0.471854,0.19707 -0.294482,0.47648 -1.250075,0.70476 -1.250075,0.29863 z m 12.536247,-0.72225 c 0,-0.32176 -0.366108,-0.58502 -0.813572,-0.58502 -0.686345,0 -0.710229,-0.12453 -0.152742,-0.79626 0.592308,-0.71369 0.703795,-0.68014 1.075074,0.32353 0.227828,0.61588 0.296562,1.23746 0.152736,1.38128 -0.143821,0.14383 -0.261496,-0.002 -0.261496,-0.32353 z m -7.020298,-0.6551 c 0,-0.64431 1.491873,-1.90346 2.256524,-1.90452 0.275798,-3.9e-4 0.106558,0.2293 -0.376087,0.51042 -0.482646,0.28111 -0.877537,0.83838 -0.877537,1.23837 0,0.39999 -0.225652,0.72726 -0.50145,0.72726 -0.275797,0 -0.50145,-0.25719 -0.50145,-0.57153 z m 3.886236,-1.77993 c -0.482645,-0.12613 -0.877537,-0.55126 -0.877537,-0.94473 0,-0.96214 0.314895,-0.90197 1.50435,0.28749 1.0135,1.0135 0.95823,1.07145 -0.626813,0.65724 z m -3.384786,-3.916694 c 0,-0.413696 0.218572,-0.752175 0.485709,-0.752175 0.267143,0 0.355829,0.338479 0.19708,0.752175 -0.158754,0.413696 -0.377321,0.752174 -0.485714,0.752174 -0.108389,0 -0.197075,-0.338478 -0.197075,-0.752174 z M 57.848408,37.42261 c -0.168893,-0.440127 -0.006,-1.380516 0.361937,-2.089754 0.544379,-1.049299 0.726736,-1.139086 0.978895,-0.481979 0.170433,0.444149 0.0076,1.384539 -0.361936,2.089754 -0.543477,1.037262 -0.730482,1.129337 -0.978896,0.481979 z m -9.263133,-0.620005 c 0.476082,-0.49705 0.973535,-0.79579 1.105456,-0.663868 0.131922,0.131922 -0.257594,0.5386 -0.865597,0.903728 -1.056209,0.634293 -1.066895,0.623607 -0.239859,-0.23986 z m 5.903976,0.319795 c 0,-0.259521 0.22307,-0.609719 0.495708,-0.778219 0.284252,-0.175677 0.368315,0.0256 0.197075,0.471856 -0.333359,0.86872 -0.692783,1.027665 -0.692783,0.306363 z m 7.020298,-0.05919 c 0,-0.292074 0.225653,-0.391583 0.50145,-0.221131 0.275798,0.170452 0.50145,0.409422 0.50145,0.531044 0,0.121622 -0.225652,0.221131 -0.50145,0.221131 -0.275797,0 -0.50145,-0.23897 -0.50145,-0.531044 z m -1.0029,-3.952411 c 0,-0.259521 0.22307,-0.609719 0.495709,-0.778219 0.284252,-0.175678 0.368315,0.0256 0.197075,0.471856 -0.333359,0.86872 -0.692784,1.027665 -0.692784,0.306363 z M 24.903707,53.559375 c 0,-0.28795 -1.032039,-1.67142 -2.293426,-3.07438 -1.261382,-1.40296 -2.718149,-3.35416 -3.23726,-4.336 -1.361657,-2.57543 -1.196424,-0.7491 0.204406,2.25923 1.931991,4.14903 5.32628,7.43171 5.32628,5.15115 z m 31.114966,0.33731 c 0.520119,0.0851 0.777247,-0.26794 0.777247,-1.0673 0,-0.65699 -0.19384,-1.19453 -0.430755,-1.19453 -0.236915,0 -0.269745,-0.26052 -0.07296,-0.57893 0.208934,-0.33806 0.138796,-0.44358 -0.168588,-0.2536 -0.289507,0.17892 -0.661262,-0.0262 -0.826108,-0.45576 -0.164852,-0.42959 -0.528884,-0.63945 -0.808964,-0.46635 -0.280075,0.17309 -0.697612,-0.19452 -0.927853,-0.81692 -0.417943,-1.12981 -0.419147,-1.12954 -0.745796,0.17192 -0.179946,0.71696 -0.444365,1.71942 -0.587599,2.22769 -0.143234,0.50827 0.04899,0.27261 0.427185,-0.52368 0.427506,-0.90013 0.820728,-1.23242 1.039515,-0.87842 0.193545,0.31316 0.005,1.06478 -0.419177,1.67026 -0.697055,0.99518 -0.692537,1.18766 0.04709,2.00491 0.502322,0.55506 1.030725,0.73601 1.368837,0.46875 0.302886,-0.2394 0.900459,-0.37802 1.327945,-0.30804 z m -2.452195,-0.41021 c -0.388814,-0.46849 -0.294577,-1.01102 0.344972,-1.98596 l 0.879934,-1.34138 0.88018,1.49003 c 0.484105,0.81952 0.754602,1.51824 0.601113,1.55272 -0.153493,0.0345 -0.448316,0.0943 -0.655164,0.13304 -0.206848,0.0387 -0.632584,0.23366 -0.94608,0.43325 -0.313497,0.19958 -0.81073,0.0728 -1.104955,-0.2817 z m 1.624236,-1.93368 c -0.455046,-0.73627 -1.178929,0.0625 -0.845073,0.93255 0.226785,0.591 0.129514,0.70433 -0.350103,0.40792 -0.469387,-0.2901 -0.545457,-0.21842 -0.2594,0.24442 0.317032,0.51297 0.547694,0.45941 1.064318,-0.24712 0.362764,-0.49611 0.538376,-1.0981 0.390258,-1.33777 z m -4.851763,-5.55925 c -0.111237,-0.89635 -0.20225,-0.16297 -0.20225,1.62971 0,1.79268 0.09101,2.52605 0.20225,1.62971 0.111231,-0.89634 0.111231,-2.36308 0,-3.25942 z m -22.426544,2.00106 c 0,-0.34736 -0.438072,-0.90514 -0.973485,-1.23951 -1.19128,-0.74396 -3.3047,-4.35792 -3.744361,-6.40286 -0.17789,-0.8274 0.470269,0.10667 1.440349,2.07571 0.97008,1.96904 2.142099,3.72524 2.604491,3.90268 1.702563,0.65333 1.686597,-0.5965 -0.04042,-3.16282 -0.966053,-1.43554 -2.268755,-4.010232 -2.8949,-5.721528 -1.088989,-2.976304 -1.152563,-3.046107 -1.463708,-1.607098 l -0.325275,1.50435 -0.05165,-1.755075 c -0.09713,-3.300253 0.69689,-3.136597 1.839809,0.379208 1.273663,3.917973 3.81818,8.566163 4.920964,8.989343 0.418756,0.16069 0.989316,0.0642 1.267901,-0.21435 0.341061,-0.34107 -0.224369,-1.5741 -1.730955,-3.77469 -2.428968,-3.54788 -3.799315,-7.074134 -4.309566,-11.08962 l -0.325782,-2.563814 -1.491502,2.50725 c -1.360303,2.286698 -1.490891,2.904241 -1.484573,7.020298 0.0077,5.016896 0.516072,6.405836 3.589935,9.808226 1.772425,1.96187 3.172709,2.55517 3.172709,1.3443 z m 13.533044,-5.64393 c -0.267653,-0.3225 -0.319363,-0.77103 -0.114907,-0.99672 0.204451,-0.22568 0.08967,-0.24802 -0.255077,-0.0496 -0.980305,0.56413 -0.734574,-0.38622 0.337124,-1.30384 0.77968,-0.667585 1.013922,-0.69508 1.225454,-0.14384 0.143836,0.37483 -0.0079,0.7911 -0.337125,0.92504 -0.434958,0.17695 -0.422953,0.25436 0.04393,0.28312 0.353407,0.0218 0.772438,-0.29889 0.931187,-0.71258 0.158754,-0.4137 0.578834,-0.75218 0.933515,-0.75218 0.35468,0 0.773722,-0.335772 0.931202,-0.746159 0.348252,-0.907542 -0.708549,-0.785536 -1.460102,0.168549 -0.413756,0.52526 -0.895043,-0.0041 -2.157944,-2.373563 -0.89398,-1.677279 -1.783422,-3.026621 -1.976535,-2.998538 -0.193118,0.02808 -0.915251,0.0085 -1.604745,-0.04357 -1.159282,-0.08751 -1.178151,-0.12706 -0.250725,-0.525588 1.301578,-0.559307 -0.126701,-0.582765 -1.50435,-0.02471 -0.837316,0.339178 -0.671727,0.470984 1.0029,0.798305 2.000078,0.390933 2.001858,0.393371 0.623689,0.854955 -0.760163,0.254597 -1.252041,0.673368 -1.093061,0.930603 0.158985,0.257234 0.991502,-0.03249 1.850049,-0.643828 1.317314,-0.938008 1.508417,-0.974499 1.224165,-0.233758 -0.185256,0.482772 -0.137408,0.754517 0.106332,0.603878 0.419222,-0.259093 1.0497,0.790582 1.0497,1.747628 0,0.242497 -0.493853,0.900999 -1.097453,1.463338 -1.135543,1.057918 -1.058039,1.240818 0.304265,0.718059 0.436256,-0.167406 0.793188,-0.663841 0.793188,-1.10319 0,-0.619251 0.134645,-0.664173 0.598972,-0.199842 0.464333,0.464332 0.363612,0.818248 -0.44807,1.574441 -0.575875,0.53651 -1.228422,0.81982 -1.450103,0.62958 -0.221686,-0.19024 -0.002,0.29423 0.488136,1.0766 0.490162,0.78238 0.783471,1.53023 0.6518,1.6619 -0.24708,0.24708 -5.958845,-9.048455 -7.756372,-12.622993 -0.557818,-1.109271 -1.122671,-2.705012 -1.255224,-3.546092 -0.462658,-2.93562 1.797226,-6.062676 4.057281,-5.614152 0.64494,0.127993 0.979317,-0.380847 1.379634,-2.099455 0.320993,-1.378055 0.778461,-2.214312 1.165535,-2.130606 0.350438,0.07578 0.500367,-0.08354 0.333178,-0.354057 -0.167183,-0.270507 0.267765,-0.866455 0.96656,-1.324321 1.19316,-0.781789 2.485196,-0.785314 4.305895,-0.01174 0.584054,0.248149 1.069222,-0.306702 1.926149,-2.202802 1.143943,-2.53116 2.973999,-4.0173285 4.946908,-4.0173285 1.328792,0 3.552567,2.5018335 3.938363,4.4308065 0.307679,1.538397 0.420992,1.614106 1.889343,1.262341 2.093568,-0.501545 4.066402,-0.352873 5.442702,0.410162 0.623608,0.345734 1.294954,0.583375 1.491873,0.528089 0.196925,-0.05528 0.214992,0.27227 0.04017,0.727901 -0.2041,0.531877 -0.120293,0.706296 0.234122,0.487255 0.303613,-0.18764 0.715303,-0.07697 0.91487,0.245943 0.214812,0.347569 0.146389,0.453326 -0.167699,0.259209 -0.338705,-0.209333 -0.593376,0.578711 -0.704292,2.179358 l -0.173737,2.507257 1.562086,-3.12e-4 c 1.887518,-3.77e-4 3.977501,1.533878 4.403934,3.232929 0.341939,1.362397 -1.612242,5.898155 -3.818932,8.863948 -0.692693,0.930976 -1.868167,2.752033 -2.612173,4.046795 -0.897239,1.561425 -1.595443,2.260965 -2.073535,2.077505 -0.396462,-0.15213 -0.720824,-0.0135 -0.720824,0.3081 0,0.32158 0.225652,0.44523 0.501449,0.27478 0.792582,-0.48984 0.584255,0.33098 -0.344461,1.3572 -0.796889,0.88055 -0.784754,0.99587 0.209356,1.98998 l 1.055261,1.05527 4.272554,-6.547843 c 5.074773,-7.777276 6.146797,-9.795573 6.835689,-12.869557 0.419463,-1.871712 0.367418,-2.606441 -0.272257,-3.843429 -0.82477,-1.594932 -3.31676,-2.954689 -5.414977,-2.954689 -1.062773,0 -1.256653,-0.294632 -1.567382,-2.381887 -0.422672,-2.8392 -0.825331,-3.391523 -3.447909,-4.729463 -1.401407,-0.714943 -2.575472,-0.943552 -3.919784,-0.763241 -1.657748,0.222351 -1.919139,0.123921 -1.919139,-0.722675 0,-1.5918155 -1.331585,-3.6992835 -2.743963,-4.3428065 -0.723151,-0.329491 -2.312121,-0.599075 -3.53104,-0.599075 -1.84529,0 -2.497356,0.28114 -3.895969,1.679756 -0.923867,0.923865 -1.951358,2.335458 -2.283312,3.1368735 -0.558365,1.34801 -0.771752,1.443742 -2.84969,1.278477 -2.011416,-0.159975 -2.429886,0.0051 -4.004659,1.579889 -0.967192,0.967192 -1.89345,2.433138 -2.058356,3.257657 -0.220292,1.101474 -0.651755,1.574326 -1.626579,1.782625 -3.957422,0.845616 -6.547998,4.352264 -5.641276,7.636136 0.482335,1.746879 4.818858,9.470402 8.921852,15.890172 l 2.170842,3.39662 1.489602,-1.10131 c 1.035479,-0.76556 1.341238,-1.28007 1.00295,-1.68768 z m 19.562648,1.05216 c 0,-0.52863 1.510433,-1.95805 1.782028,-1.68645 0.126456,0.12645 -0.222769,0.6396 -0.776054,1.14031 -0.553285,0.50072 -1.005974,0.74648 -1.005974,0.54614 z m 1.50435,-2.4812 c 0,-0.10053 0.694062,-0.94673 1.542355,-1.880443 l 1.542354,-1.697663 -1.166267,1.87423 c -0.980861,1.576276 -1.918442,2.408996 -1.918442,1.703876 z M 35.162811,37.560894 c -0.181791,-0.294147 -0.222985,-0.642357 -0.09154,-0.773801 0.13144,-0.131445 0.372607,0.10922 0.535925,0.534811 0.33907,0.883609 0.05009,1.039034 -0.444385,0.23899 z m -1.451492,-2.326898 c -0.272127,-0.714666 -0.21453,-0.772264 0.280712,-0.28071 0.342701,0.340151 0.496771,0.744774 0.34238,0.899164 -0.154392,0.154391 -0.434782,-0.123914 -0.623092,-0.618454 z m -1.267796,-2.119033 c -0.790545,-1.477142 -1.631372,-3.82001 -1.225182,-3.413819 0.479597,0.479597 2.218374,4.382963 1.952415,4.382963 -0.114712,0 -0.441968,-0.436115 -0.727233,-0.969144 z M 30.401705,22.633175 c 0.330365,-0.644166 0.738184,-1.033685 0.90627,-0.865599 0.168086,0.168087 -0.10221,0.695131 -0.600657,1.17121 -0.86638,0.827504 -0.879829,0.814054 -0.305613,-0.305611 z m 3.528101,-2.070572 c 0,-0.285501 0.338478,-0.519093 0.752175,-0.519093 0.417873,0 0.752174,-0.445734 0.752174,-1.0029 0,-0.551595 0.204527,-1.0029 0.454505,-1.0029 0.777939,0 -0.02813,2.010702 -1.018591,2.540772 -0.637919,0.341405 -0.940263,0.336298 -0.940263,-0.01588 z m 31.46598,-0.349744 c 0.344747,-0.139108 0.908878,-0.139108 1.253625,0 0.344746,0.139109 0.06268,0.252924 -0.626813,0.252924 -0.689493,0 -0.971559,-0.113815 -0.626812,-0.252924 z m -0.837948,-1.464761 c 0.02407,-0.584161 0.142883,-0.702983 0.302956,-0.30296 0.144854,0.361984 0.127042,0.794485 -0.03956,0.961113 -0.166627,0.166627 -0.285145,-0.129542 -0.263372,-0.658153 z M 35.950965,17.285535 c 0,-0.275797 0.218737,-0.839928 0.48609,-1.253624 0.267353,-0.413697 0.486091,-0.526523 0.486091,-0.250725 0,0.275797 -0.218738,0.839928 -0.486091,1.253624 -0.267353,0.413697 -0.48609,0.526523 -0.48609,0.250725 z m 1.48899,-2.22693 c 0,-0.259521 0.22307,-0.609719 0.495708,-0.778219 0.284252,-0.175678 0.368315,0.0256 0.197075,0.471856 -0.333359,0.86872 -0.692783,1.027665 -0.692783,0.306363 z m 6.518849,-1.50435 c 0,-0.259521 0.22307,-0.609719 0.495708,-0.778219 0.284252,-0.175677 0.368315,0.0256 0.197075,0.471856 -0.333359,0.86872 -0.692783,1.027665 -0.692783,0.306363 z m -4.0116,-0.531044 c 0,-0.275797 0.225653,-0.50145 0.50145,-0.50145 0.275798,0 0.50145,0.225653 0.50145,0.50145 0,0.275798 -0.225652,0.50145 -0.50145,0.50145 -0.275797,0 -0.50145,-0.225652 -0.50145,-0.50145 z m 16.107503,-0.139475 c -0.309409,-0.309405 -0.562556,-0.885671 -0.562556,-1.280592 0,-0.394921 -0.846197,-1.531382 -1.880437,-2.5254705 -1.166338,-1.121056 -1.404371,-1.504882 -0.626813,-1.010729 0.689494,0.438186 1.775895,1.563365 2.414226,2.5003975 0.638325,0.937032 1.524437,1.833475 1.969133,1.992095 0.721155,0.257231 0.724264,0.320741 0.02878,0.587627 -0.428875,0.164574 -1.032916,0.04608 -1.342321,-0.263328 z m 3.355021,-0.203072 c 0.361981,-0.144854 0.794482,-0.127039 0.961114,0.03959 0.166627,0.166628 -0.129545,0.285145 -0.658153,0.263372 -0.584164,-0.02406 -0.702983,-0.142885 -0.302961,-0.302962 z M 45.463153,10.545556 c 0,-0.259521 0.22307,-0.6097195 0.495709,-0.7782195 0.284251,-0.175677 0.368314,0.0256 0.197074,0.4718565 -0.333359,0.86872 -0.692783,1.027665 -0.692783,0.306363 z m 1.50435,-1.7232695 c 0,-0.104129 0.394892,-0.49902 0.877537,-0.877537 0.795329,-0.623739 0.813066,-0.606003 0.189322,0.189325 -0.655073,0.835289 -1.066859,1.100923 -1.066859,0.688212 z M 56.49505,39.295349 c 0,-0.415013 -0.97368,-0.649704 -1.196915,-0.288498 -0.144824,0.23433 0.06523,0.426054 0.466799,0.426054 0.401561,0 0.730116,-0.0619 0.730116,-0.137556 z M 39.947204,37.791331 c 0,-0.108391 -0.464623,-0.197075 -1.032495,-0.197075 -0.567872,0 -0.899125,0.215797 -0.736113,0.47955 0.267578,0.432954 1.768608,0.193216 1.768608,-0.282475 z m 2.569475,-1.333695 c -0.495242,-0.491555 -0.552839,-0.433956 -0.280712,0.280709 0.18831,0.494541 0.4687,0.772845 0.623092,0.618455 0.154391,-0.15439 3.21e-4,-0.559013 -0.34238,-0.899164 z M 54.26576,32.690567 c -0.359314,-0.359317 -1.672827,3.095244 -1.375156,3.6167 0.146959,0.257448 0.567676,-0.399808 0.934918,-1.460568 0.367247,-1.060759 0.565354,-2.031019 0.440238,-2.156132 z m -5.6736,1.217169 c 0.319529,0.197481 0.389516,0.09415 0.173246,-0.25578 -0.426664,-0.690354 -1.314069,-0.275828 -1.256864,0.587107 0.02833,0.427457 0.111778,0.418156 0.293554,-0.03272 0.139679,-0.346465 0.495207,-0.48084 0.790064,-0.298609 z m -6.639156,-0.325079 c 0,-0.275798 -0.238971,-0.50145 -0.531045,-0.50145 -0.292075,0 -0.391583,0.225652 -0.22113,0.50145 0.170453,0.275797 0.409424,0.50145 0.531046,0.50145 0.121621,0 0.221129,-0.225653 0.221129,-0.50145 z m 2.403515,-1.300507 c 0.08084,-0.04397 -0.250761,-0.232575 -0.736891,-0.419122 -0.486136,-0.186547 -0.723477,-0.178773 -0.52743,0.01727 0.196052,0.196049 0.07635,0.715693 -0.266009,1.154765 -0.560902,0.719368 -0.523283,0.725565 0.38044,0.06267 0.551595,-0.404604 1.069046,-0.771619 1.14989,-0.815589 z m 5.905239,0.172245 c 0.01915,-0.620545 0.177994,-3.159135 0.35297,-5.641312 l 0.318135,-4.513049 -0.701353,5.014499 c -0.844161,6.035514 -0.858287,6.268124 -0.380671,6.268124 0.206848,0 0.391763,-0.507718 0.410919,-1.128262 z M 39.320392,31.774046 c 0,-0.835799 -0.141489,-1.078225 -0.392374,-0.672286 -0.215804,0.349182 -0.276284,0.937404 -0.134394,1.307161 0.382807,0.997577 0.526768,0.824069 0.526768,-0.634875 z m 27.195979,0.149305 c -0.0045,-0.358846 -0.201698,-0.296997 -0.493773,0.154956 -0.400242,0.61933 -0.487449,0.626711 -0.493772,0.04179 -0.004,-0.390713 -0.143099,-0.574965 -0.308618,-0.409449 -0.450407,0.450407 0.297505,1.431872 0.83704,1.098422 0.256738,-0.158674 0.463345,-0.557247 0.459123,-0.885717 z m -30.580766,0.189833 c 0,-0.256616 0.507718,-0.538791 1.128263,-0.627056 0.805484,-0.11457 1.085192,-0.447324 0.977712,-1.163138 -0.0828,-0.551462 -0.176822,-1.28114 -0.20894,-1.621509 -0.04628,-0.490834 -0.216114,-0.490834 -0.820873,0 -0.647382,0.525431 -0.705981,0.467456 -0.388167,-0.384048 0.285626,-0.765257 0.235049,-0.864726 -0.213432,-0.41978 -0.654809,0.649644 -0.170659,1.854684 0.562987,1.401265 0.256738,-0.158674 0.4668,-0.18081 0.4668,-0.04919 0,0.131619 0.142191,0.609852 0.315984,1.062742 0.269694,0.702819 0.01214,0.788529 -1.758299,0.585132 -1.140854,-0.131067 -1.952777,-0.04171 -1.804272,0.198576 0.148504,0.240284 0.657671,0.29166 1.131481,0.114169 0.752762,-0.281985 0.774625,-0.215937 0.173266,0.52335 -0.448291,0.551113 -0.491992,0.846062 -0.125362,0.846062 0.30957,0 0.562852,-0.209958 0.562852,-0.466573 z m 6.078611,-0.874804 c -0.591129,-1.016548 -0.733877,-0.691176 -0.249988,0.569817 0.171967,0.448147 0.418305,0.70918 0.547413,0.580072 0.129108,-0.129108 -0.0045,-0.646558 -0.297425,-1.149889 z m 11.770743,0.762449 c 0.238064,-0.385197 0.135552,-0.441572 -0.306345,-0.168465 -0.499284,0.308575 -0.573378,0.172214 -0.298493,-0.549334 0.278951,-0.732221 0.226284,-0.821535 -0.222108,-0.376677 -0.323264,0.320715 -0.436146,0.828433 -0.25084,1.128262 0.427852,0.692276 0.633031,0.685844 1.077786,-0.03379 z m 1.995721,-1.092253 c 0.399926,0.153467 1.068198,-0.004 1.485049,-0.349975 0.41685,-0.345954 0.89938,-0.487533 1.072295,-0.31462 0.172915,0.172913 0.637188,-0.077 1.031718,-0.555355 0.668002,-0.809935 0.69523,-0.800778 0.39596,0.133157 -0.231755,0.72323 -0.168668,0.851489 0.226229,0.459938 0.301176,-0.298628 0.391081,-0.950832 0.199788,-1.44934 -0.29038,-0.756714 -0.439651,-0.79126 -0.903994,-0.209213 -0.666532,0.83549 -2.565267,1.95079 -3.321113,1.95079 -0.310748,0 -0.422616,-0.481437 -0.262158,-1.128263 0.153941,-0.620544 0.154567,-0.858873 0.0015,-0.52962 -0.153173,0.329254 -0.602392,0.474351 -0.998272,0.322438 -0.395985,-0.151912 -0.719886,-0.01309 -0.719886,0.308489 0,0.321582 0.234699,0.439643 0.521548,0.262359 0.321645,-0.198787 0.445769,0.12622 0.323836,0.847943 -0.108739,0.643653 -0.103649,0.90072 0.01133,0.571259 0.114967,-0.32946 0.536246,-0.473455 0.936177,-0.319987 z M 45.654486,30.798638 c 0.171241,-0.446253 0.08718,-0.647533 -0.197074,-0.471856 -0.272639,0.1685 -0.495709,0.518699 -0.495709,0.778219 0,0.721302 0.359425,0.562357 0.692783,-0.306363 z M 40.27611,29.838175 c -0.318796,-0.680478 -0.657375,-1.01137 -0.7524,-0.735315 -0.09502,0.276054 0.101844,0.832809 0.437485,1.237232 0.880305,1.060702 0.975736,0.908604 0.314915,-0.501917 z m 4.12751,0.553295 c 0.453596,-0.546546 0.340013,-0.660135 -0.56541,-0.565447 -1.482767,0.155066 -1.494612,0.162885 -1.133031,0.747935 0.427516,0.691735 1.026297,0.6274 1.698441,-0.182488 z m 20.114629,-0.09072 c 0,-0.09125 -0.43567,-0.133093 -0.96816,-0.09298 -0.532489,0.04011 -0.863742,0.241885 -0.736118,0.448385 0.211832,0.342748 1.704278,0.03152 1.704278,-0.355403 z M 47.811498,29.477036 c -0.160073,-0.400023 -0.278896,-0.281201 -0.302956,0.302959 -0.02176,0.528612 0.09674,0.824781 0.263371,0.658153 0.166627,-0.166627 0.184439,-0.599128 0.03961,-0.961112 z m -5.594501,-0.310584 c -0.154391,-0.15439 -0.559011,-3.18e-4 -0.899165,0.342382 -0.491551,0.49524 -0.433954,0.552838 0.280712,0.280709 0.49454,-0.18831 0.772845,-0.468701 0.618453,-0.623091 z m 24.587296,0.126218 c 0.917809,-0.735315 0.901808,-0.745752 -0.280245,-0.182802 -1.534953,0.73102 -1.819431,0.96264 -1.182318,0.96264 0.269053,0 0.927206,-0.350928 1.462563,-0.779838 z M 34.828971,28.865765 c -0.08084,-0.04397 -0.523765,-0.367165 -0.984266,-0.718211 -0.713809,-0.544145 -0.811898,-0.504735 -0.665179,0.267257 0.09465,0.498037 0.189363,0.954853 0.210464,1.015146 0.02111,0.06029 0.386578,-0.02399 0.812168,-0.18731 0.425591,-0.163315 0.707656,-0.332911 0.626813,-0.376882 z m 14.042201,-0.274802 c -0.336644,-0.539052 -0.709191,-0.882984 -0.827884,-0.764293 -0.214916,0.214919 0.877908,1.744388 1.246389,1.744388 0.106468,0 -0.08186,-0.441043 -0.418505,-0.980095 z m 2.800713,0.201876 c 0.17124,-0.446253 0.08718,-0.647534 -0.197075,-0.471856 -0.272638,0.168499 -0.495708,0.518698 -0.495708,0.778219 0,0.721301 0.359424,0.562357 0.692783,-0.306363 z m 1.844774,-1.349361 c -0.546706,-0.507653 -0.607341,-0.504074 -0.311426,0.01838 0.2021,0.356828 0.07833,1.033785 -0.27506,1.504349 -0.578488,0.770305 -0.547448,0.768472 0.311425,-0.01838 0.79694,-0.730112 0.842211,-0.977711 0.275061,-1.504349 z m -9.459406,-0.185936 c -0.436025,-0.77914 -0.495889,-0.719349 -0.428047,0.427537 0.04353,0.736031 0.270632,1.141827 0.50692,0.905821 0.236414,-0.236128 0.201102,-0.833075 -0.07887,-1.333358 z m 19.147979,1.033847 c 0.17124,-0.446253 0.08718,-0.647534 -0.197075,-0.471856 -0.272638,0.1685 -0.495708,0.518698 -0.495708,0.778219 0,0.721302 0.359424,0.562357 0.692783,-0.306363 z m 1.717621,-0.488675 c -0.154391,-0.15439 -0.434782,0.123915 -0.623091,0.618455 -0.272127,0.714665 -0.21453,0.772264 0.280712,0.280709 0.3427,-0.34015 0.496771,-0.744774 0.342379,-0.899164 z m -22.217674,0.263994 c -0.170453,-0.275797 -0.578663,-0.497994 -0.907133,-0.493771 -0.358843,0.0046 -0.296994,0.201697 0.154958,0.493771 0.963345,0.622563 1.136937,0.622563 0.752175,0 z m 23.515477,-0.08522 c -0.243795,-0.394467 -0.08921,-0.481764 0.471859,-0.266463 0.458937,0.176112 0.834433,0.101633 0.834433,-0.165509 0,-0.267141 0.218572,-0.485712 0.485714,-0.485712 0.267138,0 0.358677,0.394892 0.203418,0.877538 -0.238273,0.74071 -0.197922,0.760257 0.258784,0.125362 0.718442,-0.998742 0.704502,-3.359451 -0.02252,-3.808759 -0.379558,-0.234579 -0.441863,-0.136023 -0.180924,0.286185 0.265308,0.429279 0.16575,0.566566 -0.298608,0.411779 -0.383138,-0.127712 -0.696614,-0.551879 -0.696614,-0.942591 0,-0.390714 -0.225653,-0.713843 -0.50145,-0.718067 -0.275797,-0.0042 -0.757711,-0.170832 -1.070921,-0.370243 -0.359074,-0.228611 -0.66578,0.141234 -0.830141,1.001043 -0.228194,1.193716 -0.182021,1.256045 0.370612,0.500273 0.59506,-0.813792 0.678727,-0.81091 1.458051,0.05023 0.454719,0.502459 0.663909,1.076416 0.464864,1.275459 -0.199041,0.199044 0.02613,0.213003 0.500357,0.03102 0.474261,-0.181983 0.862273,-0.105225 0.862273,0.170572 0,0.275798 -0.356932,0.638419 -0.793189,0.805825 -1.178171,0.452108 -1.813348,0.36926 -1.466886,-0.191332 0.179058,-0.289717 -0.0345,-0.364907 -0.513901,-0.180941 -0.656483,0.251917 -0.686716,0.39942 -0.151408,0.738752 0.367874,0.233194 0.486301,0.427443 0.263176,0.431667 -0.427737,0.0081 0.0334,1.010578 0.464869,1.010578 0.137899,0 0.08757,-0.263999 -0.111853,-0.586666 z M 35.68133,27.571002 c 0.175678,-0.284252 -0.02562,-0.368319 -0.471854,-0.197076 -0.428023,0.164247 -0.77822,0.05678 -0.77822,-0.238825 0,-0.295601 -0.451305,-0.778988 -1.0029,-1.074192 -0.679961,-0.363905 -1.0029,-0.369586 -1.0029,-0.01764 0,0.285501 0.314334,0.519092 0.698525,0.519092 0.384191,0 0.82841,0.338479 0.987164,0.752175 0.329638,0.859029 1.118183,0.987827 1.570185,0.256469 z m 10.273214,-0.268587 c -0.348869,-0.420361 -0.764851,-0.633744 -0.924413,-0.474184 -0.159561,0.159559 0.04182,0.500035 0.447544,0.756614 1.061555,0.671348 1.200261,0.589199 0.476869,-0.28243 z m 10.945111,-0.5026 c -0.154391,-0.154391 -0.434782,0.123914 -0.623091,0.618454 -0.272127,0.714666 -0.214531,0.772264 0.280711,0.280709 0.342701,-0.34015 0.496772,-0.744774 0.34238,-0.899163 z m 5.095985,-0.488182 c 0,-0.275797 -0.218738,-0.162971 -0.486091,0.250725 -0.267353,0.413697 -0.48609,0.977828 -0.48609,1.253625 0,0.275798 0.218737,0.162971 0.48609,-0.250725 0.267353,-0.413696 0.486091,-0.977827 0.486091,-1.253625 z m -24.054235,0.250725 c -0.619933,-1.158353 -0.809476,-1.220098 -1.301508,-0.423971 -0.208934,0.338063 -0.138797,0.443576 0.168587,0.253605 0.289507,-0.178928 0.655771,0.01186 0.813914,0.423972 0.158142,0.412112 0.415381,0.749294 0.571637,0.749294 0.156257,0 0.04257,-0.451305 -0.25263,-1.0029 z m 16.99358,-0.947183 c -0.308929,-0.886193 -0.678798,-1.494151 -0.821932,-1.351017 -0.143134,0.143134 0.02618,0.951672 0.376198,1.796751 0.826665,1.995749 1.175303,1.647112 0.445734,-0.445734 z m 5.795241,1.087831 c 0.181986,-0.47424 0.170478,-0.70185 -0.02557,-0.505801 -0.196047,0.196049 -0.695531,0.07634 -1.109964,-0.26601 -0.664978,-0.549329 -0.670955,-0.489903 -0.05088,0.505801 0.841046,1.350518 0.775858,1.335903 1.186414,0.26601 z m -7.982781,-0.545253 c -0.154392,-0.15439 -0.559012,-3.18e-4 -0.899165,0.342382 -0.491551,0.495239 -0.433955,0.552838 0.280711,0.280709 0.49454,-0.18831 0.772845,-0.468702 0.618454,-0.623091 z m 6.254855,0.601349 c 0,-0.415013 -0.97368,-0.649704 -1.196916,-0.288498 -0.144824,0.23433 0.06523,0.426055 0.4668,0.426055 0.401561,0 0.730116,-0.0619 0.730116,-0.137557 z m 3.852694,-0.792215 c -0.160072,-0.400023 -0.278896,-0.281201 -0.302955,0.302959 -0.02176,0.528612 0.09674,0.82478 0.263371,0.658153 0.166627,-0.166628 0.184438,-0.599128 0.03956,-0.961112 z m -16.717351,-0.17833 c -0.163317,-0.425591 -0.404484,-0.666256 -0.535924,-0.534812 -0.131445,0.131444 -0.09025,0.479655 0.09154,0.773802 0.494455,0.800043 0.783455,0.644618 0.444384,-0.23899 z M 39.185256,24.96263 c -0.156261,-0.407204 -0.612746,-0.740371 -1.014413,-0.740371 -0.581957,0 -0.552111,0.173598 0.14694,0.854632 1.00629,0.980348 1.273984,0.945088 0.867473,-0.114261 z m 9.870871,-0.568635 c -1.079657,-1.149243 -0.961651,-2.279231 0.142341,-1.362999 0.392435,0.325693 0.584766,0.13048 0.621843,-0.631163 0.02954,-0.606484 -0.0581,-0.811215 -0.194708,-0.454957 -0.190751,0.497454 -0.411585,0.512294 -0.951792,0.06396 -0.386873,-0.321079 -0.703409,-0.81941 -0.703409,-1.107404 0,-0.287994 0.14848,-0.375148 0.329949,-0.193676 0.181475,0.181472 0.635558,0.07632 1.009083,-0.233682 0.513043,-0.425788 0.539971,-0.731313 0.110103,-1.249274 -0.31297,-0.377103 -0.409619,-0.685643 -0.214776,-0.685643 0.194844,0 -0.360617,-0.90261 -1.234359,-2.005799 -0.873741,-1.10319 -1.456837,-2.034007 -1.295761,-2.068481 1.122059,-0.240156 1.611885,-0.128889 2.074317,0.471192 0.436382,0.566273 0.65359,0.525059 1.253625,-0.237868 0.665635,-0.846327 0.653058,-0.865773 -0.151744,-0.234605 -0.482645,0.378516 -0.877537,0.509111 -0.877537,0.290209 0,-0.218902 0.394892,-0.867076 0.877537,-1.440387 0.87665,-1.041332 0.876399,-1.04142 -0.250725,-0.08713 -1.129034,0.95591 -1.571498,0.529381 -0.626812,-0.604242 0.36137,-0.433641 0.336684,-0.464991 -0.08836,-0.112221 -0.387952,0.321988 -0.820919,0.297715 -1.265103,-0.07093 -0.535879,-0.444743 -0.60357,-0.373535 -0.327873,0.344917 0.257715,0.671605 0.175944,0.799383 -0.316726,0.494898 -0.426809,-0.263781 -0.543932,-0.215961 -0.327762,0.133816 0.185015,0.299353 0.139017,0.666257 -0.102206,0.815343 -0.241227,0.149086 -0.396913,1.010874 -0.345965,1.915087 0.05095,0.904212 -0.132042,1.938819 -0.406646,2.299127 -0.359805,0.472111 -0.300469,0.612185 0.212424,0.50145 0.482596,-0.104193 0.702887,0.285602 0.684344,1.210894 -0.01504,0.750503 0.07702,1.260179 0.204586,1.132613 0.397871,-0.397871 1.582766,0.850057 1.276947,1.344879 -0.167935,0.271723 -0.627925,0.195097 -1.093637,-0.182181 -0.680126,-0.550981 -0.732297,-0.53544 -0.33912,0.101013 0.255564,0.413696 0.468118,0.977828 0.472346,1.253625 0.004,0.275797 0.27846,0.50145 0.609416,0.50145 0.330957,0 0.883806,0.282066 1.228553,0.626812 1.125293,1.125295 1.131892,0.658097 0.0076,-0.538651 z m -1.649855,-4.144131 c -0.03445,-0.113495 -0.119095,-0.432007 -0.188044,-0.707804 -0.06895,-0.275798 -0.177483,-0.557863 -0.241188,-0.626812 -0.0637,-0.06895 -0.157746,-0.875473 -0.208984,-1.792275 l -0.09315,-1.666912 1.023836,1.405504 c 0.563112,0.773028 1.027294,1.523138 1.031516,1.666912 0.004,0.143774 0.18678,0.543474 0.405683,0.88822 0.218903,0.344747 0.328275,0.644078 0.243048,0.665179 -1.048572,0.259622 -1.922277,0.334023 -1.972713,0.167988 z m 1.06197,-0.96288 c -0.269028,-0.324156 -0.372818,-0.705697 -0.230647,-0.847868 0.142171,-0.14217 -0.06732,-0.528893 -0.465536,-0.859383 -0.589931,-0.489598 -0.692156,-0.433176 -0.551936,0.30463 0.09465,0.498037 0.216085,1.018348 0.269846,1.156247 0.05376,0.137899 0.08356,0.382356 0.06623,0.543237 -0.01735,0.160882 0.290836,0.292513 0.68483,0.292513 0.491957,0 0.563133,-0.184619 0.227217,-0.589376 z m 15.389652,5.175553 c -0.160073,-0.400023 -0.278896,-0.281201 -0.302956,0.30296 -0.02176,0.528611 0.09674,0.82478 0.263372,0.658152 0.166627,-0.166627 0.184438,-0.599128 0.03956,-0.961112 z m -28.96219,0.231316 c 0.664862,0.518022 0.700199,0.496395 0.224338,-0.137294 C 34.782446,24.107 34.717829,23.400896 34.959433,22.801484 l 0.404234,-1.0029 0.04292,1.0029 c 0.0358,0.83672 0.12474,0.878265 0.536691,0.250725 0.43891,-0.668599 0.548637,-0.668599 0.987546,0 0.346537,0.52789 0.496059,0.560452 0.50145,0.109204 0.0087,-0.732422 -1.947983,-1.596189 -2.843998,-1.255438 -0.327332,0.124483 -0.458225,0.583154 -0.290871,1.019269 0.172122,0.448545 0.09352,0.662683 -0.180969,0.493038 -0.730432,-0.451434 -1.873436,0.437378 -1.447906,1.125906 0.262469,0.424678 0.528132,0.444643 0.904776,0.068 0.376649,-0.376648 0.764932,-0.352668 1.322394,0.08167 z m 26.376765,-0.45217 c 0.452724,0.173725 0.589559,0.0087 0.400749,-0.483343 -0.178823,-0.466 -0.02768,-0.692254 0.401626,-0.601275 0.378579,0.08023 0.691208,-0.233096 0.694723,-0.696276 0.0035,-0.46318 0.17276,-1.008507 0.376088,-1.211837 0.643119,-0.64312 0.399701,-2.041192 -0.355398,-2.041192 -0.56401,0 -0.608594,0.217668 -0.200695,0.979838 0.353668,0.660835 0.35613,0.875846 0.0076,0.66042 -0.284257,-0.17568 -0.648931,-0.105677 -0.810383,0.155563 -0.161457,0.261239 -0.06422,0.616715 0.216075,0.789948 0.586987,0.362779 0.696438,1.309892 0.133541,1.155581 -0.45482,-0.124684 -3.635512,1.527725 -3.635512,1.888694 0,0.14052 0.468936,0.0045 1.042083,-0.302216 0.573147,-0.306738 1.351438,-0.438996 1.729536,-0.293905 z M 45.749697,23.590475 c 0,-0.531346 -0.158027,-0.868419 -0.351171,-0.749051 -0.193138,0.119369 -0.441852,-0.05503 -0.552693,-0.387549 -0.124991,-0.374968 -0.329517,-0.27104 -0.538537,0.273645 -0.185351,0.483025 -0.137583,0.754977 0.106157,0.604338 0.24374,-0.150638 0.572551,0.06329 0.730693,0.475406 0.39074,1.018246 0.605551,0.941342 0.605551,-0.216789 z m 12.441036,0.187865 c 0.17124,-0.446253 0.08718,-0.647534 -0.197075,-0.471856 -0.272638,0.1685 -0.495708,0.518698 -0.495708,0.778219 0,0.721302 0.359424,0.562357 0.692783,-0.306363 z M 43.321406,22.576323 c -0.05566,-0.738841 -0.2316,-0.846224 -0.72101,-0.44005 -0.763548,0.633685 -0.868426,1.111729 -0.145942,0.665211 0.275797,-0.170452 0.50145,-0.07094 0.50145,0.221131 0,0.292074 0.0988,0.531044 0.21956,0.531044 0.120759,0 0.186429,-0.439801 0.145942,-0.977336 z m 10.577799,0.149263 c -0.169611,-0.866284 -2.418653,-1.518983 -2.418653,-0.701922 0,0.258231 0.451304,0.382598 1.002899,0.27637 0.628683,-0.121073 1.0029,0.07678 1.0029,0.530243 0,0.39786 0.129374,0.723382 0.287491,0.723382 0.158123,0 0.214536,-0.372633 0.125363,-0.828073 z m -3.061723,-4.054169 c -0.115258,-0.762235 -0.212645,-0.257619 -0.216411,1.121368 -0.004,1.378987 0.09054,2.002634 0.209566,1.385882 0.119025,-0.616752 0.122108,-1.745015 0.0069,-2.50725 z m 7.02597,2.400556 c -0.05566,-0.738841 -0.2316,-0.846224 -0.72101,-0.440049 -0.763547,0.633684 -0.868421,1.111729 -0.145942,0.66521 0.275798,-0.170452 0.50145,-0.07094 0.50145,0.221131 0,0.292074 0.0988,0.531044 0.21956,0.531044 0.120759,0 0.186434,-0.439801 0.145942,-0.977336 z m 3.646097,-0.853053 c 0,-0.362738 -1.932573,0.804778 -2.290337,1.38365 -0.187216,0.302921 0.251522,0.16293 0.974974,-0.311093 0.723447,-0.474023 1.315363,-0.956674 1.315363,-1.072557 z m -7.733666,-0.633977 c -0.708915,-0.783344 -0.720774,-0.981249 -0.09017,-1.504606 0.594448,-0.493348 0.758588,-0.392727 0.905202,0.554914 0.169018,1.092415 0.19533,1.08081 0.467727,-0.206279 0.158749,-0.750096 0.09558,-1.244497 -0.140381,-1.098668 -0.235957,0.145829 -0.436161,-0.03024 -0.444896,-0.391262 -0.0087,-0.361023 -0.479712,-0.0347 -1.046606,0.725163 -0.566894,0.759864 -1.199097,1.277508 -1.404887,1.150321 -0.205795,-0.127187 -0.374172,0.08477 -0.374172,0.471009 0,0.386242 0.244457,0.658381 0.543241,0.604754 0.298778,-0.05363 0.47409,0.222758 0.389581,0.61419 -0.127052,0.588454 -0.0185,0.59953 0.626812,0.06396 0.658344,-0.54638 0.78666,-0.500814 0.820056,0.291205 0.02437,0.577791 0.140592,0.686684 0.302184,0.283109 0.144428,-0.360705 -0.104733,-1.061721 -0.553691,-1.557813 z m 2.092355,0.857448 c -0.06895,-0.332211 0.213116,-0.619341 0.626812,-0.638066 0.44419,-0.02011 0.687112,-0.409359 0.593276,-0.950653 -0.106774,-0.615923 0.04202,-0.792434 0.453566,-0.53808 0.391432,0.24192 0.483338,0.169597 0.254667,-0.200404 -0.196789,-0.31841 -0.192728,-0.846015 0.009,-1.172456 0.253437,-0.410076 0.497453,-0.293833 0.789472,0.376088 0.294622,0.675892 0.33202,0.514218 0.123462,-0.533707 -0.375149,-1.88501 -0.530865,-2.035138 -1.37995,-1.33046 -0.376789,0.312706 -0.833545,0.420079 -1.015019,0.238607 -0.18147,-0.181472 -0.329949,-0.111818 -0.329949,0.154786 0,0.266604 0.269233,0.753968 0.598294,1.083031 0.46343,0.46343 0.356456,0.925406 -0.474552,2.049409 -0.590071,0.798111 -0.934522,1.589444 -0.765448,1.758518 0.472386,0.472388 0.654262,0.367909 0.516343,-0.296613 z M 56.9965,16.592549 c 0,-0.275798 0.225653,-0.640911 0.50145,-0.811363 0.275798,-0.170453 0.50145,-0.08426 0.50145,0.191537 0,0.275797 -0.225652,0.64091 -0.50145,0.811362 -0.275797,0.170453 -0.50145,0.08426 -0.50145,-0.191536 z m -15.371906,2.677159 c -0.163317,-0.425591 -0.404484,-0.666256 -0.535924,-0.534811 -0.131445,0.131444 -0.09025,0.479654 0.09154,0.773801 0.494455,0.800044 0.783455,0.644619 0.444384,-0.23899 z m 3.319338,-2.36026 c 0.0098,-0.482646 -0.186755,-0.877537 -0.436733,-0.877537 -0.249978,0 -0.343227,0.507718 -0.207224,1.128262 0.170222,0.776696 0.103514,0.9268 -0.214099,0.48172 -0.320311,-0.448868 -0.461374,-0.166776 -0.461374,0.922652 0,1.554647 0.006,1.558316 0.650832,0.395817 0.357955,-0.645357 0.658825,-1.568269 0.668598,-2.050914 z m -5.695182,1.894951 c -0.05955,-0.405713 -0.301412,-0.913431 -0.537474,-1.128262 -0.236068,-0.214831 -0.266892,-0.108536 -0.0685,0.236211 0.210158,0.365186 0.08674,0.630017 -0.29569,0.634491 -0.476974,0.0056 -0.450798,0.140555 0.09577,0.493771 0.961565,0.621413 0.932997,0.629787 0.805894,-0.236211 z m 23.895962,-1.650526 c -0.143124,-0.372982 -0.594714,-0.549796 -1.003526,-0.392919 -0.520395,0.199694 -0.653089,0.05015 -0.442485,-0.498676 0.17296,-0.450737 0.09013,-0.653698 -0.194893,-0.477543 -0.272639,0.1685 -0.495709,0.08142 -0.495709,-0.193516 0,-0.274934 -0.451305,-0.465883 -1.002899,-0.424333 -1.125785,0.0848 -1.199649,0.286087 -0.50145,1.366475 0.403557,0.62446 0.490102,0.581889 0.509719,-0.250725 l 0.02362,-1.0029 0.771621,1.0029 c 0.424387,0.551594 0.981342,0.946486 1.237673,0.877537 0.807686,-0.217256 0.50821,0.429996 -0.662204,1.431211 -1.12555,0.962835 -1.124477,0.963082 0.446245,0.102897 0.936478,-0.512849 1.469058,-1.137063 1.31428,-1.540408 z m -2.638063,1.164156 c 0,-0.121622 -0.225652,-0.360591 -0.501449,-0.531044 -0.275798,-0.170452 -0.50145,-0.07094 -0.50145,0.221131 0,0.292074 0.225652,0.531044 0.50145,0.531044 0.275797,0 0.501449,-0.09951 0.501449,-0.221131 z m -18.70943,-2.662206 c -0.12613,-0.482645 -0.229328,-0.08775 -0.229328,0.877538 0,0.965291 0.103198,1.360182 0.229328,0.877537 0.126124,-0.482646 0.126124,-1.272429 0,-1.755075 z m 10.993019,0.834709 c 0.734655,0.07064 0.564462,-2.147637 -0.238073,-3.103082 -0.572701,-0.68182 -0.609377,-1.027055 -0.157154,-1.479277 0.324438,-0.32444 0.586435,-0.826826 0.582213,-1.116414 -0.004,-0.289587 -0.22642,-0.188043 -0.493773,0.225653 -0.418911,0.648218 -0.487153,0.634982 -0.493772,-0.09577 -0.004,-0.466369 -0.232648,-0.9869835 -0.507613,-1.1569205 -0.318717,-0.19698 -0.353648,0.11038 -0.09636,0.8479435 0.439055,1.258649 0.395363,2.600153 -0.135672,4.165619 -0.24549,0.723687 -0.141048,0.669924 0.375145,-0.193108 0.428714,-0.71678 0.847721,-0.981821 1.045713,-0.661462 0.181701,0.294001 0.09735,0.678557 -0.187442,0.85457 -0.284793,0.176013 -0.397619,0.514492 -0.250725,0.752175 0.146895,0.237683 0.03776,0.573887 -0.242546,0.747119 -0.280295,0.173233 -0.506173,0.583717 -0.501951,0.912187 0.0052,0.406806 0.143013,0.383715 0.432154,-0.07242 0.23346,-0.368303 0.624897,-0.650368 0.869855,-0.626812 z M 40.351809,15.767917 c -0.154391,-0.154391 -0.434782,0.123914 -0.623091,0.618455 -0.272127,0.714665 -0.214531,0.772263 0.280711,0.280709 0.342701,-0.340151 0.496772,-0.744774 0.34238,-0.899164 z m 2.44519,0.169972 c -0.160072,-0.400023 -0.278896,-0.281201 -0.302956,0.302959 -0.02176,0.528612 0.09674,0.824781 0.263372,0.658153 0.166627,-0.166628 0.184438,-0.599128 0.03961,-0.961112 z m 7.513504,0.366805 c 0,-0.401565 -0.191724,-0.611625 -0.426056,-0.466801 -0.234328,0.144824 -0.296232,0.473376 -0.137558,0.730117 0.405487,0.656088 0.563614,0.582212 0.563614,-0.263316 z m 3.743048,-2.951533 c -0.307173,-0.370123 -0.391216,-0.857606 -0.18676,-1.083295 0.204451,-0.225689 0.07871,-0.241251 -0.279428,-0.03458 -0.501685,0.289507 -0.516373,0.538175 -0.06396,1.083295 0.322959,0.389142 0.700024,0.707532 0.837923,0.707532 0.137899,0 -5.01e-4,-0.302828 -0.307775,-0.672952 z m -5.059935,-2.373706 c 0.511203,-0.95519 0.470224,-0.9943905 -0.49785,-0.47629 -0.580197,0.310511 -0.922441,0.778897 -0.760538,1.040856 0.427636,0.691935 0.635943,0.59848 1.258388,-0.564566 z m 1.314686,-1.0903055 c -0.139107,-0.344747 -0.252926,-0.06268 -0.252926,0.6268125 0,0.689494 0.113819,0.971559 0.252926,0.626812 0.139107,-0.344746 0.139107,-0.908878 0,-1.2536245 z m 22.98532,76.3712555 c 0.551594,-0.25106 1.567031,-0.47642 2.256524,-0.5008 0.689494,-0.0244 2.4383,-0.69748 3.886237,-1.49578 2.699946,-1.48858 3.409353,-1.39456 1.629712,0.216 -0.551595,0.49918 -1.0029,0.75401 -1.0029,0.56629 0,-0.18773 -0.620544,-0.0263 -1.378987,0.35862 -0.758443,0.38496 -2.50725,0.83768 -3.886237,1.00603 -1.686932,0.20596 -2.179125,0.15676 -1.504349,-0.15036 z M 59.0023,71.943575 c 0.647748,-0.68949 1.290546,-1.25363 1.428445,-1.25363 0.137899,0 -0.279247,0.56414 -0.926995,1.25363 -0.647748,0.68949 -1.290547,1.25362 -1.428445,1.25362 -0.137899,0 0.279247,-0.56413 0.926995,-1.25362 z m 4.109357,-9.0261 c 0.01023,-0.82739 0.122604,-1.10516 0.249742,-0.61727 0.127137,0.4879 0.118778,1.16485 -0.01855,1.50435 -0.137362,0.3395 -0.241383,-0.0597 -0.231163,-0.88708 z m -0.05817,-3.55193 c 0.02407,-0.58417 0.142884,-0.70299 0.302956,-0.30297 0.144854,0.36199 0.127043,0.79449 -0.03956,0.96112 -0.166632,0.16663 -0.285144,-0.12955 -0.263372,-0.65815 z"
     style="fill:#000000;stroke-width:0.50144988" />
</svg>
