<?xml version="1.0" encoding="UTF-8" standalone="no"?>
<svg
   xmlns:dc="http://purl.org/dc/elements/1.1/"
   xmlns:cc="http://creativecommons.org/ns#"
   xmlns:rdf="http://www.w3.org/1999/02/22-rdf-syntax-ns#"
   xmlns:svg="http://www.w3.org/2000/svg"
   xmlns="http://www.w3.org/2000/svg"
   id="svgGSW16"
   version="1.1"
   viewBox="0 0 100 100"
   height="100"
   width="100">
  <defs
     id="defs2" />
  <metadata
     id="metadata5">
    <rdf:RDF>
      <cc:Work
         rdf:about="">
        <dc:format>image/svg+xml</dc:format>
        <dc:type
           rdf:resource="http://purl.org/dc/dcmitype/StillImage" />
        <dc:title></dc:title>
      </cc:Work>
    </rdf:RDF>
  </metadata>
  <path
     id="pathGSW16"
     d="m 38.008998,88.705679 c -1.515323,-0.2927 -3.391915,-2.6263 -3.391915,-4.21797 0,-0.6636 0.515031,-1.86131 1.144518,-2.66157 0.873054,-1.10991 1.533771,-1.41592 2.785599,-1.29016 2.902776,0.2916 3.456142,3.59358 0.693253,4.1367 -0.735097,0.1445 -0.862385,-0.0626 -0.581783,-0.94672 0.260158,-0.81969 0.125416,-1.13169 -0.488745,-1.13169 -0.466365,0 -0.847931,-0.24344 -0.847931,-0.54098 0,-0.29754 -0.25781,-0.54098 -0.572911,-0.54098 -0.323891,0 -0.388544,0.29392 -0.148743,0.67622 0.233288,0.37193 0.351611,1.11677 0.262945,1.65521 -0.224887,1.36564 0.891917,2.5374 2.418385,2.5374 0.782651,0 1.286219,0.31771 1.286219,0.81148 0,0.44631 0.255538,0.81147 0.567863,0.81147 0.375772,0 0.393662,-0.31128 0.05291,-0.92021 -0.394852,-0.70556 -0.07044,-1.46272 1.390741,-3.2459 1.870841,-2.2831 2.85735,-2.88826 2.85735,-1.75276 0,0.3151 -0.226623,0.43285 -0.503601,0.26167 -0.276982,-0.1712 -0.67976,-0.0263 -0.895061,0.32214 -0.243084,0.39332 -0.157074,0.48854 0.226916,0.25122 0.400127,-0.2473 0.504666,-0.0859 0.296198,0.4574 -0.187245,0.48795 -0.0336,0.83957 0.366851,0.83957 0.378964,0 0.528843,-0.16019 0.333062,-0.35597 -0.195777,-0.19578 -0.110431,-0.6518 0.189663,-1.01339 0.698137,-0.8412 0.148586,-2.29125 -1.010723,-2.6669 -0.493209,-0.15981 -2.174852,-1.47008 -3.736976,-2.91172 l -2.840239,-2.62113 -1.423692,1.86655 c -1.838875,2.41089 -4.439679,3.46519 -8.500244,3.44577 -2.383103,-0.0114 -3.649548,-0.30386 -4.70956,-1.08756 -0.797451,-0.58957 -2.395643,-1.46119 -3.551543,-1.93693 -4.610263,-1.89745 -12.433354,-12.2736 -13.4764,-17.8744 -1.083084,-5.815791 -1.39746,-8.683521 -1.088895,-9.932773 0.193975,-0.785321 0.564299,-2.727507 0.822942,-4.315967 0.270275,-1.659893 1.120007,-3.827786 1.998118,-5.097728 0.840325,-1.215292 2.189637,-3.445552 2.998482,-4.956135 1.309999,-2.446544 5.983107,-7.344864 7.007165,-7.344864 0.215971,0 1.074683,-0.636812 1.908251,-1.415137 0.833562,-0.778325 2.854504,-2.086105 4.490975,-2.906177 1.636472,-0.820072 3.82745,-1.936398 4.868841,-2.480724 2.032136,-1.06218 7.788945,-1.735689 8.265323,-0.966989 0.158757,0.256171 -0.914785,0.380795 -2.385641,0.276942 -3.338908,-0.23575 -7.697641,1.74072 -10.250261,4.647989 -4.401859,5.013442 -6.448796,13.424023 -3.85517,15.840356 1.480415,1.379213 1.532008,1.829772 0.123187,1.075796 -0.899421,-0.481356 -1.014006,-0.427178 -0.719539,0.340203 0.225899,0.588673 0.139368,0.782402 -0.243712,0.545644 -0.331276,-0.204738 -0.745241,0.109527 -0.936008,0.710575 -0.21926,0.690826 -0.750434,1.033481 -1.479749,0.954575 -0.945924,-0.102342 -1.155998,0.196102 -1.246153,1.770345 -0.176197,3.076554 -0.20771,3.157703 -1.369269,3.526368 -0.822861,0.261166 -1.069917,0.729497 -0.946719,1.794648 0.105124,0.908889 0.450308,1.380031 0.934498,1.275494 0.663082,-0.143161 0.663082,-0.03677 0,0.780073 -0.422291,0.520215 -0.477914,0.771938 -0.123614,0.559385 0.472607,-0.283528 0.560279,0.157099 0.32916,1.654346 -0.173255,1.122443 -0.125172,1.865134 0.106855,1.650423 0.232033,-0.21471 0.499597,-1.3102 0.594588,-2.434421 0.247327,-2.927054 0.632896,-4.485382 1.312391,-5.304117 0.353478,-0.425921 0.446814,-1.497815 0.230713,-2.649717 -0.249458,-1.329734 -0.163577,-1.934446 0.274743,-1.934446 0.366797,0 0.506944,0.411802 0.329934,0.969498 -0.178026,0.560922 0.823695,-0.06604 2.376963,-1.487702 l 2.684663,-2.457199 -1.36868,-1.223288 -1.368685,-1.223288 1.660177,-0.332036 c 1.590407,-0.318081 1.660183,-0.447073 1.660183,-3.069015 0,-1.677527 0.441165,-3.648302 1.139698,-5.091284 1.467306,-3.03105 6.262017,-8.29802 7.219507,-7.930597 0.400429,0.153658 0.888763,0.01934 1.085194,-0.298483 0.567003,-0.917431 2.892329,-0.670673 3.475914,0.368856 0.446754,0.795795 0.573571,0.817356 0.795493,0.135245 0.75315,-2.31491 0.806762,-2.393766 0.848006,-1.247377 0.02348,0.652873 -0.558202,1.870083 -1.29265,2.704911 -0.734448,0.834827 -1.343054,1.227933 -1.352456,0.873568 -0.0094,-0.354365 0.215717,-0.788185 0.500262,-0.964044 0.829889,-0.512903 0.0049,-1.90804 -1.128304,-1.90804 -1.676537,0 -5.720082,4.175895 -7.518491,7.764578 -1.336503,2.666967 -1.644338,3.914807 -1.554394,6.300962 0.06508,1.726519 -0.111914,2.931251 -0.421669,2.870212 -0.293602,-0.05786 -0.533582,0.185587 -0.53329,0.540982 2.87e-4,0.355396 0.750467,0.701975 1.667065,0.770177 0.916597,0.0682 1.971274,0.540755 2.34373,1.050117 0.588843,0.805292 0.677191,0.81431 0.677191,0.06912 0,-0.896769 -1.411494,-1.76209 -2.569667,-1.575341 -0.371925,0.05997 -0.676228,-0.145076 -0.676228,-0.455659 0,-0.310583 0.304303,-0.568425 0.676228,-0.572981 0.450817,-0.0055 0.405737,-0.183089 -0.135245,-0.532699 -0.680729,-0.439922 -0.68635,-0.525749 -0.03484,-0.532698 0.427133,-0.0046 1.34004,0.521035 2.028684,1.167981 1.210112,1.136842 1.252076,1.140468 1.252076,0.108197 0,-1.370775 0.997778,-2.360556 2.407372,-2.388086 0.95788,-0.01871 0.906275,-0.131647 -0.378688,-0.828751 -0.818236,-0.443901 -1.514388,-0.981899 -1.547009,-1.195551 -0.430357,-2.818869 -0.232168,-4.286132 0.760269,-5.628472 0.619003,-0.837246 1.540518,-1.522266 2.047808,-1.522266 0.50729,0 1.062473,-0.365163 1.233743,-0.811474 0.440625,-1.148255 2.165384,-1.006171 3.323752,0.273808 0.540193,0.596905 0.882223,1.157469 0.760075,1.245699 -0.122154,0.08823 -0.870408,0.565372 -1.662785,1.060316 -2.04474,1.277206 -2.441015,3.672605 -1.067007,6.449733 0.863906,1.746101 0.976917,2.474896 0.521372,3.362172 l -0.581621,1.13283 1.013482,-1.113766 c 1.296637,-1.424939 2.90692,-4.428372 2.90692,-5.421863 0,-0.422197 -0.344877,-0.767632 -0.766394,-0.767632 -0.421512,0 -0.898739,-0.304303 -1.060493,-0.676228 -0.161759,-0.371925 -0.155657,-0.0068 0.01358,0.811474 0.370438,1.791223 -0.201711,1.974352 -0.845096,0.270491 -0.575335,-1.523644 0.203193,-3.110649 1.525976,-3.110649 0.860119,0 1.02699,-0.579851 1.243578,-4.321226 0.254786,-4.401369 1.216452,-6.49842 2.980039,-6.49842 0.417752,0 0.621837,-0.222829 0.453516,-0.495176 -0.168321,-0.272347 0.304195,-1.220397 1.050036,-2.106778 0.745842,-0.88638 1.327836,-2.185064 1.293321,-2.885963 -0.04566,-0.927574 -0.130425,-1.014932 -0.311432,-0.32102 -0.136777,0.524339 -0.463067,0.820845 -0.725095,0.658903 -0.262025,-0.161941 -0.323952,-0.691741 -0.137616,-1.177333 0.249848,-0.651082 0.137111,-0.768564 -0.429361,-0.447451 -0.511991,0.29023 -0.472564,0.120874 0.118231,-0.507838 1.112313,-1.183699 2.80184,-0.720084 3.57718,0.981594 0.738809,1.621515 2.488838,1.722448 2.086742,0.120353 -0.344887,-1.374123 0.161088,-2.178877 1.43376,-2.280418 0.61316,-0.04892 1.072411,0.431812 1.292007,1.352456 0.53316,2.235249 0.806685,2.430039 1.503146,1.070473 0.433333,-0.845903 1.050734,-1.22052 1.863365,-1.130627 0.768293,0.08499 1.080245,-0.0841 0.848104,-0.45971 -0.257384,-0.416457 -0.02407,-0.410523 0.780048,0.01984 1.335832,0.714915 1.499586,2.314957 0.335777,3.280833 -0.686225,0.569517 -0.811473,0.454493 -0.811473,-0.745232 0,-0.780284 -0.243442,-1.418697 -0.540982,-1.418697 -0.673189,0 -0.691803,1.374697 -0.04896,3.616116 0.383995,1.338901 0.317081,1.782662 -0.30478,2.021292 -0.438232,0.168166 -0.632159,0.572129 -0.430946,0.897696 0.247602,0.400636 0.543374,0.414401 0.915186,0.04259 0.325178,-0.325178 0.907341,-0.360528 1.42664,-0.08663 0.482513,0.254496 1.305423,0.595379 1.828693,0.757519 1.578274,0.489041 2.328243,2.789809 1.582034,4.853402 -0.352013,0.973433 -0.64001,2.292698 -0.64001,2.9317 0,0.810474 -0.2454,1.067654 -0.811473,0.850431 -0.44631,-0.171264 -0.811473,-0.04191 -0.811473,0.287471 0,0.329374 0.486884,0.598861 1.081964,0.598861 0.595081,0 1.081965,0.227272 1.081965,0.505049 0,0.277777 0.669465,0.582079 1.487701,0.676228 1.839962,0.211711 2.401069,2.420524 0.894698,3.522008 -1.384099,1.012076 -2.011025,0.872577 -1.684808,-0.374888 0.155538,-0.594784 0.05824,-1.220211 -0.21622,-1.389836 -0.274461,-0.169626 -0.335712,-0.572646 -0.136116,-0.895599 0.199595,-0.322953 0.134639,-0.446117 -0.14434,-0.273697 -0.69368,0.428719 -0.58498,2.773076 0.299083,6.450321 l 0.740534,3.080254 1.593669,-3.350745 c 0.876516,-1.84291 1.619095,-4.130664 1.650168,-5.083898 0.05894,-1.807974 -1.39067,-3.947162 -2.674779,-3.947162 -1.013731,0 -0.913535,-1.435849 0.128094,-1.835559 1.396475,-0.535879 3.472138,-0.374178 3.472138,0.270492 0,0.329373 0.35812,0.461438 0.795817,0.293477 0.437698,-0.167961 1.107164,0.04099 1.487702,0.464329 1.745996,1.942402 2.133407,2.521467 1.865909,2.788969 -0.158175,0.15817 -0.595791,-0.205939 -0.972494,-0.809131 -0.515703,-0.825771 -0.917799,-0.972073 -1.627597,-0.592199 -0.628719,0.336481 -1.071551,0.296009 -1.3296,-0.121519 -0.212801,-0.344317 -0.155088,-0.48276 0.128245,-0.30765 0.283333,0.175111 0.868693,0.09473 1.300798,-0.17862 0.624146,-0.394842 0.553969,-0.498706 -0.341403,-0.505287 -0.619879,-0.0046 -1.296389,-0.177625 -1.503363,-0.384597 -0.518104,-0.518107 -2.085476,-0.736625 -2.979233,-0.415356 -0.496617,0.178513 -0.0508,0.807655 1.352455,1.908673 2.833396,2.223103 3.447155,3.128805 3.437429,5.072445 -0.0057,1.137373 -0.154116,1.424627 -0.474674,0.918681 -0.256518,-0.404862 -0.362853,-1.135189 -0.236306,-1.622947 0.126551,-0.487758 -0.160159,-1.373718 -0.637131,-1.968798 -0.852025,-1.063003 -0.857219,-1.061256 -0.296399,0.09968 0.767411,1.58858 0.720654,2.483183 -0.1054,2.016811 -0.537606,-0.30352 -0.539121,-0.233951 -0.0074,0.339374 0.534788,0.576621 0.480576,0.936441 -0.270491,1.795303 -0.516633,0.590781 -0.651852,0.906609 -0.300489,0.701839 0.351368,-0.204769 0.79176,-0.124893 0.978648,0.1775 0.186915,0.302394 0.73579,0.549806 1.219753,0.549806 0.483956,0 1.445129,0.530987 2.135941,1.179971 1.188419,1.116461 1.293718,1.128418 1.956384,0.222166 0.385197,-0.526793 1.052891,-0.876849 1.483754,-0.777905 1.497261,0.34383 1.194609,-2.479964 -0.93663,-8.738966 -1.86554,-5.478717 -3.023752,-7.03277 -5.241379,-7.03277 -0.961624,0 -2.040538,0.29213 -2.397585,0.649179 -0.440895,0.440895 -0.649178,0.457875 -0.649178,0.05292 0,-0.859489 2.790354,-1.70661 4.060169,-1.232624 0.593536,0.221551 1.505388,0.876973 2.026341,1.456494 1.346659,1.498075 3.445352,6.902876 4.138506,10.657983 0.721203,3.90702 1.417515,4.822971 0.949588,1.249113 -0.284568,-2.173417 -1.633456,-6.762139 -3.37481,-11.480611 -0.365589,-0.990627 -0.283266,-0.976371 0.975194,0.168869 1.730875,1.575147 4.372658,7.296131 5.734883,12.419302 0.959248,3.60763 0.972911,3.974928 0.165394,4.446653 -0.484118,0.282811 -0.624604,0.521603 -0.312189,0.530651 3.193936,0.0925 2.124198,-10.325343 -1.646061,-16.030534 -3.251107,-4.919593 -7.173639,-6.992123 -10.570523,-5.585088 -2.717993,1.12583 -3.369249,3.097882 -1.605511,4.861619 1.041196,1.041198 1.043376,1.081965 0.05788,1.081965 -2.186229,0 -2.246538,-3.304394 -0.09949,-5.451437 2.498078,-2.498078 6.253696,-2.007314 9.640889,1.25982 0.965269,0.931054 2.112839,1.745341 2.550152,1.809525 1.070807,0.157161 4.080039,2.332133 4.080039,2.948917 0,0.271232 0.950217,0.977917 2.111602,1.570409 2.00761,1.024206 5.46215,4.586148 5.46215,5.631968 0,0.269452 0.820037,2.100661 1.822309,4.069353 1.002267,1.968693 1.989993,4.431488 2.194945,5.47288 0.204957,1.04139 0.736076,3.418409 1.180277,5.282262 0.444198,1.863854 0.661993,3.624469 0.483994,3.912478 -0.178,0.28801 -0.38101,2.546865 -0.451134,5.01968 -0.11107,3.916431 -0.334378,4.830551 -1.73223,7.090951 -0.882599,1.4272 -2.141484,3.48599 -2.797521,4.57507 -0.656048,1.08908 -1.962698,2.51048 -2.903672,3.15866 -0.940974,0.64819 -2.16694,1.92849 -2.724376,2.84511 -1.229947,2.02249 -4.029654,3.81586 -5.961418,3.8186 -0.781899,0.001 -2.317536,0.37636 -3.412529,0.83387 -4.257827,1.77904 -8.041742,0.96766 -11.530548,-2.47247 -1.642947,-1.62001 -2.421946,-3.16131 -1.223404,-2.42057 0.317654,0.19632 0.390151,-0.0464 0.178556,-0.59781 -0.211886,-0.55215 -0.139211,-0.79419 0.179347,-0.59731 1.185714,0.73282 3.204898,0.76168 3.862235,0.0552 0.586425,-0.63026 0.35245,-0.7497 -1.46867,-0.7497 -1.612555,0 -2.314225,-0.27655 -2.745274,-1.08197 -0.318477,-0.59508 -0.831317,-1.08196 -1.139639,-1.08196 -0.308327,0 -0.188381,0.3722 0.266537,0.82713 0.454923,0.45492 0.690558,1.18303 0.523638,1.61801 -0.62246,1.62212 -5.812628,6.78624 -6.539952,6.50714 -0.407289,-0.15629 -0.602632,-0.061 -0.434089,0.21167 0.168548,0.27271 -0.183972,0.65149 -0.783375,0.84173 -0.599403,0.19024 -1.08982,0.53962 -1.08982,0.77639 0,0.48653 5.184267,5.4474 5.692703,5.4474 0.181078,0 0.826053,-0.26589 1.433279,-0.59087 0.856494,-0.45838 1.034282,-0.93968 0.792907,-2.14656 -0.220229,-1.10114 -0.05871,-1.69696 0.552808,-2.03918 0.597137,-0.33417 0.674243,-0.60073 0.249669,-0.86313 -0.337849,-0.20881 -0.760318,10e-4 -0.938821,0.46612 -0.178503,0.46517 -0.663666,0.84576 -1.078145,0.84576 -0.414474,0 -0.753594,0.51669 -0.753594,1.1482 0,0.95929 -0.133514,1.03741 -0.811474,0.47475 -1.866951,-1.54943 0.138248,-4.7499 2.59037,-4.13446 2.780043,0.69775 3.346554,5.04304 0.967628,7.42196 -2.57599,2.576 -5.406816,1.83408 -8.800203,-2.30641 -1.608854,-1.96308 -2.221138,-2.33355 -3.85663,-2.33355 -1.651219,0 -2.339809,0.42794 -4.570073,2.84016 -2.831242,3.06223 -3.380426,3.29546 -4.685848,1.99004 -0.467566,-0.46756 -0.850116,-0.63797 -0.850116,-0.37869 0,0.25929 0.29213,0.76356 0.649179,1.12061 0.660447,0.66045 0.54438,0.68013 -1.585122,0.2688 z m 20.411307,-0.70159 c 0,-0.29754 -0.107352,-0.54098 -0.238563,-0.54098 -0.131209,0 -0.38902,0.24344 -0.57291,0.54098 -0.183891,0.29754 -0.07654,0.54098 0.238562,0.54098 0.315101,0 0.572911,-0.24344 0.572911,-0.54098 z m 1.870333,0.0374 c 0.171188,-0.27699 0.06383,-0.65652 -0.238563,-0.84341 -0.302392,-0.18689 -0.549805,0.0397 -0.549805,0.5036 0,0.95025 0.324621,1.09017 0.788368,0.33981 z m -3.49328,-1.11935 c 0,-0.29754 -0.107352,-0.54099 -0.238562,-0.54099 -0.13121,0 -0.389021,0.24345 -0.572912,0.54099 -0.18389,0.29754 -0.07654,0.54098 0.238563,0.54098 0.3151,0 0.572911,-0.24344 0.572911,-0.54098 z m 5.409824,-0.57291 c 0,-0.27998 -0.243443,-0.50906 -0.540983,-0.50906 -0.29754,0 -0.540982,0.37953 -0.540982,0.84341 0,0.46387 0.243442,0.69294 0.540982,0.50905 0.29754,-0.18389 0.540983,-0.56342 0.540983,-0.8434 z m -18.719617,0.12209 c 0.153244,-0.24795 -0.06512,-0.45082 -0.485256,-0.45082 -0.420132,0 -0.6385,0.20287 -0.485256,0.45082 0.153239,0.24795 0.371606,0.45082 0.485256,0.45082 0.113649,0 0.332017,-0.20287 0.485256,-0.45082 z m 11.883672,-0.89853 c -0.17061,-0.4446 -0.554123,-0.65762 -0.852253,-0.47336 -0.333299,0.20599 -0.259385,0.51412 0.191935,0.80008 0.985026,0.62415 1.018789,0.60744 0.660318,-0.32672 z m -11.360629,-1.08195 c -0.17061,-0.44461 -0.532105,-0.67122 -0.803321,-0.50361 -0.567263,0.35059 -0.111886,1.31197 0.621443,1.31197 0.270642,0 0.352488,-0.36377 0.181878,-0.80836 z m 18.737556,-0.51216 c 0,-1.20472 -0.847189,-1.44452 -0.936046,-0.26494 -0.04328,0.57447 0.149636,1.04448 0.428685,1.04448 0.27905,0 0.507361,-0.3508 0.507361,-0.77954 z m -8.655717,-0.2705 c 0,-0.90691 -0.959455,-1.13148 -1.278791,-0.29931 -0.188424,0.49103 0.0016,0.80837 0.484293,0.80837 0.436973,0 0.794498,-0.22908 0.794498,-0.50906 z m -13.79505,-1.11389 c 0.183891,-0.29754 0.07654,-0.54098 -0.238562,-0.54098 -0.315101,0 -0.572912,0.24344 -0.572912,0.54098 0,0.29754 0.107353,0.54098 0.238563,0.54098 0.13121,0 0.38902,-0.24344 0.572911,-0.54098 z m 10.773999,-1.42857 c 0.169673,-0.44217 0.553657,-0.65242 0.853302,-0.46723 0.299639,0.18519 0.544801,0.12715 0.544801,-0.12898 0,-0.64012 -3.713124,-0.69614 -4.105087,-0.0619 -0.459565,0.7436 0.811593,2.07103 1.66839,1.74224 0.401554,-0.15408 0.86892,-0.64193 1.038594,-1.08409 z m -2.042826,0.51223 c -0.609243,-0.60925 -0.371054,-1.24759 0.465526,-1.24759 0.446311,0 0.811474,0.22908 0.811474,0.50906 0,0.68216 -0.844793,1.17074 -1.277,0.73853 z m 10.879821,-0.49446 c 0.799101,-0.7991 0.788611,-0.85408 -0.129062,-0.67623 -0.549379,0.10648 -1.100196,0.4979 -1.224033,0.86982 -0.311405,0.93527 0.313668,0.84583 1.353095,-0.19359 z m -4.019029,-5.24253 c 1.838329,-1.79355 3.543094,-3.21522 3.788364,-3.15927 0.245271,0.0559 0.296924,-0.1394 0.114786,-0.43411 -0.182138,-0.2947 0.186801,-1.55113 0.81987,-2.79204 1.082614,-2.1221 1.168424,-3.66155 0.437552,-7.85009 -0.110436,-0.63289 -1.922187,-0.37549 -2.36161,0.33551 -0.140861,0.22792 0.09853,0.70871 0.53197,1.06843 0.962386,0.79872 0.567928,4.84626 -0.712685,7.3128 l -0.842623,1.62295 -0.326213,-1.89344 c -0.179417,-1.04139 -0.226579,-2.93603 -0.104815,-4.2103 0.193239,-2.02213 0.328446,-2.22859 1.062933,-1.62295 0.747935,0.61673 0.765046,0.5504 0.153833,-0.59638 -0.542302,-1.0175 -0.788032,-1.13187 -1.162246,-0.54099 -0.261002,0.41213 -0.478282,1.38818 -0.482838,2.169 -0.01196,2.04955 -1.487517,5.93136 -2.775969,7.30286 -0.609498,0.64878 -2.222723,1.46024 -3.584949,1.80326 -3.118752,0.78531 -5.099478,0.0669 -6.626157,-2.40332 -1.504797,-2.43482 -1.398283,-7.90174 0.135488,-6.95382 0.370303,0.22885 0.400988,0.0866 0.0882,-0.40885 -0.263826,-0.41789 -0.605743,-1.97702 -0.75981,-3.46472 -0.257123,-2.482762 -0.404941,-2.719226 -1.799783,-2.879175 -2.755807,-0.316016 -2.643218,-3.800958 0.160314,-4.962221 0.896409,-0.371302 1.629829,-0.862223 1.629829,-1.090934 0,-0.228711 -1.094986,-1.90327 -2.4333,-3.721244 -2.170298,-2.948137 -2.636965,-3.305407 -4.317553,-3.305407 -1.567881,0 -1.942306,0.231309 -2.230017,1.37765 -0.432076,1.721524 0.07965,2.281824 1.356016,1.484722 0.914352,-0.571022 0.975235,-0.365615 0.888001,2.995881 -0.09704,3.739299 -0.499116,4.839623 -3.060516,8.375528 l -1.517693,2.09512 -0.312039,-1.53742 c -0.171624,-0.8456 -0.531663,-2.26776 -0.800088,-3.160381 -0.554599,-1.844233 -0.457687,-8.123273 0.134509,-8.715473 0.21509,-0.215085 0.391066,-0.884913 0.391066,-1.488507 0,-0.603595 0.63897,-1.764388 1.419938,-2.579542 1.081526,-1.128866 1.336935,-1.81282 1.071659,-2.869759 -0.387068,-1.542195 -1.549298,-1.936985 -1.298104,-0.440943 0.194035,1.155587 -1.282631,1.280772 -1.595335,0.135246 -0.196901,-0.72131 -0.157745,-0.72131 0.352374,0 0.475254,0.672013 0.575308,0.602283 0.582168,-0.405737 0.0125,-1.834337 1.564304,-1.491351 2.447642,0.540982 l 0.764186,1.758193 0.02115,-1.654795 c 0.02856,-2.231908 -1.076083,-3.633008 -2.681124,-3.400669 -1.040006,0.150548 -1.418921,0.696882 -1.960179,2.826292 -0.781254,3.073587 -1.542692,4.084638 -2.417429,3.209901 -0.423507,-0.423504 -0.40011,-0.704316 0.08358,-1.003256 0.46129,-0.285091 0.534604,-0.1933 0.234045,0.293018 -0.283458,0.458646 -0.22593,0.577296 0.16328,0.336752 0.859789,-0.531379 0.136117,-2.0446 -0.883857,-1.848171 -0.951253,0.183194 -1.578322,1.943005 -1.659918,4.658395 -0.0416,1.384379 0.372959,2.197127 1.813854,3.556067 1.357709,1.28048 1.786194,2.073552 1.569017,2.904038 -0.323524,1.237149 -2.318148,3.31552 -2.412338,2.513621 -0.03165,-0.26927 -0.09249,-0.955114 -0.135245,-1.524096 -0.111926,-1.489498 -1.251651,-1.662382 -1.980549,-0.300427 -1.385666,2.589142 1.65737,7.235861 6.191283,9.454101 1.658133,0.81125 3.014792,1.55154 3.014792,1.6451 0,0.54101 -2.736667,-0.25154 -3.498219,-1.0131 -0.498807,-0.4988 -1.132974,-0.93735 -1.409264,-0.97454 -0.276285,-0.0372 -0.725495,-0.0981 -0.998242,-0.13524 -0.710549,-0.0969 -1.39349,-0.86546 -1.42213,-1.60041 -0.01352,-0.34713 -0.335917,-0.56425 -0.716433,-0.4825 -0.380522,0.0818 -0.537666,-0.10082 -0.34922,-0.40573 0.188445,-0.30492 0.07045,-0.55439 -0.262209,-0.55439 -0.332661,0 -0.454382,-0.24344 -0.270491,-0.540983 0.18389,-0.29754 0.06217,-0.540982 -0.270492,-0.540982 -0.33266,0 -0.484812,-0.194205 -0.338113,-0.431566 0.146698,-0.237362 0.05242,-0.778284 -0.209463,-1.20205 -0.401209,-0.649169 -0.529519,-0.631496 -0.81492,0.112248 -0.465288,1.212526 0.965199,3.794773 3.101257,5.598243 1.593052,1.345 6.945742,4.18941 7.271235,3.86391 0.07118,-0.0712 0.277248,-0.97406 0.457936,-2.00641 0.412921,-2.35921 1.549541,-4.1296 2.933212,-4.56876 1.042813,-0.33098 4.326122,0.97775 4.412771,1.75893 0.02391,0.21551 0.107834,1.66476 0.186509,3.22054 0.126314,2.49783 0.05446,2.71931 -0.614291,1.89344 -0.687978,-0.84961 -0.707334,-0.8313 -0.211362,0.19994 0.312813,0.65041 0.364249,1.80555 0.120445,2.70491 l -0.425526,1.56971 -0.902077,-1.73133 c -1.15761,-2.22177 -1.243686,-6.21005 -0.124756,-5.78068 0.434203,0.16663 0.650472,0.69641 0.489946,1.20024 -0.231714,0.72728 -0.182409,0.7543 0.254602,0.13953 0.678847,-0.95498 0.311071,-1.93756 -1.407246,-3.7597 -0.963046,-1.02124 -1.186088,-1.11894 -0.782087,-0.3426 0.4405,0.84648 0.337772,1.36695 -0.465635,2.35911 -0.566955,0.70016 -1.025481,1.91551 -1.018945,2.70078 0.01358,1.63397 1.792907,5.81457 3.080115,7.23693 0.477714,0.52786 0.723969,1.10436 0.547231,1.2811 -0.483579,0.48358 -1.539971,-0.32665 -1.181706,-0.90634 0.171188,-0.27698 0.05345,-0.5036 -0.261663,-0.5036 -0.756282,0 -0.698846,0.6004 0.166396,1.73936 0.505478,0.66539 0.870468,0.76233 1.290151,0.34265 0.419678,-0.41968 0.942364,-0.24798 1.847563,0.60691 2.441777,2.3061 7.394704,4.39228 9.280525,3.90898 0.541999,-0.13891 2.489535,-1.72001 4.327858,-3.51355 z M 42.2963,64.471359 c 0.01104,-0.89262 0.13227,-1.19229 0.269431,-0.66593 0.13716,0.52636 0.128142,1.25668 -0.02007,1.62295 -0.148191,0.36626 -0.260413,-0.0644 -0.249387,-0.95702 z m 32.039465,14.93498 c 0.831964,-0.32605 0.537112,-0.54733 -1.482893,-1.1129 -1.386732,-0.38826 -3.110544,-1.29514 -3.830693,-2.01528 -0.720145,-0.72015 -1.449957,-1.08186 -1.6218,-0.80382 -0.171843,0.27805 0.04734,0.80416 0.487117,1.16912 0.439759,0.36497 0.667875,0.87665 0.506927,1.13707 -0.160948,0.26042 0.03132,0.34919 0.427219,0.19726 0.39591,-0.15193 1.199743,0.0866 1.786286,0.52997 0.922337,0.69727 0.943268,0.80853 0.154941,0.82341 -1.327685,0.0251 -3.896056,-1.03588 -3.490205,-1.44173 0.190686,-0.19069 -0.07662,-0.81447 -0.594015,-1.38618 -0.895656,-0.98969 -0.89076,-1.07601 0.102213,-1.80209 0.573615,-0.41944 0.767335,-0.76261 0.430487,-0.76261 -0.336853,0 -0.765365,0.24741 -0.952254,0.5498 -0.186887,0.30239 -0.5496,0.42015 -0.80602,0.26167 -0.25642,-0.15848 -0.606019,-0.062 -0.776878,0.21451 -0.170863,0.27646 0.360062,1.00305 1.179829,1.61464 0.819767,0.61158 1.223913,1.11969 0.898106,1.12911 -0.325812,0.009 -1.033005,-0.46975 -1.571548,-1.06483 -0.538542,-0.59508 -1.367457,-1.07207 -1.842039,-1.05998 -0.973806,0.0249 2.186634,3.00528 4.005968,3.77785 1.336216,0.56741 5.58642,0.59479 6.989252,0.045 z m -41.828464,-0.605 c 1.962775,-0.54522 4.184974,-2.42694 3.580231,-3.03168 -0.179406,-0.17941 -1.067093,0.20137 -1.972638,0.84618 -1.710164,1.21774 -7.071564,2.39505 -7.071564,1.55284 0,-0.26243 -0.87004,-0.41855 -1.933428,-0.34693 -1.723233,0.11605 -1.829618,0.20611 -0.978566,0.82842 1.134613,0.82965 5.640693,0.91098 8.375965,0.15117 z m 24.041811,-1.03992 c -0.196128,-0.31733 -0.595264,-0.57697 -0.886973,-0.57697 -0.291714,0 -0.216485,0.3406 0.167169,0.75691 0.776667,0.84275 1.274885,0.71821 0.719804,-0.17994 z m -14.347424,-0.83439 c -0.376373,-0.45351 -0.89795,-0.82455 -1.15906,-0.82455 -0.261106,0 -0.04874,0.44632 0.471979,0.9918 1.115663,1.16879 1.681568,1.03104 0.687081,-0.16725 z m 40.455068,-1.06935 c 1.378086,-1.42218 1.664303,-1.94322 0.919223,-1.67338 -1.816842,0.65799 -7.005202,1.2795 -8.688924,1.04084 -1.345628,-0.19074 -1.4236,-0.14341 -0.507772,0.30825 0.59508,0.29348 1.934009,0.88688 2.975401,1.31868 l 1.893436,0.7851 -2.060609,0.0441 c -1.133337,0.0243 -1.924192,-0.17661 -1.757447,-0.4464 0.166739,-0.2698 -0.15562,-0.37056 -0.716354,-0.22393 -1.051492,0.27497 -4.715594,-1.30601 -4.206563,-1.81504 0.157181,-0.15717 0.842574,0.10422 1.523101,0.58088 1.845097,1.29236 2.994218,1.09076 1.462243,-0.25653 -0.702425,-0.61775 -0.935225,-0.94529 -0.517325,-0.72789 0.420546,0.21879 0.622526,0.17316 0.452354,-0.10218 -0.180077,-0.29137 1.298237,-0.41898 3.568046,-0.30799 4.332485,0.21183 7.401426,-0.77887 10.5066,-3.39171 2.48766,-2.09322 2.173769,-2.58657 -0.806823,-1.26811 -1.595623,0.70582 -3.991663,1.19386 -6.356541,1.29475 l -3.79559,0.16192 3.69093,-0.51557 c 7.074289,-0.98817 12.142785,-4.47037 13.301968,-9.13883 0.658245,-2.651012 0.681189,-13.553283 0.02853,-13.553283 -0.286803,0 -0.521458,0.738144 -0.521458,1.640322 0,0.902177 -0.344446,2.464695 -0.765432,3.472262 -0.420992,1.007566 -0.634856,1.962519 -0.47526,2.122116 0.763055,0.763056 -2.73798,5.189063 -5.72737,7.240533 -1.796171,1.23263 -3.109004,1.85834 -2.932166,1.39751 0.176112,-0.45894 0.03303,-1.01191 -0.317932,-1.22882 -0.939358,-0.58056 -0.26548,-1.80417 1.57091,-2.8524 0.887958,-0.50685 1.614477,-1.271995 1.614477,-1.700311 0,-0.428315 0.377262,-0.923523 0.838349,-1.100461 0.9931,-0.381087 3.572689,-5.787631 3.736624,-7.831566 0.169576,-2.114259 0.890616,-4.40508 1.386499,-4.40508 0.588978,0 -0.764873,5.637458 -2.104214,8.762013 -0.596778,1.392226 -1.575358,3.021625 -2.174621,3.620886 -0.612638,0.612643 -0.996344,1.573608 -0.8766,2.195389 0.133771,0.6946 -0.177685,1.3149 -0.837519,1.66803 -0.785951,0.42063 -1.054626,0.38712 -1.066934,-0.13306 -0.0093,-0.39425 -0.265009,-0.26782 -0.590567,0.29203 -0.315768,0.54301 -0.430088,1.13133 -0.254041,1.30738 0.176041,0.17604 0.323806,-0.0248 0.328363,-0.44631 0.0062,-0.5755 0.11356,-0.60067 0.430934,-0.10106 0.504985,0.79495 4.101936,-1.94969 5.004127,-3.818386 0.397988,-0.824341 0.22205,-0.731 -0.589759,0.312892 -1.219901,1.568644 -2.126041,1.946654 -1.945226,0.811474 0.153693,-0.964879 3.072737,-3.950935 3.688798,-3.773473 0.283815,0.08176 0.377832,-0.07496 0.208923,-0.348266 -0.168909,-0.273304 0.08646,-1.435685 0.567493,-2.58307 1.328943,-3.169897 1.232795,-9.607381 -0.188718,-12.63531 l -1.142883,-2.43442 -0.04562,3.565652 c -0.02506,1.961109 -0.408115,4.760692 -0.851204,6.221297 -0.963111,3.174821 -0.952577,3.07358 -0.276346,2.655644 0.881791,-0.544976 0.622093,0.260055 -0.668664,2.072749 -0.665302,0.934334 -1.140535,2.106698 -1.056081,2.605252 0.08447,0.498555 -0.127598,1.080237 -0.471251,1.292626 -0.429866,0.26567 -0.515476,0.04163 -0.274377,-0.71802 0.192754,-0.607302 0.136858,-1.236197 -0.124213,-1.397546 -0.261071,-0.161349 -0.431265,0.436241 -0.378211,1.327978 0.118512,1.992163 -0.382789,2.394076 -1.251367,1.003266 -0.494424,-0.791731 -0.498839,-1.046972 -0.01806,-1.046972 0.349653,0 0.472907,-0.162826 0.273894,-0.361835 -0.482827,-0.482832 1.279513,-2.39702 1.870563,-2.031731 0.254366,0.157207 0.319424,-0.08699 0.144565,-0.542654 -0.174854,-0.455668 0.211325,-1.921757 0.858179,-3.257978 1.275396,-2.634622 2.02813,-9.128205 1.428597,-12.32401 -0.469647,-2.503439 -3.108592,-6.403424 -5.143849,-7.601878 l -1.63779,-0.964409 1.418648,3.098748 c 0.967184,2.112609 1.49962,4.360323 1.673069,7.062999 0.334709,5.215522 1.190187,5.635837 1.200759,0.589959 0.0058,-2.752641 0.167623,-3.707488 0.532702,-3.142575 0.67915,1.050908 0.683739,11.381953 0.0055,12.442594 -0.352419,0.551138 -0.439005,-0.143088 -0.269912,-2.16393 0.179225,-2.141856 0.114689,-2.596518 -0.230375,-1.622947 l -0.479356,1.352456 -0.05392,-1.307374 c -0.02967,-0.719056 -0.19239,-1.16891 -0.361624,-0.999676 -0.169229,0.169235 -0.04692,1.718528 0.27187,3.442876 0.354784,1.919192 0.385615,3.329135 0.07948,3.635262 -0.275043,0.275048 -0.371338,0.835585 -0.213988,1.245639 0.157376,0.410053 0.0166,0.745552 -0.312742,0.745552 -0.526307,0 -0.719386,-0.719025 -0.544765,-2.028684 0.02978,-0.223155 0.314401,-0.33114 0.632555,-0.239966 0.323617,0.09274 0.270596,-0.205182 -0.120335,-0.676228 -0.38434,-0.463099 -0.98235,-0.841998 -1.328911,-0.841998 -1.031004,0 -0.913283,-2.159111 0.119988,-2.200544 0.634509,-0.02544 0.500456,-0.228826 -0.439357,-0.666603 -1.804269,-0.840449 -2.842347,-1.882646 -2.472022,-2.48184 0.516256,-0.835318 -1.199637,-1.122002 -1.871339,-0.312656 -0.510306,0.614888 -0.369923,0.886876 0.71227,1.379955 1.741652,0.793551 2.435707,2.386821 2.864992,6.576877 0.278021,2.713639 0.09817,4.211628 -0.89425,7.448327 -0.683245,2.228345 -1.177496,4.294975 -1.098335,4.592515 0.07917,0.29754 -0.0371,0.35995 -0.258359,0.13869 -0.221263,-0.22127 -0.742238,0.083 -1.157724,0.67622 -0.415486,0.59319 -1.014873,1.07853 -1.331975,1.07853 -0.365003,0 -0.329437,-0.29775 0.09691,-0.81148 0.848883,-1.02284 0.317607,-1.04029 -1.236238,-0.0406 -0.658999,0.42397 -2.46784,0.86187 -4.019646,0.97311 -1.551801,0.11124 -2.992168,0.37296 -3.200808,0.5816 -0.536256,0.53625 1.336092,0.4706 4.683542,-0.16424 1.57647,-0.29897 2.963637,-0.44625 3.082594,-0.3273 0.118957,0.11895 -0.529052,1.06517 -1.440019,2.10271 -1.751497,1.99485 -1.996035,2.55506 -1.115318,2.55506 0.297543,0 0.480126,-0.3043 0.405739,-0.67623 -0.07439,-0.37192 0.175829,-0.61311 0.556037,-0.53596 0.380201,0.0771 0.826372,-0.21179 0.991484,-0.64207 0.165122,-0.43029 0.584373,-0.71588 0.931671,-0.63466 0.347299,0.0812 0.450825,0.0462 0.230045,-0.0778 -0.55102,-0.30949 0.569896,-2.30211 1.295015,-2.30211 0.336928,0 0.454979,0.51622 0.278363,1.21721 -0.277392,1.10096 -0.239564,1.1276 0.396132,0.2789 0.386548,-0.51607 0.829307,-0.81181 0.983923,-0.6572 0.154605,0.1546 1.601112,-0.21278 3.214455,-0.81641 3.26234,-1.22059 6.448606,-4.13654 7.709346,-7.055271 0.449821,-1.041391 0.827386,-1.579438 0.839037,-1.195659 0.04312,1.421566 -2.173421,4.92904 -4.138598,6.54891 -1.114987,0.91906 -3.252169,2.06802 -4.7493,2.55324 -3.561336,1.15424 -4.498307,2.03518 -1.640084,1.54202 1.19016,-0.20535 3.243523,-0.96262 4.563023,-1.68281 2.195275,-1.19819 2.313034,-1.21434 1.386087,-0.19008 -1.261776,1.39425 -5.640041,3.37459 -6.625081,2.99659 -0.402978,-0.15463 -0.586863,-0.0452 -0.408635,0.24317 0.178227,0.28837 -0.656081,0.68105 -1.85402,0.87261 -2.377191,0.38012 -4.326627,1.51392 -3.692812,2.14774 0.219803,0.2198 1.971002,0.42229 3.891565,0.44997 5.172092,0.0746 3.410181,1.092 -2.291018,1.323 -2.588733,0.10489 -4.950233,0.38544 -5.247775,0.62344 -0.544245,0.43535 -2.125678,0.71627 -3.38114,0.60061 -0.371922,-0.0342 -0.676224,-0.42746 -0.676224,-0.87377 0,-0.97067 0.257318,-1.00135 1.740538,-0.20756 0.950027,0.50844 1.075884,0.46698 0.796057,-0.26223 -0.492108,-1.28241 1.769955,-2.40919 2.438451,-1.21465 0.349556,0.62462 1.211928,0.85721 3.031319,0.81759 l 2.542786,-0.0554 -1.893437,-0.46715 c -1.041391,-0.25693 -2.173752,-0.37057 -2.516359,-0.25254 -0.660593,0.22756 -1.373942,-1.59073 -0.835365,-2.1293 0.174609,-0.17462 0.369565,-0.67238 0.433228,-1.10615 0.09287,-0.63276 -0.104057,-0.67103 -0.996176,-0.19358 -1.383326,0.74033 -6.031913,0.33968 -7.187635,-0.61948 -0.751013,-0.62328 -0.404947,-0.95333 2.7408,-2.61396 1.980183,-1.04533 3.758687,-2.28993 3.952238,-2.76578 0.193545,-0.47585 0.838788,-0.8814 1.433868,-0.90122 0.59508,-0.0198 1.690567,-0.0902 2.434416,-0.1564 1.253331,-0.11155 1.273156,-0.15445 0.270493,-0.58531 -0.668231,-0.28715 -0.782984,-0.47947 -0.300092,-0.50296 0.430033,-0.0209 1.464661,-0.69217 2.299175,-1.491689 0.834519,-0.799517 1.517303,-1.182349 1.517303,-0.850737 0,0.331612 -0.641435,1.107486 -1.425412,1.724156 -0.783977,0.61668 -1.196897,1.12123 -0.917596,1.12123 0.659243,0 3.660902,-3.17465 4.442026,-4.698028 0.333239,-0.649905 0.594912,-2.110557 0.581493,-3.245894 l -0.02441,-2.064249 -0.701801,1.622948 c -0.386,0.892621 -0.500352,1.702889 -0.254127,1.800595 0.246219,0.09771 0.07576,0.896854 -0.378797,1.775882 -0.454568,0.879026 -1.075413,1.444382 -1.37966,1.256344 -0.342748,-0.211827 -0.179637,-0.768427 0.428776,-1.463135 0.540079,-0.616687 0.677657,-0.943315 0.305727,-0.725839 -0.874777,0.51151 -0.853368,0.311903 0.191089,-1.781762 0.477017,-0.956212 0.991321,-2.663177 1.142899,-3.793256 0.232024,-1.729871 0.02007,-2.340652 -1.34067,-3.8636 l -1.616262,-1.808912 v 2.993842 c 0,2.750824 -0.932105,5.804781 -1.575363,5.161525 -0.148769,-0.14877 -0.0073,-0.762221 0.31432,-1.363224 1.469369,-2.745535 0.14693,-8.288582 -2.151503,-9.018074 -1.079529,-0.342629 -1.085262,-0.389762 -0.14118,-1.160421 0.541235,-0.441808 0.696577,-0.659541 0.345216,-0.483852 -0.351372,0.175688 -0.815009,0.03441 -1.03031,-0.31396 -0.265405,-0.429436 -0.146789,-0.491448 0.368355,-0.192583 0.423422,0.24565 0.571127,0.233681 0.333625,-0.02703 -0.234406,-0.257314 -1.086456,-0.519607 -1.893437,-0.582873 -0.806992,-0.06327 -1.041224,0.0044 -0.520531,0.150287 1.333028,0.373576 1.177262,1.159952 -0.270487,1.365566 -0.669467,0.09508 -1.21721,0.456887 -1.21721,0.804017 0,0.347131 -0.182583,0.813728 -0.405739,1.036883 -0.223156,0.223155 -0.402007,0.669466 -0.397456,0.991801 0.0043,0.322335 0.244272,0.220901 0.532702,-0.22541 0.42526,-0.658041 0.525982,-0.584535 0.532697,0.388758 0.0059,0.846299 -0.23101,1.108407 -0.803189,0.88884 -0.704681,-0.270411 -1.108728,-2.278513 -0.868426,-4.316078 0.03916,-0.332233 -0.236283,-0.847309 -0.612134,-1.144613 -0.794516,-0.628471 -3.633543,-1.221603 -3.546174,-0.740868 0.120514,0.663117 -0.780162,2.204669 -1.153358,1.974022 -0.212525,-0.131347 -0.280381,0.483599 -0.150794,1.366547 l 0.23562,1.60536 0.883705,-1.769176 c 1.045232,-2.092552 3.027486,-2.668509 3.462244,-1.005979 0.159379,0.60945 -0.06315,1.379536 -0.50448,1.745805 -0.67087,0.556777 -0.732996,0.429663 -0.413043,-0.845133 0.319237,-1.271952 0.223131,-1.470923 -0.631029,-1.306427 -0.554198,0.106728 -1.230009,0.826384 -1.501804,1.599235 -0.397492,1.130254 -0.26737,1.631993 0.665045,2.564411 0.637575,0.637574 1.159228,1.494581 1.159228,1.904459 0,0.409878 0.351525,1.036975 0.781171,1.393547 0.799973,0.663917 0.997939,4.671252 0.281862,5.705463 -0.42908,0.619708 -0.582719,1.915073 -0.5395,4.548676 0.01666,1.014071 -0.377873,2.294743 -0.876708,2.845943 -0.868726,0.95993 -0.983121,0.8708 -2.713394,-2.114251 -1.378618,-2.378378 -1.780167,-3.660802 -1.695541,-5.415003 0.06098,-1.26421 -0.181522,-2.590969 -0.538905,-2.948353 -0.787617,-0.787616 -0.874287,-2.799928 -0.09998,-2.321381 0.302392,0.18689 0.420142,0.549598 0.261667,0.80602 -0.158475,0.256421 -0.0033,0.642376 0.345255,0.857678 0.395577,0.244483 0.488464,0.15696 0.247386,-0.23311 -0.244037,-0.394861 0.02364,-0.624568 0.727886,-0.624568 0.905675,0 1.113894,-0.343118 1.113894,-1.835559 0,-2.106294 -0.657802,-2.507699 -3.055685,-1.864648 -1.784998,0.478692 -4.468568,3.15305 -5.855847,5.835759 -0.772371,1.493597 -0.748049,1.634229 0.444947,2.572642 2.713205,2.134203 3.018525,4.746915 0.624932,5.347668 -0.935402,0.234772 -1.312834,0.823606 -1.573739,2.455206 -0.1922,1.20196 -0.57752,2.00156 -0.875721,1.81727 -0.292877,-0.18101 -0.383502,-0.9228 -0.20138,-1.64841 0.182116,-0.72562 0.110836,-1.3193 -0.1584,-1.3193 -0.567447,0 -0.609065,2.16035 -0.05805,3.01345 0.205698,0.31847 0.282652,1.77913 0.17101,3.2459 -0.203285,2.67081 0.08496,2.10324 1.000731,-1.97048 0.42638,-1.89673 3.751668,-4.21066 5.555493,-3.86583 1.481821,0.28326 3.022576,2.95523 2.495752,4.32812 -0.372277,0.97014 5.589084,-2.01279 7.887354,-3.94665 1.796805,-1.51192 3.023041,-4.576754 2.712285,-6.77909 -0.229274,-1.62488 -1.277793,-1.264056 -1.248117,0.429512 0.02528,1.442208 -0.202778,1.489873 -1.794392,0.37506 -1.673991,-1.172507 -1.509362,-2.132787 0.753596,-4.395743 1.833831,-1.833829 1.934932,-2.111323 1.619506,-4.445071 -0.18504,-1.369027 -0.66055,-2.73258 -1.056705,-3.030121 -0.930906,-0.699197 -0.526567,-1.895844 0.636993,-1.885154 0.661619,0.0061 0.719571,0.123855 0.21771,0.442425 -0.539971,0.342759 -0.497922,0.807009 0.199778,2.20558 0.585902,1.174474 0.785197,2.505916 0.591375,3.950937 -0.223394,1.665528 -0.142927,2.029927 0.341208,1.545234 0.348443,-0.348847 0.614634,-1.891444 0.591549,-3.427993 l -0.04198,-2.793727 0.677055,1.874787 c 0.372381,1.031133 0.69558,3.112285 0.718215,4.624781 0.04583,3.061838 0.403043,3.75242 1.479084,2.859387 0.961456,-0.797939 0.897472,0.06923 -0.102674,1.391542 -1.200315,1.586959 -0.951551,2.323 0.346436,1.025016 0.761597,-0.761597 1.197749,-1.98684 1.312351,-3.68666 0.208462,-3.092201 0.792835,-3.95174 0.792835,-1.166173 0,2.438063 -1.272234,5.652478 -2.409997,6.089078 -0.459742,0.176421 -0.835903,0.58685 -0.835903,0.912065 0,0.39559 0.214868,0.376433 0.649181,-0.05788 0.855555,-0.855555 1.697066,-0.835748 1.149225,0.02705 -0.236158,0.371925 -0.433109,0.899383 -0.437666,1.172129 -0.0043,0.272744 -0.346469,0.60863 -0.759812,0.746411 -0.413338,0.137779 -0.613794,0.02765 -0.445455,-0.244731 0.16834,-0.272382 -0.17929,-0.495241 -0.772521,-0.495241 -1.011423,0 -1.019353,0.04332 -0.127375,0.69555 0.905679,0.66224 0.90499,0.69555 -0.01427,0.69555 -0.531032,0 -1.092835,0.48688 -1.248454,1.08196 -0.342764,1.31072 -1.001172,1.39934 -1.462606,0.19685 -0.310143,-0.80822 -0.431552,-0.80194 -1.39758,0.0723 -0.581857,0.52658 -0.92385,1.17435 -0.759981,1.4395 0.16387,0.26515 0.09727,0.44723 -0.148004,0.40462 -1.090789,-0.18949 -1.834904,0.0949 -1.531742,0.58545 0.196322,0.31765 -0.04638,0.39015 -0.597803,0.17855 -0.603,-0.23139 -0.799332,-0.14753 -0.560252,0.23931 0.20243,0.32755 0.08303,0.77169 -0.265332,0.98699 -0.395577,0.24448 -0.488464,0.15696 -0.247385,-0.23311 0.484566,-0.78404 0.184026,-0.78492 -1.528871,-0.004 -0.748519,0.34105 -1.24289,0.81112 -1.098594,1.04459 0.144291,0.23347 -0.02267,0.60065 -0.371043,0.81595 -0.395577,0.24448 -0.488464,0.15696 -0.247386,-0.23311 0.212303,-0.34351 0.09982,-0.62457 -0.249972,-0.62457 -0.388269,0 -0.534317,0.5318 -0.374971,1.36537 0.143555,0.75095 0.05021,1.49564 -0.207423,1.65487 -0.936149,0.57858 -0.424812,1.30788 1.664202,2.37362 2.022873,1.03199 3.818167,1.01228 3.818167,-0.0419 0,-0.2657 -0.547743,-0.49408 -1.217205,-0.5075 -0.669466,-0.0134 -1.947537,-0.37617 -2.840157,-0.80611 -1.227527,-0.59125 -1.29343,-0.68416 -0.270492,-0.38134 0.743851,0.22021 2.850944,0.40037 4.682432,0.40037 1.831487,0 3.216907,0.18259 3.078721,0.40574 -0.138192,0.22316 -0.693968,0.40574 -1.235051,0.40574 -0.541094,0 -1.307908,0.39052 -1.704036,0.86783 -0.396132,0.47731 -1.285815,1.08287 -1.977072,1.34568 -1.20625,0.45862 -1.223248,0.54281 -0.422372,2.09153 1.372546,2.65421 4.381121,3.85087 9.10074,3.61982 2.835219,-0.13881 3.331319,-0.35299 5.139336,-2.21886 z m -1.402533,-10.94065 c -0.536608,-0.21531 -0.552626,-0.45653 -0.069,-1.03926 0.896685,-1.08044 1.525564,-0.9384 1.430543,0.3231 -0.08464,1.12354 -0.19783,1.18308 -1.361543,0.71616 z m 2.67085,-6.301769 c -0.491245,-0.591911 -0.451221,-0.91343 0.178818,-1.436311 0.662259,-0.549629 0.875961,-0.50634 1.160469,0.235077 0.485328,1.264735 -0.530462,2.175813 -1.339287,1.201234 z M 29.477751,77.184449 c 0.18389,-0.29754 0.577785,-0.54099 0.875325,-0.54099 0.29754,0 0.39053,0.24345 0.20664,0.54099 -0.183891,0.29754 -0.1374,0.54007 0.103316,0.53896 0.448935,-0.002 3.954175,-2.03152 3.953894,-2.28921 -5.41e-4,-0.58114 -3.781851,0.0448 -4.853813,0.80353 -0.735665,0.52069 -1.573382,0.94672 -1.86159,0.94672 -0.288203,0 -0.07067,-0.33149 0.483405,-0.73664 0.554075,-0.40515 1.060526,-1.09852 1.125439,-1.54081 0.09937,-0.67707 -0.717889,-0.77022 -5.170991,-0.58943 -3.972985,0.16132 -5.741645,0.008 -7.108091,-0.61614 l -1.819075,-0.83091 1.893438,0.39789 c 2.016912,0.42384 6.205041,0.48196 9.002054,0.12492 1.170643,-0.14943 1.609764,-0.44887 1.412419,-0.96314 -0.181402,-0.47272 -0.414025,-0.53975 -0.6346,-0.18284 -0.69349,1.12208 -10.861112,0.76595 -10.862173,-0.38047 -1.84e-4,-0.1995 1.277887,-0.31637 2.840157,-0.25969 l 2.840493,0.10305 -3.737961,-0.77363 c -2.055873,-0.42549 -4.328837,-1.16079 -5.051022,-1.63398 -2.119866,-1.38899 -1.968012,-0.52749 0.25034,1.42025 1.125773,0.98844 2.046855,2.04389 2.046855,2.34545 0,0.30156 1.033255,1.27448 2.296129,2.16206 1.828483,1.28511 3.09555,1.68736 6.221297,1.97507 2.158839,0.19872 4.215102,0.397 4.569467,0.44063 0.354365,0.0437 0.794757,-0.1641 0.978648,-0.46164 z m -8.114735,-1.08197 c -0.18876,-0.30541 0.253136,-0.54098 1.014818,-0.54098 0.742044,0 1.950414,-0.22859 2.685274,-0.50799 0.734859,-0.27939 2.028775,-0.31761 2.875375,-0.0849 1.446132,0.39745 1.365807,0.46092 -1.327516,1.04897 -3.516738,0.76784 -4.812936,0.78882 -5.247951,0.0849 z m 9.737682,0 c 0.183891,-0.29754 0.577785,-0.54098 0.875325,-0.54098 0.29754,0 0.39053,0.24344 0.206639,0.54098 -0.18389,0.29754 -0.577785,0.54098 -0.875326,0.54098 -0.29754,0 -0.390529,-0.24344 -0.206638,-0.54098 z m 27.431693,-0.37346 c 0.3908,-0.49557 0.205828,-0.50144 -0.80285,-0.0254 -0.977966,0.46152 -1.159623,0.78309 -0.715677,1.26687 0.441631,0.48126 0.648541,0.48781 0.802851,0.0254 0.114336,-0.34261 0.436394,-0.91271 0.715676,-1.26688 z m -21.51207,-1.19903 c 0.166742,-0.2698 -0.244914,-0.36109 -0.91479,-0.20289 -1.16909,0.27611 -1.176685,0.2557 -0.189285,-0.50885 0.801347,-0.62049 0.87254,-0.893 0.32215,-1.23316 -0.44182,-0.27306 -0.575027,-0.22389 -0.35555,0.13123 0.193034,0.31233 -0.03993,0.71787 -0.517628,0.90119 -0.600983,0.23062 -0.778333,0.0981 -0.575616,-0.4302 0.443665,-1.15616 -3.069491,-1.01367 -3.798762,0.15408 -0.468068,0.7495 -0.363096,0.9334 0.573063,1.00392 0.913383,0.0688 0.982716,-0.017 0.341447,-0.42242 -0.442557,-0.27982 -0.56121,-0.53111 -0.26367,-0.55843 0.29754,-0.0273 0.967006,-0.13122 1.487701,-0.23091 0.520696,-0.0997 0.94672,0.14211 0.94672,0.5373 0,1.12496 2.355188,1.81222 2.94422,0.85914 z m 23.022931,-0.32095 c 0,-0.4463 -0.235803,-0.81147 -0.524006,-0.81147 -0.288198,0 -0.383876,0.36517 -0.212612,0.81147 0.17127,0.44631 0.407068,0.81148 0.524007,0.81148 0.116933,0 0.212611,-0.36517 0.212611,-0.81148 z m -13.753296,-0.74391 c -0.160926,-0.26038 0.759014,-0.35489 2.044307,-0.21001 2.035619,0.22944 2.582271,0.048 4.240182,-1.40771 1.046806,-0.91911 2.052524,-1.52187 2.234933,-1.33946 0.326526,0.32653 -0.486067,-2.91331 -0.817284,-3.25854 -0.09357,-0.0975 0.195025,-0.64077 0.641335,-1.2072 0.757597,-0.96149 0.745728,-0.97817 -0.178746,-0.25129 -0.627621,0.49347 -0.901812,1.24107 -0.748779,2.04159 0.132789,0.69467 0.03062,1.3933 -0.226991,1.55253 -0.257637,0.15923 -0.472158,-0.0292 -0.476714,-0.41865 -0.0065,-0.55896 -0.107195,-0.55202 -0.477779,0.033 -0.379088,0.59841 -0.58267,0.54633 -1.057231,-0.2705 -0.323253,-0.55639 -0.59514,-0.72169 -0.604185,-0.36732 -0.009,0.35436 0.230961,0.79721 0.533354,0.9841 0.302393,0.18689 0.377384,0.62728 0.166644,0.97865 -0.268083,0.44698 -0.133931,0.43716 0.446689,-0.0327 0.456417,-0.36934 0.987921,-0.51347 1.181117,-0.32027 0.527436,0.52744 -0.75717,1.84497 -1.407176,1.44324 -0.3098,-0.19146 -0.406771,-0.0949 -0.215496,0.21459 0.194024,0.31394 -0.24012,0.67509 -0.982007,0.81691 -0.731381,0.13981 -1.21938,0.0756 -1.084442,-0.14276 0.134937,-0.21833 -0.434988,-0.53303 -1.266505,-0.69934 -1.543244,-0.30868 -2.798453,-2.17044 -2.798453,-4.15078 0,-1.08878 -0.846842,-1.92779 -1.244021,-1.23251 -0.130253,0.22801 -0.386548,1.38833 -0.569552,2.57849 -0.252563,1.64254 -0.208705,1.87065 0.182008,0.94672 0.744679,-1.76096 1.094597,-1.49454 0.546609,0.41617 -0.2642,0.92121 -0.264032,1.50706 3.79e-4,1.34364 0.438904,-0.27126 1.243864,0.57449 1.414409,1.48609 0.155478,0.83107 0.21821,0.94672 0.513571,0.94672 0.16633,0 0.17075,-0.21304 0.0098,-0.47343 z m -0.578905,-1.68431 c -0.189528,-0.30666 0.02764,-0.39735 0.509053,-0.21261 0.937209,0.35964 1.108684,0.7474 0.330519,0.7474 -0.27998,0 -0.657792,-0.24066 -0.839572,-0.53479 z m -15.80508,0.67003 c -0.192114,-0.52069 -0.610499,-1.15042 -0.929743,-1.39938 -0.321998,-0.25112 0.02175,-0.28205 0.772014,-0.0695 2.641801,0.74849 5.950805,0.91872 5.950805,0.30612 0,-0.3275 -0.852047,-0.59545 -1.893438,-0.59545 -1.041894,0 -1.893438,-0.27371 -1.893438,-0.60861 0,-0.38782 0.637813,-0.49923 1.758192,-0.3071 0.967007,0.16584 1.467567,0.18054 1.112358,0.0327 -0.355214,-0.14786 -0.519289,-0.59862 -0.364622,-1.00168 0.19735,-0.51428 -0.654356,-0.3526 -2.855824,0.54215 -2.270428,0.92277 -3.327923,1.11657 -3.827996,0.70155 -0.49269,-0.4089 -0.927542,-0.37708 -1.515498,0.11088 -1.035672,0.85953 -0.632306,1.2851 1.248177,1.31686 0.805706,0.0136 1.496448,0.32905 1.534988,0.70097 0.114618,1.1062 0.181132,1.21721 0.729314,1.21721 0.288203,0 0.366825,-0.42602 0.174711,-0.94672 z m 8.152641,0.13525 c 0.171264,-0.44631 0.07559,-0.81147 -0.212617,-0.81147 -0.288197,0 -0.524001,0.36516 -0.524001,0.81147 0,0.44631 0.09568,0.81147 0.212612,0.81147 0.116939,0 0.352737,-0.36516 0.524006,-0.81147 z m 16.102842,-0.67623 c 0.672912,-0.85803 0.653777,-0.87717 -0.204253,-0.20425 -0.520696,0.40836 -0.946719,0.83438 -0.946719,0.94672 0,0.44525 0.444249,0.15867 1.150972,-0.74247 z m -29.969549,0.0789 c -0.179769,-0.17976 -0.646366,-0.19898 -1.036885,-0.0427 -0.431558,0.17269 -0.303372,0.30088 0.326845,0.32684 0.570282,0.0235 0.889803,-0.10437 0.71004,-0.28414 z m 40.720188,-0.21414 c -1.515411,-0.31898 -1.623418,-0.41443 -0.540982,-0.47805 1.053287,-0.0619 1.176966,-0.1905 0.559126,-0.58126 -0.50202,-0.31751 -1.046113,-0.29196 -1.481745,0.0696 -1.046,0.8681 -0.296371,1.539 1.630775,1.45949 l 1.726264,-0.0712 z m -41.261171,-0.86783 c -0.179769,-0.17977 -0.646365,-0.19898 -1.036885,-0.0427 -0.431557,0.1727 -0.303372,0.30089 0.326846,0.32685 0.570282,0.0235 0.889802,-0.10437 0.710039,-0.28414 z m 13.400581,-0.21414 c 0.183891,-0.29754 0.07654,-0.54098 -0.238562,-0.54098 -0.3151,0 -0.572911,0.24344 -0.572911,0.54098 0,0.29754 0.107352,0.54098 0.238562,0.54098 0.13121,0 0.389021,-0.24344 0.572911,-0.54098 z m -11.685959,-0.7454 c 0.484152,-0.58337 0.395864,-0.80364 -0.406159,-1.01338 -0.791381,-0.20695 -0.96443,-0.0372 -0.759782,0.74539 0.316891,1.21179 0.372125,1.22448 1.165941,0.26799 z m -3.403076,-0.18793 c -0.215793,-0.21579 -1.875181,-0.69482 -3.687525,-1.06451 -2.755781,-0.56213 -7.874977,-3.17842 -7.314925,-3.73847 0.09116,-0.0912 1.130198,0.17776 2.308972,0.5976 2.539382,0.90446 4.577641,1.02462 4.577641,0.26987 0,-0.29754 -0.653464,-0.54098 -1.452148,-0.54098 -2.053623,0 -5.636982,-1.85716 -7.506774,-3.89056 l -1.590234,-1.72937 1.893438,1.54115 c 1.949533,1.58682 5.70177,3.5049 6.897525,3.52591 1.351888,0.0237 0.627507,-0.92773 -1.403589,-1.84363 -1.143902,-0.51582 -3.107976,-1.93579 -4.364608,-3.15548 -2.418348,-2.347264 -4.25184,-5.267671 -3.307149,-5.267671 0.305179,0 0.554875,0.232291 0.554875,0.516202 0,0.715397 4.848137,4.352639 5.801705,4.352639 0.4275,0 -0.621637,-1.278071 -2.331423,-2.840157 C 9.225585,54.835793 7.396161,52.52402 6.650152,50.946802 l -1.279396,-2.704911 0.309452,3.722423 c 0.170194,2.047333 0.662953,4.568476 1.095014,5.60254 0.432061,1.034064 0.652825,2.094895 0.49059,2.357395 -0.329134,0.53255 1.466165,4.64009 2.578543,5.89957 2.537581,2.87314 5.728348,4.26731 9.850634,4.30411 1.462902,0.013 2.483271,-0.15281 2.267479,-0.3686 z m 28.343102,0.18495 c 0,-0.11407 -0.487219,-0.3348 -1.082711,-0.49053 -0.595492,-0.15572 -0.946286,-0.0624 -0.779545,0.2074 0.291184,0.47114 1.862256,0.71 1.862256,0.28313 z m 12.713085,-0.33359 c -0.183891,-0.29754 -0.624283,-0.53725 -0.978648,-0.5327 -0.387132,0.005 -0.320407,0.2176 0.167175,0.5327 1.039291,0.67165 1.226569,0.67165 0.811473,0 z m -28.588097,-2.29978 c 0.239763,-0.38795 -0.06862,-0.43394 -0.946092,-0.14109 -2.08335,0.69532 -8.4229,0.99346 -7.793592,0.36653 0.297541,-0.29642 1.149588,-0.63496 1.893439,-0.7523 0.74385,-0.11734 -0.01683,-0.32054 -1.690424,-0.45155 -2.286251,-0.17896 -2.978081,-0.07 -2.782278,0.43804 0.143328,0.37192 0.106806,0.67622 -0.08116,0.67622 -0.18797,0 -0.573155,-0.6086 -0.855964,-1.35245 -0.503081,-1.32321 -1.622947,-1.88314 -1.622947,-0.81147 0,0.29754 -0.229463,0.54098 -0.509919,0.54098 -0.280456,0 -0.41918,-0.47119 -0.308273,-1.04708 0.110907,-0.5759 -0.207375,-1.35905 -0.707291,-1.74036 -0.499917,-0.3813 -0.730142,-0.48193 -0.511607,-0.22362 0.21853,0.25831 -0.02494,0.79863 -0.540983,1.2007 -0.872956,0.68013 -0.866188,0.70571 0.09715,0.36729 0.679566,-0.23872 0.910284,-0.1612 0.671257,0.22555 -0.379732,0.61443 0.974709,2.29948 1.848309,2.29948 0.276285,0 0.506068,-0.3043 0.510622,-0.67623 0.0056,-0.45713 0.171627,-0.41793 0.51243,0.12097 0.33233,0.52551 0.283415,0.94123 -0.143534,1.21984 -0.383854,0.25048 0.01341,0.40938 0.975278,0.39009 0.89262,-0.0179 2.837479,0.31148 4.321907,0.73196 2.338521,0.6624 3.006715,0.65964 5.003454,-0.0207 1.267473,-0.43187 2.464569,-1.04422 2.660216,-1.36078 z m 2.079963,1.7588 c 0.18389,-0.29754 0.07654,-0.54098 -0.238562,-0.54098 -0.315101,0 -0.572912,0.24344 -0.572912,0.54098 0,0.29754 0.107353,0.54098 0.238563,0.54098 0.13121,0 0.38902,-0.24344 0.572911,-0.54098 z m 43.819564,-0.54098 c 0.18389,-0.29754 0.07654,-0.54098 -0.23856,-0.54098 -0.315101,0 -0.572912,0.24344 -0.572912,0.54098 0,0.29754 0.107355,0.54098 0.23856,0.54098 0.131211,0 0.389022,-0.24344 0.572912,-0.54098 z m -60.319525,-0.4831 c 0,-0.69301 -1.441393,-1.14878 -3.425386,-1.08313 l -1.713946,0.0567 2.163929,0.71317 c 2.686529,0.88541 2.975403,0.91582 2.975403,0.31323 z m 38.560885,-0.62032 c -0.158703,-0.60689 -0.409432,-0.98255 -0.557169,-0.83481 -0.292671,0.29267 0.224286,1.93823 0.608897,1.93823 0.130252,0 0.106974,-0.49654 -0.05172,-1.10342 z m 11.209487,0.26397 c -2.889942,-0.91061 -3.245892,-0.94155 -3.245892,-0.28218 0,0.62733 1.336659,0.98831 3.786871,1.02268 l 1.893442,0.0266 -2.434421,-0.76708 z m -33.811394,-0.24252 c 0.183891,-0.29754 0.07654,-0.54098 -0.238562,-0.54098 -0.315101,0 -0.572911,0.24344 -0.572911,0.54098 0,0.29755 0.107353,0.54099 0.238562,0.54099 0.13121,0 0.389021,-0.24344 0.572911,-0.54099 z m 40.712234,-1.38259 c -0.317135,-0.29052 -7.988359,0.4754 -7.695427,0.76834 0.175997,0.17599 1.58312,0.45744 3.126958,0.62543 2.024452,0.2203 3.071805,0.0863 3.756997,-0.48069 0.522516,-0.43238 0.887682,-0.84327 0.811472,-0.91308 z m -44.847091,0.90095 c 0.510752,-0.32362 0.55217,-0.57744 0.136197,-0.83453 -0.328787,-0.2032 -1.139271,0.01 -1.801076,0.47336 -1.130723,0.79199 -1.138941,0.84232 -0.136197,0.83453 0.5869,-0.004 1.397384,-0.21756 1.801076,-0.47336 z m 8.020793,-0.70175 c -0.172692,-0.43156 -0.300883,-0.30338 -0.32684,0.32684 -0.02348,0.57028 0.104366,0.8898 0.284135,0.71004 0.179763,-0.17977 0.198979,-0.64637 0.04268,-1.03688 z m 10.450096,0.0193 c 0,-0.2733 0.51626,-0.22062 1.147251,0.11707 0.63831,0.34162 0.99967,0.37521 0.814578,0.0757 -0.182965,-0.29605 0.0152,-0.67174 0.440311,-0.83489 1.187364,-0.45563 2.065243,-2.37158 1.302615,-2.84291 -0.389756,-0.24088 -0.479456,-0.14974 -0.237669,0.24148 0.217199,0.35143 0.01699,0.77091 -0.454285,0.95175 -0.463465,0.17784 -0.707967,0.54129 -0.543346,0.80765 0.278703,0.45095 -0.383319,0.67663 -1.657981,0.5652 -0.297541,-0.026 -1.149588,0.4223 -1.893438,0.99626 -1.30485,1.00681 -1.30961,1.03257 -0.135246,0.73157 0.669466,-0.17158 1.21721,-0.53559 1.21721,-0.8089 z m 13.701865,0.0731 c 0.155392,0.3174 0.219753,0.26669 0.143025,-0.11267 -0.217913,-1.07745 -1.943278,-1.18595 -1.943278,-0.1222 0,0.72585 0.158437,0.78589 0.758862,0.28758 0.525608,-0.43621 0.845713,-0.45241 1.041391,-0.0527 z m -15.324812,-0.53193 c 0.713967,-0.4614 0.710137,-0.52541 -0.03186,-0.5327 -1.438056,-0.0141 -2.763263,-1.30769 -2.375329,-2.31863 0.196138,-0.51113 0.55185,-0.80868 0.790467,-0.6612 0.238611,0.14747 0.298519,-0.24935 0.133124,-0.88182 -0.280169,-1.07137 -0.345736,-1.0437 -0.959648,0.40499 l -0.658932,1.55494 -0.531397,-1.89344 c -0.292265,-1.04139 -0.507187,-1.92221 -0.4776,-1.95737 0.02959,-0.0352 1.514447,0.17856 3.299689,0.47494 3.42398,0.56843 6.642727,0.0459 8.619141,-1.399331 0.788568,-0.576616 0.855991,-0.836352 0.305433,-1.176617 -0.424444,-0.262322 -0.574658,-0.223296 -0.376242,0.09775 0.181656,0.293922 0.03668,0.557344 -0.32215,0.585383 -0.358833,0.02804 -1.261035,0.195329 -2.004885,0.371759 -1.153559,0.273605 -1.193337,0.24518 -0.270492,-0.193283 0.884912,-0.42044 0.916581,-0.520988 0.173888,-0.552086 -0.499445,-0.02092 -1.290632,0.344529 -1.758192,0.812092 -0.467566,0.467563 -0.850116,0.681193 -0.850116,0.474743 0,-0.206456 -0.411893,-0.04126 -0.915321,0.36709 -0.757813,0.61471 -0.839258,0.61616 -0.4733,0.008 0.350373,-0.581885 0.06346,-0.667328 -1.383854,-0.412108 -1.004231,0.177088 -1.484715,0.170548 -1.067748,-0.01453 0.56999,-0.252998 0.435734,-0.529193 -0.540982,-1.112963 -0.95571,-0.571215 -1.013108,-0.685068 -0.217145,-0.430716 0.595081,0.190157 1.812291,0.454864 2.704911,0.588236 0.903917,0.13506 0.460285,-0.13571 -1.001336,-0.611163 -2.461372,-0.800664 -2.570445,-0.913152 -1.757013,-1.811983 0.477,-0.527079 0.684158,-1.157095 0.460354,-1.400037 -0.223804,-0.242941 0.113882,-0.313884 0.750408,-0.15765 0.63653,0.156233 1.488577,0.0603 1.893438,-0.213173 0.601718,-0.406451 0.587961,-0.481412 -0.07536,-0.410579 -0.446311,0.04766 -1.284027,0.05781 -1.86159,0.02256 -1.039504,-0.06345 -1.039504,-0.0726 0,-0.905414 1.033281,-0.82783 1.032772,-0.833307 -0.03187,-0.341698 -0.595081,0.27479 -2.055733,0.684573 -3.245894,0.91063 -1.190161,0.226056 -1.859627,0.521827 -1.487702,0.657271 0.371926,0.135443 0.676228,0.483782 0.676228,0.774088 0,0.290305 -0.249474,0.373644 -0.554387,0.185198 -0.304909,-0.188446 -0.487491,-0.03469 -0.405738,0.341681 0.08176,0.37637 -0.312893,0.784319 -0.877002,0.906553 -0.771792,0.167235 -0.940698,8.67e-4 -0.682422,-0.672197 0.201343,-0.524699 0.122159,-0.757812 -0.191557,-0.563923 -0.726214,0.448822 -0.68101,2.43059 0.05545,2.43059 0.324627,0 1.585652,-0.852048 2.802283,-1.893439 1.216631,-1.04139 2.472543,-1.88971 2.790911,-1.885154 0.318369,0.0046 0.213689,0.244271 -0.232622,0.532698 -0.66021,0.426662 -0.66979,0.525959 -0.05139,0.532699 0.604131,0.0066 0.576135,0.21153 -0.136425,0.998905 -0.493078,0.544841 -0.733675,1.153446 -0.534663,1.352456 0.199005,0.199009 0.118388,0.361835 -0.179152,0.361835 -1.104394,0 -1.237384,-0.756347 -0.325212,-1.849537 0.516698,-0.619227 0.156517,-0.41512 -0.800399,0.45357 -1.409795,1.279819 -1.617002,1.727451 -1.092287,2.359693 0.356156,0.429142 0.574139,1.632421 0.484406,2.673951 -0.11703,1.35836 0.01937,1.7809 0.482475,1.49469 0.453555,-0.28032 0.5422,-0.0732 0.297973,0.69632 -0.25247,0.79547 0.04782,1.40645 1.096967,2.23168 1.636985,1.28765 1.799226,1.32071 2.921645,0.59535 z m -3.314901,-1.4877 c -0.672912,-0.85803 -0.653778,-0.87717 0.204253,-0.20426 0.520695,0.40836 0.946719,0.83439 0.946719,0.94672 0,0.44525 -0.44425,0.15868 -1.150972,-0.74246 z m -0.197654,-6.079858 c -0.189527,-0.306662 0.02764,-0.397356 0.509054,-0.212613 0.937208,0.359641 1.108684,0.747398 0.330518,0.747398 -0.27998,0 -0.657791,-0.240653 -0.839572,-0.534785 z M 43.543291,57.16812 c 0.183891,-0.297541 0.441701,-0.540983 0.572911,-0.540983 0.13121,0 0.238563,0.243442 0.238563,0.540983 0,0.29754 -0.257811,0.540982 -0.572912,0.540982 -0.3151,0 -0.422452,-0.243442 -0.238562,-0.540982 z m -14.107813,8.183119 c 0.16064,-0.25992 -0.824056,-0.49499 -2.188208,-0.52237 -3.35698,-0.0674 -4.926239,-0.5723 -3.927051,-1.26356 0.5459,-0.37767 0.443682,-0.43265 -0.378736,-0.2037 -0.758197,0.21106 -1.465607,-0.0726 -2.163929,-0.86777 -1.025502,-1.1677 -1.024989,-1.17615 0.04447,-0.73157 0.595081,0.24738 2.050285,0.56295 3.233792,0.70128 1.93286,0.22591 2.078011,0.16256 1.426408,-0.62258 -0.398985,-0.48074 -0.941287,-0.74067 -1.205113,-0.57762 -0.263827,0.16306 -0.479684,-0.0547 -0.479684,-0.48384 0,-0.42917 -0.543546,-0.92245 -1.207878,-1.09617 -0.957296,-0.25034 -1.069528,-0.45423 -0.540982,-0.982771 0.366791,-0.366793 0.666895,-1.241181 0.666895,-1.943084 0,-0.766368 0.230567,-1.133686 0.577163,-0.919479 0.317443,0.196189 0.516098,0.02797 0.441458,-0.37381 -0.155402,-0.836511 1.463071,-4.787883 1.961105,-4.787883 0.18151,0 0.179568,0.243442 -0.0043,0.540982 -0.183891,0.29754 0.05955,0.540982 0.540982,0.540982 0.547155,0 0.729428,-0.253527 0.486175,-0.676228 -0.226092,-0.392885 -0.182803,-0.487333 0.103317,-0.225409 0.489043,0.447679 0.565446,0.695357 0.695341,2.254093 0.03717,0.446311 0.351638,0.811473 0.698771,0.811473 0.347126,0 0.470962,-0.160182 0.275181,-0.355961 -0.195776,-0.195779 -0.118756,-0.641776 0.171162,-0.991104 0.709671,-0.855104 -0.445343,-2.383185 -2.030881,-2.686843 -1.436838,-0.275182 -3.374463,1.526546 -3.374463,3.137798 0,1.029535 -0.03484,1.032261 -1.081965,0.08464 -1.246201,-1.127799 -1.49158,-0.216406 -0.270491,1.004682 1.2021,1.202103 0.98508,1.75454 -0.250129,0.636695 -1.56368,-1.415126 -2.338941,-4.274618 -1.878062,-6.927171 l 0.397531,-2.287958 0.634815,3.123566 c 0.349145,1.717962 0.921126,3.409885 1.271071,3.759828 0.801362,0.801361 0.820275,0.151593 0.03814,-1.30986 -0.328971,-0.614689 -0.5826,-2.607081 -0.563623,-4.42754 l 0.03451,-3.309924 -1.600301,1.766728 c -2.559304,2.825459 -2.189878,6.577331 0.982691,9.980078 1.066601,1.143986 1.232206,1.632757 0.750067,2.213705 -0.340321,0.410059 -0.438293,0.939074 -0.217719,1.175587 0.22057,0.236514 0.03587,0.317068 -0.410432,0.17901 -0.897576,-0.277649 -3.249351,-3.50071 -3.239894,-4.440218 0.0032,-0.327924 0.629546,0.194961 1.391666,1.161967 0.762114,0.967006 1.62385,1.758193 1.914969,1.758193 0.291119,0 -0.08239,-0.801964 -0.830002,-1.782142 -0.747616,-0.980178 -1.70523,-2.604855 -2.12803,-3.610392 l -0.768719,-1.82825 -0.379581,2.246719 c -0.427062,2.527759 0.343692,5.485082 1.760779,6.755998 0.509497,0.456933 1.778403,1.073023 2.819794,1.369073 1.67229,0.47542 1.728201,0.54398 0.478694,0.58708 -0.778111,0.0268 -2.056182,-0.45577 -2.840157,-1.07244 -1.751187,-1.377482 -1.826925,-0.71654 -0.195327,1.70458 1.901937,2.82228 4.453702,4.28549 7.473708,4.28549 1.426138,0 2.724415,-0.21266 2.885054,-0.47258 z m 6.804552,-0.0684 c 0,-0.29754 -0.229074,-0.54099 -0.509054,-0.54099 -0.27998,0 -0.659511,0.24345 -0.843402,0.54099 -0.183891,0.29754 0.04517,0.54098 0.509053,0.54098 0.463871,0 0.843403,-0.24344 0.843403,-0.54098 z m 27.590098,-1.72591 c 0,-0.71106 -1.229534,-0.26581 -1.499094,0.54287 -0.131773,0.39533 0.115548,0.51623 0.642416,0.31405 0.471174,-0.18081 0.856678,-0.56642 0.856678,-0.85692 z m 13.879709,-0.0719 c 0.483678,-0.48367 -4.823655,0.1986 -5.372098,0.6906 -0.230229,0.20654 0.800879,0.21907 2.291348,0.0279 1.49047,-0.19121 2.876806,-0.51452 3.08075,-0.71847 z m -50.396016,0.17483 c -0.18389,-0.29754 -0.928585,-0.54098 -1.654875,-0.54098 -0.726291,0 -1.320528,0.24344 -1.320528,0.54098 0,0.29754 0.744695,0.54098 1.654876,0.54098 0.965492,0 1.51559,-0.22536 1.320527,-0.54098 z m 9.467191,-0.23856 c 0,-0.571 -1.038205,-0.81089 -1.347002,-0.31125 -0.186889,0.3024 0.03971,0.54981 0.5036,0.54981 0.463871,0 0.843402,-0.10735 0.843402,-0.23856 z m -19.010308,-1.84299 c -0.404552,-0.12521 -1.086579,-0.49927 -1.515622,-0.83125 -0.58485,-0.45253 -0.68418,-0.44371 -0.396913,0.0353 0.21074,0.35137 0.135749,0.79176 -0.166644,0.97865 -0.302393,0.18689 -0.549806,-0.0159 -0.549806,-0.45068 0,-0.43476 -0.741092,-1.04883 -1.646875,-1.36458 -0.905777,-0.31576 -2.42729,-1.111408 -3.381139,-1.768109 l -1.734265,-1.194001 1.622947,1.753078 c 2.527972,2.730672 4.997449,4.091452 5.966083,3.287562 0.750737,-0.62306 1.044188,-0.34704 0.829737,0.78047 -0.05204,0.27352 0.311005,0.1607 0.806729,-0.25071 0.710564,-0.58972 0.745647,-0.79621 0.165768,-0.97569 z m 34.157813,0.4586 c 0.318476,-0.59508 0.45733,-1.08196 0.30856,-1.08196 -0.14877,0 -0.531066,0.48688 -0.849542,1.08196 -0.318477,0.59508 -0.45733,1.08197 -0.30856,1.08197 0.14877,0 0.531066,-0.48689 0.849542,-1.08197 z m 11.090138,-0.12067 c 0.308728,-0.23041 0.134532,-0.4073 -0.405737,-0.41203 -0.526262,-0.005 -0.946719,0.39215 -0.946719,0.89336 0,0.4959 0.182582,0.68131 0.405737,0.41203 0.223155,-0.26929 0.649179,-0.6713 0.946719,-0.89336 z m 14.471275,0.70572 c 1.435208,-0.33329 2.033944,-0.28995 2.04668,0.14815 0.02587,0.88889 2.145932,-1.78133 2.145932,-2.70276 0,-0.57098 -0.406384,-0.46729 -1.585647,0.40458 -0.872104,0.64477 -2.758782,1.48768 -4.192612,1.87312 -2.91119,0.78258 -1.587405,1.01376 1.585647,0.27691 z m -40.167936,-1.2162 c 0,-0.24794 -0.365163,-0.45081 -0.811473,-0.45081 -0.44631,0 -0.811474,0.20287 -0.811474,0.45081 0,0.24796 0.365164,0.45082 0.811474,0.45082 0.44631,0 0.811473,-0.20286 0.811473,-0.45082 z m 13.198341,0.18033 c 0.153244,-0.24795 -0.06512,-0.45082 -0.485256,-0.45082 -0.420132,0 -0.6385,0.20287 -0.485256,0.45082 0.153239,0.24795 0.371606,0.45082 0.485256,0.45082 0.11365,0 0.332017,-0.20287 0.485256,-0.45082 z m -32.971493,-1.84835 c -0.03468,-0.66947 -0.243221,-1.769779 -0.463455,-2.445137 l -0.400435,-1.227923 -1.024106,1.227923 c -0.563266,0.675358 -1.051989,1.106202 -1.08606,0.957432 -0.03408,-0.14877 -0.125097,-0.879096 -0.202279,-1.622947 -0.232725,-2.242969 -0.509924,-2.788476 -2.307338,-4.540622 -0.948256,-0.924371 -2.226326,-2.650838 -2.840158,-3.836592 -0.613836,-1.185755 -1.116062,-1.781298 -1.116062,-1.32343 0,1.506046 2.757857,6.403124 4.36992,7.759584 0.869488,0.731624 1.580885,1.597511 1.580885,1.924192 0,0.999845 -4.950313,-4.91483 -5.78454,-6.911417 -0.481777,-1.15305 -0.665814,-2.71129 -0.478439,-4.050904 0.362778,-2.593625 0.853156,-3.31873 0.853156,-1.261525 0,1.511382 1.744933,5.426117 2.674752,6.000778 0.289458,0.178894 0.0082,-0.839217 -0.625013,-2.26247 C 9.919184,46.370425 9.534362,44.361265 9.504883,41.886745 9.480973,39.879132 9.404645,38.235898 9.335274,38.235114 c -0.06937,-8.14e-4 -0.73884,1.207691 -1.487701,2.685501 -1.757916,3.469073 -1.783235,6.934001 -0.07744,10.597223 1.132124,2.431257 5.212532,6.732196 6.386999,6.732196 0.243983,0 0.471845,0.426024 0.50636,0.946715 0.05977,0.90164 0.07454,0.90164 0.310161,0 0.35463,-1.357034 1.193018,-1.167106 1.791014,0.40574 0.636731,1.67473 0.865934,1.71426 0.784176,0.13525 z m 15.002175,-2.613966 c -0.431817,-0.691452 -0.455345,-1.037638 -0.07052,-1.037638 0.317622,0 0.424585,-0.247413 0.237697,-0.549807 -0.186894,-0.302394 -0.563634,-0.411471 -0.837203,-0.242394 -0.273575,0.169077 -0.352428,-0.07039 -0.175235,-0.532157 0.177199,-0.461765 0.05269,-0.839572 -0.276686,-0.839572 -0.869791,0 -0.734286,1.919059 0.189653,2.685856 0.510011,0.423275 0.696384,1.258721 0.527679,2.365415 -0.247699,1.624853 -0.227764,1.647483 0.395902,0.449473 0.510963,-0.98153 0.5129,-1.491851 0.0087,-2.299176 z m 36.02311,-0.481759 c 0,-1.406718 0.294083,-3.10717 0.65352,-3.778783 0.472617,-0.883098 0.489898,-1.384736 0.06242,-1.812213 -0.427476,-0.427478 -0.602917,-0.299089 -0.633808,0.463816 -0.02347,0.580204 -0.166,0.749096 -0.316696,0.375317 -0.39099,-0.969811 -1.26354,-0.269622 -1.26354,1.013944 0,0.595081 0.243442,0.93151 0.540982,0.747619 0.312201,-0.192951 0.537478,0.308304 0.5327,1.185283 -0.0067,1.225843 -0.120341,1.362749 -0.587912,0.708156 -0.470996,-0.659392 -0.532565,-0.594573 -0.328511,0.345851 0.138107,0.636528 0.05449,1.475458 -0.185817,1.864288 -0.24031,0.388831 -0.184308,1.178995 0.124453,1.755917 0.805198,1.50453 1.40221,0.28292 1.402209,-2.869195 z m 7.339496,2.005666 c -0.190953,-0.308964 0.01606,-0.829125 0.459975,-1.155913 1.307203,-0.962254 1.773107,-5.745858 0.481894,-4.947847 -0.212193,0.131147 -0.311456,-1.026602 -0.220574,-2.572773 0.132258,-2.250133 0.05841,-2.558308 -0.37002,-1.544049 -0.294392,0.696945 -0.412731,1.465428 -0.262975,1.707741 0.149761,0.242314 -0.190047,0.319667 -0.755115,0.171897 -1.432496,-0.374606 -3.458564,0.804092 -3.07961,1.791618 0.17219,0.448719 0.07215,0.653397 -0.228531,0.467566 -0.294131,-0.181784 -0.534791,0.02297 -0.534791,0.455006 0,0.432037 0.37781,0.9305 0.839575,1.107695 0.461759,0.177196 0.709763,0.112147 0.551112,-0.144553 -0.158647,-0.256699 0.302327,-1.104183 1.024387,-1.883295 0.733434,-0.791394 1.459307,-1.179559 1.644738,-0.879533 0.182545,0.29537 0.02544,0.537036 -0.349203,0.537036 -0.529751,0 -0.53684,0.144262 -0.03189,0.649179 0.890041,0.890038 0.815779,3.951222 -0.140719,5.800886 -0.434443,0.840118 -0.639428,1.677968 -0.455516,1.861878 0.514954,0.51495 1.82053,-0.78628 1.427299,-1.422539 z M 55.941048,57.24065 c 0.159227,-0.257637 0.903922,-0.350979 1.654871,-0.207425 1.526186,0.291749 1.79632,-0.45695 0.54082,-1.498922 -0.453501,-0.376373 -0.699053,-0.809806 -0.545673,-0.963184 0.680242,-0.680244 -1.012535,-1.699824 -2.343309,-1.411401 -1.154813,0.250286 -1.271573,0.190054 -0.614328,-0.316906 0.721308,-0.556377 0.721308,-0.601312 0,-0.404412 -0.44631,0.121833 -0.811474,0.546103 -0.811474,0.942823 0,0.917039 -1.140461,1.321661 -1.6053,0.569539 -0.193596,-0.313246 -0.627593,-0.569539 -0.964447,-0.569539 -0.336848,0 -0.139898,0.357421 0.437666,0.794269 0.738392,0.558492 0.822617,0.799375 0.283723,0.811473 -0.421511,0.0095 -0.611694,0.171902 -0.422615,0.360977 0.189073,0.189074 0.927168,-0.03848 1.640204,-0.505687 1.000352,-0.655452 1.445467,-0.703077 1.948965,-0.208526 0.504028,0.495072 0.612954,0.471651 0.478639,-0.102918 -0.09564,-0.409118 0.164302,-0.866724 0.577645,-1.016902 0.436551,-0.158611 0.602903,-0.03257 0.396908,0.300733 -0.19504,0.315581 -0.107201,0.726693 0.195192,0.913583 0.302393,0.18689 0.549805,0.583241 0.549805,0.880782 0,0.29754 -0.243442,0.390527 -0.540982,0.206637 -0.29754,-0.183891 -0.540982,-0.06217 -0.540982,0.270491 0,0.33266 -0.281057,0.431135 -0.62457,0.218832 -0.386965,-0.239158 -0.47772,-0.148401 -0.238562,0.238564 0.479478,0.775812 0.0552,0.791307 -1.471607,0.05374 -1.141462,-0.551415 -1.145936,-0.542216 -0.131529,0.270491 1.191064,0.954242 1.733518,1.048281 2.15094,0.372886 z M 35.646366,54.771163 c -0.142321,-0.142323 -0.581058,0.277904 -0.974974,0.933838 -0.684299,1.139476 -0.672771,1.151004 0.258768,0.258769 0.536238,-0.513611 0.858528,-1.050285 0.716206,-1.192607 z m 30.611707,0.909235 c -0.09968,-0.520696 -0.19986,-1.021947 -0.222625,-1.113892 -0.02278,-0.09194 -0.296653,-0.0094 -0.608643,0.183409 -0.387776,0.239659 -0.366818,0.592084 0.06624,1.113891 0.829855,0.999916 0.984452,0.962852 0.765024,-0.183408 z M 36.104784,52.559884 c 0,-0.749278 -0.210226,-1.492247 -0.467165,-1.651045 -0.25694,-0.158797 -0.306856,0.12902 -0.110934,0.639594 0.269377,0.701979 0.168938,0.815409 -0.411931,0.465233 -0.630996,-0.380393 -0.648254,-0.314902 -0.09663,0.366767 0.369344,0.456418 0.511353,0.990032 0.315576,1.185811 -0.195781,0.195779 -0.102375,0.355961 0.207559,0.355961 0.30994,0 0.563525,-0.613044 0.563525,-1.362321 z m -3.651631,-0.69821 c 0,-0.835752 -0.357421,-1.992102 -0.79427,-2.569666 -0.919221,-1.215324 -1.090166,-0.65611 -0.268663,0.878886 0.386035,0.72131 0.386035,1.0464 0,1.0464 -0.308008,0 -0.560014,0.486884 -0.560014,1.081964 0,0.601092 0.360657,1.081965 0.811474,1.081965 0.528713,0 0.811473,-0.529493 0.811473,-1.519549 z M 13.3971,50.918039 c 0.06287,-0.759671 -0.370914,-2.332346 -0.963971,-3.494833 -0.593058,-1.162488 -1.053369,-2.671057 -1.022911,-3.352376 0.04187,-0.937135 0.156306,-0.813958 0.469886,0.50588 0.227981,0.959553 0.864133,2.420205 1.413668,3.245894 0.829726,1.246671 1.032276,1.33921 1.19443,0.545696 0.107401,-0.525555 -0.19437,-1.986208 -0.670608,-3.245893 -0.476232,-1.259687 -1.076776,-3.385829 -1.334549,-4.72476 l -0.468675,-2.43442 -0.05927,2.299175 c -0.03327,1.290071 -0.323134,2.299175 -0.660463,2.299175 -0.399315,0 -0.4762,-0.666267 -0.22896,-1.984144 0.528345,-2.816318 2.442054,-7.753538 3.005341,-7.753538 0.26098,0 0.121769,0.844228 -0.309361,1.876062 -1.025308,2.453907 -0.992432,5.414511 0.09674,8.711968 1.66503,5.040862 2.174484,4.622029 2.161603,-1.77711 -0.0069,-3.427627 0.262165,-6.480341 0.652084,-7.398246 1.014737,-2.388798 1.174045,-1.480782 0.318714,1.816598 -1.061602,4.092588 -0.975699,5.576905 0.371455,6.418216 0.626219,0.391078 0.989862,0.47043 0.808103,0.176337 -0.181759,-0.294093 -0.146373,-0.637329 0.07864,-0.762747 0.225011,-0.125418 0.09216,-0.148999 -0.295219,-0.0524 -0.387376,0.0966 -0.553382,-0.0686 -0.368896,-0.367102 0.184485,-0.298504 0.382647,-2.691494 0.440365,-5.317757 0.09246,-4.207235 0.281971,-5.042545 1.593782,-7.024824 1.982409,-2.995619 2.272386,-2.849878 0.636428,0.319867 -1.452613,2.814513 -2.312001,8.634348 -1.491499,10.10051 0.366391,0.6547 0.505407,-0.06393 0.482481,-2.494103 -0.02618,-2.777929 0.300207,-4.11915 1.752453,-7.20067 0.981558,-2.082782 2.298655,-4.334621 2.926882,-5.004086 1.687339,-1.798105 0.300694,-1.477733 -2.385456,0.551139 -1.64146,1.239808 -3.01872,3.058864 -4.60792,6.086051 -2.844799,5.418904 -3.216021,7.457994 -2.073337,11.388683 0.48822,1.679418 0.785485,3.155674 0.660588,3.28057 -0.124896,0.124896 -0.647469,-1.271167 -1.161278,-3.102362 -1.125914,-4.012734 -0.859734,-5.840951 1.60332,-11.012069 0.994721,-2.088387 1.742813,-3.862834 1.662434,-3.943216 -0.08038,-0.08038 -1.491451,1.264259 -3.135707,2.988091 -2.982966,3.127328 -4.756522,7.04939 -4.756522,10.518635 0,1.614442 1.542568,6.949104 2.265699,7.835474 0.292796,0.358891 0.358492,0.933853 0.145984,1.277694 -0.299369,0.484388 0.144426,1.108523 1.121954,1.577877 0.0095,0.0046 0.06869,-0.613265 0.131567,-1.372936 z m 7.200355,-0.298431 c -0.28507,-0.712664 -0.533744,-1.01136 -0.552602,-0.66377 -0.04582,0.844265 0.584385,2.446054 0.855634,2.174803 0.118405,-0.118405 -0.01796,-0.798369 -0.303032,-1.511033 z m 25.001336,1.003422 c 0.73638,-0.547306 0.807546,-0.985638 0.373289,-2.299174 l -0.536552,-1.622947 0.262945,1.785085 c 0.144621,0.981797 0.05074,1.653943 -0.208592,1.493658 -0.259347,-0.160286 -0.772371,0.07106 -1.140061,0.514089 -0.812663,0.979203 -0.0068,1.062624 1.248971,0.129289 z M 22.997242,48.377137 c -0.07408,-1.860602 -0.03333,-2.225531 0.09057,-0.811474 0.37053,4.228186 2.037237,3.04 2.466268,-1.758193 0.146325,-1.636471 0.450341,-3.413792 0.675584,-3.949602 0.352732,-0.83907 0.209491,-0.92399 -1.032675,-0.612226 -1.013915,0.254475 -1.395719,0.162225 -1.28564,-0.310634 0.08612,-0.369933 -0.208581,-0.78243 -0.654891,-0.91666 -0.643915,-0.19366 -0.662303,-0.139281 -0.08904,0.263351 1.000277,0.702553 0.998887,0.758881 -0.05605,2.265004 -0.9392,1.340894 -1.315826,6.512616 -0.608508,8.355854 0.549546,1.43209 0.634643,0.997383 0.494382,-2.52542 z m 1.080991,-0.676228 c -0.15444,-0.743851 -0.400164,-1.933206 -0.546057,-2.643012 -0.145897,-0.709805 0.03668,-1.541151 0.405737,-1.847434 0.521144,-0.432514 0.670997,0.157737 0.670997,2.643011 0,1.75994 -0.05622,3.199891 -0.12494,3.199891 -0.06872,0 -0.251297,-0.608606 -0.405737,-1.352456 z m 32.178143,3.516385 c 0,-0.29754 -0.243442,-0.540982 -0.540982,-0.540982 -0.297541,0 -0.540983,0.243442 -0.540983,0.540982 0,0.29754 0.243442,0.540982 0.540983,0.540982 0.29754,0 0.540982,-0.243442 0.540982,-0.540982 z m 32.458938,-0.604837 c 0,-0.29754 -0.243442,-0.390527 -0.540985,-0.206637 -0.297537,0.18389 -0.540979,0.577788 -0.540979,0.875328 0,0.29754 0.243442,0.390527 0.540979,0.206637 0.297543,-0.18389 0.540985,-0.577788 0.540985,-0.875328 z M 44.895747,49.806959 c 0,-0.414477 -0.213634,-0.753594 -0.474745,-0.753594 -0.674772,0 -1.742623,1.389181 -1.361111,1.770693 0.522729,0.522727 1.835856,-0.204772 1.835856,-1.017099 z m 4.327859,0.05788 c 0,-0.743851 -0.240716,-1.352456 -0.534924,-1.352456 -0.294207,0 -0.484552,0.608605 -0.422989,1.352456 0.06156,0.743851 0.30228,1.352456 0.534924,1.352456 0.232644,0 0.422989,-0.608605 0.422989,-1.352456 z m 2.163929,0 c 0,-0.943668 -0.286153,-1.339547 -0.946719,-1.309747 -0.520696,0.02349 -0.668259,0.156884 -0.327922,0.296431 0.340337,0.139546 0.494528,0.728932 0.342642,1.309746 -0.152135,0.581772 -0.0049,1.056026 0.327922,1.056026 0.332244,0 0.604077,-0.608605 0.604077,-1.352456 z m 18.393397,-0.87457 c 0,-0.560378 -0.269484,-1.018869 -0.598863,-1.018869 -0.329369,0 -0.45842,0.365972 -0.286777,0.813272 0.256571,0.668605 0.05942,0.647723 -1.1083,-0.117398 -1.13721,-0.745131 -1.363146,-0.772452 -1.133299,-0.137044 0.157897,0.436494 0.590824,0.72281 0.962057,0.636257 0.390427,-0.09103 0.550027,0.168239 0.37859,0.614997 -0.21127,0.550559 0.0027,0.694151 0.745106,0.50001 0.572816,-0.149796 1.041486,-0.730847 1.041486,-1.291225 z m -36.18966,-0.09714 c -0.694345,-0.694343 -1.398472,-0.157698 -0.884419,0.674054 0.199125,0.322189 0.609876,0.43263 0.912783,0.245424 0.369491,-0.228359 0.360159,-0.530955 -0.02835,-0.919478 z m 2.118054,0.418347 c 0.5717,-0.688859 0.538234,-0.768021 -0.204253,-0.483103 -0.488394,0.187414 -0.88799,0.55815 -0.88799,0.823857 0,0.695681 0.313158,0.597982 1.092243,-0.340754 z M 57.33834,49.021438 c 0,-0.279981 -0.243442,-0.509056 -0.540982,-0.509056 -0.29754,0 -0.540982,0.379531 -0.540982,0.843401 0,0.46387 0.243442,0.692945 0.540982,0.509055 0.29754,-0.18389 0.540982,-0.56342 0.540982,-0.8434 z M 43.813782,47.731656 c 0,-0.472722 0.769023,-0.53872 2.840157,-0.243745 4.75873,0.677749 10.142294,0.575537 10.151701,-0.192739 0.006,-0.489688 0.138546,-0.47057 0.480501,0.06931 0.483725,0.763711 1.675146,0.405231 1.675146,-0.504027 0,-0.278361 -0.852047,-0.370698 -1.893438,-0.205195 -1.221067,0.194059 -1.893438,0.0846 -1.893438,-0.308242 0,-0.423681 -1.729926,-0.55738 -5.68158,-0.439106 -3.124871,0.09353 -5.762836,0.04833 -5.862144,-0.10044 -0.09931,-0.148769 -0.115154,0.01094 -0.03522,0.354909 0.07994,0.343969 -0.31938,1.04597 -0.887379,1.560002 -0.567999,0.514031 -0.895071,1.157331 -0.726832,1.429553 0.377071,0.610117 1.832519,-0.517913 1.832519,-1.420278 z M 33.264627,46.709108 c 0,-1.410097 -1.060813,-1.321604 -1.262734,0.105337 -0.123928,0.875806 0.04614,1.201822 0.540983,1.036884 0.396961,-0.132321 0.721751,-0.646321 0.721751,-1.142221 z m 8.886235,-0.042 c 0.452597,-0.545346 0.464747,-0.867602 0.04252,-1.128537 -0.71758,-0.44349 -2.273949,0.739342 -1.858123,1.412163 0.428729,0.693695 1.090242,0.590354 1.81558,-0.283626 z m 25.860611,0.436467 c -0.179769,-0.179763 -0.646366,-0.198983 -1.036885,-0.04271 -0.431558,0.172696 -0.303372,0.300886 0.326845,0.326844 0.570282,0.02349 0.889803,-0.10437 0.71004,-0.284134 z M 67.81383,45.540088 c -0.17061,-0.444601 -0.554123,-0.657612 -0.852252,-0.473359 -0.3333,0.205992 -0.259385,0.514113 0.191934,0.800082 0.985027,0.624144 1.01879,0.607438 0.660318,-0.326723 z M 40.867512,45.219352 c 0.199914,-0.323466 0.11511,-0.836487 -0.188446,-1.140045 -0.375247,-0.375245 -0.747238,-0.186978 -1.162058,0.58812 -0.492418,0.920085 -0.456058,1.140043 0.188446,1.140043 0.439219,0 0.962143,-0.264653 1.162058,-0.588118 z m 16.346554,-0.05519 c -0.317762,-0.953286 -2.692697,-2.571301 -3.933093,-2.679572 -0.595081,-0.05195 -2.481757,-0.05587 -4.192613,-0.0087 -2.366273,0.0652 -3.110649,0.2799 -3.110649,0.897188 0,0.446311 -0.254115,0.811474 -0.564699,0.811474 -1.35133,0 -0.08209,-1.948636 1.646664,-2.528091 1.041391,-0.349058 1.48326,-0.653361 0.981937,-0.676228 -1.252801,-0.05714 -3.910961,0.996605 -3.514389,1.393175 0.177383,0.177383 -0.214878,0.771078 -0.87169,1.319323 -0.656817,0.548243 -1.072487,1.036934 -0.923716,1.085977 0.14877,0.04904 3.070074,0.258494 6.491788,0.465447 3.421713,0.206953 6.667607,0.418368 7.213095,0.469811 0.554231,0.05226 0.897198,-0.19029 0.777365,-0.549779 z m -7.667732,-0.895117 c -0.187207,-0.302906 -0.07677,-0.713659 0.245422,-0.912783 0.83175,-0.51405 1.368399,0.190075 0.674053,0.884418 -0.388523,0.388523 -0.691116,0.397857 -0.919475,0.02836 z m 2.163929,0 c -0.187206,-0.302906 -0.07676,-0.713659 0.245422,-0.912783 0.83175,-0.51405 1.368399,0.190075 0.674054,0.884418 -0.388523,0.388523 -0.691116,0.397857 -0.919476,0.02836 z m -4.109604,-0.625501 c 0,-0.29754 0.243441,-0.540982 0.540982,-0.540982 0.29754,0 0.540982,0.243442 0.540982,0.540982 0,0.29754 -0.243442,0.540983 -0.540982,0.540983 -0.297541,0 -0.540982,-0.243443 -0.540982,-0.540983 z m 9.425545,-0.584448 c -0.832279,-0.868714 -1.285109,-1.581676 -1.006286,-1.584358 0.278822,-0.0027 1.159157,0.788504 1.956305,1.758192 l 1.449357,1.76307 0.625327,-1.622947 c 0.352103,-0.913823 0.476411,-2.568445 0.284508,-3.786876 -0.952892,-6.05005 -0.958085,-6.526107 -0.07918,-7.255532 0.976955,-0.8108 1.145774,-1.670677 0.328003,-1.670677 -0.29754,0 -0.560842,0.426024 -0.58511,0.946719 -0.02683,0.576162 -0.343383,0.262713 -0.808676,-0.800811 -0.667849,-1.526508 -0.656775,-2.064968 0.08757,-4.257371 0.564163,-1.661709 0.670553,-2.6914 0.31483,-3.047124 -0.754291,-0.754292 -1.713523,-0.02322 -1.713523,1.305949 0,0.93091 -0.134753,1.004443 -0.811474,0.442815 -1.092724,-0.906883 -1.025637,-2.952555 0.135246,-4.123701 0.83644,-0.843836 0.842364,-0.915604 0.05085,-0.616107 -0.525705,0.198913 -1.252201,-0.05473 -1.758192,-0.61385 -1.009587,-1.115577 -1.111281,-1.73444 -0.2537,-1.543866 0.334733,0.07438 0.728065,-0.192697 0.874066,-0.593515 0.212043,-0.582108 0.03511,-0.605494 -0.879096,-0.116212 -0.923452,0.494204 -1.144578,0.459364 -1.144578,-0.180332 0,-0.436085 0.547744,-0.888704 1.217209,-1.005818 1.152401,-0.201598 1.161328,-0.237589 0.167689,-0.675936 -0.716509,-0.316091 -1.123507,-0.241043 -1.282696,0.236523 -0.151248,0.453747 -0.356264,0.50036 -0.583514,0.132668 -0.192682,-0.311772 -0.373884,0.451869 -0.402665,1.696979 -0.03765,1.629957 0.06811,1.960883 0.377801,1.181871 0.329994,-0.830081 0.43898,-0.875519 0.468149,-0.195178 0.02094,0.487733 -0.420299,1.452793 -0.98047,2.144579 -0.952795,1.176652 -0.961521,1.345289 -0.135246,2.614118 1.429784,2.195588 4.003475,4.422875 4.770588,4.128505 0.922369,-0.353946 0.877489,0.239082 -0.117664,1.554792 -0.436849,0.577564 -0.79427,1.612193 -0.79427,2.299175 0,0.686981 -0.22645,1.249058 -0.503216,1.249058 -0.498764,0 0.03657,-2.594133 0.785322,-3.805668 0.204194,-0.33039 -0.07751,-0.717099 -0.633409,-0.869523 -0.550633,-0.150979 -1.670619,-1.147563 -2.488854,-2.214631 -0.818236,-1.067067 -1.491429,-1.596619 -1.495984,-1.176781 -0.0068,0.626745 -0.107818,0.618132 -0.564499,-0.04813 -0.438726,-0.640065 -0.51997,-0.525793 -0.384611,0.540982 0.09438,0.743851 0.461365,1.294516 0.81552,1.2237 0.362799,-0.07254 0.51172,0.215737 0.341122,0.660323 -0.166542,0.433993 0.171491,1.392044 0.751181,2.129001 0.820329,1.042875 1.199141,1.196314 1.708757,0.692133 1.000174,-0.989503 -0.278216,2.151521 -1.516222,3.725392 -1.310308,1.665786 -1.781817,1.128569 -0.777115,-0.885408 0.983581,-1.971632 0.492288,-3.758265 -1.03345,-3.758265 -0.624624,0 -0.975494,0.160183 -0.779712,0.355962 0.195776,0.195778 0.05377,0.743523 -0.315577,1.21721 -0.579359,0.743038 -0.553322,0.769077 0.189717,0.189714 0.473684,-0.369343 1.021429,-0.511351 1.217211,-0.315572 0.527733,0.527736 0.431265,2.587486 -0.148852,3.178085 -0.314489,0.320176 0.08253,1.167812 1.053071,2.248317 1.429935,1.591953 1.585451,1.647486 1.893719,0.676228 0.184713,-0.581986 0.562882,-1.088586 0.840373,-1.125779 0.277486,-0.03719 0.788541,-0.09805 1.135673,-0.135245 0.347127,-0.03719 0.745512,-0.410718 0.885291,-0.830056 0.174759,-0.524278 -0.0224,-0.656318 -0.631148,-0.422715 -0.486911,0.186844 -0.88529,0.103916 -0.88529,-0.184286 0,-0.288202 0.608605,-0.524004 1.352456,-0.524004 0.74385,0 1.352455,0.113267 1.352455,0.251704 0,0.138437 -0.730326,1.403308 -1.622947,2.810825 -0.892621,1.407517 -1.622947,3.122943 -1.622947,3.812057 0,1.152005 -0.16884,1.225936 -2.095987,0.917774 -1.427436,-0.228258 -2.232239,-0.114696 -2.523163,0.356031 -0.299791,0.485071 -0.170761,0.592795 0.432683,0.361233 1.601508,-0.614555 4.774472,0.68106 5.721413,2.336223 0.494712,0.864711 0.987141,1.314723 1.094293,1.000026 0.107147,-0.314697 -0.486143,-1.282942 -1.318428,-2.151657 z m 3.55803,2.207395 c 0,-0.29754 -0.229073,-0.540982 -0.509053,-0.540982 -0.27998,0 -0.659512,0.243442 -0.843402,0.540982 -0.183891,0.29754 0.04517,0.540982 0.509053,0.540982 0.463871,0 0.843402,-0.243442 0.843402,-0.540982 z M 34.673237,44.024284 c -0.694346,-0.694343 -1.398472,-0.157698 -0.88442,0.674054 0.199125,0.32219 0.609876,0.432631 0.912784,0.245424 0.36949,-0.228359 0.360159,-0.530955 -0.02835,-0.919478 z m 50.796184,-3.02867 c 0,-7.156372 -2.375667,-13.131191 -6.45307,-16.229541 l -1.854719,-1.409369 1.406422,2.43442 c 1.989618,3.443887 3.167352,7.978636 3.208522,12.354068 0.03103,3.293931 0.178433,3.825898 1.187887,4.285995 1.101324,0.501971 1.14162,0.414438 0.907545,-1.971332 l -0.244961,-2.496628 -0.347765,2.163929 c -0.243523,1.515307 -0.361678,0.666487 -0.394191,-2.831828 -0.02555,-2.747666 -0.199208,-5.242948 -0.385924,-5.545069 -0.186727,-0.302121 -0.116121,-0.549311 0.156883,-0.549311 0.642363,0 1.984156,7.553137 1.994158,11.225383 0.0043,1.562087 0.190318,2.840157 0.413474,2.840157 0.223156,0 0.405739,-1.921893 0.405739,-4.270874 z m -48.902546,2.253461 c -0.549919,-0.549917 -1.003657,0.278006 -0.552462,1.008057 0.340835,0.551486 0.468264,0.551913 0.651505,0.0022 0.125291,-0.375866 0.08072,-0.830473 -0.09904,-1.010237 z m 2.621281,0.04004 c 0.41067,-1.636235 -0.555183,-2.601788 -1.621075,-1.620576 -0.531239,0.489036 -0.427008,0.697988 0.48604,0.974353 0.639274,0.193496 0.884052,0.376077 0.543963,0.405736 -0.907249,0.07912 -1.388696,1.676875 -0.505283,1.676875 0.404715,0 0.898075,-0.646374 1.096355,-1.436386 z m 23.289516,0.895405 c 0.183891,-0.29754 -0.05955,-0.540982 -0.540982,-0.540982 -0.481431,0 -0.722417,-0.247412 -0.535529,-0.549807 0.186888,-0.302393 0.62728,-0.3884 0.978648,-0.191126 0.397102,0.222952 0.37443,0.07447 -0.05991,-0.39239 -0.596006,-0.640627 -0.767633,-0.639623 -1.167159,0.0068 -0.513333,0.830587 -0.176788,2.208466 0.539408,2.208466 0.248148,0 0.601632,-0.243442 0.785522,-0.540982 z m 4.057368,0 c 0,-0.29754 -0.25781,-0.540982 -0.572911,-0.540982 -0.315101,0 -0.422453,0.243442 -0.238562,0.540982 0.18389,0.297541 0.441701,0.540983 0.572911,0.540983 0.131209,0 0.238562,-0.243442 0.238562,-0.540983 z M 44.650606,39.434259 c -0.128272,-0.976174 -0.612478,-2.535089 -1.076008,-3.464255 -1.128327,-2.261785 -1.073249,-2.499146 0.509676,-2.19655 1.602421,0.306322 1.725187,-0.581145 0.540517,-3.907424 -0.763126,-2.142698 -0.480496,-2.926725 1.08243,-3.002655 0.887335,-0.04311 2.661892,-1.786485 3.319456,-3.261129 0.484931,-1.087496 0.449778,-1.59988 -0.167012,-2.43442 -0.763077,-1.032467 -0.738798,-2.113349 0.09666,-4.30291 0.40043,-1.049446 0.388874,-1.051229 -0.384411,-0.05935 -0.716272,0.91875 -0.831836,0.932488 -1.137767,0.135246 -0.187283,-0.488055 -0.62933,-0.887373 -0.982322,-0.887373 -0.382636,0 -0.246406,0.436915 0.337357,1.081965 0.923435,1.020387 0.926714,1.139921 0.05757,2.100313 -0.636369,0.703177 -0.8099,1.463358 -0.560712,2.456219 0.25246,1.005875 0.07263,1.756388 -0.598554,2.498037 -1.225547,1.354214 -2.679372,1.43092 -2.150183,0.113446 0.209149,-0.520695 0.504682,-1.251021 0.656742,-1.622947 0.153373,-0.375141 -0.110599,-0.676228 -0.592879,-0.676228 -0.478142,0 -0.913276,0.304303 -0.966963,0.676228 -0.158075,1.095159 -0.45047,7.527789 -0.448772,9.872928 0.0011,1.190161 -0.38941,3.341695 -0.867276,4.781187 -0.701383,2.112819 -1.065843,2.565741 -1.890981,2.349963 -0.562179,-0.147013 -1.158471,-0.04671 -1.325099,0.222898 -0.166628,0.269608 0.198292,0.490195 0.810932,0.490195 0.801671,0 1.113894,0.348767 1.113894,1.24426 0,2.287943 1.0691,2.649336 3.055641,1.032909 1.518992,-1.235989 1.764739,-1.743855 1.568059,-3.240557 z m 19.990996,4.209282 c 0.18389,-0.29754 0.07654,-0.540982 -0.238563,-0.540982 -0.3151,0 -0.572911,0.243442 -0.572911,0.540982 0,0.29754 0.107353,0.540983 0.238563,0.540983 0.13121,0 0.38902,-0.243443 0.572911,-0.540983 z m 14.877011,-1.081964 c 0,-0.297541 -0.236478,-0.540983 -0.525515,-0.540983 -0.289033,0 -0.726242,-0.774627 -0.971572,-1.721395 -0.24533,-0.946767 -0.800038,-1.838404 -1.232675,-1.981413 -0.663978,-0.219479 -0.673932,-0.123478 -0.06382,0.615733 0.397537,0.481663 0.556276,1.145197 0.352739,1.47452 -0.203531,0.329323 0.05668,1.070313 0.57826,1.646644 1.030397,1.13858 1.862584,1.365055 1.862583,0.506894 z M 47.600659,39.761643 c 0,-0.280398 0.304302,-0.334697 0.676227,-0.120663 0.371926,0.214033 0.495757,0.189938 0.275187,-0.05354 -0.599202,-0.661435 0.645576,-1.894703 1.912384,-1.894703 0.609606,0 1.520712,0.37316 2.02468,0.829244 0.835818,0.756404 0.910836,0.722563 0.854071,-0.385243 -0.0821,-1.602249 -2.386111,-2.888747 -4.309114,-2.406104 -0.82238,0.206404 -1.934163,1.134388 -2.530158,2.111867 -1.362313,2.234304 -1.357757,3.070817 0.01477,2.711896 0.595081,-0.155616 1.081965,-0.512356 1.081965,-0.792754 z m 14.606523,0.636004 c 0,-0.29754 -0.243443,-0.540982 -0.540983,-0.540982 -0.29754,0 -0.540982,0.243442 -0.540982,0.540982 0,0.297541 0.243442,0.540983 0.540982,0.540983 0.29754,0 0.540983,-0.243442 0.540983,-0.540983 z M 56.61357,35.705674 c -0.436984,-0.436984 -1.448545,1.371963 -1.74503,3.120586 -0.302307,1.782988 -0.276156,1.765792 0.817878,-0.537846 0.621589,-1.308849 1.038811,-2.471082 0.927152,-2.58274 z m -20.37354,3.172424 c 0,-0.240672 -0.369118,-0.910137 -0.820265,-1.487701 -0.760621,-0.973762 -0.773978,-0.941944 -0.183658,0.437584 0.636958,1.488508 1.003923,1.87236 1.003923,1.050117 z M 40.026906,38.7747 c 0,-0.29754 -0.257811,-0.540982 -0.572911,-0.540982 -0.315101,0 -0.422453,0.243442 -0.238562,0.540982 0.18389,0.297541 0.441701,0.540983 0.572911,0.540983 0.131209,0 0.238562,-0.243442 0.238562,-0.540983 z M 78.639908,35.934543 C 77.859625,32.564067 74.844617,25.415951 74.393532,25.86704 c -0.130614,0.130617 0.360452,2.175366 1.091267,4.543888 0.730815,2.368523 1.328791,4.895841 1.328829,5.616263 7.1e-5,1.261886 1.355793,3.288492 2.19987,3.288492 0.225038,0 0.05692,-1.521513 -0.37359,-3.38114 z m -33.225705,0.97829 c -0.285152,-0.28515 -0.518456,-0.956651 -0.518456,-1.492223 0,-0.535573 -0.26949,-0.973768 -0.598862,-0.973768 -0.361285,0 -0.440993,0.375576 -0.200921,0.946719 0.218865,0.520695 0.521009,1.516848 0.671435,2.213672 0.20098,0.931009 0.391731,1.075655 0.719377,0.545505 0.245773,-0.397665 0.213201,-0.954131 -0.07257,-1.239905 z m 15.810192,0.66269 c -0.388187,-0.388189 -0.640161,-0.420129 -0.640161,-0.08115 0,0.722093 0.639772,1.361865 1.000817,1.000818 0.153732,-0.153729 -0.0085,-0.56758 -0.360656,-0.91967 z M 25.420383,35.510822 c 0,-2.444998 1.634184,-6.020192 4.58812,-10.037678 l 1.953926,-2.657422 -2.49909,2.665677 c -1.374496,1.466122 -3.089902,3.831589 -3.812005,5.256593 -1.318883,2.602689 -1.801931,6.954744 -0.771933,6.954744 0.29754,0 0.540982,-0.981862 0.540982,-2.181914 z m 15.417996,1.640931 c 0.183891,-0.29754 -0.05955,-0.540982 -0.540982,-0.540982 -0.481431,0 -0.724873,0.243442 -0.540982,0.540982 0.183891,0.297541 0.427333,0.540983 0.540982,0.540983 0.11365,0 0.357092,-0.243442 0.540982,-0.540983 z m 7.774723,-1.986411 C 48.72364,35.094588 48.20697,33.991073 47.464948,32.713086 46.722931,31.435099 45.950159,29.780869 45.74768,29.037019 l -0.368138,-1.352456 1.053282,1.206409 c 0.865128,0.9909 1.161819,1.075628 1.660875,0.474305 0.334175,-0.402657 0.465072,-1.103499 0.290886,-1.557425 -0.17419,-0.453927 -0.01904,-1.00928 0.344741,-1.23412 0.449957,-0.278087 0.535411,-0.165851 0.267256,0.351017 -0.216809,0.417897 -0.01769,0.296422 0.442507,-0.269944 0.655401,-0.806619 0.889262,-0.865233 1.079223,-0.270492 0.721524,2.258923 0.784797,2.356398 0.826512,1.2732 0.02348,-0.609957 -0.239103,-1.390826 -0.583541,-1.735264 -0.474344,-0.474347 -0.459478,-0.8272 0.0613,-1.454696 0.378152,-0.455644 0.903408,-0.695037 1.167235,-0.531983 0.798338,0.493403 0.536995,-0.669313 -0.308095,-1.370672 -0.884625,-0.734177 -2.085811,-0.255213 -1.766015,0.704186 0.250437,0.751298 -2.893114,3.912145 -4.350878,4.374822 -1.020476,0.323885 -1.020389,0.375573 0.0057,3.415029 0.667242,1.976438 0.837516,3.15429 0.473538,3.275616 -0.384195,0.128064 -0.362783,0.518607 0.06608,1.205331 0.505937,0.810135 0.803288,0.888108 1.468194,0.384992 0.458569,-0.346988 0.924203,-0.688778 1.034737,-0.759532 z m 12.512115,0.936374 c 0,-0.27998 -0.243442,-0.659511 -0.540983,-0.843401 -0.29754,-0.18389 -0.540982,0.04518 -0.540982,0.509055 0,0.46387 0.243442,0.843401 0.540982,0.843401 0.297541,0 0.540983,-0.229075 0.540983,-0.509055 z M 41.379362,35.528807 c 0.18389,-0.297541 0.07654,-0.540983 -0.238562,-0.540983 -0.315101,0 -0.572911,0.243442 -0.572911,0.540983 0,0.29754 0.107352,0.540982 0.238562,0.540982 0.13121,0 0.38902,-0.243442 0.572911,-0.540982 z m -7.920106,-2.124061 c 0.600047,-2.002775 3.270817,-4.90871 4.511468,-4.90871 0.345747,0 0.303848,-0.31553 -0.107747,-0.811473 -0.370406,-0.446311 -1.104492,-0.811474 -1.631311,-0.811474 -0.526814,0 -1.097967,0.365163 -1.269237,0.811474 -0.171263,0.44631 -0.805911,0.811473 -1.410335,0.811473 -0.604418,0 -1.098941,0.344877 -1.098941,0.766392 0,0.421515 -0.279676,0.859617 -0.621502,0.973559 -0.34183,0.113943 -0.668529,0.997562 -0.725998,1.963598 -0.06874,1.155555 0.113028,1.67296 0.531342,1.512439 0.349707,-0.134196 0.635833,0.08725 0.635833,0.492107 0,0.404855 -0.240483,0.587473 -0.534409,0.405818 -0.29892,-0.184745 -0.364314,-0.05507 -0.148398,0.294289 0.68239,1.104127 1.217876,0.674563 1.869235,-1.499492 z m -1.4993,-1.798062 c 0.125459,-0.07438 1.078941,-0.865571 2.118849,-1.758192 l 1.890733,-1.622947 -1.588913,1.758192 c -0.873903,0.967006 -1.827384,1.758193 -2.118849,1.758193 -0.29146,0 -0.427285,-0.06086 -0.30182,-0.135246 z m 4.065309,-3.561466 c -0.153244,-0.247951 0.06512,-0.450819 0.485256,-0.450819 0.420132,0 0.6385,0.202868 0.485256,0.450819 -0.153239,0.24795 -0.371606,0.450818 -0.485256,0.450818 -0.11365,0 -0.332017,-0.202868 -0.485256,-0.450818 z m 5.624588,5.860642 c 0,-0.297541 -0.107352,-0.540983 -0.238562,-0.540983 -0.13121,0 -0.389021,0.243442 -0.572912,0.540983 -0.18389,0.29754 -0.07654,0.540982 0.238563,0.540982 0.3151,0 0.572911,-0.243442 0.572911,-0.540982 z m 19.204873,0 c 0.18389,-0.297541 0.07654,-0.540983 -0.238563,-0.540983 -0.3151,0 -0.572911,0.243442 -0.572911,0.540983 0,0.29754 0.107352,0.540982 0.238562,0.540982 0.13121,0 0.389021,-0.243442 0.572912,-0.540982 z M 41.108871,32.219058 c 0,-0.29754 -0.243442,-0.390527 -0.540982,-0.206637 -0.297541,0.183891 -0.540983,0.577788 -0.540983,0.875328 0,0.29754 0.243442,0.390527 0.540983,0.206637 0.29754,-0.18389 0.540982,-0.577787 0.540982,-0.875328 z m 7.939099,0.789858 c -0.195776,-0.195779 -0.102808,-0.66099 0.206596,-1.033803 0.392109,-0.472463 0.380013,-0.790661 -0.03992,-1.050201 -0.412169,-0.254737 -0.292304,-0.722141 0.379466,-1.479656 0.749375,-0.845019 0.789759,-1.046068 0.170491,-0.848805 -1.506371,0.479843 -2.170367,4.768426 -0.73829,4.768426 0.2077,0 0.217454,-0.160182 0.02169,-0.355961 z m 15.323141,-0.455512 c 0,-0.446311 -0.229074,-0.811474 -0.509054,-0.811474 -0.682168,0 -1.17074,0.844792 -0.738533,1.277 0.609249,0.609245 1.247587,0.371054 1.247587,-0.465526 z M 39.314492,31.640496 c -0.172693,-0.43156 -0.300884,-0.30337 -0.32684,0.326844 -0.02348,0.570285 0.104366,0.889803 0.284134,0.710039 0.179763,-0.179764 0.19898,-0.646361 0.04268,-1.036883 z m 2.04177,-0.94315 c 0.171183,-0.27698 0.06383,-0.65651 -0.238568,-0.8434 -0.302393,-0.186889 -0.549805,0.03973 -0.549805,0.503601 0,0.95025 0.324616,1.090166 0.788373,0.339799 z m 0.834573,-2.20131 c 0,-0.29754 -0.379531,-0.540982 -0.843402,-0.540982 -0.463871,0 -0.692944,0.243442 -0.509054,0.540982 0.183891,0.29754 0.563422,0.540983 0.843403,0.540983 0.27998,0 0.509053,-0.243443 0.509053,-0.540983 z m 18.393399,-1.081964 c 0,-0.297541 -0.243441,-0.540983 -0.540982,-0.540983 -0.29754,0 -0.540982,0.243442 -0.540982,0.540983 0,0.29754 0.243442,0.540982 0.540982,0.540982 0.297541,0 0.540982,-0.243442 0.540982,-0.540982 z M 41.649853,25.791124 c 0,-0.29754 -0.107352,-0.540982 -0.238562,-0.540982 -0.13121,0 -0.389021,0.243442 -0.572912,0.540982 -0.18389,0.297541 -0.07654,0.540983 0.238563,0.540983 0.3151,0 0.572911,-0.243442 0.572911,-0.540983 z m 19.475364,-0.540982 c 0,-0.29754 -0.107353,-0.540982 -0.238563,-0.540982 -0.13121,0 -0.38902,0.243442 -0.572911,0.540982 -0.18389,0.297541 -0.07654,0.540982 0.238563,0.540982 0.3151,0 0.572911,-0.243441 0.572911,-0.540982 z M 41.649853,24.470596 c 0,-0.131211 -0.243442,-0.389019 -0.540982,-0.572909 -0.297541,-0.183891 -0.540982,-0.07654 -0.540982,0.238563 0,0.315101 0.243441,0.57291 0.540982,0.57291 0.29754,0 0.540982,-0.107354 0.540982,-0.238564 z m 3.786876,-0.96752 c 0,-0.316639 -0.343745,-0.264062 -0.811473,0.124119 -0.446311,0.370405 -0.811474,0.757736 -0.811474,0.860736 0,0.102999 0.365163,0.04715 0.811474,-0.12412 0.44631,-0.171265 0.811473,-0.558596 0.811473,-0.860735 z m 15.796684,-1.066042 c -0.504915,-0.504916 -0.649179,-0.360655 -0.649179,0.649179 0,1.009834 0.144264,1.154095 0.649179,0.649179 0.504915,-0.504917 0.504915,-0.793441 0,-1.298358 z m -3.568227,-0.28627 c -0.549919,-0.549916 -1.003658,0.278007 -0.552462,1.008057 0.340835,0.551487 0.468263,0.551913 0.651505,0.0022 0.125291,-0.375866 0.08072,-0.830473 -0.09904,-1.010237 z m -15.474351,0.394467 c 0,-0.29754 -0.243442,-0.540983 -0.540982,-0.540983 -0.297541,0 -0.540982,0.243443 -0.540982,0.540983 0,0.29754 0.243441,0.540982 0.540982,0.540982 0.29754,0 0.540982,-0.243442 0.540982,-0.540982 z m 17.852417,-1.113892 c 0,-0.279981 -0.357525,-0.509055 -0.794497,-0.509055 -0.4826,0 -0.672717,0.317338 -0.484293,0.808366 0.319336,0.832172 1.27879,0.607604 1.27879,-0.299311 z M 43.2728,20.922284 c 0,-0.29754 -0.243442,-0.540982 -0.540982,-0.540982 -0.29754,0 -0.540983,0.243442 -0.540983,0.540982 0,0.29754 0.243443,0.540982 0.540983,0.540982 0.29754,0 0.540982,-0.243442 0.540982,-0.540982 z m 1.893438,0 c -0.183891,-0.29754 -0.563422,-0.540982 -0.843402,-0.540982 -0.27998,0 -0.509054,0.243442 -0.509054,0.540982 0,0.29754 0.379532,0.540982 0.843403,0.540982 0.46387,0 0.692944,-0.243442 0.509053,-0.540982 z m 5.81556,0.1827 c -0.762909,-0.30784 -0.836299,-2.608634 -0.135246,-4.240068 0.358753,-0.834864 0.473619,-0.549585 0.502957,1.249138 0.02667,1.635227 0.226964,2.214332 0.670943,1.939938 0.42941,-0.265389 0.518374,-0.09267 0.276685,0.537153 -0.195922,0.510573 -0.155002,0.803953 0.09094,0.651953 0.520247,-0.321531 0.300419,-8.41089 -0.242149,-8.910572 -0.200926,-0.185048 -0.245487,0.325648 -0.09902,1.134879 0.14646,0.809232 0.05802,1.34261 -0.196539,1.185284 -0.254559,-0.157326 -0.491634,-0.819425 -0.526836,-1.471331 -0.04831,-0.894719 -0.155153,-0.787428 -0.435815,0.437664 -0.204491,0.892621 -0.601713,1.583136 -0.88271,1.534478 -0.622692,-0.107826 -0.685046,4.688256 -0.07324,5.633538 0.240716,0.371926 0.7276,0.657009 1.081965,0.633519 0.464568,-0.03079 0.455664,-0.118825 -0.03192,-0.315573 z m -5.297677,-1.843028 c -0.171189,-0.276981 -0.691852,-0.503601 -1.157032,-0.503601 -0.687697,0 -0.720826,0.150566 -0.177269,0.805517 0.698489,0.841624 1.876327,0.575109 1.334301,-0.301916 z m 0.834573,-1.044584 c 0,-0.29754 -0.426024,-0.537254 -0.946719,-0.532698 -0.809066,0.0071 -0.828731,0.08453 -0.135246,0.532698 1.020948,0.659788 1.081965,0.659788 1.081965,0 z m 1.622947,-3.336058 c 0,-0.24795 -0.365163,-0.450818 -0.811474,-0.450818 -0.44631,0 -0.811473,0.202868 -0.811473,0.450818 0,0.247951 0.365163,0.450819 0.811473,0.450819 0.446311,0 0.811474,-0.202868 0.811474,-0.450819 z m 7.573753,-1.294219 c 0,-0.46387 -0.243443,-0.692945 -0.540983,-0.509055 -0.29754,0.18389 -0.540982,0.56342 -0.540982,0.843401 0,0.27998 0.243442,0.509055 0.540982,0.509055 0.29754,0 0.540983,-0.379531 0.540983,-0.843401 z M 14.696318,50.918227 c 0.224307,-1.077284 1.151648,-1.067586 1.310345,0.0137 0.06671,0.454489 -0.240191,0.826345 -0.681989,0.826345 -0.441799,0 -0.724559,-0.378022 -0.628356,-0.840048 z m 6.19647,-14.442702 c 0.409411,-2.65879 2.974251,-8.056877 4.948058,-10.413909 1.852534,-2.212213 5.133154,-4.559964 7.200225,-5.152793 1.679296,-0.481616 1.692674,-0.471133 0.740854,0.580616 -0.555762,0.61411 -1.360982,0.94678 -1.887309,0.779729 -0.595929,-0.189142 -1.920454,0.609949 -3.775445,2.277742 -3.333593,2.997189 -6.485664,8.918606 -6.485664,12.183844 0,1.124171 -0.24632,2.043946 -0.547377,2.043946 -0.338849,0 -0.412504,-0.875879 -0.193342,-2.299175 z m 46.431361,0.09906 c -0.196187,-0.31744 -0.02797,-0.532038 0.373814,-0.476885 1.475761,0.202579 2.137682,-0.0427 1.760817,-0.652484 -0.224165,-0.362708 -0.149845,-0.478613 0.177267,-0.276448 0.891506,0.550979 1.893724,-1.081579 1.506596,-2.454162 -0.272847,-0.967427 -0.224604,-1.063181 0.217514,-0.431698 0.894126,1.277084 0.693985,2.11431 -0.846745,3.542217 -1.534971,1.422562 -2.616227,1.676651 -3.189263,0.74946 z"
     style="fill:#000000;stroke-width:0.54098237" />
</svg>
