<?xml version="1.0" encoding="UTF-8" standalone="no"?>
<svg
   xmlns:dc="http://purl.org/dc/elements/1.1/"
   xmlns:cc="http://creativecommons.org/ns#"
   xmlns:rdf="http://www.w3.org/1999/02/22-rdf-syntax-ns#"
   xmlns:svg="http://www.w3.org/2000/svg"
   xmlns="http://www.w3.org/2000/svg"
   id="svgGSW14"
   version="1.1"
   viewBox="0 0 100 100"
   height="100"
   width="100">
  <defs
     id="defs2" />
  <metadata
     id="metadata5">
    <rdf:RDF>
      <cc:Work
         rdf:about="">
        <dc:format>image/svg+xml</dc:format>
        <dc:type
           rdf:resource="http://purl.org/dc/dcmitype/StillImage" />
        <dc:title></dc:title>
      </cc:Work>
    </rdf:RDF>
  </metadata>
  <path
     id="pathGSW14"
     d="M 66.178259,86.68757 C 61.334981,85.889863 55.841565,81.588828 52.717484,76.148534 51.492842,74.015935 51.298067,73.967353 49.949054,75.457995 l -1.020313,1.127434 -1.369381,-1.267278 c -1.342748,-1.242631 -1.381703,-1.24601 -2.003108,-0.173524 -1.364027,2.354195 -6.004482,6.827228 -8.892461,8.571657 -3.82305,2.309226 -7.505282,2.818646 -11.645531,1.61111 -3.389891,-0.988692 -7.798904,-4.217352 -5.827025,-4.267053 0.675318,-0.017 0.01018,-0.545531 -1.678128,-1.333396 -2.693529,-1.256968 -6.901278,-5.214536 -7.077404,-6.65659 -0.04687,-0.383687 -0.114487,-0.952713 -0.150287,-1.264503 C 10.249616,71.494061 9.5639553,70.361325 8.7617207,69.28866 6.892124,66.788826 6.0100944,63.998187 6.1012838,60.871343 6.1411114,59.505695 5.8932239,57.679732 5.5504216,56.813647 4.879025,55.117375 4.8095673,51.373629 5.4097945,49.234296 c 0.205621,-0.732854 0.3801463,0.639222 0.3913394,3.076568 0.022263,4.845953 0.68052,6.609233 3.9949288,10.701013 1.6353073,2.018857 4.3612923,4.046797 5.4397693,4.046797 0.827552,0 -1.118087,-2.663767 -2.661226,-3.64348 -1.840352,-1.168406 -5.4099541,-5.98748 -5.4099541,-7.303604 0,-0.413536 1.1671827,0.49593 2.5937369,2.021033 2.6174932,2.798311 3.5693332,3.354719 3.5474562,2.073696 C 13.2993,59.821748 12.294202,58.799842 11.072346,57.935418 9.8504956,57.070993 8.2457635,55.308959 7.5062852,54.019786 6.2565834,51.841124 6.192065,51.340549 6.5913867,46.92114 c 0.2592092,-2.868749 0.8984193,-5.753139 1.611523,-7.271888 0.6500452,-1.384455 1.1568174,-2.013753 1.126158,-1.39844 -0.030654,0.615314 -0.00168,1.87391 0.064429,2.79688 0.1189234,1.660628 0.1248472,1.663545 0.5680351,0.279688 0.4123772,-1.287661 0.4532452,-1.243349 0.5159012,0.559376 0.08711,2.506492 2.343025,7.469839 2.702088,5.945012 0.135626,-0.575953 -0.172154,-1.975806 -0.68396,-3.110786 -0.580392,-1.287078 -0.848037,-2.997926 -0.711269,-4.546572 l 0.219286,-2.482974 0.117548,2.79688 c 0.06465,1.538284 0.45037,3.397318 0.857148,4.131188 l 0.739602,1.334307 0.355242,-1.415407 c 0.195385,-0.778473 0.0058,-2.40575 -0.421232,-3.616171 -1.051431,-2.980087 -1.416318,-6.024855 -0.832441,-6.946344 0.308585,-0.487021 0.499551,0.243859 0.53233,2.037419 0.02814,1.538284 0.379251,3.677897 0.780296,4.754696 0.72037,1.934182 0.733733,1.94067 1.107218,0.537542 0.207925,-0.781151 0.112367,-2.119063 -0.212351,-2.973139 -0.324723,-0.854076 -0.560617,-2.983863 -0.524219,-4.732862 0.05471,-2.629398 0.140118,-2.889438 0.493196,-1.501868 0.352206,1.384151 0.438601,1.454499 0.493191,0.401565 0.223353,-4.308084 5.536507,-10.835501 10.235277,-12.574432 0.793262,-0.293572 0.736938,0.06058 -0.362079,2.276664 -1.247319,2.51512 -2.385912,6.943078 -2.67743,10.41244 -0.07556,0.899245 -0.514962,1.748797 -0.976447,1.887894 -0.677153,0.204102 -0.704137,0.109881 -0.139844,-0.488269 0.384571,-0.407645 0.69922,-1.472582 0.69922,-2.366526 0,-2.222709 1.580164,-8.21942 2.571266,-9.757948 0.445929,-0.692227 0.580482,-1.258596 0.299004,-1.258596 -0.850095,0 -6.087096,4.956412 -7.285033,6.894719 -1.517923,2.45605 -2.384458,6.630113 -1.945845,9.373044 0.534523,3.342731 1.48648,1.844829 1.551664,-2.441543 0.04458,-2.931923 0.353022,-4.049032 1.732376,-6.2745 2.342437,-3.779317 3.115131,-3.837613 2.135513,-0.161116 -0.433477,1.626818 -0.690874,4.177679 -0.57199,5.668579 0.192319,2.411973 0.01018,2.95724 -1.652598,4.947464 -1.796889,2.150736 -2.47591,3.690916 -1.309365,2.969952 0.793027,-0.490119 0.696843,0.06941 -0.364864,2.122528 -0.578512,1.118721 -0.944691,3.253078 -0.978908,5.705825 -0.04648,3.330798 0.177328,4.313204 1.492079,6.54979 0.850716,1.447186 2.109312,3.027312 2.79688,3.51139 1.141038,0.803336 1.26678,0.801092 1.440908,-0.02571 0.104928,-0.498222 -0.338948,-1.276894 -0.986398,-1.730383 -1.831011,-1.282492 -3.409184,-4.882171 -3.323521,-7.580668 0.04637,-1.461546 0.175465,-1.873107 0.33016,-1.052777 0.325473,1.725976 3.119607,5.975336 3.3919,5.158455 0.113402,-0.340206 -0.445661,-1.950885 -1.242363,-3.579288 -1.427024,-2.916726 -2.34402,-9.637418 -1.394994,-10.223946 0.618737,-0.382401 1.221313,3.913227 0.845474,6.027175 -0.246254,1.385061 -0.199255,1.558058 0.193253,0.711373 0.47034,-1.014563 0.522301,-0.978883 0.557955,0.383116 0.02165,0.826028 0.318761,2.210484 0.660299,3.076568 0.571895,1.450221 0.653894,1.486264 1.037368,0.455947 0.246271,-0.661691 0.118247,-1.575813 -0.313362,-2.237504 -0.401358,-0.615313 -1.027473,-2.922827 -1.391364,-5.127808 -0.617859,-3.743892 -0.5832,-4.135944 0.524029,-5.927477 0.652104,-1.05513 1.000192,-2.123252 0.773527,-2.373605 -0.226664,-0.250352 -0.131106,-0.294904 0.212345,-0.09901 0.343451,0.195899 1.051068,-0.115217 1.572479,-0.691368 0.73851,-0.816044 0.785934,-1.112419 0.214604,-1.341088 -0.403377,-0.161447 0.147603,-0.305407 1.224402,-0.319911 1.764495,-0.02377 1.85908,0.04852 0.957869,0.73211 -0.549972,0.417164 -1.245512,1.604825 -1.545639,2.639246 -0.938885,3.235922 0.449956,9.991716 2.054073,9.991716 0.864387,0 1.040109,0.88653 0.270061,1.362448 -0.574423,0.355012 0.0028,3.373636 1.002111,5.240932 0.94991,1.774928 4.998673,4.584139 6.606873,4.584139 1.279439,0 1.303027,-0.06168 0.475448,-1.243217 -1.007135,-1.437883 -1.109534,-3.149661 -0.260256,-4.350543 0.467241,-0.660678 0.655941,-0.683736 0.887573,-0.10846 0.5116,1.27057 2.391545,2.725429 4.686799,3.627031 1.220715,0.47951 2.120393,0.702081 1.999288,0.494604 -0.823877,-1.411485 -7.669067,-16.948589 -9.440969,-21.428965 -1.277251,-3.229617 -1.599272,-4.748124 -1.321218,-6.230287 0.41574,-2.216074 2.635562,-4.729504 4.40592,-4.988672 0.794593,-0.116323 1.33325,-0.757959 1.641992,-1.955893 0.611107,-2.37115 2.884461,-4.089777 5.415699,-4.094204 1.660379,-0.0029 2.19324,-0.30408 2.978011,-1.683185 1.107011,-1.945388 2.953947,-2.788287 6.1096,-2.788287 2.803279,0 4.164442,0.715276 5.210447,2.73803 0.613758,1.186868 1.359725,1.672384 2.963596,1.928852 2.580292,0.412606 4.547539,2.110763 4.986224,4.304188 0.242294,1.211471 0.79385,1.769084 2.213227,2.237519 3.759152,1.240634 4.568205,4.80839 2.22941,9.831276 -0.73247,1.57308 -2.837765,5.474727 -4.678436,8.670327 -1.840672,3.1956 -4.262823,7.635365 -5.382565,9.866143 l -2.035888,4.055961 2.664314,-1.0477 c 1.465377,-0.576235 3.104824,-1.232682 3.643224,-1.458772 0.75806,-0.318332 0.978908,-0.136878 0.978908,0.804301 0,0.668455 -0.27504,1.729288 -0.611197,2.357405 -0.455751,0.851579 -0.434881,1.304592 0.08206,1.781198 0.525522,0.484516 0.597749,0.469985 0.298499,-0.06005 -0.261211,-0.462671 0.0022,-0.69922 0.779284,-0.69922 3.38249,0 7.841992,-4.300145 7.841992,-7.561759 0,-0.739572 0.467191,-1.79499 1.038202,-2.345374 1.905604,-1.836757 3.070152,-5.995733 2.691974,-9.613905 -0.29935,-2.864053 -0.222223,-3.27435 0.60322,-3.208823 1.936465,0.153725 2.195142,-8.013187 0.400698,-12.650669 -0.52239,-1.350051 1.180412,-1.29076 3.497056,0.121768 2.010028,1.225569 4.459301,5.566771 5.171783,9.166699 l 0.45889,2.318585 0.06128,-2.09766 c 0.03373,-1.153713 0.302399,-2.09766 0.597089,-2.09766 1.016459,0 3.419835,4.927111 3.745772,7.679139 0.297918,2.515479 -0.238294,6.535077 -1.25171,9.383076 -0.269899,0.758505 -0.213581,0.937804 0.175303,0.558127 0.315119,-0.307656 1.020867,-1.938623 1.568328,-3.624371 l 0.995381,-3.064995 0.788653,2.225931 c 1.300824,3.671529 -0.251338,10.742546 -3.032751,13.815975 -0.499126,0.551526 -0.73544,1.174834 -0.525143,1.385128 0.210292,0.210296 0.733683,-0.105897 1.163088,-0.702648 1.831067,-2.544677 2.515279,-3.287997 2.531999,-2.750738 0.03401,1.093012 -3.31164,4.602098 -5.276884,5.534668 -1.087461,0.516038 -1.97721,1.295908 -1.97721,1.733044 0,1.163113 1.833204,0.33961 4.187623,-1.881138 1.081027,-1.019653 1.965507,-1.640179 1.965507,-1.378944 0,1.245497 -3.06081,4.741363 -5.581246,6.374551 -2.937966,1.903742 -3.701771,3.103217 -1.550792,2.435378 1.566012,-0.486215 3.668763,-1.957513 5.305262,-3.712084 1.663354,-1.783367 3.624857,-7.57801 3.207853,-9.476601 -0.194668,-0.886327 -0.05649,-1.660272 0.340196,-1.905437 1.137312,-0.702896 0.301632,5.303646 -1.171082,8.417305 -0.727586,1.538283 -1.340192,3.117119 -1.361353,3.508523 -0.05118,0.946689 -2.767267,2.687667 -6.02095,3.859347 -2.361349,0.850336 -3.714234,2.130082 -3.003351,2.840965 0.142798,0.142803 1.674789,-0.506845 3.404424,-1.443655 1.72963,-0.936809 3.066102,-1.478531 2.96994,-1.203821 -0.30594,0.873963 -6.253785,5.054862 -7.711748,5.420789 -1.713598,0.430082 -3.333796,1.841315 -2.113965,1.841315 2.07392,0 6.801883,-1.912121 8.572957,-3.467153 2.007247,-1.762386 4.012185,-5.063851 4.326677,-7.124596 0.09454,-0.619474 0.382345,-1.321593 0.639569,-1.560263 1.210668,-1.123343 -0.49992,3.812812 -2.218228,6.401034 -1.96704,2.962863 -3.79352,4.25345 -7.823237,5.527887 -1.230627,0.389192 -1.734065,0.713417 -1.118752,0.720493 0.615314,0.007 2.115991,-0.342321 3.334843,-0.776442 1.218847,-0.43412 2.335233,-0.670171 2.480844,-0.524554 0.342472,0.342478 -3.796625,4.618224 -5.256311,5.429834 -0.615313,0.342126 -2.629067,1.059425 -4.475007,1.593998 -2.896208,0.838721 -3.097673,0.977413 -1.469794,1.011803 1.691049,0.03574 1.806941,0.135951 1.118752,0.967564 -1.99893,2.415521 -6.214829,3.332691 -11.396413,2.479271 z m 8.634125,-1.295479 2.553954,-1.24474 -2.517192,-0.367214 c -3.2919,-0.48023 -6.887277,-2.001742 -6.440068,-2.725339 0.194126,-0.314107 0.604675,-0.571101 0.912332,-0.571101 0.307656,0 0.442701,0.18879 0.300094,0.419532 -0.298769,0.483419 1.488454,0.749956 5.592394,0.834019 3.721019,0.07622 7.33611,-1.327685 9.700553,-3.767168 l 1.880711,-1.940403 -1.917535,0.552446 c -1.054642,0.303841 -3.23613,0.583882 -4.847759,0.622305 -1.611624,0.03843 -3.373658,0.406398 -3.915632,0.817713 -0.856891,0.650314 -0.511213,0.757652 2.650542,0.823027 l 3.635943,0.07517 -3.076567,1.027193 c -3.787345,1.264503 -5.743208,1.336249 -7.775645,0.285237 -1.333815,-0.689744 -1.730172,-0.695975 -2.664011,-0.0419 -0.711258,0.49818 -1.379925,0.589437 -1.901375,0.259489 -0.442366,-0.279906 -1.157964,-0.51278 -1.590222,-0.51749 -1.468972,-0.016 0.995135,2.060859 3.956684,3.334886 1.546222,0.665165 2.723937,1.290117 2.617153,1.38878 -0.416568,0.384884 -7.549221,-0.977571 -8.976553,-1.714672 -1.897358,-0.97983 -2.125438,-0.974879 -2.125438,0.04609 0,1.217381 2.357328,2.550738 5.418843,3.065019 4.459809,0.74917 5.857846,0.64083 8.528794,-0.660927 z M 32.657747,84.889906 c 2.289034,-0.576381 3.479134,-1.351727 2.925145,-1.905716 -0.122079,-0.122078 -1.445886,0.146389 -2.941798,0.596591 -3.181741,0.957568 -6.457659,1.072296 -6.457659,0.226162 0,-0.325815 -0.249728,-0.438048 -0.554946,-0.249409 -0.305224,0.188632 -0.963363,0.114414 -1.462533,-0.164938 -0.696994,-0.390058 -0.361631,-0.59521 1.445343,-0.884161 2.51906,-0.402816 6.40038,-2.165264 7.037056,-3.195422 0.567744,-0.91863 -1.904496,-0.05864 -3.924403,1.365129 -1.298009,0.914932 -2.441514,1.153556 -5.303594,1.106742 l -3.648793,-0.05967 1.667651,1.331 c 2.714305,2.166362 7.070003,2.878308 11.218531,1.833696 z m 1.06824,-2.24161 c 1.279908,-0.46282 2.012059,-1.152682 2.254431,-2.124229 0.19742,-0.791343 0.75165,-1.874597 1.231628,-2.407224 1.821765,-2.021612 -2.008691,-3.550879 -5.155164,-2.058145 -0.864974,0.410352 -0.674635,0.467056 0.839064,0.249957 1.586519,-0.227543 1.763142,-0.166207 0.931322,0.32342 -0.979965,0.576828 -3.816818,0.166112 -6.824516,-0.988054 -0.740859,-0.284291 -0.883735,-0.192106 -0.546918,0.352877 0.250762,0.405738 -0.593616,0.147832 -1.876393,-0.573131 -1.282778,-0.720963 -2.240704,-1.576523 -2.128722,-1.901241 0.111987,-0.324723 -0.730954,-1.657682 -1.873199,-2.96213 -1.212224,-1.384372 -2.365875,-3.480197 -2.771171,-5.034384 -0.381903,-1.464461 -1.048757,-3.464571 -1.481899,-4.444686 -0.89593,-2.027301 -1.491928,-7.447675 -0.81891,-7.447675 0.244694,0 0.324657,-1.251383 0.177697,-2.780852 -0.167124,-1.739269 0.07242,-3.819204 0.639546,-5.553077 0.498706,-1.524723 0.77657,-3.11146 0.617462,-3.526082 -0.159104,-0.414622 0.519486,-1.853612 1.507982,-3.197755 1.43848,-1.95603 1.769038,-2.902819 1.655887,-4.7428 -0.07775,-1.264398 0.1114,-3.423888 0.420338,-4.798869 0.308937,-1.37498 0.478977,-2.582692 0.377864,-2.683804 -0.101113,-0.101112 -0.842118,1.137153 -1.64668,2.751699 -1.470846,2.951602 -2.028062,7.750261 -0.899958,7.750261 0.309587,0 -0.150718,0.9851 -1.022903,2.189112 -2.444484,3.374515 -4.166472,9.897303 -3.921952,14.856137 0.111579,2.262826 0.0104,3.995296 -0.224774,3.849933 -0.235201,-0.145363 -0.427638,-0.656719 -0.427638,-1.136346 0,-0.479627 -0.724235,-1.696904 -1.609402,-2.705059 -1.7587176,-2.003065 -3.8198893,-6.776561 -3.195637,-7.400813 0.6215227,-0.621524 1.4537007,1.142614 1.1196805,2.373619 -0.2120202,0.781393 -0.1498232,0.897838 0.2062531,0.386156 0.3917198,-0.562891 0.7271444,-0.400916 1.4479784,0.699219 0.515991,0.787499 1.184081,1.431817 1.484645,1.431817 0.886673,0 0.626753,-1.672112 -0.508282,-3.269905 C 10.335172,46.199846 8.8551308,42.631739 8.7971459,41.119223 8.7593881,40.133891 8.6220892,40.223672 7.9998394,41.640643 6.7985516,44.376203 6.7386032,52.06104 7.9046728,53.840686 9.287025,55.950423 9.5983737,55.660568 8.2772731,53.493807 7.6676316,52.493923 7.1702513,51.424116 7.1719909,51.116459 c 0.00168,-0.307657 0.7573168,0.755623 1.6790677,2.362842 0.9217509,1.607221 2.3999574,3.457532 3.2849074,4.111804 1.144326,0.846036 1.693432,1.819067 1.901358,3.369252 0.160793,1.198818 1.071552,3.844784 2.023912,5.879926 0.952354,2.035138 1.731559,3.786684 1.731559,3.892322 0,0.105644 -1.046145,-0.177026 -2.324761,-0.628151 -1.278621,-0.45112 -2.434751,-0.710234 -2.569174,-0.575805 -0.489331,0.489325 3.375901,2.093649 4.39934,1.82601 0.579072,-0.151428 1.187024,-0.05823 1.351016,0.207109 0.163987,0.265335 0.627346,0.35611 1.029689,0.201717 0.402342,-0.154394 1.074365,0.171247 1.493388,0.723648 0.6508,0.857948 0.647556,0.90243 -0.02226,0.305145 -1.26763,-1.130387 -1.772612,-0.802548 -0.874685,0.567856 1.203878,1.837354 6.826719,5.074082 9.129765,5.255454 1.205332,0.09493 3.056128,-0.361619 4.74753,-1.171098 l 2.772088,-1.326672 -2.37073,2.210676 c -2.499292,2.330551 -6.039991,4.392705 -7.542234,4.392705 -0.50322,0 -0.729505,0.266756 -0.517406,0.609938 0.4409,0.713384 4.405757,0.33901 7.231624,-0.682841 z m -4.29118,-5.343594 c 0.403797,-0.161587 0.886259,-0.141718 1.072134,0.04413 0.185875,0.185881 -0.144504,0.318083 -0.734181,0.293795 -0.65164,-0.02685 -0.784189,-0.159388 -0.337953,-0.337952 z m -12.38785,-9.500195 c -0.205101,-0.205101 -0.372914,-0.633023 -0.372914,-0.950939 0,-0.350505 0.260541,-0.31748 0.661927,0.08391 0.364058,0.364064 0.531871,0.791987 0.372919,0.950939 -0.158958,0.158958 -0.456826,0.1212 -0.661932,-0.08391 z M 15.617695,64.12195 c -0.554794,-1.66323 -0.535647,-1.725549 0.22497,-0.73215 0.457256,0.597201 0.831378,1.415289 0.831378,1.817972 0,1.247381 -0.423162,0.812413 -1.056348,-1.085822 z m -1.300476,-5.453915 c -0.135464,-0.922971 -0.03815,-1.678128 0.216199,-1.678128 0.25437,0 0.462497,0.755157 0.462497,1.678128 0,0.92297 -0.09729,1.678128 -0.216199,1.678128 -0.118912,0 -0.327033,-0.755158 -0.462497,-1.678128 z m -0.351736,-3.356256 c 0,-0.769142 0.126962,-1.083791 0.282144,-0.69922 0.155176,0.384571 0.155176,1.013869 0,1.39844 -0.155182,0.384571 -0.282144,0.06992 -0.282144,-0.69922 z m 0,-2.79688 c 0,-0.769142 0.126962,-1.083791 0.282144,-0.69922 0.155176,0.384571 0.155176,1.013869 0,1.39844 -0.155182,0.384571 -0.282144,0.06992 -0.282144,-0.69922 z m 1.030432,-6.959187 c 0,-0.443328 0.228242,-0.947114 0.507209,-1.119524 0.278966,-0.172409 0.375464,0.190314 0.214448,0.806052 -0.341566,1.306135 -0.721657,1.471241 -0.721657,0.313472 z m 0.875027,-2.714173 c 0.210062,-0.551668 0.522843,-0.862122 0.695069,-0.689897 0.172226,0.172225 3.52e-4,0.623589 -0.381936,1.003033 -0.552446,0.548338 -0.616701,0.484086 -0.313133,-0.313136 z m 51.986004,40.33478 c -1.060733,-0.596977 -4.109209,-3.021272 -6.839652,-5.43923 -1.692154,-1.498496 -2.215461,-0.437639 -0.946478,1.918715 1.161424,2.156629 4.597799,3.904364 8.065818,4.102255 0.550969,0.03144 0.454935,-0.168305 -0.279688,-0.58174 z M 40.240692,80.30633 c 0.193897,-0.281025 0.806458,-2.558624 1.361247,-5.061334 0.554784,-2.50271 1.111061,-4.927957 1.236176,-5.389442 0.486937,-1.79605 0.377065,-3.536837 -0.236616,-3.749024 -0.399243,-0.138043 -0.790141,0.848268 -1.031399,2.602432 -0.213671,1.553594 -0.599025,2.82472 -0.856338,2.82472 -0.257307,0 -0.233685,-0.816426 0.05247,-1.81428 0.727742,-2.537486 0.621763,-3.121559 -0.336521,-1.854594 -0.451707,0.597201 -0.821276,1.675862 -0.821276,2.397026 0,0.721165 -0.406834,1.932118 -0.90408,2.691001 -0.545789,0.83299 -0.786041,1.989007 -0.606229,2.917045 0.181243,0.935417 -0.02165,1.893331 -0.518273,2.446778 -0.448866,0.500244 -0.971603,1.867667 -1.16164,3.038715 l -0.345515,2.12919 1.907713,-1.33364 c 1.049238,-0.733499 2.066357,-1.563568 2.260259,-1.844593 z m -0.764325,-5.161899 c 0.14612,-0.764376 0.450968,-1.504301 0.677449,-1.644274 0.22648,-0.139967 0.292229,0.370911 0.146109,1.135287 -0.146121,0.764376 -0.450975,1.504302 -0.677455,1.644274 -0.22648,0.139967 -0.292224,-0.370911 -0.146103,-1.135287 z m 20.829001,6.806196 c 0,-0.731468 -0.367935,-1.635302 -0.817628,-2.008518 -0.515437,-0.427771 -0.798722,-1.620735 -0.766463,-3.227733 0.04134,-2.060736 -0.202293,-2.740349 -1.271674,-3.546986 -0.727564,-0.548798 -1.137816,-1.182846 -0.911665,-1.40899 0.226144,-0.22615 0.411174,-0.117503 0.411174,0.241427 0,0.358934 0.25172,0.652607 0.559376,0.652607 0.307657,0 0.559376,-0.853132 0.559376,-1.895848 0,-2.142645 -1.842439,-4.87211 -2.684954,-3.9776 -0.775054,0.822887 -1.307636,3.513424 -0.738242,3.729494 0.269781,0.102377 0.646113,1.489137 0.836289,3.081686 0.190183,1.592555 0.598315,3.559762 0.906967,4.371579 0.7516,1.976852 0.707107,2.675641 -0.138032,2.167901 -0.403455,-0.242389 -0.344301,0.01963 0.139844,0.619408 0.782086,0.968901 0.861848,0.871737 1.174584,-1.430906 l 0.335513,-2.470395 0.08402,2.545161 c 0.07811,2.366384 0.81143,3.887667 1.874015,3.887667 0.246126,0 0.447501,-0.598482 0.447501,-1.329954 z m -3.267936,-7.060689 c 0,-0.769142 0.126967,-1.083791 0.282144,-0.69922 0.155176,0.384571 0.155176,1.013869 0,1.39844 -0.155177,0.384571 -0.282144,0.06992 -0.282144,-0.69922 z m -30.014934,5.593759 c -0.190143,-0.307657 0.06158,-0.559376 0.559376,-0.559376 0.4978,0 0.749519,-0.251719 0.559376,-0.559376 -0.190143,-0.307656 -1.778245,-0.578887 -3.529114,-0.602727 -1.750869,-0.02385 -4.441993,-0.507774 -5.980277,-1.075401 l -2.79688,-1.032043 3.249421,-0.04335 c 2.014061,-0.02687 3.117995,-0.256021 2.903715,-0.602733 -0.190143,-0.307657 -1.677753,-0.559376 -3.3058,-0.559376 -3.126778,0 -6.973041,-1.026662 -6.038402,-1.611797 0.304591,-0.190692 -0.04788,-0.797173 -0.785151,-1.351039 -0.73582,-0.552764 -1.337854,-0.768487 -1.337854,-0.479379 0,0.289102 0.393532,0.676654 0.874517,0.861226 0.480985,0.184572 0.706329,0.607717 0.50077,0.940317 -0.548921,0.888177 1.85936,3.219225 5.057536,4.895345 1.753772,0.919127 4.152919,1.595827 6.432824,1.814431 1.999769,0.191748 3.713725,0.388235 3.808796,0.436643 0.09507,0.04841 0.01728,-0.163707 -0.172853,-0.471365 z m 50.34384,-0.570636 c 0.693934,-0.06405 0.375319,-0.288515 -0.839064,-0.591132 -1.076799,-0.268327 -2.712974,-0.332795 -3.635944,-0.143256 -1.489573,0.305895 -1.552425,0.394136 -0.559376,0.785347 0.615314,0.242406 1.74805,0.353336 2.517192,0.246517 0.769142,-0.106824 1.901878,-0.240688 2.517192,-0.297476 z m -3.567325,-1.648856 c 1.114534,-0.324852 3.191217,-1.615925 4.614851,-2.869056 1.423629,-1.253131 2.588418,-2.126048 2.588418,-1.939821 0,0.186228 1.006876,-0.175073 2.237503,-0.802894 1.230628,-0.627821 2.237504,-1.240366 2.237504,-1.361219 0,-0.388017 -3.619056,1.061091 -4.098061,1.640907 -0.742532,0.898805 -0.255646,-0.240006 1.739934,-4.069645 3.767341,-7.22976 4.654097,-15.531381 2.440484,-22.847262 -1.140696,-3.769924 -1.156666,-4.098202 -0.299227,-6.150335 1.212442,-2.901793 0.823827,-9.169881 -0.759017,-12.242211 -1.335158,-2.591576 -3.224484,-4.457723 -5.085416,-5.023025 -1.234296,-0.374948 -1.265532,-0.324334 -0.564393,0.914617 0.48457,0.856264 0.729795,3.204716 0.706436,6.765444 -0.01969,2.999653 0.177602,5.453915 0.438394,5.453915 0.803818,0 1.531717,-2.642046 1.639889,-5.952253 0.09116,-2.789656 0.19059,-3.038044 0.853328,-2.131695 0.881504,1.20553 0.990062,2.145116 0.190769,1.651125 -0.337415,-0.208533 -0.559376,0.544794 -0.559376,1.898483 0,1.234308 -0.295898,2.893624 -0.657552,3.687369 -0.574563,1.261019 -0.503958,1.550756 0.559376,2.295542 0.669311,0.468804 1.216928,1.133694 1.216928,1.477535 0,0.343841 -0.634612,0.02898 -1.410254,-0.699699 -0.775636,-0.728675 -2.097162,-1.371803 -2.936723,-1.429173 -1.520183,-0.10388 -1.52647,-0.08895 -1.52647,3.625469 0,2.46981 -0.360255,4.52779 -1.066434,6.092065 -0.586539,1.299257 -0.901188,2.527531 -0.69922,2.7295 0.569714,0.569715 0.940546,-0.03521 2.353357,-3.838964 l 1.31182,-3.531856 0.01684,2.517192 c 0.0093,1.384455 -0.480151,3.612485 -1.087611,4.951177 -1.222248,2.693525 -1.077962,3.477079 0.581432,3.157509 1.417302,-0.272948 1.398725,0.178998 -0.07171,1.744199 -0.648284,0.690065 -1.061802,1.587306 -0.918926,1.993869 0.156675,0.445846 0.767368,-0.11021 1.538826,-1.40115 0.963357,-1.612067 1.406316,-1.957234 1.794635,-1.39844 0.350896,0.504947 0.40364,0.343525 0.165128,-0.505393 -0.192745,-0.686019 -0.09103,-1.692896 0.226038,-2.237504 0.483435,-0.830382 0.579222,-0.70266 0.593486,0.791361 0.02478,2.593209 -0.711224,4.138664 -3.285757,6.899604 -2.365299,2.536549 -2.75863,3.549756 -1.645186,4.237902 0.355192,0.219521 0.496334,0.15728 0.313647,-0.138313 -0.182686,-0.295593 0.680297,-1.52006 1.917737,-2.721035 1.237446,-1.200977 2.653601,-2.948843 3.147015,-3.88415 1.112968,-2.109713 1.300947,-9.421418 0.268775,-10.454306 -0.559555,-0.55994 -0.69922,-0.494787 -0.69922,0.32618 0,0.564237 -0.294248,2.008004 -0.653888,3.208373 -0.463762,1.547901 -0.799712,1.973386 -1.155397,1.463339 -0.322676,-0.462742 -0.375632,-0.220546 -0.148508,0.679289 0.271728,1.076546 0.217753,1.205304 -0.23448,0.559376 -0.485454,-0.693376 -0.588939,-0.70147 -0.59602,-0.04661 -0.0045,0.435847 -0.137109,0.663903 -0.294226,0.506789 -0.157112,-0.157114 0.09461,-1.36345 0.559376,-2.68075 1.263982,-3.582499 1.099263,-8.143856 -0.380544,-10.53824 -0.67407,-1.090669 -0.924,-1.796647 -0.555399,-1.568838 1.403939,0.867682 2.452953,3.94276 2.482097,7.276003 0.02439,2.791881 0.104508,3.078499 0.438595,1.569349 0.540251,-2.440473 0.876056,-2.689733 1.657219,-1.230116 0.966087,1.805153 1.349517,6.923623 0.665618,8.885462 -0.424667,1.218201 -0.425042,1.82528 -0.0011,2.087181 0.376656,0.232786 0.481147,1.633249 0.282642,3.788153 -0.212792,2.310011 -0.146848,3.055988 0.203333,2.300077 l 0.518262,-1.118752 -0.168317,1.118752 c -0.09257,0.615314 -0.438332,1.065717 -0.768347,1.000897 -0.330021,-0.06482 -1.424384,1.571353 -2.431921,3.635943 -1.007537,2.064591 -2.539701,4.571719 -3.404809,5.571402 -0.865103,0.999683 -1.43537,2.17604 -1.267261,2.614138 0.182832,0.476459 -0.217524,1.05095 -0.996321,1.429664 -1.236797,0.601441 -1.248013,0.589873 -0.224064,-0.231006 1.729199,-1.386262 0.799399,-1.390054 -1.777031,-0.0073 -1.307485,0.701743 -2.075374,1.376518 -1.706416,1.499508 0.412233,0.137411 0.293169,0.368534 -0.308842,0.599551 -0.585773,0.224779 -0.842264,0.153599 -0.637924,-0.177032 0.187805,-0.304117 -0.06569,-0.552956 -0.563493,-0.552956 -0.4978,0 -0.773857,0.21234 -0.613462,0.471868 0.458392,0.741687 -1.968684,0.377198 -4.349388,-0.653178 -2.593765,-1.122589 -2.777766,-1.142207 -2.234674,-0.238222 0.241483,0.401946 -0.01851,0.342753 -0.611599,-0.139228 -0.967687,-0.786455 -0.90667,-0.858771 0.983886,-1.166075 2.378305,-0.386579 6.734747,-3.110254 6.24423,-3.903924 -0.187665,-0.303652 -0.0078,-0.482926 0.399585,-0.398393 0.407438,0.08454 0.677868,-0.160944 0.600954,-0.545515 -0.07691,-0.384571 0.174805,-0.63629 0.559376,-0.559376 0.384571,0.07691 0.664712,-0.297957 0.62253,-0.833045 -0.04218,-0.535088 0.148654,-0.833621 0.424063,-0.663409 1.378,0.85165 4.830647,-12.153719 4.166456,-15.694145 -0.350354,-1.867562 -2.501474,-5.105182 -2.537403,-3.819012 -0.01024,0.366414 0.222117,0.814984 0.516338,0.996822 0.294221,0.181838 0.377299,0.741425 0.184628,1.243527 -0.226632,0.590584 -0.12958,0.776487 0.274877,0.526521 1.405326,-0.868541 -0.604887,5.271709 -2.196048,6.707895 l -1.159486,1.046547 1.136389,-1.957816 c 1.030259,-1.774978 1.46547,-3.8808 1.27168,-6.153136 -0.03938,-0.461485 -0.543255,0.199688 -1.119782,1.469273 -0.57652,1.269586 -1.324792,2.479271 -1.662834,2.68819 -0.338037,0.208919 -0.892798,0.899648 -1.232803,1.534955 -0.680431,1.27139 -0.02623,1.079021 1.870771,-0.550126 0.5384,-0.462372 0.978908,-0.665611 0.978908,-0.451642 0,0.777712 -2.465712,3.69999 -3.121916,3.69999 -0.37071,0 -0.798213,0.323638 -0.950005,0.719197 -0.162331,0.423033 0.141639,0.719198 0.738152,0.719198 0.557771,0 0.867855,-0.236672 0.689079,-0.525938 -0.188644,-0.305232 -0.01779,-0.336031 0.407186,-0.07339 0.515359,0.318509 0.598197,0.235671 0.279688,-0.279688 -0.318508,-0.51536 -0.23567,-0.598198 0.279688,-0.279688 0.412266,0.254795 0.595708,0.231453 0.419795,-0.05342 -0.17184,-0.278278 0.292705,-0.542261 1.032323,-0.586629 0.739618,-0.04437 1.348616,0.20735 1.353326,0.559375 0.005,0.35937 0.268786,0.272095 0.601961,-0.199018 0.527464,-0.745835 0.565362,-0.745835 0.341046,0 -0.138792,0.461485 -0.520197,0.781247 -0.847561,0.710582 -0.327363,-0.07066 -0.765623,0.432774 -0.973912,1.118752 -0.208284,0.685979 -0.997273,2.072771 -1.753308,3.081762 -0.756036,1.008991 -1.250133,2.141728 -1.097988,2.517193 0.157319,0.38824 0.295664,0.260473 0.32078,-0.296246 0.02428,-0.538399 0.302348,-0.978908 0.617903,-0.978908 0.86941,0 -0.790124,2.845451 -2.741418,4.700448 -0.939494,0.893139 -1.587162,1.819689 -1.439252,2.059012 0.147905,0.239318 -0.02579,0.617272 -0.386008,0.839892 -0.409027,0.252793 -0.505072,0.162297 -0.255797,-0.241035 0.451645,-0.73078 0.247568,-0.792524 -1.016375,-0.307506 -0.484878,0.186071 -0.780637,0.50072 -0.657245,0.69922 0.123399,0.198506 -1.13664,0.274693 -2.80009,0.169307 -1.663453,-0.105387 -3.024454,-0.06305 -3.024454,0.09409 0,0.956136 0.797553,2.055338 1.491305,2.055338 0.446723,0 0.669114,0.231565 0.494197,0.514586 -0.174916,0.283017 0.376595,1.066389 1.225582,1.740818 1.365493,1.08473 1.995451,1.189568 5.459246,0.908493 2.153598,-0.17476 4.827527,-0.58353 5.942067,-0.908382 z m 4.416055,-4.844061 c 0.0056,-0.268411 0.67539,-1.11732 1.489053,-1.886462 1.268396,-1.198989 1.391039,-1.232317 0.85994,-0.233685 -0.719447,1.352784 -2.363179,2.836377 -2.348993,2.120147 z m 3.34659,-4.683342 c 0.329304,-0.615314 0.724598,-1.118752 0.878427,-1.118752 0.153828,0 0.01024,0.503438 -0.319052,1.118752 -0.329304,0.615314 -0.724598,1.118752 -0.878427,1.118752 -0.153828,0 -0.01024,-0.503438 0.319052,-1.118752 z m 1.118751,-2.204489 c 0,-0.289502 0.248839,-0.680155 0.552972,-0.868119 0.317087,-0.195971 0.410861,0.02856 0.21984,0.526363 -0.371868,0.969073 -0.772812,1.146379 -0.772812,0.341756 z m 2.937944,-10.38147 c 0.0062,-1.230627 0.120763,-1.668201 0.25456,-0.972386 0.133798,0.695815 0.128718,1.702692 -0.0113,2.237504 -0.140006,0.534812 -0.249482,-0.03449 -0.243273,-1.265118 z m -10.165668,0.512761 c 0.02685,-0.651641 0.159388,-0.784189 0.337952,-0.337956 0.161587,0.403799 0.141718,0.886261 -0.04413,1.072137 -0.18588,0.185876 -0.318083,-0.144505 -0.293795,-0.734181 z M 85.58634,52.235211 c 0.01141,-0.92297 0.136767,-1.232829 0.278591,-0.688574 0.141824,0.544255 0.1325,1.299412 -0.02075,1.678128 -0.153202,0.378716 -0.269238,-0.06658 -0.257838,-0.989554 z m -0.580107,-3.076568 c 0,-0.769142 0.126967,-1.083791 0.282144,-0.69922 0.155176,0.384571 0.155176,1.013869 0,1.39844 -0.155177,0.384571 -0.282144,0.06992 -0.282144,-0.69922 z m -1.916802,-6.667672 c -0.243312,-0.930435 -0.170515,-1.148834 0.244581,-0.733739 0.325054,0.325055 0.480946,0.921191 0.346427,1.324748 -0.139648,0.418942 -0.393207,0.165381 -0.591008,-0.591009 z m 0.591501,-1.821083 c -0.205705,-0.51545 -0.115198,-1.874526 0.201129,-3.020171 0.415885,-1.506209 0.38522,-2.761335 -0.110757,-4.532776 -0.377243,-1.347382 -0.553664,-2.582014 -0.392055,-2.743627 0.161615,-0.161612 0.568706,0.915413 0.904656,2.393389 0.635222,2.794599 0.109291,9.687968 -0.602973,7.903185 z M 24.505307,77.451768 C 23.696292,77.0181 22.282128,76.827113 21.150142,76.99864 c -1.641042,0.24867 -1.776411,0.366883 -0.839064,0.732715 0.614715,0.239911 2.124538,0.44382 3.355165,0.453128 2.190242,0.01656 2.207963,0.0011 0.839064,-0.732715 z M 71.49289,76.267837 c 1.956418,-0.544205 4.596784,-2.622209 6.690002,-5.265109 l 1.779174,-2.246387 -2.416616,1.096696 c -1.329139,0.603186 -3.078022,1.102228 -3.88641,1.108985 -0.808382,0.0068 -1.783151,0.389863 -2.16615,0.851348 -0.902754,1.087757 0.0022,1.087947 3.055155,5.59e-4 2.338024,-0.832737 2.902764,-0.762731 2.258346,0.279957 -0.215751,0.349101 -0.757473,0.494589 -1.203816,0.323313 -0.446343,-0.171281 -0.679463,-0.09772 -0.518038,0.163472 0.650107,1.051896 -4.329419,2.612846 -9.045562,2.835539 -1.341306,0.06333 -0.687261,1.079209 0.839064,1.303251 1.638194,0.240453 2.391645,0.166705 4.614851,-0.451713 z M 31.485026,75.497845 c 1.081201,-0.422418 1.078869,-0.446885 -0.10307,-1.079439 -0.665137,-0.35597 -1.943283,-0.64722 -2.840315,-0.64722 -1.525005,0 -5.660813,-2.471189 -6.553694,-3.915901 -0.722283,-1.168681 0.276975,-1.327063 2.296529,-0.364002 1.279427,0.610117 1.922984,0.71604 1.782077,0.293314 -0.121312,-0.363924 -1.304263,-0.981654 -2.628787,-1.372742 -1.324524,-0.391082 -3.010635,-1.276994 -3.746908,-1.968692 -0.736278,-0.691697 -1.338687,-1.00519 -1.338687,-0.69665 0,1.260508 3.669523,5.97861 5.68962,7.315446 2.449586,1.62106 2.525677,2.421163 0.09252,0.972805 l -1.586815,-0.944568 1.350781,1.204029 c 0.742935,0.662217 1.686602,1.075165 2.097039,0.917667 0.410436,-0.157503 1.3129,-0.05861 2.005469,0.219762 1.529323,0.614687 2.054789,0.624666 3.484246,0.06619 z m 15.634223,-2.42297 c -0.90907,-1.001261 -1.077537,-1.333312 -0.378748,-0.746532 1.418069,1.190771 1.645046,0.60238 0.401738,-1.041419 -0.451701,-0.597201 -0.82127,-1.67509 -0.82127,-2.395315 0,-0.720219 -0.368634,-2.191752 -0.819184,-3.270065 -0.450549,-1.078315 -0.555924,-1.797872 -0.234166,-1.599015 0.359623,0.222259 0.513597,-0.144545 0.399647,-0.952062 -0.117665,-0.833877 0.09773,-1.315855 0.589811,-1.319742 0.473048,-0.0037 0.853608,-0.76919 0.976402,-1.963938 0.155009,-1.508141 0.06355,-1.765098 -0.398225,-1.118752 -0.532851,0.745834 -0.574009,0.745834 -0.370413,0 0.125971,-0.461485 0.531899,-0.839064 0.902049,-0.839064 0.370156,0 0.887406,-0.346898 1.149445,-0.770885 0.262034,-0.423986 0.738902,-0.608669 1.059693,-0.410407 0.320797,0.198262 0.741375,0.104651 0.934622,-0.208024 0.515471,-0.834055 -1.208117,-0.692735 -3.02779,0.248255 -1.537232,0.794934 -2.280643,0.66114 -2.280643,-0.410455 0,-0.289297 0.390652,-0.376086 0.868113,-0.192866 0.527776,0.202526 0.725068,0.10167 0.503242,-0.257253 -0.200682,-0.32471 -0.02495,-0.543721 0.390478,-0.486693 1.747105,0.239827 3.314264,-0.0682 2.992863,-0.58824 -0.190143,-0.307657 0.06158,-0.559376 0.559376,-0.559376 0.4978,0 0.760264,0.234326 0.583261,0.520724 -0.507108,0.820515 0.839691,1.357727 1.563137,0.623506 0.495658,-0.503043 0.392044,-0.850911 -0.43534,-1.461576 -1.427924,-1.053899 -2.260572,-1.011048 -3.449123,0.177502 -0.5384,0.538399 -1.122746,0.913291 -1.298547,0.833093 -0.175806,-0.0802 -0.992512,0.08875 -1.814906,0.375435 -1.005674,0.350581 -1.43923,0.856207 -1.324133,1.544255 0.09412,0.562653 0.483217,0.949781 0.864661,0.860286 0.43251,-0.101475 0.562442,0.178917 0.34523,0.74497 -0.191575,0.499228 -0.348312,1.405395 -0.348312,2.013703 0,0.693581 -0.240822,0.957179 -0.645805,0.706886 -0.374659,-0.23155 -0.494902,-0.154959 -0.286389,0.18242 0.197678,0.319852 0.08871,1.358102 -0.242154,2.307222 -0.410895,1.178697 -0.424695,2.307201 -0.04352,3.560357 0.306919,1.009075 0.706425,2.507509 0.887797,3.329853 0.358566,1.625753 3.074051,5.177024 3.575324,4.675751 0.170034,-0.170028 -0.427659,-1.120671 -1.328199,-2.112539 z m -1.872875,-3.545622 c 0.02685,-0.651645 0.159389,-0.784189 0.337959,-0.337958 0.161586,0.403797 0.141712,0.886259 -0.04419,1.072139 -0.185875,0.185875 -0.318084,-0.144509 -0.293796,-0.734181 z m -0.559376,-2.79688 c 0.02685,-0.651642 0.159389,-0.78419 0.337959,-0.337958 0.161586,0.403797 0.141712,0.886259 -0.04419,1.072139 -0.185875,0.185875 -0.318084,-0.144509 -0.293796,-0.734181 z m 7.437726,5.247926 c -0.171253,-0.277093 -0.659532,-0.210521 -1.092702,0.148978 -0.430708,0.357453 -0.655913,0.855723 -0.500451,1.107263 0.155456,0.25154 0.04425,0.604702 -0.247194,0.784804 -0.291418,0.180108 -0.68796,0.07164 -0.881202,-0.241035 -0.193247,-0.312674 -0.590348,-0.568499 -0.882454,-0.568499 -0.292112,0 -0.220971,0.496608 0.158085,1.103576 0.673002,1.077638 0.725225,1.069057 2.222356,-0.365289 0.843237,-0.807874 1.393842,-1.694283 1.223562,-1.969798 z m -14.75377,2.350263 c 0,-0.307657 -0.755158,-0.559376 -1.678128,-0.559376 -1.118752,0 -1.678128,-0.279688 -1.678128,-0.839064 0,-0.461485 -0.266576,-0.839064 -0.59239,-0.839064 -0.325814,0 -0.436817,0.251719 -0.246674,0.559376 0.437533,0.707946 -0.302975,0.707946 -1.39844,0 -0.66818,-0.43181 -0.681297,-0.543988 -0.06441,-0.550812 0.44943,-0.005 0.177551,-0.478244 -0.647607,-1.127316 -0.782248,-0.615314 -1.610365,-1.118752 -1.840263,-1.118752 -0.229898,0 0.03759,0.503438 0.59446,1.118752 0.556848,0.615313 0.784654,1.114215 0.506224,1.108666 -0.532895,-0.01061 -4.142167,-4.13922 -4.142167,-4.738183 0,-0.191675 0.621343,0.357766 1.380763,1.220978 0.759415,0.863212 1.388712,1.269683 1.39844,0.903269 0.0097,-0.366413 -0.235833,-0.822886 -0.545682,-1.014383 -0.932978,-0.576611 -2.275833,-3.564075 -2.544188,-5.660089 -0.138647,-1.082876 -0.490108,-2.413623 -0.781028,-2.957215 -0.290921,-0.543592 -0.521579,-2.528859 -0.512573,-4.411704 0.009,-1.882844 -0.146283,-4.000245 -0.345074,-4.705334 -0.211668,-0.750725 -0.166996,-1.005594 0.107792,-0.615028 0.313603,0.445729 0.666765,0.0359 1.064727,-1.235571 0.327515,-1.046388 0.421938,-1.795268 0.209828,-1.664178 -1.132843,0.700135 -2.587248,-8.78571 -1.716037,-11.192226 l 0.607516,-1.678127 -1.436159,1.678127 c -2.300517,2.688117 -2.614417,4.010064 -1.924052,8.102988 0.710413,4.211825 1.351716,5.593851 2.201424,4.744142 0.385136,-0.385137 0.114057,-1.693732 -0.840339,-4.05657 -1.046419,-2.590682 -1.263026,-3.738385 -0.841945,-4.461167 0.492458,-0.845297 0.569579,-0.789426 0.58706,0.425303 0.03026,2.104123 1.07158,5.452786 1.977198,6.3584 0.687876,0.687878 0.690365,0.895356 0.01745,1.453838 -0.974467,0.808734 -2.044083,5.595995 -1.718392,7.690951 0.133198,0.856778 0.364775,2.503081 0.514615,3.65845 l 0.272427,2.100673 -2.440093,-1.678829 C 19.535061,59.42813 17.914493,58.008373 17.275848,57.196469 l -1.161164,-1.476187 v 1.491843 c 0,2.099002 1.469156,5.370665 3.246081,7.228697 1.706667,1.784562 5.068651,3.998968 5.466832,3.600788 0.581628,-0.581628 -0.482647,-2.020657 -1.725037,-2.332477 -1.385508,-0.34774 -5.309748,-4.699721 -5.309748,-5.888505 0,-0.382439 1.046464,0.07958 2.347701,1.036519 2.786039,2.048876 3.665445,2.158185 3.906374,0.485553 0.131565,-0.913397 0.341532,-0.622836 0.795449,1.100768 0.339189,1.287953 0.402119,2.209111 0.139844,2.047018 -0.262269,-0.162095 -0.476857,-0.02814 -0.476857,0.297672 0,0.325813 0.243816,0.592388 0.541818,0.592388 0.298002,0 0.412892,0.335983 0.25531,0.74663 -0.157576,0.410646 0.547098,1.983891 1.565951,3.496097 l 1.852457,2.749473 -2.715496,-1.303475 c -1.493517,-0.716913 -2.839353,-1.179612 -2.990743,-1.028222 -0.532492,0.532486 4.864093,3.283878 5.763821,2.93862 0.496687,-0.190596 1.232647,-0.07301 1.635464,0.261301 1.625424,1.348985 6.957066,2.184005 6.957066,1.089592 z M 23.474875,58.668035 c 0,-0.769142 0.126961,-1.083791 0.282143,-0.69922 0.155177,0.384571 0.155177,1.013869 0,1.39844 -0.155182,0.384571 -0.282143,0.06992 -0.282143,-0.69922 z m -0.603539,-4.241934 c 0.02685,-0.651642 0.159388,-0.78419 0.337958,-0.337957 0.161587,0.4038 0.141712,0.886261 -0.04419,1.072137 -0.185875,0.185876 -0.318083,-0.144505 -0.293795,-0.73418 z m 0.603539,-2.470578 c 0,-0.769142 0.126961,-1.083791 0.282143,-0.69922 0.155177,0.384571 0.155177,1.013869 0,1.39844 -0.155182,0.384571 -0.282143,0.06992 -0.282143,-0.69922 z m 20.888278,22.375039 c -0.190143,-0.307657 -0.0372,-0.559376 0.339905,-0.559376 0.377087,0 0.534551,-0.151065 0.349912,-0.335704 -0.502437,-0.502437 -1.597276,0.331872 -1.225307,0.933733 0.177003,0.286394 0.447685,0.520723 0.601513,0.520723 0.153829,0 0.12412,-0.25172 -0.06602,-0.559376 z M 72.89133,73.512536 c 1.664172,-0.659432 1.657901,-0.663991 -0.753798,-0.548133 -1.406898,0.06759 -2.821526,0.513524 -3.356256,1.057993 -0.863414,0.879132 -0.813735,0.915256 0.753798,0.548132 0.922971,-0.21617 2.433286,-0.692267 3.356256,-1.057992 z m -53.385379,0.0212 C 19.16523,73.123188 18.144212,72.638841 17.237027,72.457402 15.011768,72.012351 11.493651,69.730718 10.356401,67.995047 l -0.9276301,-1.415741 2.3640401,1.351715 c 2.464437,1.409085 4.321856,1.758628 4.321856,0.813288 0,-0.303529 -0.943947,-0.930114 -2.09766,-1.39241 -2.850473,-1.1422 -3.797508,-1.766648 -3.658145,-2.41207 0.149102,-0.690517 -1.8673871,-2.539712 -2.9413609,-2.697337 -1.1651746,-0.171011 -0.9956445,1.32224 0.5195204,4.576132 1.3183093,2.831147 4.8751855,6.358068 6.4871225,6.432504 0.633465,0.02926 0.59206,0.141612 -0.161738,0.438875 -0.600602,0.236857 0.386875,0.438372 2.424922,0.494864 2.809891,0.07788 3.324925,-0.04112 2.818623,-0.651159 z M 8.6030481,63.942151 C 7.3243873,62.663494 7.5245712,62.229769 8.8427798,63.42273 c 0.6153136,0.556851 1.1187519,1.099303 1.1187519,1.205449 0,0.415698 -0.5186981,0.153758 -1.3584836,-0.686028 z m 41.5471569,9.409503 c -0.04749,-0.230743 0.32827,-1.3511 0.835076,-2.489676 0.506806,-1.138582 0.933582,-2.648897 0.948388,-3.356256 0.07939,-3.793187 0.02875,-4.811774 -0.328158,-6.600183 -0.214895,-1.076799 -0.617232,-2.243069 -0.894089,-2.591711 -0.321189,-0.404466 -0.204833,-0.748455 0.321479,-0.95042 0.583943,-0.224081 0.72372,-0.05299 0.47859,0.585813 -0.19596,0.51067 -0.112938,0.758139 0.191273,0.570127 0.318576,-0.196891 0.446567,0.446984 0.314207,1.58069 -0.151618,1.298751 0.03216,2.010936 0.572388,2.218244 0.578355,0.221936 0.736278,1.025649 0.578154,2.942398 -0.119651,1.450381 -0.252698,3.077567 -0.295658,3.615966 -0.04296,0.538399 -0.27589,0.978908 -0.517619,0.978908 -0.241729,0 -0.439507,0.377579 -0.439507,0.839064 0,0.943108 0.874595,1.127282 1.39034,0.292788 0.18569,-0.300452 0.450314,-1.244398 0.588049,-2.097659 0.13773,-0.853261 0.406695,-2.238964 0.597694,-3.079334 0.492346,-2.166299 -0.17188,-4.343835 -1.328149,-4.354064 -0.771928,-0.0068 -0.811123,-0.108074 -0.19332,-0.499336 0.510106,-0.323054 0.651113,-0.9841 0.412618,-1.934349 -0.255093,-1.016355 -0.153336,-1.392348 0.34382,-1.27047 0.388375,0.09521 0.51735,0.06753 0.286608,-0.06152 -0.918803,-0.513842 -0.348816,-1.313091 0.69922,-0.980458 0.641777,0.203692 1.118751,0.10052 1.118751,-0.241993 0,-0.924348 -2.231429,-0.704413 -2.600074,0.25627 -0.248184,0.646756 -0.51,0.701846 -1.081481,0.227558 -0.573047,-0.475587 -1.161522,-0.335615 -2.451868,0.58319 -0.933811,0.664934 -1.729305,1.569409 -1.767762,2.009945 -0.112714,1.291178 -0.201845,1.600566 -0.676515,2.348382 -0.247294,0.389589 -0.624347,0.600358 -0.8379,0.468375 -0.213553,-0.131984 -0.321552,0.556138 -0.240001,1.529159 0.360378,4.299673 1.177302,7.197476 2.394241,8.492845 1.360313,1.44799 1.726223,1.67193 1.581205,0.967704 z m -2.021545,-7.2805 c -0.664394,-1.905889 0.273809,-3.995641 1.463702,-3.260246 0.873365,0.539768 0.8135,2.683705 -0.110203,3.946945 -0.706111,0.965667 -0.792814,0.921678 -1.353499,-0.686699 z m 1.548565,-1.562684 c 0,-0.750986 -0.199378,-1.365428 -0.443065,-1.365428 -0.243687,0 -0.433337,0.731653 -0.421445,1.625895 0.01186,0.894242 0.211265,1.508685 0.443065,1.365428 0.231794,-0.143258 0.421445,-0.87491 0.421445,-1.625895 z M 37.23111,72.826215 c -0.5384,-0.140694 -1.419417,-0.140694 -1.957816,0 -0.538399,0.1407 -0.09789,0.25582 0.978908,0.25582 1.076799,0 1.517307,-0.11512 0.978908,-0.25582 z m 28.959053,-0.989922 c 1.290928,-0.756534 2.790642,-2.052389 3.332706,-2.879679 0.982823,-1.499983 0.981878,-1.502992 -0.340179,-1.083354 -0.729158,0.231447 -2.13501,0.546941 -3.124115,0.701088 -0.989105,0.154153 -2.121842,0.673796 -2.517192,1.15477 -0.630903,0.767537 -0.513574,0.833538 0.959308,0.539641 0.92297,-0.184174 2.181566,-0.525477 2.796879,-0.758452 1.004752,-0.380431 1.03837,-0.324824 0.329915,0.54566 -0.433863,0.533091 -1.139164,0.834818 -1.567338,0.670513 -0.489353,-0.187783 -0.629745,-0.05805 -0.377993,0.349291 0.271236,0.43887 0.0853,0.527078 -0.576073,0.273283 -0.537118,-0.206113 -1.595094,-0.374748 -2.351057,-0.374748 h -1.374482 l 1.14054,-1.224228 c 0.627301,-0.673326 1.140545,-1.471595 1.140545,-1.773927 0,-0.978538 1.76143,-2.528528 2.535774,-2.231384 0.413894,0.158825 1.20833,0.01253 1.765413,-0.325096 0.845491,-0.512421 0.758665,-0.556357 -0.5254,-0.265857 -0.846056,0.191408 -1.538283,0.20671 -1.538283,0.034 0,-0.730523 1.465251,-3.52578 2.373337,-4.527601 1.369257,-1.510608 1.301013,-3.089383 -0.117508,-2.718431 -1.552476,0.405982 -3.105331,2.42819 -4.530476,5.899811 -0.37147,0.9049 -0.896517,1.3859 -1.275942,1.168914 -0.354605,-0.202789 -0.453637,-0.158234 -0.220081,0.09901 0.565865,0.623254 -1.780742,3.077453 -2.899506,3.032446 -0.514922,-0.0207 -0.299943,-0.279828 0.517037,-0.623184 0.860018,-0.361441 1.121988,-0.691204 0.680414,-0.856489 -0.394914,-0.14782 -1.109875,0.05644 -1.588796,0.453911 -0.782981,0.649816 -0.770305,0.796132 0.12572,1.451324 0.548071,0.400753 0.696658,0.728648 0.3302,0.728648 -0.891164,0 -0.85956,1.478247 0.03295,1.540225 0.384571,0.02668 1.831959,0.303904 3.216415,0.615991 l 2.517191,0.567442 -3.0391,-0.0758 c -1.927602,-0.04805 -3.120997,0.169899 -3.263028,0.595993 -0.432073,1.296225 4.877415,0.793486 7.432224,-0.703734 z m -5.86468,-1.732219 c 0.02137,-0.561508 2.769272,-4.101485 2.773988,-3.573607 0.0017,0.170973 -0.626518,1.16382 -1.39566,2.206335 -0.769142,1.042515 -1.389392,1.657783 -1.378328,1.367272 z m -21.556089,1.429608 c 0.203394,-0.329103 -0.41626,-0.564433 -1.505275,-0.57166 -1.926665,-0.01281 -6.210573,-1.692756 -6.816483,-2.67314 -0.224181,-0.362728 0.481343,-0.453061 1.974435,-0.252793 1.673216,0.224421 2.211811,0.13128 1.92493,-0.332902 -0.21908,-0.354482 -1.079428,-0.644513 -1.911886,-0.644513 -0.832457,0 -2.476441,-0.516075 -3.653301,-1.146835 -2.262368,-1.212557 -2.253586,-0.960733 0.07624,2.186631 2.196491,2.967232 8.788507,5.251987 9.911337,3.435212 z m 0.654688,-3.193388 c 0.309323,-0.98722 0.362548,-1.671427 0.11828,-1.520457 -0.244274,0.150965 -0.870115,-0.425762 -1.39076,-1.281622 -0.520645,-0.85586 -1.66444,-2.604136 -2.541765,-3.885058 -0.877331,-1.280922 -1.595139,-2.577823 -1.595139,-2.882002 0,-0.30418 -0.717612,-0.803215 -1.594697,-1.108967 -2.297592,-0.800945 -5.498582,-4.326132 -6.105052,-6.723369 l -0.52112,-2.059864 -0.418626,2.053931 c -0.230239,1.129662 -0.247501,2.833047 -0.03837,3.785301 0.393376,1.791025 3.956746,6.060526 4.557107,5.460163 0.186849,-0.186849 -0.571581,-1.199199 -1.685399,-2.249666 -1.129878,-1.06561 -2.025126,-2.451725 -2.025126,-3.135499 0,-0.687711 0.249487,-1.071365 0.5685,-0.874207 0.312674,0.193244 0.39964,0.624571 0.193258,0.958505 -0.22262,0.360208 -0.115181,0.446427 0.264154,0.211984 0.390864,-0.241566 0.528376,-0.105849 0.353778,0.349154 -0.157095,0.409377 0.116188,1.240539 0.607297,1.847025 0.876604,1.082546 0.88801,1.079682 0.623889,-0.156667 -0.147971,-0.692652 -0.04078,-1.118305 0.238171,-0.945895 0.278961,0.172409 0.507209,0.763042 0.507209,1.312515 0,0.549474 0.503438,1.454649 1.118752,2.0115 0.615313,0.556851 1.118752,1.563727 1.118752,2.237504 0,1.223524 1.977612,3.522915 2.543348,2.957178 0.164445,-0.164444 -0.245879,-1.222478 -0.911839,-2.351188 -0.665954,-1.128709 -1.116688,-2.137905 -1.001635,-2.242656 0.115052,-0.104751 1.021018,1.190221 2.013255,2.877716 0.992233,1.687495 1.432741,2.760004 0.978908,2.383352 -0.690605,-0.573148 -0.825157,-0.452232 -0.825157,0.741513 0,0.874637 0.570088,1.874762 1.473877,2.585685 0.810631,0.637643 1.203067,1.159351 0.872073,1.159351 -0.330989,0 -0.733538,-0.213156 -0.894549,-0.473685 -0.161016,-0.260524 -1.11982,-0.485158 -2.130674,-0.499193 l -1.837919,-0.02551 1.957816,0.718591 c 3.224427,1.183494 4.761447,0.832446 5.409383,-1.235466 z m -1.897543,0.256664 c -0.838606,-1.084317 -1.366131,-2.09766 -1.091997,-2.09766 0.136599,0 0.660695,0.629298 1.16466,1.39844 0.943012,1.439224 0.890498,1.944587 -0.07266,0.69922 z m 39.280423,0.217519 c 1.230627,-0.559079 2.426293,-1.056991 2.657036,-1.106468 0.230742,-0.04945 0.434775,-0.278748 0.453402,-0.509491 0.01863,-0.230742 0.513557,-0.930137 1.099845,-1.55421 2.042086,-2.173703 3.597615,-8.643624 2.274708,-9.461224 -0.278967,-0.17241 -0.391412,0.129335 -0.249885,0.670544 0.369737,1.413862 -3.358856,5.562285 -5.402872,6.011226 -1.649734,0.362343 -2.329214,1.363578 -0.972078,1.432397 0.384571,0.0195 0.132852,0.263109 -0.559376,0.541351 -0.692228,0.278241 -1.258596,0.878489 -1.258596,1.333884 0,0.673441 0.30717,0.720909 1.645656,0.254313 0.90511,-0.315523 1.974916,-0.978856 2.377348,-1.474074 0.628045,-0.772851 0.593028,-0.848428 -0.247216,-0.533531 -1.83227,0.686679 -0.977801,-0.432679 1.255866,-1.645189 1.954135,-1.060771 2.16083,-1.08718 1.694892,-0.216559 -0.834208,1.558725 -4.367495,4.449408 -5.912497,4.837178 -1.536601,0.385662 -3.079779,2.4703 -1.812636,2.448646 0.395395,-0.0068 1.725776,-0.469714 2.956403,-1.028793 z m -8.012177,-1.898472 c 0.515812,-0.05336 0.836396,-0.2612 0.71241,-0.461814 -0.123986,-0.200613 0.298863,-0.838901 0.939657,-1.418418 0.640798,-0.579517 1.632701,-1.969875 2.204232,-3.089684 l 1.039152,-2.036018 -3.336179,1.980157 c -1.834893,1.089087 -3.336174,2.186184 -3.336174,2.437994 0,0.25181 0.352115,0.322716 0.782483,0.15757 0.430367,-0.165147 0.947996,-0.03246 1.150295,0.294864 0.202292,0.327323 -0.212753,0.820376 -0.922327,1.095675 -0.70958,0.275299 -1.919437,0.782988 -2.688579,1.128196 -1.289658,0.578831 -1.24615,0.603577 0.559376,0.3181 1.076798,-0.170257 2.379842,-0.353235 2.895654,-0.406622 z m 0.278922,-2.462973 c -0.20382,-0.203819 0.147535,-0.733482 0.780788,-1.177028 1.493232,-1.045902 1.95041,-0.588724 0.617523,0.617523 -0.565255,0.511546 -1.194492,0.763323 -1.398311,0.559505 z m -35.198064,1.349419 c -0.127756,-0.383266 -0.589241,-0.722504 -1.025521,-0.753863 -1.813491,-0.130348 -2.182495,-0.291913 -3.826892,-1.675583 -2.185035,-1.838586 -2.224543,-2.756564 -0.07069,-1.642767 1.939367,1.002886 2.265282,1.045193 2.265282,0.294053 0,-0.307657 -0.332269,-0.559376 -0.738376,-0.559376 -0.406113,0 -1.822402,-0.927884 -3.147323,-2.061964 -2.212069,-1.893449 -2.374507,-1.950593 -1.987637,-0.69922 1.006693,3.256242 2.871115,5.63701 5.593648,7.142788 1.519467,0.840388 3.223807,0.814819 2.937513,-0.04407 z m 24.773514,-0.712927 c 0.904471,-0.467719 1.793963,-0.824321 1.976655,-0.792449 0.18269,0.03187 0.499979,-0.129245 0.70508,-0.358036 0.205106,-0.228792 0.05827,-0.234913 -0.326301,-0.0136 -1.326283,0.763239 -0.727236,-1.531002 0.821975,-3.148029 1.367657,-1.427524 1.444935,-1.712915 0.765629,-2.827488 -0.41556,-0.681836 -0.556892,-1.053096 -0.314067,-0.825023 0.680123,0.638809 1.944995,-0.689385 1.925087,-2.021455 -0.01527,-1.022431 -0.1138,-1.071888 -0.69922,-0.351039 -0.374788,0.461485 -0.996081,0.864236 -1.380652,0.895001 -2.662605,0.213008 -2.685847,0.222663 -1.833654,0.761601 0.705353,0.446069 0.685305,0.573708 -0.139844,0.890345 -0.529774,0.203295 -0.972128,0.657345 -0.983003,1.009 -0.01091,0.351655 -0.8778,1.891089 -1.92649,3.420964 -1.048696,1.529875 -1.791861,2.89645 -1.651474,3.036833 0.140381,0.140383 1.043236,-0.327347 2.006336,-1.0394 0.963106,-0.712052 1.561839,-0.988418 1.330526,-0.614146 -0.231313,0.374272 -1.211189,1.16259 -2.177505,1.751817 -2.168779,1.322447 -0.584011,1.510115 1.900922,0.225106 z m 1.438066,-4.156571 c 0.341504,-0.476563 0.900217,-1.369917 1.241588,-1.98523 0.341365,-0.615314 0.628324,-0.81814 0.637677,-0.450725 0.0093,0.367415 -0.549357,1.260768 -1.241585,1.985231 -0.692231,0.724461 -0.979185,0.927287 -0.63768,0.450724 z m 28.665475,2.582129 1.317594,-1.408815 -2.296496,1.13622 c -1.263082,0.624921 -2.296507,1.49635 -2.296507,1.936509 0,1.028292 1.443201,0.295145 3.275409,-1.663914 z m -64.513705,0.704557 c 0.202657,-0.638498 0.219617,-1.30975 0.0377,-1.491669 -0.181914,-0.181919 -0.334613,0.1517 -0.339323,0.741375 -0.005,0.619605 -0.182032,0.82357 -0.419532,0.483234 -0.226032,-0.323897 -1.417844,-1.186017 -2.648472,-1.915823 l -2.237503,-1.326921 1.39844,1.620083 c 2.818717,3.265471 3.653139,3.640129 4.208694,1.889721 z m 18.705896,0.461687 c -0.01091,-0.384571 -0.379559,-1.328518 -0.81924,-2.09766 -1.045775,-1.829392 -1.029274,-2.112749 0.139844,-2.401289 0.596066,-0.14711 0.510828,-0.197279 -0.217944,-0.128279 -0.891326,0.08439 -1.605302,-0.575011 -2.796879,-2.583088 -0.880016,-1.483023 -1.897717,-2.701402 -2.261552,-2.707507 -0.36384,-0.0061 -0.821315,-0.514538 -1.016604,-1.129852 -0.195295,-0.615313 -0.589834,-1.118752 -0.87676,-1.118752 -0.787182,0 -0.625562,2.440987 0.239994,3.624707 0.418922,0.572909 0.650252,1.467731 0.514072,1.988493 -0.14697,0.562017 0.346909,1.414485 1.215177,2.097464 0.906704,0.713214 1.508705,1.784712 1.583588,2.818615 0.06644,0.917395 0.258684,1.583266 0.427201,1.479713 0.168518,-0.103553 0.671956,0.04298 1.118752,0.325623 1.175831,0.743836 2.773437,0.64614 2.750351,-0.168188 z m -4.192663,-4.362358 c -1.721792,-2.727496 -2.746608,-5.22561 -1.938959,-4.726456 0.306728,0.189567 0.557687,0.616622 0.557687,0.949009 0,0.332388 0.75283,1.827847 1.672953,3.323243 0.920129,1.495397 1.552582,2.718902 1.40546,2.718902 -0.147127,0 -0.910843,-1.019114 -1.697141,-2.264698 z m -6.727855,3.780131 C 31.7691,63.433873 28.420938,61.818708 28.420938,62.36079 c 0,0.20825 3.431313,2.4527 3.758229,2.458289 0.06726,0.0012 -0.0022,-0.322841 -0.154796,-0.71998 z M 13.795584,62.376917 c -0.108961,-0.07526 -1.330845,-0.992689 -2.7153,-2.03874 C 9.0482834,58.802864 8.7733836,58.7012 9.6541043,59.810746 c 1.7420257,2.194642 3.9261307,3.930249 4.1414797,3.291041 0.108961,-0.323423 0.108961,-0.649615 0,-0.72487 z m 67.017645,-2.477482 c 1.296427,-1.781128 2.266748,-3.45097 1.528159,-2.62984 -0.276728,0.307657 -1.383465,1.518761 -2.459408,2.691343 -1.075948,1.172582 -1.554047,1.978431 -1.062445,1.790777 0.491596,-0.187655 1.388763,-1.021181 1.993694,-1.85228 z M 7.3576758,60.601726 C 7.1754982,60.126972 6.906472,59.858505 6.7598427,60.005134 c -0.1466292,0.146628 -0.1006709,0.535063 0.1021197,0.863189 0.5515727,0.892462 0.8739578,0.719083 0.4957134,-0.266597 z M 89.146158,59.524889 c 0.597201,-0.451701 0.834102,-0.821274 0.526445,-0.821274 -0.307656,0 -1.047996,0.369573 -1.645197,0.821274 -0.597195,0.451701 -0.834097,0.821274 -0.52644,0.821274 0.307651,0 1.047991,-0.369573 1.645192,-0.821274 z m 0.381461,-1.835762 c 2.673873,-2.811921 4.250054,-8.38071 3.839383,-13.564867 -0.08969,-1.132171 -0.315348,-0.874552 -1.18515,1.353009 -0.590902,1.513297 -1.837723,3.539034 -2.770712,4.501638 -1.70919,1.76344 -2.189168,3.095368 -1.115452,3.095368 0.319493,0 1.26344,-1.12478 2.09766,-2.499511 1.857861,-3.061621 2.452539,-3.215499 1.689646,-0.437213 -0.797038,2.902645 -1.775342,4.661861 -3.475996,6.250643 -1.399324,1.307286 -1.937198,2.839217 -0.996859,2.839217 0.250092,0 1.112957,-0.692228 1.91748,-1.538284 z m -8.525337,-3.581083 c 0,-0.363433 -0.87054,0.325098 -1.934529,1.530069 -2.526814,2.861618 -2.533996,3.936831 -0.0082,1.220164 1.068492,-1.149195 1.942696,-2.386799 1.942696,-2.750233 z m -59.115079,2.462331 c -0.19002,-0.538399 -0.77704,-1.482346 -1.304492,-2.09766 -0.527453,-0.615314 -1.237446,-1.62219 -1.577765,-2.237504 -0.386691,-0.699163 -0.625136,-0.822492 -0.635764,-0.328833 -0.02288,1.061997 2.692819,5.642905 3.345269,5.642905 0.28503,0 0.362767,-0.440509 0.172752,-0.978908 z m 67.132631,-1.39844 c 0.749094,-0.999885 1.547978,-2.428315 1.775308,-3.174289 0.361195,-1.185253 0.202522,-1.114702 -1.258047,0.559376 -1.541579,1.766936 -2.845512,4.432885 -2.168153,4.432885 0.158902,0 0.901804,-0.818087 1.650892,-1.817972 z M 46.244228,53.2615 c -0.310476,-0.374105 -1.238313,-0.758063 -2.061854,-0.85324 -0.823541,-0.09518 -1.437641,-0.424768 -1.36467,-0.732425 0.245745,-1.036029 2.374573,-0.696446 3.653872,0.582852 1.122007,1.122008 1.392924,1.178685 2.336418,0.488785 1.336483,-0.977261 0.82443,-1.536207 -1.350675,-1.474364 -1.863421,0.05298 -2.810199,-0.817815 -1.454708,-1.337966 0.479218,-0.183893 0.729499,-0.5638 0.556177,-0.844237 -0.173317,-0.280438 -0.549453,-0.365065 -0.835848,-0.188061 -0.2864,0.177003 -0.520723,0.195965 -0.520723,0.04214 0,-0.787462 1.135349,-0.808582 1.908429,-0.0355 0.483927,0.483928 1.145742,0.715551 1.470694,0.514717 0.909585,-0.562152 -0.489057,-1.944329 -1.553969,-1.535683 -0.586125,0.224917 -0.753205,0.120273 -0.489426,-0.306531 0.262292,-0.424398 0.09874,-0.532228 -0.473959,-0.312466 -0.634981,0.243666 -0.779736,0.08872 -0.528582,-0.565783 0.229646,-0.598437 0.0438,-0.901344 -0.553027,-0.901344 -0.924274,0 -1.185223,0.645985 -0.526893,1.304316 0.519828,0.519826 0.764387,3.24763 0.26341,2.938007 -0.225037,-0.13908 -0.757238,-0.03775 -1.182666,0.22518 -0.581824,0.359587 -1.007878,-0.169378 -1.719293,-2.134569 -0.52018,-1.436942 -1.874138,-4.744681 -3.008793,-7.350531 -1.928359,-4.428678 -1.999093,-4.784641 -1.083808,-5.453916 0.538556,-0.393803 0.729711,-0.716006 0.424784,-0.716006 -0.304932,0 -0.893524,0.314649 -1.307994,0.69922 -0.616069,0.571626 -0.688687,0.515286 -0.397974,-0.308741 0.195586,-0.554378 0.131297,-0.869326 -0.14287,-0.699883 -0.274161,0.169442 -0.774713,-0.484345 -1.112341,-1.45286 -0.826959,-2.372218 -0.773897,-2.893846 0.254247,-2.49931 0.52832,0.202734 0.725125,0.101756 0.502795,-0.257975 -0.200922,-0.325108 -0.717438,-0.455984 -1.1478,-0.290837 -0.842364,0.323244 -0.982085,-0.171719 -0.444184,-1.573475 0.186066,-0.48488 0.560764,-0.744113 0.832659,-0.576073 0.271896,0.168041 0.344447,-0.08512 0.161224,-0.562588 -0.496323,-1.293403 1.822642,-1.116158 2.972882,0.227226 1.206266,1.408815 3.56502,7.898683 3.127873,8.606006 -0.183648,0.297151 -0.0433,0.360667 0.311897,0.141146 0.36793,-0.227395 0.645805,-0.0699 0.645805,0.366034 0,1.051034 1.501287,3.020416 1.955926,2.565776 0.203098,-0.203099 -0.657334,-3.15919 -1.912082,-6.569091 -2.798183,-7.60437 -3.098752,-12.441212 -0.654688,-10.535525 0.787926,0.614365 0.802078,0.581583 0.122817,-0.284541 -0.42224,-0.5384 -0.548099,-0.982763 -0.279688,-0.987474 0.268416,-0.0047 0.123577,-0.239135 -0.321865,-0.520942 -0.632794,-0.400337 -0.470474,-0.597565 0.74232,-0.901956 1.746058,-0.438233 4.262892,0.627847 4.262892,1.805675 0,0.495067 -0.374866,0.36968 -1.118752,-0.374211 -0.615313,-0.615314 -1.68512,-1.102796 -2.377348,-1.083295 l -1.258596,0.03546 1.283449,0.515088 c 1.53645,0.616625 2.709304,3.211857 3.231901,7.151378 0.210913,1.589919 0.559169,2.890763 0.773903,2.890763 0.214738,0 0.274351,0.790914 0.132477,1.757586 -0.176786,1.204492 -0.06093,1.635816 0.368142,1.370633 0.434741,-0.268686 0.521825,0.134445 0.284918,1.318981 -0.205437,1.027192 -0.109627,1.705935 0.240806,1.705935 0.320097,0 0.577471,-0.943947 0.571939,-2.09766 -0.0146,-3.04849 0.02249,-3.141919 0.943729,-2.377348 0.461485,0.382999 0.839064,0.474371 0.839064,0.203049 0,-0.271322 -0.524723,-0.821006 -1.166047,-1.22152 -1.09042,-0.680977 -1.153909,-1.141482 -0.978908,-7.100284 0.102925,-3.504642 0.438858,-6.617895 0.746515,-6.918341 0.842666,-0.822916 3.88731,-1.484697 3.430563,-0.745664 -0.204737,0.331268 -0.07753,0.784451 0.282681,1.007073 0.432644,0.267388 0.504244,0.160949 0.210952,-0.313604 -0.297795,-0.481842 -0.188118,-0.625412 0.333103,-0.436039 0.427396,0.155285 0.707918,0.584229 0.623379,0.953212 -0.08454,0.368981 0.08613,0.522651 0.379257,0.341487 0.880726,-0.544317 1.310657,1.853426 0.908897,5.068975 -0.243849,1.951707 -0.592117,2.891156 -0.982388,2.649957 -0.362548,-0.224069 -0.442824,-0.111897 -0.200502,0.280185 0.222257,0.35962 0.154214,1.971757 -0.151205,3.582528 -0.30542,1.610771 -0.69978,4.061411 -0.876352,5.445866 -0.298506,2.340409 -0.261039,2.439386 0.533437,1.409324 0.554079,-0.718375 0.738561,-1.701675 0.52474,-2.79688 -0.210857,-1.080043 -0.148268,-1.427076 0.173591,-0.962518 0.342204,0.493918 0.8167,-0.604143 1.482179,-3.429993 1.543659,-6.554925 3.633443,-9.19877 6.068829,-7.677848 0.97427,0.60844 1.078068,0.578773 0.771374,-0.22046 -0.215416,-0.561363 -0.128618,-0.783976 0.221339,-0.56769 0.316646,0.195699 0.412657,0.869593 0.213352,1.497543 -0.234664,0.73936 -0.152016,1.011722 0.234512,0.772833 0.421781,-0.260672 0.425277,0.170063 0.01192,1.468234 -1.225425,3.848584 -1.756149,4.887974 -2.318423,4.54047 -0.335304,-0.207227 -0.413303,-0.08785 -0.184502,0.282367 0.21802,0.352756 0.138703,1.083876 -0.176248,1.624712 -0.351758,0.604041 -0.5792,0.700899 -0.589649,0.251106 -0.0093,-0.402728 -0.295603,-0.560052 -0.636106,-0.34961 -0.443496,0.274096 -0.428538,0.500396 0.05275,0.797847 0.512299,0.316617 0.474804,0.798161 -0.157872,2.027737 -0.456345,0.886883 -1.22853,2.571147 -1.71597,3.74281 -0.827608,1.989328 -0.822462,2.119806 0.07775,1.971777 0.530198,-0.08719 1.341579,0.07231 1.803064,0.354429 0.703158,0.429865 0.724246,0.371135 0.130195,-0.362593 -0.38988,-0.481548 -0.535894,-1.326319 -0.324472,-1.877268 0.284566,-0.741569 0.191989,-0.882811 -0.356468,-0.543847 -0.496625,0.306931 -0.607426,0.241971 -0.336095,-0.19705 0.22262,-0.360211 0.639092,-0.510108 0.925493,-0.333104 0.286395,0.177004 0.520723,0.201698 0.520723,0.05488 0,-0.146823 0.168635,-0.70641 0.374748,-1.243527 0.253795,-0.661372 0.165587,-0.847308 -0.273283,-0.576073 -0.430529,0.266083 -0.530176,0.0934 -0.2969,-0.514515 0.241891,-0.630362 0.47495,-0.714666 0.749156,-0.27099 0.24504,0.396481 0.68865,-0.05759 1.154118,-1.181325 0.806598,-1.947268 3.695971,-5.522036 4.4633,-5.522036 0.642947,0 2.219514,1.641175 2.219514,2.310472 0,0.303838 -0.228242,0.41137 -0.507208,0.23896 -0.278967,-0.172409 -0.361172,0.253243 -0.182687,0.945896 0.301733,1.170902 0.248951,1.200427 -0.751387,0.420304 -0.98119,-0.765195 -1.01232,-0.757703 -0.353621,0.08511 0.612114,0.783207 0.36101,1.652634 -1.646232,5.699901 -1.302686,2.62665 -2.528486,4.676862 -2.724004,4.556026 -0.195513,-0.120836 -0.327269,0.630679 -0.292783,1.670035 0.03451,1.039355 -0.123829,1.774454 -0.351809,1.633554 -0.227979,-0.140901 -0.813531,0.515435 -1.301223,1.458524 -0.515241,0.996371 -1.147274,1.553669 -1.508693,1.330301 -0.371062,-0.229331 -0.465059,-0.130506 -0.233002,0.244971 0.213933,0.346157 -0.0056,1.391927 -0.487312,2.323932 -0.671531,1.298594 -1.257343,1.694556 -2.507044,1.694556 -0.896909,0 -1.793874,0.263942 -1.993247,0.586538 -0.247082,0.399785 -0.618111,0.374405 -1.165287,-0.07971 -0.441526,-0.366438 -0.897904,-0.56745 -1.014165,-0.446695 -0.116261,0.120756 0.393258,0.671816 1.132272,1.224578 1.075048,0.804111 1.343655,0.844301 1.343655,0.201043 0,-1.093504 3.827904,-1.543175 4.402115,-0.517123 0.30778,0.549976 0.635132,0.333248 1.219982,-0.807701 0.439636,-0.857653 2.991999,-5.417948 5.671919,-10.133989 5.506696,-9.690554 6.382186,-12.614661 4.52258,-15.105397 -0.608847,-0.815482 -1.877076,-1.703553 -2.818287,-1.973489 -1.335326,-0.382966 -1.786077,-0.889411 -2.051674,-2.305162 -0.446242,-2.378674 -1.773725,-3.507776 -4.668275,-3.970633 -1.299508,-0.207799 -2.362737,-0.57805 -2.362737,-0.822781 0,-0.244731 -0.651673,-1.219436 -1.448168,-2.166011 -1.209718,-1.437673 -1.850102,-1.721047 -3.889308,-1.721047 -3.13816,0 -4.867365,0.810492 -6.06891,2.844546 -0.724476,1.22644 -1.380249,1.630462 -2.646413,1.630462 -2.991045,0 -4.92125,1.538091 -5.525359,4.4029 -0.192112,0.911015 -0.892742,1.52407 -2.237504,1.957816 -2.805584,0.904927 -4.26551,3.981525 -3.431794,7.232028 1.0176,3.967404 8.836031,20.808878 9.660249,20.808878 0.419247,0 0.787188,0.377579 0.817646,0.839064 0.135537,2.053426 0.18107,2.084572 2.147797,1.468997 1.414063,-0.442594 1.772824,-0.781343 1.357504,-1.281773 z m -2.440451,0.372151 c 0.190143,-0.307657 0.456714,-0.559376 0.592385,-0.559376 0.135671,0 0.246679,0.251719 0.246679,0.559376 0,0.307657 -0.266576,0.559376 -0.59239,0.559376 -0.325814,0 -0.436817,-0.251719 -0.246674,-0.559376 z m 3.635944,-1.118752 c 0,-0.307657 0.266571,-0.559376 0.592385,-0.559376 0.325814,0 0.436822,0.251719 0.246679,0.559376 -0.190143,0.307657 -0.456719,0.559376 -0.59239,0.559376 -0.135671,0 -0.246674,-0.251719 -0.246674,-0.559376 z m -6.153136,-1.118752 c 0,-0.307657 0.266571,-0.559376 0.592385,-0.559376 0.325814,0 0.436823,0.251719 0.246679,0.559376 -0.190143,0.307657 -0.456719,0.559376 -0.59239,0.559376 -0.135671,0 -0.246674,-0.251719 -0.246674,-0.559376 z m 16.540764,0.06338 c -0.168601,-0.272797 0.131196,-0.839165 0.666206,-1.258595 0.859297,-0.673657 0.891763,-0.658737 0.278385,0.12793 -0.381903,0.489792 -0.528739,1.05616 -0.326307,1.258596 0.202438,0.202435 0.215108,0.368064 0.02814,0.368064 -0.186944,0 -0.477847,-0.223198 -0.646443,-0.495995 z M 40.983896,49.680804 c -0.202796,-0.328126 -0.248749,-0.716561 -0.10212,-0.863189 0.14663,-0.146629 0.415656,0.121837 0.597833,0.596592 0.378245,0.98568 0.05588,1.159059 -0.495713,0.266597 z M 39.32877,45.802388 c -0.477288,-0.922971 -0.741934,-1.678128 -0.588106,-1.678128 0.153828,0 0.670194,0.755157 1.147482,1.678128 0.477282,0.92297 0.741933,1.678128 0.588105,1.678128 -0.153828,0 -0.670199,-0.755158 -1.147481,-1.678128 z m 22.654729,-2.448699 c 0,-0.116158 0.440508,-0.556667 0.978908,-0.978908 0.887204,-0.695792 0.906989,-0.676007 0.211198,0.211195 -0.730752,0.931779 -1.190106,1.228098 -1.190106,0.767713 z M 36.867734,40.602721 c -0.707566,-1.178219 -0.695646,-1.190139 0.267566,-0.267568 0.55447,0.531075 0.887718,1.085995 0.740558,1.233157 -0.147161,0.147162 -0.60082,-0.287354 -1.008124,-0.965589 z m 26.850048,-0.22881 c 0.40731,-0.678235 0.860964,-1.112751 1.008125,-0.965589 0.14716,0.147162 -0.186088,0.702082 -0.740558,1.233157 -0.963212,0.922571 -0.975132,0.910651 -0.267567,-0.267568 z M 35.667184,37.923216 c -0.343406,-0.641664 -0.519011,-1.272026 -0.390232,-1.400804 0.128774,-0.128779 0.521355,0.396218 0.872392,1.16666 0.770859,1.691853 0.395529,1.874119 -0.48216,0.234144 z M 65.339755,37.14558 c 0,-0.146392 0.502498,-1.090339 1.116659,-2.097659 1.313952,-2.155077 1.497523,-1.665292 0.267416,0.713478 -0.767397,1.483982 -1.384075,2.100707 -1.384075,1.384181 z m 2.553154,-4.932184 c 0.210062,-0.551668 0.522843,-0.862122 0.695069,-0.689897 0.172226,0.172225 3.58e-4,0.623589 -0.381931,1.003033 -0.55245,0.548338 -0.6167,0.484085 -0.313138,-0.313136 z M 46.924502,28.135431 c 0.02685,-0.651641 0.159389,-0.78419 0.337958,-0.337957 0.161587,0.4038 0.141713,0.886261 -0.04419,1.072138 -0.185875,0.185875 -0.318084,-0.144506 -0.293796,-0.734181 z m 15.674529,-0.06779 c 0.407309,-0.678235 0.860963,-1.112751 1.008124,-0.965589 0.14716,0.147162 -0.186088,0.702083 -0.740558,1.233157 -0.963212,0.922571 -0.975132,0.910651 -0.267566,-0.267568 z M 68.06528,26.92345 c -0.695791,-0.887201 -0.676005,-0.906987 0.211198,-0.211195 0.931781,0.730751 1.228099,1.190103 0.76771,1.190103 -0.116154,0 -0.556663,-0.440508 -0.978908,-0.978908 z M 38.764052,26.587343 c -0.310594,-0.353541 -0.423107,-1.523819 -0.250019,-2.600618 l 0.314694,-1.957816 0.299976,2.517192 c 0.35022,2.938869 0.362677,2.869142 -0.364651,2.041242 z M 34.49198,25.523194 c 0.281842,-0.28184 1.107838,-0.418775 1.835547,-0.3043 1.119692,0.176135 1.04091,0.254918 -0.512433,0.512434 -1.111603,0.184283 -1.633439,0.102194 -1.323114,-0.208134 z m 29.589179,0.330571 c 0.384571,-0.155177 1.013869,-0.155177 1.39844,0 0.384571,0.155178 0.06992,0.282142 -0.69922,0.282142 -0.769142,0 -1.083791,-0.126964 -0.69922,-0.282142 z m -8.530486,-2.426416 c 0.190143,-0.307657 0.456713,-0.559376 0.592384,-0.559376 0.135671,0 0.246679,0.251719 0.246679,0.559376 0,0.307657 -0.266576,0.559376 -0.59239,0.559376 -0.325814,0 -0.436817,-0.251719 -0.246673,-0.559376 z M 39.049082,21.222858 c 0,-0.2895 0.248832,-0.680153 0.552965,-0.868117 0.317088,-0.195971 0.410867,0.02856 0.21984,0.526363 -0.371867,0.969073 -0.772805,1.146378 -0.772805,0.341754 z m 17.340654,-1.169321 c 0,-0.298 0.377579,-0.54182 0.839064,-0.54182 0.461486,0 0.839064,0.09893 0.839064,0.219841 0,0.120913 -0.377578,0.364732 -0.839064,0.54182 -0.461485,0.177089 -0.839064,0.07816 -0.839064,-0.219841 z m 3.356256,-0.54182 c -1.301813,-0.416913 -1.313756,-0.451711 -0.172858,-0.503617 0.67407,-0.03066 1.381158,0.195961 1.571301,0.503617 0.190143,0.307657 0.26793,0.534285 0.172858,0.503618 -0.09507,-0.03066 -0.802159,-0.257295 -1.571301,-0.503618 z M 46.320969,18.013515 c 0,-0.31125 0.566368,-1.045431 1.258596,-1.631513 l 1.258596,-1.065604 -1.112795,1.39844 c -0.612035,0.769142 -1.178403,1.503323 -1.258596,1.631513 -0.08019,0.12819 -0.145801,-0.02159 -0.145801,-0.332836 z m 7.909134,-1.876663 c -0.72631,-0.605078 -1.07997,-1.100142 -0.785917,-1.100142 0.294058,0 0.990257,0.503438 1.547111,1.118752 1.279225,1.413528 0.948175,1.405435 -0.761194,-0.01861 z m 2.719009,38.582538 c 0,-0.325813 0.248839,-0.438599 0.552972,-0.250635 0.317087,0.195971 0.410861,-0.02856 0.21984,-0.526363 -0.41636,-1.085014 -2.098342,-1.127913 -2.971528,-0.07579 -0.522016,0.628986 -0.449643,0.846244 0.351036,1.053863 1.674218,0.434129 1.84768,0.415252 1.84768,-0.201075 z m -1.398439,-0.526363 c -0.190144,-0.307657 -0.07914,-0.559376 0.246673,-0.559376 0.325814,0 0.59239,0.251719 0.59239,0.559376 0,0.307657 -0.111008,0.559376 -0.246679,0.559376 -0.135671,0 -0.402241,-0.251719 -0.592384,-0.559376 z M 11.31257,51.346675 c -0.852041,-0.889342 -1.6508414,-1.515311 -1.7751124,-1.391041 -0.2983543,0.298355 0.8926914,2.56988 2.0342374,3.87963 0.834164,0.957082 0.922411,0.963873 1.098536,0.08454 0.105331,-0.52588 -0.505614,-1.683787 -1.357661,-2.573129 z m 42.969852,-1.535094 c 0.289667,-0.289667 0.315941,-0.643983 0.05839,-0.78737 -0.696328,-0.38767 -4.104214,0.644111 -4.104214,1.242603 0,0.640151 3.324505,0.266079 4.045821,-0.455233 z m 2.66669,-0.09356 c 0.329305,-0.615313 0.519963,-1.118752 0.423683,-1.118752 -0.09627,0 -0.606106,0.503439 -1.13296,1.118752 -0.526843,0.615314 -0.717506,1.118752 -0.423683,1.118752 0.293824,0 0.803656,-0.503438 1.13296,-1.118752 z m 32.990739,-1.345292 c -0.0068,-0.336888 -0.50468,0.01678 -1.106312,0.785916 -1.456111,1.861539 -1.431834,0.892085 0.02903,-1.159526 1.397125,-1.962081 2.385285,-7.627909 1.897577,-10.880179 -0.196996,-1.31365 -0.888463,-3.232556 -1.536595,-4.264234 l -1.178432,-1.875779 -0.444094,3.791951 c -0.244257,2.085573 -0.820616,4.693075 -1.280803,5.79445 -0.83903,2.008091 -0.642152,6.068165 0.323185,6.664778 0.515946,0.318872 1.376826,-2.666668 1.863349,-6.4621 l 0.32267,-2.517192 -0.84364,2.237504 c -0.463991,1.230627 -0.97243,2.588181 -1.129855,3.016786 -0.157425,0.428606 -0.384152,0.680325 -0.503836,0.559376 -0.119684,-0.120948 0.36379,-1.94582 1.074388,-4.05527 1.214271,-3.604642 1.314332,-3.733651 1.663355,-2.144557 0.43426,1.977163 0.01052,4.941914 -1.224709,8.568811 -0.48494,1.42389 -0.711901,3.031398 -0.504361,3.572242 0.358934,0.935359 0.431379,0.934454 1.484432,-0.01855 0.608898,-0.551047 1.10149,-1.277538 1.094649,-1.614426 z M 78.185577,47.513446 c -0.0127,-0.558924 -0.306834,-0.369916 -0.819239,0.526445 -1.046296,1.8303 -1.033968,2.821921 0.01779,1.431371 0.451702,-0.597202 0.812354,-1.478219 0.801451,-1.957816 z m -20.95163,0.395296 c 0.249649,0.225961 0.279016,0.106192 0.06526,-0.266153 -0.213754,-0.372344 0.357631,-2.155355 1.26975,-3.962246 1.153148,-2.284375 1.430895,-3.285257 0.911665,-3.285257 -0.425534,0 -0.62696,0.380956 -0.468293,0.885679 0.159456,0.507227 -0.171264,0.337111 -0.773969,-0.398117 -1.006155,-1.227394 -1.858308,-1.172548 -1.840062,0.118429 0.0045,0.333295 0.252576,0.228412 0.550812,-0.233073 0.298237,-0.461485 0.546102,-0.572526 0.550812,-0.246758 0.01398,0.96853 -1.543614,2.796672 -1.996748,2.343538 -0.230256,-0.230259 -0.124981,-0.418652 0.233953,-0.418652 0.358935,0 0.652607,-0.251719 0.652607,-0.559376 0,-1.297611 -2.285682,-0.501631 -2.81097,0.978908 -0.300172,0.846056 -0.814821,2.003304 -1.143661,2.571663 -0.32884,0.568359 -0.454594,1.17668 -0.279447,1.351825 0.175146,0.175146 0.318447,-0.0191 0.318447,-0.431666 0,-0.492056 0.44726,-0.329931 1.30009,0.471263 1.224496,1.150351 2.056165,1.125805 2.056165,-0.06068 0,-0.289297 -0.351646,-0.391055 -0.781437,-0.226129 -0.506666,0.194425 -0.874075,-0.184721 -1.044886,-1.078266 -0.144895,-0.757972 -0.131056,-1.245742 0.03077,-1.083935 0.16181,0.161807 0.632005,0.01384 1.044886,-0.32882 0.887137,-0.736258 1.02085,0.13881 0.153711,1.005947 -0.42305,0.42305 -0.341566,0.694986 0.279688,0.933384 0.829913,0.318466 0.966557,0.0932 1.104085,-1.820161 0.05426,-0.75519 1.450708,-1.633938 1.450708,-0.912907 0,0.189694 -0.640027,1.658056 -1.42228,3.263026 -0.782254,1.604971 -1.072011,2.481533 -0.643909,1.947915 0.428101,-0.533617 0.982628,-0.785337 1.232271,-0.559376 z m 0.590192,-5.858017 c -0.303563,-0.797222 -0.239313,-0.861474 0.313138,-0.313136 0.382289,0.379444 0.554157,0.830808 0.381931,1.003032 -0.172226,0.172226 -0.485007,-0.138228 -0.695069,-0.689896 z m -4.94216,5.65121 c -0.185875,-0.185876 -0.668337,-0.205749 -1.072133,-0.04416 -0.446237,0.178568 -0.313687,0.311116 0.337952,0.337957 0.589678,0.02429 0.920056,-0.10792 0.734181,-0.293796 z m -2.36569,-0.649517 c 0.776179,-0.570251 2.666724,-4.04691 2.200635,-4.04691 -0.208893,0 -0.06644,-0.377579 0.316557,-0.839064 0.570323,-0.687198 0.532095,-0.839064 -0.211198,-0.839064 -0.639367,0 -0.907554,0.505649 -0.907554,1.711141 0,0.941127 -0.218079,1.576361 -0.484621,1.41163 -0.266537,-0.16473 -0.929476,0.192057 -1.473195,0.792861 -0.543719,0.600804 -1.269593,0.924127 -1.613045,0.718496 -0.343451,-0.205631 -0.278988,0.05202 0.143251,0.572567 0.845357,1.04216 1.194715,1.131403 2.02917,0.518343 z m -2.748852,-1.669562 c 0.659801,-1.443618 0.655561,-2.555777 -0.0132,-3.463633 -0.445795,-0.605158 -0.419566,-0.701687 0.105034,-0.386519 0.448698,0.26957 0.69922,0.08309 0.69922,-0.520492 0,-0.777957 -0.146932,-0.818626 -0.849883,-0.235233 -0.617718,0.512663 -0.750251,1.257182 -0.485169,2.725528 0.200593,1.111106 0.226436,1.894333 0.05743,1.740505 -0.169004,-0.153829 -0.353078,-0.531408 -0.409054,-0.839064 -0.232192,-1.27614 -1.202944,-2.517192 -1.968953,-2.517192 -0.908824,0 -1.105724,0.875756 -0.30778,1.368913 0.281377,0.173902 0.651634,-3.2e-5 0.822786,-0.38652 0.211427,-0.477425 0.29695,-0.43371 0.266777,0.136359 -0.06491,1.226555 0.69724,3.356256 1.201109,3.356256 0.238859,0 0.635625,-0.440509 0.8817,-0.978908 z m -2.56522,-0.35104 c 0,-0.116157 -0.377579,-0.524558 -0.839064,-0.907556 -0.687199,-0.570324 -0.839064,-0.532098 -0.839064,0.211195 0,0.499156 0.377579,0.907557 0.839064,0.907557 0.461485,0 0.839064,-0.09504 0.839064,-0.211196 z m 4.319943,-1.999488 c -0.15705,-0.600562 0.0022,-1.195399 0.354292,-1.321858 0.351909,-0.12646 0.43736,-0.445888 0.189886,-0.709841 -0.638119,-0.68062 -1.424484,0.804476 -1.094374,2.066801 0.151999,0.581256 0.402225,1.05683 0.556053,1.05683 0.153828,0 0.151194,-0.49137 -0.0059,-1.091932 z m 2.85929,-2.199735 c 0.857596,-0.712864 0.850206,-0.746238 -0.09294,-0.419532 -0.56356,0.195219 -1.129928,0.354943 -1.258596,0.354943 -0.128667,0 -0.204737,0.692228 -0.169049,1.538284 0.04855,1.150764 0.130889,1.256452 0.326877,0.419532 0.14409,-0.615314 0.681259,-1.467266 1.193709,-1.893227 z M 45.761593,40.00464 c 0,-0.799565 -2.234992,-0.283739 -2.701612,0.62352 -0.905943,1.761447 -0.123197,2.349809 1.33198,1.001197 0.753295,-0.698131 1.369632,-1.429254 1.369632,-1.624717 z m -1.783011,0.381246 c 0.403797,-0.161587 0.886259,-0.141714 1.072134,0.04416 0.185875,0.185876 -0.144504,0.318084 -0.734181,0.293796 -0.65164,-0.02684 -0.784189,-0.15939 -0.337953,-0.337957 z m 4.209148,-2.002714 c -0.189399,-0.306452 0.0056,-0.440623 0.432722,-0.298158 0.427397,0.142465 0.777085,0.531723 0.777085,0.865018 0,1.105193 0.603136,1.230099 0.685107,0.141882 0.115248,-1.529936 -1.95583,-2.058614 -2.945903,-0.751991 -1.252214,1.652578 -1.043203,2.807292 0.28979,1.600955 0.608058,-0.550286 0.950598,-1.251253 0.761199,-1.557706 z m 7.64263,1.426074 c 0,-0.153829 -0.352971,-0.144241 -0.784379,0.02131 -1.110971,0.426319 -1.504268,-0.159291 -0.884603,-1.31715 0.454986,-0.850141 0.297583,-0.972719 -1.12279,-0.874384 -1.708558,0.118285 -3.081932,0.891481 -1.583476,0.891481 0.465082,0 1.285843,0.486463 1.823912,1.081028 0.836754,0.9246 2.551336,1.057473 2.551336,0.197718 z M 52.753793,38.5305 c -0.190143,-0.307657 -0.07914,-0.559376 0.246673,-0.559376 0.325814,0 0.592391,0.251719 0.592391,0.559376 0,0.307657 -0.111009,0.559376 -0.24668,0.559376 -0.135671,0 -0.402241,-0.251719 -0.592384,-0.559376 z m -10.155432,0.255563 c -0.182177,-0.474754 -0.451204,-0.74322 -0.597833,-0.596591 -0.146629,0.146628 -0.100676,0.535063 0.10212,0.863188 0.551573,0.892463 0.873958,0.719084 0.495713,-0.266597 z m -2.430527,0.08397 c 0,-0.120912 -0.390657,-0.369748 -0.868118,-0.552969 -0.497806,-0.191024 -0.722334,-0.09725 -0.526362,0.219841 0.328494,0.531521 1.39448,0.786174 1.39448,0.333128 z m 22.095353,-2.017661 c 0.477287,-0.92297 0.741934,-1.678128 0.588105,-1.678128 -0.153828,0 -0.670194,0.755158 -1.147481,1.678128 -0.477288,0.922971 -0.741934,1.678128 -0.588106,1.678128 0.153829,0 0.670194,-0.755157 1.147482,-1.678128 z m -0.73262,-1.957816 c 0.506414,-1.10085 0.500731,-1.101377 -0.355271,-0.03293 -0.478463,0.597202 -0.850053,1.478219 -0.825765,1.957816 0.03815,0.753254 0.08652,0.757738 0.355274,0.03293 0.171113,-0.461485 0.542706,-1.342502 0.825762,-1.957816 z M 56.04379,34.306128 c 0.191027,-0.497803 0.09725,-0.722335 -0.21984,-0.526364 -0.304133,0.187965 -0.552965,0.578617 -0.552965,0.868117 0,0.804624 0.400938,0.627319 0.772805,-0.341753 z m 9.139932,-0.510585 c 0.239648,-0.263335 0.142568,-0.311006 -0.215723,-0.105935 -0.358292,0.20507 -0.752607,0.06937 -0.876251,-0.301567 -0.146909,-0.440735 -0.343871,-0.364151 -0.568421,0.221023 -0.362409,0.944415 0.847018,1.080246 1.660395,0.186479 z M 45.094185,31.523499 c -0.172226,-0.172225 -0.485007,0.138229 -0.695069,0.689897 -0.303568,0.797221 -0.239313,0.861474 0.313133,0.313136 0.382288,-0.379444 0.554162,-0.830808 0.381936,-1.003033 z M 56.517621,30.38825 c -0.462268,-0.826032 -0.547417,-0.740884 -0.547417,0.547418 0,0.994854 0.19044,1.335159 0.547417,0.978184 0.356977,-0.356975 0.356977,-0.887724 0,-1.525602 z m -3.667694,-2.656814 c 0.306057,0.05982 0.556467,-0.212873 0.556467,-0.60599 0,-0.393117 -0.32455,-0.714758 -0.721226,-0.714758 -0.396675,0 -0.602336,0.192372 -0.457021,0.427494 0.145315,0.235123 0.0084,0.585604 -0.304295,0.778848 -0.312674,0.193244 -0.543411,0.902865 -0.512741,1.576936 0.05152,1.13218 0.08725,1.119006 0.469048,-0.172857 0.227314,-0.769142 0.663705,-1.349494 0.969768,-1.289673 z m -2.932187,0.793678 c 0.168596,-0.272797 -0.131196,-0.839165 -0.666206,-1.258596 -0.859296,-0.673657 -0.891763,-0.658736 -0.278384,0.127931 0.381902,0.489792 0.528739,1.05616 0.3263,1.258596 -0.202432,0.202435 -0.215102,0.368064 -0.02814,0.368064 0.186949,0 0.477852,-0.223198 0.646448,-0.495995 z m 16.820455,-0.06338 c 0.190143,-0.307657 -0.06158,-0.559376 -0.559376,-0.559376 -0.4978,0 -0.749519,0.251719 -0.559376,0.559376 0.190143,0.307657 0.441862,0.559376 0.559376,0.559376 0.117513,0 0.369232,-0.251719 0.559376,-0.559376 z M 58.62724,25.884325 c 0,-0.462954 -1.086157,-0.724756 -1.33518,-0.321825 -0.161553,0.261399 0.07277,0.475272 0.520723,0.475272 0.447949,0 0.814457,-0.06905 0.814457,-0.153447 z m 2.926876,-0.952886 c 0.135313,0.24955 0.181093,0.169752 0.101728,-0.17733 -0.07936,-0.347082 0.109683,-0.885039 0.420109,-1.19546 0.37962,-0.379621 0.337012,-0.704939 -0.130145,-0.993656 -0.431933,-0.266949 -0.552663,-0.199684 -0.319303,0.177901 0.368579,0.596371 -0.552535,1.498113 -1.547499,1.514954 -0.278329,0.0047 -0.573898,0.470819 -0.65682,1.035796 -0.1407,0.958655 -0.08278,0.965708 0.86757,0.105649 0.560089,-0.50687 1.129053,-0.717404 1.26436,-0.467854 z m -12.18047,0.212691 c 0.177003,-0.286398 0.107954,-0.652904 -0.153442,-0.814458 -0.261402,-0.161553 -0.475274,0.07277 -0.475274,0.520724 0,0.943202 0.176393,1.025612 0.628716,0.293734 z m 2.79688,0 c 0.177003,-0.286398 0.107954,-0.652904 -0.153443,-0.814458 -0.261402,-0.161553 -0.475273,0.07277 -0.475273,0.520724 0,0.943202 0.176393,1.025612 0.628716,0.293734 z m -1.374549,-1.350396 c 0,-0.106146 -0.461485,-0.610631 -1.025526,-1.121078 -0.848322,-0.767723 -1.025521,-0.786954 -1.025521,-0.111302 0,0.44923 0.192375,0.69789 0.427492,0.552576 0.235128,-0.145313 0.585605,-0.0084 0.778852,0.304295 0.338781,0.548165 0.844703,0.773068 0.844703,0.375509 z m 8.282607,-1.22025 c -0.172226,-0.172226 -0.485007,0.138228 -0.695069,0.689896 -0.303563,0.797222 -0.239313,0.861474 0.313138,0.313136 0.382289,-0.379443 0.554157,-0.830808 0.381931,-1.003032 z m -15.731755,-0.36977 c -0.17857,-0.446232 -0.311114,-0.313684 -0.337958,0.337957 -0.02428,0.589675 0.10792,0.920056 0.293795,0.734181 0.185875,-0.185876 0.20575,-0.668338 0.04419,-1.072138 z m 17.517918,-0.174805 c 0.40138,-0.483632 0.455746,-0.839064 0.128338,-0.839064 -0.312412,0 -0.712911,0.377579 -0.890004,0.839064 -0.177087,0.461485 -0.234837,0.839064 -0.128338,0.839064 0.1065,0 0.507002,-0.377579 0.890004,-0.839064 z M 50.609514,21.469533 c 0,-0.461485 -0.123672,-0.715388 -0.274832,-0.564229 -0.15116,0.151159 -0.675575,-0.03329 -1.165365,-0.409892 -0.545649,-0.419544 -0.477841,-0.201027 0.175068,0.564229 1.264123,1.48163 1.265129,1.481956 1.265129,0.409892 z m 3.263031,-1.39844 c 0.556847,-0.615313 0.886594,-1.118752 0.732765,-1.118752 -0.153828,0 -0.735294,0.503439 -1.292141,1.118752 -0.556854,0.615314 -0.8866,1.118752 -0.732772,1.118752 0.153829,0 0.735294,-0.503438 1.292148,-1.118752 z m -3.823626,-0.374137 c -0.205778,-0.205776 0.04302,-0.835074 0.552842,-1.39844 0.509844,-0.563367 0.825041,-1.043562 0.70044,-1.067101 -0.124596,-0.02354 -0.668247,-0.127301 -1.208112,-0.230583 -0.539865,-0.103282 -0.850408,0.02445 -0.690091,0.283834 0.160311,0.259391 0.02344,0.637283 -0.304189,0.839759 -0.572941,0.354096 0.260563,1.946668 1.018825,1.946668 0.167432,0 0.136063,-0.168362 -0.06972,-0.374137 z m -0.93107,-0.95581 c 0,-0.116158 0.440509,-0.556666 0.978908,-0.978908 0.887198,-0.695791 0.906983,-0.676006 0.211192,0.211196 -0.730752,0.931779 -1.1901,1.228098 -1.1901,0.767712 z M 10.233836,36.991307 c 0.1651,-2.067594 0.720079,-3.641463 1.873842,-5.314071 1.749426,-2.536137 4.032709,-4.838842 3.967671,-4.001419 -0.074,0.952724 -1.000735,2.744966 -1.040121,2.011499 -0.122229,-2.276483 -3.873751,4.020636 -4.549186,7.636036 L 9.9992672,39.92894 Z"
     style="fill:#000000;stroke-width:0.55937594" />
</svg>
