<?xml version="1.0" encoding="UTF-8" standalone="no"?>
<svg
   xmlns:dc="http://purl.org/dc/elements/1.1/"
   xmlns:cc="http://creativecommons.org/ns#"
   xmlns:rdf="http://www.w3.org/1999/02/22-rdf-syntax-ns#"
   xmlns:svg="http://www.w3.org/2000/svg"
   xmlns="http://www.w3.org/2000/svg"
   id="svgGSW2"
   version="1.1"
   viewBox="0 0 100 100"
   height="100"
   width="100">
  <defs
     id="defs2" />
  <metadata
     id="metadata5">
    <rdf:RDF>
      <cc:Work
         rdf:about="">
        <dc:format>image/svg+xml</dc:format>
        <dc:type
           rdf:resource="http://purl.org/dc/dcmitype/StillImage" />
        <dc:title></dc:title>
      </cc:Work>
    </rdf:RDF>
  </metadata>
  <path
     id="pathGSW2"
     d="m 59.27615,85.970115 c -1.054725,-0.54855 -2.602722,-1.62547 -3.439988,-2.39316 -1.594086,-1.46161 -5.179844,-8.373915 -5.200651,-10.025368 -0.0067,-0.527362 -0.857351,0.574471 -1.890457,2.448517 -3.669593,6.656641 -10.132737,10.175531 -17.456183,9.504101 -5.515844,-0.5057 -8.053209,-1.39173 -10.893034,-3.80379 l -2.444361,-2.076169 h 5.364947 c 4.816431,0 5.644198,-0.184621 8.096253,-1.805759 3.611158,-2.387461 2.937126,-2.858417 -1.136554,-0.794125 -5.679559,2.87805 -12.04846,1.938668 -17.157567,-2.530654 -2.563331,-2.242339 -3.4018261,-3.509208 -4.3008921,-6.498143 -2.134604,-7.096472 -2.164796,-6.987712 1.047917,-3.774999 2.1873091,2.187309 7.3679191,4.226154 10.6935351,4.208475 2.399692,-0.01276 4.554579,-0.694006 4.168944,-1.317975 -0.184279,-0.29817 -0.997239,-0.290365 -1.806577,0.01734 C 20.721975,67.964659 15.90323,66.702295 12.46519,64.38918 10.130098,62.818128 8.9600329,61.363622 7.2373929,57.890517 c -1.96675,-3.96527 -2.221391,-5.056671 -2.237129,-9.588409 -0.0109,-3.138568 0.316519,-5.715721 0.84767,-6.672113 0.836622,-1.506426 0.921052,-1.393862 2.536573,3.381828 1.61342,4.76948 6.1418131,11.280626 7.8454871,11.280626 0.36849,0 -0.187746,-0.976898 -1.23608,-2.170885 C 12.382365,51.147175 9.7430979,45.354558 9.3018209,41.628657 8.8374089,37.70743 10.01795,32.586836 12.331814,28.486063 c 1.956026,-3.46659 7.342373,-9.13213 8.029162,-8.445342 0.233259,0.233258 0.106246,0.807104 -0.28225,1.275213 -0.388497,0.46811 -1.158829,2.56054 -1.71185,4.649846 -1.69844,6.416674 -0.149206,12.2931 4.766259,18.078983 1.510369,1.777822 2.021235,2.023887 3.054164,1.47108 1.841849,-0.985727 3.958229,-0.175625 4.42768,1.694817 0.32178,1.282077 0.04597,1.922324 -1.285447,2.983959 -1.866656,1.488421 -2.086031,3.066028 -0.98023,7.0492 0.73802,2.658397 4.415943,6.719357 6.085576,6.719357 1.203266,0 0.531897,-2.500766 -0.980642,-3.652773 -0.670867,-0.510957 -0.749246,-0.78819 -0.226596,-0.801488 0.439469,-0.01118 0.799034,-0.688364 0.799034,-1.50485 0,-1.02678 -0.788404,-2.000704 -2.556909,-3.158578 -2.682164,-1.756063 -3.146427,-1.623503 -1.577739,0.45049 1.235433,1.633388 1.210013,2.820382 -0.03376,1.576605 C 29.323515,56.33783 28.74824,54.824399 28.579879,53.5094 l -0.306111,-2.390906 2.48042,1.993321 c 1.364233,1.096327 2.874377,1.903042 3.355877,1.7927 0.4815,-0.110342 1.909389,0.588283 3.173085,1.552497 3.314534,2.529025 5.041547,2.302563 2.65638,-0.34833 -1.071863,-1.191278 -1.065177,-1.232777 0.159806,-0.992288 0.921696,0.180947 1.499596,-0.260381 2.070905,-1.5815 0.765174,-1.769413 0.657471,-1.967458 -3.129062,-5.753992 -2.15683,-2.156828 -4.327566,-4.893346 -4.823863,-6.081152 -1.148739,-2.74932 -0.545671,-5.600474 1.462978,-6.916591 0.893129,-0.585201 1.54252,-1.631878 1.54252,-2.486205 0,-1.708537 2.693256,-5.163199 4.463174,-5.724948 0.665985,-0.211377 1.539572,-1.380248 1.941295,-2.597493 0.89238,-2.703944 6.971943,-10.510291 8.185388,-10.510291 0.482508,0 2.567501,1.700732 4.633305,3.779403 2.933765,2.952035 3.846217,4.343505 4.168062,6.35621 0.331867,2.075387 0.761224,2.698531 2.206465,3.202344 2.516191,0.877149 4.0257,3.38687 3.493761,5.808761 -0.366475,1.668549 -0.103561,2.243633 1.881744,4.116015 2.003422,1.889471 2.258461,2.456201 1.934027,4.297723 -0.694054,3.939588 -5.131889,9.490876 -6.811388,8.520371 -0.465498,-0.268987 -0.627984,-0.248551 -0.361087,0.04541 0.266897,0.293965 -0.08129,1.13755 -0.77374,1.874634 -1.120015,1.192201 -1.172055,1.593086 -0.471366,3.631255 0.690123,2.00744 0.965751,2.225218 2.226173,1.758957 0.791184,-0.29268 1.606749,-0.970535 1.812356,-1.506344 0.538543,-1.403403 1.515512,-1.198889 1.515512,0.317252 v 1.291446 l 2.561576,-1.306818 c 2.537374,-1.294472 2.551616,-1.322015 1.507393,-2.9157 -2.132992,-3.255352 1.985344,-7.237252 5.263621,-5.089244 2.037831,1.335241 2.302439,1.258303 3.816002,-1.109578 2.020047,-3.160247 3.107028,-7.928799 3.094531,-13.575666 -0.0092,-4.163311 -0.314353,-5.737588 -1.641651,-8.469761 -0.896682,-1.845769 -1.486203,-3.355944 -1.310045,-3.355944 0.897667,0 5.958384,4.777007 8.235389,7.773705 3.307541,4.352945 4.805506,8.404615 4.977055,13.46189 0.07489,2.207635 0.462865,5.713585 0.862164,7.790999 0.845647,4.399609 0.187249,10.523124 -1.517775,14.116194 -1.51757,3.198041 -4.63836,5.552481 -9.047271,6.825593 -2.433129,0.702589 -3.123245,1.084981 -2.018858,1.118648 3.267749,0.09962 5.605358,-0.754821 7.956244,-2.908153 1.308735,-1.198756 2.468536,-2.090538 2.577339,-1.981738 0.404656,0.404655 -1.396597,5.326996 -2.626796,7.178339 -2.618173,3.940127 -7.472503,7.033923 -12.676388,8.07901 -3.062595,0.61506 -4.04774,0.56099 -6.442522,-0.35358 -1.554895,-0.593827 -3.304876,-1.808883 -3.888848,-2.700138 -1.396801,-2.131791 -1.957819,-1.501008 -0.747186,0.840091 1.084941,2.098047 6.219662,4.278667 8.576947,3.642477 2.249741,-0.60717 1.685776,0.68458 -0.820724,1.87984 -3.008356,1.43459 -11.976063,1.47856 -14.680538,0.072 z m 12.836739,-0.43194 c 0.16276,-0.16276 -0.981591,-0.78381 -2.543,-1.38012 -2.877712,-1.099 -4.869959,-3.287514 -5.03931,-5.535746 -0.06213,-0.824776 -0.567928,-1.235358 -1.52184,-1.235358 -1.310582,0 -1.373373,0.158969 -0.758942,1.92153 0.368419,1.056841 1.360237,2.464584 2.204043,3.128324 0.843812,0.66374 1.529792,1.59688 1.52441,2.07364 -0.0073,0.64487 -0.134954,0.66993 -0.498578,0.0979 -0.268833,-0.42295 -1.741651,-0.96933 -3.27292,-1.21419 -3.409472,-0.5452 -6.589046,-3.188332 -8.692532,-7.22596 -1.981356,-3.803216 -2.038924,-1.998678 -0.06947,2.177637 2.846581,6.036303 6.576702,8.146113 13.69988,7.748863 2.569789,-0.1433 4.805506,-0.39373 4.96826,-0.55648 z m -31.780648,-2.6596 c 2.401686,-1.256871 7.757432,-5.98716 7.757432,-6.851491 0,-1.03971 -0.951355,-0.563594 -3.51575,1.759493 -3.464842,3.138797 -7.055784,4.650208 -12.085255,5.086628 -5.375143,0.46641 -5.664726,-0.69433 -0.708444,-2.839674 4.064742,-1.759435 5.738548,-3.285807 3.603175,-3.285807 -0.746199,0 -1.356725,0.253894 -1.356725,0.564214 0,0.310319 -1.595816,1.344972 -3.546256,2.299236 -2.64838,1.295733 -4.266839,1.67771 -6.392273,1.508666 -1.565309,-0.12449 -2.846016,-0.05223 -2.846016,0.160593 0,0.337544 2.815768,1.689482 5.753045,2.762212 2.060903,0.75267 11.198443,-0.0449 13.337067,-1.16407 z m 21.112916,-2.925114 c -0.868026,-1.796612 -1.745749,-2.655714 -2.97832,-2.915138 -0.96118,-0.202303 -2.250987,-0.640538 -2.866243,-0.973855 -1.846325,-1.000254 -1.318304,0.45858 1.158113,3.19967 1.274044,1.410218 3.033568,2.635707 3.995171,2.782587 0.945123,0.14437 1.764216,0.30559 1.820206,0.35827 0.056,0.0527 -0.45203,-1.050514 -1.128927,-2.451534 z m -23.501376,0.97658 c 1.18555,-0.512328 3.018508,-1.517219 4.073233,-2.233083 l 1.917682,-1.301582 -3.078979,-0.0045 c -2.287302,-0.0032 -3.607095,0.398603 -5.132921,1.562406 -1.129667,0.86164 -2.764475,1.850186 -3.632906,2.196775 -1.431001,0.571118 -1.331698,0.633968 1.059685,0.670678 1.451258,0.0223 3.608651,-0.37866 4.794206,-0.890982 z m 40.742224,0.256975 c 3.585202,-0.826636 7.960016,-3.847771 10.350566,-7.147832 2.464969,-3.402789 2.376353,-4.093943 -0.311898,-2.432516 -3.298803,2.038774 -7.842481,2.376326 -11.060249,0.82167 -1.875787,-0.90628 -2.830415,-1.074761 -3.319347,-0.585828 -1.023045,1.023047 -0.853305,1.42778 0.941831,2.245699 1.962811,0.894315 5.616813,0.958026 8.443904,0.147227 2.185237,-0.626718 3.028263,0.290201 0.954622,1.0383 -0.615256,0.221963 -1.91795,0.95753 -2.894868,1.6346 -3.936336,2.728113 -9.77702,2.932512 -12.647892,0.442626 -0.771087,-0.668759 -1.683207,-1.042119 -2.026938,-0.829678 -0.343732,0.212434 -0.378512,0.566029 -0.0773,0.785763 0.301217,0.219735 0.547665,0.796848 0.547665,1.282482 0,1.215836 4.036605,3.275396 6.3823,3.256386 1.06021,-0.009 3.183129,-0.305099 4.7176,-0.658899 z M 29.711687,76.108225 c 2.150406,-0.962765 2.370546,-1.229632 1.442676,-1.748894 -0.741323,-0.414866 -1.951048,-0.315606 -3.745717,0.307339 -1.651678,0.573311 -3.715438,0.776523 -5.475534,0.539157 -3.098422,-0.417853 -7.999756,-2.985126 -8.578515,-4.493347 -0.460303,-1.199534 0.655334,-1.94984 1.683067,-1.131922 2.108983,1.678425 11.579187,1.55936 10.928081,-0.137394 -0.206988,-0.539405 -1.383354,-0.696895 -3.743483,-0.501176 -4.13163,0.342628 -9.31503,-0.795868 -11.519971,-2.530275 -1.5609541,-1.227846 -1.6054801,-1.229166 -1.6054801,-0.04762 0,1.705191 3.5791091,6.917963 5.8698581,8.54912 4.420082,3.147375 9.470107,3.556653 14.745018,1.195006 z m 49.6348,1.023208 c 1.491067,-0.826336 1.454305,-0.861199 -1.351947,-1.282025 -1.586588,-0.237923 -3.402824,-0.811449 -4.036087,-1.274502 -0.964786,-0.705472 -1.444302,-0.675323 -2.958792,0.18603 -2.186662,1.243645 -2.238816,1.587258 -0.377227,2.485072 2.004796,0.966876 6.888396,0.902742 8.724053,-0.114575 z M 46.171991,74.937466 c 2.226844,-1.003219 3.431718,-2.251698 4.954012,-5.133309 1.120086,-2.120254 0.998971,-2.384699 -0.479421,-1.046774 -0.70315,0.636342 -1.278454,1.574657 -1.278454,2.085144 0,0.559083 -0.378225,0.783019 -0.95117,0.56316 -0.52315,-0.20075 -0.882716,-0.07815 -0.799035,0.27245 0.08495,0.355953 -1.823836,0.775969 -4.322454,0.951125 -4.594127,0.322053 -8.072061,-0.599612 -10.746081,-2.84775 -0.940824,-0.790983 -1.255131,-0.815602 -1.677972,-0.131432 -0.330558,0.534856 -0.667445,0.603774 -0.923799,0.188986 -0.221924,-0.359082 -0.07603,-0.762032 0.324202,-0.895444 0.503484,-0.167828 0.395902,-0.884194 -0.349162,-2.324988 -0.592274,-1.145332 -1.171572,-3.002398 -1.287329,-4.126814 -0.115757,-1.124415 -0.56071,-2.907348 -0.988783,-3.962073 -1.038204,-2.558018 -1.173074,-3.28363 -1.306948,-7.0315 -0.113186,-3.16873 -0.11988,-3.178322 -0.780605,-1.118648 -0.366543,1.142619 -0.885557,2.077489 -1.153366,2.077489 -0.267808,0 -0.177934,-1.006783 0.199722,-2.237296 0.694042,-2.261396 1.348177,-2.766345 2.070213,-1.598068 0.217285,0.351575 0.953392,0.639227 1.635793,0.639227 0.897293,0 1.240729,-0.442348 1.240729,-1.598068 0,-1.271709 -0.321273,-1.598068 -1.573167,-1.598068 -0.865242,0 -2.147924,0.61693 -2.850406,1.370955 -1.548166,1.661761 -2.850741,7.470045 -2.311631,10.307746 0.827664,4.356563 1.80962,7.498117 2.343688,7.498117 0.305884,0 0.556153,0.38832 0.556153,0.862932 0,1.684785 3.825575,6.108939 6.779117,7.83983 4.863077,2.849954 8.903236,3.143321 13.676154,0.993071 z m -5.113818,-0.107424 c 0,-0.351575 0.287652,-0.639227 0.639227,-0.639227 0.351575,0 0.639228,0.287652 0.639228,0.639227 0,0.351575 -0.287653,0.639227 -0.639228,0.639227 -0.351575,0 -0.639227,-0.287652 -0.639227,-0.639227 z m 1.917682,-0.639227 c 0,-0.351575 0.287652,-0.639228 0.639227,-0.639228 0.351575,0 0.639228,0.287653 0.639228,0.639228 0,0.351575 -0.287653,0.639227 -0.639228,0.639227 -0.351575,0 -0.639227,-0.287652 -0.639227,-0.639227 z M 34.346288,72.91236 c -0.217286,-0.351575 -0.09044,-0.639227 0.281888,-0.639227 0.372324,0 0.676952,0.287652 0.676952,0.639227 0,0.351575 -0.126849,0.639227 -0.281888,0.639227 -0.155039,0 -0.459667,-0.287652 -0.676952,-0.639227 z m -2.450371,-1.065379 c -0.234384,-0.234383 -0.426152,-0.723392 -0.426152,-1.086686 0,-0.400543 0.297733,-0.362801 0.756419,0.09588 0.41603,0.416031 0.607799,0.905039 0.426151,1.086686 -0.181647,0.181647 -0.522035,0.1385 -0.756418,-0.09588 z m -3.941902,-4.048439 c -0.217285,-0.351575 -0.107412,-0.639227 0.244163,-0.639227 0.351575,0 0.817006,0.287652 1.034292,0.639227 0.217285,0.351575 0.107412,0.639227 -0.244163,0.639227 -0.351575,0 -0.817006,-0.287652 -1.034292,-0.639227 z M 26.995174,65.88086 c 0,-0.351575 0.287652,-0.639227 0.639227,-0.639227 0.351575,0 0.639228,0.287652 0.639228,0.639227 0,0.351575 -0.287653,0.639227 -0.639228,0.639227 -0.351575,0 -0.639227,-0.287652 -0.639227,-0.639227 z m -1.227989,-4.847473 c 0.03067,-0.744663 0.182142,-0.896133 0.3862,-0.3862 0.184654,0.461442 0.161944,1.012776 -0.05047,1.225186 -0.21241,0.212409 -0.363491,-0.165134 -0.335735,-0.838986 z M 25.077492,58.84936 c -0.506999,-0.313343 -0.709613,-0.781917 -0.450254,-1.041275 0.259359,-0.25936 0.807156,-0.135969 1.217327,0.274202 0.965817,0.965817 0.426742,1.504892 -0.767073,0.767073 z m -0.639227,-2.914248 c 0,-0.548111 0.292344,-0.815887 0.649654,-0.595058 0.35731,0.22083 0.48416,0.669285 0.281889,0.996566 -0.547971,0.886637 -0.931543,0.721312 -0.931543,-0.401508 z m -0.319614,-2.19957 c 0.217286,-0.351575 0.521914,-0.639227 0.676953,-0.639227 0.155039,0 0.281888,0.287652 0.281888,0.639227 0,0.351575 -0.304628,0.639227 -0.676952,0.639227 -0.372324,0 -0.499174,-0.287652 -0.281889,-0.639227 z m 3.51575,-6.392273 c 0,-0.351575 0.304629,-0.639227 0.676953,-0.639227 0.372324,0 0.499174,0.287652 0.281888,0.639227 -0.217285,0.351575 -0.521913,0.639228 -0.676952,0.639228 -0.155039,0 -0.281889,-0.287653 -0.281889,-0.639228 z m 43.156457,26.188676 c 3.559454,-2.173407 6.632718,-6.438817 7.793708,-10.816943 1.10181,-4.15498 1.038885,-10.949742 -0.116685,-12.599551 -2.096377,-2.992996 -6.979581,-2.293358 -6.605301,0.946368 0.135817,1.175604 0.549895,1.686963 1.316763,1.626101 0.726278,-0.05764 1.142408,0.39078 1.186381,1.278454 0.138853,2.802819 -0.220534,5.243317 -1.001011,6.797551 -0.44223,0.880652 -0.976266,2.716203 -1.186751,4.079003 -0.48596,3.146398 -2.79621,6.549867 -5.093523,7.503793 -2.414553,1.002608 -8.814547,0.352819 -11.98764,-1.217103 -2.854686,-1.412386 -3.774995,-0.858424 -2.507727,1.509479 0.840028,1.569605 4.594811,3.281216 7.965533,3.631073 2.375285,0.246537 7.665767,-1.168682 10.236253,-2.738225 z m -10.236253,1.298097 c -0.217286,-0.351575 0.214192,-0.639227 0.958841,-0.639227 0.744648,0 1.176127,0.287652 0.958841,0.639227 -0.217286,0.351575 -0.648765,0.639227 -0.958841,0.639227 -0.310077,0 -0.741555,-0.287652 -0.958841,-0.639227 z M 63.9505,74.393377 c 0.461439,-0.184655 1.012772,-0.161945 1.225187,0.05047 0.212409,0.21241 -0.165138,0.363491 -0.838985,0.335735 -0.744668,-0.03067 -0.896133,-0.182142 -0.386202,-0.3862 z m 2.996378,-0.84179 c 0.217286,-0.351575 0.682713,-0.639227 1.034288,-0.639227 0.351575,0 0.461452,0.287652 0.244166,0.639227 -0.217286,0.351575 -0.682714,0.639228 -1.034289,0.639228 -0.351575,0 -0.461452,-0.287653 -0.244165,-0.639228 z m 2.556909,-1.278454 c 0.217286,-0.351575 0.521916,-0.639228 0.676954,-0.639228 0.155038,0 0.281886,0.287653 0.281886,0.639228 0,0.351575 -0.30463,0.639227 -0.676954,0.639227 -0.372324,0 -0.499173,-0.287652 -0.281886,-0.639227 z m 1.598068,-1.278455 c 0,-0.351575 0.30463,-0.639227 0.676954,-0.639227 0.372325,0 0.499173,0.287652 0.281887,0.639227 -0.217286,0.351575 -0.521917,0.639227 -0.676955,0.639227 -0.155038,0 -0.281886,-0.287652 -0.281886,-0.639227 z m 1.63949,-2.716716 c 0.245949,-0.791043 0.698605,-1.534743 1.005901,-1.652664 0.307289,-0.117922 0.396116,-0.477488 0.197387,-0.799034 -0.198723,-0.321548 -0.0567,-0.584631 0.315631,-0.584631 0.898057,0 0.857261,0.354043 -0.298302,2.588653 -1.153255,2.230146 -1.854833,2.487457 -1.220617,0.447676 z m 1.87626,-4.954011 c 0.217286,-0.351575 0.521916,-0.639227 0.676954,-0.639227 0.155038,0 0.281887,0.287652 0.281887,0.639227 0,0.351575 -0.304631,0.639227 -0.676955,0.639227 -0.372324,0 -0.499172,-0.287652 -0.281886,-0.639227 z m 1.059768,-2.556909 c 0,-0.878937 0.145092,-1.238503 0.32242,-0.799034 0.177328,0.439469 0.177328,1.158599 0,1.598068 -0.177328,0.439469 -0.32242,0.0799 -0.32242,-0.799034 z m -0.100927,-2.594634 c 0,-0.372324 0.287652,-0.499174 0.639227,-0.281889 0.351575,0.217286 0.639227,0.521914 0.639227,0.676953 0,0.155039 -0.287652,0.281888 -0.639227,0.281888 -0.351575,0 -0.639227,-0.304629 -0.639227,-0.676952 z m 0.319613,-1.879957 c 0.217286,-0.351575 0.521917,-0.639227 0.676955,-0.639227 0.155038,0 0.281886,0.287652 0.281886,0.639227 0,0.351575 -0.30463,0.639227 -0.676954,0.639227 -0.372325,0 -0.499173,-0.287652 -0.281887,-0.639227 z m 0,-1.917682 c 0.217286,-0.351575 0.521917,-0.639227 0.676955,-0.639227 0.155038,0 0.281886,0.287652 0.281886,0.639227 0,0.351575 -0.30463,0.639228 -0.676954,0.639228 -0.372325,0 -0.499173,-0.287653 -0.281887,-0.639228 z m -1.598068,-3.51575 c -0.437672,-0.527362 -0.596175,-0.95884 -0.352227,-0.95884 0.243948,0 0.875025,0.431478 1.402388,0.95884 0.527362,0.527363 0.685859,0.958841 0.352221,0.958841 -0.333639,0 -0.964709,-0.431478 -1.402382,-0.958841 z m -45.60101,22.482292 c 0.247642,-0.247642 0.104652,-0.795865 -0.317756,-1.218273 -0.509254,-0.509253 -2.577079,-0.703999 -6.1374,-0.578013 -3.105966,0.109909 -5.930418,-0.110252 -6.700291,-0.522276 -0.731998,-0.391753 -1.330905,-0.545099 -1.330905,-0.340767 0,0.204331 1.510174,1.090661 3.355943,1.969623 2.663033,1.268146 4.112067,1.550815 7.018047,1.369038 2.014157,-0.125991 3.86472,-0.43169 4.112362,-0.679332 z m 39.102325,-2.782526 c 1.391477,-0.87874 3.70353,-5.129244 3.111874,-5.720903 -0.428148,-0.428148 -2.385788,0.494195 -2.084297,0.982017 0.151031,0.244368 -0.282104,0.791968 -0.96251,1.21689 -0.680412,0.424922 -1.237109,0.506468 -1.237109,0.181211 0,-0.325256 0.359565,-0.736463 0.799034,-0.913792 0.439469,-0.17733 -0.40651,-0.345127 -1.879955,-0.372883 -1.473444,-0.02775 -2.884238,0.281632 -3.135096,0.687528 -0.28259,0.457239 -0.175353,0.564478 0.281886,0.281889 0.405897,-0.250858 0.737995,-0.199418 0.737995,0.114309 0,0.578431 -1.521419,0.804327 -6.711887,0.996566 -2.832026,0.104891 -3.768308,1.066374 -2.077488,2.133405 1.244524,0.785387 8.961237,2.028965 10.387443,1.673977 0.70315,-0.175017 1.9497,-0.742114 2.77011,-1.260214 z m -4.368178,-0.842561 c -0.506997,-0.313343 -0.709613,-0.781917 -0.450253,-1.041276 0.25936,-0.259359 0.807152,-0.135968 1.217325,0.274203 0.965815,0.965817 0.426742,1.504891 -0.767072,0.767073 z m 1.598068,-1.917682 c 0.217286,-0.351575 0.521916,-0.639227 0.676954,-0.639227 0.155038,0 0.281887,0.287652 0.281887,0.639227 0,0.351575 -0.304631,0.639227 -0.676955,0.639227 -0.372324,0 -0.499172,-0.287652 -0.281886,-0.639227 z M 46.57255,70.407973 c 2.56901,-1.166594 4.156493,-2.609431 2.871032,-2.609431 -0.351581,0 -0.794048,0.250498 -0.983266,0.556663 -0.606869,0.981934 -4.306276,1.383296 -6.731299,0.730305 -1.2937,-0.348357 -3.016782,-1.340817 -3.82908,-2.205468 -0.812298,-0.864651 -2.375651,-1.759076 -3.474118,-1.987611 -1.098467,-0.228536 -2.644431,-0.825394 -3.435475,-1.32635 -0.791043,-0.500956 -1.438261,-0.795501 -1.438261,-0.654545 0,0.963588 2.02294,4.784118 3.002578,5.670679 3.396384,3.073685 9.514872,3.870587 14.017889,1.825758 z m -7.591865,0.146069 c -0.615257,-0.160783 -1.118648,-0.531963 -1.118648,-0.824845 0,-0.292881 0.575304,-0.382066 1.278454,-0.198189 0.70315,0.183878 1.278455,0.588427 1.278455,0.898997 0,0.31057 -0.07191,0.531305 -0.159807,0.490522 -0.08789,-0.04078 -0.663198,-0.205701 -1.278454,-0.366485 z m 2.397102,-0.198591 c -0.217286,-0.351575 -0.09044,-0.639227 0.281886,-0.639227 0.372325,0 0.676955,0.287652 0.676955,0.639227 0,0.351575 -0.126849,0.639227 -0.281887,0.639227 -0.155038,0 -0.459668,-0.287652 -0.676954,-0.639227 z m 43.93572,-0.630161 c 6.266396,-2.34456 8.318891,-5.896502 8.593279,-14.8711 0.104801,-3.427856 0.06398,-6.232466 -0.09072,-6.232466 -0.154706,0 -0.758181,1.004997 -1.341061,2.233326 -1.73111,3.648054 -5.694396,7.269776 -8.89096,8.124726 -1.570109,0.41994 -2.998328,1.137695 -3.173815,1.595011 -0.765507,1.994877 4.72093,0.06047 8.646367,-3.048534 1.375291,-1.089251 2.497416,-1.884372 2.493613,-1.766936 -0.0273,0.84288 -1.995316,6.513176 -2.80188,8.072893 -1.348482,2.607681 -6.073324,4.88034 -9.003401,4.330654 -1.765067,-0.331128 -2.309452,-0.170684 -2.850398,0.840077 -0.482348,0.901277 -0.461426,1.31845 0.0751,1.49729 2.063035,0.687679 5.217782,0.394681 8.343878,-0.774941 z M 48.014487,67.548307 49.537363,66.704148 47.61885,66.03535 c -2.113208,-0.736667 -5.282222,-3.817112 -5.282222,-5.134587 0,-0.68921 -3.550889,-2.69063 -4.773673,-2.69063 -0.843217,0 -0.16377,1.19909 1.948141,3.438119 1.258562,1.334309 2.156964,2.557343 1.996454,2.717854 -0.16051,0.16051 -1.486127,-1.064943 -2.945809,-2.723231 -1.628917,-1.85055 -2.388325,-3.179244 -1.966192,-3.440137 0.461407,-0.285167 0.380966,-0.6797 -0.244415,-1.198718 -1.537242,-1.275799 -1.816784,0.237217 -0.732767,3.966103 1.395153,4.79915 4.456649,7.431559 8.635943,7.425557 1.230512,-0.0018 2.922591,-0.383085 3.760177,-0.847373 z m -5.384531,-1.709975 c -0.655885,-1.061249 -0.06719,-1.208411 0.850524,-0.212614 0.453328,0.491904 0.542218,0.894369 0.197534,0.894369 -0.34469,0 -0.816312,-0.30679 -1.048058,-0.681755 z m 42.982927,0.215701 c 1.413024,-0.922315 4.026562,-5.586532 4.026562,-7.185951 0,-0.669496 -0.243826,-0.643285 -1.118647,0.120253 -1.47673,1.288877 -5.19229,2.974474 -7.191307,3.262401 -2.015074,0.29024 -3.723876,4.3433 -2.085127,4.94566 1.40885,0.517857 4.740598,-0.07978 6.368519,-1.142363 z M 52.883878,65.249301 c 0,-1.681916 -1.781386,-2.286067 -2.870661,-0.973573 -0.506543,0.610345 -0.409566,1.110113 0.365881,1.885559 1.371526,1.371525 2.50478,0.958909 2.50478,-0.911986 z m 7.526479,1.176934 c 0.753374,-0.403193 1.875505,-1.338063 2.493632,-2.077488 1.611581,-1.92784 3.837582,-6.771627 3.51061,-7.639105 -0.247202,-0.655837 -0.695773,0.167677 -1.426665,2.619139 -0.131023,0.439468 -0.592436,0.799034 -1.025366,0.799034 -0.612213,0 -0.616669,-0.170461 -0.02007,-0.767073 1.278653,-1.278655 0.873191,-1.650207 -1.310416,-1.200814 -1.502356,0.30919 -2.083702,0.783836 -2.099932,1.714512 -0.02308,1.32247 -4.676951,6.00642 -5.96787,6.00642 -0.396858,0 -0.72156,0.287652 -0.72156,0.639227 0,0.877519 4.883,0.807741 6.567639,-0.09385 z m -2.732275,-1.184602 c 0,-0.351575 0.30463,-0.639227 0.676955,-0.639227 0.372324,0 0.499172,0.287652 0.281886,0.639227 -0.217286,0.351575 -0.521916,0.639227 -0.676954,0.639227 -0.155039,0 -0.281887,-0.287652 -0.281887,-0.639227 z m 4.154977,-3.196136 c 0.636345,-0.70315 1.258664,-1.278455 1.382943,-1.278455 0.124279,0 -0.133324,0.575305 -0.572447,1.278455 -0.439124,0.70315 -1.06145,1.278454 -1.382943,1.278454 -0.321499,0 -0.06392,-0.575304 0.572447,-1.278454 z m -39.045143,4.086586 c 1.863102,-0.714939 1.03789,-1.34843 -2.266288,-1.739761 -1.802576,-0.213488 -4.319533,-0.926819 -5.593239,-1.585179 -2.636224,-1.362624 -5.6235381,-5.74413 -6.1850261,-9.071601 l -0.377529,-2.237295 1.466474,1.917681 c 3.4829141,4.554548 7.8072041,7.421693 11.0084651,7.29897 1.060976,-0.04067 0.879319,-0.261744 -0.825778,-1.004942 C 15.117444,57.57527 8.5184779,50.320181 7.4625339,45.909426 c -0.811275,-3.388751 -1.740905,-1.046989 -1.364884,3.43818 0.518949,6.190026 3.055552,11.596243 6.5781181,14.019833 3.38801,2.331012 7.974479,3.584945 10.112148,2.764644 z M 49.185737,64.01769 c 0.611216,-0.978707 0.579223,-1.377598 -0.159673,-1.990823 -0.564565,-0.468551 -0.779659,-1.342114 -0.552906,-2.24556 0.29726,-1.184379 -0.01572,-1.67872 -1.572505,-2.483767 -1.068993,-0.552799 -2.659582,-1.005089 -3.534639,-1.005089 h -1.591011 l 0.945001,2.716716 c 1.093648,3.144064 1.986431,4.436602 3.771601,5.460396 1.708667,0.97992 1.810643,0.962817 2.694132,-0.451873 z m -2.853939,-2.3293 c -0.941294,-1.021824 -1.020079,-1.560575 -0.228198,-1.560575 0.545338,0 1.566408,1.923337 1.202087,2.264315 -0.09617,0.09001 -0.53442,-0.226675 -0.973889,-0.70374 z m -2.393554,-3.474338 c -0.638294,-0.705305 -0.86352,-1.282374 -0.500502,-1.282374 0.804307,0 2.398636,1.827145 1.96912,2.256663 -0.169446,0.169446 -0.830324,-0.268983 -1.468618,-0.974289 z m 13.293389,4.310865 c 2.6382,-3.567568 2.698172,-4.067929 0.229853,-1.917682 -3.14719,2.741641 -3.718749,2.653472 -0.991825,-0.153 1.191993,-1.226769 2.574769,-2.233552 3.072836,-2.237296 0.49806,-0.0038 0.74284,-0.169538 0.543944,-0.368433 -0.198895,-0.198895 -1.514483,-0.0512 -2.923531,0.328222 -1.988048,0.535326 -2.712376,1.121507 -3.233685,2.616933 -1.383173,3.967764 0.801559,5.113087 3.302408,1.731256 z m 12.959323,0.979386 c 1.479364,-1.479361 3.436447,-5.893782 3.45377,-7.790345 0.01317,-1.444747 -0.0558,-1.474101 -1.146115,-0.487407 -0.638089,0.57746 -2.076351,1.369312 -3.196136,1.759673 -1.119792,0.39036 -2.035984,0.960232 -2.035984,1.266379 0,0.306149 0.478666,0.372952 1.0637,0.148452 0.715225,-0.274457 0.912286,-0.163175 0.601506,0.339676 -0.254214,0.411321 -0.830528,0.747856 -1.280711,0.747856 -0.450182,0 -1.139876,0.705323 -1.532656,1.567383 -0.591566,1.298343 -0.554318,1.506048 0.217005,1.210064 0.512136,-0.196525 0.931156,-0.03889 0.931156,0.3503 0,0.389189 -0.287652,0.743574 -0.639227,0.78752 -0.351575,0.04395 -0.902909,0.11586 -1.225188,0.159807 -0.322273,0.04395 -0.801693,0.295643 -1.065374,0.559324 -0.263682,0.263681 0.698579,0.479421 2.138362,0.479421 1.622173,0 3.035428,-0.41764 3.715892,-1.098103 z m -2.281779,-1.77842 c 0,-0.351575 1.137568,-1.933663 2.527926,-3.51575 1.390358,-1.582088 2.527927,-2.58887 2.527927,-2.237295 0,0.351575 -1.137569,1.933662 -2.527927,3.515749 -1.390358,1.582088 -2.527926,2.588871 -2.527926,2.237296 z m 2.233837,-0.319614 c 0.217286,-0.351575 0.521916,-0.639227 0.676954,-0.639227 0.155038,0 0.281887,0.287652 0.281887,0.639227 0,0.351575 -0.30463,0.639228 -0.676955,0.639228 -0.372324,0 -0.499172,-0.287653 -0.281886,-0.639228 z m -47.334778,1.349226 c -0.333997,-0.312651 -2.191771,-1.019615 -4.128388,-1.571029 -2.124447,-0.604897 -4.469815,-1.871543 -5.912852,-3.193314 -2.721589,-2.492879 -2.8450301,-2.474991 -1.231384,0.178437 1.345933,2.213209 3.727782,4.221615 5.554337,4.683489 2.262186,0.57203 6.358931,0.502118 5.718287,-0.09758 z m 29.749009,-1.336109 c 0.663007,-1.238843 0.268834,-4.497264 -0.5417,-4.477919 -1.775863,0.04238 -3.158013,3.39896 -1.98273,4.815091 1.043577,1.257438 1.719324,1.167182 2.52443,-0.337172 z M 21.881356,58.989503 c 0,-0.274497 -0.93487,-0.899474 -2.077489,-1.388839 -1.142618,-0.489365 -2.333267,-1.021225 -2.645886,-1.181912 -0.312619,-0.160686 -0.35,0.06122 -0.08307,0.493122 0.266931,0.431904 1.385667,1.177093 2.48608,1.655976 2.42259,1.054275 2.320364,1.035699 2.320365,0.421653 z m 37.874215,-2.668994 c 1.474876,-0.03699 1.430725,-1.654657 -0.07392,-2.708556 -0.655918,-0.45942 -1.397901,-1.770166 -1.648861,-2.912769 -0.294397,-1.34038 -0.838079,-2.07746 -1.532375,-2.07746 -0.591842,0 -1.360033,-0.647218 -1.707082,-1.438261 -0.924777,-2.107871 -3.356039,-2.264395 -3.861962,-0.24863 -0.310217,1.236004 -0.776303,1.567074 -2.083242,1.479759 -1.376863,-0.09199 -1.809965,0.268923 -2.377088,1.98087 -0.381414,1.151344 -0.915897,1.870926 -1.187754,1.599073 -0.48573,-0.485728 -2.307432,1.489908 -2.307432,2.50241 0,1.08258 1.616114,0.448681 3.019269,-1.184267 0.804045,-0.935725 1.658801,-1.504414 1.899464,-1.263752 0.240662,0.240662 -0.192293,0.87874 -0.962127,1.417952 -1.516765,1.062385 -1.851432,2.186346 -0.650995,2.186346 0.411783,0 1.213905,0.421001 1.782485,0.935559 0.915584,0.828593 1.231951,0.765276 2.767049,-0.553794 0.953292,-0.819144 1.699897,-2.031189 1.659114,-2.693434 -0.06604,-1.072294 -0.10615,-1.081644 -0.366482,-0.08543 -0.160785,0.615256 -0.558895,1.118647 -0.88469,1.118647 -0.932109,0 -0.691325,-2.318236 0.328716,-3.164791 0.765212,-0.635074 0.994529,-0.372866 1.355187,1.549604 0.238758,1.272715 0.265874,2.482261 0.06028,2.687882 -0.20562,0.20562 -0.103101,0.87977 0.227827,1.498111 0.542046,1.012822 0.840776,1.038952 3.013835,0.263624 1.326684,-0.473348 2.915548,-0.873259 3.530804,-0.88869 z m -2.667604,-2.412836 c -0.793326,-1.741162 -0.791977,-1.742521 0.536625,-0.540156 1.373948,1.243408 1.73662,2.285707 0.795326,2.285707 -0.295144,0 -0.894522,-0.785499 -1.331951,-1.745551 z m -8.039453,0.467096 c -0.217286,-0.351575 -0.09044,-0.639227 0.281887,-0.639227 0.372324,0 0.676954,0.287652 0.676954,0.639227 0,0.351575 -0.126848,0.639228 -0.281886,0.639228 -0.155039,0 -0.459669,-0.287653 -0.676955,-0.639228 z M 48.7289,50.655401 c 0,-0.772541 1.212742,-1.673239 1.656047,-1.229936 0.160893,0.160893 -0.145898,0.656397 -0.681756,1.10112 -0.607515,0.50419 -0.974291,0.552683 -0.974291,0.128816 z m 5.208047,-1.142375 c -0.47554,-0.537763 -1.290619,-0.814278 -1.811289,-0.614478 -0.521858,0.200256 -0.843824,0.05471 -0.717475,-0.324331 0.126062,-0.378183 0.437749,-0.66603 0.692641,-0.639662 0.254892,0.02637 0.825728,0.04794 1.268515,0.04794 0.442793,0 1.164365,0.575304 1.603489,1.278454 0.934774,1.496815 0.218877,1.671024 -1.035881,0.252075 z m 30.38726,8.018673 c 2.008893,-0.75738 5.705046,-4.073749 6.724396,-6.033452 0.365746,-0.70315 -0.484733,-0.176624 -1.889946,1.170058 -1.405213,1.346682 -3.957379,3.135513 -5.671474,3.97518 -3.126607,1.531604 -2.534919,2.159485 0.837024,0.888214 z M 21.881042,56.452258 c -1.72e-4,-0.615256 -1.366521,-2.296239 -3.036329,-3.735518 -4.220005,-3.637399 -5.803576,-7.112663 -6.255556,-13.728281 -0.26175,-3.831212 -0.126823,-5.835848 0.466855,-6.936165 1.246145,-2.309596 2.266775,-2.343733 1.932273,-0.06463 -0.430639,2.934134 4.537066,14.413492 7.190407,16.615569 0.763969,0.634038 1.00405,0.469303 1.355231,-0.929913 0.339616,-1.353139 0.03233,-2.115387 -1.504461,-3.731969 -2.406537,-2.531482 -4.954253,-7.625484 -5.467487,-10.93191 -0.361522,-2.32904 0.170292,-6.141057 1.262431,-9.04906 0.778812,-2.073718 -1.339387,0.02251 -3.630399,3.592744 -2.363958,3.683908 -3.803042,8.630338 -3.80491,13.078256 -0.0022,5.256572 4.261132,13.110091 8.529971,15.713102 2.477832,1.510907 2.962373,1.528537 2.961974,0.107773 z m 62.983631,-1.803057 c 10.324179,-6.050374 10.631635,-17.632073 0.744432,-28.042816 -1.92185,-2.023619 -2.779897,-2.638338 -2.292442,-1.642341 0.428481,0.875488 0.912299,4.35889 1.075155,7.740894 0.327917,6.809748 -0.585699,10.776636 -3.456123,15.006446 -0.87289,1.286275 -1.427893,2.49786 -1.233344,2.69241 0.423149,0.423151 3.544822,-2.401044 3.544822,-3.207021 0,-0.30958 0.558371,-1.788577 1.240829,-3.286661 0.682459,-1.498083 1.439502,-4.221455 1.682325,-6.051936 0.242823,-1.830481 0.651079,-3.457677 0.907236,-3.615993 0.692833,-0.428192 2.428405,4.058026 2.842727,7.348041 0.279432,2.218911 0.01962,3.608266 -1.136463,6.077312 -1.539841,3.288641 -5.492995,7.346461 -7.156967,7.346461 -0.515128,0 -0.936596,0.287652 -0.936596,0.639227 0,1.032551 1.186016,0.747293 4.174409,-1.004023 z m -0.378237,-2.552367 c 3.315889,-2.995707 4.813919,-6.919118 4.299673,-11.261081 -0.424562,-3.584779 -1.669099,-5.751732 -1.751074,-3.048931 -0.122693,4.045093 -3.661378,12.297808 -5.75323,13.417333 -1.450727,0.776405 -1.657459,3.170614 -0.273769,3.170614 0.526346,0 2.091629,-1.02507 3.4784,-2.277935 z M 21.002672,48.60041 c -1.406915,-1.672023 -4.461341,-7.515291 -6.67167,-12.763231 -0.56243,-1.335368 -0.679159,-0.862509 -0.710093,2.876522 -0.04533,5.479028 1.764102,9.840165 5.411294,13.042442 l 2.467248,2.166273 0.564844,-1.694531 c 0.459794,-1.379383 0.262354,-2.054018 -1.061623,-3.627475 z m 22.595023,0.967328 c -1.20089,-0.885992 -2.437047,-2.064065 -2.747015,-2.61794 -0.482757,-0.862642 -0.210389,-0.955926 1.899451,-0.650544 1.354663,0.196077 2.839563,0.367367 3.299781,0.380646 0.460218,0.01328 0.658979,0.311794 0.441693,0.663369 -0.217286,0.351575 -0.251235,0.639228 -0.07545,0.639228 1.016033,0 0.812324,-1.275782 -0.369122,-2.311672 -0.755291,-0.662243 -1.207142,-0.915924 -1.004117,-0.563734 0.226472,0.392848 -0.834281,0.622899 -2.744478,0.595207 -2.819874,-0.04088 -3.296629,-0.275423 -5.053468,-2.486116 -2.339379,-2.943729 -2.536484,-5.610152 -0.519155,-7.023143 0.781378,-0.547298 1.089575,-0.995088 0.684887,-0.995088 -1.301179,0 -2.744872,1.958969 -2.742413,3.721217 0.0013,0.941718 0.594107,2.682795 1.317317,3.869059 1.794966,2.94424 7.477862,8.390406 8.755115,8.390406 0.658698,0 0.239327,-0.591026 -1.143028,-1.610895 z m 17.014888,-0.142273 c -0.443304,-0.443303 -1.656046,0.457395 -1.656046,1.229936 0,0.423867 0.366776,0.375374 0.974291,-0.128816 0.535858,-0.444723 0.842648,-0.940227 0.681755,-1.10112 z M 45.532764,49.260951 c 0,-0.351575 -0.30463,-0.639227 -0.676954,-0.639227 -0.372325,0 -0.499173,0.287652 -0.281887,0.639227 0.217286,0.351575 0.521917,0.639228 0.676955,0.639228 0.155038,0 0.281886,-0.287653 0.281886,-0.639228 z m 21.775948,-3.995092 c 1.089326,-1.503775 1.875461,-3.398513 1.875461,-4.520245 0,-2.033635 -1.542954,-4.269208 -2.946537,-4.269208 -0.480942,0 -0.170079,0.660635 0.738294,1.569012 0.981278,0.981277 1.541241,2.238378 1.494865,3.355943 -0.04545,1.095745 -0.187811,1.35121 -0.36799,0.660457 -0.161616,-0.61956 -0.573694,-0.953516 -0.915731,-0.742124 -0.389194,0.240534 -0.346506,0.716165 0.114082,1.27114 0.578373,0.6969 0.277042,1.466594 -1.40722,3.59445 -1.178761,1.489212 -1.764632,2.474089 -1.30194,2.188616 0.462692,-0.285473 1.685214,-1.684091 2.716716,-3.108041 z M 47.44833,45.0059 C 45.219524,42.467433 40.003525,34.559754 39.126582,32.389781 l -0.544283,-1.346807 -0.04053,1.351984 c -0.05561,1.856516 9.013124,14.85122 10.413146,14.921083 0.300105,0.01498 -0.377866,-1.024588 -1.506601,-2.310141 z m 13.891994,1.951169 c -0.212415,-0.212409 -0.763743,-0.235119 -1.225188,-0.05047 -0.509931,0.204058 -0.358466,0.355528 0.386202,0.3862 0.673848,0.02776 1.051395,-0.123324 0.838986,-0.335734 z M 64.05401,36.754007 c 0.712137,-1.429407 1.294799,-3.564149 1.294799,-4.743872 0,-2.215804 -1.490128,-4.482911 -2.946537,-4.482911 -0.480942,0 -0.170079,0.660635 0.738295,1.569012 1.697551,1.697546 1.985919,3.848099 0.85023,6.340661 -0.467525,1.026113 -1.082001,1.462439 -1.757875,1.248233 -0.874144,-0.277047 -0.891064,-0.224566 -0.106598,0.330602 0.773874,0.547677 0.455974,1.237482 -1.868998,4.05547 -4.259766,5.163054 -4.52447,5.740273 -0.837714,1.826744 1.836781,-1.94976 3.92226,-4.714532 4.634398,-6.143939 z m 0.496066,9.151001 c -0.146326,-0.439469 -0.751239,-0.841667 -1.344257,-0.893775 -0.987261,-0.08675 -0.98845,-0.06781 -0.01406,0.224546 0.878004,0.263434 0.90815,0.418069 0.172342,0.883986 -0.704703,0.44622 -0.645939,0.566754 0.280097,0.574489 0.655975,0.0055 1.054789,-0.341992 0.905874,-0.789246 z m -14.542721,-0.47942 c 0,-0.351575 -0.30463,-0.639228 -0.676954,-0.639228 -0.372325,0 -0.499173,0.287653 -0.281887,0.639228 0.217286,0.351575 0.521916,0.639227 0.676955,0.639227 0.155038,0 0.281886,-0.287652 0.281886,-0.639227 z m 6.11029,-1.633332 c 1.169984,-0.937349 1.149587,-0.950653 -0.357245,-0.233028 -1.956693,0.931873 -2.319333,1.227132 -1.50717,1.227132 0.342978,0 1.181963,-0.447347 1.864415,-0.994104 z m 5.222679,0.607904 c -0.212415,-0.212409 -0.763743,-0.235119 -1.225188,-0.05047 -0.509931,0.204058 -0.358466,0.355528 0.386202,0.3862 0.673848,0.02776 1.051395,-0.123324 0.838986,-0.335735 z M 49.026569,42.325248 c -0.360179,-0.379156 -1.576123,0.581786 -1.576123,1.245586 0,0.344687 0.402464,0.255798 0.894368,-0.197532 0.491905,-0.453331 0.798696,-0.924954 0.681755,-1.048054 z m -4.772259,0.941314 c 0,-0.132739 -0.503392,-0.63613 -1.118648,-1.118647 -1.013853,-0.795117 -1.036462,-0.772507 -0.24134,0.241343 0.835061,1.064792 1.359988,1.40341 1.359988,0.877304 z m 9.588409,-2.544278 c 0,-0.812166 -0.295259,-0.449528 -1.227131,1.507167 -0.717629,1.50683 -0.70432,1.527227 0.233024,0.357245 0.546763,-0.682452 0.994107,-1.521438 0.994107,-1.864412 z m 3.063899,1.179937 c 0.103056,-0.08473 -0.319652,-0.348624 -0.939357,-0.586426 -0.619706,-0.237802 -0.924233,-0.229868 -0.676731,0.01763 0.247496,0.2475 -0.0489,0.853877 -0.658711,1.347503 -0.977538,0.791315 -0.919637,0.807457 0.489354,0.136426 0.878938,-0.418593 1.682389,-0.830404 1.785445,-0.915136 z m 7.802964,0.32723 c 1.168488,-0.755133 0.159225,-0.755133 -1.598068,0 -0.842975,0.362239 -0.951848,0.561341 -0.319614,0.584511 0.527363,0.01932 1.39032,-0.243703 1.917682,-0.584511 z m -9.010036,-9.319777 c 2.151287,-4.920707 2.483328,-8.315058 1.076765,-11.007433 -1.094702,-2.095417 -5.131275,-6.07612 -4.504116,-4.441768 0.235868,0.614663 0.141199,1.117569 -0.210376,1.117569 -1.116884,0 -1.451219,-1.943998 -0.403487,-2.346051 1.297823,-0.498022 4.742075,2.851382 6.536738,6.356733 1.309061,2.556865 1.383435,2.604737 1.391828,0.895875 0.0065,-1.327848 -0.946728,-2.807172 -3.604187,-5.593238 -1.987179,-2.083351 -3.785005,-3.77157 -3.995171,-3.751601 -0.210165,0.01997 -1.74229,1.710914 -3.404722,3.757653 -2.907372,3.579469 -4.384728,6.3123 -4.278041,7.91355 0.02774,0.416581 0.353901,-0.105537 0.724762,-1.160262 0.750184,-2.133491 4.93975,-7.602257 5.440438,-7.101568 0.175787,0.175788 -0.77824,1.659401 -2.120062,3.296918 -3.587183,4.377685 -3.542533,7.092054 0.25052,15.229106 l 2.941673,6.310636 1.089448,-2.475273 c 0.599198,-1.3614 1.979795,-4.511781 3.06799,-7.000846 z m -4.413736,4.205959 c 0,-0.351575 0.30463,-0.639227 0.676954,-0.639227 0.372324,0 0.499173,0.287652 0.281886,0.639227 -0.217286,0.351575 -0.521909,0.639227 -0.676954,0.639227 -0.155038,0 -0.281886,-0.287652 -0.281886,-0.639227 z m 0,-3.446937 c 0,-1.309857 0.226158,-2.241785 0.502573,-2.07095 0.597978,0.36957 0.543765,3.406168 -0.0718,4.021734 -0.236923,0.236926 -0.430775,-0.640927 -0.430775,-1.950784 z M 49.155054,32.214891 C 48.920669,31.980508 48.7289,31.491499 48.7289,31.128204 c 0,-0.400542 0.297733,-0.362801 0.756417,0.09588 0.416035,0.416031 0.607803,0.90504 0.426154,1.086687 -0.181649,0.181647 -0.522038,0.138499 -0.756417,-0.09588 z m 5.326892,-0.494964 c 0,-0.506614 0.260824,-1.082316 0.579613,-1.279337 0.318789,-0.197021 0.429068,0.217481 0.24506,0.921116 -0.390318,1.492587 -0.824673,1.681261 -0.824673,0.358221 z m -2.876523,-2.914248 c -0.217286,-0.351575 -0.09044,-0.639227 0.281887,-0.639227 0.372324,0 0.676954,0.287652 0.676954,0.639227 0,0.351575 -0.126848,0.639227 -0.281886,0.639227 -0.155039,0 -0.459669,-0.287652 -0.676955,-0.639227 z m -3.51575,-1.203004 c 0,-0.351575 0.287652,-0.817006 0.639227,-1.034292 0.351575,-0.217285 0.639228,-0.107412 0.639228,0.244163 0,0.351575 -0.287653,0.817006 -0.639228,1.034292 -0.351575,0.217285 -0.639227,0.107412 -0.639227,-0.244163 z M 55.7604,26.530658 c 0,-0.548111 0.292345,-0.815887 0.649653,-0.595058 0.357309,0.22083 0.484164,0.669285 0.281893,0.996566 -0.547971,0.886637 -0.931546,0.721311 -0.931546,-0.401508 z m -6.711886,-3.478025 c 0.217286,-0.351575 0.521916,-0.639227 0.676955,-0.639227 0.155038,0 0.281886,0.287652 0.281886,0.639227 0,0.351575 -0.30463,0.639227 -0.676954,0.639227 -0.372325,0 -0.499173,-0.287652 -0.281887,-0.639227 z m 2.876523,0 c 0,-0.351575 0.30463,-0.639227 0.676954,-0.639227 0.372325,0 0.499173,0.287652 0.281887,0.639227 -0.217286,0.351575 -0.52191,0.639227 -0.676955,0.639227 -0.155038,0 -0.281886,-0.287652 -0.281886,-0.639227 z m 1.968149,-1.012109 c 0.03068,-0.744664 0.182141,-0.896133 0.386195,-0.3862 0.18466,0.461442 0.161948,1.012775 -0.0505,1.225185 -0.212409,0.21241 -0.36349,-0.165134 -0.335735,-0.838985 z M 40.73856,39.672542 c -0.70315,-0.302153 -2.141412,-0.531721 -3.196137,-0.51015 -1.872538,0.0383 -1.865014,0.05031 0.319614,0.51015 3.13805,0.66053 4.41366,0.66053 2.876523,0 z m 17.715461,-0.02723 c 1.305698,-0.362632 2.523375,-0.901016 2.705932,-1.196408 0.284424,-0.460201 -1.7416,0.06899 -5.399553,1.410337 -1.693786,0.621103 0.239966,0.467523 2.693621,-0.213929 z m 6.886728,0.04574 c 0.747237,-0.472447 0.644596,-0.578078 -0.479421,-0.493408 -0.786607,0.05926 -1.4302,0.334172 -1.4302,0.61093 0,0.667031 0.740864,0.621437 1.909621,-0.117522 z m -7.02344,-1.691132 c 0,-0.134783 -0.575304,-0.24506 -1.278454,-0.24506 -0.70315,0 -1.278455,0.260723 -1.278455,0.579383 0,0.318661 0.575305,0.428938 1.278455,0.24506 0.70315,-0.183877 1.278454,-0.4446 1.278454,-0.579383 z m -11.50609,0.137087 c 0,-0.141395 -0.862957,-0.55791 -1.917682,-0.925589 -1.054725,-0.367679 -1.917682,-0.415825 -1.917682,-0.106991 0,0.482697 0.625388,0.706806 3.355943,1.20261 0.263681,0.04788 0.479421,-0.02864 0.479421,-0.17003 z m 0.833936,-1.972188 c -0.584689,-1.226097 -1.176549,-2.115786 -1.315249,-1.977085 -0.292421,0.292421 1.648056,4.206354 2.085453,4.206354 0.161073,0 -0.185522,-1.003171 -0.770204,-2.229269 z m -8.677785,0.564614 c -0.212409,-0.212409 -0.763743,-0.235119 -1.225188,-0.05047 -0.509931,0.204058 -0.35846,0.355528 0.386202,0.3862 0.673848,0.02775 1.051394,-0.123325 0.838986,-0.335735 z m 22.511845,-0.688761 c 1.448355,-0.387391 1.471955,-0.454233 0.319614,-0.905185 -1.078562,-0.422077 -1.095284,-0.492889 -0.125576,-0.531835 0.615256,-0.02471 1.118647,-0.307593 1.118647,-0.628629 0,-0.321036 -0.892642,-0.249123 -1.98365,0.159807 -1.540243,0.57731 -1.71885,0.79849 -0.799034,0.989477 1.112377,0.230971 1.106656,0.276956 -0.09384,0.754106 -1.574787,0.625918 -0.562392,0.730959 1.563839,0.162259 z M 45.532764,35.118048 c 0,-0.514543 -3.935697,-1.311292 -4.363615,-0.883376 -0.178229,0.178228 0.172343,0.324052 0.779052,0.324052 0.60671,0 0.969772,0.215739 0.806807,0.479421 -0.162964,0.263681 0.395363,0.47942 1.240728,0.47942 0.845365,0 1.537028,-0.179783 1.537028,-0.399517 z m 12.463423,-3.235866 c 0.879769,-1.823674 1.579064,-4.052979 1.553987,-4.954011 -0.03075,-1.103977 -0.464545,-0.387449 -1.33027,2.197121 -0.70657,2.10945 -1.549014,4.108634 -1.872092,4.44263 -0.323078,0.333996 -0.587412,0.837388 -0.587412,1.118648 0,1.220409 0.744898,0.286069 2.235787,-2.804388 z m 2.878031,1.398088 c 1.168489,-0.755134 0.159226,-0.755134 -1.598068,0 -0.842974,0.362238 -0.951841,0.56134 -0.319613,0.58451 0.527362,0.01932 1.390319,-0.243703 1.917681,-0.58451 z M 41.6974,32.641042 c -1.251843,-0.809004 -2.098058,-0.809004 -1.598068,0 0.217286,0.351575 0.881482,0.634823 1.475989,0.629439 0.931527,-0.0084 0.948402,-0.09543 0.122079,-0.629439 z m 3.887154,-1.181683 c -0.380059,-0.710148 -0.730189,-2.101133 -0.778067,-3.091077 -0.07727,-1.597595 -0.119082,-1.631421 -0.372024,-0.300946 -0.279118,1.46813 0.99311,5.531204 1.555745,4.968564 0.156949,-0.156949 -0.02557,-0.866393 -0.405654,-1.576541 z m -1.330244,0.610846 c 0,-0.727763 -1.622378,-1.355163 -3.408226,-1.318013 -1.180129,0.02455 -1.101152,0.15925 0.531703,0.906924 2.342717,1.072711 2.876523,1.148998 2.876523,0.411089 z m 18.213451,-1.97875 c 0.223947,-0.362352 -0.03267,-0.469517 -0.6015,-0.251223 -1.10741,0.424952 -1.310026,0.883129 -0.390542,0.883129 0.330825,0 0.777249,-0.284358 0.992042,-0.631906 z M 42.802733,27.780252 c -0.212409,-0.21241 -0.763742,-0.23512 -1.225188,-0.05047 -0.50993,0.204057 -0.358459,0.355527 0.386202,0.3862 0.673848,0.02775 1.051395,-0.123325 0.838986,-0.335735 z"
     style="fill:#000000;stroke-width:0.63922727" />
</svg>
