<?xml version="1.0" encoding="UTF-8" standalone="no"?>
<svg
   xmlns:dc="http://purl.org/dc/elements/1.1/"
   xmlns:cc="http://creativecommons.org/ns#"
   xmlns:rdf="http://www.w3.org/1999/02/22-rdf-syntax-ns#"
   xmlns:svg="http://www.w3.org/2000/svg"
   xmlns="http://www.w3.org/2000/svg"
   id="svgGSW6"
   version="1.1"
   viewBox="0 0 100 100"
   height="100"
   width="100">
  <defs
     id="defs2" />
  <metadata
     id="metadata5">
    <rdf:RDF>
      <cc:Work
         rdf:about="">
        <dc:format>image/svg+xml</dc:format>
        <dc:type
           rdf:resource="http://purl.org/dc/dcmitype/StillImage" />
        <dc:title></dc:title>
      </cc:Work>
    </rdf:RDF>
  </metadata>
  <path
     id="pathGSW6"
     d="m 57.959379,71.806511 c -1.3684,-0.653915 -2.845111,-1.520728 -3.281579,-1.926251 -0.487263,-0.452717 -0.793577,-0.530144 -0.793577,-0.200598 0,0.679835 -1.649693,2.395478 -2.303393,2.395478 -0.271081,0 0.03444,-0.643375 0.678948,-1.429728 2.783015,-3.395553 -0.156299,-7.711221 -3.898748,-5.724361 -1.483695,0.787693 -2.219996,2.070345 -2.272284,3.958378 -0.04685,1.69173 0.856235,2.699698 2.879621,3.214053 l 1.521118,0.386679 -1.804538,-0.08634 c -1.45881,-0.06979 -1.974407,-0.353454 -2.691172,-1.480546 l -0.886633,-1.394206 -2.090664,1.062226 c -1.453831,0.738665 -3.253707,1.143481 -5.908831,1.328987 -3.395209,0.237206 -4.164759,0.131582 -6.946969,-0.953516 C 26.826733,69.656483 23.079317,67.02389 22.222393,65.380049 21.93612,64.830891 21.119746,64.117028 20.408229,63.793689 18.359559,62.862696 14.958376,59.547265 13.266585,56.832103 12.41247,55.461331 11.82702,54.223397 11.965585,54.08114 12.10415,53.938883 11.242106,52.726794 10.049933,51.387611 7.40962,48.421711 5,43.443415 5,40.954401 v -1.803405 l 2.557988,2.753239 c 2.72665,2.934774 4.938671,4.409762 8.690417,5.794819 1.769068,0.653097 2.458941,0.730849 2.857166,0.322012 0.398225,-0.408835 0.9143,-0.188041 2.137365,0.914437 1.442788,1.300537 7.767198,4.685643 8.10544,4.338391 0.07421,-0.07619 -0.439713,-1.157137 -1.142048,-2.402113 -0.702331,-1.244976 -2.073212,-4.119427 -3.046393,-6.387669 -1.682595,-3.921696 -3.486348,-6.421392 -5.435267,-7.532354 -0.791776,-0.451345 -0.673536,-0.575804 1.135226,-1.194942 3.459939,-1.184333 6.773076,0.266729 6.929234,3.034812 0.05802,1.02856 0.281007,1.219423 1.426668,1.221165 0.746842,0.0011 2.012088,0.411575 2.811658,0.912088 l 1.453767,0.910022 0.298012,-1.630885 c 0.53798,-2.944078 -0.385384,-6.288411 -2.666019,-9.656081 l -0.901601,-1.331337 1.086302,0.316937 c 2.161466,0.630622 3.575777,1.305022 3.575777,1.705075 0,0.224574 0.195311,0.408315 0.43402,0.408315 0.238709,0 0.795726,-1.045556 1.237821,-2.323459 0.44209,-1.277904 0.951825,-2.323461 1.132747,-2.323461 0.180917,0 0.550536,0.888723 0.821368,1.974941 0.841325,3.374247 0.689335,3.274665 3.03848,1.990797 2.962297,-1.618969 3.591306,-1.516472 2.198495,0.358247 -1.338558,1.801703 -2.754965,5.041345 -3.137923,7.177144 -0.251283,1.401417 -0.181912,1.510706 0.962626,1.516594 0.678381,0.0035 1.665377,0.125364 2.193316,0.270831 0.789327,0.217488 1.131168,-0.09873 1.923726,-1.779567 1.671229,-3.544288 6.221432,-5.15131 9.562831,-3.377365 1.397446,0.741903 3.621973,3.428347 3.621973,4.374067 0,0.354245 0.336373,0.458712 0.892992,0.27734 1.147752,-0.373988 4.982932,1.344821 5.978686,2.679459 1.032258,1.383572 1.410215,0.819998 1.640315,-2.445866 0.156551,-2.221965 0.0069,-3.090137 -0.763911,-4.431356 -1.073833,-1.868506 -1.130249,-2.079577 -0.555823,-2.079577 0.535843,0 2.299057,3.892924 2.365512,5.222721 0.03979,0.795801 0.102969,0.852004 0.260571,0.231721 0.114439,-0.450395 0.407147,-0.692585 0.650463,-0.538198 0.243322,0.154386 0.838958,-0.188718 1.32364,-0.762451 0.484683,-0.573734 0.881243,-0.896211 0.881243,-0.716615 0,0.179596 0.326257,0.139092 0.725012,-0.09001 0.556705,-0.31985 2.340463,-4.458919 2.428631,-5.635459 0.0081,-0.108447 -0.496614,0.296053 -1.121644,0.898886 -0.694138,0.669485 -0.950753,1.213869 -0.659357,1.398761 0.304195,0.193013 0.147395,0.709218 -0.43273,1.424573 -0.500389,0.617032 -0.91657,0.860487 -0.924853,0.541011 -0.0083,-0.319476 0.188625,-0.580865 0.437572,-0.580865 0.248948,0 0.452632,-0.307104 0.452632,-0.682454 0,-0.37535 -0.254605,-0.587308 -0.56579,-0.471019 -0.31982,0.119516 -1.153079,-0.805259 -1.9167,-2.127206 -1.33673,-2.314092 -1.940509,-2.393666 -1.400452,-0.18457 0.153524,0.627984 0.592803,1.141789 0.976173,1.141789 0.38337,0 0.569098,0.212522 0.412732,0.472272 -0.156366,0.25975 -0.473914,0.351964 -0.705662,0.204921 -0.231743,-0.147043 -0.421355,0.05866 -0.421355,0.457112 0,0.907732 -0.214588,0.906018 -1.580232,-0.01263 -0.602661,-0.405401 -1.281169,-0.619443 -1.507793,-0.47565 -0.226624,0.143794 -0.776359,-0.151849 -1.221635,-0.656983 -0.989666,-1.122705 -0.259114,-1.205135 1.658411,-0.187125 0.757615,0.402217 1.488534,0.617292 1.624264,0.477945 0.135731,-0.139348 0.04427,-1.304879 -0.203249,-2.590072 -0.247522,-1.285191 -0.313769,-2.336711 -0.147214,-2.336711 0.421327,0 2.454979,2.291879 3.423117,3.85778 l 0.804961,1.301974 1.425183,-1.418147 c 2.309789,-2.298387 3.077031,-1.843169 1.874307,1.112054 -0.739333,1.816624 -1.384216,8.622409 -0.817018,8.622409 0.209962,0 0.969369,-0.629694 1.687583,-1.399319 1.271293,-1.362303 5.801317,-3.250235 6.37806,-2.658122 0.155878,0.160029 -0.14687,0.85255 -0.672769,1.538938 -0.915841,1.195321 -3.22071,7.853361 -3.22071,9.303602 0,0.38287 -0.317883,1.327223 -0.706404,2.098563 -0.668012,1.326211 -0.661861,1.37779 0.113158,0.948976 0.450758,-0.249402 1.313356,-0.995439 1.916882,-1.657859 1.310509,-1.438385 1.844786,-1.524132 1.844786,-0.296071 0,1.112164 2.308761,1.675043 5.034863,1.227507 2.341156,-0.384341 6.922987,-2.754667 7.794777,-4.032484 0.63639,-0.93278 0.67397,-0.862264 0.6756,1.267675 0.003,3.511044 -2.0965,7.148429 -5.453804,9.450084 -3.676347,2.520383 -5.583226,2.784082 -11.446174,1.582878 l -1.357895,-0.278206 1.13158,0.861933 c 1.787198,1.361323 7.749774,1.19985 10.292306,-0.278726 1.055243,-0.613663 2.005149,-1.026281 2.110907,-0.91693 0.48477,0.50125 -4.441539,6.085842 -6.164523,6.988263 -3.044183,1.594409 -6.686932,2.736745 -8.727088,2.736745 -2.700464,0 -6.029964,-1.139896 -7.47179,-2.558059 -0.925279,-0.910092 -1.297383,-1.056128 -1.47567,-0.579138 -0.147155,0.393704 0.495944,1.114782 1.680268,1.884006 2.225957,1.445768 6.291278,2.159934 9.274401,1.62926 1.104553,-0.196493 2.104339,-0.258643 2.221743,-0.138113 0.261436,0.268403 -5.685072,3.102927 -8.659007,4.127499 -1.370678,0.472216 -3.697132,0.744488 -6.336844,0.741615 -3.5187,-0.0037 -4.560134,-0.190481 -6.659028,-1.193473 z m 11.777523,0.03346 c 1.446891,-0.384918 3.513137,-1.102035 4.591654,-1.593596 l 1.960937,-0.893747 -1.615217,-0.03281 c -2.327269,-0.0473 -6.371158,-1.361329 -7.507788,-2.439599 l -0.975634,-0.925543 -0.324573,1.049885 c -0.232092,0.75074 -0.09067,1.22548 0.496355,1.666156 0.779378,0.585085 1.515805,0.728071 4.37957,0.850355 1.464227,0.06252 1.873773,0.773693 0.568338,0.986903 -7.558687,1.234506 -8.235136,1.2534 -10.252154,0.286311 -1.801736,-0.863862 -5.816272,-1.78004 -5.816272,-1.327355 0,0.382539 3.756259,2.188173 5.364166,2.578557 2.618031,0.635625 6.278545,0.553239 9.130618,-0.2055 z m -27.847418,-1.598178 1.810527,-0.879582 -2.036843,-0.09264 c -1.120264,-0.05095 -2.240527,-0.03596 -2.489475,0.03327 -2.761886,0.768395 -7.616886,0.434979 -10.297371,-0.707174 -1.391675,-0.592991 -0.852265,-1.16636 1.131579,-1.202818 2.100515,-0.0386 4.959169,-0.935955 5.170584,-1.623083 0.07322,-0.237974 -0.04619,-0.723702 -0.26535,-1.0794 -0.329625,-0.534982 -0.621618,-0.483878 -1.69001,0.295784 -1.705525,1.24461 -4.12576,1.896882 -6.655071,1.793591 -1.688791,-0.06897 -1.9651,0.02913 -1.545203,0.548548 0.581184,0.718941 3.366666,2.241076 5.752406,3.143419 2.533036,0.958047 8.941807,0.82547 11.114227,-0.229924 z m 25.800006,-0.02542 c 0.894654,-0.39469 0.894342,-0.399755 -0.02666,-0.432032 -0.512551,-0.01799 -1.308803,-0.315592 -1.76945,-0.661402 -0.627801,-0.471295 -1.187864,-0.511835 -2.236512,-0.161894 -0.769434,0.256766 -1.698791,0.550948 -2.065232,0.653738 -0.586597,0.164547 -0.586597,0.23862 0,0.619472 0.824229,0.53513 4.871222,0.523262 6.097854,-0.01789 z M 37.907108,68.822295 c 0.384012,0 0.07506,-0.502805 -0.743425,-1.209863 -1.328465,-1.14761 -1.45752,-1.17152 -2.508281,-0.464691 -0.609265,0.409843 -1.51027,0.745169 -2.00223,0.745169 -0.491961,0 -1.012601,0.196227 -1.156981,0.436059 -0.299873,0.498136 2.509969,0.916619 4.452502,0.663134 0.715723,-0.09339 1.597011,-0.169808 1.958415,-0.169808 z m 7.436647,-1.313468 c 0.275313,-0.764067 0.196148,-1.103366 -0.29402,-1.260143 -2.304062,-0.736936 -2.263814,-0.707028 -1.563353,-1.161809 0.553382,-0.359292 0.526586,-0.433784 -0.158177,-0.439693 -0.453437,-0.0039 -1.148444,-0.33976 -1.544461,-0.746326 -0.583225,-0.598767 -0.606141,-0.811466 -0.120608,-1.119538 0.433015,-0.274748 0.296325,-0.438975 -0.492382,-0.591584 -0.979757,-0.189577 -0.95245,-0.223698 0.266098,-0.332511 0.992793,-0.08865 0.711007,-0.21796 -1.048028,-0.48092 -2.726803,-0.407632 -3.293163,-0.758576 -2.333602,-1.446011 0.507129,-0.363311 0.393351,-0.416797 -0.477345,-0.224392 -0.852464,0.188375 -1.508087,-0.0975 -2.578082,-1.124145 -0.789195,-0.757219 -1.585324,-1.376762 -1.769174,-1.376762 -0.18385,0 -1.21332,-0.418223 -2.287705,-0.929384 -1.074389,-0.511162 -2.920936,-1.385201 -4.103437,-1.942309 -1.1825,-0.557109 -2.956622,-1.528475 -3.942491,-2.158593 l -1.792492,-1.145667 0.833975,1.345382 c 1.415984,2.284287 2.584209,3.37607 3.939429,3.681658 1.053228,0.237491 1.301053,0.539947 1.301053,1.58786 0,2.675069 3.413898,4.983572 6.444371,4.357733 0.946983,-0.195566 1.300592,-0.05166 1.499904,0.610383 1.315198,4.368681 3.983797,6.309042 8.305018,6.038657 1.133905,-0.07095 1.637883,-0.371387 1.915509,-1.141886 z m -2.473568,0.07429 c -0.165966,-0.170387 -0.301756,-0.525876 -0.301756,-0.789976 0,-0.291178 0.210823,-0.263742 0.535613,0.06971 0.294591,0.302437 0.43038,0.657926 0.301756,0.789976 -0.128624,0.132051 -0.369651,0.100684 -0.535613,-0.06971 z m -2.358071,-1.840165 c -0.736133,-0.650712 -1.642252,-1.358488 -2.0136,-1.572837 -0.371348,-0.214349 -0.537509,-0.53106 -0.369252,-0.703802 0.168261,-0.172743 0.573932,-0.08981 0.901493,0.184285 2.032208,1.700526 3.20007,2.885042 3.023358,3.066465 -0.111968,0.114951 -0.805866,-0.3234 -1.541999,-0.974111 z m -4.916721,-3.65926 c -0.723323,-0.638639 -1.501691,-1.161163 -1.7297,-1.161163 -0.510904,0 -1.884713,-1.367338 -1.633222,-1.625531 0.251414,-0.258113 5.34348,3.168152 5.350971,3.600473 0.011,0.634993 -0.656737,0.361664 -1.988049,-0.813779 z m -5.134862,-3.25034 c -0.840347,-0.979903 -0.686022,-1.24863 0.339474,-0.591133 0.497895,0.319226 0.905263,0.739221 0.905263,0.933323 0,0.553342 -0.623812,0.381851 -1.244737,-0.34219 z m 34.056787,8.790082 c 0.750916,-0.714471 1.135327,-1.577851 1.135327,-2.549932 0,-1.46088 -0.0068,-1.465136 -1.131579,-0.708514 -0.622368,0.418657 -1.131579,0.626214 -1.131579,0.461237 0,-0.164976 -0.305526,-0.03964 -0.678948,0.278533 -0.373421,0.318169 -0.677657,0.396052 -0.676087,0.173072 0.0032,-0.458413 2.531991,-2.03184 3.265503,-2.03184 0.263563,0 0.771384,-0.365946 1.128492,-0.813212 0.604612,-0.757264 0.635097,-0.744351 0.443118,0.187703 -0.164849,0.800339 0.03793,1.037692 1.011876,1.184446 3.074433,0.463254 6.445204,-2.73799 4.733432,-4.495372 -0.620974,-0.63752 -0.616253,-0.710485 0.04595,-0.710485 0.405893,0 0.612107,-0.209113 0.458249,-0.464693 -0.153859,-0.255581 -0.04223,-0.464692 0.248028,-0.464692 0.299366,0 0.406658,0.324034 0.247911,0.748733 -0.230747,0.617343 -0.06053,0.693366 0.969999,0.433222 2.121091,-0.535445 3.052575,-1.438629 4.642856,-4.501803 1.453993,-2.80066 1.476009,-2.911165 0.427832,-2.147325 -1.512392,1.102125 -6.40415,3.608404 -7.042886,3.608404 -0.285855,0 -0.631625,0.439264 -0.768378,0.976141 -0.136912,0.537502 -0.465727,0.838398 -0.731738,0.669612 -0.265704,-0.168589 -0.483099,-0.0627 -0.483099,0.235308 0,0.298009 -0.292368,0.426652 -0.649703,0.285876 -0.357339,-0.140777 -0.723523,-0.0286 -0.813741,0.249265 -0.116634,0.359228 -0.443484,0.351685 -1.131068,-0.02611 -0.531865,-0.292231 -1.336866,-0.51482 -1.788891,-0.494642 -0.554139,0.02473 -0.416389,0.188723 0.422876,0.503416 0.684605,0.256702 1.244737,0.680789 1.244737,0.942415 0,0.261626 -0.316104,0.351152 -0.702457,0.198944 -0.455411,-0.179413 -0.589702,-0.08944 -0.381854,0.255829 0.217014,0.360487 0.01227,0.449782 -0.633734,0.276354 -0.524885,-0.140918 -1.024763,-0.03932 -1.110835,0.225782 -0.105251,0.32416 -0.473168,0.308006 -1.123527,-0.04933 -0.531865,-0.29223 -1.336866,-0.512468 -1.788891,-0.489418 -0.452025,0.02305 -0.159888,0.23814 0.649191,0.477978 0.809079,0.239838 1.471053,0.661574 1.471053,0.937191 0,0.275618 -0.305526,0.374195 -0.678947,0.21906 -0.373421,-0.155135 -1.035395,-0.402407 -1.471053,-0.549496 -0.754388,-0.254698 -0.754388,-0.242534 0,0.255437 0.788525,0.520505 1.099352,1.451558 0.452631,1.355815 -0.775145,-0.114755 -2.347456,0.651636 -2.118198,1.032472 0.136369,0.226525 0.02023,0.411862 -0.258118,0.411862 -0.278332,0 -0.380174,0.209112 -0.226316,0.464693 0.153859,0.255581 0.06404,0.464692 -0.199601,0.464692 -0.26364,0 -0.886715,0.418222 -1.38461,0.929384 -0.497895,0.511161 -1.420865,0.929384 -2.051046,0.929384 -1.305612,0 -2.021132,1.275638 -1.070175,1.907908 0.347462,0.231017 2.310454,0.39233 4.362211,0.358473 3.229287,-0.05329 3.882987,-0.206681 4.86579,-1.141781 z m -7.238359,-0.195216 c 0.153858,-0.25558 0.369565,-0.464692 0.479346,-0.464692 0.109781,0 0.199601,0.209112 0.199601,0.464692 0,0.25558 -0.215706,0.464692 -0.479346,0.464692 -0.263639,0 -0.35346,-0.209112 -0.199601,-0.464692 z m 1.131579,-0.492117 c 0,-0.270664 0.203684,-0.362879 0.452632,-0.204921 0.248947,0.157958 0.452632,0.37941 0.452632,0.492117 0,0.112707 -0.203685,0.204921 -0.452632,0.204921 -0.248948,0 -0.452632,-0.221452 -0.452632,-0.492117 z m 1.357895,-0.321549 c 0,-0.196267 0.407369,-0.618034 0.905264,-0.937259 0.497895,-0.319226 0.905263,-0.419828 0.905263,-0.223562 0,0.196268 -0.407368,0.618036 -0.905263,0.937261 -0.497895,0.319224 -0.905264,0.419827 -0.905264,0.22356 z m 7.694739,-4.468541 c 0,-0.357377 3.715165,-2.675835 3.931668,-2.453567 0.125148,0.128487 -0.602385,0.771485 -1.616751,1.428887 -1.775425,1.150639 -2.314917,1.389442 -2.314917,1.02468 z m 6.789476,-4.941019 c 0,-0.25558 0.218232,-0.464691 0.484963,-0.464691 0.266727,0 0.79049,-0.313668 1.163911,-0.697038 0.373421,-0.383371 0.899764,-0.697038 1.16965,-0.697038 0.269886,0 -0.101109,0.522522 -0.824437,1.161162 -1.404448,1.240014 -1.994087,1.446292 -1.994087,0.697605 z m 6.56316,8.787487 c 2.337951,-1.049306 5.998089,-3.662829 6.725229,-4.802156 l 0.696881,-1.091911 -2.126844,0.676621 c -2.457465,0.781804 -6.2313,0.515479 -8.306408,-0.586194 -1.601356,-0.850158 -3.6348,-0.709581 -3.891044,0.268998 -0.162246,0.619589 -0.129172,0.619589 0.297637,0 0.400602,-0.58155 0.481306,-0.532152 0.487091,0.298143 0.0091,1.299202 1.234802,1.596232 5.596859,1.356254 1.898423,-0.10444 3.568019,0.0034 3.710217,0.239585 0.142199,0.236213 -0.0081,0.430767 -0.333956,0.432342 -0.325877,0.0015 -1.102783,0.276288 -1.726459,0.610475 -0.623677,0.334187 -2.615261,1.002049 -4.425738,1.484139 -2.800197,0.745629 -3.595046,0.793253 -5.322542,0.318909 -1.116918,-0.306691 -2.486125,-0.552968 -3.042685,-0.547285 -1.007142,0.01029 -1.006576,0.01458 0.119653,0.908571 0.622369,0.494032 1.538948,0.996821 2.036843,1.11731 1.654803,0.400455 8.126821,-0.06514 9.505266,-0.683801 z M 31.1993,65.101446 c 0.778418,-0.473514 0.02363,-0.38426 -4.020347,0.475391 -1.954622,0.415508 -1.92937,0.423643 0.62561,0.201524 1.464345,-0.127304 2.991977,-0.431916 3.394737,-0.676915 z m 14.77871,-0.896602 c -0.378043,-0.750535 -0.892834,-1.49499 -1.143981,-1.654342 -0.251148,-0.159354 -0.02879,0.45472 0.49412,1.364608 1.146402,1.99478 1.613613,2.20308 0.649861,0.289734 z m 11.203368,-2.578351 c 0.551568,-0.593865 1.715741,-1.517198 2.587057,-2.051851 0.871316,-0.534653 1.256443,-0.972877 0.855832,-0.973833 -0.973317,-0.0024 -4.791084,3.487116 -5.623641,5.140006 -0.980799,1.947193 -0.802643,2.300533 0.25876,0.513208 0.505531,-0.851277 1.370429,-2.033666 1.921992,-2.62753 z m -25.116872,1.838931 1.224975,-0.718376 -1.810527,0.253665 c -6.037482,0.845889 -6.159964,0.832702 -9.479658,-1.020633 -3.643418,-2.034066 -4.407844,-3.134763 -1.891988,-2.724276 2.052363,0.334863 6.166382,-0.542349 6.166382,-1.314828 0,-1.032499 -0.494591,-1.13525 -2.116212,-0.43964 -2.123804,0.911026 -6.553945,0.897002 -8.357016,-0.02646 -1.946674,-0.997005 -1.966416,-0.966787 -0.584026,0.893911 1.440423,1.938812 4.697248,4.426424 7.209885,5.507021 2.192642,0.942979 7.73266,0.707087 9.638185,-0.410389 z m 47.393409,0.09421 1.810526,-0.660611 -2.525838,-0.04039 c -1.389209,-0.02222 -3.066024,-0.251242 -3.726246,-0.508947 -1.003969,-0.391877 -1.385686,-0.29227 -2.332592,0.608674 -0.622699,0.592476 -0.982731,1.235933 -0.800072,1.429905 0.470239,0.499356 5.418201,-0.04196 7.574222,-0.828629 z m -30.959434,-5.425263 0.248639,2.091115 0.07908,-2.439633 c 0.0435,-1.341798 0.266582,-2.439634 0.495745,-2.439634 0.229167,0 0.55088,-0.627334 0.714914,-1.394076 0.322807,-1.508893 1.131579,-1.914342 1.131579,-0.567277 0,0.454739 0.407368,1.128237 0.905263,1.496661 0.497895,0.368425 0.905264,0.841554 0.905264,1.0514 0,0.209845 0.412365,0.835952 0.916366,1.391348 0.504001,0.555396 0.811858,1.289403 0.68413,1.631127 -0.141972,0.379837 -0.03164,0.494041 0.283882,0.293842 0.283863,-0.180112 0.746625,-0.0038 1.028366,0.391739 0.44595,0.626123 0.626007,0.63382 1.391086,0.05947 0.858846,-0.644736 0.853093,-0.683263 -0.252921,-1.693778 -1.307201,-1.194328 -2.864992,-3.568181 -2.552241,-3.889261 0.117204,-0.12033 0.683949,0.472869 1.259429,1.318222 1.46879,2.157585 2.640486,3.147256 3.380815,2.855596 0.456918,-0.180006 0.01281,-0.983157 -1.589851,-2.875298 -1.223128,-1.444038 -3.226367,-4.468335 -4.451641,-6.720661 L 50.848608,44.600136 49.684539,47.1242 c -1.278345,2.771849 -4.589178,7.199758 -7.025323,9.395673 -1.405191,1.266623 -1.487004,1.468041 -0.825297,2.03184 0.482786,0.411354 0.734517,0.447081 0.734517,0.104248 0,-0.286875 0.228625,-0.521592 0.508057,-0.521592 0.365264,0 0.359086,0.184275 -0.022,0.655668 -0.362336,0.448221 -0.379871,0.750947 -0.05542,0.956808 0.261037,0.165629 0.482768,0.02741 0.492735,-0.307147 0.01,-0.33456 0.321997,-0.03323 0.693399,0.669613 0.789603,1.494238 1.307164,1.68061 0.967853,0.348519 -0.130204,-0.511161 -0.05212,-0.929384 0.173526,-0.929384 0.225641,0 0.443457,0.784168 0.484035,1.742595 0.05975,1.411291 0.124288,1.263542 0.339474,-0.77713 0.414719,-3.933014 1.379653,-3.603697 1.482808,0.506059 l 0.08553,3.407742 0.265699,-4.182228 c 0.222645,-3.504565 0.305984,-3.843396 0.514334,-2.091115 z m -3.752915,-1.910508 c 0.824007,-0.792833 1.587968,-1.349345 1.6977,-1.236691 0.237898,0.244238 -2.357967,2.683454 -2.852494,2.680357 -0.188865,-0.0011 0.330792,-0.650832 1.154794,-1.443666 z m 2.617121,-2.968758 c 0.40779,-0.638951 0.931204,-1.16173 1.163142,-1.16173 0.497985,0 -1.042294,2.287474 -1.554673,2.308857 -0.19245,0.008 -0.01625,-0.508175 0.391531,-1.147127 z m 5.457802,-1.16173 c -0.880075,-1.811157 -0.300932,-1.808737 0.703208,0.003 0.42408,0.765136 0.591762,1.391148 0.372625,1.391148 -0.219133,0 -0.703263,-0.627333 -1.075833,-1.394076 z m -3.900821,-1.018132 c -0.0079,-0.432183 0.202842,-0.923623 0.468352,-1.09209 0.797799,-0.506204 0.909654,0.02743 0.20592,0.982415 -0.579355,0.786196 -0.66163,0.799579 -0.674272,0.109675 z m 0.89087,-2.186144 c 0,-0.627768 0.520924,-0.92188 1.175833,-0.663872 0.921802,0.363155 0.777454,0.871178 -0.27057,0.952228 -0.497895,0.03851 -0.905263,-0.09126 -0.905263,-0.288356 z M 48.76184,62.69417 c -0.144489,-0.370699 -0.251745,-0.260588 -0.273462,0.280752 -0.01964,0.489862 0.08732,0.764322 0.237731,0.609908 0.150405,-0.154413 0.166483,-0.555209 0.03571,-0.89066 z m 9.978746,0.735763 c -0.15041,-0.154414 -0.540805,-0.170922 -0.867546,-0.03669 -0.361078,0.148342 -0.253827,0.258454 0.273466,0.280752 0.477147,0.02017 0.744485,-0.08966 0.59408,-0.244066 z m -14.814261,-0.36657 c 0,-0.100447 -0.305525,-0.302995 -0.678946,-0.450108 -0.373421,-0.147113 -0.678948,-0.06493 -0.678948,0.182629 0,0.247559 0.305527,0.450108 0.678948,0.450108 0.373421,0 0.678946,-0.08218 0.678946,-0.182629 z m 8.003937,-0.833885 c -0.144489,-0.3707 -0.251745,-0.260588 -0.273462,0.280752 -0.01964,0.489862 0.08732,0.764321 0.237731,0.609909 0.150405,-0.154414 0.166482,-0.555211 0.03571,-0.890661 z m -22.48815,0.08713 c 0,-0.255581 -0.201353,-0.464692 -0.447458,-0.464692 -0.666695,0 -2.268332,-1.518713 -2.268332,-2.150892 0,-0.391369 -0.424795,-0.437162 -1.471054,-0.158579 -0.809079,0.21543 -2.183947,0.574664 -3.055263,0.798298 l -1.584211,0.406608 2.489474,0.992761 c 2.600265,1.036945 6.336844,1.37688 6.336844,0.576496 z m 25.20394,-0.551821 c -0.144489,-0.370701 -0.251745,-0.260588 -0.273462,0.280751 -0.01964,0.489863 0.08732,0.764321 0.237731,0.609908 0.150405,-0.154413 0.166483,-0.55521 0.03571,-0.890659 z m 4.782909,0.708756 c -0.311184,-0.12891 -0.820394,-0.12891 -1.131579,0 -0.311184,0.128912 -0.05658,0.234384 0.56579,0.234384 0.622368,0 0.876974,-0.105472 0.565789,-0.234384 z m -8.846356,-3.06126 c -0.107885,-0.575056 -0.196157,-0.104556 -0.196157,1.045557 0,1.150112 0.08827,1.620613 0.196157,1.045557 0.107889,-0.575056 0.107889,-1.516058 0,-2.091114 z m -7.736113,1.101004 c -1.321924,-1.416556 -4.721854,-3.460255 -6.614905,-3.976222 -0.622368,-0.169632 0.09053,0.319037 1.584211,1.08593 1.493685,0.766895 3.428686,2.023632 4.300002,2.792752 2.014106,1.777871 2.339276,1.821279 0.730692,0.09754 z m 17.70462,0.593185 c -0.150409,-0.154412 -0.540804,-0.170922 -0.867545,-0.03669 -0.361078,0.148342 -0.253827,0.258454 0.273466,0.280751 0.477147,0.02017 0.744484,-0.08966 0.594079,-0.244065 z m -6.810323,-1.665145 c -0.144489,-0.3707 -0.251745,-0.260588 -0.273462,0.280751 -0.01964,0.489863 0.08732,0.764322 0.237731,0.609909 0.150405,-0.154414 0.166482,-0.55521 0.03571,-0.89066 z m -4.063447,-2.817196 c -0.107885,-0.575055 -0.196157,-0.104555 -0.196157,1.045558 0,1.150112 0.08827,1.620613 0.196157,1.045557 0.107889,-0.575057 0.107889,-1.516058 0,-2.091115 z m 3.148755,1.394076 c -0.125565,-0.319475 -0.228303,-0.05809 -0.228303,0.580866 0,0.638952 0.102738,0.900341 0.228303,0.580865 0.125564,-0.319476 0.125564,-0.842254 0,-1.161731 z m 12.82655,0.580866 c -0.373421,-0.247753 -0.882631,-0.45046 -1.131579,-0.45046 -0.248947,0 -0.147105,0.202707 0.226316,0.45046 0.373421,0.247753 0.882632,0.450461 1.131579,0.450461 0.248948,0 0.147106,-0.202708 -0.226316,-0.450461 z m 23.342372,-1.87897 c 2.136878,-1.355849 4.034388,-3.734855 4.956848,-6.214648 0.43995,-1.18268 0.70618,-2.246551 0.59162,-2.364157 -0.11455,-0.117607 -1.62067,0.566669 -3.34692,1.52061 -2.890563,1.597343 -3.417435,1.731184 -6.665665,1.693276 -2.991067,-0.03491 -3.50632,0.07101 -3.390832,0.697038 0.21123,1.145017 3.597925,1.178848 7.03793,0.0703 1.635304,-0.526977 3.073787,-0.854953 3.196627,-0.728836 0.42215,0.433401 -1.508745,2.195557 -3.597269,3.282906 -1.247983,0.649737 -3.346691,1.21039 -5.205265,1.390542 -5.002214,0.48487 -5.564487,1.867649 -1.010962,2.486223 2.624146,0.356478 4.846545,-0.191584 7.433888,-1.833258 z m -26.058162,1.414276 c 0.585113,-0.388203 0.573163,-0.451443 -0.08644,-0.457575 -0.420966,-0.0039 -0.891277,0.201995 -1.045136,0.457575 -0.35404,0.588114 0.245159,0.588114 1.131579,0 z M 21.109855,57.085014 c 0.114601,-0.117656 -0.962289,-0.355172 -2.393089,-0.527815 -1.523995,-0.183888 -3.450418,-0.822295 -4.651215,-1.541391 -1.239688,-0.742384 -1.811452,-0.928551 -1.446759,-0.471066 1.121532,1.406897 5.175899,3.174883 6.781954,2.957406 0.825409,-0.111769 1.594508,-0.29948 1.709109,-0.417134 z m 39.695202,-0.343888 c -0.316,-1.240596 0.985316,-3.212368 2.004221,-3.036821 0.443589,0.07642 0.750559,0.388112 0.682153,0.692634 -0.0684,0.304522 0.07546,0.426882 0.319707,0.271909 0.244245,-0.154972 0.329339,-0.588739 0.189105,-0.963924 -0.140239,-0.375187 -0.02951,-0.682157 0.246082,-0.682157 0.275585,0 0.525157,0.470501 0.55461,1.045557 0.0416,0.812412 0.118087,0.735963 0.342963,-0.342845 0.326502,-1.566347 1.83344,-2.236099 1.91915,-0.852958 0.04771,0.769908 0.07284,0.765411 0.275132,-0.04924 0.283574,-1.141962 1.279477,-2.177912 1.689271,-1.757201 0.172779,0.177386 0.512674,-0.04168 0.75532,-0.48682 0.675223,-1.238701 1.22484,-0.968676 1.426655,0.700909 0.155968,1.290268 0.193111,1.218587 0.254994,-0.492117 0.03983,-1.101301 0.23904,-1.896659 0.442661,-1.767461 0.203621,0.129198 0.902918,-0.272205 1.553998,-0.892006 l 1.183781,-1.12691 0.194885,1.035603 c 0.158598,0.842768 0.206364,0.788393 0.256529,-0.292017 0.04529,-0.975599 0.241665,-1.256696 0.740587,-1.060141 0.448707,0.176774 0.678947,-0.01648 0.678947,-0.569872 0,-0.879631 1.343104,-1.205074 1.378146,-0.333935 0.01114,0.276879 0.500371,-1.01878 1.087185,-2.879242 0.586815,-1.860462 1.315534,-3.690187 1.619381,-4.066055 0.721001,-0.891902 0.502806,-0.864486 -1.936571,0.243317 -1.122341,0.509693 -2.356985,1.422418 -2.743659,2.028279 -0.433046,0.678521 -1.479726,1.302346 -2.725454,1.624383 -1.882799,0.486726 -4.373767,2.662729 -4.373767,3.820734 0,0.235971 -0.417484,0.429038 -0.927741,0.429038 -2.106923,0 -5.03698,2.484057 -6.545475,5.549158 -1.017018,2.066477 -1.617683,4.234557 -1.313275,4.740227 0.460748,0.765371 1.005064,0.390924 0.770479,-0.530028 z m 2.1318,-5.577127 c 0,-0.255581 0.203684,-0.464692 0.452632,-0.464692 0.248947,0 0.452632,0.209111 0.452632,0.464692 0,0.25558 -0.203685,0.464692 -0.452632,0.464692 -0.248948,0 -0.452632,-0.209112 -0.452632,-0.464692 z m 1.584211,-0.929385 c 0.153859,-0.25558 0.369565,-0.464691 0.479346,-0.464691 0.109782,0 0.199602,0.209111 0.199602,0.464691 0,0.255582 -0.215706,0.464693 -0.479346,0.464693 -0.26364,0 -0.35346,-0.209111 -0.199602,-0.464693 z m 1.357895,-0.929383 c 0.153859,-0.25558 0.471407,-0.464693 0.705662,-0.464693 0.234255,0 0.425918,0.209113 0.425918,0.464693 0,0.25558 -0.317549,0.464692 -0.705662,0.464692 -0.388114,0 -0.579776,-0.209112 -0.425918,-0.464692 z m 1.810527,-0.929384 c -0.153858,-0.255581 0.04983,-0.464692 0.452632,-0.464692 0.402806,0 0.60649,0.209111 0.452632,0.464692 -0.153859,0.25558 -0.357543,0.464691 -0.452632,0.464691 -0.09509,0 -0.298773,-0.209111 -0.452632,-0.464691 z m 2.036843,-1.394077 c 0,-0.25558 0.215706,-0.464691 0.479346,-0.464691 0.26364,0 0.35346,0.209111 0.199601,0.464691 -0.153858,0.255581 -0.369564,0.464692 -0.479346,0.464692 -0.109781,0 -0.199601,-0.209111 -0.199601,-0.464692 z m 1.357895,-0.874534 c 0,-0.25558 0.203684,-0.59393 0.452632,-0.751888 0.248947,-0.157958 0.452631,-0.07809 0.452631,0.177496 0,0.255582 -0.203684,0.593931 -0.452631,0.751888 -0.248948,0.157958 -0.452632,0.07809 -0.452632,-0.177496 z m 1.584211,-1.448926 c 0.153858,-0.255581 0.471407,-0.464692 0.705662,-0.464692 0.234255,0 0.425917,0.209111 0.425917,0.464692 0,0.25558 -0.317548,0.464693 -0.705662,0.464693 -0.388113,0 -0.579776,-0.209113 -0.425917,-0.464693 z m 1.810527,-0.929384 c 0.153858,-0.255581 0.483424,-0.464692 0.732371,-0.464692 0.248948,0 0.326751,0.209111 0.172892,0.464692 -0.153858,0.255581 -0.483424,0.464692 -0.732372,0.464692 -0.248947,0 -0.32675,-0.209111 -0.172891,-0.464692 z m 1.584211,-0.929384 c 0,-0.25558 0.215706,-0.464692 0.479346,-0.464692 0.26364,0 0.35346,0.209112 0.199601,0.464692 -0.153858,0.255581 -0.369564,0.464692 -0.479346,0.464692 -0.109781,0 -0.199601,-0.209111 -0.199601,-0.464692 z m 1.584211,-0.929384 c 0.153858,-0.255581 0.369564,-0.464692 0.479346,-0.464692 0.109781,0 0.199601,0.209111 0.199601,0.464692 0,0.25558 -0.215706,0.464692 -0.479346,0.464692 -0.26364,0 -0.35346,-0.209112 -0.199601,-0.464692 z M 65.652647,57.204996 c 0.603508,-0.400409 0.603508,-0.45046 0,-0.45046 -0.373421,0 -0.984474,0.202707 -1.357895,0.45046 -0.603507,0.400409 -0.603507,0.45046 0,0.45046 0.373421,0 0.984474,-0.202707 1.357895,-0.45046 z M 39.852641,56.08199 c 0,-0.617653 0.254605,-1.218995 0.56579,-1.336316 0.348377,-0.131343 -0.269199,-1.059743 -1.607173,-2.416058 -1.195129,-1.211511 -2.075548,-2.30276 -1.956487,-2.424996 0.235739,-0.242019 5.261029,4.771663 5.261029,5.248876 0,0.160691 -0.299004,0.17437 -0.66445,0.0304 -0.756656,-0.298092 -1.3395,0.394468 -0.91935,1.092406 0.350134,0.581622 2.454781,-0.916641 2.474841,-1.761796 0.02481,-1.044296 -1.840373,-4.453911 -3.316152,-6.062131 -1.615284,-1.760243 -3.449872,-2.864677 -4.758553,-2.864677 -0.621929,0 -0.981618,-0.419925 -1.188665,-1.387731 -0.397963,-1.860201 -2.559705,-3.385924 -4.797385,-3.385924 -1.649453,0 -1.767133,-0.09003 -1.767133,-1.35183 0,-0.832655 -0.447358,-1.811111 -1.164829,-2.547702 -0.959254,-0.98481 -1.448463,-1.148616 -2.771875,-0.928133 -0.883872,0.147255 -1.701278,0.364484 -1.816458,0.482732 -0.115179,0.118248 0.609718,1.278892 1.610883,2.579208 1.001165,1.300316 1.949102,2.780845 2.106527,3.290066 0.157426,0.509219 0.57415,0.925854 0.926053,0.925854 0.351903,0 0.737613,0.4705 0.857135,1.045557 0.119527,0.575057 0.303463,1.46378 0.408749,1.974942 0.137333,0.666726 0.206274,0.568229 0.243942,-0.34852 0.0525,-1.277677 0.957768,-1.863306 0.957768,-0.619589 0,0.362073 0.187336,0.728017 0.416304,0.813211 0.241556,0.08988 0.266319,0.988086 0.05899,2.139846 -0.196519,1.091722 -0.18017,2.097342 0.03635,2.234712 0.216502,0.137369 0.39364,-0.459616 0.39364,-1.326635 0,-0.867019 0.121758,-1.701398 0.27057,-1.854175 0.428388,-0.439806 1.539957,0.159958 1.539957,0.83091 0,0.334729 0.176467,0.6783 0.392151,0.763495 0.215679,0.08519 0.253668,1.240971 0.08441,2.568394 -0.169253,1.327424 -0.142036,2.308362 0.06049,2.179863 0.202517,-0.1285 0.368216,-1.045399 0.368216,-2.037553 0,-0.992156 0.235771,-1.953516 0.52393,-2.136355 0.363599,-0.230703 0.440606,-0.0053 0.251641,0.736553 -0.193057,0.757933 -0.131648,0.924598 0.211049,0.57277 0.88365,-0.907194 1.605303,0.426434 1.446683,2.673486 l -0.148481,2.103427 0.633331,-1.858768 c 0.627234,-1.840875 0.634318,-1.845348 0.735934,-0.464692 l 0.102607,1.394077 0.188761,-1.280025 c 0.154225,-1.04583 0.295695,-1.170242 0.773222,-0.67999 0.321454,0.330018 0.539532,1.219697 0.484619,1.977062 -0.05491,0.757365 -0.01381,0.920469 0.09137,0.362451 0.127153,-0.674649 0.496097,-0.990999 1.10118,-0.944205 0.775557,0.05998 0.868804,0.295633 0.631286,1.595442 -0.170575,0.933461 -0.09513,1.525071 0.194464,1.525071 0.260227,0 0.47314,-0.505353 0.47314,-1.123006 z m -4.073685,-6.942957 c 0,-0.377155 -0.254606,-0.79121 -0.56579,-0.920122 -0.355506,-0.147272 -0.376105,-0.248019 -0.05542,-0.27107 0.785058,-0.05644 1.667758,1.212894 1.095821,1.57579 -0.261037,0.165628 -0.474611,-0.0074 -0.474611,-0.384598 z m -3.394738,-3.086647 c -0.153859,-0.25558 -0.07606,-0.464692 0.172892,-0.464692 0.248947,0 0.578513,0.209112 0.732371,0.464692 0.153859,0.25558 0.07606,0.464693 -0.172891,0.464693 -0.248943,0 -0.578514,-0.209113 -0.732372,-0.464693 z m -1.131579,-1.189154 c 0,-0.398455 0.207006,-0.593117 0.460014,-0.432583 0.253007,0.160534 0.342832,0.486542 0.199606,0.724463 -0.388014,0.644548 -0.65962,0.524363 -0.65962,-0.29188 z m -2.036843,-2.06369 c 0.153858,-0.25558 0.369565,-0.464692 0.479346,-0.464692 0.109781,0 0.199601,0.209112 0.199601,0.464692 0,0.255581 -0.215706,0.464692 -0.479346,0.464692 -0.263635,0 -0.35346,-0.209111 -0.199601,-0.464692 z m -1.131579,-0.956809 c 0,-0.270664 0.203684,-0.362879 0.452631,-0.204921 0.248948,0.157958 0.452632,0.37941 0.452632,0.492116 0,0.112707 -0.203684,0.204922 -0.452632,0.204922 -0.248947,0 -0.452631,-0.221453 -0.452631,-0.492117 z m -3.357192,-3.163051 c -0.194981,-0.323892 -0.232273,-0.714388 -0.08287,-0.867772 0.405092,-0.415881 0.84677,0.195776 0.627977,0.869645 -0.153315,0.472208 -0.259933,0.471842 -0.545104,-0.0018 z m 39.115096,17.363584 c 0,-0.383371 -0.08005,-0.697039 -0.177889,-0.697039 -0.09784,0 -0.29513,0.313668 -0.438428,0.697039 -0.143294,0.383371 -0.06324,0.697037 0.177888,0.697037 0.241136,0 0.438429,-0.313666 0.438429,-0.697037 z m 5.217241,-0.142601 c -0.139361,-0.143073 -0.504589,-2.95e-4 -0.811628,0.317283 -0.443696,0.458938 -0.391707,0.512315 0.253384,0.260133 0.446394,-0.174506 0.697605,-0.434344 0.558244,-0.577416 z M 22.992487,55.694746 c -0.103521,-0.319475 -1.33726,-0.729493 -2.741643,-0.911151 -3.074564,-0.397696 -4.619229,-1.173717 -6.432135,-3.23143 -1.29841,-1.473741 -2.934497,-4.138854 -2.934497,-4.780163 0,-0.164295 0.803412,0.364123 1.785359,1.174264 1.94616,1.605648 6.353208,3.336582 6.978889,2.741062 0.605536,-0.576345 -0.106967,-1.382097 -1.222149,-1.382097 -1.843487,0 -7.529444,-3.187941 -10.048613,-5.633948 -2.920048,-2.835246 -3.216123,-2.254841 -1.143832,2.24229 1.348886,2.927253 4.115257,6.393106 6.486395,8.126492 2.438094,1.782333 9.735571,3.08461 9.272226,1.654681 z m 39.110994,-6.039447 1.040944,-1.511798 -1.107074,0.743404 c -1.828234,1.227663 -2.810014,2.972287 -3.016695,5.360681 l -0.195605,2.260371 1.118743,-2.670429 c 0.615307,-1.468736 1.587166,-3.350739 2.159687,-4.182229 z m -25.419262,5.950699 c 0,-0.112707 -0.203684,-0.334159 -0.452632,-0.492117 -0.248947,-0.157958 -0.452631,-0.06575 -0.452631,0.204921 0,0.270665 0.203684,0.492118 0.452631,0.492118 0.248948,0 0.452632,-0.09221 0.452632,-0.204922 z m 34.730054,-0.07583 c -0.150409,-0.154413 -0.540804,-0.170922 -0.867545,-0.03669 -0.361078,0.148342 -0.253827,0.258455 0.273466,0.280752 0.477147,0.02017 0.744484,-0.08966 0.594079,-0.244066 z m -40.38795,-0.648631 c -0.153859,-0.25558 -0.522324,-0.461489 -0.81882,-0.457576 -0.323908,0.0043 -0.26808,0.186912 0.139872,0.457576 0.86956,0.576927 1.026257,0.576927 0.678948,0 z M 87.31485,53.860305 c 1.404475,-0.727543 2.170921,-1.209852 1.703212,-1.071796 -3.298934,0.973756 -5.071349,1.249685 -6.639881,1.033695 -1.475457,-0.203173 -1.888053,-0.08302 -2.276968,0.663028 -0.4484,0.86017 -0.331286,0.905197 2.092525,0.804524 1.764961,-0.0733 3.365715,-0.520124 5.121112,-1.429451 z m -17.588517,-0.1405 c 0,-0.638951 -0.0781,-1.16173 -0.173548,-1.16173 -0.09546,0 -0.270891,0.522779 -0.389865,1.16173 -0.118975,0.638952 -0.04087,1.16173 0.173548,1.16173 0.214425,0 0.389865,-0.522778 0.389865,-1.16173 z m 7.128949,-0.532534 c 1.058027,-0.623186 1.923685,-1.212116 1.923685,-1.308734 0,-0.183742 -5.490214,2.523311 -5.884212,2.901321 -0.576739,0.553336 2.240712,-0.579603 3.960527,-1.592587 z m -49.621216,0.04108 c -1.338903,-0.624229 -2.561009,-1.125512 -2.715791,-1.113963 -0.577331,0.04308 3.819438,2.260235 4.471205,2.254695 0.373421,-0.0032 -0.416516,-0.516503 -1.755414,-1.140732 z m 5.829099,0.49146 c 0,-0.383371 -0.08005,-0.697037 -0.177888,-0.697037 -0.09784,0 -0.29513,0.313666 -0.438424,0.697037 -0.143299,0.383371 -0.06325,0.697039 0.177889,0.697039 0.24113,0 0.438423,-0.313668 0.438423,-0.697039 z m 33.200237,0.01488 c 0.140234,-0.375185 0.06019,-0.80575 -0.177889,-0.956808 -0.238075,-0.151057 -0.432866,0.155914 -0.432866,0.682158 0,1.12203 0.251713,1.235224 0.610755,0.274653 z M 21.219679,53.072054 c -0.505824,-0.831535 -3.075048,-1.908055 -4.553763,-1.908055 -0.372036,0 -1.46258,-0.547712 -2.423431,-1.217137 l -1.747003,-1.217137 1.151125,1.565657 c 1.393665,1.895538 4.580311,3.656769 6.616299,3.656769 1.350978,0 1.441492,-0.08326 0.956773,-0.880097 z M 33.829466,52.2184 c -0.11476,-0.452131 -0.216204,-0.194721 -0.225428,0.572021 -0.0092,0.766742 0.08467,1.136667 0.208658,0.822055 0.123985,-0.314612 0.131535,-0.941946 0.01675,-1.394076 z m 9.026128,-1.745551 c -0.628289,-1.408931 -1.357297,-2.561694 -1.620018,-2.561694 -0.681451,0 -0.614611,0.21625 0.665382,2.152679 0.628678,0.951094 1.274199,2.265721 1.434489,2.921394 0.160295,0.655672 0.374929,0.934999 0.476969,0.620724 0.102037,-0.314273 -0.328528,-1.72417 -0.956822,-3.133103 z m 25.812613,1.969053 c -0.125565,-0.319475 -0.228303,-0.05809 -0.228303,0.580865 0,0.638951 0.102738,0.900341 0.228303,0.580865 0.125564,-0.319476 0.125564,-0.842254 0,-1.16173 z M 31.153969,50.002269 c 0.0066,-0.728264 -0.06999,-0.677983 -0.353962,0.232345 -0.199316,0.638952 -0.358598,1.684509 -0.353958,2.323461 0.0076,1.043511 0.04359,1.019867 0.353958,-0.232346 0.190042,-0.766742 0.349323,-1.812299 0.353962,-2.32346 z m 43.942305,1.45335 c -0.05904,-0.946924 -0.06992,-0.944522 -0.257796,0.0569 -0.10789,0.575056 -0.385674,1.045557 -0.617309,1.045557 -0.231634,0 -0.421151,0.234716 -0.421151,0.521591 0,0.360372 0.209858,0.342785 0.678948,-0.0569 0.373421,-0.318169 0.65121,-1.023386 0.617308,-1.567148 z m -30.40812,0.550634 c -0.144489,-0.370699 -0.251744,-0.260588 -0.273462,0.280752 -0.01964,0.489863 0.08733,0.764321 0.237732,0.609908 0.150405,-0.154413 0.166487,-0.55521 0.03571,-0.89066 z m 14.168088,-1.268222 c 0.0092,-1.491487 -0.24816,-1.113457 -0.606368,0.89066 -0.204522,1.144269 -0.158761,1.419785 0.154365,0.929384 0.244788,-0.383371 0.448192,-1.202391 0.452003,-1.820044 z m -2.666915,0.07745 c -0.168402,-1.281974 -0.27348,-1.457289 -0.397537,-0.663243 -0.155416,0.994766 0.124247,2.405838 0.476811,2.405838 0.0823,0 0.04662,-0.784168 -0.07927,-1.742595 z m 17.144195,0.116173 c 0,-0.25558 -0.197442,-0.151025 -0.438767,0.232346 -0.241325,0.383371 -0.438768,0.90615 -0.438768,1.16173 0,0.255581 0.197443,0.151025 0.438768,-0.232346 0.241325,-0.383371 0.438767,-0.90615 0.438767,-1.16173 z m -15.403523,-6.25011 c 0.01679,-0.684901 -0.132512,-0.962612 -0.374738,-0.697037 -0.221455,0.242801 -0.518141,2.114348 -0.659304,4.158994 l -0.25666,3.717536 0.631394,-3.020499 c 0.347268,-1.661273 0.643955,-3.53282 0.659308,-4.158994 z m -0.124953,5.436897 c -0.125565,-0.319475 -0.228303,-0.05809 -0.228303,0.580866 0,0.638952 0.102738,0.900341 0.228303,0.580865 0.125564,-0.319476 0.125564,-0.842254 0,-1.161731 z m 18.614696,0.05265 c -0.113,-0.34803 -0.318173,-0.137388 -0.478228,0.490971 -0.196881,0.772943 -0.137976,0.954373 0.197909,0.609541 0.263024,-0.270035 0.389168,-0.765265 0.280319,-1.100512 z m 3.774858,0.644393 c 0.563015,-0.737028 0.547005,-0.753464 -0.170896,-0.175447 -0.435658,0.35077 -0.792105,0.716715 -0.792105,0.813211 0,0.382457 0.371696,0.136295 0.963001,-0.637764 z M 21.927065,50.157166 c -0.128214,-0.212983 -0.424781,-0.387243 -0.659036,-0.387243 -0.234256,0 -0.425919,0.17426 -0.425919,0.387243 0,0.212984 0.296566,0.387244 0.659037,0.387244 0.36247,0 0.554133,-0.17426 0.425918,-0.387244 z m 22.771328,-2.362184 c -0.107885,-0.575057 -0.196157,-0.104556 -0.196157,1.045556 0,1.150114 0.08827,1.620614 0.196157,1.045558 0.107889,-0.575057 0.107889,-1.516058 0,-2.091114 z m 31.326038,0.580865 c -0.01638,-0.459606 -0.157389,-0.380462 -0.413886,0.232345 -0.534703,1.277478 -0.534703,2.011172 0,1.161731 0.241325,-0.383371 0.427574,-1.010705 0.413886,-1.394076 z m -20.875958,-1.908589 -0.145439,-2.505986 -0.21993,2.882897 c -0.120965,1.585594 -0.05551,2.713287 0.145435,2.505987 0.200955,-0.207303 0.299923,-1.504606 0.219934,-2.882898 z m 18.960742,2.286151 c -0.144489,-0.3707 -0.251744,-0.260588 -0.273462,0.280752 -0.01964,0.489862 0.08732,0.764321 0.237732,0.609908 0.150405,-0.154414 0.166482,-0.555211 0.03571,-0.89066 z M 58.271578,47.57148 c -0.114761,-0.452131 -0.216204,-0.194722 -0.225429,0.572021 -0.0092,0.766741 0.08467,1.136666 0.208659,0.822055 0.123985,-0.314612 0.13153,-0.941947 0.01675,-1.394076 z m 0.891363,0.223502 c -0.125565,-0.319476 -0.228303,-0.05809 -0.228303,0.580865 0,0.638951 0.102738,0.90034 0.228303,0.580864 0.125564,-0.319475 0.125564,-0.842254 0,-1.161729 z m -15.36505,-2.555806 c -0.103706,-0.702848 -0.188561,-0.127791 -0.188561,1.277903 0,1.405693 0.08485,1.980749 0.188561,1.277903 0.103712,-0.702848 0.103712,-1.85296 0,-2.555806 z m 16.284214,1.867612 c -0.114761,-0.452131 -0.216205,-0.194721 -0.225429,0.572021 -0.0092,0.766741 0.08467,1.136666 0.208658,0.822055 0.123985,-0.314613 0.131531,-0.941946 0.01679,-1.394076 z m -5.877754,-1.165157 c -0.108265,-0.578036 -0.200959,-0.214529 -0.205983,0.807794 -0.005,1.022322 0.08356,1.495261 0.196849,1.050974 0.113289,-0.444286 0.117399,-1.280731 0.0091,-1.858768 z M 41.484817,43.867802 c 0.442203,-0.331963 1.686746,-0.603568 2.765652,-0.603568 1.807082,0 1.982545,-0.10728 2.226884,-1.361528 0.524886,-2.69434 3.493113,-4.381637 6.501607,-3.695852 1.728641,0.394043 4.073685,2.720859 4.073685,4.042017 0,0.667315 0.296935,0.793153 1.524423,0.646032 1.940491,-0.232577 4.214589,0.960129 5.191319,2.722717 0.840623,1.516968 1.272805,1.63406 2.502401,0.677976 0.820074,-0.637655 0.816313,-0.703372 -0.130226,-2.27571 -1.138482,-1.891191 -4.501423,-3.752791 -6.183117,-3.422749 -0.916955,0.179957 -1.267726,-0.05336 -1.845126,-1.22733 -1.751648,-3.561442 -4.222497,-4.878802 -7.480214,-3.988164 -2.017905,0.55168 -3.312454,1.471259 -4.042386,2.871494 -0.328497,0.630156 -0.26947,0.748184 0.268239,0.536347 0.379183,-0.149382 0.689421,-0.493195 0.689421,-0.764028 0,-0.270833 0.13454,-0.354298 0.298981,-0.185478 0.439624,0.451339 -1.244642,2.20063 -1.787302,1.856309 -0.254202,-0.161291 -0.325478,-0.06628 -0.158444,0.211194 0.498945,0.828821 -0.686456,1.265639 -3.434586,1.265639 -2.170695,0 -2.769957,0.188783 -3.687722,1.16173 -1.785768,1.893141 -1.823739,2.871329 -0.15805,4.071751 l 1.458701,1.051253 0.300928,-1.493242 c 0.165509,-0.821283 0.662729,-1.764848 1.104932,-2.09681 z m -2.852222,1.295467 c 0.19833,-1.334215 0.767414,-1.786442 0.767414,-0.609833 0,0.538675 -0.2043,1.109037 -0.453998,1.267471 -0.260273,0.165144 -0.394012,-0.115473 -0.313416,-0.657638 z m 25.26395,-0.969651 c -1.51967,-1.941414 -1.326003,-2.633308 0.227629,-0.813211 1.611441,1.887823 2.098504,2.671979 1.659651,2.671979 -0.237763,0 -1.087041,-0.836445 -1.88728,-1.858768 z m -24.043904,-0.88561 c 0,-0.937068 2.628749,-1.608933 3.663565,-0.93635 0.460018,0.298989 0.283147,0.415625 -0.638057,0.420768 -0.700973,0.0039 -1.668473,0.223585 -2.150001,0.488158 -0.551178,0.30284 -0.875507,0.313 -0.875507,0.02742 z m 4.526316,-0.973158 c 0,-0.255581 0.305527,-0.464692 0.678948,-0.464692 0.373421,0 0.678947,-0.243963 0.678947,-0.542141 0,-0.298177 0.13087,-0.407787 0.290816,-0.243576 0.336862,0.345839 -0.662281,1.715101 -1.251499,1.715101 -0.218468,0 -0.397212,-0.209111 -0.397212,-0.464692 z m 14.245682,-0.484988 c -0.147141,-0.244417 0.151863,-0.444396 0.66445,-0.444396 1.092911,0 1.203168,0.25842 0.267528,0.627026 -0.36545,0.143972 -0.784841,0.06178 -0.931978,-0.18263 z m 2.501691,0.0203 c -0.580228,-0.384963 -0.563775,-0.451496 0.113158,-0.457576 0.435658,-0.0039 0.792106,0.201995 0.792106,0.457576 0,0.566743 -0.05105,0.566743 -0.905264,0 z m -5.43158,-3.568495 c -0.970189,-1.053698 -0.997157,-1.155585 -0.189092,-0.71438 1.094636,0.597669 2.295119,1.963169 1.715565,1.951386 -0.217191,-0.0044 -0.904105,-0.561067 -1.526473,-1.237006 z m -7.015792,-1.078425 c 0.153859,-0.255581 0.369565,-0.464693 0.479346,-0.464693 0.109782,0 0.199602,0.209112 0.199602,0.464693 0,0.25558 -0.215706,0.464691 -0.479346,0.464691 -0.26364,0 -0.35346,-0.209111 -0.199602,-0.464691 z m 4.31311,-0.446541 c -0.366211,-0.237771 -0.569574,-0.531138 -0.451921,-0.651929 0.117657,-0.120791 0.60898,0.07695 1.091824,0.439425 0.965663,0.724925 0.425569,0.904283 -0.639903,0.212504 z m -3.18153,-0.1963 c 0,-0.09798 0.407368,-0.287516 0.905263,-0.421187 0.497895,-0.133672 0.905264,-0.05351 0.905264,0.178148 0,0.231653 -0.407369,0.421187 -0.905264,0.421187 -0.497895,0 -0.905263,-0.08017 -0.905263,-0.178148 z m -7.798531,9.704336 c -0.107242,-1.330319 -0.801471,-1.598661 -0.801471,-0.309796 0,0.765069 0.359734,1.471525 0.749318,1.471525 0.08019,0 0.103662,-0.522778 0.05215,-1.161729 z m 6.287773,-0.34852 c -0.125565,-0.319475 -0.228303,-0.05809 -0.228303,0.580866 0,0.638952 0.102738,0.900341 0.228303,0.580865 0.125564,-0.319476 0.125564,-0.842254 0,-1.161731 z m 15.542341,1.305328 c 0,-0.112706 -0.203685,-0.334159 -0.452632,-0.492116 -0.248948,-0.157958 -0.452632,-0.06575 -0.452632,0.204921 0,0.270664 0.203684,0.492116 0.452632,0.492116 0.248947,0 0.452632,-0.09221 0.452632,-0.204921 z m -7.385542,-1.740976 c -0.144489,-0.3707 -0.251745,-0.260588 -0.273462,0.280751 -0.01964,0.489863 0.08732,0.764322 0.237731,0.609908 0.150405,-0.154413 0.166483,-0.555209 0.03571,-0.890659 z m 2.265974,-1.190774 c -0.113851,-0.447266 -0.207002,-0.08132 -0.207002,0.813212 0,0.894532 0.09315,1.260476 0.207002,0.81321 0.113846,-0.447266 0.113846,-1.179156 0,-1.626422 z m 9.818591,1.021422 c 0.154569,-0.41354 0.07869,-0.600066 -0.177889,-0.437267 -0.246096,0.156148 -0.447449,0.480676 -0.447449,0.721173 0,0.668428 0.324433,0.521135 0.625338,-0.283906 z m -7.251128,-0.44056 c 0.143294,-0.38337 0.06324,-0.697038 -0.177889,-0.697038 -0.241135,0 -0.438428,0.313668 -0.438428,0.697038 0,0.383371 0.08005,0.697039 0.177888,0.697039 0.09784,0 0.29513,-0.313668 0.438429,-0.697039 z M 43.021063,44.658308 c 0,-0.25558 -0.215706,-0.464692 -0.479346,-0.464692 -0.26364,0 -0.35346,0.209112 -0.199602,0.464692 0.153859,0.255581 0.369565,0.464693 0.479346,0.464693 0.109782,0 0.199602,-0.209112 0.199602,-0.464693 z m 5.288145,-0.551821 c -0.144489,-0.3707 -0.251745,-0.260589 -0.273462,0.280751 -0.01964,0.489863 0.08732,0.764322 0.237731,0.609908 0.150405,-0.154413 0.166483,-0.55521 0.03571,-0.890659 z m 0.895835,-0.958428 c -0.125564,-0.319475 -0.228303,-0.05809 -0.228303,0.580866 0,0.63895 0.102739,0.90034 0.228303,0.580864 0.125565,-0.319476 0.125565,-0.842254 0,-1.16173 z m 3.630482,-0.900341 c -0.144489,-0.3707 -0.251745,-0.260588 -0.273462,0.280752 -0.01964,0.489862 0.08732,0.764321 0.237731,0.609908 0.150405,-0.154414 0.166483,-0.55521 0.03571,-0.89066 z m 1.801099,-0.493735 c -0.125565,-0.319475 -0.228303,-0.05809 -0.228303,0.580866 0,0.63895 0.102738,0.900339 0.228303,0.580864 0.125564,-0.319476 0.125564,-0.842254 0,-1.16173 z m -5.824542,-0.647678 c -0.131906,-0.638867 -0.245725,-0.522015 -0.438876,0.450566 -0.168402,0.84798 -0.105319,1.153531 0.178092,0.862571 0.24138,-0.247812 0.358733,-0.838724 0.260784,-1.313137 z m 3.11818,0.676721 c -0.144489,-0.3707 -0.251745,-0.260588 -0.273462,0.280752 -0.01964,0.489862 0.08732,0.764321 0.237731,0.609909 0.150405,-0.154414 0.166482,-0.555211 0.03571,-0.890661 z m 16.294741,0 c -0.144489,-0.3707 -0.251744,-0.260588 -0.273462,0.280752 -0.01964,0.489862 0.08732,0.764321 0.237731,0.609909 0.150405,-0.154414 0.166483,-0.555211 0.03571,-0.890661 z M 49.671575,39.671715 c -0.11476,-0.452131 -0.216204,-0.194722 -0.225428,0.572021 -0.0092,0.766742 0.08467,1.136666 0.208658,0.822055 0.123985,-0.314612 0.13153,-0.941947 0.01675,-1.394076 z m 3.66395,0.276147 c -0.113,-0.34803 -0.318173,-0.137388 -0.478228,0.49097 -0.196881,0.772944 -0.137976,0.954375 0.197908,0.609541 0.263025,-0.270033 0.389169,-0.765263 0.28032,-1.100511 z m 15.794742,0.44109 c -0.144489,-0.3707 -0.251745,-0.260588 -0.273462,0.280751 -0.01964,0.489863 0.08732,0.764322 0.237731,0.609908 0.150405,-0.154413 0.166482,-0.555209 0.03571,-0.890659 z m 1.821458,-1.417701 c -0.108265,-0.578036 -0.20096,-0.21453 -0.205984,0.807793 -0.005,1.022322 0.08356,1.495261 0.196849,1.050975 0.11329,-0.444287 0.1174,-1.280732 0.0091,-1.858768 z m -20.379358,0.953008 c -0.144489,-0.370699 -0.251745,-0.260588 -0.273462,0.280753 -0.01965,0.489862 0.08732,0.764321 0.237731,0.609908 0.150405,-0.154413 0.166482,-0.55521 0.03571,-0.890661 z m 21.27369,-1.394076 c -0.144489,-0.370699 -0.251745,-0.260588 -0.273462,0.280752 -0.01964,0.489863 0.08732,0.764322 0.237731,0.609909 0.150405,-0.154413 0.166483,-0.55521 0.03571,-0.890661 z M 41.834733,32.829232 c 1.088394,-1.705354 0.920183,-1.779509 -1.08651,-0.478986 -1.979766,1.28307 -1.972216,1.288624 -2.478693,-1.823592 l -0.295745,-1.817317 -1.124858,1.936567 -1.124857,1.936568 -2.122558,-1.274526 -2.122558,-1.274527 0.992653,1.300484 c 0.54596,0.715267 1.223731,2.019308 1.506155,2.897871 0.282429,0.878563 0.803236,1.597387 1.157348,1.597387 0.354116,0 0.643846,0.180114 0.643846,0.400253 0,0.220138 0.458289,0.31116 1.018421,0.202271 0.560132,-0.108889 1.523201,-0.0053 2.140156,0.230106 1.011645,0.386074 1.172855,0.275427 1.642618,-1.127437 0.286485,-0.855537 0.851048,-2.072842 1.254582,-2.705122 z m -4.493057,1.570152 c -0.201037,-0.333952 0.180659,-0.422422 1.147543,-0.265979 1.962136,0.317476 2.290335,0.766372 0.560309,0.766372 -0.773639,0 -1.542176,-0.225177 -1.707852,-0.500393 z m -1.56272,-0.456415 c 0,-0.270665 0.203684,-0.362879 0.452631,-0.204922 0.248948,0.157958 0.452632,0.37941 0.452632,0.492116 0,0.112707 -0.203684,0.204922 -0.452632,0.204922 -0.248947,0 -0.452631,-0.221453 -0.452631,-0.492116 z m -1.357895,-0.464693 c 0,-0.270663 0.203684,-0.362879 0.452631,-0.204921 0.248948,0.157957 0.452632,0.37941 0.452632,0.492117 0,0.112706 -0.203684,0.204921 -0.452632,0.204921 -0.248947,0 -0.452631,-0.221453 -0.452631,-0.492117 z M 49.13159,70.216371 c -0.153858,-0.25558 -0.06404,-0.464691 0.199602,-0.464691 0.26364,0 0.479346,0.209111 0.479346,0.464691 0,0.255581 -0.08982,0.464693 -0.199602,0.464693 -0.109781,0 -0.325487,-0.209112 -0.479346,-0.464693 z m -1.131579,-1.157788 c 0,-0.385537 0.08519,-0.700979 0.189295,-0.700979 0.104114,0 0.511483,-0.126926 0.905263,-0.282062 1.025433,-0.403979 0.884986,0.414829 -0.189295,1.103605 -0.755039,0.484093 -0.905263,0.464083 -0.905263,-0.120564 z m 2.263158,-0.236288 c 0,-0.25558 0.203685,-0.464691 0.452632,-0.464691 0.248948,0 0.452632,0.209111 0.452632,0.464691 0,0.255581 -0.203684,0.464693 -0.452632,0.464693 -0.248947,0 -0.452632,-0.209112 -0.452632,-0.464693 z M 48.000011,67.16845 c 0,-0.398454 0.203684,-0.595225 0.452632,-0.437267 0.248947,0.157957 0.452631,0.483965 0.452631,0.724463 0,0.240497 -0.203684,0.437267 -0.452631,0.437267 -0.248948,0 -0.452632,-0.326008 -0.452632,-0.724463 z m 2.71579,-0.204921 c 0,-0.255581 0.215706,-0.464692 0.479346,-0.464692 0.26364,0 0.35346,0.209111 0.199602,0.464692 -0.153859,0.25558 -0.369565,0.464692 -0.479346,0.464692 -0.109782,0 -0.199602,-0.209112 -0.199602,-0.464692 z m -1.560316,-0.425003 c -0.145739,-0.242089 -0.07205,-0.562578 0.163762,-0.712198 0.235807,-0.14962 0.547978,-0.07396 0.693712,0.168127 0.145738,0.242089 0.07205,0.562579 -0.163762,0.712198 -0.235808,0.149619 -0.547979,0.07396 -0.693712,-0.168127 z M 68.368438,36.793678 c 0,-0.220215 0.305526,-0.520756 0.678947,-0.667869 0.373421,-0.147114 0.678948,-0.08731 0.678948,0.132911 0,0.220216 -0.305527,0.520757 -0.678948,0.66787 -0.373421,0.147114 -0.678947,0.08731 -0.678947,-0.132912 z m 1.810527,-0.964517 c 0,-0.25558 0.215706,-0.464692 0.479346,-0.464692 0.263639,0 0.35346,0.209112 0.199601,0.464692 -0.153858,0.255581 -0.369565,0.464692 -0.479346,0.464692 -0.109781,0 -0.199601,-0.209111 -0.199601,-0.464692 z"
     style="fill:#000000;stroke-width:0.45862225" />
</svg>
