<?xml version="1.0" encoding="UTF-8" standalone="no"?>
<svg
   xmlns:dc="http://purl.org/dc/elements/1.1/"
   xmlns:cc="http://creativecommons.org/ns#"
   xmlns:rdf="http://www.w3.org/1999/02/22-rdf-syntax-ns#"
   xmlns:svg="http://www.w3.org/2000/svg"
   xmlns="http://www.w3.org/2000/svg"
   id="svgGSW9"
   version="1.1"
   viewBox="0 0 100 100"
   height="100"
   width="100">
  <defs
     id="defs2" />
  <metadata
     id="metadata5">
    <rdf:RDF>
      <cc:Work
         rdf:about="">
        <dc:format>image/svg+xml</dc:format>
        <dc:type
           rdf:resource="http://purl.org/dc/dcmitype/StillImage" />
        <dc:title></dc:title>
      </cc:Work>
    </rdf:RDF>
  </metadata>
  <path
     id="pathGSW9"
     d="m 67.29336,93.611615 c -1.221958,-0.20697 -3.305705,-0.82863 -4.630548,-1.38147 -1.324844,-0.55285 -3.317374,-1.23716 -4.427848,-1.52071 -2.042802,-0.52162 -5.12005,-3.31749 -5.728572,-5.20478 -0.160826,-0.49878 -0.957329,-1.28416 -1.77001,-1.74528 -1.3814,-0.78381 -1.587762,-0.78587 -3.169528,-0.0316 -0.930555,0.44375 -1.691919,1.01967 -1.691919,1.27982 0,0.26015 -0.577727,1.23044 -1.283837,2.1562 -1.473703,1.93212 -4.558472,3.5005 -6.915611,3.51608 -0.890557,0.006 -2.541879,0.55144 -3.669607,1.21233 -5.834282,3.41911 -15.56937,0.99731 -20.973361,-5.21755 -2.069802,-2.38039 -3.8523924,-5.2698 -3.4805447,-5.64165 0.1160269,-0.11602 1.1835827,0.4333 2.3723567,1.22071 3.72278,2.46586 10.542423,3.41971 9.753655,1.36422 -0.153261,-0.39939 -0.748706,-0.74349 -1.323216,-0.76465 -0.574509,-0.0212 -0.780963,-0.14559 -0.458794,-0.27649 0.439049,-0.1784 0.397447,-0.63292 -0.166086,-1.81466 -0.64952,-1.36206 -1.193619,-1.6953 -3.997747,-2.44845 -1.785242,-0.47949 -3.57491,-0.99367 -3.977037,-1.14262 -0.502755,-0.18623 -0.426629,0.0724 0.243713,0.82784 1.405489,1.584 3.524301,3.0093 5.549381,3.73298 0.969106,0.34632 1.367269,0.6393 0.88481,0.65107 -2.085004,0.0508 -8.175496,-4.6492 -8.105926,-6.25537 0.02622,-0.6056 0.13241,-0.56251 0.45317,0.18394 0.230401,0.53617 0.434326,0.67381 0.453165,0.30589 0.02432,-0.47467 0.211231,-0.52451 0.643544,-0.1716 0.574651,0.46911 5.44183,2.05912 6.303151,2.05912 0.219429,0 0.398958,-0.21934 0.398958,-0.48742 0,-0.26809 -0.60319,-0.48957 -1.340422,-0.49219 -1.587834,-0.006 -6.044186,-2.00073 -8.2827053,-3.70813 -1.8836679,-1.43675 -1.910179,-1.34989 -0.5025948,1.64664 2.0136551,4.28676 6.0778821,7.45549 10.7433931,8.37624 1.378783,0.2721 1.647335,0.42488 0.809581,0.46057 -5.19023,0.22112 -11.714434,-5.69264 -13.5190366,-12.2541 -0.2764924,-1.00532 -0.396565,-1.82785 -0.2668219,-1.82785 0.1297382,0 0.7973755,0.66729 1.4836373,1.48286 1.7896728,2.12691 1.9992953,1.38149 0.236582,-0.84127 -1.6781008,-2.11606 -3.1485046,-6.67356 -2.9164703,-9.03955 l 0.1563469,-1.59428 1.057276,1.98044 c 1.0670975,1.99884 4.3938686,5.57467 5.1863946,5.57467 0.235782,0 -0.646254,-1.17616 -1.9600724,-2.61369 -2.754367,-3.01372 -3.5581668,-5.21635 -3.5581668,-9.750373 0,-3.208619 0.6016593,-4.242635 1.2433704,-2.136866 0.1838181,0.60319 0.6724969,1.481902 1.0859512,1.952692 0.4134544,0.470791 0.6186705,0.989047 0.4560359,1.151677 -0.1626297,0.16264 -0.7453769,-0.441896 -1.2949889,-1.343406 l -0.9992965,-1.639106 0.01009,1.949704 c 0.025054,4.840008 1.9749385,8.955088 5.4287911,11.457048 2.499253,1.81044 2.843713,1.81752 2.843713,0.0584 0,-2.34562 -0.5751,-4.44776 -1.216806,-4.44776 -0.621425,0 -5.135444,-3.84319 -4.556567,-3.87942 0.1756977,-0.011 1.238321,0.74771 2.36139,1.686 1.123064,0.9383 2.295362,1.70112 2.605102,1.69515 0.309745,-0.006 0.03982,-0.41325 -0.599846,-0.9051 -0.769719,-0.59185 -0.975759,-1.01 -0.609283,-1.23649 0.304554,-0.18823 0.773073,-0.20667 1.041157,-0.041 1.074989,0.66438 0.394455,-0.6361 -1.036316,-1.98037 -1.85336,-1.741301 -3.3425983,-4.815527 -3.2908531,-6.793298 0.036069,-1.378978 0.062893,-1.357722 0.4706781,0.37314 0.614279,2.607325 2.194339,5.523818 3.484395,6.431538 1.060245,0.74601 1.113905,0.72353 1.377081,-0.57708 0.219132,-1.082947 -0.035,-1.646109 -1.272031,-2.81871 -1.701322,-1.612727 -4.1418645,-6.046119 -4.0813067,-7.413949 0.029782,-0.67286 0.096847,-0.704046 0.2968766,-0.13806 1.5990111,4.524381 5.0630511,9.188957 5.6629701,7.625591 0.15216,-0.396521 -0.02934,-0.838383 -0.403393,-0.98191 -1.188999,-0.45626 -4.073586,-5.32849 -4.76597,-8.049979 L 9.4791385,42.791074 8.8468688,45.770465 c -1.0423998,4.912003 -0.022909,9.074327 3.1123572,12.70674 0.557942,0.64642 0.706373,0.99638 0.329846,0.77768 -0.460661,-0.26756 -0.570829,-0.21355 -0.336802,0.16512 0.665025,1.07603 -0.510301,0.55429 -1.811967,-0.80436 -1.6832289,-1.75691 -1.7112413,-2.586944 -0.03485,-1.03314 l 1.274892,1.18167 -1.245003,-1.85182 C 9.4505899,55.89385 8.628731,54.267855 8.3089892,53.299032 7.5679699,51.053718 7.9965734,45.632439 9.1145291,43.11001 l 0.8390651,-1.893175 0.3689618,2.193418 c 0.711389,4.229074 1.329509,4.8973 1.066479,1.152932 -0.210948,-3.003041 -0.07743,-3.834504 0.97844,-6.092827 1.501009,-3.210406 5.015317,-8.082954 4.522866,-6.270906 -0.182137,0.670211 -0.395122,2.753957 -0.473291,4.630548 -0.07817,1.876591 -0.05092,2.37011 0.06057,1.096709 0.290867,-3.322319 0.877733,-2.850104 0.911974,0.733812 0.03124,3.271544 1.310597,6.712331 1.918305,5.159295 0.174113,-0.444951 -0.02832,-1.475932 -0.449841,-2.291069 -1.554957,-3.006962 -0.368518,-8.501816 2.515816,-11.651667 0.942429,-1.029184 1.544693,-1.431884 1.385324,-0.926283 -1.03601,3.28676 -0.590844,10.072621 0.660779,10.072621 0.730076,0 0.996791,-1.428873 0.507118,-2.716808 -0.57644,-1.516147 -0.579701,-5.045265 -0.0074,-8.006567 0.233145,-1.20638 0.338566,-2.27951 0.234266,-2.384733 -0.568718,-0.573755 -5.099266,5.083941 -6.321243,7.893898 -0.372769,0.857183 -0.686345,1.208671 -0.696839,0.781087 -0.04567,-1.861391 6.203496,-9.702235 7.732708,-9.702235 0.223563,0 0.109685,1.261215 -0.253057,2.8027 -0.802474,3.410119 -0.852055,6.291773 -0.14324,8.32508 0.520776,1.493901 0.559706,1.510153 1.925499,0.803874 0.766687,-0.396469 2.290781,-0.720853 3.38687,-0.720853 h 1.992901 l -0.939665,1.00861 c -1.748125,1.876394 -2.044631,6.192864 -0.589347,8.579555 l 0.942453,1.545634 2.218963,-0.66781 2.218964,-0.66781 -0.803839,1.226817 c -1.035503,1.580373 -0.929034,4.061339 0.27562,6.422651 1.719956,3.371397 2.967504,3.503057 4.315793,0.455475 0.32854,-0.742613 1.148395,-1.559715 1.821901,-1.815784 1.564663,-0.594879 1.540525,-1.260255 -0.142474,-3.928113 -4.3976,-6.970962 -9.778253,-18.492621 -10.834623,-23.200291 -0.824613,-3.674842 1.375902,-7.460641 4.960843,-8.534716 1.237049,-0.370628 1.992291,-0.967449 2.366025,-1.869717 0.741083,-1.789138 2.929841,-3.324533 5.273463,-3.699294 1.355674,-0.216781 2.119666,-0.660928 2.56354,-1.4903173 0.838992,-1.567673 3.213381,-2.987395 5.590242,-3.342584 2.244904,-0.33547 4.571794,0.853963 5.952916,3.042945 0.655232,1.0385003 1.292702,1.3804443 2.798244,1.5010013 3.571206,0.285968 5.137116,1.636917 5.822003,5.022779 0.199762,0.987573 0.548666,1.279493 1.529246,1.279493 1.769825,0 3.734245,1.605075 4.533034,3.703819 0.888251,2.333806 0.190189,4.873468 -2.733881,9.946285 -5.334903,9.255246 -6.784465,11.855974 -9.019148,16.181689 -2.372224,4.591951 -2.376826,4.610073 -1.364627,5.373578 0.558595,0.421345 1.33835,1.388136 1.73279,2.148423 0.647078,1.247241 0.627347,1.585383 -0.201887,3.460006 -0.579867,1.31088 -0.762144,2.3254 -0.493899,2.7489 0.233833,0.36917 0.426371,2.09694 0.427858,3.83949 0.0034,3.8415 -1.449347,7.32871 -3.977465,9.54842 -1.493386,1.31122 -3.279374,4.58694 -2.500881,4.58694 0.552668,0 3.830808,-2.12424 5.151001,-3.33786 0.737705,-0.67815 1.791252,-1.30167 2.341225,-1.3856 1.240987,-0.18939 3.832958,-1.48219 4.969314,-2.47855 0.56267,-0.49334 0.852996,-0.55108 0.852996,-0.16963 0,0.31805 -0.327755,0.70404 -0.728341,0.85776 -0.400587,0.15372 -0.623896,0.44848 -0.496244,0.65503 0.365828,0.59192 -4.662709,5.37106 -6.79704,6.45993 -1.21489,0.6198 -2.793488,0.96453 -4.264979,0.93138 -2.289791,-0.0516 -3.09206,0.51031 -1.565174,1.09623 2.431755,0.93316 6.401777,-0.43374 9.861927,-3.39549 2.454688,-2.10112 6.073257,-7.44294 5.785997,-8.54143 -0.228613,-0.87423 0.41477,-2.29126 0.844982,-1.86105 0.568159,0.56816 -0.916756,4.26432 -2.782321,6.9256 -1.954052,2.7875 -4.848788,5.25673 -8.112944,6.92039 -1.251647,0.63792 -2.343506,0.78402 -4.328461,0.57916 -1.878262,-0.19386 -2.845852,-0.0827 -3.308644,0.38009 -1.110249,1.11025 0.426259,1.82601 4.081366,1.90123 4.562054,0.0939 8.709797,-1.9868 12.833315,-6.43772 3.387846,-3.65684 4.058992,-4.80721 5.076626,-8.7015 0.792043,-3.03101 1.056564,-10.4304 0.409769,-11.46244 -0.215778,-0.3443 -0.460973,-1.17435 -0.544879,-1.844559 -0.334701,-2.67344 -1.238262,-4.398704 -3.298105,-6.297397 -2.876243,-2.651229 -4.212493,-2.756775 -2.179424,-0.172147 0.536169,0.681628 0.974852,1.551701 0.974852,1.933497 0,0.381792 0.175937,0.585438 0.390965,0.452542 0.649602,-0.401474 -0.278657,6.438634 -1.096163,8.077364 -0.418718,0.83934 -0.660721,1.62666 -0.537782,1.7496 0.122943,0.12294 0.715956,-0.79003 1.31781,-2.02882 0.60185,-1.2388 1.301725,-2.25236 1.55527,-2.25236 0.754189,0 -0.01984,6.59484 -1.042249,8.88005 -0.513562,1.14787 -1.399103,2.5002 -1.967871,3.00518 -0.568768,0.50497 -0.921245,1.10078 -0.783284,1.324 0.137961,0.22323 -1.104196,1.08989 -2.760353,1.92592 -2.50788,1.26597 -2.947524,1.37055 -2.630263,0.62569 1.678052,-3.93971 2.205837,-6.44716 1.995133,-9.47867 -0.123534,-1.77741 -0.568408,-4.05447 -0.988608,-5.06015 -0.906666,-2.169958 -0.954799,-2.582647 -0.214935,-1.84278 1.286673,1.28667 4.3252,-4.345309 4.3252,-8.01687 v -2.182037 l 1.743411,1.028637 c 0.958874,0.565751 1.929145,0.91385 2.156149,0.773552 0.227004,-0.140297 0.785677,-1.377899 1.241489,-2.750225 0.799086,-2.405818 0.7819,-5.728201 -0.0406,-7.851199 -0.258306,-0.666728 -0.0796,-0.849224 0.818384,-0.835724 0.631875,0.0095 1.697213,0.33074 2.367424,0.713867 1.734588,0.991581 1.917758,0.926646 2.705717,-0.959196 0.894032,-2.139729 0.874725,-6.740668 -0.03895,-9.276753 -0.386319,-1.072337 -0.705705,-2.022971 -0.709741,-2.112519 -0.0039,-0.08955 0.857295,0.521991 1.914079,1.358977 1.80684,1.431044 3.929922,4.242037 3.925871,5.19791 -9.75e-4,0.236442 -0.410505,-0.228132 -0.910005,-1.032385 -0.499504,-0.804253 -1.446471,-1.957159 -2.104374,-2.562013 l -1.196193,-1.099736 0.213805,4.073561 c 0.166149,3.16548 0.02827,4.46458 -0.618554,5.827636 -0.791058,1.667041 -0.701747,2.777936 0.223339,2.777936 0.232609,0 0.517193,-0.274177 0.632416,-0.609283 0.115222,-0.335105 0.13995,-0.179969 0.05495,0.344748 -0.192943,1.191057 2.182475,4.4206 2.798426,3.804652 0.242962,-0.242964 0.632299,-1.413062 0.865191,-2.600218 0.309301,-1.576633 0.437835,-1.792923 0.476844,-0.802387 0.02939,0.745842 -0.252029,2.087093 -0.625343,2.980556 -0.423476,1.013519 -0.515137,1.878397 -0.243714,2.299619 0.615922,0.955852 1.231892,-0.104479 1.974739,-3.399311 0.56189,-2.492203 0.348827,-4.859598 -0.773867,-8.598629 -0.160992,-0.536169 0.07236,-0.207156 0.518563,0.731139 1.465188,3.081057 1.435353,6.943794 -0.08471,10.967088 -0.280567,0.742609 -0.229144,0.84697 0.215847,0.438059 1.502043,-1.380248 2.539227,-8.992766 1.491875,-10.949765 -0.838958,-1.5676 0.187576,-1.049987 1.278485,0.644658 2.273852,3.532259 2.581969,4.225827 3.142095,7.072892 0.507601,2.580099 0.468806,3.332767 -0.297354,5.768584 -0.484619,1.540729 -1.621745,3.771588 -2.526944,4.957462 -1.915214,2.50907 -1.749763,3.35532 0.239628,1.225667 1.569274,-1.679909 4.030351,-7.341524 4.030351,-9.271657 0,-1.143536 0.08914,-1.221072 0.689338,-0.599631 0.864099,0.89467 2.235219,5.509474 2.235219,7.523103 0,0.832953 -0.438683,2.374911 -0.974852,3.426576 -1.118321,2.193529 -1.160294,2.365559 -0.473598,1.941159 0.275688,-0.17038 0.789933,-1.005861 1.142766,-1.856615 l 0.641511,-1.546822 0.564732,2.589992 c 0.836677,3.837225 -0.08309,6.659265 -3.246604,9.961235 -0.963164,1.00531 -1.49245,1.82784 -1.176194,1.82784 0.655033,0 4.497091,-4.68751 4.497091,-5.48669 0,-0.28869 0.118338,-0.40656 0.262967,-0.26193 0.524543,0.52455 -0.789231,6.73358 -1.780115,8.413 -0.558951,0.94735 -0.780749,1.72246 -0.49289,1.72246 0.782695,0 0.125352,2.80816 -1.271967,5.43386 -1.516373,2.84942 -4.07268,5.33718 -7.148397,6.95672 -1.313331,0.69154 -2.081027,1.25338 -1.705992,1.24852 0.375036,-0.005 1.833425,-0.64371 3.240868,-1.41969 1.407443,-0.77597 2.558987,-1.27731 2.558987,-1.11408 0,0.90287 -2.873684,4.19874 -5.275964,6.05111 -3.350908,2.58382 -4.598963,3.15039 -8.961193,4.06801 -3.665771,0.77112 -3.517657,0.76632 -6.750491,0.21876 z m 6.523112,-0.69596 c 2.010788,-0.38473 4.591256,-1.17665 5.734368,-1.75982 1.96365,-1.00178 7.47894,-5.77835 7.104431,-6.15286 -0.09586,-0.0958 -0.920826,0.13721 -1.833263,0.51793 -0.912438,0.38072 -2.646013,0.62899 -3.852392,0.5517 -2.009215,-0.12871 -2.050149,-0.11025 -0.487426,0.21987 1.309221,0.27656 0.742403,0.38366 -2.437131,0.46045 -3.362114,0.0812 -3.913413,0.19438 -2.924557,0.60043 1.171305,0.48096 5.653246,0.27942 7.595406,-0.34154 0.636188,-0.20341 0.467709,0.10404 -0.527727,0.96302 -1.642236,1.4171 -7.756168,3.9131 -10.723375,4.37778 -1.072337,0.16794 -2.936742,0.0901 -4.143122,-0.17301 l -2.193417,-0.47836 2.71974,0.25052 c 2.16347,0.19929 3.661272,-0.0511 7.323153,-1.22407 2.531882,-0.81104 5.022249,-1.78086 5.534149,-2.15518 0.829823,-0.60678 0.660292,-0.65458 -1.563668,-0.44089 -1.371919,0.13182 -3.11593,0.023 -3.875574,-0.2418 -1.138666,-0.39694 -1.667855,-0.28503 -3.013951,0.63732 -0.898029,0.61534 -2.70444,1.37589 -4.014246,1.6901 -1.309807,0.31422 -2.494481,0.75417 -2.632613,0.97767 -0.138127,0.22349 -1.069652,0.28008 -2.070055,0.12574 -2.95952,-0.45657 -1.400034,0.40978 2.432286,1.35123 4.42754,1.08767 3.576445,1.06124 7.848984,0.24377 z m -43.197595,-0.29504 c 2.546353,-0.55201 5.51432,-2.38671 3.893131,-2.4066 -0.485798,-0.006 -1.976951,0.34689 -3.313683,0.78411 -5.416241,1.77156 -11.673924,0.0499 -16.004578,-4.4032 -2.155267,-2.21623 -2.158572,-2.22496 -0.623116,-1.64539 0.860351,0.32474 1.311337,0.72623 1.018833,0.90701 -0.832968,0.5148 3.839168,3.78423 6.564294,4.59351 1.34825,0.40038 3.453428,0.72675 4.678169,0.72525 2.630897,-0.003 6.674745,-1.04352 5.151363,-1.32522 -1.301876,-0.24075 -4.58898,-1.62035 -6.059399,-2.54313 -0.811905,-0.50953 -2.116676,-0.69714 -4.143121,-0.59574 -1.626892,0.0814 -3.506339,-0.0659 -4.17655,-0.32738 -0.875135,-0.34143 -0.132575,-0.39825 2.634777,-0.20165 2.736118,0.19438 3.757383,0.11849 3.522375,-0.26176 -0.182029,-0.29453 -1.381302,-0.52737 -2.665056,-0.51743 -2.787682,0.0216 -6.82419,-1.10623 -9.188099,-2.56721 l -1.712611,-1.05845 0.756807,1.41022 c 2.143144,3.9935 7.119595,7.73858 12.013494,9.04088 3.794539,1.00976 4.611139,1.0516 7.65297,0.39218 z m 38.652512,-3.1488 c 3.986122,-1.23724 9.396069,-6.91625 12.423337,-13.04123 2.516605,-5.09176 3.168601,-8.17517 3.168757,-14.98555 1.22e-4,-5.419805 -0.636857,-8.282843 -1.845215,-8.293708 -0.660892,-0.0059 -0.6933,-0.09411 -0.159018,-0.432522 0.904989,-0.573223 -0.100897,-4.878762 -1.776152,-7.602546 -1.525673,-2.480582 -5.324243,-6.448984 -7.035099,-7.349633 -2.310873,-1.216517 -2.591396,-0.748274 -0.707523,1.180985 3.172023,3.248447 4.083222,8.575624 2.279019,13.323902 -0.529808,1.394341 -0.874993,2.623454 -0.767082,2.73137 0.374606,0.374607 1.629831,-2.590596 2.276577,-5.377932 0.357669,-1.541486 0.779151,-2.802701 0.936624,-2.802701 0.747789,0 2.080612,3.990957 2.29661,6.876861 0.278326,3.718694 -0.324859,5.965714 -2.121575,7.903384 -0.697995,0.75276 -1.120345,1.51739 -0.938549,1.69919 0.390594,0.39059 3.022037,-2.59599 3.675831,-4.17193 0.655642,-1.58038 1.337717,-1.35175 1.885462,0.632 0.621166,2.24968 -0.469523,6.13249 -2.413232,8.59102 -0.898404,1.13636 -1.203309,1.86034 -0.835171,1.98305 0.423876,0.14129 0.346828,0.80336 -0.286465,2.46162 -1.676409,4.38961 -8.001636,8.54816 -12.247897,8.05243 -0.902148,-0.10531 -1.517699,0.007 -1.367894,0.24922 0.48925,0.79162 5.355585,0.0428 7.897756,-1.21533 3.475836,-1.72018 3.273442,-0.61485 -0.595932,3.25452 -3.479004,3.47901 -5.360839,4.24803 -10.601737,4.33245 -2.736425,0.0441 -3.446284,-0.13218 -4.874261,-1.21033 -1.677809,-1.26678 -4.839659,-2.23292 -4.839659,-1.47881 0,1.13333 2.460468,3.84954 4.390768,4.84714 1.883678,0.9735 2.700078,1.09967 5.84518,0.90336 2.010633,-0.12551 4.862076,-0.60263 6.33654,-1.06028 z m 1.218565,-2.44574 c 0.536169,-0.43655 1.413536,-1.00911 1.949705,-1.27234 l 0.974852,-0.4786 -0.974852,0.79375 c -0.536169,0.43656 -1.413536,1.00911 -1.949705,1.27234 l -0.974852,0.4786 z m -15.3637,-0.49038 c -0.339112,-0.4086 -0.52217,-0.83731 -0.406801,-0.95268 0.115373,-0.11537 0.477502,0.21894 0.80473,0.74292 0.707651,1.13313 0.471649,1.25754 -0.397929,0.20976 z m 19.506822,-2.61153 c 0,-0.26808 0.219342,-0.62298 0.487426,-0.78867 0.268085,-0.16568 0.487426,-0.0819 0.487426,0.18619 0,0.26808 -0.219341,0.62298 -0.487426,0.78867 -0.268084,0.16568 -0.487426,0.0819 -0.487426,-0.18619 z m 1.462279,-1.49104 c 0,-0.25226 0.216831,-0.59267 0.481845,-0.75645 0.276302,-0.17077 0.358014,0.0249 0.191563,0.45865 -0.324036,0.84443 -0.673408,0.99893 -0.673408,0.2978 z m 2.166355,-2.80056 c 0.413196,-0.85427 0.994052,-1.70328 1.290792,-1.88666 0.653931,-0.40416 -0.05118,0.98457 -1.251608,2.46504 -0.733727,0.90489 -0.736535,0.86338 -0.03919,-0.57838 z m 4.73457,-11.36357 c 0,-0.67021 0.110636,-0.94438 0.245853,-0.60928 0.135217,0.33511 0.135217,0.88346 0,1.21857 -0.135217,0.3351 -0.245853,0.0609 -0.245853,-0.60929 z m 0.766877,-5.40075 c 0.172359,-0.6591 0.393304,-0.88005 0.51499,-0.515 0.117217,0.35165 -0.01862,0.87111 -0.301867,1.15436 -0.361705,0.3617 -0.425138,0.1714 -0.213123,-0.63936 z M 81.610298,50.35609 c -0.166962,-0.469148 -0.413313,-1.051393 -0.547438,-1.293877 -0.134125,-0.242485 -0.01711,-0.300738 0.260033,-0.129452 0.507761,0.313813 1.201232,2.276324 0.80436,2.276324 -0.117363,0 -0.349987,-0.383848 -0.516955,-0.852995 z m -5.57712,-9.261097 c -0.606294,-0.773085 -0.589054,-0.790325 0.184033,-0.18403 0.81193,0.636759 1.070134,1.037026 0.668963,1.037026 -0.101214,0 -0.485062,-0.383848 -0.852996,-0.852996 z M 42.106195,88.808875 c 0.866424,-0.53652 1.971571,-1.64867 2.455877,-2.47144 l 0.88055,-1.49595 h -1.218258 c -0.670045,0 -1.974471,0.44617 -2.898718,0.9915 -3.571913,2.10748 -9.426164,1.69588 -13.412193,-0.94298 -2.196844,-1.45437 -4.591003,-4.39723 -5.194549,-6.38506 -0.351215,-1.15676 -0.323436,-1.17849 0.547794,-0.4285 0.988163,0.85065 6.101922,2.86564 7.272597,2.86564 0.392071,0 0.712856,-0.30848 0.712856,-0.68551 0,-0.4489 -0.34151,-0.5962 -0.989416,-0.42677 -1.81789,0.47539 -5.211868,-1.27533 -7.597375,-3.91897 -2.149403,-2.38199 -2.984641,-3.82583 -3.854497,-6.66316 -0.337167,-1.09979 -0.294469,-1.15006 0.45122,-0.53119 0.452999,0.37595 0.70649,0.98881 0.563318,1.36191 -0.143171,0.3731 -0.0676,0.55927 0.167938,0.4137 0.235534,-0.14557 1.384568,0.25879 2.553401,0.89858 2.135541,1.16893 4.985004,2.16117 4.074863,1.41895 -0.268084,-0.21863 -0.487426,-0.81791 -0.487426,-1.33174 0,-0.60952 -0.508239,-1.09621 -1.462279,-1.40026 -2.404185,-0.76622 -4.589686,-3.22401 -5.426524,-6.10264 -0.416072,-1.43123 -0.632981,-2.72575 -0.482021,-2.87671 0.150956,-0.15095 0.886848,0.38109 1.635315,1.18233 1.505591,1.61174 4.516943,3.3569 4.516943,2.6177 0,-0.25915 -0.214852,-0.60397 -0.477443,-0.76626 -0.303126,-0.18734 -0.271813,-0.62434 0.08576,-1.19691 0.466184,-0.74648 0.335471,-1.17247 -0.75882,-2.47296 -1.876961,-2.23064 -2.603002,-3.8042 -3.011192,-6.526214 -0.258731,-1.725357 -0.204777,-2.2844 0.196535,-2.036374 0.304251,0.188035 0.555237,1.151472 0.557752,2.140966 0.0029,1.14571 0.578131,2.772682 1.583891,4.479922 l 1.579314,2.68085 0.257,-2.43714 c 0.224216,-2.12625 0.09555,-2.623654 -1.008679,-3.899404 -2.545943,-2.941407 -3.680535,-5.6054 -2.38733,-5.6054 0.283906,0 0.384613,0.2129 0.223792,0.473111 -0.567978,0.919005 3.199245,6.46422 3.911735,5.757944 0.193752,-0.19206 -0.311723,-1.105453 -1.123273,-2.029754 -1.627759,-1.853916 -2.799025,-4.808369 -2.359903,-5.95271 0.625427,-1.629836 -0.832826,0.03252 -1.696023,1.9334 -1.614009,3.554291 -0.986468,7.611653 1.677063,10.842973 1.513726,1.83641 2.104837,3.30159 1.211907,3.00394 -0.266696,-0.0889 -0.451991,-0.33321 -0.411768,-0.54291 0.04021,-0.20971 -0.529579,-1.17148 -1.266226,-2.13727 -3.011957,-3.94887 -3.427142,-8.242475 -1.176505,-12.166678 2.023374,-3.527948 2.442711,-3.617652 2.442711,-0.52254 0,1.661993 0.281231,2.9616 0.770928,3.562606 0.759912,0.932631 0.76581,0.932222 0.412567,-0.02871 -0.197102,-0.536168 -0.458757,-2.449324 -0.581457,-4.251456 -0.200308,-2.94194 -0.08195,-3.514462 1.158811,-5.605401 0.760044,-1.280837 1.392567,-2.548137 1.405601,-2.816221 0.01301,-0.268085 0.38608,-0.426774 0.828995,-0.352643 0.442919,0.07413 0.944461,-0.09038 1.114538,-0.36557 0.170078,-0.275194 0.523262,-0.500353 0.784854,-0.500353 0.261592,0 -0.31263,0.692094 -1.276048,1.537986 -2.376363,2.086474 -3.646278,4.73654 -3.633235,7.581836 0.01141,2.49317 1.521398,6.477814 2.454746,6.477814 0.352278,0 0.42505,-0.319644 0.194186,-0.852996 -0.203067,-0.469147 -0.707104,-2.082561 -1.120081,-3.585363 -0.689883,-2.510456 -0.683118,-2.909755 0.08327,-4.916512 0.458775,-1.201279 1.15171,-2.603815 1.539857,-3.116746 0.648409,-0.85686 0.706987,-0.745366 0.72123,1.372809 0.01579,2.34911 1.254381,6.224547 1.989362,6.224547 0.928303,0 0.899038,-1.006684 -0.07737,-2.661571 -1.023039,-1.733923 -1.11022,-4.367219 -0.262868,-7.939947 0.518129,-2.184619 -2.616421,-1.06535 -6.074105,2.168909 -4.076378,3.812976 -6.026907,7.683642 -7.457346,14.798521 -1.870206,9.302209 -1.264818,14.205629 2.833793,22.952849 3.196643,6.82224 7.09647,10.17111 13.821362,11.86869 3.503063,0.88429 7.454846,0.60871 9.508699,-0.6631 z m -3.055226,-0.25954 c 0,-0.10536 0.340404,-0.32219 0.756456,-0.48185 0.433771,-0.16645 0.629423,-0.0847 0.458659,0.19157 -0.286246,0.46316 -1.215115,0.68505 -1.215115,0.29028 z m 3.394533,-2.16546 c 0.321121,-0.62615 0.71754,-1.00477 0.880925,-0.84139 0.163386,0.16339 -0.09935,0.67569 -0.583858,1.13846 -0.842151,0.80436 -0.855223,0.79129 -0.297067,-0.29707 z m -21.641676,-7.73605 c -0.264516,-0.69468 -0.20853,-0.75066 0.272862,-0.27286 0.333116,0.33064 0.482878,0.72395 0.332804,0.87402 -0.150073,0.15007 -0.422622,-0.12045 -0.605666,-0.60116 z m -0.762475,-2.09258 c -0.286948,-0.53617 -0.412056,-0.97485 -0.278014,-0.97485 0.134043,0 0.478492,0.43868 0.76544,0.97485 0.286947,0.53617 0.412055,0.97485 0.278013,0.97485 -0.134042,0 -0.478492,-0.43868 -0.765439,-0.97485 z m -1.294078,-2.70187 c -0.15875,-0.41369 -0.179724,-0.86107 -0.0466,-0.99418 0.133111,-0.13312 0.359014,0.20536 0.50201,0.75216 0.30374,1.1615 -0.03373,1.34086 -0.455402,0.24202 z m 3.653103,-3.13884 c -3.937287,-2.60795 -5.529323,-7.01832 -4.564287,-12.64433 l 0.369863,-2.156259 0.699725,1.668839 c 0.384847,0.91785 1.389194,2.38169 2.23188,3.25297 0.842687,0.87127 1.289286,1.58413 0.992444,1.58413 -0.6253,0 -3.063503,-2.76821 -3.063503,-3.47815 0,-0.26333 -0.219341,-0.34323 -0.487426,-0.17755 -0.997186,0.6163 -0.542924,5.38332 0.730023,7.66088 1.447134,2.5892 2.370695,3.48176 4.917891,4.75281 1.048955,0.52343 1.560948,0.96043 1.137759,0.97111 -0.423183,0.0107 -1.757151,-0.63482 -2.964369,-1.43445 z m -5.227041,-2.0401 c -0.0311,-0.44722 -0.182775,-1.21492 -0.337055,-1.70599 -0.265886,-0.84628 -0.251458,-0.84756 0.276502,-0.0246 0.306362,0.47757 0.458035,1.24527 0.33706,1.70599 -0.198163,0.75466 -0.225566,0.7571 -0.276507,0.0246 z m -0.505485,-3.61432 c 0.0234,-0.56783 0.138887,-0.68333 0.294483,-0.29449 0.140803,0.35186 0.12349,0.77226 -0.03851,0.93423 -0.161966,0.16197 -0.27717,-0.12592 -0.256006,-0.63974 z m -0.221979,-1.92793 c -0.167163,-0.43562 -0.281479,-1.26761 -0.254037,-1.84887 0.03154,-0.66811 0.197106,-0.43056 0.450114,0.64584 0.425777,1.81143 0.309993,2.52183 -0.196077,1.20303 z m -0.265447,-3.92119 c 0.0234,-0.56782 0.138887,-0.68332 0.294483,-0.29448 0.140803,0.35185 0.12349,0.77226 -0.03851,0.93423 -0.161967,0.16197 -0.27717,-0.12592 -0.256006,-0.63975 z m 0.448944,-4.102501 c 0,-0.268084 0.232287,-0.487426 0.516194,-0.487426 0.283906,0 0.380631,0.219342 0.214945,0.487426 -0.165686,0.268084 -0.397974,0.487426 -0.516194,0.487426 -0.11822,0 -0.214945,-0.219342 -0.214945,-0.487426 z m 1.249902,-4.529713 c 0.183043,-0.48071 0.455592,-0.751231 0.605666,-0.601159 0.150073,0.150073 3.12e-4,0.54338 -0.332805,0.874019 -0.481392,0.477809 -0.537378,0.421818 -0.272861,-0.27286 z m 0.699802,-1.77806 c 0,-0.252263 0.216832,-0.592668 0.481845,-0.756455 0.276303,-0.170764 0.358015,0.02489 0.191564,0.45866 -0.324036,0.844425 -0.673409,0.998925 -0.673409,0.297795 z m 0.974852,-1.717843 c 0,-0.509912 1.957348,-3.672611 2.272927,-3.672611 0.134042,0 -0.250951,0.822532 -0.85554,1.827848 -1.346768,2.239429 -1.417387,2.331337 -1.417387,1.844763 z m 2.924557,-4.831493 c 0,-0.101217 0.383848,-0.485065 0.852996,-0.852996 0.773087,-0.606295 0.790327,-0.589055 0.184033,0.18403 -0.636759,0.81193 -1.037029,1.070134 -1.037029,0.668966 z m 44.889938,44.03795 c 2.186657,-0.5865 5.334732,-2.83402 6.746367,-4.81649 1.248971,-1.75401 1.206097,-1.78225 -0.990957,-0.65262 -1.167863,0.60046 -2.774088,0.84908 -5.425442,0.83976 -3.5511,-0.0125 -4.292572,0.31337 -2.082694,0.91527 0.536168,0.14603 0.09748,0.17188 -0.974853,0.0574 -1.405244,-0.14998 -2.55284,0.11068 -4.109518,0.93343 l -2.159815,1.14152 1.851074,0.61091 c 2.293462,0.75691 4.638834,0.46679 8.034064,-0.9938 2.187744,-0.94114 2.466874,-1.19367 1.695035,-1.53354 -0.792765,-0.34907 -0.768233,-0.3773 0.172704,-0.19877 0.60319,0.11444 1.096709,0.0328 1.096709,-0.18156 0,-0.21431 0.383848,-0.52442 0.852996,-0.68914 2.248409,-0.78945 -2.560323,2.65397 -4.960199,3.55188 -3.289118,1.23062 -4.86134,1.2834 -7.863919,0.26399 -2.957516,-1.0041 -3.387631,-0.49935 -0.652678,0.76594 2.231763,1.03249 4.884633,1.02819 8.771126,-0.0142 z m -27.098884,-0.45291 1.462278,-0.59716 -2.725,-0.85324 c -1.498747,-0.46928 -3.03414,-1.0507 -3.411983,-1.29204 -0.572911,-0.36594 -7.265193,-0.67591 -7.266738,-0.33657 -0.002,0.42856 3.210212,1.60389 5.74788,2.10314 1.680289,0.33058 2.956098,0.70003 2.835128,0.821 -0.386363,0.38636 -5.840169,-0.92099 -7.608653,-1.8239 -0.938296,-0.47905 -2.248112,-1.45174 -2.910705,-2.16152 l -1.204712,-1.29053 2.179565,0.98868 c 2.318023,1.05147 5.57887,1.33183 6.078974,0.52265 0.165686,-0.26809 0.123796,-0.50505 -0.09309,-0.52659 -0.216885,-0.0215 -1.491046,-0.1046 -2.831468,-0.18459 -1.340422,-0.08 -3.490059,-0.60767 -4.776976,-1.17262 -1.381312,-0.60639 -2.20048,-0.78037 -1.999651,-0.42469 1.864775,3.30257 5.061165,5.85535 8.36431,6.68012 2.254921,0.56303 6.211778,0.3438 8.16084,-0.45214 z m -2.28481,-0.84048 c 0.351858,-0.1408 0.772263,-0.12348 0.934235,0.0385 0.161966,0.16197 -0.125922,0.27717 -0.639747,0.25601 -0.567827,-0.0234 -0.683323,-0.13889 -0.294488,-0.29448 z m 41.500576,0.49134 c 3.712486,-0.47432 7.694845,-2.90902 10.098207,-6.17375 1.160215,-1.57604 2.109483,-3.04281 2.109483,-3.25947 0,-0.21667 0.134481,-0.74439 0.298845,-1.17272 0.212045,-0.55258 -0.622019,-0.29025 -2.871632,0.9032 -1.969279,1.04472 -3.606037,1.59789 -4.320111,1.46004 -1.053966,-0.20345 -1.068511,-0.18149 -0.174781,0.26401 0.758523,0.3781 0.542193,0.43324 -0.974852,0.24848 -1.45565,-0.17728 -1.702677,-0.12129 -0.974853,0.22095 0.944978,0.44436 0.942127,0.45946 -0.09309,0.49266 -0.587368,0.0189 -1.203504,0.25361 -1.36919,0.52169 -0.595479,0.96351 2.005695,0.46017 5.039884,-0.97524 1.699596,-0.80404 3.185788,-1.46189 3.302643,-1.46189 0.116856,0 -0.114301,0.6319 -0.513684,1.40422 -1.510982,2.92192 -6.307016,5.87642 -9.571728,5.89647 -1.257301,0.008 -2.072102,0.37195 -2.924557,1.30732 -1.02803,1.12802 -1.057787,1.25179 -0.228856,0.95184 0.524046,-0.18962 1.949768,-0.47214 3.16827,-0.62781 z m -32.193335,-2.08386 c 1.024092,-0.54808 1.045704,-0.6503 0.309486,-1.46381 -0.589347,-0.65122 -1.751152,-0.93023 -4.549129,-1.09247 -2.817888,-0.1634 -4.428095,-0.55321 -6.438484,-1.55871 -5.599099,-2.80038 -7.28861,-5.62139 -7.377556,-12.31843 -0.03144,-2.36852 -0.07413,-5.67646 -0.09484,-7.35098 -0.02408,-1.94774 0.196184,-3.26473 0.611422,-3.655693 0.53673,-0.505349 0.596288,-0.259944 0.344094,1.417823 -0.167738,1.11593 -0.435818,2.43198 -0.595727,2.92456 -0.213464,0.65754 -0.166993,0.72278 0.174825,0.24545 0.372384,-0.52001 0.5429,-0.47123 0.851865,0.24372 0.212459,0.49162 0.409204,1.1132 0.437211,1.38129 0.178179,1.70567 4.378793,7.52521 4.990357,6.91365 0.09773,-0.0977 0.0408,-0.81592 -0.12657,-1.59597 -0.189395,-0.88283 -1.050867,-1.97033 -2.281837,-2.88055 -1.087662,-0.80425 -2.084166,-1.79129 -2.214445,-2.19342 -0.130284,-0.40213 0.695182,0.10844 1.834365,1.1346 1.139188,1.02616 2.200236,1.73676 2.357889,1.5791 0.157654,-0.15765 -0.13603,-0.63129 -0.652629,-1.05254 -0.869081,-0.70866 -0.872376,-0.74464 -0.04406,-0.48148 0.583736,0.18545 0.211299,-0.49256 -1.070427,-1.94868 -1.412873,-1.60511 -2.136286,-2.99559 -2.572435,-4.94451 -0.61541,-2.749937 -0.510009,-3.370065 1.300067,-7.64881 0.299943,-0.709019 0.239722,-0.837188 -0.250892,-0.533971 -0.432747,0.267452 -0.529296,0.210847 -0.292866,-0.171704 0.193986,-0.313879 0.532036,-0.459855 0.751222,-0.324392 0.219185,0.135463 0.695825,-0.11194 1.059206,-0.549784 0.589722,-0.710571 0.530207,-0.756274 -0.554053,-0.425486 -2.224261,0.678581 -4.295579,2.659402 -5.546963,5.304619 -2.523029,5.333248 -2.869511,10.236948 -1.178786,16.683308 0.588085,2.24223 0.928293,4.21774 0.756022,4.39002 -0.172276,0.17228 -1.023439,0.0656 -1.891476,-0.23696 -2.234191,-0.77884 -2.90212,0.0508 -1.365246,1.69589 1.225428,1.31168 2.801388,2.26336 4.737455,2.86084 l 1.112584,0.34335 -0.984762,-1.62202 c -0.541618,-0.89211 -1.480966,-1.74408 -2.087436,-1.89326 l -1.102675,-0.27124 1.079736,-0.28797 c 0.888096,-0.23686 1.298416,0.0852 2.311828,1.81443 2.16156,3.68843 6.013386,6.89682 9.593205,7.99071 2.031572,0.62078 7.182043,0.3707 8.660446,-0.42052 z m -13.177434,-4.28919 c -0.618793,-0.78903 -0.595854,-0.79937 0.305889,-0.13793 0.536169,0.39329 1.066245,0.77714 1.177948,0.853 0.111699,0.0759 -0.02593,0.13792 -0.305889,0.13792 -0.279939,0 -0.810015,-0.38384 -1.177948,-0.85299 z m -3.24717,-2.36444 c -0.345673,-0.37509 -0.413454,-0.68198 -0.150619,-0.68198 0.506163,0 1.2389,0.92719 0.949789,1.20184 -0.09387,0.0892 -0.453492,-0.14477 -0.79917,-0.51986 z m -6.926602,-3.11911 c -0.402127,-0.25987 -0.511798,-0.47249 -0.243713,-0.47249 0.268084,0 0.816438,0.21262 1.218564,0.47249 0.402127,0.25988 0.511798,0.4725 0.243713,0.4725 -0.268084,0 -0.816438,-0.21262 -1.218564,-0.4725 z m 4.425317,-2.72146 c 0.0234,-0.56783 0.138887,-0.68332 0.294483,-0.29449 0.140803,0.35186 0.123489,0.77227 -0.03851,0.93424 -0.161966,0.16196 -0.27717,-0.12592 -0.256006,-0.63975 z m -1.013335,-4.83364 c 0,-0.67021 0.0841,-1.21857 0.186889,-1.21857 0.102788,0 0.291715,0.54836 0.419835,1.21857 0.12812,0.67021 0.04401,1.21856 -0.186889,1.21856 -0.230909,0 -0.419835,-0.54835 -0.419835,-1.21856 z m 5.284908,-3.53384 c -1.215563,-1.44956 -2.361302,-3.46905 -2.340835,-4.12598 0.01072,-0.34453 0.365804,0.0316 0.789051,0.83585 0.423242,0.80425 1.332862,2.06547 2.02138,2.8027 0.688519,0.73723 1.025467,1.34042 0.748774,1.34042 -0.276692,0 -0.824958,-0.38384 -1.21837,-0.85299 z m -5.284908,-4.99612 c 0,-0.53617 0.198807,-0.97485 0.441793,-0.97485 0.242987,0 0.327073,0.43868 0.186865,0.97485 -0.140213,0.53617 -0.33902,0.97485 -0.441793,0.97485 -0.102774,0 -0.186865,-0.43868 -0.186865,-0.97485 z m 1.476926,-3.899409 c 3.21e-4,-0.840396 0.814294,-2.278376 1.095646,-1.935589 0.103641,0.126277 -0.100537,0.777952 -0.45374,1.448163 -0.353955,0.671643 -0.642057,0.89041 -0.641906,0.487426 z m 54.373471,28.740949 c 2.083464,-0.89307 5.902223,-4.19519 5.415007,-4.6824 -0.107502,-0.10751 -1.37888,0.35543 -2.825283,1.02874 -1.446408,0.67331 -3.191983,1.22634 -3.879059,1.22896 -1.126066,0.004 -3.868745,2.18628 -3.868745,3.07785 0,0.68089 2.903651,0.31321 5.15808,-0.65315 z m -32.186955,-1.27255 c 0.657411,-0.70936 1.195291,-1.48999 1.195291,-1.73475 0,-0.24477 0.220672,-0.30864 0.49038,-0.14195 1.045889,0.64639 4.291031,0.30847 6.12097,-0.63739 1.709671,-0.88369 7.207141,-5.94469 6.457372,-5.94469 -0.73905,0 -5.192799,2.32256 -6.778191,3.53472 -0.963602,0.73675 -1.978618,1.33954 -2.255593,1.33954 -0.276975,0 -0.776646,0.32902 -1.110382,0.73114 -0.669947,0.80724 -2.43713,1.00059 -2.43713,0.26665 0,-0.25547 0.253695,-1.0213 0.563767,-1.70183 0.380982,-0.83616 0.410875,-1.57999 0.09221,-2.29415 -0.350503,-0.78551 -0.23781,-1.50608 0.438981,-2.80686 1.000271,-1.9225 0.843154,-5.0206 -0.322935,-6.36787 -0.665985,-0.76946 -1.344648,-4.0376 -1.369107,-6.59299 -0.0077,-0.80425 -0.112619,-1.07484 -0.233155,-0.60131 -0.196842,0.77327 -0.311441,0.74845 -1.125135,-0.24371 -0.900925,-1.09852 -0.910176,-1.09924 -1.659799,-0.12983 -1.362916,1.76254 -2.823289,5.12418 -2.54317,5.85415 0.152189,0.3966 -0.246862,1.23788 -0.894232,1.88525 -1.55603,1.55603 -2.069026,4.33007 -1.079917,5.83965 0.546035,0.83335 0.645167,1.61231 0.363908,2.85938 -0.488167,2.16448 0.398086,4.87195 2.215829,6.76927 1.666778,1.73974 2.347508,1.76042 3.870038,0.11758 z m -3.481568,-0.73541 -0.928542,-1.05031 1.340422,0.86265 c 1.382126,0.88949 1.643499,1.23796 0.928542,1.23796 -0.226536,0 -0.829726,-0.47264 -1.340422,-1.0503 z m 0.503209,-1.60873 c -0.519187,-0.79237 -0.867414,-2.12244 -0.82105,-3.13601 0.04431,-0.96804 0.102394,-2.30842 0.129139,-2.97863 0.02676,-0.67021 -0.09538,-1.90792 -0.271404,-2.75046 -0.212225,-1.01585 -0.03714,-2.12803 0.519684,-3.30148 0.577732,-1.21748 0.768696,-2.50873 0.612081,-4.13867 -0.171097,-1.78061 -0.01116,-2.65559 0.643899,-3.52249 0.739353,-0.97846 0.967936,-1.05015 1.507137,-0.47261 0.349577,0.37444 0.386275,0.54136 0.08155,0.37094 -0.304729,-0.17042 -0.800256,-0.0132 -1.101174,0.34938 -0.435827,0.52514 -0.317826,0.63407 0.580154,0.53549 1.101559,-0.12092 1.119267,-0.0559 0.776543,2.85077 -0.257483,2.18374 -0.167236,3.32932 0.339473,4.30919 0.875486,1.69301 0.879512,3.37501 0.01092,4.56288 -0.473076,0.64697 -0.547057,1.27674 -0.243713,2.0746 0.239565,0.6301 0.435569,1.77109 0.435569,2.53556 0,0.76446 0.224826,1.50142 0.499612,1.6377 0.274787,0.13628 0.229953,0.19445 -0.09963,0.12927 -0.329583,-0.0652 -1.071289,0.43027 -1.648231,1.101 l -1.04899,1.21953 -0.901558,-1.37596 z m 2.711371,-2.68392 c 0,-0.46647 -0.242397,-1.54346 -0.538659,-2.39332 -0.405626,-1.16359 -0.393592,-1.71999 0.04874,-2.25297 0.727021,-0.87601 0.771942,-4.05906 0.06723,-4.76378 -0.325483,-0.32548 -0.405748,-1.61501 -0.214438,-3.44533 0.271301,-2.59569 0.214599,-2.89018 -0.503419,-2.61464 -0.4611,0.17694 -0.809156,0.0725 -0.809156,-0.24287 0,-0.30435 -0.0821,-0.46197 -0.182454,-0.35027 -0.100346,0.1117 -0.03003,1.35443 0.156269,2.76163 0.271526,2.05096 0.163312,2.82453 -0.545473,3.89941 -1.062,1.61051 -1.130288,3.02021 -0.207444,4.28227 0.588825,0.80526 0.579164,1.19427 -0.06996,2.8166 -0.691175,1.72741 -0.683313,2.02873 0.09553,3.66199 l 0.848677,1.77969 0.927285,-1.14515 c 0.510004,-0.62983 0.927279,-1.52679 0.927279,-1.99326 z m -0.487426,3.69664 c 0,-0.10121 0.334033,-0.46125 0.742297,-0.80008 0.620664,-0.5151 0.691989,-0.48495 0.435276,0.18403 -0.262182,0.68324 -1.177573,1.16213 -1.177573,0.61605 z m -4.337902,-1.9097 c -0.616555,-1.02667 -0.606168,-1.03705 0.23315,-0.23315 0.483152,0.46277 0.773536,0.94631 0.645304,1.07454 -0.128232,0.12824 -0.523535,-0.25039 -0.878454,-0.84139 z m 6.043894,-2.2931 c 0.165685,-0.26809 0.397973,-0.48743 0.516194,-0.48743 0.11822,0 0.214945,0.21934 0.214945,0.48743 0,0.26808 -0.232288,0.48742 -0.516194,0.48742 -0.283906,0 -0.380631,-0.21934 -0.214945,-0.48742 z m -0.406304,-2.15779 c -0.146789,-0.38252 0.01901,-0.93279 0.368499,-1.22282 0.50066,-0.41551 0.585823,-0.26804 0.401629,0.6955 -0.268742,1.40585 -0.398826,1.49492 -0.770128,0.52732 z m -5.462853,-1.28662 c -0.176707,-0.28592 -0.216749,-0.6244 -0.08898,-0.75217 0.127765,-0.12777 0.362187,0.10617 0.520937,0.51986 0.329588,0.8589 0.04869,1.00997 -0.431957,0.23231 z m -0.22367,-4.81307 c 0,-0.25226 0.216832,-0.59267 0.481845,-0.75646 0.276302,-0.17076 0.358015,0.0249 0.191563,0.45866 -0.324036,0.84443 -0.673408,0.99893 -0.673408,0.2978 z m 5.361687,-2.49467 c 0,-0.2839 0.219342,-0.38063 0.487427,-0.21494 0.268084,0.16568 0.487426,0.39797 0.487426,0.51619 0,0.11822 -0.219342,0.21495 -0.487426,0.21495 -0.268085,0 -0.487427,-0.23229 -0.487427,-0.5162 z m -5.849113,15.13898 c 0,-0.26808 -0.341959,-0.48742 -0.759907,-0.48742 -0.417949,0 -0.624344,-0.21934 -0.458658,-0.48743 0.165685,-0.26808 -0.04143,-0.48743 -0.460277,-0.48743 -0.418835,0 -1.839517,-1.04187 -3.157069,-2.31527 -1.770678,-1.71134 -2.710728,-2.27631 -3.603848,-2.16589 -1.241894,0.15354 -5.063076,-1.18809 -4.626712,-1.62446 0.134042,-0.13404 1.038042,0.0882 2.008887,0.49382 2.16214,0.9034 3.907077,0.96532 3.614387,0.12826 -0.117172,-0.33511 -0.587348,-0.5418 -1.044832,-0.45932 -1.43082,0.25797 -4.124741,-0.89578 -5.647787,-2.41883 -1.435626,-1.43563 -1.461737,-1.44149 -1.457058,-0.32761 0.0024,0.6238 0.534906,2.27285 1.182866,3.66453 1.259114,2.70433 3.404423,4.41965 7.586042,6.06555 2.377767,0.93589 6.823966,1.21053 6.823966,0.4215 z m -7.161162,-1.67518 c -3.349008,-1.55927 -5.367313,-3.09375 -6.517887,-4.95542 -1.134294,-1.83532 -1.177397,-2.20214 -0.215394,-1.83298 0.400587,0.15372 0.612471,0.46696 0.470859,0.6961 -0.141612,0.22913 0.519504,1.27664 1.469151,2.32778 1.74053,1.92656 5.392956,3.8468 8.54245,4.49115 1.677496,0.34319 1.681566,0.34988 0.243713,0.40031 -0.804253,0.0282 -2.601057,-0.47891 -3.992892,-1.12694 z m 32.03672,1.67856 c 4.479982,-1.2446 8.860476,-5.64337 8.569546,-8.60532 -0.085,-0.86541 0.299743,-1.98542 1.019106,-2.96666 0.635613,-0.867 1.476175,-2.48481 1.867919,-3.59512 0.814387,-2.30822 0.949672,-5.7956 0.22483,-5.7956 -0.268084,0 -0.487426,0.22874 -0.487426,0.50831 0,0.78109 -4.429037,5.33759 -5.955626,6.12702 -0.745669,0.3856 -1.355766,1.03688 -1.355766,1.44728 0,1.15629 2.594647,-0.53293 5.13519,-3.34322 l 2.104809,-2.32829 -0.505505,1.84086 c -0.278028,1.01248 -0.801202,2.41553 -1.162609,3.1179 -0.786925,1.52934 -5.420164,5.79064 -6.296059,5.79064 -0.340306,0 -0.891795,0.32902 -1.225531,0.73114 -0.333735,0.40213 -0.461524,0.73114 -0.283979,0.73114 0.573184,0 4.400683,-2.04006 5.283085,-2.81588 0.470791,-0.41393 0.973868,-0.63471 1.117946,-0.49064 0.400099,0.4001 -4.231312,3.33366 -5.751482,3.64302 -0.737232,0.15003 -1.340422,0.47949 -1.340422,0.73213 0,0.81561 4.242674,-0.90606 5.973958,-2.42422 0.470791,-0.41284 0.983343,-0.62326 1.138998,-0.4676 0.15566,0.15566 -0.282483,0.65355 -0.973653,1.10642 -0.69117,0.45287 -1.135727,1.0191 -0.987901,1.25828 0.743354,1.20278 -5.537619,5.27543 -8.169047,5.2969 -0.72141,0.006 -1.447217,0.23005 -1.612903,0.49813 -0.38418,0.62162 1.441066,0.6233 3.672522,0.003 z m -39.766426,-0.91935 c -0.254681,-0.2357 -1.321968,-0.7034 -2.371748,-1.03933 -2.266219,-0.7252 -6.133838,-4.13075 -6.133838,-5.40102 0,-0.49259 -0.438683,-1.1304 -0.974852,-1.41735 -1.269818,-0.67958 -1.229386,-0.26929 0.211913,2.15059 1.474411,2.47548 3.508054,4.38433 5.679333,5.33083 1.842393,0.80313 4.332497,1.06419 3.589192,0.37628 z m 41.029888,-0.99368 c 2.148906,-0.97582 3.449934,-2.28853 1.827166,-1.84357 -2.265581,0.62123 -3.810079,0.82523 -3.107454,0.41044 0.402127,-0.2374 1.515564,-0.57221 2.474307,-0.74404 0.958738,-0.17182 2.165117,-0.65654 2.680843,-1.07715 0.920378,-0.75062 0.919691,-0.75844 -0.03719,-0.42376 -0.536169,0.18752 -1.940653,0.59819 -3.121082,0.9126 -1.426809,0.38002 -2.550604,1.096 -3.352595,2.13596 -1.098985,1.42508 -1.124877,1.56337 -0.290901,1.55362 0.503506,-0.006 1.820605,-0.42173 2.926891,-0.9241 z m -27.30199,-1.86409 c -0.04124,-1.3533 -0.407044,-2.12389 -1.417391,-2.98587 -1.952985,-1.66621 -3.337972,-4.68252 -3.630291,-7.90626 -0.425226,-4.68943 0.592047,-6.83007 1.827906,-3.84645 0.70921,1.71219 3.52373,4.27316 3.796592,3.45457 0.100097,-0.30028 0.367441,-0.43134 0.594104,-0.29126 0.226663,0.14009 0.570834,-0.002 0.76482,-0.31599 0.21456,-0.34716 0.141875,-0.44038 -0.185578,-0.23801 -0.745104,0.4605 -1.56126,-1.23758 -1.279557,-2.66224 l 0.232439,-1.17551 -0.4989,1.13302 c -0.344079,0.7814 -0.337625,1.46207 0.02081,2.19341 0.290506,0.59276 -0.36301,0.14697 -1.481873,-1.01084 -1.753725,-1.81479 -1.935735,-2.20709 -1.469931,-3.16827 0.48167,-0.99393 0.466423,-1.01635 -0.162225,-0.23862 -0.624783,0.77294 -0.756626,0.78277 -1.324288,0.0988 -0.503053,-0.60615 -0.711471,-0.63186 -1.031554,-0.12727 -0.28223,0.44492 -0.403346,0.46028 -0.408595,0.0518 -0.0039,-0.31928 0.191285,-0.70335 0.434199,-0.85348 0.242919,-0.15013 0.325796,-0.71605 0.184179,-1.2576 -0.363196,-1.388866 -1.336406,-0.47017 -2.370592,2.23781 -1.999315,5.23514 0.474889,14.17553 4.787572,17.29963 1.087736,0.78795 2.134318,1.43264 2.325735,1.43264 0.191422,0 0.323017,-0.82082 0.292441,-1.82404 z m -6.540824,-13.04246 c 0.0099,-0.80425 0.119175,-1.07426 0.242757,-0.60001 0.123582,0.47425 0.115457,1.13228 -0.01804,1.46228 -0.13352,0.33 -0.234632,-0.058 -0.224698,-0.86227 z m 0.216134,-2.43713 c 0.154314,-0.40213 0.366769,-0.73114 0.472131,-0.73114 0.105357,0 0.191563,0.32901 0.191563,0.73114 0,0.40213 -0.212459,0.73114 -0.472131,0.73114 -0.259666,0 -0.345872,-0.32901 -0.191563,-0.73114 z m -21.914854,15.5956 c -1.292703,-0.3553 -3.207239,-1.21305 -4.254528,-1.90612 -2.0588199,-1.36246 -2.6588463,-1.56563 -2.1388211,-0.72422 0.5366461,0.86832 6.1998901,3.36653 7.5251481,3.31955 0.813407,-0.0289 0.437099,-0.25799 -1.131799,-0.68921 z m 68.887247,0.19843 c 1.467123,-0.46075 2.628913,-0.71961 3.980648,-0.88691 0.887384,-0.10984 3.349827,-2.69145 3.125299,-3.27655 -0.140759,-0.36682 0.285836,-1.68587 0.948,-2.93123 0.662163,-1.24535 1.203932,-2.82133 1.203932,-3.50216 v -1.23788 l -0.969559,1.0407 c -0.533253,0.57238 -0.841989,1.37313 -0.686076,1.77943 0.510272,1.32974 -6.978027,8.38955 -7.910102,7.45748 -0.117724,-0.11773 0.429349,-0.48055 1.215718,-0.80627 0.78637,-0.32573 1.944948,-1.15304 2.574614,-1.83847 0.648423,-0.70584 0.82782,-1.12125 0.413718,-0.958 -0.402127,0.15853 -1.619157,0.55131 -2.704513,0.87284 -2.02178,0.59894 -3.63111,2.58235 -2.479128,3.05541 0.304203,0.12491 0.192709,0.24443 -0.247753,0.26559 -0.924082,0.0444 -1.666228,1.50077 -0.764772,1.50077 0.328462,0 1.363448,-0.24064 2.299974,-0.53475 z m 4.383618,-2.55905 c 0.938295,-0.96223 1.908731,-1.75648 2.156524,-1.76499 0.624978,-0.0215 -1.695019,2.39909 -2.887663,3.01283 -0.561993,0.28921 -0.25235,-0.23926 0.731139,-1.24784 z m -71.895353,1.63152 c -0.165686,-0.26809 -0.672151,-0.48825 -1.125477,-0.48925 -2.22377,-0.005 -6.4979362,-3.62914 -8.1892805,-6.944 -1.3497413,-2.64536 -1.1494433,-2.95097 0.5839317,-0.89097 1.1482053,1.36457 4.7509328,3.44996 5.9601588,3.44996 1.043726,0 0.602118,-0.90352 -0.51946,-1.06281 -0.603189,-0.0857 -1.102002,-0.48477 -1.108465,-0.8869 -0.0068,-0.42317 -0.407981,-0.69564 -0.952402,-0.64687 -1.283573,0.11498 -3.4643857,-1.51984 -5.1720099,-3.87715 -1.6876398,-2.32972 -1.7452682,-1.99689 -0.4053728,2.34118 1.2200519,3.95008 4.3642377,7.44391 7.7862177,8.65208 2.576126,0.90953 3.55322,1.01984 3.142159,0.35473 z m -0.978006,-1.82785 c -0.193138,-0.46915 -0.461529,-1.23685 -0.596424,-1.70599 -0.134891,-0.46915 -0.669256,-0.853 -1.187468,-0.853 -1.185844,0 -3.702601,-1.25767 -5.2349665,-2.616 l -1.1728983,-1.03969 0.9291853,1.61327 c 1.1715535,2.03408 2.3658645,3.131 4.8213755,4.42822 2.36468,1.24922 2.89981,1.28719 2.441196,0.17319 z m 40.561867,-1.51286 c 1.847554,-2.41551 2.572059,-4.73154 2.575778,-8.23405 l 0.0029,-2.55737 -2.43713,2.52848 c -1.340422,1.39067 -2.437131,2.70599 -2.437131,2.92294 0,0.88882 1.004122,0.29105 2.245928,-1.33705 0.899101,-1.17878 1.436868,-1.54353 1.684632,-1.14264 0.793096,1.28325 -2.149632,7.74841 -3.52682,7.74841 -0.277599,0 0.176019,-0.77533 1.008046,-1.72295 0.832022,-0.94762 1.515764,-1.98949 1.519424,-2.31527 0.0039,-0.32578 0.144624,-1.14068 0.313245,-1.81089 l 0.306585,-1.21857 -1.483749,1.38558 c -0.856944,0.80024 -1.57406,2.03572 -1.69752,2.92455 -0.301989,2.17409 -0.549012,2.95455 -1.050081,3.31765 -0.627635,0.4548 0.07635,1.99666 0.802425,1.75744 0.334964,-0.11036 1.313106,-1.12117 2.173647,-2.24626 z m -12.836904,-0.34041 c -0.429978,-0.65623 -0.971435,-1.19314 -1.20324,-1.19314 -0.614776,0 -2.255092,-3.41054 -2.64824,-5.50622 -0.437216,-2.33057 0.234086,-2.32338 2.117652,0.0227 0.807134,1.00531 1.636402,1.6596 1.842812,1.45397 0.206415,-0.20564 -0.542364,-1.25565 -1.663951,-2.33337 -1.121587,-1.07772 -2.039249,-2.17069 -2.039249,-2.42882 0,-0.25813 -0.219342,-0.46933 -0.487427,-0.46933 -0.726523,0 -0.588835,3.87255 0.235149,6.61364 0.740142,2.46218 3.373545,5.80922 4.178968,5.31144 0.249508,-0.15421 0.101662,-0.80827 -0.332474,-1.47084 z m 21.084036,-1.5361 c -0.151219,-0.15122 0.56618,-1.23051 1.59422,-2.39843 1.827682,-2.07636 2.468116,-3.94512 2.480302,-7.23745 l 0.0054,-1.44888 -0.804799,1.20517 c -1.172884,1.75636 -3.700988,4.37343 -4.224756,4.37343 -0.24832,0 -0.178437,-0.32901 0.155298,-0.73114 0.333736,-0.40212 0.456636,-0.73114 0.27311,-0.73114 -0.183526,0 0.325269,-0.9322 1.130658,-2.07156 0.87027,-1.23114 1.708648,-3.28589 2.066526,-5.06478 0.535798,-2.663237 0.501708,-3.254324 -0.309243,-5.361687 l -0.911428,-2.368466 -0.389346,1.843688 c -0.467651,2.214499 -1.627409,4.600387 -2.929153,6.025935 -0.803015,0.87939 -0.879142,1.31982 -0.478775,2.76983 0.261836,0.94829 0.351605,1.84863 0.199484,2.00075 -0.152125,0.15212 -0.02993,0.27659 0.271531,0.27659 0.826831,0 2.876984,-3.88128 3.218328,-6.092828 l 0.300927,-1.949704 -0.926987,1.706503 c -0.509842,0.938573 -1.422187,2.144949 -2.027434,2.680839 -0.8406,0.74428 -0.753366,0.48989 0.369459,-1.07736 0.80845,-1.128443 1.752302,-2.733474 2.097449,-3.566739 1.006252,-2.429306 1.427549,-0.720572 0.648583,2.6306 -0.40526,1.743479 -1.273956,3.710919 -2.085818,4.724009 -1.061229,1.32427 -1.380659,2.22048 -1.346412,3.77756 0.02471,1.12276 0.213575,2.04138 0.419732,2.04138 0.206162,0 1.356556,-1.02451 2.556433,-2.27669 l 2.181593,-2.27669 -0.611993,1.78016 c -0.336592,0.97909 -0.773906,1.94208 -0.971801,2.13998 -0.1979,0.1979 -0.199318,-0.0584 -0.0029,-0.56963 0.287791,-0.74997 -0.01311,-0.65352 -1.558375,0.49951 -2.395577,1.78752 -2.682905,2.17288 -2.523341,3.3842 0.07063,0.53617 -0.202292,1.26694 -0.60649,1.62393 -0.637768,0.56328 -0.606051,0.60542 0.239945,0.31881 2.257129,-0.76468 2.345763,-0.73069 0.609283,0.23369 -2.468726,1.37106 -2.332944,1.75676 0.169093,0.48032 1.098312,-0.56032 1.873208,-1.14249 1.721988,-1.29371 z m -1.187979,-1.28992 c 0.45373,-0.34486 1.292971,-1.16041 1.864985,-1.81234 0.572014,-0.65193 0.881013,-0.85632 0.686662,-0.45419 -0.569095,1.17751 -2.283343,2.92587 -2.852286,2.90905 -0.288376,-0.009 -0.153086,-0.29766 0.300639,-0.64252 z m -26.902256,2.66866 c 0,-0.23458 -0.614796,-0.54946 -1.366207,-0.69974 -0.780238,-0.15605 -2.34818,-1.32305 -3.655696,-2.72089 -1.419424,-1.51748 -2.289489,-2.14891 -2.289489,-1.66155 0,1.24007 2.413173,4.08117 4.084202,4.80845 1.757634,0.76497 3.22719,0.88961 3.22719,0.27373 z m 50.794428,-0.62237 c 0.458287,-0.23462 1.10634,-0.36878 1.440124,-0.29814 0.33378,0.0706 0.616843,-0.13318 0.629029,-0.45294 0.01219,-0.31977 0.515672,-1.04117 1.118862,-1.60313 1.452462,-1.35317 1.396369,-1.77965 -0.104709,-0.79611 -1.395062,0.91408 -1.916598,1.00713 -1.454543,0.25951 0.179368,-0.29022 -0.35604,-0.17492 -1.189802,0.25623 -0.833757,0.43116 -1.515925,0.89568 -1.515925,1.03226 0,0.1366 0.457469,0.003 1.016601,-0.29572 0.559126,-0.29923 1.141893,-0.41876 1.295032,-0.26562 0.15314,0.15313 -0.852683,0.74851 -2.23516,1.32304 -1.382482,0.57453 -2.513603,1.23888 -2.513603,1.47633 0,0.45945 2.126216,0.0748 3.514094,-0.63571 z m -12.393487,-0.88029 c 1.672529,-1.21157 4.492558,-4.9838 4.492558,-6.00949 0,-0.16385 -0.820694,0.45396 -1.823769,1.37289 -1.003069,0.91894 -2.395987,1.90781 -3.09537,2.19751 -0.809742,0.3354 -1.45855,1.13583 -1.786305,2.20376 -0.283087,0.92239 -0.348802,1.67706 -0.146033,1.67706 0.20277,0 1.264281,-0.64878 2.358919,-1.44173 z m -38.888367,0.0123 c 0,-0.25002 -0.429052,-0.59075 -0.953445,-0.75719 -1.322324,-0.41969 -3.36944,-2.95794 -4.722828,-5.85591 -1.161795,-2.48771 -1.672905,-1.68859 -0.646561,1.0109 1.111088,2.92239 6.322834,7.54013 6.322834,5.6022 z m 6.926164,-1.48305 c 0.168908,-1.15084 -0.113663,-1.76666 -1.368863,-2.98325 l -1.581708,-1.53305 0.400484,1.77569 c 0.35821,1.58826 1.699655,4.19081 2.160088,4.19081 0.09744,0 0.272934,-0.65259 0.389999,-1.4502 z m -17.649539,0.54809 c 0,-1.67739 -1.291202,-3.57748 -3.185432,-4.68758 -1.172221,-0.68696 -2.482671,-1.73923 -2.912103,-2.33836 -0.77395,-1.07979 -0.777913,-1.07652 -0.452239,0.37295 0.519133,2.31048 2.560435,5.52484 4.007272,6.3101 1.50076,0.81451 2.542502,0.95501 2.542502,0.34289 z m 62.697939,-1.65687 c 1.488439,-0.99604 2.956522,-2.57138 3.954498,-4.24342 1.340012,-2.2451 1.582409,-3.11814 1.556322,-5.6054 -0.02145,-2.047154 -0.153558,-2.643495 -0.432897,-1.954343 -0.550563,1.358273 -1.973335,2.547803 -1.973335,1.649833 0,-0.35532 -0.877367,0.21069 -1.949705,1.2578 -1.072337,1.04711 -1.949704,2.12318 -1.949704,2.39126 0,0.26809 0.877367,-0.3693 1.949704,-1.41641 1.072338,-1.04711 1.949705,-1.65862 1.949705,-1.35891 0,0.69185 -4.342139,4.54013 -5.064743,4.4887 -0.297364,-0.0212 -0.241661,-0.15738 0.123777,-0.30272 0.428082,-0.17023 0.48223,-0.37684 0.152218,-0.5808 -0.300615,-0.18579 0.498247,-1.4199 1.933815,-2.98741 3.297696,-3.600776 3.972377,-5.029992 3.925783,-8.316186 -0.03568,-2.5152 -1.423679,-7.254783 -1.518517,-5.185198 -0.08377,1.828219 -2.640309,7.010629 -4.316475,8.750034 -0.964022,1.000398 -1.60293,1.968738 -1.419795,2.15187 0.588592,0.5886 3.993424,-3.470188 4.695415,-5.597242 0.993833,-3.011349 1.822101,-1.851782 1.07187,1.50061 -0.567691,2.536721 -4.318001,8.168392 -5.439588,8.168392 -0.264166,0 -0.4803,0.32901 -0.4803,0.73114 0,0.40213 0.199932,0.73114 0.444299,0.73114 0.505231,0 0.444025,0.92308 -0.121204,1.82785 -0.958621,1.53448 1.665487,0.0724 4.506274,-2.51079 1.397924,-1.27117 1.534091,-1.321 0.859445,-0.31452 -0.793559,1.18388 -4.476093,3.92202 -5.274736,3.92202 -0.227745,0 -0.414078,0.65802 -0.414078,1.46228 0,1.78939 0.190018,1.80096 2.563603,0.15606 2.106519,-1.45981 4.509057,-5.14146 4.081789,-6.25491 -0.328778,-0.85678 0.102287,-2.1874 0.70863,-2.1874 0.515297,0 0.26844,2.1882 -0.450776,3.99578 -0.751261,1.88812 -3.742994,5.04942 -5.446232,5.75492 -0.801358,0.33193 -1.457014,0.79625 -1.457014,1.03181 0,0.75498 0.808659,0.46578 3.231952,-1.15584 z m -12.027708,-3.50723 c 0.850549,-1.02485 0.09344,-0.96169 -1.14162,0.0952 -0.548213,0.46915 -0.09439,-0.19427 1.008485,-1.47427 3.062747,-3.55462 3.727513,-5.30545 3.455875,-9.101917 -0.127125,-1.7768 -0.522715,-3.770586 -0.879087,-4.430636 -0.632826,-1.172084 -0.667764,-1.133704 -1.497227,1.644615 -0.853717,2.859578 -2.182797,4.8939 -2.905508,4.447242 -0.213732,-0.132097 -0.547321,0.01662 -0.741307,0.330519 -0.213546,0.345522 -0.141953,0.440433 0.181464,0.240554 0.332366,-0.205416 0.511227,0.08839 0.473446,0.777683 -0.03339,0.6093 -0.01945,2.20453 0.031,3.54495 l 0.09171,2.43713 1.194852,-1.46228 c 1.395482,-1.70781 2.597231,-4.965892 2.314645,-6.275259 -0.155815,-0.721971 -0.448583,-0.491965 -1.395954,1.096708 -0.659331,1.105661 -1.443927,2.010281 -1.743548,2.010281 -0.29962,0 -0.0935,-0.49352 0.458035,-1.09671 1.332442,-1.457217 2.565007,-3.950547 2.63855,-5.337479 0.03271,-0.616502 0.24729,0.165495 0.476892,1.737771 0.352312,2.412623 0.261461,3.221298 -0.582235,5.182528 -0.549831,1.27811 -1.641797,2.93902 -2.426597,3.6909 -1.640891,1.57208 -2.046654,3.98779 -0.533825,3.17814 0.491199,-0.26287 1.176082,-0.81895 1.521964,-1.23571 z m -18.439471,-2.31349 c 0.848287,-1.18381 0.874072,-1.46963 0.263804,-2.92456 l -0.676371,-1.61251 0.04723,1.54185 c 0.02598,0.84801 0.214824,1.43826 0.419679,1.31165 0.73304,-0.45304 0.350951,0.40801 -0.921104,2.07576 -1.525731,2.00034 -2.013347,1.70823 -2.125972,-1.27357 -0.188731,-4.996608 -0.02169,-6.452057 0.708323,-6.171924 0.451142,0.17312 0.774764,-0.112166 0.908474,-0.800846 0.179797,-0.926031 0.216622,-0.897683 0.274085,0.210983 0.03651,0.704404 0.393197,1.551974 0.792643,1.883483 0.600649,0.498494 0.80607,0.403434 1.187666,-0.549603 0.253774,-0.633785 0.475309,-0.863748 0.492301,-0.511017 0.01701,0.352731 -0.208765,1.089139 -0.501684,1.636464 -0.352004,0.65772 -0.368723,1.159 -0.04931,1.47841 0.792994,0.793 1.24358,-2.402457 0.568554,-4.032108 -0.325796,-0.786545 -0.730257,-1.446866 -0.898795,-1.467377 -0.168537,-0.02052 -0.690248,-0.110767 -1.159352,-0.200571 -0.469104,-0.0898 -1.081837,0.201156 -1.361625,0.646576 -0.391954,0.623993 -0.44132,0.456787 -0.215101,-0.728566 0.22775,-1.193375 0.05653,-1.759285 -0.763407,-2.523172 -0.581353,-0.541614 -1.307121,-0.890856 -1.61282,-0.776094 -0.305699,0.114763 -0.929463,-0.449708 -1.386142,-1.25438 -0.922035,-1.62463 -1.833955,-1.920318 -1.881416,-0.610043 -0.02223,0.613235 -0.180085,0.510479 -0.561671,-0.36557 -0.437368,-1.004121 -0.566886,-1.068454 -0.735979,-0.365569 -0.192758,0.801225 -1.19649,1.275095 -1.032452,0.487426 0.04187,-0.201063 -0.26884,-1.133266 -0.690478,-2.071561 l -0.766614,-1.705992 -0.32835,1.305115 c -0.180596,0.717812 -0.09589,1.70485 0.18823,2.193417 0.28412,0.488567 0.523256,0.614126 0.531406,0.279021 0.0081,-0.335106 0.222973,-0.609283 0.477376,-0.609283 0.254787,0 0.173757,0.711562 -0.180392,1.584135 -0.353623,0.871274 -0.547994,1.913148 -0.431937,2.315274 0.13316,0.461379 -0.09252,0.371458 -0.611657,-0.243713 -0.808728,-0.958324 -0.81792,-0.954192 -0.542291,0.243713 0.26382,1.146562 0.239517,1.16389 -0.411275,0.293243 -0.57198,-0.765189 -0.82084,-0.818125 -1.438049,-0.305887 -0.41051,0.34069 -0.746376,1.044208 -0.746376,1.56337 0,0.519168 -0.183599,0.830467 -0.40799,0.691785 -0.556002,-0.343631 -2.596543,1.133154 -2.277971,1.648616 0.140198,0.226844 0.0015,0.496902 -0.308127,0.600124 -0.692325,0.230772 -0.127749,3.794991 0.601133,3.794991 0.289926,0 0.361987,-0.66862 0.177852,-1.65017 -0.180757,-0.963514 -0.0974,-1.781303 0.200337,-1.965311 0.28045,-0.173329 0.386354,-0.637135 0.235339,-1.030678 -0.181103,-0.471935 0.03358,-0.712987 0.630569,-0.708064 0.693719,0.0057 0.750675,0.105343 0.243825,0.426498 -0.461013,0.292114 -0.497921,0.520025 -0.121857,0.752444 0.809474,0.500285 0.649466,1.397237 -0.191675,1.074458 -0.50299,-0.193016 -0.731139,0.03042 -0.731139,0.716063 0,0.97221 0.03446,0.96885 1.406999,-0.137152 0.845948,-0.681675 1.23468,-1.318429 0.974852,-1.596837 -0.237678,-0.25468 -0.432147,-0.680452 -0.432147,-0.946157 0,-0.265706 0.295532,-0.07894 0.656739,0.415038 0.458278,0.626738 0.762256,0.727406 1.005925,0.333136 0.192056,-0.310753 0.0062,-0.908001 -0.41302,-1.327222 -0.839319,-0.839319 -1.057032,-2.3946 -0.266842,-1.906236 0.272457,0.168391 0.369187,0.510345 0.214946,0.759907 -0.154237,0.249558 -0.07161,0.453745 0.183613,0.453745 0.926353,0 1.058012,1.629515 0.232,2.871379 -0.465238,0.699461 -0.875485,1.491089 -0.911667,1.759169 -0.03617,0.26808 -0.10255,0.81644 -0.14749,1.21857 -0.07263,0.6499 -0.134203,0.6499 -0.554204,0 -0.259876,-0.40213 -0.475859,-0.49352 -0.479963,-0.2031 -0.01267,0.89677 0.60219,1.19587 1.288111,0.62661 0.359774,-0.29858 0.654131,-0.96242 0.654131,-1.4752 0,-0.51277 0.32501,-1.428343 0.722243,-2.034599 0.397233,-0.606256 0.631607,-1.572924 0.52083,-2.148155 -0.145131,-0.753595 -0.0064,-0.971046 0.496321,-0.778122 0.394996,0.151575 0.697736,0.91483 0.697736,1.759116 0,2.114264 0.422301,1.432404 0.546814,-0.882909 0.05712,-1.062229 0.333073,-2.370007 0.613217,-2.906176 0.280148,-0.536169 0.4729,-1.108924 0.428345,-1.272789 -0.04455,-0.163866 0.396799,-0.273537 0.980789,-0.243713 1.169038,0.0597 1.480679,1.272937 1.541402,6.000822 0.01789,1.394039 0.175795,2.381075 0.350869,2.193415 0.453881,-0.486517 0.731456,-4.925 0.290969,-4.652738 -0.201063,0.124274 -0.36557,-0.228871 -0.36557,-0.784761 0,-0.997291 0.02427,-0.995395 1.827848,0.142757 1.174502,0.741176 1.868402,1.571287 1.941307,2.322371 0.09811,1.010766 0.06019,1.041854 -0.2803,0.229793 -0.232234,-0.553887 -0.378744,1.145622 -0.357171,4.143118 0.02696,3.7449 0.216344,5.22298 0.719709,5.61711 0.496098,0.38844 0.529457,0.62985 0.121857,0.88176 -0.308697,0.19079 -0.561267,0.15116 -0.561267,-0.0881 0,-0.23923 -0.329012,-0.43496 -0.731139,-0.43496 -1.011326,0 -0.92046,0.69769 0.121857,0.9356 0.928761,0.212 2.601417,-1.07521 4.081901,-3.14125 z m -0.304349,-6.730491 c -0.165686,-0.268084 -0.06896,-0.487426 0.214945,-0.487426 0.283906,0 0.516194,0.219342 0.516194,0.487426 0,0.268084 -0.09672,0.487426 -0.214945,0.487426 -0.118221,0 -0.350508,-0.219342 -0.516194,-0.487426 z m -3.129787,-4.183759 c 0.0234,-0.567825 0.138887,-0.683324 0.294483,-0.294488 0.140803,0.351863 0.123489,0.772268 -0.03846,0.934235 -0.161972,0.161966 -0.27717,-0.125922 -0.256006,-0.639747 z m -1.500761,-0.690522 c 0,-0.268084 0.232288,-0.487426 0.516194,-0.487426 0.283906,0 0.380631,0.219342 0.214945,0.487426 -0.165686,0.268085 -0.397974,0.487426 -0.516194,0.487426 -0.11822,0 -0.214945,-0.219341 -0.214945,-0.487426 z m -1.462278,-1.137327 c 0,-0.446808 -0.219342,-0.812377 -0.487427,-0.812377 -0.268084,0 -0.487426,-0.219342 -0.487426,-0.487426 0,-0.268085 0.204563,-0.487427 0.454579,-0.487427 0.548851,0 1.215109,1.90477 0.808493,2.311388 -0.15852,0.158521 -0.288219,-0.07735 -0.288219,-0.524158 z m 15.110209,12.716189 c 0,-0.2719 -0.32329,-0.21912 -0.731139,0.11936 -0.402127,0.33374 -0.731139,0.82614 -0.731139,1.09422 0,0.2719 0.32329,0.21912 0.731139,-0.11936 0.402126,-0.33374 0.731139,-0.82614 0.731139,-1.09422 z m -31.195272,-0.36806 c 0,-0.53617 -0.210095,-0.97485 -0.466881,-0.97485 -0.746074,0 -2.949971,-4.11403 -2.895209,-5.404516 0.04187,-0.987267 0.108331,-0.93076 0.414434,0.352497 0.654721,2.744769 3.435082,5.859099 3.435082,3.847699 0,-0.73608 -2.878266,-5.247046 -3.533839,-5.53841 -0.201063,-0.08937 -0.360574,-0.637719 -0.354471,-1.218565 0.0094,-0.890928 0.127725,-0.81971 0.756817,0.455358 1.066849,2.16233 3.456719,4.890967 3.901407,4.454437 0.207668,-0.20386 -0.207629,-0.98148 -0.922887,-1.728053 -0.715259,-0.746566 -1.657995,-2.406686 -2.094977,-3.689148 -0.887725,-2.605336 -1.483696,-2.478848 -2.14547,0.455353 -0.561778,2.49087 0.0915,5.651158 1.657288,8.017228 1.407384,2.1267 2.248706,2.48997 2.248706,0.97097 z m 20.867824,-2.55899 c -0.04236,-2.11975 -0.196316,-3.046222 -0.38475,-2.31527 -0.307751,1.19378 -0.09192,5.84911 0.27117,5.84911 0.101307,0 0.152413,-1.59023 0.11358,-3.53384 z m -10.233862,-0.23812 c 0.08486,-1.80365 0.05909,-3.173369 -0.05726,-3.043826 -0.417047,0.464322 -0.868326,6.328306 -0.486817,6.325776 0.214375,-0.001 0.459209,-1.47829 0.544075,-3.28195 z m 7.352262,-1.34086 c -0.0084,-2.275887 0.142582,-4.393524 0.335618,-4.705862 0.208584,-0.337494 0.139559,-0.437226 -0.170132,-0.245828 -0.286611,0.177135 -0.594674,0.100112 -0.684595,-0.17116 -0.08992,-0.271272 -0.11959,1.536933 -0.06593,4.018229 0.119727,5.537151 0.09875,5.242591 0.373281,5.242591 0.124918,0 0.220209,-1.86209 0.211762,-4.13797 z m 36.350773,-2.680567 c 0.343611,-0.673199 0.771625,-1.991692 0.951144,-2.929987 l 0.3264,-1.705991 -0.922649,1.949704 c -0.507454,1.072338 -1.832059,2.769638 -2.943556,3.771782 -1.511904,1.363159 -1.994148,2.145389 -1.914669,3.105729 0.10469,1.26492 0.133774,1.25263 1.992413,-0.84179 1.037394,-1.169 2.167306,-2.676248 2.510917,-3.349447 z M 49.026959,52.443896 c 0.05173,-1.481512 -0.02681,-2.572782 -0.174557,-2.425046 -0.147739,0.147737 -0.304968,1.474789 -0.349407,2.94901 -0.04445,1.474215 0.03412,2.565489 0.174557,2.425047 0.140442,-0.140442 0.297676,-1.467499 0.349407,-2.949011 z m 26.352045,-1.436664 c 1.300852,-4.38044 0.597565,-8.408341 -1.982518,-11.354382 l -1.618426,-1.847983 0.26053,2.680844 c 0.194073,1.997029 -0.0015,3.422513 -0.765908,5.588506 -1.189466,3.369476 -1.156009,3.185164 -0.578189,3.185164 0.658376,0 1.973296,-4.297439 2.069991,-6.765171 0.07526,-1.92073 0.149572,-2.044204 0.74237,-1.233505 1.745302,2.386847 1.915579,7.939939 0.337932,11.020883 -0.370692,0.723921 -0.667013,1.710959 -0.658488,2.193418 0.01423,0.806568 0.07432,0.799388 0.745928,-0.08918 0.401736,-0.531514 1.052786,-2.051878 1.446778,-3.378594 z m -49.99831,2.109809 c -0.299236,-0.559126 -0.667223,-0.893442 -0.817745,-0.742915 -0.150527,0.150522 0.0039,0.607991 0.342885,1.016595 0.876304,1.055882 1.113315,0.919281 0.47486,-0.27368 z M 85.69645,52.79322 c 0.380149,-0.469148 1.249439,-2.059375 1.931758,-3.533839 1.712089,-3.699757 1.709657,-7.198539 -0.0076,-10.949539 -0.716829,-1.565762 -1.381756,-2.758603 -1.477618,-2.650759 -0.09586,0.107844 -0.297803,1.657451 -0.448754,3.443573 -0.31203,3.692013 -2.072019,7.846039 -2.837234,6.696617 -0.302774,-0.454794 -0.345419,-0.194413 -0.127623,0.779264 0.438313,1.959515 0.435925,1.958893 1.510607,0.393633 1.066303,-1.553056 2.063479,-4.702237 2.148993,-6.786724 l 0.05767,-1.405727 0.372086,1.462279 c 0.552225,2.170213 0.549422,6.581214 -0.0055,8.578744 -0.268094,0.965128 -0.966366,2.171507 -1.551711,2.680843 -1.026905,0.893549 -1.024399,0.868695 0.07138,-0.707855 0.871673,-1.254131 1.174058,-2.443771 1.300901,-5.117977 l 0.165262,-3.484051 -0.714445,2.154679 c -0.392944,1.185074 -1.181428,2.651761 -1.75219,3.259305 -0.962199,1.024216 -0.994642,1.28428 -0.445688,3.572579 0.32563,1.357375 0.710502,2.467951 0.855272,2.467951 0.144771,0 0.574247,-0.383848 0.9544,-0.852996 z M 74.193286,48.935466 c 0.390448,-2.216614 0.367544,-3.465887 -0.09323,-5.084882 l -0.610857,-2.146308 -0.351171,2.193418 c -0.193142,1.206379 -0.720167,3.107844 -1.171168,4.225477 -0.771337,1.911469 -0.770109,2.108202 0.02072,3.315155 1.089115,1.662197 1.567718,1.119121 2.205715,-2.50286 z m -58.051344,2.517332 c 0,-0.402126 -0.178954,-0.731139 -0.397672,-0.731139 -0.218718,0 -0.876743,-0.852396 -1.462278,-1.894213 -1.256039,-2.234821 -1.464048,-7.279822 -0.404091,-9.80072 0.632347,-1.503912 0.673101,-1.522797 0.955521,-0.442817 0.162249,0.620449 0.194029,1.229061 0.07062,1.35247 -0.123411,0.12341 -0.22774,-0.08635 -0.231844,-0.466139 -0.0061,-0.568565 -0.09091,-0.561391 -0.479964,0.04062 -0.81019,1.253681 -0.573335,6.897297 0.366325,8.728599 1.057413,2.060783 1.612825,2.150153 2.210955,0.355763 0.365219,-1.095661 0.256869,-1.776045 -0.504554,-3.16827 -1.017253,-1.86 -1.998944,-5.818042 -1.104659,-4.453814 0.263605,0.402127 0.48264,1.12588 0.486749,1.608341 0.0094,1.108369 1.357404,3.753347 1.912836,3.753347 0.757343,0 0.901216,-1.77961 0.240291,-2.972264 -0.356864,-0.643972 -0.656617,-0.991932 -0.666117,-0.773245 -0.0095,0.218688 0.223958,0.848347 0.518787,1.399244 0.334092,0.62426 0.348135,0.885488 0.03729,0.693361 -1.018116,-0.629231 -2.121834,-5.179846 -1.956499,-8.066616 0.195668,-3.416264 -0.244712,-3.261239 -2.309035,0.812847 -1.172006,2.313035 -1.415929,3.377738 -1.370491,5.982116 0.07684,4.404475 0.354914,6.288206 0.880555,5.964951 0.246618,-0.151666 0.314492,0.0732 0.150829,0.499705 -0.163663,0.426503 0.01838,1.037699 0.404593,1.358206 0.386192,0.320512 0.702166,0.402351 0.702166,0.181869 0,-0.220488 0.263211,-0.137674 0.584912,0.184027 0.796069,0.79607 1.364793,0.735132 1.364793,-0.146227 z m 12.084648,-1.186196 1.057178,-1.429909 -0.954809,-2.10393 c -0.525143,-1.157162 -0.968408,-2.871626 -0.98503,-3.809922 l -0.03022,-1.705991 -0.758435,1.400061 c -0.964738,1.780877 -1.07611,5.447605 -0.227687,7.495886 0.360798,0.871044 0.697809,1.583714 0.748911,1.583714 0.0511,0 0.568646,-0.643456 1.150092,-1.429909 z m 34.236372,-9.315289 c 0.527624,-0.740976 0.959313,-1.553541 0.959313,-1.8057 0,-0.252158 0.909801,-1.863361 2.02178,-3.580452 2.528494,-3.904437 6.264464,-11.515054 6.264464,-12.761463 0,-2.761864 -2.177732,-4.940924 -5.322956,-5.326203 -0.892053,-0.109273 -1.225828,-0.492035 -1.368386,-1.569242 -0.406459,-3.071256 -2.089922,-4.546132 -5.410371,-4.740007 -1.736577,-0.101396 -2.22994,-0.356105 -2.790885,-1.4408573 -1.025954,-1.983977 -3.8131,-3.527491 -5.719141,-3.167248 -2.139986,0.404457 -4.570463,1.959984 -5.59187,3.5788383 -0.620293,0.983121 -1.277641,1.364534 -2.443789,1.417956 -2.243559,0.102778 -4.002416,1.41357 -4.873973,3.632345 -0.596878,1.519507 -0.999945,1.903435 -2.012817,1.917248 -2.965471,0.04044 -5.401135,2.821579 -5.406394,6.173229 -0.0044,2.861282 2.731258,10.055146 6.450554,16.962241 4.428222,8.223634 5.244052,9.504809 6.052511,9.504809 0.391467,0 0.577751,-0.216829 0.413966,-0.481843 -0.170764,-0.276302 0.02491,-0.358018 0.458659,-0.191564 0.416052,0.159654 0.756456,0.04747 0.756456,-0.249296 0,-0.296766 -0.242807,-0.539575 -0.539576,-0.539575 -0.296765,0 -0.413323,-0.329013 -0.259009,-0.731139 0.15431,-0.402127 0.04465,-0.73114 -0.243713,-0.73114 -0.288356,0 -0.398027,-0.329012 -0.243713,-0.731139 0.15431,-0.402126 0.0681,-0.731139 -0.191568,-0.731139 -0.259666,0 -0.472126,0.246199 -0.472126,0.547109 0,0.364195 -0.259155,0.332029 -0.775154,-0.09621 -0.70648,-0.586327 -0.702137,-0.696712 0.04904,-1.245988 0.765951,-0.560076 0.754365,-0.677618 -0.163887,-1.663246 -0.543441,-0.583319 -0.87106,-1.365532 -0.728029,-1.738252 0.229309,-0.597573 -0.349402,-0.900571 -1.413834,-0.740245 -0.193059,0.02908 -0.58901,-0.438465 -0.879887,-1.038987 -0.481708,-0.994495 -0.466608,-1.014782 0.169342,-0.227507 0.662597,0.820264 0.711374,0.814014 0.956286,-0.122529 0.141939,-0.542784 0.10001,-0.889192 -0.09318,-0.769795 -0.193187,0.119397 -0.871581,-0.964724 -1.507541,-2.409158 -0.635959,-1.444433 -1.309953,-2.531272 -1.497768,-2.415197 -0.187815,0.116076 -0.640507,-0.170387 -1.005989,-0.636582 -0.590483,-0.753196 -0.576113,-0.778606 0.128949,-0.228074 0.664059,0.518516 0.830886,0.476423 1.022971,-0.258106 0.126233,-0.482714 -0.08773,-1.174016 -0.475485,-1.536227 -0.585676,-0.547107 -0.593821,-0.729021 -0.04811,-1.074853 0.508297,-0.322123 0.463932,-0.417974 -0.196116,-0.423749 -0.469148,-0.0041 -0.869778,-0.281642 -0.890289,-0.616747 -0.02052,-0.335106 -0.126248,-0.938295 -0.234974,-1.340422 -0.746878,-2.762442 -0.814118,-3.538446 -0.277881,-3.207033 0.311329,0.19241 0.449221,0.538866 0.306435,0.769902 -0.142787,0.231036 -0.05595,0.545938 0.192972,0.699781 0.804862,0.497431 0.244561,-1.302273 -0.597019,-1.917652 -0.447984,-0.327575 -0.814518,-1.064928 -0.814518,-1.638564 0,-0.782166 0.298923,-1.042974 1.195407,-1.042974 1.028781,0 1.171046,0.192505 1.020627,1.381041 -0.118708,0.937983 0.0426,1.381041 0.502848,1.381041 0.515453,0 0.5462,-0.158356 0.128476,-0.661681 -0.302029,-0.363924 -0.425991,-0.784837 -0.275464,-0.935361 0.475031,-0.475029 1.4093,1.781804 1.556902,3.760877 0.07802,1.046032 0.414191,2.230027 0.747054,2.631102 0.418845,0.504678 0.436734,0.729226 0.05809,0.729226 -0.300907,0 -0.547106,-0.255899 -0.547106,-0.568664 0,-0.312765 -0.14093,-0.427737 -0.313172,-0.255493 -0.172246,0.172245 -0.06448,0.612832 0.239483,0.979082 0.303963,0.36625 0.424782,0.793783 0.268493,0.950073 -0.156288,0.15629 -0.02817,0.684463 0.284745,1.173717 0.486398,0.760535 0.531314,0.768102 0.309681,0.05217 -0.142577,-0.460563 -0.07617,-0.950521 0.147564,-1.088798 0.223733,-0.138276 0.549734,0.457889 0.724437,1.324812 0.213137,1.057617 0.445951,1.370327 0.707601,0.950432 0.216354,-0.347203 0.754175,-0.486025 1.20811,-0.311834 0.699627,0.268473 0.790435,0.02906 0.626767,-1.652522 -0.159296,-1.636664 -0.0578,-1.929275 0.605149,-1.744651 0.438099,0.122006 0.322062,-0.02932 -0.257858,-0.336281 -1.281877,-0.678516 -1.674421,-1.940872 -0.988968,-3.180364 0.449036,-0.811985 0.41557,-0.84499 -0.279934,-0.276099 -0.676425,0.553284 -0.784995,0.518264 -0.755554,-0.243713 0.06337,-1.640273 -0.623404,-4.272967 -1.212327,-4.647359 -0.320692,-0.203872 -0.436509,-0.374035 -0.257375,-0.37814 0.179139,-0.0041 0.708639,-0.154409 1.176671,-0.33401 0.625875,-0.240171 0.745426,-0.155785 0.45198,0.319025 -0.267455,0.432747 -0.21085,0.529295 0.171701,0.292865 0.7067,-0.436764 0.256182,-1.260196 -0.689484,-1.260196 -0.817852,0 -0.706397,-1.505056 0.191578,-2.58705 0.594217,-0.715989 2.06753,-0.84961 2.040946,-0.185102 -0.0074,0.184262 -0.0134,0.567308 -0.0134,0.851214 0,0.283906 -0.216832,0.382184 -0.481845,0.218397 -0.278228,-0.171955 -0.356855,0.02792 -0.186065,0.472985 0.262094,0.683001 0.369318,0.672007 0.941541,-0.09654 0.573637,-0.770451 0.624008,-0.688639 0.450952,0.732495 -0.107146,0.879898 -0.02154,1.492737 0.190204,1.361863 0.211757,-0.130874 0.385018,0.06956 0.385018,0.445417 0,0.540619 -0.212128,0.57038 -1.015475,0.142471 -0.877601,-0.467463 -0.933323,-0.441255 -0.410417,0.193031 0.33278,0.403662 0.449138,0.88985 0.258569,1.080416 -0.190564,0.190566 0.0085,0.210267 0.442354,0.04378 0.433858,-0.166487 0.95458,-0.03452 1.157164,0.293263 0.235535,0.381102 0.165443,0.470578 -0.194409,0.248176 -0.309506,-0.191287 -0.562739,-0.102561 -0.562739,0.197167 0,0.299727 -0.253232,0.388453 -0.562738,0.197168 -0.34076,-0.210601 -0.430739,-0.13421 -0.228101,0.193659 0.184047,0.297797 0.692603,0.404083 1.130122,0.236191 0.508761,-0.195229 0.675958,-0.111852 0.463864,0.231321 -0.18239,0.295118 -0.09978,0.679865 0.183579,0.854992 0.283365,0.175128 0.38183,0.738638 0.21882,1.252246 -0.177199,0.558295 -0.06619,0.933832 0.276035,0.933832 0.320283,0 0.44287,0.337601 0.278305,0.766449 -0.161762,0.421547 -0.07599,1.174011 0.190599,1.672142 0.354739,0.662836 0.287917,1.102487 -0.249197,1.639604 -0.45509,0.455087 -0.547311,0.849238 -0.242748,1.037468 0.270141,0.166956 0.491165,0.09474 0.491165,-0.160486 0,-0.762506 1.535314,-1.11452 2.255199,-0.517069 0.503291,0.417694 0.669358,0.412644 0.669358,-0.02035 0,-0.344332 0.244975,-0.418628 0.609282,-0.184782 0.335106,0.215101 1.076549,0.402376 1.647656,0.416167 0.88349,0.02134 0.956194,-0.107862 0.487427,-0.866154 -0.458347,-0.741434 -0.577435,-0.765584 -0.708543,-0.143687 -0.225809,1.071088 -0.833484,0.923613 -1.71068,-0.415157 -0.814718,-1.243417 -0.550621,-2.068357 0.407576,-1.273123 0.421672,0.349957 0.561422,0.156754 0.515014,-0.712011 -0.03505,-0.655761 -0.213551,-1.342151 -0.396716,-1.525313 -0.18316,-0.183162 -0.23857,0.190176 -0.123133,0.829639 0.200741,1.112001 0.179197,1.121927 -0.49445,0.2278 -0.56345,-0.747862 -0.584117,-1.083451 -0.103315,-1.677701 0.404257,-0.499647 0.415955,-0.631904 0.03573,-0.403982 -0.408453,0.244843 -0.543685,-0.540562 -0.487426,-2.830876 0.04284,-1.743353 0.213595,-3.169784 0.379491,-3.169848 0.165895,-6.3e-5 0.200278,-0.877482 0.07641,-1.94982 -0.147495,-1.276902 -0.03139,-1.949704 0.336422,-1.949704 0.308901,0 0.441437,0.194489 0.294527,0.432197 -0.328184,0.531015 1.085264,1.779151 1.52116,1.343253 0.172246,-0.172245 0.09115,-0.313172 -0.180216,-0.313172 -0.376825,0 -0.523067,-2.000721 -0.204861,-2.8027 0.174333,-0.43938 -0.01886,-0.852996 -0.398461,-0.852996 -0.245741,0 -0.61131,-0.164506 -0.812374,-0.365569 -0.201063,-0.201064 -0.10967,-0.36557 0.203091,-0.36557 0.312767,0 0.568666,-0.292456 0.568666,-0.649901 0,-0.357446 0.329013,-0.649902 0.731139,-0.649902 0.402127,0 0.731139,0.182785 0.731139,0.406189 0,0.223403 -0.255898,0.406188 -0.568665,0.406188 -0.312762,0 -0.441218,0.127442 -0.285456,0.283204 0.155762,0.155763 0.76714,0.02421 1.358622,-0.292342 0.623852,-0.333875 0.945046,-0.3646 0.764937,-0.07317 -0.170769,0.276307 -0.07107,0.650342 0.221545,0.83119 0.346848,0.214363 0.137537,0.776272 -0.601328,1.614329 -0.911218,1.033539 -0.934532,1.118792 -0.118961,0.434941 1.037896,-0.870265 1.912061,-0.657495 1.299312,0.316249 -0.393893,0.625959 -0.590253,2.572922 -0.742817,7.365263 -0.09631,3.025083 -0.246804,3.508343 -1.327189,4.261767 -1.174975,0.819386 -0.866731,1.123171 0.895738,0.882776 0.631217,-0.0861 0.581232,0.375053 -0.314136,2.897988 -0.188278,0.530514 0.03071,0.476347 0.798024,-0.197402 0.949823,-0.833989 1.057505,-0.84484 1.057505,-0.106559 0,0.452091 0.282766,0.93049 0.62837,1.063111 0.345605,0.13262 0.661876,0.728926 0.70283,1.325124 0.07246,1.054978 0.05564,1.058668 -0.628371,0.137838 -0.386558,-0.520386 -0.702829,-1.147043 -0.702829,-1.39257 0,-0.245528 -0.383848,-0.287151 -0.852996,-0.09249 -0.469147,0.194656 -1.072337,0.364365 -1.340422,0.377131 -0.268084,0.01277 -0.519557,0.54301 -0.558829,1.178318 -0.06189,1.001225 0.03553,1.072684 0.731139,0.536414 0.546746,-0.421496 0.505724,-0.270862 -0.128705,0.472604 -0.512182,0.600214 -0.817618,1.204924 -0.67874,1.343802 0.138877,0.138877 0.529959,-0.08181 0.869071,-0.490415 0.862544,-1.039301 1.228192,-0.93471 1.901956,0.544041 0.505846,1.110211 0.449651,1.4325 -0.409189,2.346689 -1.108783,1.180245 -1.324332,1.977811 -0.386281,1.429307 0.335106,-0.195946 0.225435,0.08256 -0.243713,0.618896 -0.913875,1.044761 -1.172932,2.372233 -0.365569,1.873254 0.768217,-0.474785 0.568046,0.544864 -0.238347,1.214111 -0.399173,0.331286 -0.61809,0.77657 -0.48648,0.98952 0.131609,0.21295 0.02076,0.900957 -0.246365,1.528906 -0.349246,0.821043 -0.394416,0.183384 -0.160826,-2.270259 0.178656,-1.87659 0.318923,-4.008452 0.311704,-4.737469 -0.0072,-0.729018 0.174406,-1.209592 0.403598,-1.067943 0.229193,0.14165 0.432133,-0.139249 0.450977,-0.624218 0.03124,-0.803974 0.06682,-0.798617 0.40334,0.06074 0.275215,0.702784 0.467125,0.783867 0.754555,0.318795 0.227501,-0.368099 0.06842,-0.940753 -0.388171,-1.397344 -0.706568,-0.706571 -0.856028,-0.699081 -1.723963,0.08639 -0.834454,0.75517 -0.940309,1.459413 -0.86817,5.775948 0.08592,5.141028 0.735819,6.587718 1.707386,3.800672 0.389,-1.115878 0.372501,-1.486282 -0.06645,-1.491893 -0.378823,-0.0048 -0.342461,-0.16032 0.103515,-0.44264 0.378091,-0.239348 0.731485,-0.839179 0.785321,-1.332958 0.05383,-0.49378 0.219201,-1.226794 0.367485,-1.628921 0.148285,-0.402126 0.797937,-2.436404 1.443674,-4.520618 0.957436,-3.090296 1.056067,-3.887402 0.53457,-4.320208 -0.351717,-0.2919 -0.484877,-0.780052 -0.295912,-1.084782 0.18897,-0.304729 0.360194,-1.43142 0.380505,-2.503758 0.02033,-1.072337 0.247134,-1.894869 0.504052,-1.827848 0.508575,0.132669 0.68962,2.018107 0.269132,2.8027 -0.499524,0.932052 -0.524056,2.193418 -0.04265,2.193418 0.266403,0 0.48437,0.451628 0.48437,1.003619 0,0.555698 0.221092,0.866977 0.495376,0.697459 0.272457,-0.168388 0.371985,-0.505813 0.221175,-0.749833 -0.150815,-0.24402 -0.03261,-0.941724 0.262649,-1.550454 0.493841,-1.018105 0.479871,-1.036101 -0.174376,-0.224619 -0.867234,1.075635 -1.494088,0.0089 -0.804838,-1.36959 0.328666,-0.657337 0.261119,-2.53377 -0.119288,-3.313588 -0.259228,-0.531408 -0.197081,-1.906296 0.157858,-3.492341 0.457054,-2.042336 0.757465,-2.561465 1.37013,-2.367689 0.630427,0.199396 0.651952,0.153605 0.109461,-0.232894 -0.772599,-0.550442 -0.337445,-3.254401 0.445834,-2.770309 0.704935,0.435674 0.572892,1.324675 -0.136148,0.91664 -0.335105,-0.192845 -0.440306,-0.164764 -0.233784,0.0624 0.206527,0.227165 0.80592,0.444736 1.331985,0.483493 0.710126,0.05232 0.827015,-0.08553 0.453827,-0.535199 -0.304914,-0.367402 -0.323324,-0.716499 -0.04679,-0.887406 1.60877,-0.994272 1.805622,3.663674 0.279549,6.614768 -0.383838,0.742261 -0.658761,1.520695 -0.61094,1.729854 0.04782,0.209158 -0.104582,1.257654 -0.338673,2.329992 -0.234096,1.072337 -0.44329,2.059375 -0.464883,2.193418 -0.02159,0.134042 -0.305251,0.722031 -0.630344,1.306642 -0.523315,0.941062 -0.467739,1.080774 0.484716,1.218566 0.65086,0.09416 1.21878,0.636964 1.437785,1.374201 0.345415,1.162787 0.3607,1.151632 0.333902,-0.243713 -0.04621,-2.40497 0.04738,-2.755582 0.637953,-2.390586 0.332912,0.205752 0.431021,0.134672 0.240223,-0.174044 -0.491409,-0.795122 0.558561,-3.160575 1.221143,-2.751077 0.337972,0.20888 0.431972,0.135302 0.234779,-0.183769 -0.514737,-0.83286 1.897272,-4.736473 2.926624,-4.736473 1.046123,0 1.494443,1.559571 0.680437,2.367048 -0.42354,0.420147 -0.47199,0.321255 -0.196638,-0.401377 0.327555,-0.859634 0.283151,-0.88486 -0.429003,-0.243713 -0.696498,0.627057 -0.705559,0.783581 -0.07354,1.270401 0.593227,0.456942 0.608449,0.672651 0.08599,1.218565 -1.239729,1.295378 -2.364412,3.378662 -2.075967,3.845375 0.161001,0.260512 0.07523,0.473658 -0.190613,0.473658 -0.508503,0 -1.312371,1.891241 -1.113101,2.618785 0.06408,0.233953 -0.204524,0.302178 -0.596897,0.151611 -0.533474,-0.204713 -0.660117,0.02006 -0.502147,0.891214 0.139536,0.769504 -0.162815,1.528324 -0.890669,2.235347 -0.606056,0.588708 -0.772906,0.886344 -0.37078,0.661415 0.620845,-0.34727 0.634127,-0.289255 0.08803,0.384584 -0.483941,0.597147 -0.51131,1.039817 -0.110577,1.788587 0.429222,0.802018 0.397983,0.94341 -0.161065,0.728885 -0.794525,-0.304888 -2.032368,2.790557 -1.583589,3.960049 0.172241,0.448855 -0.250542,0.977088 -1.157359,1.44602 -0.926665,0.479196 -1.331034,0.993421 -1.150716,1.463323 0.152906,0.398472 0.496254,0.589615 0.762993,0.424761 0.269839,-0.166768 0.239575,0.158817 -0.06822,0.733939 -0.304261,0.56852 -0.668101,1.033673 -0.808533,1.033673 -0.140432,0 -0.11977,-0.219342 0.04592,-0.487426 0.165685,-0.268084 0.06896,-0.487426 -0.214946,-0.487426 -0.652697,0 -0.646619,0.155305 0.06743,1.722477 0.568397,1.247497 0.645118,1.157275 2.9401,-3.457484 1.296057,-2.606122 2.788161,-5.344658 3.31578,-6.085635 z M 40.8382,44.060169 c -0.178725,-0.178723 -0.324952,-0.551604 -0.324952,-0.828625 0,-0.305423 0.227028,-0.276644 0.576786,0.07311 0.317236,0.317234 0.463464,0.690115 0.324952,0.828625 -0.138512,0.13851 -0.398066,0.105609 -0.576786,-0.07311 z m -3.461886,-8.305841 c -0.264516,-0.694679 -0.20853,-0.750667 0.272861,-0.272859 0.333117,0.330638 0.482879,0.723945 0.332805,0.874017 -0.150073,0.150073 -0.422623,-0.120449 -0.605666,-0.601158 z m 26.533387,-2.063817 c 0,-0.252263 0.216832,-0.592668 0.481845,-0.756455 0.276303,-0.170764 0.358015,0.02489 0.191564,0.45866 -0.324036,0.844425 -0.673409,0.998925 -0.673409,0.297795 z M 35.15156,31.195848 c 0,-0.283906 0.219342,-0.380632 0.487426,-0.214947 0.268085,0.165685 0.487426,0.397972 0.487426,0.516193 0,0.11822 -0.219341,0.214946 -0.487426,0.214946 -0.268084,0 -0.487426,-0.232287 -0.487426,-0.516192 z m 5.529889,-0.235969 c -0.15875,-0.413688 -0.179724,-0.861072 -0.0466,-0.994185 0.133111,-0.133113 0.359013,0.205359 0.50201,0.752161 0.303739,1.161502 -0.03373,1.340856 -0.455403,0.242024 z m -0.617145,-2.456727 c 0.0234,-0.567824 0.138887,-0.683323 0.294483,-0.294487 0.140803,0.351861 0.12349,0.772266 -0.03851,0.934233 -0.161966,0.161968 -0.27717,-0.125918 -0.256006,-0.639746 z m 20.708464,-0.833399 c 0.183043,-0.48071 0.455592,-0.751231 0.605666,-0.601159 0.150074,0.150072 3.12e-4,0.54338 -0.332805,0.874018 -0.481392,0.477807 -0.537377,0.42182 -0.272861,-0.272859 z M 39.452852,25.704112 c -0.181347,-0.889465 -0.113414,-1.209965 0.191783,-0.90477 0.259934,0.259935 0.386309,0.879756 0.28083,1.37738 -0.142045,0.670122 -0.264614,0.547553 -0.472613,-0.47261 z m 29.331111,-2.278316 c 0,-0.268084 0.232287,-0.487426 0.516194,-0.487426 0.283906,0 0.380631,0.219342 0.214945,0.487426 -0.165686,0.268084 -0.397974,0.487426 -0.516194,0.487426 -0.118221,0 -0.214945,-0.219342 -0.214945,-0.487426 z M 38.351167,21.61897 c -0.264517,-0.694679 -0.208531,-0.750667 0.272861,-0.272859 0.333117,0.330638 0.482878,0.723945 0.332805,0.874017 -0.150074,0.150073 -0.422623,-0.120448 -0.605666,-0.601158 z m 7.56225,0.06022 c 0.0234,-0.567824 0.138887,-0.683323 0.294484,-0.294487 0.140802,0.351861 0.123489,0.772266 -0.03846,0.934234 -0.161972,0.161967 -0.27717,-0.125919 -0.256006,-0.639747 z m 22.808369,-0.568664 c -0.606294,-0.773085 -0.589054,-0.790325 0.184033,-0.18403 0.81193,0.636758 1.070134,1.037026 0.668963,1.037026 -0.101214,0 -0.485062,-0.383848 -0.852996,-0.852996 z M 32.752912,20.704334 c 0.0234,-0.567824 0.138887,-0.683323 0.294483,-0.294487 0.140803,0.351861 0.12349,0.772266 -0.03851,0.934234 -0.161966,0.161967 -0.277169,-0.125919 -0.256005,-0.639747 z m 30.944413,0.141453 c 0.183043,-0.48071 0.455592,-0.751231 0.605666,-0.601159 0.150073,0.150073 3.12e-4,0.54338 -0.332805,0.874018 -0.481392,0.477808 -0.537378,0.42182 -0.272861,-0.272859 z M 34.208084,19.24487 c 0.290028,-0.349464 0.840298,-0.515289 1.222825,-0.3685 0.967594,0.371301 0.878527,0.501385 -0.527327,0.77013 -0.963534,0.184192 -1.11101,0.09903 -0.695498,-0.40163 z m 2.598273,0.198684 c -0.23412,-0.378815 -0.09071,-0.469825 0.427171,-0.271095 0.428784,0.16454 0.886131,0.03731 1.016327,-0.282737 0.130201,-0.320045 0.254042,-0.198052 0.275206,0.271095 0.04323,0.958651 -1.17691,1.159375 -1.718704,0.282737 z m 19.128259,-1.623158 c 0.154314,-0.402127 0.366768,-0.73114 0.47213,-0.73114 0.105358,0 0.191564,0.329013 0.191564,0.73114 0,0.402126 -0.212459,0.731139 -0.472131,0.731139 -0.259666,0 -0.345873,-0.329013 -0.191563,-0.731139 z m -17.294113,-0.73114 c 0,-0.67021 0.110636,-0.944388 0.245853,-0.609282 0.135217,0.335105 0.135217,0.88346 0,1.218565 -0.135217,0.335106 -0.245853,0.06093 -0.245853,-0.609283 z m 1.355303,-2.483988 c 0.83654,-0.696288 1.747042,-0.948954 3.074294,-0.853123 1.229776,0.08879 2.061593,-0.112491 2.391269,-0.578641 0.409165,-0.578544 0.450303,-0.544601 0.215832,0.178065 -0.15933,0.491074 -0.289692,0.980397 -0.289692,1.087384 0,0.106988 -0.94704,0.06472 -2.104531,-0.09393 -1.573514,-0.215675 -2.302659,-0.09033 -2.88974,0.49675 -0.431869,0.431865 -0.965386,0.777912 -1.185595,0.768993 -0.220215,-0.0089 0.134461,-0.461391 0.788163,-1.005494 z m 21.439871,-0.318712 -1.181672,-1.340422 1.340422,1.181674 c 0.737232,0.649921 1.340422,1.253111 1.340422,1.340422 0,0.382276 -0.394718,0.07115 -1.499172,-1.181674 z m -12.026903,0.530183 c -0.972858,-0.392557 -0.703687,-1.573417 0.340721,-1.494744 0.648949,0.04888 0.804755,0.246576 0.491657,0.623837 -0.252092,0.303752 -0.314024,0.696601 -0.13763,0.872998 0.358975,0.358972 0.198865,0.358491 -0.694748,-0.0021 z m 7.189536,-1.081933 c 0,-0.268084 0.219342,-0.622986 0.487426,-0.788672 0.268084,-0.165685 0.487426,-0.0819 0.487426,0.186181 0,0.268084 -0.219342,0.622986 -0.487426,0.788672 -0.268084,0.165685 -0.487426,0.0819 -0.487426,-0.186181 z m -1.726035,-2.527092 c -0.176706,-0.28592 -0.216748,-0.624393 -0.08898,-0.752161 0.127764,-0.127769 0.362187,0.106166 0.520936,0.519855 0.329588,0.858897 0.04869,1.009975 -0.431956,0.232306 z m -9.308142,35.038297 c -0.47159,-0.889448 -0.799886,-2.002522 -0.729541,-2.473498 0.07034,-0.470977 -0.215159,-0.987963 -0.634448,-1.148858 -0.419284,-0.160896 -0.76234,-0.501358 -0.76234,-0.756582 0,-0.255223 0.228135,-0.323049 0.506963,-0.150723 0.520108,0.321443 0.25604,-1.314497 -0.57686,-3.573769 -0.266846,-0.723828 -0.241412,-1.017541 0.07137,-0.82423 0.267276,0.165185 0.489313,0.671239 0.493417,1.124565 0.0064,0.711017 0.0731,0.723803 0.485311,0.09309 0.358784,-0.548961 0.470931,-0.306057 0.450079,0.974852 -0.04299,2.640428 0.562899,5.101903 1.06196,4.314361 0.555837,-0.877141 0.549261,-2.494465 -0.0087,-2.149599 -0.249752,0.154354 -0.330918,-0.548591 -0.187127,-1.620637 0.200644,-1.495888 0.03748,-2.109698 -0.777503,-2.924667 -1.397027,-1.397024 -2.265596,-1.296662 -2.943572,0.340127 -0.475206,1.14725 -0.402,1.759121 0.447623,3.741211 0.558664,1.303304 0.899891,2.671566 0.758284,3.040583 -0.141607,0.369017 -0.05642,0.546692 0.189287,0.394834 0.245712,-0.151859 0.59505,0.220597 0.776309,0.82768 0.498413,1.669331 1.834292,3.596457 2.048204,2.954721 0.103822,-0.311456 -0.197086,-1.294013 -0.668676,-2.183461 z m 10.51381,-0.179386 C 57.3017,43.114088 57.0567,42.010205 55.5815,43.829836 c -1.061278,1.309063 -1.229099,2.225133 -0.323612,1.766469 0.335105,-0.169744 0.261017,-0.01818 -0.164638,0.336804 -0.425655,0.354985 -0.90186,0.974441 -1.058226,1.376567 -0.17099,0.439727 -0.299646,0.208349 -0.322789,-0.580516 -0.02115,-0.72141 0.202955,-1.460873 0.498047,-1.64325 0.315087,-0.194733 0.415955,-0.961029 0.244396,-1.856614 -0.181966,-0.949897 -0.131551,-1.275619 0.133681,-0.863698 0.642394,0.997678 1.191465,-0.194468 0.822469,-1.785734 -0.199592,-0.860704 -0.152453,-1.085002 0.136893,-0.651397 0.703649,1.054462 1.179118,-0.225427 0.558815,-1.504244 -0.5146,-1.060893 -0.505427,-1.067553 0.221169,-0.160625 0.748745,0.934567 0.758031,0.934269 0.758031,-0.02437 0,-0.533791 0.26321,-1.233739 0.584911,-1.55544 0.831485,-0.831487 0.08061,-0.724073 -1.310606,0.187482 -1.206779,0.790712 -2.686288,4.753198 -2.686288,7.194533 0,0.68015 -0.219342,1.372198 -0.487426,1.537883 -0.784586,0.484901 -0.560779,2.102253 0.36557,2.641801 1.290299,0.751532 1.32324,0.723119 2.526046,-2.178862 z m -7.493669,-1.998637 c -0.122637,-0.676309 -0.50823,-1.581756 -0.856876,-2.012105 -0.473949,-0.585017 -0.480159,-0.690088 -0.02462,-0.416406 0.368104,0.221151 0.609283,0.103834 0.609283,-0.296376 0,-0.364331 -0.274178,-0.957808 -0.609283,-1.318839 -0.487426,-0.525135 -0.487426,-0.587622 0,-0.312431 0.867843,0.489962 0.762593,-0.740036 -0.178266,-2.083297 -1.709989,-2.441352 -1.759667,-0.01619 -0.125747,6.138451 0.57527,2.16691 1.569639,2.419384 1.185504,0.301003 z m 1.677496,-0.47369 c 0,-1.940996 -0.100624,-2.169588 -0.726426,-1.650219 -0.481323,0.39946 -0.623047,1.036341 -0.420039,1.88753 0.66577,2.791456 1.146465,2.691955 1.146465,-0.237311 z m 7.704682,0.04678 c -0.150074,-0.150073 -0.422623,0.120449 -0.605666,0.601158 -0.264517,0.694679 -0.208531,0.750667 0.272861,0.272859 0.333117,-0.330638 0.482878,-0.723945 0.332805,-0.874017 z m 0.144634,-3.308381 c 0.367197,-1.112614 0.605904,-2.465549 0.530465,-3.006524 -0.09919,-0.71131 -0.01633,-0.805821 0.299319,-0.341412 0.751679,1.105927 1.704495,-1.896372 1.103498,-3.47711 -0.273558,-0.719502 -0.633464,-1.308188 -0.799803,-1.308188 -0.955628,0 -3.115408,1.810537 -3.370044,2.825098 -0.383799,1.529165 -0.09925,1.77959 1.141581,1.004679 1.234597,-0.771016 1.901898,-0.232348 1.023429,0.826142 -0.540307,0.651033 -0.533902,0.850212 0.03875,1.204123 0.572043,0.353543 0.552833,0.475208 -0.115515,0.731677 -0.440907,0.169192 -0.925764,0.631067 -1.077466,1.02639 -0.177744,0.463193 -0.06116,0.610255 0.327882,0.413592 0.332035,-0.167846 0.261095,-0.01473 -0.157643,0.340254 -1.222133,1.036061 -1.523231,2.283993 -0.485603,2.012648 0.497959,-0.130219 1.160576,-1.09819 1.541158,-2.251367 z m 0.436928,-5.724869 c 0,-0.283906 -0.253233,-0.359687 -0.562738,-0.168402 -0.356762,0.220491 -0.43008,0.133151 -0.200318,-0.238615 0.277512,-0.449027 0.52354,-0.452688 1.050164,-0.01563 0.811784,0.673718 0.86835,0.938836 0.200318,0.938836 -0.268084,0 -0.487426,-0.232287 -0.487426,-0.516192 z m -36.863384,6.2604 c 0.980297,-1.252588 1.109698,-1.708079 0.644611,-2.269036 -0.35004,-0.422197 -0.578974,-2.325312 -0.574558,-4.776302 0.0071,-3.924151 -0.02291,-4.034326 -0.813183,-2.986665 -1.027382,1.362033 -2.362428,5.428373 -2.362428,7.195593 0,1.640992 0.925115,4.403597 1.474635,4.403597 0.222427,0 0.956345,-0.705234 1.630923,-1.567187 z m -4.722297,0.01352 c -0.155596,-0.388836 -0.271096,-0.273337 -0.294483,0.294487 -0.02115,0.513828 0.09403,0.801714 0.256006,0.639746 0.161967,-0.161967 0.17928,-0.582372 0.03846,-0.934233 z M 50.26177,38.48756 c 0,-2.006921 -0.191344,-2.491586 -1.260162,-3.191902 -1.072776,-0.702911 -1.325351,-0.722702 -1.698529,-0.133094 -0.604111,0.954472 -0.565463,1.211277 0.289005,1.920424 0.629457,0.522402 0.689449,0.47833 0.394644,-0.28992 -0.310022,-0.807906 -0.262883,-0.828559 0.435515,-0.1908 0.430744,0.393345 0.59931,0.906407 0.374587,1.140138 -0.575357,0.598423 -0.01297,1.828761 0.663017,1.450432 0.33726,-0.188758 0.317041,-0.0526 -0.05107,0.343998 -0.335105,0.36103 -0.609282,1.078091 -0.609282,1.593469 0,0.777667 0.124357,0.833841 0.731139,0.330258 0.466165,-0.386882 0.731139,-1.46434 0.731139,-2.973003 z m -8.51298,-2.848643 c -0.281966,-0.456228 2.142745,0.08035 3.135417,0.69386 0.881793,0.544979 0.539815,-0.649409 -0.349694,-1.221337 -0.812378,-0.522333 -0.812378,-0.53582 0,-0.283231 1.270857,0.395143 1.031818,-0.05849 -0.487426,-0.924991 -1.295545,-0.738918 -1.299624,-0.753731 -0.121857,-0.442442 0.670211,0.17714 1.045856,0.140395 0.834771,-0.08166 -0.211089,-0.22205 -0.978785,-0.420028 -1.705991,-0.439949 -1.690842,-0.04632 -3.222672,2.372973 -2.434718,3.845274 0.455675,0.851439 0.538694,0.861851 0.954049,0.119651 0.25022,-0.447118 0.329173,-1.016448 0.175449,-1.265179 z m 6.287519,-1.489746 c 0.354101,0 0.916873,0.329013 1.250609,0.731139 0.89605,1.079674 1.462278,0.890931 1.462278,-0.487426 0,-0.670211 -0.232288,-1.218565 -0.516194,-1.218565 -0.283906,0 -0.358409,0.274177 -0.165564,0.609282 0.192846,0.335106 0.187508,0.463055 -0.01184,0.284332 -0.199362,-0.178722 -0.357479,-0.507735 -0.351371,-0.731139 0.01292,-0.472394 -1.907498,-2.599606 -2.346884,-2.599606 -0.774617,0 -1.97797,2.966129 -1.681912,4.14572 0.313142,1.247652 0.326755,1.251204 1.017229,0.26542 0.38491,-0.549536 0.989553,-0.999157 1.343653,-0.999157 z m -8.840248,-0.162475 c 0.137167,-0.357446 -0.03782,-0.649902 -0.388805,-0.649902 -0.35101,0 -0.525972,0.292456 -0.388805,0.649902 0.137167,0.357445 0.312128,0.649901 0.388805,0.649901 0.07668,0 0.251639,-0.292456 0.388805,-0.649901 z m 23.246288,-2.086118 c -0.04299,-0.177792 0.214721,-0.528987 0.572725,-0.780433 0.516511,-0.362773 0.499944,-0.411768 -0.08022,-0.23728 -0.402127,0.120941 -0.676304,0.466652 -0.609283,0.768247 0.06702,0.301595 -0.110431,0.548354 -0.394337,0.548354 -0.283906,0 -0.353418,0.263374 -0.15447,0.585275 0.274196,0.443665 0.407941,0.446613 0.552746,0.01219 0.105069,-0.315199 0.155849,-0.718556 0.112844,-0.896349 z M 44.553888,31.71204 c -0.140213,-0.536169 -0.456406,-0.974852 -0.702659,-0.974852 -0.247349,0 -0.214233,0.436284 0.074,0.974852 0.286948,0.536169 0.603146,0.974853 0.702654,0.974853 0.09951,0 0.06621,-0.438684 -0.074,-0.974853 z m 6.195308,0.487426 c 0,-0.268084 -0.232288,-0.487426 -0.516194,-0.487426 -0.283906,0 -0.380631,0.219342 -0.214945,0.487426 0.165686,0.268085 0.397974,0.487427 0.516194,0.487427 0.11822,0 0.214945,-0.219342 0.214945,-0.487427 z m -5.07143,-2.512442 c 0.231406,-0.374424 0.131761,-0.429222 -0.297778,-0.163753 -0.466204,0.288129 -0.560755,0.177962 -0.340311,-0.396505 0.167889,-0.437519 0.125717,-0.90645 -0.09372,-1.04207 -0.31126,-0.19237 -0.399338,1.47267 -0.108082,2.043209 0.143099,0.280321 0.514727,0.08525 0.839889,-0.440881 z M 63.76847,29.27491 c 0.140213,-0.536169 0.485247,-0.974853 0.766745,-0.974853 0.281499,0 0.36749,-0.144325 0.191091,-0.320722 -0.176395,-0.176397 -0.07203,-0.620381 0.231937,-0.986631 0.303959,-0.36625 0.43686,-0.781701 0.295341,-0.923224 -0.141524,-0.141522 -0.815367,0.741145 -1.497427,1.961484 -0.68206,1.220339 -1.015674,2.218798 -0.74136,2.218798 0.274308,0 0.61346,-0.438684 0.753673,-0.974852 z M 37.526242,27.374114 c 0.367782,-0.232974 0.587124,-0.622603 0.487426,-0.865841 -0.09969,-0.243239 -0.565112,-0.04927 -1.03426,0.431053 -0.895007,0.916318 -0.59273,1.156658 0.546834,0.434788 z m 7.617554,-0.536335 c -0.165686,-0.268084 -0.520586,-0.487426 -0.78867,-0.487426 -0.268085,0 -0.351868,0.219342 -0.186182,0.487426 0.165685,0.268084 0.520585,0.487426 0.78867,0.487426 0.268084,0 0.351868,-0.219342 0.186182,-0.487426 z m -0.42855,-1.882622 c 0.06145,-0.318384 -2.34e-4,-0.352688 -0.137064,-0.07623 -0.136835,0.276456 -0.434239,0.388033 -0.660901,0.247948 -0.226663,-0.140086 -0.537987,-0.05104 -0.691829,0.197887 -0.153846,0.248924 0.09328,0.397843 0.549178,0.330933 0.45589,-0.06691 0.879171,-0.382152 0.940616,-0.700538 z m 6.927563,0.292164 c -0.08936,-0.115179 0.166539,-0.614246 0.568666,-1.109037 0.419683,-0.516396 0.471594,-0.74369 0.121856,-0.533574 -0.647385,0.388936 -0.84777,-0.265379 -0.260977,-0.852172 0.578389,-0.578387 0.507537,-2.57625 -0.09136,-2.57625 -0.355845,0 -0.558683,1.028074 -0.558683,2.831714 0,1.557443 0.08617,2.745544 0.191491,2.640225 0.105318,-0.105319 0.118376,-0.285727 0.029,-0.400906 z m 7.785921,-0.615857 c -0.150074,-0.150073 -0.422623,0.120448 -0.605666,0.601158 -0.264517,0.694679 -0.208531,0.750667 0.272861,0.272859 0.333116,-0.330638 0.482878,-0.723945 0.332805,-0.874017 z m -9.183635,-0.261973 c -0.394015,-0.736223 -0.392266,-1.18209 0.0065,-1.662597 0.385271,-0.464222 0.391642,-0.751318 0.02174,-0.979925 -0.287742,-0.177836 -0.462899,-0.03286 -0.389239,0.322175 0.07366,0.355032 -0.147047,0.588409 -0.490473,0.518615 -0.467578,-0.09503 -0.433828,0.241634 0.134374,1.340422 0.417325,0.807026 0.870533,1.46732 1.00712,1.46732 0.136591,0 0.0061,-0.452705 -0.290053,-1.00601 z m 10.158487,-3.637436 c -0.150074,-0.150073 -0.422623,0.120448 -0.605666,0.601158 -0.264517,0.694679 -0.208531,0.750667 0.272861,0.272859 0.333117,-0.330638 0.482878,-0.723945 0.332805,-0.874017 z m -9.9221,-1.817729 c -0.108291,-0.562302 -0.437036,-1.257811 -0.730544,-1.545575 -0.382435,-0.374949 -0.489259,-0.316029 -0.37698,0.207932 0.08617,0.402126 0.376015,0.892286 0.644099,1.089244 0.316096,0.232231 0.301819,0.36073 -0.0406,0.36557 -0.290427,0.0041 -0.528048,0.315565 -0.528048,0.692131 0,0.376568 0.276522,0.578558 0.614489,0.448867 0.337971,-0.129691 0.525889,-0.695867 0.417602,-1.258169 z m 2.020016,-0.919263 c 0.925242,-1.040191 0.924647,-1.041506 -0.168167,-0.370177 -0.60319,0.370546 -1.096709,0.8403 -1.096709,1.043898 0,0.587703 0.271463,0.443112 1.264876,-0.673721 z m 0.259579,-1.758802 c 0.606295,-0.773085 0.589054,-0.790326 -0.184033,-0.18403 -0.469147,0.36793 -0.852995,0.751778 -0.852995,0.852995 0,0.401169 0.400269,0.142964 1.037028,-0.668965 z m 13.098329,61.109804 c 0,-0.10121 0.383848,-0.48506 0.852996,-0.853 0.773087,-0.60629 0.790327,-0.58905 0.184032,0.18404 -0.636759,0.81193 -1.037028,1.07013 -1.037028,0.66896 z m 1.462278,-1.94971 c 0,-0.10121 0.383848,-0.48506 0.852996,-0.85299 0.773087,-0.6063 0.790327,-0.58906 0.184033,0.18403 -0.636759,0.81193 -1.037029,1.07014 -1.037029,0.66896 z m -10.235948,-0.76205 c 0,-0.25226 0.216831,-0.59267 0.481845,-0.75645 0.276302,-0.17077 0.358015,0.0249 0.191563,0.45865 -0.324036,0.84443 -0.673408,0.99893 -0.673408,0.2978 z m 11.973276,-1.63392 c 0.183043,-0.48071 0.455593,-0.75123 0.605666,-0.60116 0.150074,0.15007 3.12e-4,0.54338 -0.332805,0.87402 -0.481391,0.4778 -0.537377,0.42182 -0.272861,-0.27286 z m -9.536146,-1.80683 c 0.286948,-0.53617 0.631397,-0.97485 0.765439,-0.97485 0.134043,0 0.0089,0.43868 -0.278013,0.97485 -0.286948,0.53617 -0.631397,0.97485 -0.765439,0.97485 -0.134042,0 -0.0089,-0.43868 0.278013,-0.97485 z m 7.311392,-1.70599 c 0.333736,-0.40213 0.826134,-0.73114 1.094218,-0.73114 0.271901,0 0.219118,0.32329 -0.119366,0.73114 -0.333735,0.40213 -0.826133,0.73114 -1.094218,0.73114 -0.271901,0 -0.219117,-0.32329 0.119366,-0.73114 z m -6.298057,-0.52804 c 0.0234,-0.56783 0.138887,-0.68333 0.294483,-0.29449 0.140803,0.35186 0.123489,0.77226 -0.03846,0.93423 -0.161972,0.16197 -0.27717,-0.12592 -0.256006,-0.63974 z m 0.543967,-2.39652 c 0.0099,-0.80425 0.119176,-1.07425 0.242758,-0.6 0.123582,0.47425 0.115457,1.13227 -0.01808,1.46227 -0.13352,0.33001 -0.234632,-0.058 -0.224698,-0.86227 z m -49.830372,-1.62996 c -2.073213,-2.15092 -3.8815249,-5.77435 -3.8815249,-7.77764 0,-0.57972 0.1329796,-0.59364 0.7533219,-0.0788 0.4143269,0.34386 0.6325865,0.93983 0.4850232,1.32438 -0.4517466,1.17724 1.4476018,4.72828 3.6725118,6.86618 1.160221,1.11484 1.915307,2.02698 1.677979,2.02698 -0.237332,0 -1.45562,-1.06249 -2.707311,-2.3611 z m 49.812308,-1.05088 c 0,-0.67021 0.110636,-0.94439 0.245853,-0.60928 0.135217,0.3351 0.135217,0.88346 0,1.21856 -0.135217,0.33511 -0.245853,0.0609 -0.245853,-0.60928 z m 10.526275,-4.63055 c -0.847191,-4.019412 -0.86138,-4.308617 -0.111957,-2.28243 0.428096,1.15742 0.69776,2.47347 0.599261,2.92456 -0.11108,0.50868 -0.296141,0.26482 -0.487304,-0.64213 z m -1.605894,-6.125254 c -0.176707,-0.285919 -0.216749,-0.624393 -0.08898,-0.752162 0.127764,-0.127769 0.362187,0.106166 0.520937,0.519855 0.329588,0.858898 0.04869,1.009976 -0.431957,0.232307 z M 78.776198,33.38609 c 0,-4.009155 0.01803,-4.071521 0.868486,-3.00593 1.459661,1.828878 2.203444,3.469028 2.490465,5.491845 l 0.274255,1.932862 -0.517154,-1.705992 C 81.607817,35.16058 81.021244,33.625188 80.588751,32.686893 l -0.786355,-1.705992 -0.317787,3.054197 c -0.174786,1.679809 -0.40568,3.142148 -0.513099,3.249644 -0.107424,0.107495 -0.195312,-1.646898 -0.195312,-3.898652 z"
     style="fill:#000000;stroke-width:0.48742613" />
</svg>
