<?xml version="1.0" encoding="UTF-8" standalone="no"?>
<svg
   xmlns:dc="http://purl.org/dc/elements/1.1/"
   xmlns:cc="http://creativecommons.org/ns#"
   xmlns:rdf="http://www.w3.org/1999/02/22-rdf-syntax-ns#"
   xmlns:svg="http://www.w3.org/2000/svg"
   xmlns="http://www.w3.org/2000/svg"
   id="svgK1"
   version="1.1"
   viewBox="0 0 100 100"
   height="100"
   width="100">
  <defs
     id="defs2" />
  <metadata
     id="metadata5">
    <rdf:RDF>
      <cc:Work
         rdf:about="">
        <dc:format>image/svg+xml</dc:format>
        <dc:type
           rdf:resource="http://purl.org/dc/dcmitype/StillImage" />
        <dc:title></dc:title>
      </cc:Work>
    </rdf:RDF>
  </metadata>
  <path
     id="pathK1"
     d="m 46.445909,92.493969 c -1.956864,-5.37724 -5.003507,-10.50716 -5.043065,-16.31453 0.67662,-4.76303 0.703643,-7.67062 -4.354761,-7.90824 -0.46554,-4.41401 -7.128347,-5.21111 -5.967144,-9.56159 -4.720153,0.28883 -9.067252,0.26711 -13.630932,-1.15609 -4.161163,-2.38037 -16.2473045,-2.96281 -11.2658715,-10.04958 4.8846395,-3.264086 11.1912865,-4.01498 16.9059345,-5.526018 4.033835,-1.136454 8.915251,2.592695 8.933401,-3.704783 3.505402,-2.825594 5.618267,-7.678868 9.888412,-8.99945 0.02931,-4.703055 -0.126496,-9.647872 2.037116,-13.955344 -0.708943,-5.271774 9.150933,-14.3394849 11.007128,-5.9621899 3.611282,6.0161059 4.277142,13.0313429 3.958687,19.8821919 -0.339664,3.207792 5.504058,2.434339 6.050605,6.612013 4.431462,0.394894 3.878423,5.431647 5.105289,7.028806 5.089322,-0.06434 10.256224,0.02885 14.95177,2.269084 4.835558,-0.22069 12.829073,4.45741 8.947205,9.526 -4.463588,2.76457 -9.819911,3.43673 -14.987781,3.79482 -2.535823,0.36599 -6.361768,-0.67301 -8.295335,0.25897 -1.155865,4.86906 -7.02381,8.62616 -11.249011,10.4839 -1.54272,1.53432 0.07819,5.85539 -0.585067,8.29307 0.232351,4.88695 -1.942847,8.95123 -4.285234,13.2769 -0.603076,2.98589 -2.674332,3.58239 -5.432681,3.03712 -1.05361,0.0234 -2.353951,-0.0928 -2.688665,-1.32506 z m 5.41805,-0.71505 c 3.677708,-8.13525 6.714935,-17.85017 2.693472,-26.48349 -1.896724,-3.59257 -4.51125,-14.83296 -6.803267,-5.37249 -4.167689,9.07178 -4.105453,19.65844 0.140005,28.68878 0.742176,1.39201 1.805887,5.69048 3.96979,3.1672 z m -6.84743,-7.16714 c -1.392959,-0.77043 1.202779,1.902 0,0 z m -1.01819,-4.02585 c -2.755486,-10.80852 1.07859,8.98646 0,0 z m -0.927216,-5.12315 c -0.75636,-0.14097 0.457749,2.91338 0,0 z m 0.124927,-11.37665 c 0.956685,-2.86119 5.649008,-14.4061 1.555402,-7.33727 -3.826615,0.95912 -2.424844,10.18336 -4.213813,8.85739 1.684937,-6.4986 -2.873211,-2.95391 -5.991978,-4.98791 2.815171,0.53474 9.693102,-2.71124 8.979961,-5.20508 -3.172789,1.74257 -15.063938,2.04339 -8.956842,7.2634 3.8633,-1.07198 3.460011,8.67988 7.861097,4.23515 0.255391,-0.94189 0.510782,-1.88379 0.766173,-2.82568 z m 1.020841,2.7648 c -0.181885,-2.41626 -1.091606,2.81965 0,0 z m 17.706494,0.24551 c 0.391626,-4.96239 8.612796,-4.21497 6.838635,-8.93644 -4.773148,0.10233 -13.595494,-6.69811 -15.623259,-2.82305 3.739964,2.79027 2.793622,14.16954 8.784624,11.75949 z m -1.876861,-1.48553 c -2.709049,-9.28485 3.407017,-0.18136 0,0 z m 2.727399,-4.22192 c -2.622351,-3.31038 -3.671233,-3.46016 -4.657029,-2.38674 -1.758623,-1.87726 -4.547212,-7.01998 -0.760597,-3.22944 2.294783,3.59815 11.837083,2.32534 9.491571,4.80897 -3.414824,-0.26709 -6.460017,-3.19342 -4.073945,0.80721 z m -4.295108,-1.07764 c 1.605482,-1.75467 1.672725,1.70565 0,0 z m -12.857375,1.74405 c 0.446178,-4.21845 -1.752032,5.65793 0,0 z m -18.208523,-4.67242 c -5.26177,-0.21867 -1.080209,0.52528 0,0 z m -4.360126,-0.42428 c -3.518242,-0.30997 -0.440746,0.66374 0,0 z m 48.07039,-0.13545 c -1.61595,-1.51948 -1.175717,0.88524 0,0 z m 4.364255,0.0112 c -12.416544,-0.44862 5.207054,1.11838 0,0 z m -56.685767,-0.71268 c -2.660987,-1.05839 -13.3515325,-4.11353 -5.429784,-1.02066 0.0087,0.51742 9.860142,2.7341 5.429784,1.02066 z m 14.51076,-0.60265 c 2.930635,-1.42263 12.736008,-1.99859 11.110625,-5.21218 -7.446237,-2.21542 -14.750543,-6.52644 -22.831052,-5.04193 -4.438887,1.43474 -14.8739715,1.19918 -14.2962445,6.667 4.8067685,-0.81978 10.5475585,3.97858 16.0471715,3.86607 3.305374,0.56886 6.694023,0.40167 9.9695,-0.279 z m 53.725212,-0.99906 c 4.404769,-0.27706 8.321902,-4.48511 1.794178,-5.29763 -10.46527,-3.79735 -22.633993,-4.45097 -32.721045,0.6732 -0.519747,3.79012 8.899131,3.99801 12.695209,5.41569 6.066296,0.11964 12.230751,0.19037 18.231658,-0.79126 z m -33.909154,-2.50347 c 4.456543,-7.596345 -10.41693,-5.56758 -5.225328,0.7863 1.652864,0.897 3.829708,0.33649 5.225328,-0.7863 z m -4.37976,-1.3414 c -0.620525,-7.082823 8.623116,2.68639 1.091883,0.87844 l -0.721621,-0.30362 z m -3.175671,-2.39835 c -2.036533,-4.402352 -7.041338,-5.901285 -11.292941,-6.747032 2.141551,-2.961301 9.648903,4.174902 6.123505,-2.156074 -1.214064,-3.193844 1.42322,-7.002413 1.134889,-1.641191 -0.107214,3.900172 3.919095,3.817718 2.473783,6.772344 6.307582,5.765153 -1.140646,-5.842797 -1.062176,-9.043756 -0.02172,-6.255757 -5.943741,-3.359642 -6.251122,1.045244 -5.80807,1.7019 -4.689881,8.602395 1.618113,8.06616 3.364153,-0.146021 9.997845,5.586215 3.125467,2.577055 -2.388703,-0.82567 -10.995812,-3.9658 -10.284606,-2.86422 4.737376,0.76509 10.064692,4.99278 14.415088,3.99147 z M 40.602298,33.714578 c 1.173971,-1.757124 1.027532,1.697569 0,0 z m 17.876517,11.155351 c 3.418688,-1.714278 13.626183,-1.193859 7.688651,-6.919945 -3.633493,-0.06059 -6.46894,-10.414869 -8.403631,-2.632129 -0.385326,2.812158 -6.947551,13.032904 -0.884089,6.66793 5.479041,-0.252355 1.393614,-14.668762 4.177726,-5.669923 -1.944594,5.107679 2.46549,3.371241 5.532024,4.451073 -3.332623,0.525502 -8.820376,1.287104 -12.034795,4.283974 -2.876665,2.08483 3.092743,0.93131 3.924114,-0.18098 z m 4.816553,1.01743 c 6.983684,-1.786033 14.243533,-1.16556 21.190945,0.40843 -4.466849,-2.659873 -14.503375,-2.525051 -20.993217,-1.41934 -2.4014,0.1557 -7.230852,2.93761 -1.718269,1.34586 l 0.706623,-0.15562 z m -45.74213,-1.61594 c -2.368148,0.173692 -0.429564,1.23914 0,0 z m 35.058661,-3.035624 c 4.423245,-10.25447 4.742093,-22.993762 -1.382822,-32.6083189 -4.30175,3.5218079 -5.731715,11.4585359 -6.086636,17.3189509 -0.493261,6.709219 1.635841,13.531042 5.106936,19.035082 1.324146,-0.691852 1.663157,-2.556051 2.362522,-3.745714 z m -24.43596,2.015508 c -2.184946,-1.122465 -12.086683,0.675936 -4.814062,0.581635 0.729959,-0.274033 5.67825,0.296841 4.814062,-0.581635 z m 19.455785,-0.238755 c -1.646756,-1.642364 1.118541,2.721321 0,0 z m -1.441436,-2.97763 c -1.806697,-3.10646 1.099073,3.57624 0,0 z M 45.195024,36.87567 c -1.47458,-5.545656 -0.730495,2.049157 0.139794,1.11418 z m 12.363813,-7.10716 c 0.324885,-3.886861 0.52775,-10.002294 -1.007045,-12.404404 0.796084,5.388408 0.384946,11.291379 0.284315,16.423742 0.497801,-1.284227 0.571526,-2.668522 0.72273,-4.019338 z M 43.790296,30.272922 C 43.00195,22.598704 46.308706,15.204356 48.452304,8.2067411 43.914215,15.430775 42.440027,24.540523 43.643,32.953077 c 0.733399,1.336994 -0.04032,-2.684506 0.147296,-2.680155 z M 55.243043,12.884595 c -2.024112,-1.609759 1.960139,2.601759 0,0 z"
     style="fill:#000000;stroke-width:0.4360126" />
</svg>
