<?xml version="1.0" encoding="UTF-8" standalone="no"?>
<svg
   xmlns:dc="http://purl.org/dc/elements/1.1/"
   xmlns:cc="http://creativecommons.org/ns#"
   xmlns:rdf="http://www.w3.org/1999/02/22-rdf-syntax-ns#"
   xmlns:svg="http://www.w3.org/2000/svg"
   xmlns="http://www.w3.org/2000/svg"
   id="svgK10"
   version="1.1"
   viewBox="0 0 100 100"
   height="100"
   width="100">
  <defs
     id="defs2" />
  <metadata
     id="metadata5">
    <rdf:RDF>
      <cc:Work
         rdf:about="">
        <dc:format>image/svg+xml</dc:format>
        <dc:type
           rdf:resource="http://purl.org/dc/dcmitype/StillImage" />
        <dc:title></dc:title>
      </cc:Work>
    </rdf:RDF>
  </metadata>
  <path
     id="pathK10"
     d="m 5.000002,92.253007 c 0,-2.71678 0.01197,-2.73876 2.990007,-5.49479 l 2.990007,-2.76711 -1.438402,-1.67934 c -2.096256,-2.44739 -4.541612,-7.57979 -4.541612,-9.5321 0,-1.00222 0.197792,-1.56686 0.486382,-1.3885 0.26751,0.16533 0.486382,0.0559 0.486382,-0.24319 0,-0.29909 0.227776,-0.40302 0.506167,-0.23097 0.278392,0.17206 0.378786,0.71417 0.223099,1.2047 -0.173168,0.54561 0.333624,1.89413 1.305333,3.47336 0.873621,1.41981 1.625862,2.83671 1.671646,3.14865 0.108474,0.73908 2.651822,3.59104 3.202451,3.59104 0.233712,0 -0.01377,-0.47089 -0.549961,-1.04642 -0.536191,-0.57553 -0.860108,-1.23215 -0.719816,-1.45914 0.140293,-0.227 -0.09574,-0.41273 -0.524523,-0.41273 -0.428779,0 -0.73372,-0.27359 -0.677647,-0.60798 0.05607,-0.33438 -0.590774,-2.03064 -1.437441,-3.76945 -0.846667,-1.73882 -1.539566,-3.64103 -1.539777,-4.22714 -2.11e-4,-0.58611 -0.18896,-1.18221 -0.419442,-1.32465 -1.229082,-0.75962 0.700304,-7.49379 2.876564,-10.04013 0.787198,-0.92106 1.431782,-1.81251 1.43241,-1.981 0.0019,-0.50648 5.03852,-4.14799 6.334804,-4.58011 1.128301,-0.37612 2.596139,-0.47572 3.15079,-0.2138 0.133755,0.0632 0.407345,0.1611 0.607977,0.21765 0.200633,0.0565 0.693095,0.23102 1.09436,0.38774 0.401266,0.15671 1.876114,0.54206 3.27744,0.85632 1.401327,0.31426 3.07739,0.98791 3.724583,1.49699 0.647195,0.50908 1.415784,0.9256 1.707977,0.9256 0.292194,0 0.531262,0.20413 0.531262,0.45361 0,0.24948 0.460367,0.59972 1.023038,0.77831 0.562671,0.17858 2.367465,1.616 4.010654,3.19425 2.706784,2.59983 3.721187,3.31564 3.721187,2.62583 0,-0.13405 -0.839056,-1.06425 -1.864567,-2.06712 -1.025512,-1.00287 -2.254481,-2.42529 -2.731041,-3.16094 -0.476561,-0.73566 -1.279045,-1.33756 -1.783299,-1.33756 -0.504254,0 -0.916826,-0.20022 -0.916826,-0.44495 0,-0.24473 -1.149078,-1.27858 -2.553506,-2.29745 -1.404429,-1.01887 -2.833669,-2.23297 -3.176089,-2.698 -0.455337,-0.61838 -1.304611,-0.8428 -3.161484,-0.8354 -2.95065,0.0117 -7.1143,-1.36852 -10.384791,-3.442607 -1.263935,-0.801564 -2.381554,-1.373898 -2.483597,-1.271854 -0.102044,0.102043 0.259256,1.015416 0.802889,2.029717 1.475403,2.752784 0.755037,4.596654 -2.673474,6.843104 -0.726833,0.47624 -1.562238,0.91763 -1.856455,0.98088 -0.294217,0.0632 -1.005641,0.25524 -1.580943,0.42666 -1.030687,0.30712 -1.045582,0.22622 -1.017228,-5.5251 l 0.02877,-5.836783 1.330491,-0.195275 c 0.73177,-0.107401 1.784455,-0.02734 2.3393,0.177908 1.257602,0.465218 1.986017,-0.503949 0.854634,-1.137104 -0.44445,-0.248726 -0.681134,-0.65765 -0.525965,-0.908718 0.155169,-0.251069 0.02692,-0.456489 -0.284999,-0.456489 -0.311918,0 -0.463031,-0.27359 -0.335807,-0.607978 C 8.659139,41.50906 8.545474,40.68829 8.279325,40.019515 7.425068,37.872948 6.765428,29.805489 7.444169,29.805489 c 0.224713,0 0.560561,-0.478888 0.746331,-1.064197 0.49441,-1.557748 4.290409,-7.349017 5.888899,-8.984249 1.588506,-1.625019 6.645749,-5.515783 7.169454,-5.515783 0.194173,0 1.049773,-0.500719 1.901332,-1.112707 2.590605,-1.861787 5.383826,-2.722251 10.120648,-3.117714 2.956372,-0.2468189 3.462306,-0.1410089 6.133573,1.282761 1.60128,0.853473 3.708487,2.303589 4.682683,3.222479 0.974195,0.91889 1.965904,1.670709 2.203794,1.670709 0.368998,0 0.60466,0.555903 1.288694,3.039889 0.05525,0.200633 0.145598,0.419505 0.200768,0.486382 0.05517,0.06688 0.173517,0.668776 0.262987,1.337551 0.08947,0.668776 0.317982,2.13573 0.507798,3.2599 0.18982,1.124169 0.170793,2.437401 -0.04227,2.918293 -0.213074,0.480892 -0.460137,1.518524 -0.549028,2.305851 -0.08889,0.787326 -0.325,1.553378 -0.52469,1.702337 -0.481664,0.359302 -1.954906,2.826646 -2.781361,4.65815 -0.364588,0.807961 -1.118701,1.881526 -1.675805,2.385699 -0.557105,0.504172 -1.012918,1.244985 -1.012918,1.64625 0,0.598254 0.175093,0.571117 0.972765,-0.150766 0.53502,-0.484187 0.972764,-1.174726 0.972764,-1.53453 0,-0.359804 0.297891,-0.65419 0.661982,-0.65419 0.364096,0 1.184487,-0.984924 1.823102,-2.18872 0.63861,-1.203796 1.325639,-2.18872 1.526734,-2.18872 0.20109,0 0.365623,-0.338806 0.365623,-0.752903 0,-0.835176 2.351425,-3.09867 3.244096,-3.122784 0.412759,-0.01115 0.494291,-1.267561 0.296922,-4.575696 -0.149635,-2.508179 -0.140968,-5.082678 0.01926,-5.72111 0.374378,-1.491633 5.564747,-6.889203 7.693948,-8.001091 1.967669,-1.027533 6.651422,-1.3095379 9.660202,-0.581633 4.517615,1.092932 11.685633,5.380723 14.740031,8.817242 1.970371,2.21688 4.991792,7.432309 6.102183,10.5333 1.369219,3.823823 2.078729,8.531153 1.510941,10.024546 -0.256275,0.674064 -0.465959,1.707695 -0.465959,2.296957 0,0.589262 -0.566635,1.905267 -1.259195,2.924455 -1.351564,1.989006 -1.309229,2.630451 0.123176,1.866341 0.85579,-0.456516 2.646712,-0.743022 3.932716,-0.629143 0.898514,0.07957 0.874336,13.672542 -0.02432,13.672542 -0.347763,0 -0.859174,-0.22688 -1.136475,-0.50418 -0.277297,-0.2773 -1.078008,-0.60823 -1.779357,-0.73541 l -1.275177,-0.23124 1.193582,2.31616 c 1.707513,3.31345 1.744687,8.55176 0.09236,13.01656 -1.00578,2.71775 -7.007408,10.1437 -9.827311,12.15955 -1.496841,1.07004 -2.990453,2.1644 -3.319135,2.43191 -0.328678,0.26751 -1.415032,0.90387 -2.414115,1.41414 -0.999077,0.51027 -1.816511,1.07714 -1.816511,1.2597 0,0.79717 -6.472778,2.16074 -9.727643,2.04925 -2.851975,-0.0977 -7.204161,-1.32797 -8.342675,-2.35831 -0.494223,-0.44726 -0.899403,-0.61513 -0.900405,-0.37304 -9.73e-4,0.2421 -0.445293,-0.28722 -0.987317,-1.17625 -0.54202,-0.88903 -1.214234,-1.54018 -1.493806,-1.44699 -0.640075,0.21336 -0.610113,0.38635 0.526032,3.03687 1.672104,3.90085 1.669808,3.90508 -2.177339,4.01394 -1.872571,0.053 -3.131085,-0.02 -2.796697,-0.16213 0.655322,-0.27859 0.854982,-2.12293 0.229815,-2.12293 -0.755872,0 -2.549328,1.53715 -2.287587,1.96066 0.147856,0.23924 -0.958474,0.42031 -2.458499,0.40239 -3.067277,-0.0366 -3.539884,-0.52835 -2.732871,-2.84335 0.611496,-1.75413 0.309662,-1.80914 -2.550361,-0.46477 -1.170609,0.55025 -3.155935,1.07882 -4.411836,1.17459 -1.255902,0.0958 -2.409609,0.30028 -2.563794,0.45447 -0.154186,0.15418 -0.528787,0.0741 -0.832448,-0.17788 -0.303661,-0.25201 -1.308724,-0.54431 -2.233472,-0.64954 -3.08363,-0.35091 -6.501207,-2.28546 -10.333985,-5.84963 -1.099393,-1.02235 -2.425863,-2.08732 -2.94771,-2.36661 -0.895371,-0.47919 -0.891027,-0.42928 0.07714,0.88605 1.33791,1.81766 4.957033,5.32913 4.957033,4.80958 0,-0.2217 0.383026,0.0247 0.851169,0.54753 0.468143,0.52284 1.682129,1.45597 2.697746,2.07362 1.015618,0.61764 1.764751,1.37243 1.664741,1.67729 -0.241195,0.73527 -3.754509,1.0302 -3.754509,0.31519 0,-0.29758 -0.656616,-0.76994 -1.459147,-1.04971 -0.80253,-0.27976 -1.459288,-0.6514 -1.459461,-0.82587 -1.73e-4,-0.17446 -1.284593,-1.70908 -2.854267,-3.41026 l -2.853952,-3.09305 -1.279982,0.83868 c -0.703989,0.46127 -1.279981,1.03238 -1.279981,1.26912 0,0.23674 -0.328308,0.43044 -0.729573,0.43044 -0.401266,0 -0.729574,0.24229 -0.729574,0.53842 0,0.32202 0.342106,0.39758 0.851169,0.18801 2.033485,-0.83715 2.482253,-0.82741 2.353318,0.0511 -0.0704,0.47965 -0.382462,0.95691 -0.693477,1.06058 -1.800895,0.6003 1.623495,2.25454 3.62642,1.75184 0.7959,-0.19976 1.155973,-0.084 1.150855,0.36999 -0.01709,1.5164 -0.947422,2.05648 -3.9118,2.27091 -2.443126,0.17672 -3.108988,0.0665 -3.467493,-0.57415 -0.556231,-0.99393 -1.368138,-1.03149 -1.368138,-0.0633 0,0.40531 -0.43234,0.72957 -0.972765,0.72957 C 5.115637,94.980697 5,94.656437 5,92.253007 Z m 39.88334,-1.18048 c 0,-0.2581 1.149078,-0.47623 2.553506,-0.48474 2.393044,-0.0145 2.492378,-0.0622 1.580742,-0.75977 -1.63064,-1.24768 -4.49615,-0.30222 -5.656767,1.86642 -0.445249,0.83195 -0.392168,0.87207 0.512937,0.38767 0.555267,-0.29717 1.009582,-0.75148 1.009582,-1.00958 z m -36.58455,-0.39412 c 0.139386,-0.4186 -0.09448,-0.59388 -0.648963,-0.48638 -0.476784,0.0924 -0.964942,0.46253 -1.084796,0.82247 -0.139386,0.41859 0.09448,0.59387 0.648964,0.48638 0.476784,-0.0924 0.964942,-0.46254 1.084795,-0.82247 z m 63.578761,-1.59306 c 1.605061,-0.80453 3.465473,-1.76541 4.134248,-2.1353 1.752095,-0.96905 7.708652,-6.22309 7.748462,-6.8346 0.01848,-0.28434 0.707858,-1.15983 1.531887,-1.94553 3.511309,-3.34799 5.486079,-10.66266 3.85204,-14.2682 -2.005952,-4.42617 -2.213584,-4.68219 -4.831692,-5.95774 -2.635361,-1.28397 -4.368564,-1.4265 -8.597035,-0.70698 -9.641656,1.64065 -19.071478,9.98439 -21.904479,19.38163 -0.884306,2.93329 -0.366878,7.63008 1.084627,9.84536 1.208169,1.8439 5.376187,4.24522 8.227063,4.73987 1.82422,0.31652 5.831401,-0.65315 8.754879,-2.11851 z m -8.322753,-7.7136 c -1.609998,-0.65052 -1.709877,-2.16539 -0.255302,-3.87233 1.205756,-1.41494 1.413013,-1.4818 3.471042,-1.11975 2.816503,0.49547 3.176922,1.88023 1.044423,4.01274 -1.489604,1.4896 -2.450573,1.71051 -4.260163,0.97934 z m 9.68902,-10.45633 c -0.761757,-1.59742 -0.757117,-1.7465 0.08325,-2.6751 0.48948,-0.54087 1.293786,-0.9834 1.787347,-0.9834 0.493557,0 0.89738,-0.23362 0.89738,-0.51916 0,-0.71868 2.039182,-0.0592 2.796698,0.90442 0.903703,1.14963 0.755881,1.78544 -0.803119,3.45436 -1.970111,2.10901 -3.700868,2.04318 -4.76156,-0.18112 z m -34.104648,17.13067 c 3.470871,-2.22091 4.739495,-4.65779 4.492523,-8.62962 -0.200778,-3.22893 -0.384238,-4.07793 -1.394828,-6.45484 -3.892812,-9.15594 -13.317065,-16.60491 -22.402209,-17.70683 -1.633051,-0.19807 -2.134914,-0.0344 -3.124671,1.01926 -0.648529,0.69037 -1.409021,1.25522 -1.689982,1.25522 -0.280962,0 -1.254957,0.82077 -2.164435,1.82393 -3.555585,3.92184 -4.648933,9.01782 -2.770847,12.91462 0.605652,1.25665 1.007685,2.28482 0.893406,2.28482 -0.11428,0 0.244867,0.63569 0.798104,1.41264 0.553236,0.77694 1.005884,1.56638 1.005884,1.7543 0,0.31396 3.388948,4.86785 4.248482,5.70888 2.676396,2.61878 7.513539,5.52741 10.586174,6.36558 0.535021,0.14595 2.72374,0.21081 4.863822,0.14413 3.542256,-0.11037 4.139143,-0.27998 6.658577,-1.89209 z m -8.701852,-5.95602 c -1.43395,-1.00438 -2.316088,-3.77607 -1.617338,-5.08169 0.796226,-1.48776 3.766728,-1.3584 5.489516,0.23906 1.57026,1.45602 1.546912,1.31259 0.535142,3.28754 -1.25555,2.45082 -2.501058,2.89028 -4.40732,1.55509 z m 2.446908,-2.95704 c -0.335128,-0.87333 -1.619589,-0.9057 -1.619589,-0.0408 0,0.90411 0.46578,1.2744 1.232796,0.98006 0.358221,-0.13746 0.532278,-0.56012 0.386793,-0.93925 z m -12.896392,-7.50762 c -1.37052,-1.50608 -1.833089,-3.99903 -1.027359,-5.53682 0.466783,-0.89089 0.955617,-1.24308 1.457846,-1.05036 0.415573,0.15947 1.022359,0.0685 1.348414,-0.20206 0.432103,-0.35861 0.836245,-0.04 1.490676,1.1752 0.493817,0.91697 1.310978,1.77524 1.815913,1.90729 1.420692,0.37152 0.853782,2.2943 -1.054751,3.57739 -1.959096,1.31708 -2.921804,1.34798 -4.030739,0.12936 z m 3.395785,-2.98938 c 0.09252,-0.48571 -0.265612,-0.94287 -0.895161,-1.14268 -1.278545,-0.40579 -2.070013,0.27686 -1.635077,1.41029 0.404091,1.05304 2.317208,0.8507 2.530238,-0.26761 z m 25.269183,18.9047 c 1.474229,0.0706 2.067124,-0.0922 2.067124,-0.56745 0,-0.36652 0.247914,-0.74903 0.55092,-0.85004 0.334943,-0.11164 0.416553,-0.607 0.208177,-1.26354 -0.188512,-0.59395 -0.532482,-0.96265 -0.764379,-0.81933 -0.698508,0.4317 1.56e-4,-7.17015 0.827287,-9.00133 1.867654,-4.1348 2.899232,-6.00942 3.920221,-7.12397 0.601898,-0.65706 1.09436,-1.36832 1.09436,-1.58059 0,-0.21227 0.439087,-0.78331 0.975746,-1.26898 0.53666,-0.48567 0.887365,-0.97142 0.77935,-1.07944 -0.351869,-0.35186 -4.269828,3.89695 -6.009223,6.51666 l -1.69706,2.55596 -1.766633,-0.72801 c -0.97165,-0.40041 -2.043126,-1.1039 -2.381064,-1.56333 -1.436851,-1.9534 -4.802908,-5.55549 -5.609185,-6.00251 -0.794897,-0.44071 -0.816759,-0.38325 -0.243191,0.63914 0.346621,0.61786 0.757199,1.23281 0.912396,1.36657 0.955258,0.82328 4.339731,8.16086 4.345903,9.42197 0.0039,0.83689 0.18787,1.80606 0.408391,2.15371 0.586465,0.92457 -0.393591,5.96729 -1.451472,7.4683 -1.303452,1.84945 -1.175216,2.44956 0.427657,2.00131 0.735653,-0.20573 2.267756,-0.32952 3.404675,-0.2751 z m -34.543269,-4.52706 c -0.161621,-0.16162 -0.581126,-0.1789 -0.932233,-0.0384 -0.388003,0.15526 -0.272751,0.27051 0.293856,0.29385 0.512728,0.0211 0.799997,-0.0938 0.638377,-0.25546 z m 36.124011,-13.99328 c 0,-2.19344 14.54773,-15.38217 16.967189,-15.38217 1.211272,0 0.441908,-1.77853 -1.137249,-2.62896 -0.923897,-0.49755 -2.172358,-1.3681 -2.774353,-1.93454 -1.823763,-1.716065 -4.410844,-3.704998 -4.81923,-3.704998 -0.211615,0 -0.684685,0.299925 -1.051262,0.666501 -0.366576,0.366577 -1.421851,1.049586 -2.345057,1.517799 -1.932479,0.980078 -3.380892,2.160308 -3.380892,2.754908 0,0.22605 0.897376,0.411 1.994167,0.411 1.597143,0 2.312937,-0.31472 3.595279,-1.58075 2.078656,-2.052206 3.278581,-2.203698 3.088327,-0.389902 -0.08142,0.776172 0.211222,1.687862 0.698032,2.174672 0.461022,0.46102 0.838221,0.91093 0.838221,0.99979 0,0.46925 -3.178449,3.66001 -3.645891,3.66001 -0.301737,0 -0.998387,-0.60835 -1.548111,-1.3519 -0.792686,-1.07216 -1.381656,-1.34892 -2.846464,-1.33755 -2.459737,0.0191 -2.589908,0.79523 -0.419271,2.49978 0.984486,0.77309 2.23281,1.75456 2.774056,2.18103 1.086403,0.85604 0.853893,2.38608 -0.362598,2.38608 -0.40073,0 -1.84315,-0.98988 -3.20538,-2.19973 -1.36223,-1.20986 -2.682767,-2.07243 -2.934529,-1.91683 -0.831236,0.51373 -0.475905,2.09972 0.542876,2.42306 1.496496,0.47497 2.119094,2.52959 1.194243,3.94109 -1.027798,1.56862 -2.870326,2.69979 -3.810157,2.33914 -0.815683,-0.31301 -1.576039,-1.96827 -1.3783,-3.00049 0.06348,-0.33136 -0.127676,-1.05668 -0.424782,-1.61183 -0.346898,-0.64818 -0.374174,-1.21578 -0.07622,-1.58624 0.724208,-0.90046 1.172283,-3.61323 0.650113,-3.93595 -0.258235,-0.1596 -1.483242,0.69505 -2.722245,1.89923 -2.135076,2.07505 -3.770723,2.72786 -4.376985,1.74691 -0.488718,-0.79076 0.276841,-1.94996 2.24245,-3.39549 1.111558,-0.81745 1.707601,-1.55189 1.409145,-1.73634 -0.284481,-0.17582 -0.78656,-0.15322 -1.115732,0.0502 -0.916116,0.5662 -6.37054,0.21613 -6.772757,-0.43467 -0.512158,-0.82869 0.490169,-1.82333 1.837411,-1.82333 1.194079,0 1.596011,-0.74517 0.583904,-1.08254 -0.741489,-0.24716 -0.06559,-1.349375 0.827469,-1.349375 0.376169,0 1.414515,0.64145 2.307436,1.425445 1.110808,0.9753 1.838395,1.29263 2.304017,1.00486 0.374289,-0.23133 0.855129,-0.31268 1.068534,-0.18079 1.088829,0.67293 0.180987,-1.02876 -1.151982,-2.15932 -3.106645,-2.634915 -2.928973,-2.610112 -5.79636,-0.80914 -1.448966,0.910079 -3.345817,1.98016 -4.215226,2.37795 -0.869408,0.3978 -1.580742,0.87349 -1.580742,1.0571 0,0.41004 1.825495,2.12206 4.16721,3.90817 0.964664,0.73579 3.098882,2.99356 4.742707,5.01728 1.643826,2.02372 3.68629,4.44554 4.53881,5.38182 0.852516,0.93629 2.021458,2.30424 2.597646,3.03989 1.096466,1.39993 2.922534,1.818 2.922534,0.66911 z m 11.360535,-7.27301 c 2.048083,-1.94041 2.984573,-2.54728 6.645712,-4.30664 3.772682,-1.81297 10.238292,-3.4956 12.224643,-3.18139 2.104351,0.33287 5.512053,1.52651 6.160921,2.15802 0.645741,0.62846 1.546,0.84503 1.546,0.3719 0,-0.13948 -0.575371,-1.12306 -1.278601,-2.18571 -1.077322,-1.62794 -1.226875,-2.25554 -0.950046,-3.98675 l 0.328556,-2.054664 -1.16255,1.092154 c -1.380033,1.29648 -2.457978,1.54621 -6.665004,1.54413 -3.94631,-0.002 -6.00861,-0.16125 -6.322968,-0.4884 -0.410375,-0.42709 -2.929067,-1.44974 -3.549155,-1.44106 -0.3218,0.005 0.178716,0.49697 1.112259,1.09436 1.721073,1.10135 1.868456,1.16039 3.166469,1.26856 1.055897,0.088 0.896972,1.36272 -0.205856,1.65111 -0.514486,0.13454 -2.675482,1.27968 -4.802217,2.54476 -4.229827,2.51608 -10.375164,7.79425 -8.473405,7.27773 0.610493,-0.16582 1.611851,-0.77696 2.225242,-1.35811 z m 32.332296,-8.28801 c 0.166333,-0.8637 -0.651669,-2.16834 -1.086748,-1.73326 -0.116469,0.11647 -0.368152,0.83488 -0.559301,1.59646 -0.296912,1.18299 -0.214922,1.35916 0.562856,1.20938 0.500721,-0.0964 0.988154,-0.57909 1.083193,-1.07258 z m -83.692153,-3.12459 c 0.0073,-1.714448 -0.699901,-3.019529 -1.636244,-3.019529 -0.53836,0 -0.654232,0.286733 -0.417407,1.032903 0.55666,1.753876 0.600108,2.584056 0.178056,3.402176 -0.582729,1.12959 0.06442,1.53564 1.040139,0.65263 0.456414,-0.41305 0.832368,-1.34373 0.835456,-2.06818 z m 79.997667,1.39332 c 0.3611,-0.51554 1.249,-1.20729 1.973111,-1.53722 1.563184,-0.71223 1.718213,-1.416483 0.31182,-1.416483 -1.885689,0 -4.292902,1.825193 -4.329998,3.283083 -0.02378,0.93528 1.309701,0.72051 2.045067,-0.32938 z M 31.309707,47.897716 c -0.666993,-0.222331 -2.476978,0.806286 -2.476978,1.407671 0,0.27322 0.664762,0.10408 1.477249,-0.375865 0.812487,-0.479948 1.262365,-0.944261 0.999729,-1.031806 z m 16.641442,0.357452 c 0.16106,-0.615895 -0.198575,-1.685736 -0.927998,-2.7606 -1.245469,-1.835304 -0.996665,-2.532814 0.909345,-2.549312 0.673104,-0.0058 0.794238,-0.271196 0.556387,-1.218871 -0.453726,-1.807796 0.93759,-2.103017 2.412237,-0.511848 0.718513,0.77529 1.315961,1.082497 1.506296,0.774533 0.505293,-0.817585 1.230805,-0.58948 1.230805,0.386972 0,0.49356 -0.458016,1.311881 -1.017818,1.818492 -1.314423,1.189537 -2.012888,2.507447 -1.497658,2.825878 0.604291,0.37347 5.433769,-3.025936 5.433769,-3.824755 0,-0.378989 -0.383279,-0.975073 -0.851728,-1.324629 -0.468449,-0.349557 -1.573694,-1.620482 -2.456103,-2.824277 -0.88241,-1.203796 -1.925884,-2.626464 -2.318842,-3.161485 -0.696558,-0.948389 -0.747706,-0.930108 -2.041268,0.729574 -0.729744,0.936285 -2.578239,3.026004 -4.107765,4.64382 l -2.780962,2.941482 2.530319,2.530317 c 1.391671,1.391675 2.671547,2.530318 2.844164,2.530318 0.172617,0 0.432189,-0.452524 0.57682,-1.005609 z M 25.229683,47.493667 c 0.777879,-0.533457 2.39925,-1.270509 3.603046,-1.637895 2.840612,-0.866924 8.700919,-4.868894 10.51975,-7.183875 1.925785,-2.451113 3.193082,-4.488968 2.791589,-4.488968 -0.181383,0 0.06637,-0.437744 0.550553,-0.972765 0.484186,-0.53502 0.682263,-0.976116 0.44017,-0.980212 -0.242094,-0.0041 -0.221298,-0.16825 0.04621,-0.364787 0.543307,-0.39916 1.585714,-2.94917 2.175501,-5.321868 0.451261,-1.815404 -0.498799,-7.019648 -1.506985,-8.25498 -1.330741,-1.63056 -2.911336,-3.074293 -3.365727,-3.074293 -0.25535,0 -0.464273,-0.199347 -0.464273,-0.442994 0,-0.725867 -4.002326,-2.431566 -5.836587,-2.487418 -4.039134,-0.122991 -6.959944,0.822487 -12.122932,3.924244 -2.81785,1.692873 -8.380331,6.759478 -8.034814,7.318537 0.112952,0.182759 -0.120531,0.602761 -0.518851,0.933337 -0.39832,0.330576 -0.724218,0.851748 -0.724218,1.15816 0,0.306412 -0.566444,1.390709 -1.258765,2.40955 -1.086252,1.598564 -1.261063,2.378885 -1.275538,5.693749 -0.01497,3.427811 0.159799,4.183277 1.623551,7.018117 0.902179,1.747244 2.026529,3.300755 2.498557,3.452246 0.472027,0.151491 0.757302,0.438744 0.633944,0.638341 -0.123357,0.199597 1.022543,0.96421 2.546444,1.69914 1.523902,0.734929 3.07084,1.492137 3.437639,1.682684 1.116343,0.579923 2.753065,0.302855 4.241734,-0.71805 z m -4.904236,-9.573515 c -1.456749,-3.464586 2.324363,-6.507204 5.953775,-4.790935 1.994138,0.942983 1.991654,1.875432 -0.01117,4.19236 -1.264563,1.462884 -1.975707,1.864876 -3.458293,1.954888 -1.662211,0.100917 -1.933974,-0.04745 -2.484309,-1.356313 z m 3.606695,-2.410807 c 0.575238,-0.75072 0.557429,-0.822659 -0.13763,-0.55594 -0.439103,0.1685 -0.798369,0.647733 -0.798369,1.064962 0,0.41723 0.06193,0.667403 0.13763,0.555941 0.0757,-0.111463 0.434962,-0.590696 0.798369,-1.064963 z m 6.731491,-7.562714 c -1.738288,-2.942689 -0.374664,-4.978418 3.455635,-5.158853 2.199459,-0.103611 2.45885,-0.0042 2.721759,1.043335 0.422829,1.684683 -0.718268,3.660193 -2.663735,4.611558 -2.301679,1.125559 -2.578873,1.086426 -3.513659,-0.49604 z m 51.198363,20.242517 c 1.0415,-0.202262 3.391068,-2.120009 3.391068,-2.767834 0,-0.295887 0.238405,-0.483259 0.529787,-0.416382 0.68773,0.157845 2.313851,-1.969494 2.695909,-3.526862 0.163989,-0.66845 0.352015,-2.856904 0.417842,-4.86323 0.09837,-2.998209 -0.08549,-4.075528 -1.032356,-6.04921 -0.63362,-1.320739 -1.152035,-2.594535 -1.152035,-2.830659 0,-0.892301 -3.161248,-4.970915 -6.088266,-7.855033 -4.977582,-4.904625 -14.33059,-8.706901 -17.316597,-7.039713 -0.636591,0.35543 -1.701846,0.69751 -2.367237,0.760177 -0.748634,0.07051 -2.226244,1.180187 -3.876315,2.911105 l -2.666522,2.797164 -0.123463,3.768512 c -0.06791,2.072681 0.08961,3.900202 0.350044,4.061158 0.260434,0.160956 0.47343,0.772192 0.473323,1.358302 -1.61e-4,0.926891 2.705584,6.961951 3.421631,7.631814 0.142981,0.133756 0.760108,0.899808 1.371398,1.702338 3.890955,5.108222 9.338679,9.137696 13.901352,10.282305 2.129104,0.534114 5.545948,0.566311 8.070437,0.07605 z m -7.307829,-9.141105 c -1.765912,-1.507183 -1.980334,-3.859056 -0.487894,-5.351496 1.363387,-1.363388 2.602373,-1.213855 4.340027,0.523796 3.575089,3.575091 -0.02841,8.091191 -3.852133,4.8277 z m 2.916781,-2.381166 c 0,-0.596698 -1.370275,-1.075705 -1.673539,-0.585018 -0.135049,0.218515 -0.105579,0.537264 0.06549,0.708331 0.463531,0.46353 1.608052,0.375762 1.608052,-0.123313 z M 63.122674,25.542197 c -1.283422,-0.942912 -1.782226,-2.638106 -1.194069,-4.058045 0.32038,-0.773469 0.774832,-1.433665 1.009885,-1.467104 0.235054,-0.03344 0.700965,-0.101983 1.035352,-0.152321 0.778727,-0.117227 4.085601,1.489695 4.523403,2.198075 0.346348,0.560403 -0.631484,2.854985 -1.482741,3.479395 -0.630239,0.462294 -3.262593,0.462294 -3.89183,0 z m -25.24438,18.496934 c -0.288313,-0.288313 -1.749833,0.463703 -1.749833,0.900365 0,0.241156 0.42779,0.171307 0.950645,-0.155221 0.522854,-0.326529 0.882489,-0.661843 0.799188,-0.745144 z m 24.196265,0.09366 c -0.15841,-0.412803 -0.39233,-0.646237 -0.519821,-0.518742 -0.127495,0.127494 -0.08754,0.465242 0.08879,0.75055 0.479597,0.776004 0.759914,0.625249 0.431032,-0.231808 z M 40.241618,42.047232 c -0.338988,-0.393254 -2.16251,0.991748 -1.888816,1.434593 0.186507,0.301777 0.642284,0.149755 1.166829,-0.389189 0.473425,-0.486421 0.798319,-0.956852 0.721987,-1.045404 z M 59.353212,41.380573 C 59.286334,41.059114 58.575,40.053032 57.77247,39.144835 56.277433,37.452951 55.319605,35.831221 53.891038,32.573047 53.226435,31.057273 52.952413,30.82465 52.385617,31.295051 c -0.919423,0.763053 -0.873995,1.531027 0.158244,2.674965 0.468143,0.518803 1.486725,1.818588 2.263516,2.888411 1.369273,1.885805 4.219876,5.106617 4.519653,5.106617 0.08128,0 0.09306,-0.263012 0.02617,-0.584471 z m -4.742227,53.113744 c 0,-0.26751 0.205954,-0.48638 0.457676,-0.48638 0.251723,0 0.592949,0.21887 0.75828,0.48638 0.165331,0.26751 -0.04061,0.48638 -0.457676,0.48638 -0.417053,0 -0.75828,-0.21887 -0.75828,-0.48638 z m 15.688452,-0.1216 c 0.112909,-0.33438 0.733046,-0.56241 1.378081,-0.50672 1.259759,0.10876 4.820665,-1.23449 4.820665,-1.81845 0,-0.19443 0.656616,-0.62549 1.459147,-0.95791 0.802531,-0.33241 1.459147,-0.77118 1.459147,-0.97504 0,-0.20386 0.435107,-0.48443 0.966908,-0.6235 0.5318,-0.13907 1.188003,-0.83438 1.458237,-1.54514 0.270229,-0.71076 0.678085,-1.17687 0.906349,-1.03579 0.350482,0.21661 5.909768,-5.57925 5.909768,-6.16126 0,-0.1088 0.875488,-1.14614 1.945529,-2.3052 1.070041,-1.15907 1.945529,-2.28984 1.945529,-2.51284 0,-0.223 0.437744,-0.40545 0.972764,-0.40545 0.882263,0 0.967516,0.30545 0.916344,3.28307 -0.03103,1.8057 -0.152928,2.91869 -0.270881,2.47333 -0.37483,-1.4153 -1.423645,-1.33523 -2.633886,0.20107 -0.645186,0.81901 -2.322139,2.7665 -3.726567,4.32775 -1.404429,1.56125 -2.553147,3.0047 -2.552709,3.20765 4.42e-4,0.20296 0.863265,1.18052 1.917391,2.17235 1.054127,0.99183 2.155826,2.25035 2.448224,2.79669 0.481032,0.89882 0.39112,0.99337 -0.944627,0.99337 -0.811942,0 -1.476257,-0.22356 -1.476257,-0.49681 0,-0.27324 -0.54718,-0.74612 -1.215956,-1.05083 -0.668775,-0.30472 -1.215955,-0.79456 -1.215955,-1.08854 0,-0.29397 -0.443629,-0.81155 -0.98585,-1.15017 -0.862987,-0.53894 -1.272127,-0.40289 -3.283079,1.09175 -1.263475,0.93909 -2.561586,1.92955 -2.884679,2.20102 -0.894034,0.75118 -7.570641,0.64675 -7.313637,-0.1144 z m 9.846613,0.1216 c 0.381314,-0.61698 2.206779,-0.61698 3.161484,0 0.533435,0.34473 0.166133,0.47349 -1.366257,0.47893 -1.274993,0.004 -1.978097,-0.18304 -1.795227,-0.47893 z m 11.588334,-0.19749 c 0.286703,-0.74713 -1.259283,-2.43051 -1.766404,-1.92339 -0.473741,0.47374 -2.248365,-1.87458 -2.266823,-2.99964 -0.02184,-1.32996 1.6401,-2.75629 2.365889,-2.0305 0.294923,0.29492 0.536222,1.03963 0.536222,1.6549 0,0.61527 0.204125,1.11868 0.453605,1.11868 0.613158,0 0.953226,-1.31431 0.928649,-3.5891 -0.01921,-1.7796 0.596203,-2.70885 1.805665,-2.72642 0.325808,-0.005 0.512817,1.76623 0.512817,4.85637 0,3.7333 -0.151012,4.86382 -0.64968,4.86382 -0.357321,0 -0.775658,0.32831 -0.929637,0.72958 -0.153984,0.40126 -0.498838,0.72957 -0.766348,0.72957 -0.267511,0 -0.368289,-0.30774 -0.223955,-0.68387 z M 5.000002,83.080397 c 0,-2.11708 0.174912,-3.12686 0.506167,-2.92213 0.278392,0.17206 0.377309,0.71883 0.219817,1.21504 -0.198277,0.62471 0.05743,1.0862 0.831384,1.5004 0.614754,0.32901 1.22717,0.56121 1.360925,0.51601 0.133755,-0.0452 0.243191,0.17913 0.243191,0.49852 0,0.3194 -0.711334,0.99616 -1.580742,1.50392 l -1.580742,0.9232 z M 93.055923,29.562298 C 92.398558,28.492257 91.551971,27.018017 91.174626,26.286209 90.224931,24.444425 84.864362,18.246163 82.440135,16.186788 81.337973,15.250503 79.111131,13.503764 77.4916,12.305146 73.869531,9.6244481 73.446106,8.6130561 75.320244,7.1186701 c 1.199549,-0.95649 1.269311,-1.141375 0.536722,-1.422495 -0.53323,-0.20462 -1.595678,0.188181 -2.897101,1.071096 -1.751521,1.188272 -2.522057,1.391596 -5.216561,1.376507 -2.613701,-0.014635 -3.582856,-0.26746 -5.593395,-1.459147 l -2.431911,-1.441442 1.907095,-0.155914 c 1.048903,-0.08575 2.818162,0.192025 3.931685,0.617283 2.183443,0.833865 3.80472,0.790091 4.722314,-0.1275 0.73807,-0.738073 5.361619,-0.753595 6.094758,-0.02046 0.417875,0.417877 0.912633,0.409125 1.985125,-0.03512 0.785692,-0.325444 2.165821,-0.521195 3.066951,-0.435003 l 1.638417,0.156714 -2.796698,1.5849 c -1.538183,0.871695 -2.796697,1.781183 -2.796697,2.021085 0,0.239901 1.485999,1.5378009 3.302223,2.8842229 1.81622,1.346421 3.710558,2.899243 4.20963,3.450714 1.178908,1.302677 1.631049,1.264331 2.295831,-0.194713 0.300064,-0.658563 1.38973,-1.756029 2.421483,-2.438811 1.031757,-0.682783 1.875917,-1.45719 1.875917,-1.720904 0,-0.81876 -2.613015,-0.505561 -3.87541,0.46451 -0.882672,0.678281 -1.432347,0.798177 -2.077173,0.453075 -0.482277,-0.258108 -1.038917,-0.369138 -1.236972,-0.246734 -0.19805,0.122405 -0.768164,-0.07583 -1.266905,-0.440521 -1.305669,-0.954728 -0.646996,-2.1689579 1.176579,-2.1689579 1.395922,0 1.494404,-0.111196 1.352814,-1.527409 -0.209767,-2.09809 1.284073,-2.342487 2.300767,-0.376415 0.555342,1.073911 1.076641,1.417442 2.150938,1.417442 1.838189,0 2.195704,-0.64992 1.196447,-2.174982 -0.801709,-1.223563 -0.798261,-1.229693 0.692248,-1.229693 1.868486,0 2.50496,1.077676 2.50496,4.241378 0,2.1796099 -0.14855,2.4739709 -1.945412,3.8549889 -1.867717,1.435474 -4.377556,4.600189 -4.377556,5.519765 0,0.242338 0.291941,0.615644 0.648756,0.829569 0.35682,0.213925 1.791672,2.093387 3.188566,4.17658 2.211483,3.297996 2.520583,4.052496 2.391128,5.836586 l -0.148673,2.048961 z M 5.000002,25.686506 c 0,-1.185298 0.188247,-1.614836 0.632926,-1.444196 0.38749,0.148694 0.894215,-0.423053 1.306736,-1.474412 0.370597,-0.944508 0.80206,-1.717288 0.958807,-1.717288 0.156748,0 0.717794,-0.817159 1.24677,-1.815909 0.528975,-0.99875 1.673108,-2.512606 2.542516,-3.364125 1.772715,-1.736239 2.006768,-2.602081 0.70339,-2.602081 -0.482544,0 -1.61984,-0.766052 -2.527323,-1.702337 C 8.95634,10.629872 7.942083,9.8638201 7.60992,9.8638201 c -1.063622,0 -0.495601,2.0010819 0.901789,3.1769079 0.743663,0.625751 1.352115,1.562805 1.352115,2.08234 0,1.07274 -1.124961,2.208542 -1.658759,1.674745 -0.194315,-0.194315 -0.746042,0.16737 -1.22606,0.803745 -1.605885,2.128968 -1.998661,0.903728 -1.932447,-6.028134 l 0.06201,-6.4919309 6.147089,0.01484 c 3.380899,0.0082 6.420679,0.235496 6.755067,0.505189 0.885211,0.713946 0.746733,1.663223 -0.398234,2.729923 -1.136103,1.05844 -2.433338,0.90263 -4.382582,-0.526391 -0.883256,-0.647529 -1.64525,-0.821666 -2.57469,-0.588391 -1.519555,0.381384 -1.453809,1.181782 0.163888,1.995193 0.616911,0.310194 1.256243,0.749106 1.420737,0.9753569 0.164495,0.226252 1.126714,0.700439 2.138264,1.053748 1.765021,0.616478 1.905922,0.583783 3.494313,-0.810843 0.910322,-0.7992729 2.119793,-1.6007019 2.687714,-1.7809529 1.313985,-0.417043 2.259436,-2.666242 1.360497,-3.236578 -0.372606,-0.236402 0.378219,-0.400714 1.851296,-0.405141 1.869324,-0.0056 2.695059,0.232263 3.361161,0.968299 1.028665,1.13666 1.108757,1.022156 -1.705036,2.437603 -4.638995,2.3335939 -12.159554,8.1245719 -12.159554,9.3630959 0,0.252252 -0.55048,1.146851 -1.223288,1.987998 -0.672808,0.841148 -1.396375,1.748231 -1.607927,2.015741 -0.211551,0.267511 -0.404571,0.595819 -0.428934,0.729574 -0.25872,1.420444 -1.951818,3.891057 -2.666521,3.891057 -0.485475,0 -0.88268,0.218872 -0.88268,0.486382 0,0.26751 -0.328308,0.486382 -0.729574,0.486382 -0.508286,0 -0.729573,-0.511707 -0.729573,-1.687072 z m 88.604395,-5.000683 c -0.240774,-0.468142 -0.337335,-1.131771 -0.214577,-1.474731 0.122758,-0.34296 -0.103391,-1.121998 -0.502555,-1.731196 -0.654184,-0.998413 -0.638464,-1.223347 0.159427,-2.281132 0.486844,-0.645424 0.789281,-1.328648 0.672087,-1.518275 -0.117198,-0.189628 0.0093,-0.482254 0.281231,-0.650282 0.32094,-0.19835 0.494315,1.239919 0.494315,4.100641 0,2.423379 -0.101736,4.406144 -0.22608,4.406144 -0.124343,0 -0.423074,-0.383026 -0.663848,-0.851169 z M 47.138249,13.258594 c -3.485113,-1.996068 -4.200437,-2.828742 -4.200437,-4.8895239 0,-3.216226 0.19078,-3.369072 4.205232,-3.369072 h 3.614778 l -0.999048,1.072352 c -1.162415,1.247707 -1.052818,2.089132 0.272111,2.089132 0.696232,0 0.970819,-0.400176 1.084647,-1.580742 0.149494,-1.550516 0.198551,-1.580742 2.565544,-1.580742 2.126473,0 2.468049,0.144446 2.875438,1.215956 0.254266,0.668775 0.701344,1.215955 0.993504,1.215955 0.552939,0 0.148094,1.977862 -0.497788,2.431911 -0.190263,0.133755 -0.487598,0.8225999 -0.66074,1.5307659 -0.401105,1.640543 -3.092501,3.254732 -5.321391,3.191552 -0.933907,-0.02647 -2.703239,-0.623867 -3.93185,-1.327544 z m 7.576988,-3.060416 c 0.619437,-0.9741859 0.422962,-1.8733329 -0.373133,-1.7075729 -0.415395,0.08649 -0.688985,0.30378 -0.607978,0.482861 0.08101,0.179081 -0.396611,0.904553 -1.061373,1.6121599 l -1.20866,1.286559 1.441953,-0.548229 c 0.793075,-0.301526 1.607206,-0.808126 1.809191,-1.125778 z M 33.210168,6.3547061 c -0.668775,-0.291039 -1.759182,-0.619759 -2.423126,-0.73049 -2.396711,-0.399718 -1.554389,-0.624218 2.342062,-0.624218 h 3.972122 l -0.972765,0.972765 c -1.098425,1.098425 -1.231787,1.115879 -2.918293,0.381943 z"
     style="fill:#000000;stroke-width:0.48638219" />
</svg>
