<?xml version="1.0" encoding="UTF-8" standalone="no"?>
<svg
   xmlns:dc="http://purl.org/dc/elements/1.1/"
   xmlns:cc="http://creativecommons.org/ns#"
   xmlns:rdf="http://www.w3.org/1999/02/22-rdf-syntax-ns#"
   xmlns:svg="http://www.w3.org/2000/svg"
   xmlns="http://www.w3.org/2000/svg"
   id="svgK11"
   version="1.1"
   viewBox="0 0 100 100"
   height="100"
   width="100">
  <defs
     id="defs2" />
  <metadata
     id="metadata5">
    <rdf:RDF>
      <cc:Work
         rdf:about="">
        <dc:format>image/svg+xml</dc:format>
        <dc:type
           rdf:resource="http://purl.org/dc/dcmitype/StillImage" />
        <dc:title></dc:title>
      </cc:Work>
    </rdf:RDF>
  </metadata>
  <path
     id="pathK11"
     d="M 5.0582512,91.63499 C 5.0880232,90.34357 5.2655313,89.03915 5.4527143,88.73628 5.6398972,88.43342 5.6244117,87.74207 5.4183033,87.19996 5.1646763,86.53287 5.212185,86.14577 5.5652985,86.00226 5.9563944,85.8433 5.950941,85.7816 5.5435185,85.75587 5.2445833,85.73697 5,85.22083 5,84.60884 c 0,-0.63107 0.1882061,-0.99637 0.4348148,-0.84396 0.2391481,0.1478 0.4348148,-0.0248 0.4348148,-0.3835 0,-0.35871 -0.1956667,-0.77315 -0.4348148,-0.92095 -0.6091977,-0.3765 -0.5438985,-3.41292 0.086963,-4.04378 0.2869778,-0.28697 0.329871,-0.52177 0.095318,-0.52177 -0.5323368,0 -0.7606237,-8.12145 -0.2373767,-8.44484 0.2078567,-0.12846 0.31761,-0.87351 0.2438959,-1.65566 -0.1053317,-1.11763 -0.052922,-1.23591 0.2447989,-0.55246 0.2083537,0.47829 0.4900985,1.55446 0.6260998,2.39148 0.136001,0.83702 0.6869556,2.19095 1.2243432,3.00873 0.5373876,0.81778 1.1772654,1.79611 1.4219509,2.17407 0.2446855,0.37796 0.8745452,1.17636 1.3996882,1.77423 0.525143,0.59787 1.95613,2.30996 3.179972,3.80463 1.223841,1.49468 2.501731,2.71759 2.839756,2.71759 0.338024,0 0.614589,0.29835 0.614589,0.66299 0,0.36464 0.454971,0.83597 1.011047,1.04738 0.556076,0.21142 1.33353,0.87658 1.727676,1.47811 0.394145,0.60155 1.16209,1.23446 1.706547,1.40648 0.544453,0.17202 1.245592,0.67603 1.55809,1.12002 0.312497,0.44398 0.841888,0.80725 1.17643,0.80725 0.334542,0 1.350696,0.50383 2.258124,1.11964 0.907423,0.6158 2.195588,1.22879 2.86259,1.36219 1.241239,0.24826 1.424062,1.31143 0.188101,1.09386 -0.375667,-0.0661 -0.807165,0.0806 -0.958884,0.32611 -0.151725,0.24549 -1.095895,0.4287 -2.09816,0.40713 l -1.8223,-0.0392 1.413148,-0.40803 c 1.738729,-0.50204 1.935187,-1.46833 0.217407,-1.06932 -0.799167,0.18564 -0.995999,0.14467 -0.593478,-0.12353 0.486692,-0.32428 0.430158,-0.49339 -0.294613,-0.88128 -0.49328,-0.26399 -1.155799,-0.38063 -1.472262,-0.25919 -0.342612,0.13147 -0.809864,-0.30893 -1.154981,-1.0886 -0.318776,-0.72017 -0.84995,-1.30939 -1.180378,-1.30939 -0.330434,0 -1.20128,-0.587 -1.935215,-1.30445 -0.733935,-0.71744 -1.607858,-1.30444 -1.94205,-1.30444 -0.334192,0 -1.025603,-0.587 -1.536468,-1.30445 -0.510866,-0.71744 -1.175959,-1.30444 -1.477986,-1.30444 -0.302026,0 -0.826785,-0.52173 -1.166131,-1.15939 -0.339347,-0.63766 -1.155077,-1.69877 -1.812735,-2.35803 -0.657657,-0.65926 -1.19574,-1.47413 -1.19574,-1.81084 0,-0.33671 -0.489167,-0.87399 -1.0870372,-1.19396 -0.5978703,-0.31997 -1.0870369,-0.73568 -1.0870369,-0.9238 0,-0.29084 -1.8915525,-3.28677 -2.389689,-3.7849 -0.091199,-0.0912 -0.050227,0.97987 0.091049,2.38014 0.1995926,1.9783 0.6296818,3.09776 1.9289414,5.02077 0.9196419,1.36114 2.1092107,2.78099 2.6434867,3.15521 0.534276,0.37422 1.199058,1.41289 1.477293,2.30815 l 0.505883,1.62776 0.04559,-1.63056 c 0.02507,-0.8968 0.212686,-1.63055 0.416913,-1.63055 0.646138,0 2.672382,2.10499 2.672382,2.77623 0,0.35403 0.381324,0.76471 0.847388,0.91263 0.466063,0.14793 0.95476,0.60726 1.085994,1.02074 0.131233,0.41348 1.510445,1.52855 3.064914,2.47794 2.623891,1.60254 3.575226,2.78301 2.284853,2.83517 -0.298935,0.0121 -1.815352,0.12756 -3.369816,0.25662 -2.455702,0.20388 -2.723196,0.15658 -2.040015,-0.36079 0.692681,-0.52455 0.447487,-0.60098 -2.059733,-0.64198 -1.565308,-0.0256 -3.579576,-0.18417 -4.476152,-0.35237 l -1.6301384,-0.30581 0.8222624,0.90859 0.822262,0.90858 H 8.1131535 5.0041196 Z m 2.5792951,-0.7599 C 7.0757317,90.42016 6.4973415,90.16667 6.3522352,90.31178 c -0.1451069,0.1451 0.078278,0.51398 0.4964115,0.81973 0.4181331,0.30575 0.773485,1.0235 0.7896706,1.595 l 0.029428,1.03911 0.495641,-1.03169 c 0.4267968,-0.88839 0.3537588,-1.14658 -0.52584,-1.85884 z m -1.3331016,1.36867 c 0,-0.23914 -0.1956667,-0.43481 -0.4348148,-0.43481 -0.2391481,0 -0.4348148,0.19567 -0.4348148,0.43481 0,0.23915 0.1956667,0.43482 0.4348148,0.43482 0.2391481,0 0.4348148,-0.19567 0.4348148,-0.43482 z m 9.1311103,-0.40457 c 0,-0.22252 -0.44025,-0.4671 -0.978333,-0.54352 -0.64294,-0.0913 -1.027872,-0.48888 -1.122837,-1.15969 -0.132954,-0.93916 -0.03327,-0.99631 1.247264,-0.71506 1.070338,0.23509 1.346896,0.16957 1.197482,-0.2837 -0.106857,-0.32416 -0.603039,-0.64979 -1.102628,-0.72362 -1.143811,-0.16903 -5.4505066,1.9763 -5.1013803,2.5412 0.1425397,0.23063 1.1281153,0.41934 2.1901683,0.41934 1.062053,0 1.931005,0.19566 1.931005,0.43481 0,0.23915 0.391333,0.43481 0.869629,0.43481 0.478297,0 0.86963,-0.18205 0.86963,-0.40457 z m 3.695926,-0.60897 c -1.155252,-0.66371 -1.846525,-0.84381 -2.058712,-0.53636 -0.175699,0.25458 -0.322449,0.30457 -0.326111,0.11109 -0.0037,-0.19347 -0.200377,-0.23204 -0.437144,-0.0857 -0.916073,0.56616 0.690023,1.49165 2.604559,1.50083 l 1.956667,0.009 -1.739259,-0.99923 z M 8.9133333,89.37816 c 0,-0.35211 0.2755852,-0.74595 0.6124118,-0.87521 0.3368267,-0.12925 0.8550589,-0.82081 1.1516279,-1.53679 0.458828,-1.10771 0.432351,-1.40865 -0.177597,-2.0186 -0.6658746,-0.66587 -0.7697831,-0.66384 -1.46221,0.0286 -0.7039856,0.704 -0.7039856,0.74541 0,0.74541 0.9192841,0 0.9610128,0.58421 0.093175,1.30445 -0.9249728,0.76766 -1.9566665,-0.17748 -1.9566665,-1.7925 0,-0.68816 -0.1956666,-1.25121 -0.4348148,-1.25121 -0.5815526,0 -0.5591422,2.48073 0.025676,2.84217 0.2532697,0.15653 0.4040517,0.71528 0.3350709,1.24168 -0.1297874,0.99041 0.912811,2.49742 1.4872166,2.14967 0.1793611,-0.10859 0.3261111,-0.48553 0.3261106,-0.83764 z M 8.8286163,82.93759 C 8.4704168,82.67515 7.8256804,81.7799 7.395869,80.94815 6.6472562,79.49945 6.5993162,79.47662 6.2558442,80.40511 c -0.4719197,1.27573 -0.1798411,1.9327 1.2430755,2.79607 1.2575691,0.76305 2.4172171,0.53316 1.3296966,-0.26359 z m 4.9763827,10.7457 c 0.418509,-0.10936 1.103343,-0.10936 1.521852,0 0.418509,0.10937 0.07609,0.19886 -0.760926,0.19886 -0.837018,0 -1.179435,-0.0895 -0.760926,-0.19886 z M 43.39609,92.1423 c 0.288626,-2.15185 1.580222,-3.2484 5.194093,-4.40969 0.62506,-0.20085 0.760926,-0.76684 0.760926,-3.16983 v -2.92532 l -1.171317,2.36816 c -1.225856,2.47842 -5.645891,7.12349 -7.524978,7.9081 -0.993074,0.41466 -3.501838,0.83053 -4.565555,0.75683 -3.145581,-0.21795 -4.392121,-0.51168 -6.367663,-1.50043 -1.280747,-0.64102 -2.719966,-1.49533 -3.198262,-1.89847 -0.478297,-0.40314 -1.652297,-1.11828 -2.608889,-1.58919 -0.956593,-0.47091 -2.805569,-1.7896 -4.108835,-2.93041 -1.303266,-1.14082 -2.582581,-2.07421 -2.842923,-2.07421 -0.437809,0 -3.911091,-3.84407 -3.924629,-4.3436 -0.01446,-0.53352 -2.119965,-2.99493 -2.409051,-2.81627 -0.176058,0.10881 -0.4362,-0.1047 -0.578094,-0.47447 -0.1477321,-0.38498 -0.07429,-0.55878 0.171845,-0.40666 0.754325,0.4662 0.468543,-0.18517 -1.0494059,-2.39188 C 8.206828,70.83988 7.5770862,69.29874 7.3564807,67.79859 6.8690995,64.48434 7.1456265,59.72136 7.9408044,57.73401 c 0.6668241,-1.66656 3.3677766,-4.5416 4.8213926,-5.13214 0.39418,-0.16015 1.890691,-0.73715 3.32558,-1.28224 1.434889,-0.5451 2.804555,-1.19674 3.043704,-1.4481 0.400814,-0.42128 1.074852,-0.49517 2.174075,-0.23832 0.239148,0.0559 -0.152187,0.25569 -0.869631,0.44401 l -1.304444,0.34241 1.521851,-0.005 c 1.732095,-0.006 5.292546,0.67422 7.065742,1.34941 0.657657,0.25041 1.195741,0.35015 1.195741,0.22163 0,-0.12851 0.831583,0.33392 1.847963,1.02762 1.016379,0.69371 2.72004,1.83095 3.785914,2.5272 2.072945,1.35411 7.570017,6.70944 9.935709,9.67952 1.332029,1.67235 4.056135,7.06363 4.551681,9.00825 0.117782,0.46221 0.236848,0.0479 0.264589,-0.92062 0.02774,-0.96855 -0.121592,-1.94688 -0.331851,-2.17408 -0.210259,-0.22719 -0.615759,-1.14376 -0.901106,-2.03682 -0.285351,-0.89307 -0.993821,-1.9974 -1.574381,-2.45406 -0.580556,-0.45668 -1.055557,-1.08877 -1.055557,-1.40466 0,-0.3159 -0.382072,-0.97257 -0.84905,-1.45928 -0.466973,-0.4867 -1.227912,-1.27625 -1.690972,-1.75455 -0.768292,-0.79357 -3.580187,-3.3755 -8.103391,-7.44067 -0.95134,-0.855 -3.249788,-2.26996 -5.107669,-3.14435 -3.35304,-1.57807 -4.057566,-2.43613 -2.040151,-2.48475 1.203693,-0.029 5.021371,-2.05703 6.176874,-3.28128 0.427827,-0.45327 1.010544,-0.82413 1.294931,-0.82413 0.284386,0 1.304013,-0.78418 2.265837,-1.74263 3.273607,-3.262088 4.356896,-4.2098 5.125114,-4.483692 0.422101,-0.15049 0.948974,-0.751055 1.170834,-1.33459 0.22186,-0.583536 0.805925,-1.188735 1.297918,-1.344889 0.491997,-0.156153 0.89454,-0.439091 0.89454,-0.628751 0,-0.18966 0.48671,-1.062047 1.08158,-1.938636 0.59487,-0.87659 1.201067,-2.069869 1.347104,-2.651731 0.146041,-0.581862 0.539831,-1.285581 0.875087,-1.563822 0.734606,-0.609668 0.811812,-3.266793 0.107564,-3.702041 -0.299618,-0.185173 -0.384407,-0.119984 -0.210316,0.161701 0.160425,0.259574 0.1145,0.581458 -0.102055,0.715297 -0.216555,0.133839 -0.526817,0.783276 -0.689468,1.443193 -0.382963,1.553798 -2.040917,4.895774 -2.428789,4.895774 -0.164981,0 -0.833909,0.806852 -1.486514,1.793005 -0.652605,0.986152 -2.39069,2.967692 -3.862412,4.403421 -2.326142,2.269255 -3.928017,3.480411 -9.787233,7.399981 -2.712039,1.81425 -9.618413,3.10572 -12.209888,2.28322 -0.455484,-0.14457 -1.282196,-0.35029 -1.837139,-0.45716 -0.554943,-0.10687 -2.182039,-0.81955 -3.615771,-1.58372 l -2.606783,-1.3894 0.77281,1.17946 c 0.425046,0.6487 0.665047,1.35382 0.533336,1.56694 -0.131711,0.21311 0.05079,0.67775 0.405569,1.03252 0.567571,0.56757 0.568051,0.67459 0.004,0.89104 -0.35258,0.1353 -0.641051,0.7282 -0.641051,1.31757 0,1.18028 -3.2285492,4.17349 -4.5016342,4.17349 -0.7359675,0 -0.9161326,2.16228 -0.7194893,8.63507 0.050605,1.66574 -0.080636,2.27978 -0.4602237,2.15325 C 5.2773888,65.88505 4.8764187,63.66296 5.2863303,62.99971 5.5623525,62.55309 5.5100299,58.58505 5.154985,53.03876 5.022333,50.96656 5.102431,48.38668 5.3329816,47.3057 5.6067871,46.02191 5.6029999,45.19112 5.3220636,44.91018 5.0384709,44.62659 5.0522276,44.02034 5.3624496,43.13044 5.6212175,42.38814 5.7260213,41.502184 5.5953469,41.161652 5.4646724,40.82112 5.5218459,40.28855 5.7223984,39.978163 c 0.2331177,-0.360787 0.4430589,0.219834 0.5820487,1.609733 0.203646,2.036464 0.2999761,2.183074 1.5218517,2.316234 0.7174444,0.0782 1.4903277,0.32277 1.7175184,0.54352 0.2271907,0.22075 0.5827068,0.40136 0.7900368,0.40136 0.207329,0 -0.303513,-0.83159 -1.1352049,-1.84797 C 8.3669575,41.984665 7.5464842,40.40371 7.3753759,39.487811 7.0450376,37.719597 6.0362234,36.928731 5.3975922,37.937314 5.1481225,38.3313 5.0133194,37.705261 5.0133194,36.152711 c 0,-1.506978 0.1386447,-2.172655 0.3748621,-1.799829 0.2061744,0.325408 0.2781906,0.961325 0.1600362,1.413148 -0.1181544,0.451823 -0.00707,0.821496 0.2468557,0.821496 0.6091042,0 0.2755082,-7.10746 -0.3432767,-7.313722 -0.2484867,-0.08283 -0.4517939,-1.038751 -0.4517939,-2.124271 0,-1.551646 0.1187014,-1.875159 0.5551254,-1.512959 0.7617912,0.63223 0.7505008,-4.005524 -0.011605,-4.767615 -0.6978351,-0.697818 -0.6978351,-2.203473 0,-2.955294 0.4348148,-0.468454 0.4348148,-0.524196 0,-0.278709 -0.3774457,0.213097 -0.5435185,-0.05852 -0.5435185,-0.888947 0,-1.144799 0.027228,-1.159803 0.6383938,-0.351772 0.5584517,0.73834 0.6401252,0.75196 0.6522222,0.108767 0.0076,-0.404395 -0.1897976,-0.861112 -0.4386734,-1.014926 C 5.6030711,15.334264 5.5262002,14.809047 5.6811234,14.320929 5.8689425,13.729162 5.8023932,13.532578 5.481403,13.730961 5.1694886,13.923734 5.0000047,13.560196 5.0000047,12.698375 c 0,-1.32329 0.6264338,-1.823403 0.9852682,-0.786587 C 6.0887322,12.210723 6.1761892,11.613027 6.179622,10.583576 6.184172,9.218427 6.0318693,8.770938 5.6168826,8.930184 5.2028271,9.089072 5.0659962,8.694783 5.1143545,7.48211 5.1793875,5.851284 5.2169425,5.815198 6.8729316,5.792344 c 1.647171,-0.02273 1.6718576,-9.56e-4 0.9292448,0.819619 -0.669246,0.73951 -0.6781528,0.842973 -0.072567,0.842973 0.3796715,0 0.812844,-0.386064 0.9626055,-0.857921 0.2522213,-0.794679 0.631005,-0.850772 5.1383751,-0.760926 4.363319,0.08697 4.85288,0.175614 4.738316,0.857921 -0.147848,0.880537 0.07702,0.935035 1.255566,0.304296 0.469272,-0.251148 0.738361,-0.642481 0.597975,-0.86963 -0.30745,-0.497465 3.879562,-0.4807 5.448669,0.02181 0.976416,0.312703 0.923716,0.35254 -0.51786,0.391472 -0.882691,0.02384 -1.725819,0.239009 -1.873621,0.478157 -0.147802,0.239148 -0.719044,0.434815 -1.269429,0.434815 -0.550384,0 -1.721527,0.489167 -2.602538,1.087037 -0.881012,0.59787 -1.766313,1.087037 -1.967336,1.087037 -0.201023,0 -0.701797,0.513258 -1.112829,1.140573 -0.411033,0.627315 -0.54489,1.015456 -0.29746,0.862537 0.77639,-0.479836 1.114697,0.710604 0.358983,1.263195 -0.395258,0.28902 -0.718651,0.727569 -0.718651,0.974554 0,0.438628 -0.977942,0.976918 -1.774822,0.976918 -0.219588,0 -0.399252,-0.2935 -0.399252,-0.652222 0,-0.358722 0.219625,-0.652222 0.488056,-0.652222 0.331886,0 0.3105,-0.213941 -0.06684,-0.668604 -0.483908,-0.583072 -0.636727,-0.499636 -1.194588,0.652222 -0.351833,0.726454 -0.818671,1.320826 -1.037419,1.320826 -0.710606,0 -3.9283658,3.579486 -4.5454915,5.056475 -0.3304166,0.790799 -0.6000261,2.373517 -0.5991321,3.517151 l 0.00161,2.079336 0.8129088,-1.304444 c 0.4470996,-0.717445 1.4247015,-1.879135 2.1724486,-2.581535 0.7477462,-0.7024 1.3627712,-1.485066 1.3667212,-1.739259 0.0086,-0.55624 3.212862,-3.694145 4.884484,-4.783394 0.657657,-0.428539 1.195741,-1.055 1.195741,-1.392137 0,-0.531028 0.730314,-0.985602 2.391481,-1.488546 0.239148,-0.07241 0.791433,-0.585013 1.227299,-1.139128 0.435867,-0.554115 1.135508,-1.007481 1.554761,-1.007481 0.419252,0 1.206271,-0.472612 1.748933,-1.050249 0.542662,-0.577637 1.448638,-1.166198 2.013284,-1.307915 0.564646,-0.141717 1.566712,-0.463006 2.226813,-0.713976 0.96164,-0.365615 1.073479,-0.536446 0.562693,-0.8595 -0.473978,-0.299778 -0.302913,-0.403192 0.666958,-0.403192 0.717445,0 1.574095,0.170794 1.903667,0.379543 0.768818,0.486961 0.24754,1.3464 -0.81663,1.3464 -0.450068,0 -0.955975,0.222749 -1.124235,0.494997 -0.223634,0.361847 0.149594,0.391088 1.38749,0.108704 2.258688,-0.515242 7.046312,-0.34255 8.418205,0.30365 0.606027,0.285457 1.753573,0.833997 2.550102,1.218979 3.307792,1.598741 6.640082,6.365778 7.289717,10.428376 0.200767,1.255533 0.418079,1.675687 0.665132,1.285974 0.251219,-0.396286 0.369036,-0.201733 0.373597,0.616911 0.0035,0.657658 -0.189009,1.195741 -0.428157,1.195741 -0.239149,0 -0.421062,0.44025 -0.404252,0.978333 0.02826,0.904246 0.05564,0.914241 0.361761,0.131989 0.30878,-0.789041 0.349552,-0.776179 0.602206,0.189966 0.14905,0.569972 0.162116,1.831327 0.02904,2.803012 -0.207941,1.518251 -0.02083,2.10301 1.330638,4.158181 1.616635,2.45844 6.147209,7.542452 11.119747,12.478097 1.853789,1.84003 4.125783,3.49796 6.626638,4.83561 2.185005,1.16871 3.807477,2.31425 3.809938,2.68999 0.0026,0.40321 -1.038964,1.0551 -2.713309,1.69814 -1.494676,0.57403 -2.874065,1.30679 -3.06531,1.62833 -0.191244,0.32155 -0.597387,0.58464 -0.90254,0.58464 -0.305149,0 -1.014367,0.48917 -1.576039,1.08704 -0.561672,0.59787 -1.357509,1.08703 -1.768535,1.08703 -0.411022,0 -0.861068,0.29644 -1.0001,0.65875 -0.139032,0.36231 -0.746964,0.84664 -1.350961,1.07628 -0.604001,0.22964 -1.098181,0.70167 -1.098181,1.04895 0,0.34728 -0.489167,1.0162 -1.087037,1.48649 -0.59787,0.47028 -1.087037,0.98679 -1.087037,1.14779 0,0.161 -0.635917,0.94516 -1.413148,1.74257 -2.515347,2.58064 -2.822439,3.00822 -4.630884,6.44779 -1.730667,3.29162 -2.428701,6.82768 -1.347826,6.82768 0.239148,0 0.434815,-0.38014 0.434815,-0.84476 0,-2.07169 2.403715,-7.29393 4.514567,-9.8082 7.118383,-8.47884 11.048961,-11.63271 17.926587,-14.38419 2.336042,-0.93457 3.333994,-1.11154 5.122461,-0.90841 7.098795,0.80627 9.749513,2.34863 13.191637,7.67577 1.475783,2.28396 1.540366,2.54942 1.540366,6.33155 0,3.9055 -0.208976,4.74899 -2.177344,8.78843 -0.711678,1.4605 -0.581129,2.29169 0.206124,1.31236 0.244953,-0.30472 1.055505,-1.70666 1.801225,-3.11542 1.324854,-2.50284 1.355852,-2.69585 1.355852,-8.44265 0,-3.2347 0.109317,-5.77196 0.242923,-5.63834 0.384572,0.38456 0.488562,14.2509 0.106873,14.2509 -0.188623,0 -0.686907,0.64841 -1.107299,1.44092 -1.351966,2.54868 -2.796155,4.64648 -3.198781,4.64648 -0.215524,0 -0.391863,0.2499 -0.391863,0.55532 0,0.45662 -1.523304,2.47243 -2.942801,3.89425 -2.819887,2.82451 -5.434893,5.09464 -6.118565,5.31163 -0.47247,0.14995 -0.968807,0.5587 -1.102965,0.90832 -0.134162,0.34961 -0.505872,0.63567 -0.826026,0.63567 -0.911241,0 -6.415901,2.8851 -6.102538,3.19845 0.154029,0.15405 -0.328007,0.28006 -1.071197,0.28006 -0.743185,0 -1.472504,-0.19619 -1.620707,-0.43598 -0.177322,-0.28692 -0.579612,-0.27001 -1.1765,0.0494 -0.950505,0.50869 -13.279669,0.22457 -13.784146,-0.31765 -0.141427,-0.152 0.378772,-0.18747 1.156003,-0.0788 1.392382,0.19467 1.929934,-0.2271 0.86963,-0.68232 -0.298935,-0.12835 0.04348,-0.12064 0.760926,0.0171 1.724888,0.33122 5.336881,0.61606 4.782962,0.37718 -0.239148,-0.10312 -1.810864,-0.59531 -3.492702,-1.09375 -3.157651,-0.9358 -4.090663,-1.57248 -6.784102,-4.62943 -1.450913,-1.64674 -1.606325,-2.08552 -1.895429,-5.35148 -0.173208,-1.95671 -0.418126,-3.45446 -0.544266,-3.32832 -0.12614,0.12614 -0.192132,1.94731 -0.14665,4.04704 0.08841,4.0819 0.725523,5.77436 2.173691,5.77436 0.765224,0 1.575427,1.08878 1.399197,1.88028 -0.04389,0.19714 0.120713,0.2345 0.365784,0.083 0.245074,-0.15145 0.445589,0.005 0.445589,0.34814 0,0.34295 0.123057,1.23884 0.273464,1.99085 L 54.680978,94 48.927863,93.89618 43.174742,93.79237 43.396071,92.14223 Z m 2.476501,0.53628 c 0,-0.23915 -0.08629,-0.43482 -0.191749,-0.43482 -0.10546,0 -0.312675,0.19567 -0.460473,0.43482 -0.147802,0.23915 -0.06152,0.43481 0.191744,0.43481 0.253263,0 0.460478,-0.19566 0.460478,-0.43481 z m 25.037958,-0.20185 c 1.454747,-0.3431 3.481958,-1.17179 4.504912,-1.84154 1.022954,-0.66975 1.985042,-1.21803 2.137967,-1.2184 0.152928,-3.7e-4 0.895257,-0.44062 1.649617,-0.97833 0.754361,-0.53771 1.579696,-0.97766 1.834075,-0.97766 0.25438,0 0.754426,-0.53808 1.111213,-1.19574 0.356783,-0.65766 0.656531,-1.06433 0.666106,-0.90373 0.0347,0.58193 5.670002,-5.50299 5.670002,-6.12238 0,-0.20908 -1.809917,1.37548 -4.022037,3.52124 -5.43435,5.27134 -9.992052,7.80762 -17.718702,9.86015 l -1.521852,0.40427 1.521852,0.038 c 0.837018,0.0209 2.712101,-0.24275 4.166847,-0.58584 z m -3.297217,-1.08642 c 6.027237,-1.39076 12.110974,-5.06441 17.392591,-10.50248 2.635225,-2.71329 3.534835,-4.08904 5.473483,-8.37045 2.597474,-5.73638 1.758886,-10.85157 -2.456412,-14.9836 -1.607132,-1.57538 -4.641696,-3.35767 -6.468836,-3.79934 -0.373436,-0.0903 -1.367501,-0.33462 -2.209032,-0.54301 -1.737933,-0.43037 -1.998831,-0.39876 -4.992165,0.6048 -2.917355,0.97808 -6.145564,2.64407 -8.261481,4.2635 -3.443516,2.63552 -7.269255,6.15969 -7.84382,7.22552 -0.322297,0.59787 -1.137601,1.67404 -1.811781,2.39148 -1.695661,1.80448 -2.422606,3.05659 -3.548637,6.11225 -1.158983,3.14508 -1.398609,8.86971 -0.466143,11.13617 0.767787,1.86617 3.983873,5.14455 5.046817,5.14455 0.451446,0 1.304583,0.33885 1.895862,0.75299 1.164795,0.81586 4.457999,1.44589 5.858072,1.12074 0.478297,-0.11108 1.554463,-0.35998 2.391482,-0.55312 z m -7.564751,-9.00927 c 0.520816,-2.17611 1.011687,-2.7469 2.36227,-2.7469 1.590752,0 1.762304,-1.14608 0.257206,-1.71831 -1.021184,-0.38826 -1.84618,-2.27725 -1.347182,-3.08465 0.721892,-1.16804 3.683568,0.0966 3.683568,1.57291 0,1.02824 1.296457,0.69878 1.729206,-0.43944 0.449955,-1.18346 1.953849,-2.16451 2.812808,-1.83489 0.308401,0.11833 0.660132,0.73516 0.781628,1.37072 0.187192,0.97923 -0.003,1.26236 -1.246927,1.85551 -1.590605,0.75851 -1.875235,1.57212 -0.766957,2.19235 0.509177,0.28495 0.625116,0.73683 0.423888,1.65216 -0.243605,1.10811 -0.485249,1.27204 -2.005314,1.36038 -1.449916,0.0843 -1.728332,-0.0342 -1.728332,-0.73526 0,-0.88153 -0.830796,-1.70218 -0.923982,-0.9127 -0.02987,0.25326 -0.07881,0.64636 -0.108703,0.87355 -0.103821,0.78905 -0.949362,1.3004 -2.5783,1.55928 -1.61598,0.25682 -1.634116,0.24381 -1.344877,-0.96471 z m 2.781788,-1.31453 c 0,-1.02771 -1.073062,-0.37308 -1.2375,0.75495 -0.131366,0.90117 -0.06238,0.95907 0.543518,0.45622 0.381689,-0.31677 0.693982,-0.8618 0.693982,-1.21117 z m 4.474135,-0.56274 c -0.125078,-0.4783 -0.40026,-0.86963 -0.611514,-0.86963 -0.211255,0 -0.384103,0.39133 -0.384103,0.86963 0,0.47829 0.275181,0.86963 0.611515,0.86963 0.397442,0 0.531905,-0.30444 0.384102,-0.86963 z m -1.430432,-1.73926 c 0,-0.23915 -0.195666,-0.43482 -0.434814,-0.43482 -0.239148,0 -0.434815,0.19567 -0.434815,0.43482 0,0.23915 0.195667,0.43481 0.434815,0.43481 0.239148,0 0.434814,-0.19566 0.434814,-0.43481 z m -1.719327,-2.13684 c -0.558606,-1.04376 -1.324376,-1.20349 -1.324376,-0.27625 0,0.58841 1.335368,1.65747 1.662162,1.33068 0.08115,-0.0812 -0.07085,-0.55565 -0.337786,-1.05443 z m 4.795642,-0.59163 c -0.05378,-0.5199 -0.650174,-0.41921 -0.837018,0.14132 -0.09566,0.28698 0.06087,0.44351 0.347851,0.34785 0.286978,-0.0957 0.507103,-0.31578 0.489167,-0.48917 z m 3.681885,-4.19852 c -0.137592,-0.22263 -0.04811,-0.52964 0.198837,-0.68227 0.246949,-0.15262 0.354739,-0.43001 0.239535,-0.61641 -0.333455,-0.53955 1.450829,-2.20989 2.360631,-2.20989 0.995965,0 1.700778,-0.95783 0.900984,-1.22442 -1.355613,-0.45188 -2.141097,-1.74589 -1.812156,-2.98535 0.272294,-1.02601 0.586435,-1.2474 1.930495,-1.36057 1.157299,-0.0974 1.664971,0.0542 1.819191,0.54352 0.729767,2.31532 0.642539,2.27635 1.873804,0.8371 1.144033,-1.33728 3.71841,-2.25845 4.188041,-1.49857 0.125983,0.20384 0.01683,0.9794 -0.242544,1.72347 -0.341052,0.97833 -0.85099,1.45114 -1.842089,1.70797 -1.569803,0.40677 -2.173443,1.82204 -0.77714,1.82204 1.134371,0 1.305392,0.34342 1.040064,2.08847 -0.205559,1.35197 -0.310784,1.42852 -1.793102,1.30445 -1.244666,-0.10418 -1.700704,-0.39587 -2.175787,-1.39166 l -0.601062,-1.25986 -0.692934,1.14202 c -0.381115,0.62811 -1.436737,1.43963 -2.345826,1.80338 -1.9457,0.77851 -1.946331,0.77858 -2.268942,0.25658 z m 3.24254,-2.03323 c 0,-0.094 -0.2935,-0.17089 -0.652222,-0.17089 -0.358722,0 -0.652222,0.18953 -0.652222,0.42117 0,0.23164 0.2935,0.30854 0.652222,0.17089 0.358722,-0.13766 0.652222,-0.32718 0.652222,-0.42117 z M 81.09259,69.6334 c 0,-0.48313 -0.289878,-0.86963 -0.652223,-0.86963 -0.362344,0 -0.652222,0.3865 -0.652222,0.86963 0,0.48313 0.289878,0.86963 0.652222,0.86963 0.362345,0 0.652223,-0.3865 0.652223,-0.86963 z m -1.73926,-2.63455 c 0,-0.22504 -0.195666,-0.40915 -0.434814,-0.40915 -0.239148,0 -0.434815,0.30504 -0.434815,0.67788 0,0.37284 0.195667,0.55695 0.434815,0.40915 0.239148,-0.1478 0.434814,-0.45285 0.434814,-0.67788 z m -1.739259,-1.41309 c 0,-0.31301 -0.267741,-0.93527 -0.594983,-1.3828 -0.575947,-0.78766 -0.610823,-0.7841 -1.089915,0.11108 -0.406182,0.75897 -0.357975,1.00454 0.268876,1.36959 1.036903,0.60385 1.416022,0.57765 1.416022,-0.0979 z m 4.724411,-1.40973 c 0.137436,-0.70923 0.06415,-0.74117 -0.543519,-0.23684 -0.831044,0.6897 -0.934517,1.49582 -0.158855,1.23756 0.298935,-0.0995 0.615002,-0.54986 0.702374,-1.00072 z m -34.693364,27.0894 c 0.01831,-0.29893 0.09882,-0.88593 0.17893,-1.30444 0.08012,-0.41851 -0.100194,-0.76093 -0.40069,-0.76093 -0.789624,0 -2.121766,1.60196 -1.78511,2.14668 0.397938,0.64388 1.966371,0.58033 2.00687,-0.0813 z m 4.749696,-0.012 c 0,-0.73443 -1.243276,-2.48823 -1.763914,-2.48823 -0.225591,0 -0.410161,0.68484 -0.410161,1.52185 0,1.33344 0.134584,1.52186 1.087037,1.52186 0.59787,0 1.087038,-0.24997 1.087038,-0.55548 z m -13.415807,-0.3392 c 1.111065,-0.26114 2.465922,-0.94933 3.010792,-1.52932 0.544871,-0.57999 1.20115,-1.06074 1.4584,-1.06833 0.257249,-0.008 1.368244,-1.32835 2.468878,-2.935 1.715949,-2.50485 2.011749,-3.25506 2.075475,-5.26382 0.115583,-3.64328 -0.731858,-7.36299 -2.477592,-10.87498 -1.296222,-2.60768 -2.578447,-4.19279 -6.77084,-8.37019 -2.844493,-2.83432 -5.455786,-5.15331 -5.802877,-5.15331 -0.347091,0 -1.150446,-0.35659 -1.785232,-0.79242 -2.226104,-1.52838 -4.568599,-2.35463 -7.847098,-2.76783 -4.021172,-0.5068 -6.116769,-0.21884 -8.718258,1.19796 -1.644108,0.8954 -4.102923,3.5489 -4.174014,4.50451 -0.0102,0.13709 -0.292553,1.03193 -0.6274529,1.98852 -0.3349,0.95659 -0.5624477,2.13897 -0.5056617,2.62751 0.056786,0.48854 -0.092795,1.36904 -0.332402,1.95667 C 8.5673603,65.37537 8.5352623,65.30842 8.681617,63.87206 8.772995,62.97525 8.666846,62.2415 8.4457313,62.2415 c -0.221115,0 -0.3990312,1.12509 -0.3953692,2.50019 0.00409,1.53133 0.1490775,2.27551 0.3741794,1.92041 0.2424906,-0.38254 0.4436337,0.0955 0.5912494,1.40513 0.4812934,4.27003 5.9475421,11.56985 12.2875741,16.40927 7.438028,5.67754 12.721923,7.60201 17.675642,6.43773 z m -0.623246,-7.20191 c -0.170413,-0.1704 -0.309836,-0.63823 -0.309836,-1.0396 0,-0.40138 -0.391038,-1.08365 -0.868969,-1.51618 -0.847649,-0.76711 -0.880239,-0.75405 -1.328689,0.53237 -0.391638,1.12346 -0.657927,1.30318 -1.797951,1.2135 -0.736019,-0.0579 -1.519708,-0.42957 -1.741524,-0.82594 -0.444842,-0.79488 -0.08966,-2.41118 0.548654,-2.49673 0.223033,-0.0299 0.601183,-0.0788 0.840331,-0.1087 0.239148,-0.0299 0.434815,-0.20111 0.434815,-0.38047 0,-0.17936 0,-0.48839 0,-0.68674 0,-0.19835 -0.44025,-0.3451 -0.978333,-0.32611 -0.749821,0.0264 -1.220725,-0.45433 -2.01608,-2.0584 -1.204532,-2.42931 -0.821926,-3.43375 0.882557,-2.31692 0.56365,0.36931 1.220486,0.68396 1.459634,0.69921 0.239148,0.0153 0.643961,0.64891 0.899584,1.40812 0.619411,1.83966 1.346212,1.99898 1.703261,0.37335 0.206376,-0.93962 0.726366,-1.5298 1.794415,-2.03662 0.827109,-0.39249 1.57676,-0.63908 1.665897,-0.54799 0.08913,0.0911 0.228887,1.23835 0.310562,2.54945 0.104282,1.674 -0.01335,2.40228 -0.395016,2.44583 -0.298935,0.0341 -0.853324,0.0865 -1.231978,0.11636 -1.245866,0.0984 -0.361027,1.13678 1.157838,1.3588 1.409056,0.20597 1.487288,0.30889 1.487288,1.95666 0,1.53837 -0.12744,1.75412 -1.103312,1.86793 -0.606819,0.0708 -1.242735,-0.0107 -1.413148,-0.18118 z m 1.229891,-1.87523 c -0.157633,-0.25505 -0.47844,-0.46374 -0.712905,-0.46374 -0.234461,0 -0.174,0.27377 0.134367,0.60837 0.624246,0.67736 1.024688,0.57726 0.578538,-0.14463 z M 34.90618,81.00925 c 0.09268,-0.27804 -0.239131,-0.50553 -0.737355,-0.50553 -0.498224,0 -0.905862,0.27619 -0.905862,0.61375 0,0.72174 1.397238,0.62972 1.643217,-0.10822 z m 1.835301,-1.80997 c 0,-0.23915 -0.195667,-0.43482 -0.434815,-0.43482 -0.239148,0 -0.434815,0.19567 -0.434815,0.43482 0,0.23915 0.195667,0.43481 0.434815,0.43481 0.239148,0 0.434815,-0.19566 0.434815,-0.43481 z m 2.174074,-2.87282 c 0,-0.6445 -0.253428,-1.04052 -0.665871,-1.04052 -0.783545,0 -1.270564,1.03308 -0.918964,1.94934 0.375093,0.97747 1.584835,0.28375 1.584835,-0.90882 z m -5.659254,0.37263 c -0.01213,-0.59512 -0.811495,-1.60956 -1.06697,-1.35408 -0.342525,0.34252 0.203098,1.68019 0.685333,1.68019 0.213564,0 0.385303,-0.14675 0.381637,-0.32611 z M 23.170816,69.0195 c -0.396316,-0.28979 -0.852589,-1.05289 -1.013945,-1.69578 -0.371445,-1.47995 -0.892518,-1.49532 -1.258504,-0.0371 -0.260851,1.03931 -0.415668,1.10759 -1.895101,0.83579 -2.046194,-0.37592 -2.364422,-0.70173 -2.188556,-2.2407 0.109059,-0.95436 0.398943,-1.28302 1.229734,-1.39424 1.82237,-0.24396 1.909638,-0.81986 0.244007,-1.61025 -1.052685,-0.49953 -1.80185,-1.2701 -2.229194,-2.29288 -0.700315,-1.67609 -0.260166,-2.77874 0.771018,-1.93154 0.30907,0.25393 1.051113,0.52935 1.648983,0.61205 0.736234,0.10184 1.131715,0.46486 1.225482,1.12488 0.147213,1.03623 1.714381,2.4021 2.323896,2.0254 0.200175,-0.1237 0.363957,-0.59968 0.363957,-1.05772 0,-0.47914 0.535379,-1.10966 1.260706,-1.48474 1.574695,-0.81431 2.182645,-0.24952 2.531557,2.35181 0.202541,1.51007 0.120857,1.75825 -0.582608,1.77014 -0.835131,0.0141 -2.340025,0.94486 -2.340025,1.44725 0,0.153 0.465208,0.27818 1.033794,0.27818 1.252166,0 1.917081,0.73162 2.270389,2.49815 0.254319,1.2716 0.202963,1.32822 -1.204689,1.32822 -0.808681,0 -1.794589,-0.2371 -2.190901,-0.52689 z m 1.830666,-1.13905 c 0,-0.56045 -1.238822,-1.06655 -1.636717,-0.66865 -0.162121,0.16212 -0.0069,0.4768 0.344865,0.69928 0.841692,0.5323 1.291852,0.52163 1.291852,-0.0306 z m -5.217779,-1.03783 c 0,-0.10001 0.109188,-0.46638 0.24264,-0.81415 0.184372,-0.48047 -0.02447,-0.58126 -0.869629,-0.41969 -1.108076,0.21182 -1.373303,0.5749 -0.822394,1.12581 0.316668,0.31667 1.449383,0.4011 1.449383,0.10803 z m 2.174075,-2.40138 c 0,-0.51302 -0.848044,-1.06182 -1.159508,-0.75036 -0.311463,0.31147 0.237333,1.15951 0.750352,1.15951 0.225034,0 0.409156,-0.18412 0.409156,-0.40915 z m 3.043704,-2.46128 c 0,-1.45877 -1.25788,-0.92942 -1.868295,0.78623 -0.229847,0.646 -0.125979,0.67919 0.802129,0.25631 0.586391,-0.26717 1.066166,-0.73631 1.066166,-1.04254 z m -6.087409,-0.56157 c 0,-0.21356 -0.309503,-0.50706 -0.687784,-0.65222 -1.063679,-0.40817 -1.204223,-0.31967 -0.61666,0.3883 0.599892,0.72282 1.304444,0.86537 1.304444,0.26392 z m 30.219629,27.78163 c 0.147802,-0.23915 0.06152,-0.43482 -0.191745,-0.43482 -0.253262,0 -0.460477,0.19567 -0.460477,0.43482 0,0.23915 0.08628,0.43481 0.191744,0.43481 0.10546,0 0.312676,-0.19566 0.460478,-0.43481 z m 2.822839,-21.29915 c 0.441439,-0.86529 1.650054,-2.42069 2.685814,-3.45645 1.035759,-1.03576 1.886165,-2.00405 1.889787,-2.15176 0.0059,-0.23978 1.424293,-1.86936 2.821965,-3.24211 0.282782,-0.27773 1.028529,-1.04306 1.657219,-1.70071 0.628685,-0.65766 1.490827,-1.19574 1.915868,-1.19574 0.425044,0 0.772805,-0.18649 0.772805,-0.41442 0,-0.22793 0.684833,-0.73939 1.521851,-1.13658 0.837019,-0.39719 1.521852,-0.87248 1.521852,-1.0562 0,-0.18373 1.172326,-0.69952 2.605171,-1.1462 1.432845,-0.44669 2.606845,-0.92551 2.608889,-1.06405 0.0039,-0.27763 -5.280413,-3.00922 -5.821609,-3.00922 -0.185962,0 -1.440337,-1.07617 -2.787498,-2.39148 -1.34716,-1.31532 -2.605053,-2.39148 -2.795315,-2.39148 -0.190262,0 -0.672502,-0.68484 -1.071649,-1.521853 -0.399147,-0.837019 -0.868686,-1.521852 -1.043421,-1.521852 -0.463865,0 -4.304197,-3.645989 -4.304197,-4.086378 0,-0.444548 -3.024764,-3.884625 -3.626674,-4.124633 -0.638282,-0.254511 0.03292,2.505319 0.794555,3.266934 0.361922,0.361925 0.658044,0.910888 0.658044,1.219917 0,0.309028 0.522501,1.084368 1.161109,1.722977 0.695056,0.695057 0.869582,1.049239 0.434815,0.882402 -0.408961,-0.156933 -0.726293,-0.0684 -0.726293,0.202631 0,0.264734 0.45506,0.481335 1.011245,0.481335 0.55618,0 1.455746,0.473153 1.99903,1.051452 0.780888,0.83122 0.925312,1.335888 0.689525,2.409428 -0.278303,1.2671 -0.228917,1.34057 0.737959,1.0979 0.797107,-0.20006 1.483262,0.13334 2.973489,1.44483 1.065501,0.93771 3.271025,2.3284 4.901172,3.09042 1.676485,0.78369 2.891605,1.61204 2.797454,1.90704 -0.173182,0.54263 -3.943056,1.97346 -6.179148,2.34525 -0.708078,0.11773 -1.761717,0.58713 -2.341417,1.04312 -0.579695,0.45599 -1.302787,0.82908 -1.606871,0.82908 -0.316897,0 -0.466125,0.33174 -0.349626,0.77723 0.212364,0.81208 -1.333881,3.1361 -2.086541,3.1361 -0.608297,0 -1.676641,1.13463 -1.676641,1.78067 0,0.29609 -0.123809,0.41453 -0.275129,0.26321 -0.346765,-0.34676 -1.679735,1.3342 -2.085843,2.63038 -0.168587,0.53808 -0.551815,0.97833 -0.851616,0.97833 -0.374075,0 -0.569994,0.90382 -0.624467,2.88082 -0.07104,2.57836 -0.0074,2.82109 0.606175,2.31187 0.377054,-0.31293 1.046725,-1.27692 1.488162,-2.14221 z m -3.444729,-4.17011 c -0.49498,-1.05303 -0.899962,-2.05555 -0.899962,-2.22784 0,-0.17228 -0.889879,-1.13024 -1.977507,-2.12879 -1.67432,-1.5372 -1.933752,-1.98988 -1.692121,-2.9526 0.246805,-0.98335 0.146754,-1.13893 -0.740089,-1.15089 -1.316433,-0.0177 -2.465165,-0.89809 -2.200046,-1.68602 0.141911,-0.42174 -0.01565,-0.52767 -0.50535,-0.33975 -0.512225,0.19656 -0.711553,0.0302 -0.711553,-0.59381 0,-0.61387 -0.37785,-0.94242 -1.294696,-1.12579 -0.712078,-0.14242 -1.518703,-0.52886 -1.792497,-0.85876 -0.273795,-0.3299 -1.158682,-0.59982 -1.96642,-0.59982 -2.307627,0 -1.821091,-1.11008 0.939183,-2.14283 1.324285,-0.49548 2.645034,-0.9071 2.934999,-0.9147 0.746964,-0.0196 1.835149,-0.9389 2.171061,-1.83414 0.302566,-0.80635 2.486888,-1.09278 2.486888,-0.32611 0,0.23915 0.275182,0.43482 0.611515,0.43482 0.384798,0 0.532126,-0.30358 0.397382,-0.81884 -0.243618,-0.93161 0.958579,-3.52931 1.633342,-3.52931 0.24521,0 0.718049,-0.651493 1.050752,-1.447762 0.332703,-0.79627 0.908311,-1.699562 1.279134,-2.007318 1.011175,-0.839198 2.392655,-6.54566 1.584647,-6.54566 -0.258154,0 -0.469365,0.191867 -0.469365,0.426372 0,0.831304 -3.079636,5.22622 -3.662149,5.22622 -0.32545,0 -0.713083,0.483519 -0.861403,1.074486 -0.148324,0.590967 -0.63142,1.268083 -1.073544,1.504701 -0.796298,0.426166 -2.950384,2.323312 -5.515226,4.857371 -0.730945,0.72217 -1.730097,1.54563 -2.220342,1.82991 -2.453673,1.42281 -5.757287,3.92881 -5.5728,4.22732 0.114852,0.18584 1.13815,0.87228 2.273995,1.52543 1.135845,0.65315 2.587543,1.69894 3.225999,2.32398 2.083833,2.04004 3.779349,3.52791 4.020267,3.52791 0.129897,0 1.071793,0.91543 2.093099,2.03429 1.021306,1.11886 2.378645,2.57638 3.016314,3.23893 0.637669,0.66254 1.281034,1.58787 1.429701,2.05628 0.148668,0.4684 0.55929,0.96254 0.912498,1.09808 0.353209,0.13554 0.874791,0.78953 1.159073,1.45331 l 0.516877,1.20689 0.159156,-1.45049 c 0.09455,-0.86177 -0.20612,-2.22757 -0.740812,-3.36507 z m -17.531627,-13.952 c 0.298935,-0.12062 0.788102,-0.12062 1.087037,0 0.298935,0.12062 0.05435,0.21932 -0.543519,0.21932 -0.59787,0 -0.842453,-0.0987 -0.543518,-0.21932 z m 20.110183,11.29399 c 0,-0.1987 0.391334,-0.60567 0.86963,-0.90437 1.039696,-0.6493 1.133468,-1.64589 0.188976,-2.00832 -0.522514,-0.20051 -0.61673,-0.0598 -0.405514,0.6057 0.224104,0.7061 0.07614,0.86689 -0.797715,0.86689 -0.934565,0 -1.072858,0.19457 -1.072858,1.50943 0,1.2938 0.08696,1.42247 0.608741,0.90069 0.334807,-0.3348 0.60874,-0.77132 0.60874,-0.97002 z m -1.739259,-4.26639 c 0,-2.03276 -0.106016,-3.69593 -0.235587,-3.69593 -0.129575,0 -0.637482,0.37442 -1.128683,0.83205 l -0.893097,0.83204 0.911276,0.4877 c 0.92663,0.49591 1.313289,2.63118 0.476462,2.63118 -0.48364,0 -0.600127,1.86382 -0.144941,2.31901 0.778566,0.77856 1.01457,-0.0138 1.01457,-3.40605 z m -3.478518,1.56837 c 0,-0.21356 -0.283538,-0.4971 -0.630081,-0.63008 -0.421127,-0.1616 -0.549893,-0.0328 -0.388294,0.3883 0.263919,0.68776 1.018375,0.86688 1.018375,0.24178 z m 5.652592,-2.09994 c 0,-0.54963 -1.171752,-1.28562 -1.489067,-0.9353 -0.08091,0.0893 -0.04536,0.83175 0.079,1.64982 0.209298,1.37675 0.27015,1.42717 0.818091,0.67782 0.325585,-0.44527 0.591974,-1.07182 0.591974,-1.39234 z m 3.898099,0.77744 c 0.536657,-1.00275 -0.237983,-3.63472 -0.801446,-2.72303 -0.232918,0.37688 -0.508386,0.20738 -0.923469,-0.56821 -0.726153,-1.35683 -1.474444,-1.19382 -1.658544,0.36131 -0.108849,0.91945 0.04473,1.16221 0.735263,1.16221 1.071714,0 1.669524,0.84379 0.924173,1.30444 -0.655049,0.40484 -0.198102,1.30445 0.662584,1.30445 0.336194,0 0.813842,-0.37853 1.061439,-0.84117 z M 46.4593,56.38547 c 0.134718,-0.35106 0.05782,-0.75395 -0.170887,-0.89529 -0.228704,-0.14135 -0.415822,0.14588 -0.415822,0.63829 0,1.04989 0.241805,1.15581 0.586709,0.257 z M 8.9982444,52.81168 c 1.6239376,-1.55584 1.6350876,-2.74046 0.023793,-2.52784 -0.6576573,0.0868 -1.3424906,0.17127 -1.5218517,0.18775 -0.4109043,0.0377 -0.4344408,3.50847 -0.023793,3.50847 0.1662753,0 0.8511086,-0.52577 1.5218517,-1.16838 z m 34.6061396,0.30961 c -0.312406,-0.50025 -0.697499,-0.69759 -0.92239,-0.4727 -0.499959,0.49995 0.01744,1.33147 0.828461,1.33147 0.518743,0 0.535362,-0.15193 0.09393,-0.85877 z m 14.643194,0.27292 c 0.480009,-0.35099 0.622981,-0.69599 0.356639,-0.8606 -0.244509,-0.15112 -0.891092,0.11252 -1.436845,0.58585 -1.152312,0.99939 -0.231204,1.23368 1.080206,0.27475 z M 46.933361,52.56597 c 0.185892,0.17988 0.266172,-0.0643 0.178404,-0.54257 -0.107538,-0.58606 -0.567776,-0.91638 -1.411417,-1.01299 -1.017049,-0.11647 -1.199845,-0.008 -0.974616,0.57908 0.152477,0.39734 0.277229,1.03026 0.277229,1.40649 0,0.6089 0.08747,0.60489 0.796212,-0.0365 0.437915,-0.39631 0.9483,-0.57339 1.134192,-0.39351 z m 9.474955,-0.32517 c 1.060417,-0.98792 2.146184,-1.1034 3.34359,-0.35561 0.639017,0.39907 1.366936,0.38354 3.255211,-0.0695 1.337677,-0.3209 2.432141,-0.70588 2.432141,-0.8555 0,-0.14962 -1.236722,-0.8819 -2.748269,-1.62728 -2.682655,-1.32287 -2.761,-1.33484 -3.281595,-0.50123 -0.832988,1.33382 -2.844458,0.92509 -3.021523,-0.61397 -0.121609,-1.05706 -0.273881,-1.16471 -1.304445,-0.9222 -0.641717,0.15101 -1.319923,0.41224 -1.507124,0.58053 -0.684177,0.61503 0.221351,1.6775 1.659675,1.94733 2.556228,0.47955 2.279207,1.40221 -0.340978,1.13568 -0.872125,-0.0887 -1.011014,0.85769 -0.239148,1.62956 0.671528,0.67152 0.654705,0.67486 1.752465,-0.34786 z m 4.118074,-1.14447 c -0.594548,-0.59455 -0.292548,-1.08815 0.581943,-0.95114 0.487771,0.0764 0.88944,0.33461 0.892596,0.57376 0.007,0.52922 -1.051747,0.80017 -1.474539,0.37738 z m -8.324068,0.5278 c 0.463839,-0.33917 0.701634,-0.75838 0.528426,-0.93159 -0.173204,-0.1732 -0.564229,-0.12174 -0.868944,0.11436 -1.807743,1.4007 -3.676124,0.49758 -3.167026,-1.53083 0.242305,-0.96542 0.191949,-1.03054 -0.410335,-0.53069 -0.688081,0.57105 -0.730736,1.93376 -0.09241,2.95191 0.46066,0.73475 2.967958,0.68901 4.010285,-0.0732 z M 42.720184,50.6623 c 0.538083,-0.1442 0.978333,-0.42142 0.978333,-0.61604 0,-0.19462 -0.44025,-0.41639 -0.978333,-0.49281 -0.700491,-0.0995 -1.01741,-0.47853 -1.115922,-1.33468 -0.138362,-1.20251 -0.737863,-1.6131 -1.038477,-0.71125 -0.08882,0.26647 -0.68095,0.54151 -1.315836,0.61121 -0.634886,0.0697 -1.361188,0.25455 -1.613998,0.41079 -0.656266,0.4056 -0.568203,1.1024 0.139324,1.1024 0.329441,0 0.842566,0.2935 1.14028,0.65222 0.561632,0.67673 2.114565,0.83108 3.804629,0.37816 z m -2.881961,-0.74907 c -0.528544,-0.63685 -0.228539,-1.15094 0.67165,-1.15094 0.647743,0 0.793702,1.12089 0.194205,1.4914 -0.21205,0.13105 -0.601683,-0.0221 -0.865855,-0.34046 z m 10.817331,0.1535 c 0,-0.23915 -0.207216,-0.43481 -0.460478,-0.43481 -0.253262,0 -0.339547,0.19566 -0.191745,0.43481 0.147803,0.23915 0.355018,0.43481 0.460478,0.43481 0.10546,0 0.191745,-0.19566 0.191745,-0.43481 z m -4.807926,-2.28171 c -1.076862,-0.872 -2.625442,-0.87183 -2.912672,3.1e-4 -0.115365,0.35028 0.183062,0.50558 0.835571,0.43482 0.740637,-0.0803 0.982459,0.087 0.894557,0.61906 -0.07841,0.47464 0.225121,0.77818 0.86963,0.86963 1.360031,0.19298 1.542401,-0.92825 0.312914,-1.92382 z M 9.8916666,48.90914 c -0.2989352,-0.12063 -0.7881018,-0.12063 -1.087037,0 -0.2989351,0.12062 -0.054352,0.21931 0.5435185,0.21931 0.5978703,0 0.8424539,-0.0987 0.5435185,-0.21931 z m 42.0683314,0.1238 c 0,-0.0903 -0.342417,-0.43271 -0.760926,-0.76093 -0.689642,-0.54085 -0.705022,-0.52547 -0.164169,0.16417 0.568029,0.72429 0.925095,0.95463 0.925095,0.59676 z m -41.74222,-1.86697 c 0,-0.90084 -1.2371119,-2.31701 -2.0240579,-2.31701 -0.3785019,0 -0.5848311,0.53691 -0.5848311,1.52185 0,1.40107 0.1035272,1.52185 1.3044443,1.52185 0.9290387,0 1.3044447,-0.20913 1.3044447,-0.72669 z m 15.087974,-0.10124 c 5.223373,-1.66866 10.347335,-5.00516 15.203764,-9.900019 2.804973,-2.827173 6.185045,-7.099456 5.61682,-7.099456 -0.122561,0 0.176348,-0.929417 0.664245,-2.06537 1.375501,-3.202532 1.540918,-7.202265 0.420348,-10.163954 C 46.190858,15.139867 43.36187,11.844749 41.307036,10.959255 40.589591,10.650086 39.62449,10.200348 39.162369,9.959838 38.700243,9.719328 37.42841,9.293197 36.336072,9.012879 34.576308,8.561288 33.978398,8.623142 31.088889,9.555703 c -5.491107,1.7722 -11.690256,6.230907 -17.680184,12.716385 -1.793589,1.941974 -4.739868,7.859061 -5.2877199,10.619463 -0.7581204,3.819857 0.3508738,7.73099 2.9899309,10.544709 1.544694,1.64692 3.074275,2.49953 6.339215,3.53355 3.302349,1.04586 4.821462,1.06422 7.855621,0.0949 z m -9.000568,-8.230011 c 0,-1.342875 0.882034,-3.448091 1.437432,-3.430829 1.7764,0.05521 2.041087,-0.148762 2.041087,-1.572916 0,-1.10529 -0.24587,-1.564083 -1.02956,-1.921155 -1.143415,-0.520976 -1.817478,-2.7239 -0.996082,-3.255329 0.600042,-0.388218 3.371892,-0.0258 3.908761,0.511068 0.207629,0.207632 0.406952,0.8911 0.442937,1.51882 0.08699,1.517504 1.322963,1.299859 1.504385,-0.264911 0.161569,-1.393558 0.721584,-1.897264 2.541684,-2.286126 1.658231,-0.354279 1.935435,0.0066 1.59874,2.081401 -0.172774,1.064669 -0.490528,1.591971 -0.962019,1.59643 -0.387216,0.0037 -0.99753,0.192337 -1.356252,0.419278 -0.52133,0.32981 -0.368619,0.511537 0.760925,0.905507 1.118422,0.390091 1.411757,0.733398 1.406487,1.646092 -0.01013,1.752556 -0.672654,2.452919 -2.368545,2.503771 -1.207459,0.03621 -1.538127,-0.121862 -1.538127,-0.735265 0,-1.897436 -2.402208,-1.45913 -2.836353,0.517521 -0.284866,1.296984 -0.851684,1.683378 -3.359759,2.290312 -0.981284,0.237463 -1.19574,0.143543 -1.195741,-0.523669 z m 3.360002,-1.95057 c -0.301263,-0.90379 -1.398171,-0.550537 -1.546717,0.498111 -0.129049,0.911008 -0.05034,0.962398 0.787347,0.51408 0.511901,-0.273962 0.853618,-0.729448 0.75937,-1.012191 z m 6.500338,-1.427593 c 0.146916,-0.382858 -0.006,-0.869029 -0.339759,-1.080379 -0.922304,-0.584 -1.259098,-0.47712 -1.259098,0.399571 0,1.425041 1.128818,1.905703 1.598857,0.680808 z m -3.229412,-1.4447 c 0.179361,-0.0183 0.326111,-0.322574 0.326111,-0.676169 0,-0.52796 -0.194345,-0.554351 -1.087037,-0.147613 -1.246208,0.56781 -1.458129,1.219418 -0.326111,1.002715 0.418509,-0.08012 0.907676,-0.160636 1.087037,-0.178933 z m -2.445525,-3.743538 c -0.316594,-0.825031 -1.576514,-0.830835 -1.576514,-0.0073 0,0.764386 1.450517,1.690511 1.671572,1.067264 0.08235,-0.232168 0.03957,-0.709169 -0.09506,-1.060002 z m 6.250154,-0.256304 c 0,-0.524205 -1.190719,-0.482548 -1.521852,0.05324 -0.469974,0.760432 0.226947,1.403005 0.908337,0.837503 0.337434,-0.280044 0.613515,-0.680878 0.613515,-0.890743 z m 3.883365,-4.113606 c -0.739467,-0.891004 0.119079,-2.680278 1.546471,-3.222973 1.411557,-0.536672 1.633813,-2.853933 0.23874,-2.489114 -0.986895,0.258079 -1.567034,-0.307552 -1.972537,-1.923208 -0.271164,-1.080396 -0.186997,-1.153871 1.506759,-1.315397 2.267555,-0.216246 2.719849,0.07238 2.449529,1.563123 -0.17113,0.943717 -0.07664,1.141358 0.449185,0.939578 0.366249,-0.140543 0.845572,-0.255532 1.065157,-0.255532 0.21959,0 0.399256,-0.401317 0.399256,-0.891817 0,-0.606651 0.482157,-1.093275 1.507885,-1.521851 2.017924,-0.843143 1.970633,-0.869396 1.970633,1.093925 0,1.238511 -0.228782,1.846401 -0.81246,2.158776 -0.446855,0.239148 -0.936021,0.311254 -1.087037,0.160237 -0.15102,-0.151018 -0.274577,0.03835 -0.274577,0.420812 0,0.382464 0.391334,0.819594 0.86963,0.971399 0.868664,0.275705 1.10389,1.275061 0.605701,2.573327 -0.442306,1.152634 -2.711974,0.877512 -3.293709,-0.399253 -0.652426,-1.431922 -1.189366,-1.375555 -1.495884,0.157036 -0.327142,1.635717 -2.836141,2.988972 -3.672742,1.980932 z m 1.986634,-1.485745 c 0.147803,-0.239149 0.07306,-0.434815 -0.166086,-0.434815 -0.239148,0 -0.555741,0.195666 -0.703543,0.434815 -0.147802,0.239148 -0.07307,0.434814 0.166082,0.434814 0.239148,0 0.555745,-0.195666 0.703547,-0.434814 z m 5.435185,-1.547514 c 0,-0.344608 -0.2935,-0.62656 -0.652222,-0.62656 -0.731498,0 -0.761139,0.07987 -0.389255,1.048977 0.305457,0.796006 1.041477,0.497481 1.041477,-0.422417 z m -1.739259,-1.977525 c 0,-0.496825 -1.179113,-0.508047 -1.484371,-0.01413 -0.127187,0.205792 -0.119604,0.48581 0.01683,0.622263 0.339316,0.339318 1.467521,-0.128204 1.467521,-0.608136 z M 33.262963,18.71355 c 0,-0.496825 -1.179114,-0.508047 -1.484371,-0.01413 -0.127188,0.205792 -0.119605,0.48581 0.01683,0.622263 0.339317,0.339318 1.467522,-0.128204 1.467522,-0.608136 z m 5.571064,-0.361118 c 0.108704,-0.326112 -0.05435,-0.489167 -0.380463,-0.380463 -0.313884,0.104627 -0.656301,0.447044 -0.760926,0.760925 -0.108704,0.326112 0.05435,0.489167 0.380463,0.380463 0.31388,-0.104627 0.656296,-0.447044 0.760926,-0.760925 z M 49.508116,44.84896 c 0.696252,-2.02998 0.743182,-1.9672 0.893797,1.19574 0.05206,1.09339 1.041321,1.58764 1.844134,0.92136 0.597035,-0.49549 0.533813,-0.67332 -0.545281,-1.53375 -1.121892,-0.89457 -1.166117,-1.03664 -0.54678,-1.75665 1.25406,-1.45792 1.260999,-2.263592 0.03478,-4.036662 -1.37501,-1.988205 -1.728584,-2.109797 -2.235422,-0.768744 -0.457981,1.211789 -0.23406,1.630555 0.871895,1.630555 1.036747,0 1.577952,1.165556 0.869952,1.873551 -0.390999,0.391 -0.594218,0.37545 -0.867273,-0.0664 -0.196141,-0.317362 -0.530413,-0.609227 -0.74282,-0.648588 -0.212412,-0.03936 -0.331173,-0.23666 -0.263911,-0.438441 0.06726,-0.201781 -0.116178,-0.287385 -0.407639,-0.190231 -0.816621,0.272202 -0.960523,1.209328 -0.185718,1.209328 0.492415,0 0.688459,0.418922 0.688459,1.471142 0,1.14962 -0.208867,1.52576 -0.955709,1.72106 -0.525639,0.13746 -1.215199,0.0346 -1.532357,-0.22866 -0.601171,-0.49892 -0.387925,-1.00688 0.422696,-1.00688 0.259076,0 0.552576,-0.24458 0.652222,-0.54351 0.306088,-0.91827 -1.134288,-0.60118 -1.650487,0.36335 -0.266937,0.49878 -0.420574,0.95499 -0.341408,1.01381 0.07916,0.0588 0.627716,0.43339 1.219012,0.83239 0.591296,0.39899 0.835879,0.72545 0.543519,0.72545 -0.292361,0 -0.531561,0.20721 -0.531561,0.46047 0,0.25326 0.195666,0.33955 0.434814,0.19175 0.239148,-0.1478 0.434815,-0.0196 0.434815,0.28492 0,1.0483 1.199328,-0.64444 1.896266,-2.6764 z m 8.53929,2.60889 c 0,-0.23915 -0.08628,-0.43482 -0.191744,-0.43482 -0.10546,0 -0.312675,0.19567 -0.460478,0.43482 -0.147802,0.23914 -0.06152,0.43481 0.191745,0.43481 0.253262,0 0.460477,-0.19567 0.460477,-0.43481 z m 1.54745,-1.53568 c -0.464217,-0.35112 -1.44255,-0.6157 -2.174074,-0.58796 -0.911459,0.0346 -1.056357,0.11627 -0.460412,0.25961 0.478296,0.11505 1.055512,0.38585 1.282703,0.60179 0.227191,0.21593 0.814191,0.38638 1.304444,0.37878 0.877226,-0.0136 0.877978,-0.024 0.04734,-0.65222 z m -5.243375,-1.29062 c 0,-0.94379 -0.624968,-1.22755 -1.493893,-0.67829 -0.523209,0.33073 -0.530244,0.50789 -0.04344,1.09445 0.720618,0.86829 1.537331,0.64721 1.537331,-0.41616 z m 1.334338,-3.059104 c -0.964011,-1.471265 -1.248845,-1.186429 -0.581517,0.581519 0.322619,0.854725 0.674693,1.223995 0.926703,0.971985 0.25201,-0.25201 0.12087,-0.84221 -0.345186,-1.553504 z m -3.133763,-3.028303 c -0.264628,-0.689606 -1.026873,-0.904781 -1.026873,-0.289877 0,0.459823 0.475294,0.942099 0.928453,0.942099 0.191784,0 0.236074,-0.2935 0.09842,-0.652222 z M 9.2358941,26.478033 c 0.3750178,-0.418509 0.5524639,-0.760926 0.3943249,-0.760926 -0.272732,0 1.078017,-1.971458 2.979143,-4.348148 1.912639,-2.391082 6.6875,-6.695857 9.532573,-8.594087 1.655749,-1.104715 2.792764,-2.081136 2.526696,-2.169824 -0.555798,-0.185266 -2.759282,1.125315 -3.275977,1.948473 -0.191246,0.304677 -0.590731,0.553957 -0.887747,0.553957 -0.297015,0 -1.247814,0.635917 -2.112886,1.413148 -0.865073,0.777232 -2.664729,2.391482 -3.999236,3.587222 -1.334507,1.195741 -2.428485,2.339716 -2.431062,2.542167 -0.0026,0.202451 -0.768899,1.236284 -1.702938,2.297407 -1.9576435,2.224002 -3.4248281,5.116598 -3.6933489,7.281544 -0.3014805,2.430684 0.2466331,2.19544 1.149959,-0.493548 0.4612568,-1.373053 1.1454813,-2.838876 1.520499,-3.257385 z M 8.2188211,16.29379 C 8.8816118,15.384923 8.9464719,14.999654 8.5449322,14.356687 8.2692565,13.91526 8.0437038,13.281896 8.0437038,12.949212 c 0,-0.332685 -0.2926917,-0.847794 -0.6504255,-1.144687 -0.5682569,-0.471611 -0.638639,-0.148754 -0.5571239,2.555648 0.051316,1.702499 0.1972572,3.089304 0.3243145,3.081789 0.1270567,-0.0075 0.6033155,-0.524193 1.0583522,-1.148172 z M 11.675884,12.669801 C 12.307327,11.404045 12.282523,11.314216 10.895463,9.843505 9.1236832,7.964871 7.9267947,7.817871 8.1235262,9.503061 c 0.098309,0.842114 0.4472418,1.250958 1.2223387,1.432213 1.0575151,0.247298 1.8326661,1.73739 0.9037951,1.73739 -0.2566833,0 -0.4666971,0.2935 -0.4666971,0.652222 0,1.128488 1.2124851,0.708883 1.8929211,-0.655085 z m 3.759671,-0.866767 c 0,-0.239148 -0.195667,-0.434815 -0.434815,-0.434815 -0.239148,0 -0.434815,0.195667 -0.434815,0.434815 0,0.239148 0.195667,0.434815 0.434815,0.434815 0.239148,0 0.434815,-0.195667 0.434815,-0.434815 z M 15.354025,9.221321 C 15.462729,8.89521 15.299675,8.732155 14.973562,8.840858 14.65968,8.945486 14.317264,9.287902 14.212636,9.601784 c -0.108704,0.326111 0.05435,0.489167 0.380463,0.380463 0.313882,-0.104627 0.656299,-0.447044 0.760926,-0.760926 z M 27.715676,9.119033 c 0.655792,-0.317411 1.193876,-0.694665 1.195741,-0.838343 0.0065,-0.503448 -3.02972,0.6935 -3.256176,1.283645 -0.238052,0.620351 -0.0632,0.582563 2.060435,-0.445302 z M 13.051697,8.312181 c 0.151994,-0.245932 0.897292,-0.71783 1.656217,-1.048663 L 16.087777,6.662005 13.805,6.680435 c -1.852815,0.01496 -2.282778,0.15788 -2.282778,0.758787 0,1.225871 0.969407,1.779166 1.529475,0.872957 z M 10.514806,6.938544 c -0.138805,-0.346866 -0.241837,-0.243834 -0.262701,0.2627 -0.01888,0.458367 0.08389,0.71518 0.228373,0.570695 0.144485,-0.144486 0.159933,-0.519513 0.03433,-0.833395 z m 7.529638,0.588812 c 0,-0.566161 -0.516896,-0.942693 -0.937371,-0.682826 -0.449693,0.277926 -0.06194,1.045171 0.528217,1.045171 0.225035,0 0.409154,-0.163056 0.409154,-0.362345 z M 76.961849,93.45198 c 0.478296,-0.27752 1.340752,-0.55502 1.916564,-0.61665 0.575816,-0.0616 2.043316,-0.74042 3.261111,-1.50842 1.217798,-0.768 2.801176,-1.70748 3.518621,-2.08772 l 1.304444,-0.69135 -1.195741,-0.13758 c -1.340694,-0.15427 -1.379519,-0.22842 -0.742668,-1.41838 0.356035,-0.66527 0.627899,-0.75301 1.269368,-0.40971 0.586265,0.31376 0.878117,0.28468 1.035677,-0.10318 0.169621,-0.41755 0.312884,-0.40672 0.631625,0.0478 0.333259,0.47518 0.527048,0.42592 1.011436,-0.25711 0.329554,-0.46469 1.033302,-1.07522 1.56388,-1.35672 1.767757,-0.93788 3.244484,-4.14301 3.594053,-7.80062 0.351318,-3.67593 0.365536,-3.64278 0.662106,1.5435 0.112821,1.97298 0.03752,3.58723 -0.1673,3.58723 -0.204836,0 -0.858946,0.73517 -1.453581,1.63372 l -1.081145,1.63373 0.914663,0.72207 c 0.73712,0.5819 0.821748,0.8767 0.435993,1.51868 -0.719614,1.19759 -2.786554,1.30962 -3.085298,0.16722 -0.187522,-0.71709 -0.365587,-0.80505 -0.837288,-0.41357 -0.329511,0.27347 -0.599113,0.75884 -0.599113,1.07861 0,0.54067 2.103425,2.79065 2.608888,2.79065 0.124462,0 0.775897,-0.50963 1.447638,-1.1325 0.994312,-0.92197 1.208263,-1.46755 1.150972,-2.935 -0.10753,-2.75443 -0.01417,-4.36336 0.238557,-4.11064 0.125552,0.12555 0.327415,2.04031 0.448581,4.25501 0.18714,3.42061 0.124231,3.98987 -0.417936,3.78181 -0.771313,-0.29597 -2.867812,1.26081 -2.867812,2.12954 0,0.34137 -0.306683,0.62066 -0.681524,0.62066 -0.482753,0 -0.60134,-0.25263 -0.406595,-0.86621 0.334333,-1.05339 -1.677898,-3.01242 -3.115761,-3.03338 -1.78982,-0.0261 -2.353783,0.41202 -1.818326,1.41253 0.458634,0.85697 0.513851,0.86383 1.050143,0.1304 0.667119,-0.91233 1.493545,-0.55651 1.493545,0.64307 0,1.10594 -1.294935,1.10122 -2.707448,-0.01 l -1.085463,-0.85383 -2.031976,1.28864 c -1.526892,0.96833 -2.541619,1.28536 -4.08225,1.27542 -1.768701,-0.0114 -1.930839,-0.0825 -1.18064,-0.51781 z m 15.00111,-5.96551 c 0,-0.51303 -0.848041,-1.06182 -1.159508,-0.75036 -0.311462,0.31147 0.237335,1.15951 0.750356,1.15951 0.225034,0 0.409152,-0.18412 0.409152,-0.40915 z m -8.845346,5.82299 c 0.295861,-0.77101 1.509316,-0.68234 1.77981,0.13005 0.113239,0.3401 -0.234317,0.54351 -0.928655,0.54351 -0.823322,0 -1.042934,-0.17379 -0.851155,-0.67356 z m 4.393564,0.36604 c 0.540871,-0.10401 1.323537,-0.10006 1.73926,0.009 0.415722,0.10883 -0.02683,0.19393 -0.983404,0.1891 -0.956592,-0.005 -1.296726,-0.0939 -0.755856,-0.19787 z m 4.886597,-0.0237 c 0,-0.55094 1.471913,-1.84288 2.099607,-1.84288 0.796955,0 0.596475,1.17226 -0.251644,1.47142 -0.41851,0.14762 -1.00551,0.38241 -1.304445,0.52176 -0.298935,0.13935 -0.543518,0.0717 -0.543518,-0.1503 z M 92.119231,57.00149 c -2.446463,-1.21099 -3.239313,-2.19622 -3.684337,-4.57834 -0.294661,-1.57723 -0.218825,-2.35837 0.344138,-3.54472 0.781345,-1.64657 3.710018,-4.0295 4.952332,-4.0295 0.601027,0 0.743711,-0.30984 0.655374,-1.42316 -0.0621,-0.78274 0.03453,-1.809987 0.214734,-2.282778 0.180209,-0.472792 0.308105,3.102628 0.284221,7.945378 -0.02905,5.8903 -0.196141,8.80489 -0.504751,8.80466 -0.253723,-1.9e-4 -1.271494,-0.40138 -2.261711,-0.89154 z m 1.385342,-3.02145 c 0,-0.9566 -0.151194,-1.73926 -0.33599,-1.73926 -0.399504,0 -0.446381,1.81529 -0.07207,2.79073 0.375341,0.97813 0.408056,0.89383 0.408056,-1.05147 z M 91.99584,53.65392 c -0.202685,-1.24692 -0.467905,-1.63055 -1.127292,-1.63055 -0.639413,0 -0.834758,0.25694 -0.755865,0.99421 0.118726,1.10949 0.948192,2.22512 1.673124,2.25036 0.307309,0.0107 0.381476,-0.55926 0.210033,-1.61402 z m -0.03287,-2.98571 c 0,-0.0917 -0.391334,-0.16669 -0.86963,-0.16669 -0.478296,0 -0.869629,0.17735 -0.869629,0.39411 0,0.21675 0.391333,0.29177 0.869629,0.16669 0.478296,-0.12508 0.86963,-0.30243 0.86963,-0.39411 z m 0.05429,-1.90595 c 0.445763,-1.07006 -0.0825,-1.4137 -0.95684,-0.62244 -0.845006,0.76473 -0.751565,1.55419 0.162899,1.37627 0.28723,-0.0559 0.644504,-0.39511 0.793941,-0.75383 z m 1.684964,-0.21741 c 0,-0.59787 -0.195667,-1.08704 -0.434815,-1.08704 -0.485762,0 -0.596001,1.43314 -0.144937,1.8842 0.479314,0.47931 0.579752,0.34121 0.579752,-0.79716 z M 76.378181,50.0668 c -0.560172,-0.24013 -1.182565,-0.3352 -1.383106,-0.21126 -0.200537,0.12394 -0.487515,0.0265 -0.637726,-0.21656 -0.150211,-0.24305 -0.701817,-0.44524 -1.225786,-0.44932 -1.772757,-0.0138 -6.022728,-2.8779 -10.634991,-7.16703 -4.061166,-3.776644 -7.313424,-8.178806 -9.797686,-13.261851 -0.82875,-1.695706 -0.953164,-2.652561 -0.932853,-7.174444 0.01352,-3.006658 0.257142,-5.905788 0.574931,-6.841338 0.636321,-1.873284 3.612271,-4.625923 5.389386,-4.984974 0.662631,-0.133879 1.299187,-0.396155 1.414561,-0.582834 0.115373,-0.18668 1.599522,-0.58778 3.298109,-0.891335 2.46443,-0.440418 3.496289,-0.443389 5.107665,-0.01471 3.418661,0.909485 7.888436,3.270093 10.264433,5.420926 0.487297,0.441118 1.668663,1.348145 2.625255,2.015616 1.838706,1.282971 5.441503,5.16493 7.732029,8.33114 0.754251,1.04261 1.476631,1.993487 1.605288,2.113061 0.57743,0.536671 3.054904,5.854797 3.054904,6.557636 0,0.430591 0.168339,0.886931 0.374084,1.01409 0.658223,0.406803 0.936648,4.156662 0.464922,6.261599 -0.251084,1.120386 -0.856577,2.462918 -1.345539,2.983388 -0.488962,0.52048 -0.759139,1.15647 -0.600397,1.41332 0.158743,0.25686 0.08497,0.46701 -0.163942,0.46701 -0.248914,0 -1.189875,0.71677 -2.091033,1.59283 -0.901154,0.87605 -2.704361,2.06468 -4.007127,2.64138 -2.627399,1.1631 -7.449034,1.68513 -9.085381,0.98366 z m 8.710806,-2.21105 c 1.649591,-0.5428 3.981885,-2.40963 5.134719,-4.10997 0.358722,-0.52908 1.022253,-1.48345 1.474509,-2.120814 0.906571,-1.277625 1.373827,-6.328867 0.701465,-7.583115 -0.210964,-0.393534 -0.872848,-1.791683 -1.470853,-3.106998 -1.189331,-2.615921 -2.360466,-4.648025 -3.205306,-5.561714 -0.298936,-0.323295 -0.543519,-0.745925 -0.543519,-0.939177 0,-0.804093 -7.433237,-7.823677 -10.652962,-10.060133 -7.003892,-4.864981 -9.920586,-5.686455 -14.504182,-4.085042 -3.416565,1.193677 -5.4675,2.77458 -7.591944,5.852028 -1.269624,1.839173 -1.341308,2.162354 -1.301983,5.869999 0.04522,4.263326 0.144502,5.00005 0.938982,6.967372 0.289731,0.717445 0.612672,1.549028 0.717645,1.847963 0.104973,0.298935 0.392664,0.543519 0.639321,0.543519 0.246653,0 0.448459,0.218368 0.448459,0.485263 0,1.724805 8.638244,10.915959 13.234288,14.081369 1.270337,0.87492 3.361562,1.85946 4.647153,2.18786 2.689955,0.68715 8.875387,0.54067 11.334208,-0.26841 z m -2.671185,-6.463721 c -0.347304,-0.21948 -0.774453,-0.310682 -0.949222,-0.20267 -0.17477,0.108013 -0.64604,-0.359351 -1.047274,-1.038586 -0.401234,-0.679234 -1.295326,-1.44854 -1.986873,-1.70957 -1.147767,-0.433233 -1.280316,-0.383111 -1.520808,0.575081 -0.255853,1.01941 -0.515251,1.146305 -2.343251,1.146305 -1.708927,0 -1.789411,-0.09454 -1.655558,-1.944589 l 0.133706,-1.847962 1.847963,0.121395 c 2.431675,0.159741 2.477139,-0.800341 0.108703,-2.295469 -1.247557,-0.787549 -1.739259,-1.395434 -1.739259,-2.150228 0,-2.16802 3.824105,-1.615305 4.347587,0.628376 0.319846,1.370893 1.961106,1.733119 2.282591,0.503768 0.239617,-0.916299 2.759452,-1.728718 3.384741,-1.091274 0.199672,0.203554 0.424914,1.152765 0.500542,2.109358 l 0.137501,1.739259 -1.908337,-0.144803 c -1.633068,-0.123916 -1.868264,-0.04039 -1.630555,0.579081 0.152781,0.398136 0.277781,0.903547 0.277781,1.123136 0,0.219589 0.587,0.399252 1.304445,0.399252 1.014566,0 1.304444,0.193251 1.304444,0.86963 0,0.478296 0.209276,0.869629 0.465056,0.869629 0.576039,0 0.351257,1.837343 -0.247648,2.024244 -0.239149,0.07463 -0.718971,-0.04388 -1.066275,-0.263363 z m -0.02078,-1.735219 c 0,-0.513021 -0.848041,-1.061816 -1.159508,-0.750353 -0.311462,0.311463 0.237335,1.159506 0.750356,1.159506 0.225034,0 0.409152,-0.184119 0.409152,-0.409153 z m -6.087407,-1.112699 c 0.461495,-0.556069 0.341143,-0.652222 -0.816391,-0.652222 -1.293648,0 -1.698095,0.384281 -1.067805,1.014568 0.48504,0.485042 1.313084,0.325803 1.884196,-0.362346 z m 3.043703,-1.970313 c 0,-0.485801 -0.301939,-0.999141 -0.670975,-1.140753 -0.903828,-0.346831 -1.036003,-0.115239 -0.596797,1.045696 0.461187,1.21905 1.267772,1.279527 1.267772,0.09506 z m 3.043704,-2.595242 c 0,-0.478296 -0.281951,-0.869629 -0.62656,-0.869629 -0.907775,0 -1.326432,0.902049 -0.624889,1.3464 0.930656,0.589466 1.251449,0.467253 1.251449,-0.476771 z m -6.087407,-1.253731 c 0,-0.211256 -0.391333,-0.486438 -0.86963,-0.611515 -0.854715,-0.223512 -1.149798,0.135696 -0.579751,0.70574 0.421827,0.421828 1.449381,0.355026 1.449381,-0.09422 z m -7.391851,-6.214792 c -0.837019,-0.429638 -1.756639,-1.345432 -2.043604,-2.035098 -0.797689,-1.917115 -2.054317,-2.010437 -2.708561,-0.201148 -0.479092,1.324899 -0.677398,1.462126 -1.846615,1.277856 -1.710448,-0.269571 -1.80612,-0.396314 -1.846167,-2.445778 -0.03622,-1.852617 0.240227,-2.024466 2.111826,-1.312885 0.939378,0.357152 1.115344,0.301453 1.115344,-0.353044 0,-0.427403 -0.56276,-1.193163 -1.25058,-1.701689 -1.270851,-0.939582 -2.128223,-3.011509 -1.491084,-3.603354 0.192601,-0.178906 0.965476,-0.229256 1.717505,-0.111888 1.089198,0.16999 1.418653,0.470059 1.619685,1.475215 0.309936,1.54969 1.025676,1.628939 1.578547,0.174782 0.419862,-1.104322 1.052491,-1.253312 3.003744,-0.707413 1.10623,0.309488 1.491598,1.354989 1.110969,3.014049 -0.191201,0.833413 -0.447202,0.967948 -1.520095,0.798858 -1.720862,-0.271211 -1.729236,0.775865 -0.01331,1.66321 0.702278,0.363163 1.412922,0.880433 1.579208,1.149489 0.485858,0.786135 0.992752,3.422671 0.685873,3.567477 -0.15446,0.07289 -0.965672,-0.219001 -1.80269,-0.648639 z m 0.434815,-2.07174 c 0,-0.513021 -0.848041,-1.061816 -1.159508,-0.750353 -0.311462,0.311463 0.237335,1.159506 0.750356,1.159506 0.225034,0 0.409152,-0.184119 0.409152,-0.409153 z m -6.087407,-0.895291 c 0,-0.239148 -0.2935,-0.434815 -0.652222,-0.434815 -0.358723,0 -0.652223,0.195667 -0.652223,0.434815 0,0.239148 0.2935,0.434815 0.652223,0.434815 0.358722,0 0.652222,-0.195667 0.652222,-0.434815 z m 2.771944,-3.131647 c -0.279056,-0.451523 -1.4675,-0.45073 -1.4675,0.001 0,0.191319 0.233709,0.581562 0.519356,0.867207 0.402595,0.402596 0.591648,0.402375 0.840936,-10e-4 0.176874,-0.286185 0.225117,-0.676427 0.107208,-0.867207 z m 2.774123,-1.325205 c -0.207272,-0.629364 -2.067549,-1.015197 -2.067549,-0.428822 0,0.620939 0.510707,0.972341 1.413148,0.972341 0.472304,0 0.755838,-0.235494 0.654401,-0.543519 z m -5.645714,-0.842453 c -0.09466,-0.283989 -0.404599,-0.593839 -0.688751,-0.688556 -0.317741,-0.105913 -0.414917,0.09287 -0.252414,0.516343 0.303292,0.790369 1.202037,0.954819 0.941165,0.172213 z M 13.444702,49.68724 c 0.128998,-0.20873 1.167796,-0.38738 2.308439,-0.39701 1.511417,-0.0127 1.838036,0.0819 1.204266,0.34893 -1.163052,0.4901 -3.808261,0.52629 -3.512705,0.0481 z m 8.549309,0.22363 c 0.453364,-0.39003 3.439124,-0.62562 3.20896,-0.2532 -0.13905,0.22499 -0.95871,0.40906 -1.821474,0.40906 -0.86276,0 -1.487132,-0.0701 -1.387486,-0.15586 z M 5.9039572,38.507908 c 0.020862,-0.506534 0.1238966,-0.609567 0.2627007,-0.2627 0.1256054,0.313881 0.1101578,0.688909 -0.034329,0.833395 C 5.9878434,39.223088 5.8850758,38.966275 5.9039555,38.507908 Z M 94.640501,38.326735 c 0,-0.59787 0.09869,-0.842453 0.219316,-0.543518 0.120622,0.298935 0.120622,0.788102 0,1.087037 -0.120622,0.298935 -0.219316,0.05435 -0.219316,-0.543519 z m -0.06865,-4.348147 c 0,-1.195741 -0.15966,-2.174074 -0.354805,-2.174074 -0.19514,0 -0.804242,-1.08436 -1.353561,-2.409688 -0.549319,-1.325328 -1.357144,-2.841745 -1.795172,-3.369815 -2.84651,-3.43166 -3.336951,-4.086448 -3.59974,-4.806037 -0.161129,-0.441213 -0.683307,-0.904284 -1.160399,-1.029046 -0.477087,-0.124761 -0.867434,-0.409003 -0.867434,-0.631646 0,-0.578215 -4.209215,-4.711545 -4.798046,-4.711545 -0.27022,0 -1.434989,-0.938729 -2.588374,-2.086065 C 76.900939,11.613336 74.60253,9.964932 72.946746,9.09755 L 69.936237,7.520492 62.727234,7.401373 c -7.387651,-0.122071 -8.593158,0.107708 -8.593158,1.637928 0,0.561087 -0.44051,0.82765 -2.826297,1.710253 -3.625551,1.341243 -7.174444,-0.732662 -7.174444,-4.192604 0,-0.790083 0.3553,-0.841323 5.833766,-0.841323 3.20857,0 5.898986,0.166888 5.978705,0.370863 0.07972,0.203974 2.077628,0.48328 4.439803,0.62068 3.825256,0.222502 5.082467,-0.09933 2.66217,-0.681491 -0.478296,-0.115046 0.793537,-0.216834 2.826296,-0.226197 3.693204,-0.01701 3.694648,-0.01658 1.956667,0.588541 l -1.739259,0.605563 2.391481,-0.164572 c 1.315315,-0.09052 2.880648,-0.305415 3.478518,-0.477555 0.597871,-0.17214 1.967537,-0.393626 3.043704,-0.49219 1.824687,-0.167121 1.899736,-0.134017 1.112634,0.490796 -0.786454,0.624299 -0.67885,0.670006 1.577317,0.670006 1.621855,0 2.60007,-0.215353 2.962641,-0.652222 0.330302,-0.39799 1.283243,-0.652222 2.44472,-0.652222 1.861129,0 1.885309,0.01812 1.08815,0.815278 -0.448403,0.448403 -1.08432,0.911915 -1.413148,1.030028 -0.395055,0.1419 -0.191619,0.40555 0.599709,0.777205 0.658667,0.309351 1.3435,0.406051 1.521852,0.214889 0.178348,-0.191162 0.07969,-0.434919 -0.219247,-0.541681 -1.120452,-0.400162 -0.483192,-0.889592 1.188323,-0.91266 1.560842,-0.02154 1.803051,0.126166 2.453064,1.495971 0.540471,1.138957 0.596818,1.644282 0.22483,2.016273 -1.517056,1.517056 0.701121,0.821329 2.935948,-0.920853 C 92.827065,8.641499 92.339655,7.891705 90.306744,7.882189 89.169138,7.876889 88.403707,7.560358 87.67788,6.795152 L 86.653908,5.715627 h 1.593153 c 0.951375,0 1.484897,0.175158 1.32442,0.434815 -0.147803,0.239148 -0.110435,0.449785 0.08304,0.468083 0.193475,0.0183 0.685642,0.09756 1.093702,0.176145 0.408061,0.07858 0.970102,-0.132055 1.248984,-0.468083 0.278877,-0.336028 0.825509,-0.607964 1.214733,-0.604302 0.615755,0.0058 0.622959,0.06141 0.05546,0.428157 -0.838944,0.542168 -0.182231,0.56294 0.821104,0.02597 0.688017,-0.368215 0.771431,-0.136586 0.839419,2.330874 0.07444,2.701959 0.06053,2.736858 -1.009927,2.532228 -0.884857,-0.16915 -1.08541,-0.03491 -1.08541,0.726477 0,0.513681 0.293499,1.046591 0.652222,1.184246 0.835888,0.320761 0.828965,1.764711 -0.01622,3.385483 -0.594522,1.14007 -0.594248,1.416674 0.0026,2.674601 0.366179,0.771665 0.691538,1.666956 0.723019,1.989536 0.03152,0.32258 0.201445,-0.09832 0.377628,-0.935343 0.182465,-0.866856 0.344973,2.267768 0.377575,7.283148 0.03148,4.842749 -0.04061,8.804999 -0.160168,8.804999 -0.119574,0 -0.217407,-0.978333 -0.217407,-2.174074 z m 0,-7.522296 c 0,-1.506633 -0.172031,-2.925216 -0.38229,-3.152407 -0.210259,-0.227191 -0.627089,-1.195741 -0.926294,-2.152333 -0.299205,-0.956593 -0.747842,-1.995543 -0.996974,-2.308779 -0.596622,-0.750135 -3.80799,-2.291944 -4.230239,-2.030979 -0.181566,0.112212 -0.436484,-0.07317 -0.566485,-0.411951 -0.147946,-0.385533 -0.584622,-0.524904 -1.167252,-0.372543 -0.812456,0.212463 -0.912641,0.08419 -0.787523,-1.008367 0.09772,-0.853366 0.420144,-1.295682 1.012983,-1.389677 1.829331,-0.29004 2.211407,-0.530424 1.521143,-0.957031 -0.382045,-0.236117 -0.733211,-0.219143 -0.895396,0.04328 -0.159147,0.257504 -1.041204,-0.01012 -2.185553,-0.663119 -1.055292,-0.60218 -2.716597,-1.485881 -3.691791,-1.96378 C 80.300982,9.610707 78.984441,8.811723 78.350524,8.313086 77.470916,7.621185 76.706607,7.437951 75.123238,7.539384 l -2.074719,0.132909 1.847963,0.98717 c 1.01638,0.542944 1.847963,1.175133 1.847963,1.404864 0,0.229731 0.464617,0.534305 1.032481,0.67683 0.567863,0.142525 1.248505,0.733253 1.512529,1.312728 0.264028,0.579476 0.832161,1.053592 1.262519,1.053592 0.430354,0 1.853133,1.267016 3.161726,2.81559 1.308596,1.548574 2.917346,3.217599 3.575003,3.708943 0.657657,0.491344 1.195741,1.102492 1.195741,1.358106 0,0.255614 0.5946,1.08134 1.321337,1.834945 2.725227,2.825986 3.026811,3.219029 3.026811,3.944723 0,0.976654 0.78841,2.42584 1.319741,2.42584 0.230734,0 0.419518,-1.2327 0.419518,-2.739332 z M 90.649362,15.259457 c -0.680794,-1.643579 -1.295292,-1.643347 -1.295292,4.78e-4 0,0.768299 0.305205,1.455062 0.760926,1.712224 1.011549,0.570811 1.212907,-0.07457 0.534366,-1.712714 z m 2.183227,0.891725 c 0,-0.239148 -0.08629,-0.434815 -0.191745,-0.434815 -0.10546,0 -0.312675,0.195667 -0.460478,0.434815 -0.147802,0.239148 -0.06152,0.434815 0.191745,0.434815 0.253262,0 0.460478,-0.195667 0.460478,-0.434815 z M 92.296575,13.45611 c -0.217177,-0.65153 -0.971246,-0.464643 -1.126131,0.279098 -0.09679,0.464753 0.07747,0.590104 0.561898,0.40421 0.386202,-0.1482 0.640108,-0.455689 0.564233,-0.683308 z m -4.246949,-2.983182 c 0,-0.225034 -0.195667,-0.409153 -0.434815,-0.409153 -0.239148,0 -0.434815,0.305048 -0.434815,0.677884 0,0.372835 0.195667,0.556955 0.434815,0.409153 0.239148,-0.147802 0.434815,-0.452849 0.434815,-0.677884 z m -2.608889,0.09813 c 0,-0.19929 -0.284895,-0.362346 -0.633094,-0.362346 -0.348204,0 -0.532322,0.163056 -0.409152,0.362346 0.123165,0.19929 0.40806,0.362345 0.633094,0.362345 0.225034,0 0.409152,-0.163055 0.409152,-0.362345 z M 48.296692,8.105828 c 0.02926,-1.364403 -0.08609,-1.520572 -1.12327,-1.520572 -1.656122,0 -1.812108,0.366612 -0.760926,1.788408 1.233861,1.668887 1.844511,1.582084 1.884196,-0.267836 z m 4.256891,0.621943 c 1.452368,-1.142432 1.554632,-2.353538 0.167342,-1.981758 -0.538083,0.1442 -1.215039,0.264855 -1.504347,0.26812 -0.313776,0.0036 -0.489219,0.531921 -0.434815,1.309518 0.108251,1.547339 0.271203,1.584505 1.77182,0.40412 z M 86.365832,8.905549 C 86.90695,8.249586 86.871374,8.230743 85.984256,8.70344 c -1.011797,0.539131 -1.260933,0.925519 -0.596757,0.925519 0.209863,0 0.650113,-0.325534 0.978333,-0.72341 z m 8.206016,0.559244 c 0,-0.09029 -0.2935,-0.407751 -0.652223,-0.705463 -0.534174,-0.443325 -0.652222,-0.413611 -0.652222,0.164166 0,0.388005 0.2935,0.705463 0.652222,0.705463 0.358723,0 0.652223,-0.07388 0.652223,-0.164166 z M 82.179627,8.759331 C 82.031824,8.520182 81.677859,8.327512 81.393038,8.331174 c -0.311158,0.004 -0.257528,0.174894 0.134366,0.428157 0.835332,0.539833 0.985856,0.539833 0.652223,0 z M 49.639078,6.911368 c -0.120622,-0.298935 -0.219316,-0.05435 -0.219316,0.543518 0,0.597871 0.09869,0.842454 0.219316,0.543519 0.120622,-0.298935 0.120622,-0.788102 0,-1.087037 z m 0.410774,12.900177 c -0.404682,-1.05458 -0.313397,-8.008511 0.105125,-8.008511 0.202981,0 0.362879,1.956666 0.355335,4.348148 -0.0076,2.391481 -0.05486,4.348148 -0.105129,4.348148 -0.05027,0 -0.210172,-0.309503 -0.355331,-0.687785 z m 44.293031,-2.029808 c -0.110917,-0.298935 -0.02378,-1.130518 0.193679,-1.847963 0.383581,-1.265599 0.396464,-1.249413 0.432728,0.543519 0.03674,1.81773 -0.229904,2.373045 -0.626407,1.304444 z m 0.263293,-5.362715 c 0.02087,-0.506535 0.123896,-0.609567 0.262698,-0.262701 0.125605,0.313882 0.11016,0.68891 -0.03431,0.833395 -0.144489,0.144485 -0.247253,-0.112327 -0.228373,-0.570694 z M 40.219999,6.585257 C 39.725067,6.265408 39.908572,6.162153 40.980925,6.1571 c 0.777231,-0.0037 1.413148,0.189009 1.413148,0.428157 0,0.552301 -1.31945,0.552301 -2.174074,0 z M 35.768213,5.842914 c 0.540875,-0.104004 1.323541,-0.100056 1.739259,0.0088 0.415722,0.108831 -0.02678,0.193926 -0.983399,0.1891 -0.956592,-0.0048 -1.29673,-0.09387 -0.75586,-0.197875 z"
     style="fill:#000000;stroke-width:0.43481478" />
</svg>
