<?xml version="1.0" encoding="UTF-8" standalone="no"?>
<svg
   xmlns:dc="http://purl.org/dc/elements/1.1/"
   xmlns:cc="http://creativecommons.org/ns#"
   xmlns:rdf="http://www.w3.org/1999/02/22-rdf-syntax-ns#"
   xmlns:svg="http://www.w3.org/2000/svg"
   xmlns="http://www.w3.org/2000/svg"
   id="svgK12"
   version="1.1"
   viewBox="0 0 100 100"
   height="100"
   width="100">
  <defs
     id="defs2" />
  <metadata
     id="metadata5">
    <rdf:RDF>
      <cc:Work
         rdf:about="">
        <dc:format>image/svg+xml</dc:format>
        <dc:type
           rdf:resource="http://purl.org/dc/dcmitype/StillImage" />
        <dc:title></dc:title>
      </cc:Work>
    </rdf:RDF>
  </metadata>
  <path
     id="pathK12"
     d="m 5.2269996,88.45151 0.067788,-6.54845 3.1321978,2.99318 c 1.7227086,1.64626 4.8015096,4.56597 6.8417806,6.48826 l 3.709583,3.49506 -5.427464,0.0587 c -3.232261,0.035 -5.4274642,-0.19335 -5.4274642,-0.56446 0,-0.34274 -0.2976982,-0.62317 -0.661551,-0.62317 -0.3638529,0 -0.4878171,0.28111 -0.2754751,0.62468 C 7.3987367,94.71889 7.0294878,95 6.3658415,95 5.2458848,95 5.1640818,94.52962 5.227,88.45155 Z M 15.61963,93.27617 c 0,-0.26093 -0.632493,-0.86297 -1.40554,-1.33786 -1.400548,-0.86037 -1.401313,-0.85868 -0.215523,0.47442 1.27316,1.43133 1.621063,1.61664 1.621063,0.86344 z m -8.7455777,-2.649 c 0,-0.34358 -0.2976982,-0.62469 -0.6615511,-0.62469 -0.3638529,0 -0.4878171,0.28111 -0.2754751,0.62469 0.212342,0.34358 0.5100396,0.62468 0.6615511,0.62468 0.1515115,0 0.2754751,-0.2811 0.2754751,-0.62468 z m 2.8110784,0 c 0.212342,-0.34358 0.088378,-0.62469 -0.2754751,-0.62469 -0.3638529,0 -0.6615511,0.28111 -0.6615511,0.62469 0,0.34358 0.1239636,0.62468 0.2754751,0.62468 0.1515115,0 0.4492091,-0.2811 0.6615511,-0.62468 z M 8.4357625,89.3778 c 0.212342,-0.34358 0.088378,-0.62468 -0.2754751,-0.62468 -0.3638528,0 -0.661551,0.2811 -0.661551,0.62468 0,0.34358 0.1239635,0.62468 0.275475,0.62468 0.1515115,0 0.4492091,-0.2811 0.6615511,-0.62468 z M 9.3727886,87.19141 C 8.9450743,86.67604 8.3140184,86.25438 7.9704422,86.25438 c -0.3484657,0 -0.280823,0.41433 0.1529782,0.93703 0.4277144,0.51536 1.0587702,0.93702 1.4023465,0.93702 0.3484656,0 0.280823,-0.41433 -0.1529783,-0.93702 z M 20.830364,94.57846 C 21.062182,94.34665 20.585822,93.71416 19.771783,93.17293 14.44236,89.62958 5,79.69914 5,77.63759 5,77.12008 5.8023524,77.793 6.7830058,79.13296 9.2426807,82.49384 18.778701,91.53985 21.160208,92.77138 c 2.266816,1.17221 2.55224,2.22858 0.602145,2.22858 -0.744411,0 -1.163808,-0.18968 -0.931989,-0.4215 z m 26.140372,-0.98227 c 0.173387,-1.24539 -0.121726,-1.43348 -2.61564,-1.66707 -4.849909,-0.45425 -15.177412,-0.38578 -18.272009,0.12113 -4.092606,0.6704 -3.787678,-0.3793 0.624684,-2.15046 2.938714,-1.17963 4.604278,-1.41941 9.158599,-1.31851 6.846438,0.15168 6.396216,-0.72146 -0.881535,-1.70959 -4.806863,-0.65265 -10.257356,-0.48019 -13.348443,0.42238 -2.456865,0.71738 -0.568125,-1.24099 2.273306,-2.35712 3.139581,-1.23324 8.255807,-1.63524 11.54365,-0.90702 1.336243,0.29596 2.030223,0.21389 2.030223,-0.24012 0,-2.05106 -10.631092,-3.15642 -16.710298,-1.73743 -3.040791,0.70977 -3.904275,0.7395 -3.904275,0.13441 0,-1.04627 1.029649,-1.77266 4.372787,-3.08484 2.870717,-1.12677 6.478274,-1.33001 10.931972,-0.61586 1.896678,0.30413 2.33074,0.22471 1.801501,-0.32963 -0.383481,-0.40166 -1.648466,-0.85587 -2.811078,-1.00935 -1.162612,-0.15348 -2.868868,-0.40537 -3.791683,-0.55974 -1.988744,-0.3327 -9.46686,1.04252 -11.911678,2.19053 -0.946287,0.44434 -1.906739,0.62168 -2.134338,0.39409 -0.49862,-0.49862 -0.733981,-0.30669 3.782612,-3.08457 3.498527,-2.15172 3.59773,-2.2804 2.056373,-2.66726 -1.154031,-0.28964 -2.188557,-10e-4 -3.599497,1.00343 -2.094452,1.49138 -8.0672326,2.49708 -8.0672326,1.35836 0,-0.35004 0.697614,-0.81153 1.5502535,-1.02553 1.8189281,-0.45653 6.0777061,-4.02527 5.6429791,-4.72867 -0.164408,-0.26602 -1.004493,-0.48367 -1.866856,-0.48367 -1.811962,0 -5.9510607,-2.9291 -5.9510607,-4.21136 0,-0.73436 0.2648154,-0.73005 1.7178812,0.0279 1.9038245,0.99313 4.8981675,1.1979 5.4098665,0.36995 0.181475,-0.29363 -0.393976,-1.20724 -1.27878,-2.03022 -1.577992,-1.46775 -2.348386,-2.91421 -3.3709865,-6.329225 -0.7475982,-2.496634 0.4141024,-2.736598 1.6517485,-0.341191 1.026696,1.987126 4.445235,5.456166 5.396703,5.476436 0.667711,0.0142 0.580511,-1.09644 -0.120078,-1.52943 -1.248687,-0.771729 -1.466546,-5.927089 -0.371628,-8.794091 0.584953,-1.531679 1.296665,-2.78487 1.581581,-2.78487 0.284917,0 0.472498,1.783319 0.416847,3.96293 -0.102179,4.001935 0.849231,6.913139 2.461469,7.531811 0.623092,0.2391 0.815544,-0.498936 0.785522,-3.012375 -0.04292,-3.594096 0.858266,-5.98363 2.25669,-5.98363 0.651908,0 0.785128,0.558554 0.521168,2.18515 -0.405851,2.500961 0.799189,7.442155 2.07272,8.499095 0.708942,0.58837 0.860778,0.18085 0.868374,-2.330691 0.0092,-3.039893 0.996983,-5.886176 2.177186,-6.27352 0.388335,-0.127453 0.624684,2.146514 0.624684,6.010264 0,4.139407 0.260806,6.476037 0.780855,6.995987 0.624647,0.62451 0.781555,0.41204 0.784341,-1.06213 0.005,-2.68811 1.104279,-6.214916 2.457039,-7.883496 1.736984,-2.142497 2.064487,-1.163871 0.990455,2.959606 -1.185244,4.55045 -1.192172,10.08012 -0.01524,12.13899 0.843892,1.47623 0.893967,1.3406 0.914894,-2.47785 0.02411,-4.39493 1.568232,-9.39114 2.902463,-9.39114 0.862258,0 0.719305,2.189 -0.371537,5.68919 -0.605987,1.94443 -0.08005,12.34201 0.691763,13.67601 0.355832,0.61502 0.501946,-0.029 0.425178,-1.87405 -0.06432,-1.54609 0.112475,-4.06686 0.392889,-5.6017 0.532937,-2.91704 3.048009,-7.51666 4.110109,-7.51666 0.764401,0 0.822584,-0.39533 -0.618244,4.2005 -1.143403,3.64712 -1.287967,8.66034 -0.374248,12.97831 0.145408,0.68715 0.285887,1.88186 0.312174,2.65491 0.0263,0.77304 0.291371,1.40553 0.58907,1.40553 0.297706,0 0.403178,-1.93015 0.234382,-4.28922 -0.327272,-4.57413 0.94258,-9.90246 2.709436,-11.36882 1.404052,-1.16525 1.77692,-0.22755 0.815606,2.05114 -0.887007,2.10257 -1.087169,12.01663 -0.305489,15.1311 0.254771,1.01508 1.302404,2.04564 2.916744,2.86922 2.423081,1.23616 3.647799,2.74622 2.863439,3.53057 -0.20564,0.20564 -0.966667,-0.29842 -1.69117,-1.12014 -0.941648,-1.068 -1.218889,-1.1823 -0.972252,-0.40083 0.189767,0.60125 0.09335,1.09319 -0.214248,1.09319 -0.3076,0 -0.690644,-0.49194 -0.851207,-1.09319 -0.247231,-0.92582 -0.361042,-0.878 -0.743342,0.31234 -0.585767,1.82385 -1.692032,1.82521 -1.438167,0.002 z m -2.927982,-2.96902 c -0.212342,-0.34358 -1.142528,-0.59143 -2.067092,-0.55078 l -1.681012,0.0739 1.874052,0.47687 c 1.030729,0.26227 1.960921,0.51012 2.067092,0.55078 0.106172,0.0407 0.0193,-0.2072 -0.19304,-0.55078 z m 3.435763,0.34921 c 0,-0.15151 -0.281108,-0.44921 -0.624684,-0.66155 -0.343577,-0.21235 -0.624684,-0.0884 -0.624684,0.27547 0,0.36385 0.281107,0.66155 0.624684,0.66155 0.343576,0 0.624684,-0.12396 0.624684,-0.27547 z M 36.806832,89.60295 c 0.502471,-0.43464 -5.89951,-0.0952 -7.444154,0.39469 -0.907691,0.28789 0.269539,0.3561 2.811079,0.16288 2.405033,-0.18283 4.489917,-0.43374 4.633075,-0.55757 z m 6.550019,-1.68106 C 41.4431,86.27575 41.294057,85.50412 41.164535,76.57178 c -0.0566,-3.90407 -0.203072,-4.65579 -0.669424,-3.43577 -0.64042,1.67541 -0.403315,9.68799 0.307726,10.39902 0.235862,0.23586 0.428839,0.70667 0.428839,1.04623 0,1.53914 -2.618576,-2.02728 -5.657414,-7.70521 -1.828275,-3.41606 -3.473137,-6.06202 -3.655239,-5.87992 -0.745829,0.74583 5.507065,11.2763 8.922806,15.02686 2.018823,2.21672 3.808187,3.89281 3.976352,3.72464 0.168165,-0.16817 -0.489428,-0.98975 -1.46133,-1.82574 z m 2.246333,-2.29219 -0.467026,-2.81108 -0.07819,2.55079 c -0.04298,1.40294 0.109214,2.7382 0.338267,2.96725 0.670173,0.67018 0.701001,0.26688 0.206945,-2.70696 z m -9.056639,-0.32659 c -3.672011,-0.94386 -6.63109,-1.10727 -8.225971,-0.45427 -0.71442,0.29251 0.733092,0.60148 3.853183,0.82247 7.46976,0.52907 7.76636,0.50409 4.372788,-0.3682 z m -0.937026,-4.54752 c 0,-1.57234 -11.155283,-2.23903 -13.518488,-0.80793 -0.909853,0.55098 -0.07854,0.66134 3.835885,0.50923 2.74861,-0.10681 5.840796,-0.004 6.871525,0.229 2.730175,0.61653 2.811078,0.61854 2.811078,0.0697 z m 9.783977,-4.02764 c -0.173293,-0.42947 -0.315078,-0.0781 -0.315078,0.78085 0,0.85894 0.141785,1.21033 0.315078,0.78086 0.173294,-0.42947 0.173294,-1.13224 0,-1.56171 z M 29.983302,75.47858 c 0.0056,-0.62725 -8.841697,-0.58409 -9.837232,0.048 -0.430855,0.27355 1.605351,0.48008 4.5249,0.45894 2.919548,-0.0211 5.310096,-0.24925 5.312332,-0.50693 z m 2.333614,0.40344 c -0.207577,-0.20758 -0.746367,-0.22977 -1.197314,-0.0493 -0.498329,0.19941 -0.350304,0.34744 0.377416,0.37741 0.658517,0.0271 1.027474,-0.12051 0.819898,-0.3281 z m 4.331003,-1.65281 c -0.173294,-0.42947 -0.315078,-0.0781 -0.315078,0.78086 0,0.85894 0.141784,1.21032 0.315078,0.78085 0.173294,-0.42947 0.173294,-1.13224 0,-1.56171 z M 14.436032,73.93482 c 1.001137,-0.59139 1.740251,-1.31524 1.642477,-1.60856 -0.297827,-0.89348 -0.698011,-0.73728 -2.580321,1.00719 -2.073693,1.92184 -1.70152,2.16048 0.937844,0.60137 z m 17.425383,-0.067 c 0,-0.28466 -0.877713,-1.84268 -1.95047,-3.46225 -2.193304,-3.31128 -5.227769,-5.86061 -7.847688,-6.59303 -4.196068,-1.17304 -7.382898,3.62983 -4.114405,6.20083 1.839943,1.4473 3.186637,1.02005 3.665307,-1.16285 0.198881,-0.90694 0.428796,-1.92434 0.510929,-2.2609 0.08213,-0.33656 0.650746,0.15333 1.263586,1.08865 1.396157,2.1308 0.857954,4.80034 -1.08214,5.36753 -0.908734,0.26566 0.0037,0.52526 2.683356,0.76328 6.692984,0.59454 6.871525,0.59607 6.871525,0.0587 z m -9.370262,-2.60583 c 0.367752,-0.68715 0.561766,-1.24937 0.431139,-1.24937 -0.130628,0 -0.746298,0.56222 -1.368165,1.24937 -0.621863,0.68715 -0.815875,1.24937 -0.431138,1.24937 0.384737,0 1.000413,-0.56222 1.368164,-1.24937 z m -4.372787,0.40916 c 0,-0.11854 -0.603119,-0.75103 -1.340265,-1.40554 -1.333081,-1.18363 -1.336311,-1.18248 -0.602706,0.21553 0.608927,1.1604 1.942971,1.97747 1.942971,1.19001 z M 32.544682,67.3226 c -0.494569,-0.49457 -0.683267,-0.33248 -0.683267,0.58692 0,1.65151 0.873595,2.52812 1.15178,1.15576 0.118115,-0.58268 -0.09272,-1.36689 -0.468513,-1.74268 z M 14.262704,67.2987 c 0.189938,-0.98627 0.03875,-1.04132 -1.134837,-0.41324 -0.744683,0.39854 -1.823941,0.56173 -2.398353,0.36265 -0.7710854,-0.26726 -0.720607,-0.11165 0.192902,0.59463 1.545561,1.19496 3.052658,0.9495 3.340288,-0.54404 z M 28.84063,66.70052 c -0.371269,-0.44735 -0.533961,-1.36095 -0.361536,-2.03023 0.172419,-0.66927 0.02949,-2.34129 -0.317602,-3.7156 -0.612778,-2.426216 -0.622279,-2.40148 -0.327341,0.85241 0.271638,2.9969 0.188442,3.3069 -0.787045,2.93257 -0.807105,-0.30972 -0.700746,-0.003 0.408936,1.17781 1.543045,1.6425 2.588623,2.23381 1.384588,0.78304 z m 4.059184,-3.7156 c -0.173293,-0.42947 -0.315078,-0.0781 -0.315078,0.78085 0,0.85894 0.141785,1.21033 0.315078,0.78086 0.173294,-0.42947 0.173294,-1.13224 0,-1.56171 z m -16.770111,0.52923 c -3.74388,-2.39542 -3.759894,-2.40116 -3.061686,-1.09654 0.708512,1.32386 1.9158,1.98854 2.749344,1.51365 0.280541,-0.15982 0.421095,-0.34752 0.312342,-0.41711 z m 9.484871,0.58594 c 0,-0.1597 -0.632493,-0.59687 -1.405539,-0.97148 -1.349705,-0.65407 -1.35737,-0.64254 -0.192947,0.29036 1.274518,1.0211 1.598486,1.15914 1.598486,0.68112 z m -7.440921,-3.703482 c -0.397307,-0.478726 -0.986894,-2.095096 -1.310194,-3.591934 l -0.587818,-2.721524 0.291829,3.019054 c 0.320182,3.312384 0.660811,4.164816 1.664252,4.164816 0.441502,0 0.422026,-0.29193 -0.05807,-0.870412 z m 5.237023,-0.222788 c -0.254934,-0.601259 -0.674347,-2.077075 -0.932023,-3.279592 -0.274198,-1.279604 -0.498298,-1.635843 -0.540345,-0.85894 -0.11671,2.15657 0.660616,5.231732 1.32245,5.231732 0.344344,0 0.410105,-0.47955 0.149918,-1.0932 z m 49.458743,34.39677 c -0.23615,-0.23616 0.810877,-0.90016 2.326736,-1.47557 2.887077,-1.09591 11.049599,-6.92873 13.207983,-9.43823 2.371213,-2.75695 3.869736,-5.21219 4.323788,-7.08426 0.434437,-1.79121 0.493169,-1.8202 1.34046,-0.66146 0.487366,0.66651 0.881816,1.93116 0.876556,2.81033 -0.0074,1.22956 -0.14369,1.3864 -0.59072,0.67955 -0.319632,-0.50542 -0.687471,-0.78652 -0.817418,-0.62469 -0.12994,0.16184 -0.915068,1.27813 -1.744717,2.48065 l -1.508462,2.18639 1.784179,-1.39702 c 0.981297,-0.76837 1.990162,-1.26973 2.24191,-1.11414 0.251754,0.15559 0.474641,3.3845 0.495299,7.17535 0.03017,5.53337 -0.136162,6.89247 -0.843492,6.89247 -0.484586,0 -0.885371,-0.35139 -0.890631,-0.78086 -0.0062,-0.5082 -0.16982,-0.55325 -0.468513,-0.12902 -0.593431,0.84284 -9.715961,1.11271 -9.196405,0.27206 0.207876,-0.33635 0.103685,-0.61155 -0.23154,-0.61155 -0.335224,0 -0.736746,0.35138 -0.892273,0.78085 -0.223612,0.61747 -0.574972,0.60782 -1.679139,-0.0461 -0.767993,-0.45484 -1.209794,-0.52511 -0.981778,-0.15617 0.23202,0.37541 -0.04373,0.6708 -0.626146,0.6708 -0.668443,0 -0.912108,-0.33519 -0.681156,-0.93703 0.197763,-0.51536 0.107365,-0.93702 -0.200892,-0.93702 -0.30825,0 -0.982116,0.42166 -1.49748,0.93702 -0.975407,0.97541 -3.003556,1.25025 -3.746149,0.50766 z m 15.706707,-1.69402 c -0.44302,-0.48071 -0.903912,-0.78053 -1.024214,-0.66625 -0.370525,0.35199 0.56855,1.54027 1.217247,1.54027 0.336849,0 0.24998,-0.39331 -0.193033,-0.87402 z m 4.504328,-0.37535 c 0.858941,-0.67187 1.280602,-1.22159 0.937026,-1.22159 -0.343576,0 -1.327454,0.54972 -2.186394,1.22159 -0.858941,0.67187 -1.280603,1.22159 -0.937026,1.22159 0.343576,0 1.327453,-0.54972 2.186394,-1.22159 z M 82.470738,91.09568 c 0.963588,-0.77304 2.396607,-1.89748 3.184484,-2.49873 0.787876,-0.60126 1.204946,-1.0932 0.926831,-1.0932 -0.426722,0 -4.256329,2.73593 -6.276389,4.48394 -1.377928,1.19236 0.564452,0.39211 2.165074,-0.89201 z m 10.922058,-2.96725 c 0.212343,-0.34357 0.08838,-0.62468 -0.275473,-0.62468 -0.363854,0 -0.661553,0.28111 -0.661553,0.62468 0,0.34358 0.123962,0.62469 0.275473,0.62469 0.151511,0 0.44921,-0.28111 0.661553,-0.62469 z m -4.060447,-3.12342 c 0.367752,-0.68715 0.561766,-1.24937 0.431139,-1.24937 -0.130628,0 -0.746298,0.56222 -1.368165,1.24937 -0.621866,0.68715 -0.815875,1.24937 -0.431138,1.24937 0.384737,0 1.000413,-0.56222 1.368164,-1.24937 z m 2.186395,0.62469 c 0.212342,-0.34358 0.104965,-0.62469 -0.238611,-0.62469 -0.343576,0 -0.798415,0.28111 -1.010757,0.62469 -0.212343,0.34357 -0.104966,0.62468 0.23861,0.62468 0.343576,0 0.798415,-0.28111 1.010758,-0.62468 z m 2.811078,-2.77421 c 0,-0.15151 -0.281108,-0.44921 -0.624684,-0.66156 -0.343576,-0.21234 -0.624684,-0.0884 -0.624684,0.27548 0,0.36385 0.281108,0.66155 0.624684,0.66155 0.343576,0 0.624684,-0.12396 0.624684,-0.27547 z m -31.858887,8.65107 c 0,-0.2035 0.562216,-1.08473 1.249368,-1.9583 1.204503,-1.53128 1.763133,-5.79262 0.759372,-5.79262 -0.269501,0 -0.973782,0.81898 -1.565071,1.81996 -1.232445,2.08636 -6.455329,4.91194 -7.376557,3.99071 -0.373917,-0.37392 0.564477,-1.56859 2.541584,-3.23571 1.723897,-1.45362 3.420895,-3.17833 3.771099,-3.8327 0.567163,-1.05975 0.307113,-1.01874 -2.379959,0.37537 -3.429641,1.77936 -9.509935,2.71989 -8.32083,1.28711 0.383706,-0.46233 2.501741,-1.75632 4.706745,-2.87552 2.20501,-1.11921 4.78841,-2.84834 5.740891,-3.84251 1.995953,-2.08333 1.998495,-2.08161 -1.313036,-0.88859 -2.80074,1.009 -7.671071,1.22083 -8.981777,0.39063 -1.418414,-0.8984 -0.161981,-1.93432 2.346082,-1.93432 2.530902,0 7.702717,-1.36741 10.332956,-2.732 1.555426,-0.80696 1.453321,-0.85784 -2.331021,-1.16161 -4.122521,-0.33091 -6.962673,-1.38409 -6.360427,-2.35855 0.19284,-0.31202 3.22262,-0.58738 6.732851,-0.6119 7.657789,-0.0535 9.698757,-0.30456 12.71232,-1.5637 3.07562,-1.28508 2.446219,-1.65734 -1.683424,-0.99568 -5.367573,0.86001 -11.830534,-0.6128 -11.830534,-2.696 0,-0.64196 0.604388,-0.71425 2.654907,-0.31757 3.740295,0.72357 11.005052,0.68606 13.591001,-0.0702 1.200249,-0.351 3.099364,-0.67779 4.220253,-0.7262 1.120883,-0.0484 2.385868,-0.50808 2.811078,-1.02151 0.67489,-0.814917 0.455676,-0.86306 -1.725639,-0.378986 -1.374305,0.304986 -4.934942,0.554456 -7.912524,0.554386 -4.427542,-1.1e-4 -5.650899,-0.21471 -6.715354,-1.178034 -0.715863,-0.647846 -1.301179,-1.345165 -1.300698,-1.549597 4.74e-4,-0.204432 3.584599,-0.398805 7.964715,-0.43194 5.352262,-0.04049 8.651806,-0.35093 10.061706,-0.946664 2.014331,-0.851132 1.865125,-0.886036 -3.748105,-0.876781 -6.027195,0.0099 -9.514813,-0.87996 -10.173242,-2.595793 -0.279821,-0.729198 0.01318,-0.853231 1.360655,-0.575949 4.669002,0.960793 18.271398,0.227822 18.271398,-0.984563 0,-0.331859 0.597416,-0.413767 1.327597,-0.182017 0.822884,0.261172 1.180384,0.183171 0.940374,-0.205176 -0.212973,-0.344597 0.144515,-1.283205 0.794411,-2.085797 l 1.18164,-1.459258 -0.05666,2.57749 c -0.03923,1.783635 -0.296269,2.485557 -0.83454,2.279001 -0.501428,-0.192415 -0.92269,0.552542 -1.185413,2.09629 -0.224156,1.317128 -0.661397,3.378656 -0.97164,4.581172 -0.738358,2.861876 -0.726932,9.147346 0.02136,11.756546 0.506506,1.76608 0.443457,2.037 -0.434693,1.86788 -1.77211,-0.34127 -3.529071,-4.19062 -3.56266,-7.80545 -0.01699,-1.82546 -0.116922,-3.31929 -0.222138,-3.31963 -0.105216,-3.3e-4 -0.802594,1.33465 -1.549735,2.96664 -1.099681,2.40206 -1.358045,4.12739 -1.356377,9.05792 0.0019,5.18633 -0.147456,6.09067 -1.004904,6.09067 -0.553826,0 -1.333188,-0.71599 -1.731912,-1.5911 -0.882291,-1.93641 -0.95263,-8.34837 -0.115735,-10.54957 0.448692,-1.18015 0.407538,-1.60056 -0.156171,-1.59545 -0.420968,0.004 -1.585061,1.90129 -2.586885,4.21661 -1.888214,4.36391 -2.274956,8.37999 -1.298506,13.4841 0.406707,2.12592 0.32681,2.3773 -0.693143,2.18088 -0.703432,-0.13547 -1.556838,-1.31569 -2.1892,-3.02757 -0.569999,-1.54306 -1.279859,-2.665 -1.577458,-2.49322 -0.297606,0.17179 -0.443163,0.73401 -0.323474,1.24937 0.843086,3.63017 0.692131,6.06397 -0.494025,7.96472 -1.47318,2.36072 -2.932161,2.77411 -2.204679,0.62469 0.261643,-0.77305 0.505257,-2.66214 0.54137,-4.19799 l 0.06566,-2.79245 -2.498737,-0.0186 -2.498735,-0.0186 -0.01506,2.60455 c -0.0082,1.43251 0.20256,2.47007 0.468512,2.3057 0.265959,-0.16437 0.48786,-0.7742 0.493126,-1.35518 0.01243,-1.37211 1.054704,-3.01136 1.580432,-2.48563 0.745335,0.74533 -1.030123,4.82536 -2.656493,6.10466 -1.525878,1.20021 -3.306316,1.67902 -3.306316,0.88913 z M 61.533909,85.6297 c 0.621867,-0.68716 0.990112,-1.24937 0.818323,-1.24937 -0.171788,0 -0.821141,0.56221 -1.443007,1.24937 -0.621861,0.68715 -0.990106,1.24936 -0.818318,1.24936 0.171788,0 0.821141,-0.56221 1.443002,-1.24936 z m 0.240416,-5.71049 c 0.819379,-0.63857 1.329996,-1.16104 1.134707,-1.16104 -0.477552,0 -6.684938,3.87199 -6.684938,4.16987 0,0.38261 3.937359,-1.75186 5.550231,-3.00883 z m 2.883004,2.58707 c -0.212342,-0.34358 -0.720866,-0.62038 -1.130066,-0.61512 -0.44703,0.006 -0.369981,0.25126 0.19304,0.61512 1.200093,0.77556 1.416353,0.77556 0.937026,0 z m 6.956918,-1.74244 c 0.446543,-0.58775 0.782555,-1.77141 0.746691,-2.63035 -0.05691,-1.36389 -0.09841,-1.39194 -0.327372,-0.22141 -0.707404,3.61651 -5.428585,4.47664 -6.95956,1.26793 -1.399117,-2.93233 0.954068,-6.73783 5.830163,-9.42836 1.620037,-0.89391 1.662372,-0.97646 0.312342,-0.60902 -1.892118,0.51497 -5.383476,3.09505 -5.856581,4.32795 -0.188629,0.49155 -0.704987,0.76084 -1.147463,0.59842 -0.442477,-0.16243 -2.491153,0.24885 -4.55261,0.91396 -2.061458,0.66511 -3.150957,1.22441 -2.421107,1.24288 0.729856,0.0185 2.522118,-0.38807 3.982817,-0.90343 1.460699,-0.51537 2.75565,-0.93703 2.877669,-0.93703 0.12202,0 0.05547,1.21376 -0.147844,2.69723 -0.338029,2.46616 -0.201466,2.83879 1.594013,4.34959 1.658366,1.39542 2.219758,1.55501 3.610329,1.02632 0.905642,-0.34433 2.01197,-1.10694 2.458513,-1.69468 z m -1.653838,-1.06053 c 0.459217,-0.55332 0.603369,-1.59653 0.356526,-2.58004 -0.432931,-1.72493 -0.07542,-1.79272 2.929799,-0.55553 0.840806,0.34614 1.093197,0.14137 1.093197,-0.88692 0,-0.73533 0.719855,-2.75753 1.599673,-4.49377 l 1.599666,-3.1568 -1.443495,0.43614 c -5.716247,1.72708 -10.963086,6.55015 -10.121306,9.30385 0.867054,2.83638 2.556344,3.65563 3.98594,1.93307 z m 5.44602,-2.34339 c -0.149418,-0.77705 -0.277347,-0.2884 -0.284281,1.08591 -0.0069,1.3743 0.115323,2.01008 0.271675,1.41282 0.156353,-0.59725 0.162025,-1.72168 0.01262,-2.49873 z m 7.807096,-2.81798 c -0.101374,-1.6322 0.22696,-4.51335 0.729644,-6.40255 0.988993,-3.71692 0.909152,-4.63368 -0.21982,-2.52417 -1.021921,1.90948 -1.90082,7.92126 -1.471719,10.06676 0.570406,2.85203 1.166004,2.14613 0.961895,-1.14004 z m -6.42833,-1.71827 c 0.01887,-0.34357 -0.238155,-0.20302 -0.571211,0.31234 -0.333057,0.51537 -0.590102,1.35869 -0.571212,1.87406 0.03623,0.9894 1.077374,-1.00311 1.142423,-2.1864 z M 63.720303,70.01259 c 0,-0.34357 -0.9136,-0.62038 -2.030223,-0.61512 -1.540609,0.007 -1.80425,0.15561 -1.093197,0.61512 1.227816,0.79348 3.12342,0.79348 3.12342,0 z m 4.867525,-0.96286 c -0.479133,-0.47913 -2.968067,0.49859 -2.636191,1.03557 0.193145,0.31252 0.896339,0.25934 1.608179,-0.12163 0.69573,-0.37234 1.158333,-0.78361 1.028012,-0.91394 z m 10.074736,-0.2865 c 0.701302,-1.47255 0.688296,-1.49248 -0.227722,-0.34912 -0.534324,0.66692 -0.97149,1.48682 -0.97149,1.822 0,0.79368 0.288541,0.43929 1.199212,-1.47288 z m 11.463821,-4.84168 c 0.36243,-5.538983 -0.401628,-6.529289 -1.103017,-1.42962 -0.360705,2.62267 0.06141,7.42097 0.596823,6.78448 0.09292,-0.11046 0.320707,-2.52015 0.506194,-5.35486 z m -5.665653,-0.68058 c 3.134346,-2.33128 6.282685,-6.286993 7.040077,-8.845478 0.301573,-1.018719 -0.207189,-0.56853 -1.463272,1.294799 -3.068324,4.551692 -5.824486,7.031779 -10.608073,9.545479 -2.455665,1.29042 -4.464849,2.45586 -4.464849,2.58987 0,0.67005 6.928803,-2.67514 9.496117,-4.58467 z m -17.61701,1.14947 c 0,-0.34358 -0.632492,-0.60493 -1.405538,-0.58078 -1.341134,0.0419 -1.348287,0.0685 -0.156171,0.58078 0.687153,0.29528 1.319644,0.55663 1.405538,0.58078 0.08589,0.0242 0.156171,-0.23721 0.156171,-0.58078 z m 5.162233,0.18495 c -0.768324,-0.14828 -2.173863,-0.15212 -3.12342,-0.009 -0.949557,0.14359 -0.320931,0.2649 1.39695,0.26959 1.717881,0.005 2.494794,-0.11279 1.72647,-0.26106 z m 8.929934,-1.10211 c 1.598654,-1.20916 0.06846,-1.23477 -2.535511,-0.0424 -1.868511,0.85558 -1.86933,0.85826 -0.275567,0.90885 0.879168,0.0279 2.144153,-0.36199 2.811078,-0.86642 z m 3.348138,-4.509241 c 1.518133,-0.279455 2.885916,-0.886782 3.039532,-1.349616 0.212742,-0.641006 0.0019,-0.694087 -0.886183,-0.222776 -1.196358,0.635135 -8.346317,1.838507 -13.346813,2.246331 -1.546093,0.126094 -0.281108,0.140365 2.811079,0.03171 3.092186,-0.108653 6.864259,-0.426196 8.382385,-0.705651 z m 0.831705,-4.384723 c -0.773047,-0.148896 -2.038032,-0.148896 -2.811079,0 -0.773046,0.148895 -0.140553,0.270718 1.40554,0.270718 1.546093,0 2.178585,-0.121823 1.405539,-0.270718 z m 4.384676,-0.593578 c -0.42293,-0.171115 -1.266253,-0.181531 -1.874052,-0.02314 -0.607799,0.158385 -0.261761,0.298388 0.768967,0.311119 1.030729,0.01273 1.528015,-0.116857 1.105085,-0.287972 z M 47.478517,65.8544 C 46.276,63.94399 43.826689,61.03606 42.035594,59.392325 38.706209,56.336856 31.536685,51.272071 30.540864,51.272071 c -1.401641,0 -0.200611,-1.338953 3.975458,-4.431988 5.52137,-4.089439 10.167021,-8.634463 12.869404,-12.590653 1.114774,-1.631987 2.260282,-2.967249 2.545569,-2.967249 0.285293,0 1.706406,1.539475 3.158034,3.421057 3.512299,4.55259 10.469393,11.057913 14.103442,13.187607 l 2.933348,1.719057 -1.712809,1.247693 C 62.8375,54.919291 50.601937,67.31952 50.601937,68.90868 c 0,1.22362 -1.120158,0.12825 -3.12342,-3.05428 z m 9.039191,-5.883421 c 1.728182,-1.957584 4.918744,-5.023391 7.090133,-6.812905 l 3.947977,-3.253662 -3.635635,-2.661041 C 60.383984,44.655116 56.143653,40.434163 51.964798,35.342627 l -2.050825,-2.498736 -1.356396,1.874052 c -2.601134,3.593849 -8.245186,9.158056 -12.455463,12.279263 -2.332383,1.729068 -4.240699,3.239873 -4.240699,3.357344 0,0.117472 1.943467,1.517507 4.318809,3.11119 4.299613,2.884726 10.666375,9.01551 12.854293,12.37786 l 1.148832,1.7655 1.596105,-2.03944 c 0.877856,-1.12169 3.010072,-3.6411 4.738254,-5.598681 z m -11.133951,0.120395 c -2.69821,-2.696175 -6.409377,-5.853775 -8.247041,-7.01689 -1.837671,-1.163115 -3.354723,-2.304451 -3.371233,-2.536301 -0.01649,-0.23185 2.316941,-2.480713 5.18544,-4.997473 2.868506,-2.516759 6.312077,-5.893267 7.65238,-7.503351 1.34031,-1.610084 2.726696,-2.945346 3.080861,-2.96725 0.354165,-0.0219 2.419027,1.998208 4.588586,4.489136 3.470619,3.984718 9.500826,9.242026 11.548603,10.068412 0.390514,0.157593 -0.273849,1.061427 -1.476366,2.00852 -1.202517,0.947094 -4.763784,4.344804 -7.913929,7.550467 -3.150144,3.205666 -5.820669,5.823616 -5.934499,5.817666 -0.11383,-0.006 -2.414591,-2.21676 -5.112802,-4.912936 z M 50.05477,62.3498 c -0.61695,-0.61235 -0.688702,-0.5406 -0.349698,0.3497 0.234594,0.61607 0.583892,0.96277 0.77622,0.77044 0.192334,-0.19233 4e-4,-0.69639 -0.426522,-1.12014 z m 2.500904,-0.92661 c 0.777026,-0.990786 0.754931,-1.012881 -0.235856,-0.23585 -0.601258,0.47153 -1.093197,0.96347 -1.093197,1.09319 0,0.51414 0.512985,0.18322 1.329053,-0.85734 z m -1.329053,-0.78086 c 0,-0.343574 -0.123962,-0.624681 -0.275473,-0.624681 -0.151511,0 -0.44921,0.281107 -0.661553,0.624681 -0.212342,0.34358 -0.08837,0.62469 0.275473,0.62469 0.363854,0 0.661553,-0.28111 0.661553,-0.62469 z m -4.081892,-3.654484 c -0.351984,-0.37053 -1.540264,0.568549 -1.540264,1.217247 0,0.336845 0.393313,0.249978 0.87402,-0.193038 0.480713,-0.443017 0.780524,-0.903911 0.666244,-1.024209 z m 4.081892,-3.841722 c 0,-0.343577 -0.123962,-0.624684 -0.275473,-0.624684 -0.151511,0 -0.44921,0.281107 -0.661553,0.624684 -0.212342,0.343576 -0.08837,0.624684 0.275473,0.624684 0.363854,0 0.661553,-0.281108 0.661553,-0.624684 z m 9.370262,0 c 0,-0.343577 -0.2977,-0.624684 -0.661553,-0.624684 -0.363848,0 -0.487816,0.281107 -0.275473,0.624684 0.212342,0.343576 0.510042,0.624684 0.661552,0.624684 0.151511,0 0.275474,-0.281108 0.275474,-0.624684 z m -10.61963,-1.249369 c 0,-0.343576 -0.123962,-0.624684 -0.275473,-0.624684 -0.151511,0 -0.44921,0.281108 -0.661553,0.624684 -0.212343,0.343577 -0.08837,0.624685 0.275473,0.624685 0.363854,0 0.661553,-0.281108 0.661553,-0.624685 z M 36.840796,50.622987 c -1.481294,-0.936802 -2.281602,-0.646268 -0.964537,0.350155 0.662072,0.500887 1.356702,0.75777 1.54362,0.570851 0.186918,-0.18692 -0.07367,-0.601372 -0.579083,-0.921006 z m 25.630139,0.649084 c 0,-0.343576 -0.281108,-0.624684 -0.624684,-0.624684 -0.343576,0 -0.624684,0.281108 -0.624684,0.624684 0,0.343577 0.281108,0.624684 0.624684,0.624684 0.343576,0 0.624684,-0.281107 0.624684,-0.624684 z M 48.415543,50.647387 c 0.212343,-0.343576 0.08838,-0.624684 -0.275473,-0.624684 -0.363854,0 -0.661553,0.281108 -0.661553,0.624684 0,0.343577 0.123962,0.624684 0.275473,0.624684 0.151517,0 0.44921,-0.281107 0.661553,-0.624684 z m -2.498736,-2.498736 c 0.212342,-0.343576 0.08838,-0.624684 -0.275474,-0.624684 -0.363853,0 -0.661553,0.281108 -0.661553,0.624684 0,0.343576 0.123963,0.624684 0.275474,0.624684 0.151517,0 0.44921,-0.281108 0.661553,-0.624684 z m 8.698825,-3.823752 c -0.404832,-0.655034 -1.514958,-0.1292 -1.514958,0.717593 0,0.312516 0.42005,0.407024 0.93344,0.210017 0.51339,-0.197006 0.775077,-0.614431 0.581518,-0.92761 z m 1.608462,-0.824512 c 0,-0.151511 -0.281108,-0.449209 -0.624684,-0.661551 -0.343576,-0.212342 -0.624684,-0.08838 -0.624684,0.275475 0,0.363853 0.281108,0.661551 0.624684,0.661551 0.343576,0 0.624684,-0.123963 0.624684,-0.275475 z m -5.309815,-2.223261 c 0.212343,-0.343576 0.08838,-0.624684 -0.275473,-0.624684 -0.363853,0 -0.661553,0.281108 -0.661553,0.624684 0,0.343576 0.123962,0.624684 0.275473,0.624684 0.151517,0 0.449211,-0.281108 0.661553,-0.624684 z M 5.727667,51.476388 C 6.2996721,51.324897 6.9233423,50.795289 7.1136005,50.299484 7.6241486,48.969017 6.8422346,47.402508 5.8564156,47.780803 5.385387,47.961553 5,47.837153 5,47.504361 c 0,-0.332793 0.2510324,-0.605078 0.5578498,-0.605078 0.8750374,0 1.4081872,-1.849386 1.8008674,-6.246841 0.5209528,-5.833924 0.5010103,-8.69722 -0.081577,-11.712827 -0.2820974,-1.460199 -0.2773648,-2.654899 0.01052,-2.654889 1.3902389,4.9e-5 4.1335868,4.672217 4.5293498,7.71389 l 0.418715,3.218063 1.14826,-2.155818 c 1.502714,-2.821296 1.534234,-9.408536 0.05582,-11.664888 -1.217171,-1.857638 -0.94238,-2.390813 0.926489,-1.797658 3.257875,1.03401 4.693664,6.845782 2.806854,11.361554 -0.519874,1.244235 -0.871259,2.326871 -0.780855,2.405859 0.729126,0.637055 3.167182,-1.385726 4.265808,-3.539211 2.007722,-3.93546 2.288012,-9.018279 0.695792,-12.617745 -0.710166,-1.605455 -1.604718,-2.919009 -1.987891,-2.919009 -0.383173,0 -0.52358,-0.280078 -0.312017,-0.622394 0.608225,-0.984128 3.970257,1.066245 5.28012,3.220142 1.162599,1.91175 1.163262,1.911931 1.905505,0.525029 0.657243,-1.228071 0.484661,-1.651435 -1.502971,-3.686957 -1.458525,-1.493665 -2.245477,-2.892395 -2.245477,-3.991119 0,-2.250375 0.785353,-2.133695 2.502103,0.371739 2.330122,3.400585 7.803416,6.473646 6.202632,3.482559 -1.23089,-2.299933 0.285206,-6.795209 2.291779,-6.795209 0.642025,0 0.757916,0.661475 0.476115,2.717466 -0.43518,3.17498 0.75821,6.342476 1.733205,4.600263 0.909846,-1.625809 3.842906,-3.430013 6.336639,-3.89784 2.620125,-0.491539 3.286232,0.61486 0.915931,1.521355 -1.557182,0.595525 -3.050889,2.131758 -4.162914,4.281427 -0.72707,1.405501 -0.710734,1.411675 2.681182,1.013021 3.756725,-0.441529 6.899773,0.07544 6.305417,1.037126 -0.209581,0.339108 -0.628813,0.463435 -0.931629,0.276284 -0.822009,-0.508027 -5.867751,2.035251 -7.513612,3.787194 l -1.43753,1.530175 3.388487,0.04566 c 2.003112,0.02699 4.13707,0.484962 5.21946,1.120157 2.988658,1.753873 2.613897,2.378098 -1.177186,1.96081 -2.239861,-0.246542 -4.405053,-0.06611 -6.242049,0.52018 -3.086558,0.985091 -3.211614,1.620918 -0.428284,2.177584 1.947209,0.389441 5.637593,3.193133 5.019256,3.813272 -0.204928,0.205527 -1.39893,-0.05515 -2.653333,-0.579268 -3.550823,-1.483629 -11.147332,-1.565676 -13.658905,-0.147525 -1.130629,0.638403 -1.49347,0.944097 -0.806318,0.67932 2.114362,-0.814716 6.359597,-0.347139 8.978454,0.9889 4.901852,2.500737 4.216511,3.828136 -1.037669,2.009817 -4.320059,-1.495044 -13.451317,-2.018432 -14.631119,-0.838629 -0.574751,0.574751 -0.102565,0.743406 2.081328,0.743406 3.500698,0 7.760388,1.409893 10.231163,3.386359 1.749091,1.399162 1.913495,3.134443 0.17127,1.807699 -0.437775,-0.333373 -2.146467,-1.105274 -3.797089,-1.715334 -2.823909,-1.0437 -6.484502,-1.101675 -14.490021,-0.229488 -1.283445,0.13983 -3.393481,2.196936 -3.395112,3.309946 -5.05e-4,0.343577 0.37794,0.125331 0.840986,-0.484989 0.589119,-0.77649 2.074889,-1.224812 4.948385,-1.493143 3.652842,-0.341108 4.49432,-0.193717 7.617308,1.334219 3.146547,1.539462 4.686099,3.020945 3.927595,3.779452 -0.148818,0.148818 -1.799914,-0.311573 -3.669107,-1.02309 -3.352604,-1.276186 -7.2592,-1.638212 -12.144107,-1.125396 -2.82412,0.296474 -3.4125356,0.829664 -3.4261968,3.104628 -0.011725,1.952314 -1.0867217,3.116071 -2.78941,3.019722 -0.9743229,-0.05513 -1.0318656,-0.13834 -0.2405933,-0.347903 z m 6.751165,-10.775603 c 1.212074,-1.175929 3.890418,-2.919953 5.951876,-3.87561 2.061457,-0.955657 3.326441,-1.749281 2.811077,-1.76361 -0.991693,-0.02757 -5.44197,2.103968 -8.212642,3.933593 -1.714275,1.132028 -4.9303763,5.340118 -4.8729566,6.375992 0.018022,0.325109 0.5021404,-0.111663 1.0758197,-0.970604 0.5736798,-0.85894 2.0347519,-2.523833 3.2468259,-3.699761 z m 9.699979,3.699761 c -0.687152,-0.295279 -2.514352,-0.514409 -4.060445,-0.486954 l -2.811078,0.04992 2.811078,0.437037 c 1.546093,0.24037 3.373293,0.459499 4.060445,0.486954 l 1.249368,0.04992 z M 9.6577426,39.871587 C 10.432059,38.013142 10.864927,34.879166 10.671557,32.531549 10.62911,32.016184 10.014017,30.891753 9.3046899,30.032812 8.595363,29.173872 8.1804866,28.796509 8.3827424,29.194228 c 0.5300045,1.042207 0.5618678,8.963848 0.044203,10.989701 -0.6045618,2.365924 0.1999695,2.161756 1.2307957,-0.312342 z M 19.198549,39.02566 c -0.207577,-0.207577 -0.746368,-0.22977 -1.197311,-0.04932 -0.498331,0.199416 -0.350308,0.347439 0.377413,0.377414 0.658521,0.02712 1.027475,-0.120519 0.819898,-0.328097 z m 7.040709,-5.244743 c 0.515364,-0.333054 0.655918,-0.605553 0.312342,-0.605553 -0.343576,0 -1.046346,0.272499 -1.56171,0.605553 -0.515365,0.333054 -0.655919,0.605552 -0.312342,0.605552 0.343576,0 1.046345,-0.272498 1.56171,-0.605552 z m -9.628846,-2.342565 c 0.629436,-2.362193 0.225353,-6.061434 -0.770945,-7.057733 -0.302167,-0.302167 -0.537476,1.643233 -0.535573,4.427808 0.0019,2.731727 0.15615,4.968062 0.342852,4.969633 0.186702,0.0016 0.620352,-1.051298 0.963666,-2.339708 z m 6.923664,-0.827285 c 1.046152,-3.958797 0.965761,-9.343325 -0.167178,-11.197884 l -0.954043,-1.56171 0.36749,1.56171 c 1.108451,4.710546 1.054054,7.26803 -0.225867,10.619629 -1.545007,4.045747 -1.526716,3.922017 -0.531838,3.597562 0.429471,-0.140061 1.10962,-1.498749 1.511436,-3.019307 z m 3.768988,1.16078 c 3.276243,-1.424487 5.696506,-3.67418 6.729084,-6.254848 0.981216,-2.45229 0.973095,-2.655189 -0.167446,-4.184367 -0.659267,-0.883909 -1.674316,-1.700597 -2.255672,-1.814862 -2.492977,-0.489997 -4.005375,3.1993 -1.621668,3.955859 1.505876,0.477947 1.582862,1.131955 0.262261,2.227957 -0.759822,0.630597 -1.407075,0.660703 -2.811078,0.130752 -1.363804,-0.51478 -1.836028,-0.505163 -1.871766,0.03812 -0.05379,0.81753 -0.249524,1.874485 -0.872228,4.709639 -0.476746,2.170602 -0.07009,2.356388 2.608513,1.19175 z m 7.994113,0.135018 c -1.725815,-0.741609 -2.811078,-0.741609 -2.811078,0 0,0.343576 0.9136,0.604926 2.030223,0.580778 1.701346,-0.03679 1.827838,-0.130875 0.780855,-0.580778 z m -2.498736,-1.874053 c 0.621867,-0.687152 0.990112,-1.249368 0.818323,-1.249368 -0.171788,0 -0.821141,0.562216 -1.443007,1.249368 -0.621861,0.687153 -0.990106,1.249369 -0.818318,1.249369 0.171788,0 0.821141,-0.562216 1.443002,-1.249369 z m 6.246841,-2.023203 c 2.892362,-0.997092 3.022952,-1.46578 0.337035,-1.209637 -1.462879,0.139508 -2.896079,0.75133 -3.575654,1.526419 -1.102923,1.257948 -1.09975,1.280303 0.115198,0.811426 0.687153,-0.265189 2.092692,-0.772882 3.123421,-1.128208 z m -3.022047,-3.755124 c -0.173294,-0.429471 -0.315078,-0.07809 -0.315078,0.780855 0,0.85894 0.141784,1.210325 0.315078,0.780855 0.173294,-0.429471 0.173294,-1.13224 0,-1.56171 z m -7.441412,-0.08873 c -0.601258,-0.456421 -1.093197,-1.15025 -1.093197,-1.541844 0,-0.391593 -0.281108,-0.711988 -0.624684,-0.711988 -0.343576,0 -0.624684,0.261029 -0.624684,0.580064 0,0.834232 1.832142,2.546896 2.699528,2.52349 0.404933,-0.01093 0.244296,-0.393302 -0.356963,-0.849722 z m 13.659367,-3.94111 c 0.667775,-0.425703 -0.106714,-0.332743 -1.790369,0.214892 -2.225718,0.723952 -2.96725,1.27657 -2.96725,2.211323 0,1.195126 0.07335,1.186323 1.79037,-0.214893 0.984702,-0.803589 2.319964,-1.798684 2.967249,-2.211322 z m -7.064558,-0.05595 c -0.662659,-0.887566 -1.555095,-1.730507 -1.983179,-1.873202 -0.428089,-0.142696 -0.05959,0.459295 0.818861,1.337757 0.878462,0.878462 1.6194,2.101919 1.646524,2.718795 0.03336,0.758022 0.158445,0.847488 0.38598,0.275999 0.185162,-0.465076 -0.205521,-1.571783 -0.868186,-2.459349 z M 29.67502,18.885164 c 0.787796,-0.43089 0.921366,-0.690369 0.36153,-0.702346 -1.055479,-0.02258 -3.172608,1.776469 -3.172608,2.695954 0,0.355994 0.351385,0.20682 0.780855,-0.331498 0.42947,-0.538317 1.343071,-1.286266 2.030223,-1.66211 z m 7.808551,-0.713589 c 0,-0.642334 0.455126,-1.623008 1.011395,-2.179274 1.220627,-1.220627 0.927175,-1.77483 -0.387691,-0.732178 -1.318446,1.04549 -2.348769,3.072864 -2.033222,4.000788 0.377097,1.108921 1.409518,0.311021 1.409518,-1.089336 z M 26.95767,15.66116 c -1.425854,-1.032883 -2.592464,-2.204166 -2.592464,-2.60285 0,-0.398684 -0.191616,-0.533264 -0.42581,-0.299066 -0.575753,0.575752 3.560337,4.779887 4.702528,4.779887 0.499516,0 -0.258401,-0.845087 -1.684254,-1.877971 z m 6.691303,0.472432 C 33.233646,15.360545 32.690314,13.884729 32.441571,12.854 l -0.452265,-1.874052 -0.06395,2.038699 c -0.06349,2.024384 1.031116,4.520484 1.982354,4.520484 0.273018,0 0.156583,-0.632493 -0.258737,-1.405539 z M 5,49.398019 c 0,-0.343576 0.2811078,-0.624684 0.6246841,-0.624684 0.3435762,0 0.6246841,0.281108 0.6246841,0.624684 0,0.343576 -0.2811079,0.624684 -0.6246841,0.624684 C 5.2811078,50.022703 5,49.741595 5,49.398019 Z m 69.294223,-2.030223 c -0.02511,-0.429471 -0.0278,-2.74861 -0.0062,-5.153644 0.02936,-3.225939 -0.27949,-4.946214 -1.177473,-6.559183 l -1.217234,-2.186394 -0.02617,3.339379 c -0.02686,3.425528 -1.370569,6.630987 -3.049789,7.275363 -1.422043,0.545691 -1.577808,-0.07083 -0.757816,-2.99955 0.672778,-2.402933 0.677188,-4.44651 0.02955,-13.693562 -0.04167,-0.594493 -0.294426,-1.216071 -0.561741,-1.381283 -0.267321,-0.165213 -0.460267,1.445622 -0.428764,3.579633 0.07011,4.749982 -1.088598,7.693344 -3.524529,8.953014 -2.428328,1.255737 -2.674835,0.854223 -1.10699,-1.803077 1.879662,-3.185344 2.659786,-8.7612 1.812465,-12.952521 -1.050775,-5.19775 -1.486136,-5.357644 -1.630045,-0.598666 -0.124718,4.124556 -0.827975,6.25206 -2.970454,8.986299 -1.563565,1.995432 -1.797079,0.644294 -0.632318,-3.658681 1.440047,-5.319966 1.01227,-10.526239 -1.164886,-14.177165 l -1.592757,-2.670946 0.365122,5.635741 c 0.407375,6.287824 -0.372543,9.82247 -2.407626,10.911615 -1.677539,0.897792 -1.865163,0.565787 -1.113737,-1.970834 0.822041,-2.775024 0.888395,-11.685584 0.102024,-13.701676 -0.681631,-1.747582 -0.75881,-2.097025 -0.75881,-3.435762 0,-0.609811 -0.610804,-0.937027 -1.749116,-0.937027 -0.962013,0 -2.086445,-0.337329 -2.498736,-0.74962 -0.909653,-0.909655 -0.986714,-2.3738 -0.124937,-2.3738 0.343576,0 0.624684,0.421662 0.624684,0.937026 0,0.583038 0.589983,0.937026 1.56171,0.937026 0.971734,0 1.56171,-0.353988 1.56171,-0.937026 0,-1.245713 0.233639,-1.199556 3.10583,0.61358 1.350979,0.852833 2.616589,1.291284 2.812477,0.974335 0.213336,-0.345191 1.13339,-0.305322 2.294453,0.09942 1.207645,0.420988 4.74703,0.546288 9.389381,0.3324 7.828273,-0.360674 8.961624,0.08819 5.152701,2.040708 -1.299418,0.666102 -3.543777,0.906974 -7.762425,0.833087 l -5.934497,-0.103939 2.811078,0.935624 c 1.546093,0.514593 5.903263,1.083983 9.682602,1.26531 3.779339,0.181328 7.132125,0.573665 7.450639,0.87186 0.738901,0.691767 -3.273214,2.400492 -6.021487,2.564503 -1.12961,0.06741 -3.28412,-0.103193 -4.787803,-0.379125 -3.82902,-0.702642 -2.844587,0.426757 1.62093,1.859611 2.280303,0.731683 5.402137,1.151628 8.468342,1.13915 5.314656,-0.02163 5.971674,0.674769 1.979793,2.098443 -2.921429,1.041907 -9.477501,0.60279 -12.226817,-0.818938 -1.751664,-0.905822 -2.237881,-0.640691 -1.315335,0.717244 0.556963,0.819808 6.898512,2.163321 10.766237,2.280921 1.546093,0.04701 4.568002,-0.143335 6.715354,-0.422988 2.602271,-0.338896 3.904276,-0.292812 3.904276,0.138193 0,0.785769 -5.222416,2.636944 -7.45132,2.641249 l -1.6066,0.0031 1.6556,1.402436 c 0.910578,0.77134 1.776352,1.82117 1.92394,2.332956 0.183626,0.636754 0.942836,0.877751 2.404846,0.763374 2.181616,-0.170695 6.196954,1.761539 6.196954,2.982035 0,0.815638 -1.059445,0.821866 -1.56171,0.0092 -0.465671,-0.753466 -3.426236,-0.80968 -4.566235,-0.0867 -0.615576,0.390395 -0.414871,0.783075 0.810678,1.586086 0.895847,0.58698 2.176555,1.965563 2.846017,3.063517 1.286187,2.109398 1.651471,5.432043 0.597198,5.432043 -0.343577,0 -0.624684,-0.435084 -0.624684,-0.966854 0,-1.28843 -2.928919,-3.981046 -5.533508,-5.087067 -2.77286,-1.177479 -3.100926,-0.671241 -1.103405,1.702678 1.607088,1.909918 2.128087,4.849722 1.260263,7.111231 -0.608955,1.586917 -1.247051,1.154872 -2.000413,-1.354449 -0.386811,-1.288411 -1.76657,-3.438601 -3.066125,-4.778199 l -2.362836,-2.435635 -0.312342,4.372703 c -0.289185,4.048469 -1.243765,6.433065 -2.575223,6.433065 -0.30151,0 -0.568769,-0.351385 -0.593906,-0.780855 z m 2.186295,-7.492936 c -0.206384,-1.286611 -0.632743,-2.498433 -0.947459,-2.692939 -0.314716,-0.194506 -0.451703,0.29596 -0.304408,1.089924 0.147294,0.793964 0.31286,2.84911 0.36792,4.566991 0.09323,2.908554 0.139985,2.994501 0.679656,1.249368 0.318745,-1.030728 0.41068,-2.926733 0.204291,-4.213344 z m 8.180575,2.69534 c -0.519725,-1.637509 -3.351786,-5.041179 -4.194566,-5.041179 -0.348624,0 0.213773,0.965407 1.24978,2.145349 1.036001,1.179942 2.074664,2.74722 2.308139,3.48284 0.233482,0.735619 0.565058,1.196935 0.736846,1.025147 0.171788,-0.171788 0.126699,-0.897258 -0.100199,-1.612157 z M 70.664809,35.783108 c -0.09469,-6.311689 -1.000688,-5.792462 -1.080466,0.619214 -0.04923,3.956952 0.112168,5.336206 0.535866,4.579101 0.333481,-0.595896 0.578551,-2.935138 0.5446,-5.198315 z m 16.255773,-0.148921 c -1.50166,-1.251007 -3.210389,-1.636618 -3.210389,-0.724492 0,0.492471 2.818843,1.81663 4.060446,1.907405 0.343576,0.02512 -0.03898,-0.507191 -0.850057,-1.182913 z M 66.111431,29.72047 66.048095,25.972366 65.609791,29.72047 c -0.241072,2.061458 -0.635997,4.450874 -0.877612,5.309815 l -0.439309,1.56171 0.940949,-1.56171 c 0.585866,-0.972366 0.917047,-2.976136 0.877612,-5.309815 z m 11.807422,6.18177 c -0.207583,-0.207577 -0.746373,-0.22977 -1.197314,-0.04932 -0.498329,0.199415 -0.35031,0.347439 0.377416,0.377413 0.658517,0.02712 1.027474,-0.120519 0.819898,-0.328096 z m 3.604714,-2.970328 c 1.057172,-1.613448 0.747466,-3.223231 -0.729125,-3.789853 -1.379171,-0.529237 -2.188524,0.194832 -1.752695,1.568009 0.289897,0.913382 0.07684,1.196797 -0.899713,1.196797 -1.976944,0 -2.504709,-3.019777 -0.772853,-4.422146 1.826132,-1.478715 1.695149,-1.824695 -0.690807,-1.824695 -1.118891,0 -2.997753,-0.276301 -4.175245,-0.614001 -1.177492,-0.337701 -2.228236,-0.526661 -2.334988,-0.419912 -0.422255,0.422256 3.63518,7.660031 4.869469,8.686293 1.954474,1.625074 5.300475,1.428784 6.485957,-0.380492 z m 1.459693,-3.764355 c -0.45913,-0.387958 -0.623947,-0.436318 -0.366264,-0.107467 0.257682,0.328852 0.506793,1.314737 0.553582,2.190856 0.08421,1.576702 0.08794,1.577797 0.366265,0.107467 0.154659,-0.817012 -0.09445,-1.802897 -0.553583,-2.190856 z m 4.252512,2.243242 c -0.637752,-0.135181 -1.432113,0.02678 -1.765245,0.359911 -0.391139,0.391138 0.01962,0.478203 1.159552,0.245784 1.307438,-0.26657 1.464521,-0.423654 0.605693,-0.605695 z M 68.705606,24.379788 C 65.967067,17.432044 61.789292,11.563272 58.449625,9.972572 c -0.708679,-0.337547 -0.110201,0.453796 1.329952,1.758538 3.717676,3.368126 5.602823,6.341346 8.534458,13.460401 0.530569,1.288411 1.115467,2.342565 1.299774,2.342565 0.184307,0 -0.224387,-1.41943 -0.908203,-3.154288 z M 55.663802,18.975107 c -0.03873,-2.574554 -0.279852,-5.055338 -0.535891,-5.512855 -0.256039,-0.457516 -0.465527,2.079849 -0.465527,5.638589 0,3.926587 0.210687,6.093964 0.535891,5.512854 0.294739,-0.52667 0.504227,-3.064034 0.465527,-5.638588 z m 5.918801,2.155957 c -0.237336,-2.490928 -0.507031,-5.152584 -0.599322,-5.914792 -0.09229,-0.762208 -0.9149,-1.9735 -1.828019,-2.691759 l -1.660217,-1.305927 1.619787,3.12207 c 1.057484,2.038257 1.733998,4.544896 1.94879,7.220719 0.180946,2.254256 0.468838,4.098649 0.639751,4.098649 0.170914,0 0.116566,-2.038032 -0.12077,-4.52896 z m 13.694354,3.279592 c -0.212342,-0.343577 -0.720872,-0.62038 -1.130066,-0.615119 -0.44703,0.0057 -0.369981,0.251265 0.19304,0.615119 1.200093,0.77556 1.416347,0.77556 0.937026,0 z m -9.403724,-2.030224 c -0.236505,-0.773046 -0.698334,-1.827201 -1.026293,-2.342565 -0.475854,-0.747775 -0.523673,-0.705914 -0.236774,0.207262 0.197725,0.629359 0.359505,1.683514 0.359505,2.342565 0,0.659053 0.300055,1.198277 0.666782,1.198277 0.402428,0 0.496298,-0.557241 0.23678,-1.405539 z m 10.163265,-2.398938 c -1.987288,-0.290788 -4.868644,-1.084027 -6.403012,-1.762751 -1.534374,-0.678724 -2.789495,-1.03902 -2.78917,-0.800657 0.0012,1.002068 6.715828,3.176434 9.68201,3.135363 l 3.12342,-0.04325 -3.613248,-0.528707 z m -9.192776,-4.316416 c 0,-0.343576 -0.281108,-0.624684 -0.624684,-0.624684 -0.343575,0 -0.624683,0.281108 -0.624683,0.624684 0,0.343577 0.281108,0.624685 0.624683,0.624685 0.343576,0 0.624684,-0.281108 0.624684,-0.624685 z m 11.116766,-0.913589 c 0.184675,-0.184679 -1.468001,-0.339115 -3.672612,-0.343193 -2.204616,-0.0041 -5.500593,-0.404618 -7.324396,-0.890089 -2.411579,-0.641931 -3.242177,-0.682503 -3.045333,-0.148758 0.148868,0.403656 0.516639,0.687581 0.817268,0.630947 0.300629,-0.05663 2.09269,0.281216 3.98236,0.750781 3.172514,0.78834 8.454505,0.788517 9.242713,3.12e-4 z M 73.083504,9.43582 c 0.604513,-0.382202 -0.597885,-0.4629 -3.435762,-0.230588 -2.401148,0.19656 -4.482857,0.465452 -4.626016,0.597536 -0.577327,0.532678 7.19869,0.178737 8.061778,-0.366948 z M 56.848778,9.121937 c 0,-0.162965 -0.843323,-0.732399 -1.874052,-1.26541 -2.349362,-1.214903 -2.491515,-0.687223 -0.156171,0.579723 1.963101,1.065001 2.030223,1.08767 2.030223,0.685687 z m 3.748105,0.05079 c 0,-0.135029 -0.436261,-0.412917 -0.969473,-0.617528 -0.555918,-0.213328 -0.806667,-0.108601 -0.587815,0.245507 0.366852,0.593578 1.557288,0.877961 1.557288,0.372021 z m 33.732939,15.847551 c 0,-0.856792 -3.535225,-5.94983 -6.930614,-9.984633 C 85.885611,13.237018 82.890295,10.509854 80.742943,8.975281 76.791698,6.151583 75.985811,5.045447 77.87981,5.045447 c 0.572623,0 0.867605,0.173532 0.655512,0.385626 -0.212093,0.212095 1.259444,1.596658 3.270084,3.076807 3.241729,2.386424 6.509164,5.854568 11.163223,11.848941 l 1.449892,1.867438 -1.13755,-2.142412 C 91.854586,17.395445 85.054432,10.069322 82.153586,8.093793 80.952956,7.276145 79.968704,6.315596 79.966355,5.95924 c -0.0062,-0.921499 2.662247,-1.005843 3.303635,-0.104426 0.414641,0.582746 0.606743,0.576319 0.852157,-0.02851 0.411767,-1.014791 2.083915,-1.014791 2.096346,0 0.0062,0.50349 0.172588,0.551166 0.468513,0.134222 0.252422,-0.355649 2.215873,-0.677404 4.363225,-0.715012 3.946929,-0.06912 4.805744,0.522647 3.154654,2.173735 -0.574953,0.574954 -0.576633,0.749621 -0.0072,0.749621 0.542257,0 0.718731,2.357802 0.654576,8.745577 -0.04829,4.810067 -0.185625,8.745577 -0.30514,8.745577 -0.119533,0 -0.217315,-0.287884 -0.217315,-0.639743 z m 0,-7.092318 c 0,-0.12972 -0.428096,-0.591142 -0.951325,-1.025384 -0.795441,-0.660156 -0.886852,-0.621509 -0.557849,0.235852 0.336011,0.875643 1.509174,1.489387 1.509174,0.789532 z m 0,-2.887568 c 0,-0.343576 -0.123962,-0.624684 -0.275473,-0.624684 -0.151511,0 -0.44921,0.281108 -0.661553,0.624684 -0.212343,0.343576 -0.08838,0.624684 0.275473,0.624684 0.363854,0 0.661553,-0.281108 0.661553,-0.624684 z M 90.90596,11.448458 c -1.146539,-1.050759 -1.157796,-1.046816 -0.290028,0.101587 0.696254,0.921425 0.724158,1.254914 0.121957,1.457597 -0.429471,0.144546 -0.780855,0.580731 -0.780855,0.9693 0,0.388568 0.4819,0.224589 1.070889,-0.364399 1.011389,-1.011394 1.004617,-1.13162 -0.121963,-2.164085 z m 2.042954,-1.027629 C 92.505895,9.941526 91.902587,9.695557 91.608224,9.87423 c -0.294364,0.178673 -0.15381,0.566525 0.312342,0.861893 1.31817,0.835236 1.920953,0.650422 1.028348,-0.315294 z M 91.206402,8.793551 c 0,-0.343576 -0.117566,-0.624684 -0.261249,-0.624684 -0.14369,0 -0.766975,-0.194064 -1.385081,-0.431253 -1.003805,-0.385195 -1.025938,-0.321019 -0.207258,0.600923 1.043604,1.175242 1.853588,1.374075 1.853588,0.455014 z M 5.4039132,24.606341 C 4.7977685,24.000196 4.9176798,21.888461 5.5480435,22.06809 5.8494679,22.153984 7.4142172,20.39706 9.0252644,18.163815 L 11.954442,14.103368 8.5015736,17.851473 C 6.6024965,19.91293 5.0377472,21.208905 5.0243533,20.731418 5.0109601,20.25393 5.4919387,19.50096 6.0931972,19.058152 c 1.0411403,-0.766769 1.0411403,-0.825288 0,-1.228899 C 4.8271955,17.338472 4.640167,15.915199 5.7808551,15.452351 6.3717444,15.212591 6.3381527,14.980231 5.6427749,14.497234 5.1373612,14.146182 4.9650152,13.632842 5.2597842,13.356479 5.5545539,13.080116 5.9212229,13.205385 6.0746053,13.634855 6.2279877,14.064325 6.8219955,14.40946 7.3946221,14.40182 8.1910931,14.39119 8.0687581,14.106011 6.8740523,13.188282 4.971893,11.727113 4.7365251,8.915667 6.3931573,7.444035 7.1258793,6.793137 7.3165223,6.255937 6.9050428,6.001629 6.5444221,5.778753 6.2493682,5.894097 6.2493682,6.25795 c 0,0.363853 -0.3045335,0.661551 -0.6767409,0.661551 -0.372208,0 -0.5596357,-0.351385 -0.4165069,-0.780855 C 5.345544,5.570267 7.6402054,5.345185 13.58909,5.311463 l 8.172732,-0.04633 -2.29024,1.818353 C 18.211949,8.08358 17.040786,9.053778 16.868998,9.239481 16.36395,9.78544 20.141134,7.714718 22.178811,6.328543 23.20954,5.627367 24.615079,5.05616 25.302232,5.059194 26.062603,5.062594 25.052695,5.914382 22.721968,7.235582 17.699103,10.082852 11.960514,15.57799 8.5501553,20.806176 7.0418749,23.118418 5.6260659,24.82849 5.4039132,24.606337 Z m 2.3804881,-7.64873 c 0.1976694,-0.319836 0.073705,-0.758087 -0.2754751,-0.973893 -0.3491809,-0.215805 -0.6348739,0.04588 -0.6348739,0.58152 0,1.097273 0.3748448,1.258837 0.910349,0.392373 z M 10.309815,14.41571 c 0.212342,-0.343576 0.08838,-0.624684 -0.275475,-0.624684 -0.3638532,0 -0.6615514,0.281108 -0.6615514,0.624684 0,0.343577 0.1239636,0.624684 0.2754751,0.624684 0.1515115,0 0.4492093,-0.281107 0.6615513,-0.624684 z m 4.412087,-2.654907 1.834754,-2.030223 -2.030224,1.834754 c -1.892452,1.710248 -2.31736,2.225692 -1.834754,2.225692 0.107508,0 1.021109,-0.9136 2.030224,-2.030223 z m -5.3491134,1.130064 c 0,-0.151511 -0.2811078,-0.449209 -0.6246841,-0.661551 -0.3435762,-0.212342 -0.6246841,-0.08838 -0.6246841,0.275475 0,0.363853 0.2811079,0.661551 0.6246841,0.661551 0.3435763,0 0.6246841,-0.123963 0.6246841,-0.275475 z m 2.4987364,0 c 0,-0.151511 -0.281108,-0.449209 -0.624684,-0.661551 -0.343577,-0.212342 -0.624684,-0.08838 -0.624684,0.275475 0,0.363853 0.281108,0.661551 0.624684,0.661551 0.343576,0 0.624684,-0.123963 0.624684,-0.275475 z M 7.1863943,11.29229 c 0.212342,-0.343576 0.088378,-0.624684 -0.2754751,-0.624684 -0.3638528,0 -0.661551,0.281108 -0.661551,0.624684 0,0.343576 0.1239635,0.624684 0.275475,0.624684 0.1515115,0 0.4492091,-0.281108 0.6615511,-0.624684 z M 9.1794339,10.385011 C 7.7545545,8.960131 7.1146169,9.207757 8.4392282,10.671436 9.062999,11.360695 9.7022483,11.795742 9.8597817,11.638209 10.017316,11.480675 9.7111594,10.916736 9.1794339,10.385011 Z M 10.778328,9.593 C 9.9157958,9.284953 9.7010932,8.168869 10.504366,8.168869 c 0.278791,0 1.1407,0.590482 1.915353,1.312181 0.774653,0.7217 1.530633,1.19001 1.679954,1.040688 C 14.248994,10.372417 13.522754,9.494307 12.485807,8.570383 10.937811,7.191113 10.445169,7.032839 9.7326635,7.685866 8.9940095,8.362859 9.0105474,8.644456 9.8438017,9.578239 10.382209,10.181603 10.988428,10.494503 11.190954,10.273571 11.39348,10.05264 11.207796,9.746383 10.778328,9.593 Z m 5.41983,-1.056174 c 0.500065,-0.602542 0.524266,-1.009495 0.07649,-1.286235 -0.36026,-0.222653 -0.655017,-0.107126 -0.655017,0.256727 0,0.363853 -0.300051,0.661551 -0.666781,0.661551 -0.378329,0 -0.515944,-0.608038 -0.318108,-1.405539 0.19177,-0.773046 0.187287,-1.054154 -0.01,-0.624684 -0.426238,0.928052 -2.128571,1.05295 -2.128571,0.156171 0,-0.343576 -0.351385,-0.624368 -0.780855,-0.623982 -0.745731,6.87e-4 2.545887,3.637614 3.359273,3.711697 0.215613,0.01964 0.721202,-0.360929 1.123531,-0.845706 z m 1.920208,-1.8928 c 0,-0.151511 -0.281108,-0.449209 -0.624684,-0.661551 -0.343576,-0.212342 -0.624684,-0.08838 -0.624684,0.275475 0,0.363853 0.281108,0.661551 0.624684,0.661551 0.343576,0 0.624684,-0.123963 0.624684,-0.275475 z"
     style="fill:#000000;stroke-width:0.6246841" />
</svg>
