<?xml version="1.0" encoding="UTF-8" standalone="no"?>
<svg
   xmlns:dc="http://purl.org/dc/elements/1.1/"
   xmlns:cc="http://creativecommons.org/ns#"
   xmlns:rdf="http://www.w3.org/1999/02/22-rdf-syntax-ns#"
   xmlns:svg="http://www.w3.org/2000/svg"
   xmlns="http://www.w3.org/2000/svg"
   id="svgK13"
   version="1.1"
   viewBox="0 0 100 100"
   height="100"
   width="100">
  <defs
     id="defs2" />
  <metadata
     id="metadata5">
    <rdf:RDF>
      <cc:Work
         rdf:about="">
        <dc:format>image/svg+xml</dc:format>
        <dc:type
           rdf:resource="http://purl.org/dc/dcmitype/StillImage" />
        <dc:title></dc:title>
      </cc:Work>
    </rdf:RDF>
  </metadata>
  <path
     id="pathK13"
     d="m 49.018306,93.646116 c -0.601444,-0.673994 -0.693019,-2.227128 -0.439586,-7.455584 0.297086,-6.129103 0.03901,-8.757953 -1.198951,-12.212697 -0.112246,-0.313244 -0.31597,-1.287137 -0.452716,-2.164211 -0.136748,-0.877074 -0.399876,-2.20978 -0.584727,-2.961557 -0.184852,-0.751777 -0.363941,-1.978062 -0.397969,-2.725072 -0.05951,-1.306352 -0.02802,-1.39182 0.824902,-2.238776 0.513643,-0.510049 1.024111,-0.828238 1.213162,-0.756206 0.179509,0.06842 0.326384,0.03843 0.326384,-0.06663 0,-0.427788 2.064677,-0.753286 3.940445,-0.621206 1.05031,0.07398 2.080776,0.143499 2.289925,0.154541 0.209149,0.01102 0.564153,0.221838 0.788898,0.468442 0.369054,0.404949 0.382474,0.607522 0.138577,2.091513 -0.148528,0.903727 -0.266559,2.631878 -0.262286,3.840339 0.0043,1.208461 -0.05912,2.489898 -0.140875,2.847649 -0.268874,1.176566 -1.036958,3.830876 -1.242982,4.295425 -0.111134,0.250596 -0.424021,1.146487 -0.695308,1.990882 -0.271287,0.844384 -0.598972,1.600143 -0.728197,1.679444 -0.655827,0.402496 -0.881777,1.794743 -1.002582,6.177662 -0.135106,4.901626 -0.401397,7.018342 -0.960716,7.636559 -0.443961,0.490715 -0.988228,0.498222 -1.415398,0.01956 z M 19.689194,80.177323 c -0.594444,-0.06177 -0.745601,-0.180211 -0.745601,-0.584375 0,-0.576849 0.599252,-1.821227 1.268162,-2.633398 1.557552,-1.891124 4.277151,-4.728595 5.507785,-5.746487 0.247856,-0.205007 0.657123,-0.644721 0.90948,-0.97713 0.252357,-0.332419 0.61903,-0.77977 0.814827,-0.99413 0.31892,-0.349142 2.282285,-4.186432 2.282285,-4.460602 0,-0.06117 0.36194,-0.492294 0.804313,-0.958064 0.442371,-0.46577 1.254734,-1.525777 1.805253,-2.355564 0.550516,-0.829787 1.169326,-1.64748 1.375136,-1.817085 0.205807,-0.169616 0.374196,-0.427192 0.374196,-0.5724 0,-0.340602 2.205522,-2.641749 2.531959,-2.641749 0.136461,0 0.184305,-0.102518 0.106322,-0.227816 -0.08438,-0.135575 0.188797,-0.227806 0.674708,-0.227806 0.449072,0 0.816495,0.08609 0.816495,0.191244 0,0.105179 0.232283,0.300385 0.516185,0.433776 0.283903,0.1334 1.255491,0.918721 2.15909,1.745161 0.903593,0.826431 1.755298,1.50261 1.892679,1.50261 0.42158,0 1.167438,0.884075 1.167438,1.383787 0,0.678591 -2.360892,3.041533 -3.75192,3.755168 -0.649285,0.333105 -1.739183,1.030236 -2.422,1.549192 -2.306419,1.752917 -3.572394,2.620419 -4.493909,3.079417 -0.504716,0.2514 -1.478855,0.879785 -2.164759,1.396418 -0.6859,0.516632 -1.563415,1.071654 -1.950033,1.233385 -0.77858,0.325697 -1.824693,1.3009 -5.428614,5.060647 -1.337177,1.394987 -2.627577,2.627896 -2.867555,2.739798 -0.239975,0.111892 -0.771841,0.168593 -1.181922,0.126003 z M 79.109339,79.590475 C 78.228662,79.282315 76.381642,77.737324 74.003362,75.319468 72.73194,74.02688 71.534092,73.12225 69.415048,71.854337 67.837816,70.910602 66.319387,69.925906 66.040759,69.666125 65.762134,69.406334 65.466592,69.193791 65.384,69.193791 c -0.08259,0 -0.474049,-0.262025 -0.8699,-0.58228 -1.116888,-0.903578 -4.310288,-3.027681 -5.105205,-3.39574 -0.792762,-0.367065 -1.366957,-1.372218 -1.595842,-2.79358 -0.161734,-1.004348 -0.280945,-0.786432 2.303306,-4.210274 1.345373,-1.782459 2.540546,-2.762767 3.368335,-2.762767 0.642246,0 1.070825,0.307386 2.488155,1.784525 1.862311,1.940904 4.764767,5.988086 5.88078,8.200161 0.442196,0.876488 0.934853,1.747863 1.094786,1.936395 0.159937,0.188532 0.525892,0.803621 0.813238,1.366875 0.624909,1.224955 1.136043,1.861444 4.300627,5.355362 2.325362,2.567353 2.862706,3.415729 2.778373,4.386613 -0.09286,1.069052 -0.713591,1.467527 -1.731314,1.111394 z M 47.717495,58.373251 c -2.704548,-0.767049 -5.509293,-3.039081 -6.047001,-4.898469 -0.163052,-0.56383 -0.393247,-1.233306 -0.511541,-1.487714 -0.927475,-1.994695 -0.375088,-5.618926 1.224629,-8.034845 0.356763,-0.538786 0.648662,-1.023573 0.648662,-1.077294 0,-0.226476 2.704051,-2.718389 3.441236,-3.171261 1.628242,-1.000267 2.927217,-1.33498 4.586631,-1.181828 0.849961,0.07845 1.946523,0.308815 2.436797,0.511925 1.326864,0.5497 3.300278,1.9102 3.300278,2.27525 0,0.175762 0.11419,0.31956 0.253752,0.31956 0.437455,0 2.173492,2.387201 2.40652,3.309179 0.07835,0.309987 0.220994,0.563621 0.316986,0.563621 0.09599,0 0.238853,0.333174 0.317471,0.740387 0.07861,0.407213 0.233854,1.180081 0.34497,1.717477 0.419486,2.028765 -1.247618,6.507539 -2.858582,7.679755 -0.344387,0.250595 -0.977786,0.731906 -1.407547,1.069569 -0.429765,0.337672 -1.16148,0.737646 -1.626035,0.888831 -0.464558,0.151195 -1.06522,0.417292 -1.334806,0.591336 -0.730601,0.471669 -4.082866,0.584286 -5.49242,0.184521 z m 17.569509,-5.616086 -0.689686,-0.945423 0.0035,-3.32604 c 0.0017,-1.829329 0.07936,-3.436036 0.172061,-3.57047 0.719735,-1.04376 4.088803,-1.107194 10.033426,-0.188909 1.261787,0.194907 2.913581,0.404303 3.670652,0.465313 0.757071,0.06097 1.944299,0.272561 2.638281,0.47012 0.88003,0.250516 2.407056,0.372855 5.047146,0.404343 3.557611,0.0424 5.628066,0.207578 6.423639,0.512372 0.189268,0.07249 0.447361,0.144652 0.57354,0.160331 1.022606,0.127036 1.689773,0.443338 1.79743,0.85214 0.191035,0.725412 -0.222908,1.152525 -1.877617,1.937349 -1.507301,0.714906 -2.662388,0.899188 -3.15601,0.503514 -0.290783,-0.233088 -5.706478,-0.305757 -6.399263,-0.0859 -0.252358,0.08014 -1.185241,0.502194 -2.073069,0.938005 -0.996461,0.489126 -2.093945,0.837533 -2.867696,0.91038 -0.689404,0.06494 -2.079357,0.31101 -3.088786,0.546889 -3.02818,0.707618 -7.017277,1.361384 -8.306745,1.361384 -1.156542,0 -1.242209,-0.0426 -1.900814,-0.945432 z M 28.005514,52.543967 C 27.122264,52.440416 25.367233,52.055208 24.105447,51.687954 22.84366,51.32069 21.449269,50.957428 21.0068,50.880698 20.544389,50.800562 19.670747,50.308199 18.95219,49.72289 17.454412,48.502861 17.44684,48.50159 11.085909,48.399896 6.7168278,48.330088 6.2734708,48.285472 5.6946388,47.857922 c -0.829728,-0.612874 -0.924919,-1.317999 -0.238244,-1.764774 0.587525,-0.382268 8.4156442,-0.961182 9.5757772,-0.708153 2.216766,0.483475 5.589496,0.266305 7.254153,-0.467101 0.387446,-0.170698 1.362552,-0.369598 2.1669,-0.441998 0.80435,-0.07239 1.575687,-0.224956 1.714084,-0.339013 0.138398,-0.114067 0.815085,-0.238143 1.503749,-0.275739 0.688665,-0.03764 1.303738,-0.1334 1.366827,-0.2129 0.106038,-0.13361 0.784795,-0.215205 4.450022,-0.534914 0.81617,-0.0712 1.472412,-0.01956 1.654122,0.130223 0.204303,0.168375 0.299959,0.846371 0.297317,2.107322 -0.002,1.0225 0.08635,2.166634 0.196635,2.542527 0.110286,0.375884 0.226393,1.478291 0.258011,2.449791 0.07958,2.445143 0.06491,2.455411 -3.455839,2.4186 -1.554702,-0.01629 -3.549388,-0.114276 -4.432639,-0.217826 z m 9.750168,-6.58697 c 0,-0.125298 0.103237,-0.227806 0.229416,-0.227806 0.126179,0 0.229416,0.102508 0.229416,0.227806 0,0.125298 -0.103237,0.227816 -0.229416,0.227816 -0.126179,0 -0.229416,-0.102518 -0.229416,-0.227816 z m 25.019116,-4.472925 c -0.574847,-0.273087 -1.406506,-0.869229 -1.84813,-1.324782 -0.441626,-0.455542 -1.047706,-1.054545 -1.346852,-1.331117 -0.299141,-0.276573 -0.79828,-0.89904 -1.109198,-1.38326 -0.503756,-0.784556 -0.54823,-1.03258 -0.40847,-2.278119 0.14834,-1.322051 0.225665,-1.463049 1.428283,-2.604472 0.6993,-0.663716 1.592431,-1.36763 1.984738,-1.564245 0.392307,-0.196616 1.260179,-0.762611 1.928607,-1.257764 0.668426,-0.495154 1.494322,-1.02263 1.835325,-1.172167 0.341003,-0.149537 1.08457,-0.570105 1.652375,-0.934589 0.567803,-0.364493 2.007504,-1.118276 3.199333,-1.675085 2.387379,-1.115357 2.969919,-1.47987 4.830216,-3.022359 0.693984,-0.575428 2.05719,-1.564583 3.029345,-2.198123 0.972158,-0.633539 1.727293,-1.191867 1.678075,-1.240743 -0.04922,-0.04886 0.217729,-0.263942 0.593209,-0.477935 0.599723,-0.341783 0.69889,-0.347155 0.81597,-0.04419 0.0733,0.189685 -0.01685,0.520466 -0.20034,0.735065 -0.183489,0.214608 -0.674855,1.003226 -1.091925,1.75249 -0.734163,1.318913 -1.51519,2.403526 -3.448276,4.788612 -0.569769,0.70299 -1.103854,1.71988 -1.395103,2.656247 -0.259552,0.834454 -0.748585,1.92579 -1.086743,2.425193 -1.758282,2.596696 -3.367665,4.623177 -4.615203,5.811321 -0.764993,0.72856 -1.390895,1.395464 -1.390895,1.482005 0,0.08659 -0.41295,0.592687 -0.917663,1.12477 -0.504716,0.532084 -0.917662,1.1092 -0.917662,1.28248 0,0.436874 -0.983715,1.034794 -1.623707,0.986921 -0.291576,-0.02185 -1.000465,-0.263078 -1.575309,-0.536154 z M 35.668626,39.873731 c -0.772385,-0.965164 -1.465429,-1.913437 -1.540101,-2.107262 -0.07467,-0.193826 -0.572068,-0.922425 -1.105323,-1.61912 -0.533252,-0.696684 -1.2406,-1.773095 -1.571883,-2.392017 -0.331283,-0.618922 -0.984023,-1.577115 -1.45053,-2.129327 -1.247081,-1.476176 -1.326847,-1.613926 -1.727083,-2.982688 -0.31861,-1.089608 -0.653771,-1.535131 -2.570716,-3.417179 -2.744594,-2.694626 -4.924071,-5.603325 -4.924071,-6.571597 0,-0.915802 0.228002,-1.012273 1.119725,-0.473774 0.408752,0.246841 0.844844,0.386409 0.969096,0.310146 0.233563,-0.143331 0.864652,0.462295 3.990696,3.829714 1.712303,1.844522 2.54926,2.439125 4.416253,3.137508 0.410079,0.1534 0.745601,0.35785 0.745601,0.454341 0,0.09652 0.387139,0.346361 0.860308,0.55528 2.60161,1.148642 8.304563,5.202935 9.876102,7.021023 1.098408,1.270722 1.127466,1.700655 0.23453,3.469659 -0.443179,0.877978 -2.558029,3.075455 -2.959819,3.075455 -0.10763,0 -0.557021,0.358804 -0.998648,0.797346 -1.248767,1.240038 -1.710762,1.108544 -3.364137,-0.957508 z m 12.754888,-3.875313 c -0.252358,-0.04985 -0.753145,-0.204172 -1.11286,-0.342876 l -0.654027,-0.252184 0.144803,-2.070104 c 0.251272,-3.592246 0.594615,-6.791887 0.93106,-8.676645 0.671621,-3.762398 0.865899,-4.582792 1.321738,-5.581381 0.368819,-0.807961 0.479848,-1.580223 0.524051,-3.644984 0.06467,-3.02081 0.500914,-7.1994476 0.811849,-7.7763653 0.11706,-0.2172007 0.212834,-0.65188 0.212834,-0.9659684 0,-0.6932685 0.247193,-0.8821386 0.62417,-0.4768921 0.220454,0.2369814 0.220454,0.3284076 0,0.4296051 -0.154024,0.070702 -0.07357,0.08242 0.178783,0.026017 0.252358,-0.056403 0.613688,0.023832 0.802956,0.1782151 0.779737,0.6361507 0.827473,1.0599466 0.450802,4.0022596 -0.485826,3.794978 -0.314076,6.073624 0.533156,7.073464 0.647118,0.763682 0.778809,1.285478 0.952605,3.774483 0.06124,0.877074 0.216888,1.947665 0.345883,2.379098 0.24116,0.80659 0.58483,3.888788 0.814288,7.302898 0.07158,1.065011 0.183395,2.363448 0.24848,2.885393 0.09752,0.782074 0.02726,1.033255 -0.399357,1.427936 -0.474588,0.439058 -0.757252,0.475591 -3.395036,0.43882 -1.582543,-0.02204 -3.083823,-0.08093 -3.336178,-0.130789 z"
     style="fill:#000000;stroke-width:0.22861229" />
</svg>
