<?xml version="1.0" encoding="UTF-8" standalone="no"?>
<svg
   xmlns:dc="http://purl.org/dc/elements/1.1/"
   xmlns:cc="http://creativecommons.org/ns#"
   xmlns:rdf="http://www.w3.org/1999/02/22-rdf-syntax-ns#"
   xmlns:svg="http://www.w3.org/2000/svg"
   xmlns="http://www.w3.org/2000/svg"
   id="svgK2"
   version="1.1"
   viewBox="0 0 100 100"
   height="100"
   width="100">
  <defs
     id="defs2" />
  <metadata
     id="metadata5">
    <rdf:RDF>
      <cc:Work
         rdf:about="">
        <dc:format>image/svg+xml</dc:format>
        <dc:type
           rdf:resource="http://purl.org/dc/dcmitype/StillImage" />
        <dc:title></dc:title>
      </cc:Work>
    </rdf:RDF>
  </metadata>
  <path
     d="m 92.289684,5.2608437 c -2.56146,0.05996 -1.804593,4.016523 1.46674,5.1969613 1.762113,1.003097 0.828178,-3.7142693 0.846575,-4.5343423 -0.954392,-0.483183 -1.722209,-0.676454 -2.313315,-0.662619 z M 8.020414,5.4374197 C 5.538341,5.4922897 3.853542,8.2747957 6.454619,11.101965 8.722052,10.35615 10.282197,9.0459547 10.638889,6.3910457 9.763488,5.7038817 8.847771,5.4191277 8.020414,5.4374197 Z m 5.627016,0.03507 c -0.633872,-0.04475 -1.286685,0.505734 -1.59102,2.017999 0.3931,5.1464573 -5.966123,4.1954243 -6.93933,8.1747403 -0.702554,3.819827 1.913068,0.140229 3.67854,1.886336 2.520693,3.745329 3.71586,8.260678 5.202498,12.502968 4.323982,12.39838 2.839117,25.93489 -0.236253,38.42134 -1.796686,4.69331 -3.766464,9.46842 -5.992471,13.88604 -2.976811,-0.61644 -3.84705,4.92662 -0.454049,3.52227 3.93847,-0.80731 7.593364,5.38382 5.058531,8.57588 1.166916,0.36742 2.683327,0.5916 3.799743,-0.0117 -0.356537,-5.66798 6.391701,-4.44691 10.211809,-6.57634 10.15463,-2.56633 20.899643,-4.08866 31.318964,-2.27763 5.882166,0.85555 11.69465,2.58375 17.218202,4.66293 4.038939,0.49767 7.253955,3.2813 10.5182,4.43098 2.447548,-3.08911 3.366318,-8.91752 8.97271,-7.46905 2.071294,-2.57962 -1.908471,-2.81303 -3.208495,-3.64901 -1.968391,-3.64676 -2.486215,-7.89108 -3.968935,-11.68839 -1.406174,-4.51473 -2.238306,-9.11405 -2.671387,-13.80299 -0.0058,-5.79141 -1.296505,-11.63498 -0.147044,-17.38431 0.274845,-4.97049 1.552251,-9.81591 2.993161,-14.53267 0.725399,-2.11098 6.002684,-7.642081 2.030302,-7.759444 -3.352055,-2.812547 6.390814,-0.4301 5.274482,-3.724683 -3.069519,-0.441595 -8.294144,-0.577627 -7.651166,-5.5851803 2.339246,-4.445121 -2.700248,-3.535473 -5.462133,-3.349998 6.149404,2.458296 -1.797041,7.4309243 -5.230799,7.7089983 -8.013384,3.489986 -16.817847,4.074214 -25.440312,4.222415 -6.520551,0.242728 -12.730729,-1.973834 -19.063931,-2.992543 -4.433262,-1.772419 -9.475539,-1.698935 -13.490442,-4.397145 -1.313682,-2.1419323 -4.331031,0.934226 -3.869265,-0.6053993 1.490474,-1.867089 0.350007,-4.120972 -0.86011,-4.20642 z m 0.07137,7.2746393 c 0.722819,-0.02209 1.63555,0.43464 2.317006,1.583637 -1.991434,3.016344 1.671033,7.973161 5.087448,5.228338 0.923186,-6.426736 5.170308,3.300811 0.540799,2.925482 l -0.536493,0.446052 c -3.863546,-0.464527 -6.107073,-3.330634 -7.489357,-7.078991 -1.801235,-1.702003 -1.124103,-3.067704 0.0806,-3.104518 z m 72.179735,1.595942 c 0.675849,-0.04796 1.316704,0.665546 0.869955,2.085059 -1.684182,4.305886 -4.692763,8.023813 -5.708227,12.622333 -2.340938,2.726 0.28128,9.61322 -4.08337,9.78975 -2.712307,0.91539 -4.976449,-2.0698 -5.950636,-4.26241 -0.212108,-5.07878 -5.405869,-4.74603 -8.047381,-7.53119 -4.011896,-6.611941 5.056973,-6.042392 8.919182,-7.368152 4.456111,-1.248226 8.062335,-4.967334 12.854897,-3.816355 0.07283,-0.98384 0.619929,-1.481736 1.14558,-1.519035 z m -79.72385,1.112975 c 0.09638,0.01046 0.224827,0.125116 0.371608,0.428825 -0.661066,0.446223 -0.660754,-0.460216 -0.371608,-0.428825 z m 19.970185,0.159963 c 0.170426,0.01395 0.454238,0.124704 0.876722,0.407907 -0.875618,0.375788 -1.388,-0.449774 -0.876722,-0.407907 z m 2.76675,0.522342 c 1.321374,-0.05175 5.088596,1.132559 6.300092,1.798971 -2.27055,0.131399 -4.527263,-0.430834 -6.621249,-1.270477 -0.288437,-0.356936 -0.119301,-0.511244 0.321157,-0.528494 z m 53.760581,0.452819 c -0.296945,0.02544 -0.721285,0.339029 -1.284012,1.087135 -1.486601,3.031339 -7.80531,3.028169 -7.006392,6.355458 4.938308,-0.375999 -1.620403,7.59559 1.255712,10.60557 0.165198,0.19382 0.708077,0.87146 1.043453,0.43867 0.0089,-5.03411 1.911347,-9.72538 3.576408,-14.440993 2.596501,1.149016 3.701587,-4.156095 2.414831,-4.04584 z m -64.498424,0.114435 c 0.226369,-0.0026 0.555436,0.04123 1.014536,0.15135 0.851253,2.165308 -2.599121,-0.133079 -1.014536,-0.15135 z m 17.667329,0.818889 c 0.03543,-0.0057 0.07482,-0.0056 0.118742,6.3e-4 0.162179,0.02313 0.383183,0.135432 0.669384,0.388834 -0.911037,1.009053 -1.319651,-0.303998 -0.788126,-0.389449 z m -6.350543,1.128356 c 0.316491,-0.01765 0.530146,0.410991 0.278706,1.74237 -2.168617,0.495976 -0.974985,-1.703547 -0.278706,-1.74237 z m 11.808982,0.166731 c 0.127218,0.0029 0.322559,0.04314 0.606015,0.145198 -0.42539,0.53691 -1.157295,-0.157689 -0.606015,-0.145198 z m 19.730854,0.424518 c 0.375293,0.0055 0.391138,0.113407 -0.358687,0.401139 l -0.866876,0.104591 -0.863189,0.130432 c -3.395108,0.253613 0.962878,-0.652712 2.088752,-0.636162 z m -5.55011,0.329155 c 0.204785,-0.01312 0.501463,0.03252 0.909944,0.177806 -0.95791,1.041199 -1.797345,-0.120959 -0.909944,-0.177806 z m -3.785592,0.191341 c 0.127218,0.0029 0.322559,0.04314 0.606014,0.145198 -0.425389,0.53691 -1.157294,-0.15769 -0.606014,-0.145198 z m -16.591883,0.815813 c 1.329667,0.06692 3.728669,5.532475 0.111974,5.838655 -1.882311,0.18306 -3.884764,-0.0256 -5.606098,-0.8435 -3.561303,-4.846949 4.837767,2.01214 4.783517,-2.87195 -0.05666,-1.568386 0.267384,-2.145512 0.710607,-2.123205 z m 6.853195,0.74629 c 5.570803,0.831377 11.255489,0.610888 16.82383,1.220028 -0.521112,5.573667 4.9255,7.828657 8.731534,10.687387 1.571526,4.58067 5.055893,8.24033 10.098603,8.93887 0.924693,4.59039 0.434288,11.73413 -0.05353,16.78384 -3.676202,0.96059 -6.301573,3.09218 -8.017236,6.04046 0.0054,0.0234 0.01169,0.047 0.01414,0.064 -0.331987,0.87096 -0.103098,0.56652 -0.468815,0.77889 -0.226589,0.45379 -0.438039,0.92052 -0.626317,1.40707 0.0022,0.0301 0.0065,0.0605 0.0074,0.0904 -0.09222,0.19395 -0.1237,0.43424 -0.254096,0.59924 -6.3e-5,1.9e-4 6.3e-5,4.4e-4 0,6.3e-4 -0.124014,0.36382 -0.241993,0.73279 -0.346382,1.11236 -4.380388,1.97946 -9.257639,4.75701 -10.152746,10.10968 -2.085617,0.46551 -4.23928,0.2566 -6.343775,0.0615 -3.606671,-1.46734 -11.871004,3.01665 -10.347144,-3.86559 1.473566,-6.03529 -5.702716,-6.81304 -8.988706,-9.71777 -1.581903,-4.02909 -4.999386,-8.6513 -9.955868,-7.82528 0.07473,-4.04276 0.03923,-8.0873 0.147658,-12.12952 -1.040658,-4.78362 1.819436,-5.07586 5.860809,-5.48736 6.19403,-0.82902 2.950019,-9.05733 8.702617,-9.82359 4.355188,-0.49083 5.623642,-5.35022 5.168044,-9.045305 z m -10.006318,0.183958 c 0.17473,0.0021 0.425244,0.141316 0.741984,0.534646 -1.107273,0.688147 -1.266173,-0.540848 -0.741984,-0.534646 z M 26.0815,22.086524 c 0.777201,-0.04038 0.820644,1.686384 -0.873646,2.709529 -3.022009,1.35917 -3.582332,0.31728 -0.546336,-1.327077 0.56225,-0.980559 1.066709,-1.3641 1.419982,-1.382452 z m 13.025933,0.216565 c 0.349216,0.05457 0.9692,2.543554 0.176574,3.670534 -1.978068,1.47107 -0.08164,-1.32485 -0.326694,-1.87956 -0.111132,-1.33781 -0.0086,-1.815778 0.15012,-1.790974 z m 32.805392,0.506346 c -0.389226,-0.02648 -0.589789,0.456844 -0.09352,1.975538 2.720251,0.60782 0.949811,-1.917288 0.09352,-1.975538 z m 14.438529,0.07752 c 0.02895,-0.0031 0.06421,-5.04e-4 0.10644,0.008 0.425017,1.270208 -0.540752,0.03858 -0.10644,-0.008 z M 67.410472,23.23764 c -0.283558,0.03607 -0.583379,0.567102 -0.792435,2.000153 2.345864,2.23318 1.643111,-2.108378 0.792435,-2.000153 z m -52.65745,0.375914 c 0.07868,0.01872 0.157628,0.185663 0.211643,0.600479 l -0.197493,0.5045 c -0.480122,0.11265 -0.250191,-1.161152 -0.01415,-1.104979 z m 49.896236,0.136584 c -0.567443,-0.0057 -1.007728,0.486885 -0.393756,1.957085 2.63862,-0.55444 1.339497,-1.947581 0.393756,-1.957085 z m 5.205574,0.451585 c -0.287666,0.0242 -0.519588,0.3722 -0.524187,1.31232 2.753333,1.46016 1.387192,-1.38483 0.524187,-1.31232 z m -51.321755,0.007 c 0.14269,-0.005 0.39898,0.27369 0.804739,1.08221 -0.639463,1.5067 -1.232809,-1.06616 -0.804739,-1.08221 z m 66.643163,0.86872 c 0.02079,-0.006 0.04381,-0.006 0.06891,6.3e-4 0.09267,0.0241 0.21483,0.1385 0.367299,0.39622 -0.579817,1.0183 -0.74829,-0.31237 -0.436206,-0.39683 z m -69.464669,0.59864 c 0.06173,-0.003 0.135932,0.008 0.224564,0.0344 0.766021,3.08763 -1.150475,0.0107 -0.224564,-0.0344 z m 68.469818,1.3806 c 0.349221,3.54064 -2.007631,6.87597 -1.964472,10.49974 -0.946224,8.6014 -0.495232,17.31859 0.682306,25.87776 0.255626,3.43756 -0.650661,2.35767 -1.039147,0.12551 -2.318654,-6.70489 -1.616912,-13.84278 -1.10313,-20.77554 0.773821,-5.27417 1.138096,-10.82848 3.424443,-15.72747 z m -59.855796,0.46574 c 0.08787,-0.004 0.174273,-0.003 0.259633,0.002 3.300589,0.22307 4.700045,7.68193 0.546336,8.42083 -2.337563,2.23116 -6.10992,-1.52477 -1.929403,-2.18657 5.439993,0.32587 1.552614,-4.03192 0.301469,-6.05584 0.283559,-0.11043 0.558363,-0.16846 0.821965,-0.18088 z m -3.96955,0.32177 c 0.574849,0.0203 0.914545,0.54276 0.03876,1.91279 l -0.325463,0.57649 c -2.281549,-1.16148 -0.671379,-2.52318 0.286703,-2.48928 z m 8.815207,0.59863 c 3.311385,0.59888 1.573798,6.87563 -0.121818,9.01763 -0.697159,0.19658 -1.394146,0.49073 -2.129357,0.49404 3.745363,-1.64649 2.583754,-6.07319 2.251175,-9.51167 z m -12.435914,1.68946 c 0.02896,-0.003 0.06421,-5.3e-4 0.106437,0.008 0.425008,1.27023 -0.54076,0.0386 -0.106437,-0.008 z m 5.967245,1.00223 c 0.02252,-0.005 0.04654,-0.005 0.07137,0 0.09167,0.0194 0.197582,0.11323 0.310082,0.32485 -0.778909,0.84226 -0.719285,-0.25361 -0.381451,-0.32485 z m -5.188962,0.363 c 2.323,4.63705 2.644807,9.98048 2.451745,15.13314 0.07781,4.90437 0.01396,10.03303 -1.296318,14.82121 -0.121317,0.5721 -0.304679,1.15244 -0.695841,1.60333 -0.202948,-4.2077 1.470025,-10.1701 1.078522,-15.10177 0.546105,-5.43091 -1.063818,-11.79188 -1.538108,-16.45591 z m 44.339359,7.06484 c -0.452728,-0.0194 -0.727629,0.49876 -0.275015,2.10167 3.128588,0.58482 1.271015,-2.05902 0.275015,-2.10167 z m -2.507733,0.55802 c -0.641655,-0.0192 -0.589254,2.53864 -1.686998,3.17528 -2.966668,-4.14629 -2.614158,3.01987 0.316237,2.60678 1.025771,-2.26411 3.248932,-1.86639 1.954014,0.71368 1.385271,0.77301 3.721323,-0.88793 3.684077,-2.41175 -1.523438,-0.005 -2.712852,-0.53739 -3.084831,-2.60863 -0.574332,-1.06622 -0.931415,-1.46783 -1.182499,-1.47536 z m -17.473526,15.8739 c -2.881183,0.0786 -3.362213,2.49296 -2.657236,5.04438 -0.626097,4.74172 2.615232,-0.93636 4.187962,-1.70299 3.246009,1.98209 -3.148978,1.72707 -1.070524,4.02984 1.500427,0.20192 4.648953,-2.39474 2.942094,-3.7093 0.215479,-2.98866 -1.381317,-2.2606 -2.79382,-3.64593 -0.213771,-0.0162 -0.416397,-0.0212 -0.608476,-0.016 z m 0.45405,1.57318 c 0.172975,0.0167 0.423819,0.17182 0.761056,0.56479 -1.001267,1.07966 -1.378826,-0.62434 -0.761056,-0.56479 z m -18.732315,3.30447 c 2.860661,0.0368 5.568036,4.44989 5.837429,7.22234 2.089057,4.20548 9.715946,2.09231 9.222498,8.09045 0.0034,6.3347 -7.831049,3.43647 -11.757301,5.57472 -4.277965,0.55122 -7.87753,2.8189 -11.771451,4.56572 l -0.409137,0.44728 c -3.230565,-0.39156 -1.863463,-3.63773 1.001616,-3.29647 3.997237,-3.39931 8.846723,-6.35155 14.273646,-6.31916 3.661059,-2.56065 -3.682437,-1.46697 -4.279633,-2.34593 -0.393231,-3.4351 2.009724,-8.21237 -1.156657,-10.66955 -2.237065,1.91864 1.175563,6.48476 -1.114206,9.45014 -1.493498,4.59855 -7.337419,4.99681 -9.700542,8.97702 -1.095582,-0.71913 2.197662,-5.43864 3.22326,-7.61241 1.050902,-4.42443 3.382096,-8.46562 4.241488,-12.95333 0.774804,-0.80795 1.588005,-1.14112 2.38899,-1.13082 z m 0.221487,0.71122 c -0.292104,0.025 -0.582512,0.39897 -0.743214,1.41137 2.514937,1.58228 1.619526,-1.48638 0.743214,-1.41137 z m 54.679755,0.84473 c 0.267238,0.0175 0.224608,0.29356 -0.490348,1.03607 l -0.535263,0.16119 c -3.370675,1.02367 0.223903,-1.24977 1.025611,-1.19726 z m -3.815124,1.9497 c 0.335656,0.0565 -1.216369,1.56712 -1.683921,2.49605 -2.017324,2.28942 -0.773689,-1.04242 0.244866,-1.77252 0.887381,-0.54492 1.30771,-0.74564 1.439055,-0.72353 z m 3.681002,1.24218 c 0.651354,-0.0593 1.07368,0.35822 0.973313,1.48581 -5.010378,-0.0772 -1.52506,4.81282 -2.226565,6.93441 -0.971862,0.9238 -2.520935,-0.29964 -2.867648,-1.28893 -1.849335,-2.48147 2.166838,-6.95324 4.1209,-7.13129 z m 4.973626,1.80451 c 0.09236,0.01 0.221209,0.26447 0.388218,0.94563 -0.577236,2.10216 -0.718078,-0.98103 -0.388218,-0.94563 z m -4.04338,1.96939 c 0.229556,0.0286 0.436543,0.34084 0.502656,1.16712 -2.084726,1.2132 -1.191319,-1.25277 -0.502656,-1.16712 z m -7.739147,1.42429 c 0.3022,-0.0607 0.422245,0.34384 0.07629,1.61194 -0.04429,0.24411 0.02331,0.52237 -0.08983,0.74814 -3.443271,2.19189 -0.893069,-2.17804 0.01354,-2.36008 z m 12.679553,0.93517 c 0.02079,-0.006 0.04381,-0.006 0.06891,6.3e-4 0.09266,0.024 0.21483,0.1385 0.367298,0.39622 -0.579816,1.0183 -0.74829,-0.31237 -0.436206,-0.39683 z m -18.328102,2.24072 c 0.171221,0.009 0.391768,0.19519 0.631241,0.70876 -1.212648,0.84222 -1.144897,-0.73445 -0.631241,-0.70876 z m -1.392909,0.70076 c 0.166533,-0.0209 0.296627,0.17716 0.288547,0.79059 -1.613283,1.30499 -0.788154,-0.72783 -0.288547,-0.79059 z m -30.541297,0.36053 c -1.731186,-0.0605 -3.598382,1.28022 -0.112589,1.81251 0.602326,0.20037 1.244744,0.48488 1.89618,0.28732 0.244769,-1.52284 -0.744879,-2.06355 -1.783591,-2.09983 z m 47.843171,0.21165 c 0.175602,-0.0225 0.464455,0.12196 0.88841,0.58448 -0.922661,1.04825 -1.415218,-0.51707 -0.88841,-0.58448 z m -1.29632,0.0954 c 0.09638,0.0105 0.224828,0.12512 0.371608,0.42882 -0.661066,0.44623 -0.660754,-0.46021 -0.371608,-0.42882 z m -17.389851,0.48604 c 0.02079,-0.006 0.04381,-0.006 0.06891,6.3e-4 0.09266,0.024 0.21483,0.1385 0.367298,0.39622 -0.579816,1.01829 -0.74829,-0.31238 -0.436206,-0.39684 z m 7.489971,0.24302 c 1.242552,-0.0392 2.677183,0.43254 1.321542,1.80267 -0.489344,0.56283 -1.236402,-0.1906 -1.490734,-0.54142 -2.12372,-0.67233 -1.073359,-1.22205 0.169192,-1.26125 z m 5.981396,1.16774 c 0.06803,0.007 0.13463,0.0496 0.195032,0.14088 -1.20602,1.465 -0.671237,-0.1927 -0.195032,-0.14088 z m -14.36101,0.27624 c 0.650913,0.0543 1.063963,0.93547 0.07691,2.78398 -0.150436,1.15328 -1.382769,1.10214 -1.514113,0.0123 -0.343598,-1.85741 0.699505,-2.85781 1.437208,-2.79628 z m 12.640174,0.92409 c 0.101791,10e-4 0.214931,0.0136 0.340845,0.0394 -0.778811,2.42946 -1.867722,-0.0585 -0.340845,-0.0394 z m -9.405839,0.10521 c 0.69181,-0.0571 1.457385,1.23215 1.522112,2.77106 1.770197,2.78367 -2.901429,0.39038 -2.520037,-0.97639 0.194323,-1.24125 0.582837,-1.7604 0.997925,-1.79467 z m 15.696702,0.0572 c 1.177868,-0.0306 2.121395,0.62757 2.341001,2.34161 -3.94806,-2.21093 -5.174827,3.66508 -2.608015,6.16413 -1.82948,0.29545 -4.361024,-0.87267 -5.695923,-2.22718 -0.353561,-2.81215 3.371633,-6.21118 5.962937,-6.27856 z m -12.056307,0.69128 c 0.02079,-0.006 0.04381,-0.006 0.06891,6.3e-4 0.09266,0.024 0.21483,0.1385 0.367299,0.39622 -0.579817,1.01829 -0.748291,-0.31238 -0.436206,-0.39684 z m 4.123974,2.21119 c 0.554298,1.59469 -0.659764,1.21425 0,0 z m -32.297815,0.62939 c 0.326011,-0.005 0.652387,-0.005 0.978853,6.3e-4 0.746205,0.0132 1.49354,0.0565 2.241946,0.13474 5.257159,0.17822 10.545787,0.15377 15.782839,0.81704 4.563938,1.43287 9.526974,1.8795 13.701469,4.50297 l -0.516803,-0.0326 -0.532802,-0.064 c -5.604981,-1.23704 -11.148813,-2.68827 -16.7863,-3.77944 -5.444291,-0.22397 -10.901549,-0.79154 -16.340249,0.21226 -4.985697,0.77676 -10.081575,1.31652 -14.950413,2.72368 -4.487216,1.24798 -0.02725,-2.13419 1.946014,-2.06537 4.747673,-1.08829 9.585291,-2.36989 14.475446,-2.4499 z m 46.823711,0.76844 c 0.09638,0.0105 0.224828,0.12512 0.371608,0.42882 -0.661066,0.44623 -0.660754,-0.46021 -0.371608,-0.42882 z m -5.521193,1.63347 c 0.104541,-0.0105 0.221732,0.10966 0.339616,0.44728 -1.007016,2.09778 -0.792621,-0.40193 -0.339616,-0.44728 z m 2.926714,1.74791 c 0.92435,-0.002 1.931725,2.02941 0.242406,3.08421 -1.15871,1.84735 -4.464857,-1.55735 -1.190497,-1.53811 0.12471,-1.12433 0.527929,-1.54509 0.948091,-1.5461 z m -64.500885,0.96162 c 0.07396,0.0142 0.149268,0.10521 0.213489,0.31993 -0.822056,0.99946 -0.533982,-0.38129 -0.213489,-0.31993 z m 55.122729,0.86257 c 0.01622,-0.005 0.03429,-0.004 0.05476,0.004 0.07558,0.0272 0.180248,0.14309 0.31931,0.39868 -0.394155,0.95904 -0.617528,-0.33417 -0.374068,-0.40237 z m -69.497891,0.9807 c -0.969452,0.0296 -1.561034,0.85413 -1.003462,2.96548 0.141674,1.07461 -0.349503,2.54154 0.407292,3.41337 1.736961,0.13707 7.809134,-0.14579 5.024692,-2.1835 -0.146896,-2.08621 -2.812769,-4.24459 -4.428522,-4.19535 z m 85.71263,0.46697 c -1.700385,0.0507 -1.763336,3.33253 -1.980469,5.14959 2.978879,3.60331 6.929925,-1.2612 3.833581,-4.32947 -0.772158,-0.59553 -1.377005,-0.8343 -1.853112,-0.82012 z"
     style="fill:#000000;stroke-width:0.31500462"
     id="pathK2" />
</svg>
