<?xml version="1.0" encoding="UTF-8" standalone="no"?>
<svg
   xmlns:dc="http://purl.org/dc/elements/1.1/"
   xmlns:cc="http://creativecommons.org/ns#"
   xmlns:rdf="http://www.w3.org/1999/02/22-rdf-syntax-ns#"
   xmlns:svg="http://www.w3.org/2000/svg"
   xmlns="http://www.w3.org/2000/svg"
   id="svgK4"
   version="1.1"
   viewBox="0 0 100 100"
   height="100"
   width="100">
  <defs
     id="defs2" />
  <metadata
     id="metadata5">
    <rdf:RDF>
      <cc:Work
         rdf:about="">
        <dc:format>image/svg+xml</dc:format>
        <dc:type
           rdf:resource="http://purl.org/dc/dcmitype/StillImage" />
        <dc:title></dc:title>
      </cc:Work>
    </rdf:RDF>
  </metadata>
  <path
     id="pathK4"
     d="m 5.7522905,92.21666 c 0.2993904,-0.11981 0.6571061,-0.10508 0.7949252,0.0327 0.1378149,0.13781 -0.1071447,0.23584 -0.54435,0.21783 -0.4831547,-0.0199 -0.581428,-0.11818 -0.2505752,-0.25057 z m 4.7325975,-1.47935 c 0.04753,-0.96946 0.04612,-2.64917 -0.0029,-3.73268 L 10.392438,85.0346 H 7.7055504 5.0186636 L 5.0055576,50.731184 C 4.9936546,19.647527 5.1606382,13.882918 5.9460534,18.260998 c 0.135513,0.755372 0.2013452,0.614629 0.2424918,-0.518428 0.04106,-1.131084 -0.1131999,-1.555286 -0.5656346,-1.555286 -0.4423191,0 -0.6222304,-0.449482 -0.6225124,-1.555286 L 5,13.076712 h 3.4220268 3.4220272 l 0.05125,-2.281085 c 0.07305,-3.2516 0.08886,-3.317943 0.790524,-3.317943 0.479946,0 0.618735,0.429139 0.570066,1.762657 -0.119697,3.279633 0.184647,4.270348 0.42406,1.38042 0.152501,-1.840828 0.434857,-2.935636 0.787052,-3.051716 0.435235,-0.143449 0.501067,0.427826 0.317177,2.752377 l -0.232055,2.933397 3.830251,-0.01554 c 2.106638,-0.0085 6.909717,0.131096 10.673508,0.310319 3.763792,0.179224 9.642772,0.332777 13.064401,0.34123 l 6.221143,0.01537 0.238,-1.783332 c 0.130901,-0.980832 0.124336,-1.85358 -0.0146,-1.939439 C 48.100553,9.896482 36.420884,9.559705 26.567427,9.549143 21.206875,9.543443 16.581355,9.386657 16.288494,9.200832 15.994956,9.014577 15.875287,8.552157 16.021809,8.170325 c 0.2342,-0.610314 1.036936,-0.684606 6.75362,-0.62504 4.49912,0.04688 5.788608,0.153289 4.206741,0.347141 l -2.281086,0.27954 2.61662,0.0676 c 1.859892,0.04805 2.532488,-0.06853 2.325709,-0.403102 -0.285988,-0.462738 25.545466,-0.343127 48.663188,0.22533 5.538418,0.136189 8.813286,0.06793 8.813286,-0.183698 0,-0.220227 0.279951,-0.400413 0.622114,-0.400413 0.47469,0 0.634731,0.565129 0.675351,2.384771 l 0.05323,2.384772 0.408588,-2.384772 c 0.283145,-1.652623 0.598192,-2.384771 1.026182,-2.384771 0.509997,0 0.592116,0.614195 0.471351,3.525374 -0.0891,2.147771 0.01584,3.54768 0.268496,3.582456 0.228109,0.0314 1.254597,0.07831 2.281086,0.104262 l 1.866343,0.04718 -0.02617,22.60285 c -0.01439,12.431567 -0.137209,26.148905 -0.272946,30.482965 -0.135737,4.33406 -0.09939,7.32021 0.08078,6.63589 0.215874,-0.81997 0.344303,0.47923 0.376645,3.81009 l 0.04907,5.05432 -1.347914,0.16727 -1.347915,0.16728 1.378324,0.0664 c 1.036985,0.0499 1.345119,0.23511 1.244228,0.74769 -0.109695,0.55735 -0.721694,0.68941 -3.363552,0.7258 -2.382864,0.0328 -3.332529,0.20758 -3.622646,0.6666 -0.216259,0.34217 -0.396055,1.97522 -0.399547,3.629 L 87.534685,92.5 H 50.000176 12.465946 v -3.80181 c 0,-2.09099 -0.133817,-3.66799 -0.297371,-3.50444 -0.163554,0.16356 -0.241567,1.87437 -0.173363,3.80181 0.117119,3.30973 0.07621,3.50444 -0.736361,3.50444 -0.749261,0 -0.849214,-0.22764 -0.773959,-1.76266 z m 25.094329,1.09734 c -0.137815,-0.13781 -0.495531,-0.15254 -0.794925,-0.0327 -0.330853,0.13239 -0.23258,0.23067 0.250575,0.25057 0.437205,0.018 0.682165,-0.08 0.54435,-0.21783 z m 3.539656,-0.0414 c -0.510109,-0.0984 -1.44328,-0.10099 -2.073714,-0.006 -0.630434,0.0953 -0.213075,0.17588 0.927468,0.17899 1.140543,0.003 1.656355,-0.0749 1.146246,-0.17333 z m 8.807583,-0.12278 c -0.292945,-0.47399 -4.773101,-0.47399 -6.635886,0 -0.845578,0.21517 0.05923,0.33233 2.823993,0.36568 2.618329,0.0316 3.976865,-0.0987 3.811893,-0.36568 z m 8.855256,-0.21477 c 0.109981,-0.10999 -1.137582,-0.19997 -2.772357,-0.19997 -1.63478,0 -2.972326,0.14673 -2.972326,0.32607 0,0.34086 5.39617,0.22241 5.744683,-0.1261 z M 14.954398,90.65498 c 0,-0.43859 0.787115,-0.49739 3.836371,-0.28658 2.110005,0.14588 6.262618,0.24203 9.22803,0.21367 5.072355,-0.0485 19.831315,-0.57655 19.97244,-0.71457 0.03563,-0.0348 0.188181,-1.04319 0.339002,-2.24076 l 0.27422,-2.1774 -1.997974,-0.0216 c -1.098886,-0.0119 -8.938621,-0.10391 -17.421636,-0.20453 l -15.423662,-0.18295 0.154275,3.21142 c 0.08485,1.76628 0.166688,3.2691 0.181861,3.33959 0.08138,0.37808 0.857073,-0.46931 0.857073,-0.93628 z m 63.739681,-0.17169 c 2.923257,0.14542 5.465108,0.12597 5.648565,-0.0432 0.183457,-0.1692 0.276775,-1.40799 0.207372,-2.75286 l -0.126186,-2.44522 -2.073714,0.0731 c -1.140543,0.0402 -8.481343,0.11175 -16.312887,0.15896 -10.032306,0.0605 -14.290898,0.22267 -14.414259,0.54899 -0.0963,0.25473 -0.220872,1.29328 -0.276829,2.30788 l -0.10174,1.84473 10.147148,0.14581 c 5.580934,0.0802 10.218448,0.21711 10.305589,0.30425 0.08714,0.0871 0.501225,0.0312 0.920186,-0.1242 0.418961,-0.15545 3.153502,-0.16365 6.076755,-0.0182 z m 7.456027,-3.89341 c -0.115054,-0.28513 -0.209192,-0.0518 -0.209192,0.51843 0,0.57027 0.09414,0.80357 0.209192,0.51843 0.115054,-0.28513 0.115054,-0.75172 0,-1.03686 z M 9.044312,83.50448 c -0.39919,-0.10432 -1.05241,-0.10432 -1.4516,0 -0.39919,0.10432 -0.07258,0.18967 0.7258,0.18967 0.79838,0 1.12499,-0.0854 0.7258,-0.18967 z m 9.228029,0.0507 c -1.413604,-0.3159 -4.562172,-0.37028 -4.562172,-0.0788 0,0.17273 1.166465,0.2924 2.592143,0.26594 1.425679,-0.0265 2.312192,-0.11067 1.970029,-0.18713 z m 1.961388,-0.0153 c -0.137816,-0.13781 -0.495531,-0.15254 -0.794924,-0.0327 -0.330854,0.13239 -0.232578,0.23067 0.250574,0.25057 0.437208,0.018 0.682165,-0.08 0.54435,-0.21783 z m 25.335992,-1.12137 c 0.07245,-0.37247 -0.642569,-2.50245 -1.588925,-4.73329 -1.550898,-3.65588 -2.878619,-6.03931 -6.178682,-11.0915 -1.215321,-1.86058 -7.339036,-8.10266 -7.949011,-8.10266 -0.219553,0 -1.095358,-0.43536 -1.946232,-0.96747 -2.147315,-1.342859 -4.00922,-1.975985 -10.671387,-3.628718 -0.912435,-0.226355 -1.975373,-0.507272 -2.362086,-0.624263 -0.53647,-0.162293 -0.756315,0.111678 -0.92758,1.155955 -0.309246,1.885603 -0.553975,27.288616 -0.262969,27.296246 0.129081,0.003 2.940889,0.19329 6.248463,0.42201 3.307575,0.22873 8.996493,0.51804 12.642041,0.64291 3.645547,0.12487 6.66295,0.26158 6.705337,0.30379 0.04239,0.0422 1.445574,0.0604 3.11819,0.0405 2.464436,-0.0294 3.066099,-0.16467 3.172841,-0.71347 z M 27.005076,75.10554 c -0.965934,-1.03404 -1.227727,-1.1336 -1.721684,-0.65473 -1.109709,1.07578 -2.132055,0.90711 -2.958278,-0.48808 -0.697082,-1.17712 -0.719996,-1.44929 -0.204798,-2.43258 0.539402,-1.02948 0.497508,-1.1976 -0.597078,-2.39602 -1.249383,-1.3679 -1.445351,-2.31641 -0.747848,-3.61971 0.65911,-1.23156 2.020707,-0.95898 3.605956,0.72187 l 1.437405,1.5241 1.447931,-0.77977 c 1.312855,-0.70702 1.550893,-0.72197 2.551624,-0.16027 1.483325,0.83257 1.590215,3.27743 0.170521,3.90028 -1.146324,0.50292 -1.161835,0.82804 -0.103686,2.17326 2.151554,2.73525 -0.493521,4.76645 -2.880065,2.21165 z m 2.05058,-0.93121 c 0,-0.56951 -1.639196,-2.4115 -2.14601,-2.4115 -0.574906,0 -0.385583,0.66278 0.51714,1.81041 0.90867,1.15519 1.62887,1.42096 1.62887,0.60109 z m -4.147429,-1.58202 c 0.46114,-0.86165 0.171583,-1.02844 -1.002937,-0.57774 -0.360819,0.13846 -0.656034,0.51173 -0.656034,0.82949 0,0.86903 1.152772,0.6941 1.658971,-0.25175 z M 25.32297,69.7814 c 0,-0.86819 -2.223184,-3.41023 -2.98247,-3.41023 -0.827112,0 -0.219474,1.55477 1.008702,2.58099 1.380569,1.15354 1.973768,1.40277 1.973768,0.82924 z m 3.92415,-0.23674 c 0.85804,-0.62742 0.544206,-1.52147 -0.526998,-1.50133 -0.989972,0.0186 -2.28916,1.08981 -1.962607,1.61819 0.377065,0.6101 1.57214,0.55401 2.489605,-0.11686 z m 25.753665,10.17965 c 0.199964,-4.30653 1.554481,-8.83341 3.478552,-11.62553 2.109942,-3.06184 4.770721,-5.85193 6.970007,-7.30873 0.969461,-0.64217 1.762657,-1.31625 1.762657,-1.49796 0,-0.18172 0.40559,-0.45912 0.901315,-0.61646 0.495722,-0.15734 1.102283,-0.45623 1.347914,-0.66421 0.245628,-0.20797 0.819868,-0.64571 1.276085,-0.97274 0.765043,-0.54841 0.728335,-0.566696 -0.472504,-0.23535 -1.648822,0.45495 -5.393498,2.84066 -7.629303,4.86058 -4.095901,3.70039 -8.317344,11.48362 -9.301533,17.14955 -0.05943,0.34216 -0.227292,0.94872 -0.37302,1.34791 -0.145724,0.39919 -0.352415,1.00575 -0.459311,1.34791 -0.251911,0.80636 -1.420776,0.8042 -1.730606,-0.003 -0.131975,-0.34393 0.06052,-1.0839 0.427762,-1.64438 0.367242,-0.56049 0.667715,-1.3565 0.667715,-1.76892 0,-1.03559 2.163631,-6.51364 3.56486,-9.02579 1.566944,-2.80925 3.976517,-6.05715 5.864643,-7.90505 1.330304,-1.30196 6.526895,-4.909863 7.160212,-4.971207 0.114054,-0.01103 1.047225,-0.44696 2.073714,-0.968695 2.389782,-1.214653 6.217502,-2.603104 7.154314,-2.595124 0.39919,0.0033 0.7258,-0.179866 0.7258,-0.407261 0,-0.227391 0.144874,-0.323906 0.321945,-0.214472 0.177066,0.109434 1.34353,-0.03683 2.592143,-0.325034 1.248608,-0.288205 2.783443,-0.453658 3.410741,-0.367678 0.985313,0.135053 1.140543,0.01327 1.140543,-0.894717 0,-0.578076 -0.139976,-1.064914 -0.311057,-1.081865 -0.77525,-0.07681 -2.475911,-0.403251 -3.421629,-0.656776 -0.570271,-0.152876 -1.155179,-0.25456 -1.299796,-0.225963 C 80.432419,48.534528 74.473145,46.59056 73.37761,46.018089 69.487621,43.985063 67.83592,43.057062 67.626744,42.786674 67.51269,42.639245 66.729614,42.00466 65.886578,41.376486 61.579847,38.1674 56.47537,31.593313 54.009993,26.080561 c -1.63886,-3.664604 -2.702502,-7.223163 -2.44887,-8.193051 0.22346,-0.854498 -0.500889,-1.404923 -1.231977,-0.93617 -0.233915,0.149976 -0.51334,1.299173 -0.620949,2.553771 -0.107609,1.254597 -0.715972,3.567526 -1.351918,5.139841 -2.080964,5.145116 -4.443165,8.455815 -10.17628,14.262489 -2.168301,2.196123 -8.134475,5.896118 -10.990686,6.816008 -1.986868,0.639904 -9.790517,1.870928 -11.284939,1.780197 -1.154914,-0.07012 -1.364719,0.0575 -1.364719,0.830112 0,0.805485 0.393261,0.997938 3.340446,1.634714 1.837246,0.396959 4.450126,1.156626 5.806401,1.688144 1.356275,0.531522 2.465954,0.869218 2.465954,0.75044 0,-0.118778 0.826429,0.26836 1.83651,0.860305 2.189093,1.282891 2.474057,1.326564 1.921707,0.294489 -0.230117,-0.429981 -0.917869,-0.907138 -1.528337,-1.060357 -0.610468,-0.153218 -1.595221,-0.724311 -2.18834,-1.269101 -0.593119,-0.544785 -1.544983,-1.360199 -2.115255,-1.812028 -1.10553,-0.875922 -1.03187,-0.958089 1.318913,-1.471233 0.611347,-0.133449 1.382325,-0.513419 1.713283,-0.844377 0.330958,-0.330958 0.688621,-0.514862 0.794808,-0.408676 0.391548,0.391548 3.227011,-1.096403 3.823179,-2.00627 0.338713,-0.516941 1.436767,-1.182283 2.440121,-1.478538 1.125434,-0.332301 2.166493,-1.001512 2.717599,-1.746924 0.491325,-0.664554 1.49657,-1.515033 2.23388,-1.889955 1.5145,-0.770121 2.792161,-1.981181 2.792161,-2.646609 0,-0.24534 0.625793,-0.8153 1.390653,-1.266579 0.881329,-0.519996 1.633432,-1.438556 2.053529,-2.508019 0.389161,-0.990708 1.006398,-1.777347 1.494816,-1.90507 0.50011,-0.130782 1.026559,-0.82046 1.31987,-1.729108 0.268363,-0.831353 0.781761,-2.071453 1.140891,-2.755779 0.359127,-0.684326 0.660782,-1.430863 0.670342,-1.658972 0.0096,-0.228108 0.297338,-0.414742 0.6395,-0.414742 0.441561,0 0.700547,0.642632 0.892361,2.214254 0.224285,1.837678 0.524057,2.446738 1.762657,3.581251 0.820826,0.751848 1.492411,1.668435 1.492411,2.03686 0,0.378949 0.338385,0.669863 0.779169,0.669863 0.480857,0 0.983737,0.493869 1.313483,1.289946 0.31279,0.755147 0.996361,1.451016 1.648789,1.678454 0.849866,0.296265 1.104224,0.648679 1.071289,1.48429 -0.03409,0.864996 0.287243,1.270852 1.525711,1.927022 0.973944,0.516019 1.486695,1.045453 1.352132,1.396119 -0.136106,0.354694 0.29236,0.777603 1.151525,1.136585 0.752555,0.314439 1.586512,1.050659 1.853233,1.636046 0.328846,0.721745 0.812556,1.064339 1.502742,1.064339 0.668379,0 1.112316,0.297787 1.293106,0.867402 0.180492,0.568678 0.52691,0.801605 1.005897,0.676346 1.019616,-0.266635 2.092639,0.422859 2.092639,1.344674 0,0.660162 0.455748,0.816199 3.110571,1.064976 2.639892,0.247379 3.110572,0.407109 3.110572,1.055596 0,0.550107 -0.49366,0.893282 -1.762657,1.225333 -0.969462,0.253669 -2.322561,0.755894 -3.006886,1.116044 -0.684326,0.360155 -1.804132,0.940127 -2.488457,1.288822 -0.684326,0.348699 -1.488106,0.973779 -1.786174,1.389061 -0.298071,0.415282 -0.913885,0.75506 -1.368473,0.75506 -0.454587,0 -1.479765,0.634416 -2.278166,1.409814 -0.7984,0.7754 -1.956599,1.61897 -2.573769,1.87462 -0.617171,0.25564 -1.494414,1.0342 -1.949429,1.73015 -0.455018,0.69594 -1.340548,1.53686 -1.967847,1.86872 -0.627298,0.33185 -1.140543,0.84493 -1.140543,1.14018 0,0.29525 -0.65322,1.29995 -1.4516,2.23268 -0.79838,0.93273 -1.4516,1.96676 -1.4516,2.29786 0,0.3311 -0.495298,1.32792 -1.100665,2.21516 -0.605367,0.88723 -1.518855,2.5538 -2.029972,3.70347 -1.599518,3.59785 -2.96878,3.88329 -2.729478,0.56901 0.08882,-1.23017 -0.05082,-1.55306 -0.750821,-1.73611 -0.541049,-0.14149 -0.951831,-0.68437 -1.107758,-1.46401 -0.184892,-0.92447 -0.532459,-1.29606 -1.368655,-1.4633 -1.012272,-0.20246 -1.103955,-0.3687 -0.946618,-1.71642 0.126837,-1.08643 -0.03675,-1.68576 -0.601456,-2.20381 -0.426621,-0.39135 -1.054347,-1.25734 -1.394954,-1.92441 -0.340604,-0.66706 -1.225843,-1.57201 -1.967196,-2.01099 -0.741353,-0.43898 -1.347915,-1.04709 -1.347915,-1.35135 0,-0.30426 -0.363721,-0.66864 -0.808271,-0.80973 -0.444546,-0.14109 -0.917316,-0.60011 -1.050594,-1.02003 -0.255747,-0.80579 -1.731369,-1.41907 -2.075331,-0.86253 -0.111288,0.18007 0.552089,1.04906 1.47417,1.93109 1.790598,1.71284 5.675482,6.73206 6.537957,8.44696 0.286807,0.57028 1.001931,1.87672 1.589166,2.90321 1.229692,2.1495 3.042504,6.90876 3.042504,7.98763 0,0.40327 0.17301,1.0573 0.384466,1.45339 0.211457,0.3961 0.473288,1.01482 0.581843,1.37495 0.157731,0.52326 0.797706,0.64602 3.186558,0.61124 l 2.989189,-0.0435 z m 24.578687,2.66364 c 2.582097,-0.0968 4.756586,-0.24082 4.832194,-0.31998 0.07561,-0.0792 0.236229,-2.66351 0.356936,-5.74297 0.68253,-17.41254 0.764155,-21.887877 0.403283,-22.110909 -0.213966,-0.132237 -1.159335,0.02497 -2.100818,0.349325 -0.941483,0.324367 -2.296199,0.692716 -3.010481,0.818558 -1.479048,0.26057 -5.90749,1.687516 -7.456928,2.402796 -2.401091,1.10843 -7.423967,4.75568 -9.608671,6.97712 -2.850719,2.89866 -5.232558,6.83782 -5.561254,9.1974 -0.133593,0.95898 -0.402019,2.21018 -0.596508,2.78045 -0.194486,0.57027 -0.422702,2.17794 -0.507148,3.57259 l -0.153529,2.53573 9.354098,-0.14204 c 5.144752,-0.0781 11.466724,-0.22125 14.048826,-0.31807 z M 67.073755,74.80427 c -0.515895,-0.51589 -0.279711,-2.97898 0.345618,-3.60431 0.774814,-0.77481 0.777775,-1.06615 0.01937,-1.90419 -1.614577,-1.78409 2.107234,-4.11034 3.901602,-2.43862 0.717671,0.66861 0.988573,0.71051 1.780682,0.27544 1.160766,-0.63755 2.85789,-0.78151 3.468362,-0.29419 0.660872,0.52754 0.202859,2.36011 -0.758079,3.03318 -0.810491,0.56769 -0.809512,0.58549 0.09948,1.81496 1.025742,1.38739 0.881287,1.88269 -0.803133,2.75374 -1.013072,0.52388 -1.266359,0.52061 -2.047416,-0.0265 -0.49023,-0.34338 -0.891324,-0.89368 -0.891324,-1.22291 0,-0.32923 -0.186634,-0.5986 -0.414742,-0.5986 -0.228109,0 -0.414743,0.23972 -0.414743,0.5327 0,1.11046 -3.48783,2.47711 -4.285675,1.67926 z m 2.914867,-2.35261 c 0.419707,-0.53357 1.039814,-1.07874 1.378016,-1.21148 0.390202,-0.15315 0.247946,-0.25332 -0.389294,-0.27409 -1.108691,-0.0362 -2.521114,1.02711 -2.521114,1.89788 0,0.85089 0.683388,0.66702 1.532392,-0.41231 z m 4.907349,0.53723 c 0.287699,-0.4655 -0.499417,-1.6408 -1.098865,-1.6408 -0.424958,0 -0.492702,1.39198 -0.08746,1.79721 0.402089,0.4021 0.880109,0.33907 1.18633,-0.15641 z M 74.60887,69.13992 c 0.498068,-0.53017 0.784361,-1.08515 0.636215,-1.2333 -0.388241,-0.38825 -2.641427,1.03164 -2.641427,1.66454 0,0.84092 1.015191,0.62258 2.005212,-0.43124 z m -3.871555,-0.49335 c 0,-0.53855 -0.323122,-0.86969 -0.933171,-0.95633 -0.961494,-0.13655 -1.123397,0.19109 -0.673613,1.3632 0.355713,0.92698 1.606784,0.61018 1.606784,-0.40687 z m -59.905868,0.90202 c 0.01348,-6.88002 0.108791,-13.162354 0.211833,-13.960734 0.49305,-3.820151 0.486109,-3.849436 -1.005319,-4.24206 C 9.2728436,51.144376 8.0597207,51.036609 7.3421326,51.106315 L 6.0374262,51.233056 5.9443002,66.78591 5.8511742,82.33877 8.329072,82.19825 10.80697,82.05772 10.83144,69.54859 Z m 76.143927,10.4781 c 0.296956,-7.90788 0.439577,-33.907472 0.179015,-32.634532 -0.174582,0.852918 -0.347148,5.238826 -0.383471,9.746462 -0.03633,4.50763 -0.157772,9.96872 -0.269881,12.13575 -0.633848,12.25198 -0.644192,13.34709 -0.124411,13.17383 0.30983,-0.10328 0.547838,-1.06586 0.598748,-2.42151 z m 5.475103,1.93494 c 0.343689,-0.21241 0.475582,-4.5313 0.475582,-15.57317 V 51.10921 L 90.95603,50.933147 c -1.083516,-0.09683 -1.994693,-0.162285 -2.024841,-0.145446 -0.03015,0.01684 -0.167933,5.816275 -0.3062,12.887639 -0.138267,7.07137 -0.368686,14.16347 -0.512042,15.76023 l -0.260645,2.9032 2.061293,-0.0416 c 1.133716,-0.0229 2.275308,-0.17387 2.536882,-0.33553 z M 44.48409,74.16834 c -0.27373,-0.27373 -0.497691,-0.73773 -0.497691,-1.03111 0,-0.79132 -3.916106,-7.17599 -5.628579,-9.17663 -2.325945,-2.71734 -2.556542,-2.03452 -0.28884,0.85528 1.979195,2.52215 3.637631,5.12049 5.294338,8.29486 0.446442,0.85541 0.993231,1.55529 1.215085,1.55529 0.221858,0 0.179418,-0.22396 -0.09431,-0.49769 z m 6.138196,-2.60554 c 0,-0.3112 0.466586,-1.12032 1.036858,-1.79805 0.570271,-0.67773 1.036857,-1.52541 1.036857,-1.88373 0,-0.35833 0.534724,-1.26456 1.188271,-2.01384 0.653548,-0.7493 1.311533,-1.75766 1.462189,-2.24083 0.271627,-0.87112 1.911711,-2.6379 1.911711,-2.05938 0,0.44096 1.376847,-1.00895 1.86371,-1.9626 0.229556,-0.44965 1.054313,-1.15687 1.83279,-1.5716 0.778472,-0.41474 2.000483,-1.32114 2.71557,-2.014232 0.715092,-0.693094 1.497732,-1.260168 1.739204,-1.260168 0.241475,0 1.294541,-0.65322 2.340149,-1.4516 1.045604,-0.79838 2.185682,-1.4516 2.533502,-1.4516 0.347824,0 0.832605,-0.374081 1.077299,-0.83129 0.376338,-0.703196 0.282726,-0.905176 -0.607524,-1.310799 -0.976254,-0.444811 -1.240993,-0.863405 -1.091184,-1.725319 0.03268,-0.188152 -0.45844,-0.281469 -1.091429,-0.207372 -0.847821,0.09925 -1.2512,-0.0936 -1.531828,-0.732344 -0.20952,-0.476887 -0.956057,-1.03679 -1.658971,-1.244229 -0.813589,-0.240099 -1.322354,-0.68698 -1.399998,-1.229709 -0.07889,-0.551472 -0.591523,-0.990868 -1.4516,-1.244228 -0.994346,-0.292913 -1.429698,-0.731579 -1.726458,-1.739596 -0.258443,-0.877875 -0.658508,-1.347914 -1.147254,-1.347914 -0.449283,0 -1.02821,-0.582519 -1.442646,-1.4516 -0.380721,-0.79838 -0.947127,-1.4516 -1.258682,-1.4516 -0.311555,0 -0.839394,-0.65322 -1.17298,-1.4516 -0.404577,-0.968298 -0.880835,-1.4516 -1.430436,-1.4516 -0.80614,0 -0.984744,-0.356166 -0.855282,-1.705549 0.03612,-0.376303 -0.441726,-0.87882 -1.092786,-1.149252 -0.694449,-0.288454 -1.431153,-1.098808 -1.842901,-2.027137 l -0.685964,-1.546577 -0.03982,1.550083 c -0.03417,1.329161 -0.26799,1.694111 -1.640666,2.560642 -1.097741,0.692974 -1.679891,1.405865 -1.852403,2.268429 -0.167996,0.839978 -0.670316,1.47441 -1.511999,1.909662 -0.693235,0.358486 -1.728338,1.393011 -2.300231,2.298946 -0.571909,0.905934 -1.335281,1.647153 -1.696393,1.647153 -0.905251,0 -3.065709,1.594122 -3.065709,2.262071 0,0.536304 -2.359916,1.885358 -3.298081,1.885358 -0.262292,0 -1.085768,0.664622 -1.829948,1.476938 -0.744179,0.812315 -1.621177,1.517442 -1.948884,1.566948 -0.327706,0.04951 -0.782464,0.20023 -1.010573,0.334943 -0.228109,0.134713 -1.130615,0.475827 -2.00557,0.758032 l -1.590828,0.513099 1.149994,1.200332 c 0.632496,0.660188 1.581661,1.200336 2.109256,1.200336 0.527594,0 0.965198,0.139976 0.972452,0.311058 0.03253,0.767042 1.246089,1.820314 2.322157,2.015443 0.648154,0.117534 1.766124,0.855274 2.48438,1.639428 0.718256,0.784151 1.480815,1.425724 1.694577,1.425724 0.587231,0 6.555849,5.86404 7.176371,7.05063 0.298221,0.57027 0.88587,1.28074 1.305888,1.57881 0.433975,0.30797 0.763666,1.04836 0.763666,1.71495 0,0.79356 0.335415,1.39279 1.036857,1.85239 0.595156,0.38996 1.036858,1.07511 1.036858,1.60832 0,0.55801 0.372634,1.10262 0.933171,1.36385 1.075438,0.5012 1.555287,0.366 1.555287,-0.43823 z M 48.901844,60.91039 c -0.0338,-0.076 -0.113942,-1.44469 -0.17807,-3.04145 -0.06413,-1.596758 -0.244872,-3.323125 -0.401649,-3.83637 -0.186672,-0.611123 -0.111616,-0.933171 0.217483,-0.933171 0.307158,0 0.08411,-0.71398 -0.573743,-1.836511 -1.215242,-2.073656 -1.36951,-3.140403 -0.454152,-3.140403 0.342163,0 0.622115,0.186634 0.622115,0.414742 0,0.228109 0.180778,0.414743 0.401728,0.414743 0.635543,0 0.01066,-1.189082 -0.752128,-1.431177 -1.079941,-0.342761 -1.897532,-1.882533 -1.303077,-2.454092 0.366882,-0.352748 0.645821,-0.237431 1.121498,0.463641 0.926557,1.365601 1.297946,1.15186 1.441302,-0.829486 0.08926,-1.23363 0.314251,-1.762657 0.74965,-1.762657 0.499636,0 0.595127,0.494863 0.485033,2.513643 -0.10408,1.908436 0.02074,2.644628 0.518429,3.057669 0.569176,0.472375 0.655509,0.400779 0.655509,-0.543615 0,-0.690296 0.227275,-1.08764 0.622114,-1.08764 0.349471,0 0.622115,0.370404 0.622115,0.845183 0,0.672161 0.230468,0.820744 1.125803,0.7258 0.828262,-0.08783 1.168156,0.08811 1.286059,0.665729 0.126132,0.617913 -0.02206,0.737438 -0.69581,0.561243 -0.470837,-0.123125 -1.059091,0.02078 -1.307228,0.31975 -0.345841,0.416709 0.05976,1.033518 1.737462,2.642219 1.477119,1.416372 2.052106,2.235124 1.768687,2.518543 -0.283418,0.283418 -1.08916,-0.194482 -2.478511,-1.470044 -1.132219,-1.039487 -2.058577,-2.047901 -2.058577,-2.240922 0,-0.666148 -0.562478,-0.909639 -1.450339,-0.627842 -0.594306,0.188621 -0.807069,0.500744 -0.639322,0.937879 0.138276,0.360345 0.02381,0.795846 -0.254395,0.967777 -0.369002,0.228059 -0.383502,0.461377 -0.05361,0.862645 0.400309,0.486925 0.762645,2.694427 0.532774,3.245864 -0.04755,0.11406 -0.11398,1.0317 -0.147636,2.03921 -0.03505,1.04868 -0.282825,1.90569 -0.579615,2.00459 -0.285138,0.095 -0.54609,0.11055 -0.5799,0.0345 z m 8.172087,-4.04088 c -0.128255,-0.20752 -0.117476,-0.678871 0.02397,-1.04744 0.19911,-0.518869 0.38664,-0.562661 0.83083,-0.194017 0.315524,0.26186 0.57368,0.733211 0.57368,1.047437 0,0.63727 -1.065117,0.78194 -1.42847,0.19402 z M 41.186885,56.555588 c -0.933695,-0.373476 -0.592058,-1.450621 0.414742,-1.307634 0.513245,0.07289 0.933172,0.396929 0.933172,0.720084 0,0.65573 -0.563453,0.901332 -1.347914,0.58755 z m 1.140542,-2.21196 c 0,-1.008809 1.448498,-1.146706 1.82197,-0.17345 0.371373,0.967777 0.343847,1.002935 -0.785112,1.002935 -0.760361,0 -1.036858,-0.221195 -1.036858,-0.829485 z m 1.820029,-0.904426 c -0.176734,-0.285961 0.0719,-0.738363 0.597636,-1.087443 0.495153,-0.328771 0.900278,-0.854951 0.900278,-1.169289 0,-0.789368 1.098223,-0.720744 1.408575,0.08801 0.333988,0.870363 -0.101799,1.526922 -0.828412,1.248094 -0.375976,-0.144276 -0.580163,0.06472 -0.580163,0.593838 0,0.891133 -1.012603,1.112041 -1.497914,0.326788 z m -6.058303,-3.700344 c -0.934394,-0.522912 -0.477526,-1.612976 0.650554,-1.552191 0.490541,0.02643 1.188599,-0.07901 1.551246,-0.234308 0.766299,-0.328167 1.833014,0.736958 1.415161,1.413056 -0.152887,0.247382 -0.644498,0.333453 -1.092462,0.191275 -0.447968,-0.142178 -1.040797,-0.07069 -1.317398,0.158872 -0.322881,0.267965 -0.755002,0.276305 -1.207101,0.02331 z m 17.847122,-0.258356 c -0.661088,-0.796566 -0.15893,-1.086392 2.117216,-1.221977 1.40887,-0.08392 2.176019,0.06844 2.537476,0.503972 0.284953,0.343343 0.382667,0.759728 0.217151,0.925298 -0.535362,0.535524 -4.39153,0.371443 -4.871843,-0.207293 z m 6.160565,0.4392 c -0.336041,-0.336037 -0.370075,-1.797217 -0.04186,-1.797217 0.774516,0 1.775191,0.928128 1.571888,1.457924 -0.245598,0.640027 -1.050751,0.818574 -1.530028,0.339293 z M 42.994881,49.284279 c -1.139912,-0.637928 -0.737159,-1.162079 0.887832,-1.155444 1.758601,0.0072 2.828775,0.519468 2.4307,1.163564 -0.321143,0.519619 -2.384539,0.514568 -3.318532,-0.0081 z m 10.336763,-1.969388 c -0.364659,-0.590029 0.100364,-1.266121 0.870844,-1.266121 0.363377,0 0.571536,0.291382 0.49395,0.691432 -0.16155,0.832996 -0.989643,1.181692 -1.364794,0.574689 z m 2.163871,-0.900728 c -1.048039,-0.587135 -0.952233,-1.765579 0.120723,-1.484994 0.671486,0.175597 0.797319,0.06633 0.608544,-0.52844 -0.179069,-0.564198 0.07803,-0.859973 1.038604,-1.194829 1.649196,-0.574913 2.110825,0.313236 0.860413,1.655395 -0.476096,0.511027 -0.872242,0.753973 -0.880325,0.539879 -0.0081,-0.214093 -0.241372,0.01773 -0.518429,0.515169 -0.392301,0.70436 -0.664285,0.814483 -1.22953,0.49782 z m -12.13123,-3.032325 c -0.996101,-0.803654 -1.141389,-1.108721 -0.728534,-1.529755 0.415013,-0.423236 0.759146,-0.292673 1.762658,0.668753 2.077977,1.99083 1.235585,2.692198 -1.034124,0.861002 z m 5.991126,-1.376811 c -0.210652,-2.893868 -0.177149,-3.920264 0.134258,-4.112722 0.650487,-0.402024 1.121892,0.455723 1.359146,2.473041 0.207537,1.764625 0.14832,1.950738 -0.620667,1.950738 -0.467548,0 -0.86028,-0.139975 -0.872737,-0.311057 z M 31.548271,57.45921 c -0.721838,-0.869762 -3.319987,-2.426458 -3.593424,-2.153022 -0.188433,0.188434 3.457089,2.737042 3.951106,2.762242 0.08496,0.004 -0.076,-0.26981 -0.357682,-0.60922 z m 2.341594,-0.827073 c -0.477135,-1.024552 -1.436809,-1.676731 -1.853758,-1.259781 -0.247606,0.247605 1.562592,2.289214 2.029738,2.289214 0.166884,0 0.08769,-0.46325 -0.17598,-1.029433 z m 40.961102,-1.315498 c 0.847038,-0.62313 0.843774,-0.629405 -0.173594,-0.333913 -1.8569,0.539327 -2.9032,0.994126 -2.9032,1.261942 0,0.413792 2.123425,-0.226678 3.076794,-0.928029 z M 26.967129,54.600212 c -0.707812,-0.667715 -5.001926,-2.107764 -8.280045,-2.776745 -1.254598,-0.256033 -2.694447,-0.726907 -3.199666,-1.046392 -1.267568,-0.801565 -1.362506,-0.754326 -1.362506,0.677943 0,1.077564 0.106102,1.202037 0.736874,0.864461 0.504913,-0.270221 1.777847,-0.137931 4.043743,0.420255 1.818778,0.448042 3.767658,0.90995 4.330844,1.026464 0.563186,0.116513 1.216406,0.367333 1.4516,0.557377 0.39578,0.319804 1.534889,0.686947 2.486528,0.801428 0.219961,0.02646 0.126644,-0.209694 -0.207372,-0.524791 z m 52.89453,-0.619555 c 0.912434,-0.233085 2.326425,-0.529092 3.142203,-0.657799 0.815775,-0.128707 1.842263,-0.526823 2.281086,-0.884709 0.78306,-0.638629 0.782475,-0.64519 -0.03165,-0.353771 -0.456217,0.163309 -1.576023,0.45168 -2.488457,0.640827 -0.912434,0.189148 -2.732119,0.568559 -4.043743,0.84314 -1.311624,0.27458 -2.384771,0.67642 -2.384771,0.892978 0,0.388718 0.261644,0.353042 3.525314,-0.480666 z M 11.411372,49.810115 c 0.362629,-0.586749 -0.172147,-0.759191 -2.8501608,-0.919067 -1.6506517,-0.09854 -2.5075685,0.01611 -2.6195367,0.350467 -0.1130879,0.337708 0.6064205,0.545117 2.2457622,0.647376 1.3266877,0.08276 2.5411213,0.185755 2.6987403,0.228888 0.15762,0.04313 0.393957,-0.09532 0.525195,-0.307664 z m 78.196744,-0.443402 c 0,-0.228108 -0.186634,-0.414743 -0.414743,-0.414743 -0.228109,0 -0.414743,0.186635 -0.414743,0.414743 0,0.228109 0.186634,0.414743 0.414743,0.414743 0.228109,0 0.414743,-0.186634 0.414743,-0.414743 z M 11.680958,44.88417 c 0.08271,-1.526501 0.153194,-8.654437 0.156627,-15.839857 l 0.0062,-13.064401 H 9.770112 7.6963977 l -0.052892,1.658972 c -0.029073,0.912434 -0.2571862,5.671609 -0.506878,10.575943 -0.2496918,4.904334 -0.5058411,11.2499 -0.5692221,14.101257 l -0.1152363,5.184286 2.0737143,0.216755 c 1.1405429,0.119215 2.2831844,0.155048 2.5392014,0.07963 0.263437,-0.0776 0.530764,-1.341843 0.615873,-2.912583 z M 92.9818,47.189313 c 0.160742,-2.690904 0.215243,-4.415663 0.337468,-10.679629 0.07344,-3.763791 0.108327,-9.700696 0.07753,-13.193122 l -0.05599,-6.349865 -1.555286,0.128722 c -1.555273,0.128721 -1.55529,0.128742 -1.82542,2.409808 -0.333698,2.817788 -0.79512,12.81514 -0.708269,15.345486 0.09841,2.867012 -0.03824,7.374615 -0.317473,10.472257 l -0.252355,2.799515 h 2.122028 c 1.907614,0 2.127664,-0.09429 2.177773,-0.933172 z m -7.10637,-0.09067 c 0,-0.385357 -0.241297,-0.516504 -0.65689,-0.357026 -0.528889,0.202954 -0.549091,0.320403 -0.103686,0.602747 0.736633,0.466951 0.760576,0.459217 0.760576,-0.245721 z M 21.175541,45.486754 c 0.570271,-0.101877 1.934543,-0.305301 3.031713,-0.452053 2.204472,-0.294858 7.064936,-2.612539 9.580543,-4.56842 4.706204,-3.659068 7.879961,-7.156214 10.881741,-11.990541 1.176273,-1.894376 3.139865,-6.833214 2.946906,-7.412086 -0.08378,-0.251341 -0.389584,0.181705 -0.679569,0.962323 -0.847626,2.281748 -2.652757,5.860917 -3.776424,7.487792 -0.572217,0.828472 -1.320346,1.922481 -1.662509,2.43113 -2.871568,4.268788 -9.224276,9.298297 -13.532384,10.713737 -5.289709,1.737949 -11.390654,2.791211 -12.555828,2.167629 -0.902405,-0.482953 -1.322494,-0.187747 -0.98487,0.692087 0.197211,0.513923 0.756391,0.587741 2.97831,0.393175 1.504532,-0.131748 3.202099,-0.322895 3.772371,-0.424773 z m 64.934949,-3.85159 c 0.102615,-2.248742 0.266737,-4.461891 0.364716,-4.918108 0.09798,-0.456217 0.309452,-4.982099 0.469937,-10.057515 l 0.291797,-9.228029 -9.701412,-0.08098 c -5.335775,-0.04454 -10.354633,-0.111865 -11.153013,-0.149617 -0.79838,-0.03775 -4.157797,-0.14129 -7.465371,-0.230081 l -6.013772,-0.16144 0.09193,1.214094 c 0.309751,4.090831 4.31192,12.529399 7.529864,15.876708 0.484241,0.503706 0.880437,1.081854 0.880437,1.284774 0,0.518143 4.576103,4.56929 6.26839,5.5493 l 1.404353,0.813266 -1.399803,-1.171014 c -0.769887,-0.644057 -2.169644,-2.002884 -3.110571,-3.019617 -0.940923,-1.016731 -2.330619,-2.463147 -3.088213,-3.214257 -0.757594,-0.751109 -1.22418,-1.368512 -1.036857,-1.372004 0.187323,-0.0035 0.153952,-0.143469 -0.07416,-0.311058 -0.978354,-0.718783 -2.838828,-3.931252 -5.114871,-8.831801 -1.068593,-2.300792 -1.4928,-4.705566 -0.988904,-5.605976 0.282788,-0.505313 0.55121,-0.02772 1.103332,1.963107 2.781249,10.028555 11.526725,19.755921 21.455275,23.864148 1.442836,0.597015 3.043267,1.058322 3.556511,1.025124 0.513244,-0.0332 0.933172,0.08931 0.933172,0.272239 0,0.182928 0.881726,0.378239 1.959394,0.434024 1.077664,0.05578 2.041941,0.183976 2.142836,0.28487 0.400343,0.40034 0.515757,-0.30215 0.695001,-4.230161 z m -8.202594,-5.519965 c -0.609278,-0.479259 -1.224707,-1.239781 -1.367615,-1.690048 -0.33602,-1.058709 -1.107873,-1.044064 -1.781005,0.03379 -0.423519,0.678159 -0.882531,0.826562 -2.244933,0.7258 -1.461956,-0.108121 -1.769479,-0.298431 -2.101518,-1.300522 -0.333022,-1.005036 -0.223592,-1.346477 0.760866,-2.374027 l 1.149825,-1.20016 -1.104157,-1.104158 c -1.585649,-1.585649 -1.444894,-3.390853 0.315208,-4.042586 0.589051,-0.218114 1.192096,0.09035 2.309222,1.181197 1.495837,1.460644 1.52761,1.469873 2.976344,0.864553 1.295806,-0.541423 1.567073,-0.539913 2.356632,0.01311 1.196906,0.838346 1.188599,2.768455 -0.01535,3.567851 l -0.907619,0.602636 0.840132,1.210608 c 1.287943,1.855901 1.412415,2.542446 0.635009,3.502503 l -0.713254,0.88083 -1.107783,-0.871381 z m 0.1347,-2.750176 c -0.482221,-0.613047 -0.876766,-0.944355 -0.876766,-0.736239 0,0.569933 1.29749,2.306913 1.541184,2.063219 0.116796,-0.116793 -0.182192,-0.713934 -0.664418,-1.32698 z m -3.779966,-0.588025 0.956405,-0.829485 h -1.22474 c -1.173548,0 -2.220122,0.625637 -2.220122,1.327177 0,0.634323 1.53787,0.326749 2.488457,-0.497692 z m 1.4516,-1.658971 c 0.140979,-0.228109 0.07125,-0.414743 -0.154948,-0.414743 -0.226197,0 -0.516674,-0.32661 -0.645506,-0.7258 -0.41072,-1.272647 -2.786363,-3.526025 -3.239556,-3.072831 -0.425796,0.425795 1.803671,2.969145 2.60271,2.969145 0.369461,0 0.568268,0.596086 0.449557,1.347915 -0.07239,0.458432 0.689783,0.378425 0.987743,-0.103686 z m 2.695828,-1.866343 c 0.435671,-0.524949 0.353366,-0.622114 -0.526959,-0.622114 -0.573797,0 -1.150692,0.279951 -1.281995,0.622114 -0.159075,0.414547 0.01676,0.622114 0.526959,0.622114 0.421126,0 0.998025,-0.279951 1.281995,-0.622114 z M 23.38437,42.565954 c 1.06623,-0.320888 1.9386,-0.471054 1.9386,-0.333702 0,0.137351 0.223961,0.02577 0.497691,-0.247962 0.273731,-0.27373 0.739036,-0.497691 1.034012,-0.497691 0.801676,0 3.859954,-1.391937 3.859954,-1.75681 0,-0.174297 0.279952,-0.316905 0.622114,-0.316905 0.342163,0 0.622115,-0.174057 0.622115,-0.386794 0,-0.212737 0.338367,-0.494188 0.751927,-0.625447 1.051175,-0.333629 5.306666,-4.550921 7.573741,-7.505755 2.422571,-3.157501 5.243843,-8.951485 5.596474,-11.493347 0.150311,-1.083516 0.11213,-1.976042 -0.08485,-1.983392 -0.196982,-0.0073 -3.997516,-0.100417 -8.445633,-0.206815 -9.78799,-0.234126 -17.234028,-0.539115 -20.377978,-0.834682 l -2.336662,-0.219671 0.0015,13.390608 c 8.3e-4,7.364836 0.09768,13.55348 0.215183,13.752545 0.28975,0.490854 6.131689,-0.01186 8.53178,-0.73418 z m -0.312861,-9.611209 c -0.812791,-0.81279 -0.850902,-2.615811 -0.06169,-2.918659 0.942294,-0.361592 1.111772,-1.370306 0.410144,-2.441125 -0.357183,-0.545131 -0.588371,-1.421866 -0.51375,-1.948298 0.116262,-0.820211 0.41033,-0.974942 2.055407,-1.081507 1.345635,-0.08717 2.120439,0.07635 2.590871,0.546782 0.694568,0.694568 2.332652,0.50634 2.332652,-0.268039 0,-0.226507 0.698327,-0.353905 1.551837,-0.283108 1.963617,0.162878 2.137139,0.917823 0.698292,3.038082 -0.879673,1.29627 -1.006278,1.764333 -0.637121,2.355447 0.64753,1.03686 0.572833,1.86142 -0.195328,2.156191 -1.042088,0.399887 -3.076651,0.292097 -3.076651,-0.162998 0,-0.668211 -0.540283,-0.484106 -1.827166,0.62262 -1.388182,1.193844 -2.401176,1.310932 -3.327495,0.384612 z m 2.868237,-2.150198 c 0.225172,-0.511912 0.645099,-0.930749 0.933171,-0.930749 0.288072,0 0.523767,-0.180777 0.523767,-0.401726 0,-0.220949 -0.32661,-0.28156 -0.7258,-0.134691 -1.397133,0.51403 -2.592143,1.46654 -2.592143,2.066128 0,0.918065 1.390581,0.470509 1.861005,-0.598962 z m 4.281183,-0.41232 c -0.07688,-0.39919 -0.414616,-0.7258 -0.75053,-0.7258 -0.335915,0 -0.673654,0.32661 -0.750531,0.7258 -0.09807,0.509242 0.125866,0.7258 0.750531,0.7258 0.624664,0 0.848601,-0.216558 0.75053,-0.7258 z m 0.182641,-2.754741 c 0.39919,-0.303029 0.7258,-0.869704 0.7258,-1.25928 0,-0.627838 -0.141927,-0.607259 -1.249105,0.181122 -0.687008,0.489193 -1.142579,1.061804 -1.01238,1.27247 0.315397,0.510324 0.665859,0.46598 1.535685,-0.194312 z m -3.006886,-0.115802 c 0,-0.606051 -1.416263,-1.795314 -2.137994,-1.795314 -0.874184,0 -1.075113,1.464797 -0.246777,1.799038 0.781513,0.315347 2.384771,0.312844 2.384771,-0.0037 z m 60.434777,12.824372 c -0.09503,-0.627299 -0.172778,-0.114054 -0.172778,1.140543 0,1.254597 0.07775,1.767841 0.172778,1.140543 0.09503,-0.627299 0.09503,-1.653788 0,-2.281086 z M 13.578743,33.52872 c -0.132397,-0.330854 -0.230673,-0.232578 -0.250574,0.250574 -0.01801,0.437208 0.08002,0.682165 0.217831,0.54435 0.137816,-0.137816 0.15255,-0.495532 0.03274,-0.794924 z m 0.02293,-6.647904 c -0.08404,-1.205217 -0.153691,-0.324961 -0.154771,1.956125 -0.0011,2.281086 0.06768,3.267172 0.152808,2.191303 0.08512,-1.075869 0.08601,-2.942212 0.002,-4.147428 z m 75.055544,-8.718668 c -0.0992,-0.515904 -0.184137,-0.19147 -0.188741,0.720964 -0.0046,0.912435 0.07657,1.334538 0.180372,0.938007 0.103806,-0.39653 0.107572,-1.143067 0.0084,-1.658971 z m -40.65072,-0.204314 c -0.105154,-0.403531 -0.198106,-0.17379 -0.206558,0.510536 -0.0085,0.684325 0.07758,1.014487 0.191192,0.733693 0.113606,-0.280795 0.12052,-0.840698 0.01535,-1.244229 z m 1.129627,-2.091121 c 1.805859,-0.0518 3.158576,-0.218979 3.006033,-0.37152 -0.152542,-0.152541 -5.269434,-0.327572 -11.37087,-0.388956 -10.298144,-0.103607 -17.601436,-0.352229 -23.432118,-0.797688 -1.558002,-0.11903 -2.384771,-0.02524 -2.384771,0.270529 0,0.248998 0.273974,0.347589 0.608832,0.219092 0.334858,-0.128497 0.719141,-0.05515 0.853963,0.162999 0.134821,0.218146 2.333751,0.420373 4.88651,0.449393 2.55276,0.02902 6.694358,0.168997 9.203553,0.311058 4.577973,0.259187 12.499682,0.320886 18.628868,0.145093 z M 59.331887,15.51682 c 0,-0.08746 -0.570919,-0.159022 -1.268707,-0.159022 -0.697788,0 -1.168828,0.161605 -1.046753,0.359122 0.206484,0.334103 2.31546,0.151847 2.31546,-0.2001 z m 5.8064,0 c 0,-0.08746 -0.699879,-0.156164 -1.555286,-0.152671 -0.991389,0.0041 -1.357599,0.13171 -1.010044,0.352104 0.504887,0.320166 2.56533,0.159983 2.56533,-0.199433 z m 9.124343,0.260007 c 0.423855,-0.276836 -0.897873,-0.395176 -4.147429,-0.371336 -2.623248,0.01924 -4.330761,0.158213 -3.79447,0.308819 1.61459,0.453424 7.275171,0.497983 7.941899,0.06252 z m 7.465371,-0.01311 c 0,-0.441594 -6.162004,-0.42239 -6.435453,0.02006 -0.09478,0.153349 1.314432,0.300511 3.131566,0.327027 1.851458,0.02702 3.303887,-0.125567 3.303887,-0.347086 z M 7.4890263,14.272569 c 0,-0.08745 -0.4776014,-0.159 -1.0613353,-0.159 -0.583734,0 -0.956816,0.169113 -0.829071,0.375807 0.2124852,0.343812 1.8904063,0.151374 1.8904063,-0.216807 z M 87.285556,13.180398 c -0.02281,-0.627299 -0.06947,-1.400235 -0.103686,-1.717636 -0.05125,-0.475442 -1.760708,-0.572618 -9.704983,-0.55169 -5.303524,0.01397 -13.142165,-0.122149 -17.4192,-0.302489 l -7.776429,-0.327892 -0.0056,0.983268 c -0.0033,0.540797 -0.114995,1.39093 -0.248617,1.889184 -0.23946,0.892887 -0.172819,0.90625 4.632877,0.929091 2.681706,0.01275 4.925299,0.07167 4.985761,0.13094 0.06044,0.05927 5.863493,0.107767 12.895649,0.107767 h 12.785743 z m 1.878665,1.036857 c -0.01601,-0.171081 -0.189546,-0.684326 -0.385591,-1.140543 -0.315851,-0.735028 -0.35976,-0.699606 -0.38559,0.311057 -0.01605,0.627299 0.157482,1.140543 0.38559,1.140543 0.228109,0 0.401625,-0.139975 0.385591,-0.311057 z M 50.829658,11.901608 c 0,-2.085126 -0.805244,-1.9416 -0.930198,0.165797 -0.07129,1.202315 0.04988,1.648364 0.414743,1.526744 0.28582,-0.09527 0.515455,-0.849304 0.515455,-1.692541 z M 74.677373,9.528144 c 0,-0.146168 -1.353099,-0.277649 -3.006886,-0.29218 -1.957404,-0.0172 -2.572617,0.07237 -1.762657,0.25663 1.585582,0.360704 4.769543,0.384435 4.769543,0.03555 z m 1.658971,0.255102 c 0,-0.100592 -0.186634,-0.298241 -0.414743,-0.43922 -0.228108,-0.140979 -0.414743,-0.05868 -0.414743,0.182895 0,0.241571 0.186635,0.43922 0.414743,0.43922 0.228109,0 0.414743,-0.0823 0.414743,-0.182895 z M 68.411483,9.368403 C 68.280138,9.237059 64.836018,9.023519 60.757885,8.893869 56.679751,8.764219 53.1975,8.568158 53.019546,8.458179 c -0.17795,-0.10998 -0.323545,0.05597 -0.323545,0.368786 0,0.458458 1.546916,0.589255 7.977143,0.674497 4.387428,0.05816 7.869684,-0.0017 7.738339,-0.133059 z M 90.437602,91.84991 c 0,-0.46133 0.240832,-0.57363 0.829485,-0.3868 0.954162,0.30284 1.146117,-0.41186 0.207372,-0.77209 -0.342163,-0.1313 -0.622115,-0.63783 -0.622115,-1.1256 0,-0.63833 0.18386,-0.81633 0.656037,-0.63514 0.360818,0.13846 0.734086,0.25175 0.829485,0.25175 0.0954,0 0.17345,0.27995 0.17345,0.62211 0,0.34216 0.266265,0.62212 0.591705,0.62212 0.325437,0 0.656422,0.32661 0.73553,0.7258 0.10257,0.51761 0.235139,0.58055 0.462177,0.21943 0.194299,-0.30906 -0.09231,-0.86344 -0.73553,-1.42271 -1.180474,-1.02641 -1.443753,-2.24933 -0.397846,-1.84798 0.360818,0.13846 0.734087,0.25174 0.829486,0.25174 0.09539,0 0.173449,0.27995 0.173449,0.62212 0,0.34216 0.180953,0.62211 0.402114,0.62211 0.221162,0 0.377557,0.65322 0.347542,1.4516 l -0.05457,1.4516 h -2.213885 c -1.733704,0 -2.213885,-0.141 -2.213885,-0.65006 z M 5.438467,91.07627 C 5.0172998,90.56879 4.9908143,90.27011 5.3363449,89.92458 c 0.3455264,-0.34552 0.533969,-0.29073 0.7266087,0.21127 0.4240912,1.10517 0.018788,1.71552 -0.6244866,0.94042 z M 93.747225,10.992975 c -0.288545,-0.347675 -0.412761,-0.744 -0.276041,-0.880722 0.424722,-0.424721 1.528589,0.20913 1.528589,0.877728 0,0.812323 -0.579715,0.813709 -1.252548,0.003 z M 5.2657888,10.507856 C 4.7987137,10.040779 4.9813208,9.551398 5.6226833,9.551398 c 0.3421629,0 0.6221143,0.175619 0.6221143,0.390266 0,0.522982 -0.6476583,0.897543 -0.9790088,0.566192 z M 6.8382532,9.505028 C 6.6815136,9.251416 6.8104652,8.878148 7.1248322,8.675543 7.6042833,8.366536 7.5961378,8.241353 7.0742832,7.898777 6.584252,7.577092 6.6875728,7.489037 7.5609217,7.484035 8.6546235,7.477735 8.6612511,7.494575 8.0489746,8.721912 7.3608041,10.101387 7.2507977,10.17254 6.8382532,9.505028 Z M 92.796452,9.283543 c -0.569791,-0.569791 -0.274245,-1.44984 0.440664,-1.312162 0.39919,0.07688 0.7258,0.401619 0.7258,0.721649 0,0.654818 -0.731727,1.02525 -1.166464,0.590513 z M 5.000569,8.099798 c 0,-0.805102 0.670519,-0.805102 0.9794692,0 0.1454172,0.378955 8.295e-4,0.622114 -0.3703736,0.622114 -0.3350003,0 -0.6090956,-0.279951 -0.6090956,-0.622114 z m 89.37709,-0.207372 c -0.14098,-0.228108 -0.05868,-0.414742 0.182893,-0.414742 0.241571,0 0.439221,0.186634 0.439221,0.414742 0,0.228109 -0.0823,0.414743 -0.182893,0.414743 -0.100592,0 -0.298242,-0.186634 -0.439221,-0.414743 z"
     style="fill:#000000;stroke-width:0.41474286" />
</svg>
