<?xml version="1.0" encoding="UTF-8" standalone="no"?>
<svg
   xmlns:dc="http://purl.org/dc/elements/1.1/"
   xmlns:cc="http://creativecommons.org/ns#"
   xmlns:rdf="http://www.w3.org/1999/02/22-rdf-syntax-ns#"
   xmlns:svg="http://www.w3.org/2000/svg"
   xmlns="http://www.w3.org/2000/svg"
   id="svgK5"
   version="1.1"
   viewBox="0 0 100 100"
   height="100"
   width="100">
  <defs
     id="defs2" />
  <metadata
     id="metadata5">
    <rdf:RDF>
      <cc:Work
         rdf:about="">
        <dc:format>image/svg+xml</dc:format>
        <dc:type
           rdf:resource="http://purl.org/dc/dcmitype/StillImage" />
        <dc:title></dc:title>
      </cc:Work>
    </rdf:RDF>
  </metadata>
  <path
     id="pathK5"
     d="m 6.0115378,94.468245 c 0,-0.61082 1.3334554,-1.3022 3.1258747,-1.62072 2.9971545,-0.5326 9.0278025,-2.87713 9.2700625,-3.60391 0.09334,-0.28001 0.426229,-0.41575 0.739762,-0.30165 0.842622,0.30664 5.356569,-2.47456 4.687449,-2.88809 -0.304009,-0.1879 -0.813772,-0.13571 -1.132807,0.11596 -0.319035,0.25166 -2.094911,1.05211 -3.94639,1.77879 -1.85148,0.72666 -3.627356,1.53184 -3.946391,1.78929 -0.319035,0.25744 -0.80595,0.32847 -1.082033,0.15784 -0.276084,-0.17063 -0.50197,-0.0852 -0.50197,0.18989 0,0.27507 -0.525358,0.63198 -1.167462,0.79314 -0.642105,0.16116 -1.265169,0.54763 -1.384588,0.85883 -0.137548,0.35845 -1.031551,0.50105 -2.4393156,0.38908 l -2.2221916,-0.17674 v -6.16346 c 0,-5.27234 0.1498756,-6.49948 1.0366329,-8.48761 0.570148,-1.27829 1.0912981,-2.54057 1.1581111,-2.80507 0.4530455,-1.79349 1.8832052,-4.25749 3.4382822,-5.92374 1.001541,-1.07315 2.632508,-2.84407 3.624372,-3.93538 0.991864,-1.09132 1.803389,-1.86224 1.803389,-1.71316 0,0.14908 0.400749,-0.10767 0.890552,-0.57054 2.202535,-2.08141 4.040329,-3.45996 5.020132,-3.76564 0.584332,-0.18229 1.170625,-0.47469 1.302873,-0.64977 0.238881,-0.31624 6.094624,-3.16769 7.934913,-3.8639 0.528994,-0.20013 1.720098,-0.68958 2.646898,-1.08768 0.926799,-0.39811 2.385064,-0.877565 3.240586,-1.065469 0.855522,-0.187904 1.678953,-0.541401 1.829842,-0.785549 0.150892,-0.244147 1.127205,-0.443904 2.169586,-0.443904 1.064998,0 1.895232,-0.233205 1.895232,-0.532356 0,-0.292795 -0.32461,-0.40779 -0.721355,-0.255544 -0.396748,0.152245 -0.721357,0.103263 -0.721357,-0.10885 0,-0.212114 -0.270508,-0.397846 -0.601131,-0.412738 -3.689652,-0.166201 -7.805476,-0.949069 -9.872779,-1.877893 -1.396448,-0.627415 -2.922115,-1.140754 -3.390371,-1.140754 -0.468257,0 -1.056962,-0.196468 -1.308234,-0.436596 -0.251273,-0.240129 -1.498771,-1.012312 -2.772219,-1.715962 -1.273449,-0.70365 -3.221109,-1.899114 -4.328134,-2.656588 -2.35007,-1.608016 -2.986215,-1.026083 -0.944858,0.864339 3.752357,3.474915 6.162514,4.906615 8.259912,4.906615 0.518596,0 1.267513,0.32461 1.664259,0.721356 0.396745,0.396745 1.076881,0.721356 1.511411,0.721356 0.8876,0 2.164068,1.108972 2.164068,1.880102 0,0.278351 -0.595119,0.642192 -1.322486,0.808535 -4.190089,0.958244 -14.346821,7.25559 -19.129939,11.86089 -1.711524,1.64789 -3.1118616,3.23059 -3.1118616,3.51711 0,0.28653 -0.5410167,1.02921 -1.2022594,1.65042 -0.6612428,0.62121 -1.2022596,1.40358 -1.2022596,1.73861 0,0.33502 -0.1939033,0.72898 -0.4308965,0.87545 C 5.9666099,71.452475 5.999949,48.211002 6.5763189,47.485796 6.8495035,47.142067 6.8407857,46.816689 6.5536389,46.63922 6.2953479,46.479588 6.067765,43.592808 6.043613,40.169791 L 6,33.988619 7.2498718,34.227548 c 1.092929,0.208926 1.2295216,0.09502 1.087804,-0.907167 C 8.2303549,32.561442 7.8100926,32.122375 7.0935743,32.020613 6.269537,31.903581 6.0115407,31.550031 6.0115407,30.537826 c 0,-1.684578 0.4365222,-2.124165 1.3554976,-1.365017 0.6363478,0.525677 0.6436046,0.470045 0.060774,-0.465892 -0.3711376,-0.59599 -0.7933898,-0.850037 -0.961294,-0.578363 -0.1646865,0.26647 -0.3122057,-0.871765 -0.3278197,-2.529406 -0.025387,-2.694919 0.042728,-2.916634 0.643582,-2.09492 0.3695847,0.505436 0.6719717,1.09402 0.6719717,1.307965 0,0.213944 0.2019224,0.388987 0.4487165,0.388987 0.5843558,0 0.280554,-3.199863 -0.6058922,-6.381697 C 6.9117053,17.436221 6.463854,13.761682 6.3018515,10.653841 l -0.2945502,-5.6506206 2.2864129,-0.0032 c 7.9532918,-0.01106 21.1748248,3.610726 24.5200968,6.7168046 1.008674,0.936551 2.581928,1.660766 3.254218,1.49801 0.264496,-0.06403 0.33315,0.03133 0.152562,0.21192 -0.180592,0.180589 0.252222,0.904627 0.961805,1.608971 2.621822,2.602471 5.378145,6.237468 5.38853,7.106296 0.0059,0.492289 0.43388,1.436087 0.951111,2.097328 0.517232,0.661244 0.945232,1.67114 0.951114,2.244217 0.0059,0.573077 0.208788,1.114094 0.450908,1.202261 0.574604,0.209238 1.43134,6.95185 1.624375,12.78403 0.05471,1.653109 0.217736,3.005651 0.362278,3.005648 0.653799,-1.1e-5 0.129646,2.521847 -0.610185,2.935795 -0.667157,0.373286 -0.88683,0.230197 -1.129215,-0.735549 -0.425312,-1.694578 -1.494578,-2.514032 -1.445919,-1.108111 0.03568,1.031604 -0.134768,1.074399 -4.531489,1.137614 -2.687889,0.03864 -4.836018,-0.150646 -5.218231,-0.459826 -0.357304,-0.289031 -0.898321,-0.569231 -1.202259,-0.622667 -0.303939,-0.05344 -1.418242,-0.479894 -2.476231,-0.947686 -1.057988,-0.467791 -2.220427,-0.905184 -2.583196,-0.971982 -0.362769,-0.0668 -1.240237,-0.677758 -1.949929,-1.357686 -0.709692,-0.679903 -1.504281,-1.236208 -1.765753,-1.236208 -0.661036,0 -5.961941,-4.535587 -6.62403,-5.667686 -0.298319,-0.510093 -1.164861,-1.863027 -1.92565,-3.006521 -1.574922,-2.367171 -2.553686,-4.54443 -2.899031,-6.448892 -0.130752,-0.721054 -0.491564,-1.616856 -0.801805,-1.990673 -0.310241,-0.373819 -0.452163,-0.679669 -0.315383,-0.679669 0.136781,0 0.05505,-0.811525 -0.181629,-1.803389 -0.609661,-2.554965 -1.076319,-9.495459 -0.730964,-10.8714616 0.284524,-1.133634 2.457095,-2.061998 2.951903,-1.261383 0.123015,0.199044 1.037578,0.512004 2.032363,0.695471 0.994786,0.183467 3.142748,0.761807 4.773251,1.2851996 1.630501,0.523394 3.511257,1.009915 4.179457,1.081156 0.668199,0.07124 1.573427,0.427075 2.011617,0.790742 0.43819,0.363665 1.254633,0.731094 1.814318,0.816507 0.559684,0.08541 1.472254,0.582417 2.027933,1.10445 0.555679,0.522034 1.397951,0.94915 1.871717,0.94915 0.473765,0 1.457645,0.486916 2.1864,1.082035 0.728755,0.595119 1.776333,1.391962 2.327957,1.770761 0.551622,0.378801 0.901785,0.852416 0.77814,1.052478 -0.123645,0.200062 0.0506,0.539353 0.38722,0.753983 0.336614,0.21463 0.936284,1.039456 1.332598,1.832946 0.396314,0.793491 0.993069,1.730666 1.326123,2.082612 0.333053,0.351944 0.482585,0.838859 0.332296,1.082032 -0.150289,0.243174 -0.04407,0.442135 0.236032,0.442135 0.280106,0 0.509286,0.324609 0.509286,0.721355 0,0.396745 0.216405,0.721357 0.480901,0.721357 0.562274,0 0.644163,-1.11915 0.120227,-1.643089 -0.198371,-0.198374 -0.361013,-0.504949 -0.361424,-0.681281 -5.29e-4,-0.176331 -0.487325,-1.003228 -1.082034,-1.83755 -0.594707,-0.834323 -1.081286,-1.679606 -1.081286,-1.878409 0,-0.1988 -0.865627,-1.209984 -1.923616,-2.247074 -1.057987,-1.037088 -1.923616,-2.085364 -1.923616,-2.3295 0,-0.244137 -0.270508,-0.449898 -0.601128,-0.457245 -0.330622,-0.0074 -1.189118,-0.613368 -1.90777,-1.346714 C 30.873534,11.727894 21.774607,8.4138024 14.186906,7.2546924 6.8394162,6.1322764 7.2858935,5.9800594 7.6677326,9.4772554 c 0.178951,1.6389876 0.4395735,4.1702136 0.5791602,5.6249456 0.1395866,1.454735 0.4511599,2.850558 0.6923846,3.10183 0.2412247,0.251272 0.4411455,1.008697 0.4442685,1.683165 0.010022,2.164551 1.7965071,8.601289 2.7713221,9.985126 0.519225,0.737087 1.104029,1.854818 1.299566,2.483848 0.536019,1.724344 8.344615,9.197756 9.606778,9.194406 0.276825,-7.15e-4 1.368945,0.41802 2.426933,0.930564 5.085932,2.463893 7.539004,3.474213 7.800509,3.212708 0.157498,-0.157498 0.5945,-0.03063 0.971115,0.281934 0.376614,0.312562 1.964224,0.581193 3.528023,0.596957 1.937157,0.01953 2.844154,0.220234 2.846046,0.629792 0.0019,0.406251 0.843565,0.60113 2.596295,0.60113 1.977334,0 2.666616,0.190491 2.901188,0.801771 0.16922,0.440975 0.0917,1.017742 -0.172265,1.281706 -0.31931,0.31931 -0.227108,0.664806 0.275492,1.032317 0.542137,0.396418 0.746149,1.329229 0.722561,3.30377 -0.01807,1.51327 -0.185888,2.99899 -0.372917,3.30161 -0.187034,0.30263 -0.38377,1.32295 -0.4372,2.26741 -0.05343,0.94444 -0.341286,2.32638 -0.639693,3.07097 -0.2984,0.74458 -0.54255,1.62103 -0.54255,1.94766 0,0.32662 -0.189806,0.79945 -0.42179,1.05072 -0.231985,0.25128 -0.790396,1.593 -1.24091,2.98161 -0.450511,1.38861 -1.018132,2.52474 -1.261374,2.52474 -0.243234,0 -0.442251,0.2954 -0.442251,0.65645 0,0.83601 -3.089108,5.38203 -5.311145,7.81604 -2.922802,3.20161 -8.358146,7.16556 -12.722749,9.27857 -5.125752,2.48151 -8.428437,3.88961 -9.123042,3.88961 -0.373298,0 -0.81247,0.21641 -0.975938,0.48091 -0.163468,0.26449 -0.946435,0.4809 -1.739926,0.4809 -0.839348,0 -1.318412,0.20112 -1.145497,0.4809 0.183183,0.2964 -0.6362108,0.48091 -2.1356852,0.48091 -1.3380951,0 -2.4329005,-0.2088 -2.4329005,-0.46399 z m 5.8301002,-5.59562 c 0.693834,-0.34909 1.431851,-0.48101 1.640039,-0.29319 0.208188,0.18783 0.233736,0.0886 0.05678,-0.2205 -0.204233,-0.35673 0.230454,-0.68329 1.190135,-0.89406 0.831537,-0.18264 2.581107,-0.86911 3.887934,-1.52549 1.306827,-0.65638 2.490883,-1.07859 2.631237,-0.93823 0.264738,0.26473 0.457461,0.13218 2.702224,-1.85854 0.740994,-0.65713 1.552519,-1.19479 1.803389,-1.19479 0.250869,0 0.56433,0 0.696579,0 0.340324,0 5.624116,-5.34466 6.492201,-6.56699 3.689322,-5.19486 5.681629,-8.51521 6.447627,-10.74554 0.499623,-1.45474 1.090879,-2.88129 1.313899,-3.17012 0.223023,-0.28884 0.296857,-0.63379 0.164079,-0.76657 -0.132779,-0.13278 0.08551,-1.168 0.485076,-2.30051 1.214311,-3.44172 0.805625,-6.485496 -0.742352,-5.5288 -0.336304,0.20785 -0.250245,0.70528 0.255572,1.47725 0.852969,1.3018 1.248532,0.98977 -3.595767,2.83641 -3.864509,1.47315 -8.614256,3.57335 -12.895315,5.70195 -3.143864,1.56318 -6.125859,4.29738 -5.605355,5.13957 0.163799,0.26503 0.0883,0.42241 -0.167775,0.34974 -0.661386,-0.18771 -2.74708,2.33747 -3.728786,4.51451 -0.457724,1.01505 -1.015765,1.84555 -1.240092,1.84555 -0.224327,0 -0.407867,0.22408 -0.407867,0.49795 0,0.27388 -0.97383,2.52697 -2.164067,5.00687 -1.1902368,2.47991 -2.164067,4.72696 -2.164067,4.99346 0,0.26651 -0.3617488,1.11487 -0.8038865,1.88525 -1.1028182,1.92155 -0.5891903,3.12739 1.1540042,2.70925 0.7331749,-0.17585 1.9007273,-0.60535 2.5945593,-0.95443 z m 5.109273,-8.67301 c -0.135511,-0.22872 -0.402416,-1.14278 -0.593122,-2.03126 -0.304276,-1.41757 -0.160334,-1.78565 1.175387,-3.00565 0.987864,-0.90227 2.041685,-1.39024 3.002366,-1.39024 0.845779,0 1.754066,-0.36072 2.119092,-0.84158 0.572619,-0.75433 0.640437,-0.75967 0.654146,-0.0514 0.0084,0.43457 -0.325395,0.92086 -0.741792,1.08065 -0.688848,0.26433 -0.688848,0.35876 0,1.04761 0.976133,0.97613 0.973706,3.42589 -0.0044,4.40396 -0.836793,0.83679 -5.218281,1.45202 -5.611713,0.78796 z m 3.963562,-2.33335 c 0.933264,-1.12451 0.261816,-2.23362 -1.058527,-1.74848 -1.427343,0.52445 -1.798423,2.46372 -0.471434,2.46372 0.515004,0 1.203487,-0.32186 1.529961,-0.71524 z m 7.476189,-7.92214 c -1.265501,-1.39836 -0.650572,-5.27612 0.853951,-5.38503 2.976303,-0.21546 3.914562,0.51962 4.095663,3.20871 0.183418,2.7235 -3.134258,4.18227 -4.949614,2.17632 z m 3.017227,-2.30318 c -0.08914,-0.46287 -0.480757,-0.84158 -0.870257,-0.84158 -0.389501,0 -0.781118,0.37871 -0.870258,0.84158 -0.113715,0.59047 0.145945,0.84158 0.870258,0.84158 0.724313,0 0.983973,-0.25111 0.870257,-0.84158 z m -5.679295,17.94204 c 0,-0.50758 -0.922909,-0.72083 -1.197412,-0.27668 -0.166134,0.26882 0.03532,0.48875 0.447674,0.48875 0.412356,0 0.749738,-0.0954 0.749738,-0.21207 z m 2.229551,-1.46833 c 0.151663,-0.39523 0.469481,-0.59886 0.706263,-0.45252 0.236782,0.14634 0.430512,0.0369 0.430512,-0.24322 0,-0.78943 -0.929664,-0.60437 -2.273294,0.45253 -1.18321,0.93071 -1.189061,0.9618 -0.180986,0.9618 0.572965,0 1.165843,-0.32336 1.317505,-0.71859 z m 4.213187,-3.25825 c 0.159453,0.15945 0.289915,0.001 0.289915,-0.35129 0,-0.35266 0.13168,-0.50953 0.292623,-0.34858 0.320934,0.32093 5.443198,-5.39503 5.464827,-6.09823 0.0074,-0.23953 0.518708,-1.10515 1.136312,-1.92361 1.279638,-1.6958 1.869387,-3.52935 1.256937,-3.90787 -0.228401,-0.14116 -0.778936,0.45374 -1.223409,1.32201 -1.528112,2.98511 -4.090175,6.40791 -7.768872,10.37882 -1.124112,1.21341 -2.037002,2.43485 -2.028644,2.71432 0.0084,0.27946 0.527117,-0.0732 1.152797,-0.78369 0.625679,-0.71049 1.268061,-1.16133 1.427514,-1.00188 z m -23.4633055,-0.0969 c -0.057106,-0.38909 -0.2381262,-0.84173 -0.4022669,-1.00588 -0.2311729,-0.23116 -0.1861487,0.74468 0.073503,1.59309 0.1420417,0.46412 0.4122365,-0.0185 0.3287639,-0.58721 z m 0.99835,-4.19177 c -0.1535169,-0.38363 -0.2674705,-0.26968 -0.2905462,0.29055 -0.020881,0.50695 0.09278,0.79098 0.2525803,0.63119 0.1598,-0.15981 0.1768851,-0.57459 0.037968,-0.92174 z m 1.5951035,-1.62138 c 0,-0.38113 0.216406,-0.69297 0.480903,-0.69297 0.264497,0 0.480904,-0.41478 0.480904,-0.92173 0,-0.50695 0.254722,-1.00664 0.566049,-1.11041 0.311326,-0.10378 0.404576,-0.44996 0.207222,-0.76928 -0.197354,-0.31933 -0.563372,-0.45418 -0.813372,-0.29967 -0.761184,0.47044 -2.4203195,4.06429 -2.108924,4.56814 0.386257,0.62498 1.187218,0.10275 1.187218,-0.77408 z m 30.296939,-8.1069 c 0,-0.3747 0.212685,-0.75341 0.472627,-0.84158 0.259948,-0.0882 0.553001,-0.80952 0.65123,-1.60301 0.09823,-0.7935 0.463981,-2.04371 0.812771,-2.77825 0.48509,-1.02158 0.501573,-1.46812 0.07012,-1.89957 -0.431448,-0.43145 -0.564038,-0.26688 -0.564038,0.70005 0,0.69526 -0.286933,1.55102 -0.637625,1.90172 -0.350695,0.3507 -0.768355,1.28588 -0.928132,2.07819 -0.159776,0.79231 -0.437015,1.81928 -0.616085,2.28215 -0.189857,0.49075 -0.103658,0.84158 0.206775,0.84158 0.292796,0 0.532355,-0.30658 0.532355,-0.68128 z M 9.1290256,64.360515 c 1.0320584,-0.95648 1.2040384,-1.365 0.7592038,-1.80339 -0.4426157,-0.4362 -0.7419649,-0.3452 -1.2993333,0.39502 -2.0597587,2.73549 -1.7535042,3.53404 0.5401295,1.40837 z m 4.6268904,-5.63849 c -0.617233,-0.61724 -1.243162,-0.14018 -0.786199,0.5992 0.17701,0.2864 0.542146,0.38458 0.811414,0.21816 0.328458,-0.203 0.32016,-0.47199 -0.02522,-0.81736 z m 15.098552,-0.33846 c 0.163469,-0.2645 0.06804,-0.48091 -0.21207,-0.48091 -0.280107,0 -0.509285,0.21641 -0.509285,0.48091 0,0.2645 0.09543,0.4809 0.21207,0.4809 0.116639,0 0.345817,-0.2164 0.509285,-0.4809 z m -12.743951,-1.4711 c 0,-0.24888 -0.216406,-0.45252 -0.480903,-0.45252 -0.264497,0 -0.480904,0.33739 -0.480904,0.74974 0,0.41236 0.216407,0.61599 0.480904,0.45252 0.264497,-0.16347 0.480903,-0.50085 0.480903,-0.74974 z m 15.14847,0.50927 c 0.163469,-0.2645 -0.0274,-0.4809 -0.424141,-0.4809 -0.396745,0 -0.855102,0.2164 -1.01857,0.4809 -0.163468,0.2645 0.0274,0.4809 0.424141,0.4809 0.396745,0 0.855102,-0.2164 1.01857,-0.4809 z m 3.606779,-1.44271 c 0,-0.2645 0.162305,-0.45528 0.360677,-0.42396 0.881644,0.13921 1.562938,-0.0952 1.562938,-0.53785 0,-0.72872 -1.72761,-0.57517 -2.380558,0.21159 -0.316092,0.38086 -1.045911,0.7842 -1.621822,0.89631 -0.715331,0.13925 -0.55189,0.22459 0.515828,0.26932 0.859615,0.036 1.562937,-0.15091 1.562937,-0.41541 z m -20.205324,-0.89303 c -0.02005,-0.84218 -0.795005,-1.42634 -1.397889,-1.05374 -0.882937,0.54569 -0.289639,2.01336 0.665694,1.64676 0.406758,-0.15609 0.736245,-0.42295 0.732195,-0.59302 z m 3.854595,0.17167 c 0,-0.39674 -0.324611,-0.72135 -0.721356,-0.72135 -0.750967,0 -0.954097,0.56876 -0.400753,1.12211 0.553344,0.55334 1.122109,0.35021 1.122109,-0.40076 z m 26.44971,-2.13568 c 0,-0.24889 -0.18034,-0.56398 -0.400754,-0.700203 -0.220417,-0.136224 -0.400754,0.06741 -0.400754,0.452523 0,0.38511 0.180337,0.7002 0.400754,0.7002 0.220414,0 0.400754,-0.20363 0.400754,-0.45252 z M 8.4160568,52.612695 c 0,-0.264494 -0.2291785,-0.480901 -0.5092853,-0.480901 -0.2801067,0 -0.3755387,0.216407 -0.2120704,0.480901 0.1634684,0.2645 0.3926464,0.48091 0.5092853,0.48091 0.1166389,0 0.2120704,-0.21641 0.2120704,-0.48091 z m 4.0876822,0 c -0.163468,-0.264494 -0.50085,-0.480901 -0.749737,-0.480901 -0.248887,0 -0.452522,0.216407 -0.452522,0.480901 0,0.2645 0.337381,0.48091 0.749737,0.48091 0.412355,0 0.61599,-0.21641 0.452522,-0.48091 z m 3.957438,0.19036 c -0.159801,-0.1598 -0.57458,-0.17688 -0.921733,-0.038 -0.383632,0.15352 -0.269679,0.26747 0.290546,0.29055 0.506953,0.0209 0.790987,-0.0928 0.631187,-0.25258 z m 7.83435,-0.44243 c 0.884049,-1.065214 0.380991,-1.187673 -0.610775,-0.14868 -0.462869,0.48491 -0.651673,0.88166 -0.419562,0.88166 0.232111,0 0.695763,-0.32984 1.030337,-0.73298 z M 10.229465,50.779252 c 0.104697,-0.31409 -0.152286,-0.571073 -0.5710735,-0.571073 -0.4187869,0 -0.7614309,0.342644 -0.7614309,0.761431 0,0.849241 1.03527,0.701345 1.3325044,-0.190358 z m 3.957437,-0.07508 c 0,-0.256196 -0.324609,-0.341246 -0.721355,-0.189001 -0.396746,0.152246 -0.721356,0.361861 -0.721356,0.465811 0,0.10395 0.32461,0.189001 0.721356,0.189001 0.396746,0 0.721355,-0.209615 0.721355,-0.465811 z m 14.626111,-0.428917 c 0.140667,-0.227605 0.132282,-0.537304 -0.01864,-0.688221 -0.375286,-0.375285 -1.623073,0.141793 -1.623073,0.672597 0,0.549486 1.304092,0.561898 1.641708,0.01562 z m -5.008034,-0.54798 c 0,-0.264497 -0.216407,-0.480904 -0.480904,-0.480904 -0.264497,0 -0.480904,0.216407 -0.480904,0.480904 0,0.264497 0.216407,0.480904 0.480904,0.480904 0.264497,0 0.480904,-0.216407 0.480904,-0.480904 z M 12.744191,49.00592 c 0,-0.396746 -0.32461,-0.721356 -0.721356,-0.721356 -0.750966,0 -0.954097,0.568765 -0.400753,1.122108 0.553344,0.553345 1.122109,0.350214 1.122109,-0.400752 z m 8.656269,-1.20226 c -0.941789,-0.60863 -1.578414,-0.60863 -1.20226,0 0.163468,0.264497 0.663155,0.47759 1.110415,0.473539 0.700809,-0.0063 0.713503,-0.07179 0.09184,-0.473539 z M 7.935153,44.918237 c 0,-0.264497 -0.095432,-0.480904 -0.2120704,-0.480904 -0.1166388,0 -0.3458169,0.216407 -0.5092853,0.480904 -0.1634683,0.264497 -0.068036,0.480904 0.2120704,0.480904 0.2801068,0 0.5092853,-0.216407 0.5092853,-0.480904 z M 10.7347,43.993224 c 0.244461,-0.05819 -1.2570052,-1.479506 -1.562937,-1.479506 -0.1511413,0 -0.2748024,0.413665 -0.2748024,0.919256 0,0.825025 0.3180573,0.921987 1.8377394,0.56025 z m 6.337625,-0.03679 c 0,-0.264497 -0.216407,-0.480904 -0.480903,-0.480904 -0.264498,0 -0.480905,0.216407 -0.480905,0.480904 0,0.264497 0.216407,0.480904 0.480905,0.480904 0.264496,0 0.480903,-0.216407 0.480903,-0.480904 z m -1.093802,-1.439641 c -0.07434,-0.986959 -1.090165,-1.638858 -1.83573,-1.178073 -0.241019,0.148958 -0.05918,0.776583 0.404076,1.394723 0.950601,1.268408 1.536838,1.179694 1.431654,-0.21665 z m 25.901089,-1.566677 c 0.02241,-1.521224 0.177099,-2.90222 0.343755,-3.068879 0.166664,-0.16666 0.07264,-0.733493 -0.208941,-1.259629 -0.395693,-0.739355 -0.374976,-0.871947 0.09122,-0.583821 0.39457,0.243859 0.482417,0.17738 0.253992,-0.192214 -0.192053,-0.310751 -0.446479,-1.588527 -0.565388,-2.839501 -0.235726,-2.479872 -1.44834,-5.497995 -4.136049,-10.294356 -0.733642,-1.309225 -4.290759,-5.204995 -4.752533,-5.204995 -0.174421,0 -1.806515,-0.857054 -3.626877,-1.904563 -1.820359,-1.047509 -4.042873,-2.029677 -4.938918,-2.182595 -0.896044,-0.152919 -2.017953,-0.486101 -2.493129,-0.740408 -0.475177,-0.254307 -1.313935,-0.462375 -1.863906,-0.462375 -0.549972,0 -1.375723,-0.189844 -1.835005,-0.42187 -2.425655,-1.225442 -6.369812,-1.9328736 -6.3618,-1.141069 0.0687,6.788809 3.705677,18.986521 6.598065,22.128595 0.324729,0.352762 0.865746,1.025857 1.202259,1.495766 1.209644,1.689153 7.806978,6.366016 8.663973,6.141907 0.465255,-0.121667 0.723699,-0.02346 0.574321,0.21824 -0.149378,0.241698 0.120832,0.563101 0.600466,0.714228 0.479635,0.151127 1.506274,0.61774 2.281421,1.036916 1.900007,1.027468 3.805133,1.382956 7.24691,1.352237 l 2.885424,-0.02575 0.04073,-2.765862 z m -10.299823,-5.64359 c -1.649523,-1.649523 -1.576285,-3.000545 0.226697,-4.181904 0.917108,-0.600912 1.281291,-0.630407 1.859428,-0.150597 0.395421,0.328171 0.718948,0.454359 0.718948,0.280418 0,-0.173941 0.432814,-0.08462 0.961807,0.198488 1.256176,0.672285 1.334918,3.698419 0.120227,4.620501 -1.308492,0.993287 -2.32807,0.79213 -3.887107,-0.766906 z m 2.148983,-2.173867 c -0.432642,-0.432642 -0.813672,-0.66296 -0.846734,-0.51182 -0.225499,1.030853 -0.149987,1.520274 0.280455,1.817715 0.9004,0.622191 1.382529,-0.489644 0.566279,-1.305895 z M 21.339623,25.636198 c -0.865574,-0.652905 -1.076858,-1.229604 -0.980923,-2.677422 0.16515,-2.49238 0.955186,-3.239484 2.717218,-2.569562 0.748622,0.284625 1.983567,1.126048 2.744321,1.869826 1.17805,1.15176 1.314039,1.534205 0.916927,2.57869 -0.256445,0.6745 -0.323323,1.369303 -0.14862,1.544008 0.723383,0.723381 -4.23525,0.01908 -5.248923,-0.74554 z m 2.946259,-2.141249 c 0,-0.85226 -0.835567,-1.330537 -1.726931,-0.988486 -0.556849,0.213682 -0.604243,0.490476 -0.210087,1.226965 0.547945,1.023845 1.937018,0.852826 1.937018,-0.238479 z m 20.545914,19.028406 c 0.0579,-0.768638 -0.05116,-0.83816 -0.565798,-0.360678 -0.549759,0.510063 -0.389639,0.949042 0.476186,1.305485 0.0099,0.004 0.05016,-0.421113 0.08961,-0.944807 z m -0.25504,-1.82213 c -0.318897,-0.106299 -0.457488,-0.391194 -0.30798,-0.6331 0.149506,-0.241907 0.04266,-0.43983 -0.237455,-0.43983 -0.280107,0 -0.509286,0.426022 -0.509286,0.946715 0,0.693327 0.218739,0.862776 0.817266,0.6331 0.515718,-0.197899 0.603332,-0.384926 0.237455,-0.506885 z M 12.840372,39.051211 c -0.448843,-0.448844 -0.577085,-0.320603 -0.577085,0.577084 0,0.897687 0.128242,1.025928 0.577085,0.577084 0.448843,-0.448843 0.448843,-0.705325 0,-1.154168 z M 7.5139236,37.576439 C 7.0389753,37.105025 6.9837368,37.160263 7.244716,37.845647 c 0.1805944,0.474277 0.449497,0.741178 0.597561,0.593114 0.1480641,-0.148064 3.043e-4,-0.536109 -0.3283534,-0.862322 z m 2.8257484,-1.554922 c 0,-0.448844 -0.4541867,-0.721356 -1.2022595,-0.721356 -1.4964355,0 -1.5858995,0.821021 -0.1202259,1.103322 0.5951184,0.114625 1.1361354,0.237879 1.2022594,0.273899 0.06612,0.03602 0.120226,-0.25912 0.120226,-0.655865 z m 33.182363,-7.934913 c 0,-0.264496 -0.216408,-0.480904 -0.480904,-0.480904 -0.264496,0 -0.480904,0.216408 -0.480904,0.480904 0,0.264496 0.216408,0.480904 0.480904,0.480904 0.264496,0 0.480904,-0.216408 0.480904,-0.480904 z M 22.918047,94.164335 c -0.442759,-0.50086 -1.086819,-0.6346 -2.043841,-0.42441 -1.046135,0.22978 -1.397362,0.1299 -1.397362,-0.39734 0,-1.00353 1.999815,-2.18111 4.80287,-2.82813 1.325879,-0.30605 2.410687,-0.71713 2.410687,-0.91351 0,-0.19639 1.136135,-1.05402 2.524745,-1.90586 2.729098,-1.67416 11.270919,-10.06029 12.684522,-12.45333 0.477364,-0.80811 1.03768,-1.46929 1.24515,-1.46929 0.207468,0 0.377217,-0.22071 0.377217,-0.49046 0,-0.26975 0.541017,-1.34749 1.202258,-2.39496 0.661244,-1.04748 1.202259,-2.19987 1.202259,-2.56088 0,-0.36101 0.446027,-1.06003 0.991169,-1.55337 0.848262,-0.76767 1.055208,-0.79575 1.435349,-0.19477 0.244297,0.38623 0.447489,1.28924 0.451543,2.00669 0.0097,1.72453 1.847133,6.58068 2.929469,7.74243 0.471821,0.50644 1.166355,1.55778 1.54341,2.33631 0.983451,2.03061 3.959659,5.01346 8.315309,8.33386 2.081778,1.58698 4.120602,3.21004 4.530722,3.60678 1.071798,1.03685 3.766235,2.30945 6.132512,2.89641 1.124112,0.27884 2.04384,0.69658 2.04384,0.9283 0,0.23372 -7.226866,0.40129 -16.230501,0.37634 -13.376174,-0.0371 -16.319524,-0.16436 -16.736708,-0.72374 -0.431496,-0.57857 -0.599882,-0.56587 -1.140918,0.086 -0.753393,0.90779 -3.218844,1.02097 -3.564779,0.16366 -0.194048,-0.48091 -0.250153,-0.48091 -0.280527,0 -0.02249,0.35619 -0.707432,0.60112 -1.681053,0.60112 -0.903698,0 -1.769324,-0.27051 -1.923615,-0.60112 -0.224422,-0.48091 -0.336633,-0.48091 -0.561054,0 -0.344604,0.73843 -3.65865,0.79772 -4.378051,0.0783 -0.376473,-0.37647 -0.613247,-0.37647 -0.845919,0 -0.476787,0.77145 -3.291049,0.60067 -4.038703,-0.24509 z m 38.878329,-0.17699 c 0,-0.58379 -1.908894,-1.63466 -2.285402,-1.25815 -0.15368,0.15368 -0.02693,0.27942 0.281636,0.27942 0.308584,0 0.561054,0.32461 0.561054,0.72135 0,0.39675 0.324612,0.72136 0.721358,0.72136 0.396748,0 0.721354,-0.2088 0.721354,-0.46398 z m -26.449707,-1.24757 c 0,-0.38113 -0.216405,-0.69297 -0.480903,-0.69297 -0.264497,0 -0.480904,0.44559 -0.480904,0.99019 0,0.54461 0.216407,0.85645 0.480904,0.69297 0.264498,-0.16346 0.480903,-0.60905 0.480903,-0.99019 z m -9.618075,-0.24044 c 0,-0.2489 -0.324611,-0.45253 -0.721356,-0.45253 -0.743674,0 -0.955414,0.56745 -0.413827,1.10904 0.384208,0.38421 1.135183,-0.0501 1.135183,-0.65651 z m 23.290157,0.56377 c 0.314139,-0.50829 -1.064245,-1.76184 -1.480069,-1.34602 -0.400685,0.40069 0.178922,1.77244 0.748916,1.77244 0.257189,0 0.586209,-0.19189 0.731153,-0.42642 z m 3.893632,-0.44252 c -0.148064,-0.14806 -0.536107,-2.6e-4 -0.862322,0.32836 -0.471411,0.47495 -0.416174,0.53018 0.26921,0.2692 0.474277,-0.18059 0.741178,-0.44949 0.593112,-0.59756 z m 5.517671,-1.29513 c 0,-0.39675 -0.216408,-0.72136 -0.480904,-0.72136 -0.264499,0 -0.480904,0.32461 -0.480904,0.72136 0,0.39674 0.216405,0.72135 0.480904,0.72135 0.264496,0 0.480904,-0.32461 0.480904,-0.72135 z m -29.495435,-0.48091 c 0,-0.39674 -0.180339,-0.72135 -0.400754,-0.72135 -0.480284,0 -0.528416,0.67384 -0.08015,1.1221 0.445759,0.44576 0.480904,0.41648 0.480904,-0.40075 z m 21.56052,0.24046 c 0.16347,-0.2645 -0.05294,-0.48091 -0.480904,-0.48091 -0.427964,0 -0.644372,0.21641 -0.480902,0.48091 0.163468,0.26449 0.379876,0.4809 0.480902,0.4809 0.101028,0 0.317436,-0.21641 0.480904,-0.4809 z m -12.874194,-0.29055 c -0.159803,-0.1598 -0.574582,-0.17688 -0.921734,-0.0379 -0.383632,0.15352 -0.269679,0.26747 0.290547,0.29055 0.506952,0.0209 0.790985,-0.0928 0.631187,-0.25258 z m 8.786514,-0.19036 c 0,-0.2645 -0.216408,-0.4809 -0.480907,-0.4809 -0.264496,0 -0.480901,0.2164 -0.480901,0.4809 0,0.2645 0.216405,0.48091 0.480901,0.48091 0.264499,0 0.480907,-0.21641 0.480907,-0.48091 z m 13.946205,-0.66247 c 0,-0.0999 -0.378714,-0.47858 -0.841578,-0.84159 -0.762744,-0.59818 -0.779754,-0.58117 -0.181573,0.18158 0.628237,0.80106 1.023151,1.05581 1.023151,0.66001 z m -15.935946,-1.68455 c -0.104693,-0.30483 -0.43906,-0.34312 -0.83707,-0.0959 -0.364506,0.22646 -0.502386,0.67119 -0.306398,0.9883 0.421404,0.68185 1.417227,-0.0954 1.143468,-0.89244 z m 3.913354,0.4234 c 0,-0.26449 -0.09543,-0.4809 -0.212069,-0.4809 -0.116639,0 -0.345818,0.21641 -0.509286,0.4809 -0.16347,0.2645 -0.06804,0.48091 0.212069,0.48091 0.280107,0 0.509286,-0.21641 0.509286,-0.48091 z m -14.67097,-0.9563 c 0.168479,-0.2726 -0.02455,-0.35322 -0.452522,-0.189 -0.833126,0.3197 -0.985558,0.6644 -0.293811,0.6644 0.248888,0 0.584737,-0.21393 0.746333,-0.4754 z m 16.965281,-0.87714 c 0.104698,-0.31409 -0.152284,-0.57107 -0.571074,-0.57107 -0.418786,0 -0.761429,0.34264 -0.761429,0.76143 0,0.84924 1.03527,0.70134 1.332503,-0.19036 z m -8.509992,-0.22242 c -0.05948,-0.57501 -0.71909,-0.46366 -0.92574,0.15629 -0.105799,0.3174 0.06733,0.49052 0.384722,0.38473 0.317397,-0.1058 0.560856,-0.34926 0.541018,-0.54102 z m 14.150593,-0.82956 c 0.16347,-0.26449 0.06804,-0.4809 -0.212069,-0.4809 -0.280106,0 -0.509285,0.21641 -0.509285,0.4809 0,0.2645 0.09543,0.48091 0.212068,0.48091 0.116639,0 0.345819,-0.21641 0.509286,-0.48091 z m -17.360653,-2.99828 c 0.332795,-0.22227 0.235945,-0.35605 -0.26111,-0.36068 -0.841922,-0.008 -1.520303,1.12868 -0.990142,1.65884 0.174638,0.17464 0.408583,0.0335 0.519877,-0.31366 0.111295,-0.34716 0.440412,-0.79018 0.731375,-0.9845 z m 12.953891,-1.72478 c -0.125966,-0.48171 -0.721561,-1.49351 -1.323538,-2.24847 -1.000607,-1.25488 -1.087927,-1.28342 -1.017884,-0.33266 0.04213,0.57199 0.58751,1.5838 1.211934,2.24847 1.355283,1.44263 1.425136,1.4632 1.129488,0.33266 z m -3.287697,-0.086 c 0.163468,-0.2645 0.06804,-0.4809 -0.212071,-0.4809 -0.280107,0 -0.509286,0.2164 -0.509286,0.4809 0,0.2645 0.09543,0.48091 0.212069,0.48091 0.116639,0 0.345818,-0.21641 0.509288,-0.48091 z m -5.04949,-2.9816 c 0,-0.77686 -0.142209,-0.91578 -0.535184,-0.5228 -0.294351,0.29434 -0.389781,0.77044 -0.212068,1.05798 0.497443,0.80488 0.747252,0.62597 0.747252,-0.53518 z m 5.527725,-1.83038 c -0.480203,-0.53061 -0.968388,-0.86947 -1.084858,-0.753 -0.281366,0.28137 0.968383,1.67616 1.522741,1.69946 0.239363,0.0101 0.04232,-0.41585 -0.437883,-0.94646 z m -3.428696,-1.93761 c -0.640405,-0.64041 -1.856422,0.68502 -1.362175,1.48474 0.240313,0.38883 0.560803,0.32607 1.102828,-0.21596 0.533413,-0.53341 0.611706,-0.91643 0.259347,-1.26878 z m 2.229104,-1.90667 c 0,-1.64306 -0.345162,-1.81218 -1.229704,-0.60249 -0.431091,0.58955 -0.465211,1.01995 -0.114358,1.44271 0.832048,1.00255 1.344062,0.68248 1.344062,-0.84022 z m 38.231849,22.05968 c -1.32248,-0.23599 -3.811162,-0.66089 -5.53039,-0.94421 -1.719233,-0.28332 -4.316116,-0.84384 -5.770848,-1.24561 -1.454734,-0.40176 -2.728981,-0.69022 -2.831658,-0.64102 -0.102671,0.0492 -0.319079,-0.1095 -0.480904,-0.35266 -0.161816,-0.24318 -2.166607,-1.36018 -4.455075,-2.48225 -4.38045,-2.14779 -10.539007,-7.39408 -11.200135,-9.54106 -0.183253,-0.59511 -0.51118,-1.08203 -0.728729,-1.08203 -0.603826,0 -2.168562,-3.60592 -3.8691,-8.91629 -0.843549,-2.63421 -1.703122,-5.22228 -1.910156,-5.75127 -0.671251,-1.71509 -1.390105,-7.64894 -1.136047,-9.37763 0.136046,-0.92574 0.264247,-1.953667 0.284882,-2.284289 0.02064,-0.330621 0.19871,-0.601129 0.395716,-0.601129 0.59726,0 0.181841,-1.490783 -0.539676,-1.936702 -0.57541,-0.355623 -0.54493,-1.324261 0.206873,-6.57397 0.484936,-3.386292 0.947129,-6.481505 1.027083,-6.87825 0.360146,-1.787067 2.843202,-8.138437 3.948179,-10.098981 2.31545,-4.108275 7.191621,-8.633208 11.217364,-10.409361 1.017905,-0.449099 1.736633,-1.00116 1.597181,-1.226804 -0.139456,-0.225642 -0.07516,-0.366668 0.142865,-0.313389 0.764413,0.186791 4.257759,-1.03505 5.686369,-1.988878 0.793488,-0.529786 1.886344,-0.964673 2.428563,-0.966417 0.542218,-0.0019 1.191437,-0.202065 1.442712,-0.445161 0.251269,-0.243097 1.647092,-0.6761456 3.101827,-0.9623296 1.454737,-0.286186 3.618801,-0.712988 4.80904,-0.948449 1.190236,-0.23546 3.62481,-0.393366 5.410165,-0.350903 2.300867,0.05472 3.246102,-0.09614 3.246102,-0.518081 0,-0.331571 0.319571,-0.472657 0.721357,-0.318479 0.920906,0.353385 0.929026,2.120035 0.01529,3.3280926 -0.388332,0.513424 -0.712941,1.616369 -0.721358,2.450989 -0.0084,0.83462 -0.435266,2.349468 -0.948573,3.366328 -1.053492,2.086983 -2.612247,5.729044 -4.378391,10.230199 -0.91794,2.339435 -3.978992,6.800494 -6.491298,9.460178 -1.178785,1.24793 -2.143241,2.425706 -2.143241,2.61728 0,0.191573 -0.378709,0.471368 -0.841579,0.621767 -0.46287,0.150399 -2.356427,1.135617 -4.207907,2.189374 -4.946523,2.815281 -8.954526,4.676146 -10.839788,5.03278 -0.915046,0.173098 -2.204728,0.437639 -2.865975,0.587871 -0.661241,0.150231 -2.121984,0.393952 -3.246096,0.541601 -1.539488,0.202207 -2.043842,0.479932 -2.043842,1.125448 0,0.636954 0.524771,0.939936 2.043842,1.180029 1.981743,0.313219 3.012557,0.54004 7.574235,1.666635 2.453568,0.605957 10.214247,3.437271 10.57988,3.859831 0.132247,0.15285 1.322486,0.96233 2.644974,1.79885 2.801551,1.77209 6.341853,5.15111 6.752478,6.44487 0.156993,0.49464 0.48726,0.89934 0.733939,0.89934 0.246665,0 0.448495,0.29238 0.448495,0.64973 0,0.35735 0.55559,1.69465 1.234643,2.97179 0.679064,1.27713 1.735749,3.85213 2.348193,5.72224 1.02997,3.145 1.268148,4.36293 2.028632,10.37329 0.150598,1.19024 0.464476,2.52856 0.6975,2.97404 0.233026,0.44548 0.423683,1.83409 0.423683,3.0858 0,4.30493 0.633997,1.63687 0.782007,-3.29096 0.433589,-14.43564 0.450141,-14.05724 -0.621739,-14.21476 -0.683093,-0.10039 -1.177827,-0.76253 -1.616911,-2.16407 -0.650314,-2.07577 -2.203833,-4.51398 -4.162755,-6.53336 -0.612286,-0.63118 -1.113253,-1.438 -1.113253,-1.79293 0,-1.19844 -7.476601,-7.9059 -10.633953,-9.54 -2.999462,-1.552397 -7.489516,-3.065511 -9.996599,-3.368788 -0.687816,-0.0832 -1.412875,-0.175955 -1.611251,-0.206113 -0.84292,-0.128146 -0.263898,-1.022606 0.841581,-1.300064 0.661241,-0.165961 1.202261,-0.458627 1.202261,-0.650367 0,-0.191741 0.292489,-0.34862 0.649976,-0.34862 1.120685,0 7.915367,-3.513458 10.268862,-5.309922 1.237705,-0.944757 2.563477,-1.957939 2.94617,-2.251516 1.677958,-1.287215 7.294761,-7.064925 7.294761,-7.503732 0,-0.266229 0.378711,-0.879061 0.841581,-1.361851 0.46287,-0.482788 1.377304,-1.943534 2.032071,-3.246101 0.65477,-1.302565 1.340742,-2.478553 1.524379,-2.613306 0.183639,-0.134749 0.405339,-0.552222 0.49267,-0.927713 0.214212,-0.921004 1.423778,-2.40883 2.389822,-2.939587 0.694592,-0.381619 0.740638,-0.221668 0.387255,1.345189 -0.220588,0.978067 -0.306202,1.873173 -0.190254,1.989124 0.115948,0.115951 -0.220623,0.513009 -0.747932,0.882351 -1.22356,0.857017 -1.222372,1.886921 0.0029,2.652215 1.155404,0.721561 1.426641,4.016902 0.294883,3.582606 -0.467857,-0.179534 -0.594656,0.02042 -0.424812,0.669904 0.133157,0.509206 0.416912,0.925828 0.630555,0.925828 0.213648,0 0.408154,3.108526 0.432237,6.907836 l 0.04381,6.907836 -1.272439,-0.243242 c -0.94298,-0.180262 -1.213496,-0.06997 -1.04476,0.425946 0.125235,0.368055 0.694494,0.601485 1.265023,0.518736 1.036457,-0.150306 1.037487,-0.139683 1.037487,10.700111 0,6.67872 -0.179094,10.85056 -0.465815,10.85056 -0.256188,0 -0.341241,-0.32461 -0.188997,-0.72135 0.309424,-0.80634 -0.559946,-0.99835 -1.035601,-0.22872 -0.16746,0.27095 -0.154514,1.17539 0.02876,2.00985 l 0.333229,1.51722 0.647168,-1.16827 c 0.555578,-1.00295 0.649571,0.65222 0.6642,11.6959 0.01569,11.8279 -0.275008,14.77018 -1.178092,11.92481 -0.295637,-0.93147 -0.311065,-0.93148 -1.835793,-0.002 -0.845714,0.51566 -1.754065,0.91279 -2.018559,0.88252 -0.264498,-0.0303 -1.562941,-0.24815 -2.885426,-0.48415 z m 3.767193,-3.09914 c -0.352642,-0.91899 -1.12222,-0.87542 -1.12222,0.0635 0,0.47179 -0.222843,0.61586 -0.601128,0.38859 -0.40296,-0.24209 -0.381926,-0.0909 0.0638,0.45845 0.77877,0.95991 2.099279,0.23535 1.659544,-0.91058 z m -13.151689,-1.36634 c -0.311435,-0.31144 -0.636624,-0.31144 -0.948063,0 -0.311441,0.31145 -0.148851,0.47404 0.474033,0.47404 0.622888,0 0.785474,-0.16259 0.47403,-0.47404 z m -2.223733,-1.00302 c -0.152254,-0.39675 -0.361862,-0.72136 -0.465814,-0.72136 -0.10395,0 -0.189003,0.32461 -0.189003,0.72136 0,0.39674 0.209619,0.72136 0.465815,0.72136 0.256193,0 0.341244,-0.32462 0.189002,-0.72136 z m 15.21501,-1.20227 c 0,-0.79348 -0.197255,-1.4427 -0.438354,-1.4427 -0.241091,0 -0.365855,0.37871 -0.277243,0.84158 0.08861,0.46287 0.177662,1.11209 0.1979,1.44271 0.0767,1.25319 0.517697,0.5363 0.517697,-0.84159 z m -3.01026,-0.0981 c 0.04391,-0.58293 -0.09674,-1.28625 -0.312541,-1.56293 -0.215802,-0.27669 -0.522828,-1.80151 -0.682271,-3.38849 -0.413356,-4.11416 -3.398184,-13.05752 -5.24814,-15.72485 -1.633005,-2.35454 -5.114163,-5.28721 -6.977292,-5.87799 -0.595119,-0.1887 -1.082032,-0.50327 -1.082032,-0.69904 0,-0.57334 -6.863847,-3.42647 -8.243128,-3.42647 -0.501663,0 -2.46062,-0.54102 -4.35324,-1.20226 -1.89262,-0.66124 -4.148053,-1.20226 -5.012073,-1.20226 -0.864021,0 -1.716347,-0.23526 -1.89406,-0.52281 -0.218675,-0.35382 -0.480946,-0.36497 -0.811418,-0.0345 -0.72594,0.72594 -0.509122,4.65439 0.348395,6.31265 0.411871,0.79648 0.730507,1.50451 0.708073,1.5734 -0.02241,0.0689 0.101674,0.55808 0.275788,1.08707 0.850733,2.58471 1.393267,3.90427 1.848874,4.49688 0.274698,0.3573 0.550963,1.0006 0.613918,1.42954 0.06295,0.42894 0.416279,1.00222 0.785172,1.27396 0.36889,0.27175 1.046922,1.28891 1.506739,2.26037 1.180763,2.49462 5.910876,7.16542 8.594417,8.48665 1.246418,0.61368 2.266215,1.27388 2.266215,1.46712 0,0.47984 4.29501,2.59354 5.727795,2.81882 0.637566,0.10024 1.605447,0.49482 2.150848,0.87683 0.545399,0.38202 1.80911,0.69457 2.808248,0.69457 0.999135,0 1.81661,0.23099 1.81661,0.51331 0,0.28232 0.378709,0.40465 0.841579,0.27185 0.630875,-0.18102 4.109794,0.709 4.225798,1.08108 0.0098,0.0315 0.05382,-0.41957 0.09773,-1.00249 z m -12.297872,-7.92803 c -0.352306,-0.14064 -1.038064,-0.90935 -1.5239,-1.70824 -1.420749,-2.33624 -0.110535,-4.16731 3.126275,-4.3691 0.651308,-0.0406 1.011417,0.2856 1.115478,1.01044 0.08452,0.58872 0.320241,1.0704 0.523819,1.0704 0.586859,0 0.265446,2.76034 -0.41719,3.58286 -0.619276,0.74619 -1.623139,0.8932 -2.824482,0.41364 z m 1.522338,-2.75908 c 0.337876,-0.88049 -0.892479,-1.99821 -1.362477,-1.23774 -0.396285,0.6412 0.04016,1.92394 0.654614,1.92394 0.244498,0 0.563035,-0.30879 0.707863,-0.6862 z m -7.112984,-4.08961 c -0.152175,-0.24622 -0.05674,-0.5836 0.212072,-0.74974 0.268808,-0.16613 0.488746,0.0353 0.488746,0.44768 0,0.84472 -0.288573,0.96909 -0.700818,0.30206 z m -5.382397,-3.39667 c -0.582557,-0.23503 -1.288103,-1.18781 -1.616552,-2.18302 -0.825645,-2.50175 0.07276,-3.35313 3.064846,-2.90444 2.467266,0.36999 3.003315,1.21318 2.494738,3.92413 -0.26234,1.39838 -0.500457,1.63684 -1.608611,1.61087 -0.715386,-0.0168 -1.765874,-0.21816 -2.334421,-0.44754 z m 2.235985,-2.31122 c 0,-0.49773 -1.041169,-1.53889 -1.538893,-1.53889 -0.511244,0 -0.271256,1.10896 0.336632,1.55557 0.637466,0.46834 1.202261,0.4605 1.202261,-0.0167 z m 23.319959,16.85567 c -0.173879,-2.67143 -0.227348,-2.83231 -0.679354,-2.04384 -0.349018,0.60881 -0.383514,1.81753 -0.0995,3.48656 0.03376,0.19837 0.249211,0.36067 0.478804,0.36067 0.229581,0 0.364606,-0.81152 0.30005,-1.80339 z m -22.969301,1.03194 c -0.159803,-0.1598 -0.574582,-0.17688 -0.921734,-0.0379 -0.383628,0.15351 -0.269677,0.26747 0.290549,0.29054 0.50695,0.0209 0.790988,-0.0928 0.631185,-0.25258 z m -1.571083,-1.18155 c -0.139194,-0.22523 -0.569523,-0.28808 -0.95628,-0.13967 -0.386758,0.14841 -0.589304,0.45412 -0.450102,0.67935 0.139195,0.22523 0.569524,0.28808 0.956281,0.13967 0.386757,-0.14842 0.589304,-0.45412 0.450101,-0.67935 z m -2.484141,-1.774 c -0.169428,-0.46287 -1.101349,-2.03182 -2.07093,-3.48655 -2.482218,-3.72425 -7.199514,-12.66651 -7.256841,-13.75632 -0.03568,-0.67857 -0.136361,-0.60427 -0.394245,0.29101 -0.190471,0.66124 -0.186886,1.52687 0.008,1.92362 0.194858,0.39674 0.706856,1.93338 1.137775,3.41475 0.979149,3.36602 3.776908,8.17628 6.16789,10.60462 1.945674,1.97608 2.910329,2.38017 2.408375,1.00887 z m 26.029483,-3.47067 c -0.071,-1.35347 -0.660178,-3.48967 -1.359514,-4.92926 l -1.234204,-2.54063 0.293124,2.64497 c 0.161221,1.45473 0.590851,3.07183 0.954741,3.59355 0.363884,0.52172 0.661606,1.40538 0.661606,1.96369 0,0.84004 0.357492,1.65631 0.725379,1.65631 0.04631,0 0.0278,-1.07488 -0.04112,-2.38863 z m -2.60786,-8.67215 c 0,-0.52899 -0.172043,-0.96181 -0.38231,-0.96181 -0.21027,0 -0.778841,-0.96156 -1.263491,-2.1368 -1.099997,-2.66744 -4.841174,-6.82514 -5.370587,-5.96853 -0.205954,0.33323 -0.11489,0.67875 0.207177,0.78611 0.902719,0.3009 2.961981,2.70063 2.961981,3.45169 0,0.27567 0.216406,0.50121 0.480904,0.50121 0.264494,0 0.480904,0.32461 0.480904,0.72135 0,0.39675 0.216403,0.72136 0.480904,0.72136 0.264494,0 0.480902,0.44704 0.480902,0.99342 0,1.22419 0.833495,2.85381 1.459629,2.85381 0.255191,0 0.463987,-0.43282 0.463987,-0.96181 z m 8.175363,-6.0113 c 0,-0.39674 -0.216406,-0.72135 -0.480904,-0.72135 -0.264496,0 -0.480904,0.32461 -0.480904,0.72135 0,0.39675 0.216408,0.72136 0.480904,0.72136 0.264498,0 0.480904,-0.32461 0.480904,-0.72136 z m -5.37359,-2.09021 c -0.615238,-0.75287 -1.186241,-1.19921 -1.268894,-0.99186 -0.172619,0.43302 1.394733,2.26056 1.990249,2.32064 0.21849,0.022 -0.106122,-0.57591 -0.721355,-1.32878 z m -12.205472,-3.01686 c -1.308145,-0.82516 -2.450584,-1.69079 -2.538746,-1.92361 -0.08817,-0.23283 -0.531802,-0.42333 -0.985853,-0.42333 -0.454054,0 -1.03114,-0.18846 -1.282412,-0.41881 -0.251269,-0.23035 -1.073155,-0.5644 -1.826405,-0.74233 -1.011817,-0.23901 -1.312008,-0.16102 -1.149255,0.29858 0.121169,0.34216 0.690644,0.56927 1.265502,0.50469 0.574852,-0.0646 1.169265,0.20593 1.320922,0.60113 0.151651,0.3952 0.577191,0.71855 0.945639,0.71855 0.368443,0 0.669904,0.22918 0.669904,0.50929 0,0.28011 0.198956,0.38632 0.442132,0.23603 0.24317,-0.15029 0.739227,-9.6e-4 1.102341,0.3323 1.147842,1.0528 2.511399,1.75028 3.478943,1.77952 0.593442,0.0179 0.0657,-0.52052 -1.442712,-1.47201 z m 17.579062,0.5101 c 0,-0.24888 -0.459312,-0.45252 -1.020689,-0.45252 -0.849402,0 -0.920964,0.12017 -0.426418,0.71606 0.60067,0.72376 1.447107,0.56961 1.447107,-0.26354 z m -2.190155,-2.33392 c 0.149119,-0.24127 -0.04825,-0.39181 -0.438603,-0.33452 -1.029729,0.15113 -1.516996,0.77321 -0.605649,0.77321 0.425217,0 0.89513,-0.19741 1.044252,-0.43869 z m -6.897097,-2.10827 c -0.617236,-0.61724 -1.243164,-0.14019 -0.786204,0.59919 0.177014,0.28641 0.542147,0.38459 0.811416,0.21817 0.328459,-0.203 0.320164,-0.47199 -0.02519,-0.81736 z m 9.087252,-0.41427 c 0,-0.24141 -0.438875,-0.20406 -0.975278,0.083 -0.536401,0.28707 -0.841746,0.73801 -0.67854,1.00208 0.328869,0.53213 1.653818,-0.33719 1.653818,-1.0851 z m -4.809038,0.82555 c 0,-0.11664 -0.216405,-0.34582 -0.480904,-0.50929 -0.264499,-0.16347 -0.480904,-0.068 -0.480904,0.21207 0,0.28011 0.216405,0.50929 0.480904,0.50929 0.264499,0 0.480904,-0.0954 0.480904,-0.21207 z m -22.362027,-0.74974 c -0.163467,-0.2645 -0.699222,-0.48091 -1.190561,-0.48091 -0.491345,0 -0.965486,-0.19591 -1.053661,-0.43536 -0.08816,-0.23945 -0.809514,-0.50178 -1.603007,-0.58296 -0.793494,-0.0812 -1.65912,-0.28823 -1.923616,-0.46013 -0.946605,-0.615201 -3.072061,-0.921291 -3.343839,-0.481549 -0.321746,0.520609 1.442519,1.189789 2.086885,0.791549 0.239152,-0.1478 0.558901,0.0546 0.710568,0.44986 0.152051,0.39624 0.875779,0.7219 1.613328,0.72596 0.735669,0.004 1.662187,0.21714 2.058935,0.47354 0.953757,0.61636 3.025902,0.61636 2.644968,0 z m 15.775,-1.67658 c 0.05215,-0.26087 -0.283887,-0.54725 -0.746757,-0.636391 -0.526396,-0.101375 -0.841579,0.134495 -0.841579,0.629801 0,0.83668 1.421215,0.84257 1.588336,0.007 z m 4.663414,-0.0655 c 0,-0.63902 -0.130562,-0.671883 -0.72136,-0.18157 -0.39674,0.32927 -0.721352,0.68038 -0.721352,0.78024 0,0.0999 0.324612,0.18157 0.721352,0.18157 0.396748,0 0.72136,-0.35111 0.72136,-0.78024 z m 4.011734,0.0834 c 0.178736,-0.465769 0.03631,-0.608187 -0.429448,-0.429457 -0.383275,0.147077 -0.696865,0.460667 -0.696865,0.696867 0,0.69136 0.834427,0.49325 1.126313,-0.26741 z M 54.582822,51.65089 c 0,-0.560586 -3.531944,-0.904831 -4.083662,-0.398019 -0.751332,0.690179 0.489271,1.19332 2.394075,0.970946 0.929272,-0.108488 1.689587,-0.366305 1.689587,-0.572927 z m 38.820983,-0.480903 c -0.0829,-1.100463 -1.079413,-1.295823 -1.466353,-0.287468 -0.298537,0.777977 0.05136,1.249275 0.927486,1.249275 0.336225,0 0.578713,-0.432814 0.538867,-0.961807 z m -8.785037,0.03323 c 0.355653,-0.575451 -0.549008,-1.145623 -1.189562,-0.749738 -0.537823,0.332392 -0.18475,1.197411 0.488747,1.197411 0.233275,0 0.548642,-0.201454 0.700815,-0.447673 z m 4.108222,-0.0048 c 0,-0.248888 -0.216405,-0.58627 -0.480904,-0.749738 -0.264499,-0.163468 -0.480904,0.04017 -0.480904,0.452522 0,0.412356 0.216405,0.749737 0.480904,0.749737 0.264499,0 0.480904,-0.203634 0.480904,-0.452521 z m -9.137173,-0.480952 c 0,-0.833146 -0.846437,-0.987296 -1.447107,-0.263538 -0.494549,0.595893 -0.422984,0.716061 0.426418,0.716061 0.561377,0 1.020689,-0.203635 1.020689,-0.452523 z m 11.110705,-2.09444 c -0.617233,-0.617234 -1.243158,-0.140185 -0.786198,0.599197 0.177009,0.286409 0.542147,0.384585 0.811411,0.218168 0.328459,-0.202998 0.320164,-0.47199 -0.02519,-0.817365 z m -13.369593,-0.09142 c 0.05215,-0.260875 -0.28389,-0.547251 -0.74676,-0.636392 -0.526397,-0.101375 -0.841582,0.134495 -0.841582,0.629806 0,0.836671 1.421215,0.842564 1.588342,0.0066 z m 4.422954,0.233866 c -0.163465,-0.264497 -0.500851,-0.480904 -0.749739,-0.480904 -0.248885,0 -0.452517,0.216407 -0.452517,0.480904 0,0.264497 0.337381,0.480904 0.749737,0.480904 0.412356,0 0.615987,-0.216407 0.452519,-0.480904 z m 5.049494,0 c 0,-0.264497 -0.203639,-0.480904 -0.452522,-0.480904 -0.248889,0 -0.586269,0.216407 -0.749742,0.480904 -0.163465,0.264497 0.04016,0.480904 0.452522,0.480904 0.412356,0 0.749742,-0.216407 0.749742,-0.480904 z m -17.123214,-0.76154 c 0.179731,-0.468359 0.07225,-0.688213 -0.279167,-0.571074 -0.718876,0.239625 -1.114684,1.332614 -0.482587,1.332614 0.258239,0 0.601028,-0.342693 0.761754,-0.76154 z m -18.28333,-0.583906 c 0.305338,-0.494045 -0.249827,-1.265332 -1.021918,-1.419751 -0.330624,-0.06612 -0.601131,0.168317 -0.601131,0.520979 0,1.115341 1.109493,1.729727 1.623049,0.898772 z m 33.002024,-0.60655 c 0,-0.248888 -0.324612,-0.452523 -0.721358,-0.452523 -0.743672,0 -0.95541,0.567449 -0.413826,1.109035 0.384209,0.384209 1.135184,-0.0501 1.135184,-0.656512 z m -9.971818,0.221817 c 0.449001,-0.449002 -0.161269,-1.636147 -0.841081,-1.636147 -0.97096,0 -1.86898,1.293712 -1.109546,1.598431 0.887195,0.355979 1.618234,0.370114 1.950627,0.03772 z m 5.162778,-0.193436 c 0,-0.264497 -0.337381,-0.480904 -0.749737,-0.480904 -0.412356,0 -0.61599,0.216407 -0.452522,0.480904 0.163467,0.264497 0.500854,0.480904 0.749742,0.480904 0.248883,0 0.452517,-0.216407 0.452517,-0.480904 z m 9.137173,0 c 0,-0.264497 -0.216405,-0.480904 -0.480904,-0.480904 -0.264499,0 -0.480904,0.216407 -0.480904,0.480904 0,0.264497 0.216405,0.480904 0.480904,0.480904 0.264499,0 0.480904,-0.216407 0.480904,-0.480904 z M 52.899659,46.36095 c -0.16347,-0.264497 -0.554953,-0.47759 -0.869966,-0.47354 -0.344138,0.0044 -0.284824,0.193433 0.148611,0.47354 0.923872,0.597054 1.090351,0.597054 0.721355,0 z m 6.094859,-0.97206 c 0.09005,-0.270136 0.950333,-0.520729 1.911747,-0.556872 1.941081,-0.07297 5.792118,-1.75746 6.066838,-2.653703 0.175596,-0.572843 -5.140796,1.028601 -5.657631,1.704237 -0.132246,0.172882 -0.619162,0.332365 -1.082032,0.354406 -2.213633,0.105411 -2.682245,0.252374 -2.939105,0.921732 -0.18573,0.484007 0.02151,0.721357 0.62983,0.721357 0.498655,0 0.98031,-0.221021 1.070353,-0.491157 z m 31.884008,-0.886485 c 0.108765,-0.564783 0.01693,-1.026878 -0.204084,-1.026878 -0.554765,0 -1.052975,1.42561 -0.698595,1.999008 0.375664,0.607842 0.656685,0.305197 0.902679,-0.97213 z M 77.394608,44.96863 c 0.146339,-0.236782 -0.075,-0.561392 -0.491852,-0.721356 -1.071838,-0.4113 -1.160169,-0.378521 -1.160169,0.430513 0,0.779985 1.217269,0.994289 1.652021,0.290843 z m 8.927865,-0.07877 c 0,-0.280106 -0.19793,-0.386962 -0.43983,-0.237455 -0.241909,0.149506 -0.549434,-2.7e-5 -0.683393,-0.332296 -0.146933,-0.364461 -0.258617,-0.270258 -0.281522,0.237455 -0.02088,0.46287 0.286639,0.841582 0.683385,0.841582 0.396748,0 0.72136,-0.229179 0.72136,-0.509286 z M 55.059331,44.202176 c 0.326855,-0.393833 0.786167,-0.597468 1.020693,-0.452522 0.234527,0.144946 0.426414,0.05338 0.426414,-0.203476 0,-0.256859 0.864491,-0.61307 1.921094,-0.791582 1.0566,-0.178512 2.048645,-0.530946 2.20454,-0.783188 0.155893,-0.252241 0.725141,-0.318431 1.265005,-0.147086 0.654486,0.207727 0.871908,0.134124 0.652497,-0.220891 -0.207854,-0.336316 0.124224,-0.532424 0.901583,-0.532424 0.676852,0 1.230646,-0.191167 1.230646,-0.424816 0,-0.386907 1.045583,-0.855082 2.855129,-1.278421 0.380079,-0.08892 1.674456,-0.661796 2.876391,-1.273059 2.232346,-1.135295 3.849847,-2.714546 6.433937,-6.281776 0.801859,-1.106937 1.880616,-2.452301 2.397228,-2.989699 0.516615,-0.537395 1.262792,-1.734508 1.658173,-2.660248 0.39538,-0.92574 0.857051,-1.791366 1.025943,-1.923613 0.168891,-0.132249 0.809627,-1.322485 1.423865,-2.644971 0.614233,-1.322488 1.503164,-3.179177 1.975409,-4.125978 0.567393,-1.137587 0.801171,-2.483244 0.68926,-3.967459 -0.130042,-1.724745 -0.0066,-2.245995 0.531977,-2.245995 1.01459,0 1.827128,1.805736 1.48083,3.29089 -0.79226,3.397724 -1.964018,6.678694 -2.75514,7.714525 -0.481769,0.630788 -0.875948,1.312381 -0.875948,1.514652 0,0.420362 -2.737083,4.869318 -5.442641,8.846664 -1.009718,1.484359 -2.347224,3.033896 -2.972228,3.443416 -0.62501,0.409521 -1.466025,1.247688 -1.868927,1.862595 -0.697158,1.063996 -0.681347,1.10488 0.327261,0.846214 1.36395,-0.349796 5.68534,-4.178748 6.942063,-6.150999 0.325776,-0.511251 1.083201,-1.696878 1.683165,-2.634727 1.855901,-2.901077 2.773931,-4.667716 2.776032,-5.342123 0.0011,-0.355936 0.542124,-1.711764 1.202259,-3.012953 0.660133,-1.301189 1.200245,-2.646389 1.200245,-2.989334 0,-0.342945 0.354605,-1.442405 0.788017,-2.443242 2.241415,-5.175961 2.413015,-6.2908936 1.021828,-6.6394186 -0.598667,-0.149979 -2.603338,0.09235 -4.454818,0.5385246 -1.85148,0.446172 -4.123746,0.878101 -5.049486,0.959847 -2.238385,0.197654 -5.289944,1.203431 -5.289944,1.743533 0,0.237773 -0.177824,0.322413 -0.39516,0.188092 -0.217337,-0.134324 -0.999496,0.06931 -1.738133,0.452522 -0.738634,0.38321 -1.642851,0.696743 -2.009362,0.696743 -0.366509,0 -0.666382,0.216408 -0.666382,0.480904 0,0.648928 1.121148,0.610103 1.793359,-0.06211 0.298651,-0.298654 1.269698,-0.587126 2.157875,-0.641051 0.888177,-0.05392 3.269173,-0.487627 5.291109,-0.963785 3.531557,-0.831667 5.184772,-0.78309 5.184772,0.15235 0,0.241565 -2.055866,0.809376 -4.568587,1.261803 -2.512721,0.452424 -4.568587,1.00657 -4.568587,1.231435 0,0.224861 -0.413088,0.329287 -0.917969,0.232055 -1.140545,-0.219649 -7.888438,3.042256 -10.096423,4.880573 -4.530053,3.771611 -8.221757,8.736023 -8.221757,11.056186 0,0.339199 -0.387827,1.32663 -0.861838,2.19429 -0.474007,0.867661 -0.924148,2.397751 -1.000308,3.4002 -0.07617,1.002449 -0.434684,2.393576 -0.796718,3.091394 -0.36203,0.697817 -0.548341,1.44658 -0.414015,1.663917 0.134321,0.217338 0.01506,0.395159 -0.265065,0.395159 -0.71623,0 -0.637342,1.791793 0.09184,2.086026 0.981477,0.396035 1.176049,0.353035 1.798995,-0.397568 z m 7.44507,-10.405416 c -0.513463,-2.337797 1.606328,-4.748348 4.175612,-4.748348 1.434343,0 2.019424,1.078119 1.948016,3.589589 -0.05325,1.872778 -1.295749,2.719209 -3.801232,2.589515 C 63.036624,35.134846 62.761,34.965047 62.504401,33.79676 Z m 4.016031,-1.540537 0.155464,-1.35255 -1.303168,0.853869 c -0.71674,0.469628 -1.055862,0.936304 -0.753602,1.037059 0.302265,0.100754 0.414385,0.401916 0.249169,0.669249 -0.172281,0.278765 0.08281,0.413316 0.598133,0.315492 0.573547,-0.108877 0.954762,-0.659761 1.054004,-1.523119 z m 5.916327,-8.271078 c -0.584658,-1.616853 -0.546658,-1.758707 0.805201,-3.005648 1.730658,-1.59634 2.617028,-1.791121 4.452839,-0.978511 1.912112,0.846378 1.779032,1.873173 -0.510886,3.941976 -2.52072,2.277319 -3.934373,2.289879 -4.747154,0.04218 z m 3.566821,-1.155253 c -0.15218,-0.246221 -0.05674,-0.583602 0.212066,-0.749737 0.268814,-0.166134 0.488747,-0.515802 0.488747,-0.777036 0,-0.53961 -2.366137,1.058445 -2.389407,1.613771 -0.0083,0.198371 0.430477,0.360677 0.975079,0.360677 0.544603,0 0.865685,-0.201454 0.713515,-0.447675 z m 3.656457,19.618202 c -1.054399,-0.407702 -1.973495,0.445575 -1.076849,0.999732 0.402651,0.248852 0.907087,0.193078 1.268463,-0.140251 0.474742,-0.437906 0.434753,-0.617285 -0.191614,-0.859481 z m 13.714489,0.754655 c 0.366956,-0.956264 -0.375081,-1.729953 -1.181293,-1.231688 -0.654349,0.404412 -0.297979,1.985369 0.447529,1.985369 0.244502,0 0.574696,-0.339157 0.733764,-0.753681 z M 52.541463,38.632704 c 0.617244,-2.494141 1.187014,-4.751209 1.266156,-5.015706 0.07914,-0.264497 0.305604,-1.130125 0.503256,-1.923616 0.728022,-2.922737 3.364018,-7.281335 5.870641,-9.707058 2.528972,-2.447343 2.955456,-3.036893 2.196925,-3.036893 -0.569934,0 -4.429291,3.460012 -4.429291,3.970967 0,0.243898 -0.425731,0.802748 -0.946063,1.241891 -2.451224,2.068734 -4.987171,7.945615 -5.518917,12.789706 -0.06051,0.551228 -0.361897,1.472875 -0.669748,2.048103 -0.307856,0.575229 -0.559734,1.835555 -0.559734,2.800724 0,3.123636 1.110417,1.585254 2.286775,-3.168118 z m 36.185527,3.583799 c 0,-0.396746 -0.216405,-0.587609 -0.480904,-0.424141 -0.264499,0.163469 -0.480904,0.621826 -0.480904,1.018571 0,0.396746 0.216405,0.587609 0.480904,0.424141 0.264499,-0.163468 0.480904,-0.621825 0.480904,-1.018571 z M 69.183842,41.792362 c -0.301596,-0.785953 -1.135714,-0.991984 -1.135714,-0.280527 0,0.365007 0.337032,0.613497 1.307397,0.963917 0.05782,0.02088 -0.01942,-0.286644 -0.171683,-0.68339 z m 13.772305,-0.933426 c 0,-0.381136 -0.225888,-0.832579 -0.501967,-1.003208 -0.620927,-0.383752 -1.990394,0.684094 -1.628426,1.269768 0.430689,0.696868 2.130393,0.484196 2.130393,-0.26656 z M 71.654902,40.590103 c -0.163468,-0.264497 0.04016,-0.480904 0.452522,-0.480904 0.412356,0 0.749739,-0.221964 0.749739,-0.493253 0,-0.280891 -0.621133,-0.172052 -1.442709,0.252801 -1.693818,0.875906 -1.816653,1.20226 -0.452522,1.20226 0.544605,0 0.856443,-0.216407 0.69297,-0.480904 z M 92.967623,38.90694 c -0.301286,-0.661243 -0.837663,-1.20226 -1.19195,-1.20226 -0.9212,0 -0.797769,0.475318 0.391226,1.50653 1.353754,1.174103 1.45652,1.135051 0.800724,-0.30427 z m -6.603029,-2.069876 c -0.513889,-0.171296 -0.509465,-0.288162 0.02371,-0.625945 0.518015,-0.328193 0.484939,-0.416871 -0.157652,-0.42269 -0.447259,-0.004 -0.961903,0.233238 -1.143651,0.527306 -0.393435,0.636599 0.74176,1.453639 1.429295,1.028715 0.288737,-0.178448 0.228264,-0.380738 -0.15168,-0.507386 z m 2.173465,-2.24434 c -0.14624,-0.996371 -0.61841,-1.368406 -1.245137,-0.981068 -0.391194,0.24177 -0.383918,0.514972 0.02688,1.009963 0.732356,0.882437 1.349848,0.867791 1.218245,-0.02889 z m 1.631643,-2.87096 c 0,-0.381136 -0.216405,-0.826721 -0.480904,-0.990189 -0.264496,-0.163467 -0.480904,0.14837 -0.480904,0.692974 0,0.544604 0.216408,0.990189 0.480904,0.990189 0.264499,0 0.480904,-0.311838 0.480904,-0.692974 z m 2.060311,-3.164392 c -0.199711,-0.763667 -0.396161,-0.854101 -0.916787,-0.422018 -0.935022,0.775996 -0.822344,1.393962 0.254164,1.393962 0.683212,0 0.852027,-0.247631 0.662623,-0.971944 z M 65.162704,17.506721 c 0,-0.264498 -0.203636,-0.480904 -0.452519,-0.480904 -0.248888,0 -0.586274,0.216406 -0.749742,0.480904 -0.163465,0.264496 0.04016,0.480902 0.452522,0.480902 0.412356,0 0.749739,-0.216406 0.749739,-0.480902 z m 1.918118,-0.828233 c 0.532019,-0.455527 0.967306,-1.023043 0.967306,-1.261144 0,-0.238101 -0.290419,-0.191884 -0.645382,0.102703 -0.354952,0.29459 -0.76028,0.420709 -0.900731,0.280263 -0.140444,-0.140444 -0.37078,0.186044 -0.511861,0.72553 -0.312594,1.195371 -0.153199,1.217681 1.090668,0.152648 z m 2.66319,-1.48341 c -0.148063,-0.148066 -0.536106,-2.64e-4 -0.862319,0.328353 -0.471411,0.474949 -0.416174,0.530186 0.269208,0.269206 0.474276,-0.180594 0.74118,-0.449495 0.593111,-0.597559 z M 47.376598,30.023926 c -0.268531,-0.501756 -0.488238,-1.224624 -0.488238,-1.60637 0,-0.381749 -0.301974,-0.944703 -0.671047,-1.251008 -0.36908,-0.306309 -0.821751,-1.360737 -1.00593,-2.343179 -0.347358,-1.852793 -1.574445,-4.410605 -2.410706,-5.024991 -0.264496,-0.194323 -0.292912,-0.356629 -0.06314,-0.36068 0.229767,-0.004 -0.196522,-0.818888 -0.947304,-1.810753 -0.750784,-0.991864 -1.587994,-2.102553 -1.860468,-2.468199 -1.070909,-1.437109 -5.063994,-5.4885276 -5.063994,-5.137973 0,0.204613 -0.764954,-0.2996116 -1.699897,-1.1205026 -0.934943,-0.820891 -2.074134,-1.49253 -2.531534,-1.49253 -0.866592,0 -5.796242,-1.692008 -6.249127,-2.144892 -0.142795,-0.142793 1.273254,-0.259628 3.146775,-0.259628 2.286965,0 3.478836,0.197548 3.626816,0.601131 0.176331,0.480904 0.347854,0.480904 0.857612,0 0.350459,-0.330621 1.549712,-0.601131 2.665009,-0.601131 1.171558,0 2.130805,0.253831 2.271725,0.601131 0.167502,0.412808 0.368379,0.441407 0.641207,0.09129 0.605909,-0.777568 10.180931,-0.871506 11.105044,-0.10895 0.595024,0.490998 0.791678,0.494646 0.952214,0.01767 0.23926,-0.710872 2.526694,-0.819713 2.526694,-0.120224 0,0.264496 0.324609,0.480904 0.721355,0.480904 0.396745,0 0.721354,-0.216408 0.721354,-0.480904 0,-0.264498 0.541018,-0.480904 1.202262,-0.480904 0.661241,0 1.202259,0.242904 1.202259,0.539787 0,0.381786 0.178741,0.391446 0.610631,0.03301 0.370137,-0.30719 3.808606,-0.522656 8.730557,-0.547093 7.097572,-0.03523 8.237138,0.06576 9.050872,0.802191 0.872299,0.789416 0.968414,0.79127 1.525473,0.02946 0.697704,-0.954172 4.447373,-1.009232 4.807561,-0.0706 0.240358,0.626372 -1.91653,2.282799 -2.50164,1.921179 -0.193527,-0.119602 -1.056775,0.07893 -1.91833,0.44119 -0.861555,0.362257 -1.616834,0.617363 -1.6784,0.566899 -0.06156,-0.05046 -0.646996,0.283025 -1.30097,0.741085 -0.653965,0.458057 -1.489411,0.8328336 -1.856538,0.8328336 -1.342671,0 -11.538548,5.358403 -13.532601,7.112005 -3.234069,2.844086 -6.264749,5.869025 -6.264749,6.25288 0,0.254955 -0.312719,0.723093 -0.694931,1.040299 -0.382211,0.317209 -0.93468,1.731592 -1.227703,3.14307 -0.569246,2.742051 -1.597761,3.678076 -2.398168,2.182508 z m 1.828782,-4.582292 c 0.301281,-0.661244 0.461917,-1.202259 0.356976,-1.202259 -0.10495,0 -0.505196,-0.120642 -0.889442,-0.268092 -0.800476,-0.30717 -1.407351,0.880986 -0.996654,1.951255 0.401587,1.046519 0.905365,0.888081 1.52912,-0.480904 z m -1.595663,-4.094269 c 0,-1.024292 -1.325954,-0.885594 -1.478631,0.154665 -0.08631,0.588108 0.132265,0.819391 0.675513,0.714772 0.441713,-0.08507 0.803118,-0.476313 0.803118,-0.869437 z m 4.474896,-0.503007 c 0.56811,-0.90969 0.540504,-0.948714 -0.338437,-0.478319 -1.227352,0.65686 -1.732714,1.468816 -0.914194,1.468816 0.348735,0 0.912416,-0.445722 1.252631,-0.990497 z m -5.488977,-2.172562 c 0.146902,-0.382821 -0.0226,-0.684173 -0.384839,-0.684173 -0.771626,0 -1.838915,1.170453 -1.435315,1.574051 0.42454,0.42454 1.521579,-0.111805 1.820154,-0.889878 z m 4.048405,0.397862 c -0.08914,-0.46287 -0.480759,-0.841582 -0.870257,-0.841582 -0.389498,0 -0.781119,0.378712 -0.870257,0.841582 -0.113715,0.590478 0.145944,0.841581 0.870257,0.841581 0.724313,0 0.983972,-0.251103 0.870257,-0.841581 z m 2.496068,-2.204144 c 0,-0.90452 -0.462787,-1.259175 -1.249275,-0.957371 -1.022908,0.392528 -0.806029,1.598578 0.28747,1.598578 0.528992,0 0.961805,-0.288544 0.961805,-0.641207 z M 44.964747,16.30446 c 0,-0.396745 -0.203634,-0.721355 -0.452522,-0.721355 -0.60641,0 -1.040723,0.750975 -0.656516,1.135182 0.541591,0.541586 1.109038,0.329848 1.109038,-0.413827 z m 4.162184,-0.02074 c 0.156625,-0.408154 0.155061,-0.871805 -0.0034,-1.030338 -0.415817,-0.415816 -1.794203,0.837732 -1.480066,1.34602 0.41045,0.664117 1.169537,0.502589 1.48354,-0.315682 z m 5.936795,-1.690804 c 0,-0.966518 -0.701638,-1.262541 -1.175438,-0.495919 -0.38407,0.621437 0.228145,2.014807 0.744923,1.695415 0.236784,-0.146338 0.430515,-0.686112 0.430515,-1.199496 z m 3.270146,0.894008 c 0.847828,-0.84783 0.705342,-1.34653 -0.384722,-1.34653 -0.641205,0 -0.961808,0.320603 -0.961808,0.961808 0,1.090067 0.498702,1.232553 1.34653,0.384722 z M 43.103414,13.52941 c -0.641816,-0.641816 -1.521177,0.0092 -1.187376,0.879107 0.216344,0.563787 0.423031,0.595881 0.961181,0.149254 0.435641,-0.36155 0.518101,-0.736454 0.226195,-1.028361 z m 7.887557,0.635132 c -0.177012,-0.286409 -0.546399,-0.38196 -0.820854,-0.212333 -0.323107,0.199689 -0.273918,0.447526 0.139528,0.70305 0.771736,0.476959 1.123016,0.223954 0.681326,-0.490717 z m -3.485542,-0.362961 c -0.324943,-0.846783 -1.578877,-0.792403 -1.578877,0.06847 0,0.381619 0.407318,0.660786 0.908973,0.622999 0.531061,-0.04 0.809578,-0.327483 0.669904,-0.691469 z m 13.810043,-0.863449 c 0,-0.396745 -0.324606,-0.721357 -0.721354,-0.721357 -0.750967,0 -0.954098,0.568767 -0.400752,1.122111 0.553342,0.553341 1.122106,0.350213 1.122106,-0.400754 z M 52.879124,12.73091 c 0.152173,-0.246221 0.05674,-0.583604 -0.212074,-0.749739 -0.268811,-0.166134 -0.488746,0.03532 -0.488746,0.447675 0,0.84472 0.288565,0.969098 0.70082,0.302064 z M 41.357968,12.216775 c 0.165732,-0.268163 -0.194006,-0.477645 -0.813202,-0.473538 -0.893345,0.0059 -0.969399,0.09849 -0.389059,0.473538 0.894836,0.578286 0.844859,0.578286 1.202261,0 z m 3.678912,-0.240451 c 0,-0.251272 -0.232635,-0.534405 -0.516969,-0.629182 -0.284335,-0.09478 -0.516972,0.188352 -0.516972,0.629182 0,0.440828 0.232637,0.723961 0.516972,0.629182 0.284334,-0.09478 0.516969,-0.37791 0.516969,-0.629182 z m 18.856018,-0.959191 c 0.135998,-0.354407 -0.04251,-0.755576 -0.396709,-0.89149 -0.812821,-0.3119086 -1.218911,0.08601 -1.218911,1.194382 0,0.978331 1.211095,0.751279 1.61562,-0.302892 z m -8.433234,-0.403146 c 0.09204,-0.474538 -0.153294,-0.8017296 -0.601131,-0.8017296 -0.446101,0 -0.756615,0.4111706 -0.756615,1.0018816 0,1.171985 1.123762,1.006324 1.357746,-0.200152 z m 3.451288,0.131697 c 0,-0.544606 -0.206952,-0.8622846 -0.459898,-0.705956 -0.252947,0.156329 -0.337995,0.601913 -0.189,0.990189 0.381465,0.994082 0.648898,0.876938 0.648898,-0.284233 z M 44.002939,10.585063 c 0,-0.10395 -0.32461,-0.313563 -0.721355,-0.46581 -0.396748,-0.1522456 -0.721357,-0.0672 -0.721357,0.189 0,0.256196 0.324609,0.465812 0.721357,0.465812 0.396745,0 0.721355,-0.08505 0.721355,-0.189002 z M 56.987342,9.2351724 c 0,-0.776859 -0.142209,-0.915781 -0.535184,-0.522806 -0.294349,0.294352 -0.389784,0.770445 -0.212069,1.057989 0.497441,0.8048786 0.747253,0.6259646 0.747253,-0.535183 z m 4.320767,-0.985853 c 0.0038,-0.198372 -0.209042,-0.360678 -0.473541,-0.360678 -0.264496,0 -0.477591,0.486916 -0.47354,1.082035 0.006,0.874974 0.09658,0.943994 0.47354,0.360677 0.2564,-0.396745 0.469493,-0.88366 0.473541,-1.082034 z m -19.228786,0.09716 c 0,-0.868254 -0.866508,-0.874202 -1.093155,-0.0075 -0.168516,0.644409 -0.0407,0.843674 0.42623,0.664496 0.366808,-0.140758 0.666925,-0.436404 0.666925,-0.656992 z m 7.213557,0.532355 c 0,-0.248888 -0.18034,-0.563978 -0.400751,-0.700201 -0.220419,-0.136223 -0.400756,0.06741 -0.400756,0.452522 0,0.385109 0.180337,0.700201 0.400756,0.700201 0.220411,0 0.400751,-0.203636 0.400751,-0.452522 z m 16.876082,-0.268835 c -0.0034,-0.264496 -0.447735,-0.550055 -0.987208,-0.634577 -0.967184,-0.151529 -1.301197,0.394388 -0.64363,1.051955 0.467606,0.467611 1.638572,0.167931 1.630838,-0.417378 z m 4.283684,-0.240451 c 0,-0.264496 -0.216408,-0.480904 -0.480904,-0.480904 -0.264499,0 -0.480904,0.216408 -0.480904,0.480904 0,0.264496 0.216405,0.480904 0.480904,0.480904 0.264496,0 0.480904,-0.216408 0.480904,-0.480904 z M 40.155707,7.1672874 c 0,-0.396746 -0.216406,-0.721358 -0.480902,-0.721358 -0.264498,0 -0.480904,0.324612 -0.480904,0.721358 0,0.396745 0.216406,0.721354 0.480904,0.721354 0.264496,0 0.480902,-0.324609 0.480902,-0.721354 z m 10.778243,0.430511 c 0.416857,-0.159964 0.638194,-0.484574 0.491853,-0.721355 -0.403424,-0.652758 -1.035365,-0.516109 -1.345026,0.290844 -0.309316,0.806069 -0.22992,0.846132 0.853173,0.430511 z m 8.457906,-0.647893 c 0,-0.220591 -0.30326,-0.517446 -0.673909,-0.659678 -0.59222,-0.227256 -0.667496,0.122034 -0.324689,1.50657 0.0778,0.314227 0.998598,-0.466686 0.998598,-0.846892 z m 3.717518,0.01024 c -0.03847,-0.510669 -0.231971,-0.828349 -0.430014,-0.705956 -0.198041,0.122397 -0.238168,0.540219 -0.08917,0.928492 0.375697,0.979054 0.602379,0.881891 0.519189,-0.222536 z m 10.118486,0.05685 c 0.106331,-0.319 -0.251875,-0.571074 -0.811527,-0.571074 -0.99899,0 -1.298406,0.504981 -0.671256,1.132128 0.445543,0.445543 1.248529,0.141711 1.482783,-0.561054 z m -37.400287,-0.09017 c 0,-0.264496 -0.432813,-0.480904 -0.961807,-0.480904 -0.528994,0 -0.961808,0.216408 -0.961808,0.480904 0,0.264496 0.432814,0.480904 0.961808,0.480904 0.528994,0 0.961807,-0.216408 0.961807,-0.480904 z m 12.022595,0.268833 c 0,-0.507582 -0.922906,-0.720831 -1.197411,-0.276678 -0.166132,0.268812 0.0353,0.488749 0.447672,0.488749 0.412356,0 0.749739,-0.09543 0.749739,-0.212071 z m 7.213558,-0.268833 c 0,-0.264496 -0.216406,-0.480904 -0.480904,-0.480904 -0.264497,0 -0.480904,0.216408 -0.480904,0.480904 0,0.264496 0.216407,0.480904 0.480904,0.480904 0.264498,0 0.480904,-0.216408 0.480904,-0.480904 z m 32.75527,-1.000757 c -3.363312,-0.660588 -2.923037,-0.922859 1.549196,-0.922859 3.384142,0 4.167836,0.135641 4.167836,0.721357 0,0.818425 -2.184075,0.895406 -5.717032,0.201502 z"
     style="fill:#000000;stroke-width:0.48090377" />
</svg>
