<?xml version="1.0" encoding="UTF-8" standalone="no"?>
<svg
   xmlns:dc="http://purl.org/dc/elements/1.1/"
   xmlns:cc="http://creativecommons.org/ns#"
   xmlns:rdf="http://www.w3.org/1999/02/22-rdf-syntax-ns#"
   xmlns:svg="http://www.w3.org/2000/svg"
   xmlns="http://www.w3.org/2000/svg"
   id="svgK6"
   version="1.1"
   viewBox="0 0 100 100"
   height="100"
   width="100">
  <defs
     id="defs2" />
  <metadata
     id="metadata5">
    <rdf:RDF>
      <cc:Work
         rdf:about="">
        <dc:format>image/svg+xml</dc:format>
        <dc:type
           rdf:resource="http://purl.org/dc/dcmitype/StillImage" />
        <dc:title></dc:title>
      </cc:Work>
    </rdf:RDF>
  </metadata>
  <path
     id="pathK6"
     d="M 7,50 V 5 H 50.004928 93.009856 V 50 95 H 50.004928 7 Z m 84.679807,0 V 6.330049 H 50.004928 8.330049 V 50 93.66995 H 50.004928 91.679807 Z M 46.790643,90.08228 c -1.006085,-0.57904 -0.97815,-1.08989 0.145933,-2.66851 0.945008,-1.32715 1.411027,-3.81498 0.862767,-4.60589 -0.646426,-0.93253 -2.274863,-6.47223 -2.526078,-8.59335 -0.352858,-2.97935 0.502435,-6.21819 1.989461,-7.53372 1.281334,-1.13357 3.636408,-2.27194 4.700194,-2.27194 1.131633,0 2.912751,2.03525 3.149938,3.59937 0.640645,4.22467 0.741201,6.9358 0.268098,7.22819 -0.274548,0.16968 -0.49918,0.87083 -0.49918,1.55811 0,0.68728 -0.255946,1.46201 -0.568769,1.72164 -0.312823,0.25962 -0.617693,1.11405 -0.677483,1.89875 -0.05979,0.7847 -0.432847,1.66373 -0.829011,1.95341 -0.396168,0.28969 -0.578292,0.75647 -0.404729,1.03731 0.173567,0.28083 0.125636,0.51061 -0.106506,0.51061 -0.700001,0 -1.032447,1.45411 -0.421129,1.842 0.313062,0.19864 0.405323,0.36422 0.205022,0.36796 -0.200296,0.004 -0.05067,0.3203 0.332513,0.70348 0.981873,0.98187 0.897468,2.40675 -0.142573,2.40675 -0.461598,0 -0.954102,0.29926 -1.094462,0.66503 -0.343091,0.89408 -1.891685,0.8471 -2.242862,-0.0681 -0.258034,-0.67242 -0.32615,-0.67398 -0.823296,-0.0188 -0.403626,0.53191 -0.740053,0.60024 -1.317848,0.2677 z m 5.700546,-12.67903 c 1.055971,-2.80545 1.085285,-3.08983 0.454789,-4.41199 -0.589855,-1.23694 -0.59275,-1.44441 -0.02319,-1.66297 0.466254,-0.17892 0.564917,-0.5981 0.348034,-1.47865 -1.215394,-4.93448 -4.726507,-3.91087 -5.72795,1.66987 -0.459,2.55788 -0.308341,3.76148 0.767775,6.13368 0.483757,1.06639 0.95181,2.31407 1.040117,2.7726 0.488336,2.53574 1.366404,1.69064 3.140437,-3.02254 z m -18.58144,7.68845 c -0.136326,-0.35525 0.0036,-0.98982 0.310974,-1.41016 0.465141,-0.63612 0.724678,-0.67549 1.548018,-0.23485 0.555132,0.29709 0.927151,0.85672 0.847814,1.27534 -0.181481,0.95756 -2.366694,1.256 -2.706806,0.36967 z m 29.022492,-2.55789 c -0.437138,-0.69996 -0.407137,-0.90296 0.165946,-1.12287 0.384748,-0.14764 1.113876,-0.0836 1.620284,0.14241 0.90939,0.40578 0.907342,0.41962 -0.16595,1.12287 -1.016211,0.66584 -1.121285,0.65661 -1.62028,-0.14241 z M 25.44645,80.55487 c -0.148012,-0.3857 -0.272163,-1.13386 -0.275901,-1.66256 -0.0054,-0.75673 -0.09345,-0.82427 -0.414093,-0.31742 -0.22402,0.35412 -0.31977,0.7855 -0.212777,0.95862 0.218732,0.35391 -0.549239,0.24402 -1.650196,-0.23612 -0.721237,-0.31454 -0.844196,-1.26786 -0.241289,-1.87076 0.710504,-0.71051 0.285318,-2.27999 -0.686514,-2.53413 -0.92942,-0.24305 -0.94617,-0.30891 -0.254434,-1.00065 0.623541,-0.62354 1.033936,-0.66598 2.598753,-0.2688 2.225225,0.56483 2.921905,0.35936 3.252875,-0.95933 0.339747,-1.35366 1.457042,-3.76882 2.48568,-5.37308 0.469051,-0.73153 1.175582,-1.96133 1.57007,-2.7329 0.394488,-0.77157 1.514811,-2.24127 2.489608,-3.26599 1.595031,-1.67673 1.989173,-1.86641 3.93946,-1.89583 1.837077,-0.0277 2.346034,0.16037 3.342015,1.23506 2.177379,2.34943 0.802312,5.99215 -3.245218,8.59697 -1.157795,0.7451 -2.421076,1.66144 -2.807296,2.0363 -0.386219,0.37486 -0.934864,0.68156 -1.219211,0.68156 -0.284347,0 -0.516995,0.15244 -0.516995,0.33877 0,0.18631 -0.748153,0.66967 -1.662562,1.0741 -2.165413,0.95776 -4.544335,3.18759 -4.544335,4.25953 0,1.17324 -0.898359,3.63795 -1.325988,3.63795 -0.193899,0 -0.473644,-0.31558 -0.621652,-0.70129 z m 7.163442,-9.82827 c 0.885414,-0.67056 2.098277,-1.6681 2.695256,-2.21675 0.596979,-0.54864 1.305665,-1.00384 1.574863,-1.01154 0.818592,-0.0235 2.967783,-2.14563 3.154433,-3.11481 0.175523,-0.91143 -0.581537,-3.08026 -1.073589,-3.07561 -0.143743,10e-4 -0.959622,0.19692 -1.81307,0.43458 -1.152935,0.32105 -1.890443,0.97557 -2.869696,2.54678 -2.553207,4.09663 -4.20805,7.65656 -3.559172,7.65656 0.154622,0 1.005561,-0.54864 1.890975,-1.21921 z m 42.213832,8.51136 c -0.237963,-0.6259 -0.523645,-1.87428 -0.634841,-2.77418 -0.197326,-1.59693 -1.719856,-3.42356 -2.468128,-2.96111 -0.197619,0.12214 -0.426219,0.0276 -0.508008,-0.20997 -0.08179,-0.23763 -0.808621,-0.48169 -1.61519,-0.54237 -0.806564,-0.0607 -1.678899,-0.36628 -1.93852,-0.6791 -0.259621,-0.31282 -0.833635,-0.56877 -1.275593,-0.56877 -0.441953,0 -1.365184,-0.23016 -2.051623,-0.51147 -0.686443,-0.28131 -1.547335,-0.56994 -1.913098,-0.6414 -1.290255,-0.25209 -4.361211,-3.99615 -4.682515,-5.70886 -0.177092,-0.94398 -0.127419,-1.7814 0.115249,-1.94297 0.234563,-0.15618 0.702212,-0.91798 1.03922,-1.69288 0.337008,-0.7749 0.769917,-1.31177 0.96202,-1.19304 0.192099,0.11872 0.349276,0.005 0.349276,-0.25365 0,-0.63248 3.362804,-0.59854 4.573482,0.0462 0.892223,0.47512 1.713245,1.17317 4.736864,4.0274 0.609606,0.57545 1.173214,1.33485 1.252463,1.68756 0.07925,0.35271 0.328633,0.70778 0.554187,0.78906 0.225554,0.0813 0.410099,0.3928 0.410099,0.69227 0,0.29946 0.349137,0.93721 0.775862,1.41721 1.108223,1.2466 2.347603,3.56016 2.060818,3.84695 -0.133874,0.13387 0.170645,0.37482 0.676707,0.53543 0.506061,0.16062 0.92011,0.45316 0.92011,0.65009 0,0.19693 0.548645,0.47733 1.219212,0.62312 2.050306,0.44575 2.641017,1.02069 1.992254,1.93906 -0.306359,0.43367 -0.689449,1.08775 -0.85132,1.45351 -0.458894,1.03692 -2.125942,2.86947 -2.725298,2.99586 -0.297563,0.0627 -0.735725,-0.39802 -0.973689,-1.02391 z m -3.981356,-9.27179 c 0,-0.35728 -0.619191,-1.35482 -1.375976,-2.21675 -0.756789,-0.86193 -1.238431,-1.56715 -1.070313,-1.56715 0.168114,0 -0.409739,-0.69475 -1.284122,-1.54389 -0.874384,-0.84915 -1.589786,-1.70337 -1.589786,-1.89829 0,-0.19491 -0.891785,-0.61771 -1.981743,-0.93953 -1.686697,-0.49802 -2.076778,-0.4901 -2.620087,0.0532 -1.718047,1.71804 -0.889262,4.19472 1.967734,5.88022 1.239965,0.73153 2.389775,1.34677 2.555126,1.3672 0.165357,0.0204 0.799413,0.24574 1.409019,0.50069 2.567372,1.0737 3.990148,1.2036 3.990148,0.36429 z m 10.537081,-4.11144 c -1.110937,-0.25727 -0.713408,-1.9532 0.569034,-2.4276 0.579441,-0.21435 0.912937,-0.24913 0.7411,-0.0773 -0.171834,0.17184 -0.118033,0.54666 0.119562,0.83295 0.588955,0.70964 -0.431579,1.9031 -1.429696,1.67195 z M 17.431378,64.25127 c -1.07962,-0.78943 -0.619958,-2.07698 0.625248,-1.75136 0.955924,0.24999 1.142632,0.86219 0.54837,1.79809 -0.278823,0.43912 -0.522457,0.42941 -1.173618,-0.0467 z M 46.01478,60.34506 c -2.448545,-1.41613 -3.307602,-2.40837 -4.176053,-4.82345 -0.971499,-2.70164 -0.784396,-5.2615 0.592453,-8.10568 1.144064,-2.36333 1.375652,-2.56247 4.190059,-3.60311 4.610961,-1.70493 8.482792,-0.18911 10.249005,4.01247 1.568128,3.73037 0.355868,9.47663 -2.343826,11.11001 -0.658002,0.39811 -1.736934,1.09425 -2.397627,1.54697 -1.552935,1.06413 -4.137127,1.00613 -6.114011,-0.13721 z m 4.876848,-1.69974 c 0,-0.24384 0.467849,-0.44335 1.039659,-0.44335 1.392447,0 2.433117,-1.24102 3.217868,-3.83739 0.800318,-2.64785 0.189572,-5.87426 -1.497595,-7.91138 -1.424301,-1.71972 -2.91017,-1.99323 -5.594968,-1.02989 -1.831628,0.65721 -4.482753,2.58162 -3.55652,2.58162 0.161277,0 0.02815,0.31939 -0.295812,0.70975 -2.01393,2.42664 -0.704443,7.39613 2.446701,9.28519 1.822491,1.09255 4.240667,1.46061 4.240667,0.64545 z m -1.551724,-4.00053 c -0.987779,-0.38874 -2.587846,-2.13608 -2.715624,-2.96558 -0.04555,-0.29564 0.293404,-0.65694 0.753216,-0.80288 0.459811,-0.14594 0.790195,-0.48609 0.734187,-0.75589 -0.056,-0.2698 0.535216,-0.68226 1.313827,-0.91658 2.259346,-0.67993 3.247865,0.69543 2.575086,3.58282 -0.389208,1.67037 -1.379837,2.36219 -2.660692,1.85811 z m -17.955666,2.22713 c -0.365763,-0.23637 -1.221619,-0.43283 -1.901899,-0.43656 -0.680281,-0.004 -2.002252,-0.39725 -2.937716,-0.87449 -0.935463,-0.47724 -1.836146,-0.7324 -2.001515,-0.56703 -0.165374,0.16537 -0.439462,0.0902 -0.609088,-0.16696 -0.169621,-0.2572 -1.63686,-1.19255 -3.260527,-2.07856 l -2.952124,-1.61093 -1.481374,1.00451 c -2.916732,1.97782 -3.942223,1.93972 -4.819859,-0.17908 -0.677567,-1.6358 0.0926,-2.81535 1.592429,-2.43892 0.72588,0.18218 1.039649,0.0172 1.210603,-0.63653 0.126921,-0.48534 0.08046,-0.88244 -0.103241,-0.88244 -0.692012,0 -2.312529,-1.7457 -2.035947,-2.19322 0.580685,-0.93957 1.964958,-0.4212 3.99438,1.49577 2.038278,1.92533 3.105252,2.22151 4.378207,1.21535 0.279922,-0.22126 1.306981,-0.56009 2.282351,-0.75296 0.975369,-0.19288 2.07266,-0.41409 2.438424,-0.49158 0.365763,-0.0775 2.759852,-0.13752 5.320197,-0.13339 2.560345,0.004 5.054191,0.006 5.541881,0.005 1.178197,-0.004 2.328681,2.07664 2.242884,4.05606 -0.0376,0.8673 -0.433286,2.38619 -0.879313,3.3753 -0.725666,1.60924 -1.040498,1.84762 -2.99333,2.26643 -2.580668,0.55345 -2.211867,0.55044 -3.025423,0.0247 z m 3.102557,-2.27588 c 4.44e-4,-0.15444 0.419977,-0.39039 0.932197,-0.52434 0.512219,-0.13395 0.810239,-0.43944 0.662262,-0.67887 -0.147972,-0.23943 -0.07038,-0.50224 0.172432,-0.58403 0.488221,-0.16444 -0.210201,-3.28197 -0.819647,-3.65863 -0.623266,-0.3852 -5.05777,-0.34665 -8.969418,0.078 -5.224017,0.56708 -6.128025,1.20703 -3.282353,2.32359 0.853448,0.33486 1.551724,0.78289 1.551724,0.99561 0,0.21272 0.14963,0.29858 0.332512,0.1908 0.182882,-0.10778 1.729064,0.35804 3.435961,1.03515 2.798424,1.11011 5.982038,1.54781 5.98433,0.82275 z m 50.638392,0.73882 c -1.02393,-1.17763 -3.365437,-1.52893 -4.890782,-0.73378 -0.410693,0.21409 -2.296335,0.50694 -4.190316,0.65077 -1.893982,0.14383 -4.426777,0.39193 -5.628432,0.55134 -2.875212,0.38141 -4.978561,-0.0493 -6.32223,-1.29454 -0.876613,-0.81242 -1.097131,-1.45643 -1.112342,-3.24854 -0.01813,-2.13439 0.06236,-2.28796 1.783836,-3.40419 1.659201,-1.07585 2.079226,-1.15144 5.272962,-0.94905 2.804866,0.17775 4.255857,0.56847 7.568358,2.03796 5.165268,2.29143 6.512754,2.57224 6.814064,1.42004 0.241226,-0.92245 1.862397,-2.14129 2.285432,-1.71825 0.142883,0.14288 0.03303,0.48653 -0.244095,0.76366 -0.681637,0.68164 0.147795,2.21245 1.145155,2.11352 1.411519,-0.14001 1.513348,0.0303 0.73158,1.22341 -0.43082,0.65751 -0.802902,1.70237 -0.826852,2.32191 -0.05876,1.52006 -1.186523,1.64564 -2.386338,0.26574 z M 70.118422,53.67314 c -0.164864,-0.26676 -0.107791,-0.36638 0.126834,-0.22137 0.670154,0.41417 8.640594,-0.45584 9.187634,-1.00288 0.60821,-0.60821 0.01858,-1.01816 -2.542065,-1.76743 -1.01015,-0.29558 -2.435156,-0.81431 -3.166684,-1.15274 -2.925611,-1.35346 -7.320298,-1.14785 -8.296998,0.38818 -0.52697,0.82876 -0.403905,2.81033 0.205865,3.31471 0.494295,0.40886 1.110888,0.53893 3.999729,0.84369 0.468479,0.0494 0.664479,-0.11287 0.485685,-0.40216 z m -8.48489,-11.72849 c -0.837373,-0.33692 -1.772313,-2.400986 -1.773373,-3.915093 -0.0018,-2.631073 1.31377,-4.070423 8.100436,-8.862285 1.706896,-1.205189 3.203202,-2.310066 3.325123,-2.455283 0.121921,-0.145218 0.915278,-0.457402 1.763016,-0.693743 1.28246,-0.35754 1.625812,-0.725278 2.044294,-2.189497 0.440176,-1.54014 0.649862,-1.743717 1.679994,-1.63106 0.741436,0.08108 1.274028,-0.124014 1.4391,-0.554187 0.144133,-0.375601 0.639727,-0.682911 1.101325,-0.682911 1.01927,0 1.035519,0.17503 0.142733,1.537593 -0.542253,0.827582 -0.587368,1.267028 -0.203675,1.983963 0.413578,0.772778 0.310092,1.0903 -0.643336,1.973906 -0.624906,0.579144 -1.458089,1.026016 -1.851513,0.993049 -0.66671,-0.05587 -1.962488,1.799653 -2.290904,3.2805 -0.07925,0.35734 -0.328633,0.716211 -0.554187,0.797492 -0.225554,0.08128 -0.410098,0.441902 -0.410098,0.801379 0,1.870473 -4.495443,8.260757 -6.495575,9.233477 -1.342344,0.65282 -4.196723,0.85612 -5.37336,0.3827 z m 3.945334,-2.102276 c 1.366972,-0.572022 3.490103,-2.817443 3.490103,-3.691133 0,-0.199373 0.558975,-0.974495 1.242164,-1.722492 0.683193,-0.747998 1.154509,-1.62297 1.047369,-1.944383 -0.107135,-0.321412 0.170052,-0.851166 0.615973,-1.177232 0.445921,-0.326066 0.665863,-0.592848 0.488758,-0.592848 -0.17711,0 -0.108466,-0.399015 0.152534,-0.8867 0.261,-0.487684 0.384092,-0.886699 0.273534,-0.886699 -0.110559,0 -0.516592,-0.121099 -0.902297,-0.269108 -0.47704,-0.183057 -0.701286,-0.01766 -0.701286,0.517241 0,0.432492 -0.129995,0.656355 -0.288878,0.497474 -0.367781,-0.367781 -4.177193,2.357105 -6.915556,4.946721 -2.161569,2.04415 -2.564694,3.262418 -1.646964,4.977213 0.546676,1.021472 1.151233,1.066062 3.144546,0.231946 z m 7.480251,-11.788187 c 0,-0.243842 -0.08798,-0.443349 -0.195509,-0.443349 -0.10753,0 -0.318812,0.199507 -0.469516,0.443349 -0.150703,0.243843 -0.06273,0.44335 0.195509,0.44335 0.258233,0 0.469516,-0.199507 0.469516,-0.44335 z M 35.311373,40.111483 c -2.538253,-1.769242 -5.650245,-6.618171 -7.026908,-10.948921 -0.310047,-0.97537 -0.779785,-2.172414 -1.043853,-2.660099 -0.264068,-0.487684 -0.487197,-1.080526 -0.495838,-1.317425 -0.0086,-0.2369 -0.813738,-0.735668 -1.789107,-1.108374 -2.812815,-1.074828 -4.172959,-2.166816 -3.975571,-3.191773 0.273849,-1.421978 1.098727,-2.141048 2.4561,-2.141048 0.705489,0 1.433244,-0.320761 1.664233,-0.733519 0.810794,-1.448814 1.751374,-0.368507 1.60361,1.841835 -0.117497,1.757517 0.04607,2.25719 1.099875,3.35989 0.680843,0.712437 1.395257,1.29534 1.587587,1.29534 0.192329,0 1.168266,0.661069 2.168747,1.469042 1.000485,0.807973 3.375913,2.431332 5.278735,3.607465 1.902818,1.176133 3.9528,2.784952 4.555517,3.575152 2.095191,2.746941 0.743036,5.95345 -2.979679,7.066011 -1.830777,0.547141 -2.173544,0.534601 -3.103448,-0.113576 z m 3.980257,-2.568447 c 0.831697,-0.582543 0.956868,-0.955065 0.705493,-2.099577 -0.333315,-1.517566 -0.489653,-1.673017 -4.401062,-4.376049 -1.463054,-1.011063 -2.759852,-1.976012 -2.881773,-2.14433 -0.121922,-0.168317 -0.669312,-0.445722 -1.216424,-0.616453 -0.778637,-0.242982 -0.947194,-0.159646 -0.775862,0.383594 0.210795,0.668367 0.702226,2.007835 0.905258,2.467415 0.05386,0.121921 0.243994,0.670566 0.422513,1.219212 0.178519,0.548645 0.534072,0.997537 0.790111,0.997537 0.256044,0 0.330704,0.13483 0.165915,0.299621 -0.164793,0.164792 0.08914,0.713437 0.564287,1.219212 0.475151,0.505775 0.920651,1.119098 0.989995,1.36294 0.542917,1.909038 2.92019,2.555604 4.731549,1.286878 z m 42.794811,0.929871 c -0.291166,-0.758762 0.08393,-1.99843 0.601621,-1.988285 0.190534,0.0037 0.614199,0.176503 0.941475,0.383933 0.496304,0.314556 0.497,0.534151 0.004,1.32326 -0.694662,1.112334 -1.193533,1.202963 -1.547286,0.281092 z M 49.085603,35.821878 c -1.001093,-0.544375 -2.517034,-3.714017 -2.272567,-4.751649 0.04003,-0.169995 0.119181,-1.416916 0.175841,-2.770936 0.05666,-1.35402 0.247283,-2.461854 0.423603,-2.461854 0.176325,0 0.317989,-0.349138 0.31481,-0.775862 -0.0031,-0.426725 0.221989,-1.573892 0.500378,-2.549262 1.356512,-4.75268 1.455716,-6.970099 0.4212,-9.41499 -0.487095,-1.151173 -0.497053,-1.544704 -0.05039,-1.991368 0.446666,-0.446664 0.628448,-0.440542 0.919862,0.03098 0.442995,0.716774 0.929939,-0.296568 0.929939,-1.93521 0,-2.01416 1.586718,-1.914637 1.897072,0.118989 0.198048,1.297751 0.753836,1.813722 0.798029,0.74086 0.01951,-0.473339 0.134464,-0.603043 0.259541,-0.292805 0.123496,0.306322 0.407009,0.444179 0.630023,0.306348 0.572666,-0.353928 0.506021,0.853899 -0.07942,1.439339 -0.819896,0.819898 -0.708748,5.586507 0.161233,6.914261 0.421861,0.643844 0.767022,1.532268 0.767022,1.974275 0,0.442008 0.310819,1.247407 0.690708,1.789775 0.379893,0.542369 0.562225,1.194022 0.405181,1.448118 -0.157039,0.254097 -0.05167,0.743775 0.23416,1.088176 0.285828,0.344401 0.415002,0.795566 0.287056,1.002589 -0.127951,0.207023 -0.07518,1.074528 0.117261,1.927789 0.47231,2.094159 -0.918337,6.474852 -2.481947,7.818423 -1.325257,1.138758 -3.33521,1.275717 -5.048592,0.344013 z m 5.303248,-7.9251 c -0.08771,-2.955966 -0.33707,-4.414759 -0.920403,-5.384463 -0.440061,-0.731526 -0.800854,-1.767166 -0.801763,-2.30142 -0.0022,-1.381712 -0.751274,-1.664903 -1.365885,-0.51649 -0.907945,1.696507 -2.119239,7.426517 -2.119239,10.025032 0,2.847939 0.46186,3.980424 1.849886,4.535967 0.782592,0.313225 1.209432,0.129237 2.223129,-0.95828 1.211089,-1.29928 1.250406,-1.486466 1.134275,-5.400346 z m -40.12078,7.509549 c -0.366952,-0.956261 0.143615,-2.147587 0.823295,-1.921027 0.304675,0.101558 0.553954,0.650169 0.553954,1.219134 0,1.215147 -0.987228,1.718272 -1.377249,0.701893 z M 67.147682,15.451134 c -0.319088,-0.831533 0.727741,-1.674058 1.643417,-1.322679 0.962296,0.369266 0.910659,0.936008 -0.136334,1.49634 -1.109722,0.593907 -1.217297,0.581511 -1.507083,-0.173661 z M 35.561271,14.154762 c -0.197618,-0.513036 -0.08417,-0.964682 0.302697,-1.205004 0.790537,-0.491087 1.043743,0.190152 0.458309,1.233046 -0.424672,0.756507 -0.459293,0.755232 -0.761006,-0.02804 z"
     style="fill:#000000;stroke-width:0.44334975" />
</svg>
