<?xml version="1.0" encoding="UTF-8" standalone="no"?>
<svg
   xmlns:dc="http://purl.org/dc/elements/1.1/"
   xmlns:cc="http://creativecommons.org/ns#"
   xmlns:rdf="http://www.w3.org/1999/02/22-rdf-syntax-ns#"
   xmlns:svg="http://www.w3.org/2000/svg"
   xmlns="http://www.w3.org/2000/svg"
   id="svgK7"
   version="1.1"
   viewBox="0 0 100 100"
   height="100"
   width="100">
  <defs
     id="defs2" />
  <metadata
     id="metadata5">
    <rdf:RDF>
      <cc:Work
         rdf:about="">
        <dc:format>image/svg+xml</dc:format>
        <dc:type
           rdf:resource="http://purl.org/dc/dcmitype/StillImage" />
        <dc:title></dc:title>
      </cc:Work>
    </rdf:RDF>
  </metadata>
  <path
     id="pathK7"
     d="M 7.137841,50.13808 7.275683,5.276159 50.290336,5.138079 93.304994,5 l -5.3e-5,44.99995 -5.2e-5,44.99995 -43.152446,5e-5 L 7,95 Z M 92.120258,49.99995 92.255273,6.319647 H 50.287459 8.319647 V 50.13509 93.95054 L 50.152443,93.8154 91.985242,93.68026 Z M 17.08831,90.34463 c -0.141971,-0.22971 -0.0825,-1.23592 0.132158,-2.23603 0.791238,-3.68642 0.218841,-3.82906 -2.970231,-0.7402 -1.635833,1.58442 -3.164347,2.88078 -3.396698,2.88078 -0.673449,0 -0.488502,-3.13097 0.237366,-4.01837 0.362902,-0.44366 1.102649,-1.20562 1.64388,-1.69326 2.146845,-1.93424 5.1749,-5.31151 5.126347,-5.71754 -0.02827,-0.23641 -1.731028,-0.35224 -3.783909,-0.2574 -3.621111,0.16728 -3.727281,0.13668 -3.557361,-1.02533 0.158432,-1.08345 0.481032,-1.20558 3.38014,-1.2797 1.762745,-0.0451 3.484884,-0.25492 3.826975,-0.46634 0.342091,-0.21143 0.621984,-0.11634 0.621984,0.21131 0,0.32765 0.534457,0.51418 1.187682,0.41452 0.653225,-0.0997 1.139652,-0.43843 1.080949,-0.75281 -0.0587,-0.31438 0.484059,-0.88778 1.206138,-1.27422 0.72208,-0.38645 1.200797,-0.99469 1.063817,-1.35166 -0.136981,-0.35697 0.151634,-0.81125 0.641366,-1.00951 0.750275,-0.30375 0.684203,-0.4397 -0.419785,-0.86379 -0.881063,-0.33845 -1.37129,-0.32006 -1.496696,0.0562 -0.102568,0.3077 -0.435379,0.40564 -0.73958,0.21763 -0.3042,-0.188 -2.233071,-0.43849 -4.28638,-0.55664 -2.053308,-0.11815 -4.050791,-0.47831 -4.438852,-0.80038 -1.517676,-1.25956 0.450023,-1.69003 7.836233,-1.71434 l 7.437499,-0.0245 1.253902,-1.57174 c 1.068017,-1.33874 1.135958,-1.63775 0.4583,-2.01699 -0.437582,-0.24488 -1.439755,-0.30524 -2.227051,-0.13413 -1.922644,0.41787 -6.398615,0.43181 -8.029683,0.025 -0.725806,-0.18102 -1.933801,-0.39443 -2.684434,-0.47424 -0.750633,-0.0798 -1.641394,-0.31605 -1.97947,-0.525 -0.338075,-0.20894 -0.614683,-0.24943 -0.614683,-0.09 0,0.15945 -0.454214,-0.099 -1.009364,-0.57434 -0.55515,-0.47533 -0.886041,-1.18561 -0.735313,-1.5784 0.334698,-0.87221 2.800395,-0.95879 2.800395,-0.0983 0,0.3387 0.136648,0.47918 0.303662,0.31217 0.167015,-0.16702 1.057776,-0.0656 1.97947,0.22531 2.360264,0.74503 5.252214,0.87967 6.030642,0.28078 0.37888,-0.2915 0.659823,-0.30252 0.659823,-0.0259 0,0.53799 3.663591,0.49803 6.241072,-0.0681 0.922245,-0.20257 1.676808,-0.59533 1.676808,-0.8728 0,-0.28713 0.511702,-0.23826 1.187679,0.11345 0.653231,0.33986 1.023809,0.44167 0.823523,0.22625 -0.441786,-0.47516 0.729422,-1.85039 1.287912,-1.51227 0.217747,0.13182 0.395894,-0.0119 0.395894,-0.31933 0,-0.30746 -0.534452,-0.5729 -1.187682,-0.58986 C 20.4276,58.72071 17.675497,58.39318 13.75262,56.65866 11.734644,55.76641 11.161756,54.99649 11.938137,54.2201 c 0.408753,-0.40875 1.211324,-0.36796 2.830836,0.14387 1.243188,0.3929 2.37911,0.73334 2.524271,0.75654 0.145161,0.0232 0.583812,0.2449 0.97478,0.49267 1.576331,0.999 19.083847,1.2188 19.083847,0.23959 0,-0.24328 0.29692,-0.44979 0.659823,-0.45891 0.73015,-0.0184 2.807337,-2.60221 2.13608,-2.6571 -0.231297,-0.0189 -3.864812,-0.13101 -8.074487,-0.2491 -8.551322,-0.23987 -13.809892,-0.67256 -19.398806,-1.5962 -4.052636,-0.66975 -2.296188,-3.41561 2.243399,-3.507112 0.870967,-0.01756 2.002921,-0.24824 2.515453,-0.512632 0.512533,-0.264391 1.818983,-0.594842 2.903223,-0.734335 1.08424,-0.139493 2.683954,-0.348014 3.554921,-0.463379 1.591853,-0.210791 10.328122,-0.464911 10.8211,-0.314703 0.145167,0.04423 1.332849,0.149756 2.639294,0.234503 1.30645,0.08475 2.909826,0.325123 3.563046,0.534167 0.71613,0.229172 1.187682,0.161206 1.187682,-0.171182 0,-0.846404 -2.118846,-2.038306 -4.750728,-2.672395 -3.779289,-0.910531 -4.322181,-1.029865 -6.577099,-1.445715 -3.168257,-0.584287 -14.542057,-0.163703 -16.248337,0.600836 -0.638564,0.286125 -1.023304,0.140894 -1.259863,-0.47557 -0.620682,-1.617472 0.926241,-2.34394 5.612769,-2.635877 6.181086,-0.385036 12.157146,-0.221014 13.985731,0.383862 0.58065,0.19207 1.710985,0.461954 2.511858,0.599741 0.800877,0.137787 1.929175,0.400658 2.507328,0.584157 0.578153,0.183499 1.051189,0.176942 1.051189,-0.01457 0,-0.536328 -2.162036,-3.160791 -2.555132,-3.101636 -0.191449,0.02881 -0.585622,-0.270885 -0.87595,-0.665989 -0.290317,-0.395104 -1.002926,-0.832448 -1.583576,-0.971875 -10.879924,-2.612538 -11.299783,-2.680274 -13.724322,-2.214168 -1.537576,0.295592 -5.383775,0.516847 -7.258057,0.417524 -1.095282,-0.05804 -1.217527,-1.25945 -0.212981,-2.093149 0.845545,-0.70174 12.165121,-1.155838 14.069271,-0.564405 3.390288,1.053031 4.223401,1.075081 4.206281,0.11133 -0.0091,-0.513595 -0.54358,-1.30968 -1.187682,-1.769076 -1.067185,-0.761156 -4.96792,-2.059296 -6.581645,-2.190331 -0.362903,-0.02947 -0.659823,-0.291114 -0.659823,-0.581436 0,-0.290323 -0.15,-0.377859 -0.333334,-0.194525 -0.183334,0.183333 -0.768432,0.100476 -1.300218,-0.184127 -0.531785,-0.284603 -2.756776,-0.535861 -4.944422,-0.55835 -4.146732,-0.04263 -4.750741,-0.277959 -3.967241,-1.545689 0.683664,-1.106191 6.98554,-1.012418 10.168862,0.151315 3.028322,1.107069 3.015646,1.106127 3.015646,0.223977 0,-1.047468 -2.193874,-2.876181 -3.695011,-3.079993 -0.725805,-0.09855 -1.647194,-0.489753 -2.047531,-0.869352 -0.400337,-0.3796 -1.053562,-0.565207 -1.451612,-0.412461 -0.398049,0.152746 -0.723726,0.0746 -0.723726,-0.173653 0,-0.248256 -1.365834,-0.65649 -3.035187,-0.907187 -2.531345,-0.380146 -3.035188,-0.631061 -3.035188,-1.511529 0,-0.880519 0.306597,-1.033161 1.847506,-0.919792 1.016128,0.07476 2.486393,0.39456 3.267256,0.710667 0.780864,0.316107 1.671625,0.419074 1.97947,0.228816 0.307845,-0.190259 0.559719,-0.09437 0.559719,0.213086 0,0.307456 0.29055,0.559011 0.645666,0.559011 0.355117,0 -0.994613,-1.652946 -2.999399,-3.673213 -3.640148,-3.668256 -4.609468,-5.473963 -3.223893,-6.005658 0.452222,-0.173534 2.320028,1.428062 4.863961,4.17072 2.271403,2.448838 4.420211,4.452433 4.77513,4.452433 0.460804,0 0.599039,-1.019841 0.483485,-3.566932 -0.089,-1.961813 -0.0085,-4.003902 0.178802,-4.537975 0.658158,-1.876264 1.780421,0.565289 1.980746,4.309234 0.300845,5.622627 0.68374,6.872387 2.801246,9.143208 2.05817,2.207187 2.572424,2.191395 2.245238,-0.06895 -0.105062,-0.725808 -0.323485,-3.585293 -0.485386,-6.354414 -0.243907,-4.171727 -0.152852,-5.152211 0.5312,-5.719923 0.964307,-0.800304 2.125099,-0.286928 1.72264,0.761862 -0.152274,0.39682 -0.09503,0.833871 0.127218,0.971225 0.222244,0.137354 0.244736,1.629563 0.04999,3.316021 -0.194746,1.686458 -0.296104,3.185055 -0.225238,3.330216 0.07087,0.145162 0.279191,1.52987 0.462949,3.077129 0.183753,1.547259 0.691553,3.504445 1.128446,4.349303 0.436893,0.844857 0.806468,1.716745 0.821274,1.937529 0.01478,0.220783 0.40311,0.817113 0.862901,1.325177 0.975979,1.078444 3.207064,1.321262 2.425057,0.26393 -0.2684,-0.362903 -0.557503,-1.475489 -0.642452,-2.472413 -0.08495,-0.996923 -0.353876,-2.337119 -0.59762,-2.978213 -0.69283,-1.822282 -0.02803,-12.490207 0.834022,-13.383342 0.628511,-0.651178 0.788689,-0.592201 1.166668,0.429569 0.240967,0.651408 0.276387,2.535059 0.0787,4.185891 -0.516156,4.310349 -0.100288,10.141556 0.910508,12.766896 0.167669,0.435484 0.411609,1.623166 0.54209,2.639294 0.130481,1.016128 0.335285,2.144425 0.455109,2.507328 0.305762,0.926001 1.30672,0.824915 1.30672,-0.131964 0,-0.435484 -0.182962,-0.791788 -0.406589,-0.791788 -0.557313,0 -0.02877,-12.555806 0.633299,-15.043972 0.154499,-0.580645 0.537302,-2.160897 0.850681,-3.511673 0.431561,-1.860223 0.786129,-2.414193 1.46173,-2.283787 0.490581,0.09469 0.920681,0.190344 0.955778,0.212557 0.0351,0.02221 -0.16228,1.168685 -0.438614,2.547716 -0.91499,4.566203 -1.005074,5.611885 -1.177948,13.674142 l -0.171533,7.999662 1.593674,1.74485 1.593674,1.744849 -0.356093,-2.882349 c -0.41341,-3.346318 -0.455533,-11.263398 -0.06999,-13.154461 0.145604,-0.714183 0.406672,-2.250154 0.580153,-3.413268 0.173476,-1.163115 0.532124,-2.519683 0.796993,-3.014597 0.264869,-0.494913 0.622989,-1.789641 0.795826,-2.877172 0.172837,-1.087532 0.547532,-2.59091 0.832655,-3.34084 0.285123,-0.74993 0.456671,-1.363509 0.381219,-1.363509 -0.07546,0 0.131933,-0.475073 0.460863,-1.055718 1.004964,-1.774021 2.15133,0.01634 2.502288,3.908006 0.167653,1.859081 0.439827,3.598586 0.604831,3.865568 0.165003,0.266982 0.386936,3.923549 0.493183,8.125704 0.106248,4.202155 0.355735,7.903304 0.554416,8.224775 0.19868,0.321471 0.137897,0.446463 -0.135069,0.277759 -0.272966,-0.168703 -0.542475,0.09152 -0.598903,0.578265 -0.416222,3.590238 -1.063604,6.168701 -2.017692,8.036293 -0.08124,0.159023 0.03442,0.583782 0.256967,0.943909 0.290617,0.470236 0.976058,0.131409 2.432013,-1.202197 1.953906,-1.789705 1.993828,-1.894013 1.102,-2.879468 -0.754764,-0.834008 -0.812401,-1.233533 -0.312645,-2.167332 0.336985,-0.629661 0.476746,-1.28079 0.310581,-1.446954 -0.166164,-0.166164 -0.04207,-0.615434 0.275727,-0.998378 0.317819,-0.382943 0.678462,-3.017699 0.801438,-5.855013 0.364006,-8.398307 0.237003,-11.314699 -0.618582,-14.204741 -0.183684,-0.62046 -0.132508,-1.252621 0.113727,-1.404803 0.534383,-0.330265 2.61858,1.096313 2.384148,1.631882 -0.08984,0.205244 -0.0011,1.553414 0.197371,2.995934 0.584926,4.252919 0.312303,14.028043 -0.48288,17.314111 -0.405316,1.674968 -0.559403,3.15512 -0.342416,3.289227 0.491415,0.303712 2.845702,-1.913385 3.062847,-2.884369 0.08807,-0.393845 0.577335,-1.246463 1.087246,-1.894708 0.76141,-0.967977 0.944424,-2.391581 1.024004,-7.965321 0.05329,-3.732681 -0.09828,-8.145088 -0.336832,-9.805348 -0.517011,-3.598327 -0.0684,-4.74895 1.165005,-2.988027 0.472655,0.674811 0.859375,1.53038 0.859375,1.901265 0,0.370885 0.212067,0.674336 0.471251,0.674336 0.259533,0 0.424715,3.440797 0.36767,7.658695 -0.05697,4.212282 0.0435,7.896638 0.223221,8.187458 0.704374,1.139703 2.777629,-2.055887 2.99053,-4.609432 0.212061,-2.543334 0.278477,-2.99789 0.966947,-6.617958 0.208815,-1.097973 0.165257,-1.97947 -0.09781,-1.97947 -0.260847,0 -0.514034,-0.415688 -0.562634,-0.923752 -0.04862,-0.508064 -0.187665,-1.703576 -0.309045,-2.656694 -0.16332,-1.282472 0.02724,-1.865631 0.73311,-2.243399 1.161015,-0.621357 1.703279,-0.655931 1.351134,-0.08615 -0.144232,0.233371 -0.01747,1.480437 0.281644,2.771258 0.651795,2.812585 0.872693,9.473119 0.314182,9.473073 -0.217742,-1.8e-5 -0.395894,0.593808 -0.395894,1.319614 0,1.577421 0.848237,1.749206 1.318654,0.267054 0.183742,-0.578926 0.685899,-1.404409 1.115898,-1.834408 0.473674,-0.473677 0.863736,-2.129782 0.989667,-4.201888 0.114313,-1.88104 0.459543,-3.890377 0.767184,-4.465194 0.307626,-0.574816 0.559325,-1.773346 0.559325,-2.663399 0,-1.298636 0.22179,-1.618278 1.122876,-1.618278 1.210502,0 1.210037,-0.02345 0.148339,7.521986 -0.393809,2.798799 0.06401,3.111166 1.632007,1.113506 0.580645,-0.739753 1.590174,-1.905654 2.2434,-2.590891 0.653225,-0.685237 1.187682,-1.478212 1.187682,-1.762167 0,-0.283955 0.468115,-0.664856 1.040261,-0.846447 0.572141,-0.181591 1.908764,-1.246698 2.970266,-2.366903 1.061508,-1.120205 2.359565,-2.149069 2.884589,-2.286365 2.163677,-0.565816 1.186078,1.25082 -2.995138,5.565731 -2.435313,2.51318 -4.424195,4.878877 -4.41975,5.257105 0.0065,0.55076 0.0928,0.554214 0.433541,0.01735 0.500425,-0.788433 4.79777,-0.571957 7.153572,0.360357 2.244751,0.888368 1.343559,1.272121 -3.243491,1.381164 -4.065731,0.09665 -6.568715,0.721726 -7.240125,1.808093 -0.193424,0.312966 -0.513417,0.477262 -0.7111,0.365102 -0.197678,-0.11216 -0.941188,0.513117 -1.652234,1.389505 l -1.292816,1.593433 2.084604,-0.400472 c 2.791364,-0.536248 5.827934,-0.579335 8.550872,-0.121333 2.287211,0.384712 2.762448,0.915584 1.583576,1.768955 -0.683313,0.494642 -4.95198,0.550082 -5.431518,0.07054 -0.149532,-0.149529 -1.2749,-0.05729 -2.500815,0.204987 -1.22592,0.262272 -3.340189,0.614075 -4.69837,0.781783 -1.761443,0.217504 -2.875167,0.728427 -3.884638,1.782091 -1.495223,1.560677 -1.375975,2.964662 0.183758,2.16348 1.06401,-0.546544 7.894285,-0.326295 11.052996,0.356415 1.23387,0.266683 2.2434,0.381831 2.2434,0.255883 0,-0.125948 0.73916,0.297334 1.64258,0.940626 1.401765,0.998145 1.51724,1.239768 0.787607,1.648088 -0.470232,0.263157 -1.150014,0.29414 -1.510615,0.06885 -0.360607,-0.22529 -1.011953,-0.474303 -1.447436,-0.553361 -1.351889,-0.245425 -10.235534,-0.857585 -11.348962,-0.782042 -0.580644,0.03939 -1.869427,0.08465 -2.863966,0.100558 -1.4103,0.02256 -2.233153,0.489187 -3.738996,2.12031 -1.061915,1.150259 -1.930749,2.440596 -1.930749,2.867414 0,0.426818 0.155608,0.679861 0.3458,0.562317 0.527268,-0.325871 8.30564,-0.872027 11.95139,-0.839163 6.264258,0.05647 10.397861,1.12975 10.110167,2.625087 -0.151986,0.789981 -2.524684,1.381418 -2.524684,0.629322 0,-1.336904 -10.460892,-1.922234 -15.83576,-0.886077 -4.001216,0.771347 -5.061658,0.921058 -6.259279,0.883674 -0.69679,-0.02175 -1.655413,0.483388 -2.177908,1.14763 -0.854904,1.086837 -1.170891,2.358747 -0.53641,2.159187 0.619933,-0.194986 4.574523,-0.843208 5.542516,-0.90851 0.580644,-0.03917 1.331201,-0.248562 1.667907,-0.465314 0.336705,-0.216752 0.989925,-0.249142 1.451611,-0.07198 0.461681,0.177165 0.839422,0.08141 0.839422,-0.212798 0,-0.60008 2.024844,-0.227493 3.028467,0.55726 0.359203,0.28087 1.004821,0.375705 1.434704,0.210743 0.429883,-0.164961 0.896594,-0.113877 1.037131,0.11352 0.140543,0.227398 1.513984,0.46665 3.052095,0.53167 1.538112,0.06502 3.509173,0.23906 4.38014,0.386753 0.870966,0.147695 2.38069,0.328789 3.354937,0.402433 1.730068,0.130775 2.561403,0.922336 2.487967,2.368921 -0.02518,0.49618 -1.015695,0.78537 -3.203611,0.93534 -1.741934,0.1194 -3.246331,0.44941 -3.343103,0.73336 -0.09678,0.28395 -0.987539,0.51627 -1.97947,0.51627 -0.991936,0 -1.803519,0.19795 -1.803519,0.43988 0,0.53916 -0.497338,0.58207 -7.126092,0.61483 -5.115061,0.0253 -7.392956,-0.14378 -10.425208,-0.77377 -2.079869,-0.43212 -1.840617,0.56819 0.718072,3.00221 2.075599,1.97447 2.310216,2.05987 5.410552,1.96939 1.782478,-0.0521 3.597171,0.0311 4.032655,0.18482 1.456399,0.51394 5.806419,0.88162 5.808477,0.49095 0.0011,-0.21219 1.941554,-0.45597 4.312078,-0.54174 2.370523,-0.0858 4.566822,-0.31662 4.88066,-0.51301 0.313838,-0.19639 0.808152,-0.39577 1.098474,-0.44306 2.999134,-0.48853 3.169628,-0.45419 3.329891,0.67078 0.21393,1.50172 -0.793097,1.83803 -7.55276,2.52239 -1.741934,0.17635 -4.03956,0.52307 -5.10584,0.7705 -1.144984,0.26568 -2.139105,0.24943 -2.428224,-0.0397 -0.26925,-0.26925 -1.919162,-0.5631 -3.666474,-0.65301 -1.747312,-0.0899 -3.42925,-0.3194 -3.73764,-0.50999 -0.308381,-0.19059 -0.712298,-0.10124 -0.897582,0.19855 -0.185284,0.29979 -0.617383,0.38161 -0.960228,0.18181 -0.342838,-0.19981 -0.207659,0.11195 0.300405,0.69277 0.508064,0.58083 0.923752,1.31826 0.923752,1.63874 0,0.32048 0.475073,0.73347 1.055718,0.91776 0.580644,0.18429 1.055717,0.56688 1.055717,0.85019 0,0.59164 14.105143,0.22083 16.627548,-0.43712 3.061865,-0.79867 5.222565,-0.24942 4.6712,1.18742 -0.163546,0.42618 -0.881397,0.77488 -1.595225,0.77488 -0.713829,0 -1.768053,0.25163 -2.342711,0.55917 -0.574659,0.30756 -4.099667,0.58409 -7.833354,0.61453 -5.40237,0.044 -6.733714,0.19815 -6.520137,0.75473 0.311305,0.81125 3.629826,1.80468 5.174488,1.54903 0.580644,-0.0961 1.358376,0.0661 1.728299,0.36056 0.369918,0.29441 0.823132,0.38473 1.007149,0.20072 0.184012,-0.18402 0.632121,-0.0876 0.995795,0.2142 0.366904,0.3045 2.20902,0.46453 4.138438,0.35952 3.821338,-0.20798 4.85564,0.12489 4.364552,1.40464 -0.437505,1.14013 -5.326849,1.13453 -9.408648,-0.0108 -3.386424,-0.95018 -5.865043,-0.62391 -3.784039,0.4981 0.634138,0.34191 1.181495,0.85919 1.216345,1.14952 0.03484,0.29032 0.703693,0.47591 1.486312,0.41242 0.924914,-0.075 1.17854,0.0366 0.724639,0.31887 -0.451393,0.28073 0.201896,0.55456 1.847506,0.7744 1.400203,0.18706 3.258429,0.68342 4.129396,1.10303 0.870967,0.41961 2.355569,1.07182 3.299116,1.44936 1.023513,0.40953 1.715541,1.06031 1.715541,1.61329 0,0.50977 -0.178152,0.92926 -0.395894,0.9322 -0.831414,0.0112 -7.273729,-2.38262 -7.585239,-2.81853 -0.179952,-0.25181 -0.747591,-0.37508 -1.261435,-0.27393 -0.750937,0.14781 -0.469171,0.64996 1.436077,2.55926 1.303674,1.30645 2.702694,2.63775 3.108934,2.95844 1.400172,1.10532 3.113981,3.60734 3.113981,4.54616 0,1.87725 -1.611727,1.12298 -4.111718,-1.92425 -1.322133,-1.61154 -2.063268,-0.97596 -1.956286,1.67771 0.05559,1.37903 -0.06186,2.96531 -0.260995,3.52506 -0.317808,0.89332 -0.469324,0.80274 -1.239407,-0.74092 -0.482536,-0.96726 -0.877338,-2.77705 -0.877338,-4.02177 0,-1.24471 -0.215234,-2.39613 -0.478303,-2.55872 -0.263064,-0.16258 -0.360242,-0.74704 -0.215963,-1.2988 0.175687,-0.67183 -0.42605,-1.73404 -1.821725,-3.21576 -1.749445,-1.85729 -2.140013,-2.06678 -2.432441,-1.30473 -0.191602,0.4993 -0.108792,1.19649 0.184022,1.54931 0.292814,0.35281 0.391893,0.78198 0.220181,0.95369 -0.171713,0.17171 -0.13121,0.60507 0.09001,0.96301 0.506312,0.81923 0.52276,7.74972 0.01958,8.2529 -0.582223,0.58222 -1.354787,-1.00802 -1.363723,-2.80708 -0.0042,-0.89516 -0.159894,-1.77937 -0.345436,-1.96492 -0.185548,-0.18555 -0.392168,-1.23467 -0.459158,-2.33138 -0.325282,-5.32544 -1.000693,-8.34086 -2.144547,-9.57445 -1.780441,-1.92013 -2.900235,-1.2137 -2.566903,1.61935 0.526545,4.47512 0.753312,14.08301 0.338448,14.33942 -1.312305,0.81105 -1.723997,-0.8405 -1.927128,-7.73082 -0.116646,-3.95683 -0.443502,-7.60774 -0.726339,-8.11315 -0.363499,-0.64954 -0.280251,-1.27605 0.283993,-2.13719 0.439031,-0.67006 0.582878,-1.21828 0.319651,-1.21828 -0.263228,0 -1.380103,-0.85033 -2.481944,-1.88961 -1.101837,-1.03929 -2.128712,-1.76425 -2.281944,-1.61102 -0.153232,0.15323 -0.351,4.07141 -0.43949,8.70707 -0.08963,4.69563 -0.413493,8.90045 -0.731248,9.49419 -0.313706,0.58615 -0.570367,1.40856 -0.570367,1.82758 0,0.41903 -0.33974,1.04382 -0.754975,1.38843 -1.07594,0.89296 -2.024264,-0.90632 -1.227799,-2.32953 0.311848,-0.55724 0.665566,-1.62002 0.786039,-2.36173 0.354231,-2.18084 0.332166,-13.75194 -0.03262,-17.10983 -0.307378,-2.82942 -0.565701,-3.32364 -3.035019,-5.80644 l -2.699041,-2.71379 0.384809,2.63929 c 0.21165,1.45162 0.39279,3.41129 0.402534,4.35484 0.0098,0.94355 0.19042,1.71554 0.401495,1.71554 0.211075,0 0.144116,1.00953 -0.148804,2.2434 -0.292919,1.23387 -0.518858,2.5997 -0.502094,3.03519 0.08793,2.28392 -1.18784,10.44369 -1.782953,11.40375 -0.378607,0.61078 -0.851346,1.97924 -1.050539,3.04102 -0.428938,2.28645 -1.089828,2.8791 -1.559701,1.39865 -0.185627,-0.58486 -0.573049,-1.06338 -0.860943,-1.06338 -0.287894,0 -0.402809,-0.19519 -0.255373,-0.43374 0.147437,-0.23856 -0.02307,-1.01055 -0.378928,-1.71554 -0.355851,-0.70499 -0.625011,-1.63811 -0.598143,-2.07359 0.02687,-0.43548 -0.243417,-1.62316 -0.600645,-2.63929 -1.169339,-3.32616 -1.406195,-4.94447 -1.50653,-10.29325 -0.06412,-3.41835 0.155776,-5.94863 0.623992,-7.17991 0.397657,-1.04573 0.67293,-2.11465 0.611725,-2.37537 -0.06121,-0.26072 0.164608,-1.14272 0.501809,-1.96001 0.337207,-0.81728 0.613097,-1.74873 0.613097,-2.06987 0,-0.32114 0.337254,-0.9589 0.749454,-1.41725 0.651742,-0.7247 0.617331,-0.99581 -0.263929,-2.07951 -0.965897,-1.18777 -1.013383,-1.19562 -1.013383,-0.16754 0,0.62101 -0.455469,1.22319 -1.07357,1.41937 -1.152073,0.36565 -3.1493,2.27939 -3.1493,3.01765 0,0.24689 0.531,-0.0458 1.180002,-0.65045 0.648997,-0.60463 1.263123,-0.84994 1.364731,-0.54513 0.101602,0.30481 0.40198,0.41994 0.667504,0.25583 0.867768,-0.53631 0.506987,0.88629 -0.572943,2.25919 -0.58064,0.73817 -1.055718,1.14593 -1.055718,0.90613 0,-0.23981 -0.319734,0.001 -0.710524,0.53569 -0.39079,0.53444 -0.64924,1.52999 -0.574337,2.21233 0.0749,0.68234 -0.105851,1.24062 -0.401668,1.24062 -0.295818,0 -0.404044,0.3487 -0.240503,0.77488 0.163546,0.42619 0.06389,0.91917 -0.221453,1.09552 -0.285344,0.17635 -0.469097,0.59965 -0.408351,0.94066 0.06075,0.34101 -0.167485,1.92647 -0.507188,3.52324 -0.711654,3.34514 -0.731375,6.64191 -0.05998,10.02932 0.508809,2.56712 0.782287,4.17429 1.316575,7.73719 0.307757,2.05226 0.233678,2.29212 -0.707885,2.29212 -0.662014,0 -1.255316,-0.53779 -1.60146,-1.45161 -1.279017,-3.37667 -1.883151,-16.02298 -0.983448,-20.58649 0.351348,-1.78212 0.290254,-2.2434 -0.297137,-2.2434 -1.889269,0 -4.126498,4.10004 -4.752507,8.70967 -0.07886,0.58065 -0.310956,1.18197 -0.515771,1.33628 -0.204819,0.15431 -0.403943,2.41091 -0.442498,5.01466 -0.06876,4.64386 0.03151,5.78711 0.600476,6.84553 0.567622,1.05592 0.192969,2.53917 -0.673827,2.66769 -1.772987,0.26287 -2.470586,-2.67399 -2.200949,-9.26592 0.317785,-7.76902 0.333333,-7.91789 0.826944,-7.91789 0.22811,0 0.413611,-0.29692 0.412223,-0.65982 -0.0014,-0.3629 -0.865203,0.27956 -1.919591,1.42771 -1.967893,2.14288 -3.355791,4.82053 -3.706024,7.15 -0.109125,0.7258 -0.327682,2.15102 -0.485683,3.16715 -0.158,1.01613 -0.344025,3.20594 -0.413389,4.86625 -0.145027,3.47144 -0.538847,4.12967 -1.747589,2.92094 -1.093088,-1.09309 -1.100763,-7.56118 -0.01027,-8.65168 0.403257,-0.40325 0.512376,-2.83052 0.12725,-2.83052 -0.776793,0 -2.967917,2.92988 -3.101129,4.14671 -0.08692,0.79396 -0.317196,1.70108 -0.511729,2.01584 -0.194533,0.31476 -0.451911,1.8297 -0.571953,3.36653 -0.181563,2.32445 -0.400336,2.82202 -1.30124,2.95951 -0.59564,0.0909 -1.19914,-0.0227 -1.341111,-0.25239 z M 50.818247,77.31259 c 0.173022,-1.44939 0.457041,-3.82293 0.631166,-5.27454 0.766593,-6.39099 0.119835,-13.84208 -1.294705,-14.91581 -0.899878,-0.68307 -0.974739,-0.52296 -2.531442,5.41435 -0.818291,3.121 0.107699,13.9728 1.442237,16.90179 0.807143,1.77149 1.368827,1.09025 1.752744,-2.12579 z M 64.272662,63.44186 c 0,-0.22791 -1.365834,-1.86243 -3.035187,-3.63227 -1.669353,-1.76983 -4.046971,-4.31503 -5.283596,-5.65599 -2.107829,-2.28566 -3.821966,-3.13442 -3.821966,-1.89246 0,0.30011 0.674936,1.19087 1.499847,1.97947 4.487865,4.2903 6.330456,5.83225 6.621549,5.54115 0.17839,-0.17839 0.324343,-0.0238 0.324343,0.34364 0,0.36739 0.73773,1.35712 1.639402,2.19941 1.726774,1.61305 2.055608,1.79174 2.055608,1.11705 z M 41.981634,56.03733 c 0.316689,-0.95007 -0.774368,-0.75043 -1.142565,0.20907 -0.197272,0.51409 -0.0793,0.75541 0.306432,0.62683 0.34495,-0.11498 0.721213,-0.49114 0.836133,-0.8359 z M 71.40645,50.91507 c 6.174996,-0.60934 6.724355,-0.70583 7.300829,-1.2823 0.306111,-0.306115 0.449678,-0.566906 0.319033,-0.579537 -9.641983,-0.932177 -16.759043,-0.85204 -18.712589,0.210703 -0.870967,0.473814 -1.464808,0.893254 -1.319647,0.932094 0.922533,0.24684 2.713193,0.49897 4.935156,0.69488 1.407884,0.12413 2.688078,0.35399 2.844884,0.51079 0.1568,0.1568 0.433573,0.19332 0.615056,0.0812 0.181478,-0.11216 1.98925,-0.36766 4.017278,-0.56779 z M 41.70728,49.82592 c 1.486614,-0.471832 0.425581,-1.288555 -2.034689,-1.566186 -1.131233,-0.127655 -3.006931,-0.370189 -4.168226,-0.538965 -2.327334,-0.338244 -2.595439,-0.344878 -7.917877,-0.195913 -2.032256,0.05688 -3.932547,0.290232 -4.222869,0.518563 -0.594835,0.467821 -0.788761,0.504921 -2.639294,0.504921 -0.725805,0 -1.319646,0.265228 -1.319646,0.589395 0,0.339885 0.544211,0.485365 1.285522,0.343655 0.707038,-0.135162 1.518322,-0.101869 1.802855,0.074 0.7056,0.43609 17.928582,0.6786 19.214224,0.27055 z m 10.307185,-0.515724 c 1.120158,-0.784589 1.61264,-2.297828 0.777272,-2.388316 -3.824959,-0.414328 -4.883374,0.221799 -3.418983,2.054873 1.093686,1.369037 1.152579,1.376467 2.641711,0.333443 z m -5.043357,-2.961965 c 0.3963,-1.189527 0.172076,-1.80458 -1.443303,-3.95894 -2.393723,-3.192404 -8.889826,-9.382541 -9.120395,-8.690829 -0.258841,0.77652 1.578118,2.701952 2.226302,2.33353 0.31112,-0.176835 0.392922,-0.130484 0.181789,0.103003 -0.360047,0.398159 0.19762,1.179542 4.46038,6.249732 1.331813,1.584077 1.662401,2.417439 1.536886,3.874253 -0.131785,1.529666 0.0026,1.824537 0.76462,1.676814 0.508491,-0.09858 1.135666,-0.812987 1.393721,-1.587563 z m 9.684997,-0.835078 c 0.522823,-0.798387 2.034742,-2.466322 3.359821,-3.706524 1.925523,-1.802188 2.255492,-2.351481 1.643504,-2.735898 -0.565078,-0.354949 -1.50255,0.235924 -3.577621,2.254912 -1.546536,1.504744 -3.042867,2.815077 -3.325171,2.911851 -0.805766,0.276214 -0.610031,2.72727 0.217789,2.72727 0.402096,0 1.15885,-0.653225 1.681678,-1.451611 z m -6.767591,-4.150938 c 0,-0.758824 0.207844,-1.530817 0.461876,-1.715541 0.504754,-0.36704 0.758296,-1.212957 0.970833,-3.239083 0.07613,-0.725806 0.409433,-2.44782 0.740664,-3.826698 0.530931,-2.210227 0.500009,-4.084309 -0.176389,-10.689416 -0.08919,-0.870966 -0.216554,-2.652489 -0.283032,-3.95894 -0.06648,-1.30645 -0.229503,-1.959675 -0.362275,-1.451611 -0.132772,0.508064 -0.433815,0.923753 -0.668992,0.923753 -0.235172,0 -0.551824,0.475073 -0.703662,1.055717 -0.151844,0.580645 -0.03167,1.055717 0.266996,1.055717 0.328766,0 0.29133,0.303334 -0.09486,0.768666 -0.350862,0.422765 -0.4847,1.016606 -0.297411,1.319646 0.18729,0.30304 0.105334,0.550982 -0.182127,0.550982 -0.287456,0 -0.459607,1.006477 -0.38256,2.236616 0.07705,1.23014 -0.138711,2.51542 -0.479465,2.856178 -0.495179,0.495179 -0.690793,3.089015 -0.232954,3.089015 0.134809,0 0.369221,3.743202 0.553686,8.841633 0.07091,1.959675 0.295591,3.563046 0.499297,3.563046 0.203711,0 0.370377,-0.620856 0.370377,-1.37968 z M 28.865507,84.66267 c -0.02234,-0.55645 -0.08173,-1.74418 -0.131964,-2.6394 -0.05024,-0.89522 0.156379,-1.62763 0.459143,-1.62757 0.314881,7e-5 0.504998,0.99607 0.444211,2.32716 -0.106981,2.34263 -0.695759,3.82323 -0.77139,1.93981 z"
     style="fill:#000000;stroke-width:0.52785867" />
</svg>
