<?xml version="1.0" encoding="UTF-8" standalone="no"?>
<svg
   xmlns:dc="http://purl.org/dc/elements/1.1/"
   xmlns:cc="http://creativecommons.org/ns#"
   xmlns:rdf="http://www.w3.org/1999/02/22-rdf-syntax-ns#"
   xmlns:svg="http://www.w3.org/2000/svg"
   xmlns="http://www.w3.org/2000/svg"
   id="svgK8"
   version="1.1"
   viewBox="0 0 100 100"
   height="100"
   width="100">
  <defs
     id="defs2" />
  <metadata
     id="metadata5">
    <rdf:RDF>
      <cc:Work
         rdf:about="">
        <dc:format>image/svg+xml</dc:format>
        <dc:type
           rdf:resource="http://purl.org/dc/dcmitype/StillImage" />
        <dc:title></dc:title>
      </cc:Work>
    </rdf:RDF>
  </metadata>
  <path
     id="pathK8"
     d="M 5,50 V 5 H 49.761903 94.523806 V 50 95 H 49.761903 5 Z m 6.046735,43.25916 C 11.232991,92.77379 10.992805,92.17889 10.421906,91.71154 9.911842,91.294 9.126108,90.42256 8.67583,89.775 8.15612,89.02758 7.849854,88.85368 7.837183,89.2988 7.826203,89.68446 7.406616,89.25 6.904762,88.33333 L 5.9923,86.66667 5.97234,89.11113 c -0.01678,2.05487 0.13214,2.48423 0.934386,2.69403 0.617736,0.16154 0.855773,0.50644 0.674876,0.97785 -0.153708,0.40056 -0.583163,0.61174 -0.954345,0.46931 -0.371182,-0.14244 -0.674877,-0.0218 -0.674877,0.26816 0,0.31554 0.96172,0.52714 2.395898,0.52714 1.790575,0 2.472338,-0.19921 2.698457,-0.78846 z m 6.334218,-0.14717 c 0,-0.51459 -0.423837,-1.16246 -0.94186,-1.43969 C 15.921071,91.39506 14.997917,90.69109 14.38764,90.10792 13.777362,89.52476 12.794936,88.72619 12.204471,88.33333 11.614004,87.94048 10.697428,86.92129 10.167633,86.06846 9.637839,85.21564 9.008388,84.639 8.768852,84.78704 8.529317,84.93508 8.333333,84.61499 8.333333,84.07572 c 0,-0.53926 -0.207442,-0.98048 -0.460982,-0.98048 -0.25354,0 -0.780675,-0.58929 -1.171411,-1.30953 l -0.710428,-1.30952 -0.01907,1.78984 c -0.02128,1.99757 0.68523,2.98277 5.576173,7.7758 1.636905,1.60414 2.976191,3.16167 2.976191,3.4612 0,0.29952 0.642857,0.54459 1.428571,0.54459 1.102584,0 1.428572,-0.2135 1.428572,-0.93563 z m 22.619965,0.46092 c -0.349824,-0.56602 -18.810442,-0.50016 -18.810442,0.0671 0,0.19053 4.301099,0.36461 9.557998,0.38685 6.494986,0.0275 9.460077,-0.11801 9.252444,-0.45397 z m 6.728571,0.10017 c -0.3561,-0.57618 -6.015205,-0.68363 -6.015205,-0.11421 0,0.28453 1.305072,0.48875 3.123343,0.48875 1.717838,0 3.019176,-0.16854 2.891862,-0.37454 z m 10.06881,0.0284 c -0.975219,-0.10232 -2.689505,-0.10373 -3.809524,-0.003 -1.120019,0.1006 -0.32211,0.18432 1.773128,0.18604 2.095239,0.002 3.011615,-0.0806 2.036396,-0.18289 z m 4.044095,0.0338 c -0.322395,-0.13043 -0.965252,-0.13837 -1.428572,-0.0177 -0.463319,0.12073 -0.199538,0.22745 0.586177,0.23716 0.785714,0.01 1.16479,-0.0891 0.842395,-0.21952 z m 7.371892,-0.0345 c -0.98214,-0.10273 -2.589287,-0.10273 -3.57143,0 -0.982143,0.10274 -0.178572,0.18679 1.78571,0.18679 1.96429,0 2.76786,-0.0841 1.78572,-0.18679 z m 18.24185,-0.33419 c -0.45231,-0.54499 -0.36684,-0.78726 0.42772,-1.2125 1.27638,-0.68309 2.04945,-0.19898 1.65697,1.03761 -0.2194,0.69129 -0.12269,0.90672 0.33777,0.75238 0.53861,-0.18054 0.7266,-1.33198 0.46376,-2.84051 -0.0311,-0.17878 -0.4495,-0.44974 -0.92966,-0.60214 -0.48016,-0.15239 -0.87302,-0.60781 -0.87302,-1.01203 0,-0.53199 0.40547,-0.69865 1.46826,-0.60348 0.95538,0.0856 1.42667,-0.0712 1.34921,-0.44863 -0.0684,-0.33305 0.38793,-0.5801 1.07142,-0.5801 0.94003,0 1.19048,0.24107 1.19048,1.1459 0,0.91145 -0.19485,1.09494 -0.95238,0.89684 -0.53247,-0.13924 -0.95238,-0.0146 -0.95238,0.28268 0,0.29245 0.42857,0.53173 0.95238,0.53173 1.21527,0 1.29453,1.77813 0.11905,2.67045 -0.75757,0.57508 -0.71427,0.63397 0.47619,0.64774 l 1.30952,0.0151 V 49.999632 5.951645 L 49.642856,6.063583 C 25.482143,6.125153 10.200771,6.236927 15.684252,6.311978 l 9.969965,0.136457 -2.093763,1.89483 c -1.15157,1.042157 -2.35234,1.89483 -2.668379,1.89483 -0.316038,0 -0.646043,0.164822 -0.733345,0.36627 -0.0873,0.201449 -1.28373,1.306421 -2.65873,2.455494 -1.375,1.149073 -2.500616,2.323537 -2.501369,2.609921 -7.62e-4,0.286383 -0.632367,0.943456 -1.403586,1.460162 -0.77122,0.516707 -1.524686,1.427421 -1.67437,2.02381 -0.149684,0.596389 -0.496661,1.084343 -0.771059,1.084343 -0.274398,0 -1.266907,0.724566 -2.205576,1.610147 L 7.237369,23.458388 7.08967,29.720754 c -0.08123,3.444302 -0.26671,6.454929 -0.412167,6.690283 -0.145456,0.235355 -0.07428,0.545459 0.158169,0.68912 0.232449,0.143662 0.316074,0.96204 0.185832,1.818619 -0.130242,0.856578 -0.260969,3.227423 -0.290505,5.268544 -0.06175,4.267587 0.276468,4.71736 3.264127,4.340673 1.0503,-0.132423 2.231065,-0.226791 2.623922,-0.209707 0.392857,0.01709 5.321428,0.01466 10.952381,-0.0054 10.111613,-0.03599 10.264568,-0.05166 12.38095,-1.268397 1.178572,-0.677576 2.47671,-1.575496 2.884748,-1.995377 0.408038,-0.419882 1.671967,-1.513421 2.808724,-2.430088 1.136757,-0.916667 2.51719,-2.184274 3.067633,-2.816904 4.1392,-4.757245 3.849653,-4.094864 3.955138,-9.047968 0.05346,-2.510035 0.222758,-7.242271 0.376219,-10.516081 0.153467,-3.273809 0.275177,-6.809523 0.270467,-7.857143 -0.0048,-1.047619 -0.0043,-2.636497 9.52e-4,-3.53084 C 49.32156,7.955745 49.048999,7.048312 48.710508,6.83357 48.311941,6.580717 48.606637,6.440562 49.546789,6.435839 l 1.451695,-0.0073 -0.168233,9.568007 c -0.10521,5.983319 0.0019,9.462985 0.285324,9.287691 0.400395,-0.24746 0.643033,-5.277907 0.754443,-15.641384 l 0.03457,-3.214258 3.242391,-2.8e-5 c 1.783314,-1.6e-5 3.125985,0.188317 2.983714,0.418517 -0.142272,0.230199 -1.172776,0.315673 -2.29001,0.189942 L 53.809331,6.808424 53.63494,14.118482 c -0.09591,4.020531 -0.19418,9.345771 -0.218371,11.833867 -0.02471,2.542287 -0.261209,4.677051 -0.5399,4.87366 -0.3418,0.241132 -0.339448,0.352117 0.0076,0.357143 0.530362,0.0077 0.525843,1.499989 -0.0131,4.319675 -0.315071,1.648512 -0.195681,1.821833 4.510324,6.547619 2.6587,2.669856 5.031891,4.854284 5.273781,4.854284 0.241886,0 0.905548,0.465754 1.474805,1.03501 1.008457,1.008457 1.378009,1.037471 14.404757,1.130945 7.35336,0.05276 13.58404,-0.07416 13.84594,-0.282049 0.31064,-0.24657 0.41951,0.711102 0.31315,2.754546 -0.0897,1.722898 -0.30395,2.916928 -0.47619,2.653398 -0.19646,-0.30059 -5.14577,-0.49165 -13.28212,-0.51274 -7.13294,-0.0185 -13.61508,-0.17551 -14.404761,-0.34895 -0.904948,-0.19876 -1.435786,-0.1253 -1.435786,0.19867 0,0.28272 -0.220109,0.51403 -0.489128,0.51403 -0.269024,0 -1.60831,1.05589 -2.976191,2.34642 -1.367885,1.29054 -3.636686,3.3888 -5.041781,4.66282 l -2.554714,2.3164 -0.239462,9.26575 c -0.131705,5.09616 -0.314424,11.46218 -0.406043,14.14671 l -0.166586,4.88095 5.57981,0.0255 c 7.801543,0.0357 18.743672,0.35206 19.786732,0.57213 0.90274,0.19045 5.42037,-3.66719 5.20355,-4.44336 -0.0623,-0.22315 0.20552,-0.28336 0.59524,-0.13382 0.38971,0.14955 0.70857,0.0544 0.70857,-0.21137 0,-0.26581 1.84298,-2.37247 4.09551,-4.68149 2.25254,-2.30901 4.2102,-4.63232 4.35037,-5.1629 0.14017,-0.53059 0.33183,-4.05291 0.4259,-7.82739 0.0941,-3.77448 0.27927,-6.97091 0.41154,-7.10317 0.13227,-0.13228 0.24049,3.97379 0.24049,9.12458 0,6.96649 -0.14635,9.36508 -0.57143,9.36508 -0.44444,0 -0.44444,0.12698 0,0.57143 0.31429,0.31428 0.57143,1.21238 0.57143,1.99577 0,1.34901 -0.0361,1.37545 -0.68223,0.5 -0.5468,-0.74086 -0.80202,-0.80619 -1.28571,-0.32911 -0.33192,0.32738 -0.48715,0.59524 -0.34496,0.59524 0.1422,0 -1.74351,2.06485 -4.19047,4.58855 -2.44695,2.52371 -4.44901,4.66657 -4.44901,4.76191 0,0.0953 1.20481,0.17335 2.67735,0.17335 2.26786,0 2.59091,-0.10417 2.11212,-0.68108 z M 61.904761,83.00239 c -1.355291,-0.76853 -1.664881,-1.39759 -1.35851,-2.76035 0.387824,-1.72505 1.925105,-2.8611 3.871581,-2.8611 0.931305,0 1.552284,0.141 1.379944,0.31333 -0.172325,0.17233 -0.0685,0.60832 0.23073,0.96888 0.6942,0.83646 0.6329,3.33966 -0.10352,4.22699 -0.672616,0.81045 -2.689663,0.86677 -4.020225,0.11225 z m 2.142857,-2.28811 c 0.428566,-0.80079 0.362138,-0.95239 -0.4173,-0.95239 -0.809848,0 -0.967381,0.49222 -0.571515,1.78572 0.111639,0.36478 0.541477,0.002 0.988815,-0.83333 z M 77.023806,68.59016 c -1.96421,-0.88485 -0.91254,-5.49492 1.25352,-5.49492 1.42553,0 2.91315,2.02183 2.91315,3.95926 0,1.0654 -0.2339,1.77062 -0.59524,1.79471 -0.32738,0.0218 -1.02381,0.0811 -1.54762,0.13165 -0.52381,0.0506 -1.43452,-0.12523 -2.02381,-0.3907 z m 1.63482,-2.25087 c -0.15201,-0.37988 -0.26485,-0.26704 -0.2877,0.2877 -0.0207,0.50198 0.0919,0.78323 0.25011,0.625 0.15823,-0.15824 0.17514,-0.56896 0.0376,-0.9127 z m 13.56457,-8.21328 c 0.0606,-0.89975 0.24586,-1.55204 0.41171,-1.44954 0.3191,0.19721 0.0168,3.08544 -0.32292,3.08544 -0.10943,0 -0.14939,-0.73616 -0.0888,-1.6359 z M 22.142857,38.158447 c -3.085941,-0.68499 -3.608121,-1.734463 -2.57225,-5.169685 0.549559,-1.82248 4.953203,0.05906 4.953203,2.116347 0,0.500436 0.209783,1.301866 0.466184,1.780956 0.723654,1.352161 -0.342073,1.828433 -2.847137,1.272382 z m -0.238095,-2.682256 c 0.505978,-0.818689 -0.228323,-1.474634 -0.927573,-0.828593 -0.653814,0.604063 -0.53927,1.304783 0.213287,1.304783 0.230991,0 0.55242,-0.214285 0.714286,-0.47619 z m 55.048624,2.096186 c -2.24839,-2.109569 -0.11142,-6.261902 2.58936,-5.031348 2.18744,0.996667 2.09753,4.308226 -0.14739,5.428135 -1.19958,0.59843 -1.41931,0.562725 -2.44197,-0.396787 z m 2.52937,-2.029767 c 0.13929,-0.225374 0.13099,-0.532038 -0.0185,-0.681476 -0.37159,-0.371607 -1.60714,0.140403 -1.60714,0.666004 0,0.544101 1.29131,0.556391 1.62561,0.01547 z M 35.550013,23.368855 c -0.992391,-1.47044 -1.343219,-2.454293 -1.148,-3.219404 0.580114,-2.27361 3.5822,-3.622428 4.799066,-2.15619 0.708386,0.85355 0.338386,3.963873 -0.58089,4.883148 -0.419676,0.419676 -0.763048,1.056523 -0.763048,1.415216 0,1.458795 -0.958585,1.075395 -2.307128,-0.92277 z m 2.019633,-2.459446 c 0.159824,-0.416492 0.163671,-0.962612 0.0086,-1.213599 -0.425066,-0.687771 -1.616657,0.488264 -1.308471,1.291387 0.344667,0.898182 0.939052,0.862614 1.299919,-0.07779 z m 28.38381,1.236061 c -1.149629,-2.775462 1.12226,-5.122316 3.64941,-3.769825 1.00368,0.537153 1.13742,0.904644 1.01469,2.788194 l -0.14137,2.169495 -1.95606,0.143117 c -1.79339,0.131215 -2.00685,0.02052 -2.56667,-1.330981 z m 2.73695,-1.709027 c -0.45378,-0.453789 -1.36356,0.281238 -1.02538,0.828429 0.20101,0.32524 0.46736,0.317023 0.80935,-0.02497 0.28037,-0.28036 0.37758,-0.641917 0.21603,-0.803461 z m 23.09531,-2.418481 c -0.32738,-0.132101 -0.59524,-0.445657 -0.59524,-0.69679 0,-0.608161 -0.54272,-1.259304 -4.87637,-5.850587 L 82.628216,7.56557 74.171246,7.61645 C 69.519916,7.64443 65.493503,7.508583 65.223661,7.314559 64.953813,7.120535 63.560956,6.881453 62.128423,6.783266 60.695884,6.685076 66.970236,6.565105 76.071426,6.516657 c 10.77301,-0.05735 16.54762,0.07809 16.54762,0.388104 0,0.261905 -0.44266,0.47619 -0.98369,0.47619 -0.54102,0 -1.40424,0.225077 -1.91826,0.500169 -0.87946,0.470676 -0.8225,0.611127 0.96603,2.381867 1.83636,1.818105 1.89979,1.986272 1.87684,4.976022 -0.013,1.701878 -0.0587,3.077406 -0.10138,3.05673 -0.0427,-0.02068 -0.34549,-0.145677 -0.67287,-0.277777 z M 25.952381,6.81949 c 0,-0.215005 0.892857,-0.390919 1.984127,-0.390919 1.09127,0 1.845849,0.138279 1.676842,0.307286 -0.461088,0.461088 -3.660969,0.534188 -3.660969,0.08363 z M 44.642856,6.576511 c 0.458333,-0.119774 1.208333,-0.119774 1.666666,0 0.458334,0.119776 0.08333,0.217773 -0.833333,0.217773 -0.916667,0 -1.291667,-0.098 -0.833333,-0.217773 z M 23.571397,91.70635 c -1.8e-5,-0.15278 5.154429,-0.25995 11.454325,-0.23816 10.050067,0.0348 11.504472,-0.054 11.8631,-0.72412 0.22481,-0.42006 0.411715,-2.68788 0.415348,-5.03962 0.0038,-2.35173 0.05085,-4.38302 0.104938,-4.51397 0.05409,-0.13096 0.160648,-2.91667 0.23681,-6.19048 0.07616,-3.27381 0.187819,-7.04891 0.248133,-8.38911 0.115324,-2.56257 -0.368614,-3.43217 -4.560719,-8.19517 -1.631038,-1.85317 -7.332534,-6.272862 -8.09211,-6.272862 -0.278024,0 -0.981752,0.333581 -1.563838,0.741282 -0.593206,0.4155 -1.058336,0.52015 -1.058336,0.2381 0,-0.27675 -0.334075,-0.50319 -0.742389,-0.50319 -0.421478,0 -0.601568,0.22785 -0.416617,0.52711 0.22863,0.36993 -0.151155,0.42236 -1.273619,0.17583 C 28.427255,52.93561 7.005601,52.83567 6.629186,53.21209 6.500249,53.34102 6.270282,58.7163 6.118148,65.15715 l -0.276607,11.71064 1.364944,2.16049 c 0.750719,1.18827 1.525658,2.16088 1.722086,2.16134 0.196429,4.8e-4 0.362015,0.26871 0.36797,0.59609 0.01512,0.83098 4.486025,5.52222 7.51128,7.88145 2.06955,1.61393 2.774477,1.91638 3.928572,1.68556 0.775097,-0.15502 1.406464,-0.0764 1.406464,0.17506 0,0.25099 0.321429,0.45635 0.714286,0.45635 0.392857,0 0.714271,-0.125 0.714254,-0.27778 z m 9.526342,-10.46517 c -1.415295,-0.39381 -1.725458,-1.5237 -0.93928,-3.4217 0.437251,-1.05562 0.888783,-1.39091 1.87313,-1.39091 1.943362,0 3.005043,1.43188 2.612628,3.52363 -0.340357,1.81426 -0.911995,2.02202 -3.546478,1.28898 z M 18.973948,68.37767 c -1.867319,-1.04553 -2.134335,-1.49701 -1.838355,-3.10833 0.873628,-4.75606 5.059941,-3.63909 5.272563,1.4068 0.07513,1.78307 -0.05301,2.07281 -0.996543,2.25317 -0.595521,0.11385 -1.69247,-0.1344 -2.437665,-0.55164 z m 1.099825,-2.68392 c 0.385626,-1.00493 -0.258023,-1.54748 -0.806659,-0.67996 -0.582956,0.92179 -0.571266,1.41478 0.03354,1.41478 0.270125,0 0.618026,-0.33067 0.773114,-0.73482 z m 30.013426,11.12173 c -0.152015,-0.37988 -0.264853,-0.26704 -0.2877,0.2877 -0.02067,0.50198 0.09187,0.78323 0.250104,0.625 0.158234,-0.15824 0.175153,-0.56896 0.03757,-0.9127 z m 0.407519,-6.15581 c 0.268471,-1.34482 -0.177986,-3.75491 -0.695577,-3.75491 -0.310985,0 -0.370995,2.47773 -0.114366,4.72223 0.105557,0.92323 0.534885,0.41049 0.809943,-0.96732 z m 0.121395,-7.92157 c -0.158424,-0.94352 -0.519919,-1.36383 -2.466048,-2.8673 -1.574614,-1.21646 -2.637728,-1.43329 -1.513033,-0.3086 0.413971,0.41397 0.630914,0.94969 0.4821,1.19048 -0.148819,0.24079 0.07022,0.4378 0.486757,0.4378 0.416533,0 0.895695,0.375 1.0648,0.83333 0.566848,1.53636 2.183095,2.12979 1.945424,0.71429 z m 2.69829,-6.46929 c 1.581838,-1.6593 3.811553,-3.6062 4.954915,-4.326433 l 2.078843,-1.309519 -1.5595,-1.030715 c -0.857729,-0.566893 -2.305262,-1.828446 -3.216739,-2.803452 -0.911481,-0.975006 -1.846923,-1.655507 -2.078761,-1.512224 -0.231839,0.143282 -0.367753,0.08387 -0.302039,-0.132024 0.06572,-0.215896 -0.635085,-1.503081 -1.557342,-2.860412 l -1.676824,-2.467873 -3.549905,3.289368 c -1.952448,1.809153 -4.269748,3.991124 -5.149553,4.848826 l -1.599638,1.559458 2.739172,2.380952 c 1.506547,1.309528 3.833528,3.498978 5.171071,4.865458 1.337543,1.36649 2.530524,2.49149 2.651067,2.5 0.120543,0.009 1.513395,-1.34211 3.095233,-3.00141 z m -5.089414,-3.73036 c -0.117338,-0.34853 0.106405,-0.869288 0.497205,-1.15724 0.550462,-0.405605 0.345671,-0.470005 -0.90901,-0.285857 -1.490124,0.218705 -1.565043,0.172019 -0.937466,-0.584167 0.398976,-0.480733 0.497147,-0.955043 0.236519,-1.142716 -0.861343,-0.620242 -0.672867,-1.511327 0.319662,-1.511327 0.696209,0 0.919428,-0.218644 0.729233,-0.714285 -0.194724,-0.507438 0.04333,-0.714286 0.822067,-0.714286 0.60289,0 1.256881,0.160714 1.453309,0.357143 0.196429,0.196428 0.607143,0.357143 0.912695,0.357143 0.305557,0 0.623896,0.481083 0.707415,1.069074 0.101104,0.711771 -0.05804,1.003578 -0.476191,0.873106 -1.932662,-0.603044 -3.247095,-0.718245 -3.247095,-0.284586 0,0.266895 0.428571,0.485263 0.952381,0.485263 0.523809,0 0.952381,0.296436 0.952381,0.658747 0,0.36231 0.456609,0.778153 1.014681,0.924091 0.904938,0.236647 0.936914,0.343119 0.295619,0.984409 -1.045576,1.045578 -3.062138,1.461518 -3.323405,0.685488 z m 7.056295,4.96506 c -0.330238,-0.33024 -1.233666,0.34073 -1.233666,0.91623 0,0.31577 0.273228,0.27964 0.725795,-0.096 0.399186,-0.33129 0.627728,-0.70042 0.507871,-0.82027 z m 3.264453,-2.88539 c 0.159371,-0.39072 0.04243,-0.4899 -0.316276,-0.26821 -1.104739,0.68277 -2.277081,1.81889 -2.277081,2.20672 0,0.5366 2.278476,-1.16653 2.593357,-1.93851 z m 3.107138,-1.98047 c 0.385271,-0.243654 0.540886,-0.602621 0.345805,-0.797697 -0.195081,-0.195081 -0.716934,0.0076 -1.159681,0.450295 -0.860657,0.860662 -0.345443,1.080572 0.813876,0.347402 z M 39.019584,51.443715 c -0.50839,-0.384524 -1.138633,-0.699138 -1.400538,-0.699138 -0.261905,0 -0.06023,0.314614 0.448157,0.699138 0.508395,0.384528 1.138634,0.699143 1.400538,0.699143 0.261905,0 0.06024,-0.314615 -0.448157,-0.699143 z m 53.123272,0.217014 c 0,-0.2026 -0.28261,-0.476805 -0.62802,-0.609352 -1.11274,-0.426998 -25.08627,-0.304972 -25.08627,0.12769 0,0.229772 0.375,0.499876 0.83334,0.600238 1.62168,0.355086 24.88095,0.244238 24.88095,-0.118576 z M 14.683277,51.150215 c 3.709912,0.03624 9.4775,0.113709 12.816862,0.172133 5.505238,0.09631 7.127769,-0.118395 5.476052,-0.724646 -0.327381,-0.120163 -2.043289,-0.238588 -3.813129,-0.263167 -1.76984,-0.02458 -3.430555,-0.176122 -3.690477,-0.336763 C 25.212664,49.837132 25,49.903162 25,50.14451 c 0,0.241346 -0.589286,0.371509 -1.309524,0.289251 -1.244771,-0.142165 -8.999174,-0.213337 -14.206349,-0.13039 -1.692917,0.02697 -2.420635,0.23139 -2.420635,0.679982 0,0.352781 0.19676,0.519814 0.437245,0.37119 0.240484,-0.148628 3.472627,-0.240576 7.18254,-0.204328 z m 22.864174,-2.45654 c -0.159024,-0.257304 -0.586624,-0.144299 -0.993472,0.262553 -0.405595,0.405593 -0.555628,0.971004 -0.347162,1.30831 0.276277,0.447026 0.522124,0.382054 0.993472,-0.262552 0.34449,-0.471118 0.500714,-1.059858 0.347162,-1.308311 z M 61.36678,48.265057 c -1.1839,-1.308194 -1.621934,-1.075148 -1.052019,0.559705 0.408671,1.172309 0.630133,1.33856 1.177719,0.884104 0.577362,-0.479167 0.559271,-0.686923 -0.1257,-1.443809 z m -21.387115,-0.8512 c 0.150681,-0.243808 0.0919,-0.55581 -0.130628,-0.693339 -0.222524,-0.137529 -0.404591,0.06195 -0.404591,0.443287 0,0.802936 0.150157,0.873091 0.535219,0.250052 z m 18.829857,-1.3308 C 58.416665,45.934378 57.921351,45.518217 57.708827,45.158255 57.496303,44.798293 57.10848,44.636 56.846999,44.797604 c -0.586915,0.362733 0.963595,1.609625 1.962523,1.578229 0.63492,-0.01996 0.63492,-0.05249 0,-0.292776 z M 42.619046,44.761905 c 0,-0.392857 0.357143,-0.714286 0.793653,-0.714286 0.436509,0 0.650471,-0.14318 0.475471,-0.318177 -0.379005,-0.379006 -2.697695,0.782211 -2.697695,1.351025 0,0.217648 0.321428,0.395724 0.714285,0.395724 0.392858,0 0.714286,-0.321429 0.714286,-0.714286 z m 13.049995,-1.268453 c -1.705242,-1.93687 -4.033809,-4.207737 -4.314652,-4.207737 -0.288581,0 0.396571,0.951761 1.859895,2.583609 0.458334,0.511119 0.833334,1.103186 0.833334,1.315705 0,0.21252 0.321428,0.3864 0.714285,0.3864 0.392858,0 0.714286,0.214286 0.714286,0.47619 0,0.261905 0.247495,0.476191 0.549995,0.476191 0.305824,0 0.147277,-0.457422 -0.357143,-1.030358 z m -6.383328,-4.774557 c 0,-0.625901 -1.082276,-0.233969 -1.319553,0.477858 -0.11599,0.347976 0.10171,0.454398 0.565477,0.276434 0.414743,-0.159152 0.754076,-0.498583 0.754076,-0.754292 z m 1.428571,-1.020482 c 0,-0.349206 -0.140995,-0.775918 -0.313328,-0.948249 -0.430634,-0.430635 -1.644062,0.636578 -1.319991,1.160935 0.405767,0.656543 1.633319,0.496695 1.633319,-0.212686 z m 0.476191,-5.821754 c 0,-0.670219 -0.194167,-1.098577 -0.431486,-0.951907 -0.237314,0.14667 -0.319467,0.695031 -0.182557,1.21858 0.342643,1.310262 0.614043,1.192394 0.614043,-0.266673 z m -0.160819,-3.186183 c -0.1321,-0.327381 -0.240186,-0.05952 -0.240186,0.595239 0,0.654761 0.108086,0.922619 0.240186,0.595238 0.1321,-0.327381 0.1321,-0.863096 0,-1.190477 z m 0,-2.380952 c -0.1321,-0.327381 -0.240186,-0.05952 -0.240186,0.595238 0,0.654762 0.108086,0.922619 0.240186,0.595238 0.1321,-0.327381 0.1321,-0.863095 0,-1.190476 z M 13.750662,14.331218 c 2.127612,-2.201163 4.832671,-4.611877 6.011243,-5.357143 L 21.904762,7.619048 20.353567,7.469562 c -0.944147,-0.09099 -1.842637,0.141957 -2.295919,0.595239 -0.409597,0.409598 -0.891071,0.744723 -1.069942,0.744723 -0.479109,0 -7.21558,6.619445 -7.285325,7.158764 -0.121454,0.939178 -0.201815,1.188209 -0.57111,1.769807 -0.224771,0.353992 -0.149173,0.595238 0.186526,0.595238 0.310464,0 2.305253,-1.800951 4.432865,-4.002115 z m 0.745899,-5.661089 c 1.590362,-1.2506 1.604611,-1.290865 0.476191,-1.34561 C 11.0624,7.13481 9.948968,7.140956 9.52381,7.354599 8.780765,7.727973 7.648621,7.659428 7.327971,7.221655 7.167878,7.003086 6.917006,7.282705 6.770478,7.84303 6.56876,8.614399 6.783998,8.968234 7.656793,9.30007 c 1.403129,0.533469 1.486223,1.244196 0.193435,1.654511 -0.527612,0.167457 -0.858121,0.468172 -0.734464,0.668254 0.123658,0.200082 0.276936,1.137445 0.340617,2.08303 l 0.115785,1.719244 2.642488,-2.732899 c 1.453369,-1.503095 3.380227,-3.313029 4.281907,-4.022076 z"
     style="fill:#000000;stroke-width:0.47619048" />
</svg>
