<?xml version="1.0" encoding="UTF-8" standalone="no"?>
<svg
   xmlns:dc="http://purl.org/dc/elements/1.1/"
   xmlns:cc="http://creativecommons.org/ns#"
   xmlns:rdf="http://www.w3.org/1999/02/22-rdf-syntax-ns#"
   xmlns:svg="http://www.w3.org/2000/svg"
   xmlns="http://www.w3.org/2000/svg"
   id="svgK9"
   version="1.1"
   viewBox="0 0 100 100"
   height="100"
   width="100">
  <defs
     id="defs2" />
  <metadata
     id="metadata5">
    <rdf:RDF>
      <cc:Work
         rdf:about="">
        <dc:format>image/svg+xml</dc:format>
        <dc:type
           rdf:resource="http://purl.org/dc/dcmitype/StillImage" />
        <dc:title></dc:title>
      </cc:Work>
    </rdf:RDF>
  </metadata>
  <path
     id="pathK9"
     d="M 7,50.20044 V 5.400879 l 8.501121,-0.02967 C 20.176738,5.354889 39.06137,5.228034 57.466972,5.089307 75.872576,4.950579 91.417486,4.976355 92.011216,5.146587 c 1.06981,0.306733 1.07823,0.711643 0.93842,45.081462 L 92.808546,95 H 49.904272 7 Z m 38.332429,41.69598 c 0.02591,-5.28547 0.678902,-16.80752 1.05233,-18.567506 0.229903,-1.083544 0.305021,-3.026658 0.166936,-4.31803 -0.302813,-2.831828 -0.309652,-1.98034 0.081,-10.089492 l 0.320927,-6.662024 -2.029998,1.624648 c -1.116497,0.893557 -3.851666,3.597772 -6.078151,6.00937 C 36.618989,62.304979 28.785815,70.361294 21.438418,77.79631 11.408817,87.94551 8.079512,91.63924 8.079512,92.61751 v 1.30298 h 18.621504 18.621502 l 0.0099,-2.02407 z m 20.366097,1.07883 c 0.12377,-0.37145 -0.34181,-0.8919 -1.03461,-1.15656 -0.9714,-0.37108 -1.53756,-0.22589 -2.4741,0.63451 -1.107017,1.01702 -1.214444,1.03066 -1.214444,0.15425 0,-0.63598 -0.27609,-0.85552 -0.815536,-0.64852 -0.44854,0.17212 -1.524755,0.17111 -2.391584,-0.002 -1.325144,-0.26503 -1.631621,-0.64412 -1.925102,-2.38121 -0.22783,-1.34852 -0.585649,-1.97521 -1.030336,-1.80457 -0.374707,0.14379 -0.990448,-0.11108 -1.368308,-0.56637 -0.565969,-0.68195 -0.533654,-0.88666 0.183403,-1.16182 1.183572,-0.45418 1.093487,-1.14066 -0.243591,-1.85624 -1.321473,-0.70724 -2.776935,0.17631 -2.30715,1.40056 0.161122,0.41988 0.05236,1.45362 -0.241734,2.2972 -0.443856,1.27326 -0.362785,1.64114 0.477277,2.16577 0.556573,0.34759 1.758253,0.63198 2.670394,0.63198 0.931717,0 1.516929,0.22897 1.335502,0.52252 -0.177612,0.28738 -1.102782,0.50118 -2.055928,0.4751 -0.953145,-0.0261 -1.975887,0.0104 -2.272751,0.0811 -1.363197,0.32472 -1.6692,-0.1906 -1.682251,-2.83297 -0.0077,-1.55854 -0.183468,-3.50165 -0.390598,-4.31803 -0.226977,-0.89469 -0.158072,-1.48442 0.173428,-1.48442 0.302521,0 0.550036,-1.07867 0.550036,-2.39704 0,-2.897342 0.767168,-3.593554 1.53445,-1.39253 0.353107,1.01293 0.369283,1.72462 0.04377,1.92579 -0.937892,0.57966 0.07593,1.32374 1.827093,1.34098 2.185021,0.0215 3.658138,1.91928 4.026477,5.18716 0.147369,1.30747 0.533681,2.54145 0.858473,2.74219 1.052309,0.65036 4.7988,0.80506 4.41388,0.18224 -0.19443,-0.3146 -0.665873,-0.57199 -1.047641,-0.57199 -1.130088,0 -2.257493,-1.75371 -2.428957,-3.77828 -0.200205,-2.36401 -0.933812,-3.77828 -1.959862,-3.77828 -0.434852,0 -0.79218,-0.18216 -0.794053,-0.40481 -0.0016,-0.22265 -0.730546,-0.81858 -1.619261,-1.32428 -1.075497,-0.61199 -1.61585,-1.343697 -1.61585,-2.188072 0,-0.741368 -0.785569,-2.030013 -1.890186,-3.100653 -3.106218,-3.010665 -3.275457,-2.461503 -3.493442,11.335845 -0.05392,3.41395 -0.07913,6.39891 -0.05599,6.63326 0.02316,0.23435 4.090276,0.3558 9.038063,0.26988 6.607419,-0.11473 9.055739,-0.33553 9.221019,-0.83158 z m 3.6266,-1.29905 c -0.33527,-1.74096 -1.75382,-3.01789 -3.92229,-3.53072 -1.72419,-0.40776 -2.04361,-0.75168 -2.65298,-2.85638 -0.7425,-2.56451 -1.846271,-4.03027 -2.794284,-3.71065 -0.396374,0.13363 -0.336726,0.67767 0.184283,1.6808 0.423695,0.81577 0.888877,2.23528 1.033747,3.15448 0.144864,0.91919 0.341696,1.73426 0.437395,1.81125 0.0957,0.077 1.292049,0.78494 2.658539,1.57319 1.3665,0.78826 2.91701,1.91108 3.4456,2.49515 1.14549,1.26576 1.91575,0.97052 1.60999,-0.61712 z m 7.57298,1.00072 c 1.78119,0.0692 4.64186,0.24206 6.35704,0.38416 l 3.11852,0.25836 -1.11942,-1.57206 c -0.61567,-0.86463 -1.77611,-2.2555 -2.57876,-3.09082 -0.80264,-0.83532 -2.79524,-3.08535 -4.42799,-5.00006 -1.63276,-1.91472 -4.91176,-5.474671 -7.28668,-7.911 -2.37492,-2.43633 -4.92525,-5.215722 -5.66741,-6.176424 -0.74217,-0.960702 -1.64371,-2.041678 -2.00343,-2.402174 -0.35972,-0.360496 -1.921577,-2.321589 -3.470789,-4.357982 -1.549207,-2.036399 -3.944947,-4.807657 -5.323861,-6.158353 -1.378914,-1.350696 -2.966265,-3.233087 -3.527447,-4.183091 -1.061237,-1.79653 -1.821432,-2.210962 -1.93077,-1.05259 -0.154148,1.633057 -0.433573,6.523528 -0.688245,12.045446 l -0.27548,5.973223 1.961676,0.70935 c 2.577837,0.93216 7.307882,5.349693 6.997799,6.535462 -0.282804,1.081451 0.525542,2.668775 1.359073,2.668775 0.330794,0 1.520805,0.405619 2.64447,0.901378 1.890374,0.83403 2.369764,1.49145 3.382944,4.6392 0.16865,0.52397 0.98081,1.20681 1.80479,1.51742 2.15333,0.81175 5.00656,3.74522 5.00656,5.14736 0,1.24922 0.95971,1.93044 1.88913,1.34095 0.29687,-0.18828 1.99709,-0.28572 3.77828,-0.21653 z m 12.36266,-1.86001 c 0.46458,-1.41011 0.90916,-4.0815 0.98794,-5.93643 0.0788,-1.85493 0.30044,-3.37299 0.49256,-3.37346 0.31773,-5.4e-4 0.45576,-6.625563 0.51169,-24.559659 0.0111,-3.562374 0.004,-6.989524 -0.0156,-7.615889 -0.0358,-1.138686 -0.0386,-1.138836 -20.27656,-1.087314 -13.986866,0.03561 -20.240766,0.230005 -20.240766,0.629165 0,0.826156 2.145834,3.621329 4.62122,6.019622 2.559977,2.48025 6.138425,6.712766 8.000056,9.462299 2.35524,3.478562 10.78635,12.293129 11.75835,12.293129 0.21912,0 0.80579,0.858511 1.30371,1.907803 0.49792,1.049286 1.32129,2.130424 1.8297,2.402524 0.50842,0.27209 1.90801,1.78175 3.11021,3.35479 1.20221,1.57304 3.0518,3.79029 4.1102,4.92721 1.05842,1.13692 2.07242,2.53353 2.25335,3.10358 0.18093,0.57005 0.41452,1.03646 0.51908,1.03646 0.10457,0 0.57025,-1.15372 1.03483,-2.56383 z M 11.03643,85.9629 c 1.388143,-1.40804 4.994772,-5.23178 8.014732,-8.497205 3.019959,-3.265424 6.283188,-6.667573 7.25162,-7.56032 1.826242,-1.683524 6.025386,-5.906039 12.365809,-12.434631 2.026905,-2.087055 4.742061,-4.681662 6.033681,-5.765795 1.291619,-1.084133 2.188118,-2.230491 1.99222,-2.547461 -0.668199,-1.081169 -13.099725,-0.413734 -14.196302,0.762185 -0.219803,0.235706 -0.104789,0.534069 0.255586,0.66303 0.424929,0.15206 0.49339,0.552941 0.19478,1.140551 -0.253247,0.498342 -0.912433,1.839436 -1.464858,2.9802 -0.552426,1.140769 -1.733078,2.586403 -2.623672,3.212517 -0.890593,0.62612 -1.740705,1.289261 -1.889138,1.473647 -0.148432,0.18439 -0.693542,0.491548 -1.211357,0.682572 -1.072419,0.395623 -3.101625,3.478389 -3.104655,4.716584 -0.0029,1.17567 -1.732594,2.501149 -4.426048,3.391662 -1.771936,0.585843 -2.729731,1.377537 -4.038173,3.337874 -0.943405,1.413427 -2.704351,3.159681 -3.913215,3.88056 l -2.197933,1.310689 v 5.906701 c 0,3.24868 0.09743,5.9067 0.216514,5.9067 0.119082,0 1.352266,-1.15203 2.740409,-2.56006 z M 10.143161,73.223916 c 0.204426,-1.046728 -0.493842,-1.167973 -1.415949,-0.245869 -0.921538,0.921538 -0.801468,1.438282 0.296865,1.277619 0.519512,-0.076 1.023101,-0.540283 1.119084,-1.03175 z m 0.301175,-3.826206 c 0.777396,-1.019217 1.413448,-2.089139 1.413448,-2.377605 0,-0.28846 1.153723,-1.19767 2.56383,-2.02046 2.931637,-1.710598 3.725016,-2.592928 4.198287,-4.668983 0.261673,-1.147862 0.799944,-1.599377 2.429929,-2.038288 1.426253,-0.384051 2.703899,-1.308347 4.007427,-2.899136 1.052497,-1.284431 1.913631,-2.58419 1.913631,-2.888347 0,-0.881765 1.337986,-1.753511 2.888284,-1.881817 1.915909,-0.158566 1.834163,-0.962388 -0.09787,-0.962388 -8.340305,0 -18.694935,-0.616438 -19.339437,-1.151327 -1.557557,-1.292658 -1.996765,0.363947 -2.095482,7.903733 -0.05265,4.020992 0.11316,7.439992 0.368458,7.597778 0.255297,0.157781 0.464177,-0.334679 0.464177,-1.094361 0,-1.520881 0.482324,-1.735141 1.590494,-0.706549 0.581512,0.539754 0.650707,0.539754 0.345973,0 -0.228581,-0.404874 -0.06749,-0.674692 0.402822,-0.674692 1.044295,0 1.65462,1.692161 0.800679,2.219926 -0.371179,0.229401 -1.000333,0.146981 -1.398121,-0.183154 -0.397787,-0.33013 -0.680782,-0.376959 -0.628876,-0.104059 0.240823,1.266159 -0.105935,2.297634 -0.871128,2.591266 -0.460715,0.17679 -0.699642,0.09812 -0.530949,-0.174838 0.168693,-0.272948 0.05986,-0.648837 -0.241843,-0.835301 -0.301708,-0.186463 -0.548559,0.04727 -0.548559,0.5194 0,0.472133 0.364334,0.998231 0.809631,1.169106 0.445297,0.170881 0.809631,0.527588 0.809631,0.792694 0,0.2651 -0.364334,0.482005 -0.809631,0.482005 -0.539754,0 -0.809631,0.539754 -0.809631,1.619261 0,2.107156 0.626503,2.045203 2.364829,-0.233864 z m 2.760476,-6.786745 c -0.184769,-0.298964 0.04378,-0.689282 0.507899,-0.867379 0.464113,-0.178097 0.843841,-0.632419 0.843841,-1.009604 0,-0.377191 0.370204,-0.993039 0.822675,-1.368556 0.45247,-0.375518 0.694829,-0.810602 0.538576,-0.966856 -0.156254,-0.156253 0.11841,-0.728867 0.610365,-1.272469 0.83233,-0.919714 0.832412,-1.056935 0.0012,-1.975439 -1.172395,-1.295469 -1.127112,-1.7117 0.186211,-1.7117 0.734065,0 1.079508,0.359838 1.079508,1.124485 0,0.618472 0.182167,1.035734 0.404815,0.927254 4.198337,-2.045548 4.297152,-2.842165 0.359861,-2.901085 -3.017854,-0.04516 -5.082706,-0.598873 -5.082706,-1.362981 0,-0.824189 1.686244,-1.251401 2.12666,-0.538792 0.229638,0.371561 1.039302,0.528498 1.911052,0.37042 0.831931,-0.150858 1.906736,-0.06335 2.388454,0.194455 0.564675,0.302204 1.245373,0.198543 1.915914,-0.291768 1.143375,-0.836056 2.992748,-1.024352 2.992748,-0.304709 0,0.25069 -0.606926,1.161524 -1.348725,2.024076 -0.741799,0.862553 -1.349456,1.811165 -1.350349,2.108029 -9.18e-4,0.296865 -1.069545,1.214409 -2.37478,2.03899 -1.451171,0.916772 -2.510223,2.045354 -2.725963,2.904928 -0.323658,1.289558 -2.209388,3.361505 -3.098341,3.404308 -0.205129,0.0099 -0.524135,-0.226648 -0.708903,-0.525607 z M 9.63788,60.754709 C 9.493066,60.609893 9.431644,58.504108 9.501386,56.075184 c 0.144954,-5.048408 0.870837,-6.439273 2.650831,-5.079263 1.0361,0.791635 1.03325,0.812145 -0.159495,1.14774 -1.371414,0.385865 -1.503984,0.789859 -0.566741,1.727104 0.442872,0.442873 0.458853,0.647705 0.05053,0.647705 -0.331436,0 -0.471553,0.48037 -0.314875,1.079507 0.178422,0.682292 0.01087,1.093466 -0.455347,1.117447 -0.405705,0.02089 -0.251866,0.233735 0.341863,0.473045 0.593729,0.239311 1.344745,0.224349 1.668923,-0.03325 0.688407,-0.54703 1.299723,-0.07878 1.299723,0.995532 0,0.414482 -0.425056,0.710365 -0.944569,0.657517 -1.816603,-0.184784 -2.340053,0.03508 -2.182677,0.916804 0.153008,0.857237 -0.712278,1.569027 -1.251673,1.029635 z m 3.081651,-5.61216 c -0.186782,-0.302219 -0.07659,-0.712038 0.244866,-0.91071 0.829863,-0.51288 1.36529,0.189642 0.672523,0.882411 -0.38764,0.38764 -0.689549,0.396951 -0.917389,0.02828 z m 8.536229,8.751319 c 0.709044,-1.847739 -0.616431,-1.841608 -2.028248,0.0094 -0.78784,1.032899 -1.432437,2.021901 -1.432437,2.197763 0,0.664032 3.1233,-1.327945 3.460685,-2.207155 z m 8.953651,-11.433787 c 0,-0.677823 -0.158064,-0.637725 -0.792465,0.201026 -1.036786,1.370753 -1.047231,2.172487 -0.01716,1.317609 0.445297,-0.369564 0.80963,-1.052952 0.80963,-1.518635 z m 1.619261,-5.226552 c 4.007672,-0.18779 8.015341,-0.401898 8.905935,-0.475797 0.890593,-0.0739 2.278802,-0.179634 3.084908,-0.234965 1.40845,-0.09668 1.3242,-0.242773 -2.159015,-3.743941 C 39.666936,40.77499 36.654095,37.975687 34.965299,36.558151 33.2765,35.140616 29.390273,31.398173 26.329239,28.241611 18.492221,20.160022 11.223059,12.852426 9.925668,11.751311 L 8.822537,10.815068 8.811677,22.276509 c -0.006,6.303793 -0.08007,14.327509 -0.164666,17.830479 -0.08459,3.502971 -0.0552,6.467646 0.06532,6.588168 0.120521,0.120522 2.880154,0.370299 6.132517,0.555062 3.252363,0.184762 5.971855,0.3944 6.043317,0.465861 0.07146,0.07146 0.922807,0.06895 1.891879,-0.0056 0.969073,-0.07454 5.040953,-0.289169 9.048625,-0.476959 z m 18.381527,-0.827366 c 0.571135,-0.305665 1.38028,-1.2165 1.798087,-2.024077 0.417808,-0.807577 1.816936,-2.576319 3.109171,-3.930537 2.797662,-2.931858 5.48305,-5.92202 7.881989,-8.776546 0.96481,-1.148038 1.7542,-1.909518 1.7542,-1.692178 0,0.21734 0.74613,-0.549069 1.65805,-1.703131 1.55309,-1.965472 8.51337,-8.889025 16.0847,-15.999834 1.81921,-1.708555 3.30765,-3.335945 3.30765,-3.616422 0,-0.626529 -34.85929,-0.968409 -35.479737,-0.347965 -0.227264,0.227265 -0.472609,7.091056 -0.937666,26.232108 -0.133438,5.491994 -0.359838,10.531945 -0.503115,11.19989 -0.293821,1.369755 -0.142425,1.444925 1.326671,0.658692 z m 15.622957,-0.01804 c 0.14843,-0.05158 0.45204,-0.06503 0.67469,-0.02987 0.22265,0.03515 0.40482,-0.300417 0.40482,-0.745714 0,-0.916593 0.84521,-1.085636 1.34938,-0.269877 0.50417,0.81576 1.34939,0.646716 1.34939,-0.269877 0,-0.445297 -0.26024,-0.80963 -0.57831,-0.80963 -0.31807,0 -0.88611,-0.307798 -1.2623,-0.683996 -0.55216,-0.552158 -0.5044,-1.098344 0.24778,-2.833707 1.17563,-2.712289 2.67117,-4.280706 5.418,-5.682034 1.19059,-0.607396 2.31804,-1.518439 2.50545,-2.02454 0.79812,-2.155432 2.94726,-4.777821 4.68059,-5.711283 1.02571,-0.552382 2.13228,-1.649757 2.45903,-2.43861 1.30368,-3.14736 4.91584,-5.994256 7.60555,-5.994256 0.97537,0 1.05411,-0.403184 1.05411,-5.397537 0,-3.964748 -0.17951,-5.397538 -0.67623,-5.397538 -1.23303,0 -24.86206,22.934699 -30.359611,29.467501 -1.187458,1.411071 -2.887683,3.34223 -3.778276,4.291464 -3.184385,3.394056 -3.61023,3.96211 -3.321035,4.430039 0.233023,0.377043 11.172192,0.466032 12.226972,0.09946 z m 25.20305,-0.459757 c 0.7793,-0.05558 0.95507,-19.477085 0.17627,-19.477085 -0.60636,0 -1.31192,4.492152 -0.93309,5.940804 0.1546,0.591206 0.0716,1.204385 -0.18441,1.36262 -0.25603,0.158235 -0.31928,0.668769 -0.14056,1.134519 0.17873,0.465751 -0.014,1.061476 -0.42838,1.323834 -0.53849,0.340964 -0.56092,0.479371 -0.0786,0.485279 0.46387,0.0057 0.67469,1.020213 0.67469,3.246788 0,3.647902 0.32617,3.443298 -5.19841,3.260932 -2.11696,-0.06988 -3.99427,0.107959 -4.17179,0.395198 -0.17753,0.287239 -1.90663,0.556598 -3.84247,0.598575 -3.5833,0.0777 -4.38607,-0.473663 -2.88099,-1.978743 0.35129,-0.351291 0.49648,-0.780937 0.32265,-0.954771 -0.17384,-0.173834 -0.94309,0.732952 -1.70946,2.015081 l -1.3934,2.331142 3.90446,0.269877 c 3.16383,0.218684 13.06024,0.247314 15.88354,0.04595 z m -44.08953,-6.25312 c 0.155427,-7.625797 0.123339,-7.826429 -1.251819,-7.826429 -1.328069,0 -4.690374,-2.904775 -4.690374,-4.05213 0,-0.377033 -0.86719,-0.848201 -1.927093,-1.04704 -2.679438,-0.502666 -6.169211,-4.185091 -6.169211,-6.509784 0,-0.455689 -0.667945,-1.12693 -1.484322,-1.491646 -1.391841,-0.621805 -3.114946,-2.325628 -4.991788,-4.935929 -0.444782,-0.618601 -0.809116,-1.974841 -0.80963,-3.013867 l -9.18e-4,-1.889138 -7.421614,-0.03351 c -4.081887,-0.01843 -7.421614,0.0356 -7.421614,0.120065 0,0.165015 7.228493,7.649877 17.922078,18.557711 3.650195,3.723328 8.210378,8.095333 10.133742,9.715568 1.923364,1.620234 4.352256,3.843737 5.397538,4.941118 1.045281,1.09738 2.066457,1.826048 2.269275,1.619261 0.202818,-0.206787 0.403412,-2.0762 0.445767,-4.154252 z m 23.03347,2.867441 c -0.1723,-0.430579 -0.3002,-0.30268 -0.3261,0.326102 -0.0234,0.56899 0.10413,0.887782 0.28349,0.708427 0.17935,-0.179356 0.19853,-0.644894 0.0426,-1.034529 z m 16.49859,-1.09794 c 0.81638,0.0419 1.51116,-0.09621 1.54396,-0.306907 0.0328,-0.210698 0.1003,-2.130575 0.15001,-4.266394 0.0497,-2.135819 0.26576,-4.058691 0.48011,-4.27305 0.91306,-0.91305 0.25268,-1.617607 -1.63433,-1.743672 -1.87956,-0.125567 -1.94845,-0.07981 -0.96494,0.640904 0.90105,0.66028 0.95161,0.905691 0.33873,1.644164 -0.55249,0.665705 -0.57394,1.044524 -0.092,1.625181 0.82569,0.994897 -0.37726,1.471467 -1.68044,0.66574 -0.68811,-0.425436 -1.16612,-0.337518 -1.93164,0.355277 -0.5595,0.506336 -1.48392,0.92433 -2.05427,0.928875 -0.81796,0.0065 -0.87619,0.11007 -0.27568,0.490218 0.47032,0.297727 1.14716,0.242988 1.77068,-0.143203 0.80095,-0.496093 1.11565,-0.458008 1.52435,0.184474 0.28326,0.445297 0.51874,0.991797 0.52328,1.214446 0.008,0.384316 -3.11578,0.657199 -4.84952,0.423657 -0.64987,-0.08754 -0.6765,0.02765 -0.13494,0.583753 1.01237,1.039552 0.81302,1.67307 -0.40481,1.286543 -0.78777,-0.250027 -1.07951,-0.09699 -1.07951,0.566261 0,0.804777 0.41732,0.859553 3.64334,0.478219 2.00384,-0.236866 4.31128,-0.396384 5.12766,-0.354486 z m -0.85461,-3.478722 c -0.68429,-0.684295 -0.35565,-1.259425 0.71967,-1.259425 0.59973,0 1.07951,0.359836 1.07951,0.809631 0,0.821727 -1.1418,1.107176 -1.79918,0.449794 z m -12.81335,1.026835 c 0.46684,-0.375311 1.87758,-1.169175 3.13497,-1.764141 1.62016,-0.766615 2.38831,-1.511281 2.63679,-2.556138 0.41237,-1.734081 2.66423,-4.132896 4.3878,-4.674151 1.35127,-0.424342 1.65131,-1.388136 0.43214,-1.388136 -1.02587,0 -5.26359,4.107877 -6.54256,6.342107 -0.5523,0.964809 -1.39712,1.754199 -1.87736,1.754199 -1.13108,0 -4.9036,3.7645 -4.47213,4.462628 0.18313,0.296302 0.57941,0.08271 0.89072,-0.4801 0.30844,-0.557635 0.94278,-1.320956 1.40963,-1.696268 z m 4.89696,0.380654 c 0,-0.279344 -0.24289,-0.507899 -0.53975,-0.507899 -0.29687,0 -0.53976,0.378669 -0.53976,0.841485 0,0.462817 0.24289,0.691372 0.53976,0.507899 0.29686,-0.183472 0.53975,-0.56214 0.53975,-0.841485 z m 4.7887,-5.455642 c 0.49426,-0.791428 0.45878,-0.989548 -0.17723,-0.989548 -0.43736,0 -1.03353,0.445297 -1.3248,0.989548 -0.38822,0.725402 -0.34091,0.989549 0.17723,0.989549 0.38875,0 0.98491,-0.445297 1.3248,-0.989549 z M 46.848295,29.430296 c -0.335555,-0.736455 -1.061674,-1.482336 -1.61361,-1.657513 -0.551936,-0.175177 -1.381603,-1.049644 -1.843713,-1.94326 -0.529547,-1.024036 -1.12605,-1.515064 -1.61334,-1.328074 -0.425229,0.163177 -0.773149,0.06142 -0.773149,-0.226129 0,-0.287547 -0.667945,-0.489736 -1.484322,-0.449309 -1.171849,0.05803 -1.242276,0.120963 -0.334534,0.298944 1.134065,0.222357 5.126564,3.405828 4.271362,3.405828 -0.242381,0 0.138928,0.571341 0.847354,1.269648 1.073214,1.05788 1.735751,1.478981 3.03068,1.926262 0.06785,0.02344 -0.15118,-0.559942 -0.486728,-1.296397 z m 42.402591,-3.329387 c 1.38016,-1.38016 2.36546,-2.653305 2.18956,-2.829211 -0.17591,-0.175906 -0.55657,0.103203 -0.84592,0.620243 -0.28935,0.51704 -0.98201,0.940073 -1.53925,0.940073 -0.59735,0 -1.36165,0.698588 -1.86232,1.702188 -1.42424,2.854974 -1.17861,2.803257 2.05793,-0.433293 z M 47.481528,21.895223 c 0,-2.945896 -0.236844,-5.242187 -0.561387,-5.442763 -0.361575,-0.223467 -0.441297,0.131523 -0.223981,0.99738 0.185578,0.739385 0.06532,1.852738 -0.267232,2.474117 -0.400973,0.749229 -0.416437,1.129781 -0.04588,1.129781 1.022434,0 0.576269,1.715741 -0.520765,2.002622 -0.593729,0.155263 -1.079507,0.615526 -1.079507,1.022805 0,0.829228 1.629975,2.911864 2.27897,2.911864 0.23089,0 0.419798,-2.293113 0.419798,-5.095806 z m -10.485434,0.360109 c -0.932564,-0.890713 -0.947041,-0.876236 -0.328958,0.328956 0.355595,0.693371 0.794566,1.112644 0.975491,0.931718 0.180926,-0.180926 -0.110012,-0.748229 -0.646533,-1.260674 z m 6.977035,-0.959423 c 0,-0.731784 -0.328446,-1.015458 -1.079507,-0.932349 -1.935136,0.214133 -4.043987,-0.983494 -4.369976,-2.481733 -0.169451,-0.778798 -0.447812,-1.78033 -0.61858,-2.225627 -0.170767,-0.445297 -0.268905,-1.000852 -0.218087,-1.234567 0.120289,-0.553213 -2.616279,-2.962418 -3.83423,-3.375557 -0.519513,-0.176222 -0.94457,-0.818144 -0.94457,-1.426492 0,-0.897219 0.229329,-1.03598 1.214446,-0.734828 2.314617,0.707584 4.650101,0.84877 4.9883,0.301556 0.227743,-0.368493 0.710699,-0.351337 1.464373,0.05202 0.618509,0.331015 2.063311,0.475933 3.210671,0.322039 1.666064,-0.223466 2.236805,-0.06467 2.834485,0.78864 0.881974,1.259193 1.648775,0.461661 1.129418,-1.174682 -0.321898,-1.014222 -0.828101,-1.074677 -8.99852,-1.074677 -8.036593,0 -8.628964,0.06774 -8.260402,0.944569 0.218369,0.519513 0.513942,1.482604 0.656829,2.140203 0.248976,1.145853 2.755281,3.414201 4.463347,4.039582 0.447595,0.16388 1.239623,1.482109 1.760059,2.929399 1.020583,2.838141 2.903416,4.363799 5.25256,4.256147 0.956546,-0.04383 1.349384,-0.368043 1.349384,-1.113639 z m 0.809631,-2.972795 c 0,-0.611249 0.242889,-0.961248 0.539753,-0.777776 0.296865,0.183473 0.539754,0.0907 0.539754,-0.206167 0,-0.296865 -0.264053,-0.702947 -0.586782,-0.902406 -0.358904,-0.221815 -0.393146,-0.556287 -0.08818,-0.861256 0.614801,-0.614799 0.06362,-4.35446 -0.676371,-4.58905 -0.870979,-0.276117 -2.295216,0.917527 -1.486687,1.245976 0.491354,0.199601 0.520161,0.553023 0.107859,1.32341 -0.734556,1.372531 -1.764676,0.719293 -1.366635,-0.866634 0.265559,-1.058074 0.06424,-1.267153 -1.440586,-1.496108 -2.069502,-0.314867 -3.04997,0.09723 -1.841025,0.773788 0.471092,0.263635 0.728614,0.812678 0.572274,1.220096 -0.156339,0.407418 -0.02083,0.903556 0.301097,1.102529 0.321946,0.198973 0.449857,0.581014 0.284245,0.848981 -0.435484,0.704621 1.364109,3.244952 2.674436,3.775281 1.825836,0.738972 2.466848,0.585488 2.466848,-0.590664 z m -3.243451,-2.402979 c -0.555066,-0.668815 -0.474751,-0.803688 0.478594,-0.803688 0.630077,0 1.145595,0.228554 1.145595,0.507899 0,0.935102 -0.95002,1.108115 -1.624189,0.295789 z m -6.472115,1.625203 c 0,-0.445296 -0.101579,-0.80963 -0.225732,-0.80963 -0.124152,0 -0.633981,-0.15666 -1.132953,-0.348134 -0.803395,-0.308291 -0.824474,-0.215635 -0.184186,0.809631 0.84149,1.347439 1.542871,1.505698 1.542871,0.348133 z M 31.248066,14.71338 c -0.719693,-0.815417 -1.490699,-1.564325 -1.713347,-1.664241 -0.222649,-0.09992 -0.404816,-0.52576 -0.404816,-0.946317 0,-0.420559 -0.242889,-0.764652 -0.539753,-0.764652 -0.688518,0 -0.67992,0.348821 0.04184,1.697443 0.967414,1.80763 2.311781,3.160341 3.140846,3.160341 0.557813,0 0.406528,-0.427408 -0.524771,-1.482574 z M 9.698769,6.95405 c 0,-0.260514 -0.364334,-0.473663 -0.809631,-0.473663 -0.465364,0 -0.809631,0.487124 -0.809631,1.145597 0,0.957111 0.133211,1.035043 0.809631,0.473664 C 9.334435,7.730085 9.698769,7.214566 9.698769,6.95405 Z"
     style="fill:#000000;stroke-width:0.53975374" />
</svg>
