<?xml version="1.0" encoding="UTF-8" standalone="no"?>
<svg
   xmlns:dc="http://purl.org/dc/elements/1.1/"
   xmlns:cc="http://creativecommons.org/ns#"
   xmlns:rdf="http://www.w3.org/1999/02/22-rdf-syntax-ns#"
   xmlns:svg="http://www.w3.org/2000/svg"
   xmlns="http://www.w3.org/2000/svg"
   id="svgKD5"
   version="1.1"
   viewBox="0 0 100 100"
   height="100"
   width="100">
  <defs
     id="defs2" />
  <metadata
     id="metadata5">
    <rdf:RDF>
      <cc:Work
         rdf:about="">
        <dc:format>image/svg+xml</dc:format>
        <dc:type
           rdf:resource="http://purl.org/dc/dcmitype/StillImage" />
        <dc:title></dc:title>
      </cc:Work>
    </rdf:RDF>
  </metadata>
  <path
     id="pathKD5"
     d="m 65.721134,92.752549 c -2.173972,-1.632166 -5.040278,-3.650342 -6.369573,-4.484848 -1.329294,-0.834507 -2.238779,-1.991236 -2.021074,-2.570514 0.227903,-0.606429 -0.111448,-0.858575 -0.799925,-0.594378 -2.59322,0.995109 -12.768747,-15.833873 -12.768747,-21.117818 0,-2.655052 2.966739,-6.4986 3.878007,-5.024138 0.384314,0.621845 0.188595,0.945303 -0.484906,0.801366 -1.690823,-0.361354 -3.09976,5.900707 -1.705598,7.580573 0.866418,1.043963 1.439495,1.108686 2.722446,0.307469 0.893771,-0.558165 1.429631,-1.330999 1.190819,-1.71741 -0.238821,-0.386411 0.08318,-0.715057 0.715593,-0.730323 0.632393,-0.01527 0.03953,-1.00451 -1.317471,-2.198319 -2.368893,-2.083999 -2.386407,-2.156916 -0.439187,-1.828408 1.115446,0.188185 1.929276,0.782161 1.8085,1.319947 -0.120777,0.537785 0.129568,0.977792 0.556334,0.977792 1.316251,0 1.846428,-3.786124 0.724465,-5.173547 -0.87016,-1.076037 -0.82401,-1.175683 0.256353,-0.5535 0.800356,0.46093 0.64895,-0.0031 -0.38572,-1.182089 -1.476817,-1.682821 -1.805161,-1.758833 -2.46951,-0.571699 -0.421426,0.753046 -1.107663,1.158159 -1.524969,0.900251 -0.417298,-0.257908 -4.444505,0.1742 -8.949336,0.960238 C 32.78313,58.822389 27.432763,59.13771 21.713516,58.83293 13.125291,58.37526 9.1713732,57.115722 6.8213194,54.08895 5.6342522,52.560056 5.6579972,52.557654 7.3936442,54.03103 c 0.9959246,0.845434 2.5701838,1.509371 3.4983538,1.475416 1.621062,-0.05931 1.618335,-0.09459 -0.06916,-0.895163 -1.4318957,-0.679312 -1.2618216,-0.759761 0.919741,-0.435053 1.472067,0.219104 3.250772,-0.0083 3.952677,-0.505256 0.99853,-0.707024 0.893976,-0.78514 -0.480553,-0.359032 -1.175965,0.364551 -0.833653,-0.193703 1.035424,-1.688604 1.535692,-1.228258 3.640166,-3.313561 4.676608,-4.634006 1.036442,-1.320445 1.6256,-1.807908 1.30924,-1.08325 -0.316361,0.724658 0.370253,0.295263 1.525808,-0.95421 1.155554,-1.249474 2.669696,-2.142257 3.36476,-1.983964 0.695059,0.158292 3.558782,0.729622 6.363813,1.269621 5.089476,0.979777 5.096793,0.985721 3.51978,2.862337 -1.466742,1.745401 -1.418888,1.738516 0.665965,-0.09582 1.922635,-1.691596 3.250524,-1.978276 9.216634,-1.989789 7.27564,-0.01404 12.073304,-1.341398 5.744716,-1.589376 -1.921643,-0.07529 -5.314366,-0.754975 -7.539408,-1.510393 -2.225032,-0.755418 -4.918176,-1.113633 -5.984766,-0.796032 -1.823098,0.542866 -1.84251,0.503537 -0.324155,-0.656572 1.442561,-1.102193 1.067205,-1.229196 -3.513491,-1.188813 -3.531893,0.03114 -5.063503,0.377204 -4.919538,1.111568 0.122191,0.623241 -0.343382,0.854365 -1.120382,0.556201 -1.040687,-0.399349 -1.11202,-0.821745 -0.328414,-1.944728 0.550555,-0.789015 -0.540419,0.200662 -2.424397,2.199283 L 23.05748,44.829251 19.13609,43.51693 C 14.909863,42.102598 8.3326687,37.219966 6.8026575,34.361116 5.9330359,32.736212 6.0121,32.679557 7.808014,33.640701 c 1.1324596,0.606073 3.936697,0.878365 6.692458,0.649835 2.647038,-0.219513 4.241151,-0.07482 3.607112,0.327414 -1.818995,1.153961 -0.02852,0.858954 3.347151,-0.551491 1.71012,-0.714533 2.869267,-1.687547 2.575883,-2.162252 -0.828789,-1.341007 6.091271,-4.443951 9.910726,-4.443951 3.47905,0 14.523981,4.933733 13.771304,6.151596 -0.210239,0.340176 0.618699,1.074567 1.842088,1.631982 1.223389,0.557414 2.000248,0.650883 1.726354,0.207709 -0.704552,-1.139983 0.40948,-3.688636 1.356489,-3.103352 0.432484,0.267289 0.786336,-1.539672 0.786336,-4.015468 0,-2.475797 0.420899,-5.287912 0.935336,-6.249145 0.514436,-0.961233 0.759186,-2.219867 0.543888,-2.796966 -0.424342,-1.137428 -2.415411,3.253104 -2.611262,5.758119 -0.0708,0.905458 -0.834287,1.537153 -1.857881,1.537153 -1.716534,0 -1.716929,-0.01572 -0.03267,-1.289625 1.308696,-0.989843 1.398764,-1.302326 0.387485,-1.344268 -1.033432,-0.04286 -0.982091,-0.249948 0.238065,-0.960294 0.855597,-0.498107 1.354029,-1.231836 1.107637,-1.63051 -0.246392,-0.398674 0.136209,-1.209702 0.85023,-1.802286 0.71402,-0.592583 1.084404,-1.423377 0.823079,-1.846209 -0.261325,-0.422833 0.122586,-0.53942 0.853128,-0.259084 0.975996,0.374524 1.235344,0.02719 0.977884,-1.309656 -0.207858,-1.079341 0.07431,-1.737346 0.693704,-1.61773 0.574236,0.110896 0.989882,-0.485835 0.923644,-1.32607 -0.06623,-0.840235 0.230221,-1.310992 0.658779,-1.046127 0.428567,0.264864 0.779205,-0.134657 0.779205,-0.887826 0,-0.753169 0.494085,-1.2705808 1.097966,-1.149805 0.632911,0.126583 1.068426,-0.6175008 1.028223,-1.7567448 C 60.772575,7.0009098 61.25601,6.37931 62.357507,6.37931 c 0.883793,0 1.606896,-0.409175 1.606896,-0.9092774 0,-0.6256983 0.528033,-0.6266804 1.693116,-0.00316 0.931207,0.4983703 2.383271,0.6412894 3.226799,0.3175977 1.141928,-0.4382018 1.401083,-0.242994 1.014573,0.7642317 -0.379659,0.9893782 0.373598,1.6202202 2.804126,2.3484252 1.82778,0.547619 3.923015,0.995667 4.656078,0.995667 1.525066,0 2.504751,3.7060928 1.436193,5.4330468 -0.392976,0.635112 -1.815527,1.237614 -3.161238,1.338893 -5.589832,0.420697 -7.968738,1.340963 -8.932111,3.45534 -1.934089,4.244864 -1.212277,6.56164 3.442062,11.047828 4.353822,4.196526 6.11762,4.68629 6.11762,1.698717 0,-1.623574 6.576676,-7.163115 8.504212,-7.163115 1.941187,0 1.294019,2.40053 -1.169597,4.33841 -2.500341,1.96677 -4.096581,4.558659 -4.98329,8.091582 -0.396884,1.581306 0.122243,3.256212 1.821508,5.876866 2.608934,4.023568 4.02755,4.286369 4.440702,0.822648 0.324488,-2.720347 6.627101,-9.803824 8.243641,-9.26498 1.892436,0.630813 1.300457,3.623091 -0.937505,4.73884 -2.333115,1.163183 -4.091318,4.472444 -4.877137,9.17969 -0.288422,1.727712 -1.024481,3.825188 -1.635688,4.661056 -1.016242,1.389796 -1.434427,1.212356 -4.890068,-2.074924 l -3.778804,-3.594684 -2.17652,4.367708 c -1.35453,2.718184 -3.796959,5.603473 -6.467221,7.63984 -3.847862,2.934415 -4.242725,3.552103 -3.825885,5.984766 0.836589,4.882205 1.046037,5.129256 3.983025,4.698203 4.642218,-0.681336 12.140491,1.685035 12.140491,3.831409 0,1.067057 -5.015341,0.969039 -7.084726,-0.138457 -1.180357,-0.631709 -1.699001,-0.626596 -1.699001,0.01678 0,0.538021 -0.880446,0.705035 -2.101332,0.398615 -1.209695,-0.303618 -3.270542,0.07721 -4.856848,0.89753 -1.515527,0.78371 -3.237989,1.129183 -3.827685,0.767698 -0.589695,-0.361477 -0.431808,0.314088 0.350849,1.501262 1.116209,1.693107 2.484618,2.293132 6.346823,2.78301 4.577841,0.580639 8.919208,2.503529 10.442947,4.625423 1.136623,1.582828 0.717209,3.972968 -0.697173,3.972968 -0.75317,0 -1.127901,-0.390735 -0.83275,-0.868307 0.300597,-0.486372 -0.02802,-0.651612 -0.747179,-0.375662 -0.793329,0.304426 -1.500858,-0.191143 -1.851873,-1.297111 -0.590074,-1.859146 -4.704635,-3.148738 -8.250029,-2.585736 -1.770132,0.281097 -1.705492,0.520339 1.303453,4.823953 1.741277,2.490503 3.021716,4.903955 2.845409,5.363221 -0.176298,0.459275 -2.099249,-0.500365 -4.273222,-2.132531 z M 61.396475,74.139628 c 0.03698,-0.793742 0.20286,-2.15695 0.368662,-3.02935 0.243335,-1.280395 0.06105,-1.386661 -0.945578,-0.551223 -1.513409,1.256012 -1.596574,0.482043 -0.224854,-2.092616 0.937751,-1.760122 0.896432,-1.814835 -0.500251,-0.662395 -0.837344,0.690909 -1.349005,1.919389 -1.137045,2.729951 0.211969,0.810563 0.02213,2.122799 -0.421759,2.916075 -0.53478,0.955591 -0.47852,1.442315 0.166697,1.442315 0.535623,0 0.732361,0.390744 0.43721,0.868315 -0.307729,0.497914 0.04488,0.645165 0.826532,0.345209 0.749752,-0.287711 1.393424,-1.172531 1.430386,-1.966281 z m -1.945447,-7.445387 c 0.726327,-0.875178 0.679518,-1.171165 -0.18524,-1.171165 -0.636469,0 -1.157221,0.527024 -1.157221,1.171165 0,0.644139 0.08336,1.171163 0.18524,1.171163 0.101883,0 0.622626,-0.527024 1.157221,-1.171163 z m 8.800127,-9.010942 c -0.790588,-1.000378 -0.167786,-2.115114 1.181702,-2.115114 0.431096,0 0.504871,0.494085 0.16393,1.097966 -0.463227,0.820491 -0.311699,0.811248 0.599604,-0.03657 1.038597,-0.966258 1.02514,-1.259241 -0.09074,-1.975238 -1.941371,-1.245673 -3.884129,-0.619459 -4.228943,1.363122 -0.167076,0.960662 -0.870204,2.190522 -1.562494,2.733022 -0.692298,0.5425 -1.013378,1.625723 -0.713511,2.407162 0.478468,1.246854 0.842913,1.179865 2.97685,-0.547177 1.529106,-1.237541 2.150282,-2.32399 1.673598,-2.927168 z m -44.331842,-3.45795 c 2.372013,-2.166577 4.150715,-4.092144 3.952677,-4.279037 -0.19804,-0.186893 -2.510505,1.594474 -5.138813,3.958594 -2.628307,2.364118 -4.407012,4.289685 -3.952677,4.279036 0.454334,-0.01065 2.7668,-1.792015 5.138813,-3.958593 z m 3.592605,0.464463 c 1.886956,-1.93242 3.233194,-3.513491 2.991642,-3.513491 -0.241544,0 -1.983059,1.581071 -3.870015,3.513491 -1.886958,1.932421 -3.233199,3.513492 -2.991646,3.513492 0.241552,0 1.98306,-1.581071 3.870019,-3.513492 z m 6.587796,1.31756 c 1.13463,-1.207763 1.865339,-2.195932 1.623787,-2.195932 -0.241553,0 -1.36753,0.988169 -2.502159,2.195932 -1.134638,1.207762 -1.865339,2.195932 -1.623787,2.195932 0.241553,0 1.367521,-0.98817 2.502159,-2.195932 z M 18.206093,54.977009 c 3.749073,-2.788069 6.23152,-5.233322 6.23152,-6.138155 0,-0.359799 -1.482254,0.750463 -3.293898,2.467247 -1.811644,1.716784 -4.2712,3.773342 -5.46568,4.570128 -1.194481,0.796786 -1.824692,1.448702 -1.400469,1.448702 0.424221,0 2.192059,-1.056565 3.928527,-2.347922 z m 17.567475,-3.581094 c 0.206628,-0.120777 -0.184283,-0.219582 -0.868676,-0.219568 -0.684401,1.5e-5 -2.394444,1.482269 -3.800086,3.293898 l -2.555722,3.293872 3.424406,-3.074305 c 1.883425,-1.690867 3.593458,-3.173121 3.800078,-3.293897 z m 4.305116,0.19635 c -0.270443,-0.27044 -0.761593,0.217057 -1.091449,1.083326 -0.476675,1.251855 -0.375785,1.352749 0.491713,0.491709 0.600298,-0.59583 0.870178,-1.304595 0.599736,-1.575035 z m 6.318249,0.901615 c 0.630277,-0.759434 0.715646,-1.317559 0.201525,-1.317559 -0.490571,0 -1.119468,0.592902 -1.397543,1.317559 -0.278076,0.724658 -0.368759,1.31756 -0.201526,1.31756 0.167234,0 0.796131,-0.592902 1.397544,-1.31756 z m 10.540474,0 c 0,-0.724657 0.658779,-1.317559 1.463957,-1.317559 0.805169,0 1.203871,-0.260082 0.885988,-0.577961 -0.317874,-0.317879 -0.13772,-1.108414 0.400345,-1.756746 0.538065,-0.648331 0.633456,-1.184837 0.211969,-1.192234 -0.421478,-0.0074 -0.233348,-0.351212 0.418062,-0.764033 0.651418,-0.41282 1.020634,-1.493753 0.820488,-2.402074 -0.269758,-1.224231 -0.88526,-0.572076 -2.379091,2.520778 -1.108348,2.294749 -2.366924,4.17227 -2.796826,4.17227 -0.429902,0 -0.781638,0.592902 -0.781638,1.317559 0,0.724658 0.395268,1.31756 0.878373,1.31756 0.483105,0 0.878373,-0.592902 0.878373,-1.31756 z m 14.053964,0.439187 c 0,-0.483105 -0.174304,-0.878373 -0.387345,-0.878373 -0.213049,0 -0.631638,0.395268 -0.930214,0.878373 -0.298577,0.483105 -0.124272,0.878373 0.387345,0.878373 0.511617,0 0.930214,-0.395268 0.930214,-0.878373 z M 50.619157,49.83552 c -0.270442,-0.270441 -0.761593,0.217056 -1.091448,1.083326 -0.476676,1.251855 -0.375786,1.352748 0.491713,0.491708 0.600297,-0.59583 0.870177,-1.304595 0.599735,-1.575034 z m -9.539041,-3.347876 c -0.215939,-0.192527 -1.346791,0.882481 -2.513006,2.388908 l -2.120401,2.738956 2.513007,-2.388908 c 1.382154,-1.313899 2.336331,-2.54643 2.1204,-2.738956 z m 12.678951,3.325497 c 0.299956,-0.781686 0.152697,-1.134262 -0.345218,-0.826534 -0.477571,0.295156 -0.868306,0.908587 -0.868306,1.36318 0,1.26348 0.629582,0.985062 1.213524,-0.536646 z m -18.82756,-4.20387 c -0.215939,-0.192527 -1.346791,0.882481 -2.513007,2.388908 l -2.120401,2.738956 2.513007,-2.388908 c 1.382155,-1.313899 2.336331,-2.54643 2.120401,-2.738956 z m 10.69909,3.151525 c 1.092581,-1.393148 1.061513,-1.424216 -0.33163,-0.331634 -1.463149,1.147479 -1.92845,1.868787 -1.205522,1.868787 0.182402,0 0.874121,-0.691719 1.537152,-1.537153 z M 30.586223,46.784457 c 0.517098,-0.96621 0.789903,-1.756745 0.606227,-1.756745 -0.183677,0 -1.049383,0.790535 -1.923786,1.756745 -0.874411,0.96621 -1.147207,1.756746 -0.606226,1.756746 0.540981,0 1.406687,-0.790536 1.923785,-1.756746 z m 21.95932,0.439187 c 0.630276,-0.759435 0.715645,-1.317559 0.201525,-1.317559 -0.490571,0 -1.119469,0.592901 -1.397544,1.317559 -0.278075,0.724657 -0.368759,1.317559 -0.201525,1.317559 0.167233,0 0.796131,-0.592902 1.397544,-1.317559 z m 22.552519,0.739598 c -0.720248,-0.720249 1.128762,-3.060706 1.995048,-2.525311 0.347845,0.214982 0.632455,-0.184637 0.632455,-0.888044 0,-1.688709 -0.576599,-1.614184 -1.997973,0.258232 -0.641774,0.845433 -1.173374,1.141884 -1.181341,0.658779 -0.02029,-1.232188 1.086389,-2.746469 2.311078,-3.162191 0.759081,-0.25767 0.695302,-0.936571 -0.239322,-2.547232 -1.062339,-1.830767 -1.236828,-1.9038 -1.049304,-0.439186 0.12371,0.96621 -0.16386,1.851145 -0.639051,1.966521 -0.475182,0.115377 -0.87442,-0.279891 -0.887192,-0.878373 -0.01274,-0.598481 -0.370295,-1.643305 -0.794497,-2.32183 -0.550072,-0.879859 -0.455304,-1.038398 0.330444,-0.55278 0.867147,0.53593 0.886665,0.279063 0.09164,-1.206445 -0.555536,-1.038041 -1.38551,-1.655315 -1.844372,-1.37172 -1.180507,0.729594 -1.03482,3.358061 0.263661,4.756999 0.878373,0.946328 0.878373,1.058932 0,0.563022 -0.658876,-0.371984 -1.097966,-0.109825 -1.097966,0.655536 0,0.701483 0.618199,1.51265 1.373784,1.802594 0.755585,0.289944 1.259534,1.221586 1.11989,2.070315 -0.259586,1.577713 0.698377,3.739075 1.657235,3.739075 0.293561,0 0.273665,-0.260083 -0.04418,-0.577961 z M 27.951105,45.466898 c 0.630276,-0.759435 0.715645,-1.317559 0.201525,-1.317559 -0.490569,0 -1.119464,0.592902 -1.397541,1.317559 -0.278078,0.724658 -0.368766,1.317559 -0.201529,1.317559 0.167237,0 0.796132,-0.592901 1.397545,-1.317559 z m -0.0484,-8.39824 c 4.371301,-2.689689 6.593505,-3.193314 7.51454,-1.703047 0.298577,0.483105 1.728664,0.878373 3.177979,0.878373 1.734813,0 2.425583,0.339037 2.02183,0.992326 -0.372606,0.602895 -0.134417,0.831172 0.606938,0.581684 0.671129,-0.225853 1.743631,0.216953 2.383341,0.984013 0.900306,1.079543 1.01106,1.096962 0.490168,0.07709 -0.56107,-1.098523 -0.444378,-1.13251 0.701899,-0.204439 0.756164,0.612216 2.082683,0.841496 2.947827,0.50951 1.171829,-0.449673 1.387478,-0.303466 0.84561,0.573302 -0.538381,0.871119 -0.328933,1.024015 0.806118,0.588456 0.843422,-0.323651 2.390518,-0.616307 3.437995,-0.650348 1.365676,-0.04438 0.983153,-0.400477 -1.352071,-1.258653 -1.791107,-0.658218 -5.040243,-2.24207 -7.220303,-3.51967 -2.180069,-1.277601 -4.431909,-2.033573 -5.004107,-1.679936 -0.619727,0.383015 -0.80834,0.267565 -0.466495,-0.285551 0.639815,-1.035244 -3.808923,-2.856398 -6.977644,-2.856398 -1.111669,0 -2.337306,0.560921 -2.723641,1.246491 -0.386335,0.68557 -2.481132,2.26188 -4.655104,3.502911 -2.173973,1.241031 -3.55741,2.259155 -3.074305,2.262499 0.483105,0.0033 2.459444,-0.967728 4.391864,-2.157938 4.171279,-2.56916 6.565653,-2.991354 4.782986,-0.843369 -1.390701,1.675684 -5.344565,3.788185 -10.053223,5.371307 l -3.513491,1.181289 3.367974,-0.504244 c 1.852385,-0.277334 5.255877,-1.665882 7.563315,-3.085663 z m -12.907599,1.228715 c -0.603882,-0.243671 -1.592051,-0.243671 -2.195932,0 -0.603882,0.243672 -0.109797,0.443039 1.097966,0.443039 1.207762,0 1.701847,-0.199367 1.097966,-0.443039 z m 4.812751,-0.827327 c -0.291877,-0.291876 -1.049473,-0.323081 -1.683548,-0.06935 -0.700707,0.2804 -0.492571,0.488536 0.530683,0.530684 0.925951,0.03814 1.44474,-0.169463 1.152865,-0.461339 z m 40.023577,-2.763214 c 0.255044,-1.328539 0.0224,-2.948984 -0.516957,-3.60099 -0.539365,-0.652005 -0.896617,-2.288465 -0.7939,-3.636576 0.120398,-1.579987 -0.321458,-2.646137 -1.243249,-2.999861 -1.102112,-0.42292 -1.323822,-0.142654 -0.966886,1.222264 0.260499,0.99614 0.09926,1.546123 -0.36853,1.257015 -0.472284,-0.291885 -0.648538,0.371836 -0.407882,1.53594 0.233085,1.127466 0.662109,3.532191 0.953386,5.343835 0.622196,3.869846 2.666652,4.406863 3.344018,0.878373 z m -47.471447,0.955423 c -0.603881,-0.243672 -1.592051,-0.243672 -2.195932,0 -0.6038815,0.243672 -0.109797,0.443038 1.097966,0.443038 1.207763,0 1.701848,-0.199366 1.097966,-0.443038 z m 41.942301,-1.278694 c 0,-0.483105 -0.395268,-0.634084 -0.878373,-0.335509 -0.483105,0.298576 -0.878372,0.938132 -0.878372,1.421237 0,0.483105 0.395267,0.634084 0.878372,0.335509 0.483105,-0.298576 0.878373,-0.938132 0.878373,-1.421237 z M 27.35007,30.811116 c 1.055224,-0.572553 3.302031,-1.317633 4.992899,-1.655734 2.991412,-0.598153 3.003253,-0.616459 0.439186,-0.678923 -2.222423,-0.05414 -10.160544,3.23128 -8.067204,3.338843 0.394089,0.02025 1.579892,-0.431634 2.635119,-1.004186 z m 39.428177,-1.58856 c -0.822965,-1.446261 -1.780347,-2.632064 -2.127515,-2.635118 -0.347168,-0.0031 -0.403692,-0.598456 -0.125616,-1.323114 0.278075,-0.724657 0.06807,-1.317559 -0.46675,-1.317559 -1.42798,0 -1.184257,2.244149 0.385184,3.546667 0.746643,0.619658 1.164116,1.630689 0.927711,2.246734 -0.384771,1.002704 0.562387,1.849252 2.285359,2.042609 0.33986,0.03814 -0.05542,-1.113959 -0.878373,-2.560219 z m -5.66857,-13.692125 c 0,-2.119607 -0.04638,-2.10494 -2.086135,0.6598 -1.147375,1.555179 -2.086135,3.412608 -2.086135,4.12762 0,0.962573 0.541499,0.791307 2.086135,-0.659801 1.147374,-1.077903 2.086135,-2.935331 2.086135,-4.127619 z M 20.045749,33.263656 c 0,-0.189866 0.613431,-0.580607 1.36318,-0.868312 0.781686,-0.299961 1.134262,-0.152704 0.826534,0.34521 -0.515831,0.834633 -2.189714,1.234507 -2.189714,0.523102 z m 29.645082,-1.993265 c 0.603881,-0.243672 1.097966,-0.828695 1.097966,-1.300053 0,-0.471357 -0.494085,-0.560178 -1.097966,-0.197378 -0.726502,0.436467 -0.684156,0.14965 0.125168,-0.847761 1.242661,-1.531457 2.266457,-1.27345 2.319748,0.584594 0.03338,1.164299 -1.356313,2.342779 -2.664509,2.259532 -0.483105,-0.03074 -0.384288,-0.255262 0.219593,-0.498934 z"
     style="fill:#000000;stroke-width:0.87837279" />
</svg>
