<?xml version="1.0" encoding="UTF-8" standalone="no"?>
<svg
   xmlns:dc="http://purl.org/dc/elements/1.1/"
   xmlns:cc="http://creativecommons.org/ns#"
   xmlns:rdf="http://www.w3.org/1999/02/22-rdf-syntax-ns#"
   xmlns:svg="http://www.w3.org/2000/svg"
   xmlns="http://www.w3.org/2000/svg"
   id="svgKP1"
   version="1.1"
   viewBox="0 0 100 100"
   height="100"
   width="100">
  <defs
     id="defs2" />
  <metadata
     id="metadata5">
    <rdf:RDF>
      <cc:Work
         rdf:about="">
        <dc:format>image/svg+xml</dc:format>
        <dc:type
           rdf:resource="http://purl.org/dc/dcmitype/StillImage" />
        <dc:title></dc:title>
      </cc:Work>
    </rdf:RDF>
  </metadata>
  <path
     id="pathKP1"
     d="m 13.641865,89.114485 c -0.625883,-0.6916 -1.13797,-1.94774 -1.13797,-2.79144 0,-1.51107 3.370688,-5.52297 4.640247,-5.52297 0.903155,0 1.984646,1.44207 2.302719,3.07046 0.209723,1.07369 0.82812,0.49177 2.900377,-2.7293 5.814113,-9.037327 10.850238,-13.728133 16.893916,-15.735522 2.885201,-0.958313 3.541264,-0.992429 4.036953,-0.209958 0.397206,0.627016 0.595314,0.111096 0.602326,-1.568599 0.0057,-1.376606 0.182285,-2.950718 0.392308,-3.498025 1.022396,-2.664325 -7.964423,-1.812748 -14.710701,1.393958 -2.064036,0.981095 -3.983077,1.728167 -4.264536,1.660166 -0.28146,-0.06803 -0.511745,0.140621 -0.511745,0.463614 0,0.86991 -7.802614,4.871342 -9.498904,4.871342 -1.858936,0 -2.446181,-1.52944 -1.652132,-4.30287 0.759019,-2.651074 3.833533,-4.462321 5.386644,-3.173353 1.291857,1.072145 1.258896,2.450034 -0.07081,2.96029 -0.607219,0.233015 -0.881103,0.118623 -0.642057,-0.26816 0.660167,-1.068175 -1.453163,-0.78342 -2.368165,0.319089 -0.453538,0.546475 -0.61116,1.338976 -0.350272,1.761097 0.646202,1.045582 3.600167,0.231745 6.125235,-1.687528 3.021313,-2.296463 9.163496,-5.271267 9.919307,-4.804154 0.361208,0.223243 0.656743,0.0479 0.656743,-0.389703 0,-0.437576 0.46057,-0.618856 1.023489,-0.402846 0.562918,0.216011 1.023488,0.122376 1.023488,-0.208082 0,-0.33045 0.759062,-0.517503 1.686804,-0.415659 0.927742,0.101837 1.513741,-0.09486 1.302219,-0.437111 -0.224164,-0.362704 1.562626,-0.492821 4.283546,-0.311934 5.910435,0.392926 6.767524,-0.208325 5.055496,-3.546442 -1.732829,-3.378675 -3.779106,-5.160231 -8.308991,-7.234081 -4.12723,-1.889508 -15.031016,-4.462761 -18.982105,-4.479706 -1.339952,-0.0057 -2.84608,-0.270218 -3.346952,-0.587716 -1.295498,-0.821202 5.387041,-0.194659 11.353141,1.06445 2.741123,0.578497 5.166585,0.869088 5.389915,0.645758 0.690259,-0.690259 -8.626723,-4.693617 -10.054482,-4.32025 -0.739565,0.193401 -1.200344,0.118125 -1.023955,-0.16728 0.17639,-0.285405 -0.418333,-0.855648 -1.321608,-1.267207 -2.137715,-0.974009 -3.073406,-2.824329 -2.369813,-4.686284 0.405794,-1.073871 0.950459,-1.380151 1.976983,-1.111709 1.978075,0.517278 2.456418,1.570452 0.713287,1.570452 -0.807688,0 -1.255632,0.306711 -1.01547,0.695301 0.597394,0.966604 6.2941,3.783041 9.358479,4.626808 l 2.54324,0.700273 -2.000691,-2.499447 C 24.665898,30.424348 23.019626,20.703689 26.059053,15.785793 29.043739,10.95647 38.536371,8.4910237 45.154908,10.82618 c 3.222943,1.137121 11.017843,6.248907 11.017843,7.225349 0,0.770995 1.827971,0.893799 2.1607,0.145157 0.125091,-0.281459 1.248902,-1.356122 2.497347,-2.38814 3.397414,-2.808436 7.441218,-2.625793 11.84052,0.534791 l 3.356197,2.411187 1.707343,-1.342997 c 1.985227,-1.561577 7.889665,-2.420195 10.848366,-1.57756 1.224488,0.348733 2.835941,1.704681 4.010551,3.374636 2.39557,3.40585 2.13782,6.059847 -1.01066,10.406189 -2.681934,3.702294 -9.320937,6.84028 -18.693384,8.835592 -3.752792,0.798936 -8.214698,1.906039 -9.915346,2.460226 -3.582223,1.167338 -7.792057,4.415278 -9.110209,7.028655 -1.495856,2.965688 -0.784524,7.643523 1.154775,7.594008 0.446951,-0.01141 0.258281,-0.343243 -0.419268,-0.737404 -2.556702,-1.48735 1.117206,-3.747552 7.714,-4.745684 l 3.75279,-0.567818 -4.288928,0.244033 c -2.480288,0.141124 -5.022948,0.724981 -6.029549,1.384533 -0.957344,0.627275 -1.89415,0.986977 -2.08179,0.799337 -0.783009,-0.783014 3.518099,-2.729135 6.709344,-3.035774 2.87979,-0.276711 3.920356,-0.789815 6.36212,-3.13716 5.959304,-5.728875 17.443522,-10.432873 22.627437,-9.268318 2.987158,0.671057 5.733168,3.424351 5.632198,5.647119 -0.0649,1.429921 -0.088,1.435252 -0.51174,0.11866 -0.81615,-2.535494 -2.53353,-4.321101 -4.568203,-4.749671 l -2.016464,-0.424737 1.815205,1.048637 c 1.256462,0.725854 1.710732,1.44815 1.475792,2.346552 -0.18668,0.713854 0.0273,1.524543 0.47546,1.801532 0.58888,0.36395 0.67871,0.05416 0.32391,-1.117063 -0.38085,-1.257229 -0.30526,-1.444532 0.33709,-0.835212 1.16452,1.104644 0.26702,4.601379 -1.816613,7.077623 -0.939767,1.116848 -1.427848,2.030632 -1.084625,2.030632 0.740658,0 3.095068,-2.510342 4.159608,-4.435117 0.41513,-0.750559 0.7641,-1.022251 0.77551,-0.603762 0.0257,0.94065 -2.6285,4.459719 -4.048654,5.368006 -0.576415,0.368658 -1.662125,0.733459 -2.412683,0.810667 -0.750559,0.07721 -3.206931,0.588492 -5.458606,1.136188 -2.851501,0.693596 -3.472725,1.00794 -2.046978,1.03578 1.125838,0.02198 3.263408,-0.393291 4.750161,-0.92283 3.399798,-1.210914 4.06235,-0.763791 0.854388,0.576582 -1.31433,0.549163 -4.801792,1.218095 -7.749917,1.486515 -2.948119,0.268419 -5.744023,0.795827 -6.213122,1.172016 -0.469099,0.37619 -0.852908,0.445274 -0.852908,0.153519 0,-0.291754 -0.614093,0.02529 -1.364651,0.704531 -0.750559,0.679246 -1.364652,1.52847 -1.364652,1.887155 0,0.358692 0.633819,-0.0727 1.408491,-0.958657 1.496054,-1.710958 1.499329,-1.367882 0.01515,1.58671 -1.076069,2.142169 -0.516016,4.288268 0.970253,3.717932 0.682176,-0.261774 1.017737,0.03719 1.017737,0.906716 0,1.656755 -2.569318,2.53325 -3.777806,1.288763 -1.139648,-1.1736 -1.469907,-5.95826 -0.534691,-7.746293 1.05491,-2.016864 1.627088,-6.683021 0.952582,-7.768347 -0.474012,-0.762712 -0.723996,-0.689782 -1.295416,0.377928 -0.438415,0.819187 -0.470321,1.69878 -0.08379,2.309741 1.058806,1.673556 0.72229,3.178288 -1.231229,5.505428 -1.399184,1.666789 -1.563707,2.115916 -0.646886,1.765985 1.904815,-0.727045 0.676307,0.741258 -1.608958,1.923019 -1.099301,0.568466 -1.940138,1.257138 -1.868521,1.530382 0.07161,0.273237 -0.114658,1.218559 -0.413926,2.100717 -0.700571,2.065052 0.468642,3.402834 1.920761,2.197676 0.98308,-0.815884 2.446948,-0.500807 2.446948,0.526674 0,0.27222 -0.910229,1.032625 -2.022727,1.6898 -1.962422,1.15923 -2.066129,1.151452 -3.478475,-0.260894 -1.070324,-1.070331 -1.383996,-2.07034 -1.18475,-3.777049 0.149047,-1.276706 0.158941,-2.321292 0.02197,-2.321292 -1.158343,0 -2.879285,1.720887 -3.499158,3.499048 -1.024307,2.938334 -0.947593,4.592844 0.269396,5.809827 0.909766,0.909765 1.023489,0.899878 1.023489,-0.08901 0,-0.611869 0.307047,-0.922729 0.682326,-0.690793 1.087716,0.672248 0.797188,1.596328 -0.764669,2.432205 -0.897886,0.480534 -1.280835,0.505562 -1.009139,0.06591 0.24082,-0.389656 -0.06564,-0.990232 -0.681009,-1.334608 -1.120065,-0.626792 -1.121178,-3.17012 -0.0034,-7.645604 0.355376,-1.422806 0.26013,-1.366207 -0.574088,0.341163 -1.825822,3.736839 -2.033618,6.385928 -0.631015,8.044621 l 1.275123,1.50794 -1.535233,-1.299824 c -1.787519,-1.513419 -1.918649,-3.241655 -0.542012,-7.14346 0.54627,-1.548299 0.884021,-2.815092 0.750558,-2.815092 -0.133463,0 -1.317325,1.074663 -2.630803,2.388141 -2.487678,2.487677 -4.562727,3.019625 -5.828706,1.494218 -1.108074,-1.335148 -5.864339,-0.837173 -8.253622,0.864145 -1.156302,0.823363 -2.460192,1.261545 -2.937044,0.987018 -0.471659,-0.271538 -0.64259,-0.255087 -0.379845,0.03657 0.262745,0.29164 -1.374606,2.720481 -3.638558,5.397422 -2.263951,2.676942 -4.594903,5.788306 -5.179894,6.914139 -1.433172,2.75821 -2.984185,4.68947 -5.364774,6.68005 -2.885402,2.41268 -4.615106,2.78752 -5.967458,1.2932 z m 1.164944,-0.93402 c -1.318202,-2.10312 0.50213,-5.6179 2.5697,-4.96168 0.697575,0.22141 1.268318,0.0748 1.268318,-0.32575 0,-0.40057 -0.750205,-0.72831 -1.667123,-0.72831 -2.889653,0 -4.981028,4.67845 -2.984064,6.67542 1.007067,1.00707 1.571072,0.54952 0.813169,-0.65968 z m 5.250116,-1.70466 c 1.529374,-1.3817 3.382902,-3.69263 4.11895,-5.1354 0.736049,-1.442775 3.016172,-4.601124 5.066939,-7.01855 2.050768,-2.417425 3.25692,-4.214296 2.680339,-3.993038 -1.264538,0.485242 -7.410407,8.333742 -10.093192,12.889368 -1.188631,2.01841 -2.119223,2.97882 -2.417967,2.49544 -0.267112,-0.43219 -1.238859,-0.87017 -2.159438,-0.97328 -1.286369,-0.14408 -1.724758,0.16786 -1.894025,1.34775 -0.248265,1.73055 0.05705,1.85081 2.024941,0.79763 0.758028,-0.40569 1.532604,-0.58324 1.72128,-0.39456 0.188676,0.18867 -0.528476,0.81535 -1.593672,1.39261 -1.065195,0.57727 -1.553795,1.06186 -1.085777,1.07689 0.468018,0.015 2.102248,-1.10316 3.631622,-2.48486 z M 64.447684,67.383012 c 0.85155,-1.032264 0.793299,-1.058909 -0.642389,-0.29381 -2.27301,1.211306 -3.792072,-0.172826 -3.257204,-2.967885 0.287676,-1.503321 0.211801,-1.799593 -0.2719,-1.061713 -2.27862,3.476027 1.575436,7.470437 4.171493,4.323408 z M 14.634166,66.01067 c -0.594683,-1.022656 -0.72783,-1.052133 -0.74487,-0.164897 -0.02207,1.149091 0.695421,2.183708 1.179005,1.70013 0.159493,-0.159493 -0.03587,-0.850348 -0.434135,-1.535233 z m 36.2602,-0.758112 c 0.759962,-0.667498 1.04744,-1.549643 0.779807,-2.392882 -0.297765,-0.938171 -0.178857,-1.184163 0.399591,-0.826665 0.638143,0.394391 0.64455,0.17458 0.02847,-0.976585 -1.579831,-2.95194 -4.799721,-2.276812 -4.799721,1.006375 0,1.866155 1.194463,2.440038 3.070466,1.475223 1.219903,-0.627392 1.265322,-0.58143 0.428197,0.433359 -1.331986,1.614676 -3.440637,1.409603 -4.113318,-0.400034 -0.644917,-1.734943 -0.326756,-3.039025 1.165283,-4.776281 0.917464,-1.068242 0.908382,-1.19407 -0.08619,-1.19407 -0.611445,0 -1.580173,0.905897 -2.152729,2.013093 -2.86448,5.539298 0.862214,9.518888 5.280148,5.638467 z m -2.123651,-3.091665 c -0.626539,-0.754932 -0.569891,-1.160425 0.258113,-1.847609 1.59329,-1.322313 3.061891,0.297515 1.597455,1.761949 -0.9049,0.904901 -1.165665,0.916937 -1.855568,0.08566 z m 22.024093,1.658611 c 0.205565,-0.332614 -0.236883,-0.764437 -0.983224,-0.95961 -0.925104,-0.241918 -1.382167,-0.972368 -1.436126,-2.295132 -0.05117,-1.254326 -0.193146,-1.499056 -0.401589,-0.692233 -0.750183,2.903685 1.510676,6.067022 2.820939,3.946975 z M 18.720246,62.082732 c 0.517367,0.319745 0.638918,0.216031 0.330901,-0.282353 -0.691792,-1.119342 -1.393363,-0.985265 -3.230613,0.617396 l -1.610824,1.405147 1.84639,-1.122794 c 1.015514,-0.617539 2.21438,-0.895368 2.664146,-0.617396 z m 40.181803,-0.387779 c 1.336669,-0.428078 1.410497,-0.543541 0.341163,-0.533579 -0.750559,0.007 -2.285792,0.247104 -3.411629,0.533579 -1.838677,0.467864 -1.873394,0.522163 -0.341163,0.533585 0.938198,0.007 2.473431,-0.233123 3.411629,-0.533585 z m 4.475286,-1.68411 c 0.728463,-0.550985 1.017435,-1.001791 0.642156,-1.001791 -0.375279,0 -1.278343,0.450806 -2.006808,1.001791 -0.728464,0.550978 -1.017436,1.001784 -0.642157,1.001784 0.375279,0 1.278344,-0.450806 2.006809,-1.001784 z m -8.007837,-1.781109 c -0.803084,-2.303727 -3.128099,-3.606829 -4.484778,-2.513584 -1.157456,0.932706 -1.083139,-0.136229 0.102414,-1.473052 0.831438,-0.937526 0.661052,-1.532728 -1.313928,-4.589892 -1.248086,-1.931972 -4.414548,-5.224377 -7.036584,-7.316456 -6.241682,-4.980136 -8.047274,-7.468987 -7.033195,-9.694646 0.50657,-1.111801 1.31506,-1.65181 2.473057,-1.65181 0.946244,0 1.720442,0.29741 1.720442,0.660911 0,0.363502 -0.537331,0.48806 -1.19407,0.276798 -0.9735,-0.313159 -1.011028,-0.2545 -0.203159,0.317556 0.545,0.385918 1.214639,0.563397 1.488085,0.394398 0.726726,-0.449141 1.430786,0.955938 0.905163,1.806415 -0.29283,0.473808 -0.915084,0.305129 -1.78774,-0.484613 -1.150695,-1.041365 -1.427021,-1.071545 -1.968789,-0.21503 -0.970061,1.533631 -0.885637,1.682532 2.866842,5.056333 6.328142,5.689544 7.867081,6.194163 2.281809,0.748206 -3.002234,-2.927347 -4.69099,-4.74885 -3.752792,-4.047783 2.943625,2.199618 8.444066,7.318359 10.576049,9.84213 l 2.046978,2.423142 0.06161,-2.769066 c 0.03739,-1.680545 1.193876,-5.283682 2.941964,-9.165943 2.89792,-6.435874 2.963191,-7.967786 0.317793,-7.458329 -1.496033,0.28811 -2.072061,2.437151 -0.948931,3.540259 0.602692,0.591944 0.682681,0.327252 0.331188,-1.095965 -0.39521,-1.600201 -0.251663,-1.876396 0.9752,-1.876396 0.791239,0 1.438623,0.29741 1.438623,0.660911 0,0.363502 -0.537332,0.459536 -1.19407,0.21341 -1.008962,-0.378127 -1.060546,-0.283065 -0.33275,0.613211 0.70199,0.864494 0.670433,1.219134 -0.170582,1.917114 -1.461971,1.213329 -3.266535,-0.33757 -2.684224,-2.306909 0.676583,-2.288162 2.210663,-3.171949 4.050657,-2.333593 1.788007,0.814673 2.522763,2.809414 1.919778,5.211895 -0.254276,1.013135 -0.05145,1.883659 0.536397,2.302495 0.766599,0.546166 0.742643,0.609709 -0.126715,0.336193 -0.78649,-0.247444 -1.550954,0.780277 -2.870497,3.859007 -0.989188,2.307949 -1.997604,5.036861 -2.240928,6.06425 -0.42251,1.783962 -0.308746,1.737928 2.529334,-1.023489 1.634456,-1.590308 3.306182,-3.812608 3.714943,-4.938445 0.408761,-1.125838 1.022854,-2.066749 1.364651,-2.090913 1.627723,-0.115079 13.726176,-6.669928 14.764532,-7.999312 1.936857,-2.479705 1.367272,-2.554362 -1.049526,-0.137564 -1.242324,1.242325 -3.497854,2.592423 -5.012283,3.000217 -1.514436,0.407794 -4.002741,1.646377 -5.529568,2.752407 -2.419853,1.752931 -2.831951,1.865297 -3.211686,0.875721 -0.239598,-0.624382 -0.225508,-0.925119 0.03132,-0.668302 0.256814,0.256817 1.082141,0.137693 1.834058,-0.26472 1.110149,-0.594134 1.189476,-0.851475 0.422032,-1.369096 -0.782969,-0.528091 -0.76952,-0.608462 0.0784,-0.46853 0.562917,0.0929 2.865767,-0.530606 5.117442,-1.385568 5.807943,-2.205276 8.687058,-5.210439 6.36614,-6.644845 -0.529396,-0.327184 -0.657966,-0.127724 -0.38172,0.59217 0.478774,1.247663 -1.138924,2.884123 -2.201742,2.227269 -1.962915,-1.213149 0.757757,-5.818241 3.4374,-5.818241 2.298155,0 2.707701,4.616611 0.701417,7.906704 -0.864534,1.417757 -2.522954,2.609469 -5.070049,3.643259 -2.62823,1.06672 -3.672366,1.830508 -3.415927,2.498762 0.203128,0.529343 0.02941,0.962441 -0.386006,0.962441 -0.415434,0 -0.755327,-0.314931 -0.755327,-0.699848 0,-0.971561 -3.439037,0.887777 -5.119053,2.767652 -1.362584,1.524674 -1.362584,1.525057 0.0014,1.136848 2.766065,-0.787141 6.996942,-1.868661 13.835143,-3.536614 10.882216,-2.654356 15.261628,-5.339915 17.519275,-10.743228 1.37501,-3.29087 1.35501,-3.47599 -0.63074,-5.835907 -0.92773,-1.102549 -1.47442,-2.216999 -1.21486,-2.476555 0.25955,-0.259556 -0.025,-0.281237 -0.632335,-0.04818 -0.607339,0.233058 -1.306955,0.09576 -1.554707,-0.3051 -0.247773,-0.400863 -2.233225,-0.728842 -4.412144,-0.728842 -2.979327,0 -4.409073,0.351928 -5.766,1.419289 -0.992382,0.780609 -1.629763,1.701749 -1.4164,2.046977 0.213364,0.345229 -0.07995,0.627689 -0.651819,0.627689 -0.571864,0 -1.339248,-0.559617 -1.705302,-1.243593 -1.236388,-2.310214 -5.772456,-4.897339 -8.58662,-4.897339 -2.108687,0 -3.328459,0.573165 -5.982644,2.811211 -3.317393,2.797267 -3.338962,2.804028 -4.348278,1.36303 -1.403906,-2.004362 -8.227924,-6.520353 -11.439639,-7.570515 -4.055557,-1.3260793 -10.132081,-0.5302 -13.943599,1.826281 -4.314426,2.667405 -5.036312,4.254832 -4.644495,10.213232 0.366588,5.57472 1.982251,9.750031 5.183834,13.396433 1.218882,1.38823 2.012698,2.524056 1.764034,2.524056 -0.248663,0 -0.212343,0.383808 0.08071,0.852907 0.293054,0.469099 0.596943,1.276846 0.675308,1.794994 0.07837,0.518147 0.488999,1.285763 0.912519,1.705814 0.570521,0.565846 0.654711,0.410147 0.324934,-0.600924 -0.404577,-1.240401 -0.330602,-1.226124 0.812482,0.15681 0.691673,0.836805 2.797297,2.28672 4.679166,3.222035 3.295169,1.637745 7.836795,6.45982 7.836795,8.320723 0,1.233712 2.351015,2.393469 3.177179,1.567305 0.421027,-0.421028 0.994346,0.203 1.596537,1.73775 0.579131,1.476 1.400651,2.394683 2.141404,2.394683 1.045835,0 1.106774,-0.272596 0.469543,-2.100567 z m -6.577622,-5.744943 c -1.526072,-3.349363 -6.5703,-7.984246 -11.259285,-10.345581 -2.584328,-1.301447 -4.545255,-2.51979 -4.357615,-2.70743 0.599472,-0.599472 9.619763,4.295129 11.650833,6.321989 1.967627,1.963549 5.88833,7.32145 5.88833,8.046795 0,1.039745 -1.233813,0.19521 -1.922263,-1.315773 z M 48.667161,41.867238 c 0,-0.397427 0.307047,-0.53283 0.682326,-0.300894 0.375279,0.231935 0.682326,0.557102 0.682326,0.722594 0,0.165492 -0.307047,0.300895 -0.682326,0.300895 -0.375279,0 -0.682326,-0.325168 -0.682326,-0.722595 z m 6.823259,0.04027 c 0,-0.375279 0.325169,-0.682326 0.722597,-0.682326 0.39742,0 0.532828,0.307047 0.300892,0.682326 -0.231937,0.375279 -0.557106,0.682326 -0.722597,0.682326 -0.165491,0 -0.300892,-0.307047 -0.300892,-0.682326 z m -9.680498,-2.513086 c 0.492554,-0.197104 1.08106,-0.172863 1.307792,0.05387 0.22673,0.226731 -0.176268,0.387998 -0.895553,0.358371 -0.794871,-0.03274 -0.956553,-0.194423 -0.412239,-0.412239 z M 34.325357,36.774444 c -0.721071,-0.868838 -0.678858,-0.968683 0.257615,-0.609325 0.616,0.236381 1.12,0.70398 1.12,1.039109 0,0.877443 -0.39498,0.754218 -1.377615,-0.429784 z m 12.294827,-1.007869 c 0,-0.375279 0.307047,-0.682326 0.682326,-0.682326 0.375279,0 0.682326,0.307047 0.682326,0.682326 0,0.375279 -0.307047,0.682326 -0.682326,0.682326 -0.375279,0 -0.682326,-0.307047 -0.682326,-0.682326 z M 30.940376,33.394924 c -0.538184,-0.648472 -0.589946,-1.039978 -0.137501,-1.039978 0.824628,0 1.786053,1.294508 1.312862,1.767699 -0.171741,0.171741 -0.700653,-0.155734 -1.175361,-0.727721 z m 44.33749,0.324673 c 0,-0.375279 0.325169,-0.682325 0.722597,-0.682325 0.397427,0 0.532828,0.307046 0.300892,0.682325 -0.231937,0.37528 -0.557106,0.682326 -0.722597,0.682326 -0.165491,0 -0.300892,-0.307046 -0.300892,-0.682326 z m 6.140932,-2.087246 c 0,-0.397426 0.307047,-0.532829 0.682326,-0.300894 0.375279,0.231936 0.682325,0.557103 0.682325,0.722595 0,0.165492 -0.307046,0.300894 -0.682325,0.300894 -0.375279,0 -0.682326,-0.325168 -0.682326,-0.722595 z m -52.103505,-0.98322 c -0.216013,-0.562918 -0.09534,-1.023488 0.268162,-1.023488 0.3635,0 0.660911,0.46057 0.660911,1.023488 0,0.562919 -0.120673,1.023489 -0.268162,1.023489 -0.147489,0 -0.444899,-0.46057 -0.660911,-1.023489 z m 57.324334,-2.08833 c 0.96094,-0.960942 1.893707,-1.600622 2.072817,-1.421512 0.424182,0.424182 -2.32031,3.16868 -3.16868,3.16868 -0.358221,0 0.134917,-0.786226 1.095863,-1.747168 z m -39.67828,0.382516 c -0.231935,-0.375279 -0.09653,-0.682326 0.300894,-0.682326 0.397427,0 0.722595,0.307047 0.722595,0.682326 0,0.375279 -0.135402,0.682326 -0.300894,0.682326 -0.165492,0 -0.490659,-0.307047 -0.722595,-0.682326 z M 28.228664,27.637104 c -0.419153,-0.783195 -0.476837,-1.42309 -0.128284,-1.42309 0.701268,0 1.669398,2.066681 1.19184,2.544239 -0.166068,0.166067 -0.644668,-0.338449 -1.063556,-1.121149 z m 56.2606,0.623887 c 0.231936,-0.375279 0.557105,-0.682326 0.722597,-0.682326 0.165491,0 0.300892,0.307047 0.300892,0.682326 0,0.375279 -0.32517,0.682326 -0.722597,0.682326 -0.397428,0 -0.532828,-0.307047 -0.300892,-0.682326 z m -2.453528,-1.7846 c -0.931395,-1.12226 -1.551881,-5.275322 -0.710464,-4.755299 0.313596,0.193816 0.966671,-0.38846 1.451272,-1.293946 0.91852,-1.716265 2.736209,-2.8438 2.736209,-1.697301 0,0.363501 -0.383809,0.685152 -0.852908,0.714779 -0.469099,0.02963 -0.0085,0.362261 1.023489,0.739187 1.268635,0.463345 1.876396,1.170237 1.876396,2.18245 0,3.266596 -3.847935,6.129654 -5.523994,4.11013 z m 3.779492,-1.77885 c 1.606106,-2.293039 1.346576,-3.38442 -0.7454,-3.134547 -2.081756,0.248652 -3.379969,1.912781 -2.757545,3.534788 0.604008,1.574027 2.251996,1.385729 3.502945,-0.400241 z M 44.91437,25.531688 c 0.231935,-0.375279 0.557102,-0.682326 0.722594,-0.682326 0.165492,0 0.300894,0.307047 0.300894,0.682326 0,0.375279 -0.325167,0.682326 -0.722594,0.682326 -0.397427,0 -0.53283,-0.307047 -0.300894,-0.682326 z m 18.782995,-1.000547 c -1.167765,-1.407078 0.0041,-4.582584 2.081823,-5.640162 1.392784,-0.709018 1.785729,-0.6618 2.504839,0.300994 2.613348,3.498938 -1.825549,8.666101 -4.586662,5.339168 z m 4.015876,-0.936116 c 0.861682,-1.610068 0.192627,-4.204269 -1.084298,-4.204269 -0.541296,0 -0.815911,0.272257 -0.610258,0.605014 0.205653,0.332757 -0.08327,0.984447 -0.642055,1.448199 -1.318922,1.094608 -1.296774,2.040742 0.04776,2.040742 0.58506,0 0.873991,0.307046 0.642055,0.682326 -0.231937,0.375279 -0.107337,0.682325 0.276887,0.682325 0.384225,0 1.000672,-0.564452 1.369885,-1.254337 z M 31.267854,23.484711 c 0.231936,-0.375279 0.557103,-0.682326 0.722595,-0.682326 0.165492,0 0.300894,0.307047 0.300894,0.682326 0,0.375279 -0.325168,0.682326 -0.722595,0.682326 -0.397426,0 -0.532829,-0.307047 -0.300894,-0.682326 z m 3.864678,-0.206348 c -1.185855,-1.428869 -1.735022,-5.011969 -0.851822,-5.557816 0.419208,-0.259084 0.61988,-0.701335 0.445939,-0.982778 -0.878088,-1.420776 3.924706,0.306056 4.871918,1.751684 1.014027,1.547601 0.994683,1.787944 -0.281632,3.499081 -1.608232,2.156135 -3.087105,2.611992 -4.184403,1.289829 z m 3.863865,-2.38993 c 0.249358,-1.759013 -0.929675,-3.544654 -2.340484,-3.544654 -1.078704,0 -1.970993,2.917216 -1.370742,4.481448 0.637046,1.660114 3.443512,0.9517 3.711226,-0.936794 z m 11.376579,2.596278 c -0.231936,-0.375279 -0.114654,-0.682326 0.260625,-0.682326 0.375279,0 0.872091,0.307047 1.104026,0.682326 0.231936,0.375279 0.114654,0.682326 -0.260625,0.682326 -0.375279,0 -0.872091,-0.307047 -1.104026,-0.682326 z m 6.482095,-0.578739 c 0,-0.344713 0.614094,-0.787341 1.364652,-0.983616 0.750558,-0.196275 1.364652,-0.242889 1.364652,-0.103587 0,0.139302 -0.614094,0.58193 -1.364652,0.983616 -0.753915,0.403485 -1.364652,0.449844 -1.364652,0.103587 z M 27.622798,21.437734 c 0,-0.938198 0.15487,-1.322006 0.344156,-0.852907 0.189285,0.469098 0.189285,1.236715 0,1.705814 -0.189286,0.469099 -0.344156,0.08529 -0.344156,-0.852907 z M 53.10228,22.12006 c -0.231936,-0.37528 -0.114652,-0.682326 0.260628,-0.682326 0.375272,0 0.872087,0.307046 1.104023,0.682326 0.231936,0.375278 0.114651,0.682325 -0.260628,0.682325 -0.375279,0 -0.872087,-0.307047 -1.104023,-0.682325 z m 18.226414,-0.978205 c -1.142698,-2.507952 -1.034651,-3.033379 0.247384,-1.203018 0.590969,0.843728 0.963164,1.868012 0.827109,2.276189 -0.136056,0.408176 -0.61958,-0.07475 -1.074493,-1.073171 z m 5.996149,1.055073 c 0,-0.750282 1.97749,-2.420776 2.384203,-2.014064 0.167334,0.167335 -0.30066,0.822177 -1.03998,1.455205 -0.73932,0.633028 -1.344223,0.884515 -1.344223,0.558859 z M 45.937858,21.397465 c 0,-0.397427 0.307047,-0.53283 0.682326,-0.300894 0.375279,0.231935 0.682326,0.557102 0.682326,0.722594 0,0.165492 -0.307047,0.300895 -0.682326,0.300895 -0.375279,0 -0.682326,-0.325168 -0.682326,-0.722595 z m 15.011168,-0.94841 c 0,-0.260396 0.46057,-0.934018 1.023489,-1.496936 0.562919,-0.562919 1.023488,-0.732107 1.023488,-0.375973 0,0.356134 -0.460569,1.029755 -1.023488,1.496936 -0.562919,0.467181 -1.023489,0.636369 -1.023489,0.375973 z M 49.650482,19.071294 c -0.728466,-0.550984 -0.978271,-1.011554 -0.555124,-1.023489 0.423149,-0.01193 1.1516,0.43887 1.618781,1.001789 1.078615,1.299651 0.637835,1.308644 -1.063657,0.0217 z m 36.89059,0.327278 c -0.239046,-0.386783 0.03487,-0.501173 0.642055,-0.268162 1.182075,0.453604 1.398352,0.942672 0.416874,0.942672 -0.353131,0 -0.829654,-0.30353 -1.058929,-0.67451 z M 45.5576,16.376078 c -0.727876,-0.532235 -1.17037,-1.119899 -0.983321,-1.305917 0.18705,-0.186019 1.064962,0.249446 1.950914,0.967701 1.852914,1.502183 1.021613,1.792759 -0.967593,0.338216 z M 30.244366,16.074395 c 0,-0.912336 4.381395,-2.837665 6.244051,-2.743841 1.595901,0.08039 1.595464,0.08256 -0.103119,0.511914 -0.938198,0.237151 -2.703716,0.976325 -3.923374,1.642607 -1.219657,0.666282 -2.217558,0.931477 -2.217558,0.58932 z m 11.940701,-1.459919 c -0.231936,-0.375279 -0.114654,-0.682326 0.260625,-0.682326 0.375279,0 0.872091,0.307047 1.104026,0.682326 0.231936,0.375279 0.114654,0.682326 -0.260625,0.682326 -0.375279,0 -0.872091,-0.307047 -1.104026,-0.682326 z M 39.455764,13.93215 c -1.302121,-0.55954 -1.294305,-0.588608 0.170581,-0.634368 0.844378,-0.02638 1.535233,0.259089 1.535233,0.634368 0,0.375279 -0.07676,0.660745 -0.170581,0.634369 -0.09382,-0.02638 -0.784675,-0.311843 -1.535233,-0.634369 z m 20.94822,44.341028 c 0.334831,-0.905129 0.384627,-1.421535 0.110667,-1.147571 -0.273968,0.273962 -0.907112,-0.474597 -1.406997,-1.663469 -1.16501,-2.770747 -0.637681,-3.358292 0.737164,-0.821346 0.577262,1.065195 1.061863,1.621231 1.076888,1.235633 0.05916,-1.518305 -2.07208,-3.645581 -3.396789,-3.390466 -2.535317,0.488258 -2.881127,1.097013 -1.493031,2.628302 0.729529,0.804787 1.531562,2.329441 1.78229,3.388117 0.529546,2.235927 1.716772,2.130855 2.589808,-0.2292 z m -8.325194,0.351309 c -0.467181,-0.562919 -1.177556,-1.023489 -1.578611,-1.023489 -0.401055,0 -0.133174,0.450806 0.595291,1.001791 1.711595,1.294583 2.045839,1.301959 0.98332,0.0217 z m 11.170718,-0.692145 c 0.829966,-0.829966 0.889055,-1.467765 0.300276,-3.241047 -0.907485,-2.733173 -2.231893,-4.222063 -3.215104,-3.614404 -0.520464,0.321666 -0.437302,1.056232 0.275687,2.434992 0.561541,1.085904 1.020985,2.757235 1.020985,3.714069 0,2.019874 0.212087,2.112459 1.618156,0.70639 z m -6.993471,-1.474236 c -0.804353,-1.383222 -0.99859,-0.940488 -0.34016,0.775353 0.233997,0.609799 0.56919,0.964984 0.744868,0.789305 0.175678,-0.175678 -0.0061,-0.879773 -0.404708,-1.564658 z m 10.441091,-3.863153 c -0.353554,-0.921337 -2.307974,-2.134695 -2.678183,-1.662691 -0.08052,0.102654 0.298203,1.250347 0.841608,2.550429 0.816273,1.952934 1.096074,2.17067 1.60979,1.252712 0.341982,-0.611093 0.444038,-1.574295 0.226785,-2.14045 z m 4.984315,1.182179 c -0.226737,-0.226731 -0.815243,-0.250972 -1.307794,-0.05387 -0.544311,0.217816 -0.382634,0.379498 0.412241,0.412239 0.719281,0.02963 1.122283,-0.13164 0.895553,-0.358371 z M 75.78961,53.0367 c -0.656738,-0.171623 -1.731401,-0.171623 -2.38814,0 -0.656738,0.171624 -0.119407,0.312043 1.19407,0.312043 1.313477,0 1.850809,-0.140419 1.19407,-0.312043 z M 74.12539,51.209 c 0.168617,-0.439404 -0.314947,-2.119471 -1.074574,-3.73348 -1.129051,-2.398914 -1.538276,-2.770132 -2.241952,-2.033729 -1.344782,1.407331 0.218031,7.296231 1.824785,6.876055 0.651839,-0.17046 1.323125,-0.669441 1.491741,-1.108846 z M 51.631919,50.407152 c -0.222223,-0.579105 -0.550379,-0.906579 -0.729236,-0.727722 -0.178857,0.178857 -0.122803,0.652669 0.124562,1.052916 0.672807,1.088624 1.066052,0.877137 0.604674,-0.325194 z m 26.37525,-0.720361 c 0,-1.906016 -1.791917,-6.176457 -2.871725,-6.843817 -1.708475,-1.055895 -1.892362,1.110015 -0.404285,4.761847 1.650417,4.05021 3.27601,5.083309 3.27601,2.08197 z m 4.196215,-1.639247 c -0.131402,-1.302564 -0.824591,-3.516338 -1.540432,-4.919498 -1.198192,-2.348648 -1.434031,-2.490825 -2.970485,-1.790769 -1.589308,0.724137 -1.62079,0.853589 -0.659611,2.712307 1.266772,2.449666 1.847772,2.54343 0.938334,0.151433 -0.962079,-2.530466 -0.331788,-2.781686 0.704167,-0.280666 0.468526,1.13113 0.666898,2.538632 0.440823,3.127782 -0.236726,0.616883 -0.124988,0.894384 0.263453,0.654313 0.379216,-0.234367 0.674513,0.369459 0.674513,1.379243 0,1.343694 0.30077,1.737933 1.19407,1.565134 0.92245,-0.178439 1.139723,-0.769705 0.955168,-2.599279 z m 1.221684,-1.938669 c -0.413237,-1.926845 -1.354799,-4.19774 -2.092359,-5.046431 -1.335237,-1.536415 -1.335394,-1.531292 -0.03739,1.186226 0.717002,1.501116 1.518469,3.912103 1.781048,5.357747 0.26258,1.445644 0.617505,2.488352 0.788728,2.317129 0.171223,-0.171224 -0.02682,-1.887826 -0.440018,-3.814671 z m 3.245967,2.857836 c 0.398389,-1.038201 -0.348205,-4.855952 -1.569186,-8.024044 -0.349528,-0.906931 -0.261788,-1.156722 0.287137,-0.817468 0.535803,0.331148 0.64273,0.10355 0.331896,-0.706476 -0.252214,-0.657255 -0.570465,-0.859321 -0.70723,-0.449036 -0.136759,0.410286 -0.848029,0.589235 -1.580594,0.397665 -1.585411,-0.414596 -1.621118,-0.155098 -0.385501,2.802147 0.52054,1.245826 1.161626,3.538813 1.424628,5.095527 0.494912,2.929353 1.44546,3.664982 2.19885,1.701685 z m -17.84254,-2.922563 c 3.042805,-2.804764 7.821944,-5.492195 13.613792,-7.655389 1.948238,-0.727647 2.533598,-1.116712 1.364651,-0.907035 -3.391029,0.608259 -12.759424,5.552692 -16.034656,8.462741 -1.688756,1.500463 -2.797754,2.741206 -2.464444,2.757207 0.333309,0.016 1.917608,-1.179885 3.520657,-2.657524 z m 20.70856,-3.593936 c -0.608737,-2.276979 -1.373358,-3.675275 -2.084641,-3.812255 -1.028354,-0.198043 -1.037497,0.03192 -0.10819,2.720681 0.558306,1.615355 0.85565,3.927814 0.660764,5.138798 l -0.354345,2.201789 1.423877,-1.326543 c 1.353134,-1.260636 1.376115,-1.505199 0.462535,-4.92247 z m -40.187568,3.97596 c 0,-0.141689 -0.537331,-0.679021 -1.19407,-1.19407 -1.082207,-0.848726 -1.106341,-0.824592 -0.257615,0.257615 0.891369,1.136583 1.451685,1.498032 1.451685,0.936455 z m 7.505045,-13.648256 c -6.82e-4,-0.98132 -3.794529,7.01708 -4.359434,9.190831 -0.235064,0.904516 0.649766,-0.621462 1.966293,-3.391062 1.316527,-2.769599 2.393435,-5.379495 2.393141,-5.799769 z M 31.95018,40.542855 c -0.231935,-0.375279 -0.787388,-0.677624 -1.234339,-0.671877 -0.488283,0.0063 -0.404124,0.27445 0.21085,0.671877 1.310832,0.847125 1.547041,0.847125 1.023489,0 z m -7.903607,-2.947191 c -1.084729,-0.831329 -5.401746,-3.084673 -5.401746,-2.819537 0,0.456192 4.294685,3.031752 5.060583,3.034875 0.344006,0.0014 0.497529,-0.0955 0.341163,-0.215338 z M 72.937509,26.291326 c -0.20566,-0.332757 0.116494,-1.012022 0.715889,-1.509477 0.923365,-0.766323 1.248875,-0.699971 2.131265,0.434432 0.930925,1.196806 0.9955,1.206254 0.608485,0.08902 -0.238125,-0.687432 -0.432956,-1.378287 -0.432956,-1.535233 0,-0.920267 -2.798901,-0.0656 -3.387625,1.034438 -0.892086,1.666879 -0.888784,2.091834 0.01624,2.091834 0.397428,0 0.554329,-0.272256 0.348676,-0.605014 z M 67.43112,50.777742 c -0.231937,-0.375279 -0.09654,-0.682326 0.300892,-0.682326 0.397427,0 0.722596,0.307047 0.722596,0.682326 0,0.375279 -0.1354,0.682326 -0.300892,0.682326 -0.165491,0 -0.49066,-0.307047 -0.722596,-0.682326 z M 10.526063,38.233204 C 7.011462,35.56858 5.85705,33.624773 5.361496,29.53707 L 5,26.555177 5.892009,29.991171 c 1.144403,4.408208 1.303158,4.640469 5.368065,7.853593 4.129933,3.264525 3.49953,3.598134 -0.734011,0.38844 z m 1.431972,-7.379375 c -1.244368,-1.244368 -0.985092,-3.015468 0.716442,-4.893975 2.054872,-2.268594 4.605699,-1.442776 4.605699,1.491072 0,3.211275 -3.363314,5.361731 -5.322141,3.402903 z m 4.51493,-2.840903 c 0.301745,-2.520626 -1.7218,-3.21865 -3.383118,-1.167009 -0.938215,1.158646 -1.07883,1.858775 -0.565832,2.81732 0.989699,1.849269 3.663794,0.731734 3.94895,-1.650311 z M 5.728835,25.462011 c -0.06411,-1.45404 2.754715,-5.556191 4.045757,-5.887673 0.632356,-0.162361 0.545922,0.03795 -0.226172,0.524157 -0.687314,0.432819 -1.81705,2.062634 -2.510524,3.621813 -0.693475,1.559178 -1.282552,2.342944 -1.309061,1.741703 z m 15.263964,-2.979089 c -0.728466,-0.550983 -0.99936,-1.011553 -0.601989,-1.023488 0.397373,-0.01193 1.318512,0.429104 2.046978,0.980088 0.728466,0.550984 0.99936,1.011554 0.601988,1.023489 -0.397372,0.01193 -1.318512,-0.429105 -2.046977,-0.980089 z m -6.441926,-2.40984 c -1.688757,-0.708622 -2.609896,-1.288405 -2.046978,-1.288405 0.562919,0 2.405199,0.579783 4.093955,1.288405 1.688756,0.708623 2.609896,1.288405 2.046977,1.288405 -0.562918,0 -2.405198,-0.579782 -4.093954,-1.288405 z"
     style="fill:#000000;stroke-width:0.68232578" />
</svg>
