<?xml version="1.0" encoding="UTF-8" standalone="no"?>
<svg
   xmlns:dc="http://purl.org/dc/elements/1.1/"
   xmlns:cc="http://creativecommons.org/ns#"
   xmlns:rdf="http://www.w3.org/1999/02/22-rdf-syntax-ns#"
   xmlns:svg="http://www.w3.org/2000/svg"
   xmlns="http://www.w3.org/2000/svg"
   id="svgKP2"
   version="1.1"
   viewBox="0 0 100 100"
   height="100"
   width="100">
  <defs
     id="defs2" />
  <metadata
     id="metadata5">
    <rdf:RDF>
      <cc:Work
         rdf:about="">
        <dc:format>image/svg+xml</dc:format>
        <dc:type
           rdf:resource="http://purl.org/dc/dcmitype/StillImage" />
        <dc:title></dc:title>
      </cc:Work>
    </rdf:RDF>
  </metadata>
  <path
     id="patKP2"
     d="M 20.564534,86.52383 C 19.268994,85.16193 18.061635,83.31082 17.881523,82.41025 17.622482,81.115063 16.912978,80.524496 14.48674,79.584563 10.645561,78.096477 8.8685207,75.841918 8.9544279,72.565631 8.9895959,71.22432 9.3254664,69.819791 9.700801,69.444456 10.688486,68.456769 10.545121,67.925595 9.1733531,67.490212 8.5079229,67.27901 7.2469989,65.88363 6.3713008,64.389363 5.0855381,62.195375 4.8381426,61.148877 5.0858047,58.951629 c 0.1686757,-1.496487 0.727118,-3.186989 1.2409822,-3.756671 0.8131579,-0.901485 0.8224492,-1.188289 0.071659,-2.211969 -0.4744516,-0.646901 -0.8503413,-1.601237 -0.83531,-2.120747 0.015033,-0.519509 0.3879167,-0.12656 0.8286345,0.873221 0.7872067,1.785799 0.7961762,1.768704 0.509796,-0.971651 -0.3615515,-3.459664 0.5346088,-5.23376 3.2080076,-6.350778 2.872648,-1.200269 4.872118,-1.055714 9.028018,0.652695 4.565992,1.876988 5.223079,1.440543 0.877056,-0.582554 -5.717745,-2.661647 -11.8806144,-1.648263 -13.565947,2.230703 -0.4760035,1.09557 -0.8761332,1.575449 -0.8891777,1.066396 -0.073057,-2.851029 3.9222563,-5.43669 8.4006657,-5.43669 3.330918,0 5.19014,0.645516 8.844556,3.070806 3.28271,2.178601 9.549978,5.395519 11.089161,5.691939 0.68954,0.132793 1.780888,0.52358 2.425219,0.868415 0.644332,0.344835 1.366416,0.432065 1.604636,0.193845 0.238221,-0.238219 0.683068,-0.46721 0.988559,-0.508867 0.305491,-0.04166 0.691769,-0.143908 0.858399,-0.227223 0.166631,-0.08332 0.507465,-0.195228 0.75741,-0.248694 0.249945,-0.05347 1.033628,-0.419611 1.741515,-0.813653 1.087143,-0.605152 1.46363,-0.515046 2.42371,0.580072 0.694818,0.792549 0.787488,1.090531 0.238403,0.766597 -0.494031,-0.291454 -1.411678,-0.567743 -2.039219,-0.613975 -0.991207,-0.07302 -0.95424,0.05681 0.281635,0.989023 1.017692,0.767648 1.639337,0.893217 2.18403,0.441163 0.418774,-0.347554 0.611986,-0.87369 0.42936,-1.169189 -0.36781,-0.595134 -0.131511,-0.631522 4.435408,-0.682998 2.581355,-0.0291 3.181121,-0.230897 3.181121,-1.070337 0,-0.855147 -0.814076,-1.097404 -4.69594,-1.397443 -2.582766,-0.199628 -5.309441,-0.543059 -6.059276,-0.76318 -0.867683,-0.254716 -1.363337,-0.141235 -1.363337,0.312138 0,0.391796 0.272667,0.54384 0.605927,0.337874 0.986287,-0.609558 0.690618,0.08588 -0.419277,0.98618 -0.696611,0.565062 -0.879359,0.588841 -0.570166,0.07419 0.255707,-0.425627 0.15828,-0.757409 -0.222412,-0.757409 -0.372597,0 -0.520577,-0.253827 -0.328843,-0.56406 0.191734,-0.310232 0.02939,-0.761362 -0.360824,-1.002512 -0.42407,-0.26209 -0.547668,-0.17671 -0.307266,0.212263 0.369931,0.598567 -1.508929,1.449705 -4.75938,2.156032 -0.66652,0.144836 -0.257519,0.1869 0.908892,0.09347 1.16641,-0.09342 2.55247,-0.344797 3.08013,-0.558605 0.604619,-0.244992 0.959383,-0.07375 0.959383,0.463087 0,0.552046 -0.424288,0.740876 -1.205614,0.536555 -0.693799,-0.181432 -1.051357,-0.06568 -0.842251,0.27266 0.684904,1.108203 -4.400011,0.48676 -5.491329,-0.671112 -0.574625,-0.609672 -0.749387,-0.945745 -0.388357,-0.746829 0.361036,0.198916 0.65642,-0.0093 0.65642,-0.462803 0,-0.483277 -0.37547,-0.680386 -0.907298,-0.476302 -0.598469,0.229652 -0.755016,0.101751 -0.459905,-0.375747 0.246073,-0.398151 0.222636,-0.684866 -0.05205,-0.637144 -1.32171,0.229599 -1.975845,-0.241977 -3.472238,-2.503182 -2.083209,-3.147937 -3.057705,-5.622989 -2.086457,-5.299239 0.388703,0.129565 0.802509,0.863195 0.919574,1.630287 0.24162,1.583257 2.286426,4.434025 2.807032,3.913423 0.188698,-0.1887 0.702065,-0.119175 1.140811,0.1545 0.438746,0.273675 1.343057,0.57682 2.009577,0.673655 2.117511,0.30764 2.815976,0.73912 2.368498,1.463156 -0.264348,0.427723 -0.170944,0.540639 0.238094,0.287838 0.370197,-0.228794 0.502326,-0.860988 0.293614,-1.404875 -0.283029,-0.737569 -0.160813,-0.857068 0.480907,-0.47021 0.734408,0.442735 0.738625,0.368572 0.02878,-0.506528 -0.457378,-0.563863 -1.411714,-1.02938 -2.120747,-1.034483 -1.054411,-0.0076 -1.12365,-0.116227 -0.380249,-0.596649 0.706863,-0.45681 0.534179,-0.589433 -0.776872,-0.596649 -0.927173,-0.0051 -2.616905,-0.398334 -3.754958,-0.873845 -1.796018,-0.750424 -2.031718,-1.090408 -1.785275,-2.575192 0.193466,-1.165639 0.107855,-1.443864 -0.268723,-0.873302 -0.439279,0.665569 -0.756985,0.525455 -1.548842,-0.683065 -1.232172,-1.880534 -2.012025,-4.654502 -1.703881,-6.060766 0.203035,-0.926582 0.571475,-0.825569 2.944887,0.807383 3.586086,2.46729 9.773941,4.581963 10.699422,3.656481 1.10125,-1.101249 2.818842,-0.790272 6.144525,1.11249 3.411276,1.951733 8.227546,3.077083 8.227546,1.922414 0,-0.375854 -0.886169,-0.695669 -1.969265,-0.7107 -1.083096,-0.01503 -2.787267,-0.428144 -3.787048,-0.918029 -0.99978,-0.489885 -1.272448,-0.730891 -0.605927,-0.53557 2.807959,0.822861 6.836251,0.959532 9.232307,0.313231 2.305785,-0.621952 2.494538,-0.808635 1.854236,-1.833915 -0.553279,-0.885941 -0.539791,-1.350018 0.06023,-2.073028 1.119688,-1.349108 0.30037,-2.196491 -2.12371,-2.196491 -2.832415,0 -5.465176,1.44361 -5.91718,3.244544 -0.288991,1.151425 -0.861151,1.531916 -2.646189,1.759735 -1.252616,0.159868 -2.53651,0.05364 -2.853108,-0.236059 -0.334708,-0.30627 0.468376,-0.526727 1.918767,-0.526727 2.8204,0 3.447068,-0.845844 2.130375,-2.875482 -0.599432,-0.924 -0.751671,-2.059168 -0.47438,-3.53723 0.470702,-2.509087 2.688834,-7.031459 3.271997,-6.671042 0.21674,0.133954 0.394077,-0.370422 0.394077,-1.120834 0,-0.835018 -0.352644,-1.341529 -0.908892,-1.305476 -0.619021,0.04012 -0.908891,-0.520836 -0.908891,-1.758874 0,-2.487022 2.378296,-2.942372 3.42054,-0.654897 0.621331,1.363666 0.404948,2.124706 -1.811923,6.372828 -2.556918,4.899743 -2.919087,6.343183 -1.968247,7.844505 0.444805,0.70232 0.759366,0.677801 1.943331,-0.151481 0.776939,-0.544191 2.169948,-0.989438 3.095581,-0.989438 1.353073,0 1.682958,-0.273675 1.682958,-1.39619 0,-1.899471 3.068448,-6.600453 5.384946,-8.249945 1.773241,-1.262657 1.835524,-1.430997 0.980936,-2.651094 -1.182625,-1.688436 -1.154207,-2.003361 0.31321,-3.470776 1.684673,-1.684674 3.621678,-0.680595 3.621678,1.877357 0,1.436667 -0.75359,2.532039 -3.571804,5.191745 -1.964496,1.854001 -4.064999,4.464618 -4.667788,5.801372 -1.067166,2.366542 -1.065366,2.452851 0.06842,3.281893 1.0627,0.777063 1.255185,0.674495 2.203637,-1.174239 1.158873,-2.258871 5.240198,-6.175836 7.51489,-7.212255 1.027459,-0.468143 1.482287,-1.166118 1.482287,-2.274713 0,-2.856593 3.147679,-4.333466 3.936809,-1.84713 0.523515,1.649443 0.139084,2.113908 -3.82544,4.621893 -4.180613,2.644689 -6.602102,4.840275 -7.739561,7.017546 -1.048425,2.006849 -1.060986,2.303362 -0.09738,2.298488 0.416575,-0.0021 1.190478,-0.765368 1.719786,-1.696136 0.529308,-0.930768 2.846981,-3.107762 5.150385,-4.837766 4.099021,-3.078623 5.60188,-3.858461 4.736076,-2.457561 -0.27002,0.436898 -0.165982,0.534928 0.277084,0.261096 0.390187,-0.24115 0.575086,-0.655839 0.410874,-0.921532 -0.164207,-0.265694 0.240347,-0.970782 0.899009,-1.566862 0.658661,-0.596081 1.197567,-0.784948 1.197567,-0.419705 0,0.365244 -0.277115,0.835346 -0.61581,1.044672 -0.338696,0.209326 -0.477393,0.604562 -0.308211,0.878302 0.169181,0.273741 -1.602952,1.652083 -3.93807,3.062983 -4.481362,2.707678 -7.514714,5.715287 -7.032256,6.972562 0.208863,0.544283 -0.561125,0.730361 -2.783056,0.672568 -1.973506,-0.05133 -3.166451,0.190794 -3.336504,0.677192 -0.38245,1.093883 1.511692,1.634937 3.058074,0.873531 2.131945,-1.049725 5.260991,-1.507618 5.260991,-0.769874 0,0.359739 -0.527585,0.654072 -1.172407,0.654072 -0.64483,0 -1.940001,0.317986 -2.878158,0.706636 -0.938164,0.38865 -1.842081,0.753034 -2.008711,0.809741 -2.521114,0.857989 -3.286309,2.119189 -1.285761,2.119189 0.625869,0 1.539117,-0.60419 2.029428,-1.342645 l 0.891483,-1.342644 0.718564,1.342644 c 1.190023,2.223577 5.497587,1.463461 9.951409,-1.756032 3.337232,-2.412352 5.834211,-2.837401 7.146699,-1.216547 0.572553,0.707072 1.45499,1.285585 1.96097,1.285585 0.505985,0 1.280282,0.34705 1.720658,0.771221 1.99243,1.919094 7.754965,2.509021 12.20571,1.249532 1.046576,-0.296165 1.052951,-0.213286 0.122064,1.586851 -0.540197,1.044635 -1.855114,2.431594 -2.922032,3.082131 -2.091122,1.275032 -3.130088,1.526836 -2.571653,0.623265 0.619973,-1.003133 -0.720533,-1.270707 -1.522854,-0.303971 -0.427428,0.515025 -0.526491,0.878429 -0.220134,0.807565 0.306357,-0.07086 1.197677,0.13432 1.980717,0.455964 l 1.423712,0.584807 -2.202202,1.933558 c -1.211213,1.063457 -2.533547,1.929382 -2.93853,1.924279 -0.462875,-0.0058 -0.398786,-0.227412 0.172568,-0.596649 0.635533,-0.410711 0.675373,-0.590161 0.132468,-0.596649 -0.42704,-0.0051 -0.933377,0.399723 -1.125202,0.899613 -0.191831,0.49989 -0.842215,0.908892 -1.445313,0.908892 -0.603092,0 -1.193114,0.289755 -1.311167,0.643901 -0.246667,0.740001 -5.128257,-1.191218 -7.77507,-3.075915 -2.060184,-1.466978 -2.85155,-1.556448 -1.728832,-0.195458 0.751744,0.91129 0.704506,0.940382 -0.491905,0.302963 -0.727925,-0.387821 -1.682261,-0.703775 -2.120746,-0.70212 -1.221496,0.0046 2.580112,2.895387 4.813168,3.659973 1.136453,0.389115 1.805488,0.950198 1.575927,1.321641 -0.389763,0.630644 1.137968,0.41973 3.81555,-0.526762 0.926821,-0.327619 0.984578,-0.252633 0.33975,0.441072 -0.480876,0.517323 -2.492447,0.92243 -5.279096,1.063149 -3.706623,0.187176 -4.988009,-0.0078 -7.251621,-1.103637 -1.512202,-0.732041 -2.749451,-1.579329 -2.749451,-1.88286 0,-0.303531 -0.204498,-0.551123 -0.454443,-0.550204 -0.249945,9.09e-4 -0.48353,1.109695 -0.51908,2.463947 -0.05126,1.952852 0.29499,2.8219 1.673581,4.200496 0.956021,0.95602 1.90623,2.578293 2.111585,3.605049 0.283114,1.415579 0.558266,1.713376 1.138302,1.231989 0.420714,-0.349162 1.680928,-0.69437 2.80047,-0.767129 1.264238,-0.08216 2.453995,-0.64888 3.139887,-1.495626 1.311961,-1.619632 4.116551,-1.812188 5.547837,-0.3809 1.310579,1.310578 0.929427,2.910029 -0.750586,3.149717 -1.103704,0.157466 -1.357145,-0.09713 -1.357145,-1.363337 0,-1.773803 -0.932232,-1.997843 -2.480977,-0.596246 -0.774291,0.700723 -0.971193,1.517711 -0.72758,3.018901 0.395308,2.436015 -1.099504,3.48463 -2.694172,1.889963 -0.789154,-0.789156 -0.822704,-1.128379 -0.187323,-1.893968 0.789112,-0.950825 1.848558,-0.757454 1.848558,0.337401 0,0.33326 -0.253829,0.449054 -0.564058,0.25732 -0.310235,-0.191734 -0.717666,-0.100064 -0.905413,0.203712 -0.187741,0.303776 0.05738,0.705316 0.544656,0.892312 1.144785,0.439296 1.712327,-0.504116 1.225677,-2.037414 -0.458094,-1.443327 -2.660059,-1.160659 -5.28172,0.678018 l -1.648263,1.155988 -0.933201,-1.804621 c -0.513263,-0.992541 -1.447355,-2.079785 -2.07576,-2.416097 -1.037084,-0.555029 -1.265106,-0.157293 -2.470121,4.308559 l -1.327569,4.920033 1.567498,1.567505 1.567507,1.567504 v -1.820673 c 0,-1.001368 -0.436815,-2.44431 -0.970698,-3.206533 -0.533883,-0.762225 -0.811398,-1.545162 -0.616695,-1.739863 0.194703,-0.194699 0.884757,0.831486 1.533466,2.280413 0.844081,1.885324 1.013377,2.944746 0.595372,3.725787 -0.865891,1.617936 -0.312295,1.353685 2.791154,-1.332338 2.236376,-1.93557 3.276803,-2.423711 5.165921,-2.423711 2.811941,0 4.093054,1.545189 2.775282,3.347351 -0.901826,1.233317 -2.790818,0.850286 -2.790818,-0.5659 0,-1.133945 1.007701,-1.784202 1.508712,-0.97355 0.209324,0.338695 0.09183,0.61581 -0.261094,0.61581 -0.352929,0 -0.64169,0.29539 -0.64169,0.65642 0,0.361036 0.340834,0.542814 0.75741,0.403953 0.416575,-0.13886 0.757409,-0.766777 0.757409,-1.395372 0,-0.87419 -0.481555,-1.167116 -2.048205,-1.245907 -1.373626,-0.06908 -1.77275,0.07145 -1.211855,0.426705 0.668823,0.42361 0.63111,0.531574 -0.188262,0.538997 -1.537238,0.01394 -1.966411,1.197197 -0.755398,2.082718 1.213189,0.887103 0.842912,2.590323 -0.691109,3.178982 -1.210334,0.464449 -2.235461,-0.994382 -1.403328,-1.997035 0.399445,-0.481306 0.387836,-0.85534 -0.03466,-1.116458 -0.796165,-0.492056 -1.978493,0.18808 -1.545328,0.88895 0.176907,0.286241 -0.253714,0.703046 -0.956929,0.92624 -0.980933,0.311337 -1.674484,-0.0664 -2.979328,-1.622675 -0.935419,-1.115664 -1.867935,-1.865178 -2.072266,-1.665586 -0.204331,0.199593 -0.695448,2.585433 -1.091373,5.301867 -0.395925,2.716434 -0.953106,4.93897 -1.238177,4.93897 -0.28507,0 -0.351722,-0.269547 -0.148119,-0.59899 0.206731,-0.33449 -0.018,-0.450029 -0.508876,-0.261652 -0.483488,0.185529 -1.042898,0.07225 -1.243133,-0.251732 -0.210306,-0.340277 -1.707644,0.138339 -3.545374,1.13326 -2.199687,1.190878 -4.677034,1.901456 -8.028735,2.302889 -5.331666,0.638563 -13.277238,0.225665 -10.603734,-0.551037 1.396991,-0.405856 1.411551,-0.444781 0.187238,-0.500484 -0.730167,-0.0332 -1.498841,0.216716 -1.708165,0.555411 -0.20933,0.338696 -0.630316,0.461475 -0.935528,0.272844 -0.319445,-0.197424 -0.394646,0.458475 -0.177221,1.545607 0.280902,1.40451 0.04096,2.34408 -0.936153,3.66569 -0.722629,0.97741 -1.066432,1.7771 -0.763996,1.7771 0.973944,0 2.099618,-1.82172 2.546902,-4.12176 l 0.435705,-2.240472 0.06968,2.015872 c 0.05108,1.47789 -0.403002,2.48856 -1.701493,3.78705 C 29.525199,88.73505 28.786034,89 26.090177,89 c -2.921383,0 -3.354852,-0.19425 -5.5256,-2.47618 z m 7.69356,1.31139 c -1.165144,-0.45542 -1.157879,-0.49084 0.188419,-0.91886 1.751337,-0.55678 2.814359,-2.79304 2.300647,-4.839835 -0.531247,-2.116651 -1.693901,-1.940556 -2.79203,0.422875 -1.130091,2.43223 -3.787066,3.02855 -4.827989,1.08358 -0.888411,-1.660021 0.01406,-3.287755 2.362136,-4.260354 1.40831,-0.583345 3.31108,-0.608642 8.380986,-0.111436 7.48017,0.733585 12.524433,0.233076 16.825483,-1.669482 1.574316,-0.696398 3.032232,-1.255257 3.239817,-1.241914 0.61195,0.03932 -3.079082,1.952291 -5.378893,2.787726 -1.29091,0.468934 -1.646553,0.771019 -0.908891,0.772007 1.86856,0.0024 6.661847,-2.564329 6.692743,-3.583995 0.01515,-0.49989 0.376251,-0.833968 0.802449,-0.742394 0.426203,0.09157 0.599468,-0.117381 0.385036,-0.464335 -0.214425,-0.346948 -0.615125,-0.491607 -0.890435,-0.321456 -0.275315,0.170156 -0.652729,-0.08715 -0.8387,-0.57179 -0.293663,-0.765275 -0.760252,-0.754568 -3.54758,0.08139 -3.912244,1.173343 -17.778286,0.781629 -22.599125,-0.638423 -5.062532,-1.491249 -7.578344,-1.464043 -7.564819,0.08181 0.0079,0.906195 0.09468,0.92822 0.596651,0.151482 0.32305,-0.49989 0.591542,-0.610315 0.59665,-0.245395 0.01897,1.357617 -2.324532,2.823047 -3.887347,2.4308 -2.194294,-0.550728 -2.945699,-2.268817 -1.743138,-3.985707 1.094081,-1.562021 2.465386,-1.531785 13.516822,0.298031 3.165972,0.524201 7.664984,1.087138 9.997806,1.250968 l 4.241493,0.297874 -1.691059,-1.303714 C 40.117068,71.36258 40.075459,71.21268 40.957817,69.86603 c 1.247332,-1.903667 1.195174,-2.073491 -0.636818,-2.073491 -0.863756,0 -2.30521,0.608491 -3.203231,1.352207 l -1.632757,1.3522 1.536924,1.411036 c 1.256791,1.153844 1.306961,1.299957 0.275236,0.801624 -0.693926,-0.335175 -1.620553,-1.04182 -2.059172,-1.570322 -0.672307,-0.810077 -0.616925,-1.097584 0.352795,-1.831592 0.632655,-0.478877 1.354788,-0.879353 1.604733,-0.889957 0.249945,-0.0106 0.454446,-0.248545 0.454446,-0.528774 0,-0.28023 -1.567838,-0.848875 -3.484084,-1.263659 -1.916246,-0.414783 -6.483426,-1.940844 -10.149288,-3.391245 -3.665863,-1.450402 -7.142373,-2.819601 -7.725578,-3.042663 -0.804781,-0.307811 -1.060373,-0.09471 -1.060373,0.884104 0,2.794754 -4.813335,3.150927 -5.3549801,0.396254 -0.4410165,-2.2429 3.9101821,-4.615651 5.0581241,-2.758244 0.209323,0.338696 0.623917,0.465429 0.921313,0.281627 0.822758,-0.508491 10.307483,3.418932 9.889605,4.095074 -0.223345,0.361382 0.164273,0.422665 0.998563,0.157873 0.864792,-0.274476 1.224725,-0.208067 0.983936,0.18154 -0.232883,0.376813 0.125814,0.482144 0.92776,0.272432 0.974028,-0.254715 1.182146,-0.139172 0.816105,0.453093 -0.322844,0.522376 -0.25498,0.648921 0.197909,0.369021 0.37908,-0.234286 1.67519,-0.24101 2.880234,-0.01494 1.535724,0.288104 1.946543,0.565943 1.373644,0.929003 -0.449544,0.284884 -0.54468,0.51797 -0.21142,0.51797 1.179529,0 2.287959,-1.018435 1.582768,-1.454267 -0.367047,-0.226848 -0.936007,-0.914423 -1.264353,-1.527943 -0.485506,-0.907168 -0.224169,-1.399862 1.399347,-2.638178 1.665277,-1.270169 3.095164,-1.633776 8.622278,-2.192568 8.442548,-0.853543 9.352609,-1.107085 9.352609,-2.605614 0,-0.945185 -0.295614,-1.135474 -1.363338,-0.87759 -4.235482,1.022981 -10.031386,1.08522 -13.63994,0.146473 -4.473334,-1.163716 -12.025652,-4.509328 -14.826813,-6.568153 -2.522683,-1.854141 -7.826895,-4.076998 -9.728599,-4.076998 -2.285827,0 -5.2461562,1.228366 -5.898676,2.44761 -1.2399722,2.316909 0.1431419,7.85316 1.9619446,7.85316 0.3883974,0 0.1768954,0.400329 -0.470006,0.889621 -0.6469016,0.489292 -1.4488517,0.889621 -1.7821119,0.889621 -0.3332602,0 -0.125736,-0.364433 0.4611655,-0.809852 1.0034167,-0.761525 1.0055156,-0.859807 0.035168,-1.64703 -0.707552,-0.574023 -0.8877525,-0.597258 -0.5732712,-0.07392 0.2654775,0.441791 -0.068341,1.433225 -0.7925782,2.353944 -2.1955933,2.791244 -1.3723879,7.410093 1.8205278,10.214635 0.7579246,0.665733 1.1568873,0.834217 0.8865836,0.374407 -0.3394292,-0.577397 -0.2310669,-0.74141 0.3502898,-0.530187 0.462964,0.168207 0.776856,0.602769 0.697539,0.965694 -0.07932,0.362925 0.19335,0.536208 0.605928,0.385071 0.412577,-0.151136 1.159144,-0.003 1.659034,0.329225 0.779756,0.518208 0.72292,0.754047 -0.400015,1.659939 -0.7199,0.580751 -1.438107,1.601249 -1.596014,2.267769 -0.281038,1.186237 -0.288592,1.1856 -0.357395,-0.0303 -0.03866,-0.683184 0.252368,-1.564808 0.646726,-1.959164 0.394358,-0.394362 0.534877,-0.899155 0.312265,-1.121766 -0.477003,-0.477005 -2.1973542,3.360499 -1.9238105,4.291349 0.1030622,0.350711 0.3432907,1.354036 0.5338415,2.229608 0.366882,1.685805 2.099165,3.114715 4.602185,3.796202 1.311664,0.357121 1.271036,0.277406 -0.302964,-0.594433 -2.815263,-1.55936 -3.940663,-2.746687 -3.914814,-4.13022 0.01903,-1.018237 0.18228,-0.90545 0.82505,0.570008 0.551705,1.266419 1.629666,2.182242 3.460368,2.939881 4.274571,1.769036 4.435566,1.90371 4.96817,4.155791 0.617331,2.610334 2.405672,4.385324 5.594827,5.553054 2.468052,0.90369 5.232743,1.27579 3.002735,0.40413 z m 10.134019,-15.959146 -1.286881,-1.369827 1.938671,-1.062634 1.938672,-1.062639 -1.493279,1.271466 -1.493278,1.271467 1.493278,1.147524 c 0.821305,0.631134 1.199973,1.153577 0.841488,1.160987 -0.358485,0.0074 -1.230881,-0.602946 -1.938671,-1.356344 z M 7.6697274,64.395012 c -1.333551,-2.035256 -1.866877,-5.801019 -1.0318906,-7.286082 0.500469,-0.890109 0.5720321,-0.614107 0.334929,1.291737 -0.2142179,1.72189 0.057793,3.113562 0.9393763,4.806088 1.4483469,2.780635 1.2946352,3.534091 -0.2424147,1.188257 z M 30.681805,57.242688 c -5.494407,-2.112487 -5.775327,-2.259579 -5.418399,-2.837102 0.182027,-0.294523 -0.03739,-0.394159 -0.48753,-0.221415 -0.450161,0.172746 -2.441167,-0.731766 -4.424447,-2.010023 -4.62404,-2.980274 -5.597832,-3.349897 -5.499914,-2.087602 0.108309,1.396216 -2.897736,2.397958 -4.129122,1.375998 -1.345101,-1.116335 -1.1805019,-3.496987 0.296433,-4.287418 1.558085,-0.833862 4.121759,-0.05338 8.089112,2.462642 1.739073,1.102887 2.684133,2.078381 2.422947,2.500985 -0.248333,0.401814 -0.161394,0.527947 0.206979,0.300281 0.960353,-0.593534 5.131644,1.328648 4.63325,2.135062 -0.231555,0.374666 -0.172732,0.527767 0.130717,0.340226 0.639581,-0.395284 8.850264,2.24964 8.395461,2.704447 -0.166982,0.166982 1.133897,0.217426 2.890838,0.112099 3.127108,-0.187466 3.143353,-0.179967 0.770734,0.355711 -3.399399,0.767498 -3.796664,0.724938 -7.877059,-0.843891 z M 12.352493,50.807689 c -0.814478,-0.327379 -1.391636,-1.104716 -1.433626,-1.930857 -0.05446,-1.071511 -0.133941,-1.137566 -0.352999,-0.293381 -0.346604,1.335707 0.828901,2.862628 2.163779,2.81064 0.667369,-0.02599 0.545438,-0.215564 -0.377154,-0.586402 z m 7.725578,0.396039 c 0,-0.125825 -0.477168,-0.602993 -1.060373,-1.060374 -0.961038,-0.753695 -0.98247,-0.732264 -0.228775,0.228771 0.791566,1.009323 1.289148,1.330302 1.289148,0.831603 z m -6.21048,-2.043458 c 0.147925,-0.444256 -0.269735,-0.757409 -1.01016,-0.757409 -0.744283,0 -1.262349,0.39124 -1.262349,0.95332 0,1.11362 1.890763,0.950619 2.272509,-0.195911 z m -0.618834,-1.729419 c -0.201344,-0.201344 -0.723956,-0.222871 -1.161358,-0.04784 -0.483369,0.193428 -0.33979,0.337007 0.366078,0.366082 0.638751,0.02631 0.99663,-0.1169 0.79528,-0.318244 z m 8.206448,38.388039 c -1.03962,-1.08309 -2.159187,-2.9236 -2.487921,-4.09001 -0.32874,-1.166411 -0.622293,-1.616621 -0.652347,-1.000465 -0.0803,1.646145 1.730093,5.150095 3.188803,6.171815 2.008892,1.40709 1.992654,1.0452 -0.04854,-1.08134 z m 4.339733,-2.25723 c 2.013509,-0.76554 2.267236,-3.352586 0.266529,-2.717586 -0.976113,0.309805 -1.175881,0.209712 -0.825504,-0.413618 0.254229,-0.452277 -0.131244,-0.258792 -0.856606,0.42996 -0.829648,0.787779 -1.173669,1.630614 -0.927457,2.272224 0.460166,1.19917 0.363793,1.18153 2.343038,0.42902 z m -1.810967,-0.67372 c -0.223914,-0.3623 -0.117556,-0.948282 0.236349,-1.302186 0.454003,-0.454004 0.61458,-0.260046 0.545377,0.658726 -0.111673,1.48243 -0.212117,1.56511 -0.781726,0.64346 z m 16.531531,-2.131071 c -0.201344,-0.201344 -0.723957,-0.222866 -1.161358,-0.04781 -0.483372,0.193425 -0.339792,0.337005 0.366077,0.366078 0.638751,0.0263 0.99663,-0.116896 0.795281,-0.318246 z m -3.029639,-0.605928 c -0.201343,-0.201343 -0.723956,-0.222866 -1.161357,-0.04781 -0.483373,0.193424 -0.339792,0.337005 0.366077,0.366077 0.638751,0.0263 0.99663,-0.116896 0.79528,-0.318245 z m 7.889687,-0.05163 c -0.583205,-0.152403 -1.537541,-0.152403 -2.120747,0 -0.583205,0.152409 -0.106037,0.277109 1.060374,0.277109 1.166411,0 1.643579,-0.1247 1.060373,-0.277109 z M 29.924395,79.483452 c -0.749835,-0.144429 -1.976839,-0.144429 -2.726674,0 -0.749836,0.144422 -0.136334,0.26259 1.363337,0.26259 1.499671,0 2.113173,-0.118168 1.363337,-0.26259 z M 19.472143,73.584596 c 0,-1.278483 -1.132297,-1.764995 -2.147292,-0.922628 -1.31702,1.093039 -1.069523,1.795757 0.632473,1.795757 0.914981,0 1.514819,-0.345742 1.514819,-0.873129 z m 13.166299,-0.09888 c -0.201344,-0.201343 -0.723956,-0.222866 -1.161357,-0.04781 -0.483367,0.193424 -0.339792,0.337004 0.366077,0.366077 0.638751,0.0263 0.99663,-0.116896 0.79528,-0.318245 z M 44.921104,73.34826 c 0,-0.276946 -0.684492,-0.86987 -1.521096,-1.317602 l -1.521097,-0.81407 1.32151,-1.406679 c 0.726829,-0.773673 1.114217,-1.612259 0.860854,-1.863519 -0.253357,-0.25126 -1.101789,0.345464 -1.885398,1.326055 l -1.424748,1.782881 1.933509,1.368524 c 2.243847,1.588185 2.236466,1.585131 2.236466,0.92441 z m 13.731703,-1.465727 c -0.168091,-0.416576 -0.305624,-0.07574 -0.305624,0.757409 0,0.833151 0.137533,1.173985 0.305624,0.75741 0.16809,-0.416575 0.16809,-1.098244 0,-1.514819 z M 48.8073,72.555264 c -0.172465,-0.279054 0.1102,-0.344749 0.628147,-0.145998 1.427887,0.547934 3.972068,-0.267221 3.628489,-1.162563 -0.379856,-0.989904 -2.686441,-1.191097 -2.698759,-0.235403 -0.0055,0.429827 -0.24588,0.353643 -0.596651,-0.189141 -0.859896,-1.330593 -0.733706,-1.996471 0.302964,-1.598661 0.49989,0.191825 0.913066,0.01648 0.918168,-0.389618 0.0061,-0.467 0.225169,-0.404335 0.596651,0.170496 0.46045,0.712499 0.589373,0.561089 0.596651,-0.700682 0.0079,-1.370948 -0.192843,-1.55748 -1.354061,-1.258189 -0.749835,0.193265 -1.724391,0.781239 -2.165682,1.306608 -0.441291,0.525376 -0.629698,0.614393 -0.418684,0.197818 0.583963,-1.15285 -0.958154,-0.903541 -1.874025,0.302963 -1.271558,1.675069 -1.040475,2.705728 0.519861,2.318655 0.749836,-0.186013 1.020801,-0.181099 0.602153,0.01091 -0.418654,0.192019 -0.607061,0.598505 -0.41869,0.903299 0.495534,0.801781 -0.467303,0.645252 -1.675057,-0.272322 -0.948155,-0.720345 -0.95585,-0.904026 -0.08968,-2.140658 1.395021,-1.991678 0.577183,-2.225154 -0.958002,-0.273491 l -1.314087,1.670597 1.383436,1.043522 c 1.380369,1.04122 4.981452,1.403923 4.386855,0.441849 z m 6.816898,0.23616 c -0.151318,-0.249945 0.08519,-0.787294 0.525588,-1.194101 0.440394,-0.406814 0.912424,-0.543148 1.048952,-0.302964 0.136527,0.240177 0.171901,0.113472 0.07861,-0.281569 -0.09329,-0.395046 0.155899,-0.850686 0.553757,-1.012535 0.553321,-0.225102 0.550867,-0.305521 -0.01042,-0.342113 -0.788215,-0.05138 -3.204727,2.283184 -3.204727,3.096054 0,0.270419 0.288761,0.491674 0.641689,0.491674 0.352929,0 0.517881,-0.204501 0.366562,-0.454446 z M 70.26301,71.226392 c 0.107752,-0.555587 -0.142193,-1.01016 -0.55543,-1.01016 -0.413242,0 -0.571935,0.179415 -0.35265,0.398694 0.219279,0.219285 0.06023,0.808962 -0.353462,1.310391 -0.61567,0.746273 -0.587234,0.857224 0.156742,0.611472 0.49989,-0.165127 0.997054,-0.754804 1.1048,-1.310397 z M 57.039657,67.489557 c -0.782707,-0.83315 -1.852738,-1.503902 -2.377847,-1.490559 -0.573038,0.01456 -0.288549,0.38568 0.711546,0.928243 0.916466,0.497191 1.666301,1.167941 1.666301,1.490561 0,0.322614 0.320197,0.586574 0.711547,0.586574 0.391357,0 0.07116,-0.681668 -0.711547,-1.514819 z m 12.195845,0.454446 c 0.769231,-0.980848 0.740716,-0.993707 -0.380256,-0.171459 -0.66652,0.488904 -1.325467,0.966073 -1.464327,1.060373 -0.138855,0.0943 0.03224,0.171459 0.380256,0.171459 0.347996,0 1.006942,-0.477168 1.464327,-1.060373 z m -28.38505,-1.640601 c -0.193121,-0.347396 -0.884466,-1.224945 -1.536323,-1.950109 -0.651857,-0.725165 -1.004204,-1.611335 -0.782986,-1.969265 0.550764,-0.891154 -0.442218,-0.821162 -1.512698,0.106626 -0.480646,0.416575 -0.07517,-0.128759 0.901069,-1.211855 2.071175,-2.2979 1.273962,-2.568999 -1.673215,-0.56899 l -2.06342,1.400274 1.439242,1.673217 c 0.791578,0.92027 1.256881,1.96828 1.033997,2.328912 -0.222884,0.360633 -0.145592,0.495224 0.17175,0.299092 0.317349,-0.196133 0.955482,-0.12269 1.418071,0.163204 1.145082,0.707701 3.039048,0.510557 2.604513,-0.271106 z m -2.640414,-1.389037 -1.468957,-1.666301 1.666301,1.468959 c 1.55741,1.372963 1.944174,1.863643 1.468957,1.863643 -0.10854,0 -0.858376,-0.749836 -1.666301,-1.666301 z m 4.75266,1.060373 c -0.416248,-0.66652 -0.934722,-1.211855 -1.152159,-1.211855 -0.217444,0 -0.543687,-0.386568 -0.724993,-0.85904 -0.341525,-0.890008 2.324908,-4.489153 2.899849,-3.914209 0.178754,0.178751 -0.342555,0.952139 -1.158461,1.718641 l -1.483463,1.39364 1.536384,2.014305 c 1.322613,1.734035 1.845517,1.987536 3.758085,1.82192 1.221932,-0.105812 2.679388,-0.22953 3.238786,-0.27493 1.960637,-0.15912 2.921438,-1.859847 2.921438,-5.171268 v -3.184378 l -1.817656,0.266774 c -1.346129,0.197571 -2.160998,0.877681 -3.141214,2.621732 -0.727961,1.295227 -1.614185,2.364763 -1.969392,2.376749 -0.355213,0.01199 0.172169,0.723578 1.171949,1.581317 0.999781,0.857741 1.408782,1.351795 0.908892,1.097901 -0.499891,-0.253895 -1.379637,-0.865598 -1.954983,-1.359341 -0.982361,-0.84302 -0.95467,-1.00636 0.454445,-2.681 2.320885,-2.758212 1.739243,-3.497241 -0.69289,-0.880379 l -2.160635,2.324746 1.402535,1.613784 1.402528,1.613783 -1.712163,-1.591543 c -1.674566,-1.556591 -1.68929,-1.626449 -0.670635,-3.18112 0.572844,-0.874268 1.28284,-1.589578 1.577775,-1.589578 0.294929,0 0.53624,-0.272667 0.53624,-0.605927 0,-1.249726 -3.082088,-0.541984 -4.964571,1.140017 l -1.954057,1.745946 1.672367,2.192584 c 1.754809,2.300676 3.379713,3.068301 2.075999,0.980729 z m 5.547613,-1.289144 c -0.467691,-2.276648 -0.425416,-2.385507 0.778114,-2.003521 0.825504,0.262004 1.099692,0.169412 0.823183,-0.277985 -0.57588,-0.931793 0.179476,-0.840776 1.16003,0.139779 0.459057,0.459055 0.604528,1.144089 0.335424,1.57951 -0.351802,0.569227 -0.587544,0.587105 -0.90785,0.06885 -0.32651,-0.528303 -0.642386,-0.525972 -1.287596,0.0095 -0.470218,0.390248 -0.875808,0.607989 -0.901305,0.483869 z m 9.1573,1.618651 c -0.402754,-0.485292 -0.525437,-1.217029 -0.272631,-1.626082 0.328721,-0.531878 0.590349,-0.409989 0.918471,0.427903 0.446211,1.139453 0.460238,1.138349 0.510682,-0.04022 0.04314,-1.008076 0.150633,-1.059021 0.639235,-0.302964 0.474969,0.734966 0.589144,0.648002 0.596651,-0.454445 0.0069,-1.018262 -0.335799,-1.35846 -1.35406,-1.344067 -1.421852,0.0201 -3.484084,1.273616 -3.484084,2.117781 0,0.26875 0.180045,0.308591 0.4001,0.08854 0.220048,-0.220054 0.780846,0.143503 1.246211,0.807903 0.465365,0.664401 1.000374,1.208001 1.188915,1.208001 0.18854,0 0.01327,-0.397057 -0.38949,-0.88235 z m -2.308797,-4.789329 c 0.39112,0.241724 0.481567,0.12296 0.223884,-0.293978 -0.775672,-1.255063 -1.574521,-0.736802 -1.490164,0.966752 0.07142,1.442072 0.118011,1.481632 0.346288,0.293978 0.152161,-0.791662 0.541433,-1.200717 0.919992,-0.966752 z m -42.904398,1.062392 c 1.142604,-0.438457 1.340906,-3.501718 0.201041,-3.105461 -0.416575,0.144816 -0.735761,0.849207 -0.709299,1.565313 0.02646,0.716107 -0.17804,1.302012 -0.454446,1.302012 -0.276407,0 -0.502557,-0.454445 -0.502557,-1.009879 0,-0.555434 -0.170019,-0.839861 -0.37782,-0.63206 -0.386585,0.386585 0.120338,2.247867 0.61221,2.247867 0.149832,0 0.703725,-0.165506 1.230871,-0.367792 z m 45.797097,-0.937975 c 0,0.384912 0.477168,0.698485 1.060373,0.69683 0.800897,-0.0023 0.615629,-0.358842 -0.757113,-1.457144 -0.99961,-0.799773 -2.022113,-1.327662 -2.272228,-1.173085 -0.932493,0.576313 -0.414321,-0.596449 0.605631,-1.370704 1.256275,-0.953647 2.193658,-1.090834 1.670591,-0.244492 -0.212281,0.343477 0.03096,0.445059 0.570165,0.238137 0.632043,-0.242538 0.940364,-0.0085 0.940364,0.713856 0,0.591088 0.161231,0.913477 0.358291,0.716418 0.561295,-0.5613 -0.378299,-2.932479 -1.007846,-2.5434 -0.309265,0.191137 -0.562301,0.05876 -0.562301,-0.294166 0,-0.566796 1.27203,-0.919205 2.575193,-0.713442 0.249945,0.03946 0.454446,-0.200913 0.454446,-0.534173 0,-1.37294 -3.712337,0.165142 -5.700174,2.361676 -1.071934,1.184475 -1.083047,1.351025 -0.158323,2.372833 0.798031,0.881818 0.846518,1.267721 0.245395,1.953187 -0.412025,0.469835 -0.135637,0.342052 0.614199,-0.283962 0.777823,-0.649383 1.363337,-0.837649 1.363337,-0.438369 z m -16.965974,-1.74519 c 0,-0.825481 -0.550989,-0.726111 -1.558101,0.281002 -1.238777,1.238773 -1.067802,1.708947 0.346245,0.952172 0.666521,-0.356711 1.211856,-0.911639 1.211856,-1.233174 z m 24.866349,-3.568549 c -1.371675,-2.688701 -2.447024,-3.211312 -2.447024,-1.189233 0,1.472938 3.235996,5.514897 3.51971,4.396336 0.10291,-0.405731 -0.379802,-1.848927 -1.072686,-3.207103 z m -11.972585,2.353979 c -0.177755,-0.679738 -0.458584,-1.100499 -0.624057,-0.935023 -0.327807,0.327802 0.251212,2.170912 0.681996,2.170912 0.145889,0 0.119816,-0.55615 -0.05793,-1.235889 z m 26.224506,-0.03411 c 0.225732,-0.365241 0.02854,-1.045947 -0.438189,-1.51268 -0.727525,-0.727525 -0.86647,-0.632772 -0.973798,0.664073 -0.128311,1.550359 0.678572,2.035297 1.411987,0.848607 z m -4.503103,-1.608155 c 0.753695,-0.961035 0.732264,-0.982467 -0.228774,-0.228771 -1.009324,0.791565 -1.330302,1.289145 -0.831599,1.289145 0.125821,0 0.602989,-0.477168 1.060373,-1.060374 z M 62.912908,53.413271 c -0.153627,-0.589548 -0.289427,-0.253903 -0.301776,0.745878 -0.01236,0.999781 0.113345,1.482138 0.279326,1.071905 0.165976,-0.410233 0.176077,-1.228235 0.02242,-1.817783 z M 45.37555,54.634042 c -0.916465,-0.138833 -2.416136,-0.138833 -3.332602,0 -0.916465,0.138833 -0.16663,0.252424 1.666301,0.252424 1.832931,0 2.582767,-0.113591 1.666301,-0.252424 z m 14.514646,-3.057557 c -0.40848,-0.531705 -0.815567,-0.575701 -1.33535,-0.144316 -0.411255,0.341311 -1.396699,0.549174 -2.189877,0.461918 -1.122178,-0.12345 -1.460461,0.145891 -1.52472,1.213974 -0.06053,1.006207 -0.01163,1.06413 0.183081,0.216985 0.183251,-0.797149 0.629068,-1.060606 1.437145,-0.849289 0.644314,0.168492 1.024048,0.544893 0.843858,0.836448 -0.180185,0.291554 0.09555,0.367716 0.612744,0.169248 0.640478,-0.245775 0.943211,-0.002 0.949295,0.76435 0.0072,0.904331 0.166212,0.827851 0.810186,-0.389618 0.531404,-1.004647 0.603352,-1.772422 0.213638,-2.2797 z m -1.303732,1.119597 c -0.195097,-0.315668 -0.09645,-0.733565 0.219224,-0.928659 0.31567,-0.195094 0.733566,-0.09644 0.928657,0.219227 0.195097,0.315668 0.09645,0.733565 -0.219225,0.928659 -0.31567,0.195094 -0.733566,0.09644 -0.928656,-0.219227 z m -22.754274,0.04516 c -2.499452,-0.909184 -6.282682,-2.677659 -8.407174,-3.929946 -4.539979,-2.6761 -5.679693,-2.616687 -1.462188,0.07623 3.732108,2.382984 11.26331,5.443777 13.504928,5.488606 0.49989,0.01 -1.136115,-0.725702 -3.635566,-1.634885 z m 13.786599,0.845087 c -0.915502,-0.477576 -1.892561,-1.009236 -2.171239,-1.181469 -0.278678,-0.172233 -0.506689,0.05786 -0.506689,0.511318 0,0.453458 0.335975,0.695542 0.746612,0.537966 0.410637,-0.157577 0.926621,0.0047 1.146633,0.360733 0.220007,0.35598 0.86109,0.645556 1.424627,0.643503 0.66763,-0.0024 0.444672,-0.306259 -0.639944,-0.872051 z m -8.634802,-1.088224 c 0.272716,0.247054 0.291517,0.09511 0.04181,-0.337643 -0.320978,-0.556229 -0.676561,-0.602166 -1.213268,-0.156739 -0.417568,0.346551 -0.982348,0.427958 -1.255057,0.180904 -0.27271,-0.247054 -0.291518,-0.09511 -0.04181,0.337644 0.320978,0.556228 0.67656,0.602165 1.213267,0.156739 0.417569,-0.346552 0.982348,-0.427959 1.255058,-0.180905 z m 16.358634,-1.671558 c -0.205967,-0.33326 0.203035,-0.605928 0.908892,-0.605928 0.705857,0 1.133951,-0.241772 0.951324,-0.537272 -0.549873,-0.889712 1.32557,-2.014699 2.655163,-1.592703 0.947695,0.300787 1.229627,0.133638 1.193096,-0.707349 -0.0263,-0.605663 -0.180257,-0.775689 -0.342113,-0.377835 -0.161849,0.397854 -0.664351,0.581358 -1.11667,0.407787 -1.399596,-0.537077 -5.53201,2.318873 -4.880535,3.372985 0.219667,0.355433 0.535731,0.646243 0.702361,0.646243 0.16663,0 0.134449,-0.272668 -0.07152,-0.605928 z m -2.914918,-4.090012 c -0.152409,-0.583205 -0.277109,-0.106037 -0.277109,1.060374 0,1.16641 0.1247,1.643578 0.277109,1.060373 0.152403,-0.583205 0.152403,-1.537541 0,-2.120747 z M 49.53811,46.433571 c -0.167612,-1.02559 -0.579473,-1.325355 -1.662502,-1.210021 -1.103891,0.117556 -1.231651,0.01916 -0.547777,-0.42185 0.770685,-0.496989 0.756531,-0.627117 -0.104135,-0.957383 -1.17287,-0.450074 -3.697637,0.742273 -3.21733,1.519421 0.182081,0.294615 -0.832787,0.436026 -2.255257,0.314245 -2.762994,-0.236545 -1.700766,0.428237 1.742618,1.090601 1.639464,0.315364 1.864536,0.210879 1.613512,-0.74903 -0.160437,-0.613533 0.05102,-1.327351 0.469976,-1.586262 0.547262,-0.338228 0.644465,-0.165285 0.345294,0.614343 -0.548068,1.428253 0.605885,2.749274 2.401588,2.749274 1.152105,0 1.39267,-0.270156 1.214013,-1.363338 z m 3.818144,-0.605927 c -0.0263,-1.083096 -0.185366,-1.628431 -0.353456,-1.211855 -0.168091,0.416575 -0.76007,0.753234 -1.315499,0.748131 -0.873451,-0.008 -0.887091,-0.08863 -0.10099,-0.59665 0.735378,-0.475236 0.649342,-0.589142 -0.450647,-0.596649 -1.083053,-0.0074 -1.307852,0.267973 -1.1054,1.354059 0.139776,0.749835 0.274401,1.567838 0.299165,1.817783 0.02478,0.249945 0.726695,0.454446 1.559845,0.454446 1.314888,0 1.508506,-0.259911 1.466982,-1.969265 z m 28.162092,1.264018 c -0.154214,-0.249525 -0.680663,-0.300084 -1.169883,-0.112354 -1.233577,0.47337 -1.111156,0.758983 0.280393,0.654161 0.643435,-0.04847 1.043705,-0.292282 0.88949,-0.541807 z m -2.346297,-0.995515 c -0.186559,-0.186557 -0.675482,-3.84e-4 -1.086507,0.413718 -0.593967,0.598424 -0.52437,0.668023 0.339198,0.339195 0.597578,-0.227544 0.933868,-0.566355 0.747309,-0.752913 z M 56.400422,45.070234 c 0.02854,0.33326 0.299577,0.21446 0.602334,-0.264001 0.396968,-0.627344 0.774552,-0.692884 1.354055,-0.235032 1.355842,1.071215 3.934221,1.474317 3.934221,0.615073 0,-0.788221 -0.491467,-0.902447 -4.663806,-1.08395 -2.837039,-0.123416 -3.192627,0.09324 -2.61662,1.594292 0.402396,1.048639 0.445641,1.045459 0.880564,-0.06476 0.251563,-0.642155 0.480725,-0.894886 0.509252,-0.561626 z m 31.373964,0.124303 c 0.865773,-0.865775 0.668913,-0.939669 -2.166737,-0.813329 -1.715466,0.07643 -3.119031,-0.07811 -3.119031,-0.343413 0,-0.265309 -0.425094,-0.48238 -0.944653,-0.48238 -0.519559,0 -0.77806,0.269545 -0.574456,0.598987 0.216365,0.35008 -0.04169,0.440936 -0.620973,0.218641 -0.708972,-0.272058 -0.785773,-0.507287 -0.269741,-0.82621 0.39678,-0.245225 0.484803,-0.592102 0.1956,-0.770837 -0.289197,-0.178736 -1.05209,0.05985 -1.695319,0.530187 -0.844203,0.617296 -0.926615,0.862762 -0.29628,0.88249 0.48027,0.01503 0.0552,0.387916 -0.944563,0.828634 -1.784251,0.786525 -1.766152,0.795908 0.981409,0.508696 1.539559,-0.160935 2.944748,-0.05665 3.122642,0.231739 0.542445,0.879364 5.313925,0.454968 6.332102,-0.563205 z M 41.36743,45.096227 c 0.636696,0.202081 1.5313,-0.0378 2.040716,-0.547217 1.183043,-1.183048 1.146554,-1.395544 -0.304824,-1.775088 -0.849772,-0.22222 -1.214631,-0.01703 -1.221139,0.686739 -0.0073,0.7942 -0.11798,0.832087 -0.530186,0.181546 -0.363127,-0.57309 -0.646446,-0.618973 -0.935371,-0.151482 -0.227956,0.368841 -0.723156,0.670619 -1.100443,0.670619 -0.377287,0 -0.156693,-0.40382 0.490207,-0.897377 0.99537,-0.759425 1.040911,-0.986149 0.29622,-1.474838 -0.483978,-0.317604 -1.13961,-0.41699 -1.456959,-0.220857 -0.317348,0.196132 -0.424482,0.109839 -0.238087,-0.191763 0.506325,-0.81925 -2.168972,-3.902511 -2.951595,-3.401695 -0.369767,0.23662 -0.874596,1.077865 -1.121851,1.869434 -0.306581,0.981528 -0.238414,1.308732 0.21436,1.028903 0.394695,-0.243937 0.536627,-0.07864 0.35002,0.407649 -0.172635,0.44988 0.367416,1.458012 1.200118,2.240295 0.832702,0.782282 1.370493,1.65454 1.195089,1.93835 -0.175404,0.28381 0.414346,0.237231 1.310561,-0.103508 0.896216,-0.34074 2.139634,-0.45761 2.763164,-0.25971 z m -4.765688,-1.82825 c -0.609466,-0.692884 -0.52666,-0.830804 0.454446,-0.7569 0.659843,0.0497 1.199712,0.441348 1.199712,0.870319 0,1.007442 -0.711128,0.958683 -1.654158,-0.113419 z m 34.601474,1.015918 c 0.542553,-0.877866 -0.500145,-1.781565 -2.57526,-2.231968 -1.2815,-0.27815 -1.909023,-0.223756 -1.680697,0.145683 0.214546,0.347137 -0.377172,0.503223 -1.439012,0.37959 -1.283037,-0.149387 -1.803383,0.04886 -1.803383,0.687085 0,0.965744 1.246239,0.969056 1.936669,0.0052 0.24062,-0.335931 0.593858,-0.140698 0.822232,0.454446 0.414709,1.08071 4.145217,1.521509 4.739451,0.560016 z m -3.491301,-0.839352 c 0.174998,-0.283152 0.572002,-0.35795 0.882237,-0.166216 0.792783,0.489969 0.703518,0.68104 -0.318179,0.68104 -0.485233,0 -0.739056,-0.231671 -0.564058,-0.514824 z m 9.599597,-0.484895 c 0.847844,-0.322351 1.54154,-0.774621 1.54154,-1.005043 0,-0.230421 -0.172186,-0.246764 -0.382631,-0.03631 -0.51196,0.511957 -2.647007,-0.663333 -2.647007,-1.457114 0,-0.34534 0.437892,-0.19 0.973089,0.345197 0.794614,0.794617 1.155789,0.834002 1.969265,0.214739 0.547898,-0.417092 0.793408,-0.519128 0.545584,-0.226746 -0.729471,0.860624 1.931642,2.431261 2.743586,1.619315 0.773418,-0.773415 1.868583,-0.921225 1.41747,-0.191309 -0.164776,0.266608 0.338308,0.484742 1.117967,0.484742 0.979076,0 1.359223,-0.302859 1.228991,-0.979119 -0.14492,-0.752513 0.28135,-0.966076 1.841844,-0.922762 1.116719,0.031 2.21792,0.243873 2.447106,0.473058 0.713037,0.713042 2.800288,-0.779716 2.432042,-1.739348 -0.188656,-0.491641 -0.09231,-0.738949 0.214104,-0.549574 0.306412,0.189375 0.728386,0.0672 0.93771,-0.271493 0.426755,-0.690509 -0.53518,-0.778991 -2.562268,-0.235686 -0.799582,0.214306 -1.187182,0.64626 -0.94406,1.052099 0.226854,0.378688 -0.03696,0.324214 -0.586204,-0.121052 -0.549262,-0.445265 -1.259985,-0.648067 -1.579375,-0.45067 -0.319397,0.197397 -0.672174,0.117698 -0.783955,-0.177109 -0.111782,-0.294807 -1.089404,-0.727172 -2.172499,-0.960811 -1.805289,-0.389427 -1.969265,-0.300054 -1.969265,1.073337 0,0.823975 -0.426282,1.661716 -0.947295,1.861647 -0.521013,0.199932 -0.777587,0.638106 -0.570172,0.97372 0.207421,0.335614 0.133819,0.610207 -0.16357,0.610207 -1.256519,0 -1.272467,-0.911826 -0.0389,-2.224888 0.726428,-0.773245 1.123099,-1.603579 0.881491,-1.845187 -0.241607,-0.241608 -0.722853,-0.03818 -1.069432,0.452057 -0.519982,0.735528 -0.570511,0.70598 -0.289033,-0.16903 0.246509,-0.766301 0.0103,-1.060373 -0.851728,-1.060373 -0.705312,0 -1.221569,0.433389 -1.263129,1.060373 -0.06641,1.001869 -0.08565,1.00146 -0.348821,-0.0074 -0.153196,-0.587285 -0.535016,-0.909278 -0.848486,-0.715541 -0.313477,0.193738 -0.387043,0.648207 -0.163486,1.009931 0.224339,0.362992 0.128063,0.485618 -0.214868,0.273673 -0.816705,-0.504745 -3.201485,1.586394 -3.201485,2.807268 0,0.524448 -0.233276,1.097716 -0.518395,1.273929 -0.28512,0.176213 -0.389666,-0.353031 -0.232331,-1.176096 0.162061,-0.847765 0.0012,-1.496482 -0.371476,-1.496482 -0.361648,0 -0.574462,0.340834 -0.472909,0.757409 0.101554,0.416576 0.07027,0.552909 -0.06951,0.302964 -0.360357,-0.644355 -1.365015,-0.564718 -1.365015,0.108201 0,0.309457 0.448198,1.010846 0.995999,1.558645 0.999333,0.999337 2.098298,0.938961 5.33952,-0.293348 z m 6.462872,-1.43592 c -0.643525,-0.775403 -0.350038,-1.603879 0.568179,-1.603879 0.679445,0 1.187491,1.738973 0.611956,2.094671 -0.280944,0.173633 -0.812003,-0.04722 -1.180135,-0.490792 z m 0.532017,-2.815734 c -0.546116,-0.352929 -0.620852,-0.591074 -0.187244,-0.596649 0.396907,-0.0051 0.890169,0.263389 1.096136,0.596649 0.464928,0.752274 0.255168,0.752274 -0.908892,0 z M 49.64734,42.828302 c 0.565531,-0.565532 0.727113,-0.565532 0.727113,0 0,0.399912 0.51439,0.727113 1.143083,0.727113 0.783949,0 1.219975,-0.523875 1.38781,-1.667435 0.226145,-1.540819 0.07695,-1.677577 -1.964738,-1.801002 -1.953062,-0.118067 -2.194113,0.0227 -2.077144,1.212989 0.07278,0.740606 0.01454,0.869389 -0.129378,0.286183 -0.331461,-1.343014 -0.553388,-1.329212 -2.435787,0.151482 -1.430601,1.125309 -1.451851,1.211855 -0.297547,1.211855 0.683687,0 1.380601,-0.340834 1.548697,-0.757409 0.182572,-0.452471 0.32488,-0.330496 0.353456,0.302964 0.05574,1.235403 0.716127,1.361566 1.744435,0.33326 z m 0.796601,-0.960828 c -0.450743,-0.842221 -0.349959,-1.082014 0.454767,-1.082014 0.588538,0 1.033846,0.466054 1.033846,1.082014 0,0.595108 -0.204646,1.082013 -0.454767,1.082013 -0.250121,0 -0.715352,-0.486905 -1.033846,-1.082013 z m 3.797276,0.747579 c 0.206918,-0.53923 0.105341,-0.782448 -0.238136,-0.570168 -0.329443,0.203607 -0.598989,0.62677 -0.598989,0.940363 0,0.871585 0.43431,0.679524 0.837125,-0.370195 z m 1.825908,0.231464 c -0.301473,-0.487796 -0.09691,-0.577963 0.655875,-0.289093 0.874674,0.335646 0.956396,0.254007 0.407619,-0.407226 -0.377505,-0.454867 -0.620573,-0.941542 -0.540148,-1.0815 0.08042,-0.139957 -0.194612,0.141746 -0.611187,0.626008 -0.926233,1.076729 -0.974992,1.860709 -0.11572,1.860709 0.352929,0 0.444533,-0.319004 0.203561,-0.708898 z m 4.608098,-0.106082 c 0,-0.114979 -0.613501,-0.728481 -1.363337,-1.363337 l -1.363337,-1.154285 1.154286,1.363337 c 1.084744,1.281201 1.572388,1.639181 1.572388,1.154285 z m 1.817783,0 c 0,-0.114979 -0.613501,-0.728481 -1.363337,-1.363337 l -1.363337,-1.154285 1.154286,1.363337 c 1.084744,1.281201 1.572388,1.639181 1.572388,1.154285 z M 44.315177,40.758071 c 0,-1.239128 -0.24268,-1.522028 -1.110872,-1.294991 -0.646197,0.168984 -1.110865,-0.03111 -1.110865,-0.478375 0,-1.31542 2.50496,0.02587 2.718325,1.455543 0.231652,1.552193 0.578394,1.609072 1.994817,0.327227 1.00667,-0.911023 0.861847,-1.076755 -2.376,-2.718999 -4.083553,-2.07119 -3.806589,-2.008246 -3.326022,-0.755902 0.260161,0.677964 0.154675,0.864757 -0.321978,0.570168 -0.389896,-0.240968 -0.708899,-0.831032 -0.708899,-1.311255 0,-1.087884 -0.657286,-1.109277 -2.081652,-0.06775 -1.509923,1.10408 -0.441879,3.033937 2.554803,4.616314 3.034346,1.60226 3.768343,1.53565 3.768343,-0.341977 z m -6.665204,-3.280949 c 0,-0.322801 0.409001,-0.586911 0.908891,-0.586911 0.49989,0 0.908892,0.107161 0.908892,0.238136 0,0.130975 -0.409002,0.395085 -0.908892,0.586911 -0.49989,0.191826 -0.908891,0.08467 -0.908891,-0.238136 z m 29.084526,3.387379 c 0,-1.015766 -1.110302,-1.854109 -1.689065,-1.275345 -0.218122,0.218122 0.0012,0.642357 0.487117,0.942744 0.681826,0.42139 0.584472,0.523619 -0.426149,0.447491 -1.06254,-0.08004 -1.200079,-0.303786 -0.728449,-1.185032 0.474911,-0.887386 0.343664,-1.086365 -0.716601,-1.086365 -0.934664,0 -1.195049,0.268288 -0.93021,0.958448 0.202289,0.527148 0.367792,1.208816 0.367792,1.51482 0,0.306003 0.818005,0.55637 1.817782,0.55637 1.178766,0 1.817783,-0.306937 1.817783,-0.873131 z M 54.748015,38.597714 c -0.379396,-0.379394 -0.463844,0.01903 -0.238408,1.124734 0.258567,1.268182 0.410934,1.42055 0.587513,0.58751 0.131123,-0.618605 -0.02599,-1.389114 -0.349105,-1.712244 z m 19.523703,0.66994 c 1.528453,-0.718456 2.939161,-1.565431 3.134918,-1.882166 0.507386,-0.820972 -1.683358,-2.356329 -2.946559,-2.065061 -0.583206,0.134475 -1.060374,-0.0027 -1.060374,-0.304702 0,-0.746389 2.259371,-0.699384 2.726675,0.05673 0.596693,0.965467 2.120747,0.701157 2.120747,-0.367791 0,-0.63107 -0.33091,-0.846737 -0.940364,-0.612868 -0.605097,0.232197 -0.788905,0.115788 -0.515547,-0.326507 0.645331,-1.044174 -2.677904,-0.06388 -4.725012,1.393787 -0.940715,0.669845 -1.543486,1.487955 -1.339494,1.818021 0.203992,0.330066 0.0024,0.549577 -0.44732,0.487802 -1.632157,-0.224047 -2.395874,0.04531 -1.990091,0.701885 0.288925,0.467492 0.572245,0.421608 0.935377,-0.151482 0.286501,-0.452155 0.520904,-0.549432 0.520904,-0.216172 0,0.33326 -0.264312,1.014929 -0.587368,1.514819 -0.42681,0.66044 -0.589907,0.692073 -0.596651,0.115722 -0.0048,-0.436243 -0.281944,-0.624652 -0.615204,-0.418686 -0.333261,0.205966 -0.605928,0.08572 -0.605928,-0.267204 0,-0.352928 -0.407196,-0.641687 -0.904886,-0.641687 -0.685535,0 -0.575929,0.378329 0.452149,1.560723 1.556513,1.790148 2.886397,1.718979 7.384028,-0.39516 z m -3.168135,-0.795545 c 0.496964,-0.535465 0.922034,-0.617472 1.168004,-0.225335 0.212681,0.339076 0.731979,0.403105 1.153996,0.142288 0.499569,-0.308751 0.616434,-0.230127 0.334944,0.225336 -0.23779,0.384751 -1.108672,0.699548 -1.93529,0.699548 -1.253701,0 -1.373378,-0.139611 -0.721654,-0.841837 z M 31.22597,38.684536 c 2.348442,0.892876 2.788437,0.795328 2.788437,-0.618205 0,-0.686189 0.272667,-1.079098 0.605927,-0.873132 0.333261,0.205966 0.605928,0.128885 0.605928,-0.171293 0,-0.300177 -1.158837,-0.88489 -2.575192,-1.299361 -1.416356,-0.414472 -3.482297,-1.278789 -4.590975,-1.920705 -1.108684,-0.641916 -2.309645,-0.985502 -2.668814,-0.763524 -0.373161,0.230626 -0.478828,0.121733 -0.246564,-0.254085 0.223557,-0.361724 0.129353,-0.828946 -0.209342,-1.038272 -0.338696,-0.209326 -0.615811,0.163084 -0.615811,0.827577 0,1.625455 1.154359,4.576171 1.611441,4.119089 0.630989,-0.630986 2.629611,0.796598 2.63933,1.88523 0.0069,0.772032 0.1366,0.838376 0.504719,0.258163 0.373415,-0.588564 0.903172,-0.625873 2.150916,-0.151482 z m 29.726338,-0.540577 c 0.19174,-0.310233 0.116938,-0.707239 -0.166212,-0.882237 -0.283156,-0.174998 -0.514826,0.07883 -0.514826,0.564059 0,1.021695 0.191073,1.110963 0.681038,0.318178 z m 20.841899,-1.663305 c -0.842046,-1.014598 -2.720191,-1.041778 -3.100253,-0.04486 -0.193612,0.507847 0.379274,0.772193 1.738667,0.802275 1.616324,0.03577 1.892409,-0.117809 1.361586,-0.75741 z M 56.664928,26.255031 c 0.206918,-0.53923 0.10534,-0.782448 -0.238136,-0.570168 -0.329443,0.203607 -0.59899,0.62677 -0.59899,0.940362 0,0.871586 0.434311,0.679525 0.837126,-0.370194 z m 6.131042,-0.271493 c 0.603195,-0.666521 0.960386,-1.211856 0.793756,-1.211856 -0.166633,0 -0.796489,0.545335 -1.399684,1.211856 -0.603194,0.66652 -0.960383,1.211855 -0.793753,1.211855 0.16663,0 0.796486,-0.545335 1.399681,-1.211855 z m 6.439532,-1.060374 c 0.753695,-0.961035 0.732264,-0.982467 -0.228774,-0.228771 -1.009324,0.791565 -1.330302,1.289145 -0.831599,1.289145 0.12582,0 0.602988,-0.477168 1.060373,-1.060374 z m -5.143444,-8.270863 c -0.05132,-0.824648 -0.506083,-1.372172 -1.181937,-1.423082 -0.737287,-0.05554 -1.024442,0.254477 -0.873299,0.94281 0.123857,0.564057 0.54983,0.957391 0.946616,0.874076 0.396786,-0.08332 0.721426,0.07574 0.721426,0.353457 0,1.01456 -0.821107,1.284559 -1.762034,0.5794 -0.807193,-0.604933 -0.841246,-0.584523 -0.208633,0.125043 0.616041,0.690978 0.448483,1.190391 -0.905038,2.697452 -1.049903,1.169004 -0.739868,0.992519 0.842652,-0.47967 1.603405,-1.491627 2.47369,-2.811111 2.420247,-3.669486 z m 6.883935,2.312575 c 0,-0.527662 -0.323796,-0.851455 -0.719539,-0.719539 -1.123523,0.374508 -1.30987,1.678924 -0.239845,1.678924 0.52766,0 0.959384,-0.431723 0.959384,-0.959385 z M 50.818792,17.567124 c -0.05041,-0.669128 -0.412618,-1.02005 -0.871233,-0.844065 -1.066923,0.409418 -0.998411,1.989347 0.08627,1.989347 0.480828,0 0.832575,-0.513207 0.784961,-1.145282 z m 24.398694,30.835737 c -0.546116,-0.352929 -0.620851,-0.591074 -0.187243,-0.59665 0.396906,-0.0051 0.890168,0.263389 1.096135,0.59665 0.464928,0.752274 0.255168,0.752274 -0.908892,0 z M 51.904505,33.83595 c 0.214347,-0.346817 0.98027,-0.465289 1.702063,-0.263272 1.077503,0.301575 1.1497,0.243517 0.403451,-0.324446 -0.744873,-0.566919 -0.751708,-0.649256 -0.03787,-0.456268 1.763994,0.4769 1.368251,1.674561 -0.553321,1.674561 -1.164678,0 -1.752707,-0.24486 -1.514323,-0.630575 z m -0.395488,-1.39097 c 0.88872,-1.07733 3.418407,-1.368798 3.980896,-0.458674 0.186759,0.302181 -0.178276,0.414002 -0.811186,0.248493 -0.63291,-0.16551 -1.792122,0.04089 -2.576029,0.458674 -1.298145,0.691843 -1.351097,0.669677 -0.593681,-0.248493 z M 46.47028,21.001294 c -1.461098,-2.086007 -1.195489,-5.121372 0.605758,-6.922618 0.987098,-0.987097 1.976518,-1.437211 2.72751,-1.240821 0.648179,0.169502 1.025703,0.06095 0.838943,-0.241234 -0.557889,-0.902685 3.894219,-0.621514 5.805054,0.366616 1.511535,0.781645 1.722149,0.787653 1.435618,0.04096 -0.438794,-1.143471 2.825399,-2.897212 4.019215,-2.159392 0.666739,0.412067 0.526879,0.652513 -0.641756,1.103322 -0.821862,0.317035 -2.155321,1.287027 -2.963247,2.155536 -1.545157,1.661019 -2.469573,2.011916 -2.469573,0.937422 0,-0.352928 0.340834,-0.451737 0.75741,-0.219574 0.416575,0.232163 0.212074,-0.151679 -0.454446,-0.852982 -1.170622,-1.231708 -1.320765,-1.243108 -4.41265,-0.335007 -3.707617,1.088941 -5.250369,2.878717 -4.625942,5.366628 0.22472,0.895355 0.780925,1.770801 1.236019,1.945436 0.455094,0.174636 0.676585,0.561615 0.492201,0.859955 -0.552745,0.894357 -1.351927,0.620865 -2.350114,-0.804242 z m 0.499799,-5.047033 c 0.206924,-0.53923 0.105341,-0.782448 -0.238135,-0.570168 -0.329443,0.203607 -0.598984,0.62677 -0.598984,0.940362 0,0.871586 0.434304,0.679525 0.837119,-0.370194 z m 27.597538,5.537763 c 0.547595,-0.659806 0.509337,-1.337101 -0.166945,-2.955668 -1.078037,-2.580101 -1.629558,-2.938526 -4.770008,-3.099942 -1.868015,-0.09601 -2.592686,-0.430487 -2.934465,-1.354404 -0.315852,-0.853837 -0.20272,-1.226905 0.372075,-1.226905 0.454258,0 0.970436,0.37658 1.147058,0.836844 0.233264,0.607883 0.9128,0.725846 2.483667,0.431149 2.827264,-0.530397 5.124415,1.4162 5.124415,4.342409 0,2.382166 -0.522019,3.882465 -1.350873,3.882465 -0.371567,0 -0.333909,-0.339053 0.09508,-0.855948 z m -0.19091,-5.487383 C 73.778069,15.091008 72.826211,14.48644 72.0224,14.50932 l -1.349371,0.03841 1.340803,0.539659 c 0.737444,0.296812 1.681455,1.08513 2.097812,1.751819 0.416351,0.666688 0.872427,1.096736 1.013499,0.955663 0.141078,-0.141074 -0.195721,-0.946676 -0.748436,-1.790227 z M 54.312983,13.864985 c -0.205967,-0.333261 -0.101814,-0.605928 0.231446,-0.605928 0.33326,0 0.774442,0.272667 0.980409,0.605928 0.205967,0.33326 0.101814,0.605927 -0.231446,0.605927 -0.33326,0 -0.774442,-0.272667 -0.980409,-0.605927 z"
     style="fill:#000000;stroke-width:0.60592765" />
</svg>
