<?xml version="1.0" encoding="UTF-8" standalone="no"?>
<svg
   xmlns:dc="http://purl.org/dc/elements/1.1/"
   xmlns:cc="http://creativecommons.org/ns#"
   xmlns:rdf="http://www.w3.org/1999/02/22-rdf-syntax-ns#"
   xmlns:svg="http://www.w3.org/2000/svg"
   xmlns="http://www.w3.org/2000/svg"
   id="svgKP3"
   version="1.1"
   viewBox="0 0 100 100"
   height="100"
   width="100">
  <defs
     id="defs2" />
  <metadata
     id="metadata5">
    <rdf:RDF>
      <cc:Work
         rdf:about="">
        <dc:format>image/svg+xml</dc:format>
        <dc:type
           rdf:resource="http://purl.org/dc/dcmitype/StillImage" />
        <dc:title></dc:title>
      </cc:Work>
    </rdf:RDF>
  </metadata>
  <path
     id="pathKP3"
     d="m 18.782063,86.49207 c -0.580898,-0.82934 -1.056178,-2.00503 -1.056178,-2.61263 0,-2.1478 1.51694,-5.41594 2.843356,-6.12582 1.787081,-0.95641 2.391224,-0.23579 1.050013,1.25246 -1.434065,1.59129 -2.0274,4.34502 -1.206939,5.60155 0.577062,0.88376 0.868159,0.89174 2.211782,0.0606 1.417693,-0.87693 1.469286,-0.86273 0.616097,0.16962 -1.543028,1.86706 -3.365517,1.38501 -4.076779,-1.07832 -0.511085,-1.77006 -0.648749,-1.8951 -0.697869,-0.63387 -0.07861,2.01845 1.086857,4.19587 2.245831,4.19587 1.659985,0 4.547113,-2.78325 4.158204,-4.0086 -0.202203,-0.63708 0.473913,-2.8058 1.50248,-4.81937 2.220482,-4.34692 6.184598,-7.31402 12.643187,-9.46329 4.178757,-1.39061 4.364257,-1.54784 4.672575,-3.96051 0.176586,-1.38183 0.06445,-2.79368 -0.249209,-3.13745 -1.379386,-1.51184 -9.137023,-0.20144 -15.816583,2.67169 -0.880378,0.37869 -1.151247,0.32013 -0.84103,-0.18181 0.251677,-0.40723 2.926945,-1.56278 5.945039,-2.56789 5.141703,-1.71235 7.675351,-1.88406 10.781737,-0.73072 0.559739,0.20782 1.594644,-0.06 2.299793,-0.59522 1.215263,-0.92236 1.222435,-1.06411 0.137627,-2.71973 C 44.430688,55.497188 37.284028,50.276381 34.512307,49.456619 33.302694,49.098866 29.25989,48.262507 25.5283,47.598046 16.259698,45.947642 10.983594,43.437743 8.3155724,39.409764 4.2798394,33.31692 3.9112094,28.296398 7.3036434,25.627909 10.191422,23.356382 13.419198,23.133576 18.264536,24.871304 c 2.357915,0.845642 4.37614,1.427523 4.484943,1.293069 0.108803,-0.134452 0.906333,-1.689362 1.772289,-3.455355 2.818959,-5.74886 6.032479,-8.298532 13.019074,-10.329589 5.573992,-1.620404 8.329025,-0.72386 12.640463,4.113473 5.397481,6.055836 5.655524,6.157553 9.546812,3.763221 1.814673,-1.11658 4.41306,-2.207134 5.774195,-2.423454 2.882056,-0.458031 6.995476,1.01228 8.567581,3.062417 1.04781,1.366424 1.05011,1.36632 2.956003,-0.132853 2.799812,-2.202331 6.649849,-2.06679 11.600197,0.408385 6.797817,3.398908 7.404262,6.759619 2.166677,12.006915 -3.990583,3.997987 -9.012252,6.391517 -17.432273,8.308928 -3.918169,0.892247 -8.215692,2.087358 -9.550041,2.655803 -4.605073,1.961793 -11.482557,9.299421 -11.482557,12.250809 0,0.178632 1.649736,-0.543024 3.666077,-1.603681 2.016341,-1.060656 4.897088,-2.136445 6.401665,-2.390642 1.902297,-0.32139 3.094974,-1.010658 3.915381,-2.262753 1.761813,-2.688873 3.341795,-3.815474 10.71176,-7.637988 5.715235,-2.964272 7.316684,-3.496842 10.752617,-3.575828 3.634365,-0.08355 4.199823,0.09622 5.666698,1.801564 1.974248,2.2952 2.071019,4.817804 0.296478,7.728174 -2.165001,3.550746 -5.776339,5.396318 -14.271839,7.293624 -5.058564,1.129733 -8.111025,2.156677 -8.67997,2.920217 -1.348264,1.80941 -1.774819,4.30877 -0.958456,5.61598 0.972765,1.55764 -0.466218,3.61072 -2.279662,3.25254 -1.016119,-0.2007 -1.312095,-0.82963 -1.312095,-2.78811 0,-1.39092 -0.09149,-2.52875 -0.20331,-2.52851 -0.111819,2.5e-4 -1.089869,0.45891 -2.173441,1.01924 -1.328331,0.68691 -2.197038,1.84061 -2.66669,3.54155 -0.805148,2.916 -0.02843,4.29672 1.638725,2.91309 0.584577,-0.48514 1.215324,-0.72962 1.401666,-0.54328 0.69622,0.69622 -0.506912,2.41228 -2.247129,3.20518 -1.508926,0.68751 -1.930216,0.64368 -2.598578,-0.27036 -0.896056,-1.22543 0.05265,-6.36519 1.363137,-7.38471 0.439221,-0.34171 0.234859,-0.41015 -0.506486,-0.16961 -0.683552,0.22178 -1.752144,0.40366 -2.374648,0.40417 -0.798866,6.7e-4 -1.486659,1.20836 -2.33795,4.10521 -1.351609,4.59935 -1.161013,5.39244 1.2959,5.39244 2.525154,0 1.869323,2.3046 -0.740598,2.60247 -3.570711,0.40753 -5.013996,-4.31427 -2.691515,-8.80544 1.490418,-2.88215 0.702184,-3.20275 -1.659221,-0.67485 -2.484052,2.65918 -4.726744,3.01214 -6.887192,1.08391 -0.74275,-0.66291 -1.314938,-0.72307 -2.035413,-0.214 -0.830204,0.58662 -0.798438,0.6426 0.185114,0.32621 0.653028,-0.21007 1.187324,-0.13454 1.187324,0.16784 0,0.30238 -1.236188,0.92015 -2.747088,1.37283 -2.894981,0.86736 -8.9354,4.18349 -11.065279,6.07473 -0.693361,0.61568 -2.023746,2.64598 -2.956412,4.51178 C 25.372748,84.96652 22.652771,88 21.029776,88 20.374432,88 19.362961,87.32144 18.782063,86.49209 Z m 14.487239,-13.0326 c 2.086152,-1.26215 4.861593,-2.77808 6.16765,-3.36875 1.42949,-0.64649 1.699535,-0.90673 0.678471,-0.65383 -2.821652,0.69887 -8.362196,3.67116 -10.389028,5.57332 -1.049478,0.98493 -2.49971,3.12811 -3.222736,4.76264 -1.943284,4.39311 -1.566656,4.34833 0.847102,-0.10075 1.66571,-3.07025 2.946096,-4.41426 5.918541,-6.21263 z m -12.807166,6.05962 c 0.920691,-1.25517 0.906293,-1.2871 -0.191985,-0.42578 -0.653029,0.51215 -1.187324,1.24998 -1.187324,1.63964 0,0.38966 0.08639,0.58126 0.191985,0.42578 0.105592,-0.15548 0.639888,-0.89332 1.187324,-1.63964 z M 57.416431,75.7875 c 0.237512,-0.38429 -0.327878,-0.67847 -1.303973,-0.67847 -2.291387,0 -2.803666,-2.16003 -1.433046,-6.04245 1.344702,-3.80901 0.89147,-4.41025 -0.570404,-0.75667 -1.904414,4.75959 -1.1936,8.15606 1.706903,8.15606 0.649664,0 1.369894,-0.30531 1.60052,-0.67847 z m 5.373551,-4.66157 c 0.145132,-0.23482 -0.470248,-0.42696 -1.367512,-0.42696 -0.897265,0 -1.631391,0.35306 -1.631391,0.78457 0,0.77954 2.478801,0.48394 2.998903,-0.35761 z M 50.792329,67.47624 c 2.718695,-2.93336 1.855252,-7.32111 -1.431003,-7.27199 -3.430207,0.0513 -5.966168,4.43701 -4.159753,7.19395 1.332625,2.03385 3.746842,2.06754 5.590756,0.078 z m -4.233387,-0.2685 c -2.143893,-2.14389 0.314811,-6.64332 3.38939,-6.20258 1.628099,0.23339 2.245535,3.47101 0.957838,5.02259 -1.620019,1.952 -3.157807,2.36941 -4.347228,1.17999 z m 3.381954,-1.34263 c 1.159724,-1.15972 1.167492,-3.73122 0.01235,-4.0917 -1.23481,-0.38535 -2.348262,0.82162 -2.788475,3.02267 -0.339473,1.69736 -0.204186,2.1713 0.619797,2.1713 0.579726,0 1.550075,-0.49602 2.156323,-1.10227 z m -1.975545,-0.85626 c -0.443197,-0.71711 1.50147,-2.48565 2.088117,-1.899 0.565302,0.5653 -0.252425,2.50059 -1.056583,2.50059 -0.362853,0 -0.827042,-0.27071 -1.031534,-0.60159 z m 21.003452,1.25034 c 0.240728,-0.3895 0.13351,-1.07645 -0.238259,-1.52656 -0.455206,-0.55112 -0.373484,-1.69613 0.250261,-3.50628 0.50941,-1.47835 0.828657,-2.78545 0.709443,-2.90467 -0.38415,-0.38415 -2.207432,2.82219 -2.667293,4.69058 -0.701627,2.85067 0.722294,5.22669 1.945848,3.24693 z m -9.899542,-2.42387 c 7.515673,-1.85073 11.316902,-5.98913 8.435029,-9.183231 -1.06735,-1.182988 -1.816036,-1.348799 -4.736548,-1.049004 -3.556335,0.365064 -9.5143,2.950696 -11.042691,4.792305 -0.471273,0.56784 1.322645,-0.0413 3.986478,-1.353598 4.419437,-2.17721 10.529109,-3.895557 9.361569,-2.632943 -0.266741,0.288461 -0.149766,1.150826 0.259935,1.916366 0.615821,1.150668 0.481077,1.605545 -0.7775,2.624675 -0.837335,0.67803 -1.230611,1.23279 -0.873945,1.23279 0.356665,0 1.216539,-0.62771 1.910838,-1.3949 1.072066,-1.184618 1.131242,-1.604857 0.392543,-2.787707 -0.714606,-1.144264 -0.709232,-1.340033 0.03012,-1.097048 0.494972,0.162671 0.993763,1.082947 1.108432,2.045059 0.157256,1.319376 -0.342981,2.165276 -2.035413,3.441896 -2.181949,1.64587 -9.860421,4.05849 -10.89051,3.42186 -0.282027,-0.17429 -0.512761,0.006 -0.512761,0.40162 0,0.92723 0.116724,0.91903 5.38442,-0.37814 z M 56.73796,62.21809 c 1.107699,-0.476 1.146012,-0.59186 0.208576,-0.63079 -0.778539,-0.0323 -1.063083,-0.49052 -0.883553,-1.42275 0.145648,-0.75628 0.0014,-1.21235 -0.320245,-1.01348 -0.321778,0.19888 -0.739682,-0.0219 -0.928677,-0.49073 -0.188988,-0.46877 -0.372399,-0.089 -0.407571,0.84386 -0.04973,1.31933 -0.204193,1.47444 -0.695148,0.69812 -0.347153,-0.54893 -0.852566,-0.77668 -1.123134,-0.50611 -0.270574,0.27057 0.09447,1.08319 0.8112,1.80583 1.486123,1.49836 1.5074,1.50292 3.338552,0.71605 z m 4.671944,-0.95683 c 1.008561,-0.0592 1.368483,-0.4621 1.212577,-1.35726 -0.121948,-0.70016 0.147377,-1.50113 0.598493,-1.77994 0.560634,-0.346488 0.359277,-0.65322 -0.636216,-0.969178 -0.801043,-0.254241 -1.281333,-0.745586 -1.067309,-1.091879 0.557459,-0.901988 -0.509776,-0.737637 -1.856378,0.285878 -1.190717,0.90503 -1.467546,6.086829 -0.28658,5.364359 0.330613,-0.20226 1.246548,-0.40565 2.035413,-0.45198 z m -1.618825,-2.43553 c -0.4012,-0.74965 -0.447302,-1.356938 -0.102998,-1.356938 0.342763,0 0.782894,0.610628 0.978056,1.356938 0.195169,0.74632 0.241522,1.35695 0.103006,1.35695 -0.138517,0 -0.578641,-0.61063 -0.978064,-1.35695 z m -9.498593,-0.69438 c 0,-0.381917 -2.515953,-3.315066 -5.591007,-6.518113 -3.828313,-3.987664 -6.876432,-6.47253 -9.668207,-7.881649 C 27.124078,39.739507 24.729737,37.1067 23.519611,31.071213 L 22.784009,27.402408 18.40791,25.765856 c -4.683962,-1.751685 -7.914115,-1.676305 -9.8195726,0.229152 -0.571733,0.571734 -1.050335,0.788725 -1.063558,0.482202 -0.01322,-0.306524 -0.425089,0.166044 -0.915259,1.050149 -1.231927,2.221995 -0.691392,5.847582 1.461557,9.803259 2.2800226,4.189153 4.8161896,6.125979 9.9940426,7.632274 4.810852,1.399529 12.776357,2.980202 13.161587,2.611781 0.521448,-0.498696 -5.71665,-2.967175 -7.535633,-2.981928 -1.189984,-0.0097 -2.803376,-0.933975 -4.579679,-2.623732 -3.563812,-3.390172 -3.629331,-5.683803 -0.213735,-7.482212 1.267626,-0.667441 1.732082,-0.574518 2.883501,0.576902 1.305396,1.305396 1.819196,2.729432 0.984793,2.729432 -0.213233,0 -0.848471,-0.460774 -1.411639,-1.023942 -1.211055,-1.211054 -2.271488,-0.750767 -2.271488,0.985953 0,1.643872 2.034019,2.867493 7.969112,4.794042 2.703796,0.877661 5.58002,2.302571 6.39161,3.166468 2.02052,2.150745 1.123995,2.751221 -0.974514,0.652712 -0.926239,-0.926239 -3.69807,-2.306131 -6.159624,-3.066428 -6.616459,-2.043616 -8.086839,-3.187925 -7.754478,-6.034843 0.240045,-2.056155 0.168324,-2.184932 -0.617979,-1.1096 -1.198889,1.639579 -1.149677,1.900842 0.792899,4.209463 1.708396,2.030313 3.182047,2.76813 8.294431,4.1528 1.569108,0.424987 3.706292,1.486073 4.749296,2.35797 1.043004,0.871896 2.659651,1.818338 3.592549,2.103204 2.170385,0.66274 7.134601,4.293098 10.140539,7.415829 2.219421,2.305657 4.785818,3.235827 4.785818,1.734587 z m -3.392354,-2.059541 c 0,-0.395182 0.305312,-0.529819 0.678471,-0.299194 0.373159,0.230625 0.678471,0.553955 0.678471,0.718512 0,0.164557 -0.305312,0.299194 -0.678471,0.299194 -0.373159,0 -0.678471,-0.323331 -0.678471,-0.718512 z m -4.87651,-4.494257 c 0.489775,-0.195991 1.074956,-0.171887 1.300405,0.05357 0.225449,0.22545 -0.17527,0.385806 -0.890493,0.356346 -0.790378,-0.03255 -0.951149,-0.193324 -0.409912,-0.409909 z m -7.335964,-6.361278 c 0,-0.395181 0.305312,-0.529819 0.678471,-0.299194 0.373159,0.230625 0.678471,0.553955 0.678471,0.718512 0,0.164557 -0.305312,0.299194 -0.678471,0.299194 -0.373159,0 -0.678471,-0.32333 -0.678471,-0.718512 z M 17.047414,43.220903 c 0,-0.373159 0.323331,-0.678471 0.718512,-0.678471 0.395182,0 0.529819,0.305312 0.299194,0.678471 -0.230625,0.373159 -0.553955,0.678471 -0.718512,0.678471 -0.164557,0 -0.299194,-0.305312 -0.299194,-0.678471 z m -3.691987,-2.911669 c 0.225853,-0.588565 -0.276218,-0.867009 -1.52922,-0.848089 -1.26152,0.01905 -1.9439636,-0.363709 -2.1079186,-1.182253 -0.197503,-0.98604 0.103282,-1.147728 1.6225856,-0.872226 1.893318,0.343324 2.963453,1.394968 2.982267,2.930735 0.0057,0.466449 -0.285341,0.848089 -0.646788,0.848089 -0.361448,0 -0.505864,-0.394315 -0.320926,-0.876256 z m -0.562591,-1.569067 c -0.22545,-0.225449 -0.810632,-0.249553 -1.300403,-0.05357 -0.541238,0.216586 -0.38047,0.377354 0.40991,0.40991 0.715221,0.02946 1.115943,-0.130896 0.890493,-0.356347 z m 10.021581,0.40991 c -0.230625,-0.373159 -0.09599,-0.678471 0.299194,-0.678471 0.395181,0 0.718512,0.305312 0.718512,0.678471 0,0.373159 -0.134637,0.678471 -0.299194,0.678471 -0.164557,0 -0.487887,-0.305312 -0.718512,-0.678471 z M 8.2272924,35.03921 c 0,-0.395181 0.305312,-0.529819 0.678471,-0.299194 0.373159,0.230625 0.678471,0.553955 0.678471,0.718512 0,0.164558 -0.305312,0.299195 -0.678471,0.299195 -0.373159,0 -0.678471,-0.323331 -0.678471,-0.718513 z M 11.737913,34.187435 C 9.7167174,32.035969 9.8607914,30.45417 12.1285,29.899181 c 1.026187,-0.251145 2.063947,-0.759391 2.306133,-1.129433 0.242187,-0.370043 0.958863,0.32991 1.592615,1.555451 2.211696,4.276949 -1.099102,7.258083 -4.289335,3.862236 z m 3.840384,-1.913433 c -0.14995,-1.059808 -0.746519,-1.678575 -1.756653,-1.822015 -2.279252,-0.323656 -2.812771,1.813393 -0.849586,3.403083 1.832508,1.483876 2.944449,0.80932 2.606239,-1.581068 z m 2.861866,-0.859435 c -0.479578,-0.896099 -0.70793,-2.041019 -0.507447,-2.544266 0.253733,-0.636917 0.380791,-0.561407 0.418076,0.248459 0.02946,0.639899 0.740516,1.49635 1.580123,1.903223 1.465922,0.710387 1.474246,0.697859 0.20956,-0.315364 -0.72435,-0.580324 -0.990718,-1.055135 -0.591928,-1.055135 1.08391,0 2.428691,1.872889 1.927296,2.684164 -0.743884,1.203628 -2.122425,0.785353 -3.03568,-0.921081 z M 7.5488214,28.294543 c 0,-0.373159 0.287293,-0.678471 0.63843,-0.678471 0.351136,0 0.827122,0.305312 1.057747,0.678471 0.230625,0.373159 -0.05667,0.67847 -0.638429,0.67847 -0.581761,0 -1.057748,-0.305311 -1.057748,-0.67847 z M 51.906148,55.263762 c 0.265723,-1.107631 0.16666,-1.865795 -0.243788,-1.865795 -0.38027,0 -0.691403,0.448385 -0.691403,0.996412 0,0.606955 -0.397774,0.84377 -1.017706,0.605882 -0.559739,-0.214792 -1.017707,-0.822995 -1.017707,-1.351564 0,-0.528569 -2.439035,-3.501594 -5.420087,-6.606723 -2.981045,-3.105128 -5.263502,-5.802266 -5.072133,-5.993639 0.19137,-0.191373 -0.193724,-0.773098 -0.855769,-1.292722 -1.09455,-0.859084 -1.119267,-0.837086 -0.272555,0.242553 0.658775,0.840007 0.696681,1.187324 0.129574,1.187324 -0.44087,0 -0.61289,0.305312 -0.382271,0.678471 0.230626,0.373159 0.0633,0.678471 -0.371781,0.678471 -0.435105,0 -0.638748,-0.397023 -0.452541,-0.882273 0.186207,-0.48525 -0.07562,-1.630169 -0.581839,-2.544266 -1.259358,-2.274058 -1.230187,-6.014216 0.05074,-6.505754 1.413224,-0.542306 4.09754,0.219623 5.414913,1.536993 1.271733,1.271737 1.125882,3.735173 -0.247974,4.18815 -0.69453,0.228995 -0.862099,-0.206465 -0.646006,-1.678787 0.259712,-1.76955 0.0832,-2.003877 -1.606483,-2.132626 -1.579433,-0.120349 -1.898267,0.122193 -1.898267,1.444045 0,0.873778 0.753869,2.296911 1.675267,3.162519 0.921397,0.865607 1.551371,1.774299 1.399943,2.019315 -0.151428,0.245016 1.995166,2.80606 4.770207,5.691209 2.775041,2.885149 5.04553,5.744305 5.04553,6.353681 0,0.609376 0.193758,0.914205 0.430565,0.677397 0.993512,-0.993515 -1.54935,-4.76576 -5.624178,-8.343258 -2.400369,-2.107406 -4.216168,-3.979785 -4.035104,-4.160843 0.181057,-0.181059 2.057741,1.154054 4.170411,2.966916 2.112671,1.812863 4.137757,3.212221 4.500196,3.109686 0.362433,-0.102536 0.510414,0.05395 0.328835,0.347749 -0.181579,0.293798 0.05251,1.249141 0.520163,2.122985 0.800345,1.495449 0.896877,1.356916 1.642849,-2.35757 0.435905,-2.170508 1.714293,-5.717448 2.840867,-7.882089 1.637517,-3.146396 1.903627,-4.206061 1.326865,-5.283741 -0.81179,-1.51685 -1.716083,-1.727414 -2.433485,-0.566633 -0.265615,0.429768 0.01106,1.14261 0.614817,1.584092 0.835591,0.611001 0.908954,0.99149 0.307198,1.593251 -1.612061,1.61206 -3.152645,0.891437 -3.63923,-1.702289 -0.391661,-2.087731 -0.221711,-2.692001 1.045788,-3.718356 0.832389,-0.674032 2.108729,-1.134665 2.836301,-1.023629 1.360619,0.207645 5.775571,4.520946 4.62749,4.520946 -0.35212,0 -0.640225,0.498709 -0.640225,1.108243 0,0.609533 -1.06292,3.193928 -2.362049,5.743099 -1.299123,2.549169 -2.433235,5.569072 -2.520235,6.710892 -0.104498,1.371386 -0.454202,1.962446 -1.030306,1.741375 -0.528501,-0.202804 -0.87212,0.191587 -0.87212,1.000987 0,0.734606 0.146374,1.335648 0.325266,1.335648 0.846983,0 6.170578,-6.490744 7.188664,-8.764706 0.631439,-1.410369 2.084249,-3.230925 3.22847,-4.04568 3.224413,-2.295986 9.505167,-4.975797 10.386019,-4.431405 0.457086,0.282499 0.6112,0.196633 0.364244,-0.202949 -0.235436,-0.380943 0.175357,-1.238716 0.912876,-1.906161 1.572702,-1.423276 1.731898,-3.226494 0.383641,-4.345452 -1.22002,-1.012526 -2.01419,0.104794 -1.415419,1.991355 0.487352,1.535521 -0.907896,1.869692 -2.240881,0.536705 -1.317556,-1.317559 -0.941555,-3.057968 0.988675,-4.57629 1.58813,-1.249219 1.971955,-1.306518 3.222736,-0.481102 2.085077,1.37598 2.378326,8.585441 0.349223,8.585441 -0.388072,0 -0.487739,-0.352486 -0.22148,-0.7833 0.302347,-0.489205 0.185853,-0.598971 -0.310258,-0.292355 -0.436901,0.270021 -0.63551,0.747982 -0.441352,1.062137 0.194158,0.314154 -1.936132,1.805939 -4.733976,3.315076 -2.797838,1.509138 -5.757091,3.368189 -6.57612,4.131225 -1.779216,1.657597 -1.800248,1.656329 2.546755,0.153533 2.359067,-0.815548 3.355999,-1.501807 3.171088,-2.182882 -0.199579,-0.73511 -0.114797,-0.774871 0.326121,-0.152936 1.538677,2.170402 15.72703,-2.762755 20.69438,-7.195242 2.373088,-2.117563 3.565779,-4.184969 1.776285,-3.079 -0.489205,0.302345 -0.598968,0.185855 -0.292353,-0.310261 0.270017,-0.436903 0.76621,-0.624245 1.102644,-0.416317 0.931289,0.575567 1.537992,-2.770279 0.764433,-4.215687 -0.789815,-1.475783 -5.98469,-4.218872 -9.48461,-5.008233 -2.849686,-0.642708 -6.911644,0.760662 -6.911644,2.387909 0,1.665256 -1.650727,1.227488 -3.182171,-0.843903 -1.573374,-2.128097 -5.461731,-3.594652 -8.220265,-3.1004 -2.33046,0.417553 -7.359795,3.340331 -8.136719,4.728621 -0.480588,0.858771 -1.494332,0.09321 -5.284501,-3.990775 -2.579404,-2.779365 -5.422774,-5.436004 -6.318593,-5.903641 -3.441809,-1.796699 -10.760209,-0.297338 -15.487497,3.17301 -4.668338,3.427071 -7.252706,11.477073 -5.02245,15.644343 0.395526,0.739047 0.540418,1.522441 0.321982,1.740877 -0.975241,0.97524 4.13181,5.874201 8.536788,8.188951 4.177664,2.195299 11.66955,8.123088 13.124008,10.384076 0.942356,1.464919 4.052751,5.01653 4.21574,4.813752 0.08765,-0.10905 0.360791,-1.037881 0.606974,-2.064068 z m 4.492577,-10.685917 c 0,-0.373159 0.323332,-0.678471 0.718514,-0.678471 0.395182,0 0.529818,0.305312 0.299192,0.678471 -0.230626,0.373159 -0.553951,0.67847 -0.718507,0.67847 -0.164557,0 -0.299199,-0.305311 -0.299199,-0.67847 z M 46.221661,44.118143 c 0,-0.344219 0.366374,-0.992226 0.814165,-1.440017 0.633244,-0.633239 0.563158,-0.814165 -0.31536,-0.814165 -1.276272,0 -2.812398,-2.393355 -2.186312,-3.406377 0.712632,-1.153064 1.574935,-0.719737 1.225651,0.615922 -0.184157,0.704204 0.04424,1.514656 0.507578,1.801007 0.573396,0.354377 0.670445,0.242391 0.303907,-0.350683 -0.358707,-0.5804 -0.223814,-0.767556 0.404023,-0.56054 1.349248,0.444887 1.534287,2.881888 0.296797,3.908911 -0.577745,0.479487 -1.050449,0.59016 -1.050449,0.245942 z m 12.890947,-4.329636 c 0,-0.395182 0.305312,-0.529819 0.678471,-0.299194 0.373159,0.230625 0.678471,0.553955 0.678471,0.718512 0,0.164557 -0.305312,0.299194 -0.678471,0.299194 -0.373159,0 -0.678471,-0.323331 -0.678471,-0.718512 z M 32.31301,38.471606 c -0.230626,-0.373159 -0.09599,-0.678471 0.299194,-0.678471 0.395181,0 0.718512,0.305312 0.718512,0.678471 0,0.373159 -0.134637,0.678471 -0.299194,0.678471 -0.164557,0 -0.487887,-0.305312 -0.718512,-0.678471 z m 40.369017,0 c 0,-0.373159 0.475988,-0.678471 1.057749,-0.678471 0.581762,0 0.869054,0.305312 0.638428,0.678471 -0.230626,0.373159 -0.706614,0.678471 -1.05775,0.678471 -0.351136,0 -0.638427,-0.305312 -0.638427,-0.678471 z M 48.596309,37.793135 c -0.230619,-0.373159 -0.09598,-0.678471 0.299199,-0.678471 0.395182,0 0.718507,0.305312 0.718507,0.678471 0,0.373159 -0.134635,0.678471 -0.299192,0.678471 -0.164556,0 -0.487888,-0.305312 -0.718514,-0.678471 z m 12.551712,-0.678471 c -0.820637,-0.530337 -0.717869,-0.659704 0.530721,-0.668081 0.965606,-0.0064 1.779371,-0.584976 2.162022,-1.536949 0.337478,-0.839608 0.632952,-1.124848 0.656604,-0.633868 0.05441,1.129742 -1.204592,3.520735 -1.846656,3.50698 -0.266741,-0.0057 -0.942952,-0.306351 -1.502691,-0.668082 z M 78.56211,36.66235 c -0.885174,-0.885174 -0.435524,-1.735311 0.504986,-0.954757 0.733034,0.608363 1.075492,0.603267 1.461772,-0.02175 0.33414,-0.54065 0.217145,-0.638668 -0.346522,-0.290304 -0.667812,0.412731 -0.685242,0.216234 -0.08095,-0.912878 0.779217,-1.455988 3.037772,-1.953857 3.736299,-0.82362 0.209118,0.338359 -0.19637,0.464417 -0.901091,0.280128 -0.704721,-0.184287 -1.486442,-0.0032 -1.737157,0.402509 -0.250715,0.405666 -0.09513,0.737576 0.345742,0.737576 0.597339,0 0.586375,0.259311 -0.04302,1.017706 -0.891145,1.073762 -2.183197,1.322234 -2.940039,0.56539 z M 29.25989,35.03921 c 0,-0.395181 0.305312,-0.529819 0.678471,-0.299194 0.373159,0.230625 0.678471,0.553955 0.678471,0.718512 0,0.164558 -0.305312,0.299195 -0.678471,0.299195 -0.373159,0 -0.678471,-0.323331 -0.678471,-0.718513 z m 32.612521,0.26515 c -0.101764,-1.756594 0.864318,-2.938992 2.401319,-2.938992 0.892969,0 1.623588,0.276729 1.623588,0.614953 0,0.338224 -0.554616,0.469917 -1.232477,0.292653 -0.815766,-0.213329 -1.488429,0.209589 -1.989493,1.250842 -0.416358,0.865228 -0.777677,1.216473 -0.802937,0.780544 z M 30.402658,32.308154 c 0.989348,-0.989348 0.34436,-3.190896 -1.042778,-3.559333 -0.764368,-0.203024 -0.639204,-0.321751 0.395937,-0.375575 1.073124,-0.0558 1.634712,0.403709 1.929669,1.578913 0.458556,1.827035 -0.05046,3.09168 -1.244389,3.09168 -0.556218,0 -0.567038,-0.207086 -0.03844,-0.735685 z M 28.206243,30.29024 c -1.350684,-1.492488 -0.834471,-3.320328 1.102119,-3.902458 0.700667,-0.210617 0.642854,0.05086 -0.208645,0.943649 -1.120231,1.174552 -1.106142,1.311358 0.287885,2.795231 0.80617,0.85813 1.154552,1.560235 0.774181,1.560235 -0.380371,0 -1.260364,-0.628495 -1.95554,-1.396657 z m 13.401816,0.582492 c -0.447791,-0.447791 -0.814166,-1.119477 -0.814166,-1.492636 0,-0.376929 0.361856,-0.31662 0.814166,0.135694 1.248515,1.248514 2.578189,0.968583 2.578189,-0.542777 0,-0.746318 0.305312,-1.356941 0.678471,-1.356941 1.105663,0 0.774054,1.738608 -0.562276,2.947964 -1.481231,1.3405 -1.643935,1.359141 -2.694384,0.308696 z m -4.20652,-0.582818 c 0,-0.395182 0.305312,-0.529819 0.678471,-0.299194 0.373159,0.230625 0.678471,0.553955 0.678471,0.718512 0,0.164557 -0.305312,0.299194 -0.678471,0.299194 -0.373159,0 -0.678471,-0.323331 -0.678471,-0.718512 z M 57.665966,29.38631 c -0.530069,-1.163375 -0.531792,-1.97884 -0.0061,-2.883501 0.678389,-1.167417 0.734533,-1.14468 0.753625,0.305215 0.01133,0.861631 0.312612,1.386149 0.669474,1.165596 0.735198,-0.454378 0.151048,-2.491204 -0.918941,-3.204159 -0.389544,-0.25958 -0.524492,-0.655758 -0.29985,-0.880397 0.659562,-0.659567 2.605383,1.669314 2.605383,3.118292 0,0.731376 -0.465757,1.508503 -1.035021,1.72695 -0.798147,0.306276 -0.856774,0.611957 -0.256164,1.335648 0.58322,0.70273 0.583913,0.938472 0.0027,0.938472 -0.426853,0 -1.108682,-0.729952 -1.515175,-1.622116 z m 4.972133,-0.212626 c -0.905785,-1.01691 -1.120969,-1.561149 -0.527158,-1.333283 0.629431,0.241535 0.880445,0.06466 0.673518,-0.474597 -0.18143,-0.472798 0.303317,-1.664605 1.077215,-2.648459 1.633677,-2.076881 3.183379,-1.810698 4.142316,0.711498 0.499809,1.314608 0.37476,1.998002 -0.553239,3.023429 -2.188075,2.417796 -3.170474,2.565056 -4.812652,0.721412 z m 4.503982,-2.144717 c 0.124886,-0.882646 -0.09116,-1.923033 -0.480093,-2.31197 -1.034593,-1.034592 -2.800083,0.661554 -2.800083,2.690103 0,1.333707 0.300278,1.617644 1.526559,1.443484 1.007075,-0.143027 1.603831,-0.762922 1.753617,-1.821617 z m 14.005444,3.27609 c -0.239086,-0.386854 -0.23431,-1.889496 0.01058,-3.339205 0.429208,-2.540447 1.800886,-3.858246 3.148845,-3.025162 0.355831,0.219915 1.167886,0.0066 1.804563,-0.473931 0.963965,-0.727611 1.021886,-0.720831 0.346271,0.04053 -0.460654,0.519116 -0.642349,1.759275 -0.420367,2.869193 0.620007,3.100036 -3.403963,6.332901 -4.889923,3.928571 z m 4.075772,-1.977611 c 0.586531,-1.847998 -0.318624,-3.430981 -1.927943,-3.371695 -0.79968,0.02946 -1.072744,0.207422 -0.606797,0.39547 0.655057,0.26437 0.62097,0.664856 -0.150295,1.765993 -0.70774,1.010435 -0.791599,1.672148 -0.288717,2.278086 0.892013,1.074805 2.473997,0.506723 2.973752,-1.067854 z M 25.5283,29.651484 c 0.230626,-0.373159 0.553956,-0.678471 0.718513,-0.678471 0.164557,0 0.299194,0.305312 0.299194,0.678471 0,0.373159 -0.323331,0.678471 -0.718513,0.678471 -0.395181,0 -0.529819,-0.305312 -0.299194,-0.678471 z m 7.802416,0.04004 c 0,-0.351137 0.305312,-0.827123 0.678471,-1.057748 0.373159,-0.230625 0.678471,0.05667 0.678471,0.63843 0,0.581759 -0.305312,1.057745 -0.678471,1.057745 -0.373159,0 -0.678471,-0.287293 -0.678471,-0.638429 z m 9.352848,-1.08609 c -0.777982,-0.784923 0.758822,-3.024779 2.075354,-3.024779 0.661869,0 1.796042,0.444024 2.520391,0.986721 1.214056,0.909594 1.123195,0.95651 -1.162445,0.600217 -1.985341,-0.309481 -2.526164,-0.15597 -2.713883,0.770323 -0.128944,0.636254 -0.452676,0.936637 -0.719417,0.667518 z M 49.67233,27.44645 c -0.581816,-1.540796 0.01533,-3.447317 1.335224,-4.26306 0.481029,-0.297293 0.453252,-0.7441 -0.08672,-1.394728 -0.543259,-0.654585 -0.561225,-0.957304 -0.05679,-0.957304 2.051459,0 2.758412,5.372011 0.785411,5.968287 -0.821323,0.24822 -0.854052,0.134101 -0.169618,-0.591405 0.46645,-0.494435 0.848089,-1.333263 0.848089,-1.864061 0,-0.804239 -0.17936,-0.816226 -1.076191,-0.07193 -0.723297,0.600287 -0.951338,1.517428 -0.695432,2.796959 0.456577,2.28289 -0.07819,2.511111 -0.883946,0.377239 z m 5.737666,0.89497 c -0.214689,-0.347375 -0.08005,-0.823361 0.299192,-1.057748 0.379245,-0.234387 0.689537,0.04983 0.689537,0.63159 0,1.191752 -0.407117,1.367227 -0.988729,0.426158 z M 34.682569,26.249622 c -1.189346,-2.222314 -0.133822,-6.036013 1.8053,-6.522702 2.001462,-0.502335 4.306024,1.33514 4.306024,3.433281 0,3.732757 -4.539002,6.027331 -6.111324,3.089421 z m 3.80183,0.168736 c 1.369595,-0.918064 1.710642,-4.053514 0.565465,-5.198688 -1.70742,-1.707425 -3.197958,-1.097388 -3.878032,1.587178 -0.726967,2.869671 1.232416,5.005876 3.312567,3.61151 z M 27.224478,23.545246 c 0,-0.373159 0.32333,-0.678471 0.718512,-0.678471 0.395181,0 0.529819,0.305312 0.299194,0.678471 -0.230625,0.373159 -0.553955,0.678471 -0.718512,0.678471 -0.164557,0 -0.299194,-0.305312 -0.299194,-0.678471 z m 3.392354,0 c 0,-0.373159 0.305312,-0.678471 0.678471,-0.678471 0.373159,0 0.678471,0.305312 0.678471,0.678471 0,0.373159 -0.305312,0.678471 -0.678471,0.678471 -0.373159,0 -0.678471,-0.305312 -0.678471,-0.678471 z m 14.979923,-1.074245 c 0.03257,-0.79038 0.193324,-0.951149 0.409912,-0.40991 0.19599,0.489771 0.171884,1.074952 -0.05353,1.300403 -0.22545,0.22545 -0.385806,-0.175272 -0.356347,-0.890493 z m 2.321083,-0.961168 c 0.230626,-0.373159 0.553958,-0.678471 0.718514,-0.678471 0.164557,0 0.299192,0.305312 0.299192,0.678471 0,0.373159 -0.323325,0.678471 -0.718507,0.678471 -0.395182,0 -0.529818,-0.305312 -0.299199,-0.678471 z m -7.153614,-1.158225 c -0.787915,-1.038851 -0.783756,-1.09262 0.0285,-0.368334 1.361168,1.213791 1.991325,1.057191 2.730187,-0.678471 0.641576,-1.507124 0.647777,-1.505053 0.486993,0.162686 -0.198351,2.057431 -1.986353,2.544483 -3.245649,0.884119 z m -8.111979,-0.198717 c 0,-0.373159 0.323331,-0.67847 0.718512,-0.67847 0.395182,0 0.52982,0.305311 0.299194,0.67847 -0.230625,0.373159 -0.553955,0.678471 -0.718512,0.678471 -0.164557,0 -0.299194,-0.305312 -0.299194,-0.678471 z m 8.962612,-1.623456 c 0.320163,-2.089844 2.33375,-2.975783 3.687231,-1.622308 1.069413,1.069414 1.046895,1.116609 -0.357533,0.749344 -1.001016,-0.261771 -1.835549,0.03138 -2.512629,0.882616 -0.991104,1.246028 -1.009402,1.245812 -0.817062,-0.0097 z m -3.874083,-1.090427 c -0.230619,-0.373159 -0.09598,-0.678471 0.299199,-0.678471 0.395182,0 0.718508,0.305312 0.718508,0.678471 0,0.373159 -0.134636,0.678471 -0.299192,0.678471 -0.164557,0 -0.487889,-0.305312 -0.718515,-0.678471 z m 6.106239,-3.392355 c 0.230625,-0.373159 0.553958,-0.678471 0.718514,-0.678471 0.164556,0 0.299192,0.305312 0.299192,0.678471 0,0.373159 -0.323325,0.678471 -0.718508,0.678471 -0.395182,0 -0.529817,-0.305312 -0.299198,-0.678471 z M 72.003556,56.71593 c 0.864243,-0.62169 0.841941,-0.675746 -0.147887,-0.358477 -0.64108,0.205483 -1.375504,0.03398 -1.632048,-0.381125 -0.327674,-0.530187 0.321887,-0.628019 2.183299,-0.328833 1.804007,0.289959 2.324923,0.218796 1.632048,-0.222956 -0.738183,-0.470639 -0.773775,-0.651705 -0.129574,-0.659241 0.488472,-0.0057 0.679217,-0.348411 0.423888,-0.761548 -0.310638,-0.502618 6.79e-4,-0.603508 0.941731,-0.304918 0.845328,0.268296 2.818002,-0.161196 4.94699,-1.077062 1.947557,-0.837816 3.174708,-1.645403 2.726998,-1.794638 -0.447702,-0.149234 -1.261705,0.100225 -1.808898,0.554354 -0.583594,0.484338 -0.994896,0.540865 -0.994896,0.136732 0,-0.747899 1.571576,-1.512606 3.108611,-1.512606 0.529214,0 0.962214,0.457968 0.962214,1.017706 0,0.559739 0.325381,1.017707 0.723074,1.017707 1.293688,0 3.395489,-1.409283 3.016454,-2.022573 -0.20312,-0.328652 -0.05401,-0.792398 0.331298,-1.030546 0.38533,-0.238149 0.524953,-0.717213 0.310258,-1.064588 -0.214689,-0.347374 -0.04899,-0.63159 0.368213,-0.63159 0.417205,0 0.541236,-0.351629 0.275622,-0.781397 -0.265608,-0.429769 0.09801,-1.234123 0.808045,-1.787454 1.107346,-0.862949 1.122089,-0.947847 0.103657,-0.596838 -1.088091,0.375017 -1.520908,-0.24908 -1.250856,-1.803656 0.05339,-0.307605 -0.283316,-0.324142 -0.748334,-0.03675 -0.46501,0.287396 -1.738032,0.454528 -2.828925,0.371404 -1.529416,-0.116537 -1.824842,0.04718 -1.290587,0.715218 0.398717,0.498554 0.460661,1.442421 0.145919,2.223293 -0.300814,0.746318 -0.568396,1.135514 -0.594619,0.864881 -0.02626,-0.270633 -0.800162,-0.205971 -1.719849,0.143693 -2.740663,1.041998 -2.606292,-0.432925 0.149453,-1.640481 2.175219,-0.953169 2.247808,-1.047144 0.505,-0.653715 -1.119477,0.252715 -2.722365,0.4198 -3.561972,0.371299 -0.839608,-0.0485 -1.52656,0.162822 -1.52656,0.469609 0,0.306785 -0.38164,0.572312 -0.848089,0.590058 -0.466448,0.01775 -1.458712,0.266224 -2.20503,0.552171 -1.0453,0.400499 -1.182439,0.330261 -0.597143,-0.305825 1.086931,-1.181258 11.743972,-4.781887 14.185212,-4.792675 3.069023,-0.01356 5.069881,1.684944 5.069881,4.303762 0,2.422154 -1.045327,3.905802 -2.388692,3.390304 -0.476525,-0.182858 -1.065804,-0.0098 -1.30951,0.384483 -0.276091,0.446722 0.01771,0.568214 0.779461,0.322333 0.853781,-0.275584 0.710915,0.03436 -0.473614,1.027497 -0.932897,0.782165 -2.383129,1.606964 -3.222736,1.832886 -0.839608,0.225922 -1.52656,0.654398 -1.52656,0.952168 0,1.286191 3.203821,-0.477929 6.316259,-3.477922 3.139163,-3.025749 3.342765,-3.422281 2.962,-5.768663 -0.553971,-3.413736 -1.168862,-3.863159 -5.706184,-4.170648 -3.581044,-0.242682 -4.491328,0.02044 -10.780387,3.116082 -6.454002,3.176831 -11.788873,7.295305 -11.788873,9.100904 0,0.439983 1.46072,-0.638786 3.246042,-2.397264 2.913632,-2.869819 4.911132,-4.190563 3.925246,-2.595364 -0.204586,0.331028 0.12319,0.560012 0.728399,0.508854 0.605203,-0.05116 1.207061,0.364953 1.33747,0.924691 1.123602,4.822867 1.123344,4.777102 0.02463,4.355479 -0.592467,-0.227352 -1.010541,-0.766046 -0.92905,-1.197099 0.08381,-0.443318 -0.524804,-0.711777 -1.401205,-0.618071 -0.869278,0.09294 -1.719476,-0.277614 -1.936892,-0.844192 -0.643347,-1.676541 -1.636418,-0.390178 -1.21065,1.5682 0.279808,1.286998 0.202978,1.548862 -0.260886,0.889204 -0.361625,-0.514256 -1.011769,-0.716059 -1.444763,-0.448451 -0.597264,0.369127 -0.597013,0.715809 0.0014,1.436394 0.433557,0.522409 1.016092,0.809046 1.294516,0.636972 0.278417,-0.172075 0.423366,0.441911 0.322097,1.364412 -0.195467,1.780693 0.727715,2.134766 2.410281,0.924412 z m 0.08535,-3.158481 c -0.590479,-1.103328 -0.517456,-1.465786 0.363416,-1.803809 0.606316,-0.232665 1.262234,-0.263184 1.457593,-0.06782 0.195366,0.195364 -0.07732,0.359881 -0.605956,0.365595 -0.699618,0.0076 -0.74013,0.150905 -0.148897,0.526761 0.490969,0.312111 0.586911,0.881022 0.242547,1.438213 -0.449318,0.727015 -0.72591,0.63002 -1.308703,-0.45894 z m 13.823302,-3.551837 c 0.230626,-0.373159 0.553958,-0.678471 0.718515,-0.678471 0.164556,0 0.299192,0.305312 0.299192,0.678471 0,0.373159 -0.323332,0.678471 -0.718514,0.678471 -0.395183,0 -0.529818,-0.305312 -0.299193,-0.678471 z m -5.767002,-1.062624 c 0,-0.843666 1.465049,-1.65126 2.99553,-1.65126 1.727747,0 0.788003,1.923566 -1.073198,2.196732 -1.214382,0.178234 -1.922332,-0.02265 -1.922332,-0.545472 z m 6.159803,-1.368563 c 0.03257,-0.79038 0.193324,-0.951149 0.409905,-0.40991 0.19599,0.489771 0.171891,1.074952 -0.05353,1.300403 -0.225456,0.22545 -0.385806,-0.175272 -0.356347,-0.890493 z m -3.106684,6.451005 1.356942,-0.541452 -1.356942,-0.02992 c -0.746318,-0.01645 -2.883502,0.409931 -4.749297,0.947524 l -3.392354,0.977444 3.392354,-0.406073 c 1.865795,-0.223341 4.002979,-0.649727 4.749297,-0.947525 z m 9.159357,-7.678819 c 0,-0.146656 -0.473824,-0.448471 -1.052946,-0.6707 -0.603785,-0.231695 -0.876123,-0.117951 -0.638428,0.266647 0.398439,0.644685 1.691374,0.953555 1.691374,0.404053 z M 57.140836,37.533386 c 0.724729,-2.004198 0.681307,-2.590863 -0.302937,-4.09301 -2.177946,-3.323969 -6.511272,-1.509835 -5.130156,2.147729 0.807258,2.137852 1.176482,1.901401 1.059432,-0.678471 -0.08186,-1.804392 0.176131,-2.244266 1.419958,-2.420976 1.104884,-0.156971 1.747199,0.282703 2.35192,1.609924 0.740517,1.625255 0.592142,2.258711 -1.350381,5.765317 -1.200263,2.166696 -2.178624,4.342694 -2.174126,4.83555 0.01038,1.136083 3.004486,-4.063765 4.12629,-7.166063 z m 10.712466,0.975423 c 1.90731,-0.893337 3.343912,-1.748174 3.192443,-1.899639 -0.151462,-0.151466 -2.007188,0.572585 -4.123821,1.609002 -3.692306,1.807945 -7.130845,4.95861 -7.130845,6.533852 0,0.411696 1.033739,-0.45915 2.297194,-1.935214 1.263456,-1.476065 3.857718,-3.414665 5.765029,-4.308001 z M 37.123841,33.218453 c -0.47052,-0.470518 -1.757712,0.485475 -1.757712,1.305444 0,0.44989 0.389294,0.39842 1.034102,-0.136724 0.568756,-0.472025 0.894381,-0.99795 0.72361,-1.16872 z m 36.461868,-5.602381 c 0.473186,0 1.288321,0.381639 1.811402,0.848088 0.809097,0.721493 0.816954,0.670855 0.05265,-0.339235 -0.494144,-0.653028 -1.218662,-1.187324 -1.610031,-1.187324 -1.14777,0 -3.195428,2.152422 -3.165922,3.327891 0.01669,0.664297 0.41802,0.361705 1.03937,-0.783625 0.556719,-1.026188 1.399366,-1.865795 1.872559,-1.865795 z M 15.286084,71.19744 c -1.361756,-0.91281 -1.649384,-3.90192 -0.529337,-5.50101 1.281686,-1.82986 4.526653,-1.77368 4.879042,0.0845 0.168008,0.8859 -0.168639,1.1448 -1.323331,1.0177 -1.047048,-0.11525 -1.633217,0.23746 -1.809715,1.08893 -0.441435,2.1296 0.933962,2.81774 2.968018,1.48497 0.998003,-0.65391 1.581804,-0.81234 1.297339,-0.35207 -0.318283,0.51499 -0.200364,0.73125 0.306584,0.56227 0.453089,-0.15103 0.724571,-0.44903 0.603294,-0.66221 -0.326056,-0.57316 1.495956,-2.59522 3.116051,-3.45818 1.270471,-0.67672 1.318969,-0.63883 0.481578,0.37628 -1.311895,1.59032 -0.633881,1.42596 4.173249,-1.01168 3.210434,-1.62797 5.398837,-2.2179 9.140007,-2.46387 2.705403,-0.17788 4.918914,-0.0521 4.918914,0.27956 0,0.33163 -1.35971,0.49482 -3.021584,0.36265 -3.98831,-0.31721 -10.360092,1.84273 -16.719534,5.66765 -4.882154,2.93639 -6.948489,3.55151 -8.480575,2.52453 z m 0.743623,-2.66593 c 0,-2.09488 0.279159,-2.58631 1.696178,-2.98593 l 1.696177,-0.47835 -1.841924,-0.0676 c -2.351788,-0.0864 -3.516007,1.84935 -2.585027,4.29801 0.880913,2.31697 1.034596,2.20317 1.034596,-0.7661 z m 8.159605,-1.43309 c -0.208893,-0.2089 -0.756356,-4.3e-4 -1.216586,0.46325 -0.665082,0.67006 -0.58715,0.748 0.379805,0.3798 0.669122,-0.25479 1.045674,-0.63416 0.836781,-0.84305 z"
     style="fill:#000000;stroke-width:0.67847091" />
</svg>
