<?xml version="1.0" encoding="UTF-8" standalone="no"?>
<svg
   xmlns:dc="http://purl.org/dc/elements/1.1/"
   xmlns:cc="http://creativecommons.org/ns#"
   xmlns:rdf="http://www.w3.org/1999/02/22-rdf-syntax-ns#"
   xmlns:svg="http://www.w3.org/2000/svg"
   xmlns="http://www.w3.org/2000/svg"
   id="svgKP4"
   version="1.1"
   viewBox="0 0 100 100"
   height="100"
   width="100">
  <defs
     id="defs2" />
  <metadata
     id="metadata5">
    <rdf:RDF>
      <cc:Work
         rdf:about="">
        <dc:format>image/svg+xml</dc:format>
        <dc:type
           rdf:resource="http://purl.org/dc/dcmitype/StillImage" />
        <dc:title></dc:title>
      </cc:Work>
    </rdf:RDF>
  </metadata>
  <path
     id="pathKP4"
     d="m 49.469876,94.757359 c -0.05411,-1.91145 -4.47721,-4.77297 -6.566974,-4.24847 -2.750146,0.69024 -4.227521,-0.22585 -4.227521,-2.62141 0,-2.52815 1.968862,-3.67739 2.542437,-1.48403 0.574266,2.19599 4.037382,1.94529 5.576491,-0.40369 1.714721,-2.617 0.85846,-3.48204 -3.268903,-3.3024 -2.900916,0.12625 -3.740268,-0.15322 -4.671238,-1.55534 -0.648284,-0.97637 -1.925659,-1.70924 -2.979145,-1.70924 -1.169462,0 -2.134029,-0.63599 -2.63623,-1.7382 -0.435579,-0.956 -1.799246,-2.316285 -3.030365,-3.022844 -1.23112,-0.706567 -2.461249,-2.172564 -2.733613,-3.257772 -0.272372,-1.085209 -0.983951,-1.973106 -1.581291,-1.973106 -1.28071,0 -2.101447,-1.887326 -3.386761,-7.788031 -0.551608,-2.532385 -0.666677,-4.765506 -0.277215,-5.380266 0.366189,-0.578036 0.671096,-2.738159 0.677575,-4.800273 0.0095,-3.027933 0.344499,-3.970222 1.741139,-4.897557 0.951154,-0.631542 1.729371,-1.901583 1.729371,-2.822311 0,-2.164825 1.38996,-3.518715 3.612463,-3.518715 2.341315,0 2.259327,-1.806972 -0.153721,-3.388063 -1.340593,-0.878391 -1.921524,-1.953943 -1.921524,-3.557569 0,-1.264196 -0.416993,-2.966245 -0.926643,-3.782332 -0.752253,-1.204546 -0.692033,-1.745026 0.319995,-2.871856 0.685654,-0.763434 1.362053,-2.423128 1.503108,-3.688211 0.364867,-3.272465 3.549784,-4.755508 6.706754,-3.122973 2.757317,1.425863 4.66399,4.021783 8.181277,11.138719 1.475761,2.986081 2.888403,5.429238 3.1392,5.429238 0.250805,0 0.216287,-0.60528 -0.07671,-1.345066 -2.098465,-5.298548 -2.361959,-12.829855 -0.653702,-18.684575 1.823118,-6.248381 1.572052,-8.4089022 -0.977164,-8.4089022 -2.347824,0 -3.343681,2.1761382 -1.584519,3.4624692 1.662087,1.215349 1.621413,1.917795 -0.111048,1.917795 -0.763867,0 -1.733176,-0.778217 -2.154035,-1.729371 -0.420845,-0.951153 -0.664517,-1.279063 -0.541478,-0.728688 0.123039,0.550374 -0.118204,0.789367 -0.536097,0.531095 -1.245639,-0.769842 -0.871672,-2.4689192 1.02999,-4.6797372 2.294929,-2.668013 5.456327,-2.168381 6.248402,0.987507 0.361738,1.441277 0.709134,1.777679 1.130954,1.09516 1.477152,-2.390074 1.470335,1.9051162 -0.01299,8.2027812 -1.60757,6.825059 -1.508749,16.086266 0.182898,17.141191 0.787048,0.490804 -1.622088,5.299814 -2.659065,5.307918 -0.342001,0.0027 -0.408055,-0.341014 -0.146789,-0.763749 0.261265,-0.422735 -0.02721,-0.768609 -0.64102,-0.768609 -2.185879,0 -2.921999,5.862162 -0.836601,6.662404 0.666884,0.255907 1.778624,-0.100822 2.470533,-0.792732 0.808408,-0.80841 0.924453,-1.258016 0.324699,-1.258016 -1.330624,0 -1.167994,-0.75219 0.902048,-4.172024 l 1.827484,-3.01911 2.011627,2.170583 c 2.32512,2.508845 2.532022,3.483332 0.739587,3.483332 -1.142231,0 -1.129495,0.157507 0.124753,1.543441 1.26055,1.392892 1.523376,1.428891 2.694459,0.369071 1.769485,-1.601358 1.606909,-5.408742 -0.224633,-5.260749 -1.38063,0.111559 -5.934194,-3.852223 -5.934194,-5.165589 0,-1.179553 1.552483,-0.795424 2.052609,0.507873 0.376119,0.980148 0.593774,1.01759 1.11702,0.192152 0.929541,-1.466385 0.806778,-2.794279 -0.13031,-1.409511 -0.574766,0.849358 -0.655954,0.545801 -0.308343,-1.152914 0.259521,-1.268205 0.600238,-2.725639 0.757149,-3.238743 0.15692,-0.513104 -0.217847,-2.864629 -0.832803,-5.225613 -0.614957,-2.360984 -1.089904,-5.399914 -1.055447,-6.753178 0.04181,-1.641339 0.445071,-0.675804 1.211305,2.900211 0.631751,2.948379 1.484754,5.888309 1.89556,6.533179 0.597701,0.938247 0.671572,0.86538 0.369732,-0.36473 -0.207456,-0.84547 -0.792329,-3.785401 -1.299719,-6.533179 -0.507389,-2.747778 -1.217607,-5.57618 -1.57827,-6.285337 -0.467076,-0.918399 -0.08402,-1.9688272 1.331347,-3.6508942 2.290002,-2.721518 3.066152,-2.873618 5.186829,-1.016451 1.475661,1.292293 1.515652,1.284754 1.019399,-0.192152 -0.508604,-1.51366 -0.49882,-1.514354 0.638276,-0.04525 1.737803,2.245193 1.422442,4.6382142 -0.765558,5.8091982 -2.150346,1.150829 -3.824915,0.311829 -1.724129,-0.86383 1.599884,-0.895338 1.729971,-2.4656162 0.302417,-3.6503802 -0.786072,-0.652384 -1.320801,-0.535937 -2.214916,0.482345 -2.029997,2.3118982 -2.223287,4.4678452 -0.915914,10.2159172 0.696929,3.064162 1.096813,7.082365 0.888628,8.929341 -0.448245,3.976857 0.231405,4.699471 2.214963,2.354963 l 1.447791,-1.711246 -1.729371,1.464191 c -3.030719,2.565991 -1.856322,0.132897 1.537218,-3.184784 5.277948,-5.159968 13.663429,-8.028801 15.751941,-5.389043 1.210413,1.529896 1.013004,8.292492 -0.256285,8.779566 -0.596326,0.228832 -1.084231,0.873159 -1.084231,1.431839 0,2.03162 -2.229667,3.422318 -4.253346,2.652918 -1.042541,-0.396374 -1.934028,-0.469834 -1.981075,-0.163246 -0.04704,0.306588 -0.133523,1.823897 -0.192152,3.371797 -0.101288,2.673942 0.03451,2.836946 2.721138,3.266952 4.001557,0.640457 5.496448,2.375445 4.973263,5.772 -0.273263,1.774051 -0.03366,3.271805 0.674939,4.219601 0.629299,0.841683 0.905891,2.237071 0.647492,3.266589 -0.26962,1.074256 -0.108366,1.79725 0.400853,1.79725 0.468567,0 0.851934,1.210559 0.851934,2.690132 0,1.479573 -0.373352,2.690133 -0.829683,2.690133 -0.515814,0 -0.64431,0.843964 -0.339671,2.230983 0.38166,1.737688 0.135206,2.479499 -1.114638,3.354922 -0.968455,0.678332 -1.671794,2.101366 -1.774004,3.589279 -0.151915,2.211476 -0.373813,2.42465 -2.154926,2.070179 -1.773005,-0.352858 -1.98558,-0.154169 -1.98558,1.855912 0,3.043761 -2.233155,5.345351 -5.186398,5.345351 -1.531654,0 -2.720624,0.53562 -3.320223,1.49574 -1.094047,1.75183 -5.559205,3.16653 -8.063926,2.55488 -1.643979,-0.40146 -1.613672,-0.28314 0.509503,1.98861 2.512884,2.68875 4.318939,3.03104 6.178927,1.17105 1.528211,-1.52821 2.255599,-0.96134 1.563705,1.21862 -0.389047,1.22579 -0.927842,1.5121 -2.18385,1.16048 -1.281671,-0.35879 -1.405671,-0.28689 -0.536012,0.31085 0.973436,0.66905 0.945251,0.84903 -0.201937,1.28924 -0.733322,0.28141 -1.832572,0.0973 -2.442771,-0.40912 -1.446615,-1.20058 -2.398853,-0.54412 -4.224453,2.91227 -0.822835,1.55786 -1.511348,2.29225 -1.530033,1.63196 z m 3.040473,-6.90967 c 0,-3.20829 -4.00613,-3.55487 -5.373878,-0.46491 -0.934929,2.11214 -0.870604,2.41151 0.810683,3.77294 1.811204,1.46662 1.837406,1.46489 3.194686,-0.21129 0.752684,-0.92951 1.368509,-2.32305 1.368509,-3.09674 z m -3.843047,1.96131 c 0,-0.6341 -0.359509,-1.15291 -0.798915,-1.15291 -0.460981,0 -0.379709,-0.45354 0.192152,-1.07224 0.54509,-0.58973 1.287397,-0.89237 1.649582,-0.67253 0.362184,0.21983 0.189247,0.69705 -0.384305,1.06047 -0.767326,0.4862 -0.789001,0.66387 -0.08206,0.67253 0.528419,0.006 0.960762,0.53058 0.960762,1.16468 0,0.63411 -0.345874,1.15292 -0.768609,1.15292 -0.422736,0 -0.76861,-0.51881 -0.76861,-1.15292 z m -6.533179,-0.94668 c -0.84547,-0.21123 -1.791328,-0.77639 -2.101908,-1.2559 -0.382145,-0.59003 -0.568494,-0.60269 -0.576457,-0.0392 -0.01806,1.27708 0.853172,1.86637 2.614317,1.76831 1.54884,-0.0862 1.550938,-0.10173 0.06403,-0.47321 z m 7.665287,-6.38877 c -0.27271,-0.44126 -0.07937,-1.3041 0.429652,-1.91743 0.509027,-0.61334 0.736974,-1.83607 0.50656,-2.71718 -0.283217,-1.083 -0.107974,-1.4827 0.540901,-1.2337 1.175173,0.45096 2.825869,-1.98899 2.119179,-3.132435 -0.965704,-1.562545 -3.223424,1.07693 -3.871101,4.525655 -0.520271,2.77035 -0.741907,3.08764 -1.270357,1.81862 -0.352069,-0.84547 -2.018099,-3.785398 -3.702283,-6.533176 -1.684185,-2.747778 -3.679226,-6.552394 -4.433416,-8.454702 -0.803258,-2.026054 -1.386156,-2.812046 -1.407216,-1.897513 -0.04266,1.852265 10.112147,20.344141 11.171967,20.344141 0.226571,0 0.188816,-0.36103 -0.08389,-0.80228 z m 10.08958,-2.7777 c 0.887736,-1.05635 2.098296,-1.83809 2.690133,-1.7372 0.591829,0.10089 2.07164,-0.22623 3.288456,-0.72695 2.007646,-0.82613 2.176317,-1.179357 1.82255,-3.816855 -0.365805,-2.727274 0.695307,-5.511206 2.100624,-5.511206 0.322209,0 0.200607,0.464166 -0.27022,1.031481 -0.953567,1.148974 -0.410376,2.042956 1.241304,2.042956 0.800253,0 0.956119,-0.590804 0.59256,-2.246087 -0.42551,-1.937345 -0.249015,-2.280712 1.284,-2.49798 1.46108,-0.207074 1.777317,-0.718765 1.777317,-2.875795 0,-1.443147 0.432342,-2.768998 0.960761,-2.946336 1.540754,-0.517081 1.108788,-3.07792 -0.737304,-4.370974 -1.327949,-0.930132 -1.495475,-1.391959 -0.768609,-2.118828 1.282294,-1.282293 1.165473,-3.441418 -0.214857,-3.971101 -0.869243,-0.333559 -0.973736,-0.88778 -0.434695,-2.305572 1.062841,-2.795486 0.167004,-4.911841 -2.467958,-5.830395 -1.871794,-0.65251 -2.618437,-0.583491 -3.634415,0.335957 -0.70327,0.636447 -2.009237,1.157177 -2.902161,1.157177 -0.892917,0 -1.837245,0.345874 -2.098511,0.768609 -0.717935,1.161642 -1.921523,0.920924 -1.921523,-0.384305 0,-0.634102 -0.572414,-1.152913 -1.272041,-1.152913 -1.165834,0 -1.161599,0.122036 0.05081,1.461718 1.980937,2.188909 5.282675,12.462305 4.315926,13.429054 -1.011867,1.011868 -1.026355,3.555851 -0.02022,3.555851 0.422735,0 0.76861,0.335019 0.76861,0.744486 0,0.409468 -0.450644,0.571559 -1.001429,0.360202 -0.674555,-0.258849 -1.324299,0.875453 -1.990545,3.475021 -0.544014,2.122618 -2.645061,6.614548 -4.668994,9.982062 -2.02394,3.367513 -3.479517,6.323133 -3.234623,6.568033 0.941847,0.94184 5.205299,-0.58787 6.745093,-2.42011 z m -4.304204,-1.03168 c 0,-0.42274 0.539225,-0.76861 1.198277,-0.76861 0.659044,0 0.984512,0.34587 0.723246,0.76861 -0.261266,0.42273 -0.800491,0.76861 -1.198277,0.76861 -0.397786,0 -0.723246,-0.34588 -0.723246,-0.76861 z m 8.454702,-2.735497 c 0,-0.659051 0.351516,-0.981022 0.781145,-0.715498 0.42963,0.265524 0.582153,0.804749 0.338942,1.198275 -0.658883,1.06609 -1.120087,0.86731 -1.120087,-0.482777 z m -5.10232,-0.723246 c -0.679928,-1.771875 0.2752,-3.458741 1.958401,-3.458741 1.902492,0 2.615961,1.10538 1.988822,3.081316 -0.568532,1.791278 -3.304289,2.052868 -3.947223,0.377425 z m 3.119224,-2.021149 c -0.606364,-0.981111 -1.85995,-0.0429 -1.85995,1.392012 0,0.977048 0.213919,1.024126 1.144451,0.251858 0.629445,-0.522401 0.951423,-1.262141 0.715499,-1.64387 z m 1.214487,-2.206202 c 0,-0.422735 0.345874,-0.768609 0.768609,-0.768609 0.422735,0 0.768609,0.345874 0.768609,0.768609 0,0.422735 -0.345874,0.76861 -0.768609,0.76861 -0.422735,0 -0.768609,-0.345875 -0.768609,-0.76861 z m -2.305828,-2.351189 c 0,-0.447683 0.345874,-0.600208 0.768609,-0.338943 0.422735,0.261265 0.768609,0.627551 0.768609,0.81397 0,0.186419 -0.345874,0.338944 -0.768609,0.338944 -0.422735,0 -0.768609,-0.366287 -0.768609,-0.813971 z m 3.199344,0.138822 c -0.565405,-0.358385 -0.911279,-1.47718 -0.76861,-2.48621 0.311618,-2.203917 2.998922,-2.858711 4.467934,-1.088666 0.83285,1.00353 0.769716,1.458419 -0.37854,2.727224 -1.538986,1.700563 -1.849966,1.779942 -3.320784,0.847652 z m 2.773388,-2.255174 c 0.167334,-0.501998 -0.243388,-0.912724 -0.912723,-0.912724 -0.669329,0 -1.216963,0.547634 -1.216963,1.216965 0,1.357308 1.654632,1.120932 2.129686,-0.304241 z m 3.250579,-2.449942 c 0,-0.422735 0.539226,-0.76861 1.198278,-0.76861 0.659051,0 0.984511,0.345875 0.723246,0.76861 -0.261266,0.422735 -0.800492,0.768609 -1.198278,0.768609 -0.397786,0 -0.723246,-0.345874 -0.723246,-0.768609 z m -3.458741,-1.537219 c 0.261265,-0.422735 0.627546,-0.768609 0.813972,-0.768609 0.186419,0 0.338942,0.345874 0.338942,0.768609 0,0.422735 -0.366289,0.768609 -0.813973,0.768609 -0.447684,0 -0.600207,-0.345874 -0.338941,-0.768609 z m -0.640506,-2.049625 c -1.184196,-1.184196 -0.488581,-4.771832 1.017931,-5.24998 2.03673,-0.646435 3.081316,0.09778 3.081316,2.195284 0,2.65162 -2.57986,4.574088 -4.099247,3.054696 z m 2.562029,-1.346254 c 0,-0.176793 0.209938,-0.868541 0.466538,-1.537219 0.678129,-1.767183 -1.032857,-1.492708 -2.003757,0.321442 -0.65663,1.226931 -0.584519,1.537219 0.357258,1.537219 0.648982,0 1.179961,-0.144649 1.179961,-0.321442 z m 3.843046,0.412164 c 0,-0.422735 0.345874,-0.982371 0.76861,-1.243636 0.422735,-0.261265 0.768609,-0.129152 0.768609,0.293583 0,0.422735 -0.345874,0.982371 -0.768609,1.243636 -0.422736,0.261265 -0.76861,0.129152 -0.76861,-0.293583 z m -4.611655,-6.239596 c 0,-0.422735 0.366288,-0.76861 0.813972,-0.76861 0.447677,0 0.600207,0.345875 0.338941,0.76861 -0.261265,0.422735 -0.627554,0.768609 -0.813972,0.768609 -0.186419,0 -0.338941,-0.345874 -0.338941,-0.768609 z m -3.036238,-3.003064 c -0.599553,-1.120272 -0.442012,-1.888797 0.668245,-3.259912 1.431519,-1.767852 1.476283,-1.772769 3.063284,-0.336554 1.928956,1.745681 1.984065,2.27315 0.402721,3.854496 -1.620359,1.620358 -3.181105,1.522947 -4.13425,-0.25803 z m 3.804847,-1.096186 c 0,-1.595208 -0.909703,-2.120752 -2.042956,-1.180235 -1.489857,1.23647 -1.267706,2.205047 0.505737,2.205047 0.84547,0 1.537219,-0.461165 1.537219,-1.024812 z M 61.73366,47.919797 c 0,-0.422736 0.345874,-0.76861 0.768609,-0.76861 0.422736,0 0.76861,0.345874 0.76861,0.76861 0,0.422735 -0.345874,0.768609 -0.76861,0.768609 -0.422735,0 -0.768609,-0.345874 -0.768609,-0.768609 z m 7.342356,-3.7774 c -0.247469,-0.40042 -0.122332,-0.930515 0.27809,-1.177989 0.400423,-0.247473 0.930517,-0.122335 1.177986,0.278086 0.247477,0.40042 0.12234,0.930515 -0.278083,1.177989 -0.400422,0.247473 -0.930516,0.122335 -1.177993,-0.278086 z M 46.361474,81.017649 c 0,-0.423 -1.690325,-3.63318 -3.75627,-7.133708 -2.065945,-3.500534 -4.139269,-7.748104 -4.607367,-9.439045 -1.287082,-4.64932 -1.03092,-11.46462 0.605941,-16.121795 1.392766,-3.962655 1.396578,-4.126828 0.07671,-3.302548 -0.763905,0.47707 -1.213496,1.324565 -0.999077,1.883322 0.221513,0.577252 -0.133069,1.015922 -0.821182,1.015922 -0.712447,0 -1.043864,-0.43561 -0.804995,-1.058085 0.258329,-0.673201 -0.319127,-1.240085 -1.587478,-1.558423 -1.096429,-0.275186 -2.389284,-1.368968 -2.873008,-2.430625 -0.974589,-2.138985 -2.680809,-2.200621 -3.976193,-0.143636 -0.625632,0.993454 -0.597094,1.739985 0.109766,2.871855 1.28443,2.056693 1.306866,3.746671 0.03282,2.472635 -1.42823,-1.428232 -2.592381,-1.10139 -3.548085,0.996147 -0.608492,1.335505 -0.639344,2.535964 -0.101525,3.950539 0.590537,1.553222 0.502624,2.330366 -0.373053,3.297979 -1.145988,1.266304 -0.92386,4.137769 0.457615,5.915618 0.368971,0.474838 0.465324,1.398965 0.214104,2.053616 -0.746627,1.945686 1.059612,4.53261 2.782873,3.985669 1.234878,-0.391933 1.49041,-0.100515 1.49041,1.699699 0,2.230499 2.45078,4.555896 3.874313,3.6761 0.405534,-0.250636 0.737343,0.142754 0.737343,0.874201 0,1.753253 2.198238,4.134123 3.39351,3.675453 0.546243,-0.20961 0.811805,-1.25759 0.630943,-2.489866 -0.400161,-2.726462 1.550155,-4.626813 3.277335,-3.193379 1.632488,1.354843 1.430574,2.9875 -0.569778,4.607295 -1.633817,1.32297 -1.654908,1.46985 -0.408846,2.84674 1.384926,1.53032 6.743194,2.36334 6.743194,1.04832 z m -4.611655,-2.69242 c 0,-0.65905 0.345874,-1.19828 0.768609,-1.19828 0.422735,0 0.768609,0.32546 0.768609,0.72325 0,0.39778 -0.345874,0.93701 -0.768609,1.19827 -0.422735,0.26127 -0.768609,-0.0642 -0.768609,-0.72324 z M 35.21664,74.821122 c 0.261265,-0.422735 0.627554,-0.768609 0.813972,-0.768609 0.186419,0 0.338942,0.345874 0.338942,0.768609 0,0.422735 -0.366289,0.768609 -0.813973,0.768609 -0.447684,0 -0.600207,-0.345874 -0.338941,-0.768609 z m -1.921524,-3.925279 c 0,-0.467964 -0.518811,-0.651756 -1.152914,-0.408428 -0.714745,0.274275 -1.152914,-0.0038 -1.152914,-0.731737 0,-0.645784 0.345875,-0.960391 0.76861,-0.699126 0.422735,0.261265 0.768609,-0.07505 0.768609,-0.747371 0,-0.672319 0.516821,-1.420722 1.148494,-1.663118 0.631682,-0.242397 0.957142,-0.750352 0.723254,-1.128791 -0.233888,-0.378439 -0.145436,-0.685372 0.196564,-0.682074 0.342001,0.0033 1.05115,0.93055 1.57588,2.060558 0.804296,1.732048 0.755435,2.274042 -0.311279,3.452745 -1.426285,1.576033 -2.564304,1.818938 -2.564304,0.547342 z m 2.305828,-2.268957 c 0,-0.397786 -0.345874,-0.723248 -0.768609,-0.723248 -0.422735,0 -0.768609,0.539224 -0.768609,1.198275 0,0.659051 0.345874,0.984513 0.768609,0.723248 0.422735,-0.261264 0.768609,-0.800488 0.768609,-1.198275 z m 1.537219,2.351189 c 0,-0.422735 0.345874,-0.768609 0.768609,-0.768609 0.422735,0 0.768609,0.345874 0.768609,0.768609 0,0.422735 -0.345874,0.76861 -0.768609,0.76861 -0.422735,0 -0.768609,-0.345875 -0.768609,-0.76861 z m -8.06265,-6.161412 c 0.265524,-0.42963 0.804749,-0.582155 1.198277,-0.338943 1.066092,0.658882 0.867306,1.12009 -0.482779,1.12009 -0.659052,0 -0.981022,-0.351515 -0.715498,-0.781147 z m -3.46649,-1.095015 c 0,-0.609154 0.345875,-1.321315 0.76861,-1.582579 0.422735,-0.261265 0.768609,0.237134 0.768609,1.107552 0,0.870419 -0.345874,1.58258 -0.768609,1.58258 -0.422735,0 -0.76861,-0.498399 -0.76861,-1.107553 z m 5.505172,-1.104814 c -1.646945,-1.043926 -0.779247,-4.282467 1.223595,-4.566872 2.104053,-0.298778 2.940515,1.435332 1.758079,3.644742 -0.936051,1.749023 -1.434117,1.903059 -2.981674,0.92213 z m 2.180921,-2.014984 c 0,-0.634103 -0.32546,-1.152914 -0.723246,-1.152914 -0.969201,0 -1.663347,1.200252 -1.049282,1.814318 0.8656,0.865595 1.772528,0.527181 1.772528,-0.661404 z m -5.73175,-1.868414 c -0.243211,-0.393525 -0.09068,-0.932748 0.338949,-1.198275 0.42963,-0.265526 0.781146,0.05645 0.781146,0.7155 0,1.350082 -0.461212,1.54887 -1.120095,0.482775 z m 6.50036,-2.358937 c 0,-0.422735 0.345874,-0.768609 0.768609,-0.768609 0.422735,0 0.768609,0.345874 0.768609,0.768609 0,0.422735 -0.345874,0.768609 -0.768609,0.768609 -0.422735,0 -0.768609,-0.345874 -0.768609,-0.768609 z m -3.330638,-0.512407 c -0.281826,-0.281823 -0.512409,-0.869809 -0.512409,-1.306635 0,-0.481614 0.357995,-0.436234 0.909519,0.115291 0.500241,0.500237 0.730824,1.088223 0.512408,1.306636 -0.218415,0.218413 -0.6277,0.166532 -0.909518,-0.115292 z M 31.91162,53.14634 c -1.088213,-1.088216 -1.172445,-2.872664 -0.207548,-4.397159 0.588455,-0.929738 0.986733,-0.89853 2.678365,0.209871 2.302246,1.508491 2.447145,2.233962 0.779301,3.901804 -1.44962,1.449623 -2.034594,1.501006 -3.250118,0.285484 z m 2.53641,-2.152106 c 0,-0.563647 -0.432342,-1.168927 -0.960761,-1.345067 -0.571531,-0.190509 -0.960762,0.354415 -0.960762,1.345067 0,0.990652 0.389231,1.535576 0.960762,1.345066 0.528419,-0.17614 0.960761,-0.78142 0.960761,-1.345066 z m -7.301788,1.491857 c 0,-0.447683 0.345874,-0.600208 0.768609,-0.338943 0.422735,0.261265 0.76861,0.627551 0.76861,0.81397 0,0.186419 -0.345875,0.338944 -0.76861,0.338944 -0.422735,0 -0.768609,-0.366287 -0.768609,-0.813971 z M 25.609023,49.02735 c 0,-0.659051 0.345875,-0.984514 0.76861,-0.723249 0.422735,0.261265 0.768609,0.800488 0.768609,1.198275 0,0.397787 -0.345874,0.723248 -0.768609,0.723248 -0.422735,0 -0.76861,-0.539224 -0.76861,-1.198274 z m 3.843047,-3.413381 c 0,-0.422735 0.366288,-0.76861 0.813972,-0.76861 0.447677,0 0.600207,0.345875 0.338942,0.76861 -0.261266,0.422735 -0.627554,0.768609 -0.813973,0.768609 -0.186418,0 -0.338941,-0.345874 -0.338941,-0.768609 z m 11.009644,29.666604 c 0.480473,-1.252103 -0.165067,-2.139335 -1.124929,-1.546111 -0.873086,0.539602 -0.853248,2.623877 0.02498,2.623877 0.377502,0 0.872487,-0.484999 1.099957,-1.077766 z M 58.041392,70.33774 c 2.421596,-5.323875 1.248052,-4.30987 -1.502478,1.298221 -1.377532,2.808673 -1.943866,4.414936 -1.258505,3.569465 0.685353,-0.84547 1.927803,-3.035929 2.760983,-4.867686 z m -10.770399,3.548238 c -0.551524,-0.551523 -0.909519,-0.596902 -0.909519,-0.115291 0,1.025924 0.908965,1.934889 1.421928,1.421927 0.218415,-0.218408 -0.01214,-0.806394 -0.512409,-1.306636 z m 6.007965,-3.683489 c 0,-0.369 -0.345874,-0.884672 -0.768609,-1.145937 -0.422735,-0.261265 -0.76861,0.08461 -0.76861,0.768609 0,0.684 -0.345874,1.029875 -0.768609,0.76861 -0.422735,-0.261265 -0.768609,-1.146363 -0.768609,-1.966885 0,-1.905465 -0.932769,-1.896506 -2.672309,0.02566 -1.292124,1.42778 -1.297074,1.633928 -0.08366,3.485826 l 1.28968,1.968305 2.270365,-1.616644 c 1.248698,-0.889149 2.270364,-1.918547 2.270364,-2.287548 z m 3.074437,0.007 c 0,-0.422735 -0.152523,-0.76861 -0.338941,-0.76861 -0.186426,0 -0.552707,0.345875 -0.813973,0.76861 -0.261265,0.422735 -0.108743,0.768609 0.338942,0.768609 0.447684,0 0.813972,-0.345874 0.813972,-0.768609 z M 49.31929,65.842553 c 0.454187,-0.236833 -2.534742,-4.037954 -3.195331,-4.063613 -0.342001,-0.01328 -0.422828,0.297822 -0.179617,0.691346 0.243211,0.393525 0.09069,0.932749 -0.338941,1.198275 -0.429629,0.265526 -0.781145,-0.110054 -0.781145,-0.834625 0,-1.219538 -0.114193,-1.214059 -1.537219,0.07376 -1.976817,1.788996 -1.9411,3.022587 0.143769,4.964936 l 1.680986,1.566077 1.969908,-1.728288 c 1.083447,-0.950559 2.090363,-1.791101 2.23759,-1.867873 z m 8.876715,-0.615768 c 0.227078,-0.83818 0.02744,-1.875803 -0.443687,-2.305828 -0.610922,-0.557643 -0.720825,-0.396129 -0.383252,0.5632 0.260313,0.739787 0.138281,1.345067 -0.271188,1.345067 -0.409461,0 -0.744483,-0.929396 -0.744483,-2.065323 V 60.698577 L 54.047567,62.9077 c -2.645046,2.534118 -2.782873,3.19488 -1.062817,5.095516 1.175595,1.299023 1.339417,1.302304 3.020696,0.06052 0.977732,-0.722144 1.963481,-1.998772 2.190559,-2.836951 z m 3.444846,-8.852264 c 0.02736,-3.732717 -1.249129,-8.022051 -3.334374,-11.204542 -2.285882,-3.488696 -2.289541,-1.262521 -0.0046,2.935254 2.297189,4.220704 2.895259,9.462292 1.732822,15.186772 -0.514815,2.535213 -0.485016,2.513083 0.517389,-0.384305 0.585012,-1.69094 1.075054,-4.630871 1.088989,-6.533179 z m -7.789364,1.436392 C 51.8476,55.100508 51.455563,55.046319 51.933361,57.54578 c 0.203959,1.066927 0.07133,2.124962 -0.2947,2.351189 -0.366042,0.226227 -0.665531,-0.473777 -0.665531,-1.555563 0,-2.44635 -0.782191,-2.485348 -2.977585,-0.148456 l -1.708326,1.818429 2.06616,2.455493 2.06616,2.455494 2.531092,-2.453226 2.531084,-2.453225 z m -10.807292,3.810973 c 1.647353,-1.547602 1.686767,-1.770664 0.537381,-3.040723 -1.056661,-1.167596 -1.398016,-1.212965 -2.304675,-0.306305 -1.080549,1.080549 -1.502193,5.017147 -0.537381,5.017147 0.289804,0 1.326912,-0.751554 2.304675,-1.670119 z m 16.383637,-1.404318 c 0,-1.621062 -1.118234,-2.068356 -1.921523,-0.768609 -0.56047,0.906862 0.166535,2.305828 1.198277,2.305828 0.397786,0 0.723246,-0.691749 0.723246,-1.537219 z m -20.214985,-4.803808 0.07695,-5.572418 -0.655593,4.227352 c -0.548756,3.538412 -0.390861,6.917483 0.323239,6.917483 0.09815,0 0.213089,-2.507588 0.255409,-5.572417 z m 8.973198,0.931568 c 2.051026,-2.17307 2.117496,-2.430484 0.958264,-3.711414 -1.903315,-2.103144 -1.482086,-2.898377 0.532669,-1.005614 l 1.778285,1.670612 2.221773,-2.319032 2.221773,-2.319031 -1.784726,-1.715582 -1.784734,-1.71558 0.37173,2.13202 c 0.20445,1.172611 0.07225,2.317115 -0.293809,2.543341 -0.366042,0.226227 -0.665531,-0.646714 -0.665531,-1.939868 0,-1.293153 -0.285584,-2.351189 -0.634633,-2.351189 -0.743399,0 -4.451754,3.815179 -4.169175,4.289274 0.523761,0.878732 0.09642,3.396819 -0.576457,3.396819 -0.422735,0 -0.768609,-0.597419 -0.768609,-1.327598 0,-1.073124 -0.397778,-0.929819 -2.075222,0.747622 l -2.075214,2.07522 1.824893,1.94251 c 1.003689,1.068381 2.025132,1.942511 2.269865,1.942511 0.244733,0 1.436723,-1.050759 2.648858,-2.335021 z m 9.836201,1.062982 c 1.533391,-1.3877 1.809145,-3.831648 0.636977,-5.645444 -0.636739,-0.985278 -0.746781,-0.957339 -0.756842,0.192152 -0.0061,0.739786 -0.357641,1.345066 -0.780377,1.345066 -0.422735,0 -0.768609,-0.770356 -0.768609,-1.711902 0,-1.694353 -0.0206,-1.691307 -2.009006,0.297102 l -2.009007,2.009005 1.769247,2.39303 c 2.058282,2.783974 2.074814,2.788705 3.917617,1.120991 z M 43.437131,51.234756 c 2.560491,-2.453104 2.645384,-2.998805 0.633972,-4.075276 -1.401751,-0.750197 -1.488996,-0.615957 -1.106374,1.702328 0.406886,2.46526 0.393189,2.479431 -0.669651,0.692653 l -1.085038,-1.824095 -0.488229,1.824095 c -1.146442,4.283326 -0.450912,4.713736 2.71532,1.680295 z m 7.909351,-10.389443 c -0.01591,-3.683054 -1.449366,-3.523021 -1.97448,0.220437 -0.284332,2.02694 -1.069828,3.66411 -2.148302,4.477605 -0.935051,0.705307 -1.447844,1.534623 -1.13954,1.842925 0.308297,0.308301 1.620913,-0.467339 2.916911,-1.723644 1.698972,-1.646937 2.353305,-2.990895 2.345411,-4.817323 z m 5.775522,6.809304 c 0,-0.145849 -0.778216,-0.924066 -1.72937,-1.729371 l -1.729371,-1.464191 1.464193,1.729371 c 1.375972,1.625182 1.994548,2.079273 1.994548,1.464191 z M 42.084387,44.155118 c -0.482449,-0.48245 -1.854409,1.469656 -1.83557,2.611765 0.0069,0.422735 0.516905,0.102109 1.133199,-0.7125 0.616294,-0.814611 0.932361,-1.66928 0.702371,-1.899265 z m -6.483443,-0.94109 c 0,0.474498 0.555812,0.862722 1.235148,0.862722 0.770154,0 1.072148,-0.424767 0.802174,-1.128299 -0.23813,-0.620564 -0.09656,-1.336212 0.314607,-1.590328 0.411176,-0.254116 0.517413,-0.834448 0.236102,-1.289625 -0.344583,-0.557544 0.215633,-0.664816 1.716835,-0.328746 l 2.228313,0.498852 -2.113675,-1.179912 c -2.555972,-1.426811 -2.759915,-2.20415 -0.384305,-1.464767 1.714352,0.533575 1.716658,0.524013 0.265178,-1.101119 -0.887713,-0.99392 -1.096813,-1.639367 -0.531094,-1.639367 0.513201,0 0.719334,-0.345875 0.458068,-0.76861 -0.261265,-0.422735 -0.108743,-0.768609 0.338942,-0.768609 0.447684,0 0.813972,0.452705 0.813972,1.00601 0,0.553305 0.517835,1.677396 1.150754,2.49798 1.032358,1.33847 1.041643,1.215197 0.09026,-1.198162 -0.583267,-1.479573 -1.79285,-3.031555 -2.687965,-3.448848 -0.895115,-0.417295 -1.627484,-1.022574 -1.627484,-1.345067 0,-0.322493 -0.366288,-0.58635 -0.813973,-0.58635 -0.447684,0 -0.614979,0.321975 -0.371768,0.7155 0.243211,0.393525 0.09069,0.932748 -0.338941,1.198275 -0.42963,0.265526 -0.781146,0.09608 -0.781146,-0.376557 0,-0.472632 -0.373897,-0.628249 -0.830889,-0.345815 -0.456985,0.282435 -0.633242,1.300998 -0.391676,2.263473 0.330187,1.315557 0.05864,1.849473 -1.093808,2.15085 -2.217276,0.57983 -1.086214,2.842371 1.437845,2.876212 l 2.031442,0.02724 -1.921523,1.157741 c -1.77465,1.069245 -1.789338,1.121955 -0.192152,0.689579 1.005694,-0.272256 1.729371,-0.124856 1.729371,0.352241 0,0.451223 -0.853833,0.820404 -1.897405,0.820404 -1.384903,0 -1.775864,0.316703 -1.447452,1.172531 0.346965,0.904183 0.693254,0.970597 1.513091,0.290194 0.774436,-0.642725 1.063156,-0.648053 1.063156,-0.01962 z m -2.305828,-6.054762 c 0,-0.422735 0.345875,-0.768609 0.76861,-0.768609 0.422735,0 0.768609,0.345874 0.768609,0.768609 0,0.422736 -0.345874,0.76861 -0.768609,0.76861 -0.422735,0 -0.76861,-0.345874 -0.76861,-0.76861 z m 2.690133,-0.768609 c 0.261266,-0.422735 0.627554,-0.768609 0.813972,-0.768609 0.186419,0 0.338942,0.345874 0.338942,0.768609 0,0.422735 -0.366289,0.768609 -0.813973,0.768609 -0.447684,0 -0.600207,-0.345874 -0.338941,-0.768609 z m 0.384305,-2.260467 c 0,-0.397787 0.345874,-0.93701 0.768609,-1.198275 0.422735,-0.261265 0.768609,0.06419 0.768609,0.723249 0,0.659051 -0.345874,1.198275 -0.768609,1.198275 -0.422735,0 -0.768609,-0.325462 -0.768609,-0.723249 z m 28.371598,6.407153 c -0.673433,-0.811433 -0.589485,-1.163541 0.364682,-1.529691 0.681718,-0.261598 1.234186,-1.043908 1.227715,-1.738466 -0.01007,-1.077157 -0.116906,-1.096592 -0.72682,-0.132178 -1.16894,1.848353 -1.894999,0.200058 -0.886691,-2.012942 1.155919,-2.536955 -0.188356,-4.529078 -1.693054,-2.508994 -0.499958,0.671207 -1.42783,1.056198 -2.061933,0.855535 -0.634103,-0.200661 -0.905675,-0.09907 -0.603504,0.22575 0.302178,0.324825 0.203543,1.236862 -0.219192,2.02675 -0.45823,0.856215 -0.478229,1.436159 -0.0495,1.436159 0.395496,0 0.648307,1.022438 0.561784,2.272085 -0.121901,1.760782 0.198025,2.330627 1.421635,2.53223 2.55153,0.420391 3.691239,-0.189575 2.6649,-1.426238 z m -2.540954,-0.750806 c -0.655024,-1.706966 -0.580599,-2.627271 0.212467,-2.627271 0.373452,0 0.844302,0.864686 1.046331,1.921524 0.404642,2.116755 -0.518696,2.634426 -1.258798,0.705747 z m 1.070681,-6.515678 c 0,-0.447683 0.345874,-0.600209 0.768609,-0.338944 0.422735,0.261265 0.768609,0.627551 0.768609,0.813971 0,0.186419 -0.345874,0.338943 -0.768609,0.338943 -0.422735,0 -0.768609,-0.366287 -0.768609,-0.81397 z m -31.456588,0.464517 c 0.393297,0.243075 1.051757,-0.443544 1.46324,-1.52582 0.411482,-1.082275 1.189046,-1.97307 1.727933,-1.979543 0.688274,-0.0083 0.636762,-0.254358 -0.173129,-0.827124 -0.657084,-0.464696 -0.816717,-0.957347 -0.371185,-1.145517 0.429945,-0.181589 0.724069,-1.556005 0.653603,-3.054258 -0.08332,-1.771354 0.180915,-2.609881 0.755489,-2.397532 0.485992,0.179611 0.78136,0.763043 0.656377,1.296515 -0.284286,1.213445 2.90675,4.699754 3.797706,4.149113 0.361285,-0.223287 0.656884,-0.105797 0.656884,0.261089 0,0.366886 0.535552,1.338453 1.190123,2.159037 1.009391,1.265402 1.000783,1.101785 -0.05665,-1.077437 -0.685738,-1.413174 -1.452633,-2.363573 -1.704207,-2.111999 -0.564443,0.56445 -3.272284,-1.801085 -3.272284,-2.858632 0,-0.422735 0.75648,-0.109723 1.681063,0.695582 0.924584,0.805305 0.520818,-0.0058 -0.897251,-1.802398 -1.898488,-2.405289 -3.127556,-3.26659 -4.661385,-3.26659 -2.675805,0 -4.117355,1.739298 -3.495404,4.21737 0.35841,1.428008 0.180423,1.931504 -0.682779,1.931504 -1.590045,0 -1.483255,2.821378 0.141201,3.730471 1.079304,0.60401 1.137334,0.938975 0.330971,1.910584 -0.791998,0.954301 -0.788309,1.516103 0.01945,2.956669 l 0.997201,1.778502 0.263994,-1.74077 c 0.145198,-0.957424 0.585796,-1.541891 0.979101,-1.298816 z m -0.825003,-2.38604 c 0,-0.659051 0.351516,-0.981026 0.781146,-0.7155 0.429629,0.265527 0.582152,0.80475 0.338941,1.198275 -0.658883,1.066095 -1.120087,0.867307 -1.120087,-0.482775 z m 0,-2.644772 c 0,-0.422735 0.345875,-0.768609 0.76861,-0.768609 0.422735,0 0.768609,0.345874 0.768609,0.768609 0,0.422735 -0.345874,0.76861 -0.768609,0.76861 -0.422735,0 -0.76861,-0.345875 -0.76861,-0.76861 z m 0.76861,-2.351189 c 0,-0.447683 0.345874,-0.600208 0.768609,-0.338943 0.422735,0.261265 0.768609,0.627551 0.768609,0.81397 0,0.186419 -0.345874,0.338944 -0.768609,0.338944 -0.422735,0 -0.768609,-0.366287 -0.768609,-0.813971 z m 0,-2.260467 c 0,-0.422735 0.345874,-0.768609 0.768609,-0.768609 0.422735,0 0.768609,0.345874 0.768609,0.768609 0,0.422736 -0.345874,0.76861 -0.768609,0.76861 -0.422735,0 -0.768609,-0.345874 -0.768609,-0.76861 z m -1.537219,-1.66532 c 0,-0.49319 0.227578,-0.669129 0.505737,-0.390973 0.27816,0.278156 0.969908,0.120514 1.537219,-0.350315 0.648514,-0.538217 1.031481,-0.566272 1.031481,-0.07556 0,0.429269 -0.547096,0.990431 -1.215778,1.247026 -1.671541,0.641431 -1.858659,0.598123 -1.858659,-0.430174 z m 13.161735,12.220888 c -0.759094,-0.753442 -0.847376,-0.665157 -0.430268,0.430263 0.288636,0.758019 0.718412,1.184597 0.955059,0.947952 0.236647,-0.236645 4.92e-4,-0.856841 -0.524791,-1.378215 z M 57.98865,34.276982 c 0.975204,-1.243477 0.943844,-1.25799 -0.41518,-0.192153 -1.30672,1.024812 -1.429306,1.024812 -1.103277,0 0.201729,-0.634102 2.526104,-2.795816 5.165285,-4.803808 4.961227,-3.774698 5.060554,-4.853418 0.188901,-2.051485 l -2.780851,1.599409 2.661094,-2.368018 c 1.463609,-1.30241 3.279448,-2.368019 4.035199,-2.368019 1.761668,0 1.779538,2.202172 0.02905,3.577293 -0.860373,0.675875 -0.964235,0.983375 -0.288228,0.853343 0.581261,-0.111806 1.215363,0.229058 1.409122,0.757477 0.199454,0.543974 -0.249844,0.960762 -1.035709,0.960762 -1.166157,0 -1.097935,0.203159 0.426901,1.271197 1.409238,0.987065 2.123153,1.078685 3.194033,0.409908 1.038453,-0.648525 1.457352,-0.630276 1.695752,0.07387 0.174136,0.514337 0.177034,0.01693 0.0061,-1.105345 -0.170601,-1.122277 0.114723,-2.303107 0.634041,-2.624067 0.641781,-0.39664 0.797709,-0.201748 0.486814,0.608443 -0.339979,0.885969 -0.07751,1.092658 1.022297,0.805052 1.941345,-0.507601 1.903015,-2.546789 -0.05719,-3.059402 -1.766395,-0.461923 -2.083285,-1.759922 -0.429668,-1.759922 1.820105,0 2.222065,-1.562794 0.698789,-2.716827 -1.580414,-1.197321 -2.622595,-1.427984 -2.48393,-0.549763 0.226225,1.432773 -0.171162,2.024435 -0.748449,1.114338 -1.388654,-2.189238 -11.924788,3.442107 -11.217084,5.995298 0.175766,0.634103 -0.906966,2.449942 -2.406062,4.035199 -2.296858,2.428862 -2.491001,2.882285 -1.234125,2.882285 0.820329,0 1.966202,-0.60528 2.546379,-1.345066 z m 9.905652,-3.843047 c -0.0061,-0.951154 0.334107,-1.729371 0.756842,-1.729371 0.963006,0 0.963006,0.81568 0,2.305828 -0.60249,0.932292 -0.747327,0.82198 -0.756842,-0.576457 z m 0.756842,-3.31195 c 0,-0.447684 0.345874,-0.600209 0.768609,-0.338944 0.422735,0.261265 0.768609,0.627551 0.768609,0.81397 0,0.18642 -0.345874,0.338944 -0.768609,0.338944 -0.422735,0 -0.768609,-0.366287 -0.768609,-0.81397 z m -5.402524,3.918429 c 0.621859,-0.393277 0.967187,-0.878512 0.767402,-1.078302 -0.199792,-0.19979 -1.034102,0.127279 -1.854016,0.726818 -1.639782,1.199038 -0.722654,1.4957 1.086614,0.351484 z M 53.804003,28.56045 c -0.245356,-0.613145 -0.427485,-0.431018 -0.464363,0.464368 -0.03336,0.810242 0.14828,1.264202 0.403689,1.0088 0.255401,-0.255403 0.282702,-0.918328 0.06064,-1.473168 z m -6.49242,-9.428884 c 0.200776,-1.050292 0.110434,-1.752262 -0.200761,-1.559935 -0.311187,0.192328 -0.730071,1.209017 -0.930847,2.259308 -0.200776,1.050293 -0.110434,1.752263 0.200753,1.559935 0.311195,-0.192328 0.730079,-1.209016 0.930855,-2.259308 z M 59.936867,8.5285708 c -0.21322,-0.528419 -0.387679,-0.09608 -0.387679,0.960761 0,1.0568382 0.174459,1.4891812 0.387679,0.9607622 0.21322,-0.5284192 0.21322,-1.3931042 0,-1.9215232 z M 44.824256,6.1915638 c 0.765558,-0.28149 0.580961,-0.444306 -0.549418,-0.484599 -1.02534,-0.03655 -2.063224,0.627062 -2.60982,1.668692 -0.864048,1.646591 -0.837753,1.669787 0.549417,0.484599 0.801298,-0.684625 1.975718,-1.435537 2.609821,-1.668692 z"
     style="fill:#000000;stroke-width:0.76860929" />
</svg>
