<?xml version="1.0" encoding="UTF-8" standalone="no"?>
<svg
   xmlns:dc="http://purl.org/dc/elements/1.1/"
   xmlns:cc="http://creativecommons.org/ns#"
   xmlns:rdf="http://www.w3.org/1999/02/22-rdf-syntax-ns#"
   xmlns:svg="http://www.w3.org/2000/svg"
   xmlns="http://www.w3.org/2000/svg"
   id="svgKP5"
   version="1.1"
   viewBox="0 0 100 100"
   height="100"
   width="100">
  <defs
     id="defs2" />
  <metadata
     id="metadata5">
    <rdf:RDF>
      <cc:Work
         rdf:about="">
        <dc:format>image/svg+xml</dc:format>
        <dc:type
           rdf:resource="http://purl.org/dc/dcmitype/StillImage" />
        <dc:title></dc:title>
      </cc:Work>
    </rdf:RDF>
  </metadata>
  <path
     d="m 39.652344,5.0058594 c -1.082366,-0.074513 -2.278114,0.5496007 -3.59961,1.8710937 -1.708001,1.707999 -1.914062,2.2415838 -1.914062,4.9804689 0,3.881611 1.3348,5.940616 5.910156,9.126953 1.857015,1.293251 3.936304,3.18029 4.621094,4.191406 1.14045,1.683898 1.173874,1.946376 0.396484,3.132813 -0.5077,0.774988 -0.709573,1.850537 -0.501953,2.677734 0.24259,0.966582 -0.08176,2.013156 -1.076172,3.478516 -0.78231,1.152788 -1.576595,2.584081 -1.765625,3.179687 -0.46746,1.472836 -1.022974,1.365698 -2.955078,-0.566406 -2.319957,-2.319952 -3.501953,-5.10983 -3.501953,-8.263672 0,-2.444728 -0.08494,-2.624043 -0.871094,-1.837891 -0.786154,0.786153 -0.750438,1.237965 0.369141,4.648438 0.975093,2.970342 1.79214,4.285658 3.824219,6.144531 2.517351,2.302779 2.578697,2.436055 2.304687,5.09375 l -0.28125,2.728516 -1.558594,-1.230469 c -1.39049,-1.098315 -3.224609,-3.84011 -3.224609,-4.820312 0,-0.202184 0.89425,0.418334 1.988281,1.378906 2.086372,1.831859 2.513672,2.04734 2.513672,1.277344 0,-0.257204 -0.678365,-0.826447 -1.505859,-1.265625 -0.827498,-0.439179 -2.218982,-1.924799 -3.09375,-3.300782 -2.1539,-3.387997 -2.060383,-1.456844 0.154297,3.183594 1.141954,2.392751 2.314663,3.977983 3.392578,4.583985 1.559015,0.876477 2.707309,3.114952 1.974609,3.847656 -0.553127,0.553132 -4.653296,-2.444902 -6.302734,-4.607422 -1.818196,-2.383774 -3.745925,-8.857896 -3.251953,-10.923828 0.191971,-0.802873 0.712614,-2.178699 1.15625,-3.058594 0.443643,-0.879896 0.66989,-1.73636 0.503906,-1.902344 -0.165989,-0.165986 -0.612839,0.383835 -0.994141,1.220703 l -0.693359,1.521485 -1.478516,-2.998047 c -0.813391,-1.648006 -2.410665,-4.49908 -3.548828,-6.337891 -2.152831,-3.478104 -2.718791,-6.757771 -1.394531,-8.082031 1.003086,-1.003086 1.450598,-0.83809 2.378906,0.873047 l 0.839844,1.546875 0.02344,-1.583985 c 0.03836,-2.697785 -0.891601,-3.761718 -3.289062,-3.761718 -2.7614,0 -6.23063,2.455776 -8.1875,5.794922 -2.991106,5.103936 -1.161216,14.730682 3.792969,19.951172 0.954573,1.005884 1.465564,1.828124 1.134765,1.828124 -1.1114,0 -5.090635,-4.856752 -5.802734,-7.082031 -0.387836,-1.211972 -0.904563,-2.419759 -1.148438,-2.685547 -0.742944,-0.809706 -1.266057,6.661639 -0.832031,11.882813 0.44333,5.333104 1.410684,7.817355 4.345703,11.160156 2.99137,3.406982 5.585675,4.730435 9.292969,4.740235 2.303956,0.0061 3.001306,0.167605 2.402344,0.554687 -2.193734,1.417698 -11.253907,-0.37157 -11.253907,-2.222656 0,-0.324635 -0.356727,-0.591797 -0.792968,-0.591797 -0.676785,0 -0.683439,0.417797 -0.04297,2.845703 0.412832,1.564977 1.072654,3.274659 1.466797,3.798828 3.310145,4.402186 7.209098,6.861328 10.875,6.861328 1.69875,0 2.000253,0.192376 2.001953,1.267578 0.0028,1.684012 1.849162,4.634648 3.628906,5.800782 0.788535,0.516668 1.433594,1.427694 1.433594,2.023437 0,1.834852 2.083814,5.283598 3.613281,5.980469 1.33497,0.608247 1.772337,1.746829 1.498047,3.902344 -0.15712,1.23472 2.116886,5.049654 3.910156,6.558593 C 47.502939,94.334174 48.624797,95 49.029297,95 c 0.86651,0 4.439191,-3.827827 5.337891,-5.71875 0.60381,-1.270416 0.591419,-1.267372 -0.375,0.06836 -3.81156,5.268126 -4.954545,5.726762 -7.677735,3.082032 -1.95617,-1.899805 -3.536233,-6.518884 -2.845703,-8.31836 0.19927,-0.519295 -0.27922,-1.000817 -1.375,-1.382812 -2.066741,-0.720467 -3.538357,-2.857132 -3.650391,-5.302735 -0.06168,-1.346316 -0.501702,-2.106137 -1.636718,-2.822265 -1.765827,-1.114132 -3.877389,-4.253426 -3.658203,-5.439453 0.08143,-0.440665 1.653766,-1.219146 3.537109,-1.75 1.864711,-0.525598 4.230862,-1.390818 5.257812,-1.921875 2.32811,-1.20391 2.858686,-0.81994 0.947266,0.683593 -0.79006,0.621454 -1.435547,1.331778 -1.435547,1.580078 0,0.248294 0.876046,-0.397275 1.947266,-1.435546 1.07122,-1.038264 1.836582,-2.06801 1.701172,-2.28711 -0.13541,-0.219095 0.192232,-0.791445 0.726562,-1.273437 0.84177,-0.759321 1.114931,-0.77039 2.050781,-0.08398 0.97414,0.714479 0.996623,0.88891 0.226563,1.785157 -1.52801,1.778388 -1.869407,2.759314 -0.560547,1.611328 l 1.220703,-1.072266 -0.197266,1.693359 c -0.23415,2.011004 -0.826323,3.109467 -1.464843,2.714844 -0.49633,-0.306757 -3.678258,3.554167 -3.267578,3.964844 0.13568,0.13568 0.922003,-0.701158 1.746093,-1.859375 0.94193,-1.323857 1.498047,-1.756119 1.498047,-1.162109 0,0.519689 -0.252707,1.100761 -0.560547,1.291015 -0.30783,0.190254 -0.830169,0.900933 -1.162109,1.580078 -0.51994,1.063796 -0.444475,1.040123 0.546875,-0.171875 1.47297,-1.800857 1.508481,-0.83237 0.05664,1.548828 -1.175,1.927146 -0.938093,2.522078 0.335937,0.84375 0.62905,-0.828663 0.750525,-0.847243 0.765625,-0.113281 0.0099,0.479729 -0.286803,1.177424 -0.658203,1.548828 -0.40933,0.409354 -0.444444,0.673829 -0.08984,0.673829 0.32173,0 0.874013,-0.632492 1.226563,-1.40625 0.43088,-0.945689 0.448394,-1.40625 0.05273,-1.40625 -0.35872,-10e-7 -0.425865,-0.49592 -0.171875,-1.267579 0.22921,-0.696382 0.377831,-1.898117 0.332031,-2.671875 -0.0692,-1.168532 0.01058,-1.247746 0.46875,-0.466796 0.36214,0.617217 0.355972,1.486097 -0.01758,2.53125 -0.52225,1.461209 -0.50179,1.506342 0.25586,0.53125 0.74882,-0.963732 0.810507,-0.763034 0.648437,2.158203 -0.09826,1.771235 0.01078,4.020378 0.244141,5 0.37946,1.592934 0.505823,1.453489 0.751953,-0.84375 0.03869,-0.361083 0.365986,-0.756113 0.728516,-0.876953 0.430299,-0.143453 0.546654,0.212129 0.333984,1.02539 -0.20512,0.784383 -0.109598,1.113793 0.257812,0.886719 0.9192,-0.568102 1.232042,-2.528476 0.451172,-2.828125 -0.44278,-0.169912 -0.707031,-1.371574 -0.707031,-3.216797 0,-2.75433 0.04761,-2.857716 0.748047,-1.59375 0.41202,0.743505 0.758531,1.151219 0.769531,0.908203 0.01096,-0.243016 0.525521,-0.169172 1.144531,0.16211 0.93151,0.498524 1.121969,0.429111 1.105469,-0.402344 -0.02444,-1.23073 -1.618584,-4.143048 -1.646484,-3.007813 -0.0146,0.593846 -0.258407,0.51863 -0.910157,-0.28125 -0.759959,-0.93269 -0.846411,-0.948274 -0.582031,-0.107422 0.17031,0.541631 0.06542,0.984375 -0.234375,0.984375 -0.6298,0 -0.648997,-0.127259 -0.773437,-5.261718 l -0.09375,-3.855469 1.287109,1.494141 c 0.70739,0.822388 1.280438,1.798348 1.273438,2.167968 -0.0069,0.36962 -0.5445,0.03938 -1.19336,-0.734375 l -1.179687,-1.408203 0.832031,1.408203 c 0.45696,0.773758 1.516879,2.760355 2.355469,4.416016 0.83858,1.655667 1.657139,2.878025 1.818359,2.716797 0.16123,-0.161229 -0.363022,-1.410466 -1.164062,-2.777344 -1.65185,-2.818672 -1.741187,-3.173215 -0.753907,-3.023438 1.09811,0.166597 2.111329,0.926308 2.111329,1.583985 0,0.35352 -0.38666,0.282425 -0.94336,-0.173828 -0.8202,-0.672162 -0.810104,-0.573403 0.06641,0.773437 1.11344,1.710966 1.753271,2.048819 1.212891,0.640625 -0.2563,-0.66793 -0.1083,-0.814045 0.5625,-0.55664 0.55694,0.21372 0.285984,-0.388958 -0.697266,-1.550782 -0.88423,-1.044809 -1.828799,-1.869944 -2.099609,-1.833984 -0.27082,0.03594 -0.606914,-0.24421 -0.746094,-0.623047 -0.19462,-0.529766 0.145823,-0.549831 1.476563,-0.08594 0.95162,0.331737 1.730469,0.943662 1.730469,1.359375 0,0.415708 0.25047,0.910519 0.55664,1.099609 0.33022,0.204086 0.405087,-0.04703 0.185547,-0.619141 -0.3056,-0.796374 -0.132463,-0.900496 0.992187,-0.599609 0.74859,0.200271 1.939215,0.366594 2.646485,0.371094 1.13961,0.0068 1.215625,0.151376 0.671875,1.273437 -0.52072,1.074538 -0.502216,1.131031 0.121094,0.371094 0.4585,-0.559008 2.019103,-1.010676 4.152343,-1.203125 5.74663,-0.518435 10.754987,-3.830333 13.785157,-9.113281 0.90143,-1.571606 1.641531,-3.574479 1.644531,-4.453125 l 0.0039,-1.597657 -1.679687,1.41211 c -3.22264,2.711668 -11.117252,4.791593 -12.107422,3.189453 -0.21214,-0.343239 0.638697,-0.5625 2.179687,-0.5625 1.81585,0 3.678067,-0.594608 6.623047,-2.111328 4.82152,-2.483175 7.925216,-6.104482 8.972656,-10.470703 0.67024,-2.793878 0.419825,-12.090794 -0.359375,-13.351563 -0.21883,-0.354076 -0.855682,0.430867 -1.476562,1.822266 -1.27097,2.84826 -4.239165,6.129967 -5.208985,5.757812 -0.36902,-0.141605 -1.109471,0.227127 -1.644531,0.81836 -0.93251,1.03042 -0.914813,1.074219 0.410157,1.074219 1.532619,0 5.291906,-3.539194 6.691406,-6.298829 l 0.841797,-1.65625 0.365234,2.78125 c 0.52377,3.970458 -0.447416,10.531679 -1.910156,12.898438 -2.65022,4.288151 -9.383886,8.173828 -14.166016,8.173828 -2.07517,0 -2.224474,-0.09104 -1.527344,-0.931641 0.42477,-0.512198 1.610959,-1.282165 2.636719,-1.710937 2.55197,-1.066723 5.743705,-3.443891 7.859375,-5.853516 1.5936,-1.81501 4.625,-7.123182 4.625,-8.097656 0,-0.215077 -1.150584,0.706908 -2.558594,2.048828 -2.64666,2.522433 -6.815977,5.541016 -7.654297,5.541016 -0.26294,0 -0.478515,-0.736534 -0.478515,-1.634766 0,-1.26452 0.350618,-1.765399 1.548828,-2.21875 0.85114,-0.322032 2.146649,-1.067001 2.880859,-1.65625 l 1.335938,-1.070312 -1.617188,0.123047 c -0.88897,0.06812 -2.312932,0.403167 -3.164062,0.74414 -0.85113,0.340971 -1.546875,0.41025 -1.546875,0.154297 0,-0.255954 1.239939,-2.33912 2.755859,-4.628906 1.51592,-2.289787 3.162363,-5.374513 3.658203,-6.855469 1.03359,-3.087044 1.218164,-6.855111 0.308594,-6.292969 -0.32587,0.201381 -0.497352,0.646595 -0.382812,0.990235 0.11455,0.343639 -0.114803,1.016962 -0.507813,1.496093 -0.39301,0.479131 -2.258704,2.967554 -4.146484,5.529297 -1.88778,2.561743 -3.630237,4.53483 -3.873047,4.384766 -0.24282,-0.150063 -0.473772,-1.142293 -0.513672,-2.205078 -0.05302,-1.410403 0.694361,-3.196641 2.769531,-6.613282 3.91447,-6.444922 4.996094,-8.672191 4.996094,-10.285156 0,-1.805228 -0.537986,-3.162109 -1.253906,-3.162109 -0.32795,0 -0.271488,0.360493 0.132812,0.847656 1.21723,1.466668 0.237632,4.385856 -3.611328,10.751953 -2.18347,3.611404 -3.731984,6.819274 -3.771484,7.814453 -0.03767,0.950128 -0.179369,1.257367 -0.324219,0.703125 -0.14154,-0.54163 -0.486475,-0.984375 -0.765625,-0.984375 -0.28074,0 -0.242352,0.690969 0.08594,1.546875 0.733399,1.912097 0.256156,5.196355 -1.158204,7.96875 -1.08272,2.122293 -5.185107,6.240235 -6.216796,6.240235 -0.990121,0 -0.598727,-2.191414 0.496093,-2.777344 1.38858,-0.743147 5.958638,-9.845533 5.398438,-10.751953 -0.28958,-0.468553 -0.834186,-0.01606 -1.691407,1.404297 -0.69605,1.153306 -2.11686,2.993153 -3.15625,4.08789 -1.039699,1.094736 -1.509181,1.877776 -1.044921,1.740235 0.46425,-0.137541 1.720998,-1.424341 2.792968,-2.859375 1.07196,-1.435035 2.043267,-2.513378 2.160157,-2.396485 0.31349,0.313491 -3.731239,7.394463 -4.667969,8.171875 -0.65026,0.539668 -0.854102,0.417833 -1.076172,-0.648437 -0.81361,-3.906503 -0.708201,-4.968321 0.574219,-5.808594 1.86237,-1.220273 4.874327,-5.841443 5.310547,-8.146484 l 0.376953,-1.992188 0.695312,1.828125 c 0.38263,1.005885 0.918817,1.830078 1.191406,1.830078 0.54026,0 -0.282658,-2.120888 -1.855468,-4.783203 l -0.996094,-1.689453 -0.0039,2.814453 c -0.0044,2.976091 -1.145073,5.454926 -3.820313,8.300782 -1.46538,1.558836 -2.933593,2.040589 -2.933593,0.964843 0,-0.979313 -1.683635,-4.673797 -1.990235,-4.367187 -0.15847,0.158467 0.253526,1.52707 0.916016,3.041015 1.48184,3.38634 2.120587,11.963573 1.117187,15.003907 -0.7057,2.138289 -4.461017,7.43352 -4.935547,6.958984 -0.15475,-0.154751 0.605264,-1.44336 1.689453,-2.863281 1.08419,-1.419921 2.281137,-3.875123 2.660157,-5.455078 0.70564,-2.941431 0.406,-9.104179 -0.5,-10.271485 -0.96184,-1.239275 -1.856498,-6.106392 -1.236328,-6.726562 0.71993,-0.71994 0.759942,-3.166416 0.07031,-4.25586 -0.63834,-1.008428 1.366659,-4.28245 5.199219,-8.490234 3.87043,-4.24936 4.884719,-6.078111 4.886719,-8.822266 0.0033,-3.7042696 -2.523067,-5.4434442 -5.597657,-3.8535152 -1.25711,0.6500819 -1.716796,1.2865161 -1.716796,2.3769531 0,2.8849951 3.444429,4.8654271 4.21875,2.4257811 0.731439,-2.3045759 -1.627092,-3.2431992 -2.488282,-0.990234 -0.47923,1.253721 -0.487816,1.250657 -0.878906,-0.25 -0.47972,-1.8407712 -0.06116,-2.6040435 1.8125,-3.3164065 2.29813,-0.873747 4.089844,0.6416964 4.089844,3.4589845 0,2.638829 -0.738638,3.907213 -5.423828,9.326172 -1.90867,2.207582 -3.761308,4.557689 -4.117188,5.222656 l -0.646484,1.208984 -1.703125,-1.210937 c -0.9365,-0.666842 -1.97736,-1.815214 -2.3125,-2.550781 -0.76382,-1.676407 -1.364106,-1.698227 -1.878907,-0.07031 -0.22022,0.696382 -0.778504,1.842538 -1.240234,2.548828 l -0.83789,1.285156 -1.28711,-1.892578 c -0.70737,-1.040979 -2.931408,-2.963871 -4.941406,-4.273437 -4.002308,-2.607607 -5.4375,-4.782376 -5.4375,-8.238281 0,-4.6545214 4.548303,-8.1904478 6.861328,-5.3339848 1.05352,1.3010511 1.248419,2.7474669 0.662109,4.9355468 -0.38788,1.447529 -2.770959,2.297401 -3.736328,1.332031 -0.470281,-0.470282 -0.384485,-0.634765 0.333985,-0.634765 0.532789,0 1.261383,-0.640591 1.61914,-1.425782 C 40.980979,9.6673245 40.924414,9.2586374 40.111328,8.4589844 39.184895,7.5478704 39.072382,7.5686048 38.042969,8.8242188 36.708977,10.451339 36.664925,11.58959 37.884766,12.9375 41.104475,16.495246 45.008902,10.300304 41.976562,6.4453125 41.267382,5.5437318 40.494184,5.0638142 39.652344,5.0058594 Z M 39.431641,9.078125 c 0.560831,0.072471 0.935131,0.7586938 0.574218,1.699219 -0.381094,0.993114 -1.659869,1.265299 -2.158203,0.458984 -0.163102,-0.263906 0.05868,-0.961601 0.492188,-1.548828 0.351481,-0.4761184 0.755298,-0.6528575 1.091797,-0.609375 z m 21.61914,1.453125 c 0.223289,0.03024 0.425853,0.193564 0.53125,0.509766 0.0982,0.294582 -0.230649,0.692966 -0.730469,0.884765 -0.626939,0.240582 -0.851822,0.07804 -0.726562,-0.523437 0.125287,-0.601589 0.553633,-0.921496 0.925781,-0.871094 z m 14.419922,1.017578 c -2.11878,0.06006 -4.191406,1.46748 -4.191406,2.847656 0,0.570211 0.298925,0.453907 0.984375,-0.384765 0.54163,-0.662707 1.885938,-1.349335 2.986328,-1.525391 2.59862,-0.415768 5.219795,1.686996 7.078125,5.677734 2.36639,5.081804 1.213989,13.297592 -2.332031,16.628907 -0.7706,0.723935 -1.400391,1.569402 -1.400391,1.878906 0,1.238537 2.925375,-2.288833 4.333985,-5.226563 2.880329,-6.007106 1.723088,-12.914038 -2.925782,-17.476562 -2.08029,-2.041655 -2.875533,-2.466912 -4.533203,-2.419922 z m -49.53125,0.353516 c 0.525319,0.0489 0.960158,0.210158 1.248047,0.498047 0.646571,0.646575 0.529301,0.76301 -0.751953,0.74414 -1.066321,-0.0157 -1.769534,0.420673 -2.361328,1.462891 -1.101145,1.939248 -0.272531,4.865607 2.535156,8.947266 2.715894,3.948217 4.125655,7.175687 4.140625,9.480468 l 0.01367,1.904297 -3.304688,-4.15625 c -5.256629,-6.611762 -7.243691,-8.189629 -6.916015,-5.494141 0.51416,4.229526 2.451991,7.862393 5.802734,10.875 1.915126,1.721863 2.752979,2.884553 2.628906,3.648438 -0.17924,1.103505 -0.217105,1.105245 -2.46875,0.0918 -5.738388,-2.582803 -9.716255,-8.737321 -10.238281,-15.839844 -0.317939,-4.325764 0.816851,-7.152709 3.986328,-9.935547 1.715809,-1.506501 4.109589,-2.373267 5.685547,-2.226562 z m 23.273438,11.105468 c 0.49859,0.117373 1.429637,0.926805 2.84375,2.460938 2.57555,2.794141 3.388607,4.962075 2.335937,6.230469 -0.89444,1.077729 -2.808594,1.086152 -2.808594,0.01172 0,-0.503428 0.32957,-0.701215 0.84375,-0.503907 0.46425,0.178151 0.84375,0.04379 0.84375,-0.298828 0,-0.342616 -0.537622,-0.623047 -1.195312,-0.623047 -1.00369,0 -1.146022,0.249934 -0.888672,1.548828 0.20798,1.049729 -0.04639,1.980774 -0.791016,2.896485 -1.05617,1.298829 -1.126684,1.310799 -1.865234,0.300781 -0.65648,-0.897792 -0.642118,-1.143332 0.107422,-1.691406 1.01377,-0.741286 0.599299,-2.346098 -0.738281,-2.859375 -0.49208,-0.188828 -1.192524,-0.0192 -1.558594,0.376953 -0.52472,0.567823 -0.466566,0.649407 0.277344,0.388672 0.51901,-0.181906 1.244348,0.03046 1.611328,0.472656 0.52789,0.636062 0.477695,0.863932 -0.240235,1.091797 -2.99153,0.949488 -2.919208,0.831144 -1.324218,2.144531 1.48848,1.225668 1.493665,1.252279 0.447265,2.50586 -1.06359,1.274158 -3.157518,1.217927 -2.673828,-0.07227 0.82931,-2.212126 1.0196,-3.270569 0.53125,-2.96875 -0.29952,0.185113 -0.987374,1.911488 -1.527344,3.835937 -1.67413,5.966538 -0.587235,12.983793 3.140625,20.291016 0.62718,1.229374 1.012172,2.362826 0.857422,2.517578 -0.23081,0.230799 -2.69595,-3.927784 -2.90039,-4.892578 -0.03279,-0.154752 -0.45674,-1.190947 -0.94336,-2.302734 -1.28794,-2.942552 -2.302224,-9.694325 -1.871094,-12.464844 0.40833,-2.623962 2.907917,-8.304688 3.654297,-8.304688 0.25726,0 0.343887,-0.950691 0.191407,-2.111328 -0.22652,-1.724089 0.04128,-2.546106 1.460937,-4.496093 0.95569,-1.312708 1.736328,-2.642896 1.736328,-2.955079 0,-0.421718 0.144206,-0.59972 0.44336,-0.529297 z m -28.144532,1.751954 c 0.340537,0.01406 1.247746,0.856217 2.833985,2.572265 3.404462,3.683064 5.734375,7.152549 5.734375,8.541016 0,1.750005 -1.402557,1.411897 -3.708985,-0.894531 -1.649013,-1.649013 -4.430588,-6.389796 -4.15039,-7.074219 0.03387,-0.08273 -0.203744,-0.848086 -0.527344,-1.699219 -0.36779,-0.96736 -0.446502,-1.456251 -0.181641,-1.445312 z m 56.732422,0.603515 c 0.3765,0.376499 -1.013833,4.6289 -2.345703,7.173828 -0.7289,1.392764 -2.042079,3.378179 -2.917969,4.41211 l -1.59375,1.878906 -0.675781,-1.482422 c -0.62485,-1.371405 -0.471893,-1.728884 2.029297,-4.734375 1.48772,-1.787679 3.290096,-4.194642 4.003906,-5.349609 0.7138,-1.154966 1.38895,-2.009496 1.5,-1.898438 z M 15.375,31.564453 c 0.106879,0.04431 0.205618,0.379756 0.371094,1.039063 0.848404,3.380313 6.775748,8.197917 11.976562,9.734375 0.840316,0.248251 1.194576,0.83367 1.228516,2.027343 0.02623,0.922548 -0.18283,1.677735 -0.464844,1.677735 -0.886725,0 -9.208113,-4.022526 -10.320312,-4.988281 -1.038096,-0.901413 -1.040046,-0.876834 -0.05469,1.048828 1.576372,3.080664 5.126225,7.651694 6.951172,8.951172 0.91275,0.649935 2.638617,1.220668 3.835938,1.267578 1.591471,0.06236 2.456827,0.456694 3.21875,1.466796 0.862163,1.142996 0.908081,1.466136 0.265624,1.873047 -1.274601,0.807285 -6.838168,0.56889 -8.654296,-0.371093 C 21.335882,54.052647 17.908671,50.61972 16.669922,48.220703 14.85633,44.708422 13.829156,35.155129 14.955078,32.275391 15.153814,31.767091 15.268121,31.52014 15.375,31.564453 Z m 37.419922,2.871094 c 0.620451,0.06244 1.173776,0.479428 1.519531,1.238281 1.22212,2.682261 0.286421,4.411724 -1.042969,1.927734 -0.33129,-0.619006 -0.860854,-1.125 -1.177734,-1.125 -0.31689,0 -0.447686,0.207437 -0.291016,0.460938 0.15668,0.253497 -0.43113,0.355061 -1.30664,0.226562 -0.87598,-0.128566 -1.781439,0.07075 -2.011719,0.44336 -0.29414,0.475922 -0.08599,0.572818 0.697266,0.324219 1.81067,-0.574684 3.674459,0.427544 3.849609,2.070312 0.08623,0.808786 -0.209973,1.774487 -0.658203,2.146485 -0.67295,0.5585 -0.746655,0.498736 -0.421875,-0.347657 0.37333,-0.972866 0.326022,-0.977403 -0.955078,-0.08008 -0.74237,0.519974 -1.519473,0.945313 -1.726563,0.945313 -0.47052,0 -1.289484,-2.831435 -1.115234,-3.855469 0.08274,-0.486211 -0.137168,-0.602276 -0.611328,-0.324219 -0.40758,0.239013 -0.259522,-0.116854 0.330078,-0.789062 0.5896,-0.672208 1.666778,-1.220704 2.392578,-1.220704 0.72579,0 1.318359,-0.269887 1.318359,-0.597656 0,-0.327768 -0.316245,-0.415687 -0.703125,-0.197265 -0.55961,0.315736 -0.560992,0.242922 -0.0078,-0.353516 0.6142,-0.66224 1.301424,-0.955022 1.921875,-0.892578 z m 15.625,1.5625 c 0.508712,-0.107612 1.189762,1.506875 2.289062,5.091797 0.46422,1.514037 0.47442,2.966344 0.03711,5.332031 -0.64668,3.498221 -2.261373,5.93992 -5.851563,8.845703 -1.72544,1.396512 -2.729842,1.736995 -5.664062,1.923828 -2.31191,0.147211 -3.706977,4.79e-4 -3.966797,-0.419922 -0.44682,-0.722971 0.710274,-2.424035 1.371094,-2.015625 0.85786,0.530189 5.428722,-1.655731 7.539062,-3.605468 1.93363,-1.786478 5.267541,-7.695347 4.675781,-8.28711 -0.12448,-0.124484 -1.280369,1.169062 -2.568359,2.875 -2.38238,3.155438 -4.714566,4.806641 -6.791016,4.806641 -1.70601,0 -1.399186,-1.450083 0.470704,-2.22461 3.48018,-1.441536 6.863361,-5.991699 7.675781,-10.322265 0.234671,-1.250904 0.477975,-1.935433 0.783203,-2 z M 30.535156,36.90625 c 0.261108,0.045 0.584503,0.914055 1.289063,3.03125 1.472154,4.423822 4.206423,7.809554 7.662109,9.482422 2.455411,1.188649 3.418559,2.8125 1.667969,2.8125 -1.138472,0 -6.077172,-2.518578 -7.261719,-3.703125 -1.645382,-1.645385 -1.607722,-0.3837 0.05078,1.707031 1.997668,2.518296 4.987418,4.537117 7.533203,5.089844 1.97058,0.427841 2.947004,1.262749 2.439454,2.083984 -0.36721,0.594167 -3.333148,0.474999 -6.050782,-0.24414 C 35.11432,56.438065 31.820739,53.186332 30.867188,50.257812 29.897937,47.281055 29.393776,39.366513 30.0625,37.625 c 0.182526,-0.475345 0.315991,-0.745749 0.472656,-0.71875 z M 22.509766,39 c 0.374172,0.01505 1.589063,0.481172 2.93164,1.138672 1.534374,0.751428 2.536066,1.368194 2.226563,1.371094 -0.861901,0.008 -5.547759,-2.206148 -5.265625,-2.488282 0.01708,-0.01707 0.05397,-0.02363 0.107422,-0.02148 z m 22.9375,0.333984 c 0.49365,-0.02444 1.358012,0.463082 1.919922,1.083985 0.561919,0.620904 0.879901,1.27049 0.707031,1.443359 -0.17287,0.172869 -0.657722,-0.167702 -1.076172,-0.757812 -0.41845,-0.59011 -1.139266,-1.21921 -1.603516,-1.398438 -0.71878,-0.277496 -0.711615,-0.333264 0.05273,-0.371094 z m 8.99414,0.03711 c 0.237304,0.02545 0.491472,0.212179 0.847656,0.568359 1.122291,1.1223 1.790461,5.541016 0.837891,5.541016 -0.36856,0 -0.513545,0.252997 -0.322265,0.5625 0.19128,0.309503 0.214864,0.5625 0.05273,0.5625 -0.16212,0 -0.554687,-0.487159 -0.873047,-1.082031 -0.31836,-0.594873 -0.993237,-1.495194 -1.498047,-2 -0.84862,-0.848621 -0.815518,-1.028305 0.419922,-2.384766 1.20682,-1.325048 1.227447,-1.428123 0.210938,-1.0625 -0.90629,0.325984 -0.987649,0.267223 -0.417969,-0.306641 0.28528,-0.287382 0.504884,-0.423889 0.742187,-0.398437 z m -10.271484,1.042968 c 1.40323,0 3.701243,2.541462 3.283203,3.63086 -0.1842,0.480003 -0.834852,0.871094 -1.445313,0.871094 -1.21349,0 -2.092498,0.914478 -1.173828,1.220703 0.31449,0.104828 -0.0017,0.546838 -0.701172,0.982422 -1.16461,0.725283 -1.205336,0.713237 -0.498046,-0.142579 0.50199,-0.607407 0.551175,-0.933593 0.140625,-0.933593 -0.38281,0 -0.632813,-1.109208 -0.632813,-2.814453 0,-2.348961 0.169644,-2.814454 1.027344,-2.814454 z m 36.740234,0.484376 -1.107422,2.148437 c -1.23455,2.395868 -3.758407,4.957239 -7.054687,7.160156 -1.20382,0.804524 -2.363115,1.462891 -2.578125,1.462891 -0.215,0 0.13618,-1.13873 0.78125,-2.53125 0.64507,-1.392522 1.473417,-2.532961 1.841797,-2.533203 0.36838,-2.44e-4 2.346731,-1.28396 4.394531,-2.853516 z m -61.464844,1.808593 c 0.220111,-0.0038 0.679422,0.249693 1.373047,0.775391 0.566178,0.429105 2.614008,1.338435 4.548829,2.021484 3.264355,1.152415 3.583005,1.418661 4.429687,3.703125 l 0.912109,2.462891 -1.521484,-0.03516 c -2.932418,-0.06879 -4.965357,-1.653153 -8.814453,-6.859375 -0.994225,-1.344771 -1.294585,-2.061984 -0.927735,-2.06836 z m 30.96875,0.652344 c 0.660315,-0.04447 1.347529,0.05507 1.910157,0.330078 1.0921,0.533813 1.036315,0.56771 -0.490235,0.302735 -1.17078,-0.203225 -1.956607,-0.01394 -2.460937,0.59375 -0.93967,1.132233 -1.795398,1.160828 -1.367188,0.04492 0.277482,-0.7231 1.30768,-1.197374 2.408203,-1.271484 z m 0.951172,1.576172 c 0.717612,-0.0089 1.397338,0.173681 1.632813,0.554687 0.1952,0.315839 -0.249811,1.292295 -0.988281,2.169922 l -1.341797,1.595703 -0.890625,-1.550781 c -0.64671,-1.126839 -0.721758,-1.721596 -0.273438,-2.169922 0.38875,-0.388751 1.143717,-0.590706 1.861328,-0.599609 z M 67.3125,45.746094 c 0.01836,0.01252 0.02734,0.04017 0.02734,0.08203 0,0.70356 -2.805688,4.683453 -3.986328,5.654297 -1.30613,1.074041 -6.705078,3.030314 -6.705078,2.429687 -10e-7,-0.880359 2.1617,-2.804687 3.15039,-2.804687 1.80354,0 4.830492,-1.897997 6.169922,-3.869141 0.660503,-0.972014 1.215215,-1.579845 1.34375,-1.492187 z m -20.75,0.298828 c 1.06849,-0.0025 2.870896,1.947559 3.785156,4.095703 0.55155,1.295925 0.522878,1.622819 -0.169922,1.888672 -0.46065,0.176748 -0.69694,0.548612 -0.52539,0.826172 0.17154,0.27756 -0.526331,1.305274 -1.550782,2.285156 -1.74875,1.672669 -1.766318,1.722053 -0.267578,0.798828 0.87799,-0.540847 1.66876,-0.89898 1.75586,-0.796875 0.08711,0.102106 -0.537769,0.747741 -1.386719,1.435547 l -1.542969,1.25 -0.978515,-2.564453 c -0.74947,-1.962465 -0.82409,-2.718964 -0.31836,-3.220703 0.50482,-0.500848 0.575605,-0.389031 0.302735,0.470703 -0.33435,1.05349 -0.314746,1.05986 0.302734,0.09375 0.47502,-0.743201 1.050834,-0.934573 2.058594,-0.681641 0.8923,0.223954 1.271059,0.142492 1.042968,-0.226562 -0.20994,-0.339693 -0.01018,-0.445641 0.484376,-0.25586 1.57471,0.604273 -0.353177,-3.232677 -2.191407,-4.361328 -0.98778,-0.606483 -1.319591,-1.035909 -0.800781,-1.037109 z m 7.6875,0.603516 c 0.108916,-0.04659 0.08288,0.100927 -0.08984,0.40039 -0.31446,0.545188 -0.06256,0.636814 1.011719,0.367188 1.38099,-0.346609 1.412033,-0.295822 0.908203,1.460937 -0.61994,2.161596 -0.887061,2.499062 -1.363281,1.728516 -0.19566,-0.31658 -0.771227,-0.41567 -1.279297,-0.220703 -0.7328,0.281203 -0.834064,0.130183 -0.490234,-0.728516 0.23839,-0.595363 0.486481,-1.391611 0.550781,-1.769531 0.0643,-0.377921 0.332736,-0.883914 0.597656,-1.125 0.06622,-0.06027 0.117992,-0.09775 0.154297,-0.113281 z m -8.714844,0.529296 c 0.32109,0 0.71593,0.187009 1.375,0.558594 1.8328,1.033339 2.32219,2.244141 0.90625,2.244141 -0.57593,0 -1.581275,0.374587 -2.234375,0.832031 -1.11221,0.779024 -1.205434,0.73475 -1.490234,-0.703125 -0.1874,-0.946207 0.0093,-1.856071 0.513672,-2.373047 0.36253,-0.371585 0.608597,-0.558594 0.929687,-0.558594 z m 7.736328,0.552735 c 0.04831,0.01014 -0.08178,0.195439 -0.361328,0.5625 -0.35357,0.464254 -0.765819,1.351696 -0.917968,1.970703 -0.262731,1.068982 -0.281751,1.064894 -0.34375,-0.07227 -0.0359,-0.658485 0.378291,-1.545927 0.919921,-1.970703 0.42824,-0.335847 0.654818,-0.500376 0.703125,-0.490234 z m -18.851562,2.195312 2.693359,1.435547 c 1.481118,0.788936 3.289873,1.433594 4.019531,1.433594 0.72967,0 1.486491,0.415275 1.681641,0.923828 0.46371,1.208412 0.404973,1.226811 -2.023437,0.623047 -1.138608,-0.283087 -3.038041,-1.391942 -4.220704,-2.464844 z m 19.634766,1.892578 c 0.103514,0.01252 0.198754,0.04472 0.28125,0.0957 0.390199,0.241161 0.161513,1.047033 -0.654297,2.306641 -1.44927,2.237676 -1.462373,2.241687 -2.914063,0.779297 -1.08759,-1.09561 -1.08512,-1.116795 0.21875,-2.359375 0.72326,-0.689259 1.139438,-0.935706 0.923828,-0.548828 -0.48606,0.872151 0.352332,0.925012 1.201172,0.07617 0.25833,-0.258326 0.632815,-0.387168 0.94336,-0.34961 z m -2.84375,1.191407 c -0.0507,-0.0013 -0.115566,0.02103 -0.195313,0.07031 -0.30596,0.189092 -0.556641,0.58181 -0.556641,0.873047 0,0.809453 0.403244,0.631138 0.777344,-0.34375 0.144128,-0.375594 0.126709,-0.595778 -0.02539,-0.599609 z m 29.398437,0.617187 c 0.364489,-0.0112 -0.03124,0.854536 -1.121094,2.984375 -1.64049,3.205917 -4.803057,6.329855 -8.154297,8.054688 -4.22148,2.172723 -10.711016,1.792642 -16.935546,-0.990235 -3.945701,-1.764055 -4.261572,-2.470501 -2.050782,-4.613281 1.64931,-1.598572 2.042291,-1.740962 3.400391,-1.224609 0.84458,0.321106 2.342395,0.592545 3.328125,0.603515 0.98574,0.01096 2.425459,0.381899 3.199219,0.824219 0.77376,0.442319 2.673183,0.843465 4.220703,0.890625 l 2.814453,0.08594 -3.095703,0.533203 c -3.85005,0.663496 -7.215652,0.258474 -10.107422,-1.216797 -2.63101,-1.342242 -3.213731,-1.426964 -2.306641,-0.333985 1.36258,1.641818 6.53204,2.754136 11.15625,2.400391 4.47017,-0.341961 8.574219,-1.366485 8.574219,-2.140625 0,-0.240214 -2.089178,-0.410799 -4.642578,-0.380859 -2.5534,0.02993 -5.258286,-0.197279 -6.009766,-0.503907 l -1.365234,-0.55664 1.820312,-0.910157 c 1.33805,-0.667507 2.196542,-0.766892 3.232422,-0.373046 3.19604,1.215126 9.196212,0.140614 12.550782,-2.248047 0.781301,-0.556339 1.273493,-0.878047 1.492187,-0.884766 z m -30.748047,2.544922 c 1.23126,0 1.939311,2.155207 1.056641,3.21875 -0.34065,0.410459 -0.745641,0.619596 -0.900391,0.464844 -0.15476,-0.154751 0.03818,-0.666939 0.429688,-1.138672 0.3915,-0.471739 0.487793,-0.857422 0.214843,-0.857422 -0.27295,0 -0.812638,0.505994 -1.199218,1.125 -0.82072,1.314184 -1.574374,1.444693 -1.996094,0.345703 -0.41682,-1.08622 1.154041,-3.158203 2.394531,-3.158203 z m -30.916016,0.03711 2.029297,1.197266 c 2.801402,1.652844 7.578016,1.657488 10.730469,0.01172 2.103236,-1.098015 2.504528,-1.144238 3.855469,-0.44336 l 1.507812,0.783203 -1.451171,0.951172 c -1.683545,1.103103 -4.8943,1.931932 -7.560547,1.951172 -2.331901,0.01682 -1.869409,0.910069 0.861328,1.664063 2.648332,0.731238 9.562803,-0.616987 13.035156,-2.541016 2.32986,-1.290977 2.511122,-1.311472 3.226563,-0.378906 0.416829,0.54333 0.696446,1.355097 0.623046,1.804687 -0.19314,1.183365 -4.586991,4.378803 -7.035156,5.115235 -1.15282,0.346778 -3.868634,0.74616 -6.035156,0.888672 -4.11295,0.270545 -6.871759,-0.588581 -9.59375,-2.990235 -1.863993,-1.644626 -4.19336,-5.398164 -4.19336,-6.755859 z m 19.990235,2.046875 c 0.346974,0.0097 0.727799,0.05342 1.167969,0.128907 l 2.195312,0.376953 -1.6875,0.880859 c -0.928509,0.484035 -3.080936,1.18084 -4.783203,1.548828 -4.567466,0.987365 -4.664273,0.995942 -6.191406,0.597656 -1.142515,-0.297978 -0.85168,-0.445869 1.546875,-0.792968 1.624402,-0.23507 3.802923,-1.003357 4.839844,-1.707032 1.133992,-0.769548 1.871187,-1.06221 2.912109,-1.033203 z m 9.867187,2.417969 c 0.32775,0 0.439327,0.252997 0.248047,0.5625 -0.19129,0.309503 -0.459223,0.5625 -0.595703,0.5625 -0.13649,0 -0.248047,-0.252997 -0.248047,-0.5625 0,-0.309503 0.267933,-0.5625 0.595703,-0.5625 z m 0.884766,1.144531 c 0.15901,-0.159017 0.241594,1.607936 0.183594,3.925782 -0.05798,2.317851 0.07628,4.900428 0.296875,5.738281 0.22061,0.837853 0.288384,1.84984 0.152343,2.25 -0.13604,0.400159 -0.41458,-0.158927 -0.61914,-1.242188 C 49.270322,70.208825 49.26018,62.245688 49.6875,61.818359 Z m -2.84375,0.837891 c -0.625695,0.02204 -1.398741,0.872944 -1.119141,1.601562 0.14548,0.379108 -0.375333,1.291869 -1.158203,2.027344 -0.78288,0.73548 -1.423828,1.596614 -1.423828,1.914063 0,0.356708 0.162028,0.373355 0.423828,0.04297 0.23298,-0.294029 1.274633,-1.461814 2.314453,-2.595704 1.04834,-1.143186 1.714974,-2.347022 1.496094,-2.701172 -0.131352,-0.212535 -0.324638,-0.296408 -0.533203,-0.289062 z m 4.482422,3.769531 c -0.02814,-0.0082 -0.0517,-0.0049 -0.06836,0.01172 -0.13327,0.133272 0.166173,1.060553 0.664063,2.058594 0.49789,0.998041 1.024642,1.694109 1.169922,1.548828 0.14528,-0.14528 -0.154173,-1.070609 -0.664063,-2.056641 -0.446162,-0.862777 -0.904587,-1.504753 -1.101562,-1.5625 z m -4.835938,1 c -0.16911,-2.11e-4 -1.117315,0.864075 -2.529296,2.365235 -1.223451,1.300729 -1.719353,1.996471 -1.101563,1.546875 1.32366,-0.96328 1.976851,-1.595696 3.025391,-2.929688 0.527373,-0.670945 0.706934,-0.982295 0.605468,-0.982422 z m 18.433594,0.175781 c -0.06285,0.03335 -0.171469,0.476106 -0.380859,1.357422 -0.56706,2.386735 -2.133883,4.728089 -3.382813,5.054688 -0.71068,0.185848 -1.082796,0.993725 -1.285156,2.789062 -0.27921,2.477144 -2.596036,5.816407 -4.035156,5.816407 -0.33183,0 -0.597656,1.103498 -0.597656,2.478515 0,1.363209 0.184729,2.187402 0.412109,1.830078 0.22739,-0.357324 0.419828,-1.341549 0.423828,-2.185546 0.0058,-1.031143 0.495267,-1.852656 1.492187,-2.50586 1.62246,-1.063081 3.017579,-3.85182 3.017579,-6.03125 0,-0.823222 0.399875,-1.518032 0.984375,-1.708984 1.42753,-0.466371 3.526084,-3.984183 3.458984,-5.796875 -0.02797,-0.755351 -0.04457,-1.13101 -0.107422,-1.097657 z m -4.021484,1.513672 c -0.13648,0 -0.404423,0.252997 -0.595703,0.5625 -0.19129,0.309503 -0.07972,0.5625 0.248047,0.5625 0.327759,0 0.595703,-0.252997 0.595703,-0.5625 0,-0.309503 -0.111557,-0.5625 -0.248047,-0.5625 z m -23.042969,1.31836 c -0.201793,-0.03393 -0.34375,0.09011 -0.34375,0.335937 0,0.32777 0.252997,0.595703 0.5625,0.595703 0.309503,0 0.5625,-0.111562 0.5625,-0.248046 0,-0.136486 -0.252997,-0.404419 -0.5625,-0.595704 -0.07738,-0.04782 -0.151486,-0.07658 -0.21875,-0.08789 z m 15.378906,1.49414 c 0.32776,0 0.595703,0.252997 0.595703,0.5625 0,0.309504 -0.111556,0.5625 -0.248046,0.5625 -0.136481,0 -0.404424,-0.252996 -0.595704,-0.5625 -0.19128,-0.309503 -0.07972,-0.5625 0.248047,-0.5625 z m -0.267578,2.455078 c -0.117419,-0.02076 -0.121094,0.379214 -0.121094,1.179688 0,0.85572 0.320142,1.429688 0.794922,1.429688 0.64297,0 0.668526,-0.23973 0.134766,-1.265626 -0.458675,-0.881566 -0.691175,-1.32299 -0.808594,-1.34375 z m -0.96875,0.263672 c -0.153752,0.02304 -0.272569,0.469243 -0.292969,1.1875 -0.02693,0.947085 0.03101,1.720704 0.128907,1.720704 0.43652,-10e-7 0.693012,-2.191604 0.326171,-2.785157 -0.05661,-0.0916 -0.110858,-0.130726 -0.162109,-0.123047 z m -3.185547,0.939454 -0.847656,1.40625 c -0.4662,0.773757 -0.856187,1.647378 -0.867188,1.941406 -0.03605,0.96628 0.963617,-0.473597 1.347657,-1.941406 z m 8.427735,0.28125 c -0.32777,0 -0.595703,0.252996 -0.595703,0.5625 0,0.309503 0.111556,0.5625 0.248046,0.5625 0.13649,0 0.404424,-0.252997 0.595704,-0.5625 0.191289,-0.309504 0.07972,-0.5625 -0.248047,-0.5625 z m -16.169922,0.677734 c -0.116003,-0.0147 -0.181641,0.06588 -0.181641,0.242187 0,0.319824 0.16866,0.748747 0.375,0.955079 0.20634,0.206337 0.506106,0.245849 0.666016,0.08594 0.15991,-0.159906 -0.0088,-0.590782 -0.375,-0.957031 -0.2019,-0.201897 -0.368373,-0.311468 -0.484375,-0.326172 z m 7.435547,2.921875 c -0.171498,0.04076 -0.388385,0.320094 -0.546875,0.736328 -0.30539,0.802007 -0.241307,0.86803 0.314453,0.316406 0.38458,-0.381724 0.558015,-0.836506 0.384765,-1.009765 -0.04331,-0.04331 -0.09518,-0.05656 -0.152343,-0.04297 z m -4.691407,1.779297 c -0.15838,0.03959 -0.14221,0.30631 0.146485,0.773437 0.20402,0.330093 0.618435,0.59961 0.921875,0.59961 0.30344,0 0.225252,-0.35407 -0.173828,-0.78711 -0.403925,-0.438318 -0.736152,-0.625528 -0.894532,-0.585937 z m 5.548829,7.564453 c -0.32777,0 -0.597657,0.252997 -0.597657,0.5625 0,0.309503 0.111567,0.5625 0.248047,0.5625 0.13649,0 0.406376,-0.252997 0.597656,-0.5625 0.19129,-0.309503 0.07972,-0.5625 -0.248046,-0.5625 z"
     style="fill:#000000;stroke-width:0.56273288"
     id="pathKP5" />
</svg>
