<?xml version="1.0" encoding="UTF-8" standalone="no"?>
<svg
   xmlns:dc="http://purl.org/dc/elements/1.1/"
   xmlns:cc="http://creativecommons.org/ns#"
   xmlns:rdf="http://www.w3.org/1999/02/22-rdf-syntax-ns#"
   xmlns:svg="http://www.w3.org/2000/svg"
   xmlns="http://www.w3.org/2000/svg"
   width="100"
   height="100"
   viewBox="0 0 100 100"
   version="1.1"
   id="svgKP6">
  <defs
     id="defs2" />
  <metadata
     id="metadata5">
    <rdf:RDF>
      <cc:Work
         rdf:about="">
        <dc:format>image/svg+xml</dc:format>
        <dc:type
           rdf:resource="http://purl.org/dc/dcmitype/StillImage" />
        <dc:title></dc:title>
      </cc:Work>
    </rdf:RDF>
  </metadata>
  <path
     style="fill:#000000;stroke-width:0.49243489"
     d="m 5.6567956,87.388222 c -1.389528,-3.428095 -0.260275,-6.899899 0.513978,-10.155446 1.325091,-2.301345 1.126975,-5.286091 3.505521,-7.17421 0.4644594,-2.543938 2.9009674,-3.71827 4.2111124,-5.869815 2.187832,-1.484115 5.391892,-1.46561 7.157978,-3.278062 3.914395,-0.615934 7.994732,-0.418081 11.945394,-0.129175 2.697043,3.215054 5.66087,-1.260767 9.172368,-0.377701 1.623747,-0.654526 6.619932,-2.752385 2.078304,-2.804214 -2.561679,0.03325 -4.443683,-1.460448 -6.482518,-0.150396 -2.828573,-1.498363 -6.496252,-1.818665 -9.901531,-1.976604 -2.421689,-1.956325 -6.460803,-1.944534 -8.53556,-5.26743 -3.201532,-1.640238 -3.30526,-4.924616 -4.08411,-7.935271 -2.806511,-3.048255 2.335451,-3.698539 3.591697,-1.418828 1.3264,1.275449 5.506773,1.345244 2.799184,-0.886568 -2.250637,-2.383819 -4.043881,-5.036346 -5.950768,-7.269385 -0.424086,-2.755705 -0.885487,-8.215041 1.885908,-8.85336 1.787336,1.498348 1.757262,5.744611 4.137627,5.88644 -0.314012,-2.900589 -2.088858,-5.94101 -1.58585,-8.950388 0.896455,-2.878301 1.193061,-6.063337 3.638247,-8.350453 2.754889,-1.331595 0.563961,5.241711 2.462175,6.805227 1.478209,2.866743 3.659038,6.488482 6.845947,6.080766 2.385269,-2.667367 5.492899,-3.426492 8.510531,-4.507456 3.58065,-1.886376 9.721028,5.21031 3.218652,4.825325 -2.091631,1.655219 -5.023076,3.432556 -5.732967,6.425465 -0.992254,3.16982 -2.708104,7.334818 -0.777509,10.764127 1.179783,2.61678 1.35216,6.314035 4.207169,8.397047 3.217438,2.343996 5.928154,-5.237855 1.436774,-5.860736 -3.016067,-1.951549 -2.032429,-5.997366 1.830297,-4.361398 1.794083,1.449029 3.253039,0.533901 1.635804,-1.37574 -1.619682,-2.106493 -1.19896,-6.925326 1.928705,-4.185696 3.671447,2.558952 3.46394,-3.73423 5.558817,-5.723175 1.974743,-3.779278 4.670154,-2.637454 5.171137,0.740349 0.169334,1.998815 1.480058,3.5094 0.513979,4.777644 1.147417,2.376618 3.296105,0.174278 6.032323,2.174921 -0.199332,0.406526 0.08968,0.0026 -1.184416,1.885255 -2.04564,1.582353 -4.188662,6.226544 -0.626819,4.661051 2.99202,-1.057526 4.582781,0.818796 2.796104,3.056174 -1.521584,1.732522 -1.012534,6.189433 1.84245,2.856858 2.264063,-2.782631 3.529833,-5.755839 3.567844,-9.314295 0.538773,-4.09527 -0.441621,-7.313987 -2.057807,-10.636403 -1.256512,-1.858967 -2.108143,-3.061726 -4.281958,-3.449928 -0.03974,-2.580767 2.212166,-5.136238 4.791239,-4.515396 3.231663,0.172806 6.228587,5.605781 9.54618,2.429792 2.563541,-2.342836 4.912511,-4.876774 6.637231,-7.386492 0.32407,-3.029458 4.00504,-4.793695 4.53598,-0.822375 2.15136,2.566762 0.99338,7.470426 -0.45185,10.047265 -0.29976,3.478901 -5.34041,5.858983 -4.64296,9.218755 2.25852,-2.087862 4.93714,-5.523586 7.91218,-5.016681 0.16118,3.26642 -0.62205,6.801749 -1.79192,9.694812 -1.25701,1.064858 -2.70295,3.253314 -3.16854,4.574584 1.69256,-2.92e-4 3.54164,-1.9219 3.16854,1.334635 -0.3886,2.872361 -3.07862,4.869599 -4.43191,7.63274 -1.97105,2.841024 -5.38881,4.230776 -8.309838,5.767169 -3.739683,-0.434587 -6.992634,1.907995 -10.681414,0.825688 -1.640788,-0.933149 -3.203777,-2.600709 -3.618431,0.224288 -1.694341,1.81742 -1.150363,5.454175 -2.996925,7.476427 -1.565041,3.342906 -4.971593,5.679081 -7.386523,7.865999 -1.517246,2.254387 -5.48858,-1.53747 -6.112353,0.840217 4.226111,1.025589 -2.428442,1.137692 -3.614585,2.075534 -4.397654,0.849816 -8.91007,1.247674 -13.511039,1.042801 -4.232355,0.003 -8.18617,1.202826 -12.432778,1.261259 -2.224367,0.795947 -4.402575,0.889465 -6.186213,2.166713 -3.289563,-0.398419 -1.712376,-3.094727 -0.49825,-4.738997 -3.6421004,-2.61868 -5.6779154,1.527189 -5.7875084,4.658647 -1.245381,2.95517 2.6497694,-3.847055 3.8235844,-0.699337 C 13.863204,85.301933 7.4376676,85.426849 6.5417476,88 l -0.395892,-0.0976 z m 1.354195,-0.740706 c -1.325889,-1.984507 -1.160499,1.917244 0,0 z m 0,-5.416783 c -1.325889,-1.984509 -1.160499,1.917241 0,0 z m 8.3713944,0 c 3.440437,-0.890854 6.913557,-1.530562 10.587349,-1.775607 3.823807,-1.250397 8.127185,-0.416818 12.141598,-0.720059 3.389733,-0.332842 7.903608,-0.213215 10.218229,-2.594965 -1.555395,-2.230927 -2.50964,-6.895457 -5.944876,-6.500627 -2.48284,1.902802 -2.091952,9.425439 1.929597,6.213331 2.263841,-0.632926 4.434578,1.136584 0.860411,0.946012 -3.787262,1.00174 -7.820787,1.041864 -11.818436,0.98487 -3.908984,-0.01709 -7.895655,-0.09618 -11.572219,0.984869 -2.685583,0.968488 -6.455359,0.747025 -8.29368,2.653378 0.44345,0.40068 1.661139,0.499516 1.892027,-0.191202 z M 8.2772526,78.06508 c 0.251711,-1.846838 2.2119584,-4.455812 1.111642,-5.627758 -1.46053,1.714378 -2.092026,4.359255 -2.102627,6.282292 l 0.390546,-0.131903 z m 10.5521764,0.211042 c 1.716739,-0.691432 3.683321,-0.69647 2.339065,-2.256991 1.472799,-1.603078 -0.36724,-2.135025 -0.826587,-0.37365 -2.122186,-1.044843 -7.553401,2.578832 -3.236,3.123076 0.529306,-0.08108 1.395427,0.05788 1.723522,-0.492435 z m -5.416784,-1.969739 c -1.186851,-1.476049 -5.4635204,0.433658 -1.723522,0.492435 0.529306,-0.08108 1.395428,0.05788 1.723522,-0.492435 z m 10.341132,0 c 1.047986,-0.455478 4.890097,1.540262 2.95461,-1.96974 -1.048647,-1.211872 -2.051276,-4.427413 0.265315,-1.555961 0.718445,1.296261 2.205635,6.541126 2.052206,1.917591 -1.250903,-1.265302 -2.848648,-4.811803 0.505908,-2.532898 0.88288,1.341762 -0.842116,1.876108 0.623615,3.44339 1.508728,2.225358 7.936937,1.368413 9.704044,0.349836 -1.784727,-1.768107 1.689474,-5.050471 -2.317521,-6.053871 1.61509,-1.056096 4.179954,1.683408 4.407708,-1.859374 -0.576523,-3.68746 -1.357215,4.089882 -1.945534,0.135851 1.614812,-2.157389 1.238563,-6.893353 -2.039181,-4.224554 -2.721387,-0.459795 -4.573028,3.528864 -1.087576,3.697875 1.111166,1.473656 -1.29739,3.436482 1.986903,3.872159 -0.342328,2.246133 -3.453607,-2.461598 -5.444761,-1.299009 -2.460758,-0.339903 -2.032724,-4.647947 -0.0076,-2.483213 -0.642423,-1.207531 -1.43824,-6.617668 -3.748951,-3.748955 -3.016144,-3.102458 -3.916402,1.233194 -3.748276,3.745198 -2.516704,1.524496 3.609095,2.258096 0.470223,3.525343 -1.101385,-1.063664 -4.487949,0.479558 -6.482801,0.582609 -0.573175,2.192774 6.153223,1.868481 2.866765,4.457723 -0.01493,0.640549 0.999803,0.640549 0.98487,0 z m 6.005303,-4.705009 c -1.64493,-3.310176 5.13852,-1.489009 1.578973,0.538857 -0.55852,0.453937 -1.258618,-0.103662 -1.578973,-0.538857 z m 25.018098,3.473922 c -2.367149,-2.887638 -2.548183,2.805761 0,0 z M 14.397515,73.844209 c 1.040173,-0.14097 5.504784,-3.232865 3.584808,-3.077718 -2.19257,2.389648 -4.369728,-6.233443 -4.858983,-0.707925 -2.297315,1.599527 -2.4642,5.94626 1.274175,3.785643 z M 49.36039,73.351774 c -0.774989,-2.416354 -3.191766,-4.668726 -5.199802,-5.199807 0.313966,2.003382 3.632948,3.466569 4.354434,5.937474 0.50869,0.758246 1.010885,-0.378126 0.845368,-0.737667 z m 3.447044,0.492435 c 3.707616,-0.856955 2.150409,-7.557176 -1.615068,-7.509634 -2.059708,-0.746495 1.868889,1.923216 -1.181219,1.571387 -3.958511,-0.4689 -1.851151,1.865096 -0.650757,3.584782 0.88718,1.178988 1.184301,4.265486 3.447044,2.353465 z m 4.924354,-0.98487 c 3.217372,-1.311182 -0.725101,-2.084487 -0.865514,0.410597 0.317488,0.20211 0.883266,0.03398 0.865514,-0.410597 z m -0.98487,-3.482219 c 0.968944,-2.343692 -3.307976,-4.754966 -1.477305,-1.442131 0.569688,1.287241 0.974426,5.809526 1.477305,1.442131 z m 2.629868,0.404501 c 2.202174,1.48345 3.471356,-2.759818 3.810638,-4.882417 1.806,-1.384414 0.384892,-8.222922 -0.03885,-3.119651 -0.558455,2.578026 -1.355899,5.694928 -2.653377,7.535599 -0.707082,-1.923159 1.591446,-4.52675 0.447579,-6.304512 -3.1505,0.585742 -5.336172,-1.31882 -6.982047,-3.728676 -3.326072,-2.281162 -7.21554,2.381853 -4.107896,4.713546 1.405739,-0.647225 -1.673068,-4.582972 0.492435,-2.708392 1.1391,0.880473 1.06588,5.493212 2.934419,2.751907 2.952443,3.01318 -1.364453,-3.980002 2.54673,-1.500005 1.574856,1.167608 -1.276494,3.168009 1.34453,4.328956 0.723539,0.63399 0.452089,5.367049 2.205842,2.913645 z M 21.784038,68.673642 c 2.276032,-2.497092 0.611499,-5.703036 -2.896123,-5.054581 -0.889163,-0.944811 -5.966408,1.928331 -4.877018,3.240344 2.437911,-2.864441 5.189506,5.060097 7.773141,1.814237 z m -6.401653,-3.200828 c 1.448478,-0.928245 5.078894,-2.0229 1.929477,0.273419 -0.489336,0.231287 -1.687205,0.44709 -1.929477,-0.273419 z m 20.189829,3.200828 c -1.246014,-2.564244 -1.00349,2.471964 0,0 z m 12.099828,-1.442131 c 2.998072,-3.74393 -1.914227,-7.425209 -3.688041,-3.159059 -0.828389,2.210862 1.795796,4.95728 3.688041,3.159059 z m -22.44096,-2.743567 c 0.09207,-2.106891 -3.751161,-3.190844 -1.525875,-0.533986 -0.494116,1.813114 1.626719,3.071582 1.525875,0.533986 z m 17.727654,0 c -1.397113,-5.244735 -0.936814,5.045037 0,0 z m -8.371391,0 c -1.32589,-1.984505 -1.1605,1.917243 0,0 z m 10.833566,-3.200826 c 2.080852,-1.083958 4.874844,-3.6765 3.243915,-5.518349 2.88941,0.100354 5.731961,2.486697 8.911534,1.523855 1.942149,-1.462036 3.911278,1.220607 5.963677,-0.666329 1.564353,-0.05442 5.397023,1.685205 4.442817,-0.965979 -3.339694,3.171623 1.215767,-6.123229 -2.125896,-2.498374 -1.465525,-1.272493 -1.922008,-0.667844 -0.795932,0.578894 -3.29372,2.178597 -3.689224,-2.702408 -0.371399,-2.636768 0.01591,-2.30718 3.113301,-4.516648 2.384571,-6.168866 -2.656543,-0.115282 -5.893052,2.09732 -4.871643,-2.577973 0.710198,-1.291854 1.708581,-3.233907 1.915072,-4.270439 0.159363,-0.799958 -2.458658,-0.506857 -3.699829,-0.906598 -2.102534,-2.010417 -0.1949,-10.568408 -4.813738,-6.545094 -2.868014,1.780943 -1.285107,7.191007 -4.410813,7.676085 -1.595582,-1.521113 -5.048693,-2.808947 -2.85658,0.147154 -0.22682,1.257778 2.324101,5.734488 0.03885,4.854908 -1.476566,-1.83239 -8.213904,-1.88642 -3.277361,0.561569 1.155366,2.053113 2.194512,4.42646 3.066318,6.332519 2.7069,0.08063 1.250499,2.2377 1.763651,2.903656 1.115335,-2.163171 6.429107,0.01946 1.763631,0.195606 -0.08316,2.288314 4.2668,-1.77985 5.561436,0.695564 1.815007,-0.189966 4.384069,1.473095 4.621196,2.462175 -1.813731,-0.15501 -3.456587,-1.354935 -5.127478,0.144652 -2.772832,-1.274874 -5.910725,-0.875684 -8.293682,-2.763406 -1.605372,-0.928982 -2.096699,-1.152663 -1.397564,-2.487182 -2.634813,0.516805 -2.51128,3.824187 -4.461931,4.210696 -0.985572,-1.23657 1.029566,-2.763095 -1.61061,-3.913592 -1.494762,-2.758877 -3.05406,-4.774231 -3.742409,-7.733254 -1.151566,-3.283701 -0.807246,-7.488873 -0.191203,-10.950136 1.216095,-2.425523 3.445439,-4.410892 5.002061,-7.055533 1.915496,-0.634491 6.707828,-2.233021 2.579308,-4.041583 -3.862356,-0.591441 -7.223976,1.477113 -10.363605,3.504407 -1.202166,2.611112 -2.255713,5.180978 -3.3732,7.592709 -1.941065,2.155144 -1.914483,5.470952 -0.738652,8.125176 1.22222,2.449519 2.546891,4.8729 3.581217,7.768439 2.478812,2.746163 4.209534,6.770766 8.120651,7.059621 1.45438,1.690057 2.953485,-1.34058 4.467309,0.644782 5.105461,0.373284 -2.890967,3.620017 -3.281232,5.026298 0.516102,0.624031 2.22848,0.675962 2.377535,-0.30931 z m 0,-6.894089 c -0.477504,-2.799209 5.343494,1.341598 1.477304,1.231088 -0.79279,0.167403 -1.70148,-0.296945 -1.477304,-1.231088 z m -6.401653,-1.723522 c -2.593989,-1.138485 -2.976018,-5.059926 -4.137433,-6.72239 2.073929,1.627927 3.140628,3.847489 4.383651,5.983738 2.773914,0.07654 1.64263,2.135602 -0.246218,0.738652 z m 14.773051,-2.251131 c 0.115259,-4.540618 5.306571,0.62292 1.477304,0.773827 -0.509886,-0.0084 -1.484484,-0.02794 -1.477304,-0.773827 z m -2.46218,-1.688348 c 2.319886,-0.230395 3.383639,-6.924252 5.416789,-3.939479 0.66914,1.531205 1.417996,3.351266 2.307185,4.287261 -2.240362,0.145621 -3.884272,-5.848644 -5.483365,-1.093866 -0.394603,0.471514 -1.845819,2.019231 -2.240609,0.746084 z M 34.587345,44.298114 c 1.325889,-1.984505 1.160499,1.917243 0,0 z m -0.98487,-4.678131 c -0.336083,-1.783551 0.852132,-4.736451 0.94699,-1.261864 0.555734,2.287113 -0.849369,6.581703 -0.937224,1.917803 z m 26.591487,0.492435 C 58.074533,39.708373 56.864439,36.38639 60.9511,38.87478 c 0.665649,0.615325 -0.160277,3.328158 -0.757138,1.237638 z M 33.602475,34.941852 c 1.325889,-1.984506 1.160499,1.917242 0,0 z m 0.98487,-2.462175 c 1.325889,-1.984505 1.160499,1.917243 0,0 z m 0.984869,-1.96974 c 1.32589,-1.984505 1.1605,1.917243 0,0 z m 0,-1.969739 c 1.98707,-2.037464 3.071197,1.92002 0,0 z m 1.96974,-2.215957 c 0.866692,-1.471003 3.509185,-2.196895 1.477304,0.04104 -0.0081,0.93989 -1.507405,0.891864 -1.477304,-0.04104 z m 3.447044,-2.215956 c 1.325889,-1.984506 1.160499,1.917242 0,0 z m 18.220094,36.686398 c 0.234124,-3.782507 3.113238,4.255876 2.95461,-0.492435 -0.112413,-4.979726 -7.328658,-0.664635 -3.383954,1.638885 0.370533,-0.247444 0.419663,-0.746719 0.429344,-1.14645 z m 15.757911,-1.723522 c 2.948794,-0.561497 6.004072,-0.769744 8.371396,-2.462175 3.38489,-0.586872 4.33978,-3.456605 6.48282,-6.014738 2.18199,-1.938708 2.37304,-5.846676 -0.86086,-5.434373 -3.2718,2.064671 -1.76865,-1.544347 0.55238,-1.611567 0.97817,-2.972825 3.7078,-4.792811 3.71321,-7.893965 1.16251,-1.693944 1.50149,-6.31502 -1.15636,-3.460698 -1.54662,2.608055 -4.74345,3.466658 -7.01882,5.065728 -1.55065,0.528195 -7.189859,3.383679 -2.69724,3.591697 1.37411,0.349629 4.24246,-3.3028 4.21493,-0.216979 -1.87145,1.802073 -6.279958,0.824396 -6.233241,4.203329 -1.687643,1.537123 1.727761,3.389798 -2.051976,3.544826 -0.07687,1.926354 4.257167,-0.838018 5.884597,-0.4674 0.87487,-3.017277 2.50506,-1.320157 4.28598,-1.342974 2.59765,-1.899028 -0.56263,3.228136 -2.6394,1.810374 -2.81228,1.595638 -6.414226,1.155239 -9.332223,2.730783 -1.758382,3.51853 4.848593,1.85758 5.949043,0.380405 1.72121,-0.922987 3.9425,-1.879835 2.08734,0.975995 -2.50031,1.750629 -4.141588,3.853643 -7.220202,4.28421 -1.734424,2.200992 -9.001345,-0.772055 -8.117483,2.073358 1.644314,0.774293 4.185253,1.129156 5.786109,0.244164 z m 5.416784,-12.803307 c 2.506932,-1.697212 6.264592,-3.978874 7.209822,-6.727987 -2.14301,-1.692574 4.43371,-4.574494 1.4628,-1.053831 -0.60526,3.473693 -3.25403,6.408517 -6.63375,7.590615 -0.0912,0.887418 -1.768151,0.934696 -2.038872,0.191203 z m -9.567305,9.637655 c 1.732706,-2.713204 5.445566,-4.488757 6.120261,-7.914133 0.997983,-2.796023 3.318563,-4.623827 2.544741,-8.207889 1.785446,-3.160966 -0.08574,-6.37088 -0.474978,-9.65057 -2.245075,-1.632782 -2.118086,-5.514999 -5.373952,-6.372415 -2.139743,-1.373577 -5.248952,-0.531475 -5.762768,1.742428 2.345167,-0.07066 2.535847,3.605224 4.911708,1.66973 -1.096165,1.089196 -1.530562,2.502214 0.21577,3.829712 1.106014,2.867363 1.60261,6.248419 1.825087,9.342414 -1.607869,2.37733 -0.300578,6.564685 -2.985958,8.109185 -0.808741,1.811105 -2.224639,2.51583 -3.271043,3.723101 0.346275,3.149508 5.304065,-3.02132 3.917098,0 -1.589078,-0.296924 -4.767045,5.901703 -1.665966,3.728437 z m 2.180782,-6.081901 c 1.5629,-0.459182 2.835253,-6.60036 2.748629,-2.373979 -0.293093,0.718112 -2.080956,3.394293 -2.748629,2.373979 z m 2.954609,-7.495233 c 1.397112,-5.244735 0.936818,5.045038 0,0 z m 0,-3.447044 c 1.325891,-1.984505 1.160502,1.917242 0,0 z m 0,-3.447044 c -0.473284,-1.399724 -2.900033,-4.959642 -1.129522,-5.127479 0.190483,1.811612 3.163357,5.392198 1.274175,5.823043 z M 70.53509,25.093154 c 1.32589,-1.984505 1.160501,1.917242 0,0 z m 6.401653,31.023397 c 1.86913,-0.08831 3.769904,-2.070915 0.467109,-1.961258 -2.816629,-1.274081 -6.564226,3.389128 -1.672033,2.414837 0.359522,-0.130359 0.99556,-0.01581 1.204924,-0.453579 z M 36.557084,54.885464 c -1.708432,-1.62206 -4.387021,-1.928387 -6.647871,-2.708392 -3.054843,-0.562158 -5.86999,-2.940207 -7.63274,-5.416783 -1.530289,-3.905798 3.035457,0.44696 5.078234,0.04617 1.084395,1.341902 4.093359,2.213087 5.212498,1.849881 -1.013209,-1.957022 -1.508177,-3.408657 -4.245517,-3.182149 -1.927607,-1.617464 -4.716305,-1.692058 -7.030085,-2.653377 -1.883524,-0.03109 -4.704219,-3.30782 -5.764565,-1.129523 1.72654,1.617961 2.308394,3.879748 3.302391,6.076253 1.247048,3.479377 5.246544,4.981651 8.371392,5.886837 2.771608,0.732232 5.772343,0.238074 7.878958,1.96974 0.497071,-0.0195 1.453934,-0.01869 1.477305,-0.738653 z M 34.587345,51.89568 c -2.04882,-2.65572 -5.550914,-2.840228 -8.525279,-3.704252 -0.687645,-1.25629 -3.337005,-1.753221 -1.569636,0.04617 2.218827,1.294698 4.421532,2.565114 7.043165,3.255841 0.445188,1.017551 2.239177,0.75496 3.05175,0.402246 z m -4.431914,-8.09 c 0.0159,-1.42765 -3.484812,-1.047787 -0.98487,-2.462175 -0.507643,-1.244261 -4.229544,-4.401132 -3.447044,-1.969739 0.09868,1.448656 4.40058,2.281438 0.97449,2.270226 -2.208608,-2.565362 -5.506554,-4.693105 -6.883708,-7.933228 2.500227,-2.169595 3.978235,4.196069 7.097217,3.837915 3.072186,1.999145 -1.025272,-4.207521 -3.157739,-3.623668 -2.560553,-2.488764 -4.638342,-6.542688 -7.008319,-8.193231 -1.37262,3.615242 0.309132,6.464642 2.083971,9.210072 2.06864,2.867247 4.178312,6.493313 7.386523,7.878958 1.192481,0.04992 3.838036,3.126346 3.939479,0.98487 z m -4.924349,-5.909219 c -1.024465,-1.180295 -3.627913,-1.990296 -1.277818,0.231465 0.315437,0.331598 1.218224,0.382913 1.277818,-0.231465 z m 58.388707,-1.195913 c 0.95354,-3.316328 4.37186,-4.737849 5.81903,-7.745627 1.08614,-2.714944 2.10487,-5.469872 2.27097,-8.539898 0.0984,-2.237639 -1.11538,-7.325888 -3.24756,-3.309309 -1.25593,3.592959 -4.89095,5.189682 -7.249024,8.255718 -1.519885,0.920393 -2.74627,4.839654 0.155452,3.178766 3.257752,-0.988478 3.888292,-6.221001 7.273802,-6.604782 -0.7827,2.543997 -0.62982,6.073005 -2.59567,8.082087 -1.18028,2.260071 -4.251639,4.44793 -4.499368,7.120472 0.577948,0.650955 1.586048,-0.02326 2.072368,-0.437427 z M 29.170561,34.400769 c -1.878854,-2.621802 -3.239603,-5.720032 -5.252638,-7.830311 -0.981627,-3.202172 1.078151,-5.274401 2.298029,-1.477304 0.451166,2.16932 6.946751,5.678263 4.678131,1.969739 -2.417059,-2.428385 -4.84964,-5.547085 -6.100392,-8.782587 -1.716986,-0.02535 -0.966431,-6.459799 -2.024783,-2.543414 -0.347835,2.332313 -2.509979,5.094165 -1.286102,7.068941 -0.596987,3.207367 2.545813,5.572846 1.839833,8.168162 -2.516095,-2.708706 -0.411714,2.515872 0.895746,0.120461 2.319659,-0.425332 2.690581,7.376255 4.952176,3.306313 z m 53.182968,-0.690005 c 1.39248,-1.820042 2.24938,-4.70066 4.23494,-5.991291 0.17516,-5.274704 -3.28673,2.529932 -5.783035,2.388354 -1.402602,0.801704 0.909611,5.697591 1.548095,3.602937 z M 30.155431,31.209982 c -1.191818,-1.860191 -3.253647,-4.675642 -4.779696,-5.407414 0.06086,1.345603 3.523793,7.421916 4.779696,5.407414 z"
     id="pathKP6" />
</svg>
