<?xml version="1.0" encoding="UTF-8" standalone="no"?>
<svg
   xmlns:dc="http://purl.org/dc/elements/1.1/"
   xmlns:cc="http://creativecommons.org/ns#"
   xmlns:rdf="http://www.w3.org/1999/02/22-rdf-syntax-ns#"
   xmlns:svg="http://www.w3.org/2000/svg"
   xmlns="http://www.w3.org/2000/svg"
   id="svgKP7"
   version="1.1"
   viewBox="0 0 100 100"
   height="100"
   width="100">
  <defs
     id="defs2" />
  <metadata
     id="metadata5">
    <rdf:RDF>
      <cc:Work
         rdf:about="">
        <dc:format>image/svg+xml</dc:format>
        <dc:type
           rdf:resource="http://purl.org/dc/dcmitype/StillImage" />
        <dc:title></dc:title>
      </cc:Work>
    </rdf:RDF>
  </metadata>
  <path
     id="pathKP7"
     d="m 22.900743,86.94155 c -3.293795,-1.16815 -6.132838,-4.9017 -6.510606,-8.56192 -0.238822,-2.31396 0.820854,-4.96611 2.869357,-7.18139 1.218297,-1.31749 1.273002,-1.48488 1.083952,-3.31661 -0.337765,-3.27261 1.001253,-5.48744 4.23252,-7.00088 1.768161,-0.82817 1.957676,-1.13288 0.809395,-1.30142 -1.360144,-0.19962 -5.914476,-2.76779 -7.607099,-4.2896 -2.245723,-2.0191 -2.992699,-3.37191 -3.264295,-5.9118 C 14.341683,47.76678 14.14492,47.32852 13.435745,46.97635 11.680844,46.104887 9.4753551,43.932384 8.3515736,41.968218 7.3604207,40.235864 7.1988507,39.607517 7.208458,37.522646 c 0.00826,-1.792518 0.2028503,-2.74322 0.7434239,-3.632122 0.7292618,-1.199175 0.7293597,-1.2081 0.024102,-2.198542 -0.3894716,-0.546963 -1.2151901,-2.078039 -1.8349288,-3.402391 -1.0465408,-2.236406 -1.1277505,-2.693108 -1.140174,-6.41204 -0.011952,-3.578376 0.087472,-4.224197 0.9350874,-6.073837 1.0188199,-2.223239 1.4532405,-2.498761 2.0833787,-1.321337 0.6629705,1.238772 1.4892495,2.199772 3.9438518,4.586878 2.109177,2.05118 3.174504,2.684073 10.798837,6.415418 11.589874,5.672077 12.211131,5.990448 12.896327,6.60889 0.33098,0.298734 1.682432,1.39617 3.003223,2.438746 2.335236,1.843334 5.27271,4.973919 6.599125,7.032966 l 0.653879,1.015034 1.029368,-1.029369 1.029371,-1.02937 -0.7056,-3.42927 C 45.56522,28.817971 42.4742,23.492958 38.133182,21.355882 c -3.036022,-1.494629 -4.684438,-1.50885 -6.447448,-0.05563 -1.742425,1.436255 -1.715754,2.501133 0.06019,2.402881 1.192012,-0.06595 1.274676,-4.87e-4 1.274676,1.009327 0,0.898712 -0.159036,1.098278 -0.948097,1.189715 -1.223678,0.1418 -2.471423,-1.373168 -2.471423,-3.000716 0,-0.893249 0.304266,-1.441142 1.272348,-2.29113 1.115653,-0.979556 1.533899,-1.117136 3.396091,-1.117136 2.579128,0 3.430351,0.302792 5.7776,2.055175 4.207298,3.141039 7.272258,9.36638 8.476005,17.215883 0.213879,1.394665 0.270683,1.447983 1.402003,1.315908 1.150185,-0.134278 1.183701,-0.187554 1.367429,-2.173459 0.438349,-4.738232 3.371887,-11.490122 6.333003,-14.576163 2.536237,-2.643247 4.818814,-3.829863 7.375013,-3.833966 2.383285,-0.0038 3.785191,0.645553 4.686089,2.170656 0.804812,1.36244 0.744231,1.905306 -0.358953,3.216362 -1.023287,1.21611 -2.128557,1.339212 -2.774169,0.30898 -0.580683,-0.926624 0.36466,-1.853445 1.631964,-1.599985 0.871133,0.174227 1.010021,0.08883 1.010021,-0.620998 0,-2.575011 -4.480416,-3.615756 -7.522607,-1.747407 -4.705608,2.889935 -7.288806,7.465695 -9.581673,16.972532 -0.468115,1.940934 -0.461296,1.980483 0.53765,3.11822 l 1.011779,1.152351 1.172816,-1.678421 c 1.619017,-2.316963 4.113068,-4.892067 6.45518,-6.664964 2.808129,-2.125647 3.9981,-2.840741 9.546629,-5.736874 2.086291,-1.088968 9.504628,-4.574437 9.73606,-4.574437 0.355764,0 4.473977,-2.531946 6.101717,-3.75144 2.035301,-1.524831 4.006961,-3.756504 4.724477,-5.347519 0.730017,-1.618729 1.175269,-1.56679 2.037532,0.23768 2.505289,5.242857 2.017442,11.230782 -1.299943,15.955745 l -1.063854,1.515249 0.81351,1.891054 c 1.848686,4.297384 0.0352,8.655604 -5.169699,12.423896 -1.276572,0.924229 -1.411315,1.182359 -1.553981,2.976919 -0.191795,2.41253 -0.221566,2.46616 -2.842734,5.12141 -1.489401,1.50876 -2.931333,2.52946 -4.824021,3.41477 -1.484791,0.69452 -2.897404,1.29732 -3.13914,1.33957 -0.962711,0.16822 -0.749395,0.50175 0.892436,1.39534 1.856479,1.01043 3.364563,2.42773 3.638394,3.41938 0.09449,0.34219 0.19811,1.67819 0.230254,2.96889 0.05034,2.02124 0.196573,2.49551 1.054359,3.41951 0.547746,0.59004 1.424981,1.8017 1.949408,2.69258 0.821401,1.39535 0.952832,2.02398 0.948625,4.53719 -0.0044,2.63748 -0.106355,3.06384 -1.062343,4.44333 -1.696049,2.4474 -3.97952,4.18124 -6.21204,4.71682 -6.097524,1.46277 -13.453651,-3.10862 -18.565992,-11.53764 -0.540333,-0.89088 -1.141155,-1.86274 -1.335169,-2.1597 -0.934309,-1.43007 -2.459064,-5.41069 -2.6886,-7.01902 -0.141271,-0.98986 -0.340568,-1.93569 -0.442889,-2.10185 -0.102316,-0.16616 -0.665259,0.27928 -1.250977,0.98987 -0.585722,0.71058 -1.304381,1.29196 -1.597018,1.29196 -0.292642,0 -1.089957,-0.60742 -1.771823,-1.34981 L 46.8821,63.94696 46.8803,65.07394 c -0.0031,2.17579 -2.467198,7.86235 -5.048248,11.65122 -5.713791,8.3876 -13.000383,12.31983 -18.931378,10.21639 z m 6.838275,-0.85209 c 0.183749,-0.1835 -0.87708,-1.09759 -2.513663,-2.16596 -1.557364,-1.01666 -2.915258,-1.96603 -3.017535,-2.10971 -0.102276,-0.14368 -1.188948,-0.92387 -2.414827,-1.73376 l -2.228865,-1.47253 -0.398714,1.12854 c -0.370688,1.04922 -0.315225,1.20047 0.789069,2.15185 0.653282,0.56283 2.40261,1.90235 3.887401,2.97672 2.466893,1.78501 2.823747,1.93569 4.139424,1.74787 0.791886,-0.11304 1.582856,-0.3484 1.75771,-0.52302 z m 46.141808,-1.35987 c 1.569346,-1.14079 3.298796,-2.35935 3.843217,-2.70792 0.968166,-0.61987 1.209937,-1.42458 0.771376,-2.56745 -0.28755,-0.74934 -0.923296,-0.72054 -1.783438,0.0808 -0.383826,0.3576 -2.236612,1.67947 -4.117301,2.93751 -1.880692,1.25804 -3.795884,2.57749 -4.255993,2.93212 l -0.836558,0.64479 1.196507,0.34469 c 1.974644,0.56886 2.216748,0.49109 5.18219,-1.66454 z m -51.692463,1.44425 c -0.0182,-0.36499 -5.02582,-3.71668 -5.02582,-3.36389 0,0.43741 2.779205,2.89715 3.684243,3.26074 1.036452,0.41639 1.358444,0.44115 1.341577,0.10315 z m 53.112192,-0.49063 c 1.527841,-0.71818 3.645457,-2.72678 3.270292,-3.10195 -0.09495,-0.095 -1.332999,0.73528 -2.751214,1.84495 -1.418214,1.10967 -2.479256,2.01759 -2.357872,2.01759 0.121384,0 0.948842,-0.34227 1.838794,-0.76059 z m -44.768256,-0.88588 1.095718,-0.56662 -1.203583,-0.86609 c -0.66197,-0.47635 -1.524835,-1.11618 -1.917477,-1.42184 -0.392642,-0.30567 -1.364506,-0.72881 -2.159696,-0.94033 -2.211252,-0.58817 -3.932771,-1.68561 -5.402728,-3.44416 -1.279822,-1.53107 -1.364488,-1.57216 -2.018992,-0.97985 -0.850033,0.76927 -0.865168,1.29128 -0.05324,1.83579 0.346453,0.23234 2.249685,1.57192 4.229408,2.97684 4.493306,3.18868 5.682679,3.96983 6.04703,3.97154 0.15831,8.8e-4 0.780909,-0.25363 1.38356,-0.56528 z m 38.710182,-1.10519 c 1.348826,-0.9195 2.533399,-1.77922 2.632385,-1.91049 0.09899,-0.13127 1.394803,-1.03265 2.879594,-2.00305 1.484792,-0.97041 2.766119,-1.81046 2.847398,-1.86678 0.204384,-0.14163 -1.095595,-1.5466 -1.431025,-1.5466 -0.149494,0 -1.199266,0.89113 -2.332827,1.98031 -1.429581,1.37359 -2.587776,2.13674 -3.780333,2.49089 -0.945623,0.28082 -2.727851,1.15181 -3.960496,1.93553 l -2.241178,1.42495 1.039849,0.54534 c 1.533784,0.80439 1.677016,0.76978 4.346633,-1.0501 z M 36.062837,81.66818 C 34.379816,80.40981 33.830586,80.27174 32.302585,80.7229 l -1.551749,0.45818 1.824748,1.15054 1.824747,1.15053 0.912571,-0.84618 c 0.501915,-0.4654 0.839388,-0.90091 0.749935,-0.96779 z m 31.034907,0.70523 c 0.262902,-0.26158 0.77126,-0.63902 1.129682,-0.83874 0.560468,-0.31229 0.448002,-0.42414 -0.803511,-0.7991 -1.2129,-0.3634 -1.632248,-0.34443 -2.518586,0.11391 -1.510431,0.78108 -1.602283,1.11783 -0.534081,1.95808 0.970597,0.76347 1.628054,0.65878 2.726496,-0.43415 z m -29.236901,-2.20843 0.82632,-0.87957 -1.033534,-0.89486 -1.033534,-0.89485 -0.989864,0.9419 c -0.544421,0.51804 -0.989572,1.03307 -0.989217,1.14451 4.42e-4,0.19979 1.783561,1.36558 2.186295,1.42954 0.113971,0.0181 0.579062,-0.3629 1.033534,-0.84667 z m 26.193271,0.19526 1.157703,-0.45749 -0.796541,-1.13886 c -0.438096,-0.62637 -0.824849,-1.19361 -0.859446,-1.26054 -0.03458,-0.0669 -0.602066,0.25649 -1.261038,0.71869 -0.658977,0.4622 -1.266259,0.88204 -1.34953,0.93298 -0.08327,0.051 0.231348,0.50005 0.699148,0.998 0.467806,0.49795 0.940876,0.85122 1.051274,0.78504 0.110397,-0.0662 0.721687,-0.3262 1.35843,-0.57782 z M 32.405026,79.61287 c 1.889814,-1.00726 2.403583,-1.47097 3.079905,-2.77985 1.901677,-3.68029 -1.540661,-8.066 -7.127011,-9.08016 -2.477711,-0.44981 -3.127184,-0.89251 -2.281124,-1.55487 0.317041,-0.24821 1.410129,-1.18018 2.429081,-2.07106 1.018952,-0.89087 3.214339,-2.44982 4.878633,-3.46432 2.918163,-1.77882 3.343937,-2.29487 1.893415,-2.29487 -2.060564,0 -4.484605,-1.28418 -6.924225,-3.66823 -2.193297,-2.14334 -2.441161,-2.51483 -1.979723,-2.96721 0.290113,-0.28442 1.330342,-0.60918 2.31162,-0.7217 1.969888,-0.22588 4.157149,-1.48076 5.10658,-2.92978 0.726912,-1.109408 0.705131,-4.450486 -0.03835,-5.879017 -1.370306,-2.632989 -3.659724,-3.631284 -8.327724,-3.631284 h -3.478176 l 0.223235,-1.349811 C 23.012726,32.132186 19.184507,26.466569 14.076713,25.241228 12.316826,24.819037 6.7993201,24.897377 6.3457013,25.350996 6.0199948,25.676702 7.30006,28.820942 8.4651812,30.557099 l 1.0235778,1.525241 1.281346,-0.53538 c 2.474128,-1.033757 6.919824,-0.502009 7.68012,0.918614 0.967381,1.80757 -0.402265,3.945247 -2.527787,3.945247 -1.123443,0 -4.555516,-1.30716 -5.475282,-2.085348 -0.33906,-0.286885 -0.8463489,-0.433402 -1.1272911,-0.325594 -0.6958782,0.267033 -1.4371686,3.545804 -1.1314988,5.004686 0.4144356,1.977995 2.3595149,4.624496 4.6240649,6.291562 l 2.144627,1.578786 0.967478,-0.926905 c 1.393218,-1.334786 5.12462,-3.059671 7.13364,-3.29761 1.47338,-0.1745 1.865518,-0.0798 2.681002,0.647471 0.525362,0.468526 1.059766,1.296979 1.187566,1.841005 0.328935,1.400199 -1.32552,2.872296 -3.930411,3.497196 -2.24573,0.53874 -6.68287,0.25696 -7.166771,-0.45512 -0.368918,-0.54289 -0.249504,2.96129 0.126966,3.72579 0.47522,0.96502 2.972986,3.40653 4.285863,4.18933 1.574572,0.93884 6.178143,2.94948 7.071429,3.08849 1.811198,0.28187 2.043927,1.18264 0.397522,1.5386 -3.709828,0.80209 -6.395395,3.32963 -6.384188,6.00852 0.0084,1.99771 0.375873,2.87301 1.124147,2.67733 1.206603,-0.31553 4.951635,0.67546 5.892334,1.5592 0.960434,0.90228 1.18715,2.44372 0.465555,3.16532 -0.237569,0.23757 -1.10414,0.43194 -1.925717,0.43194 -1.662355,0 -3.974751,-1.4118 -5.083164,-3.10346 l -0.627741,-0.95806 -1.177992,1.36274 c -1.701754,1.96864 -2.631781,4.1073 -2.631781,6.05197 0,0.92736 0.125143,1.6861 0.278096,1.6861 0.152952,0 0.589139,-0.57757 0.969303,-1.2835 0.380165,-0.70592 1.237478,-1.76312 1.905143,-2.34934 l 1.213931,-1.06584 2.226144,2.21747 c 1.224382,1.21962 2.712079,2.43246 3.305993,2.69521 1.564962,0.69233 3.612108,0.61039 5.143621,-0.20589 z M 31.180931,77.0727 c -1.083315,-0.40961 -1.285153,-1.25676 -0.474265,-1.9906 0.572751,-0.51834 0.857325,-0.55784 1.595494,-0.22151 1.72229,0.78473 0.657847,2.8848 -1.121229,2.21211 z m 41.496605,2.4623 c 0.869622,-0.43431 2.394235,-1.66328 3.388023,-2.73105 l 1.806889,-1.94138 1.150768,0.87525 c 0.632922,0.4814 1.58163,1.74891 2.10825,2.8167 l 0.957481,1.94143 0.247134,-1.31733 c 0.443906,-2.36622 -0.743235,-5.49975 -2.817587,-7.43718 l -0.903976,-0.8443 -1.325414,1.46708 c -1.348295,1.4924 -2.966873,2.19544 -5.063176,2.19924 -1.501361,0.003 -2.306683,-1.35961 -1.592532,-2.69402 0.643722,-1.20281 3.002209,-2.29207 5.361893,-2.47639 1.061205,-0.0829 2.033414,-0.3189 2.160461,-0.52447 0.127052,-0.20557 0.147196,-1.26556 0.04477,-2.35554 -0.254285,-2.70594 -1.52267,-4.09881 -4.849368,-5.32532 -1.376891,-0.50763 -2.553334,-1.07267 -2.614327,-1.25564 -0.06099,-0.18297 0.660615,-0.53829 1.603563,-0.7896 2.662642,-0.70964 7.511,-3.16741 9.125434,-4.62595 1.726877,-1.56013 2.847579,-3.59689 2.847579,-5.17517 0,-1.0146 -0.08665,-1.10861 -0.809887,-0.87859 -1.85361,0.58953 -5.162592,0.60903 -7.113421,0.0419 -1.856391,-0.53967 -3.955023,-1.989761 -3.955023,-2.732804 0,-1.535455 1.946251,-3.241915 3.697474,-3.241915 1.126303,0 4.251251,1.049791 4.969653,1.669498 0.312551,0.26961 0.721887,0.490199 0.909644,0.490199 0.187757,0 0.877996,0.490126 1.533864,1.089169 l 1.192486,1.08917 1.168561,-0.72221 c 1.714939,-1.059892 4.808093,-4.458404 5.139007,-5.646334 0.42646,-1.530932 0.317315,-5.235433 -0.180836,-6.137841 l -0.435763,-0.789385 -2.166573,1.224618 c -2.634701,1.489221 -4.308445,1.850694 -5.768687,1.245842 -2.077912,-0.860699 -2.352766,-2.685412 -0.623657,-4.140362 1.10302,-0.92813 1.289741,-0.963682 4.049435,-0.77101 1.591203,0.111092 3.307024,0.304435 3.812942,0.429651 0.847105,0.209662 1.02501,0.02323 2.249684,-2.357534 1.647693,-3.203115 1.679784,-3.816985 0.216318,-4.138417 -3.805826,-0.835899 -8.408507,0.189741 -10.970077,2.444523 -2.404319,2.116366 -3.481536,4.476442 -3.679181,8.060704 l -0.162057,2.938892 -3.858197,0.120679 c -3.583999,0.112102 -3.966408,0.195741 -5.380761,1.176851 -1.848934,1.282565 -2.465675,2.399534 -2.774156,5.024201 -0.211487,1.799435 -0.139809,2.128292 0.705405,3.236425 1.203402,1.57774 2.977842,2.67045 4.766008,2.93494 3.002179,0.44404 3.146239,0.63218 1.8765,2.45062 -1.014684,1.45317 -1.914387,2.25681 -3.706557,3.3108 -1.563479,0.91949 -5.479866,2.06793 -5.985771,1.75526 -0.172338,-0.10651 -0.313343,-0.0974 -0.313343,0.0203 0,0.11771 0.688401,0.53474 1.529781,0.92675 1.446501,0.67394 2.081548,1.07951 5.45146,3.48158 2.396069,1.70791 4.357163,3.41638 4.357163,3.79587 0,0.35573 -2.99058,1.29561 -4.222415,1.32703 -1.169433,0.0298 -4.400608,2.41658 -5.19845,3.83993 -1.09396,1.9516 -0.977076,4.76965 0.253205,6.10481 1.138666,1.23573 3.426955,2.2914 4.988818,2.30152 0.67122,0.004 1.931908,-0.34744 2.80154,-0.78175 z m -5.275389,-2.08357 c -0.61753,-0.61752 -0.660925,-0.84067 -0.281616,-1.44805 0.528302,-0.84594 1.801287,-0.94159 2.431135,-0.18267 0.550939,0.66383 0.275098,1.45383 -0.687515,1.969 -0.5905,0.31603 -0.873081,0.25065 -1.462004,-0.33828 z m -27.143703,0.0836 c 0.735455,-0.96884 0.59019,-1.65267 -0.49107,-2.31167 -0.543172,-0.33105 -1.473518,-0.92912 -2.067431,-1.32903 l -1.079848,-0.72712 v 1.68898 c 0,1.46062 0.145995,1.79609 1.079848,2.48121 1.322527,0.97028 1.936004,1.01767 2.558501,0.19763 z M 61.756637,77.385 c 1.076022,-0.70534 1.187416,-0.94201 1.164788,-2.47468 l -0.02502,-1.69475 -1.439797,1.02634 c -2.9787,2.12331 -2.858623,1.9529 -2.104995,2.98734 0.816379,1.12058 0.922658,1.12746 2.405024,0.15575 z m -19.39937,-3.23916 c 0.662806,-1.12204 0.66193,-1.14824 -0.05736,-1.70976 -1.281842,-1.00068 -8.986599,-5.88615 -10.595015,-6.71815 -0.525668,-0.27191 -1.195351,-0.73398 -1.488192,-1.02682 -0.46994,-0.46994 -0.693175,-0.39347 -1.902054,0.65152 -0.75679,0.65419 -1.137781,1.18905 -0.851481,1.19535 0.284977,0.006 1.435422,0.28363 2.556536,0.61636 2.399306,0.71205 4.653799,2.2474 5.564913,3.78979 0.357926,0.60592 0.745679,1.10167 0.861674,1.10167 0.116,0 1.17442,0.71813 2.352054,1.59584 1.17763,0.87772 2.308698,1.60662 2.513477,1.61978 0.204783,0.0132 0.675236,-0.48885 1.04545,-1.11558 z m 18.379444,-0.4476 c 1.187832,-0.86875 2.402662,-1.84858 2.699621,-2.1774 2.391066,-2.64761 3.438101,-3.43545 5.48379,-4.12629 1.218214,-0.4114 2.507437,-0.74799 2.864937,-0.74799 0.920994,0 0.778603,-0.40662 -0.495551,-1.41512 l -1.105735,-0.87519 -1.843935,1.03372 c -1.014165,0.56855 -2.063308,1.25117 -2.331427,1.51695 -0.268119,0.26577 -1.158996,0.82432 -1.979723,1.24123 -0.820728,0.4169 -2.484668,1.46442 -3.697638,2.32783 -1.212975,0.8634 -2.346815,1.5723 -2.519645,1.57533 -1.049405,0.0184 -1.246868,0.62127 -0.628343,1.91834 0.345075,0.72363 0.799884,1.31399 1.010681,1.31191 0.210801,-0.002 1.355131,-0.71457 2.542968,-1.58332 z M 28.16128,72.6127 c 0,-0.65146 -0.373876,-1.02331 -1.615851,-1.60711 -1.633262,-0.76772 -3.943735,-1.01376 -4.288067,-0.45662 -0.278166,0.45008 1.938896,2.46086 3.37922,3.0648 1.514837,0.63519 2.524698,0.23476 2.524698,-1.00107 z m 48.233231,-0.84171 1.259825,-1.34496 -1.073343,-0.12196 c -2.261237,-0.25691 -5.225772,1.16105 -5.225772,2.49953 0,1.87096 2.870486,1.28276 5.03929,-1.03261 z M 44.654992,69.3755 c -0.0638,-0.0455 -0.981725,-0.60506 -2.039822,-1.24349 -1.058093,-0.63843 -2.110947,-1.32245 -2.339673,-1.52005 -0.695398,-0.60076 -4.24197,-2.84497 -4.496707,-2.84544 -0.131201,-2.4e-4 -0.709178,-0.40518 -1.284392,-0.89987 -1.258434,-1.08226 -1.107143,-1.07352 -2.601149,-0.15018 -1.341882,0.82933 -1.501769,1.22235 -0.632912,1.55576 0.318674,0.12229 1.574,0.86814 2.78961,1.65746 1.215605,0.78931 3.829968,2.47144 5.809691,3.73806 l 3.599498,2.30295 0.655934,-1.25624 c 0.360764,-0.69093 0.603731,-1.29346 0.539922,-1.33896 z m 18.212959,-1.64909 c 6.828148,-4.31849 6.463018,-4.03603 5.731832,-4.43402 -0.365246,-0.1988 -0.793614,-0.5783 -0.951933,-0.84332 -0.158314,-0.26502 -0.467424,-0.48186 -0.686909,-0.48186 -0.219484,0 -2.438623,1.33763 -4.931421,2.97251 -2.492797,1.63487 -4.969201,3.19643 -5.503127,3.47012 -1.25367,0.64265 -1.397735,1.08183 -0.811902,2.47512 l 0.479805,1.14112 1.771717,-1.15997 c 0.974445,-0.63799 3.180317,-2.05086 4.901938,-3.1397 z M 45.413557,66.82126 c 0.02723,-0.39353 -4.359568,-3.63589 -7.454755,-5.5099 -1.857631,-1.12472 -1.926683,-1.13751 -3.03813,-0.56276 -1.095829,0.56667 -1.111828,0.60721 -0.438836,1.11153 0.384153,0.28788 1.346368,0.85503 2.138259,1.26034 0.791886,0.40532 1.682764,0.96939 1.979719,1.25351 0.296959,0.28411 1.835742,1.30844 3.41952,2.2763 2.492771,1.52334 2.912464,1.67755 3.124257,1.14797 0.134567,-0.33646 0.256052,-0.7761 0.269966,-0.97699 z m 15.503126,-2.2921 c 5.154116,-3.23655 4.945126,-3.02488 3.755908,-3.80409 -0.777208,-0.50924 -1.127212,-0.56409 -1.568315,-0.24575 -0.312298,0.22538 -0.900907,0.55544 -1.308007,0.73347 -0.407105,0.17802 -1.216992,0.71085 -1.799747,1.18406 -0.582759,0.47321 -2.152907,1.56102 -3.489219,2.41735 -2.540098,1.62776 -2.663214,1.80325 -2.058154,2.93382 0.360693,0.67396 0.410452,0.66847 1.709758,-0.18869 0.736043,-0.48557 2.877039,-1.84915 4.757776,-3.03017 z m -9.207195,-1.2463 c 1.617232,-3.23624 1.689849,-8.2884 0.195909,-13.63019 -0.351045,-1.25522 -0.427359,-1.31165 -1.26041,-0.93209 -0.647906,0.29521 -1.120843,0.29736 -1.755916,0.008 -0.835216,-0.38055 -0.887287,-0.32304 -1.332539,1.472 -0.261437,1.05399 -0.470423,4.06405 -0.479562,6.90733 -0.01413,4.38754 0.07386,5.17895 0.680125,6.11914 1.913673,2.96767 2.493173,2.97586 3.952393,0.0558 z m -5.550735,0.36051 c 0,-0.93272 -0.229988,-1.29239 -1.169836,-1.82945 -0.643407,-0.36767 -2.013829,-1.29389 -3.045375,-2.05828 l -1.875543,-1.38979 -1.274016,0.60754 c -0.700707,0.33414 -1.271936,0.69902 -1.26939,0.81083 0.0049,0.21468 4.289984,3.14396 5.659427,3.86876 0.442605,0.23425 1.157402,0.67294 1.588445,0.97485 1.01603,0.71165 1.386288,0.44872 1.386288,-0.98446 z m 12.142841,-1.16924 c 3.951635,-2.6205 4.089731,-2.75438 3.364784,-3.26215 -1.248338,-0.87437 -1.87188,-0.70496 -5.105995,1.38728 -3.159997,2.04431 -3.325843,2.29244 -2.899029,4.33756 0.103175,0.49436 0.493364,0.28728 4.64024,-2.46269 z M 46.023775,60.12249 c -0.123735,-0.61866 -0.230059,-1.38805 -0.236281,-1.70976 -0.0062,-0.3217 -0.393213,-0.8624 -0.859982,-1.20154 -0.78911,-0.57335 -0.952517,-0.57583 -2.328359,-0.0354 -0.813832,0.31968 -1.47969,0.68053 -1.47969,0.80188 0,0.2677 4.37012,3.21515 4.814323,3.24704 0.173224,0.0124 0.21372,-0.48357 0.08999,-1.10223 z m 8.975857,0.49493 c 0.383781,-0.34645 1.404177,-1.10984 2.267551,-1.69643 l 1.569767,-1.06652 -1.029845,-0.33162 c -0.566411,-0.18239 -1.224794,-0.48545 -1.46308,-0.67345 -0.286491,-0.22605 -0.804653,-0.12243 -1.529786,0.30591 -0.858995,0.50742 -1.096546,0.89748 -1.096546,1.80052 0,0.63403 -0.09831,1.40899 -0.218484,1.72214 -0.297123,0.7743 0.616462,0.73743 1.500423,-0.0605 z M 42.447609,56.1761 c 1.232729,-0.57635 2.473717,-1.04791 2.75775,-1.04791 0.68249,0 0.844471,-0.49446 1.35313,-4.13052 0.371002,-2.65203 0.351722,-3.25219 -0.141957,-4.418481 -0.314198,-0.742282 -0.744382,-1.916526 -0.955962,-2.609429 -0.548999,-1.797934 -1.34662,-2.8907 -4.434842,-6.075893 -2.411913,-2.487644 -5.997337,-5.44249 -6.603951,-5.44249 -0.119312,0 -0.936943,-0.485932 -1.816959,-1.079849 -0.880019,-0.593916 -1.74284,-1.079848 -1.917388,-1.079848 -0.292425,0 -1.666509,-0.646251 -6.778898,-3.188209 -1.05219,-0.523165 -2.024053,-0.953547 -2.159696,-0.956402 -0.135642,-0.0028 -1.157212,-0.529283 -2.270159,-1.169836 -1.112946,-0.640554 -2.129208,-1.164644 -2.258362,-1.164644 -0.242151,0 -2.210498,-1.331028 -5.55225,-3.754521 C 10.614672,19.29413 9.2196046,17.877333 8.5679156,16.90963 L 7.3830263,15.150171 6.656199,16.871746 c -0.8928599,2.114843 -1.2882922,4.693686 -0.975433,6.361368 0.2190175,1.167464 0.2984085,1.230319 1.146652,0.907817 1.1260389,-0.428118 4.880927,-0.532579 6.575933,-0.182941 0.692903,0.142928 2.270535,0.759002 3.505849,1.369054 2.346365,1.158736 4.614236,3.624608 5.393613,5.86451 0.958242,2.753957 1.25661,4.150197 1.125829,5.268445 l -0.141589,1.210645 2.393815,-0.06779 c 4.373627,-0.123858 7.549583,1.473545 8.98222,4.517766 2.024633,4.30216 0.04375,7.99922 -5.151999,9.61558 -1.138339,0.35413 -2.069708,0.75742 -2.069708,0.8962 0,0.46981 2.837944,2.81972 4.39316,3.63768 1.641782,0.86349 5.041411,1.39905 7.118571,1.12142 0.689242,-0.0921 2.261764,-0.63906 3.494497,-1.2154 z m -12.400797,-1.826 c -0.75523,-0.75523 -0.519494,-1.70933 0.484606,-1.96134 1.23621,-0.31027 2.300094,0.66114 1.726421,1.57635 -0.487311,0.77743 -1.621156,0.97486 -2.211027,0.38499 z M 24.239698,36.276469 c -0.531437,-0.640342 -0.162711,-1.577258 0.732563,-1.861406 0.917912,-0.291334 1.749222,0.421492 1.749222,1.499908 0,0.70283 -0.18514,0.8558 -1.035775,0.8558 -0.569679,0 -1.220379,-0.222436 -1.44601,-0.494302 z M 67.27424,56.51581 c 1.557289,-0.72903 4.80088,-3.37696 4.80088,-3.91923 0,-0.1709 -0.95517,-0.57874 -2.122602,-0.90631 -5.127693,-1.43875 -7.061811,-5.420878 -4.806428,-9.895895 0.856144,-1.698715 1.281611,-2.109909 3.14956,-3.043882 1.87432,-0.937161 2.550761,-1.079849 5.119231,-1.079849 h 2.959535 l -0.03162,-1.619772 c -0.06827,-3.496961 1.124307,-6.202538 3.916587,-8.885469 3.028636,-2.910037 6.843934,-4.01773 11.372696,-3.301829 1.316567,0.208121 1.91498,0.165818 2.133654,-0.150833 0.508823,-0.736788 -0.05188,-5.906818 -0.817118,-7.534327 l -0.458484,-0.97511 -0.938803,1.171573 c -0.516329,0.644364 -1.667691,1.812061 -2.558564,2.594882 -0.890878,0.782821 -1.737704,1.605052 -1.88184,1.827179 -0.34914,0.538051 -5.063888,3.375601 -5.608747,3.375601 -0.235567,0 -0.428302,0.13099 -0.428302,0.29109 0,0.160099 -1.093349,0.794765 -2.429661,1.410369 -1.336311,0.615604 -4.130421,1.903035 -6.209126,2.860959 -3.512139,1.618484 -7.862058,3.93803 -8.278838,4.414598 -0.09899,0.113185 -0.827887,0.681688 -1.619774,1.263339 -1.923716,1.41299 -5.391362,4.969043 -6.544074,6.710907 -0.511808,0.773389 -1.045008,1.406162 -1.184897,1.406162 -0.366963,0 -1.089793,1.705297 -1.089793,2.571033 0,0.405577 -0.274889,1.202763 -0.610865,1.771523 -0.524808,0.888441 -0.551227,1.276561 -0.187518,2.755161 0.23284,0.94657 0.501185,2.4299 0.596323,3.29628 0.09514,0.86638 0.220016,1.61173 0.277506,1.65634 0.273455,0.21218 4.56374,2.13533 5.633107,2.52508 1.668709,0.60819 5.981542,0.28419 7.847994,-0.58957 z m 0.571472,-1.7785 c -0.932329,-0.35205 -1.067551,-1.46682 -0.259302,-2.13761 0.421,-0.34939 0.759871,-0.36159 1.439797,-0.0518 1.752166,0.79834 0.632921,2.87415 -1.180495,2.1894 z m 5.021294,-18.398479 c -0.601827,-0.601827 -0.539222,-1.166212 0.197973,-1.78478 1.074733,-0.901791 2.249684,-0.411048 2.249684,0.939629 0,1.186095 -1.56599,1.726816 -2.447657,0.845151 z M 45.798804,56.00682 c 0,-0.30864 -0.161977,-0.46106 -0.35995,-0.3387 -0.197972,0.12235 -0.359949,0.37488 -0.359949,0.56117 0,0.18629 0.161977,0.3387 0.359949,0.3387 0.197973,0 0.35995,-0.25252 0.35995,-0.56117 z m 8.795455,0.23894 c 0.109529,-0.17723 -0.04291,-0.41511 -0.338708,-0.52863 -0.326712,-0.12537 -0.537858,0.001 -0.537858,0.32223 0,0.58218 0.562465,0.71462 0.876566,0.2064 z M 24.412763,46.997191 c 2.320538,-1.132823 1.863502,-3.387603 -0.686577,-3.387198 -2.321632,3.59e-4 -8.831069,3.286132 -7.409943,3.740317 0.278646,0.0891 0.749594,0.25274 1.046552,0.36376 1.13229,0.42329 5.65683,-0.0368 7.049968,-0.716879 z m 27.568373,-0.02505 c 1.514827,-1.370899 1.20833,-4.476248 -0.547477,-5.546866 -1.55321,-0.947087 -2.271931,-0.873817 -3.502844,0.357095 -1.48542,1.485422 -1.481878,3.612796 0.0085,5.103182 0.880179,0.880178 1.261915,1.025218 2.243286,0.852318 0.650438,-0.11459 1.459776,-0.45917 1.798524,-0.765729 z m 30.681794,0.476539 1.409101,-0.425192 -1.486173,-0.983501 c -1.995899,-1.320826 -5.001248,-2.429777 -6.585495,-2.43 -1.452798,-2.03e-4 -2.625362,0.98718 -2.422607,2.040007 0.333376,1.731086 5.753193,2.804106 9.085174,1.798686 z M 17.153382,35.112488 c 0.728109,-0.279402 0.747051,-2.065545 0.02823,-2.662112 -0.572129,-0.474825 -6.40751,-0.369332 -6.90161,0.124768 -0.4364849,0.436485 0.731136,1.287224 2.775729,2.022421 2.064445,0.742336 3.149645,0.878705 4.097648,0.514923 z m 69.487659,-0.527827 c 1.717835,-0.642725 3.305704,-2.049734 2.454352,-2.174804 -0.557466,-0.0819 -1.024713,-0.165246 -2.49177,-0.44449 -3.168441,-0.603092 -5.74384,1.01707 -4.246601,2.671502 0.80359,0.887956 1.803784,0.875767 4.284019,-0.05221 z M 32.120726,24.532488 c 0,-0.197972 -0.07143,-0.359949 -0.158735,-0.359949 -0.0873,0 -0.258837,0.161977 -0.381191,0.359949 -0.122353,0.197973 -0.05092,0.35995 0.158731,0.35995 0.209659,0 0.381195,-0.161977 0.381195,-0.35995 z"
     style="fill:#000000;stroke-width:0.35994947" />
</svg>
