<?xml version="1.0" encoding="UTF-8" standalone="no"?>
<svg
   xmlns:dc="http://purl.org/dc/elements/1.1/"
   xmlns:cc="http://creativecommons.org/ns#"
   xmlns:rdf="http://www.w3.org/1999/02/22-rdf-syntax-ns#"
   xmlns:svg="http://www.w3.org/2000/svg"
   xmlns="http://www.w3.org/2000/svg"
   width="100"
   height="100"
   viewBox="0 0 100 100"
   version="1.1"
   id="svgLL3">
  <defs
     id="defs2" />
  <metadata
     id="metadata5">
    <rdf:RDF>
      <cc:Work
         rdf:about="">
        <dc:format>image/svg+xml</dc:format>
        <dc:type
           rdf:resource="http://purl.org/dc/dcmitype/StillImage" />
        <dc:title></dc:title>
      </cc:Work>
    </rdf:RDF>
  </metadata>
  <path
     d="M 6.1015625,4.9003906 6.0195312,49.580078 c -0.04491,24.57428 -0.013088,44.860838 0.070313,45.080078 0.12077,0.31739 9.1457262,0.38256 44.2851562,0.31836 l 44.134766,-0.08203 V 49.898438 4.9003906 H 50.306641 Z M 6.9648438,5.3769531 H 50.498047 94.033203 V 49.898438 94.419922 h -1.755859 c -1.61254,0 -1.788253,-0.07186 -2.132813,-0.875 -0.20636,-0.481 -0.634775,-1.257063 -0.953125,-1.726563 l -0.578125,-0.855468 -1.503906,0.652343 c -0.82707,0.3588 -1.883676,1.008187 -2.347656,1.441407 -0.81229,0.75842 -0.850769,0.763783 -1.042969,0.158203 -0.10979,-0.34593 -0.982803,-1.368678 -1.939453,-2.273438 l -1.740235,-1.644531 v -2.386719 c 0,-1.31198 0.291385,-3.78634 0.646485,-5.5 0.73765,-3.55972 0.547392,-4.798828 -0.736328,-4.798828 -1.30546,0 -2.771485,1.710132 -2.771485,3.232422 0,1.31851 -0.473213,1.323036 -0.933593,0.0098 -0.53356,-1.52228 -2.499646,-5.617122 -3.416016,-7.113282 -0.68953,-1.12578 -0.720836,-1.517259 -0.884766,-10.943359 -0.09353,-5.3771 -0.222356,-9.827825 -0.285156,-9.890625 -0.06278,-0.06278 -0.741355,0.244344 -1.509765,0.683594 -0.76841,0.43926 -1.473507,0.800734 -1.566407,0.802734 -0.09291,0.0021 -0.192103,-0.906894 -0.220703,-2.021484 -0.02866,-1.1146 -0.337187,-2.868485 -0.685547,-3.896485 -0.4237,-1.25036 -0.528023,-1.97476 -0.314453,-2.1875 0.21309,-0.21226 0.469084,-0.10614 0.771484,0.31836 2.89533,4.06447 5.624484,6.261578 9.839844,7.923828 3.34092,1.31744 4.288752,1.829755 4.951172,2.671875 0.33129,0.42119 0.78429,0.696728 1.00586,0.611328 0.716889,-0.27631 2.544877,-4.357789 2.398437,-5.355469 -0.09448,-0.64378 0.01292,-0.954728 0.365234,-1.048828 0.27549,-0.0736 1.789132,-0.451914 3.363282,-0.839844 1.57416,-0.38793 2.987021,-0.816858 3.138671,-0.955078 0.15165,-0.13822 -0.544854,-1.509625 -1.546874,-3.046875 -1.62644,-2.49516 -1.778047,-2.865032 -1.410157,-3.445312 1.15036,-1.8145 1.405363,-2.647236 1.351563,-4.416016 -0.03108,-1.02222 -0.126844,-1.931531 -0.214844,-2.019531 -0.08802,-0.08804 -0.921243,0.122307 -1.851562,0.466797 -2.19613,0.81318 -4.112094,1.030201 -10.371094,1.175781 -5.45121,0.1268 -7.880071,0.580653 -9.369141,1.751953 -0.8768,0.68968 -1.675042,0.827724 -1.976562,0.339844 -0.10297,-0.16659 0.316233,-0.964648 0.933593,-1.773438 0.61736,-0.80877 1.123047,-1.722436 1.123047,-2.029296 0,-1.04768 2.409009,-1.805744 6.042969,-1.902344 3.79808,-0.10098 5.988755,-0.882985 9.078125,-3.240235 0.88289,-0.67365 2.438891,-1.592708 3.457031,-2.042968 1.83009,-0.80936 1.843522,-0.826077 1.263672,-1.466797 -0.32258,-0.35646 -1.398545,-1.149369 -2.390625,-1.761719 l -1.802734,-1.113281 0.304687,-1.167969 c 0.16753,-0.64209 0.526138,-1.863534 0.798828,-2.714844 0.41687,-1.30125 0.426627,-1.592309 0.06055,-1.824219 -0.58124,-0.36823 -4.626825,-0.361654 -5.921875,0.0098 -0.99917,0.28655 -1.057034,0.250764 -1.871094,-1.191406 -1.61103,-2.85406 -2.353922,-3.873047 -2.820312,-3.873047 -0.27522,0 -1.11582,1.282459 -2.03125,3.099609 -1.7297,3.43351 -1.996293,3.724508 -6.564453,7.148438 -3.72869,2.79472 -4.953528,4.096533 -5.705078,6.064453 -0.48004,1.25699 -0.680276,1.447844 -1.628907,1.558594 l -1.082031,0.126953 0.0039,-1.763672 c 0.005,-2.83526 0.999735,-4.520829 4.921874,-8.324219 4.39073,-4.25781 5.90592,-6.686328 6.13086,-9.830078 0.08712,-1.21779 0.06596,-2.2148436 -0.04883,-2.2148436 -0.32891,0 -4.082574,1.8091626 -4.996094,2.4082026 l -0.824219,0.541016 -2.085937,-2.085937 c -2.32603,-2.32603 -4.489517,-3.8884341 -4.972656,-3.5898441 -0.456531,0.28215 -2.81016,4.6298491 -3.06836,5.6679691 -0.11963,0.48099 -0.256334,0.875 -0.302734,0.875 -0.04646,0 -0.70923,-0.347355 -1.47461,-0.771485 -0.76538,-0.42412 -2.271023,-0.995984 -3.345703,-1.271484 -1.8737,-0.48034 -4.884765,-0.685031 -4.884765,-0.332031 0,0.09297 0.313805,1.058834 0.697265,2.146484 0.59038,1.67462 0.732875,2.975454 0.921875,8.496094 0.29559,8.63427 0.47876,10.949897 1.06836,13.492187 0.27167,1.17145 0.49414,2.194938 0.49414,2.273438 0,0.07846 -1.174655,-1.255701 -2.609375,-2.962891 -1.43473,-1.70719 -2.687856,-3.174219 -2.785156,-3.261719 -0.8719,-0.78332 -2.007813,-3.159341 -2.007813,-4.201171 0,-1.47268 -0.373419,-1.780086 -1.224609,-1.009766 -0.82667,0.74812 -0.997544,0.462662 -1.708984,-2.830078 -0.47209,-2.18497 -0.49482,-2.801591 -0.15625,-4.212891 0.32949,-1.37356 0.31791,-1.886124 -0.0625,-3.027344 -0.79131,-2.37393 -1.374964,-1.964617 -1.839844,1.289063 -0.1876,1.3131 -0.13366,1.976886 0.21875,2.666016 0.54154,1.05896 2.067776,7.144337 1.910156,7.617187 -0.15862,0.47585 -1.704664,-2.309395 -2.089843,-3.765625 -0.45773,-1.73053 -0.611707,-2.676116 -0.873047,-5.347656 -0.12288,-1.2561 -0.481795,-2.857011 -0.796875,-3.556641 -0.53784,-1.19425 -1.951361,-3.019531 -2.337891,-3.019531 -0.3514,0 -0.160251,2.911307 0.255859,3.904297 0.23586,0.56283 0.798693,1.464483 1.251954,2.001953 0.576899,0.6841 0.932146,1.637587 1.185546,3.179687 0.4823,2.93508 0.894676,4.20966 1.791016,5.53711 0.74412,1.10203 0.964396,1.922243 0.509766,1.902343 -0.29977,-0.01315 -2.535676,-3.534756 -2.978516,-4.691406 -0.18164,-0.47444 -0.398369,-1.507842 -0.480469,-2.294922 -0.25607,-2.45561 -0.454203,-2.993761 -1.433593,-3.894531 -1.206701,-1.10993 -1.679684,-1.124629 -1.408204,-0.04297 0.11487,0.45767 0.292462,1.280085 0.394532,1.828125 0.10206,0.54804 0.501848,1.353756 0.886718,1.791016 0.38487,0.43727 0.880013,1.431254 1.101563,2.208984 0.22156,0.77773 0.764378,1.887064 1.205078,2.464844 0.44071,0.57779 0.70758,1.050781 0.59375,1.050781 -0.59429,0 -2.412109,-0.971332 -2.412109,-1.289062 0,-0.68751 -1.929317,-4.410645 -3.035157,-5.859375 C 27.744209,18.423687 27.25,17.41147 27.25,16.96875 c 0,-0.9789 -0.94091,-2.795329 -2.1875,-4.224609 -1.10743,-1.26971 -1.375924,-1.005014 -0.927734,0.910156 0.54907,2.34623 1.217118,3.69311 2.386718,4.8125 1.30614,1.25006 3.172585,4.052259 3.458985,5.193359 0.11091,0.4419 0.328845,0.882416 0.484375,0.978516 0.43599,0.26945 0.334484,1.091797 -0.134766,1.091797 -1.07361,0 -2.761719,-2.664692 -2.761719,-4.357422 0,-1.08554 -2.70921,-3.872831 -3.24414,-3.337891 -0.63712,0.63711 0.252036,2.765423 1.660156,3.970703 0.69567,0.59548 1.265625,1.259936 1.265625,1.478516 0,0.21858 0.296483,0.814276 0.658203,1.322266 1.07435,1.50878 0.292028,1.061441 -2.320312,-1.324219 -1.81272,-1.65543 -2.542157,-2.5568 -2.779297,-3.4375 -0.17683,-0.65668 -0.645516,-1.493435 -1.041016,-1.859375 -0.93418,-0.86437 -3.393714,-2.131666 -3.646484,-1.878906 -0.37773,0.37774 0.598666,2.827257 1.441406,3.617187 0.4678,0.43851 1.457812,1.061013 2.201172,1.382813 0.74334,0.32179 1.351562,0.70104 1.351562,0.84375 0,0.14271 1.09935,1.184113 2.44336,2.314453 l 2.445312,2.054687 1.796875,-0.103515 c 1.89645,-0.10925 3.746689,0.458772 4.917969,1.507812 1.18261,1.0592 1.393473,1.037876 2.820312,-0.277344 l 1.398438,-1.291015 0.345703,1.373047 c 0.39417,1.56535 0.964997,2.366293 5.560547,7.814453 4.21785,5.00038 4.80549,6.762434 3.375,10.115234 -1.39959,3.28039 -3.942471,4.636589 -6.457031,3.443359 -1.45495,-0.69043 -3.908253,-2.843737 -4.476563,-3.929687 -0.70534,-1.34781 -3.390606,-3.986949 -5.035156,-4.949219 -0.83537,-0.48879 -2.327596,-1.128335 -3.316406,-1.421875 -0.98881,-0.29354 -1.851216,-0.692439 -1.916016,-0.886719 -0.10211,-0.306319 0.532501,-0.839672 3.025391,-2.539062 0.50889,-0.34689 0.501705,-0.430634 -0.115235,-1.271484 -0.80494,-1.09704 -1.40625,-3.37971 -1.40625,-5.34375 0,-1.11503 -0.13139,-1.49924 -0.55664,-1.625 -1.65959,-0.49077 -2.821088,-1.335718 -3.335938,-2.429688 -0.38299,-0.81379 -0.972812,-1.387588 -1.888672,-1.830078 -1.64892,-0.79662 -1.849609,-0.799 -1.849609,-0.03125 0,1.06207 1.53169,2.488199 4,3.724609 2.67869,1.3418 3.088483,1.70967 2.939453,2.63086 -0.08988,0.5556 -0.578934,0.288867 -3.621094,-1.970703 -1.93446,-1.43682 -3.857407,-2.934585 -4.273437,-3.328125 -0.41602,-0.39354 -1.068752,-0.714844 -1.451172,-0.714844 -0.38242,0 -1.142863,-0.08989 -1.689453,-0.199219 -0.7297,-0.14593 -0.989422,-0.0828 -0.982422,0.238281 0.0135,0.58751 2.72757,2.207199 4.0625,2.423829 0.5888,0.09554 1.880524,0.79631 2.871094,1.55664 0.99058,0.76032 2.610722,1.911074 3.601562,2.558594 1.3503,0.88243 1.835394,1.401482 1.933594,2.070312 0.0721,0.49079 0.0564,0.892578 -0.0332,0.892578 -0.46377,0 -4.83439,-3.094194 -4.974609,-3.521484 -0.40794,-1.24324 -3.97461,-2.834457 -3.97461,-1.773437 0,0.73828 2.059283,2.75 2.814453,2.75 0.36951,0 1.737263,0.715313 3.039063,1.589843 1.3018,0.87454 2.496517,1.589844 2.654297,1.589844 0.15779,0 0.622413,0.357662 1.033203,0.794922 0.74432,0.79202 0.745456,0.794922 0.06641,0.794922 -0.37475,0 -2.082099,-0.73314 -3.792969,-1.63086 -1.71087,-0.89772 -3.856358,-2.00675 -4.767578,-2.46289 -0.91121,-0.45614 -1.825943,-1.145923 -2.033203,-1.533203 -0.20727,-0.38729 -0.842559,-0.925043 -1.412109,-1.195313 -1.09771,-0.5209 -3.324219,-0.672702 -3.324219,-0.226562 0,0.69103 2.393964,2.598545 3.464844,2.759765 1.45068,0.21839 10.88799,4.956592 10.74414,5.394532 -0.26233,0.7987 -1.715666,0.368432 -5.878906,-1.742188 -3.7948,-1.92383 -4.667076,-2.248262 -5.816406,-2.164062 -0.74355,0.05445 -1.400385,0.245118 -1.458985,0.423828 -0.0586,0.17873 0.503437,0.719715 1.248047,1.203125 1.03713,0.6733 1.688906,0.863953 2.785156,0.814453 1.084151,-0.04888 2.182107,0.265502 4.529297,1.294922 2.82097,1.23719 3.080743,1.42375 2.914063,2.08789 -0.16481,0.65661 -0.02809,0.762527 1.355469,1.060547 3.69289,0.79549 6.403394,2.594271 8.552734,5.675782 1.8505,2.65304 3.680134,4.361845 5.464844,5.103515 2.11429,0.87863 1.679913,1.192511 -1.498047,1.082031 -2.31873,-0.08062 -6.843683,-2.203773 -8.851563,-4.152343 -1.53727,-1.49187 -3.839431,-2.570313 -5.488281,-2.570313 -0.71302,0 -1.577552,-0.148801 -1.919922,-0.332031 -0.34237,-0.18322 -2.267023,-0.331125 -4.277344,-0.328125 -3.78036,0.0061 -4.639083,-0.191939 -6.376953,-1.47461 -0.54124,-0.39945 -1.060896,-0.726562 -1.154297,-0.726562 -0.78021,0 -1.352016,5.942324 -0.785156,8.152344 0.25543,0.99581 0.252199,0.997748 -1.4316404,1.386718 -0.92781,0.21434 -2.0140625,0.596717 -2.4140625,0.847657 L 6.5566406,52.154297 6.6113281,30.117188 C 6.6419381,17.996698 6.7347063,7.4718556 6.8164062,6.7285156 Z M 57.619141,7.2851562 c 0.69075,10e-8 3.647951,2.6777967 5.457031,4.9414058 0.94293,1.179851 1.038194,1.223952 1.589844,0.738282 0.6423,-0.56546 4.005826,-2.5 4.347656,-2.5 0.32397,0 0.255347,2.395019 -0.0957,3.318359 -0.35615,0.93675 -1.678541,1.822897 -4.050781,2.716797 -3.096531,1.1668 -2.962562,1.195937 -4.519532,-0.945312 -0.80949,-1.11326 -1.605923,-1.894897 -1.876953,-1.841797 -0.25899,0.05074 -1.056937,1.268351 -1.773437,2.707031 -0.71652,1.43866 -1.375391,2.613375 -1.462891,2.609375 -0.08744,-0.0039 -0.588561,-0.346636 -1.113281,-0.759766 -1.53262,-1.20669 -4.649529,-2.645413 -6.230469,-2.876953 -1.42374,-0.20852 -1.475966,-0.257119 -2.009766,-1.855469 -0.30137,-0.90244 -0.628862,-1.838238 -0.726562,-2.080078 -0.14345,-0.35509 0.12238,-0.398396 1.375,-0.222656 2.68845,0.3772 4.991309,1.166357 6.199219,2.123047 1.37553,1.08943 1.871093,1.161994 1.871093,0.277344 0,-0.91821 2.582822,-6.3496098 3.019532,-6.3496098 z M 31.669922,13.328125 c 0.26645,0 0.799262,0.952167 1.289062,2.304687 0.37961,1.04826 -0.108691,1.1946 -0.644531,0.19336 -0.5368,-1.00302 -0.922991,-2.498047 -0.644531,-2.498047 z m -6.619141,0.693359 c 0.03729,-0.03448 0.163775,0.131957 0.41211,0.466797 0.27893,0.37609 0.65579,1.075708 0.83789,1.554688 0.18261,0.47897 0.2659,0.935272 0.1875,1.013672 -0.22975,0.22975 -1.084899,-1.262229 -1.318359,-2.298829 -0.10522,-0.46717 -0.156429,-0.70185 -0.119141,-0.736328 z m 51.154297,0.570313 c 0.405081,0.02752 0.88089,0.876517 1.816406,2.744141 0.8552,1.70727 1.316645,2.315831 1.677735,2.207031 2.85831,-0.86125 6.382812,-1.081881 6.382812,-0.400391 0,0.2247 -0.273822,1.190565 -0.607422,2.146484 -0.97924,2.80602 -0.96257,3.256924 0.13086,3.814454 1.34095,0.68372 2.81933,1.666341 3.08789,2.050781 0.13302,0.19041 -0.442735,0.620302 -1.390625,1.039062 -1.77905,0.78597 -1.683587,0.772277 -2.810546,0.410157 -0.437271,-0.14051 -1.416442,-0.42355 -2.175782,-0.63086 -1.28752,-0.35151 -1.36546,-0.434958 -1.15625,-1.230468 0.55296,-2.102571 1.024742,-4.68957 0.894532,-4.90625 -0.07844,-0.130541 -0.547266,-0.02877 -1.041016,0.226562 -1.07024,0.55344 -3.531563,1.428547 -4.033203,1.435547 -0.19588,0.0025 -0.523263,-0.839707 -0.726563,-1.873047 -0.20329,-1.03332 -0.698162,-2.364534 -1.101562,-2.958984 l -0.734375,-1.082032 0.783203,-1.65625 c 0.416176,-0.880779 0.688843,-1.357341 1.003906,-1.335937 z m -17.546875,0.0078 c 0.12992,0 0.773931,0.85992 1.431641,1.91211 1.36833,2.18901 1.245442,2.175842 5.132812,0.576172 1.20828,-0.49722 2.249953,-0.85151 2.314453,-0.78711 0.06442,0.06443 -1.65159,1.891474 -3.8125,4.058594 -2.42331,2.43025 -4.191281,4.489643 -4.613281,5.376953 -0.37631,0.79122 -0.796687,2.438013 -0.935547,3.658203 L 57.923828,31.613281 57.027344,28.75 c -0.4924,-1.57415 -1.019925,-2.991641 -1.171875,-3.150391 -0.4568,-0.47727 -1.09266,0.301983 -2.38086,2.914063 -0.66811,1.35471 -1.254534,2.515378 -1.302734,2.580078 -0.04813,0.06464 -0.502476,-0.149562 -1.009766,-0.476562 -2.73614,-1.763721 -4.520053,-3.025616 -4.564453,-3.228516 -0.02753,-0.12581 -0.07853,-2.768467 -0.115234,-5.873047 -0.0473,-3.99191 0.03567,-5.641719 0.287109,-5.636719 1.9141,0.04184 5.980351,2.019813 7.519531,3.658203 0.405931,0.43209 0.855377,0.78711 0.998047,0.78711 0.14266,0 0.906676,-1.289122 1.697266,-2.863281 0.79058,-1.574161 1.543908,-2.861329 1.673828,-2.861329 z m -22.582031,1.013672 c 0.04466,0.02137 0.0645,0.208647 0.0918,0.576172 0.0325,0.43727 0.02959,1.081821 -0.0078,1.431641 -0.03739,0.34981 -0.193363,0.850921 -0.345703,1.113281 -0.3707,0.63846 -0.351065,-1.836155 0.02148,-2.703125 0.126339,-0.294015 0.195574,-0.439344 0.240234,-0.417969 z m -16.917969,1.628907 c 0.496498,0.126182 3.003906,2.614271 3.003906,3.027343 0,0.52787 -0.347248,0.44977 -1.361328,-0.30664 -0.88504,-0.66017 -1.99967,-2.426121 -1.71289,-2.712891 0.01389,-0.01389 0.03721,-0.01622 0.07031,-0.0078 z m 11.423828,0.640624 c 0.04412,-0.0067 0.13538,0.05829 0.279297,0.177735 0.24857,0.20628 0.518963,0.728226 0.601563,1.160156 0.24257,1.26895 -0.106854,0.950713 -0.714844,-0.648437 -0.179238,-0.471425 -0.239555,-0.678256 -0.166016,-0.689454 z m 43.558594,0.634766 c 0.103114,0.02086 0.206151,0.146636 0.357422,0.353516 0.23639,0.32328 0.669207,1.676892 0.960937,3.007812 0.29172,1.33092 0.569388,2.465285 0.617188,2.521485 0.04779,0.05613 1.115197,-0.203525 2.373047,-0.578125 1.25786,-0.37461 2.346368,-0.622382 2.417969,-0.550782 0.31491,0.3149 -0.56965,3.609639 -1.06836,3.980469 -0.48065,0.35742 -0.490582,0.450497 -0.07617,0.716797 0.53575,0.34428 2.118972,0.796894 3.894532,1.115234 0.655889,0.1176 1.191776,0.306269 1.191406,0.417969 -0.001,0.33978 -2.937096,2.201453 -4.291016,2.720703 -0.72977,0.27988 -2.70173,0.545847 -4.625,0.623047 -3.40358,0.13658 -4.908789,0.537178 -6.636719,1.767578 -0.65819,0.46865 -1.182327,0.584716 -2.029297,0.447266 -0.65449,-0.1062 -2.135806,0.05424 -3.466796,0.375 -1.278,0.30798 -2.716276,0.75749 -3.197266,1 -0.481,0.24257 -0.875,0.324964 -0.875,0.183594 0,-0.39396 3.505814,-4.529297 3.839844,-4.529297 0.6351,0 0.247647,-0.636079 -0.501953,-0.824219 -2.11436,-0.53067 0.02554,-3.486776 5.503906,-7.603516 2.45061,-1.84152 4.508469,-3.642557 4.886719,-4.279297 0.383181,-0.645025 0.552752,-0.900007 0.724609,-0.865234 z m -49.083984,0.644531 c 0.215897,-0.107395 1.875,1.728919 1.875,2.121094 0,0.17215 -0.144786,0.3125 -0.322266,0.3125 -0.35215,0 -1.587319,-1.871346 -1.574219,-2.384765 6.5e-4,-0.02544 0.0071,-0.04167 0.02148,-0.04883 z m -2.701172,4.494141 c 0.211186,0.04691 0.587013,0.276089 0.96289,0.599609 0.50118,0.43136 0.819985,0.875019 0.708985,0.986329 -0.111,0.111299 -0.612101,-0.150682 -1.113282,-0.582032 -0.50116,-0.43136 -0.819984,-0.875028 -0.708984,-0.986328 0.02775,-0.02783 0.08,-0.03321 0.150391,-0.01758 z m -4.59961,0.177734 c 0.169965,-0.08568 0.913969,0.132258 1.361329,0.470704 0.33704,0.25499 0.551262,0.514218 0.476562,0.574218 -0.14348,0.11511 -1.432873,-0.501232 -1.783203,-0.851562 -0.103038,-0.103035 -0.111342,-0.164799 -0.05469,-0.19336 z m 37.572266,2.783204 0.443359,1.05664 c 0.24444,0.58137 0.671326,1.956128 0.947266,3.054688 0.27595,1.09856 0.609907,1.998046 0.742188,1.998046 0.132279,0 0.773088,-0.22224 1.423828,-0.49414 0.65072,-0.27189 1.664293,-0.451738 2.251953,-0.398438 l 1.068359,0.09766 -1.578125,2.023437 c -0.86722,1.11374 -1.576172,2.212463 -1.576172,2.439453 0,0.227 -1.053274,1.557665 -2.339843,2.958985 -2.18375,2.37854 -3.701172,4.811327 -3.701172,5.929687 0,0.54521 -0.498599,0.643983 -0.798828,0.158203 -0.10964,-0.17741 -0.761469,-0.610067 -1.449219,-0.960937 -1.17827,-0.6011 -1.251953,-0.720362 -1.251953,-2.082031 0,-0.79482 -0.282367,-2.116047 -0.628907,-2.935547 -1.3784,-3.25968 -2.504286,-10.552735 -1.628906,-10.552735 0.15703,0 1.292035,0.786057 2.521485,1.748047 1.229459,0.96198 2.352143,1.747141 2.496093,1.744141 0.14395,-0.003 0.607907,-0.825395 1.029297,-1.828125 0.42139,-1.00272 1.048944,-2.303865 1.396484,-2.890625 z m -34.884766,1.349609 c 0.36969,0.01299 1.400391,0.790291 1.400391,1.056641 0,0.40384 -0.549511,0.191319 -1.113281,-0.431641 -0.3166,-0.34981 -0.4454,-0.631 -0.28711,-0.625 z m -5.826171,0.34375 c 0.08458,-0.04405 0.354856,0.0068 0.873046,0.117187 1.10745,0.2359 2.21875,0.980728 2.21875,1.486328 0,0.147801 -0.107101,0.26286 -0.238281,0.25586 -0.58515,-0.03055 -2.189197,-0.8964 -2.617187,-1.41211 -0.220355,-0.265509 -0.320905,-0.403211 -0.236328,-0.447265 z m 2.623046,4.767578 c 0.636181,0.03635 1.423828,0.325347 1.423828,0.607422 10e-7,0.39116 -0.563073,0.36902 -1.589843,-0.0625 -0.4941,-0.20766 -0.640296,-0.392681 -0.384766,-0.488281 0.144023,-0.05387 0.338721,-0.06876 0.550781,-0.05664 z m 48.408204,2.867187 c 0.414114,-0.01528 0.901891,-0.0084 1.464843,0.02148 l 1.832031,0.09766 -1.292968,1.730469 c -1.50055,2.00811 -1.430322,2.180164 1.173828,2.902344 0.98627,0.2735 1.844403,0.65246 1.908203,0.84375 0.12339,0.37018 -3.270599,2.951172 -3.880859,2.951172 -0.77741,-10e-7 -1.101071,0.694161 -0.650391,1.394531 0.23806,0.36997 0.666462,1.582099 0.951172,2.693359 0.28472,1.11126 0.473122,2.471134 0.419922,3.021484 l -0.0957,1 -1.669922,-1.658203 c -0.91826,-0.91194 -1.669922,-1.849564 -1.669922,-2.083984 0,-0.23443 -0.446911,-1.133214 -0.994141,-1.996094 l -0.996093,-1.568359 1.791015,-1.626953 c 0.98449,-0.89468 1.789063,-1.766743 1.789063,-1.939453 0,-0.17271 -0.786057,-0.503595 -1.748047,-0.734375 -0.96198,-0.23078 -1.75,-0.473663 -1.75,-0.539063 0,-0.06533 0.357662,-0.82459 0.794922,-1.6875 0.43727,-0.8629 0.794921,-1.785931 0.794921,-2.050781 0,-0.474503 0.585781,-0.725639 1.828126,-0.771485 z m -3.00586,0.636719 c 0.33829,0.05893 0.306903,0.441055 -0.05469,1.15625 -0.55179,1.09138 -1.310547,2.964305 -1.310547,3.234375 0,0.15153 0.746906,0.454738 1.660156,0.673828 l 1.660156,0.398438 -1.660156,1.488281 c -1.73747,1.55618 -1.994126,2.194589 -1.160156,2.886719 0.27513,0.22836 0.77856,0.961316 1.11914,1.628906 0.71476,1.40105 0.705111,1.403669 -2.255859,0.53711 -1.92764,-0.564121 -4.213148,-0.595815 -6.080078,-0.08398 -0.33762,0.09256 -0.636591,-0.163087 -0.869141,-0.742187 -1.0348,-2.57704 2.661233,-8.231592 6.789063,-10.388672 1.11685,-0.583635 1.823819,-0.84799 2.162109,-0.789063 z m 27.574219,0.246094 c 0.79367,-0.21278 0.581272,3.221545 -0.273438,4.421875 -0.37443,0.52583 -0.68164,1.20071 -0.68164,1.5 0,0.29928 0.64457,1.513336 1.43164,2.697266 0.78707,1.18394 1.431641,2.307827 1.431641,2.498046 0,0.37338 -2.295513,1.112633 -5.064453,1.632813 -0.94865,0.17821 -1.790494,0.390103 -1.871094,0.470703 -0.08061,0.08061 0.02687,0.568875 0.240235,1.083984 0.330039,0.796801 0.295428,1.143017 -0.238282,2.316407 -0.34503,0.75857 -0.822227,1.622062 -1.060547,1.919922 -0.40204,0.50246 -0.503551,0.480581 -1.388671,-0.292969 -0.874021,-0.76382 -0.955757,-1.008501 -0.972657,-2.925781 -0.01018,-1.15109 -0.135407,-2.629267 -0.279297,-3.285157 -0.23658,-1.07842 -0.199165,-1.193359 0.396485,-1.193359 0.65933,0 4.75855,-1.376517 5.93164,-1.992187 0.56817,-0.298191 0.428127,-0.503362 -1.589843,-2.326172 l -2.212891,-2 L 85,40.298828 c 0.54201,-0.58002 1.219999,-1.403761 1.505859,-1.832031 0.30889,-0.46278 1.070533,-0.927301 1.876953,-1.144531 0.74629,-0.20102 1.571635,-0.423741 1.833985,-0.494141 z m -6.175781,1.166016 c 1.201581,-0.02414 1.961887,-0.02595 1.992187,0 0.06059,0.05182 -0.547612,0.750727 -1.351562,1.554687 -0.80396,0.80395 -1.460938,1.586831 -1.460938,1.738281 0,0.15147 0.861343,1.072245 1.914063,2.046875 l 1.914062,1.771485 -0.880859,0.451172 c -0.48428,0.24806 -1.936643,0.748298 -3.226563,1.111328 -1.28994,0.36301 -2.417759,0.732212 -2.505859,0.820312 -0.08804,0.08804 0.0019,0.800215 0.199219,1.583985 0.19735,0.78378 0.359375,2.148673 0.359375,3.033203 0,1.92239 -0.192752,1.967757 -3.044922,0.710937 -3.17857,-1.40063 -5.613346,-3.119237 -7.166016,-5.060547 -2.23504,-2.79445 -2.401276,-3.217037 -1.503906,-3.835937 1.25285,-0.86409 2.492187,-2.215277 2.492187,-2.716797 0,-0.27055 -0.411115,-0.566497 -0.953125,-0.685547 -0.52472,-0.11525 -0.955078,-0.325047 -0.955078,-0.466797 0,-0.14175 0.678966,-0.582965 1.509766,-0.978515 1.35248,-0.64394 2.19421,-0.741733 8.03125,-0.945313 1.792785,-0.06259 3.435137,-0.108677 4.636719,-0.132812 z m -72.03125,4.300781 1.453125,0.921875 c 0.7995,0.50703 1.881237,1.015969 2.404297,1.130859 0.911329,0.20015 0.943218,0.264977 0.761718,1.529297 -0.11734,0.81742 -0.01288,1.801774 0.273438,2.589844 0.25419,0.69963 0.466609,1.430657 0.474609,1.623047 0.0077,0.1924 -0.910022,0.742806 -2.039062,1.222656 -1.12903,0.47984 -2.215936,1.069467 -2.416016,1.310547 -0.52771,0.63586 0.617892,2.343101 2.570313,3.832031 0.86953,0.66312 1.582031,1.2825 1.582031,1.375 0,0.09246 -0.354176,0.886372 -0.785157,1.763672 -0.430989,0.87731 -0.858118,1.968571 -0.949218,2.425781 -0.13949,0.70005 -0.458002,0.913413 -2.019532,1.351563 -1.019829,0.28614 -1.933049,0.519531 -2.03125,0.519531 -0.244449,0 0.04163,-2.808989 0.402344,-3.943359 0.45239,-1.42266 0.375112,-1.624319 -0.798828,-2.048828 -1.3587196,-0.49131 -4.3124999,-3.657477 -4.3124999,-4.623047 0,-0.55709 0.3188157,-0.817602 1.5097657,-1.232422 0.8307999,-0.28938 2.0611652,-0.622535 2.7343752,-0.740235 1.18482,-0.20715 1.216955,-0.246581 0.978515,-1.207031 -0.32827,-1.32199 -0.353408,-5.153487 -0.04297,-6.623047 z m 8.771484,1.902344 c 2.408663,-0.03042 3.120216,0.47479 4.576172,2.613281 0.7955,1.1684 1.836483,2.53236 2.314453,3.03125 l 0.869141,0.90625 -2.0625,0.876953 c -2.6404,1.12219 -2.9868,1.520212 -2,2.294922 0.41264,0.32397 1.490734,0.935935 2.396484,1.359375 1.75252,0.8193 1.836937,0.978301 1.310547,2.488281 -0.3735,1.07143 -2.875612,2.59822 -5.326172,3.25 -0.75336,0.20038 -2.577997,0.619804 -4.054687,0.933594 -2.621181,0.55701 -2.685547,0.556803 -2.685547,-0.0293 0,-0.60806 0.869242,-2.399549 1.763671,-3.636719 0.46219,-0.63932 0.430534,-0.710628 -0.566406,-1.298828 -1.3791,-0.81369 -3.362444,-2.563855 -3.771484,-3.328125 -0.28788,-0.53793 -0.05857,-0.727031 2.0625,-1.707031 1.31175,-0.60606 2.469749,-1.239163 2.574219,-1.408203 0.10447,-0.16903 -0.03678,-0.746243 -0.314453,-1.283203 -0.34221,-0.66173 -0.474157,-1.609917 -0.410157,-2.941407 l 0.09375,-1.964843 2.087891,-0.113282 c 0.420497,-0.02301 0.798483,-0.03862 1.142578,-0.04297 z m 4.650391,0.564453 c 0.761027,-0.08699 2.720727,0.856781 4.632812,2.277343 4.45663,3.310991 8.384261,4.946939 11.300781,4.705079 1.68575,-0.13979 1.701488,-0.133473 2.085938,0.929687 0.43405,1.20036 0.363714,1.343836 -1.572266,3.160156 -1.36404,1.27973 -3.02482,1.855478 -7.15625,2.486328 -1.74906,0.26708 -3.751552,0.625162 -4.451172,0.794922 -0.69962,0.16975 -1.383068,0.312407 -1.517578,0.316407 -0.27163,0.0084 -0.04178,-1.268194 0.472656,-2.626953 0.18425,-0.486601 0.280191,-0.930029 0.212891,-0.986329 -0.06726,-0.05622 -1.088921,-0.572134 -2.269531,-1.146484 -1.18062,-0.57436 -2.146484,-1.212206 -2.146484,-1.416016 0,-0.2038 1.072975,-0.778697 2.384765,-1.279297 1.3118,-0.500619 2.386719,-0.963343 2.386719,-1.027343 0,-0.064 -0.526772,-0.577515 -1.169922,-1.140625 -1.13427,-0.99308 -3.702716,-4.684003 -3.441406,-4.945313 0.05615,-0.05615 0.139328,-0.08913 0.248047,-0.101562 z m 24.3125,0.05469 c 0.66546,-0.0092 3.265625,2.705996 3.265625,3.410156 0,0.47362 -0.423165,0.865187 -1.484375,1.378907 -1.60328,0.77614 -3.694874,2.745298 -4.433594,4.173828 -0.25312,0.48948 -0.644001,0.888672 -0.869141,0.888672 -0.81359,0 -2.1653,-1.814102 -2.34375,-3.144531 -0.1646,-1.227221 -0.127428,-1.306641 0.613282,-1.306641 1.37123,0 3.23754,-1.649841 4.08789,-3.613281 0.42459,-0.9804 0.948503,-1.78411 1.164063,-1.78711 z m 8.023437,4.185547 c 3.195514,0.02237 6.331863,1.158034 8.4375,3.263672 l 1.439453,1.439453 -1.492187,1.919922 c -0.82027,1.05627 -1.571975,1.874659 -1.671875,1.818359 -2.62581,-1.47885 -4.196072,-1.975874 -6.582031,-2.083984 l -2.582032,-0.117187 -0.158203,1.064453 c -0.24331,1.64656 0.04271,5.14343 0.558594,6.84375 0.61528,2.0279 0.618304,2.011718 -0.478516,2.011718 -0.52284,0 -1.68702,0.280747 -2.58789,0.623047 -0.90086,0.3423 -1.969257,0.93316 -2.373047,1.3125 l -0.734375,0.689453 -1.134766,-1.203125 c -1.58942,-1.68528 -2.184441,-3.9201 -2.019531,-7.58789 0.10898,-2.42414 0.267492,-3.130105 0.976562,-4.328125 1.33911,-2.26252 2.617082,-3.453527 4.794922,-4.472657 1.750234,-0.819033 3.690114,-1.206783 5.607422,-1.193359 z m 12.851563,4.076172 c 0.22872,-1.7e-4 0.369172,0.830451 0.388671,2.306641 0.01681,1.26821 0.145127,5.055968 0.285157,8.417968 0.22586,5.42319 0.191245,6.274595 -0.296875,7.552735 -0.56582,1.48157 -1.074887,1.793029 -2.722656,1.662109 -0.642931,-0.05107 -0.813779,0.09685 -0.892579,0.777344 -0.05359,0.4628 -0.340498,1.061215 -0.636718,1.328125 -1.63537,1.47356 -5.515403,0.601472 -10.376953,-2.330078 -1.738751,-1.04847 -3.278432,-1.90625 -3.419922,-1.90625 -0.1415,0 -0.25586,-0.123178 -0.25586,-0.273438 0,-0.26305 6.7712,-2.58789 7.53711,-2.58789 0.71234,0 0.728126,-0.588332 0.09766,-3.707032 -0.34814,-1.72208 -0.634719,-3.312966 -0.636719,-3.535156 -0.004,-0.53806 2.268316,0.619273 4.003906,2.039063 1.46042,1.19468 1.396882,1.2203 2.982422,-1.19336 0.41523,-0.63209 1.370607,-1.561606 2.123047,-2.066406 0.75243,-0.5048 1.371,-1.027023 1.375,-1.158203 0.03042,-1.03812 -3.249722,1.487365 -4.445312,3.421875 l -0.677735,1.097656 -2.255859,-1.583984 c -2.61617,-1.83726 -3.744221,-2.051195 -3.744141,-0.708985 3e-5,0.48099 0.214233,1.996288 0.476563,3.367188 0.26233,1.37091 0.478515,2.684579 0.478515,2.917969 0,0.26035 -1.259865,0.814507 -3.259765,1.435546 -1.79279,0.55672 -3.667916,1.223189 -4.166016,1.480469 -0.75706,0.39111 -1.172024,0.403255 -2.527344,0.07813 L 48.431641,69.521484 49.6875,68.441406 c 1.85583,-1.59793 3.295767,-2.254746 5.498047,-2.503906 2.042,-0.23103 2.550621,-0.528747 2.019531,-1.185547 -0.5976,-0.73908 -1.374991,-4.85118 -1.27539,-6.744141 l 0.09961,-1.908203 1.113281,-0.109375 c 1.7742,-0.17355 4.328195,0.546545 6.046875,1.703125 l 1.587891,1.06836 1.191406,-1.689453 c 1.14356,-1.62148 3.905281,-3.993521 4.650391,-3.994141 z m -26.248047,1.369141 c 0.189311,-0.02627 0.3964,0.120863 0.80664,0.417968 0.75318,0.54545 0.805257,0.723127 0.591797,2.029297 -0.56362,3.44879 0.105133,7.84077 1.414063,9.28711 0.48146,0.53204 0.475289,0.571645 -0.08789,0.572265 -0.34005,4.1e-4 -1.596001,-1.037587 -2.863281,-2.367187 l -2.257813,-2.369141 -1.226562,1.253906 c -0.67399,0.69022 -1.311326,1.25586 -1.416016,1.25586 -0.1047,0 -0.488075,-0.707286 -0.853515,-1.572266 L 37.814453,61.380859 36.185547,62 c -2.34072,0.8894 -2.892578,0.828308 -2.892578,-0.320312 0,-1.64118 0.611953,-2.52961 1.876953,-2.72461 4.71278,-0.72648 6.547203,-1.564809 8.501953,-3.880859 0.338425,-0.400975 0.509907,-0.600688 0.699219,-0.626953 z m -37.7910159,0.451172 1.3515625,1.435546 c 0.74336,0.78943 1.8286828,1.679023 2.4140624,1.976563 0.85989,0.43718 1.026881,0.673642 0.863281,1.232422 -0.5449,1.86106 -0.77322,4.812727 -0.40039,5.185547 0.08511,0.08513 1.20748,-0.192268 2.49414,-0.617188 1.28664,-0.42493 3.41281,-1.013664 4.72461,-1.308594 5.71618,-1.28515 6.606982,-1.546365 8.169922,-2.390625 1.19393,-0.64493 1.693637,-0.781607 1.804687,-0.492187 0.12255,0.31934 0.527859,0.312584 2.005859,-0.03516 2.48349,-0.58436 3.315002,-0.57589 3.082032,0.03125 -0.11322,0.29504 -0.598461,0.476562 -1.269532,0.476562 -1.67428,0 -5.458715,1.459406 -6.916015,2.666016 -0.72119,0.59712 -2.526972,2.257353 -4.013672,3.689453 -3.58702,3.45529 -4.353186,3.913711 -10.097656,6.056641 -0.56844,0.212049 -1.0332034,0.563306 -1.0332034,0.779296 0,0.9127 2.2386284,3.287835 3.6425784,3.865235 1.47708,0.60747 1.757917,1.165088 1.154297,2.292969 -0.16042,0.299729 -0.358153,1.367576 -0.439453,2.373046 -0.12401,1.53424 -0.05498,1.877329 0.429687,2.136719 0.87483,0.46819 3.892591,0.370641 5.181641,-0.167969 1.12718,-0.47096 1.150872,-0.464432 1.601562,0.398438 0.69715,1.33468 3.799434,3.895879 4.214844,3.480469 0.08085,-0.08085 0.194053,-1.128878 0.251953,-2.330079 0.12075,-2.50802 0.871651,-4.598423 2.832031,-7.871093 1.341,-2.23871 3.072266,-5.878335 3.072266,-6.458985 0,-0.16501 0.218595,-1.032754 0.484375,-1.927734 0.46369,-1.5614 0.555554,-1.654628 2.277344,-2.298828 2.23906,-0.83774 2.742061,-0.401239 1.357421,1.175781 -0.509329,0.5801 -1.161728,1.508523 -1.449218,2.064453 -0.57563,1.11316 -2.505623,7.446185 -3.033203,9.953125 -0.61466,2.92078 -1.956833,6.337602 -3.345703,8.513672 l -1.376954,2.15625 0.875,0.335938 c 1.62331,0.62467 3.809957,0.381305 6.060547,-0.671875 1.1633,-0.54437 2.16095,-0.847139 2.21875,-0.673828 0.29571,0.88711 2.142429,3.01968 3.105469,3.58789 0.60279,0.35565 1.095703,0.705191 1.095703,0.775391 0,0.07011 -7.512752,0.126953 -16.695312,0.126953 H 6.5800781 V 74.660156 Z m 24.9667969,6.126953 c 1.018795,-0.05866 1.082027,0.634011 0.929687,2.933593 -0.29471,4.44836 -1.49568,7.813387 -5.625,15.748047 -0.56774,1.09092 -1.133359,1.986282 -1.255859,1.988281 -0.1225,0.0023 -0.550905,-0.721151 -0.953125,-1.607421 -0.64215,-1.41486 -0.829254,-1.593038 -1.527344,-1.460938 -0.43727,0.08275 -1.353929,0.257442 -2.037109,0.388672 l -1.242187,0.238281 0.205078,-1.734375 c 0.11222,-0.95481 0.290797,-2.176664 0.398437,-2.714843 l 0.197266,-0.978516 -2.107422,-0.367188 c -3.72293,-0.64832 -4.566181,-1.247337 -2.681641,-1.904296 1.25916,-0.438941 2.99406,-1.859162 6.66211,-5.451172 2.92245,-2.86186 4.789958,-4.029462 7.673828,-4.800782 0.579152,-0.154902 1.023683,-0.257791 1.363281,-0.277343 z m 5.537109,1.564453 c 0.29639,-0.08544 0.639438,0.359279 0.992188,1.287109 0.29631,0.77935 0.713674,1.475475 0.927734,1.546875 0.21406,0.07135 0.940998,-0.410022 1.617188,-1.070312 l 1.230468,-1.201172 2.169922,2.046875 c 1.46436,1.3814 2.620541,2.18243 3.556641,2.46289 l 1.388672,0.416016 -0.818359,0.818359 c -1.2079,1.20789 -2.450467,1.04718 -4.373047,-0.5625 -0.86887,-0.72744 -1.578125,-1.452708 -1.578125,-1.611328 0,-0.84555 -0.588944,-0.07627 -1.058594,1.382813 -0.29557,0.91826 -0.800337,2.009521 -1.123047,2.425781 l -0.587891,0.755859 -1,-1.748047 c -0.55038,-0.961949 -1.090961,-2.200853 -1.201172,-2.751953 -0.258459,-1.29227 -0.463866,-1.393204 -1.753906,-0.865234 -2.52797,1.03462 -2.498047,1.043091 -2.498047,-0.693359 v -1.56836 l 1.828125,-0.46875 c 1.0057,-0.25854 2.03228,-0.529762 2.28125,-0.601562 z m 4.980469,5.21289 1.134766,0.986328 1.132812,0.984376 0.177735,3.498046 c 0.1746,3.44114 1.041939,7.092965 2.037109,8.578125 0.23118,0.34501 0.419922,0.739 0.419922,0.875 0,0.48605 -1.382345,0.233803 -3.208985,-0.585937 -1.021369,-0.45836 -2.050679,-0.758669 -2.287109,-0.667969 -0.23643,0.09073 -0.746472,1.252411 -1.132812,2.582031 -0.38633,1.32962 -0.804598,2.417969 -0.929688,2.417969 -0.12509,0 -1.114429,-0.94299 -2.199219,-2.09375 l -1.972656,-2.091797 -1.726562,1.726563 c -1.77133,1.77133 -3.337636,2.609697 -2.916016,1.560547 0.11788,-0.29332 0.762461,-2.608402 1.431641,-5.144532 2.37349,-8.99532 2.642996,-9.770587 3.910156,-11.210937 0.42315,-0.48099 0.846253,-0.873047 0.939453,-0.873047 0.09316,0 0.482827,0.608212 0.867188,1.351562 0.384369,0.74335 0.929707,1.610132 1.210937,1.925782 0.49025,0.55025 0.535846,0.542543 1.103516,-0.160156 0.32565,-0.40309 0.911401,-1.390953 1.300781,-2.195313 z m 3.109375,2.574219 1.929688,0.107422 c 3.98191,0.21832 4.48109,0.379646 8.33789,2.691406 4.88021,2.92519 9.081462,4.104475 10.988282,3.083985 0.586299,-0.31378 0.920403,-0.08209 3.033203,2.107422 2.31776,2.401919 4.162874,4.982038 5.958984,8.330078 l 0.890625,1.65625 -0.652344,1.523437 c -0.35837,0.83722 -0.75194,2.202403 -0.875,3.033203 l -0.224609,1.509766 h -16.5 c -15.21417,0 -17.305161,-0.100617 -16.207031,-0.779297 0.45786,-0.28297 1.890882,-2.98347 2.289062,-4.3125 l 0.361328,-1.201172 1.0625,0.443359 c 1.01745,0.425131 5.243153,0.629895 5.601563,0.271485 0.09477,-0.09476 -0.460392,-1.133341 -1.232422,-2.306641 -2.99568,-4.55268 -4.478874,-8.784517 -4.652344,-13.279297 z m 26.496094,1.759766 1.083984,1.998047 c 0.59585,1.09936 1.420282,2.786067 1.832032,3.748046 0.411749,0.961981 1.092388,2.506238 1.511718,3.429688 0.41932,0.92343 0.761719,1.829372 0.761719,2.013672 0,0.18432 0.179798,0.273819 0.398437,0.199219 0.21867,-0.07456 0.352276,-0.447105 0.296876,-0.828125 -0.05536,-0.38101 0.05787,-1.457729 0.251953,-2.392578 0.52712,-2.539151 2.550781,-4.10104 2.550781,-1.96875 0,0.40259 -0.301272,2.210078 -0.669922,4.017578 -0.40197,1.97093 -0.61515,3.960866 -0.53125,4.972656 0.07691,0.92789 0.05692,1.675909 -0.04492,1.662109 -1.30372,-0.17676 -2.03189,-0.870226 -3.25,-3.097656 -1.94483,-3.55631 -2.853454,-4.802936 -5.652344,-7.759766 -2.15097,-2.27236 -2.4853,-2.777118 -2.34375,-3.517578 0.13713,-0.71736 0.329888,-0.863281 1.142578,-0.863281 0.614691,0 1.293886,-0.300411 1.822266,-0.806641 z m -57.900391,0.46289 c 0.318524,0.01745 0.55419,0.176086 0.984375,0.494141 0.51624,0.38167 1.690905,0.760321 2.796875,0.900391 l 1.908203,0.242187 -0.115234,2.935547 c -0.12974,3.30258 -0.148689,3.283128 2.181641,2.460937 1.82436,-0.643669 1.830308,-0.642574 2.392578,0.703126 0.27137,0.64949 0.69109,1.401161 0.93164,1.669921 0.32084,0.35849 0.390099,1.060016 0.261719,2.634766 -0.09626,1.18061 -0.274664,2.146484 -0.396484,2.146484 -0.38461,0 -2.59401,-2.347505 -3.06836,-3.259765 -0.52794,-1.0153 -0.5193,-1.012645 -1.65039,-0.427735 -1.10505,0.57144 -3.616929,0.951815 -4.480469,0.677735 -0.81803,-0.25963 -0.885962,-1.704284 -0.201172,-4.277344 0.52393,-1.96864 0.440697,-2.251953 -0.658203,-2.251953 -0.85066,0 -3.943359,-2.633122 -3.943359,-3.357422 0,-0.22436 0.709882,-0.643901 1.576171,-0.931641 0.76109,-0.252795 1.161946,-0.376822 1.480469,-0.359375 z m 28.267578,9.744141 c 0.1749,0.0034 0.942628,0.288786 1.705079,0.634766 0.76245,0.34597 1.854204,0.628906 2.427734,0.628906 0.93875,0 1.182244,0.214084 2.427734,2.146484 0.76095,1.18061 1.431888,2.253586 1.492188,2.384766 0.27842,0.60627 -3.264914,0.200991 -4.746094,-0.542969 -0.85621,-0.43004 -1.572597,-0.751344 -1.591797,-0.714844 -0.01918,0.03651 -0.07435,0.54521 -0.123047,1.13086 -0.04867,0.58564 -0.634791,2.123368 -1.300781,3.417969 -0.66598,1.29458 -1.291325,2.353515 -1.390625,2.353515 -0.69431,0 -3.471561,-2.349356 -3.994141,-3.378906 -1.0649,-2.09802 -0.981831,-2.073215 -3.019531,-0.859375 -1.37409,0.81855 -2.377866,1.162349 -3.753906,1.287109 -1.12334,0.10187 -1.960098,0.03985 -2.080078,-0.154297 -0.11035,-0.17854 0.256633,-1.029315 0.814453,-1.890625 0.73397,-1.13325 1.393386,-1.722772 2.384765,-2.132812 0.759311,-0.31405 1.945057,-1.21886 2.660157,-2.03125 l 1.289062,-1.466797 0.845703,1.099609 c 1.14475,1.49094 2.968766,3.167969 3.447266,3.167969 0.21515,0 0.795032,-1.144179 1.289062,-2.542969 0.49402,-1.39879 1.041887,-2.540109 1.216797,-2.537109 z m 35.386719,6.990234 c 1.52195,0.0083 5.796875,3.414381 5.796875,4.619141 0,0.38456 -0.699737,0.466797 -3.998047,0.466797 -3.65394,0 -3.983103,-0.04783 -3.839844,-0.556641 0.08618,-0.30608 0.257327,-1.057752 0.378907,-1.669922 0.32479,-1.63536 1.037569,-2.862375 1.662109,-2.859375 z m 10.923828,2.6875 c 0.135093,-0.0029 0.235441,0.02336 0.291016,0.08594 0.12007,0.13519 0.37282,0.710847 0.5625,1.279297 l 0.345703,1.033203 h -2.369141 c -1.3027,0 -2.367187,-0.121741 -2.367187,-0.269531 0,-0.645724 2.591461,-2.108365 3.537109,-2.128907 z"
     style="fill:#000000;stroke-width:0.31801078"
     id="pathLL3" />
</svg>
