<?xml version="1.0" encoding="UTF-8" standalone="no"?>
<svg
   xmlns:dc="http://purl.org/dc/elements/1.1/"
   xmlns:cc="http://creativecommons.org/ns#"
   xmlns:rdf="http://www.w3.org/1999/02/22-rdf-syntax-ns#"
   xmlns:svg="http://www.w3.org/2000/svg"
   xmlns="http://www.w3.org/2000/svg"
   id="svgLL4"
   version="1.1"
   viewBox="0 0 100 100"
   height="100"
   width="100">
  <defs
     id="defs2" />
  <metadata
     id="metadata5">
    <rdf:RDF>
      <cc:Work
         rdf:about="">
        <dc:format>image/svg+xml</dc:format>
        <dc:type
           rdf:resource="http://purl.org/dc/dcmitype/StillImage" />
        <dc:title></dc:title>
      </cc:Work>
    </rdf:RDF>
  </metadata>
  <path
     id="pathLL4"
     d="m 5.0714025,79.731191 c -0.0659,-0.17306 -0.0907,-13.87787 -0.0552,-30.45514 l 0.0646,-30.1405 h 44.9595705 44.95957 v 30.39167 30.39166 l -44.9044,0.0635 c -35.79145,0.0506 -44.9287105,-2.9e-4 -45.0242005,-0.25117 z m 17.0415205,-1.13095 c -0.0779,-0.51804 -0.35109,-1.11144 -0.60719,-1.31865 -0.59844,-0.48422 -0.85855,-1.79603 -0.49195,-2.48102 0.20354,-0.38033 0.52619,-0.53303 1.12623,-0.53303 0.62974,0 0.87397,-0.12618 0.97234,-0.50234 0.27626,-1.05644 2.42808,-0.18559 2.44436,0.98925 0.003,0.2157 0.37033,0.56173 0.81631,0.76894 0.74106,0.34432 0.80876,0.47195 0.78637,1.48239 -0.0166,0.74877 -0.16863,1.21103 -0.47105,1.43217 -0.25485,0.18635 -0.3825,0.49345 -0.29735,0.71535 0.13367,0.34834 3.69375,0.38883 34.19073,0.38883 h 34.04152 v -30.01491 -30.01491 h -13.28012 c -12.98129,0 -13.30719,0.012 -14.4829,0.53205 -0.68719,0.30397 -1.85965,0.56137 -2.73513,0.60046 -1.58722,0.0709 -4.83016,-0.43164 -5.6634,-0.87757 -0.28193,-0.15089 -2.79166,-0.25494 -6.149,-0.25494 h -5.67264 l 0.15226,0.60664 c 0.0837,0.33365 -0.0172,0.98355 -0.22431,1.44423 -0.20711,0.46068 -0.45034,1.2732 -0.54051,1.8056 -0.15788,0.9322 -0.19353,0.96206 -0.96397,0.80709 -0.44001,-0.0885 -1.1391,-0.22749 -1.55353,-0.30884 -1.01837,-0.19992 -1.38144,-0.53176 -1.38144,-1.2626 0,-0.33766 -0.28257,-0.98439 -0.62793,-1.43718 -0.34536,-0.45279 -0.62793,-1.01039 -0.62793,-1.2391 0,-0.3829 -1.34301,-0.41584 -16.95402,-0.41584 -9.32472,0 -16.9540305,0.0937 -16.9540305,0.20821 0,0.34397 2.73928,2.80733 3.4674605,3.11819 0.37227,0.15893 1.20718,0.6671 1.85535,1.12927 1.14799,0.81856 1.18557,0.82711 1.45149,0.33024 0.33174,-0.61987 1.39432,-0.92829 1.86173,-0.54037 0.26702,0.2216 0.48677,0.0916 1.01421,-0.59988 0.77667,-1.01827 0.95429,-1.05642 1.87298,-0.40226 0.67295,0.47918 0.67647,0.47883 1.25819,-0.12558 0.67703,-0.70343 1.07913,-0.75203 1.88007,-0.22724 0.5292,0.34675 0.61696,0.3361 1.03477,-0.12558 0.54725,-0.6047 1.44952,-0.65359 1.995,-0.10811 0.27548,0.27548 0.62391,0.34637 1.14257,0.23245 0.94595,-0.20777 1.76218,0.0448 1.76218,0.54526 0,0.26978 0.13291,0.33199 0.43955,0.20575 1.01205,-0.41664 1.36073,-0.4149 1.82925,0.009 0.27175,0.24593 0.49408,0.59916 0.49408,0.78497 0,0.41528 0.1238,0.42163 0.73831,0.0379 0.71956,-0.44937 1.68495,0.079 1.89545,1.03739 0.18762,0.85423 0.41553,0.95567 0.88263,0.39284 0.3941,-0.47486 1.26415,-0.48414 1.89857,-0.0202 0.5016,0.36678 0.52841,0.4386 0.58174,1.55866 0.0287,0.60219 0.10024,0.64556 0.82583,0.50044 1.09214,-0.21843 1.71728,0.37932 1.71728,1.64205 0,0.85861 0.0686,0.96575 0.61814,0.96575 0.7695,0 1.53817,0.79754 1.73966,1.80499 0.12565,0.62825 0.24845,0.74059 0.68479,0.62648 1.06987,-0.27978 2.21178,0.769 2.22401,2.0426 0.006,0.63947 0.10974,0.82175 0.44753,0.78738 0.24176,-0.0246 0.57793,-0.0317 0.74707,-0.0158 0.44802,0.0421 1.07392,1.38487 1.07392,2.30387 0,0.60681 0.0897,0.75842 0.38245,0.64609 0.57584,-0.22097 1.34829,0.71192 1.5299,1.84768 0.13397,0.83782 0.25884,1.00822 0.73882,1.00822 0.84035,0 1.63455,1.114 1.45044,2.03452 -0.22353,1.11764 0.40105,0.72348 1.50156,-0.94763 1.24028,-1.88334 1.22612,-2.64499 -0.0627,-3.36932 -0.94858,-0.53313 -1.15933,-0.85769 -1.73745,-2.67569 -0.51587,-1.62224 0.28853,-2.85298 2.24134,-3.42927 1.42919,-0.42177 2.34341,-0.0754 3.56375,1.35033 0.94669,1.10599 1.94571,3.82265 1.94571,5.291 0,1.03213 -0.80674,4.0716 -1.36471,5.14167 -0.21471,0.41179 -0.39109,0.83891 -0.39194,0.94915 -7.9e-4,0.11024 -0.40558,0.83205 -0.8994,1.60402 -0.81655,1.27646 -0.84847,1.39065 -0.35253,1.26096 0.29993,-0.0784 0.70814,-0.0801 0.90714,-0.004 0.45641,0.17514 1.09675,1.3932 1.09675,2.08624 0,0.46072 0.10458,0.50658 0.84046,0.36853 1.1218,-0.21045 1.67125,0.34489 1.67125,1.68916 0,0.90963 0.0554,1.00154 0.5293,0.87763 0.86962,-0.22742 1.66533,0.23865 2.00334,1.17339 0.26321,0.72788 0.40097,0.84098 0.83776,0.68774 0.86735,-0.3043 1.35256,-0.0414 1.82831,0.99046 0.4106,0.89061 0.52334,0.96913 1.21404,0.84555 0.91085,-0.16298 1.47108,0.3501 1.80955,1.65727 0.21964,0.84821 0.26449,0.87613 1.27658,0.79477 0.95114,-0.0765 1.08999,-0.0112 1.48917,0.69923 0.33917,0.60367 0.55554,0.74624 0.94256,0.62105 0.81293,-0.26296 1.68141,-0.18 1.92375,0.18375 0.12404,0.18617 0.33532,0.50803 0.46953,0.71525 0.21253,0.32814 0.27804,0.32003 0.50767,-0.0628 0.35559,-0.59282 1.55838,-0.56051 2.11711,0.0569 0.44628,0.49313 0.45398,0.49244 1.16258,-0.10381 0.74874,-0.63002 1.37056,-0.62315 2.37922,0.0263 0.57602,0.37088 0.85905,0.22792 0.85905,-0.43391 0,-0.45968 0.48193,-0.73852 1.2764,-0.73852 0.37018,0 0.48179,-0.17839 0.48179,-0.77003 0,-1.27282 0.41668,-1.80041 1.27332,-1.61226 0.57151,0.12553 0.73605,0.073 0.73605,-0.23505 0,-0.5751 0.92824,-1.41497 1.37456,-1.2437 0.3212,0.12326 0.35538,-0.0426 0.21696,-1.05243 -0.15108,-1.1023 -0.1084,-1.24333 0.53055,-1.75281 0.52247,-0.4166 0.65284,-0.68642 0.5255,-1.08762 -0.18018,-0.56772 -1.13456,-0.93834 -1.77925,-0.69094 -0.54362,0.2086 -1.11949,1.70604 -1.11949,2.91101 0,0.5629 -0.1215,1.01275 -0.27352,1.01275 -0.39445,0 -2.23819,-1.80133 -2.23819,-2.1867 0,-0.5235 -0.8783,-0.37415 -1.57009,0.26698 -0.35132,0.3256 -0.93905,1.06766 -1.30605,1.64904 -0.36701,0.58137 -0.80249,1.01405 -0.96773,0.96151 -0.16525,-0.0525 -0.58135,-0.90765 -0.92467,-1.90021 -0.36541,-1.05642 -0.76684,-1.80467 -0.96821,-1.80467 -0.51353,0 -2.8464,1.2167 -3.4971,1.8239 -0.83455,0.77876 -1.12562,0.30371 -1.02401,-1.67126 0.047,-0.91339 0.0854,-1.65878 0.0854,-1.65641 0,0.002 -0.3956,0.15158 -0.8791,0.33158 -0.48351,0.18 -1.18271,0.47572 -1.5538,0.65716 -1.36995,0.66984 -1.82101,-0.31063 -1.18937,-2.58536 0.14744,-0.531 0.22833,-1.0052 0.17974,-1.05378 -0.0486,-0.0486 -0.87627,-0.2084 -1.8393,-0.35513 -2.52484,-0.38471 -2.88121,-0.48772 -2.88133,-0.83286 -6e-5,-0.17005 0.76287,-1.00564 1.6954,-1.85687 1.90339,-1.73744 1.89615,-1.61081 0.21263,-3.71678 -0.4912,-0.61446 -0.64651,-0.99525 -0.47561,-1.16614 0.13957,-0.13957 1.42851,-0.3657 2.86432,-0.50251 2.95389,-0.28147 3.33401,-0.36983 3.11507,-0.72408 -0.25101,-0.40615 -0.17042,-4.83355 0.0928,-5.09675 0.1535,-0.1535 0.4984,0.0208 0.95198,0.48109 1.02446,1.03962 3.70783,3.10513 4.03398,3.10513 0.15257,0 0.31508,0.0848 0.36113,0.18838 0.0461,0.1036 1.21153,0.74298 2.58997,1.42083 1.37844,0.67785 2.65806,1.38427 2.84361,1.56982 0.18555,0.18555 0.45138,0.33736 0.59074,0.33736 0.41572,0 4.54715,2.93727 5.37965,3.8247 0.42409,0.45208 1.10161,1.27407 1.5056,1.82664 0.40398,0.55258 0.80469,1.0612 0.89047,1.13027 0.0858,0.0691 0.23749,0.38673 0.33714,0.7059 0.15363,0.49208 0.29501,0.55531 0.92981,0.41589 0.53538,-0.11759 0.88694,-0.0393 1.23411,0.27492 0.57572,0.52101 0.63783,1.68056 0.11334,2.11585 -0.32874,0.27283 -0.32874,0.37081 0,0.84015 0.52168,0.74481 0.46304,1.76644 -0.13233,2.30524 -0.46168,0.41781 -0.47233,0.50557 -0.12558,1.03477 0.54549,0.83253 0.47498,1.21469 -0.38234,2.072 -0.58396,0.58396 -0.7252,0.90468 -0.60657,1.37737 0.20025,0.79786 -0.22303,1.57115 -0.96148,1.75649 -0.46988,0.11793 -0.58431,0.31575 -0.58431,1.0101 0,1.13934 -0.51208,1.73424 -1.38278,1.60645 -0.58322,-0.0856 -0.70391,0.005 -0.82639,0.61689 -0.14956,0.7478 -1.42398,1.5243 -2.08526,1.27055 -0.17991,-0.069 -0.32712,0.0348 -0.32712,0.23074 0,0.62712 -0.99081,1.45567 -1.74075,1.45567 -0.55382,0 -0.7521,0.14185 -0.8733,0.62475 -0.19443,0.77465 -1.23494,1.48759 -1.91249,1.31041 -0.37662,-0.0985 -0.60414,0.0554 -0.88511,0.59875 -0.40628,0.78566 -1.26742,0.98109 -1.83897,0.41735 -0.25517,-0.25168 -0.38741,-0.21432 -0.66662,0.18837 -0.62519,0.90168 -1.20432,1.38144 -1.66758,1.38144 -0.32871,0 -0.53289,0.31021 -0.73656,1.11907 -0.38057,1.51137 -1.23692,2.10297 -2.30908,1.5952 -0.70477,-0.33377 -0.7952,-0.31728 -1.36058,0.24809 -0.60038,0.60039 -1.53657,0.67644 -2.59193,0.21059 -0.26127,-0.11533 -0.52444,0.0715 -0.83051,0.58965 -0.51144,0.8658 -1.54133,1.02254 -2.51722,0.38311 -0.53802,-0.35252 -0.60672,-0.3296 -1.12895,0.37676 -0.67304,0.91032 -1.19476,0.94271 -2.36737,0.14696 l -0.89175,-0.60516 -0.56852,0.60516 c -0.74119,0.78896 -1.05675,0.76329 -1.82385,-0.14835 -0.74764,-0.88852 -0.94042,-0.91985 -1.54557,-0.25117 -0.57975,0.64061 -1.67668,0.64515 -2.2521,0.009 -0.40861,-0.45151 -0.50601,-0.46208 -1.15673,-0.12558 -1.00692,0.5207 -1.3306,0.46578 -2.23521,-0.37925 -0.76104,-0.71092 -0.82839,-0.72764 -1.40617,-0.34907 -0.79076,0.51813 -1.7977,0.26538 -2.16638,-0.54379 -0.30088,-0.66034 -0.69017,-0.78618 -1.11572,-0.36063 -0.58038,0.58038 -1.59368,0.5206 -2.24682,-0.13254 -0.58935,-0.58935 -0.67855,-0.60877 -1.18065,-0.25708 -1.13715,0.79648 -2.94308,0.0761 -2.94308,-1.17396 0,-0.50281 -0.50346,-0.60456 -0.92173,-0.18629 -0.46727,0.46727 -2.04025,-0.009 -2.72735,-0.82528 -0.51676,-0.61413 -0.69936,-0.69559 -1.00001,-0.44608 -0.55318,0.45911 -1.54623,0.092 -2.04773,-0.75696 -0.36895,-0.62457 -0.60542,-0.75208 -1.3948,-0.75208 -1.01311,0 -1.95521,-0.67857 -1.95521,-1.40831 0,-0.28734 -0.12663,-0.3504 -0.43955,-0.21887 -1.11981,0.4707 -1.55037,0.41819 -2.18488,-0.26645 -0.35243,-0.38029 -0.64079,-0.8423 -0.64079,-1.0267 0,-0.25009 -0.27197,-0.298 -1.07041,-0.18856 -1.32076,0.18103 -2.15187,-0.38966 -2.41073,-1.65535 -0.14617,-0.71473 -0.3221,-0.89592 -1.04736,-1.07874 -0.9936,-0.25047 -1.73699,-1.0515 -1.74518,-1.88052 -0.005,-0.47882 -0.14169,-0.56513 -0.89668,-0.56513 -0.98569,0 -2.03363,-0.88452 -2.171,-1.83245 -0.0552,-0.3806 -0.32123,-0.58463 -0.92163,-0.70671 -1.06647,-0.21686 -1.54746,-0.69688 -1.76932,-1.76576 -0.14412,-0.69434 -0.27599,-0.82967 -0.74336,-0.76281 -0.31248,0.0447 -0.85734,-0.10821 -1.21079,-0.3398 -0.5722,-0.37493 -0.62649,-0.53888 -0.49532,-1.49588 0.13916,-1.0153 0.10957,-1.08254 -0.53454,-1.21442 -1.27936,-0.26196 -1.6908,-0.77143 -1.64292,-2.03439 0.0328,-0.86423 -0.0482,-1.15047 -0.32538,-1.15047 -0.2029505,0 -0.6582505,-0.28926 -1.0117905,-0.6428 -0.5668,-0.56679 -0.62287,-0.77573 -0.47419,-1.76717 0.14751,-0.9837 0.0958,-1.18331 -0.41326,-1.59542 -0.48142,-0.38972 -0.58884,-0.73305 -0.62224,-1.9887 -0.0245,-0.92164 -0.19714,-1.74149 -0.43955,-2.08758 -0.55053,-0.78599 -0.49949,-1.76277 0.12727,-2.43551 0.45829,-0.49192 0.48784,-0.65828 0.22823,-1.28503 -0.32299,-0.77976 -0.21201,-2.33458 0.20226,-2.83375 0.17873,-0.21535 0.15131,-0.50191 -0.0897,-0.93736 -0.63373,-1.14508 -0.35706,-2.71385 0.6035,-3.42201 0.33448,-0.24659 0.29524,-0.38863 -0.3042,-1.10102 -0.81274,-0.96588 -1.60357,-2.46072 -2.05099,-3.8768 -0.26618,-0.84247 -0.32604,3.65564 -0.34658,26.04531 l -0.0248,27.06365 h 8.3984305 8.39842 z m 41.36515,-43.94218 c -0.20722,-0.0748 -0.5681,-0.3767 -0.80196,-0.67089 -0.23386,-0.29419 -0.51643,-0.54044 -0.62793,-0.54723 -0.64236,-0.0391 -1.29491,-0.45185 -1.59196,-1.0069 -0.29524,-0.55166 -0.28061,-0.73367 0.11242,-1.39903 0.29474,-0.49895 0.40084,-1.01972 0.30519,-1.49798 -0.32118,-1.6059 1.17333,-2.88477 2.38192,-2.03824 0.31951,0.22379 0.93466,0.37641 1.36702,0.33916 0.95662,-0.0824 1.61817,0.75617 1.61817,2.05118 0,0.53002 0.18874,1.01981 0.50235,1.30362 0.70191,0.63522 0.67164,1.98789 -0.0559,2.49747 -0.30703,0.21504 -0.7107,0.39099 -0.89704,0.39099 -0.18635,0 -0.50835,0.16954 -0.71557,0.37676 -0.38166,0.38166 -0.91163,0.44841 -1.59672,0.20109 z m 1.25585,-1.15554 c 0,-0.40878 -0.5055,-0.92933 -0.90246,-0.92933 -0.35252,0 -0.66847,0.69809 -0.46497,1.02735 0.2179,0.35258 1.36743,0.27018 1.36743,-0.098 z m 1.65983,-0.78412 c 0.17979,-0.46851 -0.32787,-1.40106 -0.7627,-1.40106 -0.48077,0 -0.69231,0.69993 -0.38505,1.27404 0.30361,0.56731 0.9513,0.63898 1.14775,0.12702 z m -3.6692,-0.41289 c 0,-0.49515 -0.51705,-1.23935 -0.86106,-1.23935 -0.47617,0 -0.71293,0.74694 -0.36837,1.16211 0.33773,0.40693 1.22943,0.46295 1.22943,0.0772 z m 1.67798,-0.87275 c 0.0478,-0.14373 -0.0558,-0.45244 -0.23036,-0.68603 -0.44061,-0.58966 -1.05676,-0.17632 -0.82511,0.55353 0.17436,0.54936 0.88692,0.63882 1.05547,0.1325 z m -1.34199,-1.91722 c 0.13547,-0.21475 0.17535,-0.57536 0.0886,-0.80136 -0.17005,-0.44314 -1.15779,-0.57357 -1.20953,-0.15972 -0.0172,0.13814 -0.0525,0.39245 -0.0782,0.56513 -0.0635,0.42618 0.37618,0.97862 0.69449,0.87251 0.14207,-0.0473 0.36915,-0.26181 0.50461,-0.47656 z m 2.21341,-0.0911 c -0.12244,-0.68708 -0.59862,-0.9188 -1.0208,-0.49676 -0.29556,0.29547 -0.29943,0.42223 -0.0231,0.7552 0.4507,0.54307 1.15562,0.36855 1.04389,-0.25844 z m 17.48147,3.12862 c -0.51114,-0.29771 -1.24327,-1.60414 -1.02262,-1.82479 0.0827,-0.0827 -0.15331,-0.26587 -0.52451,-0.407 -0.91552,-0.34808 -1.51217,-1.75723 -1.11402,-2.63107 0.15866,-0.34822 0.46911,-0.69333 0.6899,-0.76692 0.22079,-0.0736 0.57098,-0.49961 0.77819,-0.94672 0.4583,-0.98886 1.29987,-1.18619 1.92836,-0.45216 0.27727,0.32383 0.74635,0.51834 1.24999,0.51834 1.16126,0 1.86442,1.05528 1.78271,2.67541 -0.0338,0.66975 0.0247,1.45363 0.12999,1.74195 0.14097,0.38605 0.0246,0.7042 -0.44156,1.20719 -0.34814,0.37565 -0.75047,0.61038 -0.89408,0.52162 -0.14361,-0.0888 -0.53473,0.0179 -0.86915,0.23703 -0.69958,0.45839 -1.07594,0.48664 -1.6932,0.12712 z m 0.83889,-1.76431 c -0.82624,-0.67722 -1.25918,-0.23954 -0.66304,0.67028 0.41036,0.62629 0.46586,0.64241 0.85364,0.24787 0.38605,-0.39278 0.37286,-0.45631 -0.1906,-0.91815 z m 2.11237,-0.22838 c 0,-0.45638 -0.15212,-0.64609 -0.56513,-0.70475 -0.60368,-0.0857 -0.64506,0.007 -0.40365,0.90873 0.2094,0.78179 0.96878,0.6219 0.96878,-0.20398 z m -3.53543,-1.9394 c -0.28153,-0.8005 -0.97371,-1.03835 -1.21231,-0.41656 -0.21141,0.55091 0.83091,1.73004 1.20161,1.35934 0.16632,-0.16632 0.16999,-0.48984 0.0107,-0.94278 z m 1.81847,0.79569 c 0.21195,-0.55233 -0.36329,-1.10596 -0.65638,-0.63172 -0.24568,0.39752 -0.0784,1.02536 0.27314,1.02536 0.1277,0 0.30016,-0.17714 0.38324,-0.39364 z m 1.75246,-0.98974 c 0.16079,-0.41902 -0.52895,-1.63067 -0.92827,-1.63067 -0.42339,0 -0.57129,0.74915 -0.2759,1.39746 0.31148,0.68362 0.98153,0.8134 1.20417,0.23321 z m -2.4685,-1.44023 c -0.0968,-1.00186 -0.95781,-1.34764 -0.95781,-0.38467 0,0.59655 0.41182,1.19892 0.81966,1.19892 0.11927,0 0.18144,-0.36642 0.13815,-0.81425 z m -57.47123,52.38682 c 0,-0.31541 -0.83001,-1.08725 -1.1692,-1.08725 -0.34674,0 -0.47019,0.7886 -0.17038,1.08841 0.21856,0.21856 1.33958,0.21759 1.33958,-0.001 z m -2.26054,-0.82125 c 0,-0.57377 -0.396,-0.89243 -0.63283,-0.50924 -0.21099,0.34139 0.0348,0.99675 0.37378,0.99675 0.14248,0 0.25905,-0.21938 0.25905,-0.48751 z m 2.76017,-0.89066 c 0.44918,-0.54123 0.11165,-1.63588 -0.50442,-1.63588 -0.39645,0 -0.49755,0.17013 -0.49755,0.83724 0,1.19017 0.40748,1.51496 1.00197,0.79864 z m -1.75549,-0.63119 c 0,-0.52 -0.60595,-0.69313 -0.87909,-0.25117 -0.21024,0.34017 0.0734,0.75351 0.51716,0.75351 0.19906,0 0.36193,-0.22605 0.36193,-0.50234 z m -1.50702,-0.73557 c 0,-0.57602 -0.69339,-1.33565 -1.09663,-1.20141 -0.41436,0.13795 -0.50022,0.89818 -0.14921,1.32112 0.44667,0.5382 1.24584,0.46141 1.24584,-0.11971 z m 40.80101,-0.325 c 0.59295,-0.84656 0.49777,-0.9488 -0.88327,-0.9488 -1.07133,0 -1.26098,0.069 -1.19084,0.43324 0.0735,0.38155 1.03005,1.0599 1.50898,1.07008 0.0958,0.002 0.35008,-0.2475 0.56513,-0.55452 z m -3.6227,-0.0758 c 0.39387,-0.47459 0.34484,-0.51615 -0.82134,-0.6961 -1.02762,-0.15858 -1.06621,-0.12502 -0.68188,0.5931 0.31138,0.58182 1.06309,0.63333 1.50322,0.103 z m -3.52143,0.0266 c 0,-0.0578 0.0611,-0.26423 0.13575,-0.45878 0.0929,-0.2421 -0.18495,-0.45959 -0.88035,-0.68909 -0.55885,-0.18444 -1.08735,-0.26408 -1.17445,-0.17698 -0.32591,0.32592 0.67539,1.42989 1.29692,1.42989 0.34217,0 0.62213,-0.0473 0.62213,-0.10504 z m -32.02427,-0.89964 c 0,-0.39219 -0.16226,-0.65229 -0.44031,-0.70584 -0.49719,-0.0958 -0.82052,0.50566 -0.59201,1.10116 0.23955,0.62426 1.03232,0.32068 1.03232,-0.39532 z m 29.21702,-0.34397 c 0.0665,-0.33546 -0.14928,-0.40954 -1.19306,-0.40954 -1.43557,0 -1.57569,0.22879 -0.60686,0.99087 0.58886,0.46319 0.72929,0.48398 1.19306,0.1766 0.28911,-0.19162 0.5622,-0.53268 0.60686,-0.75793 z m 13.51025,0.46172 c 0.22911,-0.34967 0.35431,-0.69803 0.27822,-0.77412 -0.0761,-0.0761 -0.67556,0.0134 -1.33213,0.19882 -1.13422,0.32035 -1.17198,0.35897 -0.75683,0.77412 0.61918,0.61918 1.32558,0.54162 1.81074,-0.19882 z m -17.30427,-0.77967 c 0.0547,-0.16695 -0.30166,-0.33438 -0.85973,-0.4039 -1.13621,-0.14153 -1.25515,-0.0772 -0.82213,0.44452 0.36289,0.43726 1.53446,0.40896 1.68186,-0.0406 z m 20.658,-0.0751 c 0.14301,-0.2672 0.26001,-0.60628 0.26001,-0.75351 0,-0.33885 -0.92272,-0.35233 -1.13027,-0.0165 -0.0854,0.13814 -0.43113,0.25117 -0.76834,0.25117 -0.72456,0 -0.77679,0.19711 -0.17355,0.65504 0.64192,0.48728 1.51353,0.42178 1.81215,-0.13619 z m -5.39133,-0.31773 c 0.55257,-0.15434 1.65102,-0.48879 2.44099,-0.74321 0.78997,-0.25443 1.62022,-0.4626 1.845,-0.4626 0.22479,0 0.70872,-0.21039 1.07541,-0.46754 0.36668,-0.25715 1.07247,-0.54145 1.56842,-0.63177 0.49594,-0.0903 1.16555,-0.44507 1.48801,-0.78831 0.32246,-0.34325 0.7771,-0.62408 1.01031,-0.62408 0.23321,0 1.25901,-0.6194 2.27955,-1.37644 1.02054,-0.75704 1.99681,-1.37869 2.16949,-1.38144 0.17268,-0.003 0.31397,-0.10251 0.31397,-0.22169 0,-0.11918 0.74862,-0.58524 1.66361,-1.03569 0.91498,-0.45044 1.90304,-1.05935 2.19568,-1.35312 0.29265,-0.29378 0.87494,-0.7678 1.29398,-1.05339 1.76381,-1.20207 3.64147,-3.04749 4.17419,-4.10252 0.18129,-0.35905 0.63394,-1.01335 1.00589,-1.454 0.71685,-0.84926 1.21721,-2.74627 1.17993,-4.4734 -0.0495,-2.29425 -1.33574,-4.99506 -3.44913,-7.24251 -1.2353,-1.31366 -4.50253,-3.64079 -6.93389,-4.93875 -4.62379,-2.46839 -5.22686,-2.80451 -5.98595,-3.33628 -0.43761,-0.30657 -1.30428,-1.0095 -1.92593,-1.56207 l -1.13026,-1.00469 -0.0743,1.55041 c -0.0461,0.96315 0.0671,1.88866 0.29886,2.44343 0.20522,0.49116 0.28362,0.94834 0.17421,1.01596 -0.1094,0.0676 -0.92204,0.18347 -1.80588,0.25747 -3.08455,0.25823 -3.99309,0.42752 -3.99309,0.74406 0,0.17206 0.4482,0.72753 0.996,1.23437 0.5478,0.50684 0.93548,1.06188 0.86152,1.23341 -0.074,0.17153 -0.80474,0.85776 -1.62393,1.52495 -0.81919,0.66719 -1.48944,1.3023 -1.48944,1.41137 0,0.2222 1.48022,0.50821 2.65208,0.51242 1.38388,0.005 1.61938,0.40679 1.25295,2.13772 -0.17547,0.82886 -0.27203,1.59095 -0.21459,1.69353 0.0575,0.10258 0.52742,-0.0293 1.04436,-0.29299 0.51695,-0.26373 1.37633,-0.56138 1.90974,-0.66145 l 0.96983,-0.18194 -0.15576,1.668 c -0.0857,0.9174 -0.11069,1.66799 -0.0556,1.66799 0.0551,0 0.9833,-0.44399 2.06271,-0.98665 2.25177,-1.13205 2.26491,-1.12741 2.97616,1.04945 0.52033,1.59254 0.92362,1.79959 1.46772,0.75351 0.47225,-0.90793 2.14933,-2.32333 2.75289,-2.32333 0.065,0 0.4163,0.50862 0.78061,1.13027 0.70982,1.21121 1.14355,1.44558 1.14355,0.61792 0,-0.28179 0.22557,-0.95451 0.50127,-1.49492 0.87965,-1.72427 2.92004,-1.83888 3.79023,-0.2129 0.37851,0.70725 0.16169,3.87915 -0.32723,4.78713 -0.20233,0.37574 -1.29009,1.57014 -2.41725,2.65422 -1.12715,1.08408 -2.05312,2.07645 -2.05772,2.20529 -0.0184,0.51455 -1.03997,1.42832 -1.81127,1.62006 -0.44972,0.11179 -1.49583,0.3986 -2.32469,0.63734 -0.82887,0.23875 -2.35473,0.44463 -3.39081,0.45751 -1.96446,0.0244 -1.90515,0.0438 -6.15368,-2.00644 -0.69072,-0.33332 -1.93402,-1.1786 -2.76288,-1.87839 -0.82886,-0.6998 -1.90262,-1.47797 -2.38612,-1.72926 -0.48351,-0.2513 -1.17058,-0.72284 -1.52682,-1.04787 -0.35625,-0.32503 -1.31698,-1.15551 -2.13496,-1.8455 -0.81797,-0.69 -2.71554,-2.4786 -4.21682,-3.97466 l -2.72961,-2.72011 -0.72399,0.69364 c -0.3982,0.38149 -0.724,0.78153 -0.724,0.88897 0,0.26259 0.83083,0.69204 1.55084,0.80161 0.80822,0.12299 0.86105,0.76884 0.0916,1.11944 -0.35074,0.15981 -0.63772,0.39283 -0.63772,0.51783 0,0.12499 -0.25431,0.29881 -0.56513,0.38626 -0.55342,0.15571 -0.55503,0.16674 -0.0776,0.53164 0.30181,0.23067 1.04339,0.37263 1.94657,0.37263 1.23078,0 1.45902,0.0698 1.45902,0.44652 0,0.24559 -0.22605,0.64007 -0.50234,0.87664 -0.27629,0.23656 -0.50234,0.52889 -0.50234,0.64961 0,0.24409 1.80553,0.53894 3.30028,0.53894 1.2055,0 1.27126,0.45504 0.19644,1.35944 -0.85295,0.71771 -0.89638,0.67953 1.38767,1.21987 1.71638,0.40605 2.3043,1.00861 1.5388,1.57712 -0.2662,0.1977 -0.42087,0.42259 -0.34371,0.49975 0.0772,0.0772 0.94488,0.20775 1.92824,0.2902 0.98337,0.0824 1.78794,0.26411 1.78794,0.40372 0,0.1396 -0.28257,0.62429 -0.62793,1.07708 -0.34536,0.45279 -0.62792,0.87589 -0.62792,0.94024 0,0.21695 1.89679,1.10774 2.76462,1.29835 0.47347,0.10399 1.03411,0.27557 1.24586,0.38128 0.21175,0.10572 0.69583,0.31498 1.07572,0.46502 0.72042,0.28455 0.9171,0.74448 0.37676,0.88105 -0.17268,0.0436 -1.15448,0.3475 -2.18178,0.67524 -1.02729,0.32774 -2.20092,0.56094 -2.60807,0.51824 -0.69723,-0.0731 -0.73021,-0.0362 -0.56728,0.63552 0.37763,1.55685 0.32857,1.7237 -0.48259,1.64142 -0.41443,-0.042 -1.51644,-0.45388 -2.44892,-0.9152 l -1.6954,-0.83877 -0.004,0.66403 c -0.008,1.38574 -0.35319,1.49382 -1.9812,0.62035 -0.81721,-0.43847 -1.55258,-0.73045 -1.63417,-0.64886 -0.0816,0.0816 -0.14834,0.46191 -0.14834,0.84517 0,0.38325 -0.11307,0.7667 -0.25126,0.85211 -0.21567,0.13329 -1.55092,-0.83796 -3.36676,-2.44897 -0.66495,-0.58994 -0.90306,-0.55351 -0.90306,0.13814 0,1.2321 -0.4667,1.19247 -2.64001,-0.22417 -1.14602,-0.74701 -2.14051,-1.3582 -2.20997,-1.3582 -0.0695,0 -0.20402,0.56513 -0.29902,1.25585 -0.095,0.69072 -0.26138,1.25586 -0.36974,1.25586 -0.10837,0 -0.99055,-0.73468 -1.9604,-1.63261 -1.80357,-1.66983 -2.38237,-1.96963 -2.30338,-1.19306 0.15689,1.54236 -0.26338,1.41164 -2.64142,-0.82156 -1.1002,-1.03319 -2.0771,-1.87853 -2.17088,-1.87853 -0.22269,0 -0.47542,0.67065 -0.47542,1.26157 0,1.08949 -0.54692,0.53672 -2.70367,-2.73263 -1.25537,-1.90296 -2.44995,-3.59891 -2.65464,-3.76878 -0.31185,-0.25882 -0.44408,-0.14583 -0.81606,0.69727 -0.49754,1.1277 -1.05223,1.48905 -1.27959,0.83357 -0.0831,-0.23943 -0.61833,-1.05697 -1.18952,-1.81676 -0.57119,-0.75979 -1.19761,-1.69485 -1.39205,-2.07791 -0.44265,-0.87208 -0.75327,-0.77967 -1.11221,0.33086 -0.15429,0.47737 -0.38604,0.85062 -0.51499,0.82944 -0.12896,-0.0212 -0.78851,-1.09494 -1.46567,-2.38612 -1.45408,-2.77257 -1.5885,-2.93964 -1.80824,-2.24731 -0.0921,0.29019 -0.36774,0.52763 -0.61253,0.52763 -0.95752,0 -3.14819,-3.11951 -3.64616,-5.19213 -0.0939,-0.39071 -0.56636,-1.64052 -1.04997,-2.77735 -1.14812,-2.69891 -1.46025,-4.65523 -1.10985,-6.95623 0.14884,-0.97743 0.47121,-2.05972 0.71637,-2.40508 0.24516,-0.34536 0.70759,-1.24957 1.02762,-2.00936 1.46784,-3.48485 3.58134,-5.11187 7.06034,-5.43521 1.50286,-0.13967 1.74747,-0.0998 2.13022,0.34722 0.37423,0.43707 0.66198,0.49064 2.13891,0.39816 1.03542,-0.0648 1.77051,-0.003 1.86928,0.15653 0.0895,0.14487 0.38544,0.26339 0.65758,0.26339 0.52523,0 4.4049,1.23427 5.56645,1.77089 0.86252,0.39848 0.86516,0.65684 0.0158,1.54338 -0.61252,0.63934 -0.62994,0.70722 -0.18838,0.73421 0.2676,0.0164 0.56568,0.0182 0.66241,0.004 0.25186,-0.0366 4.30212,1.71293 4.56447,1.97167 0.12431,0.12261 -0.0235,0.55719 -0.34137,1.00358 -0.30834,0.43303 -0.52004,0.82512 -0.47043,0.87133 0.0496,0.0462 0.82345,0.18097 1.71966,0.2995 1.28274,0.16964 1.64837,0.31395 1.71828,0.67817 0.0501,0.26084 -0.14032,0.62316 -0.43641,0.83055 -0.28887,0.20233 -0.52351,0.50275 -0.52142,0.66759 0.002,0.16485 1.0714,1.36227 2.37625,2.66095 l 2.37245,2.36122 1.07735,-0.41705 c 1.95116,-0.75531 2.00379,-0.55881 -1.16133,-4.33667 -1.60591,-1.91682 -3.9632,-4.64804 -5.23841,-6.06938 -1.27521,-1.42135 -2.72055,-3.03608 -3.21187,-3.5883 -1.69584,-1.90607 -6.85503,-5.364 -9.42786,-6.31901 -1.13778,-0.42233 -2.11465,-0.56245 -4.18841,-0.6008 -2.59771,-0.048 -2.82591,-0.008 -5.77693,1.02226 -4.70009,1.64035 -5.89236,2.38918 -7.58852,4.76614 -2.1976505,3.07972 -2.5926805,7.06704 -1.34573,13.58324 0.53409,2.79105 3.29358,7.52139 6.0582,10.38504 2.81587,2.91674 10.11818,9.18788 11.96911,10.27894 0.73062,0.43068 3.04537,1.93548 4.6055,2.99399 2.05553,1.39465 5.7711,2.96204 9.09965,3.83865 5.92659,1.56082 7.03999,1.7595 10.68831,1.90722 1.3416,0.0543 2.76334,0.23002 3.15943,0.39043 1.69157,0.68509 7.55362,0.78752 9.76232,0.1706 z m -18.87379,-0.14566 c 0.31813,-0.17482 -0.37959,-0.54952 -1.0315,-0.55396 -0.61832,-0.004 -0.72101,0.24215 -0.28335,0.67981 0.2532,0.2532 0.7035,0.2101 1.31485,-0.12585 z m 27.33102,0.0312 c 0.27018,-0.2445 0.45933,-0.76083 0.45933,-1.25382 v -0.83813 l -1.06748,0.41249 c -1.57684,0.60933 -1.67655,0.79068 -0.8163,1.48472 0.89738,0.72401 0.8472,0.71715 1.42445,0.19474 z m -30.92051,-0.34666 c 0.26721,-0.143 0.48583,-0.34635 0.48583,-0.45189 0,-0.20307 -1.46269,-0.79513 -1.9644,-0.79513 -0.42314,0 -0.36572,0.64805 0.0986,1.11233 0.46284,0.46284 0.71997,0.48793 1.38001,0.13469 z m -3.40731,-1.74936 c 0.0854,-0.13814 -0.0831,-0.25117 -0.37441,-0.25117 -0.2913,0 -0.86311,-0.17244 -1.27068,-0.38321 -0.80171,-0.41458 -0.88139,-0.34837 -0.48103,0.39972 0.28131,0.52563 1.83997,0.69766 2.12612,0.23466 z m 36.95798,-1.13027 c 0.48147,-0.48147 0.11632,-0.4759 -0.52343,0.008 -0.27365,0.20698 -0.34843,0.36877 -0.17044,0.36877 0.17441,0 0.48666,-0.16954 0.69387,-0.37675 z m -40.75113,-0.0842 c 0.1473,-0.23834 -1.59672,-1.1401 -1.80403,-0.9328 -0.0741,0.0742 0.0704,0.36156 0.3212,0.6387 0.46609,0.51503 1.25018,0.67054 1.48283,0.2941 z m 18.73781,-0.92837 c 0,-0.95479 0.57413,-0.99591 2.11305,-0.15133 1.4602,0.80136 1.81757,0.71749 1.5464,-0.36292 -0.24752,-0.98622 0.3958,-0.9862 2.39777,5e-5 2.29726,1.13174 2.62873,1.1565 2.11228,0.1578 -0.63438,-1.22675 -0.51841,-1.56763 0.47022,-1.38216 0.92282,0.17312 3.57052,-0.27933 3.79912,-0.64922 0.0771,-0.1248 -0.17521,-0.29507 -0.56075,-0.37838 -0.38555,-0.0833 -1.28727,-0.4257 -2.00383,-0.76088 -0.71656,-0.33517 -1.41631,-0.6094 -1.55499,-0.6094 -0.52932,0 -0.54871,-0.54318 -0.0483,-1.35287 0.55299,-0.89476 0.63593,-1.17714 0.33162,-1.12909 -0.10361,0.0163 -0.95486,0.0163 -1.89167,0 -1.96822,-0.0344 -2.46376,-0.49769 -1.41276,-1.32088 0.57221,-0.44818 0.58043,-0.49174 0.15463,-0.81929 -0.24734,-0.19027 -1.06155,-0.42238 -1.80934,-0.51582 -1.52568,-0.19062 -2.01376,-0.80783 -1.27998,-1.61864 0.59668,-0.65933 0.5002,-0.77853 -0.63012,-0.77853 -1.18007,0 -2.73805,-0.65131 -2.73805,-1.14465 0,-0.18364 0.23489,-0.49841 0.52198,-0.6995 0.49837,-0.34907 0.47282,-0.3737 -0.56514,-0.54468 -1.52564,-0.25132 -2.71971,-0.7854 -2.71971,-1.21646 0,-0.20114 0.51699,-0.66869 1.14888,-1.039 1.06648,-0.625 1.11602,-0.69819 0.69072,-1.02056 -0.49715,-0.37682 -1.74604,-0.486 -1.88147,-0.16447 -0.32488,0.77136 -4.95371,3.27105 -7.24209,3.91092 -2.39828,0.6706 -5.67245,0.78717 -8.17302,0.29098 -1.21589,-0.24128 -2.61527,-0.66778 -3.10973,-0.9478 -0.49447,-0.28002 -1.57719,-0.88651 -2.40606,-1.34777 -4.83656,-2.69153 -8.09016,-8.91272 -6.90075,-13.19491 0.29579,-1.06493 1.86668,-2.73468 3.14221,-3.33996 1.22806,-0.58275 4.05839,-0.78759 5.28741,-0.38265 1.27391,0.41973 1.92352,0.88514 5.25275,3.76338 4.35595,3.76587 6.07501,4.84986 8.20508,5.17391 l 1.08824,0.16555 -2.32333,-2.38597 c -1.27784,-1.31228 -2.32333,-2.5182 -2.32333,-2.67981 0,-0.16161 0.17538,-0.56151 0.38974,-0.88866 0.43366,-0.66185 0.72975,-0.54541 -2.65028,-1.04219 -0.55258,-0.0812 -1.00468,-0.24257 -1.00468,-0.35855 0,-0.11599 0.35415,-0.48806 0.787,-0.82682 0.44485,-0.34814 0.71122,-0.73854 0.6127,-0.89796 -0.29292,-0.47395 -2.1868,-1.2045 -3.97421,-1.53302 -1.906,-0.35031 -2.08433,-0.64214 -1.03413,-1.69233 l 0.66126,-0.66127 -1.32026,-0.58267 c -2.15906,-0.95285 -3.76391,-1.34458 -6.16725,-1.50537 l -2.27184,-0.15198 -0.47377,0.72521 c -0.82768,1.26696 -2.23837,2.49845 -3.97364,3.46887 -0.92602,0.51786 -1.68367,1.06422 -1.68367,1.21413 0,0.14992 -0.1813,0.4729 -0.40288,0.71775 -0.36404,0.40226 -0.36696,0.58669 -0.0303,1.91327 0.47102,1.85604 0.21848,5.07144 -0.56752,7.2256 -0.95802,2.62563 -0.94137,2.91447 0.28231,4.89751 1.13808,1.84433 1.64171,2.10047 2.09659,1.06633 0.13637,-0.31002 0.36649,-0.56367 0.51139,-0.56367 0.1449,0 0.82452,1.07211 1.51026,2.38246 0.68574,1.31036 1.32834,2.38412 1.428,2.38613 0.0997,0.002 0.27439,-0.356 0.3883,-0.79557 0.1139,-0.43957 0.31493,-0.83282 0.44673,-0.87389 0.1318,-0.0411 0.9743,1.01639 1.87224,2.34991 0.89794,1.33352 1.75528,2.46466 1.90521,2.51365 0.14992,0.049 0.47791,-0.36626 0.72886,-0.92277 0.50788,-1.12627 1.01128,-1.30318 1.27102,-0.44669 0.0943,0.31083 0.39736,0.81222 0.67356,1.11423 0.65851,0.72001 1.99269,2.66603 2.85233,4.16036 0.37748,0.65618 0.78421,1.19306 0.90385,1.19306 0.11965,0 0.28535,-0.33908 0.36824,-0.75351 0.0829,-0.41443 0.25951,-0.75351 0.39249,-0.75351 0.13299,0 1.16305,0.8477 2.28902,1.88378 1.12597,1.03607 2.13331,1.88378 2.23852,1.88378 0.10521,0 0.19129,-0.28257 0.19129,-0.62793 0,-1.01623 0.73355,-0.76559 2.54548,0.86975 0.91267,0.82372 1.73055,1.42653 1.8175,1.33957 0.087,-0.087 0.1581,-0.58469 0.1581,-1.10609 0,-1.10155 0.3568,-1.4365 0.95771,-0.89905 0.79671,0.71258 3.94004,2.68249 3.98094,2.49483 0.0224,-0.10302 0.10938,-0.49813 0.19316,-0.87802 0.0838,-0.3799 0.26196,-0.69072 0.39592,-0.69072 0.27189,0 3.16567,2.15062 3.39663,2.52433 0.28041,0.45371 0.62013,0.23608 0.62013,-0.39726 z m 24.8659,-0.52133 c 0,-0.68814 -0.20681,-0.74695 -0.8844,-0.25148 -0.398,0.29102 -0.424,0.41473 -0.15523,0.73858 0.43947,0.52953 1.03963,0.24833 1.03963,-0.4871 z m -46.54219,-0.24401 c 0.0986,-0.30103 -1.57966,-1.29722 -1.80529,-1.07159 -0.0784,0.0784 -0.0263,0.44827 0.11579,0.82196 0.20561,0.54079 0.39529,0.66322 0.92955,0.59997 0.36917,-0.0437 0.71115,-0.20135 0.75995,-0.35034 z m 49.00367,-0.65845 c 0.28179,-0.2818 0.43518,-1.45679 0.19017,-1.45679 -0.0612,0 -0.51635,0.23902 -1.0115,0.53117 -0.71878,0.42409 -0.84207,0.60132 -0.61153,0.8791 0.35515,0.42794 1.02954,0.44983 1.43286,0.0465 z m -52.1305,-0.55058 c 0.58962,-0.44758 0.55352,-0.76757 -0.12558,-1.11324 -0.31083,-0.15821 -0.83781,-0.4849 -1.17109,-0.72598 l -0.60595,-0.43832 0.14736,1.09862 c 0.19491,1.45313 0.83112,1.88045 1.75526,1.17892 z m 54.6836,-1.39204 c 0.30544,-0.57073 0.33738,-1.02349 0.0716,-1.01561 -0.43851,0.013 -1.37702,0.95262 -1.21436,1.2158 0.27232,0.44063 0.85435,0.33866 1.14273,-0.20019 z m -57.29403,-0.60115 c 0.2167,-0.26111 -0.32375,-0.83326 -2.49119,-2.63729 -1.52236,-1.26711 -2.87635,-2.30383 -3.00887,-2.30383 -0.31666,0 -0.30476,0.49547 0.0353,1.47105 0.28809,0.82641 0.94208,1.14963 2.01985,0.99826 0.53568,-0.0752 0.59812,0.0197 0.6527,0.99228 0.0332,0.5915 0.20274,1.23711 0.37676,1.43467 0.40091,0.45516 2.04949,0.48578 2.41542,0.0449 z m 59.42147,-0.91617 c 0.64525,-0.24533 0.85858,-0.84881 0.4002,-1.1321 -0.33263,-0.20558 -1.51412,0.59751 -1.51412,1.02918 0,0.41152 0.24315,0.43398 1.11392,0.10292 z m -10.05729,-1.60717 c -0.30282,-0.97133 -1.19698,-1.21092 -1.7585,-0.47121 -0.5175,0.68172 -0.41233,1.02649 0.34108,1.11809 1.1829,0.14384 1.60402,-0.0484 1.41742,-0.64688 z m 2.74395,0.076 c 0.7926,-0.22009 0.90708,-0.32877 0.65996,-0.62653 -0.5973,-0.71971 -2.24683,-0.3019 -2.24683,0.56909 0,0.39502 0.32835,0.40691 1.58687,0.0574 z m -5.93723,-0.79839 c -0.18318,-0.44897 -0.52802,-0.8539 -0.7663,-0.89984 -0.44968,-0.0867 -1.16261,0.36352 -1.16261,0.73419 0,0.28307 1.2674,0.95924 1.82171,0.9719 0.39789,0.009 0.40821,-0.0685 0.1072,-0.80625 z m 15.81471,0.50676 c 0.28195,-0.45621 0.29307,-1.19726 0.0205,-1.36572 -0.13079,-0.0808 -0.49812,0.17826 -0.81629,0.57577 -0.51659,0.64541 -0.53377,0.74101 -0.16055,0.89346 0.61663,0.25189 0.74531,0.23797 0.95635,-0.10351 z m -7.13165,-0.79361 c 0.70777,-0.53728 0.51379,-1.20734 -0.2067,-0.71399 -0.33262,0.22776 -0.66108,1.06661 -0.41335,1.05565 0.0993,-0.004 0.37829,-0.15814 0.62005,-0.34166 z m -11.61665,-0.60481 c 0,-0.61464 -0.4865,-1.05491 -1.16568,-1.05491 -0.91189,0 -0.93009,0.45708 -0.0398,0.99987 1.02059,0.62224 1.2055,0.63068 1.2055,0.055 z m -49.48065,-1.06276 c 0.31085,-0.20735 0.17904,-0.42505 -0.75351,-1.24451 -0.62165,-0.54626 -1.21504,-0.99656 -1.31865,-1.00069 -0.24209,-0.01 -0.23896,1.53785 0.004,1.90142 0.37833,0.56648 1.46396,0.74692 2.06831,0.34378 z m 70.07665,-0.71264 c 0,-0.24841 -0.0763,-0.52791 -0.16947,-0.62112 -0.21379,-0.21378 -1.10256,1.11223 -0.93126,1.38941 0.20959,0.33911 1.10073,-0.2829 1.10073,-0.76829 z m -6.81096,-0.69631 c -0.38557,-0.46459 -0.72416,-0.18805 -0.72416,0.59145 0,0.63574 0.0125,0.64069 0.50145,0.19822 0.38037,-0.34422 0.43415,-0.53491 0.22271,-0.78967 z m -17.28697,-0.42894 c -0.26994,-0.70999 -0.73281,-0.85185 -1.21293,-0.37173 -0.22488,0.22489 -0.10349,0.42587 0.5149,0.85258 0.902,0.6224 1.07276,0.50477 0.69803,-0.48085 z m -48.76365,-0.64702 c 0.27395,-0.17342 -0.14348,-0.72271 -1.83369,-2.41292 -2.05931,-2.05931 -2.20976,-2.16065 -2.55082,-1.7182 -0.19934,0.25861 -0.33491,0.75276 -0.30126,1.09812 0.0565,0.57964 0.15292,0.6248 1.25423,0.58726 l 1.19306,-0.0407 v 0.96462 c 0,1.45439 1.13066,2.22305 2.23848,1.52179 z m 67.78793,-0.0692 c 0.16577,-0.16577 0.30141,-0.38828 0.30141,-0.49446 0,-0.31269 -0.70226,0.0488 -0.8518,0.43853 -0.16723,0.4358 0.13937,0.46696 0.55039,0.0559 z m -21.50503,-0.85492 c -0.0738,-0.43861 -0.70497,-1.10941 -1.03532,-1.10036 -0.0772,0.002 -0.29992,0.10485 -0.49494,0.22829 -0.28436,0.18001 -0.20976,0.35163 0.37676,0.86678 0.81843,0.71883 1.27395,0.72092 1.1535,0.005 z m 27.72978,-0.51256 c -0.14753,-0.38446 -0.20837,-0.39675 -0.40725,-0.0823 -0.1286,0.20335 -0.23555,0.59174 -0.23766,0.86309 -0.004,0.45687 0.0266,0.46296 0.40725,0.0823 0.25344,-0.25343 0.34458,-0.58445 0.23766,-0.86309 z m -4.68515,-1.65912 c 0.01,-0.24176 -0.0954,-0.43955 -0.23351,-0.43955 -0.13815,0 -0.24323,0.42385 -0.23352,0.94189 0.0142,0.75557 0.0604,0.84252 0.23352,0.43955 0.11872,-0.27629 0.22381,-0.70014 0.23351,-0.94189 z m -46.34028,0.6511 c 3.26985,-0.31291 7.77766,-2.47646 10.24277,-4.91608 3.11359,-3.08138 4.18962,-4.76706 5.19241,-8.13422 0.86705,-2.91141 0.65115,-5.57628 -0.59779,-7.3785 -0.89949,-1.29797 -2.1485,-1.89266 -3.20303,-1.52504 -1.06678,0.37187 -1.69618,0.9867 -1.69618,1.65688 0,0.91662 0.74786,2.42342 1.27066,2.56013 0.26814,0.0701 0.48753,0.22734 0.48753,0.34937 0,0.12203 0.33241,0.22188 0.73869,0.22188 0.95117,0 1.10549,0.28008 0.64296,1.16692 -0.20563,0.39427 -0.37457,0.94493 -0.37542,1.22369 -0.004,1.20083 -2.4433,4.02137 -4.4978,5.20004 -1.07178,0.61489 -1.73694,0.80271 -3.16805,0.89455 -1.05479,0.0677 -2.18952,-0.009 -2.71661,-0.18248 -1.52928,-0.50471 -6.50204,-4.08321 -8.65949,-6.23154 -0.45679,-0.45486 -1.30449,-1.13415 -1.88378,-1.50954 -0.57929,-0.37539 -1.13413,-0.79661 -1.23297,-0.93605 -0.267,-0.37666 -4.0104,-0.22049 -5.04149,0.21033 -0.49037,0.20489 -1.33811,0.83264 -1.88387,1.39501 -0.85555,0.88159 -1.0155,1.22764 -1.16073,2.51129 -0.18128,1.60235 0.28816,3.44751 1.46749,5.76806 0.64172,1.26269 3.25578,4.32217 4.03543,4.72303 0.27629,0.14205 1.22489,0.67402 2.10801,1.18216 2.2975,1.32195 5.5525,2.2204 7.3109,2.01795 0.4835,-0.0557 1.66267,-0.17619 2.62036,-0.26784 z m -6.6391,-3.44735 c -4.51319,-1.30407 -7.2566,-4.9267 -5.89845,-7.7888 0.45375,-0.9562 1.54655,-1.65953 2.57852,-1.65953 1.28883,0 2.37538,0.65118 4.47276,2.68059 2.10554,2.0373 4.16045,3.34751 5.25019,3.34751 0.85693,0 0.80347,0.53819 -0.16276,1.63867 -1.51288,1.72307 -3.99258,2.43101 -6.24026,1.78156 z m 4.35433,-1.32861 c 0.43707,-0.22584 0.92722,-0.59105 1.08921,-0.81157 0.23985,-0.32651 0.20057,-0.43602 -0.21157,-0.58982 -0.27836,-0.10387 -0.63696,-0.11401 -0.79688,-0.0225 -0.15992,0.0915 -0.20961,0.0765 -0.11041,-0.0333 0.0992,-0.10983 -0.35292,-0.55098 -1.00469,-0.98033 -0.65177,-0.42935 -2.06577,-1.62917 -3.14222,-2.66625 -1.07646,-1.03709 -2.26324,-1.97068 -2.6373,-2.07467 -1.62846,-0.45267 -2.81505,0.43773 -2.81505,2.11239 0,1.20738 0.32037,2.02111 1.17205,2.97699 0.78105,0.87659 3.03522,2.23733 4.20148,2.53624 1.08374,0.27776 3.30402,0.0445 4.25538,-0.4471 z m 22.47562,4.12486 c -0.0516,-0.36319 -0.28221,-0.59382 -0.64539,-0.6454 -0.67148,-0.0954 -0.71547,0.12576 -0.14945,0.7512 0.56288,0.62198 0.89198,0.57817 0.79484,-0.1058 z m 31.1413,-1.62911 c -0.40478,-0.48772 -0.63187,-0.16552 -0.50286,0.71347 l 0.11769,0.80189 0.32203,-0.60171 c 0.2238,-0.41818 0.24306,-0.69686 0.0631,-0.91365 z m -33.70552,-1.21483 c -0.1672,-0.43573 -1.15801,-0.48138 -1.15801,-0.0534 0,0.16782 0.25431,0.54587 0.56513,0.8401 0.54381,0.51479 0.56825,0.5168 0.64779,0.0534 0.0455,-0.26489 0.0208,-0.64293 -0.0549,-0.8401 z m -45.30229,0.75186 c 0.18834,-0.18834 -1.27769,-2.36621 -1.59282,-2.36621 -0.32362,0 -0.74825,1.1659 -0.58221,1.59859 0.23097,0.60191 1.79038,1.15226 2.17503,0.76762 z m 79.05702,-1.8798 c 0,-0.25121 -0.12288,-0.5327 -0.27306,-0.62552 -0.44887,-0.27741 -0.8072,0.30616 -0.62754,1.02199 0.13841,0.55145 0.23193,0.61525 0.53419,0.36439 0.20152,-0.16725 0.36641,-0.50963 0.36641,-0.76086 z m -36.39341,-1.05154 c -0.22235,-0.60229 -1.03104,-0.93396 -1.03104,-0.42286 0,0.30306 0.7153,0.96476 1.05938,0.98001 0.0992,0.004 0.0864,-0.24633 -0.0283,-0.55715 z m -45.29345,-1.77641 c -0.31437,-0.6453 -0.65914,-1.17363 -0.7661705,-1.17406 -0.10703,-4.9e-4 -0.31155,0.30683 -0.4545,0.68282 -0.3361,0.884 0.0453,1.75688 0.8232805,1.88439 0.92391,0.15142 1.00735,-0.14109 0.39739,-1.39315 z m 6.56786,-2.11674 c 0.46979,-1.98514 0.54321,-2.39304 0.69037,-3.83589 0.0778,-0.76284 0.007,-2.03578 -0.15785,-2.82876 -0.25304,-1.21888 -0.41985,-1.50412 -1.07897,-1.84496 -0.72751,-0.37621 -0.80165,-0.37308 -1.10862,0.0467 -0.8867,1.21263 -0.75076,4.88918 0.28587,7.73144 0.38605,1.05848 0.78852,1.9245 0.89438,1.9245 0.10586,0 0.31953,-0.53687 0.47482,-1.19306 z m -7.6159805,-0.46288 c -0.0844,-0.22005 -0.219,-0.70041 -0.29902,-1.06747 -0.28802,-1.32117 -0.32849,-1.37858 -0.73443,-1.04168 -0.76247,0.63279 -0.22539,2.50924 0.71819,2.50924 0.32566,0 0.42192,-0.12215 0.31526,-0.40009 z m 40.1736005,-2.84179 c -0.34994,-0.6767 -1.14234,-1.09444 -1.14234,-0.60222 0,0.24545 1.32315,1.59999 1.44444,1.4787 0.0548,-0.0548 -0.0811,-0.44921 -0.3021,-0.87648 z M 8.8644025,41.305841 c -0.0959,-0.72275 -0.22277,-1.36255 -0.28199,-1.42176 -0.0592,-0.0592 -0.34081,0.10332 -0.62577,0.36121 -0.58927,0.53328 -0.49235,1.5318 0.20002,2.06068 0.74,0.56527 0.88771,0.35654 0.70774,-1.00013 z m 38.5272605,-1.83937 c -0.30497,-0.36747 -1.24438,-0.50962 -1.24438,-0.1883 0,0.096 0.31082,0.5005 0.69072,0.89879 0.66219,0.69422 0.69411,0.702 0.77279,0.18829 0.0451,-0.29472 -0.0535,-0.69917 -0.21913,-0.89878 z M 8.5813025,37.448111 c -0.0394,-0.49606 -0.13398,-0.96434 -0.21027,-1.04064 -0.24992,-0.24992 -0.45947,0.67356 -0.29842,1.31519 0.23697,0.94416 0.59026,0.75348 0.50869,-0.27455 z m 36.8300805,-0.68436 c -0.15119,-0.39767 -0.44779,-0.67426 -0.72304,-0.67426 -0.81444,0 -0.80975,0.29411 0.0215,1.34604 0.69267,0.87664 0.82029,0.95079 0.88377,0.51353 0.0408,-0.28108 -0.0412,-0.81447 -0.18216,-1.18531 z m -27.26881,-0.26705 c 0.45146,-0.33011 0.45343,-0.3771 0.0422,-1.00469 -0.46872,-0.71535 -0.90306,-0.82817 -1.37426,-0.35697 -0.43718,0.43718 -0.3695,1.14099 0.13815,1.43667 0.57659,0.33584 0.63723,0.33203 1.19389,-0.075 z m 25.24183,-1.39554 c 0,-1.03191 -0.4704,-1.77455 -1.12405,-1.77455 -0.81306,0 -0.80003,0.32128 0.0566,1.39485 0.78306,0.98141 1.06747,1.08257 1.06747,0.3797 z m -23.03244,-0.67653 c 1.17334,-0.59701 3.2453,-2.42771 3.76929,-3.33039 l 0.45374,-0.78168 h -1.40564 c -0.92605,0 -1.75355,0.17749 -2.42529,0.52019 -1.10258,0.56249 -3.23025,2.40648 -3.23025,2.79955 0,0.37247 1.07586,1.18362 1.58229,1.19298 0.24861,0.005 0.81375,-0.17569 1.25586,-0.40065 z M 9.1294825,33.317201 c 0.4104,-1.38992 0.0577,-1.92772 -0.67564,-1.03024 -0.49946,0.61125 -0.60043,1.19886 -0.32799,1.90882 0.2539,0.66164 0.65167,0.31343 1.00363,-0.87858 z m 31.4920405,-1.01178 c 0,-0.58277 -0.54706,-1.23935 -1.03262,-1.23935 -0.49981,0 -0.49803,0.0185 0.0716,0.73962 0.60993,0.77214 0.96099,0.9547 0.96099,0.49973 z m -30.02481,-2.27411 c 0.37662,-0.56912 1.19436,-1.54435 1.8172,-2.16719 1.045,-1.045 1.10964,-1.18243 0.83734,-1.78007 -0.36013,-0.79041 -0.74336,-1.08164 -3.4820705,-2.64618 -0.69417,-0.39655 -1.62536,-1.173 -2.06932,-1.72545 -0.70481,-0.87705 -0.83779,-0.94979 -1.04839,-0.57347 -0.13265,0.23704 -0.23833,1.36131 -0.23483,2.49839 0.005,1.61291 0.1438,2.40565 0.63152,3.60595 0.5631,1.38579 2.2838,3.82278 2.69917,3.82278 0.0905,0 0.4727505,-0.46564 0.8493805,-1.03476 z m 27.66556,-0.36722 c -0.0838,-0.21851 -0.15245,-0.60201 -0.15245,-0.85222 0,-0.5853 -0.46404,-0.75503 -1.25586,-0.45937 l -0.62793,0.23447 0.8791,0.73046 c 0.98543,0.8188 1.38416,0.93825 1.15714,0.34666 z m -2.71179,-2.55395 c -0.0632,-0.76394 -0.18734,-0.9574 -0.65692,-1.02397 -0.31842,-0.0451 -0.75156,0.0612 -0.96253,0.23626 -0.33519,0.27819 -0.28164,0.40733 0.42462,1.02397 1.06966,0.93391 1.2881,0.89072 1.19483,-0.23626 z m -20.22194,-0.97384 c 1.05052,-0.53412 1.01247,-0.46981 0.63523,-1.07387 -0.45443,-0.72765 -1.40426,-0.68155 -1.75358,0.0851 -0.2604,0.57152 -0.16077,1.39746 0.16858,1.39746 0.0803,0 0.50766,-0.18391 0.94977,-0.4087 z m 17.25552,-0.28892 c 0,-0.54528 -0.78621,-1.25617 -1.25397,-1.13384 -0.67666,0.17695 -0.63488,0.37063 0.18694,0.86661 0.78917,0.47627 1.06703,0.54586 1.06703,0.26723 z m -13.85784,-1.39725 c 0.10951,-0.56859 -0.39292,-1.17035 -0.97717,-1.17035 -0.5413,0 -0.7399,0.27807 -0.98974,1.38581 l -0.18589,0.82422 1.03394,-0.29935 c 0.63092,-0.18267 1.06704,-0.47124 1.11886,-0.74033 z m 2.52382,-0.41684 c 0.79757,0 0.86111,-0.44079 0.13236,-0.91828 -0.65667,-0.43027 -0.67908,-0.4257 -1.26744,0.25831 -0.67112,0.78023 -0.57838,1.30724 0.16046,0.91182 0.25882,-0.13851 0.6974,-0.25185 0.97462,-0.25185 z m 8.51433,0.20633 c -0.18633,-0.559 -0.90771,-0.8493 -1.25282,-0.50419 -0.25759,0.25759 -0.24687,0.36425 0.0559,0.55565 0.53,0.33508 1.31454,0.30135 1.19694,-0.0515 z m -2.62342,-0.85558 c -0.16627,-0.43328 -1.12266,-0.38454 -1.27051,0.0648 -0.0533,0.16203 0.16388,0.33737 0.48267,0.38964 0.76442,0.12534 0.96574,0.009 0.78784,-0.45439 z m -2.34319,0.0261 c 0,-0.41608 -1.05084,-0.76513 -1.63204,-0.5421 -0.20753,0.0796 -0.37732,0.31788 -0.37732,0.52943 0,0.2813 0.26993,0.38464 1.00468,0.38464 0.71986,0 1.00468,-0.10545 1.00468,-0.37197 z m 20.59601,-0.64753 c 0,-0.32007 -0.17254,-0.48752 -0.50234,-0.48752 -0.57504,0 -0.60398,0.0943 -0.23857,0.77706 0.30942,0.57816 0.74091,0.40954 0.74091,-0.28954 z m -1.80352,-0.27947 c -0.11832,-0.80412 -0.70819,-0.89024 -0.70819,-0.1034 0,0.4221 0.13778,0.64886 0.39423,0.64886 0.2618,0 0.36726,-0.18322 0.31396,-0.54546 z M 6.1950025,19.700591 c 0.009,-0.10361 -0.15341,-0.18838 -0.36063,-0.18838 -0.29976,0 -0.37245,0.34647 -0.35571,1.6954 l 0.0211,1.6954 0.33958,-1.50702 c 0.18676,-0.82886 0.34683,-1.59179 0.3557,-1.6954 z m 38.3196705,1.31864 c -0.12152,-0.19662 -0.26601,-0.21121 -0.43345,-0.0438 -0.13815,0.13815 -0.16915,0.3839 -0.0689,0.54612 0.12152,0.19662 0.26601,0.21121 0.43346,0.0438 0.13814,-0.13815 0.16914,-0.3839 0.0689,-0.54612 z m 1.55239,-0.61777 c -0.0479,-0.14373 -0.27542,-0.29787 -0.50573,-0.34253 -0.29737,-0.0577 -0.41873,0.094 -0.41873,0.52327 0,0.33246 0.0817,0.68615 0.18148,0.78596 0.22418,0.22418 0.8628,-0.60675 0.74298,-0.9667 z m -2.77716,0.25058 c 0.0775,-0.20196 0.35652,-0.43563 0.62005,-0.51927 0.26352,-0.0836 0.47914,-0.25748 0.47914,-0.38632 0,-0.35183 -0.94534,-0.28192 -1.07795,0.0797 -0.0921,0.25117 -0.18168,0.25117 -0.44792,0 -0.52471,-0.49501 -0.98584,-0.36773 -0.98584,0.2721 0,0.32234 0.0753,0.66142 0.16745,0.75352 0.30287,0.30287 1.10136,0.17477 1.24507,-0.19975 z m 21.13006,-1.07163 c -0.51804,-0.0542 -1.36575,-0.0542 -1.88378,0 -0.51804,0.0542 -0.0942,0.0985 0.94189,0.0985 1.03608,0 1.45993,-0.0443 0.94189,-0.0985 z"
     style="fill:#000000;stroke-width:0.25117078" />
</svg>
