<?xml version="1.0" encoding="UTF-8" standalone="no"?>
<svg
   xmlns:dc="http://purl.org/dc/elements/1.1/"
   xmlns:cc="http://creativecommons.org/ns#"
   xmlns:rdf="http://www.w3.org/1999/02/22-rdf-syntax-ns#"
   xmlns:svg="http://www.w3.org/2000/svg"
   xmlns="http://www.w3.org/2000/svg"
   id="svgLL5"
   version="1.1"
   viewBox="0 0 100 100"
   height="100"
   width="100">
  <defs
     id="defs2" />
  <metadata
     id="metadata5">
    <rdf:RDF>
      <cc:Work
         rdf:about="">
        <dc:format>image/svg+xml</dc:format>
        <dc:type
           rdf:resource="http://purl.org/dc/dcmitype/StillImage" />
        <dc:title></dc:title>
      </cc:Work>
    </rdf:RDF>
  </metadata>
  <path
     id="pathLL5"
     d="m 26.317519,83.045139 c -1.700449,-3.1524 -2.049461,-7.07225 -0.897697,-10.08228 0.46474,-1.21454 0.399305,-1.50303 -0.398307,-1.75619 -1.276211,-0.40505 -5.611913,0.45191 -9.336059,1.84529 -2.765654,1.03476 -7.6934736,4.25317 -8.6409996,5.64351 -0.21384,0.31378 -0.611092,0.9047 -0.88278,1.31314 -0.271683,0.40845 -0.732392,0.59528 -1.023794,0.41518 -0.599285,-0.37037 0.869838,-6.22955 2.19451,-8.75216 2.433213,-4.63363 8.1163856,-10.51773 12.1397836,-12.56898 1.08447,-0.55289 3.314221,-1.31713 4.955001,-1.69829 l 2.98324,-0.69304 -0.217279,-3.41238 c -0.227744,-3.57661 0.601193,-6.63473 1.798411,-6.63473 0.374527,0 1.068912,0.59209 1.543076,1.31576 0.937557,1.43089 6.791855,4.45167 8.961532,4.62408 2.586625,0.20555 2.788066,0.092 2.104038,-1.18613 -1.338855,-2.50167 0.627161,-14.08258 2.223252,-13.09615 0.287408,0.17763 0.522561,0.68932 0.522561,1.13709 0,1.53079 3.28712,5.59432 5.395533,6.66996 2.8733,1.46584 3.593265,1.36036 4.621283,-0.67707 1.259791,-2.49677 3.434141,-4.68133 5.541568,-5.56758 0.99943,-0.42029 1.896383,-0.76417 1.993229,-0.76417 0.09685,0 0.143965,1.7323 0.104703,3.84955 -0.0662,3.56992 0.03584,3.94179 1.404775,5.11929 1.163178,1.00052 2.103839,1.26973 4.43666,1.26973 2.794408,0 6.429603,-1.2388 6.022582,-2.05238 -1.679697,-3.35747 -1.656246,-3.33634 -3.701848,-3.33634 -1.551079,0 -2.293321,-0.33491 -3.146739,-1.41985 -0.614271,-0.78092 -1.116856,-1.87214 -1.116856,-2.42493 0,-0.68664 -0.388829,-1.00507 -1.227276,-1.00507 -1.742859,0 -3.615526,-1.46812 -4.46453,-3.50008 -1.26919,-3.0376 0.484263,-6.68743 4.114683,-8.56478 0.636705,-0.32925 1.471461,-1.52404 1.85502,-2.65508 0.852652,-2.51433 1.999943,-3.83731 4.072036,-4.69559 0.867714,-0.35943 1.577662,-1.01207 1.577662,-1.45031 0,-0.43825 0.824475,-1.6213 1.832166,-2.62899 1.47645,-1.47645 2.253089,-1.83217 4.000194,-1.83217 2.43941,0 5.483957,2.08876 5.483957,3.76236 0,1.01819 1.012795,1.62637 2.708383,1.62637 1.723954,0 3.817473,2.24506 3.871646,4.15189 0.04031,1.41916 0.340481,1.82855 1.684094,2.29694 C 93.923495,26.507139 95,27.758119 95,29.803639 c 0,1.49581 -0.495542,2.30804 -2.694362,4.41624 -1.481898,1.42084 -2.694361,3.01536 -2.694361,3.54338 0,1.07701 -3.472374,4.58997 -4.536943,4.58997 -0.378455,0 -1.12225,0.96279 -1.652883,2.13952 -1.08316,2.40201 -2.417634,3.80222 -3.819855,4.00802 -0.525223,0.0771 -1.030394,0.70864 -1.139688,1.42479 -0.390434,2.55835 -2.763423,6.77441 -5.611756,9.97034 -6.140681,6.89007 -7.113313,8.14602 -8.624592,11.13691 -0.856844,1.69574 -1.557896,3.65588 -1.557896,4.35589 0,0.7 -0.151175,1.42391 -0.335943,1.60868 -0.637761,0.63776 -3.816288,-2.32276 -4.773983,-4.44654 -0.944568,-2.09468 -0.985247,-2.11727 -2.449363,-1.36014 -2.498718,1.29213 -7.780809,6.847 -9.085041,9.5542 -0.677433,1.40616 -1.410574,2.6672 -1.629194,2.80232 -0.693017,0.42831 -3.789404,-4.10777 -4.162848,-6.0984 -0.197227,-1.05132 -0.116229,-2.81953 0.180005,-3.92936 0.502827,-1.88385 0.471298,-1.98185 -0.47473,-1.47556 -2.204198,1.17965 -9.076145,8.79402 -10.219222,11.32326 -0.654913,1.4491 -1.329393,2.63388 -1.498841,2.63284 -0.169454,-0.001 -1.024897,-1.33072 -1.900985,-2.95486 z m 1.110147,-2.28603 c -0.547775,-0.54777 -0.999743,0.27692 -0.550307,1.00412 0.339511,0.54934 0.466437,0.54976 0.648964,0.002 0.124802,-0.37441 0.0804,-0.82724 -0.09866,-1.0063 z m 3.715971,-1.76256 c 0.183174,-0.29638 0.07624,-0.53887 -0.237632,-0.53887 -0.313871,0 -0.570676,0.24249 -0.570676,0.53887 0,0.29638 0.106934,0.53887 0.237637,0.53887 0.130698,0 0.387498,-0.24249 0.570671,-0.53887 z m 2.301793,-2.99712 c -0.18063,-0.18063 -0.618884,0.23796 -0.973898,0.93019 -0.617074,1.20323 -0.602621,1.21768 0.328415,0.32842 0.535645,-0.51161 0.826113,-1.07798 0.645483,-1.25861 z m -4.999969,-1.30769 c 0.188788,-0.30547 -0.02754,-0.3958 -0.507068,-0.21178 -0.933553,0.35823 -1.10436,0.74448 -0.329224,0.74448 0.278888,0 0.65522,-0.23972 0.836292,-0.5327 z m 15.108566,-2.05552 c -0.362084,-0.36209 -1.902381,0.98194 -1.902381,1.65998 0,0.30602 0.486473,0.11616 1.081048,-0.42193 0.594581,-0.53809 0.964177,-1.09521 0.821333,-1.23805 z m 5.998715,-0.24086 c -0.149488,-0.37047 -0.271796,-0.0674 -0.271796,0.67359 0,0.74095 0.122308,1.04407 0.271796,0.67359 0.149494,-0.37047 0.149494,-0.9767 0,-1.34718 z m -20.564594,-0.94302 c 0.183174,-0.29638 0.09055,-0.53888 -0.205827,-0.53888 -0.29638,0 -0.688744,0.2425 -0.871917,0.53888 -0.183174,0.29638 -0.09055,0.53887 0.205833,0.53887 0.29638,0 0.688738,-0.24249 0.871911,-0.53887 z m 14.549551,-1.61662 c 0.183174,-0.29638 0.07624,-0.53887 -0.237632,-0.53887 -0.313871,0 -0.570676,0.24249 -0.570676,0.53887 0,0.29638 0.106934,0.53887 0.237637,0.53887 0.130698,0 0.387503,-0.24249 0.570671,-0.53887 z m -17.511683,-2.29021 c 0.793355,-1.08372 0.923482,-1.4601 0.341354,-0.98734 -0.883632,0.71761 -2.219723,2.73868 -1.810498,2.73868 0.102882,0 0.763997,-0.7881 1.469144,-1.75134 z m 20.202235,0.67976 c 0.188783,-0.30546 -0.02754,-0.3958 -0.507074,-0.21178 -0.933547,0.35824 -1.104354,0.74448 -0.329224,0.74448 0.278888,0 0.65522,-0.23971 0.836298,-0.5327 z m 12.397871,-0.54504 c 0.183174,-0.29638 0.07624,-0.53887 -0.237632,-0.53887 -0.313871,0 -0.570676,0.24249 -0.570676,0.53887 0,0.29638 0.106934,0.53887 0.237632,0.53887 0.130698,0 0.387503,-0.24249 0.570676,-0.53887 z m -13.471806,-0.53887 c 0.183173,-0.29638 0.07624,-0.53887 -0.237632,-0.53887 -0.313871,0 -0.570676,0.24249 -0.570676,0.53887 0,0.29638 0.106939,0.53887 0.237637,0.53887 0.130698,0 0.387503,-0.24249 0.570671,-0.53887 z m 15.679916,-2.55193 c -0.319427,-0.31943 -1.938674,0.51375 -1.938674,0.99753 0,0.26718 0.473955,0.1898 1.053237,-0.17197 0.579282,-0.36177 0.97773,-0.73327 0.885437,-0.82556 z m -11.683278,-1.02373 c 0.73951,-0.647 -1.014449,-0.0461 -1.872872,0.64159 -0.986298,0.79019 -0.969103,0.80141 0.301159,0.19644 0.740949,-0.35287 1.448219,-0.72999 1.571713,-0.83803 z m -18.411471,0.0509 c 1.555994,-0.19168 2.829079,-0.58257 2.829079,-0.86863 0,-0.28605 -0.210494,-0.39001 -0.467762,-0.23101 -0.257269,0.159 -1.979984,0.39257 -3.828251,0.51904 -1.848267,0.12648 -3.638336,0.52123 -3.977934,0.87723 -0.476422,0.49944 -0.24822,0.57928 0.999172,0.34958 0.889139,-0.16372 2.889703,-0.45452 4.445696,-0.64621 z m -7.813648,-0.60427 c -0.370474,-0.14949 -0.976706,-0.14949 -1.34718,0 -0.370475,0.14949 -0.06736,0.2718 0.67359,0.2718 0.740949,0 1.044065,-0.12231 0.67359,-0.2718 z m 25.192278,-1.30012 c 6.360606,-0.77896 10.886492,-1.48958 12.932935,-2.03066 5.591069,-1.47825 13.932704,-7.36709 14.72448,-10.39485 0.499491,-1.91005 -1.147577,-1.02402 -3.138727,1.68847 -1.087816,1.4819 -2.182362,2.69436 -2.432329,2.69436 -0.249966,0 -0.790127,0.33564 -1.200349,0.74587 -1.181811,1.18181 -4.633908,2.76333 -9.300256,4.26076 -3.773744,1.21099 -8.672799,1.98583 -17.935054,2.83661 -1.398147,0.12843 -3.754554,0.46592 -5.236453,0.74997 -2.220423,0.42563 -1.793879,0.46616 2.424925,0.23044 2.815608,-0.15731 6.93798,-0.50875 9.160828,-0.78097 z m -21.409917,-0.85193 c -0.364833,-0.14761 -1.09231,-0.1566 -1.616617,-0.02 -0.524301,0.13663 -0.225803,0.2574 0.663336,0.26838 0.889139,0.011 1.318119,-0.1008 0.953281,-0.24841 z m -3.782361,-0.56571 c -0.666854,-0.12844 -1.75807,-0.12844 -2.424925,0 -0.666854,0.12844 -0.121246,0.23353 1.212463,0.23353 1.333709,0 1.879317,-0.10509 1.212462,-0.23353 z m 7.948366,-0.15857 c -0.740949,-0.23729 -1.832165,-0.43144 -2.424925,-0.43144 -0.85339,0 -0.797305,0.0898 0.269436,0.43144 0.74095,0.23729 1.832166,0.43144 2.424925,0.43144 0.853396,0 0.79731,-0.0898 -0.269436,-0.43144 z m 18.860529,-0.87116 c 0,-0.11362 -0.484985,-0.20659 -1.077744,-0.20659 -0.59276,0 -1.077745,0.21979 -1.077745,0.48843 0,0.26863 0.484985,0.36159 1.077745,0.20658 0.592759,-0.15501 1.077744,-0.3748 1.077744,-0.48842 z m 9.265499,-1.60789 c 0.802133,-0.4148 1.836849,-0.75419 2.299368,-0.75419 1.59421,0 5.540254,-2.21186 8.165893,-4.57721 2.020092,-1.81982 2.337423,-2.29737 1.364182,-2.05292 -0.697543,0.1752 -1.910006,0.91576 -2.694361,1.64567 -1.84948,1.72112 -7.695086,4.61961 -11.125805,5.51662 -1.481899,0.38746 -2.932322,0.91881 -3.223168,1.18078 -0.791835,0.71322 3.510543,-0.0779 5.213891,-0.95875 z m -31.763416,0.50555 c -0.370474,-0.14949 -0.976705,-0.14949 -1.34718,0 -0.370475,0.14949 -0.06736,0.2718 0.67359,0.2718 0.74095,0 1.044065,-0.12231 0.67359,-0.2718 z m 7.36459,-0.52557 c 0.123493,-0.10741 -0.9071,-0.19529 -2.290207,-0.19529 -1.383108,0 -2.514739,0.21942 -2.514739,0.48759 0,0.43918 4.262054,0.1799 4.804946,-0.2923 z m 7.858552,0.34358 c -0.183174,-0.29638 -0.575532,-0.53887 -0.871912,-0.53887 -0.29638,0 -0.389006,0.24249 -0.205833,0.53887 0.183174,0.29638 0.575537,0.53887 0.871917,0.53887 0.29638,0 0.389001,-0.24249 0.205828,-0.53887 z m -11.731697,-1.40332 c -0.179061,-0.17906 -0.643839,-0.1982 -1.03284,-0.0425 -0.429874,0.17202 -0.302183,0.29971 0.325571,0.32557 0.568063,0.0234 0.886331,-0.10397 0.707269,-0.28303 z m 3.244459,-0.58476 c -0.518665,-0.13554 -1.367389,-0.13554 -1.886053,0 -0.518665,0.13554 -0.0943,0.24644 0.943026,0.24644 1.037329,0 1.461691,-0.1109 0.943027,-0.24644 z m 0.404154,-2.3229 c -0.183174,-0.29638 -0.621843,-0.53516 -0.974825,-0.53062 -0.385628,0.005 -0.319164,0.21675 0.166516,0.53062 1.035244,0.66902 1.221791,0.66902 0.808309,0 z m 18.657961,-1.76032 c -0.532201,-0.52823 -0.594096,-0.46634 -0.30166,0.30166 0.202362,0.53145 0.503678,0.83052 0.669592,0.66461 0.165913,-0.16591 3.44e-4,-0.60073 -0.367932,-0.96627 z m 5.59129,0.68258 c -0.183173,-0.29638 -0.575531,-0.53888 -0.871911,-0.53888 -0.29638,0 -0.389007,0.2425 -0.205833,0.53888 0.183173,0.29638 0.575532,0.53887 0.871911,0.53887 0.29638,0 0.389007,-0.24249 0.205833,-0.53887 z m -28.560229,-1.07775 c 0.183173,-0.29638 0.09055,-0.53887 -0.205828,-0.53887 -0.29638,0 -0.688743,0.24249 -0.871917,0.53887 -0.183173,0.29638 -0.09055,0.53887 0.205833,0.53887 0.29638,0 0.688738,-0.24249 0.871912,-0.53887 z m 1.542053,-0.80831 c -0.170596,-0.44457 -0.556418,-0.8083 -0.857378,-0.8083 -0.315408,0 -0.263035,0.3424 0.123633,0.8083 0.368961,0.44457 0.754782,0.80831 0.857378,0.80831 0.102602,0 0.04699,-0.36374 -0.123633,-0.80831 z m 18.732525,-0.95201 c -0.532196,-0.52823 -0.594096,-0.46634 -0.301655,0.30167 0.202362,0.53144 0.503678,0.83052 0.669592,0.6646 0.165908,-0.16591 3.39e-4,-0.60073 -0.367937,-0.96627 z m 5.849916,-2.29424 c -0.374904,-0.45174 -0.821931,-0.68104 -0.9934,-0.50957 -0.171469,0.17146 0.04494,0.53735 0.480944,0.81307 1.140776,0.72145 1.289834,0.63317 0.512456,-0.3035 z m 23.425689,-0.48023 c 1.003951,-0.41948 2.118808,-1.32883 2.477459,-2.02077 0.626606,-1.20892 0.591456,-1.20254 -0.899652,0.16328 -2.78923,2.55487 -5.580707,2.45265 -6.667267,-0.24413 -0.348354,-0.8646 -0.48339,-0.93718 -0.508475,-0.27332 -0.03341,0.88347 2.329556,3.13763 3.289056,3.13763 0.265928,0 1.304922,-0.34321 2.308879,-0.76269 z m 0.834373,-2.47055 c 1.30136,-1.30136 1.319925,-1.56992 0.217333,-3.1441 -1.124853,-1.60595 -3.26305,-1.36889 -4.66471,0.51717 -0.854883,1.15032 -0.936803,1.62853 -0.438486,2.55964 0.795844,1.48705 3.429825,1.52333 4.885863,0.0673 z m -4.001978,-0.49397 c -0.46918,-0.80829 0.832132,-2.73926 1.846036,-2.73926 1.389391,0 1.96357,1.34709 0.989402,2.32127 -0.739316,0.73931 -2.4984,0.99864 -2.835438,0.41799 z m -31.734349,-0.14592 c -0.172024,-0.42987 -0.29971,-0.30219 -0.32557,0.32557 -0.02339,0.56806 0.103964,0.88633 0.283026,0.70727 0.179062,-0.17906 0.198208,-0.64384 0.04257,-1.03284 z m 29.804869,-1.81891 c 0.0082,-1.22289 3.151928,-3.61069 4.431615,-3.36606 1.130592,0.21612 1.240651,0.0697 1.066859,-1.41894 -0.130795,-1.12036 0.196112,-2.15559 1.005703,-3.18482 1.018797,-1.29519 1.514274,-1.49489 3.289039,-1.32564 1.717396,0.16378 2.023972,0.0526 1.721362,-0.62441 -1.088968,-2.43617 0.506627,-5.3557 2.987638,-5.4666 0.913081,-0.0408 1.071111,-0.14803 0.455352,-0.30895 -0.655743,-0.17136 -0.943026,-0.78352 -0.943026,-2.00946 0,-1.16491 -0.411332,-2.11128 -1.212463,-2.78957 -1.211239,-1.02551 -1.211509,-1.02541 -0.269436,0.0936 3.058208,3.6327 -2.611067,9.13159 -5.791411,5.61735 -1.937089,-2.14046 -0.552473,-6.4219 2.102825,-6.50225 1.019423,-0.0308 0.999188,-0.0859 -0.208603,-0.56777 -0.981221,-0.39147 -1.397209,-0.35463 -1.561506,0.13826 -0.510204,1.53061 -2.768898,3.15803 -4.38303,3.15803 -0.926704,0 -1.530899,0.22979 -1.354531,0.51516 0.522695,0.84574 -1.149997,4.19909 -2.438554,4.8887 -0.658501,0.35243 -2.016206,0.50788 -3.017118,0.34545 -1.774647,-0.28799 -1.79958,-0.26639 -1.003839,0.8697 1.108418,1.58249 1.026304,2.66801 -0.3325,4.39545 -2.13319,2.71191 -5.555051,2.87953 -6.914852,0.33872 -1.280948,-2.39348 1.368256,-6.50332 4.192044,-6.50332 1.48261,0 1.568862,-0.12397 1.568862,-2.25482 0,-2.85709 2.108305,-4.98043 4.584331,-4.61703 1.352187,0.19846 1.531147,0.0812 1.289015,-0.84474 -0.437559,-1.67323 1.027554,-4.60043 2.455911,-4.90675 0.686388,-0.1472 1.732959,-0.3702 2.325718,-0.49554 0.59276,-0.12535 0.210667,-0.25604 -0.849095,-0.29042 -2.174862,-0.0706 -3.796005,1.30913 -4.640871,3.94965 -0.340023,1.06271 -0.997361,1.71815 -1.98909,1.98338 -2.207253,0.59031 -2.989281,1.45274 -3.632064,4.00546 -0.446283,1.77237 -0.945203,2.45722 -2.155204,2.95842 -3.516923,1.45676 -5.341668,5.75997 -3.482068,8.21158 0.874234,1.15256 3.931736,2.14541 4.378865,1.42193 0.758388,-1.22709 1.423189,-0.39576 1.092623,1.36633 -0.521812,2.78148 0.994882,4.09414 4.532767,3.92301 1.482174,-0.0717 2.696603,-0.3881 2.698732,-0.70312 z m -4.294694,-0.3364 c -1.681227,-0.62193 -2.149313,-1.36659 -2.15966,-3.43571 -0.01089,-2.17693 2.404691,-4.54651 4.63476,-4.54651 1.968759,0 3.978946,1.74346 3.978946,3.45099 0,2.84534 -3.799809,5.51309 -6.454046,4.53123 z m 4.053613,-2.29957 c 1.603452,-1.60345 1.640155,-2.13195 0.244944,-3.52716 -1.422197,-1.4222 -2.461503,-1.35959 -4.066033,0.24494 -1.550104,1.5501 -1.710327,3.24783 -0.379663,4.02287 1.528975,0.89055 2.792302,0.6678 4.200752,-0.74065 z m -3.445463,-0.23203 c -1.133534,-0.71835 -0.494496,-2.41045 1.125483,-2.98017 1.631533,-0.57378 2.709967,5.4e-4 1.471574,0.78383 -0.53683,0.3395 -0.575278,0.50399 -0.119112,0.50957 0.370474,0.004 0.67359,0.25075 0.67359,0.54713 0,0.29638 -0.363739,0.53887 -0.808308,0.53887 -0.44457,0 -0.808309,0.24249 -0.808309,0.53887 0,0.65536 -0.562663,0.67804 -1.534918,0.0619 z m 4.633434,-4.97377 c -1.079086,-0.80508 -1.478644,-1.56945 -1.469914,-2.81201 0.02608,-3.71591 3.817726,-5.78218 6.597704,-3.59544 2.073839,1.63128 1.92768,3.48884 -0.451026,5.73225 -2.231879,2.10493 -2.674746,2.16887 -4.676764,0.6752 z m 3.073097,-1.00606 c 0.765559,-0.29106 1.64598,-1.19742 1.956489,-2.01412 0.478739,-1.25919 0.392692,-1.62409 -0.56607,-2.40045 -0.897621,-0.72685 -1.45128,-0.80375 -2.686509,-0.37315 -0.855735,0.29831 -1.702066,0.92334 -1.88074,1.38895 -0.391582,1.02045 0.153999,2.96834 0.98467,3.51557 0.751183,0.49487 0.555993,0.50527 2.19216,-0.1168 z m -1.725917,-0.93569 c -0.945246,-0.33894 -0.842149,-2.66609 0.134719,-3.04095 1.218374,-0.46753 2.424925,0.18492 2.424925,1.31131 0,1.09926 -1.496837,2.11072 -2.559644,1.72964 z m 8.719982,8.47024 c 0.995319,0 3.00049,-2.81094 3.00049,-4.20622 0,-0.65416 0.723921,-1.50317 1.846386,-2.16545 3.632888,-2.14345 4.520271,-5.34886 1.948503,-7.03838 l -1.324397,-0.87007 1.285054,1.74327 c 1.143056,1.55063 1.206352,1.89033 0.572799,3.07413 -0.976452,1.82452 -4.118126,3.30268 -5.167855,2.43149 -0.503904,-0.41821 -0.777107,-0.44349 -0.777107,-0.0719 0,0.31518 0.242492,0.72292 0.538872,0.9061 1.028734,0.63579 0.530013,2.51669 -1.099332,4.14603 -1.315952,1.31595 -1.945048,1.57684 -3.198055,1.32624 -1.518742,-0.30375 -1.545545,-0.27094 -1.017068,1.24505 0.535973,1.53749 0.555815,1.54399 1.581439,0.51836 0.571259,-0.57126 1.385883,-1.03865 1.810271,-1.03865 z m -0.352648,-2.45548 c 1.350279,-0.94577 1.580959,-3.02204 0.440883,-3.96821 -1.122723,-0.93178 -3.545331,-0.11298 -4.251524,1.43694 -0.528741,1.16046 -0.442247,1.47798 0.641668,2.35569 1.516748,1.22818 1.655216,1.23586 3.168973,0.17558 z m -2.754079,-0.59813 c -0.609287,-0.60929 -0.399881,-1.67863 0.506152,-2.58466 1.015607,-1.01561 2.367831,-0.25286 2.367831,1.33562 0,1.23501 -2.013108,2.10992 -2.873983,1.24904 z m -14.908801,-3.41286 c 0.59276,-0.59276 1.077745,-1.54541 1.077745,-2.117 0,-1.22002 -1.363676,-2.73285 -2.463417,-2.73285 -1.189179,0 -2.925306,2.01482 -2.925306,3.3949 0,2.53304 2.417111,3.34881 4.310978,1.45495 z m -2.559644,-0.35688 c -0.966171,-0.38986 -0.830149,-1.83476 0.246863,-2.62228 1.849383,-1.35231 3.187942,0.56436 1.542964,2.20934 -0.423402,0.4234 -0.847764,0.75067 -0.943026,0.72728 -0.09527,-0.0234 -0.476326,-0.16486 -0.846801,-0.31434 z m 26.501824,-3.01954 c 0.409166,-1.17028 0.326314,-1.68513 -0.385762,-2.39721 -1.238604,-1.2386 -3.814903,-0.37103 -4.063663,1.36844 -0.422282,2.95283 3.462664,3.85108 4.449425,1.02877 z m -3.468737,0.40816 c -0.952219,-1.14735 -0.233639,-2.52922 1.208249,-2.32354 1.554027,0.22168 1.867855,1.81833 0.501167,2.54975 -0.795488,0.42574 -1.214348,0.37031 -1.709416,-0.22621 z m -14.141694,-4.439 c 2.151388,-2.81642 -1.345758,-5.58484 -3.868332,-3.06226 -1.01585,1.01585 -1.104074,2.99136 -0.17508,3.92035 0.830774,0.83078 3.125298,0.34383 4.043412,-0.85809 z m -3.278138,0.0427 c -0.554553,-0.55456 -0.424685,-2.76994 0.184445,-3.14641 0.871529,-0.53863 2.689539,0.26734 2.689539,1.19235 0,0.46602 -0.424362,1.16944 -0.943027,1.56316 -1.08323,0.8223 -1.429466,0.89238 -1.930957,0.39089 z m 15.098597,-0.81243 c 2.397626,-2.25246 1.012929,-4.76698 -2.131477,-3.87062 -2.027959,0.57809 -2.640533,2.71822 -1.192508,4.16624 1.164665,1.16467 1.832834,1.10524 3.323985,-0.29562 z m -2.794349,-0.31848 c -1.021432,-0.75043 -0.843098,-2.14716 0.31274,-2.44942 1.568991,-0.4103 2.651057,0.0979 2.651057,1.24521 0,1.30333 -1.821517,2.04343 -2.963797,1.20421 z m -3.499064,-4.56545 c 0.738346,-0.79253 1.068729,-1.7621 0.964015,-2.82908 -0.148416,-1.51233 -0.306408,-1.62165 -2.310474,-1.59872 -1.833998,0.021 -2.225607,0.23626 -2.656037,1.46018 -0.655942,1.86516 0.345612,4.17337 1.810859,4.17337 0.587565,0 1.573804,-0.54259 2.191637,-1.20575 z m -3.137913,-1.35391 c 0.138027,-1.19958 0.452836,-1.49226 1.652409,-1.53628 1.190671,-0.0437 1.481899,0.18223 1.481899,1.14961 0,0.79306 -0.413822,1.3149 -1.212463,1.52892 -1.938,0.51937 -2.101833,0.42199 -1.921845,-1.14225 z"
     style="fill:#000000;stroke-width:0.53887224" />
</svg>
