<?xml version="1.0" encoding="UTF-8" standalone="no"?>
<svg
   xmlns:dc="http://purl.org/dc/elements/1.1/"
   xmlns:cc="http://creativecommons.org/ns#"
   xmlns:rdf="http://www.w3.org/1999/02/22-rdf-syntax-ns#"
   xmlns:svg="http://www.w3.org/2000/svg"
   xmlns="http://www.w3.org/2000/svg"
   id="svgMR1"
   version="1.1"
   viewBox="0 0 100 100"
   height="100"
   width="100">
  <defs
     id="defs2" />
  <metadata
     id="metadata5">
    <rdf:RDF>
      <cc:Work
         rdf:about="">
        <dc:format>image/svg+xml</dc:format>
        <dc:type
           rdf:resource="http://purl.org/dc/dcmitype/StillImage" />
        <dc:title></dc:title>
      </cc:Work>
    </rdf:RDF>
  </metadata>
  <path
     d="m 61.319309,5.252256 c -0.183005,-0.0622 -0.801905,0.317593 -1.705818,1.190811 -1.641702,1.585938 -1.634358,5.47159 0.01489,7.740279 0.705545,0.970536 1.163103,2.130548 1.016722,2.578167 -0.146388,0.447618 0.212855,1.238005 0.797401,1.75587 0.584554,0.517866 1.062752,1.372949 1.062752,1.900386 0,1.465536 4.926856,6.998912 6.231648,6.998912 1.540515,0 3.854647,2.725328 5.171605,6.089907 1.237272,3.160985 1.354859,5.601546 0.398024,8.287995 l -0.675557,1.89605 -2.963516,-2.215431 c -1.920053,-1.435721 -4.061953,-2.31758 -6.082728,-2.503018 -2.221972,-0.203901 -2.521049,-0.139801 -1.039737,0.222555 1.998997,0.488993 1.965238,0.521663 -0.881338,0.859871 -1.929072,0.229196 -2.863666,0.07811 -2.679216,-0.434994 0.182064,-0.506447 -0.61572,-0.657738 -2.236517,-0.423432 -2.066774,0.29878 -2.208794,0.415123 -0.787925,0.644542 0.953091,0.15389 1.974333,0.524741 2.269008,0.825186 0.813309,0.829231 -1.448283,5.988746 -2.625063,5.988746 -1.230632,0 -1.311707,-1.017995 -0.249104,-3.137443 l 0.78251,-1.559329 -1.903476,1.598347 c -1.97459,1.658006 -3.495818,1.494479 -2.848444,-0.306374 0.204641,-0.569271 0.04486,-1.034735 -0.354702,-1.034735 -0.439281,0 -0.553928,0.838856 -0.289718,2.122941 0.356692,1.733588 0.176283,2.196406 -0.984229,2.52036 -1.558689,0.435106 -1.999033,-1.388369 -0.728357,-3.016049 0.504112,-0.645751 0.465495,-0.685533 -0.139443,-0.147407 -1.291485,1.148842 -1.94003,0.880929 -1.94003,-0.799174 0,-1.44199 0.323738,-1.52306 5.167544,-1.294863 2.889102,0.136107 4.901865,-0.03701 4.566446,-0.393084 -0.329957,-0.350276 -2.614696,-0.604511 -5.078192,-0.565058 -3.565983,0.05711 -4.945109,-0.265129 -6.766408,-1.582451 -1.258213,-0.910046 -2.43318,-2.154157 -2.610172,-2.764592 -0.218365,-0.753108 0.210733,-0.604471 1.333517,0.462452 1.982645,1.884 4.342799,3.242111 5.593997,3.219817 0.501611,-0.009 -0.359394,-0.632059 -1.914306,-1.385909 -1.554912,-0.75385 -3.471985,-2.24555 -4.259128,-3.313753 -1.223284,-1.660079 -1.494463,-1.763619 -1.872338,-0.712464 -0.482312,1.341692 2.440188,5.11795 4.502817,5.816771 1.639213,0.555367 0.904502,3.312308 -0.882693,3.312308 -0.797914,0 -1.231105,-0.383545 -1.045152,-0.924903 0.174732,-0.508696 0.692169,-0.834403 1.149396,-0.72258 0.457221,0.111822 0.636304,-0.133279 0.398025,-0.544826 -0.238273,-0.411548 -1.509066,-0.565591 -2.824076,-0.342502 -2.521166,0.427709 -3.236165,-0.707563 -1.567727,-2.488567 0.635396,-0.678262 0.324194,-0.984598 -1.366008,-1.345445 -1.884092,-0.402241 -2.092257,-0.661037 -1.491913,-1.858477 0.383732,-0.765376 1.016298,-1.391688 1.406622,-1.391688 0.390324,0 0.489723,0.416206 0.220674,0.924903 -0.387413,0.732494 -0.298148,0.735604 0.429161,0.01589 0.754246,-0.746366 0.629915,-1.176079 -0.697219,-2.404747 -1.910473,-1.768734 -2.626643,-1.958625 -1.390376,-0.368516 0.964564,1.240639 0.511006,2.26584 -0.660666,1.49285 -0.989835,-0.653026 -0.938825,-2.852078 0.09206,-3.952514 0.897861,-0.958437 3.604478,-1.247787 3.108378,-0.332386 -0.165415,0.305217 -0.04951,1.220871 0.257227,2.034785 0.495843,1.315715 0.56319,1.263215 0.606513,-0.465341 0.0268,-1.069303 0.500975,-2.344916 1.054628,-2.835405 1.318441,-1.168032 4.453158,-1.515238 5.009146,-0.554941 0.275392,0.475655 0.07766,0.522037 -0.536114,0.127173 -0.767055,-0.493475 -0.809707,-0.399864 -0.200366,0.440774 0.425357,0.586816 0.937499,1.567422 1.137212,2.177857 0.199706,0.610436 0.349921,0.03776 0.334394,-1.271741 -0.018,-1.513681 -0.622043,-2.975241 -1.657079,-4.013211 -0.895428,-0.89796 -1.666252,-1.408867 -1.713941,-1.13445 -0.04766,0.274416 -0.1256,0.83299 -0.173289,1.239947 -0.04766,0.406957 -0.337836,0.724538 -0.64442,0.706684 -0.306584,-0.01786 -1.190674,0.731316 -1.964397,1.664824 -0.817046,0.985765 -1.2692,1.218996 -1.078998,0.556387 0.447128,-1.557666 -1.287067,-3.959691 -2.351591,-3.257392 -0.522585,0.344762 -0.668375,0.248791 -0.380424,-0.248567 0.2681,-0.463056 1.454933,-0.633298 2.791583,-0.401755 1.357695,0.235188 2.523361,0.06056 2.801061,-0.419097 0.319268,-0.551435 -0.466391,-0.82085 -2.390852,-0.82085 -2.244424,0 -3.307829,0.468696 -4.894072,2.161959 -1.114389,1.189568 -2.013145,2.771151 -1.998242,3.51463 0.01698,0.845641 0.393361,0.452273 1.00589,-1.052076 0.538528,-1.322612 1.313634,-2.404747 1.722064,-2.404747 0.427456,0 0.270454,0.768048 -0.369594,1.810786 -0.640346,1.043224 -1.023012,2.918497 -0.901647,4.422191 0.115903,1.436086 -0.170065,3.018388 -0.636296,3.516076 -0.466232,0.497688 -0.847494,1.485247 -0.847494,2.193753 0,1.542211 1.535502,2.744946 1.922429,1.505857 0.149577,-0.47901 1.104815,-0.844307 2.121441,-0.81218 1.016634,0.03213 1.512523,0.207464 1.103366,0.388749 -0.409136,0.181282 -0.600894,1.367227 -0.426454,2.635972 0.219495,1.596387 0.07571,2.146643 -0.468423,1.787663 -0.432454,-0.285304 -0.791857,-1.248646 -0.797402,-2.140282 -0.0062,-0.954568 -0.220015,-1.278809 -0.519868,-0.789057 -0.583944,0.953734 -3.628247,0.01644 -3.628247,-1.11711 0,-0.386788 -0.17465,-1.1863 -0.387193,-1.777547 -0.212542,-0.591247 0.136573,-1.634305 0.775741,-2.316592 0.63916,-0.682288 0.994821,-1.419402 0.789279,-1.638812 -0.205542,-0.21941 -0.875412,0.41704 -1.487852,1.414811 -1.324901,2.15847 -0.450585,5.639353 1.556897,6.199739 0.679835,0.189774 1.290007,1.124041 1.364654,2.086812 0.104223,1.344294 -0.555563,2.174545 -2.891767,3.636023 -3.19443,1.998361 -7.769049,7.354261 -9.674421,11.327168 -1.792734,3.738032 -1.306255,3.901156 0.663373,0.222555 2.87119,-5.362418 6.180248,-9.222206 9.534978,-11.121955 3.057157,-1.731237 3.16559,-1.740791 4.5502,-0.4032 1.162217,1.122754 1.608107,1.202098 2.470727,0.437884 0.736355,-0.652352 1.053275,-0.679575 1.053275,-0.09104 0,0.462768 1.013742,1.500064 2.252761,2.306476 1.403596,0.913526 1.813407,1.468027 1.088475,1.469728 -0.639937,0.0016 -1.65368,0.525296 -2.252762,1.1648 -0.599089,0.639504 -1.088474,0.960774 -1.088474,0.713908 0,-0.246865 -0.620864,-0.09381 -1.379546,0.339614 -0.758675,0.433425 -1.304536,1.194291 -1.213026,1.690837 0.09365,0.508102 -0.439577,0.831913 -1.219795,0.739923 -0.762473,-0.0899 -0.983898,0.02458 -0.491437,0.255792 0.683855,0.321077 0.706257,0.664432 0.09477,1.450942 -0.440342,0.56638 -1.041382,0.870852 -1.336224,0.676335 -0.294841,-0.194517 -0.878579,0.08618 -1.296962,0.624309 -0.580949,0.747229 -0.476658,0.97897 0.441346,0.981264 0.661106,0.0017 1.552751,-0.504475 1.980644,-1.124334 0.599449,-0.868377 0.778383,0.175719 0.781156,4.547919 0.0024,4.013355 -0.225745,5.528468 -0.778449,5.17512 -0.429805,-0.274777 -0.313275,0.117518 0.25858,0.87287 0.958637,1.266265 1.056953,1.062951 1.254995,-2.609954 0.118135,-2.190991 0.538507,-4.401493 0.935492,-4.912099 0.738857,-0.950337 1.207053,-6.686999 0.582144,-7.134757 -0.190619,-0.136577 0.05872,-0.139345 0.555068,-0.0073 0.496342,0.132118 0.753738,-0.0173 0.571312,-0.332388 -0.182432,-0.31509 0.246598,-0.573728 0.953092,-0.573728 0.706494,0 1.132805,0.261202 0.947677,0.580955 -0.185129,0.319752 -0.0057,0.582399 0.398024,0.582399 0.403736,0 0.752903,-0.582689 0.777094,-1.294864 0.03262,-0.961335 0.211926,-0.850983 0.693157,0.430658 0.4619,1.230166 0.366072,2.155802 -0.33304,3.221263 -0.971598,1.480736 -0.984325,1.479545 -1.213025,-0.187871 -0.300817,-2.19325 -1.682681,-2.65437 -2.156641,-0.71969 -0.203462,0.830556 -0.110449,1.510192 0.207135,1.510192 0.317598,0 0.720534,-0.582688 0.894877,-1.294864 0.297087,-1.213541 0.321317,-1.212224 0.396671,0.02312 0.04422,0.724946 -0.352969,1.495525 -0.882694,1.712514 -0.591658,0.242361 -0.814582,0.996901 -0.579436,1.956748 0.376745,1.537891 0.391576,1.536027 0.977461,-0.154632 0.327392,-0.944729 0.753229,-1.550122 0.946323,-1.344 0.193099,0.206122 0.06143,1.188682 -0.292427,2.182193 -0.36056,1.012387 -0.384185,2.299814 -0.05415,2.92934 0.363366,0.693098 0.206068,1.911442 -0.411563,3.182243 -0.550519,1.132718 -0.844869,2.329244 -0.653897,2.659091 0.190972,0.329847 0.110948,0.711808 -0.17735,0.848316 -0.807716,0.38241 -5.101925,10.2538 -4.735674,10.8864 0.177982,0.30739 -1.042955,2.41809 -2.713062,4.68953 -1.670101,2.27145 -2.822539,4.38279 -2.561434,4.69245 0.261112,0.30963 -0.14865,0.32422 -0.911123,0.0318 -1.086684,-0.41676 -1.205802,-0.33726 -0.549652,0.36851 0.657432,0.70713 1.065733,0.69812 1.899414,-0.0405 0.583819,-0.51722 0.9034,-1.21215 0.710757,-1.54488 -0.192635,-0.33273 -0.07634,-0.78631 0.25858,-1.00727 0.334927,-0.22097 0.573467,0.32944 0.530699,1.2226 -0.04481,0.93551 -0.811797,2.02045 -1.810062,2.55938 -1.265283,0.68309 -1.406816,0.93859 -0.522576,0.94658 1.531809,0.0138 6.256401,-4.50362 7.990266,-7.64055 0.788404,-1.42643 1.134332,-2.95361 0.858323,-3.79356 -0.287099,-0.87365 -0.638929,-1.09971 -0.930076,-0.59685 -0.257605,0.44495 -0.278668,1.33849 -0.04603,1.98565 0.232645,0.64716 0.07815,1.17781 -0.343871,1.17781 -0.422029,0 -0.777149,0.4162 -0.789279,0.92491 -0.01212,0.5087 -0.419977,1.48292 -0.905708,2.16485 -0.814557,1.14356 -0.952181,1.11976 -1.778924,-0.29337 -0.776682,-1.32758 -0.749201,-1.47149 0.211197,-1.0781 0.705662,0.28906 1.108781,0.0603 1.108781,-0.63152 0,-0.59767 0.289591,-1.08677 0.643066,-1.08677 0.353455,0 0.536135,-0.91565 0.406147,-2.03478 -0.129988,-1.11913 0.347778,-3.20017 1.061397,-4.62452 0.713627,-1.42435 1.309382,-2.32408 1.325394,-1.99866 0.01598,0.32543 -0.461428,1.6056 -1.061398,2.84408 -0.599962,1.23847 -0.936502,2.41522 -0.748664,2.61574 0.883145,0.94272 4.729329,-10.41421 4.110207,-12.136462 -0.298244,-0.829656 -0.163136,-1.012566 0.44947,-0.608409 0.844134,0.556893 0.769727,2.083971 -0.253165,5.214141 -0.307395,0.94066 -0.10711,0.8054 0.548298,-0.36996 l 1.03026,-1.84836 0.491437,2.08825 c 0.312282,1.32816 0.178073,2.40444 -0.36824,2.95825 -0.67596,0.68523 -0.76084,0.47736 -0.400731,-0.97838 0.397338,-1.60628 0.3528,-1.67204 -0.335748,-0.49424 -0.648331,1.109 -0.498277,1.69234 0.823124,3.1938 1.705521,1.93792 2.302062,5.78168 1.188657,7.65936 -0.471021,0.79433 -0.531703,0.58397 -0.213904,-0.73993 0.247014,-1.02901 -0.58471,-0.0569 -1.873692,2.19086 -1.274418,2.22239 -2.940233,4.22019 -3.702706,4.43954 -0.762474,0.21934 -1.454318,0.78021 -1.53659,1.24717 -0.08599,0.48826 0.397534,0.69745 1.135858,0.49136 0.706411,-0.19719 1.519056,0.0483 1.807354,0.54626 0.619628,1.07021 6.834035,-5.46146 6.429307,-6.75757 -0.138382,-0.44314 -1.065158,0.41576 -2.060519,1.90907 -0.995353,1.49331 -1.9972,2.39185 -2.225685,1.99721 -0.228486,-0.39465 0.03038,-1.11264 0.575374,-1.59546 0.544995,-0.48283 0.831818,-1.31979 0.637651,-1.85992 -0.218899,-0.60892 0.117138,-0.93895 0.884047,-0.87 0.858198,0.0772 1.360786,-0.56827 1.642187,-2.10848 l 0.406148,-2.21976 0.518514,2.78627 c 0.285082,1.53301 0.32993,3.11203 0.100183,3.50884 -0.22974,0.39681 -0.07954,1.30782 0.33304,2.02322 0.690261,1.19689 0.739319,1.18251 0.617344,-0.17919 -0.07291,-0.81391 0.111652,-2.74427 0.410208,-4.28924 0.520472,-2.69333 0.595803,-2.75768 1.845261,-1.55065 1.252404,1.20989 1.303732,1.15539 1.303732,-1.39748 0,-1.46092 0.313938,-3.53683 0.697219,-4.61295 0.475132,-1.33408 0.46389,-2.34941 -0.03385,-3.19236 -0.591963,-1.00253 -0.644295,-0.90351 -0.27618,0.5217 0.305454,1.1826 0.206434,1.593 -0.30461,1.25584 -0.456306,-0.30103 -0.612643,-0.0913 -0.391255,0.52461 0.218518,0.60787 -0.07907,1.02461 -0.731065,1.02461 -0.727337,0 -0.949622,-0.39695 -0.656604,-1.17203 0.243597,-0.64434 0.597917,-1.67003 0.787925,-2.28046 0.307083,-0.98656 0.262736,-0.98656 -0.402086,0 -0.664828,0.98657 -0.748664,0.98657 -0.748664,0 0,-0.61044 0.303287,-1.60933 0.67285,-2.21976 0.597273,-0.98656 0.674304,-0.98656 0.693158,0 0.01704,0.89073 0.13615,0.9149 0.606513,0.12283 0.737609,-1.24209 1.644831,0.66435 1.877753,3.94675 0.232728,3.27973 0.407233,3.27973 0.967983,0 0.27831,-1.62784 0.760264,-3.59702 1.070875,-4.37595 0.399577,-1.00207 0.327263,-1.26056 -0.245043,-0.883 -0.601418,0.39678 -0.631612,0.0365 -0.117782,-1.40614 1.043084,-2.928611 0.776736,-4.035362 -0.32221,-1.338223 -0.527895,1.295553 -0.788638,3.126863 -0.579436,4.069583 0.371331,1.67331 0.354978,1.67851 -0.680974,0.24711 -0.941363,-1.30075 -0.945079,-1.70431 -0.0352,-3.582554 0.564105,-1.164445 0.861245,-2.293239 0.660666,-2.507347 -0.35227,-0.37604 1.225028,-2.432206 1.865568,-2.432206 0.663698,0 0.923421,3.612466 0.33981,4.725676 -0.393242,0.750091 -0.251989,1.901291 0.395316,3.215481 l 1.008598,2.04779 0.464362,-2.21976 c 0.655346,-3.134545 2.505988,-6.84207 4.333588,-8.679637 1.790662,-1.800434 1.955138,-0.940241 0.591621,3.088307 -0.860895,2.543538 -0.857781,2.550061 1.958982,4.06957 2.358247,1.27221 2.820772,1.88601 2.817307,3.74152 -0.0034,1.69002 -0.321375,2.21978 -1.329455,2.21978 -0.728238,0 -1.478831,-0.49946 -1.66791,-1.10989 -0.305579,-0.98656 -0.195569,-0.98656 0.982875,0 1.237661,1.03613 1.259379,1.02013 0.330333,-0.24134 -0.864776,-1.17423 -0.864776,-1.44823 0,-2.09115 0.855495,-0.63609 0.855405,-0.70056 0.0041,-0.45523 -1.737337,0.50065 -2.49918,2.52756 -1.455361,3.87014 1.427835,1.83651 3.695519,1.08238 4.87241,-1.62147 0.789521,-1.81387 1.488062,-2.39261 2.901244,-2.40475 2.835929,-0.0244 5.24045,-1.2407 6.181557,-3.125881 0.722332,-1.446941 0.701619,-1.57158 -0.135383,-0.835302 -1.376728,1.211053 -8.912271,1.372183 -11.171749,0.23845 -1.733483,-0.869809 -1.799687,-1.060495 -0.866447,-2.482782 0.555753,-0.846974 1.011306,-2.316648 1.011306,-3.267507 0,-1.118389 0.282418,-1.542464 0.800109,-1.20093 0.440128,0.290375 0.621047,0.21778 0.402086,-0.160412 -0.225325,-0.38918 1.006187,-0.659609 2.837613,-0.622864 2.453903,0.04923 3.29094,0.367006 3.461727,1.313651 0.287937,1.596021 0.523273,1.572131 2.994657,-0.306374 2.596983,-1.973979 7.525903,-2.812621 7.525903,-1.280412 0,1.564188 -1.402153,2.782844 -2.625063,2.281908 -0.670554,-0.274677 -0.892647,-0.13483 -0.597036,0.375742 0.503711,0.870013 3.082411,0.812913 4.463555,-0.09827 0.460423,-0.303753 0.801011,-1.281885 0.756788,-2.173522 -0.07436,-1.499258 -0.104531,-1.508752 -0.412916,-0.14018 -0.183396,0.813914 -0.637385,1.81281 -1.008599,2.219766 -0.439607,0.481943 -0.51136,0.03177 -0.205781,-1.289082 0.337069,-1.456989 0.178375,-2.146675 -0.564544,-2.450992 -1.64356,-0.673244 -5.57993,-0.66686 -6.991144,0.01156 -1.198719,0.576264 -1.257324,0.350594 -0.809586,-3.124438 0.305724,-2.372889 0.192507,-4.327409 -0.310025,-5.329751 -0.623558,-1.243731 -0.547984,-2.270488 0.354701,-4.793597 0.631785,-1.765921 1.000052,-3.830466 0.81771,-4.586939 -0.222989,-0.925108 -0.384905,-0.647612 -0.494146,0.845418 l -0.162459,2.219767 -0.586205,-2.219767 c -0.473968,-1.794285 -0.523938,-1.581546 -0.255873,1.109883 0.182398,1.831308 0.09013,2.938848 -0.205781,2.46111 -0.364691,-0.588778 -0.79307,-0.291422 -1.330808,0.924901 -0.436322,0.986937 -0.510762,1.608125 -0.165167,1.380128 0.345587,-0.227994 0.628174,-0.04035 0.628174,0.417652 0,1.229643 -3.646665,0.558831 -4.045224,-0.744257 -0.301752,-0.986563 -0.191507,-0.986563 0.986937,0 1.178444,0.986562 1.236695,0.986562 0.526638,0 -1.071947,-1.489389 -1.283786,-3.745965 -0.521223,-5.549417 0.344161,-0.813914 0.602963,-3.391218 0.575376,-5.72717 -0.02761,-2.335953 0.0674,-4.121907 0.211196,-3.968411 0.143795,0.153496 0.85307,1.898388 1.577204,3.877366 0.724128,1.978977 1.325443,3.099001 1.33487,2.488565 0.0095,-0.610435 -0.606489,-2.575667 -1.367361,-4.365829 -0.760879,-1.790162 -1.246855,-3.399034 -1.080352,-3.576772 0.410239,-0.437916 1.840467,2.488827 2.977058,6.092797 0.926585,2.93807 0.930684,2.940773 0.560483,0.36996 -0.205105,-1.42435 -1.245436,-4.094634 -2.312331,-5.933828 -1.921994,-3.313281 -1.928177,-3.364245 -0.685034,-5.549416 0.690066,-1.212985 1.255622,-2.736911 1.257702,-3.386011 0.002,-0.649103 0.620647,-1.775122 1.37413,-2.503019 1.421008,-1.372757 1.290761,-2.605624 -0.274825,-2.605624 -0.496156,0 -2.002539,0.797125 -3.348006,1.771767 l -2.446359,1.771767 -1.447236,-2.089702 c -0.79612,-1.149453 -3.289323,-3.137414 -5.539846,-4.417857 -2.250516,-1.280441 -4.420187,-3.051865 -4.820964,-3.936616 -0.567253,-1.252265 -0.739211,-1.33241 -0.775741,-0.3584 -0.0258,0.688158 0.270504,1.461235 0.657958,1.716851 0.387454,0.255616 0.528019,0.770391 0.31138,1.144567 -0.217839,0.376248 0.136874,0.46311 0.794694,0.193651 0.893744,-0.3661 1.04806,-0.225839 0.618697,0.563612 -0.314243,0.577858 -0.327959,0.815886 -0.02979,0.52893 0.866919,-0.834308 6.974064,2.830493 8.290814,4.975687 1.145214,1.865688 1.142538,2.005852 -0.06498,2.982811 -0.696713,0.563679 -1.501119,1.0348 -1.787046,1.047742 -0.285928,0.01294 -0.519869,0.714129 -0.519869,1.557883 0,1.931727 -1.958265,1.665761 -3.044748,-0.413316 -0.422098,-0.807722 -1.335258,-1.924228 -2.028027,-2.481341 -0.692776,-0.557112 -1.113682,-1.417713 -0.935492,-1.913392 0.178183,-0.495679 -0.288545,-1.310911 -1.038382,-1.810787 -0.749837,-0.499874 -1.227672,-1.308021 -1.061398,-1.796334 0.166282,-0.488312 -0.16678,-1.462893 -0.740541,-2.166295 C 58.879675,12.574139 58.787465,8.44765 60.41093,6.714653 61.249703,5.819292 61.50235,5.314359 61.319345,5.25215 Z m 2.94592,0.682115 c -0.332949,-0.04223 -0.8427,0.08322 -1.586682,0.335277 -0.857782,0.290616 -1.550872,1.088459 -1.539297,1.773212 0.01923,1.13566 0.08388,1.132009 0.728358,-0.04914 0.97724,-1.791017 2.267633,-1.629855 1.812769,0.226891 -0.273049,1.114582 -0.07761,1.461778 0.728357,1.294864 0.605681,-0.125436 1.227688,-0.726338 1.383607,-1.336774 0.252005,-0.986562 0.197829,-0.986562 -0.492792,0 -0.649676,0.928077 -0.74351,0.855061 -0.572666,-0.442219 0.15742,-1.19536 0.09326,-1.73174 -0.461654,-1.802115 z m 14.951624,12.698625 c 0.426038,0.03322 0.315218,0.679193 -0.304611,1.939405 -0.550443,1.119133 -1.407662,3.033681 -1.904829,4.254553 -0.830306,2.038926 -0.92511,2.086652 -1.16158,0.592515 -0.141592,-0.894662 0.125176,-2.389364 0.592974,-3.322423 0.643888,-1.28428 0.300152,-1.110901 -1.412038,0.716799 -2.352202,2.510896 -2.459858,4.594027 -0.239626,4.614398 1.05075,0.0096 1.079731,0.117996 0.19495,0.728361 -1.653894,1.140937 -3.357653,0.857786 -4.131868,-0.686452 -0.90979,-1.814649 -0.249131,-3.670326 1.627295,-4.569598 0.805789,-0.386171 2.525096,-1.524917 3.82049,-2.53192 1.52983,-1.189245 2.492805,-1.768863 2.918843,-1.735638 z m -4.927917,5.823996 c 0.381236,0 0.693157,0.499448 0.693157,1.109883 0,0.610436 -0.311921,1.109884 -0.693157,1.109884 -0.381237,0 -0.693158,-0.499448 -0.693158,-1.109884 0,-0.610435 0.311921,-1.109883 0.693158,-1.109883 z m -34.054071,1.160464 c 0.459439,0.01479 0.782259,0.446476 0.777095,1.287639 -0.003,0.484679 -0.782776,1.266674 -1.732894,1.737082 -1.998144,0.989291 -2.166448,0.512118 -0.640358,-1.813676 0.540628,-0.823926 1.136719,-1.225833 1.596157,-1.211045 z m 34.649753,3.533418 c 0.811438,-0.01337 1.48379,0.43493 1.48379,1.127226 0,0.305158 -0.406045,1.146535 -0.901646,1.870036 -0.841396,1.228306 -0.952899,1.192923 -1.690925,-0.536154 -0.646342,-1.514276 -0.596771,-1.93088 0.270765,-2.286244 0.28151,-0.115313 0.567537,-0.17041 0.838016,-0.174864 z m -0.165166,0.773161 c -0.252616,0.0091 -0.430516,0.301656 -0.430516,0.777495 0,1.299694 0.415757,1.491647 1.009952,0.465342 0.219343,-0.378836 0.08149,-0.897621 -0.305964,-1.153237 -0.09686,-0.06391 -0.189267,-0.09262 -0.273472,-0.0896 z m -36.886269,4.838397 c 0.24015,-0.04216 0.411562,0.123392 0.411562,0.589626 0,0.363088 -0.47698,1.306971 -1.060044,2.096928 -1.026608,1.390892 -1.053994,1.379709 -0.866447,-0.35551 0.122864,-1.136734 0.986597,-2.238275 1.514929,-2.331044 z m 28.691577,5.377443 c 1.878772,0.132259 6.812629,3.550105 5.83904,4.19241 -0.492232,0.324741 -0.428947,0.921663 0.19495,1.832463 0.895171,1.306832 0.934525,1.305561 1.219794,-0.0058 0.162144,-0.745309 0.266402,-0.371657 0.23015,0.829523 -0.04897,1.623071 0.378712,2.427239 1.666557,3.133108 1.613151,0.884166 1.631413,0.950879 0.25858,0.961031 -1.538941,0.01138 -2.512143,-0.931054 -3.254591,-3.151896 -0.33625,-1.005826 -0.875085,-1.195785 -2.3015,-0.813624 -1.573405,0.421542 -1.790359,0.299252 -1.401206,-0.783277 0.2533,-0.704632 0.460299,-1.419482 0.460299,-1.589677 0,-0.170195 0.485996,-0.309264 1.080351,-0.309264 0.644533,0 0.879135,-0.346914 0.582144,-0.859871 -0.574405,-0.99212 -3.04881,1.85445 -3.04881,3.507405 0,0.589065 -0.430125,0.829222 -1.039736,0.579509 -2.281937,-0.934739 -0.66031,-4.687183 2.044273,-4.73001 1.334072,-0.02112 1.344023,-0.07038 0.158398,-0.8064 -1.634195,-1.014476 -3.769123,0.91403 -4.069593,3.675043 -0.242598,2.229235 -2.638602,3.275122 -2.638602,1.151793 0,-0.70997 0.545862,-1.957644 1.213026,-2.771818 0.740091,-0.903167 0.829299,-1.238693 0.228796,-0.861314 -0.71161,0.447196 -0.874164,0.311133 -0.586206,-0.489911 0.233463,-0.649443 0.0086,-1.108437 -0.544236,-1.108437 -0.518718,0 -0.782557,0.277952 -0.586206,0.617084 0.196344,0.33913 -0.324508,0.617083 -1.156165,0.617083 -1.265491,0 -1.370662,-0.181008 -0.648482,-1.109883 1.05046,-1.351116 2.87922,-1.434222 4.069593,-0.184982 0.706397,0.741332 0.836537,0.712751 0.657959,-0.141625 -0.122544,-0.586266 0.345989,-1.197239 1.039736,-1.358451 0.09544,-0.02217 0.206435,-0.02904 0.331687,-0.02023 z m -28.604933,1.699508 c 0.144761,-0.01774 0.548489,0.466243 1.326747,1.505856 0.905334,1.209367 1.881846,1.949812 2.170179,1.644593 0.288333,-0.305217 0.160469,-0.554941 -0.284303,-0.554941 -1.401148,0 -0.876772,-1.50043 0.751372,-2.150399 1.191545,-0.475676 1.667593,-0.31996 2.019905,0.658993 0.253619,0.70474 1.383524,1.477804 2.509988,1.718297 1.899224,0.405471 3.369143,2.747808 2.384083,3.799326 -0.212696,0.227044 -0.958141,0.413316 -1.65708,0.413316 -1.453884,0 -1.783851,-2.615699 -0.404794,-3.209702 0.678276,-0.29215 0.672729,-0.386375 -0.02301,-0.432103 -0.488836,-0.03213 -1.137131,0.661323 -1.441822,1.540541 -0.49497,1.428297 -0.603361,1.460888 -1.019429,0.303484 -0.256115,-0.712464 -0.29152,-1.599521 -0.07717,-1.969753 0.514857,-0.889251 0.04198,-0.848261 -2.06458,0.17631 -2.031881,0.988243 -3.469756,0.107905 -4.112915,-2.517471 -0.145909,-0.595605 -0.18976,-0.912551 -0.07717,-0.926347 z m 23.913935,1.909057 c 0.607215,0.02088 0.685264,0.319374 0.422392,1.050632 -0.244282,0.67953 -0.444054,1.542609 -0.444054,1.916282 0,0.373673 -0.646065,0.679225 -1.435052,0.679225 -2.147658,0 -1.543587,-3.246192 0.666081,-3.579662 0.326941,-0.04934 0.588228,-0.07344 0.790633,-0.06647 z m -7.467689,1.426373 c 0.327489,0 0.403492,0.332964 0.167874,0.739922 -0.235619,0.406958 -0.06052,0.739923 0.389901,0.739923 0.61029,0 0.599713,0.282797 -0.04332,1.109883 -1.060607,1.36417 -2.77263,1.454969 -2.77263,0.147406 0,-1.088741 1.359804,-2.737134 2.258178,-2.737134 z m 16.994543,2.219766 c 0.377563,0 0.841187,0.63075 1.03026,1.401806 0.237233,0.968384 -0.166089,1.649896 -1.305086,2.20387 -0.906899,0.441089 -1.624887,1.391925 -1.594804,2.112825 0.04321,1.035081 0.138272,1.077351 0.450823,0.200876 0.641234,-1.798156 1.884094,-2.265621 2.392206,-0.898889 0.439732,1.182828 0.474397,1.182095 0.519868,-0.02601 0.05173,-1.374872 0.647113,-1.618116 1.781632,-0.728361 0.889785,0.697957 0.885442,3.038029 -0.0068,3.718397 -0.377903,0.288175 -0.786092,1.190524 -0.907062,2.004438 -0.203185,1.367073 -0.134202,1.352976 0.905708,-0.184981 1.133583,-1.676482 2.942603,-2.402078 2.021258,-0.810734 -0.306432,0.529265 -0.189851,0.653709 0.305963,0.326606 0.4483,-0.295756 0.804702,-0.103256 0.810941,0.439328 0.0077,0.703806 0.194073,0.666309 0.682327,-0.140181 0.369564,-0.610435 0.633654,-1.942295 0.587559,-2.959688 -0.07857,-1.734663 -0.10144,-1.746178 -0.383132,-0.18498 -0.33309,1.846038 -0.923728,2.08058 -2.091657,0.833857 -0.966941,-1.032179 -0.37631,-2.868644 0.921954,-2.868644 0.531062,0 0.970561,-0.416206 0.976106,-0.924902 0.02245,-1.955354 1.354326,1.349349 1.364654,3.386011 0.01123,2.213657 -3.27339,6.441985 -4.961762,6.38761 -0.505867,-0.01629 -0.06146,-0.525867 0.986937,-1.133007 2.263416,-1.310765 2.327689,-1.479844 0.56996,-1.479844 -0.734484,0 -1.222386,0.195249 -1.084413,0.433548 0.137966,0.238299 -0.333694,0.82365 -1.049213,1.300645 -1.085997,0.723975 -1.372269,0.631077 -1.727479,-0.563613 -0.234037,-0.787127 -0.09472,-2.090069 0.308672,-2.894656 0.459307,-0.916132 0.485697,-1.626401 0.0704,-1.900387 -0.80538,-0.531333 -4.210245,0.275191 -5.405817,1.280413 -0.636929,0.53552 -0.866447,0.300655 -0.866447,-0.885884 0,-1.03167 0.288622,-1.42276 0.800109,-1.085316 0.472997,0.312051 0.613217,0.204538 0.342518,-0.263018 -0.2519,-0.435077 -0.06601,-0.960137 0.412916,-1.166244 0.478923,-0.20611 -0.12512,-0.401422 -1.341639,-0.43355 -2.45594,-0.06486 -3.202906,-0.815445 -2.568203,-2.581056 0.559379,-1.556053 2.314878,-1.496353 3.492865,0.118504 0.899587,1.233203 0.923551,1.233203 0.521222,0 -0.288097,-0.883099 -0.06787,-1.294864 0.691803,-1.294864 0.612647,0 1.114196,0.332965 1.114196,0.739921 0,0.406958 0.302224,0.739923 0.671497,0.739923 0.369266,0 0.491558,-0.499447 0.272119,-1.109883 -0.219447,-0.610436 -0.09055,-1.109884 0.28701,-1.109884 z m -14.385726,0.09104 c 0.08339,0.002 0.161028,0.01173 0.232858,0.0289 1.424868,0.340724 -0.113512,2.603614 -2.010428,2.956798 -0.745879,0.138876 -1.668452,0.995379 -2.049688,1.903277 -0.490701,1.168582 -0.97626,1.46101 -1.661141,1.00005 -1.198927,-0.806939 -0.532652,-2.892217 1.125027,-3.52041 0.675808,-0.256106 1.752052,-0.943285 2.390852,-1.527535 0.558943,-0.511218 1.388792,-0.855172 1.97252,-0.841083 z m -6.360262,0.09538 c 0.296098,0.0061 0.597682,0.202403 0.84614,0.631535 0.376482,0.650265 0.10509,1.550787 -0.762203,2.536257 -1.265768,1.438252 -1.274558,1.602033 -0.165166,2.786269 0.648241,0.691976 0.86187,1.258734 0.475192,1.258734 -1.005342,0 -2.366483,-1.600411 -2.366483,-2.781933 0,-0.553062 -0.308165,-0.802129 -0.685035,-0.553497 -0.400471,0.264208 -0.504756,-0.05131 -0.250457,-0.758709 0.348229,-0.968688 0.551723,-1.012439 1.020783,-0.222555 0.423054,0.712406 0.589411,0.535776 0.597036,-0.634425 0.009,-1.368043 0.638778,-2.275033 1.290193,-2.261676 z m 9.620269,0.54049 c 0.50582,0.0152 0.884046,0.205136 0.884046,0.611303 0,1.125319 -2.034175,3.543906 -2.057811,2.446657 -0.01271,-0.590542 -0.630119,-0.198674 -1.458068,0.924903 -0.790144,1.072274 -2.064275,1.949521 -2.830845,1.949521 -1.790107,0 -1.32543,-1.580511 0.80011,-2.721237 0.892156,-0.478801 1.896751,-1.394455 2.232455,-2.034786 0.389775,-0.743485 1.587079,-1.201686 2.430113,-1.176361 z M 42.803068,48.69233 c -0.18505,-0.0011 -0.328267,0.05892 -0.402085,0.186425 -0.196857,0.340003 -1.237675,0.853396 -2.313685,1.141678 -2.01532,0.539939 -10.160443,8.052808 -10.160443,9.371865 0,0.407136 1.397961,-0.918988 3.107024,-2.948126 3.328016,-3.951283 7.170104,-6.336429 10.210536,-6.337029 1.672894,-3.3e-4 1.749632,-0.101996 0.697218,-0.923459 -0.406697,-0.317449 -0.830149,-0.489471 -1.138565,-0.491354 z m 20.246427,0.193652 c 1.029513,0.0098 1.049464,0.114995 0.14892,0.794839 -0.782443,0.590685 -0.825328,0.878042 -0.173289,1.160463 0.476546,0.20641 0.866447,0.680478 0.866447,1.053522 0,0.373044 -0.779802,0.679226 -1.732894,0.679226 -0.953091,0 -1.732894,-0.188865 -1.732894,-0.419097 0,-1.284982 1.600416,-3.278705 2.62371,-3.268953 z m 29.210091,2.740024 c -1.276695,0.02214 -2.700982,0.6688 -3.552432,1.849805 -1.342674,1.86236 -1.635069,3.140378 -0.555068,2.42787 0.394365,-0.260173 0.723215,0.437517 0.763557,1.620024 0.06982,2.045327 0.07988,2.041107 0.605159,-0.320825 0.988844,-4.446357 3.899499,-6.516119 3.329051,-2.367173 l -0.310025,2.263122 1.435052,-1.533315 c 1.147363,-1.224774 1.279439,-1.790079 0.655251,-2.816619 -0.473747,-0.779126 -1.37756,-1.140111 -2.370545,-1.122889 z m 1.153457,0.517368 c 0.07531,-0.03526 0.207843,0.05278 0.400732,0.258683 0.402801,0.42997 0.595853,1.21917 0.429162,1.75298 -0.173046,0.554162 -0.487311,0.218693 -0.732418,-0.781832 -0.188439,-0.769216 -0.222983,-1.171075 -0.09748,-1.229831 z m -3.108378,0.401755 c 0.0702,-0.0152 0.131019,-3.24e-4 0.178705,0.05058 0.180173,0.192332 -0.114567,0.995456 -0.65525,1.784773 -0.540684,0.789318 -0.977591,1.122922 -0.972045,0.739922 0.01364,-0.894917 0.95722,-2.46889 1.44859,-2.575275 z m -31.179904,0.0289 c 1.797344,0 1.634204,1.38451 -0.25858,2.196645 -0.857782,0.368047 -1.169703,0.68956 -0.693157,0.715354 0.476545,0.02579 0.866446,0.543025 0.866446,1.148903 0,0.704164 -0.588993,1.050229 -1.631356,0.95814 -1.266863,-0.111924 -1.553761,-0.482545 -1.286132,-1.657599 0.504729,-2.216083 1.52905,-3.361443 3.002779,-3.361443 z m 7.027697,0.01014 c 0.64102,-0.0088 0.468119,0.330864 -0.28701,1.544877 -1.503355,2.416934 -2.836769,2.710711 -2.551957,0.562167 0.158795,-1.197867 0.761612,-1.827204 1.918367,-2.001547 0.40316,-0.06076 0.706927,-0.102573 0.9206,-0.105497 z m -4.280789,0.729805 c 0.261722,0 0.613294,0.998896 0.781156,2.219767 0.254132,1.848354 0.06418,2.226959 -1.134504,2.266012 -1.423212,0.04637 -1.423064,0.05399 0.04874,0.687897 0.818771,0.352643 1.696022,0.998124 1.948152,1.433599 0.252129,0.435476 0.145671,0.791948 -0.235566,0.791948 -0.381236,0 -0.885348,-0.332965 -1.120966,-0.739923 -0.235618,-0.406957 -1.423436,-0.750666 -2.639955,-0.763045 -1.838136,-0.0187 -2.007195,-0.14929 -0.999122,-0.776051 0.667164,-0.414803 1.213026,-1.336936 1.213026,-2.049237 0,-1.292826 1.238359,-3.070967 2.139041,-3.070967 z M 49.073977,54.40218 c 0.295749,-0.01175 0.549337,0.240022 0.943615,0.747149 0.736293,0.947037 0.589144,1.377192 -0.89623,2.624411 -0.977304,0.820613 -1.800596,2.067301 -1.829016,2.770373 -0.02843,0.703073 -0.07492,1.944897 -0.104244,2.758811 -0.02929,0.813914 0.116115,2.57201 0.323563,3.907714 0.250577,1.613448 0.129724,2.265467 -0.360116,1.942302 -0.480767,-0.317176 -0.574276,0.06138 -0.269411,1.08675 0.257154,0.86488 0.308888,1.57234 0.115074,1.57234 -0.522932,0 -0.883416,-0.85619 -1.399853,-3.32965 -0.3386,-1.621733 -0.274412,-1.92075 0.239627,-1.109884 0.617672,0.974337 0.70553,0.96632 0.714819,-0.06214 0.0058,-0.644349 -0.197273,-1.392726 -0.450823,-1.66338 -1.573281,-1.679424 -0.450874,-8.262225 1.774862,-10.412381 0.564383,-0.545218 0.902385,-0.820661 1.198133,-0.832412 z m 23.07998,0.371407 c 0.446279,0.04735 0.51898,0.57404 0.02572,1.557882 -0.424012,0.845715 -0.606671,1.992906 -0.406148,2.55071 0.209355,0.58238 -0.209822,1.20979 -0.985583,1.472617 -0.883492,0.299328 -1.351116,1.124511 -1.351116,2.384516 0,1.059664 -0.541549,2.564688 -1.203549,3.345546 -1.153656,1.360777 -1.118446,1.486168 0.843432,3.01172 1.658421,1.289572 2.84051,1.550992 6.228941,1.378672 3.034817,-0.15433 3.896719,-0.003 3.142224,0.55061 -0.571855,0.41958 -2.20944,0.76869 -3.639077,0.77461 -2.107247,0.01 -2.599341,0.28232 -2.599341,1.44661 0,0.78989 -0.282489,1.62318 -0.628174,1.85125 -0.345684,0.22805 -0.477011,-0.20636 -0.291071,-0.96538 0.321527,-1.31247 -1.028638,-2.86228 -4.305159,-4.942435 -1.083183,-0.687683 -1.120695,-1.091452 -0.337101,-3.699619 0.483768,-1.610227 1.498657,-3.652276 2.254115,-4.537803 0.855239,-1.002465 1.160061,-1.97717 0.809587,-2.582501 -0.40443,-0.698537 -0.675425,-0.453735 -0.965276,0.869986 -0.32697,1.493205 -0.858198,1.863989 -2.802415,1.956748 -1.613199,0.07696 -1.831452,-0.0036 -0.666081,-0.247123 2.553828,-0.533611 3.321447,-1.680947 0.846139,-1.264516 -2.735719,0.460243 -3.498973,-0.909704 -1.623233,-2.911998 l 1.470252,-1.569444 v 1.809341 1.809341 l 1.078997,-1.644593 c 1.121834,-1.70969 2.851621,-2.344327 1.96169,-0.71969 -0.27865,0.508697 0.117269,0.342214 0.879985,-0.369961 0.99648,-0.93045 1.815959,-1.362448 2.262239,-1.315096 z m -18.677346,0.02023 c 1.878041,0 2.115851,0.225146 1.91566,1.820902 -0.266048,2.120647 -1.204903,3.425875 -1.204903,1.674941 0,-0.654245 -0.311921,-1.394524 -0.693158,-1.646037 -1.274016,-0.840509 -1.986606,0.35714 -1.436406,2.414862 0.29803,1.113645 0.296349,2.6906 -0.0027,3.504515 -0.360623,0.981484 -0.566979,1.106074 -0.613282,0.36996 -0.05415,-0.86105 -0.23425,-0.807688 -0.804171,0.238452 -0.404028,0.741654 -0.563229,2.239997 -0.353348,3.32965 0.210013,1.089655 0.212105,1.561869 0.0041,1.050632 -0.208051,-0.511234 -0.6569,-0.745138 -0.997767,-0.520257 -0.665487,0.439041 0.719406,3.300753 1.597511,3.300753 0.289532,0 0.526637,-1.016267 0.526637,-2.257346 0,-4.730844 3.504922,-9.230587 6.553859,-8.413726 l 1.865569,0.500025 -2.491035,2.192308 c -4.167936,3.66735 -5.271702,6.671929 -5.347602,14.551319 -0.02662,2.7637 -0.241191,3.66964 -0.701281,2.95969 -0.473281,-0.73029 -0.538762,-0.55192 -0.228796,0.62575 h -0.0014 c 0.238841,0.90744 0.146705,2.19888 -0.204428,2.86865 -0.534036,1.01864 -0.718205,0.87609 -1.129088,-0.87143 -0.38516,-1.63812 -0.630758,-1.85885 -1.138565,-1.01884 -0.513595,0.84956 -0.624874,0.76601 -0.536115,-0.40753 0.202541,-2.67791 -0.09706,-4.16397 -0.752725,-3.73141 -0.35489,0.23414 -0.870819,0.0358 -1.146689,-0.44078 -0.290966,-0.50256 -0.203009,-0.66979 0.209843,-0.39741 0.428766,0.28287 0.894189,-0.92194 1.171057,-3.03051 0.677222,-5.157486 0.898241,-6.251319 1.705818,-8.467191 0.463209,-1.270971 0.486832,-2.169795 0.06498,-2.448101 -0.366673,-0.241904 -0.671367,0.494217 -0.676912,1.637366 -0.0079,1.54548 -0.174218,1.804355 -0.645773,1.008724 -0.388342,-0.655276 -0.371179,-1.592448 0.04332,-2.4192 0.372267,-0.742513 0.479346,-1.69067 0.238273,-2.107044 -0.499517,-0.862767 0.875464,-2.911998 1.953567,-2.911998 0.393644,0 0.214986,0.589291 -0.39667,1.310761 -0.693678,0.818213 -0.8942,1.689649 -0.532053,2.315147 0.930578,1.607289 2.075465,0.229394 1.792462,-2.157625 -0.142783,-1.20439 0.03354,-2.383188 0.392609,-2.620077 0.359062,-0.236887 0.473862,-0.741161 0.254519,-1.119998 -0.219336,-0.378837 0.56583,-0.687897 1.745078,-0.687897 z m -12.920889,1.010168 c 0.262566,0.0734 0.461653,1.00736 0.461653,2.274682 0,1.448367 -0.120705,2.634528 -0.268057,2.634528 -0.569207,0 -0.856386,-4.525637 -0.310025,-4.886087 0.03971,-0.02621 0.07892,-0.0336 0.116429,-0.02312 z m 38.188647,3.806552 c 0.227364,0.01627 0.4911,0.139223 0.774386,0.390193 0.521213,0.461754 1.272677,0.625266 1.670619,0.362736 0.397934,-0.262532 0.724294,-0.329544 0.724294,-0.148852 0,0.180692 -0.751461,0.853802 -1.669264,1.495741 -1.504838,1.05253 -1.708399,1.053345 -2.080826,0.01735 -0.452612,-1.259067 -0.101303,-2.165945 0.580791,-2.117159 z m -43.245177,0.663329 c -0.375024,0.05557 -0.815746,0.309339 -1.219795,0.783277 -0.296963,0.348332 -0.110379,0.365834 0.415624,0.04047 0.654112,-0.404627 0.855833,-0.266614 0.636296,0.436439 -0.17654,0.565343 -0.690387,1.028954 -1.141273,1.028954 -0.878195,0 -3.57608,3.95017 -3.53754,5.179455 0.01275,0.406959 0.488573,-0.175732 1.057336,-1.294863 1.47601,-2.904266 1.890031,-2.515907 0.66202,0.621419 -0.712268,1.819709 -0.832225,3.071603 -0.380425,3.972743 0.362778,0.7236 0.436321,1.57817 0.163813,1.90039 -0.272515,0.32225 -0.118111,0.35539 0.343871,0.0723 0.595471,-0.36493 0.648532,-1.0542 0.181413,-2.36572 -0.497486,-1.396758 -0.419339,-1.947133 0.316794,-2.248671 0.641684,-0.262852 0.899275,-1.266029 0.75408,-2.933682 -0.277271,-3.18457 0.08774,-3.231046 1.004536,-0.128619 l 0.710758,2.404747 -0.326271,-2.404747 c -0.179792,-1.322611 -0.05918,-2.404748 0.268056,-2.404748 0.32724,0 0.749405,-0.631148 0.9382,-1.401805 0.219064,-0.894212 -0.222454,-1.349912 -0.847493,-1.25729 z m 26.084112,0.06214 c 0.07222,0.0028 0.128011,0.02248 0.165167,0.06214 0.224452,0.239595 -0.197413,0.908463 -0.936846,1.485625 -0.739432,0.577163 -1.01587,1.049187 -0.614636,1.049187 0.404492,0 0.581649,0.824425 0.398025,1.849805 -0.182197,1.017394 -0.02197,1.849806 0.356055,1.849806 0.378028,0 0.687742,-0.858252 0.687742,-1.906167 0,-2.383568 1.251423,-3.898516 2.297438,-2.781934 0.521519,0.556704 0.419943,1.126944 -0.346579,1.945186 -0.596365,0.636597 -1.084412,1.339508 -1.084412,1.562219 0,0.22271 -0.548079,1.364829 -1.217087,2.539147 l -1.215733,2.13594 -0.119136,-3.296405 c -0.06573,-1.813146 -0.30002,-3.489497 -0.519869,-3.724178 -0.564223,-0.602291 -3.892914,2.869052 -3.46308,3.611457 0.194445,0.335849 -0.135194,1.619923 -0.732418,2.852739 -0.597225,1.232827 -1.2016,2.241447 -1.341639,2.241447 -0.73203,0 -1.035437,-2.579962 -0.384486,-3.268958 0.545869,-0.577751 0.633083,-0.387949 0.312733,0.679229 -0.438061,1.459279 -0.42854,1.459689 0.652543,0.04334 1.260625,-1.651523 1.457913,-2.959533 0.334395,-2.218314 -0.527313,0.347894 -0.517054,0.01186 0.0352,-1.08965 0.878149,-1.751542 5.653391,-5.662421 6.736625,-5.621675 z m -23.660768,0.195096 c -0.557145,0.1729 -1.217194,2.602796 -2.015844,7.396331 -0.548703,3.293357 -0.03696,3.015307 1.627296,-0.884437 1.551994,-3.636691 1.681822,-4.714137 0.758141,-6.271997 -0.11806,-0.199119 -0.241022,-0.279796 -0.369593,-0.239897 z m -8.319245,0.18209 c -0.390822,0 -3.835381,7.065783 -3.835381,7.867453 0,0.837619 0.420715,0.126185 2.354299,-3.982861 1.005376,-2.136525 1.671701,-3.884592 1.481082,-3.884592 z m -6.021806,0.465342 c -0.227146,-0.04889 -1.864075,3.221041 -3.327698,6.933877 -2.58595,6.559909 -5.68986,10.358909 -8.46139,10.358909 -2.1219197,0 -3.6240697,-2.08667 -2.9174897,-4.05223 0.48544,-1.35037 2.7791997,-1.1576 2.5099897,0.21099 -0.0953,0.48454 0.13236,0.88155 0.50633,0.88155 0.98767,0 1.69859,-3.67697 0.87998,-4.55081 -0.46451,-0.49585 -0.57747,-0.0868 -0.34116,1.23272 0.33418,1.86611 0.2699,1.92009 -1.16835,0.98128 -1.3187097,-0.8608 -1.6401297,-0.82179 -2.4138697,0.29048 -0.49102,0.70588 -1.13789,1.0388 -1.43776,0.73992 -0.66538,-0.6632 0.94081,2.79061 1.89807,4.08113 0.37733,0.5087 1.5600597,0.9249 2.6277597,0.9249 3.4969,0 7.253352,-5.47467 11.169042,-16.278291 0.437696,-1.207624 0.56543,-1.735291 0.476546,-1.754425 z m 14.507571,0.345403 c 0.09773,0.03002 0.150161,0.389873 0.144858,1.099768 -0.0058,0.78 -0.327835,1.918595 -0.714818,2.52903 -0.513845,0.810553 -0.577969,0.511224 -0.238273,-1.109883 0.356313,-1.7004 0.645355,-2.568941 0.808233,-2.518915 z m -8.014634,7.494593 c -0.04664,0.05882 0.04185,0.455434 0.239626,1.22116 0.285997,1.10728 0.193672,1.58553 -0.249103,1.29343 -0.427741,-0.2822 -0.568307,0.18847 -0.360117,1.20237 0.225852,1.09988 0.131646,1.35415 -0.27618,0.74714 -0.436426,-0.64955 -1.048608,0.028 -2.087595,2.31082 -1.00842,2.21567 -1.246143,3.47061 -0.756787,3.99298 0.489348,0.52236 0.462005,1.19041 -0.08529,2.12727 -0.720385,1.23317 -0.755824,1.20505 -0.370948,-0.2977 0.625977,-2.44411 -0.551847,-2.02796 -2.094365,0.73992 -1.604847,2.87972 -1.917709,4.44364 -0.809586,4.04934 0.445978,-0.15869 0.849965,-0.67702 0.897585,-1.1518 0.04765,-0.47477 0.125669,-1.19571 0.173289,-1.60267 0.04765,-0.40696 0.41668,-0.73992 0.820417,-0.73992 0.403737,0 0.506092,0.4162 0.227442,0.9249 -0.278649,0.50869 0.17111,0.28968 0.999122,-0.48558 0.828004,-0.77524 1.505451,-1.08881 1.505451,-0.69656 0,0.87471 -2.026966,3.82277 -2.057811,2.99292 -0.01212,-0.32619 -0.801464,0.30547 -1.754555,1.40326 -1.518972,1.74957 -1.73903,1.82224 -1.77757,0.59252 -0.03872,-1.23647 -0.115284,-1.21132 -0.651191,0.2081 -0.862614,2.2847 -5.092939,1.99698 -5.417999,-0.36852 -0.12182,-0.88653 0.13023,-1.61135 0.56048,-1.61135 0.43027,0 0.60383,0.30905 0.38449,0.68788 -0.21934,0.37884 -0.009,0.94612 0.46707,1.26019 1.65445,1.09149 3.058205,0.73327 3.812367,-0.97259 0.860716,-1.94691 0.113491,-2.26143 -1.437761,-0.60552 -1.485097,1.58528 -2.459106,1.3698 -2.014486,-0.44511 0.30058,-1.227 0.10427,-1.49853 -0.93143,-1.28765 -1.55491,0.3166 -2.12443,3.20193 -0.93415,4.7329 1.0598,1.36314 4.848116,1.38119 6.57688,0.0318 1.174722,-0.91694 1.443777,-0.86019 2.325868,0.48413 0.94885,1.44607 1.044188,1.34297 1.958983,-2.10849 1.346278,-5.07943 1.466704,-6.34396 0.790632,-8.29811 -0.408089,-1.17955 -0.255244,-2.32898 0.491438,-3.69961 0.968799,-1.77836 0.864501,-0.85758 -0.228796,2.01745 -0.277866,0.73069 -0.11791,0.86145 0.530699,0.43355 0.678705,-0.44777 0.80947,-0.28126 0.486022,0.61852 -0.74129,2.06209 -0.01289,1.38036 1.552836,-1.45238 0.815625,-1.47565 1.339204,-2.83656 1.162934,-3.02472 -0.176277,-0.18818 -0.801244,0.6022 -1.387669,1.75731 -1.395201,2.74813 -1.40646,1.78178 -0.02301,-1.90905 0.844259,-2.25238 0.915954,-3.23845 0.312734,-4.26901 -0.341803,-0.583952 -0.523325,-0.862369 -0.56996,-0.803509 z m 4.244236,0.115617 c -0.06245,-0.0021 -0.14275,0.02765 -0.240981,0.09244 -0.376869,0.248634 -0.685035,0.765963 -0.685035,1.148903 0,1.06433 0.49635,0.82953 0.957154,-0.45232 0.177529,-0.493871 0.156212,-0.78403 -0.03114,-0.789058 z m -8.868897,0.458114 c -0.185135,0 -1.004643,1.656829 -1.820892,3.682269 -1.922189,4.76972 -6.579802,9.39007 -10.102232,10.02075 -1.46385,0.2621 -2.97353,0.61769 -3.35477,0.7905 -0.3812297,0.17279 0.68436,0.16924 2.36784,-0.007 3.56407,-0.37359 8.070418,-3.44704 9.86666,-6.73012 1.550198,-2.83339 3.481713,-7.756174 3.043394,-7.756174 z m -15.080234,0.0075 c -1.0798497,-0.01783 -5.3942597,4.659849 -5.3530197,5.803779 0.0322,0.89454 0.20186,0.80238 0.6363,-0.3454 0.32539,-0.85969 1.63054,-2.43711 2.90124,-3.50596 1.2707,-1.06884 2.0881397,-1.947903 1.8154797,-1.952419 z m 24.814224,1.502979 c -0.294036,0.0223 -0.606417,0.43159 -0.89217,1.26452 -0.244331,0.71217 -1.592572,3.15691 -2.994657,5.43379 -2.114615,3.43398 -2.405746,4.34858 -1.709879,5.36444 1.182548,1.72635 1.91608,1.52933 0.882693,-0.237 -0.688943,-1.17761 -0.670303,-1.64456 0.09612,-2.40475 0.786138,-0.77974 0.874618,-0.71185 0.510392,0.39021 -0.270138,0.81732 -0.166491,1.15233 0.268057,0.86564 0.437583,-0.28869 0.588915,0.23901 0.395317,1.37869 -0.172486,1.01538 -0.130978,2.04093 0.09206,2.27901 0.751258,0.80196 0.823265,0.44576 0.724296,-3.56954 -0.06256,-2.53847 0.298073,-4.64691 0.984229,-5.76476 0.595055,-0.96944 1.252789,-2.41564 1.462129,-3.21259 0.300796,-1.14501 0.373303,-1.05996 0.347933,0.40175 -0.05106,2.93973 0.0842,3.69962 0.659312,3.69962 0.29602,0 0.42025,-1.33186 0.274826,-2.95969 -0.172431,-1.93011 -0.610598,-2.96646 -1.100658,-2.92934 z m 15.770687,1.7313 c -0.06245,-0.002 -0.142749,0.0277 -0.24098,0.0926 -0.37687,0.24862 -0.685035,0.76596 -0.685035,1.1489 0,1.06432 0.496349,0.82952 0.957153,-0.45234 0.17753,-0.49383 0.156212,-0.78401 -0.03114,-0.78906 z m -7.378337,2.32959 c -0.172971,-0.0453 -0.412446,0.52885 -0.921953,1.82236 -1.231443,3.12634 -1.16338,3.81061 0.14892,1.48561 l 1.045152,-1.8498 -0.499561,1.8498 c -0.4942,1.83304 -0.591037,4.51956 -0.239626,6.65931 0.10025,0.61044 0.412567,-0.72143 0.693157,-2.95969 0.28059,-2.23827 0.349631,-4.86015 0.152982,-5.82544 -0.150194,-0.73729 -0.244538,-1.14695 -0.379071,-1.18217 z m 7.710023,0.50148 c -0.03171,-0.0557 -0.191473,0.14562 -0.48873,0.58673 -0.664828,0.98656 -0.75166,0.98656 -0.779802,0 -0.02421,-0.84791 -0.204709,-0.79235 -0.766263,0.23846 -0.528041,0.96928 -0.499351,1.95912 0.104244,3.51462 1.038578,2.67653 1.173921,2.69286 1.141273,0.13152 -0.01426,-1.11914 0.216183,-2.70073 0.511745,-3.51464 0.213579,-0.58815 0.309249,-0.90096 0.277533,-0.95669 z m -46.2005667,2.6114 c -0.0515,0.0245 -0.0816,0.11604 -0.0853,0.28036 -0.0149,0.6573 0.61918,2.0724 1.40933,3.14467 0.79014,1.07227 1.80388,1.93876 2.25276,1.92641 0.44887,-0.0124 0.2427,-0.37823 -0.45894,-0.81364 -0.70165,-0.4354 -1.70324,-1.8412 -2.22569,-3.12299 -0.39184,-0.96134 -0.73774,-1.48832 -0.89217,-1.41481 z m 48.0891507,1.22406 c 0.170844,-0.044 0.200897,0.495 0.169228,1.74575 -0.06586,2.60134 -0.36645,3.01675 -0.969337,1.33966 -0.210554,-0.58571 -0.06504,-1.66784 0.323564,-2.40473 0.220501,-0.41812 0.374039,-0.6543 0.476545,-0.68068 z m -16.737317,7.11019 c 0.149833,0 0.452049,0.49944 0.671497,1.10987 0.219439,0.61044 0.09715,1.10989 -0.272119,1.10989 -0.369273,0 -0.671497,-0.49945 -0.671497,-1.10989 0,-0.61042 0.122286,-1.10987 0.272119,-1.10987 z m -10.615328,0.3584 c 0.251741,-0.0497 0.320798,0.40732 0.146213,1.11999 -0.423249,1.72773 -0.893524,1.94623 -0.893524,0.41477 0,-0.58641 0.28249,-1.25323 0.628174,-1.48128 0.04321,-0.0285 0.08317,-0.0464 0.119137,-0.0535 z m 4.616537,0.3555 c -0.114694,0.0161 -0.28463,0.0695 -0.511745,0.14885 -1.552015,0.54226 -1.735027,3.69421 -0.280242,4.82973 1.555121,1.21385 1.577928,1.21099 1.383608,-0.20232 -0.0884,-0.64298 -0.586915,-1.45005 -1.107427,-1.79345 -0.794997,-0.52448 -0.787252,-0.83111 0.04873,-1.91194 0.652139,-0.84312 0.811151,-1.11928 0.46707,-1.07087 z m 8.164909,3.2256 c -0.08244,-0.016 -0.182936,0.014 -0.301903,0.0926 -0.989267,0.65264 -0.952906,2.11446 0.08123,3.21837 0.457484,0.48834 1.602094,0.88877 2.54248,0.88877 0.940379,0 1.484795,-0.24027 1.210319,-0.53326 -0.274477,-0.293 -1.183793,-0.54274 -2.021259,-0.55495 -1.198469,-0.0175 -1.473697,-0.39339 -1.292901,-1.76742 0.10937,-0.83122 0.02934,-1.29601 -0.217965,-1.34401 z m 5.698242,0.0202 c 0.109873,0.004 0.17266,0.0706 0.170581,0.20376 -0.02093,1.27281 -1.197711,2.65971 -1.627295,1.91774 -0.234073,-0.40429 0.03886,-1.14603 0.606512,-1.64894 0.354785,-0.3143 0.667079,-0.47961 0.850202,-0.47256 z"
     style="fill:#000000;stroke-width:0.71615821"
     id="pathMR1" />
</svg>
