<?xml version="1.0" encoding="UTF-8" standalone="no"?>
<svg
   xmlns:dc="http://purl.org/dc/elements/1.1/"
   xmlns:cc="http://creativecommons.org/ns#"
   xmlns:rdf="http://www.w3.org/1999/02/22-rdf-syntax-ns#"
   xmlns:svg="http://www.w3.org/2000/svg"
   xmlns="http://www.w3.org/2000/svg"
   id="svgMR12"
   version="1.1"
   viewBox="0 0 100 100"
   height="100"
   width="100">
  <defs
     id="defs2" />
  <metadata
     id="metadata5">
    <rdf:RDF>
      <cc:Work
         rdf:about="">
        <dc:format>image/svg+xml</dc:format>
        <dc:type
           rdf:resource="http://purl.org/dc/dcmitype/StillImage" />
        <dc:title></dc:title>
      </cc:Work>
    </rdf:RDF>
  </metadata>
  <path
     id="pathMR12"
     d="m 47.253605,93.76662 c -0.570824,-0.67839 -1.037862,-1.58039 -1.037862,-2.00446 0,-0.42406 -0.257717,-0.77102 -0.572701,-0.77102 -0.992096,0 -1.832644,-1.20806 -1.832644,-2.63394 0,-0.7786 0.608015,-2.56706 1.403118,-4.12722 1.763354,-3.46009 1.764557,-3.98458 0.0059,-2.58133 -1.620842,1.2933 -2.237292,2.6645 -2.578053,5.73447 l -0.24474,2.2049 -0.644276,-1.17318 -0.644279,-1.17318 -0.485331,0.90685 c -0.266933,0.49877 -0.57533,0.81685 -0.685327,0.70685 -0.11,-0.11 0.115677,-0.68178 0.501499,-1.27062 l 0.701499,-1.07062 0.519001,0.93562 c 0.510021,0.91942 0.519246,0.91284 0.533205,-0.38016 0.0078,-0.72367 0.284809,-1.96341 0.615544,-2.75497 0.767112,-1.83596 0.775499,-1.80116 -0.365264,-1.51485 -0.580354,0.14566 -1.698061,-0.081 -2.797104,-0.56712 l -1.8305,-0.80971 -0.513898,1.07221 c -0.745544,1.55553 -2.502352,2.31262 -3.859376,1.66319 -0.581364,-0.27821 -1.64787,-0.46404 -2.370015,-0.41295 -1.01797,0.072 -1.572061,-0.18443 -2.465964,-1.14136 -0.634153,-0.67885 -1.441415,-1.23426 -1.79393,-1.23426 -0.97178,0 -2.244504,-1.47759 -2.244504,-2.60579 0,-0.74239 -0.212592,-1.00223 -0.820006,-1.00223 -1.48417,0 -2.788012,-1.75812 -2.788012,-3.7594 0,-1.47086 -0.223589,-2.01498 -1.249572,-3.04097 -1.034018,-1.03402 -1.207263,-1.4611 -1.00432,-2.47583 0.177931,-0.88964 0.02574,-1.50533 -0.554436,-2.2429 -1.043656,-1.3268 -1.014643,-2.83293 0.07696,-3.99489 0.676403,-0.72 0.767974,-1.04183 0.400891,-1.40891 -1.007539,-1.00754 -0.358641,-4.45227 0.988528,-5.24772 0.399231,-0.23573 0.43728,-0.52422 0.141924,-1.0761 -0.659634,-1.23253 -0.471544,-2.00308 0.799131,-3.27375 0.845632,-0.84563 1.202673,-1.59162 1.202673,-2.51282 0,-1.29048 0.740305,-2.28186 2.047674,-2.74214 0.354508,-0.12481 0.753936,-0.77382 0.887621,-1.44225 0.309873,-1.54936 1.450367,-2.20246 2.890167,-1.65505 0.587,0.22317 1.157788,0.75192 1.268426,1.175 0.110634,0.42307 0.461526,0.86913 0.779757,0.99125 0.318227,0.12211 0.834595,0.8111 1.147474,1.53107 l 0.56888,1.30904 0.01567,-1.50334 c 0.01147,-1.09984 0.186655,-1.50334 0.652662,-1.50334 0.494816,0 0.404748,-0.27598 -0.403572,-1.23661 -0.572296,-0.68014 -0.919428,-1.43259 -0.771399,-1.67211 0.157951,-0.25557 0.411611,-0.0345 0.613973,0.53506 0.189653,0.5338 0.836447,1.37555 1.437322,1.87056 l 1.092496,0.90001 -1.10245,0.002 c -0.977384,0.002 -1.101757,0.14979 -1.096313,1.30488 0.0032,0.7166 0.163608,1.55151 0.356072,1.85537 0.508586,0.80297 1.321773,0.13201 1.014266,-0.83686 -0.173165,-0.5456 -0.111809,-0.72684 0.184137,-0.54394 0.650329,0.40193 0.541375,1.81829 -0.160589,2.08766 -0.948027,0.36379 -2.46673,-0.88016 -2.739472,-2.24387 -0.283646,-1.41824 -1.195781,-1.94434 -2.087675,-1.20414 -0.71021,0.58943 -0.580851,1.91639 0.449948,4.61549 0.521467,1.36545 0.878937,1.79574 1.382424,1.66408 0.955375,-0.24985 1.995643,0.42361 1.995643,1.29195 0,0.82085 -0.932733,1.76904 -1.339782,1.362 -0.460731,-0.46074 -0.285097,0.9113 0.34542,2.69837 1.108772,3.14259 3.964811,5.98579 6.016626,5.98957 0.740386,0.001 0.794037,-0.18627 0.601337,-2.10318 -0.181744,-1.80794 -0.340136,-2.12292 -1.123453,-2.23407 -1.177938,-0.16715 -2.189782,-1.72575 -2.049567,-3.15705 0.06053,-0.61784 -0.120628,-1.54606 -0.40257,-2.0627 -0.283173,-0.51889 -0.399175,-1.39136 -0.25916,-1.94923 0.238726,-0.95115 0.296178,-0.97123 0.987843,-0.34528 0.701671,0.635 0.748556,0.56113 1.052768,-1.65879 0.175117,-1.27786 0.28713,-2.45869 0.248921,-2.62406 -0.308702,-1.33598 2.459734,1.40208 2.936521,2.9043 0.400358,1.26142 1.115443,0.95062 0.917399,-0.39873 -0.09708,-0.66147 -0.04045,-1.20267 0.125848,-1.20267 0.647458,0 1.96412,2.1703 1.96412,3.23753 0,0.61872 0.180401,1.23644 0.400891,1.37271 0.22049,0.13628 0.400891,0.60857 0.400891,1.04955 0,0.47527 0.177478,0.6921 0.435817,0.53243 0.239696,-0.14814 0.328514,-0.65489 0.19737,-1.12611 -0.131143,-0.47122 -0.680007,-2.78463 -1.219698,-5.14091 -1.058364,-4.62083 -1.380993,-5.14824 -8.046946,-13.1546 -3.157922,-3.79292 -4.654488,-6.79519 -4.89772,-9.82533 -0.20071,-2.50043 -0.195443,-2.51569 1.504359,-4.35976 1.52822,-1.65792 1.888232,-1.85054 3.458722,-1.85054 1.686804,0 1.752951,-0.0461 1.752951,-1.22259 0,-2.67726 2.1129,-5.03753 4.815193,-5.37892 l 1.799507,-0.22733 -1.990123,0.56801 c -4.635665,1.32311 -5.447614,5.80467 -2.078519,11.47241 1.604161,2.69863 1.992985,3.58764 3.682051,8.41871 0.732347,2.09465 1.554911,4.34966 1.827926,5.01113 l 0.496387,1.20267 0.291135,-1.80401 C 45.369025,35.2142 44.465533,32.26207 41.175337,24.65398 38.91301,19.42268 38.694059,17.434 40.202323,15.81636 c 0.892507,-0.95723 1.210694,-1.05063 2.906459,-0.85314 2.229582,0.25965 2.640904,-0.51787 0.801782,-1.51562 -0.606348,-0.32895 -0.955291,-0.60531 -0.775428,-0.61414 0.179864,-0.009 0.65664,0.16036 1.059503,0.37596 0.62838,0.3363 0.769333,0.19555 0.991824,-0.99043 0.302576,-1.61286 1.849281,-3.59293 3.455338,-4.42345 0.721536,-0.37312 1.188241,-0.98182 1.295303,-1.68939 l 0.16736,-1.10611 0.06007,1.10245 c 0.04998,0.91741 0.245105,1.10459 1.162516,1.1152 1.884872,0.0218 3.225323,1.61868 3.69095,4.39705 0.211145,1.25989 0.357025,1.39552 1.429116,1.32869 0.739022,-0.0461 0.888458,0.009 0.392183,0.14336 -1.077222,0.29261 -1.804009,0.91832 -1.804009,1.5531 0,0.35954 0.547978,0.50043 1.763427,0.4534 1.268186,-0.0491 2.011478,0.15623 2.646689,0.73109 1.042333,0.9433 0.937191,2.70233 -0.386675,6.46896 -1.219173,3.46877 -4.161307,10.12963 -4.407791,9.97904 -0.119341,-0.0729 -0.251334,0.43582 -0.293312,1.13051 -0.04198,0.69469 -0.132177,1.62388 -0.200445,2.06486 -0.06827,0.44098 0.06853,0.76763 0.303991,0.72589 0.250485,-0.0444 0.359836,0.3893 0.263554,1.04532 -0.102063,0.69537 0.03985,1.1993 0.37367,1.32684 0.36152,0.13813 0.550676,-0.14117 0.576141,-0.85069 0.02085,-0.58097 0.787554,-2.74519 1.703786,-4.80937 0.916228,-2.06417 1.665874,-3.89226 1.665874,-4.06241 0,-0.17014 0.910868,-2.2067 2.024154,-4.52569 2.526498,-5.26273 2.713458,-6.3414 1.506869,-8.69399 -0.784568,-1.52974 -1.229978,-1.908 -2.929687,-2.48802 -1.10245,-0.37621 -1.68296,-0.69191 -1.290019,-0.70156 1.069277,-0.0263 3.200441,0.96879 4.000518,1.86788 0.388327,0.43637 0.927157,1.72424 1.197405,2.86192 0.48224,2.03011 0.514736,2.06412 1.750823,1.83222 1.451345,-0.27227 3.516964,0.63182 4.151217,1.81693 0.227025,0.42421 0.412765,1.91065 0.412753,3.3032 -2e-5,2.26483 -0.191786,2.87025 -1.817791,5.73905 -0.999774,1.76392 -3.628452,5.37194 -5.841509,8.01782 -4.555865,5.44689 -4.965339,6.10634 -5.351902,8.61915 -0.152635,0.99221 -0.546819,2.91952 -0.875958,4.28292 -0.533778,2.21106 -0.532307,2.6009 0.01363,3.60802 l 0.612056,1.12911 0.01604,-1.07879 c 0.0088,-0.59333 0.196453,-1.19028 0.416942,-1.32656 0.22049,-0.13627 0.400891,-0.79018 0.400891,-1.45313 0,-0.66295 0.202951,-1.58458 0.451003,-2.04807 l 0.451002,-0.84271 0.451611,0.84385 c 0.431559,0.80637 0.5253,0.75644 2.110895,-1.12446 1.535272,-1.8212 1.677127,-1.90171 1.898146,-1.07723 0.131376,0.49008 0.241333,1.74797 0.244343,2.7953 0.006,2.07701 0.173193,2.23951 1.276802,1.24076 0.693172,-0.62731 0.733125,-0.60403 0.733125,0.42724 0,0.5999 -0.186747,1.43966 -0.414994,1.86615 -0.275364,0.51451 -0.282288,1.02339 -0.02057,1.51239 0.646649,1.20828 0.03472,2.45385 -1.620373,3.29821 -1.488371,0.75931 -1.552069,0.87373 -1.552069,2.78811 0,1.09798 0.145082,1.99631 0.322405,1.99631 0.47734,0 3.947215,-2.25509 4.267655,-2.77358 0.151818,-0.24564 0.448437,-0.34007 0.659153,-0.20984 0.21072,0.13023 0.341563,0.0881 0.290766,-0.0937 -0.05079,-0.18176 0.237841,-0.95133 0.641418,-1.71017 1.400484,-2.6333 1.478116,-3.51132 0.374408,-4.2345 -0.723985,-0.47437 -0.95815,-0.94068 -0.867316,-1.72716 0.11233,-0.97259 0.269491,-1.0689 1.616196,-0.99046 1.469461,0.0856 1.500935,0.056 2.104677,-1.97699 0.725111,-2.44171 0.761115,-3.29771 0.184061,-4.37595 -0.599685,-1.12052 -1.361734,-0.39767 -2.180955,2.06878 -0.628412,1.89197 -1.667778,2.77006 -2.59819,2.19503 -0.502685,-0.31067 -0.538905,-2.608 -0.04113,-2.608 0.199848,0 0.26901,0.3608 0.15369,0.80178 -0.148065,0.5662 -0.01231,0.80178 0.462082,0.80178 0.430706,0 0.563721,0.17981 0.370692,0.50111 -0.204566,0.3405 -0.08366,0.32477 0.377231,-0.0491 0.734323,-0.59565 0.929942,-1.05577 0.2774,-0.65248 -0.22049,0.13627 -0.400891,-0.0441 -0.400891,-0.40089 0,-0.41223 0.18265,-0.53892 0.501114,-0.34759 0.39171,0.23533 0.390199,0.16406 -0.0069,-0.32642 -0.279417,-0.34512 -0.40077,-0.907 -0.269671,-1.24863 0.132895,-0.34632 -0.103847,-0.96336 -0.535061,-1.39457 -0.750223,-0.75023 -0.751153,-0.78732 -0.03099,-1.23707 1.063311,-0.66405 0.916132,-1.44366 -0.357069,-1.89142 l -1.099492,-0.38667 1.891516,-0.72238 1.891515,-0.72237 -0.863767,-1.16831 c -0.475076,-0.64257 -0.746335,-1.28575 -0.602796,-1.42929 0.143535,-0.14353 0.434762,0.19613 0.647174,0.75481 0.212408,0.55868 0.623357,1.11331 0.913222,1.23251 0.734468,0.30204 -1.091983,1.86282 -2.223405,1.89999 -0.832041,0.0273 -0.833705,0.0378 -0.05581,0.35072 0.44098,0.17741 0.937082,0.24428 1.10245,0.14861 0.510478,-0.29531 0.331729,0.88034 -0.256073,1.6842 -0.542233,0.74155 -0.446998,1.96934 0.125318,1.61563 0.15749,-0.0973 0.218117,0.3998 0.134727,1.10475 l -0.151621,1.28172 0.683423,-1.32003 c 0.375879,-0.72602 1.023006,-1.50177 1.438056,-1.7239 0.41505,-0.22213 0.676335,-0.53057 0.58063,-0.68542 -0.09571,-0.15486 0.713434,-0.33546 1.798092,-0.40134 1.744942,-0.10598 2.012252,-0.0135 2.320613,0.80278 0.191678,0.50742 0.268841,1.05787 0.171473,1.22323 -0.09737,0.16537 0.190255,0.30067 0.639164,0.30067 1.131314,0 2.169858,1.7217 1.948458,3.23018 -0.151088,1.02944 0.002,1.32148 0.950809,1.81205 1.236957,0.63966 1.769957,2.01847 1.380344,3.57082 -0.176589,0.70358 -0.01275,1.23339 0.557875,1.80401 0.889248,0.88925 1.086635,3.14599 0.389157,4.44924 -0.313849,0.58643 -0.263638,1.00384 0.200445,1.66641 0.794759,1.13468 0.805539,4.06998 0.01784,4.85768 -0.333196,0.3332 -0.601336,1.31326 -0.601336,2.1979 0,1.28182 -0.237099,1.79607 -1.202673,2.60855 -0.781308,0.65742 -1.202672,1.38562 -1.202672,2.07846 0,1.45265 -1.153448,3.29581 -2.231904,3.56648 -0.513874,0.12898 -0.993736,0.64957 -1.141529,1.23843 -0.355005,1.41433 -1.649738,2.59908 -2.840404,2.59908 -0.600959,0 -1.002227,0.22911 -1.002227,0.57224 0,0.31473 -0.491256,0.95866 -1.091678,1.43095 -0.81546,0.64144 -1.416151,0.79784 -2.374084,0.61813 -0.718508,-0.13479 -1.394695,-0.0589 -1.537773,0.17262 -0.283875,0.45932 -1.795422,0.54807 -2.795877,0.16416 -0.356921,-0.13696 -0.912171,-0.75804 -1.233882,-1.38016 -0.558662,-1.08033 -0.634526,-1.10527 -1.688961,-0.55523 -1.339072,0.69852 -3.774091,0.75711 -4.424737,0.10647 -0.975993,-0.976 -0.958827,0.1236 0.04001,2.56383 1.350192,3.29856 1.58497,4.21056 1.152709,4.47771 -0.196119,0.12121 -0.370852,-0.26951 -0.38829,-0.86826 -0.01744,-0.59876 -0.493958,-2.08086 -1.058926,-3.29355 -0.564971,-1.2127 -1.028982,-2.51426 -1.031135,-2.89236 -0.002,-0.3781 -0.409338,-0.90442 -0.904855,-1.16962 -0.554332,-0.29667 -0.708767,-0.54622 -0.401432,-0.64867 0.381688,-0.12722 0.357799,-0.36881 -0.101289,-1.02425 -0.330438,-0.47177 -0.598033,-1.22352 -0.594657,-1.67056 0.0046,-0.61399 0.09112,-0.67866 0.353573,-0.26437 0.280067,0.44209 0.514904,0.38096 1.211156,-0.31529 0.938553,-0.93856 0.80035,-1.63626 -0.324113,-1.63626 -1.023221,0 -1.817358,1.69745 -1.43909,3.07601 0.171041,0.62334 0.338184,1.76968 0.371434,2.54742 0.03648,0.85288 0.560614,2.14105 1.320711,3.24581 1.64811,2.39545 1.96289,3.70995 1.175993,4.9109 -0.565497,0.86306 -2.570608,1.8556 -2.051358,1.01543 0.123562,-0.19993 0.478262,-0.3635 0.788227,-0.3635 0.636863,0 1.393565,-1.2096 1.393565,-2.22763 0,-0.58689 -0.09318,-0.6037 -0.701559,-0.12658 -0.635396,0.49831 -0.649828,0.48423 -0.153024,-0.14935 0.468489,-0.59747 0.452514,-0.8461 -0.109463,-1.70379 -0.804456,-1.22775 -0.927445,-1.2335 -2.217244,-0.10368 -0.944406,0.82726 -0.937723,0.80036 0.0821,-0.33066 l 1.110163,-1.23121 -0.82416,-0.95026 C 52.022238,82.2726 51.860487,81.68299 52.02632,80.79035 l 0.227509,-1.22465 -0.613736,1.34892 c -0.751193,1.65105 -0.800098,2.61425 -0.112618,2.21812 0.275612,-0.15882 0.06377,0.19134 -0.47077,0.77812 -0.53454,0.58678 -1.015609,1.06687 -1.069044,1.06687 -0.05344,0 -0.09716,-0.80753 -0.09716,-1.79451 0,-1.46809 -0.206603,-1.97622 -1.13586,-2.79356 -1.471702,-1.29448 -1.737176,-1.27233 -1.737176,0.14497 0,0.64316 -0.641053,2.37775 -1.424566,3.85465 -1.749095,3.29701 -1.78922,5.30395 -0.121935,6.09904 0.602351,0.28724 1.177842,0.98019 1.334129,1.60641 0.409394,1.64041 1.381614,2.50438 2.818162,2.50438 1.436725,0 2.473601,-0.9218 2.995373,-2.66294 0.28102,-0.93775 0.349533,-0.9875 0.377743,-0.27428 C 53.054311,93.12705 51.16173,95 49.623255,95 48.628192,95 48.028969,94.6881 47.253545,93.76657 Z M 36.879716,82.23061 c 0.329637,-0.78893 0.896384,-1.65502 1.259443,-1.92464 0.534708,-0.3971 0.355482,-0.4217 -0.94346,-0.12951 -3.403708,0.76565 -6.712281,-0.3937 -8.867991,-3.1074 -2.34989,-2.95815 -2.354757,-2.96625 -1.611874,-2.68117 0.36192,0.13888 0.658038,0.36955 0.658038,0.5126 0,0.14305 0.992205,0.3145 2.2049,0.38099 1.489117,0.0817 2.2049,-0.0319 2.2049,-0.34971 0,-0.29177 -0.399817,-0.39419 -1.052042,-0.26951 -2.528423,0.48334 -6.460188,-2.01462 -7.65188,-4.86144 -0.800299,-1.91182 -0.386607,-1.99123 0.470582,-0.0903 0.909368,2.01662 2.533129,3.56795 4.409843,4.21314 1.44797,0.49778 4.295702,0.36959 2.983895,-0.13432 -1.43893,-0.55276 -2.860737,-2.04548 -2.664192,-2.79708 0.21151,-0.80882 -0.442151,-1.58171 -3.812465,-4.50784 -1.047327,-0.9093 -1.904231,-1.81697 -1.904231,-2.01705 0,-0.20009 0.559892,0.2739 1.244201,1.05328 0.684312,0.77939 1.426907,1.41707 1.650211,1.41707 0.223308,0 -0.224611,-0.69802 -0.995372,-1.55116 -1.950775,-2.15928 -2.44818,-3.93884 -2.189758,-7.83433 0.190078,-2.86525 1.435462,-7.32657 1.4777,-5.29354 0.02987,1.43746 0.922277,3.77256 1.877925,4.91382 l 0.959676,1.14606 -0.778678,-1.40312 c -1.060689,-1.91129 -1.386529,-4.61087 -0.845723,-7.00686 0.488365,-2.16367 2.100215,-4.61898 3.032246,-4.61898 1.010357,0 0.634193,-1.4506 -0.511533,-1.97263 -0.971174,-0.44249 -1.171467,-0.4002 -1.804009,0.38096 -0.391349,0.48329 -0.711541,1.30973 -0.711541,1.83653 0,0.67873 -0.225277,0.95781 -0.773146,0.95781 -1.346544,0 -2.141928,1.17833 -1.918716,2.8425 0.161411,1.20338 0.06015,1.53299 -0.51735,1.68401 -0.394921,0.10327 -1.023482,0.65393 -1.396804,1.2237 -0.615227,0.93895 -0.621926,1.14986 -0.07156,2.2531 0.498969,1.00021 0.509549,1.21718 0.05933,1.21718 -1.409043,0 -2.295958,3.12747 -1.374951,4.84839 0.330218,0.61702 0.243725,1.01223 -0.400891,1.83172 -1.064197,1.35291 -1.037429,2.21738 0.111853,3.61207 0.742277,0.90078 0.898196,1.4816 0.760173,2.83177 -0.157731,1.54298 -0.06495,1.76092 1.013007,2.37959 1.071156,0.61476 1.168942,0.83961 1.004741,2.31036 -0.221669,1.9855 0.998771,3.83421 2.531177,3.83421 0.787381,0 0.97313,0.20441 0.97313,1.07089 0,1.33137 1.045199,2.53713 2.199291,2.53713 0.522698,0 1.089662,0.40605 1.414516,1.01304 0.65014,1.2148 2.098234,1.6583 3.431345,1.05089 0.77843,-0.35468 0.972665,-0.33068 0.972665,0.12017 0,0.64654 0.976823,0.93054 2.348575,0.6828 0.625811,-0.11302 1.148088,-0.65571 1.544797,-1.60516 z M 22.132501,67.23836 c -0.0164,-0.27562 -0.107603,-0.95212 -0.202707,-1.50334 -0.44723,-2.59217 -0.47281,-3.20713 -0.13342,-3.20713 0.201255,0 0.379732,0.1353 0.396613,0.30067 0.21038,2.06068 0.30046,4.91091 0.155209,4.91091 -0.102247,0 -0.199311,-0.2255 -0.215695,-0.50111 z m 43.88317,15.92231 c 0.500785,-0.50079 0.760117,-0.52346 1.402048,-0.12256 1.081447,0.67537 2.746908,-0.1099 3.084322,-1.45427 0.179647,-0.71577 0.525074,-1.01586 1.169318,-1.01586 1.359221,0 2.585891,-1.22331 2.68564,-2.67828 0.04808,-0.70134 0.247602,-1.17616 0.443381,-1.05517 0.627743,0.38797 2.215881,-0.74683 2.708046,-1.93502 0.262327,-0.63331 0.370536,-1.68359 0.240463,-2.33396 -0.181279,-0.90639 -0.106505,-1.13259 0.320263,-0.96883 0.87389,0.33535 2.222315,-1.30106 2.222315,-2.69693 0,-0.7251 -0.385324,-1.68772 -0.922715,-2.30512 -1.038632,-1.19328 -1.883521,-1.52275 -1.883521,-0.73451 0,0.67445 -1.476682,3.75793 -2.48315,5.18511 -0.878248,1.24537 -3.766454,3.05759 -5.667755,3.55627 -1.049284,0.27521 -0.921628,0.30852 0.734424,0.19163 1.10245,-0.0778 2.360658,-0.28836 2.796013,-0.46789 1.428499,-0.58906 -0.802427,1.868 -3.12771,3.44475 -1.325538,0.89883 -2.035564,1.6496 -1.955125,2.0673 0.06947,0.36074 -0.04725,0.76316 -0.259384,0.89427 -0.224331,0.13864 -0.291456,-0.12202 -0.160441,-0.62303 0.204446,-0.7818 0.117629,-0.8322 -0.939392,-0.54539 -1.784465,0.48419 -4.246729,0.5554 -5.304106,0.15338 l -0.951928,-0.36192 0.942126,1.18297 c 0.518171,0.65064 1.266254,1.64524 1.662402,2.21023 0.817332,1.16569 2.302617,1.35468 3.244466,0.41283 z M 64.287483,81.5368 c 0.01924,-0.46702 0.114229,-0.56201 0.242202,-0.24221 0.115805,0.28939 0.101565,0.63516 -0.03163,0.76838 C 64.364839,82.19618 64.270093,81.9594 64.2875,81.5368 Z m 4.110887,-0.34985 c 0,-0.32104 0.153276,-0.48897 0.340617,-0.37319 0.187336,0.11578 0.236826,0.37845 0.109968,0.5837 -0.324168,0.52452 -0.450585,0.46546 -0.450585,-0.21051 z m 4.05924,-2.6501 c -0.145335,-0.23516 -0.178268,-0.51354 -0.07318,-0.61862 0.105081,-0.10509 0.297886,0.0873 0.428452,0.42756 0.271074,0.70641 0.04005,0.83067 -0.35527,0.19106 z m -1.354983,-0.60807 c 0.01924,-0.46702 0.11423,-0.56201 0.242202,-0.2422 0.115806,0.28939 0.101566,0.63516 -0.03163,0.76837 -0.133216,0.13321 -0.227962,-0.10357 -0.210556,-0.52617 z m 3.105121,-2.703 c -0.149152,-0.73155 -0.09328,-0.99516 0.157734,-0.74414 0.213787,0.21378 0.317726,0.72357 0.230973,1.13284 -0.116827,0.55116 -0.217635,0.45035 -0.388707,-0.3887 z m 1.456989,-0.29694 c -0.145335,-0.23516 -0.155982,-0.53583 -0.02365,-0.66816 0.132326,-0.13232 0.24059,-0.0195 0.24059,0.25078 0,0.27025 0.208275,0.36265 0.462833,0.20532 0.286757,-0.17723 0.354011,-0.10997 0.176785,0.17678 -0.35444,0.5735 -0.519699,0.58031 -0.856548,0.0353 z m 0.967574,-4.6838 c -0.498656,-0.63584 -0.484476,-0.65002 0.151361,-0.15136 0.385857,0.30261 0.701559,0.61831 0.701559,0.70156 0,0.32995 -0.329208,0.11758 -0.85292,-0.5502 z m 1.686352,-1.53675 c 0.01924,-0.46702 0.11423,-0.56201 0.242202,-0.2422 0.115805,0.28939 0.101566,0.63516 -0.03163,0.76837 -0.133216,0.13321 -0.227963,-0.10357 -0.210556,-0.52617 z M 44.554395,81.67196 c 1.276878,-0.60548 2.5,-2.96265 2.767145,-5.33277 0.316656,-2.80934 -0.962438,-7.12339 -3.010935,-10.1551 -0.986295,-1.45969 -2.013446,-3.27632 -2.282564,-4.03697 -0.447667,-1.26534 -0.631415,-1.38657 -2.159707,-1.42491 -1.45877,-0.0366 -1.670408,0.0681 -1.670408,0.8265 0,0.47763 0.708574,2.24594 1.574611,3.92957 2.304529,4.48018 2.734501,6.80335 1.858269,10.04041 -0.448488,1.65686 -1.188934,3.15653 -2.06223,4.17679 l -1.362508,1.59177 1.499272,0.63735 c 1.571704,0.66813 3.072138,0.58996 4.849055,-0.25264 z m 15.451938,0.044 0.999806,-0.45554 -1.036848,-1.35938 c -0.570268,-0.74766 -1.130853,-1.26538 -1.245745,-1.15048 -0.114895,0.1149 0.135762,0.61591 0.557014,1.11336 l 0.765918,0.90446 -0.894484,-0.75688 c -0.72989,-0.61761 -1.005711,-0.66458 -1.498927,-0.25525 -0.332442,0.27591 -0.504793,0.66288 -0.383003,0.85994 0.440158,0.71219 -0.989659,0.79641 -2.29876,0.1354 -0.894905,-0.45186 -1.166997,-0.49473 -0.820295,-0.12923 0.627767,0.66181 2.759456,1.47676 3.972376,1.51864 0.485727,0.0168 1.333054,-0.17449 1.882948,-0.42504 z m -0.962082,-0.10929 c 0,-0.0763 0.270601,-0.36335 0.601336,-0.63784 0.346606,-0.28766 0.601336,-0.32662 0.601336,-0.092 0,0.2239 -0.270601,0.51093 -0.601336,0.63784 -0.330735,0.12692 -0.601336,0.16831 -0.601336,0.092 z m -2.246488,-1.27535 c 0.358252,-0.9336 -0.1239,-1.46264 -1.107926,-1.21566 -0.473881,0.11893 -1.130705,0.0263 -1.459608,-0.20578 -0.502693,-0.35477 -0.48794,-0.38673 0.09258,-0.20056 0.87381,0.28023 2.16279,-1.34862 1.427055,-1.80333 -0.728767,-0.4504 -1.215,0.0522 -0.677285,0.70013 0.38716,0.46651 0.353057,0.52724 -0.180982,0.32231 -1.038789,-0.39861 -1.967272,0.11494 -1.55138,0.8581 0.348415,0.62258 2.452478,2.17451 2.955127,2.17966 0.141779,0.002 0.367866,-0.28424 0.502417,-0.63487 z m -5.688097,-0.46494 c 0.356032,-0.41055 0.582844,-1.36672 0.546796,-2.30512 -0.191654,-4.98923 -0.244388,-5.3321 -0.856211,-5.56688 -0.548996,-0.21067 -0.611395,0.28326 -0.501114,3.96687 0.07849,2.62175 -0.02514,4.20746 -0.274931,4.2074 -0.25202,-5e-5 -0.354696,-1.80114 -0.27649,-4.85014 0.08694,-3.38964 -0.0056,-4.76972 -0.307207,-4.5833 -0.237387,0.14671 -0.333413,0.42563 -0.213394,0.61983 0.120015,0.19419 -0.169412,0.56052 -0.643177,0.81407 -0.677987,0.36285 -0.795223,0.35395 -0.550624,-0.0418 0.206715,-0.33448 0.147941,-0.4022 -0.175538,-0.20228 -0.31959,0.19752 -0.38979,0.73411 -0.204775,1.56528 0.297313,1.33565 0.297373,3.08941 1.6e-4,4.54623 -0.10345,0.50705 0.0952,1.09815 0.47154,1.40312 0.543031,0.44004 0.595335,0.43572 0.317093,-0.0261 -0.23042,-0.3825 -0.161411,-0.49586 0.223713,-0.36749 0.306305,0.10211 0.579468,0.39611 0.607029,0.65335 0.08628,0.80531 0.136523,0.86859 0.689536,0.86859 0.296563,0 0.812979,-0.3157 1.147594,-0.70155 z M 38.811217,79.36072 c 0.986772,-0.37517 1.887987,-1.79869 2.344766,-3.70369 0.278912,-1.16321 -0.05465,-1.36136 -1.259711,-0.74834 -2.323311,1.18188 -4.864827,1.58315 -5.885551,0.92925 -0.484389,-0.31031 -6.243202,-0.38503 -6.219189,-0.0807 0.03768,0.47779 2.275281,2.73963 3.190358,3.22494 2.019877,1.07124 5.557506,1.24227 7.829327,0.37853 z M 65.8756,79.12287 c 2.175646,-0.6461 4.945209,-2.29855 6.017071,-3.59006 0.525588,-0.6333 0.489067,-0.66622 -0.423946,-0.38213 -0.549497,0.17098 -1.540287,0.66365 -2.201757,1.09483 -1.197144,0.78035 -1.198592,0.78033 -0.314679,-0.005 l 0.887993,-0.78924 -1.252692,-0.25054 c -0.688983,-0.1378 -1.344147,-0.15908 -1.455923,-0.0473 -0.111776,0.11177 0.01788,0.20323 0.288136,0.20323 0.270253,0 0.378052,0.18334 0.239561,0.40743 -0.138492,0.22408 -0.419741,0.30364 -0.624997,0.17678 -0.205252,-0.12685 -0.37319,-0.0175 -0.37319,0.243 0,0.33409 -0.199848,0.31153 -0.678291,-0.0766 -0.57794,-0.46879 -0.627975,-0.46671 -0.338203,0.0141 0.261521,0.43391 0.144821,0.51321 -0.505159,0.34323 -0.464885,-0.12157 -0.929858,-0.0147 -1.033268,0.23752 -0.10341,0.25221 -0.207746,0.0978 -0.231855,-0.34323 -0.04039,-0.73858 -0.07605,-0.74647 -0.452462,-0.10022 -0.503924,0.86519 -1.642358,0.95192 -1.315535,0.10022 0.165207,-0.43051 -0.03764,-0.59959 -0.714139,-0.59519 -0.670398,0.004 -0.789555,0.10461 -0.410168,0.3451 0.828353,0.52509 -0.310931,0.82925 -1.479468,0.39497 -0.78031,-0.28999 -0.898027,-0.53722 -0.676351,-1.42045 0.228921,-0.91209 0.181247,-0.99702 -0.32418,-0.57755 -0.42504,0.35275 -0.502653,0.80531 -0.274518,1.60076 0.574565,2.0034 1.357525,2.83736 3.014559,3.21096 2.281362,0.51435 2.241529,0.51602 4.633461,-0.19431 z M 64.656723,78.1525 c 0,-0.16489 0.531674,-0.37783 1.181502,-0.4732 0.649824,-0.0954 1.103492,-0.0472 1.008148,0.10707 -0.247699,0.40079 -2.18965,0.7255 -2.18965,0.36613 z m -6.388364,0.3626 c 0.344441,-0.64359 0.341354,-0.77992 -0.01271,-0.5611 -0.275279,0.17013 -0.437127,0.0663 -0.39339,-0.25229 0.189942,-1.3837 -0.06833,-1.77755 -1.223358,-1.86556 -1.249766,-0.0952 -1.645116,0.46732 -0.608096,0.86526 0.340878,0.13081 0.492799,0.4934 0.356044,0.84978 -0.241645,0.62971 0.469214,1.81408 1.088815,1.81408 0.185737,0 0.542446,-0.38257 0.79269,-0.85017 z m -1.429008,-0.35251 c 0.136271,-0.22049 0.327319,-0.40089 0.424552,-0.40089 0.09723,0 0.176784,0.1804 0.176784,0.40089 0,0.22049 -0.191048,0.40089 -0.424551,0.40089 -0.233503,0 -0.313056,-0.1804 -0.176785,-0.40089 z M 37.640856,75.24531 c 0.159394,-0.15939 0.710743,-0.2898 1.225222,-0.2898 0.514476,0 0.935411,-0.14151 0.935411,-0.31446 0,-0.59266 -2.328198,-1.69 -3.58562,-1.69 -1.664779,0 -4.027386,-1.2454 -5.080754,-2.67823 -2.073047,-2.81981 -2.736249,-4.90025 -2.596719,-8.14582 0.04273,-0.9938 0.04836,-0.99212 0.669712,0.19955 0.344646,0.66098 0.929835,1.53735 1.300426,1.9475 0.948704,1.04997 3.105169,2.54743 2.650418,1.84048 -0.20518,-0.31898 -0.388864,-1.57216 -0.408191,-2.78486 -0.02445,-1.53357 -0.303811,-2.63211 -0.917563,-3.60802 -0.485335,-0.77171 -0.988176,-1.89922 -1.117423,-2.50556 -0.467928,-2.19519 -1.027383,-1.10861 -0.869336,1.68844 0.133653,2.3653 0.360553,3.08362 1.487934,4.71047 1.198247,1.7291 1.222252,1.81461 0.24193,0.86173 -2.012945,-1.95659 -3.148753,-7.57267 -1.803564,-8.91786 0.224054,-0.22406 0.407369,-0.7152 0.407369,-1.09144 0,-0.48671 0.23133,-0.62358 0.801782,-0.47441 0.605357,0.15831 0.801782,0.0123 0.801782,-0.59597 0,-0.44311 -0.276928,-0.91192 -0.615396,-1.0418 -0.766331,-0.29407 -3.393513,2.31356 -3.393513,3.36825 0,0.40904 -0.183343,0.85702 -0.407429,0.99551 -0.224086,0.13849 -0.303643,0.41974 -0.176789,0.625 0.126858,0.20525 0.08913,0.59869 -0.08385,0.8743 -0.568135,0.90527 -0.798134,6.73003 -0.324746,8.22422 0.241476,0.7622 0.167272,0.86958 -0.462215,0.66884 -0.412433,-0.13152 -0.253772,0.088 0.352575,0.48779 0.606348,0.3998 1.10245,0.96139 1.10245,1.24797 0,0.28659 0.275977,0.62697 0.613283,0.75641 0.391169,0.1501 0.525223,0.51279 0.370143,1.00141 -0.282051,0.88866 1.247536,2.72918 2.277168,2.74007 0.36014,0.004 0.749153,0.36772 0.864473,0.8087 0.140099,0.53575 0.546819,0.80179 1.225768,0.80179 0.558854,0 1.121099,0.16989 1.249432,0.37754 0.263318,0.42605 2.820741,0.35735 3.265826,-0.0877 z m 15.590477,-0.22308 c 1.187447,-0.19806 1.648901,-0.78308 1.072399,-1.35958 -0.387505,-0.38751 -0.658062,-0.38679 -1.28285,0.003 -0.435476,0.27196 -0.791776,0.3247 -0.791776,0.1172 0,-0.2075 0.405902,-0.50395 0.902005,-0.65877 1.262814,-0.39409 1.566565,-1.04266 0.856026,-1.82779 -0.546286,-0.60364 -0.534295,-0.66449 0.120307,-0.6105 0.476138,0.0393 0.772148,-0.25747 0.85769,-0.8598 0.113136,-0.79661 -0.01792,-0.89987 -0.978823,-0.77119 -0.610196,0.0817 -1.178727,0.40541 -1.2634,0.71932 -0.122536,0.45427 -0.06717,0.44802 0.271319,-0.0306 0.547537,-0.77422 0.546775,-0.43297 -0.0024,1.14285 -0.242058,0.69437 -0.60286,1.2625 -0.801782,1.2625 -0.198918,0 -0.358909,0.8569 -0.355534,1.90423 0.0032,1.04733 0.138676,1.72383 0.300668,1.50334 0.161992,-0.22049 0.655333,-0.46107 1.096313,-0.53462 z m 0,-2.87296 c 0.136271,-0.22049 0.32732,-0.40089 0.424552,-0.40089 0.09723,0 0.176785,0.1804 0.176785,0.40089 0,0.22049 -0.191049,0.40089 -0.424552,0.40089 -0.233503,0 -0.313056,-0.1804 -0.176785,-0.40089 z m 3.407573,2.35859 c 0,-0.41526 -0.264941,-0.75503 -0.588757,-0.75503 -0.379431,0 -0.508514,0.24943 -0.363071,0.70156 0.171898,0.53437 0.133072,0.57194 -0.162918,0.15765 -0.43386,-0.60727 -1.110086,0.0635 -0.712523,0.70672 0.385613,0.62394 1.827269,-0.0158 1.827269,-0.8109 z m 8.418708,0.83315 c 0.110245,-0.0424 0.380846,-0.11124 0.601336,-0.15297 1.777358,-0.33638 5.011136,-3.21682 5.011136,-4.46359 0,-0.27162 0.270601,-0.59769 0.601336,-0.72461 0.330735,-0.12691 0.601337,-0.59721 0.601337,-1.04512 0,-0.4479 0.180401,-0.81436 0.400891,-0.81436 0.22049,0 0.40089,-0.41492 0.40089,-0.92205 0,-0.50712 0.220983,-1.14303 0.491076,-1.41312 0.347259,-0.34726 0.371509,-0.6936 0.08281,-1.18263 -0.224547,-0.38035 -0.379977,-1.50336 -0.345404,-2.49556 0.0346,-0.99221 -0.07688,-1.98441 -0.247674,-2.2049 -0.1708,-0.22049 -0.277625,-1.09226 -0.237396,-1.93726 0.04023,-0.845 -0.06598,-1.62235 -0.236024,-1.72744 -0.170046,-0.1051 -0.309171,-0.54124 -0.309171,-0.96921 0,-0.42796 -0.180401,-0.77812 -0.400891,-0.77812 -0.22049,0 -0.402122,-0.2255 -0.403629,-0.50111 -0.0044,-0.80957 -2.761745,-2.50723 -3.261127,-2.00785 -0.579015,0.57901 -0.06485,2.01545 0.822187,2.29699 1.104543,0.35056 2.093196,2.96817 2.055416,5.442 -0.01836,1.20255 0.07697,3.1117 0.21185,4.24255 0.183528,1.53869 0.07005,2.3962 -0.450926,3.40758 -2.007753,3.89765 -4.573487,5.7184 -7.740156,5.49273 -1.297768,-0.0925 -1.828483,0.0143 -1.761811,0.35433 0.05514,0.28126 -0.156384,0.39007 -0.501114,0.25778 -0.405569,-0.15563 -0.596525,0.0277 -0.596525,0.57287 0,0.8073 0.986087,1.46963 1.612038,1.08277 0.18536,-0.11455 0.422475,-0.07 0.526923,0.099 0.16117,0.26078 2.454807,0.32893 3.07262,0.0913 z m 3.970599,-4.19397 c 0.229013,-0.44098 0.79443,-1.25278 1.256485,-1.80401 0.573254,-0.68389 0.707833,-0.74756 0.423697,-0.20044 -0.229013,0.44098 -0.794429,1.25278 -1.256484,1.80401 -0.573254,0.68389 -0.707833,0.74756 -0.423698,0.20044 z m 2.042764,-3.38391 c 0,-0.20748 0.178336,-0.48745 0.396301,-0.62216 0.227249,-0.14045 0.294454,0.0205 0.157554,0.37723 -0.266509,0.69451 -0.553855,0.82158 -0.553855,0.24493 z m 0.400891,-1.62722 c 0,-0.22049 0.191048,-0.40089 0.424551,-0.40089 0.233503,0 0.313056,0.1804 0.176785,0.40089 -0.136271,0.22049 -0.327319,0.40089 -0.424551,0.40089 -0.09723,0 -0.176785,-0.1804 -0.176785,-0.40089 z m 0.432541,-1.43653 c 0.01924,-0.46701 0.11423,-0.56201 0.242202,-0.2422 0.115806,0.28939 0.101566,0.63516 -0.03163,0.76837 -0.133216,0.13321 -0.227963,-0.10356 -0.210556,-0.52617 z m -0.432541,-2.99693 c 0,-0.23351 0.180401,-0.31306 0.400891,-0.17679 0.22049,0.13627 0.400891,0.32732 0.400891,0.42455 0,0.0972 -0.180401,0.17679 -0.400891,0.17679 -0.22049,0 -0.400891,-0.19105 -0.400891,-0.42455 z M 71.302111,57.9315 c -0.423614,-2.24571 -1.267774,-3.70643 -2.541296,-4.39744 -0.724562,-0.39315 -0.871164,-0.6009 -0.431487,-0.6115 1.41719,-0.0342 3.971181,4.52626 3.431518,6.12733 -0.08738,0.25923 -0.293809,-0.24405 -0.458735,-1.11839 z M 58.813727,73.64747 c 3.659019,-1.74487 6.915992,-6.15327 7.306512,-9.88958 0.266978,-2.55428 0.163303,-2.79955 -0.783228,-1.85302 -0.318813,0.31881 -1.188602,0.86266 -1.932867,1.20856 -0.744266,0.34589 -1.03751,0.54171 -0.651653,0.43515 0.385858,-0.10656 0.701559,-0.0224 0.701559,0.18693 0,0.20936 -0.496102,0.49008 -1.102449,0.62382 -1.747756,0.38547 -2.017676,0.58399 -0.601337,0.44226 0.716593,-0.0717 1.302896,0.0188 1.302896,0.20108 0,0.1823 -0.210468,0.33146 -0.467708,0.33146 -0.257235,0 -0.362169,0.10553 -0.233178,0.23452 0.128991,0.12899 0.048,0.7696 -0.17998,1.42358 -0.442223,1.26856 -0.799136,1.23674 -1.001497,-0.0893 -0.08549,-0.5602 0.03291,-0.72526 0.377811,-0.52673 0.276278,0.15902 0.361804,0.13471 0.190054,-0.054 -0.171749,-0.18873 -0.57527,-0.38174 -0.896712,-0.42892 -0.43902,-0.0644 -0.490675,0.0894 -0.207606,0.61834 0.252405,0.47162 0.217564,0.8762 -0.105514,1.22524 -0.377435,0.40777 -0.373354,0.45958 0.01876,0.2382 0.87118,-0.49185 0.542285,0.56145 -0.501114,1.60485 -0.704566,0.70457 -1.002227,0.82525 -1.002227,0.40633 0,-0.32774 0.180401,-0.70739 0.400891,-0.84366 0.22049,-0.13627 0.400891,-0.51836 0.400891,-0.8491 0,-0.33073 -0.183344,-0.48802 -0.40743,-0.34953 -0.224086,0.13849 -0.303643,0.41974 -0.176785,0.62499 0.126854,0.20526 0.03961,0.37319 -0.193907,0.37319 -0.233502,0 -0.430035,0.49611 -0.436742,1.10245 -0.01082,0.97764 -0.06078,1.01887 -0.441345,0.3642 -0.545949,-0.93916 0.66252,-4.42692 1.389676,-4.01073 0.256839,0.14701 0.338873,0.12529 0.182297,-0.0483 -0.156572,-0.17355 -0.02129,-0.82492 0.300669,-1.44748 1.009347,-1.95187 0.624086,-1.8621 -0.547545,0.12758 -0.800295,1.35907 -1.242393,1.77749 -1.55148,1.4684 -0.309083,-0.30908 -0.509011,-0.30806 -0.701611,0.004 -0.149965,0.24265 0.0077,0.43582 0.355642,0.43582 0.343748,0 0.624997,0.18675 0.624997,0.415 0,0.28569 -0.242234,0.28536 -0.777452,-0.001 -0.765565,-0.40971 -1.620136,0.12837 -1.072932,0.67557 0.128899,0.1289 -0.07825,0.46295 -0.460339,0.74234 -0.382085,0.27939 -0.549874,0.6528 -0.37286,0.82981 0.177009,0.17701 0.489664,0.0565 0.694788,-0.26789 0.326413,-0.51614 0.374488,-0.51469 0.385232,0.0116 0.01062,0.52079 0.06161,0.52336 0.380577,0.0192 0.202567,-0.32021 0.279357,-0.72611 0.170648,-0.90201 -0.10871,-0.17589 0.01271,-0.31981 0.269787,-0.31981 0.261541,0 0.360257,0.27932 0.224106,0.63413 -0.133837,0.34876 -0.243337,0.81907 -0.243337,1.04512 0,0.22604 -0.274694,0.30558 -0.610428,0.17674 -0.661189,-0.25372 -2.43621,1.24437 -1.995992,1.68458 0.146646,0.14665 0.522481,-0.0833 0.835188,-0.51092 0.40492,-0.55376 0.570328,-0.61127 0.574697,-0.19981 0.0052,0.48725 0.067,0.48356 0.394754,-0.0236 0.294919,-0.45636 0.403809,-0.26305 0.451639,0.80178 l 0.06303,1.40312 0.311164,-1.60357 0.311167,-1.60356 -0.118872,1.80401 c -0.06538,0.9922 -0.205112,2.16481 -0.310518,2.60579 -0.105402,0.44098 -0.119854,0.60613 -0.03211,0.36699 0.08774,-0.23914 0.762438,-0.7223 1.499324,-1.07369 z m 2.635869,-3.25312 c 0,-0.0832 0.315702,-0.39895 0.701559,-0.70156 0.635837,-0.49866 0.650017,-0.48448 0.15136,0.15136 -0.523711,0.66778 -0.852919,0.88015 -0.852919,0.5502 z m 2.405345,-3.63345 c 0,-0.31772 0.163576,-0.67877 0.363504,-0.80233 0.199928,-0.12356 0.269086,0.13639 0.15369,0.57768 -0.244788,0.93607 -0.517194,1.0544 -0.517194,0.22465 z m 0.464188,-2.22856 c 0,-0.55122 0.09099,-0.77672 0.202205,-0.50111 0.111211,0.27561 0.111211,0.72662 0,1.00223 -0.111211,0.27561 -0.202205,0.0501 -0.202205,-0.50112 z m -22.517944,8.71938 c -0.0084,-1.59203 -1.071004,-4.96975 -2.253536,-7.16333 -0.944932,-1.75284 -1.389171,-2.18031 -2.498468,-2.40415 -0.742053,-0.14973 -1.862254,-0.65156 -2.489336,-1.11519 -0.627077,-0.46362 -1.262169,-0.84294 -1.411312,-0.84294 -0.149144,0 -0.154548,0.8569 -0.01199,1.90423 0.474034,3.483 3.342051,8.12738 6.031664,9.76751 1.691543,1.0315 2.638928,0.97892 2.632995,-0.14613 z m 29.319053,0.12459 c 2.964392,-1.31335 5.143001,-4.21713 6.108968,-8.14241 0.347596,-1.41248 -0.101971,-3.41808 -0.592637,-2.64388 -0.466256,0.73568 -0.441024,1.24164 0.04688,0.9401 0.588444,-0.36368 0.496231,0.0254 -0.404074,1.70523 -0.442728,0.82604 -0.936124,1.4333 -1.096436,1.34946 -0.160309,-0.0838 -0.588191,0.36715 -0.950845,1.00222 -0.362654,0.63507 -0.84024,1.11664 -1.061299,1.07017 -0.221059,-0.0465 -0.378052,0.22412 -0.348867,0.60133 0.02918,0.37721 -0.16849,0.64206 -0.439276,0.58854 -0.496379,-0.0981 -1.956572,2.21941 -1.785059,2.83311 0.0508,0.18176 -0.0684,0.23111 -0.264889,0.10968 -0.196484,-0.12144 -0.679915,0.13576 -1.074291,0.57154 -0.904294,0.99923 -0.369593,1.00351 1.861825,0.0149 z M 56.638906,72.50343 c 0,-0.96096 -0.882457,-0.97157 -1.742749,-0.021 -0.812145,0.89741 -0.564001,1.21696 0.749942,0.96579 0.637886,-0.12194 0.992807,-0.45971 0.992807,-0.94484 z M 36.995253,72.35318 c 0,-0.10833 -0.618101,-1.00673 -1.373556,-1.99643 -0.755459,-0.9897 -1.486291,-2.15464 -1.624073,-2.58875 -0.137782,-0.43411 -0.585449,-0.8956 -0.994815,-1.02553 -0.409366,-0.12993 -1.482543,-1.03713 -2.384836,-2.016 L 28.977436,62.9467 v 1.20659 c 0,2.47825 2.227883,6.20783 4.556457,7.62772 1.126684,0.68702 3.46136,1.07295 3.46136,0.57217 z m 28.595069,-0.34985 c 2.258715,-0.94375 5.085613,-5.04112 5.074292,-7.35479 -0.0089,-1.81196 -0.447118,-3.08414 -0.845788,-2.45521 -0.463999,0.73199 -0.437315,1.23675 0.04948,0.9359 0.22049,-0.13627 0.400891,-0.0674 0.400891,0.15312 0,0.22049 -0.172523,0.50752 -0.383384,0.63784 -0.21086,0.13032 -0.284043,0.54686 -0.162625,0.92566 0.141214,0.44057 0.09788,0.52048 -0.120271,0.22178 -0.256498,-0.3512 -0.520906,-0.33541 -1.066739,0.0637 -0.399143,0.29186 -0.713702,0.63728 -0.699021,0.7676 0.109315,0.97032 -0.0334,1.44982 -0.369606,1.24202 -0.235395,-0.14548 -0.289118,0.0344 -0.132318,0.443 0.181624,0.4733 0.114555,0.59557 -0.214969,0.39191 -0.263422,-0.1628 -0.453115,-0.1473 -0.421545,0.0344 0.140043,0.80617 -0.09817,0.92771 -0.939544,0.47938 -0.795127,-0.42368 -0.841418,-0.40715 -0.39066,0.13953 0.421352,0.51101 0.400049,0.66286 -0.121041,0.86282 -0.413339,0.15861 -0.53365,0.0829 -0.347332,-0.21857 0.156784,-0.25368 -0.464953,0.2445 -1.381638,1.10705 -0.916681,0.86255 -1.666993,1.70358 -1.667358,1.86894 -0.0012,0.49434 2.334989,0.34055 3.739178,-0.24616 z m -2.692271,-0.32831 c 0.115781,-0.18733 0.378445,-0.23682 0.583701,-0.10996 0.524518,0.32416 0.465458,0.45058 -0.210512,0.45058 -0.321037,0 -0.48897,-0.15328 -0.373189,-0.34062 z m 1.683505,-0.20049 c 0.289391,-0.11581 0.635159,-0.10157 0.768376,0.0316 0.133212,0.13321 -0.103567,0.22796 -0.52617,0.21055 -0.467018,-0.0192 -0.562009,-0.11423 -0.242206,-0.2422 z m 2.845343,-1.93105 c 0.69559,-1.35993 1.226165,-2.02617 1.232595,-1.54775 0.0032,0.25118 -0.364851,0.88258 -0.818278,1.40312 -0.647896,0.74377 -0.736609,0.77474 -0.414317,0.14463 z M 48.687696,71.39714 C 48.257168,71.12422 48.276695,71.0107 48.787919,70.81452 50.2356,70.259 49.063335,66.22201 46.856094,64.1618 c -0.572685,-0.53454 -1.041242,-1.12085 -1.041242,-1.3029 0,-0.55861 1.774347,-0.36723 2.717034,0.29306 0.855742,0.59938 0.893013,0.57956 0.942278,-0.50112 0.124922,-2.74025 -0.109535,-4.05645 -1.043932,-5.86044 l -0.999156,-1.92903 0.867199,-1.17294 c 1.095755,-1.48209 1.481428,-1.21764 0.433796,0.29745 -0.776317,1.1227 -0.775952,1.12955 0.14501,2.72909 l 0.923276,1.60357 -0.02165,-5.14993 -0.02165,-5.14993 -1.025287,0.94058 c -0.563905,0.51731 -2.110173,2.29357 -3.436148,3.94725 -2.171561,2.70824 -2.325471,3.01935 -1.550573,3.13434 1.40303,0.2082 3.272436,2.364 3.272436,3.77377 0,1.21856 -0.01026,1.22469 -0.821722,0.49033 -0.905749,-0.8197 -3.328429,-1.0033 -4.026564,-0.30517 -0.545573,0.54558 0.50145,3.00587 2.58124,6.06541 0.797921,1.17381 1.660526,2.83431 1.9169,3.69002 0.418369,1.39639 0.879991,1.81223 2.154155,1.94053 0.22049,0.0222 0.160264,-0.11217 -0.133838,-0.2986 z m 2.330696,-0.25979 c -0.278908,-0.33606 -0.611471,-0.50665 -0.739035,-0.37909 -0.127563,0.12756 0.03343,0.39976 0.357795,0.60489 0.848674,0.53671 0.959565,0.47104 0.38124,-0.2258 z m 1.366188,-1.69409 c 1.039165,-2.21634 4.706847,-7.73256 5.014772,-7.54225 0.146052,0.0903 0.245425,-0.31806 0.22083,-0.9074 -0.03905,-0.9355 -0.23254,-1.08737 -1.524467,-1.19648 -0.813861,-0.0687 -2.005958,0.13753 -2.649103,0.45837 -0.643142,0.32084 -1.266956,0.48574 -1.386253,0.36645 -0.47714,-0.47714 1.58206,-3.31424 2.838127,-3.91029 l 1.335392,-0.63368 -0.588528,-1.40854 c -0.323692,-0.7747 -0.954165,-1.92204 -1.40105,-2.54963 -0.927292,-1.30226 -1.038964,-1.79628 -0.311408,-1.37759 0.291143,0.16755 0.361135,0.13547 0.16704,-0.0766 -0.183745,-0.20072 -0.454346,-0.32727 -0.601337,-0.28122 -0.146994,0.046 -0.943765,-0.57687 -1.770602,-1.38426 l -1.503341,-1.46797 v 2.45816 c 0,2.22386 0.124184,2.58928 1.302895,3.8338 l 1.302895,1.37564 -0.858668,0.64338 c -1.750253,1.31144 -2.3147,7.9472 -0.620222,7.29147 0.372412,-0.14412 1.213461,-0.3702 1.869001,-0.5024 l 1.191897,-0.24037 -1.479083,1.72797 c -1.824999,2.13211 -3.016732,5.37122 -2.295778,6.23992 0.721849,0.86977 0.970665,0.73923 1.746991,-0.91652 z m 3.452544,-1.50708 c 0,-0.30677 -0.315702,-0.7496 -0.701559,-0.98408 -0.568808,-0.34565 -0.493657,-0.3793 0.397154,-0.17784 0.805839,0.18224 1.165799,0.0737 1.350373,-0.40733 0.152431,-0.39724 0.522658,-0.5698 0.938987,-0.43766 0.46788,0.1485 0.833973,-0.10368 1.146604,-0.78983 0.375414,-0.82395 0.353341,-1.00799 -0.120889,-1.00799 -0.319089,0 -0.525191,0.2255 -0.458001,0.50112 0.06719,0.27561 0.04398,0.35828 -0.05157,0.18371 -0.09555,-0.17457 -0.407794,-0.12314 -0.693882,0.11429 -0.286084,0.23743 -0.674443,0.38524 -0.863018,0.32847 -0.724678,-0.21816 -2.499955,1.33677 -2.255003,1.97512 0.161992,0.42213 0.08626,0.53911 -0.224635,0.34697 -0.669925,-0.41404 -0.579187,-0.009 0.164638,0.73473 0.691284,0.69128 1.370798,0.50307 1.370798,-0.37968 z m -5.947364,-1.7338 c -0.113064,-1.63017 -0.314191,-2.04467 -1.264531,-2.60604 -0.621541,-0.36716 -1.452191,-0.66756 -1.845885,-0.66756 -0.55952,0 -0.423666,0.28448 0.622206,1.3029 0.735912,0.71659 1.584385,1.88919 1.885494,2.60579 0.301113,0.71659 0.590156,1.303 0.64232,1.30314 0.05216,1.4e-4 0.03436,-0.87207 -0.03961,-1.93823 z m 2.662424,-2.17115 c 1.121665,-1.20103 1.053128,-1.301 -0.489768,-0.71439 -0.644372,0.24499 -0.939516,0.59954 -0.800551,0.96168 0.121065,0.31549 -4.01e-4,0.70994 -0.27004,0.87655 -0.27629,0.17076 -0.387221,0.13637 -0.254229,-0.0788 0.129764,-0.20997 0.0702,-0.64374 -0.132367,-0.96395 -0.251775,-0.398 -0.365163,0.052 -0.358388,1.42226 l 0.0099,2.00446 0.632915,-1.20268 c 0.348101,-0.66147 1.096236,-1.69877 1.662514,-2.30512 z m 22.558538,1.73462 c 0.977492,-0.97749 1.524636,-2.03529 1.052752,-2.03529 -0.0655,0 -0.823715,0.72161 -1.684925,1.60357 -0.861209,0.88196 -1.334946,1.60356 -1.052747,1.60356 0.282195,0 1.040412,-0.52732 1.68492,-1.17184 z m 6.274323,-1.23662 c 0.215351,-1.60556 0.131645,-1.79323 -1.452175,-3.25567 -0.924386,-0.85355 -1.832232,-1.55191 -2.017435,-1.55191 -0.515261,0 -0.803422,2.10888 -0.392953,2.87584 0.2,0.37371 0.36364,1.14233 0.36364,1.70805 0,0.56573 0.1353,0.98349 0.300668,0.92836 0.165367,-0.0551 0.72461,0.32372 1.242762,0.84187 1.158129,1.15813 1.64429,0.77364 1.955493,-1.54654 z m -55.105424,1.50645 c -0.316175,-0.40558 -0.435055,-4.10913 -0.131898,-4.10913 0.04685,0 0.117939,-0.6314 0.157964,-1.40311 0.05191,-1.00074 -0.301843,-1.96077 -1.233526,-3.34764 -0.718468,-1.06948 -1.306307,-2.32327 -1.306307,-2.78619 0,-0.64595 -0.109828,-0.73185 -0.472297,-0.36938 -0.756946,0.75695 -0.925585,6.86421 -0.23505,8.51243 0.674029,1.60883 2.586752,4.00414 3.197417,4.00414 0.272554,0 0.280664,-0.17148 0.02369,-0.50112 z M 67.530156,65.8594 c -0.354419,-0.14148 -0.118367,-0.46606 0.701559,-0.96469 0.679635,-0.41331 1.235698,-0.92393 1.235698,-1.1347 0,-0.21077 -0.723495,0.0905 -1.607768,0.66941 -1.128232,0.73867 -1.45705,1.14832 -1.10245,1.37342 0.277925,0.17644 0.68572,0.30931 0.90621,0.29528 0.22049,-0.014 0.160528,-0.12146 -0.133249,-0.23872 z m -10.89125,-1.37147 c 0,0.24492 0.191048,0.4453 0.424551,0.4453 0.233503,0 0.313056,-0.1804 0.176785,-0.40089 -0.136271,-0.22049 0.03347,-0.40089 0.37723,-0.40089 0.343748,0 0.624997,-0.1997 0.624997,-0.44378 0,-0.24408 -0.290686,-0.33223 -0.645971,-0.1959 -0.462228,0.17738 -0.579841,0.0756 -0.413475,-0.358 0.407774,-1.06263 -0.0051,-0.65583 -1.114256,1.09791 -0.678159,1.07225 -0.772204,1.35298 -0.25372,0.75737 0.453123,-0.52054 0.823859,-0.74604 0.823859,-0.50112 z m 19.921133,-2.76182 c 0.726927,-1.49837 0.947,-5.29007 0.383925,-6.6147 -0.331553,-0.77998 -0.350318,-0.77714 -0.690118,0.10421 -0.207028,0.53699 -0.189721,1.35341 0.04249,2.00446 0.362886,1.01742 0.348065,1.04216 -0.200854,0.33536 -0.582627,-0.7502 -0.597492,-0.7502 -0.879499,0 -0.157771,0.4197 -0.568636,0.98904 -0.913037,1.26519 -0.544895,0.43692 -0.522096,0.47171 0.175602,0.26794 0.707116,-0.20651 0.72785,-0.17112 0.175603,0.29969 -0.692431,0.59032 -1.389075,2.11483 -0.800046,1.7508 0.202726,-0.1253 0.475055,-0.0556 0.605172,0.15498 0.130122,0.21054 -0.0063,0.52918 -0.303197,0.7081 -0.641811,0.3868 -1.12494,1.5505 -0.784892,1.89055 0.132281,0.13228 0.615956,-0.0756 1.074828,-0.46192 0.822047,-0.69211 0.823999,-0.69018 0.132755,0.13091 -0.385857,0.45835 -0.695073,1.08975 -0.687143,1.40312 0.0186,0.73558 1.773842,-1.39477 2.66841,-3.23869 z m -2.08149,-1.20267 c 0.136271,-0.22049 0.32732,-0.4009 0.424552,-0.4009 0.09723,0 0.176785,0.18041 0.176785,0.4009 0,0.22049 -0.191049,0.40089 -0.424552,0.40089 -0.233503,0 -0.313056,-0.1804 -0.176785,-0.40089 z m 1.481272,-1.00223 c 0.0082,-0.66147 0.09802,-0.88354 0.19966,-0.49349 0.101642,0.39006 0.09496,0.93126 -0.01487,1.20268 -0.109816,0.27141 -0.192977,-0.0477 -0.184807,-0.70919 z m -7.54095,3.79039 c 0.564952,-0.6714 1.23573,-1.91681 1.490625,-2.76756 0.497554,-1.66069 0.212007,-4.2266 -0.520761,-4.67947 -0.299462,-0.18508 -0.373338,0.0103 -0.222302,0.58782 0.124412,0.47576 0.08357,0.77687 -0.09077,0.66912 -0.318857,-0.19706 -1.187487,1.55014 -1.362087,2.73977 -0.05158,0.35142 -0.20684,0.75201 -0.345023,0.89019 -0.138183,0.13818 -0.15417,0.50421 -0.03552,0.81339 0.118644,0.30917 0.016,0.56214 -0.228066,0.56214 -0.244083,0 -0.443783,0.5412 -0.443783,1.20267 0,1.52501 0.463286,1.52025 1.757694,-0.0181 z m 0.152094,-2.20488 c 0.104721,-0.54781 0.323203,-1.0781 0.485515,-1.17842 0.162309,-0.10031 0.20943,0.26583 0.104709,0.81364 -0.104721,0.54781 -0.323202,1.07809 -0.485515,1.17841 -0.162309,0.10031 -0.209429,-0.26583 -0.104709,-0.81363 z m -8.90379,2.18802 c 0.389578,-0.63035 -0.452606,-1.31888 -1.242465,-1.01578 -0.546819,0.20983 -0.580342,0.37058 -0.178304,0.85501 0.586603,0.70681 1.050831,0.75935 1.420769,0.16077 z m 1.258453,-1.86167 c -0.101642,-0.39006 -0.19149,-0.16799 -0.19966,0.49348 -0.0082,0.66147 0.07499,0.98061 0.184807,0.70919 0.109812,-0.27141 0.116495,-0.81262 0.01487,-1.20267 z m -0.81445,-0.28425 C 59.861896,60.4992 58.64336,60.71685 58.64336,61.411 c 0,0.22049 0.270601,0.29705 0.601336,0.17013 0.330735,-0.12691 0.601337,-0.0259 0.601337,0.22437 0,0.25032 0.112486,0.34264 0.249971,0.20516 0.137482,-0.13749 0.144313,-0.52532 0.01519,-0.86184 z M 41.009862,59.79765 c 1.665626,-1.34874 0.824088,-4.08491 -1.256359,-4.08491 -1.757021,0 -2.594117,2.63985 -1.292998,4.07757 0.834659,0.92229 1.417374,0.92397 2.549357,0.007 z m -2.270228,-1.08906 c -0.264192,-0.68846 0.424387,-1.37493 1.390405,-1.38614 0.79552,-0.009 0.398778,1.76566 -0.429983,1.92362 -0.386527,0.0737 -0.818716,-0.16819 -0.960422,-0.53748 z m 1.362467,-0.82441 c -0.382029,-0.38203 -1.147947,0.23677 -0.863238,0.69743 0.16922,0.27381 0.393458,0.2669 0.68137,-0.021 0.236029,-0.23603 0.31787,-0.54042 0.181868,-0.67642 z m 40.576153,1.86383 c 0.806545,-1.50705 0.478227,-2.86698 -1.024444,-4.24338 -1.066703,-0.97706 -1.248418,-1.30248 -0.701752,-1.25674 1.601147,0.13399 0.948436,-2.99311 -0.789642,-3.78313 -0.482697,-0.2194 -1.328633,-0.65645 -1.879858,-0.97122 -1.265869,-0.72286 -1.435798,-0.24011 -0.595275,1.69111 0.36419,0.83678 0.923737,2.12646 1.243436,2.86597 0.319698,0.7395 0.695525,2.17814 0.835176,3.19698 0.158219,1.15435 0.568635,2.11562 1.089068,2.5508 1.074648,0.89861 1.319015,0.89186 1.823291,-0.0504 z m -0.787678,-1.20537 c 0,-0.20748 0.178336,-0.48745 0.396301,-0.62216 0.227249,-0.14045 0.294454,0.0205 0.157554,0.37723 -0.266508,0.69451 -0.553855,0.82158 -0.553855,0.24493 z M 78.51342,57.7592 c -0.121991,-0.19738 0.03857,-0.45879 0.356817,-0.58091 0.385965,-0.14811 0.504392,-0.0286 0.355694,0.35888 -0.258414,0.67342 -0.405257,0.71918 -0.712511,0.22203 z m -1.228635,-4.05091 c -0.13627,-0.22049 -0.05672,-0.40089 0.176785,-0.40089 0.233503,0 0.424552,0.1804 0.424552,0.40089 0,0.22049 -0.07955,0.40089 -0.176785,0.40089 -0.09723,0 -0.288281,-0.1804 -0.424552,-0.40089 z m -16.992316,5.98899 c 1.763952,-0.94404 1.759414,-3.62868 -0.0069,-4.09059 -1.71645,-0.44886 -3.343385,2.03351 -2.439573,3.7223 0.473997,0.88567 1.258962,1.00383 2.446489,0.36829 z m -1.259407,-0.99134 c -0.364771,-0.43952 -0.419392,-0.85205 -0.166009,-1.25375 0.529036,-0.83869 1.019305,-0.85253 1.529828,-0.0432 0.334848,0.53084 0.289896,0.84193 -0.191189,1.32301 -0.571378,0.57138 -0.678769,0.56899 -1.17263,-0.0261 z m 0.873104,-0.7883 c 0,-0.20946 -0.193931,-0.44549 -0.430957,-0.52449 -0.237027,-0.079 -0.430958,0.15701 -0.430958,0.52449 0,0.36749 0.193931,0.60351 0.430958,0.5245 0.237026,-0.079 0.430957,-0.31503 0.430957,-0.5245 z m -13.289532,1.43388 c 0,-0.20357 -0.47516,-0.93483 -1.055911,-1.62501 -0.764085,-0.90806 -1.337219,-1.22125 -2.07376,-1.13321 -1.35443,0.16191 -1.662907,1.1239 -0.360397,1.1239 0.542602,0 1.225439,0.3157 1.517416,0.70156 0.451624,0.59683 0.446982,0.62676 -0.03111,0.20044 -0.753526,-0.67195 -2.406039,-0.64027 -2.406039,0.0461 0,0.40061 0.479109,0.51138 1.78807,0.41339 0.983437,-0.0736 1.896089,0.0409 2.028115,0.25453 0.303482,0.49105 0.593615,0.49998 0.593615,0.0183 z m 9.079697,-1.42989 c 1.757634,-0.60425 2.362787,-1.53493 0.815633,-1.25437 -1.529066,0.27727 -2.492483,0.90357 -3.285914,2.13611 l -0.720169,1.11873 0.837301,-0.73968 c 0.460519,-0.40682 1.519436,-0.97418 2.353149,-1.26079 z m 1.343466,0.74805 c 0,-0.65261 -1.86175,-0.36983 -2.701897,0.41039 -0.379635,0.35255 -0.119293,0.42552 1.10245,0.30901 1.03933,-0.0991 1.599447,-0.35105 1.599447,-0.7194 z m 18.488794,-2.75649 c 0.831884,-1.81159 0.939496,-2.60579 0.353076,-2.60579 -0.22049,0 -0.400891,0.32548 -0.400891,0.72329 0,0.39782 -0.541202,1.57669 -1.202672,2.61972 -0.66147,1.04303 -1.202673,2.00831 -1.202673,2.14507 0,0.65336 1.801596,-1.46338 2.45316,-2.88229 z m -38.132447,1.73535 c 0,-0.47874 0.277392,-1.17695 0.616426,-1.55158 1.146748,-1.26714 0.05956,-2.59904 -3.522885,-4.31585 -0.467098,-0.22385 -0.354159,1.08023 0.177867,2.05376 0.263193,0.4816 0.431187,1.36042 0.373318,1.95293 -0.140857,1.44214 0.599003,2.73118 1.567596,2.73118 0.541126,0 0.787678,-0.27246 0.787678,-0.87044 z m 26.031664,0.16888 c 0.810617,-0.65793 0.921315,-1.11608 0.750708,-3.1069 -0.0378,-0.44098 0.0665,-1.20769 0.231763,-1.70379 0.166322,-0.49928 0.135894,-0.902 -0.06815,-0.902 -0.750572,0 -3.026903,1.8275 -3.123309,2.50747 -0.05485,0.38691 0.06778,0.59995 0.272506,0.47342 0.204731,-0.12653 0.251218,-0.42587 0.103309,-0.66519 -0.163675,-0.26483 -0.0816,-0.31936 0.209706,-0.13932 0.307239,0.18988 0.416795,1.00162 0.305948,2.26684 -0.187977,2.14559 0.0068,2.33329 1.317516,1.26947 z M 63.08481,56.68157 c 0.01924,-0.46702 0.11423,-0.56201 0.242202,-0.24221 0.115805,0.28939 0.101566,0.63516 -0.03163,0.76838 -0.133216,0.13321 -0.227963,-0.10357 -0.210556,-0.52617 z m 11.199023,-0.98005 c 1.394527,-2.7335 1.016114,-5.65904 -1.139344,-8.80837 -0.95014,-1.38825 -0.945533,-1.38659 0.434598,0.1566 0.919258,1.02786 1.570794,1.45102 1.910689,1.24095 0.318344,-0.19675 0.417063,-0.15905 0.257898,0.0985 -0.141836,0.22949 0.111928,0.51396 0.563917,0.63216 0.526798,0.13776 0.909,-0.0123 1.064734,-0.41818 0.346081,-0.90188 -0.783533,-2.70748 -1.712931,-2.73798 -0.431174,-0.0141 -1.234956,-0.21888 -1.786181,-0.45495 -0.675625,-0.28934 -1.165526,-0.29762 -1.503341,-0.0254 -0.612385,0.49347 -0.665471,1.90919 -0.07159,1.90919 0.236237,0 0.146037,0.28349 -0.200445,0.62998 -0.753868,0.75386 -0.769258,0.9861 -0.162405,2.45083 0.662424,1.59887 0.705945,3.80893 0.0702,3.56497 -0.302532,-0.11609 -0.181451,0.37848 0.304456,1.2436 0.44371,0.78998 0.708395,1.69263 0.588187,2.00589 -0.445245,1.16029 0.61077,0.0231 1.381555,-1.48779 z m -0.773195,-1.59234 c 0.01211,-0.33073 0.177078,-0.96214 0.366575,-1.40312 l 0.344538,-0.80178 0.02205,0.80178 c 0.01211,0.44098 -0.152836,1.07239 -0.366575,1.40312 -0.345436,0.53452 -0.386166,0.53452 -0.366575,0 z m 0.03287,-3.58755 c -0.234497,-0.67273 -0.34109,-1.22314 -0.236858,-1.22314 0.270642,0 1.027099,2.08244 0.828573,2.28096 -0.09092,0.0909 -0.357185,-0.3851 -0.591699,-1.05782 z m 2.598102,-2.61572 c -0.123719,-0.32241 -0.02454,-0.71005 0.220378,-0.86142 0.256967,-0.15881 0.333284,-0.0939 0.180441,0.15336 -0.145688,0.23573 -0.04715,0.50118 0.218982,0.58989 0.339952,0.11331 0.353189,0.24205 0.0445,0.43282 -0.241649,0.14935 -0.540585,0.008 -0.664304,-0.31465 z m -25.004838,8.13836 c 0.633331,-1.01375 0.627502,-1.12195 -0.107996,-2.00445 l -0.777468,-0.93287 -0.01335,2.1715 c -0.0073,1.19432 0.04126,2.09632 0.107996,2.00445 0.06673,-0.0919 0.422595,-0.64925 0.790806,-1.23863 z m -23.7629,-0.72296 c 0,-0.38179 0.45089,-1.18068 1.001979,-1.77531 0.94884,-1.02382 0.969775,-1.14344 0.394713,-2.25548 -0.333998,-0.64589 -0.845932,-2.1069 -1.137632,-3.24672 l -0.530363,-2.07238 -0.95966,1.9642 c -0.688358,1.40891 -0.961681,2.6554 -0.966801,4.40908 -0.0082,2.81375 0.80454,4.82704 1.661525,4.1158 0.294931,-0.24477 0.536239,-0.75741 0.536239,-1.13919 z m 15.159031,-0.74189 c 0.07012,-0.71004 -0.06272,-1.27202 -0.300668,-1.27202 -0.234461,0 -0.426291,-0.43926 -0.426291,-0.97613 0,-0.53687 -0.208796,-1.48398 -0.463988,-2.10468 -0.40625,-0.98811 -0.484468,-1.02877 -0.628572,-0.32676 -0.09052,0.44098 -0.422928,1.37025 -0.738686,2.06504 -0.906955,1.99568 -0.742209,3.12614 0.52835,3.62545 1.549275,0.60885 1.886476,0.44092 2.029855,-1.0109 z m 16.027861,0.93227 c 0.06482,-0.0558 0.210913,-0.6197 0.32465,-1.2531 0.113741,-0.6334 0.362313,-1.30892 0.552379,-1.50116 0.467648,-0.47297 0.03127,-1.51659 -0.497489,-1.1898 -0.244704,0.15124 -0.301931,0.0677 -0.136744,-0.19957 0.156247,-0.25281 0.108036,-0.77423 -0.107134,-1.15872 -0.336235,-0.60083 -0.42575,-0.53085 -0.636935,0.49793 -0.135149,0.65836 -0.404167,1.73821 -0.597825,2.39968 -0.979745,3.34652 -0.983089,3.11083 0.03969,2.79601 0.517871,-0.1594 0.994614,-0.33547 1.059431,-0.39127 z m -0.893858,-1.11913 c 0.150547,-0.39537 0.374709,-0.61786 0.498139,-0.49443 0.12343,0.12343 2.57e-4,0.44691 -0.27372,0.71885 -0.395928,0.39298 -0.441974,0.34693 -0.224419,-0.22442 z M 38.964385,50.42992 c -0.520068,-1.27218 -1.802678,-2.52687 -2.096731,-2.05108 -0.113958,0.18439 -0.319643,1.08916 -0.457072,2.0106 -0.221452,1.48476 -0.135786,1.75009 0.753101,2.33251 0.551638,0.36145 1.133732,1.04694 1.293543,1.52332 0.237861,0.70905 0.350002,0.53894 0.618278,-0.93787 0.208034,-1.14519 0.167456,-2.19604 -0.111119,-2.87748 z m 21.566073,2.38104 c -0.09589,-0.49867 -0.177988,-0.18507 -0.182438,0.69689 -0.0045,0.88196 0.07401,1.28996 0.174348,0.90667 0.100339,-0.38328 0.103979,-1.10489 0.0081,-1.60356 z m -15.91093,0.19577 c 0.004,-0.16537 1.176643,-1.55285 2.605791,-3.08329 l 2.598442,-2.78264 v -6.93897 c 0,-3.85711 -0.160633,-6.93897 -0.361672,-6.93897 -0.198922,0 -0.555057,0.55473 -0.791411,1.23274 -0.246579,0.70734 -0.612533,1.11977 -0.858628,0.96767 -0.825779,-0.51036 -2.398089,0.9508 -2.398089,2.22855 0,0.90121 -0.241488,1.29517 -0.961773,1.56902 -1.226161,0.46619 -2.245354,1.91482 -2.245354,3.19144 0,0.75973 -0.110529,0.88267 -0.470192,0.52301 -0.350616,-0.35061 -0.356753,-0.71918 -0.02413,-1.44919 0.399315,-0.8764 0.188811,-1.35015 -2.00884,-4.5209 -1.350197,-1.94804 -3.167647,-4.3537 -4.038783,-5.34591 -1.858979,-2.11733 -3.058276,-4.5357 -3.070628,-6.19187 -0.01163,-1.55874 1.762569,-3.42951 3.252472,-3.42951 1.055702,0 1.087452,-0.0555 0.68756,-1.20267 -0.372067,-1.06732 -0.600623,-1.20267 -2.030761,-1.20267 -1.346769,0 -1.876125,0.26461 -3.222225,1.61071 -1.602072,1.60207 -1.609633,1.62416 -1.409536,4.11694 0.311589,3.88172 1.887491,6.4584 9.176003,15.0032 2.139751,2.50857 3.115684,3.99283 3.258201,4.95528 0.480455,3.24459 1.645817,7.9887 1.962373,7.9887 0.189112,0 0.347143,-0.1353 0.351184,-0.30067 z m 18.032741,-2.92056 c 0,-1.31518 -0.0902,-2.39124 -0.200446,-2.39124 -0.311564,0 -1.682422,1.4462 -2.379945,2.51076 -0.752824,1.14895 -0.430059,1.63565 0.687925,1.03732 0.748989,-0.40084 0.789867,-0.34021 0.556689,0.82568 -0.231803,1.15902 -0.18904,1.22477 0.542061,0.8335 0.654839,-0.35046 0.793716,-0.84318 0.793716,-2.81602 z m -2.405346,0.26363 c 0,-0.0832 0.315702,-0.39894 0.70156,-0.70156 0.635836,-0.49865 0.650016,-0.48447 0.15136,0.15136 -0.523712,0.66779 -0.85292,0.88015 -0.85292,0.5502 z m 1.666861,-0.65042 c 0,-0.55122 0.09099,-0.77672 0.202205,-0.50111 0.111211,0.27561 0.111211,0.72661 0,1.00223 -0.111211,0.27561 -0.202205,0.0501 -0.202205,-0.50112 z m 10.202131,2.21491 c -0.138596,-0.94431 -0.491753,-1.07744 -1.05567,-0.39797 -0.438105,0.52788 -0.430913,0.61314 0.0431,0.5108 0.312935,-0.0676 0.519402,0.11607 0.458815,0.40807 -0.06058,0.292 0.05865,0.42659 0.264965,0.29908 0.206315,-0.12751 0.336272,-0.4965 0.288794,-0.81998 z M 55.153356,50.2005 c -0.275043,-2.84047 -0.451763,-2.98587 -0.487254,-0.4009 -0.0174,1.26782 0.126589,2.30513 0.319995,2.30513 0.193406,0 0.268673,-0.85691 0.167259,-1.90423 z m 0.559223,-1.60357 c -0.100836,-0.38586 -0.183339,-0.0702 -0.183339,0.70156 0,0.77172 0.0825,1.08742 0.183339,0.70156 0.100832,-0.38586 0.100832,-1.01726 0,-1.40312 z M 53.30474,47.61976 c -0.127972,-0.3198 -0.222967,-0.22481 -0.242202,0.24221 -0.0174,0.4226 0.07734,0.65938 0.210556,0.52617 0.133212,-0.13322 0.147452,-0.47899 0.03163,-0.76838 z m 2.933275,-0.24555 c 0,-0.17639 -0.225501,-0.55007 -0.501114,-0.83041 -0.401652,-0.40854 -0.386487,-0.48413 0.07641,-0.38085 0.318436,0.071 0.652674,-0.23084 0.745036,-0.67292 0.09213,-0.44098 0.02449,-0.66331 -0.150278,-0.49407 -0.174785,0.16925 -0.94306,-0.28175 -1.707286,-1.00223 -0.852683,-0.80386 -1.293643,-1.0389 -1.141389,-0.60838 0.344037,0.97282 -0.0042,0.87948 -0.5544,-0.1486 -0.319782,-0.59752 -0.323976,-0.76919 -0.01411,-0.57768 0.872262,0.53909 0.415571,-0.36412 -0.838159,-1.65764 -2.583966,-2.66598 -1.384729,-2.56456 1.311395,0.1109 1.532453,1.52071 2.702481,2.98332 2.600057,3.25023 -0.112269,0.29257 0.04448,0.39677 0.394694,0.26238 0.71124,-0.27293 0.772617,-1.32771 0.07981,-1.37146 -0.400891,-0.0253 -0.400891,-0.0721 0,-0.23385 1.195697,-0.48248 0.25135,-3.15249 -1.32727,-3.75268 -0.629466,-0.23932 -0.977849,-0.68747 -0.977849,-1.25787 0,-0.98923 -1.454043,-2.74177 -2.274779,-2.74177 -0.292301,0 -0.531457,-0.14592 -0.531457,-0.32427 0,-0.17835 -0.264548,-0.67445 -0.587882,-1.10245 -0.525392,-0.69546 -0.579219,-0.23801 -0.506393,4.30344 0.04482,2.79489 0.176789,4.92742 0.293263,4.73896 0.116475,-0.18845 1.291454,0.80675 2.611067,2.21156 2.297369,2.44569 3.000636,2.97999 3.000636,2.27966 z m -1.654701,-2.3853 c -0.498656,-0.63583 -0.484477,-0.65001 0.15136,-0.15136 0.667784,0.52372 0.880148,0.85292 0.550199,0.85292 -0.08325,0 -0.398947,-0.3157 -0.701559,-0.70156 z m -1.202673,-5.21158 c -0.498656,-0.63583 -0.484477,-0.65001 0.15136,-0.15135 0.385858,0.3026 0.701559,0.61831 0.701559,0.70156 0,0.32994 -0.329207,0.11758 -0.852919,-0.55021 z m -2.890487,5.01114 c -0.111211,-0.27561 -0.202206,-0.0501 -0.202206,0.50111 0,0.55123 0.09099,0.77673 0.202206,0.50112 0.111211,-0.27562 0.111211,-0.72662 0,-1.00223 z m 23.265493,0.13021 c 0.873381,0.33206 0.965433,0.2747 0.851099,-0.53039 -0.09262,-0.6522 -0.440876,-0.93857 -1.254888,-1.03191 -1.466612,-0.16816 -2.478552,0.61064 -1.821745,1.40205 0.302797,0.36484 0.606745,0.42741 0.857626,0.17653 0.244443,-0.24444 0.751899,-0.25049 1.367908,-0.0163 z M 55.837124,44.33644 c 0,-0.0832 -0.315702,-0.39895 -0.701559,-0.70155 -0.635837,-0.49866 -0.650017,-0.48449 -0.15136,0.15135 0.523711,0.66779 0.852919,0.88015 0.852919,0.5502 z m -2.806236,-3.25621 c -0.973776,-0.99221 -1.860703,-1.80401 -1.970948,-1.80401 -0.110245,0 0.596281,0.8118 1.570057,1.80401 0.973776,0.9922 1.860703,1.80401 1.970948,1.80401 0.110245,0 -0.596281,-0.81181 -1.570057,-1.80401 z m 5.76079,0.26238 c 0.469651,-0.648 2.174183,-2.73509 3.787857,-4.63799 1.61367,-1.90289 3.823581,-4.97133 4.910913,-6.81875 1.813534,-3.08127 1.976965,-3.57131 1.976965,-5.92772 0,-2.89787 -0.463706,-3.78899 -2.204899,-4.23722 -2.026592,-0.5217 -3.354852,-0.1505 -4.012565,1.12138 -0.792485,1.5325 -0.773291,1.59649 0.478932,1.59649 1.553701,0 2.932296,1.45247 2.932296,3.08944 0,2.12605 -0.941275,3.86844 -4.347681,8.04798 -4.577681,5.61664 -5.179602,6.59766 -4.961189,8.08581 0.202626,1.3806 0.208135,1.37937 1.439371,-0.31942 z m -0.9501,-0.61418 c 0,-0.0833 0.315702,-0.39895 0.701559,-0.70156 0.635837,-0.49866 0.650017,-0.48448 0.151361,0.15135 -0.523712,0.66779 -0.85292,0.88015 -0.85292,0.55021 z m 5.838691,-7.1822 c 0.150547,-0.39536 0.374709,-0.61786 0.498139,-0.49443 0.12343,0.12343 2.57e-4,0.44691 -0.27372,0.71885 -0.395928,0.39298 -0.441974,0.34693 -0.224419,-0.22442 z m 2.179127,-3.06595 c 0,-0.20748 0.178336,-0.48745 0.3963,-0.62216 0.227249,-0.14045 0.294455,0.0205 0.157554,0.37723 -0.266508,0.69451 -0.553854,0.82158 -0.553854,0.24493 z m 0.349753,-9.14393 c -0.498656,-0.63583 -0.484477,-0.65001 0.15136,-0.15135 0.667784,0.5237 0.880148,0.85291 0.550199,0.85291 -0.08324,0 -0.398947,-0.3157 -0.701559,-0.70156 z M 42.342632,33.74247 c -0.98644,-2.79942 -2.537691,-6.48797 -3.44722,-8.19676 -1.47054,-2.76281 -1.780361,-3.10691 -2.797377,-3.10691 -1.472781,0 -3.111691,1.61292 -3.111691,3.06234 0,1.40705 1.266667,3.97438 2.833261,5.74256 0.676571,0.76363 2.418871,3.0493 3.87178,5.07926 2.562662,3.58047 2.66861,3.67317 3.543217,3.10011 l 0.90156,-0.59073 z m 14.856314,5.60057 c 0.113561,-0.18375 -0.04826,-0.33408 -0.359595,-0.33408 -0.311336,0 -0.473155,0.15033 -0.359595,0.33408 0.113556,0.18374 0.275376,0.33407 0.359595,0.33407 0.08422,0 0.246039,-0.15033 0.359595,-0.33407 z m 0.988072,-1.40312 c 0.334752,-0.40335 0.301935,-0.53453 -0.133725,-0.53453 -0.317534,0 -0.484425,0.15034 -0.370864,0.33408 0.113556,0.18374 -0.164979,0.33408 -0.618972,0.33408 -0.978679,0 -0.971848,0.0394 -0.279092,-1.60823 0.32752,-0.77893 0.658134,-1.11851 0.825442,-0.84781 0.153497,0.24837 0.493946,0.4461 0.756545,0.43939 0.2626,-0.007 0.161752,-0.19607 -0.224106,-0.42081 -1.18292,-0.68899 -0.777102,-1.23022 0.447571,-0.59691 1.088952,0.56311 1.199173,0.53927 2.104677,-0.45524 0.525552,-0.57721 0.74251,-0.92725 0.482135,-0.77785 -0.260378,0.14939 -0.578754,0.10118 -0.707504,-0.10714 -0.12875,-0.20832 0.160353,-0.43677 0.642456,-0.50766 0.482103,-0.0709 0.922249,-0.35889 0.978106,-0.64002 0.05586,-0.28112 0.0099,-0.32622 -0.102228,-0.10022 -0.112085,0.226 -0.594657,0.40815 -1.072383,0.40478 -0.628689,-0.004 -0.720902,-0.0998 -0.33387,-0.34511 0.426556,-0.27039 0.399648,-0.39079 -0.133011,-0.59519 -1.111955,-0.4267 -1.627713,-0.31965 -1.083231,0.22483 0.685419,0.68542 0.598959,0.94299 -0.340289,1.01375 -0.660692,0.0498 -0.774573,-0.10999 -0.582193,-0.8167 0.222598,-0.81772 0.20641,-0.8259 -0.23372,-0.11816 -0.84058,1.35166 -2.359996,5.54881 -2.138484,5.90722 0.327031,0.52915 1.617122,0.41545 2.11674,-0.18655 z m 0.656787,-3.47439 c 0.136271,-0.22049 -0.03347,-0.40089 -0.37723,-0.40089 -0.343748,0 -0.624997,-0.15026 -0.624997,-0.3339 0,-0.38132 1.069962,-0.32035 2.102376,0.1198 0.872836,0.37212 0.526755,1.01588 -0.546129,1.01588 -0.44098,0 -0.69029,-0.1804 -0.55402,-0.40089 z m 0.3651,2.06237 c 0.116587,-0.18864 -0.233571,-0.25781 -0.778121,-0.15372 -0.544555,0.1041 -0.990097,0.25844 -0.990097,0.34298 0,0.31019 1.56293,0.1429 1.768218,-0.18926 z M 48.434598,33.88648 c 0.146938,-0.45324 0.264375,-1.27507 0.260976,-1.8263 -0.0057,-0.9279 0.0082,-0.93533 0.187994,-0.10022 0.106797,0.4961 0.362028,0.90201 0.567184,0.90201 0.573073,0 0.442371,-4.42428 -0.196228,-6.64216 -1.064325,-3.69648 -1.55886,-6.78176 -1.524163,-9.50892 0.03375,-2.65456 0.981705,-6.46085 1.723161,-6.91909 0.203633,-0.12585 0.370239,-0.6869 0.370239,-1.24676 V 7.52711 l -1.302895,0.80954 c -1.966791,1.22207 -3.092461,3.44977 -3.10031,6.13555 -0.0068,2.33764 1.623764,10.81441 2.627527,13.65938 0.315152,0.89323 0.558337,1.91709 0.540409,2.27522 -0.0843,1.68408 -2.636242,-7.87471 -3.465084,-12.97913 -0.107411,-0.66147 -0.481258,-1.42818 -0.83077,-1.70379 -1.475696,-1.16367 -4.049179,-0.11983 -4.691129,1.90277 -0.295048,0.92961 0.970553,5.1791 2.378024,7.98467 0.507308,1.01124 1.590334,3.66732 2.406721,5.90241 l 1.484342,4.06379 1.148424,-0.43349 c 0.631636,-0.23841 1.268643,-0.80431 1.415578,-1.25755 z m 4.139948,0.44542 c 0.3315,-0.39944 0.310133,-0.53452 -0.08454,-0.53452 -0.290486,0 -0.528158,0.24053 -0.528158,0.53452 0,0.29399 0.03805,0.53452 0.08454,0.53452 0.0465,0 0.284172,-0.24053 0.528158,-0.53452 z m -0.801453,-2.50623 c 0.158648,0.0981 0.215134,-0.44973 0.125527,-1.21728 -0.204876,-1.75491 -0.319883,-1.62065 -0.556754,0.65001 -0.103506,0.99221 -0.113724,1.48564 -0.02269,1.09651 0.09102,-0.38913 0.295288,-0.62729 0.453933,-0.52924 z m 0.864521,0.82667 c 0.423653,-0.51047 0.398854,-0.56913 -0.15136,-0.358 -0.361921,0.13888 -0.658039,0.41362 -0.658039,0.61052 0,0.51553 0.232064,0.44313 0.809399,-0.25252 z m -1.111775,-5.46221 c 0.05606,-0.80437 0.215267,-1.3936 0.35379,-1.3094 0.13852,0.0842 0.367393,-0.3401 0.508607,-0.94287 0.803032,-3.42779 2.175238,-8.22568 2.205256,-7.71064 0.01928,0.33074 -0.506457,2.67595 -1.168296,5.21158 -1.697476,6.50339 -1.755697,6.81515 -1.272748,6.81515 0.243389,0 0.340677,0.47028 0.228067,1.10245 -0.185974,1.04397 -0.165669,1.06081 0.382838,0.31746 0.31858,-0.43174 0.489015,-1.02009 0.37875,-1.30744 -0.133725,-0.34848 0.01632,-0.43926 0.450589,-0.27261 0.358096,0.13741 0.874283,0.0646 1.147085,-0.16181 0.272807,-0.22641 0.671901,-0.41346 0.886879,-0.41568 0.214978,-0.002 0.454214,-0.24305 0.531634,-0.5352 0.115264,-0.43496 0.07265,-0.4342 -0.235243,0.004 -0.206808,0.29444 -0.536244,0.54291 -0.732079,0.55215 -0.195839,0.009 -0.589354,0.10632 -0.874475,0.21573 -0.285122,0.10942 -0.606452,0.11088 -0.714071,0.003 -0.255035,-0.25504 1.860867,-1.64058 2.505379,-1.64058 0.27271,0 0.414606,-0.13143 0.315325,-0.29206 -0.09928,-0.16064 0.100491,-0.3999 0.443939,-0.53169 0.343443,-0.1318 0.521683,-0.40589 0.396088,-0.60911 -0.125595,-0.20322 -0.02706,-0.43658 0.218995,-0.5186 0.280731,-0.0936 0.203584,-0.35142 -0.207125,-0.69227 -0.571746,-0.47452 -0.623838,-0.44732 -0.412124,0.21509 0.231888,0.72553 0.214978,0.72467 -0.39171,-0.0199 -0.359571,-0.44128 -0.634065,-0.5612 -0.634065,-0.27699 0,0.27674 -0.207257,0.37307 -0.462833,0.21512 -0.270268,-0.16703 -0.354624,-0.11096 -0.202746,0.13478 0.389357,0.63 -0.811696,0.93961 -1.311022,0.33796 -0.510253,-0.61482 -0.104889,-3.13518 0.449179,-2.79274 0.208675,0.12897 0.289339,0.4692 0.179254,0.75608 -0.363355,0.94689 0.222775,0.97803 1.89892,0.10087 0.909782,-0.4761 1.789448,-0.82917 1.954816,-0.7846 0.468156,0.12618 0.35484,-0.49342 -0.238687,-1.30511 -0.506012,-0.69202 -0.536989,-0.67817 -0.501113,0.22404 0.02878,0.72422 -0.14491,0.93029 -0.703548,0.83462 -0.407986,-0.0699 -0.634522,0.0465 -0.503418,0.25866 0.453115,0.73316 -1.050831,0.89868 -1.599214,0.17601 -0.685872,-0.90385 -0.684148,-1.07775 0.03817,-3.85098 0.695205,-2.66907 0.76263,-3.5441 0.205769,-2.67046 -0.263085,0.41275 -0.375595,-0.29732 -0.358749,-2.2642 0.03347,-3.90532 -1.178643,-6.15451 -3.316707,-6.15451 -1.400857,0 -1.421182,0.44245 -0.136631,2.9744 1.331378,2.62428 1.338586,6.52793 0.02277,12.32832 -0.579371,2.55398 -0.960089,5.46225 -0.944643,7.21604 l 0.02586,2.93781 0.545672,-2.2049 c 0.300123,-1.21269 0.591543,-2.86302 0.647607,-3.66738 z m -0.837,1.26204 c 0,-0.55123 0.09099,-0.77673 0.202206,-0.50112 0.111211,0.27561 0.111211,0.72662 0,1.00223 -0.111211,0.27561 -0.202206,0.0501 -0.202206,-0.50111 z m 1.546353,0.10022 c 0.0032,-0.16537 0.239752,-1.08196 0.525343,-2.03688 0.455961,-1.52457 0.584282,-1.65785 1.052723,-1.09341 0.473914,0.57103 0.633909,0.57697 1.433161,0.0533 0.845579,-0.55404 1.392487,-0.47558 1.392487,0.19976 0,0.29238 -3.822928,3.17792 -4.210281,3.17792 -0.109735,0 -0.196781,-0.1353 -0.193433,-0.30067 z m 2.80015,-1.99373 c 0,-0.30444 -1.503557,0.68954 -2.037423,1.34691 -0.351706,0.43307 -0.0717,0.33626 0.734528,-0.25395 0.716592,-0.52459 1.302895,-1.01642 1.302895,-1.09296 z M 54.23356,26.22804 c 0,-0.47361 -0.75798,-0.47271 -0.939804,0.001 -0.148109,0.38596 -0.02862,0.50439 0.358886,0.3557 0.319506,-0.12262 0.580918,-0.28318 0.580918,-0.35682 z m 7.714652,5.13854 c -0.276987,-0.0972 -0.40164,-0.34165 -0.277007,-0.54331 0.218337,-0.35328 -0.640456,-0.54173 -1.765179,-0.38734 -0.297742,0.0409 -0.422395,-0.11815 -0.277012,-0.35339 0.145387,-0.23523 0.09259,-0.4277 -0.11732,-0.4277 -0.445242,0 -0.985775,1.21886 -0.677326,1.52731 0.115437,0.11543 0.209883,0.0163 0.209883,-0.22029 0,-0.2366 0.358773,-0.33636 0.797272,-0.22169 0.438502,0.11468 0.712391,0.34584 0.608648,0.5137 -0.103742,0.16786 0.304188,0.30164 0.906515,0.29729 0.602326,-0.004 0.868514,-0.0874 0.591526,-0.18458 z m 1.877107,-0.67382 c 0.536429,-0.64636 0.419633,-0.74203 -1.768004,-1.44823 -1.392876,-0.44964 -1.495436,-0.55999 -0.801782,-0.86265 0.72107,-0.31463 0.711108,-0.33107 -0.106605,-0.17592 -1.068823,0.20279 -1.05126,0.28115 -0.316359,-1.41155 0.322104,-0.74191 0.592705,-1.04538 0.601336,-0.67438 0.0086,0.371 0.372829,0.78789 0.809331,0.92643 0.816827,0.25925 0.915843,0.97463 0.208587,1.50705 -0.22049,0.16599 3.61e-4,0.2458 0.490783,0.17737 1.535981,-0.21433 1.527847,-0.66874 -0.03688,-2.06081 -1.510449,-1.34378 -1.51372,-1.35348 -0.874495,-2.5896 0.352896,-0.68243 0.535057,-1.24078 0.404803,-1.24078 -0.371922,0 -3.077014,6.06087 -2.819862,6.31802 0.126425,0.12643 0.229863,0.0124 0.229863,-0.25346 0,-0.2754 0.37743,-0.13169 0.877373,0.33408 0.921921,0.8589 1.226005,0.95882 2.530199,0.83139 l 0.801782,-0.0784 -0.801782,0.62077 c -0.44098,0.34142 -0.59837,0.6265 -0.349753,0.63351 0.248612,0.007 0.663274,-0.24179 0.921467,-0.55289 z m -8.202403,-1.37873 c -0.225886,-0.23779 -0.988465,0.36486 -0.988465,0.78116 0,0.21618 0.252405,0.16043 0.560903,-0.12388 0.308497,-0.2843 0.500901,-0.58008 0.427562,-0.65728 z m 9.234252,-0.0601 c 0.136271,-0.22049 0.05672,-0.40089 -0.176784,-0.40089 -0.233503,0 -0.424552,0.1804 -0.424552,0.40089 0,0.22049 0.07955,0.40089 0.176785,0.40089 0.09723,0 0.288281,-0.1804 0.424551,-0.40089 z m 1.136935,-2.30512 c 0.251306,-0.4151 -0.571939,-1.07558 -1.537825,-1.23377 l -0.801782,-0.13132 0.801782,0.63342 c 0.752813,0.59472 0.754917,0.61695 0.03448,0.36386 -0.530402,-0.18633 -0.677822,-0.12475 -0.477457,0.19945 0.322064,0.52111 1.696538,0.63793 1.980822,0.16836 z m -16.204121,-8.8196 -0.03379,-7.9176 -0.790276,1.72008 c -1.006902,2.19158 -1.050623,6.60088 -0.108674,10.96048 0.374893,1.73505 0.745717,3.15463 0.824067,3.15463 0.07835,0 0.127255,-3.56292 0.108678,-7.91759 z m 15.911002,6.38549 c -0.514804,-0.10345 -0.605622,-0.24792 -0.28169,-0.44812 0.360613,-0.22287 0.342248,-0.40816 -0.07475,-0.75424 -0.551061,-0.45734 -0.557431,-0.42513 -0.320336,1.61943 0.01836,0.15844 0.349107,0.16378 0.734965,0.0118 0.647286,-0.25488 0.642784,-0.28806 -0.05819,-0.42892 z m -15.20248,-0.54752 c -0.127972,-0.3198 -0.222967,-0.22481 -0.242202,0.24221 -0.0174,0.4226 0.07734,0.65938 0.210556,0.52616 0.133212,-0.13321 0.147452,-0.47898 0.03163,-0.76837 z m 12.955546,0.47606 c 0.53452,-0.34544 0.53452,-0.38998 0,-0.40089 -0.490502,-0.01 -0.501085,-0.0758 -0.05742,-0.35692 0.379166,-0.24025 0.409522,-0.4277 0.100223,-0.61886 -0.392882,-0.24282 -0.518906,0.0129 -0.40945,0.83073 0.01884,0.14072 -0.206668,0.40856 -0.501114,0.5952 -0.294446,0.18664 -0.354953,0.33935 -0.134463,0.33935 0.22049,0 0.671492,-0.17487 1.002227,-0.38861 z M 50.814158,21.73722 c -0.186062,-1.12512 -0.140885,-1.35205 0.179567,-0.902 0.318347,0.44709 0.378898,0.0872 0.236064,-1.40312 -0.12456,-1.29963 -0.08132,-1.65204 0.122974,-1.00223 0.195254,0.62108 0.296278,-0.44615 0.26563,-2.80623 -0.04175,-3.21553 -0.542514,-5.61247 -1.172538,-5.61247 -0.26569,0 -0.256365,11.86952 0.0099,12.56331 0.439649,1.1457 0.617613,0.73001 0.358437,-0.83726 z m 0.266869,-7.98502 c -0.03003,-0.47808 -0.158416,-1.19968 -0.28531,-1.60357 -0.21841,-0.69518 -0.206311,-0.69631 0.22682,-0.0212 0.251643,0.3922 0.380032,1.1138 0.285306,1.60357 -0.17205,0.88959 -0.172275,0.88961 -0.226816,0.0213 z m 4.576815,8.31993 c -0.124633,-0.20165 -0.09018,-0.44269 0.07656,-0.53563 0.166742,-0.0929 0.07766,-0.11401 -0.197948,-0.0468 -0.275613,0.0672 -0.501114,-0.0526 -0.501114,-0.26615 0,-0.21357 0.191049,-0.38831 0.424552,-0.38831 0.233503,0 0.294109,-0.21106 0.134679,-0.46902 -0.196665,-0.31821 -0.06867,-0.38414 0.398052,-0.20503 0.463599,0.17789 0.594325,0.11253 0.400891,-0.20045 -0.197066,-0.31886 -0.04652,-0.37994 0.480296,-0.19487 0.674406,0.23692 0.690246,0.20876 0.130798,-0.23254 -0.350086,-0.27616 -0.566066,-0.71107 -0.47995,-0.96648 0.278074,-0.82474 -0.511725,-0.91143 -1.011584,-0.11103 -0.409298,0.6554 -0.375074,0.78077 0.22043,0.80751 0.426952,0.0192 0.505527,0.11199 0.199246,0.23538 -0.902525,0.3636 -1.406934,1.72482 -0.876143,2.36438 0.528595,0.63692 0.957925,0.7862 0.601233,0.20906 z m 3.386409,-1.6378 c 0,-0.22049 -0.191049,-0.40089 -0.424552,-0.40089 -0.233502,0 -0.313055,0.1804 -0.176784,0.40089 0.13627,0.22049 0.327319,0.40089 0.424551,0.40089 0.09723,0 0.176785,-0.1804 0.176785,-0.40089 z m -0.03576,-1.67038 c -0.216336,-0.40423 -0.57804,-0.73497 -0.803786,-0.73497 -0.225745,0 -0.280006,0.21106 -0.120576,0.46902 0.200366,0.3242 0.05295,0.38579 -0.477457,0.19946 -0.70839,-0.24885 -0.714576,-0.22843 -0.08051,0.26595 1.057851,0.82481 1.965167,0.70272 1.482334,-0.19946 z m -0.151897,-1.55744 c 0.110405,-0.17864 -0.0105,-0.45534 -0.268637,-0.61488 -0.29314,-0.18118 -0.361972,-0.11632 -0.183323,0.17274 0.167656,0.27128 0.03716,0.46283 -0.315293,0.46283 -0.330735,0 -0.702429,0.16358 -0.825992,0.36351 -0.123562,0.19992 0.139202,0.26835 0.583922,0.15205 0.44472,-0.1163 0.898918,-0.35761 1.009323,-0.53625 z M 57.41588,16.19508 c -0.349613,-0.42125 -0.55911,-0.43281 -0.968095,-0.0534 -0.610376,0.56624 0.0024,1.13277 0.866558,0.80117 0.410027,-0.15735 0.435552,-0.3453 0.101537,-0.74777 z M 34.262765,92.19381 c 0.895799,-2.48106 0.912957,-2.44103 -0.751646,-1.75351 -0.839851,0.34688 -1.84381,0.91228 -2.231018,1.25646 -0.937732,0.83351 -1.409941,0.30134 -0.563015,-0.6345 0.366133,-0.40458 0.665695,-0.85668 0.665695,-1.00469 0,-0.50238 -2.439437,-0.27206 -3.627926,0.34253 -1.35546,0.70093 -1.563302,0.25791 -0.380983,-0.81208 0.44098,-0.39908 0.801782,-0.87804 0.801782,-1.06436 0,-0.49456 -1.580785,-0.38323 -3.30735,0.23294 -1.702423,0.60755 -1.81523,0.45116 -0.701559,-0.97259 0.431174,-0.55122 0.787963,-1.15235 0.792866,-1.33584 0.01199,-0.44864 -3.638229,0.0675 -4.287351,0.60619 -0.828521,0.68762 -0.590625,-0.13979 0.318407,-1.1074 l 0.832827,-0.88651 -1.455454,-0.48034 c -0.800503,-0.26419 -1.914535,-0.36513 -2.47563,-0.2243 -0.737523,0.18511 -0.970524,0.11236 -0.840976,-0.26255 0.222338,-0.64346 2.21147,-0.48367 4.170984,0.33507 1.346585,0.56264 1.385956,0.63029 0.683283,1.17408 -0.672731,0.52062 -0.579255,0.55252 0.955976,0.32621 2.261233,-0.33333 3.271855,0.38166 2.217187,1.56862 -0.700565,0.78844 -0.687937,0.79659 0.80919,0.5224 0.836475,-0.15319 1.886958,-0.16234 2.3344,-0.0203 0.738533,0.2344 0.756661,0.32104 0.196669,0.93983 -0.573258,0.63344 -0.469046,0.68047 1.474064,0.66525 1.567716,-0.0123 2.061749,0.12133 1.974315,0.53392 -0.0812,0.38315 0.101462,0.46202 0.601336,0.25967 3.014327,-1.22023 3.930884,-1.22279 2.922852,-0.008 -0.28333,0.34139 -0.39924,0.73662 -0.257573,0.87828 0.141663,0.14167 0.257573,0.0711 0.257573,-0.15686 0,-0.22794 0.743323,-0.90634 1.651834,-1.50756 1.427312,-0.94455 1.729251,-1.01572 2.221377,-0.5236 0.469571,0.46958 0.481947,0.77523 0.0705,1.74142 l -0.499041,1.17188 -0.144168,-1.3029 c -0.0793,-0.71659 -0.317173,-1.30289 -0.528619,-1.30289 -0.211446,0 -1.224481,0.7667 -2.251182,1.70378 -1.026706,0.93709 -1.769031,1.43319 -1.649622,1.10245 z m 29.324942,-1.06074 c -0.460675,-0.90096 -1.363473,-1.83725 -2.165624,-2.24598 -0.93337,-0.4756 -1.130111,-0.70114 -0.611972,-0.70156 0.419997,-3.4e-4 1.454673,0.72581 2.299282,1.61368 1.312384,1.3796 1.478216,1.46324 1.140602,0.57524 -0.217279,-0.57149 -0.395054,-1.11752 -0.395054,-1.21342 0,-0.68673 3.500223,0.66097 4.087335,1.57377 0.153377,0.23846 0.381404,0.33103 0.506726,0.20571 0.125323,-0.12532 -0.16574,-0.72824 -0.646801,-1.33981 l -0.874664,-1.11195 1.570607,0.18409 c 0.863835,0.10125 1.931408,0.33726 2.372388,0.52447 0.714403,0.30329 0.74182,0.26667 0.251583,-0.33601 -0.302613,-0.37202 -0.386608,-0.67639 -0.186659,-0.67639 0.199948,0 0.679822,0.53541 1.066386,1.18982 l 0.702845,1.18982 -1.718859,-0.78013 c -2.18872,-0.99338 -2.900558,-1.02063 -2.511978,-0.0962 0.162188,0.38585 0.385637,1.15256 0.496551,1.70378 l 0.201668,1.00223 -1.155223,-1.05347 c -2.294856,-2.09271 -3.968964,-2.55235 -3.348052,-0.91923 0.224138,0.58952 0.246071,1.29674 0.05102,1.64527 -0.26939,0.48137 -0.509993,0.28293 -1.132112,-0.93376 z M 49.560259,90.68604 c -0.05424,-0.91689 -0.0064,-0.96469 0.342213,-0.3418 0.223825,0.39996 0.252056,0.8772 0.06305,1.06597 -0.188904,0.18868 -0.370455,-0.13574 -0.405265,-0.72417 z m 9.884883,0.11826 c 0,-0.81642 -1.278898,-3.42138 -1.586406,-3.23133 -0.138387,0.0855 -0.277849,-0.19281 -0.309916,-0.61851 -0.09292,-1.23349 0.200525,-0.92779 1.469722,1.53111 0.910315,1.76362 1.194346,2.07754 1.209099,1.3363 0.01062,-0.53284 0.131147,-0.85695 0.267875,-0.72022 0.360822,0.36082 -0.192772,2.29038 -0.65712,2.29038 -0.216289,0 -0.393254,-0.26448 -0.393254,-0.58773 z m -9.505716,-2.14632 c -0.02882,-0.38236 0.42949,-0.99928 1.018431,-1.37093 0.588941,-0.37166 1.459515,-0.96367 1.934607,-1.31559 1.165458,-0.8633 1.555689,-0.0972 0.436546,0.85697 -0.736857,0.62828 -0.794369,0.63728 -0.342348,0.0536 0.298808,-0.38586 0.36289,-0.70156 0.1424,-0.70156 -0.50841,0 -1.362404,1.00749 -1.087236,1.28266 0.113661,0.11366 -0.102933,0.45786 -0.481322,0.76489 -0.57713,0.4683 -0.634293,0.46912 -0.354776,0.005 0.23042,-0.3825 0.161411,-0.49586 -0.223713,-0.36748 -0.306305,0.1021 -0.556918,0.38107 -0.556918,0.61994 0,0.74969 -0.430669,0.90257 -0.485671,0.1724 z m 23.902717,-0.42563 c 1.096509,-0.19868 1.25565,-0.33667 0.801782,-0.69518 -0.311448,-0.246 -0.836868,-0.54746 -1.167603,-0.6699 -0.53452,-0.19789 -0.53452,-0.22466 0,-0.24094 0.600054,-0.0183 2.405345,1.27494 2.405345,1.72306 0,0.13002 -0.766703,0.21266 -1.703786,0.18363 -1.685754,-0.0522 -1.689306,-0.0554 -0.335738,-0.30067 z M 49.823761,87.02512 c 0,-0.1969 0.296118,-0.47163 0.658038,-0.61051 0.550215,-0.21114 0.575014,-0.15247 0.151361,0.358 -0.577335,0.69564 -0.809399,0.76804 -0.809399,0.25251 z m 10.225555,-0.84008 c -0.140448,-0.22725 0.02049,-0.29445 0.377231,-0.15755 0.694511,0.26651 0.821581,0.55385 0.244928,0.55385 -0.207477,0 -0.487451,-0.17833 -0.622159,-0.3963 z m 5.609634,-0.005 c -0.136271,-0.22049 -0.04607,-0.40089 0.200446,-0.40089 0.246515,0 0.344421,-0.16794 0.217567,-0.37319 -0.126858,-0.20526 -0.01944,-0.50373 0.238727,-0.66328 0.294157,-0.1818 0.36194,-0.11626 0.181575,0.17558 -0.163022,0.26377 -0.0016,0.57553 0.37256,0.71907 0.527837,0.20255 0.553049,0.32142 0.125635,0.59236 -0.706466,0.44783 -1.036631,0.43556 -1.33651,-0.0496 z m 10.59007,0.04 c 1.594471,-0.21655 1.702178,-0.29672 1.083475,-0.80641 -0.980049,-0.80736 -0.148161,-1.22432 2.457858,-1.23192 2.32443,-0.007 2.678661,-0.4177 1.013938,-1.17619 l -1.090736,-0.49698 0.990513,-0.7513 c 0.544786,-0.41322 1.877825,-0.96543 2.962315,-1.22714 1.800709,-0.43454 1.907114,-0.52313 1.226273,-1.02097 -0.878284,-0.64221 -0.474342,-0.72478 0.636747,-0.13014 1.171491,0.62696 0.938658,1.06873 -0.727914,1.38114 -0.826837,0.155 -2.134744,0.54761 -2.906459,0.87247 l -1.403118,0.59067 1.10245,0.80914 c 0.606348,0.44503 1.10245,0.9745 1.10245,1.1766 0,0.2021 -1.172606,0.36745 -2.605791,0.36745 -2.454779,0 -3.425684,0.51233 -2.004454,1.0577 1.277475,0.49022 0.507841,0.94408 -1.503341,0.88655 l -2.104677,-0.0602 z M 62.652269,85.42597 c 0,-0.22049 0.180401,-0.51239 0.400891,-0.64866 0.22049,-0.13627 0.40089,-0.0674 0.40089,0.15313 0,0.22049 -0.1804,0.51238 -0.40089,0.64865 -0.22049,0.13628 -0.400891,0.0674 -0.400891,-0.15312 z m 6.151702,-0.26506 c -0.130566,-0.34024 -0.124901,-0.73111 0.01259,-0.86859 0.137486,-0.13749 0.249972,-0.0289 0.249972,0.24139 0,0.27025 0.178336,0.38115 0.3963,0.24644 0.227249,-0.14045 0.294455,0.0205 0.157554,0.37723 -0.301413,0.78547 -0.51599,0.7864 -0.816406,0.004 z m 4.672351,0.0314 c 0,-0.10248 0.405902,-0.40262 0.902005,-0.66697 0.817905,-0.43581 0.850706,-0.41844 0.351805,0.18634 -0.51227,0.62099 -1.25381,0.90525 -1.25381,0.48063 z M 57.38955,84.27621 c -0.498656,-0.63584 -0.484477,-0.65002 0.15136,-0.15137 0.385858,0.30262 0.701559,0.61832 0.701559,0.70156 0,0.32995 -0.329207,0.11759 -0.852919,-0.55019 z m 3.258264,0.30066 c 0,-0.22049 -0.202951,-0.35579 -0.451002,-0.30066 -0.248051,0.0551 -0.532387,-0.17038 -0.631856,-0.50112 -0.11609,-0.386 -0.06226,-0.44222 0.150334,-0.157 0.182153,0.24438 0.634398,0.39748 1.004989,0.34021 0.43522,-0.0673 0.597468,0.0948 0.458223,0.45768 -0.250894,0.65381 -0.530688,0.73864 -0.530688,0.16089 z m 15.233853,-0.70534 c 0,-0.16746 0.405902,-0.55381 0.902005,-0.85858 0.898801,-0.55214 0.89929,-0.55106 0.138311,0.30446 -0.817047,0.91856 -1.040316,1.03748 -1.040316,0.55412 z M 18.397284,82.80418 c 0.281366,-0.73323 -1.923638,-1.83532 -3.672008,-1.83532 -1.26633,0 -1.139765,-0.94024 0.152158,-1.13034 1.089457,-0.1603 1.089301,-0.3892 -0.0012,-1.54984 -0.479434,-0.51031 -0.672118,-0.92784 -0.428208,-0.92784 0.24391,0 0.817838,0.52574 1.27539,1.16832 l 0.831917,1.16832 -1.105284,0.40359 c -1.054171,0.38493 -1.061459,0.40506 -0.157646,0.43524 0.521206,0.0174 1.652047,0.42755 2.51298,0.91142 1.515151,0.85156 1.809036,1.50622 0.823626,1.83469 -0.293476,0.0978 -0.382494,-0.0858 -0.231883,-0.47824 z m 53.609104,-0.0137 c 0,-0.32104 0.153276,-0.48897 0.340617,-0.37319 0.187336,0.11578 0.236826,0.37844 0.109968,0.5837 -0.324168,0.52452 -0.450585,0.46546 -0.450585,-0.21051 z m 3.073498,-0.64264 c 0,-0.23351 -0.180401,-0.31306 -0.400891,-0.17679 -0.22049,0.13627 -0.400891,-0.004 -0.400891,-0.31042 0,-0.83855 1.033537,-0.67206 1.097479,0.17679 0.03047,0.40423 -0.02361,0.73497 -0.120167,0.73497 -0.09654,0 -0.17553,-0.19105 -0.17553,-0.42455 z m 3.407572,-0.37723 c 0.399083,-0.44098 0.815805,-0.80178 0.92605,-0.80178 0.110245,0 -0.126076,0.3608 -0.525159,0.80178 -0.399083,0.44098 -0.815805,0.80178 -0.92605,0.80178 -0.110245,0 0.126076,-0.3608 0.525159,-0.80178 z m -1.302895,-1.85172 c 0,-0.54336 0.11275,-0.84721 0.250556,-0.67522 0.137807,0.17199 0.365894,0.40501 0.506863,0.51782 0.140965,0.11281 0.02822,0.41666 -0.250557,0.67522 -0.398614,0.3697 -0.506862,0.25912 -0.506862,-0.51782 z m 3.307349,-0.15274 c 0.399083,-0.44098 0.815805,-0.80178 0.92605,-0.80178 0.110245,0 -0.126076,0.3608 -0.525159,0.80178 -0.399083,0.44098 -0.815805,0.80178 -0.92605,0.80178 -0.110245,0 0.126076,-0.3608 0.525159,-0.80178 z m 2.2049,0.17376 c 0,-0.62852 1.457583,-2.24941 2.661571,-2.95979 2.042571,-1.20514 2.151669,-1.00252 0.223641,0.41537 -0.925397,0.68054 -1.682539,1.47305 -1.682539,1.76112 0,0.28807 -0.270602,0.6276 -0.601337,0.75452 -0.330735,0.12691 -0.601336,0.13986 -0.601336,0.0288 z M 81.89503,77.7617 c 0.236005,-0.44098 0.519302,-0.80178 0.629547,-0.80178 0.110245,0 0.0073,0.3608 -0.228656,0.80178 -0.236004,0.44098 -0.519302,0.80178 -0.629547,0.80178 -0.110245,0 -0.0073,-0.3608 0.228656,-0.80178 z m -3.073498,-0.66815 c 0,-0.29399 0.131036,-0.53452 0.291187,-0.53452 0.160152,0 0.383485,0.24053 0.496299,0.53452 0.112815,0.29399 -0.01824,0.53452 -0.291183,0.53452 -0.272966,0 -0.496303,-0.24053 -0.496303,-0.53452 z M 12.641133,76.81563 c -1.240761,-0.6145 -1.140366,-1.12917 0.126321,-0.64757 1.61375,0.61354 1.841652,0.47442 1.213304,-0.74068 -0.737884,-1.4269 -1.546433,-2.10314 -2.610489,-2.18329 -1.184557,-0.0892 -1.037799,-0.69397 0.168414,-0.69397 0.551225,0 1.002227,-0.0992 1.002227,-0.22036 0,-0.5742 -1.233469,-2.48537 -2.166811,-3.35732 -1.4112442,-1.31841 -1.3075538,-1.64088 0.362802,-1.12823 0.771715,0.23685 1.403118,0.58711 1.403118,0.77836 0,0.19126 -0.370198,0.14962 -0.82266,-0.0925 -0.638759,-0.34186 -0.487275,0.0648 0.677622,1.81931 1.076356,1.62111 1.362776,2.34458 1.013632,2.56037 -0.352555,0.21788 -0.250432,0.51357 0.370612,1.07303 1.194579,1.07613 1.743442,2.61799 1.081451,3.03799 -0.604186,0.38333 -0.639437,0.37936 -1.819543,-0.20511 z m 70.45657,-1.05839 c 0.236004,-0.44098 0.519302,-0.80178 0.629547,-0.80178 0.110245,0 0.0073,0.3608 -0.228656,0.80178 -0.236005,0.44098 -0.519302,0.80179 -0.629547,0.80179 -0.110245,0 -0.0073,-0.36081 0.228656,-0.80179 z m 3.26797,0.0475 -1.342275,-0.24789 0.903737,-1.14501 c 0.497052,-0.62976 0.942137,-1.6332 0.989074,-2.22987 0.04694,-0.59668 0.558252,-1.83401 1.136257,-2.74963 0.697337,-1.10465 0.849888,-1.58761 0.453419,-1.43547 -0.936276,0.35929 -0.734568,-1.14618 0.372059,-2.77689 0.795977,-1.17294 0.864016,-1.46921 0.380069,-1.65492 -0.324213,-0.12441 -0.486967,-0.0603 -0.361676,0.1424 0.125294,0.20273 0.01948,0.49734 -0.235111,0.6547 -0.626921,0.38746 -0.09637,-2.51868 0.679943,-3.72439 0.854992,-1.32793 0.664196,-1.65939 -0.296567,-0.51522 l -0.841574,1.00223 0.201239,-2.2049 c 0.110682,-1.2127 0.329721,-2.5657 0.486746,-3.00668 0.274783,-0.77167 0.262692,-0.77392 -0.321883,-0.0601 -1.040188,1.2702 -1.590198,0.39942 -1.326159,-2.09959 0.348987,-3.30297 0.479549,-3.79174 1.064998,-3.98689 0.380225,-0.12674 0.441345,0.037 0.216317,0.57961 -0.538749,1.29899 -1.03872,4.3302 -0.811776,4.92161 0.171489,0.44689 0.408572,0.38485 1.134189,-0.29684 1.266642,-1.18995 1.599382,-1.07794 0.887464,0.29876 -0.33009,0.63832 -0.723332,1.93083 -0.87387,2.87225 l -0.273704,1.71166 0.952777,-0.66735 c 1.503024,-1.05276 1.665284,-0.79261 0.578954,0.92824 -1.014197,1.60659 -1.329394,3.2151 -0.630024,3.2151 0.207477,0 0.488726,-0.1804 0.624997,-0.40089 0.136271,-0.22049 0.439521,-0.40089 0.673894,-0.40089 0.23481,0 0.134655,0.40496 -0.223088,0.902 -0.669452,0.93013 -2.254815,3.76105 -2.254815,4.02635 0,0.0823 0.270602,0.1496 0.601337,0.1496 0.330735,0 0.601336,-0.15034 0.601336,-0.33408 0,-0.18374 0.305992,-0.33407 0.679979,-0.33407 0.525893,0 0.400526,0.29524 -0.553233,1.30289 -1.127366,1.19107 -2.1312,2.73176 -2.1312,3.27097 0,0.11923 0.586302,0.11785 1.302895,-0.003 l 1.302895,-0.21985 -1.002227,0.85392 c -0.551225,0.46965 -1.54343,1.33467 -2.2049,1.92225 l -1.202672,1.06836 1.002227,0.14556 c 0.551225,0.0801 1.173608,0.31068 1.383073,0.51251 0.415628,0.40045 0.373891,0.40078 -1.723121,0.0135 z m 2.120456,-3.46777 c 0.427999,-0.32372 0.597781,-0.58858 0.377291,-0.58858 -0.22049,0 -0.751073,0.26486 -1.179072,0.58858 -0.428,0.32372 -0.597781,0.58859 -0.377291,0.58859 0.22049,0 0.751073,-0.26487 1.179072,-0.58859 z m -8.457214,1.99992 c -0.130566,-0.34025 -0.124901,-0.73112 0.01259,-0.8686 0.137486,-0.13748 0.249972,0.0357 0.249972,0.38477 0,0.34911 0.225501,0.72574 0.501114,0.83695 0.392496,0.15838 0.38977,0.20907 -0.01259,0.23385 -0.282536,0.0174 -0.620523,-0.24673 -0.751086,-0.58697 z m 4.672351,-1.38583 c 0.449944,-0.88196 0.908279,-1.60357 1.018524,-1.60357 0.110245,0 -0.167689,0.72161 -0.617633,1.60357 -0.449944,0.88196 -0.908278,1.60356 -1.018523,1.60356 -0.110245,0 0.167689,-0.7216 0.617632,-1.60356 z M 81.818388,71.726 c -0.123081,-0.32074 0.008,-0.79969 0.291279,-1.06432 0.403697,-0.3771 0.566203,-0.34789 0.751554,0.13512 0.327492,0.85344 0.2967,1.03612 -0.130169,0.7723 -0.201656,-0.12463 -0.439152,-0.009 -0.527765,0.25674 -0.111551,0.33466 -0.229955,0.30395 -0.384899,-0.0998 z m 3.971029,-1.58742 c 0.310137,-1.18597 0.832886,-1.34169 0.611214,-0.18207 -0.104099,0.54455 -0.331753,0.99009 -0.505896,0.99009 -0.174143,0 -0.221537,-0.36361 -0.105318,-0.80802 z M 83.682555,68.1137 c -0.145335,-0.23516 -0.178268,-0.51354 -0.07318,-0.61863 0.105082,-0.10509 0.297886,0.0873 0.428452,0.42756 0.271075,0.70642 0.04005,0.83067 -0.355269,0.19107 z M 11.30336,66.83747 c -0.255191,-0.4961 -0.938041,-1.42593 -1.5174481,-2.0663 -0.8104972,-0.89577 -0.8841008,-1.1038 -0.319117,-0.902 0.403889,0.14426 0.9106391,0.26229 1.1261061,0.26229 0.215471,0 0.28883,0.16655 0.163022,0.37011 -0.125811,0.20357 0.151962,1.01537 0.617276,1.80401 0.46531,0.78864 0.744342,1.4339 0.620078,1.4339 -0.124268,0 -0.43473,-0.40591 -0.689917,-0.90201 z m 75.51702,-1.70378 c 0.0032,-1.10245 0.08087,-1.50587 0.173012,-0.8965 0.09215,0.60938 0.08968,1.51139 -0.0055,2.00446 -0.09516,0.49307 -0.170547,-0.005 -0.16754,-1.10796 z m -75.461232,0.20044 c -0.03965,-0.11024 -0.128349,-0.76827 -0.197106,-1.46229 -0.06876,-0.69402 -0.418045,-1.84924 -0.776193,-2.56716 -0.358148,-0.71792 -0.6511751,-1.38283 -0.6511751,-1.47757 0,-0.3436 1.0029811,0.17176 1.0301091,0.52929 0.01535,0.20212 0.251447,1.14778 0.524694,2.10146 0.273247,0.95369 0.416927,2.03609 0.31929,2.40535 -0.09764,0.36925 -0.209963,0.58117 -0.249619,0.47092 z m 71.939,-0.40089 c 0.136271,-0.22049 0.01163,-0.40365 -0.277007,-0.40703 -0.392003,-0.005 -0.377475,-0.0993 0.05742,-0.37444 0.320208,-0.20256 0.718233,-0.28423 0.884498,-0.18147 0.396637,0.24514 -0.03893,1.36383 -0.531016,1.36383 -0.20991,0 -0.270164,-0.1804 -0.133895,-0.40089 z m -0.728943,-3.06747 c -0.518861,-0.51886 -0.269479,-0.76676 0.829166,-0.82423 0.606348,-0.0317 0.831849,0.0462 0.501114,0.17312 -0.330735,0.12693 -0.70386,0.38685 -0.829167,0.57759 -0.125302,0.19074 -0.350803,0.22382 -0.501113,0.0735 z M 11.30981,61.12478 c -0.02906,-0.22049 -0.0202,-0.99311 0.01964,-1.71693 0.03993,-0.72528 -0.295669,-1.93997 -0.747645,-2.70601 -0.9057651,-1.53516 -0.7734351,-1.66028 0.856639,-0.80995 l 1.10245,0.57509 v -1.59266 c 0,-0.87597 -0.272971,-2.24598 -0.6066,-3.04446 -0.770757,-1.84469 -0.586868,-2.01193 0.746303,-0.67876 l 1.06297,1.06297 V 49.7277 c 0,-1.3675 -0.186747,-2.83531 -0.414995,-3.26179 -0.460142,-0.85978 0.15638,-1.11731 0.673136,-0.28118 0.309191,0.50028 0.227939,6.36933 -0.09261,6.68989 -0.0956,0.0956 -0.431724,-0.17382 -0.746948,-0.59871 -0.513141,-0.69165 -0.549093,-0.53406 -0.34346,1.50551 0.126321,1.25292 0.103362,2.60592 -0.05102,3.00668 -0.265486,0.68918 -0.302035,0.69065 -0.674547,0.0271 -0.216617,-0.38585 -0.584591,-0.70155 -0.817713,-0.70155 -0.246716,0 -0.302853,0.2932 -0.134323,0.70155 0.656483,1.59067 0.930095,3.49994 0.585846,4.08805 -0.200381,0.34234 -0.388094,0.44202 -0.417139,0.22153 z M 82.970556,57.9641 c -0.131299,-0.34216 -0.07867,-0.72103 0.116956,-0.84193 0.511405,-0.31607 0.81623,0.34039 0.440419,0.94846 -0.248905,0.40274 -0.3709,0.37942 -0.557375,-0.10653 z m 3.365924,-0.48075 c 0.01924,-0.46701 0.11423,-0.56201 0.242203,-0.2422 0.115805,0.28939 0.101565,0.63516 -0.03163,0.76837 -0.133216,0.13321 -0.227962,-0.10356 -0.210556,-0.52617 z m -0.614221,-2.81379 c -0.37713,-2.01028 -0.01167,-2.14062 0.487528,-0.17388 0.225874,0.88988 0.269539,1.61796 0.09703,1.61796 -0.172507,0 -0.43556,-0.64983 -0.584558,-1.44408 z m -3.225892,0.6423 c 0.136271,-0.22049 0.55282,-0.39813 0.925665,-0.39475 0.584206,0.005 0.594789,0.0598 0.07656,0.39475 -0.785093,0.50737 -1.315796,0.50737 -1.002227,0 z M 81.60143,54.74375 c 0.05124,-0.42272 0.363756,-0.84235 0.694491,-0.93253 0.386772,-0.10546 0.443979,-0.0458 0.160333,0.16722 -0.242551,0.18216 -0.55507,0.60179 -0.694488,0.93253 -0.178108,0.42252 -0.225786,0.37279 -0.160336,-0.16722 z m 0.08071,-3.06004 c -0.368202,-0.59576 -0.07537,-0.80667 0.567966,-0.40907 0.344658,0.21301 0.385661,0.41961 0.116315,0.58607 -0.228793,0.14141 -0.536721,0.0618 -0.684281,-0.177 z m 4.059056,-0.68143 c -0.119221,-0.38585 -0.138543,-1.69376 -0.04293,-2.90646 0.09561,-1.21269 0.181002,-2.3209 0.189754,-2.46267 0.0087,-0.14178 0.278771,-0.35865 0.600037,-0.48193 0.456948,-0.17534 0.511433,-0.0319 0.25026,0.65867 -0.183624,0.48555 -0.465927,1.84825 -0.627342,3.02823 -0.290084,2.12061 -0.282588,2.14195 0.648605,1.8464 0.84042,-0.26674 0.883047,-0.22787 0.395022,0.36016 -0.703988,0.84825 -1.14227,0.83511 -1.413406,-0.0424 z m -2.16368,-3.02185 c -0.434417,-0.98207 -0.990693,-1.90972 -1.236167,-2.06143 -0.245477,-0.15171 -0.44632,-0.46992 -0.44632,-0.70714 0,-0.23721 0.335293,-0.001 0.745096,0.52478 1.015264,1.30273 2.16439,3.59224 1.923751,3.83288 -0.108076,0.10808 -0.551938,-0.60701 -0.98636,-1.58909 z m -69.019404,0.43972 c -0.007,-0.37284 0.148594,-0.77761 0.345796,-0.89949 0.517458,-0.31981 0.772882,-3.459 0.377243,-4.63642 -0.325267,-0.96798 -0.303695,-0.96241 0.631435,0.16319 l 0.968207,1.16541 0.433079,-1.5663 c 0.238189,-0.86147 0.492935,-2.10751 0.566098,-2.76898 l 0.133023,-1.20267 0.518031,1.32507 c 0.517094,1.32266 0.519142,1.32348 1.128973,0.45283 0.336015,-0.47973 0.827832,-1.6068 1.092917,-2.5046 0.467848,-1.58449 0.489925,-1.60071 0.752869,-0.55306 0.373109,1.48658 0.846425,1.35856 2.308891,-0.62447 l 1.25652,-1.70379 -0.218072,1.7369 c -0.229603,1.82871 -0.506334,2.38524 -0.960318,1.93125 -0.150671,-0.15066 -0.06047,-0.48741 0.200445,-0.74833 0.260912,-0.26091 0.474386,-0.65532 0.474386,-0.87646 0,-0.22114 -0.721603,0.30256 -1.603563,1.16377 -1.546737,1.51035 -1.603876,1.53099 -1.612367,0.58247 -0.0074,-0.82304 -0.127732,-0.72192 -0.738249,0.6202 -0.401195,0.88196 -1.028638,1.85115 -1.394314,2.15377 -0.586099,0.48501 -0.670378,0.43751 -0.711373,-0.40089 -0.03929,-0.80347 -0.07333,-0.82665 -0.21934,-0.14932 -0.320063,1.48481 -1.447019,3.78824 -1.759045,3.59539 -0.170174,-0.10517 -0.42864,0.51451 -0.574368,1.37707 -0.297124,1.75867 -1.374025,3.5838 -1.396904,2.36746 z m 64.530681,-0.081 c 0,-0.0867 0.27997,-0.26499 0.622159,-0.3963 0.356761,-0.1369 0.517678,-0.0697 0.37723,0.15755 -0.235427,0.38094 -0.999389,0.56344 -0.999389,0.23875 z m 5.60255,-2.07344 c -0.215033,-0.56558 -0.390968,-1.46192 -0.390968,-1.99187 0,-0.66871 -0.174596,-0.89655 -0.570592,-0.7446 -0.67019,0.25718 -1.456718,-1.02796 -1.866881,-3.05035 -0.256033,-1.26244 -0.313569,-1.31269 -0.573867,-0.50112 -0.159114,0.49611 -0.417215,0.90201 -0.573555,0.90201 -0.365893,0 -1.788542,-1.5698 -2.361528,-2.60579 -0.385961,-0.69784 -0.445029,-0.71083 -0.45564,-0.10022 -0.01836,1.05577 -0.637204,0.84929 -1.802293,-0.60134 l -1.046434,-1.3029 0.270185,1.1468 c 0.250705,1.06412 0.201227,1.12613 -0.68641,0.86026 -0.526125,-0.15759 -1.372927,-0.54934 -1.881781,-0.87056 -0.844405,-0.53303 -0.914416,-0.52063 -0.801782,0.14196 0.146269,0.86049 -1.271638,1.201 -2.370632,0.56931 -0.536753,-0.30851 -0.329913,-0.34978 0.836439,-0.16686 1.474139,0.23118 1.527779,0.20235 1.102449,-0.59238 -0.54748,-1.02298 -0.587754,-2.22502 -0.06369,-1.90113 0.21086,0.13032 0.280972,0.50381 0.15581,0.82999 -0.153758,0.40068 -0.03889,0.52063 0.354171,0.36981 0.319959,-0.12278 0.813135,0.0556 1.095948,0.39634 0.282812,0.34077 0.821674,0.61958 1.197469,0.61958 0.531148,0 0.643967,-0.26775 0.50675,-1.20267 -0.09708,-0.66147 -0.09037,-1.20267 0.01491,-1.20267 0.105282,0 0.705383,0.74164 1.333551,1.64809 l 1.14213,1.64809 0.367818,-1.10345 0.367817,-1.10346 0.731959,1.59664 c 1.063744,2.32038 1.732891,2.76287 2.299041,1.52031 0.610717,-1.34038 1.274187,-1.26553 1.274187,0.14376 0,0.62856 0.204338,1.72901 0.454085,2.44543 l 0.454085,1.30259 0.974273,-1.14254 c 0.535851,-0.6284 0.809467,-0.80723 0.60804,-0.39741 -0.346398,0.70479 -0.06548,3.22861 0.530607,4.76711 0.1495,0.38586 0.157851,0.70156 0.01856,0.70156 -0.139293,0 -0.429194,-0.46274 -0.644228,-1.02832 z m -6.01325,-0.59357 c -0.405365,-0.75743 -0.375795,-0.7807 0.386783,-0.30446 0.86754,0.54178 1.094997,1.12457 0.438912,1.12457 -0.212733,0 -0.584295,-0.36905 -0.825695,-0.82011 z m 2.415155,0.39556 c 0,-0.2335 0.180401,-0.31306 0.400891,-0.17679 0.220489,0.13628 0.40089,0.32732 0.40089,0.42456 0,0.0972 -0.180401,0.17678 -0.40089,0.17678 -0.22049,0 -0.400891,-0.19105 -0.400891,-0.42455 z m -3.954316,-2.28486 c -0.04964,-1.18777 0.01451,-1.26313 0.707188,-0.83055 0.438763,0.27401 0.664023,0.73049 0.531232,1.07653 -0.186041,0.48482 -0.284756,0.45168 -0.51138,-0.17167 -0.25192,-0.69293 -0.300997,-0.66928 -0.476639,0.22976 -0.167625,0.85797 -0.203665,0.81421 -0.250401,-0.30407 z m 3.148132,-0.51295 c -0.548803,-0.66986 -1.764529,-1.66967 -2.701611,-2.22181 -0.937083,-0.55213 -1.703787,-1.09186 -1.703787,-1.1994 0,-0.10753 0.724322,0.21577 1.609601,0.71846 1.68757,0.95825 4.845977,3.92066 4.180053,3.92066 -0.212536,0 -0.835448,-0.54807 -1.384256,-1.21791 z M 69.066522,42.507 c 0,-0.20747 0.178336,-0.48745 0.3963,-0.62216 0.227249,-0.14044 0.294455,0.0205 0.157554,0.37723 -0.266508,0.69452 -0.553854,0.82159 -0.553854,0.24493 z M 32.182609,42.09214 c 0.514468,-0.32524 0.486073,-0.46728 -0.200445,-1.0026 -0.753258,-0.58737 -0.735639,-0.59621 0.30262,-0.15193 1.247188,0.53369 1.395646,0.94655 0.468325,1.3024 -0.944908,0.36259 -1.252034,0.28299 -0.5705,-0.14787 z m 41.89909,-0.81803 c 0.138492,-0.22408 0.419741,-0.30364 0.624997,-0.17678 0.556052,0.34366 0.45237,0.58421 -0.251807,0.58421 -0.343748,0 -0.511681,-0.18334 -0.37319,-0.40743 z M 30.169709,39.865 c -0.421051,-0.50733 -0.37739,-0.71965 0.251579,-1.22343 0.731658,-0.58602 0.726214,-0.59998 -0.140957,-0.36134 -1.570891,0.43228 -2.548331,-0.12528 -2.347773,-1.33924 0.09744,-0.5898 0.191998,-1.20767 0.210131,-1.37304 0.01812,-0.16536 0.200774,-0.30066 0.40587,-0.30066 0.223356,0 0.235202,0.48015 0.02954,1.19727 -0.41855,1.45939 -0.06337,1.7321 1.800534,1.38243 1.171475,-0.21977 1.374177,-0.15949 1.178494,0.35045 -0.129984,0.33873 -0.513304,0.72215 -0.851825,0.85206 -0.496804,0.19064 -0.520011,0.35122 -0.120359,0.83277 0.272321,0.32813 0.404928,0.5966 0.294683,0.5966 -0.110245,0 -0.429703,-0.27624 -0.70991,-0.61387 z m 41.246347,-0.16528 c 0.520533,-0.45343 1.151936,-0.82165 1.403118,-0.81828 0.478415,0.006 -0.187822,0.53701 -1.547752,1.2326 -0.630108,0.32229 -0.599139,0.23358 0.144634,-0.41432 z M 25.970754,37.52221 c 0.66147,-0.56288 1.383074,-1.02417 1.603564,-1.02508 0.457552,-0.002 -0.80618,1.03292 -2.004455,1.64138 -0.44098,0.22392 -0.260579,-0.0534 0.400891,-0.6163 z M 59.300168,25.04457 c 0.126918,-0.33074 0.413943,-0.60134 0.637841,-0.60134 0.234645,0 0.195683,0.25473 -0.09198,0.60134 -0.274486,0.33073 -0.561516,0.60134 -0.637842,0.60134 -0.07632,0 -0.03496,-0.27061 0.09198,-0.60134 z m 1.379297,-3.24053 c 0.01924,-0.46702 0.11423,-0.56201 0.242202,-0.24221 0.115805,0.2894 0.101566,0.63516 -0.03163,0.76838 -0.133216,0.13321 -0.227963,-0.10357 -0.210556,-0.52617 z m 0.36924,-1.34606 c 0,-0.20747 0.178337,-0.48745 0.396301,-0.62215 0.227249,-0.14045 0.294454,0.0205 0.157554,0.37723 -0.266508,0.69451 -0.553855,0.82158 -0.553855,0.24492 z m 0.432541,-2.66285 c 0.01924,-0.46702 0.11423,-0.56201 0.242203,-0.24221 0.115805,0.2894 0.101565,0.63516 -0.03163,0.76838 -0.133216,0.13321 -0.227962,-0.10357 -0.210556,-0.52617 z m -1.28546,-3.27395 c -0.498656,-0.63583 -0.484477,-0.65001 0.15136,-0.15135 0.667784,0.52371 0.880148,0.85291 0.550199,0.85291 -0.08324,0 -0.398947,-0.3157 -0.701559,-0.70156 z"
     style="fill:#000000;stroke-width:0.40089086" />
</svg>
