<?xml version="1.0" encoding="UTF-8" standalone="no"?>
<svg
   xmlns:dc="http://purl.org/dc/elements/1.1/"
   xmlns:cc="http://creativecommons.org/ns#"
   xmlns:rdf="http://www.w3.org/1999/02/22-rdf-syntax-ns#"
   xmlns:svg="http://www.w3.org/2000/svg"
   xmlns="http://www.w3.org/2000/svg"
   id="svgMR13"
   version="1.1"
   viewBox="0 0 100 100"
   height="100"
   width="100">
  <defs
     id="defs2" />
  <metadata
     id="metadata5">
    <rdf:RDF>
      <cc:Work
         rdf:about="">
        <dc:format>image/svg+xml</dc:format>
        <dc:type
           rdf:resource="http://purl.org/dc/dcmitype/StillImage" />
        <dc:title></dc:title>
      </cc:Work>
    </rdf:RDF>
  </metadata>
  <path
     d="m 72.457298,5.0014171 c -0.84956,0.02521 -1.87679,0.394819 -3.44571,1.204944 -4.09927,2.116695 -8.08091,6.3831519 -10.66137,11.4239669 -1.19774,2.33974 -2.17771,3.933995 -2.17771,3.542781 0,-1.46251 2.57286,-7.203085 4.31539,-9.628556 1.7317,-2.4103959 1.75303,-2.4941909 0.52842,-2.0285899 -2.31378,0.8796959 -6.72397,4.4895549 -8.55371,7.0014919 -3.21254,4.410291 -4.12573,6.733985 -4.39045,11.170766 -0.19523,3.272042 -0.33976,3.835778 -0.72257,2.818212 -1.13547,-3.018202 1.27439,-11.881937 4.0722,-14.978754 0.44557,-0.493187 0.58857,-0.896704 0.31824,-0.896704 -1.125,0 -5.23989,3.093405 -7.3988,5.561364 -3.97009,4.538413 -5.71888,12.207487 -3.82,16.752147 0.81238,1.944269 0.63427,3.150575 -0.2592,1.755377 -1.60282,-2.502873 -1.92696,-7.547001 -0.73658,-11.471002 0.42019,-1.385117 0.63046,-2.652111 0.46737,-2.815209 -0.40651,-0.406504 -2.96799,2.776696 -4.54157,5.643428 -2.95165,5.377295 -3.41574,11.060765 -1.19994,14.70454 0.56599,0.930743 0.89358,1.828555 0.72758,1.994565 -0.41547,0.41547 -2.22422,-1.845313 -2.83623,-3.544781 -0.54524,-1.514058 -0.44339,-7.40212 0.17113,-9.877752 l 0.3813,-1.537206 -1.07084,1.537206 c -0.58902,0.845464 -1.77539,3.222882 -2.63607,5.282145 -2.92417,6.996425 -2.10386,13.387888 2.19673,17.12544 0.88503,0.769166 1.46395,1.543402 1.28701,1.72035 -0.63726,0.637254 -5.3574,-4.719532 -6.15883,-6.989486 -0.44242,-1.253097 -0.82243,-1.848542 -0.84467,-1.323038 -0.0727,1.716293 2.70674,6.057158 4.99992,7.808128 2.21002,1.687472 2.24517,1.76178 2.35685,5.026945 0.0624,1.823127 0.41214,3.675059 0.77661,4.114229 0.85768,1.033438 -0.0258,1.066707 -1.92251,0.07306 -2.15365,-1.128279 -4.5541,-3.898474 -5.77753,-6.668233 -1.206,-2.730282 -1.43866,-5.793623 -0.83966,-11.053675 0.31176,-2.737634 0.26808,-3.148158 -0.2492,-2.305809 -0.38886,0.63324 -0.63638,3.08052 -0.6475,6.405026 -0.02,5.961567 0.77122,8.280301 3.98012,11.657148 0.87037,0.915919 1.32497,1.665307 1.00979,1.665307 -0.92517,0 -4.76604,-4.739248 -5.095,-6.286933 -0.16597,-0.780871 -0.52955,-1.5605 -0.80763,-1.73236 -0.32191,-0.198961 -0.42995,1.061771 -0.29723,3.469723 0.25524,4.631193 2.28413,9.464554 4.95689,11.811269 2.33618,2.051197 6.01236,3.672933 8.14339,3.59282 0.9187,-0.03454 1.67031,0.161102 1.67031,0.434341 0,1.32564 -6.55626,-0.12948 -9.39338,-2.084636 -0.89315,-0.615508 -2.25736,-1.937688 -3.03237,-2.938307 -1.13499,-1.465393 -1.40911,-1.621007 -1.40911,-0.802629 0,1.718187 1.62116,5.956277 3.12345,8.164407 1.92368,2.827507 4.58633,5.091135 6.8784,5.847589 2.99242,0.987583 7.46947,0.438646 9.98183,-1.223961 2.65521,-1.757129 3.27993,-1.429281 0.83266,0.437344 -4.10148,3.128348 -10.83422,4.141669 -13.21337,1.98856 -1.79516,-1.624597 -0.93251,0.132457 0.97976,1.995566 2.24662,2.188859 5.88239,3.915712 9.06412,4.305379 5.60678,0.686655 12.47493,-3.55674 13.71277,-8.472649 0.3238,-1.285945 0.68847,-2.038793 0.81063,-1.672313 0.12216,0.366476 -0.0798,1.744123 -0.44835,3.060402 -0.96522,3.447405 -4.54475,6.902135 -8.09536,7.812131 -2.0769,0.532293 -2.48352,0.783606 -1.76238,1.091856 1.84275,0.787676 7.58791,0.09434 10.58331,-1.277001 3.19834,-1.464251 7.89802,-5.908216 9.24125,-8.738858 1.18174,-2.490336 1.08493,-6.810331 -0.20616,-9.219235 l -1.04582,-1.951532 1.24297,-0.977767 c 1.94007,-1.526062 3.04725,-4.854474 2.65609,-7.985267 -0.36386,-2.912201 0.10582,-3.642474 1.76938,-2.75216 0.82557,0.441829 1.03582,0.397226 1.03582,-0.21717 0,-0.474587 -0.29539,-0.656963 -0.76861,-0.475373 -0.42273,0.162221 -0.7686,0.08887 -0.7686,-0.163128 0,-0.6664 2.14408,-0.722918 2.92229,-0.07706 0.49929,0.41437 0.66453,0.33609 0.66453,-0.314246 0,-1.728379 -1.02378,-2.847234 -2.60405,-2.847234 -1.50248,0 -1.53334,-0.04972 -1.19494,-1.921508 0.44296,-2.450066 0.39562,-2.416436 1.96355,-1.389091 1.13347,0.742686 1.55766,0.775912 2.88726,0.225177 1.59426,-0.660362 3.04739,-2.786996 3.04739,-4.460501 0,-0.51493 -0.35891,-1.449278 -0.79762,-2.075628 -1.19586,-1.707327 -5.4007,-1.613725 -7.74208,0.172135 -1.94145,1.480823 -3.75795,4.670677 -3.75795,6.598178 0,1.158269 -0.15562,1.257884 -1.5362,0.98177 -2.81202,-0.562407 -4.10617,1.683722 -1.82944,3.175492 0.96975,0.635405 1.4819,0.691139 2.30581,0.250197 0.93312,-0.499388 1.05983,-0.421965 1.05983,0.655514 0,1.390839 -2.43402,4.178103 -4.11523,4.711698 -1.48598,0.47163 -2.71713,-0.786872 -2.71713,-2.77718 0,-0.846488 -0.16637,-1.436439 -0.36929,-1.311029 -0.7737,0.478174 -1.75822,-1.547123 -2.34184,-4.81678 l -0.60647,-3.398667 -0.049,2.582026 c -0.0301,1.580879 0.31545,3.297215 0.8917,4.427475 0.90934,1.783651 0.90936,1.887331 0.011,3.055398 -0.51132,0.664842 -0.93449,1.496174 -0.94074,1.84845 -0.0199,1.122151 -0.9292,0.692787 -2.14368,-1.012794 -1.79158,-2.516043 -1.96294,-7.72058 -0.35929,-10.931579 0.66366,-1.328833 1.69777,-2.738295 2.29781,-3.131457 1.46598,-0.96055 3.40141,-1.293555 3.79698,-0.653514 0.52936,0.856532 2.01829,-0.04635 2.36685,-1.435126 0.24054,-0.958369 0.0489,-1.509375 -0.73857,-2.120664 -0.97689,-0.758317 -1.03107,-1.124254 -0.65452,-4.4595 0.78925,-6.990588 3.67303,-12.507815 6.53713,-12.507815 1.0512,0 1.25094,0.19834 1.03481,1.024804 -0.38307,1.464889 0.38571,1.267418 1.09086,-0.280219 0.90758,-1.991921 0.71989,-3.279752 -0.55744,-3.813994 -3.09404,-1.294081 -3.49261,-2.522709 -2.19972,-6.783323 1.00604,-3.315342 3.10906,-6.887456 5.58938,-9.4904479 2.13305,-2.23854 4.33642,-3.005509 3.67989,-1.281007 -0.26353,0.692231 -0.20231,0.759087 0.26921,0.291229 0.89521,-0.888265 0.2113,-2.13081 -1.39509,-2.533984 -0.25732,-0.06458 -0.52045,-0.09347 -0.80363,-0.08507 z m 0.64951,0.487384 c 0.43828,-0.01415 -0.005,0.379737 -1.59626,1.641289 -1.46126,1.158534 -3.12597,3.2523259 -4.43248,5.5753739 -2.55159,4.536893 -3.38921,7.072752 -3.11444,9.426397 0.17664,1.51302 0.0688,1.753625 -0.69755,1.553219 -0.49887,-0.130456 -1.17448,0.08474 -1.50118,0.478376 -0.32669,0.393637 -1.10428,0.715561 -1.72735,0.715561 -0.62308,0 -1.29313,0.161243 -1.48917,0.35728 -0.19604,0.196038 -0.63765,0.40381 -0.98177,0.462363 -0.34412,0.05855 -0.97136,0.206307 -1.3941,0.328258 -0.42246,0.121949 -0.61226,0.130414 -0.42132,0.01902 0.19093,-0.111399 0.25601,-1.05349 0.14511,-2.093643 -0.18984,-1.780547 -0.17675,-1.801554 0.23218,-0.354278 0.43238,1.53023 0.43504,1.531002 0.49539,0.180141 0.10332,-2.312783 4.5404,-10.481046 7.1306,-13.127303 2.34583,-2.3966099 5.65629,-4.3257949 8.62977,-5.0289469 0.33224,-0.07856 0.57647,-0.128381 0.72257,-0.133104 z m -12.95117,5.0539619 -2.00457,3.965114 c -2.07299,4.100892 -3.51576,8.788832 -3.51576,11.420964 0,1.142117 -0.23817,1.512187 -0.97076,1.512187 -0.5335,0 -1.10278,0.345871 -1.265,0.768603 -0.16221,0.422732 -0.61959,0.768603 -1.01679,0.768603 -0.3972,0 -1.0742,0.518807 -1.50519,1.152905 -0.72663,1.069084 -0.81113,1.085801 -1.1559,0.222174 -0.69788,-1.748132 0.16847,-6.312967 1.81843,-9.581519 1.73032,-3.427742 5.57086,-7.858259 8.09535,-9.338324 z m -9.71863,5.114017 -1.42912,2.690111 c -1.87373,3.527327 -2.74898,7.46355 -2.45293,11.033659 0.22364,2.696753 0.1355,2.989522 -1.34805,4.446489 -0.87354,0.857883 -2.01285,2.061464 -2.53198,2.675099 -0.92497,1.093353 -0.9224,1.110367 0.12809,0.835656 0.58959,-0.154179 1.07184,-0.620567 1.07184,-1.036813 0,-0.416247 0.43918,-0.872213 0.97677,-1.012795 0.53759,-0.140582 1.09238,-0.695381 1.23297,-1.232968 0.15161,-0.57977 0.70481,-0.977767 1.35907,-0.977767 0.60666,0 0.96011,-0.231054 0.78561,-0.513403 -0.1745,-0.282349 0.24165,-0.725068 0.92473,-0.984773 0.68307,-0.259704 1.38172,-0.835684 1.55222,-1.280004 0.1705,-0.44432 0.77857,-0.808635 1.35105,-0.808635 0.57375,0 1.04082,-0.337794 1.04082,-0.75259 0,-0.458401 0.30042,-0.637019 0.7686,-0.457359 0.42274,0.162217 0.76861,0.09606 0.76861,-0.147116 0,-0.243177 0.74939,-0.748638 1.6653,-1.122881 0.91592,-0.374243 2.18354,-0.93038 2.81722,-1.23597 0.63367,-0.30559 1.30466,-0.402682 1.49117,-0.21617 0.18651,0.186513 0.66889,-0.13127 1.07184,-0.706554 0.51774,-0.739174 0.91421,-0.894632 1.35306,-0.530416 0.34155,0.283461 1.12794,0.382158 1.74737,0.220173 0.79598,-0.208155 1.12689,-0.06517 1.12689,0.486381 0,0.528122 0.33127,0.693763 1.0248,0.512402 0.83198,-0.217568 1.0248,-0.01565 1.0248,1.072842 0,1.413224 -0.4682,1.692492 -1.35206,0.808635 -0.34241,-0.342412 -0.9708,-0.363909 -1.76738,-0.06105 -0.67999,0.258531 -1.35126,0.463268 -1.49217,0.455357 -1.0461,-0.05871 -4.81102,2.554435 -6.97147,4.838798 -2.93226,3.100429 -4.10783,6.465309 -3.65688,10.466213 0.14072,1.248422 0.0536,2.39591 -0.19415,2.549 -0.47279,0.292292 -0.68424,-1.877271 -0.47737,-4.90685 0.16041,-2.349223 1.82088,-7.066605 2.91128,-8.271492 1.02566,-1.133339 0.57466,-1.261817 -0.70155,-0.200157 -0.49641,0.412955 -1.82403,1.417696 -2.95132,2.232752 -4.56457,3.300305 -7.01582,10.246764 -5.17206,14.659505 0.45618,1.091783 0.96084,1.854374 1.12088,1.694329 0.16005,-0.160044 0.0553,-0.731965 -0.23317,-1.270997 -0.28849,-0.539032 -0.68024,-2.14867 -0.86969,-3.576807 -0.30486,-2.298184 -0.15623,-2.948898 1.28901,-5.660442 1.62213,-3.043411 4.86169,-6.722401 5.42426,-6.159834 0.16164,0.161642 -0.0395,1.09083 -0.44635,2.06462 -1.08754,2.602857 -1.52231,6.67236 -0.93874,8.785895 0.40482,1.466107 0.36745,1.851453 -0.18114,1.851453 -0.38103,0 -0.83216,0.44016 -1.00279,0.977767 -0.17063,0.537608 -0.64783,1.106892 -1.05983,1.264993 -0.412,0.158101 -0.74859,0.541873 -0.74859,0.852669 0,0.310796 -0.30302,0.867466 -0.67253,1.236971 -0.55416,0.554169 -0.88504,0.359927 -1.89148,-1.10887 -1.29884,-1.895536 -1.56218,-4.685321 -0.81063,-8.60075 l 0.3933,-2.046606 -1.89348,2.75216 c -3.01319,4.380408 -3.48553,5.915737 -3.08142,10.016861 0.34892,3.541015 1.17363,5.834021 2.73915,7.617978 0.44466,0.506709 0.89367,1.313743 0.99779,1.793407 0.1041,0.47967 0.26216,1.217556 0.35127,1.640288 0.65323,3.09888 0.98333,4.15619 1.37208,4.39645 0.60946,0.376667 0.56406,1.239973 -0.0651,1.239973 -1.0339,0 -4.72772,-3.846535 -5.8726,-6.115799 -1.41786,-2.810347 -2.06848,-6.979912 -1.36507,-8.743862 0.50208,-1.25915 0.51045,-1.261227 0.54242,-0.111088 0.0457,1.646559 1.41928,4.752892 2.70813,6.124807 1.74669,1.859272 2.19662,1.335601 0.50639,-0.589463 -1.69998,-1.936166 -2.69243,-4.458832 -2.83322,-7.202652 -0.13078,-2.548615 -0.65476,-2.242068 -1.38709,0.810636 -1.38556,5.775645 1.34491,13.010918 5.81957,15.422103 1.34622,0.725418 1.43918,0.878923 0.54643,0.896704 -1.46202,0.02916 -4.29377,-1.951692 -5.63442,-3.941093 -1.53341,-2.275414 -1.76448,-1.644553 -0.64251,1.756378 2.72455,8.258626 8.6973,12.495654 15.47614,10.978616 2.15265,-0.481741 3.21862,-1.064234 4.39045,-2.398882 0.86697,-0.987425 2.0346,-1.762384 2.65509,-1.762384 0.98267,0 1.07374,0.205245 0.81163,1.820429 -0.29713,1.830981 -2.15285,4.303942 -3.24254,4.32039 -0.32213,0.0049 -0.72727,0.378683 -0.90071,0.830652 -0.17631,0.459471 -0.64468,0.694878 -1.06283,0.534419 -0.41134,-0.157845 -0.8944,-0.05054 -1.07285,0.238188 -0.17843,0.288723 -0.66719,0.393219 -1.08685,0.232182 -0.41965,-0.161038 -1.03122,-0.125899 -1.35806,0.07906 -1.40266,0.879589 -6.64081,0.424234 -7.53692,-0.655515 -0.3368,-0.405817 -0.89404,-0.738579 -1.23897,-0.738579 -0.94545,0 -3.85903,-1.54973 -3.85903,-2.052611 0,-0.242193 -0.40352,-0.573075 -0.8967,-0.735578 -0.78695,-0.259301 -3.30398,-4.683942 -3.28358,-5.77253 0.004,-0.223059 -0.33659,-0.786777 -0.75759,-1.251982 -0.53656,-0.592895 -0.59517,-0.950722 -0.19516,-1.19794 0.37055,-0.229013 0.39816,-0.56147 0.0791,-0.947744 -0.27028,-0.327184 -0.65679,-1.517791 -0.85967,-2.645076 -0.20287,-1.127284 -0.53744,-2.280189 -0.74258,-2.56201 -0.41731,-0.573281 -0.26783,-3.750336 0.19815,-4.216309 0.16514,-0.165132 0.0437,-0.609571 -0.27021,-0.987775 -0.41974,-0.505734 -0.4185,-0.872387 0.007,-1.385087 0.31821,-0.38341 0.64331,-1.665761 0.72257,-2.849236 0.0792,-1.183476 0.44895,-2.339297 0.82064,-2.569016 0.50339,-0.31111 0.52234,-0.512183 0.0751,-0.788619 -0.43916,-0.271417 -0.38138,-0.612913 0.21417,-1.270997 0.44788,-0.494908 0.68294,-1.242968 0.52241,-1.661305 -0.16053,-0.418336 0.0638,-1.055631 0.49939,-1.417111 0.43556,-0.361481 0.79262,-0.982013 0.79262,-1.379083 0,-0.397069 0.34587,-0.85458 0.7686,-1.016797 0.42274,-0.162218 0.76861,-0.62338 0.76861,-1.024805 0,-0.401424 0.34587,-0.862587 0.7686,-1.024804 0.42273,-0.162218 0.7686,-0.540726 0.7686,-0.84066 0,-0.299934 0.37432,-0.958792 0.83166,-1.464149 0.7671,-0.847642 0.7671,-1.080167 0,-2.997352 -1.88124,-4.701682 -0.19833,-11.698251 3.89105,-16.172692 1.40908,-1.541755 3.20663,-3.262247 3.99413,-3.823 z m -11.46199,10.715409 c 0.0987,-0.02284 0.11111,0.07394 0.022,0.300236 -0.86116,2.187415 -0.88748,7.909775 -0.048,10.476221 1.02649,3.13832 1.03878,4.07815 0.0581,4.454495 -0.42273,0.162218 -0.7686,0.591321 -0.7686,0.953749 0,0.362428 -0.35211,0.793937 -0.78162,0.958752 -0.4295,0.164816 -0.97029,0.811918 -1.20194,1.438129 -0.42087,1.137738 -0.42186,1.138027 -1.33604,-0.257202 -0.50318,-0.767933 -1.06925,-2.139533 -1.25799,-3.048392 -0.75839,-3.651851 1.41856,-11.079664 4.16426,-14.207149 0.57945,-0.660023 0.98536,-1.030767 1.1499,-1.068839 z m 23.02707,2.606045 c 0.14578,0 -0.40708,1.441131 -1.22896,3.202514 -0.8533,1.82871 -1.62551,4.521363 -1.79942,6.276925 -0.49986,5.046165 -0.59324,5.265493 -2.41689,5.655438 -0.91619,0.195904 -1.95354,0.587899 -2.30582,0.871685 -0.74277,0.598364 -0.82704,0.05268 -0.6525,-4.221313 0.13045,-3.1944 1.07393,-5.827018 2.72614,-7.604968 1.11401,-1.198796 5.16318,-4.180281 5.67745,-4.180281 z m -31.19948,7.511895 c 0.18594,-5.98e-4 0.23735,0.687551 0.24619,2.368859 0.0178,3.385945 1.01462,6.153978 2.93931,8.163406 1.09318,1.141309 1.21841,1.527082 0.69754,2.154691 -0.34906,0.420577 -0.49602,0.990299 -0.32625,1.264993 0.16976,0.274693 0.0609,0.652358 -0.24219,0.839659 -0.30306,0.187301 -0.51222,0.836953 -0.46436,1.444133 0.0479,0.607181 0.0612,1.622674 0.03,2.256772 -0.0312,0.634097 -0.35957,1.152904 -0.72957,1.152904 -0.89317,0 -3.09494,-2.393531 -4.18229,-4.546568 -1.6263,-3.220217 -0.80087,-10.41298 1.68633,-14.699535 0.14863,-0.256172 0.26075,-0.399037 0.34527,-0.399314 z m 13.33646,6.322963 c 0.12199,0 0.085,0.683696 -0.0821,1.519191 -0.45914,2.295683 0.21558,4.927762 1.72135,6.717272 1.12666,1.338968 1.25117,1.765247 0.74859,2.570017 -0.33141,0.530663 -0.60248,1.273062 -0.60248,1.649294 0,0.376231 -0.43627,1.579361 -0.96875,2.674098 l -0.96777,1.990563 -1.07984,-1.77039 c -2.31723,-3.799625 -2.4875,-9.381108 -0.39531,-12.951163 0.77294,-1.318929 1.50428,-2.398882 1.62627,-2.398882 z m 12.9892,1.885479 c 0.65323,-0.01321 1.33429,0.09851 1.89248,0.35728 1.38869,0.643779 1.62567,1.932443 0.52341,2.847234 -0.57068,0.473624 -0.82568,0.426563 -1.18593,-0.21717 -0.37996,-0.67896 -0.71891,-0.721841 -1.96354,-0.250196 -3.61981,1.371706 -5.82464,5.028903 -5.92865,9.832716 -0.0384,1.772607 -0.16487,2.646077 -0.28122,1.941524 -0.43592,-2.639679 -0.7265,-2.874021 -1.44814,-1.170919 -0.75476,1.781262 -0.65202,4.805988 0.2562,7.557931 0.6349,1.923742 4.64192,5.910639 5.94067,5.910639 0.4588,0 1.52008,0.577079 2.35784,1.282006 1.29387,1.088721 1.39342,1.331797 0.66252,1.612265 -0.47324,0.1816 -1.03883,0.04073 -1.25698,-0.312245 -0.28134,-0.455218 -0.49898,-0.47632 -0.74759,-0.07406 -0.43903,0.710384 -1.66149,0.737174 -2.08864,0.04604 -0.17702,-0.286391 -0.52672,-0.394245 -0.77761,-0.239187 -0.85092,0.525894 -5.10901,-2.626112 -5.10901,-3.781969 0,-0.319959 -0.23058,-0.582456 -0.5124,-0.582456 -0.28182,0 -0.5124,-0.446771 -0.5124,-0.99378 0,-0.54701 -0.24639,-1.146998 -0.54743,-1.333046 -0.30103,-0.186054 -0.42704,-0.653612 -0.27922,-1.038816 0.14781,-0.385198 0.0289,-0.84907 -0.26521,-1.030809 -0.29403,-0.181744 -0.4213,-0.76518 -0.28222,-1.297017 0.13907,-0.531838 0.0573,-0.96776 -0.18214,-0.96776 -0.47383,0 -0.34535,-2.784583 0.19515,-4.227317 0.18476,-0.493186 0.48788,-1.30022 0.67353,-1.793408 0.18565,-0.493187 0.30279,-1.06405 0.2602,-1.268996 -0.0426,-0.204951 0.37874,-1.127272 0.93673,-2.049608 0.55801,-0.922338 1.2451,-2.201912 1.52621,-2.843231 0.2811,-0.64132 0.85866,-1.298929 1.284,-1.462148 0.42535,-0.16322 0.64454,-0.505315 0.48738,-0.759596 -0.15715,-0.254281 0.13247,-0.618725 0.64351,-0.810636 0.51105,-0.191911 1.18265,-0.687066 1.49217,-1.099863 0.30953,-0.412794 0.80382,-0.601676 1.09886,-0.419329 0.29505,0.182347 0.65734,0.01754 0.80463,-0.366287 0.23323,-0.607762 1.24412,-0.975756 2.33284,-0.997784 z m 15.32302,2.794192 c 0.24283,0.0058 0.50899,0.01789 0.80463,0.03503 l 2.64408,0.153121 0.16112,1.961539 c 0.30199,3.669208 -2.57886,5.717577 -5.27113,3.748942 -1.33704,-0.977667 -0.70586,-2.65948 0.67453,-1.797411 0.53271,0.332683 1.34535,0.459766 1.80541,0.283223 1.28882,-0.494563 0.99052,-1.831797 -0.49138,-2.20373 -1.81898,-0.456534 -3.07182,0.914679 -3.93709,4.309382 -0.38057,1.493096 -0.90768,2.725906 -1.17192,2.740151 -0.26424,0.01426 -0.8839,0.242448 -1.37708,0.506397 -0.77611,0.415358 -0.89671,0.234009 -0.89671,-1.348058 0,-2.618714 1.09888,-4.891229 3.30059,-6.824355 1.50006,-1.317064 2.05513,-1.604672 3.75495,-1.564229 z m -15.86645,0.997784 c -0.0941,-0.01282 -0.32306,0.218311 -0.68554,0.697547 -0.41377,0.547051 -0.74259,1.469375 -0.73157,2.049608 0.0148,0.778022 0.21656,0.602996 0.7686,-0.668524 0.58942,-1.357593 0.80536,-2.057265 0.64851,-2.078631 z m 16.27077,2.008576 c 0.43937,0 0.65655,0.230581 0.48238,0.512402 -0.17418,0.281821 -0.53444,0.512402 -0.79963,0.512402 -0.26519,0 -0.48138,-0.230581 -0.48138,-0.512402 0,-0.281821 0.35926,-0.512402 0.79863,-0.512402 z m -10.65036,5.667447 c 0.58652,-0.01128 1.28747,0.231081 1.93952,0.728572 0.86091,0.656838 0.89145,0.827855 0.22618,1.273 -1.5889,1.063176 -3.97095,0.219421 -3.42169,-1.211952 0.19718,-0.513821 0.66947,-0.77834 1.25599,-0.78962 z m 5.14103,1.54121 c 0.72213,-0.02861 1.38009,0.533469 1.38009,1.509184 0,0.993543 -0.29619,1.308601 -1.34406,1.430123 -1.57944,0.183163 -2.21848,-0.924187 -1.277,-2.211736 0.35145,-0.480634 0.8077,-0.710406 1.24097,-0.727571 z m 2.78319,0.538423 c 0.12926,-0.0072 0.28923,0.0039 0.48038,0.03202 0.61063,0.08987 1.2004,0.438482 1.31102,0.774608 0.28219,0.857351 -1.82258,0.620659 -2.15369,-0.24219 -0.13792,-0.359418 -0.0255,-0.54283 0.36229,-0.564443 z m -2.68411,0.195153 c -0.41501,0 -0.83275,0.403516 -0.92773,0.896703 -0.12116,0.629153 0.15598,0.896704 0.92773,0.896704 0.77176,0 1.04789,-0.267551 0.92673,-0.896704 -0.095,-0.493187 -0.51172,-0.896703 -0.92673,-0.896703 z m 0.28623,0.2562 c 0.12428,0 0.22617,0.230581 0.22617,0.512403 0,0.281821 -0.24497,0.512402 -0.54342,0.512402 -0.29846,0 -0.39935,-0.230581 -0.22518,-0.512402 0.17418,-0.281822 0.41815,-0.512403 0.54243,-0.512403 z m -18.51053,0.471371 c 0.0676,0.01221 0.16278,0.262366 0.29824,0.71356 0.23786,0.792353 1.3133,2.508874 2.38987,3.813993 1.07656,1.305124 2.32868,3.480962 2.78219,4.835795 0.45351,1.354827 0.65981,2.462933 0.45935,2.462933 -0.20046,0 -1.13073,-0.518808 -2.06762,-1.152905 -2.44126,-1.652282 -4.06264,-5.108583 -4.02616,-8.582736 0.0155,-1.471045 0.0515,-2.110995 0.16413,-2.09064 z m -25.67915,1.336048 c 0.10297,8e-5 0.25031,0.153564 0.44435,0.498391 2.08054,3.697381 6.78651,7.429831 9.36735,7.429831 0.4321,0 0.78561,0.418829 0.78561,0.92973 0,0.510895 0.57646,2.123348 1.28101,3.583812 0.70455,1.460469 1.28101,2.771993 1.28101,2.914287 0,0.638858 -2.53144,0.143708 -4.89685,-0.957752 -3.32838,-1.549873 -6.04778,-4.751338 -7.37478,-8.680812 -0.95378,-2.82429 -1.33394,-5.717832 -0.8877,-5.717487 z m 33.26911,1.073843 0.77961,1.506182 c 1.51048,2.916131 2.93068,2.993485 5.89462,0.321252 2.85517,-2.574144 3.76145,-2.334761 4.09422,1.081849 0.31714,3.256162 -0.66754,6.002342 -2.79219,7.790113 -2.42226,2.038193 -5.15637,1.785083 -7.65101,-0.709557 -2.4448,-2.444798 -2.80271,-5.196531 -1.10386,-8.483657 z m -27.10227,4.514543 c 0.30012,-0.01811 1.19791,0.302211 2.16469,0.784615 1.1049,0.551314 1.779,1.002593 1.49718,1.002787 -0.83671,5.88e-4 -4.0194,-1.490926 -3.75194,-1.75838 0.0169,-0.01693 0.0472,-0.02644 0.0901,-0.02902 z m 9.51347,1.37608 c 0.22319,-0.02473 0.7606,0.313166 1.61727,0.933732 1.12652,0.816047 2.9932,1.643463 4.14725,1.838443 1.15406,0.194974 2.746,0.93181 3.53777,1.637285 2.17711,1.939816 4.05926,2.760183 6.80534,2.966328 1.36833,0.102716 2.5861,0.285293 2.70613,0.405318 0.37938,0.379387 -2.10743,1.770947 -4.2033,2.352846 -2.94615,0.817963 -4.27958,0.696213 -7.1396,-0.652512 -2.86524,-1.351178 -4.10386,-2.583617 -5.9837,-5.955673 -1.35748,-2.435041 -1.85915,-3.484551 -1.48716,-3.525767 z m -14.42833,5.319174 1.47015,1.377081 c 2.45514,2.299517 6.71919,3.9925 10.0689,3.998137 2.1352,0.0036 3.04346,0.216689 3.25256,0.761598 0.30377,0.791599 2.97039,2.317819 4.04918,2.317819 0.34492,0 0.90313,0.333503 1.24097,0.740581 0.5086,0.612822 0.17003,0.965412 -1.96954,2.049608 -7.14855,3.622443 -15.07016,-0.827546 -17.73793,-9.963819 z m 38.03185,1.252983 c 0.54667,0.03094 1.44542,0.681056 2.06262,1.693329 1.33614,2.191493 1.35904,6.421272 0.048,8.991056 -1.33253,2.611995 -6.2112,7.113093 -9.09013,8.386581 -1.3069,0.578102 -3.78543,1.156787 -5.50832,1.28601 l -3.13247,0.235184 2.04961,-1.03181 c 1.12729,-0.567336 2.6638,-1.562804 3.41469,-2.211736 1.73296,-1.497664 4.01515,-5.786969 4.01515,-7.546922 0,-1.146787 1.47059,-3.112442 2.32883,-3.112442 0.14718,0 0.95141,-0.699042 1.7874,-1.55422 1.37322,-1.404792 1.79774,-2.622016 1.55822,-4.466505 -0.0627,-0.482723 0.13836,-0.687088 0.46637,-0.668525 z m -7.87618,8.879969 -0.23119,1.572234 c -0.30505,2.078467 -4.59476,6.266876 -7.1426,6.974473 -4.49494,1.24836 -10.56266,0.267822 -13.65571,-2.206732 l -1.50018,-1.199941 2.88226,0.239187 c 2.43614,0.202025 3.3924,-4.13e-4 6.18885,-1.309027 1.81915,-0.851279 3.81704,-2.057654 4.44049,-2.681104 0.94392,-0.943916 1.79347,-1.154738 5.07599,-1.26099 z"
     style="fill:#000000;stroke-width:0.51240212"
     id="pathMR13" />
</svg>
