<?xml version="1.0" encoding="UTF-8" standalone="no"?>
<svg
   xmlns:dc="http://purl.org/dc/elements/1.1/"
   xmlns:cc="http://creativecommons.org/ns#"
   xmlns:rdf="http://www.w3.org/1999/02/22-rdf-syntax-ns#"
   xmlns:svg="http://www.w3.org/2000/svg"
   xmlns="http://www.w3.org/2000/svg"
   id="svgMR14"
   version="1.1"
   viewBox="0 0 100 100"
   height="100"
   width="100">
  <defs
     id="defs2" />
  <metadata
     id="metadata5">
    <rdf:RDF>
      <cc:Work
         rdf:about="">
        <dc:format>image/svg+xml</dc:format>
        <dc:type
           rdf:resource="http://purl.org/dc/dcmitype/StillImage" />
        <dc:title></dc:title>
      </cc:Work>
    </rdf:RDF>
  </metadata>
  <path
     d="m 30.165816,5.0015669 c -0.37073,0.022 -0.55979,0.31207 -1.16503,1.01788 -0.17934,0.20915 -0.32585,0.5877 -0.32585,0.84107 0,0.25337 -0.17521,0.84361 -0.38936,1.3118 -0.37252,0.81441 -0.67358,1.9416001 -1.04449,3.9140901 -0.2151,1.14385 -0.54271,1.41182 -1.55933,1.2753 -0.87208,-0.11712 -1.91576,-0.53995 -2.21142,-0.89621 -0.55507,-0.6688 -1.37003,0.0993 -1.19849,1.12967 0.054,0.32409 0.20193,0.86371 0.32852,1.19925 0.28794,0.76323 0.17926,1.12246 -0.41369,1.36807 -0.25533,0.10576 -0.54658,0.29174 -0.64716,0.41293 -0.10058,0.12119 -0.31417,0.22015 -0.47452,0.22015 -0.30317,0 -0.68273,0.51653 -0.50799,0.69126 0.055,0.055 0.2675,0.1 0.47224,0.1 0.31806,0 0.35785,0.0578 0.27301,0.39582 -0.0941,0.37501 -0.0649,0.39544 0.56578,0.39544 0.36595,0 1.06284,0.11542 1.54868,0.25666 0.58792,0.17091 1.1952,0.2285 1.81561,0.17225 0.91256,-0.0828 0.93863,-0.0738 1.23727,0.41597 0.40185,0.65903 0.41874,1.96254 0.0293,2.25819 -0.15231,0.11562 -0.52617,0.21338 -0.8308,0.21749 -0.69376,0.009 -0.86375,0.12271 -1.054,0.70343 -0.24285,0.74125 -0.5081,0.81508 -1.89963,0.52814 -1.51051,-0.31146 -2.28667,-0.58787 -3.92323,-1.39735 -1.3147,-0.65028 -1.66845,-0.74434 -1.66845,-0.44259 0,0.0992 -0.10857,0.25977 -0.24106,0.35666 -0.21416,0.15659 -0.20499,0.31611 0.0814,1.43575 0.17716,0.69271 0.46359,1.55154 0.63651,1.90876 0.17293,0.35722 0.3126,0.7516 0.31065,0.87643 -0.006,0.40526 -0.53574,0.89778 -1.18328,1.10077 -0.72345,0.22678 -2.54448,1.11671 -3.43234,1.6772 -0.73873,0.46633 -0.72682,0.86764 0.0407,1.38898 0.69133,0.4696 1.9582,0.99278 2.70306,1.11598 0.74273,0.12284 1.29716,0.56576 1.81636,1.45172 0.38357,0.65451 0.40749,0.80155 0.31446,1.92701 -0.10752,1.3006 -0.062,1.46004 0.5019,1.75705 0.31371,0.16524 0.47766,0.12133 1.23993,-0.33232 1.4615,-0.86979 1.55186,-0.91379 1.87986,-0.9137 0.36385,1e-4 0.51839,0.0968 0.92739,0.58061 0.28752,0.34015 0.28602,0.37032 -0.0654,1.3502 -0.42295,1.17933 -0.34657,1.72836 0.29354,2.10648 0.72772,0.42988 1.08274,1.14503 1.27301,2.56466 0.17777,1.32633 0.51429,2.09697 0.91598,2.09697 0.4726,0 1.49961,-0.82974 2.35781,-1.90533 0.60515,-0.75845 0.97297,-1.09363 1.13271,-1.03233 0.71894,0.27588 1.01715,0.26199 1.55856,-0.0726 0.45574,-0.28166 0.66694,-0.32421 1.05628,-0.21254 0.26773,0.0768 0.54409,0.24577 0.61408,0.37566 0.32918,0.61085 1.0873,2.37031 1.31445,3.0506 0.34228,1.02508 0.33266,2.82906 -0.019,3.48367 -0.2011,0.37454 -0.2731,0.89812 -0.2768,2.0099 -0.006,1.69861 0.0926,1.95032 1.37947,3.52664 1.08968,1.33479 0.94479,1.79545 -0.31939,1.01446 -1.00455,-0.6206 -2.60759,-1.32229 -3.50155,-1.53271 -2.99773,-0.70561 -6.92685,0.40761 -9.05063,2.56428 -1.12286,1.14024 -1.59321,2.26893 -1.69089,4.05896 l -0.081,1.48214 -0.99278,1.00761 c -1.10225,1.11865 -1.43857,1.8297 -1.18328,2.50116 0.14107,0.37105 0.22804,0.41512 0.67719,0.34259 0.97595,-0.1576 1.15034,-0.14597 1.76123,0.11901 0.33702,0.14618 0.73386,0.26578 0.88176,0.26578 0.1479,0 0.65528,0.37387 1.12776,0.83081 0.88728,0.85809 1.14614,1.42669 1.81066,3.97797 0.34709,1.33257 1.12117,2.8367 1.75819,3.41638 0.74996,0.68245 2.79191,1.52325 4.22893,1.74107 0.6265,0.095 1.82873,0.13458 2.6715,0.0882 1.00646,-0.0554 1.67177,-0.0205 1.9388,0.10114 0.36644,0.16696 0.46097,0.13252 0.95666,-0.34791 0.30245,-0.29315 0.54981,-0.61457 0.54981,-0.71408 0,-0.0995 0.17823,-0.26169 0.39582,-0.36083 0.61241,-0.27903 0.50302,-0.49485 -0.76768,-1.51637 -0.61148,-0.49156 -0.79559,-0.57176 -0.90724,-0.39544 -0.0771,0.12171 -0.14141,0.31022 -0.14258,0.41902 -10e-4,0.1088 -0.14494,0.19772 -0.31902,0.19772 -0.25702,0 -0.31635,0.10568 -0.31635,0.5616 0,1.10709 -1.1367,1.66869 -2.83196,1.39925 -0.74293,-0.11808 -0.91885,-0.21091 -1.09278,-0.57605 -0.24902,-0.52277 -0.38185,-0.53672 -0.96997,-0.1019 l -0.45057,0.33308 -0.97948,-0.43917 c -0.79919,-0.35866 -1.13209,-0.63539 -1.81218,-1.50457 -0.51838,-0.66252 -0.90947,-1.35491 -1.03461,-1.83233 -0.11063,-0.42208 -0.35092,-1.2301 -0.53422,-1.79583 -0.18331,-0.56574 -0.31637,-1.04802 -0.29544,-1.07149 0.0209,-0.0235 -0.0388,-0.13018 -0.1327,-0.23727 -0.0939,-0.10708 -0.48106,-0.67315 -0.86046,-1.2578 l -0.69012,-1.06313 0.20114,-0.86426 c 0.11053,-0.4755 0.38935,-1.08852 0.61977,-1.36237 0.23043,-0.27385 0.41902,-0.5683 0.41902,-0.65438 0,-0.57256 -0.81053,-1.08556 -1.71598,-1.08556 -0.22164,0 -0.60263,-0.19118 -0.84678,-0.42509 -0.36128,-0.34614 -0.4441,-0.56155 -0.4441,-1.15857 0,-0.92074 0.41607,-2.16461 0.89772,-2.68405 0.20261,-0.2185 0.36844,-0.44277 0.36844,-0.49848 0,-0.1465 1.57762,-1.29532 2.13652,-1.5559 0.26111,-0.12175 0.68571,-0.23691 0.94373,-0.2559 0.25803,-0.019 0.49684,-0.11787 0.53081,-0.21977 0.16571,-0.49714 2.13793,-0.7501 4.00116,-0.51294 0.82624,0.10518 1.59481,0.33898 2.45287,0.74602 3.95944,1.87822 5.14629,3.51755 4.89548,6.76202 -0.12287,1.58948 -0.55512,3.90651 -0.82929,4.44604 -0.30362,0.59751 -0.16841,0.9714 0.26693,0.73841 0.17536,-0.0939 0.31901,-0.24561 0.31901,-0.33726 0,-0.0917 0.20739,-0.61512 0.46122,-1.16351 0.36328,-0.78487 0.5993,-1.07456 1.10799,-1.36047 0.77586,-0.43605 0.83031,-0.82091 0.21103,-1.49126 -0.4123,-0.44631 -0.43361,-0.54453 -0.40609,-1.86846 0.018,-0.86435 0.10636,-1.49089 0.23195,-1.64221 0.33109,-0.39895 3.602,-1.94632 4.82056,-2.28063 1.26168,-0.34613 1.63756,-0.28099 2.26504,0.39354 0.48565,0.52207 0.69237,0.51808 1.19392,-0.0228 0.33826,-0.3648 0.53342,-0.43499 1.208,-0.43499 0.69813,0 0.85329,0.0605 1.17035,0.45818 0.50384,0.63188 0.54879,0.9879 0.44487,3.52854 -0.0652,1.59293 -0.0394,2.25138 0.0916,2.33234 0.124,0.0766 0.0674,0.20602 -0.1768,0.40381 -0.36443,0.29517 -0.40458,0.54719 -0.44411,2.79507 -0.009,0.52873 -0.0764,0.67323 -0.34449,0.74335 -0.30898,0.0808 -0.31558,0.11348 -0.0939,0.45172 0.4571,0.69752 2.09338,1.18199 2.28709,0.67719 0.0582,-0.1516 0.0228,-0.40856 -0.0787,-0.57111 -0.17995,-0.28814 -0.0801,-0.38132 0.3365,-0.31293 0.29309,0.0481 0.27579,-0.4831 -0.0285,-0.86997 -0.426,-0.54156 -0.42186,-0.57703 0.14296,-1.19544 0.26111,-0.28588 0.47453,-0.63269 0.47453,-0.77073 0,-0.13804 0.10492,-0.38923 0.2327,-0.55818 0.32124,-0.42471 0.30101,-0.56374 -0.15323,-1.05362 -0.85905,-0.92645 -0.2386,-1.81729 0.92662,-1.33043 0.65062,0.27185 0.92281,0.21571 1.57758,-0.32395 0.53293,-0.43925 0.71245,-0.45195 1.44412,-0.10305 0.53772,0.25643 0.58431,0.25275 1.35286,-0.10722 l 0.79582,-0.37263 0.46578,0.34449 c 0.62542,0.46239 1.28094,0.44331 1.74527,-0.051 0.42084,-0.44796 0.88135,-0.50664 1.26388,-0.16046 0.14312,0.12953 0.48103,0.27987 0.75096,0.33385 0.38118,0.0762 0.55455,0.0238 0.77643,-0.23537 0.34067,-0.39787 0.87337,-0.42815 1.40495,-0.0798 0.31352,0.20542 0.48303,0.22047 0.8886,0.0791 0.70306,-0.24508 0.77035,-0.22574 0.77035,0.2213 0,0.30473 -0.22817,0.55891 -0.98936,1.10343 -0.54398,0.38913 -1.55313,1.11887 -2.2426,1.62168 -0.68947,0.50281 -1.37812,0.96326 -1.53043,1.0232 -0.15231,0.06 -0.71376,0.40714 -1.24754,0.77149 -1.03824,0.7087 -1.67545,0.83151 -2.00154,0.38556 -0.29225,-0.39969 -0.6924,-0.18156 -0.6924,0.37757 0,0.25672 -0.0445,0.58263 -0.0989,0.72434 -0.11045,0.28784 -1.4825,1.03422 -1.90115,1.03422 -0.14835,0 -0.38199,0.0999 -0.51939,0.22168 -0.39322,0.34862 -3.13402,1.20554 -4.35973,1.36313 -0.71905,0.0924 -1.64365,0.0823 -2.61561,-0.0289 -1.53641,-0.17575 -2.19179,-0.41654 -4.15782,-1.52777 -0.93439,-0.52813 -1.22283,-0.53934 -1.22283,-0.0472 0,0.17555 0.42249,0.5383 1.14146,0.97986 0.62777,0.38555 1.4325,1.00412 1.78822,1.37491 l 0.64677,0.67415 2.9198,-0.23802 c 1.60583,-0.13089 3.00322,-0.2384 3.10534,-0.23879 0.10212,-5.8e-4 0.40342,0.18212 0.66959,0.40609 0.61041,0.51362 1.12282,0.40905 1.12282,-0.22928 0,-0.23861 0.0889,-0.55191 0.19772,-0.6962 0.23144,-0.30695 1.99146,-1.24355 2.8947,-1.54032 0.90417,-0.29707 1.98665,-0.9078 4.35744,-2.45933 2.69634,-1.76458 3.31805,-1.83115 3.63539,-0.38784 0.13294,0.60465 0.0133,0.8724 -0.47186,1.05552 -0.36915,0.13934 -0.46161,0.28934 -0.55324,0.90039 -0.0784,0.52307 -0.20923,0.78668 -0.45628,0.91826 -0.51415,0.27384 -0.73126,0.62639 -0.73688,1.1962 -0.004,0.37609 -0.1259,0.59873 -0.46655,0.85058 -0.38818,0.287 -0.44868,0.42247 -0.37909,0.85134 0.0701,0.43202 -0.004,0.59469 -0.48783,1.06426 -0.54051,0.52494 -0.561,0.582 -0.38784,1.07872 0.1623,0.46557 0.14563,0.55447 -0.14867,0.79278 -0.23578,0.19092 -0.34567,0.48827 -0.38061,1.02966 l -0.049,0.76123 -2.21561,0.76198 c -1.21851,0.41909 -2.82067,0.90779 -3.56048,1.08594 -0.73981,0.17815 -1.75945,0.43314 -2.26579,0.56692 -0.82185,0.21716 -0.95992,0.21746 -1.28556,0.004 -0.4401,-0.28837 -0.98016,-0.17854 -1.08442,0.22015 -0.1066,0.40764 -1.33039,0.73668 -3.24261,0.87225 -1.40737,0.0998 -1.63044,0.0793 -1.99127,-0.18365 -0.22352,-0.16291 -0.40867,-0.38072 -0.41141,-0.48365 -0.003,-0.10293 -0.15551,-0.23449 -0.33917,-0.29278 -0.25076,-0.0796 -0.4454,0.0161 -0.78213,0.38479 -0.35843,0.39243 -0.57536,0.49088 -1.081,0.49088 -0.9776,0 -0.98527,0.20525 -0.0361,0.98746 0.34156,0.28149 0.47462,0.70039 0.16084,0.50647 -0.10796,-0.0667 -0.15142,0.005 -0.11483,0.18859 0.036,0.18088 -0.17293,0.53839 -0.53841,0.92092 -0.72612,0.75999 -0.75383,1.19304 -0.11065,1.73424 0.53628,0.45125 1.11568,0.52966 1.39811,0.18935 0.22687,-0.27335 0.77659,-0.42835 0.8867,-0.25019 0.045,0.0728 0.009,0.17724 -0.0802,0.23232 -0.18932,0.11701 0.18876,0.55476 0.47909,0.55476 0.49149,-1e-5 1.45293,1.03961 2.00078,2.16313 0.55773,1.14378 0.58054,1.25851 0.68784,3.50535 0.061,1.27763 0.16697,2.46549 0.23574,2.63956 0.41194,1.04266 1.16474,2.03396 1.89659,2.49736 0.7322,0.46362 0.92113,0.50704 2.53196,0.58441 2.84127,0.13648 3.03176,-0.0556 2.081,-2.10001 -0.69814,-1.50122 -0.80031,-2.60327 -0.48251,-5.20993 0.21647,-1.77556 0.34568,-2.27591 0.9251,-3.58595 0.37035,-0.83735 0.90956,-2.09232 1.19811,-2.78862 0.67742,-1.63464 1.99314,-3.81547 2.51599,-4.17037 0.51037,-0.34643 1.33562,-0.67388 2.86161,-1.13575 0.65278,-0.19757 1.27601,-0.42839 1.3848,-0.51293 0.1088,-0.0845 0.19772,-0.43234 0.19772,-0.77263 0,-0.49344 0.0707,-0.64493 0.34906,-0.74791 0.80998,-0.29964 1.7263,0.19222 3.49698,1.87682 1.56642,1.49027 2.7462,1.90437 3.8525,1.35248 0.59638,-0.29752 1.22529,-0.96279 1.10077,-1.16427 -0.059,-0.0955 0.13291,-0.12424 0.50076,-0.0749 0.79624,0.10679 1.80216,-0.1805 2.26846,-0.6483 0.20864,-0.20931 0.6635,-0.67374 1.01103,-1.03195 0.34753,-0.3582 1.07747,-0.85999 1.62207,-1.11483 0.54459,-0.25485 0.99012,-0.53324 0.99012,-0.61864 0,-0.0854 0.0898,-0.24925 0.19962,-0.36426 0.30587,-0.32035 0.59164,-1.04816 0.59164,-1.50685 0,-0.78543 -0.93342,-2.43457 -1.95819,-3.45935 -0.89795,-0.89795 -2.59218,-2.10697 -3.58025,-2.55515 -2.04213,-0.92628 -3.20227,-1.54082 -3.27721,-1.73613 -0.0536,-0.13966 0.11037,-0.41667 0.40684,-0.68746 0.52325,-0.47793 0.61125,-0.76784 0.32054,-1.05856 -0.27907,-0.27907 -0.0448,-0.47368 0.82092,-0.68137 0.63004,-0.15115 1.2934,-0.15179 3.06085,-0.003 3.24058,0.27204 5.1992,0.25835 6.6069,-0.0456 1.52482,-0.32926 3.41511,-1.00419 3.9198,-1.39963 0.32704,-0.25625 1.06798,-1.21534 1.67149,-2.16352 0.087,-0.13674 0.24807,-0.34692 0.35818,-0.46692 0.53088,-0.57857 0.97248,-1.26066 1.07073,-1.65439 0.0927,-0.37148 0.0597,-0.43536 -0.2251,-0.43536 -0.1835,0 -0.33346,-0.0789 -0.33346,-0.17529 0,-0.10281 -0.11465,-0.13007 -0.27719,-0.0662 -0.26892,0.10574 -2.4161,0.56189 -2.88177,0.61218 -0.12722,0.0137 -0.25568,-0.0929 -0.28555,-0.23689 -0.0381,-0.18382 0.12474,-0.32051 0.54753,-0.45932 0.92771,-0.30457 1.78219,-0.90271 2.77835,-1.94526 0.64684,-0.67696 0.90989,-1.0757 0.90989,-1.37872 0,-0.53872 -0.33459,-0.82254 -0.82434,-0.69962 -0.28191,0.0708 -0.49049,-0.0156 -0.80951,-0.3346 -0.71174,-0.71174 -0.6944,-1.01979 0.11787,-2.08785 0.39857,-0.52409 0.72472,-0.99047 0.72472,-1.03651 0,-0.046 0.0625,-0.2487 0.13916,-0.45019 0.0766,-0.2015 0.14328,-0.42604 0.14792,-0.49925 0.005,-0.0732 0.1243,-0.21795 0.26616,-0.32167 0.36884,-0.26971 0.16261,-1.7341 -0.31712,-2.25173 -0.19342,-0.20871 -0.39405,-0.37947 -0.44601,-0.37947 -0.0519,0 -0.41804,0.31433 -0.81331,0.69848 -0.8338,0.81036 -2.44466,1.49681 -3.94566,1.68138 -1.6976,0.20876 -2.99171,0.47761 -4.20535,0.87377 -2.33201,0.76124 -2.87446,0.37439 -1.84716,-1.31673 0.30894,-0.50858 0.70766,-1.05654 0.88594,-1.21788 0.38501,-0.34843 0.42624,-0.96247 0.0738,-1.09773 -0.67382,-0.25857 -1.58697,-0.0251 -3.11295,0.79582 -0.23953,0.12886 -0.50668,0.19019 -0.59354,0.13651 -0.0869,-0.0537 -0.15927,-0.004 -0.16122,0.1095 -0.005,0.28839 -1.02919,0.97319 -1.97454,1.31978 -0.43518,0.15956 -0.93175,0.38417 -1.10343,0.49887 -0.53566,0.35785 -1.12547,0.25353 -1.57301,-0.27833 -0.22533,-0.26779 -0.40951,-0.55889 -0.40951,-0.64678 0,-0.22148 0.97318,-1.55666 1.13461,-1.55666 0.0723,0 0.13193,-0.23158 0.13232,-0.51445 0.002,-1.3917 0.48264,-2.01746 1.9772,-2.57683 0.43518,-0.16287 1.23337,-0.61985 1.77378,-1.01559 0.78461,-0.57459 0.98378,-0.80725 0.98898,-1.15477 0.007,-0.49148 0.0361,-0.48334 -1.57606,-0.45437 -2.13975,0.0385 -3.44826,0.29905 -6.09244,1.21294 -0.34814,0.12032 -0.88206,0.261 -1.1867,0.31254 -0.30462,0.0516 -0.6215,0.16077 -0.70419,0.24297 -0.0827,0.0822 -0.26091,0.15011 -0.39582,0.15057 -0.13491,5.5e-4 -0.44918,0.10725 -0.69848,0.23727 -0.2493,0.13002 -0.55651,0.2365 -0.68252,0.2365 -0.33278,0 -1.75745,0.45743 -2.5829,0.82929 -1.97901,0.89151 -3.22205,1.38632 -3.48292,1.38632 -0.3515,0 -0.80728,-0.72937 -1.18746,-1.89926 -0.44802,-1.37863 -0.88629,-2.16805 -1.7791,-3.20534 -1.1937,-1.38687 -1.8126,-2.73941 -1.90382,-4.16087 -0.0843,-1.31361 0.29584,-3.31998 0.73841,-3.89813 0.15438,-0.20167 0.4429,-0.70787 0.64145,-1.12472 0.41441,-0.87005 1.69553,-2.17111 2.62131,-2.66238 0.34815,-0.18474 0.97138,-0.58309 1.3848,-0.88479 0.59534,-0.43445 0.75172,-0.643 0.75172,-1.00343 0,-0.53785 0.53648,-1.10039 1.04944,-1.10039 0.19624,0 0.45997,-0.14718 0.58593,-0.327 0.19888,-0.28394 0.19889,-0.38662 0.003,-0.78023 -0.26758,-0.53638 -1.19736,-1.38524 -1.74526,-1.59355 -0.21359,-0.0812 -0.60187,-0.14791 -0.86312,-0.14791 -0.5995,0 -2.06092,-1.22086 -2.48329,-2.07454 -0.31995,-0.64667 -2.01531,-2.19432 -2.4061,-2.19659 -0.13295,-7.8e-4 -0.38194,-0.0997 -0.55362,-0.21978 -1.00678,-0.70414 -4.85571,-0.9974 -6.04339,-0.46046 -1.27535,0.57658 -3.73161,2.17611 -4.44908,2.89736 -0.7749,0.77899 -1.44964,1.9991 -2.09849,3.79471 -0.38463,1.06439 -0.37496,1.05359 -2.75478,3.19356 -0.60925,0.54785 -1.48991,1.44198 -1.95705,1.98708 -0.82836,0.96664 -1.42056,1.25702 -1.68632,0.827 -0.14366,-0.23244 0.43546,-1.27942 1.46085,-2.64184 0.78861,-1.04782 0.86116,-1.20895 0.70343,-1.55514 -0.16008,-0.35133 -0.26805,-0.38632 -1.19659,-0.38632 -0.96765,0 -1.51788,-0.22625 -1.51788,-0.62434 0,-0.66013 0.32692,-1.27668 1.16921,-2.20419 2.03423,-2.2401 2.66137,-3.25324 2.86276,-4.62513 0.11985,-0.81647 -0.20384,-1.35845 -1.35819,-2.27607 -0.83064,-0.66029 -0.98296,-0.67589 -1.59507,-0.16083 -0.74833,0.62968 -1.08252,0.46616 -1.07605,-0.527 0.003,-0.40707 0.0838,-0.81095 0.78365,-3.8958501 0.17671,-0.77892 0.3213,-1.53143 0.3213,-1.67225 0,-0.1716 -0.27402,-0.3387 -0.8308,-0.50647 -0.78946,-0.23789 -1.18771,-0.38287 -1.47606,-0.36578 z m 0.98176,1.83576 c 0.0276,-0.002 0.0537,-0.003 0.0783,7.8e-4 0.25295,0.0295 0.33805,0.33797 0.12738,0.87072 -0.91327,2.3095001 -1.37373,6.5511201 -0.78784,7.2570901 0.10164,0.12247 0.46531,0.26986 0.80799,0.32776 0.34268,0.0579 0.66307,0.17035 0.71218,0.24981 0.16475,0.26658 0.53082,0.14792 1.02016,-0.33042 0.92352,-0.90278 1.31959,-0.46309 0.6365,0.70647 -0.41023,0.70242 -1.77069,2.41705 -2.69393,3.39584 -0.43879,0.46518 -0.95208,2.16413 -0.94412,3.12398 0.003,0.33386 0.10948,0.74512 0.23727,0.91407 0.32447,0.42899 0.28923,1.25506 -0.0844,1.98747 -0.39501,0.77427 -0.3994,1.142 -0.0175,1.48746 0.24172,0.21876 0.31951,0.59418 0.40685,1.96313 0.19187,3.00717 0.0957,4.90635 -0.27186,5.37191 -0.24449,0.30965 -0.82112,0.23265 -1.18404,-0.15818 -0.41266,-0.44438 -1.34374,-2.94937 -1.72055,-4.62893 -0.28353,-1.26383 -0.40109,-3.90386 -0.18365,-4.12284 0.0632,-0.0636 0.21692,-0.031 0.34183,0.0726 0.17625,0.14627 0.2542,0.14462 0.34829,-0.008 0.0678,-0.10972 0.0392,-0.22345 -0.065,-0.25818 -0.10245,-0.0342 -0.19121,-0.32308 -0.19734,-0.64221 -0.006,-0.31913 -0.0682,-0.72289 -0.13802,-0.89696 -0.0767,-0.19124 -0.0475,-0.47315 0.0738,-0.71218 0.15579,-0.30717 0.16643,-0.85558 0.0471,-2.45287 -0.19161,-2.56596 -0.0439,-6.58274 0.28251,-7.6818 0.21473,-0.72309 0.26479,-0.78416 0.44449,-0.53841 0.11144,0.15241 0.28493,0.22659 0.38517,0.16464 0.2851,-0.1762 0.21466,-0.40856 -0.16616,-0.54943 -0.34665,-0.12824 -0.34635,-0.12999 0.0791,-0.40875 0.26147,-0.17132 0.42738,-0.42265 0.42738,-0.64791 0,-0.20245 0.078,-0.41634 0.17339,-0.47529 0.0954,-0.059 0.14365,-0.3127001 0.10684,-0.5635101 -0.0368,-0.2508 -0.0159,-0.45589 0.0468,-0.45589 0.24981,0 0.29936,-0.53653 0.0726,-0.78708 -0.32977,-0.3644 -0.30276,-0.63727 0.0631,-0.63727 0.16738,0 0.51799,-0.21341 0.7791,-0.47452 0.2973,-0.29731 0.56278,-0.4463 0.75627,-0.46351 z m -8.50121,5.8437701 c 0.0891,0 0.24164,0.14851 0.33879,0.33004 0.20185,0.37715 0.11642,0.57031 -0.11825,0.2673 -0.30521,-0.39409 -0.38036,-0.59734 -0.22054,-0.59734 z m 6.23959,0.5403 c -0.0201,-0.002 -0.0409,-0.002 -0.0627,3.9e-4 -0.0807,0.008 -0.17339,0.046 -0.27871,0.11179 -0.26187,0.16354 -0.34449,0.36903 -0.34449,0.85742 0,0.35332 0.0779,0.72012 0.173,0.81522 0.12505,0.12504 0.12178,0.26824 -0.011,0.51673 -0.14044,0.2624 -0.13929,0.39718 0.005,0.57073 0.44995,0.54216 0.73573,0.1033 0.84259,-1.29431 0.0792,-1.03614 -0.0222,-1.54795 -0.3232,-1.57796 z m -3.95934,0.45818 c 0.0727,-0.0171 0.16236,0.0379 0.1962,0.18175 0.0431,0.1832 0.0192,0.0834 0.073,0.29924 0.0716,0.28681 -0.21525,0.36887 -0.28707,0.0821 -0.0568,-0.22679 -0.0316,-0.12247 -0.0764,-0.31293 -0.0339,-0.14386 0.0216,-0.23309 0.0943,-0.25019 z m 1.20305,0.60343 c 0.055,0.002 0.10222,0.017 0.12852,0.0433 0.0526,0.0526 -0.0408,0.0898 -0.20761,0.0829 -0.18435,-0.008 -0.22206,-0.0449 -0.0958,-0.0954 0.0571,-0.0229 0.11993,-0.0331 0.17491,-0.0308 z m 20.82562,0.0958 c 1.02254,0.003 2.07598,0.12694 2.7985,0.37034 2.42472,0.81683 3.79056,2.04771 3.95364,3.56314 0.0537,0.49871 0.72075,1.07767 1.45363,1.26161 0.29402,0.0738 0.41597,0.20838 0.41597,0.45856 0,0.35652 -0.44008,0.87757 -0.74107,0.87757 -0.0892,0 -0.34495,0.16968 -0.56844,0.37681 -0.36413,0.33746 -0.3916,0.44018 -0.26426,0.98898 0.27336,1.17821 0.204,1.43181 -0.54336,1.99203 -0.57019,0.42741 -1.47383,1.49462 -2.02929,2.39622 -0.14926,0.24227 -0.50155,1.11393 -0.83993,2.0791 -0.65533,1.86923 -1.57742,2.12854 -3.15667,0.88746 -0.54185,-0.42582 -1.20145,-0.88613 -1.46579,-1.02282 -0.26435,-0.1367 -0.51707,-0.34235 -0.56122,-0.45742 -0.0442,-0.11507 -0.39092,-0.41684 -0.77073,-0.67035 -0.37982,-0.25351 -0.76164,-0.53712 -0.84868,-0.63004 -0.087,-0.0929 -0.47868,-0.41135 -0.87035,-0.70799 -0.39166,-0.29665 -0.86436,-0.68736 -1.05019,-0.86807 -0.18585,-0.18071 -0.56807,-0.50675 -0.84944,-0.72434 -0.28137,-0.21759 -0.71814,-0.56303 -0.97073,-0.76806 -0.3731,-0.30286 -0.50328,-0.33661 -0.69354,-0.17871 -0.12881,0.1069 -0.23422,0.2516 -0.23422,0.32167 0,0.1727 3.46505,3.63197 3.63805,3.63197 0.0755,0 0.23303,0.0889 0.35019,0.19772 0.43588,0.40475 1.49815,1.17544 2.34184,1.69925 0.73277,0.45494 1.7407,1.34529 1.7407,1.53765 0,0.03 -0.16852,0.11864 -0.37453,0.19696 -0.36964,0.14054 -1.68765,1.93253 -1.67796,2.28139 0.007,0.23594 0.65843,0.9702 1.0445,1.17681 0.21083,0.11284 0.39966,0.10983 0.61635,-0.01 0.3293,-0.18194 1.97416,-1.87143 1.97416,-2.02777 0,-0.0502 -0.17823,-0.25833 -0.39582,-0.46275 -0.35515,-0.33364 -0.53364,-0.79126 -0.30875,-0.79126 0.18939,0 1.81218,1.11274 1.81218,1.2426 0,0.0763 -0.21252,0.37983 -0.47225,0.67453 -0.25971,0.29466 -0.47354,0.58036 -0.4749,0.63498 -0.005,0.21108 0.41753,0.43076 0.9251,0.481 0.44178,0.0437 0.5966,0.1715 0.92776,0.76464 0.55822,0.99983 0.89592,1.45418 1.79165,2.4099 1.01459,1.08254 1.26217,1.62991 1.40305,3.10345 0.1794,1.87646 0.0997,2.07227 -1.09202,2.68025 -1.09537,0.55875 -1.35468,0.55902 -1.56846,0 -0.0757,-0.19807 -0.29644,-0.50274 -0.49049,-0.67682 -0.19405,-0.17407 -0.41409,-0.47679 -0.48898,-0.67262 -0.0823,-0.21525 -0.26954,-0.3559 -0.47339,-0.3559 -0.18546,0 -0.47455,-0.17496 -0.64259,-0.3886 -0.3705,-0.47101 -0.69011,-0.38066 -0.91255,0.25742 -0.19454,0.55805 -0.48058,0.52486 -0.78023,-0.0901 -0.32374,-0.6644 -0.12644,-1.1887 0.45057,-1.19659 1.51495,-0.0207 1.40059,0.0272 1.45324,-0.60685 0.0373,-0.44885 0.12423,-0.59708 0.37035,-0.63232 0.46921,-0.0672 0.91726,0.63452 1.50419,2.35553 0.27917,0.81859 0.60019,1.58692 0.71331,1.70761 0.32566,0.34747 0.70495,0.093 0.70495,-0.473 0,-0.27551 0.0847,-0.78345 0.18821,-1.12891 0.18812,-0.62787 0.18802,-0.62834 -0.48783,-1.18974 -0.65967,-0.54796 -0.6754,-0.58322 -0.64411,-1.44754 0.0459,-1.26914 0.0416,-1.28138 -0.46997,-1.28138 -0.63202,0 -1.20295,-0.23564 -1.7099,-0.70571 -0.96432,-0.89417 -2.1155,-1.33763 -4.01714,-1.54792 l -1.80001,-0.19924 -0.0163,-0.44297 c -0.01,-0.27289 -0.2192,-0.65258 -0.54525,-0.98898 -0.72358,-0.74654 -1.23499,-0.72777 -2.03766,0.0749 -0.94489,0.94488 -1.04007,1.19949 -0.60913,1.63043 0.26852,0.26852 0.35917,0.54025 0.35742,1.07187 -0.002,0.61704 -0.0862,0.79684 -0.6327,1.34792 -0.3469,0.34979 -0.87946,1.00705 -1.18328,1.46046 -0.30382,0.45342 -0.75158,0.90676 -0.99507,1.00762 -0.69924,0.28963 -0.81095,0.66624 -0.33764,1.13955 0.31516,0.31516 0.44946,0.6954 0.62205,1.76161 0.233,1.43934 0.6624,3.00555 0.9388,3.42512 0.21797,0.33088 1.36191,1.70678 1.68632,2.02815 1.16209,1.15118 1.52863,2.35874 0.97111,3.20002 -0.49881,0.75269 -1.52102,1.87834 -1.70572,1.87834 -0.10057,0 -0.27205,-0.51015 -0.38555,-1.14715 -0.11243,-0.63102 -0.23826,-1.23614 -0.27947,-1.3445 -0.10313,-0.2712 -1.32575,-0.0677 -1.57948,0.26274 -0.55833,0.72723 0.1348,2.862 0.92928,2.862 0.16059,0 0.29202,0.10671 0.29202,0.23726 0,0.13056 -0.0653,0.23765 -0.14525,0.23765 -0.0799,0 -0.23998,0.0253 -0.35589,0.0566 -0.36516,0.0986 -0.93904,-0.0723 -1.02891,-0.30647 -0.0475,-0.1238 -0.17931,-0.22509 -0.29316,-0.22509 -0.11384,0 -0.49807,-0.33031 -0.85361,-0.73423 -0.54525,-0.61943 -0.6464,-0.84249 -0.6464,-1.42434 0,-0.43556 -0.0728,-0.69747 -0.19772,-0.71028 -0.10879,-0.0111 -0.44709,-0.0289 -0.75171,-0.0395 -0.44194,-0.0154 -0.554,-0.0832 -0.554,-0.33574 0,-0.24689 0.0959,-0.30988 0.43498,-0.2867 0.33593,0.023 0.45545,-0.054 0.52701,-0.33916 0.10439,-0.41595 -0.32938,-2.1578 -0.70001,-2.81029 -0.22064,-0.38843 -0.21934,-0.50907 0.0144,-1.26579 0.14221,-0.46011 0.21791,-1.05031 0.16807,-1.31141 -0.0498,-0.26111 -0.60644,-1.54277 -1.23689,-2.84831 -1.00825,-2.08788 -1.82411,-4.46548 -1.81599,-5.29206 0.005,-0.55273 0.24209,-0.6907 0.84412,-0.49202 0.68165,0.22497 0.79327,0.16697 1.73993,-0.90723 0.77608,-0.88064 0.91942,-1.3555 0.4597,-1.52168 -0.15231,-0.0551 -0.43902,-0.19554 -0.63727,-0.31217 -0.53758,-0.31628 -1.11451,-0.12946 -1.80951,0.5867 -0.49985,0.51505 -0.65038,0.59615 -0.76655,0.41255 -0.32579,-0.51494 0.0847,-1.41522 0.64525,-1.41522 0.16608,0 0.37258,-0.13217 0.45894,-0.29354 0.1254,-0.23432 0.0627,-0.38378 -0.31103,-0.74183 -0.51819,-0.49646 -0.63373,-1.24104 -0.21749,-1.40077 0.54909,-0.21071 1.32798,-0.0982 1.52701,0.22053 0.311,0.498 0.74592,0.37615 1.49811,-0.42015 1.01467,-1.0742 1.10136,-1.28876 0.59772,-1.48024 -0.22676,-0.0862 -0.4813,-0.15666 -0.5654,-0.15666 -0.0841,0 -0.19251,-0.10348 -0.24107,-0.23004 -0.0486,-0.12655 -0.40797,-0.38491 -0.79887,-0.57415 -0.3909,-0.18923 -0.74755,-0.43978 -0.7924,-0.55665 -0.10677,-0.27824 1.07025,-1.80647 1.35591,-1.76047 0.12122,0.0195 0.29945,0.17336 0.39582,0.34182 0.3995,0.69842 0.94348,1.06698 1.43043,0.96959 0.25843,-0.0517 0.50905,-0.15734 0.55703,-0.23498 0.048,-0.0776 0.33448,-0.20529 0.63689,-0.28365 0.46326,-0.12004 0.57205,-0.23605 0.6905,-0.73689 0.11926,-0.50427 0.0899,-0.64843 -0.19392,-0.95058 -0.45444,-0.48373 -0.421,-0.81062 0.13422,-1.30533 0.40438,-0.3603 0.44429,-0.46405 0.28784,-0.75286 -0.0998,-0.18424 -0.16643,-0.54415 -0.14791,-0.79962 0.037,-0.51034 1.72855,-3.83396 2.3388,-4.59547 1.24335,-1.55152 2.12778,-2.27852 3.38215,-2.77911 0.59973,-0.23933 1.59156,-0.35676 2.61409,-0.35361 z m -23.14123,0.005 c 0.0458,0.006 0.0979,0.0329 0.14943,0.0859 0.11827,0.12166 0.38012,0.31099 0.16388,0.49849 l -0.25587,-0.16804 c -0.0383,-0.0412 -0.0796,-0.0796 -0.11939,-0.11939 -0.15677,-0.15676 -0.0754,-0.31637 0.062,-0.29696 z m 1.86504,1.14678 h 0.24639 c 0.29559,0 0.29559,0.29886 0,0.29886 h -0.24639 c -0.2956,0 -0.2956,-0.29886 0,-0.29886 z m 6.32552,0.20304 c -0.29679,0.066 -1.26923,1.0688 -1.27111,1.33917 -0.003,0.36507 0.72613,0.20245 1.17035,-0.26122 0.4333,-0.45226 0.50419,-0.96022 0.15057,-1.07795 -0.0133,-0.004 -0.03,-0.004 -0.0498,0 z m -7.59435,0.46883 c 0.0341,9.7e-4 0.068,0.004 0.1019,0.008 0.0182,0.002 0.0393,-5.9e-4 0.0544,0.01 0.0349,0.0243 0.0489,0.0359 0.0658,0.0494 0.037,0.0377 0.0351,0.46769 -0.1616,0.26996 -0.0413,-0.0286 -0.0539,-0.0195 -0.081,-0.0293 -0.0386,-0.002 -0.0568,-0.01 -0.0954,-0.0103 -0.29558,-0.003 -0.33247,-0.29435 -0.0369,-0.29658 0.051,-3.9e-4 0.1019,-0.002 0.15285,-0.001 z m 1.98556,0.34563 c 0.0746,0 0.14943,0.0739 0.14943,0.22167 v 0.21673 c 0,0.0174 -0.003,0.0349 0,0.0521 3.9e-4,0.003 0.007,0.002 0.008,0.005 0.0109,0.0173 0.0171,0.0372 0.027,0.0551 0.051,0.1066 0.0357,0.22698 0.0209,0.34031 -0.0383,0.2931 -0.33791,0.25228 -0.29582,-0.0403 0.006,-0.0438 0.005,-0.0888 0.0122,-0.13232 3.9e-4,-0.003 0.006,-0.003 0.006,-0.006 -5.8e-4,-0.008 -0.005,-0.0158 -0.008,-0.0236 -0.0334,-0.0659 -0.0581,-0.12286 -0.0692,-0.19771 -0.003,-0.0172 0,-0.0347 0,-0.0521 v -0.21673 c 0,-0.1478 0.0748,-0.22167 0.14943,-0.22167 z m 2.22397,0.16578 c -0.15531,-0.002 -0.26807,0.007 -0.30076,0.0274 -0.19593,0.12109 -0.13926,2.81971 0.0635,3.02246 0.32302,0.32302 0.70704,-0.0658 1.00723,-1.02016 0.15839,-0.50358 0.37628,-1.00404 0.48441,-1.11218 0.39793,-0.39793 0.0853,-0.79189 -0.69848,-0.88023 -0.20296,-0.0229 -0.40059,-0.0355 -0.5559,-0.0373 z m -5.5681,0.0487 c 0.043,0.002 0.0778,0.0364 0.11673,0.0548 0.015,0.05 0.0498,0.10005 -0.0355,0.31617 -0.11771,0.17308 -0.34176,0.3045 -0.32037,0.01 0.0101,-0.13993 0.0353,-0.38994 0.23917,-0.38061 z m 23.80131,0.17566 c -0.24086,0.0212 -0.26153,0.38062 -0.0365,1.06465 0.35935,1.09229 0.90442,1.58002 2.35971,2.11142 0.69174,0.25259 1.40009,0.46351 1.57416,0.46883 0.52988,0.0162 1.32306,-0.57961 1.5753,-1.18328 0.20539,-0.49158 0.20834,-0.64345 0.0209,-1.09203 -0.44941,-1.07558 -1.64144,-1.3669 -2.62473,-0.64145 -0.72936,0.53811 -1.19115,0.50011 -1.91979,-0.15817 -0.4411,-0.39851 -0.76172,-0.58649 -0.94906,-0.56997 z m -22.22563,0.18555 c 0.20799,0.007 0.27927,0.30312 0.0209,0.29088 -0.10288,-0.005 -0.23837,0.11872 -0.34259,0.13688 -0.0236,-3.9e-4 -0.0466,0.007 -0.07,0.0106 -0.13244,0.0384 -0.27488,0.0541 -0.40951,0.0194 -0.027,-0.17661 0.007,-0.25417 0.21635,-0.29469 0.31693,-0.0616 0.40063,-0.11494 0.48784,-0.14644 0.0348,-0.0126 0.0673,-0.0177 0.097,-0.0167 z m 5.23426,1.57112 c -0.13056,0 -0.23727,0.10709 -0.23727,0.23764 0,0.13056 0.10671,0.23727 0.23727,0.23727 0.13055,0 0.23726,-0.10671 0.23726,-0.23727 0,-0.13055 -0.10671,-0.23764 -0.23726,-0.23764 z m -1.29925,1.78975 c -0.035,0.009 -0.046,0.0641 -0.046,0.1692 0,0.14121 0.10709,0.25665 0.23764,0.25665 0.13056,0 0.23727,-0.0268 0.23727,-0.0597 0,-0.0329 -0.10671,-0.14831 -0.23727,-0.25666 -0.0972,-0.0807 -0.15659,-0.11833 -0.19163,-0.1095 z m 0.26236,1.08898 c -0.0859,0.002 -0.14981,0.11028 -0.14981,0.26806 0,0.22758 0.0727,0.29682 0.24372,0.23118 0.2701,-0.10365 0.23712,-0.39549 -0.0559,-0.49316 -0.013,-0.004 -0.0258,-0.006 -0.038,-0.006 z m -9.84684,1.24906 c 0.42217,-0.004 0.94765,0.12422 1.52739,0.38061 0.80592,0.35641 0.89011,0.43978 0.89011,0.88517 0,0.27054 0.11678,0.71673 0.2597,0.99127 0.14292,0.27453 0.30989,0.6044 0.37111,0.73308 0.0612,0.12869 0.34874,0.28251 0.63879,0.34183 0.44134,0.0903 1.09415,0.6415 1.0981,0.92738 0.004,0.26966 -0.32963,0.4965 -0.74715,0.50837 -0.59294,0.0169 -1.30324,-0.52157 -1.77948,-1.34906 -0.3121,-0.54228 -0.3742,-0.58035 -0.60875,-0.37263 -0.1436,0.12717 -0.4035,0.25778 -0.57757,0.29012 -0.26627,0.0495 -0.31635,0.18392 -0.31635,0.84716 0,0.78809 -3.9e-4,0.78828 -0.5597,0.83536 -0.30774,0.0259 -0.61047,-0.004 -0.67263,-0.0658 -0.20697,-0.20697 -0.11638,-0.64103 0.19163,-0.91978 0.40145,-0.3633 0.28873,-1.15334 -0.32281,-2.26351 -0.53438,-0.97008 -0.55615,-1.16868 -0.16692,-1.52092 0.18043,-0.16329 0.44617,-0.24576 0.77453,-0.24867 z m 9.90881,0.14524 c -0.26862,0 -0.34769,0.92106 -0.13232,1.5426 0.0377,0.1088 0.21331,0.1981 0.39012,0.1981 0.25054,0 0.32168,-0.1031 0.32168,-0.4673 0,-0.59973 -0.30667,-1.2734 -0.57948,-1.2734 z m -3.8331,1.7407 c 0.57335,0 0.65203,0.0511 0.86692,0.5654 0.12994,0.31102 0.19511,0.69496 0.14487,0.85324 -0.12896,0.40634 -0.54964,0.47126 -1.15096,0.17795 -0.54838,-0.26749 -0.76576,-0.73101 -0.59506,-1.26883 0.0823,-0.25943 0.23549,-0.32776 0.73423,-0.32776 z m 4.03463,0.84563 c -0.0568,-0.01 -0.097,0.0252 -0.097,0.0943 0,0.0922 0.0711,0.16768 0.15817,0.16768 0.087,0 0.15818,-0.0316 0.15818,-0.07 0,-0.0384 -0.0711,-0.11351 -0.15818,-0.1673 -0.0218,-0.0134 -0.0423,-0.0215 -0.0612,-0.0247 z m -1.06883,0.44449 c -0.0773,-0.001 -0.13574,0.086 -0.13574,0.21293 0,0.14506 0.0764,0.23842 0.16996,0.20723 0.0936,-0.0312 0.16996,-0.12454 0.16996,-0.20723 0,-0.0827 -0.0764,-0.17566 -0.16996,-0.20684 -0.0117,-0.004 -0.0232,-0.006 -0.0342,-0.006 z m 1.1848,0.681 c -0.0261,-10e-4 -0.0508,0.004 -0.0726,0.0179 -0.0772,0.0477 -0.1403,0.18941 -0.1403,0.31483 0,0.23262 0.33796,0.31223 0.52624,0.12395 0.12522,-0.12522 -0.13065,-0.44966 -0.31331,-0.45665 z m 10.69817,0.2384 c -0.26077,0.0113 -0.46692,0.10213 -0.46692,0.27909 0,0.069 -0.16007,0.3056 -0.3559,0.52586 -0.19583,0.22026 -0.47653,0.61127 -0.62395,0.86883 -0.26497,0.46287 -0.26266,0.47415 0.22851,0.98251 0.27331,0.28287 0.641,0.51446 0.81674,0.51446 0.33935,0 2.1502,-1.82526 2.1502,-2.16732 0,-0.10731 -0.16006,-0.27976 -0.35589,-0.38289 -0.19583,-0.10313 -0.39185,-0.23027 -0.43537,-0.28251 -0.19626,-0.23564 -0.62214,-0.3526 -0.95742,-0.33803 z m -11.56852,0.20457 c -0.0974,0.0139 -0.20699,0.0997 -0.2559,0.24639 -0.0344,0.10335 0.05,0.18783 0.18784,0.18783 0.13781,0 0.25057,-0.11277 0.25057,-0.25057 0,-0.13973 -0.0851,-0.19757 -0.18251,-0.18365 z m 0.83346,0.70228 c -0.0579,-0.002 -0.1147,0.0106 -0.16578,0.0422 -0.1883,0.11641 -0.19172,0.18301 -0.0201,0.38973 0.24294,0.29273 0.4242,0.31684 0.57301,0.0761 0.13143,-0.21265 -0.13603,-0.49862 -0.38708,-0.50799 z m -13.48679,0.22586 c 0.23111,0.003 0.39372,0.13544 0.52358,0.39734 0.11804,0.23804 0.4667,0.51875 0.81408,0.65552 0.54924,0.21625 0.65972,0.21407 1.15248,-0.0209 0.59873,-0.28552 1.58827,-0.33939 1.95667,-0.10647 0.19139,0.12102 0.20185,0.23701 0.0566,0.62168 -0.20439,0.5415 -0.14484,0.64905 0.35818,0.64905 0.19795,0 0.40362,0.0711 0.45741,0.15818 0.16568,0.26807 0.52729,0.17539 0.63461,-0.16274 0.0561,-0.17659 0.42838,-0.64276 0.82738,-1.03613 0.8185,-0.80692 1.35586,-0.89136 1.43195,-0.2251 0.0602,0.5269 -0.89686,2.1171 -1.3118,2.17987 -0.9994,0.15118 -1.02814,0.17437 -1.02814,0.82966 0,0.44776 0.0672,0.63004 0.23194,0.63004 0.20129,0 0.55932,0.44717 0.55932,0.69849 0,0.0475 -0.29398,0.2365 -0.65323,0.41977 -0.35926,0.18328 -1.03429,0.37247 -1.50002,0.42054 -1.0414,0.10748 -1.1598,-0.0805 -0.86084,-1.36731 0.30574,-1.31603 0.37178,-2.0219 0.19924,-2.12853 -0.0848,-0.0524 -0.78543,-0.13928 -1.55742,-0.19316 -3.39557,-0.23698 -4.73871,-1.08693 -3.22664,-2.04146 0.40401,-0.25504 0.7035,-0.3813 0.9346,-0.37833 z m 13.99022,0.49392 c -0.24987,-0.0262 -0.5213,0.34585 -0.5213,0.77225 0,0.47901 0.26922,0.59771 0.60153,0.2654 0.23366,-0.23366 0.24918,-0.86242 0.0247,-1.00115 -0.034,-0.021 -0.0693,-0.0328 -0.10494,-0.0365 z m 12.35408,0.25894 c -0.0607,-0.004 -0.10447,0.003 -0.12509,0.0239 -0.0837,0.0837 -0.13521,0.44021 -0.11445,0.79202 0.0264,0.44726 -0.0595,0.76324 -0.28556,1.05058 -0.42514,0.54048 -0.41035,0.97587 0.0392,1.14678 0.1994,0.0758 0.45751,0.25201 0.57338,0.39163 0.34885,0.42034 0.89543,0.29988 1.46465,-0.32281 0.28994,-0.31718 0.6515,-0.70882 0.80381,-0.87035 0.41991,-0.44531 0.34432,-0.86028 -0.19772,-1.0848 -0.26111,-0.10815 -0.47453,-0.25657 -0.47453,-0.32966 0,-0.20612 -1.2585,-0.77012 -1.68366,-0.79734 z m -16.23586,0.17756 c 0.39908,0 0.48687,0.0832 0.64526,0.6118 0.44117,1.47249 0.1046,2.2669 -1.25135,2.95401 -0.75201,0.38107 -1.41267,0.49685 -1.62472,0.28479 -0.21068,-0.21068 -0.10893,-1.59364 0.13194,-1.79355 0.13055,-0.10835 0.23726,-0.25846 0.23726,-0.33384 0,-0.15755 0.36751,-0.63903 0.97682,-1.2791 0.27498,-0.28887 0.58455,-0.44411 0.88479,-0.44411 z m 10.95636,0.94944 c -0.30852,0 -0.56683,0.51429 -0.39659,0.78974 0.0543,0.0878 0.23279,0.1597 0.39659,0.1597 0.16379,0 0.3423,-0.0719 0.39658,-0.1597 0.17024,-0.27545 -0.0881,-0.78974 -0.39658,-0.78974 z m 8.69892,0.67111 c -0.18761,0.005 -0.36338,0.22492 -0.24107,0.42282 0.0585,0.0946 0.16925,0.17186 0.24601,0.17186 0.24443,0 0.35865,-0.33755 0.17605,-0.52016 -0.0546,-0.0546 -0.11846,-0.0763 -0.18099,-0.0745 z m -6.53655,0.40951 c -0.31082,-0.0231 -0.79315,0.3094 -1.35552,0.95856 -0.4438,0.51228 -0.80685,1.00251 -0.80685,1.08936 0,0.0868 0.28624,0.41623 0.63612,0.73233 0.61385,0.55457 0.65156,0.56663 1.06845,0.33422 0.23762,-0.13247 0.62553,-0.39542 0.86237,-0.58404 0.36837,-0.29337 0.48968,-0.31592 0.8384,-0.15703 0.62332,0.284 0.86731,0.23011 0.86731,-0.19088 0,-0.2686 -0.2452,-0.56553 -0.85666,-1.03727 -0.47124,-0.36356 -0.89625,-0.76401 -0.94449,-0.88974 -0.0618,-0.16104 -0.16785,-0.24499 -0.30913,-0.25551 z m -8.83695,0.81825 c -0.0121,0.0107 -0.01,0.0181 -0.005,0.0243 0.001,-0.005 0.002,-0.0103 0.003,-0.0156 0.002,-0.0109 0.004,-0.0137 0.001,-0.009 z m -0.0122,0.0354 c 9.8e-4,0.004 0.002,0.007 0.003,0.0103 3.9e-4,0.002 3.9e-4,0.004 7.8e-4,0.006 5.8e-4,-0.005 -1.4e-4,-0.001 0.002,-0.0133 -0.002,-10e-4 -0.003,-10e-4 -0.005,-0.003 z m -3.81637,1.3175 c 0.35786,-0.0245 0.65602,0.18375 0.78137,0.57871 0.0874,0.27532 -0.002,0.44342 -0.41863,0.79164 -0.59489,0.49663 -0.96203,0.55524 -1.2559,0.20114 -0.30325,-0.36539 -0.002,-1.21714 0.51939,-1.46769 0.12835,-0.0617 0.25448,-0.0956 0.37377,-0.1038 z m 8.68333,2.28708 c -0.13055,0 -0.23726,0.10671 -0.23726,0.23727 0,0.13055 0.10671,0.23726 0.23726,0.23726 0.13056,0 0.23726,-0.10671 0.23726,-0.23726 0,-0.13056 -0.1067,-0.23727 -0.23726,-0.23727 z m 2.28253,0.11179 c -0.40698,0.0123 -0.77662,0.41016 -1.32131,1.28442 -0.52962,0.85009 -0.47966,1.26027 0.20951,1.72359 0.90779,0.6103 1.2472,0.48363 1.99279,-0.74373 0.30547,-0.50286 0.55514,-1.02343 0.55514,-1.15705 0,-0.13361 -0.27751,-0.46335 -0.61712,-0.73232 -0.3169,-0.25099 -0.57483,-0.38226 -0.81901,-0.37491 z m 2.35096,0.24791 c -0.37191,-0.003 -0.62819,0.39578 -0.42814,0.76959 0.0867,0.16205 0.22049,0.29468 0.29734,0.29468 0.67275,0 0.91301,-0.8415 0.2962,-1.03727 -0.0568,-0.018 -0.11226,-0.0266 -0.1654,-0.027 z m 4.49167,0.58974 c 0.26986,0 0.26834,0.0284 -0.0278,0.51407 -0.21512,0.35283 -0.31368,0.79646 -0.31407,1.41294 -3.9e-4,0.60529 -0.0815,0.98004 -0.24905,1.14754 -0.13677,0.13677 -0.34579,0.24867 -0.46426,0.24867 -0.25895,0 -0.43918,-0.49164 -0.30684,-0.83651 0.0614,-0.16004 -0.0526,-0.34445 -0.3213,-0.52054 -0.69228,-0.45359 -0.49805,-1.00621 0.53841,-1.53119 0.47255,-0.23935 0.98768,-0.43498 1.14487,-0.43498 z m -19.93817,0.20875 c 0.2341,-0.003 0.55834,0.0478 1.02701,0.14068 0.99377,0.19697 1.0863,0.2493 1.13195,0.64069 0.0395,0.33903 -0.0574,0.49168 -0.47453,0.74602 -0.28845,0.17585 -0.5603,0.31073 -0.60381,0.29962 -0.0435,-0.0111 -0.45124,-0.092 -0.90609,-0.17947 -0.91259,-0.17555 -1.10499,-0.43322 -0.84107,-1.12739 0.13705,-0.36047 0.27638,-0.5152 0.66654,-0.52015 z m 22.11842,0.1076 c 0.0819,0 0.19297,0.0711 0.24677,0.15818 0.0538,0.087 -0.0134,0.15817 -0.14906,0.15817 -0.13569,0 -0.24677,-0.0711 -0.24677,-0.15817 0,-0.087 0.0671,-0.15818 0.14906,-0.15818 z m -18.47124,1.13727 c 0.11044,0.006 0.2561,0.0769 0.51787,0.21788 0.32616,0.17564 0.54472,0.40455 0.51864,0.54259 -0.0728,0.38551 -0.958,0.38841 -1.30571,0.004 -0.2765,-0.30553 -0.27912,-0.34789 -0.0373,-0.58974 0.12093,-0.12093 0.19603,-0.18069 0.30647,-0.17491 z m 6.64377,1.0791 c -0.39147,0.0216 -0.66766,0.56618 -0.31673,0.91712 0.22192,0.22191 0.19081,0.21583 0.50951,0.0935 0.27689,-0.10625 0.34197,-0.77804 0.0905,-0.93346 -0.0963,-0.0595 -0.19294,-0.0822 -0.28328,-0.0772 z m 10.22441,0.80571 c 0.11102,0.009 0.22902,0.0806 0.34639,0.22205 0.10835,0.13056 0.39725,0.23727 0.64183,0.23727 0.32613,0 0.47135,0.0952 0.54449,0.35627 0.0549,0.19584 0.16078,0.49818 0.23536,0.67225 0.0746,0.17407 0.32183,0.82406 0.54982,1.44412 0.22799,0.62006 0.66116,1.5367 0.96236,2.0369 0.30121,0.5002 0.54754,0.99537 0.54754,1.10076 0,0.10539 -0.40048,0.48858 -0.89012,0.85134 -1.17859,0.87318 -1.45556,0.85354 -1.962,-0.13916 l -0.31178,-0.61142 0.59277,-0.0947 c 0.32617,-0.0521 0.69988,-0.15151 0.83043,-0.22092 0.32717,-0.17394 0.39785,-1.2446 0.1038,-1.57339 -0.12858,-0.14378 -0.2834,-0.59744 -0.34411,-1.00799 -0.12383,-0.83748 -0.53142,-1.12471 -0.99734,-0.70305 -0.18873,0.17079 -0.34488,0.19614 -0.53841,0.0878 -0.2788,-0.15602 -0.30889,-0.10063 -0.48289,0.88708 -0.088,0.49953 -0.43118,-1.26136 -0.43118,-2.21218 0,-0.83641 0.26997,-1.36148 0.60304,-1.33309 z m -18.72028,0.85514 c 0.73906,0 0.79232,0.0267 0.8384,0.42586 0.0393,0.34 -0.0491,0.47724 -0.43726,0.67795 -0.46913,0.24259 -0.50083,0.2372 -0.89088,-0.15286 -0.6269,-0.62689 -0.46011,-0.95095 0.48974,-0.95095 z m 19.6777,0.0791 c -0.38396,0 -0.54974,0.40445 -0.29277,0.71407 0.24249,0.29219 0.38349,0.29616 0.61445,0.0179 0.24472,-0.29487 0.0526,-0.73194 -0.32168,-0.73194 z m -9.69132,0.0791 c -0.41754,0 -0.84002,0.0498 -0.93917,0.11065 -0.11129,0.0684 -0.17618,0.57701 -0.16958,1.32891 0.009,1.00195 0.0635,1.25629 0.30836,1.43537 0.16374,0.11972 0.39452,0.1808 0.51293,0.13536 0.11842,-0.0454 0.3794,-0.0829 0.57986,-0.0829 0.2156,0 0.47172,-0.16395 0.62738,-0.40152 0.2355,-0.35943 0.24096,-0.51328 0.0513,-1.46389 l -0.21179,-1.06199 z m 3.99927,0.40381 c 0.069,-0.004 0.14789,0.0609 0.29239,0.19163 0.22789,0.20624 0.58184,0.27491 1.41903,0.27491 1.07132,0 1.12235,0.0171 1.28175,0.43499 0.0913,0.23935 0.21209,0.78006 0.26845,1.20153 0.12725,0.95164 0.49138,1.81373 1.28176,3.03538 1.28045,1.97914 1.29934,2.23061 0.22547,2.97074 -0.21519,0.14832 -0.46456,0.26426 -0.55399,0.25742 -0.25476,-0.0195 -1.5562,-0.8465 -1.61636,-1.02701 -0.0297,-0.0891 0.30306,-0.31254 0.73954,-0.49696 0.68896,-0.29107 0.79355,-0.39502 0.79355,-0.78707 0,-0.2484 -0.16862,-0.6996 -0.37453,-1.00267 -0.20592,-0.30308 -0.42497,-0.78254 -0.48708,-1.06541 -0.1331,-0.6062 -0.27316,-0.62267 -1.11636,-0.13232 -0.56206,0.32687 -0.62806,0.42739 -0.58821,0.8981 0.0247,0.29157 0.22538,0.838 0.44601,1.21446 0.77396,1.32068 0.0851,1.07096 -0.98784,-0.35818 -1.23774,-1.64866 -1.90447,-4.50364 -1.25819,-5.38749 0.10615,-0.14516 0.16558,-0.21809 0.23461,-0.22205 z m 1.91598,1.96997 c -0.29658,0 -0.40901,0.0944 -0.44905,0.37757 -0.0294,0.20775 0.0421,0.43801 0.15855,0.51179 0.11641,0.0738 0.24698,0.13423 0.2905,0.13423 0.27013,0 0.49472,-0.32306 0.44905,-0.64602 -0.04,-0.28316 -0.15247,-0.37757 -0.44905,-0.37757 z m 44.49728,0.40609 c 0.0652,-0.0134 0.079,0.0954 -0.0103,0.33727 -0.0708,0.19135 -0.20594,0.37371 -0.30076,0.40532 -0.11817,0.0394 -0.11383,-0.0694 0.0148,-0.34639 0.11463,-0.24703 0.23099,-0.38281 0.2962,-0.3962 z m -22.42602,0.0205 c 0.0192,-0.002 0.0374,-0.002 0.054,10e-4 0.40475,0.0786 0.37714,0.37747 -0.0529,0.57339 -0.62093,0.28292 -0.74178,0.22501 -0.45209,-0.21711 0.12701,-0.19385 0.31672,-0.34094 0.45095,-0.35742 z m -19.32447,0.17605 c 0.0264,-0.0264 0.21466,0.30754 0.41825,0.74221 0.35708,0.76237 0.37837,1.17168 0.0392,0.75552 -0.17253,-0.21167 -0.54011,-1.41505 -0.45742,-1.49773 z m 16.28947,0.54943 c 0.23807,-2.2e-4 0.53406,0.005 0.90305,0.0141 l 1.18708,0.03 -1.42435,0.60115 c -0.78333,0.33065 -1.67333,0.65021 -1.97796,0.71027 -0.49308,0.0972 -2.07398,0.69288 -3.40268,1.28214 -1.34039,0.59443 -1.70855,0.72015 -2.10648,0.72015 -0.51181,0 -1.13727,0.39688 -1.13727,0.7213 0,0.12562 0.12522,0.35336 0.27833,0.50647 0.1531,0.1531 0.43989,0.55267 0.63764,0.88784 0.27885,0.47261 0.31877,0.65869 0.17719,0.82928 -0.21858,0.26338 -0.49694,0.2739 -1.30533,0.0494 -0.53891,-0.14964 -0.59694,-0.21247 -0.51065,-0.55628 0.0642,-0.25582 0.0232,-0.41618 -0.12091,-0.47148 -0.22718,-0.0872 -1.37188,0.50866 -1.37188,0.71407 0,0.0645 -0.17823,0.1982 -0.39582,0.29734 -0.56554,0.25768 -0.48797,0.50343 0.15856,0.50343 0.63358,0 0.7258,0.26995 0.2422,0.70761 -0.23483,0.21252 -0.27367,0.35225 -0.15817,0.56806 0.27148,0.50727 0.16407,1.05298 -0.30609,1.55629 -0.38564,0.41283 -0.56909,0.48862 -1.14715,0.47338 -0.78985,-0.0208 -3.28761,-0.39253 -3.40117,-0.50608 -0.0418,-0.0418 0.32004,-0.2696 0.80419,-0.50647 0.48414,-0.23687 0.88023,-0.47847 0.88023,-0.53689 0,-0.15673 -0.57613,-1.25894 -0.79734,-1.52548 -0.24947,-0.3006 -0.68254,-0.29135 -1.29963,0.0277 -0.89392,0.46227 -1.08986,0.83322 -0.76312,1.44526 0.0807,0.15113 0.18589,0.40111 0.23384,0.55552 0.0479,0.1544 0.24273,0.33809 0.4327,0.40837 0.32832,0.12145 0.33035,0.13382 0.043,0.24905 -0.16628,0.0667 -0.88995,0.15992 -1.608,0.20722 l -1.30533,0.0859 v -0.57035 c 0,-0.57004 0.41259,-1.18745 1.42434,-2.13119 0.21759,-0.20297 1.14317,-1.09924 2.05705,-1.99165 0.91389,-0.89242 1.8932,-1.75773 2.17606,-1.92321 0.28287,-0.16549 0.51408,-0.35683 0.51408,-0.4251 0,-0.0683 0.10709,-0.12396 0.23764,-0.12396 0.13056,0 0.23727,-0.102 0.23727,-0.22623 0,-0.22722 1.52354,-1.03993 1.94944,-1.03993 0.12561,0 0.43284,0.20175 0.68251,0.44829 0.50247,0.49613 1.50121,1.13423 1.7753,1.13423 0.0969,0 0.41676,-0.23159 0.71103,-0.51446 0.36314,-0.34906 0.93616,-0.63973 1.78329,-0.90456 1.6297,-0.5095 3.90994,-1.41402 4.02208,-1.59545 0.0836,-0.13528 0.27705,-0.18451 0.99126,-0.18518 z m -23.8804,1.45249 c -0.0961,0.003 -0.2142,0.0644 -0.33879,0.18897 -0.12829,0.12829 -0.13448,0.2722 -0.0209,0.48442 0.21694,0.40534 0.52384,0.27724 0.58556,-0.24411 0.0334,-0.28185 -0.0656,-0.43509 -0.22586,-0.42928 z m 42.46761,0.48517 c 0.59244,-0.004 0.70641,0.35686 0.1981,0.6289 -0.17408,0.0932 -0.31674,0.12264 -0.31674,0.0654 0,-0.0572 -0.0906,-0.0286 -0.20152,0.0635 -0.11097,0.0921 -0.37812,0.1951 -0.59354,0.2289 -0.82847,0.13 -2.31625,0.6148 -2.84451,0.927 -0.13055,0.0772 -0.40134,0.21101 -0.60152,0.29734 -0.20019,0.0863 -0.43347,0.35684 -0.51864,0.60115 -0.0852,0.24431 -0.36647,0.5689 -0.6251,0.72168 -0.31739,0.18748 -0.47034,0.40365 -0.47034,0.66464 0,0.38128 -0.36064,0.54116 -0.54563,0.24183 -0.24776,-0.40088 0.69485,-1.51774 2.44488,-2.89698 1.15551,-0.91069 2.80066,-1.53378 4.07456,-1.54336 z m -32.62533,0.0171 c -3.9e-4,-9.9e-4 -10e-4,10e-4 -0.002,0.003 7.8e-4,-3e-5 0.002,-3.7e-4 0.002,-3.9e-4 -2e-4,-7e-4 -1.1e-4,-0.002 -3.9e-4,-0.002 z m -8.23885,0.33042 c -0.0687,0.003 -0.14421,0.0117 -0.2289,0.0236 -1.09061,0.15254 -1.16574,0.22611 -1.05818,1.03346 0.20705,1.55408 0.29822,2.00058 0.44601,2.18481 0.0914,0.11392 0.35527,0.15651 0.65362,0.1057 1.27974,-0.21793 1.5405,-0.70759 1.11598,-2.09773 -0.32087,-1.0507 -0.44797,-1.27391 -0.92853,-1.24982 z m 11.50921,0.44259 c -0.41979,6e-4 -0.95779,0.21152 -1.44868,0.60267 -0.24332,0.19388 -0.34531,0.39658 -0.28213,0.56122 0.14607,0.38065 0.9587,0.31939 1.48138,-0.11141 0.24603,-0.20278 0.58009,-0.41707 0.74221,-0.47643 0.2409,-0.0882 0.25898,-0.15088 0.0992,-0.34335 -0.13076,-0.15756 -0.34014,-0.23306 -0.59202,-0.2327 z m 0.78556,1.54222 c -0.20146,0.0105 -0.43594,0.10057 -0.60001,0.26464 -0.12476,0.12476 -0.36903,0.27191 -0.54259,0.327 -0.17355,0.0551 -0.31559,0.21011 -0.31559,0.34449 0,0.19538 0.11577,0.22268 0.57719,0.13612 0.75411,-0.14147 1.34977,-0.54104 1.2829,-0.86008 -0.0322,-0.15383 -0.20044,-0.22268 -0.4019,-0.21217 z m -6.64073,0.011 c -2e-4,-10e-4 -0.004,5.5e-4 -0.004,0.002 7.8e-4,0.003 0.003,0.005 0.003,0.008 0,-0.003 9.7e-4,-0.007 3.8e-4,-0.01 z m 36.88619,0.13841 c 0.37706,0.0162 0.75207,0.25909 0.70647,0.57263 -0.0285,0.19578 -0.20979,0.37561 -0.44373,0.4403 -0.6068,0.1678 -2.50137,0.16005 -2.60686,-0.0106 -0.11732,-0.18983 0.72654,-0.63775 1.21408,-0.6445 0.20015,-0.003 0.49461,-0.10392 0.654,-0.22471 0.13299,-0.10079 0.30465,-0.14045 0.47604,-0.13308 z m -32.30821,0.84259 c -0.56623,0.0265 -1.04883,1.34766 -0.66237,1.81332 0.41095,0.49517 0.94107,0.0885 1.16921,-0.89696 0.0913,-0.39449 -0.20511,-0.93051 -0.50684,-0.91636 z m -8.33162,0.65704 c 0.002,0.005 0.006,0.009 0.01,0.0129 3.9e-4,-0.002 0.002,-0.004 0.002,-0.005 7.8e-4,-0.005 -0.0137,-0.0118 -0.0118,-0.008 z m -0.13422,0.1692 c -0.0445,0.0345 -0.0754,0.0553 -0.004,0.0179 0.007,-0.004 0.01,-0.006 0.0122,-0.009 -0.003,-0.003 -0.005,-0.006 -0.008,-0.009 z m 19.6431,0.11825 c 0.19569,0 0.2093,0.042 0.0616,0.18974 -0.29605,0.29605 -0.22361,1.0534 0.13764,1.43879 0.35355,0.37717 0.34849,0.54692 -0.0631,2.02359 -0.13538,0.48566 -0.29619,1.26895 -0.35704,1.7407 -0.0608,0.47174 -0.1697,1.01786 -0.24221,1.21369 -0.14707,0.3972 -0.48589,0.46447 -0.74829,0.14829 -0.12892,-0.15533 -0.0799,-0.34569 0.19353,-0.75171 0.34802,-0.51674 0.62167,-1.8935 0.46198,-2.32397 -0.0403,-0.1088 -0.17004,-0.19772 -0.28821,-0.19772 -0.35393,0 -0.39643,-0.23375 -0.21787,-1.19963 0.21593,-1.16811 0.73431,-2.28177 1.06198,-2.28177 z m 21.84084,0.32472 c 0.55885,0.004 0.71549,0.0691 0.87073,0.22434 0.24035,0.24034 0.24886,0.32311 0.0635,0.61597 -0.16089,0.25421 -0.17336,0.44996 -0.0498,0.7886 0.23131,0.634 -0.12384,0.84662 -1.62206,0.97035 -2.0708,0.17101 -3.09085,0.43107 -3.26733,0.8327 -0.1455,0.33113 -0.24996,0.3525 -1.66161,0.34297 -1.17653,-0.008 -1.80981,0.079 -2.89317,0.39772 -1.62685,0.47854 -1.60325,0.47661 -1.85553,0.17263 -0.23452,-0.28258 -0.10753,-1.12509 0.24563,-1.62929 0.32816,-0.46852 0.53114,-0.4429 0.49468,0.0624 -0.0394,0.54654 0.40041,0.8482 0.83803,0.57491 0.17319,-0.10817 0.44043,-0.1981 0.59392,-0.20001 0.56681,-0.007 1.62396,-0.6054 1.62396,-0.91901 0,-0.41017 -0.33849,-0.66594 -0.74182,-0.56046 -0.39107,0.10226 -0.66004,-0.2329 -0.3464,-0.43157 0.46856,-0.29678 1.17717,-0.1566 1.51446,0.29963 0.28225,0.38176 0.43298,0.44177 1.09773,0.43536 0.81759,-0.008 0.81506,-0.004 0.60153,-0.90495 -0.1605,-0.67732 0.46893,-0.89367 2.96656,-1.01902 0.71137,-0.0357 1.1917,-0.0556 1.527,-0.0532 z m -26.77015,0.83841 c 0.0505,-0.002 0.0324,0.16385 -0.0266,0.57757 -0.0559,0.39166 -0.16234,1.06787 -0.2365,1.50305 -0.0742,0.43518 -0.14002,1.30779 -0.14639,1.9388 -0.0136,1.34891 -0.2589,1.51875 -0.41293,0.28593 -0.0671,-0.53687 -0.22023,-0.96344 -0.40685,-1.13232 -0.50106,-0.45346 -0.37571,-1.11699 0.27567,-1.45971 0.19752,-0.10392 0.37865,-0.39794 0.43689,-0.70837 0.0548,-0.29187 0.21033,-0.66793 0.34563,-0.83537 0.0857,-0.10611 0.1408,-0.16808 0.1711,-0.16958 z m 27.03518,0.26084 c -0.13056,0 -0.23765,0.10709 -0.23765,0.23764 0,0.13056 0.10709,0.23727 0.23765,0.23727 0.13055,0 0.23726,-0.10671 0.23726,-0.23727 0,-0.13055 -0.10671,-0.23764 -0.23726,-0.23764 z m -2.58063,0.0331 c -0.1081,0.006 -0.23506,0.0343 -0.37681,0.0878 -0.34451,0.13004 -0.56087,0.13824 -0.69582,0.0262 -0.13539,-0.11236 -0.23007,-0.10712 -0.30685,0.0171 -0.15346,0.2483 0.075,0.43218 0.63689,0.51217 0.89687,0.12769 0.99483,0.11414 1.09582,-0.14905 0.12561,-0.32733 -0.0289,-0.51238 -0.35323,-0.4943 z m 1.33005,0.01 c -0.0272,-0.003 -0.0641,0.0215 -0.11255,0.07 -0.0969,0.0968 -0.12844,0.25367 -0.07,0.34829 0.16369,0.26485 0.24601,0.20566 0.24601,-0.17643 0,-0.15977 -0.0182,-0.23754 -0.0635,-0.24183 z m -21.06251,0.11521 c -0.24472,0 -0.31434,0.18681 -0.13613,0.36502 0.12643,0.12643 0.37339,-0.0164 0.37339,-0.21597 0,-0.0819 -0.10671,-0.14905 -0.23726,-0.14905 z m 28.72644,0.54031 c -3.9e-4,9e-4 -7.8e-4,0.002 -0.001,0.003 0.001,0.003 0.002,0.005 0.003,0.008 0.005,-1.4e-4 0.0104,-4.1e-4 0.0156,-3.9e-4 0.003,-0.003 0.006,-0.007 0.009,-0.0103 -0.009,8.4e-4 -0.0177,-5.4e-4 -0.0266,0 z m -28.94279,0.40951 c -0.36292,0 -0.56416,0.23612 -0.41141,0.48327 0.15401,0.24921 0.61646,0.10695 0.67719,-0.20836 0.0362,-0.18781 -0.0482,-0.27491 -0.26578,-0.27491 z m -10.21377,0.31635 c -0.29753,0 -0.46321,0.26607 -0.34981,0.5616 0.10084,0.26278 0.24163,0.28403 0.55628,0.0848 0.26895,-0.1703 0.1169,-0.64639 -0.20647,-0.64639 z m 14.81532,0.95438 c 0.0954,-0.004 0.209,0.0518 0.40571,0.16312 0.49299,0.27905 0.49822,0.57267 0.0285,1.66845 -0.16395,0.3825 -0.38963,0.68491 -0.50152,0.67187 -0.80488,-0.0938 -1.07389,-0.17979 -1.07377,-0.34297 1.9e-4,-0.35845 0.57648,-1.70234 0.84525,-1.97111 0.12347,-0.12347 0.20046,-0.18575 0.29582,-0.18936 z m 0.12471,0.62814 c -0.087,0 -0.15817,0.0711 -0.15817,0.15818 0,0.087 0.0711,0.15818 0.15817,0.15818 0.087,0 0.15818,-0.0711 0.15818,-0.15818 0,-0.087 -0.0711,-0.15818 -0.15818,-0.15818 z m 12.00579,0.6156 c 1.99977,0.002 4.51952,0.34388 4.67266,0.74297 0.14904,0.38838 -0.5807,0.53741 -2.35629,0.48175 -0.91156,-0.0286 -1.68853,-0.0206 -1.72663,0.0175 -0.13787,0.13788 -1.68646,0.15286 -1.77035,0.0171 -0.0473,-0.0766 -0.15899,-0.0944 -0.24829,-0.0392 -0.0893,0.0552 -0.64638,0.12846 -1.23765,0.16274 -0.88748,0.0514 -1.0924,0.0171 -1.17454,-0.19696 -0.202,-0.52643 0.10227,-0.67911 2.12169,-1.06503 0.44407,-0.0849 1.05282,-0.12173 1.7194,-0.12091 z m -12.31301,0.17566 c -0.2137,0 -0.36159,0.28834 -0.24487,0.47719 0.0547,0.0885 0.16575,0.12004 0.24677,0.07 0.19225,-0.1188 0.19173,-0.54716 -0.002,-0.54716 z m -35.62687,0.30343 c -0.14762,-0.0163 -0.41253,0.14599 -0.79735,0.48517 -0.59212,0.52191 -1.1381,0.59773 -1.80724,0.25057 -1.1103,-0.57603 -2.44754,0.27284 -2.44754,1.55401 0,0.67877 0.62919,1.47631 1.23233,1.56237 0.64216,0.0916 1.16629,-0.0426 1.69545,-0.43423 0.26111,-0.19326 0.70853,-0.472 0.99468,-0.61939 0.50711,-0.2612 0.75063,-0.66164 1.12244,-1.84716 0.19264,-0.61424 0.19706,-0.93041 0.007,-0.95134 z m 55.01142,1.2194 c 0.1501,0.002 0.27763,0.0404 0.3597,0.12243 0.18035,0.18035 0.11286,0.31167 -0.4251,0.82738 -0.75045,0.71942 -1.7742,1.06311 -3.91714,1.31446 -1.73881,0.20396 -3.19372,0.1894 -4.88787,-0.0487 -1.99482,-0.28031 -1.14493,-0.5308 2.21561,-0.65323 2.43934,-0.0889 3.04304,-0.14112 3.17683,-0.27491 0.0549,-0.0549 0.28213,-0.0307 0.50494,0.054 0.27035,0.10279 0.45968,0.0996 0.56921,-0.01 0.0903,-0.0903 0.31017,-0.16494 0.4886,-0.1654 0.18838,-5.9e-4 0.42888,-0.18475 0.57376,-0.43955 0.23771,-0.41803 0.89116,-0.73351 1.34146,-0.72662 z m -38.2326,0.1673 c -0.1908,10e-4 -0.32636,0.0203 -0.3597,0.0631 -0.0285,0.0366 -0.12659,0.40833 -0.21787,0.82586 -0.20428,0.93447 0.0335,1.3019 0.98062,1.5175 1.29563,0.29493 1.46393,0.24462 1.82359,-0.54487 0.38319,-0.84117 0.32135,-1.16952 -0.28898,-1.53005 -0.29578,-0.17472 -1.36525,-0.33473 -1.93766,-0.33156 z m 24.44847,0.73765 c 0.0301,-1.3e-4 0.0542,0.004 0.0703,0.0145 0.23925,0.14786 0.34424,1.07273 0.14867,1.30837 -0.10218,0.12312 -0.41957,0.32152 -0.70571,0.44107 -0.3455,0.14436 -0.59957,0.40709 -0.75628,0.78213 -0.1604,0.38392 -0.33877,0.56465 -0.55665,0.56465 -0.32316,0 -0.80343,0.70051 -0.80343,1.17187 0,0.15179 -0.21477,0.27457 -0.59316,0.3384 -0.32639,0.0551 -0.7176,0.13411 -0.86921,0.17567 -0.18347,0.0503 -0.33582,-0.0567 -0.45552,-0.31939 -0.23051,-0.50593 -0.077,-0.70222 1.99736,-2.55744 0.87036,-0.77843 1.61809,-1.45897 1.66161,-1.51255 0.14461,-0.17807 0.65127,-0.40631 0.86198,-0.40723 z m -30.11733,1.17073 -0.26236,0.90267 c -0.14432,0.49646 -0.22532,0.9397 -0.18023,0.98479 0.0451,0.0451 0.35422,0.17902 0.68708,0.29773 0.33287,0.1187 0.94324,0.21899 1.35666,0.22281 0.67558,0.006 0.75206,-0.029 0.75362,-0.34905 9.7e-4,-0.19583 0.0436,-0.60857 0.0947,-0.91712 0.0819,-0.49505 0.0436,-0.58329 -0.32434,-0.75095 -0.22935,-0.1045 -0.8014,-0.2353 -1.27111,-0.2905 z m 3.95288,0.43688 c -0.50655,0 -0.78449,0.43911 -0.49696,0.78556 0.11789,0.14205 0.36318,0.23699 0.54487,0.21103 0.25106,-0.0359 0.33042,-0.16125 0.33042,-0.52206 0,-0.39512 -0.0634,-0.47453 -0.37833,-0.47453 z m 19.02523,0.74754 c -0.20195,-0.0281 -0.41768,0.23322 -0.29886,0.42548 0.0585,0.0946 0.16582,0.17186 0.23841,0.17186 0.21051,0 0.32699,-0.45422 0.14525,-0.56654 -0.0273,-0.0169 -0.0559,-0.0268 -0.0848,-0.0308 z m -5.91487,0.0228 c -0.076,0.006 -0.1476,0.0328 -0.20266,0.0878 -0.10347,0.10348 -0.0864,0.24147 0.0502,0.40609 0.24182,0.29138 0.53474,0.23784 0.60228,-0.11027 0.0428,-0.22065 -0.22191,-0.40043 -0.44981,-0.38365 z m -3.20496,0.19696 c -0.0879,-0.006 -0.18283,0.0146 -0.28061,0.0669 -0.34166,0.18285 -0.40612,0.77983 -0.11559,1.07035 0.26809,0.26809 0.70803,0.2357 0.82167,-0.0605 0.20632,-0.53765 -0.0444,-1.05236 -0.42547,-1.07682 z m 3.95744,0.73423 c -0.18863,0.009 -0.28969,0.0713 -0.42396,0.19277 -0.27421,0.24816 -0.28069,0.32731 -0.081,0.99089 0.1194,0.39674 0.27414,0.77875 0.34411,0.84867 0.07,0.0699 0.59017,0.19306 1.1559,0.27377 0.56574,0.0807 1.04151,0.15541 1.05705,0.16616 0.0155,0.0107 0.14003,-0.0921 0.2768,-0.2289 0.34077,-0.34077 0.32339,-1.38015 -0.0281,-1.67758 -0.15232,-0.12887 -0.76094,-0.32603 -1.3521,-0.43841 -0.48413,-0.092 -0.76005,-0.13636 -0.94868,-0.12737 z m -12.67462,0.68403 c -0.3815,0.004 -0.64785,0.0504 -0.71065,0.12966 -0.0762,0.0961 -0.18687,0.50947 -0.24601,0.91826 -0.10359,0.7161 -0.0893,0.75249 0.38784,0.99925 0.2724,0.14086 0.79226,0.31486 1.15552,0.38669 0.36325,0.0718 0.69966,0.13837 0.74753,0.14791 0.19672,0.0392 0.46693,-0.38722 0.46693,-0.73689 0,-0.2059 0.0712,-0.50794 0.15855,-0.6711 0.12311,-0.23002 0.0788,-0.38777 -0.19772,-0.70229 -0.29723,-0.33813 -0.521,-0.41462 -1.34525,-0.46084 -0.14945,-0.008 -0.28957,-0.012 -0.41674,-0.0106 z m 9.9016,1.01674 c -1.02218,0 -1.20724,0.1201 -1.34032,0.87035 -0.0463,0.26111 -0.13134,0.62166 -0.18897,0.80152 -0.0788,0.24578 -0.0138,0.37006 0.26198,0.49925 0.39726,0.1861 1.53673,0.11399 2.21142,-0.13993 0.43161,-0.16243 0.60269,-0.52182 0.60647,-1.27415 0.003,-0.5674 -0.38592,-0.75704 -1.55058,-0.75704 z m -15.70848,0.10608 c -0.44882,-0.008 -0.53358,0.0816 -0.82282,0.58328 l -0.3521,0.61065 0.60951,0.52776 c 0.33519,0.29029 0.79797,0.55699 1.02853,0.5924 1.17921,0.18111 1.30837,0.12366 1.66845,-0.74107 0.19885,-0.47753 0.21454,-0.66572 0.07,-0.83993 -0.28509,-0.34352 -1.22106,-0.6853 -1.98518,-0.72472 -0.0806,-0.004 -0.15224,-0.007 -0.21635,-0.008 z m 28.44545,0.54868 c 0.0299,6e-5 0.0626,0.003 0.0981,0.008 0.47409,0.0678 0.52739,0.55105 0.0992,0.89772 -0.35082,0.28408 -0.35124,0.28968 -0.0574,0.78708 0.16276,0.27553 0.38509,0.50077 0.49392,0.50077 0.37068,0 1.31636,0.53267 1.31636,0.74145 0,0.11443 0.10671,0.20798 0.23727,0.20798 0.15825,0 0.23764,-0.15803 0.23764,-0.47453 0,-0.49776 0.26338,-0.62256 0.60115,-0.28479 0.14178,0.1418 0.23571,0.14406 0.36996,0.01 0.13427,-0.13427 0.0927,-0.32743 -0.16388,-0.76236 l -0.34373,-0.58252 0.42548,0.10685 c 1.12938,0.28345 5.14337,3.53066 5.73807,4.64186 0.23938,0.44729 0.22357,1.20129 -0.038,1.82739 -0.24396,0.58387 -0.97046,0.8918 -1.76047,0.74601 -0.59008,-0.1089 -0.76545,-0.6384 -0.2114,-0.63841 0.46009,-1e-5 1.29563,-0.99338 1.16959,-1.3905 -0.0481,-0.15164 -0.54156,-0.72135 -1.09659,-1.26617 l -1.00913,-0.99088 -0.76008,0.71787 c -0.57225,0.54054 -0.84145,0.694 -1.08899,0.62016 -0.33872,-0.10105 -2.18663,-1.46433 -2.28062,-1.68252 -0.029,-0.0674 -0.14745,-0.12243 -0.2635,-0.12243 -0.11605,0 -0.23487,-0.0545 -0.26388,-0.1213 -0.078,-0.17946 -1.653,-1.30305 -1.82663,-1.30305 -0.082,0 -0.31867,-0.18058 -0.52624,-0.40152 l -0.37757,-0.40191 0.34867,-0.0913 c 0.24086,-0.063 0.40051,-0.28397 0.51674,-0.7156 0.12084,-0.44876 0.20635,-0.58373 0.41597,-0.58327 z m -23.88116,1.2905 c -0.067,0.008 -0.14658,0.0407 -0.25247,0.0973 -0.41076,0.21983 -0.44525,0.57476 -0.076,0.78137 0.53262,0.29807 0.97853,-0.20074 0.61902,-0.6924 -0.10248,-0.14014 -0.17883,-0.19886 -0.2905,-0.18631 z m -5.48179,0.77149 c -0.0758,0.008 -0.14961,0.0397 -0.20989,0.1 -0.0927,0.0927 -0.12363,0.2853 -0.0688,0.42814 0.12669,0.33014 0.63366,0.24222 0.70381,-0.12205 0.0472,-0.24528 -0.19785,-0.4305 -0.4251,-0.40609 z m 23.44542,0.66692 c -0.22899,-0.0156 -0.54616,0.24284 -0.42928,0.43195 0.12044,0.19489 0.50224,0.17584 0.63042,-0.0316 0.0585,-0.0946 0.03,-0.24828 -0.0631,-0.34145 -0.037,-0.037 -0.0852,-0.0553 -0.13802,-0.0589 z m -26.62605,0.41408 c -0.34458,0 -1.18122,1.3318 -1.05058,1.67225 0.095,0.24747 0.72966,0.31759 0.72966,0.0806 0,-0.0804 0.18326,-0.36387 0.40723,-0.63004 0.45362,-0.5391 0.40877,-1.12282 -0.0863,-1.12282 z m 36.57821,0.31521 c -0.22767,0.0185 -0.38131,0.26696 -0.26426,0.63574 0.11862,0.37374 0.43725,0.40837 0.71179,0.0776 0.15717,-0.18938 0.15717,-0.28515 0,-0.47453 -0.14774,-0.17802 -0.31093,-0.24988 -0.44753,-0.23878 z m -23.57432,0.002 c -0.39146,0.0216 -0.66766,0.56619 -0.31673,0.91712 0.22192,0.22192 0.19081,0.21584 0.50951,0.0935 0.27689,-0.10625 0.34197,-0.77805 0.0905,-0.93347 -0.0963,-0.0595 -0.19294,-0.0822 -0.28328,-0.0772 z m 20.41384,0.73537 0.54221,0.29202 c 0.74785,0.40275 2.59127,2.2667 2.59127,2.62017 0,0.4214 -0.26663,0.51885 -0.6616,0.24221 -0.37317,-0.26138 -0.76274,-0.0966 -0.76274,0.32243 0,0.1199 -0.14487,0.21787 -0.32168,0.21787 -0.1768,0 -0.36245,0.10671 -0.41255,0.23727 -0.0501,0.13055 -0.2573,0.23764 -0.46046,0.23764 -0.20314,0 -0.41313,0.0711 -0.46692,0.15818 -0.15638,0.25303 -0.31281,0.19048 -0.89278,-0.35628 -0.96687,-0.91148 -1.55369,-1.38442 -1.71712,-1.38442 -0.0878,0 -0.15932,-0.0575 -0.15932,-0.12776 0,-0.0703 -0.32051,-0.35397 -0.71217,-0.63004 -0.73326,-0.51684 -0.92066,-1.02803 -0.52244,-1.42624 0.45359,-0.4536 1.21052,-0.0614 1.69507,0.87833 0.24208,0.46949 0.61024,0.45205 0.83422,-0.0395 0.0992,-0.21759 0.23438,-0.39544 0.30077,-0.39544 0.0664,0 0.34705,-0.19052 0.62358,-0.42319 z m -26.79905,0.0992 c -0.011,0.001 -0.0221,0.003 -0.0331,0.005 0.0108,0.01 0.0159,0.0145 0.0228,0.0209 0.004,-0.008 0.007,-0.0167 0.0103,-0.0255 z m 14.8887,0.52434 c -0.0514,3.9e-4 -0.10361,0.007 -0.15552,0.0205 -0.30546,0.0799 -0.43233,0.65893 -0.19619,0.89507 0.22512,0.22512 0.91242,0.0223 0.9711,-0.2867 0.0628,-0.33092 -0.25959,-0.63166 -0.61939,-0.6289 z m -23.02754,0.53993 c -0.34647,0.0297 -1.00844,0.5897 -1.6985,1.50267 -0.3947,0.52222 -0.86568,1.03914 -1.04639,1.14868 -0.36586,0.22175 -0.43453,0.60178 -0.1308,0.72434 0.1088,0.0439 0.2054,0.0855 0.21445,0.0924 0.009,0.007 0.20382,-0.14751 0.4327,-0.34334 0.22889,-0.19584 0.72318,-0.60527 1.09849,-0.9099 0.78029,-0.63334 1.37986,-1.46368 1.37986,-1.91028 0,-0.22215 -0.0923,-0.31807 -0.24981,-0.30456 z m 3.52245,0.002 c -0.26108,-0.0129 -0.50506,0.056 -0.68403,0.23498 -0.13055,0.13055 -0.366,0.23726 -0.5232,0.23726 -0.46449,0 -0.674,0.36994 -0.41065,0.7251 0.19125,0.25793 0.27373,0.27381 0.54906,0.10571 0.47059,-0.28732 0.80329,-0.24457 1.51522,0.19391 0.78345,0.48255 0.96732,0.49249 1.08099,0.0578 0.19392,-0.74154 -0.74413,-1.51605 -1.52739,-1.55476 z m 32.14434,0.6635 c -0.2704,-0.0247 -0.50794,0.21042 -0.37338,0.42814 0.14602,0.23628 0.32928,0.21551 0.56084,-0.0635 0.1587,-0.19122 0.14551,-0.25481 -0.0704,-0.33764 -0.039,-0.015 -0.0785,-0.0235 -0.11711,-0.027 z m -11.02517,0.0182 c -0.0834,0.003 -0.16975,0.008 -0.25894,0.0179 -1.19836,0.12654 -1.49124,0.77644 -0.57453,1.27454 0.58251,0.3165 1.12041,0.2908 1.73272,-0.0825 0.92637,-0.5648 0.35197,-1.25052 -0.89925,-1.2099 z m -16.69442,0.64715 c -0.42092,0.026 -0.24239,0.25034 0.53575,0.66655 0.78651,0.42068 1.57833,0.49914 1.57833,0.15665 0,-0.35078 -0.64937,-0.68009 -1.55894,-0.79088 -0.12864,-0.0157 -0.24134,-0.0262 -0.33803,-0.0312 -0.0846,-0.004 -0.15698,-0.004 -0.21711,-0.001 z m 11.75864,0.46693 c -0.18975,5.8e-4 -0.33234,0.0197 -0.39012,0.062 -0.0888,0.0649 -0.24442,0.30661 -0.34563,0.53727 -0.24005,0.54714 -0.0163,0.86223 0.82549,1.16199 0.99848,0.35554 1.42172,0.29978 1.8829,-0.2483 0.52207,-0.62044 0.51647,-0.87434 -0.0255,-1.15248 -0.38603,-0.19811 -1.37791,-0.36219 -1.94716,-0.36045 z m -6.34719,0.727 c -0.34528,0.002 -0.61925,0.0567 -0.69773,0.18365 -0.20391,0.32994 -0.34422,1.2143 -0.22357,1.40952 0.066,0.10682 0.46646,0.28741 0.88974,0.40114 0.42327,0.11373 0.99249,0.21161 1.26503,0.21749 0.45674,0.01 0.50923,-0.0442 0.67186,-0.69012 0.097,-0.38539 0.13399,-0.81127 0.0821,-0.94639 -0.12377,-0.32255 -1.22784,-0.57876 -1.98746,-0.57529 z m 11.55787,0.0608 c -0.36069,-0.009 -0.58282,0.0649 -0.90076,0.26197 -0.60673,0.37614 -0.61673,0.76419 -0.0274,1.06237 0.21682,0.1097 0.53696,0.19928 0.71103,0.19924 0.47039,-1e-4 1.6272,-0.37205 1.85021,-0.59506 0.31882,-0.31882 -0.30959,-0.77974 -1.2175,-0.89316 -0.1597,-0.02 -0.29536,-0.0323 -0.4156,-0.0354 z m 7.62515,0.61064 c 0.0804,0.002 0.1719,0.0177 0.28328,0.0422 0.61879,0.13591 1.29012,0.76799 1.29012,1.21484 0,0.17872 -0.2138,0.52453 -0.47491,0.76845 -0.26111,0.24391 -0.47453,0.52186 -0.47453,0.61749 0,0.35507 -0.45685,0.15456 -1.08936,-0.47795 -0.76854,-0.76854 -0.80443,-1.07082 -0.2076,-1.7388 0.28921,-0.32368 0.43175,-0.43314 0.673,-0.42624 z m 3.06619,0.18404 c 0.23546,0.01 0.43491,0.14331 0.81787,0.49696 1.43145,1.32183 1.94697,1.87375 1.86846,2.00077 -0.0459,0.0742 -0.253,0.13499 -0.46008,0.13499 -0.25685,0 -0.78342,-0.39784 -1.65743,-1.25211 l -1.28137,-1.25247 0.45703,-0.10001 c 0.0946,-0.0208 0.17703,-0.0314 0.25552,-0.0281 z m -28.57245,0.57567 c -0.84859,0 -0.34368,0.82161 0.81027,1.31826 0.72726,0.313 1.09651,0.31936 1.21104,0.0209 0.19724,-0.51402 -1.04814,-1.33917 -2.02131,-1.33917 z m 25.39714,0 c -0.28398,0 -0.43252,0.60995 -0.21293,0.87453 0.2163,0.26063 0.78784,0.0469 0.78784,-0.29468 0,-0.25546 -0.3217,-0.57985 -0.57491,-0.57985 z m -20.4606,1.15324 c -0.22895,-0.0131 -0.41616,0.14453 -0.61598,0.47947 -0.26055,0.43673 -0.25679,0.45408 0.17795,0.8308 0.51254,0.44414 1.38115,0.51506 1.75324,0.14297 0.23598,-0.23597 0.19217,-0.70761 -0.0658,-0.70761 -0.0711,0 -0.34722,-0.18338 -0.6137,-0.40761 -0.25448,-0.21413 -0.45768,-0.3278 -0.63574,-0.33802 z m -5.71107,0.27528 c -0.21627,-0.0123 -0.29883,0.079 -0.48061,0.3156 -0.51187,0.66615 -0.4068,0.94349 0.36426,0.9616 0.3699,0.009 0.85085,0.0729 1.06845,0.14259 0.66526,0.21305 0.94941,0.17741 0.94563,-0.11864 -0.006,-0.49686 -0.53506,-0.97 -1.3137,-1.17567 -0.27643,-0.073 -0.45427,-0.11807 -0.58403,-0.12548 z m 11.00084,0.0745 -0.0475,0.81331 c -0.0422,0.72597 -5.9e-4,0.85018 0.38669,1.15477 0.33989,0.26735 0.60714,0.33094 1.23385,0.29429 0.75039,-0.0439 0.81674,-0.0828 1.07491,-0.6327 0.15136,-0.32239 0.23499,-0.69081 0.18594,-0.81864 -0.14201,-0.37007 -1.08829,-0.73764 -1.99697,-0.77567 z m 21.00243,1.9388 c -0.003,8e-5 -0.007,3.9e-4 -0.0103,3.9e-4 -7.8e-4,0.005 -0.003,0.0179 -0.004,0.0239 0.005,-0.008 0.009,-0.0163 0.0141,-0.0243 z m -19.09025,1.81142 c 0.15656,0.0184 0.44385,0.17443 0.68707,0.37909 0.37823,0.31825 0.55097,0.37983 0.68594,0.24487 0.52235,-0.52236 0.87644,0.1109 0.52814,0.94449 -0.36639,0.8769 -0.75805,1.14014 -1.50875,1.01331 -0.54115,-0.0914 -0.65681,-0.0628 -0.73347,0.18214 -0.0501,0.15993 -0.15696,0.41427 -0.23764,0.5654 -0.23569,0.44148 -0.17089,0.84133 0.18859,1.16465 0.52202,0.46951 0.58536,0.84297 0.30419,1.79012 -0.22272,0.75025 -0.32656,0.89111 -0.72662,0.9867 -0.25673,0.0613 -0.60921,0.15492 -0.78328,0.20799 -0.24112,0.0735 -0.38256,-0.0207 -0.59354,-0.3962 -0.29892,-0.53206 -0.36456,-1.18571 -0.13346,-1.32853 0.0789,-0.0488 0.19371,-0.46255 0.25513,-0.9194 0.0614,-0.45684 0.16744,-0.90156 0.23537,-0.9886 0.0679,-0.087 0.23416,-0.59469 0.36958,-1.12814 0.2928,-1.15338 1.06662,-2.65096 1.40419,-2.71713 0.0165,-0.003 0.0362,-0.003 0.0586,-7.8e-4 z m -3.07987,0.56616 c 0.35422,-0.002 0.68691,0.0577 0.8346,0.18023 0.35115,0.29142 0.31773,1.05757 -0.0627,1.43803 -0.45124,0.45124 -0.97043,0.39188 -1.55249,-0.17718 -0.58074,-0.56779 -0.64423,-1.0031 -0.18251,-1.2502 0.23322,-0.12481 0.60891,-0.1888 0.96313,-0.19088 z m 3.62056,0.98518 c -0.087,0 -0.15856,0.0711 -0.15856,0.15817 0,0.087 0.0715,0.15818 0.15856,0.15818 0.087,0 0.15817,-0.0711 0.15817,-0.15818 0,-0.087 -0.0711,-0.15817 -0.15817,-0.15817 z m -1.34032,3.32322 c -0.15641,-1e-5 -0.24221,0.14786 -0.2422,0.41749 0,0.22975 -0.11774,0.50394 -0.2616,0.60913 -0.14385,0.10519 -0.21101,0.27315 -0.14905,0.37339 0.21701,0.35114 0.56685,0.17718 0.80913,-0.40267 0.26968,-0.64544 0.21443,-0.99737 -0.15628,-0.99734 z m -3.12397,0.39087 c 0.0177,3.9e-4 0.0326,0.004 0.0445,0.0118 0.61673,0.38116 1.86757,5.06281 1.65515,6.1951 l -0.0985,0.5232 h -1.24716 c -1.63078,0 -1.74488,-0.11109 -1.74488,-1.70153 0,-0.73602 -0.13267,-1.69489 -0.34069,-2.4658 -0.32956,-1.22139 -0.3309,-1.26816 -0.0487,-1.47453 0.16031,-0.11723 0.37909,-0.21331 0.48631,-0.21331 0.10722,0 0.41339,-0.21834 0.68023,-0.48518 0.23349,-0.23348 0.48957,-0.39293 0.6137,-0.38973 z m -0.64183,1.24298 c -0.0379,0.003 -0.0768,0.0434 -0.12548,0.12205 -0.0704,0.11393 -0.089,0.27014 -0.0415,0.34715 0.0484,0.0783 0.15596,0.0701 0.24449,-0.0182 0.087,-0.087 0.10605,-0.24324 0.0418,-0.34715 -0.0444,-0.0718 -0.0814,-0.10663 -0.11939,-0.1038 z m 0.46388,1.05628 c -0.11605,0 -0.21103,0.10018 -0.21103,0.22243 0,0.12226 0.095,0.1856 0.21103,0.14107 0.11605,-0.0445 0.21103,-0.14433 0.21103,-0.22205 0,-0.0777 -0.095,-0.14145 -0.21103,-0.14145 z m 0.3692,1.26617 c -0.087,0 -0.15817,0.0711 -0.15817,0.15817 0,0.087 0.0711,0.15818 0.15817,0.15818 0.087,0 0.15856,-0.0711 0.15856,-0.15818 0,-0.087 -0.0715,-0.15817 -0.15856,-0.15817 z m 0.20381,1.13499 c -0.0368,0.003 -0.0741,0.0105 -0.11103,0.0247 -0.14218,0.0546 -0.20621,0.19662 -0.15209,0.33765 0.10799,0.28145 0.46677,0.32236 0.62205,0.0711 0.13029,-0.21081 -0.10111,-0.45229 -0.35893,-0.43346 z m 0.0886,1.12092 c -0.0974,0.0139 -0.20699,0.0997 -0.2559,0.24639 -0.0344,0.10336 0.05,0.18783 0.18784,0.18783 0.13781,0 0.25057,-0.11276 0.25057,-0.25057 0,-0.13973 -0.0851,-0.19757 -0.18251,-0.18365 z m 1.04183,1.98176 c 0.11636,-0.004 0.25875,0.0377 0.42776,0.1251 0.46131,0.23855 0.5313,0.41126 0.67529,1.67149 0.0819,0.71662 0.0727,0.73521 -0.40532,0.83081 -1.11381,0.22276 -2.04362,-0.0479 -2.57987,-0.75096 -0.46534,-0.61008 -0.49859,-0.82098 -0.15095,-0.95438 0.42573,-0.16337 0.8691,-0.10657 1.11864,0.14297 0.31466,0.31466 0.53004,0.16234 0.53004,-0.37491 0,-0.45093 0.12842,-0.68114 0.38441,-0.69012 z m 0.40685,1.30077 c -0.087,0 -0.15856,0.0711 -0.15856,0.15818 0,0.087 0.0715,0.15855 0.15856,0.15855 0.087,0 0.15818,-0.0715 0.15818,-0.15855 0,-0.087 -0.0711,-0.15818 -0.15818,-0.15818 z"
     style="fill:#000000;stroke-width:0.15824816"
     id="pathMR14" />
</svg>
