<?xml version="1.0" encoding="UTF-8" standalone="no"?>
<svg
   xmlns:dc="http://purl.org/dc/elements/1.1/"
   xmlns:cc="http://creativecommons.org/ns#"
   xmlns:rdf="http://www.w3.org/1999/02/22-rdf-syntax-ns#"
   xmlns:svg="http://www.w3.org/2000/svg"
   xmlns="http://www.w3.org/2000/svg"
   id="svgMR2"
   version="1.1"
   viewBox="0 0 100 100"
   height="100"
   width="100">
  <defs
     id="defs2" />
  <metadata
     id="metadata5">
    <rdf:RDF>
      <cc:Work
         rdf:about="">
        <dc:format>image/svg+xml</dc:format>
        <dc:type
           rdf:resource="http://purl.org/dc/dcmitype/StillImage" />
        <dc:title></dc:title>
      </cc:Work>
    </rdf:RDF>
  </metadata>
  <path
     id="pathMR2"
     d="m 54.117288,94.489092 c -1.29264,-0.624781 -1.73781,-0.652562 -2.52991,-0.157886 -0.74454,0.464968 -1.11445,0.473159 -1.64079,0.03632 -0.40431,-0.335556 -1.44004,-0.461963 -2.55726,-0.312115 -1.55964,0.209192 -1.92651,0.09815 -2.16571,-0.655501 -0.39336,-1.239354 -2.90282,-2.466126 -4.31806,-2.110918 -0.8384,0.210422 -1.22664,0.06139 -1.44544,-0.554866 -0.55284,-1.557106 -1.71675,-2.504348 -3.0772,-2.504348 -1.02621,0 -1.35081,-0.224173 -1.35081,-0.932899 0,-1.013368 -1.29629,-1.915907 -2.75176,-1.915907 -0.7205,0 -0.86663,-0.252865 -0.68753,-1.189733 0.27498,-1.438514 -0.59372,-2.608676 -1.93662,-2.608676 -0.76722,0 -0.85981,-0.126615 -0.41666,-0.569761 0.88124,-0.88124 0.67635,-2.150535 -0.47761,-2.958799 -0.63068,-0.44175 -1.05569,-1.248622 -1.0683,-2.028146 -0.0136,-0.841176 -0.38319,-1.47608 -1.05532,-1.812899 -0.74637,-0.374029 -0.91365,-0.709168 -0.60076,-1.203683 0.73796,-1.166386 0.49705,-2.34715 -0.70646,-3.462524 -0.82075,-0.760641 -1.02878,-1.268915 -0.71947,-1.757832 0.70132,-1.108561 0.51863,-2.280626 -0.5169,-3.316148 -0.86915,-0.869157 -0.89307,-1.040042 -0.23739,-1.695719 0.84089,-0.840892 0.96815,-3.081217 0.21767,-3.831706 -0.36546,-0.365454 -0.16211,-0.860871 0.7122,-1.735184 1.29625,-1.296249 1.56457,-2.63526 0.70109,-3.498733 -0.38026,-0.380263 -0.25756,-0.606715 0.45052,-0.831452 1.14156,-0.362316 1.69028,-1.750473 1.24569,-3.151288 -0.22674,-0.714395 -0.0223,-1.196669 0.7309,-1.724238 0.87956,-0.616067 0.99903,-1.024247 0.75198,-2.569201 -0.25828,-1.615234 -0.17982,-1.83677 0.65056,-1.83677 1.12274,0 2.61052,-2.065568 2.22026,-3.082541 -0.15888,-0.414065 -0.0117,-0.715867 0.34902,-0.715867 0.94011,0 2.19529,-1.598355 2.19529,-2.795514 0,-0.582415 0.20924,-0.929616 0.46498,-0.771558 0.75022,0.463659 2.39096,-0.663105 2.89463,-1.987859 0.25596,-0.67319 0.58197,-1.107373 0.72449,-0.964856 0.5459,0.545899 -1.3062,3.195883 -2.43094,3.478174 -0.71435,0.179293 -1.17836,0.63584 -1.17836,1.15942 0,0.475018 -0.49821,1.255555 -1.10712,1.734528 -0.60892,0.478972 -1.25563,1.462579 -1.43714,2.185794 -0.18152,0.723214 -0.91187,1.682213 -1.62299,2.131108 -0.97569,0.615899 -1.25678,1.129513 -1.1455,2.093115 0.0903,0.781555 -0.20427,1.628676 -0.7592,2.183597 -0.62077,0.620776 -0.84096,1.354258 -0.69831,2.326199 0.13177,0.897792 -0.0691,1.696992 -0.54651,2.174399 -0.41517,0.415171 -0.75485,1.387426 -0.75485,2.160573 0,0.773142 -0.40085,1.900747 -0.89078,2.505791 -0.71351,0.881145 -0.7982,1.365679 -0.42553,2.434732 0.36001,1.032721 0.28457,1.610439 -0.33347,2.553684 -0.74943,1.143781 -0.74865,1.274366 0.0126,2.11559 0.57223,0.632307 0.72502,1.328394 0.51837,2.361627 -0.2153,1.076555 -0.0267,1.825287 0.71134,2.823504 0.66885,0.904677 0.90944,1.736557 0.72023,2.490403 -0.19814,0.789456 -9.5e-4,1.374259 0.65115,1.932749 0.51439,0.44043 0.93525,1.239131 0.93525,1.774886 0,0.535757 0.42731,1.432774 0.9496,1.993377 0.52228,0.560607 0.9496,1.505627 0.9496,2.10005 0,0.59483 0.42697,1.309268 0.9496,1.588978 0.6218,0.332779 0.9496,0.994148 0.9496,1.915908 0,1.051746 0.22151,1.4077 0.87602,1.4077 0.95292,0 2.44759,1.400074 2.44759,2.29269 0,0.305862 0.53415,0.556116 1.18701,0.556116 1.17986,0 3.0862,1.466418 3.0862,2.374005 0,0.26114 0.74037,0.474801 1.64528,0.474801 1.1644,0 2.13742,0.432102 3.32904,1.478359 1.17612,1.03264 1.99036,1.398185 2.70068,1.212429 0.5593,-0.146263 1.61303,0.04235 2.34162,0.419107 0.83884,0.433773 1.43195,0.511522 1.61708,0.21197 0.41217,-0.666892 1.67676,-0.58269 3.20255,0.213247 1.19982,0.625888 1.34596,0.602841 1.8224,-0.287383 0.40068,-0.748699 0.87769,-0.925838 2.10676,-0.782353 1.27803,0.149201 1.68209,-0.01928 2.06577,-0.861365 0.26234,-0.575763 0.96262,-1.200986 1.55619,-1.389372 0.59357,-0.188392 1.47675,-0.847905 1.96261,-1.465588 0.50571,-0.642899 1.38814,-1.123056 2.06396,-1.123056 0.64931,0 1.05959,-0.195732 0.91175,-0.434956 -0.59873,-0.968751 0.68003,-2.910882 2.10414,-3.195705 1.11068,-0.222136 1.43224,-0.539621 1.43224,-1.4141 0,-0.620209 0.39481,-1.522464 0.87735,-2.005009 0.75409,-0.754088 0.78745,-1.00033 0.23741,-1.752552 -0.79311,-1.084636 -0.82583,-2.691914 -0.0702,-3.447545 0.44314,-0.443146 0.35874,-0.569761 -0.37984,-0.569761 -1.19801,0 -2.08912,-0.872276 -2.08912,-2.044964 0,-0.644323 -0.22469,-0.819221 -0.77911,-0.606468 -0.95673,0.367131 -3.0193,-0.910407 -3.0193,-1.870122 0,-1.255388 -0.6921,-0.70876 -1.66181,1.312525 -0.52228,1.088653 -1.26389,2.075925 -1.64803,2.193942 -0.399,0.122579 -0.14455,-0.443678 0.5935,-1.320806 1.23059,-1.462473 1.70028,-2.903945 0.93583,-2.872072 -0.19585,0.0082 -1.4244,0.540367 -2.7301,1.182663 -2.95129,1.451785 -5.63359,1.503904 -7.83422,0.152222 l -1.6618,-1.020723 1.4244,-0.465656 c 2.0853,-0.681715 2.81746,-1.339134 2.04038,-1.832077 -0.43064,-0.273167 -0.30143,-0.392926 0.4294,-0.398011 0.99564,-0.0069 1.01451,-0.0807 0.39656,-1.550373 -0.35685,-0.848707 -0.8807,-1.521737 -1.16409,-1.495623 -0.28338,0.02611 -1.62352,0.07953 -2.97808,0.1187 l -2.46284,0.07122 1.39453,1.518053 c 1.29357,1.408136 1.30859,1.464343 0.20754,0.776299 -0.65286,-0.407963 -1.60347,-1.450768 -2.11248,-2.317342 -0.91743,-1.561891 -0.91743,-1.572099 0,-1.174259 0.50901,0.22073 1.78011,0.48 2.82468,0.576157 l 1.8992,0.174827 -1.4818,-0.677774 c -1.81678,-0.830992 -3.76261,-3.33393 -4.20155,-5.404475 -0.3301,-1.557205 0.34303,-2.203234 0.8686,-0.833618 0.27239,0.709861 3.03177,2.609003 3.79563,2.612346 0.22291,9.5e-4 -0.24884,-0.74323 -1.04832,-1.653794 -2.46668,-2.809388 -3.00329,-7.187894 -1.05882,-8.639389 1.08423,-0.809356 -0.095,-2.021891 -1.25489,-1.290278 -1.68039,1.059961 -2.58074,2.946151 -2.99994,6.284734 -0.58636,4.669739 0.0721,9.190932 1.98835,13.653331 1.2742,2.967202 1.99281,3.992412 3.57885,5.10583 2.26233,1.588176 5.83492,2.164052 8.23492,1.32741 1.60791,-0.560521 3.45565,0.05089 4.7057,1.557096 0.86308,1.039952 0.27287,2.861094 -1.13516,3.502636 -0.70015,0.319004 -1.08673,0.808353 -0.94022,1.19015 0.38506,1.003469 -1.30485,2.734009 -2.77906,2.845863 -0.72848,0.05527 -1.4763,0.334493 -1.6618,0.620489 -0.89011,1.372294 -4.44864,2.167077 -5.08593,1.135923 -0.1667,-0.26972 -1.07691,-0.350645 -2.10135,-0.186834 -2.07146,0.33124 -3.6309,-0.326525 -4.07245,-1.71773 -0.16706,-0.52635 -0.49574,-0.838337 -0.73042,-0.6933 -0.8964,0.554007 -3.33272,-1.227627 -3.61607,-2.644362 -0.1941,-0.970564 -0.56225,-1.403958 -1.19261,-1.403958 -1.32981,0 -3.39126,-2.229333 -3.0981,-3.350395 0.13273,-0.507549 0.0379,-0.922814 -0.21061,-0.922814 -0.24856,0 -0.97637,-0.524442 -1.61735,-1.165423 -1.21828,-1.218278 -1.59656,-4.065427 -0.72342,-5.444976 0.30162,-0.476567 0.095,-0.936887 -0.70182,-1.563681 -1.51033,-1.188023 -1.9491,-3.689332 -0.98586,-5.620182 0.53159,-1.06561 0.61449,-1.754005 0.2853,-2.369105 -0.72576,-1.356093 -0.5467,-3.220803 0.40021,-4.167704 0.60698,-0.60699 0.80651,-1.358615 0.67031,-2.525201 -0.14879,-1.274475 0.092,-2.000811 1.03498,-3.121422 0.67588,-0.803245 1.22968,-1.963755 1.23066,-2.578909 0.002,-1.518116 1.60987,-4.04941 2.81427,-4.431672 0.5403,-0.171484 0.98236,-0.617882 0.98236,-0.991995 0,-1.04557 1.77246,-2.57941 2.98069,-2.57941 0.59482,0 1.44736,-0.427321 1.89456,-0.949602 0.44719,-0.522281 1.2959,-0.920505 1.88602,-0.884943 1.06424,0.06414 1.06455,0.06629 0.0391,0.265905 -1.734,0.337544 -1.9683,1.094948 -1.60159,5.177337 0.39863,4.437645 1.26197,6.072463 3.2234,6.103786 0.99117,0.01583 1.34832,0.282218 1.46322,1.091363 0.0912,0.642064 -0.14633,1.184909 -0.5935,1.356502 -1.99061,0.763869 0.54304,4.91421 3.74693,6.137786 1.72663,0.659408 2.28283,0.703911 2.85568,0.228488 1.00299,-0.832407 2.23326,-0.221684 2.12956,1.05715 -0.16434,2.026731 0.0291,2.28318 3.33523,4.421912 1.82429,1.180127 3.5686,2.616016 3.87625,3.190867 0.54397,1.016397 0.57584,0.999542 1.15761,-0.612156 0.87799,-2.432363 0.79337,-4.742284 -0.35722,-9.751212 -0.7456,-3.245883 -1.25488,-4.546044 -1.85534,-4.73662 -0.45521,-0.144477 -0.94751,-0.575041 -1.09401,-0.956815 -0.1465,-0.381768 -0.56739,-0.694125 -0.93532,-0.694125 -0.36794,0 -0.93495,-0.320491 -1.26005,-0.712202 -0.32509,-0.391711 -1.08694,-0.712202 -1.69302,-0.712202 -0.60606,0 -1.43965,-0.480735 -1.85242,-1.068301 -0.73192,-1.04187 -0.70615,-1.077446 1.04138,-1.437807 0.98552,-0.203228 2.81458,-0.49824 4.06458,-0.655583 2.10138,-0.264512 2.2177,-0.346852 1.5431,-1.092284 -0.40129,-0.443414 -0.72961,-1.350087 -0.72961,-2.014829 0,-0.664742 -0.32278,-2.123455 -0.71728,-3.241585 -0.39449,-1.11813 -0.64077,-2.109456 -0.54728,-2.202949 0.0935,-0.09349 0.71704,0.260327 1.38567,0.786266 0.66861,0.525938 1.50246,0.959942 1.85298,0.964454 0.35053,0.0045 1.14047,0.538663 1.75545,1.187003 0.61498,0.648339 1.25596,1.177154 1.4244,1.175142 0.16845,-0.002 0.80666,-0.879726 1.41826,-1.950478 1.21964,-2.135301 2.09824,-1.977169 2.08586,0.375422 -0.004,0.737722 0.20072,1.598135 0.45468,1.912029 0.25642,0.316937 0.2979,1.055888 0.0933,1.661804 -0.20265,0.600098 -0.39527,1.732068 -0.42807,2.51549 -0.0328,0.783422 -0.22844,1.799473 -0.43477,2.257893 -0.29632,0.658332 -0.0341,0.976002 1.24789,1.511642 0.89268,0.372983 1.87288,1.226459 2.17822,1.896617 0.6322,1.387535 0.5844,1.418482 -1.04448,0.676312 -0.95885,-0.436879 -1.41959,-0.39165 -2.37279,0.232908 -1.81774,1.191024 -2.25097,3.558962 -1.47936,8.085639 1.41894,8.324197 1.24689,10.828792 -0.86411,12.579483 -0.43216,0.358404 -0.78575,1.164972 -0.78575,1.792374 0,0.887645 0.31603,1.203943 1.4244,1.425618 1.443,0.288599 1.81483,0.818448 0.9496,1.353184 -0.79723,0.492719 -0.52961,2.414624 0.46108,3.311181 0.92719,0.839097 0.92458,0.855839 -0.28118,1.804292 -0.92541,0.727927 -1.16938,1.282152 -1.01811,2.312841 0.17845,1.215804 0.0618,1.355505 -1.13228,1.355505 -1.51949,0 -2.98127,1.765362 -2.50009,3.019307 0.22063,0.574946 0.0286,0.779101 -0.73264,0.779101 -1.57627,0 -2.86839,0.87568 -2.86839,1.94393 0,0.546691 -0.21368,0.82886 -0.49568,0.654571 -0.66758,-0.412588 -2.82793,1.04743 -2.82793,1.911183 0,0.514936 -0.36565,0.616258 -1.44495,0.400395 -1.07073,-0.214145 -1.7163,-0.04017 -2.49271,0.671819 -0.99079,0.90857 -1.13303,0.919586 -2.61641,0.202612 z m 3.03623,-9.820319 c 0.65285,-0.652852 1.69933,-1.187003 2.3255,-1.187003 1.35487,0 2.60881,-1.589601 2.27149,-2.879521 -0.18229,-0.69706 0.005,-0.918887 0.77487,-0.918887 1.33244,0 2.33991,-2.037542 1.50492,-3.043641 -1.0564,-1.272875 -2.57233,-1.101576 -3.59795,0.406563 -2.23862,3.291819 -7.43219,4.482506 -11.13248,2.552255 -2.70199,-1.409485 -2.93327,-2.124113 -0.62155,-1.920485 1.11104,0.09787 2.45697,-0.191587 3.56533,-0.766756 0.97927,-0.50819 1.7805,-0.779415 1.7805,-0.602732 0,0.673026 -2.82619,1.951043 -4.34646,1.965491 -1.46162,0.01391 -1.51866,0.06806 -0.71386,0.677869 2.3281,1.764028 7.56729,1.242991 9.97797,-0.992315 2.0711,-1.920438 1.66366,-2.327256 -2.18716,-2.183833 -1.89348,0.07052 -4.52404,0.25407 -5.84569,0.407887 -1.87358,0.218052 -2.94251,0.04757 -4.85176,-0.773759 -1.34682,-0.579391 -2.66224,-1.310656 -2.92316,-1.62504 -0.26092,-0.314385 0.74724,0.02474 2.24036,0.753599 2.77024,1.3523 5.8978,1.729615 7.22536,0.871687 0.39171,-0.253145 0.47394,-0.463534 0.18273,-0.467531 -0.29121,-0.0038 -1.12309,-0.474213 -1.84863,-1.044919 -1.06768,-0.839837 -1.97114,-1.043494 -4.73917,-1.068302 -3.354,-0.03006 -5.32127,-0.772573 -4.70195,-1.774669 0.15626,-0.252831 0.51743,-0.147578 0.82568,0.240615 0.66841,0.841775 4.46405,1.365808 5.77073,0.796716 0.79685,-0.347051 0.69893,-0.418945 -0.60876,-0.446944 -2.32097,-0.04971 -4.44345,-1.105124 -6.16457,-3.065378 -1.38196,-1.573965 -1.76766,-2.344282 -1.41699,-2.830037 0.0653,-0.09043 -0.17454,-0.517751 -0.53294,-0.949602 -0.87463,-1.053859 -0.30988,-0.991854 1.26436,0.138813 1.57719,1.13278 4.61032,1.743094 5.05854,1.01786 0.17927,-0.290066 -0.0101,-0.517443 -0.43104,-0.517443 -1.09975,0 -5.03907,-3.788528 -5.78511,-5.563662 -0.63952,-1.521694 -0.91656,-5.789472 -0.33827,-5.211188 0.16711,0.167111 0.34357,1.257719 0.39214,2.423574 0.10803,2.593197 1.86015,5.425495 4.28244,6.922552 0.94531,0.584233 1.77431,0.984452 1.84224,0.889383 0.0679,-0.09507 -0.0665,-1.294578 -0.2986,-2.665567 -0.31466,-1.858338 -0.62648,-2.492705 -1.22525,-2.492705 -1.03829,0 -4.34721,-2.244418 -4.34721,-2.94869 0,-0.297244 0.48074,-0.102581 1.0683,0.432586 0.58757,0.535173 1.53499,1.213397 2.10539,1.507171 1.3104,0.674896 2.61818,0.698513 1.46483,0.02645 -1.2344,-0.719282 -3.1238,-4.219648 -3.47989,-6.446929 -0.18533,-1.159255 -0.0758,-2.693513 0.26636,-3.730199 l 0.58118,-1.760995 0.82906,1.830992 c 0.45598,1.007052 1.31579,2.258318 1.91068,2.780599 l 1.08161,0.949602 -0.86184,-1.661804 c -1.27854,-2.465295 -1.22825,-7.329372 0.099,-9.575022 1.10467,-1.869069 1.01612,-2.295003 -0.47712,-2.295003 -1.23071,0 -2.68836,1.327101 -2.68836,2.447593 0,0.481808 -0.28324,0.876014 -0.62944,0.876014 -1.12237,0 -2.83577,2.29668 -2.9352,3.934435 -0.0598,0.98539 -0.56983,2.056082 -1.35191,2.838165 -1.25875,1.258745 -1.5927,2.881245 -0.83807,4.071827 0.26658,0.420598 0.0227,1.016692 -0.71948,1.758924 -1.26696,1.266964 -1.46718,3.137732 -0.4281,4.00009 0.60924,0.505621 0.60776,0.709049 -0.012,1.654938 -1.17639,1.795389 -1.01722,4.413271 0.35155,5.782037 1.08981,1.089815 1.14759,1.350073 0.68472,3.084213 -0.58699,2.199188 0.18565,4.12576 1.97249,4.918331 0.76455,0.339126 1.05665,0.875884 1.05665,1.941689 0,1.117705 0.2917,1.605915 1.20934,2.024015 0.66514,0.303061 1.51978,0.551016 1.8992,0.551016 0.39147,0 0.68987,0.445919 0.68987,1.030916 0,1.48315 1.35622,2.767492 2.92239,2.767492 0.74294,0 1.35082,0.250253 1.35082,0.556115 0,1.8114 3.34395,3.02483 4.68262,1.69919 0.48003,-0.475366 0.69264,-0.428109 1.06815,0.2374 0.70317,1.24623 3.08688,1.057624 4.50061,-0.3561 z m -2.86691,-1.14645 c -0.15287,-0.247357 -0.0756,-0.574818 0.17179,-0.72769 0.24735,-0.152876 0.57482,-0.07557 0.72769,0.171783 0.15288,0.247357 0.0756,0.574818 -0.17178,0.72769 -0.24736,0.152876 -0.57482,0.07557 -0.7277,-0.171783 z m -5.01047,-0.752754 c 0,-0.435236 0.22969,-0.714775 0.51041,-0.621197 0.28073,0.09357 0.51041,0.373113 0.51041,0.621197 0,0.248083 -0.22968,0.527622 -0.51041,0.621196 -0.28072,0.09358 -0.51041,-0.185961 -0.51041,-0.621196 z m 9.27889,-1.154194 c -0.15024,-0.243098 -0.056,-0.5762 0.20939,-0.740225 0.2654,-0.164024 0.48254,0.03487 0.48254,0.441993 0,0.834002 -0.28491,0.9568 -0.69193,0.298232 z m -13.80424,-1.006256 c -0.45116,-0.729997 0.16683,-1.200995 0.77623,-0.591592 0.34099,0.340992 0.34918,0.606568 0.0249,0.806991 -0.26586,0.164304 -0.62636,0.06737 -0.80112,-0.215399 z m 16.39538,-2.824961 c 0,-0.261141 0.21366,-0.474802 0.4748,-0.474802 0.26114,0 0.4748,0.213661 0.4748,0.474802 0,0.26114 -0.21366,0.474801 -0.4748,0.474801 -0.26114,0 -0.4748,-0.213661 -0.4748,-0.474801 z M 40.952378,76.33591 c -0.45116,-0.729997 0.16683,-1.200995 0.77623,-0.591593 0.34099,0.340993 0.34918,0.606568 0.0249,0.806991 -0.26585,0.164305 -0.62635,0.06737 -0.80112,-0.215398 z m -3.07146,-5.673768 c 0,-0.26114 0.21365,-0.474801 0.4748,-0.474801 0.26114,0 0.4748,0.213661 0.4748,0.474801 0,0.26114 -0.21366,0.474801 -0.4748,0.474801 -0.26115,0 -0.4748,-0.213661 -0.4748,-0.474801 z m -1.89921,-7.359416 c 0,-0.391711 0.21366,-0.712202 0.4748,-0.712202 0.26114,0 0.4748,0.320491 0.4748,0.712202 0,0.391711 -0.21366,0.712201 -0.4748,0.712201 -0.26114,0 -0.4748,-0.32049 -0.4748,-0.712201 z m 0,-6.409814 c 0,-0.886297 0.12662,-1.012907 0.56976,-0.569761 0.44315,0.443146 0.44315,0.696376 0,1.139522 -0.44314,0.443146 -0.56976,0.316536 -0.56976,-0.569761 z m 1.68208,-6.139605 c -0.32432,-0.524764 0.42466,-1.091401 0.8631,-0.65297 0.45143,0.451436 0.3673,1.094963 -0.14315,1.094963 -0.24574,0 -0.56971,-0.198899 -0.71995,-0.441993 z m 2.59113,-5.995843 c 0,-0.407122 0.21366,-0.608174 0.4748,-0.446779 0.26114,0.161394 0.4748,0.494494 0.4748,0.740223 0,0.245728 -0.21366,0.446779 -0.4748,0.446779 -0.26114,0 -0.4748,-0.3331 -0.4748,-0.740223 z m 2.84881,-4.482589 c 0,-0.26114 0.21366,-0.4748 0.4748,-0.4748 0.26114,0 0.4748,0.21366 0.4748,0.4748 0,0.261141 -0.21366,0.474802 -0.4748,0.474802 -0.26114,0 -0.4748,-0.213661 -0.4748,-0.474802 z m 27.94994,29.793367 c 0.73313,-1.369858 0.54985,-6.87144 -0.41139,-12.348877 -0.58163,-3.31434 -0.56647,-3.852037 0.15102,-5.356639 0.43866,-0.919865 1.2785,-1.855228 1.86632,-2.078589 0.97196,-0.369324 0.90778,-0.437196 -0.70861,-0.749331 -0.97756,-0.188771 -2.31294,-0.208808 -2.96751,-0.04454 -1.35204,0.339345 -1.54503,-0.246251 -0.444,-1.347277 0.94349,-0.94349 0.99526,-0.939187 2.44793,0.203485 0.66397,0.522282 1.69995,0.949603 2.30217,0.949603 0.60223,0 1.227,0.21366 1.38839,0.474801 0.1614,0.26114 0.54028,0.474801 0.84197,0.474801 0.96102,0 -0.8611,-1.466979 -1.92131,-1.546842 -0.549,-0.04136 -1.08885,-0.421879 -1.19966,-0.845607 -0.14622,-0.559177 -0.72774,-0.759907 -2.12086,-0.732087 -1.05567,0.02108 -1.82034,-0.121916 -1.69925,-0.317772 0.45166,-0.730578 -0.46759,-0.32425 -1.07416,0.474801 -0.88531,1.166257 -0.80961,3.236823 0.28533,7.804139 1.36306,5.685709 1.25809,8.256063 -0.47147,11.544003 -0.78342,1.489309 -1.4244,3.227175 -1.4244,3.861923 0,2.462579 3.78152,2.154742 5.15949,-0.420014 z m -10.55539,1.015319 c 0.558,-0.463097 0.35228,-0.705943 -1.17869,-1.39138 -1.02008,-0.456702 -2.007,-1.076826 -2.19318,-1.378059 -0.23221,-0.375728 -0.67018,-0.204905 -1.39488,0.544061 -0.581,0.600467 -1.46992,1.338222 -1.97538,1.63945 -0.88083,0.524945 -0.8697,0.569206 0.268,1.065511 1.4143,0.61697 5.51927,0.312889 6.47413,-0.479583 z m -12.92069,-1.727122 c -0.41893,-0.979277 -0.85298,-1.994164 -0.96457,-2.255305 -0.11158,-0.26114 -1.26012,-0.496086 -2.55231,-0.522105 -1.29219,-0.02602 -2.68228,-0.323539 -3.08909,-0.661161 -1.4052,-1.166211 -1.22275,-0.118548 0.33333,1.914047 1.52707,1.9947 3.7124,3.193374 5.95966,3.268905 1.06181,0.03571 1.06555,0.01481 0.31298,-1.744381 z m 15.40991,0.401914 c 0.85882,-0.543974 0.25971,-1.470216 -0.95097,-1.470216 -1.46858,0 -2.6108,-0.785663 -3.69673,-2.54274 -1.18724,-1.920983 -1.37754,-3.591082 -0.30806,-2.703493 0.37619,0.31221 0.56877,0.867879 0.42796,1.234824 -0.14081,0.366941 0.3896,1.312792 1.1787,2.101887 2.21888,2.218878 4.66267,1.71002 2.62118,-0.545798 -0.43218,-0.477559 -1.27421,-0.868288 -1.87118,-0.868288 -0.59697,0 -1.21745,-0.21366 -1.37884,-0.474801 -0.16139,-0.26114 -0.0703,-0.474801 0.2024,-0.474801 0.27272,0 0.0725,-0.694396 -0.445,-1.543103 -0.99039,-1.624356 -1.27639,-4.154509 -0.4696,-4.154509 0.26114,0 0.4748,-0.320491 0.4748,-0.712202 0,-1.911079 -2.55596,0.288048 -3.24804,2.794594 -0.98539,3.568747 1.18267,7.862558 4.67269,9.254219 1.50567,0.60039 1.97966,0.618129 2.79069,0.104427 z m 2.88884,-1.427138 c 0.41757,-1.008116 0.43339,-1.640613 0.0586,-2.340987 -0.48401,-0.904377 -2.94072,-2.924903 -3.55632,-2.924903 -0.58214,0 -0.25556,1.805545 0.42939,2.374006 0.39171,0.325091 0.7122,1.163162 0.7122,1.862378 0,1.193517 0.73809,2.410831 1.46176,2.410831 0.17723,0 0.57971,-0.621595 0.89441,-1.381325 z m -4.28966,-5.011534 c -0.0347,-0.977245 -3.28932,-4.105339 -3.28932,-3.161401 0,0.280551 0.41625,1.194552 0.92499,2.031123 0.50875,0.836566 0.84493,1.650589 0.74707,1.808935 -0.0979,0.158346 0.23369,0.287905 0.7368,0.287905 0.61479,0 0.9035,-0.316949 0.88046,-0.966562 z m -6.83616,-1.194201 c 0.10733,-1.364293 0.0247,-1.43416 -1.69474,-1.43416 -1.25192,0 -2.25664,-0.377865 -3.26841,-1.229208 -0.80346,-0.676069 -1.46083,-0.968361 -1.46083,-0.649546 0,0.475594 1.78502,3.760828 2.05663,3.785109 0.044,0.0038 0.93461,0.305292 1.97918,0.669697 1.04456,0.364405 1.98384,0.579239 2.08728,0.477408 0.10344,-0.101826 0.23884,-0.830512 0.30089,-1.6193 z m 0.39469,-3.028366 c -0.0363,-0.428888 0.17739,-0.7876 0.4748,-0.797139 0.29741,-0.0095 -0.53035,-0.535974 -1.83947,-1.169862 -1.40612,-0.680855 -2.73664,-1.755919 -3.25116,-2.626936 -1.08068,-1.829437 -1.37469,-1.628259 -0.75594,0.517229 0.54731,1.89777 1.11539,2.677374 3.02531,4.151765 1.51656,1.170731 2.44929,1.140894 2.34646,-0.07506 z m -11.4374,-7.677571 c -0.85453,-0.854528 -1.57826,-1.948958 -1.60829,-2.432068 -0.03,-0.48311 -0.21614,-0.03974 -0.41357,0.985259 -0.44936,2.332935 0.19194,4.770716 1.8205,6.920178 l 1.25908,1.661804 0.24798,-2.790743 c 0.23671,-2.663824 0.17732,-2.861408 -1.3057,-4.34443 z m 3.18319,-1.633007 c 0.95407,-1.33987 0.96412,-1.468292 0.20547,-2.62614 -0.43872,-0.66956 -0.94544,-2.439297 -1.12607,-3.93275 l -0.32841,-2.71537 -0.6524,1.424403 c -0.76324,1.666365 -0.79167,6.0789 -0.0512,7.952918 0.28373,0.718136 0.61345,1.305703 0.7327,1.305703 0.11925,0 0.66823,-0.633946 1.21995,-1.408764 z m 19.47798,-0.663809 c 0,-0.617635 0.43407,-1.674807 0.9646,-2.349271 0.95631,-1.215737 0.95657,-1.230601 0.0312,-1.725835 -1.21683,-0.651226 -3.1974,-0.632212 -6.19391,0.05947 -2.60261,0.600754 -2.95603,1.477604 -0.70031,1.737497 0.76328,0.08794 1.55865,0.461848 1.76748,0.830901 0.20885,0.369055 0.74502,0.671008 1.19151,0.671008 0.44649,0 1.07866,0.427321 1.40484,0.949602 0.80035,1.281574 1.53459,1.198621 1.53459,-0.173368 z m 3.79841,-0.776234 c 0,-0.26114 -0.20105,-0.474801 -0.44678,-0.474801 -0.24573,0 -0.57883,0.213661 -0.74023,0.474801 -0.16139,0.261141 0.0396,0.474801 0.44678,0.474801 0.40712,0 0.74023,-0.21366 0.74023,-0.474801 z m 1.187,-1.899204 c -0.1614,-0.26114 -0.8684,-0.453503 -1.57113,-0.427473 l -1.27768,0.04733 1.187,0.380145 c 1.6853,0.539726 1.99538,0.539726 1.66181,0 z m 1.51487,-1.251539 c 0.16393,-0.427205 0.0805,-1.121602 -0.18541,-1.543103 -0.3466,-0.549397 -0.28488,-1.069489 0.218,-1.837045 0.49169,-0.750487 0.55525,-1.247458 0.21252,-1.661804 -0.26892,-0.325118 -0.56127,-1.230837 -0.64966,-2.012708 l -0.16072,-1.421584 -1.54311,2.412754 c -2.00517,3.135239 -2.0531,5.757788 -0.11869,6.49415 1.27563,0.485589 1.92355,0.360299 2.22707,-0.43066 z m -3.88888,-2.548417 c 0,-1.566234 -0.16024,-2.847599 -0.3561,-2.847478 -0.19586,1.21e-4 -0.50576,0.01607 -0.68869,0.03543 -0.18293,0.01937 -0.5048,-0.430285 -0.71526,-0.999228 -0.24001,-0.648808 -0.64433,-0.934031 -1.08457,-0.765097 -0.41593,0.159608 -0.91397,-0.126908 -1.22242,-0.703241 -0.8206,-1.533325 -0.86732,-0.892884 -0.17706,2.427226 0.51937,2.498156 0.93654,3.326666 2.20493,4.379137 0.8604,0.71393 1.6712,1.303206 1.80177,1.3095 0.13057,0.0063 0.2374,-1.270019 0.2374,-2.836254 z m -19.70424,48.482081 c 0,-0.25353 0.64098,-0.917387 1.4244,-1.47523 0.78343,-0.557844 1.4244,-0.786058 1.4244,-0.507131 0,0.278922 -0.17337,0.507131 -0.38527,0.507131 -0.21189,0 -0.85288,0.435644 -1.4244,0.9681 -0.57152,0.532451 -1.03913,0.76066 -1.03913,0.50713 z m 3.80077,-0.35433 c -0.003,-0.695199 1.73992,-2.858416 2.05081,-2.545304 0.12965,0.130571 -0.27822,0.878382 -0.90637,1.661804 -0.62815,0.783422 -1.14314,1.180996 -1.14444,0.8835 z m 4.07421,-0.646099 c 0.38293,-1.45284 1.08452,-2.376422 1.79788,-2.366736 0.38747,0.0053 0.39048,0.10363 0.0109,0.3561 -0.28847,0.191858 -0.88384,0.989813 -1.32305,1.773235 -0.70083,1.250085 -0.76028,1.279138 -0.48571,0.237401 z m -11.46394,-0.727301 c 0.50691,-0.383406 1.36155,-0.672318 1.8992,-0.642026 0.95372,0.05373 0.9544,0.06065 0.028,0.28349 -0.52228,0.125623 -1.15258,0.421328 -1.40066,0.657119 -0.24808,0.235796 -0.67541,0.421923 -0.94961,0.413619 -0.27419,-0.0083 -0.0838,-0.3288 0.42312,-0.712202 z m 16.00493,-0.962455 c -0.0391,-0.798795 0.24255,-1.867098 0.62596,-2.374005 0.3834,-0.506907 0.70389,-0.697307 0.7122,-0.423109 0.008,0.274197 -0.18212,0.701518 -0.42317,0.949602 -0.24104,0.248083 -0.52952,1.092042 -0.64106,1.875464 l -0.20279,1.424403 z m -19.98811,-0.709547 c 0.63453,-0.401435 4.17954,-0.664812 3.73417,-0.277431 -0.10881,0.09464 -1.14821,0.293645 -2.30977,0.442234 -1.36628,0.174774 -1.86918,0.116588 -1.4244,-0.164803 z m 23.52877,-1.67534 c -0.38912,-1.014038 -0.35166,-2.687393 0.0752,-3.358135 0.19186,-0.301489 0.34884,0.499738 0.34884,1.780504 0,1.280766 -0.0306,2.328666 -0.0679,2.328666 -0.0374,0 -0.1976,-0.337963 -0.35611,-0.751035 z m -28.30113,-1.266869 c -4.4e-4,-0.477109 3.4014,-0.442652 4.16534,0.04221 0.35045,0.222416 -0.39797,0.369067 -1.78017,0.348831 -1.31166,-0.01923 -2.38499,-0.195162 -2.38517,-0.391017 z m 0.23707,-2.255305 c -0.16139,-0.261141 -0.92181,-0.474801 -1.68982,-0.474801 -0.76801,0 -1.39638,-0.213661 -1.39638,-0.474801 0,-0.607166 0.45448,-0.598002 2.30315,0.04644 0.82239,0.286685 1.49526,0.714005 1.49526,0.949602 0,0.566955 -0.34709,0.544321 -0.71221,-0.04644 z m 30.3589,-2.113259 c -0.41935,-0.640013 -0.69135,-1.488648 -0.60444,-1.885857 0.0893,-0.408239 0.50389,0.09762 0.95365,1.163661 0.90491,2.144843 0.7682,2.427572 -0.34921,0.722196 z m -33.91991,-1.972831 c -0.65284,-0.335404 -1.59148,-0.733411 -2.08586,-0.88445 -0.49437,-0.151044 -0.80285,-0.370635 -0.6855,-0.487977 0.33569,-0.335699 3.65282,0.690916 3.98875,1.234478 0.46909,0.758993 0.0778,0.80334 -1.21739,0.137949 z m 33.06271,-2.595586 c -0.68807,-0.541235 -1.24424,-1.235632 -1.23594,-1.543103 0.009,-0.338785 0.24299,-0.269853 0.59351,0.17495 0.31812,0.403695 1.10668,1.098091 1.75235,1.543103 0.64566,0.445012 0.94156,0.809113 0.65752,0.809113 -0.28402,0 -1.07937,-0.442828 -1.76744,-0.984063 z M 31.708498,74.22315 c -0.32509,-0.391711 -1.09906,-0.712202 -1.71994,-0.712202 -0.62087,0 -1.12887,-0.21366 -1.12887,-0.474801 0,-0.848118 1.33985,-0.502605 2.70363,0.697198 0.7327,0.6446 1.1981,1.178751 1.03422,1.187003 -0.16388,0.0082 -0.56394,-0.305488 -0.88904,-0.697198 z m -2.26166,-4.488959 c -0.59106,-0.492996 -1.33887,-0.990786 -1.6618,-1.106201 -0.32293,-0.115415 -0.4473,-0.361143 -0.27638,-0.54606 0.17093,-0.184915 1.02558,0.313726 1.89921,1.108082 1.7364,1.578841 1.76543,1.984203 0.039,0.544179 z m 23.03421,-1.760506 c 0.32642,-0.131714 0.86057,-0.131714 1.187,0 0.32643,0.131715 0.0593,0.239485 -0.5935,0.239485 -0.65285,0 -0.91993,-0.10777 -0.5935,-0.239485 z M 28.995158,65.73045 c -0.53863,-0.619492 -1.2702,-1.229659 -1.6257,-1.355932 -0.35551,-0.126273 -0.50652,-0.380881 -0.3356,-0.565797 0.17093,-0.184915 1.02543,0.30233 1.89888,1.08276 0.87346,0.780436 1.46518,1.541898 1.31494,1.692139 -0.15025,0.150246 -0.71388,-0.233683 -1.25252,-0.85317 z m -0.79082,-4.378487 c -0.75216,-0.904638 -1.25948,-1.75288 -1.12738,-1.884974 0.28912,-0.28913 2.73234,2.536463 2.73234,3.159967 0,0.622269 -0.081,0.557929 -1.60496,-1.274993 z m 1.18523,-2.139715 c -0.0303,-0.42178 -0.4979,-1.329836 -1.03914,-2.017904 -0.54123,-0.688067 -0.75982,-1.251034 -0.48574,-1.251034 0.78171,0 2.04721,2.23485 1.80159,3.181561 -0.1778,0.685347 -0.23252,0.70262 -0.27671,0.08738 z m 0.29025,-5.535923 -0.84168,-1.768824 0.96038,1.120901 c 0.52821,0.6165 0.96038,1.417727 0.96038,1.780504 0,0.975901 -0.15138,0.817018 -1.07908,-1.132581 z m 1.55388,-1.548127 c 0,-0.531468 -0.3739,-1.538094 -0.8309,-2.236944 -0.53318,-0.815348 -0.60088,-1.128849 -0.18896,-0.874935 0.35307,0.217635 0.94064,1.110569 1.3057,1.984293 0.79065,1.892291 0.80885,2.093892 0.18896,2.093892 -0.26114,0 -0.4748,-0.434838 -0.4748,-0.966306 z m 0.66794,-4.474363 c -0.28271,-0.903243 -0.35603,-1.544617 -0.16293,-1.425276 0.50238,0.310488 1.41094,3.067536 1.01087,3.067536 -0.18365,0 -0.56523,-0.739017 -0.84794,-1.64226 z m 1.81441,-3.105331 c -0.29406,-1.158509 -0.46003,-2.181006 -0.36882,-2.272215 0.28936,-0.28936 1.29493,3.204223 1.09497,3.804135 -0.10532,0.315954 -0.43209,-0.37341 -0.72615,-1.53192 z m 1.85552,-2.216891 c -0.0356,-0.566208 -0.18762,-1.42085 -0.33791,-1.899205 -0.25868,-0.823346 -0.24435,-0.824689 0.26864,-0.02518 0.29803,0.464505 0.45009,1.319147 0.3379,1.899204 -0.20377,1.053603 -0.20403,1.053629 -0.26863,0.02518 z m 1.84908,-1.344536 c 0,-0.26114 0.20712,-0.795292 0.46027,-1.187002 0.25313,-0.391711 0.46025,-0.498541 0.46025,-0.237401 0,0.261141 -0.20712,0.795292 -0.46025,1.187003 -0.25315,0.391711 -0.46027,0.498541 -0.46027,0.2374 z m 0.0229,-2.888373 c 0.0228,-0.553116 0.13529,-0.665623 0.28686,-0.286858 0.13715,0.342746 0.12029,0.752262 -0.0375,0.910035 -0.15777,0.157772 -0.26999,-0.122657 -0.24938,-0.623177 z m 2.88731,-0.277701 c -0.0418,-0.696779 -0.21426,-1.65825 -0.38327,-2.136605 -0.2356,-0.666847 -0.17215,-0.745372 0.27199,-0.336608 0.32522,0.299319 0.4933,1.236349 0.38326,2.136605 -0.15933,1.303454 -0.21022,1.366436 -0.27198,0.336608 z m 8.97737,-0.645388 c -0.0177,-0.26832 0.30047,-0.962717 0.70698,-1.543104 0.54762,-0.781827 1.21596,-1.055247 2.57941,-1.055247 1.34888,0 1.91206,-0.226139 2.10908,-0.846873 0.34431,-1.084853 2.95699,-2.640427 3.85559,-2.295601 0.46003,0.176527 0.68762,-0.05266 0.68762,-0.692419 0,-1.429765 2.09977,-3.287123 3.71615,-3.287123 1.24014,0 1.41594,-0.191626 1.67774,-1.828818 0.1629,-1.018708 0.82392,-2.360297 1.49226,-3.028644 0.71352,-0.713506 1.08528,-1.498369 0.91721,-1.936361 -0.15545,-0.405092 0.0744,-1.488887 0.51074,-2.408433 0.72728,-1.532631 0.73045,-1.761742 0.038,-2.750287 -0.41541,-0.593104 -0.75531,-1.768935 -0.75531,-2.612954 0,-1.003814 -0.41055,-1.945121 -1.187,-2.721576 -0.65286,-0.6528541 -1.18701,-1.5105001 -1.18701,-1.9058871 0,-0.434174 -0.2737,-0.613854 -0.69109,-0.453684 -0.38009,0.14586 -1.21216,-0.255881 -1.84903,-0.892758 -0.87727,-0.877269 -1.3553,-1.047501 -1.97215,-0.702295 -0.52367,0.293058 -1.1832,0.287517 -1.8483,-0.01553 -0.79847,-0.363808 -1.28551,-0.267599 -2.13738,0.422204 -0.6068,0.49135 -1.34668,0.905193 -1.64417,0.919641 -0.71974,0.03495 -2.90316,2.8225331 -2.2108,2.8225331 0.29642,0 0.40689,0.213661 0.2455,0.474803 -0.1614,0.261142 -0.50711,0.474803 -0.76825,0.474803 -0.26114,0 -0.34275,-0.213661 -0.18135,-0.474803 0.16139,-0.261142 0.0672,-0.474803 -0.20938,-0.474803 -0.27656,0 -0.50282,0.570746 -0.50282,1.268317 0,0.697576 -0.33518,1.638678 -0.74483,2.091341 -0.62915,0.695197 -0.65694,1.116367 -0.17892,2.711842 l 0.56591,1.888828 1.36292,-0.775258 c 0.93967,-0.5345 1.36385,-1.151245 1.36592,-1.985997 0.004,-1.626603 0.82963,-2.350265 2.68134,-2.350265 0.84636,0 1.67087,-0.213661 1.83227,-0.474803 0.16139,-0.261137 0.65473,-0.460335 1.09632,-0.442663 0.60943,0.02441 0.54548,0.156276 -0.26542,0.547357 -0.58756,0.283372 -1.0683,0.666605 -1.0683,0.851626 0,0.185021 -0.53538,0.234059 -1.18973,0.108972 -1.46043,-0.279179 -2.60868,0.598826 -2.60868,1.994714 0,0.694836 -0.63581,1.460812 -1.8992,2.287971 -1.89298,1.239364 -1.89922,1.240033 -1.90214,0.20304 -0.001,-0.572223 -0.29011,-1.590742 -0.64112,-2.263376 -0.55958,-1.07231 -0.52997,-1.356631 0.24033,-2.307904 0.48318,-0.596718 0.87852,-1.66614 0.87852,-2.376503 0,-0.889443 0.36713,-1.4880511 1.17914,-1.9226291 0.64852,-0.347076 1.3039,-1.024164 1.4564,-1.504631 0.15249,-0.480472 0.56696,-0.873586 0.92104,-0.873586 0.35408,0 1.26597,-0.523541 2.02643,-1.163433 1.27724,-1.074726 1.44158,-1.104506 2.1555,-0.390592 0.63092,0.630918 0.99236,0.67281 1.96833,0.228129 1.02624,-0.467586 1.26635,-0.412291 1.69604,0.390596 0.32522,0.607672 0.99367,0.9353 1.90826,0.9353 0.95315,0 1.40769,0.236941 1.40769,0.733789 0,0.403578 0.57582,1.309593 1.27958,2.01336 1.00077,1.0007701 1.25203,1.6611451 1.15314,3.0307621 -0.0921,1.275188 0.15138,2.029004 0.89566,2.773277 0.9376,0.937603 0.96003,1.090674 0.27126,1.85175 -0.41295,0.456314 -0.75083,1.587903 -0.75083,2.514642 0,0.988815 -0.32464,1.954213 -0.78575,2.33662 -0.98129,0.813807 -2.06306,3.345034 -2.06306,4.827364 0,0.95321 -0.1955,1.091325 -1.3127,0.927357 -1.69478,-0.24874 -3.91011,1.43466 -3.91011,2.971241 0,0.93803 -0.23249,1.114172 -1.42583,1.080243 -1.50335,-0.04273 -3.11777,1.086045 -3.56398,2.491908 -0.17552,0.553034 -0.58089,0.755873 -1.1915,0.596197 -1.48388,-0.388038 -3.11891,0.232851 -3.68022,1.397537 -0.2859,0.593242 -0.53428,0.859088 -0.55195,0.590767 z m -6.28592,-3.073154 c -0.0996,-1.044562 -0.0152,-1.899202 0.18753,-1.899202 0.20276,0 0.36865,0.85464 0.36865,1.899202 0,1.044563 -0.0844,1.899205 -0.18753,1.899205 -0.10315,0 -0.26904,-0.854642 -0.36865,-1.899205 z m 5.54159,0 c 0.16139,-0.261142 0.49449,-0.474798 0.74022,-0.474798 0.24573,0 0.44678,0.213656 0.44678,0.474798 0,0.261142 -0.3331,0.474803 -0.74022,0.474803 -0.40713,0 -0.60817,-0.213661 -0.44678,-0.474803 z m -9.04917,-0.727298 c 0.50691,-0.383408 1.0904,-0.697106 1.29665,-0.697106 0.20626,0 0.50237,-0.507441 0.65803,-1.127652 0.20757,-0.827026 0.61372,-1.127653 1.52346,-1.127653 0.69191,0 1.60172,-0.446158 2.05743,-1.008951 0.83444,-1.030479 1.37955,-1.289537 1.37375,-0.65285 -0.006,0.633521 -3.25348,2.590084 -3.7697,2.27104 -0.27515,-0.170046 -0.50027,0.0084 -0.50027,0.396579 0,0.770572 -2.18061,2.68306 -3.03153,2.658792 -0.29121,-0.0083 -0.11473,-0.328796 0.39218,-0.712199 z m 5.92302,-0.578405 c 0.20272,-0.718135 0.26692,-1.602517 0.14266,-1.965291 -0.14546,-0.424692 -0.0201,-0.532429 0.35185,-0.30252 0.31776,0.196393 0.47232,0.760288 0.34345,1.253095 -0.29135,1.11412 -0.22578,1.112103 1.68321,-0.05181 0.85502,-0.521301 1.27753,-0.948624 0.93891,-0.949602 -0.43879,-0.0014 -0.3706,-0.329418 0.2374,-1.142276 1.00848,-1.348274 1.39115,-1.25809 0.63743,0.150237 -0.63582,1.188052 -0.61731,1.190645 1.67182,0.234187 2.38613,-0.996991 5.02673,-2.810971 4.64605,-3.191649 -0.16639,-0.166395 -0.007,-0.659007 0.35491,-1.094701 0.59203,-0.713363 0.53973,-0.75639 -0.52585,-0.432541 -0.96013,0.291795 -0.87368,0.147014 0.45838,-0.767751 0.90291,-0.62005 1.78967,-1.659119 1.97058,-2.309038 0.22668,-0.814359 0.34362,-0.912776 0.37624,-0.316608 0.026,0.475776 -0.50712,1.811154 -1.18479,2.967504 -1.40572,2.398681 -1.17515,2.60268 1.03572,0.916365 1.39753,-1.065952 1.51289,-1.333062 1.13888,-2.637165 -0.33476,-1.167237 -0.23545,-1.631784 0.50768,-2.374917 1.02939,-1.029392 1.15755,-1.973998 0.44776,-3.300251 -0.31825,-0.594648 -0.31825,-0.987125 0,-1.183812 0.73475,-0.454097 0.56378,-2.203124 -0.30971,-3.168313 -0.43218,-0.477561 -0.58174,-0.868286 -0.33235,-0.868286 0.77687,0 1.59295,1.094587 1.59295,2.136604 0,0.548397 0.23369,1.230779 0.51933,1.516411 0.28563,0.285627 0.41724,0.915928 0.29247,1.400659 -0.18071,0.702077 -0.23805,0.655998 -0.28192,-0.226528 -0.0334,-0.671144 -0.28905,-1.022085 -0.64859,-0.890256 -0.32642,0.119689 -0.51087,0.511401 -0.40989,0.870471 0.63065,2.242499 0.58081,2.913453 -0.28836,3.882003 -0.65793,0.733172 -0.84506,1.397507 -0.62843,2.231057 l 0.30848,1.187002 0.7709,-1.187002 c 1.23129,-1.895898 2.36569,-7.021334 2.01432,-9.101066 -0.46013,-2.723489 -2.90763,-5.1429621 -5.20255,-5.1429621 -1.42602,0 -2.13252,0.354308 -3.55033,1.7805021 -0.97351,0.979276 -1.8806,2.100994 -2.01573,2.492706 -0.13515,0.391713 -0.38329,0.586078 -0.55144,0.431919 -0.46394,-0.425338 2.44228,-4.2108281 3.63723,-4.7376841 0.96699,-0.426344 0.94691,-0.448328 -0.25661,-0.280836 -0.71813,0.09994 -1.3057,-0.01771 -1.3057,-0.261417 0,-0.603679 5.12926,0.05281 6.71729,0.85974 1.47979,0.751936 3.25353,4.1455191 3.25353,6.2247761 0,0.804036 -0.43005,2.854244 -0.95568,4.556014 -0.79881,2.586252 -1.37742,3.479589 -3.52505,5.442401 -1.41316,1.29154 -4.41409,3.262086 -6.66873,4.378984 -2.25465,1.116898 -4.84424,2.536217 -5.75465,3.154036 -2.0713,1.405616 -2.10042,1.402406 -1.65307,-0.182391 z m 5.51753,-0.621622 c 0.15184,-0.245672 1.04688,-0.44668 1.98898,-0.44668 2.10153,0 1.91036,0.248844 -0.47389,0.616878 -1.06799,0.164847 -1.67969,0.09614 -1.51509,-0.170198 z m 4.3078,-2.429956 c 0.30195,-0.488586 3.03475,-0.519786 3.03284,-0.03461 -9.5e-4,0.195856 -0.7378,0.37168 -1.63786,0.390725 -0.90006,0.01904 -1.5278,-0.141202 -1.39498,-0.356102 z m -7.88619,-0.865528 c 0,-0.261141 0.30609,-0.474803 0.68021,-0.474803 0.37412,0 0.81583,-0.427322 0.9816,-0.949601 0.34249,-1.079085 0.96922,-1.230651 1.47251,-0.356102 0.18785,0.326427 0.17209,0.440503 -0.035,0.253502 -0.20711,-0.187001 -0.79101,0.186906 -1.29759,0.8309 -0.94751,1.204547 -1.80173,1.534578 -1.80173,0.696104 z m 5.67258,-0.604975 c 0.82251,-1.090855 0.37621,-1.51559 -0.8839,-0.841194 -0.65784,0.352071 -0.99027,0.364986 -0.99027,0.03846 0,-0.270329 0.30499,-0.491506 0.67775,-0.491506 0.37275,0 1.0954,-0.530977 1.60588,-1.179952 l 0.92815,-1.179947 -0.0708,1.408441 c -0.0389,0.774641 -0.48283,1.786361 -0.98639,2.248254 -0.87593,0.803471 -0.88806,0.803357 -0.28039,-0.0024 z m 6.19745,-1.300946 c 0,-0.424075 2.78481,-1.165152 3.11975,-0.830207 0.11168,0.111674 -0.54458,0.432503 -1.45835,0.712941 -0.91377,0.280447 -1.6614,0.333216 -1.6614,0.117266 z m 2.88837,-2.96079 c 0.10881,-0.06529 0.83882,-0.652854 1.62224,-1.305704 l 1.4244,-1.187002 -1.15107,1.305703 c -0.63308,0.718135 -1.36309,1.305704 -1.62223,1.305704 -0.25914,0 -0.38214,-0.05342 -0.27334,-0.118701 z m 2.832,-5.454375 c 0.60324,-0.845496 1.20747,-1.426584 1.34274,-1.291312 0.13527,0.135266 -0.35828,0.82704 -1.09679,1.53726 l -1.34273,1.291317 z m -14.26679,-1.995721 c 0,-0.245729 0.21121,-0.577317 0.46936,-0.736861 0.26915,-0.166342 0.34875,0.02426 0.18661,0.446776 -0.31565,0.822558 -0.65597,0.973056 -0.65597,0.290085 z m -0.7122,-1.927225 c 0.1614,-0.261141 0.5071,-0.474803 0.76825,-0.474803 0.26113,0 0.34275,0.213662 0.18135,0.474803 -0.16139,0.261142 -0.5071,0.474798 -0.76824,0.474798 -0.26115,0 -0.34275,-0.213656 -0.18136,-0.474798 z m 14.86957,-1.216497 c 0.10431,-0.893579 0.3515,-1.524678 0.54929,-1.402435 0.40673,0.251375 0.0688,2.527893 -0.42009,2.830044 -0.17538,0.108393 -0.23353,-0.534035 -0.1292,-1.427609 z m -9.89831,-2.080668 c 0.54384,-1.016168 1.44728,-1.7287671 1.42346,-1.122766 -0.0208,0.52959 -1.20447,2.045926 -1.59706,2.045926 -0.17626,0 -0.0981,-0.415424 0.1736,-0.92316 z m 4.99956,0.448357 c -0.91553,-0.393412 -0.91227,-0.409252 0.0907,-0.441424 0.57215,-0.01837 1.17233,0.180282 1.33372,0.441424 0.34709,0.561587 -0.11751,0.561587 -1.4244,0 z m 4.10695,-0.317263 c -0.0391,-0.566212 -0.20942,-1.420853 -0.37842,-1.8992081 -0.23633,-0.668902 -0.17293,-0.746043 0.27452,-0.334076 0.31999,0.294616 0.49028,1.1492561 0.37842,1.8992071 -0.14329,0.960698 -0.22439,1.059395 -0.27452,0.334077 z m -6.49271,-0.613308 c 0.16786,-0.271606 0.86235,-0.493833 1.54331,-0.493833 1.48831,0 1.31612,0.227426 -0.50303,0.664444 -0.8825,0.212004 -1.24047,0.153295 -1.04028,-0.170611 z m 3.72193,-2.6645421 c -0.5648,-0.63409 -0.86254,-1.152898 -0.66163,-1.152898 0.48569,0 2.14493,1.84941 1.88893,2.10541 -0.11021,0.110211 -0.6625,-0.318418 -1.2273,-0.952512 z m -3.59147,-0.530588 c -0.457,-0.119422 -0.83091,-0.422646 -0.83091,-0.673831 0,-0.263012 0.45305,-0.220973 1.06831,0.09913 1.78064,0.926435 1.71515,1.084958 -0.2374,0.574701 z"
     style="fill:#000000;stroke-width:0.47480103" />
</svg>
