<?xml version="1.0" encoding="UTF-8" standalone="no"?>
<svg
   xmlns:dc="http://purl.org/dc/elements/1.1/"
   xmlns:cc="http://creativecommons.org/ns#"
   xmlns:rdf="http://www.w3.org/1999/02/22-rdf-syntax-ns#"
   xmlns:svg="http://www.w3.org/2000/svg"
   xmlns="http://www.w3.org/2000/svg"
   id="svgMR3"
   version="1.1"
   viewBox="0 0 100 100"
   height="100"
   width="100">
  <defs
     id="defs2" />
  <metadata
     id="metadata5">
    <rdf:RDF>
      <cc:Work
         rdf:about="">
        <dc:format>image/svg+xml</dc:format>
        <dc:type
           rdf:resource="http://purl.org/dc/dcmitype/StillImage" />
        <dc:title></dc:title>
      </cc:Work>
    </rdf:RDF>
  </metadata>
  <path
     id="pathMR3"
     d="m 51.168405,94.618407 c -3.708242,-0.58536 -7.906697,-1.78906 -10.03674,-2.8775 -2.199102,-1.12374 -5.974602,-5.56585 -5.974602,-7.02945 0,-0.72805 -0.241061,-1.13474 -0.772601,-1.30344 -1.185394,-0.37624 -1.97541,-1.8963 -2.233471,-4.29736 -0.292666,-2.72309 -1.027782,-2.87547 -2.242105,-0.46472 -0.475266,0.94353 -0.989914,1.75123 -1.143666,1.79491 -0.153749,0.0437 -0.624945,-0.46908 -1.047096,-1.13943 -0.848357,-1.34715 -1.836062,-1.72336 -2.68177,-1.0215 -0.746948,0.61992 -0.707221,1.89092 0.05911,1.89092 0.387929,0 0.532137,-0.20981 0.393186,-0.57184 -0.216932,-0.56531 0.178885,-0.78494 0.619889,-0.34393 0.47747,0.47746 -0.221773,1.29698 -1.106611,1.29698 -1.135371,0 -1.524692,-0.87857 -0.949102,-2.14185 0.385648,-0.8464 0.629263,-0.93697 2.242144,-0.83344 l 1.809487,0.11616 0.492464,-1.71551 c 0.644786,-2.2461 0.648519,-2.16289 -0.200739,-4.47283 l -0.733422,-1.99488 -0.975302,1.04182 c -0.536413,0.57301 -1.091908,1.42783 -1.234429,1.8996 -0.3512,1.1625 -0.827545,1.07985 -1.098359,-0.19076 -0.313139,-1.46902 -1.56397,-3.36851 -2.714711,-4.12252 -1.289825,-0.84511 -2.20143,-0.16643 -2.037177,1.5168 0.124857,1.27952 1.154747,1.66036 1.376476,0.509 0.0784,-0.40711 -0.105278,-0.66714 -0.471308,-0.66714 -0.329879,0 -0.599786,-0.17145 -0.599786,-0.38121 0,-0.69903 1.110813,-0.39249 1.549746,0.42767 0.353481,0.66048 0.301551,0.94025 -0.283046,1.52484 -0.657219,0.6572 -0.78546,0.66728 -1.56316,0.12251 -1.094213,-0.76642 -1.081053,-2.14191 0.03289,-3.43694 1.017124,-1.18247 1.862118,-1.0746 3.700664,0.47241 l 1.145632,0.96401 0.974947,-2.12957 c 0.536218,-1.17126 1.185148,-2.26021 1.442069,-2.41991 0.25691,-0.15981 0.705034,-1.06233 0.995811,-2.00586 0.290777,-0.94353 0.642387,-1.88706 0.781349,-2.09671 0.138959,-0.20982 0.202512,-1.23899 0.141234,-2.28735 -0.06128,-1.04836 -0.12012,-2.12299 -0.13073,-2.38808 -0.01323,-0.33221 -0.404233,-0.4147 -1.258262,-0.26551 -2.354688,0.41135 -4.493073,1.0331 -4.698953,1.36621 -0.319392,0.51678 -0.924078,0.39499 -0.924078,-0.18601 0,-0.74935 1.49182,-2.53698 2.435292,-2.91819 0.773306,-0.31245 0.774988,-0.32618 0.04265,-0.34803 -0.419343,-0.0132 -1.32413,0.31972 -2.010631,0.73829 -1.524063,0.92922 -1.610981,0.93382 -1.610981,0.0855 0,-0.37158 0.540001,-1.33072 1.200001,-2.1314 1.054068,-1.27876 1.36943,-1.43965 2.593236,-1.32295 1.381381,0.13177 1.389067,0.12462 0.903427,-0.848964 -0.337621,-0.676777 -0.384188,-1.350115 -0.14986,-2.167148 0.275799,-0.961628 0.202591,-1.309555 -0.387927,-1.843986 -1.067058,-0.965676 -0.941334,-2.670439 0.254741,-3.454108 1.302633,-0.853519 2.718392,-0.34999 3.587164,1.275821 l 0.652673,1.221422 2.058759,-2.487453 c 1.132313,-1.368107 2.226021,-2.861282 2.430464,-3.318138 0.306298,-0.684503 0.391795,-0.461698 0.485804,1.266031 0.06276,1.153185 0.39252,2.628766 0.73283,3.279032 0.553121,1.056931 0.558746,1.302596 0.05307,2.316268 -0.381582,0.76491 -0.459309,1.421499 -0.23884,2.017526 0.427556,1.155779 -0.367974,2.368287 -2.574146,3.923347 -1.870542,1.31847 -1.956331,1.4919 -1.092633,2.20869 0.820896,0.6813 1.690361,2.44194 1.690361,3.42299 0,1.39999 0.909473,0.60814 1.799097,-1.56641 0.46532,-1.13742 0.851307,-2.71137 0.85775,-3.49763 0.01217,-1.47847 0.201771,-1.65952 1.12582,-1.07469 1.395404,0.88315 3.690052,-4.89074 3.243264,-8.160856 -0.236884,-1.733854 -0.205108,-1.852176 0.36949,-1.375291 0.782473,0.649393 0.971878,0.463973 1.396936,-1.367525 0.501018,-2.158787 0.417671,-5.352545 -0.207221,-7.940565 -0.707205,-2.928857 -0.70466,-3.056413 0.0485,-2.431361 1.066093,0.884766 0.513752,-4.677355 -0.735444,-7.405949 -0.95914,-2.095049 -0.942694,-2.687663 0.04712,-1.697857 0.736388,0.736388 1.19142,-0.321601 1.198202,-2.785956 0.0095,-3.497366 -0.727117,-6.412015 -2.526312,-9.9944191 l -1.704096,-3.393068 1.260371,0.25691 c 1.856305,0.378513 6.337332,3.55965 7.791566,5.5313241 0.69591,0.943504 1.38508,2.315924 1.531497,3.049772 l 0.266203,1.334266 0.685035,-2.286343 0.685034,-2.286343 -1.132563,-0.8863801 c -1.744897,-1.365567 -1.367011,-3.499642 0.619677,-3.499642 1.952164,0 4.435028,4.6921981 6.25339,11.8178741 0.454795,1.782232 0.886163,3.299882 0.958599,3.372563 0.190085,0.190764 1.709985,-3.039982 1.709985,-3.634765 0,-0.27514 -0.174069,-0.500221 -0.386826,-0.500221 -0.54986,0 -1.897386,-2.324972 -1.899083,-3.276625 -0.0019,-0.992743 1.131388,-2.060495 2.186734,-2.060495 0.436614,0 1.224643,0.511969 1.751172,1.137708 1.781018,2.116639 2.708845,5.554554 3.595732,13.323485 l 0.279997,2.452713 1.031911,-1.561915 c 0.887852,-1.343871 0.95438,-1.626287 0.476529,-2.022871 -0.741166,-0.615103 -0.733065,-3.557744 0.01151,-4.175678 1.068219,-0.886539 2.471945,-0.123031 3.347853,1.820914 0.654369,1.452298 0.838987,2.746321 0.963365,6.752481 0.08462,2.725737 -0.01007,5.849327 -0.210447,6.941315 -0.324851,1.770379 -0.298001,1.949661 0.247883,1.655206 0.336703,-0.181504 1.023357,-0.769831 1.525892,-1.307121 0.760718,-0.813302 0.832312,-1.074948 0.427591,-1.562602 -0.656012,-0.790442 -0.685923,-3.38386 -0.0479,-4.15266 1.203862,-1.450551 3.534019,-0.215106 4.001345,2.121534 0.70342,3.517105 0.0094,8.960005 -1.513995,11.873437 -0.533517,1.020339 -0.909535,1.915635 -0.835601,1.98956 0.07394,0.07408 0.639661,-0.26842 1.257169,-0.760809 0.938184,-0.748083 1.102834,-1.126252 1.001658,-2.300604 -0.226989,-2.634641 1.854491,-3.753986 3.38739,-1.821603 0.730628,0.921014 0.803331,1.349322 0.598576,3.526312 -0.4027,4.28154 -1.901797,8.04653 -4.623664,11.61237 l -1.392506,1.82428 1.643263,-0.90646 c 1.434639,-0.7914 1.679491,-1.11874 1.928658,-2.57829 0.706245,-4.13702 4.155549,-4.01918 4.097851,0.13997 -0.04004,2.88641 -2.898556,8.29375 -6.361832,12.0344 l -2.437144,2.63237 1.836886,-0.55735 c 1.010285,-0.30651 1.879774,-0.55917 1.932192,-0.56144 0.05242,-0.002 0.0953,-0.48059 0.0953,-1.06296 0,-1.44825 0.993878,-2.75339 2.096724,-2.75339 1.081131,0 2.096723,1.29752 2.096723,2.67875 0,2.40588 -4.063846,6.75864 -9.142507,9.79251 -2.772901,1.65648 -2.816464,1.70477 -1.34111,1.48662 0.838689,-0.12409 2.082428,-0.22728 2.763863,-0.22966 0.790712,-0.003 1.238973,-0.19235 1.238973,-0.52462 0,-0.28625 0.355551,-0.97245 0.790114,-1.5249 1.033772,-1.31423 2.50489,-1.33881 3.091355,-0.0516 0.370106,0.8123 0.295383,1.14779 -0.506717,2.2751 -1.257397,1.76723 -4.976428,4.98819 -6.882006,5.96034 -2.042453,1.04199 -6.952118,2.62967 -8.131826,2.62967 -1.079397,0 -1.269787,0.62092 -0.274137,0.89408 2.413611,0.66209 3.470337,0.64527 3.693817,-0.0587 0.364753,-1.14924 1.931025,-1.8061 3.069626,-1.28733 1.154848,0.52621 1.315179,2.30524 0.289172,3.20871 -1.187473,1.04566 -4.426221,2.47869 -6.576087,2.9097 -6.688471,1.34093 -7.504512,1.39629 -11.436673,0.77557 z m 9.102117,-0.9612 c 4.062303,-0.68525 8.141082,-2.31474 8.779366,-3.50737 0.565143,-1.05598 0.137987,-1.97324 -0.879694,-1.88899 -0.959415,0.0794 -1.294029,1.44055 -0.354132,1.44055 0.366869,0 0.506187,-0.21564 0.369492,-0.57182 -0.247449,-0.64484 0.341106,-0.787 0.720015,-0.17383 0.441848,0.7149 -0.645711,1.50831 -2.058415,1.50167 -0.760599,-0.003 -2.669533,-0.35817 -4.242075,-0.78799 -1.572543,-0.42979 -4.060019,-0.93204 -5.527726,-1.11611 -3.032682,-0.38034 -4.875385,-0.87813 -6.051025,-1.63463 -0.446038,-0.28702 -1.821409,-0.54541 -3.056379,-0.57425 -1.417858,-0.0331 -2.483135,-0.26754 -2.890444,-0.63616 -0.586445,-0.5307 -0.73744,-0.48003 -1.66213,0.55777 -0.559397,0.62783 -1.017087,1.22372 -1.017087,1.32424 0,0.10054 0.98126,0.64695 2.180579,1.21433 1.199317,0.56737 1.972905,1.1008 1.719083,1.18541 -0.253822,0.0847 -1.381835,-0.34465 -2.5067,-0.9539 -1.591121,-0.8618 -2.247886,-1.03238 -2.958059,-0.76835 -0.502065,0.18653 -1.298836,0.2663 -1.770599,0.177 -1.201557,-0.22754 -1.068249,0.24368 0.381222,1.3471 2.443527,1.86039 4.591546,2.7132 9.054034,3.59455 0.524181,0.10345 1.639257,0.32729 2.477946,0.49723 2.481278,0.50282 5.390261,0.43196 9.292728,-0.22622 z m -6.242948,-2.11858 c -3.68689,-0.5036 -6.678362,-1.15887 -6.895663,-1.51047 -0.252515,-0.40857 -0.499302,-0.4286 3.023929,0.24553 1.644648,0.31469 4.732549,0.65585 6.862001,0.75811 3.804112,0.18256 3.838444,0.17674 1.965624,-0.33637 -2.523364,-0.6914 -0.721166,-0.75485 2.096724,-0.0738 1.755308,0.42423 1.941535,0.54398 1.143667,0.73548 -1.705173,0.40923 -5.855988,0.50115 -8.196282,0.18151 z m 1.334278,-1.34482 c -1.469711,-0.53933 -4.122947,-1.79147 -5.261861,-2.48322 -2.219306,-1.34797 -1.078383,-1.0882 2.04413,0.46538 1.664917,0.82838 3.317207,1.51048 3.671759,1.51579 0.354553,0.005 0.750666,0.18124 0.880251,0.39087 0.250441,0.40521 -0.388039,0.45842 -1.334279,0.11113 z M 66.7249,88.738257 c -0.117374,-0.11748 -0.330539,0.0942 -0.473699,0.47016 -0.206883,0.54333 -0.163095,0.58711 0.213407,0.21352 0.260535,-0.2585 0.377666,-0.56621 0.260292,-0.68357 z m -4.645089,-1.13318 c 2.203287,-0.29808 6.276592,-1.5471 8.149717,-2.49902 2.910675,-1.4792 7.782168,-6.36796 7.382727,-7.40888 -0.518752,-1.35187 -2.13159,-0.94801 -2.242808,0.5616 -0.06624,0.89913 0.301791,0.98922 0.933206,0.22833 0.355757,-0.42867 0.306438,-0.57673 -0.239242,-0.71823 -0.526052,-0.13626 -0.479509,-0.18865 0.198321,-0.22252 0.648654,-0.0323 0.851468,0.13362 0.757787,0.62003 -0.203589,1.05714 -1.950369,1.64396 -5.545525,1.86298 -1.837656,0.11192 -4.703366,0.53266 -6.368245,0.93488 -1.664882,0.40224 -3.880737,0.73136 -4.924124,0.73136 -1.043387,0 -1.7978,0.0992 -1.676475,0.22066 0.121324,0.12145 2.976946,0.2421 6.345824,0.26829 3.368882,0.0265 5.914346,0.1823 5.656591,0.34663 -1.087064,0.69339 -5.591737,2.20223 -7.686585,2.57461 -3.088805,0.54906 -5.754431,0.50453 -8.229536,-0.13759 -1.851739,-0.48032 -2.193581,-0.47265 -3.112129,0.0699 -1.227711,0.72523 -1.067133,1.11281 0.783992,1.89225 1.289389,0.5429 6.570635,1.26611 7.52917,1.031 0.235283,-0.0577 1.264583,-0.21802 2.287334,-0.35647 z m -19.447414,-1.49106 c 0.853526,-0.9874 1.13531,-1.63918 1.004492,-2.32349 -0.111045,-0.58084 -0.0061,-0.95113 0.269537,-0.95113 0.255772,0 0.360298,0.28909 0.24122,0.66715 -0.146526,0.46516 0.189812,0.94022 1.110967,1.56922 1.104375,0.75408 1.60097,0.8601 3.027177,0.64624 0.938349,-0.14076 2.099465,-0.58944 2.580263,-0.99713 0.858894,-0.72835 0.861238,-0.75131 0.134178,-1.3134 -0.8462,-0.65418 -0.51573,-0.76088 0.565082,-0.18256 0.613856,0.32851 0.766997,0.23416 0.976631,-0.60097 0.20624,-0.82172 0.406452,-0.95094 1.174615,-0.75817 0.509298,0.1278 1.867784,-0.0645 3.018854,-0.4273 1.900932,-0.5992 2.180677,-0.83455 3.050516,-2.56637 0.559684,-1.1143 0.87189,-2.24841 0.751264,-2.729 -0.168482,-0.6713 0.06866,-0.94638 1.29104,-1.49762 1.960387,-0.884 2.856419,-1.90219 3.581112,-4.06937 0.428986,-1.28283 0.496428,-2.11484 0.243049,-2.99831 -0.295966,-1.03198 -0.204169,-1.41485 0.588329,-2.45387 1.609346,-2.10997 1.144643,-5.68407 -1.051625,-8.08826 -0.467528,-0.51178 -0.641453,-1.02285 -0.454063,-1.33426 0.245642,-0.40823 0.191889,-0.41424 -0.281052,-0.0315 -0.32163,0.26035 -0.69766,0.36036 -0.835625,0.22225 -0.137961,-0.13785 -0.25084,-0.0738 -0.25084,0.14261 0,0.42701 1.44497,2.41943 2.083582,2.87298 0.267493,0.18997 0.268369,0.28196 0.0027,0.28593 -0.2154,0.003 -0.863832,-0.53229 -1.440957,-1.19001 -1.485395,-1.69278 -1.693279,-1.09776 -0.292207,0.83634 1.482681,2.04679 1.601882,4.40404 0.313994,6.20959 -0.651764,0.91373 -0.862893,1.75183 -0.879167,3.48985 -0.01177,1.25804 -0.159547,2.5895 -0.328363,2.95881 -0.246231,0.53864 -0.173632,0.62031 0.367026,0.41283 0.466571,-0.17913 0.342857,0.11297 -0.402041,0.949 -0.591802,0.66421 -1.153735,1.12991 -1.24874,1.03492 -0.095,-0.095 0.113181,-0.45865 0.462637,-0.80812 0.824294,-0.82428 0.429527,-1.23023 -0.446961,-0.4596 -0.368211,0.32374 -1.398564,0.95519 -2.289671,1.40321 -1.341309,0.6744 -1.620196,1.00322 -1.620196,1.91021 0,0.68284 -0.416691,1.54168 -1.106006,2.2796 -0.95757,1.02508 -1.366881,1.18398 -3.04978,1.18398 -1.431589,0 -1.943716,0.14367 -1.943716,0.54534 0,0.2999 0.385988,0.62822 0.857751,0.72956 0.754813,0.16219 0.743376,0.17674 -0.0953,0.12065 -0.662138,-0.0442 -1.151147,0.25056 -1.602012,0.96522 -0.715413,1.13414 -2.661276,1.70786 -4.352649,1.28337 -0.818992,-0.20559 -0.960616,-0.13944 -0.769318,0.35906 0.139385,0.36322 0.07754,0.51401 -0.152506,0.37185 -0.212828,-0.1315 -0.339528,-0.52023 -0.281548,-0.86374 0.20194,-1.19647 -1.117273,-0.86471 -2.647856,0.66585 -1.749834,1.74985 -3.264327,2.01626 -4.566325,0.80328 -0.462057,-0.43048 -1.102875,-0.65654 -1.538326,-0.54266 -0.980765,0.25638 -0.730927,1.66304 0.538736,3.03302 0.825859,0.89112 1.144963,0.98592 2.720704,0.8083 1.447596,-0.16324 2.009406,-0.46066 2.971423,-1.57355 z m -4.234943,0.5376 c -0.129593,-0.20981 -0.05392,-0.38121 0.168116,-0.38121 0.222038,0 0.403722,0.17145 0.403722,0.38121 0,0.20982 -0.07564,0.38122 -0.168116,0.38122 -0.09247,0 -0.274137,-0.17145 -0.403722,-0.38122 z m -1.26439,-0.84505 c -0.2481,-0.24818 -0.451112,-0.6006 -0.451112,-0.78332 0,-0.18283 0.277746,-0.0545 0.617219,0.28501 0.339466,0.33948 0.542468,0.69196 0.451112,0.78332 -0.09136,0.0913 -0.369104,-0.0368 -0.617219,-0.28501 z m 4.259707,-0.10795 c 0.314508,-0.31451 0.690869,-0.57184 0.836356,-0.57184 0.145494,0 0.05096,0.25744 -0.210053,0.57184 -0.261011,0.31451 -0.637378,0.57185 -0.836353,0.57185 -0.198966,0 -0.104457,-0.25744 0.21005,-0.57185 z m 6.154021,-1.33429 c -0.129585,-0.20955 -0.05394,-0.38121 0.168111,-0.38121 0.222046,0 0.403722,0.17145 0.403722,0.38121 0,0.20955 -0.07565,0.38124 -0.168111,0.38124 -0.09246,0 -0.274137,-0.17145 -0.403722,-0.38124 z m 0.953056,0 c 0,-0.20955 0.267451,-0.38121 0.594334,-0.38121 0.326883,0 0.488308,0.17145 0.358722,0.38121 -0.129585,0.20955 -0.397035,0.38124 -0.594333,0.38124 -0.197298,0 -0.358723,-0.17145 -0.358723,-0.38124 z m 1.52489,-0.4037 c 0,-0.22199 0.171551,-0.29771 0.381222,-0.16801 0.209672,0.12964 0.381223,0.31125 0.381223,0.40372 0,0.0923 -0.17155,0.16801 -0.381223,0.16801 -0.209671,0 -0.381222,-0.18176 -0.381222,-0.4037 z m 1.554987,-2.10601 c 0.01831,-0.4441 0.108625,-0.53443 0.23032,-0.23045 0.110128,0.2752 0.09658,0.60399 -0.03008,0.73068 -0.126677,0.12673 -0.216778,-0.0984 -0.200226,-0.50036 z m 3.019682,-1.30251 c 0,-0.20955 0.171551,-0.38121 0.381223,-0.38121 0.209671,0 0.381222,0.17145 0.381222,0.38121 0,0.20981 -0.17155,0.38124 -0.381222,0.38124 -0.209672,0 -0.381223,-0.17145 -0.381223,-0.38124 z m 1.143668,-0.38121 c 0,-0.20982 0.181676,-0.38122 0.403722,-0.38122 0.222046,0 0.297696,0.17145 0.168111,0.38122 -0.129585,0.20981 -0.311261,0.38121 -0.403723,0.38121 -0.09246,0 -0.16811,-0.17145 -0.16811,-0.38121 z m 1.656064,-1.71255 c 0.242364,-0.52252 0.565643,-0.95141 0.718402,-0.95305 0.15276,-0.002 0.08234,0.4259 -0.156495,0.95009 -0.238837,0.52419 -0.562117,0.95306 -0.718406,0.95306 -0.15629,0 -0.08587,-0.42754 0.156499,-0.9501 z m 1.012493,-2.82133 c 0,-0.18732 0.28159,-0.44849 0.625754,-0.58057 0.52322,-0.20082 0.546802,-0.14499 0.143933,0.34044 -0.54901,0.66151 -0.769688,0.73035 -0.769688,0.24024 z m 1.715501,-1.18446 c 0.129585,-0.20981 0.31126,-0.38123 0.403722,-0.38123 0.09246,0 0.168111,0.17145 0.168111,0.38123 0,0.20955 -0.181676,0.38122 -0.403722,0.38122 -0.222046,0 -0.297697,-0.17145 -0.168111,-0.38122 z m 4.063027,-4.57467 c 0,-0.52419 0.08653,-0.73863 0.192286,-0.47654 0.105753,0.26221 0.105753,0.69096 0,0.95306 -0.105754,0.2622 -0.192286,0.0476 -0.192286,-0.47652 z m -0.03008,-1.74728 c 0.01831,-0.4441 0.108624,-0.53443 0.23032,-0.23045 0.110124,0.27519 0.09658,0.60399 -0.03008,0.73067 -0.126677,0.12674 -0.216779,-0.0984 -0.200226,-0.50035 z m 0.732332,-3.20862 c 0,-0.20955 0.181676,-0.38122 0.403722,-0.38122 0.222046,0 0.297697,0.17145 0.168111,0.38122 -0.129585,0.20981 -0.311261,0.38123 -0.403722,0.38123 -0.09246,0 -0.168111,-0.17145 -0.168111,-0.38123 z m 0.571834,-1.14366 c 0.129585,-0.20955 0.31126,-0.38122 0.403722,-0.38122 0.09246,0 0.168111,0.17145 0.168111,0.38122 0,0.20981 -0.181677,0.38123 -0.403723,0.38123 -0.222046,0 -0.297696,-0.17145 -0.16811,-0.38123 z m 0.317787,-2.88695 c -0.240168,-0.5089 -0.292814,-0.92528 -0.116996,-0.92528 0.331411,0 0.924376,1.47984 0.68777,1.71646 -0.07376,0.0738 -0.330607,-0.28226 -0.570774,-0.79118 z m -2.478446,23.48456 c 1.271976,-0.23071 2.964679,-0.64722 3.76156,-0.92569 1.368696,-0.47829 1.169629,-0.51525 -3.597127,-0.66773 -2.919108,-0.0934 -5.221489,-0.3369 -5.462346,-0.57775 -0.300979,-0.30099 -0.873758,-0.27868 -2.067095,0.0804 -0.907911,0.27326 -1.761522,0.38605 -1.896913,0.25056 -0.236537,-0.23654 -0.949263,0.60256 -0.961313,1.13175 -0.0065,0.28493 1.95147,0.95793 3.425165,1.17732 1.373781,0.20452 4.133854,0.0132 6.798069,-0.469 z m -20.825077,-1.62536 1.412502,-1.59353 1.364296,0.65058 c 2.888862,1.37761 5.531874,0.36312 5.531874,-2.12336 0,-1.0809 0.03412,-1.09952 1.546737,-0.84396 0.932177,0.15742 1.979936,0.082 2.637015,-0.19024 1.186776,-0.49157 2.309884,-2.3785 2.091295,-3.51353 -0.104111,-0.54062 0.355017,-0.94499 1.907713,-1.68016 3.020593,-1.43018 3.439644,-2.04478 3.471297,-5.09124 0.02125,-2.04377 0.198655,-2.79527 0.857751,-3.63318 1.354182,-1.72153 1.01043,-4.62102 -0.741337,-6.25305 l -0.856576,-0.79804 0.853099,-1.51788 c 1.7628,-3.13648 0.967924,-5.96173 -2.081463,-7.398281 l -1.523746,-0.717814 0.01722,-2.903774 c 0.01381,-2.324443 -0.134879,-3.109356 -0.745198,-3.933982 -0.939755,-1.269762 -2.545052,-1.990486 -3.75636,-1.686454 -0.8487,0.21299 -0.929432,0.09737 -1.163258,-1.665234 -0.351562,-2.650383 -1.46138,-3.818226 -4.135991,-4.352288 -2.115358,-0.422407 -2.158345,-0.458258 -4.159982,-3.470776 l -2.022537,-3.043977 -0.209762,1.715505 c -0.22471,1.837821 0.04884,2.579263 1.898843,5.146514 1.131725,1.570486 2.119068,4.244497 2.505635,6.785977 l 0.220382,1.448884 1.245085,-1.067646 c 0.684797,-0.587216 1.661806,-1.620493 2.171134,-2.296132 0.509329,-0.675666 1.044851,-1.233223 1.190047,-1.238991 0.619807,-0.02381 0.495852,4.625788 -0.257508,9.661071 l -0.220729,1.47529 1.544424,-1.665895 c 0.849432,-0.916252 1.835262,-2.137648 2.190729,-2.714254 1.136485,-1.843457 1.394859,-1.319503 1.268903,2.573257 -0.05626,1.738682 -0.72995,6.888 -1.040837,7.95557 -0.202578,0.69564 -0.178548,0.69564 1.024875,0 0.677771,-0.3918 1.682201,-1.2699 2.232065,-1.9513 0.549864,-0.68144 1.128415,-1.23897 1.285669,-1.23899 0.157255,0 0.285917,1.07812 0.285917,2.39585 0,2.33548 -0.578441,4.49299 -2.245023,8.37369 -0.427713,0.99594 -0.712204,1.81081 -0.632204,1.81081 0.483844,0 3.599434,-1.5326 3.810783,-1.87458 0.628057,-1.01621 1.066725,-0.34372 0.84257,1.29167 -0.709474,5.17618 -5.206011,10.8096 -10.93384,13.69832 -1.815347,0.91554 -4.057168,1.77549 -4.981823,1.91101 -3.214517,0.47111 -6.065253,1.14392 -6.065253,1.4315 0,0.15901 -0.538292,0.90241 -1.196208,1.65174 -1.15231,1.31238 -1.169796,1.38274 -0.476527,1.91706 1.082854,0.8346 2.459806,0.34507 4.038294,-1.4357 z m 17.726621,-21.38441 c -0.110913,-0.28903 0.126379,-0.80637 0.527311,-1.14966 0.680402,-0.58259 0.72897,-0.57672 0.72897,0.0878 0,0.96173 -0.977614,1.788 -1.256281,1.0618 z m -0.078,-1.78128 c 0.129585,-0.20981 0.311261,-0.38124 0.403722,-0.38124 0.09246,0 0.168111,0.17145 0.168111,0.38124 0,0.20955 -0.181676,0.38121 -0.403722,0.38121 -0.222046,0 -0.297696,-0.17145 -0.168111,-0.38121 z m -2.096723,-8.00568 c 0,-0.20981 0.181676,-0.38123 0.403722,-0.38123 0.222046,0 0.297697,0.17145 0.168111,0.38123 -0.129585,0.20982 -0.31126,0.38121 -0.403722,0.38121 -0.09246,0 -0.168111,-0.17145 -0.168111,-0.38121 z m -0.878729,-0.51559 c -0.142227,-0.37065 -0.100762,-0.57161 0.0932,-0.45172 0.192175,0.11879 0.459095,-0.12965 0.593156,-0.552056 0.134062,-0.42238 0.413863,-0.767979 0.621777,-0.767979 0.20792,0 0.260154,0.190764 0.116084,0.423862 -0.144071,0.233098 -0.02553,0.573593 0.263416,0.756603 0.393399,0.24924 0.317882,0.33422 -0.300613,0.33859 -0.454287,0.003 -0.894569,0.21166 -0.9784,0.4631 -0.09369,0.28106 -0.251142,0.20002 -0.408624,-0.21035 z M 53.185917,42.99502 c -0.642554,-0.695696 0.454078,-1.677061 1.124667,-1.006449 0.334267,0.334248 0.260993,0.442701 -0.302073,0.447146 -0.562436,0.0053 -0.617485,0.08546 -0.226155,0.33356 0.284475,0.180181 0.370251,0.416957 0.190611,0.525992 -0.179639,0.109008 -0.533811,-0.02646 -0.78705,-0.300249 z m -0.1114,-1.703731 c 0,-0.447913 1.085878,-0.78822 1.317783,-0.413015 0.109194,0.176742 -0.142639,0.410475 -0.559627,0.51951 -0.416985,0.109008 -0.758156,0.06112 -0.758156,-0.106627 z M 48.428369,37.59477 c 0.275197,-0.110066 0.604002,-0.09657 0.730678,0.03016 0.126677,0.126735 -0.09849,0.216693 -0.500355,0.200289 -0.444105,-0.01852 -0.534436,-0.108743 -0.230322,-0.230187 z m -0.881577,-0.883231 c 0.129585,-0.209815 0.397035,-0.381238 0.594333,-0.381238 0.197298,0 0.358723,0.17145 0.358723,0.381238 0,0.209549 -0.26745,0.381211 -0.594333,0.381211 -0.326883,0 -0.488308,-0.17145 -0.358723,-0.381211 z m 0,-1.143661 c 0.129585,-0.209815 0.525698,-0.378619 0.88025,-0.375391 0.555545,0.0053 0.565609,0.05688 0.07281,0.375391 -0.746574,0.482467 -1.25124,0.482467 -0.953055,0 z m -9.310626,46.538439 c 1.417243,-1.41724 1.3995,-1.73365 -0.124618,-2.22258 l -1.238975,-0.39745 1.095044,-0.0389 c 0.935881,-0.0333 1.025006,-0.12329 0.613214,-0.61947 -0.402868,-0.48543 -0.379285,-0.54123 0.143933,-0.34043 0.344162,0.13202 0.646049,0.43619 0.670859,0.67585 0.02487,0.23971 0.176054,-0.0788 0.336116,-0.70792 l 0.291015,-1.14366 0.04511,1.09794 c 0.04397,1.07034 0.08805,1.0931 1.755102,0.90519 3.01141,-0.33943 4.442381,-1.93736 3.849683,-4.29887 -0.202702,-0.80764 -0.357785,-0.89911 -0.969324,-0.57184 -0.91268,0.48847 -1.159356,0.49024 -1.159356,0.008 0,-0.20981 0.300212,-0.40113 0.667139,-0.42544 0.630332,-0.0418 0.630073,-0.054 -0.0048,-0.21961 -0.369494,-0.0963 -0.572077,-0.3366 -0.450186,-0.53382 0.121893,-0.19712 0.399695,-0.24845 0.617344,-0.11404 0.252809,0.15611 0.302866,-0.0479 0.138589,-0.56562 -0.350962,-1.10578 0.04006,-1.02214 0.648253,0.13864 l 0.497149,0.94885 1.022511,-0.94814 c 1.412578,-1.30979 1.733144,-3.27107 0.780564,-4.77557 -0.651059,-1.02827 -0.7999,-1.0981 -1.23163,-0.5779 -0.270093,0.32544 -0.760188,0.59172 -1.089096,0.59172 -0.478738,0 -0.450417,-0.11166 0.141984,-0.55973 0.416836,-0.31528 0.5319,-0.56499 0.263474,-0.57182 -0.262091,-0.008 -0.476528,-0.16748 -0.476528,-0.35766 0,-0.18997 0.385988,-0.26723 0.857751,-0.17145 l 0.85775,0.17409 -0.85775,-0.6374 c -0.471763,-0.35055 -0.857751,-0.8146 -0.857751,-1.03119 0,-0.21669 0.31372,-0.1098 0.697157,0.23707 0.383437,0.34702 0.888359,0.63092 1.122052,0.63092 0.721143,0 1.611793,-1.62988 1.611793,-2.9496 0,-1.00655 -0.2453,-1.40488 -1.238973,-2.01186 -1.139306,-0.69594 -1.276199,-0.70647 -1.701754,-0.13097 -0.254526,0.34422 -0.531252,0.81597 -0.614945,1.04833 -0.08369,0.2323 -0.29288,0.29094 -0.464862,0.13018 -0.171979,-0.16087 -0.109696,-0.49528 0.13843,-0.7434 0.656784,-0.65678 0.55335,-1.23929 -0.120729,-0.67985 -0.3663,0.30401 -0.571836,0.32761 -0.571836,0.0656 0,-0.2249 0.300214,-0.58383 0.667141,-0.79754 0.570349,-0.33221 0.515041,-0.39026 -0.381222,-0.40018 -0.576614,-0.005 -1.048379,-0.18309 -1.048379,-0.3928 0,-0.47649 0.447492,-0.4821 1.660659,-0.0212 0.849412,0.32293 0.990556,0.23786 1.359095,-0.81933 0.767942,-2.20292 0.522473,-3.86651 -0.750463,-5.08606 -0.9701,-0.92943 -1.22065,-1.01978 -1.519052,-0.54784 -0.196533,0.3108 -0.359966,0.77956 -0.36318,1.04166 -0.0032,0.2622 -0.188939,0.47652 -0.412748,0.47652 -0.232992,0 -0.303813,-0.32483 -0.165682,-0.76005 0.195792,-0.61685 0.110834,-0.71114 -0.450836,-0.50046 -0.608608,0.22834 -0.628973,0.18204 -0.168857,-0.38362 0.462584,-0.56866 0.418412,-0.64902 -0.381222,-0.69339 -0.618659,-0.0344 -0.482841,-0.12462 0.429847,-0.28591 1.089072,-0.19235 1.355891,-0.42264 1.451882,-1.252772 0.127767,-1.104794 -1.256524,-4.139272 -2.581086,-5.658006 l -0.828045,-0.949404 0.177853,1.124373 c 0.09782,0.61841 0.01693,1.547706 -0.179811,2.065098 -0.333978,0.878416 0.175763,1.773475 0.797351,1.400069 0.114855,-0.06906 0.419811,0.102922 0.677703,0.382084 0.378918,0.410184 0.324056,0.496649 -0.285919,0.450718 -0.415142,-0.03122 -0.754803,-0.191823 -0.754803,-0.356976 0,-0.835686 -0.783592,-0.0717 -1.961181,1.912406 l -1.313206,2.2125 0.70935,1.12321 c 1.091859,1.72886 0.684046,5.67864 -0.870769,8.43364 -0.653328,1.15763 -1.001456,1.98959 -0.773615,1.84875 0.227832,-0.14076 0.944985,-1.30739 1.593653,-2.59239 1.094644,-2.16847 1.217305,-2.28451 1.706969,-1.61485 0.3062,0.41875 0.527574,1.65245 0.527574,2.94012 0,3.52269 -1.65501,6.38763 -4.819976,8.34369 -1.441036,0.89061 -1.735324,1.37313 -0.42183,0.69165 1.758901,-0.91258 4.016288,-3.02337 4.640803,-4.33946 0.354845,-0.74777 0.806788,-1.25971 1.00431,-1.13763 0.469495,0.29014 0.461946,3.82635 -0.01164,5.47783 -0.849392,2.96166 -3.875099,5.62964 -6.83464,6.02659 -1.107645,0.1487 -1.451437,0.356 -1.360899,0.82114 0.06662,0.34229 0.134249,0.99517 0.150309,1.45084 0.01614,0.45569 0.47329,1.35633 1.016109,2.00141 1.30984,1.55668 2.860676,1.57742 4.379495,0.0585 z m -3.503793,-0.50585 c -0.02381,-0.0524 -0.09917,-0.56399 -0.167243,-1.13687 -0.101044,-0.85031 -0.0308,-0.95533 0.382505,-0.57184 0.369292,0.34264 0.388758,0.54552 0.07194,0.74983 -0.415025,0.26763 0.212434,0.46836 1.02358,0.32745 0.172826,-0.0299 0.205608,0.12118 0.07281,0.33607 -0.209338,0.33872 -1.261382,0.5633 -1.383582,0.29536 z m -1.672034,-2.57324 c -0.129593,-0.20981 -0.05395,-0.38123 0.168117,-0.38123 0.222038,0 0.403722,0.17145 0.403722,0.38123 0,0.20955 -0.07564,0.38122 -0.168116,0.38122 -0.09247,0 -0.274138,-0.17145 -0.403723,-0.38122 z m 3.04978,-0.76244 c -0.129593,-0.20982 -0.05395,-0.38124 0.168116,-0.38124 0.222038,0 0.403722,0.17145 0.403722,0.38124 0,0.20955 -0.07564,0.38121 -0.168116,0.38121 -0.09247,0 -0.274137,-0.17145 -0.403722,-0.38121 z m 5.557821,-0.98484 c 0.01826,-0.4441 0.108638,-0.53443 0.23032,-0.23045 0.11012,0.27519 0.09657,0.60399 -0.03008,0.73067 -0.126682,0.12674 -0.216773,-0.0984 -0.200236,-0.50035 z m 1.304181,0.0871 c -0.209682,-0.23998 -0.43566,-0.7543 -0.502197,-1.14268 -0.103108,-0.60182 -0.0386,-0.62997 0.436515,-0.1905 0.30662,0.28355 0.488653,0.62955 0.404518,0.76891 -0.08414,0.13943 0.05408,0.32236 0.307155,0.40671 0.262334,0.0876 0.304329,0.24818 0.09768,0.37378 -0.199337,0.12118 -0.533995,0.0238 -0.743669,-0.21617 z m -3.621612,-1.7708 c 0,-0.20982 0.181663,-0.38121 0.403722,-0.38121 0.222038,0 0.297696,0.17145 0.168116,0.38121 -0.129592,0.20955 -0.311261,0.38121 -0.403722,0.38121 -0.09247,0 -0.168116,-0.17145 -0.168116,-0.38121 z m 1.33428,-1.5249 c 0.129593,-0.20955 0.311258,-0.38121 0.403722,-0.38121 0.09247,0 0.168116,0.17145 0.168116,0.38121 0,0.20981 -0.181663,0.38124 -0.403722,0.38124 -0.222038,0 -0.297698,-0.17145 -0.168116,-0.38124 z m 5.051196,-2.93134 c -0.366926,-0.0958 -0.667139,-0.34343 -0.667139,-0.5501 0,-0.20664 0.1592,-0.27739 0.353775,-0.15716 0.194579,0.12038 0.463463,-0.127 0.597524,-0.54933 0.134061,-0.42238 0.438047,-0.76798 0.675526,-0.76798 0.30728,0 0.299873,0.13176 -0.02569,0.45747 -0.550844,0.55083 -0.611012,1.20732 -0.08061,0.8795 0.216098,-0.13362 0.280012,0.0185 0.149828,0.35872 -0.12487,0.32541 -0.251568,0.57174 -0.281552,0.54742 -0.03,-0.0238 -0.354731,-0.12276 -0.721658,-0.21854 z m -0.659492,-1.84319 c 0.265225,-0.31959 0.560733,-0.50255 0.656687,-0.40659 0.264374,0.26432 -0.272784,0.98764 -0.73351,0.98764 -0.252783,0 -0.223864,-0.21881 0.07682,-0.58105 z m 0.544062,-5.48595 c 0.118517,-0.19182 0.0199,-0.41386 -0.219168,-0.49355 -0.282817,-0.0942 -0.206329,-0.37323 0.218972,-0.79852 0.359493,-0.35949 0.842845,-0.53668 1.074114,-0.39375 0.265205,0.16378 0.148264,0.3665 -0.316652,0.54856 -0.405426,0.15875 -0.512576,0.30073 -0.238111,0.31546 0.274465,0.0159 0.402056,0.18362 0.283542,0.37545 -0.118518,0.19182 1.9e-5,0.43555 0.263416,0.54173 0.263398,0.1061 0.08279,0.20664 -0.401347,0.22331 -0.484137,0.0159 -0.783279,-0.12674 -0.664764,-0.31856 z m -3.601489,-2.72362 c 0,-0.22199 0.171556,-0.29771 0.381222,-0.16801 0.209682,0.12964 0.381222,0.31125 0.381222,0.40373 0,0.0923 -0.171555,0.16801 -0.381222,0.16801 -0.209682,0 -0.381222,-0.18177 -0.381222,-0.40373 z m -1.906113,-4.17094 c 0,-0.20982 0.181663,-0.38124 0.403722,-0.38124 0.222039,0 0.297699,0.17145 0.168117,0.38124 -0.129593,0.20955 -0.311261,0.38121 -0.403723,0.38121 -0.09247,0 -0.168116,-0.17145 -0.168116,-0.38121 z m 3.431004,-0.36928 c 0,-0.2032 0.300212,-0.27699 0.667139,-0.16431 0.366926,0.11271 0.238257,-0.0759 -0.285917,-0.4195 -0.524181,-0.34348 -0.673748,-0.54027 -0.332369,-0.43735 0.341376,0.10292 0.823298,-0.0132 1.070945,-0.25956 0.345263,-0.34255 0.391035,-0.29117 0.196268,0.2204 -0.16428,0.43151 -0.07125,0.66921 0.263332,0.67297 0.39917,0.005 0.38672,0.0902 -0.05452,0.37539 -0.738645,0.47736 -1.524889,0.48352 -1.524889,0.0132 z m -1.906113,-1.15562 c 0,-0.20955 0.171556,-0.38121 0.381222,-0.38121 0.209682,0 0.381222,0.17145 0.381222,0.38121 0,0.20981 -0.171555,0.38121 -0.381222,0.38121 -0.209682,0 -0.381222,-0.17145 -0.381222,-0.38121 z m -1.309769,-5.987812 c -0.206877,-0.543321 -0.163089,-0.58711 0.213413,-0.213518 0.260535,0.258498 0.377666,0.566208 0.260297,0.683577 -0.117369,0.117475 -0.330541,-0.09419 -0.473699,-0.470164 z m 24.366972,31.079532 c 1.722485,-0.44175 5.654112,-2.32381 8.203038,-3.92678 2.49146,-1.56684 6.3932,-5.67161 6.790933,-7.14431 0.185623,-0.68733 0.297666,-1.30103 0.24898,-1.36382 -0.04869,-0.0627 -0.72964,0.32092 -1.513232,0.85267 -0.783591,0.53176 -2.390539,1.2363 -3.571002,1.56562 -2.98801,0.8336 -4.721062,1.43293 -8.245849,2.8516 -5.394953,2.17141 -5.472661,2.2157 -5.266931,3.00241 0.103933,0.39743 -0.004,1.08326 -0.239937,1.52403 -0.525218,0.98139 -0.46853,0.98224 3.186962,0.0474 3.234085,-0.82714 6.196313,-2.27798 7.513353,-3.6799 1.087506,-1.15761 0.789344,-1.13742 -3.220152,0.21775 -1.823928,0.61653 -4.129146,1.21256 -5.122711,1.32453 -1.718851,0.19367 -1.741755,0.18441 -0.472197,-0.1913 5.930685,-1.75476 10.239517,-3.18515 10.960145,-3.63841 1.519873,-0.95597 0.915228,0.0757 -1.237966,2.11195 -1.152641,1.09011 -2.996805,2.39356 -4.098141,2.8965 -2.134751,0.97489 -6.039242,2.09249 -7.324328,2.09648 -0.468694,0.002 -1.043917,0.47022 -1.447833,1.17986 l -0.670182,1.17744 2.00446,-0.25717 c 1.10245,-0.14155 2.687618,-0.43241 3.522591,-0.64656 z m -13.710425,-3.76843 c 5.065566,-2.47478 9.2012,-7.48953 10.268974,-12.45184 l 0.264869,-1.23095 -2.220556,0.98346 c -1.221307,0.54088 -2.735206,1.56101 -3.364223,2.26697 -1.448721,1.62586 -4.592171,3.85948 -6.161153,4.37787 -1.134625,0.37487 -2.074175,1.50498 -1.251203,1.50498 0.736065,0 5.866686,-2.76995 7.8651,-4.24627 1.113859,-0.82285 2.025202,-1.39808 2.025202,-1.27828 0,0.5951 -1.654284,3.3433 -2.586648,4.2971 -2.191556,2.24191 -5.369152,4.5649 -7.390222,5.40257 -1.151155,0.47713 -2.310605,1.21595 -2.576553,1.64179 -0.456091,0.73031 -0.414778,0.76052 0.727841,0.53198 0.666259,-0.13335 2.645616,-0.94298 4.398572,-1.79938 z m -20.873065,0.28204 c 0.642717,-1.08931 0.675438,-1.36742 0.232198,-1.97358 -0.283768,-0.38806 -0.602747,-0.61878 -0.708845,-0.51268 -0.278945,0.27895 -0.719833,3.75428 -0.476276,3.75428 0.112633,0 0.541435,-0.5706 0.952915,-1.26802 z m 6.109054,-0.601 c 2.661916,-1.36511 4.273564,-3.95295 4.273564,-6.86209 v -1.51239 l -1.9008,1.85142 c -1.045437,1.0183 -2.589389,2.15524 -3.431001,2.52656 -1.324276,0.58428 -2.030761,1.29085 -1.29069,1.29085 0.405844,0 4.30548,-2.31214 4.540213,-2.69192 0.277019,-0.44823 0.938612,-0.46961 0.938612,-0.0304 0,0.655 -3.272836,4.02415 -4.929984,5.07508 -1.599914,1.01465 -1.63863,1.07815 -0.657188,1.07815 0.573582,0 1.679357,-0.32639 2.457274,-0.72533 z m -3.98988,-0.57136 c 0.120623,-0.31438 -0.08856,-0.61106 -0.508273,-0.72081 -0.615007,-0.16086 -0.651261,-0.0873 -0.263128,0.53427 0.538179,0.86178 0.514493,0.85604 0.771411,0.18654 z m 3.49675,-1.33057 c 2.260062,-1.79956 2.211839,-2.31618 -0.100436,-1.07603 -2.255984,1.20999 -2.741468,1.64536 -2.751475,2.46756 -0.0069,0.57075 1.011761,0.0738 2.851916,-1.39153 z m 14.869091,0.0238 c 2.424434,-1.4541 5.480869,-4.27014 6.303997,-5.80816 l 0.494564,-0.92411 -1.304505,0.99502 c -1.525336,1.16342 -6.016022,3.4603 -8.061997,4.12353 -1.735405,0.56255 -1.87714,0.76811 -1.574167,2.28295 0.288193,1.44098 0.747512,1.36676 4.142108,-0.66923 z m -17.95579,-2.67052 c 0.154569,-0.25003 0.05651,-0.4458 -0.225081,-0.44908 -0.366736,-0.005 -0.347435,-0.11298 0.07281,-0.41026 0.508293,-0.35946 0.508293,-0.38706 0,-0.24845 -0.31451,0.086 -0.586211,0.31338 -0.603776,0.50557 -0.01746,0.19209 -0.238654,0.84987 -0.491305,1.46148 -0.366046,0.88614 -0.359558,1.17409 0.03193,1.41742 0.343948,0.21379 0.55881,-0.0159 0.716386,-0.76409 0.123798,-0.58822 0.348358,-1.26894 0.499025,-1.51272 z m -2.450575,1.06116 c -0.683133,-1.27645 -1.160378,-2.93304 -1.696391,-5.88846 -0.401672,-2.21469 -0.490569,-2.40921 -0.522666,-1.14368 -0.02117,0.8387 0.123772,2.22834 0.322342,3.08808 0.463142,2.00541 1.862763,5.28021 2.138755,5.00419 0.116549,-0.11641 0.0077,-0.59362 -0.24204,-1.06013 z m 38.837715,-1.19258 c 3.645509,-1.74567 7.407263,-5.72979 9.687831,-10.26043 2.090891,-4.15388 2.550306,-6.25866 1.614542,-7.39701 -0.344709,-0.41936 -0.5121,-0.53827 -0.371974,-0.26432 0.738904,1.44492 -1.529991,3.75896 -5.535346,5.64552 -0.943526,0.4444 -2.144377,1.27781 -2.668557,1.852 -0.524181,0.5742 -1.694199,1.55697 -2.600044,2.18393 -0.905842,0.62695 -1.565075,1.22184 -1.464958,1.32193 0.366717,0.36674 6.973252,-3.17182 8.542863,-4.57567 0.470936,-0.42119 0.938791,-0.68326 1.039682,-0.58238 0.100885,0.10081 -0.446393,1.43002 -1.216184,2.9536 -1.615441,3.19736 -4.007467,5.5735 -7.876612,7.82431 -2.702993,1.57242 -4.182189,3.20145 -2.461721,2.7111 0.48976,-0.1397 1.979474,-0.77528 3.310478,-1.41263 z m -36.767063,-1.45664 c 0.612333,0 -0.62793,-1.03259 -1.585039,-1.31963 -1.072602,-0.32171 -1.419357,0.40939 -0.874228,1.84319 l 0.393983,1.03624 0.837126,-0.77989 c 0.460422,-0.42894 1.013091,-0.77991 1.228158,-0.77991 z m -4.888135,-3.08205 c 0.0209,-1.01399 -0.105622,-1.75474 -0.281429,-1.64608 -0.554598,0.34277 -2.227238,4.19026 -2.227238,5.12321 0,0.86082 0.04495,0.84735 1.235225,-0.37007 1.030033,-1.05355 1.241576,-1.5697 1.273442,-3.10706 z m 9.183723,2.47727 c 2.346411,-1.9227 3.176102,-3.73007 3.17171,-6.90917 l -0.0034,-2.58844 -1.099508,1.90611 c -0.604729,1.04836 -1.546645,2.32201 -2.093147,2.83032 -0.546647,0.50832 -0.993785,1.15308 -0.993785,1.43283 0,0.79846 1.160428,-0.0826 2.423791,-1.84007 0.599017,-0.83336 1.150892,-1.45341 1.226394,-1.3779 0.272701,0.27268 -0.773842,3.18106 -1.663789,4.6237 -0.500594,0.81147 -1.409649,1.66396 -2.02012,1.89439 -0.61047,0.23045 -1.109945,0.63868 -1.109945,0.9072 0,0.74732 0.351629,0.60436 2.16183,-0.87897 z m 33.291858,-0.93964 c 2.588729,-1.76387 4.161973,-3.43874 5.442583,-5.79411 1.096038,-2.01591 1.04463,-2.13876 -0.449716,-1.07468 -1.399071,0.99623 -6.273477,3.42431 -7.147361,3.56033 -1.176765,0.1831 -1.725458,0.6975 -1.456273,1.36515 0.419329,1.04002 0.454821,1.69635 0.161962,2.99484 -0.264801,1.17409 -0.237525,1.21513 0.536547,0.80703 0.448543,-0.23653 1.75906,-1.07283 2.912258,-1.85856 z m -2.096723,-1.50535 c -0.129585,-0.20981 -0.05394,-0.38124 0.168111,-0.38124 0.222046,0 0.403722,0.17145 0.403722,0.38124 0,0.20955 -0.07565,0.38121 -0.168111,0.38121 -0.09246,0 -0.274137,-0.17145 -0.403722,-0.38121 z m -33.627592,2.66803 c 0.12327,-0.47138 0.04776,-0.66918 -0.197564,-0.51755 -0.267726,0.16537 -0.309255,-0.34033 -0.127476,-1.55255 0.254635,-1.69807 0.22852,-1.77596 -0.470284,-1.40197 -0.406947,0.21775 -0.814847,0.32104 -0.906443,0.22939 -0.0916,-0.0915 -0.128852,0.37775 -0.08279,1.04299 0.04606,0.66527 0.355766,1.40846 0.688247,1.65158 0.332483,0.24315 0.604512,0.63754 0.604512,0.87651 0,0.68861 0.273642,0.50586 0.491818,-0.32845 z m 16.168728,-0.0781 c 1.854281,-0.79968 4.840534,-3.36007 5.901091,-5.0596 1.37568,-2.20451 3.215814,-7.55192 3.44412,-10.00857 l 0.185365,-1.99464 -1.434548,1.29603 c -0.789001,0.71282 -1.793057,1.48789 -2.231234,1.72241 -0.438181,0.23442 -1.231345,1.2841 -1.762589,2.33249 -0.531245,1.04836 -1.603201,2.61895 -2.382126,3.49025 l -1.416226,1.58411 1.715501,-1.18234 c 0.943525,-0.6503 2.480305,-1.96975 3.41507,-2.93211 0.934762,-0.96235 1.808775,-1.74975 1.942249,-1.74975 0.133474,0 -0.08835,0.98642 -0.492948,2.19202 -0.983557,2.93084 -3.238839,5.83925 -5.961827,7.68839 -1.228951,0.83455 -2.326463,1.86923 -2.43892,2.29929 -0.235892,0.90204 0.03751,0.96006 1.517022,0.32202 z m -13.906435,-1.35096 c 0.321722,-0.36693 0.889137,-1.26757 1.260921,-2.00141 l 0.675968,-1.33427 -1.536093,1.33427 c -1.596194,1.38649 -2.298977,2.66855 -1.462802,2.66855 0.262388,0 0.740286,-0.30022 1.062006,-0.66714 z m 41.766995,-1.73191 c 0.539716,-0.60378 0.541683,-0.65693 0.01688,-0.45556 -0.770637,0.29572 -1.553435,2.01983 -1.179242,2.59725 0.183223,0.28276 0.338433,0.0966 0.420823,-0.50508 0.0718,-0.52417 0.405488,-1.26066 0.741543,-1.63661 z m -46.61783,1.63661 c -0.129592,-0.20982 -0.697248,-0.36092 -1.261472,-0.33613 l -1.025863,0.045 1.143669,0.29101 c 0.629018,0.16008 1.196681,0.31131 1.261472,0.33613 0.0648,0.0238 0.01191,-0.12647 -0.117819,-0.33613 z m 23.031472,-5.06315 c 0.824489,-1.09421 1.626039,-2.50412 1.78122,-3.13314 l 0.28215,-1.14366 -1.491971,1.3394 c -0.820582,0.73668 -2.713237,2.15019 -4.205902,3.14116 -3.582454,2.37839 -3.792527,2.65001 -2.993122,3.87006 l 0.634121,0.96779 2.247215,-1.52606 c 1.235969,-0.83934 2.9218,-2.42134 3.746289,-3.51555 z m 24.719313,3.69977 c -0.375195,-0.3752 -1.051034,0.20082 -1.051034,0.89572 0,0.58193 0.05014,0.5809 0.644449,-0.0132 0.354445,-0.35444 0.537409,-0.7515 0.406585,-0.88231 z m -47.801741,-0.11165 c 0.210423,-0.33253 0.141235,-0.6446 -0.190605,-0.85995 -0.854932,-0.55478 -2.036672,-0.20664 -2.157229,0.63572 -0.08985,0.62783 0.0948,0.77557 0.953055,0.76242 0.585488,-0.008 1.21314,-0.25109 1.394787,-0.53819 z m 3.440238,-2.68253 c -0.193437,-1.19335 -1.323133,-4.32588 -1.497258,-4.15176 -0.06818,0.0683 0.18423,1.23656 0.560888,2.59641 0.37666,1.35985 0.626898,3.07289 0.556085,3.80674 l -0.128746,1.33427 0.334679,-1.29831 c 0.18407,-0.71408 0.262519,-1.74339 0.17436,-2.28735 z m -3.389282,1.10773 c -0.129592,-0.20981 -0.697248,-0.36094 -1.261472,-0.33613 l -1.025863,0.045 1.143669,0.29102 c 0.629018,0.16007 1.196681,0.31131 1.261472,0.33613 0.0648,0.0238 0.01191,-0.12648 -0.117819,-0.33613 z m 2.023525,-0.32792 c 0.32412,-0.20558 0.409723,-0.67051 0.244581,-1.32845 -0.437555,-1.74336 -1.69628,-1.0569 -1.69628,0.92509 0,0.76761 0.610076,0.93713 1.451691,0.40336 z m -2.616781,-1.15695 c 0.28657,-0.53546 0.241961,-0.84246 -0.17235,-1.18631 -0.809942,-0.6722 -1.712345,-0.17489 -1.712345,0.94372 0,1.18184 1.292952,1.34826 1.88469,0.24262 z m 1.132458,-0.99308 c 0.01164,-0.20955 -0.145335,-0.12383 -0.348591,0.1905 -0.203252,0.31451 -0.360116,0.82917 -0.348588,1.14368 0.02222,0.60378 0.657481,-0.61216 0.697179,-1.33429 z m -3.519175,0.11906 c -0.121682,-0.30411 -0.212037,-0.21378 -0.23032,0.23019 -0.01667,0.40187 0.07355,0.62703 0.200236,0.50035 0.126683,-0.12674 0.14023,-0.45548 0.03008,-0.73067 z m 8.329407,-0.8682 c 0.744024,-1.26958 1.04523,-2.4079 1.185298,-4.47937 0.168778,-2.49595 0.08988,-2.93169 -0.778933,-4.30212 -0.88357,-1.39375 -0.967763,-1.44294 -0.97881,-0.57185 -0.01561,1.23412 -1.424942,4.95147 -2.207433,5.82266 -0.423992,0.47204 -0.486529,0.79692 -0.207195,1.07627 0.423576,0.42357 1.391858,-0.89064 2.555075,-3.46792 l 0.602207,-1.33429 -0.103823,2.4865 c -0.06437,1.54178 -0.395991,3.07705 -0.872823,4.04082 -0.663638,1.3413 -0.813323,2.43141 -0.333872,2.43141 0.07853,0 0.591653,-0.76594 1.140288,-1.70211 z m 16.03898,-2.57652 c 1.301498,-2.03038 2.413218,-6.45381 2.744184,-10.918815 l 0.285734,-3.854766 -2.29738,2.525552 c -1.774666,1.950931 -2.530398,3.171529 -3.3215,5.364659 -0.563263,1.56152 -0.939297,3.06015 -0.835628,3.33031 0.103667,0.27014 -0.537313,1.11244 -1.424407,1.87177 -0.887089,0.7593 -1.540356,1.43851 -1.451707,1.50932 0.67375,0.53818 2.094117,1.40083 2.306511,1.40083 0.622559,0 3.356256,-5.69277 3.376857,-7.03209 0.003,-0.19844 -0.594879,0.22119 -1.328732,0.93252 -0.733853,0.71128 -1.331392,1.13094 -1.327862,0.93255 0.0034,-0.19844 0.689726,-1.03417 1.524889,-1.85729 0.83516,-0.82312 1.518474,-1.63798 1.518474,-1.81081 0,-0.17277 0.153316,-0.31422 0.340699,-0.31422 0.830729,0 -1.055407,5.81893 -2.693813,8.31069 -0.592839,0.90162 -1.077888,2.09325 -1.077888,2.64803 v 1.00875 l 1.375847,-1.31376 c 0.756715,-0.72258 1.785288,-1.95252 2.285722,-2.73323 z m 18.407696,1.29678 c 2.97477,-2.97476 5.415185,-6.53603 6.541125,-9.54537 0.985109,-2.632946 1.436019,-7.796472 0.752728,-8.619776 -0.518581,-0.624866 -1.745405,-0.784436 -2.064259,-0.268525 -0.106788,0.172772 0.177948,0.301439 0.632742,0.285908 1.090559,-0.03731 1.313971,1.134904 0.40758,2.138362 -0.385306,0.426587 -1.657033,1.446979 -2.826067,2.267557 -1.16903,0.820579 -2.392426,2.051684 -2.718657,2.735791 -0.326231,0.684133 -1.644857,2.567303 -2.930274,4.184883 -1.285421,1.61756 -2.222592,2.94103 -2.082607,2.94103 0.139988,0 0.816807,-0.42889 1.504044,-0.95305 0.687238,-0.5242 1.431056,-0.95306 1.652935,-0.95306 0.221879,0 1.540661,-1.11509 2.930629,-2.47795 1.389964,-1.36287 2.5851,-2.477958 2.655855,-2.477958 0.07075,0 -0.373656,1.119528 -0.987576,2.487848 -1.371036,3.05578 -2.9162,5.33651 -5.151619,7.60404 -1.577476,1.60012 -2.243479,3.25091 -1.311577,3.25091 0.216905,0 1.564651,-1.17028 2.994998,-2.60064 z m -39.224277,1.07582 c 0,-0.20981 0.253656,-0.38121 0.563661,-0.38121 0.452074,0 0.483467,-0.17595 0.158564,-0.88908 -0.393522,-0.8637 -0.441928,-0.87185 -1.694914,-0.28593 -1.53389,0.71731 -1.580631,0.86246 -0.456899,1.41901 1.14106,0.56512 1.429583,0.59282 1.429583,0.13732 z m -2.742182,-0.96313 c -0.117369,-0.11748 -0.330539,0.0942 -0.4737,0.47016 -0.206877,0.54332 -0.163089,0.58711 0.213413,0.21352 0.260535,-0.2585 0.377666,-0.56621 0.260297,-0.68358 z m 6.558536,-0.65707 c 0.228097,-0.89109 0.486659,-1.83462 0.574564,-2.09672 0.286972,-0.85563 -0.119221,-0.50252 -0.928822,0.80743 -0.827791,1.3394 -1.058225,2.90949 -0.427006,2.90949 0.201586,0 0.553156,-0.72908 0.781264,-1.6202 z m 33.738047,-0.85775 c 1.356084,-1.3317 4.761293,-6.48295 4.761293,-7.20267 0,-0.15055 -0.385988,0.15134 -0.857751,0.67082 -0.869016,0.95692 -5.488646,4.19973 -6.429698,4.51342 -0.410081,0.13679 -0.369233,0.48824 0.204587,1.76075 0.740581,1.64232 0.894218,1.65939 2.321568,0.2577 z m -37.905378,-0.0952 c 0.429463,-0.56756 0.42505,-0.596 -0.02958,-0.1905 -0.293915,0.2622 -0.828886,0.47654 -1.18882,0.47654 -0.359939,0 -0.74096,-0.21458 -0.846714,-0.47654 -0.114882,-0.28467 -0.204391,-0.20796 -0.222382,0.1905 -0.02064,0.45675 0.255746,0.66714 0.876281,0.66714 0.498509,0 1.133546,-0.30022 1.411197,-0.66714 z m -0.487712,-0.55277 c 0.668044,-0.66805 0.560845,-1.62213 -0.297235,-2.64538 -0.644091,-0.76809 -0.810847,-0.81619 -1.137827,-0.32816 -0.210714,0.31451 -0.368657,0.91495 -0.350967,1.33429 0.02649,0.62812 0.08594,0.59454 0.337386,-0.1905 0.259292,-0.80965 0.310938,-0.70924 0.34322,0.66712 0.03916,1.66918 0.311997,1.95617 1.105423,1.16274 z m 17.729247,-4.49842 c 1.452679,-3.77795 1.713728,-4.847505 2.140091,-8.768126 0.393689,-3.620213 0.664029,-6.480781 0.612469,-6.480781 -0.01506,0 -1.009901,0.914427 -2.210786,2.032026 -1.936919,1.802605 -2.183898,2.20075 -2.187557,3.526312 -0.0023,0.821849 -0.259903,2.337434 -0.572516,3.367959 -0.312618,1.030499 -0.494694,1.947359 -0.404619,2.037423 0.199155,0.199227 1.755789,-2.237474 2.679103,-4.193644 0.788181,-1.66989 1.419943,-1.555246 1.11344,0.201877 -0.424541,2.434007 -1.723198,6.959594 -2.213332,7.713074 -0.275678,0.42379 -0.570248,1.49421 -0.654597,2.37874 -0.205552,2.1554 0.434746,1.47111 1.698304,-1.81499 z m 19.804354,-0.79044 c 2.374619,-3.06385 5.367402,-8.799534 5.981822,-11.464178 0.607722,-2.635593 0.499592,-8.560617 -0.180218,-9.875225 -1.119193,-2.164264 -3.139035,-1.072753 -2.667368,1.441449 0.33506,1.786043 0.594295,2.221679 0.965061,1.621763 0.159126,-0.257439 0.01613,-0.944165 -0.31781,-1.525983 -0.508902,-0.886725 -0.525031,-1.156785 -0.09968,-1.669309 0.681812,-0.821531 1.455381,-0.772107 1.735637,0.110861 0.414126,1.304792 -0.931631,3.735518 -3.258815,5.886156 -1.240898,1.146756 -2.256181,2.342038 -2.256181,2.656177 0,0.314166 -0.696581,2.086107 -1.547958,3.93766 -1.438425,3.128273 -1.519351,3.480089 -1.143667,4.972048 0.222358,0.883071 0.408106,2.172941 0.412768,2.866361 l 0.0085,1.26077 0.780816,-0.95306 c 1.615018,-1.97125 4.605369,-9.591616 4.001059,-10.195925 -0.08262,-0.08255 -0.690863,0.933926 -1.351643,2.258985 -1.192106,2.390563 -3.447174,5.42546 -3.447174,4.639256 0,-0.225425 0.536037,-1.07659 1.191191,-1.891691 0.655154,-0.815102 1.794818,-2.811514 2.53259,-4.436479 0.737772,-1.624964 1.454379,-2.954495 1.592462,-2.954495 0.282055,0 -0.112415,4.150888 -0.561545,5.908964 -0.548377,2.146564 -2.509812,5.884415 -3.64491,6.945975 -1.508123,1.41044 -2.340057,2.70787 -2.043752,3.1873 0.429222,0.6945 1.083388,0.1569 3.318854,-2.72743 z m 9.883992,1.38446 c 0.11485,-0.9838 0.03938,-1.22402 -0.296888,-0.94493 -0.488811,0.40566 -0.925486,2.121 -0.618183,2.42831 0.393723,0.39373 0.766471,-0.2106 0.915071,-1.48338 z m -53.053884,0.47807 c 1.70572,-0.39565 1.720053,-0.41238 1.583314,-1.8462 -0.112184,-1.17626 0.0172,-1.52993 0.691131,-1.89066 0.456011,-0.24395 1.115921,-0.33457 1.466462,-0.20109 0.4953,0.18839 0.535874,0.14023 0.182033,-0.21616 -0.354882,-0.35764 -0.706476,-0.35481 -1.593888,0.0132 -0.626216,0.25929 -1.793726,0.43172 -2.594463,0.38296 -2.152094,-0.13097 -2.28547,-0.0825 -3.162667,1.14935 l -0.805637,1.13141 1.256302,-0.52491 c 1.235167,-0.5161 3.182534,-0.41577 3.552593,0.18309 0.103664,0.16775 -0.392774,0.49681 -1.103204,0.73128 -0.710432,0.23442 -1.612647,0.79203 -2.004929,1.23905 -0.699807,0.79742 -0.698881,0.80742 0.04921,0.53072 0.419346,-0.15504 1.537033,-0.46167 2.483746,-0.6813 z m 5.521925,-0.30964 c -0.379502,-0.41936 -0.877852,-0.75864 -1.107447,-0.75398 -0.229579,0.005 0.01138,0.34396 0.535614,0.75398 1.227941,0.96049 1.441082,0.96049 0.571833,0 z m 33.744024,-0.14208 c 0.003,0.18283 0.172133,0.0751 0.375386,-0.23918 0.552784,-0.85537 0.456296,-4.03826 -0.167693,-5.53167 -0.309305,-0.740257 -1.286325,-1.833488 -2.238252,-2.504471 -1.634511,-1.152102 -1.695525,-1.267777 -1.879839,-3.563936 -0.324039,-4.036826 -1.944612,-6.328725 -4.526898,-6.402147 -1.225493,-0.03493 -1.861548,-0.813726 -1.861548,-2.279596 0,-2.098436 -3.542017,-5.18083 -4.951995,-4.309426 -0.215725,0.13335 -0.690844,-0.319431 -1.055815,-1.00613 -0.999455,-1.880525 -4.416142,-5.381781 -6.266762,-6.421885 l -1.638839,-0.921093 0.61654,0.940964 c 0.339098,0.517524 0.734541,1.4782 0.878758,2.134816 0.144224,0.656616 0.616447,1.511855 1.0494,1.900527 0.96176,0.863388 3.744264,4.901405 3.744264,5.433746 0,0.211667 0.643313,0.494691 1.429584,0.628914 2.59993,0.443839 3.927171,1.083627 4.677886,2.254911 0.459823,0.717444 0.744131,0.924824 0.748111,0.545729 0.0075,-0.713475 -1.416603,-2.343546 -2.601355,-2.977593 -0.45277,-0.242358 -0.823223,-0.618357 -0.823223,-0.835633 0,-0.217223 0.258339,-0.13679 0.57409,0.179123 0.315751,0.315753 0.918056,0.683286 1.338461,0.816715 1.105339,0.350811 1.905624,2.152014 1.731924,3.898052 -0.181938,1.828799 0.03614,2.165587 1.502028,2.319627 1.56517,0.164571 2.76724,1.01473 3.721707,2.632418 0.707179,1.198589 0.837797,1.275344 1.08746,0.639074 0.256151,-0.652779 0.286355,-0.639682 0.31054,0.134673 0.01476,0.471752 -0.187643,0.860372 -0.449732,0.863573 -0.317685,0.0026 -0.285917,0.129117 0.0953,0.375391 0.381223,0.246327 0.41299,0.371501 0.09531,0.375391 -0.279673,0.0026 -0.476528,0.504534 -0.476528,1.213034 0,0.663972 0.106198,1.101011 0.235995,0.971206 0.129794,-0.12991 0.469834,-0.0023 0.755636,0.28366 0.285803,0.285803 0.737143,0.597243 1.002977,0.692097 0.265835,0.09472 0.345346,0.319642 0.176694,0.499533 -0.168656,0.179916 -0.425982,0.140758 -0.571833,-0.08705 -0.145857,-0.227806 -0.651178,-0.534564 -1.122941,-0.681778 -1.571658,-0.490485 -0.943426,0.692599 0.882012,1.661 2.154772,1.143106 2.944856,2.567304 2.773279,4.999114 -0.100841,1.42931 -0.025,1.74173 0.347545,1.43203 0.262091,-0.21801 0.479155,-0.24659 0.482365,-0.0635 z m -0.387059,-1.00168 c 0,-0.20955 0.181676,-0.38122 0.403722,-0.38122 0.222046,0 0.297697,0.17145 0.168111,0.38122 -0.129585,0.20981 -0.31126,0.38123 -0.403722,0.38123 -0.09246,0 -0.168111,-0.17145 -0.168111,-0.38123 z m 0,-1.52488 c 0,-0.20981 0.17155,-0.38123 0.381222,-0.38123 0.209672,0 0.381223,0.17145 0.381223,0.38123 0,0.20955 -0.171551,0.38121 -0.381223,0.38121 -0.209671,0 -0.381222,-0.17145 -0.381222,-0.38121 z m -0.528981,-2.08483 c -0.347747,-0.53071 -0.498025,-0.964944 -0.333954,-0.964944 0.371166,0 1.357743,1.538394 1.131601,1.764534 -0.09096,0.091 -0.449903,-0.26885 -0.797647,-0.79957 z m -1.322525,-1.685583 c -0.318039,-0.201613 -0.370125,-0.41865 -0.135255,-0.563801 0.210087,-0.12991 0.480344,0.02117 0.60057,0.33356 0.252608,0.658283 0.228817,0.670057 -0.465316,0.230188 z m -3.485608,-8.370381 c 0,-0.370046 -1.360507,-2.010277 -1.677894,-2.022898 -0.733556,-0.0291 -1.753108,-0.464396 -1.753108,-0.748453 0,-0.45966 0.248306,-0.425582 1.448515,0.198702 0.946252,0.492231 2.744932,2.266552 2.744932,2.707771 0,0.103188 -0.171551,0.18759 -0.381223,0.18759 -0.209672,0 -0.381222,-0.145256 -0.381222,-0.322898 z M 54.39312,37.067304 c -0.410298,-0.663893 0.057,-0.804492 0.579863,-0.174361 0.300689,0.362294 0.329612,0.581051 0.07682,0.581051 -0.22297,0 -0.518478,-0.183091 -0.656686,-0.406585 z m -6.094173,-5.676322 c 0.123923,-0.200554 0.47715,-0.267917 0.784946,-0.149754 0.788028,0.302392 0.695166,0.514376 -0.225322,0.514376 -0.43172,0 -0.683548,-0.164042 -0.559624,-0.364569 z m -0.912669,-0.271383 c -0.01654,-0.245004 -0.128826,-0.759592 -0.249494,-1.143661 -0.208547,-0.663787 -0.197789,-0.664633 0.217593,-0.01587 0.240342,0.374835 0.352616,0.889476 0.249492,1.143687 -0.135327,0.33356 -0.195869,0.338243 -0.217591,0.01587 z m -2.52372,-3.964065 c -0.391157,-0.63291 -0.04006,-0.720672 0.507236,-0.126736 0.270355,0.29337 0.323368,0.5334 0.117801,0.5334 -0.205563,0 -0.486827,-0.182827 -0.625037,-0.406585 z M 43.759077,25.38653 c -0.206878,-0.543321 -0.16309,-0.58711 0.213412,-0.213518 0.260535,0.258497 0.377666,0.566208 0.260297,0.683577 -0.117369,0.117475 -0.330538,-0.09419 -0.473699,-0.470165 z m 36.001012,29.219907 c 0,-0.19738 -0.171551,-0.35872 -0.381223,-0.35872 -0.209671,0 -0.381222,0.26744 -0.381222,0.59433 0,0.32687 0.17155,0.48832 0.381222,0.35873 0.209672,-0.12965 0.381223,-0.39704 0.381223,-0.59434 z m -50.397607,-0.43497 c 0.671748,-0.67175 0.558069,-1.02235 -0.261964,-0.80791 -0.790836,0.20691 -1.430339,-0.44516 -0.811688,-0.82751 0.213096,-0.13176 0.38744,-0.0238 0.38744,0.24051 0,0.35245 0.112738,0.36724 0.424251,0.0558 0.233336,-0.23337 0.308702,-0.61122 0.167481,-0.83971 -0.422703,-0.68395 -1.735393,0.26299 -1.735393,1.25195 0,1.39422 0.904443,1.85238 1.829868,0.92694 z m 19.101703,-3.49023 c 1.001666,-3.279954 1.032934,-4.251504 0.08766,-2.723695 -0.389179,0.62902 -1.309351,1.74408 -2.044824,2.477955 l -1.337226,1.33427 0.997888,1.02295 c 0.548839,0.56261 1.110501,0.90573 1.248142,0.76243 0.137641,-0.14314 0.609403,-1.43653 1.048361,-2.87391 z M 33.803847,50.076298 c 0.645067,-0.713739 0.683712,-0.981101 0.291896,-2.01914 -0.370546,-0.981683 -0.350038,-1.308708 0.114247,-1.821735 0.727887,-0.804306 0.715447,-1.516273 -0.04551,-2.602679 -0.359896,-0.51382 -0.543131,-1.337626 -0.445486,-2.002921 0.09123,-0.621532 0.06564,-0.996023 -0.05686,-0.832167 -0.122476,0.163777 -0.822656,0.976603 -1.555927,1.806177 -0.733274,0.829548 -1.033009,1.280318 -0.666083,1.001686 0.366927,-0.278633 0.667139,-0.334433 0.667139,-0.12409 0,0.210344 -0.600424,0.840608 -1.334277,1.40036 -0.733854,0.559726 -1.33428,1.201525 -1.33428,1.426209 0,0.276463 0.170418,0.267044 0.527317,-0.0291 0.409286,-0.339672 0.582167,-0.294693 0.772392,0.201083 0.217699,0.567346 0.350234,0.539882 1.186685,-0.245797 0.517879,-0.486543 1.069511,-0.756682 1.225848,-0.600366 0.156343,0.156368 3.81e-4,0.442991 -0.346135,0.637037 -0.579792,0.324458 -0.66031,1.109186 -0.269074,2.622469 0.07885,0.304985 -0.07109,0.58375 -0.333171,0.619495 -0.262096,0.03572 -0.562302,0.10795 -0.667138,0.160338 -0.104828,0.05239 -0.353584,0.116681 -0.552773,0.142875 -0.897527,0.118004 -1.187161,0.886935 -0.533871,1.417155 0.363641,0.29514 0.539666,0.33404 0.39116,0.0865 -0.300453,-0.50094 0.306078,-0.99211 1.443476,-1.1689 0.635849,-0.09896 0.578694,0.0664 -0.381222,1.1023 l -1.129214,1.21862 1.143666,-0.78629 c 0.629017,-0.43246 1.478247,-1.15652 1.887177,-1.608976 z m -0.722582,-1.09765 c -0.156263,-0.696436 -0.190341,-1.359984 -0.07575,-1.474575 0.286832,-0.286835 0.741291,1.638961 0.530476,2.247926 -0.09385,0.271065 -0.298471,-0.07699 -0.454718,-0.773351 z m -2.233468,-2.869775 c -0.282194,-0.735383 0.687961,-1.626843 1.080044,-0.992425 0.148326,0.239977 0.01561,0.690483 -0.295153,1.00113 -0.498933,0.498924 -0.590484,0.497919 -0.784891,-0.0079 z m 1.670806,-3.138989 c 0.01826,-0.444103 0.108637,-0.534432 0.230319,-0.230452 0.11012,0.275193 0.09657,0.603991 -0.03008,0.730673 -0.126682,0.126736 -0.216773,-0.09843 -0.200236,-0.500353 z m 13.259606,5.644036 c 1.856092,-5.88105 0.313682,-13.377354 -3.437746,-16.707874 -0.813445,-0.72218 -0.813487,-0.722154 -0.298031,0.230716 0.791334,1.462934 0.716374,8.247747 -0.107897,9.765952 -0.556205,1.02444 -0.572344,1.287489 -0.116973,1.906111 0.514575,0.699055 0.534887,0.697891 0.783386,-0.04471 0.140309,-0.419338 0.495662,-1.409223 0.789673,-2.199745 0.294007,-0.790495 0.534558,-1.852559 0.534558,-2.360135 0,-1.509633 0.616982,-1.431739 1.087063,0.137319 0.593308,1.980273 0.538294,3.211167 -0.276898,6.195348 -0.468781,1.716087 -0.576104,2.743172 -0.332174,3.179047 0.198199,0.354144 0.281289,1.057512 0.184653,1.563008 -0.362577,1.89669 0.405256,0.82277 1.190381,-1.664926 z M 27.639673,48.410191 c -0.05879,-1.547044 0.04339,-2.120131 0.344818,-1.933838 0.289192,0.178858 0.319823,0.09075 0.09427,-0.270696 -0.560962,-0.899 -0.529172,-1.563528 0.0639,-1.33596 0.428855,0.164571 0.469272,0.05847 0.182033,-0.478366 -0.59227,-1.106672 -1.447239,-1.648062 -2.391293,-1.514236 -0.66894,0.09499 -0.906136,0.405368 -0.99351,1.300717 -0.140097,1.435708 0.879806,2.552937 1.514072,1.658514 0.312981,-0.441351 0.346578,-0.418148 0.173514,0.119856 -0.11803,0.366924 -0.04845,0.667147 0.154649,0.667147 0.203094,0 0.369258,0.18997 0.369258,0.421983 0,0.23204 -0.255588,0.323956 -0.567949,0.203994 -0.383413,-0.147108 -0.646864,0.09657 -0.810826,0.749776 -0.325043,1.295082 0.433541,2.909705 1.287663,2.740765 0.550153,-0.10874 0.648729,-0.5052 0.579392,-2.329709 z m -0.979964,1.262882 c -0.109669,-0.419337 -0.04389,-0.762449 0.146156,-0.762449 0.19005,0 0.345533,0.343112 0.345533,0.762449 0,0.419338 -0.06578,0.762454 -0.146156,0.762454 -0.08038,0 -0.235876,-0.343116 -0.345533,-0.762454 z m -0.270764,-1.524898 c 0,-0.20955 0.171556,-0.381212 0.381225,-0.381212 0.209682,0 0.381222,0.17145 0.381222,0.381212 0,0.209814 -0.171556,0.381237 -0.381222,0.381237 -0.209682,0 -0.381225,-0.171449 -0.381225,-0.381237 z m -0.381222,-4.574671 c 0,-0.20955 0.171556,-0.381211 0.381222,-0.381211 0.209683,0 0.381225,0.17145 0.381225,0.381211 0,0.209815 -0.171556,0.381238 -0.381225,0.381238 -0.209682,0 -0.381222,-0.17145 -0.381222,-0.381238 z m 4.384059,5.028695 1.143666,-1.397052 -1.212889,0.948055 c -0.667091,0.521414 -1.305017,1.162472 -1.417618,1.424569 -0.386535,0.899686 0.344188,0.420237 1.486841,-0.975572 z m -1.081804,-1.311777 c -0.105754,-0.262202 -0.192273,-0.04762 -0.192273,0.476541 0,0.524166 0.08652,0.738611 0.192273,0.476514 0.105754,-0.262202 0.105754,-0.690959 0,-0.953055 z m 37.530471,-3.372616 c 1.795203,-4.406104 2.352504,-7.54205 2.347285,-13.208232 -0.0031,-3.156292 -0.164535,-5.241499 -0.431178,-5.562783 -0.23459,-0.28268 -0.341464,-0.599016 -0.237505,-0.702971 0.360628,-0.360627 -0.660663,-2.618024 -1.351785,-2.987885 -1.179349,-0.631163 -1.893631,-0.05583 -1.893631,1.525666 0,0.790601 0.230219,1.628483 0.511605,1.862031 0.768986,0.638201 1.105022,0.02117 0.407923,-0.749511 -0.75508,-0.834364 -0.377281,-2.347647 0.542628,-2.173552 0.395453,0.07488 0.677859,0.562742 0.749461,1.294738 0.0866,0.885402 -0.346375,1.870233 -1.758454,3.999731 -1.471682,2.219351 -1.923869,3.274641 -2.108976,4.921804 -0.129595,1.153186 -0.594158,3.383331 -1.032358,4.955882 -1.186204,4.256853 -1.245229,4.57467 -0.849611,4.57467 0.470058,0 2.16391,-3.418892 3.013315,-6.082107 0.364743,-1.143608 0.729603,-1.879996 0.810804,-1.636394 0.217548,0.652647 -1.417774,4.973185 -2.648826,6.998226 -1.433312,2.357754 -1.447044,4.237644 -0.03564,4.880714 0.873865,0.398171 1.102499,0.375364 1.485239,-0.148167 0.73261,-1.001897 1.366785,-5.193504 1.484358,-9.810957 0.142563,-5.599031 0.21608,-6.135844 0.589385,-4.303817 0.424499,2.083302 -0.342688,10.572772 -1.186966,13.134626 -0.669675,2.032025 -0.630398,3.113906 0.087,2.396488 0.195826,-0.195791 0.873495,-1.626049 1.505932,-3.178305 z M 44.515832,42.55478 44.72054,39.570678 43.756055,42.369016 c -0.76487,2.219138 -0.877101,2.961612 -0.542263,3.587245 0.368207,0.687996 0.465415,0.711782 0.759769,0.185738 0.185658,-0.331735 0.429667,-1.94601 0.542261,-3.587272 z m 32.073672,1.709683 c -0.121695,-0.304112 -0.212029,-0.213783 -0.23032,0.230452 -0.01654,0.401849 0.07355,0.62701 0.200226,0.500354 0.126677,-0.126736 0.140218,-0.455507 0.03008,-0.7307 z m 0.754504,-1.167473 c -0.105754,-0.262202 -0.192286,-0.04763 -0.192286,0.476514 0,0.524193 0.08653,0.738637 0.192286,0.476541 0.105754,-0.262202 0.105754,-0.690985 0,-0.953055 z m -14.96048,-7.628569 c 1.052284,-5.094444 0.816345,-11.741727 -0.608771,-17.151634 -0.761259,-2.889804 -2.540642,-6.003525 -3.430803,-6.003525 -0.554306,0 -1.838434,1.135908 -1.838434,1.626208 0,0.200289 0.33265,-0.04048 0.73922,-0.535596 l 0.739221,-0.900006 0.861914,0.849285 c 1.227086,1.209093 1.097657,2.96529 -0.446572,6.059459 -1.286584,2.57794 -1.309209,2.707982 -1.351636,7.768322 -0.02955,3.524301 -0.230192,5.717299 -0.636561,6.957321 -0.443796,1.354243 -0.476196,1.810808 -0.128506,1.810808 0.73674,0 2.891478,-8.084526 2.891478,-10.848759 0,-1.428458 0.579675,-1.178163 1.066374,0.460454 0.728329,2.452131 0.933229,6.264431 0.501597,9.332644 -0.312377,2.220515 -0.303217,3.191641 0.03713,3.938665 0.429283,0.942181 0.465991,0.952976 0.738199,0.217223 0.157549,-0.4259 0.54731,-2.037238 0.866133,-3.580763 z m -2.304048,0.43299 c 0.373015,-1.865073 0.267755,-8.847372 -0.142957,-9.4829 -0.288227,-0.446008 -0.37083,-0.342345 -0.375386,0.471037 -0.0072,1.295294 -0.63753,4.023914 -1.560412,6.755418 -0.38651,1.143979 -0.666613,2.101505 -0.622449,2.127831 0.04416,0.02646 0.504461,0.33409 1.022877,0.683895 1.276367,0.861271 1.403425,0.819229 1.678327,-0.555281 z m -3.818347,-4.466773 c 0.270455,-1.699656 0.434674,-3.82381 0.364937,-4.72035 -0.413909,-5.321006 -2.522343,-13.191616 -4.652313,-17.3666871 -1.076019,-2.109178 -1.537059,-2.301953 -1.301284,-0.544141 0.122312,0.911886 -0.11172,2.4260691 -0.633416,4.0982081 -0.717911,2.301054 -0.788803,3.106022 -0.535717,6.083007 0.313125,3.68321 0.287613,7.231059 -0.06669,9.274144 -0.200522,1.156308 -0.142417,1.257432 0.657171,1.143661 1.105308,-0.157162 1.37863,-1.791175 1.535278,-9.17773 0.06113,-2.88237 0.233193,-5.241182 0.382366,-5.241791 0.149172,-6.35e-4 0.44011,0.64217 0.64653,1.428459 0.20642,0.786262 0.734341,2.801989 1.173159,4.479367 0.583495,2.23041 0.788517,4.125196 0.763112,7.052598 -0.02043,2.354685 0.165928,4.582132 0.452614,5.409774 0.268045,0.7738 0.540268,1.354031 0.604939,1.289341 0.06467,-0.06456 0.338861,-1.508204 0.609315,-3.20786 z m 17.399397,1.251531 c 0,-0.553296 -0.165009,-0.873574 -0.381223,-0.739933 -0.209672,0.129646 -0.381222,0.568563 -0.381222,0.975545 0,0.406982 0.17155,0.739933 0.381222,0.739933 0.209673,0 0.381223,-0.438996 0.381223,-0.975545 z M 54.061739,26.227878 C 53.934705,24.5505 53.516796,21.899059 53.133054,20.335769 l -0.697713,-2.842338 -0.265701,4.748448 c -0.146129,2.611648 -0.357201,5.348868 -0.469037,6.082742 -0.178051,1.168294 -0.06968,1.408191 0.871204,1.928653 1.013865,0.560784 1.092793,0.550042 1.397726,-0.190765 0.177749,-0.43172 0.219241,-2.157385 0.09221,-3.834763 z m -5.225508,-7.243203 c -0.653694,-4.857166 -1.412639,-6.620772 -3.955713,-9.1920711 -1.971907,-1.99382 -5.337747,-4.281724 -5.724756,-3.891411 -0.06649,0.06694 0.555419,1.516036 1.381985,3.219978 1.77035,3.6495291 2.634899,8.4973021 1.977381,11.0877301 -0.368829,1.453065 -0.333965,1.56628 0.663628,2.155586 l 1.052903,0.621956 0.256593,-2.210699 c 0.141102,-1.215865 0.06152,-3.635294 -0.176874,-5.376489 -0.238389,-1.74117 -0.349012,-3.25022 -0.245798,-3.353434 0.324538,-0.324538 1.650544,2.642049 2.334724,5.223349 0.361235,1.362868 0.698411,3.894242 0.749282,5.625251 0.0673,2.290285 0.263741,3.336553 0.721387,3.842251 0.345894,0.38219 0.65417,0.938741 0.685053,1.236741 0.03088,0.298 0.187378,-1.002135 0.347763,-2.889196 0.161467,-1.89976 0.131328,-4.621951 -0.06753,-6.099542 z m -2.369145,2.763862 c -0.131945,-1.729818 -0.489051,-3.917075 -0.793568,-4.860605 l -0.553669,-1.715505 -0.02551,2.861706 c -0.01402,1.573926 -0.183753,3.413467 -0.377171,4.087864 -0.312499,1.089633 -0.238204,1.310904 0.667141,1.986834 0.560343,0.418333 1.087174,0.766048 1.170738,0.772689 0.08356,0.0079 0.04397,-1.40319 -0.08797,-3.132983 z m 20.712662,1.238964 c 0,-0.419338 -0.17155,-0.762449 -0.381222,-0.762449 -0.209672,0 -0.381223,0.343111 -0.381223,0.762449 0,0.419338 0.171551,0.76245 0.381223,0.76245 0.209671,0 0.381222,-0.343112 0.381222,-0.76245 z M 58.22102,15.912837 c -0.903298,-0.767159 -0.956528,-0.880453 -0.253264,-0.539062 1.152672,0.559594 1.440811,0.235215 0.881554,-0.992107 -0.508318,-1.115642 -1.177501,-1.074446 -1.611671,0.09922 -0.354819,0.959167 0.537577,2.407893 1.481526,2.405141 0.477039,-0.0014 0.347019,-0.255323 -0.498144,-0.973216 z M 49.54821,9.2329579 c -0.779028,-0.453734 -0.871079,-1.51765 -0.190611,-2.203158 0.38208,-0.38489 0.344301,-0.42971 -0.190611,-0.225954 -1.163915,0.443123 -0.608992,2.86578 0.648078,2.829373 0.220157,-0.0053 0.100071,-0.186531 -0.266856,-0.400156 z m 0.476528,-0.922523 c 0,-0.31451 -0.166166,-0.571843 -0.369256,-0.571843 -0.203091,0 -0.270515,0.257439 -0.149828,0.571843 0.120692,0.31451 0.286855,0.571844 0.36926,0.571844 0.0824,0 0.149825,-0.25744 0.149824,-0.571844 z"
     style="fill:#000000;stroke-width:0.38122246" />
</svg>
