<?xml version="1.0" encoding="UTF-8" standalone="no"?>
<svg
   xmlns:dc="http://purl.org/dc/elements/1.1/"
   xmlns:cc="http://creativecommons.org/ns#"
   xmlns:rdf="http://www.w3.org/1999/02/22-rdf-syntax-ns#"
   xmlns:svg="http://www.w3.org/2000/svg"
   xmlns="http://www.w3.org/2000/svg"
   id="svgMR4"
   version="1.1"
   viewBox="0 0 100 100"
   height="100"
   width="100">
  <defs
     id="defs2" />
  <metadata
     id="metadata5">
    <rdf:RDF>
      <cc:Work
         rdf:about="">
        <dc:format>image/svg+xml</dc:format>
        <dc:type
           rdf:resource="http://purl.org/dc/dcmitype/StillImage" />
        <dc:title></dc:title>
      </cc:Work>
    </rdf:RDF>
  </metadata>
  <path
     id="pathMR4"
     d="m 13.120036,93.638053 c -0.651268,-0.44072 -0.483096,-0.49914 0.668876,-0.23234 1.110687,0.25725 1.693636,0.0799 2.095033,-0.63737 0.305888,-0.54659 0.918393,-0.86481 1.361133,-0.70716 1.296172,0.4615 2.834988,-0.65096 2.834988,-2.04953 0,-0.76276 0.515164,-1.5266 1.257562,-1.864593 0.691664,-0.314895 1.539918,-1.09454 1.885008,-1.732543 0.345096,-0.638003 0.9432,-1.362849 1.329128,-1.610777 0.385922,-0.247922 0.868328,-1.339099 1.072013,-2.424834 0.203685,-1.085736 0.768005,-2.126661 1.254047,-2.313172 0.629384,-0.241519 0.787086,-0.822189 0.54798,-2.017725 -0.234106,-1.170544 -0.07997,-1.776756 0.509289,-2.00287 0.958825,-0.367937 1.161107,-3.576865 0.26056,-4.133435 -0.362327,-0.223933 -0.252115,-0.69355 0.290002,-1.235666 1.004837,-1.004837 1.139322,-2.299444 0.293191,-2.82238 -0.329784,-0.203819 -0.428216,-1.316304 -0.227518,-2.571395 0.224676,-1.40505 0.109052,-2.363382 -0.316907,-2.62664 -0.506035,-0.312749 -0.502938,-0.616566 0.01259,-1.23776 0.396281,-0.477493 0.547029,-1.662751 0.358911,-2.821968 -0.236496,-1.45736 -0.02123,-2.384065 0.794917,-3.421586 0.615591,-0.782597 1.119254,-1.777899 1.119254,-2.211784 0,-0.433886 0.67206,-1.777912 1.493472,-2.986727 1.193842,-1.756894 1.354143,-2.365732 0.798988,-3.034651 -0.950282,-1.145017 -2.499689,-1.050053 -3.652572,0.223867 -1.05898,1.170156 -1.28985,2.111718 -0.379896,1.549337 0.319002,-0.197154 0.580003,-0.05413 0.580003,0.317825 0,0.371958 -0.391502,0.526054 -0.870004,0.342435 -0.770725,-0.295755 -1.155499,0.521248 -0.958518,2.035267 0.02685,0.206535 -0.529473,0.239167 -1.236322,0.07252 -1.27495,-0.300591 -1.275947,-0.295159 -0.12517,0.682499 0.638003,0.542025 0.816295,0.809453 0.396211,0.594283 -0.51999,-0.266339 -0.705126,-0.04865 -0.580002,0.681992 0.116847,0.682299 -0.116047,1.008475 -0.639389,0.895484 -0.666215,-0.14384 -0.68619,-0.01264 -0.104755,0.687924 0.511609,0.61645 0.548201,1.183733 0.127114,1.970541 -0.325225,0.607686 -0.654446,2.174807 -0.731604,3.482498 -0.07716,1.307691 -0.332521,2.258814 -0.567469,2.113605 -0.234953,-0.14521 -0.517292,0.32711 -0.627423,1.049595 -0.115804,0.759717 -0.541525,1.238666 -1.009645,1.135883 -0.630556,-0.138458 -0.66067,0.0017 -0.136266,0.633369 0.370233,0.446097 0.479662,1.024673 0.243177,1.285715 -0.236478,0.261047 -0.09946,0.284247 0.304496,0.05156 0.403954,-0.232691 0.559378,-0.706362 0.345386,-1.052612 -0.238463,-0.385841 -0.11766,-0.461798 0.312058,-0.196215 0.529514,0.327261 0.465737,0.79258 -0.260548,1.901034 -0.528928,0.807242 -0.722283,1.319755 -0.429689,1.138922 0.30435,-0.188095 0.53152,1.504405 0.530893,3.955304 -5.8e-4,2.356249 -0.194898,4.16432 -0.431754,4.017933 -0.236861,-0.146387 -0.597222,0.0035 -0.800809,0.332765 -0.203587,0.329407 -0.599479,0.457193 -0.87976,0.283969 -0.280286,-0.173223 -0.407736,0.214021 -0.283226,0.860544 0.124509,0.646523 -0.06314,1.175497 -0.416987,1.175497 -0.353854,0 -0.451521,0.191853 -0.217032,0.426337 0.234484,0.234483 0.91942,-0.222269 1.522084,-1.015005 l 1.095775,-1.441341 -0.705573,2.070087 c -0.738645,2.167104 -3.885274,6.349654 -3.885274,5.16436 0,-0.37652 -0.922587,0.125455 -2.050193,1.115508 -1.431772,1.257109 -2.643936,1.80009 -4.018589,1.80009 -3.377366,0 -4.95796,-2.969492 -2.831363,-5.319354 0.834339,-0.921938 0.843631,-1.060674 0.07102,-1.060674 -1.202264,0 -2.392475,1.524652 -1.861234,2.384216 0.271737,0.439689 0.183542,0.542987 -0.240069,0.28118 -1.081194,-0.668216 -0.834554,4.04684 0.269435,5.150822 0.516475,0.51648 1.09617,0.78193 1.288209,0.5899 0.192033,-0.19204 -0.0348,-0.59197 -0.504052,-0.88874 -0.520923,-0.329442 -0.584184,-0.543045 -0.162435,-0.548468 1.076838,-0.01386 1.509567,1.117028 0.768921,2.009458 -1.064612,1.28278 0.293185,3.35208 1.910644,2.91186 1.145227,-0.3117 1.166101,-0.28089 0.212983,0.31428 -0.837611,0.52304 -1.288574,0.45002 -2.17501,-0.35219 -0.615069,-0.55663 -1.126608,-1.42836 -1.136752,-1.93717 -0.01015,-0.50881 -0.401646,-1.43175 -0.870004,-2.05097 -1.188646,-1.571528 -1.056185,-5.534494 0.241397,-7.222115 0.833997,-1.084686 1.399523,-1.304531 2.588284,-1.006171 1.517223,0.3808 1.518169,0.384721 0.369943,1.532946 -3.327497,3.327498 0.733826,6.12985 5.060459,3.491766 4.266168,-2.601212 7.009487,-13.069516 5.67772,-21.66574 -0.386212,-2.492914 -0.294009,-2.892437 0.852929,-3.695787 0.915487,-0.641228 1.207478,-1.31123 1.01356,-2.325666 -0.168485,-0.881354 0.03213,-1.541809 0.525912,-1.73129 1.155823,-0.443528 0.979374,-1.081745 -0.326263,-1.180096 -0.733982,-0.05527 -1.322424,0.45583 -1.694217,1.471582 -0.3133,0.855962 -0.586249,1.16479 -0.606549,0.686288 -0.05301,-1.249082 0.746498,-2.324145 2.306931,-3.102103 0.747066,-0.372454 1.523185,-1.327605 1.724707,-2.122558 0.201522,-0.794953 0.68072,-1.376392 1.064896,-1.292088 0.534774,0.117352 0.543161,-0.136961 0.03579,-1.084998 -0.364491,-0.681052 -0.405242,-1.079153 -0.09056,-0.884669 0.72933,0.45075 1.99703,-1.031948 1.423558,-1.664983 -0.236484,-0.261043 -0.121754,-0.298022 0.254958,-0.08217 1.050262,0.601785 1.447123,-0.559751 0.468688,-1.371779 -0.474987,-0.394206 -0.867614,-0.489029 -0.872498,-0.210719 -0.0046,0.278312 -0.261888,0.114519 -0.571123,-0.363983 -0.459866,-0.711593 -0.563855,-0.645318 -0.571122,0.363983 -0.0046,0.678694 -0.368847,1.532735 -0.808808,1.897871 -0.638455,0.529867 -0.85718,0.364405 -1.083532,-0.819664 -0.202803,-1.060897 0.0664,-1.736634 0.944935,-2.371912 0.793182,-0.573562 0.920232,-0.85018 0.358522,-0.780605 -2.023014,0.250573 -2.959706,-0.10611 -3.522518,-1.341343 -0.328693,-0.721414 -1.367106,-1.753279 -2.307574,-2.293034 -1.304316,-0.748574 -1.709941,-1.40053 -1.709941,-2.748356 0,-0.971841 -0.261001,-1.766984 -0.580002,-1.766984 -1.061521,0 -2.900013,-2.301591 -2.900013,-3.630498 0,-0.720769 -0.522002,-1.636485 -1.160005,-2.034924 -0.744938,-0.46522 -1.160005,-1.352582 -1.160005,-2.479934 0,-0.965525 -0.41005,-2.381317 -0.911225,-3.146206 -0.677576,-1.034114 -0.757895,-1.677209 -0.313236,-2.508064 0.328896,-0.614546 0.444154,-2.065346 0.256135,-3.223999 -0.188025,-1.158652 -0.07658,-2.435101 0.247655,-2.836553 0.324233,-0.401451 0.771172,-1.831484 0.993191,-3.177849 0.766166,-4.6461339 4.004146,-7.1348179 7.69719,-5.9160029 3.034632,1.00152 4.857522,6.3334309 2.760337,8.0739389 -0.73473,0.609772 -0.870004,0.491617 -0.870004,-0.759901 0,-2.09236 -2.052496,-2.665406 -3.688178,-1.029721 -0.936089,0.936089 -1.303092,2.190885 -1.528637,5.226469 -0.17341,2.333894 -0.07722,3.858928 0.231363,3.668214 0.290488,-0.179533 0.380887,0.236753 0.200883,0.925079 -0.198656,0.759678 -0.09869,1.110226 0.254395,0.89201 0.335352,-0.207258 0.478624,0.09942 0.338333,0.724203 -0.230731,1.027525 0.993411,4.273708 1.611619,4.273708 0.1595,0 -0.111912,-0.848254 -0.603145,-1.885008 -0.491227,-1.036755 -0.563183,-1.372514 -0.159895,-0.746131 2.774123,4.308742 10.006865,10.171172 12.548633,10.171172 0.811772,0 -0.735559,-3.902937 -2.140023,-5.397921 -0.695928,-0.74078 -1.273622,-2.113054 -1.283767,-3.049498 -0.01015,-0.936444 -0.401651,-2.209262 -0.870003,-2.828486 -1.118379,-1.478625 -1.086136,-4.047447 0.06277,-5.000952 0.654834,-0.543462 0.812415,-1.302063 0.555248,-2.672902 -0.467175,-2.490238 0.421215,-4.063902 2.559325,-4.53351 0.970164,-0.213084 1.874179,-0.867821 2.075939,-1.503512 0.371967,-1.1719689 3.061404,-2.8533409 4.564063,-2.8533409 1.42919,0 3.814323,2.4773739 4.403484,4.5737899 0.679235,2.416906 -0.01404,1.867547 -0.842112,-0.667322 -0.793547,-2.4291179 -3.169992,-3.7978269 -5.036301,-2.9006489 -1.285924,0.618174 -1.24149,0.657924 0.776838,0.694934 1.177428,0.02159 2.280483,0.265297 2.45123,0.5415719 0.304322,0.492399 -2.712591,0.347694 -4.172892,-0.2001519 -0.407492,-0.152874 -1.190496,0.4573159 -1.740008,1.3559769 -0.549517,0.898662 -1.270675,1.542198 -1.602576,1.430082 -0.3319,-0.112116 -1.114904,0.178191 -1.740007,0.645126 -1.090875,0.814856 -1.078277,0.838001 0.313456,0.575916 1.244169,-0.234297 1.285338,-0.199337 0.290001,0.246272 -0.638002,0.285632 -1.355755,0.406086 -1.595007,0.267676 -0.724887,-0.419357 -0.480665,1.745588 0.38384,3.402613 0.65654,1.258419 0.664358,1.499264 0.04089,1.260022 -0.929756,-0.356781 -2.033779,1.525619 -1.982994,3.381077 l 0.03677,1.343136 0.524548,-1.305006 c 0.695737,-1.730902 1.048593,-1.658213 0.703886,0.145001 -0.185856,0.972254 -0.01601,1.452932 0.51543,1.458888 0.618434,0.0069 0.601422,0.132441 -0.07738,0.571121 -0.556413,0.35958 -0.613903,0.565441 -0.1595,0.571121 0.480636,0.006 0.605575,0.618731 0.386171,1.893889 -0.247023,1.435693 -0.176558,1.677632 0.295616,1.015005 0.456015,-0.639944 0.622302,-0.669236 0.628839,-0.110771 0.0046,0.417578 0.295923,0.581833 0.646749,0.365009 0.458103,-0.283125 0.456027,-0.05445 -0.0074,0.811421 -0.532524,0.995024 -0.450447,1.309897 0.469819,1.802409 0.709425,0.379671 1.01022,0.997705 0.826852,1.698903 -0.15852,0.606175 -0.0075,1.27565 0.335671,1.487721 0.393189,0.243004 0.502914,-8.7e-4 0.296735,-0.659544 -0.310754,-0.992746 -0.294096,-0.993644 0.332295,-0.01793 0.362693,0.564962 0.944731,0.850886 1.293411,0.635388 0.357485,-0.220937 0.469866,-0.126287 0.257684,0.217027 -0.206957,0.334863 0.04309,0.76978 0.555712,0.966482 0.72672,0.278869 0.783659,0.536376 0.258507,1.169144 -0.512832,0.617923 -0.507038,0.914379 0.0243,1.242758 0.426302,0.26347 0.546531,0.186527 0.309026,-0.197771 -0.247476,-0.400423 0.299611,-0.644234 1.50539,-0.670879 1.041784,-0.02302 3.460156,-0.08183 5.374165,-0.130687 l 3.480015,-0.08884 -3.045013,-0.57148 c -3.434352,-0.644551 -4.016872,-1.81956 -1.160005,-2.33988 1.036754,-0.188825 2.422432,-0.501386 3.079285,-0.694582 0.902954,-0.26558 1.359735,0.01188 1.872573,1.137431 0.871321,1.912337 2.154739,1.916746 2.31272,0.0079 0.24066,-2.907828 2.58405,-6.15472 4.099968,-5.680712 0.528278,0.165188 -0.402348,-0.522188 -2.068063,-1.527501 -2.346742,-1.416337 -3.742663,-1.84231 -6.200494,-1.892111 -2.740755,-0.05554 -3.103222,-0.192657 -2.666463,-1.008749 0.278013,-0.519463 1.485387,-1.452025 2.683057,-2.07236 1.197671,-0.620335 2.65118,-1.584633 3.230017,-2.142885 0.578837,-0.558253 1.443934,-1.015005 1.922436,-1.015005 0.478502,0 0.870004,-0.243413 0.870004,-0.540917 0,-1.026039 2.148816,-1.219102 3.827141,-0.343854 1.081832,0.564175 1.327654,0.878901 0.688283,0.881198 -1.389095,0.005 -2.407011,2.05994 -1.657566,3.346273 0.523394,0.898344 0.588789,0.904226 0.604519,0.05437 0.0097,-0.524123 0.38377,-1.093449 0.831265,-1.265169 1.21684,-0.466945 2.921462,1.00682 2.48378,2.147402 -0.66031,1.720744 -2.147198,1.774667 -3.782829,0.137186 -1.503013,-1.504718 -1.518644,-1.591635 -0.580878,-3.229045 0.819265,-1.430487 0.839026,-1.73055 0.131846,-2.00192 -0.457523,-0.17557 -1.282699,0.131615 -1.833713,0.682632 -0.551019,0.551017 -1.328101,1.027949 -1.726853,1.059849 -1.627487,0.130199 -1.885008,0.264833 -1.885008,0.985489 0,0.414419 -0.887874,1.074548 -1.973058,1.466955 -3.300499,1.193477 -3.533196,2.115008 -0.561849,2.225084 1.483444,0.05495 3.795746,0.732194 5.445847,1.595007 3.239848,1.694071 4.124003,1.785264 7.793488,0.803827 2.219838,-0.593716 2.902635,-0.551855 4.658853,0.285627 l 2.057803,0.981299 -0.951674,-1.452444 c -0.523423,-0.798844 -1.572155,-1.608174 -2.33052,-1.79851 -2.212814,-0.555382 -1.614663,-1.195919 1.956181,-2.094797 l 3.335014,-0.839513 -2.403234,-0.746309 c -2.04897,-0.636294 -2.668836,-0.613808 -4.205019,0.15254 -1.693231,0.844695 -1.801784,0.83362 -1.801784,-0.183815 0,-0.595464 -0.580078,-1.488963 -1.289061,-1.985554 -0.708984,-0.496591 -1.010434,-0.902892 -0.669892,-0.902892 0.340537,0 1.100515,0.53189 1.688834,1.181977 0.794766,0.878203 1.488142,1.090069 2.6979,0.824361 2.019238,-0.443499 5.214049,0.563922 6.58202,2.075514 0.590709,0.652729 0.744311,1.138171 0.360135,1.138171 -0.368447,0 -0.669897,-0.247424 -0.669897,-0.549831 0,-0.335962 -0.733216,-0.316092 -1.885009,0.05108 -1.036754,0.330502 -2.220551,0.703801 -2.630665,0.829555 -0.485561,0.148888 -0.147338,0.788583 0.969642,1.833926 0.943409,0.882906 1.876558,2.169718 2.073649,2.859582 0.351232,1.229359 0.301305,1.223875 -2.511092,-0.275798 -2.39555,-1.277392 -3.141723,-1.431824 -4.518012,-0.93507 -1.161959,0.419393 -1.596897,0.928794 -1.473525,1.725804 0.09627,0.621929 0.323456,2.352122 0.504863,3.844874 0.300772,2.474995 0.438645,2.673568 1.564975,2.254063 0.679328,-0.253019 2.54015,-0.644901 4.135157,-0.870851 1.595007,-0.225949 3.813517,-0.54446 4.930022,-0.707802 4.83906,-0.707943 9.779318,-4.45049 9.905834,-7.50427 0.03178,-0.767538 0.144937,-0.854443 0.37028,-0.284413 0.355274,0.898711 -1.46141,4.68918 -2.247412,4.68918 -0.268767,0 -0.488669,0.406905 -0.488669,0.904234 0,0.497328 -0.208215,0.775551 -0.462697,0.618273 -0.254482,-0.157279 -0.841735,-0.04618 -1.305006,0.246889 -0.675755,0.427489 -0.612935,0.534876 0.317696,0.543093 0.970484,0.0086 0.828348,0.294755 -0.870003,1.751683 -1.116505,0.957792 -2.486761,1.888272 -3.045014,2.067733 -0.558252,0.179461 -1.015004,0.58511 -1.015004,0.901441 0,0.316331 -0.242209,0.425453 -0.538243,0.242494 -0.296039,-0.18296 -0.705126,0.193139 -0.90909,0.835773 -0.203963,0.642636 -0.614257,1.201053 -0.911764,1.240928 -1.085765,0.145528 -1.44554,0.284587 -3.312963,1.280519 -1.046121,0.557918 -2.157221,0.856687 -2.469106,0.663931 -0.311884,-0.192756 -0.717324,0.0411 -0.90097,0.519677 -0.183646,0.478578 -0.708676,0.72633 -1.166727,0.55056 -0.679862,-0.260888 -0.724626,-0.03503 -0.243752,1.229774 0.415688,1.093339 0.405776,1.43608 -0.03364,1.164489 -0.401948,-0.248415 -0.55555,0.200761 -0.43325,1.2669 0.200431,1.747231 1.842569,2.560608 2.944649,1.458529 0.415926,-0.415924 0.217646,-0.501448 -0.64161,-0.276747 -0.68398,0.178858 -1.243578,0.07737 -1.243578,-0.225523 0,-0.302896 0.587253,-0.499583 1.305006,-0.437082 0.717753,0.0625 1.545144,-0.02395 1.838649,-0.192121 0.293499,-0.168167 1.598504,-0.328173 2.900013,-0.355568 1.865288,-0.03926 2.486662,-0.323955 2.934453,-1.344468 0.312441,-0.712062 1.291196,-1.546739 2.175009,-1.854836 0.918533,-0.320204 1.626542,-1.007922 1.652718,-1.605354 0.02807,-0.641005 0.161432,-0.757275 0.344834,-0.300672 0.164472,0.409477 -0.01856,1.12723 -0.406808,1.595007 -0.470051,0.566373 -0.495188,0.850503 -0.07524,0.850503 0.816359,0 1.750378,-1.818903 1.414725,-2.755012 -0.161502,-0.450404 0.265559,-0.725004 1.127524,-0.725004 2.144299,0 3.542534,-1.341156 3.542534,-3.397918 0,-1.002157 0.302506,-1.822105 0.672235,-1.822105 2.009871,0 4.934458,-5.464639 4.934458,-9.220114 0,-4.667912 -5.630896,-8.154951 -9.024184,-5.588396 -1.109278,0.839017 -1.108541,0.851829 0.05011,0.870003 1.556066,0.02441 3.754073,1.601562 3.754073,2.69369 0,0.574159 -0.454769,0.340757 -1.338988,-0.687212 -1.011751,-1.176224 -1.649626,-1.458078 -2.610012,-1.153263 -1.371422,0.435272 -1.690707,1.737404 -0.592455,2.416162 0.456259,0.281985 0.557232,0.103184 0.308202,-0.545773 -0.20372,-0.530833 -0.117573,-0.96515 0.191412,-0.96515 0.635294,0 0.761178,1.347301 0.180166,1.928309 -0.651221,0.651222 -1.938374,-0.841024 -1.938374,-2.247232 0,-1.832804 2.58945,-3.741095 5.076478,-3.741095 1.573158,0 2.518157,0.498135 4.2718,2.251775 1.897815,1.897817 2.251773,2.633075 2.251773,4.677499 0,3.074518 -2.017376,7.819088 -3.829513,9.006446 -0.76478,0.501102 -1.39051,1.391883 -1.39051,1.979511 0,1.487225 -2.192676,4.124866 -3.429016,4.124866 -0.56364,0 -1.323855,0.656347 -1.689367,1.458549 -0.365506,0.802202 -1.306299,1.750945 -2.090648,2.10832 l -1.426093,0.649771 1.272549,1.122113 1.272548,1.122113 -1.740007,-0.297755 c -1.612953,-0.276013 -1.581406,-0.226025 0.432044,0.684584 1.194631,0.540287 2.173385,1.146426 2.175009,1.346975 0.0035,0.448083 -3.599461,1.994321 -4.20206,1.80328 -0.239251,-0.07585 -0.435002,0.155053 -0.435002,0.513114 0,0.451935 -0.264099,0.431838 -0.863618,-0.06572 -1.241275,-1.030169 -0.471513,-1.867083 1.043819,-1.134877 1.227877,0.593306 1.232528,0.58371 0.140975,-0.290606 -0.755366,-0.605032 -1.321443,-0.711564 -1.711007,-0.321998 -0.828441,0.828439 -1.666092,0.72216 -1.125721,-0.142827 0.669705,-1.072011 0.754444,-2.230431 0.135163,-1.847694 -0.296201,0.183062 -0.399529,0.557772 -0.229623,0.832689 0.169906,0.274917 0.03938,0.666418 -0.290001,0.870004 -0.329407,0.203585 -0.448765,0.613122 -0.265229,0.910081 0.18353,0.296959 0.100787,0.539925 -0.183879,0.539925 -0.94603,0 -1.288817,-0.753656 -0.677704,-1.490005 0.627981,-0.756669 -0.108425,-1.546983 -1.66057,-1.78213 -0.623161,-0.09441 -0.623161,0.05042 0,0.817288 0.648153,0.797622 0.613677,0.8782 -0.239054,0.558764 -0.548038,-0.205296 -1.153329,-0.119405 -1.345084,0.190868 -0.19176,0.310273 -0.65687,0.379273 -1.033582,0.153333 -0.376706,-0.225939 -0.317534,0.04187 0.131498,0.595123 0.566413,0.697881 1.00156,0.820782 1.421007,0.401338 0.332521,-0.332521 0.790288,-0.604584 1.017266,-0.604584 0.480961,0 0.331501,1.537157 -0.201267,2.069925 -0.199921,0.199922 -0.223051,0.729479 -0.05139,1.176794 0.192927,0.502781 -0.06747,0.813299 -0.682031,0.813299 -0.697128,0 -0.886655,-0.303225 -0.634424,-1.015004 0.2553,-0.720441 0.06291,-0.642901 -0.662949,0.267188 -0.999866,1.253642 -2.568523,1.469803 -3.470862,0.478281 -0.250335,-0.275084 -0.06386,-0.276028 0.418216,-0.0021 0.742554,0.421909 0.75648,0.354287 0.09507,-0.461607 -0.981532,-1.210785 -0.340113,-2.512159 0.779999,-1.582545 1.056475,0.876793 0.803397,-0.899327 -0.270026,-1.895084 -0.465231,-0.43157 -0.627783,-0.455502 -0.406512,-0.05985 0.202787,0.362606 0.0035,0.962225 -0.442455,1.332486 -0.677692,0.562432 -0.772981,0.27685 -0.579138,-1.735652 0.127612,-1.324868 -0.03898,-2.83799 -0.370158,-3.362494 -0.4985,-0.789453 -0.543416,-0.737363 -0.260885,0.302552 0.187706,0.690907 0.04182,1.441285 -0.324227,1.667507 -0.452779,0.279831 -0.471177,0.531425 -0.05754,0.787057 0.400729,0.247665 0.224252,1.260903 -0.517734,2.972513 -1.088676,2.511364 -1.089494,2.554121 -0.02488,1.300162 0.820773,-0.966741 1.177672,-1.096358 1.402876,-0.509487 0.17012,0.443319 -0.473689,1.360648 -1.473967,2.100184 -0.976805,0.722185 -1.558153,0.951454 -1.291886,0.509486 0.411158,-0.682454 0.336216,-0.683591 -0.497207,-0.0075 -0.999774,0.810977 -1.1952,0.573176 -1.011675,-1.231021 0.120692,-1.186488 -0.595634,-1.317039 -1.617825,-0.294849 -0.573541,0.573541 -0.824322,0.551611 -1.231803,-0.107705 -0.423889,-0.685874 -0.668441,-0.697731 -1.425855,-0.06913 -1.409853,1.170075 -1.084964,1.944564 0.67463,1.608198 1.912222,-0.365541 3.833445,0.523783 3.246094,1.502601 -0.271122,0.451827 -0.08606,0.427224 0.52764,-0.07014 0.818378,-0.66325 1.063939,-0.536473 1.829891,0.94472 0.829531,1.604136 1.972438,2.431336 3.359276,2.431336 0.328252,0 0.105636,-0.456752 -0.494707,-1.015005 -0.600344,-0.558252 -0.838058,-0.819253 -0.528261,-0.580002 0.961116,0.742246 1.469628,0.480862 1.12836,-0.580003 -0.252771,-0.785776 -0.19781,-0.83449 0.243358,-0.215691 0.348773,0.489185 0.87632,0.614762 1.359723,0.323664 0.658842,-0.396756 0.657821,-0.312882 -0.0061,0.505693 -0.479053,0.590576 -0.548265,0.981341 -0.173821,0.981341 0.342207,0 0.87991,-0.456752 1.194898,-1.015004 0.458706,-0.812967 0.718432,-0.870694 1.304826,-0.290002 0.402667,0.398752 1.267178,0.694727 1.921131,0.657723 0.978371,-0.05533 1.009193,-0.114272 0.174001,-0.332533 -0.558253,-0.145882 -1.015005,-0.522512 -1.015005,-0.836949 0,-0.314437 0.272433,-0.403334 0.605407,-0.197543 0.332979,0.205791 1.050732,0.02546 1.595007,-0.40077 0.891342,-0.697993 0.910563,-0.674155 0.193581,0.240068 -0.927505,1.18266 0.04559,1.398671 1.018688,0.226138 0.368737,-0.444305 1.278001,-0.669723 2.081716,-0.516081 1.036082,0.198059 1.899207,-0.199399 3.150638,-1.450836 1.075365,-1.075365 1.928613,-1.518631 2.268662,-1.178582 0.807607,0.807607 3.743018,0.298788 4.070957,-0.705654 0.240423,-0.736372 0.14021,-0.751287 -0.65241,-0.09711 -0.515054,0.425093 -1.405752,0.651121 -1.979328,0.502283 -0.839461,-0.217832 -0.79501,-0.283737 0.227906,-0.337896 0.698926,-0.037 1.434717,-0.332539 1.635085,-0.656744 0.200368,-0.324205 0.607274,-0.439302 0.904236,-0.255771 0.296932,0.18354 0.539901,0.0573 0.539901,-0.280531 0,-0.337827 0.807439,-0.614232 1.794307,-0.614232 1.280077,0 1.877561,-0.318369 2.084808,-1.110883 0.159779,-0.610985 0.982135,-1.28447 1.827466,-1.496635 2.154912,-0.540849 2.993457,-1.373808 2.993457,-2.973525 0,-0.963923 0.328838,-1.378988 1.092516,-1.378988 0.600883,0 2.036389,-1.044756 3.190014,-2.321681 1.765899,-1.954642 2.097498,-2.741091 2.097498,-4.974637 0,-2.158878 -0.315742,-2.968701 -1.695394,-4.348348 -2.973093,-2.973093 -8.716678,-1.731788 -7.889357,1.705049 0.202508,0.841269 0.7953,1.855832 1.317313,2.254583 0.522014,0.398752 0.678685,0.725004 0.348153,0.725004 -0.98644,0 -2.520761,-2.03211 -2.520761,-3.338589 0,-1.718522 2.662102,-3.621442 5.066241,-3.621442 1.512305,0 2.49792,0.488131 3.981799,1.972009 2.668081,2.668082 2.761978,6.043465 0.26404,9.491765 -0.939378,1.296777 -2.179133,2.509771 -2.755012,2.695541 -0.575873,0.18577 -1.504909,1.144531 -2.064525,2.130579 -0.559609,0.986049 -1.799365,2.087947 -2.755012,2.448661 -0.955641,0.360716 -1.737531,0.948232 -1.737531,1.305592 0,0.786359 -2.781895,2.13741 -3.494376,1.697072 -0.279092,-0.172488 -0.7986,0.23042 -1.15446,0.895352 -0.787684,1.471803 -2.794743,2.294508 -4.273459,1.751713 -0.745431,-0.273628 -1.519787,0.02656 -2.438644,0.945444 -0.740518,0.740513 -2.01994,1.346389 -2.843167,1.346389 -0.823226,0 -2.138945,0.420763 -2.923816,0.935034 -0.940248,0.616073 -2.070928,0.820535 -3.31461,0.599386 -1.218417,-0.21666 -2.286689,-0.0341 -3.013427,0.514973 -1.718866,1.298655 -3.173692,1.027324 -5.00541,-0.933537 -1.79081,-1.917071 -2.858769,-1.827664 -2.858769,0.239326 0,3.862289 3.611752,5.332996 11.851749,4.826027 5.332631,-0.32809 5.737855,-0.281817 4.678324,0.534223 -0.638003,0.491384 -2.227366,1.181871 -3.531914,1.534408 -1.910992,0.516429 -2.474528,0.988748 -2.900013,2.4306 -0.827727,2.804956 -4.255647,2.710444 -4.28924,-0.118263 -0.0072,-0.610493 0.139751,-0.610493 0.800247,0 0.445018,0.411332 0.669253,1.008874 0.498297,1.327875 -0.170956,0.319002 0.165249,0.131377 0.747113,-0.416946 1.006623,-0.948594 1.008938,-1.051098 0.04762,-2.113338 -0.784465,-0.866825 -1.9929,-1.166002 -5.405798,-1.33835 -4.172926,-0.210721 -4.486899,-0.324598 -6.200946,-2.249099 -1.258704,-1.41324 -2.200674,-1.967247 -3.110472,-1.82938 -2.78367,0.42183 -0.800555,2.99591 4.25723,5.525875 5.304703,2.653472 7.571237,6.392823 6.037821,9.961272 -0.575438,1.339121 -0.578611,1.33313 -0.9217,-1.740008 -0.181802,-1.628462 -0.777308,-2.79545 -1.997813,-3.915017 -2.28249,-2.093722 -2.880513,-2.012012 -2.880513,0.393572 0,3.678307 -4.130035,5.433284 -4.533543,1.926438 -0.104006,-0.903899 0.09931,-1.595007 0.469228,-1.595007 0.359021,0 0.502601,0.242969 0.319065,0.539924 -0.631316,1.021495 1.021448,1.376984 1.752669,0.376979 0.688434,-0.941489 0.747525,-0.938178 1.004733,0.05638 0.150307,0.581192 0.303561,-0.05255 0.340565,-1.408298 0.07002,-2.565508 0.508019,-2.890762 2.475097,-1.838017 0.644354,0.344846 1.299403,0.499145 1.455668,0.342874 0.156264,-0.156264 -1.423976,-1.239332 -3.511643,-2.406824 -2.087667,-1.167493 -4.49444,-2.953043 -5.348383,-3.967891 -0.853938,-1.014853 -1.641431,-1.79023 -1.749978,-1.723065 -0.108554,0.06717 -1.277815,-0.259082 -2.598371,-0.725004 -2.973151,-1.048986 -2.878564,-1.055575 -2.410166,0.167882 0.560312,1.463526 2.429782,2.839014 5.02792,3.699367 2.719557,0.900552 6.155944,3.988915 6.124433,5.50416 -0.01479,0.710828 -0.312969,0.423344 -0.854947,-0.824277 -0.667287,-1.536026 -1.679386,-2.307186 -5.105791,-3.89028 -4.690649,-2.167214 -5.331506,-2.716036 -5.92287,-5.072215 -0.219734,-0.875456 -0.668262,-1.591747 -0.996729,-1.591747 -0.382854,0 -0.480155,1.405259 -0.27107,3.915017 0.249546,2.995487 0.20104,3.438226 -0.206516,1.885008 -1.142616,-4.354589 0.314431,-12.138175 1.963512,-10.489096 0.345977,0.345977 1.000313,0.629053 1.454078,0.629053 0.664874,0 0.685893,-0.167632 0.108281,-0.863618 -0.394211,-0.47499 -0.948171,-0.720587 -1.231027,-0.545772 -0.986462,0.609665 -0.467192,-0.632475 0.926229,-2.215626 1.538741,-1.74825 2.652045,-2.20847 1.403073,-0.580002 -0.578616,0.754421 -0.410717,0.712298 0.653982,-0.164073 1.426406,-1.174098 5.004772,-1.358742 4.302227,-0.221994 -0.186953,0.302494 -0.558543,0.414871 -0.82575,0.249727 -0.267207,-0.165145 -0.353958,0.204039 -0.19277,0.820408 0.358709,1.371706 1.557893,1.004927 2.340891,-0.715975 0.521741,-1.146713 0.40639,-1.285803 -1.161954,-1.401068 -0.957666,-0.07038 -2.182277,-0.527135 -2.721366,-1.015004 -0.539089,-0.48787 -1.26143,-0.887036 -1.605198,-0.887036 -0.343767,0 -0.493594,-0.502633 -0.332945,-1.116961 0.219584,-0.839686 0.02616,-1.074304 -0.779303,-0.945124 -1.696148,0.272037 -2.376984,-0.46126 -0.778589,-0.838589 1.84105,-0.434613 2.329458,-2.319349 0.601039,-2.319349 -1.354196,0 -2.526642,2.215451 -1.710851,3.232815 0.290599,0.362402 0.214172,0.908039 -0.182794,1.305005 -0.80158,0.801581 -0.133464,1.62543 1.579806,1.948047 0.992117,0.18682 1.021587,0.273022 0.203615,0.595604 -0.561755,0.221539 -1.399395,-0.04843 -2.030009,-0.654261 -1.475051,-1.417089 -3.593255,-0.607848 -5.304436,2.026512 -1.349457,2.077482 -1.466148,2.889741 -1.160243,8.076351 0.116836,1.980987 0.406216,2.852255 0.913144,2.74931 0.514486,-0.104481 0.438117,0.313254 -0.248983,1.361898 -0.797788,1.217582 -0.856728,1.727764 -0.302193,2.615719 0.531868,0.851659 0.531868,1.354556 0,2.206214 -0.559389,0.895727 -0.48374,1.413669 0.402377,2.755012 0.600204,0.908551 1.021622,2.343036 0.936483,3.187752 -0.106604,1.057646 0.258241,1.825152 1.171768,2.465011 0.729608,0.51104 1.007488,0.929164 0.617511,0.929164 -1.195234,0 -0.785816,1.828533 0.483751,2.160533 0.741197,0.193825 1.071375,0.628369 0.872081,1.14772 -0.422671,1.101466 0.659416,3.071775 1.687007,3.071775 0.453649,0 0.891951,0.702893 0.9946,1.595007 0.131405,1.142031 0.55414,1.647642 1.48853,1.780347 0.779175,0.110658 1.305005,0.589752 1.305005,1.189005 0,1.392013 1.142055,2.395673 2.726012,2.395673 0.733704,0 1.836637,0.50263 2.450969,1.11696 1.077378,1.07738 3.523058,1.08562 3.523058,0.0118 0,-0.26174 0.891028,-0.3313 1.980059,-0.15458 1.771559,0.28749 2.078508,0.13096 2.914907,-1.48647 0.514166,-0.99425 1.167394,-1.807762 1.451624,-1.807762 0.284225,0 0.778921,-0.717753 1.09932,-1.595007 0.320399,-0.877254 0.60315,-1.181088 0.628334,-0.675186 0.05388,1.082394 -3.874736,6.299815 -4.816823,6.397005 -0.356075,0.0367 -1.093913,0.022 -1.639632,-0.0326 -0.545724,-0.0547 -1.555787,0.20222 -2.244581,0.57085 -1.034892,0.55386 -1.53834,0.4588 -2.899311,-0.5474 -0.905819,-0.66971 -2.139066,-1.21765 -2.740546,-1.21765 -1.113159,0 -3.013392,-1.67937 -3.013392,-2.663144 0,-0.297988 -0.585727,-0.799441 -1.301619,-1.114336 -0.715891,-0.314895 -1.389262,-1.038298 -1.496389,-1.607564 -0.107126,-0.569261 -0.826405,-1.666655 -1.598394,-2.438644 -0.771995,-0.771995 -1.403624,-1.775034 -1.403624,-2.228973 0,-0.453945 -0.40965,-1.16533 -0.910325,-1.580855 -0.500682,-0.415526 -0.786118,-1.230487 -0.634303,-1.811023 0.15181,-0.580536 0.05707,-1.055524 -0.210593,-1.055524 -0.541165,0 -1.454895,-2.318223 -1.232435,-3.126817 0.0782,-0.284241 -0.295657,-1.439479 -0.830796,-2.567195 -0.703671,-1.482887 -0.808645,-2.31352 -0.379258,-3.001078 0.326541,-0.522879 0.384449,-1.32515 0.128674,-1.782824 -0.25577,-0.457674 -0.407272,-2.610881 -0.336674,-4.784905 0.08127,-2.502711 -0.14416,-4.311269 -0.614531,-4.930022 -0.631976,-0.83134 -0.755604,-0.457668 -0.828029,2.502764 -0.04681,1.914008 -0.04356,4.785021 0.0073,6.380028 0.05081,1.595007 0.0816,3.552515 0.06838,4.350019 -0.01322,0.797503 -0.01578,2.538265 -0.0058,3.868362 0.01015,1.330096 -0.251634,2.585257 -0.58169,2.789243 -0.330057,0.203987 -0.600106,1.106529 -0.600106,2.005643 0,0.89912 -0.391502,1.959678 -0.870004,2.3568 -0.478502,0.397122 -0.870004,1.119817 -0.870004,1.605992 0,1.356342 -4.012504,7.094053 -4.961022,7.094053 -0.46145,0 -0.839003,0.5072 -0.839003,1.12711 0,1.28134 -2.093171,2.98354 -3.163676,2.57275 -0.390771,-0.14995 -1.045269,0.13074 -1.454438,0.62376 -0.860404,1.03672 -1.695817,1.11961 -2.921919,0.2899 z m 7.250032,-12.153558 c 0.197154,-0.319001 0.08206,-0.580002 -0.25577,-0.580002 -0.337828,0 -0.614234,0.261001 -0.614234,0.580002 0,0.319002 0.115095,0.580003 0.255769,0.580003 0.140674,0 0.41708,-0.261001 0.614235,-0.580003 z m 2.067465,-5.87002 c 0.519537,-0.970756 0.503065,-1.134067 -0.07815,-0.774854 -0.526283,0.325259 -0.627447,0.171118 -0.35451,-0.540134 0.210054,-0.5474 0.156537,-0.855979 -0.118935,-0.685731 -0.46515,0.287479 -0.741881,3.230719 -0.303765,3.230719 0.108397,0 0.493316,-0.553497 0.855365,-1.23 z m 26.314594,-1.608417 c 0.17621,-0.285123 -0.305343,-0.480874 -1.070122,-0.435002 -0.76478,0.04588 -1.269655,0.279156 -1.121934,0.518407 0.371086,0.601039 1.802706,0.546571 2.192056,-0.0834 z m 7.288097,-0.867347 c 0,-0.443157 -0.52793,-1.421911 -1.173171,-2.17501 l -1.173171,-1.369258 1.02817,2.160742 c 1.133256,2.381571 1.318172,2.575657 1.318172,1.383526 z m -33.36761,-2.184933 c -0.382854,-1.988017 -0.900141,-2.032196 -0.750175,-0.06407 0.07604,0.997969 0.329076,1.696559 0.5623,1.552423 0.233219,-0.144142 0.317766,-0.8139 0.187875,-1.488356 z m 39.501189,-3.066375 c 0.195612,-0.779379 0.20325,-1.663645 0.01699,-1.965043 -0.186273,-0.301398 0.767912,-0.715352 2.120409,-0.919896 4.794144,-0.725026 3.951882,-1.338646 -1.449636,-1.056109 -6.650512,0.347862 -9.275598,-0.576929 -10.390647,-3.660529 l -0.70225,-1.942046 -1.634232,0.965362 c -3.653778,2.15834 -0.369897,5.349334 5.508934,5.35311 1.855231,0.0012 3.847284,0.25592 4.426782,0.566059 1.410073,0.754648 1.94211,2.30003 1.129103,3.279642 -0.471444,0.568026 -0.477487,0.796489 -0.02105,0.796489 0.351986,0 0.800014,-0.637667 0.995626,-1.417039 z M 22.785482,63.696484 c -0.213365,-0.213365 0.06939,-0.910731 0.628334,-1.549703 0.558949,-0.638977 0.690018,-0.971005 0.291266,-0.737844 -0.854338,0.499556 -0.995853,-0.568681 -0.145,-1.094535 0.319001,-0.197154 0.580002,-0.639255 0.580002,-0.982454 0,-0.343194 -0.522002,0.03961 -1.160005,0.850718 -1.440895,1.831805 -1.492178,3.901753 -0.09667,3.901753 0.159501,0 0.115432,-0.174569 -0.09793,-0.387935 z M 49.918953,58.62337 c 2.071334,-1.213887 2.580558,-1.761178 1.987941,-2.136567 -0.43818,-0.27756 -0.535691,-0.512653 -0.216689,-0.52242 0.319001,-0.0097 0.236879,-0.235347 -0.182498,-0.501284 -1.050541,-0.66618 -3.442558,-0.133065 -3.820349,0.851449 -0.432891,1.128093 0.788206,1.011913 2.13032,-0.202688 1.070557,-0.968836 1.110067,-0.962578 0.915674,0.145001 -0.266738,1.519821 -1.095469,2.073683 -2.523162,1.686294 -0.826933,-0.224374 -0.937998,-0.160562 -0.386816,0.222257 0.556206,0.386299 0.03648,0.722503 -1.851843,1.197995 -3.587606,0.903371 -5.049705,0.855759 -4.663047,-0.151856 0.171553,-0.447066 0.842129,-0.9515 1.49016,-1.120965 1.551426,-0.405706 0.79367,-1.587978 -0.852708,-1.330416 -0.92928,0.145378 -1.226497,0.536995 -1.09432,1.441909 0.210756,1.442908 -0.213667,1.514364 -2.211468,0.372316 -1.726581,-0.987002 -2.527843,-1.095515 -2.019842,-0.273547 0.801413,1.296706 4.146543,2.267532 7.281932,2.113355 2.290059,-0.112607 4.043691,-0.634563 6.016715,-1.790833 z m -5.759275,0.225644 c 0.20238,-0.327463 0.805038,-0.523214 1.339238,-0.435002 0.678144,0.111981 0.957369,-0.233462 0.925214,-1.144623 -0.02535,-0.717753 0.213922,-1.305006 0.531671,-1.305006 0.317743,0 0.42607,-0.151647 0.240724,-0.336993 -0.524577,-0.524583 -2.756352,0.867081 -2.756352,1.718774 0,0.41853 -0.587252,1.044184 -1.305006,1.390347 -0.990568,0.477731 -1.068689,0.638838 -0.324233,0.668633 0.539426,0.02158 1.146364,-0.228666 1.348744,-0.55613 z m -3.779523,-0.564621 c 0,-0.319001 -0.441387,-0.580002 -0.980859,-0.580002 -0.85348,0 -0.834647,-0.107608 0.145,-0.82858 1.073736,-0.790219 1.077065,-0.847488 0.07187,-1.237018 -0.59119,-0.229101 -1.35521,-0.101872 -1.740007,0.289746 -0.529885,0.539286 -0.374386,0.952822 0.683243,1.81702 1.560166,1.274829 1.820755,1.351946 1.820755,0.538834 z M 25.300089,55.830658 c 0,-0.270606 -0.348001,-0.166931 -0.773335,0.230394 -0.425339,0.397319 -0.77334,1.094651 -0.77334,1.549616 0,0.60108 0.211399,0.538103 0.77334,-0.230394 0.425334,-0.581679 0.773335,-1.279004 0.773335,-1.549616 z m 19.766098,-0.301277 c 0.653402,-0.86349 0.646686,-0.906782 -0.04501,-0.290001 -0.44717,0.398752 -1.071717,0.725003 -1.387894,0.725003 -0.316171,0 -0.06822,-0.373933 0.551003,-0.830958 1.329093,-0.980952 0.471466,-2.337953 -1.097162,-1.736014 -1.129926,0.433595 -1.29666,2.33728 -0.241983,2.762851 1.205338,0.486367 1.422218,0.424764 2.221015,-0.630881 z m -3.526027,-0.145 c 0,-0.319002 -0.276406,-0.580003 -0.614234,-0.580003 -0.337828,0 -0.452924,0.261001 -0.255769,0.580003 0.197154,0.319001 0.47356,0.580002 0.614234,0.580002 0.140674,0 0.255769,-0.261001 0.255769,-0.580002 z m 5.800026,-1.677954 c 0,-0.603873 0.391502,-1.248185 0.870004,-1.431803 1.243119,-0.477031 1.114991,-2.242875 -0.145001,-1.998306 -0.558972,0.108499 -1.015347,0.713933 -1.01577,1.347534 -4.23e-4,0.632784 -0.326675,1.150517 -0.725003,1.150517 -0.398328,0 -0.724238,0.195751 -0.724238,0.435002 0,0.239251 0,0.696003 0,1.015005 0,0.319001 0.391502,0.580002 0.870004,0.580002 0.478502,0 0.870004,-0.494081 0.870004,-1.097951 z m -5.910441,-0.497056 c -0.23544,-1.222554 -1.2648,-1.145467 -1.527117,0.114364 -0.109418,0.525472 0.210303,0.900641 0.767529,0.900641 0.597379,0 0.881853,-0.380134 0.759588,-1.015005 z m 1.850423,-1.885008 c 0,-1.223275 -0.843834,-1.560809 -1.450006,-0.580003 -0.422938,0.68433 0.125669,1.740008 0.904235,1.740008 0.300175,0 0.545771,-0.522002 0.545771,-1.160005 z M 55.34291,50.847658 c 0.815333,-1.227953 0.792521,-1.261185 -0.530366,-0.772759 -0.760285,0.280705 -1.47251,0.967729 -1.582722,1.526719 -0.266784,1.353055 1.0186,0.894424 2.113088,-0.75396 z m -2.88169,-0.307631 c 0.147564,-0.766232 -0.09045,-1.004245 -0.856681,-0.856683 -0.583564,0.112384 -1.15297,0.68179 -1.265351,1.265349 -0.147565,0.766232 0.09045,1.004246 0.856681,0.856683 0.583558,-0.112383 1.152969,-0.68179 1.265351,-1.265349 z m 1.258994,-1.609216 2.610011,0.05724 -2.301206,-0.836891 c -1.265664,-0.460291 -2.44017,-0.622345 -2.610012,-0.360121 -0.169842,0.262224 -1.154042,0.423631 -2.187114,0.358682 -1.555758,-0.09781 -1.76192,0.02216 -1.200524,0.698596 0.421128,0.507425 1.132403,0.666836 1.878309,0.42097 0.660287,-0.217644 2.37503,-0.369958 3.810536,-0.338476 z M 71.12029,48.776405 c 0,-0.125371 -0.405056,-0.383383 -0.900129,-0.573359 -0.516156,-0.198069 -0.748969,-0.100833 -0.545771,0.227947 0.340613,0.551121 1.4459,0.815164 1.4459,0.345412 z M 46.432621,47.905123 c 0.176495,-0.285575 -0.05226,-0.662414 -0.508302,-0.837421 -0.456056,-0.175006 -0.964382,-0.0066 -1.129608,0.374226 -0.308747,0.711634 -0.04779,-1.680058 0.313648,-2.874595 0.111001,-0.366852 -0.05918,-0.675987 -0.378184,-0.686968 -0.319002,-0.01098 -0.495172,0.389858 -0.391491,0.890753 0.127601,0.61648 -0.10063,0.799766 -0.706431,0.567299 -1.078608,-0.413902 -1.642683,0.33073 -1.174586,1.550568 0.480329,1.25172 3.37243,1.991042 3.974954,1.016138 z m 9.607603,-0.868725 c 0,-1.238853 -1.561506,-1.55871 -2.422607,-0.496245 -0.556738,0.68693 -0.568379,0.827292 -0.0424,0.511297 0.398752,-0.239562 0.725003,-0.159163 0.725003,0.178665 0,0.337828 0.391502,0.614233 0.870004,0.614233 0.478502,0 0.870004,-0.363578 0.870004,-0.80795 z M 36.974119,46.299383 c 0.725015,-0.878885 0.674323,-0.900102 -0.568274,-0.237861 -0.750367,0.399906 -1.859982,0.597478 -2.465812,0.43905 -0.60583,-0.158428 -0.955246,-0.05139 -0.776478,0.237861 0.538422,0.871183 2.959875,0.592186 3.810564,-0.43905 z m 13.846082,0.02731 c 0,-0.652098 -0.353268,-0.845269 -1.160005,-0.634302 -0.638003,0.166841 -1.160005,0.06678 -1.160005,-0.222355 0,-0.463441 0.776803,-0.735622 1.788339,-0.62661 0.186088,0.02006 0.338339,-0.340539 0.338339,-0.801319 0,-0.46078 -0.448064,-0.837781 -0.99569,-0.837781 -1.063394,0 -1.835685,1.90018 -1.319263,3.245956 0.435258,1.134277 2.508285,1.032134 2.508285,-0.123589 z m -3.58249,-0.99542 c 0.111001,-0.572326 -0.184881,-0.966942 -0.725003,-0.966942 -0.538028,0 -0.91253,0.4959 -0.91253,1.208338 0,1.413493 1.355333,1.213696 1.637533,-0.241396 z m 5.9025,-0.131169 c 0,-0.459676 -0.391501,-0.835774 -0.870004,-0.835774 -0.873617,0 -1.192299,1.22438 -0.499103,1.917574 0.541281,0.541283 1.369107,-0.112822 1.369107,-1.0818 z m -17.255075,0.09684 c 0.558252,-0.423775 1.015004,-1.036018 1.015004,-1.360543 0,-0.324524 0.391502,-0.914961 0.870004,-1.312082 0.478502,-0.397122 0.853462,-1.146833 0.833237,-1.666026 -0.02523,-0.647786 -0.199213,-0.540294 -0.554488,0.342576 -0.284746,0.707609 -1.44271,1.673046 -2.573245,2.145414 -1.995481,0.833765 -2.466032,1.474205 -1.668853,2.271382 0.539768,0.539769 0.912431,0.464329 2.078341,-0.420721 z M 32.548804,44.9422 c -0.197879,-0.320172 -0.94233,-0.43592 -1.654341,-0.257216 -1.659358,0.416472 -4.197026,-1.526491 -4.574799,-3.502692 -0.217194,-1.13616 -0.114608,-1.330325 0.453678,-0.85869 1.205431,1.000419 4.108854,1.63481 4.974102,1.086829 0.554656,-0.351281 0.212084,-0.511101 -1.108698,-0.517238 -1.254987,-0.0058 -2.407289,-0.504802 -3.355477,-1.452991 -1.137095,-1.137092 -1.512653,-1.265486 -1.76652,-0.603922 -0.498257,1.298433 0.890031,4.844923 2.276789,5.816249 1.394047,0.976427 5.327804,1.216055 4.755266,0.289671 z m 24.974539,-2.422208 c 0.193999,-0.611239 0.03294,-1.496629 -0.357844,-1.967532 -0.390818,-0.470903 -0.545145,-1.021616 -0.342956,-1.223807 0.202195,-0.202191 0.09077,-0.701202 -0.247597,-1.108913 -0.433831,-0.522737 -0.432352,-1.08299 0.0052,-1.900244 0.860376,-1.607623 0.731035,-4.672351 -0.28466,-6.745235 -0.468926,-0.957004 -0.695951,-1.218005 -0.504497,-0.580002 0.191453,0.638002 0.46131,2.073509 0.599693,3.190014 0.199846,1.61241 0.08834,1.461336 -0.54207,-0.734393 -0.436516,-1.520421 -0.971812,-2.942542 -1.189539,-3.16027 -0.217727,-0.217728 -1.206492,0.414752 -2.197247,1.405511 -1.409499,1.409499 -1.862927,2.441865 -2.084279,4.745523 -0.313718,3.264938 -0.09161,3.50112 3.509142,3.731472 1.836399,0.117481 3.884451,0.972187 2.329546,0.972187 -0.328612,0 -0.535923,0.587253 -0.46069,1.305006 0.200402,1.911871 0.248647,1.968492 0.864836,1.015004 0.476187,-0.736848 0.5636,-0.708673 0.571122,0.184086 0.0067,0.792322 -0.279897,0.962435 -1.153984,0.685012 -1.311392,-0.416221 -2.095445,0.840619 -1.497109,2.399866 0.332568,0.866663 0.462407,0.86003 1.497254,-0.07649 0.623207,-0.563995 1.291833,-1.525551 1.485833,-2.136792 z m -2.542238,-6.199267 c 0.742014,-0.914965 1.449728,-1.575613 1.572688,-1.468107 0.388451,0.339623 -1.671985,3.13168 -2.311061,3.13168 -0.335908,0 -0.0035,-0.748607 0.738373,-1.663573 z m -11.120934,6.573188 c 0,-0.467278 -0.382321,-0.849597 -0.8496,-0.849597 -0.927354,0 -2.221734,1.955355 -1.663743,2.513344 0.557986,0.557989 2.513343,-0.736388 2.513343,-1.663747 z m -10.633378,0.600409 c -0.05319,-0.319001 0.357768,-0.503841 0.913196,-0.410756 0.842634,0.141219 0.921694,-0.06267 0.477412,-1.231228 -0.449125,-1.181286 -0.3154,-1.499374 0.854425,-2.032383 0.76279,-0.347549 1.523777,-0.410422 1.691078,-0.139718 0.167308,0.270705 -0.242371,0.63512 -0.910395,0.809813 -1.265281,0.330878 -1.24856,1.844267 0.02036,1.844267 0.935347,0 2.492677,-3.624044 1.753609,-4.080813 -0.300499,-0.185716 -0.832559,-0.160784 -1.182358,0.05541 -0.349806,0.216189 -1.459061,0.466816 -2.465011,0.556948 -1.005957,0.09013 -2.645606,0.346449 -3.643675,0.569594 -1.146473,0.256324 -1.965246,0.162073 -2.223608,-0.255965 -0.284827,-0.46086 0.08989,-0.563905 1.234663,-0.33952 1.398021,0.274025 1.470278,0.232966 0.483601,-0.27479 -1.021379,-0.525612 -0.96774,-0.57063 0.448846,-0.376698 0.884864,0.121139 1.748522,-0.0057 1.919234,-0.281965 0.170718,-0.276222 -0.241936,-0.50222 -0.917007,-0.50222 -1.828098,0 -6.381095,-1.23326 -6.381095,-1.728433 0,-0.236895 0.587253,-0.372337 1.305006,-0.300982 0.717753,0.07135 0.848253,0.01701 0.290001,-0.12077 -0.558252,-0.137778 -1.015004,-0.493353 -1.015004,-0.790168 0,-0.296815 -0.587253,-0.509386 -1.305006,-0.472382 -1.029157,0.05306 -1.083944,0.124603 -0.259203,0.338461 0.810339,0.210123 0.898047,0.449219 0.389553,1.06192 -0.528464,0.636756 -0.110914,0.958291 2.144205,1.65115 1.634558,0.502198 2.257155,0.877228 1.495461,0.900808 -1.648767,0.05104 -1.681334,0.958183 -0.06545,1.822979 1.178571,0.630752 3.47048,0.507475 6.010479,-0.32329 0.801645,-0.262197 0.712052,-0.10461 -0.290001,0.510105 -0.797503,0.489232 -1.123755,0.89876 -0.725003,0.910065 0.398752,0.0113 0.725003,0.281553 0.725003,0.600554 0,0.319002 -0.195751,0.549095 -0.435002,0.511319 -1.147755,-0.181225 -1.891005,0.156148 -2.387406,1.083688 -0.444735,0.830986 -0.299467,1.015005 0.801262,1.015005 0.739462,0 1.300974,-0.261001 1.247811,-0.580003 z m 38.316418,0.519586 c -0.192735,-0.19273 -0.692987,-0.213336 -1.111674,-0.04579 -0.462685,0.185152 -0.325253,0.322587 0.350421,0.350418 0.611415,0.02518 0.953982,-0.111899 0.761253,-0.304628 z M 30.115746,42.922263 c 0.0629,-0.314633 -0.342387,-0.660022 -0.90064,-0.767531 -0.63487,-0.122265 -1.015004,0.16221 -1.015004,0.759588 0,1.009082 1.714081,1.016189 1.915644,0.0079 z m 17.804443,0.0565 c 0,-0.443058 0.456752,-0.769309 1.015004,-0.725003 0.558252,0.04431 1.015004,-0.289196 1.015004,-0.741115 0,-1.507105 -1.363545,-1.300587 -2.316019,0.350778 -0.726181,1.259017 -0.883715,1.350094 -0.690865,0.399419 0.197074,-0.971484 0.02042,-1.171493 -0.836659,-0.947358 -1.370326,0.358349 -1.417271,1.717333 -0.07147,2.069027 1.737502,0.454057 1.885009,0.422306 1.885009,-0.405748 z m 4.64002,-0.678677 c 0,-0.459679 -0.391502,-0.835777 -0.870004,-0.835777 -0.873617,0 -1.1923,1.224381 -0.499104,1.917574 0.541282,0.541283 1.369108,-0.112822 1.369108,-1.0818 z M 24.99187,39.997409 c 0.03782,-2.01362 -0.184603,-2.671361 -0.989908,-2.926955 -0.571302,-0.181323 -0.875096,-0.594441 -0.6751,-0.918039 0.199991,-0.323598 -0.499921,-1.479312 -1.555363,-2.568253 -1.055443,-1.088944 -1.628537,-1.979896 -1.273541,-1.979896 0.354996,0 0.761967,0.326251 0.904375,0.725003 0.150609,0.421702 0.474129,0.509804 0.773335,0.210596 0.299211,-0.299207 0.175224,-0.63469 -0.296364,-0.801927 -1.209683,-0.428982 -3.759739,-3.123572 -4.51764,-4.773692 -2.04702,-4.456821 -2.186221,-10.058817 -0.342631,-13.788789 1.461995,-2.957929 4.246837,-3.2182739 5.422421,-0.506924 0.398688,0.91954 0.463677,0.566271 0.248223,-1.349375 -0.167643,-1.4905609 -0.77932,-3.0824889 -1.437182,-3.7403499 -1.501,-1.501002 -4.968325,-1.43655 -6.526189,0.121312 -1.665262,1.665263 -3.858223,10.7592299 -2.75844,11.4389359 0.332725,0.205634 0.19277,0.905005 -0.345507,1.726515 -0.701693,1.07092 -0.76076,1.649969 -0.263147,2.579766 0.352896,0.659394 0.85747,1.198899 1.121272,1.198899 0.263803,0 0.376526,0.935692 0.250498,2.079315 -0.188281,1.708555 -0.01891,2.134295 0.949963,2.387656 0.797294,0.208498 1.179098,0.788128 1.179098,1.790033 0,1.631001 1.477731,3.603039 2.699906,3.603039 0.508483,0 0.78011,0.724367 0.78011,2.08039 0,1.778925 0.252138,2.175563 1.740007,2.73717 0.957004,0.361229 1.740008,0.976261 1.740008,1.366737 0,0.79984 2.381171,2.647913 2.831503,2.197582 0.160312,-0.160312 0.313445,-1.46025 0.340293,-2.888752 z m -9.213422,-7.606151 c -0.532848,-1.388582 -0.117514,-1.495214 0.703474,-0.18061 0.389379,0.623495 0.472673,1.133628 0.185096,1.133628 -0.287571,0 -0.687431,-0.428858 -0.88857,-0.953018 z m -1.933409,-4.071129 c -0.829665,-0.334778 -0.985598,-1.355883 -0.207055,-1.355883 0.284874,0 0.66818,0.391501 0.851803,0.870003 0.183617,0.478503 0.276789,0.849399 0.207055,0.824215 -0.06974,-0.02518 -0.453051,-0.177435 -0.851803,-0.338335 z m -1.885008,-4.835898 c 0,-0.319002 0,-0.710504 0,-0.870004 0,-0.720448 0.811226,-0.227012 0.927331,0.564056 0.07152,0.487273 -0.107875,0.88595 -0.398648,0.88595 -0.290778,0 -0.528683,-0.261001 -0.528683,-0.580002 z m 0.145,-6.15195 c 0,-0.966728 0.163654,-1.24713 0.453841,-0.7776 0.249609,0.403881 0.319564,1.084249 0.155446,1.511929 -0.442774,1.153848 -0.609287,0.95316 -0.609287,-0.734329 z m 30.015132,24.132028 c 0,-0.319001 -0.261001,-0.580002 -0.580003,-0.580002 -0.319001,0 -0.580002,0.261001 -0.580002,0.580002 0,0.319002 0.261001,0.580003 0.580002,0.580003 0.319002,0 0.580003,-0.261001 0.580003,-0.580003 z m 12.670446,-0.839863 c 0.12818,-0.661212 -0.08084,-0.940094 -0.580003,-0.773879 -0.429214,0.142924 -0.870572,0.725044 -0.980784,1.293601 -0.128181,0.661212 0.08083,0.940093 0.580002,0.773879 0.429214,-0.142924 0.870572,-0.725044 0.980785,-1.293601 z M 41.54016,39.413894 c 0,-0.467279 -0.500252,-0.849597 -1.111673,-0.849597 -1.178298,0 -1.790781,0.978397 -1.354921,2.164387 0.355803,0.968154 2.466594,-0.15698 2.466594,-1.31479 z m 4.060018,0.882656 c 0,-0.255007 0.537425,-0.32311 1.194272,-0.15134 0.899451,0.235212 1.281458,-0.02109 1.547447,-1.038244 0.331436,-1.267402 0.380377,-1.281046 0.794974,-0.221608 0.331205,0.846344 0.451996,0.897368 0.482557,0.203834 0.02245,-0.508811 -0.415984,-1.322398 -0.974236,-1.807971 -1.102243,-0.958742 -3.045014,-1.16366 -3.045014,-0.32118 0,0.287331 0.500038,0.363715 1.111192,0.169741 0.611161,-0.193973 1.306479,-0.03671 1.545156,0.349481 0.296793,0.480223 0.134764,0.58735 -0.512618,0.338926 -0.520616,-0.19978 -1.108669,-0.100959 -1.306786,0.2196 -0.234205,0.378952 -0.646488,0.345248 -1.178583,-0.09635 -0.450099,-0.373552 -0.818366,-0.534946 -0.818366,-0.358653 0,0.176293 -0.800339,0.091 -1.778525,-0.189543 -1.307042,-0.374854 -1.716303,-0.32568 -1.543799,0.185488 0.129109,0.38256 1.108083,0.709485 2.175514,0.726501 2.184017,0.03482 2.791686,0.874627 1.442849,1.994059 -0.77109,0.63995 -0.843741,0.59571 -0.498622,-0.303645 0.320521,-0.835274 0.193657,-0.97203 -0.614165,-0.66204 -0.559975,0.214882 -1.127287,0.390695 -1.260699,0.390695 -0.741812,0 -0.08214,1.110587 0.772441,1.300433 1.227158,0.272613 2.465011,-0.09306 2.465011,-0.728185 z m 6.184225,-0.24591 c -0.185839,-0.484294 0.09199,-0.942232 0.662955,-1.092724 0.73216,-0.19298 0.760946,-0.273953 0.112851,-0.317457 -1.295558,-0.08696 -2.525099,0.862773 -2.070087,1.598999 0.584422,0.945619 1.668899,0.787409 1.294281,-0.188818 z m 12.218775,-0.09675 c -0.192735,-0.19273 -0.692987,-0.213335 -1.111674,-0.04579 -0.462685,0.185152 -0.325254,0.322587 0.35042,0.350418 0.611416,0.02518 0.953983,-0.111899 0.761254,-0.304628 z M 60.05191,38.932866 c -0.132919,-0.11629 -0.894172,-0.522191 -1.691676,-0.902001 -1.367222,-0.651137 -1.38573,-0.639065 -0.324146,0.211438 0.923944,0.740231 2.811771,1.386949 2.015822,0.690563 z m 5.46711,-0.223565 c 0.146967,-0.239251 -0.511962,-0.463898 -1.464292,-0.499215 -1.149367,-0.04263 -1.471449,0.100638 -0.95799,0.42612 0.965107,0.611781 2.070876,0.64515 2.422282,0.07309 z M 40.086048,37.410939 c 0.203198,-0.32878 -0.02964,-0.426016 -0.545771,-0.227948 -1.004808,0.385581 -1.188652,0.801307 -0.354358,0.801307 0.300174,0 0.705236,-0.258012 0.900129,-0.573359 z m 21.174199,0.340097 c 0,-0.128295 -0.783004,-0.506219 -1.740008,-0.839833 -2.014151,-0.702136 -2.377227,-0.30566 -0.435002,0.475018 1.469066,0.590492 2.17501,0.7089 2.17501,0.364815 z m 5.642943,-0.697159 c -0.192734,-0.192729 -0.692987,-0.213335 -1.111673,-0.04579 -0.462685,0.185152 -0.325254,0.322587 0.35042,0.350418 0.611416,0.02518 0.953983,-0.111898 0.761253,-0.304628 z M 32.40512,36.440168 c -0.398751,-0.160899 -1.051254,-0.160899 -1.450006,0 -0.398752,0.160901 -0.0725,0.292545 0.725003,0.292545 0.797504,0 1.123755,-0.131644 0.725003,-0.292545 z m 18.757961,-6.054335 c 0.551844,-0.609776 0.860718,-1.251314 0.686393,-1.425638 -0.720688,-0.720691 -2.766293,3.749509 -2.70106,5.902549 0.06785,2.239335 0.07078,2.236305 0.539767,-0.558338 0.259354,-1.545438 0.923063,-3.308796 1.4749,-3.918573 z m 12.769847,5.517612 c -0.415908,-0.450168 -0.987362,-0.512759 -1.619547,-0.177386 -1.278158,0.678062 -1.787498,0.65722 -1.347242,-0.05513 0.207108,-0.335101 -0.0399,-0.42207 -0.594404,-0.209286 -1.389112,0.533053 0.0308,1.255706 2.338745,1.190285 1.419214,-0.04023 1.711471,-0.219174 1.222448,-0.748485 z M 34.000127,35.664288 c -0.478502,-0.309232 -1.131005,-0.56224 -1.450006,-0.56224 -0.319001,0 -0.188501,0.253008 0.290001,0.56224 0.478502,0.309232 1.131005,0.562239 1.450007,0.562239 0.319001,0 0.1885,-0.253007 -0.290002,-0.562239 z m 34.506046,0.0066 c 0.203198,-0.32878 -0.02964,-0.426016 -0.545771,-0.227947 -1.004808,0.385582 -1.188652,0.801308 -0.354359,0.801308 0.300175,0 0.705237,-0.258011 0.90013,-0.573359 z m 2.845956,-0.68075 c -0.197746,-0.319963 -0.67057,-0.263821 -1.15348,0.136958 -1.102405,0.914915 -1.031581,1.064309 0.335114,0.70691 0.634418,-0.165904 1.002679,-0.545644 0.818366,-0.843868 z m -25.909033,0.323688 c -0.192729,-0.192729 -0.692987,-0.213335 -1.111673,-0.04579 -0.462686,0.185152 -0.325254,0.322588 0.35042,0.350418 0.611415,0.02518 0.953982,-0.111898 0.761253,-0.304628 z m -0.593435,-0.997417 c 0.384721,-0.003 0.574701,-0.207416 0.422184,-0.454198 -0.152524,-0.246783 -1.054544,-0.17775 -2.004501,0.153405 -1.994855,0.695411 -2.379141,1.356746 -0.422178,0.726546 0.717753,-0.231138 1.619773,-0.422727 2.004495,-0.425753 z M 24.431443,33.204268 c 0.261041,0.236483 0.279039,0.09105 0.04002,-0.323197 -0.334853,-0.580279 -0.622476,-0.597262 -1.252991,-0.07398 -0.4501,0.373552 -0.818367,0.809686 -0.818367,0.969186 0,0.159501 0.350264,-6.96e-4 0.77837,-0.355987 0.4281,-0.355294 0.991949,-0.452502 1.252997,-0.216019 z m -4.279404,-4.654719 c -0.572822,-0.568558 -0.639441,-0.501936 -0.324686,0.324682 0.217809,0.572011 0.542123,0.893912 0.7207,0.715337 0.178577,-0.178576 3.71e-4,-0.646584 -0.396014,-1.040019 z m 36.326087,-6.08036 c 0.353036,-1.071972 -1.989861,-0.891634 -2.402991,0.184965 -0.261291,0.680921 -0.03289,0.863411 0.907524,0.725003 0.691189,-0.101731 1.364149,-0.511216 1.495467,-0.909968 z M 44.53175,87.864523 c 0,-0.797503 0.131649,-1.123755 0.292547,-0.725003 0.160899,0.398752 0.160899,1.051255 0,1.450003 -0.160898,0.39876 -0.292547,0.0725 -0.292547,-0.725 z m 5.639765,0.145001 c -0.03776,-0.558253 -0.03776,-1.210755 0,-1.450006 0.03776,-0.239252 -0.302791,-0.435002 -0.756822,-0.435002 -0.454026,0 -1.592305,-0.645224 -2.529513,-1.433836 -0.937209,-0.788607 -1.892491,-1.245359 -2.122844,-1.015005 -0.23036,0.23036 -0.333595,0.157831 -0.229415,-0.161171 0.104186,-0.319001 -0.896539,-2.093183 -2.223828,-3.942625 -1.889782,-2.633212 -2.479314,-3.136457 -2.717793,-2.32001 -0.242488,0.830152 -0.27328,0.806232 -0.151103,-0.117393 0.08439,-0.638003 -0.34774,-2.178629 -0.960298,-3.423616 -1.730473,-3.517106 -2.748667,-6.726428 -2.134033,-6.726428 0.30485,0 0.556826,0.456752 0.559941,1.015004 0.01636,2.926258 6.644329,13.491364 10.064877,16.043537 3.628994,2.707702 7.909535,2.280768 7.909535,-0.788878 0,-1.623648 -1.533272,-2.663215 -2.610012,-1.7696 -0.570496,0.473468 -0.870003,0.504945 -0.870003,0.09143 0,-0.857627 1.936512,-1.831433 3.641992,-1.831433 1.727892,0 3.514038,1.868861 3.146154,3.291862 -0.222755,0.861652 -0.286051,0.819602 -0.340838,-0.226445 -0.07184,-1.371717 -1.637991,-2.5105 -3.364166,-2.44616 -0.922401,0.03439 -0.902269,0.112416 0.162152,0.628601 2.419962,1.173548 0.27397,5.712172 -2.700887,5.712172 -1.31026,0 -1.54153,0.207571 -1.292465,1.160005 0.166843,0.637996 0.142408,1.160006 -0.05429,1.160006 -0.196708,0 -0.388555,-0.45676 -0.426331,-1.015005 z M 18.340059,87.615337 c 0,-0.159501 0.522002,-0.569371 1.160005,-0.910819 0.638002,-0.341447 1.160005,-0.490317 1.160005,-0.330816 0,0.159501 -0.522003,0.569371 -1.160005,0.910819 -0.638003,0.341447 -1.160005,0.490316 -1.160005,0.330816 z M 55.17022,86.704518 c -0.197154,-0.319001 -0.08206,-0.580002 0.25577,-0.580002 0.337828,0 0.614234,0.261001 0.614234,0.580002 0,0.319002 -0.115096,0.580003 -0.25577,0.580003 -0.140673,0 -0.417079,-0.261001 -0.614234,-0.580003 z m 0.915795,-2.658343 c 0.02784,-0.675674 0.165266,-0.813105 0.350415,-0.35042 0.167551,0.418686 0.146943,0.918939 -0.04576,1.111673 -0.192729,0.192729 -0.329812,-0.149837 -0.304629,-0.761253 z M 24.140084,79.778719 c 0,-0.300174 0.258014,-0.705236 0.573362,-0.900129 0.32878,-0.203198 0.426011,0.02964 0.227946,0.545771 -0.38558,1.004808 -0.801308,1.188651 -0.801308,0.354358 z M 10.773595,73.348121 C 10.314929,73.06465 9.372854,72.974982 8.680099,73.148855 6.555915,73.681988 5,71.550038 5,68.106307 c 0,-3.744496 0.761828,-5.181893 2.746416,-5.181893 1.202137,0 1.390934,0.154669 0.8496,0.696003 -0.986324,0.986323 -0.863514,3.33614 0.195606,3.742565 1.87658,0.720108 5.290272,-4.418315 7.574178,-11.400959 1.073022,-3.280576 5.239006,-9.882594 6.501666,-10.303481 0.518986,-0.172995 0.695376,0.364328 0.597368,1.819668 -0.0765,1.135833 0.08573,2.270125 0.360494,2.52065 0.275815,0.251478 0.3129,-0.06408 0.0828,-0.704506 -0.300638,-0.836769 -0.240283,-0.985008 0.216608,-0.531988 0.348356,0.345409 0.457999,1.085046 0.243648,1.643637 -0.306166,0.79786 -0.491871,0.850351 -0.866118,0.244813 -0.375958,-0.608315 -0.645955,-0.538909 -1.280756,0.329235 -0.64001,0.875264 -0.902704,0.940939 -1.285599,0.321406 -0.291103,-0.471018 -0.211509,-0.868543 0.20147,-1.006202 0.375482,-0.125161 0.682692,-0.675617 0.682692,-1.223235 0,-0.54762 0.326251,-1.347163 0.725003,-1.776763 0.496877,-0.535316 0.50843,-0.659439 0.03671,-0.394472 -1.298393,0.729339 -2.556442,3.948802 -1.867457,4.778981 0.470283,0.566659 0.229687,1.620765 -0.939964,4.118116 -2.864342,6.115796 -4.03749,8.286537 -4.478327,8.286537 -0.686683,0 -0.509126,-1.426 0.289003,-2.321037 0.61884,-0.693979 0.57324,-0.697963 -0.311414,-0.0272 -0.570033,0.4322 -0.996729,1.202618 -0.948218,1.712034 0.183148,1.923178 -0.112584,2.328409 -2.60924,3.575298 -3.324841,1.660501 -4.601775,1.215042 -4.285395,-1.494962 0.245579,-2.103582 -0.134595,-2.540643 -1.130042,-1.299125 -0.76391,0.952747 -0.574487,3.713264 0.315904,4.603654 0.38685,0.386851 0.695069,0.977421 0.684925,1.312372 -0.01015,0.334952 -0.401646,0.102365 -0.870004,-0.516857 -0.837141,-1.106802 -0.851559,-1.105549 -0.851559,0.07398 0,0.659909 0.374768,1.510866 0.832814,1.891011 1.250746,1.038031 4.810663,1.20836 5.591474,0.267538 0.36695,-0.442148 0.898609,-0.660872 1.181465,-0.486054 0.282855,0.174813 0.514282,-0.08906 0.514282,-0.586388 0,-0.503616 0.491204,-0.904236 1.108687,-0.904236 0.73426,0 1.051022,-0.342787 0.937957,-1.015004 -0.0939,-0.558253 -0.481704,-0.943287 -0.861797,-0.855632 -0.380087,0.08765 -0.517931,-0.120773 -0.306317,-0.463166 0.270206,-0.437206 0.626472,-0.421923 1.196731,0.05133 0.44659,0.370633 0.644029,0.945636 0.438749,1.277786 -0.218603,0.353703 -0.09189,0.43002 0.305847,0.184203 0.373492,-0.230829 0.52036,-0.676509 0.326367,-0.990401 -0.193999,-0.313891 0.258496,-1.100815 1.005539,-1.748719 0.747043,-0.647909 1.390887,-1.678057 1.430762,-2.289229 0.125095,-1.917361 0.274614,-2.022249 0.846154,-0.593558 0.467076,1.167569 0.290564,1.627528 -1.112886,2.900013 -0.917407,0.831793 -1.549221,1.851449 -1.404041,2.265902 0.154617,0.441388 -0.481402,1.034893 -1.535342,1.432711 -0.989612,0.373539 -1.946825,1.143973 -2.127136,1.712074 -0.441811,1.39203 -2.13137,2.240794 -3.175717,1.59535 z m 5.880089,-13.580574 c 0.847592,0.523841 1.268605,-1.30518 0.566935,-2.462929 -0.528974,-0.872805 -0.574574,-0.776907 -0.269916,0.567649 0.25733,1.135685 0.151665,1.567845 -0.354532,1.450006 -0.396618,-0.09233 -0.799424,0.164901 -0.895124,0.571627 -0.0957,0.406727 -0.04077,0.470353 0.122038,0.141388 0.162824,-0.328966 0.53659,-0.44945 0.830599,-0.267741 z m 2.011826,-5.868623 c 0.217048,-2.7355 -0.408763,-2.109687 -0.720665,0.720665 -0.13169,1.195026 -0.06091,1.994246 0.157302,1.776038 0.218209,-0.218209 0.471722,-1.341726 0.563363,-2.496703 z m -8.554238,16.169317 c 0.418687,-0.167545 0.918939,-0.146943 1.111674,0.04576 0.192729,0.192729 -0.149838,0.329812 -0.761253,0.304628 -0.675674,-0.02784 -0.813106,-0.165265 -0.350421,-0.350414 z m 25.094652,-1.102132 c 0.02784,-0.675674 0.165266,-0.813106 0.350414,-0.35042 0.167545,0.418686 0.146944,0.918944 -0.04576,1.111673 -0.192729,0.192729 -0.329813,-0.149838 -0.304629,-0.761253 z M 21.266659,58.814719 c 0.356069,-0.665321 0.788995,-1.068081 0.962061,-0.895014 0.478073,0.478073 -0.28771,2.104696 -0.990853,2.104696 -0.428946,0 -0.420119,-0.370888 0.02877,-1.209682 z m 5.193435,-0.820327 c 0,-0.478502 0.252812,-0.870004 0.561797,-0.870004 0.30899,0 0.411569,0.391502 0.227952,0.870004 -0.183623,0.478502 -0.436429,0.870004 -0.561802,0.870004 -0.125373,0 -0.227947,-0.391502 -0.227947,-0.870004 z m 43.21019,-3.00341 c 0.638003,-0.171286 1.528701,-0.609594 1.979328,-0.974021 0.643931,-0.520746 0.758516,-0.476344 0.535273,0.207415 -0.156224,0.478502 -1.046922,0.91681 -1.979328,0.974021 -1.065094,0.06535 -1.264069,-0.01177 -0.535273,-0.207415 z M 22.400076,53.0986 c 0,-0.300175 0.258015,-0.705232 0.573362,-0.900128 0.32878,-0.203197 0.426012,0.02961 0.227947,0.545773 -0.38558,1.004807 -0.801309,1.18865 -0.801309,0.354355 z m 12.336092,-0.436166 c 0.564325,-0.147056 1.347329,-0.137385 1.740008,0.02149 0.392679,0.158878 -0.06904,0.279197 -1.026042,0.267377 -0.957004,-0.01182 -1.278291,-0.14181 -0.713966,-0.288867 z M 63.89887,52.530665 c -0.185641,-0.30038 -0.06802,-0.712715 0.26139,-0.916301 0.329406,-0.203585 0.423837,-0.653449 0.209845,-0.999696 -0.260265,-0.421119 -0.119382,-0.455856 0.425542,-0.104923 0.44804,0.288539 1.313572,0.524617 1.923398,0.524617 0.609833,0 1.23953,0.391501 1.399326,0.870003 0.235939,0.706488 0.129126,0.736845 -0.568304,0.161518 -0.683028,-0.563448 -1.110119,-0.532491 -2.086257,0.15122 -0.708363,0.496158 -1.37014,0.628756 -1.56494,0.313562 z m 12.151442,-0.6263 c 0.197155,-0.319001 0.473561,-0.580002 0.614234,-0.580002 0.140674,0 0.25577,0.261001 0.25577,0.580002 0,0.319002 -0.276406,0.580003 -0.614234,0.580003 -0.337829,0 -0.452924,-0.261001 -0.25577,-0.580003 z M 34.000127,50.81282 c 0,-0.319001 0.261002,-0.74131 0.580003,-0.938464 0.319001,-0.197153 0.580002,-0.09746 0.580002,0.221542 0,0.319001 -0.261001,0.74131 -0.580002,0.938464 -0.319001,0.197153 -0.580003,0.09746 -0.580003,-0.221542 z m 46.690205,-0.463463 c 0.638003,-0.175555 1.375627,-0.615249 1.639163,-0.977098 0.3166,-0.434704 0.39957,-0.362747 0.24457,0.212096 -0.129022,0.478502 -0.866646,0.918196 -1.639163,0.977099 -1.107509,0.08444 -1.159234,0.03959 -0.24457,-0.212097 z M 30.578339,49.175731 c 0.422328,-0.703245 0.89271,-1.153783 1.045298,-1.001195 0.152587,0.152588 -0.19295,0.727971 -0.767866,1.278628 -0.998729,0.956591 -1.011089,0.944231 -0.277432,-0.277433 z m 5.451797,0.408624 c 0.197155,-0.319001 0.473561,-0.580002 0.614235,-0.580002 0.140673,0 0.255769,0.261001 0.255769,0.580002 0,0.319002 -0.276406,0.580003 -0.614234,0.580003 -0.337828,0 -0.452924,-0.261001 -0.25577,-0.580003 z m 42.050185,0.0571 c 0,-0.602299 1.103287,-1.474209 1.430095,-1.130182 0.106106,0.111694 -0.172261,0.539622 -0.61859,0.950951 -0.44633,0.411331 -0.811505,0.491985 -0.811505,0.179233 z M 40.960158,48.990001 c 0,-0.326897 -0.668209,-0.84841 -1.484905,-1.158919 -0.816702,-0.310508 -1.324819,-0.823597 -1.129149,-1.140197 0.210442,-0.340502 1.044608,-0.06635 2.042137,0.671152 0.927505,0.685734 1.550718,1.466284 1.384918,1.734556 -0.411622,0.666013 -0.813001,0.613388 -0.813001,-0.106592 z m 23.393434,-0.250132 c 0,-0.46447 0.221758,-0.707436 0.492799,-0.539925 0.271035,0.16751 0.342637,0.547531 0.159101,0.84449 -0.469002,0.758865 -0.6519,0.673416 -0.6519,-0.304565 z m 9.541895,-0.528144 c -0.787551,-0.59828 -0.84797,-0.914278 -0.290002,-1.51665 0.508013,-0.548441 0.513569,-0.653531 0.01989,-0.376358 -0.376711,0.211503 -0.827454,0.153933 -1.001658,-0.127934 -0.174204,-0.281866 1.494162,-0.642054 3.707486,-0.800416 5.132576,-0.367234 9.892907,-2.588992 11.911257,-5.559267 1.680523,-2.473113 1.800583,-3.721271 0.484523,-5.037327 -0.646349,-0.646352 -1.440193,-0.833263 -2.465011,-0.580389 -1.169888,0.288671 -1.357322,0.21597 -0.82909,-0.321586 1.038361,-1.056681 3.611925,-0.14403 4.386275,1.555483 0.56494,1.239907 0.488362,1.8439 -0.454728,3.586657 -1.452732,2.684535 -5.482109,5.748657 -8.23994,6.266029 -1.186076,0.22251 -2.617592,1.000335 -3.197252,1.737254 -0.665362,0.845872 -1.395109,1.201766 -1.993411,0.972175 -0.630329,-0.24188 -0.804521,-0.136791 -0.524438,0.316393 0.553467,0.89553 -0.266221,0.83377 -1.513905,-0.114064 z m 11.296964,-0.768551 c 0.562162,-0.14664 0.848086,-0.548192 0.635387,-0.892338 -0.229913,-0.372014 -0.115206,-0.457922 0.282903,-0.211876 0.368289,0.227616 0.669618,0.09394 0.669618,-0.297053 0,-0.390995 0.167696,-0.543206 0.372652,-0.338248 0.573414,0.573411 -0.975936,2.149156 -2.038674,2.073412 -0.789343,-0.05626 -0.776543,-0.11096 0.07811,-0.333897 z M 65.320265,45.694323 c 0.797503,-0.138625 1.776258,-0.674969 2.175009,-1.191875 0.398752,-0.516906 0.725004,-0.681144 0.725004,-0.364972 0,1.060748 -1.379038,1.967556 -2.871013,1.887878 l -1.479006,-0.07899 z m -2.900013,-1.329991 c 0.478502,-0.309232 1.131005,-0.562239 1.450007,-0.562239 0.319001,0 0.1885,0.253007 -0.290002,0.562239 -0.478502,0.309232 -1.131005,0.56224 -1.450006,0.56224 -0.319002,0 -0.188501,-0.253008 0.290001,-0.56224 z m 3.190014,0 c 0.197155,-0.319001 0.473561,-0.580002 0.614235,-0.580002 0.140673,0 0.255769,0.261001 0.255769,0.580002 0,0.319002 -0.276406,0.580003 -0.614234,0.580003 -0.337829,0 -0.452924,-0.261001 -0.25577,-0.580003 z m 0.290001,-1.695334 c 0,-0.274407 0.634251,-0.658109 1.409447,-0.852671 0.775197,-0.194562 1.819201,-0.763502 2.32001,-1.264311 0.500809,-0.500809 0.910564,-0.660935 0.910564,-0.355837 0,0.589173 -1.93613,1.976931 -3.625016,2.598303 -0.558253,0.205391 -1.015005,0.148923 -1.015005,-0.125484 z m 22.910101,-0.624676 c 0.577387,-0.638003 1.180294,-1.160005 1.339794,-1.160005 0.159501,0 -0.182405,0.522002 -0.759791,1.160005 -0.577387,0.638003 -1.180294,1.160005 -1.339795,1.160005 -0.1595,0 0.182405,-0.522002 0.759792,-1.160005 z M 75.337506,39.091025 c 0.564963,-0.328907 0.850887,-0.883299 0.635387,-1.231983 -0.225081,-0.364196 -0.125547,-0.46941 0.23391,-0.247254 0.344144,0.212695 0.745697,-0.07323 0.892339,-0.635387 0.235412,-0.902488 0.274486,-0.908167 0.333896,-0.04853 0.07651,1.10718 -1.414011,2.805254 -2.43916,2.778804 -0.375963,-0.0097 -0.221335,-0.286743 0.343628,-0.61565 z m 15.830161,-1.276736 c 0.217808,-0.572011 0.542122,-0.893912 0.720699,-0.715336 0.178577,0.178575 3.71e-4,0.646583 -0.396014,1.040019 -0.572822,0.568557 -0.639441,0.501936 -0.324685,-0.324683 z m -17.727366,-0.04897 c 0,-0.120441 0.456752,-0.577193 1.015004,-1.015004 0.919919,-0.721449 0.940434,-0.700934 0.218986,0.218983 -0.757698,0.966138 -1.23399,1.273383 -1.23399,0.796021 z m 3.480015,-3.198978 c 0,-0.284872 0.428419,-0.682349 0.952039,-0.883282 0.796042,-0.305468 0.831921,-0.220595 0.218986,0.517949 -0.835279,1.006447 -1.171025,1.111192 -1.171025,0.365333 z m -39.768577,-1.8642 c -0.265821,-0.430108 0.0017,-0.515616 0.810421,-0.258963 1.503772,0.47728 5.318008,-0.195254 5.318008,-0.937683 0,-0.302326 -0.22384,-0.411342 -0.497427,-0.242257 -0.273582,0.169084 -1.322627,0.07076 -2.331199,-0.218494 -1.132988,-0.324936 -1.70559,-0.318514 -1.498355,0.0168 0.184481,0.298501 0.755024,0.542727 1.267862,0.542727 0.512844,0 0.800131,0.132313 0.638415,0.294029 -0.161717,0.161716 -1.139775,0.12488 -2.173461,-0.08186 -1.123106,-0.224622 -1.605018,-0.545481 -1.197532,-0.797322 0.43299,-0.267603 0.155853,-0.553466 -0.759246,-0.78314 -2.21652,-0.556312 -2.349179,-1.824397 -0.190711,-1.822944 1.140448,7.54e-4 1.757913,-0.267383 1.666632,-0.723783 -0.07975,-0.398752 -0.0145,-0.725003 0.145,-0.725003 0.377611,0 2.610012,2.232402 2.610012,2.610011 0,1.027971 0.06584,1.084246 0.488762,0.417772 0.363215,-0.572376 0.838684,-0.453011 2.077703,0.521601 l 1.6067,1.263833 -1.863172,0.783405 c -2.25357,0.947557 -5.572734,1.024191 -6.118412,0.141265 z m 42.071297,-1.065564 c 0.331941,-0.620237 0.8902,-1.304876 1.240573,-1.521419 0.35038,-0.216543 0.188455,0.290922 -0.359822,1.127703 -1.160944,1.771827 -1.762117,2.040563 -0.880751,0.393716 z M 34.496888,27.736342 C 33.9726,27.596997 33.421546,26.84427 33.272311,26.063615 c -0.227407,-1.189607 -0.04408,-1.419371 1.132478,-1.419371 0.772094,0 1.257643,-0.236499 1.078996,-0.525552 -0.178646,-0.289054 -0.817095,-0.396817 -1.418779,-0.239473 -1.358209,0.35518 -1.901103,-0.478778 -2.08704,-3.205994 -0.182608,-2.67833 0.157778,-3.580335 1.200159,-3.180337 0.4521,0.173488 0.822002,0.02651 0.822002,-0.326624 0,-1.022644 2.222907,-2.966447 3.335015,-2.916277 0.672496,0.03034 0.505055,0.232941 -0.496198,0.600401 -1.585315,0.581811 -2.838817,2.640874 -2.838817,4.663177 0,0.841498 -0.266151,1.092636 -0.900129,0.849357 -0.516156,-0.198069 -0.748969,-0.100833 -0.545771,0.227947 0.194893,0.315348 0.730456,0.573359 1.190131,0.573359 0.459675,0 0.835772,0.25192 0.835772,0.559821 0,0.307901 0.744282,1.417156 1.653964,2.465011 2.690243,3.098872 1.986028,4.536847 -1.737206,3.547282 z m 2.01175,-1.627592 c -0.0558,-0.311026 -0.447327,-0.657148 -0.870003,-0.769159 -0.568281,-0.150597 -0.555121,-0.05476 0.05052,0.367841 0.651952,0.454915 0.533631,0.6312 -0.580003,0.864166 l -1.399024,0.292669 1.450006,-0.09501 c 0.797504,-0.05225 1.404332,-0.349484 1.348506,-0.66051 z m 2.808129,-9.991133 c -0.643008,-1.500963 -0.629134,-1.538495 0.18396,-0.497558 0.870537,1.114479 0.879892,1.114479 0.92522,0 0.02517,-0.619223 0.174157,-0.809442 0.331048,-0.422709 0.156896,0.386733 0.05353,1.117272 -0.229745,1.623418 -0.428512,0.76571 -0.631814,0.647616 -1.210483,-0.703151 z m -9.629098,-0.112634 c -0.176495,-0.285575 0.0558,-0.663785 0.516237,-0.840466 0.558409,-0.214282 0.729748,-0.04141 0.514613,0.519227 -0.373869,0.974297 -0.586318,1.040502 -1.03085,0.321239 z"
     style="fill:#000000;stroke-width:0.58000255" />
</svg>
