<?xml version="1.0" encoding="UTF-8" standalone="no"?>
<svg
   xmlns:dc="http://purl.org/dc/elements/1.1/"
   xmlns:cc="http://creativecommons.org/ns#"
   xmlns:rdf="http://www.w3.org/1999/02/22-rdf-syntax-ns#"
   xmlns:svg="http://www.w3.org/2000/svg"
   xmlns="http://www.w3.org/2000/svg"
   id="svgMR7"
   version="1.1"
   viewBox="0 0 100 100"
   height="100"
   width="100">
  <defs
     id="defs2" />
  <metadata
     id="metadata5">
    <rdf:RDF>
      <cc:Work
         rdf:about="">
        <dc:format>image/svg+xml</dc:format>
        <dc:type
           rdf:resource="http://purl.org/dc/dcmitype/StillImage" />
        <dc:title></dc:title>
      </cc:Work>
    </rdf:RDF>
  </metadata>
  <path
     d="m 57.495049,5.0088672 c -0.0625,0.0562 5e-4,0.38753 0.13987,1.03975 0.26263,1.23002 0.15186,1.3772 -1.03388,1.3772 -0.7302,0 -2.0869,-0.46933 -3.01459,-1.04268 -1.72874,-1.06842 -2.12399,-0.71049 -1.17473,1.06322 0.43111,0.80555 0.30816,1.00761 -0.77859,1.28037 -0.70962,0.17808 -2.06647,0.19803 -3.01556,0.044 -1.93363,-0.31378 -2.23683,0.24339 -0.71306,1.3106898 1.27896,0.89581 0.55289,1.61022 -2.15187,2.11568 -1.53614,0.28707 -1.78378,0.48267 -1.31656,1.04562 0.31633,0.38117 0.99894,0.6935 1.5161,0.6935 0.51715,0 0.93997,0.23844 0.93997,0.53014 0,0.29169 0.22536,0.39129 0.5008,0.22106 0.87971,-0.54369 0.538,-1.25057 -0.626,-1.29504 -0.93586,-0.0358 -0.87221,-0.12088 0.3756,-0.50374 1.72288,-0.52862 6.77648,-0.39336 6.43021,0.17215 -0.12678,0.20704 -1.51288,0.27013 -3.08012,0.14085 -2.64172,-0.21791 -2.57512,-0.0959 0.28072,0.51352 0.61974,0.13224 1.1268,0.47454 1.1268,0.76098 0,0.28642 -0.19566,0.39984 -0.43429,0.25236 -0.23863,-0.14748 -0.83173,0.17223 -1.31851,0.71012 -0.99127,1.09534 -2.14231,0.82211 -1.21973,-0.28953 0.32003,-0.38561 0.76662,-0.58716 0.99182,-0.44798 0.2252,0.13918 0.55081,0.0236 0.72382,-0.25627 0.50963,-0.8246 -2.06047,-0.58772 -2.7593,0.25432 -0.34841,0.41981 -0.75006,0.64767 -0.89205,0.50568 -0.32263,-0.32263 -1.60217,0.70543 -1.60217,1.28722 0,0.23633 0.67089,0.35171 1.49067,0.25627 0.81977,-0.0954 1.37009,0.0216 1.22266,0.26018 -0.49407,0.79942 0.6437,0.44435 2.0032,-0.62502 0.74025,-0.58229 1.45831,-0.9469 1.59532,-0.80989 0.13701,0.13701 -0.88902,0.94973 -2.28001,1.80562 -1.391,0.85589 -2.52944,1.34012 -2.52944,1.07692 0,-0.26321 -0.42934,-0.70873 -0.95465,-0.98987 -0.73388,-0.39276 -1.22685,-0.28465 -2.1284,0.46657 l -1.17375,0.97812 1.40654,0.0166 c 0.80283,0.01 1.27599,-0.19577 1.10137,-0.4783 -0.17968,-0.29074 0.0364,-0.36327 0.52428,-0.17607 1.17913,0.45248 0.64642,3.18763 -1.0554,5.41882 -1.5096,1.9792 -1.04665,2.30296 0.99574,0.69643 1.00745,-0.79246 1.50134,-0.92049 1.92201,-0.49982 0.67371,0.67371 0.75247,3.90902 0.13009,5.32198 -0.24265,0.55088 0.38316,0.0276 1.38992,-1.16299 1.00675,-1.19062 2.09578,-3.04984 2.41988,-4.13161 0.32411,-1.08176 0.87816,-1.96701 1.23147,-1.96701 0.3533,0 0.79651,-0.24965 0.98497,-0.55459 0.2306,-0.37312 -0.006,-0.44348 -0.72186,-0.21617 -1.07103,0.33993 -1.50625,-0.39912 -0.57416,-0.97519 0.81925,-0.50632 2.34021,0.61724 3.00383,2.21936 0.82406,1.98945 0.34344,4.38281 -1.744,8.68577 -1.82387,3.75963 -3.04216,5.36404 -4.07389,5.36404 -0.36657,0 -1.27234,-0.91529 -2.01299,-2.0345 -1.5314,-2.31409 -1.8627,-2.06623 -2.3612,1.76748 -0.18176,1.39788 -0.64982,2.66942 -1.06909,2.90405 -0.85547,0.47874 -0.99865,2.15593 -0.22497,2.6341 0.33776,0.20874 0.40621,-0.13321 0.19563,-0.97226 -0.244,-0.97213 -0.1328,-1.29406 0.447,-1.29406 1.91057,0 1.37743,4.26736 -0.9615,7.69687 -0.94841,1.39065 -1.43495,1.75441 -1.72248,1.28918 -0.29543,-0.47803 -0.77324,-0.21397 -1.81932,1.00453 -2.07324,2.41497 -2.62257,3.92508 -2.65072,7.28704 -0.0186,2.22314 -0.32642,3.50312 -1.18353,4.919 -1.02199,1.68824 -1.23595,1.82011 -1.8154,1.12191 -0.36127,-0.43529 -1.52901,-1.28183 -2.59497,-1.88093 -1.06597,-0.59911 -1.93767,-1.28589 -1.93767,-1.52686 0,-0.24098 -0.18724,-0.32313 -0.41571,-0.18193 -0.22847,0.1412 -0.37911,-0.2401 -0.33549,-0.84706 0.10925,-1.51996 2.04846,-2.41148 4.8828,-2.2448 1.78806,0.10515 2.37904,-0.0373 2.37881,-0.57221 -5e-4,-1.2259 -1.59677,-2.54312 -3.08208,-2.54312 -0.78363,0 -1.42513,-0.22536 -1.42513,-0.5008 0,-0.27544 0.20969,-0.5008 0.46657,-0.5008 0.25688,0 0.60988,-0.50706 0.78348,-1.1268 0.44949,-1.60472 1.40019,-3.52111 2.13036,-4.293 0.67797,-0.71672 0.81682,-1.73413 0.30615,-2.2448 -0.17595,-0.17595 -0.98431,0.23854 -1.79584,0.92139 -0.81153,0.68286 -2.43814,1.48382 -3.61516,1.78019 -3.084,0.77656 -6.28837,4.38003 -6.28837,7.07186 0,0.64542 0.37431,1.70762 0.83141,2.36022 0.77177,1.10189 0.77169,1.23025 0.005,1.79095 -0.97808,0.71518 -3.36198,6.80116 -3.29042,8.40015 0.0474,1.05793 0.0706,1.0506 0.45092,-0.13694 0.28404,-0.88692 0.41556,-0.98804 0.45091,-0.34626 0.0327,0.59375 0.26562,0.77151 0.67589,0.51547 0.98662,-0.61572 2.3788,-0.71311 2.3788,-0.16628 0,0.27372 -0.30345,0.49787 -0.67393,0.49787 -0.37047,0 -1.07084,0.43975 -1.55718,0.97715 -0.82804,0.91498 -0.83322,1.12744 -0.0792,3.3403 0.44284,1.29967 0.72862,2.43953 0.6348,2.53335 -0.23834,0.23834 -1.76386,-3.38066 -1.93767,-4.5972 -0.14998,-1.04979 -1.00622,-1.85469 -2.58518,-2.42966 -0.90053,-0.32792 -0.9033,-0.28723 -0.0851,0.9615 0.79991,1.22077 0.80057,1.3614 0.0117,2.23306 -1.22933,1.35839 -0.69744,2.09803 0.73067,1.01627 1.1825,-0.89573 1.19329,-0.96327 0.36386,-2.22915 -0.47039,-0.7179 -0.63302,-1.30482 -0.36093,-1.30482 1.59607,0 1.6901,4.33943 0.13302,6.13481 -0.69179,0.79767 -0.66584,0.8764 0.28953,0.8764 0.57732,0 1.18936,-0.22536 1.3596,-0.5008 0.17023,-0.27544 0.49145,-0.5008 0.71403,-0.5008 0.66497,0 3.04197,3.90477 3.04197,4.99725 0,1.06512 -0.72643,1.36194 -1.252,0.51156 -0.39892,-0.64549 -2.60223,-0.65129 -2.99991,-0.008 -0.18817,0.30446 0.26151,0.38043 1.1757,0.19759 1.1622,-0.23244 1.59944,-0.0762 2.02864,0.72576 0.69379,1.29637 0.75948,3.70125 0.0714,2.61356 -0.25304,-0.40001 -0.36736,-0.87639 -0.25431,-1.05931 0.11305,-0.18292 -0.2788,-0.75763 -0.87053,-1.27646 -0.59174,-0.51883 -0.91144,-0.66121 -0.71012,-0.31691 0.2302,0.39369 0.0655,0.626 -0.44407,0.626 -0.4457,0 -0.66524,0.23469 -0.48809,0.52134 0.17716,0.28665 0.80998,0.38411 1.40655,0.21715 0.76545,-0.21424 0.88445,-0.16514 0.40494,0.16725 -0.47471,0.32907 -0.51243,0.57448 -0.1252,0.8138 0.30485,0.18841 0.56098,0.949 0.56829,1.69021 l 0.0127,1.34786 0.83435,-1.34395 c 0.45848,-0.73911 1.26841,-1.45808 1.80073,-1.59728 0.75756,-0.19811 0.89853,-0.53166 0.64654,-1.53566 -0.48444,-1.93014 0.36812,-1.5425 1.6589,0.75414 0.77056,1.37101 1.079,2.59866 0.94389,3.756 -0.2181,1.8682 0.27233,2.125 1.82225,0.9527 1.69185,-1.27965 2.18472,-0.93191 1.78411,1.25885 -0.20055,1.09672 -0.64867,2.3362 -0.99574,2.7544 -0.34706,0.41819 -0.41319,0.76 -0.14671,0.76 0.69426,0 2.00524,-1.61834 2.02863,-2.504 0.0611,-2.31619 0.55812,-4.02784 1.52686,-5.25938 l 1.0906,-1.38601 -0.0352,3.19749 c -0.0194,1.75865 -0.20688,3.63656 -0.41668,4.1727 -0.36411,0.93041 -0.39448,0.92471 -0.66904,-0.12521 -0.15821,-0.60499 -0.0834,-1.10039 0.16628,-1.10039 0.24965,0 0.44432,-0.95778 0.43331,-2.1284 l -0.0196,-2.12841 -0.73457,1.35373 c -0.40415,0.74452 -0.71947,1.87132 -0.70034,2.504 0.0191,0.63269 0.0445,2.22074 0.0567,3.52909 0.0254,2.72376 0.67005,3.14272 1.19037,0.77369 l 0.35311,-1.6051 0.8764,1.08278 c 0.48238,0.59572 1.05452,0.92357 1.27059,0.72871 0.21607,-0.19487 0.24244,-0.0925 0.0597,0.22693 -0.37724,0.65932 0.0836,2.17339 0.66121,2.17339 0.20984,0 0.30122,-0.68723 0.20345,-1.52686 l -0.17802,-1.52587 1.52882,0.89987 c 0.84097,0.49533 1.88763,1.29524 2.32501,1.77726 1.02675,1.13157 1.14188,1.10603 1.13267,-0.2504 -0.006,-0.91118 -0.10041,-0.98305 -0.49298,-0.3756 -0.267,0.41316 -0.48897,0.51418 -0.49298,0.22497 -0.0125,-0.85503 1.11706,-1.72844 2.22035,-1.71662 0.56465,0.006 1.98482,0.44579 3.15544,0.97716 2.38785,1.08388 2.47861,1.0113 1.27743,-1.02215 -0.59186,-1.00193 -1.20572,-1.41091 -2.01494,-1.34394 -0.80423,0.0666 -1.08242,0.33308 -0.90085,0.8627 0.14448,0.42143 -0.18805,0.23358 -0.73947,-0.41668 -0.91442,-1.07832 -1.25297,-1.03988 -1.0417,0.11738 0.0439,0.24037 -0.26711,0.30371 -0.69154,0.14085 -0.42443,-0.16287 -0.77174,-0.085 -0.77174,0.17313 0,0.25815 -0.37502,0.32553 -0.83336,0.14965 -0.49659,-0.19057 -0.70737,-0.1165 -0.52232,0.18291 0.17078,0.27634 -0.008,0.50178 -0.39712,0.50178 -0.38892,0 -0.5692,-0.22186 -0.40103,-0.49396 0.16815,-0.27209 0.0706,-0.35037 -0.21617,-0.17313 -0.69164,0.42746 -1.54471,-0.69282 -1.36644,-1.79486 0.078,-0.48202 -0.0629,-0.8764 -0.31398,-0.8764 -0.25107,0 -0.45679,0.46381 -0.45679,1.03095 0,0.56713 -0.22536,0.89209 -0.5008,0.72185 -0.27544,-0.17023 -0.51462,-0.0143 -0.5321,0.34626 -0.0175,0.36056 -0.24155,0.13481 -0.49689,-0.50178 -0.54257,-1.3527 -0.48548,-5.43082 0.0636,-4.54242 0.20436,0.33066 0.24219,0.94025 0.0831,1.35471 -0.18829,0.49069 -0.0851,0.62704 0.29638,0.39125 0.32225,-0.19916 0.58589,-0.13655 0.58589,0.13889 0,0.27544 -0.22536,0.63966 -0.5008,0.80989 -0.27544,0.17023 -0.49391,0.57768 -0.48515,0.90574 0.009,0.32805 0.34675,0.15914 0.7512,-0.3756 0.8231,-1.08824 2.08028,-1.441 2.53139,-0.71109 0.17878,0.28926 0.62801,0.22129 1.12876,-0.17019 0.73433,-0.57411 0.75507,-0.55241 0.18095,0.18193 -0.53322,0.68204 -0.53322,0.90468 0,1.23732 1.21755,0.75956 2.24547,0.65652 3.30607,-0.33158 0.5824,-0.54258 1.68807,-1.00937 2.45705,-1.03681 l 1.39775,-0.0499 -1.252,-0.44114 -1.25201,-0.44211 1.25201,0.20638 c 2.83942,0.46776 5.01112,1.20916 5.7729,1.97093 0.44488,0.44489 1.01874,0.80891 1.2745,0.80891 0.68985,0 0.56318,-0.88532 -0.16139,-1.12876 -0.94471,-0.3174 2.76001,-1.41336 5.09115,-1.50631 2.31135,-0.0922 2.50365,-0.34342 0.99084,-1.28819 -0.57971,-0.36203 -0.91392,-0.43245 -0.74338,-0.1565 0.17055,0.27594 -0.16704,0.65316 -0.75022,0.83825 -1.26893,0.40274 -4.41984,0.44732 -4.79967,0.0675 -0.14839,-0.1484 0.66468,-0.25737 1.8066,-0.2416 1.14193,0.0158 2.46153,-0.29894 2.93243,-0.69936 0.99362,-0.84492 3.15923,-1.69327 5.51174,-2.15872 1.34354,-0.26582 1.54311,-0.45706 1.07006,-1.02703 -0.65649,-0.79103 -1.66795,-0.4372 -1.14929,0.402 0.20051,0.32443 0.10251,0.39912 -0.24258,0.18585 -0.95046,-0.58742 -0.67126,-1.09192 1.14441,-2.06972 0.94719,-0.5101 1.58856,-1.14407 1.42513,-1.4085 -0.16342,-0.26444 -0.0608,-0.33359 0.22888,-0.15454 0.73857,0.45646 3.6784,-0.19596 3.34128,-0.74142 -0.15228,-0.2465 -0.42965,-0.35491 -0.6172,-0.2416 -0.18754,0.1133 -0.61839,-0.0945 -0.95758,-0.46168 -0.49835,-0.53944 -0.22351,-1.00425 1.43491,-2.42379 1.12877,-0.96619 2.53358,-1.84153 3.1212,-1.94452 0.9101,-0.1595 0.84549,-0.24652 -0.43429,-0.5859 -0.82632,-0.21913 -2.35132,-0.96893 -3.38921,-1.66672 -1.03789,-0.69779 -2.02862,-1.12779 -2.20078,-0.95564 -0.17215,0.17216 0.058,0.45527 0.51058,0.62894 0.45259,0.17367 0.82261,0.61054 0.82261,0.97128 0,0.36074 0.2817,0.75132 0.626,0.8676 0.3443,0.11627 -0.0983,0.58784 -0.98399,1.04757 -1.06416,0.55236 -1.51388,1.08881 -1.32439,1.58261 0.15771,0.41099 0.50169,0.74729 0.76392,0.74729 0.26222,0 0.3224,0.24975 0.134,0.5546 -0.2389,0.38655 -0.47494,0.34866 -0.78054,-0.1252 -0.27837,-0.43163 -0.5752,-0.49713 -0.81381,-0.179 -0.20658,0.27544 -1.23773,0.5008 -2.29175,0.5008 -2.45674,0 -3.33335,-1.11067 -2.97643,-3.77166 0.17905,-1.33498 0.006,-2.36018 -0.53993,-3.1926 -0.74756,-1.14091 -0.73198,-1.38827 0.22106,-3.54277 0.56344,-1.27376 0.96016,-2.93082 0.88129,-3.68265 -0.0814,-0.77632 0.36088,-2.18307 1.0241,-3.25618 1.20254,-1.94575 2.19538,-7.50274 1.47012,-8.228 -0.21893,-0.21894 -0.1495,-1.29219 0.15356,-2.38565 0.61025,-2.20176 0.25981,-8.61865 -0.51253,-9.391 -0.31545,-0.31544 -0.69393,0.28494 -1.07594,1.70488 -0.67251,2.49971 -1.94559,5.15561 -2.30055,4.80064 -0.13137,-0.13137 0.23526,-1.7069 0.81477,-3.50071 1.40431,-4.34679 1.50775,-8.07735 0.29833,-10.76428 -0.52385,-1.16382 -1.11762,-2.11569 -1.31949,-2.11569 -0.20187,0 -0.5272,-1.2874 -0.72381,-2.86102 -0.23731,-1.89936 -0.84084,-3.56217 -1.79389,-4.94737 -1.45838,-2.11968 -2.32174,-2.70843 -3.97608,-2.70843 -1.24553,0 -2.21068,-2.89078 -1.5474,-4.63534 0.63891,-1.68046 2.34817,-2.83085 3.71003,-2.49813 1.5478,0.37814 2.43359,1.17533 2.14406,1.92984 -0.1536,0.40029 0.0227,0.54186 0.46363,0.37267 0.46198,-0.17728 1.00982,0.35393 1.56403,1.51609 0.69483,1.45709 1.05969,1.736 1.97092,1.50729 1.19944,-0.30104 3.2151,0.52921 3.2151,1.32439 0,1.10363 -3.02548,0.43458 -4.70576,-1.04073 -1.30618,-1.14683 -2.08551,-1.46686 -3.14761,-1.29308 -0.77635,0.12702 -1.6368,0.25931 -1.91224,0.29442 -1.44995,0.18474 4.4578,2.49726 7.13641,2.79353 2.56057,0.28321 3.13,0.51156 3.13,1.25395 0,0.49912 -0.33804,1.24574 -0.7512,1.6589 -1.04797,1.04798 -0.9437,1.32341 0.5008,1.32341 1.95437,0 3.25521,1.65649 3.25521,4.1453 0,2.14315 -1.19623,4.6161 -1.9944,4.12281 -0.23307,-0.14405 -0.50571,-0.0166 -0.60546,0.28267 -0.12686,0.38057 -0.59207,0.35703 -1.5474,-0.0782 -0.75125,-0.3423 -1.51334,-0.47421 -1.69411,-0.29344 -0.50054,0.50054 1.38781,2.35978 2.02667,1.99538 0.30749,-0.17538 0.39199,-0.13443 0.1878,0.091 -0.52166,0.57584 0.56911,1.75378 1.62369,1.75378 0.48343,0 1.15951,0.33804 1.50241,0.7512 0.34289,0.41316 1.15955,0.7512 1.81442,0.7512 1.37918,0 1.47256,0.50536 0.45874,2.46586 -0.40219,0.77772 -0.57119,1.60911 -0.3756,1.84768 0.1956,0.23856 -0.15102,0.006 -0.77076,-0.51548 -0.63829,-0.53739 -1.1268,-0.69738 -1.1268,-0.36973 0,0.31814 0.23844,0.57808 0.53014,0.57808 0.2917,0 0.41679,0.18395 0.27779,0.40886 -0.139,0.2249 0.42423,0.80899 1.252,1.29797 1.4185,0.83793 2.78696,3.12777 2.21252,3.70221 -0.53677,0.53677 -2.80352,-0.93243 -3.69144,-2.3925 -0.50534,-0.83095 -1.08025,-1.34943 -1.27744,-1.15223 -0.19719,0.19719 -0.2157,-0.0111 -0.0421,-0.46363 0.20598,-0.53678 -0.046,-1.01685 -0.7248,-1.38014 -1.18459,-0.63398 -1.26651,-0.31626 -0.49101,1.90832 0.30238,0.86742 0.8895,1.57674 1.30481,1.57674 0.41532,0 1.42449,0.5634 2.24285,1.252 0.81835,0.68861 1.80875,1.25201 2.20078,1.25201 0.92424,0 0.90098,0.51058 -0.089,1.92397 -0.44126,0.62998 -0.67454,1.2739 -0.51841,1.43002 0.38642,0.38643 -0.59942,2.15481 -1.20114,2.15481 -0.26575,0 -0.4832,-0.23844 -0.4832,-0.53014 0,-0.29168 0.20141,-0.40573 0.44799,-0.25333 0.24657,0.15239 0.57436,-0.0503 0.72772,-0.44994 0.22986,-0.59901 0.0663,-0.62906 -0.93215,-0.17411 l -1.2119,0.55167 1.23537,1.46816 c 0.67941,0.80743 1.23538,1.65698 1.23538,1.88876 0,0.23178 0.137,0.77817 0.30419,1.21386 0.58751,1.53102 -1.25558,0.8134 -2.459,-0.95759 -0.65409,-0.96258 -1.31551,-1.62376 -1.47013,-1.46914 -0.15462,0.15462 -0.2477,-0.12856 -0.20638,-0.62894 0.0426,-0.51635 -0.21145,-0.84984 -0.58786,-0.77174 -0.36493,0.0757 -0.53046,-0.0781 -0.36777,-0.34137 0.33707,-0.54538 -0.63186,-1.30483 -1.08572,-0.85097 -0.44557,0.44557 1.49856,3.80883 2.20176,3.80883 0.3349,0 0.90384,0.41228 1.26374,0.91552 0.35991,0.50325 1.08045,1.14905 1.60119,1.43589 0.86716,0.47766 0.78596,0.6306 -0.96052,1.81736 -1.04878,0.71266 -2.0946,1.17958 -2.32403,1.03779 -0.66369,-0.41018 -0.49151,0.15581 0.58296,1.91811 1.03781,1.70215 1.34634,4.62369 0.54091,5.12147 -0.55977,0.34595 -2.54215,-2.31995 -2.54215,-3.41855 0,-0.53733 -0.27527,-0.68012 -0.8764,-0.45483 -0.75906,0.28447 -0.78689,0.2179 -0.20736,-0.49493 0.7473,-0.9192 0.4794,-1.62003 -0.90184,-2.35924 -0.75261,-0.40279 -0.89717,-0.3324 -0.76196,0.37266 0.0917,0.47838 0.18432,1.25593 0.20541,1.72835 0.0211,0.47243 1.0974,1.87434 2.39249,3.11534 l 2.35533,2.25654 -1.19038,1.26667 c -1.464,1.55835 -2.23117,1.59463 -3.24053,0.15356 -0.98328,-1.40385 -0.98807,-1.01138 -0.0166,1.31363 0.57026,1.3648 0.62728,2.07774 0.22693,2.8258 -0.29451,0.55029 -0.37788,1.25661 -0.18487,1.56892 0.20265,0.32788 0.12946,0.43019 -0.1741,0.24258 -0.28913,-0.1787 -0.65489,0.012 -0.81283,0.42352 -0.15793,0.41158 -0.12555,0.74445 0.0724,0.74045 0.71914,-0.0153 1.85534,-0.96695 1.90735,-1.59826 0.1698,-2.06117 0.18319,-2.07487 1.20701,-1.14832 1.4636,1.32453 1.22748,0.13651 -0.24844,-1.25005 -0.68752,-0.64588 -1.14123,-1.28257 -1.00846,-1.41535 0.13278,-0.13278 0.71151,0.35605 1.28624,1.0867 0.57473,0.73065 1.42282,1.32447 1.88485,1.32047 0.7254,-0.007 0.73768,-0.0738 0.089,-0.49298 -0.5008,-0.32364 -0.54253,-0.48787 -0.1252,-0.49297 0.3443,-0.004 0.626,-0.22618 0.626,-0.49298 0,-0.26679 -0.31504,-0.36402 -0.70034,-0.21616 -0.3853,0.14785 -0.84812,0.0309 -1.02801,-0.26018 -0.20329,-0.32894 0.0142,-0.42105 0.57514,-0.24356 0.83617,0.26458 0.83385,0.22855 -0.0352,-0.48221 -0.90098,-0.73687 -0.88677,-0.77991 0.35897,-1.09257 0.71327,-0.17902 1.2774,-0.47143 1.25396,-0.65046 -0.11054,-0.84451 0.11263,-1.567 0.45189,-1.46327 0.69869,0.21363 3.5786,-1.79684 3.27575,-2.28686 -0.1653,-0.26746 -0.0597,-0.33752 0.23475,-0.15553 0.29448,0.182 0.6481,0.0477 0.78543,-0.29832 0.13733,-0.34602 0.1581,0.21616 0.046,1.24906 -0.11368,1.04716 0.0159,1.87801 0.29343,1.87801 0.27376,0 0.49787,-0.37842 0.49787,-0.84119 0,-0.46277 1.04533,-1.81493 2.32305,-3.00481 l 2.32305,-2.16361 h -1.5425 c -0.84831,0 -1.69639,0.24965 -1.88486,0.55459 -0.23246,0.37614 0.0401,0.44844 0.84706,0.22595 1.11748,-0.3081 1.12875,-0.29078 0.1878,0.28562 -0.55088,0.33746 -1.30004,0.96849 -1.66477,1.40165 -0.36472,0.43315 -0.51278,0.49306 -0.32865,0.13303 0.18413,-0.36004 0.39404,-1.19579 0.46657,-1.85649 0.0725,-0.6607 0.84032,-2.00728 1.70585,-2.99306 1.81027,-2.06179 1.90812,-2.33497 0.69741,-1.9455 -0.694,0.22325 -0.72909,0.17819 -0.1702,-0.2191 0.38818,-0.27592 0.98492,-0.39511 1.32634,-0.26409 0.34141,0.13101 0.79124,-0.0374 0.99965,-0.37462 0.28376,-0.45914 -0.0806,-0.53841 -1.45154,-0.31594 -1.00687,0.16339 -1.83106,0.12638 -1.83106,-0.0822 0,-0.20854 0.81569,-1.33167 1.81247,-2.49618 0.99678,-1.16451 1.67811,-2.252 1.51414,-2.41598 -0.16397,-0.16397 -0.44059,0.0727 -0.61426,0.52526 -0.17367,0.45258 -0.68599,0.81879 -1.13854,0.81478 -0.71422,-0.007 -0.72346,-0.0716 -0.0714,-0.49298 0.52815,-0.34131 0.5601,-0.48757 0.10759,-0.49297 -0.82869,-0.01 -0.007,-1.70081 1.73715,-3.5731 l 1.22168,-1.31166 -1.25396,0.13791 c -0.68989,0.0757 -1.50144,0.29055 -1.80366,0.47732 -1.17648,0.72711 0.88305,-4.50622 2.60964,-6.63071 0.36087,-0.44403 0.30951,-0.62363 -0.17802,-0.61818 -0.88169,0.01 -2.42854,0.97529 -1.57967,0.98596 1.03241,0.013 0.13953,1.40222 -1.10137,1.71367 -0.75018,0.18828 -1.12161,0.60825 -1.03682,1.17179 0.0727,0.48317 0.0351,0.59761 -0.0831,0.25432 -0.15824,-0.45961 -0.47319,-0.48569 -1.19429,-0.0998 -0.5386,0.28825 -0.86985,0.69981 -0.73653,0.91552 0.13332,0.21571 -0.0757,0.39224 -0.46461,0.39224 -0.38893,0 -0.59082,-0.18715 -0.44896,-0.41669 0.14186,-0.22953 0.0188,-0.41766 -0.2729,-0.41766 -0.2917,0 -0.53014,-0.23844 -0.53014,-0.53014 0,-0.29171 0.21016,-0.40105 0.46656,-0.24258 0.25641,0.15848 0.5931,0.0828 0.74827,-0.16824 0.15517,-0.25107 -0.0696,-0.59138 -0.49884,-0.75609 -0.42921,-0.1647 -0.73989,-0.69474 -0.69056,-1.17864 0.20172,-1.97792 -0.0551,-3.67548 -0.51352,-3.39214 -0.26851,0.16596 -0.40708,1.24951 -0.3081,2.40815 0.14804,1.73298 0.11255,1.84042 -0.19759,0.60448 -0.359,-1.43067 -0.3827,-1.44263 -0.5008,-0.2504 -0.095,0.9589 -0.17967,1.03804 -0.36093,0.33648 -0.27398,-1.06048 0.75999,-3.84209 1.42807,-3.84209 0.69427,0 1.49337,2.515 1.14636,3.60831 -0.19978,0.62947 0.0165,1.21841 0.61329,1.67064 1.29489,0.98119 1.92692,0.89819 1.10822,-0.14574 -0.62294,-0.7943 -0.60553,-0.81171 0.18877,-0.18878 0.76619,0.60089 0.88422,0.5694 0.93607,-0.2504 0.0326,-0.51574 0.0326,-1.10704 0,-1.31362 -0.0326,-0.20658 0.16569,-0.3756 0.44113,-0.3756 0.27544,0 0.50081,0.33804 0.50081,0.7512 0,0.41316 0.20991,0.7512 0.46656,0.7512 0.25665,0 0.403,-0.60102 0.32474,-1.33515 -0.0783,-0.73413 0.15126,-2.31165 0.51058,-3.5056 0.54163,-1.79976 0.53938,-2.17046 -0.0127,-2.17046 -0.36625,0 -0.95824,0.35194 -1.31558,0.7825 -0.58602,0.70609 -0.692,0.70689 -1.08376,0.007 -0.57641,-1.02998 0.40635,-4.61024 1.36644,-4.97866 0.88321,-0.33892 1.00076,-1.31949 0.15845,-1.31949 -0.32261,0 -0.99869,0.37262 -1.5024,0.82847 -0.87076,0.78803 -0.91552,0.74202 -0.91552,-0.93411 0,-1.02516 0.4342,-2.31474 1.03779,-3.08208 1.05374,-1.3396 0.82653,-1.69044 -0.53699,-0.82945 -0.41316,0.26089 -0.81245,0.9897 -0.88716,1.61978 -0.0747,0.63007 -0.16828,1.41768 -0.20834,1.74987 -0.0401,0.33218 -0.23081,0.50645 -0.42353,0.38733 -0.19272,-0.11911 -0.75347,0.22834 -1.24613,0.77273 -0.92076,1.01741 -0.37098,1.42148 0.60545,0.44504 0.39206,-0.39203 0.64032,-0.38826 0.88814,0.0127 0.18929,0.30627 0.15859,0.49866 -0.0685,0.42745 -0.60483,-0.1897 -3.11815,2.48335 -2.73876,2.91285 0.17737,0.2008 -0.24062,-0.0145 -0.92922,-0.47928 -1.072,-0.72355 -1.25641,-1.24059 -1.28526,-3.59657 -0.0185,-1.51337 0.13131,-2.484 0.33354,-2.15677 0.20225,0.32723 0.30358,1.55708 0.22497,2.73289 -0.093,1.39166 0.0816,2.2238 0.5008,2.38467 0.47963,0.18405 0.60852,-0.35186 0.50374,-2.10004 -0.0774,-1.29098 -0.0431,-1.70699 0.0763,-0.92433 0.20835,1.36547 0.25576,1.38752 1.1718,0.55851 0.52505,-0.47517 0.81904,-1.08275 0.65338,-1.35079 -0.17744,-0.2871 -0.47799,-0.20859 -0.73163,0.19171 -0.28809,0.45466 -0.4331,0.48225 -0.43821,0.0831 -0.004,-0.32804 0.21754,-0.73551 0.49298,-0.90574 0.27544,-0.17023 0.5008,-0.83151 0.5008,-1.47013 0,-0.63862 0.33804,-1.44218 0.7512,-1.78508 0.41317,-0.34289 0.75121,-1.06103 0.75121,-1.5963 0,-0.53526 0.24314,-1.42825 0.5409,-1.98462 0.73242,-1.36853 0.18136,-1.783 -0.97715,-0.73457 -0.86286,0.78086 -0.96914,0.78391 -1.25493,0.0391 -0.46859,-1.2211 -0.37672,-3.50224 0.20247,-5.02561 0.71394,-1.87781 0.31141,-2.0231 -1.1718,-0.42353 l -1.25885,1.35764 -0.50667,-1.83497 c -0.31687,-1.14763 -0.33604,-2.42954 -0.0518,-3.4205 0.56618,-1.97415 0.38359,-2.18593 -0.77761,-0.90282 -1.45369,1.60632 -1.903,1.21005 -1.64716,-1.45251 l 0.23573,-2.4570598 -1.74987,1.83105 c -1.45246,1.5195898 -1.81058,2.3419898 -2.10689,4.8358598 -0.31533,2.65398 -0.36496,2.75631 -0.42548,0.8764 -0.0377,-1.17062 -0.30692,-2.1284 -0.59861,-2.1284 -0.29168,0 -0.40374,0.20553 -0.24845,0.45678 0.23756,0.38439 -0.10795,0.40138 -1.66184,0.0822 -0.10258,-0.0211 0.0848,-0.36421 0.41571,-0.76294 0.45753,-0.55133 0.46315,-0.9412 0.0235,-1.62761 -0.50497,-0.78835 -0.54464,-0.79349 -0.31202,-0.0421 0.14649,0.47319 0.0884,0.96988 -0.12911,1.1043 -0.65174,0.4028 -0.44667,-1.32929 0.31887,-2.6947398 0.65259,-1.164 0.69195,-1.17658 0.46363,-0.14672 -0.30057,1.3557998 -0.005,1.4101598 1.36155,0.2503998 0.99247,-0.8425098 1.00441,-0.8405398 0.313,0.0489 -0.95802,1.23244 -1.21128,2.97884 -0.39321,2.70941 0.34618,-0.11401 0.70134,-0.69687 0.78935,-1.29504 0.0886,-0.60203 0.52091,-1.08767 0.96933,-1.08767 0.63262,0 0.53004,-0.30168 -0.46853,-1.3772098 -0.70327,-0.75746 -1.54968,-1.82792 -1.88094,-2.3788 -0.57957,-0.96383 -0.59273,-0.9596 -0.36386,0.12422 0.32228,1.52618 -0.45604,1.88414 -1.95821,0.89988 -0.68427,-0.44836 -1.49833,-0.6583 -1.80855,-0.46657 -0.31497,0.19466 -0.42644,0.12614 -0.25236,-0.15552 0.17146,-0.27742 -0.0337,-0.93285 -0.45678,-1.45545 -0.36432,-0.44999 -0.5527,-0.66851 -0.61524,-0.61231 z m 2.01298,2.48249 c 0.0861,0.0252 0.2442,0.2179 0.46559,0.59861 0.29253,0.50268 0.42629,1.01938 0.29735,1.14832 -0.12894,0.12894 -0.37502,-0.13246 -0.54677,-0.58003 -0.30205,-0.7871 -0.35959,-1.20888 -0.21617,-1.1669 z m -5.33177,0.10172 c 0.40105,0 0.72871,0.18715 0.72871,0.41668 0,0.22954 -0.21228,0.41766 -0.47146,0.41766 -0.25919,0 -0.58685,-0.18812 -0.7287,-0.41766 -0.14187,-0.22953 0.0704,-0.41668 0.47145,-0.41668 z m 8.92443,0.50667 c 0.0455,0.007 0.0995,0.084 0.15943,0.23377 0.14469,0.36151 0.12631,0.79411 -0.0401,0.96052 -0.16642,0.16641 -0.28485,-0.12937 -0.26312,-0.6573 0.015,-0.36463 0.0679,-0.54849 0.14378,-0.53699 z m -6.55736,0.046 c 0.44029,-0.018 0.88977,0.13955 1.22657,0.47635 0.21455,0.21455 0.16491,0.31483 -0.11053,0.22301 -0.27544,-0.0918 -0.5348,0.0581 -0.57612,0.33354 -0.0413,0.27544 0.1444,0.43857 0.41277,0.36289 0.26837,-0.0757 0.3575,0.0748 0.19758,0.33354 -0.15991,0.2587398 -0.008,0.5878298 0.33844,0.7316398 0.34601,0.14363 0.14392,0.20902 -0.44896,0.14476 -0.59288,-0.0643 -1.43798,-0.41536 -1.878,-0.7805498 -1.0511,-0.87234 -1.03095,-0.12393 0.0283,1.0465998 0.45585,0.50371 0.69839,0.91553 0.53797,0.91553 -0.16042,0 -0.72944,-0.55514 -1.26374,-1.2344 -0.5343,-0.67926 -1.14995,-1.0736398 -1.3684,-0.8763998 -0.21846,0.1972398 -0.23319,0.073 -0.0323,-0.27583 0.20092,-0.34882 0.54948,-0.52065 0.77468,-0.38147 0.2252,0.13918 0.67021,-0.0611 0.98889,-0.44505 0.3012,-0.36292 0.73248,-0.55613 1.17277,-0.57416 z m -0.18585,0.35212 c -0.0506,-0.006 -0.17133,0.0416 -0.35017,0.14477 -0.50103,0.28913 -0.5154,0.53739 -0.0636,1.08181 0.32254,0.3886298 0.69857,0.7062098 0.83629,0.7062098 0.13772,0 -3.5e-4,-0.30233 -0.30713,-0.6719798 -0.30677,-0.36965 -0.39101,-0.8564 -0.18682,-1.0818 0.1021,-0.11271 0.12198,-0.17274 0.0714,-0.17901 z m 4.7762,0.18585 c 0.0676,-0.0207 0.1282,0.0354 0.17508,0.17606 0.12044,0.3613 -0.019,0.89546 -0.31007,1.1864698 -0.37162,0.37163 -0.43693,0.17571 -0.2191,-0.6572998 0.11069,-0.42324 0.24149,-0.67077 0.35409,-0.70523 z m -8.62708,0.2817 c 0.0649,0.002 0.11991,0.0211 0.15845,0.0597 0.1542,0.15418 -0.12427,0.43402 -0.61817,0.62209 -0.71374,0.27177 -0.77164,0.21485 -0.28072,-0.27975 0.25478,-0.25669 0.54581,-0.40774 0.74044,-0.40201 z m -4.34288,0.55558 1.31949,0.0792 c 0.72567,0.0437 1.22709,0.22873 1.11409,0.4117898 -0.11301,0.18305 0.0775,0.44738 0.42353,0.58687 0.34601,0.13951 0.40357,0.26387 0.12813,0.27584 -0.27544,0.012 -1.05978,-0.2879 -1.74302,-0.66611 z m 11.07826,1.1972198 c 0.14701,0.009 0.24605,0.19073 0.38342,0.54873 0.17095,0.4455 0.19312,0.92783 0.0489,1.07203 -0.1442,0.14421 -0.26214,0.007 -0.26214,-0.30615 0,-0.3127 -0.34461,-0.43651 -0.76587,-0.27486 -0.66242,0.2542 -0.6466,0.3809 0.11933,0.94096 0.48708,0.35616 1.05072,0.54597 1.252,0.42157 0.20128,-0.1244 0.70619,0.58764 1.12191,1.58261 0.41805,1.00052 0.98817,1.66628 1.27548,1.48871 0.2857,-0.17658 0.36768,-0.5657 0.18291,-0.86467 -0.19048,-0.30821 -0.10496,-0.40119 0.19758,-0.2142 0.29347,0.18137 0.48577,0.6601 0.42646,1.0642 -0.0593,0.40409 -0.23887,0.86585 -0.39907,1.02605 -0.41271,0.41271 -2.40773,-2.2361 -2.41695,-3.20923 -0.005,-0.47325 -0.16033,-0.59794 -0.3756,-0.30029 -0.22449,0.31039 -0.95354,-0.0561 -1.87018,-0.93998 -0.82632,-0.79682 -1.2386,-1.30498 -0.9165,-1.12973 0.32209,0.17525 0.91968,-0.0159 1.32829,-0.42451 0.32836,-0.32835 0.52301,-0.4906 0.67002,-0.48124 z m 7.83283,0.40397 c 0.12596,-0.0284 0.14888,0.81347 0.0968,2.71528 -0.1068,3.90303 -0.53786,4.89581 -1.75378,4.0377 -0.62438,-0.44064 -0.60342,-0.48115 0.12911,-0.2455 0.95163,0.30612 1.0594,-0.005 0.93509,-2.69181 -0.0446,-0.96404 0.11482,-2.42888 0.35408,-3.2552 0.10283,-0.3551 0.18141,-0.54756 0.23866,-0.56047 z m -1.41925,0.54188 c 0.0302,0.0113 0.0631,0.0577 0.0978,0.14379 0.13892,0.3443 0.13892,0.9077 0,1.252 -0.13893,0.3443 -0.25236,0.0626 -0.25236,-0.626 0,-0.51645 0.064,-0.80353 0.15455,-0.76979 z m 4.07389,0.90379 c 0.0966,0.0966 -0.25899,1.28883 -0.79032,2.64974 -0.53134,1.36092 -0.977,2.19815 -0.98987,1.85942 -0.0293,-0.77006 1.54123,-4.74812 1.78019,-4.50916 z m -1.77432,0.8676 c 0.29169,0 0.39129,0.22536 0.22106,0.5008 -0.17024,0.27544 -0.40868,0.5008 -0.53015,0.5008 -0.12146,0 -0.22106,-0.22536 -0.22106,-0.5008 0,-0.27544 0.23845,-0.5008 0.53015,-0.5008 z m -2.77788,0.92531 c 0.0274,0.0157 0.0575,0.081 0.089,0.20149 0.12596,0.48202 0.12596,1.27078 0,1.7528 -0.12597,0.48202 -0.22888,0.0876 -0.22888,-0.8764 0,-0.72303 0.0577,-1.12514 0.13987,-1.07789 z m 4.71163,2.36706 c 0.24405,0.0201 0.47469,0.40792 0.67393,1.16984 0.17181,0.65696 0.0447,0.89125 -0.39418,0.72284 -1.04177,-0.39976 -1.42934,1.70946 -0.48711,2.6517 0.55127,0.55127 0.64327,0.93283 0.27877,1.1581 -0.39129,0.24171 -0.39133,0.7761 10e-4,1.90148 h 0.001 c 0.30003,0.86065 0.46321,2.08517 0.36289,2.72115 -0.11983,0.75957 -0.31473,0.34401 -0.5683,-1.21092 -0.21231,-1.30192 -0.62268,-2.51324 -0.91161,-2.69181 -0.35105,-0.21695 -0.32034,-0.45177 0.0929,-0.70718 0.34014,-0.21022 0.44904,-0.65618 0.2416,-0.99182 -0.29052,-0.47007 -0.48879,-0.45491 -0.86271,0.0685 -0.37494,0.52479 -0.42365,0.4874 -0.21519,-0.16531 0.14845,-0.46479 0.51808,-1.76697 0.82163,-2.89428 0.31667,-1.176 0.65164,-1.75811 0.96541,-1.73226 z m -18.63526,0.39223 c 0.0804,0.002 0.12646,0.0765 0.13009,0.22595 0.009,0.36057 0.20378,0.53996 0.43331,0.3981 0.65746,-0.40634 0.51949,1.36797 -0.17117,2.20176 -0.34223,0.41316 -0.55751,1.14623 -0.47831,1.62956 0.0792,0.48333 -0.0362,0.76787 -0.25626,0.63187 -0.22006,-0.136 -0.66306,0.0699 -0.98498,0.45776 -0.46006,0.55433 -0.39181,0.81802 0.31887,1.23146 0.54065,0.31452 0.64044,0.53179 0.24845,0.54091 -0.3898,0.009 -0.50337,0.26943 -0.27975,0.64165 0.25555,0.42536 0.1043,0.4054 -0.47145,-0.0616 -0.92703,-0.75196 -1.18035,-0.0966 -0.30225,0.78153 0.39205,0.39204 0.35701,0.65234 -0.1252,0.93118 -0.3683,0.21297 -0.50252,0.20289 -0.29832,-0.0225 0.20418,-0.2254 0.1157,-0.71724 -0.19661,-1.09354 -0.3123,-0.3763 -0.42498,-0.82702 -0.2504,-1.0016 0.17459,-0.17458 0.0662,-0.62023 -0.24062,-0.98987 -0.30677,-0.36964 -0.3616,-0.67579 -0.12129,-0.67979 0.24031,-0.004 0.12425,-0.20578 -0.25822,-0.44799 -0.48089,-0.30454 -1.07959,-0.0317 -1.9406,0.88423 -0.6848,0.72844 -0.94899,0.87366 -0.58688,0.32278 0.3621,-0.55088 1.41788,-1.73446 2.34555,-2.63018 0.92767,-0.89572 1.54446,-1.85939 1.37035,-2.14112 -0.17411,-0.28172 -0.0906,-0.4503 0.18585,-0.37462 0.27647,0.0757 0.84968,-0.31281 1.27352,-0.86369 0.29271,-0.38045 0.5224,-0.57621 0.65632,-0.5722 z m -4.42309,0.0499 c -0.23633,-0.0352 -0.31645,0.0649 -0.18487,0.27779 0.16829,0.27229 0.51745,0.49493 0.77664,0.49493 0.72036,0 0.56144,-0.35861 -0.30615,-0.69153 -0.11142,-0.0428 -0.20684,-0.0695 -0.28562,-0.0812 z m 11.58004,0.27193 c 0.0258,-0.0259 0.22885,0.12575 0.626,0.43722 0.48202,0.37803 0.8764,0.77241 0.8764,0.8764 0,0.41218 -0.41094,0.14659 -1.06517,-0.68762 -0.31147,-0.39715 -0.46308,-0.60015 -0.43723,-0.626 z m 9.19537,0.70425 c 0.1555,-0.0784 0.24284,0.85988 0.19073,2.73973 -0.0467,1.68642 -0.13435,3.06643 -0.19464,3.06643 -0.39645,0 -0.65362,-2.14382 -0.44897,-3.74232 0.16981,-1.32622 0.33193,-2.00288 0.45288,-2.06384 z m -16.34254,0.18193 c -0.3831,0.0581 -0.96835,0.57413 -1.74498,1.54055 -1.16678,1.45191 -1.41718,2.08745 -0.99182,2.5128 0.31318,0.31318 0.38401,0.56927 0.15748,0.56927 -0.22654,0 -0.13162,0.33804 0.21128,0.7512 0.34289,0.41317 0.75351,0.75121 0.91259,0.75121 0.15908,0 0.0205,-0.26904 -0.30811,-0.59764 -0.46274,-0.46274 -0.35258,-0.85797 0.48808,-1.7528 0.59697,-0.63544 0.89844,-1.15517 0.67002,-1.15517 -0.22843,0 -0.002,-0.45595 0.50178,-1.01334 0.60802,-0.67186 0.74881,-1.18104 0.41864,-1.51121 -0.0825,-0.0825 -0.18726,-0.11425 -0.31496,-0.0949 z m 20.71574,0.11542 c 0.24966,0 0.45385,0.45072 0.45385,1.0016 0,0.55088 -0.0861,1.0016 -0.19171,1.0016 -0.10559,0 -0.30979,-0.45072 -0.45385,-1.0016 -0.14406,-0.55088 -0.0579,-1.0016 0.19171,-1.0016 z m -23.58458,0.5008 c 0.0258,0.0258 -0.12576,0.22885 -0.43723,0.626 -0.65423,0.83421 -1.06518,1.0998 -1.06518,0.68762 0,-0.10399 0.39438,-0.49837 0.87641,-0.8764 0.39715,-0.31147 0.60014,-0.46307 0.626,-0.43722 z m 22.71698,0.5634 c 0.0354,0.004 0.0747,0.0258 0.11542,0.0665 0.16297,0.16297 0.0836,0.67653 -0.17606,1.1405 -0.43833,0.78326 -0.49486,0.78327 -0.7913,0.0108 -0.18761,-0.48891 -0.11484,-0.70505 0.17606,-0.52526 0.27228,0.16828 0.49493,0.0295 0.49493,-0.30811 0,-0.2532 0.0747,-0.39714 0.18095,-0.3844 z m -20.49175,0.24453 c 0.0487,-0.002 0.0175,0.0752 -0.10759,0.23964 -0.33357,0.4385 -0.4902,0.91341 -0.34821,1.0554 0.14198,0.14199 -0.0654,0.52681 -0.4607,0.85488 -1.34971,1.12015 -1.28515,-0.30244 0.0685,-1.50827 0.46288,-0.41236 0.7668,-0.63768 0.84803,-0.64165 z m -5.98124,0.19367 c -0.44567,0 -0.67103,0.22536 -0.5008,0.5008 0.17023,0.27544 0.39559,0.5008 0.5008,0.5008 0.10521,0 0.33057,-0.22536 0.5008,-0.5008 0.17023,-0.27544 -0.0551,-0.5008 -0.5008,-0.5008 z m 11.31106,1.05931 c 0.24671,0.0314 0.6878,0.38629 1.30971,1.06909 3.51542,3.85961 3.19107,9.14461 -1.07203,17.49086 -0.87105,1.70535 -1.81152,3.17697 -2.09026,3.26988 -1.24988,0.41663 -0.98878,-0.6682 0.79131,-3.28455 1.05814,-1.55524 2.41905,-4.4624 3.02339,-6.46053 0.97139,-3.21175 1.02846,-3.92303 0.49786,-6.13481 -0.65097,-2.71355 -1.49181,-3.33673 -1.51805,-1.12484 -0.0373,3.14432 -4.39988,12.068 -5.55184,11.35605 -0.2524,-0.15599 -0.0329,-0.88752 0.48808,-1.62565 1.73889,-2.46364 4.05074,-7.50277 4.37614,-9.53771 0.17693,-1.10646 0.0815,-2.70119 -0.21226,-3.54376 -0.35552,-1.01986 -0.35926,-1.51431 -0.0421,-1.47403 z m 4.46416,0.50765 c -0.22692,0 -0.45385,0.0352 -0.626,0.10466 -0.3443,0.13892 -0.0626,0.25236 0.626,0.25236 0.6886,0 0.97031,-0.11344 0.626,-0.25236 -0.17215,-0.0695 -0.39907,-0.10466 -0.626,-0.10466 z m 12.05834,0.6798 c 0.18189,-0.0337 0.23276,0.27471 0.10662,0.75707 -0.30579,1.16936 -0.64654,1.31725 -0.64654,0.28072 0,-0.39691 0.2041,-0.84725 0.45385,-1.00161 0.0312,-0.0193 0.0601,-0.0314 0.0861,-0.0362 z m 2.415,0.21323 c 0.16008,-0.0469 -0.39188,1.38784 -1.45252,3.62983 -0.8261,1.74623 -1.50474,2.83695 -1.50924,2.42379 -0.007,-0.63161 -0.0797,-0.6398 -0.45386,-0.0489 -0.3205,0.50626 -0.42324,0.34335 -0.36777,-0.58296 0.058,-0.96776 0.23213,-1.15664 0.70327,-0.76587 0.40506,0.33597 0.626,0.34165 0.626,0.0176 0,-0.27545 -0.33804,-0.78098 -0.7512,-1.12387 -0.41316,-0.3429 -0.73381,-1.2159 -0.71208,-1.93963 0.0217,-0.72374 0.15145,-0.97754 0.28757,-0.56438 0.68935,2.09244 1.36451,3.0096 1.75867,2.38859 0.22187,-0.34956 0.40299,-0.86114 0.40299,-1.13658 0,-0.0931 -0.0231,-0.14231 -0.0616,-0.1565 0.20776,-0.11889 0.54747,-0.54708 0.85097,-1.09551 0.38563,-0.69681 0.60606,-1.02431 0.67882,-1.04561 z m -13.99405,0.86857 c -0.64682,-0.0282 -0.93008,0.33602 -0.48907,1.16006 0.31729,0.59286 0.82933,0.86641 1.29015,0.68958 0.46897,-0.17996 0.7076,-0.0439 0.61818,0.35213 -0.0819,0.36277 0.51194,0.80184 1.35666,1.00257 0.82632,0.19637 2.0658,0.59477 2.7544,0.88619 0.6886,0.29142 1.59005,0.52682 2.00321,0.52232 0.41316,-0.005 0.0751,-0.2421 -0.75121,-0.52917 -0.82632,-0.28707 -2.29116,-1.26464 -3.2552,-2.17242 -1.2634,-1.18965 -2.6955,-1.87499 -3.52712,-1.91126 z m 11.8187,1.16593 c 0.1534,0.0138 0.32785,0.0584 0.51254,0.13792 0.009,0.004 0.0212,-4.6e-4 0.0313,0 -0.0741,0.0469 -0.16468,0.14265 -0.26703,0.30419 -0.30013,0.47366 -0.53392,0.51159 -0.77272,0.1252 -0.23199,-0.37535 0.0357,-0.60864 0.49591,-0.56731 z m -9.48783,0.68567 c 0.0599,0.0101 0.12579,0.0357 0.19465,0.0782 0.27544,0.17023 0.5008,0.40868 0.5008,0.53014 0,0.12146 -0.22536,0.22106 -0.5008,0.22106 -0.27544,0 -0.5008,-0.23845 -0.5008,-0.53014 0,-0.21878 0.12657,-0.32951 0.30615,-0.29931 z m -5.40513,0.57905 0.045,2.78864 c 0.0608,3.71108 -1.02052,7.14866 -3.41366,10.85133 -1.08381,1.67687 -1.83749,3.18128 -1.67554,3.34324 0.16196,0.16196 0.0574,0.29441 -0.23181,0.29441 -1.52169,0 -1.11026,-4.40887 0.63089,-6.76081 1.57148,-2.12274 2.76213,-4.5721 3.77263,-7.76241 z m 16.63794,1.01725 c -0.0333,0.002 -0.0659,0.0126 -0.0978,0.0323 -0.25515,0.15769 -0.33326,0.69955 -0.17313,1.20408 0.16014,0.50452 0.0525,1.06424 -0.23866,1.24418 -0.29114,0.17992 -0.39698,0.54116 -0.23573,0.80206 0.16124,0.2609 0.50693,0.3422 0.76783,0.18095 0.26091,-0.16124 0.34432,-0.50262 0.18585,-0.75903 -0.15847,-0.2564 -0.0804,-0.46656 0.17312,-0.46656 0.25349,0 0.35306,-0.56074 0.22204,-1.24613 -0.11464,-0.59972 -0.37031,-1.00545 -0.6035,-0.99183 z m -9.09658,3.46844 c -0.23633,-0.0352 -0.31645,0.0649 -0.18487,0.27778 0.16828,0.27229 0.51745,0.49494 0.77663,0.49494 0.72037,0 0.56145,-0.35861 -0.30615,-0.69154 -0.11141,-0.0428 -0.20684,-0.0694 -0.28561,-0.0812 z m -4.82706,0.77272 c 0.61225,0 -0.068,2.42391 -1.61586,5.7592 -0.76695,1.65265 -1.75948,3.45553 -2.20568,4.00641 -0.44619,0.55088 -0.15553,-0.41939 0.64655,-2.15579 0.80208,-1.7364 1.75411,-4.15902 2.11569,-5.38361 0.36157,-1.22458 0.83875,-2.22621 1.0593,-2.22621 z m 0.68567,1.17668 c 0.25143,-0.01 0.71379,0.92049 1.0691,2.57932 0.52791,2.46476 0.0708,5.70087 -1.35178,9.57488 -0.5949,1.62006 -1.91357,3.87952 -2.93046,5.0217 l -1.84866,2.07657 -1.252,-1.4359 c -0.68861,-0.78991 -1.17368,-1.83697 -1.0779,-2.32696 0.0958,-0.48999 1.28955,-2.07223 2.65268,-3.51538 2.28199,-2.41596 4.31666,-5.92433 3.75894,-6.48205 -0.12871,-0.1287 -0.39344,0.2897 -0.58786,0.9302 -0.51486,1.69619 -4.39233,6.73178 -4.63142,6.0145 -0.11171,-0.33512 0.46374,-1.36963 1.27938,-2.2986 0.81565,-0.92897 2.102,-2.95301 2.85809,-4.4984 0.75608,-1.54539 1.43592,-2.81016 1.51121,-2.81016 0.0753,0 0.072,1.55406 -0.007,3.45376 -0.15059,3.62754 -1.70473,7.61342 -3.87631,9.9407 -0.57727,0.61866 -0.90981,1.26458 -0.73947,1.43492 0.60067,0.60066 4.31527,-5.90207 4.84271,-8.47743 0.68775,-3.35807 0.73504,-4.6098 0.27583,-7.35355 -0.20832,-1.24475 -0.14078,-1.82061 0.0548,-1.82812 z m 11.37854,0.52623 c -0.0716,0.011 -0.14213,0.036 -0.20736,0.0763 -0.2609,0.16124 -0.3422,0.50693 -0.18095,0.76783 0.16124,0.2609 0.50693,0.3422 0.76783,0.18095 0.2609,-0.16124 0.3422,-0.50693 0.18096,-0.76783 -0.12094,-0.19567 -0.34571,-0.29011 -0.56048,-0.25725 z m 2.63508,0.49885 c 0.0422,-0.003 0.0775,0.007 0.10368,0.0333 0.49703,0.49703 0.5472,1.79612 0.0577,1.4936 -0.25126,-0.15529 -0.45678,-0.0433 -0.45678,0.24844 0,0.2917 0.2817,0.53396 0.626,0.53797 0.4253,0.005 0.39037,0.15687 -0.10858,0.47244 -0.45211,0.28576 -0.95096,0.28407 -1.29797,-0.004 -0.58157,-0.48266 -1.22266,-0.14747 -1.22266,0.63872 0,0.24579 0.21016,0.31693 0.46657,0.15845 0.25641,-0.15846 0.58407,-0.0971 0.7287,0.13694 v 10e-4 c 0.14464,0.23403 -0.0749,0.42549 -0.48808,0.42549 -0.41316,0 -0.87293,-0.19774 -1.02215,-0.43918 -0.31057,-0.50252 1.98105,-3.65577 2.61356,-3.70319 z m -29.05524,0.30224 c 0.4944,0 2.7198,4.28094 2.50986,4.82803 -0.15465,0.40302 -0.0776,0.60661 0.17118,0.45287 0.24876,-0.15374 0.53626,-0.0276 0.63871,0.27975 0.1169,0.3507 0.43886,0.25386 0.86467,-0.2592 0.58538,-0.70535 0.56541,-0.77393 -0.14379,-0.50179 -0.56119,0.21535 -0.82162,0.0483 -0.82162,-0.52623 0,-0.53245 0.32186,-0.77878 0.8764,-0.67099 0.68089,0.13235 0.89446,0.72752 0.95661,2.66637 0.13052,4.07192 0.75226,6.06844 1.70683,5.47849 0.82552,-0.5102 0.49609,-1.21005 -0.40984,-0.87053 -0.76976,0.28848 -0.79207,0.22526 -0.18389,-0.52232 0.49891,-0.61325 0.86894,-0.70485 1.32341,-0.32768 0.50622,0.42014 0.49726,0.96697 -0.046,2.77201 -0.3723,1.23702 -0.5566,2.56403 -0.40886,2.94905 0.14775,0.38502 0.0307,1.14477 -0.26018,1.68825 -0.72196,1.3489 0.50246,2.48985 1.4486,1.34982 0.37722,-0.45452 0.41989,-0.75707 0.1076,-0.75707 -0.28621,0 -0.63379,0.2817 -0.77272,0.626 -0.13893,0.3443 -0.27073,0.13202 -0.29246,-0.47146 -0.0479,-1.32838 0.83641,-1.98352 1.61978,-1.20016 0.42634,0.42634 0.36377,1.16715 -0.24845,2.93633 -0.4503,1.30129 -0.97215,3.32387 -1.15908,4.4945 -0.29649,1.85672 -0.22192,2.12728 0.58101,2.12058 0.77929,-0.007 0.80523,-0.0833 0.16922,-0.5008 -0.66774,-0.43835 -0.66774,-0.54762 0,-0.98596 2.15241,-1.41297 1.99913,0.50487 -0.25041,3.13294 -0.96404,1.12626 -1.7528,2.33694 -1.7528,2.69083 0,0.64 -1.30896,1.57078 -2.24089,1.59336 -0.26855,0.007 -0.56743,0.31093 -0.66414,0.67589 -0.11997,0.4527 -0.0138,0.42857 0.33549,-0.0743 0.44123,-0.63529 0.55796,-0.61799 0.84315,0.1252 0.182,0.4743 0.75797,0.86271 1.27939,0.86271 1.56017,0 1.08334,0.82698 -1.27254,2.20763 -1.22121,0.71567 -2.35934,1.74018 -2.52944,2.2761 -0.1701,0.53593 -0.59972,0.86295 -0.95465,0.72675 -0.91979,-0.35296 -2.11446,1.19259 -1.44176,1.86529 0.36375,0.36374 0.62487,0.35796 0.85879,-0.0205 0.18507,-0.29944 0.0849,-0.54482 -0.22301,-0.54482 -0.30795,0 -0.42063,-0.22536 -0.2504,-0.5008 0.58122,-0.94043 1.252,-0.50284 1.252,0.81673 0,1.22553 -0.12191,1.29791 -1.74889,1.03388 -1.91762,-0.31118 -3.25911,0.55853 -3.25911,2.11374 0,0.48851 -0.45156,1.29726 -1.00356,1.79682 -0.8175,0.73982 -1.22828,0.80582 -2.21545,0.35603 -0.98581,-0.44916 -1.33593,-0.39367 -1.87605,0.29637 -0.58922,0.75275 -0.57083,0.77463 0.16726,0.19758 0.88864,-0.69474 1.74911,-0.0332 1.17179,0.90086 -0.5502,0.89024 -2.2536,0.47908 -2.2536,-0.54384 0,-0.20708 0.8451,-1.3133 1.878,-2.45901 1.0329,-1.1457 1.99185,-2.68552 2.13134,-3.42148 0.1761,-0.92912 0.61444,-1.38919 1.43296,-1.50534 1.70548,-0.242 5.46281,-4.22102 6.84199,-7.24596 0.65263,-1.4314 1.20087,-3.61685 1.21874,-4.8564 0.0267,-1.84531 -0.29163,-7.50117 -0.44211,-7.85729 -0.0221,-0.0524 -1.19933,1.13077 -2.61649,2.62921 -1.41715,1.49843 -2.90989,2.72408 -3.31683,2.72408 -0.53512,0 -0.59583,-0.17325 -0.22007,-0.626 0.28574,-0.3443 0.48166,-0.77592 0.43624,-0.95955 -0.0454,-0.18362 0.12291,-0.52166 0.37365,-0.7512 0.26487,-0.24247 0.30515,-0.15536 0.0958,0.20834 -0.19814,0.3443 -0.14201,0.626 0.1252,0.626 0.63507,0 2.89716,-2.70296 3.92425,-4.68913 0.74226,-1.43538 0.84158,-1.48238 1.19918,-0.56634 0.25005,0.64055 0.39948,0.72947 0.41766,0.24747 0.0484,-1.28166 -0.55238,-3.00481 -1.04757,-3.00481 -0.25957,0 -0.33753,0.2172 -0.17313,0.48319 0.33294,0.53872 -1.66488,4.76827 -2.06385,4.3693 -0.13881,-0.13882 0.10156,-0.93804 0.53503,-1.77628 1.27952,-2.47432 1.05167,-7.89625 -0.45776,-10.87774 -0.68557,-1.35418 -1.14343,-2.80013 -1.01725,-3.21413 0.12619,-0.414 0.28243,-1.59826 0.34724,-2.63116 0.0648,-1.0329 0.15471,-1.878 0.19954,-1.878 z m 29.22348,0.002 c -0.0355,-0.004 -0.25187,0.1894 -0.67589,0.57612 -0.49953,0.45559 -0.75486,1.07533 -0.56829,1.3772 0.18657,0.30187 0.45111,0.54873 0.58883,0.54873 0.13772,0 0.10531,-0.23482 -0.0724,-0.52232 -0.17769,-0.28751 -0.034,-0.90725 0.31887,-1.3772 0.29958,-0.39893 0.44438,-0.59905 0.40886,-0.60253 z m -8.13997,0.0558 c 0.24937,-0.0221 0.81465,0.20101 1.89267,0.65144 1.45419,0.6076 2.77886,2.04369 2.77886,3.0136 0,0.15583 -0.52436,0.28366 -1.16495,0.28366 -1.19464,0 -2.95231,-1.57062 -3.50267,-3.13 -0.18688,-0.52951 -0.25328,-0.79657 -0.004,-0.8187 z m 11.53211,4.16487 c 0.17195,0.0517 0.19027,0.31612 -0.0792,0.75217 -0.18156,0.29377 -0.5698,0.53406 -0.86271,0.53406 -0.33208,0 -0.29426,-0.28698 0.10075,-0.76294 0.34343,-0.41381 0.66924,-0.57503 0.84119,-0.52329 z m -4.76152,0.35017 c 0.0861,0.0252 0.2442,0.21692 0.46559,0.59763 0.29253,0.50268 0.42629,1.01938 0.29735,1.14832 -0.12894,0.12894 -0.37503,-0.13148 -0.54677,-0.57905 -0.30204,-0.7871 -0.35959,-1.20888 -0.21617,-1.1669 z m -26.9464,0.0978 c -0.0195,0.005 -0.0384,0.0159 -0.0548,0.0323 -0.13128,0.13127 -0.0896,0.47895 0.0919,0.77272 0.49384,0.79901 0.7827,0.6438 0.44407,-0.23866 -0.14272,-0.37191 -0.34496,-0.60247 -0.48123,-0.56634 z m 19.64469,0.009 c -0.17959,-0.0302 -0.30616,0.0805 -0.30616,0.29931 0,0.2917 0.22536,0.53014 0.5008,0.53014 0.27544,0 0.5008,-0.0996 0.5008,-0.22106 0,-0.12146 -0.22536,-0.35991 -0.5008,-0.53014 -0.0689,-0.0426 -0.13478,-0.0682 -0.19464,-0.0782 z m 9.4487,0.42646 c 0.26483,-0.008 0.62065,0.25991 1.19722,0.84804 0.65248,0.66555 0.84858,1.0806 0.43625,0.92237 -0.41233,-0.15822 -0.99506,-0.0418 -1.29504,0.25823 -0.70624,0.70623 -1.34511,-0.7745 -0.74533,-1.72737 0.12175,-0.19343 0.248,-0.2967 0.4069,-0.30127 z m 0.0714,0.59764 c -0.18251,0.006 -0.31104,0.20515 -0.31104,0.52721 0,0.87967 0.30038,1.00861 0.72968,0.31398 0.15847,-0.25641 0.0589,-0.60754 -0.22106,-0.78054 -0.07,-0.0433 -0.13674,-0.0627 -0.19758,-0.0606 z m -12.18061,2.47075 c 0.0737,0.0355 0.18974,0.27466 0.37169,0.72772 0.67614,1.68363 0.0625,7.50128 -1.01334,9.61009 -1.00912,1.97804 -3.01107,4.24691 -5.01681,5.68586 -0.80034,0.57417 -0.92605,0.80039 -0.34919,0.626 0.52423,-0.15849 0.77342,-0.0656 0.59568,0.22203 -0.54534,0.88238 0.51931,0.52534 2.25751,-0.75707 2.00946,-1.48253 2.47255,-1.59891 1.3283,-0.33452 -0.45646,0.50437 -0.68621,1.06072 -0.51058,1.23635 0.60104,0.60105 -1.36459,2.89067 -4.40157,5.12636 -3.31238,2.43844 -3.81417,2.613 -4.24898,1.47991 -0.46152,-1.2027 1.01536,-2.94185 3.13001,-3.68558 2.16213,-0.76043 5.36273,-2.57769 5.06473,-2.8757 -0.10524,-0.10524 -1.52567,0.52675 -3.15641,1.4046 -1.83382,0.98715 -2.70218,1.27298 -2.27708,0.74924 0.37803,-0.46574 0.9837,-0.84706 1.34688,-0.84706 0.36318,0 0.81509,-0.24965 1.00356,-0.55459 0.23308,-0.37713 -0.038,-0.44627 -0.84706,-0.21715 -0.81842,0.23177 -0.97636,0.18947 -0.50667,-0.13596 0.49759,-0.34475 0.52042,-0.52784 0.0851,-0.67295 -0.32849,-0.10949 0.57143,-1.18362 1.99929,-2.38761 2.67513,-2.25571 4.5049,-4.73043 4.47199,-6.04775 -0.0103,-0.41316 -0.51646,0.26138 -1.12485,1.49849 -1.0503,2.13571 -5.35465,6.00473 -6.68647,6.01059 -1.97555,0.009 -0.69202,-4.16803 1.75574,-5.71324 3.16375,-1.99719 6.51304,-6.89007 6.61018,-9.65606 0.0126,-0.35942 0.0447,-0.52747 0.11835,-0.492 z m -17.61605,1.1356 c 0.22943,0.008 0.47568,0.27644 0.626,0.83728 0.16527,0.61664 0.30362,2.49842 0.30713,4.18149 0.005,2.44548 -0.24462,3.42996 -1.24516,4.90433 -1.47352,2.17135 -1.58304,2.681 -0.3756,1.74595 0.70943,-0.54938 0.6943,-0.4655 -0.0802,0.44211 -0.52624,0.61669 -1.06359,1.01493 -1.19331,0.88521 -0.12972,-0.12972 -0.6756,-5e-4 -1.21385,0.28757 -0.53826,0.28806 -0.85556,0.64684 -0.70523,0.79717 0.419,0.419 -1.07824,3.03702 -2.06581,3.61222 -0.48202,0.28075 -0.60353,0.51689 -0.26996,0.52526 0.33357,0.008 1.08339,-0.49142 1.66673,-1.11116 l 1.06126,-1.1268 -0.1653,1.48578 c -0.11398,1.02867 -0.68848,1.8381 -1.86626,2.6292 -0.9359,0.62864 -1.37498,1.14343 -0.97617,1.14343 0.3988,0 0.96628,-0.24051 1.2608,-0.53504 0.29453,-0.29453 0.95895,-0.59872 1.47697,-0.6749 0.73599,-0.10825 0.90597,-0.48385 0.77859,-1.71857 -0.13152,-1.27502 0.15286,-1.846 1.47306,-2.95688 0.89985,-0.75717 1.87499,-1.37622 2.16655,-1.37622 0.29156,0 0.79314,-0.5634 1.11507,-1.252 0.32316,-0.69124 0.59886,-0.91555 0.61523,-0.5008 0.0405,1.02486 -1.90017,5.22645 -2.25164,4.87498 -0.15514,-0.15514 -0.0198,-0.77132 0.30028,-1.36938 0.32007,-0.59806 0.45751,-1.21216 0.30518,-1.36449 -0.15233,-0.15233 -0.52405,0.37418 -0.82554,1.16985 -0.3015,0.79566 -1.0226,1.9537 -1.60315,2.57345 -0.58054,0.61974 -0.80374,1.1268 -0.49591,1.1268 0.30784,0 0.91028,-0.50094 1.33906,-1.11311 0.43519,-0.62132 0.77956,-0.81518 0.77956,-0.43918 0,0.54193 0.1468,0.5515 0.7512,0.0499 0.89047,-0.73902 1.01946,0.033 0.15064,0.90183 -0.46741,0.46741 -0.46232,0.60057 0.0244,0.60057 0.95347,0 0.0869,1.21063 -2.12155,2.96275 -1.07078,0.84953 -1.78264,1.54446 -1.58163,1.54446 0.201,0 0.94193,-0.45371 1.64716,-1.00845 0.70524,-0.55474 1.38794,-0.90283 1.51708,-0.7737 0.43399,0.43399 -2.33657,4.63604 -3.6044,5.46675 -1.49881,0.98206 -1.99625,1.04977 -1.44861,0.1966 0.22101,-0.3443 0.43735,-1.07672 0.48027,-1.6276 0.15625,-2.00568 0.68457,-3.51811 1.4173,-4.05629 0.41209,-0.30267 0.59103,-0.7089 0.39712,-0.90281 -0.19391,-0.1939 -0.007,-0.2197 0.41473,-0.0577 1.02349,0.39275 2.54158,-1.29717 1.9807,-2.20469 -0.33787,-0.54669 -0.56304,-0.46684 -1.09648,0.38733 -0.3693,0.59134 -0.93328,1.07496 -1.25298,1.07496 -0.3197,0 -1.04609,0.78876 -1.61489,1.75281 -0.5688,0.96404 -1.36714,1.7528 -1.77334,1.7528 -0.40619,0 -0.90123,0.26365 -1.10039,0.5859 -0.24494,0.39632 -0.0923,0.47734 0.47146,0.2504 0.45834,-0.18453 1.19804,-0.48271 1.64325,-0.66219 0.6885,-0.27757 0.72401,-0.16644 0.23866,0.74044 -0.31384,0.58641 -1.29827,1.29318 -2.18709,1.57087 l -1.61586,0.50471 1.64129,-0.15845 c 1.88734,-0.18219 1.92194,0.57553 0.0724,1.58945 l -1.21288,0.66415 1.3772,-0.29833 c 1.54306,-0.33457 1.91936,0.6508 0.65045,1.7039 -0.93941,0.77964 -2.57776,0.42537 -2.3612,-0.51058 0.0918,-0.39683 -2.3e-4,-0.55436 -0.20442,-0.35017 -0.2042,0.20419 -0.67945,0.1154 -1.0554,-0.19661 -0.53621,-0.44501 -0.6193,-0.39929 -0.38538,0.2103 0.164,0.42739 1.01453,1.12947 1.88974,1.56109 1.02925,0.50759 1.2741,0.78883 0.69251,0.79619 -0.49454,0.006 -1.4612,-0.55057 -2.14796,-1.23733 -1.00505,-1.00504 -1.14743,-1.43795 -0.72871,-2.22034 0.67424,-1.25982 0.65068,-2.06486 -0.0264,-0.90184 -0.28399,0.48782 -0.70192,0.77137 -0.92922,0.63089 -0.2273,-0.14047 -0.69252,0.0809 -1.0329,0.49102 -0.34038,0.41013 -0.8512,0.74534 -1.1356,0.74534 -0.28441,0 -0.10239,-0.45862 0.40494,-1.01921 0.50733,-0.56059 1.21897,-0.90565 1.58065,-0.76685 0.36168,0.13878 0.6573,0.0471 0.6573,-0.20345 0,-0.97051 -0.81359,-0.8748 -2.12058,0.24942 -1.3487,1.16011 -1.35586,1.19617 -0.60937,3.31193 0.75787,2.14803 0.63975,3.75091 -0.23671,3.20924 -0.25835,-0.15967 -0.61144,-0.0608 -0.78445,0.2191 -0.576,0.93199 -1.17354,0.52528 -1.51512,-1.02997 -0.18582,-0.84601 -0.44551,-1.43054 -0.5771,-1.29895 -0.13159,0.13159 -0.015,1.05234 0.25921,2.04526 0.34047,1.23302 0.33456,1.70441 -0.0176,1.48676 -0.32712,-0.20217 -0.39135,0.0701 -0.17704,0.74533 0.46072,1.45159 0.2455,1.34699 -1.35373,-0.6573 -0.80083,-1.00368 -1.24809,-2.04773 -1.073,-2.50401 0.48298,-1.25865 1.33368,-0.89858 1.07496,0.45483 -0.14447,0.75575 -0.0401,1.11437 0.26899,0.92335 0.31128,-0.19239 0.35158,-0.0416 0.10465,0.39125 -0.29848,0.52323 -0.24931,0.56347 0.19172,0.15846 0.4311,-0.39589 0.45105,-0.91689 0.0734,-1.91028 -0.65502,-1.72279 -0.66157,-2.4495 -0.0186,-2.05211 0.75261,0.46514 0.60319,-0.38269 -0.29344,-1.66281 -0.62295,-0.88939 -0.66663,-1.28977 -0.19954,-1.85258 0.32771,-0.39486 0.67883,-1.8812 0.78055,-3.30313 0.10171,-1.42193 0.30207,-2.70239 0.44504,-2.84537 0.14298,-0.14297 0.0263,-0.54204 -0.26018,-0.88716 -0.36559,-0.44051 -0.34177,-0.73922 0.0812,-1.00063 0.38197,-0.23606 0.47205,-0.16016 0.24551,0.20639 -0.19654,0.318 -0.11856,0.57807 0.17313,0.57807 0.29169,0 0.53014,-0.45864 0.53014,-1.01921 0,-0.82479 -0.17132,-0.9278 -0.89792,-0.53894 -0.71309,0.38163 -0.91265,0.28218 -0.9703,-0.4832 -0.0399,-0.53004 0.15188,-0.96345 0.42646,-0.96345 0.27457,0 0.35083,0.2402 0.16922,0.53406 -0.18235,0.29503 -0.0272,0.46538 0.34625,0.38049 0.37194,-0.0846 1.52099,0.36994 2.55389,1.00943 1.89197,1.17134 2.35847,2.40305 1.30874,3.45278 -0.42449,0.42449 -0.36098,0.77659 0.2504,1.38796 0.45054,0.45055 0.81967,1.0416 0.81967,1.31363 0,0.27202 0.22536,0.35509 0.5008,0.18486 0.27544,-0.17023 0.5008,-0.53445 0.5008,-0.80989 0,-0.27544 -0.20141,-0.37638 -0.44798,-0.22399 -0.61537,0.38032 -1.0924,-1.02371 -0.71208,-2.09612 0.52278,-1.47414 1.79913,-2.71381 2.17242,-2.10982 0.18447,0.29848 0.35504,-0.13294 0.37853,-0.95856 0.0235,-0.82563 0.2513,-1.90988 0.50569,-2.40913 0.2544,-0.49925 0.50587,-2.25987 0.55949,-3.91251 0.0726,-2.23806 0.4129,-3.48402 1.33221,-4.8828 0.67884,-1.03291 1.45584,-1.87801 1.72737,-1.87801 0.89514,0 0.5146,2.84403 -0.56438,4.21573 -0.58228,0.74025 -0.94663,1.45858 -0.80891,1.5963 0.13772,0.13772 0.72743,-0.35525 1.30971,-1.0955 l 1.05834,-1.3459 v 1.34199 c 0,0.77252 -0.5443,1.88726 -1.28233,2.62529 -0.70529,0.70529 -1.13433,1.42676 -0.95367,1.60413 0.45675,0.44843 4.65473,-4.33515 5.52641,-6.29718 0.39378,-0.88634 0.70654,-2.8019 0.69447,-4.25681 l -0.0225,-2.64485 -0.69937,1.96114 c -0.68905,1.93382 -3.26302,5.05972 -3.26302,3.96239 0,-0.31036 0.78876,-1.73657 1.7528,-3.16913 0.96404,-1.43256 1.7528,-3.0192 1.7528,-3.52615 0,-0.77787 0.26743,-1.197 0.56243,-1.18646 z m -11.27878,2.49618 c 0.31801,-0.0465 0.25494,0.3299 -0.39516,1.0867 -0.41552,0.48371 -0.90581,1.30077 -1.08964,1.81638 -0.26377,0.73982 -0.65432,0.87367 -1.85355,0.63383 -0.94171,-0.18835 -1.40375,-0.11593 -1.21483,0.18975 0.16767,0.27129 0.7588,0.49298 1.31362,0.49298 0.68862,0 0.95565,0.27619 0.84119,0.87053 -0.2453,1.27375 -1.42403,1.24505 -3.4117,-0.0831 -0.96404,-0.64419 -1.97817,-1.04166 -2.25361,-0.88325 -0.27544,0.15841 -0.1929,-0.0912 0.18291,-0.5546 0.47213,-0.58211 1.07526,-0.74343 1.95234,-0.52329 0.88685,0.22258 1.16232,0.14561 0.91455,-0.2553 -0.19506,-0.31561 -0.12872,-0.57415 0.14672,-0.57415 0.27544,0 0.63966,0.22536 0.80989,0.5008 0.17023,0.27544 0.67725,0.5008 1.1268,0.5008 0.68994,0 0.66603,-0.12186 -0.15454,-0.7825 -0.61621,-0.49612 -0.7008,-0.71155 -0.23084,-0.58786 0.40777,0.10732 1.29802,-0.32149 1.97875,-0.95269 0.61159,-0.56711 1.08976,-0.85881 1.3371,-0.89499 z m 28.53977,0.21323 c -0.11315,0 -0.7104,1.04279 -1.32732,2.31718 -0.70475,1.45584 -1.95348,2.89845 -3.35888,3.88121 -1.23024,0.86027 -2.6049,1.86507 -3.05469,2.23306 -0.44979,0.368 0.0837,0.16398 1.18549,-0.45385 2.54173,-1.42532 5.15463,-3.85756 5.57923,-5.19287 0.32543,-1.0234 0.33173,-1.02343 0.7199,-0.0303 0.30094,0.76991 0.39942,0.56718 0.42647,-0.8764 0.0194,-1.0329 -0.0571,-1.878 -0.1702,-1.878 z m -2.90112,1.56598 c 0.0655,0.006 0.10172,0.0883 0.10172,0.24649 0,0.28092 -0.64016,1.22802 -1.42219,2.10395 -0.78203,0.87593 -1.61218,1.59239 -1.84573,1.59239 -0.23354,0 0.23485,-0.73242 1.04171,-1.6276 0.80686,-0.89518 1.63799,-1.84131 1.8467,-2.10297 0.11753,-0.14734 0.2123,-0.2183 0.27779,-0.21226 z m 14.13001,0.63774 c 0.16629,0.006 0.35729,0.0201 0.57221,0.0421 0.92163,0.0944 1.76036,0.19129 1.86431,0.21518 0.10394,0.0239 -0.75067,1.06301 -1.89953,2.30936 -1.14884,1.24636 -1.9509,2.48917 -1.78214,2.76223 0.16876,0.27306 0.52062,0.3647 0.78152,0.20345 0.2609,-0.16124 0.36619,-0.46848 0.23377,-0.68274 -0.32469,-0.52536 2.45657,-3.15103 2.8845,-2.7231 0.1858,0.1858 0.82181,-0.0929 1.41339,-0.61915 1.07262,-0.95413 1.07371,-0.95347 0.38343,0.17019 -0.38072,0.61974 -0.98862,1.1268 -1.35177,1.1268 -0.36315,0 -0.52138,0.22537 -0.35115,0.50081 0.17023,0.27544 0.13368,0.7825 -0.0812,1.1268 -0.66988,1.07338 -0.69241,2.37862 -0.0411,2.38662 0.46157,0.006 0.44963,0.11721 -0.046,0.43136 -0.36783,0.23316 -0.6462,0.62394 -0.61916,0.86858 0.001,0.0128 -0.003,0.0254 -0.004,0.0382 -0.0108,-0.0185 -0.0103,-0.032 -0.0313,-0.0548 -0.47082,-0.51008 -3.4342,-0.81142 -3.4342,-0.34919 0,0.21645 0.14201,0.53618 0.31594,0.71012 0.17394,0.17394 0.681,0.12876 1.1268,-0.0998 0.44581,-0.22853 1.14891,-0.30254 1.56207,-0.16433 0.19769,0.0661 0.34105,0.0888 0.42157,0.0753 -0.11333,0.17773 -0.44401,0.3203 -0.84803,0.34331 -0.51696,0.0294 -1.16986,0.19564 -1.45155,0.36974 -0.82792,0.51168 -1.90698,-1.09586 -1.20602,-1.79682 0.84406,-0.84407 0.71122,-1.61254 -0.15455,-0.89401 -0.4039,0.33521 -0.95984,0.53115 -1.23537,0.43625 -0.27554,-0.0949 0.6368,-1.46798 2.02765,-3.05176 1.39086,-1.58378 2.45385,-2.89667 2.36218,-2.91775 -0.0917,-0.0211 -0.5814,-0.11725 -1.08866,-0.21323 -1.44602,-0.2736 -1.48772,-0.59226 -0.32376,-0.54971 z m -29.16088,0.43429 c 0.0876,0.0226 0.10433,0.2559 0.10564,0.68077 0.002,0.58611 -0.32168,1.84377 -0.71893,2.79451 -0.39725,0.95075 -1.04694,1.99751 -1.44273,2.32599 -0.59062,0.49016 -0.76895,0.34811 -0.99867,-0.79131 -0.18993,-0.94203 -0.0211,-1.58667 0.52525,-2.00614 0.44288,-0.33999 1.21627,-1.24143 1.71857,-2.0032 0.46817,-0.70999 0.69822,-1.02973 0.81087,-1.00062 z m -17.66007,0.49982 c -0.0432,0.005 -0.0761,0.0165 -0.0959,0.0362 -0.11659,0.11659 0.53165,0.67046 1.4398,1.23146 1.83868,1.13581 2.40228,1.29939 2.40228,0.69545 0,-0.44437 -3.09876,-2.02716 -3.74622,-1.96311 z m -0.66513,1.62369 c 1.45194,-0.0241 3.25914,0.98653 3.65819,2.24382 0.23541,0.74172 0.75686,1.00747 1.97777,1.00747 0.91176,0 1.93591,0.33544 2.2761,0.74534 0.74948,0.90305 0.36624,1.07138 -3.23075,1.41926 -1.71795,0.16615 -2.74674,0.56416 -3.3354,1.29112 -1.08962,1.34562 -1.50378,1.32194 -3.12121,-0.17703 -1.97945,-1.8345 -1.52075,-5.25853 0.84902,-6.33827 0.27555,-0.12555 0.59122,-0.18614 0.92628,-0.19171 z m 49.62916,0.0528 c -0.16158,0.0274 -0.45022,0.27405 -0.96541,0.75805 -0.63421,0.5958 -1.04339,1.2606 -0.90966,1.47697 0.13372,0.21637 0.0139,0.53515 -0.26605,0.70816 -0.27993,0.17301 -0.50863,0.61525 -0.50863,0.98302 0,0.38587 0.4902,0.63832 1.15908,0.59666 0.83484,-0.052 1.13427,-0.35254 1.07007,-1.07399 -0.049,-0.55091 0.0746,-1.22696 0.27486,-1.5024 0.2003,-0.27544 0.35756,-0.8991 0.34919,-1.386 -0.007,-0.39554 -0.0419,-0.58785 -0.20345,-0.56047 z m -48.72341,2.19682 c -0.86103,0 -1.20973,1.56478 -0.45288,2.03254 0.391,0.24166 0.89033,0.23453 1.14148,-0.0166 0.54662,-0.54663 0.0447,-2.01592 -0.6886,-2.01592 z m 11.29735,0 c -0.12146,0 -0.35991,0.22536 -0.53014,0.5008 -0.17023,0.27544 -0.0706,0.5008 0.22106,0.5008 0.2917,0 0.53014,-0.22536 0.53014,-0.5008 0,-0.27544 -0.0996,-0.5008 -0.22106,-0.5008 z m 24.36122,0.0244 c 0.18721,-0.0409 0.22529,0.4958 0.28464,1.85941 0.14972,3.44011 -1.87614,7.21086 -5.23787,9.74899 -1.47789,1.11582 -2.57453,2.14199 -2.43651,2.28001 0.13803,0.13803 1.25538,-0.57122 2.48249,-1.57674 2.04627,-1.67676 2.25699,-1.74798 2.53921,-0.85879 0.37215,1.17255 -1.024,4.7398 -1.69314,4.32625 -0.26137,-0.16154 -0.61618,0.15098 -0.78837,0.6935 -0.45753,1.44155 -4.9209,5.28452 -6.85667,5.90397 -1.01468,0.32469 -1.29233,0.55377 -0.70913,0.58492 1.22525,0.0654 5.67167,-2.77363 6.36075,-4.06119 0.28911,-0.54021 0.66113,-0.84518 0.82749,-0.67882 0.41996,0.41994 -3.32808,4.21003 -5.06375,5.12049 -1.57811,0.82781 -5.53211,1.55107 -7.08849,1.297 -3.75572,-0.6131 -4.22227,-1.37622 -0.84119,-1.37622 1.68946,0 1.87863,-0.15207 2.4864,-2.00321 0.90232,-2.74823 1.73325,-3.43833 4.24702,-3.52321 1.18633,-0.0401 3.3128,-0.65256 4.72631,-1.36253 1.41313,-0.70977 2.70031,-1.15938 2.86103,-0.99866 0.16071,0.16071 0.29245,-0.0838 0.29245,-0.54286 0,-1.07985 -0.44358,-1.0538 -1.72052,0.0998 -1.10556,0.99874 -5.79041,2.73984 -6.21893,2.31132 -0.43994,-0.43995 0.8324,-1.39742 2.03548,-1.53175 1.6033,-0.17902 4.0962,-1.1847 3.76286,-1.51805 -0.15234,-0.15233 -0.77439,-0.0103 -1.3821,0.31495 -0.74395,0.39816 -0.99408,0.41095 -0.76489,0.0401 0.18721,-0.30292 0.11503,-0.55069 -0.16041,-0.55069 -0.27544,0 -0.63966,0.22536 -0.80989,0.5008 -0.39664,0.64179 -1.25201,0.65042 -1.25201,0.0127 0,-0.26836 0.61975,-0.80858 1.37721,-1.20114 3.61146,-1.87164 7.59445,-6.43628 7.92184,-9.07799 0.0683,-0.55088 0.29806,-1.45232 0.51058,-2.0032 0.2375,-0.6156 -0.15132,-0.36954 -1.00942,0.63774 -0.76788,0.90139 -1.87876,1.8861 -2.46879,2.18905 -0.73233,0.376 -0.50031,-0.0641 0.73066,-1.38796 0.99177,-1.06662 2.12624,-2.42843 2.52161,-3.02535 0.25554,-0.38581 0.42173,-0.6181 0.53405,-0.64263 z m -35.85322,0.64849 c 0.0599,0.0101 0.12579,0.0357 0.19465,0.0783 0.27544,0.17024 0.5008,0.40868 0.5008,0.53015 0,0.12146 -0.22536,0.22105 -0.5008,0.22105 -0.27544,0 -0.5008,-0.23844 -0.5008,-0.53014 0,-0.21877 0.12656,-0.3295 0.30615,-0.29931 z m 4.70185,0.88716 -1.252,0.0421 1.252,0.40103 c 0.6886,0.22053 1.59005,0.41986 2.00321,0.44309 0.66773,0.0376 0.66773,-0.0116 0,-0.44309 -0.41316,-0.26701 -1.31461,-0.46633 -2.00321,-0.44309 z m 7.29096,1.4447 c -0.12147,0 -0.35991,0.22536 -0.53015,0.5008 -0.17023,0.27544 -0.0706,0.5008 0.22106,0.5008 0.2917,0 0.53014,-0.22536 0.53014,-0.5008 0,-0.27544 -0.0996,-0.5008 -0.22105,-0.5008 z m 25.37064,1.02996 c -0.0313,0.0313 0.1244,0.29812 0.44114,0.82554 0.36465,0.60722 0.77105,0.99642 0.90281,0.86467 0.13175,-0.13175 -0.16676,-0.62884 -0.66317,-1.10431 -0.43118,-0.41298 -0.6495,-0.61717 -0.68078,-0.5859 z m 10.65767,0.48809 c 0.27544,0 0.16276,0.21814 -0.2504,0.48515 -0.41316,0.26701 -0.97656,0.48515 -1.252,0.48515 -0.27545,0 -0.16277,-0.21814 0.2504,-0.48515 0.41316,-0.26701 0.97656,-0.48515 1.252,-0.48515 z m -27.15083,0.49395 c 0.16916,0.0478 0.21413,0.78655 0.26311,2.56367 0.0994,3.60866 -0.86446,6.04344 -3.70808,9.36556 -1.7701,2.06797 -3.70908,3.49414 -3.70905,2.728 10e-6,-0.21627 0.78908,-1.02318 1.75378,-1.79291 1.94231,-1.54977 3.98609,-5.0828 3.44594,-5.95679 -0.21103,-0.34145 -0.12009,-0.42093 0.23181,-0.20345 0.54751,0.33838 0.63161,0.0913 0.77761,-2.28588 0.0281,-0.45714 0.21989,-1.00143 0.42647,-1.20994 0.55525,-0.56046 0.45619,-1.32278 -0.1252,-0.96346 -0.67468,0.41698 -0.60261,-0.25306 0.17802,-1.65988 0.21851,-0.39379 0.36408,-0.61363 0.46559,-0.58492 z m -22.33846,0.69643 c 0.15625,0.002 0.28668,0.0947 0.40103,0.27974 0.18128,0.29331 0.55812,0.39261 0.83728,0.22008 0.27915,-0.17253 0.17375,0.33091 -0.23377,1.11898 -0.40752,0.78806 -0.90115,2.71197 -1.09648,4.27539 -0.32016,2.56242 -0.26571,2.82978 0.54775,2.71039 0.49631,-0.0729 1.00043,-0.42589 1.11995,-0.78446 0.11953,-0.35855 -0.0182,-0.507 -0.30517,-0.32963 -0.58864,0.3638 -0.51667,-0.94367 0.0851,-1.54544 0.21457,-0.21455 0.32404,-0.16491 0.24257,0.11053 -0.0815,0.27544 0.14819,1.03641 0.51058,1.69118 0.50337,0.90947 0.51834,1.2771 0.0636,1.55816 -0.3274,0.20234 -0.57618,0.51184 -0.55264,0.68762 0.0235,0.17579 -0.12598,0.31985 -0.33256,0.31985 -0.20658,0 -0.3756,-0.20626 -0.3756,-0.45875 0,-0.25248 -0.16903,-0.62873 -0.37561,-0.83531 -0.7335,-0.73351 -0.33883,1.57761 0.63676,3.72764 1.16148,2.55967 1.25704,3.13048 0.30616,1.83007 -0.65834,-0.90033 -0.7341,-0.88764 -1.97288,0.35115 -0.70854,0.70852 -1.4145,1.16188 -1.56892,1.00747 -0.15441,-0.15442 -0.28072,-0.12626 -0.28072,0.0626 0,0.18885 1.17926,1.58802 2.6204,3.10848 1.44114,1.52047 2.8067,3.09841 3.03513,3.50659 0.22843,0.40819 0.65108,0.59658 0.939,0.41863 0.34073,-0.21058 0.28673,-0.47391 -0.15552,-0.75413 -0.47641,-0.30186 -0.49735,-0.43285 -0.0695,-0.4382 0.33565,-0.004 0.49678,-0.30344 0.35799,-0.66513 -0.13879,-0.36168 0.20626,-1.07332 0.76685,-1.58065 0.5606,-0.50733 1.01921,-0.67552 1.01921,-0.37364 0,0.30187 -0.22536,0.68856 -0.5008,0.85879 -0.27544,0.17023 -0.49698,0.91574 -0.49298,1.65695 0.006,0.98493 0.12732,1.15748 0.45386,0.64165 0.24573,-0.38818 0.34485,-0.97185 0.22008,-1.297 -0.12477,-0.32515 0.07,-0.83686 0.43233,-1.13756 0.52927,-0.43925 0.62202,-0.16792 0.47439,1.38014 -0.14698,1.54125 -0.42436,1.98755 -1.38699,2.22915 -0.71626,0.17977 -1.18751,0.65291 -1.16397,1.16886 0.0241,0.52799 0.13895,0.62087 0.29344,0.23768 0.1395,-0.34597 0.45735,-0.50299 0.70621,-0.34918 0.24885,0.15379 0.0928,0.88743 -0.34723,1.63053 l -0.80011,1.35079 1.06322,-1.19136 c 0.87822,-0.98392 0.95351,-1.32614 0.43037,-1.96016 -0.52369,-0.63471 -0.50357,-0.72214 0.11738,-0.50569 0.42108,0.14677 0.69674,0.74555 0.62698,1.36253 -0.0772,0.68231 0.0806,0.97397 0.4157,0.76685 0.30034,-0.18562 0.40267,-0.88532 0.22987,-1.57381 -0.2205,-0.87842 -0.13962,-1.13339 0.27778,-0.87542 0.43413,0.26831 0.52738,-0.3723 0.35604,-2.43847 -0.12782,-1.54132 -0.0526,-2.69076 0.16726,-2.55487 0.21987,0.1359 0.0664,-0.69866 -0.34137,-1.85452 -0.40781,-1.15586 -0.63065,-2.21179 -0.49591,-2.34653 0.13475,-0.13474 0.43838,0.27806 0.67491,0.91748 l 0.4294,1.16202 0.28561,-1.08964 c 0.15685,-0.5998 0.0805,-0.96424 -0.16921,-0.80989 -0.59338,0.36674 -0.56776,-0.33015 0.0469,-1.28134 0.2815,-0.43559 0.48847,-0.50405 0.49298,-0.16335 0.013,0.99558 2.48766,3.59513 3.58092,3.76188 l 1.03388,0.15748 -1.09159,1.38209 c -0.60043,0.76009 -1.30479,1.25045 -1.565,1.08963 -0.26022,-0.16081 -0.43104,-0.10674 -0.38049,0.12031 0.15123,0.67923 -0.64536,2.17696 -1.03095,1.93865 -0.19672,-0.12159 -0.26705,0.39506 -0.1565,1.14832 0.2243,1.52822 -1.12021,3.5622 -2.48737,3.76285 -0.46845,0.0688 -1.31293,0.54295 -1.87703,1.05344 -1.01741,0.92075 -1.02606,0.91173 -1.02606,-1.07789 0,-1.42375 -0.42613,-2.59397 -1.46914,-4.0338 -2.19374,-3.02837 -2.74455,-3.18845 -2.41108,-0.70229 0.21254,1.58468 0.11153,2.0795 -0.42451,2.0795 -0.76919,0 -0.88279,-1.63848 -0.22595,-3.25521 0.29331,-0.72193 0.0743,-1.44577 -0.78445,-2.59301 -0.67214,-0.89795 -1.05952,-1.93473 -0.88912,-2.3788 0.16613,-0.43293 0.12814,-1.18178 -0.0841,-1.6638 -0.21226,-0.48202 -0.42486,-0.98908 -0.47244,-1.1268 -0.0476,-0.13772 -0.26176,-0.64714 -0.47537,-1.13267 -0.49502,-1.12518 0.61339,-2.51917 1.76357,-2.21839 0.72938,0.19073 0.89045,-0.26961 1.0867,-3.09479 0.24678,-3.55262 0.11122,-4.27341 -0.71012,-3.76579 -0.33524,0.20719 -0.28011,0.46925 0.15552,0.73848 0.56416,0.34866 0.56128,0.52382 -0.0196,1.0642 -0.51958,0.48337 -0.60645,0.48835 -0.34234,0.0205 0.53235,-0.94292 -0.0798,-0.75255 -1.20799,0.3756 -0.55088,0.55088 -0.99432,1.2833 -0.98595,1.6276 0.008,0.34742 0.24196,0.23598 0.52525,-0.2504 0.6934,-1.19048 1.9631,-1.10951 1.9631,0.1252 0,0.55088 -0.16902,1.01866 -0.3756,1.03975 -0.20658,0.0211 -0.76174,0.1127 -1.23342,0.20345 -0.4873,0.0938 -0.98078,-0.22409 -1.14342,-0.73653 -0.43976,-1.38553 1.93213,-7.00306 2.65267,-6.2825 0.14199,0.14198 0.54009,0.0243 0.88521,-0.26214 0.21772,-0.18069 0.4003,-0.27006 0.55655,-0.26801 z m 47.10853,0.94878 c 0.48316,-0.008 1.13139,0.18382 1.44078,0.42647 0.30939,0.24264 0.98547,0.31145 1.5024,0.15356 0.51693,-0.1579 -0.15245,0.30502 -1.48773,1.02801 -1.33528,0.723 -2.31251,1.42981 -2.17144,1.57087 0.14107,0.14107 0.74588,-0.006 1.34394,-0.32571 0.59807,-0.32008 1.21815,-0.45054 1.37818,-0.29051 0.16004,0.16004 0.0279,0.29051 -0.29343,0.29051 -0.32135,0 -0.55688,0.16902 -0.52428,0.3756 0.13995,0.88637 -0.0844,1.76911 -0.3756,1.47795 -0.17394,-0.17394 -0.70802,-0.10641 -1.18647,0.14965 -1.0558,0.56505 -1.68695,0.0745 -0.98791,-0.76783 0.37441,-0.45113 0.1806,-0.60937 -0.7463,-0.60937 -0.68874,0 -1.13977,0.18199 -1.00258,0.40396 0.42494,0.68757 -0.82262,1.11995 -1.43883,0.49885 -0.44437,-0.44791 -0.34465,-0.49751 0.41962,-0.21225 0.88747,0.33123 0.92382,0.27723 0.31887,-0.46657 -0.37551,-0.4617 -0.88257,-0.71533 -1.1268,-0.56438 -0.24423,0.15094 -0.44407,0.0111 -0.44407,-0.31007 0,-0.32114 0.2907,-0.47204 0.64654,-0.33549 0.35584,0.13654 1.05405,-0.0492 1.55131,-0.41277 0.49725,-0.3636 1.27701,-0.52152 1.73226,-0.35115 0.74406,0.27846 0.75262,0.21188 0.0851,-0.66024 -0.71901,-0.93937 -0.71012,-0.94248 0.28952,-0.0939 1.36159,1.15586 2.08618,1.12613 1.02899,-0.0421 -0.7757,-0.85713 -0.77219,-0.91892 0.0479,-0.93314 z m -47.69345,0.0988 c -0.68555,0 -1.36043,0.29597 -1.49947,0.65828 -0.17815,0.46425 0.0417,0.56568 0.74534,0.34235 0.65112,-0.20666 1.00148,-0.0879 1.00649,0.34234 0.006,0.48473 0.13629,0.46096 0.49297,-0.091 0.7148,-1.10607 0.62822,-1.252 -0.74533,-1.252 z m 48.26272,0.2504 c -0.27544,0 -0.36195,0.22536 -0.19172,0.5008 0.17024,0.27544 0.53445,0.5008 0.80989,0.5008 0.27544,0 0.36195,-0.22536 0.19172,-0.5008 -0.17024,-0.27544 -0.53445,-0.5008 -0.80989,-0.5008 z m -50.12018,1.60217 c -0.0875,0.002 -0.23513,0.14281 -0.40201,0.40104 -0.267,0.41316 -0.48515,0.97656 -0.48515,1.252 0,0.27544 0.21815,0.16276 0.48515,-0.2504 0.26701,-0.41316 0.48515,-0.97656 0.48515,-1.252 0,-0.10329 -0.0306,-0.15188 -0.0831,-0.15064 z m 26.875,0.13107 c -0.0906,-0.0337 -0.15454,0.25432 -0.15454,0.77077 0,0.6886 0.11343,0.9703 0.25236,0.626 0.13892,-0.3443 0.13892,-0.9077 0,-1.252 -0.0348,-0.0861 -0.0676,-0.13352 -0.0978,-0.14477 z m 21.95992,0.01 c -0.17809,-0.005 -0.43909,0.0135 -0.78446,0.0518 -1.51749,0.1683 -1.47679,0.14224 -1.12582,0.71012 0.20638,0.33393 0.63549,0.32805 1.28135,-0.0176 0.94799,-0.50734 1.16321,-0.72955 0.62893,-0.74436 z m 1.26472,1.42219 c -0.15259,-0.008 -0.50922,0.11928 -0.92238,0.34039 -0.55088,0.29482 -1.0016,0.6487 -1.0016,0.78642 0,0.13772 0.45072,0.009 1.0016,-0.28562 0.55088,-0.29482 1.0016,-0.64869 1.0016,-0.78641 0,-0.0344 -0.0283,-0.0521 -0.0792,-0.0548 z m -13.0932,1.47111 c -0.0759,-0.006 -0.29173,0.0956 -0.64068,0.27681 -0.57353,0.29778 -1.33385,0.89129 -1.68922,1.31949 -1.10449,1.33083 0.23555,0.85343 1.51805,-0.54091 0.67711,-0.73615 0.9384,-1.04527 0.81185,-1.05539 z m 9.48098,0.20443 c 0.44078,-0.0168 0.94712,0.12796 1.2119,0.447 0.32929,0.39679 0.4721,0.72186 0.31691,0.72186 -0.15519,0 -0.41528,-0.21587 -0.57808,-0.47928 -0.16279,-0.26342 -0.6266,-0.35177 -1.03094,-0.19661 -0.40434,0.15515 -0.73555,0.17 -0.73555,0.0323 0,-0.32914 0.37497,-0.50843 0.81576,-0.52525 z m -18.50126,1.31949 c 0.26493,-0.0367 0.54383,0.0352 0.75804,0.24942 0.28241,0.28243 0.39345,0.81513 0.24649,1.18353 -0.18389,0.46097 -0.27994,0.47967 -0.30713,0.0597 -0.0217,-0.33564 -0.37717,-0.48035 -0.79033,-0.32181 -0.41316,0.15855 -0.7512,0.0519 -0.7512,-0.2367 0,-0.50948 0.40257,-0.87292 0.84413,-0.93411 z m 10.62636,0.85097 c -0.23741,0 -0.17441,0.56419 0.13987,1.25396 0.31428,0.68976 0.63883,1.18733 0.72088,1.10528 0.30471,-0.30471 -0.44491,-2.35924 -0.86075,-2.35924 z m -13.94515,1.0016 c -0.2917,0 -0.53014,0.22536 -0.53014,0.5008 0,0.27544 0.0996,0.5008 0.22105,0.5008 0.12147,0 0.35992,-0.22536 0.53015,-0.5008 0.17023,-0.27544 0.0706,-0.5008 -0.22106,-0.5008 z m 24.50011,0.0391 c -0.39169,-3.8e-4 -1.17272,0.38805 -2.3074,1.15909 -1.15426,0.78434 -1.53432,1.28889 -1.10039,1.46229 0.36453,0.14568 1.00121,0.27983 1.41437,0.29735 0.66773,0.0284 0.66773,-0.0266 0,-0.49199 -0.57765,-0.40257 -0.40411,-0.47608 0.7512,-0.31985 0.82632,0.11177 1.2207,0.10838 0.8764,-0.007 -0.3443,-0.11523 -0.626,-0.43177 -0.626,-0.70327 0,-0.2715 0.2014,-0.36856 0.44798,-0.21616 0.24658,0.15239 0.57762,-0.0599 0.73555,-0.47146 0.18174,-0.47361 0.11294,-0.70885 -0.19171,-0.70915 z m 3.47724,0.51059 c -0.13616,0.0159 -0.26904,0.0943 -0.36484,0.23279 -1.03977,1.50296 -3.16191,2.55002 -5.09506,2.51281 l -2.0746,-0.0401 1.32633,1.1405 1.32537,1.1405 1.5963,-1.3909 c 0.87768,-0.76491 2.1535,-1.76061 2.83559,-2.21252 0.68209,-0.45191 1.05882,-1.00862 0.83727,-1.23733 -0.11078,-0.11436 -0.2502,-0.16164 -0.38636,-0.14574 z m -52.91957,0.10074 c -0.11082,-0.002 -0.22005,0.0963 -0.3443,0.29736 -0.1884,0.30484 -0.0908,0.55459 0.21714,0.55459 0.30795,0 0.42063,0.22536 0.2504,0.5008 -0.17023,0.27544 -0.13059,0.7825 0.088,1.1268 0.21862,0.34431 0.42888,0.79503 0.46755,1.00161 0.0387,0.20658 0.0986,0.48828 0.13302,0.626 0.0345,0.13772 0.3443,0.24658 0.6886,0.24257 0.46874,-0.006 0.4581,-0.1143 -0.0421,-0.43135 -0.53237,-0.33747 -0.49798,-0.48795 0.1702,-0.74436 0.46111,-0.17694 1.03495,-0.20086 1.27449,-0.0528 0.23955,0.14804 0.19159,-0.42872 -0.10563,-1.28135 -0.38097,-1.09284 -0.76904,-1.4621 -1.31656,-1.252 -0.42717,0.16392 -0.93557,0.0413 -1.12974,-0.2729 -0.12805,-0.20721 -0.24032,-0.31225 -0.35114,-0.31496 z m 1.67063,1.10138 c 0.14866,0.0224 0.25819,0.16729 0.36289,0.44015 0.1509,0.39326 0.13922,0.84967 -0.0254,1.01432 -0.4323,0.43229 -1.03202,0.36785 -1.34884,-0.14476 -0.15094,-0.24424 0.0348,-0.70064 0.41277,-1.01432 0.26225,-0.21764 0.44996,-0.31776 0.59861,-0.29539 z m -5.69856,0.78934 c 0.0649,0.002 0.11991,0.0211 0.15846,0.0597 0.15419,0.15419 -0.12428,0.43402 -0.61818,0.62209 -0.71374,0.27177 -0.77164,0.21388 -0.28072,-0.28073 0.25479,-0.25669 0.54582,-0.40676 0.74044,-0.40103 z m 39.70509,0.17509 c 0.339,-0.005 0.79284,0.16727 1.11506,0.52134 0.21455,0.23576 0.10857,0.2666 -0.23573,0.0685 -0.89226,-0.51348 -0.77402,0.19332 0.23671,1.41241 0.47472,0.57257 0.54272,0.75903 0.15063,0.41473 -1.17282,-1.0299 -1.74325,-0.70722 -0.72968,0.41277 0.51698,0.57126 0.72157,0.99493 0.45385,0.94193 -1.20105,-0.23776 -1.20387,0.13408 -0.0117,1.69705 0.70262,0.92118 1.27744,1.81698 1.27744,1.99049 0,0.62355 -3.14212,1.92472 -4.0651,1.68336 -0.73663,-0.19263 -0.94291,0.0253 -0.94291,0.9967 0,1.24559 -2.43218,4.17172 -3.46746,4.17172 -0.71661,0 -0.68351,-0.27176 0.25333,-2.08342 0.43592,-0.84296 0.54368,-1.37791 0.23867,-1.1894 -0.30502,0.18851 -0.52266,0.15663 -0.4832,-0.0704 0.16859,-0.97052 -0.086,-1.66477 -0.61035,-1.66477 -0.36285,0 -0.45316,0.55219 -0.25333,1.55131 0.67144,3.35721 -1.00547,5.07362 -3.88708,3.97804 -1.07845,-0.41003 -1.48917,-0.2607 -2.75049,1.00062 -1.09048,1.09048 -1.9574,1.48284 -3.27477,1.48284 -2.19218,0 -2.23409,-0.3923 -0.2455,-2.2849 0.85002,-0.809 1.78663,-1.91657 2.08145,-2.46097 0.75361,-1.39163 1.35298,-4.26854 0.88912,-4.26854 -0.72879,0 -1.59767,1.4585 -1.22658,2.05895 0.204,0.33005 0.16698,0.48773 -0.0822,0.35115 -0.66789,-0.36616 -1.92995,1.1814 -2.12742,2.60866 -0.0945,0.68273 -0.45925,1.57929 -0.81087,1.99245 -0.35162,0.41316 -0.72465,0.9989 -0.82945,1.30188 -0.30609,0.88491 -1.40359,0.22674 -2.2047,-1.32243 -0.94381,-1.82518 -0.95002,-3.48506 -0.0137,-3.48506 0.39948,0 0.90654,-0.31299 1.1268,-0.69545 0.22027,-0.38245 0.85078,-0.77683 1.40166,-0.8764 0.55088,-0.0996 1.33964,-0.91291 1.7528,-1.80758 0.67567,-1.46311 0.90227,-1.5911 2.25361,-1.27058 2.48965,0.59051 6.75411,0.15134 9.06332,-0.93411 2.47574,-1.16374 5.91042,-4.68907 5.5313,-5.67705 -0.137,-0.35701 0.0875,-0.54042 0.42646,-0.54579 z m -12.77531,0.78543 c -0.0422,-0.019 -0.28014,0.14829 -0.74338,0.48809 -0.55088,0.40408 -1.09517,0.79846 -1.20994,0.8764 -0.11477,0.0779 0.0263,0.14183 0.31398,0.14183 0.28762,0 0.83191,-0.39438 1.20994,-0.8764 0.31789,-0.40534 0.47163,-0.61088 0.4294,-0.62992 z m -25.21219,0.6886 c 0.0783,-0.0308 0.12398,0.18088 0.14085,0.63872 0.0217,0.59027 -0.33038,1.21545 -0.7825,1.38894 -0.61496,0.23598 -0.69522,0.15508 -0.31789,-0.3218 0.27741,-0.35061 0.62954,-0.97578 0.7825,-1.38894 0.0712,-0.19228 0.13009,-0.29841 0.17704,-0.31692 z m 5.42665,1.31852 c 1.17427,0 1.41397,1.00709 0.48417,2.0345 -1.01796,1.12484 -1.55013,1.22324 -1.86529,0.3443 -0.31874,-0.88894 0.54628,-2.3788 1.38112,-2.3788 z m 44.34434,1.0016 c 0.31463,0 0.4785,0.2817 0.36386,0.626 -0.11464,0.3443 -0.63982,0.66979 -1.16788,0.72284 -0.80995,0.0814 -0.82276,0.0556 -0.0782,-0.16335 0.48539,-0.14275 0.754,-0.46824 0.59665,-0.72284 -0.15734,-0.25459 -0.029,-0.46265 0.28562,-0.46265 z m -28.63661,0.16041 c -0.15259,-0.008 -0.50921,0.11927 -0.92237,0.34039 -0.55088,0.29482 -1.00161,0.64869 -1.00161,0.78641 0,0.13772 0.45073,0.009 1.00161,-0.28561 0.55088,-0.29482 1.0016,-0.64869 1.0016,-0.78641 0,-0.0344 -0.0283,-0.0521 -0.0792,-0.0548 z m -10.54714,0.37951 c -0.50263,0.031 -0.50596,0.0946 -0.0156,0.29247 0.3443,0.13892 0.626,0.6095 0.626,1.04561 0,0.43609 0.14027,0.65201 0.31202,0.48026 0.48856,-0.48856 -0.20826,-1.86235 -0.92237,-1.81834 z m 33.57224,0.46168 c -0.25798,0 -0.32344,0.23482 -0.14575,0.52232 0.17769,0.28751 0.0217,0.89487 -0.34625,1.34884 -0.57212,0.70575 -0.56015,0.75772 0.0822,0.36092 0.41316,-0.25523 0.92022,-0.49539 1.1268,-0.53405 0.20658,-0.0387 0.51618,-0.0986 0.68763,-0.13303 0.46301,-0.093 -0.85815,-1.565 -1.40459,-1.565 z m -29.32815,0.23769 c -0.0222,10e-4 -0.0409,0.009 -0.0557,0.0235 -0.11854,0.11854 0.0702,0.55929 0.41864,0.97911 0.89343,1.07653 1.13592,0.94806 0.40886,-0.21617 -0.29419,-0.47105 -0.61652,-0.79271 -0.77175,-0.78641 z m 12.89269,0.32767 c -0.22693,0 -0.45385,0.0352 -0.626,0.10466 -0.3443,0.13892 -0.0626,0.25236 0.626,0.25236 0.6886,0 0.9703,-0.11344 0.626,-0.25236 -0.17215,-0.0695 -0.39908,-0.10466 -0.626,-0.10466 z m 19.98997,0.49787 c 0.17397,0.007 0.32369,0.0537 0.4069,0.13693 0.16641,0.16641 -0.12938,0.28486 -0.6573,0.26312 -0.58341,-0.024 -0.70175,-0.14335 -0.30224,-0.30322 0.18076,-0.0723 0.37866,-0.104 0.55264,-0.0968 z m -14.712,1.22265 c -0.0323,-0.0202 -0.0668,0.009 -0.10173,0.0959 -0.13949,0.34602 -0.4362,0.51639 -0.65926,0.37853 -0.22305,-0.13785 -0.53209,0.0795 -0.68664,0.48222 -0.15455,0.40276 -0.0311,0.88684 0.27486,1.07594 0.3603,0.22268 0.41401,0.11256 0.1516,-0.31202 -0.2624,-0.42458 -0.20869,-0.53471 0.15161,-0.31203 0.30595,0.1891 0.42904,0.67454 0.27388,1.07888 -0.15516,0.40433 -0.033,0.73555 0.27192,0.73555 0.31378,0 0.53786,-0.81505 0.51547,-1.878 -0.0163,-0.77468 -0.0947,-1.28442 -0.19171,-1.34493 z m -19.11749,0.39125 c -0.0759,-0.0115 -0.12876,0.17139 -0.14378,0.53602 -0.0217,0.52792 0.0967,0.82371 0.26312,0.6573 0.16639,-0.16642 0.18477,-0.59803 0.0401,-0.95954 -0.06,-0.14982 -0.11388,-0.22688 -0.15943,-0.23378 z m 28.43219,1.24712 c 2.04675,-0.0228 4.69145,0.17132 5.03148,0.5008 0.51377,0.49782 -5.31537,0.56869 -6.11525,0.0743 -0.37967,-0.23465 -0.92722,-0.29283 -1.21581,-0.12912 -0.2907,0.1649 -0.34077,0.0961 -0.11248,-0.15357 0.17118,-0.1872 1.184,-0.27875 2.41206,-0.29245 z m -6.50063,1.05637 c 0.0143,10e-4 0.0308,0.0102 0.0499,0.0274 0.1522,0.13772 0.35391,0.70112 0.44896,1.25201 0.24714,1.43244 0.86649,1.73631 3.55353,1.74498 1.31586,0.004 2.3788,0.24154 2.3788,0.53111 0,0.31064 -0.66179,0.41707 -1.6276,0.26117 -3.42302,-0.55257 -4.13209,-0.53647 -4.0064,0.0919 0.0689,0.3443 -0.0438,0.60024 -0.2504,0.56829 -1.39079,-0.21511 -2.10244,-0.58058 -1.86823,-0.95954 0.14992,-0.24256 0.60411,-0.31459 1.00845,-0.15944 0.40434,0.15517 0.73458,0.0511 0.73458,-0.23084 0,-0.28195 -0.28171,-0.62596 -0.62601,-0.76489 -0.42037,-0.16963 -0.43585,-0.26592 -0.0469,-0.29246 0.34437,-0.0235 0.46724,-0.49585 0.30224,-1.16593 -0.13377,-0.54227 -0.15067,-0.91208 -0.0509,-0.90379 z m 3.02143,0.0959 c 1.29209,-0.0375 2.47485,0.13562 2.62921,0.38538 0.15435,0.24975 -0.22597,0.33241 -0.84609,0.18291 -0.77815,-0.18761 -0.97261,-0.10907 -0.62697,0.25431 0.27544,0.28959 1.0642,0.62767 1.7528,0.7512 l 1.252,0.22497 -1.252,0.0597 c -0.6886,0.0333 -1.57972,-0.14603 -1.97973,-0.39908 -0.40001,-0.25305 -0.94178,-0.32741 -1.20407,-0.1653 -0.26229,0.1621 -0.32619,0.0508 -0.14183,-0.24747 0.19338,-0.31288 -0.14384,-0.63522 -0.79816,-0.76098 -0.62381,-0.11991 -0.0772,-0.2481 1.21484,-0.28561 z m 5.81789,0.44015 c 0.72981,0.007 0.74324,0.0746 0.0959,0.49298 -0.98075,0.63381 -1.64372,0.63381 -1.252,0 0.17023,-0.27544 0.69038,-0.49698 1.15614,-0.49298 z m -16.5225,0.28953 c -0.19002,0.0265 -0.65076,0.48958 -1.10724,1.12876 l -0.94879,1.32829 1.1718,-1.11311 c 0.64411,-0.61209 1.0712,-1.2099 0.94878,-1.32829 -0.0153,-0.0148 -0.0374,-0.0194 -0.0645,-0.0156 z m 11.0675,1.26667 c 0.17397,0.007 0.32369,0.0537 0.4069,0.13694 0.16641,0.16641 -0.12938,0.28485 -0.6573,0.26312 -0.58341,-0.024 -0.70175,-0.14335 -0.30225,-0.30322 0.18076,-0.0724 0.37867,-0.104 0.55265,-0.0968 z m -17.55933,0.20052 c 0.0509,-0.006 0.1068,0.009 0.1653,0.045 0.23402,0.14464 0.29541,0.4723 0.13694,0.72871 -0.40496,0.65524 -0.56242,0.58229 -0.56242,-0.26214 0,-0.30079 0.1076,-0.49478 0.26018,-0.51156 z m 18.33596,1.7978 c 0.25534,0 0.22395,0.14826 -0.23377,0.44407 -0.41317,0.267 -1.08925,0.47288 -1.50241,0.45776 -0.49531,-0.0181 -0.41002,-0.17397 0.2504,-0.45776 0.68837,-0.29581 1.23044,-0.44407 1.48578,-0.44407 z m -3.44692,0.95171 c 0.28232,-0.0391 0.69409,0.23283 0.88325,0.72577 0.22192,0.57832 -0.16183,0.71502 -1.82421,0.64948 -1.15802,-0.0457 -3.00735,-0.24481 -4.10911,-0.44212 -1.52317,-0.27277 -1.19315,-0.32482 1.37721,-0.21714 1.85922,0.0779 3.3804,-0.0527 3.3804,-0.2905 0,-0.26679 0.12307,-0.40204 0.29246,-0.42549 z m -10.51682,0.29246 c 0.15216,-0.0427 0.25661,0.10657 0.3805,0.4294 0.16331,0.42558 0.5428,0.7737 0.84314,0.7737 0.30034,0 0.38645,-0.25809 0.19172,-0.57318 -0.19474,-0.3151 0.34839,-0.15801 1.207,0.34918 0.85861,0.5072 1.46165,1.02281 1.33906,1.14539 -0.12259,0.12259 -0.51078,-0.0114 -0.86173,-0.29833 -1.09399,-0.89449 -5.8302,0.27022 -5.20657,1.28037 0.119,0.19276 -0.34879,0.38402 -1.03877,0.42549 -1.23509,0.0742 -1.23077,0.0614 0.24062,-0.83337 0.82198,-0.49987 1.83079,-1.38892 2.24187,-1.97581 0.31183,-0.44521 0.51101,-0.6801 0.66316,-0.72284 z m -7.15108,3.175 0.12422,1.39285 c 0.0683,0.76594 0.14677,1.42957 0.17411,1.47404 0.10492,0.17084 1.53608,-0.14811 1.78606,-0.3981 0.14461,-0.1446 -0.2652,-0.75912 -0.91064,-1.36546 z m 9.44675,0.38049 c -1.6083,-0.0391 -3.24874,0.38066 -3.46159,1.01921 -0.19678,0.59033 1.35698,0.51354 2.37782,-0.11737 0.27441,-0.16959 0.49885,-0.0697 0.49885,0.22203 0,0.2917 0.61974,0.53397 1.3772,0.53797 0.75746,0.004 2.39132,0.3274 3.63081,0.71794 1.23948,0.39056 2.32904,0.72495 2.42086,0.74338 0.0918,0.0184 0.0733,-0.24765 -0.0411,-0.59079 -0.11438,-0.34313 -0.52786,-0.6353 -0.91846,-0.64947 -1.63073,-0.0591 -5.49607,-0.87116 -5.69758,-1.19723 -0.11979,-0.19384 0.50243,-0.28763 1.38306,-0.20737 l 1.6012,0.14672 -1.6276,-0.42352 c -0.47499,-0.12366 -1.00739,-0.18846 -1.54349,-0.2015 z m -8.78456,0.93509 c 0.10456,-0.0165 0.27088,0.0805 0.52037,0.28757 0.36725,0.30479 0.66806,0.60117 0.66806,0.65926 0,0.0581 -0.30081,0.10564 -0.66806,0.10564 -0.36726,0 -0.66709,-0.29638 -0.66709,-0.65926 0,-0.24652 0.0422,-0.37667 0.14672,-0.39321 z m 7.40051,1.42024 c 0.1799,0.0247 0.3984,0.18614 0.70327,0.49102 0.43305,0.43303 0.63755,0.93723 0.45385,1.12093 -0.1837,0.1837 -0.47641,-0.0351 -0.64947,-0.48612 -0.17307,-0.45099 -0.55108,-0.67363 -0.84022,-0.49494 -0.32138,0.19863 -0.3755,0.0816 -0.13889,-0.30126 0.14987,-0.2425 0.29155,-0.35431 0.47146,-0.32963 z"
     style="fill:#000000;stroke-width:0.50080073"
     id="pathMR7" />
</svg>
