<?xml version="1.0" encoding="UTF-8" standalone="no"?>
<svg
   xmlns:dc="http://purl.org/dc/elements/1.1/"
   xmlns:cc="http://creativecommons.org/ns#"
   xmlns:rdf="http://www.w3.org/1999/02/22-rdf-syntax-ns#"
   xmlns:svg="http://www.w3.org/2000/svg"
   xmlns="http://www.w3.org/2000/svg"
   id="svgMR9"
   version="1.1"
   viewBox="0 0 100 100"
   height="100"
   width="100">
  <defs
     id="defs2" />
  <metadata
     id="metadata5">
    <rdf:RDF>
      <cc:Work
         rdf:about="">
        <dc:format>image/svg+xml</dc:format>
        <dc:type
           rdf:resource="http://purl.org/dc/dcmitype/StillImage" />
        <dc:title></dc:title>
      </cc:Work>
    </rdf:RDF>
  </metadata>
  <path
     id="pathM9"
     d="m 45.373758,94.773412 c -0.32033,-0.0798 -1.50101,-0.36694 -2.62374,-0.6382 -1.57638,-0.38089 -1.81296,-0.65005 -1.03872,-1.18174 0.68245,-0.46865 -0.15002,-0.69218 -2.60693,-0.70001 -1.98524,-0.007 -5.2572,-0.68113 -7.27101,-1.49957 -4.06416,-1.65171 -8.85507,-5.55299 -8.85507,-7.21075 0,-0.59001 -0.26681,-1.07276 -0.5929,-1.07276 -0.32609,0 -2.01665,-1.18003 -3.7568,-2.62229 -2.26702,-1.87893 -3.87537,-4.16597 -5.67374,-8.06792 -1.44226,-3.1293 -2.1986,-5.55824 -1.77812,-5.71038 0.42987,-0.15554 0.15699,-1.14085 -0.66151,-2.38857 -1.9767305,-3.01333 -4.8341105,-9.8777 -4.8421105,-11.6324 -0.006,-1.39431 0.0575,-1.38311 1.07121,0.18791 0.5929,0.91882 1.42023,1.67058 1.83853,1.67058 0.43734,0 0.30901,-0.55899 -0.302,-1.3154 -3.99274,-4.94296 -4.41663,-14.54244 -0.85621,-19.38996 0.88209,-1.20098 0.86666,-0.99537 -0.0847,1.12824 -1.89297,4.22544 -2.10433,11.20417 -0.44616,14.73082 0.76731,1.63193 2.04414,3.60429 2.83742,4.38301 0.7932605,0.77872 1.3237505,1.62434 1.1788505,1.87915 -0.14491,0.25481 0.47445,0.51131 1.37635,0.57 0.90189,0.0587 1.58929,-0.11042 1.52754,-0.37583 -0.0618,-0.26539 0.12789,-1.2491 0.42142,-2.18599 0.42374,-1.35258 -0.10807,-2.6301 -2.58178,-6.20212 -2.3561005,-3.40219 -3.1926705,-4.17783 -3.4323005,-3.18234 -0.1952,0.81096 -0.34768,0.52274 -0.39718,-0.75074 -0.11294,-2.90627 0.6897,-2.566 2.6262305,1.11339 1.42488,2.70726 1.73593,2.95816 2.13529,1.72237 0.3005,-0.92988 -0.0945,-2.34537 -1.10602,-3.96329 -2.4776705,-3.96307 -3.1220405,-6.87634 -2.3691605,-10.7111 l 0.66408,-3.38247 -0.219,3.92087 c -0.12045,2.15648 0.0458,3.7432 0.36958,3.52602 0.3237205,-0.21717 0.5885905,0.0529 0.5885905,0.60022 0,0.54729 0.6055,2.22136 1.34555,3.72015 0.74006,1.49878 1.12958,2.97714 0.8656,3.28524 -0.26397,0.30809 0.2253,0.16179 1.08729,-0.3251 1.08573,-0.61326 1.93676,-0.65157 2.76991,-0.12467 0.74785,0.47294 0.85986,0.76922 0.2962,0.78343 -0.53898,0.0136 -0.69564,0.40377 -0.38643,0.96244 0.32498,0.58718 0.0608,0.53483 -0.70439,-0.13958 -1.064,-0.93778 -1.30684,-0.93778 -1.85352,0 -0.84444,1.44855 -0.80974,3.48541 0.0905,5.31123 0.62903,1.27581 0.91021,1.35339 1.86412,0.51433 0.82429,-0.72505 0.98491,-0.73798 0.60332,-0.0485 -0.28602,0.51677 -0.24197,0.93958 0.0979,0.93958 0.33987,0 0.61794,0.50925 0.61794,1.13167 0,0.62242 -0.48209,1.04523 -1.07132,0.93957 -2.2994,-0.41229 -1.71927,5.59574 0.6746,6.98639 1.15924,0.67343 1.62873,0.56972 2.45369,-0.54205 0.94621,-1.27513 0.96543,-1.2522 0.26513,0.31642 -0.61402,1.37534 -0.55649,1.69124 0.30803,1.69124 0.58469,0 1.06309,0.57501 1.06309,1.27781 0,0.99387 -0.18467,1.07738 -0.83098,0.37584 -1.37364,-1.49105 -1.93894,-1.03578 -1.93894,1.56157 0,4.22678 3.55417,7.87797 4.37,4.48929 0.29268,-1.21567 0.32278,-1.2123 0.39702,0.0443 0.0442,0.74787 0.34001,1.18555 0.65739,0.97264 0.31739,-0.21293 0.57706,0.0732 0.57706,0.63563 0,0.56252 -0.41548,0.84971 -0.9233,0.63818 -1.56767,-0.65298 -1.07504,3.32254 0.62471,5.04144 1.61934,1.63758 5.15221,1.82171 4.87889,0.25428 -0.0834,-0.47831 0.29709,-0.79816 0.84555,-0.71077 1.6022,0.25524 2.02273,1.12973 0.79016,1.64314 -1.70863,0.71168 -1.37088,3.01164 0.70217,4.78167 1.96713,1.67959 3.79637,1.5133 5.95157,-0.54103 1.13837,-1.08508 1.06913,-1.26241 -1.12457,-2.88047 -3.00439,-2.216 -3.62067,-3.85622 -1.60825,-4.28034 1.11671,-0.23535 0.95438,-0.34745 -0.61205,-0.42266 -4.92786,-0.23663 -12.51033,-8.9944 -11.97427,-13.83035 0.10248,-0.92458 -0.2178,-2.48157 -0.71175,-3.45997 -0.86129,-1.70602 -0.98698,-3.7781 -0.86264,-14.22001 0.0541,-4.54366 1.82557,-10.64749 3.39585,-11.70092 0.37571,-0.25205 1.49783,-2.26579 2.49357,-4.47497 0.99575,-2.20918 2.51545,-4.42797 3.3771,-4.93064 0.86164,-0.50267 2.28752,-2.11214 3.1686,-3.57659 1.09283,-1.81642 1.94927,-2.51799 2.69473,-2.20747 0.90927,0.37873 0.9458,0.26293 0.21757,-0.68953 -1.44399,-1.8886 -5.37078,-1.43555 -7.31724,0.84421 -1.94623,2.2795 -2.14636,3.27272 -0.65941,3.27272 0.85871,0 0.82871,0.23275 -0.17312,1.34316 -1.16368,1.28977 -1.2316,1.28977 -1.70889,0 -0.27337,-0.73874 -0.81869,-1.34316 -1.21183,-1.34316 -0.79814,0 -2.70225,2.01239 -3.97409,4.20008 -0.70799,1.2178 -0.74306,1.09292 -0.22957,-0.81762 0.73857,-2.74801 1.39845,-8.64409 0.96744,-8.64409 -0.17171,0 -1.07386,1.7758 -2.00477,3.94622 -0.93092,2.17042 -1.69049,3.43885 -1.68795,2.81872 0.006,-1.57171 2.91484,-6.95852 3.958,-7.33087 0.64194,-0.22911 0.74923,0.57025 0.42315,3.15262 -0.37945,3.005 -0.28773,3.39744 0.69807,2.98682 0.74591,-0.31069 1.13493,-1.35519 1.13493,-3.04726 0,-1.41599 0.4592,-3.7675 1.02045,-5.22556 1.00203,-2.6031603 0.99266,-2.6423203 -0.51936,-2.1688903 -2.35069,0.73604 -4.83595,2.8621403 -6.56027,5.6122203 -1.20112,1.91563 -1.55808,3.55012 -1.55808,7.13429 0,2.55715 0.19531,4.86136 0.43403,5.12048 0.23872,0.25912 1.25147,0.04 2.25056,-0.48699 1.6062,-0.84721 2.29158,-0.94697 3.97874,-0.57919 0.23707,0.0517 0.0399,0.60549 -0.43812,1.23071 -0.69658,0.91106 -1.07288,0.95322 -1.8953,0.21234 -0.84267,-0.75913 -1.32152,-0.55168 -2.67803,1.16014 -1.88249,2.37557 -2.18329,5.00736 -0.5723,5.00736 0.59377,0 0.887,0.33824 0.65162,0.75165 -0.23539,0.41342 -0.0201,0.75684 0.47848,0.76317 0.69661,0.009 0.68053,0.16677 -0.0694,0.68212 -0.53675,0.36883 -1.37087,0.50611 -1.85358,0.30503 -0.48272,-0.20106 -1.32951,0.57054 -1.88179,1.71465 l -1.00412,2.08022 -1.12404,-2.35943 c -1.16782,-2.45133 -1.41943,-7.73201 -0.49127,-10.3109 0.43696,-1.21412 0.76991,-0.73027 1.81041,2.6308 1.13227,3.6575 1.32587,3.90817 1.7296,2.23937 0.25004,-1.03354 0.1509,-2.30646 -0.22032,-2.82872 -0.37122,-0.52226 -0.86972,-2.88999 -1.10778,-5.26162 l -0.43284,-4.31205 -1.8984,4.09379 c -1.04412,2.25159 -1.8984005,3.67235 -1.8984005,3.15724 0,-1.24077 1.9576605,-5.39116 3.3727805,-7.15054 1.06551,-1.32473 1.15076,-1.15733 1.53127,3.00664 l 0.40295,4.40947 0.11641,-4.7352 c 0.0641,-2.60436 0.55601,-5.64858 1.09331,-6.76494 1.31165,-2.72529 4.47046,-5.8883003 6.85856,-6.8677003 2.86422,-1.17466 3.39635,-1.00889 2.86237,0.89175 -0.45917,1.6343703 -0.40835,1.6248203 1.51142,-0.28398 2.78539,-2.76951 4.6015,-3.65503 8.33766,-4.06539 l 3.24567,-0.356488 -1.42098,1.695228 c -0.78154,0.93238 -1.74766,2.70996 -2.14693,3.9502003 -0.39928,1.24025 -0.74863,1.74761 -0.77635,1.1275 -0.0277,-0.62013 0.4151,-2.0963403 0.98404,-3.2804803 1.35545,-2.82107 1.38475,-2.76727 -1.2161,-2.23231 -4.76755,0.98063 -7.89775,3.7839803 -8.59782,7.7000603 -0.45678,2.55523 -0.50884,2.59873 -0.98029,0.81937 -0.42617,-1.60848 -0.50783,-1.46412 -0.56691,1.0022 -0.0895,3.73666 1.3388,3.35204 2.53966,-0.6839 0.92967,-3.12451 4.32546,-7.0832403 6.07599,-7.0832403 0.92998,0 0.92877,0.24517 -0.0109,2.2176403 -1.37201,2.87994 -1.34543,3.04184 0.50158,3.05549 2.82671,0.0208 3.18419,0.78968 2.61587,5.62594 l -0.52997,4.50995 -0.0908,-3.66242 c -0.0802,-3.23368 -0.21774,-3.54806 -1.17517,-2.68556 -1.92972,1.7384 -3.18705,5.30438 -3.3032,9.3684 -0.0989,3.46116 0.0319,3.88787 1.01684,3.3156 1.32944,-0.77248 1.95514,-2.31154 2.06611,-5.0821 0.051,-1.27289 0.19602,-1.52503 0.39701,-0.69018 0.33537,1.393 1.60009,1.83858 1.60009,0.56375 0,-0.41341 0.62323,-0.0751 1.38496,0.75166 1.65581,1.79732 1.7325,2.73677 0.34624,4.24152 -0.60469,0.65635 -1.03872,2.49273 -1.03872,4.39478 0,1.79702 -0.20876,3.85782 -0.46392,4.57957 -0.30228,0.85508 -0.19903,1.13457 0.29638,0.80222 0.42316,-0.28387 0.95236,0.14678 1.19341,0.97118 0.23821,0.81467 1.39863,2.36309 2.57871,3.44092 1.66309,1.519 2.2753,1.73772 2.7223,0.97259 0.80978,-1.38609 0.7362,-2.29611 -0.13822,-1.70951 -1.72988,1.1605 -5.40839,-5.12704 -4.50108,-7.69353 0.40424,-1.14347 0.56152,-1.08631 1.29069,0.46907 0.4567,0.97418 1.58913,2.31336 2.51652,2.97598 1.46013,1.04325 1.3441,0.66496 -0.8656,-2.82191 -1.40347,-2.21465 -2.52975,-4.58061 -2.50284,-5.25769 0.0269,-0.67709 0.60582,0.12193 1.28647,1.77558 0.68067,1.65365 2.67719,4.44418 4.43672,6.20119 2.65711,2.65329 3.6711,3.19455 5.98454,3.19455 2.5751,0 2.78596,-0.15604 2.79301,-2.06706 0.004,-1.13688 0.19943,-3.32651 0.43386,-4.86584 0.37963,-2.49269 0.15917,-3.08868 -2.01581,-5.44953 -2.26452,-2.45806 -2.10467,-3.27068 0.43525,-2.21273 0.57839,0.24093 0.90083,0.86461 0.71652,1.38596 -0.42632,1.20592 3.38999,5.6926 4.84206,5.6926 0.60166,0 1.29048,-0.85 1.53069,-1.88891 0.47129,-2.03825 -0.6548,-4.12436 -2.22636,-4.12436 -0.52465,0 -0.95392,-0.63902 -0.95392,-1.42005 0,-0.78103 -0.64931,-2.21858 -1.44292,-3.19455 -1.25197,-1.53968 -1.37706,-1.57556 -0.94522,-0.27119 0.27373,0.82683 0.69452,2.68654 0.93509,4.13269 0.32469,1.95188 0.78836,2.62975 1.79949,2.63081 0.74916,7.6e-4 1.46795,0.59337 1.59732,1.31684 0.36804,2.05813 -1.75379,1.57722 -3.13472,-0.71046 -0.67258,-1.11423 -1.13046,-2.61802 -1.0175,-3.34176 0.11295,-0.72374 -0.28678,-2.34895 -0.8883,-3.61159 -0.93572,-1.96413 -0.94835,-2.29568 -0.0874,-2.29568 1.04909,0 3.87667,3.42159 3.87667,4.69106 0,0.40152 0.81608,1.42682 1.81351,2.27846 1.73984,1.48552 1.80068,1.78901 1.49763,7.47122 -0.17373,3.25754 -0.0598,5.48454 0.25333,4.94886 0.40778,-0.69774 0.57411,-0.54762 0.58655,0.52938 0.0305,2.63603 3.26267,9.22432 4.7823,9.74785 2.16731,0.74667 2.88492,-0.15014 2.6788,-3.34774 -0.10243,-1.58913 -0.30283,-2.76345 -0.44532,-2.6096 -0.1425,0.15383 -0.81104,-0.4602 -1.48565,-1.3645 -1.18542,-1.58905 -1.17093,-1.71596 0.4322,-3.78401 1.93736,-2.49918 2.09825,-5.31175 0.54493,-9.52565 -1.20946,-3.28108 -0.88455,-6.364 0.74211,-7.04155 1.20004,-0.49985 5.21908,0.87313 5.21908,1.78293 0,0.34266 -0.54533,0.78891 -1.21184,0.99166 -0.66651,0.20275 -0.36668,0.29671 0.6663,0.20881 1.03296,-0.0879 2.09765,-0.39812 2.36596,-0.68935 0.88597,-0.96168 4.29358,-0.55055 5.40113,0.65165 0.5985,0.64964 1.08818,1.80133 1.08818,2.55929 0,1.1653 0.41229,1.31808 2.67008,0.98935 3.7686,-0.54867 5.63965,0.7282 5.63965,3.84868 0,1.5124 -0.48231,2.90849 -1.21183,3.50769 -1.03094,0.84678 -1.08263,0.83807 -0.34624,-0.0583 0.47608,-0.57951 0.8656,-1.39951 0.8656,-1.82224 0,-0.42271 -0.49976,0.007 -1.11057,0.95249 -0.63852,0.98953 -1.53682,1.54352 -2.1134,1.30335 -0.55155,-0.22974 -0.82065,-0.0978 -0.59799,0.29332 0.22267,0.39107 -0.54018,1.2415 -1.69522,1.88985 -1.15505,0.64833 -2.10008,1.37137 -2.10008,1.60676 0,0.23536 1.35352,-0.43307 3.00783,-1.48542 2.93661,-1.86804 3.0635,-1.88308 5.35928,-0.63516 2.57037,1.39718 4.198371,4.85182 2.93346,6.22483 -0.52691,0.57194 -0.63708,0.21229 -0.38077,-1.24307 0.2424,-1.37642 0.1106,-1.88011 -0.40199,-1.53625 -0.41945,0.2814 -0.5871,1.00816 -0.37255,1.61504 0.22468,0.63555 -0.008,1.10462 -0.5496,1.10623 -0.51683,0.001 0.0731,0.67308 1.31087,1.49227 2.650628,1.75425 2.996444,4.46021 0.86559,6.77318 l -1.38495,1.50332 1.38495,1.50332 c 1.722888,1.87014 1.723449,2.33681 0.006,4.70728 -1.29251,1.78358 -1.31237,2.07727 -0.3157,4.66649 2.253678,5.85482 -0.84731,8.02646 -5.4091,3.78802 -1.61514,-1.50075 -2.93671,-3.09748 -2.93671,-3.54827 0,-1.31947 -2.94036,-1.42871 -4.11572,-0.15289 -0.59282,0.64349 -1.07786,1.82231 -1.07786,2.61961 0,0.79729 -0.33001,1.44962 -0.73335,1.44962 -0.40334,0 -0.5756,-0.27704 -0.38281,-0.61565 0.19279,-0.3386 -0.53152,-0.47512 -1.60958,-0.30338 -1.2346,0.19669 -2.24483,0.99054 -2.72931,2.14473 l -0.76917,1.83243 -2.08148,-1.67042 c -1.1448,-0.91873 -2.08147,-2.25563 -2.08147,-2.9709 0,-0.71528 -0.1852,-1.92009 -0.41156,-2.67737 -0.34229,-1.14512 -0.28579,-1.1871 0.33563,-0.24939 0.62021,0.93587 0.749,0.83605 0.7578,-0.58734 0.006,-0.94315 -0.37891,-1.82204 -0.85499,-1.9531 -0.47608,-0.13105 -1.82872,-0.5781 -3.00588,-0.99343 -1.57728,-0.5565 -2.45981,-0.50152 -3.35499,0.20899 -1.74645,1.38617 -0.95108,5.11355 2.81209,13.17857 1.36236,2.91974 1.34674,5.98869 -0.0455,8.9378 -1.48664,3.14911 -3.80601,6.02203 -4.83617,5.99042 -0.40969,-0.0126 -0.19584,-0.36989 0.47524,-0.79405 1.46616,-0.92669 5.33575,-8.06749 5.0112,-9.24745 -0.12628,-0.45909 -0.41737,-1.76488 -0.64687,-2.90177 -0.51636,-2.55795 -1.60829,-2.67755 -2.17238,-0.23795 -0.27215,1.17698 -0.77342,1.68311 -1.406,1.41963 -0.64576,-0.26898 -0.85276,-0.0408 -0.60327,0.66484 0.52084,1.4733 -2.23737,5.10633 -3.87675,5.10633 -0.73408,0 -1.33469,0.48286 -1.33469,1.07301 0,0.59016 -1.01275,1.9394 -2.25056,2.9983 -2.44106,2.08827 -1.52391,2.60283 2.03236,1.14024 2.7721,-1.14009 5.04766,-3.61229 6.52664,-7.0907 0.70312,-1.65365 1.28407,-2.49927 1.29102,-1.87915 0.017,1.515 -2.50344,5.9162 -4.36457,7.62158 -2.4752,2.26807 -11.61119,4.84288 -10.54609,2.97222 0.21329,-0.3746 1.08862,-0.51438 1.94518,-0.31062 1.13608,0.27024 1.30202,0.1741 0.61343,-0.35541 -0.79695,-0.61283 -0.79695,-0.78933 0,-1.13335 0.70819,-0.3057 0.66892,-0.42229 -0.15724,-0.46682 -0.60566,-0.0326 -2.78697,0.94927 -4.84734,2.18202 l -3.74615,2.24137 5.32162,0.0136 c 2.92689,0.008 6.19885,-0.3459 7.27102,-0.78532 1.51945,-0.62274 1.76738,-0.59924 1.12414,0.1066 -0.71185,0.78105 -9.40002,2.133 -11.05692,1.72054 z m -1.62114,-3.35983 c -0.83439,-0.64694 -0.73204,-0.73239 0.52032,-0.43443 0.91061,0.21667 1.38572,0.0665 1.14234,-0.36089 -0.22918,-0.4025 0.0616,-0.62465 0.64611,-0.49365 1.00694,0.22568 1.15362,0.0273 1.15362,-1.56054 0,-1.43508 -2.05263,-1.40867 -4.57516,0.0588 -3.0798,1.79174 -7.73141,1.53865 -11.48772,-0.62504 -1.94784,-1.12198 -2.082,-1.3598 -0.90282,-1.60057 3.90908,-0.79814 6.57854,-1.81137 6.57854,-2.49698 0,-0.42187 -0.36412,-0.52279 -0.80914,-0.22423 -0.44502,0.29853 -2.081,0.59679 -3.63551,0.66275 -8.40794,0.35681 -8.2386,0.3223 -7.34068,1.49669 1.79669,2.3499 8.52919,5.19811 13.45709,5.69308 2.69873,0.27106 5.21839,0.53726 5.59925,0.59156 0.38087,0.0543 0.22506,-0.26369 -0.34624,-0.70663 z m -1.14556,-3.49368 c 1.20136,-0.72347 2.30659,-1.39179 2.45608,-1.48515 0.14948,-0.0934 -0.16213,-0.76985 -0.69248,-1.50331 -0.87682,-1.21263 -0.85436,-1.24001 0.24756,-0.30197 0.85735,0.72985 1.21184,0.77184 1.21184,0.14357 0,-0.48844 0.33286,-0.66476 0.73968,-0.39185 0.40683,0.27293 0.57625,0.95854 0.37649,1.52362 -0.43637,1.23431 0.36498,1.83952 3.42882,2.58959 2.54604,0.6233 5.1497,-0.755 5.1497,-2.72609 0,-0.74796 -0.60181,-0.41774 -1.78999,0.98219 -1.49572,1.76227 -1.61392,1.81021 -0.71902,0.29163 0.97682,-1.6576 0.96677,-1.91028 -0.11433,-2.87446 -0.65191,-0.58142 -0.82239,-0.8608 -0.37884,-0.62086 0.44355,0.23994 0.98887,0.0113 1.21184,-0.50801 0.32369,-0.75397 0.48678,-0.75492 0.80932,-0.004 0.62698,1.45833 3.59549,1.10829 5.17916,-0.61073 1.66153,-1.80354 1.42793,-3.40834 -0.46136,-3.16944 -0.72221,0.0913 -0.92165,-0.0222 -0.4432,-0.25212 0.47845,-0.22999 0.70582,-0.70637 0.50525,-1.05861 -0.20057,-0.35227 0.42433,-0.48517 1.38866,-0.29537 2.17131,0.42739 3.54887,-2.24998 2.80745,-5.45646 -0.47107,-2.0373 -0.52958,-2.06365 -1.47284,-0.66343 -1.27106,1.88684 -1.24917,2.73814 0.0564,2.19431 0.57129,-0.23796 1.03871,-0.0583 1.03871,0.39942 0,0.45764 -0.23371,0.79203 -0.51936,0.74308 -0.28564,-0.049 -0.67516,-0.0239 -0.86559,0.0559 -0.19043,0.0797 -1.12528,0.28825 -2.07744,0.4635 -0.95215,0.17526 -2.51023,1.29364 -3.46239,2.48529 -4.06623,5.089 -9.03579,6.49207 -14.88827,4.20345 -3.30216,-1.29131 -3.30363,-1.29153 -2.80646,-0.41835 0.21528,0.3781 0.006,0.82671 -0.46383,0.99691 -1.3148,0.47572 1.17417,4.15058 3.08012,4.54767 l 1.57513,0.32817 -1.56485,0.10236 c -0.86067,0.0563 -2.05861,-0.52358 -2.66208,-1.28862 -1.01039,-1.28091 -1.32479,-1.30589 -3.97273,-0.31563 -3.75057,1.40261 -3.79064,1.49206 -1.05161,2.34763 3.63312,1.13487 6.76525,0.97967 9.14442,-0.45309 z m 6.33915,-1.69122 c -0.23539,-0.41343 -0.25254,-1.05979 -0.0382,-1.43638 0.32925,-0.57826 0.92278,-0.60235 3.06594,-0.12446 0.47843,0.1067 -1.4608,2.3125 -2.03302,2.3125 -0.31176,0 -0.75941,-0.33825 -0.9948,-0.75166 z m 2.0061,-0.62638 c 0.19616,-0.34453 -0.0971,-0.62639 -0.65161,-0.62639 -0.55454,0 -1.00825,0.28186 -1.00825,0.62639 0,0.3445 0.29322,0.62638 0.6516,0.62638 0.35839,0 0.81211,-0.28188 1.00826,-0.62638 z m -10.66208,-0.50112 c -0.47413,-0.62011 -0.74599,-1.15337 -0.60415,-1.185 2.14862,-0.47911 2.62627,-0.45344 2.29778,0.12349 -0.21473,0.37713 -0.042,0.68568 0.38381,0.68568 0.42582,0 0.58162,0.33825 0.34624,0.75166 -0.60409,1.06097 -1.42211,0.93412 -2.42368,-0.37583 z m -10.4616,-2.34023 c 0.72393,-0.67719 -1.69565,-2.54589 -3.29963,-2.54836 -2.83783,-0.004 -8.9434,-4.44005 -10.54238,-7.65899 -0.57917,-1.16594 -0.47219,-1.18209 1.27542,-0.19254 1.04919,0.59407 2.45295,1.08222 3.11946,1.08477 1.86734,0.008 1.4341,-2.17162 -0.51936,-2.61187 -0.95216,-0.21457 -2.43233,-0.54457 -3.28927,-0.73332 -0.85694,-0.18877 -2.18131,-0.86608 -2.94303,-1.50516 l -1.38496,-1.16199 1.38496,0.4788 1.38495,0.47879 -1.38495,-1.2047 c -1.73561,-1.50973 -0.48602,-1.60373 1.34419,-0.10116 1.74823,1.43531 3.22611,1.42229 2.71485,-0.0239 -0.21922,-0.62012 -0.82229,-1.12749 -1.34014,-1.12749 -1.30427,0 -5.54711,-4.73692 -6.027,-6.72883 -0.3774405,-1.56668 -0.3235005,-1.58642 1.2594,-0.46062 0.90955,0.6469 2.11373,1.17617 2.67595,1.17617 0.56221,0 1.19683,0.30671 1.41027,0.68156 0.47712,0.83798 -2.40189,0.13164 -3.5956,-0.88215 -1.27094,-1.07939 -1.01148,0.32717 0.39795,2.1573 1.10399,1.43352 3.66842,3.30491 4.52883,3.30491 0.18898,0 0.44317,-0.76106 0.56488,-1.69124 0.24189,-1.84869 -1.69623,-4.00232 -5.5143,-6.12744 -1.25026,-0.69589 -2.1021105,-1.56573 -1.89302,-1.93297 0.2091,-0.36724 0.0153,-0.91247 -0.4305905,-1.21161 -0.50635,-0.33969 -0.62525,-0.21809 -0.31666,0.32388 0.7408905,1.30125 -0.33709,1.04484 -1.84825,-0.43961 -1.15139,-1.13105 -1.09182,-0.72054 0.44156,3.04303 0.97487,2.39274 2.3636405,5.26425 3.0861405,6.38112 0.7225,1.11688 1.2204,2.67862 1.10643,3.47057 -0.51638,3.5883 6.27306,13.18862 10.50063,14.84798 1.47826,0.58023 2.04201,1.12514 1.52375,1.47282 -0.45243,0.30351 0.56347,0.35938 2.25756,0.12416 1.69409,-0.23523 3.20246,-0.5421 3.35196,-0.68194 z m 22.00927,-1.75176 c 1.20956,-0.80057 2.90415,-2.49054 3.76573,-3.7555 0.86159,-1.26496 1.95273,-2.29991 2.42476,-2.29991 1.4125,0 3.72866,-3.8049 3.72866,-6.12532 v -2.16427 l -2.81159,2.01964 c -3.86366,2.77537 -9.10119,3.23125 -12.90744,1.12349 -3.25556,-1.8028 -6.67469,-5.88447 -6.15669,-7.34971 0.19653,-0.55592 -0.22374,-1.34833 -0.93393,-1.76089 -0.71019,-0.41257 -2.10086,-2.51363 -3.09036,-4.66902 -1.89043,-4.1178 -2.42948,-7.89361 -0.98895,-6.92723 0.57435,0.3853 0.64556,0.12473 0.24468,-0.89523 -0.87513,-2.22652 -1.30116,-10.86775 -0.57468,-11.6563 0.40291,-0.43735 0.53848,0.94599 0.35805,3.65357 -0.51309,7.69968 3.04968,12.94351 8.79877,12.95032 2.68975,0.003 2.34965,-0.91964 -0.48783,-1.32368 -1.7937,-0.25541 -6.37923,-4.28948 -6.37923,-5.61204 0,-0.34671 0.9353,0.52593 2.07845,1.93918 2.39573,2.96179 5.5388,4.07967 5.5388,1.96998 0,-0.76739 -0.70064,-1.50848 -1.67782,-1.77471 -0.92281,-0.2514 -2.59344,-1.29338 -3.71253,-2.3155 -1.11909,-1.02212 -2.23375,-1.64235 -2.47704,-1.37826 -0.24329,0.26408 -0.44234,-0.0814 -0.44234,-0.76765 0,-0.9619 0.72616,-0.64614 3.16918,1.37804 3.26678,2.70669 4.57627,3.252 4.27495,1.78022 -0.0952,-0.46509 0.1385,-0.9716 0.51936,-1.12558 0.38087,-0.15399 0.72393,0.69682 0.76237,1.89068 0.0384,1.19386 0.32315,2.79968 0.63267,3.56849 0.30953,0.7688 0.62126,1.56694 0.69272,1.77364 1.46841,4.24711 2.01776,5.26163 2.84906,5.26163 0.54599,0 1.17208,0.50736 1.3913,1.12749 0.21923,0.62011 0.83268,1.12748 1.36323,1.12748 0.53054,0 0.96463,0.33825 0.96463,0.75166 0,0.41341 0.76064,0.75167 1.69032,0.75167 0.92968,0 1.88362,0.33949 2.11988,0.75442 0.38479,0.67583 1.77509,0.55071 5.30116,-0.47708 0.63132,-0.18402 1.32544,-0.8369 1.54248,-1.45085 0.32011,-0.90547 0.13418,-0.96497 -0.98462,-0.31502 -1.05541,0.61311 -1.33629,0.57307 -1.19626,-0.17053 0.10097,-0.53615 -0.32489,-0.88156 -0.95004,-0.77053 -0.62317,0.11068 -1.31069,-0.3013 -1.52783,-0.91551 -0.45869,-1.2975 0.62501,-2.30808 1.26664,-1.18117 0.23796,0.41794 1.03152,1.10777 1.76346,1.53297 1.0356,0.60161 1.25046,0.54586 0.96863,-0.25136 -0.39789,-1.1255 1.38881,-3.11864 2.26732,-2.52928 0.30234,0.20281 0.5497,-0.75404 0.5497,-2.12635 0,-1.71834 -0.23543,-2.28304 -0.7562,-1.8139 -0.41591,0.37468 -0.89593,0.52954 -1.06671,0.34417 -0.17079,-0.18539 -0.35697,0.33223 -0.41374,1.15025 -0.0627,0.90334 0.19424,1.28777 0.65435,0.9791 0.45441,-0.30484 0.55984,-0.16094 0.26346,0.35958 -0.27175,0.47729 -1.13227,0.8678 -1.91227,0.8678 -1.06337,0 -1.30366,0.3291 -0.96043,1.31541 0.42601,1.22421 0.37745,1.2292 -0.70033,0.0722 -1.35696,-1.4568 -0.76604,-3.03707 0.87939,-2.3517 0.77342,0.32216 0.63855,-0.0673 -0.42195,-1.21843 -0.8573,-0.93057 -1.98191,-1.51566 -2.49915,-1.30021 -0.51724,0.21544 -1.0592,0.005 -1.20433,-0.46763 -0.14515,-0.47264 -0.49337,-0.21026 -0.77382,0.58307 -0.28046,0.79332 -0.2877,1.20117 -0.0161,0.90635 0.89355,-0.96992 2.55694,2.41118 1.7229,3.50204 -0.41062,0.53704 -0.53863,1.20216 -0.28447,1.47804 0.25416,0.27589 -0.50949,0.13396 -1.697,-0.31539 -1.18751,-0.44935 -2.56672,-1.38268 -3.06491,-2.07408 -0.83025,-1.15224 -0.79029,-1.16305 0.47916,-0.12959 1.27306,1.0364 1.31094,1.02482 0.46872,-0.14324 -0.52719,-0.73117 -1.38681,-1.07471 -2.02452,-0.80908 -0.82277,0.34271 -0.99456,0.13987 -0.66678,-0.78733 0.27313,-0.77259 0.1209,-1.18072 -0.39913,-1.07006 -0.46238,0.0983 -0.75601,-0.26595 -0.65253,-0.80964 0.10349,-0.54369 -0.46306,-1.98124 -1.25898,-3.19456 -1.35489,-2.06537 -1.36689,-2.21158 -0.18816,-2.2932 1.15823,-0.0802 1.162,-0.11471 0.0472,-0.43095 -1.03409,-0.29333 -1.5954,-2.10663 -1.29384,-4.17973 0.0451,-0.31006 -0.35207,-0.56375 -0.88262,-0.56375 -0.53054,0 -1.15158,-0.52881 -1.38006,-1.17512 -0.62264,-1.76123 -1.98214,-0.42256 -1.53495,1.51143 0.21309,0.92158 -0.02,2.28049 -0.51807,3.0198 -1.13544,1.68551 -2.79122,0.85879 -5.84749,-2.91961 -1.98395,-2.45271 -2.10021,-2.91736 -1.7468,-6.98158 0.20823,-2.39469 0.7771,-5.26384 1.26414,-6.3759 0.97963,-2.2368 0.7286,-2.86387 -1.14648,-2.86387 -1.35979,0 -2.61415,3.56392 -1.54958,4.40272 0.74519,0.58716 1.13316,2.36222 0.5163,2.36222 -0.24366,0 -0.84591,-0.59194 -1.33833,-1.31541 -0.70824,-1.04053 -1.07529,-1.12277 -1.75656,-0.39359 -0.68585,0.7341 -0.62425,1.20605 0.30251,2.31762 0.95726,1.14817 0.98433,1.39581 0.15259,1.39581 -0.55612,0 -0.86395,-0.25851 -0.68406,-0.57445 0.17989,-0.31595 0.0104,-0.78691 -0.3767,-1.04657 -1.17943,-0.79122 -0.79586,3.51189 0.39747,4.45906 0.99558,0.7902 0.97896,0.97847 -0.17312,1.96201 -1.16874,0.99777 -1.19559,0.97891 -0.32398,-0.22746 0.81163,-1.12336 0.80259,-1.31541 -0.062,-1.31541 -1.2182,0 -2.46469,2.8464 -2.08148,4.75306 0.15151,0.75384 0.67537,1.20403 1.16412,1.00045 0.64021,-0.26666 0.81043,0.29578 0.60887,2.01188 -0.15388,1.31011 -0.32134,2.8161 -0.37215,3.34665 -0.061,0.63722 -0.32528,0.71181 -0.77859,0.21977 -0.45329,-0.49204 -0.41615,-1.09806 0.10941,-1.78545 0.79437,-1.03895 0.43581,-2.02976 -0.73453,-2.02976 -0.34038,0 -0.52216,1.26843 -0.40395,2.81872 0.16297,2.1374 0.50604,2.79382 1.41931,2.71568 0.68491,-0.0586 1.00926,0.23964 0.75199,0.69148 -0.27907,0.49013 -0.0244,0.61628 0.66467,0.32925 0.7908,-0.3294 1.0026,-0.14157 0.7252,0.6431 -0.28776,0.814 -0.62987,0.89396 -1.28804,0.30105 -2.18655,-1.96977 -2.02798,3.55842 0.17829,6.21586 0.71439,0.86048 1.35988,1.06951 1.87359,0.60674 0.48309,-0.4352 1.17322,-0.43859 1.7992,-0.009 0.75161,0.51599 0.77995,0.70013 0.10902,0.70865 -0.51472,0.007 -0.69008,0.39155 -0.40576,0.89091 0.33667,0.59129 0.1232,0.72215 -0.65161,0.39943 -1.57355,-0.65544 -1.57823,2.97773 -0.006,4.86318 1.44266,1.73037 2.73782,1.7514 3.64584,0.0592 0.43555,-0.81171 0.71389,-0.93864 0.72688,-0.33147 0.0116,0.54117 0.28074,0.80972 0.59813,0.59681 0.31738,-0.21293 0.57706,0.1054 0.57706,0.7073 0,0.60193 -0.41549,1.09442 -0.9233,1.09442 -1.26429,0 -1.15931,1.47772 0.22273,3.13537 1.44521,1.73342 5.47091,1.83818 6.33363,0.16483 0.57327,-1.11192 0.65831,-1.11192 1.0514,0 0.23525,0.66537 0.12587,1.20976 -0.24304,1.20976 -0.96152,0 -0.82799,1.93435 0.19486,2.82261 1.89709,1.64747 3.78806,1.72275 5.4433,0.2167 1.12963,-1.02781 1.40427,-1.68916 0.86563,-2.08447 -0.57288,-0.42042 -0.52319,-0.84676 0.1814,-1.55662 0.80383,-0.80982 1.04942,-0.74533 1.43093,0.37583 0.25331,0.74439 0.79491,1.63903 1.20356,1.98809 0.44935,0.38383 0.2713,0.47043 -0.45054,0.21913 -0.65644,-0.22853 -1.43547,0.005 -1.73119,0.51989 -2.33062,4.05458 -8.46619,5.49274 -12.86354,3.01512 -2.344,-1.32068 -2.3049,-1.36732 1.76558,-2.10632 1.70878,-0.31022 2.59679,-0.87348 2.59679,-1.6471 0,-1.22275 0.0873,-1.22456 -7.46626,0.15497 -2.89627,0.52895 -2.93653,0.57587 -1.73283,2.01961 3.80976,4.56952 12.3447,6.43233 16.59189,3.62128 z m -2.54545,-5.9667 c 0,-0.41341 0.31161,-0.9607 0.69247,-1.21621 0.38087,-0.25549 0.69248,-0.12629 0.69248,0.28712 0,0.41341 -0.31161,0.9607 -0.69248,1.21621 -0.38086,0.25551 -0.69247,0.1263 -0.69247,-0.28712 z m -7.61726,-4.64304 c 0,-0.43781 0.31162,-0.58696 0.69248,-0.33146 0.38086,0.2555 0.69248,0.61372 0.69248,0.79602 0,0.18231 -0.31162,0.33147 -0.69248,0.33147 -0.38086,0 -0.69248,-0.35822 -0.69248,-0.79603 z m -5.88606,-5.21725 c 0.23539,-0.41341 0.56539,-0.75166 0.73334,-0.75166 0.16796,0 0.30538,0.33825 0.30538,0.75166 0,0.41341 -0.33001,0.75167 -0.73335,0.75167 -0.40334,0 -0.54076,-0.33826 -0.30537,-0.75167 z m -1.7312,-0.7073 c 0,-0.389 0.30805,-0.91396 0.68455,-1.16652 0.39253,-0.26335 0.50863,0.0384 0.27215,0.70729 -0.46036,1.30219 -0.9567,1.54044 -0.9567,0.45923 z m 17.22362,-6.62138 c -0.86135,-1.19218 -0.83686,-1.21876 0.26145,-0.28379 0.66651,0.56738 1.21184,1.15931 1.21184,1.31539 0,0.61865 -0.56866,0.22047 -1.47329,-1.0316 z m -19.61074,-1.62703 c -0.22296,-0.3916 -0.11021,-0.91 0.25055,-1.15202 0.36075,-0.24201 0.83834,-0.11964 1.0613,0.27195 0.22297,0.3916 0.11022,0.91 -0.25054,1.15202 -0.36076,0.24201 -0.83834,0.11964 -1.06131,-0.27195 z m -1.35018,-14.22046 c -0.19615,-0.34452 0.0971,-0.62639 0.65162,-0.62639 0.55453,0 1.00825,0.28187 1.00825,0.62639 0,0.3445 -0.29322,0.62638 -0.65161,0.62638 -0.35839,0 -0.8121,-0.28188 -1.00826,-0.62638 z m -3.79675,36.70408 c -1.28726,-0.32986 -3.09166,-1.47911 -4.00977,-2.55388 -0.91812,-1.07476 -1.94283,-1.95411 -2.27712,-1.95411 -0.3343,0 -1.15185,-0.22661 -1.81677,-0.50357 -2.16604,-0.90222 -0.32635,1.26281 3.04516,3.5837 1.86412,1.28322 4.03989,2.1498 5.28399,2.10455 l 2.11498,-0.077 z m 22.07609,0.46424 c 0,-0.15915 -0.73509,-0.81219 -1.63354,-1.45119 -1.39773,-0.9941 -2.0116,-1.02072 -4.25262,-0.18445 -1.58995,0.59331 -2.24055,1.14022 -1.65573,1.39185 1.10153,0.47395 7.54189,0.68214 7.54189,0.24379 z m -10.57472,-4.6747 c -0.2301,-0.24977 -0.82736,-0.27648 -1.32724,-0.0593 -0.55242,0.23995 -0.38833,0.41806 0.41836,0.45412 0.72999,0.0327 1.13899,-0.14502 0.90888,-0.39478 z m 0.53379,-1.80085 c -0.84466,-1.01312 -2.13281,-1.50332 -3.95034,-1.50332 -3.1356,0 -5.74716,-1.31086 -8.1323,-4.08199 l -1.69546,-1.96983 2.98103,1.14166 c 1.63958,0.62791 3.30762,0.92255 3.70678,0.65479 0.42415,-0.28454 0.51976,-0.1251 0.23006,0.38369 -0.28608,0.50245 -1.20973,0.67602 -2.18442,0.41048 -0.92882,-0.25303 -1.68876,-0.26296 -1.68876,-0.022 0,0.96432 4.23389,2.7316 6.54415,2.7316 2.82083,0 3.28214,-1.11585 0.74686,-1.80654 -0.94116,-0.25641 -2.04279,-1.13869 -2.44804,-1.96064 -0.4483,-0.90925 -1.44915,-1.49444 -2.55594,-1.49444 -1.00051,0 -3.18366,-0.86803 -4.85144,-1.92894 l -3.03232,-1.92894 1.1039,2.86852 c 1.1789,3.06337 3.95805,6.61256 6.22403,7.94857 0.76172,0.44911 3.25464,1.05021 5.53982,1.33579 2.28518,0.28557 4.28107,0.56551 4.43531,0.62207 0.15425,0.0567 -0.28357,-0.57365 -0.97292,-1.40048 z m 33.85868,-1.63106 c -0.33971,-0.59664 -0.11862,-0.72025 0.68758,-0.38444 0.65355,0.27223 1.01435,0.18948 0.80176,-0.18389 -0.21259,-0.37337 -0.0735,-0.7923 0.30919,-0.93097 0.3963,-0.14361 0.0542,-1.65931 -0.7949,-3.52204 -1.24958,-2.74125 -1.59652,-3.06448 -2.14575,-1.99918 -0.36035,0.69893 -0.5221,2.25497 -0.35945,3.45785 0.16265,1.2029 -0.0215,2.18709 -0.40917,2.18709 -0.3877,0 -0.10002,0.49662 0.63928,1.10359 1.64742,1.35253 1.91988,1.41081 1.27146,0.27199 z m -0.78925,-3.47623 c -0.0562,-1.53183 0.0787,-2.27777 0.29977,-1.65764 0.22106,0.62011 0.67555,1.50541 1.00997,1.96732 0.36882,0.50943 0.25088,1.16159 -0.29977,1.65766 -0.71884,0.64756 -0.92907,0.23805 -1.00997,-1.96734 z m 21.98256,1.63278 c 0,-0.56949 -0.33001,-1.03545 -0.73335,-1.03545 -0.40334,0 -0.53229,-0.35312 -0.28655,-0.78471 0.24574,-0.43159 -0.0358,-1.58415 -0.62558,-2.56123 -0.94263,-1.5616 -0.94784,-1.82839 -0.0431,-2.20527 1.94456,-0.80997 2.70097,-5.72369 0.88111,-5.72369 -0.36259,0 -0.43691,0.39052 -0.16516,0.86781 0.30859,0.54197 0.1897,0.66358 -0.31666,0.32388 -0.44592,-0.29914 -0.63112,-0.85942 -0.41157,-1.24503 0.54849,-0.96331 -3.12303,-2.38177 -5.10204,-1.97111 -1.7441,0.36189 -4.54401,-2.15971 -3.81662,-3.43724 0.22675,-0.39824 1.91935,-0.5669 3.76135,-0.37478 1.84198,0.19213 3.18537,0.0618 2.9853,-0.28957 -0.20007,-0.35139 -0.0338,-0.63889 0.36958,-0.63889 0.40334,0 0.73335,0.37966 0.73335,0.84369 0,0.62059 0.24575,0.62231 0.92931,0.007 0.93174,-0.83937 1.8406,-0.43311 1.8406,0.82274 0,0.36891 -0.31162,0.4617 -0.69248,0.20619 -0.38086,-0.2555 -0.69248,-0.0781 -0.69248,0.39411 0,1.71673 1.732678,0.17465 1.783741,-1.58753 0.07529,-2.59838 -0.304341,-3.04846 -1.825771,-2.16464 -0.80826,0.46953 -1.34292,0.49528 -1.34292,0.0647 0,-0.3935 0.38951,-0.90965 0.86559,-1.147 0.47608,-0.23734 0.2409,-0.26907 -0.52262,-0.0704 -2.28296,0.59372 -9.82102,0.61081 -10.69536,0.0243 -0.44698,-0.29985 -1.12298,-1.43106 -1.50221,-2.51377 -0.52444,-1.49725 -0.83046,-1.72105 -1.27818,-0.93473 -0.66881,1.17465 -0.16055,3.22946 0.66227,2.67747 0.29781,-0.19978 0.94952,0.17047 1.44828,0.82279 0.75635,0.98924 0.74065,1.14961 -0.0947,0.96651 -0.82624,-0.18113 -5.50372,1.98506 -5.50209,2.54808 2.6e-4,0.0927 0.82707,0.22062 1.83734,0.28419 1.09908,0.0691 1.49276,-0.11527 0.98017,-0.45914 -0.62751,-0.42098 -0.52855,-0.7114 0.36995,-1.08565 0.77352,-0.3222 1.44719,-0.0831 1.82367,0.64706 0.32836,0.63689 0.97105,1.1528 1.42821,1.14647 0.50842,-0.007 0.42783,-0.29445 -0.20753,-0.74014 -0.75478,-0.52947 -0.79093,-0.73179 -0.13225,-0.74016 0.49856,-0.007 0.71387,-0.34975 0.47849,-0.76317 -0.23539,-0.41341 -0.13131,-0.75166 0.23128,-0.75166 0.83977,0 1.62805,2.17349 1.11505,3.07447 -0.21415,0.37611 -0.91629,0.68901 -1.56032,0.69535 -0.92109,0.009 -0.97048,0.1494 -0.23144,0.65769 1.43053,0.9839 -0.298,1.81021 -1.87288,0.89533 -1.25511,-0.72912 -2.1828,-0.41739 -2.1828,0.73349 0,0.29928 1.10322,0.68395 2.45158,0.85481 2.59131,0.32837 4.28238,-0.912 3.3871,-2.48439 -0.31264,-0.54909 -0.21964,-0.70402 0.23822,-0.39687 0.41309,0.27712 0.65483,1.42869 0.53721,2.55903 -0.15856,1.52378 -0.54891,1.99849 -1.50967,1.83592 -0.98179,-0.16612 -1.06812,-0.0522 -0.35628,0.46979 1.42081,1.04202 -0.18393,1.75396 -2.08742,0.92607 -1.26353,-0.54956 -1.34515,-0.71601 -0.36932,-0.75312 1.96341,-0.0747 0.7214,-1.36305 -1.31401,-1.36305 -1.14274,0 -1.49583,0.21596 -0.95083,0.58158 0.62372,0.41842 0.49876,0.67373 -0.44542,0.91012 -0.88653,0.22193 -0.46975,0.51766 1.28444,0.91143 1.42823,0.32059 2.59679,0.92578 2.59679,1.34486 0,0.44711 -0.86542,0.57408 -2.09434,0.3073 -1.83024,-0.39733 -2.0129,-0.2907 -1.44854,0.84562 0.35519,0.71515 1.5037,2.1459 2.55224,3.17943 1.04855,1.03354 1.66912,1.43372 1.37905,0.8893 -0.36419,-0.68354 -0.15311,-0.91613 0.68209,-0.75165 0.66522,0.13099 1.34345,-0.26918 1.50717,-0.88931 0.26461,-1.00221 0.2082,-1.00221 -0.50759,0 -0.66751,0.93462 -0.74681,0.838 -0.46354,-0.56478 0.18795,-0.93075 0.0807,-1.51716 -0.23831,-1.30315 -0.31903,0.21402 -0.77714,0.043 -1.01803,-0.3801 -0.24089,-0.42308 0.04,-0.96834 0.62427,-1.21169 1.22946,-0.51211 4.76265,2.21483 4.02251,3.10461 -0.27273,0.32788 -0.11029,0.35546 0.36098,0.0612 0.91972,-0.57407 1.73468,0.0156 5.43324,3.93155 1.30401,1.38063 2.19245,2.82369 1.97431,3.20681 -0.21813,0.38311 -0.73484,0.46968 -1.14823,0.19234 -0.45943,-0.3082 -0.55146,-0.15268 -0.23674,0.40007 0.63655,1.118 2.46902,-0.28588 2.46902,-1.89155 z m -15.0614,-6.32049 c -0.85694,-0.37388 -1.55807,-0.82815 -1.55807,-1.00948 0,-0.55948 2.76864,0.42256 3.16781,1.12363 0.44041,0.77351 0.42175,0.77219 -1.60974,-0.11415 z m 9.01652,-0.9085 c 0.33282,-0.95412 0.0294,-1.424 -1.12211,-1.73771 -0.86805,-0.23649 -2.01144,-0.32449 -2.54087,-0.19557 -0.56609,0.13784 -0.97556,-0.38483 -0.99408,-1.26892 -0.0247,-1.17827 0.45595,-1.52985 2.22281,-1.62601 1.23985,-0.0675 2.08847,0.16853 1.88582,0.52446 -0.20266,0.35592 0.34099,0.49211 1.20811,0.30265 1.87805,-0.41036 4.69272,1.03081 4.69272,2.40279 0,0.53571 -0.62323,1.33608 -1.38496,1.77858 -1.28009,0.74363 -1.675,0.49068 -1.46696,-0.93958 0.13099,-0.90051 -0.42088,-0.66129 -1.7341,0.75166 -1.15563,1.24341 -1.19758,1.24382 -0.76638,0.008 z m -3.33315,-2.77443 c 0.21913,-0.38485 0.13364,-0.87734 -0.18995,-1.09443 -0.3236,-0.21708 -0.58837,0.0978 -0.58837,0.69972 0,1.26742 0.21837,1.37816 0.77832,0.39471 z m 1.63093,-10.33698 c 0.49988,-0.21715 1.09714,-0.19044 1.32725,0.0593 0.23011,0.24978 -0.17889,0.42743 -0.90887,0.3948 -0.80671,-0.036 -0.97079,-0.2142 -0.41838,-0.45414 z m -29.86491,20.7582 c 2.37898,-0.9784 5.06555,-3.61257 5.06555,-4.96674 0,-1.60258 -1.37687,-1.15991 -3.91443,1.25852 -1.86218,1.77474 -3.01495,2.25497 -5.41304,2.25497 -1.67584,0 -3.9242,-0.39226 -4.99637,-0.8717 l -1.94939,-0.87172 2.07743,-0.48063 c 1.84467,-0.42679 1.65392,-0.5449 -1.70247,-1.05414 -2.33992,-0.355 -3.43898,-0.8022 -2.88498,-1.17384 0.68732,-0.46108 0.61749,-0.71595 -0.30094,-1.09851 -0.65774,-0.27396 -1.35904,-0.32104 -1.55844,-0.10464 -0.19939,0.21643 7e-4,0.39352 0.44536,0.39352 0.44434,0 0.77099,0.25369 0.72589,0.56374 -0.24077,1.65517 0.37162,2.50946 3.31687,4.62704 3.48463,2.50539 7.39586,3.04296 11.08896,1.52409 z m -37.23331,-0.22002 c -0.15869,-0.14855 -1.22337,-0.49707 -2.36596,-0.77449 -1.51716,-0.36836 -1.7973,-0.29863 -1.03872,0.25858 0.9351,0.68687 4.09958,1.16638 3.40468,0.51591 z m 59.6108,-2.11692 c 0,-0.38959 0.38952,-0.45434 0.8656,-0.14387 0.55836,0.36411 0.51861,0.1004 -0.11199,-0.74289 -0.6745,-0.90202 -1.1279,-1.04336 -1.46238,-0.4559 -0.26663,0.46828 -0.73186,0.73798 -1.03382,0.59932 -0.30198,-0.13867 -0.62353,0.29874 -0.71457,0.97202 -0.11696,0.86497 0.21923,1.11492 1.14582,0.8519 0.72124,-0.20473 1.31134,-0.69098 1.31134,-1.08058 z m -22.21936,-1.29588 1.67113,-1.39449 -1.48582,-0.86314 c -1.22542,-0.71188 -2.09475,-0.5282 -4.96039,1.04802 -1.91102,1.05116 -3.47458,2.07461 -3.47458,2.27436 0,1.05832 6.74933,0.18722 8.24966,-1.06475 z m 20.3742,-1.09715 c 0.44354,0.27003 -0.41179,-0.89665 -1.90075,-2.59262 -2.01365,-2.29362 -2.52199,-3.33286 -1.98427,-4.05665 0.3976,-0.5352 0.86641,-1.98781 1.0418,-3.22805 0.17538,-1.24024 0.18852,-1.83218 0.0292,-1.31541 -0.15933,0.51677 -0.74524,0.93958 -1.302,0.93958 -0.79049,0 -0.8533,0.32249 -0.28666,1.47176 0.58838,1.19336 0.45404,1.62954 -0.71019,2.30587 -1.6798,0.97582 -1.44635,2.6099 0.37359,2.615 0.69289,0.002 1.3419,0.61069 1.44224,1.35277 0.2477,1.83192 1.89893,3.9435 2.23302,2.85556 0.14167,-0.46131 0.62048,-0.61782 1.06403,-0.34781 z m -2.39803,-1.79699 c -0.86136,-1.19217 -0.83686,-1.21876 0.26145,-0.28379 0.66651,0.56739 1.21183,1.15933 1.21183,1.31541 0,0.61865 -0.56865,0.22047 -1.47328,-1.03162 z m -24.44598,1.40087 c -0.20862,-0.36641 0.29165,-0.85666 1.11173,-1.08945 1.25906,-0.35739 1.3524,-0.60458 0.59989,-1.58878 -0.49012,-0.64103 -1.55412,-1.19223 -2.36443,-1.22487 -0.8103,-0.0326 -1.10324,-0.2229 -0.65096,-0.42281 1.74587,-0.77168 -1.68769,-3.04445 -5.30115,-3.50899 -3.60809,-0.46385 -3.64177,-0.44978 -2.42312,1.01189 0.67971,0.81525 2.46426,1.84133 3.96567,2.28017 1.50141,0.43884 2.60296,0.93562 2.44788,1.10394 -0.68748,0.74624 -5.39351,-1.35702 -7.04337,-3.14787 -2.08325,-2.26129 -2.3804,-3.68196 -0.60484,-2.89182 2.36242,1.05133 7.33886,1.40453 6.81454,0.48367 -0.26997,-0.47417 -1.95264,-0.86729 -3.73926,-0.87362 -2.35259,-0.009 -2.96196,-0.21245 -2.20969,-0.74015 0.6023,-0.4225 0.69736,-0.73349 0.22625,-0.74015 -0.44685,-0.007 -1.73798,-0.85683 -2.86917,-1.89002 -1.70895,-1.56088 -2.12539,-1.6842 -2.46296,-0.72933 -0.65446,1.85125 1.59279,6.91374 4.15153,9.35234 2.86642,2.73185 4.88637,3.34921 9.14007,2.7935 2.12052,-0.27705 2.76159,-0.19821 1.85521,0.22813 -0.76172,0.3583 -2.3198,0.71975 -3.46239,0.80322 l -2.07743,0.15178 2.42367,0.55376 c 1.33302,0.30457 2.51997,0.5983 2.63766,0.65271 0.11769,0.0544 0.0433,-0.20084 -0.16533,-0.56725 z m -12.85949,-12.11201 c -0.95216,-0.80844 -1.46874,-1.47741 -1.14795,-1.48661 0.32079,-0.009 1.37556,0.65978 2.34394,1.48661 0.96838,0.82682 1.48495,1.49579 1.14795,1.4866 -0.33702,-0.009 -1.39179,-0.67817 -2.34394,-1.4866 z m -7.42679,11.29674 c -2.14382,-0.55288 -5.73029,-2.6875 -5.73029,-3.4106 0,-0.19109 1.01275,0.32281 2.25055,1.14201 2.27323,1.50447 6.05918,2.03756 6.05918,0.85318 0,-0.98579 -3.29435,-4.61972 -4.18802,-4.61972 -0.43547,0 -1.69681,-0.69952 -2.80298,-1.5545 -1.10617,-0.85498 -2.01121,-1.23935 -2.01121,-0.85416 0,1.34371 3.75675,4.76513 5.69391,5.18567 1.07369,0.23309 2.14051,0.75461 2.37071,1.15891 0.59101,1.038 -2.3771,-0.0244 -5.13838,-1.8392 -2.2952,-1.5085 -4.3112,-4.77694 -4.3112,-6.98954 0,-0.66616 0.33218,-0.98633 0.73969,-0.71296 0.40683,0.27293 0.5662,0.98695 0.35417,1.58672 -0.22992,0.65037 -0.0885,0.89128 0.35029,0.59689 0.40469,-0.2715 1.41388,0.1679 2.24263,0.97644 2.29895,2.24288 3.84854,2.64381 3.4251,0.88617 -0.19174,-0.79589 -0.83312,-1.44707 -1.42528,-1.44707 -0.59216,0 -2.42551,-1.52805 -4.07411,-3.39567 -2.65495,-3.00768 -2.99701,-3.20092 -2.99358,-1.69124 0.006,2.74558 1.42538,7.60383 2.66176,9.11204 0.62865,0.76686 0.9872,1.59901 0.79677,1.8492 -0.62942,0.82692 4.32496,3.89873 6.16158,3.8203 1.6316,-0.0697 1.59084,-0.13137 -0.43129,-0.65287 z m 40.15954,-2.01821 c -0.46883,-0.20589 -1.40367,-0.21842 -2.07743,-0.0279 -0.67376,0.19057 -0.29017,0.35904 0.85242,0.37435 1.14258,0.0153 1.69384,-0.1406 1.22501,-0.3465 z m -1.86086,-1.01028 c 0.54015,0 0.98209,-0.4874 0.98209,-1.08312 0,-1.9502 -1.14687,-1.90895 -2.75537,0.0991 -1.21329,1.51466 -1.30456,1.85697 -0.39395,1.47768 0.65183,-0.27151 1.62709,-0.49366 2.16723,-0.49366 z m -2.22989,-1.87914 c 0.23814,-0.6736 0.006,-1.1275 -0.57752,-1.1275 -1.13892,0 -1.91083,1.07855 -1.26985,1.77431 0.72973,0.7921 1.42471,0.54877 1.84737,-0.64681 z m -8.65593,-2.1297 c 0.57261,-0.74894 0.53571,-1.00222 -0.14604,-1.00222 -0.50177,0 -0.91231,0.451 -0.91231,1.00222 0,0.55121 0.0657,1.0022 0.14604,1.0022 0.0803,0 0.49085,-0.45099 0.91231,-1.0022 z m 13.94534,-0.9213 c 0,-1.2403 -1.09443,-1.44985 -1.7312,-0.33147 -0.56472,0.99182 0.26329,2.39934 1.08657,1.84705 0.35454,-0.23785 0.64463,-0.91987 0.64463,-1.51558 z m -0.11298,-2.28907 c 1.64133,0.12334 2.00953,-0.11705 1.81953,-1.18794 -0.13214,-0.7448 0.4285,-1.84946 1.25914,-2.48098 0.82353,-0.62613 1.2239,-1.13842 0.88969,-1.13842 -0.3342,0 -0.0419,-0.67856 0.64957,-1.50792 0.69146,-0.82936 1.08692,-1.69277 0.87879,-1.91869 -0.20813,-0.22592 -1.06381,0.793 -1.90151,2.26427 -0.83992,1.47516 -1.85515,2.45225 -2.26341,2.17837 -0.46427,-0.31145 -0.53538,-0.13669 -0.19071,0.46866 0.36638,0.64348 0.2289,0.84928 -0.41236,0.61725 -0.52909,-0.19144 -0.97242,-0.82726 -0.98516,-1.41292 -0.0293,-1.34751 1.2387,-2.34636 1.77745,-1.40014 0.22324,0.39207 1.04919,-0.66213 1.83546,-2.34269 0.78626,-1.68055 1.62459,-3.03392 1.86295,-3.0075 2.0128,0.22309 3.89576,-0.0661 3.89576,-0.59849 0,-0.35558 1.02324,-1.82419 2.27388,-3.26357 2.07171,-2.38441 4.46368,-8.1308 3.37425,-8.1062 -1.66043,0.0375 -3.49312,1.06995 -3.77435,2.12629 -0.18243,0.68525 -0.57581,1.89333 -0.87418,2.68462 -0.42201,1.11921 -0.32412,1.30111 0.4408,0.81907 0.5408,-0.3408 0.82747,-0.42448 0.63703,-0.18595 -0.19043,0.23854 -0.60907,0.42889 -0.93031,0.42303 -0.32124,-0.007 -1.538,0.95248 -2.70389,2.12969 -1.1659,1.17722 -1.86767,1.66532 -1.55948,1.08468 0.3575,-0.67357 0.29447,-0.87736 -0.17413,-0.563 -0.40396,0.27099 -0.58088,1.25343 -0.39317,2.18321 0.27423,1.35826 0.19549,1.4689 -0.40064,0.563 -0.52939,-0.80451 -0.74498,-0.85076 -0.75255,-0.16148 -0.008,0.75123 -0.33713,0.77634 -1.47913,0.11293 -0.89521,-0.52006 -1.29632,-0.55066 -1.02742,-0.0784 0.24261,0.42609 0.1244,0.98717 -0.26267,1.24684 -0.38708,0.25968 -0.70377,1.26159 -0.70377,2.22651 0,0.9649 -0.48231,1.95525 -1.07179,2.2008 -0.82704,0.34448 -0.96329,1.07427 -0.59663,3.19571 0.34403,1.99059 0.25449,2.60126 -0.32447,2.21286 -0.43979,-0.29504 -0.59058,-0.90356 -0.33509,-1.35229 0.27956,-0.491 0.1417,-0.59929 -0.34624,-0.27195 -0.44592,0.29915 -0.63149,0.85878 -0.41236,1.24363 0.21912,0.38484 -0.0874,0.69972 -0.68119,0.69972 -0.59376,0 -1.07958,0.45099 -1.07958,1.00221 0,1.73935 0.96433,2.13302 1.4847,0.6061 0.36129,-1.06014 1.0687,-1.4228 2.55719,-1.31093 z m 1.49793,-8.00178 c 0,-2.16969 1.0384,-3.38001 1.5816,-1.84347 0.18798,0.53173 -0.091,1.60917 -0.61991,2.39434 -0.91013,1.35105 -0.96169,1.32151 -0.96169,-0.55087 z m 18.35067,8.45606 c -1.90369,-0.88796 -2.99703,-0.88796 -1.7312,0 0.5713,0.40075 1.50614,0.71004 2.07744,0.68731 0.6849,-0.0272 0.56695,-0.26137 -0.34624,-0.68731 z m -63.56333,-3.65685 c -2.53782,-2.88368 -3.95326,-5.3815 -3.95326,-6.97624 0,-0.5282 0.70113,0.53196 1.55807,2.35591 1.61952,3.44703 3.28927,4.79596 3.28927,2.65727 0,-1.7837 -4.638,-8.16968 -5.07564,-6.98853 -0.19516,0.52674 -0.36112,-0.0571 -0.36879,-1.29727 -0.0127,-2.05359 0.0597,-2.1254 0.81093,-0.80413 0.45368,0.79797 1.84896,2.65832 3.10062,4.13412 l 2.27574,2.68329 -0.30191,-2.38017 c -0.16605,-1.3091 0.15727,-3.33858 0.7185,-4.50996 0.96272,-2.0094 0.95027,-3.28971 -0.0755,-7.76723 -0.40981,-1.78877 -0.39735,-1.79781 0.25918,-0.18792 0.96962,2.37764 1.34847,2.10599 1.20446,-0.86362 -0.0681,-1.40517 -0.3576,-2.39995 -0.64325,-2.21063 -0.28565,0.18934 -0.52973,-0.94413 -0.5424,-2.51884 l -0.0231,-2.86308 -1.40529,1.83263 c -0.7729,1.00796 -1.58182,2.79079 -1.79759,3.96187 -0.21577,1.17106 -0.66368,2.31125 -0.99535,2.53376 -0.33167,0.2225 -0.57198,1.31477 -0.53401,2.42725 l 0.069,2.0227 0.61369,-1.87914 c 0.507,-1.55245 0.56232,-1.38615 0.31823,0.95642 -0.1625,1.55955 -0.0247,2.65395 0.30615,2.43197 0.60141,-0.40346 1.18432,0.99603 1.75528,4.21419 0.55968,3.15455 -1.6018,-0.11624 -3.04596,-4.60919 l -1.32455,-4.12089 -1.11165,2.79458 c -1.39738,3.51292 -1.42559,8.2718 -0.0659,11.12576 0.57513,1.20722 0.96465,2.6126 0.8656,3.12306 -0.099,0.51046 0.28733,0.95886 0.85863,0.99644 0.57129,0.0376 0.95309,0.50091 0.84844,1.0296 -0.10466,0.52872 0.0831,0.77786 0.41734,0.55367 0.33419,-0.2242 1.19542,0.0589 1.91383,0.62913 2.44129,1.93767 2.49613,0.25731 0.0812,-2.48678 z m 0.87466,-13.67072 c -0.41835,-0.84848 -0.66302,-2.05376 -0.54372,-2.67838 0.11929,-0.62462 0.55992,0.0696 0.97918,1.54271 0.85686,3.01073 0.69594,3.4304 -0.43546,1.13567 z m -0.66245,-6.41234 c 0.006,-0.79238 0.32691,-1.94806 0.71351,-2.56818 0.51334,-0.82342 0.57759,-0.51934 0.23822,1.12748 -0.56954,2.76381 -0.96589,3.36377 -0.95173,1.4407 z m 36.9124,21.22445 c 0.27277,0.29608 -0.20651,-0.85369 -1.06506,-2.55506 -0.85856,-1.70137 -1.65287,-2.99369 -1.76513,-2.87182 -0.6154,0.66799 -1.37297,4.90809 -0.80937,4.53002 0.35638,-0.23909 0.65274,-1.1758 0.65857,-2.08158 0.008,-1.26162 0.15561,-1.3982 0.6305,-0.58389 0.34093,0.58464 0.47346,2.27587 0.2945,3.7583 -0.3088,2.55801 -0.27735,2.60795 0.61734,0.98051 0.51848,-0.94315 1.16588,-1.47256 1.43865,-1.17648 z m -10.10392,0.55801 c -0.2301,-0.24977 -0.82737,-0.27648 -1.32724,-0.0593 -0.55242,0.23995 -0.38833,0.41807 0.41836,0.45414 0.72999,0.0326 1.13899,-0.14502 0.90888,-0.39479 z m -0.56264,-1.24512 c -0.15869,-0.10778 -1.06756,-0.86881 -2.01972,-1.69124 l -1.73119,-1.4953 1.31916,1.69124 c 0.72554,0.93018 1.63441,1.69123 2.01972,1.69123 0.38532,0 0.57073,-0.0881 0.41203,-0.19593 z m 5.59754,-1.26303 c 0,-0.80242 -0.3167,-1.67142 -0.70378,-1.93109 -0.38708,-0.25967 -0.52449,-0.787 -0.30537,-1.17185 0.21912,-0.38484 0.0794,-0.69971 -0.31058,-0.69971 -0.38994,0 -1.06265,0.7173 -1.49491,1.59402 -0.55237,1.12033 -0.55961,1.4422 -0.0244,1.08313 0.45959,-0.30831 0.76157,0.10279 0.76157,1.03677 0,0.87461 0.45172,1.54769 1.03872,1.54769 0.57129,0 1.03871,-0.65653 1.03871,-1.45896 z m -4.54079,-0.35874 c -0.73871,-0.58631 -1.49037,-0.90616 -1.67037,-0.71079 -0.38112,0.41369 1.40458,1.74842 2.36176,1.76532 0.35844,0.007 0.0473,-0.4682 -0.69139,-1.05453 z m 5.90137,-3.3945 c 0.90458,-1.83467 0.9133,-2.5249 0.0244,-1.92857 -0.38086,0.25551 -0.70195,0.0218 -0.71354,-0.51938 -0.0116,-0.54507 -0.36988,-0.33127 -0.80312,0.47935 -0.59943,1.12154 -0.57621,1.53776 0.0994,1.78222 0.6926,0.25059 0.67921,0.45805 -0.0625,0.96811 -0.65445,0.45005 -0.68595,0.65268 -0.10272,0.66066 0.46268,0.007 1.16381,-0.64275 1.55807,-1.44239 z m 25.89107,-2.20538 c 2.24152,-1.3575 4.56324,-2.26354 5.19358,-2.02679 0.83765,0.31461 0.78349,0.12867 -0.20425,-0.70119 -1.63731,-1.3756 -2.46095,-1.43875 -2.47504,-0.18976 -0.008,0.71461 -0.14871,0.70318 -0.58742,-0.0478 -0.45526,-0.77927 -1.40161,-0.54825 -4.49051,1.09615 -2.15252,1.14593 -3.91368,2.37124 -3.91368,2.72293 0,0.35169 0.35976,0.3981 0.79947,0.10312 0.49533,-0.33229 0.6115,-0.20619 0.30537,0.33147 -0.59492,1.04487 0.26196,2.83321 0.88603,1.8492 0.23804,-0.37534 2.25694,-1.78716 4.48645,-3.13736 z m -15.19179,-2.354 c 0.12475,-0.62012 0.45036,-2.81872 0.72356,-4.88579 0.2732,-2.06706 0.98476,-4.35022 1.58123,-5.0737 0.67297,-0.81623 0.781,-1.3154 0.28471,-1.3154 -0.4399,0 -0.79981,0.33825 -0.79981,0.75166 0,0.41341 -0.31161,0.75166 -0.69248,0.75166 -0.38086,0 -0.69247,-0.56791 -0.69247,-1.26204 0,-2.10703 -1.62614,-6.29257 -2.34385,-6.03289 -1.78549,0.64603 -2.09259,2.76105 -0.91758,6.31942 1.66727,5.04913 1.51451,7.65955 -0.58761,10.0412 l -1.77159,2.00718 1.94471,-0.0869 c 1.74779,-0.0782 1.92952,0.14143 1.79459,2.16807 l -0.15014,2.25497 0.69996,-2.25497 c 0.38497,-1.24024 0.80202,-2.76235 0.92677,-3.38247 z m -2.40721,-0.93957 c 0.91763,-1.13689 1.70758,-2.06706 1.75544,-2.06706 0.0479,0 0.087,0.83089 0.087,1.84641 0,1.28132 -0.23817,1.63187 -0.77821,1.14538 -0.49293,-0.44406 -1.13644,-0.36318 -1.75544,0.22064 -0.53748,0.50693 -0.22646,-0.009 0.69117,-1.14537 z m 1.48166,-5.51217 c 0.0332,-0.87565 0.19732,-1.05375 0.41837,-0.45413 0.20004,0.5426 0.17544,1.19091 -0.0546,1.44068 -0.23011,0.24977 -0.39377,-0.19418 -0.3637,-0.98655 z m -2.07744,-8.26825 c 0.0332,-0.87566 0.19732,-1.05376 0.41838,-0.45414 0.20003,0.5426 0.17544,1.19091 -0.0547,1.44068 -0.2301,0.24978 -0.39377,-0.19418 -0.3637,-0.98654 z m -11.13431,17.60185 c 0,-0.39358 0.31162,-0.50656 0.69248,-0.25105 0.38086,0.25551 0.69248,0.14253 0.69248,-0.25105 0,-0.66728 -2.08079,-1.91219 -2.43676,-1.45788 -0.0886,0.11309 -0.376,0.96454 -0.63865,1.89211 -0.37789,1.33457 -0.25133,1.59229 0.60645,1.23499 0.5962,-0.24833 1.084,-0.77353 1.084,-1.16712 z m -13.84955,-2.3654 c 0,-0.54278 -0.93485,-1.95904 -2.07744,-3.14726 -2.3955,-2.49119 -2.67291,-1.82102 -0.70006,1.69123 1.4043,2.50006 2.7775,3.21993 2.7775,1.45603 z m 11.57655,-4.07651 c -0.15917,-1.14257 -0.29365,-0.38616 -0.29885,1.6809 -0.005,2.06707 0.12503,3.0019 0.2894,2.0774 0.16436,-0.9245 0.16862,-2.61573 0.009,-3.7583 z m 4.35044,1.93195 c 0,-0.80699 -0.31162,-1.25821 -0.69248,-1.0027 -0.38086,0.25549 -0.69248,0.97191 -0.69248,1.59203 0,0.66085 -0.33089,0.90552 -0.79947,0.59116 -0.48411,-0.32476 -0.61194,-0.20696 -0.32407,0.29865 0.71444,1.25477 2.5085,0.1969 2.5085,-1.47914 z m -2.07744,-1.0027 c 0,-0.62013 -0.31161,-1.1275 -0.69248,-1.1275 -0.38086,0 -0.69247,0.50737 -0.69247,1.1275 0,0.62011 0.31161,1.12748 0.69247,1.12748 0.38087,0 0.69248,-0.50737 0.69248,-1.12748 z m 18.30662,-1.87916 c 0.19075,0 0.14783,0.56286 -0.0954,1.2508 -0.80572,2.27911 0.96735,0.37368 2.13263,-2.29184 2.30801,-5.27944 0.66056,-12.67299 -1.736,-7.79095 -0.70888,1.44408 -0.68484,1.56119 0.1645,0.80139 0.83534,-0.74727 0.9947,-0.41016 0.9947,2.10422 0,2.60796 -0.11365,2.82534 -0.88133,1.68575 -0.78444,-1.16448 -0.88133,-1.17344 -0.88133,-0.0815 0,0.67473 0.31161,1.43584 0.69247,1.69135 0.38087,0.2555 0.69248,0.82425 0.69248,1.26388 0,0.49871 -0.39662,0.44204 -1.05457,-0.15068 -0.87474,-0.78801 -0.98478,-0.75259 -0.64527,0.20777 0.22512,0.63678 0.0764,1.38107 -0.33039,1.654 -0.40682,0.27292 -0.71993,1.06818 -0.69578,1.76727 0.0318,0.92091 0.2164,0.80516 0.67016,-0.4202 0.34445,-0.93018 0.78234,-1.69124 0.97309,-1.69124 z m 4.29042,-0.76693 c 1.0133,-1.66206 1.71885,-3.14853 1.5679,-3.30329 -0.15095,-0.15474 -1.11941,1.20512 -2.15212,3.02193 -2.35198,4.13769 -1.89965,4.35553 0.58422,0.28136 z m -64.05343,-1.01501 c 0.53555,-1.01988 0.52678,-1.26416 -0.0319,-0.88935 -0.46833,0.31419 -1.29062,-0.75523 -2.0976,-2.72801 l -1.3273,-3.24478 -0.0489,3.6198 c -0.0269,1.99089 0.29619,4.31975 0.71799,5.17525 0.80711,1.63698 0.97386,1.52135 2.78776,-1.93291 z m 44.2263,1.05387 c 0,-0.97035 -0.33893,-1.33854 -0.9846,-1.06961 -0.54153,0.22557 -1.63219,0.0339 -2.42368,-0.42586 -1.44381,-0.83875 -1.85964,-0.32737 -0.9091,1.11799 0.27982,0.42548 1.20989,0.72535 2.06683,0.66637 0.85694,-0.059 1.55808,0.18485 1.55808,0.54181 0,0.35697 0.1558,0.64903 0.34623,0.64903 0.19044,0 0.34624,-0.66587 0.34624,-1.47973 z m 29.07828,-4.55334 c -0.56811,-0.38985 -1.34454,-0.70374 -1.7254,-0.6975 -0.38087,0.007 -0.1406,0.3601 0.53392,0.78635 0.67452,0.42626 1.01832,1.17702 0.76401,1.66838 -0.29414,0.5683 -0.11257,0.54009 0.49901,-0.0775 0.81878,-0.82686 0.80817,-1.07603 -0.0715,-1.67973 z m -31.15571,0.0198 c 0,-0.41342 -0.31161,-0.75167 -0.69248,-0.75167 -0.38086,0 -0.69248,0.33825 -0.69248,0.75167 0,0.41341 0.31162,0.75165 0.69248,0.75165 0.38087,0 0.69248,-0.33824 0.69248,-0.75165 z m 22.42351,-0.41488 c 0.23648,-0.66892 0.12039,-0.97063 -0.27215,-0.7073 -0.3765,0.25258 -0.68455,0.77752 -0.68455,1.16654 0,1.08121 0.49635,0.84295 0.9567,-0.45924 z m -64.19162,-3.48436 c -0.22105,-0.59962 -0.38514,-0.42152 -0.41837,0.45413 -0.0301,0.79236 0.1336,1.23632 0.3637,0.98655 0.23011,-0.24977 0.25471,-0.89808 0.0547,-1.44068 z m 64.91762,0.97776 c 0.20872,-0.36657 -0.0595,-1.06194 -0.59601,-1.54526 -0.78399,-0.70628 -0.92883,-0.61233 -0.73783,0.47857 0.13071,0.74655 0.2615,1.44192 0.29064,1.54527 0.11612,0.41186 0.68473,0.15102 1.0432,-0.47858 z m -48.82162,-17.17754 c 0.43712,-1.04136 0.64127,-2.0600003 0.45367,-2.2636303 -0.45938,-0.49863 -4.55811,3.9979303 -4.55811,5.0005303 0,1.44277 3.26342,-0.73333 4.10444,-2.7369 z m -6.40131,0.41492 c -0.22105,-0.59962 -0.38514,-0.42152 -0.41837,0.45414 -0.0301,0.79236 0.1336,1.23632 0.3637,0.98654 0.23011,-0.24977 0.25471,-0.89808 0.0547,-1.44068 z m 6.45174,70.04529 c -0.62412,-0.43781 -0.70954,-0.73324 -0.21399,-0.74016 0.4536,-0.007 1.01732,0.32675 1.25271,0.74016 0.53134,0.93321 0.29161,0.93321 -1.03872,0 z m 0.69248,-1.50332 c -0.88769,-0.6227 -0.86252,-0.73031 0.17312,-0.74015 0.66651,-0.007 1.21183,0.32674 1.21183,0.74015 0,0.91674 -0.0781,0.91674 -1.38495,0 z m -7.21098,-5.73864 c -0.19018,-0.53798 3.6e-4,-1.21037 0.42344,-1.49419 0.46579,-0.31248 0.57432,-0.17373 0.27512,0.35176 -0.27175,0.47729 -0.19006,0.86779 0.18154,0.86779 0.3716,0 0.82566,-0.42281 1.00901,-0.93958 0.18335,-0.51675 0.30273,-0.23488 0.26528,0.62639 -0.0749,1.72279 -1.60552,2.1404 -2.15439,0.58783 z m -8.76899,-16.2474 c -0.44211,-1.56804 -0.3812,-2.73418 0.12506,-2.39455 0.35364,0.23725 0.43098,0.80371 0.17185,1.25882 -0.30603,0.53749 -0.0547,0.654 0.71715,0.3325 0.70583,-0.294 1.01651,-0.19327 0.76521,0.24809 -0.37429,0.65738 -1.63918,1.05202 -1.77927,0.55514 z m -6.43138,-6.42951 c -1.0039605,-1.57252 -1.7972705,-3.68656 -1.7629205,-4.69788 0.0508,-1.49549 0.19024,-1.34762 0.747,0.79207 0.3765,1.44694 1.4973505,3.56098 2.4907705,4.69786 0.99343,1.1369 1.4787,2.06707 1.07837,2.06707 -0.40032,0 -1.54927,-1.28661 -2.55322,-2.85912 z m 4.17004,-3.49171 c -0.25686,-0.72655 -0.0523,-0.95059 0.61441,-0.6729 0.54971,0.22898 0.82707,0.71913 0.61635,1.08921 -0.53074,0.93214 -0.78439,0.84635 -1.23076,-0.41631 z m 0.92936,-1.91743 c -0.62412,-0.43781 -0.70954,-0.73323 -0.21399,-0.74014 0.4536,-0.007 1.01732,0.32673 1.25271,0.74014 0.53134,0.93321 0.29162,0.93321 -1.03872,0 z m 0.69248,-5.26161 c -0.62412,-0.43781 -0.70954,-0.73324 -0.21399,-0.74016 0.4536,-0.007 1.01732,0.32674 1.25271,0.74016 0.53134,0.9332 0.29161,0.9332 -1.03872,0 z m -1.38495,-1.84545 c 0,-0.57999 2.06099,-1.04651 2.35351,-0.53274 0.17625,0.30954 -0.28119,0.61199 -1.01653,0.67211 -0.73535,0.0601 -1.33698,-0.002 -1.33698,-0.13937 z m 4.38569,-7.51723 c 0,-0.60194 0.25968,-0.92022 0.57706,-0.7073 0.31739,0.21292 0.57707,0.70541 0.57707,1.09442 0,0.38902 -0.25968,0.7073 -0.57707,0.7073 -0.31738,0 -0.57706,-0.4925 -0.57706,-1.09442 z m 13.02375,-5.77517 c -0.0693,-2.47974 0.29593,-3.99972 1.26442,-5.26161 0.74905,-0.97598 1.37228,-1.37988 1.38495,-0.89757 0.0127,0.48232 -0.3525,1.01281 -0.81148,1.17889 -0.45898,0.16607 -1.03834,2.13918 -1.28745,4.38468 l -0.45294,4.08273 z m -14.5302,-1.39867 c 0,-1.03353 0.15718,-1.45634 0.34928,-0.93957 0.1921,0.51677 0.1921,1.36238 0,1.87915 -0.1921,0.51676 -0.34928,0.094 -0.34928,-0.93958 z m 4.41926,-0.70337 c -0.28012,-0.49199 0.0179,-0.59405 0.80214,-0.27477 1.0472,0.42629 1.11042,0.32421 0.3932,-0.63499 -0.68651,-0.91815 -0.66784,-1.14295 0.0949,-1.14295 1.09447,0 1.00764,2.16526 -0.10294,2.5671 -0.40791,0.14758 -0.94219,-0.0839 -1.18731,-0.51439 z m 8.34029,-5.95962 c -0.23478,-0.41235 -0.1051,-0.9656 0.2882,-1.22943 0.39328,-0.26384 0.50602,-0.84685 0.25053,-1.29557 -0.26339,-0.4626 -0.14507,-0.60155 0.27327,-0.3209 0.75364,0.50558 0.76954,2.34229 0.0272,3.14804 -0.22679,0.24618 -0.60444,0.11022 -0.83922,-0.30214 z"
     style="fill:#000000;stroke-width:0.72146219" />
</svg>
