<?xml version="1.0" encoding="UTF-8" standalone="no"?>
<svg
   xmlns:dc="http://purl.org/dc/elements/1.1/"
   xmlns:cc="http://creativecommons.org/ns#"
   xmlns:rdf="http://www.w3.org/1999/02/22-rdf-syntax-ns#"
   xmlns:svg="http://www.w3.org/2000/svg"
   xmlns="http://www.w3.org/2000/svg"
   id="svgNG1"
   version="1.1"
   viewBox="0 0 100 100"
   height="100"
   width="100">
  <defs
     id="defs2" />
  <metadata
     id="metadata5">
    <rdf:RDF>
      <cc:Work
         rdf:about="">
        <dc:format>image/svg+xml</dc:format>
        <dc:type
           rdf:resource="http://purl.org/dc/dcmitype/StillImage" />
        <dc:title></dc:title>
      </cc:Work>
    </rdf:RDF>
  </metadata>
  <path
     id="pathNG1"
     d="m 82.31606,89.783624 c -0.711935,0.232192 -2.193042,-0.542796 -5.770424,-3.019374 -4.439263,-3.073242 -8.013605,-5.92049 -7.675716,-6.114316 0.07725,-0.04431 1.080684,0.496553 2.229852,1.201921 3.442401,2.112974 11.496779,4.886215 11.696859,4.027402 0.04042,-0.173495 -0.791616,-1.001204 -1.848961,-1.839351 -2.860142,-2.267201 -2.771454,-2.558532 0.489016,-1.606373 3.621919,1.057718 6.746303,1.290189 10.614293,0.789767 l 2.949014,-0.381532 -5.863083,3.314742 c -3.224692,1.823113 -6.294079,3.455309 -6.82085,3.627114 z m -7.374795,3.493906 c -2.884486,1.104434 -3.492442,0.920162 -1.316607,-0.399064 0.932946,-0.565652 2.058399,-1.412334 2.501012,-1.88151 0.734313,-0.778389 0.4815,-0.851182 -2.888545,-0.831682 -8.922319,0.05163 -15.374546,-3.393334 -14.245419,-7.6059 0.408233,-1.523055 2.805017,-5.499161 5.270241,-8.742988 2.384576,-3.137715 4.324892,-7.237649 4.787985,-10.117126 0.362884,-2.256413 0.429918,-2.371251 0.547709,-0.938342 0.235089,2.859788 -1.217409,6.525064 -4.67075,11.786284 -4.519948,6.886222 -4.876558,9.636261 -1.545869,11.921191 0.656095,0.450098 1.766824,0.965149 2.468291,1.144566 l 1.275394,0.32621 -1.038918,-1.853122 -1.038918,-1.853121 1.997334,1.356162 c 1.098534,0.745889 2.746751,1.551747 3.662704,1.790794 l 1.665369,0.434631 -1.302798,-1.754575 c -1.037947,-1.397881 -1.119201,-1.633836 -0.39969,-1.160672 0.496709,0.326647 2.831278,1.802098 5.187931,3.278779 l 4.284822,2.684878 -1.472668,0.775413 c -0.809959,0.426483 -2.487839,1.164116 -3.728612,1.639195 z M 58.844159,90.13574 c -0.803854,-1.001383 -1.677963,-2.43894 -1.942465,-3.194571 -0.593262,-1.69484 -1.278074,-1.435275 -2.113902,0.801244 l -0.589092,1.576285 0.176695,-2.034694 c 0.09718,-1.119084 0.719112,-2.990597 1.382072,-4.158918 l 1.205384,-2.124218 -2.109671,0.634586 -2.109669,0.63459 1.516892,-0.965163 c 0.834289,-0.530841 2.974806,-2.275976 4.756704,-3.87808 1.781897,-1.602105 3.331539,-2.884514 3.44365,-2.8498 0.11211,0.03471 -0.445272,0.885049 -1.238627,1.889632 -3.753976,4.753447 -4.281543,7.971195 -2.104444,12.83543 l 1.188029,2.65438 z m 9.246352,-18.826632 c 2.948525,-5.142379 3.258381,-11.198722 0.792852,-15.496785 -1.944438,-3.389668 -6.917162,-6.582538 -11.603555,-7.450372 -3.78275,-0.700495 -3.075047,-1.06881 1.215007,-0.632336 5.196367,0.528692 9.990247,2.919928 12.735384,6.352535 2.765323,3.457846 2.097408,10.412951 -1.538578,16.021545 -2.537914,3.914782 -3.623007,4.731714 -1.60111,1.205413 z m -24.23419,3.410081 c 0.71888,-0.830767 1.949238,-2.543586 2.73413,-3.80626 1.488118,-2.393964 3.701772,-7.805324 3.40477,-8.323078 -0.09427,-0.16434 -2.021581,0.841097 -4.282902,2.234318 l -4.111498,2.533115 2.329836,-2.13526 c 3.602791,-3.301915 5.304449,-5.495148 6.304306,-8.125511 l 0.917891,-2.414733 1.369675,2.407517 c 2.102266,3.695222 2.285766,7.552131 0.531087,11.16273 l -0.680494,1.40025 0.126823,-2.591037 c 0.16318,-3.333894 -0.234001,-3.982425 -1.092123,-1.783261 -1.327581,3.402257 -4.409985,7.484241 -7.427754,9.836458 l -1.430799,1.115244 z M 84.160772,49.886906 c -3.960342,-2.658682 -11.758196,-3.50879 -15.021844,-1.637651 -1.269766,0.727991 -1.512119,0.691914 -2.405357,-0.358074 -1.470573,-1.728633 -1.471996,-1.684778 0.105628,-3.26097 1.867829,-1.866137 3.970909,-3.007376 6.338655,-3.439665 l 1.874248,-0.342197 -1.630107,0.99339 c -2.12456,1.294701 -1.783634,1.762116 0.865873,1.187119 2.089635,-0.453487 6.657065,0.422052 7.207514,1.381628 0.152415,0.265704 -0.277623,0.311323 -0.955648,0.101367 -1.731218,-0.536073 -5.337765,-0.401142 -6.013674,0.224997 -0.422316,0.39121 -0.165347,0.523604 1.012041,0.521418 2.689817,-0.005 6.780875,1.73636 8.819436,3.753996 1.029817,1.01924 1.853785,1.933048 1.831043,2.030685 -0.02275,0.09763 -0.935258,-0.422591 -2.027808,-1.156043 z m -7.439288,3.797748 C 75.61407,52.88783 74.357202,52.45105 73.34125,52.50996 72.451729,52.56154 71.579799,52.361262 71.403629,52.0649 71.227463,51.768534 70.471795,51.106532 69.724375,50.593781 l -1.358957,-0.932272 1.638363,-0.54653 c 2.226731,-0.742795 5.553247,-0.873972 7.261323,-0.286336 l 1.409349,0.48486 -1.826324,0.450052 c -1.004479,0.247528 -1.869207,0.634127 -1.921625,0.859115 -0.05241,0.224983 0.689616,1.08149 1.648962,1.903346 2.293075,1.964442 2.395502,2.777215 0.146018,1.158638 z m -16.617577,4.194817 c -2.406592,-3.712867 -4.664835,-6.219745 -5.283283,-5.864981 -0.16342,0.09374 0.133047,1.15752 0.658813,2.36395 1.12039,2.570861 1.439582,5.609425 0.827714,7.879488 l -0.435695,1.616458 -0.32761,-2.503173 C 55.13337,58.234855 52.53019,53.93722 50.314738,52.738391 l -1.419906,-0.768339 0.144433,1.916982 c 0.07944,1.054339 0.105,1.940057 0.05681,1.968264 -0.04821,0.02815 -0.663656,-1.087852 -1.367686,-2.480117 -0.704034,-1.392274 -1.852509,-3.118891 -2.552166,-3.836928 l -1.272108,-1.305535 2.633919,0.369941 c 1.448657,0.203471 4.179618,0.425056 6.068806,0.492416 1.889186,0.06735 4.360892,0.294768 5.492679,0.505365 2.006184,0.373304 5.498641,2.367605 7.265741,4.148974 0.751355,0.75742 0.608872,0.758542 -0.982748,0.0078 -1.873003,-0.883518 -3.536741,-1.30707 -4.027776,-1.025395 -0.145672,0.08356 0.156914,1.155315 0.672416,2.381676 0.515502,1.226362 1.080172,3.216712 1.254828,4.422998 l 0.317555,2.193243 z m 4.696179,-9.739388 c -1.0155,-0.96279 -4.973976,-1.975707 -7.473738,-1.91242 -1.064986,0.02694 -3.865914,0.339884 -6.224283,0.695389 -7.438269,1.121254 -12.050606,-0.597515 -14.936243,-5.565916 -2.417478,-4.162341 -2.045938,-7.39413 1.635518,-14.226414 l 1.56411,-2.90277 0.0051,2.06078 c 0.0074,2.99122 0.316028,4.79482 1.034923,6.04804 l 0.633523,1.10439 -1.746234,-0.50004 c -2.066156,-0.59166 -2.272341,-0.18876 -1.020332,1.993821 1.790106,3.120624 5.331123,4.717887 10.243395,4.620538 2.308787,-0.04575 1.585822,0.442217 -2.484794,1.677119 -1.573926,0.477486 -2.888678,0.984015 -2.921668,1.125631 -0.109773,0.471174 2.749864,0.904792 5.738586,0.870161 3.47089,-0.04023 7.668772,-1.127042 10.708771,-2.772483 l 2.172471,-1.17588 -2.432056,2.225584 -2.432061,2.225571 2.087972,0.500548 c 2.19986,0.527367 6.303227,3.097828 6.515623,4.08156 0.06878,0.318583 -0.23208,0.240631 -0.668583,-0.173209 z M 37.638762,46.692447 c -2.769636,-0.900931 -5.915878,-3.32282 -7.180462,-5.527319 -0.515189,-0.898112 -0.642576,-0.906647 -1.127605,-0.07557 -0.498174,0.853606 -0.571508,0.83561 -0.824628,-0.202367 -0.695939,-2.853825 0.413721,-7.288459 2.493206,-9.963839 1.588205,-2.04332 1.490074,-2.892 -0.177092,-1.53155 -1.402181,1.14422 -0.910098,0.32701 1.789399,-2.97164 2.554711,-3.12175 4.724775,-6.76434 4.723563,-7.9288 -8.08e-4,-0.78636 -0.214906,-0.99449 -1.067117,-1.03744 -2.274714,-0.11465 -4.064063,0.35905 -6.516195,1.725 -2.478663,1.38076 -2.567313,1.38994 -3.175518,0.32968 l -0.625672,-1.09071 3.220782,-1.46695 c 1.771429,-0.80683 4.145458,-1.66226 5.275616,-1.90098 6.884781,-1.45421 7.437569,2.00802 1.973288,12.35911 -2.965325,5.61726 -3.705259,8.878756 -2.743838,12.094309 0.794095,2.655916 3.354483,5.808169 5.486606,6.754894 2.448855,1.087358 1.401115,1.385785 -1.524333,0.434175 z M 63.083935,31.713302 c -1.011132,-1.14701 -2.191546,-1.58274 -1.663338,-0.61398 0.19564,0.35883 0.02719,0.38486 -0.477533,0.0738 -0.428898,-0.26432 -1.733634,-0.35437 -2.899415,-0.20013 -1.233972,0.16327 -2.39076,-0.005 -2.768564,-0.40284 -0.356924,-0.37581 -0.472772,-0.78436 -0.257435,-0.90788 0.682525,-0.39152 3.806459,-0.40965 4.028042,-0.0234 0.116944,0.20386 0.387891,0.27012 0.602102,0.14724 0.631032,-0.36198 -0.460863,-1.84079 -2.302714,-3.11868 l -1.713198,-1.18862 1.338599,-0.21952 c 0.736228,-0.12074 2.2613,0.003 3.389039,0.27496 1.692909,0.40825 1.871978,0.5374 1.026958,0.74062 -1.021559,0.24569 -1.024915,1.0581 -0.0046,1.12474 0.294189,0.0192 0.942495,0.30649 1.440678,0.63841 0.819206,0.54581 0.805299,0.6034 -0.145476,0.60255 -1.007287,-9e-4 -0.991303,0.0812 0.382262,1.96256 1.565393,2.14412 1.581643,2.87636 0.02463,1.11012 z M 31.973119,49.228923 c -0.999551,-1.723478 -5.097722,-4.203488 -8.737241,-5.287348 -2.067493,-0.615709 -3.920935,-1.026626 -4.118758,-0.913148 -0.197823,0.113482 0.268755,0.713471 1.036838,1.333301 0.768084,0.61984 1.796191,1.843961 2.284687,2.720272 l 0.888169,1.593299 -1.866086,-1.349547 c -2.169663,-1.569088 -7.268261,-2.71003 -7.983576,-1.786528 -0.259259,0.334716 -0.48576,1.753486 -0.503326,3.152832 -0.02882,2.294915 -0.09291,2.437982 -0.653985,1.459876 -0.764447,-1.332632 0.108402,-4.546758 1.756011,-6.466228 1.656196,-1.929478 5.151587,-3.315757 8.059741,-3.196506 1.459872,0.05986 2.317566,0.316186 2.153713,0.643628 -0.187156,0.374018 0.490117,1.052048 2.166147,2.168583 2.403495,1.601151 6.240352,5.61563 6.069218,6.350182 -0.0483,0.207315 -0.296499,0.01711 -0.551554,-0.422668 z M 53.646495,31.841292 c -1.370031,-0.72183 -1.920328,-0.76588 -2.488469,-0.19918 -0.596372,0.59486 -0.822014,0.55198 -1.236804,-0.23503 -0.361284,-0.68549 -0.831616,-0.87843 -1.633681,-0.67018 l -1.126334,0.29244 0.766061,-0.89142 0.766056,-0.89142 -2.047097,-0.43939 -2.047104,-0.43941 2.116918,-0.34077 c 2.515204,-0.40489 6.128191,-0.30623 7.354294,0.2008 0.747614,0.30916 0.754416,0.43326 0.04602,0.83962 -0.751652,0.43117 -0.715485,0.62336 0.377741,2.00722 0.664943,0.84172 1.142031,1.5671 1.060201,1.61195 -0.08183,0.0449 -0.940347,-0.3355 -1.907805,-0.84523 z m 1.63345,-4.17029 c -3.850368,-1.02105 -8.864818,-0.83985 -11.772695,0.4254 -1.29667,0.5642 -2.399935,0.95198 -2.451699,0.86175 -0.05177,-0.0902 -0.218118,-0.98557 -0.36967,-1.9896 l -0.275549,-1.82551 3.573828,-1.85558 c 1.965609,-1.02056 3.870784,-1.76344 4.233727,-1.65084 0.460424,0.14285 0.21822,0.38944 -0.80094,0.81561 -2.039866,0.853 -1.427024,1.46202 0.904069,0.89842 2.132073,-0.51548 6.25898,-0.28904 7.050349,0.38683 0.396138,0.33833 0.246527,0.41379 -0.691233,0.34864 -0.658235,-0.0457 -1.76707,0.0783 -2.464072,0.2757 l -1.267277,0.35885 2.698792,1.11675 c 2.359029,0.97615 4.910306,2.39252 4.557684,2.53025 -0.06632,0.0259 -1.382721,-0.28759 -2.925312,-0.69666 z M 9.1912599,52.47513 c 0.116838,-1.213726 0.09817,-2.141229 -0.04148,-2.061122 -0.139654,0.08011 -0.881007,1.164919 -1.647455,2.410687 -1.668125,2.711337 -1.690818,1.402731 -0.02991,-1.724736 0.604279,-1.137849 1.039116,-2.172669 0.966305,-2.299599 -0.07281,-0.126929 -0.988008,0.409503 -2.033777,1.192067 -2.456074,1.837957 -1.537103,0.504925 1.553953,-2.254119 1.270963,-1.13445 2.2226681,-2.216344 2.1149001,-2.404208 -0.1077701,-0.187873 -1.0408651,0.114326 -2.0735461,0.671547 l -1.877605,1.013124 1.359359,-1.239782 c 0.747647,-0.681883 2.010375,-1.627647 2.8060661,-2.101699 1.62774,-0.969763 1.622582,-1.232684 -0.03657,-1.868499 -1.2745851,-0.488451 -1.3310051,-0.467447 2.363754,-0.879863 1.148263,-0.128173 2.120479,-0.373533 2.160482,-0.545246 0.04001,-0.171709 -0.411019,-0.727794 -1.002249,-1.235751 -1.051325,-0.903229 -1.047861,-0.921463 0.157293,-0.828519 0.677755,0.05227 2.117764,0.144382 3.200018,0.204679 l 1.967739,0.109648 -0.477137,-1.120639 -0.477138,-1.120634 3.098845,0.521839 3.098846,0.52184 -1.041616,-1.224404 -1.041616,-1.224404 1.55819,-0.519783 c 1.84406,-0.615147 3.892939,-0.800832 4.137239,-0.374951 0.09562,0.166689 -0.064,0.812584 -0.354699,1.435338 -0.290702,0.622749 -0.480158,1.994831 -0.42101,3.049075 l 0.107544,1.916816 -2.104745,-0.504566 c -3.1983,-0.766723 -6.188157,-0.364854 -8.90774,1.197297 -2.830414,1.625699 -4.523957,3.797277 -5.127357,6.574191 -0.243838,1.122192 -0.831234,3.138526 -1.3053251,4.48074 l -0.861986,2.440398 z M 47.809233,18.709122 c -1.599246,-0.59736 -4.071959,-0.36733 -5.624435,0.52323 l -1.209205,0.69364 0.174939,-1.56528 c 0.261266,-2.33771 -1.013715,-4.22292 -3.173589,-4.69252 l -1.77614,-0.38617 1.625107,-1.31552 C 41.907399,8.6625423 49.129712,6.4304723 52.836071,7.3275623 l 2.266716,0.54864 -2.061634,0.0867 c -3.005135,0.12634 -6.963597,1.61849 -9.184569,3.4621297 l -1.872933,1.55473 2.377573,-0.0912 c 3.353111,-0.12864 5.109624,0.27711 7.061223,1.63114 2.250096,1.56113 2.727897,2.50295 0.68751,1.3552 -2.305094,-1.29666 -9.744238,-0.89905 -9.746133,0.52091 -3.74e-4,0.28069 0.146218,0.42608 0.325766,0.32308 0.43735,-0.25088 4.814451,1.05235 5.848569,1.74134 1.092302,0.72775 0.810566,0.82397 -0.728926,0.24892 z m -23.345374,9.05051 c -3.108893,0.15771 -3.743035,0.58897 -2.467679,1.67821 0.571306,0.48793 0.511298,0.56746 -0.427572,0.56662 -0.600685,-4.5e-4 -1.452851,-0.22884 -1.8937,-0.50733 -0.677807,-0.42818 -0.878518,-0.35418 -1.300118,0.47933 -0.414701,0.81989 -0.557446,0.88304 -0.848624,0.37544 -0.192534,-0.33564 -0.736695,-0.61814 -1.209246,-0.62778 -1.322589,-0.027 -1.017713,-1.18058 0.56317,-2.13091 0.781357,-0.46975 1.68319,-1.20855 2.004031,-1.64185 0.626193,-0.8457 0.620477,-0.84544 -2.520747,0.11755 -0.484242,0.14845 -0.06047,-0.22948 0.941732,-0.83985 2.682746,-1.63388 1.755813,-2.18365 -1.008317,-0.59804 -1.524318,0.8744 -2.555247,1.78685 -2.932876,2.59581 -0.551573,1.18159 -0.649901,1.22389 -1.862282,0.80118 -1.090366,-0.38017 -1.279821,-0.61588 -1.278968,-1.59119 7.63e-4,-0.89512 0.253561,-1.19681 1.158621,-1.38281 1.846868,-0.37955 5.632941,-2.97756 5.949155,-4.08233 0.192891,-0.6739 1.142348,-1.48076 2.989053,-2.54009 1.587701,-0.91076 2.893457,-1.96206 3.158985,-2.54339 0.574852,-1.25851 2.805636,-3.66342 4.026344,-4.3406 0.86199,-0.47817 0.907396,-0.44433 0.573335,0.42738 -0.199541,0.52069 -0.297575,1.06041 -0.217851,1.19939 0.07972,0.13898 2.317446,-0.99354 4.97272,-2.5167 3.290156,-1.8873597 5.875803,-3.0560597 8.118356,-3.6694897 l 3.290581,-0.90011 -4.852713,3.27133 c -2.668992,1.7992297 -6.849811,4.4596497 -9.29071,5.9120497 -5.67825,3.37869 -5.494553,3.20297 -4.483024,4.28798 0.669169,0.71778 0.703173,1.07743 0.16576,1.75328 -0.621836,0.78202 -0.447558,0.85578 2.171404,0.919 2.764293,0.0667 5.035532,0.6082 4.306148,1.0266 -0.197599,0.11335 -0.619074,0.13895 -0.936612,0.0569 -1.501221,-0.38796 -7.396377,1.95025 -6.936825,2.75137 0.122418,0.2134 1.068777,0.54343 2.103019,0.73339 2.473978,0.45441 1.819424,0.76467 -2.02455,0.95967 z m -3.632593,-7.88883 c -0.256796,-0.44767 -2.096534,-0.0364 -2.381103,0.53231 -0.111785,0.2234 -0.0019,0.52357 0.244216,0.66706 0.569463,0.33201 2.419649,-0.70644 2.136877,-1.19939 z m 7.941689,-9.44812 c 0.211833,-0.28212 0.556279,-0.4599597 0.765419,-0.39523 0.209161,0.0648 0.03584,0.29559 -0.38515,0.51295 -0.465245,0.24017 -0.614383,0.19401 -0.380289,-0.11776 z"
     style="fill:#000000;stroke-width:0.46533895" />
</svg>
