<?xml version="1.0" encoding="UTF-8" standalone="no"?>
<svg
   xmlns:dc="http://purl.org/dc/elements/1.1/"
   xmlns:cc="http://creativecommons.org/ns#"
   xmlns:rdf="http://www.w3.org/1999/02/22-rdf-syntax-ns#"
   xmlns:svg="http://www.w3.org/2000/svg"
   xmlns="http://www.w3.org/2000/svg"
   id="svgNG2"
   version="1.1"
   viewBox="0 0 100 100"
   height="100"
   width="100">
  <defs
     id="defs2" />
  <metadata
     id="metadata5">
    <rdf:RDF>
      <cc:Work
         rdf:about="">
        <dc:format>image/svg+xml</dc:format>
        <dc:type
           rdf:resource="http://purl.org/dc/dcmitype/StillImage" />
        <dc:title></dc:title>
      </cc:Work>
    </rdf:RDF>
  </metadata>
  <path
     d="m 37.217099,13.804866 -0.901458,2.646619 c -0.495696,1.455838 -1.533809,3.665381 -2.3074,4.909935 l -1.407322,2.263316 -0.416269,-4.113843 c -0.405836,-4.005427 -1.90905,-7.299006 -1.90905,-4.182641 0,3.95085 -2.295497,9.016447 -5.899447,13.018277 -2.055328,2.282246 -3.941337,4.715053 -4.190262,5.406966 -0.248917,0.691911 -1.089981,1.258021 -1.869077,1.258021 -0.779103,0 -2.433136,0.629842 -3.676127,1.39983 -2.113543,1.309257 -2.318005,1.320902 -3.152345,0.179717 -0.827134,-1.131328 -1.007522,-1.103383 -2.4810764,0.377688 -0.874164,0.878617 -1.363556,1.827712 -1.087538,2.108871 0.276017,0.281157 0.854528,0.151699 1.286024,-0.287829 0.570377,-0.581006 1.1230174,-0.584036 2.0234554,-0.01123 0.965923,0.61446 1.808389,0.444473 3.830506,-0.770819 3.570265,-2.145733 4.0346,-1.904289 1.156457,0.602334 -2.010924,1.751346 -2.217314,2.179822 -1.235025,2.56378 0.648656,0.253548 1.17989,1.073988 1.17989,1.822447 0,1.452597 -1.042361,1.831554 -1.764321,0.641646 -0.41549,-0.684795 -3.175777,-1.048479 -3.175777,-0.418404 0,0.165354 -0.218444,0.89321 -0.485188,1.617456 -0.431221,1.170794 -0.350609,1.204364 0.734674,0.304677 0.924553,-0.766444 1.419821,-0.810036 2.038618,-0.179717 1.338745,1.363674 3.357722,0.999985 3.357722,-0.605143 0,-1.366318 0.892796,-1.747502 3.528641,-1.506537 0.582226,0.05322 1.482301,-0.879939 2.000023,-2.073769 1.081501,-2.493863 2.234347,-2.854546 2.234347,-0.699213 0,0.907412 -0.846058,1.940444 -2.206779,2.695761 -3.474541,1.928661 -6.05832,4.308371 -6.485257,5.97139 -0.382258,1.488973 -0.343501,1.484443 1.498294,-0.171293 1.788111,-1.607486 1.817991,-1.612485 0.55135,-0.08283 -1.554535,1.877313 -0.778594,2.175194 1.116484,0.428233 1.564275,-1.442009 1.639471,-2.221877 0.242594,-2.531488 -0.624421,-0.138396 0.08934,-0.862603 1.764321,-1.790153 1.547133,-0.856754 2.813264,-1.307945 2.813264,-1.001082 0,1.289953 -5.830671,7.192653 -6.930471,7.015997 -0.652072,-0.104745 -2.427694,-1.053879 -3.944911,-2.10887 -2.838305,-1.973613 -3.2961374,-1.938639 -6.3239864,0.477374 -1.532158,1.222553 -2.386883,8.6161 -1.090296,9.432354 0.855611,0.538643 2.410779,-0.745461 2.410779,-1.990932 0,-0.441501 0.476366,-0.93466 1.058592,-1.096556 0.9409694,-0.261647 0.9409694,-0.210312 0,0.467546 -0.913487,0.658052 -0.889302,0.764137 0.176432,0.773627 1.5814454,0.01409 1.5705354,0.103469 -0.529296,4.324448 -0.970376,1.950602 -1.764321,3.825878 -1.764321,4.167197 0,0.341326 1.190917,0.553304 2.646481,0.470354 5.1500524,-0.2935 8.3803264,1.08887 8.0276594,3.43569 -0.143298,0.953581 2.826264,8.080253 3.849803,9.238596 0.552381,0.625151 0.826508,1.317512 0.609242,1.538831 -0.496903,0.506148 3.074859,3.123307 6.166852,4.51961 3.027934,1.367376 13.824729,0.733084 17.867881,-1.050222 3.308172,-1.459134 7.567065,-4.944248 7.061418,-5.777634 -0.491413,-0.809929 5.982069,-8.007566 6.760932,-7.51724 0.349505,0.220024 1.700306,-0.427397 3.000723,-1.437738 2.847353,-2.212228 4.694929,-2.31703 6.916689,-0.394537 l 1.666455,1.441952 -2.038617,-0.744142 c -2.752516,-1.003046 -3.173476,-0.348473 -0.635431,0.988445 2.382348,1.254902 3.954635,4.284283 3.361858,6.479653 -0.354445,1.312663 -0.14557,1.232374 1.447294,-0.551787 1.559554,-1.746839 1.787153,-2.50685 1.399052,-4.672652 -1.012149,-5.64828 -4.195763,-8.217858 -10.182061,-8.217858 -5.951801,0 -10.207572,2.28708 -12.37919,6.652351 -1.964945,3.949849 -3.541406,5.559856 -4.268829,4.360954 -0.30131,-0.49661 -1.537432,0.365783 -3.27502,2.282972 -1.966752,2.170059 -2.95267,2.815928 -3.335669,2.184689 -0.426838,-0.703507 -1.106889,-0.656811 -3.16475,0.219031 -1.976293,0.84112 -2.917658,0.920164 -3.829127,0.321525 -1.138332,-0.747711 -1.138095,-0.771269 0.0069,-0.40998 0.950122,0.299805 1.381692,-0.276886 1.977969,-2.641003 1.124437,-4.458162 1.275696,-4.699253 1.337024,-2.127123 0.03064,1.284979 0.366499,2.336325 0.745701,2.336325 1.178989,0 3.022149,-3.523277 2.634076,-5.034894 -0.23179,-0.902842 -0.09136,-1.262126 0.379053,-0.965981 0.440537,0.27734 0.542924,0.130147 0.246729,-0.35803 -0.965013,-1.590499 -1.831861,-0.812316 -1.831861,1.644133 0,1.360489 -0.239345,2.623809 -0.532053,2.808084 -0.292707,0.184274 -0.530707,-0.655375 -0.529296,-1.865973 0.0049,-3.719911 -1.556109,-3.067344 -2.760886,1.154123 -0.978182,3.427491 -1.332182,3.905873 -2.77467,3.74458 -0.909556,-0.101709 -2.062572,-0.441581 -2.561021,-0.755375 -0.602727,-0.379441 -0.79985,-0.235923 -0.589945,0.428234 0.173595,0.549259 1.472016,1.63986 2.88494,2.424779 2.149987,1.194373 2.91257,1.294899 4.680963,0.614971 1.41785,-0.545141 2.192138,-0.569845 2.354265,-0.07441 0.330147,1.008882 4.406102,-1.198581 5.707853,-3.091702 0.736915,-1.071683 1.121856,-1.224903 1.364591,-0.543364 0.445075,1.249676 5.06085,-3.168856 6.176501,-5.91242 0.447432,-1.100309 1.747346,-2.394331 2.887697,-2.875478 1.140358,-0.481147 2.345327,-1.371028 2.678184,-1.97689 0.41381,-0.753204 1.987367,-1.184189 4.975935,-1.361922 2.860394,-0.170114 4.216414,-0.0056 3.924235,0.475971 -0.264528,0.435994 0.217486,0.663258 1.182647,0.557404 1.042043,-0.114278 1.558948,0.164594 1.434888,0.773627 -0.106649,0.523632 0.09556,0.770304 0.44935,0.547577 0.353789,-0.222728 1.024719,0.06324 1.491403,0.63603 0.701395,0.860861 0.592314,0.990654 -0.628539,0.751162 -2.352835,-0.461549 -3.174903,-1.180645 -2.11305,-1.849122 0.506452,-0.31884 -0.491305,-0.396669 -2.217806,-0.172697 -1.726508,0.223963 -3.579414,0.762782 -4.117207,1.197647 -0.537801,0.434867 -1.490534,0.795957 -2.117185,0.801708 -0.626659,0.006 -1.064135,0.40455 -0.971755,0.884546 0.103368,0.537047 -0.278779,0.697901 -0.993809,0.418405 -0.972515,-0.380138 -0.826131,-0.726888 0.891809,-2.127124 1.128918,-0.920138 2.528768,-1.70078 3.110993,-1.733991 0.768637,-0.0438 0.808186,-0.1628 0.14473,-0.433849 -1.253811,-0.512252 -5.539174,2.592165 -6.618959,4.794803 -0.486021,0.991429 -2.324438,3.569216 -4.085505,5.728491 -1.761067,2.159273 -3.115651,4.205052 -3.008994,4.546278 0.10665,0.341226 -0.178776,0.385766 -0.635431,0.09829 -0.467065,-0.294039 -1.246959,0.05744 -1.782239,0.803112 -0.523347,0.72907 -0.95108,1.052006 -0.95108,0.717466 0,-0.334534 -0.611526,-0.04621 -1.3577,0.641646 -1.859606,1.714244 -6.280525,2.194459 -10.566624,1.147095 -8.899554,-2.174727 -14.061963,-10.30604 -11.111095,-17.499982 1.108833,-2.70323 6.309081,-5.796916 14.103538,-8.390554 12.606064,-4.194718 15.761809,-15.507075 6.164095,-22.095408 -1.980916,-1.359798 -3.28329,-1.625792 -7.74647,-1.58376 -3.652905,0.0344 -4.914199,0.24767 -3.95318,0.668325 1.010553,0.442335 1.097797,0.63215 0.310134,0.668324 -0.605077,0.02779 -1.716599,-0.410566 -2.470049,-0.974406 -1.002536,-0.750242 -1.08484,-1.008564 -0.310134,-0.964577 0.582226,0.03307 1.950374,0.009 3.040696,-0.05335 2.498814,-0.142746 1.796184,-1.542797 -0.789809,-1.573931 -1.721215,-0.02072 -1.783431,-0.112073 -0.674026,-0.970193 1.410264,-1.090837 0.935867,-1.992572 -0.709863,-1.349284 -0.799442,0.312485 -0.994333,0.119782 -0.690566,-0.686577 0.311268,-0.826249 0.07849,-1.030622 -0.886296,-0.773627 -0.768601,0.204737 -1.153117,0.765125 -0.930403,1.356305 0.223264,0.592664 -0.06426,1.008102 -0.697458,1.008102 -0.592007,0 -1.657042,0.227778 -2.368049,0.505455 -0.825561,0.322413 -0.328269,-0.644803 1.376997,-2.6747 1.468649,-1.748238 3.082255,-4.61975 3.586533,-6.381371 1.055621,-3.687698 2.264823,-2.866248 1.54378,1.048819 -0.250138,1.358169 -0.178187,2.46971 0.159892,2.46971 0.84235,0 3.263951,-2.781738 4.693368,-5.391521 l 1.181268,-2.156609 -0.343215,4.182642 c -0.309723,3.769713 -0.232455,4.089065 0.784295,3.234912 1.007547,-0.846417 1.036854,-0.774854 0.281189,0.669729 -0.825716,1.578479 -0.758626,1.617455 2.749859,1.617455 1.977316,0 3.416581,0.293215 3.199209,0.651476 -0.217371,0.358258 -0.993617,0.491269 -1.725726,0.296253 -2.43724,-0.649222 -2.248385,1.079464 0.208135,1.905286 3.114901,1.047151 8.767515,6.113641 9.319196,8.352644 0.235023,0.953825 0.709761,1.733992 1.055836,1.733992 0.892499,0 0.806921,-0.415287 -0.781539,-3.764237 -1.70813,-3.601254 -1.701674,-3.424457 -0.141973,-3.424457 2.896254,0 3.872219,-3.391052 1.830483,-6.360311 -0.62344,-0.906667 -2.449512,-2.637668 -4.057937,-3.847077 l -2.923535,-2.200134 7.763011,0.449293 c 18.012761,1.042503 25.213151,5.019435 30.861828,17.043666 2.538801,5.404308 6.73142,11.853497 7.317796,11.256204 C 92.978666,49.01746 92.04732,47.242751 90.732527,45.252598 89.417734,43.262444 87.143232,39.165114 85.679403,36.147386 80.228612,24.91043 72.383913,20.762047 55.328953,20.097782 43.20723,19.62566 42.35987,19.843071 46.944294,22.255795 c 3.642991,1.917261 7.326066,5.603567 7.326066,7.331907 0,2.674557 -5.02013,3.275809 -8.704441,1.043203 -2.241026,-1.358008 -1.181358,-2.283242 1.470726,-1.284698 2.348699,0.884315 1.962602,-0.570114 -0.494837,-1.864568 -1.145178,-0.60322 -3.339907,-1.096557 -4.87807,-1.096557 h -2.796724 l 0.788431,-2.128527 c 0.845956,-2.282931 0.143101,-3.917251 -0.930404,-2.163629 -0.432294,0.706169 -0.516749,0.221367 -0.256377,-1.4588 0.214449,-1.383824 0.01983,-3.486517 -0.431432,-4.672652 z m 31.621312,12.934035 c -0.24251,0.02178 0.441069,0.72679 2.212293,2.487962 4.184488,4.160743 6.196028,7.473127 8.223388,13.544793 0.957243,2.866822 2.439497,6.212973 3.294318,7.435805 l 1.554807,2.224003 -1.611321,-0.87893 C 79.186844,49.739883 74.560039,44.160741 72.481458,39.456713 70.022736,33.892392 67.569255,30.34735 65.356635,29.165086 c -1.483808,-0.792841 -1.503694,-0.766007 -0.409378,0.530728 1.767758,2.094736 3.436383,5.761533 5.63342,12.382245 1.10333,3.324879 2.251397,6.427039 2.551374,6.892441 0.299977,0.465411 -0.04709,0.183187 -0.770512,-0.626202 -0.723421,-0.80939 -2.516016,-3.89762 -3.984883,-6.862956 -1.468868,-2.965337 -3.497335,-6.175416 -4.507288,-7.133937 -1.781449,-1.690725 -2.690924,-1.21203 -0.989674,0.520899 1.040314,1.059686 0.236817,1.118688 -1.598916,0.117939 -0.822815,-0.448555 -1.364592,-0.472822 -1.364592,-0.06037 0,0.376342 0.396972,0.847993 0.882161,1.047416 0.485188,0.199424 -0.456397,0.388595 -2.092374,0.419809 -3.129404,0.05971 -4.850135,1.716246 -4.033127,3.884984 0.21915,0.581717 0.06037,1.270797 -0.354243,1.531809 -0.998259,0.628457 -0.96602,1.828062 0.04962,1.828062 0.442393,0 1.210183,0.565325 1.70643,1.256618 1.2989,1.809408 2.14871,0.492325 1.248808,-1.936173 -0.611098,-1.64914 -0.546903,-2.283296 0.318404,-3.164711 0.972557,-0.990673 1.358887,-0.958557 3.819479,0.320122 1.506017,0.782615 2.589322,1.668786 2.406644,1.969871 -0.182678,0.301083 0.28259,0.938816 1.033782,1.416677 0.751198,0.477869 1.365969,0.614027 1.365969,0.303274 0,-1.386937 -2.250784,-3.603365 -4.890476,-4.815864 -2.804126,-1.288036 -2.913382,-1.286127 -4.368072,0.04773 -1.469531,1.347475 -1.488438,1.346023 -1.226754,-0.0702 0.345609,-1.870373 2.826297,-2.207775 5.656853,-0.769415 2.63555,1.339267 2.949448,1.385217 2.314292,0.338374 -0.34551,-0.569452 -0.08793,-0.57721 0.919377,-0.02808 0.769152,0.419305 2.314895,2.625149 3.43629,4.902914 2.332382,4.737472 7.206999,10.293032 9.031116,10.293032 0.981386,0 0.745873,-0.581943 -1.149565,-2.837569 -1.311427,-1.560637 -2.947056,-4.552931 -3.633397,-6.649542 -0.686335,-2.096613 -1.406956,-4.297212 -1.601673,-4.890279 -0.194725,-0.593067 0.619483,0.700897 1.809807,2.875478 2.47086,4.513939 6.582928,8.583691 11.698273,11.579134 4.962427,2.905901 5.348891,2.591267 1.561699,-1.266446 -2.471721,-2.517747 -3.657842,-4.518806 -4.796746,-8.087281 -0.83235,-2.607958 -2.249437,-6.116288 -3.14821,-7.796646 -0.898773,-1.680356 -1.524312,-3.055195 -1.390781,-3.055195 0.133524,0 2.681773,2.992294 5.662367,6.649543 5.629248,6.907201 10.376757,11.322194 12.176569,11.322194 0.846041,0 0.879276,-0.20385 0.173675,-1.069879 C 94.022721,49.886923 93.416178,49.53997 93.154332,49.704814 92.357127,50.206686 87.913027,45.785767 82.258274,38.865611 76.470998,31.783276 73.703008,29.132222 70.240218,27.356679 69.462729,26.958024 68.983916,26.725835 68.838409,26.738901 Z m -41.385724,3.959398 c 1.359931,0 0.687662,2.787477 -1.235025,5.120541 -1.526575,1.852401 -1.65768,2.244868 -0.614755,1.839295 3.135128,-1.219184 7.43012,-2.020237 9.669304,-1.80279 l 2.413535,0.234476 -2.318427,0.869101 c -1.813228,0.680452 -2.208394,0.680452 -1.818077,0 0.274408,-0.478375 -0.394175,0.0205 -1.484511,1.107789 -2.233855,2.227598 -6.288467,2.749142 -6.985607,0.898587 -0.590426,-1.567273 -1.826537,-1.32615 -3.687154,0.71887 -0.900192,0.989407 -2.425243,1.797174 -3.392182,1.797174 -2.074376,0 -3.005759,-1.103217 -1.445916,-1.712932 0.62488,-0.244241 0.907141,-0.123314 0.660242,0.283616 -0.686342,1.131206 0.800219,0.822212 1.769834,-0.367858 0.483205,-0.593068 0.658116,-1.078304 0.39008,-1.078304 -0.268028,0 0.09101,-0.890714 0.796701,-1.9797 0.705693,-1.088986 1.61533,-2.595057 2.022077,-3.345832 0.406746,-0.750774 1.518268,-1.656222 2.470049,-2.013396 1.327362,-0.498117 1.538558,-0.453199 0.904214,0.196566 -0.454863,0.465912 -0.671261,1.261389 -0.481053,1.766285 0.190208,0.504896 0.0091,1.128977 -0.401107,1.387193 -0.463537,0.291817 -0.593326,-0.02042 -0.343216,-0.825576 0.359456,-1.157125 0.28309,-1.146821 -0.713998,0.09969 -1.256719,1.571079 -1.434948,2.558164 -0.461756,2.558164 0.90257,0 3.58102,-3.567004 3.58102,-4.769531 0,-0.539746 0.317577,-0.981424 0.705728,-0.981424 z m 11.291652,3.687015 c 0.319783,0 0.639566,0.05052 0.88216,0.150232 0.485188,0.199423 0.08822,0.362243 -0.88216,0.362243 -0.970377,0 -1.367349,-0.16282 -0.882161,-0.362243 0.242594,-0.09971 0.562378,-0.150232 0.882161,-0.150232 z m 2.5114,0.651475 c 0.411002,-0.01401 1.363735,0.450073 2.117184,1.030567 1.742429,1.342443 1.186094,1.353612 -1.099943,0.02246 -0.970398,-0.565047 -1.428243,-1.03902 -1.017241,-1.053031 z m -19.898228,0.942112 c -0.106969,-0.0165 -0.180072,0.246013 -0.201244,0.769415 -0.03065,0.757807 0.136277,1.18239 0.370784,0.943516 0.234541,-0.238875 0.258998,-0.858432 0.05514,-1.377365 -0.08448,-0.21505 -0.160494,-0.325667 -0.224675,-0.335566 z m 17.065666,0.01544 c 0.727211,-0.07682 2.356329,0.391253 3.762966,1.161143 0.535033,0.292839 0.693821,0.684301 0.352864,0.870506 -0.838724,0.458045 -4.500397,-0.976657 -4.500397,-1.763477 0,-0.155638 0.142164,-0.242564 0.384567,-0.268172 z m -2.041374,1.780325 c 3.376421,-0.03871 5.824342,1.352645 6.347419,3.658934 0.230159,1.01477 0.935885,2.278341 1.568591,2.808084 1.038952,0.869882 1.01423,0.937748 -0.260513,0.695001 -0.923262,-0.175807 -1.807358,0.3613 -2.555507,1.55287 -1.047365,1.668172 -1.049541,1.942171 -0.0193,3.258781 0.691719,0.883993 0.738964,1.091646 0.121297,0.539151 -1.134106,-1.014446 -4.145409,-1.173098 -5.510746,-0.290636 -0.512704,0.3314 -0.718903,1.184579 -0.475539,1.965659 0.393662,1.26347 0.362995,1.273723 -0.363891,0.122151 -0.854594,-1.353889 -3.271443,-1.640451 -4.91253,-0.582677 -0.839704,0.541238 -0.856074,0.846889 -0.09097,1.785942 0.507758,0.623202 0.681794,1.133061 0.385945,1.133061 -0.295848,0 -0.904089,-0.509354 -1.350807,-1.131657 -0.688685,-0.959367 -1.108588,-0.992656 -2.7664,-0.223243 -1.60441,0.744642 -1.883139,1.236596 -1.549294,2.747709 0.395786,1.791481 0.376417,1.803069 -0.708485,0.404364 -1.109384,-1.430269 -1.122234,-1.429259 -2.430076,0.195163 -0.761516,0.945845 -1.49985,1.326459 -1.756051,0.904203 -0.277569,-0.457482 -1.47928,-0.19064 -3.226776,0.717465 l -2.784319,1.447568 v -1.753646 c 0,-2.860605 0.662578,-3.860522 4.343261,-6.554068 1.924768,-1.40856 4.152628,-3.688634 4.951125,-5.067188 1.450652,-2.504454 3.875275,-4.391165 4.64099,-3.611196 0.22306,0.227221 -0.350498,1.081341 -1.273619,1.896862 -1.404103,1.240452 -1.508978,1.591263 -0.642323,2.149587 0.569777,0.367062 1.394197,0.672401 1.831861,0.678152 0.437658,0.006 1.191521,0.49647 1.674727,1.089537 1.233535,1.513989 2.117184,1.34143 2.117184,-0.414191 0,-0.821173 0.913165,-2.42408 2.030347,-3.562056 1.117174,-1.137978 1.858651,-2.245854 1.647158,-2.461285 -0.211492,-0.215431 -0.01451,-0.391727 0.438324,-0.391727 1.155192,0 1.024501,-1.129881 -0.285324,-2.464094 -1.008182,-1.026957 -0.992141,-1.13847 0.176432,-1.215901 0.233051,-0.01544 0.462715,-0.0241 0.687809,-0.02668 z m 7.787821,0.99687 c 0.961369,-0.09193 2.195378,1.318595 2.654752,3.182963 0.51907,2.106669 0.448595,2.2337 -1.054458,1.887032 -1.337715,-0.308531 -2.960274,-4.326346 -1.99313,-4.935207 0.123132,-0.07752 0.255498,-0.121656 0.392836,-0.134788 z m -10.646571,0.800308 c 0.547708,0.0086 1.011456,0.164805 1.477618,0.46895 1.134162,0.739956 1.13944,0.788564 0.04824,0.443677 -0.794749,-0.251192 -1.51675,0.170636 -2.059293,1.203265 -0.459662,0.87488 -0.795384,1.665837 -0.745701,1.75786 0.04967,0.09202 -0.292975,1.096495 -0.762242,2.231023 -0.742899,1.796073 -1.05851,1.96853 -2.441103,1.339456 -0.873338,-0.397363 -1.587888,-1.176607 -1.587888,-1.732589 0,-0.555973 0.281613,-0.834445 0.625782,-0.617778 0.34417,0.216675 0.982811,-0.04501 1.419727,-0.581273 1.378252,-1.691608 -0.981368,-3.056237 -3.565857,-2.062538 -1.813934,0.697434 -1.992769,0.666186 -1.268106,-0.223243 0.464144,-0.569663 1.710155,-1.036183 2.769156,-1.036183 1.059009,0 2.908517,-0.349683 4.110316,-0.776434 0.800522,-0.284258 1.431639,-0.422792 1.979348,-0.414193 z m 27.892806,1.368941 c -0.276581,-0.02494 -0.518753,0.02015 -0.662999,0.167081 -0.204739,0.208555 0.316694,1.126548 1.159214,2.040073 0.842527,0.913525 1.532754,2.063165 1.532754,2.553952 0,0.490794 -0.784156,-0.0153 -1.742267,-1.124638 -2.166621,-2.508595 -2.248113,-1.522131 -0.424539,5.176703 0.749539,2.753399 1.252825,5.117845 1.117862,5.25533 -0.134971,0.137476 -0.98682,-0.503954 -1.892509,-1.426507 -0.905682,-0.922547 -1.846101,-1.609346 -2.090996,-1.526194 -0.244895,0.08315 -1.009559,-0.482959 -1.698159,-1.258022 -1.827921,-2.05744 -2.44386,-1.742933 -2.44386,1.249597 0,2.083637 -0.185804,2.471395 -0.855971,1.78875 -0.670174,-0.682653 -1.446904,-0.207134 -3.585154,2.193114 l -2.729184,3.063618 1.46797,-2.600285 c 0.807317,-1.430492 1.467969,-2.786355 1.467969,-3.011669 0,-0.225315 -2.058864,0.865008 -4.574828,2.421971 -2.515964,1.556964 -4.95262,2.830549 -5.414258,2.830549 -0.461638,0 -1.438793,0.55375 -2.17232,1.229941 -1.136025,1.047227 -1.427275,1.076077 -1.96005,0.19797 -0.52274,-0.861557 -0.891363,-0.783604 -2.249509,0.47597 -0.893783,0.828921 -2.022077,1.359709 -2.507265,1.179395 -1.006587,-0.374078 -1.073049,-0.111657 -0.412134,1.642729 0.414996,1.101603 0.665728,1.019633 2.117185,-0.699212 0.905548,-1.072366 1.647158,-1.571332 1.647158,-1.10779 0,0.543782 0.563369,0.664275 1.587889,0.339778 0.873338,-0.276606 2.595463,-0.467224 3.827748,-0.42402 1.23228,0.04319 2.434201,-0.239115 2.669914,-0.627607 0.235713,-0.388477 0.865664,-0.536174 1.400429,-0.327141 1.386615,0.541998 5.116213,-1.591934 6.475608,-3.705267 0.862386,-1.34067 1.382712,-1.601139 2.059294,-1.029163 0.673144,0.569057 1.194988,0.346554 2.028969,-0.866294 0.617194,-0.897573 1.121997,-2.094291 1.121997,-2.660659 0,-0.835471 0.243084,-0.805173 1.290159,0.16006 0.709829,0.654352 1.640473,1.189224 2.068942,1.189224 0.428469,0 0.970234,0.612446 1.203322,1.360517 0.43964,1.410982 2.947937,2.511701 3.531398,1.550063 0.182974,-0.301581 -0.286913,-2.756523 -1.044808,-5.456108 -0.757903,-2.699584 -1.240644,-5.048828 -1.072377,-5.220228 0.168267,-0.1714 0.51409,0.536023 0.769134,1.571123 0.255043,1.0351 0.746976,1.881416 1.093051,1.881416 0.873939,0 0.793712,-5.562198 -0.08822,-6.117411 -0.39446,-0.248347 -0.555181,-0.719385 -0.356999,-1.04601 0.304801,-0.50237 -0.829821,-1.209887 -1.659564,-1.284699 z m -15.382671,4.610874 c 1.56411,0.04154 1.628958,1.426484 0.08132,3.677185 -1.332987,1.938539 -1.868373,1.984198 -3.374263,0.289233 -1.468649,-1.653061 -0.338856,-3.392949 2.532075,-3.900428 0.284357,-0.05026 0.537419,-0.07193 0.760863,-0.06599 z m -35.880492,2.516043 c 0.668962,-0.0055 1.332342,0.399132 2.369427,1.211688 1.500986,1.176027 1.586568,1.551035 0.91662,4.02258 -0.794205,2.92994 -0.357575,6.869977 0.760864,6.869977 0.376781,0 1.55264,-0.522865 2.613399,-1.161142 1.78171,-1.072109 2.10337,-1.067696 4.231613,0.05335 2.365982,1.246283 4.212381,0.846274 1.976591,-0.428233 -0.684196,-0.39003 -1.061912,-1.009273 -0.839431,-1.375961 0.226221,-0.372849 1.178714,-0.148937 2.161293,0.506859 l 1.75605,1.172375 -2.148887,1.874397 c -1.182398,1.031009 -2.723563,3.101136 -3.423885,4.59964 -1.26842,2.714107 -1.27825,2.71893 -2.576183,1.258022 -0.716611,-0.806593 -1.778932,-1.467224 -2.361158,-1.467224 -0.868053,0 -0.828273,-0.258786 0.219161,-1.437739 1.443843,-1.625134 0.987501,-1.83659 -1.281889,-0.593909 -1.805182,0.988481 -6.1282574,1.275796 -6.1282574,0.407172 0,-0.328912 0.793944,-2.11665 1.7643204,-3.973439 0.970377,-1.85679 1.764321,-3.792021 1.764321,-4.299176 0,-1.396368 -3.4840364,-2.537839 -4.6740714,-1.53181 -0.676017,0.571508 -0.971755,0.583896 -0.971755,0.04071 0,-1.040147 2.331334,-2.265627 4.3639374,-2.292801 1.310728,-0.01753 1.418503,-0.149865 0.544458,-0.671131 -0.599389,-0.35748 -2.0024814,-0.547341 -3.1178854,-0.422617 l -2.02759,0.226051 1.706429,-1.336648 c 1.059838,-0.829895 1.733547,-1.24547 2.4025084,-1.251001 z m 29.21329,2.391084 c 0.542044,0.0023 0.984581,0.107347 1.124755,0.338373 0.249651,0.41146 1.149591,0.761305 2.000022,0.77784 1.28655,0.02507 1.131696,0.262123 -0.923512,1.408253 -1.358527,0.757609 -2.632059,1.391721 -2.829804,1.408254 -0.451603,0.03785 -2.289465,-2.914009 -1.983483,-3.185771 0.527056,-0.468109 1.708615,-0.750941 2.612022,-0.746949 z m -6.82158,1.465819 c 0.647418,-0.02886 1.423988,0.300668 2.099266,1.038992 0.732835,0.801251 1.71741,1.48012 2.187481,1.50794 0.470065,0.02779 0.219438,0.328521 -0.556863,0.668324 -1.94661,0.852069 -3.014969,0.849017 -3.536911,-0.01124 -0.243801,-0.401833 -0.671705,-0.586728 -0.952458,-0.40998 -0.280753,0.176749 -0.555183,-0.276688 -0.609242,-1.008103 -0.0827,-1.118297 0.536333,-1.748839 1.368727,-1.785941 z m -5.061395,1.850527 c 0.675144,-0.04778 1.352696,0.366253 2.583076,1.352093 l 1.778104,1.425102 -1.888374,0.731506 h -0.0014 c -2.561109,0.991867 -2.731866,0.95512 -3.80983,-0.803112 -0.784065,-1.279494 -0.783129,-1.635338 0.0069,-2.145376 0.521674,-0.336795 0.926424,-0.531541 1.331511,-0.560213 z m 19.08223,2.802468 c 0.392611,0 0.143272,0.798273 -0.554107,1.773305 -0.697387,0.975039 -1.585683,1.665473 -1.973834,1.534618 -0.38815,-0.130849 -1.255063,0.04905 -1.92559,0.400151 -0.957532,0.501376 -1.125402,0.391587 -0.784295,-0.513879 0.263737,-0.700078 0.953808,-1.014369 1.757428,-0.800304 0.831623,0.221528 1.590848,-0.157993 2.044131,-1.020738 0.396732,-0.755094 1.04365,-1.373153 1.436267,-1.373153 z m -18.053962,2.796852 -1.411456,1.169567 c -0.776301,0.643848 -2.046612,1.488985 -2.822913,1.877204 l -1.411457,0.704828 1.411457,-1.169567 c 0.776301,-0.643848 2.046612,-1.488985 2.822913,-1.877204 z m 11.333003,0.07863 c 0.171167,0 0.311513,0.32349 0.311513,0.718869 0,0.395378 -0.337399,0.718869 -0.748458,0.718869 -0.411058,0 -0.550025,-0.323491 -0.310134,-0.718869 0.239891,-0.395379 0.575912,-0.718869 0.747079,-0.718869 z m 1.079268,3.694034 c -0.714149,0.01481 -1.642286,0.255653 -3.061372,0.657092 -2.350533,0.664932 -2.64791,1.005935 -2.657508,3.050982 -0.01788,3.809196 -0.824771,4.4354 -3.542424,2.751923 -1.290509,-0.799419 -2.606376,-1.288662 -2.924913,-1.088132 -0.90305,0.568511 -0.685222,-0.325638 0.545837,-2.239448 1.669894,-2.596046 0.860279,-3.658013 -0.919377,-1.206071 -1.772084,2.441503 -1.492611,5.447461 0.447972,4.820075 0.651507,-0.210628 1.803703,0.093 2.559643,0.675345 2.876203,2.215713 4.550018,1.045668 4.550018,-3.180155 0,-1.740491 0.373691,-2.106523 2.788453,-2.730862 2.357005,-0.609414 2.966463,-0.522476 3.92837,0.560213 0.861892,0.970114 0.928787,1.412145 0.277054,1.822446 -0.549699,0.346057 -0.678586,0.242201 -0.357,-0.287828 0.336174,-0.554069 -0.155544,-0.819498 -1.478996,-0.800304 l -1.982104,0.02808 2.002779,1.106384 c 1.563478,0.86306 1.914506,1.464026 1.600294,2.739287 -0.221479,0.898737 -0.19657,1.844062 0.05514,2.100447 1.540661,1.569356 2.19334,-0.722334 0.904214,-3.175944 -0.811524,-1.544585 -0.02064,-1.867339 1.294295,-0.52792 1.674326,1.705499 0.871517,-0.722524 -0.980025,-2.963937 -1.266937,-1.533703 -1.860096,-2.136358 -3.050345,-2.11168 z m -18.042934,0.975809 c 0.02923,0.02131 -0.0094,0.139843 -0.126811,0.362242 -0.312984,0.593068 -0.76835,2.695761 -1.011727,4.672652 l -0.44246,3.594347 -0.09924,-3.277033 c -0.06194,-2.042977 0.319197,-3.802769 1.011728,-4.672651 0.381892,-0.479676 0.619788,-0.715087 0.668513,-0.679557 z m 49.472652,4.984349 c 0.124377,-0.01128 0.319102,0.03355 0.581675,0.136192 0.692072,0.270518 1.095808,1.325804 1.095808,2.867054 0,1.341517 -0.158789,2.43882 -0.352864,2.43882 -0.378305,0 -0.444408,-0.247133 -0.694701,-2.597478 -0.08901,-0.835836 -0.383585,-1.88469 -0.65335,-2.329304 -0.195981,-0.323007 -0.183862,-0.496497 0.02343,-0.515284 z m -53.064699,0.620587 c 0.205523,-0.0186 0.522132,0.483076 0.753971,1.227132 0.264959,0.850351 0.322264,1.707596 0.128189,1.905285 -0.194075,0.197689 -0.568959,-0.336065 -0.833917,-1.186415 -0.264959,-0.850351 -0.323642,-1.707596 -0.129567,-1.905285 0.02426,-0.02471 0.05196,-0.03805 0.08132,-0.04071 z m 1.370105,4.821479 c 0.190554,0 1.024755,0.970474 1.853915,2.156609 1.644424,2.352384 1.559582,2.910278 -0.136459,0.898587 -1.346388,-1.596969 -2.165897,-3.055196 -1.717456,-3.055196 z m 3.444561,5.032087 c 0.582226,0 1.45479,0.485236 1.937995,1.078304 0.714529,0.876984 0.680386,1.078303 -0.180567,1.078303 -0.582226,0 -1.453413,-0.485236 -1.936618,-1.078303 -0.714528,-0.876985 -0.681763,-1.078304 0.17919,-1.078304 z"
     style="fill:#000000;stroke-width:0.71226853"
     id="pathNG2" />
</svg>
