<?xml version="1.0" encoding="UTF-8" standalone="no"?>
<svg
   xmlns:dc="http://purl.org/dc/elements/1.1/"
   xmlns:cc="http://creativecommons.org/ns#"
   xmlns:rdf="http://www.w3.org/1999/02/22-rdf-syntax-ns#"
   xmlns:svg="http://www.w3.org/2000/svg"
   xmlns="http://www.w3.org/2000/svg"
   id="svgNG3"
   version="1.1"
   viewBox="0 0 100 100"
   height="100"
   width="100">
  <defs
     id="defs2" />
  <metadata
     id="metadata5">
    <rdf:RDF>
      <cc:Work
         rdf:about="">
        <dc:format>image/svg+xml</dc:format>
        <dc:type
           rdf:resource="http://purl.org/dc/dcmitype/StillImage" />
        <dc:title></dc:title>
      </cc:Work>
    </rdf:RDF>
  </metadata>
  <path
     id="pathNG3"
     d="m 45.173941,94.123253 c -3.25335,-1.14825 -7.24328,-5.29469 -8.37577,-8.70431 -0.89891,-2.706344 -0.9256,-8.336601 -0.0491,-10.3515 0.28696,-0.659654 0.0671,-1.002627 -0.87155,-1.359493 -2.15512,-0.81938 -3.42143,-2.941333 -3.42143,-5.733307 0,-1.538771 0.19566,-2.381333 0.50816,-2.188201 0.27949,0.172734 0.50816,-0.156778 0.50816,-0.73225 0,-0.575472 0.22867,-1.046314 0.50816,-1.046314 0.27949,0 0.50816,1.029026 0.50816,2.286725 0,1.430377 0.21409,2.239149 0.57168,2.159683 0.31443,-0.06987 0.6871,0.190631 0.82817,0.578897 0.1647,0.453325 0.0376,0.570675 -0.35512,0.327942 -0.4596,-0.284047 -0.45479,-0.126898 0.0194,0.632315 0.79568,1.274087 3.12029,2.667434 4.35001,2.607343 0.52257,-0.02556 0.23486,-0.249664 -0.6497,-0.506128 -0.87319,-0.253166 -1.90221,-0.847039 -2.28672,-1.319715 -0.62194,-0.764553 -0.58693,-0.816716 0.31721,-0.472544 0.55898,0.212783 1.13971,0.4271 1.29053,0.476264 0.15081,0.04914 1.2537,-0.747195 2.45088,-1.769686 l 2.17666,-1.859075 -0.83682,-1.618234 c -0.99625,-1.92653 -0.64798,-2.546263 0.73008,-1.299134 0.54452,0.492779 1.28911,0.776216 1.65465,0.629855 0.42063,-0.168424 0.32715,-0.28084 -0.25467,-0.306227 -0.56025,-0.02444 -0.77766,-0.26925 -0.55669,-0.626797 0.21641,-0.350158 0.14023,-0.44925 -0.18897,-0.245792 -0.30337,0.187486 -0.6952,0.108482 -0.87076,-0.175565 -0.18444,-0.298433 0.22977,-0.516449 0.98121,-0.516449 1.90831,0 2.07657,0.05222 1.92301,0.596749 -0.0768,0.272313 0.0947,0.350285 0.38112,0.173273 0.65319,-0.403689 0.66434,0.04482 0.0306,1.229002 -0.34102,0.637204 -0.8822,0.840946 -1.77857,0.669594 -1.1922,-0.227905 -1.70253,0.304978 -0.98205,1.025454 0.4112,0.411204 2.63414,-0.464028 3.57944,-1.409319 0.41814,-0.41815 1.29691,-0.76027 1.9528,-0.76027 0.65591,0 1.55426,-0.138799 1.99635,-0.308448 0.54926,-0.210765 0.81651,-0.0096 0.84393,0.635201 0.0304,0.71452 0.10816,0.758568 0.32038,0.181408 0.15415,-0.419233 0.57585,-1.10525 0.93709,-1.524483 0.53921,-0.62576 0.52354,-0.989715 -0.0875,-2.032644 -0.74108,-1.264849 -0.74289,-1.265128 -0.41461,-0.0634 0.22167,0.811442 0.14725,1.094228 -0.22706,0.862888 -0.36099,-0.223098 -0.43846,-0.03578 -0.2203,0.532746 0.25394,0.661757 0.13591,0.799891 -0.48115,0.563103 -0.4497,-0.172566 -0.92869,-0.04076 -1.06443,0.292899 -0.13573,0.333659 -0.26484,0.105636 -0.2869,-0.506718 -0.0221,-0.612355 0.18855,-1.2547 0.46803,-1.427435 0.69408,-0.428958 0.64207,-2.143987 -0.0785,-2.589329 -0.36204,-0.223754 -0.4488,-0.13949 -0.22658,0.220064 0.19806,0.320462 0.126,0.984638 -0.16011,1.475959 -0.45735,0.785347 -0.52208,0.792889 -0.53566,0.06237 -0.008,-0.457015 -0.37101,-1.600378 -0.80557,-2.540806 -0.50564,-1.094223 -0.6713,-1.252454 -0.46013,-0.439463 0.58307,2.24464 1.07069,6.04695 0.75009,5.848802 -0.17084,-0.105586 -0.62498,0.0025 -1.00919,0.239776 -0.93415,0.577337 -2.29098,-1.184767 -3.03239,-3.938136 -0.31592,-1.173237 -1.00894,-2.365718 -1.54005,-2.649959 -1.5603,-0.835045 -1.68733,-0.59843 -0.33639,0.626558 0.6935,0.628849 1.41044,1.886548 1.59319,2.794886 0.31343,1.557818 0.24927,1.651523 -1.13094,1.651523 -0.80478,0 -1.69391,-0.23068 -1.97585,-0.512618 -0.34471,-0.344711 -0.47855,0.154614 -0.4086,1.524484 0.0653,1.279077 -0.11788,2.0371 -0.49228,2.0371 -0.32795,0 -1.16011,0.394933 -1.84925,0.877625 -1.9921,1.395319 -2.48042,1.219627 -3.78931,-1.363345 l -1.23256,-2.432328 1.15645,-1.086428 c 0.63605,-0.597537 1.36062,-0.912835 1.61016,-0.700663 0.24954,0.212172 0.17147,0.01458 -0.1735,-0.439102 -0.34498,-0.453681 -0.50365,-1.146884 -0.35263,-1.540454 0.15619,-0.407017 -0.4974,-1.463835 -1.51572,-2.450821 -1.7793,-1.724576 -2.00523,-1.632112 -1.83454,0.750859 0.15653,2.185337 -0.86687,-0.575284 -1.97802,-5.335691 -2.16512,-9.27589 -1.79917,-18.556329 1.02987,-26.117608 0.98905,-2.643469 3.93149,-7.702908 4.27613,-7.352658 0.10051,0.10214 -0.41024,1.900756 -1.13499,3.99692 -1.18274,3.420783 -1.3176,4.56603 -1.31643,11.179549 10e-4,5.854238 0.24015,8.412006 1.16363,12.447369 1.30044,5.682627 4.16799,14.03307 4.48863,13.071131 0.11457,-0.34372 0.41746,-0.495685 0.67308,-0.337703 0.25561,0.157977 0.46475,0.05856 0.46475,-0.220928 0,-0.791222 -0.90491,-1.156448 -1.13738,-0.459053 -0.29611,0.888342 -3.29225,-8.764781 -4.16838,-13.429944 -2.20508,-11.741406 -1.09587,-21.982269 3.04128,-28.078703 1.65721,-2.442028 1.57603,-2.806553 -0.23799,-1.068621 -0.81737,0.783101 -1.42654,1.683405 -1.35368,2.00068 0.0728,0.317271 0.0279,0.379241 -0.10003,0.137717 -0.12786,-0.241529 -0.76818,0.215816 -1.42292,1.016322 -0.65474,0.800501 -1.19867,1.21078 -1.20872,0.911728 -0.0101,-0.299053 0.82538,-1.556752 1.85651,-2.794887 1.74328,-2.093237 1.7611,-2.146456 0.25408,-0.758638 -0.89138,0.820883 -1.6207,1.307396 -1.6207,1.081143 0,-0.226254 -0.35368,-0.117843 -0.78596,0.240914 -1.10424,0.916433 -3.11609,3.810598 -2.29702,3.304383 0.46123,-0.285053 0.59305,-0.193696 0.41754,0.289367 -0.14107,0.388266 -0.49828,0.653922 -0.7938,0.590351 -0.68067,-0.146426 -2.2563,2.396056 -3.59532,5.801533 -1.17948,2.99972 -3.06828,11.92654 -3.18999,15.076529 -0.0766,1.983514 -0.091,2.002307 -0.24971,0.326208 -0.0926,-0.97821 -0.41492,-2.976782 -0.71622,-4.441271 -0.46595,-2.264798 -0.3856,-3.288493 0.53767,-6.850301 2.7769,-10.712853 10.56167,-19.389525 20.20083,-22.515254 2.73744,-0.887681 3.34689,-1.8266 1.77857,-2.740071 -0.48911,-0.284874 -0.62878,-0.524909 -0.31038,-0.533411 0.31839,-0.0085 1.10406,0.409801 1.74593,0.929554 l 1.16704,0.945006 -1.29836,1.214678 c -5.60936,5.247809 -6.7223,6.586682 -8.60949,10.357165 -1.60753,3.211751 -1.9771,4.439555 -1.7597,5.846211 0.1918,1.24096 0.14409,1.4726 -0.15743,0.764294 -0.65583,-1.540653 -1.33187,3.989212 -1.27354,10.417307 0.0506,5.573231 1.06767,11.809703 2.78505,17.076731 0.94733,2.905365 1.09919,3.08843 2.39209,2.883652 0.7593,-0.120262 1.88726,-0.464571 2.50657,-0.765138 0.85255,-0.413755 1.34624,-0.375725 2.03265,0.156559 0.85523,0.663206 0.85918,0.645949 0.0698,-0.304521 -0.46024,-0.554164 -0.94823,-1.464911 -1.08441,-2.023888 -0.22925,-0.941008 -0.25196,-0.933817 -0.30654,0.09705 -0.0919,1.735066 -0.79425,1.776369 -2.36299,0.138962 -0.79378,-0.828531 -1.73542,-1.506413 -2.09252,-1.506413 -0.35711,0 -0.86015,-0.400177 -1.11786,-0.889282 -0.87933,-1.668872 -2.04896,-8.582611 -2.34937,-13.887248 l -0.29991,-5.295831 1.2084,3.048966 c 0.66462,1.676932 2.15845,4.64604 3.31961,6.598029 1.62216,2.72695 2.11538,4.08063 2.12921,5.843852 0.0153,1.948096 1.43667,5.982326 1.48847,4.224653 0.01,-0.336011 0.59316,-0.07791 1.29612,0.573572 0.89142,0.826147 1.16964,1.467162 0.91959,2.118772 -0.31959,0.832835 -0.26973,0.853319 0.45927,0.188675 0.74432,-0.678608 0.67729,-0.892204 -0.74603,-2.377345 -0.8601,-0.897464 -1.7323,-1.527629 -1.93821,-1.400365 -0.20592,0.127264 -0.51269,-0.129007 -0.68173,-0.569496 -0.4424,-1.152891 -0.37948,-7.831946 0.0738,-7.832357 0.20961,-1.93e-4 0.38541,-1.127665 0.39063,-2.505493 0.007,-1.966888 -0.12901,-2.390176 -0.6352,-1.970075 -0.83349,0.691735 -0.81323,0.273122 0.0916,-1.892422 0.74537,-1.783919 0.47952,-2.266647 -0.63468,-1.152448 -1.02224,1.022237 -0.70605,-0.350367 0.40653,-1.764777 1.35185,-1.718606 1.28331,-1.964587 -0.38112,-1.36763 l -1.39745,0.501205 1.65153,-1.522939 c 1.94385,-1.792507 2.07417,-2.272287 0.50816,-1.870911 -1.10586,0.283436 -1.10169,0.260158 0.12704,-0.709662 0.92594,-0.730827 1.00667,-0.908587 0.29776,-0.655589 -0.67353,0.240375 -0.85965,0.164299 -0.60521,-0.247393 0.20209,-0.326982 0.75411,-0.59802 1.22672,-0.602298 0.6646,-0.006 0.70572,-0.105134 0.18148,-0.437446 -0.54069,-0.342744 -0.50658,-0.495365 0.1686,-0.754456 1.92352,-0.738125 2.36607,-0.416713 1.47695,1.072641 l -0.83426,1.397443 1.04084,-1.261449 c 0.81918,-0.992799 0.91354,-1.414832 0.44311,-1.981675 -0.50005,-0.602522 -0.3281,-0.680657 1.0521,-0.478088 1.7781,0.260971 2.3968,-0.801462 0.76056,-1.30602 -0.48911,-0.150822 0.0938,-0.187847 1.29526,-0.08228 1.92949,0.169532 2.10795,0.09965 1.52847,-0.598578 -0.57328,-0.690759 -0.49626,-0.741357 0.61034,-0.400945 0.69653,0.214266 1.59615,0.647428 1.99917,0.96258 0.54942,0.429649 0.64398,0.424949 0.37795,-0.0188 -0.19514,-0.325487 -0.0702,-0.686657 0.2776,-0.802594 0.91154,-0.303845 -0.11455,-2.354235 -2.50834,-5.012288 -1.11794,-1.241356 -1.50163,-1.913389 -0.91261,-1.598425 1.57561,0.842515 3.17758,2.753165 4.04104,4.819714 0.94081,2.251682 0.97351,2.598715 0.19982,2.120546 -0.36641,-0.226452 -0.44862,-0.139201 -0.21897,0.232382 0.20224,0.32723 0.5906,0.457213 0.86301,0.288844 0.27243,-0.168364 0.82831,-0.02978 1.23529,0.308016 0.59055,0.490107 0.73999,0.463936 0.73999,-0.129571 0,-1.565811 -1.51276,-5.66599 -2.83637,-7.687678 -1.15365,-1.762094 -1.201,-1.950302 -0.2869,-1.140446 1.5964,1.414335 3.47608,5.627076 4.32869,9.70146 0.4094,1.95642 0.76301,3.143459 0.78579,2.637859 0.0697,-1.546669 1.05776,-0.394607 1.05776,1.233332 0,1.022934 -0.19302,1.405193 -0.58668,1.161895 -0.37194,-0.229871 -0.44838,-0.138814 -0.20884,0.248765 0.29316,0.474354 0.54772,0.470359 1.13593,-0.01784 0.65863,-0.546613 0.71053,-0.366491 0.39551,1.372772 -0.19942,1.101063 -0.20216,1.85278 -0.006,1.670482 0.19608,-0.182292 0.55483,-1.439991 0.79721,-2.794885 l 0.4407,-2.463438 -0.12822,2.794886 c -0.0705,1.537192 -0.30326,3.252236 -0.5172,3.811213 l -0.38898,1.016322 0.86129,-1.016322 c 0.8171,-0.964185 0.84707,-0.755625 0.58406,4.065288 -0.39872,7.308581 -1.78419,13.878534 -3.00867,14.267165 -0.52871,0.16781 -1.79027,1.028112 -2.80346,1.911789 -1.19393,1.041308 -1.72425,1.293752 -1.50705,0.717401 0.47921,-1.271612 0.004,-1.099112 -0.70025,0.254081 -0.32718,0.628849 -0.43414,0.994547 -0.23769,0.812666 0.46113,-0.426937 4.00104,0.540516 4.42007,1.208005 0.38717,0.61672 2.13323,-4.53551 3.31104,-9.770127 0.58874,-2.616557 0.8708,-6.280159 0.89987,-11.687704 0.0365,-6.787213 -0.11286,-8.368437 -1.07974,-11.433629 -1.89608,-6.010961 -4.58219,-9.882772 -9.95696,-14.352186 -1.80869,-1.504024 -1.73016,-2.469815 0.2806,-3.450987 l 1.65152,-0.805877 -1.21644,0.977183 c -0.66905,0.537446 -1.07409,1.207533 -0.90009,1.489074 0.17401,0.281542 1.7115,1.033636 3.41666,1.671322 8.9097,3.332007 16.01335,10.868528 18.90899,20.061242 1.10953,3.522395 1.43631,8.962656 0.55584,9.253486 -0.24119,0.07966 -0.40374,2.031989 -0.36124,4.338501 l 0.0773,4.193655 -0.43233,-5.08161 c -0.62089,-7.297935 -2.21054,-13.619311 -4.47257,-17.785642 -1.06221,-1.95642 -2.23825,-3.557127 -2.61342,-3.557127 -0.37516,0 -0.78801,-0.317667 -0.91743,-0.705932 -0.1616,-0.484781 -0.0157,-0.576814 0.46581,-0.293774 0.38562,0.226691 0.26424,-0.08589 -0.26973,-0.69462 -0.53397,-0.608736 -1.08462,-0.993033 -1.22365,-0.854 -0.34189,0.341891 -1.6167,-0.752043 -1.6167,-1.387326 0,-0.283462 0.33705,-0.228438 0.76224,0.124444 0.41923,0.347933 0.76225,0.45483 0.76225,0.237545 0,-0.779057 2.19431,1.596784 4.23928,4.589985 1.14569,1.676931 2.82535,4.992682 3.73256,7.368335 1.82425,4.776983 2.27307,4.92251 0.65224,0.211481 -1.59028,-4.622227 -4.69133,-9.40045 -8.24555,-12.705103 -2.73591,-2.543804 -7.49279,-5.817519 -7.49279,-5.15659 0,0.305166 4.77331,3.67218 5.20865,3.674101 0.43777,0.002 0.44003,0.893566 0.003,1.272085 -0.16126,0.139744 -0.10688,-0.06709 0.12086,-0.459632 0.28427,-0.489999 0.22319,-0.595753 -0.19487,-0.337378 -0.33491,0.206989 -0.99909,0.08077 -1.47596,-0.28048 -0.47686,-0.361256 -0.12383,0.144455 0.7845,1.123804 2.62111,2.826015 1.91593,2.967817 -0.93824,0.188664 l -2.58974,-2.521703 1.59456,2.540805 c 2.92981,4.66841 3.83905,8.700231 3.83905,17.023401 0,7.93094 -1.0976,14.463396 -3.57864,21.298579 -1.45734,4.014939 -1.31244,4.650959 0.21968,0.964261 4.23741,-10.196348 5.36095,-26.116759 2.41258,-34.186001 -0.7111,-1.946175 -1.21866,-3.612746 -1.12792,-3.703488 0.33533,-0.33533 3.46326,5.010184 4.45138,7.607242 2.62489,6.898967 3.16776,16.602968 1.38675,24.788721 -1.57252,7.227488 -1.60379,7.80417 -0.16535,3.048966 1.89802,-6.274488 2.2824,-16.846971 0.82214,-22.613166 -1.68404,-6.649867 -1.69985,-6.743485 -0.81526,-4.827535 1.72192,3.729541 2.34618,8.569806 2.12999,16.515239 -0.11424,4.198594 -0.0355,6.709392 0.17534,5.589771 0.65329,-3.469358 0.46525,-13.524081 -0.32245,-17.242422 -0.41037,-1.937146 -0.65108,-3.617121 -0.53492,-3.733282 0.38994,-0.389932 2.35175,6.698925 2.70884,9.788153 l 0.35335,3.056975 0.27199,-2.286725 c 0.1496,-1.257699 0.26732,0.91469 0.26161,4.82753 -0.006,4.102943 -0.16119,6.361424 -0.36667,5.335691 -0.24216,-1.208819 -0.29446,-0.801853 -0.16326,1.270402 0.16709,2.639176 0.1258,2.819852 -0.3072,1.344294 -0.48423,-1.650085 -0.53189,-1.676036 -1.48827,-0.810522 -0.54341,0.491779 -1.00061,0.687202 -1.016,0.434265 -0.0154,-0.252932 -0.46326,1.201379 -0.99528,3.231808 -0.53201,2.030428 -1.19514,4.08848 -1.47362,4.573454 -0.43109,0.750752 -0.5569,0.636391 -0.8468,-0.769762 -0.18726,-0.908338 -0.62736,-1.651523 -0.97799,-1.651523 -0.35063,0 -1.51883,1.075538 -2.596,2.390084 -1.07718,1.314551 -1.67641,2.215745 -1.33163,2.002657 0.34479,-0.213086 0.62689,-0.158195 0.62689,0.12199 0,0.28018 -0.68602,0.914659 -1.52449,1.409954 -0.83846,0.495294 -1.52448,1.038717 -1.52448,1.207609 0,0.168892 -0.68602,1.075462 -1.52448,2.014604 -2.44689,2.740691 -2.45665,2.734308 3.90962,2.556431 3.52467,-0.09848 4.57755,0.07748 6.86017,1.146532 1.48306,0.694575 3.15382,1.637676 3.7128,2.095773 0.55897,0.458097 -0.44013,0.112624 -2.22022,-0.767724 -2.22417,-1.099966 -4.21105,-1.668592 -6.35202,-1.817884 -4.25073,-0.296416 -4.89184,0.23547 -2.90536,2.410389 2.72649,2.985126 3.81679,5.863401 3.83706,10.129474 0.0143,3.017267 -0.23505,4.325506 -1.19721,6.280006 -3.42412,6.95566 -11.10161,10.12723 -18.33506,7.57422 z m 8.6053,-0.3778 c 3.39056,-1.75333 4.71298,-5.28009 3.30207,-8.8063 -1.09214,-2.729522 -3.01876,-4.089625 -6.62431,-4.676444 -1.5745,-0.256256 -3.2389,-0.749959 -3.69867,-1.09712 -1.37657,-1.039403 -2.59115,-2.658079 -2.60373,-3.470008 -0.009,-0.59991 -0.7311,-0.762242 -3.38928,-0.762242 -3.98095,0 -4.15563,0.221746 -4.20324,5.335691 -0.0596,6.402533 3.97357,11.884283 10.11925,13.753713 2.13744,0.65019 5.56318,0.51635 7.09791,-0.27729 z m -5.05314,-5.08112 c -0.5135,-0.61874 -0.53517,-1.09103 -0.0944,-2.05834 1.0319,-2.26478 3.91295,-1.14264 3.5547,1.38452 -0.20428,1.44102 -2.45913,1.88011 -3.46026,0.67382 z m 3.59441,-15.128437 c 0.43612,-1.628915 0.11964,-1.70237 -2.32069,-0.538656 -1.43953,0.68646 -1.92733,0.731402 -2.431,0.223972 -0.50277,-0.506514 -0.42472,-0.569623 0.38621,-0.312254 0.86898,0.275794 0.89461,0.243704 0.17678,-0.221386 -0.53595,-0.347241 -2.00599,-0.409781 -4.06529,-0.172942 l -3.22575,0.370998 2.28672,0.312331 c 2.13442,0.291532 2.06673,0.316671 -1.01632,0.377492 -4.28972,0.08463 -7.35965,-1.226395 -8.38212,-3.579603 -0.57715,-1.328333 -0.72905,-1.444656 -0.74489,-0.57041 -0.0244,1.350326 2.35405,3.427739 4.87839,4.260848 1.16525,0.384567 3.27573,0.512923 5.57474,0.339051 2.66298,-0.2014 3.84991,-0.09868 4.23604,0.366577 0.29506,0.35551 1.37718,0.622762 2.40474,0.593903 1.58917,-0.04462 1.9242,-0.261266 2.24244,-1.449921 z m -6.74749,-0.72825 c 0.36683,-0.146793 0.80511,-0.128743 0.97397,0.04009 0.16886,0.168858 -0.13127,0.288961 -0.66695,0.266897 -0.59199,-0.02439 -0.7124,-0.144796 -0.30702,-0.307011 z m 6.00412,-0.983175 c 1.08221,-0.452177 2.04388,-0.77613 2.13704,-0.719892 0.0932,0.05623 0.26875,0.003 0.39018,-0.118549 0.32052,-0.320512 -1.78434,-0.140841 -3.98521,0.340184 -1.04564,0.228535 -1.77532,0.619118 -1.62153,0.86796 0.38718,0.62647 0.81957,0.574561 3.07952,-0.369703 z m -5.90884,-0.654765 c 0,-0.253324 -0.4833,-0.334203 -1.07399,-0.179732 -0.92904,0.242946 -1.00344,0.149028 -0.55125,-0.695896 0.3458,-0.646142 0.35369,-1.278823 0.0233,-1.869179 -0.46029,-0.822513 -0.62442,-0.787242 -2.09501,0.450165 -2.49259,2.097383 -2.26648,2.755229 0.94701,2.755229 1.51246,0 2.74993,-0.207264 2.74993,-0.460587 z m 9.90554,-1.566239 c 0.17803,-0.288056 -0.026,-0.373245 -0.47817,-0.199713 -0.88035,0.33782 -1.04142,0.702055 -0.31047,0.702055 0.263,0 0.61789,-0.226055 0.78864,-0.502342 z m -0.0732,-1.691789 c 0.18197,0.181981 0.33087,0.191921 0.33087,0.02211 0,-0.916855 -1.04338,-0.744527 -1.52702,0.252204 -0.50276,1.036151 -0.48684,1.065131 0.15179,0.276211 0.39241,-0.48476 0.86237,-0.732487 1.04436,-0.550504 z m -9.54408,-0.735944 c -0.46058,-0.460582 -1.87756,0.381477 -1.54564,0.91852 0.22768,0.368386 0.55998,0.346825 1.06081,-0.06883 0.40111,-0.332885 0.61928,-0.715251 0.48483,-0.849695 z m -8.79392,-3.093476 c -0.55167,-0.739629 -1.43615,-1.401701 -1.96551,-1.471269 -0.69914,-0.09188 -0.63758,0.0124 0.22502,0.38107 0.65311,0.279154 1.45017,1.203488 1.77123,2.054079 0.32107,0.85059 0.67117,1.284265 0.77802,0.963717 0.10685,-0.320553 -0.25709,-1.187969 -0.80876,-1.927597 z m 19.64615,0.06246 c 0.61389,-1.347328 0.60402,-1.362091 -0.33957,-0.508161 -0.5345,0.483718 -1.29053,0.879484 -1.68008,0.879484 -0.42473,0 -0.25543,-0.317168 0.42293,-0.792309 0.81179,-0.568607 1.01357,-1.0349 0.71462,-1.651524 -0.22911,-0.472569 -0.37283,-1.145054 -0.31939,-1.494415 0.0534,-0.349361 0.12575,-0.87737 0.16069,-1.173354 0.035,-0.295983 0.26628,-0.412835 0.5141,-0.259675 0.24782,0.153164 0.73316,-0.06202 1.07855,-0.47817 0.34537,-0.416153 1.00013,-0.774701 1.45502,-0.796766 0.57055,-0.02769 0.62094,-0.122649 0.16245,-0.306228 -0.36553,-0.14636 -1.10872,0.135807 -1.65152,0.627041 -1.229,1.112227 -1.30004,0.411376 -0.0976,-0.96323 0.48911,-0.559155 0.59418,-0.843781 0.23349,-0.632498 -0.36069,0.211278 -1.24169,1.312275 -1.95779,2.446653 -1.02015,1.616019 -1.40909,1.909289 -1.79667,1.354727 -0.40998,-0.586626 -0.45541,-0.577306 -0.2654,0.05446 0.12608,0.419233 0.51456,0.695723 0.86327,0.614423 0.39258,-0.09153 0.51574,0.160406 0.32342,0.661589 -0.17983,0.468611 -0.0991,0.678695 0.19173,0.498954 1.2196,-0.753751 0.35743,1.134154 -0.89509,1.960023 -0.7686,0.506784 -1.00459,0.798407 -0.52444,0.648057 0.48016,-0.150354 1.00816,-0.05469 1.17335,0.212595 0.56178,0.908978 1.59989,0.489974 2.23397,-0.901676 z m -8.43488,-1.2802 c -0.22184,-0.349361 -0.40684,-0.844818 -0.41111,-1.101017 -0.004,-0.256195 -0.29808,-0.56258 -0.65289,-0.68085 -0.51216,-0.170722 -0.52154,0.05617 -0.0455,1.101017 0.32979,0.72383 0.80509,1.316051 1.05622,1.316051 0.25111,0 0.27508,-0.285841 0.0533,-0.635201 z m -8.80356,-1.143363 c -0.34793,-0.419232 -0.99132,-0.762241 -1.42974,-0.762241 -0.63815,0 -0.6004,0.148815 0.18926,0.746082 1.29052,0.976101 2.04533,0.985934 1.24048,0.01616 z m 18.2938,0.254081 c 0,-0.279489 -0.40017,-0.50466 -0.88928,-0.500381 -0.75998,0.0067 -0.77845,0.07941 -0.12704,0.500381 0.95901,0.619758 1.01632,0.619758 1.01632,0 z m -11.46185,-3.782974 c -0.19132,-1.019803 -0.44948,-1.752556 -0.57369,-1.628336 -0.12422,0.124215 -0.0693,1.060232 0.12199,2.08003 0.19132,1.019803 0.44948,1.752556 0.57369,1.628336 0.12422,-0.124215 0.0693,-1.060232 -0.12199,-2.08003 z m 13.24042,0.734008 c -0.17274,-0.279489 -0.58641,-0.50466 -0.91927,-0.500381 -0.36365,0.0046 -0.30097,0.204397 0.15703,0.500381 0.97624,0.630897 1.15215,0.630897 0.76224,0 z m -7.8765,-0.792234 c 0,-0.435727 -0.2324,-0.648596 -0.51645,-0.473047 -0.28405,0.17555 -0.38489,0.532055 -0.22409,0.792234 0.43562,0.704839 0.74054,0.573414 0.74054,-0.319187 z m 2.50001,-1.24041 c 0.57048,-1.197873 0.5599,-1.214089 -0.18525,-0.283997 -0.43466,0.542524 -0.79028,1.209485 -0.79028,1.482139 0,0.645639 0.23472,0.357354 0.97553,-1.198142 z m -2.0073,-1.397443 c -0.0133,-1.198737 -0.0894,-1.270423 -0.53566,-0.504137 -0.28612,0.491321 -0.38001,1.12017 -0.20864,1.397443 0.52541,0.850133 0.76046,0.568033 0.7443,-0.893306 z m -1.65719,-0.508162 c 0.18046,-0.489104 0.46378,-1.003617 0.62959,-1.143362 0.16582,-0.139744 0.59025,-0.910299 0.94317,-1.712345 0.57293,-1.302021 0.55051,-1.423278 -0.20926,-1.13173 -0.71075,0.27274 -0.74589,0.199966 -0.21332,-0.441745 0.35069,-0.422556 0.78321,-0.693853 0.96116,-0.602882 0.17795,0.09097 1.1239,-0.751195 2.10211,-1.871471 1.57398,-1.802569 1.62272,-1.935636 0.42379,-1.156828 -0.74513,0.484023 -1.50062,1.260087 -1.67887,1.724592 -0.26374,0.687313 -0.40415,0.714997 -0.75415,0.148687 -0.26882,-0.43496 -0.068,-1.340427 0.5355,-2.414979 1.10273,-1.963321 1.245,-2.679061 0.35577,-1.78983 -1.1091,1.109092 -1.38921,0.63355 -0.51947,-0.881888 1.01947,-1.776333 0.50693,-2.551385 -1.05353,-1.59311 -1.10447,0.678258 -1.10707,0.67312 -0.18438,-0.364809 0.75419,-0.84838 0.87195,-1.528248 0.60661,-3.502068 -0.18109,-1.34712 -0.57094,-2.534163 -0.86632,-2.637864 -0.33165,-0.116435 -0.27985,-0.347531 0.13541,-0.604183 0.53877,-0.332973 0.4931,-0.613859 -0.22968,-1.41252 -0.62485,-0.690454 -0.72645,-1.1055 -0.3305,-1.35021 0.38942,-0.240675 0.27848,-0.593984 -0.34802,-1.108253 -0.84583,-0.694311 -0.84828,-0.732484 -0.0304,-0.475324 0.57018,0.179279 0.88928,0.01184 0.88928,-0.466679 0,-0.410463 -0.22643,-0.746296 -0.50319,-0.746296 -0.74006,0 1.09639,-2.057767 2.28175,-2.556736 0.8659,-0.364489 0.8847,-0.432577 0.12704,-0.460018 -0.79917,-0.02896 -1.12071,-0.599142 -0.94945,-1.683736 0.0925,-0.586046 -1.36074,-0.451648 -1.73929,0.160854 -0.18422,0.298082 0.0881,0.882381 0.60522,1.298432 0.85776,0.690164 0.82881,0.70048 -0.33024,0.11767 -1.89241,-0.951557 -2.35739,-0.934091 -3.5012,0.131527 -0.82249,0.766267 -0.94455,1.229074 -0.57825,2.192497 0.33762,0.888021 0.27994,1.291954 -0.21141,1.480502 -0.4668,0.179122 -0.61172,-0.08246 -0.46872,-0.846048 0.19686,-1.051238 0.18335,-1.055592 -0.27588,-0.08902 -0.26558,0.558983 -0.45416,3.07438 -0.41906,5.589777 0.0561,4.018487 0.0854,4.157225 0.24158,1.143363 0.0978,-1.886548 0.35638,-3.430087 0.5747,-3.430087 0.21831,0 0.29625,0.686017 0.17318,1.524483 -0.23823,1.623152 0.24637,1.923694 1.43389,0.889281 0.40107,-0.34936 0.21813,-0.04878 -0.40653,0.667953 -1.3589,1.559195 -1.47687,3.010285 -0.24647,3.031663 0.84694,0.01474 0.84694,0.04015 0,0.533412 -1.21039,0.704992 -1.11687,1.70111 0.25408,2.706298 l 1.14336,0.838318 -1.14336,-0.302417 c -1.95119,-0.516093 -1.43824,1.561701 0.75316,3.050791 1.0431,0.708798 1.72107,1.288727 1.50661,1.288727 -0.21445,0 -0.96529,-0.377005 -1.66854,-0.837785 -1.04247,-0.683055 -1.39111,-0.716212 -1.88772,-0.179529 -0.47555,0.513914 -0.46983,0.579614 0.0261,0.299628 0.41609,-0.234903 0.63521,-0.0076 0.63521,0.658881 0,0.559623 0.51451,1.401605 1.14336,1.871075 0.77183,0.576219 0.8544,0.755889 0.25408,0.552924 -1.10935,-0.375058 -1.27258,1.584904 -0.16732,2.009031 0.52883,0.202934 0.65584,0.878335 0.47478,2.524859 -0.20048,1.823185 -0.0939,2.247814 0.56439,2.247814 0.44637,0 0.95922,-0.400177 1.13968,-0.889282 z m -2.58609,-28.142903 c 0.90144,-0.996077 1.4728,-1.277868 0.98251,-0.484562 -0.15798,0.25562 2e-5,0.560786 0.35113,0.678156 0.3511,0.117364 0.002,0.335416 -0.7772,0.484557 -1.35444,0.259457 -1.37846,0.230177 -0.55644,-0.678151 z m 7.60134,25.398555 c 0.42032,-0.812809 0.6052,-1.735116 0.41085,-2.049582 -0.21564,-0.348913 -0.12471,-0.430438 0.23332,-0.209169 0.37966,0.234648 0.58251,-0.05144 0.57489,-0.810766 -0.0105,-1.049053 -0.25277,-0.920783 -2.28672,1.210836 -1.25122,1.3113 -2.2741,2.683335 -2.27305,3.048966 0.001,0.365627 0.43986,-0.05345 0.97514,-0.931296 1.06624,-1.748613 1.96867,-2.487784 2.44981,-2.006636 0.17065,0.170645 -0.30191,0.949244 -1.05013,1.730216 -1.53054,1.597542 -1.73774,2.239482 -0.57936,1.794968 0.42957,-0.164842 1.12494,-0.964734 1.54525,-1.777537 z m -8.35864,-1.225949 c -0.56381,-0.716771 -0.90442,-1.617746 -0.7569,-2.002165 0.14751,-0.384419 0.006,-1.11301 -0.31455,-1.619092 -0.49873,-0.787462 -0.5401,-0.718637 -0.28692,0.4773 0.34219,1.616415 -0.41827,1.845992 -1.8432,0.556442 -0.51111,-0.462554 -0.91532,-0.634059 -0.89825,-0.381122 0.0171,0.252933 0.98894,1.154273 2.15969,2.002978 1.25281,0.908196 2.21617,2.058144 2.34138,2.794886 0.15754,0.926972 0.26608,1.021135 0.41831,0.362893 0.11305,-0.488896 -0.25575,-1.475349 -0.81956,-2.19212 z m 10.31419,-0.448539 c 0.6717,-1.758847 0.75117,-2.663333 0.35884,-4.084242 -0.45617,-1.652108 -0.29811,-2.220634 1.66759,-5.998465 1.5914,-3.058454 2.08482,-4.512765 1.84697,-5.443777 -0.17851,-0.698722 -0.65726,-1.270997 -1.06389,-1.271719 -0.40663,-5.08e-4 -0.7499,-0.34373 -0.76282,-0.762242 -0.0419,-1.358309 -1.26059,-3.049144 -2.15407,-2.988703 -0.69312,0.0469 -0.71248,0.102064 -0.0946,0.269676 0.8982,0.243668 2.26813,2.212183 1.53949,2.212183 -0.26797,0 -0.70568,-0.39038 -0.9727,-0.867508 -0.39687,-0.709174 -0.59316,-0.467589 -1.0755,1.323663 -0.32451,1.205145 -0.46759,2.510214 -0.31795,2.900152 0.15664,0.408195 -0.0446,0.708981 -0.47424,0.708981 -0.53668,0 -0.75083,-0.606592 -0.76245,-2.159685 -0.0168,-2.237423 -1.01671,-4.201257 -1.80724,-3.54923 -0.24887,0.205271 -0.0193,-0.141289 0.51013,-0.770139 0.98894,-1.174619 2.16776,-1.606688 1.51882,-0.55669 -0.23372,0.378183 -0.13835,0.448096 0.26837,0.19673 1.06857,-0.660412 -0.20625,-1.470578 -1.35044,-0.858224 -2.29787,1.229786 -2.42002,1.882645 -1.1356,6.069537 0.66047,2.152931 1.61206,4.459774 2.11464,5.126319 0.50259,0.666539 0.91713,1.695565 0.9212,2.286724 0.004,0.591154 0.33785,2.023187 0.74174,3.182288 0.7446,2.136852 0.54784,3.853766 -0.71123,6.206368 -0.32001,0.597933 -0.37618,1.087155 -0.12482,1.087155 0.25135,0 0.84524,-1.016622 1.31978,-2.259152 z m -0.8724,-8.478407 c -0.26981,-2.011556 -0.13751,-2.348777 1.70617,-4.348929 1.09925,-1.192552 2.02144,-2.573566 2.0493,-3.068917 0.0333,-0.591784 0.17614,-0.464977 0.41659,0.369769 0.20127,0.698721 0.23564,1.384739 0.0764,1.524483 -0.15925,0.139744 -0.33387,0.482753 -0.38803,0.762241 -0.0542,0.279489 -0.87911,1.955775 -1.83321,3.725075 l -1.73473,3.216918 z m -11.18972,1.717701 c -0.12782,-0.489105 -0.2324,-0.08893 -0.2324,0.889282 0,0.978209 0.10458,1.378386 0.2324,0.889281 0.12781,-0.489105 0.12781,-1.289458 0,-1.778563 z m 9.14876,-2.022974 c -0.12884,-0.494426 -0.24273,-0.212935 -0.25309,0.625531 -0.0104,0.838466 0.0951,1.242992 0.23426,0.898952 0.13919,-0.34404 0.14766,-1.030063 0.0188,-1.524483 z m -9.64199,-3.820878 c -0.011,-2.305781 -0.10496,-3.163303 -0.20887,-1.905604 -0.10391,1.257698 -0.33047,2.629733 -0.50347,3.048966 -0.54778,1.327439 -0.59564,2.047157 -0.11644,1.750991 0.25495,-0.157571 0.46356,0.07001 0.46356,0.505742 0,0.435728 0.0867,0.792233 0.19258,0.792233 0.10592,0 0.18361,-1.886547 0.17264,-4.192328 z m 8.61006,1.016322 c -0.14097,-0.349361 -0.25631,-0.06352 -0.25631,0.635201 0,0.698722 0.11534,0.984562 0.25631,0.635201 0.14097,-0.34936 0.14097,-0.921041 0,-1.270402 z m -29.9815,-4.065289 c -0.14097,-0.34936 -0.25632,-0.06352 -0.25632,0.635202 0,0.698721 0.11535,0.984562 0.25632,0.635201 0.14097,-0.349361 0.14097,-0.921042 0,-1.270403 z m 51.83242,-1.016322 c -0.14097,-0.34936 -0.25631,-0.06352 -0.25631,0.635202 0,0.698721 0.11534,0.984562 0.25631,0.635201 0.14097,-0.349361 0.14097,-0.921042 0,-1.270403 z M 28.038241,23.780854 c 1.84447,-3.268375 6.36636,-8.809983 6.81928,-8.357059 0.13623,0.136228 0.50917,0.01997 0.82875,-0.258329 0.31957,-0.27831 1.72441,-1.325126 3.12186,-2.32626 3.20604,-2.296822 1.61263,-1.790703 -2.08101,0.660996 -5.18361,3.440682 -9.55525,9.410777 -11.91637,16.273502 -0.54636,1.588008 -0.98315,3.251671 -0.97064,3.697024 0.0125,0.445347 0.55324,-0.828013 1.20165,-2.8297 0.64839,-2.001682 1.99681,-5.08876 2.99648,-6.860174 z m 31.45381,5.175437 c -0.4761,-0.832124 -0.94187,-1.289469 -1.03503,-1.016322 -0.0932,0.273147 -0.50684,0.496631 -0.91927,0.496631 -0.41244,0 -0.59893,0.244263 -0.41442,0.542807 0.18452,0.29854 0.63863,0.426469 1.00916,0.284286 0.37053,-0.142184 0.94708,0.0709 1.28122,0.47352 0.97723,1.177485 1.01029,0.847917 0.0783,-0.780922 z m -1.51482,-3.34339 c -0.62116,-0.435082 -1.12939,-1.21392 -1.12939,-1.730756 0,-0.813687 -0.16397,-0.862313 -1.22281,-0.362618 l -1.22281,0.577073 1.41588,0.595336 c 0.77875,0.327438 1.57118,0.846591 1.76097,1.153678 0.18979,0.307092 0.61113,0.558342 0.93631,0.558342 0.32519,0 0.083,-0.355972 -0.53815,-0.791055 z m -3.80782,-0.532278 c -0.16886,-0.168857 -0.60715,-0.186912 -0.97398,-0.04009 -0.40537,0.162216 -0.28496,0.28263 0.30702,0.307011 0.53568,0.02205 0.83582,-0.09803 0.66696,-0.266896 z m -0.37053,-1.217473 c 0,-0.279488 -0.97186,-0.475709 -2.15969,-0.436048 l -2.15968,0.07211 2.03264,0.363939 c 1.11796,0.20017 2.08981,0.396392 2.15968,0.436054 0.0699,0.03964 0.12705,-0.156565 0.12705,-0.436055 z m -17.00571,45.173697 c -0.98794,-0.867421 -1.79625,-1.947328 -1.79625,-2.399794 0,-0.624129 0.19234,-0.548057 0.79701,0.315222 0.43835,0.625841 1.01003,1.006234 1.2704,0.845321 0.26036,-0.160914 0.47339,-0.01123 0.47339,0.332605 0,0.343847 0.37845,1.043361 0.841,1.554475 1.32891,1.468428 0.3859,1.083135 -1.58555,-0.647829 z m 29.21714,-8.332015 c 0,-0.279489 0.22166,-0.85117 0.49259,-1.270403 0.27093,-0.419233 0.4926,-0.533569 0.4926,-0.254081 0,0.279489 -0.22167,0.85117 -0.4926,1.270403 -0.27093,0.419233 -0.49259,0.533569 -0.49259,0.254081 z m -34.5683,-3.140944 c -0.61235,-1.626344 -1.46896,-4.557697 -1.90358,-6.514117 -0.84343,-3.796658 -1.14079,-14.31263 -0.53886,-19.056039 0.29738,-2.34343 0.2653,-2.548641 -0.1986,-1.270402 -0.64239,1.769995 -0.84964,15.424532 -0.27358,18.023837 0.30718,1.386039 0.25832,1.630348 -0.22867,1.143362 -0.95841,-0.958417 -1.8479,-0.73505 -2.08679,0.524041 -0.22367,1.178792 -0.0716,-3.400466 0.391,-11.772907 0.14543,-2.632127 0.11513,-4.636395 -0.0673,-4.453925 -0.18247,0.182471 -0.50517,3.479394 -0.71712,7.326493 l -0.38534,6.994735 0.15337,-7.114254 c 0.16524,-7.664974 0.68306,-10.103589 3.42518,-16.130587 1.29521,-2.846804 1.65693,-3.292624 2.13783,-2.634952 0.49222,0.673161 0.71257,0.511154 1.47266,-1.082764 0.49161,-1.030907 1.00023,-1.767969 1.13027,-1.637925 0.13005,0.130048 -0.56167,1.96388 -1.53715,4.075177 -3.64286,7.884494 -4.2194,18.732066 -1.54295,29.030646 0.71661,2.757434 1.54399,5.46392 1.83861,6.014416 0.29461,0.550501 0.42514,1.11144 0.29004,1.246535 -0.13509,0.135089 -0.74663,-1.085026 -1.35898,-2.71137 z m -1.76201,-31.585157 c 0.19471,-0.185356 0.21362,0.463337 0.042,1.441547 l -0.31201,1.778563 0.73926,-1.920198 c 0.4066,-1.056106 0.59576,-2.294149 0.42038,-2.751204 -0.2133,-0.555837 -0.12203,-0.709342 0.27562,-0.463575 0.32699,0.202086 0.59452,0.138758 0.59452,-0.14073 0,-1.303957 -0.93689,-0.850139 -1.75698,0.851063 -1.24387,2.580299 -2.82138,7.203919 -2.79374,8.188369 0.0125,0.445348 0.56593,-0.867994 1.22982,-2.918546 0.66389,-2.050552 1.3664,-3.879932 1.56111,-4.065289 z m -5.2554,21.513913 c 0.0104,-0.838466 0.12424,-1.119956 0.25308,-0.625531 0.12885,0.494421 0.12038,1.180438 -0.0188,1.524483 -0.1392,0.34404 -0.24461,-0.06049 -0.23426,-0.898952 z m 49.3379,-5.08161 c 0.004,-1.397443 0.1025,-1.908816 0.2193,-1.136375 0.11681,0.772435 0.11368,1.915797 -0.007,2.540805 -0.12064,0.625002 -0.2162,-0.007 -0.21239,-1.40443 z m -34.02177,-2.654593 c -2.39069,-4.463691 -3.88718,-9.103237 -3.60833,-11.186845 0.16759,-1.252312 0.2295,-1.184575 0.57498,0.629245 0.67032,3.519214 1.77667,6.009412 3.92909,8.843695 1.80212,2.373005 2.02651,2.943934 1.65291,4.205581 -0.42253,1.426881 -0.48006,1.370638 -2.54865,-2.491676 z m 36.53513,-1.156615 c 0,-0.97821 0.10457,-1.378387 0.23239,-0.889282 0.12781,0.489105 0.12781,1.289459 0,1.778564 -0.12782,0.489105 -0.23239,0.08893 -0.23239,-0.889282 z m -3.61608,-3.955988 c -0.0975,-1.920361 -2.81187,-9.599366 -3.02057,-8.545211 -0.14612,0.738094 -0.40822,0.49906 -1.11439,-1.016322 -0.50783,-1.089767 -0.94598,-1.638388 -0.97367,-1.219155 -0.0277,0.419233 -0.73277,-0.475842 -1.56685,-1.989054 -1.74408,-3.164151 -1.70333,-4.102749 0.0527,-1.213681 1.19383,1.964133 2.04274,2.811619 2.42921,2.425147 0.11779,-0.117797 -0.0797,-0.56823 -0.43881,-1.000975 -0.35915,-0.43274 -0.54011,-0.899689 -0.40213,-1.037665 0.89649,-0.896493 5.83049,11.917556 5.33061,13.844086 -0.18362,0.707665 -0.25045,0.651879 -0.29609,-0.24717 z m -3.55404,-10.61553 c -0.59904,-1.030154 -0.7437,-0.700429 -0.25333,0.577438 0.17427,0.454149 0.4239,0.718673 0.55473,0.587836 0.13084,-0.130831 -0.005,-0.655207 -0.3014,-1.165274 z M 32.410491,19.37495 c 0.27406,-0.512094 0.90202,-1.255279 1.39546,-1.651523 0.63656,-0.51117 0.56077,-0.240706 -0.26093,0.931073 -1.25478,1.789377 -1.93921,2.224002 -1.13453,0.72045 z"
     style="fill:#000000;stroke-width:0.50816107" />
</svg>
