<?xml version="1.0" encoding="UTF-8" standalone="no"?>
<svg
   xmlns:dc="http://purl.org/dc/elements/1.1/"
   xmlns:cc="http://creativecommons.org/ns#"
   xmlns:rdf="http://www.w3.org/1999/02/22-rdf-syntax-ns#"
   xmlns:svg="http://www.w3.org/2000/svg"
   xmlns="http://www.w3.org/2000/svg"
   width="100"
   height="100"
   viewBox="0 0 100 100"
   version="1.1"
   id="svgNG5">
  <defs
     id="defs2" />
  <metadata
     id="metadata5">
    <rdf:RDF>
      <cc:Work
         rdf:about="">
        <dc:format>image/svg+xml</dc:format>
        <dc:type
           rdf:resource="http://purl.org/dc/dcmitype/StillImage" />
        <dc:title></dc:title>
      </cc:Work>
    </rdf:RDF>
  </metadata>
  <path
     style="fill:#000000;stroke-width:0.85400122"
     d="m 72.14544,89.816709 c -2.6179,-2.81674 -6.71321,-6.37886 -9.10067,-7.91581 -4.75087,-3.05842 -14.0412,-6.48825 -15.79989,-5.83304 -2.20363,0.82095 -1.03259,2.99353 2.57506,4.7774 4.99601,2.47037 8.88378,5.43334 10.69639,8.152 1.1161,1.67398 0.4476,1.31944 -2.57181,-1.36395 -2.24395,-1.99424 -6.88034,-4.92883 -10.3031,-6.52131 -8.58847,-3.9959 -11.17468,-3.85211 -8.86046,0.49264 0.68354,1.28327 2.91065,3.74001 4.94915,5.4594 3.60323,3.03921 3.62424,3.0859 0.75557,1.67855 -1.62292,-0.79619 -5.24264,-3.67959 -8.04382,-6.40755 -2.80117,-2.72796 -5.48337,-4.95993 -5.96043,-4.95993 -1.63801,0 -1.83827,2.46289 -0.42402,5.21516 l 1.41571,2.75511 -2.9311,-2.7581 c -1.61211,-1.51696 -4.83101,-5.5777 -7.15313,-9.02387 -2.32209,-3.44617 -4.5497,-5.94761 -4.95023,-5.55876 -0.40053,0.38885 0.0585,2.75094 1.02002,5.2491 1.20745,3.13705 1.34672,4.02521 0.45025,2.87115 -1.66822,-2.14751 -4.48116,-10.98735 -5.22228,-16.41131 -0.31687,-2.31903 -0.87042,-4.21641 -1.23011,-4.21641 -0.77445,0 -1.66428,2.93543 -1.78555,5.89021 -0.0819,1.99543 -0.12934,1.97379 -0.92219,-0.42073 -1.10862,-3.34817 -0.2228,-11.9914 1.48889,-14.52761 3.2159,-4.76497 16.88797,-7.00389 24.33147,-3.98448 1.71137,0.6942 3.82097,1.26219 4.68803,1.26219 0.86705,0 1.79364,0.34115 2.05908,0.75812 0.26543,0.41696 -0.93132,0.71921 -2.65946,0.67165 -6.31681,-0.17384 -8.14011,5.76557 -4.15395,13.53153 3.51037,6.83898 9.8544,11.20925 22.20638,15.29748 10.55526,3.49356 16.1505,6.10032 21.44488,9.99092 2.59367,1.90598 4.82297,3.36135 4.954,3.23415 0.13101,-0.1272 -0.72349,-2.07549 -1.89891,-4.32953 -1.17541,-2.25405 -2.12855,-4.69674 -2.11808,-5.42821 0.0105,-0.73147 0.74153,0.21444 1.62457,2.10203 0.88305,1.88759 2.68222,4.25419 3.99815,5.25912 1.31593,1.00493 1.90825,1.82714 1.31624,1.82714 -0.64187,0 -0.85597,0.55752 -0.5304,1.38121 0.45648,1.15488 0.32965,1.20693 -0.77401,0.3177 -1.99726,-1.60926 -1.58015,0.009 0.63022,2.44569 1.07257,1.18218 -0.28085,0.15456 -3.00762,-2.2836 -4.49122,-4.01585 -14.20947,-9.4318 -16.92719,-9.43346 -2.21499,-0.002 -0.94498,2.06403 3.90029,6.34291 3.95289,3.49083 9.16311,9.85647 7.84958,9.5903 -0.14614,-0.0296 -2.4076,-2.35845 -5.02552,-5.1752 z M 61.91808,77.275219 c -0.33767,-0.29409 -2.75912,-1.20053 -5.38097,-2.01432 -2.62187,-0.81379 -5.89136,-2.03202 -7.26555,-2.70716 -1.93624,-0.95129 -2.64589,-0.99605 -3.15334,-0.19893 -0.74859,1.17593 -2.58186,0.37381 -2.5825,-1.12994 -2.4e-4,-0.55119 -1.95038,-2.63246 -4.33365,-4.62504 -4.53864,-3.79463 -5.26748,-3.56378 -2.93611,0.92993 1.46565,2.82501 6.29032,8.16244 7.3783,8.16244 0.34913,0 1.25857,-0.60559 2.02097,-1.34576 0.9155,-0.88881 1.74581,-1.0782 2.44541,-0.55778 0.5826,0.43338 3.50521,1.65613 6.49474,2.71722 2.98951,1.06109 5.67095,2.29916 5.95877,2.75127 0.3102,0.48728 0.81742,0.35999 1.24559,-0.31261 0.39727,-0.62405 0.44602,-1.37524 0.10834,-1.66932 z m -22.05117,-0.73007 c 0.63664,-0.007 -0.17834,-1.81258 -1.94012,-4.29907 -1.67086,-2.35818 -3.469,-5.86075 -3.99587,-7.7835 -0.52687,-1.92276 -1.51573,-4.63189 -2.19745,-6.02029 -1.16143,-2.36539 -1.21612,-2.08784 -0.86825,4.40682 0.46411,8.66506 3.14982,14.94624 6.06583,14.18645 1.01094,-0.26341 2.33208,-0.48409 2.93586,-0.49041 z m -8.89233,-5.03809 c -1.95313,-7.18806 -2.42501,-12.54595 -1.33081,-15.11055 0.55911,-1.31047 0.88994,-3.65822 0.73517,-5.21721 l -0.28141,-2.83452 -1.57451,2.80536 c -2.35939,4.20382 -3.41226,12.04639 -2.3595,17.57525 0.99156,5.20745 2.10253,6.96681 4.39934,6.96681 1.43218,0 1.4632,-0.31536 0.41172,-4.18514 z m -6.07314,-6.5443 c 0,-10.41487 0.78319,-13.17189 5.01949,-17.6698 0.98073,-1.04131 1.38282,-1.89329 0.89352,-1.89329 -2.2037,0 -6.86716,4.14537 -8.83059,7.84954 -3.0116,5.68163 -3.12929,13.96882 -0.26198,18.44606 1.11147,1.7355 2.28156,3.15509 2.6002,3.15463 0.31865,-4.5e-4 0.57936,-4.44967 0.57936,-9.88714 z m -6.93655,-2.52354 c 2.063,-10.29536 4.23533,-14.11182 9.87416,-17.34745 l 3.1295,-1.79574 -3.30667,-0.26443 c -9.18159,-0.73423 -15.90434,9.48176 -13.04829,19.82835 0.72602,2.63014 2.79193,2.37077 3.3513,-0.42073 z m -4.76432,-10.61118 c 0,-0.62962 0.99436,-2.5673 2.20967,-4.30595 1.21532,-1.73865 2.02878,-3.33679 1.80769,-3.55143 -0.82688,-0.80277 -4.16878,1.62983 -5.79396,4.21746 -2.14796,3.42001 -2.13566,4.78468 0.0432,4.78468 0.9534,0 1.73347,-0.51514 1.73347,-1.14476 z m 58.15439,25.20805 c -1.5074,-0.81096 -2.89474,-3.30359 -5.01803,-9.01586 -2.49699,-6.71766 -3.65326,-8.60145 -7.75353,-12.63203 -2.92794,-2.87817 -4.44766,-4.95975 -3.87283,-5.30465 0.52034,-0.31222 1.60911,-0.20743 2.41948,0.23285 1.02505,0.55692 2.09035,0.40807 3.50084,-0.48916 1.11508,-0.70934 2.27527,-1.04908 2.5782,-0.75499 0.30293,0.29409 0.10947,0.53472 -0.42992,0.53472 -0.53939,0 -1.43219,0.85198 -1.98401,1.89328 -0.828,1.56246 -0.80305,1.70949 0.14284,0.84146 1.47024,-1.34921 3.22736,-1.3894 1.83956,-0.0421 -0.57204,0.55536 -1.0341,1.59666 -1.02681,2.31401 0.0117,1.14926 0.11313,1.15426 0.85347,0.0421 0.66831,-1.00399 0.8429,-0.84041 0.85346,0.79968 0.0137,2.13146 6.03674,18.03529 6.61691,17.47202 0.17972,-0.17448 -0.69265,-3.12635 -1.93861,-6.55973 -2.63468,-7.26013 -3.61424,-15.63297 -2.14151,-18.30456 2.64424,-4.79674 12.71027,-0.13944 18.96957,8.77674 0.95495,1.3603 1.05727,1.37992 0.67724,0.12986 -0.24621,-0.8099 -0.0276,-1.47255 0.48582,-1.47255 0.55667,0 0.71935,0.82836 0.40299,2.05208 -0.29178,1.12864 -0.13905,2.28696 0.3394,2.57403 0.50489,0.30295 0.86991,-0.49156 0.86991,-1.89346 0,-1.95078 -1.09639,-3.29574 -5.69961,-6.99169 -4.30572,-3.45711 -6.47443,-6.01678 -8.86783,-10.46649 -1.78612,-3.32071 -5.53835,-8.26228 -8.60143,-11.32784 -2.98828,-2.99069 -5.4418,-5.83061 -5.45226,-6.31094 -0.0549,-2.51585 -3.85078,-8.39121 -8.75646,-13.5532797 -4.81131,-5.06275 -5.07741,-5.50002 -2.05864,-3.38271 5.50705,3.8625597 10.90527,9.1994897 10.45567,10.3369597 -0.22691,0.57409 0.0207,1.30375 0.55022,1.62148 0.63567,0.38142 0.71944,0.17614 0.24653,-0.60414 -0.39395,-0.65001 0.13083,-0.46051 1.16618,0.42113 2.10288,1.79068 2.62098,2.98471 0.58235,1.34214 -1.81064,-1.45889 -1.63398,-0.73881 0.85629,3.49031 2.10768,3.57937 3.13017,3.24815 1.20445,-0.39016 -1.58779,-2.99982 0.70118,-0.53883 3.86527,4.15575 1.77363,2.63155 3.38338,4.10379 4.48707,4.10379 1.47556,0 1.72115,-0.5705 1.72115,-3.99829 0,-2.19906 0.11741,-3.99768 0.26091,-3.99693 0.78866,0.004 2.77264,6.25866 2.77264,8.74083 0,1.59683 0.23676,3.50227 0.5261,4.23432 0.70883,1.79333 3.57669,1.69435 4.101,-0.14154 0.23129,-0.8099 0.46833,0.0421 0.52677,1.89328 0.25724,8.15085 0.72233,10.71009 2.3251,12.79424 2.79551,3.63511 4.39402,4.2596 5.97288,2.33344 1.29701,-1.5823 1.3371,-1.52785 0.81339,1.10487 -0.66665,3.35122 0.89465,5.78626 2.75101,4.29054 1.65736,-1.33537 1.56312,0.30799 -0.20835,3.63376 -1.17828,2.2121 -1.2277,3.10364 -0.32006,5.77362 1.12617,3.31285 0.5295,7.94346 -0.9121,7.07848 -0.46272,-0.27764 -0.84131,-1.07489 -0.84131,-1.77166 0,-0.69677 -1.17009,-2.2227 -2.60019,-3.39097 -1.43011,-1.16827 -2.6002,-2.84777 -2.6002,-3.73224 0,-1.93728 -0.5638,-2.02243 -2.29065,-0.34593 -0.71505,0.6942 -1.65002,1.26219 -2.07771,1.26219 -0.9601,0 0.005,-2.72778 1.25073,-3.53299 0.52752,-0.34115 0.008,-0.91624 -1.23689,-1.37022 -1.21421,-0.44265 -2.27139,-0.46141 -2.43486,-0.0433 -0.56654,1.44937 -1.98541,0.71057 -1.49809,-0.78005 0.2972,-0.90912 -0.22447,-2.27062 -1.29907,-3.39045 -1.70707,-1.7789 -8.07352,-6.02935 -9.03095,-6.02935 -0.91385,0 -0.41297,6.546 0.77727,10.15798 0.67531,2.04935 1.4628,4.7674 1.74997,6.04011 0.36908,1.63573 1.08891,2.34262 2.45575,2.41162 1.46718,0.074 1.56775,0.19044 0.41686,0.48243 -1.96049,0.49739 -1.91051,1.72781 0.20719,5.09981 1.86736,2.97339 1.55224,3.27194 -1.64053,1.55426 z m 19.85137,-13.54505 c 0,-4.16971 -1.26941,-5.11702 -1.98525,-1.48151 -0.40811,2.07258 0.55172,5.26808 1.58237,5.26808 0.22158,0 0.40288,-1.70396 0.40288,-3.78657 z m -6.06712,-3.78656 c 0,-0.46281 -0.34454,-0.84146 -0.76565,-0.84146 -0.42109,0 -0.97005,-0.75888 -1.21988,-1.6864 -0.30303,-1.12499 -0.91375,-1.5152 -1.83454,-1.17216 -1.04003,0.38746 -1.38031,-0.0143 -1.38031,-1.62978 0,-2.4261 -1.59235,-3.82651 -2.58247,-2.27118 -0.4335,0.68097 -0.8462,0.29036 -1.21969,-1.15439 -0.56658,-2.19156 -3.10865,-3.1026 -3.15804,-1.13178 -0.0146,0.58374 -0.41951,0.39651 -0.9098,-0.42073 -1.18231,-1.97072 -2.53077,-1.86774 -2.53077,0.19327 0,1.07485 1.15305,2.24275 3.25024,3.2921 1.78763,0.89445 4.59435,2.98476 6.23714,4.64512 2.82104,2.85123 6.11377,4.02391 6.11377,2.17739 z m -7.50637,-18.08611 c -2.231,-1.58378 -2.43363,-0.96829 -0.58363,1.77282 1.3104,1.94162 1.63347,2.08794 1.87886,0.85093 0.16298,-0.82164 -0.41986,-2.00234 -1.29523,-2.62375 z m 7.92426,34.49455 c 0.31363,-0.9256 0.78094,-2.69632 1.03847,-3.93491 0.30706,-1.47679 0.88286,-2.09753 1.67277,-1.80325 1.81683,0.67685 1.45615,2.43435 -1.03847,5.06015 -1.76211,1.85477 -2.12074,2.00013 -1.67277,0.67801 z m -11.9743,-0.9817 c -1.21111,-1.1758 -0.47087,-1.7914 2.56829,-2.13586 l 3.14611,-0.35658 -1.94203,1.52671 c -2.09172,1.64438 -2.8685,1.84324 -3.77237,0.96573 z m 3.20079,-6.75379 c -0.88648,-1.76191 -2.85988,-3.96078 -4.38531,-4.88639 -2.8356,-1.72058 -4.59368,-4.99731 -4.59368,-8.56176 0,-1.93751 0.0785,-1.9603 2.52359,-0.73274 1.74406,0.87559 2.39713,1.7364 2.11421,2.78673 -0.23861,0.88588 0.67724,2.84724 2.19574,4.70233 2.5668,3.1357 5.01099,8.67812 4.18198,9.48295 -0.23361,0.2268 -1.15004,-1.0292 -2.03653,-2.79112 z M 45.03633,55.298759 c 0.47641,-5.76205 -1.17243,-11.18982 -3.68341,-12.12528 -1.02245,-0.38091 -0.45058,-0.92999 2.14238,-2.05706 5.46913,-2.3772 6.4159,-7.20383 1.88224,-9.59558 -2.20225,-1.16179 -2.12119,-1.20112 2.54328,-1.23374 2.74016,-0.0192 5.54353,-0.54871 6.50026,-1.22789 1.46826,-1.04231 1.55373,-1.52464 0.67203,-3.79241 -1.16241,-2.9898 -1.18956,-2.9984 5.46197,1.73202 4.76644,3.38977 8.57931,8.4425 7.82018,10.36309 -0.25557,0.64656 -1.36608,1.2996 -2.4678,1.45119 -1.27615,0.1756 -1.92036,0.76932 -1.77502,1.63593 0.12546,0.74817 -0.36207,1.83584 -1.08341,2.41704 -0.72136,0.58122 -1.31154,1.77958 -1.31154,2.66304 0,1.63567 -0.39878,1.87984 -4.48354,2.74515 -3.11613,0.6601 -7.42892,4.3006 -10.29791,8.69262 l -2.35581,3.60642 z m 3.7002,-4.95336 c 0,-2.13821 0.22264,-2.44802 1.19579,-1.66394 0.91013,0.73333 1.79005,0.65342 3.6836,-0.33449 1.3683,-0.71388 3.58387,-1.66835 4.92348,-2.12106 1.441,-0.48695 2.19314,-1.20404 1.8418,-1.75596 -0.41476,-0.65155 -0.81856,-0.58858 -1.33898,0.20879 -0.44518,0.68212 -0.75045,0.75779 -0.75838,0.18798 -0.007,-0.52452 -0.80936,-1.1558 -1.78234,-1.40281 -1.43158,-0.36346 -1.6688,-0.1424 -1.24342,1.15874 0.38913,1.1903 0.19067,1.4831 -0.76412,1.1274 -0.70936,-0.26428 -1.50268,-1.0192 -1.76293,-1.67763 -0.66333,-1.67823 -2.24075,-1.49426 -2.36158,0.27543 -0.0958,1.40243 -0.11942,1.40243 -0.49693,0 -0.21799,-0.8099 -0.75779,-1.47255 -1.19954,-1.47255 -0.8858,0 -1.0865,1.03633 -0.81483,4.20729 0.0991,1.15701 -0.0777,1.85855 -0.39287,1.55897 -0.3152,-0.29957 -0.6075,-1.71953 -0.64954,-3.15547 -0.0467,-1.59201 -0.53233,-2.61079 -1.24467,-2.61079 -1.38784,0 -1.38037,-0.0607 -0.37313,3.02991 0.4373,1.34176 1.02978,3.48088 1.31662,4.75358 0.7089,3.14539 2.22197,2.93198 2.22197,-0.31339 z m 3.85114,-10.18171 c 1.3885,-1.92455 1.85513,-5.71785 0.6992,-5.68387 -0.35754,0.0105 -1.27063,1.24114 -2.02913,2.73474 -0.75848,1.4936 -1.83106,2.76296 -2.3835,2.82081 -2.1291,0.22296 -2.24536,0.45852 -0.57107,1.15701 2.56539,1.07024 2.81311,1.01077 4.2845,-1.02869 z m 7.42963,0.82512 c 0.0103,-0.78811 0.20367,-0.76689 0.75838,0.083 0.56617,0.86747 0.89985,0.8986 1.38938,0.12961 0.35633,-0.55973 0.003,-1.63407 -0.78972,-2.40384 -1.20148,-1.16612 -1.55523,-1.20144 -2.18161,-0.21785 -0.61118,0.95974 -0.80316,0.91522 -1.05207,-0.24399 -0.25743,-1.19888 -0.76364,-1.0447 -3.27645,0.99792 l -2.972,2.41589 4.05541,0.14892 c 2.75586,0.1012 4.05966,-0.19031 4.06868,-0.9097 z m -9.35553,-5.61178 c 0.13287,-1.09615 -0.14844,-2.1294 -0.62514,-2.29612 -0.47671,-0.16671 -0.86673,1.00324 -0.86673,2.59991 0,3.1532 1.09996,2.92921 1.49187,-0.30379 z m 16.14943,0.36299 c 0.29402,-1.48225 0.17449,-1.52391 -1.19848,-0.41767 -1.39546,1.12437 -1.47154,1.06502 -0.89509,-0.69826 0.71712,-2.19356 -1.08859,-5.13906 -2.13896,-3.48909 -0.37091,0.58266 -0.83425,0.10124 -1.17643,-1.22236 -0.89214,-3.45094 -2.55765,-2.70004 -1.87275,0.84434 0.35617,1.8432 0.26277,2.83453 -0.2387,2.53364 -0.4531,-0.27187 -1.30043,0.0633 -1.88296,0.74468 -0.87037,1.01816 -0.69478,1.37333 0.98521,1.99283 5.6457,2.08188 7.96377,2.00253 8.41816,-0.28811 z m -9.90264,-2.60161 c 1.5037,-1.45985 1.86531,-5.40937 0.49528,-5.40937 -0.47671,0 -0.86673,0.38421 -0.86673,0.85382 0,0.46961 -1.17308,1.54642 -2.60683,2.39292 l -2.60684,1.53908 1.95678,0.91598 c 1.07623,0.50378 2.02644,0.9416 2.11156,0.97292 0.0851,0.0313 0.76768,-0.53808 1.51678,-1.26535 z m -2.10492,-0.99601 c 0,-0.46281 0.58504,-1.31285 1.3001,-1.88899 0.72523,-0.58433 1.3001,-0.67545 1.3001,-0.20606 0,0.4628 -0.58505,1.31284 -1.3001,1.88898 -0.72523,0.58433 -1.3001,0.67546 -1.3001,0.20607 z M 5.4,48.393199 c 0,-1.33942 5.4238,-8.09854 8.42732,-10.50211 3.0909,-2.47349 3.58379,-2.58777 11.05491,-2.56307 6.02832,0.0199 8.90747,0.45367 12.56757,1.89328 2.61129,1.02709 4.75644,2.21884 4.76701,2.64835 0.038,1.54046 -4.62371,1.94891 -9.17161,0.8036 -9.3338,-2.35057 -17.64151,-0.64563 -23.82723,4.88992 C 7.11808,47.442339 5.4,48.715849 5.4,48.393199 Z m 14.92412,-9.17155 c 3.66528,-0.63991 6.77959,-0.57798 11.95309,0.23768 6.18977,0.97589 8.91199,0.85696 7.68354,-0.33566 -0.21856,-0.21219 -2.70568,-0.96951 -5.52694,-1.68292 -8.99259,-2.27398 -17.65743,-1.35462 -20.88662,2.21612 -1.62333,1.79502 -1.6221,1.811 0.0867,1.12552 0.9534,-0.38246 3.96398,-1.08479 6.69018,-1.56074 z m 42.2801,7.09611 c 0,-0.85441 0.58505,-2.02487 1.30009,-2.601 0.71505,-0.57614 1.30257,-1.47448 1.30558,-1.99632 0.003,-0.52183 1.17413,-1.5944 2.60247,-2.38348 l 2.597,-1.43469 1.73117,3.29445 c 2.34596,4.46439 2.24905,5.19391 -0.55263,4.15977 -1.67805,-0.61939 -2.77006,-0.54138 -4.11697,0.2941 -3.46022,2.14634 -4.86671,2.33915 -4.86671,0.66717 z m -19.46676,-7.59528 c -0.27555,-0.43285 -2.73625,-1.61618 -5.46822,-2.62962 -4.61527,-1.71207 -10.40555,-2.29416 -25.3354,-2.54696 l -3.03355,-0.0513 3.90028,-1.23554 c 7.34137,-2.32561 16.85202,-3.26912 22.8681,-2.26865 7.21784,1.20031 10.42944,2.73569 10.78424,5.15565 0.42867,2.92373 -2.39854,5.64517 -3.71545,3.57648 z m 2.99888,-2.89655 c 0,-1.96982 -2.15999,-3.04951 -8.78825,-4.39288 -6.38159,-1.29339 -15.22767,-1.01393 -18.0804,0.57117 -1.6115,0.89543 -0.98209,0.98487 6.06712,0.86218 3.96132,-0.0689 7.30616,0.49275 11.26749,1.89217 6.66688,2.3552 9.53404,2.67618 9.53404,1.06736 z m -11.69251,-7.04345 c -5.17845,-0.18834 -7.36134,-0.54193 -6.50772,-1.05412 1.96508,-1.17907 0.0433,-2.51183 -4.86638,-3.37469 -3.59639,-0.63206 -2.99311,-0.71419 3.99853,-0.54438 6.84158,0.16618 8.85683,0.54071 11.91755,2.21482 2.02598,1.10815 3.6836,2.32375 3.6836,2.70133 0,0.37758 -0.0975,0.60864 -0.21668,0.51348 -0.11917,-0.0952 -3.72318,-0.30056 -8.0089,-0.45644 z m 3.89193,-1.495 c 0,-0.56324 -3.09581,-1.69854 -6.71631,-2.46303 -2.31447,-0.4887 -2.72575,-0.3662 -2.30916,0.68777 0.28731,0.72689 1.88256,1.42349 3.68276,1.60815 1.74673,0.17917 3.66342,0.38941 4.2593,0.46722 0.59588,0.0778 1.08341,-0.0572 1.08341,-0.30011 z m 6.68707,1.6044 c -0.29463,-0.28604 -0.32077,-1.56329 -0.0581,-2.83834 0.3954,-1.91938 -0.0219,-2.67693 -2.42564,-4.40271 -1.59678,-1.14643 -4.46334,-2.68959 -6.37015,-3.42924 -1.9068,-0.73964 -2.99401,-1.36431 -2.41602,-1.38816 2.08551,-0.0861 10.33009,3.37149 15.67855,6.57514 5.03936,3.0185 5.35311,3.37731 4.05507,4.63751 -1.36394,1.32417 -7.35436,1.92281 -8.46371,0.8458 z m 6.28879,-1.12998 c 0.70124,-0.43055 1.09127,-0.92603 0.86673,-1.10106 -0.22454,-0.17504 -1.67586,-1.16806 -3.22514,-2.2067 l -2.81687,-1.88846 v 3.00241 c 0,2.55645 0.28966,3.00049 1.95014,2.98952 1.07258,-0.007 2.5239,-0.36516 3.22514,-0.79571 z"
     id="pathNG5" />
</svg>
