<?xml version="1.0" encoding="UTF-8" standalone="no"?>
<svg
   xmlns:dc="http://purl.org/dc/elements/1.1/"
   xmlns:cc="http://creativecommons.org/ns#"
   xmlns:rdf="http://www.w3.org/1999/02/22-rdf-syntax-ns#"
   xmlns:svg="http://www.w3.org/2000/svg"
   xmlns="http://www.w3.org/2000/svg"
   id="svgNG6"
   version="1.1"
   viewBox="0 0 100 100"
   height="100"
   width="100">
  <defs
     id="defs2" />
  <metadata
     id="metadata5">
    <rdf:RDF>
      <cc:Work
         rdf:about="">
        <dc:format>image/svg+xml</dc:format>
        <dc:type
           rdf:resource="http://purl.org/dc/dcmitype/StillImage" />
        <dc:title></dc:title>
      </cc:Work>
    </rdf:RDF>
  </metadata>
  <path
     id="pathNG6"
     d="m 50.957423,80.878058 c -1.231634,-0.146045 -1.836254,-0.311367 -1.3436,-0.367377 l 0.895734,-0.10184 -0.895734,-0.384911 c -1.273586,-0.547275 -1.668842,-0.526252 -1.300835,0.0692 0.199583,0.32293 0.122685,0.395386 -0.204805,0.192986 -0.288408,-0.178242 -0.387252,-0.545941 -0.219665,-0.817111 0.191902,-0.310501 0.04645,-0.393926 -0.392882,-0.225335 -0.428775,0.164537 -1.104284,-0.189233 -1.752974,-0.918038 -0.580458,-0.652152 -0.702681,-0.915229 -0.271609,-0.58461 0.984094,0.754759 0.99001,0.387728 0.02311,-1.434235 -0.418357,-0.788331 -0.703295,-1.813777 -0.633199,-2.278774 0.0701,-0.464994 -0.09927,-0.985563 -0.376379,-1.156823 -0.338359,-0.209118 -0.369956,-0.666901 -0.09621,-1.393892 0.224189,-0.595381 0.313525,-1.71276 0.198531,-2.483064 -0.151993,-1.018109 0.124587,-1.904774 1.012855,-3.247036 0.67207,-1.015565 1.3967,-1.846479 1.610297,-1.846479 0.213592,0 0.38835,-0.30231 0.38835,-0.671801 0,-0.36949 0.40308,-1.074881 0.895734,-1.567534 0.97532,-0.97532 1.16054,-2.022814 0.436769,-2.470126 -0.252427,-0.15601 -0.403582,-0.106274 -0.3359,0.11053 0.189685,0.607571 -2.0445,3.696685 -2.676104,3.700138 -0.782419,0.0045 -0.69895,-1.838355 0.137361,-3.032355 0.652761,-0.931949 0.638492,-0.995389 -0.223934,-0.995389 -0.962323,0 -1.078338,-0.389143 -0.925253,-3.103606 0.109141,-1.935327 2.077619,-6.456961 2.65552,-6.099796 0.63779,0.394172 0.443599,4.806621 -0.256663,5.832088 -0.331794,0.485877 -0.603264,1.084814 -0.603264,1.330962 0,0.246147 0.48186,-0.252163 1.070801,-1.107356 0.760375,-1.104126 0.95513,-1.773575 0.6718,-2.309219 -0.611889,-1.1568 -0.473821,-1.534598 0.216047,-0.591153 0.591238,0.808565 0.627766,0.801046 0.94366,-0.194245 0.217516,-0.685326 0.123137,-1.165573 -0.279146,-1.420468 -0.447119,-0.283307 -0.459785,-0.386908 -0.04793,-0.391955 0.778545,-0.0095 0.688551,-2.710151 -0.126209,-3.787361 -0.361657,-0.478151 -0.657558,-1.460145 -0.657558,-2.182205 0,-1.116187 0.100631,-1.229327 0.671801,-0.755296 0.949567,0.788071 0.83339,0.323373 -0.223934,-0.895734 -0.912977,-1.052676 -1.164566,-1.833917 -0.559834,-1.738432 1.223533,0.193192 1.903435,-0.15515 1.903435,-0.975203 0,-0.507192 -0.20154,-0.797606 -0.447867,-0.645367 -0.246327,0.152239 -0.447867,-0.150072 -0.447867,-0.671801 0,-0.521729 0.180423,-0.83709 0.40094,-0.700804 0.220511,0.136286 0.525925,-0.07793 0.678697,-0.476038 0.208617,-0.543652 0.624098,-0.654567 1.669075,-0.44557 1.25289,0.250578 1.330532,0.205025 0.780381,-0.457867 -0.544543,-0.656135 -0.497634,-0.700169 0.431695,-0.405213 0.951834,0.3021 0.998631,0.24871 0.537387,-0.613129 -0.34763,-0.649555 -0.36387,-1.186696 -0.05206,-1.721883 0.281798,-0.483674 0.458329,-0.556121 0.466798,-0.191566 0.0075,0.322446 0.199301,0.471505 0.42624,0.331251 0.234485,-0.144921 0.08947,-1.022319 -0.3359,-2.032309 -0.587414,-1.394756 -0.929289,-1.720816 -1.588374,-1.514905 -0.507899,0.158679 -0.728931,0.08291 -0.559216,-0.191692 0.169881,-0.274874 -0.08018,-0.359722 -0.63362,-0.214998 -0.873081,0.228318 -0.879118,0.27791 -0.134019,1.101237 0.757105,0.836589 0.744355,0.848507 -0.429962,0.402033 -1.016523,-0.386483 -1.210199,-0.340043 -1.210199,0.290173 0,0.557084 -0.130132,0.620157 -0.505342,0.244947 -0.529343,-0.529343 -1.411475,-0.202091 -3.293811,1.221929 -0.822494,0.622235 -0.84323,0.613972 -0.281059,-0.111967 0.68783,-0.8882 0.390549,-0.997856 -0.872565,-0.321855 -0.800733,0.428537 -0.826933,0.371914 -0.362661,-0.783767 0.275237,-0.685124 0.70445,-1.687034 0.953814,-2.226472 0.249359,-0.539434 0.34943,-1.903014 0.222384,-3.030179 -0.127047,-1.12716 -0.07139,-2.148028 0.123683,-2.268589 0.195077,-0.120562 0.506654,-1.074693 0.692393,-2.120292 0.298485,-1.68024 0.372021,-1.771019 0.63302,-0.781421 0.162419,0.615817 0.133271,1.707202 -0.06477,2.425303 -0.389255,1.411444 -0.07057,3.396968 0.545229,3.396968 0.209225,0 0.323405,-0.723847 0.25373,-1.608545 -0.1018,-1.292639 0.08956,-1.750233 0.974375,-2.329984 0.605579,-0.396792 1.387147,-1.335651 1.736819,-2.086357 l 0.63577,-1.364919 -0.252956,1.538145 c -0.139125,0.845981 -0.552873,1.869554 -0.919439,2.2746 -0.986324,1.08988 -0.808852,1.605398 0.229254,0.665925 1.255689,-1.136387 1.11698,-0.392242 -0.223933,1.201345 -1.38416,1.644979 -1.471673,2.808914 -0.09488,1.261923 1.219376,-1.37011 3.442212,-2.848161 3.778143,-2.512229 0.135601,0.135596 -0.436124,0.892769 -1.270491,1.6826 -0.92695,0.87747 -1.187533,1.314132 -0.669924,1.122593 0.719046,-0.266078 0.76154,-0.210355 0.281063,0.368585 -0.423341,0.510094 -0.431425,0.682052 -0.03207,0.682052 0.293689,0 1.407418,0.600944 2.474958,1.335428 1.736707,1.194886 1.973826,1.574261 2.253098,3.604818 0.27396,1.991934 0.168949,2.485734 -0.858937,4.038972 l -1.171061,1.76959 h 1.157298 c 0.636508,0 2.053192,-0.616395 3.148182,-1.36977 4.085309,-2.810764 6.058579,-9.998339 3.773745,-13.745741 -1.10847,-1.818022 -1.461345,-1.822895 -2.138264,-0.02951 -0.296049,0.784318 -0.639039,1.325265 -0.762203,1.202102 -0.123163,-0.123164 0.01218,-0.849492 0.300783,-1.614064 0.413126,-1.094502 0.401468,-1.538633 -0.05482,-2.088426 -0.705695,-0.850311 -2.276942,-0.201079 -2.276942,0.940821 0,0.40188 -0.125667,0.605019 -0.279263,0.451427 -0.153592,-0.153596 -0.122689,-0.640651 0.06868,-1.082346 0.191369,-0.441696 0.367421,-1.105394 0.39123,-1.474885 0.02844,-0.44144 0.580794,-0.703787 1.610821,-0.765082 2.561297,-0.152414 12.440424,1.594837 14.932185,2.640951 2.943687,1.235848 8.356898,4.673734 8.356898,5.307403 0,0.265831 0.182609,0.370471 0.405799,0.232532 0.434194,-0.268344 4.283078,4.075635 4.31716,4.872493 0.0112,0.261752 0.24145,0.432752 0.51167,0.380002 0.270221,-0.05275 0.787225,0.515078 1.148896,1.261847 0.36167,0.746765 0.786423,1.344161 0.943897,1.327545 0.489076,-0.05161 0.380459,0.610205 -0.12796,0.779678 -0.264801,0.08827 -0.481457,-0.03959 -0.481457,-0.2841 0,-0.244522 -1.209241,-1.891906 -2.687202,-3.66086 -1.477961,-1.768954 -2.687202,-3.433133 -2.687202,-3.698185 0,-0.265048 -0.127328,-0.354577 -0.282958,-0.198952 -0.155624,0.155629 -1.057297,-0.379849 -2.003712,-1.189947 -2.330579,-1.994889 -8.743541,-5.116853 -11.180896,-5.443093 l -1.983845,-0.26554 1.343601,0.766246 c 4.053797,2.311841 7.891108,5.859771 10.339892,9.560133 0.65986,0.997118 1.26741,1.812939 1.350108,1.812939 0.16409,0 -0.259865,-1.303078 -0.653146,-2.007528 -0.135104,-0.241996 -0.279563,-0.745846 -0.321023,-1.119667 -0.04147,-0.373822 -0.223718,-1.03237 -0.405019,-1.463442 -0.464098,-1.103468 0.366185,-0.990753 2.35033,0.319074 2.388783,1.57694 2.797762,1.971753 4.88879,4.71943 1.031022,1.354798 2.642922,3.168659 3.581996,4.030803 1.658187,1.52234 1.669644,1.525704 0.397401,0.116638 -0.720506,-0.797991 -1.171468,-1.58944 -1.002138,-1.758774 0.322043,-0.322038 0.791547,0.193515 2.996468,3.290363 1.667632,2.342214 1.678068,2.66454 0.04724,1.458819 -1.204722,-0.890687 -1.370523,-0.906725 -2.631689,-0.25455 -1.966956,1.017151 -2.794189,3.489789 -2.832078,8.46521 -0.01729,2.273539 -0.189031,4.536786 -0.381596,5.029438 -0.340021,0.869888 -0.359257,0.866995 -0.666812,-0.100331 -0.835321,-2.627294 -5.362934,-3.705565 -7.918521,-1.885828 -0.714455,0.508737 -2.257115,2.271106 -3.42814,3.916381 -1.17102,1.645271 -2.884648,3.772321 -3.808065,4.726784 l -1.678937,1.735381 0.994337,-2.03397 c 0.546886,-1.118682 1.182391,-1.917739 1.412236,-1.775689 0.229846,0.14205 0.277754,0.03153 0.106463,-0.245637 -0.171287,-0.277154 -8.96e-4,-1.104445 0.378667,-1.838427 0.379558,-0.733983 0.690105,-1.7595 0.690105,-2.278922 0,-0.519423 0.182743,-0.831464 0.406098,-0.693423 0.223356,0.138041 0.300618,-0.152373 0.171699,-0.645367 -0.128923,-0.492994 -0.01568,-0.896352 0.251643,-0.896352 0.267328,0 0.369056,-0.304877 0.226066,-0.677507 -0.142991,-0.372625 -0.06426,-0.92686 0.174968,-1.231634 0.239223,-0.304769 0.46249,-1.360288 0.496142,-2.345596 0.03363,-0.985307 0.155383,-2.266614 0.270517,-2.847345 0.269042,-1.357091 -0.894561,-6.377165 -1.575749,-6.79816 -1.164638,-0.71979 -3.434566,0.836454 -5.743097,3.937414 l -1.066971,1.433228 -1.318691,-1.109604 c -0.76995,-0.647867 -1.884718,-1.109604 -2.678916,-1.109604 -1.946282,0 -4.550087,1.613983 -5.790083,3.589009 -0.76038,1.211113 -1.220124,1.572721 -1.601689,1.259801 -0.294347,-0.241396 -0.993548,-0.373042 -1.55378,-0.292552 -0.893661,0.128395 -1.020282,0.407232 -1.032352,2.273355 -0.01447,2.237956 0.311138,2.646917 1.07004,1.34396 0.413757,-0.710376 0.457778,-0.713591 0.470121,-0.03435 0.0075,0.412172 -0.49006,1.34799 -1.105662,2.079599 -0.885366,1.052192 -0.985012,1.381719 -0.476804,1.576738 0.353363,0.135596 0.74036,0.006 0.85999,-0.288131 0.119634,-0.294074 0.233423,0.282716 0.25287,1.281745 0.03301,1.695589 -1.453288,4.631447 -2.278622,4.500934 -0.164215,-0.02598 -0.466525,0.13625 -0.671801,0.360488 -0.212047,0.231641 -0.159418,0.28586 0.121874,0.125546 0.5679,-0.323647 0.55901,2.123181 -0.01232,3.385588 -0.387535,0.856335 -2.498198,1.093794 -2.498198,0.281063 0,-1.012058 -1.324217,0.599233 -2.452434,2.984084 -1.926939,4.073221 -1.206303,8.598285 1.8219,11.440118 1.020819,0.957992 1.546673,1.078092 4.586673,1.047538 3.989044,-0.04008 6.922192,-1.164933 8.772873,-3.364345 1.544684,-1.835749 1.799538,-3.100825 1.006863,-4.997972 -1.24061,-2.969192 -4.731415,-3.163692 -7.603362,-0.423646 l -1.257293,1.199549 0.406359,-1.116076 c 0.591753,-1.625282 3.041017,-3.131477 5.092172,-3.131477 1.336502,0 2.086518,0.33225 3.285753,1.455568 2.869686,2.688008 2.157882,6.70567 -1.701688,9.604964 -1.828972,1.373917 -4.577375,2.729346 -3.000476,1.479744 0.573171,-0.454205 0.551356,-0.493285 -0.148598,-0.266181 -0.451217,0.146399 -1.055837,0.269267 -1.343601,0.273038 -0.306686,0.004 -0.245189,0.199444 0.148598,0.472231 0.497083,0.344347 0.118801,0.429101 -1.45452,0.325899 -1.169475,-0.07671 -2.177175,-0.03731 -2.239335,0.0876 -0.06216,0.124892 -1.120715,0.107586 -2.352349,-0.03847 z m -3.806869,-2.197729 c 0,-0.246326 -0.213435,-0.447867 -0.4743,-0.447867 -0.260865,0 -0.349739,0.201541 -0.1975,0.447867 0.152239,0.246327 0.365674,0.447867 0.4743,0.447867 0.108625,0 0.1975,-0.20154 0.1975,-0.447867 z m 1.781507,-21.485303 c 0.01182,-0.783029 -1.009268,0.590557 -1.48905,2.003089 -0.244746,0.720574 -0.129872,0.676781 0.587427,-0.223933 0.490414,-0.615817 0.896146,-1.416438 0.901623,-1.779156 z m 3.657479,-3.065398 c 0.09816,-1.663598 -0.430848,-3.367082 -0.570201,-1.836129 -0.08854,0.972713 -0.329671,2.709487 -0.616633,4.441348 l -0.259736,1.567534 0.668733,-1.161847 c 0.367806,-0.639017 0.717828,-1.993927 0.777837,-3.010906 z m 0.383285,-5.177616 c 0,-0.093 -0.352695,-0.445695 -0.783767,-0.783767 -0.710344,-0.557088 -0.726185,-0.541247 -0.169097,0.169097 0.58508,0.746034 0.952864,0.983283 0.952864,0.61467 z m 24.047318,-3.293349 c -0.113552,-0.435762 -0.213928,-0.18767 -0.223056,0.55131 -0.0091,0.738981 0.08378,1.09551 0.206462,0.792291 0.12268,-0.30322 0.130146,-0.90784 0.01662,-1.343601 z m -27.475704,0.08413 c -0.145866,-0.380114 -0.361263,-0.595063 -0.478658,-0.477664 -0.117399,0.1174 -0.08061,0.428403 0.08176,0.691117 0.441619,0.714554 0.699739,0.575738 0.3969,-0.213453 z m 7.321689,-0.979861 c -0.113552,-0.435762 -0.213928,-0.18767 -0.223055,0.55131 -0.0091,0.738981 0.08378,1.09551 0.206462,0.792291 0.122679,-0.30322 0.130145,-0.90784 0.01657,-1.343601 z m -4.184712,0.117789 c 0.138758,-0.361604 0.05955,-0.776579 -0.176016,-0.922167 -0.235569,-0.145593 -0.428309,0.150263 -0.428309,0.657455 0,1.081406 0.249063,1.190502 0.604325,0.264712 z m 3.053149,-1.404408 c -0.226522,-1.287685 -0.723385,-1.600104 -2.02516,-1.27338 -1.514126,0.380024 -1.500153,0.881451 0.04719,1.692986 1.540707,0.80806 2.170431,0.674466 1.977973,-0.419606 z m -4.346602,-2.318446 c 0.139721,-0.793079 0.09081,-1.441962 -0.10868,-1.441962 -0.199493,0 -0.413103,0.748175 -0.47469,1.662612 -0.132362,1.965429 0.221838,1.831454 0.58337,-0.22065 z m 33.86441,0.593912 c 0.222464,0.13749 0.277973,-0.07969 0.123351,-0.482631 -0.224999,-0.586334 -0.356739,-0.613336 -0.659811,-0.135229 -0.208276,0.328564 -0.365858,0.798928 -0.350183,1.045255 0.01568,0.246326 0.130571,0.194687 0.255329,-0.114757 0.124754,-0.309445 0.408845,-0.450134 0.631314,-0.312638 z M 60.220374,39.491972 c 0.731855,-0.615818 1.164029,-1.118665 0.960388,-1.117442 -0.507124,0.0031 -3.153453,2.200863 -2.674254,2.221004 0.210771,0.0089 0.982007,-0.487745 1.713866,-1.103562 z m 15.89961,-0.755776 c -0.142968,-0.357277 -0.249095,-0.251155 -0.270583,0.270588 -0.01944,0.472123 0.0864,0.736647 0.235228,0.587825 0.148822,-0.148826 0.16473,-0.535111 0.03534,-0.858413 z m 7.926552,0.284646 c 0.152942,-0.398565 0.07786,-0.578339 -0.176017,-0.421434 -0.243505,0.150493 -0.442739,0.463274 -0.442739,0.695063 0,0.644225 0.321018,0.502265 0.618756,-0.273629 z M 52.25489,38.297655 c -0.126863,-0.205271 -0.42031,-0.373221 -0.652099,-0.373221 -0.231789,0 -0.421434,0.16795 -0.421434,0.373221 0,0.205275 0.293447,0.373226 0.652099,0.373226 0.358656,0 0.548301,-0.167951 0.421434,-0.373226 z m 11.105995,-0.26954 c -0.297312,-0.0991 -0.420597,-0.3743 -0.273969,-0.611549 0.16133,-0.261043 0.560313,-0.201732 1.010491,0.150219 0.634994,0.496448 0.674308,0.48324 0.26855,-0.09022 -0.676629,-0.956272 -0.55171,-1.617857 0.488461,-2.58692 0.982665,-0.915494 2.514782,-1.150225 2.359776,-0.361536 -0.05245,0.266852 0.06104,1.079297 0.252211,1.805432 0.670941,2.548538 1.031944,0.264108 0.511362,-3.235906 -0.696111,-4.680138 -2.286447,-8.827494 -3.908258,-10.192158 -1.677181,-1.411256 -2.610227,-1.439288 -1.294627,-0.03887 0.554039,0.589751 1.295035,2.3264 1.659813,3.89007 0.362428,1.553587 0.863891,3.071637 1.114365,3.373437 0.310323,0.373915 0.302601,0.643164 -0.02423,0.845161 -1.020666,0.630807 -3.218582,5.706452 -2.9443,6.799279 0.169979,0.677251 0.467972,0.96093 0.796277,0.758024 0.397419,-0.245619 0.393558,-0.367945 -0.0159,-0.504437 z m 12.67709,-0.551548 C 75.885736,37.23024 76.056515,37.0287 76.41748,37.0287 c 0.38564,0 0.59225,-0.32323 0.500988,-0.783767 -0.08543,-0.431072 -0.244938,-1.690698 -0.354473,-2.799169 -0.190326,-1.926061 -0.174673,-1.958477 0.353107,-0.731241 0.426732,0.992267 0.614384,1.122274 0.825558,0.571962 0.159758,-0.416324 -0.202723,-1.321942 -0.872517,-2.179894 -0.630198,-0.807236 -0.206726,-0.477655 0.941049,0.732392 1.147776,1.210047 2.469069,2.923138 2.936199,3.80687 0.467134,0.883731 0.858243,1.445616 0.869126,1.248639 0.118801,-2.149497 -7.192834,-11.014182 -10.079296,-12.220225 -2.78928,-1.165435 -3.078535,-0.797562 -1.174455,1.493659 0.972355,1.170052 2.112208,2.809854 2.53301,3.644007 0.978486,1.93964 2.445072,6.309926 2.459385,7.328734 0.006,0.431072 0.224449,0.783767 0.485314,0.783767 0.260864,0 0.349739,-0.20154 0.1975,-0.447867 z m 7.389805,-0.5862 c 0,-0.32241 -0.299542,-0.977416 -0.665646,-1.455567 -0.608992,-0.795372 -0.624323,-0.745475 -0.180124,0.586199 0.506963,1.519833 0.84577,1.868089 0.84577,0.869368 z M 71.34295,33.667293 c 1.42109,-0.451038 1.485382,-1.841289 0.194804,-4.212512 -2.029751,-3.729317 -6.70516,-7.999643 -4.867275,-4.445563 1.185208,2.291941 2.425083,6.229726 2.431671,7.722893 0.0036,0.762 0.139457,1.884104 0.302431,2.493571 l 0.296313,1.108117 0.399861,-1.199581 c 0.21992,-0.659766 0.778907,-1.319886 1.242195,-1.466925 z M 48.046288,32.049928 c 0,-0.786073 -0.238673,-1.048774 -1.067822,-1.17531 -0.659068,-0.100577 -0.734968,0.0027 -0.346555,0.470462 0.364774,0.439528 0.3636,0.732979 -0.0045,1.100973 -0.37039,0.370391 -0.250367,0.435994 0.458522,0.250618 0.528133,-0.138113 0.960244,-0.429146 0.960244,-0.646743 z m -0.895734,-2.6614 c 0,-0.231789 -0.20154,-0.421434 -0.447867,-0.421434 -0.246327,0 -0.447867,0.314206 -0.447867,0.698234 0,0.384028 0.20154,0.573673 0.447867,0.421434 0.246327,-0.152239 0.447867,-0.466445 0.447867,-0.698234 z m -3.547577,44.999744 c 0.0215,-0.521742 0.127615,-0.627864 0.270584,-0.270588 0.129379,0.323302 0.113467,0.709587 -0.03538,0.858414 -0.148822,0.148821 -0.254675,-0.115702 -0.235229,-0.587826 z m -0.395914,-2.202014 c 0.0091,-0.73898 0.109503,-0.987072 0.223055,-0.551311 0.113553,0.435761 0.106087,1.040382 -0.01662,1.343601 -0.122685,0.30322 -0.21559,-0.05331 -0.206463,-0.79229 z m 0.472522,-2.265602 c -0.739303,-0.802547 -0.684229,-1.95855 0.158773,-3.332735 0.461223,-0.751848 0.586442,-0.82541 0.381184,-0.223934 -0.703294,2.06086 -0.730287,2.500997 -0.193093,3.148277 0.714594,0.861033 0.405427,1.225041 -0.346864,0.408392 z M 27.211336,61.077728 c -0.744005,-0.520834 -2.054016,-1.930311 -2.911135,-3.132171 -0.857119,-1.20186 -1.776133,-2.421205 -2.042256,-2.709654 -0.266118,-0.288453 -0.391126,-0.802635 -0.277798,-1.142629 0.118895,-0.356681 0.0036,-0.493097 -0.272384,-0.322482 -0.263144,0.16263 -0.656107,-0.02177 -0.873251,-0.409793 -0.217148,-0.388019 -1.388177,-1.184246 -2.602295,-1.769398 -2.080454,-1.002689 -2.258043,-1.020621 -3.086108,-0.311634 -0.865185,0.740772 -0.866748,0.73344 -0.102109,-0.479357 0.622562,-0.987448 0.651816,-1.231634 0.147558,-1.231634 -0.368702,0 -0.87382,0.880278 -1.220718,2.127368 -0.57111,2.05317 -0.5973,2.077749 -0.75088,0.704764 -0.15538,-1.389114 1.176612,-4.704915 2.125638,-5.291446 0.249847,-0.154411 0.454267,-0.498588 0.454267,-0.764836 0,-0.266243 -0.739084,0.299578 -1.642409,1.257378 -1.988176,2.108078 -2.438646,1.427513 -0.825656,-1.247395 1.066541,-1.768716 1.077057,-1.829707 0.12151,-0.704669 -0.57536,0.677399 -1.18968,1.231634 -1.36517,1.231634 -0.47019,0 -0.38788,-2.43632 0.1314,-3.88968 0.42018,-1.176005 0.40512,-1.202326 -0.22393,-0.391422 C 11.62468,43.078823 11.3166,43.683444 11.311,43.944273 11.305,44.205101 10.97791,43.7635 10.58326,42.962938 10.18861,42.162376 9.68664,41.50737 9.46778,41.50737 c -0.21887,0 -0.0903,-0.736334 0.28575,-1.6363 0.94553,-2.262982 0.58635,-2.314214 -0.86361,-0.123177 -0.67032,1.012919 -1.32516,1.73527 -1.45519,1.605232 -0.13004,-0.130039 -0.73106,-0.04838 -1.33558,0.181462 L 5,41.952478 6.39826,39.32907 c 1.46166,-2.742356 6.99252,-9.176149 7.57753,-8.814591 0.185916,0.1149 0.783335,-0.393402 1.327601,-1.129556 0.544266,-0.736159 1.159818,-1.233256 1.367893,-1.104655 0.208079,0.128596 0.492582,-0.06394 0.632231,-0.427865 0.157036,-0.40923 0.544719,-0.550084 1.016134,-0.369182 0.498163,0.191163 0.65544,0.119706 0.453981,-0.206256 -0.413301,-0.668732 3.599999,-2.995845 4.97092,-2.882382 0.58401,0.04833 0.956214,-0.08301 0.827126,-0.291884 -0.351021,-0.567967 7.248969,-2.718266 10.437706,-2.953186 1.600931,-0.117946 3.259517,0.01375 3.910788,0.310462 0.861494,0.392528 1.336345,0.386952 1.993429,-0.02342 0.786772,-0.491346 0.859788,-0.410456 0.831071,0.920694 -0.01733,0.802649 -0.222989,1.862441 -0.457058,2.355095 -0.390217,0.821303 -0.409099,0.809721 -0.22722,-0.139363 0.126831,-0.661831 -0.05331,-1.131675 -0.499551,-1.302912 -0.740857,-0.284293 -2.118335,0.374515 -2.18122,1.043221 -0.02065,0.219477 -0.243075,0.902904 -0.494297,1.518721 -0.672535,1.648563 -0.0511,5.753533 1.217248,8.040691 1.153267,2.079648 4.248897,4.763728 6.001449,5.203592 0.747795,0.187683 1.383291,-0.109665 2.393599,-1.119977 1.429555,-1.429551 2.970159,-2.002471 1.892269,-0.703697 -0.30665,0.36949 -0.828854,0.6718 -1.16045,0.6718 -0.371667,0 -0.506206,0.300609 -0.350779,0.783767 0.190483,0.592148 0.14669,0.636343 -0.179133,0.180773 -0.328013,-0.458638 -0.552565,-0.255007 -0.937981,0.850598 -0.278699,0.799478 -0.506726,1.838494 -0.506726,2.308929 0,0.470435 -0.20154,0.730776 -0.447867,0.578537 -0.246327,-0.152239 -0.447867,-0.06336 -0.447867,0.1975 0,0.260865 0.159804,0.4743 0.355118,0.4743 0.518581,0 2.036931,4.713142 1.750502,5.43376 -0.150582,0.378837 -0.256923,0.260036 -0.278793,-0.311465 -0.04635,-1.211238 -2.411522,-3.456404 -3.433756,-3.259544 -0.461455,0.08887 -0.956809,0.76011 -1.171038,1.586855 -0.204209,0.788058 -0.577712,1.560413 -0.830014,1.716343 -0.293424,0.181346 -0.354065,-0.133483 -0.168286,-0.873686 0.392193,-1.562635 -0.502247,-1.500847 -1.07759,0.07444 l -0.449833,1.231634 -0.04223,-1.119667 c -0.03449,-0.914361 -0.128457,-0.996482 -0.512561,-0.447867 -0.360668,0.515146 -0.401567,0.410707 -0.175394,-0.447867 0.162222,-0.615817 0.679275,-1.396176 1.149003,-1.734128 1.171011,-0.8425 1.075597,-1.263374 -0.467305,-2.06124 -2.500338,-1.292974 -4.433937,-0.817967 -5.944516,1.460333 l -0.678917,1.023967 -2.326553,-2.685572 c -1.82422,-2.105722 -2.779659,-2.818754 -4.425109,-3.302392 -3.447138,-1.013196 -3.827104,-0.563148 -3.456655,4.094221 0.169589,2.132138 0.396478,4.380462 0.504204,4.996279 0.175353,1.002429 0.14935,1.025875 -0.248325,0.223933 -0.335756,-0.67708 -0.377847,-0.458427 -0.172419,0.895734 0.149471,0.985308 0.471702,2.043394 0.716072,2.351302 0.244369,0.307909 0.294186,0.559834 0.110699,0.559834 -0.183487,0 -0.101012,0.280266 0.183281,0.622817 0.284292,0.342551 0.560895,1.229843 0.61467,1.971765 0.05378,0.741919 0.27053,1.242576 0.481663,1.112564 0.211138,-0.130011 0.239932,0.217176 0.06399,0.771523 -0.216212,0.681224 -0.160847,0.909609 0.170821,0.704625 0.300174,-0.185516 0.393903,-0.05098 0.241382,0.346478 -0.137132,0.357371 -0.0027,0.802059 0.298262,0.988197 0.350174,0.216418 0.432389,0.152015 0.228036,-0.178632 -0.175761,-0.284387 -0.233684,-0.517067 -0.128713,-0.517067 0.104967,0 0.72434,0.80616 1.376385,1.791468 0.652045,0.985307 1.132293,1.772442 1.067218,1.749194 -0.06508,-0.02325 -0.727054,-0.468415 -1.471059,-0.989249 z M 22.823812,44.558464 c -0.142968,-0.357277 -0.249095,-0.251155 -0.270583,0.270588 -0.01944,0.472123 0.08641,0.736647 0.235228,0.587825 0.148822,-0.148826 0.164735,-0.535111 0.03534,-0.858413 z m 20.751111,-1.926912 c 0.208267,0.128717 0.524506,-0.0018 0.702748,-0.290343 0.2024,-0.32749 0.129944,-0.404388 -0.192986,-0.204805 -0.315442,0.194952 -0.529343,0.0036 -0.548547,-0.490634 -0.02808,-0.723207 -0.07281,-0.714021 -0.416387,0.08553 -0.211702,0.492653 -0.383164,1.097274 -0.381032,1.343601 0.0022,0.246326 0.105952,0.194687 0.23071,-0.114757 0.124753,-0.309445 0.397227,-0.457313 0.605494,-0.328596 z m -1.741889,-3.25155 c -0.573575,-1.064016 -2.686517,-3.006025 -2.966255,-2.726292 -0.204169,0.204174 2.83202,3.510059 3.223707,3.510059 0.09077,0 -0.02508,-0.352695 -0.257452,-0.783767 z M 18.092012,35.493806 c 0.220758,0.136438 0.522289,-0.06702 0.670067,-0.452122 0.147779,-0.385102 0.56133,-0.700186 0.919005,-0.700186 0.357672,0 0.517372,-0.215106 0.354886,-0.478013 -0.162486,-0.262907 0.08142,-0.576561 0.542013,-0.697006 0.460595,-0.12045 1.316106,-0.917559 1.901142,-1.771359 0.58503,-0.8538 1.164109,-1.451949 1.286842,-1.329215 0.122729,0.122729 0.01173,0.479938 -0.246627,0.793799 -0.258379,0.313865 -0.60428,1.578359 -0.768674,2.809994 l -0.298893,2.239335 1.401613,-2.765588 c 1.431262,-2.824079 5.299503,-7.130504 7.654616,-8.5217 0.720945,-0.425872 1.310808,-0.920169 1.310808,-1.098434 0,-0.416789 -3.911119,0.897208 -5.374404,1.805603 -2.465422,1.530518 -6.020882,4.864167 -7.448063,6.983411 -0.8301,1.232633 -1.509276,2.00381 -1.509276,1.713727 0,-0.290083 0.20154,-0.651982 0.447867,-0.804221 0.246326,-0.152239 0.447867,-0.478336 0.447867,-0.724663 0,-0.246326 -0.201541,-0.32331 -0.447867,-0.171071 -1.091994,0.67489 -0.264667,-0.698543 1.849986,-3.071127 1.422627,-1.596153 2.540301,-2.485098 2.934393,-2.333871 0.350102,0.134347 0.5252,0.0641 0.389107,-0.1561 -0.136093,-0.220202 0.694153,-1.024056 1.844988,-1.786339 2.356752,-1.561045 2.342188,-1.695912 -0.07412,-0.686316 -0.92098,0.384811 -1.963762,0.588658 -2.317291,0.452999 -0.353528,-0.135663 -0.537861,-0.0769 -0.409632,0.130589 0.314026,0.508096 -1.918331,1.493758 -2.52872,1.116519 -0.287589,-0.17774 -0.354021,-0.08931 -0.163942,0.218241 0.285354,0.46172 -0.249851,0.71837 -1.188867,0.570104 -0.184745,-0.02916 -0.285515,0.198888 -0.223934,0.506797 0.06158,0.307909 -0.232823,0.533159 -0.654235,0.500559 -0.421416,-0.03261 -0.723726,0.168935 -0.6718,0.447867 0.05192,0.278927 -0.308679,0.507406 -0.801333,0.507733 -0.492654,3.27e-4 -0.895734,0.248369 -0.895734,0.551208 0,0.602327 -1.770082,2.007501 -2.10586,1.671726 -0.11446,-0.11447 -0.20812,0.100904 -0.20812,0.478604 0,0.472589 0.14431,0.542416 0.462798,0.223934 0.254536,-0.254537 0.752963,-0.462795 1.107615,-0.462795 0.354648,0 0.919458,-0.352695 1.255125,-0.783767 0.570377,-0.732486 0.590495,-0.727399 0.307519,0.07775 -0.244562,0.695865 -0.148383,0.802269 0.500214,0.55338 0.666731,-0.255848 0.766905,-0.119334 0.59032,0.804427 -0.116974,0.611912 -0.04026,1.006004 0.170489,0.875755 0.639846,-0.395449 0.442036,0.171202 -0.915319,2.622006 -0.714164,1.289485 -1.422269,2.848367 -1.573558,3.464184 -0.151294,0.615817 0.253829,0.06349 0.900266,-1.227379 0.646438,-1.290878 1.355967,-2.235421 1.576725,-2.098983 z m 5.769458,-6.218552 c 0,-0.07684 0.655006,-0.612606 1.455568,-1.190592 l 1.455568,-1.050884 -1.085768,1.190592 c -0.927443,1.016976 -1.825368,1.533922 -1.825368,1.050884 z m 10.208609,6.969679 c -0.07529,-0.448418 0.114587,-0.733642 0.443782,-0.666619 0.316459,0.06443 0.966274,0.176805 1.444027,0.249717 0.477753,0.07291 1.008198,0.272115 1.178763,0.442681 0.499157,0.499161 0.941385,0.360533 1.22738,-0.384753 0.146654,-0.382183 -0.340567,-1.897765 -1.082719,-3.367956 -0.961069,-1.903864 -1.234339,-2.896042 -0.949639,-3.447895 0.219853,-0.42615 0.503447,-1.741965 0.630216,-2.924038 0.219083,-2.042878 0.190814,-2.113319 -0.571281,-1.423635 -1.4894,1.347891 -2.808708,5.196247 -3.028952,8.835296 -0.149789,2.474998 -0.05941,3.470969 0.314976,3.470969 0.288776,0 0.465827,-0.352695 0.393447,-0.783767 z m -1.699136,-2.842204 c 0,-2.646191 1.179794,-6.314446 2.710464,-8.427473 0.729276,-1.006738 1.230054,-1.830433 1.112838,-1.830433 -0.117216,0 -0.975029,0.42448 -1.906243,0.943289 -4.076982,2.271411 -8.42191,6.881275 -7.861723,8.341097 0.225228,0.586934 0.336434,0.541991 0.631323,-0.255177 0.425021,-1.14894 1.363902,-1.319707 1.010732,-0.183836 -0.227722,0.732406 -0.210322,0.731788 0.265514,-0.0094 0.280069,-0.436254 0.698363,-0.676283 0.929552,-0.533405 0.231189,0.142883 0.420341,0.05268 0.420341,-0.200456 0,-0.253135 0.302311,-0.344235 0.671801,-0.202449 0.36949,0.14179 0.6718,0.740082 0.6718,1.329546 0,0.589465 0.182672,1.071751 0.405938,1.071751 0.223266,0 0.300528,0.40308 0.171699,0.895734 -0.130961,0.5008 -0.01375,0.895734 0.265863,0.895734 0.286827,0 0.500101,-0.782339 0.500101,-1.834504 z M 12.88873,33.074209 c 0.49265,-0.273315 0.65504,-0.503071 0.36087,-0.510559 -0.29417,-0.0075 -1.00944,0.439846 -1.58948,0.994081 -0.58004,0.554235 -0.74243,0.783987 -0.36087,0.510559 0.38156,-0.273427 1.09683,-0.720761 1.58948,-0.994081 z m 7.82437,-2.427614 1.050884,-1.455567 -1.190592,1.085768 c -0.654826,0.597177 -1.190591,1.252183 -1.190591,1.455568 0,0.621877 0.237194,0.428282 1.330299,-1.085769 z m 28.079635,18.175934 c -0.16422,-0.164215 -0.29858,-0.506833 -0.29858,-0.761374 0,-0.280633 0.208603,-0.254191 0.529974,0.06718 0.29149,0.291489 0.42585,0.634108 0.29858,0.761373 -0.12727,0.127271 -0.36576,0.09704 -0.529974,-0.06718 z m 2.902218,-13.361363 c 0.405642,-0.492654 0.835729,-1.298815 0.955748,-1.791468 0.209871,-0.861477 0.220203,-0.859851 0.270171,0.04255 0.02857,0.516059 -0.401512,1.32222 -0.955748,1.791468 -0.999428,0.846178 -1.001645,0.845828 -0.270171,-0.04255 z M 38.650065,26.066784 c -0.353255,-0.425649 -0.387234,-0.682626 -0.09025,-0.682626 0.54127,0 1.172332,0.849694 0.861741,1.160289 -0.112728,0.112728 -0.459897,-0.102221 -0.771487,-0.477663 z m 19.284656,-1.391747 c 0.0215,-0.521743 0.127615,-0.627865 0.270583,-0.270588 0.129376,0.323307 0.113467,0.709587 -0.03534,0.858414 -0.148827,0.148821 -0.254676,-0.115702 -0.235229,-0.587826 z"
     style="fill:#000000;stroke-width:0.44786701" />
</svg>
