<?xml version="1.0" encoding="UTF-8" standalone="no"?>
<svg
   xmlns:dc="http://purl.org/dc/elements/1.1/"
   xmlns:cc="http://creativecommons.org/ns#"
   xmlns:rdf="http://www.w3.org/1999/02/22-rdf-syntax-ns#"
   xmlns:svg="http://www.w3.org/2000/svg"
   xmlns="http://www.w3.org/2000/svg"
   id="svgW1"
   version="1.1"
   viewBox="0 0 100 100"
   height="100"
   width="100">
  <defs
     id="defs2" />
  <metadata
     id="metadata5">
    <rdf:RDF>
      <cc:Work
         rdf:about="">
        <dc:format>image/svg+xml</dc:format>
        <dc:type
           rdf:resource="http://purl.org/dc/dcmitype/StillImage" />
        <dc:title></dc:title>
      </cc:Work>
    </rdf:RDF>
  </metadata>
  <path
     id="pathW1"
     d="m 45.873037,94.19394 c -0.260559,-0.486863 -0.379639,-1.245061 -0.264622,-1.684884 0.115017,-0.439828 0.061,-0.708142 -0.12005,-0.596251 -0.181045,0.111895 -0.329173,-0.277996 -0.329173,-0.866421 0,-0.668323 0.192628,-0.99595 0.51324,-0.872917 0.344819,0.132321 0.449616,-0.135879 0.319354,-0.817303 -0.137729,-0.720476 -0.0039,-1.014245 0.461965,-1.014245 0.360719,0 0.759684,0.168006 0.88659,0.373346 0.467863,0.757012 3.138473,0.936901 4.37976,0.295002 2.249717,-1.16337 2.996291,-5.545856 0.849105,-4.984357 -0.573686,0.150026 -0.80933,0.07542 -0.637902,-0.201957 0.152626,-0.246952 -0.04933,-0.414544 -0.460501,-0.382137 -0.402793,0.03175 -0.699171,-0.136558 -0.658617,-0.374015 0.04552,-0.266569 -1.645922,-0.477073 -4.4213,-0.550242 -3.307131,-0.08718 -4.915138,-0.322167 -6.08471,-0.889187 -1.537172,-0.745237 -1.603234,-0.745367 -2.000113,-0.0036 -0.669141,1.250308 -0.457772,2.981015 0.691814,5.664646 0.595242,1.38955 1.173244,2.910717 1.284447,3.380372 0.251744,1.063213 -1.184942,2.454742 -2.250098,2.179372 -0.611248,-0.158024 -0.572785,-0.208582 0.188235,-0.247449 1.804058,-0.09213 1.98416,-1.648172 0.543301,-4.693903 -1.890037,-3.995225 -1.70346,-6.105884 0.790864,-8.946762 l 1.294338,-1.474172 -1.061067,-0.26631 c -0.583582,-0.146468 -2.583986,-0.139298 -4.445341,0.0159 -2.886956,0.240761 -3.341156,0.38137 -3.090846,0.956814 0.16139,0.37102 0.38369,1.878024 0.49399,3.348907 l 0.20055,2.674322 -2.63086,2.442067 c -1.98051,1.838391 -2.63086,2.72446 -2.63086,3.584442 0,1.613771 0.7068,1.879076 4.30749,1.616853 1.74163,-0.126845 3.5813,-0.07019 4.088143,0.125903 0.588932,0.227847 -0.626856,0.340266 -3.368603,0.311485 -2.35958,-0.02476 -4.76386,-0.249598 -5.34284,-0.499637 -0.57898,-0.250039 -0.80465,-0.466625 -0.50149,-0.481305 0.30315,-0.01466 0.43409,-0.216177 0.29096,-0.447764 -0.32625,-0.527875 -3.57915,-0.559769 -3.57915,-0.03507 0,0.212292 0.23685,0.491547 0.52634,0.620568 0.28949,0.129016 0.0675,0.192177 -0.49336,0.140355 -0.56084,-0.05182 -1.09635,-0.378444 -1.19002,-0.725832 -0.15138,-0.561432 -0.12067,-0.561432 0.27638,0 0.24567,0.347388 0.44958,0.432653 0.45313,0.189483 0.004,-0.24317 -0.17836,-0.626944 -0.40424,-0.852828 -0.49274,-0.492727 0.35637,-3.630685 0.89274,-3.299199 0.19275,0.119127 0.23823,-0.07587 0.10105,-0.433338 -0.28486,-0.742341 1.02739,-1.444676 1.45951,-0.781145 0.15032,0.230826 0.74702,0.527366 1.326,0.658978 0.57898,0.131616 1.48236,0.37231 2.00752,0.534877 0.75877,0.234893 1.25592,-0.02367 2.42119,-1.259213 1.25303,-1.328616 1.46636,-1.847601 1.46636,-3.567373 0,-2.927019 -0.67683,-4.524675 -2.13168,-5.031844 -2.90084,-1.011236 -4.15317,-3.761794 -2.67415,-5.87339 0.46603,-0.665354 0.53832,-1.110373 0.23896,-1.47108 -0.23606,-0.284434 -0.39518,-1.396025 -0.35361,-2.470199 0.0416,-1.074175 0.22028,-1.733365 0.39712,-1.464869 0.17685,0.268495 0.21359,1.246107 0.0817,2.172477 -0.1766,1.239996 -0.12394,1.517686 0.19962,1.052688 0.33211,-0.477306 0.44106,-0.494447 0.44594,-0.07018 0.004,0.308791 0.2433,0.482486 0.53279,0.385985 0.59611,-0.198703 0.61416,-0.564793 0.1656,-3.358791 -0.17574,-1.094662 -0.48027,-2.089647 -0.67675,-2.211069 -0.19647,-0.121422 -0.26626,-0.568585 -0.15509,-0.993691 0.13276,-0.507657 -0.16983,-1.016629 -0.88168,-1.483057 -1.28518,-0.842075 -1.41425,-0.465112 -0.26104,0.76242 0.61447,0.654072 0.71102,1.034054 0.38136,1.500902 -0.36981,0.523689 -0.4038,0.507744 -0.20955,-0.09829 0.12753,-0.397869 0.043,-0.840137 -0.18788,-0.982813 -0.23086,-0.142681 -0.88467,-0.995908 -1.45291,-1.896061 -0.66927,-1.06019 -1.2494,-1.553666 -1.64708,-1.401059 -1.1418,0.43815 -1.59283,-0.26076 -0.87514,-1.356093 0.52768,-0.805346 0.56659,-1.205621 0.18628,-1.916242 -0.70716,-1.321346 -0.26777,-4.922149 0.88143,-7.223191 0.55244,-1.10615 1.82835,-2.976428 2.83537,-4.156176 l 1.83094,-2.144997 -0.86172,-0.917257 c -0.49957,-0.531768 -0.86172,-1.486531 -0.86172,-2.27183 0,-0.815627 -0.2513,-1.451007 -0.63161,-1.596947 -0.79294,-0.304278 -0.81932,-1.265551 -0.0469,-1.710384 0.32157,-0.185202 0.65547,-0.715699 0.74201,-1.178883 0.0907,-0.48532 0.69041,-1.020569 1.41544,-1.263229 1.85242,-0.619995 2.31079,-1.006838 2.31079,-1.950255 0,-0.843479 -0.006,-0.843351 -1.10948,0.02485 -0.61021,0.479993 -1.32078,0.872006 -1.57904,0.871141 -0.25825,-8.81e-4 0.14627,-0.377051 0.89894,-0.835965 0.75267,-0.458914 1.3685,-1.1214 1.3685,-1.472193 0,-1.289264 0.63491,-0.589776 0.73445,0.809158 0.11141,1.565598 -0.73119,2.763801 -1.94354,2.763801 -0.94296,0 -1.73845,0.809247 -1.73845,1.76852 0,0.416865 -0.28422,0.757937 -0.63161,0.757937 -0.34739,0 -0.63162,0.195431 -0.63162,0.434291 0,0.238861 0.28423,0.54336 0.63162,0.676665 0.38392,0.147322 0.63161,0.784375 0.63161,1.624441 0,3.047501 2.81614,4.350707 7.194432,3.329321 1.392642,-0.324881 3.045943,-0.856423 3.674001,-1.181203 1.021757,-0.528371 1.246019,-0.506218 2.131152,0.210521 1.321863,1.07038 2.130115,1.012641 4.910026,-0.350755 1.926524,-0.944855 2.307485,-1.304194 2.120459,-2.000111 -0.125392,-0.46658 -0.230572,-2.340032 -0.233735,-4.163226 -0.0053,-3.069926 -0.05887,-3.272192 -0.724574,-2.736996 -0.395354,0.317848 -0.179446,-0.137819 0.479794,-1.012592 1.362001,-1.807294 1.741038,-1.824093 1.05902,-0.04694 -0.264007,0.687931 -0.406323,2.913245 -0.327588,5.122335 l 0.139213,3.905979 -2.645571,1.466397 c -2.519754,1.396659 -2.703718,1.436328 -3.868253,0.834123 -0.672476,-0.347751 -1.340194,-0.822411 -1.483821,-1.054801 -0.167126,-0.270416 -0.676119,-0.207928 -1.413871,0.173576 -2.226309,1.15127 -6.075314,1.911992 -7.750044,1.531729 -1.52188,-0.345556 -1.64753,-0.285106 -3.31991,1.59723 -3.40971,3.83776 -5.16133,9.467515 -3.60706,11.593111 0.49043,0.670699 0.64531,0.529184 1.56132,-1.426538 1.49815,-3.198608 4.55548,-5.456322 7.40847,-5.470849 0.2536,-0.0013 0.80405,-0.381319 1.223224,-0.844502 0.41918,-0.463184 1.129306,-0.842152 1.57807,-0.842152 0.448764,0 1.967558,-1.042164 3.375103,-2.315919 1.407548,-1.273756 2.76374,-2.313818 3.013764,-2.31125 0.250024,0.0026 -0.208014,0.52365 -1.017862,1.15796 -0.809847,0.634309 -2.02893,1.647604 -2.709079,2.251764 l -1.236628,1.098478 0.919507,1.168958 c 0.505724,0.642928 0.919501,1.424867 0.919501,1.737647 0,0.436689 0.513101,0.362049 2.210652,-0.321589 2.418242,-0.973878 5.58907,-1.996167 10.349415,-3.336709 3.532264,-0.994704 3.96364,-1.576694 4.5044,-6.077097 0.166965,-1.389552 0.428519,-2.715942 0.58123,-2.947534 0.152712,-0.231591 0.271444,-3.105483 0.26385,-6.386426 -0.01245,-5.377175 -0.100577,-6.082973 -0.893829,-7.158295 -1.244035,-1.686396 -2.596765,-2.227571 -6.319966,-2.528375 -2.974565,-0.24032 -3.230185,-0.200111 -2.973884,0.467797 0.154221,0.401894 0.3745,1.51946 0.489509,2.48348 0.181418,1.520678 0.131141,1.449455 -0.37971,-0.537892 -0.323849,-1.25986 -0.892067,-2.512397 -1.262707,-2.783415 -0.721491,-0.527567 -0.950882,-1.252425 -0.261518,-0.826375 0.226806,0.140174 0.810979,0.04153 1.298163,-0.219199 0.84505,-0.452257 0.852132,-0.51125 0.153979,-1.282701 -0.402496,-0.444752 -0.533231,-0.80864 -0.290523,-0.80864 0.242708,0 0.554964,0.296236 0.693902,0.658303 0.138938,0.362066 0.435161,0.545482 0.658274,0.407591 0.223114,-0.137892 0.286993,-0.559954 0.141955,-0.937917 -0.176274,-0.459364 -0.100374,-0.58626 0.228929,-0.38274 0.687756,0.425056 0.596387,-0.625475 -0.138884,-1.596845 -0.332604,-0.439404 -0.50488,-0.960486 -0.382835,-1.157959 0.122045,-0.197474 -0.06882,-0.359043 -0.424142,-0.359043 -0.515124,0 -0.564937,0.213326 -0.245811,1.052691 0.319127,0.839365 0.269313,1.05269 -0.245811,1.05269 -0.355323,0 -0.548179,0.158346 -0.428569,0.351879 0.11961,0.193534 -0.485031,0.22917 -1.343647,0.07919 -0.875175,-0.15287 -1.514866,-0.492501 -1.455851,-0.772955 0.0579,-0.275148 -0.05243,-0.500269 -0.245181,-0.500269 -0.192748,0 -0.261781,-1.069236 -0.153408,-2.376079 0.11633,-1.402789 0.03721,-2.277293 -0.193163,-2.134918 -0.223021,0.137833 -0.315092,-0.402246 -0.214892,-1.260539 0.120378,-1.031122 0.02834,-1.410861 -0.293715,-1.21182 -0.307353,0.189954 -0.373454,0.04082 -0.191758,-0.432685 0.174431,-0.45456 0.112249,-0.620567 -0.16765,-0.447583 -0.244708,0.151239 -0.703249,-0.05453 -1.018979,-0.457269 -0.519482,-0.66263 -0.504002,-0.677305 0.162827,-0.154341 0.514917,0.403826 0.736883,0.429333 0.736883,0.08468 0,-0.271272 -0.805308,-0.85877 -1.789573,-1.305544 C 38.151538,5.238015 33.36342,5.153734 31.15848,6.059695 c -1.39681,0.573915 -0.76675,0.539229 1.57903,-0.08693 0.53997,-0.144131 0.94742,-0.06342 0.94742,0.18766 0,0.242305 -0.3316,0.445205 -0.73688,0.450888 -2.24435,0.03144 -4.42781,0.406426 -4.85516,0.833786 -0.47938,0.479373 0.27096,0.434404 3.41667,-0.204781 0.69428,-0.14107 0.89028,-0.05014 0.66781,0.309833 -0.21845,0.353455 -0.0936,0.424588 0.40766,0.23224 0.39741,-0.152497 0.61907,-0.109813 0.49258,0.09486 -0.1265,0.204671 0.0848,0.492939 0.46961,0.640593 0.53322,0.20462 0.58272,0.385354 0.20812,0.759954 -0.65226,0.652264 -0.62899,1.284788 0.0349,0.947443 0.28949,-0.14711 0.0777,0.127006 -0.47066,0.60914 -0.86961,0.7646 -0.92341,0.970463 -0.42107,1.611116 0.53203,0.678515 0.51454,0.686358 -0.22943,0.102891 -0.71588,-0.561434 -0.78201,-0.561434 -0.59521,0 0.14904,0.44793 0.78066,0.621988 2.17187,0.598514 1.078946,-0.0182 1.867453,0.06116 1.752247,0.176367 -0.115206,0.115207 0.07272,0.521279 0.41761,0.902381 0.68421,0.756047 1.933141,6.592197 1.597755,7.466197 -0.114243,0.297711 0.02414,0.541293 0.307496,0.541293 0.320826,0 0.440212,-0.392373 0.316417,-1.039948 -0.109336,-0.571971 -0.05654,-0.952027 0.11733,-0.84457 0.17387,0.107457 0.422449,-0.08169 0.552397,-0.420334 0.129948,-0.338641 0.05506,-0.727704 -0.166416,-0.864585 -0.221476,-0.13688 -0.402687,-0.5331 -0.402687,-0.880488 0,-0.347388 0.192576,-0.512596 0.427945,-0.36713 0.235369,0.145467 0.32702,0.427783 0.203672,0.62737 -0.123354,0.199586 -0.03036,0.48273 0.206645,0.629207 0.237005,0.146478 0.53222,0.0023 0.65603,-0.320318 0.393598,-1.025695 2.013073,-0.561283 2.342866,0.671856 0.174918,0.654044 0.129418,1.124635 -0.108737,1.124635 -0.225231,0 -0.286717,0.198686 -0.136634,0.441523 0.187583,0.303518 0.452815,0.292187 0.848557,-0.03625 0.316625,-0.262775 0.797424,-0.340729 1.068442,-0.17323 0.310616,0.191971 -0.0078,0.51502 -0.86147,0.873953 -1.283566,0.539699 -1.339622,0.655881 -1.074267,2.226503 0.228198,1.350697 0.118396,1.818658 -0.593851,2.530906 -0.940145,0.940144 -1.928541,1.130759 -2.347581,0.452738 -0.391695,-0.633774 -1.052693,-0.505746 -1.052693,0.203895 0,1.286107 -2.247123,3.186259 -4.000224,3.382562 -1.570789,0.17589 -1.592789,0.164445 -0.326349,-0.169824 2.277776,-0.601206 3.346407,-1.583719 4.14846,-3.814158 0.421055,-1.170913 0.996556,-2.128932 1.278898,-2.128932 0.694586,0 0.970115,-0.898075 0.535473,-1.745359 -0.242978,-0.473646 -0.125125,-0.873079 0.372704,-1.263228 0.63562,-0.498135 0.66428,-0.488593 0.225776,0.07518 -0.309331,0.397694 -0.360438,0.875208 -0.133053,1.243124 0.203063,0.328563 0.270654,0.756848 0.150201,0.951745 -0.120452,0.194896 -0.004,0.613413 0.258769,0.930038 0.653414,0.787315 -0.230804,1.319646 -1.055333,0.635348 -0.504564,-0.41875 -0.61317,-0.348248 -0.61317,0.398042 0,1.278548 1.165145,1.586801 2.176205,0.575741 0.727974,-0.727973 0.783859,-1.056461 0.410057,-2.410261 -0.287026,-1.039523 -0.29328,-1.934345 -0.01857,-2.656887 0.493671,-1.298452 0.226036,-2.207469 -0.649925,-2.207469 -0.887089,0 -1.965128,1.79018 -2.009086,3.336278 -0.09158,3.22103 -1.577107,0.335052 -2.003207,-3.891696 -0.392617,-3.894594 -1.304322,-5.163811 -3.381569,-4.707573 -1.88277,0.413528 -2.3815,-0.669753 -1.30613,-2.837023 0.84424,-1.701466 0.8522,-1.82467 0.15209,-2.357786 -0.98396,-0.749278 -4.76152,-0.37487 -6.54583,0.648778 -1.99025,1.14179 -3.246,3.920292 -3.246,7.182159 0,1.603177 -0.26435,3.179869 -0.66208,3.949007 -0.98626,1.907209 -0.593,2.347234 2.09776,2.347234 2.01828,0 2.24655,-0.07675 1.61533,-0.543114 -0.57534,-0.425081 -0.62459,-0.655207 -0.2266,-1.058906 0.79202,-0.803371 1.92784,0.289466 1.37482,1.322788 -0.35031,0.654549 -0.84634,0.755486 -3.1858,0.648271 -3.06478,-0.140457 -2.92467,-0.270047 -3.31696,3.067819 -0.25842,2.198878 -0.23824,2.257842 0.70293,2.05426 0.53294,-0.115279 1.32643,-0.358902 1.76332,-0.541384 0.58751,-0.245395 0.74283,-0.177265 0.59653,0.261658 -0.12529,0.375858 -0.8025,0.593444 -1.84704,0.593444 H 20 l 0.12132,-2.315919 c 0.0667,-1.273756 0.27733,-2.694888 0.46799,-3.158071 0.19065,-0.463184 0.65714,-1.559147 1.03663,-2.435475 0.38905,-0.898406 0.69401,-2.734897 0.69923,-4.210761 0.0119,-3.352379 1.0064,-5.549379 3.39728,-7.504623 3.12493,-2.555547 5.28475,-3.441714 8.917006,-3.658611 2.444175,-0.14595 3.746186,-0.01357 5.15366,0.523932 2.685258,1.025513 3.439974,2.190417 3.766774,5.814026 0.462194,5.124886 0.569918,5.432831 1.848728,5.284865 0.656558,-0.07597 1.119182,-0.39058 1.119182,-0.76111 0,-0.347388 -0.236855,-0.584243 -0.526345,-0.526346 -0.763472,0.152695 -0.646854,-0.600539 0.139708,-0.90237 1.753459,-0.672866 3.123632,0.354908 3.123632,2.343053 0,0.88886 -0.433788,1.709047 -1.431659,2.706918 l -1.431659,1.431659 2.589619,0.0024 c 3.341814,0.0031 5.356975,0.580167 6.583184,1.885407 1.142276,1.215898 1.761157,1.347156 8.962902,1.900951 3.933411,0.302469 5.823281,0.641112 7.038945,1.261297 1.547889,0.789672 2.866202,2.335685 2.394189,2.807702 -0.113417,0.113414 -0.332032,-0.19022 -0.485808,-0.67474 -0.53331,-1.68031 -3.143419,-2.531041 -9.162033,-2.986247 -3.070909,-0.232263 -6.000383,-0.514849 -6.509947,-0.627969 -0.870022,-0.19314 -0.898598,-0.125687 -0.468923,1.106883 0.277958,0.79735 0.373416,3.087831 0.243192,5.835292 l -0.214369,4.522734 1.405659,1.121601 c 1.376921,1.098671 2.573245,3.934379 2.124205,5.035115 -0.114638,0.281007 -0.216328,0.201692 -0.235196,-0.183444 -0.02434,-0.496797 -0.323046,-0.623093 -1.115422,-0.47162 -0.5952,0.11378 -0.926799,0.355348 -0.736886,0.536817 0.504801,0.482356 1.914105,0.582119 2.801793,0.198334 0.616556,-0.266565 0.658988,-0.413862 0.210538,-0.730848 -0.368029,-0.260138 0.173837,-0.322508 1.571818,-0.18092 2.114965,0.214205 2.132153,0.206288 1.981644,-0.912901 -0.0835,-0.620939 0.134462,-1.981659 0.484364,-3.023822 0.502958,-1.498014 0.576786,-1.586198 0.352537,-0.421076 -0.156009,0.810571 -0.291873,2.136961 -0.301916,2.947533 -0.01659,1.337657 0.156662,1.557673 1.875772,2.38229 1.367045,0.655739 1.98033,0.772897 2.204199,0.421076 0.208909,-0.32831 0.312275,-0.272728 0.31662,0.17025 0.0034,0.361732 0.573384,1.07685 1.266303,1.589148 0.692923,0.512299 1.214004,1.163758 1.157959,1.447686 -0.05604,0.283927 0.121805,0.473243 0.395218,0.420705 1.403738,-0.269741 4.334364,5.850357 3.79292,7.920843 -0.131519,0.502929 -0.04233,0.703496 0.236265,0.531314 0.558133,-0.344945 0.195767,5.063609 -0.531086,7.926843 -0.49764,1.96031 -0.504445,1.966096 -2.03672,1.731142 -0.84558,-0.129658 -1.772188,-0.420403 -2.059126,-0.6461 -0.639076,-0.502668 -0.246831,-1.282622 0.445536,-0.885908 0.273485,0.156703 0.361802,0.134885 0.196256,-0.04849 -0.165547,-0.183371 -0.09927,-0.710329 0.14728,-1.171012 0.265981,-0.49699 0.279358,-0.733209 0.03289,-0.580887 -0.605971,0.374512 -1.411847,-0.77488 -1.104626,-1.57548 0.144568,-0.376742 0.537988,-0.684986 0.874268,-0.684986 0.336275,0 0.494306,0.189484 0.351173,0.421076 -0.327231,0.52947 -0.124967,0.527789 1.291391,-0.0107 1.096874,-0.417029 1.110209,-0.459916 0.390371,-1.255329 -0.631977,-0.698329 -0.659241,-0.927243 -0.179294,-1.505536 1.146577,-1.381547 0.845436,-1.860264 -1.170209,-1.860264 -1.479569,0 -1.810855,0.118431 -1.472314,0.526345 0.240253,0.289489 0.452939,0.715829 0.472633,0.947421 0.0197,0.231592 0.209502,0.421076 0.421796,0.421076 0.950125,0 0.817019,0.627054 -0.389151,1.833222 -1.176722,1.176728 -1.295002,1.530941 -1.210303,3.624501 0.07308,1.806353 0.310165,2.523524 1.070334,3.237665 0.929332,0.873056 1.015303,0.882184 1.781219,0.189038 0.546456,-0.494535 0.896728,-0.579499 1.091283,-0.264704 0.344183,0.556899 -2.780577,5.634348 -5.449506,8.854939 -1.258423,1.51854 -1.81784,2.533387 -1.624772,2.947532 0.302143,0.64812 0.349644,2.482362 0.104393,4.031045 -0.100519,0.63474 -0.381706,0.826431 -1.030378,0.702429 -0.605423,-0.115734 -1.376835,0.314164 -2.400348,1.337682 -1.335924,1.33591 -1.753513,1.508195 -3.655696,1.508195 h -2.147488 v 1.398755 c 0,0.899543 0.446665,1.989086 1.251514,3.052802 1.467101,1.938974 1.612995,3.533506 0.421931,4.61141 -0.778881,0.704874 -1.085197,0.725817 -3.524589,0.240943 -1.942341,-0.386079 -3.105151,-0.411306 -4.259998,-0.09244 -1.027332,0.283658 -1.854897,0.295976 -2.342797,0.03486 -1.123488,-0.601272 -2.649213,-0.489236 -3.571521,0.262264 -0.754451,0.614724 -0.757634,0.646996 -0.04136,0.419278 0.4268,-0.135688 1.27948,-0.342348 1.894843,-0.459248 0.844477,-0.160428 0.757442,-0.06459 -0.354926,0.390834 -2.029192,0.830782 -2.424941,0.801768 -2.970571,-0.217746 z m 9.286714,-0.981678 c 0.810572,0.01394 2.246528,0.174497 3.191013,0.35676 3.162757,0.610347 4.07085,-1.630322 1.850187,-4.56523 -1.409525,-1.862878 -1.657792,-4.320261 -0.6199,-6.13586 0.834253,-1.459378 0.781682,-1.684309 -0.393664,-1.684309 -0.563903,0 -1.463954,-0.162552 -2.000112,-0.36122 -0.536158,-0.198678 -1.989006,-0.492002 -3.228551,-0.651835 l -2.253718,-0.290604 0.837683,1.178176 c 0.460726,0.648001 1.080521,1.990054 1.377323,2.982352 0.466843,1.560794 0.444863,2.002922 -0.162946,3.277505 -0.38642,0.810335 -1.365803,1.864644 -2.176406,2.342908 -1.612067,0.951147 -1.823411,1.784208 -0.817123,3.220887 0.525594,0.750391 0.882871,0.874434 1.789574,0.621339 0.623081,-0.173928 1.796069,-0.304824 2.60664,-0.290869 z m -5.965896,-0.301747 c 0.708064,-0.03983 0.422844,-0.172176 -0.771322,-0.357832 L 46.52769,92.25809 48.211995,92.18205 c 1.340884,-0.06054 1.537303,-0.161744 0.963336,-0.496338 -0.607858,-0.354351 -2.858179,-0.160221 -2.858179,0.246569 0,0.735099 0.65198,1.46405 1.141465,1.276219 0.336445,-0.129109 1.117301,-0.263196 1.735238,-0.297981 z m 0.29653,-2.461403 c -0.05805,-0.406313 -0.605397,-0.657471 -1.526592,-0.700476 l -1.436103,-0.06706 1.473767,0.32743 c 1.473427,0.327357 1.473475,0.327445 0.210538,0.389306 -0.694776,0.03403 -1.537574,0.235447 -1.872884,0.447583 -0.4135,0.261601 0.0099,0.361717 1.316055,0.311164 1.446742,-0.05599 1.903202,-0.232069 1.835219,-0.70795 z m -23.595435,-0.827943 -1.6843,-0.285559 1.6843,-0.18104 c 2.07602,-0.223139 2.15498,-0.778188 0.21054,-1.479928 -0.81057,-0.292536 -1.12971,-0.5463 -0.7092,-0.563917 0.42052,-0.01761 1.14731,0.172803 1.6151,0.423158 0.4678,0.250355 0.96063,0.345099 1.09519,0.210541 0.4172,-0.417207 -0.21401,-0.760021 -2.00109,-1.086809 -0.94473,-0.172757 -1.61708,-0.213493 -1.49411,-0.09052 0.12297,0.122965 0.0275,0.459818 -0.21212,0.748562 -0.33191,0.399921 -0.005,0.59951 1.37215,0.837816 0.99431,0.172058 1.59758,0.386515 1.34058,0.476576 -0.25699,0.09006 -1.27468,-0.01766 -2.26153,-0.239404 -1.32517,-0.297748 -1.67089,-0.279757 -1.32231,0.06882 0.70433,0.704335 0.57025,1.150876 -0.26492,0.882209 -0.62199,-0.200081 -0.6384,-0.166198 -0.10527,0.217306 0.34739,0.249899 1.4843,0.430364 2.52646,0.401045 l 1.89484,-0.0533 z m 35.860556,-6.193184 c 0.402776,-0.162153 0.594951,-0.111005 0.451991,0.120313 -0.136783,0.221315 0.09483,0.402402 0.514698,0.402402 0.452493,0 0.678047,-0.222434 0.553821,-0.546166 -0.135208,-0.352335 0.01769,-0.458942 0.430874,-0.300389 0.423805,0.162635 0.743743,-0.08502 0.945788,-0.732106 0.167934,-0.537835 0.516648,-1.135522 0.774923,-1.328202 0.258276,-0.192679 -0.57257,-0.245154 -1.846326,-0.116609 -1.707131,0.172285 -2.51945,0.482476 -3.090181,1.180025 -0.539146,0.658936 -0.620578,0.997524 -0.268162,1.114993 0.372951,0.124323 0.355089,0.276525 -0.06789,0.578526 -0.588163,0.419946 -0.06714,0.298587 1.600464,-0.372787 z M 52.3989,81.677702 c -0.678377,-1.148395 -0.960268,-1.261783 -3.514906,-1.413798 -1.858826,-0.110616 -3.60102,-0.545679 -5.267771,-1.31547 l -2.490391,-1.150192 -0.983486,0.923941 c -1.041659,0.978585 -1.254743,1.823022 -0.567238,2.247921 0.235514,0.145556 0.311102,-0.01678 0.174093,-0.373808 -0.205029,-0.534287 -0.08005,-0.554562 0.814942,-0.132191 0.688349,0.324845 0.886525,0.604302 0.568103,0.801094 -0.293525,0.181408 -0.154477,0.287201 0.347839,0.264642 0.460264,-0.02067 1.215812,0.100333 1.678995,0.268899 0.701599,0.255328 0.736737,0.223476 0.210539,-0.190845 -0.534343,-0.420734 -0.501918,-0.46663 0.210538,-0.298033 0.463183,0.109611 1.22112,0.333408 1.684304,0.497327 0.67672,0.239487 0.718078,0.20878 0.210538,-0.156315 -0.549219,-0.395082 -0.538728,-0.455192 0.08042,-0.460802 0.391618,-0.0031 0.82914,0.183039 0.972272,0.414632 0.143132,0.231587 0.485912,0.418175 0.761734,0.414626 0.30751,-0.0036 0.257178,-0.176714 -0.13012,-0.446624 -0.765926,-0.533779 1.720562,-0.108098 3.368609,0.576702 0.57898,0.24058 1.179014,0.453297 1.333408,0.472701 0.154395,0.01943 0.422831,0.177398 0.596525,0.351088 0.677353,0.677351 0.641543,-0.109658 -0.05895,-1.295495 z m 10.507368,-1.266025 c 0.119271,-0.192975 0.793649,-0.266211 1.498619,-0.162744 0.791476,0.116164 1.281769,0.0036 1.281769,-0.293961 0,-0.626125 -1.266534,-1.11217 -1.621531,-0.622282 -0.394763,0.544772 -1.326002,0.661791 -1.326002,0.166629 0,-0.66939 -1.685156,-0.487739 -1.953107,0.21054 -0.133309,0.347389 -0.500382,0.631612 -0.815722,0.631612 -0.33665,0 -0.47329,-0.260752 -0.330978,-0.631612 0.177247,-0.461895 -0.05259,-0.631616 -0.855367,-0.631616 -0.603757,0 -1.097741,0.205278 -1.097741,0.456166 0,0.250894 -0.236855,0.377216 -0.526345,0.280721 -0.289489,-0.0965 -0.526345,-0.441289 -0.526345,-0.766212 0,-0.324912 -0.331598,-0.654616 -0.736883,-0.732665 -0.405286,-0.07805 -0.736884,0.06147 -0.736884,0.310041 0,0.248572 -0.300016,0.451949 -0.666703,0.451949 -0.986497,0 -0.470536,-1.030542 0.594416,-1.187246 0.502942,-0.074 0.91444,-0.310859 0.91444,-0.526341 0,-0.739327 0.743918,-0.391839 0.964159,0.450359 0.223979,0.856496 1.983374,1.230023 1.983374,0.421076 0,-0.231592 0.189484,-0.421076 0.421076,-0.421076 0.231592,0 0.421076,0.284228 0.421076,0.631617 0,0.868596 1.128122,0.796142 1.63906,-0.105271 0.393307,-0.693881 0.452409,-0.689887 1.012727,0.06841 0.647034,0.875667 2.182079,0.647307 1.876622,-0.279177 -0.110006,-0.333651 -1.39364,-0.611854 -3.508895,-0.760487 -3.647597,-0.256302 -4.809199,-0.611394 -4.809199,-1.470137 0,-0.809518 -0.835704,-1.207371 -1.384133,-0.658942 -0.886577,0.886576 -10.298841,0.475037 -9.741997,-0.425956 0.128155,-0.20736 0.58938,-0.178216 1.045856,0.06608 0.846642,0.45311 1.204655,-0.145219 0.388653,-0.649534 -0.59723,-0.369115 -0.04868,-1.127359 0.56231,-0.777271 0.273487,0.156703 0.358081,0.13116 0.187987,-0.05676 -0.170094,-0.187924 8.29e-4,-0.568445 0.379885,-0.845597 0.586849,-0.429115 0.429614,-0.545419 -1.059236,-0.783497 -0.96161,-0.153762 -1.748382,-0.4984 -1.748382,-0.765854 0,-0.267455 -0.128653,-0.357625 -0.285896,-0.200383 -0.157243,0.157243 0.117373,0.831347 0.610259,1.498012 0.875108,1.183646 0.877586,1.22892 0.105534,1.927614 -0.500898,0.453311 -1.110286,0.614045 -1.66295,0.438641 -0.638306,-0.202594 -0.872328,-0.09314 -0.872328,0.40797 0,0.410436 0.194786,0.564457 0.486136,0.384391 0.319768,-0.197627 0.370988,-0.114134 0.149668,0.243968 -0.26196,0.423863 -0.0047,0.48217 1.161961,0.26331 1.359331,-0.255012 1.477687,-0.201791 1.274988,0.573335 -0.270691,1.035122 0.762499,1.169794 1.70947,0.222828 0.347387,-0.347389 0.73989,-0.631617 0.872228,-0.631617 0.132339,0 0.240616,0.284228 0.240616,0.631617 0,0.354149 0.375758,0.631611 0.855367,0.631611 0.470452,0 0.964436,-0.284227 1.097741,-0.631611 0.133305,-0.347389 0.411585,-0.631617 0.618399,-0.631617 0.206814,0 0.376026,0.284228 0.376026,0.631617 0,0.393 0.397683,0.631611 1.05269,0.631611 0.633,0 1.052691,-0.240502 1.052691,-0.60324 0,-0.629782 1.563982,-1.341742 1.996754,-0.908975 0.136942,0.136942 -0.06682,0.248987 -0.452808,0.248987 -0.421077,0 -0.701794,0.336863 -0.701794,0.842152 0,0.463185 -0.142113,0.819712 -0.315807,0.792288 -1.020436,-0.161122 -1.789574,0.131767 -1.789574,0.681481 0,0.347388 -0.189484,0.631611 -0.421076,0.631611 -0.231592,0 -0.421076,-0.378967 -0.421076,-0.842152 0,-0.489847 -0.280718,-0.842152 -0.671035,-0.842152 -0.36907,0 -0.770138,0.378967 -0.891263,0.842152 -0.24595,0.940512 -0.760482,1.09129 -1.214907,0.356019 -0.201036,-0.325285 -0.104765,-0.37532 0.290957,-0.151223 0.381707,0.216161 0.346773,0.07458 -0.09853,-0.399294 -0.701149,-0.746148 -2.468141,-0.586585 -2.468141,0.222875 0,0.215985 -0.189485,0.392699 -0.421077,0.392699 -0.231591,0 -0.421076,-0.261026 -0.421076,-0.580059 0,-0.880044 -1.158879,-1.655461 -1.994749,-1.334713 -0.975461,0.37432 -1.187475,0.293956 -1.046922,-0.396849 0.188908,-0.928463 -1.567263,-1.249267 -2.188431,-0.399775 -0.374849,0.51264 -0.626675,0.587554 -0.836076,0.248728 -0.164816,-0.266677 -0.190649,-0.661257 -0.05741,-0.876843 0.56887,-0.920454 -0.790838,-0.910643 -1.485822,0.01072 l -0.756634,1.003088 -0.435337,-1.145028 c -0.492587,-1.295609 -1.506693,-1.201264 -1.866229,0.173611 -0.131487,0.502813 -0.420765,0.733592 -0.701814,0.559898 -0.26297,-0.162526 -0.37874,-0.55449 -0.25727,-0.871041 0.12147,-0.316542 0.0567,-0.676958 -0.14384,-0.800924 -0.51099,-0.315816 -1.74527,0.211903 -1.48408,0.634523 0.11824,0.191322 0.0319,0.460999 -0.19183,0.599287 C 31.8048,75.62007 31.41856,75.35359 31.17024,74.889612 30.81928,74.233815 30.34859,74.06714 29.05609,74.14093 l -1.66268,0.09493 1.26033,1.263228 1.26033,1.263228 5.148735,0.0159 c 5.010626,0.01549 5.227798,0.05502 8.096266,1.473763 2.809593,1.389622 3.174152,1.460771 7.78991,1.520312 2.663306,0.03434 5.316086,0.259202 5.895066,0.499658 1.271506,0.528066 5.758288,0.631466 6.062212,0.139702 z m 1.517159,-4.515765 c 0,-0.306709 -0.218761,-0.69285 -0.486137,-0.858101 -0.302248,-0.1868 -0.371793,-0.115439 -0.18385,0.18866 0.169206,0.273779 0.01246,0.600328 -0.356015,0.741725 -0.961178,0.368839 -0.805987,0.964444 0.18385,0.705599 0.463184,-0.121127 0.842152,-0.471173 0.842152,-0.777883 z M 60.40634,75.269921 c 0.90605,1.001182 1.49063,0.764808 1.49063,-0.602737 0,-1.31635 0.818265,-1.540203 2.072251,-0.566896 1.073508,0.833221 1.785056,0.562353 1.97811,-0.753018 0.08497,-0.57896 -0.208074,-0.649607 -1.869527,-0.45068 -2.699335,0.323187 -3.36594,0.483869 -3.747683,0.903345 -0.180398,0.198227 -0.04377,0.207494 0.303621,0.02056 0.516386,-0.277831 0.534543,-0.235328 0.09952,0.23298 -0.443936,0.477913 -0.7198,0.385095 -1.66515,-0.56025 l -1.133061,-1.133062 1.575288,0.05922 c 0.86641,0.03253 1.805212,-0.189028 2.086226,-0.492438 0.324831,-0.350714 0.336596,-0.454156 0.0323,-0.283979 -0.263248,0.147224 -0.736959,-0.05082 -1.05269,-0.440133 -0.474726,-0.585332 -0.475715,-0.648597 -0.0057,-0.365623 0.454931,0.273893 0.477703,0.172798 0.114116,-0.506574 -0.345754,-0.646043 -0.313268,-0.965744 0.136021,-1.338619 0.47302,-0.392575 0.631323,-0.296815 0.797008,0.482129 0.191476,0.90019 0.201658,0.894227 0.137776,-0.08069 -0.05145,-0.785336 -0.336326,-1.084669 -1.121662,-1.178605 -2.03903,-0.243896 -2.289044,-0.446977 -1.552386,-1.26098 0.436989,-0.482864 0.53912,-0.945645 0.295637,-1.339609 -0.204592,-0.33104 -0.28666,-0.739963 -0.182368,-0.908711 0.104297,-0.168747 -0.003,-0.425836 -0.23832,-0.571299 -0.807488,-0.499057 -0.426998,-0.91658 0.835285,-0.91658 0.694775,0 1.266129,0.205278 1.269675,0.456171 0.0034,0.250889 0.180528,0.180983 0.393293,-0.155346 0.43327,-0.684899 0.159866,-1.418652 -0.39974,-1.072797 -0.199586,0.123349 -0.491421,0.01632 -0.648516,-0.237886 -0.1571,-0.254188 0.238864,-1.00962 0.879918,-1.67873 1.043052,-1.088717 1.087674,-1.246452 0.424575,-1.500908 -0.426705,-0.163744 -0.880882,-0.05796 -1.070851,0.24942 -0.527516,0.853534 -1.403965,0.276159 -1.458103,-0.960555 -0.02733,-0.624131 0.109868,-1.134788 0.304881,-1.134788 0.195009,0 0.219359,-0.218761 0.05411,-0.486136 -0.187644,-0.303613 -0.115345,-0.371735 0.192554,-0.181442 0.271152,0.16758 0.392081,0.467993 0.268731,0.667578 -0.12335,0.199587 -0.04479,0.473812 0.174574,0.609386 0.219368,0.135579 0.535963,0.02463 0.703543,-0.246502 0.171449,-0.277409 0.123505,-0.381023 -0.109636,-0.236935 -0.227878,0.140837 -0.385504,-0.135145 -0.350277,-0.61329 0.03525,-0.478148 0.378906,-1.045565 0.763736,-1.260925 0.530926,-0.297119 0.643581,-0.245339 0.467053,0.214682 -0.302366,0.78796 0.327909,1.165434 1.108108,0.663649 0.532173,-0.342271 0.529567,-0.447085 -0.02008,-0.807922 -0.398279,-0.261455 -0.442643,-0.417009 -0.120082,-0.421077 0.65188,-0.0082 1.450654,1.452018 1.05269,1.924419 -0.165546,0.196509 0.02211,0.110524 0.417034,-0.191084 1.141904,-0.872095 0.06836,-2.051327 -2.608558,-2.865377 -1.276127,-0.388072 -2.476429,-0.667839 -2.667337,-0.62171 -0.190908,0.04612 -0.219264,-0.122984 -0.06301,-0.375807 0.166951,-0.270129 0.01762,-0.40465 -0.362165,-0.326237 -0.355462,0.07339 -0.667447,-0.05605 -0.693321,-0.287645 -0.06993,-0.625909 -2.620372,-3.154787 -2.966161,-2.941079 -0.314294,0.194247 -1.32526,-0.835532 -1.866562,-1.901297 -0.176439,-0.347388 0.188904,-0.06316 0.811873,0.631614 0.660591,0.736731 1.037502,0.959094 0.904329,0.533508 -0.145796,-0.465921 0.368182,-1.418947 1.421772,-2.636274 1.613526,-1.864286 2.196219,-3.534405 1.996435,-5.722206 -0.180201,-1.973344 -1.078219,-1.136306 -1.529496,1.425636 -0.451005,2.5604 -1.39492,4.504493 -2.187065,4.504493 -0.25206,0 -0.329194,0.404364 -0.180724,0.947421 0.224207,0.820089 0.196729,0.848056 -0.204447,0.208109 -0.479533,-0.764944 -1.471497,-0.702822 -3.787508,0.2372 -0.57898,0.234999 -1.621143,0.507401 -2.315919,0.605344 -2.044869,0.288269 -7.901155,2.677493 -9.190714,3.74959 -1.156486,0.961473 -2.237612,1.345692 -1.801648,0.640289 0.118723,-0.192099 -0.170292,-0.320822 -0.642252,-0.28605 -0.47196,0.03478 -1.338614,0.677188 -1.925904,1.427596 -0.58728,0.750408 -1.3154,1.269363 -1.61803,1.153231 -0.30263,-0.116133 -0.76033,0.04198 -1.0171,0.351388 -0.25678,0.309398 -1.10427,0.682118 -1.88332,0.828269 -0.77905,0.146148 -1.64818,0.54494 -1.9314,0.886197 -0.28322,0.341261 -0.75277,0.620473 -1.04344,0.620473 -0.29068,0 -0.74773,0.264149 -1.01568,0.587001 -0.37463,0.451402 -0.34253,0.731637 0.13894,1.213103 0.34435,0.344352 0.493,0.759188 0.33034,0.921854 -0.16267,0.162666 -0.10627,0.236161 0.12532,0.163329 0.23159,-0.07284 1.28424,0.289397 2.33924,0.804954 1.05498,0.515556 3.09029,1.059887 4.52291,1.209629 2.37633,0.248376 2.848476,0.152269 5.383888,-1.09591 2.345101,-1.15449 3.031645,-1.758852 4.395996,-3.869766 1.908052,-2.952127 2.298418,-4.396865 1.737213,-6.429383 -0.377856,-1.36848 -0.348729,-1.462759 0.338309,-1.095067 0.413468,0.221284 0.871416,0.282677 1.017663,0.136429 0.146247,-0.146249 0.265903,-0.05079 0.265903,0.212138 0,0.262919 0.24595,0.383659 0.546555,0.268305 0.300606,-0.115354 1.011172,0.300118 1.579035,0.923268 0.567865,0.623151 0.795626,0.99652 0.506135,0.82971 -0.289489,-0.166805 -0.526345,-0.10262 -0.526345,0.14264 0,0.24526 0.284227,0.445928 0.631615,0.445928 0.347387,0 0.631614,0.284226 0.631614,0.631614 0,0.767584 0.897546,0.825541 1.630166,0.105269 0.294453,-0.28949 0.499395,-0.336861 0.455427,-0.105269 -0.04397,0.231592 -0.04301,0.515819 0.0021,0.631614 0.04515,0.115797 0.15043,0.575317 0.233966,1.021156 0.192006,1.024748 1.302639,1.735357 2.928537,1.873743 0.392906,0.03343 0.521754,0.304488 0.353357,0.743326 -0.239456,0.624009 -0.319482,0.61624 -0.828938,-0.08048 -0.310141,-0.424147 -0.585499,-0.687584 -0.611905,-0.585423 -0.28986,1.121398 -0.23574,2.501668 0.09808,2.501668 0.231385,0 0.284395,-0.236855 0.117801,-0.526345 -0.166594,-0.28949 -0.147839,-0.385874 0.04167,-0.214193 0.189516,0.171686 0.615708,0.08713 0.947095,-0.187892 0.484007,-0.40169 0.574452,-0.364989 0.459819,0.186579 -0.07849,0.377646 0.04678,0.680105 0.278374,0.67213 0.444772,-0.01533 0.44362,-0.123325 -0.01385,-1.298776 -0.203034,-0.521684 -0.08192,-0.736883 0.414729,-0.736883 0.385833,0 0.594975,0.172384 0.46476,0.383078 -0.282676,0.457377 0.147404,1.722302 0.585591,1.722302 0.169641,0 0.55318,-0.521081 0.85231,-1.157959 0.29913,-0.636877 0.626061,-0.93161 0.726512,-0.654959 0.10045,0.276652 -0.02352,0.88821 -0.27549,1.359023 -0.354225,0.661873 -0.336348,0.809288 0.07883,0.64997 0.295325,-0.113329 0.770646,0.168152 1.056271,0.625511 0.428967,0.686883 0.416116,0.791957 -0.07384,0.603945 -0.716946,-0.275121 -1.415936,0.948826 -1.300647,2.277458 0.05118,0.589885 -0.1083,0.892269 -0.409621,0.776644 -1.005617,-0.385893 0.09088,4.07246 1.249307,5.079651 1.173758,1.020534 1.395282,1.604986 0.474393,1.251609 -0.755849,-0.290045 -1.866664,0.962517 -1.70863,1.92666 0.130351,0.795262 -0.432861,1.002715 -0.857391,0.315811 -0.143132,-0.231593 -0.912252,-0.421076 -1.709156,-0.421076 -1.606441,0 -1.75288,-0.229432 -0.810852,-1.270361 0.572959,-0.633108 0.552883,-0.81334 -0.196745,-1.766341 -0.459146,-0.583711 -0.698904,-1.211784 -0.532795,-1.39572 0.166108,-0.18394 0.08226,-0.208701 -0.186332,-0.05502 -0.639057,0.365644 -1.891531,-0.121329 -1.58552,-0.616465 0.130468,-0.2111 0.413606,-0.274805 0.629195,-0.141562 0.223044,0.137843 0.391983,-0.717093 0.391983,-1.983678 v -2.225926 l -1.115578,1.115579 c -1.045765,1.045767 -1.071207,1.159947 -0.406542,1.824612 0.548702,0.548704 0.598873,0.841779 0.221868,1.296044 -0.551775,0.664847 -1.413265,0.809253 -1.018647,0.170747 0.150898,-0.244159 -0.03048,-0.305834 -0.438723,-0.149182 -0.39431,0.151311 -0.857281,0.01233 -1.068112,-0.320628 -0.305753,-0.48287 -0.373282,-0.467904 -0.378579,0.08392 -0.0035,0.369394 0.375461,1.017244 0.842239,1.439672 l 0.848686,0.768051 -0.852538,0.907489 c -0.974759,1.037582 -0.751778,1.458549 0.80438,1.518591 l 1.08778,0.04196 -1.052691,0.373404 c -0.887483,0.314806 -0.825648,0.340452 0.394011,0.163453 l 1.446701,-0.209955 -0.892431,0.95254 c -0.673698,0.719067 -0.790943,1.13314 -0.478357,1.689416 0.227742,0.405282 0.703404,0.736882 1.057028,0.736882 0.973325,0 0.611225,-2.881128 -0.560683,-4.461202 -0.953885,-1.286114 -0.955853,-1.312766 -0.150768,-2.041359 1.113451,-1.007662 1.560589,-0.597029 1.815845,1.667603 0.119125,1.056883 0.519355,2.256147 0.889398,2.665039 0.617371,0.68219 0.612801,0.809725 -0.05547,1.547912 -0.715465,0.790319 -0.711565,0.790563 0.221727,0.01404 0.522501,-0.434746 1.075577,-0.664868 1.229057,-0.511386 0.15348,0.153476 0.622078,-0.03139 1.04133,-0.410799 0.683566,-0.618614 0.788269,-0.622111 1.014017,-0.03383 0.138457,0.360821 0.05433,1.024891 -0.186945,1.475721 -0.694019,1.296785 -0.0012,1.465009 1.218924,0.295992 1.109629,-1.063084 1.117011,-1.06398 1.875045,-0.226361 z m -1.93169,-1.5604 c -0.523764,-0.667852 -0.50887,-0.682744 0.15898,-0.158978 0.405285,0.317847 0.736883,0.649447 0.736883,0.736882 0,0.346565 -0.345783,0.123504 -0.895863,-0.577904 z m -7.52566,0.156828 c 0,-0.08743 0.331597,-0.419035 0.736883,-0.736882 0.66785,-0.523766 0.682744,-0.508873 0.158979,0.158978 -0.55008,0.701408 -0.895862,0.924464 -0.895862,0.577904 z m 4.631838,0 c 0,-0.08743 0.331597,-0.419035 0.736883,-0.736882 0.66785,-0.523766 0.682744,-0.508873 0.158979,0.158978 -0.55008,0.701408 -0.895862,0.924464 -0.895862,0.577904 z m 2.526457,-2.10538 c 0,-0.08743 0.331597,-0.419035 0.736883,-0.736887 0.667852,-0.523761 0.682745,-0.508868 0.158981,0.158983 -0.550083,0.701408 -0.895864,0.924464 -0.895864,0.577904 z m -4.631838,-0.421076 c 0,-0.08744 0.331597,-0.419035 0.736883,-0.736887 0.66785,-0.523761 0.682744,-0.508868 0.158979,0.158983 -0.550081,0.701408 -0.895862,0.924464 -0.895862,0.577904 z m -4.210762,-0.421076 c 0,-0.08744 0.331597,-0.419035 0.736883,-0.736887 0.66785,-0.523761 0.682744,-0.508868 0.15898,0.158983 -0.550081,0.701409 -0.895863,0.924464 -0.895863,0.577904 z m 8.8426,-3.789688 c 0,-0.08744 0.331597,-0.419035 0.736883,-0.736882 0.667852,-0.523767 0.682745,-0.508869 0.158981,0.158983 -0.550083,0.701408 -0.895864,0.924464 -0.895864,0.577899 z m 0.421076,-4.631836 c 0,-0.08743 0.331597,-0.419035 0.736883,-0.736887 0.667852,-0.523761 0.682746,-0.508868 0.158982,0.158983 -0.550083,0.701408 -0.895865,0.924464 -0.895865,0.577904 z m 2.315919,-2.367477 c 0.419177,-0.463183 0.856882,-0.842152 0.972677,-0.842152 0.115796,0 -0.132424,0.378969 -0.551601,0.842152 -0.419177,0.463184 -0.856882,0.842151 -0.972678,0.842151 -0.115796,0 0.132425,-0.378967 0.551602,-0.842151 z M 56.940553,58.36656 c 0.09167,-0.275017 0.391817,-0.575076 0.66699,-0.666799 0.307702,-0.102566 0.401807,0.08994 0.244439,0.500028 -0.293709,0.765394 -1.164056,0.924649 -0.911429,0.166771 z M 56.3475,56.816768 c 0.41205,-0.261265 0.04418,-0.803266 -1.419913,-2.092007 -1.086825,-0.956664 -2.147089,-1.633679 -2.356141,-1.504476 -0.209051,0.129199 -0.328028,-0.01604 -0.264392,-0.322734 0.06364,-0.306703 -0.121153,-0.510272 -0.410643,-0.452374 -0.28949,0.0579 -0.478974,-0.131587 -0.421076,-0.421077 0.06258,-0.312922 -0.330218,-0.522256 -0.968729,-0.516264 -0.83576,0.0078 -1.092727,-0.216223 -1.158431,-1.010115 -0.04644,-0.561106 -0.30578,-1.286902 -0.576315,-1.612874 -0.270534,-0.325976 -0.317693,-0.559551 -0.104797,-0.519056 0.212896,0.04051 0.481826,0.03385 0.597622,-0.01478 0.115796,-0.04862 0.898869,-0.12335 1.740164,-0.166081 1.030321,-0.05234 1.467099,0.08525 1.338075,0.421476 -0.132937,0.346428 -0.5767,0.388717 -1.450205,0.138197 -1.191963,-0.34185 -1.251706,-0.300783 -1.127537,0.775004 0.09882,0.856161 0.390418,1.164958 1.183808,1.253628 1.013278,0.113244 1.022311,0.0937 0.241277,-0.521996 -0.446278,-0.351805 -0.681175,-0.769879 -0.521995,-0.929062 0.159181,-0.15918 0.565662,0.07572 0.903291,0.521995 0.401905,0.531238 0.618496,0.615079 0.627263,0.242818 0.0074,-0.312729 1.071965,0.398877 2.365776,1.581347 1.293811,1.182471 2.530154,2.04008 2.747429,1.905799 0.217273,-0.134285 0.360266,-0.08795 0.317761,0.102954 -0.0425,0.190907 0.0307,0.631332 0.162666,0.97872 0.805419,2.120097 0.697003,2.52665 -0.672016,2.52001 -0.877764,-0.0042 -1.140231,-0.126188 -0.772942,-0.359068 z m 0.920429,-1.886657 c -0.77785,-1.365234 -4.623767,-4.541466 -5.124375,-4.232072 -0.247816,0.153158 0.814496,1.533424 2.444047,3.175558 2.680569,2.701267 3.88878,3.177513 2.680328,1.056514 z m -0.802677,0.02236 c -0.532627,-0.886916 -0.523654,-0.89589 0.201415,-0.201413 0.417381,0.399774 0.668239,0.817494 0.557461,0.928271 -0.110777,0.110777 -0.452271,-0.216307 -0.758876,-0.726858 z m -3.012473,-2.717831 -1.451099,-1.579036 1.579036,1.4511 c 1.469732,1.350648 1.772641,1.706971 1.451098,1.706971 -0.07036,0 -0.780931,-0.710566 -1.579035,-1.579035 z m 2.096179,-1.263229 -1.020821,-1.15796 1.157959,1.020819 c 1.082288,0.954113 1.351061,1.2951 1.020822,1.2951 -0.07543,0 -0.596509,-0.521081 -1.15796,-1.157959 z m 11.735808,23.524397 c -0.28471,-0.374558 -0.571274,-0.759964 -0.636806,-0.856464 -0.06553,-0.09649 -0.119152,0.447789 -0.119152,1.20952 0,1.18836 0.0904,1.309942 0.636806,0.856465 0.51325,-0.425961 0.536367,-0.660636 0.119152,-1.209521 z M 40.808559,73.777083 c -0.559948,-0.310237 -0.770048,-0.570776 -0.466892,-0.578981 0.320326,-0.0087 0.420312,-0.226698 0.238714,-0.520529 -0.225987,-0.365654 -0.356567,-0.373347 -0.471752,-0.02782 -0.114393,0.343178 -0.650535,0.304487 -1.902755,-0.137324 -0.98807,-0.348607 -2.888395,-0.572864 -4.385924,-0.517572 -2.15873,0.0797 -2.87148,-0.07178 -3.89367,-0.827512 l -1.25123,-0.925081 -0.65317,0.932519 c -0.81063,1.157352 -0.81519,1.485413 -0.0315,2.269118 0.47708,0.477083 0.81985,0.515613 1.47376,0.165645 0.46866,-0.250811 0.85209,-0.555283 0.85209,-0.676596 0,-0.121318 -0.18948,-0.103467 -0.42107,0.03968 -0.23159,0.143132 -0.42108,0.04377 -0.42108,-0.220777 0,-0.264558 0.23686,-0.402064 0.52635,-0.305569 0.28949,0.0965 0.52634,0.403427 0.52634,0.682065 0,0.67915 1.04988,1.292693 1.75139,1.023503 0.3105,-0.119148 0.56454,-0.480585 0.56454,-0.803198 0,-0.322607 0.28422,-0.586559 0.63161,-0.586559 0.34739,0 0.63161,0.200667 0.63161,0.445924 0,0.245263 -0.23685,0.313309 -0.52634,0.151224 -0.28949,-0.162091 -0.22839,0.02316 0.13578,0.411699 0.737232,0.786528 2.074867,0.514293 2.074867,-0.422288 0,-0.890176 0.714032,-0.70089 0.964159,0.255592 0.257711,0.985486 1.479803,1.126002 1.831103,0.210536 0.338541,-0.88222 0.994421,-0.789646 0.994421,0.14036 0,1.115647 0.413477,1.367105 1.389262,0.844882 0.843654,-0.451509 0.841069,-0.467977 -0.160633,-1.022953 z m 9.170703,0.690276 c 0.01477,-0.753815 -0.647632,-1.705252 -1.187212,-1.705252 -0.203234,0 -0.369517,0.556676 -0.369517,1.237058 0,0.939999 0.185376,1.223092 0.771972,1.178906 0.424586,-0.03196 0.777726,-0.351803 0.784757,-0.710712 z m -6.602178,-3.170028 c -0.782079,-0.942345 -0.898383,-2.602401 -0.221671,-3.164019 0.344305,-0.285745 0.522171,-0.687562 0.395257,-0.892912 -0.350647,-0.567357 -3.037182,-0.445826 -3.381781,0.152985 -0.166593,0.28949 -0.161987,0.400018 0.01026,0.245625 0.172225,-0.154393 0.681201,0.08735 1.131057,0.537204 0.809844,0.809843 0.806378,0.828077 -0.350897,1.846446 -0.642849,0.56569 -0.979335,1.059163 -0.747742,1.0966 0.231593,0.03745 0.98953,0.117868 1.684306,0.178729 0.694776,0.06086 1.343629,0.130959 1.441897,0.155771 0.09827,0.02481 -0.262098,0.514292 -0.800813,1.087726 l -0.979481,1.042612 1.011351,0.37764 c 0.911244,0.340261 1.024614,0.255178 1.14535,-0.859583 0.0737,-0.680465 -0.07798,-1.492639 -0.337072,-1.804824 z M 42.10639,68.392359 c 0,-0.08743 0.331598,-0.419029 0.736884,-0.736881 0.66785,-0.523762 0.682743,-0.508869 0.158979,0.158983 -0.550081,0.701408 -0.895863,0.924464 -0.895863,0.577898 z m 26.824334,4.369748 c 0.9032,0 0.988173,-0.09837 0.545617,-0.631617 -0.691605,-0.833335 -0.946023,-0.800591 -2.146221,0.276189 -0.760354,0.682174 -0.820138,0.839157 -0.240527,0.631616 0.424226,-0.151907 1.252735,-0.276188 1.841131,-0.276188 z m -5.907232,-0.698145 c -0.152383,-0.152383 -0.07278,-0.523212 0.176907,-0.824063 0.331581,-0.399526 0.273834,-0.804176 -0.214193,-1.500933 -0.663738,-0.947624 -0.66816,-0.944024 -0.66816,0.543348 0,1.38553 0.252431,2.058717 0.771972,2.058717 0.115796,0 0.08586,-0.124685 -0.06653,-0.277069 z m 3.08424,-1.40092 0.210538,-1.467444 1.024381,1.046368 1.024378,1.046373 -0.769298,-1.263228 -0.769294,-1.263228 1.037797,0.949784 1.037798,0.949779 1.023038,-1.098365 1.023038,-1.098371 -2.105381,0.206039 c -2.610516,0.255468 -3.462939,0.457104 -3.882769,0.918424 -0.180397,0.198233 -0.04377,0.221243 0.303621,0.05113 0.421258,-0.206272 0.394806,-0.114408 -0.07942,0.27582 -0.575556,0.473608 -0.700873,1.251138 -0.373869,2.319624 0.01773,0.0579 0.269072,0.0579 0.558562,0 0.289489,-0.0579 0.621087,-0.765621 0.736883,-1.572719 z m -27.297836,0.560032 c 0.487692,-0.441356 0.770035,-1.281399 0.770035,-2.291066 0,-1.898828 -0.475664,-2.325705 -1.423941,-1.277872 -0.647276,0.715234 -0.637077,0.840033 0.150518,1.841298 0.739576,0.940221 0.762327,1.105731 0.182553,1.328212 -0.364271,0.139785 -1.073154,0.267475 -1.575294,0.283751 -0.883846,0.02865 -0.886105,0.04113 -0.07083,0.391477 1.156874,0.49713 1.104814,0.504429 1.966956,-0.2758 z m -0.914269,-2.830715 c 0,-0.08743 0.3316,-0.419029 0.736887,-0.736881 0.667846,-0.523762 0.682744,-0.508869 0.158977,0.158983 -0.550081,0.701408 -0.895864,0.924464 -0.895864,0.577898 z m 19.369505,1.749719 V 68.3642 l -0.920863,0.920859 c -0.897142,0.897144 -0.900884,0.942941 -0.145277,1.777882 0.426573,0.471355 0.840962,0.857009 0.920864,0.857009 0.0799,0 0.145276,-0.800043 0.145276,-1.777872 z m 14.920367,0.238109 c 0.101058,-0.524741 -0.06269,-0.846332 -0.430929,-0.846332 -0.380649,0 -0.593924,0.458662 -0.593924,1.277265 0,1.395995 0.732323,1.088063 1.024853,-0.430933 z M 31.15841,71.077798 c 0,-0.231587 -0.20067,-0.421076 -0.44593,-0.421076 -0.24526,0 -0.32882,0.189489 -0.18568,0.421076 0.14313,0.231592 0.34379,0.421076 0.44592,0.421076 0.10213,0 0.18569,-0.189484 0.18569,-0.421076 z m 17.264123,-1.833263 v -2.113979 l -1.190088,1.140179 c -1.137135,1.089441 -1.220498,1.106571 -1.873541,0.384966 -0.859633,-0.949883 -0.437342,-1.670675 1.087338,-1.855937 1.074354,-0.130544 1.1272,-0.213638 0.595168,-0.935849 -0.559442,-0.75941 -0.630867,-0.761788 -1.706758,-0.05684 l -1.122881,0.735742 v -1.707883 c 0,-0.939336 -0.236855,-1.844188 -0.526346,-2.010781 -0.289489,-0.166597 -0.383818,-0.145784 -0.209619,0.04626 0.174199,0.192032 -2.36e-4,0.699382 -0.387635,1.127457 -0.663045,0.732654 -0.641621,0.845804 0.365248,1.929012 0.879309,0.945977 1.03377,1.450365 0.86817,2.835009 -0.164898,1.37876 -0.101468,1.588819 0.349663,1.157958 0.303106,-0.289491 0.713872,-0.526346 0.912813,-0.526346 0.198941,0 0.219414,0.236855 0.04549,0.526346 -0.248818,0.41416 -0.176272,0.413052 0.340358,-0.0052 0.534227,-0.432493 0.752206,-0.416311 1.16977,0.08682 0.282257,0.3401 0.410474,0.784564 0.284928,0.987702 -0.125546,0.203138 0.04763,0.369342 0.384826,0.369342 0.455325,0 0.613091,-0.543989 0.613091,-2.113978 z m -13.840304,0.847099 c -0.257939,-0.310797 -0.328509,-0.737136 -0.156828,-0.947422 0.171685,-0.210277 0.145131,-0.246885 -0.05902,-0.08134 -0.204141,0.165546 -0.727931,0.110057 -1.163961,-0.123302 -0.59293,-0.317323 -0.76475,-0.287046 -0.68152,0.120086 0.0612,0.299405 -0.094,0.507532 -0.34489,0.462501 -0.25089,-0.04501 -0.45617,0.191825 -0.45617,0.526346 0,0.427738 0.49427,0.608218 1.66569,0.608218 1.345707,0 1.57559,-0.108549 1.196696,-0.565088 z M 31.2512,68.952138 c 0.15955,-1.087047 0.10005,-1.195166 -0.38875,-0.706371 -0.31743,0.317427 -0.45516,0.895005 -0.30608,1.283508 0.37635,0.980757 0.47866,0.895787 0.69483,-0.577137 z m 5.802275,-0.190255 c 0,-0.290677 -0.284228,-0.764388 -0.631611,-1.052693 -0.542312,-0.450079 -0.631617,-0.301244 -0.631617,1.052693 0,1.353931 0.08931,1.502767 0.631617,1.052687 0.347383,-0.288304 0.631611,-0.762015 0.631611,-1.052687 z m 36.823112,-0.685982 c 0.252331,-0.231318 0.248432,-0.518302 -0.01057,-0.777297 -0.266735,-0.266734 -0.849475,-0.03341 -1.663251,0.665956 l -1.252664,1.076547 1.263229,-0.29925 c 0.694776,-0.164583 1.443238,-0.464263 1.663251,-0.665956 z M 33.96467,68.269705 c -0.1549,-0.154901 0.0324,-0.628612 0.416156,-1.052688 0.664055,-0.733773 0.624582,-0.771054 -0.816386,-0.771054 -0.8328,0 -1.64938,0.218761 -1.81462,0.486138 -0.17212,0.278483 -0.11684,0.372652 0.1294,0.220465 0.23643,-0.14612 0.76879,0.108829 1.18302,0.566555 0.41423,0.45772 0.85011,0.832221 0.96861,0.832221 0.1185,0 0.0887,-0.126736 -0.0662,-0.281637 z m 32.507908,-0.315226 c 0.26252,-0.162246 0.696068,-0.159791 0.963443,0.0055 0.278483,0.172109 0.372657,0.116832 0.220467,-0.12941 -0.146118,-0.236425 0.0873,-0.749298 0.518715,-1.139718 0.741473,-0.671027 0.830527,-0.651192 1.627936,0.362546 l 0.843554,1.072408 0.276057,-1.471515 c 0.289701,-1.544249 0.822649,-1.907489 1.232322,-0.839899 0.133304,0.347384 0.474974,0.631612 0.759263,0.631612 0.284294,0 -0.125901,-0.663195 -0.911536,-1.473764 -0.785636,-0.810573 -1.261069,-1.473768 -1.056514,-1.473768 0.204558,0 -0.149941,-0.54471 -0.787775,-1.210463 l -1.159698,-1.210463 1.137701,-0.894919 1.137706,-0.894917 h -1.980305 -1.9803 l 0.860002,1.207762 c 0.827595,1.162252 0.831356,1.233685 0.09977,1.895761 -0.418129,0.378397 -0.841866,0.640216 -0.941644,0.58181 -0.09977,-0.0584 0.07613,0.117656 0.39091,0.391238 0.314771,0.273583 0.823318,0.401107 1.130097,0.283384 0.306779,-0.117724 0.982493,0.01326 1.501578,0.291065 l 0.943801,0.505103 -1.012579,0.763792 c -0.951034,0.717363 -1.060266,0.720626 -1.797254,0.05366 -1.076478,-0.974199 -1.278144,-0.904034 -1.589727,0.553106 l -0.270125,1.263228 -0.04982,-1.353683 c -0.08326,-2.26229 -2.774214,-3.041364 -5.008865,-1.450157 -1.571878,1.119283 -1.686533,1.743564 -0.514943,2.80384 0.829036,0.750262 0.842153,0.735462 0.842153,-0.950173 0,-1.131715 0.178469,-1.685231 0.526345,-1.632456 0.975671,0.148022 1.594797,0.742606 1.294535,1.243228 -0.179917,0.299975 -0.02291,0.274054 0.395766,-0.06535 0.381697,-0.309429 0.921058,-0.422263 1.198576,-0.250749 0.307743,0.190198 0.394393,0.133559 0.222118,-0.145188 -0.155356,-0.251376 -0.124765,-0.554511 0.06799,-0.673638 0.192748,-0.119122 0.3963,0.669059 0.452332,1.751521 l 0.101876,1.968112 -0.997917,-0.937497 c -0.897642,-0.843292 -1.079921,-0.875471 -1.813963,-0.32024 -0.804618,0.608617 -0.804255,0.617532 0.02611,0.637097 0.615201,0.0145 0.692789,0.114553 0.287911,0.37129 -0.34783,0.220564 -0.01592,0.318769 0.891191,0.263694 0.794987,-0.04828 1.660219,-0.220502 1.922739,-0.382754 z m 3.174295,-5.40347 -0.802146,-0.947422 0.947422,0.802145 c 0.890339,0.753821 1.139111,1.092699 0.802145,1.092699 -0.0799,0 -0.506243,-0.426344 -0.947421,-0.947422 z M 57.015398,67.60392 c -0.164691,-0.289491 -0.559623,-0.830771 -0.877627,-1.202854 -0.492426,-0.576158 -0.483614,-0.754996 0.05941,-1.205666 0.35068,-0.291039 0.547031,-0.67571 0.436335,-0.854817 -0.110696,-0.179113 0.08088,-0.55981 0.425712,-0.846001 0.344838,-0.286191 0.626978,-1.173897 0.626978,-1.972691 0,-1.261685 -0.124373,-1.436272 -0.947421,-1.329929 -0.521082,0.06733 -1.167177,-0.01448 -1.435768,-0.18177 -0.750557,-0.467509 -1.827572,0.118044 -1.827572,0.993615 0,0.523793 0.20957,0.703465 0.631614,0.541514 0.347388,-0.133305 0.631614,-0.517509 0.631614,-0.853792 0,-0.792059 0.593323,-0.409545 1.63596,1.054702 l 0.833019,1.169867 -1.655566,0.09769 c -1.066359,0.06292 -1.655565,-0.08322 -1.655565,-0.410633 0,-0.279566 -0.115413,-0.392896 -0.256474,-0.251837 -0.141061,0.14106 0.138295,0.810875 0.620791,1.48848 0.869092,1.220528 0.869612,1.238933 0.05587,1.975359 -1.031991,0.933938 -0.723485,1.47296 0.843045,1.47296 0.66744,0 1.330635,0.189484 1.473767,0.421076 0.37974,0.614429 0.73552,0.516359 0.38188,-0.10527 z m -3.118875,-0.868643 c 0,-0.07247 0.615824,-0.688287 1.368497,-1.368493 l 1.368498,-1.236742 -1.236739,1.368498 c -1.152814,1.275635 -1.500256,1.562048 -1.500256,1.236737 z M 38.720249,65.826892 c -0.369518,-0.369518 -0.999979,-0.519462 -1.563995,-0.371968 -1.482932,0.387799 -1.10611,0.991039 0.619065,0.991039 1.376138,0 1.48964,-0.07436 0.94493,-0.619071 z m 2.017643,0.09272 c -0.0579,-0.28949 0.09369,-0.491608 0.336862,-0.449147 0.243171,0.04248 0.44213,-0.362551 0.44213,-0.900024 0,-0.862976 -0.111676,-0.926339 -0.955272,-0.541969 -0.525401,0.239388 -0.895686,0.549657 -0.822864,0.689489 0.07283,0.139826 0.250422,0.585829 0.394657,0.991116 0.299767,0.842297 0.763116,1.003678 0.604487,0.210535 z m 9.495728,-0.6451 c -0.141633,-0.397869 -0.41594,-0.930312 -0.609571,-1.183216 -0.193632,-0.252898 -0.211588,-0.614874 -0.03991,-0.804389 0.171685,-0.189519 0.0753,-0.208276 -0.214191,-0.0417 -0.28949,0.166598 -0.526346,0.854222 -0.526346,1.528062 0,0.969717 0.146094,1.1691 0.70069,0.956285 0.508765,-0.195233 0.606281,-0.116123 0.356016,0.288812 -0.224495,0.36324 -0.181584,0.456896 0.123074,0.26861 0.25726,-0.158994 0.351864,-0.614611 0.210231,-1.012485 z M 34.356692,64.696593 c 0.186147,-0.301198 0.115506,-0.371834 -0.185692,-0.185687 -0.30963,0.191369 -0.50695,-0.05255 -0.54348,-0.671824 -0.0554,-0.939652 -0.0646,-0.936959 -0.27482,0.08042 l -0.21747,1.052687 -0.31483,-1.052687 -0.31482,-1.052693 -0.042,1.157958 c -0.0319,0.879925 0.15427,1.157963 0.77533,1.157963 0.44952,0 0.95251,-0.218762 1.117758,-0.486138 z m 4.381087,-0.202279 c 0,-0.05441 -0.189126,-0.59636 -0.420284,-1.20435 -0.477549,-1.256054 -1.074656,-1.11071 -1.349792,0.328559 -0.151519,0.79264 -0.0036,0.9747 0.791879,0.9747 0.538006,0 0.978197,-0.0445 0.978197,-0.09891 z m 8.624397,-1.135631 c 0.573686,-0.875558 0.89071,-0.961383 2.92727,-0.792495 2.333402,0.193503 2.658443,-0.08376 1.768616,-1.508688 -0.269285,-0.431213 -0.643214,-0.367778 -1.777733,0.301607 l -1.43672,0.84769 v -1.679813 -1.679813 l -1.066147,0.69857 c -0.99472,0.651762 -1.020167,0.749372 -0.379827,1.456938 0.939885,1.038561 0.426189,1.653596 -1.381134,1.653596 -1.487505,0 -1.500753,0.01481 -0.75204,0.842152 0.979485,1.082317 1.311481,1.060198 2.097715,-0.139744 z m 28.352207,-1.290657 c 0.121606,-1.446956 0.06539,-1.539959 -0.687344,-1.137107 -0.45088,0.2413 -0.934646,0.738063 -1.075037,1.103913 -0.140387,0.365846 -0.08941,0.562685 0.113291,0.437409 0.202698,-0.125276 0.587405,0.03595 0.854903,0.358257 0.337525,0.406696 0.348907,0.653326 0.03718,0.805932 -0.247049,0.120951 -0.207586,0.172105 0.08769,0.113673 0.29528,-0.05843 0.596467,-0.815371 0.669309,-1.682077 z m -9.185575,-0.516001 c 0,-1.712773 -0.07857,-1.881195 -0.654605,-1.40313 -0.813746,0.67535 -1.748216,2.319829 -1.085484,1.910237 0.247125,-0.15273 0.690578,0.108632 0.985453,0.580805 0.294876,0.472167 0.5853,0.85849 0.645388,0.85849 0.06009,0 0.109248,-0.875885 0.109248,-1.946402 z m -2.769393,0.180568 c 0.571599,-0.816075 0.574382,-1.003895 0.02387,-1.612193 -0.893797,-0.987634 -0.793265,-1.104575 0.790634,-0.919664 1.661461,0.193969 2.299358,-0.736163 1.189599,-1.734581 -0.635913,-0.572108 -0.811578,-0.553572 -1.714908,0.180979 -0.553534,0.450109 -1.072048,1.240221 -1.152258,1.755803 -0.08021,0.515578 -0.265232,1.458496 -0.41116,2.095375 -0.322961,1.409468 0.362769,1.535552 1.274214,0.234281 z m 1.452452,-4.023966 c -0.523764,-0.667851 -0.50887,-0.682745 0.158982,-0.158981 0.405286,0.317849 0.736883,0.649447 0.736883,0.736883 0,0.346563 -0.345784,0.123506 -0.895865,-0.577902 z m -21.661788,3.86488 c 0.728767,-0.72877 0.885135,-1.210411 0.269426,-0.829885 -0.215745,0.133341 -0.669672,-0.153622 -1.008726,-0.637685 -0.412518,-0.588956 -0.714305,-0.721809 -0.912213,-0.401589 -0.162663,0.263193 0.05441,0.892935 0.482382,1.399421 0.77353,0.91544 0.772955,0.916533 -0.09718,0.184008 -1.065132,-0.896688 -1.300252,-0.919077 -1.300252,-0.123794 0,0.337204 0.14481,0.523595 0.321801,0.414207 0.176991,-0.109384 0.440819,-0.0063 0.586286,0.229064 0.373981,0.60511 0.892725,0.531998 1.658472,-0.233747 z m 1.783643,0.380055 c -0.1549,-0.154901 0.03237,-0.628613 0.416159,-1.052693 0.383787,-0.42408 0.502143,-0.771054 0.263015,-0.771054 -0.660549,0 -1.48857,1.168058 -1.180911,1.665862 0.149402,0.241735 0.38678,0.439517 0.527507,0.439517 0.140726,0 0.12913,-0.126732 -0.02577,-0.281632 z m 6.36908,-2.493089 c 0.206021,-0.368139 0.542296,-0.638154 0.74728,-0.600034 0.204983,0.03811 0.440595,-0.134386 0.523582,-0.383347 0.182736,-0.548203 -0.615661,-0.608123 -0.947552,-0.07111 -0.292723,0.473635 -1.919275,0.0876 -1.919275,-0.455508 0,-0.218247 -0.187378,-0.281009 -0.416395,-0.139468 -0.255303,0.157785 -0.155115,0.656112 0.258965,1.28808 0.786029,1.199629 1.232764,1.291706 1.753395,0.361389 z m 25.352911,-2.067652 c 0,-0.783236 -0.189485,-1.541173 -0.421076,-1.684305 -0.257501,-0.159142 -0.421077,0.495165 -0.421077,1.684305 0,1.189139 0.163576,1.843446 0.421077,1.684304 0.231591,-0.143132 0.421076,-0.901069 0.421076,-1.684304 z M 24.68182,58.544333 c 0.25914,-0.170148 1.06921,-1.285482 1.80016,-2.478521 0.73095,-1.193035 1.84531,-2.50342 2.47637,-2.911965 0.87627,-0.567299 0.72454,-0.280854 -0.6422,1.212333 -0.98427,1.075323 -1.78958,2.148852 -1.78958,2.385619 0,0.9406 0.83516,0.330246 2.25792,-1.650121 0.98928,-1.377004 1.77454,-2.05953 2.32207,-2.018286 0.80971,0.06099 0.80835,0.08896 -0.0643,1.314482 -1.01593,1.426741 -0.0959,1.040661 1.09414,-0.459124 0.4221,-0.531975 0.97255,-0.967229 1.22322,-0.967229 0.25068,0 0.11282,0.378968 -0.30636,0.842152 -0.41917,0.463184 -0.575,0.842153 -0.34627,0.842153 0.22872,0 1.02496,-0.757938 1.769409,-1.684305 0.74445,-0.926368 1.62884,-1.684305 1.965315,-1.684305 0.839085,0 0.769076,-0.990346 -0.127354,-1.801608 -0.676264,-0.612005 -0.976871,-0.602972 -3.53428,0.106174 -3.60708,1.000212 -4.77875,1.799849 -6.11942,4.176356 -0.60205,1.067209 -1.54439,2.650944 -2.0941,3.519414 -0.95267,1.505106 -0.91349,1.932242 0.11527,1.256781 z m 21.769838,-1.891731 c -0.182682,-0.287654 -0.343663,-0.712495 -0.357736,-0.944086 -0.02883,-0.474435 -1.05623,-0.339973 -1.622256,0.212311 -0.472483,0.461015 -0.02193,1.682532 0.6206,1.682532 0.332015,0 0.302868,-0.233323 -0.09205,-0.736884 -0.521414,-0.664854 -0.507189,-0.681486 0.145517,-0.170152 0.397882,0.311701 0.707041,0.69067 0.687019,0.842152 -0.110899,0.83907 0.143579,1.023741 0.519997,0.377356 0.237083,-0.407122 0.281594,-0.975575 0.09891,-1.263229 z m 15.327419,0.978842 c 0.03373,-0.447738 -0.241196,-1.063562 -0.610944,-1.368497 -0.591375,-0.487716 -0.620152,-0.453095 -0.239154,0.287721 0.238216,0.463184 0.348188,1.079008 0.244388,1.368498 -0.103799,0.28949 -0.02379,0.526345 0.17783,0.526345 0.201607,0 0.394156,-0.366332 0.42788,-0.814067 z m 7.032271,-0.39515 c 0.2172,-0.351439 -0.636768,-1.270665 -1.798205,-1.93562 -0.450476,-0.257913 -0.476794,-0.154316 -0.126888,0.499489 0.24281,0.453688 0.32873,1.255999 0.190941,1.782904 -0.225763,0.863319 -0.163511,0.911444 0.629783,0.486891 0.48417,-0.259123 0.981133,-0.634268 1.104369,-0.833664 z m 2.762972,0.151954 c 0.192469,0.11895 0.256022,-0.210328 0.141233,-0.73173 -0.464136,-2.108219 -0.518614,-2.164058 -1.364493,-1.39855 -0.897789,0.812484 -0.901596,1.50843 -0.01411,2.579021 0.562756,0.678867 0.624431,0.681932 0.750295,0.03731 0.07543,-0.386287 0.29461,-0.605019 0.487075,-0.486065 z m -1.676903,-1.207099 c 0,-0.08744 0.331598,-0.419034 0.736884,-0.736884 0.667852,-0.523764 0.682745,-0.50887 0.158981,0.158982 -0.550081,0.701407 -0.895865,0.924464 -0.895865,0.577902 z M 48.64502,56.862375 c 0.0066,-0.515056 0.148685,-0.93801 0.315807,-0.939892 1.195246,-0.01347 1.23144,0.0179 0.724934,0.628186 -0.362169,0.436387 -0.378105,0.631614 -0.05156,0.631614 0.259949,0 0.472635,-0.16843 0.472635,-0.37429 0,-0.20586 0.311204,-0.347973 0.691563,-0.315807 0.38036,0.03217 0.790143,-0.225743 0.910629,-0.573131 0.183319,-0.528552 0.110945,-0.542393 -0.443538,-0.08482 -0.40772,0.336457 -0.760363,0.388611 -0.916743,0.135582 -0.139777,-0.226159 0.130331,-0.533229 0.600241,-0.682374 1.089369,-0.345754 0.701982,-1.047309 -0.41676,-0.75475 -0.460348,0.120386 -0.733203,0.386822 -0.606344,0.592084 0.272069,0.440214 0.07286,0.466877 -0.848047,0.113492 -0.531412,-0.203923 -0.570615,-0.387659 -0.182496,-0.855315 0.388703,-0.468359 0.332277,-0.714078 -0.26412,-1.150174 -0.417135,-0.305015 -0.636822,-0.751334 -0.488194,-0.991819 0.303699,-0.491396 -0.861477,-1.637422 -1.259803,-1.239097 -0.140649,0.140648 -0.592647,0.07541 -1.004439,-0.144972 -0.596589,-0.319285 -0.720218,-0.252111 -0.608467,0.33062 0.07713,0.402225 0.154744,0.911331 0.172463,1.131344 0.01772,0.220012 0.259598,0.172641 0.537508,-0.105269 0.277911,-0.27791 0.893735,-0.490331 1.368498,-0.472048 0.49578,0.01907 0.628209,0.127295 0.31112,0.254208 -0.428726,0.171593 -0.390099,0.399959 0.172867,1.022028 0.398724,0.440584 0.599792,0.926224 0.446817,1.079201 -0.152975,0.152973 -0.278136,0.03387 -0.278136,-0.26468 0,-0.434757 -0.125733,-0.438466 -0.631614,-0.01861 -0.810525,0.672678 -0.81962,1.425473 -0.01349,1.11613 0.900472,-0.345544 1.133109,0.320043 0.434464,1.243025 -0.831708,1.098773 -0.781467,1.942593 0.105366,1.769687 0.432887,-0.08441 0.741813,-0.53001 0.748832,-1.080141 z m 3.146122,0.740985 c 0,-0.231592 -0.178301,-0.421077 -0.396226,-0.421077 -0.217924,0 -0.513332,0.189485 -0.656464,0.421077 -0.143132,0.231591 0.03517,0.421076 0.396225,0.421076 0.361056,0 0.656465,-0.189485 0.656465,-0.421076 z m 11.513099,-0.610169 c 0.156497,-0.407821 0.03179,-0.532522 -0.376026,-0.376026 -0.666028,0.255577 -0.839491,0.986195 -0.234143,0.986195 0.206815,0 0.481391,-0.274576 0.610169,-0.610169 z m 2.663134,-1.284674 c 0,-0.363604 -0.37224,-0.62593 -0.877245,-0.618224 -0.86188,0.01314 -0.862928,0.02421 -0.05988,0.631614 0.99571,0.75312 0.937122,0.753954 0.937122,-0.01339 z M 30.87388,53.392598 c -0.27571,-0.277683 -1.82145,1.640761 -1.81876,2.257297 0.001,0.263833 0.45788,-0.08875 1.01494,-0.78353 0.55708,-0.694776 0.9188,-1.357971 0.80382,-1.473767 z m 39.399066,0.195068 c -0.36608,-0.36608 -0.953843,-0.529373 -1.353461,-0.37603 -1.1642,0.446749 -0.79967,1.023114 0.647089,1.023114 1.217457,0 1.288434,-0.06502 0.706372,-0.647084 z m 2.339549,0.274268 c -0.107976,-0.107977 0.231748,-0.684089 0.754948,-1.280249 0.5232,-0.596164 0.777168,-0.941404 0.564368,-0.767205 -0.212799,0.1742 -0.733881,0.0025 -1.157959,-0.381069 -0.733679,-0.66397 -0.771053,-0.624895 -0.771053,0.806146 0,0.827166 -0.236856,1.595158 -0.526346,1.706651 -0.28949,0.111488 -0.108137,0.182313 0.403008,0.157381 0.511148,-0.02493 0.841011,-0.133675 0.733034,-0.241655 z M 76.21356,52.70509 c 0,-0.764114 -0.319997,-2.060342 -0.711105,-2.880502 -0.554742,-1.163311 -0.890391,-1.434291 -1.526498,-1.232401 -0.607398,0.192781 -0.731018,0.113024 -0.484612,-0.312662 0.181926,-0.3143 0.169192,-0.424458 -0.0283,-0.244797 -0.197494,0.17966 -0.416166,0.700742 -0.485943,1.157959 -0.125405,0.821718 0.220462,0.999584 1.658859,0.853079 0.763057,-0.07772 0.842094,0.904518 0.16067,1.996777 -0.187568,0.300662 -0.136576,0.789754 0.113796,1.091434 0.249521,0.300657 0.360576,0.639741 0.246788,0.753528 -0.113782,0.113788 0.07734,0.206888 0.424732,0.206888 0.433813,0 0.631614,-0.435086 0.631613,-1.389303 z m -28.654233,0.718798 c 0.104216,-0.01722 -0.02571,-0.246489 -0.288738,-0.509511 -0.356912,-0.356912 -0.653523,-0.302922 -1.169282,0.212838 -0.640694,0.640692 -0.619651,0.677827 0.288738,0.50951 0.538888,-0.09985 1.065065,-0.195627 1.169282,-0.212837 z m 16.23905,-0.459621 c 0.749259,-0.82792 0.737979,-0.881481 -0.445852,-2.117133 -1.113519,-1.162268 -1.430076,-1.261793 -3.805404,-1.196446 -2.733332,0.0752 -3.743624,-0.228241 -3.276488,-0.984085 0.164627,-0.266372 0.08733,-0.33644 -0.185279,-0.167954 -0.611785,0.378101 -0.187585,1.439979 0.782687,1.95925 0.506147,0.270883 0.857261,0.264566 1.032247,-0.01857 0.145853,-0.235996 0.44467,-0.318157 0.664037,-0.182579 0.219367,0.135574 0.271739,0.452169 0.116382,0.703543 -0.162172,0.262402 -0.08783,0.336747 0.174574,0.174574 0.251373,-0.155356 0.570945,-0.09817 0.710161,0.127085 0.139212,0.225259 0.56236,0.290888 0.940322,0.145852 0.509056,-0.195345 0.597116,-0.108709 0.33969,0.334196 -0.19113,0.328848 0.178234,0.124192 0.820813,-0.454788 l 1.168322,-1.05269 -0.164127,1.789573 c -0.183939,2.005544 0.01428,2.170749 1.127915,0.940167 z m -2.743559,-1.836031 c 0,-0.08744 0.331597,-0.419034 0.736883,-0.736884 0.667852,-0.523764 0.682746,-0.508871 0.158981,0.158982 -0.550081,0.701408 -0.895864,0.924464 -0.895864,0.577902 z m 5.88176,0.640275 -0.01331,-1.533984 -1.05571,1.200416 c -0.805443,0.915849 -0.944718,1.334146 -0.587519,1.764545 0.805667,0.97077 1.670885,0.223364 1.656535,-1.430977 z m -6.092298,1.203011 c -0.143132,-0.231592 -0.580656,-0.418175 -0.972274,-0.41463 -0.613621,0.0056 -0.624738,0.06286 -0.08042,0.41463 0.824623,0.532914 1.382048,0.532914 1.052691,0 z M 38.658021,50.753907 c 0.160873,-1.353132 -1.221989,-2.858454 -2.551968,-2.777957 -0.945542,0.05723 -0.945475,0.05771 0.03455,0.24435 1.25897,0.239765 2.345742,2.563718 1.613911,3.4512 -0.388327,0.470927 -0.358935,0.551866 0.141117,0.388603 0.347389,-0.113418 0.690468,-0.701206 0.762394,-1.306196 z m 32.363602,0.81269 c 0.167067,-0.167066 0.344668,-0.582496 0.394671,-0.92318 0.06813,-0.464237 -0.368269,-0.619428 -1.741824,-0.619428 -1.008001,0 -1.967933,0.218761 -2.13318,0.486136 -0.181278,0.293313 -0.116007,0.372143 0.164561,0.198744 0.255753,-0.158064 0.669574,0.09484 0.919601,0.562023 0.435586,0.813898 1.719531,0.972349 2.396171,0.295705 z M 66.031521,48.87947 c -0.815607,-0.982745 -0.75525,-1.686065 0.21557,-2.512052 0.82475,-0.701711 0.851134,-0.70321 0.32017,-0.01819 -0.505439,0.652079 -0.491202,0.712971 0.112528,0.481294 0.565362,-0.216951 0.691172,0.02312 0.691172,1.318853 0,1.557405 0.01419,1.571246 0.842152,0.821941 1.097728,-0.993428 1.064093,-1.308292 -0.272024,-2.546563 -0.845588,-0.783682 -1.579208,-1.032601 -3.043235,-1.032601 h -1.929055 l 1.116382,1.116382 1.116383,1.116383 -0.87714,0.710266 c -1.148949,0.93036 -0.691007,1.5971 0.933218,1.358712 1.086979,-0.159533 1.209971,-0.288967 0.773879,-0.814425 z m 6.115744,-0.614902 c 0.583001,-0.37912 -0.405711,-2.599825 -0.99528,-2.235451 -0.234384,0.144859 -0.324335,0.428125 -0.19989,0.629479 0.124445,0.201355 -0.105374,0.551694 -0.51071,0.778532 -0.694186,0.388485 -0.689213,0.465209 0.08564,1.321417 0.595178,0.657667 0.872158,0.754526 1.001794,0.350331 0.09855,-0.307259 0.376847,-0.687196 0.618443,-0.844308 z M 59.152374,48.74846 c -0.08789,-0.142205 0.223929,-0.58711 0.692928,-0.988678 0.707109,-0.605444 0.761133,-0.840477 0.316388,-1.376364 -0.478616,-0.576697 -0.595351,-0.565521 -1.084831,0.10388 -0.301674,0.412566 -0.560617,1.140241 -0.575428,1.617059 -0.02133,0.68667 -0.168554,0.582374 -0.708009,-0.501556 -0.374593,-0.752674 -0.836185,-1.368498 -1.02576,-1.368498 -0.548141,0 -0.400803,0.725876 0.286932,1.413612 0.347388,0.347388 0.631614,0.822858 0.631614,1.056598 0,0.233743 0.365842,0.397428 0.812981,0.363746 0.44714,-0.03369 0.741073,-0.177593 0.653185,-0.319799 z m 3.400898,-2.812203 c -0.19959,-0.520122 -0.363624,-0.540662 -0.881999,-0.110448 -0.350242,0.290677 -0.544152,0.621154 -0.430908,0.734398 0.113244,0.113245 0.0042,0.58282 -0.242371,1.043503 -0.265982,0.496988 -0.279359,0.733207 -0.03289,0.580888 0.228459,-0.141196 0.673701,0.0572 0.989432,0.440883 0.512542,0.622843 0.588517,0.550372 0.708995,-0.676337 0.07421,-0.755663 0.02459,-1.661465 -0.11025,-2.012887 z m -4.572561,-0.309756 c -0.89415,-0.894151 -1.272479,-0.240207 -0.411459,0.71121 0.407861,0.450678 0.792828,0.60597 0.876907,0.353738 0.08243,-0.247294 -0.12702,-0.726521 -0.465448,-1.064948 z m 13.601011,-0.385074 c 0.374143,-0.06053 0.05815,-0.406402 -0.775172,-0.848491 -1.333354,-0.707359 -1.448742,-0.708342 -2.210649,-0.01882 -0.442126,0.400121 -0.803864,0.849557 -0.803864,0.998752 0,0.237744 1.919025,0.171189 3.789685,-0.131434 z M 61.44545,44.072035 c -0.384426,-0.7183 -0.555408,-0.781789 -0.850519,-0.315807 -0.574642,0.907356 -0.454489,1.214846 0.474701,1.214846 0.744563,0 0.793858,-0.117926 0.375818,-0.899039 z m 2.381144,0.53424 c -0.124003,-0.200641 0.139949,-0.695491 0.586555,-1.099666 0.778898,-0.704894 0.855227,-0.685724 1.871608,0.47007 l 1.059591,1.204934 0.01331,-1.323447 c 0.008,-0.797604 -0.237651,-1.419749 -0.618308,-1.56582 -0.347388,-0.133306 -0.631615,-0.0905 -0.631615,0.09512 0,0.514095 -1.528253,0.289783 -2.280788,-0.334767 -0.586399,-0.486668 -0.666745,-0.377997 -0.666745,0.901797 0,0.800331 0.126323,1.581469 0.280719,1.735863 0.401425,0.401428 0.651977,0.346806 0.385677,-0.08408 z m -3.613928,-3.845962 c 0,-0.231592 -0.273043,-0.421077 -0.606763,-0.421077 -0.33372,0 -0.723873,0.189485 -0.867004,0.421077 -0.143132,0.231592 0.129912,0.421076 0.606762,0.421076 0.476852,0 0.867005,-0.189484 0.867005,-0.421076 z M 40.843162,24.994807 c 0,-0.102128 -0.189485,-0.302795 -0.421077,-0.445927 -0.23159,-0.143132 -0.421073,-0.05957 -0.421073,0.185688 0,0.245259 0.189483,0.445926 0.421073,0.445926 0.231592,0 0.421077,-0.08356 0.421077,-0.185687 z m 7.631621,-9.611352 c -0.415861,-0.412767 -0.464228,-0.3644 -0.235716,0.235717 0.158127,0.415274 0.393576,0.648971 0.52322,0.519327 0.129644,-0.129644 2.67e-4,-0.469413 -0.287504,-0.755044 z M 25.15105,91.237204 c 0.28563,-0.287776 0.6254,-0.41715 0.75505,-0.287507 0.12964,0.129648 -0.10406,0.365094 -0.51933,0.523223 -0.60012,0.22851 -0.64848,0.180143 -0.23572,-0.235716 z m 3.56299,-24.159633 c 0.009,-0.694773 0.10296,-0.928023 0.20971,-0.518328 0.10676,0.40969 0.0998,0.978146 -0.0156,1.263228 -0.11535,0.285077 -0.2027,-0.05014 -0.19411,-0.7449 z m 45.761503,-8.947866 c -0.523764,-0.667852 -0.50887,-0.682746 0.158982,-0.158982 0.405286,0.31785 0.736883,0.649447 0.736883,0.736884 0,0.346562 -0.345784,0.123505 -0.895865,-0.577902 z M 74.10818,56.602226 c 0,-0.08744 0.331597,-0.419034 0.736883,-0.736884 0.667852,-0.523764 0.682745,-0.50887 0.158981,0.158982 -0.550081,0.701408 -0.895864,0.924464 -0.895864,0.577902 z M 72.84495,46.031572 c 0,-0.117716 0.860508,-0.618515 1.912238,-1.112888 1.206834,-0.567279 2.157548,-1.383561 2.577235,-2.212808 0.937623,-1.852621 1.860159,-2.811987 2.409292,-2.505474 0.258537,0.14431 0.217629,-0.0023 -0.09091,-0.325737 -0.476136,-0.499175 -0.755175,-0.365236 -1.845088,0.885648 -0.706259,0.810571 -1.153202,1.236911 -0.993205,0.947421 0.461322,-0.834698 -0.150998,-1.495582 -0.848978,-0.916309 -0.326768,0.271194 -0.601541,0.327766 -0.610607,0.125715 -0.0091,-0.202051 -0.296202,0.277131 -0.638078,1.064848 -0.34188,0.787718 -0.738345,1.315466 -0.881034,1.172775 -0.142695,-0.142692 -0.628301,-0.06203 -1.07913,0.179246 -0.450834,0.241277 -1.118955,0.323848 -1.484723,0.18349 -0.512808,-0.196783 -0.288417,-0.527272 0.980324,-1.443847 2.037583,-1.472007 4.257695,-2.276773 4.628002,-1.677599 0.157642,0.255072 0.662433,0.05354 1.251114,-0.499497 0.56327,-0.529165 1.267141,-0.819532 1.639881,-0.676497 0.89659,0.344054 0.821204,1.154044 -0.130575,1.402939 -0.430984,0.112706 -1.187208,0.92302 -1.68049,1.800698 -0.493283,0.877678 -1.14998,1.805836 -1.459332,2.062574 -0.707252,0.58697 -3.655936,1.833326 -3.655936,1.545302 z m 0,-3.376416 c 0.292409,-0.352332 0.338007,-0.631615 0.103118,-0.631615 -0.231592,0 -0.656963,0.284227 -0.945269,0.631615 -0.292409,0.352331 -0.338007,0.631614 -0.103118,0.631614 0.231592,0 0.656963,-0.284227 0.945269,-0.631614 z m 1.677859,-1.15796 c 0.0035,-0.173694 -0.183037,-0.315807 -0.414629,-0.315807 -0.231593,0 -0.418176,0.42634 -0.414631,0.947421 0.0052,0.766122 0.08456,0.826555 0.414631,0.315808 0.2245,-0.347389 0.411084,-0.773728 0.414629,-0.947422 z m -4.657393,-0.6253 c 0.378648,-1.320263 2.9281,-6.394027 2.959281,-5.889373 0.01114,0.180298 -0.548199,1.453913 -1.242975,2.830257 -0.694775,1.376343 -1.263228,2.780888 -1.263228,3.121212 0,0.340324 -0.177307,0.728353 -0.394014,0.862285 -0.238043,0.147118 -0.261421,-0.218801 -0.05906,-0.924381 z M 39.260706,36.95624 c -1.504683,-0.604635 -2.016598,-2.173778 -1.226112,-3.758341 0.619484,-1.241787 0.613952,-1.308615 -0.08984,-1.085239 -0.447743,0.14211 -1.047637,-0.09088 -1.488615,-0.578151 -0.705536,-0.779612 -0.703988,-0.810392 0.0346,-0.686901 0.425293,0.07111 0.730355,0.327566 0.677922,0.56991 -0.100551,0.4647 1.282374,0.400898 2.502637,-0.115461 0.397647,-0.168265 0.966097,-0.208279 1.263228,-0.08892 0.29713,0.119359 0.143264,0.231975 -0.341924,0.250258 -1.077458,0.0406 -2.116656,1.131692 -2.485361,2.60946 -0.219694,0.880548 -0.04538,1.283132 0.866136,2.000112 1.438236,1.131318 2.712592,1.139019 4.128903,0.02495 1.819341,-1.431094 1.303409,-3.878184 -0.995905,-4.723627 -0.466287,-0.171451 -0.411177,-0.253994 0.210539,-0.315348 0.463183,-0.04571 0.972778,-0.0645 1.132431,-0.04175 0.159653,0.02275 0.964962,-0.74686 1.789574,-1.710233 0.824612,-0.963373 1.499294,-1.623284 1.499294,-1.466469 0,0.156815 -0.658083,1.013538 -1.462407,1.903828 -1.340824,1.484132 -1.422999,1.723114 -0.988405,2.874487 1.18608,3.142281 -1.732906,5.66101 -5.026709,4.337442 z m 0.714208,-1.367502 c -1.134673,-0.884941 -1.240948,-1.854491 -0.294204,-2.684041 0.487376,-0.427045 0.74764,-0.539591 0.578365,-0.2501 -0.169271,0.289489 -0.139915,0.526345 0.06523,0.526345 0.20515,0 0.289568,0.568453 0.187597,1.263228 -0.116059,0.79076 -7.77e-4,1.263228 0.308316,1.263228 0.271546,0 0.387532,-0.171813 0.257749,-0.381807 -0.129783,-0.209994 0.117166,-0.28946 0.548776,-0.176591 0.540978,0.141469 0.855879,-0.0668 1.013741,-0.670464 0.125947,-0.481624 0.0573,-0.981793 -0.152551,-1.111488 -0.20985,-0.129694 -0.381545,-0.43731 -0.381545,-0.683592 0,-0.279417 0.241062,-0.24772 0.641121,0.0843 0.741649,0.615514 0.464606,2.03399 -0.553581,2.834374 -0.8282,0.651037 -1.371287,0.64776 -2.219016,-0.01339 z m 0.02611,-1.590495 c 0,-0.476851 -0.181211,-0.755009 -0.402686,-0.618129 -0.221481,0.13688 -0.295951,0.527032 -0.16549,0.867003 0.334009,0.870412 0.568176,0.767842 0.568176,-0.248874 z m 26.590886,0.181679 c -0.113286,-2.364768 -1.427478,-2.654785 -7.431922,-1.640079 -0.694777,0.117412 -0.315808,-0.06562 0.842152,-0.406742 4.518985,-1.331236 7.227296,-0.471567 6.831872,2.168563 L 66.655,35.496861 Z M 23.76092,33.663358 c -1.55504,-0.872837 -1.92329,-1.369911 -1.60517,-2.166721 0.1387,-0.347388 0.27988,-1.010583 0.31374,-1.473767 0.0452,-0.617993 0.31312,-0.807087 1.00664,-0.710415 0.51979,0.07246 0.94507,-0.08084 0.94507,-0.340658 0,-0.259817 -0.23686,-0.338671 -0.52635,-0.175232 -0.33258,0.187771 -0.31321,0.08066 0.0526,-0.290956 0.44798,-0.455052 0.62264,-0.469029 0.77197,-0.06177 0.10615,0.28949 0.36669,0.526345 0.57898,0.526345 0.21229,0 0.33862,-0.236855 0.28072,-0.526345 -0.0623,-0.31157 0.26484,-0.488337 0.80175,-0.433199 0.49887,0.05123 1.0149,-0.187968 1.14674,-0.531552 0.23747,-0.618827 -0.22492,-0.606475 -2.75521,0.07359 -0.38579,0.103691 -0.82331,-0.0087 -0.97227,-0.249675 -0.17001,-0.275085 0.34353,-0.438204 1.37957,-0.438204 1.05049,0 2.19501,-0.369583 3.14868,-1.016759 0.82405,-0.559218 1.60843,-0.906606 1.74306,-0.771973 0.46002,0.460025 0.2456,1.684936 -0.38683,2.209808 -0.52718,0.437526 -0.63161,0.378618 -0.63161,-0.356302 0,-0.626451 -0.1904,-0.807431 -0.65992,-0.627262 -0.46765,0.179456 -0.52899,0.384159 -0.21054,0.702614 0.24716,0.247159 0.44648,0.648339 0.44294,0.89151 -0.004,0.243172 -0.19013,0.157904 -0.41463,-0.189484 -0.35288,-0.546042 -0.40906,-0.536365 -0.41463,0.07143 -0.004,0.468116 -0.7153,0.938486 -2.12777,1.40763 -1.21552,0.403731 -2.3997,1.129468 -2.77328,1.699628 -0.64791,0.988833 -0.49783,1.874227 0.31769,1.874227 0.23446,0 0.71015,0.283851 1.05708,0.63078 0.84647,0.846475 2.04786,0.192225 3.18448,-1.734209 0.47346,-0.802442 0.93978,-1.380034 1.03628,-1.283538 0.36688,0.366885 -1.5914,3.115957 -2.52151,3.539746 -0.74882,0.341183 -1.25893,0.2836 -2.20831,-0.249286 z m 6.02069,-7.61154 c -0.0337,-0.44714 -0.20311,-0.725298 -0.37652,-0.618129 -0.1734,0.107168 -0.20853,0.47301 -0.0781,0.812981 0.32896,0.857251 0.52744,0.772177 0.45459,-0.194852 z m 11.061562,7.971276 c 0,-0.231592 0.295409,-0.421076 0.656465,-0.421076 0.361055,0 0.539357,0.189484 0.396225,0.421076 -0.143131,0.231592 -0.43854,0.421076 -0.656465,0.421076 -0.217924,0 -0.396225,-0.189484 -0.396225,-0.421076 z m 32.226323,-0.256833 c 0.118723,-0.488646 0.489489,-1.720294 0.823925,-2.736996 0.525642,-1.59798 0.574693,-1.648781 0.36186,-0.37478 -0.135414,0.810571 -0.50618,2.042219 -0.823924,2.736995 -0.317744,0.694775 -0.480578,0.863427 -0.361861,0.374781 z M 41.05371,32.759865 c -0.143132,-0.231591 -0.05957,-0.421076 0.185687,-0.421076 0.24526,0 0.445927,0.189485 0.445927,0.421076 0,0.231592 -0.08356,0.421077 -0.185687,0.421077 -0.102129,0 -0.302795,-0.189485 -0.445927,-0.421077 z m -8.97895,-5.568224 c -0.2724,-0.2724 -0.49527,-1.038286 -0.49527,-1.701967 0,-1.521229 -0.68739,-2.835636 -1.48293,-2.835636 -0.33614,0 -0.88825,0.663194 -1.22693,1.473766 -0.55921,1.33837 -0.77156,1.473767 -2.31139,1.473767 -0.95343,0 -2.29908,0.367933 -3.07429,0.840578 -1.69327,1.032382 -2.0196,1.050018 -1.97705,0.106843 0.0221,-0.48897 0.10815,-0.549442 0.25589,-0.179746 0.16489,0.412601 0.49293,0.303364 1.2645,-0.421076 0.80901,-0.759593 1.49987,-0.971442 3.09124,-0.947913 1.12716,0.01666 1.98656,-0.07808 1.90977,-0.210538 -0.35253,-0.608106 0.69047,-2.189533 1.69626,-2.571933 1.31528,-0.500068 2.36904,0.124912 1.96887,1.167727 -0.14882,0.387839 -0.0817,0.561535 0.15938,0.412529 0.25228,-0.155915 0.34464,0.23184 0.23431,0.983615 -0.15263,1.039939 -0.038,1.24099 0.7078,1.24099 1.01109,0 1.15478,0.519245 0.33253,1.201651 -0.40705,0.337824 -0.69102,0.329014 -1.05269,-0.03266 z m 0.93512,-0.256662 c 0.11928,-0.192994 -0.0507,-0.350898 -0.3777,-0.350898 -0.32702,0 -0.49699,0.157904 -0.37771,0.350898 0.11928,0.192993 0.28924,0.350896 0.37771,0.350896 0.0885,0 0.25842,-0.157903 0.3777,-0.350896 z m 13.544882,-0.367827 c -0.228512,-0.600117 -0.180145,-0.648483 0.235717,-0.235716 0.28777,0.28563 0.417147,0.625399 0.287504,0.755044 -0.129645,0.129644 -0.365094,-0.104053 -0.523221,-0.519328 z M 45.535746,22.33823 c -0.459479,-1.073763 -0.449085,-1.098528 0.142948,-0.340596 0.351152,0.44955 0.638458,0.970632 0.638458,1.15796 0,0.639996 -0.28563,0.341223 -0.781406,-0.817364 z M 40.25492,20.057401 c 0.119277,-0.192993 0.395168,-0.350897 0.613092,-0.350897 0.217924,0 0.396225,0.157904 0.396225,0.350897 0,0.192993 -0.27589,0.350897 -0.613091,0.350897 -0.3372,0 -0.515503,-0.157904 -0.396226,-0.350897 z m 4.377927,-0.771973 c 0,-0.231592 0.189484,-0.421076 0.421076,-0.421076 0.231592,0 0.421076,0.189484 0.421076,0.421076 0,0.231592 -0.189484,0.421076 -0.421076,0.421076 -0.231592,0 -0.421076,-0.189484 -0.421076,-0.421076 z m -1.684305,-1.077541 c 0,-0.361055 0.192575,-0.537447 0.427945,-0.391981 0.235369,0.145467 0.318929,0.440876 0.185687,0.656465 -0.360963,0.584052 -0.613632,0.475147 -0.613632,-0.264484 z M 25.76628,17.935637 c -0.27661,-0.276619 -0.50294,-1.132304 -0.50294,-1.901523 0,-1.076984 0.2381,-1.507062 1.03544,-1.870357 1.48281,-0.675614 3.17532,0.475175 3.17532,2.158994 0,0.675769 -0.14988,1.321305 -0.33307,1.434523 -0.18319,0.113218 -0.25915,-0.427334 -0.16881,-1.201229 0.12907,-1.105564 -0.0285,-1.51027 -0.73552,-1.888633 -0.49488,-0.264854 -1.30247,-0.353748 -1.79463,-0.197542 -0.79519,0.252384 -0.81686,0.327648 -0.19463,0.675865 0.73411,0.41083 0.9217,1.875759 0.35455,2.768849 -0.25795,0.406196 -0.44583,0.41093 -0.83571,0.02105 z m 0.76029,-1.387204 c 0,-0.57898 -0.18948,-1.05269 -0.42108,-1.05269 -0.23159,0 -0.42107,0.47371 -0.42107,1.05269 0,0.57898 0.18948,1.05269 0.42107,1.05269 0.2316,0 0.42108,-0.47371 0.42108,-1.05269 z m 18.027325,1.186123 c 0.303965,-0.121636 0.667143,-0.106676 0.807063,0.03325 0.13992,0.13992 -0.108778,0.239441 -0.552663,0.221158 -0.490529,-0.0202 -0.590306,-0.119982 -0.2544,-0.254401 z M 23.62906,15.989698 c -0.0409,-1.489525 0.17456,-2.046546 1.18081,-3.052803 0.8134,-0.813397 1.6593,-1.230838 2.49416,-1.230838 1.46212,0 3.85438,1.809089 3.85438,2.914785 0,1.015366 0.45358,1.372116 1.08173,0.850801 0.65195,-0.541076 1.32367,0.313585 0.72051,0.916745 -0.65397,0.65397 -1.61177,0.01249 -2.59595,-1.738622 -0.71537,-1.272837 -1.2602,-1.711658 -2.38777,-1.923192 -2.0861,-0.391354 -3.20888,0.499709 -3.8079,3.022016 l -0.48995,2.063071 z m 16.371952,1.190349 c 0,-0.231592 0.200662,-0.421076 0.445924,-0.421076 0.245259,0 0.328819,0.189484 0.185688,0.421076 -0.143132,0.231592 -0.343799,0.421076 -0.445926,0.421076 -0.102131,0 -0.185686,-0.189484 -0.185686,-0.421076 z m 1.684302,-0.421076 c 0,-0.231592 0.189484,-0.421076 0.421076,-0.421076 0.231592,0 0.421076,0.189484 0.421076,0.421076 0,0.231592 -0.189484,0.421076 -0.421076,0.421076 -0.231592,0 -0.421076,-0.189484 -0.421076,-0.421076 z m -2.736995,-1.263228 c -0.143131,-0.231592 -0.05957,-0.421077 0.185687,-0.421077 0.245257,0 0.445925,0.189485 0.445925,0.421077 0,0.231592 -0.08356,0.421076 -0.185687,0.421076 -0.102126,0 -0.302793,-0.189484 -0.445925,-0.421076 z m 1.684305,-1.263229 c -0.143132,-0.231592 0.03517,-0.421076 0.396225,-0.421076 0.361055,0 0.656465,0.189484 0.656465,0.421076 0,0.231592 -0.178302,0.421076 -0.396225,0.421076 -0.217925,0 -0.513334,-0.189484 -0.656465,-0.421076 z m -1.894845,-0.842152 c 0,-0.231592 0.189488,-0.421077 0.421076,-0.421077 0.231592,0 0.421076,0.189485 0.421076,0.421077 0,0.231591 -0.189484,0.421076 -0.421076,0.421076 -0.231588,0 -0.421076,-0.189485 -0.421076,-0.421076 z m 3.856173,-0.421077 c 0,-0.578979 0.09557,-0.815834 0.212385,-0.526345 0.116811,0.28949 0.116811,0.763201 0,1.052691 -0.116812,0.28949 -0.212385,0.05263 -0.212385,-0.526346 z m -1.329715,-0.606763 c 0,-0.361056 0.189485,-0.656465 0.421077,-0.656465 0.231592,0 0.421076,0.178301 0.421076,0.396225 0,0.217925 -0.189484,0.513334 -0.421076,0.656465 -0.231592,0.143132 -0.421077,-0.03517 -0.421077,-0.396225 z M 33.68487,11.730908 c 0,-0.217922 0.18948,-0.513334 0.42107,-0.656465 0.231596,-0.143132 0.421079,0.03517 0.421079,0.396227 0,0.361054 -0.189483,0.656463 -0.421079,0.656463 -0.23159,0 -0.42107,-0.178301 -0.42107,-0.396225 z m 2.947529,-0.02485 c 0,-0.231591 0.189483,-0.421074 0.421076,-0.421074 0.231593,0 0.421076,0.189483 0.421076,0.421074 0,0.231592 -0.189483,0.421076 -0.421076,0.421076 -0.231593,0 -0.421076,-0.189484 -0.421076,-0.421076 z m 2.526456,-0.842155 c 0,-0.231588 0.189488,-0.421076 0.421076,-0.421076 0.231592,0 0.421081,0.189488 0.421081,0.421076 0,0.231592 -0.189489,0.421081 -0.421081,0.421081 -0.231588,0 -0.421076,-0.189489 -0.421076,-0.421081 z M 41.0537,9.600675 c 0.143131,-0.231593 0.343798,-0.421076 0.445927,-0.421076 0.102128,0 0.185687,0.189483 0.185687,0.421076 0,0.231592 -0.200667,0.421076 -0.445927,0.421076 -0.24526,0 -0.328819,-0.189484 -0.185687,-0.421076 z M 34.737555,9.179599 c 0.143131,-0.231593 0.343799,-0.421076 0.44593,-0.421076 0.102126,0 0.185686,0.189483 0.185686,0.421076 0,0.231592 -0.200667,0.421076 -0.445925,0.421076 -0.245263,0 -0.328823,-0.189484 -0.185691,-0.421076 z m 2.31592,0 c 0,-0.231593 0.189483,-0.421076 0.421076,-0.421076 0.231592,0 0.421076,0.189483 0.421076,0.421076 0,0.231592 -0.189484,0.421076 -0.421076,0.421076 -0.231593,0 -0.421076,-0.189484 -0.421076,-0.421076 z m 2.10538,-0.421076 c 0,-0.231593 0.189488,-0.421076 0.421076,-0.421076 0.231592,0 0.421081,0.189483 0.421081,0.421076 0,0.231593 -0.189489,0.421076 -0.421081,0.421076 -0.231588,0 -0.421076,-0.189483 -0.421076,-0.421076 z m -4.4213,-1.684304 c -0.143132,-0.231592 -0.05957,-0.421076 0.185691,-0.421076 0.245258,0 0.445925,0.189484 0.445925,0.421076 0,0.231593 -0.08356,0.421076 -0.185686,0.421076 -0.102131,0 -0.302799,-0.189483 -0.44593,-0.421076 z m 2.548688,0.03595 C 37.150664,6.890802 37.219223,6.600394 37.438591,6.464815 37.657953,6.329241 37.94836,6.397795 38.08394,6.617162 38.219513,6.83653 38.15096,7.126937 37.931592,7.262516 37.712225,7.39809 37.421817,7.329536 37.286243,7.110169 Z"
     style="fill:#000000;stroke-width:0.42107618" />
</svg>
