<?xml version="1.0" encoding="UTF-8" standalone="no"?>
<svg
   xmlns:dc="http://purl.org/dc/elements/1.1/"
   xmlns:cc="http://creativecommons.org/ns#"
   xmlns:rdf="http://www.w3.org/1999/02/22-rdf-syntax-ns#"
   xmlns:svg="http://www.w3.org/2000/svg"
   xmlns="http://www.w3.org/2000/svg"
   id="svgW3"
   version="1.1"
   viewBox="0 0 100 100"
   height="100"
   width="100">
  <defs
     id="defs2" />
  <metadata
     id="metadata5">
    <rdf:RDF>
      <cc:Work
         rdf:about="">
        <dc:format>image/svg+xml</dc:format>
        <dc:type
           rdf:resource="http://purl.org/dc/dcmitype/StillImage" />
        <dc:title></dc:title>
      </cc:Work>
    </rdf:RDF>
  </metadata>
  <path
     id="pathW3"
     d="m 40.683628,94.567172 c -0.65076,-0.65076 -0.565538,-1.453877 0.305962,-2.883263 0.460609,-0.755468 0.759916,-1.917461 0.759916,-2.950197 v -1.703816 h -2.025873 c -4.474705,0 -8.343532,-2.568844 -8.838351,-5.868527 -0.334074,-2.227755 0.0133,-3.579472 1.255499,-4.885412 1.236449,-1.2999 3.517998,-1.50563 3.517998,-0.317225 0,0.40129 -0.201629,0.796829 -0.448069,0.878974 -0.246436,0.08215 -0.3266,0.345889 -0.178143,0.586101 0.148457,0.240212 0.498187,0.349153 0.777179,0.242094 1.748028,-0.670779 1.926518,-6.887326 0.375284,-13.0706 -0.800027,-3.18893 -1.163885,-4.089834 -1.586337,-3.927721 -0.44192,0.169577 -0.493723,-0.04055 -0.267233,-1.083971 0.154526,-0.711881 0.40506,-1.37998 0.556743,-1.484665 0.151684,-0.104684 0.369197,-0.906303 0.483365,-1.781377 0.200242,-1.534852 1.899244,-4.309349 2.638883,-4.309349 0.196875,0 0.235725,0.197769 0.08634,0.439488 -0.168514,0.272659 -0.104399,0.336139 0.168899,0.167232 0.30813,-0.190434 0.325804,-0.486596 0.05882,-0.985468 -0.209936,-0.392266 -0.381701,-0.891374 -0.381701,-1.109133 0,-0.514152 2.108122,-1.60649 2.44679,-1.267823 0.142613,0.142615 0.418664,0.0073 0.613441,-0.300684 0.265636,-0.420031 0.355601,-0.434265 0.359971,-0.05695 0.0042,0.373065 0.163719,0.345139 0.616948,-0.108091 0.377111,-0.377107 0.905545,-0.51767 1.380017,-0.367077 0.585071,0.185695 0.691516,0.120524 0.445226,-0.272583 -0.178017,-0.28414 -0.271181,-0.835122 -0.207028,-1.224403 0.06455,-0.391725 -0.05132,-0.603976 -0.259501,-0.475313 -0.21749,0.134415 -0.296854,-0.07076 -0.188151,-0.486432 0.103397,-0.395399 0.0019,-0.833999 -0.225835,-0.974668 -0.248004,-0.153274 -0.437068,0.09646 -0.471816,0.62321 -0.09521,1.443266 -0.139592,1.607659 -0.648465,2.401658 -0.457828,0.71435 -0.473085,0.702603 -0.247138,-0.190336 0.504373,-1.993293 0.646273,-4.097106 0.291149,-4.316582 -0.217302,-0.134304 -0.294689,0.163419 -0.187804,0.722547 0.210222,1.099715 -0.590409,4.259744 -1.17002,4.617966 -0.236226,0.145995 -0.300899,0.0027 -0.162028,-0.359299 0.167597,-0.436755 -0.153309,-0.755604 -1.16766,-1.160185 -1.295118,-0.516562 -1.435997,-0.504765 -1.901028,0.159159 -0.60421,0.862629 -1.340412,0.918839 -1.977661,0.151004 -0.597331,-0.719745 -0.211997,-2.31807 0.637446,-2.64403 0.602023,-0.231018 0.603728,-0.199662 0.02402,0.440896 -0.751563,0.830463 -0.636716,2.152581 0.201206,2.316322 0.332491,0.06497 0.790507,-0.229376 1.017821,-0.654113 0.34412,-0.642994 0.576759,-0.710095 1.389973,-0.400911 0.537178,0.204234 1.11898,0.283386 1.292894,0.1759 0.173918,-0.107486 0.393042,0.01976 0.486947,0.282782 0.0939,0.263016 0.309717,0.3484 0.47959,0.189745 0.346615,-0.323726 0.446982,-4.325867 0.116771,-4.656079 -0.116776,-0.116775 -0.964898,0.217876 -1.884707,0.743678 l -1.672389,0.955996 1.332348,0.01043 c 0.732788,0.0057 1.589297,0.184294 1.903351,0.396818 0.430353,0.291225 0.328773,0.33043 -0.412393,0.159162 -0.696325,-0.160905 -0.9834,-0.07211 -0.9834,0.304191 0,0.352405 0.301077,0.473877 0.893715,0.36059 0.680961,-0.130175 0.840817,-0.03301 0.671511,0.408219 -0.158109,0.412023 -0.571481,0.524111 -1.433001,0.388573 -0.665933,-0.104772 -1.302962,-0.339105 -1.415622,-0.520745 -0.11266,-0.181641 -0.522084,0.0922 -0.90983,0.608528 -0.740889,0.986579 -1.426121,1.252067 -1.264528,0.48993 0.180948,-0.853425 1.218943,-1.835341 1.987955,-1.880546 0.424545,-0.02497 -0.289895,-0.256419 -1.587649,-0.514358 -1.297754,-0.257942 -2.839467,-0.792175 -3.426032,-1.187185 -0.586564,-0.395026 -1.409084,-0.897218 -1.827823,-1.116 -0.62401,-0.326033 -0.768341,-0.807513 -0.800148,-2.669311 -0.02988,-1.747697 -0.40602,-3.149385 -1.631164,-6.078234 C 26.586548,29.045275 25,24.16774 25,22.880677 c 0,-1.679479 1.024916,-1.7772 6.138799,-0.585301 11.999773,2.796796 13.083222,3.006062 13.241406,2.557549 0.08599,-0.243823 0.698428,-0.987232 1.360975,-1.652017 1.089013,-1.092703 1.157507,-1.293648 0.713648,-2.093689 -0.270038,-0.486741 -0.497048,-1.357618 -0.504466,-1.935289 -0.0081,-0.634379 -0.465733,-1.523538 -1.155502,-2.245311 -0.628104,-0.657255 -1.142011,-1.319929 -1.142011,-1.472605 0,-0.511084 1.103788,-1.200722 1.515015,-0.946569 0.235819,0.145741 0.71628,-0.449511 1.144867,-1.418408 0.406188,-0.918251 1.107,-2.001503 1.557363,-2.407223 0.888832,-0.8007252 1.581075,-2.2177422 1.643662,-3.3645532 0.04317,-0.790979 1.217684,-1.166207 1.618812,-0.517166 0.137502,0.222481 -0.06586,0.635479 -0.451916,0.917768 -0.734738,0.537257 -0.771017,0.513256 0.775941,0.513256 0.104685,0 0.183594,-0.128474 0.175356,-0.285501 -0.01863,-0.354886 2.256496,-0.747399 3.146415,-0.54284 0.54467,0.125201 0.583227,0.289038 0.225382,0.957677 -0.237434,0.443648 -0.694836,1.06712 -1.016449,1.385491 -0.523578,0.5183052 -0.560233,0.5140432 -0.350381,-0.0407 0.188561,-0.498468 0.0071,-0.601686 -0.928607,-0.528078 -0.639638,0.05031 -1.319933,0.371945 -1.511765,0.714734 -0.191833,0.3427852 -0.747555,0.6232472 -1.234937,0.6232472 -0.487382,0 -1.099402,0.256949 -1.360041,0.571003 -0.38747,0.466871 -0.363436,0.571008 0.131776,0.571008 0.379354,0 0.524585,0.211303 0.388669,0.565491 -0.175422,0.457139 -0.353059,0.402432 -0.927064,-0.285502 -0.70557,-0.845611 -0.946376,-0.588845 -0.755037,0.805057 0.03882,0.28272 -0.09272,0.413124 -0.292287,0.289782 -0.199568,-0.123342 -0.454503,0.126212 -0.566517,0.55456 -0.155767,0.595655 -0.09056,0.684951 0.27725,0.379692 0.964594,-0.800542 1.310437,0.353335 0.383672,1.280099 -0.65946,0.659456 -1.487848,0.821096 -1.11482,0.217523 0.129397,-0.20937 0.07218,-0.38067 -0.12714,-0.38067 -0.199329,0 -0.468417,0.276247 -0.597978,0.61388 -0.201806,0.525896 -0.330397,0.539533 -0.897237,0.09516 -0.597776,-0.468622 -0.611553,-0.454788 -0.142697,0.143273 0.285436,0.364093 0.670864,0.568109 0.856509,0.453375 0.185645,-0.114739 0.33754,-0.0062 0.33754,0.241134 0,0.335151 0.145488,0.329002 0.571003,-0.02416 0.314054,-0.26064 0.576454,-0.324441 0.583113,-0.141779 0.0067,0.182666 0.261843,0.0019 0.567074,-0.401435 0.305226,-0.403453 0.662776,-0.625738 0.794548,-0.493967 0.131776,0.131776 -0.03049,0.509655 -0.360562,0.839734 -0.333502,0.333508 -0.494027,0.876698 -0.361296,1.222587 0.14811,0.385976 0.08586,0.527882 -0.163874,0.373538 -0.775061,-0.479009 -0.789874,2.024857 -0.01779,3.006404 0.724527,0.921088 2.151629,1.267118 2.242065,0.543635 0.02617,-0.209369 0.09457,-0.851751 0.151997,-1.427512 0.139449,-1.398112 0.320166,-2.029175 0.864204,-3.017788 0.250892,-0.455913 0.351965,-1.100477 0.224608,-1.432364 -0.349009,-0.909502 0.545146,-1.799893 1.36622,-1.360469 0.369225,0.197605 0.806955,0.23683 0.972735,0.08717 0.16578,-0.149661 0.185509,-0.06982 0.04384,0.177426 -0.536783,0.936819 0.581438,0.902529 1.323288,-0.0406 0.427099,-0.542966 0.934127,-0.88982 1.12673,-0.770786 0.192605,0.119038 0.350189,0.03503 0.350189,-0.186708 0,-0.221723 0.271227,-0.403135 0.602728,-0.403135 0.331501,0 0.527856,-0.214127 0.436346,-0.475839 -0.09151,-0.261711 -0.491214,-0.437995 -0.888231,-0.391745 -0.397017,0.04627 -0.538004,-9.37e-4 -0.313304,-0.10446 0.2247,-0.103701 0.336638,-0.678488 0.248751,-1.277294 -0.134118,-0.913811 0.01432,-1.1549832 0.923802,-1.5009662 1.000548,-0.380623 0.969484,-0.394448 -0.405324,-0.180423 -1.353406,0.210694 -1.461498,0.166257 -1.187643,-0.488263 0.165703,-0.396036 0.274198,-1.2682 0.241101,-1.938151 -0.04372,-0.885043 0.157552,-1.334615 0.736139,-1.644267 0.980406,-0.524697 2.033037,0.179272 1.770312,1.183938 -0.134097,0.512784 0.207834,0.754499 1.542869,1.090661 2.36364,0.595172 5.255449,2.115287 5.97305,3.1398052 0.328626,0.469179 0.597505,1.581556 0.597505,2.471947 0,1.580483 0.02318,1.610085 0.976457,1.247645 1.484736,-0.564493 1.954312,-0.461602 2.989797,0.65512 0.63883,0.68895 0.832701,1.169762 0.589715,1.462541 -0.199094,0.239894 -0.25187,0.546291 -0.11728,0.680881 0.134589,0.134591 -0.209499,0.698921 -0.764641,1.254062 -0.555148,0.555146 -1.011978,0.857521 -1.015184,0.671941 -0.003,-0.185575 -0.138359,-0.128839 -0.300341,0.126082 -0.161983,0.254926 -0.887392,0.511875 -1.612021,0.571007 -1.260187,0.102835 -1.870086,0.489982 -1.882686,1.195084 -0.003,0.179426 0.270197,0.220309 0.607562,0.09085 0.461825,-0.17722 0.555657,-0.06971 0.379738,0.435106 -0.217778,0.624928 -0.197538,0.624038 0.297813,-0.01311 0.388863,-0.500158 0.805941,-0.614696 1.554361,-0.426854 1.262414,0.31685 1.679339,1.254708 0.832918,1.873628 -0.34807,0.254513 -0.635274,0.615173 -0.638232,0.80146 -0.003,0.186286 -0.677955,1.084413 -1.499997,1.995836 -1.362557,1.510701 -1.589135,1.624757 -2.564154,1.290772 -0.842115,-0.288461 -1.054286,-0.580107 -0.997859,-1.37163 0.08445,-1.18457 -0.108955,-1.226703 -1.480085,-0.322469 l -1.027751,0.677781 0.790255,1.698899 c 0.434642,0.934397 0.918683,1.962296 1.075653,2.284222 0.156965,0.321927 0.219635,1.350495 0.139261,2.285708 -0.177005,2.059633 0.687985,2.893968 2.346547,2.263387 1.347516,-0.512329 4.637867,-0.472593 7.613838,0.09194 2.592384,0.491771 3.109841,1.222882 0.903559,1.27663 -1.631214,0.03976 -2.459599,0.39211 -4.225563,1.797433 -1.242307,0.988606 -1.601168,1.08963 -3.081862,0.867586 -2.204546,-0.330592 -2.783184,0.268701 -2.031512,2.104014 0.290608,0.709557 0.833969,2.60466 1.207475,4.21134 0.630044,2.710221 0.635011,3.040194 0.06872,4.568045 -0.836191,2.256055 -0.884879,2.943824 -0.324906,4.589561 0.265758,0.78104 0.400047,1.554601 0.298427,1.719028 -0.10162,0.164426 0.0575,1.232915 0.353605,2.374424 0.296104,1.141505 0.5185,3.280072 0.494213,4.752368 -0.02429,1.472296 -0.124422,2.367141 -0.222521,1.98855 -0.126817,-0.489434 -0.471575,-0.654446 -1.193018,-0.571003 -0.818197,0.09462 -1.111926,0.424653 -1.517005,1.704467 -0.413069,1.305074 -0.769255,1.693916 -2.004314,2.188089 -1.039701,0.416008 -1.695661,1.007144 -2.131295,1.920678 -0.604973,1.26864 -0.590019,1.449115 0.386459,4.663975 2.108659,6.942348 2.114798,11.995586 0.01825,15.020913 -1.29603,1.870167 -1.012199,2.81424 0.717907,2.387886 0.677224,-0.166889 2.087824,-0.321973 3.134668,-0.344625 3.240149,-0.07012 3.559683,-0.668841 1.471436,-2.757083 l -1.383592,-1.383594 0.237413,-3.088633 c 0.130577,-1.698749 0.497193,-3.96342 0.814706,-5.0326 0.330495,-1.112891 0.547659,-3.142024 0.507967,-4.746344 -0.0769,-3.108414 0.422072,-8.643195 0.800272,-8.876935 0.133539,-0.08253 0.08026,1.336127 -0.118393,3.15258 -0.198656,1.816457 -0.324034,4.530035 -0.27862,6.030167 0.04631,1.529789 -0.167925,3.619324 -0.487871,4.75838 -0.773666,2.754395 -1.12675,6.071897 -0.803077,7.545574 0.223617,1.018126 0.400324,1.177995 1.085767,0.982319 1.587194,-0.453107 4.560081,-0.979176 4.706426,-0.832827 0.325896,0.325898 0.327803,2.391057 0.003,3.370983 -0.310106,0.93591 -0.524111,1.041128 -2.117905,1.041339 -2.709129,3.51e-4 -6.221929,0.279025 -7.390022,0.58626 -1.155892,0.304033 -2.186604,-0.286049 -2.186604,-1.251874 0,-0.320994 0.415341,-1.128168 0.92298,-1.793717 1.602188,-2.100577 1.923993,-5.653392 0.970364,-10.713023 -0.389141,-2.064649 -0.529216,-2.311155 -1.211848,-2.132642 -0.424517,0.111012 -2.407727,1.739173 -4.407135,3.61814 -3.326402,3.126022 -7.192786,5.606089 -8.741317,5.607068 -0.278275,1.73e-4 -0.475839,0.490258 -0.475839,1.180379 0,0.840554 0.382408,1.562482 1.329112,2.509191 1.289873,1.289868 1.40391,1.325272 3.862717,1.199111 l 2.533606,-0.130002 0.09094,1.361037 c 0.120413,1.802127 -0.922795,3.263221 -1.951715,2.733532 -1.371315,-0.705964 -6.357948,-0.888546 -7.538579,-0.276023 -1.307715,0.67845 -2.209158,0.711194 -2.817991,0.102362 z m 2.328084,-0.390912 c 0.457313,-0.256874 1.856647,-0.471001 3.109627,-0.475839 3.064271,-0.01185 3.188018,-0.709532 0.609413,-3.436025 -2.179018,-2.303994 -2.30347,-2.932173 -1.357262,-6.850869 0.763771,-3.163154 0.750944,-3.239221 -0.483453,-2.86624 -0.997071,0.301269 -3.984419,1.515342 -4.189026,1.702444 -0.05325,0.04869 0.197971,0.673069 0.558265,1.387504 0.360295,0.714435 0.724837,2.488305 0.810096,3.94193 0.130132,2.218627 0.01559,2.898155 -0.713339,4.232549 -1.294823,2.370292 -0.464834,3.55564 1.655679,2.364546 z m 8.442195,-0.289936 c 0.133363,-0.21579 -0.01943,-0.279601 -0.358204,-0.149609 -0.65948,0.253067 -0.780141,0.525919 -0.232573,0.525919 0.197012,0 0.462862,-0.169339 0.590777,-0.37631 z m 0.0027,-0.7657 0.761341,-0.327162 -0.761341,-0.0647 c -0.635061,-0.05397 -0.603491,-0.10934 0.190336,-0.333831 0.81878,-0.231543 0.674407,-0.324553 -1.033873,-0.666059 -1.092052,-0.218309 -1.895625,-0.251428 -1.785719,-0.0736 0.109911,0.177834 0.660801,0.343604 1.224209,0.368373 l 1.024377,0.04505 -1.142011,0.290592 -1.142011,0.290591 1.142011,0.09008 1.142011,0.09008 -1.142011,0.290592 c -1.03624,0.263678 -1.053872,0.292287 -0.190335,0.308874 0.523421,0.01007 1.294279,-0.128933 1.713016,-0.308874 z M 68.39644,91.217273 c -0.47773,-0.308734 -0.451822,-0.369965 0.158614,-0.374845 0.401287,-0.0028 0.642777,-0.09267 0.536638,-0.198804 -0.106138,-0.106137 -0.77707,-0.07362 -1.49096,0.07227 -1.249204,0.255282 -1.262219,0.27541 -0.346303,0.535703 1.39317,0.395927 1.789344,0.384018 1.142011,-0.03433 z M 67.825434,89.694592 C 66.778591,89.551005 66.264686,89.394578 66.683423,89.34697 l 0.761341,-0.08656 -0.761341,-0.327162 c -1.046497,-0.449694 -1.64753,-0.449694 -0.951676,0 0.314053,0.202958 0.432419,0.371641 0.263035,0.374844 -0.169383,0.0033 -0.202098,0.177131 -0.0727,0.386501 0.129397,0.209364 1.038842,0.353757 2.020987,0.320863 l 1.785717,-0.05981 z m 1.046844,-0.632782 c -0.261711,-0.105602 -0.689966,-0.105602 -0.951676,0 -0.261711,0.105603 -0.04758,0.192005 0.475838,0.192005 0.523422,0 0.737548,-0.0864 0.475838,-0.192005 z M 38.577261,86.114516 c 0,-0.294095 -0.228402,-0.447071 -0.507562,-0.339946 -0.279156,0.107124 -0.507557,0.04159 -0.507557,-0.145619 0,-0.187214 0.342601,-0.3662 0.76134,-0.39774 0.418734,-0.03156 0.76134,0.09793 0.76134,0.287712 0,0.409897 1.146137,0.02431 1.776446,-0.59765 0.335525,-0.331077 0.0098,-0.397918 -1.332348,-0.273386 -0.977046,0.09065 -2.290348,-0.03901 -2.918456,-0.288148 -1.013176,-0.401861 -1.068712,-0.500869 -0.4923,-0.877592 0.582228,-0.38052 0.542685,-0.469503 -0.38067,-0.856663 -0.914471,-0.383434 -0.816268,-0.412651 0.87297,-0.259726 1.363626,0.123444 2.551024,-0.06682 4.187372,-0.670982 1.256216,-0.463808 3.214269,-1.167584 4.351241,-1.563957 1.136967,-0.396367 2.418776,-1.01902 2.848468,-1.383669 0.620016,-0.526177 0.683433,-0.535946 0.307277,-0.04734 -0.382641,0.497034 -0.369571,0.70231 0.06784,1.065326 0.369829,0.306931 0.620114,0.322961 0.788502,0.05051 0.135678,-0.219536 -0.03049,-0.399159 -0.369248,-0.399159 -0.397206,0 -0.510573,-0.168974 -0.319238,-0.475839 0.501947,-0.805005 0.425941,-2.188853 -0.120219,-2.188853 -0.281717,0 -0.512216,-0.1713 -0.512216,-0.38067 0,-0.209369 0.178461,-0.38067 0.396587,-0.38067 0.218122,0 0.771957,-0.349711 1.230737,-0.777132 0.784008,-0.730413 0.863143,-0.737485 1.316429,-0.117577 0.614368,0.840198 0.60793,1.145706 -0.0293,1.390235 -0.364546,0.139887 -0.477881,-0.09457 -0.394342,-0.815785 0.06448,-0.556645 0.02477,-0.710211 -0.08824,-0.341258 -0.11301,0.368963 -0.36381,0.572979 -0.557333,0.453379 -0.193524,-0.119609 -0.364967,-0.07888 -0.380987,0.0905 -0.01602,0.169381 -0.08651,0.607746 -0.156652,0.974143 -0.15411,0.805028 0.268598,0.839744 1.633095,0.134141 1.439201,-0.744243 2.443708,-1.947067 2.567451,-3.074336 0.141604,-1.289976 -0.312066,-1.481268 -1.359186,-0.573105 l -0.868723,0.75344 h 0.85131 c 1.034179,0 0.8638,0.910181 -0.195356,1.04361 -0.683901,0.08615 -0.681918,0.06988 0.03154,-0.258747 0.739985,-0.340846 0.738205,-0.351434 -0.06345,-0.377439 -0.453632,-0.01475 -0.891172,-0.225914 -0.972311,-0.469334 -0.08114,-0.243415 -0.438833,-0.485332 -0.794877,-0.53759 -0.356043,-0.05226 -0.559251,0.04754 -0.451575,0.221761 0.235641,0.381279 -1.612821,1.900419 -2.312393,1.900419 -0.272187,0 -0.952914,0.174139 -1.51272,0.386979 -0.857726,0.326108 -0.942007,0.478344 -0.535786,0.967806 0.33443,0.402966 0.603555,0.459322 0.878847,0.184029 0.589323,-0.589318 1.002035,-0.482006 1.035931,0.269369 0.01794,0.397969 0.107354,0.474598 0.22206,0.190337 0.105602,-0.261712 0.37558,-0.475839 0.599949,-0.475839 0.224374,0 0.105537,0.334158 -0.264082,0.74258 -0.637628,0.704578 -0.723454,0.709898 -1.676846,0.103964 -1.257307,-0.799095 -1.595052,-1.270523 -1.275266,-1.780042 0.137676,-0.219368 0.254851,-0.641052 0.260381,-0.937081 0.0055,-0.296029 0.267018,-0.623664 0.581072,-0.728081 0.50338,-0.167358 0.504813,-0.109686 0.01213,0.486975 -0.504738,0.611244 -0.486296,0.662964 0.190333,0.533852 0.849035,-0.162005 1.29862,-1.851753 0.490197,-1.842373 -1.101189,0.01278 -2.45366,1.869385 -2.076933,2.851114 0.241355,0.62897 -0.71311,1.490705 -1.269942,1.146567 -0.221957,-0.137175 -0.291266,-0.431102 -0.154025,-0.653162 0.140697,-0.227652 0.02927,-0.330328 -0.255497,-0.235407 -0.27777,0.09259 -0.580791,0.395609 -0.673379,0.673379 -0.09492,0.284752 0.0078,0.396194 0.235407,0.255497 0.22206,-0.137241 0.500284,-0.09334 0.618269,0.09757 0.117984,0.190904 -0.426911,0.428217 -1.210875,0.527357 -0.783969,0.09915 -2.367552,0.560401 -3.519079,1.025019 -1.151531,0.464619 -1.966305,0.716547 -1.810608,0.559839 0.286448,-0.288307 -1.21663,-1.556287 -1.671554,-1.410106 -0.135556,0.04355 -0.1584,-0.257553 -0.05077,-0.669131 0.26026,-0.99523 -0.514587,-0.959597 -1.054092,0.04847 -0.483402,0.903246 -0.157743,2.783388 0.420238,2.426176 0.208418,-0.128807 0.354412,-0.09299 0.324431,0.0796 -0.132333,0.761795 0.07611,0.944442 0.590583,0.517471 0.435869,-0.361741 0.456287,-0.56735 0.09516,-0.958332 -0.25287,-0.273776 -0.570291,-0.431093 -0.705378,-0.349585 -0.135087,0.0815 -0.34049,-0.09906 -0.456451,-0.401243 -0.150663,-0.392617 -0.02623,-0.479562 0.435949,-0.304613 0.808648,0.306084 1.598461,1.069958 1.598461,1.545961 0,0.198687 0.241706,0.561843 0.537117,0.807014 0.411283,0.341337 0.603423,0.338476 0.820159,-0.01222 0.17944,-0.290344 0.122176,-0.358552 -0.156446,-0.186352 -0.24172,0.149403 -0.439485,0.09022 -0.439485,-0.131504 0,-0.221724 0.128475,-0.405477 0.285502,-0.408333 0.157027,-0.0033 0.67093,-0.108492 1.14201,-0.234738 0.546638,-0.14649 0.85651,-0.06102 0.85651,0.236264 0,0.256186 -0.248183,0.37056 -0.551522,0.254158 -0.33369,-0.128048 -0.644517,0.08139 -0.786989,0.530279 -0.278903,0.878735 -1.153063,0.980797 -1.463843,0.170908 -0.120514,-0.314054 -0.405903,-0.571008 -0.634201,-0.571008 -0.228293,0 -0.316527,0.159467 -0.196074,0.354371 0.120457,0.194903 0.01845,0.478321 -0.226683,0.629821 -0.297134,0.183637 -0.343042,0.109354 -0.137728,-0.222847 0.208217,-0.336907 0.159631,-0.406628 -0.150002,-0.215265 -0.354581,0.219143 -0.355612,0.406385 -0.0047,0.829357 0.249372,0.300473 0.348689,0.651031 0.220707,0.77901 -0.127983,0.127982 -0.537819,-0.30333 -0.910753,-0.958464 -0.372934,-0.655143 -0.816647,-1.19225 -0.986028,-1.193576 -0.169381,-0.0014 -0.202097,0.168899 -0.0727,0.378268 0.129398,0.209365 0.09506,0.38067 -0.0763,0.38067 -0.624001,0 -1.207236,-1.470291 -1.056307,-2.662865 0.08529,-0.673913 0.596503,-1.632011 1.139117,-2.13489 1.02168,-0.946859 1.542963,-1.190925 1.135501,-0.531633 -0.271607,0.439471 -0.110946,0.472388 0.730208,0.149605 0.992443,-0.380834 0.682969,-0.747273 -0.619492,-0.733514 -0.95696,0.01011 -1.410564,0.293139 -2.093688,1.306376 -0.955302,1.416947 -1.07102,2.542942 -0.480016,4.67077 0.51985,1.871661 2.622221,3.715991 3.947174,3.462709 0.574436,-0.109808 0.990173,-0.01583 0.990173,0.223821 0,0.227203 -0.29978,0.316663 -0.666177,0.1988 -0.548121,-0.176321 -0.567247,-0.144336 -0.107934,0.180513 0.386978,0.273681 0.708136,0.270394 1.046846,-0.01073 0.363545,-0.301718 0.488605,-0.247433 0.488605,0.212109 0,0.345117 0.307915,0.617614 0.697895,0.617614 0.38384,0 0.697894,-0.24062 0.697894,-0.53471 z M 34.94503,84.477902 c -0.287881,-0.114327 -0.84461,-0.529057 -1.237179,-0.921622 -0.584008,-0.584008 -0.607784,-0.713756 -0.130802,-0.713756 0.320624,0 0.681555,0.256949 0.802068,0.571003 0.120514,0.314054 0.457739,0.571007 0.749394,0.571007 0.291651,0 0.530275,0.171301 0.530275,0.38067 0,0.20937 -0.0428,0.367146 -0.09516,0.350615 -0.05234,-0.01653 -0.330707,-0.12359 -0.618592,-0.237917 z m 0.142753,-1.254708 c 0.129397,-0.209369 0.310809,-0.38067 0.403135,-0.38067 0.09233,0 0.167868,0.171301 0.167868,0.38067 0,0.209369 -0.181412,0.38067 -0.403135,0.38067 -0.221723,0 -0.297265,-0.171301 -0.167868,-0.38067 z m -2.855029,-0.91095 c 0,-0.08228 0.256954,-0.24821 0.571008,-0.368723 0.314049,-0.120514 0.571003,-0.05319 0.571003,0.149604 0,0.202799 -0.256954,0.368728 -0.571003,0.368728 -0.314054,0 -0.571008,-0.06733 -0.571008,-0.149609 z m 6.477224,-0.897237 c 0.0093,-0.457163 0.743245,-1.468676 0.749684,-1.033247 0.0033,0.216848 0.335858,0.394265 0.739223,0.394265 0.403364,0 0.650207,-0.134591 0.548538,-0.299101 -0.101669,-0.164501 0.01082,-0.299096 0.250009,-0.299096 0.239172,0 0.36301,0.214127 0.275194,0.475839 -0.08781,0.261711 -0.432601,0.478025 -0.766192,0.48069 -0.333596,0.0028 -0.73283,0.131149 -0.887183,0.285506 -0.3642,0.364196 -0.916747,0.361245 -0.909273,-0.0049 z m 3.909045,-1.609696 c 0.151281,-0.578501 0.02796,-0.727394 -0.531773,-0.641975 -0.400803,0.06117 -0.931972,0.314452 -1.180374,0.562855 -0.560157,0.560152 -1.060713,0.583043 -1.060713,0.0485 0,-0.221728 0.153351,-0.30836 0.34078,-0.19252 0.187429,0.115835 0.428835,-0.01883 0.536451,-0.299293 0.219743,-0.572637 2.548801,-0.775132 2.548801,-0.221601 0,0.195367 0.375345,0.355208 0.8341,0.355208 0.792708,0 0.799287,-0.02548 0.132666,-0.5129 -0.547667,-0.400461 -0.592446,-0.580252 -0.204274,-0.820155 0.328604,-0.20309 0.405064,-0.158259 0.225535,0.132225 -0.149389,0.24172 -0.104483,0.43949 0.0998,0.43949 0.204279,0 0.446546,-0.214128 0.538376,-0.475839 0.09183,-0.261707 0.170341,-0.0048 0.174471,0.571007 0.0055,0.76046 -0.181599,1.046842 -0.683775,1.046842 -0.380211,0 -0.797161,0.171301 -0.926558,0.380671 -0.419628,0.678975 -1.046125,0.402296 -0.843509,-0.372517 z m -1.157385,6.591012 c -0.263014,-0.106034 -0.381382,-0.349467 -0.263037,-0.540952 0.308411,-0.499015 -0.25088,-0.406858 -1.352438,0.222852 -0.942429,0.538736 -0.93688,0.543864 0.571003,0.527464 0.837477,-0.0091 1.30749,-0.103321 1.044472,-0.209364 z m 7.710947,-2.422681 c 1.046844,-0.586055 1.856282,-1.264341 1.798752,-1.507302 -0.05753,-0.242961 0.07924,-0.328131 0.303935,-0.189261 0.224693,0.138867 1.700831,-1.048218 3.280306,-2.637974 1.579475,-1.589752 3.298389,-2.997539 3.819809,-3.128402 0.740815,-0.185935 0.900676,-0.414406 0.731362,-1.045268 -0.11917,-0.444032 -0.219012,-1.021455 -0.221871,-1.283167 -0.0085,-0.779122 -1.257336,-0.538732 -2.479556,0.477296 -0.809543,0.672976 -0.920366,0.877226 -0.38067,0.701594 0.418737,-0.136272 1.047485,-0.492895 1.397218,-0.792492 0.559357,-0.479178 0.683721,-0.455332 1.03345,0.198144 0.406355,0.75928 0.185746,1.356372 -0.373451,1.010768 -0.171022,-0.105696 -0.218796,-0.486469 -0.106163,-0.846159 0.185062,-0.590995 0.155964,-0.595767 -0.302129,-0.04957 -0.278802,0.33243 -0.763867,0.704338 -1.07792,0.826453 -0.456504,0.177515 -0.43742,0.228069 0.09517,0.252093 0.366395,0.01653 0.666173,0.205758 0.666173,0.420499 0,0.224018 -0.477574,0.143484 -1.120407,-0.188937 -1.271152,-0.657339 -1.548463,-0.428877 -1.141595,0.940504 0.183227,0.616681 0.296117,0.717179 0.320705,0.285502 0.02507,-0.44022 0.328453,-0.651196 0.894454,-0.622016 0.644539,0.03325 0.691644,0.08724 0.190335,0.218253 -0.366395,0.09574 -0.666173,0.400358 -0.666173,0.67691 0,0.276552 -0.385429,0.504101 -0.856509,0.505661 -0.471079,0.0014 -1.15802,0.07281 -1.526535,0.158324 -0.816307,0.189434 -1.772167,1.061387 -1.163522,1.061387 0.226823,0 0.501999,0.342607 0.611501,0.761341 0.109502,0.418738 0.04383,0.76134 -0.145937,0.76134 -0.189767,0 -0.364903,-0.299775 -0.38919,-0.666172 -0.04205,-0.634453 -0.05245,-0.634453 -0.218248,0 -0.09575,0.366397 -0.461306,0.686047 -0.81235,0.710333 -0.567287,0.03924 -0.564184,0.06352 0.02791,0.218248 0.366395,0.09575 0.666173,0.33886 0.666173,0.54024 0,0.519406 -1.383207,-0.270782 -1.638484,-0.936017 -0.112954,-0.294357 -0.04341,-0.69716 0.154545,-0.895112 0.22611,-0.226111 0.04058,-0.632547 -0.499025,-1.093232 -0.472418,-0.403322 -0.680082,-0.476363 -0.461476,-0.162309 0.783783,1.125999 0.412572,2.324412 -0.936004,3.021787 -0.95572,0.494225 -1.135206,0.723567 -0.697675,0.891463 0.332533,0.127604 0.680493,-0.01213 0.798973,-0.320914 0.115442,-0.300834 0.384895,-0.54697 0.598782,-0.54697 0.213891,0 0.09079,0.348156 -0.273554,0.77368 -0.364345,0.425525 -0.662889,0.982254 -0.663432,1.23718 -4.68e-4,0.254921 -0.288227,0.465681 -0.639305,0.46835 -0.351078,0.0028 -0.764614,0.131149 -0.918967,0.285502 -0.424227,0.424227 -0.915098,0.336542 -0.915098,-0.163466 0,-0.244263 0.103902,-0.340209 0.230897,-0.213219 0.487785,0.48779 1.216307,-0.664439 0.852964,-1.349053 -0.397126,-0.748274 -0.08787,-1.554825 0.465119,-1.213052 0.194904,0.120453 0.354371,0.02749 0.354371,-0.206592 0,-0.234087 0.1713,-0.319735 0.38067,-0.190338 0.209369,0.129398 0.38067,0.0355 0.38067,-0.208596 0,-0.244122 -0.248229,-0.34861 -0.55162,-0.23219 -0.368686,0.141479 -0.481421,0.02875 -0.339942,-0.339942 0.116421,-0.30339 0.01194,-0.55162 -0.232189,-0.55162 -0.244123,0 -0.320002,0.200416 -0.168613,0.445362 0.185073,0.299457 0.06772,0.365727 -0.358206,0.202284 -0.348399,-0.133691 -0.633451,-0.07715 -0.633451,0.125641 0,0.202799 0.214127,0.374175 0.475834,0.38083 0.262423,0.0067 0.135199,0.269523 -0.283647,0.58604 -0.651509,0.492332 -0.678568,0.625083 -0.190333,0.933737 0.413625,0.261492 0.432985,0.361404 0.07084,0.365642 -0.274065,0.0033 -0.392434,0.177132 -0.263037,0.386501 0.129397,0.209369 0.07383,0.38067 -0.123491,0.38067 -0.197316,0 -0.440084,0.425417 -0.539477,0.945375 -0.162787,0.851549 -0.08218,0.922778 0.812128,0.717666 0.54607,-0.125243 1.84936,-0.707209 2.896202,-1.293263 z m 0.190335,-0.91664 c 0,-0.352047 0.156671,-0.543251 0.348157,-0.424911 0.191487,0.118345 0.434916,-1.8e-5 0.540953,-0.263037 0.120122,-0.297949 0.204123,-0.316409 0.222849,-0.04898 0.01653,0.236072 -0.2269,0.642476 -0.540953,0.90312 -0.469058,0.389282 -0.571006,0.35961 -0.571006,-0.166192 z m 3.836757,-2.96095 c -0.01653,-0.359029 0.355376,-0.839556 0.826455,-1.06784 0.726549,-0.352085 0.764799,-0.33968 0.252091,0.08177 -0.332429,0.273264 -0.704334,0.753796 -0.826455,1.067846 -0.179995,0.462885 -0.227729,0.447403 -0.252091,-0.08178 z m -13.915455,3.743467 c 0.289126,-0.289131 0.405368,-0.659198 0.258311,-0.822374 -0.147057,-0.163176 -0.04496,-0.168318 0.226945,-0.01143 0.380853,0.219775 0.391998,0.408553 0.04856,0.822375 -0.269438,0.324651 -0.292858,0.537116 -0.05921,0.537116 0.600895,0 0.923547,-1.221421 0.444191,-1.681506 -0.31153,-0.299003 -0.589023,-0.176995 -1.010586,0.444327 -0.319627,0.471076 -0.752522,0.856504 -0.96199,0.856504 -0.21267,0 -0.171581,-0.252153 0.09304,-0.571003 0.63569,-0.765962 -0.215902,-0.79016 -0.978263,-0.02777 -0.470501,0.4705 -0.454119,0.566498 0.122358,0.717184 1.137445,0.297312 1.27602,0.277222 1.816645,-0.263398 z m -6.575755,-4.222907 c -0.103093,-0.539299 0.08996,-1.37745 0.440496,-1.912436 0.343215,-0.523812 0.485706,-0.95238 0.316653,-0.95238 -0.55716,0 -1.531485,2.075251 -1.429788,3.045361 0.127243,1.213821 0.133757,1.225987 0.526547,0.983228 0.181289,-0.112042 0.24703,-0.635737 0.146092,-1.163773 z m 18.986059,0.561216 c 0.09494,-0.759524 0.159806,-0.960183 0.466855,-1.444184 0.443071,-0.698424 -0.395279,-1.561063 -1.289776,-1.327145 -0.947441,0.24776 -0.947382,0.704151 2e-4,1.515497 0.558297,0.47803 0.642867,0.766196 0.334059,1.138287 -0.298926,0.360182 -0.295104,0.498215 0.0138,0.498215 0.235005,0 0.448695,-0.171301 0.474866,-0.38067 z m -0.618589,-1.903352 c -0.129397,-0.209369 -0.06397,-0.38067 0.145403,-0.38067 0.209369,0 0.486541,0.171301 0.615938,0.38067 0.129397,0.20937 0.06397,0.380671 -0.145404,0.380671 -0.209368,0 -0.48654,-0.171301 -0.615937,-0.380671 z m -13.768024,0.285502 c -0.177777,-0.832284 -0.166116,-0.835763 0.412375,-0.122953 0.327429,0.403453 0.725304,0.603573 0.884162,0.444711 0.332688,-0.332688 -0.943524,-1.3686 -1.686072,-1.3686 -0.545321,0 -0.622422,0.375481 -0.267186,1.301211 0.351771,0.9167 0.864447,0.71813 0.656721,-0.254369 z m -1.268441,-0.117633 c 0,-0.326408 -0.174092,-0.48587 -0.38688,-0.354366 -0.212783,0.131504 -0.28832,0.398569 -0.167868,0.593472 0.326328,0.528004 0.554748,0.429552 0.554748,-0.239106 z m 3.616369,-0.548539 c -0.129397,-0.209369 -0.406567,-0.38067 -0.615936,-0.38067 -0.20937,0 -0.274801,0.171301 -0.145404,0.38067 0.129397,0.20937 0.406572,0.38067 0.615937,0.38067 0.209369,0 0.2748,-0.1713 0.145403,-0.38067 z m 7.173765,-0.206751 c -0.123979,-0.323083 -0.307057,-0.505783 -0.406843,-0.405996 -0.09978,0.09978 -0.06851,0.364125 0.0695,0.587421 0.375359,0.607344 0.59475,0.489354 0.337347,-0.181425 z m -5.563844,-0.02323 c -0.126493,-0.126494 -0.454821,-0.140014 -0.729617,-0.03002 -0.303676,0.121515 -0.213472,0.21172 0.229989,0.229984 0.401289,0.01653 0.626122,-0.07344 0.499628,-0.199938 z m 12.011662,-0.263159 c 0.112099,-0.292123 -0.115788,-0.516122 -0.559054,-0.549517 -0.610825,-0.04599 -0.664511,0.04458 -0.292235,0.493147 0.558026,0.672386 0.613493,0.676058 0.851289,0.05637 z m 1.171485,-0.492304 c -0.02919,-0.400175 -0.189742,-1.070182 -0.356777,-1.488921 -0.270193,-0.67735 -0.23284,-0.703702 0.338581,-0.238891 0.728937,0.592938 0.88373,0.06161 0.185474,-0.63665 -0.25378,-0.253783 -0.287617,-0.456802 -0.07613,-0.456802 0.209369,0 0.55602,0.175347 0.770336,0.389661 0.265773,0.265777 0.622818,0.11657 1.122978,-0.469278 0.417741,-0.489307 0.475499,-0.660894 0.134215,-0.398718 -0.469038,0.360308 -0.702164,0.358884 -1.073864,-0.0066 -0.376059,-0.369731 -0.627442,-0.279934 -1.209088,0.431897 -0.808806,0.989845 -0.939335,1.784716 -0.35262,2.147324 0.251711,0.155561 0.239123,0.502312 -0.03696,1.018186 -0.330865,0.618227 -0.311124,0.746004 0.09414,0.609292 0.282042,-0.09515 0.488918,-0.500397 0.459726,-0.900554 z m -15.190901,0.03962 c 0.199933,-0.0033 0.456882,-0.351083 0.571007,-0.773067 0.238362,-0.881367 0.899523,-0.98275 1.615977,-0.247794 0.40727,0.417788 0.391797,0.485177 -0.08738,0.380675 -0.32024,-0.06984 -0.60289,0.0443 -0.628108,0.25369 -0.02519,0.209369 0.151145,0.306036 0.391919,0.21482 0.240778,-0.09122 0.908851,-0.176864 1.484617,-0.190333 1.330976,-0.03114 1.317849,-0.383049 -0.06589,-1.766788 -1.35625,-1.356251 -2.308953,-1.473434 -2.083109,-0.256219 0.0874,0.471076 0.05239,0.628267 -0.07781,0.349308 -0.163831,-0.351003 -0.456479,-0.145853 -0.950301,0.666176 -0.392466,0.645337 -0.899822,1.173354 -1.127465,1.173354 -0.227642,0 -0.05886,-0.451356 0.375074,-1.003013 0.824051,-1.047614 1.03808,-2.042348 0.439433,-2.042348 -0.192243,0 -0.663324,-0.101814 -1.046842,-0.226247 -0.522051,-0.169381 -0.5675,-0.133504 -0.18083,0.142753 0.361104,0.257989 0.389731,0.447329 0.09517,0.629382 -0.231721,0.143212 -0.421309,0.442552 -0.421309,0.665197 0,0.252421 0.218421,0.223541 0.580205,-0.07671 0.999693,-0.82967 1.075713,-0.07974 0.08546,0.843064 -0.694186,0.646897 -0.830406,0.990889 -0.518202,1.308596 0.232948,0.237056 0.594839,0.325331 0.804209,0.196168 0.209369,-0.129168 0.544249,-0.237472 0.744177,-0.240675 z m 2.518529,-1.495964 c -0.60201,-0.725384 -0.421862,-1.082855 0.315918,-0.626877 0.281165,0.173769 0.441245,0.52584 0.355733,0.782382 -0.11059,0.331774 -0.304506,0.286873 -0.671651,-0.155505 z m 3.199546,-1.604391 c 0.319083,-0.122461 0.580153,-0.396588 0.580153,-0.609193 0,-0.257169 -0.159274,-0.254373 -0.475839,0.0084 -0.261711,0.217199 -0.637872,0.404985 -0.835917,0.417296 -0.198041,0.01232 -0.407326,0.497957 -0.465073,1.079216 -0.09893,0.995736 -0.08414,1.00683 0.255764,0.191878 0.198416,-0.475717 0.621828,-0.965123 0.940912,-1.087565 z m 3.244845,0.556959 c 0,-0.199325 0.171301,-0.256537 0.38067,-0.12714 0.209369,0.129397 0.38067,0.05386 0.38067,-0.167868 0,-0.716622 -1.427634,-0.427042 -1.625534,0.329723 -0.134441,0.514113 -0.03409,0.672391 0.336275,0.530275 0.290353,-0.111415 0.527919,-0.365661 0.527919,-0.56499 z m -5.259596,-0.780625 c -0.273157,-0.273152 -0.450462,-0.295626 -0.450462,-0.0571 0,0.50811 0.450185,0.958295 0.70424,0.70424 0.108174,-0.108169 -0.006,-0.399383 -0.253778,-0.64714 z m -1.269689,-0.39028 c -0.567491,-0.386205 -0.539618,-0.498214 0.285501,-1.147255 0.887019,-0.697731 1.271642,-2.186689 0.564859,-2.186689 -0.914265,0 -1.683866,0.598881 -2.15225,1.674818 -0.398007,0.91428 -0.517134,1.003608 -0.528673,0.396457 -0.01358,-0.715128 -1.116783,-2.62682 -1.144806,-1.98381 -0.03142,0.721544 1.250207,3.309152 1.547903,3.12516 0.185524,-0.114659 0.638449,-0.03311 1.006498,0.181229 0.897275,0.52252 1.21116,0.477848 0.420968,-0.05991 z m -0.703454,-1.337368 c 0,-0.209369 0.256954,-0.593922 0.571008,-0.854566 0.318522,-0.264348 0.571003,-0.305573 0.571003,-0.09322 0,0.20937 -0.256954,0.593922 -0.571003,0.854561 -0.318526,0.264349 -0.571008,0.305573 -0.571008,0.09323 z m 13.115422,0.106033 c 0.742528,-0.0451 1.350051,0.06294 1.350051,0.240058 0,0.177117 -0.324276,0.322024 -0.720613,0.322024 -0.396337,0 -0.818253,0.254448 -0.937591,0.56544 -0.168476,0.439039 -0.07121,0.483729 0.43511,0.199933 0.358649,-0.201025 1.29447,-0.61803 2.079603,-0.92668 1.353234,-0.531984 1.427514,-0.522576 1.427514,0.180732 0,0.408052 0.167061,0.741916 0.371248,0.741916 0.240144,0 0.241587,-0.341033 0.0041,-0.965709 -0.498942,-1.312318 0.981247,-3.650682 2.91659,-4.607558 0.961737,-0.475501 1.522328,-1.059345 1.708102,-1.778974 0.385978,-1.49513 1.032014,-2.164519 2.088987,-2.164519 0.568017,0 0.905067,-0.222196 0.905067,-0.596657 0,-0.423426 -0.221048,-0.5265 -0.761341,-0.355016 -0.548314,0.174026 -0.761341,0.06841 -0.761341,-0.377486 0,-0.340518 -0.142751,-0.530897 -0.317224,-0.42307 -0.174477,0.107831 -0.317228,-0.03704 -0.317228,-0.321908 0,-0.284883 0.228402,-0.430324 0.507563,-0.3232 0.279157,0.107125 0.50756,0.454367 0.50756,0.771657 0,0.484189 0.09728,0.496154 0.60538,0.07447 0.549657,-0.456174 0.540898,-0.550107 -0.09517,-1.020523 -0.683166,-0.505243 -1.538049,-0.478869 -2.889402,0.08915 -0.525885,0.221049 -0.664948,0.09107 -0.660345,-0.61722 0.0047,-0.718968 0.07915,-0.783785 0.374842,-0.32623 0.217724,0.336903 0.371401,0.386567 0.374842,0.121137 0.007,-0.543666 1.396821,-0.433732 2.575353,0.203721 0.710639,0.38437 0.856509,0.367567 0.856509,-0.09866 0,-0.309064 -0.19777,-0.684161 -0.439488,-0.833552 -0.272294,-0.168286 -0.336155,-0.104425 -0.167868,0.167868 0.14939,0.241719 0.09021,0.439488 -0.131518,0.439488 -0.221725,0 -0.403137,-0.149904 -0.403137,-0.333125 0,-0.183216 -0.498313,-0.574461 -1.107367,-0.869435 l -1.107363,-0.536311 1.196786,-0.686863 1.196786,-0.686859 -0.719425,0.794954 c -0.395684,0.437227 -0.542551,0.794958 -0.326368,0.794958 0.766929,0 1.111516,-0.977923 1.051656,-2.984559 -0.03498,-1.172541 -0.26524,-2.159334 -0.544081,-2.331667 -0.309154,-0.191066 -0.385943,-0.624692 -0.212993,-1.202812 0.261288,-0.873441 0.251075,-0.87861 -0.301902,-0.152744 -0.493524,0.647828 -0.498945,0.856085 -0.03937,1.512217 0.689584,0.984516 0.678868,1.490301 -0.02585,1.219877 -0.30735,-0.117939 -0.661792,-0.04782 -0.787645,0.15582 -0.125858,0.20364 -0.376152,0.279203 -0.556209,0.167921 -0.180061,-0.111281 -0.261784,0.315972 -0.181614,0.949453 0.1351,1.067492 0.08711,1.12039 -0.655713,0.72284 -0.687771,-0.368081 -0.766289,-0.337228 -0.553426,0.217485 0.136433,0.355534 0.248057,0.799625 0.248057,0.986869 0,0.187244 0.642381,0.68175 1.427514,1.098904 1.397273,0.742394 1.402869,0.753986 0.264181,0.547282 -1.401769,-0.254459 -2.446843,0.657574 -1.735564,1.514616 0.695454,0.837969 -1.236416,3.910759 -3.035849,4.828761 -1.689597,0.86197 -3.374119,3.578339 -2.661181,4.291275 0.294911,0.2949 0.411521,0.228134 0.411521,-0.235627 0,-0.972756 0.753373,-0.778785 0.813181,0.209369 l 0.05184,0.856509 0.164971,-0.856509 c 0.09073,-0.471081 0.308321,-0.856509 0.483527,-0.856509 0.380037,0 0.05082,1.452005 -0.391154,1.725162 -0.16963,0.104834 -0.414838,0.0184 -0.544907,-0.192038 -0.147041,-0.237922 -0.610389,-0.137662 -1.225025,0.265065 -0.976316,0.639703 -0.983031,0.637422 -0.54317,-0.18446 l 0.445367,-0.832176 -1.752562,0.751234 c -2.106622,0.903007 -2.070113,0.900221 -2.070113,0.157762 0,-0.326408 0.172834,-0.486652 0.384077,-0.356098 0.538155,0.332599 1.95804,-0.171142 1.692672,-0.60052 -0.120081,-0.19429 -0.389631,-0.353261 -0.598999,-0.353261 -0.209369,0 -0.256809,0.200411 -0.105423,0.445362 0.176449,0.285497 0.08203,0.36693 -0.263036,0.226851 -0.296057,-0.120176 -0.795238,-0.322301 -1.109291,-0.449164 -0.457947,-0.184985 -0.562076,0.09043 -0.525906,1.390998 0.06663,2.395923 0.06808,2.397857 1.079206,1.447949 0.55147,-0.51808 1.486875,-0.910987 2.284023,-0.959386 z m -2.837323,0.79903 c 0,-0.07905 0.299778,-0.378825 0.666173,-0.666176 0.603765,-0.473503 0.617229,-0.460039 0.143724,0.143727 -0.497296,0.634102 -0.809897,0.835754 -0.809897,0.522449 z m 6.360403,-3.547763 c -0.473508,-0.122986 -0.611133,-0.400418 -0.450186,-0.907517 0.143054,-0.450723 0.05194,-0.73038 -0.237953,-0.73038 -0.886569,0 -0.04393,-0.425768 1.138902,-0.575466 0.748726,-0.09476 1.185052,0.01831 1.188741,0.308045 0.0041,0.321393 0.08914,0.333011 0.285503,0.03901 0.153821,-0.230316 0.536626,-0.516572 0.850679,-0.63612 0.454825,-0.173137 0.435461,-0.223475 -0.09517,-0.247415 -0.366395,-0.01653 -0.666174,-0.182376 -0.666174,-0.36855 0,-0.569111 1.440355,-2.152582 1.711971,-1.882081 0.140155,0.139578 -0.10205,0.610659 -0.538238,1.046847 -0.643354,0.643356 -0.679284,0.793063 -0.190334,0.793063 0.8947,0 0.498883,0.697202 -0.897903,1.581584 -1.010091,0.639544 -1.191064,0.669736 -0.997954,0.166501 0.173355,-0.451754 0.07386,-0.552533 -0.375317,-0.380169 -0.336162,0.128994 -0.525469,0.373261 -0.420683,0.542806 0.104786,0.169554 -0.02468,0.395033 -0.287689,0.501067 -0.288497,0.116308 -0.213929,0.204719 0.187963,0.222847 0.366396,0.01653 0.666173,0.201356 0.666173,0.410726 0,0.209369 -0.04283,0.3608 -0.09517,0.336514 -0.05234,-0.0243 -0.402067,-0.123872 -0.777167,-0.221298 z m 3.917698,-4.085066 c 0,-0.299101 0.269187,-0.813004 0.598196,-1.142011 0.329006,-0.329007 0.414657,-0.598197 0.190336,-0.598197 -0.224326,0 -0.407862,-0.177328 -0.407862,-0.394064 0,-0.25745 0.285046,-0.241509 0.82221,0.04599 0.73531,0.393525 0.755429,0.477408 0.190335,0.793649 -0.347529,0.194486 -0.631875,0.687704 -0.631875,1.096042 0,0.408332 -0.171301,0.742425 -0.38067,0.742425 -0.209369,0 -0.38067,-0.244721 -0.38067,-0.543818 z m 0.03007,-7.291649 c 0.01827,-0.443463 0.108469,-0.533662 0.229986,-0.22999 0.109965,0.274795 0.09644,0.603123 -0.03003,0.729619 -0.126497,0.126493 -0.216465,-0.09834 -0.199936,-0.499629 z m 0.731268,-0.131826 c 0,-0.209369 0.342604,-0.564028 0.761341,-0.788129 0.489702,-0.26208 0.761341,-0.271639 0.761341,-0.0268 0,0.209369 -0.342603,0.564028 -0.761341,0.788129 -0.489702,0.26208 -0.761341,0.271638 -0.761341,0.0268 z m 0.448095,-1.780039 c 0.332162,-0.332161 0.898805,-0.544644 1.259212,-0.472183 0.451121,0.0907 0.262952,0.278864 -0.603926,0.603926 -1.149807,0.431159 -1.20674,0.419712 -0.655286,-0.131743 z M 49.220187,72.627879 c 0.09916,-0.925533 0.162751,-1.001993 0.453117,-0.544839 0.177031,0.278716 0.298707,-0.07486 0.298707,-0.86802 0,-0.78588 -0.16499,-1.270064 -0.399704,-1.17298 -1.694782,0.701009 -1.845487,0.72988 -1.581696,0.303058 0.455482,-0.736983 0.01634,-0.502452 -0.757528,0.404587 -0.714904,0.837913 -0.71473,0.841959 0.01227,0.285506 0.787762,-0.602965 0.787894,-0.645234 -0.0042,1.305613 -0.130915,0.322483 0.05954,0.608593 0.475839,0.714809 0.949022,0.242142 1.44644,0.100583 1.503048,-0.427734 z m -0.999259,-1.015124 c 0.260639,-0.314054 0.61884,-0.571008 0.796004,-0.571008 0.177159,0 0.22351,0.256954 0.102994,0.571008 -0.120513,0.314054 -0.478714,0.571003 -0.796004,0.571003 -0.469629,0 -0.488778,-0.106165 -0.102994,-0.571003 z m -9.13609,0.803511 c 0,-0.561178 -1.488452,-2.545925 -1.510017,-2.013501 -0.007,0.17198 0.267228,0.592587 0.609324,0.934683 0.407682,0.407682 0.473263,0.671567 0.190333,0.765874 -0.631691,0.210564 -0.527198,0.841776 0.139353,0.841776 0.314054,0 0.571007,-0.237973 0.571007,-0.528832 z m 4.187373,0.08472 c 0,-0.174471 -0.161191,-0.317224 -0.358201,-0.317224 -0.197016,0 -0.446435,0.142753 -0.554262,0.317224 -0.107831,0.174476 0.05336,0.317229 0.358201,0.317229 0.304848,0 0.554262,-0.142753 0.554262,-0.317229 z m 3.426036,-0.181866 c 0,-0.702966 -1.701877,-2.419379 -2.398882,-2.419379 -0.856584,0 -1.368923,1.559414 -0.749876,2.282405 0.681649,0.796107 3.148758,0.903429 3.148758,0.136974 z m -2.65407,-0.312892 c -0.2548,-0.307016 -0.404254,-0.729669 -0.332117,-0.939235 0.07214,-0.209562 0.329166,0.04163 0.571181,0.558209 0.501652,1.070781 0.429205,1.186246 -0.239064,0.381026 z m 1.004498,-0.07625 c -0.139578,-0.139578 -0.253784,-0.503155 -0.253784,-0.807951 0,-0.449436 0.107921,-0.464609 0.571008,-0.08028 0.314054,0.260644 0.571008,0.624221 0.571008,0.807951 0,0.39419 -0.526716,0.441798 -0.888232,0.08028 z m -3.44822,-2.300646 c -0.276628,-0.297275 -1.754276,0.463817 -1.754276,0.903578 0,0.433322 0.186539,0.404854 0.914391,-0.139569 0.502917,-0.376165 0.880866,-0.71997 0.839885,-0.764009 z m 3.955781,-0.110267 c 0,-0.209369 -0.171305,-0.38067 -0.380674,-0.38067 -0.209365,0 -0.380671,0.171301 -0.380671,0.38067 0,0.209369 0.171306,0.38067 0.380671,0.38067 0.209369,0 0.380674,-0.171301 0.380674,-0.38067 z m 1.372866,-0.347041 c 0.446533,0.370587 0.502738,0.33701 0.303784,-0.181468 -0.167493,-0.436473 -0.487059,-0.559089 -1.017975,-0.39058 -0.608117,0.193007 -0.720748,0.113911 -0.525924,-0.369327 0.136356,-0.338214 0.351897,-0.871889 0.478981,-1.185943 0.356974,-0.882158 -0.54179,-0.675551 -1.580713,0.363371 -1.233873,1.233873 -1.295174,2.330871 -0.09434,1.688198 0.694452,-0.37166 0.90886,-0.339201 1.237179,0.187289 0.353204,0.5664 0.411189,0.570305 0.524112,0.03531 0.100938,-0.478218 0.239322,-0.508325 0.674891,-0.146836 z m -2.514881,-0.701749 c 0,-0.209369 0.256954,-0.593922 0.571008,-0.854561 0.318521,-0.264348 0.571007,-0.305573 0.571007,-0.09322 0,0.209369 -0.256953,0.593922 -0.571007,0.854566 -0.318522,0.264348 -0.571008,0.305573 -0.571008,0.09322 z m -5.527386,-0.854561 c 0.198439,-0.811322 0.100741,-0.951678 -0.662454,-0.951678 -0.593809,0 -0.912841,0.233979 -0.947566,0.694949 -0.04491,0.596174 0.03587,0.623228 0.568442,0.190333 0.53632,-0.435954 0.585192,-0.413971 0.359179,0.161565 -0.786413,2.002551 -0.789953,2.036194 -0.150367,1.427512 0.329999,-0.314054 0.704746,-0.999262 0.832766,-1.522681 z m 0.965174,0.02243 c 0.0051,-0.522121 0.05017,-0.524819 0.37484,-0.02243 0.481777,0.745493 0.481777,1.249425 0,0.951673 -0.209369,-0.129397 -0.38067,-0.08194 -0.38067,0.105467 0,0.187406 0.668658,0.36693 1.485905,0.398953 l 1.485905,0.05822 -0.05839,-1.518138 c -0.03213,-0.834982 -0.205192,-1.518307 -0.384618,-1.518504 -0.179431,-1.92e-4 -0.235716,0.235515 -0.125089,0.523812 0.158203,0.412276 -0.06698,0.463696 -1.054887,0.240886 -1.164143,-0.262554 -1.301192,-0.188567 -1.873431,1.011429 -0.339572,0.712089 -0.611956,1.417373 -0.605297,1.567296 0.02379,0.53515 1.130017,-1.216841 1.135735,-1.79869 z m 1.299323,0.575784 c -0.40312,-0.294774 -0.635067,-0.633835 -0.515424,-0.753477 0.119637,-0.119633 0.547353,0.02365 0.950479,0.318423 0.40312,0.294774 0.635067,0.633835 0.515424,0.753478 -0.119637,0.119637 -0.547353,-0.02365 -0.950479,-0.318424 z m 9.198176,-0.119188 c -0.123876,-0.123885 -0.225229,9.37e-4 -0.225229,0.277873 0,0.358332 -0.214925,0.308612 -0.746849,-0.172771 -0.740428,-0.670082 -0.739613,-0.681757 0.09517,-1.358335 0.633084,-0.513115 0.968484,-0.577648 1.351694,-0.260095 0.388411,0.321869 0.479599,0.291369 0.383254,-0.128175 -0.130292,-0.567379 0.09105,-0.745137 0.915252,-0.735041 0.317225,0.0037 0.285503,0.128835 -0.09517,0.374845 -0.314053,0.202958 -0.38918,0.371636 -0.166947,0.37484 0.222231,0.0033 0.809942,-0.372311 1.306023,-0.834481 0.597701,-0.556841 0.95365,-0.685259 1.055178,-0.38067 0.26788,0.803638 1.103119,0.494323 1.071669,-0.396869 -0.02163,-0.612803 0.186402,-0.856509 0.731116,-0.856509 0.730547,0 1.587627,-0.823287 1.229699,-1.181212 -0.376697,-0.376699 -2.130858,0.612687 -2.358624,1.330316 -0.137978,0.434731 -0.463153,0.679008 -0.75486,0.567069 -0.281855,-0.108155 -0.74198,0.04905 -1.022501,0.349345 -0.441947,0.473109 -0.573241,0.463841 -0.983496,-0.06943 -0.407785,-0.530059 -0.523639,-0.538971 -0.835209,-0.06427 -0.286231,0.436094 -0.416044,0.334823 -0.62183,-0.485092 l -0.26008,-1.036245 -0.624718,1.246433 c -0.343595,0.685536 -0.494214,1.30389 -0.334709,1.374116 0.50801,0.223658 -0.09809,0.799067 -0.62764,0.595861 -0.712422,-0.273382 -0.576932,1.299258 0.151566,1.759263 0.314053,0.198313 0.399704,0.365811 0.190333,0.372222 -0.209365,0.0064 -0.126175,0.172565 0.184867,0.369234 0.394745,0.249588 0.663946,0.181726 0.891402,-0.224715 0.179227,-0.320259 0.224513,-0.683644 0.100638,-0.80752 z m -0.605899,-2.371856 c 0,-0.516015 0.676488,-0.836447 0.923185,-0.437283 0.117949,0.190843 -0.04151,0.445216 -0.354367,0.565266 -0.31285,0.120054 -0.568818,0.06246 -0.568818,-0.127983 z m 3.924337,3.455235 c 0.169383,-0.02182 0.196957,-0.219335 0.06128,-0.438871 -0.167724,-0.271387 -0.424155,-0.251877 -0.80108,0.06095 -0.393662,0.326712 -0.358318,0.118472 0.12191,-0.71828 0.371965,-0.648113 0.573176,-1.281509 0.447137,-1.407543 -0.461197,-0.4612 -2.20305,0.694438 -2.550954,1.692436 -0.348871,1.00077 -0.322802,1.024588 1.027896,0.938921 0.762215,-0.04834 1.524431,-0.105761 1.693814,-0.127608 z M 51.64696,67.996392 c 0.402352,-0.751801 1.142012,-1.047666 1.142012,-0.456807 0,0.400339 -0.826798,1.218147 -1.231539,1.218147 -0.174861,0 -0.134574,-0.342602 0.08953,-0.76134 z m 3.215304,0.666171 c -0.501845,-1.640374 -0.803062,-1.958938 -1.030368,-1.089719 -0.11582,0.442898 -0.05526,0.709269 0.134588,0.59194 0.189843,-0.117328 0.345169,0.139386 0.345169,0.570479 0,0.431097 0.182845,0.783809 0.406323,0.783809 0.245231,0 0.302436,-0.339571 0.144288,-0.856509 z m 0.463177,-0.831913 c -0.115322,-0.300525 -0.02014,-0.609592 0.211515,-0.68681 0.231656,-0.07722 0.463828,-0.430887 0.515938,-0.785936 0.107418,-0.731889 0.09005,-0.740065 -0.825766,-0.388631 -0.621247,0.238395 -0.616634,0.277596 0.06403,0.544248 0.641573,0.251335 0.650013,0.2907 0.06733,0.314101 -0.366395,0.01475 -0.666173,0.0984 -0.666173,0.185959 0,0.366804 0.476935,1.363481 0.652461,1.363481 0.104684,0 0.09598,-0.245888 -0.01934,-0.546412 z M 44.172066,66.48533 c -0.209505,-0.209506 -0.885464,0.77213 -0.894025,1.298316 -0.0033,0.197044 0.237116,0.02599 0.534054,-0.380075 0.296932,-0.406076 0.458919,-0.819289 0.359971,-0.918241 z m 3.668192,1.130392 c 0,-0.20937 -0.181412,-0.380671 -0.40314,-0.380671 -0.221723,0 -0.297265,0.171301 -0.167868,0.380671 0.129397,0.209369 0.310809,0.38067 0.403139,0.38067 0.09233,0 0.167869,-0.171301 0.167869,-0.38067 z m -2.284022,-1.309879 c 0,-0.09233 -0.171305,-0.273743 -0.380674,-0.40314 -0.209365,-0.129397 -0.380671,-0.05385 -0.380671,0.167869 0,0.221723 0.171306,0.403139 0.380671,0.403139 0.209369,0 0.380674,-0.07554 0.380674,-0.167868 z m -3.407365,-0.698888 c 0.602244,0.157491 0.778565,0.09079 0.585558,-0.221503 -0.15189,-0.245766 -0.452719,-0.337726 -0.668513,-0.204358 -0.248712,0.153711 -0.239083,-0.04388 0.02632,-0.539772 0.23026,-0.43024 0.418649,-1.054869 0.418649,-1.388062 0,-1.031304 -2.133672,0.338111 -2.596806,1.666661 -0.378689,1.08631 -0.358117,1.119888 0.488881,0.797858 0.486315,-0.184895 1.271979,-0.23477 1.745926,-0.110824 z m -1.541352,-0.742224 c 0,-0.693942 0.674864,-1.269085 1.049511,-0.894437 0.130634,0.130633 -0.05207,0.5271 -0.405996,0.881034 -0.593444,0.593444 -0.643515,0.594489 -0.643515,0.01339 z m 16.743668,-0.05548 c 0.0032,-0.182666 -0.255045,-0.11561 -0.573891,0.14901 -0.492238,0.40852 -0.538927,0.37247 -0.309397,-0.238896 0.239434,-0.637741 0.196448,-0.659915 -0.376178,-0.194061 -0.607235,0.49401 -0.60593,0.55562 0.02148,1.014398 0.660447,0.482929 1.222507,0.151291 1.237982,-0.730451 z m -18.266349,0.687756 c 0,-0.414796 -0.879273,-1.880966 -1.294167,-2.158001 -1.291797,-0.862555 -1.933992,0.613502 -0.772331,1.775167 0.566493,0.566493 2.066498,0.84438 2.066498,0.382834 z m -1.52268,-0.736314 c -0.269041,-0.324174 -0.403514,-0.675056 -0.29883,-0.77974 0.104685,-0.104685 0.410459,0.0749 0.6795,0.39907 0.269036,0.324169 0.403509,0.675055 0.298825,0.77974 -0.104685,0.10468 -0.410459,-0.0749 -0.679495,-0.39907 z m 8.535822,0.04327 c -0.269753,-0.91212 -1.205503,-1.756276 -1.946852,-1.756276 -0.624291,0 -0.651888,1.216771 -0.04144,1.827219 0.347102,0.347102 0.348844,0.456802 0.0073,0.456802 -0.247251,0 -0.561122,-0.444528 -0.697483,-0.987844 -0.183186,-0.729871 -0.332678,-0.854135 -0.572431,-0.475839 -0.442734,0.698578 -0.418776,1.179011 0.04454,0.89268 0.209369,-0.129397 0.38067,0.0084 0.38067,0.306295 0,0.378586 0.461003,0.54156 1.53186,0.54156 1.380583,0 1.50836,-0.07945 1.293909,-0.804597 z m -1.720198,-0.467835 c -0.441521,-0.532003 -0.413563,-0.59616 0.207347,-0.475839 0.394724,0.07649 0.788975,0.353204 0.876117,0.614916 0.226101,0.679073 -0.479642,0.588484 -1.083464,-0.139077 z m 4.661704,0.354895 c 0.709556,-0.621922 1.185042,-2.024005 0.686396,-2.024005 -0.952178,0 -2.275057,1.000119 -2.615809,1.9776 -0.362846,1.040867 -0.333882,1.095017 0.456892,0.854182 0.464365,-0.141428 1.126997,-0.504925 1.472521,-0.807777 z m -1.579899,0.09687 c 0,-0.08973 0.269186,-0.432334 0.598198,-0.761341 0.878238,-0.878238 1.542915,-0.730531 0.734146,0.163143 -0.625528,0.691203 -1.332344,1.008549 -1.332344,0.598198 z M 58.083633,64.33766 c -0.240183,-0.6048 -0.513038,-0.895008 -0.606344,-0.644906 -0.183483,0.491818 0.592862,2.194721 0.872896,1.914684 0.09358,-0.09358 -0.02637,-0.664977 -0.266552,-1.269778 z M 41.473226,62.327265 c -0.04728,-0.08218 -0.34706,0.06727 -0.666172,0.332116 -0.319112,0.26484 -0.581259,0.332074 -0.582551,0.149412 -0.0014,-0.182662 -0.258242,0.158549 -0.571003,0.758245 -0.822745,1.577538 -0.716257,1.606559 0.668518,0.182194 0.680445,-0.699904 1.198492,-1.339789 1.151208,-1.421967 z m 17.597567,1.864828 c -0.192477,-0.606444 -0.108591,-0.708183 0.417465,-0.506316 0.423791,0.162623 0.567439,0.105541 0.403191,-0.160216 -0.140335,-0.227067 -0.03996,-0.487804 0.223055,-0.579414 0.263016,-0.09161 -0.07813,-0.149071 -0.7581,-0.127683 -1.329456,0.04182 -1.456434,0.251882 -0.843983,1.396257 0.514378,0.961124 0.86608,0.946873 0.558372,-0.02262 z m -10.392206,-1.53857 c 0.27171,-0.0074 0.06576,-0.258298 -0.457659,-0.557512 -1.162223,-0.664392 -1.942188,-0.722794 -1.109201,-0.08306 0.551315,0.423408 0.551315,0.515992 0,1.064685 -0.550159,0.54755 -0.660309,0.541795 -1.239535,-0.06471 -0.59572,-0.623781 -0.580065,-0.707462 0.248749,-1.32988 0.746944,-0.56093 0.821494,-0.802425 0.479449,-1.55313 -0.480976,-1.055633 -0.941759,-1.108623 -2.16849,-0.249389 -0.873757,0.612001 -0.901949,0.607904 -0.654774,-0.09517 0.249185,-0.708801 0.237833,-0.708244 -0.322043,0.01572 -0.319186,0.412727 -0.490909,0.983468 -0.381607,1.268309 0.109303,0.284837 0.198735,0.643455 0.198735,0.796923 0,0.153467 0.604837,0.567453 1.344079,0.919973 0.739241,0.352521 1.444197,0.90186 1.566565,1.220751 0.18114,0.472037 0.387845,0.401384 1.112105,-0.380103 0.489288,-0.527952 1.111922,-0.96598 1.383627,-0.973402 z M 44.6595,61.839692 c 0.448958,-0.217321 0.994097,-0.762455 1.211418,-1.211413 0.284738,-0.588233 0.402329,-0.646655 0.420893,-0.209112 0.03105,0.732133 -1.155184,1.877248 -1.907561,1.841423 -0.314307,-0.01494 -0.198959,-0.191349 0.27525,-0.420898 z m -0.625949,-0.681958 c 0,-0.202003 0.342606,-0.550632 0.76134,-0.774735 0.83847,-0.448734 1.023085,-0.03335 0.304538,0.685209 -0.550383,0.550384 -1.065878,0.593679 -1.065878,0.08953 z m 9.210137,2.739428 c -0.603798,-0.201268 -0.190298,-0.84947 0.541891,-0.84947 0.314053,0 0.465136,0.1713 0.335739,0.38067 -0.359719,0.582036 0.417902,0.452822 0.920679,-0.152986 0.243593,-0.293509 0.883891,-0.644339 1.422886,-0.779618 0.849702,-0.213261 0.95011,-0.395361 0.755243,-1.369695 -0.132984,-0.664923 -0.06403,-1.123734 0.168873,-1.123734 0.216491,0 0.274154,-0.193301 0.12814,-0.429555 -0.374609,-0.606131 -1.050074,0.687341 -0.757326,1.450229 0.172251,0.448879 0.04057,0.544787 -0.539676,0.393052 -0.422138,-0.110393 -0.680062,-0.0592 -0.573164,0.113765 0.325805,0.527165 -0.98196,1.587255 -1.470818,1.192265 -0.566421,-0.457655 -2.529195,-0.446032 -2.529195,0.01499 0,0.195554 0.159465,0.256995 0.354367,0.136538 0.194902,-0.120457 0.461964,-0.04491 0.593472,0.167868 0.236067,0.381968 -0.270539,0.543935 -1.271542,0.406526 -0.294845,-0.04046 -0.400169,0.113681 -0.246998,0.361516 0.146872,0.237646 0.50118,0.342237 0.787351,0.232424 0.28617,-0.109817 0.623283,-0.03306 0.749139,0.170594 0.125856,0.203637 0.422683,0.250444 0.659615,0.104015 0.31424,-0.19421 0.306482,-0.307676 -0.02867,-0.419394 z m -14.20235,-0.876356 c -0.610889,-0.377546 -0.888954,-0.177276 -0.539323,0.38844 0.140117,0.22671 0.432512,0.302346 0.649767,0.168079 0.25576,-0.158072 0.216825,-0.354249 -0.110444,-0.556519 z M 37.75249,62.667021 c -0.129397,-0.209369 0.117446,-0.38067 0.548539,-0.38067 0.483922,0 0.783809,-0.247597 0.783809,-0.64714 0,-0.503328 -0.101514,-0.545625 -0.456807,-0.190332 -0.716664,0.716669 -1.250221,0.534053 -0.611731,-0.20937 1.562885,-1.819742 0.880088,-2.66783 -0.973815,-1.209551 -0.551657,0.433934 -0.997562,0.64806 -0.990903,0.475836 0.0178,-0.460994 0.986895,-1.661597 1.182931,-1.465555 0.09245,0.09245 0.19334,-0.167168 0.224206,-0.576926 0.03086,-0.409753 -0.114646,-0.745006 -0.32336,-0.745006 -0.208709,0 -0.285599,-0.151891 -0.170865,-0.337537 0.114735,-0.185645 -0.04646,-0.549223 -0.358206,-0.807954 -0.393478,-0.326558 -0.566816,-0.339748 -0.566816,-0.04313 0,0.235003 0.181412,0.427279 0.40314,0.427279 0.221723,0 0.295537,0.174096 0.164032,0.386879 -0.131509,0.212784 -0.398573,0.288328 -0.593472,0.167868 -0.194903,-0.120455 -0.35437,-0.0376 -0.35437,0.184127 0,0.221725 0.177333,0.403137 0.394064,0.403137 0.266263,0 0.26099,0.24865 -0.01625,0.766675 -0.598014,1.117404 -0.08524,3.259154 0.893688,3.73275 1.066857,0.516132 1.100496,0.518941 0.822183,0.06862 z m -0.951673,-1.417073 c 0,-0.478977 1.08809,-1.428426 1.343878,-1.172642 0.10091,0.100908 -0.160183,0.494472 -0.580205,0.874585 -0.420022,0.380118 -0.763673,0.51424 -0.763673,0.298057 z m -0.253783,-2.94389 c 0,-0.304844 0.145549,-0.464307 0.323434,-0.354366 0.17789,0.109942 0.22488,0.359357 0.104427,0.55426 -0.307821,0.498062 -0.427861,0.441982 -0.427861,-0.199894 z m 23.83457,3.980293 c 0.163694,0 0.297627,-0.689338 0.297627,-1.531859 0,-1.376325 -0.08169,-1.509068 -0.804599,-1.307408 -0.663754,0.185158 -0.704645,0.148374 -0.233594,-0.210138 0.388573,-0.295739 0.409857,-0.391885 0.06662,-0.300924 -0.277414,0.07352 -0.503748,0.300684 -0.502965,0.504819 7.97e-4,0.204134 -0.217283,0.628105 -0.484593,0.942158 -0.555837,0.653032 -1.055888,1.903352 -0.761225,1.903352 0.108511,0 0.745516,-0.267266 1.415567,-0.593917 l 1.218274,-0.593922 -0.951676,0.819691 c -0.694561,0.598235 -0.763284,0.758695 -0.254368,0.593922 0.383519,-0.124175 0.831239,-0.225774 0.994934,-0.225774 z m -1.882577,-1.036403 c 0,-0.478977 1.088095,-1.428426 1.34388,-1.172642 0.100908,0.100908 -0.160184,0.494472 -0.580205,0.874585 -0.420021,0.380118 -0.763675,0.51424 -0.763675,0.298057 z m -18.60465,-0.144477 c -0.652947,-1.137695 -1.09349,-1.190574 -0.605798,-0.07272 0.163789,0.375426 0.28012,0.782517 0.258513,0.904651 -0.02159,0.122134 0.183795,0.22206 0.456451,0.22206 0.380923,0 0.355635,-0.244122 -0.109166,-1.053993 z m 2.482909,-0.231534 c -0.08578,-1.340848 -0.159724,-1.41482 -1.459398,-1.459953 -1.337013,-0.04643 -1.360419,-0.0228 -1.000419,1.009892 0.210779,0.604644 0.804199,1.216928 1.385847,1.429903 0.559468,0.204855 1.050316,0.38599 1.090773,0.402516 0.04046,0.01653 0.03288,-0.605531 -0.01681,-1.382358 z m -1.577322,-0.107934 c -0.380113,-0.42002 -0.514235,-0.763674 -0.298057,-0.763674 0.478982,0 1.42843,1.088091 1.172647,1.343879 -0.10091,0.10091 -0.494472,-0.160184 -0.87459,-0.580205 z m 0.759233,-0.763674 c -0.129397,-0.209369 -0.05386,-0.38067 0.167868,-0.38067 0.221723,0 0.403135,0.171301 0.403135,0.38067 0,0.209369 -0.07554,0.38067 -0.167868,0.38067 -0.09233,0 -0.273738,-0.171301 -0.403135,-0.38067 z m 10.468434,1.455817 c 0,-0.197305 -0.171302,-0.25287 -0.380671,-0.123473 -0.209368,0.129402 -0.38067,0.06237 -0.38067,-0.148948 0,-0.211323 0.298351,-0.551189 0.663002,-0.75526 0.364651,-0.204069 0.540092,-0.493942 0.38987,-0.644166 -0.150223,-0.15022 -0.534225,-0.05645 -0.853338,0.208394 -0.413932,0.343536 -0.580204,0.355656 -0.580204,0.0423 0,-0.241577 0.264672,-0.540791 0.588161,-0.664928 0.491826,-0.188729 0.456618,-0.317833 -0.214952,-0.78822 -0.441712,-0.30939 -0.902205,-0.463432 -1.023317,-0.342322 -0.121111,0.121114 0.07563,0.333726 0.437205,0.472473 0.494167,0.189631 0.53798,0.326082 0.176442,0.549528 -0.264532,0.163487 -0.520809,0.568718 -0.569506,0.900514 -0.05006,0.341066 0.08651,0.495068 0.314232,0.354328 0.264518,-0.163479 0.319003,0.08483 0.158728,0.723417 -0.209681,0.835436 -0.137101,0.944377 0.515488,0.773718 0.417741,-0.109241 0.75953,-0.360051 0.75953,-0.557357 z m -2.397145,-0.884813 c 0.02711,-0.956174 -0.125971,-1.332344 -0.54217,-1.332344 -0.490577,0 -0.502266,0.102652 -0.07585,0.666172 0.428845,0.566731 0.424438,0.595144 -0.0295,0.190335 -0.673617,-0.600685 -1.904025,-0.620054 -1.904025,-0.02997 0,0.684246 1.184514,1.838156 1.886904,1.838156 0.455481,0 0.637225,-0.364312 0.664665,-1.332348 z m -1.512655,0.721689 c -0.152667,-0.152667 -0.277573,-0.540235 -0.277573,-0.861268 0,-0.428479 0.112613,-0.471079 0.423496,-0.160197 0.23292,0.232921 0.357827,0.620494 0.277569,0.861268 -0.08026,0.240773 -0.27083,0.312859 -0.423492,0.160197 z m 6.574492,0.207866 c 0,-0.169193 -0.508006,-0.293182 -1.128904,-0.275531 -0.620898,0.01766 -1.052276,0.156086 -0.958618,0.307629 0.23374,0.378197 2.087522,0.349692 2.087522,-0.03208 z m 0.975032,-2.039017 c -0.09789,-0.646009 -0.282594,-1.833803 -0.410451,-2.639542 -0.127858,-0.805742 -0.0845,-1.373539 0.09635,-1.261766 0.180849,0.111768 0.351578,-0.342447 0.379398,-1.009375 0.02782,-0.666927 0.104906,-1.469543 0.171302,-1.783596 0.06639,-0.314054 -0.04601,-0.571006 -0.249781,-0.571006 -0.203775,0 -0.31747,0.404675 -0.252656,0.899277 0.08788,0.6706 -0.01151,0.818521 -0.39084,0.58171 -1.141845,-0.71284 -1.458118,-0.487163 -0.881086,0.628692 0.590278,1.141475 0.721483,2.553412 0.331673,3.569242 -0.316883,0.825785 -0.811028,0.755315 -1.100569,-0.156946 -0.132509,-0.417497 -0.483642,-1.001807 -0.780296,-1.29846 -0.646082,-0.646081 -2.075447,-0.362752 -2.075447,0.411395 0,0.331522 -0.188534,0.440576 -0.475838,0.27524 -0.27646,-0.159094 -0.342919,-0.128633 -0.158613,0.0727 0.174474,0.190594 0.431427,0.352223 0.571006,0.359174 0.139579,0.007 0.988185,0.484205 1.88579,1.060559 0.897605,0.576354 1.796939,0.945985 1.99852,0.821403 0.20158,-0.124582 0.366509,0.05066 0.366509,0.389422 0,0.338766 -0.169945,0.510905 -0.377655,0.382532 -0.20771,-0.12837 -0.67879,-0.05779 -1.046844,0.156847 -0.525705,0.306573 -0.321119,0.379188 0.954163,0.338652 1.590014,-0.05054 1.619696,-0.07571 1.445368,-1.226154 z m -2.358699,-0.686592 c -0.157017,-0.25406 -0.07957,-0.305823 0.199515,-0.133341 0.250889,0.155058 0.705611,0.0749 1.010493,-0.178128 0.44074,-0.365782 0.55433,-0.350095 0.55433,0.07655 0,0.640943 -1.398333,0.827125 -1.764338,0.234916 z m -1.698135,-1.293214 c -0.441521,-0.532002 -0.413564,-0.59616 0.207347,-0.475838 0.394724,0.07649 0.788975,0.353202 0.876114,0.614912 0.226104,0.679075 -0.479641,0.588486 -1.083461,-0.139074 z m 2.938495,-3.016173 c -0.367339,-0.957268 -0.258975,-1.20427 0.189777,-0.432571 0.222194,0.382098 0.323797,0.774915 0.225787,0.872927 -0.09801,0.09801 -0.285015,-0.100151 -0.415564,-0.440356 z m -9.754125,4.392426 c -0.461733,-0.298396 -0.407101,-0.370126 0.285506,-0.374842 1.11048,-0.0075 1.085117,-0.573168 -0.07786,-1.736146 -1.120249,-1.120253 -1.976093,-1.197753 -2.290414,-0.207413 -0.126906,0.399834 -0.509098,0.956564 -0.849321,1.237179 -0.557361,0.459717 -0.572295,0.423355 -0.150901,-0.367396 0.25722,-0.482686 0.413746,-1.034369 0.347823,-1.225961 -0.167596,-0.487109 -1.923652,0.45639 -2.143928,1.151897 -0.13297,0.419842 0.0354,0.37903 0.636111,-0.154167 0.449324,-0.398844 0.816957,-0.548295 0.816957,-0.332112 0,0.597161 -1.05597,1.345727 -1.506005,1.06759 -0.218543,-0.135066 -0.397346,0.02752 -0.397346,0.361294 0,0.495169 0.144607,0.529475 0.785673,0.186384 0.583184,-0.312112 0.926567,-0.30355 1.332348,0.03323 0.30067,0.249534 0.568086,0.347073 0.594254,0.21675 0.09459,-0.471 0.213982,-0.820482 0.517846,-1.515791 0.28944,-0.662295 0.333039,-0.6655 0.677584,-0.04983 0.254566,0.454886 0.224515,0.74683 -0.09736,0.945757 -0.332098,0.205249 -0.344793,0.362417 -0.0443,0.548142 0.231722,0.143197 0.42131,0.07896 0.42131,-0.142766 0,-0.221726 0.171301,-0.403138 0.38067,-0.403138 0.20937,0 0.360388,0.128476 0.335591,0.285503 -0.0948,0.600435 0.06188,0.856303 0.520918,0.85068 0.317225,-0.0039 0.285502,-0.128834 -0.09517,-0.374842 z m -0.38067,-1.332346 c -0.269036,-0.324172 -0.403509,-0.675055 -0.298825,-0.779739 0.104685,-0.104684 0.410459,0.0749 0.679495,0.399068 0.269041,0.324171 0.403514,0.675055 0.29883,0.779739 -0.104685,0.104685 -0.410459,-0.0749 -0.6795,-0.399068 z m 4.780793,1.154116 c 0.946305,-0.715748 0.271481,-0.724138 -0.974086,-0.01211 -0.609999,0.348705 -0.738623,0.548869 -0.358262,0.557514 0.32638,0.0074 0.925935,-0.238014 1.332348,-0.545409 z m 0.170033,-1.729062 c 0.360342,-0.673307 0.285516,-0.757401 -0.673923,-0.757401 -0.593599,0 -1.28483,-0.205562 -1.536075,-0.456804 -0.355292,-0.355291 -0.456802,-0.308004 -0.456802,0.212802 0,0.41431 0.169798,0.564664 0.445362,0.394356 0.313829,-0.193956 0.357283,-0.06006 0.147145,0.453374 -0.841396,2.055761 -0.799535,2.187576 0.483922,1.523873 0.651762,-0.337041 1.367429,-0.953628 1.590371,-1.3702 z m -1.425092,0.121765 c 0.353935,-0.353932 0.750396,-0.536631 0.881034,-0.405996 0.374648,0.374652 -0.200495,1.049512 -0.894437,1.049512 -0.581081,0 -0.580041,-0.05007 0.01339,-0.643516 z m 10.750117,1.025336 c 0.203089,0.328602 0.158259,0.405068 -0.132228,0.225536 -0.241718,-0.14939 -0.439487,-0.120178 -0.439487,0.06491 0,0.185089 0.605334,0.323676 1.345187,0.30797 1.102857,-0.02341 1.32573,-0.160342 1.237179,-0.760085 -0.0594,-0.402338 -0.364961,-0.815624 -0.679014,-0.918413 -0.489615,-0.160251 -0.496536,-0.09667 -0.04856,0.44602 0.44823,0.543 0.437901,0.63291 -0.0727,0.63291 -0.327333,0 -0.694284,-0.160403 -0.815447,-0.356448 -0.412398,-0.667273 -1.727988,-0.278826 -1.727988,0.510213 0,0.724781 0.01928,0.726722 0.512899,0.05166 0.400463,-0.547666 0.580255,-0.592445 0.820157,-0.204275 z m -19.985904,-0.0012 c 0,-0.209368 -0.171301,-0.38067 -0.38067,-0.38067 -0.209369,0 -0.38067,0.171302 -0.38067,0.38067 0,0.209369 0.171301,0.380671 0.38067,0.380671 0.209369,0 0.38067,-0.171302 0.38067,-0.380671 z m 0.945496,-1.12254 c 0.1295,-0.408025 0.591932,-0.855008 1.027623,-0.993291 0.599204,-0.190179 0.669155,-0.327448 0.287169,-0.563529 -0.333779,-0.206289 -0.802411,0.03369 -1.382181,0.707788 -0.933919,1.085867 -1.099975,1.590902 -0.52309,1.590902 0.195259,0 0.460975,-0.33384 0.590479,-0.74187 z m 6.807027,-0.08931 c -0.174785,-0.27564 -0.320418,-0.629641 -0.323621,-0.786668 -0.0033,-0.157026 -0.177132,-0.30007 -0.386501,-0.317874 -0.209369,-0.01782 -0.598937,-0.213515 -0.865706,-0.434917 -0.26677,-0.221397 -0.609376,-0.26903 -0.761341,-0.105848 -0.151969,0.163185 -0.04313,0.379528 0.241917,0.480767 0.285023,0.101239 0.871555,0.590439 1.303406,1.087115 0.803699,0.924329 1.363589,0.979077 0.791846,0.07742 z m 7.544081,-0.01264 c -0.273155,-0.273154 -0.45046,-0.295628 -0.45046,-0.0571 0,0.508111 0.450185,0.958296 0.70424,0.70424 0.108174,-0.108171 -0.006,-0.399384 -0.25378,-0.64714 z m 3.209333,-0.517555 c 0.07848,-0.534732 0.0023,-0.529087 -0.63431,0.04702 -0.397929,0.360122 -0.622561,0.818099 -0.499183,1.01773 0.282051,0.456371 1.010697,-0.228086 1.133493,-1.06475 z m -19.174483,0.325073 c -0.263013,-0.0939 -0.37624,-0.335724 -0.251615,-0.537377 0.139452,-0.225635 0.433167,-0.195208 0.763715,0.07913 0.402039,0.333661 0.537116,0.335306 0.537116,0.0065 0,-0.241578 -0.246135,-0.533681 -0.546969,-0.64912 -0.300834,-0.115442 -0.454363,-0.451224 -0.341174,-0.746186 0.113185,-0.294962 -0.06795,-0.641338 -0.402521,-0.769727 -0.334575,-0.128385 -0.510596,-0.429609 -0.391165,-0.669379 0.119432,-0.239772 -0.153585,-0.01291 -0.606706,0.504115 l -0.823855,0.940069 0.837028,0.67778 c 0.460362,0.372783 0.711419,0.677784 0.557905,0.677784 -0.153515,0 -0.06243,0.26109 0.20241,0.580206 0.26484,0.319112 0.585591,0.466961 0.712782,0.328553 0.127191,-0.138408 0.01606,-0.328481 -0.246951,-0.42238 z m -0.921879,-1.376904 c -0.351308,-0.267105 -0.522609,-0.670954 -0.380671,-0.897442 0.282294,-0.450443 0.941825,0.109534 1.114587,0.946335 0.116505,0.564306 0.06839,0.561101 -0.733916,-0.04889 z m 22.134762,0.795358 c 0.318893,-0.793363 0.348026,-0.800379 0.39516,-0.09517 l 0.05089,0.761341 0.327159,-0.761341 c 0.458674,-1.067392 0.450206,-1.713017 -0.02247,-1.713017 -0.221725,0 -0.280909,0.19777 -0.131518,0.439488 0.168286,0.272294 0.104424,0.336155 -0.16787,0.167868 -0.241716,-0.14939 -0.439486,-0.0801 -0.439486,0.153985 0,0.234082 -0.155326,0.329608 -0.345169,0.212277 -0.189844,-0.11733 -0.24851,0.1563 -0.130371,0.608064 0.160023,0.611932 0.08743,0.742676 -0.284653,0.512713 -0.330845,-0.204473 -0.407758,-0.160315 -0.227834,0.13081 0.391313,0.633158 0.587781,0.549224 0.976165,-0.41702 z m -8.694438,-1.261196 c -0.402514,-0.511716 -0.631854,-1.456163 -0.611487,-2.518176 0.01793,-0.934653 -0.179411,-1.897403 -0.438523,-2.139452 -0.370986,-0.346551 -0.42293,-0.13853 -0.244409,0.978769 0.352635,2.207009 0.328036,2.56761 -0.168513,2.470265 -0.287342,-0.05634 -0.372976,0.159642 -0.226411,0.571005 0.39243,1.101406 0.893439,1.564868 1.631541,1.509271 0.663871,-0.05001 0.667001,-0.09721 0.0578,-0.871682 z m -0.818093,0.01481 C 49.471133,54.534911 49.328167,54.2001 49.41827,54.109995 c 0.0901,-0.0901 0.372918,0.17099 0.628477,0.580206 0.552663,0.884952 0.368348,0.982115 -0.310773,0.163822 z m -9.889795,0.199544 c 0,-0.209369 -0.181412,-0.380671 -0.403135,-0.380671 -0.221728,0 -0.290372,-0.182459 -0.152545,-0.405467 0.16902,-0.273481 0.455144,-0.230359 0.878973,0.132473 0.944349,0.808434 1.960728,1.086323 1.960728,0.536083 0,-0.836516 -1.162195,-2.166441 -1.893212,-2.166441 -0.389418,0 -0.794436,-0.214127 -0.900038,-0.475838 -0.130315,-0.322949 -0.201661,-0.290798 -0.222061,0.100067 -0.01653,0.316748 0.344293,0.745002 0.80183,0.951676 0.457533,0.206674 0.905447,0.632723 0.995357,0.946777 0.104324,0.364381 -0.03807,0.308898 -0.39346,-0.153327 -0.306317,-0.398379 -0.742392,-0.609712 -0.969056,-0.469625 -0.226664,0.140083 -0.519715,0.0806 -0.651219,-0.13218 -0.131509,-0.212784 -0.443123,-0.381432 -0.692476,-0.374774 -0.270745,0.0072 -0.208143,0.198912 0.155406,0.475838 0.606215,0.461776 0.723567,0.691336 0.723567,1.415409 0,0.209368 0.171301,0.38067 0.380671,0.38067 0.209369,0 0.38067,-0.171302 0.38067,-0.38067 z m 12.942793,0.212802 c 0,-0.09233 -0.171302,-0.27374 -0.380671,-0.403138 -0.209369,-0.129397 -0.38067,-0.05386 -0.38067,0.167868 0,0.221725 0.171301,0.403138 0.38067,0.403138 0.209369,0 0.380671,-0.07554 0.380671,-0.167868 z m -6.535974,-1.109756 c 0.07477,-0.388634 -0.07353,-0.902539 -0.329564,-1.142011 -0.36251,-0.33906 -0.410923,-0.203758 -0.218783,0.61144 0.184657,0.783458 0.104254,1.046844 -0.319575,1.046844 -0.378113,0 -0.48558,-0.221387 -0.323373,-0.666173 0.218094,-0.598057 0.158488,-0.592023 -0.582954,0.059 -0.968251,0.850174 -1.111421,0.411623 -0.195887,-0.600032 0.346503,-0.382882 0.441868,-0.696147 0.211921,-0.696147 -0.229946,0 -0.669768,0.359334 -0.977387,0.798517 l -0.5593,0.798513 -0.491527,-0.893681 c -0.270343,-0.491525 -0.499447,-1.129145 -0.509126,-1.416927 -0.02908,-0.864948 -1.427138,-1.47712 -2.682295,-1.174513 -0.911404,0.219734 -0.969057,0.284425 -0.285502,0.320372 0.492703,0.02588 0.856509,0.290737 0.856509,0.623489 0,0.410499 0.278566,0.527936 0.959433,0.404469 0.532204,-0.0965 0.862574,-0.01724 0.74192,0.177964 -0.119633,0.193567 0.133832,0.729064 0.563248,1.189991 0.429421,0.460923 0.780761,0.961855 0.780761,1.113175 0,0.151321 0.725745,0.247497 1.612764,0.213724 1.239787,-0.0472 1.644201,-0.22482 1.748717,-0.768014 z m 6.198105,-1.115852 c -0.310881,-0.310882 -0.423496,-0.268281 -0.423496,0.160198 0,0.75672 0.511889,1.268607 0.701069,0.701069 0.08026,-0.240774 -0.04465,-0.628346 -0.277573,-0.861267 z m 8.25691,0.528382 c 1.993722,-1.01712 3.358531,-2.494666 4.101627,-4.440436 0.598014,-1.565877 0.597542,-1.834124 -0.0075,-4.249497 -0.830604,-3.315947 -1.937068,-5.813812 -2.575316,-5.813812 -0.726368,0 -4.306254,2.455142 -7.02206,4.815843 -1.288389,1.119925 -2.645314,2.036225 -3.015389,2.036225 -1.13639,0 -2.029452,-1.126655 -5.378681,-6.785538 -3.169182,-5.354676 -4.581474,-7.096701 -2.501375,-3.085379 0.904781,1.744809 1.059785,2.504256 1.079262,5.287995 0.0125,1.787815 0.226636,3.624744 0.475839,4.082059 0.249199,0.457315 0.453093,1.343039 0.453093,1.968271 0,0.934607 0.188924,1.178286 1.062212,1.370094 0.584218,0.128316 1.654855,0.604714 2.379192,1.05866 1.015847,0.636637 1.78447,0.799084 3.361549,0.710453 1.401642,-0.07877 1.964022,0.01542 1.788414,0.299572 -0.158924,0.257143 -0.03518,0.329684 0.325971,0.191093 0.402907,-0.154609 0.907094,0.31183 1.63762,1.515011 1.182216,1.947114 1.753011,2.101796 3.835503,1.039386 z M 44.008164,52.229092 c 0.360341,-0.434185 0.317431,-0.521198 -0.218258,-0.442575 -0.366728,0.05382 -0.733167,0.297022 -0.814305,0.540438 -0.206428,0.619275 0.492356,0.553046 1.032563,-0.09786 z m 2.379176,-0.303379 c -0.273152,-0.273154 -0.450457,-0.295629 -0.450457,-0.0571 0,0.508112 0.450181,0.958296 0.70424,0.704241 0.108174,-0.108171 -0.006,-0.399384 -0.253783,-0.64714 z m 2.214235,-0.869196 c 0,-0.642222 -1.319512,-2.093687 -1.903351,-2.093687 -0.795911,0 -0.334224,1.35956 0.66685,1.963714 0.575391,0.347256 1.08899,0.647034 1.141332,0.666174 0.05234,0.01914 0.09517,-0.222148 0.09517,-0.536201 z M 47.2544,50.08846 c -0.578224,-0.638932 -0.594006,-0.735581 -0.08843,-0.541575 0.338467,0.129884 0.708919,0.479858 0.823218,0.777725 0.284405,0.741146 0.09439,0.680078 -0.734788,-0.23615 z m -3.220872,0.540777 c 0,-0.505835 -0.103346,-0.531846 -0.571003,-0.143726 -0.314054,0.260641 -0.571008,0.538569 -0.571008,0.617615 0,0.07905 0.256954,0.143726 0.571008,0.143726 0.314054,0 0.571003,-0.277927 0.571003,-0.617615 z m -4.29047,-0.373715 c -0.126493,-0.126493 -0.454821,-0.140015 -0.729622,-0.03004 -0.303672,0.121517 -0.213467,0.211721 0.229989,0.229986 0.401289,0.01652 0.626127,-0.07344 0.499633,-0.199936 z m 6.193825,-2.096204 c 0,-0.186175 -0.15033,-0.3385 -0.33406,-0.3385 -0.522983,0 -1.086001,0.879292 -1.073291,1.676203 0.01058,0.664056 0.06981,0.652594 0.709452,-0.137343 0.383845,-0.474026 0.697899,-1.01419 0.697899,-1.20036 z m 8.732699,-4.315364 c 1.048326,-0.931059 2.938362,-2.420847 4.200081,-3.310635 1.261719,-0.889788 2.294034,-1.765486 2.294034,-1.945995 0,-0.180509 0.197769,-0.205971 0.439487,-0.05658 0.274479,0.169637 0.336064,0.104278 0.164031,-0.174079 -0.151499,-0.245133 -0.43492,-0.347142 -0.629823,-0.226686 -0.194899,0.120456 -0.356989,0.08043 -0.360195,-0.08896 -0.0032,-0.169383 -0.150352,-0.535947 -0.326991,-0.814586 -0.25142,-0.396602 -1.075158,-0.127939 -3.793269,1.237178 -1.909658,0.959089 -3.719796,1.743797 -4.022529,1.743797 -0.324217,0 -1.597603,-2.07287 -3.098512,-5.043885 -1.40145,-2.774134 -2.371017,-4.87258 -2.154595,-4.663211 0.216422,0.209369 1.256946,2.093688 2.312276,4.187377 3.003618,5.958929 2.363529,5.637104 6.838574,3.438309 2.547943,-1.251922 3.952758,-2.174694 4.226982,-2.776549 0.316359,-0.694331 0.60681,-0.846314 1.264152,-0.661498 0.585425,0.164595 0.693566,0.128952 0.344358,-0.113498 -0.352383,-0.244661 -0.460634,-0.960997 -0.351705,-2.32741 0.08655,-1.085683 0.01588,-2.061422 -0.157103,-2.168317 -0.172958,-0.106895 -0.314468,-0.500294 -0.314468,-0.874225 0,-0.373936 -0.352185,-0.998602 -0.782635,-1.388151 -0.662883,-0.599902 -0.901543,-0.634018 -1.559751,-0.22296 -0.427414,0.266924 -0.874635,0.387798 -0.993826,0.268605 -0.119192,-0.119192 -0.01019,-0.216712 0.242233,-0.216712 0.266971,0 0.146473,-0.335399 -0.28807,-0.801825 -0.410858,-0.441002 -0.912026,-0.699843 -1.113708,-0.575199 -0.482521,0.298216 -1.349555,-0.760849 -1.036964,-1.266631 0.142149,-0.230003 0.01007,-0.303648 -0.318466,-0.177581 -0.308739,0.118476 -0.658277,0.468014 -0.776752,0.776752 -0.121091,0.315562 -0.05064,0.459514 0.160903,0.328773 0.20697,-0.127912 0.37631,-0.06949 0.37631,0.129837 0,0.199325 -0.26781,0.465176 -0.595133,0.590784 -0.333123,0.127829 -0.474821,0.423043 -0.321854,0.670551 0.177383,0.287009 0.10626,0.338949 -0.202681,0.148012 -0.656038,-0.405453 -0.163948,-3.671587 0.647306,-4.296351 0.91724,-0.706381 1.233703,-0.584322 1.233703,0.475839 0,1.00298 1.192296,2.476939 1.998519,2.47064 0.261711,-0.0019 1.351136,-0.411283 2.420945,-0.909418 1.723326,-0.80243 2.17704,-0.863543 3.979255,-0.535979 1.772078,0.322086 2.097741,0.282744 2.527769,-0.305353 0.271495,-0.37129 0.493623,-0.809229 0.493623,-0.973205 0,-0.642832 -2.308967,-1.442142 -3.958534,-1.370351 -1.671451,0.07275 -2.956812,-0.533632 -2.371618,-1.118825 0.154453,-0.154451 0.423659,-0.04971 0.598235,0.232761 0.174575,0.282472 0.507864,0.395876 0.740643,0.252013 0.232776,-0.143863 0.437204,-0.03732 0.454281,0.236732 0.01709,0.274066 0.271136,-0.05012 0.564568,-0.72042 0.408798,-0.93383 0.84569,-1.277284 1.868966,-1.469252 0.7345,-0.137793 1.264104,-0.365984 1.176896,-0.507088 -0.08721,-0.14111 0.427611,-0.237112 1.144044,-0.213341 0.716433,0.02379 1.223589,-0.03578 1.127009,-0.132375 -0.09658,-0.09658 0.0753,-0.533815 0.381968,-0.971637 0.714622,-1.020271 0.713027,-2.307741 -0.0034,-2.902487 -0.46548,-0.386313 -0.699067,-0.231993 -1.369949,0.905063 -0.445004,0.753936 -0.973447,1.370791 -1.17449,1.370791 -0.201048,0 -0.24331,0.197769 -0.09392,0.439484 0.157578,0.254964 0.105453,0.336795 -0.124141,0.194894 -0.217667,-0.134525 -0.934823,-0.05667 -1.59368,0.173006 -1.027311,0.358121 -1.131029,0.506569 -0.728261,1.042285 0.395338,0.525831 0.385216,0.549386 -0.06395,0.148851 -0.539863,-0.481412 -1.866039,-0.691629 -1.395633,-0.221227 0.281947,0.281947 -0.819561,1.648739 -1.328734,1.648739 -0.176917,0 -0.32167,-0.330206 -0.32167,-0.733795 0,-0.529474 0.689241,-1.059444 2.475374,-1.903351 1.361456,-0.643258 2.641818,-1.169556 2.845252,-1.169556 0.203434,0 0.633976,-0.510709 0.956762,-1.134911 l 0.586887,-1.134912 -0.982564,0.373571 c -1.355095,0.515205 -1.313667,0.552042 -1.313667,-1.168015 0,-3.19432 -1.925567,-4.9955532 -3.629315,-3.394969 -0.653333,0.613777 -1.16589,0.780049 -1.870966,0.606935 -0.534113,-0.131134 -1.396513,-0.3435 -1.916442,-0.471928 -0.51993,-0.128423 -1.217936,-0.128887 -1.551124,-9.37e-4 -0.53394,0.204893 -0.51464,0.348353 0.162716,1.209475 0.940442,1.195575 0.793146,1.63357 -0.924643,2.749482 -1.798689,1.16847 -2.305975,2.549943 -1.532195,4.172579 0.496958,1.042126 0.505418,1.239085 0.05322,1.239085 -0.976404,0 -1.734049,-1.164264 -1.734049,-2.664696 0,-1.407319 -0.875991,-2.874033 -1.489902,-2.494618 -0.157581,0.09739 -0.196373,0.741349 -0.0862,1.431015 0.116538,0.729543 0.260864,0.975346 0.345113,0.587764 0.282146,-1.297984 0.815163,-0.644293 0.620795,0.761345 -0.108566,0.78513 -0.231741,2.025096 -0.273722,2.755472 -0.05289,0.92011 -0.279608,1.367106 -0.738215,1.455428 -0.364037,0.0701 -0.661886,-0.0564 -0.661886,-0.281118 0,-0.224721 0.227284,-0.408581 0.505076,-0.408581 0.34005,0 0.452473,-0.358408 0.344081,-1.096932 -0.08855,-0.603311 0.02677,-1.212978 0.256264,-1.354813 0.729037,-0.450569 0.449702,-0.974999 -0.439248,-0.824655 -0.471079,0.07967 -0.815664,0.329611 -0.765742,0.555413 0.04992,0.225807 -0.07804,0.854538 -0.284353,1.39719 -0.248761,0.654291 -0.247279,0.907624 0.0044,0.752077 0.56461,-0.348947 0.459251,0.288485 -0.204258,1.235774 -0.321077,0.458404 -0.544701,1.413693 -0.49694,2.122864 0.07084,1.051965 0.230917,1.27352 0.86928,1.203176 1.237525,-0.136375 1.258553,-0.148087 1.52561,-0.849564 0.203349,-0.534138 0.158606,-0.57186 -0.225742,-0.190338 -0.605628,0.601185 -1.609654,0.630558 -1.242414,0.03634 0.168286,-0.272291 0.104424,-0.336153 -0.16787,-0.167868 -0.612404,0.378487 -0.552517,-0.347627 0.07138,-0.865412 0.280974,-0.233187 0.637852,-0.296989 0.793063,-0.141779 0.155211,0.15521 0.467778,0.282205 0.694594,0.282205 0.723852,0 0.736728,0.88005 0.02379,1.62619 -1.438018,1.504997 -1.659924,2.236301 -0.890007,2.933067 0.824175,0.745867 4.074393,0.650399 3.911578,-0.114894 -0.118777,-0.558298 0.533308,-0.589604 0.871834,-0.04187 0.16337,0.264339 0.510526,0.170234 0.997382,-0.270365 0.631566,-0.571561 0.798577,-0.59204 1.082443,-0.132732 0.416746,0.674306 -0.299022,1.63366 -1.014129,1.359248 -0.723589,-0.277667 -0.633782,0.557637 0.119146,1.108189 0.762476,0.55754 0.372545,1.336896 -0.668878,1.336896 -0.652947,0 -0.723166,-0.175675 -0.514599,-1.287438 l 0.241525,-1.287438 -1.463091,0.267542 c -1.914805,0.350146 -3.394029,-0.07411 -4.529255,-1.299037 -0.74828,-0.807408 -1.058344,-0.91849 -1.661987,-0.59543 -0.927589,0.49643 -1.13035,0.17996 -0.966336,-1.508257 0.07119,-0.732788 0.140374,-1.448909 0.153739,-1.591372 0.01335,-0.142467 0.409729,-0.333263 0.88081,-0.423997 0.609909,-0.117474 0.495077,-0.179895 -0.39885,-0.216811 -0.910804,-0.0376 -1.511568,0.224617 -2.188852,0.95542 -0.513425,0.553994 -0.933503,1.222282 -0.933503,1.48508 0,0.262803 -0.602188,0.833122 -1.338198,1.267376 -1.438592,0.848791 -2.217976,2.294174 -1.819637,3.374546 0.135762,0.368214 0.970331,1.782941 1.854601,3.143837 0.884266,1.360896 2.591884,4.187376 3.794709,6.281063 2.753132,4.792229 3.884677,6.281062 4.77374,6.281062 0.386899,0 1.561174,-0.761779 2.6095,-1.692842 z m 3.448752,-22.050117 c 0,-0.31626 0.197769,-0.697244 0.439486,-0.846632 0.262309,-0.162118 0.336539,-0.105046 0.184127,0.141563 -0.14045,0.227249 -0.07702,0.523405 0.14095,0.658117 0.217971,0.134717 0.361805,0.103725 0.319631,-0.06886 -0.171152,-0.700405 0.861916,-3.470193 1.514617,-4.060879 0.875948,-0.792726 1.415064,-0.348493 0.629936,0.519064 -0.318789,0.352258 -0.79706,1.393972 -1.062824,2.314915 -0.360814,1.25032 -0.696315,1.705254 -1.324565,1.796086 -0.550389,0.07958 -0.841358,-0.07721 -0.841358,-0.45337 z m -0.153119,-4.32599 c -0.377772,-0.377771 -0.255565,-1.242673 0.175585,-1.242673 0.221725,0 0.282244,0.214128 0.134489,0.475839 -0.203647,0.360702 -0.154497,0.370593 0.203134,0.04088 0.363634,-0.335258 0.37038,-0.624441 0.02943,-1.261512 -0.51131,-0.955392 0.03537,-1.919887 1.088205,-1.919887 0.342738,0 0.83712,-0.342602 1.098625,-0.76134 0.797879,-1.277604 4.275718,-0.888485 4.275718,0.478391 0,0.179365 -0.38072,0.05946 -0.846043,-0.26647 -1.126625,-0.78912 -2.024296,-0.74738 -2.850662,0.132554 -0.374553,0.398831 -1.109259,0.784343 -1.632681,0.856696 -0.966666,0.133617 -1.012014,0.320845 -0.548892,2.266221 0.164846,0.692448 0.06451,1.058999 -0.331476,1.21095 -0.312334,0.119857 -0.670278,0.115521 -0.795431,-0.0096 z m 3.198482,-1.623343 c -0.782929,-0.164801 -1.018394,-0.312148 -0.571006,-0.357316 l 0.761341,-0.07687 -0.761341,-0.301958 c -0.46327,-0.183734 -0.870835,-0.136004 -1.041014,0.121923 -0.172652,0.261674 -0.281904,0.160212 -0.285503,-0.265149 -0.0046,-0.54903 0.220868,-0.653302 1.109902,-0.513186 0.784058,0.123567 1.061814,0.03531 0.93435,-0.296825 -0.269979,-0.703556 0.845328,-1.454884 1.738758,-1.171322 1.198453,0.380375 1.609543,1.450782 0.929852,2.421174 -0.606694,0.866179 -0.71102,0.882462 -2.815339,0.439526 z m 2.447166,-0.598197 c 0.761832,-0.761832 0.782263,-1.170469 0.02719,-0.543813 -0.472396,0.39205 -0.576194,0.350797 -0.601059,-0.238896 -0.01991,-0.471943 -0.09978,-0.537449 -0.236415,-0.193869 -0.174226,0.438099 -0.257562,0.438099 -0.535124,0 -0.251597,-0.397121 -0.330129,-0.404427 -0.33459,-0.03114 -0.003,0.268282 0.265487,0.591899 0.597097,0.719146 0.485438,0.186282 0.50398,0.294081 0.09517,0.553231 -0.338782,0.21475 -0.358451,0.323804 -0.05911,0.327696 0.246758,0.0033 0.717837,-0.26336 1.046843,-0.592367 z m 5.018956,-0.232799 c 0.109942,-0.17789 0.359357,-0.224879 0.55426,-0.104427 0.498062,0.307821 0.441982,0.427861 -0.199894,0.427861 -0.304844,0 -0.464307,-0.145544 -0.354366,-0.323434 z M 44.033528,44.248847 c 0,-0.289633 -0.342602,-0.616199 -0.761341,-0.725703 -0.857408,-0.224218 -0.986651,0.11339 -0.304533,0.795506 0.608092,0.608095 1.065874,0.578117 1.065874,-0.0698 z m -5.519721,-0.950671 c 1.977451,-0.908048 2.954605,-2.007664 2.601588,-2.927618 -0.238367,-0.621168 -0.335072,-0.569407 -0.786156,0.420786 l -0.514357,1.129083 0.153182,-1.046844 c 0.08425,-0.575764 0.03873,-1.046844 -0.101214,-1.046844 -0.139915,0 -0.455018,0.47108 -0.700222,1.046844 l -0.44583,1.046844 0.18926,-1.046844 c 0.104095,-0.575764 0.105818,-1.046844 0.0037,-1.046844 -0.101982,0 -0.454109,0.47108 -0.782498,1.046844 -0.484062,0.848709 -0.553559,0.884731 -0.367174,0.190335 0.133359,-0.496862 0.05928,-0.856508 -0.176433,-0.856508 -0.223475,0 -0.406319,0.246842 -0.406319,0.548539 0,0.301696 -0.189654,0.665754 -0.421455,0.809011 -0.27939,0.172677 -0.340349,0.005 -0.18084,-0.497635 0.212689,-0.670122 0.07384,-0.752968 -1.196395,-0.713843 -0.899734,0.02772 -1.405979,-0.119995 -1.354012,-0.395064 0.04566,-0.24163 -0.167624,-0.647323 -0.473933,-0.901538 -0.707771,-0.587398 -2.470247,0.45109 -2.452062,1.444808 0.01353,0.738877 1.379253,2.418825 2.490913,3.064004 1.094108,0.634992 3.204641,0.520239 4.920127,-0.267516 z m 6.43067,-0.266873 c 0.76519,-1.994051 -0.161129,-5.819422 -2.195896,-9.068299 -0.66826,-1.067002 -1.396955,-2.279001 -1.61931,-2.693323 -0.251325,-0.468295 -1.686765,-1.216738 -3.793899,-1.978158 -3.719443,-1.344027 -5.483295,-1.578306 -5.483295,-0.728311 0,1.536739 2.011182,8.784084 2.546201,9.1753 0.397168,0.290417 0.544277,0.793833 0.420771,1.439912 -0.18343,0.959559 -0.136726,0.987774 1.37176,0.828702 0.858912,-0.09057 2.075565,-0.305738 2.703669,-0.478144 2.033651,-0.558208 2.652932,-0.376179 2.78962,0.81997 0.06871,0.601269 -0.06083,1.278979 -0.287875,1.506022 -0.296624,0.296623 0.04318,0.593869 1.207418,1.056167 2.087577,0.828936 2.069215,0.827995 2.340836,0.120162 z M 31.62176,38.239367 c -0.186746,-0.30216 -0.06521,-0.364762 0.377977,-0.194695 0.388009,0.148893 0.558795,0.09788 0.42065,-0.125645 -0.127913,-0.206971 0.04603,-0.37631 0.386552,-0.37631 0.406984,0 0.555155,-0.228261 0.432427,-0.666173 -0.778925,-2.779347 -1.798118,-8.222921 -1.62435,-8.675752 0.331194,-0.86308 1.793225,-0.668509 5.836421,0.776729 2.049887,0.732727 3.74134,1.332282 3.758785,1.332343 0.01747,6.6e-5 0.0317,-0.540596 0.0317,-1.201466 0,-0.871027 0.334818,-1.500741 1.217065,-2.289032 L 43.676058,25.731917 42.71958,25.36827 c -0.52606,-0.200013 -3.122875,-0.809965 -5.770703,-1.355459 -2.647828,-0.54549 -6.079479,-1.315396 -7.625889,-1.710902 -3.145471,-0.804475 -3.942332,-0.686107 -3.942332,0.585628 0,1.962442 4.810249,14.853364 5.769354,15.461224 0.693914,0.439786 0.796445,0.416009 0.471727,-0.109394 z m 35.442328,-0.31598 c -1.065458,-0.271113 -1.027182,-0.296971 0.571005,-0.385743 l 1.713017,-0.09515 -1.332346,-0.280446 -1.332347,-0.280448 1.713017,-0.100223 1.713017,-0.100224 -1.332347,-0.280446 c -1.29426,-0.272428 -1.277936,-0.283312 0.571006,-0.380672 1.884901,-0.09925 1.890436,-0.103247 0.571006,-0.412257 -0.972918,-0.227858 -0.562144,-0.276866 1.522681,-0.181669 l 2.855028,0.130366 -1.903352,-0.522215 c -2.552642,-0.700363 -5.567917,-0.669581 -8.254609,0.08426 -2.190168,0.614532 -2.643466,1.159272 -1.916241,2.302796 0.266602,0.419219 2.159806,0.720787 4.841465,0.771196 l 1.142011,0.02147 z M 61.241947,36.42081 c 0.09056,-0.617048 0.02436,-1.035192 -0.147129,-0.92921 -0.305206,0.188628 -0.454726,2.051117 -0.164663,2.051117 0.08092,0 0.221227,-0.504858 0.311792,-1.121907 z M 42.564749,32.134123 c -0.942359,-1.471692 -1.077217,-1.150927 -0.21617,0.51416 0.329494,0.637165 0.693465,1.064095 0.808832,0.948728 0.115362,-0.115362 -0.151338,-0.773662 -0.592662,-1.462888 z m 23.442685,-6.570299 c 0.162421,-0.178546 0.09581,-0.210442 -0.148012,-0.07088 -0.243827,0.139554 -0.505092,0.06844 -0.580583,-0.158039 -0.08623,-0.258677 -0.553145,-0.307399 -1.255816,-0.131036 -0.987323,0.247798 -1.03086,0.313951 -0.371093,0.563805 0.890704,0.337315 1.946306,0.245963 2.355504,-0.203848 z m -16.64452,0.03437 c 0,-0.07905 -0.2417,-0.344321 -0.537116,-0.589492 -0.411283,-0.341337 -0.603423,-0.338476 -0.820154,0.01222 -0.173015,0.279938 -0.122424,0.358702 0.130137,0.202611 0.227254,-0.140449 0.520782,-0.08127 0.652291,0.131519 0.235332,0.380773 0.574842,0.524388 0.574842,0.243157 z m 6.344507,-1.93322 c 0,-0.304842 -0.142751,-0.466037 -0.317225,-0.358206 -0.174474,0.107832 -0.317226,0.357251 -0.317226,0.554262 0,0.19701 0.142752,0.358205 0.317226,0.358205 0.174474,0 0.317225,-0.249418 0.317225,-0.554261 z m 13.069683,-1.518686 c 0,-0.70298 -1.408233,-0.997993 -1.905244,-0.399131 -0.296686,0.357485 -0.28535,0.536424 0.04088,0.645169 1.016264,0.338752 1.86436,0.226832 1.86436,-0.246038 z m -6.422838,-2.780601 c 0.473505,-0.603766 0.46004,-0.61723 -0.143726,-0.143723 -0.366395,0.287347 -0.666173,0.587122 -0.666173,0.666172 0,0.313305 0.312603,0.111653 0.809899,-0.522449 z M 53.778993,17.90618 c -0.331123,-1.078087 -0.445137,-1.193491 -0.543429,-0.550051 -0.09966,0.652418 0.477497,1.914389 0.875543,1.914389 0.04781,0 -0.101643,-0.613951 -0.332114,-1.364338 z m -5.128865,-7.295898 c 0.473507,-0.603766 0.460043,-0.6172302 -0.143722,-0.143728 -0.366396,0.287347 -0.666172,0.587127 -0.666172,0.666177 0,0.313304 0.312602,0.111648 0.809894,-0.522449 z M 61.734702,9.0411678 c 0,-0.236175 -0.125309,-0.440458 -0.27846,-0.453959 -0.153155,-0.01349 -0.798841,-0.173797 -1.434859,-0.356206 -0.715209,-0.205117 -1.071774,-0.194726 -0.934591,0.02726 0.121995,0.19739 -0.0416,0.459973 -0.363542,0.583511 -0.46631,0.178944 -0.489189,0.320784 -0.112498,0.697473 0.260069,0.260073 0.726747,0.5666342 1.037061,0.6812522 0.663111,0.244927 2.086889,-0.5596562 2.086889,-1.1793112 z m -1.142011,0.331934 c -0.129397,-0.209369 -0.05386,-0.38067 0.167869,-0.38067 0.221725,0 0.403137,0.171301 0.403137,0.38067 0,0.20937 -0.07554,0.38067 -0.167869,0.38067 -0.09233,0 -0.27374,-0.1713 -0.403137,-0.38067 z m -9.737148,-0.522449 c -0.01785,-0.25487 -0.1102,-0.229478 -0.227353,0.0625 -0.161242,0.401851 -0.31229,0.401851 -0.826456,0 -0.548415,-0.428625 -0.568514,-0.413957 -0.156619,0.114304 0.259894,0.333315 0.345545,0.755922 0.190335,0.939127 -0.15521,0.1832002 0.01758,0.1036402 0.383973,-0.176804 0.366395,-0.280448 0.65265,-0.703055 0.63612,-0.939127 z m 7.1359,-0.793152 c 0,-0.304843 -0.145545,-0.464309 -0.323435,-0.354366 -0.177888,0.109939 -0.22488,0.359358 -0.104423,0.554261 0.307819,0.49806 0.427858,0.441976 0.427858,-0.199895 z m -1.078566,-0.687859 c -0.06979,-0.08995 0.114237,-0.454091 0.408948,-0.809196 0.644804,-0.77694 0.09638,-1.520391 -0.852854,-1.156135 -0.788812,0.302693 -0.829289,1.253308 -0.06584,1.546269 0.312851,0.12005 0.456688,0.414454 0.31964,0.654225 -0.137049,0.239772 -0.12179,0.321749 0.03391,0.182171 0.155698,-0.139578 0.225988,-0.327378 0.156198,-0.417334 z m -0.62652,-1.065696 c 0.0916,-0.274796 0.391377,-0.574576 0.666173,-0.666171 0.285503,-0.09517 0.428254,0.04758 0.333087,0.333085 -0.0916,0.274796 -0.391377,0.574576 -0.666173,0.666172 -0.285503,0.09517 -0.428254,-0.04758 -0.333087,-0.333086 z M 48.220904,20.770748 c 0,-0.221723 0.171301,-0.297265 0.380671,-0.167868 0.209369,0.129397 0.38067,0.310809 0.38067,0.403135 0,0.09233 -0.171301,0.167868 -0.38067,0.167868 -0.20937,0 -0.380671,-0.181412 -0.380671,-0.403135 z m -0.76134,-0.738876 c 0,-0.209369 0.181412,-0.38067 0.403135,-0.38067 0.221723,0 0.297265,0.171301 0.167868,0.38067 -0.129397,0.20937 -0.310809,0.380671 -0.403135,0.380671 -0.09233,0 -0.167868,-0.171301 -0.167868,-0.380671 z m 0.951673,-3.045361 c 0.129397,-0.209369 0.310809,-0.38067 0.40314,-0.38067 0.09233,0 0.167868,0.171301 0.167868,0.38067 0,0.209369 -0.181412,0.38067 -0.403135,0.38067 -0.221728,0 -0.29727,-0.171301 -0.167873,-0.38067 z m 0.38067,-1.142011 c -0.129397,-0.209369 -0.06396,-0.38067 0.145404,-0.38067 0.209369,0 0.486542,0.171301 0.615939,0.38067 0.129397,0.20937 0.06396,0.38067 -0.145403,0.38067 -0.209368,0 -0.486543,-0.1713 -0.61594,-0.38067 z m -0.571003,-1.14201 c 0,-0.20937 0.181412,-0.380675 0.403135,-0.380675 0.221728,0 0.297265,0.171305 0.167868,0.380675 -0.129397,0.209364 -0.310808,0.38067 -0.403134,0.38067 -0.09233,0 -0.167869,-0.171306 -0.167869,-0.38067 z m 1.332346,0 c 0.129397,-0.20937 0.310808,-0.380675 0.403136,-0.380675 0.09233,0 0.167869,0.171305 0.167869,0.380675 0,0.209364 -0.181411,0.38067 -0.403136,0.38067 -0.221725,0 -0.297266,-0.171306 -0.167869,-0.38067 z m 1.713016,-1.522686 c 0,-0.209369 0.171302,-0.38067 0.380671,-0.38067 0.209368,0 0.38067,0.171301 0.38067,0.38067 0,0.20937 -0.171302,0.38067 -0.38067,0.38067 -0.209369,0 -0.380671,-0.1713 -0.380671,-0.38067 z m 0.571006,-1.14201 c -0.129397,-0.20937 -0.05386,-0.380671 0.167869,-0.380671 0.221725,0 0.403137,0.171301 0.403137,0.380671 0,0.209369 -0.07554,0.38067 -0.16787,0.38067 -0.09233,0 -0.273739,-0.171301 -0.403136,-0.38067 z m 1.579858,-0.178607 c -0.107893,-0.28116 0.09808,-0.777492 0.457717,-1.102959 0.599888,-0.54289 0.660027,-0.517541 0.728269,0.307016 0.08129,0.98215 -0.869638,1.620336 -1.185986,0.795943 z m -3.10254,-0.582734 c 0.129397,-0.209369 0.310809,-0.38067 0.403137,-0.38067 0.09233,0 0.167869,0.171301 0.167869,0.38067 0,0.20937 -0.181411,0.38067 -0.403136,0.38067 -0.221725,0 -0.297267,-0.1713 -0.16787,-0.38067 z m 1.713017,-0.571003 c -0.273149,-0.329128 -0.310146,-0.571007 -0.08734,-0.571007 0.212604,0 0.485155,0.256953 0.605669,0.571007 0.120514,0.31405 0.159816,0.571003 0.08734,0.571003 -0.07248,0 -0.345029,-0.256953 -0.60567,-0.571003 z"
     style="fill:#000000;stroke-width:0.3806704" />
</svg>
