<?xml version="1.0" encoding="UTF-8" standalone="no"?>
<svg
   xmlns:dc="http://purl.org/dc/elements/1.1/"
   xmlns:cc="http://creativecommons.org/ns#"
   xmlns:rdf="http://www.w3.org/1999/02/22-rdf-syntax-ns#"
   xmlns:svg="http://www.w3.org/2000/svg"
   xmlns="http://www.w3.org/2000/svg"
   id="svgW7"
   version="1.1"
   viewBox="0 0 100 100"
   height="100"
   width="100">
  <defs
     id="defs2" />
  <metadata
     id="metadata5">
    <rdf:RDF>
      <cc:Work
         rdf:about="">
        <dc:format>image/svg+xml</dc:format>
        <dc:type
           rdf:resource="http://purl.org/dc/dcmitype/StillImage" />
        <dc:title></dc:title>
      </cc:Work>
    </rdf:RDF>
  </metadata>
  <path
     id="pathW7"
     d="m 29.986686,5.0011553 c -0.25692,0.22 0.35658,0.1346 0,0 z m 25.45182,0.2598 c -3.16456,0.01 -5.4437,2.5455 -8.51746,1.0491 -3.21113,-0.1843 -1.84062,6.0538997 -4.61116,4.9905997 -2.19939,-1.8265997 0.59482,3.5419 2.12115,0.5187 0.43154,-1.6445 2.86899,-6.2902997 4.06585,-3.0322997 -2.2749,2.8126997 -1.51287,6.4569997 -1.72795,9.7757997 -0.96923,3.1351 -3.74562,5.5325 -3.84622,8.9798 -1.83059,3.0306 -7.53853,0.3397 -7.90678,4.9192 -0.65056,2.7829 -3.65069,4.1834 -4.2798,6.9967 -0.3347,2.5246 -3.88551,3.4097 -4.46796,5.3916 -1.39634,1.7785 2.76815,3.7323 3.6724,5.5872 0.44457,3.0127 2.36961,5.0555 3.89016,7.4231 -0.61224,2.1533 -0.12892,4.6236 0.83999,6.3054 0.004,1.3612 1.19407,4.6353 1.27977,4.2284 0.2506,3.0334 1.57722,6.3354 0.53004,9.4084 -1.28172,2.311 -4.17477,2.9542 -4.47161,0 -2.10275,-0.9264 -3.35289,1.4738 -3.37739,2.5818 0.0128,2.8561 2.69319,5.112 5.13897,6.0667 3.03146,0.3506 5.98178,-1.196 8.64741,-1.7197 0.31014,2.2232 0.7724,4.8158 0.66541,7.1869 -0.76469,3.077 2.14203,3.9792 4.25763,2.1169 2.65556,0.1181 6.54065,-4.2631 2.49545,-5.1805 -1.79924,1.8486 -4.0719,1.1347 -2.55022,-1.6058 0.65311,-1.7614 -0.4008,-7.6189 -0.48613,-2.7531 0.76042,1.9461 -2.5906,6.8649 0.43119,6.8289 2.45694,-3.2866 4.3249,1.7414 0.95755,1.8497 -2.37891,1.8429 -5.81126,0.489 -4.35993,-2.7647 -1.32305,-3.6422 -0.81473,-8.1585 3.72277,-8.7598 2.58055,-0.3464 9.07419,-4.3309 8.70187,0.4805 1.17543,3.008 -1.00265,6.1494 1.78197,8.4959 -0.53792,3.1427 4.21734,4.9845 3.92574,0.8961 -1.30135,-3.5487 -1.35754,-7.2449 -0.88386,-11.0041 -1.40309,-3.4076 2.60833,-4.4924 3.18514,-7.4634 0.92515,-3.1883 0.31649,-6.6711 2.77578,-9.283 2.25495,-5.5272 0.98202,-12.5255 -3.84247,-16.3083 -4.1438,-1.558 -2.30542,-6.0302 -4.44916,-8.7723 -1.56346,-3.6549 2.79443,-2.0961 4.04484,-0.3399 2.76209,1.2208 6.49972,2.4906 5.09579,6.384 1.72108,3.1785 2.48472,6.9056 2.44773,10.5261 0.90667,2.5313 0.62115,5.2252 2.61446,7.1752 -1.25966,1.6694 0.45169,3.8864 1.30041,1.0519 1.29326,-3.1909 0.54155,-6.6591 -0.45886,-9.7363 -1.15412,-2.5931 -0.25116,-5.9322 -1.78218,-8.499 -1.70124,-2.9294 2.91928,-7.7956 -2.52314,-8.1864 -2.66141,-1.8983 -6.28102,-2.8 -8.17189,-5.5764 -1.17527,-1.7054 1.17657,-1.1354 -0.45208,-2.0495 2.29392,0.7938 5.75801,-2.0791 2.90876,-3.9004 3.00411,2.1642 1.11846,-3.9396 3.77289,-0.8778 3.42821,2.5934 7.3811,-3.824 2.60229,-5.0518 -4.58172,0.08 -2.93922,-5.1721 -5.31662,-7.3656 -1.84055,-3.6043997 -5.04985,-7.0043997 -9.39054,-6.9856997 z m 0.6176,0.4395 c 2.82739,0.335 6.13697,2.2747 6.94494,4.9954997 -3.21562,0.9597 -6.59861,2.6413 -7.06376,6.464 -2.16637,0.1113 -3.93676,0.6239 -5.85401,-0.4367 -2.01583,2.402 -1.12101,6.4079 -1.24813,9.507 0.57424,1.5967 -0.0795,2.3524 1.51286,3.391 1.09874,0.3331 3.23725,-1.0069 2.50272,-2.7552 1.73513,-4.3929 -1.87301,3.0759 -3.31104,-0.6984 0.0338,-2.8353 -0.81044,-6.6455 0.99428,-8.8453 1.73004,3.0469 4.20393,-1.2601 6.19853,1.4598 -0.0547,-2.7002 1.49023,-7.6091 5.68115,-6.6125 2.43897,-0.6463 4.58186,4.1829 1.09735,2.0417 -1.7102,-0.8847 -4.09306,1.6963 -4.84819,1.4967 2.41108,-0.7836 6.5516,-1.963 7.335,1.6452 -0.29797,3.7272 6.96423,1.7956 5.14248,6.0939 -2.70653,3.2253 -5.153,-3.1142 -8.08015,-0.4545 -2.9322,-0.1319 -7.30258,-3.739 -8.2628,0.8908 -2.22841,1.125 2.77806,0.2 2.729,2.157 1.07554,1.4587 8.15252,0.2675 4.83777,2.6253 -2.35429,-1.0507 -5.78174,-0.3195 -7.00931,-2.6907 0.54963,1.9188 2.49734,4.0043 -0.57287,5.3866 -2.18513,-0.029 -4.20186,-0.6261 -6.32843,0.5318 -3.6,-0.8291 -5.95188,-5.6151 -3.59888,-8.7296 2.00502,-2.2791 2.85994,-5.128 2.48173,-8.1519 -0.85852,-2.721 2.3529,-5.3928997 1.48978,-7.3688997 -1.60075,-0.1323 -3.40152,-1.3464 -0.59446,-0.9305 2.48907,2.3473 4.71986,-1.9176 7.71078,-1.0104 h 0.11366 z m -31.02602,6.2400997 c -0.13518,0.2039 0.24334,0.1651 0,0 z m 37.42947,3.7531 c -4.2504,-0.1133 -2.43152,6.8769 1.25221,4.8613 2.50806,-1.0566 1.32849,-5.065 -1.25221,-4.8613 z m 0.34912,0.9347 c 0.53192,0.4787 -0.43846,2.2328 0.56026,3.0099 -1.67098,0.2687 -2.34835,-2.5781 -0.56026,-3.0099 z m -1.871,0.4813 c 0.67798,1.3237 -0.0524,3.6024 -0.39707,0.8001 0.0534,-0.1994 0.0397,-0.767 0.39707,-0.8001 z m -7.22878,2.1244 c -1.875,0.9573 0.61539,6.6804 0.21029,2.4074 -0.25664,-0.7717 0.0591,-1.6649 -0.21029,-2.4074 z m -3.11657,0.59 c -0.73471,1.131 0.13864,5.9706 1.44493,3.4192 -1.91639,-0.2142 -0.18622,-2.534 -1.44493,-3.4192 z m 7.94251,2.8088 c 0.92682,0.7056 5.80211,0.8976 4.64063,1.9814 -1.52961,0.074 -6.62335,-2.0708 -3.65248,0.729 1.7059,0.4033 3.01025,1.2059 0.41749,0.8583 -2.10542,0.3129 -3.95109,-2.7757 -1.40564,-3.5687 z m -15.46767,6.1067 c 1.84597,1.2921 3.53416,3.2693 5.67066,4.3377 -0.85031,4.4434 6.82623,4.8304 5.63545,0.159 0.7836,-2.7243 5.46698,-6.2978 6.3667,-1.3983 1.93762,3.0658 5.99954,4.5856 9.17515,6.0295 4.07077,1.0717 -0.90966,5.5647 1.84939,8.0085 -0.0152,2.1954 2.36121,6.5328 -0.13117,7.5246 -1.9455,-2.1023 -0.98465,-5.7189 -2.68383,-8.1198 -0.0508,-2.9572 -0.43436,-5.8741 -3.93782,-6.5072 -2.29831,-0.669 -6.71735,-5.8956 -7.40175,-1.3347 2.01482,2.3446 1.52474,5.3903 2.50901,8.0522 3.0279,2.6129 6.37112,5.4372 7.03179,9.6432 1.25932,3.4428 -3.05875,6.3619 -6.18074,5.8478 -3.76575,-0.5306 -6.11682,-3.7073 -8.13907,-6.563 -2.57064,-1.7892 -4.32325,-5.6358 -7.94195,-3.9911 -0.5311,-3.2769 0.93693,-6.9201 -0.66149,-10.1456 -1.1043,-2.4266 -2.14102,-6.5587 -5.32994,-6.5175 -2.93167,1.902 -3.5361,5.8377 -5.98836,8.2726 -1.55095,1.4664 -5.57746,3.7639 -1.75424,5.3414 2.19701,2.0337 1.50026,5.7373 3.39174,7.833 -3.89341,1.7509 -2.57805,-5.0699 -5.23702,-6.6242 -4.302,-1.9055 -1.2156,-5.883 1.41949,-7.6559 0.51033,-3.5474 4.11035,-5.3829 4.86302,-8.7738 1.2456,-3.1127 5.09841,-1.9018 7.47498,-3.4184 z m 8.54173,2.9585 c 4.91501,0.2248 0.11231,6.7765 -0.49017,3.7417 3.81503,0.8029 1.32586,-5.5816 -0.87654,-2.1851 0.52913,1.6027 -0.47399,3.0502 -0.86568,0.6665 0.0933,-1.0799 1.06735,-2.2842 2.23239,-2.2231 z m -12.48228,2.835 c 3.38057,0.8658 4.4504,5.3924 5.24482,8.422 0.0562,1.8126 0.45251,6.873 -1.02983,6.773 0.54975,-2.6137 -1.61593,-8.0325 -4.4884,-4.5425 -1.26855,2.5804 3.35392,0.4349 2.21365,3.5084 1.83131,2.8241 -2.43191,4.9501 -4.49229,5.6664 -4.71207,-0.3531 -1.81096,-6.4394 -5.66387,-7.8702 -2.16885,-2.6241 4.06109,-3.7456 4.32012,-6.6959 1.42856,-1.5689 1.63843,-4.7025 3.8958,-5.2612 z m -4.72862,3.5472 c -0.12549,0.1239 -0.0444,0.1138 0,0 z m 6.41995,6.5249 c 2.12173,0.5731 2.33609,4.9825 1.5594,5.994 -1.13538,-1.8557 -0.4713,-4.4852 -2.71037,-5.6984 0.25869,-0.3022 0.78789,-0.1353 1.15097,-0.2956 z m -3.19347,2.6722 c -0.0203,-0.01 -0.002,0.025 0,0 z m -0.01,0 c -0.003,-0.01 -0.0171,0.011 0,0 z m -0.0109,0 -0.0333,0.044 z m -5.90137,1.436 c -0.018,0.013 0.0387,0.022 0,0 z m 15.9301,1.9072 c 0.70184,0.5436 -4.07902,2.5862 -0.88998,4.0741 3.30205,0.2576 5.52609,2.7875 6.71006,5.6883 1.33388,3.471 4.40957,7.1628 8.56153,6.3026 -1.1337,0.9704 -4.8104,0.8993 -5.83695,-1.0618 -2.16208,-1.2532 -2.15964,-3.6071 -3.9186,-5.1723 -0.31364,-3.0333 -3.8166,-4.9195 -6.26516,-5.0115 -1.3995,-1.2061 -3.92951,-1.9227 -4.69102,-3.3481 1.92804,-0.4739 3.73428,1.2307 4.90284,-1.1792 0.42824,-0.2766 0.93217,-0.2869 1.42728,-0.2921 z m 0.0366,1.316 c 4.23948,1.1797 6.88552,5.0883 8.40239,8.9955 1.26111,3.1224 5.02761,3.3214 7.44471,3.5973 -2.07104,1.7643 -5.25487,0.998 -6.88481,-1.06 -1.76193,-2.5015 -2.68749,-5.3026 -4.59027,-7.6036 -1.10485,-1.657 -4.44742,-1.3857 -4.83581,-3.5639 l 0.18395,-0.2632 0.27984,-0.102 z m -7.05286,2.1594 c 2.68528,2.0191 -3.75786,1.946 -1.17837,0.095 l 0.42313,0.01 0.75524,-0.1034 z m 32.72467,0.3245 c 2.11109,2.4846 -4.72332,1.0788 -1.5331,0.3117 0.54813,0.101 1.02182,-0.204 1.5331,-0.3117 z m -37.4048,0.4233 c 2.45436,1.6289 -4.13511,3.4309 -0.83664,0.8296 0.36605,-0.1367 0.38245,-0.8158 0.83664,-0.8296 z m 7.25107,0.507 c 3.66173,0.1963 0.54302,3.1738 -0.80662,1.3713 -0.23091,-0.6948 -0.11264,-1.4589 0.80662,-1.3713 z m -5.11534,0.6329 c 2.21282,2.3869 -1.45074,0.8583 0,0 z m -0.34044,0.378 c -0.0736,0.038 0.10986,0.2563 0,0 z m 34.98477,0.2421 c 3.06096,0.9233 0.69444,7.7177 -0.97099,2.4191 0.0856,-0.7596 -0.27462,-2.4638 0.97099,-2.4191 z m -35.93107,0.041 c 2.60072,1.4486 1.61231,2.515 0.22443,2.6935 0.34793,2.0491 -0.51348,2.8941 -0.58043,0.2319 -0.28796,-1.9453 -1.73888,2.4446 -1.22628,-0.8674 -0.12886,-0.9675 0.85819,-1.6382 1.58228,-2.058 z m 11.50739,0.5564 c 3.1574,0.9825 0.58743,2.7469 0,0 z m -1.14145,0.3425 c 2.11728,2.2425 5.76401,2.5127 4.23692,6.2928 -1.09177,2.7158 -3.14354,5.3802 -6.4482,5.3826 -2.6783,-0.5471 3.54443,-6.1665 0.86996,-2.2653 -2.27229,2.3405 2.33465,0.5736 1.47846,-0.9946 2.38855,2.4493 0.10376,-3.1902 0.45782,-2.5647 1.41222,1.6899 1.96624,1.0523 1.37241,0.094 3.2722,1.3243 -4.29743,-4.5635 -1.19566,-2.7818 0.84262,1.5568 3.95665,2.798 1.37319,0.387 -1.24957,-0.8192 -3.24404,-3.4687 -0.86268,-1.0636 1.42819,2.0461 2.7652,0.753 0.56308,-0.5217 -0.34942,-0.544 -2.20136,-1.2021 -1.8453,-1.9647 z m -5.44779,0.4973 c 4.0301,1.8834 -2.61223,4.3467 -1.11597,0.1768 0.36875,-0.073 0.72757,-0.2081 1.11597,-0.1768 z m -7.37272,1.3459 c -0.30229,1.4189 0.44054,2.0752 1.58809,2.283 -1.70013,2.4591 -2.27649,-1.1017 -1.58809,-2.283 z m 32.33965,0.1302 c 1.9575,1.4453 -2.928,2.2372 -3.85156,2.7625 -1.4453,1.1703 -4.75882,-1.5757 -1.52358,-0.6094 2.03267,-0.01 3.86678,-0.8014 5.37514,-2.1531 z m -9.93788,0.3949 c 1.12235,0.4982 -0.93659,0.5957 0,0 z m 0.83725,0.4268 c 2.71873,0.8482 -0.42973,1.428 -0.0453,0.01 z m -17.50421,0.423 c -0.67531,0.8331 2.51261,2.7493 -0.51054,2.9113 -2.89204,-0.069 -0.2228,-2.0148 0.51054,-2.9113 z m 4.87204,0.075 c 2.35672,0.9375 -0.74073,4.1827 -0.85579,0.9937 -0.29464,-0.7086 0.34923,-0.9876 0.85579,-0.9937 z m 21.52064,0.4604 c 1.25405,1.0546 -1.06625,3.8402 -0.3874,1.2643 -0.87473,-0.3366 -0.19995,-1.1158 0.3874,-1.2643 z m -7.64902,0.7685 c 1.30928,2.3489 4.30108,-0.056 5.69363,1.0207 -0.97847,1.2813 -7.01643,0.8156 -5.69363,-1.0207 z m -11.1957,0.024 c 0.79357,0.5205 -1.08366,0.9751 0,0 z m -4.57329,1.7465 c 3.84929,0.7721 -1.29782,4.7837 -1.22929,0.882 -0.14182,-0.6794 0.70696,-1.0191 1.22929,-0.882 z m -5.59955,0.3147 c 3.05919,1.207 -1.68624,4.7381 -1.50108,1.2378 -0.23857,-1.1291 0.53916,-1.2976 1.50108,-1.2378 z m 0.42313,0.4037 0.0248,0.042 z m 15.53352,1.2776 c 3.16251,1.4299 -2.19375,4.9641 -2.1866,1.4035 -0.45962,-1.5612 1.22222,-1.3877 2.1866,-1.4035 z m -12.71298,0.033 c 1.63573,0.1103 -0.74357,0.5874 0,0 z m 16.7049,0.4716 c 0.0501,0.032 0.0215,0 0,0 z m -16.78929,0.7547 c 3.42191,0.2493 -1.13952,4.333 -1.39874,0.863 -0.0629,-0.79 0.86272,-0.8222 1.39874,-0.863 z m 16.48968,1.1951 c 2.49656,3.5514 -4.09252,4.0097 -2.15223,0.3445 0.68461,-0.2745 1.42669,-0.3007 2.15223,-0.3445 z m 4.38954,0.1466 c 2.52545,2.2791 -2.07825,2.736 -0.30234,0.047 z m -11.34593,0.3897 c 3.34927,1.1469 -1.75185,4.7692 -1.66588,1.1837 -0.40139,-1.2138 0.87801,-1.1855 1.66588,-1.1837 z m 13.19872,0.039 c 1.13532,1.7934 0.006,4.9261 -1.7219,6.2113 -1.06163,2.0453 -3.51849,2.691 -5.64796,3.1503 -2.25905,1.0474 -4.75153,0.8631 -6.50671,1.5166 -1.8745,1.2092 -4.37583,1.0703 -5.87993,2.7065 -1.91939,0.6984 -3.70956,2.0913 -6.00225,2.4419 -2.66605,2.0214 -6.07494,-0.6663 -7.02615,-3.1552 -2.48729,-1.2394 0.34145,-5.8438 1.4972,-2.7083 -0.66362,0.9576 -2.55214,-0.3937 -0.76831,1.351 -0.15882,3.4962 3.96501,4.7195 6.69283,3.4998 5.14221,-1.9556 9.74249,-5.4847 15.38907,-5.9599 3.05292,-0.2537 5.98093,-0.558 7.86128,-3.1498 1.96243,-1.44 0.68928,-4.5467 2.11283,-5.9042 z m -27.66684,0.3061 c 0.0126,0.092 0.0783,-0.014 0,0 z m 7.78088,0.4102 c 4.83019,0.2221 -1.71797,5.0748 -0.83697,0.4246 0.13714,-0.3186 0.51974,-0.4356 0.83697,-0.4246 z m 16.75901,0.2235 c 0.52417,0.3865 -0.3905,0.4143 0,0 z m -21.77737,0.029 c 2.7345,1.5842 -1.83049,4.4647 -1.57524,0.9799 -0.17031,-0.8694 1.01514,-0.9183 1.57524,-0.9799 z m 21.16454,1.6678 c 3.66025,1.0833 -1.72241,4.9918 -1.60782,1.1122 -0.16305,-1.0362 0.85323,-1.1609 1.60782,-1.1122 z m -5.6363,0 c 1.7761,0.6992 0.47325,4.0284 -1.52851,2.5344 -1.22766,-1.6323 -0.65559,-2.9489 1.52851,-2.5344 z m -7.36983,0.6779 c 3.65634,-0.8264 0.7204,5.2049 -0.69036,1.3853 -0.0914,-0.5446 -0.16831,-1.5168 0.69036,-1.3853 z m -4.87749,0.5145 c 3.57736,1.0705 -2.07857,4.4065 -1.59798,0.7314 0.0738,-0.7396 1.06995,-0.6665 1.59798,-0.7314 z m 14.99826,1.8386 c 3.51354,2.2137 -3.47652,3.1091 -0.96394,0.082 l 0.6332,-0.07 z m -6.26121,0.2535 c 3.57136,-0.2556 0.49967,5.0869 -0.9116,2.1152 -0.23936,-0.7971 -0.26407,-2.1802 0.9116,-2.1152 z m 13.39948,0.3881 c -0.0455,0.5242 0.16383,0.058 0,0 z m -18.74774,0.067 c 3.87197,2.1975 -3.5467,3.7142 -1.1571,0.3505 0.13219,-0.1462 0.72053,-0.4424 1.1571,-0.3505 z m -7.57671,0.1125 c 3.33095,-1.0805 3.54333,4.5959 0.45225,2.3095 -0.21242,-0.7435 -1.18103,-1.5282 -0.45225,-2.3095 z m 10.14357,2.8465 c 1.27978,0.1389 -0.96595,0.7028 0,0 z m -4.8125,0.016 c 3.18004,1.3247 -2.69806,5.3615 -1.67009,1.1115 -0.38613,-1.1977 0.99296,-1.0264 1.67009,-1.1115 z m 16.80427,0.1366 c 2.4808,2.3267 -0.46825,6.8475 0.78195,9.9487 0.6472,1.55 1.7601,5.2249 -0.56354,4.8362 -1.37088,-2.9621 -3.34267,-5.48 -2.69118,-8.8015 -0.66006,-2.3928 -1.07769,-5.9615 2.47277,-5.9834 z m -22.9959,0.2297 c 3.39839,0.9961 -1.31711,4.1111 -0.8949,0.8597 0.26672,-0.2518 0.45468,-0.8011 0.8949,-0.8597 z m 2.98591,0.2063 c 0.96071,0.4152 -0.85559,0.6493 0,0 z m 10.02567,0.4136 c -0.13531,0.2042 0.24356,0.1654 0,0 z m -15.35079,2.0405 c 3.71564,1.9983 -2.77341,3.5529 -0.65588,0.071 z m 5.20687,0.5097 c 2.69092,0.6598 -2.66821,1.012 0,0 z m 20.3336,10.0128 0.0606,0.032 z"
     style="fill:#000000;stroke-width:0.07080928" />
</svg>
